<svg width="231" height="127" viewBox="0 0 231 127" fill="none" xmlns="http://www.w3.org/2000/svg">
<g clip-path="url(#clip0_632_3559)">
<path d="M138.183 69.7395C138.183 63.3116 138.183 56.8878 138.183 50.4598C138.183 48.7638 138.252 48.699 139.944 48.699C142.709 48.699 145.477 48.7233 148.242 48.6869C149.209 48.6748 149.57 49.0472 149.553 49.9984C149.545 50.5691 149.209 51.4273 149.776 51.6539C150.258 51.8482 150.569 50.9618 150.998 50.6015C153.48 48.5371 156.313 48.1445 159.377 48.8164C163.623 49.7434 166.473 52.4109 168.044 56.2887C170.658 62.7409 170.262 69.0312 166.08 74.771C163.34 78.5354 158.418 80.0898 154.091 78.8754C152.82 78.5192 151.808 77.7623 150.82 76.9244C150.488 76.6451 150.189 76.0096 149.703 76.2525C149.315 76.4468 149.533 77.058 149.533 77.4789C149.521 81.4498 149.529 85.4207 149.525 89.3876C149.525 90.9096 149.464 90.9703 147.918 90.9703C145.186 90.9703 142.454 90.9703 139.721 90.9703C138.289 90.9703 138.175 90.8691 138.175 89.4119C138.171 82.8504 138.175 76.2889 138.175 69.7314L138.183 69.7395ZM148.898 64.2467C148.873 67.0842 151.156 69.4521 153.953 69.4886C156.815 69.525 159.175 67.1854 159.175 64.3074C159.175 61.4699 156.973 59.2719 154.103 59.2476C151.152 59.2233 148.918 61.3687 148.894 64.2507L148.898 64.2467Z" fill="white"/>
<path d="M106.518 38.0387C110.092 38.0387 113.666 38.0346 117.244 38.0387C118.616 38.0387 118.778 38.2127 118.576 39.5768C118.183 42.2039 117.734 44.8228 117.341 47.4458C117.208 48.3444 116.69 48.5711 115.864 48.567C112.253 48.5427 108.647 48.5994 105.04 48.5346C103.976 48.5144 103.474 48.8382 103.445 49.9028C103.425 50.6395 103.041 51.6474 103.385 52.04C103.854 52.5743 104.587 51.7081 105.234 51.526C110.391 50.0809 116.188 52.4853 118.851 57.2293C122.174 63.1432 121.324 70.2268 116.653 75.1489C114.463 77.4562 111.703 78.7515 108.566 79.1401C104.154 79.6906 99.944 79.1401 96.2363 76.4523C93.504 74.4689 91.9051 71.7164 90.9256 68.551C90.707 67.8548 91.0025 67.5107 91.6542 67.4217C94.4229 67.0412 97.1956 66.6769 99.9642 66.3004C100.62 66.2114 100.814 66.7133 101.094 67.1262C102.866 69.7492 106.42 70.2511 108.796 68.2231C110.407 66.8428 110.974 64.3818 110.152 62.3255C109.302 60.1964 107.404 59.1115 104.773 59.2573C102.83 59.3665 100.915 60.9088 100.462 62.9489C100.239 63.9487 99.8711 64.0903 98.9563 63.8434C96.811 63.2565 94.6455 62.7505 92.4759 62.2486C91.6218 62.0502 91.3061 61.6131 91.4235 60.7428C92.3625 53.6146 93.2976 46.4824 94.1921 39.3461C94.3136 38.3665 94.7507 38.0225 95.7019 38.0306C99.3085 38.0549 102.919 38.0427 106.53 38.0387H106.518Z" fill="white"/>
<path d="M76.0096 38.0372C79.5514 38.0372 83.0892 38.0331 86.631 38.0372C88.0517 38.0372 88.1934 38.1951 87.991 39.543C87.5984 42.1336 87.1693 44.7201 86.801 47.3148C86.6714 48.2174 86.2464 48.5777 85.3276 48.5696C81.721 48.5372 78.1104 48.5574 74.5039 48.5574C73.0993 48.5574 72.9819 48.6789 72.8483 50.0916C72.8038 50.5611 72.7593 51.0266 72.6905 51.4921C72.5852 52.1762 72.7795 52.3786 73.4474 52.0507C75.8073 50.893 78.2804 50.9052 80.7536 51.5042C85.3883 52.6295 89.2701 57.0174 90.0189 61.9233C90.7314 66.6147 89.7882 70.8811 86.6188 74.5403C84.3318 77.1795 81.3972 78.6772 77.9809 79.1305C73.496 79.7215 69.2175 79.1143 65.4936 76.3213C62.8342 74.3258 61.2394 71.5975 60.3367 68.4403C60.0696 67.5012 60.8062 67.4445 61.3851 67.3595C63.6194 67.0438 65.8579 66.7685 68.0963 66.4771C68.2622 66.4568 68.4403 66.4771 68.5982 66.4204C69.5413 66.1047 70.1161 66.4204 70.6706 67.2704C71.9255 69.2012 74.2003 69.8772 76.4589 69.1608C78.5516 68.4929 80.0372 66.4568 80.0169 64.2791C79.9967 61.5671 78.0538 59.5432 75.1151 59.1748C72.9172 58.8996 70.444 60.5916 69.9097 62.9312C69.6628 64.0241 69.2256 64.0605 68.3148 63.8177C66.2019 63.2469 64.0687 62.749 61.9315 62.2593C61.0936 62.069 60.7374 61.6602 60.8548 60.7778C61.798 53.6172 62.733 46.4566 63.6356 39.288C63.753 38.3489 64.1942 38.0291 65.0928 38.0331C68.7358 38.0534 72.3747 38.0412 76.0177 38.0412L76.0096 38.0372Z" fill="white"/>
<path d="M134.561 63.7847C134.561 68.4234 134.561 73.0622 134.561 77.701C134.561 79.0044 134.492 79.0692 133.188 79.0732C130.359 79.0773 127.526 79.0773 124.696 79.0732C123.348 79.0732 123.215 78.9437 123.215 77.5513C123.211 74.224 123.271 70.9007 123.32 67.5734C123.405 61.7608 123.344 55.9441 123.369 50.1314C123.369 49.674 123.105 49.0426 123.769 48.8159C124.36 48.6135 124.672 49.1033 125.008 49.4838C126.906 51.6291 130.529 51.7384 132.642 49.7185C132.788 49.5809 132.921 49.4271 133.059 49.2773C133.367 48.9414 133.711 48.6337 134.196 48.8159C134.698 49.0061 134.557 49.4878 134.557 49.8683C134.565 54.5071 134.565 59.1459 134.565 63.7847H134.561Z" fill="white"/>
<path d="M128.638 45.7646C125.578 45.7646 123.283 43.4735 123.275 40.4012C123.267 37.5394 125.667 35.1836 128.594 35.1836C131.581 35.1836 133.957 37.5273 133.949 40.47C133.941 43.4695 131.638 45.7646 128.638 45.7646Z" fill="white"/>
</g>
<defs>
<clipPath id="clip0_632_3559">
<rect width="231" height="127" fill="white"/>
</clipPath>
</defs>
</svg>
