<svg width="231" height="127" viewBox="0 0 231 127" fill="none" xmlns="http://www.w3.org/2000/svg">
<g clip-path="url(#clip0_495_459)">
<path d="M141.679 99.581C141.619 99.5488 141.553 99.5413 141.486 99.5401C141.053 99.5321 140.621 99.5168 140.189 99.4946C139.54 99.4616 138.895 99.4064 138.249 99.3472C137.378 99.2675 136.514 99.1413 135.654 98.9884C133.994 98.6933 132.371 98.2611 130.787 97.6849C129.267 97.1325 127.795 96.4716 126.338 95.7708C124.584 94.9268 122.945 93.8944 121.354 92.7816C120.331 92.0658 119.337 91.3095 118.371 90.518C117.792 90.0433 117.23 89.5485 116.67 89.0503C116.185 88.6181 115.721 88.1636 115.26 87.7084C114.792 87.2477 114.351 86.7587 113.933 86.2503C113.13 85.2734 112.313 84.3074 111.527 83.316C110.653 82.2137 109.8 81.0954 108.947 79.9765C108.094 78.858 107.191 77.7789 106.309 76.6833C105.688 75.9115 105.096 75.1177 104.497 74.3279C103.613 73.1601 102.681 72.0296 101.76 70.8907C101.116 70.0945 100.512 69.2672 99.8673 68.4722C99.144 67.5802 98.4104 66.6968 97.6828 65.8083C97.029 65.0095 96.3754 64.2103 95.8249 63.3338C95.7985 63.2916 95.7695 63.2506 95.7447 63.2074C95.6521 63.0455 95.6536 63.0227 95.7757 62.8773C96.1125 62.4755 96.4498 62.0743 96.7874 61.6733C97.5434 60.7756 98.2777 59.8606 99 58.9357C99.9475 57.7221 100.859 56.4806 101.835 55.2889C102.615 54.3359 103.405 53.3905 104.176 52.4308C105.016 51.3864 105.841 50.3308 106.669 49.2772C107.62 48.0664 108.583 46.8649 109.57 45.6836C110.296 44.8151 111.01 43.9374 111.698 43.038C111.946 42.7139 112.216 42.4076 112.499 42.114C113.107 41.4846 113.667 40.8148 114.214 40.1337C114.554 39.7107 114.958 39.3479 115.35 38.9754C115.796 38.5514 116.26 38.1469 116.719 37.7366C117.489 37.0486 118.287 36.3947 119.102 35.7616C120.378 34.7704 121.674 33.8067 123.026 32.922C123.961 32.3106 124.931 31.764 125.941 31.2845C126.783 30.8848 127.617 30.4673 128.466 30.0805C130.683 29.0696 132.957 28.2219 135.34 27.6864C136.348 27.4601 137.365 27.2902 138.394 27.1892C138.799 27.1495 139.203 27.0943 139.612 27.0885C139.668 27.0878 139.724 27.0633 139.781 27.0498C141.379 27.0498 142.978 27.0498 144.577 27.0498C144.637 27.0823 144.703 27.091 144.77 27.092C145.145 27.0973 145.516 27.1505 145.888 27.1875C147.207 27.3189 148.506 27.5627 149.795 27.8671C151.791 28.3388 153.73 28.9911 155.635 29.7489C157.06 30.3156 158.457 30.9365 159.785 31.7088C162.279 33.1594 164.546 34.9121 166.655 36.8719C167.588 37.7386 168.464 38.6623 169.291 39.633C170.128 40.6159 170.915 41.6366 171.647 42.6994C173.001 44.6655 174.147 46.7472 175.109 48.9317C176.122 51.2325 176.896 53.6099 177.389 56.0756C177.68 57.5283 177.918 58.9889 177.959 60.4745C177.961 60.5422 177.973 60.6064 178 60.6684V65.9135C177.952 66.0152 177.954 66.1246 177.958 66.2323C177.973 66.5751 177.927 66.9146 177.89 67.2524C177.756 68.4517 177.572 69.6432 177.319 70.8245C176.716 73.6306 175.772 76.3175 174.527 78.9002C173.585 80.8543 172.475 82.7097 171.218 84.4778C170.141 85.9937 168.961 87.4233 167.644 88.7378C167.208 89.1728 166.771 89.6068 166.315 90.0213C165.662 90.6149 164.989 91.1851 164.3 91.7355C163.662 92.2447 162.991 92.7096 162.316 93.1669C161.75 93.5494 161.199 93.9554 160.605 94.292C159.257 95.0547 157.864 95.7316 156.498 96.4604C155.356 97.0695 154.119 97.4588 152.882 97.8288C151.054 98.3758 149.196 98.7967 147.314 99.1136C146.55 99.242 145.784 99.3542 145.014 99.4266C144.46 99.4788 143.904 99.5301 143.347 99.5391C143.271 99.5403 143.197 99.5445 143.128 99.5818H141.679L141.679 99.581ZM166.441 68.6673C166.433 68.5889 166.394 68.5239 166.359 68.458C166.128 68.0155 165.904 67.5685 165.661 67.1325C164.749 65.4972 163.836 63.8617 162.911 62.2334C161.518 59.7802 160.12 57.3291 158.712 54.8841C157.166 52.2012 155.609 49.5251 154.052 46.8487C152.901 44.8701 151.75 42.8915 150.548 40.943C150.387 40.6809 150.215 40.425 150.041 40.1704C149.962 40.0545 149.92 40.06 149.84 40.1744C149.825 40.1949 149.814 40.2174 149.802 40.2391C149.213 41.2643 148.625 42.2894 148.037 43.314C147.166 44.8296 146.295 46.3452 145.424 47.8603C144.573 49.3394 143.721 50.8178 142.87 52.2967C142.563 52.8306 142.258 53.3658 141.949 53.8982C141.791 54.1698 141.77 54.1673 141.602 53.8894C141.577 53.8467 141.55 53.8045 141.525 53.7613C140.984 52.8333 140.445 51.9051 139.904 50.9777C138.725 48.9574 137.546 46.9379 136.367 44.9178C135.452 43.3508 134.538 41.7832 133.623 40.2164C133.586 40.1537 133.567 40.0562 133.485 40.0523C133.387 40.0473 133.363 40.1524 133.323 40.2211C133.002 40.7758 132.686 41.3332 132.365 41.8879C131.29 43.7468 130.214 45.6054 129.136 47.4628C128.351 48.8162 127.561 50.1669 126.774 51.5196C125.778 53.2321 124.783 54.9448 123.788 56.6578C123.048 57.9315 122.306 59.2043 121.569 60.4802C120.692 62.0013 119.819 63.5252 118.944 65.048C118.326 66.1234 117.709 67.1992 117.136 68.2993C116.926 68.7026 116.896 68.5811 117.152 69.0461C117.542 69.7529 117.946 70.4523 118.348 71.1526C119.209 72.6544 120.057 74.1643 120.94 75.6531C121.925 77.3141 122.937 78.9589 123.9 80.6331C124.273 81.2823 124.651 81.9296 124.969 82.6087C125.013 82.7014 125.014 82.8493 125.146 82.8543C125.281 82.8593 125.323 82.7204 125.38 82.6217C126.125 81.3312 126.869 80.0403 127.611 78.7485C128.549 77.1178 129.484 75.4857 130.421 73.8545C131.299 72.3244 132.179 70.7946 133.058 69.2645C133.149 69.1058 133.232 68.9414 133.331 68.7885C133.433 68.6331 133.56 68.6371 133.669 68.7873C133.699 68.8275 133.721 68.8727 133.746 68.9162C134.269 69.8344 134.794 70.7521 135.317 71.6708C136.313 73.4215 137.307 75.1729 138.303 76.9239C139.323 78.7183 140.344 80.5125 141.365 82.3061C141.427 82.4146 141.494 82.5203 141.565 82.623C141.683 82.7954 141.715 82.7958 141.862 82.6347C141.907 82.5857 141.947 82.532 141.987 82.4785C142.174 82.2237 142.344 81.9571 142.509 81.6868C143.712 79.7095 144.805 77.6692 145.928 75.6461C146.638 74.3654 147.352 73.0859 148.075 71.8119C148.548 70.9794 149.035 70.1554 149.582 69.3682C149.701 69.1973 149.816 69.0219 149.976 68.8857C150.088 68.7898 150.156 68.8008 150.246 68.9187C150.271 68.9517 150.288 68.9899 150.309 69.0261C150.69 69.6902 151.072 70.3541 151.453 71.0182C152.451 72.7581 153.448 74.4986 154.447 76.2383C155.458 77.9997 156.47 79.7604 157.482 81.5211C157.698 81.8964 157.912 82.2724 158.136 82.6427C158.235 82.8058 158.276 82.8056 158.389 82.6574C158.541 82.4593 158.692 82.2592 158.825 82.048C159.397 81.1388 159.93 80.2072 160.452 79.2687C161.236 77.8576 162.013 76.4422 162.835 75.0515C163.736 73.5249 164.619 71.9876 165.504 70.4513C165.799 69.9393 166.076 69.4174 166.36 68.8989C166.399 68.8265 166.441 68.753 166.441 68.6671L166.441 68.6673Z" fill="#EEEEEE"/>
<path d="M53.0503 61.7669C53.1625 61.4911 53.1432 61.1943 53.1817 60.9072C53.3639 59.544 53.7384 58.2378 54.308 56.9868C55.0596 55.3363 56.1015 53.8926 57.4324 52.6639C59.416 50.8327 61.7376 49.6749 64.4025 49.209C65.4244 49.0303 66.4535 48.9711 67.4856 49.0273C69.1119 49.1158 70.6767 49.4818 72.1726 50.1356C73.4256 50.6831 74.5714 51.3989 75.6085 52.2891C75.6337 52.3108 75.6587 52.3328 75.684 52.3543C75.7664 52.4245 75.7649 52.493 75.6795 52.5594C75.5548 52.6566 75.4304 52.7543 75.3052 52.851C74.6853 53.3285 74.0652 53.8057 73.4451 54.2832C73.4253 54.2984 73.4051 54.3131 73.3856 54.3289C73.2184 54.4658 73.2144 54.4835 73.3419 54.6492C73.555 54.9263 73.7701 55.2019 73.9852 55.4777C75.7976 57.8013 77.6111 60.1237 79.4212 62.449C79.703 62.811 79.7085 62.7308 79.409 63.1116C77.7047 65.2766 75.9988 67.4403 74.2933 69.6042C73.9945 69.9835 73.6949 70.362 73.3963 70.7413C73.3396 70.8132 73.2849 70.8864 73.2314 70.9609C73.1915 71.0166 73.1982 71.0723 73.2494 71.1168C73.3059 71.1658 73.3661 71.2108 73.4256 71.256C74.1824 71.8286 74.9394 72.4008 75.6965 72.9732C75.7032 72.9782 75.7097 72.9832 75.7164 72.9882C75.9523 73.1676 75.9536 73.1703 75.7732 73.3912C75.4678 73.765 75.1613 74.138 74.8545 74.5108C73.6642 75.9567 72.4744 77.403 71.2834 78.8482C69.9971 80.4092 68.7099 81.9693 67.4227 83.5296C67.2708 83.7138 67.2578 83.7165 67.0521 83.5958C65.164 82.488 63.2762 81.3791 61.388 80.2713C60.8281 79.9428 60.267 79.616 59.7063 79.2884C59.6631 79.2632 59.6189 79.2399 59.5776 79.212C59.441 79.119 59.4317 79.093 59.5379 78.9556C59.7668 78.6593 60.0034 78.3687 60.236 78.0751C60.8461 77.3053 61.456 76.5353 62.0659 75.7655C62.0969 75.7263 62.1283 75.6876 62.1588 75.6481C62.2043 75.5891 62.1981 75.5404 62.1268 75.5094C62.0734 75.4862 62.0187 75.4664 61.9642 75.4462C60.3379 74.8413 58.8793 73.9599 57.5923 72.7958C55.2475 70.6753 53.8243 68.0454 53.2612 64.943C53.2032 64.6242 53.1585 64.3024 53.1335 63.9783C53.1227 63.8387 53.1175 63.695 53.0505 63.5653V61.7669H53.0503ZM66.7361 55.9816C63.2782 55.9322 60.0566 58.7797 60.0516 62.6671C60.0471 66.1715 62.8462 69.3214 66.7278 69.3399C70.3682 69.3574 73.4076 66.4186 73.4118 62.6754C73.4163 58.8269 70.285 55.9577 66.7361 55.9816Z" fill="#CECECE"/>
<path d="M91.7208 75.6274C91.6359 75.6286 91.5974 75.5571 91.5519 75.5007C91.3646 75.2668 91.1804 75.0302 90.9938 74.7959C89.6046 73.0501 88.2152 71.3049 86.8258 69.5595C86.8155 69.5465 86.8053 69.5333 86.7945 69.5205C86.6849 69.3879 86.5782 69.3869 86.4742 69.5175C84.9209 71.4728 83.3679 73.4284 81.8138 75.3832C81.5539 75.7103 81.5982 75.6876 81.2816 75.4362C79.3718 73.9191 77.4634 72.4 75.5543 70.882C75.5283 70.8612 75.5008 70.842 75.4756 70.8205C75.3299 70.6956 75.3259 70.6738 75.4486 70.5152C75.7899 70.0739 76.1332 69.6344 76.476 69.1945C77.6785 67.6514 78.8805 66.1083 80.0838 64.5657C80.4986 64.0341 80.9163 63.5049 81.3326 62.9744C81.3686 62.9287 81.4015 62.8803 81.44 62.8365C81.526 62.7381 81.5175 62.6489 81.4358 62.5482C81.2676 62.3416 81.1085 62.128 80.9441 61.9183C79.1239 59.601 77.3032 57.2839 75.4826 54.9667C75.4568 54.934 75.4314 54.901 75.4046 54.8691C75.3384 54.7896 75.3452 54.7196 75.4281 54.6559C75.4943 54.6055 75.5583 54.5522 75.624 54.501C77.5676 52.9864 79.5114 51.4718 81.4552 49.9578C81.6481 49.8076 81.6521 49.8076 81.807 50.0065C83.0081 51.5505 84.2086 53.0951 85.4084 54.6402C85.7504 55.0807 86.0897 55.5234 86.4303 55.9651C86.4505 55.9916 86.4697 56.0189 86.4917 56.0439C86.6079 56.1755 86.6391 56.1765 86.7678 56.0419C86.825 55.9816 86.8777 55.9169 86.929 55.8512C87.8329 54.6877 88.7351 53.5229 89.6401 52.3601C90.2535 51.5718 90.8696 50.7853 91.4857 49.9992C91.6349 49.8088 91.6481 49.8083 91.8413 49.9593C93.8156 51.5021 95.7896 53.0457 97.7635 54.589C97.7962 54.6147 97.8279 54.6417 97.8614 54.6664C97.9389 54.7239 97.9361 54.7884 97.8809 54.8588C97.8552 54.8915 97.8314 54.9258 97.8057 54.9583C96.5752 56.5216 95.3439 58.0844 94.1142 59.6482C93.3681 60.5969 92.6238 61.5473 91.8792 62.4972C91.7253 62.6936 91.7266 62.6951 91.8703 62.879C93.5095 64.9787 95.1485 67.0785 96.7881 69.178C97.1109 69.5912 97.4339 70.0045 97.758 70.4167C97.9663 70.6818 97.9686 70.6826 97.6955 70.9009C96.6619 71.7277 95.6285 72.5547 94.5929 73.3792C93.7007 74.0895 92.8057 74.7963 91.9112 75.5039C91.8533 75.5496 91.803 75.6091 91.7208 75.6269V75.6274Z" fill="#CECECE"/>
</g>
<defs>
<clipPath id="clip0_495_459">
<rect width="231" height="127" fill="white"/>
</clipPath>
</defs>
</svg>
