<svg width="231" height="127" viewBox="0 0 231 127" fill="none" xmlns="http://www.w3.org/2000/svg">
<g clip-path="url(#clip0_665_5458)">
<g clip-path="url(#clip1_665_5458)">
<path d="M40.0293 77.5991C40.0873 77.5271 40.0993 77.4401 40.1133 77.3531C40.3722 75.7955 41.222 74.6588 42.5868 73.8909C43.4976 73.3781 44.4883 73.1031 45.5121 72.9362C46.4049 72.7902 47.3047 72.7292 48.2096 72.7372C48.8334 72.7432 49.4573 72.7392 50.0812 72.7372C50.3291 72.7372 50.3431 72.7252 50.3431 72.4823C50.3431 71.9554 50.3641 71.4285 50.2331 70.9086C49.9712 69.8699 49.2273 69.256 48.1526 69.216C47.8176 69.203 47.4817 69.1931 47.1488 69.263C46.162 69.469 45.5571 70.0648 45.3252 71.0406C45.2262 71.4575 45.3212 71.4295 44.8353 71.4295C43.5475 71.4295 42.2608 71.4295 40.9731 71.4295C40.9091 71.4295 40.8451 71.4315 40.7811 71.4295C40.5782 71.4225 40.5582 71.4055 40.5822 71.2026C40.8221 69.1421 41.8199 67.5884 43.6695 66.6117C44.5053 66.1698 45.4012 65.9148 46.335 65.7829C47.0408 65.6829 47.7486 65.6259 48.4615 65.6569C49.6492 65.7089 50.818 65.8638 51.9218 66.3387C53.7614 67.1295 54.8321 68.5192 55.1551 70.4897C55.2241 70.9086 55.251 71.3295 55.251 71.7544C55.248 75.4956 55.249 79.2357 55.25 82.9768C55.25 83.4127 55.243 83.3727 54.8591 83.3727C53.5154 83.3727 52.1727 83.3747 50.829 83.3727C50.4781 83.3727 50.4371 83.4417 50.4401 82.9728C50.4431 82.5969 50.4421 82.221 50.4401 81.8461C50.4401 81.7671 50.4561 81.6861 50.4181 81.6091C50.3411 81.5881 50.3241 81.6571 50.2931 81.6961C49.4013 82.8128 48.2275 83.4307 46.8318 83.6606C46.7219 83.6786 46.6099 83.6896 46.5069 83.7396H44.9233C44.8203 83.6906 44.7083 83.6776 44.5983 83.6646C44.0644 83.6006 43.5475 83.4687 43.0497 83.2717C42.2578 82.9578 41.572 82.4939 41.0371 81.8201C40.5392 81.1932 40.2542 80.4744 40.1163 79.6936C40.0993 79.5996 40.0913 79.5036 40.0293 79.4246V77.6021V77.5991ZM48.8844 75.9794C48.4515 75.9834 47.9316 75.9664 47.4137 76.0284C46.8538 76.0944 46.307 76.2014 45.8131 76.4873C45.3212 76.7723 45.0112 77.1892 44.9352 77.761C44.8983 78.038 44.8873 78.3139 44.9183 78.5958C45.0062 79.4016 45.4561 79.9595 46.241 80.1754C47.0618 80.4004 47.8746 80.3434 48.6615 80.0345C49.7592 79.6026 50.3711 78.7088 50.3451 77.5261C50.3361 77.0952 50.3451 76.6633 50.3421 76.2314C50.3401 76.0004 50.3231 75.9834 50.0971 75.9814C49.7212 75.9784 49.3453 75.9814 48.8844 75.9814V75.9794Z" fill="#EEEEEE"/>
<path d="M101.302 83.7374C101.05 83.6494 100.784 83.6524 100.525 83.6104C99.1929 83.3964 97.9592 82.9416 96.8754 82.1237C95.7026 81.239 94.9188 80.0742 94.4299 78.7016C94.136 77.8758 93.976 77.023 93.897 76.1512C93.829 75.4003 93.827 74.6485 93.868 73.8997C93.954 72.3151 94.3149 70.7984 95.1378 69.4238C96.3085 67.4672 98.0411 66.2975 100.264 65.8386C100.987 65.6896 101.718 65.6257 102.456 65.6557C103.475 65.6976 104.475 65.8516 105.435 66.2155C107.606 67.0383 108.995 68.584 109.658 70.7944C109.912 71.6412 110.02 72.509 110.055 73.3928C110.084 74.1046 110.066 74.8145 110.079 75.5253C110.08 75.5813 110.081 75.6373 110.079 75.6933C110.069 75.9052 110.048 75.9272 109.842 75.9332C109.762 75.9362 109.682 75.9332 109.602 75.9332C106.131 75.9332 102.661 75.9332 99.1909 75.9332C98.9476 75.9332 98.8363 76.0522 98.857 76.2901C98.9289 77.1009 99.0929 77.8888 99.4918 78.6076C99.9937 79.5134 100.774 80.0013 101.796 80.1312C102.368 80.2042 102.93 80.1762 103.483 80.0272C104.401 79.7803 105.043 79.2134 105.399 78.3286C105.435 78.2397 105.47 78.1497 105.498 78.0587C105.529 77.9597 105.594 77.9177 105.694 77.9197C105.749 77.9207 105.805 77.9187 105.861 77.9187C107.141 77.9187 108.42 77.9187 109.7 77.9187C110.072 77.9187 110.081 77.9247 110.004 78.2787C109.577 80.2512 108.489 81.7398 106.718 82.7176C105.761 83.2465 104.728 83.5364 103.644 83.6594C103.518 83.6734 103.389 83.6804 103.27 83.7354H101.302V83.7374ZM102.091 72.658C103.058 72.658 104.025 72.658 104.991 72.658C105.269 72.658 105.295 72.633 105.27 72.3531C105.223 71.8352 105.135 71.3253 104.938 70.8384C104.584 69.9606 103.958 69.4008 103.028 69.1878C102.665 69.1048 102.298 69.1048 101.931 69.1168C100.941 69.1518 100.176 69.5917 99.6398 70.4255C99.2439 71.0424 99.0489 71.7302 98.9249 72.443C98.897 72.607 98.9319 72.644 99.0939 72.656C99.1579 72.661 99.2219 72.658 99.2859 72.658C100.221 72.658 101.155 72.658 102.09 72.658H102.091Z" fill="#EEEEEE"/>
<path d="M181.288 83.7433C181.028 83.6553 180.753 83.6573 180.486 83.6143C179.173 83.3993 177.955 82.9495 176.881 82.1476C175.781 81.3258 175.017 80.2511 174.518 78.9824C174.164 78.0836 173.973 77.1478 173.884 76.1881C173.813 75.4222 173.813 74.6544 173.855 73.8896C173.944 72.272 174.322 70.7293 175.18 69.3347C176.302 67.5131 177.932 66.3874 180.005 65.8975C180.802 65.7095 181.613 65.6306 182.431 65.6636C183.679 65.7145 184.889 65.9355 186.027 66.4814C187.621 67.2452 188.737 68.4539 189.397 70.0885C189.702 70.8423 189.871 71.6291 189.976 72.4319C190.001 72.6219 189.96 72.8159 190.022 73.0028V75.9281C189.902 75.9331 189.783 75.9421 189.663 75.9421C186.179 75.9421 182.695 75.9421 179.211 75.9421C179.139 75.9421 179.067 75.9401 178.995 75.9431C178.825 75.9511 178.801 75.9761 178.82 76.1471C178.845 76.377 178.869 76.608 178.906 76.8359C179.005 77.4628 179.168 78.0706 179.482 78.6285C179.889 79.3533 180.484 79.8402 181.297 80.0471C182.008 80.2281 182.72 80.2311 183.43 80.0471C184.427 79.7892 185.091 79.1653 185.437 78.1986C185.453 78.1536 185.467 78.1076 185.481 78.0616C185.509 77.9746 185.567 77.9306 185.659 77.9306C185.723 77.9306 185.787 77.9286 185.851 77.9286C187.146 77.9286 188.441 77.9286 189.735 77.9286C189.831 77.9286 189.926 77.9366 190.022 77.9406V78.0846C189.978 78.1816 189.993 78.2896 189.97 78.3905C189.642 79.8212 188.941 81.0319 187.811 81.9767C186.715 82.8935 185.43 83.3853 184.034 83.6163C183.775 83.6593 183.508 83.6543 183.257 83.7443H181.289L181.288 83.7433ZM182.065 72.6639C183.04 72.6639 184.015 72.6639 184.988 72.6639C185.247 72.6639 185.276 72.6399 185.256 72.394C185.211 71.8431 185.117 71.3012 184.899 70.7883C184.564 69.9985 184 69.4656 183.164 69.2307C182.71 69.1037 182.247 69.1027 181.785 69.1287C181.263 69.1577 180.785 69.3277 180.361 69.6366C179.832 70.0215 179.502 70.5494 179.263 71.1453C179.098 71.5552 178.995 71.9811 178.915 72.413C178.878 72.6149 178.915 72.6539 179.119 72.6629C179.183 72.6659 179.247 72.6629 179.311 72.6629C180.229 72.6629 181.148 72.6629 182.067 72.6629L182.065 72.6639Z" fill="#EEEEEE"/>
<path d="M148.182 83.7422C148.073 83.6862 147.953 83.6772 147.835 83.6583C146.729 83.4773 145.757 83.0284 144.987 82.1996C144.397 81.5657 144.027 80.8089 143.804 79.9781C143.616 79.2803 143.528 78.5675 143.527 77.8456C143.524 74.0495 143.527 70.2534 143.525 66.4573C143.525 65.9754 143.544 66.0334 143.939 66.0334C145.315 66.0314 146.689 66.0334 148.065 66.0334C148.137 66.0334 148.209 66.0304 148.281 66.0354C148.431 66.0454 148.456 66.0704 148.468 66.2254C148.475 66.3124 148.471 66.4013 148.471 66.4893C148.471 69.9495 148.471 73.4107 148.471 76.8709C148.471 77.3028 148.484 77.7337 148.582 78.1576C148.616 78.3045 148.658 78.4525 148.712 78.5935C149.022 79.4083 149.652 79.7992 150.487 79.8861C150.908 79.9291 151.333 79.9251 151.751 79.8262C152.894 79.5542 153.678 78.7164 153.881 77.5547C153.938 77.2298 153.943 76.9029 153.944 76.5759C153.944 73.2197 153.945 69.8625 153.944 66.5063C153.944 65.9515 153.97 66.0374 154.414 66.0364C155.773 66.0334 157.132 66.0354 158.492 66.0354C158.73 66.0354 158.849 66.1544 158.85 66.3923C158.85 71.939 158.85 77.4847 158.85 83.0314C158.85 83.3793 158.849 83.3803 158.511 83.3803C157.103 83.3803 155.696 83.3803 154.289 83.3803C154.265 83.3803 154.241 83.3803 154.217 83.3803C153.969 83.3763 153.948 83.3593 153.947 83.1024C153.944 82.5105 153.947 81.9197 153.945 81.3278C153.945 81.2518 153.966 81.1708 153.914 81.0869C153.839 81.1359 153.813 81.2148 153.773 81.2778C152.904 82.6435 151.656 83.4193 150.066 83.6653C149.965 83.6812 149.861 83.6932 149.768 83.7452H148.184L148.182 83.7422Z" fill="#EEEEEE"/>
<path d="M65.221 83.7373C64.9691 83.6483 64.7021 83.6523 64.4432 83.6083C62.8335 83.3344 61.3998 82.6965 60.2271 81.5408C59.5472 80.872 59.0393 80.0792 58.6624 79.2044C58.2345 78.2116 58.0146 77.1689 57.9116 76.0961C57.8456 75.4013 57.8466 74.7064 57.8766 74.0126C57.9456 72.402 58.3055 70.8624 59.1373 69.4627C60.2731 67.5521 61.9537 66.3834 64.1093 65.8855C64.9151 65.6996 65.7339 65.6216 66.5597 65.6566C67.7755 65.7076 68.9592 65.9175 70.067 66.4444C71.8666 67.3002 73.0024 68.7119 73.5332 70.6214C73.6572 71.0683 73.7442 71.5232 73.7882 71.9861C73.8092 72.209 73.7912 72.235 73.5592 72.236C72.8714 72.239 72.1845 72.237 71.4967 72.237C70.7928 72.237 70.09 72.237 69.3861 72.237C69.1192 72.237 69.1112 72.23 69.0542 71.9671C68.9342 71.4152 68.7483 70.8913 68.4033 70.4355C68.0074 69.9116 67.4805 69.6086 66.8357 69.5067C65.9319 69.3637 65.098 69.5347 64.3732 70.1075C63.8233 70.5414 63.4874 71.1293 63.2584 71.7811C62.9905 72.543 62.8845 73.3328 62.8735 74.1356C62.8665 74.6385 62.8625 75.1433 62.8825 75.6452C62.9135 76.39 63.0175 77.1249 63.2654 77.8327C63.3844 78.1736 63.5454 78.4945 63.7493 78.7935C64.1552 79.3893 64.7131 79.7662 65.411 79.9302C66.1878 80.1132 66.9516 80.0932 67.6765 79.7213C68.4263 79.3363 68.8982 78.7095 69.1892 77.9347C69.2792 77.6947 69.3511 77.4498 69.3931 77.1968C69.4361 76.9409 69.4541 76.9269 69.7221 76.9269C71.0178 76.9259 72.3125 76.9269 73.6082 76.9269C73.6402 76.9269 73.6722 76.9269 73.7042 76.9279C73.8832 76.9409 73.9142 76.9739 73.8942 77.1519C73.8242 77.7887 73.7002 78.4146 73.4903 79.0214C73.1513 80.0032 72.6404 80.882 71.9096 81.6218C71.2207 82.3196 70.4079 82.8365 69.4871 83.1774C68.8322 83.4204 68.1604 83.5903 67.4645 83.6623C67.3546 83.6733 67.2416 83.6843 67.1396 83.7373H65.22H65.221Z" fill="#EEEEEE"/>
<path d="M83.214 83.7382C82.9711 83.6502 82.7111 83.6542 82.4602 83.6122C80.8405 83.3413 79.3998 82.7035 78.2221 81.5397C77.4662 80.7939 76.9213 79.9041 76.5384 78.9154C76.1865 78.0076 75.9975 77.0628 75.9066 76.095C75.8376 75.3692 75.8376 74.6414 75.8756 73.9155C75.9566 72.3729 76.3065 70.8973 77.0843 69.5446C78.0921 67.793 79.5798 66.6393 81.5024 66.0434C82.4952 65.7355 83.5179 65.6145 84.5557 65.6565C85.6805 65.7015 86.7792 65.8864 87.822 66.3363C89.7396 67.1641 90.9564 68.5988 91.5222 70.5973C91.6482 71.0432 91.7372 71.4981 91.7812 71.961C91.8052 72.2139 91.7932 72.2339 91.5312 72.2339C90.1405 72.2349 88.7488 72.2349 87.3581 72.2339C87.1212 72.2339 87.1042 72.2199 87.0562 71.987C86.9902 71.6651 86.8932 71.3532 86.7612 71.0522C86.3423 70.0964 85.6145 69.5536 84.5717 69.4666C83.7979 69.4026 83.076 69.5756 82.4452 70.0455C81.9653 70.4034 81.6363 70.8813 81.3964 71.4221C81.1315 72.02 80.9955 72.6508 80.9235 73.2967C80.8335 74.1095 80.8515 74.9253 80.8845 75.7391C80.9155 76.4829 81.0275 77.2188 81.2964 77.9206C81.5254 78.5184 81.8463 79.0553 82.3712 79.4482C82.8131 79.7792 83.315 79.9491 83.8549 80.0111C84.6527 80.1011 85.4025 79.9671 86.0614 79.4802C86.5693 79.1043 86.9242 78.6084 87.1532 78.0226C87.2641 77.7396 87.3451 77.4467 87.4041 77.1488C87.4451 76.9398 87.4611 76.9258 87.6731 76.9258C88.9998 76.9238 90.3275 76.9238 91.6542 76.9258C91.8742 76.9258 91.9141 76.9648 91.8932 77.1518C91.7642 78.2915 91.4562 79.3752 90.8644 80.368C90.0685 81.7047 88.9278 82.6245 87.4821 83.1753C86.8302 83.4243 86.1554 83.5862 85.4605 83.6602C85.3505 83.6722 85.2376 83.6822 85.1356 83.7352H83.216L83.214 83.7382Z" fill="#EEEEEE"/>
<path d="M127.502 44.1729C128.022 44.4208 128.563 44.6178 129.096 44.8327C131.06 45.6245 133.026 46.4123 134.991 47.2022C137.298 48.1299 139.603 49.0587 141.909 49.9865C141.968 50.0105 142.026 50.0395 142.087 50.0575C142.231 50.1005 142.286 50.1924 142.286 50.3424C142.282 51.4452 142.281 52.5479 142.286 53.6506C142.286 53.8256 142.208 53.9056 142.056 53.9656C141.143 54.3295 140.232 54.6994 139.32 55.0683C136.105 56.369 132.89 57.6707 129.674 58.9724C129.053 59.2243 128.43 59.4762 127.808 59.7292C127.771 59.7442 127.734 59.7592 127.696 59.7732C127.459 59.8622 127.442 59.8522 127.442 59.5892C127.441 58.2225 127.441 56.8569 127.442 55.4902C127.442 55.2293 127.444 55.2263 127.7 55.1303C128.419 54.8613 129.138 54.5944 129.857 54.3275C131.813 53.6006 133.769 52.8748 135.723 52.148C135.787 52.124 135.867 52.121 135.903 52.03C135.855 51.95 135.761 51.94 135.683 51.909C134.329 51.3782 132.974 50.8493 131.619 50.3204C130.308 49.8085 128.999 49.2957 127.687 48.7878C127.528 48.7268 127.438 48.6508 127.439 48.4619C127.445 47.0792 127.443 45.6975 127.443 44.3148C127.443 44.2669 127.45 44.2189 127.454 44.1719C127.47 44.1719 127.486 44.1719 127.502 44.1719V44.1729Z" fill="#EEEEEE"/>
<path d="M117.886 68.4001C117.949 68.3901 117.96 68.3381 117.984 68.3001C118.835 66.9464 120.058 66.1316 121.613 65.8047C122.693 65.5778 123.774 65.5888 124.838 65.8987C126.339 66.3356 127.317 67.3303 127.852 68.78C128.097 69.4438 128.225 70.1327 128.285 70.8375C128.324 71.2924 128.324 71.7473 128.324 72.2022C128.324 75.7903 128.324 79.3785 128.324 82.9666C128.324 83.4205 128.318 83.3735 127.92 83.3735C126.538 83.3745 125.154 83.3735 123.771 83.3735C123.413 83.3735 123.412 83.3735 123.411 83.0186C123.411 79.4865 123.411 75.9543 123.411 72.4221C123.411 72.0212 123.37 71.6253 123.265 71.2364C123.007 70.2796 122.364 69.7718 121.403 69.6628C120.992 69.6158 120.574 69.6178 120.161 69.6978C119.016 69.9207 118.212 70.7035 117.97 71.8433C117.902 72.1642 117.867 72.4891 117.868 72.818C117.868 76.2062 117.868 79.5944 117.868 82.9836C117.868 83.4025 117.883 83.3735 117.474 83.3735C116.1 83.3735 114.724 83.3735 113.349 83.3735C113.309 83.3735 113.269 83.3735 113.229 83.3735C112.979 83.3695 112.965 83.3545 112.959 83.0956C112.958 83.0396 112.959 82.9836 112.959 82.9276C112.959 77.4449 112.959 71.9632 112.959 66.4805C112.959 65.9587 112.963 66.0297 113.417 66.0297C114.784 66.0277 116.152 66.0287 117.518 66.0297C117.867 66.0297 117.868 66.0307 117.868 66.3706C117.868 66.9704 117.868 67.5693 117.869 68.1691C117.869 68.2461 117.853 68.3251 117.885 68.4011L117.886 68.4001Z" fill="#EEEEEE"/>
<path d="M132.399 74.3966C132.399 72.756 132.399 71.4053 132.399 70.0546C132.399 69.8154 132.28 69.6957 132.043 69.6957C131.579 69.6957 131.115 69.6977 130.651 69.6947C130.418 69.6927 130.386 69.6657 130.385 69.4308C130.382 68.384 130.382 67.3363 130.385 66.2895C130.385 66.0566 130.418 66.0306 130.653 66.0286C131.141 66.0256 131.629 66.0286 132.117 66.0266C132.386 66.0266 132.397 66.0146 132.398 65.7387C132.399 64.9079 132.398 64.0761 132.398 63.2453C132.398 63.1733 132.403 63.1013 132.398 63.0293C132.387 62.8613 132.464 62.7684 132.621 62.7074C133.111 62.5154 133.598 62.3115 134.087 62.1125C135.071 61.7106 136.055 61.3077 137.04 60.9068C137.334 60.7868 137.351 60.7978 137.351 61.1078C137.351 62.5944 137.351 64.0811 137.351 65.5677C137.351 65.6317 137.351 65.6957 137.351 65.7597C137.354 66.0216 137.357 66.0276 137.621 66.0276C138.5 66.0286 139.38 66.0276 140.259 66.0276C140.331 66.0276 140.403 66.0246 140.475 66.0306C140.627 66.0426 140.648 66.0646 140.659 66.2215C140.663 66.2855 140.661 66.3495 140.661 66.4135C140.661 67.3803 140.661 68.348 140.661 69.3148C140.661 69.3788 140.664 69.4428 140.659 69.5068C140.648 69.6587 140.624 69.6827 140.471 69.6947C140.407 69.6997 140.343 69.6967 140.279 69.6967C139.415 69.6967 138.551 69.6967 137.689 69.6967C137.625 69.6967 137.561 69.6987 137.497 69.6997C137.397 69.7007 137.353 69.7547 137.353 69.8507C137.353 69.9067 137.351 69.9627 137.351 70.0186C137.351 72.624 137.351 75.2294 137.351 77.8358C137.351 78.1007 137.376 78.3637 137.446 78.6186C137.623 79.2695 138.084 79.6514 138.756 79.6934C139.35 79.7313 139.939 79.6914 140.507 79.4914C140.545 79.4784 140.583 79.4654 140.621 79.4554C140.697 79.4364 140.747 79.4604 140.753 79.5454C140.756 79.5934 140.758 79.6414 140.758 79.6894C140.758 80.7841 140.758 81.8788 140.758 82.9746C140.758 82.9986 140.758 83.0226 140.758 83.0466C140.75 83.2275 140.74 83.2475 140.564 83.2965C140.225 83.3905 139.879 83.4565 139.531 83.5075C138.849 83.6074 138.162 83.6384 137.475 83.6034C136.633 83.5614 135.806 83.4335 135.022 83.0985C133.959 82.6447 133.217 81.8818 132.81 80.7991C132.563 80.1422 132.456 79.4594 132.428 78.7586C132.366 77.2089 132.421 75.6583 132.399 74.3986V74.3966Z" fill="#EEEEEE"/>
<path d="M167.236 68.9409C167.332 68.7689 167.426 68.594 167.526 68.424C168.07 67.5002 168.783 66.7554 169.772 66.3005C170.329 66.0436 170.916 65.8986 171.526 65.8416C171.724 65.8236 171.921 65.7916 172.122 65.7976C172.359 65.8036 172.374 65.8156 172.379 66.0606C172.38 66.1245 172.379 66.1885 172.379 66.2525C172.379 67.5552 172.379 68.8579 172.379 70.1596C172.379 70.1756 172.379 70.1916 172.379 70.2076C172.377 70.6305 172.409 70.6065 171.98 70.6245C171.319 70.6525 170.657 70.7005 170.01 70.8614C169.582 70.9684 169.166 71.1084 168.781 71.3283C167.967 71.7932 167.486 72.497 167.296 73.4058C167.222 73.7587 167.191 74.1156 167.192 74.4766C167.193 77.3049 167.192 80.1342 167.192 82.9625C167.192 83.4274 167.192 83.3784 166.774 83.3784C165.391 83.3794 164.007 83.3784 162.624 83.3784C162.29 83.3784 162.288 83.3774 162.288 83.0475C162.288 77.4858 162.288 71.9242 162.288 66.3625C162.288 66.3145 162.285 66.2665 162.29 66.2185C162.306 66.0675 162.329 66.0456 162.484 66.0356C162.54 66.0316 162.596 66.0336 162.652 66.0336C164.043 66.0336 165.435 66.0336 166.826 66.0336C166.866 66.0336 166.906 66.0336 166.946 66.0336C167.166 66.0406 167.189 66.0596 167.19 66.2875C167.193 67.0783 167.191 67.8701 167.191 68.6609C167.191 68.7479 167.191 68.8359 167.191 68.9229C167.206 68.9279 167.22 68.9339 167.235 68.9389L167.236 68.9409Z" fill="#EEEEEE"/>
</g>
</g>
<defs>
<clipPath id="clip0_665_5458">
<rect width="231" height="127" fill="white"/>
</clipPath>
<clipPath id="clip1_665_5458">
<rect width="150.04" height="39.6146" fill="white" transform="translate(39.9795 44.1484)"/>
</clipPath>
</defs>
</svg>
