<svg width="100" height="100" viewBox="0 0 100 100" fill="none" xmlns="http://www.w3.org/2000/svg">
<g clip-path="url(#clip0_277_1998)">
<path d="M26.6518 7.19532C27.3003 7.19532 27.9489 7.19532 28.5974 7.19532C28.6834 7.2422 28.7693 7.28908 28.8553 7.32034C35.7704 9.71915 42.6934 12.1101 49.6085 14.5168C50.1086 14.6887 50.554 14.5949 51.0228 14.4308C54.203 13.3213 57.391 12.2195 60.579 11.1256C61.0087 10.9772 61.4307 10.8131 61.8995 10.8209C62.6418 10.8365 63.1263 11.2038 63.3685 11.8835C63.6029 12.5477 63.3841 13.1181 62.8528 13.5244C62.5246 13.7745 62.1105 13.9229 61.7198 14.0636C58.7506 15.1028 55.7892 16.142 52.8043 17.1422C52.0777 17.3844 51.7807 17.7517 51.7807 18.533C51.7964 29.4254 51.7885 40.3099 51.7964 51.2022C51.7964 52.2258 51.8979 52.2883 52.8668 51.9523C58.9928 49.8426 65.1188 47.7173 71.2525 45.6232C72.0105 45.3653 72.3152 44.9825 72.3074 44.1542C72.2683 39.841 72.2917 35.5357 72.2917 31.2225C72.2917 24.6434 72.2839 18.0642 72.3074 11.485C72.3074 10.6959 72.1511 10.3911 71.3228 10.7349C70.4555 11.0944 69.5569 11.3757 68.6662 11.6648C67.5097 12.0398 66.6268 11.696 66.3377 10.7896C66.0408 9.85198 66.5096 9.10968 67.6817 8.67992C69.0491 8.17984 70.4243 7.68758 71.7917 7.19532C72.4402 7.19532 73.0887 7.19532 73.7373 7.19532C74.9406 7.90636 75.4641 8.92996 75.386 10.3521C75.3 12.0008 75.3625 13.6573 75.3704 15.306C75.3704 16.353 75.8808 16.8843 76.9018 16.9C79.3944 16.939 80.3242 17.8142 80.3868 20.2833C80.4102 21.1194 80.754 21.3303 81.5198 21.3147C83.3325 21.2835 85.1531 21.2913 86.9659 21.3147C87.7707 21.3147 88.5834 21.2288 89.3882 21.4241C92.037 22.0726 93.631 24.2605 93.631 27.3C93.631 43.7635 93.631 60.227 93.631 76.6827C93.631 77.2297 93.5685 77.7845 93.4747 78.3236C93.2325 79.6519 93.2169 79.6519 94.5999 79.6519C94.6937 79.6519 94.7953 79.6598 94.889 79.6519C97.3269 79.4097 99.0225 80.4177 100.015 82.6446V89.4503C99.0225 91.6773 97.3269 92.5055 94.889 92.4743C86.5596 92.3883 78.2224 92.443 69.8929 92.4352C69.5022 92.4352 69.1116 92.4508 68.7287 92.4039C68.127 92.3258 67.7051 91.9664 67.5332 91.396C67.3613 90.8412 67.4394 90.302 67.8535 89.8567C68.2677 89.4035 68.8068 89.3722 69.3772 89.3722C73.4013 89.3722 77.4175 89.3722 81.4416 89.3722C86.0126 89.3722 90.5837 89.3722 95.1547 89.3722C96.569 89.3722 97.0065 88.919 97.0222 87.5047C97.03 86.5671 97.0222 85.6216 97.0222 84.684C97.0144 83.1447 96.5924 82.7227 95.0531 82.7227C83.8326 82.7227 72.6199 82.7227 61.3994 82.7071C60.5477 82.7071 60.2195 82.9259 60.1414 83.8323C59.9539 86.067 58.4302 87.3797 56.1799 87.3797C52.1949 87.3875 48.202 87.3875 44.217 87.3797C42.0526 87.3797 40.4977 86.1061 40.3258 83.9807C40.232 82.8399 39.7554 82.6993 38.8021 82.6993C27.7457 82.7227 16.6893 82.7149 5.63289 82.7149C5.4063 82.7149 5.1797 82.7149 4.9531 82.7149C3.94513 82.7774 3.46068 83.2306 3.42943 84.2308C3.39036 85.4263 3.39036 86.6296 3.42943 87.8251C3.46068 88.8331 3.93732 89.2863 4.94529 89.3488C5.33597 89.3722 5.72666 89.3566 6.10953 89.3566C24.589 89.3566 43.0684 89.3566 61.5557 89.3566C61.9776 89.3566 62.3996 89.3332 62.8215 89.3878C63.6732 89.4972 64.1967 90.1692 64.1264 91.0209C64.0561 91.9351 63.4388 92.4196 62.2589 92.4196C56.258 92.4196 50.2649 92.4196 44.2639 92.4196C31.0978 92.4196 17.9395 92.4196 4.77339 92.4196C2.13235 92.4196 0.366447 90.6615 0.350819 88.0517C0.343006 86.6218 0.335192 85.1997 0.350819 83.7698C0.389888 81.4569 2.18704 79.6754 4.50772 79.6285C5.18751 79.6129 5.86731 79.6129 6.5471 79.6285C7.07843 79.6441 7.25815 79.441 7.09406 78.9175C6.86746 78.1986 6.78151 77.4641 6.78151 76.714C6.78151 64.1417 6.78151 51.5616 6.78151 38.9893C6.78151 38.6065 6.78151 38.2002 6.87528 37.8329C7.07062 37.0594 7.57851 36.6062 8.41458 36.6218C9.20377 36.6374 9.69603 37.075 9.87575 37.8095C9.97732 38.2392 9.97732 38.708 9.97732 39.1612C9.97732 44.8965 9.97732 50.6318 9.97732 56.3749C9.97732 63.2119 9.97732 70.0567 9.97732 76.8937C9.97732 78.6752 10.8681 79.566 12.6574 79.6285C12.9153 79.6363 13.1731 79.6285 13.4388 79.6285C37.9504 79.6285 62.4621 79.6285 86.9737 79.6285C87.2628 79.6285 87.5598 79.6363 87.8489 79.6207C89.5444 79.5191 90.4118 78.644 90.4118 76.9718C90.4118 60.313 90.4118 43.6541 90.4118 26.9953C90.4118 25.3935 89.5913 24.448 88.0208 24.3933C85.7548 24.3152 83.481 24.3699 81.215 24.3621C80.6368 24.3621 80.3946 24.6512 80.4102 25.2059C80.4102 25.4951 80.4336 25.792 80.4102 26.0811C80.3399 26.8937 80.7227 27.1594 81.5041 27.1437C82.9965 27.1047 84.489 27.1203 85.9814 27.1437C87.1378 27.1594 87.7004 27.7063 87.7942 28.8471C87.8176 29.1362 87.8098 29.4332 87.8098 29.7223C87.8098 44.5683 87.8098 59.4144 87.8098 74.2605C87.8098 76.5108 87.4426 76.8781 85.2391 76.8781C61.8917 76.8781 38.5521 76.8781 15.2047 76.8781C14.9156 76.8781 14.6187 76.8781 14.3296 76.8781C13.3294 76.8312 12.7746 76.3311 12.6574 75.3388C12.6105 74.9246 12.6262 74.4949 12.6262 74.0729C12.6262 62.5008 12.6262 50.9287 12.6262 39.3566C12.6262 35.9498 12.6184 32.5508 12.634 29.1441C12.6418 27.6907 13.2044 27.1437 14.6421 27.1359C16.1345 27.1281 17.627 27.1203 19.1194 27.1359C19.721 27.1359 20.0414 26.9171 20.018 26.2842C20.0023 25.9248 20.0101 25.5732 20.018 25.2138C20.0336 24.659 19.7992 24.3621 19.2131 24.3621C16.9472 24.3699 14.6734 24.3152 12.4074 24.3933C10.829 24.448 10.0242 25.3935 10.0086 26.9875C9.99295 28.5424 10.0242 30.0973 9.98514 31.6523C9.95388 32.7618 9.26627 33.4807 8.35207 33.4572C7.47693 33.426 6.82839 32.7306 6.81277 31.6679C6.78151 29.9489 6.73463 28.2299 6.82839 26.5186C7.0003 23.4479 9.32097 21.3147 12.3918 21.2991C14.3999 21.2913 16.4158 21.2991 18.424 21.2991C19.4397 21.2991 19.9763 20.7964 20.0336 19.791C20.1273 18.0798 21.0337 17.1266 22.7449 16.9234C23.034 16.8921 23.331 16.8921 23.6201 16.8843C24.5786 16.8687 25.0578 16.3686 25.0578 15.3841C25.0578 13.6963 25.1203 12.0086 25.0422 10.3286C24.9719 8.90652 25.4876 7.88292 26.6909 7.17188L26.6518 7.19532ZM50.1711 73.8307C61.0947 73.8307 72.0261 73.8307 82.9497 73.8307C84.0384 73.8307 84.5827 73.2733 84.5827 72.1586C84.5827 59.094 84.5827 46.0373 84.5827 32.9728C84.5827 31.134 83.6503 30.2171 81.7854 30.2224C80.4024 30.2224 80.4024 30.2224 80.4024 31.6601C80.4024 38.6299 80.4024 45.5998 80.4024 52.5618C80.4024 55.195 79.5116 56.0858 76.9253 56.0858C59.1256 56.0858 41.326 56.0858 23.5263 56.0858C20.8696 56.0858 20.0023 55.2028 20.0023 52.5071C20.0023 45.9592 20.018 39.4113 20.0023 32.8634C19.9945 29.7613 20.4243 30.2536 17.3066 30.2145C15.8298 30.1989 15.822 30.2145 15.822 31.6444C15.822 45.2247 15.822 58.8049 15.822 72.3852C15.822 73.8151 15.822 73.8151 17.3066 73.8151C28.2614 73.8151 39.2241 73.8151 50.1789 73.8151L50.1711 73.8307ZM28.0895 27.8001C28.0895 33.2463 28.1052 38.6846 28.0739 44.1308C28.0739 44.9434 28.3161 45.3497 29.0975 45.6232C35.2 47.7016 41.2869 49.8113 47.3816 51.9054C48.5302 52.3039 48.5849 52.2727 48.5849 51.0459C48.5849 40.2552 48.5771 29.4722 48.6005 18.6815C48.6005 17.7751 48.2802 17.3766 47.4363 17.0875C41.3338 15.009 35.2469 12.8837 29.16 10.774C28.1286 10.4146 28.0895 10.4536 28.0817 11.571C28.0817 16.9781 28.0817 22.393 28.0817 27.8001H28.0895ZM40.5212 53.0228C40.5212 52.9837 40.5368 52.9446 40.5368 52.9056C40.3024 52.8118 40.0758 52.7181 39.8414 52.6321C35.7079 51.2022 31.5744 49.7801 27.4332 48.3502C25.5032 47.686 25.0187 47.0219 25.0187 44.9981C25.0187 37.0594 25.0187 29.1128 25.0187 21.1741C25.0187 20.5646 24.964 20.1036 24.1592 20.088C23.3388 20.0723 23.1903 20.4865 23.1903 21.1741C23.1981 31.4179 23.206 41.6616 23.1903 51.8976C23.1903 52.7337 23.4716 53.0384 24.3233 53.0306C27.566 52.9993 30.8087 53.015 34.0514 53.015C36.208 53.015 38.3724 53.015 40.529 53.015L40.5212 53.0228ZM59.8601 52.8821C59.8757 52.929 59.8914 52.9759 59.907 53.0228C65.1891 53.0228 70.4711 53.0228 75.7532 53.0228C76.7065 53.0228 77.1831 52.5279 77.1831 51.5382C77.1831 41.5601 77.1831 31.5741 77.1831 21.596C77.1831 21.4319 77.1831 21.2756 77.1831 21.1116C77.1519 20.2208 76.8159 19.9551 75.9564 20.1192C75.1828 20.2599 75.3704 20.8693 75.3704 21.3538C75.3625 29.0972 75.3704 36.8406 75.3704 44.5918C75.3704 47.1547 75.0109 47.6626 72.6199 48.4908C68.3693 49.9598 64.1108 51.4288 59.8601 52.8978V52.8821ZM50.1867 82.7306C48.2802 82.7306 46.3736 82.7306 44.4671 82.7306C43.967 82.7306 43.4435 82.6993 43.4513 83.4338C43.4591 84.1058 43.8967 84.3246 44.4827 84.3246C48.2958 84.3246 52.1089 84.3246 55.922 84.3246C56.508 84.3246 56.93 84.0901 56.93 83.4182C56.93 82.6837 56.3908 82.7306 55.8986 82.7306C53.992 82.7306 52.0855 82.7306 50.1789 82.7306H50.1867Z" fill="white"/>
<path d="M50.2878 60.0434C56.3434 60.0434 62.4069 60.0434 68.4625 60.0434C68.9157 60.0434 69.3689 59.9965 69.8065 60.1684C70.4784 60.4262 70.8691 60.8951 70.8613 61.6374C70.8613 62.3719 70.4941 62.8797 69.7908 63.0829C69.3923 63.2001 68.9626 63.2392 68.5485 63.2392C56.2965 63.247 44.0524 63.2392 31.8005 63.2392C31.4802 63.2392 31.152 63.2314 30.8316 63.161C29.933 62.9735 29.433 62.3562 29.4955 61.528C29.558 60.645 30.1128 60.2075 30.9332 60.0746C31.3161 60.0121 31.7068 60.0356 32.0974 60.0356C38.1531 60.0356 44.2165 60.0356 50.2722 60.0356L50.2878 60.0434Z" fill="white"/>
<path d="M43.4754 66.2543C47.3276 66.2543 51.1876 66.2543 55.0397 66.2543C55.3992 66.2543 55.7586 66.2309 56.1024 66.3012C56.8916 66.4575 57.3838 66.9575 57.4151 67.7624C57.4464 68.575 57.0088 69.1219 56.2118 69.3017C55.7742 69.4032 55.3132 69.4267 54.86 69.4267C47.2182 69.4267 39.5686 69.4267 31.9267 69.4267C31.5126 69.4267 31.075 69.4032 30.6765 69.3017C29.8874 69.0985 29.4732 68.5594 29.5123 67.7311C29.5514 66.9028 30.0514 66.4418 30.8406 66.2934C31.1532 66.2309 31.4892 66.2543 31.8095 66.2543C35.7008 66.2543 39.5842 66.2543 43.4754 66.2543Z" fill="white"/>
</g>
<defs>
<clipPath id="clip0_277_1998">
<rect width="100" height="85.4899" fill="white" transform="translate(0 7)"/>
</clipPath>
</defs>
</svg>
