<?xml version="1.0" encoding="utf-8"?>
<!-- Generator: Adobe Illustrator 26.0.1, SVG Export Plug-In . SVG Version: 6.00 Build 0)  -->
<svg version="1.1" id="Layer_1" xmlns="http://www.w3.org/2000/svg" xmlns:xlink="http://www.w3.org/1999/xlink" x="0px" y="0px"
	 viewBox="0 0 128 72" style="enable-background:new 0 0 128 72;" xml:space="preserve">
<style type="text/css">
	.st0{clip-path:url(#SVGID_00000098916861538573424170000009397549131920867519_);}
	.st1{fill:#D8D8D8;}
	.st2{fill:#5A5959;}
	.st3{fill:#949494;}
	.st4{fill:#6D6D6C;}
	.st5{fill:none;}
</style>
<g>
	<g>
		<defs>
			<rect id="SVGID_1_" x="17.06" y="9.65" width="94.39" height="52.13"/>
		</defs>
		<clipPath id="SVGID_00000099660469204537274470000014636757466158820743_">
			<use xlink:href="#SVGID_1_"  style="overflow:visible;"/>
		</clipPath>
		<g style="clip-path:url(#SVGID_00000099660469204537274470000014636757466158820743_);">
			<path class="st1" d="M25.81,54.86h-1.75v6.36h1.75c2.03,0,3.34-1.25,3.34-3.18C29.14,56.1,27.83,54.86,25.81,54.86z M25.26,56.01
				h0.5c1.39,0,2.15,0.72,2.15,2.03c0,1.31-0.76,2.03-2.15,2.03h-0.5V56.01z"/>
			<path class="st1" d="M31.69,54.86h-1.22v6.36h1.22V54.86z"/>
			<path class="st1" d="M32.83,56.01h1.78v5.21h1.2v-5.21h1.76v-1.15h-4.74V56.01z"/>
			<path class="st1" d="M42.25,54.86l-1.47,2.54l-1.48-2.54h-1.37l2.24,3.84v2.53h1.2v-2.53l2.21-3.84H42.25z"/>
			<path class="st1" d="M56.25,57.85c0.3-0.3,0.45-0.7,0.45-1.2c0-1.09-0.76-1.79-1.96-1.79H52.5v6.36h2.37
				c1.29,0,2.12-0.75,2.12-1.9C56.99,58.68,56.74,58.16,56.25,57.85z M54.69,56c0.55,0,0.81,0.22,0.81,0.69
				c0,0.47-0.22,0.69-0.72,0.69H53.7V56H54.69L54.69,56z M53.71,58.49h1.09c0.64,0,0.98,0.27,0.98,0.8c0,0.53-0.31,0.8-0.97,0.8
				h-1.11V58.49L53.71,58.49z"/>
			<path class="st1" d="M59.51,54.86H58.3v6.36h1.22V54.86z"/>
			<path class="st1" d="M65.45,56.88c0-1.22-0.89-2.03-2.23-2.03h-2.03v6.36h1.2V58.9h0.76l1.43,2.32h1.39l-1.61-2.57
				C65.06,58.32,65.45,57.69,65.45,56.88z M62.38,56.01h0.8c0.7,0,1.04,0.3,1.04,0.89c0,0.37-0.11,0.86-1.04,0.86h-0.8V56.01z"/>
			<path class="st1" d="M68.09,54.86h-1.22v6.36h3.85v-1.14h-2.63V54.86z"/>
			<path class="st1" d="M83.41,58.9h1.71v0.81c-0.36,0.26-0.83,0.39-1.4,0.39c-1.2,0-2.07-0.87-2.07-2.09
				c0-1.22,0.83-2.09,1.98-2.09c0.84,0,1.25,0.33,1.53,0.64l0.22,0.25L86.23,56l-0.22-0.23c-0.61-0.67-1.39-1-2.39-1
				c-1.81,0-3.23,1.42-3.23,3.24c0,1.86,1.42,3.24,3.31,3.24c1.01,0,1.79-0.28,2.48-0.87l0.11-0.09v-2.53h-2.9v1.14"/>
			<path class="st1" d="M91.96,56.85c0-1.22-0.89-2.03-2.23-2.03H87.7v6.36h1.2v-2.32h0.76l1.43,2.32h1.39l-1.61-2.57
				C91.57,58.29,91.96,57.65,91.96,56.85z M88.9,55.96h0.79c0.7,0,1.03,0.3,1.03,0.89c0,0.37-0.11,0.86-1.03,0.86H88.9V55.96z"/>
			<path class="st1" d="M96.26,54.76c-1.82,0-3.24,1.42-3.24,3.24c0,1.82,1.42,3.24,3.24,3.24c1.82,0,3.26-1.42,3.26-3.24
				C99.51,56.18,98.08,54.76,96.26,54.76z M96.26,60.1c-1.17,0-2.03-0.87-2.03-2.09c0-1.22,0.86-2.09,2.03-2.09
				c1.17,0,2.03,0.87,2.03,2.09C98.28,59.22,97.43,60.1,96.26,60.1z"/>
			<path class="st1" d="M104.21,58.88c0,0.81-0.39,1.22-1.14,1.22s-1.14-0.42-1.14-1.22v-4.05h-1.2v4.08c0,1.42,0.92,2.32,2.34,2.32
				c1.42,0,2.34-0.92,2.34-2.32v-4.08h-1.2V58.88z"/>
			<path class="st1" d="M109.01,54.83H107v6.36h1.2v-2.28h0.8c1.36,0,2.23-0.8,2.23-2.04C111.24,55.64,110.37,54.83,109.01,54.83z
				 M108.22,55.96h0.76c0.7,0,1.03,0.3,1.03,0.9s-0.34,0.89-1.03,0.89h-0.76V55.96z"/>
			<path class="st1" d="M17.7,61.2h1.18l0.53-1.31h2l0.53,1.31h1.2l-2.71-6.58L17.7,61.2z M19.85,58.82l0.56-1.39l0.56,1.39H19.85z"
				/>
			<path class="st1" d="M43.16,61.22h1.18l0.51-1.31h2l0.53,1.31h1.2l-2.71-6.58L43.16,61.22z M45.29,58.85l0.56-1.39l0.56,1.39
				H45.29z"/>
			<path class="st1" d="M71.49,61.2h1.18l0.53-1.31h2l0.53,1.31h1.2l-2.71-6.58L71.49,61.2z M73.62,58.82l0.56-1.39l0.56,1.39H73.62
				z"/>
			<path class="st2" d="M96.91,35.15l-8.76,4.04L78.53,27.2L89.27,9.69h7.64V35.15z"/>
			<path class="st3" d="M96.91,50.1V35.15l-8.76,4.04L96.91,50.1z"/>
			<path class="st3" d="M78.53,27.2L64.47,9.69h24.8L78.53,27.2z"/>
			<path class="st1" d="M74.66,33.5l3.85-6.28L64.47,9.71v20.97h0.09C68.27,30.66,71.73,31.71,74.66,33.5z"/>
			<path class="st2" d="M64.56,30.66h-0.09V50.1l10.2-16.6C71.72,31.71,68.27,30.66,64.56,30.66z"/>
			<path class="st3" d="M82.21,41.93l5.94-2.74L78.53,27.2l-3.87,6.3C77.94,35.49,80.57,38.43,82.21,41.93z"/>
			<path class="st4" d="M74.66,33.5l-10.2,16.62l17.74-8.18C80.57,38.43,77.94,35.49,74.66,33.5z"/>
			<path class="st1" d="M88.15,39.19l-5.94,2.74c1.15,2.48,1.81,5.25,1.81,8.18h12.89L88.15,39.19z"/>
			<path class="st2" d="M64.47,50.1H84c0-2.92-0.64-5.69-1.79-8.18L64.47,50.1z"/>
			<path class="st2" d="M32.04,35.15l8.76,4.04l9.62-11.99L39.68,9.69h-7.64V35.15z"/>
			<path class="st3" d="M32.04,50.1V35.15l8.76,4.04L32.04,50.1z"/>
			<path class="st3" d="M50.42,27.2L64.47,9.69H39.68L50.42,27.2z"/>
			<path class="st4" d="M54.28,33.5l-3.85-6.28L64.47,9.71v20.97h-0.09C60.68,30.66,57.22,31.71,54.28,33.5z"/>
			<path class="st3" d="M64.37,30.66h0.09V50.1L54.29,33.5C57.22,31.71,60.68,30.66,64.37,30.66z"/>
			<path class="st3" d="M46.74,41.93l-5.94-2.74l9.62-11.99l3.85,6.28C51,35.49,48.37,38.43,46.74,41.93z"/>
			<path class="st4" d="M54.28,33.5l10.2,16.62l-17.73-8.18C48.37,38.43,51,35.49,54.28,33.5z"/>
			<path class="st1" d="M40.81,39.19l5.94,2.74c-1.15,2.48-1.81,5.25-1.81,8.18H32.04L40.81,39.19z"/>
			<path class="st2" d="M64.47,50.1H44.93c0-2.92,0.64-5.69,1.81-8.18L64.47,50.1z"/>
		</g>
	</g>
	<rect class="st5" width="128" height="72"/>
</g>
</svg>
