<svg width="100" height="100" viewBox="0 0 100 100" fill="none" xmlns="http://www.w3.org/2000/svg">
<g clip-path="url(#clip0_520_2808)">
<path d="M100 86.7879C99.3706 88.2421 98.5617 89.5501 96.9379 90.0491C96.3901 90.2168 95.7936 90.2928 95.2205 90.2948C65.2011 90.3065 35.1816 90.3064 5.16206 90.3026C2.32191 90.3026 0.394031 88.3805 0.392081 85.5501C0.386233 71.5189 0.386233 57.4877 0.392081 43.4565C0.392081 40.6651 2.26538 38.7119 5.0646 38.7041C15.049 38.6749 25.0334 38.6885 35.0198 38.6963C36.1952 38.6963 36.856 39.285 36.8482 40.2402C36.8404 41.246 36.1406 41.7996 34.8131 41.7996C25.1523 41.8035 15.4915 41.8016 5.83068 41.8035C5.47395 41.8035 5.11528 41.7938 4.76245 41.8367C4.01976 41.9302 3.6143 42.3922 3.51684 43.1135C3.47395 43.4312 3.49929 43.7606 3.49929 44.0842C3.49929 57.6944 3.49929 71.3045 3.49929 84.9127C3.49929 86.8464 3.84237 87.2012 5.73516 87.2012C35.3648 87.2012 64.9964 87.2012 94.626 87.2012C96.5363 87.2012 96.8931 86.8464 96.8931 84.9419C96.8931 71.3006 96.8931 57.6573 96.8931 44.016C96.8931 42.1681 96.5305 41.8055 94.6825 41.8016C92.9652 41.7996 91.2459 41.8152 89.5285 41.7899C88.7488 41.7782 88.1387 41.4351 87.9359 40.6242C87.7605 39.9263 87.9535 39.3084 88.6007 38.9556C88.9223 38.7801 89.3375 38.708 89.7118 38.7022C91.5909 38.6788 93.472 38.6671 95.3531 38.7002C97.5324 38.7392 99.0276 39.825 99.7917 41.8464C99.8463 41.9887 99.934 42.1193 100.006 42.2558V86.7879H100Z" fill="#727272"/>
<path d="M100.001 36.416C99.8953 36.529 99.8115 36.6947 99.6809 36.7474C99.1448 36.9637 98.5288 37.3945 98.0688 37.2717C97.6048 37.147 97.0941 36.5193 96.946 36.0125C96.5463 34.6324 96.3553 34.3945 94.8894 34.3887C93.4021 34.3828 91.9148 34.3887 90.4274 34.3848C90.1058 34.3848 89.7783 34.3848 89.4606 34.3322C88.6146 34.1938 88.137 33.6908 88.1194 32.8214C88.1039 31.9988 88.6828 31.3244 89.5619 31.3107C91.7257 31.2756 93.8972 31.2308 96.0551 31.3575C97.7374 31.4569 98.8875 32.4979 99.6107 33.9988C99.7471 34.2834 99.8699 34.5739 100.001 34.8604V36.416V36.416Z" fill="#727272"/>
<path d="M100 29.223C99.5497 29.9033 99.0176 30.4491 98.0994 30.2289C97.2417 30.0222 96.9649 29.3946 96.8655 28.5797C96.7661 27.7688 96.2359 27.3263 95.4152 27.2854C94.8343 27.2581 94.2456 27.3107 93.6686 27.2562C92.8655 27.1801 92.3431 26.7084 92.2456 25.9053C92.1482 25.0963 92.5575 24.5232 93.3139 24.2562C95.0449 23.6441 97.7037 24.3263 98.8441 25.7571C99.3353 26.3731 99.6219 27.1548 100 27.8604V29.2211V29.223Z" fill="#727272"/>
<path d="M58.7934 34.3838C54.1715 31.4189 49.6218 28.4988 45.0702 25.5807C42.6978 24.0602 40.3236 22.5456 37.9551 21.0173C36.4444 20.0427 36.5166 18.7464 38.1208 17.9101C39.6413 17.1167 41.1384 16.2688 42.7056 15.5768C43.2963 15.3156 44.113 15.2044 44.7173 15.3877C52.2729 17.6703 59.8128 20.0095 67.345 22.3721C68.0819 22.6041 68.4893 22.5007 68.9571 21.8789C70.0663 20.4052 71.2397 18.9744 72.4347 17.569C76.0702 13.298 80.7134 10.6996 86.152 9.49879C87.0156 9.30776 87.9746 9.3292 88.8557 9.46565C91.7368 9.91789 93.3275 12.1421 93.0799 15.2415C92.7953 18.799 91.23 21.877 89.4327 24.8614C87.9941 27.2473 86.1774 29.2844 83.9181 30.9354C82.768 31.7756 81.7115 32.7405 80.5711 33.5982C80.0234 34.0095 79.9045 34.3857 80.1169 35.0641C82.4503 42.5007 84.7271 49.9549 87.0682 57.3916C87.386 58.4013 87.345 59.2415 86.8167 60.1538C86.0741 61.4423 85.4366 62.7912 84.7485 64.1109C83.7271 66.0738 82.5185 66.1421 81.3392 64.3058C77.1403 57.7678 72.9435 51.2278 68.7427 44.6879C68.5536 44.3916 68.3548 44.1031 68.0974 43.7191C66.5711 44.9491 65.1754 46.2688 63.5926 47.3019C61.7037 48.5319 60.8733 49.9744 61.3996 52.2746C61.729 53.7093 61.7212 55.2395 61.6978 56.7249C61.6881 57.3234 61.3859 58.0699 60.959 58.4832C59.7076 59.7015 58.3372 60.799 56.9922 61.9179C55.8323 62.8828 54.8674 62.6742 54.1754 61.3351C53.5068 60.0407 52.8323 58.7503 52.2086 57.4345C51.9629 56.9198 51.7076 56.76 51.1052 56.8419C47.8518 57.2922 45.1598 54.4813 45.6257 51.222C45.6627 50.9588 45.4093 50.5105 45.1657 50.376C43.8343 49.6411 42.46 48.9842 41.1091 48.2844C39.8206 47.6177 39.6043 46.6352 40.5263 45.5319C41.6472 44.1889 42.8128 42.8828 43.9298 41.5358C44.4542 40.9043 45.0721 40.6586 45.8908 40.7327C48.0526 40.9237 50.2222 41.0504 52.384 41.2434C52.959 41.2961 53.3314 41.1557 53.6978 40.6898C55.3606 38.5826 57.0643 36.5085 58.7875 34.3818L58.7934 34.3838ZM86.8869 12.4715C82.7758 13.2259 78.5029 15.2161 75.4483 18.8848C66.536 29.5924 57.8674 40.5046 49.0819 51.3175C48.4483 52.0972 48.6764 52.6723 49.2397 53.2649C49.8733 53.9315 50.5146 53.9588 51.1832 53.3935C51.4054 53.2044 51.6218 53.0095 51.8499 52.8263C62.2086 44.4559 72.5828 36.1031 82.9123 27.6957C84.076 26.7483 85.1325 25.5982 86.0039 24.376C87.9707 21.6158 89.5555 18.6469 89.9922 15.2083C90.23 13.3292 89.4074 12.4423 86.8889 12.4696L86.8869 12.4715ZM82.8011 60.8087C84.0565 59.4442 84.0858 58.1265 83.5516 56.5183C81.8616 51.4306 80.3489 46.2844 78.7641 41.1616C78.2904 39.6313 77.8031 38.107 77.2748 36.4267C74.9961 38.3 72.8382 40.0758 70.6491 41.877C74.7271 48.2298 78.7544 54.5027 82.8031 60.8087H82.8011ZM66.0468 25.2844C65.8674 25.1889 65.8128 25.1479 65.7524 25.1304C58.653 22.9276 51.5536 20.723 44.4464 18.5397C44.1715 18.4559 43.8012 18.4851 43.538 18.6021C42.9025 18.8828 42.3021 19.2454 41.5711 19.6391C47.9785 23.7464 54.2826 27.7892 60.6335 31.8594C62.4581 29.643 64.2222 27.5007 66.0468 25.2844ZM56.2164 58.491C56.9552 57.8672 57.5809 57.3604 58.1774 56.8204C58.3509 56.6625 58.5575 56.4072 58.5497 56.2044C58.4912 54.7717 58.3801 53.3409 58.2729 51.7132C56.9668 52.7678 55.8128 53.6801 54.692 54.6313C54.5653 54.7386 54.5302 55.107 54.6121 55.2805C55.1013 56.3234 55.6374 57.3448 56.2164 58.491V58.491ZM44.0039 46.259C45.2807 46.914 46.423 47.5007 47.6257 48.1167C48.653 46.8438 49.655 45.6021 50.7407 44.259C49.9415 44.1811 49.308 44.107 48.6725 44.0582C47.9318 44.0017 47.1891 43.9413 46.4464 43.9335C46.2222 43.9315 45.9298 44.0388 45.7797 44.1986C45.1891 44.8341 44.6413 45.5105 44.0039 46.259V46.259Z" fill="#727272"/>
<path d="M23.8654 31.2776C29.9882 31.2776 36.111 31.2776 42.2358 31.2776C42.5282 31.2776 42.8206 31.2679 43.111 31.2874C44.0545 31.3537 44.6802 31.9502 44.7056 32.7903C44.7309 33.6207 44.1208 34.264 43.1812 34.3615C42.7952 34.4024 42.4054 34.3868 42.0155 34.3868C29.9317 34.3868 17.8459 34.3868 5.76211 34.3868C4.00772 34.3868 3.9122 34.4745 3.45411 36.1529C3.23189 36.9677 2.68803 37.4238 1.81669 37.3732C1.00967 37.3264 0.434621 36.6695 0.393685 35.804C0.29427 33.7708 2.04476 31.6773 4.14027 31.3595C4.64905 31.2815 5.17341 31.2776 5.68998 31.2776C11.7485 31.2718 17.8069 31.2737 23.8654 31.2737V31.2776Z" fill="#727272"/>
<path d="M19.6802 24.1692C24.4755 24.1692 29.2689 24.1692 34.0642 24.1692C34.3878 24.1692 34.7173 24.1497 35.033 24.2042C35.7991 24.3368 36.3995 25.0561 36.3332 25.789C36.2611 26.5902 35.7991 27.097 35.0058 27.2491C34.6919 27.3095 34.3605 27.2803 34.0369 27.2803C24.61 27.2803 15.1831 27.2803 5.75624 27.2803C4.00965 27.2803 3.91023 27.3699 3.45409 29.0561C3.23187 29.8729 2.68411 30.3193 1.81277 30.2647C1.0038 30.214 0.432651 29.5668 0.391715 28.6994C0.282553 26.3115 2.41121 24.1886 5.00575 24.177C9.89659 24.1536 14.7894 24.1692 19.6802 24.1692V24.1692Z" fill="#727272"/>
<path d="M53.0895 77.3881C52.6159 76.9709 52.07 76.6805 51.8264 76.2282C51.4794 75.5811 51.688 74.8969 52.2806 74.3998C53.3468 73.5031 54.417 72.6103 55.4872 71.7175C60.1168 67.8559 64.7387 63.9865 69.3858 60.1483C69.8088 59.7994 70.4326 59.4115 70.9043 59.4758C71.4034 59.544 72.1012 60.0625 72.2182 60.5109C72.3468 61.006 72.0856 61.8306 71.6958 62.1931C70.2279 63.5616 68.6392 64.7994 67.0954 66.084C62.9122 69.5674 58.7309 73.0567 54.5359 76.5265C54.1539 76.8423 53.6743 77.0431 53.0895 77.3861V77.3881Z" fill="#727272"/>
<path d="M13.375 46.3019C14.8974 46.3019 16.4198 46.2883 17.9422 46.3058C18.9832 46.3175 19.6147 46.8789 19.6498 47.7659C19.6849 48.6879 19.0338 49.3858 17.9832 49.3955C14.874 49.4247 11.7629 49.4267 8.65373 49.3955C7.6011 49.3858 6.96172 48.6898 7.00071 47.7581C7.03775 46.8711 7.66348 46.3175 8.71026 46.3058C10.2658 46.2883 11.8194 46.3019 13.375 46.3019V46.3019Z" fill="#727272"/>
<path d="M13.3183 53.0901C14.8368 53.0901 16.3573 53.0785 17.8758 53.094C18.9772 53.1057 19.6224 53.6632 19.6517 54.5833C19.6829 55.5404 19.0025 56.1993 17.8856 56.2052C14.8485 56.2227 11.8096 56.2227 8.77252 56.2052C7.64777 56.1993 6.9772 55.556 7.00059 54.5931C7.02204 53.6671 7.66141 53.1057 8.76278 53.094C10.2813 53.0785 11.7998 53.0901 13.3203 53.0901H13.3183Z" fill="#727272"/>
<path d="M13.3219 59.9031C14.8443 59.9031 16.3667 59.8894 17.8892 59.9089C18.9827 59.9226 19.6338 60.5054 19.6513 61.4235C19.6689 62.3436 19.0159 62.9947 17.9398 63.0025C14.8619 63.0259 11.7858 63.0259 8.70788 63.0025C7.626 62.9947 6.98273 62.3553 6.99832 61.4274C7.01392 60.4996 7.65329 59.9226 8.75466 59.9089C10.2771 59.8894 11.7995 59.9031 13.3219 59.9031Z" fill="#727272"/>
<path d="M13.3647 80.3188C14.8871 80.3188 16.4096 80.3013 17.932 80.3247C19.008 80.3403 19.6571 80.9562 19.6493 81.8822C19.6415 82.7652 19.0119 83.4046 17.9905 83.4143C14.8813 83.4416 11.7721 83.4416 8.66103 83.4143C7.62984 83.4046 7.00995 82.7827 6.99631 81.8919C6.98266 80.9582 7.62204 80.3403 8.69806 80.3247C10.2517 80.3013 11.8072 80.3188 13.3628 80.3188H13.3647Z" fill="#727272"/>
<path d="M79.1831 80.318C80.6724 80.318 82.1636 80.3024 83.6529 80.3238C84.7465 80.3375 85.3956 80.9242 85.4092 81.8462C85.4229 82.7644 84.7699 83.4096 83.6899 83.4193C80.6139 83.4427 77.5359 83.4447 74.4599 83.4193C73.38 83.4096 72.7387 82.7644 72.7562 81.8365C72.7738 80.9106 73.417 80.3394 74.5184 80.3258C76.072 80.3063 77.6276 80.3219 79.1831 80.3219V80.318Z" fill="#727272"/>
<path d="M13.3276 73.5285C14.8501 73.5285 16.3725 73.5148 17.8949 73.5324C18.9943 73.546 19.6434 74.1269 19.6512 75.049C19.659 75.9671 18.9924 76.6221 17.9339 76.6299C14.8559 76.6513 11.7779 76.6513 8.7019 76.6299C7.63953 76.6221 6.98651 75.969 6.9982 75.0392C7.0099 74.1113 7.64732 73.546 8.76038 73.5324C10.2828 73.5148 11.8052 73.5285 13.3276 73.5285V73.5285Z" fill="#727272"/>
<path d="M79.1134 73.5289C80.6358 73.5289 82.1582 73.5133 83.6806 73.5348C84.7664 73.5484 85.4175 74.1546 85.4077 75.0786C85.398 75.9948 84.7333 76.6244 83.6631 76.6322C80.6183 76.6517 77.5734 76.6498 74.5286 76.6322C73.4019 76.6264 72.7294 75.9753 72.7567 75.0123C72.7839 74.0942 73.4253 73.5445 74.5461 73.5328C76.0686 73.5172 77.591 73.5289 79.1134 73.5289V73.5289Z" fill="#727272"/>
<path d="M41.7367 69.882C41.3156 69.5175 40.688 69.227 40.5515 68.7865C40.3995 68.2952 40.4872 67.4356 40.8244 67.1334C43.07 65.1373 45.3956 63.229 47.7289 61.3362C48.378 60.8098 49.3176 61.0028 49.8127 61.6247C50.3683 62.3225 50.2825 63.1783 49.4891 63.8508C47.3215 65.6929 45.1324 67.5097 42.9316 69.3128C42.649 69.5447 42.2572 69.6403 41.7347 69.882H41.7367Z" fill="#727272"/>
<path d="M28.991 69.9289C28.991 70.5429 29.0085 71.1589 28.9871 71.771C28.952 72.7729 28.3516 73.4045 27.4549 73.4181C26.5232 73.4318 25.8935 72.7788 25.876 71.7242C25.8545 70.5293 25.8584 69.3324 25.876 68.1355C25.8916 67.0731 26.4998 66.3928 27.4062 66.3753C28.3458 66.3597 28.9715 67.0634 28.9929 68.1823C29.0046 68.7632 28.9949 69.346 28.9929 69.9289H28.991Z" fill="#727272"/>
<path d="M28.9844 48.2498C28.9844 48.9282 29.0195 49.6085 28.9766 50.283C28.92 51.1796 28.23 51.7956 27.384 51.7703C26.5692 51.7449 25.9122 51.1504 25.8869 50.2927C25.846 48.9379 25.844 47.5812 25.8869 46.2264C25.9142 45.3531 26.5497 44.7761 27.3762 44.7508C28.2456 44.7255 28.9161 45.3083 28.9766 46.2167C29.0214 46.8911 28.9863 47.5715 28.9863 48.2498H28.9844Z" fill="#727272"/>
<path d="M28.9905 80.7456C28.9905 81.3928 29.0139 82.04 28.9827 82.6852C28.9378 83.617 28.3199 84.2368 27.47 84.2583C26.5792 84.2817 25.9047 83.6443 25.8813 82.6696C25.8482 81.3772 25.8482 80.0829 25.8813 78.7905C25.9047 77.8509 26.5246 77.2466 27.3881 77.2271C28.3004 77.2057 28.9222 77.8197 28.9885 78.8041C28.9924 78.8684 28.9924 78.9328 28.9924 78.9971C28.9924 79.5799 28.9924 80.1608 28.9924 80.7437L28.9905 80.7456Z" fill="#727272"/>
<path d="M25.874 59.0206C25.874 58.3754 25.8447 57.7282 25.8818 57.0849C25.9324 56.1902 26.6108 55.5489 27.4393 55.5547C28.2677 55.5606 28.9519 56.2058 28.9773 57.1064C29.0143 58.428 29.0143 59.7536 28.9773 61.0752C28.9519 61.9719 28.258 62.6035 27.4178 62.5976C26.5757 62.5918 25.9207 61.9582 25.8779 61.0538C25.8467 60.3773 25.872 59.699 25.872 59.0206H25.874Z" fill="#727272"/>
<path d="M45.5676 83.3804C45.3025 83.1757 44.7041 82.9379 44.5364 82.5266C44.3493 82.0665 44.3395 81.2595 44.6261 80.934C45.3629 80.0977 46.2401 79.3277 47.2011 78.7722C47.6066 78.5383 48.4604 78.7488 48.936 79.0412C49.5267 79.4038 49.7002 80.2439 49.2167 80.7527C48.3415 81.6767 47.2966 82.4408 46.3083 83.2556C46.2011 83.3433 45.9965 83.3141 45.5676 83.3804V83.3804Z" fill="#727272"/>
<path d="M82.3145 16.5781C83.6849 16.5996 85.6322 18.1707 85.9032 19.3773C86.0708 20.1278 85.7804 20.7224 85.1137 21.083C84.4353 21.4495 83.8233 21.276 83.258 20.7672C82.7433 20.3052 82.2073 19.8627 81.6439 19.4612C81.0123 19.0109 80.7648 18.4222 80.9636 17.699C81.1644 16.966 81.7044 16.5976 82.3125 16.5801L82.3145 16.5781Z" fill="#727272"/>
</g>
<defs>
<clipPath id="clip0_520_2808">
<rect width="100" height="81.4815" fill="white" transform="translate(0 9)"/>
</clipPath>
</defs>
</svg>
