<?xml version="1.0" encoding="utf-8"?>
<!-- Generator: Adobe Illustrator 24.0.1, SVG Export Plug-In . SVG Version: 6.00 Build 0)  -->
<svg version="1.1" id="Layer_1" xmlns="http://www.w3.org/2000/svg" xmlns:xlink="http://www.w3.org/1999/xlink" x="0px" y="0px"
	 viewBox="0 0 176.3 51.3" style="enable-background:new 0 0 176.3 51.3;" xml:space="preserve">
<style type="text/css">
	.st0{fill:#FFFFFF;}
	.st1{fill-rule:evenodd;clip-rule:evenodd;fill:#FFFFFF;}
</style>
<g>
	<g>
		<path class="st0" d="M16.8,33.2l6.2-6.2l-9.2,0h0c-5.1,0-9.3,4.2-9.3,9.3c0,5.1,4.2,9.3,9.3,9.3c0.4,0,0.8,0,1.1-0.1
			C12.8,41.5,13.5,36.5,16.8,33.2z"/>
	</g>
</g>
<g>
	<g>
		<path class="st0" d="M24.3,36.3v-8.7l-6.5,6.5l0,0c-3.6,3.6-3.6,9.5,0,13.1s9.5,3.6,13.1,0c0.3-0.3,0.5-0.6,0.8-0.9
			C27.4,45,24.3,41,24.3,36.3z"/>
	</g>
</g>
<g>
	<g>
		<path class="st0" d="M31.8,33.2L25.6,27v9.3c0,5.1,4.2,9.3,9.3,9.3c5.1,0,9.3-4.2,9.3-9.3c0-0.4,0-0.8-0.1-1.2
			C40.1,37.1,35.1,36.5,31.8,33.2z"/>
	</g>
</g>
<g>
	<g>
		<path class="st0" d="M45.9,19.1c-0.3-0.3-0.6-0.5-0.9-0.8c-1.4,4.2-5.4,7.3-10.1,7.3l-8.7,0l6.5,6.5l0,0c3.6,3.6,9.5,3.6,13.1,0
			C49.5,28.6,49.5,22.7,45.9,19.1z"/>
	</g>
</g>
<g>
	<g>
		<path class="st0" d="M34.9,5.7c-0.4,0-0.8,0-1.1,0.1c2,4,1.4,9-2,12.3l-6.2,6.2h9.3c5.1,0,9.3-4.2,9.3-9.3
			C44.2,9.9,40,5.7,34.9,5.7z"/>
	</g>
</g>
<g>
	<g>
		<path class="st0" d="M30.8,4.1c-3.6-3.6-9.5-3.6-13.1,0c-0.3,0.3-0.5,0.6-0.8,0.9c4.2,1.4,7.3,5.4,7.3,10.1l0,8.7l6.5-6.5l0,0
			C34.5,13.6,34.5,7.7,30.8,4.1z"/>
	</g>
</g>
<path class="st0" d="M16.8,18.1l0.3,0.3l5.9,5.9h0l0-9.2v0c0-5.1-4.2-9.3-9.3-9.3c-5.1,0-9.3,4.2-9.3,9.3c0,0.4,0,0.8,0.1,1.1
	C8.5,14.2,13.5,14.8,16.8,18.1z"/>
<path class="st0" d="M3.6,32.9c0.1-0.2,0.2-0.4,0.2-0.6c0,0,0-0.1,0-0.1c0.1-0.2,0.2-0.4,0.3-0.7c0,0,0-0.1,0.1-0.1
	c0.1-0.2,0.2-0.4,0.4-0.6c0,0,0,0,0-0.1c0.1-0.2,0.2-0.4,0.4-0.6c0,0,0.1-0.1,0.1-0.1c0.1-0.2,0.3-0.4,0.4-0.6c0,0,0.1-0.1,0.1-0.1
	c0.1-0.2,0.3-0.3,0.5-0.5c0,0,0,0,0,0c0.2-0.2,0.3-0.3,0.5-0.5c0,0,0.1-0.1,0.1-0.1C7,28,7.2,27.9,7.4,27.7c0,0,0.1,0,0.1-0.1
	c0.2-0.1,0.4-0.3,0.6-0.4c0,0,0.1,0,0.1-0.1c0.2-0.1,0.4-0.2,0.6-0.4c0,0,0.1,0,0.1-0.1c0.2-0.1,0.4-0.2,0.6-0.3c0,0,0,0,0,0
	c0.2-0.1,0.5-0.2,0.7-0.3c0.1,0,0.1,0,0.2-0.1c0.2-0.1,0.5-0.1,0.7-0.2c0,0,0.1,0,0.1,0c0.2-0.1,0.4-0.1,0.7-0.1c0,0,0.1,0,0.1,0
	c0.2,0,0.5-0.1,0.7-0.1c0.1,0,0.1,0,0.2,0c0.3,0,0.5,0,0.8,0l8.7,0l-6.6-6.6c-3.6-3.6-9.5-3.6-13.1,0c-3.6,3.6-3.6,9.5,0,13.1
	C3,32.5,3.3,32.7,3.6,32.9C3.6,32.9,3.6,32.9,3.6,32.9z"/>
<path class="st0" d="M15.9,19.1l5.2,5.2h-7l-0.4,0c-4.2,0-7.8-2.9-8.9-6.7C8.3,15.6,12.8,16.1,15.9,19.1L15.9,19.1L15.9,19.1z"/>
<path class="st0" d="M22.9,15v7.3L18,17.4l-0.3-0.3c-3-3-3.5-7.6-1.5-11.1C20.1,7.2,22.9,10.8,22.9,15L22.9,15L22.9,15z"/>
<path class="st0" d="M30.9,17.2l-5.2,5.2v-7l0-0.4c0-4.2,2.9-7.8,6.7-8.9C34.4,9.6,33.9,14.2,30.9,17.2L30.9,17.2L30.9,17.2z"/>
<path class="st0" d="M34.9,24.3h-7.3l4.9-4.9l0.3-0.3c3-3,7.6-3.5,11.1-1.5C42.8,21.4,39.2,24.3,34.9,24.3L34.9,24.3L34.9,24.3z"/>
<path class="st0" d="M32.7,32.2L27.6,27h7l0.4,0c4.2,0,7.8,2.9,8.9,6.7C40.3,35.7,35.8,35.2,32.7,32.2L32.7,32.2L32.7,32.2z"/>
<path class="st0" d="M25.7,36.2v-7.3l4.9,4.9l0.3,0.3c3,3,3.5,7.6,1.5,11.1C28.5,44.1,25.7,40.5,25.7,36.2L25.7,36.2L25.7,36.2z"/>
<path class="st0" d="M17.8,34.1l5.2-5.2v7l0,0.4c0,4.2-2.9,7.8-6.7,8.9C14.3,41.7,14.8,37.1,17.8,34.1L17.8,34.1L17.8,34.1z"/>
<path class="st0" d="M13.7,27h7.3l-4.9,4.9l-0.3,0.3c-3,3-7.6,3.5-11.1,1.5C5.9,29.9,9.4,27,13.7,27L13.7,27L13.7,27z"/>
<path class="st1" d="M51.8,39.8h2.8l3.3-8.6h12.6l3.4,8.6h2.8L65.9,12.2H63L51.8,39.8L51.8,39.8z M64.3,14.8L69.7,29H58.8L64.3,14.8
	L64.3,14.8z"/>
<polygon class="st0" points="77.7,39.8 80.1,39.8 80.1,12.2 77.7,12.2 77.7,39.8 "/>
<path class="st0" d="M90.6,19.8h-3.9v-1.7c0-0.5,0-1,0-1.5c0-0.5,0.1-0.9,0.3-1.2c0.2-0.3,0.4-0.6,0.8-0.8c0.4-0.2,0.9-0.3,1.5-0.3
	c0.3,0,0.6,0,0.9,0.1c0.3,0,0.6,0.1,0.9,0.1v-2.1c-0.4-0.1-0.7-0.1-1-0.1c-0.3,0-0.6,0-1,0c-1,0-1.8,0.1-2.4,0.4
	c-0.6,0.3-1.1,0.7-1.5,1.2c-0.4,0.5-0.6,1.1-0.7,1.9c-0.1,0.7-0.2,1.5-0.2,2.4v1.8h-3.4v2.1h3.4v17.9h2.4V21.9h3.9V19.8L90.6,19.8z"
	/>
<path class="st0" d="M91.3,39.8h2.4V29.3c0-1,0.2-2,0.5-2.9c0.4-0.9,0.9-1.7,1.5-2.3c0.7-0.6,1.4-1.1,2.3-1.5c0.9-0.3,1.9-0.5,3-0.4
	v-2.4c-1.8-0.1-3.4,0.3-4.7,1.1c-1.3,0.8-2.3,2-2.9,3.6h-0.1v-4.7h-2.2V39.8L91.3,39.8z"/>
<path class="st1" d="M117.8,30.5c0.1-1.3-0.1-2.6-0.4-3.9c-0.3-1.3-0.8-2.4-1.5-3.4c-0.7-1-1.6-1.8-2.8-2.4
	c-1.1-0.6-2.5-0.9-4.1-0.9c-1.6,0-3,0.3-4.1,0.9c-1.1,0.6-2.1,1.3-2.8,2.3c-0.7,0.9-1.3,2-1.6,3.2c-0.3,1.2-0.5,2.4-0.5,3.7
	c0,1.3,0.2,2.6,0.5,3.8c0.3,1.2,0.9,2.3,1.6,3.2c0.7,0.9,1.7,1.6,2.8,2.2c1.1,0.5,2.5,0.8,4.1,0.8c2.5,0,4.5-0.6,5.9-1.9
	c1.4-1.3,2.3-3,2.8-5.3h-2.4c-0.4,1.5-1.1,2.8-2.1,3.7c-1,0.9-2.4,1.4-4.2,1.4c-1.2,0-2.2-0.2-3-0.7c-0.8-0.5-1.5-1-2-1.7
	c-0.5-0.7-0.9-1.5-1.2-2.3c-0.3-0.9-0.4-1.7-0.4-2.5H117.8L117.8,30.5z M102.4,28.4c0.1-0.8,0.3-1.6,0.6-2.4
	c0.3-0.8,0.8-1.5,1.3-2.1c0.5-0.6,1.2-1.1,2-1.5c0.8-0.4,1.7-0.6,2.7-0.6c1,0,1.9,0.2,2.6,0.6c0.8,0.4,1.4,0.9,2,1.5
	c0.5,0.6,1,1.3,1.3,2.1c0.3,0.8,0.5,1.6,0.5,2.5H102.4L102.4,28.4z"/>
<path class="st0" d="M133.9,25.7c-0.1-1.1-0.3-2-0.7-2.8c-0.4-0.8-0.9-1.5-1.6-2c-0.7-0.5-1.4-0.9-2.3-1.2c-0.9-0.3-1.8-0.4-2.8-0.4
	c-0.9,0-1.8,0.1-2.7,0.3c-0.9,0.2-1.7,0.5-2.4,1c-0.7,0.4-1.3,1-1.8,1.7c-0.5,0.7-0.7,1.6-0.7,2.6c0,0.9,0.1,1.6,0.4,2.1
	c0.3,0.6,0.7,1.1,1.2,1.5c0.5,0.4,1.1,0.7,1.8,1c0.7,0.3,1.4,0.5,2.2,0.7l3.1,0.7c0.5,0.1,1.1,0.3,1.6,0.5c0.5,0.2,1,0.4,1.4,0.7
	c0.4,0.3,0.7,0.6,1,1c0.2,0.4,0.4,0.9,0.4,1.5c0,0.7-0.2,1.3-0.5,1.8c-0.3,0.5-0.8,0.9-1.3,1.2c-0.5,0.3-1.1,0.5-1.8,0.7
	c-0.6,0.1-1.3,0.2-1.8,0.2c-1.6,0-3-0.4-4.1-1.3c-1.1-0.8-1.7-2.1-1.8-3.7h-2.4c0.2,2.5,1,4.2,2.5,5.4c1.5,1.1,3.4,1.7,5.7,1.7
	c0.9,0,1.9-0.1,2.8-0.3c1-0.2,1.8-0.6,2.6-1c0.8-0.5,1.4-1.1,1.9-1.9c0.5-0.8,0.7-1.7,0.7-2.8c0-0.9-0.2-1.6-0.5-2.3
	c-0.3-0.6-0.8-1.2-1.3-1.6c-0.5-0.4-1.1-0.8-1.8-1.1c-0.7-0.3-1.4-0.5-2.1-0.6l-3.3-0.7c-0.4-0.1-0.9-0.2-1.4-0.4
	c-0.5-0.2-0.9-0.4-1.4-0.6c-0.4-0.3-0.8-0.6-1-0.9c-0.3-0.4-0.4-0.8-0.4-1.4c0-0.6,0.1-1.2,0.4-1.6c0.3-0.4,0.7-0.8,1.1-1.1
	c0.5-0.3,1-0.5,1.5-0.6c0.6-0.1,1.1-0.2,1.6-0.2c0.7,0,1.4,0.1,2,0.3c0.6,0.2,1.2,0.4,1.6,0.8c0.5,0.4,0.9,0.8,1.1,1.4
	c0.3,0.6,0.4,1.2,0.5,2H133.9L133.9,25.7z"/>
<path class="st0" d="M152.3,26.7c-0.3-2.3-1.2-4-2.7-5.1c-1.5-1.1-3.3-1.7-5.4-1.7c-1.5,0-2.9,0.3-4,0.8c-1.2,0.5-2.2,1.3-3,2.2
	c-0.8,0.9-1.4,2-1.8,3.2c-0.4,1.2-0.6,2.5-0.6,3.8c0,1.4,0.2,2.7,0.6,3.9c0.4,1.2,1,2.3,1.8,3.2c0.8,0.9,1.8,1.6,3,2.2
	c1.2,0.5,2.5,0.8,4,0.8c2.2,0,4.1-0.7,5.6-2.1c1.5-1.4,2.4-3.3,2.7-5.7H150c-0.1,0.8-0.3,1.6-0.6,2.3c-0.3,0.7-0.8,1.3-1.3,1.8
	c-0.5,0.5-1.1,0.9-1.8,1.2c-0.7,0.3-1.4,0.4-2.1,0.4c-1.2,0-2.2-0.2-3.1-0.7c-0.9-0.5-1.6-1.1-2.2-1.8c-0.6-0.7-1-1.6-1.3-2.5
	c-0.3-0.9-0.4-1.9-0.4-2.9c0-1,0.1-2,0.4-2.9c0.3-0.9,0.7-1.8,1.3-2.5c0.6-0.7,1.3-1.3,2.2-1.8c0.9-0.5,1.9-0.7,3.1-0.7
	c1.6,0,2.9,0.4,3.8,1.3c0.9,0.9,1.5,2,1.9,3.5H152.3L152.3,26.7z"/>
<path class="st1" d="M162.8,19.8c-1.5,0-2.9,0.3-4,0.8c-1.2,0.5-2.2,1.3-3,2.2c-0.8,0.9-1.4,2-1.8,3.2c-0.4,1.2-0.6,2.5-0.6,3.8
	c0,1.4,0.2,2.7,0.6,3.9c0.4,1.2,1,2.3,1.8,3.2c0.8,0.9,1.8,1.6,3,2.2c1.2,0.5,2.5,0.8,4,0.8c1.5,0,2.9-0.3,4-0.8
	c1.2-0.5,2.2-1.3,3-2.2c0.8-0.9,1.4-2,1.8-3.2c0.4-1.2,0.6-2.5,0.6-3.9c0-1.3-0.2-2.6-0.6-3.8c-0.4-1.2-1-2.3-1.8-3.2
	c-0.8-0.9-1.8-1.6-3-2.2C165.7,20.1,164.3,19.8,162.8,19.8L162.8,19.8z M162.8,21.9c1.2,0,2.2,0.2,3.1,0.7c0.9,0.5,1.6,1.1,2.2,1.8
	c0.6,0.7,1,1.6,1.3,2.5c0.3,0.9,0.4,1.9,0.4,2.9c0,1-0.1,2-0.4,2.9c-0.3,1-0.7,1.8-1.3,2.5c-0.6,0.7-1.3,1.3-2.2,1.8
	c-0.9,0.5-1.9,0.7-3.1,0.7c-1.2,0-2.2-0.2-3.1-0.7c-0.9-0.5-1.6-1.1-2.2-1.8s-1-1.6-1.3-2.5c-0.3-0.9-0.4-1.9-0.4-2.9
	c0-1,0.1-2,0.4-2.9c0.3-0.9,0.7-1.8,1.3-2.5c0.6-0.7,1.3-1.3,2.2-1.8C160.6,22.1,161.6,21.9,162.8,21.9L162.8,21.9z"/>
<polygon class="st0" points="171.1,20 172.1,20 172.1,22.6 172.4,22.6 172.4,20 173.3,20 173.3,19.8 171.1,19.8 171.1,20 "/>
<polygon class="st0" points="173.6,22.6 173.9,22.6 173.9,20.1 173.9,20.1 174.8,22.6 175.1,22.6 176.1,20.1 176.1,20.1 176.1,22.6 
	176.3,22.6 176.3,19.8 175.9,19.8 175,22.2 174,19.8 173.6,19.8 173.6,22.6 "/>
</svg>
