<?xml version="1.0" encoding="utf-8"?>
<!-- Generator: Adobe Illustrator 26.0.1, SVG Export Plug-In . SVG Version: 6.00 Build 0)  -->
<svg version="1.1" id="Layer_1" xmlns="http://www.w3.org/2000/svg" xmlns:xlink="http://www.w3.org/1999/xlink" x="0px" y="0px"
	 viewBox="0 0 100 76" style="enable-background:new 0 0 100 76;" xml:space="preserve">
<style type="text/css">
	.st0{fill:#D6D6D6;}
	.st1{fill-rule:evenodd;clip-rule:evenodd;fill:#D6D6D6;}
	.st2{fill:none;}
</style>
<g>
	<path class="st0" d="M55.51,57.63c0-3.19,0-6.39,0-9.59c0-0.31,0.16-0.47,0.47-0.47c2.2,0,4.41,0,6.61,0c0.32,0,0.43,0.08,0.4,0.4
		c-0.03,0.32-0.02,0.65,0,0.97c0.02,0.29-0.1,0.36-0.37,0.36c-1.52-0.01-3.04,0-4.56,0c-0.32,0-0.48,0.15-0.48,0.46
		c0,0.44,0.02,0.89,0,1.33c-0.02,0.33,0.08,0.44,0.42,0.43c1.36-0.02,2.73-0.01,4.1,0c0.36,0,0.53,0.17,0.53,0.51
		c0,0.26-0.02,0.53,0,0.79c0.04,0.36-0.12,0.44-0.45,0.43c-1.38-0.02-2.76-0.01-4.13,0c-0.47,0-0.47,0-0.47,0.48
		c0,0.59,0.02,1.17-0.01,1.76c-0.01,0.34,0.08,0.45,0.44,0.45c1.59-0.02,3.18,0,4.78-0.01c0.31,0,0.43,0.08,0.41,0.4
		c-0.02,0.44,0,0.88,0,1.33L55.51,57.63L55.51,57.63z"/>
	<path class="st0" d="M36.82,57.63c0-3.17,0-6.34,0-9.51c0-0.32,0.16-0.48,0.49-0.48c0.41,0,0.82,0.01,1.22,0
		c0.27-0.01,0.35,0.09,0.35,0.35c-0.01,1.32,0,2.63,0,3.95c0,1.19,0.01,2.37,0,3.55c0,0.32,0.08,0.44,0.42,0.43
		c1.43-0.02,2.85,0,4.27-0.01c0.28,0,0.38,0.08,0.37,0.37c-0.02,0.45,0,0.91,0,1.36L36.82,57.63L36.82,57.63z"/>
	<path class="st1" d="M33.43,57.63C33.43,57.63,33.43,57.63,33.43,57.63c-0.09-0.42-0.25-0.82-0.41-1.22
		c-0.1-0.26-0.2-0.51-0.29-0.77c-0.07-0.24-0.2-0.31-0.44-0.31c-1.12,0.01-2.25,0.01-3.38,0c-0.24,0-0.37,0.07-0.44,0.3
		c-0.16,0.48-0.34,0.96-0.51,1.44c-0.07,0.18-0.13,0.36-0.2,0.54c0.18-0.09,0.27-0.24,0.34-0.43c0.08-0.21,0.16-0.43,0.24-0.64
		c0.08-0.21,0.15-0.43,0.24-0.64c0.11-0.28,0.3-0.41,0.6-0.41h2.87c0.3,0,0.49,0.14,0.6,0.42c0.06,0.18,0.14,0.37,0.21,0.55
		c0.07,0.18,0.15,0.37,0.21,0.55C33.14,57.26,33.22,57.49,33.43,57.63L33.43,57.63L33.43,57.63z"/>
	<path class="st1" d="M25.6,57.63L25.6,57.63L25.6,57.63L25.6,57.63z M25.6,57.63c0.22-0.58,0.45-1.16,0.67-1.74
		c0.38-1,0.77-2,1.16-3c0.23-0.58,0.45-1.16,0.68-1.74l0,0c0.42-1.08,0.84-2.16,1.25-3.24c0.1-0.25,0.22-0.36,0.49-0.34
		c0.49,0.02,0.98,0.02,1.47,0c0.27-0.01,0.39,0.08,0.49,0.34c0.7,1.78,1.41,3.55,2.12,5.33c0.45,1.12,0.9,2.24,1.34,3.36
		c0.04,0.09,0.08,0.19,0.12,0.28c0.11,0.25,0.21,0.49,0.26,0.76h-2.22h0c-0.21-0.14-0.29-0.37-0.37-0.6
		c-0.06-0.18-0.14-0.37-0.21-0.55c-0.07-0.18-0.15-0.37-0.21-0.55c-0.1-0.28-0.29-0.42-0.6-0.42h-2.87c-0.3,0-0.49,0.13-0.6,0.41
		c-0.08,0.21-0.16,0.43-0.24,0.64c-0.08,0.21-0.15,0.43-0.24,0.64c-0.07,0.18-0.16,0.34-0.34,0.43c0,0-0.01,0-0.01,0.01H25.6z
		 M31.08,51.28c-0.15-0.41-0.3-0.81-0.45-1.22h-0.09c-0.2,0.56-0.41,1.12-0.61,1.68c-0.2,0.56-0.41,1.12-0.61,1.68
		c-0.07,0.21,0.06,0.21,0.18,0.21c0.01,0,0.02,0,0.03,0h2.15c0.18,0,0.27-0.03,0.19-0.24C31.6,52.68,31.34,51.98,31.08,51.28z"/>
	<path class="st1" d="M71.27,55.51c-0.17,0.7-0.34,1.41-0.52,2.11c0,0,0,0.01,0,0.01l0-0.01h0c0.21-0.14,0.26-0.36,0.32-0.58
		c0-0.01,0.01-0.02,0.01-0.03c0.22-0.86,0.43-1.72,0.65-2.58c0.21-0.86,0.43-1.72,0.65-2.58c0.07-0.28,0.13-0.56,0.18-0.84
		c0,0.03,0,0.06,0,0.09c-0.03,1.45-0.03,2.9-0.02,4.35c0,0.6,0.01,1.19,0.01,1.79c0,0.15,0.04,0.28,0.16,0.37v-7.55
		c-0.35,1.1-0.63,2.21-0.9,3.32C71.61,54.1,71.44,54.81,71.27,55.51z"/>
	<path class="st1" d="M45.36,47.91c0.01,3.24,0.01,6.48,0.01,9.73h2.01c0-0.18,0-0.35,0.01-0.53c0.01-0.71,0.02-1.41,0.01-2.12
		c0-0.26,0.07-0.45,0.25-0.63c0.4-0.39,0.79-0.8,1.18-1.21c0.17-0.19,0.25-0.17,0.38,0.05c0.72,1.23,1.45,2.46,2.18,3.69l0,0l0,0
		l0.44,0.75c0.01,0,0.01,0.01,0.02,0.01h2.66c-1.3-1.98-2.6-3.96-3.91-5.93c-0.13-0.19-0.04-0.28,0.07-0.4l0.02-0.02
		c1.1-1.12,2.19-2.24,3.29-3.37c0.02-0.02,0.04-0.04,0.06-0.05c0.08-0.07,0.16-0.14,0.19-0.29c-0.26,0-0.53,0-0.79,0
		c-0.52,0-1.03,0-1.55,0c-0.24,0-0.4,0.06-0.56,0.24c-1.17,1.27-2.36,2.54-3.54,3.8l-0.06,0.06c-0.01,0.02-0.03,0.03-0.04,0.05
		c-0.06,0.07-0.12,0.16-0.27,0.16V51.5c0-0.4,0-0.79,0-1.19c0-0.79,0-1.58,0-2.37c0-0.27-0.07-0.39-0.37-0.37
		c-0.44,0.02-0.89,0.01-1.33,0C45.46,47.56,45.36,47.63,45.36,47.91z"/>
	<path class="st1" d="M64.86,53.06c0,1.52-0.01,3.05-0.01,4.57l0.01-0.01h1.93c0-0.62,0-1.24-0.01-1.85c0-0.31,0-0.62-0.01-0.93
		c0-1.59,0-3.17,0.08-4.78c0.31,1.26,0.63,2.52,0.94,3.78l0,0.02l0,0l0,0.01c0.24,0.95,0.47,1.9,0.71,2.84l0.22,0.91l0.01,0h2.01h0
		c0.21-0.14,0.26-0.36,0.32-0.58l0.01-0.03c0.22-0.86,0.43-1.72,0.65-2.58c0.21-0.86,0.43-1.72,0.65-2.58
		c0.07-0.28,0.13-0.56,0.18-0.84c0,0.03,0,0.06,0,0.09c-0.03,1.45-0.03,2.9-0.02,4.35c0,0.6,0.01,1.19,0.01,1.79
		c0,0.15,0.04,0.28,0.16,0.37c0,0,0.01,0.01,0.01,0.01h1.87V57.6c0-3.24,0.01-6.49,0.02-9.74c0-0.24-0.11-0.29-0.33-0.29
		c-0.79,0.01-1.58,0.02-2.37,0c-0.29-0.01-0.39,0.1-0.46,0.36c-0.29,1.17-0.6,2.34-0.9,3.51l0,0l0,0.01
		c-0.09,0.36-0.18,0.71-0.28,1.07c-0.07,0.29-0.15,0.58-0.23,0.87c-0.08,0.29-0.15,0.58-0.23,0.87c-0.12-0.14-0.16-0.27-0.19-0.41
		l0,0c-0.53-1.99-1.06-3.98-1.58-5.96c-0.06-0.23-0.16-0.3-0.39-0.3c-0.82,0.01-1.63,0.01-2.44,0c-0.25,0-0.33,0.09-0.33,0.33
		c0,0.64,0,1.28,0,1.92v0c0,0.32,0,0.64,0,0.96C64.87,51.54,64.86,52.3,64.86,53.06z M66.96,51.15c-0.01-0.12-0.03-0.25-0.04-0.37
		c0-0.03-0.01-0.06-0.01-0.09c-0.01-0.07-0.02-0.14-0.03-0.22c0.01,0.07,0.02,0.14,0.03,0.22c0,0.03,0.01,0.05,0.01,0.08
		C66.93,50.9,66.94,51.03,66.96,51.15z M72.59,50.67c0-0.04,0.01-0.08,0.01-0.12C72.6,50.59,72.59,50.63,72.59,50.67z"/>
	<path class="st1" d="M24.83,31.66L24.83,31.66L24.83,31.66c1.17-0.61,2.33-1.23,3.49-1.84l0,0l0,0l0,0
		c7.08-3.77,14.15-7.54,21.23-11.31c0.25-0.13,0.44-0.13,0.69,0c6.03,3.22,12.05,6.43,18.08,9.64c2.38,1.27,4.76,2.54,7.14,3.8
		c0.11,0.06,0.21,0.12,0.31,0.18c-0.04,0.12-0.12,0.15-0.2,0.19c-0.02,0.01-0.05,0.02-0.07,0.03l-0.01,0l0,0
		c-8.43,4.49-16.85,8.98-25.27,13.48c-0.28,0.15-0.48,0.08-0.72-0.05c-8.38-4.47-16.76-8.93-25.14-13.39
		c-0.03-0.02-0.06-0.04-0.1-0.06c-0.1-0.06-0.2-0.12-0.33-0.13v-0.07c0.29-0.15,0.57-0.3,0.86-0.45l0.01,0l0,0l0,0l0,0l0,0
		L24.83,31.66L24.83,31.66L24.83,31.66L24.83,31.66L24.83,31.66z M65.8,28.69L65.8,28.69c2.15,1.14,4.29,2.28,6.43,3.42
		c-0.05,0.13-0.14,0.16-0.22,0.2c-0.02,0.01-0.04,0.02-0.07,0.03l-13.66,7.28c-0.37,0.2-0.37,0.2-0.49-0.23
		c-0.41-1.5-0.4-3.04-0.39-4.56c0-0.51,0.01-1.02,0.01-1.53c0.02-1.69,0.03-3.39,0.02-5.08c0-0.78-0.09-1.55-0.23-2.32
		c-0.17-0.94-0.57-1.76-1.25-2.45c3.28,1.75,6.55,3.49,9.83,5.24L65.8,28.69L65.8,28.69L65.8,28.69L65.8,28.69z M27.49,32.16
		l1.24-0.66c4.55-2.42,9.05-4.82,13.57-7.23c0.03,0.14-0.03,0.22-0.08,0.28c-0.01,0.01-0.02,0.03-0.03,0.04
		c-0.48,0.7-0.82,1.46-1.08,2.26c-0.08,0.24-0.06,0.36,0.23,0.41c1.35,0.23,2.71,0.48,4.06,0.73c0.18,0.03,0.26-0.02,0.32-0.18
		c0.57-1.68,1.82-2.28,3.5-2.18c0.07,0,0.15,0.01,0.22,0.01c0.43,0.02,0.86,0.04,1.28,0.15c1.07,0.26,1.65,0.89,1.69,1.99
		c0.01,0.19,0.02,0.35,0.03,0.48c0.02,0.31,0.03,0.47-0.04,0.56c-0.07,0.09-0.21,0.13-0.48,0.21c-0.12,0.03-0.27,0.08-0.45,0.14
		c-1.12,0.36-2.27,0.58-3.42,0.81c-0.58,0.11-1.15,0.23-1.72,0.36c-0.89,0.2-1.76,0.45-2.6,0.81c-2.29,0.99-3.55,3.26-3.19,5.73
		c0.07,0.49,0.17,0.97,0.35,1.42c0.12,0.32,0.28,0.61,0.45,0.92c0.07,0.14,0.15,0.28,0.22,0.42c-2.27-1.21-4.53-2.41-6.81-3.63
		l-0.03-0.02l-0.09-0.05l-0.01,0C32.26,34.7,29.88,33.43,27.49,32.16z M52.43,33.55c-0.01,0.19-0.01,0.37-0.02,0.56
		c-0.01,0.28-0.01,0.56-0.04,0.84c-0.11,1.2-0.72,2.06-1.73,2.65c-0.91,0.53-1.87,0.78-2.92,0.58c-1.44-0.28-2.41-1.72-2.07-3.07
		c0.18-0.71,0.65-1.18,1.32-1.47c0.74-0.32,1.53-0.49,2.32-0.67c0.26-0.06,0.53-0.12,0.79-0.18c0.1-0.02,0.19-0.05,0.29-0.07l0,0
		c0.58-0.14,1.16-0.28,1.73-0.44c0.29-0.09,0.35,0.01,0.34,0.27c-0.01,0.22-0.01,0.45,0,0.67C52.43,33.32,52.43,33.44,52.43,33.55
		L52.43,33.55z M48.95,41.58c-1.08,0.28-2.18,0.31-3.38,0.17v0c0.05,0.04,0.09,0.06,0.11,0.08c0.05,0.04,0.07,0.05,0.1,0.07
		c0.17,0.09,0.35,0.19,0.52,0.28c1.12,0.59,2.23,1.18,3.34,1.79c0.2,0.11,0.35,0.08,0.53-0.02c0.74-0.4,1.49-0.8,2.23-1.19
		c0.74-0.4,1.49-0.79,2.23-1.19c0.01-0.01,0.03-0.01,0.04-0.01c0.06-0.02,0.13-0.04,0.11-0.15c-0.1,0-0.2,0-0.31,0
		c-0.23,0-0.45-0.01-0.67,0.01c-0.25,0.01-0.37-0.09-0.43-0.32c-0.09-0.31-0.18-0.61-0.28-0.92c-0.05-0.16-0.1-0.33-0.15-0.49
		c-0.06-0.19-0.09-0.28-0.14-0.3c-0.05-0.01-0.12,0.05-0.27,0.19C51.51,40.52,50.33,41.22,48.95,41.58z"/>
	<path class="st0" d="M46.96,21.79c0.44-0.24,0.87-0.47,1.31-0.7c0.45-0.24,0.91-0.49,1.36-0.73c0.12-0.07,0.25-0.15,0.4-0.07
		c1.08,0.58,2.17,1.15,3.24,1.77C51.18,21.67,49.08,21.62,46.96,21.79L46.96,21.79z"/>
	<rect class="st2" width="100" height="76"/>
</g>
</svg>
