<svg width="231" height="127" viewBox="0 0 231 127" fill="none" xmlns="http://www.w3.org/2000/svg">
<g clip-path="url(#clip0_580_709)">
<path d="M148.971 33.3403C152.412 35.6887 153.554 38.3226 153.161 41.6846C153.011 42.9623 153.111 44.2757 153.147 45.5676C153.233 48.7298 153.24 51.8848 152.019 55.2039C150.649 56.4959 149.506 58.5517 147.044 59.0085C146.316 60.793 147.401 62.7916 146.287 64.6547C147.865 66.2036 147.472 68.5948 148.529 70.672C149.328 66.5177 150.099 62.6061 150.848 58.5659C154.082 59.2512 156.673 59.7937 159.6 60.4147C158.643 66.482 157.116 72.2923 155.959 78.1812C154.817 83.9915 153.468 89.759 152.148 95.8334C149.021 96.7257 146.302 95.1553 143.618 94.7056C142.947 93.7991 143.254 93.1638 143.682 92.3787C142.126 91.001 142.34 89.0595 142.533 87.2464C142.733 85.3905 141.176 83.6846 142.925 81.2576C140.541 82.4925 141.362 84.0986 140.948 85.2407C140.47 86.5469 140.02 87.8817 139.72 89.2379C139.435 90.5585 140.127 92.1074 138.528 93.3566C135.923 93.4708 133.31 92.5571 130.477 91.7148C132.911 80.4082 135.33 69.1944 137.686 58.2376C136.572 56.4602 135.116 55.2396 135.423 52.9341C136.423 52.3202 137.051 51.0853 138.093 49.929C137.172 49.2294 135.83 50.0075 135.166 48.8083C134.36 45.9103 134.495 41.4562 135.545 37.9514C136.087 37.466 136.551 38.551 137.172 37.88C137.379 37.1734 136.294 37.0449 136.144 36.1883C136.387 34.9534 137.7 34.4038 138.55 33.3474C139.899 34.154 140.591 32.498 141.783 32.5265C143.082 32.5551 144.396 32.4266 145.68 32.5836C146.944 32.7335 148.172 33.1547 148.985 33.3545L148.971 33.3403ZM144.139 53.6193C144.824 50.8712 144.724 48.0731 144.567 45.3107C144.424 42.7696 145.766 40.0214 143.775 37.3375C142.868 41.0207 142.982 51.5493 144.132 53.6193H144.139ZM140.57 48.4371L140.755 48.5656L140.784 48.3657L140.57 48.4443V48.4371Z" fill="#EEEEEE"/>
<path d="M51.4585 58.0301C52.4578 52.4482 52.8575 47.2232 53.8355 42.1195C54.7919 37.1229 54.6777 31.9693 55.934 26.9727H67.3405C68.0758 27.4652 68.4684 28.3432 68.5897 29.2497C69.1393 33.2827 69.5533 37.337 70.1101 41.37C70.5669 44.7035 70.931 48.0797 71.7447 51.3275C72.3371 53.6902 71.966 55.9601 72.33 58.5012C69.3677 58.7154 66.7909 57.7018 64.2641 58.0372C62.8507 56.3313 64.8137 53.7616 62.3654 52.4339C59.6172 53.3975 61.5374 55.9815 60.4381 57.8088C57.797 58.437 54.899 57.9516 51.4728 58.023L51.4585 58.0301ZM62.6723 46.5236C63.6359 43.4543 62.0013 40.7204 62.3939 37.8795C61.0948 40.6277 60.9378 43.4971 60.9592 46.2167C61.5802 46.7949 62.037 46.6735 62.6723 46.5308V46.5236ZM55.4843 53.6117L55.6128 53.4047L55.4058 53.3833L55.4843 53.6117ZM65.4276 30.9699L65.5632 30.7629L65.3419 30.7344L65.4276 30.9699ZM67.5475 35.9094L67.6832 35.7024L67.4548 35.6739L67.5404 35.9094H67.5475Z" fill="#EEEEEE"/>
<path d="M99.1549 48.1548C99.1977 47.698 99.1263 47.2054 99.6331 46.8557C100.847 46.8628 101.361 47.805 101.796 48.476C102.403 50.2891 101.175 52.2663 102.924 53.5868C103.759 53.3727 104.059 52.6946 104.637 52.2234C103.873 50.8672 104.323 49.4182 104.002 47.9621C102.238 46.5916 100.411 45.1711 98.5695 43.7435C98.9764 43.1296 99.2976 42.6585 99.6902 42.0661C99.162 41.8091 98.6623 41.5664 98.2055 41.3451C97.4846 41.6949 98.0056 42.5086 97.3418 43.0012C92.8306 39.5107 93.1304 34.9352 94.5723 29.7816C98.1484 25.4774 102.974 25.6558 108.27 27.1905C109.327 28.4753 111.389 29.0392 111.832 31.1164C111.918 32.0515 110.604 31.7874 110.554 32.6011C110.411 32.7296 109.862 32.5725 110.24 33.0579C110.333 32.8937 110.426 32.7367 110.519 32.5725C110.868 32.6225 111.218 32.6653 111.675 32.7296C112.153 33.9502 112.018 35.1922 111.839 36.6769C109.348 37.0623 106.928 36.8196 104.28 36.7554C104.194 35.2207 104.116 33.8431 104.037 32.4369C103.409 31.6803 102.36 31.9658 101.632 31.4733C100.996 32.3013 102.117 32.7581 101.932 33.4648C101.253 36.1344 102.738 37.5406 104.901 38.6256C107.556 39.9604 109.819 41.8091 111.646 44.0576C112.56 46.8271 112.703 49.5895 112.738 52.4162C112.767 54.7217 110.904 57.7126 108.149 58.4835C104.387 59.5399 100.597 59.4043 97.0492 57.3985C95.3789 56.4563 94.5009 55.0215 94.2011 53.2014C93.8656 51.167 93.5087 49.1256 94.5294 47.0769C96.3211 46.0562 97.7487 47.1055 99.1834 48.1476C99.2905 48.3404 99.1691 48.9043 99.6831 48.476C99.5118 48.3761 99.3333 48.269 99.162 48.1691L99.1549 48.1548ZM96.628 34.4284C97.0848 34.3142 97.3846 34.0715 97.4346 33.4933C96.5852 33.3292 96.2426 33.529 96.628 34.4284ZM106.628 42.7513C106.307 43.044 106.2 43.3152 106.685 43.5436C106.957 43.2367 106.885 42.9869 106.628 42.7513ZM110.162 49.3611L110.297 49.147L110.076 49.1184L110.162 49.3611ZM95.9499 37.3336L96.0784 37.1409L95.8642 37.1123L95.9499 37.3336ZM106.607 30.2527L106.728 30.0671L106.528 30.0385L106.607 30.2455V30.2527ZM101.625 29.5603L101.767 29.339L101.539 29.3105L101.632 29.5603H101.625Z" fill="#EEEEEE"/>
<path d="M132.754 48.6931C133.39 49.6568 133.404 50.5919 132.976 51.4698C132.59 52.255 132.633 53.0545 132.576 53.8753C132.39 56.4093 131.519 58.4294 128.664 58.9505C128.222 59.029 127.808 59.3074 127.536 59.4216C125.738 59.3145 124.631 58.1795 123.182 57.2516C122.14 58.565 122.954 60.0925 122.283 61.5701C120.256 63.2689 117.672 61.67 115.466 62.4124C113.018 59.8998 115.766 56.8662 114.046 54.425C114.431 53.9253 114.781 53.4756 115.131 53.0188C115.316 52.8118 115.302 52.6048 115.095 52.3906C113.26 50.4848 114.046 48.1078 114.231 46.0021C114.502 42.9114 115.002 39.8849 114.488 36.7584C114.295 35.5664 114.752 34.2744 114.952 32.7611C117.236 32.3685 119.578 32.6755 121.876 32.5755C122.597 33.0467 123.268 33.4892 123.832 33.8532C124.938 33.8318 125.238 32.7825 126.045 32.597H129.985C130.77 33.325 131.541 34.0388 132.205 34.6527C132.811 36.8084 133.932 38.7356 132.669 40.8842C132.383 41.3767 132.669 42.012 132.919 42.5687C133.468 43.8036 133.225 45.0885 133.133 46.0521C132.64 47.4583 131.527 47.3227 130.72 47.6653C130.791 49.1072 131.991 48.1364 132.74 48.686L132.754 48.6931ZM126.851 40.3417C127.479 40.2132 128.157 39.6707 127.965 39.2496C127.572 38.3716 127.901 37.7577 128.115 36.9868C128.293 36.3373 127.929 35.7234 126.873 35.7948V40.3631C126.459 40.4273 126.237 40.6843 126.166 41.0769C125.716 41.0198 125.202 41.1126 124.953 40.6986C124.396 39.6993 125.145 38.4858 124.239 37.6435C123.768 37.565 123.304 37.4508 122.597 38.2146V44.8386C121.705 45.4953 121.212 44.703 120.527 45.0456C120.07 46.3376 119.578 47.7224 118.992 49.3784C120.663 48.7574 121.162 47.6938 121.419 46.4161C121.448 46.2876 121.79 46.2163 121.997 46.1163C122.654 46.2163 122.961 46.6945 123.189 47.2441C122.497 49.3855 122.311 51.5127 122.968 53.6184C123.618 53.7397 124.089 53.8682 124.788 52.9902V43.7822C125.152 42.84 126.366 42.2904 126.13 41.0412C126.537 40.977 126.78 40.7414 126.844 40.3346L126.851 40.3417ZM117.243 46.4946C117.286 45.8808 117.079 45.5524 116.408 45.688C116.294 46.3947 116.423 46.8087 117.243 46.4946ZM120.727 51.3128C121.034 51.6483 121.319 51.7768 121.569 51.2557C121.248 50.9773 120.977 51.013 120.727 51.3128ZM117.943 50.4634C117.757 50.7989 117.486 51.0915 118.043 51.3128C118.357 51.0059 118.257 50.7489 117.943 50.4634ZM116.558 48.5718C116.879 48.272 117.015 47.9936 116.508 47.7438C116.237 48.0579 116.287 48.322 116.558 48.5718ZM127.793 44.2248L127.979 44.3532L128.008 44.1462L127.793 44.2248Z" fill="#EEEEEE"/>
<path d="M164.81 61.3555C168.1 62.0693 171.027 62.7117 174.068 63.3684C174.91 66.5091 173.354 69.193 172.94 71.984C172.519 74.8463 171.569 77.623 170.962 80.4639C170.384 83.1906 170.099 85.9744 169.421 88.6726C168.721 91.4707 168.65 94.4829 166.822 97.0526C165.766 97.8663 164.574 98.4731 163.046 98.4517C160.662 98.4231 155.701 97.4238 153.91 96.4316C153.453 94.2831 154.616 92.4129 154.895 90.4999C156.044 89.8147 157.136 91.1352 158.378 89.8147C161.098 80.935 162.247 71.2345 164.802 61.3626L164.81 61.3555Z" fill="#EEEEEE"/>
<path d="M82.1456 27.0234C81.9243 37.4449 82.6024 47.481 81.289 57.6812C78.8978 58.6591 76.4352 59.4942 73.7941 58.0095C73.0375 53.8552 74.3295 49.6795 72.9019 45.5894C73.373 44.4759 73.6513 43.2553 73.58 41.9276C73.3587 37.8304 73.9226 33.7189 73.2659 29.6288C73.1303 28.7722 73.5014 27.8443 74.0725 27.0234H82.1527H82.1456ZM77.513 43.398L77.3845 43.5836L77.5987 43.6122L77.5201 43.398H77.513Z" fill="#EEEEEE"/>
<path d="M91.5031 46.2348C91.8172 46.4989 92.1669 46.7844 92.6452 47.177V57.5271C90.0898 59.3901 87.2917 58.505 84.4508 58.4764C84.2009 57.8911 83.6228 57.1987 83.7156 56.6277C84.7791 50.439 84.0011 44.2147 84.2152 38.0118C84.3366 34.4856 84.2366 30.9523 84.2366 27.2691C86.9705 26.5553 89.6401 26.9836 92.1884 26.9764C93.0306 27.7259 92.7094 28.5968 92.7737 29.3891C93.0663 32.9438 92.1884 36.4842 92.7308 40.0675C93.0521 42.1661 91.8243 44.1076 91.5031 46.2419V46.2348Z" fill="#EEEEEE"/>
<path d="M155.245 32.6051C157.865 32.6051 159.985 32.5909 162.098 32.6194C162.426 32.6194 162.754 32.8121 163.411 33.0191C164.196 33.1333 162.747 34.3754 163.796 34.5966C165.195 34.304 165.674 31.9913 167.836 32.8335C168.293 35.5103 167.993 38.3084 168.015 41.1636C166.859 42.17 165.017 41.9345 163.761 43.8546V56.4889C163.432 57.4668 162.854 58.0307 161.94 58.6303H155.809C155.224 58.1949 154.745 57.4953 154.845 56.8743C155.709 51.7278 155.031 46.5599 155.216 41.4063C155.316 38.6011 155.238 35.7887 155.238 32.6051H155.245ZM161.262 52.1775L161.384 51.9991L161.184 51.9705L161.262 52.1704V52.1775Z" fill="#EEEEEE"/>
<path d="M178.7 43.4997V53.3359C179.5 53.6856 180.121 53.9569 180.706 54.2139C180.992 55.5986 180.92 56.8835 180.756 58.2682C178.6 59.5388 176.273 59.0177 174.082 58.5252C171.548 57.9613 169.921 55.7771 170.263 52.9362C170.82 48.3036 169.721 43.7281 170.242 39.274C168.472 36.169 167.187 35.5409 171.884 32.5714C172.241 31.6292 170.763 31.8719 170.87 31.0082C170.941 30.4443 170.756 29.8447 171.327 29.1523C172.54 29.5378 173.889 29.7805 175.281 29.7091C176.331 29.652 177.38 29.7234 178.422 29.3165C179.022 30.4443 178.443 31.6792 178.722 32.4715C179.107 33.685 180.078 33.7849 180.699 34.3988C180.92 35.5052 180.963 36.6472 180.642 37.8464C180.107 38.0534 179.578 38.2604 178.986 38.4888C178.65 39.3882 179.5 40.5232 178.365 41.4368C177.715 41.7866 177.551 40.4232 176.695 40.8016V44.1564C177.451 44.4134 177.623 43.5283 178.686 43.4926L178.7 43.4997ZM175.346 52.465C175.553 53.1003 175.795 53.4144 176.288 53.4644C176.645 52.7934 176.366 52.5079 175.346 52.465ZM171.969 42.0364C171.662 42.322 171.527 42.5932 172.019 42.8288C172.29 42.5218 172.226 42.272 171.969 42.0364ZM173.996 40.1449C174.439 39.7523 174.503 39.3454 174.125 39.274C173.782 39.2098 173.768 39.6381 173.996 40.1449ZM171.398 37.1826L171.22 37.0612L171.191 37.2611L171.398 37.1826Z" fill="#EEEEEE"/>
<path d="M62.6805 60.1719C66.8277 60.4645 70.3752 59.7936 74.0013 60.6929C76.5568 61.3282 79.2692 61.0927 81.8103 60.3432C82.2457 61.4781 81.5962 61.9778 80.968 62.1634C78.9765 62.7701 77.0136 63.5624 74.8436 62.6345C73.5302 62.0706 72.1312 62.2633 70.7179 62.6773C67.8198 63.5196 65.2502 62.9414 62.6733 60.179L62.6805 60.1719Z" fill="#EEEEEE"/>
<path d="M168.022 99.0722C167.123 101.82 165.117 102.698 162.362 102.655C160.242 102.627 158.265 101.949 156.23 101.599C155.081 101.406 153.668 100.821 153.853 99.0722L153.832 99.0936C156.559 98.6225 159.107 100.022 161.834 99.836C163.925 99.6932 166.045 99.9216 168.058 99.1007L168.03 99.0722H168.022Z" fill="#EEEEEE"/>
<path d="M111.99 58.9375C111.648 60.6149 110.484 61.1431 109.77 61.9711C106.415 63.2203 103.146 64.1625 99.5558 62.9205C97.4072 62.1782 95.7869 60.9076 94.3379 59.1945C96.3865 59.3515 97.9925 61.1003 100.048 60.8433C102.161 60.5792 103.974 62.0639 106.265 61.3573C108.178 60.7648 109.856 59.5728 111.983 58.9375H111.99Z" fill="#EEEEEE"/>
<path d="M153.853 99.0682C152.083 98.9254 150.527 99.9819 148.692 99.8605C146.572 99.7249 144.788 99.2681 143.475 97.4836C146.08 96.7626 150.142 97.405 153.832 99.0896L153.853 99.0682Z" fill="#EEEEEE"/>
<path d="M131.133 94.297C134.095 94.1256 136.522 95.8816 139.256 95.6032C139.306 96.474 138.763 96.6882 138.271 96.9237C137.757 97.1736 137.229 97.3948 136.529 97.7089C134.823 96.6882 131.925 97.559 131.133 94.297Z" fill="#EEEEEE"/>
<path d="M51.5371 60.1763C53.4144 60.1763 54.9277 60.1977 56.4481 60.1763C57.8899 60.1477 59.0249 61.3326 60.5453 61.1256C58.5038 63.2028 55.9627 62.0179 53.6785 62.3034C52.6506 62.4319 51.8869 61.9251 51.5371 60.1834V60.1763Z" fill="#EEEEEE"/>
<path d="M113.86 64.4082C117.172 64.4725 119.806 64.1584 122.397 64.6224C122.569 65.8215 121.926 66.3997 121.084 66.4497C118.714 66.5782 116.216 67.0065 113.853 64.4082H113.86Z" fill="#EEEEEE"/>
<path d="M93.0599 60.8717C89.3624 63.6199 87.0711 63.5913 83.6021 61.0645C86.6714 60.6576 89.5123 60.9074 93.0599 60.8717Z" fill="#EEEEEE"/>
<path d="M128.942 61.5618C129.941 61.1263 130.976 60.6766 132.197 60.1484C131.212 61.7711 129.758 62.9679 127.835 63.7389C126.829 63.3677 125.687 63.125 124.837 61.9044C126.251 61.3762 127.614 61.7473 128.935 61.5618H128.942Z" fill="#EEEEEE"/>
<path d="M166.338 46.5949C166.138 46.3879 166.024 46.3165 165.981 46.2166C165.789 45.7955 165.617 45.3672 165.439 44.9318C165.996 44.0181 166.724 43.6541 167.852 44.218C168.073 45.5242 166.938 45.8597 166.345 46.5949H166.338Z" fill="#EEEEEE"/>
<path d="M170.871 60.2043C172.42 60.4899 173.969 60.7754 175.703 61.0966C174.038 61.5344 172.436 61.2274 170.899 60.1758L170.871 60.2043Z" fill="#EEEEEE"/>
<path d="M111.71 39.2686C111.596 39.7325 111.303 40.0323 110.618 40.2108C110.468 40.0609 110.246 39.8325 109.961 39.5469C110.575 38.6761 111.146 38.9688 111.71 39.2686Z" fill="#EEEEEE"/>
<path d="M135.053 59.2232C134.631 59.0304 134.282 58.8163 134.26 58.2524C135.145 58.0811 135.431 58.3452 135.053 59.2232Z" fill="#EEEEEE"/>
<path d="M161.819 61.2715C162.126 60.9574 162.39 60.8432 162.711 61.1644C162.483 61.7426 162.176 61.4428 161.819 61.2715Z" fill="#EEEEEE"/>
<path d="M170.9 60.1403C170.728 60.0475 170.557 59.9476 170.386 59.8548C170.885 59.4408 170.743 60.0118 170.871 60.1689L170.9 60.1403Z" fill="#EEEEEE"/>
<path d="M94.5795 44.082L94.6651 44.3247L94.4438 44.2962L94.5795 44.082Z" fill="#EEEEEE"/>
<path d="M168.051 99.1396C168.144 98.9683 168.237 98.797 168.329 98.6328C168.736 99.1253 168.172 98.9826 168.022 99.1182L168.051 99.1467V99.1396Z" fill="#EEEEEE"/>
</g>
<defs>
<clipPath id="clip0_580_709">
<rect width="231" height="127" fill="white"/>
</clipPath>
</defs>
</svg>
