<svg width="216" height="207" viewBox="0 0 216 207" fill="none" xmlns="http://www.w3.org/2000/svg">
<g clip-path="url(#clip0_5527_1053)">
<rect width="216" height="206.929" fill="#151517"/>
<g clip-path="url(#clip1_5527_1053)">
<path d="M83.8692 96.7129C81.2115 96.7129 78.2447 97.7367 77.623 101.107C77.5567 101.465 77.7938 101.635 78.0227 101.688L80.7467 102.014C80.9988 102.002 81.1697 101.727 81.2185 101.469C81.4509 100.31 82.405 99.7622 83.4706 99.7622C84.0458 99.7622 84.692 99.9598 85.0324 100.489C85.4229 101.078 85.395 101.878 85.395 102.558V102.958C83.7762 103.144 81.645 103.257 80.1296 103.939C78.3807 104.716 77.1523 106.298 77.1523 108.623C77.1523 111.603 78.978 113.09 81.3289 113.09C83.3137 113.09 84.4107 112.624 85.9412 111.02C86.449 111.776 86.6117 112.119 87.5391 112.909C87.6416 112.967 87.76 112.992 87.8773 112.979C87.9946 112.966 88.1048 112.916 88.1922 112.837V112.873C88.75 112.364 89.7645 111.439 90.335 110.948C90.5628 110.758 90.5128 110.444 90.335 110.186C89.8249 109.463 89.2822 108.88 89.2822 107.535V103.068C89.2822 101.176 89.4426 99.4322 88.0841 98.1295C87.0115 97.0755 85.2265 96.7129 83.8692 96.7129V96.7129ZM120.475 96.7129C117.816 96.7129 114.852 97.7367 114.229 101.107C114.162 101.465 114.398 101.635 114.628 101.688L117.352 102.014C117.605 102.002 117.777 101.727 117.824 101.469C118.058 100.31 119.011 99.7622 120.076 99.7622C120.653 99.7622 121.298 99.9598 121.638 100.489C122.027 101.078 121.965 101.878 121.965 102.558V102.958C120.346 103.144 118.252 103.257 116.735 103.939C114.985 104.716 113.758 106.298 113.758 108.623C113.758 111.603 115.585 113.09 117.935 113.09C119.917 113.09 121.014 112.624 122.547 111.02C123.054 111.776 123.217 112.119 124.145 112.909C124.354 113.02 124.613 113.009 124.798 112.837V112.873C125.356 112.364 126.37 111.439 126.941 110.948C127.167 110.758 127.115 110.444 126.941 110.186C126.431 109.463 125.888 108.88 125.888 107.535V103.068C125.888 101.176 126.01 99.4322 124.654 98.1295C123.58 97.0755 121.832 96.7129 120.475 96.7129V96.7129ZM99.8839 96.8582C98.1663 96.8582 96.8927 97.7251 96.2164 99.5821H96.1803V97.6577C96.1711 97.5257 96.1145 97.4015 96.021 97.308C95.9275 97.2145 95.8033 97.1579 95.6713 97.1487H93.0566C92.9128 97.1508 92.7753 97.2089 92.6736 97.3106C92.5718 97.4124 92.5137 97.5498 92.5116 97.6937V112.401C92.524 112.532 92.5816 112.654 92.6745 112.747C92.7674 112.84 92.8898 112.898 93.0206 112.91H95.8166C95.9607 112.909 96.0984 112.851 96.2003 112.749C96.3022 112.647 96.3601 112.509 96.3616 112.365V104.557C96.3616 102.855 96.2791 100.526 98.286 100.526C100.267 100.526 99.9931 102.918 99.9931 104.557V112.365C99.9931 112.643 100.22 112.891 100.502 112.91H103.298C103.442 112.909 103.58 112.851 103.682 112.749C103.784 112.647 103.842 112.509 103.843 112.365V104.557C103.843 103.721 103.809 102.505 104.098 101.761C104.385 101.017 105.09 100.527 105.769 100.527C106.578 100.527 107.195 100.809 107.403 101.798C107.533 102.386 107.475 103.94 107.475 104.558V112.366C107.475 112.644 107.701 112.893 107.984 112.911H110.78C110.924 112.91 111.061 112.852 111.163 112.75C111.265 112.648 111.323 112.51 111.325 112.366V103.069C111.325 101.49 111.484 99.6971 110.598 98.4572C109.816 97.3439 108.538 96.8593 107.367 96.8593C105.723 96.8593 104.195 97.7262 103.518 99.5832C102.734 97.7262 101.631 96.8582 99.8839 96.8582V96.8582ZM147.421 96.8582C143.381 96.8582 141.139 100.411 141.139 104.993C141.139 109.543 143.356 113.199 147.421 113.199C151.332 113.199 153.813 109.627 153.813 105.137C153.813 100.497 151.565 96.8582 147.421 96.8582ZM163.363 96.8582C161.433 96.8582 160.33 97.8238 159.55 99.8354H159.514V97.5833C159.464 97.3555 159.249 97.1975 159.005 97.1835H156.426C156.293 97.1805 156.164 97.2272 156.063 97.3144C155.962 97.4016 155.897 97.5231 155.881 97.6553V112.363C155.884 112.5 155.937 112.632 156.031 112.733C156.125 112.833 156.253 112.896 156.39 112.908H159.15C159.294 112.906 159.432 112.848 159.533 112.746C159.635 112.644 159.693 112.507 159.695 112.363V104.447C159.695 103.454 159.779 102.549 160.167 101.651C160.481 100.938 161.086 100.489 161.765 100.489C163.692 100.489 163.508 102.837 163.508 104.447V112.436C163.526 112.561 163.586 112.676 163.679 112.762C163.772 112.848 163.891 112.899 164.017 112.908H166.813C167.087 112.908 167.326 112.699 167.358 112.436V103.175C167.358 101.752 167.362 99.7738 166.632 98.599C165.85 97.3311 164.612 96.8582 163.363 96.8582ZM129.808 97.1126C129.524 97.1126 129.3 97.3381 129.299 97.6577V99.7634C129.3 100.078 129.517 100.306 129.808 100.308H134.601L129.117 108.407C128.783 108.929 128.755 109.52 128.755 109.86V112.002C128.755 112.312 129.091 112.647 129.408 112.474C132.533 110.768 136.278 110.919 139.104 112.438C139.447 112.625 139.795 112.274 139.795 111.966V109.714C139.787 109.548 139.735 109.387 139.646 109.247C139.557 109.107 139.433 108.992 139.286 108.915C137.682 107.992 135.82 107.71 134.056 107.753L138.814 100.78C139.254 100.154 139.501 99.7761 139.504 99.4728V97.6577C139.504 97.3451 139.29 97.1126 138.995 97.1126H129.808V97.1126ZM147.421 99.8726C148.307 99.8726 148.96 100.268 149.274 101.289C149.636 102.466 149.673 103.936 149.673 105.175C149.673 107.062 149.585 110.186 147.421 110.186C145.233 110.186 145.242 106.319 145.242 104.521C145.242 102.728 145.362 99.8726 147.421 99.8726V99.8726ZM85.3578 105.247V105.864C85.3578 106.981 85.3985 107.921 84.8488 108.915C84.4049 109.722 83.7077 110.222 82.9244 110.222C81.8553 110.222 81.2173 109.355 81.2173 108.116C81.2185 105.674 83.3405 105.247 85.3578 105.247V105.247ZM121.964 105.247V105.864C121.964 106.981 122.004 107.921 121.455 108.915C121.011 109.722 120.317 110.222 119.53 110.222C118.46 110.222 117.823 109.355 117.823 108.116C117.824 105.674 119.944 105.247 121.964 105.247V105.247Z" fill="white"/>
<path d="M140.084 113.379V115.485H141.501V113.379H140.084ZM99.0113 113.741V128.739H100.319V127.396C100.598 127.928 100.915 128.327 101.299 128.594C101.683 128.861 102.123 128.994 102.607 128.994C103.567 128.994 104.395 128.503 105.112 127.505C105.829 126.507 106.202 125.06 106.202 123.219C106.202 122.014 106.048 121.016 105.73 120.169C105.413 119.324 104.989 118.695 104.459 118.281C103.929 117.866 103.327 117.627 102.68 117.627C102.23 117.623 101.788 117.749 101.409 117.99C101.031 118.232 100.725 118.626 100.428 119.116V113.741H99.0113ZM112.449 117.265C111.463 117.265 110.681 117.557 110.124 118.136C109.568 118.715 109.289 119.462 109.289 120.389C109.289 120.927 109.41 121.381 109.615 121.805C109.821 122.229 110.117 122.57 110.487 122.822C110.859 123.074 111.6 123.405 112.702 123.766C113.464 124.011 113.92 124.22 114.118 124.383C114.407 124.621 114.554 124.934 114.554 125.363C114.554 125.861 114.382 126.276 114.045 126.598C113.709 126.922 113.242 127.069 112.629 127.069C112.015 127.069 111.51 126.897 111.14 126.524C110.77 126.151 110.571 125.584 110.487 124.817L109.07 125.108C109.39 127.438 110.552 128.595 112.557 128.594C113.626 128.594 114.444 128.291 115.062 127.65C115.68 127.01 116.006 126.146 116.006 125.108C116.006 124.548 115.907 124.062 115.715 123.655C115.523 123.248 115.26 122.948 114.916 122.712C114.57 122.477 113.801 122.163 112.627 121.768C111.774 121.469 111.275 121.251 111.103 121.115C110.813 120.885 110.667 120.571 110.667 120.171C110.667 119.762 110.802 119.416 111.103 119.154C111.404 118.893 111.867 118.755 112.483 118.755C113.566 118.755 114.172 119.35 114.299 120.534L115.679 120.315C115.584 119.566 115.42 118.974 115.17 118.572C114.92 118.17 114.551 117.831 114.08 117.591C113.611 117.353 113.07 117.265 112.449 117.265V117.265ZM121.128 117.265C119.993 117.265 119.035 117.732 118.295 118.718C117.555 119.703 117.205 121.13 117.205 123.003C117.205 124.808 117.562 126.222 118.295 127.18C119.028 128.136 119.979 128.596 121.164 128.596C122.107 128.596 122.888 128.314 123.524 127.725C124.162 127.136 124.625 126.269 124.868 125.11L123.415 124.856C122.998 126.34 122.229 127.068 121.163 127.071C120.484 127.071 119.93 126.782 119.456 126.163C118.982 125.542 118.713 124.622 118.656 123.403H124.903V122.894C124.903 121.061 124.538 119.686 123.813 118.718C123.09 117.75 122.21 117.265 121.128 117.265ZM129.735 117.265C129.395 117.265 129.099 117.38 128.827 117.627C128.555 117.875 128.246 118.389 127.919 119.152V117.481H126.648V128.34H128.065V122.676C128.065 121.885 128.139 121.125 128.319 120.423C128.421 120.021 128.614 119.704 128.864 119.48C129.114 119.256 129.399 119.153 129.7 119.153C130.033 119.153 130.364 119.287 130.716 119.553L131.188 117.846C130.693 117.451 130.209 117.265 129.735 117.265V117.265ZM147.093 117.265C145.971 117.265 145.047 117.737 144.333 118.682C143.62 119.625 143.243 121.043 143.243 122.93C143.243 124.802 143.624 126.221 144.333 127.179C145.04 128.135 145.926 128.595 147.019 128.595C147.922 128.595 148.699 128.259 149.344 127.578C149.989 126.897 150.381 125.896 150.542 124.601L149.161 124.383C149.059 125.309 148.817 125.975 148.435 126.416C148.052 126.856 147.592 127.069 147.054 127.069C146.369 127.069 145.785 126.75 145.347 126.089C144.909 125.427 144.694 124.37 144.694 122.893C144.694 121.461 144.925 120.428 145.384 119.769C145.843 119.11 146.428 118.752 147.127 118.752C147.595 118.752 147.993 118.934 148.326 119.297C148.66 119.66 148.882 120.236 149.016 120.968L150.396 120.678C150.23 119.534 149.863 118.671 149.27 118.099C148.678 117.526 147.958 117.265 147.093 117.265V117.265ZM155.191 117.265C154.056 117.265 153.098 117.732 152.358 118.718C151.618 119.703 151.268 121.13 151.268 123.003C151.268 124.808 151.625 126.222 152.358 127.18C153.092 128.136 154.042 128.596 155.227 128.596C156.167 128.596 156.949 128.314 157.587 127.725C158.224 127.136 158.687 126.269 158.931 125.11L157.478 124.856C157.061 126.34 156.325 127.068 155.263 127.071C154.585 127.071 153.994 126.782 153.52 126.163C153.046 125.542 152.779 124.622 152.721 123.403H158.967V122.894C158.967 121.061 158.602 119.686 157.877 118.718C157.156 117.75 156.274 117.265 155.191 117.265ZM163.58 117.265C162.593 117.265 161.813 117.557 161.256 118.136C160.698 118.715 160.421 119.462 160.421 120.389C160.421 120.927 160.505 121.381 160.711 121.805C160.916 122.228 161.211 122.57 161.583 122.822C161.952 123.074 162.697 123.405 163.798 123.766C164.558 124.011 165.051 124.22 165.25 124.383C165.538 124.621 165.686 124.934 165.686 125.363C165.686 125.861 165.514 126.276 165.177 126.598C164.842 126.922 164.374 127.069 163.76 127.069C163.146 127.069 162.641 126.897 162.272 126.524C161.902 126.151 161.664 125.584 161.581 124.817L160.165 125.108C160.484 127.438 161.644 128.595 163.651 128.594C164.721 128.594 165.574 128.291 166.194 127.65C166.813 127.01 167.137 126.146 167.137 125.108C167.137 124.548 167.039 124.062 166.847 123.655C166.655 123.248 166.357 122.948 166.011 122.712C165.667 122.477 164.933 122.163 163.759 121.768C162.906 121.469 162.371 121.251 162.197 121.115C161.908 120.885 161.762 120.571 161.762 120.171C161.762 119.762 161.932 119.416 162.233 119.154C162.534 118.893 163 118.755 163.614 118.755C164.697 118.755 165.302 119.35 165.429 120.534L166.81 120.315C166.713 119.566 166.552 118.974 166.301 118.572C166.034 118.152 165.657 117.812 165.211 117.591C164.745 117.353 164.201 117.265 163.58 117.265V117.265ZM131.187 117.482L134.347 128.341H135.69L138.85 117.482H137.397L135.545 124.128C135.321 124.931 135.123 125.625 135 126.198C134.845 125.476 134.698 124.719 134.491 123.983L132.676 117.482H131.187ZM140.084 117.482V128.341H141.501V117.482H140.084ZM93.5286 117.627C92.4049 117.627 91.5008 118.132 90.7686 119.116C90.0354 120.102 89.6426 121.529 89.6426 123.402C89.6426 125.207 90.0051 126.585 90.7326 127.541C91.4601 128.498 92.4281 128.994 93.6018 128.994C94.5338 128.994 95.295 128.675 95.926 128.086C96.5558 127.497 96.9916 126.63 97.2333 125.472L95.8167 125.253C95.4042 126.737 94.6547 127.466 93.6018 127.468C92.929 127.468 92.3642 127.18 91.8947 126.56C91.4252 125.94 91.1521 125.02 91.0952 123.8H97.2682L97.3042 123.291C97.3042 121.459 96.9323 120.047 96.2142 119.079C95.496 118.111 94.5989 117.627 93.5286 117.627V117.627ZM77.5859 117.882L80.1286 128.741H81.6172L83.2883 120.387L83.5788 122.24L84.9222 128.741H86.3748L88.9535 117.882H87.6101L86.1935 124.164L85.7217 126.27L85.2859 124.164L84.0518 117.882H82.5992L81.2918 124.237L80.856 126.49L80.3471 124.165L79.0397 117.883H77.5859V117.882ZM167.974 117.991V118.5H169.355V122.132H169.9V118.5H171.28V117.991H167.974ZM171.824 117.991V122.131H172.333V118.608L173.531 122.131H174.04L175.238 118.68V122.131H175.783V117.991H175.021L174.04 120.896C173.941 121.187 173.871 121.397 173.822 121.55L173.603 120.932L172.622 117.991H171.824V117.991ZM121.091 118.754C121.796 118.754 122.377 119.095 122.834 119.77C123.148 120.233 123.351 120.937 123.415 121.876H118.731C118.775 120.923 119.045 120.188 119.493 119.624C119.942 119.06 120.458 118.754 121.091 118.754V118.754ZM155.155 118.754C155.858 118.754 156.442 119.095 156.898 119.77C157.212 120.233 157.415 120.937 157.479 121.876H152.795C152.839 120.923 153.109 120.188 153.557 119.624C154.005 119.063 154.521 118.754 155.155 118.754V118.754ZM93.5286 119.153C94.2258 119.153 94.786 119.495 95.2357 120.17C95.546 120.633 95.7528 121.337 95.8167 122.276H91.2044C91.2486 121.323 91.4845 120.551 91.9307 119.988C92.3735 119.425 92.8999 119.153 93.5286 119.153ZM102.535 119.153C103.165 119.153 103.7 119.503 104.133 120.17C104.565 120.838 104.75 121.868 104.75 123.294C104.75 124.683 104.545 125.718 104.097 126.418C103.648 127.117 103.113 127.47 102.535 127.47C102.109 127.47 101.722 127.327 101.373 127.035C101.022 126.742 100.765 126.322 100.573 125.763C100.381 125.204 100.283 124.344 100.283 123.221C100.283 121.897 100.519 120.906 100.973 120.206C101.427 119.507 101.956 119.153 102.535 119.153Z" fill="white"/>
<path d="M57.2314 107.641L51.8207 109.965L56.8317 112.108L62.6421 109.965L57.2314 107.641V107.641ZM49.0968 110.546L48.9155 121.005L56.8317 124.491V113.633L49.0968 110.546V110.546ZM65.366 110.546L58.2122 113.27V123.51L65.366 120.605V110.546V110.546ZM73.9004 78.0078L68.4525 80.332L73.5006 82.4749L79.311 80.332L73.9004 78.0078V78.0078ZM66.3468 81.0955V91.5542L73.1009 93.5158L73.3193 84.0007L66.3468 81.0955ZM81.4539 81.6765L75.0625 84.4004V94.6779L81.4539 91.7727V81.6765V81.6765ZM48.3159 92.728L42.9052 95.0521L47.9161 97.195L53.7266 95.0521L48.3159 92.728V92.728ZM40.1813 95.6332L40 106.092L47.9161 109.578V98.7197L40.1813 95.6332V95.6332ZM56.4505 95.6332L49.2967 98.3571V108.597L56.4505 105.692V95.6332V95.6332ZM65.7472 92.3421L60.3365 94.6663L65.3474 96.8092L71.1578 94.6663L65.7472 92.3421V92.3421ZM57.6126 95.2474L57.4313 105.706L65.3474 109.192V98.335L57.6126 95.2474V95.2474ZM73.8818 95.2474L66.728 97.9713V108.212L73.8818 105.306V95.2474ZM90.9261 78.0078L85.5154 80.332L90.5263 82.4749L96.3368 80.332L90.9261 78.0078V78.0078ZM82.7915 80.913L82.6102 91.3718L90.5263 94.8581V84.0007L82.7915 80.913V80.913ZM99.0607 80.913L91.9069 83.637V93.8773L99.0607 90.972V80.913V80.913Z" fill="white"/>
</g>
</g>
<defs>
<clipPath id="clip0_5527_1053">
<rect width="216" height="206.929" fill="white"/>
</clipPath>
<clipPath id="clip1_5527_1053">
<rect width="135.783" height="51" fill="white" transform="translate(40 78)"/>
</clipPath>
</defs>
</svg>
