<svg width="216" height="207" viewBox="0 0 216 207" fill="none" xmlns="http://www.w3.org/2000/svg">
<g clip-path="url(#clip0_5527_1116)">
<rect width="216" height="206.929" fill="#151517"/>
<g clip-path="url(#clip1_5527_1116)">
<rect x="76.8047" y="62.3789" width="62.0266" height="62.0266" rx="4.13511" fill="white"/>
<path d="M127.94 89.8389C127.909 89.2899 127.669 88.7736 127.269 88.3964C126.296 87.5242 125.222 86.8196 124.182 86.0481C123.914 85.8782 123.698 85.6386 123.556 85.3549C123.414 85.0711 123.352 84.7541 123.377 84.4379C123.476 83.3218 123.476 82.1992 123.377 81.0831C123.379 80.4944 123.151 79.9282 122.74 79.5064C120.022 77.6278 117.205 75.8497 114.387 74.1053C114.143 73.998 113.881 73.9427 113.615 73.9427C113.349 73.9427 113.086 73.998 112.843 74.1053C111.434 74.9104 110.126 75.8833 108.717 76.6885C108.523 76.7808 108.311 76.8287 108.096 76.8287C107.882 76.8287 107.67 76.7808 107.476 76.6885C106.1 75.8833 104.792 75.011 103.484 74.1053C103.211 73.8758 102.867 73.75 102.511 73.75C102.155 73.75 101.81 73.8758 101.538 74.1053C99.6104 75.4929 97.6056 76.7698 95.533 77.9297C94.5051 78.3232 93.6571 79.0802 93.15 80.0571C92.643 81.034 92.5122 82.163 92.7821 83.2301C92.7989 83.3974 92.7989 83.566 92.7821 83.7333C92.8986 84.2283 92.8462 84.7482 92.6334 85.2101C92.4207 85.672 92.0597 86.0496 91.6078 86.2829C90.6229 86.8793 89.711 87.5886 88.8905 88.3964C88.5174 88.7481 88.29 89.2269 88.2531 89.7383C88.2531 91.6505 88.2531 93.5962 88.2531 95.4748C88.0723 96.4334 88.2106 97.4248 88.6468 98.2973C89.0831 99.1698 89.7933 99.8752 90.6686 100.306C92.2118 101.178 93.5871 102.319 92.8491 104.432V106.378C92.8433 106.749 92.9407 107.115 93.1302 107.435C93.3197 107.755 93.5938 108.016 93.9226 108.189C96.5728 109.699 99.2232 111.242 101.806 112.852C102.271 113.258 102.867 113.482 103.484 113.482C104.101 113.482 104.696 113.258 105.161 112.852C105.664 112.416 106.335 112.181 106.872 111.779C107.213 111.46 107.663 111.283 108.13 111.283C108.597 111.283 109.046 111.46 109.388 111.779C110.059 112.316 110.898 112.651 111.636 113.154C111.958 113.416 112.361 113.558 112.776 113.558C113.191 113.558 113.594 113.416 113.917 113.154C116.668 111.51 119.385 109.8 122.17 108.357C122.593 108.147 122.942 107.813 123.17 107.399C123.397 106.986 123.493 106.512 123.444 106.042C123.444 104.902 123.444 103.795 123.444 102.688C123.495 102.281 123.699 101.909 124.015 101.648C125.088 100.708 126.262 99.8695 127.369 98.9302C127.742 98.5785 127.97 98.0997 128.007 97.5883C128.007 95.0052 128.007 92.4221 128.007 89.8054L127.94 89.8389ZM106.905 108.76C106.234 109.229 105.564 109.732 104.859 110.135L104.591 110.303L104.356 110.47C104.122 110.63 103.86 110.744 103.584 110.806C103.399 110.867 103.199 110.867 103.014 110.806L102.678 110.605C102.288 110.294 101.86 110.035 101.404 109.833L102.746 109.062L104.088 108.29C104.294 108.18 104.485 108.045 104.658 107.887C104.794 107.766 104.901 107.616 104.971 107.447C105.04 107.279 105.071 107.096 105.06 106.914C105.089 106.748 105.089 106.578 105.06 106.411C104.964 106.255 104.839 106.118 104.691 106.009C104.549 105.919 104.389 105.862 104.222 105.841C103.798 105.82 103.378 105.925 103.014 106.143C102.008 106.713 100.968 107.25 100.028 107.887C99.7337 108.097 99.3833 108.214 99.0218 108.223H98.5521L98.0824 107.921C97.8381 107.683 97.5385 107.51 97.2104 107.418C96.6887 107.211 96.2273 106.876 95.8684 106.445C95.7195 106.221 95.6168 105.97 95.5664 105.707C95.5138 105.385 95.5138 105.056 95.5664 104.734C95.576 104.307 95.6671 103.886 95.8348 103.493C96.0258 103.121 96.3489 102.834 96.7407 102.688L98.2503 101.882L99.7264 101.01C99.8865 100.906 100.033 100.782 100.162 100.641C100.318 100.433 100.401 100.18 100.401 99.9199C100.401 99.66 100.318 99.4071 100.162 99.1986C99.9693 98.9198 99.6843 98.7178 99.3572 98.6283C99.2049 98.5771 99.0401 98.5771 98.8877 98.6283C98.7032 98.6639 98.5303 98.7446 98.3844 98.8631L97.1096 99.5341L95.902 100.272L95.4994 100.507C95.3787 100.564 95.247 100.593 95.1137 100.593C94.9803 100.593 94.8484 100.564 94.7277 100.507C94.5724 100.454 94.4336 100.362 94.3251 100.239C93.9579 99.8759 93.5656 99.5396 93.1511 99.2322C92.7587 98.9222 92.3438 98.6419 91.9098 98.3935C91.6482 98.2258 91.411 98.0225 91.2053 97.7896C90.917 97.3543 90.7868 96.8333 90.8363 96.3135C90.8198 96.1798 90.8198 96.0446 90.8363 95.911C90.8184 95.7661 90.8184 95.6197 90.8363 95.4748L92.8491 94.3008L94.862 93.1266C95.1264 93.0178 95.3514 92.8311 95.5072 92.5915C95.663 92.3518 95.7422 92.0705 95.7343 91.7847C95.781 91.6316 95.781 91.4681 95.7343 91.315C95.6374 91.1504 95.5064 91.0085 95.3502 90.8985C95.1939 90.7886 95.0161 90.7133 94.8284 90.6776C94.4594 90.672 94.0971 90.7771 93.7885 90.9795L91.0712 92.5562C91.0432 92.2438 91.0432 91.9294 91.0712 91.6169C91.0361 91.3385 91.0361 91.0567 91.0712 90.7782C91.1655 90.4998 91.3152 90.2434 91.5112 90.0243C91.7072 89.8053 91.9454 89.6281 92.2116 89.5034C92.9894 88.9864 93.7294 88.4148 94.4259 87.7926L97.5458 89.9731C97.6594 90.0493 97.7518 90.1532 97.8142 90.275C97.8487 90.3956 97.8487 90.5235 97.8142 90.6441C97.8981 91.6264 97.8981 92.6139 97.8142 93.5962C97.8051 93.6937 97.7765 93.7884 97.7304 93.8748C97.6844 93.9612 97.6216 94.0376 97.5458 94.0995C97.3977 94.2538 97.2408 94.3993 97.076 94.5355L94.5264 96.2129C94.3737 96.2891 94.2389 96.3969 94.1308 96.529C94.0228 96.6612 93.9438 96.8147 93.8995 96.9796C93.8551 97.1444 93.8463 97.3168 93.8735 97.4853C93.9006 97.6539 93.9631 97.8148 94.0569 97.9574C94.1781 98.1854 94.3751 98.3639 94.6141 98.4619C94.853 98.5599 95.1187 98.5713 95.3651 98.4942C95.5345 98.4624 95.6949 98.3936 95.8348 98.2929C96.8412 97.7226 97.7805 97.018 98.7534 96.4477C98.8968 96.4135 99.0462 96.4135 99.1895 96.4477C99.3419 96.3966 99.5069 96.3966 99.6592 96.4477L100.464 96.8168C100.849 96.9809 101.21 97.1952 101.538 97.4542C101.664 97.5398 101.768 97.6549 101.84 97.7896C102.166 98.5855 102.293 99.4494 102.209 100.306C102.313 100.829 102.215 101.372 101.935 101.827C101.655 102.281 101.214 102.612 100.699 102.755L99.6257 103.325L98.5857 103.929C98.4255 103.992 98.2812 104.089 98.1627 104.214C98.0442 104.338 97.9544 104.488 97.9 104.651C97.8456 104.814 97.8278 104.987 97.8478 105.158C97.8677 105.329 97.925 105.493 98.0155 105.64C98.0763 105.795 98.1761 105.932 98.3054 106.038C98.4347 106.144 98.5889 106.215 98.7534 106.244H99.2903C99.4897 106.207 99.6821 106.139 99.8605 106.042L106.235 102.486L107.107 102.05V108.625L106.905 108.76ZM125.792 96.9174C124.585 95.9781 123.109 95.7768 122.438 94.3342C122.203 93.9184 121.825 93.6032 121.373 93.4486C120.921 93.2939 120.429 93.3107 119.989 93.4956C119.581 93.6626 119.236 93.9529 119.001 94.3258C118.767 94.6988 118.655 95.1357 118.68 95.5755C118.801 96.0319 119.059 96.4404 119.419 96.7463C119.779 97.0521 120.223 97.2406 120.693 97.2864C121.804 97.5623 122.867 98.0034 123.847 98.5948C122.831 98.988 121.997 99.7446 121.507 100.718C121.018 101.691 120.907 102.811 121.197 103.862C121.385 104.551 121.298 105.287 120.953 105.913C120.609 106.539 120.035 107.006 119.351 107.216C117.406 108.189 115.594 109.397 113.716 110.403C113.521 110.494 113.309 110.54 113.095 110.54C112.881 110.54 112.669 110.494 112.474 110.403C111.501 109.934 110.26 109.531 109.757 108.726C109.254 107.921 109.757 106.646 109.757 105.606V104.398C111.099 104.398 112.374 104.096 113.581 104.935C113.978 105.174 114.45 105.255 114.904 105.162C115.358 105.068 115.76 104.808 116.03 104.432C116.291 104.096 116.433 103.683 116.433 103.258C116.433 102.833 116.291 102.419 116.03 102.084C115.773 101.713 115.394 101.443 114.96 101.321C114.525 101.198 114.062 101.231 113.648 101.413C112.407 102.251 111.099 101.782 109.656 101.95V98.5948C109.656 97.32 109.656 96.0452 109.656 94.8039C109.607 94.2888 109.368 93.8103 108.985 93.4621C108.175 92.8454 107.323 92.285 106.436 91.7847C105.664 91.2815 104.825 91.3486 104.456 91.9524C104.366 92.123 104.312 92.3102 104.297 92.5026C104.282 92.695 104.307 92.8885 104.37 93.0709C104.433 93.2533 104.532 93.4208 104.663 93.5631C104.793 93.7054 104.951 93.8194 105.127 93.8981C105.878 94.171 106.506 94.7028 106.9 95.3976C107.294 96.0925 107.426 96.905 107.275 97.689C107.275 98.4605 107.04 98.9973 106.302 99.2993C105.785 99.5421 105.281 99.8108 104.792 100.104C104.792 98.8631 104.792 97.7896 104.792 96.7496C104.708 96.2146 104.42 95.7332 103.987 95.4078C103.081 94.8039 102.075 94.4013 101.135 93.8981C100.901 93.8981 100.565 93.4956 100.565 93.2943C100.565 92.2879 100.565 91.2479 100.565 90.2415C100.565 90.0402 100.867 89.8054 101.068 89.6712C102.041 89.1009 103.048 88.4971 104.054 87.9939C104.387 87.8563 104.673 87.624 104.875 87.3259C105.078 87.0279 105.189 86.6769 105.194 86.3165C105.194 84.7398 105.194 83.1631 105.194 81.6199C105.194 80.9825 104.993 80.3115 104.289 80.2109C104.083 80.1752 103.872 80.1837 103.669 80.2358C103.467 80.2878 103.278 80.3822 103.115 80.5128C102.853 80.8485 102.712 81.2617 102.712 81.687C102.712 82.8611 102.712 84.0688 102.712 85.243C102.666 85.581 102.499 85.8909 102.242 86.1152C101.475 86.6075 100.679 87.0555 99.8605 87.4571C99.6017 87.5581 99.3143 87.5581 99.0554 87.4571C98.8426 87.3541 98.6404 87.2304 98.4516 87.088C97.4789 86.7569 96.6647 86.0748 96.1684 85.1752C95.672 84.2755 95.5291 83.2231 95.7676 82.2237C95.7986 81.8483 95.9221 81.4864 96.127 81.1703C96.3319 80.8542 96.6119 80.5937 96.9419 80.4122C97.2774 80.1773 97.6799 79.9761 98.1496 79.7077V83.9347C98.1496 84.8069 98.485 85.3101 99.3908 85.2765C99.563 85.2833 99.7346 85.2519 99.8933 85.1849C100.052 85.1179 100.194 85.0168 100.309 84.8887C100.425 84.7607 100.51 84.6088 100.56 84.4439C100.61 84.279 100.623 84.1052 100.598 83.9347C100.598 82.2238 100.598 80.5798 100.598 78.8018C100.598 77.0238 101.773 77.3929 102.511 76.8562C103.249 76.3194 103.45 76.8561 103.819 77.0574C104.993 77.7619 106.603 78.3323 107.174 79.4058C107.744 80.4793 107.342 82.1901 107.375 83.6327C107.409 85.0752 107.375 86.9875 107.375 88.5306C107.323 88.849 107.377 89.1755 107.529 89.4602C107.68 89.745 107.921 89.9723 108.214 90.1074C108.974 90.4721 109.704 90.8984 110.394 91.3821C110.91 91.7799 111.372 92.2421 111.77 92.7575C112.053 93.1383 112.446 93.4229 112.896 93.573C113.346 93.723 113.831 93.731 114.286 93.5962C114.682 93.4358 115.018 93.1555 115.246 92.7945C115.475 92.4335 115.585 92.01 115.561 91.5834C115.519 91.1059 115.299 90.6615 114.944 90.3384C114.59 90.0153 114.128 89.8371 113.648 89.8389C112.508 89.8389 111.87 89.2016 110.998 88.8325C110.583 88.7074 110.228 88.4318 110.005 88.0596C109.782 87.6874 109.705 87.2453 109.791 86.8197C109.791 84.6056 109.791 82.3914 109.791 80.1102C109.764 79.8512 109.817 79.5903 109.943 79.3624C110.069 79.1345 110.261 78.9505 110.495 78.8354C111.568 78.198 112.541 77.46 113.581 76.8562C113.763 76.7647 113.965 76.717 114.168 76.717C114.372 76.717 114.573 76.7647 114.756 76.8562C116.835 78.1309 118.882 79.5064 120.928 80.8819C121.163 80.8819 121.23 81.3515 121.364 81.5863C121.498 81.8212 120.861 81.8882 120.593 81.8882C119.351 81.8882 118.077 81.8882 116.802 81.8882C116.376 81.8608 115.968 81.7092 115.628 81.4521C115.236 81.1714 114.756 81.0407 114.276 81.0838C113.796 81.1268 113.347 81.3409 113.011 81.687C112.71 81.9917 112.519 82.3888 112.471 82.8147C112.422 83.2405 112.518 83.6704 112.743 84.0353C112.959 84.452 113.323 84.7727 113.764 84.9341C114.205 85.0955 114.69 85.086 115.124 84.9075C117.137 83.834 119.184 84.7062 121.499 84.2366C120.794 86.3501 122.102 87.1887 123.31 88.0609C123.724 88.4145 124.161 88.7395 124.618 89.0338C125.135 89.3143 125.549 89.7509 125.802 90.2812C126.055 90.8115 126.134 91.4082 126.027 91.986C126.027 93.5963 126.027 95.3407 126.027 97.0181" fill="#151517"/>
<path d="M141.901 132.203V141.395H140.123V135.557C139.62 136.53 139.083 137.47 138.681 138.476C138.278 139.482 138.01 139.113 137.507 139.08C137.003 139.046 136.467 139.08 136.198 138.476C135.749 137.419 135.199 136.408 134.554 135.457V141.261H132.676V139.483C132.676 137.235 132.676 134.954 132.676 132.773C132.676 132.27 132.676 132.069 133.347 132.102C133.625 132.137 133.907 132.137 134.185 132.102C134.789 132.102 135.091 132.303 135.326 132.807C135.997 134.316 136.701 135.759 137.439 137.335C138.144 135.859 138.849 134.517 139.452 133.108C139.788 132.337 140.257 131.934 141.096 132.102H142.069" fill="white"/>
<path d="M63.2634 141.326H61.2171V137.166C61.2171 135.959 60.6804 135.589 59.5733 136.059C59.4499 136.149 59.3471 136.265 59.2719 136.398C59.1967 136.531 59.1508 136.678 59.1372 136.831C59.1372 138.307 59.1372 139.749 59.1372 141.292H57.1914V134.583C57.7953 134.583 58.5334 134.113 58.9359 135.086C60.5462 134.113 62.0558 134.013 62.8945 135.086C63.7095 134.809 64.538 134.574 65.3769 134.382C65.6543 134.346 65.9363 134.372 66.2021 134.459C66.4679 134.546 66.7109 134.692 66.9134 134.885C67.116 135.077 67.2729 135.313 67.3727 135.574C67.4725 135.836 67.5127 136.116 67.4904 136.395C67.4904 138.038 67.4904 139.749 67.4904 141.326H65.4777V137.334C65.4777 136.059 64.6389 135.556 63.5319 136.227C63.3641 136.227 63.297 136.629 63.2634 136.864V141.393" fill="white"/>
<path d="M121.535 134.951C122.038 134.213 122.742 134.682 123.481 134.515V135.555C123.481 137.467 123.481 139.379 123.313 141.291C123.145 143.203 121.266 144.243 119.556 144.176H118.952C117.509 143.975 117.408 143.841 117.576 142.365L119.22 142.734C119.502 142.842 119.808 142.87 120.105 142.816C120.402 142.762 120.678 142.627 120.903 142.426C121.129 142.225 121.294 141.965 121.382 141.677C121.47 141.388 121.476 141.08 121.401 140.788C120.887 140.958 120.359 141.082 119.824 141.157C119.222 141.236 118.612 141.083 118.119 140.727C117.626 140.372 117.288 139.841 117.174 139.245C116.744 138.168 116.744 136.967 117.174 135.89C117.331 135.49 117.582 135.134 117.906 134.851C118.23 134.569 118.617 134.368 119.034 134.266C119.452 134.164 119.888 134.164 120.305 134.266C120.723 134.367 121.11 134.568 121.434 134.85L121.535 134.951ZM121.434 137.735C121.401 137.445 121.401 137.153 121.434 136.863C121.47 136.733 121.476 136.597 121.451 136.465C121.426 136.333 121.371 136.209 121.289 136.101C121.208 135.994 121.103 135.907 120.983 135.847C120.863 135.787 120.73 135.756 120.596 135.756C120.319 135.672 120.021 135.69 119.756 135.807C119.491 135.924 119.277 136.132 119.153 136.393C118.938 136.808 118.826 137.268 118.826 137.735C118.826 138.202 118.938 138.662 119.153 139.077C119.297 139.307 119.515 139.482 119.77 139.573C120.026 139.664 120.305 139.667 120.562 139.58C121.199 139.58 121.468 139.144 121.367 138.507C121.35 138.25 121.35 137.992 121.367 137.735" fill="white"/>
<path d="M56.2513 141.291H54.0707C53.8358 140.653 53.7688 139.647 53.3327 139.412C52.5447 139.275 51.7388 139.275 50.9508 139.412C50.4811 139.412 50.2463 139.412 50.1457 140.016C49.7431 141.492 49.7095 141.459 48.1999 141.459H47.5625L49.1057 136.963C49.609 135.554 50.1457 134.179 50.5818 132.736C50.6214 132.565 50.7207 132.413 50.8621 132.309C51.0036 132.204 51.1779 132.153 51.3534 132.166C52.9301 132.166 52.9637 132.166 53.5004 133.609C54.4398 136.192 55.3456 138.775 56.2513 141.425V141.291ZM52.8966 137.835C52.494 136.628 52.1585 135.554 51.7895 134.279L50.7159 137.835H52.8966Z" fill="white"/>
<path d="M102.215 139.648C103.188 139.648 104.194 139.883 105.2 139.917C106.207 139.95 106.609 139.481 106.442 138.742C106.289 138.363 106.002 138.053 105.637 137.87C104.764 137.434 103.825 137.132 102.986 136.629C102.631 136.346 102.356 135.975 102.19 135.552C102.024 135.129 101.973 134.67 102.041 134.221C102.109 133.772 102.294 133.348 102.578 132.994C102.862 132.639 103.234 132.366 103.657 132.201C104.952 131.699 106.388 131.699 107.683 132.201C107.778 132.248 107.859 132.319 107.918 132.407C107.977 132.496 108.012 132.598 108.019 132.704C108.052 133.061 108.052 133.42 108.019 133.777C107.119 133.646 106.211 133.579 105.301 133.576C105.069 133.583 104.842 133.644 104.638 133.754C104.434 133.865 104.259 134.022 104.127 134.214C103.859 134.784 104.362 135.153 104.899 135.354L107.046 136.226C107.567 136.408 108.009 136.764 108.297 137.235C108.585 137.707 108.7 138.263 108.622 138.81C108.581 139.453 108.318 140.063 107.877 140.534C107.437 141.005 106.846 141.308 106.207 141.393C105.194 141.527 104.167 141.527 103.154 141.393C101.913 141.191 101.879 140.99 102.181 139.682" fill="white"/>
<path d="M158.071 141.326H155.891C155.649 141.266 155.435 141.123 155.287 140.923L153.173 138.307V141.292H151.328V131.463H153.106V137.166C153.691 136.514 154.239 135.831 154.75 135.12C154.888 134.887 155.094 134.702 155.339 134.588C155.585 134.474 155.859 134.437 156.125 134.482H157.702L154.918 137.837L157.903 141.359" fill="white"/>
<path d="M85.9758 134.247C86.4588 134.243 86.9372 134.342 87.3782 134.539C87.8192 134.737 88.2122 135.027 88.5308 135.39C88.8493 135.753 89.0856 136.181 89.2237 136.643C89.3617 137.106 89.3982 137.594 89.3305 138.072C89.0957 140.621 88.0893 141.427 85.9758 141.427C83.8623 141.427 82.6211 140.286 82.6211 137.736C82.6211 135.187 83.8959 134.382 85.9758 134.113V134.247ZM87.2506 137.871V137.032C87.2463 136.869 87.2098 136.708 87.1433 136.559C87.0769 136.41 86.9818 136.276 86.8634 136.164C86.745 136.052 86.6056 135.964 86.4533 135.906C86.301 135.847 86.1388 135.82 85.9758 135.824C85.8161 135.815 85.6562 135.839 85.5059 135.894C85.3556 135.948 85.218 136.033 85.1017 136.143C84.9855 136.253 84.893 136.386 84.8298 136.533C84.7666 136.68 84.7343 136.838 84.7346 136.998C84.6843 137.567 84.6843 138.14 84.7346 138.709C84.7346 139.481 85.2043 139.816 86.043 139.816C86.1972 139.821 86.3507 139.795 86.4949 139.74C86.639 139.685 86.7709 139.602 86.8831 139.496C86.9953 139.39 87.0854 139.263 87.1485 139.123C87.2115 138.982 87.2463 138.83 87.2506 138.676V137.871Z" fill="white"/>
<path d="M97.1788 141.292H95.1325C95.1325 139.816 95.1325 138.373 95.1325 136.931C95.1325 136.26 94.8978 135.924 94.1933 135.958C93.4888 135.991 92.8849 136.126 92.8849 136.964V141.292H90.9727V134.582C91.6101 134.75 92.3482 134.213 92.7508 135.085C93.4182 134.828 94.1017 134.616 94.7971 134.448C95.1005 134.348 95.4244 134.327 95.7381 134.387C96.0519 134.447 96.3452 134.586 96.5903 134.791C96.8355 134.995 97.0244 135.259 97.1391 135.558C97.2538 135.856 97.2906 136.178 97.246 136.494V141.325" fill="white"/>
<path d="M72.8586 140.89C72.4015 141.29 71.8264 141.529 71.2207 141.572C70.6151 141.614 70.0122 141.457 69.5039 141.125C69.2006 140.854 68.9824 140.5 68.8753 140.107C68.7681 139.715 68.7767 139.299 68.9 138.911C69.6381 137.133 71.1477 137.2 72.6573 137.402C72.9928 136.127 72.6574 135.758 71.4497 135.825C71.1142 135.825 70.7451 135.825 70.3761 135.825L69.4033 136.026C69.1685 134.449 69.2021 134.651 70.913 134.282C71.5813 134.198 72.2574 134.198 72.9257 134.282C73.1533 134.282 73.3785 134.327 73.5883 134.415C73.7981 134.503 73.9882 134.632 74.1475 134.795C74.3068 134.957 74.4323 135.15 74.5163 135.361C74.6003 135.573 74.6411 135.799 74.6367 136.026C74.6367 137.704 74.6367 139.381 74.6367 141.159C74.0664 141.159 73.3618 141.561 72.8586 140.756V140.89ZM72.6909 138.441C71.6509 138.441 70.8793 138.441 70.7787 138.878C70.678 139.314 70.7787 139.783 70.9799 139.817C71.4171 139.951 71.8847 139.951 72.3219 139.817C73.06 139.582 72.6909 138.945 72.6909 138.441" fill="white"/>
<path d="M147.261 137.4C147.428 136.024 146.925 135.588 145.617 135.823L143.939 136.159C143.671 134.515 143.939 134.817 145.348 134.414C146.093 134.297 146.851 134.297 147.596 134.414C147.816 134.427 148.032 134.483 148.231 134.58C148.429 134.676 148.607 134.811 148.753 134.976C148.9 135.141 149.012 135.334 149.084 135.542C149.156 135.751 149.186 135.972 149.173 136.192C149.173 137.064 149.173 137.903 149.173 138.775V141.359C148.502 141.157 147.764 141.694 147.294 140.889C146.829 141.278 146.25 141.505 145.645 141.536C145.039 141.566 144.44 141.398 143.939 141.057C143.653 140.774 143.454 140.415 143.365 140.023C143.276 139.631 143.301 139.221 143.436 138.843C144.174 137.132 145.684 137.232 147.227 137.4H147.261ZM146.59 138.507C145.684 138.507 145.214 138.809 145.214 139.346C145.203 139.466 145.219 139.587 145.261 139.7C145.303 139.814 145.37 139.916 145.457 139.999C145.544 140.083 145.649 140.146 145.764 140.184C145.878 140.222 146 140.234 146.12 140.218C146.41 140.229 146.694 140.133 146.917 139.947C147.14 139.761 147.286 139.499 147.327 139.211C147.327 138.608 147.093 138.373 146.59 138.507Z" fill="white"/>
<path d="M113.55 137.4C113.55 135.957 113.148 135.555 111.84 135.823L110.196 136.159C109.961 134.548 109.994 134.817 111.638 134.414C112.372 134.297 113.119 134.297 113.853 134.414C114.283 134.455 114.684 134.651 114.981 134.966C115.277 135.281 115.448 135.693 115.463 136.125C115.463 136.997 115.463 137.836 115.463 138.708V141.325C114.792 141.325 114.087 141.694 113.584 140.855C113.127 141.255 112.552 141.494 111.946 141.536C111.341 141.579 110.738 141.422 110.229 141.09C109.948 140.818 109.743 140.475 109.637 140.098C109.531 139.721 109.527 139.322 109.626 138.943C110.364 137.131 111.907 137.232 113.517 137.4H113.55ZM113.517 139.178C113.517 138.641 113.517 138.507 112.846 138.507C112.175 138.507 111.437 138.742 111.404 139.312C111.389 139.429 111.4 139.547 111.436 139.659C111.471 139.771 111.531 139.874 111.611 139.961C111.691 140.047 111.789 140.115 111.898 140.159C112.007 140.204 112.125 140.224 112.242 140.218C112.395 140.236 112.549 140.224 112.697 140.181C112.845 140.139 112.982 140.066 113.101 139.969C113.22 139.872 113.319 139.752 113.39 139.616C113.461 139.48 113.504 139.331 113.517 139.178Z" fill="white"/>
<path d="M130.689 141.323C129.661 141.39 128.63 141.39 127.602 141.323C127.166 141.254 126.747 141.099 126.37 140.868C125.994 140.636 125.667 140.332 125.408 139.974C125.149 139.615 124.964 139.209 124.863 138.778C124.761 138.348 124.746 137.902 124.818 137.466C124.82 136.859 124.986 136.264 125.299 135.744C125.612 135.224 126.06 134.799 126.596 134.513C127.126 134.254 127.716 134.139 128.305 134.18C128.894 134.221 129.462 134.417 129.951 134.748C131.058 135.52 130.923 136.795 130.823 138.103C130.823 138.103 130.42 138.472 130.219 138.472H126.864C126.892 138.74 126.978 138.998 127.118 139.228C127.258 139.458 127.447 139.654 127.672 139.802C127.897 139.95 128.151 140.045 128.418 140.082C128.685 140.119 128.956 140.096 129.213 140.015L130.756 139.68L130.689 141.323ZM126.697 137.197H129.145C129.145 136.459 129.146 135.922 128.34 135.822C127.535 135.721 126.999 135.822 126.697 137.197Z" fill="white"/>
<path d="M159.843 138.508C160.112 140.018 160.615 140.152 163.802 139.783V141.058C162.704 141.575 161.466 141.716 160.279 141.461C159.687 141.327 159.153 141.007 158.754 140.549C158.356 140.09 158.115 139.516 158.065 138.911C157.996 138.045 158.064 137.173 158.267 136.328C158.498 135.699 158.927 135.163 159.49 134.8C160.053 134.437 160.719 134.267 161.387 134.315C161.962 134.267 162.535 134.427 163.003 134.765C163.471 135.104 163.802 135.599 163.936 136.16C164.037 136.805 164.037 137.461 163.936 138.106C163.936 138.274 163.534 138.508 163.332 138.508H159.81H159.843ZM162.192 137.2C162.192 136.496 162.192 135.959 161.487 135.825C160.783 135.69 160.011 135.992 159.776 137.2H162.192Z" fill="white"/>
<path d="M76.0494 134.616H81.5848C82.088 135.857 81.1486 136.494 80.5112 137.232C79.8738 137.97 79.0015 138.91 78.1293 139.883H81.6853V141.291H76.0158C75.5461 140.117 76.385 139.446 77.0224 138.708C77.6598 137.97 78.4649 137.098 79.3371 136.092C78.5776 136.04 77.8153 136.04 77.0558 136.092C76.2506 136.092 75.9152 135.89 76.0494 135.085C76.0664 134.918 76.0664 134.749 76.0494 134.582" fill="white"/>
<path d="M167.461 136.46V141.291H165.516V134.581C166.925 134.346 167.059 134.38 167.227 135.219C167.763 134.984 168.267 134.682 168.803 134.48C169.34 134.279 169.843 134.313 169.843 135.252V136.124L167.461 136.393" fill="white"/>
</g>
</g>
<defs>
<clipPath id="clip0_5527_1116">
<rect width="216" height="206.929" fill="white"/>
</clipPath>
<clipPath id="clip1_5527_1116">
<rect width="123" height="82.7321" fill="white" transform="translate(47 62)"/>
</clipPath>
</defs>
</svg>
