<svg width="231" height="127" viewBox="0 0 231 127" fill="none" xmlns="http://www.w3.org/2000/svg">
<g clip-path="url(#clip0_503_2348)">
<path d="M77.4719 58.518L61.5959 43.02V67.158H65.7539V52.524L81.6299 67.968V43.884H77.4719V58.518ZM184.554 54.09L193.572 43.83H188.658L178.776 55.008V43.884H174.618V67.104H178.776V60.3L181.692 57.06L188.982 67.104H193.842L184.554 54.09V54.09ZM138.276 43.452C131.634 43.452 126.234 48.852 126.234 55.494C126.234 62.136 131.634 67.536 138.276 67.536C144.918 67.536 150.318 62.136 150.318 55.494C150.318 48.852 144.918 43.452 138.276 43.452V43.452ZM138.276 63.756C133.686 63.756 130.014 60.03 130.014 55.494C130.014 50.904 133.74 47.232 138.276 47.232C142.866 47.232 146.538 50.958 146.538 55.494C146.538 60.03 142.812 63.756 138.276 63.756ZM36.9719 67.104H41.3999L43.4519 62.622H53.4419L55.4939 67.104H59.9219L48.4739 42.75L36.9719 67.104ZM45.0179 59.004L48.4739 51.444L51.9299 59.004H45.0179ZM83.2499 67.104H87.6779L89.7299 62.622H99.7199L101.772 67.104H106.2L94.7519 42.75L83.2499 67.104V67.104ZM91.2959 59.004L94.7519 51.444L98.2079 59.004H91.2959V59.004ZM124.506 51.228C124.506 49.122 123.75 47.394 122.292 45.99C120.834 44.532 119.052 43.83 116.946 43.83H107.928V67.05H112.086V58.842H116.244L121.212 67.104H125.91L120.294 57.816C122.778 56.79 124.506 54.252 124.506 51.228V51.228ZM116.514 55.116H112.086V47.61H116.838C118.836 47.61 120.348 49.122 120.348 51.282C120.348 53.55 118.782 55.116 116.514 55.116V55.116ZM163.872 47.232C166.086 47.232 168.138 48.096 169.704 49.662L172.35 47.016C169.974 44.64 166.896 43.506 163.818 43.506C160.74 43.506 157.662 44.694 155.286 47.016C150.588 51.714 150.588 59.382 155.286 64.08C157.662 66.456 160.74 67.59 163.818 67.59C166.896 67.59 169.974 66.402 172.35 64.08L169.704 61.434C168.138 63 166.086 63.864 163.872 63.864C161.658 63.864 159.606 63 158.04 61.434C154.8 58.194 154.8 52.956 158.04 49.716C159.606 48.096 161.658 47.232 163.872 47.232V47.232ZM60.1379 84.654H59.7599L57.1679 78.714H58.5179L59.9759 82.278L61.4339 78.714H62.7839L60.1379 84.654V84.654ZM69.8039 84.546H68.5079L68.1839 83.79H65.8079L65.4839 84.546H64.1879L66.7799 78.606H67.1579L69.8039 84.546ZM66.2399 82.818H67.8059L67.0499 80.874L66.2399 82.818ZM73.6379 83.466H76.1759V84.546H72.4499V78.714H73.6379V83.466ZM83.6279 82.116C83.6279 82.494 83.5739 82.872 83.4119 83.142C83.3039 83.466 83.0879 83.736 82.8719 83.952C82.6559 84.168 82.3859 84.33 82.1159 84.438C81.7919 84.546 81.4679 84.6 81.1439 84.6C80.7659 84.6 80.4419 84.546 80.1719 84.438C79.8479 84.33 79.6319 84.168 79.3619 83.952C79.1459 83.736 78.9839 83.466 78.8219 83.142C78.7139 82.818 78.6599 82.494 78.6599 82.116V78.714H79.9019V82.224C79.9019 82.44 79.9559 82.656 80.0099 82.818C80.0639 82.98 80.1719 83.142 80.2799 83.25C80.3879 83.358 80.5499 83.466 80.7119 83.52C80.8739 83.574 81.0359 83.628 81.1979 83.628C81.3599 83.628 81.5759 83.574 81.6839 83.52C81.8459 83.466 81.9539 83.358 82.1159 83.25C82.2239 83.142 82.3319 82.98 82.3859 82.818C82.4399 82.656 82.4939 82.44 82.4939 82.224V78.714H83.6819L83.6279 82.116V82.116ZM90.7559 79.794H88.0019V80.982H89.9999V82.008H88.0019V83.466H90.8639V84.546H86.8139V78.714H90.7559V79.794ZM95.6699 78.606C96.1559 78.606 96.5339 78.714 96.8579 78.93C97.1819 79.146 97.4519 79.416 97.6139 79.74L96.8039 80.388C96.6419 80.172 96.4799 80.01 96.3179 79.902C96.1559 79.794 95.9399 79.74 95.6699 79.74C95.4539 79.74 95.2919 79.794 95.1839 79.902C95.0219 80.01 94.9679 80.118 94.9679 80.334C94.9679 80.496 95.0219 80.658 95.1299 80.712C95.2379 80.82 95.3999 80.874 95.6159 80.982L96.2639 81.252C96.7499 81.468 97.0739 81.684 97.3439 81.954C97.6139 82.224 97.7219 82.548 97.7219 82.98C97.7219 83.25 97.6679 83.52 97.5599 83.736C97.4519 83.952 97.2899 84.114 97.1279 84.276C96.9659 84.438 96.7499 84.546 96.4799 84.6C96.2099 84.654 95.9399 84.708 95.6699 84.708C95.1839 84.708 94.6979 84.6 94.3199 84.33C93.9419 84.114 93.6179 83.79 93.4019 83.412L94.2119 82.818C94.2659 82.926 94.3739 83.034 94.4819 83.142C94.5899 83.25 94.6979 83.358 94.8059 83.412C94.9139 83.466 95.0219 83.574 95.1839 83.628C95.3459 83.682 95.5079 83.682 95.6699 83.682C95.9399 83.682 96.1559 83.628 96.2639 83.52C96.4259 83.412 96.4799 83.25 96.4799 83.034C96.4799 82.872 96.4259 82.71 96.2639 82.602C96.1559 82.494 95.9399 82.386 95.7239 82.278L95.1299 82.008C94.9139 81.9 94.7519 81.792 94.5359 81.684C94.3739 81.576 94.2119 81.468 94.1039 81.306C93.9959 81.144 93.8879 81.036 93.8339 80.874C93.7799 80.712 93.7259 80.55 93.7259 80.334C93.7259 80.064 93.7799 79.848 93.8879 79.632C93.9959 79.416 94.1039 79.254 94.3199 79.092C94.4819 78.93 94.6979 78.822 94.9139 78.768C95.1299 78.66 95.3999 78.606 95.6699 78.606V78.606ZM107.928 78.606C108.36 78.606 108.738 78.66 109.116 78.822C109.494 78.984 109.818 79.2 110.088 79.47C110.358 79.74 110.574 80.064 110.736 80.442C110.898 80.82 110.952 81.198 110.952 81.63C110.952 82.062 110.898 82.44 110.736 82.818C110.574 83.196 110.358 83.52 110.088 83.79C109.818 84.06 109.494 84.276 109.116 84.438C108.738 84.6 108.36 84.654 107.928 84.654C107.496 84.654 107.118 84.6 106.74 84.438C106.362 84.276 106.038 84.06 105.768 83.79C105.498 83.52 105.282 83.196 105.12 82.818C104.958 82.44 104.85 82.062 104.85 81.63C104.85 81.198 104.958 80.82 105.12 80.442C105.282 80.064 105.498 79.74 105.768 79.47C106.038 79.2 106.362 78.984 106.74 78.822C107.064 78.66 107.496 78.606 107.928 78.606ZM107.928 79.686C107.658 79.686 107.388 79.74 107.172 79.848C106.956 79.956 106.74 80.064 106.578 80.226C106.416 80.388 106.254 80.604 106.2 80.82C106.092 81.036 106.038 81.306 106.038 81.576C106.038 81.846 106.092 82.116 106.2 82.332C106.308 82.548 106.416 82.764 106.578 82.926C106.74 83.088 106.956 83.25 107.172 83.304C107.388 83.412 107.658 83.466 107.928 83.466C108.198 83.466 108.414 83.412 108.684 83.304C108.9 83.196 109.116 83.088 109.278 82.926C109.44 82.764 109.602 82.548 109.656 82.332C109.764 82.116 109.818 81.846 109.818 81.576C109.818 81.306 109.764 81.036 109.656 80.82C109.548 80.604 109.44 80.388 109.278 80.226C109.116 80.064 108.9 79.902 108.684 79.848C108.414 79.74 108.198 79.686 107.928 79.686ZM115.974 84.654H115.596L113.004 78.714H114.354L115.812 82.278L117.27 78.714H118.62L115.974 84.654V84.654ZM125.154 79.794H122.4V80.982H124.398V82.008H122.4V83.466H125.262V84.546H121.212V78.714H125.154V79.794V79.794ZM130.392 78.714C130.716 78.714 130.986 78.768 131.256 78.822C131.526 78.93 131.742 79.038 131.904 79.2C132.066 79.362 132.228 79.578 132.336 79.794C132.444 80.01 132.498 80.28 132.498 80.55C132.498 80.928 132.39 81.252 132.228 81.576C132.066 81.846 131.796 82.062 131.472 82.224L133.092 84.492H131.742L130.23 82.44H129.366V84.492H128.178V78.714H130.392V78.714ZM129.42 79.74V81.414H130.392C130.662 81.414 130.878 81.36 131.04 81.198C131.202 81.036 131.256 80.82 131.256 80.604C131.256 80.334 131.202 80.172 131.04 80.01C130.878 79.848 130.662 79.794 130.392 79.794L129.42 79.74ZM142.65 84.654H142.272L139.68 78.714H141.03L142.488 82.278L143.946 78.714H145.296L142.65 84.654V84.654ZM152.316 84.546H151.02L150.696 83.79H148.32L147.996 84.546H146.7L149.292 78.606H149.67L152.316 84.546ZM148.752 82.818H150.318L149.562 80.874L148.752 82.818ZM156.15 83.466H158.688V84.546H154.962V78.714H156.15V83.466V83.466ZM166.194 82.116C166.194 82.494 166.14 82.872 165.978 83.142C165.87 83.466 165.654 83.736 165.438 83.952C165.222 84.168 164.952 84.33 164.682 84.438C164.358 84.546 164.034 84.6 163.71 84.6C163.332 84.6 163.008 84.546 162.738 84.438C162.414 84.33 162.198 84.168 161.928 83.952C161.712 83.736 161.55 83.466 161.388 83.142C161.28 82.818 161.226 82.494 161.226 82.116V78.714H162.414V82.224C162.414 82.44 162.468 82.656 162.522 82.818C162.576 82.98 162.684 83.142 162.792 83.25C162.9 83.358 163.062 83.466 163.224 83.52C163.386 83.574 163.548 83.628 163.71 83.628C163.872 83.628 164.088 83.574 164.196 83.52C164.358 83.466 164.466 83.358 164.628 83.25C164.736 83.142 164.844 82.98 164.898 82.818C164.952 82.656 165.006 82.44 165.006 82.224V78.714H166.194V82.116V82.116ZM173.322 79.794H170.568V80.982H172.566V82.008H170.568V83.466H173.43V84.546H169.38V78.714H173.322V79.794V79.794Z" fill="#EEEEEE"/>
<path d="M36.9722 72.4297H193.842V73.4557H36.9722V72.4297Z" fill="#CECECE"/>
</g>
<defs>
<clipPath id="clip0_503_2348">
<rect width="231" height="127" fill="white"/>
</clipPath>
</defs>
</svg>
