<svg width="216" height="207" viewBox="0 0 216 207" fill="none" xmlns="http://www.w3.org/2000/svg">
<g clip-path="url(#clip0_5527_659)">
<rect width="216" height="206.929" fill="#151517"/>
<g clip-path="url(#clip1_5527_659)">
<path fill-rule="evenodd" clip-rule="evenodd" d="M69.2969 115.759V92.6258H72.2711L86.4078 111.242V92.6258H89.2352V115.759H86.2609L72.1242 96.9586V115.759H69.2969ZM112.258 114.841C110.385 115.538 108.366 115.905 106.236 115.905C97.8641 115.905 93.6781 111.903 93.6781 103.862C93.6781 96.2609 97.7172 92.4422 105.795 92.4422C108.109 92.4422 110.275 92.7727 112.258 93.3969V95.9672C110.275 95.1961 108.219 94.8289 106.126 94.8289C99.8102 94.8289 96.6523 97.8398 96.6523 103.788C96.6523 110.214 99.7734 113.409 105.979 113.409C106.97 113.409 108.072 113.262 109.284 113.005V105.257H112.258V114.841V114.841ZM117.031 106.836V92.6258H120.005V106.836C120.005 111.279 122.209 113.519 126.652 113.519C131.058 113.519 133.298 111.279 133.298 106.836V92.6258H136.272V106.836C136.272 112.895 133.077 115.942 126.652 115.942C120.226 115.942 117.031 112.895 117.031 106.836V106.836ZM144.57 92.6258V113.335H156.688V115.759H141.596V92.6258H144.57V92.6258ZM160.984 115.759H157.863L169.355 89.5781L180.848 115.759H177.544L174.57 108.488H166.932L167.74 106.065H173.578L169.245 95.6L160.984 115.759V115.759ZM184.043 115.759V92.6258H193.92C198.327 92.6258 200.53 94.4617 200.53 98.1703C200.53 101.181 198.363 103.421 194.067 104.853L201.998 115.759H198.07L190.726 105.367V103.421C195.132 102.723 197.372 101.034 197.372 98.3172C197.372 96.1875 196.16 95.1227 193.7 95.1227H187.091V115.759H184.043V115.759Z" fill="white"/>
<path fill-rule="evenodd" clip-rule="evenodd" d="M13.998 86.4551L37.6816 78.0098L61.9895 86.3082L58.0606 117.629L37.6816 128.902L17.6332 117.776L13.998 86.4551Z" fill="#8D8D8D"/>
<path fill-rule="evenodd" clip-rule="evenodd" d="M61.9875 86.3082L37.6797 78.0098V128.902L58.0586 117.629L61.9875 86.3082V86.3082Z" fill="#757575"/>
<path fill-rule="evenodd" clip-rule="evenodd" d="M37.718 83.957L22.957 116.784L28.4648 116.673L31.4391 109.256H44.6211L47.8523 116.747L53.1031 116.857L37.718 83.957V83.957ZM37.7547 94.4953L42.7484 104.923H33.3852L37.7547 94.4953V94.4953Z" fill="white"/>
</g>
</g>
<defs>
<clipPath id="clip0_5527_659">
<rect width="216" height="206.929" fill="white"/>
</clipPath>
<clipPath id="clip1_5527_659">
<rect width="188" height="51.0608" fill="white" transform="translate(14 78)"/>
</clipPath>
</defs>
</svg>
