<?xml version="1.0" encoding="utf-8"?>
<!-- Generator: Adobe Illustrator 26.0.1, SVG Export Plug-In . SVG Version: 6.00 Build 0)  -->
<svg version="1.1" id="Layer_1" xmlns="http://www.w3.org/2000/svg" xmlns:xlink="http://www.w3.org/1999/xlink" x="0px" y="0px"
	 viewBox="0 0 389 661" style="enable-background:new 0 0 389 661;" xml:space="preserve">
<style type="text/css">
	.st0{fill:none;stroke:#333333;stroke-width:0.4921;stroke-miterlimit:10;}
	.st1{fill:#EB241D;}
	.st2{fill:none;stroke:#EB241D;stroke-width:0.4921;stroke-miterlimit:10;}
	.st3{fill:#FFFFFF;}
	.st4{fill:#CCCCCC;}
	.st5{fill:none;stroke:#333333;stroke-width:0.9842;stroke-linecap:round;stroke-miterlimit:10;}
	.st6{fill:none;stroke:#ED1819;stroke-width:0.9842;stroke-miterlimit:10;}
	.st7{fill:#B3B3B3;}
	.st8{fill:none;stroke:#FFFFFF;stroke-width:0.123;stroke-miterlimit:10;}
	.st9{fill:none;stroke:#FFFFFF;stroke-width:0.2461;stroke-miterlimit:10;}
	.st10{fill:none;stroke:#EB241D;stroke-width:0.2461;stroke-miterlimit:10;}
	.st11{fill:none;stroke:#FFFFFF;stroke-width:0.3691;stroke-miterlimit:10;}
	.st12{fill:none;stroke:#ED1819;stroke-width:0.9842;stroke-linecap:round;stroke-miterlimit:10;}
	.st13{fill:none;stroke:#FFFFFF;stroke-width:0.4921;stroke-miterlimit:10;}
</style>
<path class="st0" d="M185,41H1v258h184V41z"/>
<path class="st1" d="M185.2,1.1H1.1v40.4h184.1V1.1z"/>
<path class="st2" d="M185.2,1.1H1.1v40.4h184.1V1.1z"/>
<path class="st3" d="M32,23h3.9v1.5h-5.5v-9.6H32V23z M40,24.7c-1,0-1.9-0.3-2.6-1c-0.7-0.7-1.1-1.6-1.1-2.6c0-1,0.4-1.9,1.1-2.6
	c0.7-0.7,1.6-1,2.6-1c1,0,1.9,0.3,2.6,1c0.7,0.7,1.1,1.6,1.1,2.6c0,1-0.4,1.9-1.1,2.6C41.9,24.4,41,24.7,40,24.7z M38.5,22.7
	c0.4,0.4,0.9,0.6,1.5,0.6s1.1-0.2,1.5-0.6s0.6-0.9,0.6-1.6s-0.2-1.1-0.6-1.6c-0.4-0.4-0.9-0.6-1.5-0.6s-1.1,0.2-1.5,0.6
	c-0.4,0.4-0.6,0.9-0.6,1.6S38.1,22.2,38.5,22.7z M52.6,17.6h1.6l-2.2,6.9h-1.5l-1.4-4.6l-1.4,4.6h-1.5l-2.2-6.9h1.6l1.3,4.8l1.4-4.8
	h1.4l1.4,4.8L52.6,17.6z M65.1,14.9v1.5h-2.7v8.1h-1.6v-8.1h-2.7v-1.5H65.1z M66.1,21.7c0.1,0.5,0.4,0.9,0.8,1.2
	c0.4,0.3,0.9,0.4,1.4,0.4c0.8,0,1.4-0.3,1.8-0.9l1.2,0.7c-0.7,1-1.7,1.5-3,1.5c-1.1,0-2-0.3-2.7-1c-0.7-0.7-1-1.6-1-2.6
	c0-1,0.3-1.9,1-2.6c0.7-0.7,1.6-1,2.6-1c1,0,1.8,0.4,2.5,1.1c0.7,0.7,1,1.6,1,2.6c0,0.2,0,0.4-0.1,0.6H66.1z M66.1,20.5h4.1
	c-0.1-0.6-0.3-1-0.7-1.3c-0.4-0.3-0.8-0.4-1.3-0.4c-0.6,0-1,0.2-1.4,0.5C66.5,19.6,66.2,20,66.1,20.5z M76.2,24.7
	c-1,0-1.9-0.3-2.6-1c-0.7-0.7-1-1.6-1-2.6c0-1,0.3-1.9,1-2.6c0.7-0.7,1.6-1,2.6-1c0.7,0,1.3,0.2,1.8,0.5c0.6,0.3,1,0.8,1.2,1.3
	L78,20c-0.2-0.3-0.4-0.6-0.7-0.8c-0.3-0.2-0.7-0.3-1.1-0.3c-0.6,0-1.1,0.2-1.5,0.6C74.2,20,74,20.5,74,21.1s0.2,1.1,0.6,1.5
	c0.4,0.4,0.9,0.6,1.5,0.6c0.4,0,0.8-0.1,1.1-0.3c0.3-0.2,0.6-0.5,0.7-0.8l1.3,0.7c-0.3,0.6-0.7,1-1.3,1.3
	C77.5,24.6,76.9,24.7,76.2,24.7z M84,17.5c0.8,0,1.4,0.3,1.9,0.8c0.5,0.5,0.7,1.2,0.7,2.1v4.2h-1.5v-4.1c0-0.5-0.1-0.9-0.4-1.2
	c-0.3-0.3-0.7-0.4-1.1-0.4c-0.5,0-0.9,0.2-1.3,0.5c-0.3,0.3-0.5,0.8-0.5,1.5v3.7h-1.5v-9.6h1.5v3.6C82.3,17.8,83,17.5,84,17.5z
	 M91.9,17.5c0.8,0,1.4,0.3,1.9,0.8c0.5,0.5,0.7,1.2,0.7,2.1v4.2H93v-4.1c0-0.5-0.1-0.9-0.4-1.2c-0.3-0.3-0.7-0.4-1.1-0.4
	c-0.5,0-0.9,0.2-1.3,0.5c-0.3,0.3-0.5,0.8-0.5,1.5v3.7h-1.5v-6.9h1.5v0.9C90.2,17.8,90.9,17.5,91.9,17.5z M97.5,16.3
	c-0.2,0.2-0.4,0.3-0.7,0.3c-0.3,0-0.5-0.1-0.7-0.3c-0.2-0.2-0.3-0.4-0.3-0.7s0.1-0.5,0.3-0.7c0.2-0.2,0.4-0.3,0.7-0.3
	c0.3,0,0.5,0.1,0.7,0.3c0.2,0.2,0.3,0.4,0.3,0.7S97.7,16.1,97.5,16.3z M96.1,24.5v-6.9h1.5v6.9H96.1z M102.6,24.7
	c-1,0-1.9-0.3-2.6-1c-0.7-0.7-1-1.6-1-2.6c0-1,0.3-1.9,1-2.6c0.7-0.7,1.6-1,2.6-1c0.7,0,1.3,0.2,1.8,0.5c0.6,0.3,1,0.8,1.2,1.3
	l-1.3,0.7c-0.2-0.3-0.4-0.6-0.7-0.8c-0.3-0.2-0.7-0.3-1.1-0.3c-0.6,0-1.1,0.2-1.5,0.6c-0.4,0.4-0.6,0.9-0.6,1.5s0.2,1.1,0.6,1.5
	c0.4,0.4,0.9,0.6,1.5,0.6c0.4,0,0.8-0.1,1.1-0.3c0.3-0.2,0.6-0.5,0.7-0.8l1.3,0.7c-0.3,0.6-0.7,1-1.3,1.3
	C103.9,24.6,103.3,24.7,102.6,24.7z M112.1,17.6h1.5v6.9h-1.5v-1c-0.6,0.8-1.4,1.2-2.4,1.2c-0.9,0-1.8-0.3-2.4-1
	c-0.7-0.7-1-1.6-1-2.6c0-1,0.3-1.9,1-2.6c0.7-0.7,1.5-1,2.4-1c1,0,1.9,0.4,2.4,1.2V17.6z M108.4,22.7c0.4,0.4,0.9,0.6,1.6,0.6
	c0.6,0,1.1-0.2,1.6-0.6c0.4-0.4,0.6-1,0.6-1.6c0-0.6-0.2-1.2-0.6-1.6c-0.4-0.4-0.9-0.6-1.6-0.6c-0.6,0-1.1,0.2-1.6,0.6
	c-0.4,0.4-0.6,0.9-0.6,1.6C107.8,21.7,108,22.3,108.4,22.7z M115.3,24.5V14.5h1.5v10.1H115.3z M125.9,14.9c1.3,0,2.4,0.5,3.3,1.4
	c0.9,0.9,1.3,2.1,1.3,3.4c0,1.4-0.4,2.5-1.3,3.4c-0.9,0.9-2,1.4-3.3,1.4h-3.8v-9.6H125.9z M125.9,23c0.9,0,1.6-0.3,2.2-0.9
	c0.6-0.6,0.9-1.4,0.9-2.4c0-1-0.3-1.8-0.9-2.4c-0.6-0.6-1.3-0.9-2.2-0.9h-2.2V23H125.9z M133,21.7c0.1,0.5,0.4,0.9,0.8,1.2
	c0.4,0.3,0.9,0.4,1.4,0.4c0.8,0,1.4-0.3,1.8-0.9l1.2,0.7c-0.7,1-1.7,1.5-3,1.5c-1.1,0-2-0.3-2.7-1c-0.7-0.7-1-1.6-1-2.6
	c0-1,0.3-1.9,1-2.6c0.7-0.7,1.6-1,2.6-1c1,0,1.8,0.4,2.5,1.1c0.7,0.7,1,1.6,1,2.6c0,0.2,0,0.4-0.1,0.6H133z M133,20.5h4.1
	c-0.1-0.6-0.3-1-0.7-1.3c-0.4-0.3-0.8-0.4-1.3-0.4c-0.6,0-1,0.2-1.4,0.5C133.3,19.6,133.1,20,133,20.5z M143.8,17.5
	c0.9,0,1.8,0.3,2.4,1c0.7,0.7,1,1.6,1,2.6c0,1-0.3,1.9-1,2.6c-0.7,0.7-1.5,1-2.4,1c-1,0-1.9-0.4-2.4-1.2v1h-1.5v-9.6h1.5v3.7
	C141.9,17.9,142.7,17.5,143.8,17.5z M142,22.7c0.4,0.4,0.9,0.6,1.6,0.6s1.1-0.2,1.6-0.6c0.4-0.4,0.6-1,0.6-1.6
	c0-0.6-0.2-1.2-0.6-1.6c-0.4-0.4-0.9-0.6-1.6-0.6s-1.1,0.2-1.6,0.6c-0.4,0.4-0.6,0.9-0.6,1.6C141.3,21.7,141.6,22.3,142,22.7z
	 M152.2,19.1h-1.7v3.3c0,0.3,0.1,0.5,0.2,0.6c0.1,0.1,0.3,0.2,0.6,0.2c0.3,0,0.6,0,1,0v1.3c-1.1,0.1-2,0-2.5-0.3
	c-0.5-0.3-0.7-1-0.7-1.9v-3.3h-1.3v-1.4h1.3v-1.5l1.5-0.4v1.9h1.7V19.1z"/>
<path class="st0" d="M173.3,250H12.7c-1.5,0-2.7,1.5-2.7,3.3v33.5c0,1.8,1.2,3.3,2.7,3.3h160.6c1.5,0,2.7-1.5,2.7-3.3v-33.5
	C176,251.5,174.8,250,173.3,250z"/>
<path class="st0" d="M173.3,203H12.7c-1.5,0-2.7,1.5-2.7,3.3v33.5c0,1.8,1.2,3.3,2.7,3.3h160.6c1.5,0,2.7-1.5,2.7-3.3v-33.5
	C176,204.5,174.8,203,173.3,203z"/>
<path class="st0" d="M173.3,156H12.7c-1.5,0-2.7,1.5-2.7,3.3v33.5c0,1.8,1.2,3.3,2.7,3.3h160.6c1.5,0,2.7-1.5,2.7-3.3v-33.5
	C176,157.5,174.8,156,173.3,156z"/>
<path class="st0" d="M173.3,109H12.7c-1.5,0-2.7,1.5-2.7,3.3v33.5c0,1.8,1.2,3.3,2.7,3.3h160.6c1.5,0,2.7-1.5,2.7-3.3v-33.5
	C176,110.5,174.8,109,173.3,109z"/>
<path class="st0" d="M173.3,62H12.7c-1.5,0-2.7,1.5-2.7,3.3v33.5c0,1.8,1.2,3.3,2.7,3.3h160.6c1.5,0,2.7-1.5,2.7-3.3V65.3
	C176,63.5,174.8,62,173.3,62z"/>
<path class="st4" d="M64.8,87.2c-1.3,0-2.3-0.4-3.2-1.3c-0.8-0.8-1.2-1.9-1.2-3.1c0-1.2,0.4-2.3,1.2-3.1c0.8-0.8,1.9-1.3,3.2-1.3
	c0.8,0,1.5,0.2,2.1,0.6c0.6,0.4,1.2,0.9,1.5,1.5l-1,0.6c-0.2-0.5-0.6-0.8-1.1-1.1c-0.5-0.3-1-0.4-1.6-0.4c-1,0-1.8,0.3-2.4,0.9
	c-0.6,0.6-0.9,1.4-0.9,2.3c0,0.9,0.3,1.7,0.9,2.3c0.6,0.6,1.4,0.9,2.4,0.9c0.6,0,1.1-0.1,1.6-0.4c0.5-0.3,0.8-0.6,1.1-1.1l1,0.6
	c-0.4,0.6-0.9,1.1-1.5,1.5C66.3,87,65.6,87.2,64.8,87.2z M69.7,87v-8.8h1V87H69.7z M73,84.5c0.1,0.5,0.3,1,0.7,1.2
	c0.4,0.3,0.9,0.4,1.4,0.4c0.8,0,1.4-0.3,1.7-0.9l0.9,0.5c-0.6,0.9-1.5,1.4-2.6,1.4c-1,0-1.7-0.3-2.3-0.9C72.3,85.7,72,84.9,72,84
	c0-0.9,0.3-1.7,0.9-2.3c0.6-0.6,1.3-0.9,2.3-0.9c0.9,0,1.6,0.3,2.1,0.9c0.6,0.6,0.8,1.4,0.8,2.2c0,0.2,0,0.3,0,0.5H73z M75.1,81.8
	c-0.6,0-1,0.2-1.4,0.5c-0.4,0.3-0.6,0.7-0.7,1.3h4c-0.1-0.6-0.3-1-0.7-1.3C76,82,75.6,81.8,75.1,81.8z M84.3,81h1v6h-1v-1
	c-0.5,0.8-1.3,1.2-2.3,1.2c-0.8,0-1.6-0.3-2.1-0.9c-0.6-0.6-0.9-1.4-0.9-2.2s0.3-1.6,0.9-2.2c0.6-0.6,1.3-0.9,2.1-0.9
	c1,0,1.7,0.4,2.3,1.2V81z M82.1,86.1c0.6,0,1.1-0.2,1.5-0.6c0.4-0.4,0.6-0.9,0.6-1.5s-0.2-1.1-0.6-1.5c-0.4-0.4-0.9-0.6-1.5-0.6
	c-0.6,0-1.1,0.2-1.5,0.6C80.2,82.9,80,83.4,80,84s0.2,1.1,0.6,1.5C81,85.9,81.5,86.1,82.1,86.1z M89.9,80.8c0.7,0,1.3,0.2,1.7,0.7
	c0.4,0.4,0.6,1,0.6,1.8V87h-1v-3.6c0-0.5-0.1-0.9-0.4-1.1c-0.3-0.3-0.6-0.4-1.1-0.4c-0.5,0-0.9,0.2-1.3,0.5
	c-0.3,0.3-0.5,0.8-0.5,1.5V87h-1v-6h1v0.9C88.3,81.2,89,80.8,89.9,80.8z M100.7,87.2c-1.3,0-2.3-0.4-3.2-1.3
	c-0.8-0.8-1.2-1.9-1.2-3.1c0-1.2,0.4-2.3,1.2-3.1c0.8-0.8,1.9-1.3,3.2-1.3c0.8,0,1.5,0.2,2.1,0.6c0.6,0.4,1.2,0.9,1.5,1.5l-1,0.6
	c-0.2-0.5-0.6-0.8-1.1-1.1c-0.5-0.3-1-0.4-1.6-0.4c-1,0-1.8,0.3-2.4,0.9c-0.6,0.6-0.9,1.4-0.9,2.3c0,0.9,0.3,1.7,0.9,2.3
	c0.6,0.6,1.4,0.9,2.4,0.9c0.6,0,1.1-0.1,1.6-0.4c0.5-0.3,0.8-0.6,1.1-1.1l1,0.6c-0.4,0.6-0.9,1.1-1.5,1.5
	C102.2,87,101.5,87.2,100.7,87.2z M110.5,86.2c-0.6,0.6-1.4,0.9-2.2,0.9c-0.9,0-1.6-0.3-2.2-0.9c-0.6-0.6-0.9-1.4-0.9-2.2
	s0.3-1.6,0.9-2.2c0.6-0.6,1.4-0.9,2.2-0.9c0.9,0,1.6,0.3,2.2,0.9c0.6,0.6,0.9,1.4,0.9,2.2S111.1,85.6,110.5,86.2z M108.3,86.1
	c0.6,0,1.1-0.2,1.5-0.6c0.4-0.4,0.6-0.9,0.6-1.5s-0.2-1.1-0.6-1.5c-0.4-0.4-0.9-0.6-1.5-0.6c-0.6,0-1.1,0.2-1.5,0.6
	c-0.4,0.4-0.6,0.9-0.6,1.5s0.2,1.1,0.6,1.5C107.2,85.9,107.7,86.1,108.3,86.1z M117.7,78.6h1V87h-1v-1c-0.5,0.8-1.3,1.2-2.3,1.2
	c-0.8,0-1.6-0.3-2.1-0.9c-0.6-0.6-0.9-1.4-0.9-2.2s0.3-1.6,0.9-2.2c0.6-0.6,1.3-0.9,2.1-0.9c1,0,1.7,0.4,2.3,1.2V78.6z M115.5,86.1
	c0.6,0,1.1-0.2,1.5-0.6c0.4-0.4,0.6-0.9,0.6-1.5s-0.2-1.1-0.6-1.5c-0.4-0.4-0.9-0.6-1.5-0.6c-0.6,0-1.1,0.2-1.5,0.6
	c-0.4,0.4-0.6,0.9-0.6,1.5s0.2,1.1,0.6,1.5C114.4,85.9,114.9,86.1,115.5,86.1z M121,84.5c0.1,0.5,0.3,1,0.7,1.2
	c0.4,0.3,0.9,0.4,1.4,0.4c0.8,0,1.4-0.3,1.7-0.9l0.9,0.5c-0.6,0.9-1.5,1.4-2.6,1.4c-1,0-1.7-0.3-2.3-0.9c-0.6-0.6-0.9-1.4-0.9-2.3
	c0-0.9,0.3-1.7,0.9-2.3c0.6-0.6,1.3-0.9,2.3-0.9c0.9,0,1.6,0.3,2.1,0.9c0.6,0.6,0.8,1.4,0.8,2.2c0,0.2,0,0.3,0,0.5H121z M123.1,81.8
	c-0.6,0-1,0.2-1.4,0.5c-0.4,0.3-0.6,0.7-0.7,1.3h4c-0.1-0.6-0.3-1-0.7-1.3C124,82,123.6,81.8,123.1,81.8z"/>
<path class="st4" d="M68.3,125.6v1.1h-2.5v7.3h-1.1v-7.3h-2.5v-1.1H68.3z M72.7,125.6c1.1,0,2.1,0.4,2.8,1.2c0.8,0.8,1.1,1.8,1.1,3
	c0,1.2-0.4,2.2-1.1,3c-0.8,0.8-1.7,1.2-2.8,1.2h-3.3v-8.4H72.7z M72.7,132.9c0.9,0,1.6-0.3,2.1-0.9c0.5-0.6,0.8-1.3,0.8-2.2
	s-0.3-1.6-0.8-2.2c-0.5-0.6-1.2-0.9-2.1-0.9h-2.2v6.3H72.7z M81.3,125.6c1.1,0,2.1,0.4,2.8,1.2c0.8,0.8,1.1,1.8,1.1,3
	c0,1.2-0.4,2.2-1.1,3c-0.8,0.8-1.7,1.2-2.8,1.2H78v-8.4H81.3z M81.3,132.9c0.9,0,1.6-0.3,2.1-0.9c0.5-0.6,0.8-1.3,0.8-2.2
	s-0.3-1.6-0.8-2.2c-0.5-0.6-1.2-0.9-2.1-0.9h-2.2v6.3H81.3z M96.4,133.7l-0.9,0.5l-0.9-0.9c-0.6,0.6-1.4,0.9-2.4,0.9
	c-0.8,0-1.5-0.2-2-0.6c-0.5-0.4-0.8-1-0.8-1.8c0-0.5,0.1-1,0.4-1.4c0.3-0.4,0.6-0.8,1.2-1c-0.4-0.5-0.5-1-0.5-1.5
	c0-0.7,0.2-1.3,0.7-1.7c0.5-0.4,1.1-0.6,1.8-0.6c0.6,0,1.1,0.2,1.5,0.5s0.8,0.7,1,1.3l-0.9,0.5c-0.1-0.4-0.3-0.7-0.6-0.9
	c-0.3-0.2-0.6-0.3-0.9-0.3c-0.4,0-0.7,0.1-1,0.3c-0.3,0.2-0.4,0.5-0.4,0.9c0,0.3,0.1,0.5,0.2,0.7c0.1,0.2,0.3,0.4,0.6,0.7l2.3,2.4
	c0.2-0.4,0.3-0.9,0.4-1.5l1,0.6c-0.1,0.7-0.3,1.3-0.6,1.8L96.4,133.7z M92.2,133.1c0.7,0,1.2-0.2,1.7-0.6l-2.3-2.4
	c-0.4,0.2-0.7,0.4-0.9,0.7c-0.2,0.3-0.3,0.6-0.3,0.9c0,0.4,0.2,0.8,0.5,1.1C91.2,133,91.7,133.1,92.2,133.1z M105.4,129.6
	c0.4,0.2,0.7,0.4,0.9,0.8c0.2,0.3,0.3,0.7,0.3,1.2c0,0.7-0.2,1.2-0.7,1.7c-0.5,0.5-1,0.7-1.7,0.7h-3.6v-8.4h3.4
	c0.7,0,1.2,0.2,1.7,0.7c0.5,0.4,0.7,1,0.7,1.6C106.3,128.6,106,129.2,105.4,129.6z M103.9,126.6h-2.2v2.6h2.2c0.4,0,0.6-0.1,0.9-0.4
	c0.2-0.2,0.4-0.6,0.4-0.9c0-0.4-0.1-0.7-0.4-0.9C104.5,126.8,104.3,126.6,103.9,126.6z M104.2,133c0.4,0,0.7-0.1,0.9-0.4
	c0.3-0.3,0.4-0.6,0.4-1c0-0.4-0.1-0.7-0.4-1c-0.3-0.3-0.6-0.4-0.9-0.4h-2.5v2.7H104.2z M111.2,125.6c1.1,0,2.1,0.4,2.8,1.2
	c0.8,0.8,1.1,1.8,1.1,3c0,1.2-0.4,2.2-1.1,3c-0.8,0.8-1.7,1.2-2.8,1.2h-3.3v-8.4H111.2z M111.2,132.9c0.9,0,1.6-0.3,2.1-0.9
	c0.5-0.6,0.8-1.3,0.8-2.2s-0.3-1.6-0.8-2.2c-0.5-0.6-1.2-0.9-2.1-0.9h-2.2v6.3H111.2z M119.8,125.6c1.1,0,2.1,0.4,2.8,1.2
	c0.8,0.8,1.1,1.8,1.1,3c0,1.2-0.4,2.2-1.1,3c-0.8,0.8-1.7,1.2-2.8,1.2h-3.3v-8.4H119.8z M119.8,132.9c0.9,0,1.6-0.3,2.1-0.9
	c0.5-0.6,0.8-1.3,0.8-2.2s-0.3-1.6-0.8-2.2c-0.5-0.6-1.2-0.9-2.1-0.9h-2.2v6.3H119.8z"/>
<path class="st4" d="M79.8,181.2c-1.3,0-2.3-0.4-3.2-1.3c-0.8-0.8-1.2-1.9-1.2-3.1s0.4-2.3,1.2-3.1c0.8-0.8,1.9-1.3,3.2-1.3
	c0.8,0,1.5,0.2,2.1,0.6c0.6,0.4,1.2,0.9,1.5,1.5l-1,0.6c-0.2-0.5-0.6-0.8-1.1-1.1c-0.5-0.3-1-0.4-1.6-0.4c-1,0-1.8,0.3-2.4,0.9
	c-0.6,0.6-0.9,1.4-0.9,2.3c0,0.9,0.3,1.7,0.9,2.3c0.6,0.6,1.4,0.9,2.4,0.9c0.6,0,1.1-0.1,1.6-0.4c0.5-0.3,0.8-0.6,1.1-1.1l1,0.6
	c-0.4,0.6-0.9,1.1-1.5,1.5C81.3,181,80.6,181.2,79.8,181.2z M84.7,172.6h1.1v8.4h-1.1V172.6z M87.8,182.2h-0.6l4.8-10.8h0.6
	L87.8,182.2z M97.9,181.2c-1.3,0-2.3-0.4-3.2-1.3c-0.8-0.8-1.2-1.9-1.2-3.1s0.4-2.3,1.2-3.1c0.8-0.8,1.9-1.3,3.2-1.3
	c0.8,0,1.5,0.2,2.1,0.6c0.6,0.4,1.2,0.9,1.5,1.5l-1,0.6c-0.2-0.5-0.6-0.8-1.1-1.1c-0.5-0.3-1-0.4-1.6-0.4c-1,0-1.8,0.3-2.4,0.9
	c-0.6,0.6-0.9,1.4-0.9,2.3c0,0.9,0.3,1.7,0.9,2.3c0.6,0.6,1.4,0.9,2.4,0.9c0.6,0,1.1-0.1,1.6-0.4c0.5-0.3,0.8-0.6,1.1-1.1l1,0.6
	c-0.4,0.6-0.9,1.1-1.5,1.5C99.4,181,98.7,181.2,97.9,181.2z M106.1,172.6c1.1,0,2.1,0.4,2.8,1.2c0.8,0.8,1.1,1.8,1.1,3
	c0,1.2-0.4,2.2-1.1,3c-0.8,0.8-1.7,1.2-2.8,1.2h-3.3v-8.4H106.1z M106.1,179.9c0.9,0,1.6-0.3,2.1-0.9c0.5-0.6,0.8-1.3,0.8-2.2
	s-0.3-1.6-0.8-2.2s-1.2-0.9-2.1-0.9h-2.2v6.3H106.1z"/>
<path class="st4" d="M32.6,220.2c-0.8,0-1.5-0.2-2-0.6c-0.6-0.4-0.9-0.9-1.2-1.5l1-0.6c0.3,1,1.1,1.5,2.2,1.5c0.6,0,1-0.1,1.3-0.3
	c0.3-0.2,0.5-0.6,0.5-0.9c0-0.4-0.2-0.7-0.5-0.9c-0.3-0.2-0.8-0.4-1.5-0.6c-0.4-0.1-0.6-0.2-0.8-0.3c-0.2-0.1-0.4-0.2-0.7-0.3
	c-0.3-0.1-0.5-0.3-0.6-0.4c-0.1-0.2-0.3-0.3-0.4-0.6c-0.1-0.2-0.2-0.5-0.2-0.8c0-0.7,0.3-1.3,0.8-1.7c0.5-0.4,1.1-0.6,1.9-0.6
	c0.7,0,1.2,0.2,1.7,0.5c0.5,0.3,0.9,0.8,1.1,1.3l-0.9,0.5c-0.4-0.9-1-1.3-1.9-1.3c-0.5,0-0.8,0.1-1.1,0.3c-0.3,0.2-0.4,0.5-0.4,0.9
	c0,0.4,0.1,0.6,0.4,0.8s0.7,0.4,1.4,0.6c0.2,0.1,0.4,0.1,0.5,0.2c0.1,0,0.2,0.1,0.4,0.2c0.2,0.1,0.4,0.1,0.5,0.2s0.2,0.1,0.4,0.2
	c0.2,0.1,0.3,0.2,0.4,0.3c0.1,0.1,0.2,0.2,0.3,0.3c0.1,0.1,0.2,0.2,0.2,0.3s0.1,0.3,0.1,0.4c0,0.2,0.1,0.3,0.1,0.5
	c0,0.7-0.3,1.3-0.8,1.8C34.2,219.9,33.5,220.2,32.6,220.2z M37.6,217.5c0.1,0.5,0.3,1,0.7,1.2c0.4,0.3,0.9,0.4,1.4,0.4
	c0.8,0,1.4-0.3,1.7-0.9l0.9,0.5c-0.6,0.9-1.5,1.4-2.6,1.4c-1,0-1.7-0.3-2.3-0.9c-0.6-0.6-0.9-1.4-0.9-2.3c0-0.9,0.3-1.7,0.9-2.3
	c0.6-0.6,1.3-0.9,2.3-0.9c0.9,0,1.6,0.3,2.1,0.9c0.6,0.6,0.8,1.4,0.8,2.2c0,0.2,0,0.3,0,0.5H37.6z M39.7,214.8c-0.6,0-1,0.2-1.4,0.5
	c-0.4,0.3-0.6,0.7-0.7,1.3h4c-0.1-0.6-0.3-1-0.7-1.3C40.6,215,40.2,214.8,39.7,214.8z M46.7,220.2c-0.9,0-1.7-0.3-2.3-0.9
	c-0.6-0.6-0.9-1.4-0.9-2.3s0.3-1.6,0.9-2.2c0.6-0.6,1.4-0.9,2.3-0.9c0.6,0,1.1,0.1,1.6,0.4c0.5,0.3,0.8,0.7,1.1,1.1l-0.9,0.5
	c-0.2-0.3-0.4-0.6-0.7-0.8c-0.3-0.2-0.7-0.3-1.1-0.3c-0.6,0-1.1,0.2-1.5,0.6c-0.4,0.4-0.6,0.9-0.6,1.5c0,0.6,0.2,1.1,0.6,1.5
	c0.4,0.4,0.9,0.6,1.5,0.6c0.4,0,0.8-0.1,1.1-0.3c0.3-0.2,0.6-0.4,0.7-0.8l0.9,0.5c-0.3,0.5-0.6,0.9-1.1,1.1
	C47.8,220,47.3,220.2,46.7,220.2z M54.6,214h1v6h-1v-0.9c-0.4,0.7-1.1,1-1.9,1c-0.7,0-1.3-0.2-1.7-0.7c-0.4-0.4-0.6-1.1-0.6-1.8V214
	h1v3.6c0,0.5,0.1,0.9,0.4,1.1c0.3,0.3,0.6,0.4,1.1,0.4c0.5,0,0.9-0.2,1.3-0.5c0.3-0.3,0.5-0.8,0.5-1.5V214z M58.2,215
	c0.3-0.7,1-1.1,1.9-1.1v1.1c-0.5,0-1,0.1-1.3,0.4s-0.6,0.8-0.6,1.4v3.2h-1v-6h1V215z M61.7,212.9c-0.2,0-0.4-0.1-0.5-0.2
	c-0.1-0.1-0.2-0.3-0.2-0.5s0.1-0.4,0.2-0.5c0.1-0.1,0.3-0.2,0.5-0.2c0.2,0,0.4,0.1,0.5,0.2c0.1,0.1,0.2,0.3,0.2,0.5
	s-0.1,0.4-0.2,0.5C62,212.8,61.8,212.9,61.7,212.9z M61.1,220v-6h1v6H61.1z M67,215h-1.6v3.3c0,0.3,0.1,0.5,0.2,0.6
	c0.1,0.1,0.3,0.2,0.5,0.2c0.2,0,0.5,0,0.9,0v0.9c-0.9,0.1-1.6,0-2-0.2c-0.4-0.3-0.6-0.8-0.6-1.5V215h-1.2v-1h1.2v-1.4l1-0.3v1.7H67
	V215z M72.6,214h1.1l-2.4,6.4c-0.3,0.7-0.6,1.2-1.1,1.5c-0.5,0.4-1,0.5-1.6,0.5v-1c0.7,0.1,1.3-0.4,1.6-1.2l0.1-0.2l-2.6-6h1.1
	l2,4.7L72.6,214z M84.4,219.7l-0.9,0.5l-0.9-0.9c-0.6,0.6-1.4,0.9-2.4,0.9c-0.8,0-1.5-0.2-2-0.6c-0.5-0.4-0.8-1-0.8-1.8
	c0-0.5,0.1-1,0.4-1.4c0.3-0.4,0.6-0.8,1.2-1c-0.4-0.5-0.5-1-0.5-1.5c0-0.7,0.2-1.3,0.7-1.7c0.5-0.4,1.1-0.6,1.8-0.6
	c0.6,0,1.1,0.2,1.5,0.5s0.8,0.7,1,1.3l-0.9,0.5c-0.1-0.4-0.3-0.7-0.6-0.9c-0.3-0.2-0.6-0.3-0.9-0.3c-0.4,0-0.7,0.1-1,0.3
	c-0.3,0.2-0.4,0.5-0.4,0.9c0,0.3,0.1,0.5,0.2,0.7c0.1,0.2,0.3,0.4,0.6,0.7l2.3,2.4c0.2-0.4,0.3-0.9,0.4-1.5l1,0.6
	c-0.1,0.7-0.3,1.3-0.6,1.8L84.4,219.7z M80.3,219.1c0.7,0,1.2-0.2,1.7-0.6l-2.3-2.4c-0.4,0.2-0.7,0.4-0.9,0.7
	c-0.2,0.3-0.3,0.6-0.3,0.9c0,0.4,0.2,0.8,0.5,1.1S79.7,219.1,80.3,219.1z M91.7,211.6c0.8,0,1.4,0.3,1.9,0.8
	c0.5,0.5,0.8,1.2,0.8,1.9c0,0.8-0.3,1.4-0.8,1.9c-0.5,0.5-1.2,0.8-1.9,0.8h-1.9v3h-1.1v-8.4H91.7z M91.7,216c0.5,0,0.8-0.2,1.2-0.5
	c0.3-0.3,0.5-0.7,0.5-1.2c0-0.5-0.2-0.9-0.5-1.2s-0.7-0.5-1.2-0.5h-1.9v3.3H91.7z M95.9,217.5c0.1,0.5,0.3,1,0.7,1.2
	c0.4,0.3,0.9,0.4,1.4,0.4c0.8,0,1.4-0.3,1.7-0.9l0.9,0.5c-0.6,0.9-1.5,1.4-2.6,1.4c-1,0-1.7-0.3-2.3-0.9c-0.6-0.6-0.9-1.4-0.9-2.3
	c0-0.9,0.3-1.7,0.9-2.3c0.6-0.6,1.3-0.9,2.3-0.9c0.9,0,1.6,0.3,2.1,0.9c0.6,0.6,0.8,1.4,0.8,2.2c0,0.2,0,0.3,0,0.5H95.9z
	 M97.9,214.8c-0.6,0-1,0.2-1.4,0.5c-0.4,0.3-0.6,0.7-0.7,1.3h4c-0.1-0.6-0.3-1-0.7-1.3C98.8,215,98.4,214.8,97.9,214.8z M103.2,215
	c0.3-0.7,1-1.1,1.9-1.1v1.1c-0.5,0-1,0.1-1.3,0.4c-0.4,0.3-0.6,0.8-0.6,1.4v3.2h-1v-6h1V215z M109.2,212.5c-1.1-0.1-1.6,0.4-1.6,1.4
	v0.2h1.6v1h-1.6v5h-1v-5h-1v-1h1v-0.2c0-0.8,0.2-1.4,0.7-1.8c0.5-0.4,1.1-0.6,2-0.5V212.5z M114.7,219.2c-0.6,0.6-1.4,0.9-2.2,0.9
	c-0.9,0-1.6-0.3-2.2-0.9c-0.6-0.6-0.9-1.4-0.9-2.2s0.3-1.6,0.9-2.2c0.6-0.6,1.4-0.9,2.2-0.9c0.9,0,1.6,0.3,2.2,0.9
	c0.6,0.6,0.9,1.4,0.9,2.2S115.3,218.6,114.7,219.2z M112.4,219.1c0.6,0,1.1-0.2,1.5-0.6c0.4-0.4,0.6-0.9,0.6-1.5s-0.2-1.1-0.6-1.5
	c-0.4-0.4-0.9-0.6-1.5-0.6c-0.6,0-1.1,0.2-1.5,0.6c-0.4,0.4-0.6,0.9-0.6,1.5s0.2,1.1,0.6,1.5C111.3,218.9,111.8,219.1,112.4,219.1z
	 M117.9,215c0.3-0.7,1-1.1,1.9-1.1v1.1c-0.5,0-1,0.1-1.3,0.4c-0.4,0.3-0.6,0.8-0.6,1.4v3.2h-1v-6h1V215z M127.3,213.8
	c0.7,0,1.2,0.2,1.6,0.7c0.4,0.4,0.6,1,0.6,1.8v3.7h-1v-3.7c0-0.5-0.1-0.8-0.4-1.1s-0.6-0.4-1-0.4c-0.4,0-0.8,0.2-1.1,0.5
	c-0.3,0.3-0.4,0.8-0.4,1.4v3.3h-1v-3.7c0-0.5-0.1-0.8-0.3-1.1c-0.2-0.3-0.5-0.4-0.9-0.4c-0.4,0-0.8,0.2-1.1,0.5
	c-0.3,0.3-0.4,0.8-0.4,1.4v3.3h-1v-6h1v0.8c0.4-0.6,1-1,1.8-1c0.8,0,1.4,0.3,1.8,1C125.8,214.2,126.4,213.8,127.3,213.8z M135.9,214
	h1v6h-1v-1c-0.5,0.8-1.3,1.2-2.3,1.2c-0.8,0-1.6-0.3-2.1-0.9c-0.6-0.6-0.9-1.4-0.9-2.2s0.3-1.6,0.9-2.2c0.6-0.6,1.3-0.9,2.1-0.9
	c1,0,1.7,0.4,2.3,1.2V214z M133.8,219.1c0.6,0,1.1-0.2,1.5-0.6c0.4-0.4,0.6-0.9,0.6-1.5s-0.2-1.1-0.6-1.5c-0.4-0.4-0.9-0.6-1.5-0.6
	c-0.6,0-1.1,0.2-1.5,0.6c-0.4,0.4-0.6,0.9-0.6,1.5s0.2,1.1,0.6,1.5C132.7,218.9,133.2,219.1,133.8,219.1z M141.5,213.8
	c0.7,0,1.3,0.2,1.7,0.7c0.4,0.4,0.6,1,0.6,1.8v3.7h-1v-3.6c0-0.5-0.1-0.9-0.4-1.1c-0.3-0.3-0.6-0.4-1.1-0.4c-0.5,0-0.9,0.2-1.3,0.5
	c-0.3,0.3-0.5,0.8-0.5,1.5v3.2h-1v-6h1v0.9C140,214.2,140.7,213.8,141.5,213.8z M148.1,220.2c-0.9,0-1.7-0.3-2.3-0.9
	c-0.6-0.6-0.9-1.4-0.9-2.3s0.3-1.6,0.9-2.2c0.6-0.6,1.4-0.9,2.3-0.9c0.6,0,1.1,0.1,1.6,0.4c0.5,0.3,0.8,0.7,1.1,1.1l-0.9,0.5
	c-0.2-0.3-0.4-0.6-0.7-0.8c-0.3-0.2-0.7-0.3-1.1-0.3c-0.6,0-1.1,0.2-1.5,0.6c-0.4,0.4-0.6,0.9-0.6,1.5c0,0.6,0.2,1.1,0.6,1.5
	c0.4,0.4,0.9,0.6,1.5,0.6c0.4,0,0.8-0.1,1.1-0.3c0.3-0.2,0.6-0.4,0.7-0.8l0.9,0.5c-0.3,0.5-0.6,0.9-1.1,1.1
	C149.3,220,148.7,220.2,148.1,220.2z M152.5,217.5c0.1,0.5,0.3,1,0.7,1.2c0.4,0.3,0.9,0.4,1.4,0.4c0.8,0,1.4-0.3,1.7-0.9l0.9,0.5
	c-0.6,0.9-1.5,1.4-2.6,1.4c-1,0-1.7-0.3-2.3-0.9c-0.6-0.6-0.9-1.4-0.9-2.3c0-0.9,0.3-1.7,0.9-2.3c0.6-0.6,1.3-0.9,2.3-0.9
	c0.9,0,1.6,0.3,2.1,0.9c0.6,0.6,0.8,1.4,0.8,2.2c0,0.2,0,0.3,0,0.5H152.5z M154.6,214.8c-0.6,0-1,0.2-1.4,0.5
	c-0.4,0.3-0.6,0.7-0.7,1.3h4c-0.1-0.6-0.3-1-0.7-1.3C155.5,215,155.1,214.8,154.6,214.8z M54.9,225.6v1.1h-2.5v7.3h-1.1v-7.3h-2.5
	v-1.1H54.9z M55.6,231.5c0.1,0.5,0.3,1,0.7,1.2c0.4,0.3,0.9,0.4,1.4,0.4c0.8,0,1.4-0.3,1.7-0.9l0.9,0.5c-0.6,0.9-1.5,1.4-2.6,1.4
	c-1,0-1.7-0.3-2.3-0.9c-0.6-0.6-0.9-1.4-0.9-2.3c0-0.9,0.3-1.7,0.9-2.3c0.6-0.6,1.3-0.9,2.3-0.9c0.9,0,1.6,0.3,2.1,0.9
	c0.6,0.6,0.8,1.4,0.8,2.2c0,0.2,0,0.3,0,0.5H55.6z M57.6,228.8c-0.6,0-1,0.2-1.4,0.5c-0.4,0.3-0.6,0.7-0.7,1.3h4
	c-0.1-0.6-0.3-1-0.7-1.3C58.5,229,58.1,228.8,57.6,228.8z M62.5,229.6c0,0.2,0.1,0.4,0.3,0.6c0.2,0.1,0.5,0.2,0.8,0.3
	c0.3,0.1,0.7,0.2,1,0.3c0.3,0.1,0.6,0.3,0.8,0.6c0.2,0.3,0.3,0.6,0.3,1c0,0.5-0.2,1-0.6,1.3c-0.4,0.3-1,0.5-1.6,0.5
	c-0.6,0-1.1-0.1-1.5-0.4s-0.7-0.6-0.9-1l0.9-0.5c0.1,0.3,0.3,0.5,0.5,0.7s0.6,0.3,0.9,0.3c0.3,0,0.6-0.1,0.9-0.2
	c0.2-0.1,0.3-0.3,0.3-0.6c0-0.2-0.1-0.4-0.3-0.6c-0.2-0.1-0.5-0.3-0.8-0.3c-0.3-0.1-0.7-0.2-1-0.3s-0.6-0.3-0.8-0.6s-0.3-0.6-0.3-1
	c0-0.5,0.2-0.9,0.6-1.3c0.4-0.3,0.9-0.5,1.5-0.5c0.5,0,0.9,0.1,1.3,0.3c0.4,0.2,0.7,0.5,0.9,0.9l-0.9,0.5c-0.2-0.5-0.6-0.8-1.3-0.8
	c-0.3,0-0.5,0.1-0.8,0.2C62.6,229.2,62.5,229.4,62.5,229.6z M70.1,229h-1.6v3.3c0,0.3,0.1,0.5,0.2,0.6c0.1,0.1,0.3,0.2,0.5,0.2
	c0.2,0,0.5,0,0.9,0v0.9c-0.9,0.1-1.6,0-2-0.2c-0.4-0.3-0.6-0.8-0.6-1.5V229h-1.2v-1h1.2v-1.4l1-0.3v1.7h1.6V229z M80,234l-0.7-1.9
	h-3.8l-0.7,1.9h-1.2l3.1-8.4h1.3l3.1,8.4H80z M76,231.1h3l-1.5-4.1L76,231.1z M86.2,228h1v6h-1v-0.9c-0.4,0.7-1.1,1-1.9,1
	c-0.7,0-1.3-0.2-1.7-0.7c-0.4-0.4-0.6-1.1-0.6-1.8V228h1v3.6c0,0.5,0.1,0.9,0.4,1.1c0.3,0.3,0.6,0.4,1.1,0.4c0.5,0,0.9-0.2,1.3-0.5
	c0.3-0.3,0.5-0.8,0.5-1.5V228z M92.1,229h-1.6v3.3c0,0.3,0.1,0.5,0.2,0.6c0.1,0.1,0.3,0.2,0.5,0.2c0.2,0,0.5,0,0.9,0v0.9
	c-0.9,0.1-1.6,0-2-0.2c-0.4-0.3-0.6-0.8-0.6-1.5V229h-1.2v-1h1.2v-1.4l1-0.3v1.7h1.6V229z M98.1,233.2c-0.6,0.6-1.4,0.9-2.2,0.9
	c-0.9,0-1.6-0.3-2.2-0.9c-0.6-0.6-0.9-1.4-0.9-2.2s0.3-1.6,0.9-2.2c0.6-0.6,1.4-0.9,2.2-0.9c0.9,0,1.6,0.3,2.2,0.9
	c0.6,0.6,0.9,1.4,0.9,2.2S98.7,232.6,98.1,233.2z M95.8,233.1c0.6,0,1.1-0.2,1.5-0.6c0.4-0.4,0.6-0.9,0.6-1.5s-0.2-1.1-0.6-1.5
	c-0.4-0.4-0.9-0.6-1.5-0.6c-0.6,0-1.1,0.2-1.5,0.6c-0.4,0.4-0.6,0.9-0.6,1.5s0.2,1.1,0.6,1.5C94.7,232.9,95.2,233.1,95.8,233.1z
	 M106.7,227.8c0.7,0,1.2,0.2,1.6,0.7c0.4,0.4,0.6,1,0.6,1.8v3.7h-1v-3.7c0-0.5-0.1-0.8-0.4-1.1c-0.2-0.3-0.6-0.4-1-0.4
	c-0.4,0-0.8,0.2-1.1,0.5c-0.3,0.3-0.4,0.8-0.4,1.4v3.3h-1v-3.7c0-0.5-0.1-0.8-0.3-1.1c-0.2-0.3-0.5-0.4-0.9-0.4
	c-0.4,0-0.8,0.2-1.1,0.5c-0.3,0.3-0.4,0.8-0.4,1.4v3.3h-1v-6h1v0.8c0.4-0.6,1-1,1.8-1c0.8,0,1.4,0.3,1.8,1
	C105.2,228.2,105.9,227.8,106.7,227.8z M115.4,228h1v6h-1v-1c-0.5,0.8-1.3,1.2-2.3,1.2c-0.8,0-1.6-0.3-2.1-0.9
	c-0.6-0.6-0.9-1.4-0.9-2.2s0.3-1.6,0.9-2.2c0.6-0.6,1.3-0.9,2.1-0.9c1,0,1.7,0.4,2.3,1.2V228z M113.2,233.1c0.6,0,1.1-0.2,1.5-0.6
	c0.4-0.4,0.6-0.9,0.6-1.5s-0.2-1.1-0.6-1.5c-0.4-0.4-0.9-0.6-1.5-0.6c-0.6,0-1.1,0.2-1.5,0.6c-0.4,0.4-0.6,0.9-0.6,1.5
	s0.2,1.1,0.6,1.5C112.1,232.9,112.6,233.1,113.2,233.1z M121.3,229h-1.6v3.3c0,0.3,0.1,0.5,0.2,0.6c0.1,0.1,0.3,0.2,0.5,0.2
	c0.2,0,0.5,0,0.9,0v0.9c-0.9,0.1-1.6,0-2-0.2c-0.4-0.3-0.6-0.8-0.6-1.5V229h-1.2v-1h1.2v-1.4l1-0.3v1.7h1.6V229z M123,226.9
	c-0.2,0-0.4-0.1-0.5-0.2c-0.1-0.1-0.2-0.3-0.2-0.5s0.1-0.4,0.2-0.5c0.1-0.1,0.3-0.2,0.5-0.2c0.2,0,0.4,0.1,0.5,0.2
	c0.1,0.1,0.2,0.3,0.2,0.5s-0.1,0.4-0.2,0.5S123.2,226.9,123,226.9z M122.5,234v-6h1v6H122.5z M130.2,233.2c-0.6,0.6-1.4,0.9-2.2,0.9
	c-0.9,0-1.6-0.3-2.2-0.9c-0.6-0.6-0.9-1.4-0.9-2.2s0.3-1.6,0.9-2.2c0.6-0.6,1.4-0.9,2.2-0.9c0.9,0,1.6,0.3,2.2,0.9s0.9,1.4,0.9,2.2
	S130.8,232.6,130.2,233.2z M128,233.1c0.6,0,1.1-0.2,1.5-0.6c0.4-0.4,0.6-0.9,0.6-1.5s-0.2-1.1-0.6-1.5c-0.4-0.4-0.9-0.6-1.5-0.6
	c-0.6,0-1.1,0.2-1.5,0.6c-0.4,0.4-0.6,0.9-0.6,1.5s0.2,1.1,0.6,1.5C126.9,232.9,127.4,233.1,128,233.1z M135.4,227.8
	c0.7,0,1.3,0.2,1.7,0.7c0.4,0.4,0.6,1,0.6,1.8v3.7h-1v-3.6c0-0.5-0.1-0.9-0.4-1.1c-0.3-0.3-0.6-0.4-1.1-0.4c-0.5,0-0.9,0.2-1.3,0.5
	c-0.3,0.3-0.5,0.8-0.5,1.5v3.2h-1v-6h1v0.9C133.8,228.2,134.5,227.8,135.4,227.8z"/>
<path class="st4" d="M24.4,273.9h3.9v1.1h-5v-8.4h5v1.1h-3.8v2.6h3.5v1h-3.5V273.9z M34.7,275h-1.2l-1.7-2.3l-1.7,2.3h-1.2l2.3-3.1
	L29,269h1.2l1.5,2.1l1.5-2.1h1.2l-2.2,2.9L34.7,275z M39,268.8c0.8,0,1.6,0.3,2.1,0.9c0.6,0.6,0.9,1.4,0.9,2.2s-0.3,1.6-0.9,2.2
	c-0.6,0.6-1.3,0.9-2.1,0.9c-1,0-1.7-0.4-2.3-1.2v3.4h-1V269h1v1C37.2,269.2,38,268.8,39,268.8z M38.9,274.1c0.6,0,1.1-0.2,1.5-0.6
	c0.4-0.4,0.6-0.9,0.6-1.5s-0.2-1.1-0.6-1.5c-0.4-0.4-0.9-0.6-1.5-0.6c-0.6,0-1.1,0.2-1.5,0.6c-0.4,0.4-0.6,0.9-0.6,1.5
	s0.2,1.1,0.6,1.5C37.7,273.9,38.3,274.1,38.9,274.1z M44,272.5c0.1,0.5,0.3,1,0.7,1.2c0.4,0.3,0.9,0.4,1.4,0.4
	c0.8,0,1.4-0.3,1.7-0.9l0.9,0.5c-0.6,0.9-1.5,1.4-2.6,1.4c-1,0-1.7-0.3-2.3-0.9c-0.6-0.6-0.9-1.4-0.9-2.3c0-0.9,0.3-1.7,0.9-2.3
	c0.6-0.6,1.3-0.9,2.3-0.9c0.9,0,1.6,0.3,2.1,0.9c0.6,0.6,0.8,1.4,0.8,2.2c0,0.2,0,0.3,0,0.5H44z M46.1,269.8c-0.6,0-1,0.2-1.4,0.5
	c-0.4,0.3-0.6,0.7-0.7,1.3h4c-0.1-0.6-0.3-1-0.7-1.3C47,270,46.6,269.8,46.1,269.8z M51.3,270c0.3-0.7,1-1.1,1.9-1.1v1.1
	c-0.5,0-1,0.1-1.3,0.4s-0.6,0.8-0.6,1.4v3.2h-1v-6h1V270z M57.6,270H56v3.3c0,0.3,0.1,0.5,0.2,0.6c0.1,0.1,0.3,0.2,0.5,0.2
	c0.2,0,0.5,0,0.9,0v0.9c-0.9,0.1-1.6,0-2-0.2c-0.4-0.3-0.6-0.8-0.6-1.5V270h-1.2v-1H55v-1.4l1-0.3v1.7h1.6V270z M64.7,275.2
	c-0.8,0-1.5-0.2-2-0.6c-0.6-0.4-0.9-0.9-1.2-1.5l1-0.6c0.3,1,1.1,1.5,2.2,1.5c0.6,0,1-0.1,1.3-0.3c0.3-0.2,0.5-0.6,0.5-0.9
	c0-0.4-0.2-0.7-0.5-0.9c-0.3-0.2-0.8-0.4-1.5-0.6c-0.4-0.1-0.6-0.2-0.8-0.3c-0.2-0.1-0.4-0.2-0.7-0.3c-0.3-0.1-0.5-0.3-0.6-0.4
	c-0.1-0.2-0.3-0.3-0.4-0.6c-0.1-0.2-0.2-0.5-0.2-0.8c0-0.7,0.3-1.3,0.8-1.7c0.5-0.4,1.1-0.6,1.9-0.6c0.7,0,1.2,0.2,1.7,0.5
	c0.5,0.3,0.9,0.8,1.1,1.3l-0.9,0.5c-0.4-0.9-1-1.3-1.9-1.3c-0.5,0-0.8,0.1-1.1,0.3c-0.3,0.2-0.4,0.5-0.4,0.9c0,0.4,0.1,0.6,0.4,0.8
	s0.7,0.4,1.4,0.6c0.2,0.1,0.4,0.1,0.5,0.2c0.1,0,0.2,0.1,0.4,0.2c0.2,0.1,0.4,0.1,0.5,0.2s0.2,0.1,0.4,0.2c0.2,0.1,0.3,0.2,0.4,0.3
	c0.1,0.1,0.2,0.2,0.3,0.3c0.1,0.1,0.2,0.2,0.2,0.3c0,0.1,0.1,0.3,0.1,0.4c0,0.2,0.1,0.3,0.1,0.5c0,0.7-0.3,1.3-0.8,1.8
	C66.3,274.9,65.6,275.2,64.7,275.2z M74,274.2c-0.6,0.6-1.4,0.9-2.2,0.9c-0.9,0-1.6-0.3-2.2-0.9c-0.6-0.6-0.9-1.4-0.9-2.2
	s0.3-1.6,0.9-2.2c0.6-0.6,1.4-0.9,2.2-0.9c0.9,0,1.6,0.3,2.2,0.9s0.9,1.4,0.9,2.2S74.6,273.6,74,274.2z M71.8,274.1
	c0.6,0,1.1-0.2,1.5-0.6c0.4-0.4,0.6-0.9,0.6-1.5s-0.2-1.1-0.6-1.5c-0.4-0.4-0.9-0.6-1.5-0.6c-0.6,0-1.1,0.2-1.5,0.6
	c-0.4,0.4-0.6,0.9-0.6,1.5s0.2,1.1,0.6,1.5C70.7,273.9,71.2,274.1,71.8,274.1z M76.2,275v-8.8h1v8.8H76.2z M83,269h1v6h-1v-0.9
	c-0.4,0.7-1.1,1-1.9,1c-0.7,0-1.3-0.2-1.7-0.7c-0.4-0.4-0.6-1.1-0.6-1.8V269h1v3.6c0,0.5,0.1,0.9,0.4,1.1c0.3,0.3,0.6,0.4,1.1,0.4
	c0.5,0,0.9-0.2,1.3-0.5c0.3-0.3,0.5-0.8,0.5-1.5V269z M88.9,270h-1.6v3.3c0,0.3,0.1,0.5,0.2,0.6c0.1,0.1,0.3,0.2,0.5,0.2
	c0.2,0,0.5,0,0.9,0v0.9c-0.9,0.1-1.6,0-2-0.2c-0.4-0.3-0.6-0.8-0.6-1.5V270H85v-1h1.2v-1.4l1-0.3v1.7h1.6V270z M90.6,267.9
	c-0.2,0-0.4-0.1-0.5-0.2c-0.1-0.1-0.2-0.3-0.2-0.5c0-0.2,0.1-0.4,0.2-0.5c0.1-0.1,0.3-0.2,0.5-0.2c0.2,0,0.4,0.1,0.5,0.2
	c0.1,0.1,0.2,0.3,0.2,0.5c0,0.2-0.1,0.4-0.2,0.5C91,267.8,90.8,267.9,90.6,267.9z M90.1,275v-6h1v6H90.1z M97.8,274.2
	c-0.6,0.6-1.4,0.9-2.2,0.9c-0.9,0-1.6-0.3-2.2-0.9c-0.6-0.6-0.9-1.4-0.9-2.2s0.3-1.6,0.9-2.2c0.6-0.6,1.4-0.9,2.2-0.9
	c0.9,0,1.6,0.3,2.2,0.9c0.6,0.6,0.9,1.4,0.9,2.2S98.4,273.6,97.8,274.2z M95.6,274.1c0.6,0,1.1-0.2,1.5-0.6c0.4-0.4,0.6-0.9,0.6-1.5
	s-0.2-1.1-0.6-1.5c-0.4-0.4-0.9-0.6-1.5-0.6c-0.6,0-1.1,0.2-1.5,0.6c-0.4,0.4-0.6,0.9-0.6,1.5s0.2,1.1,0.6,1.5
	C94.5,273.9,95,274.1,95.6,274.1z M102.9,268.8c0.7,0,1.3,0.2,1.7,0.7c0.4,0.4,0.6,1,0.6,1.8v3.7h-1v-3.6c0-0.5-0.1-0.9-0.4-1.1
	c-0.3-0.3-0.6-0.4-1.1-0.4c-0.5,0-0.9,0.2-1.3,0.5c-0.3,0.3-0.5,0.8-0.5,1.5v3.2h-1v-6h1v0.9C101.4,269.2,102.1,268.8,102.9,268.8z
	 M115.4,275l-0.7-1.9h-3.8l-0.7,1.9H109l3.1-8.4h1.3l3.1,8.4H115.4z M111.3,272.1h3l-1.5-4.1L111.3,272.1z M118.5,270
	c0.3-0.7,1-1.1,1.9-1.1v1.1c-0.5,0-1,0.1-1.3,0.4c-0.4,0.3-0.6,0.8-0.6,1.4v3.2h-1v-6h1V270z M123.9,275.2c-0.9,0-1.7-0.3-2.3-0.9
	c-0.6-0.6-0.9-1.4-0.9-2.3s0.3-1.6,0.9-2.2c0.6-0.6,1.4-0.9,2.3-0.9c0.6,0,1.1,0.1,1.6,0.4c0.5,0.3,0.8,0.7,1.1,1.1l-0.9,0.5
	c-0.2-0.3-0.4-0.6-0.7-0.8c-0.3-0.2-0.7-0.3-1.1-0.3c-0.6,0-1.1,0.2-1.5,0.6c-0.4,0.4-0.6,0.9-0.6,1.5c0,0.6,0.2,1.1,0.6,1.5
	c0.4,0.4,0.9,0.6,1.5,0.6c0.4,0,0.8-0.1,1.1-0.3c0.3-0.2,0.6-0.4,0.7-0.8l0.9,0.5c-0.3,0.5-0.6,0.9-1.1,1.1
	C125,275,124.4,275.2,123.9,275.2z M130.6,268.8c0.7,0,1.3,0.2,1.7,0.7c0.4,0.4,0.6,1,0.6,1.8v3.7h-1v-3.6c0-0.5-0.1-0.9-0.4-1.1
	c-0.3-0.3-0.6-0.4-1.1-0.4c-0.5,0-0.9,0.2-1.3,0.5c-0.3,0.3-0.5,0.8-0.5,1.5v3.2h-1v-8.4h1v3.3C129.1,269.2,129.7,268.8,130.6,268.8
	z M134.9,267.9c-0.2,0-0.4-0.1-0.5-0.2c-0.1-0.1-0.2-0.3-0.2-0.5c0-0.2,0.1-0.4,0.2-0.5c0.1-0.1,0.3-0.2,0.5-0.2
	c0.2,0,0.4,0.1,0.5,0.2c0.1,0.1,0.2,0.3,0.2,0.5c0,0.2-0.1,0.4-0.2,0.5C135.3,267.8,135.1,267.9,134.9,267.9z M134.4,275v-6h1v6
	H134.4z M140.3,270h-1.6v3.3c0,0.3,0.1,0.5,0.2,0.6c0.1,0.1,0.3,0.2,0.5,0.2c0.2,0,0.5,0,0.9,0v0.9c-0.9,0.1-1.6,0-2-0.2
	c-0.4-0.3-0.6-0.8-0.6-1.5V270h-1.2v-1h1.2v-1.4l1-0.3v1.7h1.6V270z M141.9,272.5c0.1,0.5,0.3,1,0.7,1.2c0.4,0.3,0.9,0.4,1.4,0.4
	c0.8,0,1.4-0.3,1.7-0.9l0.9,0.5c-0.6,0.9-1.5,1.4-2.6,1.4c-1,0-1.7-0.3-2.3-0.9c-0.6-0.6-0.9-1.4-0.9-2.3c0-0.9,0.3-1.7,0.9-2.3
	c0.6-0.6,1.3-0.9,2.3-0.9c0.9,0,1.6,0.3,2.1,0.9c0.6,0.6,0.8,1.4,0.8,2.2c0,0.2,0,0.3,0,0.5H141.9z M144,269.8c-0.6,0-1,0.2-1.4,0.5
	c-0.4,0.3-0.6,0.7-0.7,1.3h4c-0.1-0.6-0.3-1-0.7-1.3S144.5,269.8,144,269.8z M151,275.2c-0.9,0-1.7-0.3-2.3-0.9
	c-0.6-0.6-0.9-1.4-0.9-2.3s0.3-1.6,0.9-2.2c0.6-0.6,1.4-0.9,2.3-0.9c0.6,0,1.1,0.1,1.6,0.4c0.5,0.3,0.8,0.7,1.1,1.1l-0.9,0.5
	c-0.2-0.3-0.4-0.6-0.7-0.8c-0.3-0.2-0.7-0.3-1.1-0.3c-0.6,0-1.1,0.2-1.5,0.6c-0.4,0.4-0.6,0.9-0.6,1.5c0,0.6,0.2,1.1,0.6,1.5
	c0.4,0.4,0.9,0.6,1.5,0.6c0.4,0,0.8-0.1,1.1-0.3c0.3-0.2,0.6-0.4,0.7-0.8l0.9,0.5c-0.3,0.5-0.6,0.9-1.1,1.1
	C152.1,275,151.6,275.2,151,275.2z M158,270h-1.6v3.3c0,0.3,0.1,0.5,0.2,0.6c0.1,0.1,0.3,0.2,0.5,0.2c0.2,0,0.5,0,0.9,0v0.9
	c-0.9,0.1-1.6,0-2-0.2c-0.4-0.3-0.6-0.8-0.6-1.5V270h-1.2v-1h1.2v-1.4l1-0.3v1.7h1.6V270z M159.8,270.6c0,0.2,0.1,0.4,0.3,0.6
	c0.2,0.1,0.5,0.2,0.8,0.3c0.3,0.1,0.7,0.2,1,0.3c0.3,0.1,0.6,0.3,0.8,0.6c0.2,0.3,0.3,0.6,0.3,1c0,0.5-0.2,1-0.6,1.3
	c-0.4,0.3-1,0.5-1.6,0.5c-0.6,0-1.1-0.1-1.5-0.4c-0.4-0.3-0.7-0.6-0.9-1l0.9-0.5c0.1,0.3,0.3,0.5,0.5,0.7c0.3,0.2,0.6,0.3,0.9,0.3
	c0.3,0,0.6-0.1,0.9-0.2c0.2-0.1,0.3-0.3,0.3-0.6c0-0.2-0.1-0.4-0.3-0.6c-0.2-0.1-0.5-0.3-0.8-0.3c-0.3-0.1-0.7-0.2-1-0.3
	s-0.6-0.3-0.8-0.6c-0.2-0.3-0.3-0.6-0.3-1c0-0.5,0.2-0.9,0.6-1.3c0.4-0.3,0.9-0.5,1.5-0.5c0.5,0,0.9,0.1,1.3,0.3
	c0.4,0.2,0.7,0.5,0.9,0.9l-0.9,0.5c-0.2-0.5-0.6-0.8-1.3-0.8c-0.3,0-0.5,0.1-0.8,0.2C159.9,270.2,159.8,270.4,159.8,270.6z"/>
<path class="st0" d="M388,40.9H204v258h184V40.9z"/>
<path class="st1" d="M388.2,1H204.1v40.4h184.1V1z"/>
<path class="st2" d="M388.2,1H204.1v40.4h184.1V1z"/>
<path class="st3" d="M273.7,23.7c-0.7,0.6-1.6,0.9-2.6,0.9c-1.1,0-2-0.3-2.6-0.9c-0.7-0.6-1-1.4-1-2.5v-6.4h1.6v6.4
	c0,0.6,0.2,1.1,0.5,1.4c0.3,0.3,0.9,0.5,1.6,0.5s1.2-0.2,1.5-0.5c0.3-0.3,0.5-0.8,0.5-1.4v-6.4h1.6v6.4
	C274.8,22.3,274.4,23.1,273.7,23.7z M277.7,19.5c0,0.2,0.1,0.4,0.4,0.6c0.3,0.1,0.6,0.2,0.9,0.3c0.4,0.1,0.7,0.2,1.1,0.3
	c0.4,0.1,0.7,0.3,0.9,0.7c0.3,0.3,0.4,0.7,0.4,1.2c0,0.7-0.3,1.2-0.8,1.6c-0.5,0.4-1.1,0.6-1.9,0.6c-0.7,0-1.3-0.1-1.8-0.4
	c-0.5-0.3-0.8-0.7-1.1-1.2l1.3-0.7c0.2,0.7,0.7,1,1.5,1c0.8,0,1.2-0.3,1.2-0.8c0-0.2-0.1-0.4-0.4-0.5c-0.2-0.1-0.6-0.3-0.9-0.3
	c-0.4-0.1-0.7-0.2-1.1-0.3c-0.4-0.1-0.7-0.3-0.9-0.6c-0.2-0.3-0.4-0.7-0.4-1.1c0-0.6,0.2-1.1,0.7-1.5c0.5-0.4,1.1-0.6,1.8-0.6
	c0.6,0,1.1,0.1,1.5,0.4c0.5,0.2,0.8,0.6,1,1l-1.3,0.7c-0.2-0.5-0.7-0.8-1.3-0.8c-0.3,0-0.5,0.1-0.7,0.2
	C277.8,19,277.7,19.2,277.7,19.5z M288,17.6h1.5v6.9H288v-1c-0.6,0.8-1.4,1.2-2.4,1.2c-0.9,0-1.8-0.3-2.4-1c-0.7-0.7-1-1.6-1-2.6
	c0-1,0.3-1.9,1-2.6c0.7-0.7,1.5-1,2.4-1c1,0,1.9,0.4,2.4,1.2V17.6z M284.3,22.6c0.4,0.4,0.9,0.6,1.6,0.6s1.1-0.2,1.6-0.6
	c0.4-0.4,0.6-1,0.6-1.6c0-0.6-0.2-1.2-0.6-1.6c-0.4-0.4-0.9-0.6-1.6-0.6s-1.1,0.2-1.6,0.6c-0.4,0.4-0.6,0.9-0.6,1.6
	C283.7,21.6,283.9,22.2,284.3,22.6z M295.2,17.4c0.9,0,1.8,0.3,2.4,1c0.7,0.7,1,1.6,1,2.6c0,1-0.3,1.9-1,2.6c-0.7,0.7-1.5,1-2.4,1
	c-1,0-1.9-0.4-2.4-1.2v1h-1.5v-9.6h1.5v3.7C293.3,17.8,294.1,17.4,295.2,17.4z M293.4,22.6c0.4,0.4,0.9,0.6,1.6,0.6
	c0.6,0,1.1-0.2,1.6-0.6c0.4-0.4,0.6-1,0.6-1.6c0-0.6-0.2-1.2-0.6-1.6c-0.4-0.4-0.9-0.6-1.6-0.6c-0.6,0-1.1,0.2-1.6,0.6
	c-0.4,0.4-0.6,0.9-0.6,1.6C292.8,21.6,293,22.2,293.4,22.6z M301.3,16.2c-0.2,0.2-0.4,0.3-0.7,0.3c-0.3,0-0.5-0.1-0.7-0.3
	c-0.2-0.2-0.3-0.4-0.3-0.7c0-0.3,0.1-0.5,0.3-0.7c0.2-0.2,0.4-0.3,0.7-0.3c0.3,0,0.5,0.1,0.7,0.3c0.2,0.2,0.3,0.4,0.3,0.7
	C301.6,15.8,301.5,16.1,301.3,16.2z M299.9,24.4v-6.9h1.5v6.9H299.9z M303.2,24.4V14.4h1.5v10.1H303.2z M307.8,16.2
	c-0.2,0.2-0.4,0.3-0.7,0.3c-0.3,0-0.5-0.1-0.7-0.3c-0.2-0.2-0.3-0.4-0.3-0.7c0-0.3,0.1-0.5,0.3-0.7c0.2-0.2,0.4-0.3,0.7-0.3
	c0.3,0,0.5,0.1,0.7,0.3c0.2,0.2,0.3,0.4,0.3,0.7C308.1,15.8,308,16.1,307.8,16.2z M306.4,24.4v-6.9h1.5v6.9H306.4z M313.4,19h-1.7
	v3.3c0,0.3,0.1,0.5,0.2,0.6c0.1,0.1,0.3,0.2,0.6,0.2c0.3,0,0.6,0,1,0v1.3c-1.1,0.1-2,0-2.5-0.3c-0.5-0.3-0.7-1-0.7-1.9V19H309v-1.4
	h1.3v-1.5l1.5-0.4v1.9h1.7V19z M319.6,17.6h1.6l-2.6,7.1c-0.7,1.8-1.8,2.6-3.4,2.5v-1.4c0.5,0,0.8-0.1,1.1-0.3
	c0.3-0.2,0.5-0.6,0.7-1l0.1-0.1l-2.9-6.8h1.6l2.1,5L319.6,17.6z"/>
<path class="st0" d="M376.3,250H215.7c-1.5,0-2.7,1.5-2.7,3.3v33.5c0,1.8,1.2,3.3,2.7,3.3h160.5c1.5,0,2.7-1.5,2.7-3.3v-33.5
	C379,251.5,377.8,250,376.3,250z"/>
<path class="st0" d="M376.3,203H215.7c-1.5,0-2.7,1.5-2.7,3.3v33.5c0,1.8,1.2,3.3,2.7,3.3h160.5c1.5,0,2.7-1.5,2.7-3.3v-33.5
	C379,204.5,377.8,203,376.3,203z"/>
<path class="st0" d="M376.3,156H215.7c-1.5,0-2.7,1.5-2.7,3.3v33.5c0,1.8,1.2,3.3,2.7,3.3h160.5c1.5,0,2.7-1.5,2.7-3.3v-33.5
	C379,157.5,377.8,156,376.3,156z"/>
<path class="st0" d="M376.3,109H215.7c-1.5,0-2.7,1.5-2.7,3.3v33.5c0,1.8,1.2,3.3,2.7,3.3h160.5c1.5,0,2.7-1.5,2.7-3.3v-33.5
	C379,110.5,377.8,109,376.3,109z"/>
<path class="st0" d="M376.3,62H215.7c-1.5,0-2.7,1.5-2.7,3.3v33.5c0,1.8,1.2,3.3,2.7,3.3h160.5c1.5,0,2.7-1.5,2.7-3.3V65.3
	C379,63.5,377.8,62,376.3,62z"/>
<path class="st4" d="M271.1,86l-3-8.4h1.2l2.4,7l2.4-7h1.2l-3,8.4H271.1z M280.5,80h1v6h-1v-1c-0.5,0.8-1.3,1.2-2.3,1.2
	c-0.8,0-1.6-0.3-2.1-0.9c-0.6-0.6-0.9-1.4-0.9-2.2s0.3-1.6,0.9-2.2c0.6-0.6,1.3-0.9,2.1-0.9c1,0,1.7,0.4,2.3,1.2V80z M278.4,85.1
	c0.6,0,1.1-0.2,1.5-0.6c0.4-0.4,0.6-0.9,0.6-1.5s-0.2-1.1-0.6-1.5c-0.4-0.4-0.9-0.6-1.5-0.6c-0.6,0-1.1,0.2-1.5,0.6
	c-0.4,0.4-0.6,0.9-0.6,1.5s0.2,1.1,0.6,1.5C277.3,84.9,277.8,85.1,278.4,85.1z M283.1,86v-8.8h1V86H283.1z M286.3,78.9
	c-0.2,0-0.4-0.1-0.5-0.2c-0.1-0.1-0.2-0.3-0.2-0.5s0.1-0.4,0.2-0.5c0.1-0.1,0.3-0.2,0.5-0.2c0.2,0,0.4,0.1,0.5,0.2
	c0.1,0.1,0.2,0.3,0.2,0.5s-0.1,0.4-0.2,0.5C286.6,78.8,286.5,78.9,286.3,78.9z M285.8,86v-6h1v6H285.8z M293.4,77.6h1V86h-1v-1
	c-0.5,0.8-1.3,1.2-2.3,1.2c-0.8,0-1.6-0.3-2.1-0.9c-0.6-0.6-0.9-1.4-0.9-2.2s0.3-1.6,0.9-2.2c0.6-0.6,1.3-0.9,2.1-0.9
	c1,0,1.7,0.4,2.3,1.2V77.6z M291.2,85.1c0.6,0,1.1-0.2,1.5-0.6c0.4-0.4,0.6-0.9,0.6-1.5s-0.2-1.1-0.6-1.5c-0.4-0.4-0.9-0.6-1.5-0.6
	c-0.6,0-1.1,0.2-1.5,0.6c-0.4,0.4-0.6,0.9-0.6,1.5s0.2,1.1,0.6,1.5C290.1,84.9,290.6,85.1,291.2,85.1z M301,80h1v6h-1v-1
	c-0.5,0.8-1.3,1.2-2.3,1.2c-0.8,0-1.6-0.3-2.1-0.9c-0.6-0.6-0.9-1.4-0.9-2.2s0.3-1.6,0.9-2.2c0.6-0.6,1.3-0.9,2.1-0.9
	c1,0,1.7,0.4,2.3,1.2V80z M298.8,85.1c0.6,0,1.1-0.2,1.5-0.6c0.4-0.4,0.6-0.9,0.6-1.5s-0.2-1.1-0.6-1.5c-0.4-0.4-0.9-0.6-1.5-0.6
	c-0.6,0-1.1,0.2-1.5,0.6c-0.4,0.4-0.6,0.9-0.6,1.5s0.2,1.1,0.6,1.5C297.7,84.9,298.2,85.1,298.8,85.1z M306.8,81h-1.6v3.3
	c0,0.3,0.1,0.5,0.2,0.6c0.1,0.1,0.3,0.2,0.5,0.2c0.2,0,0.5,0,0.9,0V86c-0.9,0.1-1.6,0-2-0.2c-0.4-0.3-0.6-0.8-0.6-1.5V81H303v-1h1.2
	v-1.4l1-0.3V80h1.6V81z M308.6,78.9c-0.2,0-0.4-0.1-0.5-0.2c-0.1-0.1-0.2-0.3-0.2-0.5s0.1-0.4,0.2-0.5c0.1-0.1,0.3-0.2,0.5-0.2
	c0.2,0,0.4,0.1,0.5,0.2c0.1,0.1,0.2,0.3,0.2,0.5s-0.1,0.4-0.2,0.5C309,78.8,308.8,78.9,308.6,78.9z M308.1,86v-6h1v6H308.1z
	 M315.8,85.2c-0.6,0.6-1.4,0.9-2.2,0.9s-1.6-0.3-2.2-0.9c-0.6-0.6-0.9-1.4-0.9-2.2s0.3-1.6,0.9-2.2c0.6-0.6,1.4-0.9,2.2-0.9
	s1.6,0.3,2.2,0.9c0.6,0.6,0.9,1.4,0.9,2.2S316.4,84.6,315.8,85.2z M313.5,85.1c0.6,0,1.1-0.2,1.5-0.6c0.4-0.4,0.6-0.9,0.6-1.5
	s-0.2-1.1-0.6-1.5c-0.4-0.4-0.9-0.6-1.5-0.6c-0.6,0-1.1,0.2-1.5,0.6c-0.4,0.4-0.6,0.9-0.6,1.5s0.2,1.1,0.6,1.5
	C312.5,84.9,313,85.1,313.5,85.1z M320.9,79.8c0.7,0,1.3,0.2,1.7,0.7c0.4,0.4,0.6,1,0.6,1.8V86h-1v-3.6c0-0.5-0.1-0.9-0.4-1.1
	c-0.3-0.3-0.6-0.4-1.1-0.4c-0.5,0-0.9,0.2-1.3,0.5c-0.3,0.3-0.5,0.8-0.5,1.5V86h-1v-6h1v0.9C319.4,80.2,320.1,79.8,320.9,79.8z"/>
<path class="st4" d="M276.8,133.2c-1.3,0-2.3-0.4-3.2-1.3c-0.8-0.8-1.2-1.9-1.2-3.1c0-1.2,0.4-2.3,1.2-3.1c0.8-0.8,1.9-1.3,3.2-1.3
	c0.8,0,1.5,0.2,2.1,0.6c0.6,0.4,1.2,0.9,1.5,1.5l-1,0.6c-0.2-0.5-0.6-0.8-1.1-1.1c-0.5-0.3-1-0.4-1.6-0.4c-1,0-1.8,0.3-2.4,0.9
	c-0.6,0.6-0.9,1.4-0.9,2.3c0,0.9,0.3,1.7,0.9,2.3c0.6,0.6,1.4,0.9,2.4,0.9c0.6,0,1.1-0.1,1.6-0.4c0.5-0.3,0.8-0.6,1.1-1.1l1,0.6
	c-0.4,0.6-0.9,1.1-1.5,1.5C278.3,133,277.6,133.2,276.8,133.2z M286.7,132.2c-0.6,0.6-1.4,0.9-2.2,0.9c-0.9,0-1.6-0.3-2.2-0.9
	c-0.6-0.6-0.9-1.4-0.9-2.2s0.3-1.6,0.9-2.2c0.6-0.6,1.4-0.9,2.2-0.9c0.9,0,1.6,0.3,2.2,0.9c0.6,0.6,0.9,1.4,0.9,2.2
	S287.3,131.6,286.7,132.2z M284.4,132.1c0.6,0,1.1-0.2,1.5-0.6c0.4-0.4,0.6-0.9,0.6-1.5s-0.2-1.1-0.6-1.5c-0.4-0.4-0.9-0.6-1.5-0.6
	c-0.6,0-1.1,0.2-1.5,0.6c-0.4,0.4-0.6,0.9-0.6,1.5s0.2,1.1,0.6,1.5C283.3,131.9,283.8,132.1,284.4,132.1z M291.8,126.8
	c0.7,0,1.3,0.2,1.7,0.7c0.4,0.4,0.6,1,0.6,1.8v3.7h-1v-3.6c0-0.5-0.1-0.9-0.4-1.1c-0.3-0.3-0.6-0.4-1.1-0.4c-0.5,0-0.9,0.2-1.3,0.5
	c-0.3,0.3-0.5,0.8-0.5,1.5v3.2h-1v-6h1v0.9C290.3,127.2,290.9,126.8,291.8,126.8z M298.4,133.2c-0.9,0-1.7-0.3-2.3-0.9
	c-0.6-0.6-0.9-1.4-0.9-2.3s0.3-1.6,0.9-2.2c0.6-0.6,1.4-0.9,2.3-0.9c0.6,0,1.1,0.1,1.6,0.4c0.5,0.3,0.8,0.7,1.1,1.1l-0.9,0.5
	c-0.2-0.3-0.4-0.6-0.7-0.8c-0.3-0.2-0.7-0.3-1.1-0.3c-0.6,0-1.1,0.2-1.5,0.6c-0.4,0.4-0.6,0.9-0.6,1.5c0,0.6,0.2,1.1,0.6,1.5
	c0.4,0.4,0.9,0.6,1.5,0.6c0.4,0,0.8-0.1,1.1-0.3c0.3-0.2,0.6-0.4,0.7-0.8l0.9,0.5c-0.3,0.5-0.6,0.9-1.1,1.1
	C299.5,133,299,133.2,298.4,133.2z M302.8,130.5c0.1,0.5,0.3,1,0.7,1.2c0.4,0.3,0.9,0.4,1.4,0.4c0.8,0,1.4-0.3,1.7-0.9l0.9,0.5
	c-0.6,0.9-1.5,1.4-2.6,1.4c-1,0-1.7-0.3-2.3-0.9c-0.6-0.6-0.9-1.4-0.9-2.3c0-0.9,0.3-1.7,0.9-2.3c0.6-0.6,1.3-0.9,2.3-0.9
	c0.9,0,1.6,0.3,2.1,0.9c0.6,0.6,0.8,1.4,0.8,2.2c0,0.2,0,0.3,0,0.5H302.8z M304.9,127.8c-0.6,0-1,0.2-1.4,0.5
	c-0.4,0.3-0.6,0.7-0.7,1.3h4c-0.1-0.6-0.3-1-0.7-1.3C305.8,128,305.4,127.8,304.9,127.8z M312.4,126.8c0.8,0,1.6,0.3,2.1,0.9
	c0.6,0.6,0.9,1.4,0.9,2.2s-0.3,1.6-0.9,2.2c-0.6,0.6-1.3,0.9-2.1,0.9c-1,0-1.7-0.4-2.3-1.2v3.4h-1V127h1v1
	C310.6,127.2,311.4,126.8,312.4,126.8z M312.2,132.1c0.6,0,1.1-0.2,1.5-0.6c0.4-0.4,0.6-0.9,0.6-1.5s-0.2-1.1-0.6-1.5
	c-0.4-0.4-0.9-0.6-1.5-0.6c-0.6,0-1.1,0.2-1.5,0.6c-0.4,0.4-0.6,0.9-0.6,1.5s0.2,1.1,0.6,1.5C311.1,131.9,311.6,132.1,312.2,132.1z
	 M319.8,128h-1.6v3.3c0,0.3,0.1,0.5,0.2,0.6c0.1,0.1,0.3,0.2,0.5,0.2c0.2,0,0.5,0,0.9,0v0.9c-0.9,0.1-1.6,0-2-0.2
	c-0.4-0.3-0.6-0.8-0.6-1.5V128H316v-1h1.2v-1.4l1-0.3v1.7h1.6V128z"/>
<path class="st4" d="M281.2,171.6c1.1,0,2.1,0.4,2.8,1.2c0.8,0.8,1.1,1.8,1.1,3c0,1.2-0.4,2.2-1.1,3c-0.8,0.8-1.7,1.2-2.8,1.2h-3.3
	v-8.4H281.2z M281.2,178.9c0.9,0,1.6-0.3,2.1-0.9c0.5-0.6,0.8-1.3,0.8-2.2s-0.3-1.6-0.8-2.2s-1.2-0.9-2.1-0.9H279v6.3H281.2z
	 M287.1,177.5c0.1,0.5,0.3,1,0.7,1.2c0.4,0.3,0.9,0.4,1.4,0.4c0.8,0,1.4-0.3,1.7-0.9l0.9,0.5c-0.6,0.9-1.5,1.4-2.6,1.4
	c-1,0-1.7-0.3-2.3-0.9c-0.6-0.6-0.9-1.4-0.9-2.3c0-0.9,0.3-1.7,0.9-2.3c0.6-0.6,1.3-0.9,2.3-0.9c0.9,0,1.6,0.3,2.1,0.9
	c0.6,0.6,0.8,1.4,0.8,2.2c0,0.2,0,0.3,0,0.5H287.1z M289.2,174.8c-0.6,0-1,0.2-1.4,0.5c-0.4,0.3-0.6,0.7-0.7,1.3h4
	c-0.1-0.6-0.3-1-0.7-1.3C290.1,175,289.7,174.8,289.2,174.8z M294.1,175.6c0,0.2,0.1,0.4,0.3,0.6c0.2,0.1,0.5,0.2,0.8,0.3
	c0.3,0.1,0.7,0.2,1,0.3c0.3,0.1,0.6,0.3,0.8,0.6c0.2,0.3,0.3,0.6,0.3,1c0,0.5-0.2,1-0.6,1.3c-0.4,0.3-1,0.5-1.6,0.5
	c-0.6,0-1.1-0.1-1.5-0.4c-0.4-0.3-0.7-0.6-0.9-1l0.9-0.5c0.1,0.3,0.3,0.5,0.5,0.7c0.3,0.2,0.6,0.3,0.9,0.3c0.3,0,0.6-0.1,0.9-0.2
	c0.2-0.1,0.3-0.3,0.3-0.6c0-0.2-0.1-0.4-0.3-0.6c-0.2-0.1-0.5-0.3-0.8-0.3c-0.3-0.1-0.7-0.2-1-0.3s-0.6-0.3-0.8-0.6s-0.3-0.6-0.3-1
	c0-0.5,0.2-0.9,0.6-1.3c0.4-0.3,0.9-0.5,1.5-0.5c0.5,0,0.9,0.1,1.3,0.3c0.4,0.2,0.7,0.5,0.9,0.9l-0.9,0.5c-0.2-0.5-0.6-0.8-1.3-0.8
	c-0.3,0-0.5,0.1-0.8,0.2C294.2,175.2,294.1,175.4,294.1,175.6z M299.1,172.9c-0.2,0-0.4-0.1-0.5-0.2c-0.1-0.1-0.2-0.3-0.2-0.5
	s0.1-0.4,0.2-0.5c0.1-0.1,0.3-0.2,0.5-0.2c0.2,0,0.4,0.1,0.5,0.2c0.1,0.1,0.2,0.3,0.2,0.5s-0.1,0.4-0.2,0.5S299.3,172.9,299.1,172.9
	z M298.6,180v-6h1v6H298.6z M306.2,174h1v5.7c0,0.9-0.3,1.6-0.9,2.1c-0.6,0.5-1.3,0.7-2.2,0.7c-0.7,0-1.3-0.1-1.7-0.4
	c-0.5-0.2-0.9-0.6-1.1-1.1l0.9-0.5c0.3,0.7,1,1,2,1c0.6,0,1.1-0.2,1.5-0.5c0.4-0.3,0.5-0.8,0.5-1.3v-0.9c-0.5,0.8-1.3,1.2-2.3,1.2
	c-0.9,0-1.6-0.3-2.2-0.9s-0.9-1.3-0.9-2.2c0-0.9,0.3-1.6,0.9-2.2c0.6-0.6,1.3-0.9,2.2-0.9c1,0,1.7,0.4,2.3,1.2V174z M302.6,178.5
	c0.4,0.4,0.9,0.6,1.5,0.6s1.1-0.2,1.5-0.6c0.4-0.4,0.6-0.9,0.6-1.5c0-0.6-0.2-1.1-0.6-1.5c-0.4-0.4-0.9-0.6-1.5-0.6
	s-1.1,0.2-1.5,0.6c-0.4,0.4-0.6,0.9-0.6,1.5C301.9,177.6,302.2,178.1,302.6,178.5z M311.8,173.8c0.7,0,1.3,0.2,1.7,0.7
	c0.4,0.4,0.6,1,0.6,1.8v3.7h-1v-3.6c0-0.5-0.1-0.9-0.4-1.1c-0.3-0.3-0.6-0.4-1.1-0.4c-0.5,0-0.9,0.2-1.3,0.5
	c-0.3,0.3-0.5,0.8-0.5,1.5v3.2h-1v-6h1v0.9C310.3,174.2,311,173.8,311.8,173.8z"/>
<path class="st4" d="M264.2,227l-1.9-3.2h-2v3.2h-1.1v-8.4h3.4c0.7,0,1.3,0.3,1.8,0.8c0.5,0.5,0.8,1.1,0.8,1.8c0,0.5-0.2,1-0.5,1.5
	c-0.3,0.4-0.7,0.8-1.2,0.9l2,3.4H264.2z M260.4,219.6v3.1h2.2c0.4,0,0.8-0.2,1.1-0.5c0.3-0.3,0.4-0.7,0.4-1.1c0-0.4-0.1-0.8-0.4-1.1
	c-0.3-0.3-0.6-0.5-1.1-0.5H260.4z M266.9,224.5c0.1,0.5,0.3,1,0.7,1.2c0.4,0.3,0.9,0.4,1.4,0.4c0.8,0,1.4-0.3,1.7-0.9l0.9,0.5
	c-0.6,0.9-1.5,1.4-2.6,1.4c-1,0-1.7-0.3-2.3-0.9c-0.6-0.6-0.9-1.4-0.9-2.3c0-0.9,0.3-1.7,0.9-2.3c0.6-0.6,1.3-0.9,2.3-0.9
	c0.9,0,1.6,0.3,2.1,0.9c0.6,0.6,0.8,1.4,0.8,2.2c0,0.2,0,0.3,0,0.5H266.9z M269,221.8c-0.6,0-1,0.2-1.4,0.5
	c-0.4,0.3-0.6,0.7-0.7,1.3h4c-0.1-0.6-0.3-1-0.7-1.3C269.9,222,269.5,221.8,269,221.8z M278.1,221h1v8.4h-1V226
	c-0.5,0.8-1.3,1.2-2.3,1.2c-0.8,0-1.6-0.3-2.1-0.9c-0.6-0.6-0.9-1.4-0.9-2.2s0.3-1.6,0.9-2.2c0.6-0.6,1.3-0.9,2.1-0.9
	c1,0,1.7,0.4,2.3,1.2V221z M276,226.1c0.6,0,1.1-0.2,1.5-0.6c0.4-0.4,0.6-0.9,0.6-1.5s-0.2-1.1-0.6-1.5c-0.4-0.4-0.9-0.6-1.5-0.6
	c-0.6,0-1.1,0.2-1.5,0.6c-0.4,0.4-0.6,0.9-0.6,1.5s0.2,1.1,0.6,1.5C274.9,225.9,275.4,226.1,276,226.1z M284.9,221h1v6h-1v-0.9
	c-0.4,0.7-1.1,1-1.9,1c-0.7,0-1.3-0.2-1.7-0.7c-0.4-0.4-0.6-1.1-0.6-1.8V221h1v3.6c0,0.5,0.1,0.9,0.4,1.1c0.3,0.3,0.6,0.4,1.1,0.4
	c0.5,0,0.9-0.2,1.3-0.5c0.3-0.3,0.5-0.8,0.5-1.5V221z M288.1,219.9c-0.2,0-0.4-0.1-0.5-0.2c-0.1-0.1-0.2-0.3-0.2-0.5
	s0.1-0.4,0.2-0.5c0.1-0.1,0.3-0.2,0.5-0.2c0.2,0,0.4,0.1,0.5,0.2c0.1,0.1,0.2,0.3,0.2,0.5s-0.1,0.4-0.2,0.5
	C288.4,219.8,288.3,219.9,288.1,219.9z M287.5,227v-6h1v6H287.5z M291.2,222c0.3-0.7,1-1.1,1.9-1.1v1.1c-0.5,0-1,0.1-1.3,0.4
	s-0.6,0.8-0.6,1.4v3.2h-1v-6h1V222z M294.5,224.5c0.1,0.5,0.3,1,0.7,1.2c0.4,0.3,0.9,0.4,1.4,0.4c0.8,0,1.4-0.3,1.7-0.9l0.9,0.5
	c-0.6,0.9-1.5,1.4-2.6,1.4c-1,0-1.7-0.3-2.3-0.9c-0.6-0.6-0.9-1.4-0.9-2.3c0-0.9,0.3-1.7,0.9-2.3c0.6-0.6,1.3-0.9,2.3-0.9
	c0.9,0,1.6,0.3,2.1,0.9c0.6,0.6,0.8,1.4,0.8,2.2c0,0.2,0,0.3,0,0.5H294.5z M296.6,221.8c-0.6,0-1,0.2-1.4,0.5
	c-0.4,0.3-0.6,0.7-0.7,1.3h4c-0.1-0.6-0.3-1-0.7-1.3C297.5,222,297.1,221.8,296.6,221.8z M307.3,220.8c0.7,0,1.2,0.2,1.6,0.7
	c0.4,0.4,0.6,1,0.6,1.8v3.7h-1v-3.7c0-0.5-0.1-0.8-0.4-1.1s-0.6-0.4-1-0.4c-0.4,0-0.8,0.2-1.1,0.5c-0.3,0.3-0.4,0.8-0.4,1.4v3.3h-1
	v-3.7c0-0.5-0.1-0.8-0.3-1.1c-0.2-0.3-0.5-0.4-0.9-0.4c-0.4,0-0.8,0.2-1.1,0.5c-0.3,0.3-0.4,0.8-0.4,1.4v3.3h-1v-6h1v0.8
	c0.4-0.6,1-1,1.8-1c0.8,0,1.4,0.3,1.8,1C305.8,221.2,306.4,220.8,307.3,220.8z M311.7,224.5c0.1,0.5,0.3,1,0.7,1.2
	c0.4,0.3,0.9,0.4,1.4,0.4c0.8,0,1.4-0.3,1.7-0.9l0.9,0.5c-0.6,0.9-1.5,1.4-2.6,1.4c-1,0-1.7-0.3-2.3-0.9c-0.6-0.6-0.9-1.4-0.9-2.3
	c0-0.9,0.3-1.7,0.9-2.3c0.6-0.6,1.3-0.9,2.3-0.9c0.9,0,1.6,0.3,2.1,0.9c0.6,0.6,0.8,1.4,0.8,2.2c0,0.2,0,0.3,0,0.5H311.7z
	 M313.8,221.8c-0.6,0-1,0.2-1.4,0.5c-0.4,0.3-0.6,0.7-0.7,1.3h4c-0.1-0.6-0.3-1-0.7-1.3C314.7,222,314.2,221.8,313.8,221.8z
	 M320.9,220.8c0.7,0,1.3,0.2,1.7,0.7c0.4,0.4,0.6,1,0.6,1.8v3.7h-1v-3.6c0-0.5-0.1-0.9-0.4-1.1c-0.3-0.3-0.6-0.4-1.1-0.4
	c-0.5,0-0.9,0.2-1.3,0.5c-0.3,0.3-0.5,0.8-0.5,1.5v3.2h-1v-6h1v0.9C319.4,221.2,320.1,220.8,320.9,220.8z M328,222h-1.6v3.3
	c0,0.3,0.1,0.5,0.2,0.6c0.1,0.1,0.3,0.2,0.5,0.2c0.2,0,0.5,0,0.9,0v0.9c-0.9,0.1-1.6,0-2-0.2c-0.4-0.3-0.6-0.8-0.6-1.5V222h-1.2v-1
	h1.2v-1.4l1-0.3v1.7h1.6V222z M329.8,222.6c0,0.2,0.1,0.4,0.3,0.6c0.2,0.1,0.5,0.2,0.8,0.3c0.3,0.1,0.7,0.2,1,0.3
	c0.3,0.1,0.6,0.3,0.8,0.6c0.2,0.3,0.3,0.6,0.3,1c0,0.5-0.2,1-0.6,1.3c-0.4,0.3-1,0.5-1.6,0.5c-0.6,0-1.1-0.1-1.5-0.4
	c-0.4-0.3-0.7-0.6-0.9-1l0.9-0.5c0.1,0.3,0.3,0.5,0.5,0.7s0.6,0.3,0.9,0.3c0.3,0,0.6-0.1,0.9-0.2c0.2-0.1,0.3-0.3,0.3-0.6
	c0-0.2-0.1-0.4-0.3-0.6c-0.2-0.1-0.5-0.3-0.8-0.3c-0.3-0.1-0.7-0.2-1-0.3s-0.6-0.3-0.8-0.6s-0.3-0.6-0.3-1c0-0.5,0.2-0.9,0.6-1.3
	c0.4-0.3,0.9-0.5,1.5-0.5c0.5,0,0.9,0.1,1.3,0.3c0.4,0.2,0.7,0.5,0.9,0.9l-0.9,0.5c-0.2-0.5-0.6-0.8-1.3-0.8c-0.3,0-0.5,0.1-0.8,0.2
	C329.9,222.2,329.8,222.4,329.8,222.6z"/>
<path class="st4" d="M277.1,274l-1.9-3.2h-2v3.2h-1.1v-8.4h3.4c0.7,0,1.3,0.3,1.8,0.8c0.5,0.5,0.8,1.1,0.8,1.8c0,0.5-0.2,1-0.5,1.5
	c-0.3,0.4-0.7,0.8-1.2,0.9l2,3.4H277.1z M273.2,266.6v3.1h2.2c0.4,0,0.8-0.2,1.1-0.5c0.3-0.3,0.4-0.7,0.4-1.1c0-0.4-0.1-0.8-0.4-1.1
	c-0.3-0.3-0.6-0.5-1.1-0.5H273.2z M279.7,271.5c0.1,0.5,0.3,1,0.7,1.2c0.4,0.3,0.9,0.4,1.4,0.4c0.8,0,1.4-0.3,1.7-0.9l0.9,0.5
	c-0.6,0.9-1.5,1.4-2.6,1.4c-1,0-1.7-0.3-2.3-0.9c-0.6-0.6-0.9-1.4-0.9-2.3c0-0.9,0.3-1.7,0.9-2.3c0.6-0.6,1.3-0.9,2.3-0.9
	c0.9,0,1.6,0.3,2.1,0.9c0.6,0.6,0.8,1.4,0.8,2.2c0,0.2,0,0.3,0,0.5H279.7z M281.8,268.8c-0.6,0-1,0.2-1.4,0.5
	c-0.4,0.3-0.6,0.7-0.7,1.3h4c-0.1-0.6-0.3-1-0.7-1.3C282.7,269,282.3,268.8,281.8,268.8z M286.7,269.6c0,0.2,0.1,0.4,0.3,0.6
	c0.2,0.1,0.5,0.2,0.8,0.3c0.3,0.1,0.7,0.2,1,0.3c0.3,0.1,0.6,0.3,0.8,0.6c0.2,0.3,0.3,0.6,0.3,1c0,0.5-0.2,1-0.6,1.3
	c-0.4,0.3-1,0.5-1.6,0.5c-0.6,0-1.1-0.1-1.5-0.4c-0.4-0.3-0.7-0.6-0.9-1l0.9-0.5c0.1,0.3,0.3,0.5,0.5,0.7c0.3,0.2,0.6,0.3,0.9,0.3
	c0.3,0,0.6-0.1,0.9-0.2c0.2-0.1,0.3-0.3,0.3-0.6c0-0.2-0.1-0.4-0.3-0.6c-0.2-0.1-0.5-0.3-0.8-0.3c-0.3-0.1-0.7-0.2-1-0.3
	s-0.6-0.3-0.8-0.6c-0.2-0.3-0.3-0.6-0.3-1c0-0.5,0.2-0.9,0.6-1.3c0.4-0.3,0.9-0.5,1.5-0.5c0.5,0,0.9,0.1,1.3,0.3
	c0.4,0.2,0.7,0.5,0.9,0.9l-0.9,0.5c-0.2-0.5-0.6-0.8-1.3-0.8c-0.3,0-0.5,0.1-0.8,0.2C286.8,269.2,286.7,269.4,286.7,269.6z
	 M291.8,271.5c0.1,0.5,0.3,1,0.7,1.2c0.4,0.3,0.9,0.4,1.4,0.4c0.8,0,1.4-0.3,1.7-0.9l0.9,0.5c-0.6,0.9-1.5,1.4-2.6,1.4
	c-1,0-1.7-0.3-2.3-0.9c-0.6-0.6-0.9-1.4-0.9-2.3c0-0.9,0.3-1.7,0.9-2.3c0.6-0.6,1.3-0.9,2.3-0.9c0.9,0,1.6,0.3,2.1,0.9
	c0.6,0.6,0.8,1.4,0.8,2.2c0,0.2,0,0.3,0,0.5H291.8z M293.9,268.8c-0.6,0-1,0.2-1.4,0.5c-0.4,0.3-0.6,0.7-0.7,1.3h4
	c-0.1-0.6-0.3-1-0.7-1.3C294.8,269,294.4,268.8,293.9,268.8z M303.1,268h1v6h-1v-1c-0.5,0.8-1.3,1.2-2.3,1.2c-0.8,0-1.6-0.3-2.1-0.9
	c-0.6-0.6-0.9-1.4-0.9-2.2s0.3-1.6,0.9-2.2c0.6-0.6,1.3-0.9,2.1-0.9c1,0,1.7,0.4,2.3,1.2V268z M300.9,273.1c0.6,0,1.1-0.2,1.5-0.6
	c0.4-0.4,0.6-0.9,0.6-1.5s-0.2-1.1-0.6-1.5c-0.4-0.4-0.9-0.6-1.5-0.6c-0.6,0-1.1,0.2-1.5,0.6c-0.4,0.4-0.6,0.9-0.6,1.5
	s0.2,1.1,0.6,1.5C299.8,272.9,300.3,273.1,300.9,273.1z M306.7,269c0.3-0.7,1-1.1,1.9-1.1v1.1c-0.5,0-1,0.1-1.3,0.4
	c-0.4,0.3-0.6,0.8-0.6,1.4v3.2h-1v-6h1V269z M312.1,274.2c-0.9,0-1.7-0.3-2.3-0.9c-0.6-0.6-0.9-1.4-0.9-2.3s0.3-1.6,0.9-2.2
	c0.6-0.6,1.4-0.9,2.3-0.9c0.6,0,1.1,0.1,1.6,0.4c0.5,0.3,0.8,0.7,1.1,1.1l-0.9,0.5c-0.2-0.3-0.4-0.6-0.7-0.8
	c-0.3-0.2-0.7-0.3-1.1-0.3c-0.6,0-1.1,0.2-1.5,0.6c-0.4,0.4-0.6,0.9-0.6,1.5c0,0.6,0.2,1.1,0.6,1.5c0.4,0.4,0.9,0.6,1.5,0.6
	c0.4,0,0.8-0.1,1.1-0.3c0.3-0.2,0.6-0.4,0.7-0.8l0.9,0.5c-0.3,0.5-0.6,0.9-1.1,1.1C313.2,274,312.7,274.2,312.1,274.2z M318.8,267.8
	c0.7,0,1.3,0.2,1.7,0.7c0.4,0.4,0.6,1,0.6,1.8v3.7h-1v-3.6c0-0.5-0.1-0.9-0.4-1.1c-0.3-0.3-0.6-0.4-1.1-0.4c-0.5,0-0.9,0.2-1.3,0.5
	c-0.3,0.3-0.5,0.8-0.5,1.5v3.2h-1v-8.4h1v3.3C317.3,268.2,318,267.8,318.8,267.8z"/>
<path class="st5" d="M49.3,489.9c2.1-21.6,9-41.3,20.3-60.5c7.9-12.8,16.7-23.1,27.6-33c12.3-10.3,25.1-18.7,39.4-25.1
	c12.5-5.7,29-9.4,42.7-10.8"/>
<path class="st5" d="M176.4,649.6c-36.9-4.1-70.9-22.8-95.5-52.3c-0.5-0.5-0.5-1.5-1-2c-17.2-21.2-27.6-46.8-30.6-73.5"/>
<path class="st5" d="M338.4,525.3c-9,66.2-62.6,118.3-129.5,125.1"/>
<path class="st5" d="M209,360.5c69,7,123.8,62.2,130.2,131.5"/>
<path class="st6" d="M136.7,569.7h115"/>
<path class="st7" d="M295,625.8c0.8-0.7,1.7-0.9,2.7-0.8c1,0.1,1.8,0.6,2.5,1.4c0.7,0.8,1,1.7,1,2.7c0,1-0.5,1.8-1.2,2.5l-2.2,1.9
	l-4.9-5.8L295,625.8z M299.5,631c0.6-0.5,1-1.2,1-2c0-0.8-0.2-1.5-0.8-2.2c-0.6-0.7-1.2-1-2-1.2c-0.8-0.1-1.5,0.1-2.1,0.6l-1.7,1.4
	l4,4.7L299.5,631z"/>
<path class="st7" d="M302.2,622.2c0.6-0.5,1.2-0.8,2-0.7c0.7,0.1,1.4,0.4,1.9,0.9c0.1,0.1,0.1,0.1,0.2,0.3l-3.5,3.3
	c0.4,0.3,0.9,0.5,1.4,0.5c0.5,0,1-0.3,1.4-0.7c0.3-0.3,0.5-0.6,0.6-0.9c0.1-0.3,0.1-0.7,0-1l0.7-0.2c0.1,0.4,0.1,0.9-0.1,1.3
	c-0.1,0.4-0.4,0.8-0.8,1.2c-0.6,0.6-1.3,0.9-2.1,0.8c-0.8,0-1.4-0.3-2-0.9c-0.6-0.6-0.8-1.3-0.8-2
	C301.3,623.4,301.6,622.7,302.2,622.2z M302.6,622.7c-0.4,0.4-0.6,0.8-0.7,1.3c0,0.5,0.1,1,0.4,1.4l2.9-2.8
	c-0.4-0.4-0.9-0.5-1.4-0.5C303.4,622.1,303,622.3,302.6,622.7z"/>
<path class="st7" d="M306.8,619.9c0.2,0.2,0.4,0.2,0.6,0.2c0.3-0.1,0.5-0.2,0.8-0.3c0.3-0.2,0.6-0.3,0.8-0.5
	c0.3-0.2,0.6-0.2,0.9-0.2c0.3,0,0.6,0.1,0.9,0.4c0.3,0.3,0.5,0.7,0.4,1.2c0,0.5-0.3,0.9-0.7,1.3c-0.4,0.4-0.8,0.6-1.2,0.7
	c-0.4,0.1-0.8,0.1-1.2-0.1l0.2-0.7c0.3,0.1,0.6,0.2,0.9,0.1c0.3-0.1,0.6-0.2,0.8-0.5c0.2-0.3,0.4-0.5,0.5-0.8c0.1-0.3,0-0.5-0.2-0.7
	c-0.2-0.2-0.4-0.2-0.6-0.2c-0.3,0.1-0.5,0.2-0.8,0.3c-0.3,0.2-0.6,0.3-0.8,0.5c-0.3,0.2-0.6,0.2-0.9,0.2c-0.3,0-0.6-0.1-0.9-0.4
	c-0.3-0.3-0.5-0.7-0.4-1.1c0-0.5,0.2-0.9,0.6-1.3c0.3-0.3,0.7-0.5,1-0.6c0.4-0.1,0.7-0.1,1.1,0l-0.2,0.7c-0.5-0.2-1-0.1-1.5,0.4
	c-0.2,0.2-0.4,0.5-0.4,0.7C306.5,619.5,306.6,619.7,306.8,619.9z"/>
<path class="st7" d="M308.5,614.2c0,0.1,0,0.3-0.1,0.4c-0.1,0.1-0.2,0.2-0.4,0.2c-0.1,0-0.3,0-0.4-0.1c-0.1-0.1-0.2-0.2-0.2-0.4
	c0-0.1,0-0.3,0.1-0.4c0.1-0.1,0.2-0.2,0.4-0.2s0.3,0,0.4,0.1C308.4,613.9,308.4,614.1,308.5,614.2z M312.9,619.3l-4-3.7l0.5-0.5
	l4,3.7L312.9,619.3z"/>
<path class="st7" d="M314,610l0.5-0.5l3.9,3.4c0.6,0.5,0.9,1.1,0.9,1.8c0,0.7-0.3,1.3-0.7,1.9c-0.8,1-1.7,1.3-2.7,1.1l0.1-0.7
	c0.7,0.2,1.4-0.1,2-0.8c0.4-0.5,0.6-0.9,0.6-1.4c0-0.5-0.2-0.9-0.6-1.3l-0.6-0.6c0.3,0.9,0.1,1.7-0.5,2.4c-0.5,0.6-1.1,0.9-1.9,1
	c-0.8,0-1.5-0.2-2.1-0.7c-0.6-0.5-0.9-1.2-1-1.9c-0.1-0.8,0.2-1.5,0.7-2c0.6-0.7,1.4-1,2.3-0.9L314,610z M314.8,615.5
	c0.6,0,1.1-0.3,1.5-0.7c0.4-0.5,0.6-1,0.5-1.5c0-0.6-0.3-1.1-0.7-1.5c-0.5-0.4-1-0.6-1.5-0.5c-0.6,0-1.1,0.3-1.5,0.7
	c-0.4,0.5-0.6,1-0.5,1.6c0,0.6,0.3,1.1,0.7,1.5C313.7,615.3,314.2,615.5,314.8,615.5z"/>
<path class="st7" d="M316.7,606.4c0.4-0.5,0.9-0.8,1.4-0.8c0.5-0.1,1.1,0.1,1.6,0.5l2.6,2.1l-0.4,0.6l-2.6-2.1
	c-0.4-0.3-0.8-0.4-1.1-0.4c-0.4,0-0.7,0.2-1,0.6c-0.3,0.4-0.5,0.8-0.4,1.3c0.1,0.5,0.3,0.9,0.9,1.3l2.2,1.8l-0.4,0.6l-4.2-3.4
	l0.4-0.6l0.7,0.5C316.1,607.7,316.2,607,316.7,606.4z"/>
<path class="st7" d="M153,413.8c-0.7,0-1.3-0.2-1.8-0.5c-0.5-0.3-0.8-0.8-1-1.4l0.6-0.4c0.1,0.5,0.4,0.8,0.8,1.1
	c0.4,0.3,0.8,0.4,1.4,0.4c0.6,0,1-0.1,1.3-0.4c0.3-0.3,0.5-0.6,0.5-1c0-0.4-0.1-0.7-0.4-0.9c-0.3-0.2-0.8-0.4-1.4-0.6
	c-0.8-0.3-1.3-0.5-1.6-0.6c-0.6-0.3-0.9-0.8-0.9-1.5c0-0.6,0.2-1.1,0.7-1.5c0.4-0.4,1-0.6,1.7-0.6c0.6,0,1.1,0.2,1.5,0.5
	c0.4,0.3,0.8,0.7,1,1.2l-0.6,0.4c-0.3-0.8-1-1.3-1.9-1.3c-0.5,0-0.8,0.1-1.1,0.3c-0.3,0.2-0.4,0.6-0.4,1c0,0.4,0.1,0.7,0.4,0.8
	c0.3,0.2,0.7,0.4,1.3,0.6c0.3,0.1,0.5,0.2,0.6,0.2c0.1,0,0.3,0.1,0.5,0.2c0.2,0.1,0.4,0.2,0.5,0.2c0.1,0.1,0.2,0.2,0.4,0.3
	c0.2,0.1,0.3,0.2,0.3,0.4c0.1,0.1,0.1,0.3,0.2,0.4c0.1,0.2,0.1,0.3,0.1,0.5c0,0.6-0.2,1.2-0.7,1.5
	C154.4,413.6,153.7,413.8,153,413.8z M159.3,408.1c0.8,0,1.4,0.3,1.9,0.9c0.5,0.6,0.7,1.2,0.7,2c0,0.1,0,0.2,0,0.3h-4.8
	c0.1,0.5,0.3,1,0.7,1.3c0.4,0.3,0.9,0.5,1.5,0.5c0.4,0,0.8-0.1,1.1-0.2c0.3-0.2,0.5-0.4,0.7-0.7l0.6,0.4c-0.2,0.4-0.6,0.7-1,0.9
	c-0.4,0.2-0.9,0.3-1.4,0.3c-0.9,0-1.5-0.3-2.1-0.8c-0.5-0.5-0.8-1.2-0.8-2c0-0.8,0.3-1.5,0.8-2C157.8,408.3,158.5,408.1,159.3,408.1
	z M159.3,408.8c-0.6,0-1,0.2-1.4,0.5c-0.4,0.3-0.6,0.8-0.7,1.3h4c-0.1-0.6-0.3-1-0.7-1.3C160.3,408.9,159.8,408.8,159.3,408.8z
	 M165.7,413.8c-0.8,0-1.5-0.3-2-0.8c-0.5-0.5-0.8-1.2-0.8-2c0-0.8,0.3-1.5,0.8-2c0.5-0.5,1.2-0.8,2-0.8c0.5,0,1,0.1,1.4,0.4
	c0.4,0.3,0.7,0.6,0.9,1l-0.6,0.3c-0.1-0.3-0.4-0.6-0.7-0.8c-0.3-0.2-0.7-0.3-1.1-0.3c-0.6,0-1.1,0.2-1.5,0.6
	c-0.4,0.4-0.6,0.9-0.6,1.5s0.2,1.1,0.6,1.5c0.4,0.4,0.9,0.6,1.5,0.6c0.4,0,0.8-0.1,1.1-0.3c0.3-0.2,0.6-0.5,0.7-0.8l0.6,0.3
	c-0.2,0.4-0.6,0.8-1,1C166.7,413.6,166.2,413.8,165.7,413.8z M172.9,408.2h0.7v5.4h-0.7v-0.8c-0.4,0.6-1,1-1.8,1
	c-0.7,0-1.2-0.2-1.6-0.6c-0.4-0.4-0.6-0.9-0.6-1.6v-3.3h0.7v3.3c0,0.5,0.1,0.9,0.4,1.1c0.3,0.3,0.6,0.4,1.1,0.4
	c0.5,0,0.9-0.2,1.3-0.5c0.3-0.3,0.5-0.8,0.5-1.5V408.2z M175.9,409.1c0.3-0.7,0.9-1,1.7-1v0.7c-0.5,0-0.9,0.1-1.2,0.4
	c-0.3,0.3-0.5,0.7-0.5,1.4v3h-0.7v-5.4h0.7V409.1z M179.3,406.9c-0.1,0.1-0.2,0.2-0.4,0.2c-0.1,0-0.3,0-0.4-0.2
	c-0.1-0.1-0.2-0.2-0.2-0.4c0-0.1,0.1-0.3,0.2-0.4c0.1-0.1,0.2-0.2,0.4-0.2c0.1,0,0.3,0.1,0.4,0.2c0.1,0.1,0.2,0.2,0.2,0.4
	C179.4,406.7,179.4,406.8,179.3,406.9z M178.6,413.6v-5.4h0.7v5.4H178.6z M183.7,408.9h-1.6v3.3c0,0.3,0.1,0.5,0.2,0.6
	c0.1,0.1,0.3,0.2,0.5,0.2c0.2,0,0.5,0,0.9,0v0.6c-0.8,0.1-1.3,0.1-1.7-0.2c-0.4-0.2-0.6-0.7-0.6-1.3v-3.3h-1.1v-0.7h1.1v-1.3
	l0.7-0.2v1.5h1.6V408.9z M188.9,408.2h0.8l-2.3,5.9c-0.2,0.5-0.5,1-0.9,1.3c-0.4,0.3-0.8,0.4-1.3,0.4v-0.7c0.6,0.1,1.1-0.3,1.5-1.1
	l0.1-0.3l-2.4-5.4h0.8l2,4.5L188.9,408.2z M199.3,413.4l-0.7,0.4l-0.8-0.9c-0.6,0.6-1.3,0.9-2.2,0.9c-0.7,0-1.3-0.2-1.8-0.6
	c-0.5-0.4-0.7-0.9-0.7-1.6c0-0.5,0.1-0.9,0.4-1.3c0.2-0.4,0.6-0.7,1.1-0.9c-0.4-0.4-0.6-0.9-0.6-1.4c0-0.6,0.2-1.1,0.6-1.5
	c0.4-0.4,0.9-0.6,1.5-0.6c0.5,0,0.9,0.1,1.3,0.4c0.4,0.3,0.7,0.6,0.9,1.1l-0.6,0.4c-0.1-0.4-0.3-0.6-0.6-0.8c-0.3-0.2-0.6-0.3-1-0.3
	c-0.4,0-0.7,0.1-1,0.4c-0.3,0.2-0.4,0.5-0.4,0.9c0,0.3,0.1,0.5,0.2,0.7c0.1,0.2,0.3,0.4,0.5,0.7l2.3,2.4c0.2-0.4,0.3-0.9,0.4-1.4
	l0.7,0.4c-0.1,0.6-0.3,1.2-0.6,1.6L199.3,413.4z M195.6,413c0.7,0,1.3-0.2,1.7-0.7l-2.2-2.4c-0.4,0.2-0.7,0.4-0.9,0.7
	c-0.2,0.3-0.3,0.6-0.3,0.9c0,0.4,0.2,0.8,0.5,1C194.6,412.9,195,413,195.6,413z M205.8,406c0.7,0,1.2,0.2,1.7,0.7
	c0.5,0.5,0.7,1,0.7,1.7c0,0.7-0.2,1.2-0.7,1.7c-0.5,0.5-1,0.7-1.7,0.7h-1.9v2.8h-0.8V406H205.8z M205.8,410.1c0.5,0,0.9-0.2,1.2-0.5
	c0.3-0.3,0.5-0.7,0.5-1.2c0-0.5-0.2-0.9-0.5-1.2c-0.3-0.3-0.7-0.5-1.2-0.5h-1.9v3.3H205.8z M210,409.1c0.3-0.7,0.9-1,1.7-1v0.7
	c-0.5,0-0.9,0.1-1.2,0.4c-0.3,0.3-0.5,0.7-0.5,1.4v3h-0.7v-5.4h0.7V409.1z M213.4,406.9c-0.1,0.1-0.2,0.2-0.4,0.2
	c-0.1,0-0.3,0-0.4-0.2c-0.1-0.1-0.2-0.2-0.2-0.4c0-0.1,0.1-0.3,0.2-0.4c0.1-0.1,0.2-0.2,0.4-0.2c0.1,0,0.3,0.1,0.4,0.2
	c0.1,0.1,0.2,0.2,0.2,0.4C213.6,406.7,213.5,406.8,213.4,406.9z M212.7,413.6v-5.4h0.7v5.4H212.7z M218.8,408.2h0.8l-2.2,5.4h-0.9
	l-2.2-5.4h0.8l1.9,4.7L218.8,408.2z M224.9,408.2h0.7v5.4h-0.7v-1.1c-0.5,0.8-1.2,1.2-2.2,1.2c-0.8,0-1.4-0.3-2-0.8
	c-0.5-0.5-0.8-1.2-0.8-2s0.3-1.5,0.8-2c0.5-0.5,1.2-0.8,2-0.8c1,0,1.7,0.4,2.2,1.2V408.2z M221.2,412.4c0.4,0.4,0.9,0.6,1.5,0.6
	s1.1-0.2,1.5-0.6c0.4-0.4,0.6-0.9,0.6-1.5s-0.2-1.1-0.6-1.5c-0.4-0.4-0.9-0.6-1.5-0.6s-1.1,0.2-1.5,0.6c-0.4,0.4-0.6,0.9-0.6,1.5
	S220.8,412,221.2,412.4z M229.6,413.8c-0.8,0-1.5-0.3-2-0.8c-0.5-0.5-0.8-1.2-0.8-2c0-0.8,0.3-1.5,0.8-2c0.5-0.5,1.2-0.8,2-0.8
	c0.5,0,1,0.1,1.4,0.4c0.4,0.3,0.7,0.6,0.9,1l-0.6,0.3c-0.1-0.3-0.4-0.6-0.7-0.8c-0.3-0.2-0.7-0.3-1.1-0.3c-0.6,0-1.1,0.2-1.5,0.6
	c-0.4,0.4-0.6,0.9-0.6,1.5s0.2,1.1,0.6,1.5c0.4,0.4,0.9,0.6,1.5,0.6c0.4,0,0.8-0.1,1.1-0.3c0.3-0.2,0.6-0.5,0.7-0.8l0.6,0.3
	c-0.2,0.4-0.6,0.8-1,1C230.7,413.6,230.2,413.8,229.6,413.8z M237,408.2h0.8l-2.3,5.9c-0.2,0.5-0.5,1-0.9,1.3
	c-0.4,0.3-0.8,0.4-1.3,0.4v-0.7c0.7,0.1,1.1-0.3,1.5-1.1l0.1-0.3l-2.4-5.4h0.8l2,4.5L237,408.2z"/>
<path class="st1" d="M176.5,438.3c0,3.5,1,6.9,3,9.8c1.9,2.9,4.7,5.2,8,6.5c3.2,1.3,6.8,1.7,10.2,1c3.4-0.7,6.6-2.4,9.1-4.8
	c2.5-2.5,4.2-5.6,4.8-9.1c0.7-3.4,0.3-7-1-10.2c-1.3-3.2-3.6-6-6.5-7.9c-2.9-1.9-6.3-3-9.8-3c-4.7,0-9.2,1.9-12.5,5.2
	C178.4,429.1,176.5,433.6,176.5,438.3"/>
<path class="st3" d="M198,429.5h-10.6v16.9h13.8v-14.1L198,429.5z M198.1,430l2.3,2h-2.3V430z M200.8,446h-13.2v-16.3h10.2v2.6h3
	L200.8,446z"/>
<path class="st8" d="M198,429.5h-10.6v16.9h13.8v-14.1L198,429.5z M198.1,430l2.3,2h-2.3V430z M200.8,446h-13.2v-16.3h10.2v2.6h3
	L200.8,446z"/>
<path class="st3" d="M196.8,433.7h-7.4v0.3h7.4V433.7z"/>
<path class="st8" d="M196.8,433.7h-7.4v0.3h7.4V433.7z"/>
<path class="st3" d="M196.8,435.7h-7.4v0.3h7.4V435.7z"/>
<path class="st8" d="M196.8,435.7h-7.4v0.3h7.4V435.7z"/>
<path class="st3" d="M196.8,437.6h-7.4v0.3h7.4V437.6z"/>
<path class="st8" d="M196.8,437.6h-7.4v0.3h7.4V437.6z"/>
<path class="st3" d="M193.8,439.6h-4.4v0.3h4.4V439.6z"/>
<path class="st8" d="M193.8,439.6h-4.4v0.3h4.4V439.6z"/>
<path class="st3" d="M187.4,444.9h-1.1v-16.3h9v-0.3H186v16.9h1.4V444.9z"/>
<path class="st8" d="M187.4,444.9h-1.1v-16.3h9v-0.3H186v16.9h1.4V444.9z"/>
<path class="st3" d="M195.2,428.3l1.8,1.2h-0.5l-1.4-0.9V428.3z"/>
<path class="st8" d="M195.2,428.3l1.8,1.2h-0.5l-1.4-0.9V428.3z"/>
<path class="st3" d="M202.4,441.5l-3.2-1.7c0,0,0,0,0,0c0,0,0,0,0,0l-3.1,1.7c0,0,0,0,0,0c0,0,0,0,0,0.1v2.2c0,0.9,0.3,1.8,0.8,2.5
	c0.5,0.7,1.2,1.3,2,1.7l0.4,0.2c0,0,0,0,0,0c0,0,0,0,0,0l0.5-0.2c0.8-0.4,1.5-0.9,2-1.7c0.5-0.8,0.8-1.6,0.8-2.5L202.4,441.5
	C202.4,441.5,202.4,441.5,202.4,441.5"/>
<path class="st9" d="M202.4,441.5l-3.2-1.7c0,0,0,0,0,0c0,0,0,0,0,0l-3.1,1.7c0,0,0,0,0,0c0,0,0,0,0,0.1v2.2c0,0.9,0.3,1.8,0.8,2.5
	c0.5,0.7,1.2,1.3,2,1.7l0.4,0.2c0,0,0,0,0,0c0,0,0,0,0,0l0.5-0.2c0.8-0.4,1.5-0.9,2-1.7c0.5-0.8,0.8-1.6,0.8-2.5L202.4,441.5
	C202.4,441.5,202.4,441.5,202.4,441.5z"/>
<path class="st1" d="M202.2,443.8c0,0.9-0.3,1.7-0.7,2.4c-0.5,0.7-1.2,1.3-1.9,1.6l-0.5,0.2l-0.4-0.2c-0.8-0.3-1.4-0.9-1.9-1.6
	c-0.5-0.7-0.7-1.5-0.7-2.4v-2.2l3-1.6l0,0l3.1,1.6L202.2,443.8z"/>
<path class="st3" d="M197.9,443.8C197.8,443.7,197.8,443.7,197.9,443.8c-0.1,0-0.1,0-0.1,0c0,0,0,0,0,0.1c0,0,0,0,0,0c0,0,0,0,0,0
	l0.8,1c0,0,0,0,0,0c0,0,0,0,0,0c0,0,0,0,0,0s0,0,0,0l2-1.6c0,0,0,0,0-0.1c0,0,0-0.1,0-0.1c0,0,0,0-0.1,0c0,0-0.1,0-0.1,0l-1.9,1.6
	L197.9,443.8z"/>
<path class="st8" d="M197.9,443.8C197.8,443.7,197.8,443.7,197.9,443.8c-0.1,0-0.1,0-0.1,0c0,0,0,0,0,0.1c0,0,0,0,0,0c0,0,0,0,0,0
	l0.8,1c0,0,0,0,0,0c0,0,0,0,0,0c0,0,0,0,0,0s0,0,0,0l2-1.6c0,0,0,0,0-0.1c0,0,0-0.1,0-0.1c0,0,0,0-0.1,0c0,0-0.1,0-0.1,0l-1.9,1.6
	L197.9,443.8z"/>
<path class="st7" d="M237.9,585.2c0.7,0,1.2,0.2,1.7,0.7c0.5,0.5,0.7,1,0.7,1.7c0,0.7-0.2,1.2-0.7,1.7c-0.5,0.5-1,0.7-1.7,0.7h-1.9
	v2.8h-0.8v-7.6H237.9z M237.9,589.2c0.5,0,0.9-0.2,1.2-0.5c0.3-0.3,0.5-0.7,0.5-1.2c0-0.5-0.2-0.9-0.5-1.2c-0.3-0.3-0.7-0.5-1.2-0.5
	h-1.9v3.3H237.9z M243.5,587.2c0.8,0,1.4,0.3,1.9,0.9c0.5,0.6,0.7,1.2,0.7,2c0,0.1,0,0.2,0,0.3h-4.8c0.1,0.5,0.3,1,0.7,1.3
	c0.4,0.3,0.9,0.5,1.5,0.5c0.4,0,0.8-0.1,1.1-0.2c0.3-0.2,0.5-0.4,0.7-0.7l0.6,0.4c-0.2,0.4-0.6,0.7-1,0.9c-0.4,0.2-0.9,0.3-1.4,0.3
	c-0.9,0-1.5-0.3-2.1-0.8c-0.5-0.5-0.8-1.2-0.8-2c0-0.8,0.3-1.5,0.8-2C242,587.5,242.7,587.2,243.5,587.2z M243.5,587.9
	c-0.6,0-1,0.2-1.4,0.5c-0.4,0.3-0.6,0.8-0.7,1.3h4c-0.1-0.6-0.3-1-0.7-1.3C244.4,588.1,244,587.9,243.5,587.9z M248.1,588.2
	c0.3-0.7,0.9-1,1.7-1v0.7c-0.5,0-0.9,0.1-1.2,0.4c-0.3,0.3-0.5,0.7-0.5,1.4v3h-0.7v-5.4h0.7V588.2z M253.5,585.7
	c-0.5,0-0.9,0-1.2,0.3c-0.3,0.2-0.4,0.6-0.4,1.1v0.2h1.6v0.7h-1.6v4.7h-0.7V588h-0.9v-0.7h0.9v-0.2c0-0.7,0.2-1.2,0.6-1.6
	c0.4-0.4,1-0.5,1.7-0.5V585.7z M258.4,592.1c-0.5,0.5-1.2,0.8-2,0.8c-0.8,0-1.5-0.3-2-0.8c-0.5-0.5-0.8-1.2-0.8-2s0.3-1.5,0.8-2
	c0.6-0.5,1.2-0.8,2-0.8c0.8,0,1.5,0.3,2,0.8c0.6,0.5,0.8,1.2,0.8,2S259,591.5,258.4,592.1z M254.9,591.6c0.4,0.4,0.9,0.6,1.5,0.6
	s1.1-0.2,1.5-0.6c0.4-0.4,0.6-0.9,0.6-1.5s-0.2-1.1-0.6-1.5c-0.4-0.4-0.9-0.6-1.5-0.6s-1.1,0.2-1.5,0.6c-0.4,0.4-0.6,0.9-0.6,1.5
	S254.5,591.2,254.9,591.6z M261.2,588.2c0.3-0.7,0.9-1,1.7-1v0.7c-0.5,0-0.9,0.1-1.2,0.4c-0.3,0.3-0.5,0.7-0.5,1.4v3h-0.7v-5.4h0.7
	V588.2z M269.6,587.2c0.6,0,1.1,0.2,1.5,0.6c0.4,0.4,0.6,0.9,0.6,1.6v3.4h-0.7v-3.4c0-0.5-0.1-0.8-0.4-1.1c-0.2-0.3-0.6-0.4-1-0.4
	c-0.4,0-0.8,0.2-1.1,0.5c-0.3,0.3-0.4,0.8-0.4,1.4v3h-0.7v-3.4c0-0.5-0.1-0.8-0.3-1.1c-0.2-0.3-0.5-0.4-0.9-0.4
	c-0.4,0-0.8,0.2-1.1,0.5c-0.3,0.3-0.5,0.8-0.5,1.4v3h-0.7v-5.4h0.7v0.8c0.4-0.6,0.9-0.9,1.7-0.9c0.8,0,1.3,0.3,1.6,1
	C268.3,587.5,268.8,587.2,269.6,587.2z M277.7,587.3h0.7v5.4h-0.7v-1.1c-0.5,0.8-1.2,1.2-2.2,1.2c-0.8,0-1.4-0.3-2-0.8
	c-0.5-0.5-0.8-1.2-0.8-2s0.3-1.5,0.8-2c0.5-0.5,1.2-0.8,2-0.8c1,0,1.7,0.4,2.2,1.2V587.3z M274,591.6c0.4,0.4,0.9,0.6,1.5,0.6
	s1.1-0.2,1.5-0.6c0.4-0.4,0.6-0.9,0.6-1.5s-0.2-1.1-0.6-1.5c-0.4-0.4-0.9-0.6-1.5-0.6s-1.1,0.2-1.5,0.6c-0.4,0.4-0.6,0.9-0.6,1.5
	S273.6,591.2,274,591.6z M282.5,587.2c0.7,0,1.2,0.2,1.5,0.6c0.4,0.4,0.6,0.9,0.6,1.6v3.3h-0.7v-3.3c0-0.5-0.1-0.9-0.4-1.1
	c-0.3-0.3-0.6-0.4-1.1-0.4c-0.5,0-0.9,0.2-1.3,0.5c-0.3,0.3-0.5,0.8-0.5,1.5v2.8h-0.7v-5.4h0.7v0.8
	C281,587.5,281.6,587.2,282.5,587.2z M288.5,592.9c-0.8,0-1.5-0.3-2-0.8c-0.5-0.5-0.8-1.2-0.8-2s0.3-1.5,0.8-2
	c0.5-0.5,1.2-0.8,2-0.8c0.5,0,1,0.1,1.4,0.4c0.4,0.3,0.7,0.6,0.9,1l-0.6,0.3c-0.1-0.3-0.4-0.6-0.7-0.8c-0.3-0.2-0.7-0.3-1.1-0.3
	c-0.6,0-1.1,0.2-1.5,0.6c-0.4,0.4-0.6,0.9-0.6,1.5s0.2,1.1,0.6,1.5c0.4,0.4,0.9,0.6,1.5,0.6c0.4,0,0.8-0.1,1.1-0.3
	c0.3-0.2,0.6-0.5,0.7-0.8l0.6,0.3c-0.2,0.4-0.6,0.8-1,1C289.5,592.8,289,592.9,288.5,592.9z M294.4,587.2c0.8,0,1.4,0.3,1.9,0.9
	c0.5,0.6,0.7,1.2,0.7,2c0,0.1,0,0.2,0,0.3h-4.8c0.1,0.5,0.3,1,0.7,1.3c0.4,0.3,0.9,0.5,1.5,0.5c0.4,0,0.8-0.1,1.1-0.2
	c0.3-0.2,0.5-0.4,0.7-0.7l0.6,0.4c-0.2,0.4-0.6,0.7-1,0.9c-0.4,0.2-0.9,0.3-1.4,0.3c-0.9,0-1.5-0.3-2.1-0.8c-0.5-0.5-0.8-1.2-0.8-2
	c0-0.8,0.3-1.5,0.8-2C292.9,587.5,293.5,587.2,294.4,587.2z M294.4,587.9c-0.6,0-1,0.2-1.4,0.5c-0.4,0.3-0.6,0.8-0.7,1.3h4
	c-0.1-0.6-0.3-1-0.7-1.3C295.3,588.1,294.9,587.9,294.4,587.9z"/>
<path class="st1" d="M248.4,563.8c0,3.5,1,6.9,3,9.8c1.9,2.9,4.7,5.2,8,6.5c3.2,1.3,6.8,1.7,10.2,1c3.4-0.7,6.6-2.4,9.1-4.8
	c2.5-2.5,4.2-5.6,4.8-9.1c0.7-3.4,0.3-7-1-10.2c-1.3-3.2-3.6-6-6.5-8c-2.9-1.9-6.3-3-9.8-3c-4.7,0-9.2,1.9-12.5,5.2
	C250.3,554.6,248.4,559.1,248.4,563.8"/>
<path class="st3" d="M273.7,555.9h-15.1c-0.2,0-0.3,0-0.5,0.1c-0.2,0.1-0.3,0.2-0.4,0.3c-0.1,0.1-0.2,0.3-0.3,0.4
	c-0.1,0.2-0.1,0.3-0.1,0.5v13.1c0,0.2,0,0.3,0.1,0.5c0.1,0.2,0.2,0.3,0.3,0.4c0.1,0.1,0.3,0.2,0.4,0.3c0.2,0.1,0.3,0.1,0.5,0.1h15.1
	c0.2,0,0.3,0,0.5-0.1c0.2-0.1,0.3-0.2,0.4-0.3c0.1-0.1,0.2-0.3,0.3-0.4s0.1-0.3,0.1-0.5v-13.1c0-0.2,0-0.4-0.1-0.5
	c-0.1-0.2-0.2-0.3-0.3-0.4c-0.1-0.1-0.3-0.2-0.4-0.3C274,556,273.8,555.9,273.7,555.9L273.7,555.9z M273.7,571L273.7,571l0.3-1
	l0-0.1v0c0-0.2-0.1-0.5-0.3-0.6c-0.2-0.2-0.4-0.3-0.6-0.3h-0.9v0c-0.1-0.4-0.3-0.8-0.5-1.2v0l0.6-0.6c0.1-0.1,0.2-0.2,0.2-0.3
	c0-0.1,0.1-0.2,0.1-0.3c0-0.1,0-0.2-0.1-0.3s-0.1-0.2-0.2-0.3l-1.3-1.3c-0.2-0.2-0.4-0.2-0.6-0.2c-0.2,0-0.5,0.1-0.6,0.2l-0.6,0.6h0
	c-0.4-0.2-0.8-0.4-1.2-0.5h0v-0.9c0-0.1,0-0.2-0.1-0.3c0-0.1-0.1-0.2-0.2-0.3c-0.1-0.1-0.2-0.2-0.3-0.2c-0.1,0-0.2-0.1-0.3-0.1h-1.8
	c-0.2,0-0.5,0.1-0.6,0.3c-0.2,0.2-0.3,0.4-0.3,0.6v0.9h0c-0.4,0.1-0.8,0.3-1.2,0.5h0l-0.6-0.6c-0.2-0.2-0.4-0.2-0.6-0.2
	c-0.2,0-0.5,0.1-0.6,0.2l-1.3,1.3c-0.1,0.1-0.2,0.2-0.2,0.3c0,0.1-0.1,0.2-0.1,0.3c0,0.1,0,0.2,0.1,0.3c0,0.1,0.1,0.2,0.2,0.3
	l0.6,0.6v0c-0.2,0.4-0.4,0.8-0.5,1.2v0h-0.9c-0.2,0-0.5,0.1-0.6,0.2c-0.2,0.2-0.3,0.4-0.3,0.6v0l0.5,1.1h-0.2
	c-0.2,0-0.4-0.1-0.5-0.2c-0.1-0.1-0.2-0.3-0.2-0.5v-13.1c0-0.2,0.1-0.4,0.2-0.5c0.1-0.1,0.3-0.2,0.5-0.2h15.1c0.2,0,0.4,0.1,0.5,0.2
	c0.1,0.1,0.2,0.3,0.2,0.5v13.1c0,0.1,0,0.2,0,0.3c0,0.1-0.1,0.2-0.1,0.2c-0.1,0.1-0.1,0.1-0.2,0.2C273.9,571,273.8,571,273.7,571
	L273.7,571z M263.5,570.9L263.5,570.9c0.2-0.6,0.5-1,1-1.4c0.5-0.3,1-0.5,1.6-0.5c0.6,0,1.1,0.2,1.6,0.5c0.5,0.3,0.8,0.8,1,1.3v0
	H263.5z M269.4,571c-0.1-0.8-0.5-1.4-1.1-1.9c-0.6-0.5-1.3-0.8-2.1-0.8s-1.5,0.3-2.1,0.8c-0.6,0.5-1,1.2-1.1,1.9h-3.5l-0.5-1.2
	c0-0.1,0.1-0.1,0.1-0.2c0.1,0,0.1-0.1,0.2-0.1h1.3l0.1-0.2c0.1-0.5,0.3-1,0.6-1.5l0.1-0.2l-1-1c0,0-0.1-0.1-0.1-0.1s0-0.1,0-0.1
	c0,0,0-0.1,0-0.1c0,0,0-0.1,0.1-0.1l1.3-1.3c0,0,0.1-0.1,0.1-0.1c0,0,0.1,0,0.1,0c0,0,0.1,0,0.1,0c0,0,0.1,0,0.1,0.1l1,1l0.2-0.1
	c0.5-0.3,1-0.5,1.5-0.6l0.2-0.1v-1.4c0,0,0-0.1,0-0.1c0,0,0-0.1,0.1-0.1c0,0,0.1-0.1,0.1-0.1c0,0,0.1,0,0.1,0h1.8
	c0.1,0,0.2,0,0.2,0.1c0.1,0.1,0.1,0.1,0.1,0.2v1.3l0.2,0.1c0.5,0.1,1,0.3,1.5,0.6l0.2,0.1l1-1c0,0,0.1-0.1,0.1-0.1c0,0,0.1,0,0.1,0
	c0,0,0.1,0,0.1,0c0,0,0.1,0,0.1,0.1l1.3,1.3c0,0,0.1,0.1,0.1,0.1c0,0,0,0.1,0,0.1c0,0,0,0.1,0,0.1c0,0,0,0.1-0.1,0.1l-0.9,0.9
	l0.1,0.2c0.3,0.5,0.5,1,0.6,1.5l0.1,0.2h1.3c0.1,0,0.1,0,0.2,0.1c0.1,0,0.1,0.1,0.1,0.2L273,571L269.4,571L269.4,571z"/>
<path class="st10" d="M273.7,555.9h-15.1c-0.2,0-0.3,0-0.5,0.1c-0.2,0.1-0.3,0.2-0.4,0.3c-0.1,0.1-0.2,0.3-0.3,0.4
	c-0.1,0.2-0.1,0.3-0.1,0.5v13.1c0,0.2,0,0.3,0.1,0.5c0.1,0.2,0.2,0.3,0.3,0.4c0.1,0.1,0.3,0.2,0.4,0.3c0.2,0.1,0.3,0.1,0.5,0.1h15.1
	c0.2,0,0.3,0,0.5-0.1c0.2-0.1,0.3-0.2,0.4-0.3c0.1-0.1,0.2-0.3,0.3-0.4c0.1-0.2,0.1-0.3,0.1-0.5v-13.1c0-0.2,0-0.4-0.1-0.5
	c-0.1-0.2-0.2-0.3-0.3-0.4c-0.1-0.1-0.3-0.2-0.4-0.3C274,556,273.8,555.9,273.7,555.9z M273.7,571L273.7,571l0.3-1l0-0.1v0
	c0-0.2-0.1-0.5-0.3-0.6c-0.2-0.2-0.4-0.3-0.6-0.3h-0.9v0c-0.1-0.4-0.3-0.8-0.5-1.2v0l0.6-0.6c0.1-0.1,0.2-0.2,0.2-0.3
	c0-0.1,0.1-0.2,0.1-0.3c0-0.1,0-0.2-0.1-0.3c0-0.1-0.1-0.2-0.2-0.3l-1.3-1.3c-0.2-0.2-0.4-0.2-0.6-0.2c-0.2,0-0.5,0.1-0.6,0.2
	l-0.6,0.6h0c-0.4-0.2-0.8-0.4-1.2-0.5h0v-0.9c0-0.1,0-0.2-0.1-0.3c0-0.1-0.1-0.2-0.2-0.3c-0.1-0.1-0.2-0.2-0.3-0.2
	c-0.1,0-0.2-0.1-0.3-0.1h-1.8c-0.2,0-0.5,0.1-0.6,0.3s-0.3,0.4-0.3,0.6v0.9h0c-0.4,0.1-0.8,0.3-1.2,0.5h0l-0.6-0.6
	c-0.2-0.2-0.4-0.2-0.6-0.2c-0.2,0-0.5,0.1-0.6,0.2l-1.3,1.3c-0.1,0.1-0.2,0.2-0.2,0.3c0,0.1-0.1,0.2-0.1,0.3c0,0.1,0,0.2,0.1,0.3
	c0,0.1,0.1,0.2,0.2,0.3l0.6,0.6v0c-0.2,0.4-0.4,0.8-0.5,1.2v0h-0.9c-0.2,0-0.5,0.1-0.6,0.2c-0.2,0.2-0.3,0.4-0.3,0.6v0l0.5,1.1h-0.2
	c-0.2,0-0.4-0.1-0.5-0.2c-0.1-0.1-0.2-0.3-0.2-0.5v-13.1c0-0.2,0.1-0.4,0.2-0.5c0.1-0.1,0.3-0.2,0.5-0.2h15.1c0.2,0,0.4,0.1,0.5,0.2
	c0.1,0.1,0.2,0.3,0.2,0.5v13.1c0,0.1,0,0.2,0,0.3c0,0.1-0.1,0.2-0.1,0.2c-0.1,0.1-0.1,0.1-0.2,0.2C273.9,571,273.8,571,273.7,571
	L273.7,571z M263.5,570.9L263.5,570.9c0.2-0.6,0.5-1,1-1.4c0.5-0.3,1-0.5,1.6-0.5c0.6,0,1.1,0.2,1.6,0.5c0.5,0.3,0.8,0.8,1,1.3v0
	H263.5z M269.4,571c-0.1-0.8-0.6-1.4-1.1-1.9c-0.6-0.5-1.3-0.8-2.1-0.8c-0.8,0-1.5,0.3-2.1,0.8c-0.6,0.5-1,1.2-1.1,1.9h-3.5
	l-0.5-1.2c0-0.1,0.1-0.1,0.1-0.2c0.1,0,0.1-0.1,0.2-0.1h1.3l0.1-0.2c0.1-0.5,0.3-1,0.6-1.5l0.1-0.2l-1-1c0,0-0.1-0.1-0.1-0.1
	c0,0,0-0.1,0-0.1c0,0,0-0.1,0-0.1c0,0,0-0.1,0.1-0.1l1.3-1.3c0,0,0.1-0.1,0.1-0.1c0,0,0.1,0,0.1,0s0.1,0,0.1,0c0,0,0.1,0,0.1,0.1
	l1,1l0.2-0.1c0.5-0.3,1-0.5,1.5-0.6l0.2-0.1v-1.4c0,0,0-0.1,0-0.1c0,0,0-0.1,0.1-0.1c0,0,0.1-0.1,0.1-0.1c0,0,0.1,0,0.1,0h1.8
	c0.1,0,0.2,0,0.2,0.1c0.1,0.1,0.1,0.1,0.1,0.2v1.3l0.2,0.1c0.5,0.1,1,0.3,1.5,0.6l0.2,0.1l1-1c0,0,0.1-0.1,0.1-0.1c0,0,0.1,0,0.1,0
	c0,0,0.1,0,0.1,0c0,0,0.1,0,0.1,0.1l1.3,1.3c0,0,0.1,0.1,0.1,0.1c0,0,0,0.1,0,0.1c0,0,0,0.1,0,0.1c0,0,0,0.1-0.1,0.1l-0.9,0.9
	l0.1,0.2c0.3,0.5,0.5,1,0.6,1.5l0.1,0.2h1.3c0.1,0,0.1,0,0.2,0.1c0.1,0,0.1,0.1,0.1,0.2L273,571L269.4,571L269.4,571z"/>
<path class="st3" d="M270,557.3c-0.1,0-0.2,0-0.3,0.1c-0.1,0.1-0.1,0.1-0.2,0.2c0,0.1,0,0.2,0,0.3c0,0.1,0.1,0.2,0.1,0.2
	c0.1,0.1,0.2,0.1,0.2,0.1c0.1,0,0.2,0,0.3,0c0.1,0,0.2-0.1,0.2-0.2c0.1-0.1,0.1-0.2,0.1-0.3c0-0.1,0-0.1,0-0.2
	c0-0.1-0.1-0.1-0.1-0.2c0,0-0.1-0.1-0.2-0.1C270.1,557.3,270,557.3,270,557.3"/>
<path class="st10" d="M270,557.3c-0.1,0-0.2,0-0.3,0.1c-0.1,0.1-0.1,0.1-0.2,0.2c0,0.1,0,0.2,0,0.3c0,0.1,0.1,0.2,0.1,0.2
	c0.1,0.1,0.2,0.1,0.2,0.1c0.1,0,0.2,0,0.3,0c0.1,0,0.2-0.1,0.2-0.2c0.1-0.1,0.1-0.2,0.1-0.3c0-0.1,0-0.1,0-0.2
	c0-0.1-0.1-0.1-0.1-0.2c0,0-0.1-0.1-0.2-0.1C270.1,557.3,270,557.3,270,557.3L270,557.3z"/>
<path class="st3" d="M271.4,557.3c-0.1,0-0.2,0-0.3,0.1c-0.1,0.1-0.1,0.1-0.2,0.2c0,0.1,0,0.2,0,0.3c0,0.1,0.1,0.2,0.1,0.2
	c0.1,0.1,0.2,0.1,0.2,0.1c0.1,0,0.2,0,0.3,0c0.1,0,0.2-0.1,0.2-0.2c0.1-0.1,0.1-0.2,0.1-0.3c0-0.1-0.1-0.2-0.1-0.3
	C271.6,557.3,271.5,557.3,271.4,557.3"/>
<path class="st10" d="M271.4,557.3c-0.1,0-0.2,0-0.3,0.1c-0.1,0.1-0.1,0.1-0.2,0.2c0,0.1,0,0.2,0,0.3c0,0.1,0.1,0.2,0.1,0.2
	c0.1,0.1,0.2,0.1,0.2,0.1c0.1,0,0.2,0,0.3,0c0.1,0,0.2-0.1,0.2-0.2c0.1-0.1,0.1-0.2,0.1-0.3c0-0.1-0.1-0.2-0.1-0.3
	C271.6,557.3,271.5,557.3,271.4,557.3L271.4,557.3z"/>
<path class="st3" d="M272.8,557.3c-0.1,0-0.2,0-0.3,0.1c-0.1,0.1-0.1,0.1-0.2,0.2s0,0.2,0,0.3c0,0.1,0.1,0.2,0.1,0.2
	c0.1,0.1,0.2,0.1,0.2,0.1c0.1,0,0.2,0,0.3,0c0.1,0,0.2-0.1,0.2-0.2c0.1-0.1,0.1-0.2,0.1-0.3c0-0.1-0.1-0.2-0.1-0.3
	C273,557.3,272.9,557.3,272.8,557.3z"/>
<path class="st10" d="M272.8,557.3c-0.1,0-0.2,0-0.3,0.1c-0.1,0.1-0.1,0.1-0.2,0.2s0,0.2,0,0.3c0,0.1,0.1,0.2,0.1,0.2
	c0.1,0.1,0.2,0.1,0.2,0.1c0.1,0,0.2,0,0.3,0c0.1,0,0.2-0.1,0.2-0.2c0.1-0.1,0.1-0.2,0.1-0.3c0-0.1-0.1-0.2-0.1-0.3
	C273,557.3,272.9,557.3,272.8,557.3z"/>
<path class="st7" d="M94.9,592.9c-1.1,0-2.1-0.4-2.8-1.1c-0.8-0.8-1.1-1.7-1.1-2.8s0.4-2,1.1-2.8c0.8-0.8,1.7-1.1,2.8-1.1
	c0.7,0,1.3,0.2,1.9,0.5c0.6,0.3,1,0.8,1.4,1.4l-0.7,0.4c-0.2-0.5-0.6-0.8-1.1-1.1c-0.5-0.3-1-0.4-1.5-0.4c-0.9,0-1.7,0.3-2.3,0.9
	c-0.6,0.6-0.9,1.4-0.9,2.3s0.3,1.7,0.9,2.3c0.6,0.6,1.4,0.9,2.3,0.9c0.6,0,1.1-0.1,1.5-0.4c0.5-0.3,0.8-0.6,1.1-1.1l0.7,0.4
	c-0.3,0.6-0.8,1-1.4,1.4C96.3,592.7,95.6,592.9,94.9,592.9z M103.8,592.1c-0.5,0.5-1.2,0.8-2,0.8c-0.8,0-1.5-0.3-2-0.8
	c-0.5-0.5-0.8-1.2-0.8-2s0.3-1.5,0.8-2c0.6-0.5,1.2-0.8,2-0.8c0.8,0,1.5,0.3,2,0.8c0.6,0.5,0.8,1.2,0.8,2S104.4,591.5,103.8,592.1z
	 M100.3,591.6c0.4,0.4,0.9,0.6,1.5,0.6c0.6,0,1.1-0.2,1.5-0.6c0.4-0.4,0.6-0.9,0.6-1.5s-0.2-1.1-0.6-1.5c-0.4-0.4-0.9-0.6-1.5-0.6
	c-0.6,0-1.1,0.2-1.5,0.6c-0.4,0.4-0.6,0.9-0.6,1.5S99.9,591.2,100.3,591.6z M111.6,587.2c0.6,0,1.1,0.2,1.5,0.6
	c0.4,0.4,0.6,0.9,0.6,1.6v3.4h-0.7v-3.4c0-0.5-0.1-0.8-0.4-1.1c-0.2-0.3-0.6-0.4-1-0.4c-0.4,0-0.8,0.2-1.1,0.5
	c-0.3,0.3-0.4,0.8-0.4,1.4v3h-0.7v-3.4c0-0.5-0.1-0.8-0.3-1.1c-0.2-0.3-0.5-0.4-0.9-0.4c-0.4,0-0.8,0.2-1.1,0.5
	c-0.3,0.3-0.5,0.8-0.5,1.4v3h-0.7v-5.4h0.7v0.8c0.4-0.6,0.9-0.9,1.7-0.9c0.8,0,1.3,0.3,1.6,1C110.2,587.5,110.8,587.2,111.6,587.2z
	 M117.9,587.2c0.8,0,1.4,0.3,2,0.8c0.5,0.5,0.8,1.2,0.8,2s-0.3,1.5-0.8,2c-0.5,0.5-1.2,0.8-2,0.8c-1,0-1.7-0.4-2.2-1.2v3.2H115v-7.6
	h0.7v1.1C116.2,587.6,117,587.2,117.9,587.2z M116.3,591.6c0.4,0.4,0.9,0.6,1.5,0.6s1.1-0.2,1.5-0.6c0.4-0.4,0.6-0.9,0.6-1.5
	s-0.2-1.1-0.6-1.5c-0.4-0.4-0.9-0.6-1.5-0.6s-1.1,0.2-1.5,0.6c-0.4,0.4-0.6,0.9-0.6,1.5S115.9,591.2,116.3,591.6z M121.9,592.8v-7.9
	h0.7v7.9H121.9z M124.9,586c-0.1,0.1-0.2,0.2-0.4,0.2c-0.1,0-0.3-0.1-0.4-0.2c-0.1-0.1-0.2-0.2-0.2-0.4c0-0.1,0.1-0.3,0.2-0.4
	c0.1-0.1,0.2-0.2,0.4-0.2c0.1,0,0.3,0.1,0.4,0.2c0.1,0.1,0.2,0.2,0.2,0.4C125,585.8,125,585.9,124.9,586z M124.1,592.8v-5.4h0.7v5.4
	H124.1z M131,587.3h0.7v5.4H131v-1.1c-0.5,0.8-1.2,1.2-2.2,1.2c-0.8,0-1.4-0.3-2-0.8c-0.5-0.5-0.8-1.2-0.8-2s0.3-1.5,0.8-2
	c0.5-0.5,1.2-0.8,2-0.8c1,0,1.7,0.4,2.2,1.2V587.3z M127.4,591.6c0.4,0.4,0.9,0.6,1.5,0.6s1.1-0.2,1.5-0.6c0.4-0.4,0.6-0.9,0.6-1.5
	s-0.2-1.1-0.6-1.5c-0.4-0.4-0.9-0.6-1.5-0.6s-1.1,0.2-1.5,0.6c-0.4,0.4-0.6,0.9-0.6,1.5S127,591.2,127.4,591.6z M135.8,587.2
	c0.7,0,1.2,0.2,1.5,0.6c0.4,0.4,0.6,0.9,0.6,1.6v3.3h-0.7v-3.3c0-0.5-0.1-0.9-0.4-1.1c-0.3-0.3-0.6-0.4-1.1-0.4
	c-0.5,0-0.9,0.2-1.3,0.5c-0.3,0.3-0.5,0.8-0.5,1.5v2.8h-0.7v-5.4h0.7v0.8C134.4,587.5,135,587.2,135.8,587.2z M141.8,592.9
	c-0.8,0-1.5-0.3-2-0.8c-0.5-0.5-0.8-1.2-0.8-2s0.3-1.5,0.8-2c0.5-0.5,1.2-0.8,2-0.8c0.5,0,1,0.1,1.4,0.4c0.4,0.3,0.7,0.6,0.9,1
	l-0.6,0.3c-0.1-0.3-0.4-0.6-0.7-0.8c-0.3-0.2-0.7-0.3-1.1-0.3c-0.6,0-1.1,0.2-1.5,0.6c-0.4,0.4-0.6,0.9-0.6,1.5s0.2,1.1,0.6,1.5
	c0.4,0.4,0.9,0.6,1.5,0.6c0.4,0,0.8-0.1,1.1-0.3c0.3-0.2,0.6-0.5,0.7-0.8l0.6,0.3c-0.2,0.4-0.6,0.8-1,1
	C142.8,592.8,142.3,592.9,141.8,592.9z M147.7,587.2c0.8,0,1.4,0.3,1.9,0.9c0.5,0.6,0.7,1.2,0.7,2c0,0.1,0,0.2,0,0.3h-4.8
	c0.1,0.5,0.3,1,0.7,1.3c0.4,0.3,0.9,0.5,1.5,0.5c0.4,0,0.8-0.1,1.1-0.2c0.3-0.2,0.5-0.4,0.7-0.7l0.6,0.4c-0.2,0.4-0.6,0.7-1,0.9
	c-0.4,0.2-0.9,0.3-1.4,0.3c-0.9,0-1.5-0.3-2.1-0.8c-0.5-0.5-0.8-1.2-0.8-2c0-0.8,0.3-1.5,0.8-2C146.2,587.5,146.9,587.2,147.7,587.2
	z M147.7,587.9c-0.6,0-1,0.2-1.4,0.5c-0.4,0.3-0.6,0.8-0.7,1.3h4c-0.1-0.6-0.3-1-0.7-1.3C148.6,588.1,148.2,587.9,147.7,587.9z"/>
<path class="st1" d="M104.7,563.8c0,3.5,1,6.9,3,9.8c1.9,2.9,4.7,5.2,8,6.5c3.2,1.3,6.8,1.7,10.2,1c3.4-0.7,6.6-2.4,9.1-4.8
	c2.5-2.5,4.2-5.6,4.8-9.1c0.7-3.4,0.3-7-1-10.2c-1.3-3.2-3.6-6-6.5-8c-2.9-1.9-6.3-3-9.8-3c-4.7,0-9.2,1.9-12.5,5.2
	C106.6,554.6,104.7,559.1,104.7,563.8"/>
<path class="st3" d="M123.3,560.5h-5.9v0.3h5.9V560.5z"/>
<path class="st3" d="M123.3,562.1h-5.9v0.3h5.9V562.1z"/>
<path class="st3" d="M123.3,563.6h-5.9v0.3h5.9V563.6z"/>
<path class="st3" d="M120.9,565.2h-3.5v0.3h3.5V565.2z"/>
<path class="st3" d="M116.1,570.2v-12.7h8v2h2.3v3.7c0.1,0,0.2,0,0.3,0v-3.8l-2.5-2.2h-0.8l-1.3-0.9v0h0l-0.1,0v0h-7.3v13.4h1.1v0.9
	h7.6c0-0.1-0.1-0.2-0.1-0.3L116.1,570.2z M124.4,557.7l1.7,1.4h-1.7V557.7z M115.8,569.3H115v-12.7h7l0.9,0.6h-7.1V569.3z"/>
<path class="st11" d="M126.3,564.4c-0.6,0-1.2,0.2-1.7,0.5c-0.5,0.3-0.9,0.8-1.1,1.3c-0.2,0.5-0.3,1.1-0.2,1.7
	c0.1,0.6,0.4,1.1,0.8,1.5c0.4,0.4,0.9,0.7,1.5,0.8c0.6,0.1,1.2,0.1,1.7-0.2c0.5-0.2,1-0.6,1.3-1.1c0.3-0.5,0.5-1.1,0.5-1.7
	c0-0.8-0.3-1.5-0.9-2.1C127.9,564.7,127.1,564.4,126.3,564.4L126.3,564.4z"/>
<path class="st3" d="M125,567.1C125,567.1,124.9,567.1,125,567.1c-0.1,0-0.1,0-0.1,0c0,0,0,0,0,0.1c0,0,0,0,0,0c0,0,0,0,0,0l0.8,1
	c0,0,0,0,0,0c0,0,0,0,0,0c0,0,0,0,0,0c0,0,0,0,0,0l2-1.6c0,0,0,0,0-0.1c0,0,0-0.1,0-0.1c0,0,0,0-0.1,0c0,0-0.1,0-0.1,0l-1.9,1.6
	L125,567.1z"/>
<path class="st8" d="M125,567.1C125,567.1,124.9,567.1,125,567.1c-0.1,0-0.1,0-0.1,0c0,0,0,0,0,0.1c0,0,0,0,0,0c0,0,0,0,0,0l0.8,1
	c0,0,0,0,0,0c0,0,0,0,0,0c0,0,0,0,0,0c0,0,0,0,0,0l2-1.6c0,0,0,0,0-0.1c0,0,0-0.1,0-0.1c0,0,0,0-0.1,0c0,0-0.1,0-0.1,0l-1.9,1.6
	L125,567.1z"/>
<path class="st6" d="M182.7,439.8L121.8,553"/>
<path class="st6" d="M205.7,439.8L266.6,553"/>
<path class="st7" d="M66.6,411.4l-8.4-2.5l0.5-0.7l7.2,2.2l-4.2-6.3l0.5-0.7l4.8,7.3L66.6,411.4z"/>
<path class="st7" d="M67.6,400.6l0.5-0.6l4.5,3.7l-0.5,0.6l-0.9-0.7c0.3,1,0.2,1.8-0.5,2.6c-0.5,0.6-1.2,1-2,1.1
	c-0.8,0.1-1.6-0.1-2.2-0.7c-0.7-0.5-1-1.2-1.1-2.1c-0.1-0.8,0.1-1.6,0.7-2.2c0.7-0.8,1.5-1.1,2.5-1L67.6,400.6z M68.7,406.5
	c0.6-0.1,1.1-0.3,1.6-0.9c0.4-0.5,0.6-1.1,0.5-1.7c-0.1-0.6-0.4-1.2-0.9-1.6c-0.5-0.4-1.1-0.6-1.7-0.5c-0.6,0.1-1.2,0.3-1.6,0.8
	c-0.4,0.5-0.6,1.1-0.5,1.7c0.1,0.6,0.3,1.1,0.9,1.6C67.5,406.4,68,406.6,68.7,406.5z"/>
<path class="st7" d="M73.8,402.4l-6.5-5.6l0.5-0.6l6.5,5.6L73.8,402.4z"/>
<path class="st7" d="M70.4,395.2c0,0.2,0,0.3-0.1,0.4c-0.1,0.1-0.2,0.2-0.4,0.2s-0.3,0-0.4-0.1c-0.1-0.1-0.2-0.2-0.2-0.4
	c0-0.2,0-0.3,0.1-0.4c0.1-0.1,0.2-0.2,0.4-0.2c0.2,0,0.3,0,0.4,0.1C70.3,394.9,70.4,395,70.4,395.2z M75.3,400.6l-4.4-3.9l0.5-0.6
	l4.4,3.9L75.3,400.6z"/>
<path class="st7" d="M74.4,389.5l0.5-0.6l6,5.6l-0.5,0.6l-0.8-0.8c0.3,1,0,1.9-0.7,2.6c-0.6,0.6-1.3,0.9-2.1,0.9
	c-0.8,0-1.6-0.3-2.2-0.9c-0.6-0.6-0.9-1.3-1-2.1c0-0.8,0.3-1.6,0.8-2.2c0.7-0.8,1.6-1,2.6-0.8L74.4,389.5z M76.7,397.2
	c0.6,0,1.2-0.3,1.6-0.7c0.4-0.5,0.7-1,0.6-1.6c0-0.6-0.3-1.2-0.7-1.6c-0.5-0.4-1-0.7-1.6-0.6c-0.6,0-1.2,0.3-1.6,0.7
	c-0.4,0.5-0.7,1-0.6,1.7c0,0.6,0.3,1.2,0.7,1.6C75.5,397,76.1,397.2,76.7,397.2z"/>
<path class="st7" d="M81.6,385.7l0.6-0.5l4.1,4.2l-0.6,0.5l-0.8-0.8c0.2,1-0.1,1.8-0.8,2.6c-0.6,0.6-1.3,0.9-2.2,0.9
	c-0.8,0-1.5-0.3-2.1-1c-0.6-0.6-0.9-1.3-0.9-2.2c0-0.8,0.3-1.5,0.9-2.1c0.7-0.7,1.6-1,2.6-0.7L81.6,385.7z M81.9,391.7
	c0.6,0,1.2-0.2,1.6-0.7c0.5-0.5,0.7-1,0.7-1.6c0-0.6-0.2-1.2-0.7-1.6c-0.5-0.5-1-0.7-1.6-0.7c-0.6,0-1.2,0.2-1.6,0.7
	c-0.5,0.5-0.7,1-0.7,1.6c0,0.6,0.2,1.2,0.7,1.6C80.8,391.5,81.3,391.7,81.9,391.7z"/>
<path class="st7" d="M86.3,382.4l-1.2,1.1l2.4,2.6c0.2,0.2,0.4,0.4,0.6,0.4c0.2,0,0.4-0.1,0.6-0.2c0.2-0.2,0.4-0.4,0.7-0.6l0.5,0.5
	c-0.5,0.6-1,1-1.5,1.1c-0.5,0.1-0.9-0.1-1.4-0.6l-2.4-2.6l-0.9,0.8l-0.5-0.6l0.9-0.8l-0.9-1l0.4-0.7l1.1,1.2l1.2-1.1L86.3,382.4z"/>
<path class="st7" d="M86.8,379.3c0,0.2-0.1,0.3-0.2,0.4c-0.1,0.1-0.3,0.1-0.4,0.1c-0.2,0-0.3-0.1-0.4-0.2s-0.1-0.3-0.1-0.4
	c0-0.2,0.1-0.3,0.2-0.4c0.1-0.1,0.3-0.1,0.4-0.1c0.2,0,0.3,0.1,0.4,0.2S86.8,379.1,86.8,379.3z M90.8,385.4l-3.7-4.5l0.6-0.5
	l3.7,4.5L90.8,385.4z"/>
<path class="st7" d="M96,380.3c-0.1,0.8-0.5,1.5-1.2,2c-0.7,0.5-1.4,0.7-2.3,0.7c-0.8-0.1-1.5-0.5-2.1-1.2c-0.5-0.7-0.7-1.4-0.6-2.3
	c0.1-0.8,0.5-1.5,1.2-2.1c0.7-0.5,1.4-0.7,2.3-0.6c0.8,0.1,1.5,0.5,2.1,1.2C95.9,378.7,96.1,379.4,96,380.3z M92.7,382.2
	c0.6,0.1,1.2-0.1,1.7-0.5c0.5-0.4,0.8-0.9,0.9-1.5c0.1-0.6-0.1-1.2-0.5-1.7c-0.4-0.5-0.9-0.8-1.5-0.9c-0.6-0.1-1.2,0.1-1.7,0.5
	c-0.5,0.4-0.8,0.9-0.9,1.5c-0.1,0.6,0.1,1.2,0.5,1.7C91.5,381.8,92,382.1,92.7,382.2z"/>
<path class="st7" d="M96.9,373.1c0.6-0.4,1.2-0.6,1.7-0.5c0.6,0.1,1.1,0.5,1.5,1l2.1,2.9l-0.6,0.5l-2.1-2.9
	c-0.3-0.4-0.7-0.7-1.1-0.7c-0.4-0.1-0.8,0-1.2,0.3c-0.5,0.3-0.7,0.7-0.8,1.2c-0.1,0.5,0.1,1,0.5,1.6l1.8,2.5l-0.6,0.5l-3.4-4.7
	l0.6-0.5l0.5,0.7C95.9,374.2,96.2,373.6,96.9,373.1z"/>
<path class="st7" d="M67.5,610.2c-1-0.8-1.5-1.8-1.6-2.9c-0.1-1.1,0.2-2.2,1-3.1c0.8-0.9,1.7-1.4,2.9-1.6c1.1-0.1,2.2,0.2,3.2,1
	c0.6,0.5,1,1.1,1.3,1.7c0.3,0.7,0.3,1.4,0.2,2.1l-0.8-0.1c0.1-0.6,0.1-1.1-0.1-1.7c-0.2-0.6-0.5-1-1-1.4c-0.8-0.6-1.6-0.9-2.6-0.8
	c-0.9,0.1-1.7,0.5-2.3,1.3s-0.9,1.6-0.8,2.5c0.1,0.9,0.5,1.7,1.3,2.4c0.5,0.4,1,0.6,1.6,0.7c0.6,0.1,1.1,0,1.6-0.2l0.3,0.8
	c-0.7,0.3-1.3,0.3-2.1,0.2C68.7,611,68,610.7,67.5,610.2z"/>
<path class="st7" d="M75.3,615.9c-0.8,0-1.6-0.2-2.2-0.8c-0.6-0.6-1-1.3-1-2.1c0-0.8,0.2-1.6,0.8-2.2c0.6-0.6,1.3-1,2.1-1
	c0.8,0,1.6,0.2,2.2,0.8c0.6,0.6,1,1.3,1,2.1c0.1,0.8-0.2,1.6-0.8,2.2C76.9,615.5,76.1,615.8,75.3,615.9z M72.8,612.9
	c0,0.6,0.3,1.2,0.8,1.6c0.5,0.4,1,0.6,1.7,0.6c0.6,0,1.2-0.3,1.6-0.8c0.4-0.5,0.6-1,0.6-1.7c0-0.6-0.3-1.2-0.8-1.6
	c-0.5-0.4-1-0.6-1.7-0.6c-0.6,0-1.2,0.3-1.6,0.8C73,611.7,72.8,612.3,72.8,612.9z"/>
<path class="st7" d="M84.8,615.6l0.6,0.5l-5.8,5.8l-0.6-0.5l0.8-0.8c-1,0.2-1.8,0-2.6-0.7c-0.6-0.6-0.9-1.3-0.9-2.1
	c0-0.8,0.3-1.6,0.9-2.2c0.6-0.6,1.3-0.9,2.2-0.9c0.8,0,1.6,0.3,2.2,0.9c0.7,0.7,1,1.6,0.8,2.6L84.8,615.6z M77.1,617.8
	c0,0.6,0.2,1.2,0.7,1.6c0.5,0.5,1,0.7,1.6,0.7c0.6,0,1.2-0.2,1.6-0.7c0.5-0.5,0.7-1,0.7-1.6c0-0.6-0.2-1.2-0.7-1.6
	c-0.5-0.5-1-0.7-1.6-0.7c-0.6,0-1.2,0.2-1.6,0.7C77.3,616.6,77.1,617.1,77.1,617.8z"/>
<path class="st7" d="M86.5,618.8c-0.2,0-0.3-0.1-0.4-0.2c-0.1-0.1-0.2-0.2-0.2-0.4c0-0.2,0.1-0.3,0.2-0.4c0.1-0.1,0.2-0.2,0.4-0.2
	c0.2,0,0.3,0.1,0.4,0.2c0.1,0.1,0.2,0.2,0.2,0.4c0,0.2-0.1,0.3-0.2,0.4C86.8,618.7,86.7,618.8,86.5,618.8z M80.7,623.2l4.2-4
	l0.5,0.6l-4.2,4L80.7,623.2z"/>
<path class="st7" d="M88.5,622.7c0.5,0.5,0.8,1,0.8,1.6c0,0.6-0.2,1.2-0.7,1.7l-2.4,2.7l-0.6-0.5l2.4-2.7c0.4-0.4,0.5-0.8,0.5-1.2
	c0-0.4-0.2-0.8-0.6-1.1c-0.4-0.4-0.9-0.6-1.4-0.5c-0.5,0-1,0.3-1.5,0.9l-2.1,2.3l-0.6-0.5l4-4.3l0.6,0.5l-0.6,0.7
	C87.1,621.9,87.8,622.1,88.5,622.7z"/>
<path class="st7" d="M95.3,628.5l0.6,0.5l-3.8,4.1c-0.6,0.6-1.2,0.9-2,0.9c-0.8,0-1.4-0.3-2-0.9c-1-0.9-1.4-1.9-1.1-2.9l0.8,0.2
	c-0.2,0.8,0.1,1.5,0.8,2.2c0.5,0.5,1,0.7,1.5,0.7c0.5,0,1-0.2,1.4-0.7l0.6-0.7c-1,0.3-1.8,0.1-2.6-0.6c-0.6-0.6-0.9-1.3-1-2.1
	c0-0.8,0.2-1.6,0.8-2.2c0.6-0.6,1.3-1,2.1-1c0.8,0,1.6,0.2,2.2,0.8c0.8,0.7,1.1,1.6,0.9,2.5L95.3,628.5z M89.3,629.2
	c0,0.6,0.3,1.2,0.8,1.6c0.5,0.4,1,0.6,1.7,0.6c0.6,0,1.2-0.3,1.6-0.8c0.4-0.5,0.6-1,0.6-1.7c0-0.6-0.3-1.2-0.7-1.6
	c-0.5-0.4-1-0.6-1.7-0.6c-0.6,0-1.2,0.3-1.6,0.8C89.5,628,89.3,628.6,89.3,629.2z"/>
<path class="st7" d="M282.2,374l0.2-3.8l-1.9-1.3l-1.8,2.7l-0.7-0.4l4.5-6.9l2.8,1.8c0.6,0.4,0.9,0.9,1.1,1.6c0.1,0.7,0,1.3-0.3,1.8
	c-0.3,0.5-0.7,0.8-1.2,1c-0.5,0.2-1,0.2-1.5,0l-0.2,3.9L282.2,374z M282.7,365.4l-1.8,2.8l2.1,1.3c0.4,0.2,0.8,0.3,1.2,0.2
	c0.5-0.1,0.8-0.4,1.1-0.7c0.3-0.4,0.3-0.8,0.2-1.3c-0.1-0.4-0.3-0.8-0.7-1L282.7,365.4z"/>
<path class="st7" d="M289.3,371.6c0.7,0.5,1.1,1.2,1.2,2c0.1,0.8-0.1,1.6-0.6,2.2c0,0.1-0.1,0.2-0.2,0.3l-4.2-3
	c-0.3,0.5-0.4,1.1-0.2,1.6c0.2,0.5,0.5,1,1,1.3c0.4,0.3,0.7,0.4,1.1,0.4c0.4,0,0.7,0,1-0.2l0.3,0.7c-0.5,0.2-0.9,0.3-1.4,0.2
	c-0.5-0.1-1-0.3-1.5-0.6c-0.8-0.5-1.2-1.2-1.3-2c-0.1-0.8,0.1-1.6,0.6-2.3c0.5-0.7,1.2-1.1,2-1.3
	C287.8,370.9,288.5,371.1,289.3,371.6z M288.8,372.2c-0.5-0.4-1-0.5-1.6-0.4c-0.5,0.1-1,0.3-1.4,0.7l3.6,2.5
	c0.3-0.5,0.4-1.1,0.3-1.6C289.6,372.9,289.3,372.5,288.8,372.2z"/>
<path class="st7" d="M296.7,377.4l0.6,0.5l-5,6.5l-0.6-0.5l2.1-2.8c-1,0.3-1.8,0.2-2.7-0.4c-0.7-0.5-1-1.2-1.1-2
	c-0.1-0.8,0.1-1.6,0.6-2.3c0.5-0.7,1.2-1.1,2-1.2c0.8-0.1,1.6,0.1,2.2,0.6c0.8,0.6,1.2,1.5,1.1,2.5L296.7,377.4z M290.8,378.6
	c0.1,0.6,0.4,1.1,0.9,1.5c0.5,0.4,1.1,0.6,1.7,0.5c0.6-0.1,1.1-0.4,1.5-0.9c0.4-0.5,0.6-1.1,0.5-1.7c-0.1-0.6-0.4-1.1-0.9-1.5
	c-0.5-0.4-1.1-0.6-1.7-0.5c-0.6,0.1-1.1,0.4-1.5,0.9C290.9,377.4,290.7,377.9,290.8,378.6z"/>
<path class="st7" d="M302,381.8l0.6,0.5l-3.8,4.4l-0.6-0.5l0.6-0.7c-0.8,0.2-1.5,0.1-2.2-0.5c-0.5-0.5-0.8-1-0.9-1.6
	c0-0.6,0.2-1.2,0.7-1.7l2.3-2.7l0.6,0.5l-2.3,2.7c-0.3,0.4-0.5,0.8-0.5,1.2c0,0.4,0.2,0.8,0.6,1.1c0.4,0.4,0.9,0.5,1.4,0.5
	c0.5,0,1-0.3,1.5-0.9L302,381.8z"/>
<path class="st7" d="M305.4,383c-0.2,0-0.3,0-0.4-0.1c-0.1-0.1-0.2-0.2-0.2-0.4c0-0.2,0-0.3,0.1-0.4c0.1-0.1,0.2-0.2,0.4-0.2
	c0.2,0,0.3,0,0.4,0.1c0.1,0.1,0.2,0.2,0.2,0.4c0,0.2,0,0.3-0.1,0.4C305.7,382.9,305.6,383,305.4,383z M300,387.9l3.9-4.3l0.6,0.5
	l-3.9,4.3L300,387.9z"/>
<path class="st7" d="M305.6,386.4c0.7-0.3,1.4-0.1,2.1,0.5l-0.5,0.5c-0.4-0.4-0.8-0.6-1.3-0.6c-0.5,0-0.9,0.2-1.4,0.7l-2.2,2.4
	l-0.6-0.5l4-4.3l0.6,0.5L305.6,386.4z"/>
<path class="st7" d="M310.3,389.4c0.6,0.6,0.9,1.3,0.8,2.1c-0.1,0.8-0.4,1.5-1,2.1c-0.1,0.1-0.2,0.1-0.3,0.2l-3.6-3.6
	c-0.4,0.5-0.5,1-0.5,1.5c0.1,0.5,0.3,1,0.8,1.5c0.3,0.3,0.6,0.5,1,0.6c0.4,0.1,0.7,0.1,1,0l0.2,0.8c-0.5,0.1-1,0.1-1.4-0.1
	c-0.5-0.1-0.9-0.4-1.3-0.8c-0.7-0.7-1-1.4-1-2.2c0-0.8,0.3-1.5,0.9-2.2c0.6-0.6,1.3-0.9,2.2-0.9C309,388.5,309.7,388.8,310.3,389.4z
	 M309.8,389.9c-0.4-0.4-0.9-0.7-1.5-0.7c-0.5,0-1,0.1-1.5,0.5l3.1,3.1c0.4-0.5,0.6-1,0.5-1.5C310.4,390.8,310.2,390.3,309.8,389.9z"
	/>
<path class="st7" d="M317.6,397.2c0.4,0.5,0.6,1,0.6,1.6c0,0.6-0.3,1.1-0.9,1.6l-2.7,2.4l-0.5-0.6l2.7-2.4c0.4-0.3,0.6-0.7,0.6-1.1
	c0-0.4-0.1-0.7-0.4-1c-0.3-0.4-0.7-0.5-1.2-0.6c-0.4,0-0.9,0.2-1.4,0.7l-2.4,2.2l-0.5-0.6l2.7-2.4c0.4-0.3,0.6-0.7,0.6-1.1
	c0-0.4-0.1-0.7-0.4-1c-0.3-0.3-0.7-0.5-1.2-0.6c-0.5,0-0.9,0.2-1.5,0.6l-2.4,2.2l-0.5-0.6l4.4-3.9l0.5,0.6l-0.6,0.6
	c0.8-0.1,1.4,0.1,1.9,0.7c0.6,0.6,0.7,1.3,0.4,2C316.4,396.3,317.1,396.6,317.6,397.2z"/>
<path class="st7" d="M322,402.4c0.5,0.7,0.7,1.4,0.6,2.2c-0.1,0.8-0.5,1.5-1.2,2c-0.1,0.1-0.2,0.1-0.3,0.2l-3.2-4
	c-0.4,0.4-0.6,0.9-0.6,1.5c0,0.6,0.2,1.1,0.6,1.6c0.3,0.3,0.6,0.6,0.9,0.7c0.4,0.1,0.7,0.2,1,0.1l0.1,0.8c-0.5,0.1-1,0-1.4-0.2
	c-0.5-0.2-0.9-0.5-1.2-1c-0.6-0.7-0.8-1.5-0.7-2.3c0.1-0.8,0.5-1.5,1.2-2.1c0.7-0.5,1.4-0.8,2.2-0.7
	C320.7,401.3,321.4,401.7,322,402.4z M321.4,402.8c-0.4-0.5-0.8-0.8-1.4-0.8c-0.5-0.1-1.1,0-1.5,0.3l2.7,3.4
	c0.4-0.4,0.7-0.9,0.7-1.5C321.9,403.7,321.7,403.3,321.4,402.8z"/>
<path class="st7" d="M326.3,408c0.4,0.6,0.6,1.1,0.5,1.7c-0.1,0.6-0.4,1.1-1,1.5l-2.9,2.1l-0.5-0.6l2.9-2.1c0.4-0.3,0.7-0.7,0.7-1.1
	c0.1-0.4,0-0.8-0.3-1.2c-0.3-0.5-0.8-0.7-1.2-0.8c-0.5-0.1-1,0.1-1.6,0.6l-2.5,1.8l-0.5-0.6l4.7-3.5l0.5,0.6l-0.7,0.5
	C325.1,407,325.8,407.3,326.3,408z"/>
<path class="st7" d="M329.7,414.3l-1-1.4l-2.9,2c-0.3,0.2-0.4,0.4-0.5,0.5c0,0.2,0,0.4,0.1,0.6c0.1,0.2,0.3,0.5,0.5,0.8l-0.6,0.4
	c-0.6-0.6-0.9-1.1-0.9-1.6c0-0.5,0.2-0.9,0.8-1.3l2.9-2l-0.7-1l0.6-0.4l0.7,1l1.2-0.8l0.6,0.5l-1.4,0.9l1,1.4L329.7,414.3z"/>
<path class="st7" d="M330,416.2c-0.2,0.1-0.3,0.4-0.3,0.6c0,0.3,0,0.6,0.2,0.9c0.1,0.3,0.2,0.7,0.3,1c0.1,0.3,0.1,0.7,0,1
	c-0.1,0.3-0.3,0.6-0.6,0.8c-0.4,0.3-0.9,0.3-1.3,0.2c-0.5-0.2-0.9-0.5-1.2-1c-0.3-0.5-0.5-0.9-0.5-1.4c0-0.5,0.1-0.9,0.4-1.2
	l0.7,0.3c-0.2,0.3-0.3,0.6-0.3,0.9c0,0.3,0.1,0.7,0.3,1c0.2,0.3,0.4,0.5,0.7,0.7c0.3,0.1,0.5,0.1,0.8-0.1c0.2-0.1,0.3-0.4,0.3-0.6
	c0-0.3,0-0.6-0.2-0.9c-0.1-0.3-0.2-0.7-0.3-1c-0.1-0.3-0.1-0.7,0-1c0.1-0.3,0.3-0.6,0.6-0.8c0.4-0.3,0.8-0.3,1.3-0.2
	c0.5,0.1,0.9,0.5,1.2,0.9c0.3,0.4,0.4,0.8,0.4,1.2c0,0.4-0.1,0.8-0.3,1.1l-0.7-0.3c0.3-0.5,0.3-1-0.1-1.6c-0.2-0.3-0.4-0.5-0.7-0.6
	C330.5,416,330.2,416,330,416.2z"/>
<path class="st12" d="M59,513.1l-9.6-9.8l-9.5,9.8"/>
<path class="st12" d="M329.9,503.2l9.6,9.8l9.5-9.8"/>
<path class="st12" d="M200.6,640.9l-9.8,9.6l9.8,9.5"/>
<path class="st12" d="M190.7,370l9.8-9.6l-9.8-9.5"/>
<path class="st1" d="M207.2,504.5h-26.2c-0.6,0-1.2,0.2-1.7,0.7c-0.4,0.4-0.7,1-0.7,1.7v19.4c0,0.6,0.2,1.2,0.7,1.7
	c0.4,0.4,1,0.7,1.7,0.7h9.4l-0.3,1.4H189c-0.1,0-0.1,0-0.1,0c0,0-0.1,0.1-0.1,0.1l-1.5,2c0,0,0,0.1,0,0.1c0,0.1,0,0.1,0,0.1
	c0,0,0.1,0.1,0.1,0.1c0,0,0.1,0,0.1,0h14.1c0.1,0,0.1,0,0.1,0c0,0,0.1-0.1,0.1-0.1c0,0,0-0.1,0-0.1c0-0.1,0-0.1,0-0.1l-1.5-2
	c0,0-0.1-0.1-0.1-0.1c0,0-0.1,0-0.1,0h-1.4l-0.3-1.4h8.9c0.6,0,1.2-0.2,1.7-0.7s0.7-1,0.7-1.7v-19.4c0-0.6-0.3-1.2-0.8-1.7
	S207.9,504.5,207.2,504.5L207.2,504.5z M199.9,530.6l1.2,1.4H188l1.2-1.4H199.9z M190.8,529.9l0.3-1.3h6.7l0.3,1.3H190.8z
	 M209,526.2c0,0.2,0,0.5-0.1,0.7c-0.1,0.2-0.2,0.4-0.4,0.6c-0.2,0.2-0.4,0.3-0.6,0.4c-0.2,0.1-0.4,0.1-0.7,0.1h-26.2
	c-0.2,0-0.5,0-0.7-0.1s-0.4-0.2-0.6-0.4c-0.2-0.2-0.3-0.4-0.4-0.6c-0.1-0.2-0.1-0.4-0.1-0.7v-1.3H209L209,526.2L209,526.2z
	 M209,524.4h-29.7v-17.5c0-0.2,0-0.5,0.1-0.7c0.1-0.2,0.2-0.4,0.4-0.6c0.2-0.2,0.4-0.3,0.6-0.4c0.2-0.1,0.4-0.1,0.7-0.1h26.2
	c0.2,0,0.5,0,0.7,0.1c0.2,0.1,0.4,0.2,0.6,0.4c0.2,0.2,0.3,0.4,0.4,0.6c0.1,0.2,0.1,0.4,0.1,0.7L209,524.4L209,524.4z"/>
<path class="st13" d="M207.2,504.5h-26.2c-0.6,0-1.2,0.2-1.7,0.7c-0.4,0.4-0.7,1-0.7,1.7v19.4c0,0.6,0.2,1.2,0.7,1.7
	c0.4,0.4,1,0.7,1.7,0.7h9.4l-0.3,1.4H189c-0.1,0-0.1,0-0.1,0c0,0-0.1,0.1-0.1,0.1l-1.5,2c0,0,0,0.1,0,0.1c0,0.1,0,0.1,0,0.1
	c0,0,0.1,0.1,0.1,0.1c0,0,0.1,0,0.1,0h14.1c0.1,0,0.1,0,0.1,0c0,0,0.1-0.1,0.1-0.1c0,0,0-0.1,0-0.1c0-0.1,0-0.1,0-0.1l-1.5-2
	c0,0-0.1-0.1-0.1-0.1c0,0-0.1,0-0.1,0h-1.4l-0.3-1.4h8.9c0.6,0,1.2-0.2,1.7-0.7s0.7-1,0.7-1.7v-19.4c0-0.6-0.3-1.2-0.8-1.7
	S207.9,504.5,207.2,504.5L207.2,504.5z M199.9,530.6l1.2,1.4H188l1.2-1.4H199.9z M190.8,529.9l0.3-1.3h6.7l0.3,1.3H190.8z
	 M209,526.2c0,0.2,0,0.5-0.1,0.7c-0.1,0.2-0.2,0.4-0.4,0.6c-0.2,0.2-0.4,0.3-0.6,0.4c-0.2,0.1-0.4,0.1-0.7,0.1h-26.2
	c-0.2,0-0.5,0-0.7-0.1s-0.4-0.2-0.6-0.4c-0.2-0.2-0.3-0.4-0.4-0.6c-0.1-0.2-0.1-0.4-0.1-0.7v-1.3H209L209,526.2L209,526.2z
	 M209,524.4h-29.7v-17.5c0-0.2,0-0.5,0.1-0.7c0.1-0.2,0.2-0.4,0.4-0.6c0.2-0.2,0.4-0.3,0.6-0.4c0.2-0.1,0.4-0.1,0.7-0.1h26.2
	c0.2,0,0.5,0,0.7,0.1c0.2,0.1,0.4,0.2,0.6,0.4c0.2,0.2,0.3,0.4,0.4,0.6c0.1,0.2,0.1,0.4,0.1,0.7L209,524.4L209,524.4z"/>
</svg>
