<svg width="231" height="127" viewBox="0 0 231 127" fill="none" xmlns="http://www.w3.org/2000/svg">
<g clip-path="url(#clip0_518_2015)">
<path d="M82.9722 51.5664C78.8841 51.5664 74.9336 52.1886 71.229 53.3351C67.8354 59.1277 65.5486 65.6455 64.6714 72.5927C71.1555 64.7611 80.9873 59.758 91.9992 59.758C101.128 59.758 109.445 63.2005 115.724 68.8493C108.609 58.4188 96.5953 51.5664 82.9722 51.5664Z" fill="#EEEEEE"/>
<path d="M148.12 51.5664C152.213 51.5664 156.166 52.1886 159.877 53.3351C163.271 59.1266 165.55 65.6445 166.426 72.5917C159.941 64.7601 150.11 59.757 139.1 59.757C129.969 59.757 121.653 63.1995 115.373 68.8483C122.48 58.4188 134.495 51.5664 148.12 51.5664Z" fill="#EEEEEE"/>
<path d="M65.5555 78.6914L69.404 87.033H68.0025L66.7581 84.3167H63.2605L61.9784 87.033H61.293L65.2128 78.6914H65.5555V78.6914ZM63.5084 83.7904H66.5052L65.0231 80.556L63.5084 83.7904Z" fill="#EEEEEE"/>
<path d="M71.0522 78.8711H73.8736C74.3662 78.8711 74.7967 78.9262 75.1649 79.0312C75.5382 79.1343 75.8411 79.2862 76.088 79.477C76.3358 79.6606 76.5184 79.884 76.6378 80.1471C76.7653 80.4103 76.8295 80.6887 76.8295 80.9988C76.8295 81.2538 76.7816 81.4925 76.6867 81.7077C76.5908 81.9311 76.4542 82.13 76.2797 82.3054C76.1043 82.488 75.8891 82.64 75.6504 82.7675C75.4046 82.9021 75.1322 82.998 74.8385 83.0694L77.8016 87.0291H76.2145L73.388 83.1979H72.4241V87.0291H71.0533V78.8711H71.0522ZM72.4231 82.7828H73.2116C73.5227 82.7828 73.8001 82.743 74.0643 82.6645C74.3275 82.5768 74.5508 82.4646 74.7416 82.3136C74.9323 82.1626 75.0761 81.979 75.1883 81.7638C75.2995 81.5496 75.3475 81.3099 75.3475 81.0468C75.3475 80.8081 75.3077 80.5776 75.2189 80.3776C75.1404 80.1696 75.0129 79.9951 74.8681 79.8513C74.71 79.7075 74.5335 79.5882 74.3183 79.5086C74.1031 79.4219 73.8807 79.3811 73.6267 79.3811H72.4221V82.7828H72.4231Z" fill="#EEEEEE"/>
<path d="M82.7005 78.6914L86.5398 87.033H85.1454L83.9031 84.3167H80.4055L79.1141 87.033H78.4287L82.3578 78.6914H82.7005V78.6914ZM80.6442 83.7904H83.6481L82.166 80.556L80.6442 83.7904Z" fill="#EEEEEE"/>
<path d="M88.1904 78.8711H91.481C91.9104 78.8711 92.3092 78.919 92.6764 79.0231C93.0344 79.1179 93.3527 79.2536 93.6077 79.429C93.8627 79.6035 94.0697 79.8187 94.2135 80.0665C94.3573 80.3052 94.4298 80.5765 94.4298 80.8785C94.4298 81.1018 94.4063 81.3007 94.3574 81.4762C94.3094 81.6516 94.2298 81.8107 94.1197 81.9627C94.0075 82.1137 93.8565 82.2575 93.6648 82.3921C93.473 82.5278 93.2343 82.6635 92.9406 82.7981V82.8216C93.2343 82.8695 93.4975 82.9409 93.7362 83.0531C93.9687 83.1643 94.1666 83.3081 94.3339 83.4835C94.5012 83.6498 94.6287 83.8497 94.7164 84.0802C94.8041 84.3026 94.852 84.5494 94.852 84.8218C94.852 85.1319 94.7878 85.4185 94.645 85.6898C94.5175 85.9611 94.3257 86.1916 94.0799 86.3916C93.8331 86.5915 93.5301 86.7506 93.1792 86.8618C92.8273 86.973 92.4306 87.0291 92.0011 87.0291H88.1925V78.8711H88.1904ZM89.5603 82.5451H91.3137C91.586 82.5451 91.8237 82.5043 92.046 82.4258C92.2541 82.3452 92.4377 82.2422 92.5897 82.1065C92.7335 81.9627 92.8437 81.8036 92.9222 81.6129C92.9956 81.4303 93.0334 81.2222 93.0334 80.9988C93.0334 80.7601 92.9865 80.5449 92.8906 80.3532C92.811 80.1543 92.6662 79.987 92.4754 79.8513C92.2847 79.7075 92.045 79.6035 91.7431 79.5321C91.4565 79.4525 91.1056 79.4209 90.6925 79.4209H89.5603V82.5451V82.5451ZM89.5603 86.4324H91.0424C91.4412 86.4324 91.791 86.4007 92.0787 86.3202C92.3806 86.2488 92.6193 86.1376 92.812 86.0019C93.0038 85.8663 93.1466 85.699 93.2333 85.5082C93.321 85.3175 93.37 85.1023 93.37 84.8707C93.37 84.6157 93.3292 84.376 93.2425 84.1537C93.1619 83.9303 93.0344 83.7314 92.8437 83.5723C92.6519 83.4132 92.4132 83.2857 92.1103 83.1898C91.8063 83.0939 91.4412 83.046 91.0107 83.046H89.5603V86.4324V86.4324Z" fill="#EEEEEE"/>
<path d="M98.1318 78.8711H96.769V87.0291H98.1318V78.8711Z" fill="#EEEEEE"/>
<path d="M104.06 78.6914L107.9 87.033H106.507L105.255 84.3167H101.766L100.474 87.033H99.79L103.724 78.6914H104.06V78.6914ZM102.005 83.7904H105.008L103.527 80.556L102.005 83.7904Z" fill="#EEEEEE"/>
<path d="M109.556 78.8711H110.322L115.667 84.8391H115.724V78.8711H116.321V87.229H116.011L110.211 80.5918H110.163V87.0291H109.556V78.8711Z" fill="#EEEEEE"/>
<path d="M123.085 78.8711H123.849L129.204 84.8391H129.252V78.8711H129.857V87.229H129.538L123.738 80.5918H123.707V87.0291H123.085V78.8711Z" fill="#EEEEEE"/>
<path d="M133.873 78.8711H132.502V87.0291H133.873V78.8711Z" fill="#EEEEEE"/>
<path d="M141.155 79.2718C140.677 79.2718 140.215 79.3677 139.801 79.5339C139.387 79.7094 139.036 79.9644 138.734 80.2826C138.431 80.609 138.192 80.9997 138.032 81.4617C137.857 81.9238 137.777 82.4409 137.777 83.0152C137.777 83.5894 137.873 84.1066 138.048 84.5686C138.24 85.0317 138.479 85.4214 138.796 85.7396C139.115 86.066 139.481 86.321 139.913 86.4964C140.342 86.6709 140.804 86.7586 141.298 86.7586C141.648 86.7586 141.983 86.7025 142.27 86.6076C142.557 86.5128 142.812 86.3771 143.034 86.1935V83.3334H141.505V82.8397H144.406V86.4322C144.182 86.5597 143.927 86.679 143.688 86.7749C143.45 86.8708 143.194 86.9575 142.907 87.0217C142.636 87.0931 142.318 87.1411 141.983 87.1737C141.648 87.2053 141.266 87.2298 140.836 87.2298C140.389 87.2298 139.96 87.1737 139.561 87.0789C139.148 86.9748 138.781 86.831 138.431 86.6484C138.081 86.4648 137.762 86.2425 137.49 85.9875C137.205 85.7243 136.98 85.4458 136.774 85.1266C136.583 84.8247 136.439 84.4891 136.328 84.1239C136.216 83.7649 136.168 83.3987 136.168 83.0162C136.168 82.6337 136.216 82.2594 136.328 81.9013C136.422 81.5352 136.566 81.1924 136.758 80.8742C136.95 80.5549 137.172 80.2602 137.442 79.9888C137.715 79.7267 138.017 79.4952 138.352 79.3044C138.702 79.1055 139.069 78.9627 139.468 78.8505C139.866 78.7475 140.296 78.6914 140.742 78.6914C141.189 78.6914 141.588 78.7475 141.953 78.8668C142.305 78.978 142.655 79.1382 142.957 79.3289C143.243 79.5278 143.516 79.7512 143.754 79.998C143.992 80.253 144.184 80.5162 144.359 80.7946L143.77 81.1935C143.42 80.5325 143.036 80.046 142.622 79.7359C142.19 79.4309 141.713 79.2718 141.155 79.2718Z" fill="#EEEEEE"/>
<path d="M148.276 83.1184V87.0291H146.923V78.8711H148.276V82.5921H152.388V78.8711H153.759V87.0291H152.388V83.1184H148.276Z" fill="#EEEEEE"/>
<path d="M162.888 78.8711V79.3974H159.941V87.0291H158.572V79.3974H155.606V78.8711H162.888Z" fill="#EEEEEE"/>
<path d="M166.983 86.7046C167.175 86.7046 167.383 86.6812 167.574 86.6251C167.78 86.569 167.956 86.4894 168.098 86.3782C168.258 86.267 168.385 86.1314 168.48 85.9794C168.577 85.8203 168.624 85.6377 168.624 85.4306C168.624 85.1756 168.561 84.9604 168.418 84.7615C168.291 84.5698 168.132 84.3953 167.925 84.2281C167.718 84.0679 167.478 83.917 167.207 83.766C166.937 83.6222 166.666 83.4794 166.378 83.3356C166.107 83.1917 165.82 83.0408 165.55 82.8888C165.295 82.7215 165.057 82.5542 164.832 82.3553C164.626 82.1636 164.467 81.9484 164.339 81.7097C164.212 81.4628 164.147 81.1915 164.147 80.8804C164.147 80.5693 164.195 80.2745 164.324 80.0124C164.434 79.7411 164.611 79.5095 164.832 79.3106C165.057 79.1189 165.327 78.9679 165.661 78.8567C165.997 78.7456 166.378 78.6895 166.809 78.6895C167.575 78.6895 168.18 78.8486 168.642 79.176C169.088 79.5024 169.406 79.9634 169.597 80.5785L168.897 80.8967C168.817 80.6499 168.721 80.4265 168.595 80.2195C168.466 80.0124 168.308 79.8288 168.132 79.686C167.957 79.534 167.749 79.4228 167.526 79.3433C167.288 79.2627 167.032 79.2239 166.745 79.2239C166.474 79.2239 166.251 79.2556 166.058 79.328C165.867 79.3994 165.709 79.4953 165.582 79.6064C165.454 79.7268 165.357 79.8614 165.295 80.0053C165.231 80.1491 165.199 80.3 165.199 80.452C165.199 80.6662 165.263 80.8661 165.405 81.0416C165.534 81.217 165.709 81.3843 165.917 81.5434C166.138 81.7025 166.377 81.8627 166.65 82.0055C166.936 82.1564 167.223 82.3003 167.509 82.4522C167.796 82.6114 168.067 82.7633 168.354 82.9296C168.624 83.0897 168.881 83.2733 169.087 83.4641C169.294 83.663 169.485 83.8782 169.614 84.1087C169.74 84.3474 169.805 84.6024 169.805 84.889C169.805 85.2083 169.741 85.5102 169.63 85.7978C169.501 86.0763 169.311 86.3231 169.072 86.5384C168.817 86.7536 168.514 86.9209 168.164 87.0402C167.797 87.1677 167.367 87.232 166.872 87.232C166.489 87.232 166.138 87.184 165.837 87.0963C165.517 87.0167 165.247 86.8892 165.007 86.722C164.784 86.5618 164.577 86.3629 164.418 86.1161C164.242 85.8845 164.098 85.6142 163.987 85.3113L164.736 85.0084C164.816 85.2715 164.928 85.5102 165.071 85.7254C165.214 85.9325 165.39 86.1161 165.581 86.2589C165.771 86.4017 165.995 86.5139 166.217 86.5945C166.458 86.6659 166.712 86.7046 166.983 86.7046Z" fill="#EEEEEE"/>
<path d="M90.1182 90.9004H92.1163C92.4591 90.9004 92.7702 90.9402 93.0323 91.0044C93.2883 91.084 93.5117 91.187 93.6861 91.3237C93.8616 91.4593 93.9901 91.6185 94.0849 91.8011C94.1645 91.9847 94.2124 92.1836 94.2124 92.4069C94.2124 92.5824 94.1808 92.7578 94.1084 92.9088C94.037 93.0679 93.9421 93.2117 93.8228 93.3311C93.7035 93.4586 93.5443 93.5697 93.3689 93.6585C93.2016 93.7533 93.0027 93.8257 92.7946 93.8737L94.8979 96.6787H93.782L91.7665 93.9614H91.0892V96.6787H90.1182V90.9004V90.9004ZM91.0902 93.6727H91.6471C91.8726 93.6727 92.0623 93.6401 92.254 93.585C92.4376 93.5208 92.5957 93.4412 92.7334 93.3382C92.8681 93.227 92.9721 93.0985 93.0507 92.9486C93.1312 92.7976 93.1618 92.6293 93.1618 92.4386C93.1618 92.2621 93.1312 92.104 93.066 91.9602C93.0109 91.8163 92.9221 91.6889 92.8201 91.5858C92.7161 91.4818 92.5896 91.4022 92.4295 91.3472C92.2857 91.2911 92.1174 91.2594 91.9429 91.2594H91.0902V93.6727Z" fill="#EEEEEE"/>
<path d="M97.3991 96.774C97.0982 96.774 96.8115 96.7189 96.5474 96.6077C96.2842 96.4955 96.0547 96.3446 95.8538 96.1446C95.6549 95.9539 95.5039 95.7224 95.3846 95.4592C95.2713 95.1971 95.2173 94.9176 95.2173 94.6146C95.2173 94.2566 95.2652 93.9302 95.3754 93.6273C95.4713 93.3243 95.6222 93.0612 95.815 92.8388C96.0057 92.6154 96.2373 92.441 96.5076 92.3207C96.7789 92.1932 97.0818 92.1289 97.3991 92.1289C97.702 92.1289 97.9652 92.185 98.213 92.289C98.4517 92.3921 98.6598 92.5277 98.8332 92.695C99.0086 92.8704 99.1443 93.0693 99.2473 93.3009C99.3442 93.5232 99.3911 93.7629 99.3911 94.0179H96.0608C96.0608 94.3127 96.1088 94.5912 96.1802 94.8472C96.2516 95.1022 96.3638 95.3256 96.5066 95.5082C96.6422 95.6918 96.8105 95.8437 97.0002 95.9468C97.192 96.0508 97.4052 96.1069 97.6377 96.1069C97.8295 96.1069 98.0202 96.0753 98.1957 96.011C98.3711 95.9468 98.5292 95.8672 98.673 95.7642C98.8169 95.6683 98.9454 95.549 99.0402 95.4133C99.1433 95.2858 99.2157 95.1501 99.2544 95.0063L99.5094 95.1267C99.438 95.3501 99.3432 95.5724 99.1994 95.7723C99.0555 95.9712 98.8964 96.1467 98.7047 96.2895C98.5139 96.4415 98.3069 96.5598 98.0845 96.6485C97.854 96.7342 97.6224 96.774 97.3991 96.774ZM98.2763 93.6599C98.2763 93.4845 98.2528 93.3325 98.1977 93.1897C98.1335 93.0377 98.0529 92.9112 97.9427 92.8072C97.8458 92.7032 97.7183 92.6154 97.5827 92.5593C97.4388 92.4951 97.2889 92.4635 97.1288 92.4635C97.0023 92.4635 96.8748 92.4951 96.7463 92.5593C96.6198 92.6154 96.5157 92.695 96.4209 92.8072C96.325 92.9102 96.2465 93.0377 96.1822 93.1805C96.1261 93.3243 96.0792 93.4835 96.071 93.6507L98.2763 93.6599Z" fill="#EEEEEE"/>
<path d="M101.765 96.4721C101.885 96.4721 101.997 96.4476 102.1 96.416C102.196 96.3752 102.292 96.3282 102.362 96.264C102.434 96.2079 102.498 96.1365 102.53 96.0569C102.578 95.9774 102.595 95.8896 102.595 95.8101C102.595 95.6744 102.563 95.5551 102.498 95.451C102.427 95.3552 102.34 95.2593 102.226 95.1797C102.116 95.0991 101.988 95.0277 101.844 94.9563C101.7 94.8921 101.55 94.8207 101.397 94.7493C101.253 94.685 101.11 94.6055 100.967 94.5259C100.823 94.4453 100.696 94.3515 100.584 94.2474C100.474 94.1363 100.377 94.0159 100.314 93.8731C100.242 93.7293 100.204 93.5702 100.204 93.3784C100.204 93.1958 100.251 93.0275 100.323 92.8776C100.393 92.7266 100.506 92.5981 100.634 92.4869C100.778 92.3757 100.936 92.288 101.12 92.2248C101.303 92.1687 101.51 92.1289 101.734 92.1289C101.878 92.1289 102.02 92.1452 102.148 92.1697C102.274 92.185 102.403 92.2258 102.53 92.2809C102.65 92.3451 102.769 92.4247 102.897 92.5359C103.024 92.6399 103.15 92.7827 103.278 92.9582L102.959 93.2529C102.783 92.9745 102.601 92.7674 102.385 92.6318C102.178 92.4961 101.955 92.4247 101.716 92.4247C101.597 92.4247 101.478 92.441 101.373 92.4726C101.27 92.5043 101.176 92.5522 101.102 92.6001C101.031 92.6562 100.966 92.7195 100.935 92.7919C100.888 92.8633 100.871 92.9429 100.871 93.0234C100.871 93.1581 100.903 93.2703 100.983 93.3733C101.054 93.4682 101.158 93.5569 101.27 93.6436C101.396 93.7242 101.541 93.7956 101.683 93.8588C101.842 93.9302 102.002 94.0026 102.162 94.074C102.329 94.1383 102.487 94.2179 102.639 94.2974C102.799 94.376 102.942 94.4729 103.054 94.5759C103.182 94.6789 103.277 94.8064 103.357 94.9421C103.429 95.0859 103.469 95.244 103.469 95.4357C103.469 95.6193 103.436 95.7948 103.357 95.9621C103.292 96.1293 103.182 96.264 103.038 96.3925C102.902 96.5118 102.719 96.6077 102.511 96.671C102.289 96.7424 102.05 96.774 101.763 96.774C101.629 96.774 101.491 96.7668 101.364 96.7505C101.221 96.7271 101.085 96.6873 100.941 96.623C100.807 96.5669 100.663 96.4792 100.52 96.3762C100.384 96.265 100.249 96.1293 100.121 95.9539L100.472 95.6275C100.582 95.7785 100.687 95.906 100.791 96.01C100.888 96.1222 100.99 96.2018 101.094 96.2732C101.19 96.3446 101.301 96.3925 101.405 96.4241C101.51 96.4557 101.637 96.4721 101.765 96.4721Z" fill="#EEEEEE"/>
<path d="M106.53 96.773C106.196 96.773 105.876 96.7179 105.59 96.5985C105.304 96.4792 105.047 96.3201 104.841 96.113C104.634 95.906 104.467 95.6663 104.347 95.396C104.236 95.1175 104.172 94.8217 104.172 94.5116C104.172 94.1771 104.236 93.8741 104.347 93.5875C104.467 93.2927 104.634 93.0459 104.841 92.8307C105.047 92.6154 105.304 92.441 105.59 92.3207C105.876 92.1932 106.196 92.1289 106.53 92.1289C106.873 92.1289 107.184 92.185 107.47 92.3043C107.756 92.4155 108.011 92.5675 108.218 92.7735C108.425 92.9653 108.583 93.1968 108.712 93.4671C108.823 93.7303 108.887 94.0169 108.887 94.328C108.887 94.6616 108.823 94.9818 108.712 95.2766C108.583 95.5704 108.425 95.8335 108.218 96.0569C108.011 96.2793 107.756 96.4547 107.47 96.5832C107.184 96.7097 106.873 96.773 106.53 96.773ZM106.697 96.4466C106.873 96.4466 107.031 96.4068 107.184 96.3109C107.328 96.2232 107.446 96.1038 107.55 95.9529C107.66 95.8009 107.741 95.6265 107.804 95.4266C107.86 95.2185 107.884 95.0033 107.884 94.7809C107.884 94.4616 107.86 94.1597 107.804 93.8802C107.748 93.5936 107.66 93.3468 107.534 93.1397C107.406 92.9327 107.247 92.7654 107.055 92.646C106.849 92.5267 106.609 92.4624 106.313 92.4624C106.162 92.4624 106.019 92.5022 105.882 92.5899C105.748 92.6777 105.619 92.798 105.517 92.949C105.413 93.0928 105.317 93.2672 105.262 93.4661C105.198 93.665 105.165 93.8802 105.165 94.1036C105.165 94.431 105.198 94.733 105.27 95.0196C105.334 95.298 105.438 95.5459 105.573 95.7611C105.701 95.9682 105.86 96.1355 106.051 96.263C106.243 96.3823 106.45 96.4466 106.697 96.4466Z" fill="#EEEEEE"/>
<path d="M109.733 92.2248H110.617V93.0693C110.704 92.9418 110.794 92.8215 110.896 92.7103C110.991 92.5991 111.102 92.4951 111.207 92.4074C111.311 92.3196 111.422 92.2564 111.532 92.2085C111.653 92.1605 111.772 92.1289 111.892 92.1289C111.987 92.1289 112.076 92.1452 112.155 92.1768C112.242 92.2085 112.314 92.2411 112.378 92.2962C112.442 92.3431 112.49 92.3992 112.522 92.4635C112.561 92.5277 112.578 92.5991 112.578 92.6624C112.578 92.8133 112.538 92.9255 112.443 92.9969C112.355 93.0683 112.235 93.0999 112.069 93.0999C111.964 93.0999 111.884 93.0928 111.836 93.0683C111.773 93.052 111.717 93.0275 111.668 93.0041C111.614 92.9724 111.565 92.9561 111.519 92.9327C111.471 92.9092 111.408 92.901 111.335 92.901C111.278 92.901 111.216 92.9163 111.151 92.9561C111.103 92.9877 111.041 93.0357 110.976 93.0999C110.92 93.156 110.864 93.2274 110.801 93.3152C110.737 93.4029 110.674 93.4906 110.617 93.5936V96.6771H109.733V92.2248V92.2248Z" fill="#EEEEEE"/>
<path d="M115.613 96.1103C115.485 96.3174 115.335 96.4765 115.136 96.5958C114.944 96.7152 114.696 96.7703 114.41 96.7703C114.258 96.7703 114.131 96.7468 114.019 96.6989C113.908 96.6519 113.827 96.5805 113.749 96.4918C113.676 96.3969 113.62 96.2847 113.59 96.1572C113.557 96.0297 113.541 95.8941 113.541 95.735V92.5954H112.76V92.372C113.015 92.372 113.221 92.3312 113.38 92.2374C113.54 92.1497 113.667 92.0303 113.78 91.8702C113.876 91.7192 113.955 91.5438 114.018 91.3367C114.073 91.1378 114.122 90.9226 114.169 90.6992H114.416V92.2221H115.419V92.5964H114.416V95.736C114.416 95.8074 114.432 95.8635 114.464 95.9277C114.48 95.9838 114.512 96.0318 114.56 96.0787C114.608 96.1195 114.655 96.1501 114.719 96.1746C114.768 96.198 114.829 96.2144 114.902 96.2144C115.006 96.2144 115.093 96.1909 115.174 96.143C115.261 96.096 115.325 96.0318 115.389 95.9604L115.613 96.1103Z" fill="#EEEEEE"/>
<path d="M123.483 93.5606C123.451 93.7677 123.403 93.9502 123.356 94.1175C123.308 94.2777 123.245 94.4286 123.164 94.5724C123.101 94.7234 123.02 94.8591 122.925 95.0019C122.828 95.1294 122.718 95.2813 122.607 95.4323C122.828 95.6557 123.035 95.8311 123.244 95.9658C123.435 96.0933 123.627 96.1575 123.785 96.1575C124.007 96.1575 124.184 96.1177 124.343 96.03C124.502 95.9505 124.63 95.7985 124.725 95.5833L124.885 95.6394C124.837 95.8311 124.789 95.9984 124.693 96.1412C124.613 96.285 124.501 96.4125 124.374 96.5155C124.262 96.6114 124.119 96.691 123.958 96.7389C123.8 96.7869 123.626 96.8185 123.433 96.8185C123.194 96.8185 122.956 96.7471 122.699 96.6114C122.445 96.4758 122.206 96.2922 121.952 96.0698C121.824 96.181 121.665 96.2769 121.521 96.3717C121.363 96.4594 121.202 96.54 121.027 96.6114C120.868 96.6757 120.693 96.7226 120.501 96.7624C120.326 96.794 120.135 96.8175 119.944 96.8175C119.672 96.8175 119.442 96.7858 119.242 96.7226C119.05 96.6583 118.899 96.5706 118.78 96.4594C118.652 96.3472 118.566 96.2197 118.509 96.0688C118.451 95.9097 118.422 95.7424 118.422 95.5588C118.422 95.2864 118.476 95.0559 118.572 94.8489C118.668 94.6418 118.803 94.4582 118.972 94.2991C119.13 94.14 119.322 93.9972 119.529 93.8697C119.735 93.7422 119.959 93.6228 120.165 93.5106C120.055 93.2556 119.959 93.0241 119.888 92.8089C119.816 92.5947 119.783 92.4111 119.783 92.2672C119.783 92.0755 119.815 91.8847 119.871 91.7103C119.936 91.5267 120.029 91.3676 120.149 91.2319C120.277 91.0881 120.435 90.9769 120.628 90.8892C120.82 90.8015 121.041 90.7617 121.281 90.7617C121.473 90.7617 121.648 90.7852 121.807 90.8413C121.983 90.8974 122.11 90.9769 122.239 91.081C122.366 91.184 122.461 91.3125 122.525 91.4635C122.605 91.6073 122.635 91.7736 122.635 91.9653C122.635 92.1571 122.588 92.3244 122.492 92.4672C122.412 92.611 122.285 92.7385 122.141 92.8497C121.997 92.9608 121.838 93.0649 121.648 93.1608C121.472 93.2475 121.281 93.3433 121.089 93.4311C121.249 93.7177 121.424 94.0043 121.632 94.2919C121.854 94.5704 122.079 94.8489 122.333 95.1202C122.476 94.9611 122.605 94.8091 122.698 94.6571C122.811 94.5061 122.906 94.3552 122.984 94.2195C123.05 94.0839 123.112 93.9564 123.161 93.837C123.209 93.7095 123.241 93.5983 123.257 93.4943L123.483 93.5606ZM120.329 93.8064C120.185 93.8941 120.043 93.9819 119.923 94.0849C119.796 94.1889 119.692 94.293 119.596 94.4113C119.509 94.5225 119.437 94.65 119.39 94.7775C119.342 94.905 119.309 95.0406 119.309 95.1763C119.309 95.3354 119.342 95.4792 119.39 95.6149C119.437 95.7495 119.509 95.8699 119.604 95.9739C119.701 96.0769 119.82 96.1565 119.948 96.2126C120.075 96.2687 120.234 96.3003 120.41 96.3003C120.633 96.3003 120.856 96.2452 121.064 96.1494C121.271 96.0463 121.461 95.9188 121.653 95.7669C121.525 95.6322 121.398 95.4802 121.271 95.3201C121.159 95.161 121.046 94.9937 120.936 94.8264C120.825 94.6581 120.712 94.4919 120.617 94.3164C120.519 94.1491 120.424 93.9747 120.329 93.8064ZM120.949 93.1689C121.11 93.0904 121.253 93.0098 121.381 92.9221C121.508 92.8415 121.619 92.7548 121.714 92.6518C121.81 92.5559 121.89 92.4519 121.939 92.3325C122.002 92.2142 122.035 92.0857 122.035 91.9429C122.035 91.8001 122.002 91.6807 121.97 91.5685C121.94 91.4574 121.891 91.3605 121.827 91.2891C121.762 91.2095 121.699 91.1544 121.603 91.1146C121.524 91.0749 121.428 91.0504 121.332 91.0504C121.236 91.0504 121.14 91.0738 121.045 91.1299C120.949 91.185 120.87 91.2574 120.807 91.3523C120.742 91.4319 120.696 91.5359 120.663 91.6471C120.615 91.7511 120.599 91.8623 120.599 91.9663C120.599 92.1418 120.631 92.3325 120.695 92.5406C120.759 92.7558 120.839 92.9619 120.949 93.1689Z" fill="#EEEEEE"/>
<path d="M129.714 96.445C129.858 96.445 130.001 96.4287 130.145 96.3899C130.289 96.3491 130.416 96.294 130.51 96.2145C130.621 96.1349 130.718 96.0472 130.781 95.9278C130.846 95.8167 130.877 95.6892 130.877 95.5453C130.877 95.3617 130.829 95.2108 130.749 95.0751C130.654 94.9323 130.543 94.813 130.383 94.6936C130.241 94.5743 130.064 94.4621 129.874 94.3672C129.683 94.2632 129.491 94.1592 129.301 94.0643C129.092 93.9603 128.901 93.8491 128.71 93.7369C128.518 93.6257 128.36 93.5064 128.201 93.3625C128.056 93.2269 127.928 93.0759 127.85 92.9086C127.755 92.7342 127.707 92.5425 127.707 92.3191C127.707 92.0967 127.738 91.8897 127.833 91.7061C127.913 91.5143 128.042 91.347 128.2 91.2114C128.359 91.0675 128.551 90.9645 128.788 90.885C129.028 90.8054 129.3 90.7656 129.602 90.7656C130.144 90.7656 130.574 90.8768 130.892 91.1083C131.212 91.3389 131.435 91.6744 131.579 92.1049L131.084 92.3354C131.02 92.161 130.958 91.9937 130.862 91.8499C130.765 91.7071 130.654 91.5786 130.543 91.4755C130.416 91.3644 130.272 91.2838 130.096 91.2287C129.938 91.1726 129.746 91.141 129.555 91.141C129.363 91.141 129.204 91.1726 129.076 91.2205C128.933 91.2766 128.822 91.3399 128.726 91.4205C128.646 91.5 128.567 91.5959 128.534 91.6989C128.486 91.803 128.455 91.906 128.455 92.0182C128.455 92.1702 128.502 92.3048 128.598 92.4323C128.694 92.5598 128.822 92.6791 128.965 92.7913C129.124 92.9107 129.3 93.0147 129.49 93.1177C129.682 93.2218 129.889 93.3248 130.096 93.437C130.304 93.5482 130.495 93.6604 130.686 93.7716C130.892 93.8909 131.068 94.0184 131.212 94.1541C131.371 94.2979 131.482 94.4488 131.579 94.608C131.674 94.7752 131.722 94.9588 131.722 95.1577C131.722 95.3883 131.69 95.6045 131.594 95.8024C131.515 96.0023 131.371 96.1777 131.195 96.3287C131.035 96.4797 130.814 96.599 130.558 96.6877C130.288 96.7744 130.001 96.8224 129.65 96.8224C129.378 96.8224 129.124 96.7908 128.901 96.7275C128.694 96.6714 128.502 96.5837 128.328 96.4644C128.152 96.345 128.009 96.2012 127.898 96.0339C127.769 95.8656 127.673 95.6749 127.594 95.4597L128.12 95.2444C128.184 95.4362 128.264 95.6035 128.374 95.7544C128.472 95.9064 128.598 96.0258 128.726 96.1298C128.87 96.2328 129.014 96.3124 129.187 96.3685C129.346 96.4205 129.538 96.445 129.714 96.445Z" fill="#EEEEEE"/>
<path d="M132.614 92.2258H133.49V93.1336C133.586 93.0224 133.682 92.9021 133.793 92.7827C133.904 92.6715 134.016 92.5593 134.16 92.4635C134.286 92.3686 134.43 92.289 134.59 92.2248C134.748 92.1687 134.925 92.1289 135.115 92.1289C135.388 92.1289 135.626 92.185 135.832 92.2972C136.056 92.4084 136.231 92.5593 136.391 92.7501C136.549 92.9418 136.662 93.1571 136.741 93.4121C136.821 93.6671 136.869 93.9374 136.869 94.2321C136.869 94.5983 136.821 94.9339 136.709 95.244C136.614 95.5551 136.471 95.8254 136.279 96.0569C136.088 96.2793 135.865 96.4629 135.594 96.5832C135.322 96.7107 135.019 96.774 134.686 96.774C134.557 96.774 134.447 96.7668 134.351 96.7587C134.24 96.7505 134.143 96.7271 134.047 96.7016C133.954 96.6699 133.856 96.6383 133.762 96.5985C133.682 96.5577 133.586 96.5027 133.49 96.4476V98.559H132.614V92.2258V92.2258ZM133.49 95.4755C133.49 95.6102 133.522 95.7387 133.586 95.858C133.65 95.9774 133.729 96.0804 133.825 96.1681C133.936 96.2558 134.064 96.3201 134.208 96.3752C134.351 96.4231 134.51 96.4466 134.686 96.4466C134.86 96.4466 135.004 96.4068 135.163 96.3272C135.307 96.2395 135.435 96.1202 135.53 95.961C135.641 95.8101 135.736 95.6265 135.802 95.4113C135.865 95.196 135.88 94.9574 135.88 94.6942C135.88 94.3678 135.864 94.0802 135.802 93.8333C135.737 93.5865 135.658 93.3794 135.562 93.2203C135.451 93.053 135.339 92.9337 135.196 92.8541C135.052 92.7735 134.894 92.7348 134.718 92.7348C134.591 92.7348 134.479 92.7582 134.352 92.799C134.241 92.8388 134.128 92.8857 134.017 92.9571C133.922 93.0214 133.826 93.101 133.73 93.1887C133.651 93.2682 133.572 93.3641 133.492 93.46V95.4755H133.49Z" fill="#EEEEEE"/>
<path d="M140.98 96.678H140.087V96.0721C139.992 96.1517 139.881 96.2313 139.784 96.3108C139.689 96.3985 139.577 96.4781 139.451 96.5424C139.339 96.6138 139.212 96.6699 139.068 96.7096C138.925 96.7576 138.765 96.7729 138.575 96.7729C138.398 96.7729 138.24 96.7494 138.095 96.6943C137.953 96.6382 137.841 96.5577 137.729 96.4546C137.634 96.3588 137.555 96.2394 137.508 96.1048C137.459 95.9691 137.427 95.8182 137.427 95.6662C137.427 95.4744 137.475 95.3 137.537 95.148C137.618 94.9889 137.714 94.8532 137.857 94.7339C137.984 94.6146 138.143 94.5034 138.318 94.4075C138.494 94.3198 138.669 94.2321 138.877 94.1607C139.068 94.0811 139.274 94.0168 139.482 93.9618C139.689 93.8985 139.897 93.8506 140.087 93.7945V93.516C140.087 93.3161 140.071 93.1498 140.04 93.006C139.992 92.8714 139.944 92.751 139.864 92.6633C139.784 92.5837 139.689 92.5195 139.594 92.4879C139.482 92.4481 139.355 92.4236 139.227 92.4236C139.083 92.4236 138.955 92.4471 138.861 92.4879C138.765 92.5276 138.701 92.5756 138.638 92.6388C138.589 92.7031 138.557 92.7735 138.527 92.854C138.509 92.9418 138.509 93.0223 138.509 93.1009C138.509 93.1804 138.494 93.2518 138.479 93.3243C138.479 93.3957 138.447 93.4599 138.415 93.516C138.383 93.5711 138.336 93.6109 138.288 93.6435C138.225 93.6833 138.144 93.6996 138.065 93.6996C138 93.6996 137.937 93.6833 137.873 93.6598C137.824 93.6364 137.762 93.5956 137.728 93.5476C137.68 93.4997 137.65 93.4446 137.633 93.3804C137.617 93.3161 137.602 93.2529 137.602 93.1733C137.602 93.0295 137.65 92.8948 137.745 92.7592C137.841 92.6398 137.968 92.5276 138.127 92.4328C138.302 92.3451 138.494 92.2645 138.701 92.2186C138.926 92.1625 139.148 92.1309 139.403 92.1309C139.69 92.1309 139.945 92.1625 140.136 92.2186C140.343 92.2737 140.502 92.3532 140.629 92.4573C140.759 92.5613 140.837 92.6888 140.902 92.8316C140.949 92.9754 140.981 93.1427 140.981 93.3171V96.678H140.98ZM140.087 94.0801C139.96 94.1199 139.833 94.1678 139.705 94.2239C139.561 94.28 139.434 94.3351 139.292 94.3993C139.164 94.4626 139.036 94.534 138.926 94.6135C138.797 94.6849 138.701 94.7655 138.606 94.8522C138.509 94.9399 138.447 95.0266 138.382 95.1307C138.335 95.2266 138.318 95.3224 138.318 95.4326C138.318 95.5366 138.335 95.6397 138.366 95.7355C138.414 95.8396 138.462 95.9273 138.526 95.9987C138.605 96.0701 138.669 96.1262 138.764 96.166C138.843 96.2139 138.939 96.2374 139.035 96.2374C139.131 96.2374 139.227 96.2211 139.321 96.1976C139.401 96.165 139.498 96.1333 139.576 96.0854C139.656 96.0456 139.753 95.9905 139.832 95.9344C139.912 95.8702 140.007 95.8151 140.086 95.7437V94.0801H140.087Z" fill="#EEEEEE"/>
<path d="M92.1423 35.4584C101.448 39.2834 108.952 45.7043 113.238 53.2727C113.542 46.9466 112.356 40.1187 109.256 34.064C108.299 32.176 107.192 30.4389 105.973 28.8457C100.3 29.9126 94.9636 31.9128 90.1196 34.677C90.803 34.9249 91.4732 35.1799 92.1423 35.4584Z" fill="#EEEEEE"/>
<path d="M138.955 35.4584C139.624 35.1799 140.294 34.9249 140.978 34.677C136.133 31.9128 130.797 29.9126 125.123 28.8457C123.897 30.4389 122.799 32.176 121.841 34.064C118.741 40.1187 117.555 46.9466 117.859 53.2727C122.145 45.7043 129.65 39.2834 138.955 35.4584Z" fill="#EEEEEE"/>
<path d="M112.123 32.5989C113.669 35.6099 114.816 38.9168 115.557 42.3664C116.29 38.9168 117.445 35.6099 118.982 32.5989C119.738 31.1097 120.599 29.6664 121.54 28.2965C119.549 28.065 117.508 27.9375 115.445 27.9375C113.445 27.9375 111.484 28.0568 109.541 28.2792C110.498 29.6582 111.367 31.1005 112.123 32.5989Z" fill="#EEEEEE"/>
<path d="M82.9722 48.3574C94.2789 48.3574 104.985 52.7954 112.904 60.5148C110.179 51.5755 102.166 43.0595 90.9149 38.4307C89.4736 37.833 88.014 37.323 86.5646 36.8926C81.6258 40.2708 77.3152 44.4855 73.834 49.3294C76.8205 48.6838 79.8877 48.3574 82.9722 48.3574Z" fill="#EEEEEE"/>
<path d="M148.12 48.3574C151.209 48.3574 154.268 48.6838 157.265 49.3294C153.775 44.4855 149.472 40.2708 144.534 36.8926C143.084 37.323 141.617 37.833 140.184 38.4307C128.934 43.0605 120.919 51.5765 118.193 60.5148C126.113 52.7954 136.821 48.3574 148.12 48.3574Z" fill="#EEEEEE"/>
</g>
<defs>
<clipPath id="clip0_518_2015">
<rect width="231" height="127" fill="white"/>
</clipPath>
</defs>
</svg>
