<svg width="216" height="207" viewBox="0 0 216 207" fill="none" xmlns="http://www.w3.org/2000/svg">
<g clip-path="url(#clip0_5535_2454)">
<rect width="216" height="206.929" fill="#151517"/>
<path d="M44.7283 90.3799L41.5871 90.0462C41.8742 88.8431 42.528 87.7586 43.4584 86.9425C44.4607 86.1448 45.7207 85.7412 47.0005 85.8078C47.6078 85.7653 48.2173 85.8471 48.7919 86.0479C49.3664 86.2487 49.8939 86.5645 50.3422 86.9758C50.7057 87.3447 50.9909 87.7832 51.1805 88.265C51.37 88.7467 51.4599 89.2619 51.445 89.7792C51.4781 90.257 51.4781 90.7365 51.445 91.2142C51.445 91.7149 51.1776 93.0165 50.7766 95.1858C50.5343 96.4082 50.3781 97.646 50.3089 98.8902C50.3322 99.5979 50.4215 100.302 50.5761 100.993H47.4684C47.3436 100.444 47.2654 99.8859 47.2345 99.3241C46.8016 99.9231 46.257 100.433 45.6306 100.826C45.0571 101.143 44.4146 101.315 43.7593 101.327C43.2872 101.329 42.8211 101.222 42.3977 101.013C41.9743 100.805 41.6053 100.501 41.3199 100.125C40.6531 99.2305 40.3112 98.1358 40.3507 97.0213C40.3338 95.8222 40.7093 94.6505 41.4201 93.6839C42.4435 92.7205 43.79 92.173 45.1961 92.1487C46.2429 92.1087 47.2784 91.9176 48.2704 91.5814C48.3722 91.1424 48.4393 90.696 48.4709 90.2465C48.4743 90.0484 48.4376 89.8517 48.363 89.6681C48.2883 89.4846 48.1772 89.318 48.0364 89.1785C47.8703 89.0266 47.6752 88.91 47.4627 88.8354C47.2502 88.7609 47.0248 88.73 46.8001 88.7446C46.3158 88.7171 45.839 88.872 45.4635 89.1785C45.0966 89.5082 44.8596 89.958 44.7952 90.4467L44.7283 90.3799ZM47.8359 94.1178C47.5886 94.2149 47.3307 94.2821 47.0674 94.318C45.8758 94.357 44.7187 94.7268 43.7258 95.386C43.5541 95.5616 43.4209 95.771 43.3346 96.0008C43.2483 96.2307 43.2107 96.4759 43.2245 96.721C43.2106 96.9324 43.2391 97.1446 43.3079 97.3451C43.3767 97.5456 43.4848 97.7305 43.6257 97.889C43.748 98.055 43.9098 98.1876 44.0966 98.2751C44.2834 98.3626 44.4889 98.4019 44.6948 98.3896C45.1766 98.3996 45.6477 98.2467 46.0315 97.9558C46.4639 97.6864 46.8023 97.29 47.0005 96.8211C47.2908 96.1397 47.4822 95.4205 47.5688 94.6852L47.8359 94.1178Z" fill="white"/>
<path d="M51.3819 96.8525L54.4898 96.2185C54.6612 96.8766 55.0075 97.4762 55.4923 97.9539C55.9694 98.3218 56.5607 98.5107 57.163 98.4878C57.4858 98.5063 57.8088 98.4598 58.1131 98.3508C58.4173 98.2418 58.6965 98.0728 58.934 97.8537C59.0845 97.7346 59.2053 97.5821 59.2864 97.4083C59.3677 97.2345 59.4071 97.0443 59.4018 96.8525C59.3959 96.5905 59.3147 96.3356 59.1679 96.1183C58.777 95.7853 58.3223 95.5355 57.8314 95.384C56.532 94.9522 55.3126 94.3096 54.2224 93.4818C53.859 93.1073 53.5767 92.6623 53.3927 92.1743C53.2087 91.6863 53.1271 91.1658 53.153 90.645C53.1227 89.5414 53.4903 88.4636 54.1889 87.608C54.7323 87.0047 55.4054 86.5322 56.1578 86.2258C56.9102 85.9194 57.7222 85.7872 58.5331 85.8391C59.7341 85.7808 60.9173 86.1471 61.8746 86.8737C62.6721 87.6303 63.2001 88.6266 63.3784 89.7105L60.4043 90.378C60.2761 89.8995 60.0087 89.4698 59.6358 89.1432C59.1368 88.768 58.522 88.579 57.8981 88.6092C57.6417 88.5805 57.3821 88.6042 57.1351 88.6788C56.8881 88.7534 56.6588 88.8773 56.4613 89.0431C56.3269 89.159 56.2192 89.3024 56.1453 89.4637C56.0714 89.6249 56.0331 89.8002 56.0331 89.9776C56.0331 90.1549 56.0714 90.3301 56.1453 90.4914C56.2192 90.6526 56.3269 90.796 56.4613 90.912C57.0315 91.2356 57.6369 91.4931 58.2656 91.6796C59.4171 92.0125 60.4868 92.5808 61.4067 93.3482C62.1378 94.0985 62.5457 95.1048 62.5431 96.1516C62.5534 96.8582 62.4178 97.5594 62.1447 98.2112C61.8715 98.8631 61.4668 99.4517 60.9557 99.9403C60.4444 100.429 59.8379 100.807 59.1739 101.051C58.5098 101.295 57.8025 101.399 57.0961 101.358C55.7244 101.503 54.3493 101.117 53.2549 100.278C52.1603 99.4397 51.4299 98.2134 51.2148 96.8525" fill="white"/>
<path d="M65.7452 86.2069H68.786L68.5521 87.7422C69.0657 87.1629 69.6765 86.6773 70.3567 86.3071C70.9246 86.0146 71.5556 85.8656 72.1945 85.8732C72.788 85.8522 73.3765 85.9895 73.8992 86.271C74.4219 86.5527 74.8601 86.9683 75.1686 87.4751C76.0378 88.9081 76.4351 90.5772 76.3046 92.2476C76.3712 94.6199 75.6936 96.9537 74.3664 98.9224C73.9504 99.6112 73.3687 100.186 72.6744 100.593C71.9801 101.001 71.195 101.23 70.3899 101.259C69.6265 101.259 68.88 101.034 68.2439 100.613C67.6078 100.191 67.1107 99.5917 66.8146 98.889L65.5448 106.565H62.2031L65.7452 86.2069ZM67.6832 94.7172C67.6171 95.6554 67.8512 96.5904 68.3515 97.3872C68.5144 97.6689 68.748 97.9032 69.0294 98.0671C69.3107 98.231 69.6299 98.3187 69.9555 98.3216C70.2417 98.3188 70.5242 98.2548 70.7836 98.1338C71.0429 98.013 71.2733 97.838 71.4592 97.6208C72.0731 96.9486 72.5096 96.1343 72.7291 95.2513C73.0335 94.2445 73.1912 93.1991 73.197 92.1474C73.2583 91.2563 73.036 90.3686 72.562 89.6111C72.3874 89.3351 72.1457 89.1078 71.8594 88.9503C71.5731 88.7927 71.2515 88.7101 70.9247 88.71C70.6041 88.7289 70.2908 88.8125 70.0036 88.956C69.7164 89.0994 69.4613 89.2996 69.2539 89.5443C68.6813 90.243 68.2806 91.0659 68.0842 91.9473C67.8505 92.842 67.7161 93.7597 67.6832 94.6839" fill="white"/>
<path d="M78.2156 128.089L81.3234 127.488C81.5235 128.142 81.8789 128.737 82.3593 129.224C82.84 129.579 83.4346 129.745 84.03 129.691C84.3508 129.718 84.6735 129.678 84.9783 129.575C85.283 129.472 85.5632 129.306 85.8012 129.09C85.9369 128.961 86.0454 128.805 86.12 128.633C86.1946 128.461 86.2339 128.276 86.2356 128.089C86.2458 127.824 86.163 127.565 86.0017 127.355C85.6284 127.015 85.1828 126.764 84.6984 126.62C83.4108 126.161 82.1954 125.521 81.0894 124.718C80.7264 124.342 80.4418 123.897 80.2525 123.41C80.0632 122.923 79.9728 122.404 79.9866 121.881C79.9828 120.776 80.3605 119.704 81.0559 118.844C81.5993 118.241 82.2725 117.768 83.0249 117.462C83.7773 117.156 84.5894 117.024 85.4002 117.075C86.602 117.011 87.7871 117.378 88.7419 118.11C89.5309 118.868 90.0478 119.865 90.2121 120.947L87.238 121.581C87.1336 121.11 86.8748 120.687 86.5028 120.379C86.0038 120.004 85.3891 119.815 84.7653 119.846C84.2526 119.789 83.7378 119.933 83.3283 120.246C83.1884 120.365 83.0768 120.514 83.0017 120.681C82.9265 120.848 82.8899 121.03 82.894 121.214C82.8874 121.393 82.9233 121.571 82.9988 121.733C83.0743 121.896 83.1871 122.038 83.3283 122.148C83.9053 122.458 84.5094 122.715 85.1328 122.916C86.2814 123.256 87.3497 123.823 88.2739 124.585C88.6408 124.951 88.928 125.389 89.1177 125.872C89.3074 126.354 89.3957 126.87 89.3767 127.388C89.3948 128.736 88.8921 130.039 87.9731 131.026C87.4548 131.555 86.8284 131.966 86.1363 132.231C85.4442 132.496 84.7028 132.609 83.9631 132.561C82.5393 132.67 81.1248 132.254 79.9866 131.393C79.0106 130.512 78.3432 129.343 78.082 128.055" fill="white"/>
<path d="M91.0078 120.414L91.509 117.411H93.0796L93.7812 112.371H97.1228L96.2541 117.477H98.1921L97.7245 120.481H95.7529L94.717 126.655C94.5919 127.295 94.5026 127.941 94.4496 128.591C94.4362 128.723 94.4499 128.856 94.4901 128.982C94.5304 129.108 94.5963 129.225 94.6835 129.325C94.7987 129.42 94.9326 129.49 95.0766 129.53C95.2204 129.57 95.3711 129.58 95.519 129.559H96.5883L96.0869 132.562C95.5285 132.695 94.9568 132.762 94.3828 132.762C93.9358 132.796 93.4863 132.74 93.0614 132.596C92.6367 132.453 92.2449 132.226 91.9099 131.928C91.3891 131.301 91.1158 130.506 91.1414 129.692C91.2013 128.625 91.3465 127.565 91.5758 126.522L92.5448 120.581L91.0078 120.414Z" fill="white"/>
<path d="M97.1563 126.253C97.0118 123.881 97.6709 121.53 99.0275 119.578C99.5755 118.798 100.307 118.165 101.158 117.735C102.009 117.304 102.953 117.089 103.906 117.108C104.684 117.074 105.459 117.219 106.171 117.531C106.884 117.844 107.515 118.316 108.017 118.911C109.054 120.319 109.584 122.036 109.52 123.783C109.56 125.997 108.906 128.167 107.649 129.991C107.125 130.811 106.397 131.482 105.536 131.938C104.675 132.394 103.711 132.62 102.737 132.594C101.673 132.623 100.626 132.332 99.7293 131.76C98.8529 131.198 98.184 130.366 97.8246 129.39C97.3773 128.334 97.1499 127.199 97.1563 126.053V126.253ZM106.312 123.182C106.344 122.373 106.109 121.576 105.644 120.913C105.447 120.646 105.19 120.429 104.895 120.278C104.599 120.128 104.272 120.048 103.94 120.045C103.595 120.047 103.254 120.119 102.938 120.257C102.622 120.395 102.338 120.595 102.102 120.846C101.5 121.514 101.065 122.315 100.832 123.182C100.555 124.092 100.409 125.036 100.398 125.986C100.339 126.886 100.586 127.78 101.099 128.522C101.29 128.808 101.549 129.043 101.852 129.206C102.155 129.368 102.493 129.455 102.837 129.457C103.297 129.441 103.743 129.303 104.131 129.056C104.519 128.81 104.834 128.464 105.042 128.055C105.909 126.58 106.349 124.893 106.312 123.182Z" fill="white"/>
<path d="M111.829 117.413H114.837L114.369 120.283C115.483 118.058 116.686 116.945 117.978 116.945C118.509 116.955 119.027 117.105 119.481 117.379L118.245 120.717C117.951 120.583 117.632 120.515 117.31 120.516C116.67 120.557 116.071 120.844 115.639 121.317C115.029 121.886 114.569 122.597 114.302 123.386C113.876 124.726 113.563 126.099 113.366 127.491L112.564 132.164H109.223L111.829 117.413Z" fill="white"/>
<path d="M128.873 126.254H120.819C120.819 126.254 120.819 126.487 120.819 126.621C120.783 127.467 121.03 128.301 121.521 128.991C121.696 129.266 121.937 129.494 122.224 129.651C122.51 129.809 122.832 129.891 123.158 129.892C124.228 129.892 125.063 129.191 125.665 127.822L128.505 128.423C128.095 129.719 127.331 130.874 126.3 131.761C125.354 132.512 124.165 132.892 122.958 132.829C122.21 132.844 121.469 132.683 120.795 132.358C120.122 132.033 119.534 131.554 119.082 130.96C118.012 129.517 117.48 127.746 117.578 125.953C117.544 124.062 118.017 122.195 118.948 120.547C119.406 119.544 120.146 118.695 121.077 118.103C122.008 117.511 123.091 117.2 124.194 117.21C124.845 117.199 125.488 117.345 126.07 117.635C126.652 117.926 127.154 118.352 127.536 118.878C128.458 120.269 128.915 121.917 128.839 123.584C128.83 124.456 128.751 125.327 128.605 126.187L128.873 126.254ZM125.899 123.751V123.35C125.972 122.484 125.761 121.617 125.297 120.881C125.127 120.62 124.894 120.407 124.62 120.261C124.345 120.115 124.038 120.041 123.727 120.046C123.376 120.061 123.032 120.153 122.721 120.314C122.409 120.475 122.136 120.703 121.922 120.981C121.316 121.785 120.956 122.747 120.886 123.751H125.899Z" fill="white"/>
<path d="M137.153 117.411L136.652 120.348H134.38L132.408 132.229H129.066L131.071 120.348H129.267L129.768 117.411H131.573L131.807 115.909C131.908 115.043 132.11 114.192 132.408 113.373C132.63 112.798 133.028 112.308 133.544 111.971C134.13 111.592 134.819 111.405 135.516 111.437C136.583 111.476 137.635 111.701 138.624 112.105L137.988 114.975C137.409 114.672 136.77 114.501 136.117 114.474C135.957 114.465 135.796 114.501 135.655 114.577C135.513 114.654 135.396 114.768 135.315 114.908C135.111 115.373 134.987 115.87 134.948 116.376L134.747 117.411H137.153Z" fill="white"/>
<path d="M137.661 117.413H140.669L140.201 120.283C141.315 118.058 142.517 116.945 143.809 116.945C144.34 116.955 144.859 117.105 145.314 117.379L144.077 120.717C143.783 120.583 143.464 120.515 143.141 120.516C142.822 120.529 142.51 120.607 142.223 120.744C141.936 120.882 141.68 121.077 141.47 121.317C140.86 121.886 140.401 122.597 140.134 123.386C139.696 124.725 139.373 126.098 139.164 127.491L138.397 132.164H135.055L137.661 117.413Z" fill="white"/>
<path d="M143.576 126.253C143.416 123.88 144.076 121.523 145.448 119.578C145.993 118.796 146.725 118.162 147.576 117.731C148.427 117.3 149.372 117.086 150.326 117.108C151.103 117.074 151.879 117.219 152.592 117.531C153.304 117.844 153.936 118.316 154.436 118.911C155.479 120.314 155.999 122.038 155.906 123.783C155.959 125.993 155.316 128.164 154.069 129.991C153.537 130.811 152.802 131.482 151.936 131.938C151.071 132.393 150.101 132.619 149.123 132.594C148.069 132.627 147.032 132.335 146.149 131.76C145.264 131.2 144.584 130.368 144.211 129.39C143.764 128.334 143.536 127.199 143.543 126.053L143.576 126.253ZM152.699 123.182C152.771 122.374 152.545 121.567 152.063 120.913C151.863 120.642 151.601 120.422 151.3 120.271C150.997 120.12 150.664 120.043 150.326 120.045C149.982 120.047 149.641 120.119 149.325 120.257C149.009 120.395 148.724 120.595 148.489 120.846C147.885 121.508 147.459 122.312 147.252 123.182C146.963 124.09 146.806 125.034 146.784 125.986C146.743 126.884 146.989 127.773 147.486 128.522C147.679 128.806 147.937 129.039 148.24 129.202C148.542 129.364 148.88 129.452 149.224 129.457C149.684 129.445 150.132 129.308 150.521 129.061C150.909 128.814 151.223 128.466 151.429 128.055C152.325 126.592 152.767 124.896 152.699 123.182Z" fill="white"/>
<path d="M158.51 117.411H161.551L161.217 119.346C161.835 118.66 162.557 118.075 163.355 117.611C164.004 117.267 164.726 117.084 165.461 117.077C165.897 117.067 166.332 117.155 166.73 117.334C167.129 117.513 167.483 117.779 167.767 118.111C168.34 118.931 168.633 119.915 168.602 120.915C168.545 121.901 168.422 122.882 168.235 123.852L166.831 132.229H163.489L164.892 123.818C165.093 122.584 165.193 121.816 165.193 121.582C165.222 121.15 165.091 120.723 164.825 120.381C164.709 120.23 164.556 120.112 164.38 120.036C164.205 119.96 164.014 119.929 163.823 119.947C163.242 120.01 162.701 120.269 162.286 120.681C161.669 121.21 161.198 121.888 160.916 122.65C160.583 123.827 160.371 125.035 160.281 126.255L159.279 132.329H155.938L158.51 117.411Z" fill="white"/>
<path d="M169.605 120.414L170.107 117.411H171.678L172.379 112.371H175.721L174.851 117.477H176.991L176.489 120.481H174.517L173.482 126.655C173.281 127.79 173.181 128.424 173.181 128.591C173.171 128.855 173.253 129.115 173.415 129.325C173.537 129.419 173.677 129.488 173.825 129.529C173.975 129.569 174.131 129.579 174.284 129.559H175.353L174.818 132.562C174.271 132.697 173.711 132.764 173.148 132.762C172.701 132.796 172.251 132.74 171.826 132.596C171.401 132.453 171.01 132.226 170.675 131.928C170.405 131.625 170.198 131.271 170.067 130.887C169.935 130.503 169.88 130.097 169.906 129.692C169.96 128.538 170.094 127.39 170.307 126.255L171.31 120.314L169.605 120.414Z" fill="white"/>
<path d="M116.205 86.2065H119.246L118.945 88.1422C119.547 87.4392 120.272 86.8512 121.084 86.4067C121.715 86.0476 122.43 85.8633 123.156 85.8727C123.595 85.8504 124.032 85.9326 124.433 86.1125C124.834 86.2924 125.187 86.5648 125.461 86.9074C126.061 87.7037 126.368 88.6818 126.33 89.6773C126.265 90.6754 126.13 91.6679 125.929 92.6476L124.526 101.024H121.184L122.621 92.6142C122.821 91.3795 122.922 90.6119 122.922 90.3782C122.954 89.946 122.823 89.5173 122.554 89.1767C122.435 89.0284 122.281 88.9113 122.107 88.8357C121.932 88.7601 121.741 88.7282 121.552 88.7428C120.952 88.7742 120.389 89.0376 119.981 89.4771C119.383 90.0101 118.915 90.6721 118.611 91.4128C118.245 92.5676 117.977 93.7509 117.809 94.9504L116.806 101.024H113.465L116.205 86.2065Z" fill="white"/>
<path d="M138.095 94.8157H130.209V95.1828C130.177 96.0232 130.411 96.8521 130.878 97.5523C131.06 97.8287 131.308 98.0557 131.599 98.213C131.891 98.3702 132.217 98.4528 132.548 98.4535C133.584 98.4535 134.42 97.786 135.021 96.3843L137.895 96.985C137.486 98.2893 136.708 99.448 135.656 100.322C134.768 101.041 133.658 101.43 132.515 101.424C131.758 101.444 131.008 101.281 130.327 100.95C129.647 100.619 129.056 100.129 128.605 99.5214C127.547 98.0869 127.027 96.327 127.135 94.5487C127.084 92.6591 127.546 90.791 128.472 89.1422C128.939 88.1392 129.685 87.2914 130.621 86.6997C131.557 86.108 132.644 85.7974 133.751 85.8048C134.403 85.8061 135.046 85.9608 135.626 86.2566C136.207 86.5522 136.709 86.9807 137.093 87.5068C138.035 88.8764 138.493 90.5203 138.396 92.1791C138.403 93.0635 138.324 93.9463 138.162 94.8157H138.095ZM135.456 92.346V91.9455C135.524 91.0794 135.313 90.2139 134.854 89.4759C134.683 89.2193 134.449 89.011 134.174 88.8707C133.899 88.7305 133.592 88.6631 133.284 88.675C132.935 88.68 132.594 88.7674 132.286 88.9298C131.978 89.0922 131.713 89.3251 131.513 89.6094C130.912 90.4064 130.542 91.3531 130.443 92.346H135.456Z" fill="white"/>
<path d="M138.93 89.1408L139.431 86.1705H141.002L141.703 81.0977H145.045L144.176 86.2372H146.147L145.647 89.2074H143.575L142.539 95.415C142.372 96.5163 142.271 97.1505 142.271 97.3173C142.258 97.4492 142.272 97.5824 142.312 97.7087C142.352 97.8349 142.418 97.9516 142.506 98.0515C142.617 98.1527 142.751 98.2264 142.895 98.2669C143.041 98.3074 143.193 98.3137 143.341 98.2852H144.444L143.909 101.289C143.362 101.423 142.801 101.49 142.238 101.489C141.793 101.527 141.345 101.476 140.921 101.339C140.496 101.201 140.103 100.98 139.765 100.688C139.488 100.383 139.277 100.024 139.144 99.6332C139.012 99.2428 138.962 98.8294 138.997 98.4187C139.055 97.2985 139.189 96.1835 139.398 95.0813L140.4 89.1408H138.93Z" fill="white"/>
<path d="M97.2882 87.2647C96.8599 87.2565 96.4348 87.3453 96.0421 87.5252C95.6494 87.7051 95.2984 87.9718 95.0128 88.307C94.2605 89.1538 93.7203 90.1834 93.4407 91.3035C93.0973 92.5014 92.9163 93.7441 92.9029 94.9949C92.8575 96.1498 93.1618 97.2899 93.7718 98.2521C94 98.6323 94.318 98.9441 94.6949 99.1571C95.0718 99.3702 95.4949 99.4773 95.9229 99.4681C96.4917 99.4478 97.0451 99.268 97.5253 98.9472C98.0055 98.6265 98.3951 98.1764 98.6535 97.6441C99.744 95.7476 100.29 93.5611 100.226 91.3471C100.271 90.2799 99.9799 89.2269 99.3982 88.3505C99.1567 88.0035 98.8385 87.7232 98.4709 87.534C98.1034 87.345 97.6974 87.2525 97.2882 87.2647Z" fill="white"/>
<path d="M109.453 80.8317L108.618 85.8378H110.556L110.055 88.808H108.084L107.048 95.0156C106.881 96.1169 106.78 96.7845 106.78 96.9179C106.767 97.0498 106.781 97.183 106.821 97.3093C106.861 97.4355 106.927 97.5522 107.014 97.6521C107.132 97.7538 107.272 97.8276 107.422 97.8681C107.572 97.9085 107.73 97.9145 107.883 97.8858C108.239 97.9182 108.597 97.9182 108.952 97.8858L108.418 100.889C107.871 101.024 107.31 101.091 106.747 101.09C106.294 101.128 105.838 101.074 105.408 100.93C104.977 100.787 104.58 100.557 104.241 100.255C103.72 99.6286 103.447 98.8333 103.472 98.0192C103.472 96.9513 103.706 95.8833 103.873 94.8487L104.876 88.9082H103.472L103.973 85.9379H105.51L106.246 80.8651H109.587C108.027 78.5533 105.929 76.6536 103.474 75.3284C101.018 74.0032 98.2767 73.292 95.4855 73.2559C90.755 73.4124 86.2729 75.4089 82.9954 78.8193C79.7179 82.2298 77.9046 86.7843 77.942 91.5113C78.2115 90.4781 78.6043 89.4809 79.1117 88.541C79.4788 87.7069 80.0758 86.9942 80.8331 86.486C81.5905 85.9777 82.4769 85.6951 83.3889 85.6709C84.1552 85.6567 84.9079 85.8759 85.5466 86.2992C86.1852 86.7224 86.6797 87.3298 86.9645 88.0405L88.2677 80.3645H91.6093L88.2677 100.823H85.2267L85.5275 99.2207C85.0461 99.815 84.4564 100.313 83.7898 100.689C83.2078 101.011 82.5503 101.172 81.8851 101.156C81.304 101.159 80.7309 101.022 80.2143 100.756C81.5988 103.709 83.7869 106.214 86.5286 107.984C89.2703 109.754 92.455 110.719 95.7195 110.768C100.527 110.603 105.072 108.538 108.355 105.027C111.639 101.516 113.392 96.8467 113.23 92.0453C113.246 88.133 112.082 84.3066 109.888 81.0654L109.453 80.8317ZM101.066 98.5866C100.541 99.4157 99.8084 100.094 98.9416 100.557C98.0747 101.019 97.1028 101.248 96.1205 101.223C95.068 101.247 94.0323 100.957 93.1464 100.389C92.2763 99.8202 91.6096 98.9905 91.2418 98.0192C90.798 96.9625 90.5707 95.8277 90.5734 94.6818C90.429 92.3102 91.0882 89.959 92.4448 88.0071C92.9965 87.2334 93.7298 86.6068 94.5803 86.1821C95.4309 85.7573 96.3727 85.5475 97.3234 85.5708C98.1032 85.5179 98.8845 85.6541 99.6002 85.9679C100.316 86.2816 100.945 86.7638 101.434 87.373C102.491 88.771 103.023 90.4956 102.938 92.2456C102.977 94.459 102.323 96.6295 101.066 98.4531" fill="white"/>
<path d="M83.1128 88.4847C82.865 88.5165 82.5103 88.6998 82.5103 88.6998C82.5103 88.6998 81.8906 89.057 81.6526 89.3252C81.0257 90.0027 80.5755 90.8263 80.3425 91.7225C80.0564 92.6807 79.9055 93.6749 79.8943 94.6756C79.8565 95.5994 80.1101 96.5116 80.6184 97.2813C80.8086 97.5855 81.0736 97.8349 81.3877 98.0053C81.7018 98.1758 82.0543 98.2615 82.411 98.2541C82.885 98.2379 82.9102 98.0872 83.3104 97.8306C83.7106 97.5741 84.0352 97.214 84.2506 96.7881C85.1593 95.271 85.6142 93.5217 85.5607 91.7505C85.5983 90.8968 85.3559 90.0544 84.8711 89.3533C84.6699 89.0757 84.4048 88.8515 84.0984 88.7001C83.7921 88.5488 83.5036 88.4344 83.1128 88.4847Z" fill="white"/>
</g>
<defs>
<clipPath id="clip0_5535_2454">
<rect width="216" height="206.929" fill="white"/>
</clipPath>
</defs>
</svg>
