<?xml version="1.0" encoding="utf-8"?>
<!-- Generator: Adobe Illustrator 24.0.1, SVG Export Plug-In . SVG Version: 6.00 Build 0)  -->
<svg version="1.1" id="Layer_1" xmlns="http://www.w3.org/2000/svg" xmlns:xlink="http://www.w3.org/1999/xlink" x="0px" y="0px"
	 viewBox="0 0 170 75" style="enable-background:new 0 0 170 75;" xml:space="preserve">
<style type="text/css">
	.st0{fill:#FFFFFF;}
</style>
<path class="st0" d="M12.4,23.4L8.9,23c0.3-1.4,1.1-2.6,2.1-3.5c1.1-0.9,2.6-1.3,4-1.3c1.4-0.1,2.8,0.4,3.8,1.3
	c0.8,0.9,1.3,2,1.2,3.2c0,0.5,0,1.1-0.1,1.6c-0.1,0.6-0.3,2.1-0.8,4.5c-0.3,1.4-0.5,2.8-0.5,4.2c0,0.8,0.1,1.6,0.3,2.4h-3.5
	c-0.1-0.6-0.2-1.3-0.3-1.9c-0.5,0.7-1.1,1.3-1.8,1.7c-0.6,0.4-1.4,0.6-2.1,0.6c-1.1,0-2.1-0.5-2.8-1.4c-0.8-1-1.2-2.2-1.1-3.5
	c-0.1-1.4,0.4-2.8,1.2-3.9c1.1-1.1,2.7-1.7,4.3-1.7c1.2-0.1,2.3-0.3,3.5-0.6c0.1-0.5,0.2-1,0.2-1.5c0-0.5-0.2-0.9-0.5-1.2
	c-0.4-0.4-0.9-0.5-1.4-0.5c-0.6,0-1.1,0.1-1.5,0.5C12.8,22.4,12.5,22.9,12.4,23.4 M15.9,27.6c-0.3,0.1-0.6,0.2-0.9,0.2
	c-1.3,0.1-2.5,0.5-3.6,1.2c-0.4,0.4-0.6,1-0.6,1.5c0,0.5,0.1,1,0.5,1.3c0.3,0.4,0.7,0.6,1.2,0.6c0.6,0,1.1-0.2,1.5-0.5
	c0.5-0.3,0.9-0.8,1.1-1.3c0.3-0.8,0.5-1.6,0.6-2.4L15.9,27.6z"/>
<path class="st0" d="M20,30.7l3.5-0.7c0.2,0.7,0.6,1.4,1.2,2c0.5,0.4,1.2,0.6,1.9,0.6c0.7,0,1.4-0.2,2-0.7c0.3-0.3,0.5-0.7,0.5-1.2
	c0-0.3-0.1-0.6-0.3-0.8c-0.4-0.4-1-0.7-1.5-0.8c-1.5-0.5-2.8-1.2-4.1-2.2c-0.8-0.9-1.3-2-1.2-3.2c0-1.2,0.4-2.5,1.2-3.4
	c1.2-1.4,3.1-2.1,4.9-2c1.4-0.1,2.8,0.3,3.9,1.2c0.9,0.8,1.5,2,1.7,3.2l-3.4,0.7c-0.1-0.5-0.4-1-0.9-1.4c-0.6-0.4-1.3-0.6-2-0.6
	c-0.6,0-1.2,0.1-1.6,0.5c-0.3,0.3-0.5,0.7-0.5,1.1c0,0.4,0.2,0.8,0.5,1c0.6,0.4,1.3,0.7,2,0.9c1.3,0.4,2.5,1,3.5,1.9
	c0.8,0.8,1.3,2,1.3,3.2c0,1.5-0.6,3-1.6,4.2c-1.2,1.2-2.8,1.9-4.5,1.8C23.4,36.2,20.5,34,20,30.7"/>
<path class="st0" d="M36.3,18.6h3.4l-0.3,1.7c0.6-0.6,1.3-1.2,2.1-1.6c0.6-0.3,1.3-0.5,2.1-0.5c1.4,0,2.7,0.7,3.4,1.8
	c1,1.6,1.4,3.5,1.3,5.4c0.1,2.7-0.7,5.4-2.2,7.7c-1,1.6-2.6,2.6-4.5,2.7c-1.8,0-3.4-1.1-4-2.7L36,41.9h-3.6L36.3,18.6z M38.5,28.3
	c-0.1,1.1,0.2,2.1,0.8,3c0.4,0.7,1.1,1.1,1.8,1.1c0.7,0,1.3-0.3,1.7-0.8c0.7-0.8,1.2-1.7,1.4-2.7c0.3-1.1,0.5-2.3,0.5-3.5
	c0.1-1-0.2-2-0.7-2.9c-0.4-0.6-1.1-1-1.8-1c-0.7,0-1.4,0.4-1.9,0.9c-0.6,0.8-1.1,1.7-1.3,2.7C38.7,26.2,38.5,27.2,38.5,28.3"/>
<path class="st0" d="M50.4,66.2l3.5-0.7c0.2,0.7,0.6,1.4,1.2,2c0.5,0.4,1.2,0.6,1.9,0.6c0.7,0,1.4-0.2,2-0.7
	c0.3-0.3,0.5-0.7,0.5-1.1c0-0.3-0.1-0.6-0.3-0.8c-0.4-0.4-1-0.7-1.5-0.8c-1.5-0.5-2.8-1.2-4.1-2.2c-0.8-0.9-1.3-2-1.2-3.2
	c0-1.2,0.4-2.5,1.2-3.4c1.2-1.4,3.1-2.1,4.9-2c1.4-0.1,2.8,0.3,3.9,1.2c0.9,0.9,1.5,2,1.7,3.2l-3.4,0.7c-0.1-0.5-0.4-1-0.9-1.4
	c-0.6-0.4-1.2-0.6-1.9-0.6c-0.6-0.1-1.2,0.1-1.6,0.5c-0.3,0.3-0.5,0.7-0.5,1.1c0,0.4,0.2,0.8,0.5,1c0.6,0.4,1.3,0.7,2,0.9
	c1.3,0.4,2.5,1,3.6,1.9c0.8,0.8,1.3,2,1.3,3.2c0,1.5-0.6,3-1.6,4.1c-1.2,1.2-2.8,1.8-4.5,1.7c-1.6,0.1-3.2-0.4-4.5-1.3
	C51.5,69,50.7,67.7,50.4,66.2"/>
<path class="st0" d="M64.9,57.5l0.6-3.4h1.8l0.8-5.7l3.8-0.1l-1,5.8h2.2l-0.6,3.4h-2.2l-1.2,7c-0.2,1.3-0.3,2-0.3,2.2
	c0,0.3,0.1,0.6,0.3,0.8c0.3,0.2,0.6,0.3,1,0.3c0.2,0,0.6,0,1.2-0.1l-0.6,3.4c-0.6,0.2-1.3,0.2-1.9,0.2c-1,0.1-2-0.2-2.8-0.9
	c-0.6-0.7-0.9-1.6-0.9-2.6c0.1-1.2,0.2-2.4,0.5-3.6l1.1-6.8L64.9,57.5z"/>
<path class="st0" d="M71.9,63.9c-0.1-2.6,0.6-5.3,2.1-7.4c1.3-1.8,3.3-2.8,5.5-2.8c1.8-0.1,3.5,0.7,4.6,2c1.2,1.6,1.8,3.5,1.7,5.5
	c0.1,2.5-0.7,5-2.1,7.1c-1.2,1.9-3.3,3-5.6,3c-1.2,0-2.4-0.3-3.4-0.9c-1-0.6-1.8-1.6-2.2-2.7C72.1,66.5,71.9,65.2,71.9,63.9
	 M82.3,60.7c0-0.9-0.2-1.8-0.8-2.6c-0.5-0.6-1.2-1-2-1c-0.8,0-1.5,0.3-2.1,0.9c-0.7,0.7-1.2,1.7-1.4,2.6c-0.3,1-0.5,2.1-0.5,3.2
	c-0.1,1,0.2,2,0.8,2.9c0.4,0.7,1.2,1.1,2,1.1c1.1,0,2-0.7,2.5-1.6C81.8,64.5,82.3,62.6,82.3,60.7"/>
<path class="st0" d="M88.5,54.1h3.4l-0.5,3.2c1.3-2.4,2.6-3.7,4.1-3.7c0.6,0,1.2,0.2,1.7,0.5l-1.4,3.7c-0.3-0.2-0.7-0.2-1.1-0.2
	c-0.7,0-1.4,0.4-1.9,0.9c-0.7,0.7-1.2,1.5-1.5,2.4c-0.5,1.5-0.8,3.1-1.1,4.7l-0.9,5.3h-3.6L88.5,54.1z"/>
<path class="st0" d="M107.8,63.9h-9.1c0,0.1,0,0.3,0,0.4c0,1,0.2,1.9,0.8,2.7c0.4,0.6,1.1,1,1.9,1c1.2,0,2.1-0.8,2.8-2.3l3.3,0.7
	c-0.5,1.4-1.4,2.7-2.5,3.7c-1,0.8-2.3,1.2-3.6,1.2c-1.7,0-3.4-0.8-4.4-2.1c-1.2-1.6-1.8-3.7-1.7-5.7c0-2.1,0.5-4.3,1.5-6.1
	c1.1-2.3,3.4-3.7,6-3.7c1.5-0.1,3,0.7,3.9,1.9c1.1,1.6,1.6,3.5,1.5,5.3C108.1,61.9,108,62.9,107.8,63.9 M104.7,61.1
	c0-0.2,0-0.3,0-0.5c0.1-1-0.2-2-0.7-2.8c-0.4-0.6-1.1-0.9-1.8-0.9c-0.8,0-1.5,0.4-2,1.1c-0.7,0.9-1.1,2-1.2,3.1H104.7z"/>
<path class="st0" d="M117.2,54.1l-0.6,3.3h-2.6l-2.3,13.5h-3.7l2.3-13.5h-2l0.6-3.3h2l0.3-1.7c0.1-1,0.4-1.9,0.7-2.9
	c0.3-0.7,0.7-1.2,1.3-1.6c0.7-0.4,1.4-0.6,2.2-0.6c1.2,0,2.4,0.3,3.5,0.8l-0.7,3.2c-0.7-0.3-1.4-0.5-2.1-0.6c-0.4,0-0.7,0.2-0.9,0.5
	c-0.2,0.5-0.4,1.1-0.4,1.7l-0.2,1.2L117.2,54.1z"/>
<path class="st0" d="M117.8,54.1h3.4l-0.5,3.2c1.3-2.4,2.6-3.7,4.1-3.7c0.6,0,1.2,0.2,1.7,0.5l-1.4,3.7c-0.3-0.2-0.7-0.2-1-0.2
	c-0.7,0-1.4,0.4-1.9,0.9c-0.7,0.7-1.2,1.5-1.5,2.4c-0.5,1.5-0.8,3.1-1.1,4.7l-0.9,5.3H115L117.8,54.1z"/>
<path class="st0" d="M124.5,63.9c-0.1-2.6,0.6-5.3,2.1-7.4c1.3-1.8,3.3-2.8,5.5-2.8c1.8-0.1,3.5,0.7,4.7,2c1.2,1.6,1.8,3.5,1.7,5.5
	c0.1,2.5-0.7,5-2.1,7.1c-1.2,1.9-3.3,3-5.6,3c-1.2,0-2.4-0.3-3.4-0.9c-1-0.6-1.8-1.6-2.2-2.7C124.7,66.5,124.5,65.2,124.5,63.9
	 M134.9,60.7c0-0.9-0.2-1.8-0.8-2.6c-0.5-0.6-1.2-1-1.9-1c-0.8,0-1.5,0.3-2.1,0.9c-0.7,0.7-1.2,1.7-1.4,2.6c-0.3,1-0.5,2.1-0.5,3.2
	c-0.1,1,0.2,2,0.8,2.9c0.4,0.7,1.2,1,2,1.1c1.1,0,2-0.7,2.5-1.6C134.4,64.5,134.9,62.6,134.9,60.7"/>
<path class="st0" d="M141.4,54.1h3.4l-0.4,2.2c0.7-0.8,1.5-1.4,2.4-2c0.7-0.4,1.5-0.6,2.4-0.6c1,0,2,0.4,2.6,1.2c0.7,0.9,1,2,1,3.2
	c-0.1,1.1-0.2,2.2-0.4,3.4l-1.6,9.5h-3.6l1.6-9.5c0.2-1.4,0.4-2.3,0.4-2.5c0-0.5-0.1-1-0.4-1.4c-0.3-0.3-0.7-0.5-1.1-0.5
	c-0.7,0.1-1.3,0.4-1.8,0.8c-0.7,0.6-1.2,1.4-1.5,2.2c-0.4,1.3-0.7,2.6-0.9,4l-1.1,6.9h-3.6L141.4,54.1z"/>
<path class="st0" d="M154,57.5l0.6-3.4h1.8l0.8-5.7l3.8-0.1l-1,5.8h2.2l-0.6,3.4h-2.2l-1.2,7c-0.2,1.3-0.3,2-0.3,2.2
	c0,0.3,0.1,0.6,0.3,0.8c0.3,0.2,0.6,0.3,1,0.3c0.2,0,0.6,0,1.2-0.1l-0.6,3.4c-0.6,0.2-1.3,0.2-1.9,0.2c-1,0.1-2-0.2-2.8-0.9
	c-0.6-0.7-0.9-1.6-0.9-2.6c0.1-1.2,0.2-2.4,0.5-3.6l1.1-6.8L154,57.5z"/>
<path class="st0" d="M93.5,18.6h3.4l-0.4,2.2c0.7-0.8,1.5-1.5,2.4-2c0.7-0.4,1.5-0.6,2.4-0.6c1,0,2,0.4,2.6,1.2c0.7,0.9,1,2,1,3.1
	c-0.1,1.1-0.2,2.3-0.4,3.4l-1.6,9.5h-3.6l1.6-9.5c0.2-1.4,0.3-2.3,0.3-2.5c0-0.5-0.1-1-0.4-1.4c-0.3-0.3-0.7-0.5-1.2-0.5
	c-0.7,0.1-1.3,0.4-1.8,0.8c-0.7,0.6-1.2,1.4-1.5,2.2c-0.4,1.3-0.7,2.6-0.9,4l-1.2,6.9h-3.6L93.5,18.6z"/>
<path class="st0" d="M118.3,28.4h-9.1c0,0.2,0,0.3,0,0.4c0,1,0.2,1.9,0.8,2.7c0.4,0.6,1.1,1,1.9,1c1.2,0,2.1-0.8,2.8-2.3l3.3,0.7
	c-0.5,1.4-1.4,2.7-2.5,3.7c-1,0.8-2.3,1.2-3.6,1.2c-1.7,0-3.4-0.8-4.4-2.1c-1.2-1.6-1.8-3.6-1.7-5.7c0-2.1,0.5-4.3,1.5-6.1
	c1.1-2.3,3.4-3.7,6-3.7c1.5,0,3,0.7,3.9,1.9c1.1,1.6,1.6,3.4,1.5,5.3C118.5,26.5,118.5,27.5,118.3,28.4 M115.2,25.7v-0.5
	c0.1-1-0.2-2-0.7-2.8c-0.4-0.6-1.1-0.9-1.8-0.9c-0.8,0-1.5,0.4-2,1.1c-0.7,0.9-1.1,2-1.2,3.1H115.2z"/>
<path class="st0" d="M119.2,22l0.6-3.4h1.8l0.8-5.7l3.8-0.1l-1,5.8h2.2l-0.6,3.4h-2.2l-1.2,7c-0.2,1.3-0.3,2-0.3,2.2
	c0,0.3,0.1,0.6,0.3,0.8c0.3,0.2,0.6,0.3,1,0.3c0.2,0,0.6,0,1.2-0.1l-0.6,3.4c-0.6,0.2-1.3,0.2-1.9,0.2c-1,0.1-2-0.2-2.8-0.9
	c-0.6-0.7-0.9-1.6-0.9-2.6c0.1-1.2,0.2-2.4,0.5-3.6L121,22L119.2,22z"/>
<path class="st0" d="M71.6,21.3c-0.8,0-1.6,0.3-2.1,0.9c-0.7,0.7-1.2,1.7-1.4,2.6c-0.3,1-0.5,2.1-0.5,3.2c-0.1,1,0.2,2,0.8,2.9
	c0.4,0.7,1.2,1.1,2,1.1c1.1,0,2-0.6,2.5-1.6c1-1.7,1.5-3.6,1.4-5.5c0-0.9-0.2-1.8-0.8-2.6C73.1,21.6,72.4,21.3,71.6,21.3"/>
<path class="st0" d="M85.8,12.6l-0.9,5.7h2.2l-0.6,3.4h-2.2l-1.2,7c-0.2,1.3-0.3,2-0.3,2.2c0,0.3,0.1,0.6,0.3,0.8
	c0.3,0.2,0.6,0.3,1,0.3c0.2,0,0.6,0,1.2-0.1l-0.6,3.4c-0.6,0.2-1.3,0.2-1.9,0.2c-1,0.1-2-0.2-2.8-0.9C79.3,33.8,79,32.9,79,32
	c0.1-1.2,0.2-2.4,0.5-3.6l1.1-6.8h-1.8l0.6-3.4h1.8l0.8-5.7l3.7-0.1c-3.6-5.3-9.6-8.6-16-8.6c-11.1,0.4-20,9.6-19.9,20.7
	c0.3-1.2,0.8-2.3,1.3-3.4c0.8-1.9,2.7-3.2,4.8-3.3c1.8,0,3.4,1,4.1,2.7l1.5-8.7h3.6L61.3,35h-3.4l0.3-1.8c-0.5,0.7-1.2,1.3-1.9,1.7
	c-0.7,0.4-1.4,0.5-2.2,0.5c-0.7,0-1.3-0.1-1.9-0.5c3.2,6.8,10,11.2,17.6,11.3C81,45.9,89.9,36.3,89.6,25
	C89.6,20.6,88.3,16.2,85.8,12.6 M75.8,32.4c-1.2,1.9-3.3,3-5.6,3c-1.2,0-2.4-0.3-3.4-1c-1-0.6-1.8-1.6-2.2-2.7
	c-0.5-1.2-0.7-2.5-0.7-3.7c-0.1-2.6,0.6-5.3,2.1-7.4c1.3-1.8,3.4-2.8,5.5-2.8c1.8-0.1,3.5,0.7,4.7,2c1.2,1.6,1.8,3.5,1.7,5.5
	C78,27.9,77.2,30.4,75.8,32.4"/>
<path class="st0" d="M55.4,32c0.7,0,1.4-0.3,1.8-0.8c0.7-0.7,1.1-1.6,1.4-2.6c0.3-1.1,0.5-2.2,0.5-3.3c0.1-1-0.2-2.1-0.8-2.9
	c-0.4-0.7-1.1-1.1-1.8-1.1c-1.1,0-1.9,0.7-2.6,2.2c-0.7,1.5-1,3.1-1,4.8c-0.1,1,0.2,2,0.7,2.8C54,31.7,54.7,32,55.4,32"/>
</svg>
