<svg width="100" height="100" viewBox="0 0 100 100" fill="none" xmlns="http://www.w3.org/2000/svg">
<g clip-path="url(#clip0_151_1025)">
<path d="M80.5242 99.2461C76.7442 98.5361 73.3942 96.9861 70.7842 94.0961C66.5242 89.3761 65.3242 83.9261 67.0642 77.8261C67.2942 77.0361 67.7342 76.4861 68.5942 76.4561C69.6842 76.4061 70.3742 77.4161 70.0442 78.6561C69.7542 79.7561 69.5242 80.8461 69.4642 81.9861C69.2242 86.4061 70.8242 90.0461 74.0942 92.9861C74.2042 93.0861 74.3542 93.1461 74.4942 93.2161C74.7742 92.9361 74.6542 92.6361 74.6642 92.3561C74.8142 89.8261 76.8742 87.8161 79.4142 87.7761C81.5742 87.7461 83.7342 87.7561 85.9042 87.7761C88.9442 87.7861 90.9142 89.7061 91.0442 92.7461C91.0442 92.8761 91.0642 92.9961 91.0842 93.1261C91.4642 93.2761 91.6342 92.9761 91.8342 92.8061C95.7042 89.4861 97.3542 83.6561 95.6342 78.6861C93.7942 73.3661 90.0142 70.2161 84.3842 69.4861C80.2242 68.9561 76.6242 70.2561 73.5642 73.0861C72.6842 73.9061 71.7442 73.9961 71.0942 73.3161C70.3942 72.5961 70.4942 71.7661 71.3842 70.8661C77.9642 64.2061 89.5642 64.8561 95.5842 72.1861C97.5842 74.6261 98.7342 77.4161 99.3242 80.4661V85.1161C99.2742 85.3361 99.2142 85.5561 99.1642 85.7761C98.4842 89.1961 96.9442 92.1461 94.4642 94.6061C91.8742 97.1761 88.7242 98.5961 85.1842 99.2561H80.5342L80.5242 99.2461ZM82.8542 90.8161C81.9542 90.8161 81.0542 90.7961 80.1542 90.8161C78.4142 90.8561 77.8442 91.4361 77.8242 93.1461C77.8242 93.5361 77.8542 93.9261 77.8242 94.3061C77.7542 95.0461 78.0642 95.4161 78.7742 95.6161C80.9742 96.2361 83.1842 96.4761 85.4442 95.9661C88.4842 95.2861 87.8342 95.4961 87.8842 92.9561C87.9142 91.5161 87.3242 90.9161 85.8642 90.8261C84.8742 90.7661 83.8742 90.8161 82.8742 90.8161H82.8542Z" fill="#727272"/>
<path d="M14.294 99.2435C10.584 98.5435 7.28399 97.0435 4.68399 94.2435C0.283987 89.4835 -1.09601 83.9035 0.883987 77.7635C2.92399 71.4335 7.42399 67.5535 14.024 66.4735C23.404 64.9335 31.984 71.5235 33.104 80.9535C34.114 89.4835 28.144 97.5035 19.604 99.0935C19.384 99.1335 19.164 99.1935 18.954 99.2535H14.304L14.294 99.2435ZM16.644 96.2635C23.984 96.2335 30.154 90.1435 30.074 82.8035C29.994 75.2035 24.164 69.3935 16.584 69.3235C9.24399 69.2535 3.07399 75.4235 3.15399 82.7635C3.23399 90.3535 9.06399 96.0935 16.644 96.2735V96.2635Z" fill="#727272"/>
<path d="M99.3031 18.875C98.7231 21.865 97.6131 24.605 95.6831 27.005C88.8331 35.515 75.3731 35.015 69.2231 25.985C68.9131 25.525 68.5831 25.065 68.7231 24.475C68.8731 23.825 69.2531 23.375 69.9231 23.215C70.6531 23.035 71.1831 23.385 71.5831 23.945C72.4531 25.155 73.4131 26.275 74.6131 27.185C82.6831 33.355 94.3031 28.855 96.1031 18.855C97.4631 11.265 91.9731 4.04496 84.3131 3.20496C76.4931 2.34496 70.0531 8.35496 69.4931 15.165C69.4231 16.035 69.3731 16.895 69.4931 17.765C69.6431 19.015 69.0831 19.825 68.0931 19.905C67.0631 19.985 66.4331 19.305 66.3531 18.045C65.7531 8.87496 71.8531 1.22496 80.9131 0.124962C89.9531 -0.965038 97.5731 5.20496 99.1631 13.585C99.2031 13.805 99.2631 14.025 99.3231 14.245V18.895L99.3031 18.875Z" fill="#727272"/>
<path d="M33.8644 32.7637C34.7644 32.7637 35.4144 33.3637 36.1244 33.7737C36.6644 34.0837 37.0744 34.1437 37.6044 33.7237C38.9144 32.6637 40.3844 31.8437 41.9444 31.2137C42.5644 30.9637 42.7644 30.5837 42.7244 29.9637C42.5444 26.8837 43.3344 26.4837 46.1544 26.5637C48.9244 26.6337 51.7044 26.5737 54.4744 26.5837C56.0544 26.5837 56.8344 27.2537 56.7044 28.8037C56.5744 30.3537 57.0644 31.2237 58.5644 31.7337C59.7844 32.1437 60.8544 32.9237 61.8544 33.7337C62.3244 34.1137 62.7044 34.1337 63.2444 33.8337C66.1844 32.1937 66.4144 32.2737 68.0744 35.1937C69.3844 37.4937 70.7244 39.7737 72.0444 42.0637C72.9644 43.6537 72.7344 44.4837 71.1444 45.3937C70.9744 45.4937 70.8144 45.6037 70.6344 45.6737C69.7144 46.0437 69.4944 46.6237 69.6444 47.6437C69.8644 49.1337 69.8544 50.6737 69.5944 52.1737C69.4944 52.7737 69.6144 53.1637 70.1744 53.4337C70.6944 53.6937 71.2044 53.9837 71.6744 54.3137C72.5844 54.9437 72.8644 55.7937 72.3244 56.7537C70.6144 59.7937 68.8744 62.8037 67.0944 65.7937C66.5644 66.6837 65.4944 66.9737 64.6444 66.3137C63.1244 65.1337 61.9044 65.3137 60.5244 66.5437C59.6944 67.2837 58.6044 67.7337 57.5544 68.1437C56.9544 68.3837 56.6944 68.7237 56.7344 69.3737C56.9344 72.6037 56.0344 72.8937 53.2544 72.8237C50.5144 72.7537 47.7744 72.8137 45.0344 72.8037C43.3944 72.8037 42.6244 72.1437 42.7644 70.5237C42.8944 68.9937 42.4044 68.1637 40.9344 67.6737C39.6844 67.2537 38.5944 66.4537 37.5544 65.6237C37.1144 65.2737 36.7144 65.1937 36.2544 65.5537C36.2044 65.5937 36.1444 65.6237 36.0844 65.6537C33.3544 67.1737 33.0344 67.0837 31.4944 64.4037C30.0944 61.9737 28.6944 59.5437 27.2944 57.1037C26.5344 55.7837 26.7244 54.8037 28.1144 54.1437C29.4944 53.4937 30.0644 52.7237 29.7744 51.1137C29.5344 49.8037 29.5944 48.4137 29.8644 47.0737C29.9744 46.5437 29.7644 46.2237 29.3044 45.9837C28.7644 45.6937 28.2244 45.4037 27.7244 45.0537C26.8344 44.4237 26.5944 43.5437 27.1244 42.6037C28.8044 39.6337 30.5344 36.6737 32.2544 33.7237C32.6044 33.1237 33.1244 32.7837 33.8444 32.8037L33.8644 32.7637ZM33.2144 45.9237C32.6344 48.3737 32.7544 50.9937 33.2044 53.6237C33.3144 54.2537 32.9644 54.8237 32.4044 55.1837C31.9944 55.4437 31.5844 55.7037 31.1544 55.9137C30.6544 56.1637 30.5044 56.4137 30.8244 56.9637C31.9044 58.7637 32.9344 60.5837 33.9644 62.4137C34.2344 62.8937 34.5144 62.9737 34.9644 62.6637C35.2044 62.4937 35.4644 62.3737 35.7244 62.2337C37.0844 61.4637 37.5444 61.5137 38.7544 62.5437C40.2344 63.8137 41.8844 64.8137 43.7244 65.4937C45.7244 66.2337 45.8844 66.4137 45.8844 68.5837C45.8844 69.3937 46.1844 69.6537 46.9644 69.6437C48.6744 69.6037 50.3844 69.6437 52.0944 69.6337C53.0677 69.6337 53.5577 69.1637 53.5644 68.2237C53.5844 66.6137 53.8644 66.1837 55.3644 65.6437C57.2044 64.9837 58.8844 64.0437 60.4044 62.8137C62.1544 61.4037 62.2344 61.3837 64.2344 62.5137C64.3144 62.5637 64.4144 62.5937 64.4844 62.6537C64.9744 63.0437 65.2544 62.8437 65.5344 62.3537C66.4944 60.6337 67.4544 58.9137 68.4944 57.2437C68.9544 56.5037 68.8644 56.1037 68.0744 55.7837C67.7744 55.6637 67.5044 55.4737 67.2344 55.3137C66.4644 54.8437 66.1244 54.1637 66.2944 53.2637C66.7644 50.8637 66.7544 48.4637 66.2944 46.0637C66.1344 45.2137 66.4544 44.5437 67.1744 44.0837C67.4144 43.9237 67.6744 43.7837 67.9244 43.6437C68.9944 43.0337 69.0044 43.0337 68.3644 41.9337C67.5144 40.4537 66.6444 38.9837 65.7944 37.4937C64.9944 36.0837 65.1744 36.3337 63.9544 37.0037C62.2944 37.9137 62.0244 37.8937 60.5244 36.6537C59.0944 35.4737 57.5244 34.5337 55.7844 33.8837C53.7144 33.1137 53.5944 32.9837 53.5744 30.7337C53.5744 29.9737 53.2844 29.7137 52.5444 29.7237C50.8944 29.7537 49.2544 29.7337 47.6044 29.7237C45.7244 29.7237 45.8744 29.7037 45.8844 31.3737C45.8844 32.4037 45.5444 33.2137 44.4944 33.5637C42.1944 34.3337 40.1544 35.5237 38.3444 37.1337C37.6644 37.7337 36.9044 37.7937 36.1044 37.3437C35.7444 37.1337 35.3544 36.9637 35.0144 36.7137C34.4744 36.3237 34.1844 36.5037 33.8944 37.0437C33.0644 38.5437 32.2044 40.0137 31.3444 41.4937C30.4744 42.9937 30.4644 43.0037 31.9444 43.8637C32.6944 44.2937 33.2244 44.8337 33.2144 45.9337V45.9237Z" fill="#727272"/>
<path d="M0.0937602 16.5834C0.0837602 7.37344 7.39376 0.0334375 16.5838 0.0234375C25.8038 0.0234375 33.1438 7.32344 33.1438 16.5134C33.1438 25.7634 25.8138 33.0834 16.5538 33.0734C7.42376 33.0734 0.0937602 25.7334 0.0937602 16.5834ZM30.1038 16.5734C29.9238 9.06344 24.2838 3.16344 16.6838 3.11344C9.15376 3.06344 3.19376 8.90344 3.17376 16.5334C3.16376 24.0334 8.94376 29.9534 16.5538 29.9934C24.0938 30.0334 29.8938 24.2134 30.1038 16.5734Z" fill="#727272"/>
<path d="M84.7639 19.4963C84.8139 18.6563 84.2739 18.1563 83.5039 17.8263C82.6439 17.4663 81.7539 17.1663 80.9039 16.7763C79.2639 16.0063 78.1939 14.7763 78.1539 12.8963C78.1139 11.0263 78.9439 9.59633 80.6439 8.75633C81.0839 8.53633 81.2239 8.24633 81.2439 7.77633C81.2939 6.88633 81.7839 6.31633 82.6939 6.26633C83.6139 6.20633 84.1639 6.73633 84.3039 7.60633C84.4039 8.23633 84.7039 8.56633 85.2739 8.77633C85.6639 8.91633 86.0239 9.15633 86.3539 9.41633C87.0939 9.99633 87.2339 10.8663 86.7639 11.5563C86.3239 12.2063 85.4839 12.4163 84.6939 11.9863C84.0639 11.6463 83.4439 11.3163 82.6939 11.4063C82.0439 11.4863 81.4939 11.7063 81.3439 12.4363C81.1939 13.1463 81.5139 13.6363 82.1339 13.9263C82.8339 14.2463 83.5639 14.5163 84.2839 14.7963C86.3139 15.5663 87.7239 16.8963 87.8939 19.1463C88.0639 21.4363 87.0339 23.1263 84.9739 24.1563C84.5339 24.3763 84.3939 24.7063 84.3339 25.1463C84.2039 26.0163 83.7139 26.6063 82.8239 26.6363C81.8739 26.6663 81.3439 26.0663 81.2439 25.1463C81.1939 24.6863 80.9239 24.5563 80.5639 24.4663C79.8339 24.2763 79.1739 23.9563 78.5539 23.5363C77.7339 22.9963 77.5239 22.1063 78.0039 21.3563C78.4539 20.6363 79.3039 20.4063 80.1139 20.8763C80.9839 21.3763 81.8739 21.6463 82.8739 21.5463C84.0339 21.4263 84.7439 20.6963 84.7539 19.5263L84.7639 19.4963Z" fill="#727272"/>
<path d="M49.7034 94.8346C45.5634 94.7746 41.4834 94.2446 37.4934 93.1146C36.3934 92.8046 35.8434 92.0546 36.0634 91.1746C36.3034 90.2246 37.1334 89.7946 38.2934 90.1046C42.4234 91.2346 46.6234 91.7546 50.9034 91.6446C54.2334 91.5546 57.5034 91.0646 60.7234 90.2146C60.9434 90.1546 61.1634 90.0946 61.3834 90.0546C62.3734 89.8546 63.1134 90.2546 63.3534 91.1146C63.5934 91.9646 63.1634 92.7146 62.1834 93.0246C60.5234 93.5546 58.8234 93.9146 57.1034 94.1946C54.6534 94.5946 52.1834 94.7946 49.7034 94.8246V94.8346Z" fill="#727272"/>
<path d="M49.7148 4.50391C53.8948 4.56391 57.9948 5.09391 62.0248 6.23391C62.7748 6.44391 63.3148 6.85391 63.4248 7.65391C63.5148 8.33391 63.1748 8.82391 62.6048 9.17391C62.1148 9.47391 61.6048 9.36391 61.1048 9.22391C56.8848 8.02391 52.5748 7.55391 48.2048 7.70391C44.9748 7.81391 41.7948 8.29391 38.6748 9.13391C38.3348 9.22391 37.9848 9.33391 37.6348 9.36391C36.8848 9.41391 36.1848 8.81391 36.0448 8.07391C35.9048 7.29391 36.4048 6.54391 37.3148 6.28391C38.9848 5.80391 40.6848 5.41391 42.4048 5.13391C44.8248 4.74391 47.2648 4.54391 49.7148 4.51391V4.50391Z" fill="#727272"/>
<path d="M94.8944 49.7565C94.8244 53.6465 94.3544 57.5765 93.3044 61.4265C93.2344 61.6765 93.1744 61.9265 93.0744 62.1665C92.7444 62.9865 91.9844 63.4165 91.2344 63.2165C90.4444 63.0065 89.9644 62.3165 90.1244 61.4265C90.3544 60.1265 90.7144 58.8565 90.9644 57.5565C92.1544 51.3765 91.9444 45.2465 90.3844 39.1565C90.2944 38.8165 90.1944 38.4665 90.1344 38.1265C89.9644 37.1265 90.3844 36.3765 91.2244 36.1465C92.0344 35.9265 92.8244 36.4065 93.1244 37.3665C93.6144 38.9665 93.9744 40.6065 94.2444 42.2665C94.6344 44.7165 94.8544 47.1865 94.8844 49.7665L94.8944 49.7565Z" fill="#727272"/>
<path d="M4.56492 49.6544C4.62492 45.6744 5.11492 41.7444 6.15492 37.8944C6.20492 37.7044 6.25492 37.5244 6.31492 37.3344C6.64492 36.3944 7.42492 35.9044 8.22492 36.1344C9.06492 36.3744 9.50492 37.1244 9.29492 38.1244C9.05492 39.2944 8.72492 40.4444 8.49492 41.6144C7.29492 47.8544 7.46492 54.0544 9.05492 60.2044C9.15492 60.5744 9.25492 60.9544 9.31492 61.3344C9.45492 62.2844 9.00492 62.9944 8.18492 63.2044C7.40492 63.4044 6.61492 62.9444 6.32492 62.0444C5.81492 60.4144 5.45492 58.7344 5.17492 57.0544C4.77492 54.6044 4.57492 52.1244 4.54492 49.6444L4.56492 49.6544Z" fill="#727272"/>
<path d="M77.1934 78.8944C77.1934 75.8144 79.8334 73.2144 82.9034 73.2544C85.9434 73.2944 88.5034 75.8744 88.5034 78.9144C88.5034 81.9844 85.8634 84.5944 82.7934 84.5644C79.7534 84.5244 77.1934 81.9344 77.1934 78.9044V78.8944ZM85.3234 78.9144C85.3234 77.5244 84.2834 76.4544 82.9034 76.4344C81.4634 76.4144 80.3734 77.4744 80.3734 78.9044C80.3734 80.2944 81.4134 81.3644 82.7934 81.3844C84.2334 81.4044 85.3234 80.3444 85.3234 78.9144Z" fill="#727272"/>
<path d="M16.6031 92.9151C15.9231 92.9151 15.2431 92.9351 14.5731 92.9151C13.1331 92.8751 12.1531 91.9851 11.9631 90.5551C11.9131 90.2051 11.9131 89.8451 11.9331 89.4951C12.0931 87.3151 11.6531 85.3751 10.4031 83.4651C8.77311 80.9751 9.03311 78.2551 10.7431 75.8251C12.4531 73.3951 14.8831 72.4351 17.8231 72.8651C18.8731 73.0151 19.4631 73.7351 19.3631 74.6251C19.2531 75.5651 18.4931 76.0551 17.3631 75.9251C15.5631 75.7051 14.0731 76.2751 13.1431 77.8551C12.2031 79.4551 12.4431 81.0151 13.4231 82.5851C14.1731 83.7951 14.9431 84.6851 16.5231 84.3551C17.2931 84.1951 18.3431 84.7451 18.8131 84.0551C19.5731 82.9351 20.5931 81.8751 20.6431 80.3851C20.6531 80.0351 20.6431 79.6751 20.6431 79.3251C20.6731 78.3351 21.2531 77.6551 22.1231 77.5951C22.9331 77.5351 23.6731 78.1951 23.7831 79.1651C23.9731 80.7551 23.7331 82.3251 22.7931 83.6051C21.5431 85.2951 21.1431 87.1251 21.2931 89.1551C21.3331 89.6951 21.3231 90.2551 21.2231 90.7951C20.9831 92.0951 20.0431 92.8751 18.7231 92.9251C18.0131 92.9551 17.3031 92.9251 16.5931 92.9251L16.6031 92.9151ZM16.5831 87.4951C16.1531 87.6551 15.4331 87.1451 15.1431 87.9051C14.6931 89.0951 15.1931 89.7651 16.4831 89.7651C16.8031 89.7651 17.1231 89.7651 17.4431 89.7651C17.9131 89.7651 18.1031 89.5151 18.1431 89.0451C18.2831 87.6351 18.1631 87.4951 16.5831 87.4951V87.4951Z" fill="#727272"/>
<path d="M49.5337 37.0146C56.2637 37.0146 61.9137 42.1546 62.3737 48.3946C62.9337 55.9046 57.6337 61.4146 51.3737 62.2646C43.2237 63.3746 36.1137 56.3146 37.1137 48.1246C37.2637 46.8746 37.9437 46.2046 38.9437 46.3246C39.9337 46.4446 40.4037 47.2446 40.2437 48.6346C39.6337 54.0546 43.5337 58.0846 47.6137 58.9946C53.1437 60.2346 58.5437 56.3846 59.2137 50.7446C59.8337 45.4746 55.9337 40.2246 49.7837 40.0846C47.6837 40.0346 45.7037 40.6646 44.0037 41.9846C43.6737 42.2446 43.3537 42.5146 43.0337 42.7846C42.1537 43.5246 41.2637 43.5546 40.6437 42.8546C39.9937 42.1246 40.0837 41.3146 40.9537 40.4746C42.7137 38.7746 44.8237 37.7146 47.2137 37.1946C48.0437 37.0146 48.8737 36.9646 49.5337 36.9846V37.0146Z" fill="#727272"/>
<path d="M49.7645 43.254C53.2245 43.284 56.1945 46.284 56.1545 49.734C56.1145 53.204 53.0945 56.154 49.6545 56.094C46.2245 56.034 43.3045 53.074 43.3145 49.664C43.3145 46.214 46.3245 43.234 49.7745 43.254H49.7645ZM49.7645 52.924C51.5845 52.914 52.9945 51.474 52.9745 49.644C52.9645 47.824 51.5245 46.424 49.6945 46.434C47.8645 46.444 46.4745 47.874 46.4845 49.714C46.4945 51.534 47.9345 52.944 49.7645 52.924Z" fill="#727272"/>
<path d="M16.6933 8.02641C18.4333 8.02641 20.1733 8.02641 21.9233 8.02641C22.6933 8.02641 23.4133 8.19641 23.7833 8.98641C24.1733 9.82641 23.7833 10.7964 22.8333 11.0664C22.1533 11.2564 22.0633 11.6164 22.0833 12.1864C22.1533 13.6564 21.8033 15.0064 20.8533 16.1564C20.6333 16.4264 20.6133 16.6464 20.8533 16.9164C21.8433 18.0864 22.1633 19.4764 22.0833 20.9764C22.0533 21.5264 22.1933 21.8564 22.8133 21.9964C23.5533 22.1664 23.9433 22.7564 23.9133 23.5164C23.8733 24.3164 23.4033 24.8264 22.6033 24.9764C22.2533 25.0364 21.9033 25.0664 21.5433 25.0664C18.2533 25.0664 14.9633 25.0664 11.6733 25.0664C11.4133 25.0664 11.1533 25.0664 10.9033 25.0264C9.93327 24.8964 9.34327 24.3164 9.31327 23.5064C9.28327 22.6964 9.83327 22.0664 10.8133 21.9264C11.3433 21.8564 11.5633 21.6464 11.5233 21.1364C11.4133 19.6064 11.7233 18.1864 12.6833 16.9464C12.9233 16.6464 12.8633 16.3464 12.6433 16.0664C11.7433 14.8764 11.4233 13.5264 11.5233 12.0564C11.5533 11.5564 11.4633 11.2264 10.8233 11.1464C9.82327 11.0264 9.28327 10.3964 9.30327 9.58641C9.32327 8.73641 9.94327 8.09641 10.9833 8.04641C12.4933 7.97641 14.0133 8.01641 15.5333 8.00641C15.9233 8.00641 16.3033 8.00641 16.6933 8.00641V8.02641ZM18.9133 12.4464C18.9133 11.1964 18.9133 11.1864 17.7133 11.1864C16.9733 11.1864 16.2333 11.1864 15.4933 11.1864C15.2033 11.1864 14.9133 11.1864 14.7533 11.5164C14.2333 12.5864 14.9033 14.3864 16.0133 14.8264C17.2533 15.3164 19.1033 14.5364 18.9133 12.4564V12.4464ZM16.7733 21.9164C19.0333 21.9164 19.1933 21.7564 18.8733 19.8464C18.6933 18.7764 17.6833 18.0464 16.5333 18.1564C15.2633 18.2764 14.6133 19.3164 14.6833 21.0464C14.7433 22.4964 15.8433 21.7164 16.4833 21.9164C16.5733 21.9464 16.6733 21.9164 16.7733 21.9164Z" fill="#727272"/>
</g>
<defs>
<clipPath id="clip0_151_1025">
<rect width="100" height="100" fill="white"/>
</clipPath>
</defs>
</svg>
