<?xml version="1.0" encoding="utf-8"?>
<!-- Generator: Adobe Illustrator 26.0.1, SVG Export Plug-In . SVG Version: 6.00 Build 0)  -->
<svg version="1.1" id="Layer_1" xmlns="http://www.w3.org/2000/svg" xmlns:xlink="http://www.w3.org/1999/xlink" x="0px" y="0px"
	 viewBox="0 0 137 76" style="enable-background:new 0 0 137 76;" xml:space="preserve">
<style type="text/css">
	.st0{fill:#FEFEFE;}
	.st1{fill:#AEAEAE;}
	.st2{fill:none;}
</style>
<g id="oTXd6u_00000016773704148164690130000005347037960295466172_">
	<g>
		<path class="st0" d="M44.58,36.94c-1.51,0-2.88,0.01-4.25-0.02c-0.14,0-0.35-0.25-0.41-0.43c-0.49-1.43-0.94-2.86-1.41-4.3
			c-0.04-0.13-0.09-0.27-0.15-0.43c-2.2,0-4.39-0.01-6.59,0.02c-0.14,0-0.34,0.26-0.4,0.44c-0.46,1.42-0.9,2.84-1.33,4.27
			c-0.1,0.35-0.26,0.47-0.63,0.46c-1.05-0.03-2.1-0.01-3.28-0.01c0.05-0.54-0.01-1.07,0.15-1.53c2.16-6.2,4.35-12.39,6.52-18.59
			c0.12-0.34,0.28-0.43,0.61-0.42c1.29,0.01,2.57,0.02,3.86,0c0.33,0,0.49,0.09,0.61,0.43c2.18,6.19,4.38,12.38,6.54,18.58
			C44.57,35.85,44.52,36.38,44.58,36.94z M32.5,28.54c1.63,0,3.19,0,4.81,0c-0.8-2.46-1.59-4.88-2.43-7.46
			C34.06,23.63,33.29,26.05,32.5,28.54z"/>
		<path class="st0" d="M82.08,30.21c-3.3,0-6.57,0-9.84,0c-0.37,1.47,0.81,3.34,2.32,3.69c1.75,0.4,3.45,0.21,4.99-0.72
			c0.64-0.39,1.26-0.4,2.01-0.34c0,0.89,0.01,1.78-0.02,2.66c0,0.12-0.2,0.27-0.34,0.35c-1.39,0.79-2.9,1.19-4.47,1.27
			c-1.33,0.07-2.67,0.08-3.98-0.3c-2.6-0.76-4.2-2.45-4.81-5.06c-0.53-2.29-0.42-4.54,0.68-6.65c1.16-2.23,3.06-3.44,5.55-3.75
			c1.17-0.15,2.31-0.05,3.44,0.23c2.03,0.51,3.34,1.81,4.02,3.77C82.19,26.91,82.18,28.53,82.08,30.21z M72.26,27.54
			c1.87,0,3.71,0,5.55,0c0.05-2.31-0.82-3.47-2.55-3.48C73.45,24.05,72.24,25.43,72.26,27.54z"/>
		<path class="st0" d="M45.76,32.64c0.71-0.01,1.3-0.04,1.92,0.39c1.42,0.99,3.06,1.08,4.71,0.74c0.71-0.15,1.08-0.61,1.1-1.2
			c0.02-0.66-0.27-1.11-1.04-1.29c-0.98-0.24-1.99-0.36-2.98-0.57c-1.22-0.26-2.36-0.7-3.11-1.79c-1.68-2.42-0.6-5.92,2.12-7.01
			c1.54-0.62,3.14-0.66,4.73-0.47c1.01,0.12,1.98,0.51,2.97,0.78c0.33,0.09,0.43,0.28,0.43,0.63c-0.02,0.89-0.01,1.78-0.01,2.7
			c-0.66,0.01-1.23,0.08-1.83-0.26c-1.32-0.75-2.77-0.88-4.24-0.57c-0.68,0.14-0.98,0.51-1.01,1.06c-0.03,0.57,0.22,0.96,0.91,1.14
			c0.96,0.24,1.95,0.38,2.92,0.57c1.02,0.2,2.02,0.46,2.84,1.15c1.31,1.09,1.52,2.6,1.31,4.14c-0.33,2.49-1.65,3.75-4.43,4.22
			c-2.3,0.38-4.57,0.19-6.74-0.8c-0.43-0.2-0.62-0.41-0.59-0.91C45.8,34.42,45.76,33.56,45.76,32.64z"/>
		<path class="st0" d="M59.81,24.48c-0.63,0-1.18,0-1.77,0c0-0.98,0-1.94,0-2.96c0.57,0,1.14,0,1.76,0c0-1.39,0-2.7,0-4.06
			c1.44,0,2.84,0,4.3,0c0,1.31,0,2.63,0,4.04c1.06,0,2.07,0,3.1,0c0,1.03,0,1.98,0,2.99c-1.02,0-2.01,0-3.04,0
			c-0.01,0.22-0.03,0.39-0.03,0.56c0,2.37,0,4.75,0,7.12c0,0.23,0.03,0.46,0.07,0.69c0.16,0.87,0.61,1.25,1.5,1.27
			c0.52,0.01,1.03,0,1.63,0c0,0.85,0.01,1.66-0.01,2.47c0,0.09-0.17,0.23-0.28,0.26c-1.76,0.45-3.53,0.58-5.23-0.19
			c-1.41-0.63-1.96-1.88-1.98-3.34c-0.04-2.73-0.01-5.46-0.01-8.19C59.81,24.94,59.81,24.74,59.81,24.48z"/>
		<path class="st0" d="M88.47,23.26c0.84-0.84,1.76-1.5,2.89-1.71c0.65-0.12,1.33-0.08,2-0.08c0.11,0,0.3,0.17,0.3,0.27
			c0.02,1.05,0.01,2.1,0.01,3.18c-0.67,0.03-1.3,0.01-1.91,0.11c-0.94,0.16-1.86,0.4-2.8,0.6c-0.37,0.08-0.48,0.31-0.48,0.69
			c0.02,3.32-0.01,6.64,0.02,9.96c0,0.56-0.15,0.69-0.69,0.67c-1.21-0.04-2.42-0.01-3.66-0.01c-0.01-0.21-0.03-0.36-0.03-0.52
			c0-4.78,0.01-9.56-0.01-14.35c0-0.48,0.14-0.62,0.6-0.59c0.68,0.04,1.36,0.01,2.03,0.01c1.05,0,1.35,0.25,1.57,1.27
			C88.37,22.92,88.42,23.07,88.47,23.26z"/>
		<path class="st1" d="M43.67,52.4c-0.52-0.07-1.16-0.13-1.78-0.26c-1.85-0.4-2.95-1.55-3.33-3.4c-0.24-1.16-0.22-2.31,0.07-3.44
			c0.48-1.87,1.91-3.09,3.93-3.22c1.09-0.07,2.22-0.04,3.28,0.19c1.95,0.42,3.14,1.88,3.25,3.87c0.05,0.93,0.04,1.9-0.13,2.81
			c-0.34,1.81-1.72,3-3.63,3.29C44.83,52.31,44.31,52.34,43.67,52.4z M44.18,49.97c0.32,0,0.64,0.02,0.96,0
			c0.66-0.05,1.02-0.34,1.05-0.92c0.04-0.98,0.07-1.96-0.01-2.93c-0.08-1.01-0.73-1.61-1.75-1.69c-0.69-0.06-1.39-0.03-2.08,0
			c-0.61,0.03-0.9,0.33-0.95,0.94c-0.05,0.6-0.08,1.21-0.08,1.81C41.32,49.34,42.03,50.03,44.18,49.97z"/>
		<path class="st1" d="M35.53,52.28c-0.72-0.04-1.36-0.05-1.99-0.13c-0.52-0.07-0.82-0.43-0.84-0.95c-0.04-0.75-0.05-1.5-0.06-2.24
			c-0.01-0.21,0-0.42,0-0.67c-1.27,0-2.48,0-3.76,0c0,1.3,0,2.6,0,4.01c-0.74-0.07-1.44-0.06-2.1-0.22
			c-0.29-0.07-0.53-0.46-0.71-0.76c-0.11-0.18-0.1-0.45-0.1-0.68c-0.01-2.75,0-5.5,0-8.24c0-0.07,0.01-0.14,0.03-0.28
			c0.78-0.06,1.55-0.06,2.29,0.23c0.53,0.21,0.56,0.75,0.57,1.23c0.03,0.76,0.01,1.52,0.01,2.31c1.28,0,2.5,0,3.77,0
			c0-1.08,0.03-2.13-0.01-3.17c-0.02-0.53,0.17-0.7,0.67-0.63c0.41,0.05,0.82,0.04,1.23,0.1c0.65,0.09,0.99,0.46,1,1.18
			c0.02,1.89,0.02,3.78,0.02,5.67C35.53,50.07,35.53,51.12,35.53,52.28z"/>
		<path class="st1" d="M102.1,52.22c-0.74,0-1.41,0.03-2.08-0.01c-0.71-0.04-1.22-0.44-1.41-1.12c-0.14-0.52-0.43-0.63-0.92-0.62
			c-1.02,0.03-2.03,0.02-3.05,0c-0.31-0.01-0.49,0.09-0.59,0.4c-0.32,1.03-1.01,1.49-2.11,1.38c-0.46-0.05-0.92-0.01-1.44-0.01
			c0.07-0.22,0.12-0.39,0.19-0.55c1.16-2.79,2.35-5.57,3.48-8.37c0.36-0.9,0.94-1.29,1.87-1.25c0.12,0.01,0.25,0,0.37,0
			c1.4,0,1.4,0,1.94,1.27c1.18,2.76,2.35,5.53,3.53,8.29C101.96,51.81,102.02,51.99,102.1,52.22z M96.29,45.11
			c-0.43,1.11-0.81,2.11-1.2,3.13c0.84,0,1.6,0,2.42,0C97.11,47.22,96.72,46.23,96.29,45.11z"/>
		<path class="st1" d="M66.69,52.29c-0.74-0.06-1.38-0.08-2.01-0.17c-0.45-0.06-0.73-0.36-0.8-0.82c-0.05-0.3-0.09-0.6-0.09-0.9
			c-0.01-2.16,0-4.32,0-6.47c0-0.14,0-0.29,0.01-0.43c0.09-1.08,0.34-1.36,1.43-1.34c1.67,0.03,3.37-0.05,5,0.25
			c2.32,0.42,3.33,2.95,2.16,5.02c-0.66,1.17-1.82,1.47-3.04,1.6c-0.86,0.09-1.74,0.09-2.66,0.14
			C66.69,50.17,66.69,51.18,66.69,52.29z M66.72,44.4c0,0.88,0,1.62,0,2.38c0.63,0,1.22,0,1.81,0c0.23,0,0.47,0.02,0.69-0.02
			c0.18-0.03,0.41-0.1,0.51-0.23c0.48-0.6,0.08-1.84-0.66-1.96C68.31,44.44,67.53,44.45,66.72,44.4z"/>
		<path class="st1" d="M60.4,42.12c-0.02,0.47-0.01,0.92-0.08,1.35c-0.1,0.65-0.43,0.93-1.1,0.95c-1.25,0.04-2.5,0.04-3.75,0.07
			c-0.36,0.01-0.77-0.04-0.81,0.53c-0.04,0.57,0.28,0.77,0.74,0.87c0.99,0.22,1.98,0.42,2.97,0.66c0.31,0.07,0.61,0.2,0.9,0.33
			c2.1,0.95,1.72,3.32,0.52,4.32c-0.82,0.68-1.8,0.96-2.82,1.01c-1.53,0.06-3.07,0.02-4.6,0.02c-0.05,0-0.1-0.03-0.21-0.07
			c0.03-0.47,0.01-0.95,0.09-1.41c0.1-0.6,0.49-0.87,1.22-0.88c1.02-0.02,2.04-0.01,3.05-0.02c0.23,0,0.47,0.02,0.69-0.03
			c0.28-0.05,0.63,0,0.68-0.45c0.04-0.44-0.05-0.81-0.51-0.93c-0.72-0.19-1.46-0.32-2.18-0.49c-0.54-0.13-1.07-0.25-1.59-0.43
			c-0.97-0.33-1.72-0.91-1.79-2.03c-0.07-1.15,0.32-2.17,1.39-2.68c0.75-0.36,1.61-0.61,2.43-0.67
			C57.19,42.05,58.74,42.12,60.4,42.12z"/>
		<path class="st1" d="M87.04,44.42c0,2.66,0,5.19,0,7.77c-0.77,0.07-1.5,0.1-2.22-0.17c-0.42-0.16-0.58-0.51-0.58-0.93
			c-0.02-1.69-0.03-3.39-0.04-5.08c0-0.49,0-0.99,0-1.55c-1,0-1.94,0-2.99,0c0.07-0.61,0.05-1.17,0.22-1.68
			c0.09-0.27,0.49-0.6,0.76-0.6c2.55-0.05,5.1-0.03,7.76-0.03c-0.07,0.55-0.11,1.09-0.22,1.62c-0.09,0.44-0.46,0.62-0.88,0.64
			C88.27,44.44,87.69,44.42,87.04,44.42z"/>
		<path class="st1" d="M111.57,52.23c-1.88,0-3.68,0.02-5.48-0.01c-0.77-0.01-1.09-0.35-1.19-1.1c-0.04-0.35-0.07-0.71-0.07-1.07
			c-0.01-2.43,0-4.85,0-7.28c0-0.19,0-0.39,0-0.69c0.7,0.03,1.36,0.03,2,0.11c0.44,0.05,0.73,0.35,0.78,0.82
			c0.04,0.34,0.09,0.67,0.09,1.01c0.01,1.75,0,3.5,0,5.24c0,0.19,0,0.38,0,0.68c0.87,0,1.68-0.04,2.49,0.01
			c1.1,0.06,1.36,0.39,1.37,1.47C111.58,51.68,111.57,51.92,111.57,52.23z"/>
		<path class="st1" d="M75.8,42.1c0.61,0.05,1.28,0.08,1.94,0.17c0.44,0.06,0.67,0.38,0.73,0.81c0.04,0.26,0.08,0.53,0.08,0.8
			c0.01,2.66,0,5.32,0,7.98c0,0.1-0.02,0.21-0.04,0.43c-0.71-0.06-1.4-0.09-2.07-0.2c-0.53-0.09-0.77-0.54-0.77-1.03
			c-0.01-2.94,0.01-5.89,0.01-8.83C75.7,42.21,75.72,42.19,75.8,42.1z"/>
		<path class="st0" d="M70.26,58.12c0.26,0,0.43,0,0.66,0c0.32,1.52,0.64,3.06,0.96,4.59c0.04,0,0.09,0.01,0.13,0.01
			c0.04-0.14,0.1-0.27,0.13-0.41c0.29-1.28,0.56-2.57,0.86-3.85c0.03-0.14,0.24-0.29,0.4-0.34c0.26-0.08,0.41,0.04,0.47,0.34
			c0.27,1.29,0.56,2.57,0.85,3.85c0.03,0.13,0.08,0.26,0.26,0.4c0.31-1.53,0.62-3.06,0.94-4.6c0.21,0,0.4,0,0.65,0
			c-0.37,1.77-0.74,3.5-1.11,5.24c-0.39,0-0.74,0-1.13,0c-0.29-1.32-0.57-2.63-0.85-3.93c-0.04,0-0.07-0.01-0.11-0.01
			c-0.28,1.3-0.56,2.6-0.84,3.93c-0.35,0-0.7,0-1.13,0C71.03,61.64,70.65,59.91,70.26,58.12z"/>
		<path class="st0" d="M31.08,63.37c-0.38,0-0.72,0-1.12,0c-0.29-1.32-0.59-2.66-0.88-4c-0.03,0-0.06,0.01-0.09,0.01
			c-0.26,1.21-0.52,2.43-0.76,3.64c-0.06,0.3-0.2,0.4-0.47,0.36c-0.28-0.05-0.69,0.21-0.8-0.28c-0.36-1.64-0.71-3.29-1.07-4.95
			c0.44-0.13,0.67-0.09,0.76,0.42c0.23,1.31,0.53,2.61,0.81,3.91c0.02,0.08,0.04,0.15,0.2,0.24c0.34-1.52,0.68-3.04,1.02-4.59
			c0.23,0,0.44,0,0.71,0c0.34,1.51,0.69,3.04,1.04,4.57c0.05,0,0.1,0.01,0.15,0.01c0.1-0.41,0.2-0.82,0.29-1.23
			c0.19-0.96,0.39-1.91,0.55-2.88c0.08-0.45,0.26-0.64,0.77-0.45C31.82,59.88,31.45,61.61,31.08,63.37z"/>
		<path class="st0" d="M52.29,61.02c0.03-0.76-0.19-0.98-0.87-0.93c-0.34,0.02-0.67,0.05-1.01,0.07c-0.05,0-0.1-0.02-0.19-0.04
			c-0.01-0.14-0.02-0.29-0.03-0.53c0.64-0.03,1.24-0.08,1.84-0.07c0.46,0.01,0.8,0.28,0.85,0.74c0.07,0.65,0.07,1.31,0.09,1.97
			c0.01,0.28-0.06,0.57,0.31,0.71c0.07,0.03,0.11,0.28,0.08,0.4c-0.02,0.07-0.27,0.16-0.34,0.12c-0.54-0.31-1.06-0.09-1.59,0
			c-0.81,0.14-1.3-0.19-1.43-0.9c-0.14-0.77,0.23-1.28,1.07-1.41C51.44,61.09,51.85,61.07,52.29,61.02z M52.28,61.56
			c-0.44,0.05-0.83,0.06-1.21,0.13c-0.38,0.07-0.5,0.37-0.45,0.73c0.04,0.36,0.25,0.53,0.61,0.52c0.95-0.02,1.12-0.19,1.08-1.13
			C52.31,61.74,52.29,61.68,52.28,61.56z"/>
		<path class="st0" d="M49.57,62.83c0.13,0.36,0.09,0.55-0.31,0.56c-0.43,0.01-0.85,0.09-1.27,0.08c-0.68-0.01-1.17-0.32-1.27-0.99
			c-0.1-0.65-0.1-1.35,0.04-1.99c0.18-0.83,0.86-1.12,1.86-0.98c0.63,0.09,1.07,0.62,1.13,1.36c0.02,0.26,0,0.53,0,0.86
			c-0.83,0-1.64,0-2.44,0c-0.06,0.87,0.25,1.21,1.05,1.18C48.76,62.91,49.16,62.86,49.57,62.83z M49.08,61.21
			c0.02-0.79-0.24-1.13-0.83-1.15c-0.66-0.02-0.96,0.31-1,1.15C47.86,61.21,48.45,61.21,49.08,61.21z"/>
		<path class="st0" d="M77.2,61.77c0.13,0.96,0.41,1.19,1.26,1.14c0.35-0.02,0.7-0.06,1.05-0.09c0.13,0.33,0.17,0.56-0.27,0.57
			c-0.43,0.01-0.86,0.13-1.27,0.07c-0.35-0.04-0.75-0.18-0.99-0.42c-0.66-0.64-0.57-2.55,0.1-3.18c0.52-0.48,1.14-0.44,1.76-0.27
			c0.71,0.2,0.82,0.83,0.9,1.43c0.09,0.68,0.03,0.73-0.65,0.73C78.47,61.77,77.85,61.77,77.2,61.77z M79.08,61.21
			c0.02-0.79-0.26-1.14-0.87-1.15c-0.66-0.01-0.96,0.34-0.97,1.15C77.83,61.21,78.43,61.21,79.08,61.21z"/>
		<path class="st0" d="M35.35,61.78c-0.89,0-1.69,0-2.48,0c-0.04,0.78,0.28,1.15,1,1.15c0.42,0,0.84-0.06,1.3-0.09
			c0,0.2,0,0.35,0,0.55c-0.53,0.04-1.04,0.1-1.54,0.1c-0.77,0-1.25-0.36-1.32-1.11c-0.06-0.65-0.05-1.35,0.1-1.98
			c0.17-0.72,0.83-0.98,1.78-0.87c0.6,0.07,1.02,0.5,1.11,1.18C35.33,61.04,35.33,61.39,35.35,61.78z M34.72,61.21
			c-0.07-0.91-0.38-1.23-1.07-1.15c-0.55,0.06-0.85,0.51-0.76,1.15C33.49,61.21,34.08,61.21,34.72,61.21z"/>
		<path class="st0" d="M61.07,61.47c0.04-0.26,0.06-0.51,0.11-0.75c0.21-0.95,0.58-1.21,1.69-1.21c0.86,0,1.34,0.35,1.46,1.22
			c0.08,0.57,0.06,1.17-0.03,1.74c-0.13,0.72-0.72,1.04-1.65,1.01c-0.81-0.02-1.28-0.37-1.44-1.08
			C61.14,62.1,61.11,61.78,61.07,61.47z M61.74,61.34c0.02,0.31,0.01,0.49,0.04,0.66c0.11,0.66,0.38,0.91,0.96,0.92
			c0.61,0.01,0.95-0.26,1.01-0.93c0.04-0.44,0-0.89-0.09-1.32c-0.1-0.46-0.47-0.63-0.93-0.62c-0.44,0.01-0.77,0.16-0.87,0.62
			C61.8,60.94,61.76,61.21,61.74,61.34z"/>
		<path class="st0" d="M57.48,58.16c0.49-0.16,0.76-0.03,0.96,0.38c0.29,0.61,0.64,1.19,1.01,1.85c0.35-0.65,0.68-1.25,1.01-1.85
			c0.27-0.5,0.27-0.5,0.94-0.38c-0.39,0.72-0.74,1.43-1.16,2.11c-0.37,0.6-0.54,1.22-0.48,1.92c0.03,0.37,0.01,0.74,0.01,1.16
			c-0.22,0-0.4,0-0.58,0c-0.22-0.91,0.2-1.87-0.33-2.73C58.36,59.83,57.94,59.01,57.48,58.16z"/>
		<path class="st0" d="M67.9,63.3c-0.65,0.07-1.21,0.16-1.77,0.18c-0.74,0.03-1.13-0.29-1.17-1.02c-0.05-0.94-0.01-1.88-0.01-2.86
			c0.15,0,0.33,0,0.57,0c0,0.75,0,1.48,0,2.21c0.01,1.03,0.41,1.31,1.38,1c0.3-0.09,0.42-0.25,0.41-0.58
			c-0.02-0.87-0.01-1.74-0.01-2.64c0.21,0,0.36,0,0.61,0c0,0.62,0,1.24,0,1.85C67.9,62.07,67.9,62.69,67.9,63.3z"/>
		<path class="st0" d="M43.24,63.37c-0.26,0-0.44,0-0.66,0c0-1.54,0-3.06,0-4.66c-0.55,0-1.06,0-1.59,0c0-0.22,0-0.38,0-0.57
			c1.26,0,2.51,0,3.8,0c0,0.17,0,0.33,0,0.56c-0.51,0-1,0-1.55,0C43.24,60.27,43.24,61.79,43.24,63.37z"/>
		<path class="st0" d="M53.76,60.17c-0.38,0.02-0.59-0.1-0.43-0.55c0.14-0.03,0.29-0.07,0.49-0.12c0-0.34,0-0.69,0-1.07
			c0.23,0,0.42,0,0.64,0c0,0.37,0,0.7,0,1.09c0.39,0.02,0.76,0.04,1.16,0.07c0.01,0.17,0.02,0.32,0.04,0.54c-0.4,0-0.76,0-1.17,0
			c0,0.81-0.01,1.55,0,2.29c0.01,0.32,0.22,0.47,0.54,0.45c0.19-0.01,0.39-0.02,0.58-0.03c0.24,0.48,0.04,0.62-0.41,0.64
			c-1.03,0.04-1.36-0.25-1.38-1.28c-0.01-0.64-0.01-1.29-0.01-1.93C53.81,60.26,53.79,60.25,53.76,60.17z"/>
		<path class="st0" d="M82.18,63.37c-0.2,0-0.37,0-0.58,0c0-1.79,0-3.58,0-5.43c0.17-0.01,0.36-0.02,0.58-0.03
			C82.18,59.73,82.18,61.52,82.18,63.37z"/>
		<path class="st0" d="M38.91,63.37c-0.18,0-0.34,0-0.53,0c0-1.8,0-3.59,0-5.43c0.17-0.01,0.33-0.03,0.53-0.04
			C38.91,59.73,38.91,61.52,38.91,63.37z"/>
		<path class="st0" d="M46.57,60.11c-1.31,0.44-1.31,0.44-1.31,1.72c0,0.5,0,0.99,0,1.52c-0.22,0-0.4,0-0.61,0c0-1.25,0-2.47,0-3.71
			c0.33-0.12,0.63-0.22,0.64,0.32c0.38-0.16,0.76-0.32,1.22-0.52C46.53,59.7,46.55,59.89,46.57,60.11z"/>
		<path class="st0" d="M37.53,63.37c-0.19,0-0.34,0-0.53,0c0-1.82,0-3.61,0-5.43c0.18,0,0.33,0,0.53,0
			C37.53,59.73,37.53,61.52,37.53,63.37z"/>
		<path class="st0" d="M80.93,57.94c0,1.8,0,3.58,0,5.42c-0.16,0.01-0.32,0.02-0.53,0.03c0-1.83,0-3.62,0-5.45
			C80.58,57.94,80.74,57.94,80.93,57.94z"/>
		<path class="st0" d="M35.47,59.34c0.08-0.47,0.13-0.95,0.28-1.4c0.05-0.15,0.34-0.21,0.53-0.32c0.05,0.05,0.09,0.09,0.14,0.14
			c-0.12,0.49-0.2,0.99-0.36,1.47c-0.04,0.12-0.3,0.17-0.46,0.25C35.54,59.43,35.5,59.38,35.47,59.34z"/>
	</g>
</g>
<rect class="st2" width="137" height="76"/>
</svg>
