<svg width="231" height="127" viewBox="0 0 231 127" fill="none" xmlns="http://www.w3.org/2000/svg">
<g clip-path="url(#clip0_518_1986)">
<g clip-path="url(#clip1_518_1986)">
<path d="M37.3724 74.3779C37.6578 74.1288 37.9457 73.8797 38.3219 73.5476C38.1688 73.3505 38.0313 73.0962 37.8238 72.925C37.0896 72.3075 37.0896 72.3231 37.72 71.5474C37.8679 71.3632 38.0858 70.9896 38.0287 70.9273C37.8446 70.7301 37.5358 70.5096 37.2998 70.5329C36.1038 70.6445 34.8897 70.7353 33.7274 71.0181C32.2642 71.3735 30.8426 71.9028 29.4053 72.3698C27.9343 72.8497 26.4322 72.8523 24.9146 72.733C22.6601 72.554 20.429 72.5773 18.2758 73.4075C18.1746 73.4465 18.0345 73.3842 17.9152 73.3582C17.884 73.3505 17.8659 73.296 17.7465 73.1273C18.9218 72.4865 20.1125 71.991 21.4486 71.9651C22.5278 71.9443 23.6097 71.9728 24.6889 72.0429C27.3143 72.2141 29.836 71.9054 32.2928 70.8598C33.4628 70.3617 34.7859 70.1983 36.0519 69.957C36.8094 69.8143 37.4736 69.6482 37.7304 68.6753C37.3906 68.6209 37.0663 68.5067 36.7498 68.5275C35.0635 68.639 33.3953 68.8595 31.8336 69.573C29.4572 70.6575 26.9745 70.9973 24.3776 70.7379C22.341 70.5355 20.3279 70.7664 18.3562 71.3294C18.1046 71.4021 17.8192 71.3657 17.5234 71.3813C17.5598 71.1764 17.552 71.0414 17.5935 71.0233C19.0074 70.411 20.4109 69.7416 22.0142 69.8636C24.5125 70.0556 27.0134 70.3695 29.4883 69.682C30.194 69.4874 30.8763 69.2072 31.5819 69.0178C32.9958 68.6364 34.4019 68.1383 35.8444 67.9826C37.0196 67.8555 37.0896 66.7892 37.7667 66.2755C37.816 66.2392 37.6967 65.8656 37.5696 65.7307C36.7861 64.9005 36.7783 64.9109 37.5021 63.9847C37.5773 63.8861 37.6137 63.7563 37.6837 63.6033C37.5747 63.4787 37.4814 63.3309 37.3542 63.2297C36.5682 62.5966 36.5163 62.5551 37.1597 61.891C37.6811 61.3539 37.5825 61.0011 37.0222 60.6716C36.358 60.2798 36.5007 59.818 36.9443 59.4211C37.541 58.8918 37.5488 58.5416 36.7861 58.2017C36.2465 57.9604 36.2854 57.5531 36.6226 57.151C36.838 56.8941 37.0818 56.6606 37.3983 56.3234C36.9781 56.0068 36.6175 55.7344 36.1375 55.3712C36.4255 54.8938 36.7212 54.4009 37.0429 53.8665C36.9521 53.7471 36.8717 53.594 36.7498 53.4825C35.9896 52.7794 35.9585 52.7586 36.5604 51.9829C36.9417 51.49 36.934 51.2305 36.3736 50.8673C35.6109 50.3718 35.4604 48.8489 36.1219 48.247C36.371 48.0213 36.908 48.0187 37.2946 48.0654C37.5514 48.0965 37.7771 48.3897 38.0651 48.6024C38.8252 47.972 39.5983 47.2767 40.457 48.509C40.7138 48.3066 40.9162 48.1639 41.1004 48.0005C41.5803 47.5724 42.0499 47.4998 42.6207 47.876C42.8671 48.0368 43.4275 48.1562 43.5287 48.0342C44.2888 47.108 44.9607 47.6425 45.6638 48.1458C46.4005 47.6036 47.1114 46.7889 47.9805 47.9823C48.271 47.7722 48.4838 47.5205 48.7432 47.4583C49.1194 47.3675 49.6071 47.2689 49.908 47.4323C50.4554 47.7307 50.842 47.7411 51.2934 47.3078C51.7007 46.916 52.1313 46.9342 52.536 47.3675C52.8759 47.7307 53.2106 47.6606 53.5323 47.313C54.0304 46.7785 54.544 46.7578 55.1303 47.2144C55.2964 47.3441 55.7478 47.3934 55.8308 47.2896C56.5728 46.3582 57.2888 46.9446 58.0204 47.3311C58.6793 46.8252 59.3046 46.1611 60.1581 47.0302C60.2567 47.1288 60.7262 46.846 61.0298 46.7604C61.3774 46.6592 61.93 46.392 62.0493 46.5191C62.6486 47.1573 63.0741 47.0328 63.676 46.5139C63.8835 46.3349 64.4361 46.5554 64.8304 46.5969C65.1339 46.6281 65.6061 46.8071 65.7177 46.6748C66.4726 45.7849 67.129 46.1066 67.7905 46.8642C68.5688 45.9717 69.3627 45.637 70.2784 46.654C71.0308 45.7719 71.8272 45.4476 72.6885 46.5139C72.9324 46.3401 73.1581 46.2233 73.3241 46.0495C73.7626 45.5877 74.2114 45.5177 74.6628 45.9872C75.0338 46.3738 75.3321 46.2155 75.6746 45.9561C75.9055 45.7797 76.1597 45.5877 76.4347 45.5177C77.3583 45.2868 77.4828 45.458 77.6877 46.4127C77.9083 47.4271 77.641 48.1562 76.5463 48.6906C76.925 48.9864 77.1715 49.1861 77.4257 49.3755C78.0172 49.814 78.0328 50.0786 77.4906 50.5767C77.0046 51.0213 77.0513 51.4407 77.6307 51.835C78.217 52.232 78.23 52.5459 77.6826 53.0466C77.2329 53.4583 77.2528 53.8604 77.7422 54.253C78.3441 54.733 78.3804 55.0158 77.7241 55.5606C77.1559 56.0354 77.1559 56.3104 77.7785 56.7281C78.5698 57.2574 78.562 57.3845 77.8097 58.0019C77.2727 58.4404 77.379 58.7128 77.8797 59.0916C78.6398 59.6624 78.6502 59.7687 77.955 60.4433C77.4257 60.957 77.4724 61.2398 78.0976 61.616C78.8292 62.057 78.8604 62.2983 78.2222 62.8561C77.6851 63.3257 77.6125 63.5799 78.2559 64.0184C78.9927 64.5191 78.9641 64.7033 78.3726 65.287C77.7215 65.9279 77.7163 65.9356 78.5387 66.5505C79.0212 66.9137 79.0446 67.2614 78.6061 67.6843C77.8823 68.3848 77.8927 68.3926 78.6814 68.9659C79.2236 69.3577 79.221 69.682 78.6788 70.1853C78.0302 70.7846 78.0328 70.8728 78.7203 71.3683C79.4026 71.8613 79.4233 72.0688 78.8474 72.6655C78.3994 73.1308 78.409 73.5182 78.8759 73.8278C79.566 74.287 79.592 74.5154 78.9589 75.0706C78.7696 75.2366 78.5075 75.317 78.4193 75.3637C78.5179 75.7347 78.5179 75.8696 78.5646 75.8878C79.7191 76.3704 79.6957 77.3692 79.6802 78.3732C79.6646 79.4369 78.7592 80.0388 77.7837 79.5952C77.5191 79.4759 77.309 79.2398 77.1118 79.0867C76.6293 79.3306 76.2064 79.6938 75.7628 79.7249C75.3736 79.7535 74.956 79.4058 74.5175 79.2112C73.3864 80.1841 73.28 80.1945 72.0996 79.3695C71.1527 80.1322 70.9841 80.4384 69.6636 79.577C68.4365 80.415 68.3249 80.4202 67.1938 79.6549C66.0082 80.5966 65.8578 80.6044 64.7007 79.8157C64.2519 80.0752 63.8498 80.4695 63.4217 80.5032C63.0222 80.5344 62.5915 80.1815 62.1583 79.9896C61.3048 80.7808 60.9727 80.9858 59.9713 80.1452C59.4161 80.3761 58.8973 80.6978 58.3447 80.7783C58.0593 80.8198 57.7117 80.4358 57.3614 80.2231C57.0112 80.4384 56.6169 80.8327 56.1681 80.908C55.7789 80.9754 55.3301 80.6823 54.8631 80.537C54.4999 80.7082 54.0615 81.061 53.6023 81.0896C53.1872 81.1155 52.7488 80.7912 52.3129 80.6174C51.2311 81.5151 51.0573 81.5254 50.0844 80.7757C49.5811 80.9988 49.1064 81.3179 48.5979 81.3931C48.2892 81.4398 47.9234 81.1077 47.5602 80.9339C47.1788 81.1285 46.7508 81.4969 46.2942 81.5358C45.8921 81.5696 45.4588 81.2297 45.01 81.0429C44.639 81.253 44.2239 81.6344 43.7673 81.6967C43.3419 81.7538 42.8697 81.4684 42.2782 81.2919C42.024 81.4217 41.5933 81.803 41.1471 81.8238C40.7035 81.8446 40.2417 81.5073 39.7695 81.3179C39.5179 81.528 39.2662 81.8394 38.9393 81.9847C38.2389 82.2986 37.7771 82.0703 37.6941 81.2971C37.6163 80.5629 37.2219 80.4073 36.6486 80.5344C35.7691 80.729 34.9026 80.9832 34.0413 81.2427C33.0892 81.528 32.1449 81.842 31.1487 81.9872C32.7675 81.0844 34.4019 80.2412 36.2568 79.9844C37.1493 79.8598 37.9587 79.6419 38.3089 78.4692C37.8212 78.4692 37.3516 78.3758 36.9391 78.4848C35.4422 78.8791 33.9609 79.3435 32.4744 79.7768C31.9685 79.9247 31.4574 80.057 30.8996 80.0181C32.9336 78.9362 34.9623 77.857 37.3957 77.9062C37.4943 77.473 37.5825 77.0708 37.6863 76.6116C37.2349 76.5027 36.8509 76.4093 36.4644 76.3159C36.4644 76.2199 36.4592 76.1239 36.4566 76.0253C37.0377 75.9656 37.6188 75.9086 38.3349 75.8359C37.9483 75.2989 37.2193 75.0706 37.3983 74.3441L37.3724 74.3727V74.3779ZM43.6973 71.9261C43.7129 71.9988 43.731 72.0714 43.7466 72.1467C43.552 72.2634 43.3652 72.4554 43.1603 72.4787C42.26 72.5877 41.3572 72.6889 40.4518 72.72C39.383 72.7563 39.383 72.7252 39.5542 73.929H44.185C43.8996 74.1729 43.7881 74.3519 43.6584 74.3649C42.177 74.5154 40.6905 74.6399 39.2169 74.7696C39.3804 75.5557 39.7955 76.059 40.8384 75.9163C41.6841 75.7996 42.5584 75.8722 43.4197 75.8826C43.6765 75.8852 43.9334 75.9682 44.1876 76.0123C42.5376 76.8996 40.7735 76.5623 38.9834 76.6635C39.383 77.6494 39.8811 78.0697 40.815 78.0022C41.8865 77.9244 43.0487 77.7324 44.0268 78.0438C45.0282 78.3629 45.9569 78.3395 46.9298 78.2902C48.354 78.2176 49.7757 78.106 51.1974 78.0256C54.7308 77.8258 58.2694 77.6546 61.8029 77.4341C66.5842 77.1331 71.3629 76.7932 76.1441 76.4793C76.2765 76.4715 76.4165 76.539 76.5514 76.5727C76.196 76.8581 75.8406 76.9645 75.48 76.9878C74.0583 77.0812 72.6341 77.1331 71.2124 77.2265C67.7672 77.4522 64.3219 77.7039 60.8741 77.9192C58.4614 78.0697 56.0435 78.1657 53.6308 78.3084C49.7939 78.5367 45.9569 78.7832 42.1225 79.0192C41.6037 79.0504 41.0978 79.0945 40.7087 78.6041C40.3403 78.1372 39.933 78.3395 39.6061 78.6794C39.3544 78.9414 39.1573 79.2553 38.8667 79.6393C39.4063 79.7794 39.8422 79.8313 40.2183 80.0077C40.5919 80.1815 40.9084 80.4799 41.2068 80.69C41.7101 80.4747 42.1718 80.1271 42.6414 80.1193C43.0747 80.1115 43.5131 80.4695 43.9956 80.6875C44.2888 80.4098 44.3951 79.712 45.0982 79.9377C45.5807 80.0907 46.0529 80.2749 46.5095 80.4358C46.8156 80.2568 47.1088 79.9455 47.4045 79.9429C47.926 79.9377 48.4552 80.2205 48.9715 80.1945C49.5007 80.1686 50.1856 79.6237 50.5073 79.8131C51.6488 80.4825 52.8188 78.8766 53.8747 79.9584C53.8877 79.974 54.0226 79.8884 54.0874 79.8339C54.8476 79.1697 55.5792 79.3513 56.3419 79.974C57.0605 78.9492 57.9478 79.1879 58.8324 79.7223C59.494 79.0374 60.1633 78.8195 60.9571 79.3825C61.0843 79.4733 61.4059 79.4551 61.5279 79.3539C62.1038 78.8766 62.6875 78.8714 63.3413 79.1671C63.5125 79.245 63.8057 79.2553 63.9458 79.1568C64.5866 78.7079 65.204 78.6716 65.8785 79.0763C66.0108 79.1567 66.3144 79.1282 66.4337 79.027C67.2172 78.3551 67.9436 78.6508 68.6622 79.1697C69.4275 78.285 70.2473 78.3473 71.1346 78.9959C71.9051 77.914 72.7612 78.2798 73.5498 78.8532C74.3333 78.3067 75.1315 78.2262 75.9444 78.6119C76.8662 78.055 77.801 78.1259 78.7488 78.8247C79.0757 78.0593 79.1224 77.2369 78.6658 76.9645C77.5036 76.264 77.6359 75.4208 78.2377 74.4972C77.4491 73.4283 77.4465 73.3842 78.0302 72.0066C77.3816 71.0414 77.3894 71.044 77.7526 69.9258C77.8071 69.7546 77.8149 69.4822 77.7163 69.3655C77.1559 68.6935 77.4361 68.0968 77.6203 67.3522C77.7734 66.7347 77.0496 66.0965 77.2856 65.2014C77.558 64.174 76.8965 63.0481 77.2234 61.9429C77.2311 61.9169 77.1845 61.8676 77.1559 61.8365C76.5696 61.1827 77.0755 60.586 77.1585 59.9322C77.2337 59.3355 76.5385 58.7232 76.8342 57.9916C76.8654 57.9137 76.951 57.8437 76.9562 57.7685C76.9691 57.5427 77.047 57.234 76.9328 57.1017C76.2713 56.3208 76.6111 55.6073 77.047 54.9561C76.5229 54.2738 76.2142 53.6485 76.6967 52.8754C76.7927 52.7249 76.8135 52.3799 76.7149 52.2761C75.9911 51.5263 76.2142 50.7947 76.7408 50.0734C76.0378 49.1498 75.7316 48.3196 76.8654 47.492C77.0911 47.3285 76.9717 46.6903 77.034 46.008C75.9833 46.7292 75.1894 47.326 74.2192 46.5814C74.1439 46.5217 73.9338 46.5295 73.8612 46.5891C73.1789 47.1599 72.4836 47.2637 71.7364 46.7215C70.8051 47.4349 69.661 46.7733 68.7815 47.1028C67.915 47.4297 67.3106 47.2663 66.5582 46.8953C65.9875 47.601 65.3311 47.7359 64.4958 47.3C63.746 46.9109 63.0741 48.221 62.2387 47.5102C62.1739 47.4557 62.096 47.3753 62.0234 47.3753C61.8236 47.3727 61.5512 47.3286 61.4371 47.4375C60.6873 48.1484 59.9505 47.9175 59.1904 47.3882C58.5548 48.0083 57.8985 48.304 57.1046 47.7255C56.9801 47.6347 56.6428 47.6684 56.5209 47.7774C55.7426 48.4649 54.9954 48.1354 54.4558 47.8293C53.7502 48.029 53.0627 48.4623 52.7462 48.2729C51.6177 47.5958 50.4373 49.0927 49.3918 48.0835C49.3684 48.0602 49.2257 48.125 49.1635 48.1795C48.5253 48.7503 47.8767 48.8074 47.1736 48.2807C47.0777 48.2106 46.8001 48.2418 46.7067 48.3326C45.9517 49.046 45.2124 48.7529 44.4159 48.247C43.6091 49.3937 42.6907 48.8722 41.8398 48.4078C40.8462 49.1732 40.8487 49.1628 39.811 48.8567C39.5905 48.7918 39.2558 48.7295 39.1132 48.8437C38.3504 49.4482 37.6189 49.2588 36.7861 48.8255C36.8406 49.2873 36.9314 49.6869 37.1337 50.0164C37.3698 50.4029 37.8809 50.6987 37.9457 51.0878C38.0184 51.5341 37.7304 52.0374 37.5903 52.5433C38.296 53.5837 38.2986 53.6511 37.65 54.995C38.2052 55.5295 38.5891 56.0951 38.0884 56.9123C37.9665 57.1095 38.0002 57.5168 38.1273 57.7295C38.4724 58.3055 38.1896 58.8607 38.2233 59.3848C38.2908 60.4485 38.3349 61.5252 38.4438 62.5785C38.5087 63.2089 38.5943 63.7174 38.4438 64.3686C38.3219 64.8927 38.7396 65.5361 38.8926 66.1354C38.9186 66.2392 38.8122 66.3741 38.7681 66.496C38.4127 67.4482 38.807 68.0527 39.8214 68.0397C40.7242 68.0267 41.627 67.91 42.5299 67.9256C43.2614 67.9385 43.5702 67.6687 43.7544 66.9449C44.3095 64.763 45.6638 63.183 47.7496 62.332C49.934 61.4421 52.2066 60.9777 54.5881 61.2709C55.4728 61.3799 56.3626 61.4395 57.3381 61.5277C57.2395 60.3265 56.7077 59.4315 56.3004 58.5001C55.4027 56.4453 53.4207 55.6825 51.4075 56.684C50.72 57.0239 50.1415 57.5842 49.3373 58.1706C49.3373 57.1899 49.3529 56.3778 49.3321 55.5658C49.3139 54.8964 49.6434 54.6318 50.2764 54.624C50.7512 54.6188 51.2259 54.5903 51.7007 54.5644C54.6322 54.4035 57.5664 54.2816 60.4928 54.0636C62.4359 53.9183 63.5826 54.899 64.3453 56.5128C65.4842 58.9307 66.5842 61.3695 67.7231 63.7875C68.9865 66.4727 69.9697 69.3291 72.3409 71.3398C72.3876 71.3787 72.3694 71.4955 72.398 71.6875C70.0787 71.8224 67.7672 71.9651 65.4556 72.0896C63.7019 72.183 62.3217 71.6122 61.6187 69.8688C61.476 69.5133 61.2633 69.1864 61.0894 68.8414C60.3397 67.3652 59.5951 65.8864 58.7286 64.174C58.49 64.7422 58.3654 65.0458 58.2357 65.3441C57.6909 66.605 57.2551 67.9307 56.5728 69.1112C55.2549 71.3917 53.3584 73.0158 50.7226 73.654C47.734 74.3779 45.1164 73.3972 44.0034 70.7483C43.9567 70.6341 43.8581 70.5433 43.8296 70.507C42.5299 70.5874 41.2898 70.6912 40.0471 70.7353C39.2974 70.7612 39.095 71.1452 39.1261 71.9313H43.6947L43.6973 71.9261ZM68.9813 70.0919C68.8671 69.8921 68.7841 69.7546 68.7063 69.6119C67.5025 67.3807 66.2832 65.1547 65.1132 62.9054C64.9653 62.62 64.9627 62.1582 65.0847 61.8546C65.3986 61.0659 65.287 60.1216 64.558 59.9348C63.4087 59.6416 63.1311 58.7621 62.8328 57.8826C62.5137 56.9382 61.9248 56.4453 60.9442 56.4323C59.9531 56.422 58.9621 56.4271 57.9711 56.4557C57.7973 56.4609 57.6287 56.6165 57.5249 56.671C58.0048 57.4831 58.5159 58.181 58.8583 58.9515C60.0413 61.6289 61.1725 64.3297 62.3088 67.0279C63.4969 69.848 64.5995 70.5693 67.6193 70.4603C67.8787 70.4499 68.1433 70.4681 68.3924 70.411C68.5818 70.3669 68.7478 70.2216 68.9813 70.0919V70.0919ZM53.828 63.2297C53.0912 63.3179 52.3493 63.3386 51.641 63.5099C50.3439 63.8212 49.0467 64.1663 48.0116 65.0899C46.6703 66.2859 46.4135 68.3199 47.4227 69.7806C48.3385 71.1037 50.1182 71.5266 51.6903 70.7197C54.1315 69.4666 55.657 67.4663 56.2874 64.7993C56.5235 63.7953 56.2926 63.528 55.2341 63.3957C54.7646 63.336 54.295 63.2868 53.828 63.2323V63.2297ZM38.5113 69.7339C40.2495 70.2761 41.8735 69.9855 43.6143 69.7209C43.5779 69.2721 43.5442 68.8803 43.5157 68.5197C42.2912 68.6286 41.212 68.857 40.1587 68.7739C39.3856 68.7117 38.9212 68.8414 38.5113 69.7339V69.7339Z" fill="white"/>
<path d="M88.8622 68.0307H85.5078C87.2823 66.9956 87.6196 65.3846 88.1903 63.9447C89.9856 59.4203 91.7056 54.8647 93.4671 50.3247C93.602 49.9744 93.8303 49.6579 94.1546 49.0742C94.4711 49.6527 94.7228 50.0211 94.8888 50.4233C96.9097 55.3187 98.9151 60.2193 100.928 65.1173C101.058 65.4364 101.201 65.7529 101.364 66.0539C101.847 66.9437 102.433 67.7168 103.582 67.8725C102.194 68.3576 100.819 68.0567 99.6441 68.0852C99.0267 66.4508 98.4715 64.9798 97.9137 63.5115C97.867 63.3921 97.7633 63.2936 97.7295 63.1716C97.1277 61.104 97.068 61.3556 95.0963 61.3426C93.8433 61.3349 92.5928 61.366 91.3398 61.3452C90.7768 61.3349 90.4863 61.5658 90.3021 62.095C89.8507 63.3921 89.2799 64.653 88.8934 65.9709C88.717 66.5702 88.8622 67.2628 88.8622 68.0307V68.0307ZM93.698 53.0409C92.598 55.4536 91.8586 57.8144 91.0985 60.4035C92.6733 60.4035 94.0015 60.4139 95.3298 60.4009C96.4194 60.3905 96.5258 60.2401 96.1548 59.1816C95.514 57.3526 94.8525 55.5314 94.1831 53.7128C94.1131 53.526 93.9445 53.3756 93.6954 53.0409H93.698Z" fill="white"/>
<path d="M188.047 68.1001H184.444C183.694 66.1621 182.991 64.328 182.27 62.499C181.808 61.3264 181.795 61.329 180.581 61.3264C179.198 61.3264 177.813 61.3757 176.432 61.316C175.581 61.2797 175.169 61.6559 174.915 62.4004C174.526 63.5419 174.015 64.6497 173.711 65.8119C173.54 66.4735 173.68 67.218 173.68 68.0093H170.479C171.54 67.2621 172.017 66.2659 172.44 65.1633C174.36 60.1667 176.336 55.1935 178.303 50.215C178.407 49.9504 178.586 49.7143 178.863 49.2344C179.18 49.7091 179.455 50.0049 179.6 50.3525C181.05 53.8522 182.477 57.3649 183.914 60.8698C184.519 62.3459 185.116 63.8247 185.756 65.2853C186.244 66.3982 186.841 67.4411 188.146 67.8458C188.112 67.9315 188.081 68.0171 188.047 68.1027V68.1001ZM178.632 53.1621C178.516 53.1777 178.399 53.1933 178.285 53.2114C177.53 55.3102 176.77 57.409 176.02 59.513C175.792 60.1564 176.131 60.3898 176.72 60.395C177.885 60.4002 179.05 60.4236 180.215 60.395C181.118 60.3717 181.284 60.1486 180.978 59.2561C180.456 57.7514 179.87 56.2701 179.302 54.7836C179.094 54.2388 178.858 53.7043 178.632 53.1673V53.1621Z" fill="white"/>
<path d="M113.625 52.3626C113.256 51.2471 113.749 50.5259 113.944 49.7813C113.988 49.6101 114.429 49.4388 114.688 49.4414C119.558 49.47 124.427 49.5245 129.294 49.5763C129.333 49.5763 129.372 49.6101 129.491 49.662C129.761 50.4947 129.536 51.3508 129.341 52.2926C128.975 50.9176 127.896 50.7931 126.809 50.71C125.862 50.6374 124.915 50.57 123.968 50.544C122.998 50.5181 122.764 50.7464 122.762 51.7633C122.751 56.1243 122.757 60.4853 122.77 64.8464C122.77 65.3185 122.876 65.7881 122.912 66.2602C122.967 66.94 122.964 67.643 123.776 68.0296H119.724C119.955 67.3602 120.362 66.722 120.373 66.0735C120.448 61.2377 120.44 56.4019 120.471 51.5662C120.476 50.8839 120.261 50.4973 119.509 50.5414C118.261 50.6141 117.008 50.6348 115.76 50.7334C114.834 50.806 114.027 51.1485 113.625 52.36V52.3626Z" fill="white"/>
<path d="M202.486 64.4243C202.549 64.5722 202.634 64.7149 202.673 64.8705C203.065 66.4556 204.235 67.4882 205.846 67.5842C206.531 67.6257 207.231 67.6075 207.911 67.5141C210.129 67.208 211.377 65.1144 210.376 62.8548C209.781 61.5161 208.585 60.7923 207.514 59.9336C206.341 58.9919 205.104 58.1098 204.04 57.0539C201.443 54.4752 202.567 50.4929 206.103 49.5331C207.82 49.0661 209.527 49.2425 211.237 49.5901C211.795 49.7043 212.041 49.9922 212.002 50.5811C211.961 51.2116 211.992 51.8472 211.992 52.5476C211.771 52.4413 211.649 52.4205 211.634 52.3686C211.312 51.2972 210.656 50.5189 209.551 50.2984C208.227 50.0337 206.868 49.9455 205.628 50.6304C204.383 51.3205 204.022 52.9056 204.725 54.2547C205.457 55.6608 206.749 56.4624 207.999 57.3082C209.434 58.2758 210.835 59.2798 211.834 60.73C213.507 63.1635 212.648 66.8785 209.372 68.0459C207.465 68.7257 205.439 68.5596 203.47 68.2094C202.362 68.0122 202.141 67.636 202.126 66.4972C202.115 65.82 202.126 65.1429 202.126 64.4684C202.248 64.4554 202.37 64.4399 202.491 64.4269L202.486 64.4243Z" fill="white"/>
<path d="M145.789 68.1092C146.811 67.004 146.762 65.8729 146.775 64.8326C146.829 60.4664 146.79 56.1002 146.785 51.734C146.785 50.7871 146.567 49.9932 145.431 49.752H150.344C149.262 50.0711 149.003 50.8908 149.013 51.9052C149.057 56.2273 149.086 60.5468 149.133 64.8689C149.138 65.2555 149.198 65.6446 149.265 66.026C149.369 66.5889 149.696 66.9418 150.274 67.0689C151.948 67.4373 153.629 67.471 155.284 67.0585C155.683 66.9599 156.039 66.537 156.332 66.1946C156.573 65.9144 156.698 65.5305 156.996 64.9519C157.227 66.0934 157.071 66.9651 156.643 67.7071C156.472 68.0054 155.826 68.1507 155.395 68.1559C153.278 68.1818 151.159 68.1325 149.042 68.1144C148.059 68.1066 147.073 68.1144 145.789 68.1144V68.1092Z" fill="white"/>
<path d="M37.3998 74.3469C35.5734 74.6348 33.7912 75.0292 32.0659 75.7556C29.8478 76.6895 27.4689 76.91 25.0847 76.6765C22.9444 76.4664 20.8742 76.6791 18.8325 77.3147C18.7131 77.3511 18.586 77.3614 18.4615 77.3692C18.4355 77.3692 18.4044 77.3096 18.0879 77.0034C18.2877 76.9412 18.4952 76.8919 18.6898 76.8166C20.2723 76.2018 21.8937 75.7634 23.606 75.9605C27.0123 76.3497 30.294 76.0046 33.4643 74.5985C34.3515 74.2042 35.3711 74.0874 36.3439 73.9136C36.7279 73.8436 37.2493 73.7424 37.3765 74.3728L37.4024 74.3443L37.3998 74.3469Z" fill="white"/>
<path d="M17.9517 75.1687C19.8273 74.2789 21.5474 73.7626 23.4619 73.9702C26.9046 74.3464 30.246 74.0324 33.4318 72.4888C34.2853 72.0763 35.2945 71.8455 36.3193 72.0556C36.2804 72.1931 36.2778 72.3202 36.2363 72.3332C33.8547 73.0648 31.4861 73.8508 29.0786 74.4839C28.098 74.7407 27.0213 74.8004 26.0069 74.7225C23.449 74.5228 20.9273 74.5695 18.4472 75.2907C18.3797 75.3114 18.2889 75.2544 17.9517 75.1687V75.1687Z" fill="white"/>
<path d="M121.6 78.3733C122.562 78.35 121.862 76.7752 123.258 77.1073C123.006 77.538 122.816 77.883 122.604 78.2151C122.059 79.0634 122.09 79.1646 123.068 79.5745C123.177 79.6212 123.27 79.7016 123.662 79.9533C123.055 80.0155 122.617 80.2023 122.388 80.0596C121.698 79.629 121.117 79.8832 120.466 80.1011C119.875 80.2983 119.231 80.2749 118.863 79.6627C118.5 79.0556 118.684 78.4278 119.234 78.0646C119.794 77.6962 119.908 77.2318 119.916 76.6403C119.919 76.3498 119.984 76.0333 120.111 75.7738C120.378 75.2239 121.167 75.0371 121.667 75.3588C122.137 75.6623 122.207 76.233 121.675 76.7986C121.096 77.4108 121.154 77.8726 121.6 78.3759V78.3733ZM120.253 77.979C119.576 78.2929 119.397 78.7625 119.747 79.3436C119.976 79.7224 120.456 79.8287 120.744 79.4837C121.322 78.791 120.619 78.4486 120.253 77.979V77.979ZM121.636 76.1448C121.369 75.8906 121.208 75.7375 121.047 75.5845C120.912 75.8205 120.72 76.0462 120.671 76.2979C120.648 76.4198 120.892 76.5962 121.013 76.7467C121.198 76.5703 121.382 76.3913 121.636 76.1448Z" fill="white"/>
<path d="M18.2822 79.1936C18.5494 79.0302 18.7985 78.833 19.0813 78.7085C20.573 78.0469 22.1451 77.8627 23.7614 77.9354C25.0092 77.9899 26.2778 78.2052 27.5024 78.0599C29.2016 77.8602 30.8697 77.3932 32.5483 77.03C32.9426 76.9444 33.3291 76.8069 33.7183 76.6953C33.7546 76.7913 33.7935 76.8899 33.8298 76.9859C33.2721 77.2635 32.735 77.5955 32.1539 77.8135C30.024 78.6125 27.8085 78.9835 25.5514 78.6851C23.3152 78.3894 21.1775 78.6981 19.0501 79.3259C18.8556 79.383 18.661 79.4349 18.4638 79.4894C18.4042 79.3908 18.3419 79.2948 18.2822 79.1962V79.1936Z" fill="white"/>
<path d="M107.975 79.9438C107.088 80.3589 106.859 79.6636 106.504 79.22C106.172 78.8023 105.858 78.3691 105.534 77.941C105.419 77.9721 105.305 78.0059 105.191 78.037C105.147 78.6804 105.106 79.3212 105.056 80.045H104.226V75.3545C105.085 75.108 105.923 75.3597 106.727 75.5465C107.342 75.6891 107.695 76.5764 107.272 77.02C106.309 78.0318 106.986 78.7089 107.565 79.4561C107.687 79.6143 107.822 79.7648 107.972 79.9438H107.975ZM105.222 77.5052C105.336 77.5544 105.451 77.6011 105.565 77.6504C105.848 77.3728 106.208 77.1368 106.382 76.8021C106.481 76.6127 106.348 76.2054 106.185 76.0082C106.055 75.85 105.645 75.741 105.495 75.8318C105.29 75.9538 105.131 76.2806 105.098 76.5375C105.059 76.8488 105.173 77.1809 105.22 77.5052H105.222Z" fill="white"/>
<path d="M207.116 80.024C207.116 78.6853 207.114 77.4427 207.116 76.2026C207.116 75.3646 207.249 75.2479 208.094 75.3024C208.437 75.3257 208.779 75.3724 209.122 75.3906C210.582 75.4632 211.345 76.2285 211.384 77.6684C211.42 78.9915 210.551 79.9254 209.179 80.0292C208.621 80.0707 208.061 80.1018 207.5 80.12C207.378 80.1252 207.256 80.0603 207.114 80.024H207.116ZM207.895 77.8033C207.895 77.8033 207.902 77.8033 207.905 77.8033C207.905 78.1483 207.884 78.496 207.91 78.8384C207.975 79.736 208.668 80.0837 209.436 79.6193C210.577 78.9318 210.865 77.1781 209.882 76.2493C209.542 75.9276 208.87 75.8109 208.367 75.842C207.799 75.8783 207.931 76.4828 207.9 76.8953C207.879 77.1962 207.895 77.4997 207.895 77.8007V77.8033Z" fill="white"/>
<path d="M138.732 80.035C137.217 80.105 137.233 78.4343 136.063 77.9985V79.9053C134.991 80.1076 135.033 80.1076 135.056 79.3086C135.093 78.0685 135.067 76.8258 135.067 75.5157C135.819 75.1733 136.634 75.3393 137.402 75.5157C138.125 75.6844 138.54 76.5171 138.084 77.0126C137.095 78.0841 137.786 78.7638 138.431 79.5239C138.53 79.6407 138.59 79.7885 138.732 80.035ZM136.102 77.6041C137.171 77.2072 137.521 76.7869 137.215 76.2785C137.08 76.0553 136.592 75.8037 136.413 75.8867C135.624 76.2551 135.931 76.9089 136.099 77.6041H136.102Z" fill="white"/>
<path d="M92.9013 75.3938C94.5695 74.9346 96.0767 76.4004 95.6435 78.1411C95.3062 79.4928 94.6525 80.2814 92.9558 80.1128C91.7676 79.9961 91.0205 79.1996 90.9219 77.8791C90.8207 76.556 91.5497 75.648 92.9325 75.373C92.7561 75.5572 92.5693 75.7336 92.4058 75.9308C91.708 76.761 91.6146 78.3124 92.2035 79.1841C92.7535 79.9987 93.7756 80.035 94.3515 79.2593C95.4256 77.8117 94.668 75.7933 92.9013 75.3964V75.3938Z" fill="white"/>
<path d="M97.6411 75.2977H98.6036C98.6036 76.2135 98.5958 77.0619 98.6036 77.9076C98.6218 79.6977 99.0472 80.0168 100.817 79.5809C101.491 78.2786 101.224 76.8699 101.156 75.1836C101.465 75.5546 101.67 75.6843 101.673 75.8218C101.693 76.7246 101.722 77.6326 101.649 78.5302C101.556 79.6847 100.962 80.1569 99.7684 80.162C98.5361 80.1672 98.038 79.7573 97.8902 78.5536C97.8279 78.0425 97.872 77.5211 97.8357 77.0074C97.7994 76.5015 97.7215 75.9982 97.6411 75.3003V75.2977Z" fill="white"/>
<path d="M143.153 75.3605C143.812 76.8886 144.471 78.4166 145.153 79.9914C144.533 80.1781 144.095 80.2197 143.978 79.444C143.869 78.7124 143.361 78.4426 142.663 78.5178C142.037 78.5853 141.591 78.8369 141.669 79.5866C141.742 80.2871 141.282 80.0562 140.748 80.0562C141.487 78.3985 142.172 76.86 142.857 75.3242C142.956 75.3372 143.054 75.3476 143.153 75.3605V75.3605ZM142.738 76.8263C142.587 77.2518 142.416 77.5112 142.437 77.7525C142.45 77.9029 142.756 78.0275 142.93 78.1624C143.023 77.9133 143.174 77.6669 143.189 77.4126C143.197 77.2777 142.979 77.1273 142.738 76.8263V76.8263Z" fill="white"/>
<path d="M173.127 75.2246C173.76 75.2921 174.354 75.331 174.935 75.4244C175.799 75.5619 176.255 76.0807 176.178 76.7786C176.094 77.5283 175.615 77.8682 174.732 77.8708C174.904 77.4479 175.199 77.0043 175.223 76.5477C175.236 76.3142 174.764 76.0548 174.509 75.8057C174.325 76.0522 173.996 76.2909 173.98 76.5477C173.92 77.6503 173.954 78.7554 173.954 80.0111C173.783 80.0267 173.435 80.0604 173.124 80.0889V75.2272L173.127 75.2246Z" fill="white"/>
<path d="M113.007 76.5551C112.452 76.1037 112.19 75.7691 111.855 75.6627C111.606 75.5823 111.129 75.7068 110.996 75.904C110.869 76.0934 110.95 76.6018 111.129 76.7782C111.554 77.1933 112.078 77.5176 112.587 77.8393C113.152 78.1947 113.287 78.6877 113.116 79.2869C112.932 79.9355 112.441 80.1327 111.816 80.0964C111.557 80.0808 111.297 80.0886 111.04 80.0704C110.399 80.0289 110.086 79.5784 110.101 78.7188C110.384 79.0794 110.56 79.3855 110.812 79.6008C111.206 79.9381 111.948 79.8681 112.231 79.523C112.558 79.1261 112.41 78.6643 111.808 78.2622C111.414 77.9976 111.009 77.7537 110.607 77.5021C110.091 77.1804 109.909 76.6382 110.119 76.1582C110.28 75.7872 110.734 75.3799 111.116 75.3099C111.624 75.2165 112.205 75.3851 112.716 75.5563C112.862 75.6056 112.869 76.0544 113.004 76.5551H113.007Z" fill="white"/>
<path d="M180.363 78.7822C181.105 77.7315 181.486 76.8469 181.657 75.8532C181.691 75.6639 182.01 75.5264 182.197 75.3629C182.218 75.5705 182.321 75.8143 182.249 75.983C181.691 77.3294 181.1 78.6629 180.433 80.1961C179.317 78.6058 178.9 76.9454 178.126 75.4382C179.276 75.1268 179.2 75.145 179.395 75.9674C179.608 76.8572 179.984 77.7082 180.36 78.7822H180.363Z" fill="white"/>
<path d="M153.057 80.0697V75.304C154.107 75.2469 155.171 75.0861 156.149 75.6205C156.131 75.7269 156.115 75.8306 156.097 75.937C155.768 75.8306 155.446 75.6776 155.109 75.6231C154.185 75.4726 153.838 75.8203 153.874 76.7464C153.897 77.3353 153.902 77.9268 153.869 78.5131C153.804 79.6442 154.216 80.0282 155.319 79.7506C155.638 79.6702 155.923 79.4471 156.219 79.2914C156.222 79.9789 156.224 80.0308 155.729 80.0567C154.875 80.0982 154.017 80.0697 153.057 80.0697V80.0697Z" fill="white"/>
<path d="M203.39 80.0571H202.591C202.591 79.0583 202.601 78.0907 202.591 77.123C202.572 75.7221 202.295 75.5534 201.039 76.1735C200.834 75.7143 200.985 75.3693 201.454 75.3303C202.388 75.2577 203.327 75.2785 204.267 75.2525C204.853 75.2369 205.014 75.5483 204.915 76.1942C204.746 76.0983 204.627 76.0178 204.5 75.9582C203.618 75.5353 203.431 75.6209 203.403 76.573C203.369 77.6834 203.395 78.7937 203.395 80.0571H203.39Z" fill="white"/>
<path d="M165.79 75.3931C165.464 75.6889 165.137 75.9872 164.81 76.283C165.124 76.6021 165.414 76.9471 165.754 77.2377C166.112 77.5412 166.626 77.7202 166.867 78.086C167.093 78.4284 167.202 78.9914 167.085 79.3728C166.992 79.6789 166.509 79.9539 166.146 80.0629C165.752 80.1796 165.295 80.0784 164.864 80.0888C164.094 80.1044 163.871 79.7308 164.107 78.9369C164.415 79.1964 164.659 79.4869 164.971 79.6426C165.458 79.8864 166.008 79.9513 166.335 79.3857C166.657 78.828 166.244 78.5348 165.816 78.265C165.347 77.9693 164.864 77.6787 164.452 77.3129C163.985 76.903 163.837 76.3374 164.244 75.816C164.62 75.336 165.095 74.9002 165.77 75.4165L165.79 75.3931V75.3931Z" fill="white"/>
<path d="M184.402 75.6414C185.562 75.0084 186.826 75.2522 188.058 75.3742C188.193 75.3871 188.286 75.8178 188.226 76.1914C188.097 76.1265 187.967 76.0591 187.837 75.9968C187.069 75.6284 186.802 75.74 186.768 76.552C186.722 77.6597 186.756 78.7727 186.756 79.9038C185.855 80.1451 185.855 80.1399 185.884 79.3123C185.912 78.4977 185.956 77.6831 185.944 76.8685C185.928 75.8541 185.85 75.81 184.799 75.893C184.683 75.9034 184.566 75.906 184.449 75.9112C184.434 75.823 184.418 75.7322 184.4 75.644L184.402 75.6414Z" fill="white"/>
<path d="M128.916 75.8933C129.09 75.6909 129.264 75.3122 129.44 75.3096C130.532 75.2992 131.625 75.3744 132.719 75.4211C132.73 75.5171 132.74 75.6131 132.751 75.7065C132.335 75.7869 131.92 75.8673 131.427 75.9633V79.9352C130.486 80.2102 130.501 80.2102 130.548 79.214C130.582 78.5265 130.577 77.8364 130.569 77.1463C130.551 75.761 130.403 75.6572 128.914 75.8907L128.916 75.8933Z" fill="white"/>
<path d="M158.618 75.209C158.976 75.2297 159.334 75.2505 159.64 75.2687C159.599 76.3583 159.539 77.3285 159.529 78.3014C159.524 78.7943 159.371 79.4091 159.978 79.6634C160.569 79.9124 161.163 79.7801 161.666 79.3676C161.796 79.2613 161.887 79.1108 162.105 78.8462C162.087 79.7931 161.804 80.1848 160.956 80.1174C160.159 80.0551 159.355 80.1044 158.621 80.1044V75.209H158.618Z" fill="white"/>
<path d="M20.029 80.7284C21.1549 79.9864 22.2393 79.9968 23.303 79.9942C25.5626 79.989 27.8118 80.539 30.1104 80.1576C29.3477 80.4352 28.6187 80.8321 27.8093 80.7465C25.3966 80.4975 22.9968 80.4637 20.6023 80.9022C20.4959 80.9229 20.3714 80.8373 20.0264 80.7284H20.029Z" fill="white"/>
<path d="M86.9761 75.1719C87.757 75.2912 88.5404 75.3898 89.3135 75.5481C89.4095 75.5688 89.4458 75.8879 89.5418 76.1577C89.1631 76.0254 88.9088 75.8957 88.639 75.8464C88.1202 75.753 87.8011 75.9709 87.7985 76.5261C87.7907 77.6676 87.7985 78.8065 87.7985 80.0414C87.6636 80.0492 87.386 80.0621 86.9813 80.0803V75.1745L86.9761 75.1719Z" fill="white"/>
<path d="M196.478 80.1173C196.478 78.5555 196.471 77.1857 196.481 75.816C196.486 75.1596 196.912 75.1829 197.42 75.3023C197.42 76.3737 197.418 77.4348 197.42 78.4985C197.425 79.7645 197.628 79.9253 198.868 79.6503C199.109 79.5958 199.345 79.518 199.615 79.4428C199.49 79.8907 199.062 80.1147 198.331 80.1147C197.744 80.1147 197.158 80.1147 196.478 80.1147V80.1173Z" fill="white"/>
<path d="M149.462 77.9984C149.244 78.6704 149.026 79.3449 148.806 80.0168L148.463 80.0376C147.781 78.5562 147.101 77.0749 146.38 75.5105C146.751 75.3808 147.018 75.2848 147.288 75.1914C147.7 76.3095 148.092 77.3732 148.518 78.5251C148.917 78.3149 149.202 78.1645 149.488 78.0166L149.464 77.9958L149.462 77.9984Z" fill="white"/>
<path d="M21.7339 82.4286C22.8494 81.8786 24.0013 82.0446 25.1532 82.2548C24.0298 82.6569 22.8883 82.6621 21.7339 82.4286Z" fill="white"/>
<path d="M149.485 78.0187C149.609 77.217 149.708 76.4102 149.879 75.6163C149.913 75.4555 150.224 75.3543 150.408 75.2246C150.468 75.4296 150.634 75.6812 150.567 75.8291C150.232 76.5685 149.835 77.2793 149.459 77.9979L149.482 78.0187H149.485Z" fill="white"/>
<path d="M155.812 78.1761C155.348 78.0023 154.977 77.8622 154.458 77.665C154.966 77.4419 155.332 77.2785 155.812 77.0684V78.1761Z" fill="white"/>
<path d="M165.767 75.4101C166.535 75.4671 166.909 75.8736 166.888 76.6294C166.473 76.1598 166.13 75.7733 165.788 75.3867L165.767 75.4101Z" fill="white"/>
<path d="M35.8398 76.4884C35.4325 76.5688 35.0252 76.6519 34.6205 76.7323L34.5557 76.3613C34.9656 76.3016 35.3781 76.2394 35.788 76.1797C35.8061 76.2835 35.8243 76.3846 35.8424 76.4884H35.8398Z" fill="white"/>
<path d="M19.5949 81.2064C19.2966 81.2816 19.0008 81.3594 18.7025 81.4347C18.6765 81.3594 18.648 81.2842 18.6221 81.209C18.9048 81.0922 19.1876 80.9781 19.4704 80.8613C19.5119 80.9755 19.556 81.0922 19.5975 81.2064H19.5949Z" fill="white"/>
<path d="M86.3697 75.4492C86.1699 75.636 86.0713 75.8046 85.9546 75.815C85.8353 75.828 85.7004 75.6853 85.5732 75.6126C85.6589 75.4907 85.7211 75.2987 85.8353 75.2624C85.9468 75.2261 86.1103 75.348 86.3697 75.4492V75.4492Z" fill="white"/>
<path d="M74.9247 50.5235C74.7898 48.8528 74.7872 48.8268 73.119 48.928C67.9123 49.2419 62.7081 49.5844 57.504 49.8983C52.554 50.1992 47.6041 50.4768 42.6516 50.7674C41.5931 50.8296 40.5347 50.9075 39.4762 50.9775C39.458 50.8945 39.4425 50.8115 39.4243 50.7285C39.5955 50.6558 39.7616 50.5313 39.938 50.5183C44.1563 50.2485 48.3772 49.9839 52.5981 49.7348C57.7634 49.4287 62.9286 49.1485 68.0913 48.8398C69.8528 48.7334 71.6143 48.5752 73.3759 48.4507C74.852 48.3469 74.9169 48.4092 74.9247 49.8775C74.9247 50.0929 74.9247 50.3082 74.9247 50.5235Z" fill="white"/>
<path d="M66.5844 54.0781V54.9835L66.3457 55.0147C66.3042 54.7059 66.2627 54.3946 66.2212 54.0859C66.3431 54.0833 66.4625 54.0807 66.5844 54.0781V54.0781Z" fill="white"/>
<path d="M39.8609 61.9004V63.0004C39.8609 63.0004 39.848 63.0004 39.8428 63.0004V61.9004C39.8428 61.9004 39.8557 61.9004 39.8609 61.9004Z" fill="white"/>
</g>
</g>
<defs>
<clipPath id="clip0_518_1986">
<rect width="231" height="127" fill="white"/>
</clipPath>
<clipPath id="clip1_518_1986">
<rect width="195.35" height="37.3595" fill="white" transform="translate(17.4053 45.3105)"/>
</clipPath>
</defs>
</svg>
