<?xml version="1.0" encoding="utf-8"?>
<!-- Generator: Adobe Illustrator 27.4.0, SVG Export Plug-In . SVG Version: 6.00 Build 0)  -->
<svg version="1.1" id="Layer_1" xmlns="http://www.w3.org/2000/svg" xmlns:xlink="http://www.w3.org/1999/xlink" x="0px" y="0px"
	 viewBox="0 0 50 45" style="enable-background:new 0 0 50 45;" xml:space="preserve">
<style type="text/css">
	.st0{fill:#FFFFFF;}
</style>
<g>
	<g>
		<path class="st0" d="M4.5,27.2c-0.1,0.5-0.2,0.9-0.2,1.4c0,0.2-0.1,0.4-0.1,0.7v6.4c0.1,0.2,0.1,0.3,0.2,0.5
			c0.1,0.4,0.2,0.7,0.4,1c0.6,0.9,1.5,1.4,2.7,1.5c0.2,0,0.3,0,0.5,0c0.1,0,0.2,0,0.3,0h0.1l0,0.1c0,0.1,0.1,0.2,0.1,0.3
			c0.1,0.2,0.1,0.4,0.2,0.6c0.6,1.7,1.9,2.7,3.6,3.1c0.1,0,0.1,0,0.2,0.1l0.1,0h1.1c0.2-0.1,0.4-0.1,0.6-0.2
			c0.5-0.2,0.9-0.3,1.4-0.6c1.1-0.6,1.8-1.6,2.1-3c0-0.1,0-0.1,0.1-0.2l0.1-0.2h14.3l0.1,0.3c0,0.1,0.1,0.2,0.1,0.4
			c0.6,1.9,1.9,3.1,3.8,3.5c0.1,0,0.1,0,0.2,0.1l0,0h1.1l0.2,0c0.1,0,0.2-0.1,0.3-0.1c1.9-0.5,3.1-1.7,3.6-3.6
			c0-0.1,0.1-0.2,0.1-0.3l0-0.1l0.1,0c0.1,0,0.3,0,0.4,0c0.3,0,0.5,0,0.8-0.1c1.5-0.2,2.5-1.2,2.9-2.7c0-0.1,0-0.1,0.1-0.2l0,0V34
			c0-0.2-0.1-0.4-0.1-0.6c-0.1-0.5-0.1-0.9-0.2-1.4c-0.9-5.4-3.5-9.9-7.6-13.3c-3.4-2.8-7.4-4.4-11.7-4.8c-1.4-0.1-2.9-0.1-4.3-0.1
			c-0.5,0-1,0-1.5,0c-1.5,0-2.9,0.2-4.3,0.7C9.9,16.4,5.9,20.7,4.5,27.2z M8.3,37.5L8.3,37.5c-0.3,0-0.5,0.1-0.6,0.1
			c-1.1,0-1.9-0.5-2.2-1.4l-0.1-0.2h3.4L8.3,37.5z M13.1,41.7C13.1,41.7,13.1,41.7,13.1,41.7c-1,0-1.9-0.4-2.5-1.1
			c-0.7-0.7-1.1-1.6-1.1-2.6c0-2,1.6-3.6,3.6-3.6c0,0,0,0,0,0c1,0,1.9,0.4,2.6,1.1c0.7,0.7,1.1,1.6,1.1,2.5
			C16.7,40.1,15.1,41.7,13.1,41.7z M32.1,37.5H17.9l-0.5-1.6h15.2L32.1,37.5z M36.9,41.7C36.9,41.7,36.9,41.7,36.9,41.7
			c-1,0-1.9-0.4-2.5-1.1c-0.7-0.7-1.1-1.6-1.1-2.6c0-2,1.6-3.6,3.6-3.6c0,0,0,0,0,0c1,0,1.9,0.4,2.6,1.1c0.7,0.7,1.1,1.6,1.1,2.5
			C40.5,40.1,38.9,41.7,36.9,41.7z M44.5,36.1c-0.3,0.9-1.1,1.5-2.3,1.5c-0.2,0-0.3,0-0.5,0l-0.1,0l-0.5-1.6h3.4L44.5,36.1z
			 M21.4,14.9l0.1,0c4.2-0.2,7.5,0.2,10.5,1.5c3.4,1.4,7.5,4.6,8.7,6.9l0.1,0.2H21.4V14.9z M41.2,24.6
			C41.2,24.6,41.2,24.6,41.2,24.6c0.4,0,0.6,0.1,0.8,0.5c1.6,2.9,2.5,6,2.7,9.2c0,0,0,0.1,0,0.1l0,0.2l-0.2,0c-0.1,0-0.2,0-0.2,0
			l-0.5,0c-0.4,0-0.8,0-1.2,0c-0.6,0-1.2,0-1.8,0c-0.2,0-0.4-0.1-0.6-0.2c-1.9-1.6-4.4-1.6-6.3,0c-0.2,0.1-0.4,0.2-0.6,0.2
			c-5.4,0-10.9,0-16.3,0c-0.2,0-0.4-0.1-0.6-0.2c-1.9-1.6-4.4-1.6-6.3,0c-0.1,0.1-0.3,0.2-0.5,0.2c-1.1,0-2.3,0-3.4,0l-0.5,0
			c-0.1,0-0.1,0-0.1,0c0,0,0,0-0.1,0l-0.1,0l0-0.8c0-0.5,0-0.9,0-1.4l0-0.4c0-1.7,0-3.4,0.4-5.1C5.8,26.6,5.9,26.3,6,26
			c0.1-0.3,0.2-0.6,0.2-0.8c0.1-0.4,0.4-0.5,0.7-0.5c1.6,0,3.2,0,4.8,0l5.5,0C25.2,24.7,33.2,24.7,41.2,24.6z M20.1,14.9l0.1,0v8.6
			H7l0.1-0.2C9.3,18.5,14.6,15.1,20.1,14.9z"/>
		<path class="st0" d="M27.1,32.4C27.1,32.4,27.1,32.4,27.1,32.4c0.2,0,0.4-0.1,0.6-0.3c0.6-0.6,1.3-1.2,1.9-1.9
			c0.4-0.4,0.4-0.6,0-1c-0.6-0.6-1.2-1.3-1.9-1.9c-0.2-0.2-0.4-0.3-0.5-0.3c-0.1,0-0.3,0.1-0.4,0.2c-0.1,0.1-0.2,0.2-0.2,0.4
			c0,0.2,0.1,0.4,0.3,0.6c0.3,0.3,0.7,0.7,1.1,1l0.5,0.5l-0.6,0.6c-0.4,0.4-0.7,0.7-1.1,1c-0.2,0.2-0.4,0.6-0.1,0.9
			C26.8,32.3,26.9,32.4,27.1,32.4z"/>
		<path class="st0" d="M23.7,26.9c-0.2,0.9-0.4,1.7-0.7,2.6l-0.3,1.3c-0.1,0.5-0.3,1.1-0.4,1.6c0,0.4,0.2,0.6,0.5,0.7
			c0.4,0.1,0.6-0.2,0.7-0.5c0.4-1.8,0.9-3.6,1.3-5.3c0.1-0.3,0.1-0.7-0.4-0.9C24.1,26.2,23.8,26.4,23.7,26.9z"/>
		<path class="st0" d="M17.7,29.2c-0.4,0.4-0.4,0.6,0,1c0.6,0.6,1.2,1.3,1.9,1.9c0.2,0.2,0.6,0.4,0.9,0.1c0.1-0.1,0.2-0.2,0.2-0.4
			c0-0.2-0.1-0.4-0.3-0.6c-0.3-0.3-0.7-0.7-1-1l-0.6-0.6l0.6-0.5c0.4-0.4,0.7-0.7,1.1-1c0.2-0.2,0.3-0.4,0.3-0.5
			c0-0.1-0.1-0.3-0.2-0.4c-0.1-0.1-0.2-0.2-0.4-0.2c-0.2,0-0.4,0.1-0.5,0.3C19,27.9,18.3,28.5,17.7,29.2z"/>
	</g>
	<path class="st0" d="M18.3,3.4c-1.4,0.6-2.6,1.5-3.7,2.5l0.9,0.9c2.4-2.3,5.3-3.4,8.6-3.4c3.3,0,6.2,1.1,8.6,3.4L33.7,6
		c-2.2-2.1-4.9-3.3-7.8-3.7C23.2,1.9,20.7,2.3,18.3,3.4z"/>
	<path class="st0" d="M18.4,9.8c1.6-1.5,3.6-2.2,5.7-2.2c0,0,0,0,0,0c2.2,0,4.1,0.7,5.7,2.2l0.9-0.9c-1.8-1.7-4.2-2.6-6.8-2.6
		c-2.5,0-4.9,1-6.6,2.6L18.4,9.8z"/>
	<path class="st0" d="M21.2,12.7c0.8-0.7,1.8-1,2.9-1c0,0,0,0,0,0c1.1,0,2,0.3,2.8,1l0.9-0.9c-1.1-0.9-2.4-1.4-3.9-1.4
		c-1.4,0-2.7,0.5-3.7,1.4L21.2,12.7z"/>
</g>
</svg>
