<svg width="299" height="36" viewBox="0 0 299 36" fill="none" xmlns="http://www.w3.org/2000/svg">
<g clip-path="url(#clip0_2625_2883)">
<path d="M0 31.6216C0.239938 31.5491 0.322994 31.3406 0.438349 31.1548C3.19302 26.6996 5.96616 22.2534 8.70238 17.7891C10.8895 14.2222 13.0536 10.6416 15.356 7.14725C16.3481 5.64706 17.0956 3.99731 18.2445 2.59229C19.2504 1.35951 20.5101 0.398665 22.0605 0.158453C24.6398 -0.240388 27.1546 0.00888778 29.1479 1.99403C29.5401 2.38381 29.8262 2.85517 30.1169 3.31293C33.0469 7.96306 35.9584 12.6177 38.8792 17.2724C39.2299 17.8299 39.1976 17.9205 38.6393 18.2468C36.2814 19.6292 33.9282 21.0206 31.575 22.4075C31.4319 22.4891 31.2889 22.5706 31.1504 22.6613C30.7444 22.9378 30.4998 22.8471 30.2368 22.4165C28.3404 19.3119 26.4209 16.2209 24.5014 13.1299C24.0723 12.4319 24.0307 12.4274 23.6201 13.1571C22.7757 14.6437 21.8898 16.1076 20.9715 17.5443C18.9967 20.6444 17.1648 23.8261 15.1807 26.9171C14.1794 28.4762 13.2381 30.0761 12.3015 31.676C12.0661 32.0749 11.7662 32.1655 11.3509 32.161C7.56728 32.1519 3.78826 32.1564 0.0046142 32.1519V31.608L0 31.6216Z" fill="white"/>
<path d="M299 27.4884C294.958 27.4884 290.921 27.4884 286.879 27.4884C286.191 27.4884 286.131 27.5609 286.173 28.2498C286.233 29.2696 286.616 29.6458 287.663 29.6594C288.992 29.6775 290.321 29.682 291.65 29.6639C292.167 29.6548 292.402 29.8225 292.37 30.3528C292.337 30.8785 292.36 31.4043 292.36 31.93C292.36 32.211 292.25 32.3878 291.941 32.3833C290.044 32.3379 288.138 32.5464 286.251 32.2337C283.93 31.8485 282.828 30.729 282.657 28.3677C282.537 26.6771 282.505 24.9639 282.721 23.2688C282.929 21.6463 283.838 20.631 285.458 20.2413C286.053 20.0962 286.653 19.992 287.262 19.992C289.901 19.9829 292.54 19.9874 295.175 19.9829C295.789 19.9829 296.384 20.1098 296.97 20.2866C297.994 20.6038 298.668 21.2701 299.005 22.2717V27.4929L299 27.4884ZM290.815 25.195C291.941 25.195 293.066 25.195 294.192 25.195C295.664 25.195 295.738 25.1089 295.503 23.6359C295.378 22.8654 295.217 22.7068 294.423 22.7023C293.02 22.6932 291.618 22.7023 290.219 22.7023C289.407 22.7023 288.595 22.6887 287.783 22.7114C286.699 22.7385 286.334 23.0739 286.196 24.1254C286.173 24.2886 286.187 24.4518 286.168 24.6149C286.117 25.0727 286.33 25.2177 286.777 25.2086C288.125 25.1905 289.472 25.1996 290.815 25.2041V25.195Z" fill="white"/>
<path d="M149.955 27.733C149.955 29.0746 149.955 30.4161 149.955 31.7577C149.955 32.3831 149.858 32.4556 149.212 32.4874C148.418 32.5282 147.634 32.3423 146.836 32.4239C146.402 32.4692 146.388 32.1475 146.388 31.8393C146.388 30.6065 146.388 29.3737 146.388 28.1409C146.388 26.9988 146.393 25.8566 146.388 24.7145C146.379 23.5995 145.821 23.0421 144.685 23.0285C143.763 23.0149 142.84 23.0285 141.917 23.0285C141.58 23.0285 141.248 23.0693 140.939 23.1871C140.422 23.382 140.021 23.6766 139.937 24.2975C139.868 24.8233 139.873 25.3445 139.873 25.8702C139.868 27.7919 139.873 29.7136 139.873 31.6308C139.873 32.4375 139.859 32.4239 139.047 32.4194C138.442 32.4194 137.843 32.4874 137.229 32.4239C136.763 32.3741 136.643 32.1928 136.643 31.7713C136.657 29.5233 136.643 27.2752 136.652 25.0318C136.652 24.6828 136.611 24.3519 136.509 24.0165C136.361 23.527 136.029 23.246 135.54 23.1599C134.147 22.9152 132.744 23.0194 131.346 23.0693C130.723 23.0919 130.372 23.4998 130.243 24.1162C130.146 24.5831 130.132 25.0499 130.132 25.5212C130.132 27.5517 130.132 29.5822 130.132 31.6081C130.132 32.4239 130.123 32.4285 129.316 32.4103C128.67 32.3967 128.028 32.4013 127.382 32.4738C126.732 32.5463 126.589 32.4013 126.589 31.7622C126.584 29.2785 126.552 26.7948 126.602 24.3156C126.621 23.4273 126.612 22.5027 127.119 21.6824C127.678 20.7714 128.448 20.2094 129.537 20.0689C131.669 19.7924 133.796 19.7698 135.928 20.078C136.791 20.2003 137.497 20.5946 137.972 21.3243C138.189 21.6552 138.29 21.6053 138.507 21.3017C138.978 20.64 139.638 20.1958 140.463 20.0916C142.628 19.8196 144.801 19.6972 146.96 20.078C149.249 20.4768 149.793 21.8002 149.955 23.7219C150.01 24.3882 149.969 25.0635 149.973 25.7343C149.973 26.405 149.973 27.0758 149.973 27.7466L149.955 27.733Z" fill="white"/>
<path d="M271.775 30.9782C270.414 30.9147 268.767 31.1051 267.138 30.8603C266.049 30.6972 265.006 30.4207 264.3 29.4735C263.95 29.0021 263.747 28.4628 263.719 27.9098C263.636 26.2646 263.539 24.6148 263.788 22.9741C264.019 21.4422 264.919 20.504 266.483 20.1868C267.138 20.0554 267.789 19.9692 268.458 19.9692C270.728 19.9692 272.994 19.9738 275.264 19.9692C276.062 19.9692 276.851 20.0554 277.608 20.3046C279.232 20.844 280.067 22.0088 280.187 23.7945C280.372 26.4731 280.252 29.1562 280.275 31.8348C280.275 32.2835 280.224 32.7412 280.155 33.1854C279.901 34.8714 278.711 35.9184 276.87 35.9728C274.936 36.0272 272.998 35.9818 271.06 35.9954C270.677 35.9954 270.53 35.8368 270.539 35.4742C270.548 34.9122 270.557 34.3502 270.539 33.7882C270.52 33.3168 270.719 33.1446 271.189 33.1491C272.592 33.1627 273.995 33.1582 275.393 33.1491C276.514 33.1446 277.133 32.2246 276.713 31.2093C276.602 30.9374 276.362 30.9827 276.15 30.9827C274.784 30.9782 273.418 30.9827 271.775 30.9827V30.9782ZM272.486 28.2361V28.2452C273.704 28.2452 274.922 28.2316 276.141 28.2543C276.602 28.2633 276.759 28.0911 276.75 27.6469C276.727 26.6861 276.75 25.7252 276.74 24.7644C276.727 23.5815 276.316 23.1373 275.125 22.9741C274.927 22.947 274.719 22.9424 274.516 22.9424C272.781 22.9424 271.046 22.9424 269.316 22.9424C269.039 22.9424 268.762 22.9696 268.49 23.0149C267.618 23.1645 267.374 23.4002 267.194 24.2613C267.041 24.9774 267.129 25.7071 267.124 26.4278C267.12 27.7693 267.535 28.1999 268.892 28.2271C270.091 28.2543 271.291 28.2316 272.491 28.2316L272.486 28.2361Z" fill="white"/>
<path d="M76.8624 32.4332C76.0365 32.5012 75.2059 32.4694 74.3754 32.4876C73.8632 32.4966 73.5125 32.3153 73.2403 31.8712C72.7004 30.9828 72.1144 30.1262 71.5653 29.247C71.3807 28.9524 71.1408 28.8164 70.7947 28.8164C67.5463 28.8164 64.2979 28.8164 61.0542 28.8164C60.6804 28.8164 60.4451 28.975 60.2559 29.2878C59.716 30.1942 59.1439 31.0825 58.5902 31.9799C58.4518 32.2066 58.2903 32.3833 57.9903 32.3969C56.906 32.4468 55.817 32.5238 54.7281 32.4785C54.1606 32.4558 54.059 32.2836 54.3636 31.8032C55.1941 30.4798 56.0478 29.1654 56.8968 27.851C59.0193 24.5424 61.1926 21.2656 63.2413 17.9162C64.3764 16.0625 67.3249 15.7226 68.663 17.8392C70.3149 20.4543 71.976 23.0649 73.6417 25.671C74.906 27.6516 76.1795 29.6231 77.4392 31.6038C77.5776 31.8213 77.9144 32.0253 77.6976 32.3063C77.5084 32.551 77.1577 32.4694 76.8624 32.4377V32.4332ZM65.8806 25.9701C66.8957 25.9701 67.9109 25.9701 68.926 25.9701C69.2213 25.9701 69.4843 25.9475 69.2305 25.5441C68.3169 24.0756 67.431 22.5936 66.4989 21.1387C65.9498 20.2776 65.8991 20.2821 65.3592 21.1251C64.4364 22.5618 63.5504 24.0258 62.6322 25.467C62.3554 25.9021 62.5122 25.9837 62.9506 25.9747C63.9288 25.9611 64.907 25.9701 65.8852 25.9701H65.8806Z" fill="white"/>
<path d="M235.853 25.979C233.878 25.979 231.903 25.979 229.928 25.979C229.149 25.979 229.13 26.0017 229.13 26.7812C229.13 27.0532 229.121 27.3251 229.149 27.597C229.278 28.8343 229.767 29.2876 231.045 29.3193C231.857 29.342 232.669 29.3284 233.481 29.3284C236.287 29.3284 239.092 29.3284 241.898 29.3284C242.622 29.3284 242.645 29.3556 242.65 30.0581C242.654 30.6019 242.65 31.1458 242.668 31.6897C242.687 32.3061 242.636 32.3786 241.995 32.3786C238.912 32.3786 235.83 32.3786 232.748 32.3786C231.53 32.3786 230.311 32.4239 229.107 32.1882C226.823 31.7441 225.683 30.4524 225.568 28.1772C225.453 25.8793 225.425 23.5814 225.554 21.279C225.73 18.2288 227.035 17.0776 230.159 16.8374C231.756 16.715 233.371 16.8147 234.976 16.8011C235.369 16.8011 235.558 16.9325 235.549 17.3359C235.535 17.9886 235.535 18.6412 235.549 19.2939C235.558 19.7199 235.355 19.8695 234.944 19.8649C233.652 19.8559 232.36 19.8559 231.068 19.8649C229.804 19.8785 229.301 20.3363 229.149 21.5691C228.964 23.0919 228.992 23.1237 230.533 23.1237C234.298 23.1237 238.063 23.1237 241.828 23.1237C242.617 23.1237 242.622 23.1327 242.627 23.9168C242.627 24.3157 242.627 24.7145 242.627 25.1133C242.627 25.6844 242.344 25.9699 241.778 25.9699C239.803 25.9699 237.828 25.9699 235.853 25.9699V25.979Z" fill="white"/>
<path d="M261.253 22.3896C261.253 24.0757 261.253 25.7617 261.253 27.4477C261.253 27.8284 261.253 28.2136 261.197 28.5853C260.847 30.7925 259.832 31.9256 257.566 32.1975C254.488 32.5646 251.374 32.5782 248.296 32.1749C246.081 31.8848 244.969 30.6837 244.78 28.4765C244.637 26.8222 244.582 25.1407 244.845 23.4865C245.159 21.524 246.164 20.5586 248.135 20.1779C248.896 20.0329 249.667 19.9694 250.446 19.9694C252.643 19.9785 254.839 19.9603 257.035 19.9785C257.529 19.9785 257.737 19.838 257.718 19.3303C257.686 18.4239 257.718 17.5174 257.705 16.611C257.695 16.1577 257.848 15.9402 258.341 15.9538C259.116 15.9765 259.892 15.9765 260.667 15.9538C261.133 15.9402 261.271 16.1351 261.271 16.5702C261.257 18.51 261.267 20.4498 261.267 22.3896H261.253ZM253.053 29.4374C254.009 29.4011 255.001 29.4691 255.997 29.3512C257.105 29.2198 257.645 28.753 257.677 27.6607C257.714 26.2466 257.691 24.8326 257.7 23.423C257.7 23.074 257.543 22.9381 257.197 22.9426C254.765 22.9924 252.329 22.8338 249.897 23.0423C248.938 23.1239 248.37 23.6088 248.319 24.5425C248.259 25.6257 248.255 26.718 248.319 27.8012C248.375 28.7847 248.914 29.2107 249.925 29.3376C250.954 29.4691 251.988 29.4102 253.058 29.4374H253.053Z" fill="white"/>
<path d="M115.908 19.8832C117.542 19.8696 119.004 19.8242 120.444 20.0826C122.493 20.4497 123.743 21.2791 124.057 23.5634C124.315 25.4216 124.334 27.2753 124.029 29.1336C123.808 30.4932 122.668 31.7079 121.261 32.0796C120.31 32.3334 119.332 32.4285 118.363 32.4603C116.061 32.5373 113.74 32.6234 111.465 32.2472C109.352 31.8983 108.175 31.0145 107.866 28.6713C107.635 26.9399 107.612 25.1859 107.893 23.4727C108.226 21.4559 109.264 20.4724 111.396 20.1052C112.941 19.8378 114.515 19.8469 115.904 19.8922L115.908 19.8832ZM116.134 23.0195C115.009 23.0422 113.938 22.9742 112.877 23.1328C112.198 23.237 111.719 23.6042 111.562 24.2568C111.28 25.4352 111.368 26.6363 111.469 27.8192C111.543 28.6486 112.115 29.12 112.844 29.2242C114.935 29.5188 117.025 29.5143 119.115 29.2287C119.927 29.1154 120.458 28.5942 120.476 27.7784C120.499 26.7133 120.504 25.6437 120.476 24.5741C120.453 23.7537 119.927 23.2597 119.111 23.1283C118.1 22.9651 117.09 23.0558 116.134 23.0195Z" fill="white"/>
<path d="M196.538 19.8788C197.613 19.8561 199.067 19.8561 200.515 20.0827C202.043 20.3229 203.293 20.9393 203.884 22.4576C204.161 23.1737 204.239 23.9306 204.276 24.692C204.35 26.2466 204.401 27.8057 204.045 29.3376C203.598 31.2639 202.214 32.0389 200.442 32.2655C197.876 32.5918 195.292 32.5284 192.713 32.3788C191.795 32.3244 190.886 32.1885 190.032 31.7987C188.934 31.2956 188.343 30.4163 188.08 29.3105C187.905 28.5717 187.79 27.8193 187.822 27.0488C187.873 25.7843 187.73 24.5153 188.016 23.2598C188.306 21.9817 188.92 20.9982 190.207 20.4725C191.361 20.0011 192.574 19.9649 193.783 19.8878C194.572 19.838 195.371 19.8788 196.543 19.8788H196.538ZM196.187 23.0196C195.043 23.0559 193.954 22.9652 192.874 23.142C192.224 23.2508 191.689 23.7085 191.601 24.3295C191.439 25.4263 191.398 26.5276 191.555 27.6335C191.716 28.7802 192.085 29.1881 193.28 29.3014C195.265 29.4963 197.253 29.5507 199.233 29.2334C199.879 29.1292 200.326 28.8028 200.488 28.1683C200.797 26.9537 200.695 25.7209 200.575 24.4972C200.488 23.636 199.893 23.21 199.007 23.0967C198.047 22.9788 197.092 23.074 196.192 23.0196H196.187Z" fill="white"/>
<path d="M160.127 24.6284C161.64 24.6284 163.154 24.6375 164.667 24.6194C165.055 24.6148 165.576 24.8052 165.747 24.2386C165.908 23.6993 165.479 22.9197 164.944 22.7113C164.566 22.5617 164.164 22.4982 163.754 22.4982C162.794 22.4982 161.834 22.4801 160.874 22.5028C160.39 22.5164 160.21 22.326 160.233 21.8637C160.256 21.3924 160.247 20.921 160.238 20.4496C160.233 20.0735 160.385 19.874 160.791 19.8786C162.559 19.8967 164.344 19.7335 166.084 20.1188C168.142 20.5766 169.157 21.5102 169.365 23.5633C169.558 25.476 169.641 27.443 169.258 29.3601C168.839 31.445 167.814 32.0206 165.904 32.2517C162.549 32.6642 159.167 32.4965 155.794 32.3786C155.208 32.3605 154.618 32.2699 154.059 32.0569C153.178 31.7169 152.495 31.2002 152.287 30.2167C152.057 29.1381 152.047 28.0367 152.223 26.9762C152.467 25.4805 153.492 24.778 155.153 24.6783C156.809 24.5786 158.47 24.6556 160.132 24.6556V24.6284H160.127ZM161.027 26.8492C159.739 26.8492 158.447 26.8492 157.16 26.8492C156.122 26.8492 155.739 27.2345 155.73 28.2633C155.73 28.3721 155.73 28.4809 155.73 28.5896C155.748 29.5233 156.089 29.8768 157.035 29.8813C159.338 29.8859 161.64 29.8904 163.943 29.8768C165.152 29.8678 165.71 29.3193 165.775 28.1183C165.784 27.9551 165.784 27.792 165.784 27.6288C165.784 26.8946 165.738 26.8492 165.009 26.8492C163.684 26.8492 162.356 26.8492 161.031 26.8492H161.027Z" fill="white"/>
<path d="M206.642 28.0684C206.642 26.9987 206.656 25.9291 206.637 24.8595C206.628 24.1615 206.785 23.4908 206.955 22.8245C207.389 21.143 208.663 20.3272 210.273 20.1187C213.337 19.7199 216.415 19.7199 219.483 20.1051C221.587 20.368 222.893 21.8183 223.041 23.9168C223.225 26.541 223.091 29.1697 223.137 31.7939C223.147 32.1973 222.99 32.3695 222.565 32.4058C221.79 32.4738 221.02 32.4828 220.244 32.4738C219.566 32.4647 219.474 32.374 219.474 31.7169C219.474 29.5957 219.46 27.4746 219.483 25.3535C219.483 24.8686 219.377 24.4108 219.22 23.9757C218.985 23.3367 218.371 23.0874 217.757 23.0692C215.806 23.0058 213.849 22.8925 211.902 23.1327C210.878 23.2596 210.536 23.6267 210.37 24.6148C210.324 24.9003 210.31 25.1904 210.305 25.4804C210.301 27.5653 210.305 29.6501 210.305 31.735C210.305 32.3967 210.232 32.442 209.576 32.4194C208.843 32.3922 208.104 32.3967 207.371 32.4103C206.716 32.4194 206.651 32.3786 206.646 31.7123C206.642 30.4977 206.646 29.283 206.646 28.0684H206.642Z" fill="white"/>
<path d="M95.4641 24.4471C95.4641 25.7524 95.4826 27.0577 95.4595 28.363C95.4457 29.1335 95.2058 29.8586 94.8043 30.5203C94.1306 31.6353 93.0094 32.1112 91.8051 32.2472C88.8658 32.578 85.9081 32.6415 82.9735 32.2562C80.9248 31.9843 79.5083 31.0914 79.2729 28.4944C79.0837 26.4005 79.1391 24.2975 79.0837 22.1991C79.0699 21.5872 79.1437 20.9708 79.1714 20.3544C79.1853 20.0462 79.3421 19.8876 79.6559 19.8876C80.5418 19.8876 81.4278 19.8876 82.3137 19.8876C82.8305 19.8876 82.8351 20.2275 82.8351 20.5946C82.8351 22.8064 82.8397 25.0181 82.8397 27.2299C82.8397 27.5789 82.8858 27.9097 83.0197 28.2361C83.2642 28.8298 83.6795 29.1743 84.3347 29.2422C86.2865 29.4417 88.2429 29.3737 90.1947 29.2921C91.3068 29.2422 91.8743 28.5715 91.8881 27.4611C91.9112 25.213 91.8974 22.965 91.902 20.717C91.902 19.9238 91.9435 19.8876 92.7418 19.8831C93.48 19.8831 94.2183 19.8831 94.9566 19.8831C95.3442 19.8831 95.5103 20.0145 95.5057 20.4315C95.478 21.773 95.4964 23.1146 95.4964 24.4561H95.4595L95.4641 24.4471Z" fill="white"/>
<path d="M176.297 27.6515C176.297 29.0111 176.297 30.3708 176.297 31.7305C176.297 32.3877 176.21 32.4738 175.527 32.4829C174.719 32.4919 173.916 32.3424 173.1 32.4602C172.624 32.5282 172.541 32.1611 172.541 31.7758C172.541 30.4887 172.541 29.2015 172.541 27.9143C172.541 26.464 172.523 25.0137 172.546 23.5633C172.555 23.0648 172.371 22.8563 171.868 22.9061C171.683 22.9243 171.499 22.9061 171.314 22.9061C170.954 22.8971 170.77 22.7067 170.77 22.3577C170.77 21.7232 170.77 21.0887 170.77 20.4542C170.77 20.0372 171.005 19.8922 171.402 19.874C172.537 19.8151 172.537 19.8061 172.541 18.7002C172.541 18.1563 172.551 17.6124 172.541 17.0686C172.532 16.6199 172.721 16.3932 173.192 16.3978C174.023 16.4068 174.853 16.4023 175.684 16.3978C176.122 16.3978 176.316 16.5881 176.307 17.0278C176.288 17.7348 176.302 18.4418 176.307 19.1489C176.307 19.8423 176.339 19.8695 177.068 19.874C177.917 19.874 178.766 19.8876 179.615 19.8695C180.086 19.8604 180.298 20.0463 180.289 20.5086C180.279 21.0887 180.275 21.6688 180.289 22.249C180.298 22.743 180.049 22.9243 179.569 22.9152C178.683 22.9016 177.797 22.9288 176.911 22.9061C176.454 22.8971 176.293 23.0738 176.302 23.518C176.32 24.8958 176.307 26.2736 176.307 27.6515H176.297Z" fill="white"/>
<path d="M98.7572 27.656C98.7572 26.2963 98.7433 24.9366 98.7664 23.5769C98.7756 23.0965 98.6418 22.888 98.1112 22.9016C96.9161 22.9334 96.9899 22.9878 96.9946 21.7731C96.9946 21.3199 96.9992 20.8666 96.9946 20.4134C96.9853 20.0599 97.1238 19.8922 97.5067 19.8695C98.7618 19.797 98.7618 19.788 98.7618 18.5552C98.7618 18.0113 98.771 17.4674 98.7618 16.9235C98.7526 16.5564 98.9094 16.3933 99.2878 16.3978C100.155 16.4069 101.023 16.4069 101.89 16.3978C102.287 16.3978 102.458 16.5746 102.453 16.9598C102.444 17.6668 102.453 18.3739 102.453 19.0809C102.458 19.788 102.541 19.8695 103.242 19.8741C104.073 19.8741 104.903 19.8877 105.734 19.8741C106.181 19.865 106.371 20.0327 106.352 20.4814C106.329 21.0797 106.329 21.6779 106.352 22.2762C106.371 22.743 106.195 22.9334 105.711 22.9243C104.843 22.9016 103.976 22.9424 103.108 22.9107C102.596 22.8926 102.439 23.092 102.439 23.5769C102.458 26.2601 102.449 28.9432 102.449 31.6218C102.449 32.3968 102.449 32.3651 101.66 32.433C100.903 32.4965 100.146 32.4557 99.3939 32.492C98.9048 32.5146 98.7479 32.3107 98.7572 31.8484C98.7756 30.4524 98.7618 29.0565 98.7618 27.6605L98.7572 27.656Z" fill="white"/>
<path d="M181.72 26.3237C181.72 24.5651 181.72 22.8066 181.72 21.0481C181.72 20.2277 181.748 20.2051 182.602 20.2051C183.358 20.2051 184.11 20.2187 184.867 20.2187C185.241 20.2187 185.398 20.4045 185.393 20.7625C185.389 21.4333 185.393 22.1041 185.393 22.7749C185.393 25.7481 185.393 28.7213 185.393 31.6944C185.393 32.4151 185.338 32.3969 184.6 32.4423C183.861 32.4876 183.123 32.3108 182.394 32.4287C181.854 32.5193 181.706 32.3018 181.711 31.8168C181.725 29.9858 181.716 28.1547 181.716 26.3237H181.72Z" fill="white"/>
<path d="M42.1043 32.1658C40.374 32.1658 38.6391 32.1658 36.9087 32.1612C36.7057 32.1612 36.4058 32.2655 36.3412 31.9845C36.2951 31.7715 36.5627 31.6763 36.7288 31.5766C38.6068 30.4707 40.4894 29.3693 42.3673 28.2635C43.0318 27.8737 43.7008 27.4884 44.3468 27.076C44.7114 26.8403 44.9328 26.9083 45.1497 27.2618C45.9895 28.6215 46.8431 29.9676 47.6875 31.3228C47.8213 31.5358 48.0613 31.7669 47.9413 32.0026C47.7983 32.2881 47.4476 32.1658 47.18 32.1658C45.4865 32.1748 43.7885 32.1703 42.0951 32.1703L42.1043 32.1658Z" fill="white"/>
<path d="M43.7736 25.1044C43.7551 25.3899 43.5567 25.467 43.386 25.5712C41.1896 26.8674 38.9933 28.1637 36.7969 29.4599C36.4047 29.6911 36.0125 29.9313 35.6203 30.1715C35.3481 30.3392 35.1451 30.2939 34.9743 30.0174C34.6882 29.5506 34.3976 29.0883 34.0976 28.635C33.9131 28.3495 33.9454 28.1682 34.2591 27.9824C35.8741 27.0397 37.4752 26.0743 39.0856 25.1225C40.0776 24.5333 41.0881 23.9713 42.0756 23.3685C42.3709 23.1872 42.5739 23.1646 42.7585 23.4682C43.1045 24.0257 43.446 24.5832 43.769 25.1044H43.7736Z" fill="white"/>
<path d="M41.4586 21.4242C41.454 21.6871 41.2786 21.7642 41.1217 21.8548C39.7605 22.6525 38.3994 23.4456 37.0428 24.2524C35.9215 24.9141 34.8049 25.5803 33.6929 26.2602C33.0054 26.6772 32.9269 26.6726 32.4793 26.0064C32.2671 25.6891 32.0733 25.3583 31.8518 25.0455C31.6026 24.6965 31.6811 24.4563 32.041 24.2433C33.9051 23.1465 35.7693 22.0452 37.6288 20.9438C38.3209 20.5314 39.0177 20.1189 39.7006 19.6929C40.0559 19.4708 40.2866 19.5071 40.4988 19.8878C40.7388 20.3138 41.0294 20.7127 41.2971 21.1251C41.3663 21.2293 41.4124 21.3472 41.454 21.4288L41.4586 21.4242Z" fill="white"/>
<path d="M185.395 17.626C185.395 19.2712 185.224 19.4389 183.522 19.4344C183.319 19.4344 183.116 19.4344 182.913 19.4253C182.077 19.3755 181.731 19.0174 181.727 18.1835C181.727 17.7302 181.718 17.277 181.727 16.8283C181.745 16.2119 181.939 15.9762 182.562 15.8811C183.199 15.7814 183.849 15.804 184.491 15.8629C185.127 15.9219 185.358 16.1847 185.39 16.8102C185.404 17.0821 185.39 17.3541 185.39 17.626H185.395Z" fill="white"/>
</g>
<defs>
<clipPath id="clip0_2625_2883">
<rect width="299" height="36" fill="white"/>
</clipPath>
</defs>
</svg>
