<svg width="231" height="127" viewBox="0 0 231 127" fill="none" xmlns="http://www.w3.org/2000/svg">
<g clip-path="url(#clip0_503_4072)">
<g clip-path="url(#clip1_503_4072)">
<path d="M74.637 96.8487C72.2588 95.462 69.7025 94.362 68.9898 91.2092C68.3081 88.1881 69.749 84.7797 72.7004 83.2846C75.768 81.7353 79.7187 82.6262 81.5701 85.2754C84.2039 89.0635 83.2588 93.355 79.2617 95.6712C78.518 96.105 77.7279 96.4536 76.961 96.8409H74.6448L74.637 96.8487ZM80.8729 89.6212C81.1828 86.9719 79.2617 84.5163 76.0159 84.3071C73.3356 84.1367 70.5624 86.3522 70.7483 89.6135C70.9342 92.7198 72.6849 94.5712 75.8222 94.5867C78.9518 94.6022 80.8342 92.743 80.8652 89.6212H80.8729Z" fill="#EEEEEE"/>
<path d="M192.6 96.8446C191.725 96.1397 190.741 95.5199 190.028 94.6833C189.641 94.2263 189.703 93.3897 190.106 92.4368C190.571 92.8706 191.066 93.289 191.508 93.746C192.438 94.7143 193.576 94.877 194.622 94.2108C195.157 93.8777 195.536 93.0256 195.637 92.3594C195.815 91.2129 195.102 90.4925 194.026 90.0897C193.189 89.7798 192.321 89.4932 191.578 89.0284C189.812 87.9052 189.339 86.0692 190.292 84.4657C191.33 82.7228 193.39 82.0101 195.195 82.8235C196.102 83.2263 197.101 83.6059 196.892 85.2869C196.14 85.0545 195.451 84.946 194.87 84.6284C193.607 83.9467 192.554 84.2256 192.027 85.4263C191.523 86.5728 192.453 87.3242 193.359 87.8509C194.01 88.2305 194.87 88.3235 195.428 88.7883C196.373 89.5861 197.155 90.5777 198 91.484V93.0178C196.714 94.296 195.428 95.5664 194.142 96.8446H192.6V96.8446Z" fill="#EEEEEE"/>
<path d="M88.9488 40.1135L96.249 57.6364L102.452 42.4157C102.493 42.2964 102.493 42.1414 102.493 41.9446C102.493 41.1275 102.022 40.698 101.05 40.698V40.4237H110.104V40.698C109.245 40.698 108.464 40.9306 107.724 41.4376C107.062 41.9028 106.633 42.4933 106.358 43.1911L105.189 46.3163L109.794 57.4753L115.06 42.4157C115.102 42.2964 115.102 42.1414 115.102 41.9446C115.102 41.1275 114.595 40.7338 113.659 40.7338V40.4595H123.064V40.6921C122.205 40.6921 121.424 40.9247 120.684 41.4316C120.022 41.8968 119.593 42.4873 119.319 43.1851L110.497 67.2626L103.824 50.9923L103.591 50.4435L96.7201 67.2626L87.3086 43.543C87.5829 42.8392 88.907 39.9525 88.9488 40.1076V40.1135Z" fill="#707070"/>
<path d="M150.684 64.0314C147.953 61.8425 136.639 50.6835 134.879 48.6139C138.744 48.4947 140.891 46.5444 141.589 45.7273C142.955 44.0513 143.659 42.1368 143.659 39.9539C143.659 37.4549 142.8 35.3853 141.046 33.6319C139.329 31.9142 136.209 31.0195 133.746 31.0195H119.736V31.3714C120.672 31.3714 121.454 31.6816 122.074 32.3495C122.736 32.9758 123.052 33.7929 123.052 34.6935V62.7074C123.052 63.6437 122.742 64.425 122.074 65.0513C121.448 65.6775 120.672 66.0294 119.736 66.0294V66.3813H131.557V66.0294C130.621 66.0294 129.839 65.7193 129.177 65.0513C128.515 64.425 128.199 63.6079 128.199 62.7074V33.1249L131.867 33.0831C132.1 33.0831 132.338 33.0831 132.571 33.1249H133.078C134.754 33.3992 136.084 34.1806 137.134 35.4688C138.189 36.7571 138.732 38.278 138.81 40.0314C138.929 42.2143 138.106 44.0513 136.388 45.5364C135.333 46.3953 134.241 47.0215 133.072 47.3734L132.565 47.5285C131.939 47.7253 129.171 48.1547 129.171 48.1547L142.203 62.2004C144.034 64.0732 145.519 65.2839 146.653 65.8684C147.786 66.4529 148.8 66.8405 149.659 67.0016C150.398 67.1567 153.446 67.3117 154.967 67.3117C153.13 65.9459 151.686 64.8545 150.672 64.0314H150.684Z" fill="#EEEEEE"/>
<path d="M91.096 56.1529H86.259L88.8356 50.4153C88.8356 50.4153 86.6885 44.8745 86.6885 44.9103C85.3227 48.304 77.7541 65.5524 77.1696 65.9819C76.8952 66.1787 76.6209 66.3338 76.3107 66.453C75.9231 66.6081 75.4936 66.6856 75.0642 66.6856V66.9182H83.4857V66.6439C82.7461 66.6439 82.3525 66.2562 82.3525 65.4749C82.3525 65.2781 82.3942 65.123 82.43 64.9679L85.5493 57.6678H91.6388L91.0901 56.1469L91.096 56.1529Z" fill="#9EA2A5"/>
<path d="M43.5348 75.4413C44.9292 75.4413 46.3235 75.4413 47.7257 75.4413C59.6707 75.3871 71.6158 75.3794 83.5609 75.2709C100.239 75.1237 116.917 74.7364 133.595 74.7674C151.048 74.7984 168.493 75.2089 185.938 75.4646C186.442 75.4646 186.945 75.542 187.604 75.5885C186.24 77.192 184.528 76.8589 182.948 76.8744C171.646 76.9674 160.328 76.6962 149.042 77.192C129.273 78.0674 109.512 77.5174 89.7503 77.5793C75.7679 77.6181 61.7855 77.1533 47.8031 76.8512C46.3545 76.8202 44.9137 76.3244 43.4651 76.0455C43.4883 75.8441 43.5038 75.6427 43.5271 75.4413H43.5348Z" fill="#EEEEEE"/>
<path d="M117.157 82.9154C115.709 85.0611 114.299 84.4492 113.114 84.5809C112.215 84.6816 111.719 85.0224 111.688 85.9675C111.657 87.0055 111.967 87.6097 113.145 87.7259C114.353 87.8421 115.538 88.183 116.94 88.4696C115.593 90.6851 113.578 89.3837 111.921 90.29V94.2562C113.555 94.4344 115.135 94.6048 116.731 94.783C116.747 96.4407 115.647 96.1696 114.864 96.1696C108.52 96.1696 109.442 96.7273 109.38 91.0879C109.357 89.0583 109.411 87.0287 109.372 84.9992C109.349 83.6048 109.883 82.8611 111.378 82.8999C113.129 82.9386 114.888 82.9076 117.157 82.9076V82.9154Z" fill="#EEEEEE"/>
<path d="M174.915 90.275V94.1095C176.588 94.4116 178.231 94.7059 179.865 95.0003C179.85 95.2869 179.834 95.5735 179.819 95.8602C177.851 96.5496 175.744 96.1623 173.715 96.0693C173.304 96.0461 172.607 95.2714 172.599 94.8299C172.522 91.2665 172.529 87.6954 172.638 84.132C172.653 83.7292 173.42 83.032 173.869 83.0088C175.86 82.8848 177.882 82.7609 180.09 83.1482C179.153 85.0461 177.712 84.5038 176.534 84.5813C175.488 84.6588 174.838 84.9454 174.846 86.1306C174.846 87.2693 175.434 87.6257 176.503 87.7419C177.549 87.8581 179.369 87.1609 179.393 88.7102C179.424 90.6158 177.456 89.632 176.356 89.9264C176 90.0193 175.636 90.1045 174.923 90.2827L174.915 90.275Z" fill="#EEEEEE"/>
<path d="M56.8201 90.6865C57.9201 92.5224 58.8729 94.1105 60.1046 96.1633C56.5335 95.745 56.3088 92.5302 54.2792 91.1668C53.4581 92.6696 54.5813 94.5985 53.1482 96.3182C52.7532 95.745 52.3039 95.3964 52.2961 95.0323C52.2264 91.6083 52.2419 88.1844 52.2032 84.7605C52.1877 83.4823 52.7764 82.8936 54.0546 82.94C54.6898 82.9633 55.3405 82.9091 55.968 82.9788C58.9194 83.3196 60.3292 86.0541 58.7877 88.5562C58.3306 89.2921 57.6025 89.8576 56.8201 90.702V90.6865ZM54.2637 84.8069V88.7344C57.1222 88.0062 57.8039 87.4717 57.494 86.2013C57.0912 84.5358 55.8285 84.5358 54.2637 84.8147V84.8069Z" fill="#EEEEEE"/>
<path d="M127.654 95.9612C127.445 95.6901 127.065 95.4267 127.065 95.1479C127.003 91.6 126.957 88.0521 127.011 84.5042C127.019 84.0162 127.507 83.288 127.948 83.0944C129.746 82.3197 132.565 83.1254 133.503 84.5197C134.618 86.1852 134.145 88.0831 132.186 89.8028C131.907 90.0429 131.581 90.2211 131.148 90.5155C132.271 92.2429 133.371 93.9317 134.672 95.9303C130.907 96.1936 131.202 92.1887 128.862 91.1739C128.723 92.7852 128.584 94.3577 128.452 95.938C128.188 95.9458 127.917 95.9612 127.654 95.969V95.9612ZM128.7 87.3317C128.878 87.5718 129.226 88.4782 129.854 88.757C130.613 89.0901 132.124 87.5408 132.054 86.5958C131.976 85.5113 131.473 84.6901 130.179 84.6514C128.599 84.6049 128.738 85.7049 128.7 87.3317V87.3317Z" fill="#EEEEEE"/>
<path d="M37.2603 90.9451C37.0744 92.8197 36.9195 94.4077 36.6716 96.9253C35.8659 95.6549 35.3392 95.2056 35.3314 94.7408C35.254 91.4408 35.3004 88.1408 35.2772 84.8408C35.2695 83.6169 35.7187 82.8655 37.0511 82.943C38.1899 83.0049 39.3596 82.9972 40.4518 83.2606C42.0631 83.6479 42.6751 85.019 42.6441 86.4676C42.6209 87.831 42.3652 89.3338 40.7617 89.9148C39.6849 90.3099 38.5617 90.5732 37.2603 90.9528V90.9451ZM37.3455 89.1479C38.5849 88.5746 39.3828 88.2803 40.1033 87.8465C40.3744 87.6838 40.4983 87.219 40.6068 86.8627C40.6765 86.6303 40.6842 86.3359 40.599 86.1113C39.9406 84.3373 38.6702 84.5155 36.9969 84.9493C37.1131 86.3282 37.2138 87.5211 37.3455 89.1479Z" fill="#EEEEEE"/>
<path d="M93.3911 95.9915C93.2362 95.3021 92.965 94.6126 92.9495 93.9232C92.8953 91.1422 92.8876 88.3535 92.9418 85.5725C92.9883 83.0394 93.2362 82.8457 95.8622 82.9232C96.2418 82.931 96.6291 82.9387 97.0087 82.9852C98.5657 83.1788 99.5495 84.0929 100.014 85.526C100.495 87.0133 99.9136 88.6091 98.589 89.5464C98.0777 89.9028 97.4657 90.1197 96.877 90.3598C96.296 90.5922 95.6995 90.7704 94.9404 91.0338C94.7777 92.6528 94.615 94.3183 94.4524 95.9837C94.1038 95.9837 93.7474 95.9915 93.3988 95.9992L93.3911 95.9915ZM94.7312 89.314C96.1333 88.6633 97.0862 88.4619 97.6439 87.8732C98.039 87.4626 98.2016 86.3239 97.8995 85.8978C97.4735 85.2936 96.5671 84.7979 95.808 84.7049C94.7855 84.5887 94.739 85.557 94.7312 86.3316C94.7235 87.0753 94.7312 87.819 94.7312 89.3063V89.314Z" fill="#EEEEEE"/>
<path d="M160.243 89.5693C160.243 87.9271 160.143 86.2693 160.298 84.6348C160.352 84.0693 161.049 83.5736 161.452 83.0391C161.8 83.4961 162.436 83.9531 162.443 84.4179C162.529 87.8341 162.529 91.2503 162.443 94.6665C162.428 95.139 161.808 95.5961 161.467 96.0609C161.057 95.5419 160.352 95.0461 160.298 94.4961C160.143 92.8693 160.243 91.2116 160.243 89.5616V89.5693Z" fill="#EEEEEE"/>
<path d="M146.819 96.0334C146.625 95.3981 146.284 94.7707 146.261 94.1355C146.191 91.858 146.137 89.5651 146.261 87.2876C146.362 85.4672 145.897 84.3594 143.852 84.3827C143.705 84.3827 143.55 84.0341 143.395 83.8482C145.362 82.6707 147.059 82.5777 150.715 83.4376C150.692 83.6622 150.692 84.0883 150.645 84.096C148.089 84.3129 147.834 85.9629 147.957 88.039C148.081 90.0608 148.027 92.0981 147.957 94.12C147.934 94.7629 147.609 95.3981 147.423 96.0334C147.222 96.0334 147.012 96.0334 146.811 96.0334H146.819Z" fill="#EEEEEE"/>
</g>
</g>
<defs>
<clipPath id="clip0_503_4072">
<rect width="231" height="127" fill="white"/>
</clipPath>
<clipPath id="clip1_503_4072">
<rect width="165" height="65.9147" fill="white" transform="translate(33 31)"/>
</clipPath>
</defs>
</svg>
