<svg width="231" height="127" viewBox="0 0 231 127" fill="none" xmlns="http://www.w3.org/2000/svg">
<g clip-path="url(#clip0_518_2062)">
<g clip-path="url(#clip1_518_2062)">
<path d="M155.384 45.0058C154.993 45.049 154.648 44.9099 154.366 44.6682C153.84 44.2174 153.264 44.1944 152.66 44.4227C151.765 44.7603 150.887 45.1401 149.933 45.3032C148.521 45.5459 147.075 45.5977 145.705 46.0677C145.26 46.2202 144.822 46.3947 144.38 46.5588C144.285 46.3775 144.44 46.3353 144.545 46.2816C145.025 46.0398 145.564 45.9324 146.009 45.6063C146.11 45.5324 146.334 45.4883 146.412 45.5468C146.672 45.7444 146.841 45.567 146.993 45.4336C147.25 45.2082 147.543 45.119 147.869 45.1008C148.046 45.0912 148.234 45.0941 148.359 44.9502C148.667 44.5953 148.851 44.8514 149.105 45.0672C149.002 45.0883 148.954 45.0931 148.91 45.1075C148.861 45.1229 148.774 45.1161 148.816 45.1996C149.232 45.3185 149.524 44.8773 149.828 44.9166C150.223 44.9675 150.534 44.8265 150.882 44.7632C151.015 44.7382 151.155 44.7296 151.133 44.5522C151.11 44.3651 150.962 44.3315 150.809 44.3622C150.496 44.4255 150.184 44.4936 149.877 44.5771C149.049 44.7996 148.574 44.461 148.575 43.6342C148.58 39.4839 148.584 35.3345 148.6 31.1841C148.601 30.9098 148.624 30.7026 148.265 30.7131C147.983 30.7218 147.694 30.6393 147.679 31.1103C147.668 31.4738 147.615 31.8392 147.615 32.2066C147.616 35.8006 147.616 39.3956 147.615 42.9897C147.615 43.2122 147.638 43.4395 147.552 43.6534C147.51 43.758 147.461 43.8683 147.324 43.8644C147.189 43.8606 147.141 43.7493 147.101 43.6448C147.018 43.4299 147.044 43.2036 147.041 42.981C146.985 39.0378 147.152 35.0928 146.957 31.1496C146.94 30.8139 146.855 30.6988 146.522 30.7074C145.789 30.7266 145.046 30.8043 144.325 30.7601C142.858 30.6719 141.394 30.6019 139.926 30.6153C139.734 30.6172 139.54 30.6259 139.367 30.5213C139.878 30.5213 140.388 30.5194 140.899 30.5194C141.744 30.5165 142.588 30.5146 143.432 30.5117C143.708 30.5165 143.984 30.5213 144.261 30.5261C144.404 30.6086 144.563 30.6153 144.723 30.6153C146.947 30.6124 149.173 30.6105 151.397 30.6076C153.938 30.6057 156.455 30.8733 158.96 31.2752C158.836 31.3136 158.669 31.2282 158.571 31.4258C159.066 31.5582 159.559 31.563 160.047 31.6061C160.34 31.632 160.659 31.6081 160.797 31.986C160.867 32.1778 161.01 32.0896 161.148 32.0061C161.453 31.822 162.236 31.8325 162.347 32.0589C162.514 32.4003 162.724 32.3198 162.98 32.2411C163.868 31.9687 164.581 32.5509 164.512 33.4823C164.497 33.6895 164.498 33.8976 164.497 34.1048C164.497 37.1099 164.497 40.115 164.497 43.1191C164.497 44.0495 164.396 44.1407 163.473 44.0304C163.363 44.0169 163.251 43.9958 163.147 43.9575C162.864 43.852 162.597 43.8721 162.308 43.9671C161.871 44.1109 161.3 44.2558 160.966 44.1368C160.052 43.8107 159.23 44.32 158.364 44.2145C157.825 44.1493 157.34 44.508 156.803 44.5071C156.266 44.5052 155.837 44.7833 155.383 45.0049L155.384 45.0058Z" fill="#6B6B6B"/>
<path d="M139.367 30.5166C139.541 30.6221 139.734 30.6125 139.926 30.6106C141.395 30.5972 142.859 30.6672 144.325 30.7554C145.046 30.7986 145.789 30.7218 146.523 30.7027C146.856 30.694 146.941 30.8091 146.957 31.1448C147.152 35.088 146.985 39.0331 147.042 42.9763C147.044 43.1988 147.019 43.4252 147.101 43.6401C147.141 43.7446 147.189 43.8559 147.325 43.8597C147.462 43.8635 147.512 43.7523 147.553 43.6487C147.638 43.4348 147.615 43.2075 147.615 42.9849C147.616 39.3909 147.616 35.7959 147.615 32.2019C147.615 31.8345 147.668 31.469 147.679 31.1055C147.694 30.6346 147.984 30.7171 148.266 30.7084C148.625 30.6969 148.602 30.905 148.6 31.1794C148.583 35.3297 148.58 39.4791 148.575 43.6295C148.574 44.4563 149.049 44.7949 149.877 44.5724C150.185 44.4899 150.497 44.4208 150.809 44.3575C150.963 44.3268 151.111 44.3604 151.134 44.5474C151.155 44.7249 151.016 44.7345 150.882 44.7585C150.535 44.8218 150.224 44.9637 149.828 44.9119C149.525 44.8726 149.233 45.3138 148.816 45.1949C148.776 45.1114 148.861 45.1181 148.91 45.1028C148.955 45.0884 149.002 45.0836 149.106 45.0625C148.852 44.8467 148.666 44.5906 148.36 44.9455C148.235 45.0894 148.047 45.0865 147.869 45.0961C147.543 45.1143 147.251 45.2035 146.994 45.4289C146.841 45.5622 146.672 45.7397 146.412 45.5421C146.334 45.4826 146.11 45.5277 146.009 45.6016C145.564 45.9267 145.024 46.0351 144.546 46.2768C144.439 46.3305 144.285 46.3718 144.381 46.554C143.383 46.9981 142.347 47.3243 141.29 47.5909C141.014 47.3281 141.379 47.4528 141.424 47.3904C141.464 47.3358 141.579 47.3252 141.553 47.2226C141.531 47.1343 141.441 47.0864 141.366 47.1142C140.984 47.2561 140.607 47.0528 140.228 47.1094C140.165 47.1094 140.101 47.1094 140.038 47.1094C139.756 47.024 139.467 47.0029 139.174 47.0135H138.503C138.458 46.766 138.464 46.484 138.168 46.3775C137.984 46.3114 137.821 46.3679 137.715 46.5444C137.538 46.8408 137.289 46.8351 137.01 46.7161C136.699 46.5838 136.65 46.3315 136.714 46.0418C136.78 45.7416 136.776 45.4395 136.776 45.1373C136.776 42.9197 136.747 40.7011 136.785 38.4845C136.823 36.24 136.735 33.9994 136.628 31.7606C136.6 31.1909 136.847 31.1535 137.221 31.1007C137.412 31.0739 137.607 31.0767 137.735 30.8993C138.202 30.6777 138.724 30.9098 139.287 30.7199C138.73 30.4888 138.201 30.7449 137.737 30.5166C137.993 30.5166 138.248 30.5166 138.503 30.5156C138.791 30.5156 139.079 30.5166 139.367 30.5175V30.5166Z" fill="#6F6F6F"/>
<path d="M79.3117 40.8773C79.4661 40.6894 79.6915 40.7181 79.8968 40.6836C79.8181 40.932 79.7117 41.1459 79.4508 41.2696C78.952 41.5066 78.9472 41.5248 79.3146 41.9862C79.4815 42.1953 79.5275 42.3717 79.328 42.5703C79.1256 42.7717 79.1333 43.0278 79.1285 43.2849C79.1016 44.7035 79.1899 46.1231 79.0796 47.5398C79.0671 47.6952 79.0891 47.8323 79.2369 47.9081C79.3884 47.9849 79.5083 47.8899 79.633 47.8151C80.6689 47.1897 81.7452 46.6401 82.8108 46.0684C83.4573 45.7212 84.1978 45.5792 84.7887 45.1217C85.4592 45.1284 85.9963 44.715 86.6102 44.5443C87.0265 44.4167 87.4418 44.2891 87.8581 44.1616C88.3022 44.221 88.5516 44.6162 88.402 45.2502C88.1296 46.4089 88.2792 47.5743 88.2504 48.7368C88.237 49.2893 88.4653 49.4102 88.9765 49.1867C89.8552 48.804 90.7462 48.4577 91.6824 48.2429C91.7841 48.2199 91.9174 48.1604 91.975 48.3043C92.0172 48.4098 91.9097 48.4692 91.8484 48.5393C91.6747 48.7388 91.3131 48.9421 91.4407 49.1771C91.5788 49.4313 91.9702 49.2548 92.233 49.2193C93.2248 49.0879 93.4406 48.7848 93.2708 47.8007C93.2047 47.417 93.3092 47.1293 93.5615 46.8406C94.1437 46.173 94.9456 45.8603 95.7149 45.5389C97.1997 44.9193 98.7018 44.3409 100.152 43.6427C101.431 43.0269 102.7 42.39 103.973 41.7617C103.967 41.825 103.953 41.8893 103.957 41.9516C103.98 42.4092 103.834 42.6374 103.342 42.4197C103.25 42.3785 103.156 42.3967 103.073 42.459C102.933 42.5645 102.624 43.6753 102.724 43.8316C102.927 44.1491 102.92 44.4934 102.919 44.8445C102.916 45.7998 102.929 46.7552 102.915 47.7096C102.905 48.3858 103.028 49.1215 102.124 49.5445C102.582 49.6087 102.964 49.4812 103.206 49.8188C102.813 49.9656 102.386 49.9301 101.986 50.0365C101.583 50.144 101.218 50.0643 100.893 49.8341C100.609 49.6337 100.366 49.6596 100.111 49.8668C99.7099 50.191 99.2361 50.2533 98.7488 50.1881C97.3618 50.002 96.0151 50.2562 94.6703 50.5353C94.2137 50.6303 93.76 50.7099 93.2929 50.6763C93.1538 50.6667 92.9783 50.6888 92.938 50.5065C92.9025 50.3435 93.0685 50.3051 93.172 50.2437C93.2814 50.1794 93.4003 50.1325 93.5183 50.0835C94.3777 49.7277 95.2909 49.5848 96.1945 49.4083C96.6673 49.3162 97.1239 49.1771 97.5671 48.9929C97.7052 48.9354 97.8299 48.8539 97.7925 48.6735C97.7608 48.5172 97.6294 48.4875 97.498 48.4817C96.1158 48.4213 94.7336 48.4596 93.4493 49.0198C92.8114 49.298 92.1745 49.4409 91.505 49.4217C90.8402 49.4035 90.2523 49.5876 89.6652 49.8639C89.2691 50.05 89.083 50.3003 89.0974 50.7521C89.1242 51.5981 89.106 52.446 89.1051 53.2929C89.1051 53.5174 89.131 53.7342 89.201 53.9529C89.3372 54.3749 89.2441 54.5025 88.7847 54.5111C88.1612 54.5236 87.5377 54.5121 86.9143 54.5168C86.379 54.5207 85.8716 54.6003 85.4333 54.9609C85.2529 55.1096 85.0237 55.2382 84.7973 55.2861C84.2947 55.3935 83.7643 55.5729 83.323 55.1087C83.2693 55.0521 83.206 54.9667 83.1293 55.0358C83.0305 55.125 83.0631 55.2593 83.1302 55.3437C83.3979 55.6765 83.347 56.065 83.348 56.4458C83.3499 57.3733 83.3566 58.2998 83.3451 59.2274C83.3413 59.566 83.4544 59.7693 83.8045 59.8384C84.3753 59.9496 84.9191 60.2278 85.5301 60.0868C85.699 60.0484 85.8822 60.0772 86.0376 60.1798C85.8985 60.2805 85.7392 60.2911 85.5762 60.2786C84.8338 60.3055 84.0856 60.1702 83.3499 60.3621C82.8626 60.481 82.4281 60.7026 82.0243 60.9999C81.6051 61.3088 81.1342 61.4987 80.6037 61.491C80.2977 61.4862 80.0234 61.3894 79.9352 61.0594C79.8469 60.7275 80.0397 60.5175 80.3044 60.3582C80.3179 60.3496 80.3323 60.3429 80.3457 60.3343C80.6162 60.1635 81.0555 60.0791 80.9203 59.6408C80.7927 59.2283 80.3649 59.3281 80.0503 59.3358C78.6316 59.3674 77.2772 59.7118 75.9794 60.27C75.4068 60.5165 74.8274 60.6345 74.2116 60.5529C73.921 60.5146 73.6438 60.4369 73.5498 60.1021C74.2328 59.5391 74.9138 58.9761 75.5977 58.414C77.7386 56.6539 79.9131 54.9379 82.1979 53.3658C82.7207 52.8488 83.3336 52.4374 83.9398 52.0422C85.0477 51.3209 86.1738 50.6197 87.3622 50.0289C87.46 49.9799 87.5905 49.9512 87.5761 49.8073C87.5617 49.6634 87.4341 49.6548 87.3238 49.6346C86.5037 49.4812 85.699 49.4764 84.9537 49.9186C84.6381 50.1056 84.2918 50.1622 83.9446 50.1862C83.5369 50.214 83.0516 50.2859 82.9029 49.7536C82.7494 49.2059 83.2233 49.1071 83.5859 48.9498C83.8141 48.851 84.0204 48.7282 84.005 48.4318C83.9897 48.1335 83.7518 48.0904 83.535 48.0405C81.9571 47.677 80.4013 48.0261 78.8388 48.1872C78.7304 48.2064 78.622 48.2285 78.5127 48.2429C78.0724 48.2995 77.6523 48.3138 77.2254 48.0923C76.8456 47.8947 76.6509 47.6348 76.602 47.2223C76.5809 47.042 76.3861 47.0113 76.249 46.9403C76.5012 46.3312 76.5818 45.6991 76.5425 45.0402C76.5137 44.5481 76.5367 44.0532 76.5367 43.5592C76.5367 43.2408 76.5607 42.9185 76.2902 42.671C76.201 42.5895 76.155 42.4389 76.2883 42.3909C76.8552 42.1876 77.2513 41.6811 77.8997 41.591C78.387 41.5229 78.7976 41.1421 79.2896 41.0078C79.3059 41.003 79.3021 40.9205 79.3069 40.8745L79.3117 40.8773Z" fill="#797979"/>
<path d="M155.384 45.0109C155.837 44.7893 156.266 44.5121 156.803 44.5131C157.341 44.515 157.826 44.1553 158.364 44.2206C159.231 44.3251 160.052 43.8167 160.966 44.1429C161.299 44.2618 161.871 44.117 162.308 43.9731C162.598 43.8772 162.864 43.857 163.148 43.9635C163.251 44.0019 163.363 44.023 163.474 44.0364C164.396 44.1467 164.497 44.0556 164.497 43.1252C164.497 40.1201 164.497 37.115 164.497 34.1108C164.497 33.9036 164.497 33.6945 164.512 33.4883C164.582 32.557 163.869 31.9747 162.981 32.2471C162.724 32.3258 162.514 32.4064 162.348 32.0649C162.237 31.8385 161.454 31.827 161.149 32.0121C161.01 32.0956 160.868 32.1829 160.797 31.992C160.659 31.6141 160.341 31.639 160.047 31.6122C159.559 31.568 159.066 31.5642 158.571 31.4318C158.669 31.2343 158.837 31.3196 158.961 31.2812C160.454 31.5287 161.949 31.7608 163.45 31.9575C166.325 32.3335 169.196 32.7536 172.069 33.1545C172.4 33.2006 172.731 33.2476 173.062 33.2936C172.861 33.3061 172.661 33.3185 172.46 33.331C172.762 33.5142 173.095 33.5248 173.41 33.6053C173.92 33.7358 174.435 33.5113 174.928 33.6495C175.546 33.8221 176.163 33.965 176.806 33.9276C177.103 33.9104 177.17 34.0111 177.168 34.3094C177.153 36.8656 177.159 39.4218 177.157 41.978C177.157 42.5209 177.178 43.0667 177.127 43.6057C177.097 43.9222 177.124 44.1333 177.489 44.1841C177.319 44.4124 177.114 44.4335 176.904 44.4325C176.497 44.4316 176.105 44.375 175.7 44.2819C175.155 44.1563 174.565 44.2273 173.995 44.2033C173.009 44.162 172.024 44.1122 171.039 44.0661C170.913 44.0604 170.811 44.0824 170.828 44.2455C168.186 44.3395 165.544 44.351 162.901 44.3654C162.456 44.3683 162.011 44.3539 161.566 44.3472C160.657 44.375 159.744 44.2388 158.841 44.4277C157.884 44.5659 156.922 44.6771 155.997 44.9773C155.796 45.0426 155.59 45.0397 155.384 45.0128V45.0109Z" fill="#666666"/>
<path d="M136.451 69.3339C136.277 69.662 136.15 69.8941 136.031 70.1291C134.056 74.0013 132.385 78.0174 130.473 81.9193C130.262 82.349 130.042 82.7768 129.856 83.2171C129.697 83.594 129.573 83.6065 129.332 83.2669C128.33 81.856 127.44 80.3798 126.71 78.8116C125.336 75.8573 123.98 72.8934 122.613 69.9353C122.549 69.7972 122.518 69.6294 122.313 69.5191C122.187 70.5799 122.07 71.6158 121.941 72.6508C121.573 75.6012 121.224 78.5526 121.22 81.5328C121.218 82.6166 121.361 82.8085 122.381 83.1739C122.625 83.2612 123.077 83.2909 123.032 83.525C122.981 83.7897 122.556 83.6401 122.305 83.6305C120.757 83.5739 119.214 83.3629 117.662 83.5442C117.626 83.548 117.583 83.5087 117.494 83.4655C117.666 83.2727 117.88 83.2938 118.066 83.2602C118.921 83.1077 119.2 82.8507 119.334 82.0075C119.875 78.613 120.198 75.1916 120.568 71.776C120.849 69.1862 121.117 66.5955 121.394 64.0057C121.409 63.8705 121.37 63.6786 121.55 63.6422C121.705 63.6115 121.734 63.7889 121.792 63.8964C124.265 68.4611 126.795 72.997 128.895 77.7536C129.223 78.497 129.542 79.2451 129.886 80.0393C130.169 79.7113 130.283 79.3631 130.428 79.0389C132.155 75.1744 133.876 71.3079 135.709 67.4923C136.296 66.2694 136.989 65.0973 137.635 63.904C137.693 63.7985 137.726 63.6268 137.893 63.6738C138.047 63.717 138.012 63.882 138.023 64.0038C138.376 67.8712 138.724 71.7386 139.171 75.5964C139.392 77.5004 139.633 79.4024 140.013 81.2843C140.22 82.3116 140.812 82.8785 141.815 83.0713C142.129 83.1317 142.439 83.2104 142.748 83.2909C142.855 83.3187 142.982 83.3725 142.957 83.5096C142.937 83.6218 142.813 83.619 142.717 83.618C140.975 83.5959 139.233 83.571 137.491 83.5499C137.261 83.547 137.144 83.4636 137.252 83.2295C137.874 81.8752 137.589 80.4566 137.51 79.0667C137.327 75.9225 136.826 72.809 136.523 69.6754C136.515 69.6006 136.492 69.5277 136.449 69.3311L136.451 69.3339Z" fill="#CECECE"/>
<path d="M170.828 44.2605C170.811 44.0974 170.912 44.0754 171.039 44.0811C172.024 44.1272 173.01 44.1761 173.995 44.2183C174.565 44.2423 175.154 44.1722 175.7 44.2969C176.106 44.39 176.497 44.4466 176.905 44.4475C177.115 44.4475 177.32 44.4274 177.49 44.1991C177.125 44.1483 177.097 43.9372 177.127 43.6207C177.178 43.0817 177.157 42.5359 177.157 41.993C177.16 39.4368 177.152 36.8806 177.168 34.3244C177.17 34.0261 177.103 33.9253 176.807 33.9426C176.163 33.98 175.546 33.8371 174.929 33.6645C174.436 33.5263 173.921 33.7508 173.41 33.6203C173.095 33.5398 172.762 33.5302 172.461 33.346C172.661 33.3335 172.862 33.3211 173.062 33.3086C174.317 33.4323 175.571 33.557 176.827 33.6788C176.904 33.6865 176.994 33.6961 177.059 33.6654C177.729 33.3498 178.363 33.5388 179.007 33.7661C181.269 34.5632 183.606 35.0879 185.934 35.6356C186.151 35.6864 186.365 35.7516 186.58 35.8101C186.461 35.8399 186.301 35.7794 186.204 35.9866C186.775 35.9866 187.176 36.4844 187.746 36.3578C187.786 36.3492 187.868 36.4163 187.889 36.4662C188.002 36.7319 188.253 36.8249 188.483 36.918C188.799 37.0465 188.871 37.1645 188.564 37.3928C188.396 37.5175 188.392 37.717 188.406 37.9184C188.542 39.8473 188.489 41.7781 188.433 43.707C188.422 44.0945 188.562 44.2279 188.909 44.2557C189.127 44.2729 189.368 44.1933 189.566 44.3468C188.3 44.7784 186.984 44.7564 185.706 44.8772C184.197 45.0202 182.652 45.0451 181.124 44.7746C180.425 44.6509 179.692 44.7228 178.974 44.7075C178.882 44.7055 178.829 44.7621 178.787 44.835C177.47 44.7276 176.149 44.6432 174.834 44.5051C174.169 44.4351 173.493 44.5252 172.838 44.3458C172.323 44.1713 171.792 44.2816 171.269 44.2653C171.122 44.2634 170.974 44.2605 170.827 44.2586L170.828 44.2605Z" fill="#5F5F5F"/>
<path d="M87.8585 44.1428C87.4422 44.2704 87.0269 44.398 86.6106 44.5255C85.9506 44.5514 85.3617 44.7998 84.7891 45.102C84.6682 44.6262 85.0394 44.561 85.3416 44.4411C85.4279 44.4066 85.5468 44.4095 85.5622 44.2934C85.5813 44.1591 85.4797 44.0862 85.3684 44.0584C84.9301 43.9471 84.8773 43.6191 84.8821 43.2421C84.8888 42.6849 84.861 42.1257 84.8926 41.5703C84.909 41.2835 84.6807 40.8979 84.9301 40.7406C85.142 40.6063 85.5132 40.709 85.8125 40.731C86.3257 40.7675 86.5971 40.5881 86.6921 40.0845C86.7477 39.7891 86.7813 39.4841 86.7823 39.1839C86.7842 38.8127 86.648 39.1656 86.578 39.157C86.6739 38.4491 87.1679 38.1585 87.7817 37.9484C89.375 37.4027 91.0334 37.1264 92.6631 36.7341C94.8241 36.2133 96.9392 35.5342 99.0676 34.8992C99.4177 34.7947 99.764 34.6613 100.137 34.6508C100.45 34.7573 100.774 34.7573 101.065 34.6278C101.69 34.3496 102.382 34.3247 103.02 34.2873C103.504 34.2595 103.936 34.2431 104.373 34.0292C104.62 33.9084 104.836 34.0523 104.865 34.3151C104.896 34.5971 105.054 34.6431 105.278 34.67C105.436 34.6892 105.589 34.7438 105.746 34.7745C105.932 34.8119 106.167 34.8868 106.211 34.6134C106.25 34.3726 106.035 34.3055 105.837 34.2671C105.759 34.2518 105.674 34.2489 105.605 34.2124C105.448 34.13 105.441 33.9966 105.594 33.9237C106.074 33.6935 106.607 33.8384 107.129 33.7031C106.865 33.8249 106.846 34.0225 106.848 34.2412C106.852 34.7208 106.843 35.1994 106.848 35.679C106.851 35.9821 106.733 36.1433 106.413 36.1922C106.049 36.2478 105.685 36.2747 105.317 36.2843C105.194 36.2872 105.031 36.2929 105.028 36.4646C105.025 36.6382 105.188 36.6449 105.312 36.6497C105.6 36.6593 105.888 36.6526 106.233 36.6526C106.048 36.8943 105.732 36.8588 105.697 37.1379C104.721 37.3202 103.809 37.7087 102.886 38.0511C101.707 38.4885 100.554 38.994 99.3947 39.4803C97.0984 40.4423 94.6764 41.0418 92.3533 41.9242C91.0967 42.4009 90.5893 42.8738 90.7274 44.0546C90.7533 44.2781 90.7169 44.5514 90.4857 44.6387C89.9255 44.8497 89.3433 44.9667 88.6498 44.8555C88.9337 44.5514 89.1515 44.3251 89.3596 44.0891C89.4085 44.0344 89.4651 43.9395 89.4479 43.8838C89.4105 43.7611 89.2915 43.8148 89.2023 43.8272C88.7438 43.8877 88.2892 43.9711 87.8556 44.139L87.8585 44.1428Z" fill="#8F8F8F"/>
<path d="M86.0394 60.1606C85.8831 60.058 85.7008 60.0292 85.532 60.0676C84.92 60.2076 84.3771 59.9304 83.8064 59.8191C83.4563 59.751 83.3431 59.5467 83.3469 59.2081C83.3585 58.2816 83.3508 57.3541 83.3498 56.4265C83.3498 56.0457 83.3997 55.6573 83.1321 55.3244C83.0649 55.24 83.0314 55.1057 83.1311 55.0165C83.2088 54.9475 83.2712 55.0328 83.3249 55.0894C83.7661 55.5527 84.2965 55.3743 84.7992 55.2669C85.0255 55.218 85.2538 55.0904 85.4351 54.9417C85.8725 54.5811 86.3799 54.5015 86.9161 54.4976C87.5396 54.4928 88.1631 54.5053 88.7865 54.4919C89.246 54.4823 89.339 54.3547 89.2028 53.9336C89.1318 53.7159 89.1059 53.4991 89.1069 53.2737C89.1069 52.4268 89.1261 51.5789 89.0992 50.7329C89.0848 50.2811 89.27 50.0307 89.6671 49.8447C90.2551 49.5684 90.843 49.3843 91.5068 49.4025C92.1763 49.4207 92.8132 49.2778 93.4511 49.0006C94.7355 48.4404 96.1177 48.4021 97.4999 48.4625C97.6313 48.4682 97.7627 48.498 97.7943 48.6543C97.8308 48.8346 97.707 48.9162 97.5689 48.9737C97.1258 49.1569 96.6682 49.296 96.1963 49.3891C95.2918 49.5655 94.3786 49.7085 93.5202 50.0643C93.4031 50.1132 93.2832 50.1602 93.1739 50.2245C93.0703 50.2859 92.9044 50.3243 92.9398 50.4873C92.9801 50.6696 93.1557 50.6475 93.2947 50.6571C93.7619 50.6907 94.2156 50.611 94.6721 50.5161C96.0169 50.236 97.3636 49.9828 98.7506 50.1689C99.2379 50.2341 99.7118 50.1717 100.113 49.8475C100.368 49.6413 100.611 49.6145 100.894 49.8149C101.22 50.0451 101.585 50.1238 101.988 50.0173C102.387 49.9108 102.814 49.9454 103.208 49.7996C103.995 49.8015 104.79 49.8706 105.522 49.4706C105.625 49.414 105.768 49.4313 105.893 49.415C106.699 49.4687 107.434 49.9425 108.273 49.8188C108.363 49.8053 108.467 49.8581 108.486 49.9703C108.508 50.0912 108.413 50.1391 108.321 50.1669C108.11 50.2293 107.93 50.3166 107.916 50.5717C107.875 51.3045 107.846 52.0402 107.236 52.5793C106.371 52.2752 105.721 52.796 105.03 53.1548C104.809 53.1864 104.587 53.243 104.367 53.244C103.741 53.2469 103.141 53.3044 102.537 53.5221C102.152 53.6612 101.663 53.6488 101.3 53.3773C101.034 53.1778 100.866 53.2469 100.686 53.4377C100.32 53.8281 99.8767 53.9356 99.3482 53.9346C98.4878 53.9327 97.637 54.065 96.7901 54.2415C95.7906 54.4497 94.8333 54.8266 93.8175 54.959C93.6496 54.9811 93.4137 55.0357 93.3475 54.8401C93.2736 54.6214 93.5211 54.5667 93.6688 54.4996C94.5839 54.0852 95.5249 53.7418 96.4821 53.4358C97.0203 53.2632 97.6034 53.1682 98.0447 52.7615C98.1243 52.6886 98.2528 52.632 98.2058 52.4987C98.1588 52.3663 98.0188 52.3836 97.9142 52.3942C96.8994 52.493 95.805 52.3932 94.9062 52.8632C93.242 53.7332 91.3188 53.7092 89.6632 54.5465C89.622 54.5677 89.5712 54.5753 89.5242 54.582C89.2834 54.6147 89.2489 54.7441 89.3237 54.9561C89.4378 55.2803 89.4158 55.6218 89.3726 55.9527C89.2959 56.5407 89.2211 57.1248 89.4062 57.7061C89.4503 57.8461 89.41 57.9545 89.3007 58.0456C89.1175 58.1972 88.9918 58.412 88.7645 58.5175C88.681 58.5559 88.5784 58.6259 88.6465 58.7353C88.7079 58.8341 88.8441 58.8149 88.9026 58.7506C89.1155 58.5166 89.3342 58.5626 89.5884 58.6691C89.7352 58.7305 89.8378 58.5684 89.9615 58.5147C90.3049 58.366 90.5697 57.9699 91.0253 58.1435C89.9922 58.8226 88.9045 59.3539 87.6509 59.4873C87.3142 59.5228 87.0504 59.7664 86.7598 59.9295C86.5372 60.0541 86.3061 60.1597 86.0423 60.1645L86.0394 60.1606Z" fill="#848484"/>
<path d="M43.4316 78.4404C43.4316 77.5609 43.4181 76.6813 43.4373 75.8027C43.4498 75.2531 43.2349 74.8819 42.716 74.6929C42.3266 74.551 41.9343 74.4138 41.5467 74.2651C41.4479 74.2268 41.3022 74.1807 41.3098 74.0589C41.3194 73.8978 41.4806 73.9477 41.5794 73.9477C43.4814 73.9544 45.3835 73.9477 47.2837 74.0656C47.3863 74.0723 47.5408 74.034 47.5542 74.1865C47.5676 74.339 47.4093 74.3227 47.3105 74.3563C47.1139 74.4234 46.9173 74.4906 46.7216 74.5596C46.0972 74.7802 45.8343 75.2282 45.8372 75.8842C45.8487 77.8985 45.8295 79.9128 45.8506 81.9261C45.8554 82.3366 45.7087 82.5649 45.3682 82.7634C44.4397 83.3063 43.4344 83.6085 42.3793 83.7313C40.5147 83.948 38.6366 83.9787 36.7815 83.7207C33.1557 83.2162 30.6551 81.1607 29.3074 77.8083C28.0614 74.7092 27.9761 71.5603 29.6431 68.5523C30.962 66.1716 33.1097 64.8642 35.6947 64.2072C37.5642 63.7324 39.4605 63.7123 41.3626 63.931C42.7755 64.0931 44.1826 64.3002 45.5936 64.4739C45.8468 64.5055 45.9629 64.5851 45.9427 64.8595C45.8449 66.1841 45.6128 67.4914 45.4276 68.8045C45.4152 68.8938 45.4104 69.0117 45.2828 69.0136C45.1821 69.0146 45.1677 68.9177 45.1533 68.841C44.5951 65.881 41.8182 64.6014 38.9723 64.6782C35.1173 64.7818 31.9654 67.1087 30.9975 70.58C29.9462 74.3515 31.5893 78.7723 34.8602 80.965C36.9906 82.3932 39.3128 82.9188 41.8451 82.4229C42.0321 82.3865 42.2172 82.3289 42.3947 82.2599C43.2877 81.9107 43.4335 81.6921 43.4316 80.7425C43.4296 79.9751 43.4316 79.2078 43.4316 78.4404V78.4404Z" fill="#CECECE"/>
<path d="M91.0216 58.1507C90.566 57.9771 90.3013 58.3723 89.9579 58.5219C89.8341 58.5757 89.7315 58.7378 89.5847 58.6764C89.3306 58.5699 89.1119 58.5239 88.8989 58.7579C88.8404 58.8222 88.7042 58.8414 88.6428 58.7426C88.5747 58.6332 88.6773 58.5632 88.7608 58.5248C88.9881 58.4203 89.1138 58.2054 89.297 58.0529C89.4073 57.9618 89.4476 57.8544 89.4025 57.7134C89.2183 57.1321 89.2922 56.5489 89.3689 55.96C89.4121 55.6291 89.4341 55.2876 89.32 54.9634C89.2452 54.7514 89.2797 54.6219 89.5205 54.5893C89.5675 54.5826 89.6174 54.5749 89.6596 54.5538C91.3142 53.7155 93.2383 53.7405 94.9025 52.8705C95.8003 52.4005 96.8957 52.5002 97.9105 52.4014C98.0151 52.3909 98.1551 52.3746 98.2021 52.506C98.2491 52.6393 98.1206 52.6959 98.041 52.7688C97.5998 53.1755 97.0166 53.2714 96.4785 53.4431C95.5212 53.7491 94.5802 54.0925 93.6652 54.5068C93.5174 54.574 93.27 54.6286 93.3438 54.8473C93.41 55.043 93.646 54.9883 93.8138 54.9663C94.8296 54.8339 95.7869 54.4579 96.7864 54.2488C97.6333 54.0723 98.4832 53.939 99.3445 53.9419C99.8731 53.9428 100.316 53.8354 100.683 53.445C100.862 53.2541 101.031 53.1851 101.297 53.3846C101.659 53.657 102.148 53.6685 102.533 53.5294C103.137 53.3107 103.738 53.2542 104.363 53.2513C104.585 53.2503 104.805 53.1937 105.026 53.1621C105.394 53.2254 105.515 53.4594 105.508 53.8133C105.496 54.3869 105.496 54.9615 105.508 55.536C105.517 55.9149 105.508 56.2727 105.049 56.4492C105.264 56.5604 105.507 56.4108 105.604 56.6544C105.284 56.594 104.975 56.6046 104.663 56.7264C104.311 56.8655 103.942 56.8501 103.578 56.758C103.101 56.6362 102.665 56.7235 102.251 56.9873C101.705 57.3345 101.109 57.557 100.472 57.6702C99.9201 57.768 99.3743 57.8793 98.8582 58.1095C98.4822 58.2774 98.1091 58.2438 97.7504 58.052C97.4636 57.8985 97.2362 57.9484 97.0463 58.2179C96.8315 58.5219 96.5283 58.6917 96.16 58.7291C94.491 58.9008 92.9122 59.4025 91.3545 59.9981C91.0283 60.1228 90.6801 60.1938 90.3377 60.2696C90.2063 60.2983 90.0202 60.3319 89.9646 60.1573C89.9128 59.9933 90.0672 59.9032 90.1881 59.8283C91.0053 59.32 91.8715 58.9162 92.7702 58.5747C93.3505 58.3541 93.9539 58.1671 94.4152 57.7182C94.5016 57.6347 94.6167 57.5541 94.5869 57.3585C93.364 57.4851 92.1679 57.7076 91.0178 58.1479L91.0216 58.1507Z" fill="#8E8E8E"/>
<path d="M91.8869 78.6241C91.8869 76.7796 91.8936 74.962 91.885 73.1434C91.8783 71.8648 91.8437 70.5862 91.8332 69.3086C91.8255 68.406 91.7133 67.7893 90.5181 67.7097C90.4117 67.7029 90.3033 67.6492 90.2064 67.5984C90.1364 67.5619 90.0779 67.4823 90.1258 67.4018C90.1488 67.3624 90.2342 67.3356 90.287 67.3413C91.578 67.4967 92.8749 67.326 94.1669 67.4219C94.2571 67.4286 94.3789 67.4114 94.4009 67.5351C94.424 67.6646 94.3031 67.6962 94.2168 67.7068C93.2394 67.8334 93.1195 68.4549 93.13 69.3163C93.1665 72.5276 93.2307 75.7399 93.1175 78.9512C93.0878 79.7972 93.0216 80.6422 92.9612 81.4863C92.9516 81.6177 93.0168 81.8086 92.8451 81.869C92.6849 81.9247 92.5986 81.753 92.495 81.6638C90.0894 79.5737 87.9197 77.2506 85.7931 74.8853C84.597 73.5549 83.4316 72.1967 82.2489 70.8529C82.1367 70.7253 82.0532 70.5632 81.8422 70.4798C81.6955 71.4763 81.7501 72.4585 81.7751 73.4379C81.8288 75.5308 81.9688 77.6199 81.9698 79.7147C81.9698 80.7008 82.1578 80.9099 83.094 81.1909C83.3606 81.2705 83.7971 81.3492 83.7577 81.6168C83.7213 81.8652 83.3155 81.6743 83.0863 81.6455C81.8729 81.4969 80.6653 81.4604 79.4586 81.6945C79.356 81.7146 79.2207 81.7789 79.1651 81.636C79.1123 81.4998 79.2572 81.4499 79.3358 81.3818C79.4203 81.3089 79.5114 81.235 79.613 81.1947C80.4869 80.8408 80.7008 80.1751 80.6921 79.2764C80.6566 75.4569 80.6768 71.6365 80.6768 67.8171C80.6768 67.7528 80.6691 67.6886 80.6768 67.6252C80.7027 67.4133 80.767 67.1831 80.955 67.0987C81.1526 67.0104 81.2379 67.2588 81.3492 67.3749C84.8196 70.9766 88.2381 74.6263 91.58 78.3479C91.672 78.4505 91.7382 78.5896 91.8879 78.6241H91.8869Z" fill="#CECECE"/>
<path d="M95.8256 81.5302C95.8745 81.4698 95.8908 81.4295 95.9129 81.4247C96.9997 81.2252 97.1464 80.4281 97.1445 79.5179C97.1388 76.0034 97.1426 72.489 97.1407 68.9746C97.1407 68.1631 96.9891 67.9857 96.194 67.7881C95.9772 67.7344 95.6184 67.7612 95.6578 67.4543C95.6817 67.2634 96.0223 67.3498 96.2083 67.3699C98.3176 67.5991 100.419 67.391 102.525 67.3056C106.975 67.1253 110.262 70.5486 109.964 75.005C109.838 76.8888 109.285 78.5808 107.885 79.9073C106.559 81.1629 104.907 81.6463 103.141 81.8506C101.492 82.0415 99.8562 81.7892 98.215 81.7154C97.5771 81.6866 96.9393 81.6597 96.3014 81.6271C96.1498 81.6194 95.9829 81.6751 95.8256 81.5302V81.5302ZM98.9843 74.0132C98.9843 75.5632 98.9843 77.1142 98.9843 78.6642C98.9843 78.9999 98.9756 79.3347 99.0476 79.6666C99.2202 80.4588 99.6279 80.8569 100.43 80.9835C101.402 81.1379 102.375 81.1024 103.34 80.9279C104.885 80.6497 106.275 80.0416 107.155 78.6844C108.587 76.4763 108.522 74.1292 107.45 71.8243C106.139 69.0053 102.216 67.4035 99.2663 68.3665C98.9631 68.4653 98.9823 68.6571 98.9823 68.8816C98.9823 70.5918 98.9823 72.302 98.9833 74.0122L98.9843 74.0132Z" fill="#CECECE"/>
<path d="M178.791 44.8237C178.832 44.7508 178.886 44.6942 178.977 44.6962C179.695 44.7115 180.428 44.6396 181.128 44.7633C182.656 45.0338 184.202 45.0088 185.71 44.8659C186.987 44.7451 188.302 44.7671 189.569 44.3355C189.372 44.182 189.13 44.2616 188.912 44.2444C188.565 44.2166 188.425 44.0832 188.437 43.6957C188.492 41.7659 188.545 39.835 188.41 37.9071C188.395 37.7057 188.399 37.5071 188.567 37.3815C188.874 37.1532 188.802 37.0352 188.487 36.9067C188.256 36.8127 188.006 36.7206 187.893 36.4549C187.872 36.405 187.789 36.3379 187.75 36.3465C187.179 36.4731 186.778 35.9753 186.207 35.9753C186.304 35.7681 186.464 35.8286 186.584 35.7988C188.577 36.3158 190.601 36.7187 192.557 37.3786C193.707 37.7671 194.852 38.1699 195.962 38.6639C196.822 39.0466 197.497 39.6183 197.931 40.4719C198.081 40.7683 198.021 40.8671 197.71 40.894C197.197 40.9391 196.692 40.9419 196.2 40.7482C195.328 40.4048 194.424 40.2437 193.481 40.2945C193.169 40.3118 193.118 40.4067 193.273 40.6647C193.627 41.2594 194.172 41.5913 194.801 41.8301C197.173 42.7337 199.542 43.6449 201.909 44.5628C202.087 44.6319 202.414 44.654 202.378 44.8707C202.345 45.0664 202.039 45.1249 201.81 45.145C201.176 45.1988 200.574 45.0837 199.99 44.8295C197.739 43.8482 195.343 43.3447 192.983 42.7193C192.911 42.7001 192.83 42.6675 192.735 42.7663C192.919 43.0445 193.172 43.2478 193.473 43.3936C194.019 43.6583 194.566 43.9211 195.116 44.1744C195.561 44.3787 195.93 44.6741 196.247 45.0424C196.309 45.1144 196.4 45.1786 196.355 45.286C196.311 45.3906 196.198 45.3877 196.105 45.3887C195.834 45.3916 195.55 45.4395 195.294 45.3753C193.502 44.9264 191.68 45.0136 189.86 45.0194C188.934 45.0223 188.009 45.0213 187.083 45.0223C185.298 45.0223 183.512 45.0223 181.727 45.0223C180.743 45.0501 179.764 44.9945 178.793 44.8247L178.791 44.8237Z" fill="#5A5A5A"/>
<path d="M82.2002 53.3556C79.9154 54.9277 77.7409 56.6437 75.6 58.4038C74.917 58.9659 74.2351 59.5289 73.5521 60.0919C73.3046 59.5366 73.1895 59.4608 72.6083 59.6852C72.0941 59.8838 71.6289 59.9298 71.1685 59.5797C71.0064 59.457 70.8395 59.5337 70.6697 59.5884C69.748 59.8847 69.2837 59.7178 68.7705 58.9131C68.6842 58.7788 68.6151 58.6158 68.4607 58.5611C67.9658 58.3836 67.4919 58.2071 67.1994 57.7065C67.1006 57.5367 66.8176 57.5789 66.6123 57.5942C66.3428 57.6144 66.0752 57.6556 65.8066 57.6873C65.5831 57.5309 65.8095 57.4791 65.8814 57.4197C66.596 56.8365 67.302 56.2428 68.0367 55.6864C69.5331 54.5546 71.0112 53.3959 72.6016 52.3945C72.6361 52.3945 72.6706 52.3945 72.7061 52.3955C73.2193 52.6621 73.7401 52.7993 74.306 52.5413C74.3924 52.502 74.5593 52.5135 74.6226 52.572C75.1242 53.041 75.6758 52.9777 76.2724 52.8031C76.5784 52.7139 76.87 52.7763 76.9477 53.1945C77.0129 53.5427 77.2901 53.7038 77.6085 53.8151C78.3452 54.0712 79.0205 53.8036 79.7005 53.5868C80.3845 53.3691 81.0818 53.2252 81.7954 53.1715C81.9412 53.1609 82.1714 53.064 82.1983 53.3556H82.2002Z" fill="#909090"/>
<path d="M48.1821 67.4367C48.302 67.2794 48.4756 67.3533 48.6214 67.3533C50.2511 67.3475 51.8817 67.3485 53.5114 67.3513C54.2538 67.3533 54.9799 67.477 55.6629 67.7647C57.4096 68.5014 58.1434 70.2787 57.5084 72.2009C57.165 73.2416 56.5214 74.0953 55.7751 74.8713C55.5382 75.1178 55.5286 75.2473 55.7444 75.5283C56.7957 76.8952 57.7434 78.3425 58.9193 79.6115C59.4105 80.141 59.9534 80.6062 60.5807 80.9745C61.0612 81.2565 61.5667 81.4215 62.1259 81.4177C62.2305 81.4177 62.3763 81.362 62.4127 81.5107C62.4578 81.6949 62.2756 81.6968 62.1701 81.7419C60.6728 82.3903 59.0632 82.0632 57.8441 80.8671C57.2465 80.2811 56.7842 79.5904 56.319 78.9017C55.6284 77.8802 54.9339 76.8664 53.826 76.2295C53.1824 75.8602 52.4899 75.8343 51.782 75.8612C51.5796 75.8688 51.5105 75.9811 51.5115 76.1738C51.5182 77.3882 51.4942 78.6034 51.5336 79.8168C51.5585 80.5851 52.0995 81.2028 52.8294 81.4311C52.957 81.4714 53.1191 81.4474 53.1862 81.6066C53.0932 81.7678 52.9522 81.715 52.8352 81.7016C51.4789 81.5452 50.1245 81.5548 48.7711 81.7342C48.6445 81.7505 48.4545 81.8483 48.3932 81.6671C48.3414 81.5126 48.5409 81.4896 48.6358 81.4234C49.3255 80.941 49.6833 80.3089 49.6794 79.4427C49.6631 76.1988 49.6507 72.9539 49.6881 69.7109C49.7005 68.6616 49.3322 67.9566 48.3318 67.6074C48.2876 67.5921 48.2464 67.5624 48.2128 67.5297C48.1936 67.5115 48.1927 67.4741 48.1821 67.4377V67.4367ZM51.5384 71.4288C51.5384 72.3861 51.5499 73.3433 51.5316 74.2996C51.5249 74.6238 51.6352 74.7447 51.9566 74.7754C52.5139 74.8272 53.0711 74.8646 53.6284 74.8252C54.7939 74.7447 55.4547 74.1903 55.7089 73.0632C55.9315 72.0782 55.8902 71.0988 55.5305 70.1445C54.9444 68.5906 53.6169 67.7964 52.087 68.0583C51.6976 68.1254 51.5105 68.2578 51.5288 68.7019C51.5662 69.6092 51.5403 70.5195 51.5384 71.4288V71.4288Z" fill="#CECECE"/>
<path d="M154.137 81.6184C154.039 81.7843 153.884 81.7037 153.753 81.6913C152.445 81.5656 151.137 81.5483 149.831 81.7287C149.682 81.7488 149.463 81.8466 149.39 81.6913C149.291 81.4822 149.561 81.4706 149.672 81.3872C150.296 80.9181 150.662 80.3302 150.661 79.5206C150.653 76.1645 150.651 72.8083 150.666 69.4531C150.669 68.5688 150.241 68.0182 149.474 67.6652C149.36 67.6124 149.134 67.6326 149.185 67.4292C149.223 67.2777 149.406 67.3563 149.523 67.3563C151.233 67.3515 152.943 67.342 154.653 67.3563C155.344 67.3621 156.018 67.5041 156.66 67.7707C158.468 68.5227 159.182 70.4622 158.386 72.486C158.018 73.4231 157.399 74.1962 156.721 74.9252C156.596 75.0595 156.42 75.1477 156.612 75.3914C157.609 76.6584 158.497 78.0109 159.554 79.2319C160.164 79.936 160.832 80.5728 161.655 81.0313C162.083 81.2692 162.534 81.4035 163.023 81.4217C163.152 81.4265 163.355 81.3287 163.394 81.5234C163.431 81.7124 163.216 81.7171 163.094 81.7622C161.562 82.3272 160.175 82.0989 158.956 80.9891C158.264 80.3589 157.751 79.5849 157.237 78.8137C156.793 78.1481 156.332 77.4968 155.753 76.9385C154.981 76.1952 154.089 75.7818 152.988 75.8518C152.631 75.8738 152.482 75.9448 152.492 76.339C152.519 77.4095 152.498 78.4799 152.501 79.5513C152.503 80.5354 152.965 81.1503 153.921 81.4601C154.009 81.4889 154.113 81.4927 154.135 81.6193L154.137 81.6184ZM152.523 71.4635C152.523 72.4227 152.531 73.3819 152.518 74.3411C152.514 74.6192 152.597 74.7334 152.885 74.7641C153.491 74.8283 154.097 74.8705 154.704 74.8178C155.632 74.7372 156.309 74.3056 156.592 73.379C157.011 72.0103 156.907 70.6856 156.156 69.455C155.451 68.3011 154.319 67.8254 153.044 68.0623C152.68 68.1304 152.497 68.2618 152.512 68.6829C152.547 69.6085 152.523 70.537 152.523 71.4645V71.4635Z" fill="#CECECE"/>
<path d="M57.9343 58.5516C57.6053 58.8509 57.2005 58.9267 56.7775 58.9238C56.1857 58.9199 55.5986 58.9468 55.0107 59.0187C54.5407 59.0753 54.0956 59.1943 53.7196 59.482C53.3589 59.7583 52.9561 59.8609 52.5158 59.8849C51.6928 59.93 51.0597 60.257 50.6732 61.0369C50.2128 61.9653 49.4483 62.6272 48.5754 63.1528C47.9903 63.5058 47.4378 63.9297 46.7683 64.1283C46.5899 64.181 46.3779 64.2875 46.2283 64.1187C46.0882 63.9614 46.2571 63.7897 46.3041 63.6285C46.5189 62.8967 47.0858 62.395 47.527 61.8186C48.6685 60.329 50.0881 59.106 51.4722 57.8543C53.0242 56.451 54.6711 55.1619 56.3516 53.9178C57.9036 52.7687 59.4489 51.6091 61.0795 50.5703C61.2128 50.6672 61.3471 50.6029 61.4804 50.5703C61.6953 51.5544 61.6838 52.5529 61.6751 53.5524C61.6646 54.7159 61.6751 55.8794 61.6694 57.0419C61.6675 57.4131 61.3087 57.8543 61.0277 57.7699C60.6776 57.6644 60.4838 57.8111 60.2133 57.9761C60.0301 58.0883 59.6771 58.354 59.4987 58.0855C59.3357 57.8399 59.2148 57.8687 59.0517 57.9656C58.7765 58.1277 58.5117 58.285 58.176 58.2869C58.035 58.2869 57.9707 58.4212 57.9352 58.5516H57.9343Z" fill="#BFBFBF"/>
<path d="M57.9341 58.5453C57.9696 58.4149 58.0338 58.2815 58.1748 58.2806C58.5105 58.2787 58.7753 58.1213 59.0506 57.9592C59.2136 57.8633 59.3345 57.8346 59.4976 58.0791C59.6769 58.3477 60.0289 58.082 60.2122 57.9698C60.4826 57.8048 60.6754 57.6581 61.0265 57.7636C61.3076 57.848 61.6663 57.4068 61.6682 57.0356C61.674 55.8721 61.6634 54.7086 61.674 53.5461C61.6826 52.5466 61.6941 51.5481 61.4792 50.564C61.5752 50.5352 61.672 50.5055 61.768 50.4757C61.7613 50.5218 61.7469 50.6081 61.7478 50.6081C62.3991 50.7213 63.0552 50.6992 63.7027 50.61C63.8216 50.5937 63.6528 50.5055 63.5856 50.4748C63.9309 50.3299 64.2801 50.2724 64.658 50.3511C65.0052 50.4239 65.3544 50.4096 65.6824 50.2292C65.9443 50.0854 66.2052 50.0873 66.4287 50.3156C66.9802 50.8767 67.6325 50.8863 68.2742 50.564C68.936 50.2312 69.642 50.2887 70.3317 50.212C70.6463 50.1765 70.9139 50.3606 71.0837 50.6436C71.2103 50.8546 71.3618 51.0407 71.6045 51.1136C72.2433 51.3054 72.4697 51.8128 72.6021 52.3951C71.0117 53.3964 69.5336 54.5542 68.0373 55.687C67.3025 56.2433 66.5956 56.837 65.882 57.4202C65.8091 57.4797 65.5836 57.5315 65.8071 57.6878C65.3055 57.7751 64.8518 57.9717 64.3875 58.1895C63.8513 58.4408 63.247 58.5041 62.7396 58.0293C62.5372 57.8403 62.3099 57.8326 62.0787 57.9583C61.6308 58.201 61.1781 58.2499 60.6582 58.2096C60.1354 58.1693 59.6222 58.4532 59.0726 58.4782C58.6947 58.4954 58.3139 58.5328 57.9331 58.5472L57.9341 58.5453Z" fill="#BBBBBB"/>
<path d="M138.502 30.5306C138.247 30.5306 137.992 30.5306 137.737 30.5316H132.391C132.391 30.5795 132.39 30.6275 132.39 30.6754H135.261C134.183 30.9325 133.108 31.0543 132.046 31.2807C131.659 31.3641 131.333 31.6356 130.904 31.5934C130.399 31.5435 129.906 31.695 129.467 31.9089C129.071 32.1017 128.712 32.1756 128.277 32.0979C127.841 32.0193 127.622 32.2696 127.697 32.7051C127.734 32.9161 127.692 33.0532 127.493 33.1223C127.287 33.1933 127.142 33.3065 127.037 33.5108C126.941 33.6978 126.776 33.7036 126.688 33.4868C126.643 33.3765 126.796 33.1664 126.544 33.1655C126.32 33.1645 126.206 33.3295 126.157 33.528C126.112 33.7093 126.046 33.8599 125.842 33.906C125.13 34.0661 124.485 34.376 123.819 34.6704C123.046 35.0119 122.203 35.2689 121.377 35.479C120.263 35.762 119.189 36.16 118.087 36.4689C117.26 36.701 116.487 37.1326 115.655 37.3331C114.394 37.6381 113.23 38.204 111.986 38.5512C110.867 38.8639 109.803 39.357 108.673 39.6428C108.63 39.3618 108.417 39.3464 108.204 39.3589C107.777 39.3829 107.35 39.4193 106.922 39.4519C106.721 39.4673 106.446 39.4337 106.452 39.7224C106.459 40.0226 106.73 40.0265 106.958 40.0082C107.161 39.9919 107.371 39.8998 107.522 40.1214C106.901 40.4226 106.292 40.7535 105.604 40.8888C106.047 40.5118 106.133 40.0217 106.089 39.4701C106.06 39.0913 106.075 38.7076 106.087 38.3258C106.111 37.5547 106.439 37.1432 107.185 36.9398C107.359 36.8919 107.512 36.819 107.618 36.6684C108.909 36.349 110.206 36.0516 111.49 35.7044C112.655 35.3898 113.827 35.1107 115.004 34.845C115.934 34.6368 116.864 34.4287 117.793 34.2196C118.785 33.9961 119.776 33.7678 120.769 33.5501C121.405 33.4101 122.046 33.2911 122.682 33.153C123.693 32.9324 124.703 32.7041 125.713 32.4768C126.376 32.3272 127.068 32.2379 127.515 31.6222C127.574 31.5397 127.734 31.5176 127.686 31.3728C127.637 31.227 127.496 31.2087 127.368 31.2097C127.194 31.2116 126.999 31.1886 126.849 31.2577C126.492 31.4217 126.169 31.3718 125.843 31.2011C125.843 31.1426 125.843 31.0831 125.843 31.0246C126.722 30.781 127.629 30.7838 128.529 30.7205C128.866 30.8481 129.197 30.9172 129.492 30.6217C129.521 30.6112 129.549 30.6102 129.579 30.6179C130.191 30.9239 130.787 30.7042 131.385 30.5268H130.822C130.994 30.499 131.166 30.4481 131.338 30.4472C133.728 30.4414 136.117 30.4424 138.506 30.4414C138.506 30.4711 138.506 30.5009 138.505 30.5306H138.502Z" fill="#7F7F7F"/>
<path d="M72.6024 52.4057C72.47 51.8235 72.2436 51.3161 71.6048 51.1242C71.3621 51.0513 71.2096 50.8653 71.084 50.6542C70.9142 50.3713 70.6475 50.1881 70.332 50.2226C69.6423 50.2993 68.9363 50.2418 68.2745 50.5746C67.6337 50.8969 66.9805 50.8873 66.429 50.3262C66.2055 50.0989 65.9446 50.097 65.6827 50.2399C65.3547 50.4202 65.0065 50.4336 64.6583 50.3617C64.2804 50.283 63.9313 50.3406 63.5859 50.4854C62.9797 50.4854 62.3745 50.4854 61.7683 50.4864C61.6724 50.5161 61.5755 50.5449 61.4796 50.5746C61.3462 50.6063 61.2119 50.6706 61.0786 50.5746C64.3178 48.3896 67.6587 46.3763 71.1502 44.6172C71.2691 44.8205 71.46 44.9356 71.6662 45.0277C71.9444 45.1524 72.1113 45.3605 72.2283 45.6445C72.5822 46.5068 73.0215 46.7475 73.9568 46.619C74.1313 46.595 74.3251 46.525 74.4594 46.666C74.9917 47.2242 75.6258 47.0439 76.2521 46.9394C76.3893 47.0103 76.584 47.041 76.6051 47.2214C76.654 47.6338 76.8487 47.8947 77.2286 48.0913C77.6544 48.3129 78.0746 48.2985 78.5158 48.2419C78.6251 48.2275 78.7335 48.2055 78.8419 48.1863C79.0146 48.4174 78.7777 48.4481 78.6664 48.4971C78.418 48.6074 78.183 48.7349 77.9489 48.8731C76.301 49.8457 74.7279 50.9324 73.1223 51.9702C72.9506 52.0815 72.753 52.1726 72.7069 52.4057C72.6724 52.4057 72.6379 52.4057 72.6024 52.4047V52.4057Z" fill="#949494"/>
<path d="M107.234 52.5898C107.845 52.0507 107.874 51.3141 107.915 50.5822C107.929 50.3271 108.108 50.2398 108.319 50.1774C108.412 50.1496 108.506 50.1017 108.485 49.9808C108.466 49.8676 108.362 49.8158 108.271 49.8293C107.433 49.953 106.698 49.4792 105.892 49.4255C106.165 49.2845 106.48 49.2586 106.724 49.3967C107.16 49.6422 107.612 49.6173 108.073 49.6163C108.315 49.6163 108.562 49.624 108.778 49.7238C109.556 50.0844 110.383 50.0892 111.212 50.0969C112.36 50.1074 113.512 50.0681 114.656 50.1487C115.678 50.2206 116.651 50.1669 117.607 49.765C118.224 49.506 118.87 49.3219 119.561 49.5118C120.126 49.6672 120.708 49.6624 121.265 49.4945C121.825 49.3257 122.408 49.272 122.963 49.0399C123.378 48.8663 123.794 48.6293 124.249 48.566C124.911 48.4739 125.578 48.3972 126.245 48.3809C126.888 48.3646 127.381 47.979 127.954 47.7958C128.402 47.7958 128.849 47.7958 129.297 47.7958C129.632 48.0203 129.937 48.0874 130.357 47.9023C130.829 47.6951 131.316 47.4284 131.847 47.4227C133.698 47.4025 135.549 47.3958 137.399 47.4323C137.775 47.44 138.23 47.3373 138.54 47.65C138.775 47.8879 138.902 47.839 139.123 47.6404C139.508 47.2922 139.777 47.3594 139.943 47.7949C139.76 47.8265 139.575 47.8486 139.394 47.8908C139.201 47.9368 138.933 47.8706 138.897 48.1852C137.702 48.4941 136.481 48.6313 135.257 48.7435C133.031 48.9468 130.801 49.1156 128.577 49.3343C127.915 49.3996 127.264 49.5789 126.608 49.7065C126.403 49.4734 126.169 49.53 125.908 49.6058C124.652 49.9741 123.551 50.7223 122.284 51.0743C121.333 51.3381 120.403 51.6805 119.389 51.4886C119.269 51.4656 119.13 51.4752 119.015 51.5126C118.334 51.7371 117.655 51.9682 117.018 52.3039C116.902 52.3845 116.77 52.3989 116.635 52.3999C116.055 52.5082 115.469 52.4929 114.883 52.4987C114.57 52.5015 114.247 52.4325 113.949 52.5907C113.446 52.7711 112.925 52.6521 112.414 52.6867C111.391 52.6157 110.368 52.8152 109.345 52.6867C108.985 52.5773 108.625 52.5639 108.261 52.6684C107.912 52.7691 107.567 52.7365 107.234 52.5907V52.5898ZM129.725 48.332C129.447 48.3051 129.204 48.5555 128.904 48.6466C128.8 48.6783 128.598 48.636 128.66 48.8308C128.702 48.9631 128.879 48.9583 128.997 48.918C129.267 48.826 129.523 48.7166 129.824 48.7991C129.974 48.8394 130.181 48.824 130.163 48.5948C130.147 48.402 129.997 48.2975 129.725 48.332V48.332ZM126.913 49.0044C127.015 49.1147 127.153 49.0571 127.27 49.084C127.45 49.1243 127.66 49.2 127.772 48.9737C127.826 48.8643 127.737 48.7607 127.655 48.685C127.471 48.5133 127.304 48.6063 127.152 48.7377C127.063 48.8154 126.914 48.8442 126.912 49.0044H126.913Z" fill="#7D7D7D"/>
<path d="M187.591 74.5901C187.751 74.5632 187.826 74.5383 187.9 74.5393C189.242 74.5565 190.584 74.5747 191.926 74.6016C192.055 74.6045 192.264 74.546 192.298 74.7177C192.336 74.9152 192.114 74.8913 191.992 74.9335C191.194 75.2107 191.072 75.3776 191.072 76.2207C191.072 77.6115 191.063 79.0013 191.079 80.3912C191.083 80.701 190.988 80.9005 190.724 81.055C190.406 81.241 190.091 81.4463 189.734 81.5307C187.116 82.1551 184.525 82.1407 182.051 80.9725C179.587 79.809 178.465 77.7151 178.236 75.0793C178.045 72.8828 178.48 70.8618 180.082 69.2456C181.552 67.7617 183.423 67.1843 185.462 67.0634C187.281 66.955 189.055 67.3493 190.846 67.5545C191.133 67.5871 191.16 67.7559 191.153 67.989C191.121 68.9357 190.881 69.8537 190.781 70.7898C190.772 70.8704 190.754 70.9596 190.663 70.9778C190.556 70.9989 190.53 70.9021 190.518 70.8282C190.047 68.0715 186.989 67.4509 184.848 67.8835C181.351 68.5904 179.372 71.5907 180.045 75.2251C180.67 78.5918 183.715 81.0377 187.115 80.8948C187.727 80.8689 188.315 80.7365 188.862 80.443C189.129 80.3001 189.243 80.113 189.238 79.7946C189.22 78.5486 189.212 77.3017 189.24 76.0557C189.252 75.5195 189.032 75.2308 188.544 75.0591C188.24 74.9527 187.884 74.9316 187.589 74.5872L187.591 74.5901Z" fill="#CECECE"/>
<path d="M201.082 69.7697C200.938 69.7256 200.961 69.598 200.945 69.4925C200.843 68.7971 200.423 68.4394 199.747 68.3118C198.874 68.1459 197.994 68.2571 197.118 68.2207C196.928 68.213 196.873 68.306 196.873 68.4825C196.876 70.0805 196.878 71.6785 196.873 73.2775C196.873 73.4866 196.951 73.5729 197.153 73.5585C198.443 73.4635 199.78 73.8386 201.014 73.1652C201.245 73.0396 201.382 73.1173 201.346 73.4041C201.252 74.181 201.161 74.9579 201.066 75.7349C201.055 75.825 201.056 75.9516 200.927 75.944C200.866 75.9401 200.801 75.8596 200.753 75.802C200.713 75.755 200.677 75.6917 200.669 75.6313C200.558 74.7642 199.963 74.558 199.207 74.51C198.552 74.4678 197.898 74.4831 197.243 74.4659C197.005 74.4601 196.898 74.5282 196.899 74.7882C196.907 76.4025 196.904 78.0167 196.902 79.6301C196.902 79.7826 196.952 79.9044 197.045 80.0233C197.916 81.1437 200.09 81.3278 201.125 80.3667C201.425 80.0876 201.619 79.7433 201.742 79.3558C201.765 79.2819 201.794 79.185 201.889 79.1965C202.026 79.2138 201.996 79.3327 201.982 79.4219C201.884 80.0694 201.785 80.7168 201.681 81.3633C201.616 81.7719 201.271 81.7268 201.004 81.7288C200.173 81.7355 199.343 81.7144 198.512 81.6962C197.089 81.6655 195.668 81.6539 194.246 81.7077C194.124 81.7125 193.914 81.817 193.884 81.6175C193.857 81.4391 194.071 81.4986 194.179 81.465C194.641 81.324 194.902 80.9979 194.992 80.5451C195.053 80.2344 195.074 79.9111 195.074 79.5927C195.08 76.0763 195.078 72.5609 195.078 69.0446C195.078 68.2226 195.003 68.1305 194.216 67.8264C193.976 67.7334 193.53 67.7113 193.578 67.4552C193.624 67.2039 194.049 67.3565 194.302 67.3545C196.428 67.3421 198.553 67.3469 200.679 67.343C200.836 67.343 200.999 67.3286 201.151 67.2893C201.653 67.1589 201.669 67.1617 201.579 67.6624C201.471 68.2753 201.349 68.8863 201.231 69.4983C201.211 69.6038 201.212 69.7247 201.08 69.7697H201.082Z" fill="#CECECE"/>
<path d="M67.8554 81.7037C66.455 81.5196 65.0555 81.5378 63.6167 81.7143C63.6819 81.4313 63.8507 81.4496 63.9726 81.4227C64.8234 81.2338 65.3855 80.7129 65.7106 79.9226C66.5777 77.8095 67.3576 75.6628 68.1268 73.5124C68.8472 71.4981 69.5627 69.4809 70.286 67.4676C70.3349 67.3314 70.3205 67.0974 70.5277 67.1099C70.6821 67.1194 70.6888 67.3305 70.7378 67.458C71.8974 70.4679 72.966 73.5133 74.2474 76.4762C74.7798 77.7078 75.3822 78.9068 75.9893 80.1038C76.3404 80.7954 76.868 81.2232 77.6363 81.3527C77.7523 81.3719 77.9519 81.3431 77.9384 81.509C77.9231 81.7009 77.714 81.6567 77.5845 81.6472C76.1956 81.5388 74.8086 81.5052 73.4235 81.6865C73.3468 81.697 73.247 81.7085 73.2115 81.6232C73.1616 81.5023 73.2787 81.4668 73.3535 81.416C73.3669 81.4074 73.3823 81.4016 73.3957 81.393C73.6566 81.227 74.1007 81.205 74.1487 80.8942C74.1918 80.6141 73.9856 80.2909 73.8714 79.9935C73.4245 78.831 72.9631 77.6733 72.5238 76.5079C72.4269 76.2518 72.3147 76.1252 72.0154 76.13C70.9133 76.1472 69.8102 76.1444 68.7071 76.13C68.4386 76.1261 68.3033 76.2211 68.2141 76.4686C67.7786 77.6867 67.3211 78.8972 67.0027 80.1537C66.7705 81.0688 66.8137 81.1436 67.7201 81.4515C67.7758 81.4707 67.8228 81.5138 67.8736 81.5455C67.8679 81.5982 67.8611 81.651 67.8554 81.7037V81.7037ZM70.4356 70.0651C70.402 70.0612 70.3685 70.0584 70.3349 70.0545C69.7997 71.7091 69.2673 73.3656 68.7254 75.0183C68.6323 75.3022 68.8146 75.2648 68.9728 75.2648C69.8678 75.2667 70.7627 75.26 71.6576 75.2686C71.8945 75.2705 71.9838 75.2139 71.8993 74.9646C71.7871 74.6317 71.6998 74.2912 71.5991 73.9545C71.2116 72.6577 70.8222 71.3619 70.4347 70.0651H70.4356Z" fill="#CECECE"/>
<path d="M164.582 81.5753C164.658 81.5312 164.706 81.4842 164.761 81.4746C165.845 81.3001 166.436 80.6066 166.822 79.6273C168.254 76.0006 169.534 72.3202 170.827 68.6437C170.97 68.237 171.118 67.8322 171.279 67.4313C171.327 67.3095 171.324 67.1061 171.511 67.1177C171.657 67.1272 171.658 67.3076 171.701 67.4208C172.256 68.8845 172.806 70.3491 173.36 71.8128C174.395 74.5474 175.489 77.2552 176.832 79.8584C177.248 80.6632 177.768 81.2617 178.712 81.371C178.811 81.3825 178.924 81.3998 178.914 81.5226C178.904 81.6406 178.789 81.6502 178.69 81.6511C178.546 81.653 178.401 81.6674 178.259 81.6511C177.014 81.4986 175.771 81.5418 174.527 81.6741C174.413 81.6866 174.237 81.7672 174.195 81.5993C174.155 81.442 174.344 81.419 174.448 81.3634C174.958 81.0878 175.107 80.674 174.894 80.1222C174.423 78.9002 173.95 77.6792 173.489 76.4543C173.402 76.227 173.276 76.1349 173.029 76.1368C171.894 76.1464 170.76 76.1445 169.625 76.1349C169.419 76.133 169.306 76.1944 169.232 76.3919C168.745 77.6936 168.26 78.9961 167.937 80.3505C167.766 81.0651 167.853 81.1917 168.567 81.4219C168.672 81.4554 168.872 81.4219 168.821 81.6156C168.784 81.7576 168.626 81.6789 168.526 81.6674C167.329 81.537 166.134 81.5408 164.937 81.6789C164.832 81.6914 164.717 81.7298 164.582 81.5715V81.5753ZM171.365 69.9146C170.788 71.6901 170.249 73.3523 169.707 75.0127C169.625 75.262 169.766 75.2774 169.947 75.2774C170.839 75.2774 171.732 75.2707 172.624 75.286C172.947 75.2918 172.948 75.1719 172.867 74.9129C172.587 74.0161 172.332 73.1116 172.062 72.2109C171.845 71.4819 171.62 70.7549 171.365 69.9146V69.9146Z" fill="#CECECE"/>
<path d="M86.5797 39.1629C86.6497 39.1715 86.785 38.8185 86.784 39.1897C86.7831 39.4899 86.7495 39.795 86.6939 40.0904C86.5989 40.594 86.3275 40.7733 85.8143 40.7369C85.515 40.7158 85.1438 40.6131 84.9318 40.7465C84.6824 40.9038 84.9107 41.2894 84.8944 41.5762C84.8628 42.1315 84.8906 42.6907 84.8839 43.248C84.8791 43.624 84.9309 43.953 85.3702 44.0643C85.4814 44.0921 85.5822 44.165 85.5639 44.2993C85.5476 44.4153 85.4297 44.4124 85.3433 44.447C85.0412 44.5659 84.669 44.6321 84.7908 45.1079C84.2 45.5644 83.4595 45.7073 82.813 46.0546C81.7473 46.6262 80.6711 47.1758 79.6352 47.8012C79.5105 47.876 79.3906 47.971 79.239 47.8943C79.0913 47.8194 79.0692 47.6813 79.0817 47.5259C79.192 46.1092 79.1038 44.6896 79.1306 43.271C79.1354 43.014 79.1277 42.7579 79.3301 42.5564C79.5297 42.3579 79.4836 42.1814 79.3167 41.9723C78.9484 41.5119 78.9532 41.4927 79.4529 41.2558C79.7138 41.1321 79.8203 40.9182 79.8989 40.6697C79.9411 40.5748 80.0179 40.5239 80.1128 40.4933C81.7252 39.9657 83.3636 39.5552 85.0613 39.4228C85.1381 39.417 85.2225 39.395 85.2944 39.5139C85.1083 39.7806 84.8014 39.9245 84.5597 40.1403C84.504 40.1901 84.4283 40.2611 84.4283 40.3216C84.4283 40.4453 84.5568 40.4443 84.646 40.4549C85.1237 40.5143 85.6013 40.5191 86.0752 40.4117C86.3649 40.3455 86.5001 40.1633 86.5164 39.8669C86.5289 39.6309 86.4665 39.3864 86.5836 39.161L86.5797 39.1629Z" fill="#818181"/>
<path d="M116.636 52.3947C116.772 52.3947 116.904 52.3794 117.019 52.2988C117.375 52.6403 117.086 52.7305 116.816 52.8475C116.645 52.9213 116.407 52.9923 116.384 53.1851C116.358 53.4086 116.622 53.3223 116.75 53.3885C116.836 53.4335 116.94 53.469 116.915 53.586C116.892 53.6944 116.784 53.7174 116.688 53.7242C116.514 53.7366 116.333 53.7165 116.165 53.752C115.973 53.7923 115.626 53.6637 115.62 53.8748C115.612 54.1385 115.98 53.9994 116.167 54.0906C116.297 54.1548 116.48 54.0704 116.648 54.2728C116.31 54.2987 115.977 54.4292 115.767 54.3208C115.17 54.01 114.896 54.5049 114.51 54.7227C114.411 54.7783 114.457 54.855 114.548 54.8963C113.461 55.6559 112.259 55.9715 110.927 56.053C109.698 56.1288 108.483 56.454 107.26 56.6544C106.713 56.7446 106.158 56.8137 105.608 56.6525C105.511 56.4079 105.267 56.5585 105.052 56.4473C105.511 56.2708 105.52 55.913 105.512 55.5341C105.498 54.9605 105.499 54.386 105.512 53.8115C105.519 53.4585 105.398 53.2235 105.029 53.1602C105.721 52.8014 106.371 52.2806 107.235 52.5847C107.568 52.7305 107.912 52.7631 108.262 52.6624C108.627 52.5568 108.986 52.5712 109.346 52.6806C110.369 53.0518 111.392 52.8868 112.415 52.6806C112.926 52.6451 113.447 52.764 113.95 52.5847C114.649 52.5444 115.338 52.7324 116.039 52.6844C116.286 52.6672 116.519 52.6604 116.636 52.3928V52.3947ZM105.726 56.3274C106.405 56.6794 107.04 56.3408 107.043 55.7231C107.046 55.0536 107.046 54.3841 107.039 53.7146C107.036 53.4489 106.997 53.1707 106.639 53.1861C106.315 53.1995 106.286 53.4642 106.282 53.7107C106.273 54.316 106.27 54.9222 106.279 55.5274C106.284 55.8871 106.234 56.2017 105.726 56.3274V56.3274Z" fill="#888888"/>
<path d="M143.138 81.6786C143.149 81.6364 143.149 81.6115 143.159 81.6067C144.298 81.1051 144.467 80.1555 144.455 79.038C144.418 75.7807 144.441 72.5223 144.441 69.265C144.441 68.184 144.311 68.0113 143.277 67.7293C143.186 67.7044 143.084 67.7034 143.003 67.4943C144.548 67.5576 146.056 67.6401 147.585 67.4512C147.542 67.7706 147.297 67.7217 147.144 67.7735C146.403 68.0296 146.282 68.1773 146.281 68.9427C146.279 72.5041 146.278 76.0646 146.281 79.626C146.282 80.7866 146.669 81.3448 147.707 81.4849C147.808 81.4983 147.957 81.4935 147.932 81.6595C147.917 81.7583 147.813 81.7477 147.735 81.7477C146.235 81.7487 144.735 81.7487 143.234 81.7468C143.21 81.7468 143.185 81.7132 143.137 81.6786H143.138Z" fill="#CECECE"/>
<path d="M115.003 34.8336C113.826 35.0983 112.654 35.3784 111.489 35.693C110.205 36.0393 108.909 36.3376 107.618 36.657C106.956 36.7279 106.347 37.009 105.699 37.1366C105.735 36.8574 106.05 36.8929 106.235 36.6512C105.89 36.6512 105.602 36.6579 105.315 36.6483C105.192 36.6445 105.028 36.6368 105.031 36.4632C105.033 36.2915 105.197 36.2858 105.319 36.2829C105.687 36.2733 106.05 36.2464 106.416 36.1908C106.736 36.1419 106.854 35.9798 106.85 35.6776C106.845 35.1981 106.855 34.7194 106.85 34.2398C106.848 34.0211 106.867 33.8245 107.131 33.7017C106.609 33.837 106.077 33.6921 105.597 33.9224C105.444 33.9952 105.452 34.1286 105.608 34.2111C105.676 34.2466 105.761 34.2504 105.839 34.2657C106.038 34.3041 106.252 34.3712 106.213 34.612C106.169 34.8854 105.935 34.8105 105.748 34.7731C105.592 34.7424 105.438 34.6868 105.281 34.6686C105.056 34.6417 104.899 34.5957 104.868 34.3137C104.839 34.0499 104.623 33.907 104.375 34.0279C103.938 34.2418 103.506 34.2581 103.023 34.2859C102.384 34.3223 101.693 34.3473 101.067 34.6264C100.777 34.7559 100.451 34.7559 100.14 34.6494C100.877 34.4835 101.61 34.2964 102.353 34.1574C103.573 33.9291 104.796 33.719 106.021 33.5281C107.384 33.3162 108.738 33.0322 110.116 32.9239C110.489 33.037 110.839 33.1742 111.258 32.9958C111.445 32.9162 111.728 32.8222 111.977 32.9833C112.047 33.0284 112.209 33.0792 112.261 32.9315C112.342 32.7032 112.54 32.7541 112.696 32.7368C113.325 32.6658 113.931 32.7704 114.518 32.9996C114.668 33.0581 114.859 33.1166 114.87 33.2845C114.885 33.5099 114.652 33.4667 114.512 33.5051C114.23 33.5818 114.144 33.7775 114.147 34.0442C114.15 34.3252 114.309 34.4365 114.567 34.4595C114.799 34.4806 114.946 34.6082 115.003 34.8365V34.8336Z" fill="#898989"/>
<path d="M115.002 34.8437C114.946 34.6154 114.798 34.4878 114.566 34.4667C114.308 34.4437 114.149 34.3324 114.146 34.0514C114.143 33.7847 114.229 33.5891 114.511 33.5123C114.651 33.474 114.884 33.5171 114.869 33.2917C114.857 33.1239 114.667 33.0653 114.517 33.0068C113.93 32.7776 113.324 32.673 112.695 32.744C112.539 32.7613 112.342 32.7105 112.26 32.9387C112.207 33.0874 112.046 33.0356 111.976 32.9905C111.727 32.8303 111.443 32.9234 111.257 33.003C110.838 33.1814 110.488 33.0442 110.115 32.9311C111.524 32.7277 112.943 32.5954 114.339 32.3047C114.592 32.252 114.841 32.2299 115.096 32.2587C114.982 32.463 114.728 32.393 114.567 32.5177C115.058 32.9023 115.405 32.8025 115.483 32.2654C115.818 32.0333 116.214 32.0736 116.587 32.0275C118.84 31.7484 121.094 31.4789 123.348 31.2084C123.474 31.193 123.602 31.1988 123.729 31.195C123.915 31.312 124.125 31.3053 124.329 31.2909C124.832 31.2535 125.333 31.1614 125.841 31.1978C126.168 31.3686 126.491 31.4194 126.847 31.2544C126.996 31.1854 127.192 31.2084 127.366 31.2065C127.494 31.2055 127.635 31.2237 127.684 31.3695C127.732 31.5144 127.573 31.5364 127.513 31.6189C127.066 32.2347 126.375 32.3239 125.711 32.4735C124.702 32.7009 123.692 32.9291 122.681 33.1498C122.044 33.2888 121.403 33.4078 120.767 33.5469C119.774 33.7646 118.783 33.9938 117.792 34.2164C116.862 34.4255 115.932 34.6336 115.002 34.8417V34.8437ZM116.402 34.0408C115.834 33.8528 115.518 33.9161 115.391 34.1933C115.351 34.2816 115.317 34.3775 115.407 34.4542C115.477 34.5127 115.553 34.483 115.627 34.4446C115.86 34.3209 116.095 34.201 116.402 34.0418V34.0408ZM116.015 33.2188C115.999 33.0951 115.922 33.0481 115.817 33.0605C115.683 33.0769 115.567 33.1373 115.57 33.2908C115.572 33.4059 115.671 33.4452 115.771 33.4413C115.912 33.4356 116.006 33.3656 116.015 33.2188Z" fill="#858585"/>
<path d="M76.2519 46.9311C75.6245 47.0366 74.9915 47.216 74.4591 46.6577C74.3248 46.5167 74.1311 46.5868 73.9565 46.6107C73.0223 46.7393 72.582 46.4985 72.228 45.6362C72.112 45.3523 71.9441 45.1442 71.6659 45.0195C71.4597 44.9274 71.2688 44.8123 71.1499 44.6089C73.0961 43.5366 75.0951 42.5707 77.1238 41.6662C77.8336 41.3496 78.5309 40.9919 79.3107 40.8672C79.305 40.9132 79.3107 40.9957 79.2935 41.0005C78.8014 41.1348 78.3909 41.5156 77.9036 41.5837C77.2552 41.6739 76.859 42.1803 76.2921 42.3836C76.1588 42.4316 76.2039 42.5812 76.2941 42.6637C76.5646 42.9112 76.5406 43.2335 76.5406 43.5519C76.5406 44.0459 76.5176 44.5408 76.5463 45.0329C76.5857 45.6918 76.5051 46.323 76.2528 46.933L76.2519 46.9311Z" fill="#777777"/>
<path d="M114.547 54.907C114.456 54.8657 114.41 54.789 114.509 54.7334C114.894 54.5147 115.168 54.0207 115.765 54.3315C115.974 54.4408 116.309 54.3094 116.647 54.2835C116.479 54.0811 116.296 54.1655 116.166 54.1013C115.98 54.0092 115.612 54.1492 115.618 53.8855C115.624 53.6735 115.972 53.803 116.163 53.7627C116.332 53.7272 116.512 53.7473 116.687 53.7349C116.783 53.7282 116.89 53.7042 116.913 53.5968C116.938 53.4797 116.835 53.4442 116.748 53.3992C116.621 53.333 116.357 53.4193 116.383 53.1958C116.405 53.004 116.643 52.933 116.814 52.8582C117.085 52.7412 117.374 52.651 117.018 52.3095C117.655 51.9729 118.334 51.7417 119.015 51.5182C119.131 51.4799 119.269 51.4712 119.389 51.4942C120.403 51.6851 121.332 51.3436 122.284 51.0799C123.551 50.7288 124.65 49.9807 125.908 49.6114C126.169 49.5346 126.403 49.479 126.608 49.7121C126.38 49.8512 126.263 50.0756 126.142 50.2991C126.028 50.277 125.822 49.9586 125.849 50.395C125.867 50.6837 125.693 50.8324 125.431 50.8909C124.908 51.007 124.377 51.0923 123.862 51.2381C123.454 51.3532 122.98 51.3446 122.692 51.7455C121.554 52.2577 120.416 52.7709 119.343 53.4145C118.675 53.8145 117.989 54.1713 117.229 54.3823C116.702 54.5291 116.171 54.6029 115.632 54.6125C115.239 54.6192 114.881 54.7075 114.547 54.9089V54.907Z" fill="#848484"/>
<path d="M188.761 93.3335C189.106 93.5272 189.387 93.7258 189.546 94.0586C189.964 94.9315 189.537 95.9405 188.596 96.2053C187.706 96.4556 186.788 96.2926 185.883 96.3232C185.674 96.33 185.677 96.1679 185.677 96.0201C185.677 94.2984 185.681 92.5757 185.672 90.854C185.671 90.5806 185.81 90.5413 186.029 90.5452C186.619 90.5538 187.209 90.5375 187.798 90.5615C188.504 90.5893 189.146 90.784 189.4 91.5341C189.645 92.2582 189.463 92.8798 188.76 93.3344L188.761 93.3335ZM186.397 94.6667C186.397 94.9056 186.397 95.1454 186.397 95.3842C186.397 95.5463 186.446 95.6672 186.639 95.6614C187.163 95.6441 187.693 95.7266 188.212 95.6067C188.686 95.4974 188.955 95.1435 188.955 94.6802C188.955 94.192 188.666 93.8255 188.175 93.7373C187.911 93.6893 187.637 93.6797 187.367 93.6778C186.396 93.6721 186.396 93.6759 186.398 94.6667H186.397ZM186.397 92.1278C186.397 92.3513 186.395 92.5748 186.397 92.7983C186.398 92.9364 186.43 93.0601 186.605 93.0524C187.114 93.0313 187.628 93.1225 188.128 92.9748C188.574 92.8433 188.782 92.5268 188.765 92.0789C188.75 91.6453 188.506 91.3576 188.086 91.2636C187.841 91.2089 187.58 91.206 187.326 91.206C186.393 91.2031 186.393 91.207 186.396 92.1278H186.397Z" fill="#CECECE"/>
<path d="M100.688 96.2838C100.196 96.4219 99.8509 96.3212 99.5804 95.8445C99.2505 95.2632 98.837 94.728 98.4582 94.1746C98.298 93.9415 97.5843 93.7717 97.3445 93.905C97.1968 93.9875 97.2534 94.1295 97.2525 94.2465C97.2467 94.822 97.24 95.3975 97.2553 95.9721C97.262 96.2358 97.1863 96.3404 96.9052 96.3346C96.6395 96.3298 96.4928 96.2972 96.4956 95.9759C96.5081 94.282 96.5043 92.5881 96.4995 90.8932C96.4995 90.664 96.5503 90.5306 96.816 90.5374C97.5345 90.5537 98.2558 90.5278 98.9723 90.57C99.8643 90.6227 100.426 91.1378 100.527 91.9205C100.648 92.8653 100.307 93.4571 99.4058 93.7717C99.1037 93.8772 99.1699 93.977 99.3023 94.165C99.6802 94.7002 100.051 95.2402 100.417 95.7831C100.519 95.9366 100.667 96.0708 100.689 96.2828L100.688 96.2838ZM98.156 91.1915C98.156 91.1915 98.156 91.2011 98.156 91.2049C98.0284 91.2049 97.8989 91.2203 97.7743 91.2021C97.358 91.1426 97.2016 91.2999 97.2419 91.7287C97.2793 92.1229 97.2515 92.5238 97.2496 92.9219C97.2496 93.0955 97.2659 93.2451 97.4961 93.2403C97.9882 93.2298 98.485 93.2969 98.9723 93.1971C99.5315 93.082 99.8077 92.7319 99.7934 92.1919C99.779 91.6577 99.4759 91.3133 98.9186 91.2337C98.6682 91.1982 98.4112 91.204 98.1579 91.1915H98.156Z" fill="#CECECE"/>
<path d="M125.595 94.6433C125.811 94.3306 125.865 94.0323 125.878 93.7321C125.893 93.4021 126.095 93.4002 126.337 93.4117C126.666 93.427 126.558 93.6486 126.542 93.827C126.515 94.1148 126.479 94.415 126.326 94.6548C126.067 95.0615 126.176 95.3454 126.513 95.6293C126.719 95.802 126.886 96.0197 127.116 96.2672C126.623 96.3583 126.204 96.4293 125.893 95.988C125.746 95.7789 125.619 95.7655 125.399 95.9391C124.872 96.3544 124.255 96.4887 123.594 96.3698C122.868 96.2393 122.373 95.8336 122.182 95.1104C121.992 94.39 122.2 93.7685 122.774 93.3148C123.047 93.099 123.099 92.9858 122.907 92.6626C122.448 91.8885 122.773 90.9293 123.544 90.5994C124.474 90.2013 125.496 90.5831 125.763 91.4348C125.806 91.5701 125.951 91.7772 125.71 91.8262C125.507 91.8674 125.243 91.9796 125.087 91.6689C124.772 91.0425 124.271 90.8622 123.796 91.1758C123.342 91.4761 123.262 92.065 123.68 92.5551C124.287 93.2668 124.943 93.9373 125.595 94.6433V94.6433ZM124.019 95.8C124.398 95.7962 124.741 95.6849 125.05 95.4624C125.199 95.355 125.223 95.2629 125.087 95.12C124.635 94.6461 124.189 94.1666 123.747 93.6831C123.597 93.5191 123.473 93.5287 123.299 93.6572C122.893 93.9584 122.705 94.5253 122.87 95.0279C123.027 95.5037 123.478 95.8068 124.019 95.7991V95.8Z" fill="#CECECE"/>
<path d="M166.534 96.4133C165.659 96.3941 164.951 96.1303 164.514 95.3745C164.421 95.2153 164.202 94.9534 164.418 94.8489C164.624 94.7491 164.972 94.6628 165.166 95.0206C165.533 95.6977 166.16 95.8253 166.852 95.7399C167.408 95.6709 167.772 95.2958 167.797 94.8191C167.821 94.3559 167.578 94.07 166.994 93.8993C166.565 93.7736 166.13 93.671 165.701 93.5434C164.862 93.2931 164.464 92.824 164.465 92.1056C164.466 91.3268 164.928 90.7599 165.75 90.5287C166.742 90.2506 167.828 90.6256 168.274 91.4208C168.363 91.58 168.591 91.8255 168.359 91.9502C168.165 92.0538 167.835 92.1229 167.651 91.792C167.318 91.1925 166.763 91.0534 166.133 91.1157C165.601 91.1685 165.22 91.5205 165.179 91.9713C165.142 92.3867 165.406 92.7089 165.948 92.871C166.362 92.9938 166.785 93.0811 167.198 93.202C168.147 93.4792 168.591 94.048 168.524 94.8776C168.46 95.6709 167.87 96.2425 166.967 96.3797C166.81 96.4037 166.649 96.4056 166.532 96.4152L166.534 96.4133Z" fill="#CECECE"/>
<path d="M49.0804 94.5934C48.149 94.2366 47.8008 95.0135 47.422 95.7607C47.2742 96.0513 47.163 96.3928 46.7122 96.3544C46.4436 96.3314 46.3131 96.3084 46.4935 96.0005C47.4939 94.2912 48.4867 92.5762 49.4679 90.8555C49.6281 90.5754 49.8468 90.5581 50.1135 90.5716C50.4012 90.5869 50.4166 90.796 50.4588 91.0051C50.7811 92.6184 51.1091 94.2308 51.4304 95.8451C51.4669 96.0293 51.6136 96.2787 51.2683 96.3324C50.995 96.3755 50.7465 96.3477 50.7178 95.9842C50.711 95.9055 50.6794 95.8298 50.6631 95.7511C50.5013 94.9812 49.9741 94.595 49.0814 94.5924L49.0804 94.5934ZM49.8746 91.6669C49.8353 91.6689 49.7969 91.6717 49.7576 91.6737C49.3835 92.3211 49.0085 92.9676 48.6353 93.615C48.55 93.7627 48.456 93.9268 48.7485 93.9316C49.1629 93.9392 49.5773 93.9364 49.9916 93.9316C50.1921 93.9296 50.288 93.8165 50.2516 93.6217C50.1307 92.9685 50.0012 92.3173 49.8756 91.666L49.8746 91.6669Z" fill="#EEEEEE"/>
<path d="M194.988 96.3257C194.71 96.3843 194.547 96.2778 194.49 96.0102C194.487 95.9948 194.478 95.9804 194.471 95.9661C194.255 95.5248 194.263 94.8716 193.862 94.6597C193.471 94.4534 192.896 94.5973 192.401 94.5896C192.225 94.5868 192.048 94.605 191.874 94.5877C191.639 94.5637 191.532 94.6721 191.459 94.8822C191.324 95.2745 191.154 95.6543 191.02 96.0476C190.946 96.2653 190.821 96.3315 190.597 96.343C190.248 96.3603 190.144 96.2874 190.291 95.9238C190.887 94.4429 191.462 92.9533 192.045 91.4665C192.121 91.2738 192.215 91.0857 192.272 90.8872C192.345 90.633 192.487 90.5371 192.757 90.5371C193.02 90.5371 193.153 90.6234 193.25 90.8738C193.904 92.5725 194.569 94.2664 195.241 95.9584C195.356 96.249 195.329 96.3919 194.988 96.3257V96.3257ZM192.753 91.4992C192.445 92.302 192.181 92.9955 191.913 93.6861C191.832 93.8933 191.927 93.9335 192.108 93.9316C192.537 93.9268 192.966 93.9259 193.394 93.9326C193.579 93.9355 193.667 93.8885 193.589 93.6861C193.323 92.9945 193.059 92.301 192.753 91.4992Z" fill="#CECECE"/>
<path d="M170.197 95.9127C170.197 96.3683 170.185 96.7136 170.201 97.058C170.212 97.3323 170.184 97.4934 169.827 97.4944C169.45 97.4954 169.468 97.2901 169.468 97.0398C169.472 95.5406 169.47 94.0414 169.474 92.5412C169.474 92.3667 169.396 92.1278 169.712 92.1269C169.96 92.1269 170.257 92.0434 170.208 92.5182C170.976 91.9264 171.741 91.8554 172.46 92.4079C173.262 93.0246 173.352 93.9196 173.18 94.8404C173.03 95.6432 172.566 96.1947 171.731 96.3712C171.186 96.4873 170.701 96.3309 170.196 95.9118L170.197 95.9127ZM170.191 94.1776C170.191 94.3828 170.189 94.543 170.191 94.7032C170.197 95.2327 170.494 95.6 171.013 95.7257C171.462 95.8341 171.957 95.6432 172.237 95.2538C172.611 94.7339 172.624 93.8188 172.263 93.2491C172.003 92.8376 171.532 92.6314 171.069 92.7244C170.74 92.7906 170.473 92.9575 170.292 93.2395C170.094 93.5464 170.23 93.8965 170.19 94.1785L170.191 94.1776Z" fill="#CECECE"/>
<path d="M89.0364 94.3963C88.669 94.3963 88.3007 94.403 87.9333 94.3943C87.6283 94.3867 87.5391 94.5392 87.5803 94.8164C87.6446 95.2566 87.823 95.6173 88.2786 95.7593C88.7112 95.8935 89.1006 95.7899 89.4315 95.4849C89.5246 95.3996 89.586 95.2797 89.6781 95.1924C89.8661 95.0121 90.1346 95.0274 90.3015 95.1281C90.5135 95.2557 90.2843 95.4379 90.2075 95.5684C89.8171 96.2388 88.9452 96.5698 88.1165 96.3808C87.3913 96.2149 86.9396 95.6509 86.8667 94.8183C86.7295 93.2616 87.7683 92.0357 89.1802 92.0875C90.1941 92.1249 90.9087 93.1781 90.5874 94.144C90.5154 94.3598 90.3773 94.3982 90.1874 94.3963C89.8037 94.3934 89.42 94.3963 89.0364 94.3963V94.3982V94.3963ZM88.7889 93.8399C88.7889 93.8399 88.7889 93.838 88.7889 93.8371C89.0747 93.8371 89.3615 93.8399 89.6474 93.8361C89.8095 93.8342 89.9121 93.7766 89.914 93.5819C89.9179 93.1532 89.5658 92.7417 89.1342 92.6928C88.6306 92.6362 88.1213 92.9402 87.8546 93.439C87.7136 93.7028 87.7155 93.8572 88.0743 93.8419C88.3122 93.8313 88.551 93.8399 88.7898 93.8399H88.7889Z" fill="#EEEEEE"/>
<path d="M136.008 92.5911C136.46 92.2045 136.87 92.0233 137.358 92.0492C138.109 92.0904 138.642 92.5441 138.683 93.2951C138.733 94.2025 138.703 95.1137 138.72 96.023C138.725 96.3041 138.567 96.3252 138.354 96.3233C138.14 96.3223 137.985 96.2926 137.989 96.0163C137.999 95.2825 137.992 94.5478 137.989 93.814C137.986 93.0822 137.687 92.712 137.093 92.7024C136.476 92.6928 136.012 93.1781 136.01 93.8409C136.007 94.543 136.003 95.2451 136.014 95.9473C136.018 96.1947 135.968 96.328 135.675 96.328C135.38 96.328 135.296 96.2225 135.298 95.9357C135.31 94.1488 135.312 92.3609 135.302 90.5739C135.3 90.2881 135.375 90.1816 135.676 90.1816C135.974 90.1816 136.017 90.3169 136.013 90.5624C136.003 91.1984 136.009 91.8353 136.009 92.5911H136.008Z" fill="#CECECE"/>
<path d="M101.288 94.2002C101.303 92.7547 102.325 91.8272 103.609 92.0919C104.47 92.2694 105.167 93.3686 104.951 94.1897C104.89 94.4246 104.713 94.3652 104.569 94.3671C103.836 94.3748 103.101 94.3853 102.368 94.3671C102.055 94.3585 101.968 94.4573 102.044 94.7536C102.17 95.2515 102.415 95.6476 102.948 95.7579C103.462 95.8644 103.903 95.7397 104.163 95.2342C104.306 94.9551 104.577 95.0309 104.751 95.0961C104.996 95.1872 104.811 95.4001 104.742 95.5354C104.448 96.1186 103.944 96.3833 103.307 96.4082C102.579 96.436 102.001 96.1579 101.613 95.5296C101.363 95.1239 101.277 94.6731 101.288 94.2002V94.2002ZM103.113 93.8242C103.384 93.8242 103.655 93.8108 103.925 93.828C104.215 93.8463 104.243 93.7024 104.186 93.4751C104.078 93.0521 103.835 92.7672 103.392 92.6866C102.915 92.6003 102.455 92.818 102.217 93.2334C101.937 93.7225 101.992 93.8213 102.541 93.8233C102.732 93.8233 102.922 93.8233 103.113 93.8233V93.8242Z" fill="#CECECE"/>
<path d="M142.204 94.0038C142.313 93.0791 141.946 92.6072 141.212 92.683C140.979 92.707 140.78 92.7942 140.63 92.9774C140.58 93.0388 140.552 93.1261 140.49 93.1702C140.292 93.3112 140.038 93.318 139.865 93.2019C139.714 93.1002 139.877 92.9113 139.954 92.7827C140.313 92.1813 141.072 91.9128 141.848 92.1036C142.537 92.2724 142.907 92.7223 142.93 93.4916C142.954 94.2896 142.943 95.0876 142.942 95.8866C142.942 96.3 142.63 96.5206 142.315 96.277C142.122 96.1283 142.029 96.1801 141.877 96.2454C141.4 96.4506 140.919 96.4669 140.436 96.2636C139.89 96.0334 139.577 95.5912 139.595 95.0454C139.615 94.469 139.931 94.1006 140.448 93.8858C141.047 93.6364 141.63 93.7381 142.203 94.0057L142.204 94.0038ZM141.28 95.7811C141.953 95.7734 142.382 95.3907 142.229 94.8948C142.089 94.4402 141.68 94.3404 141.268 94.3423C140.859 94.3443 140.459 94.4316 140.318 94.9035C140.236 95.1778 140.341 95.4051 140.559 95.5797C140.77 95.7485 141.019 95.7869 141.28 95.7811V95.7811Z" fill="#CECECE"/>
<path d="M176.547 94.0271C176.572 93.1092 176.342 92.7427 175.763 92.6823C175.424 92.6468 175.13 92.7351 174.909 93.0084C174.879 93.0458 174.858 93.09 174.826 93.1255C174.631 93.3432 174.349 93.3077 174.174 93.1993C173.991 93.0861 174.194 92.8885 174.279 92.7523C174.65 92.1605 175.478 91.8987 176.235 92.1222C176.894 92.3159 177.238 92.7993 177.245 93.5715C177.253 94.3542 177.25 95.1359 177.246 95.9186C177.244 96.2975 176.898 96.5257 176.638 96.2725C176.42 96.0605 176.307 96.1958 176.161 96.2553C175.659 96.4615 175.166 96.4509 174.676 96.2303C174.177 96.0059 173.908 95.6184 173.901 95.0688C173.893 94.5402 174.205 94.1163 174.728 93.8938C175.345 93.6309 175.942 93.7288 176.547 94.0261V94.0271ZM175.452 95.7824C175.765 95.7872 175.997 95.7584 176.209 95.6279C176.571 95.4054 176.682 95.0524 176.484 94.7436C176.208 94.3177 175.352 94.2017 174.886 94.5278C174.565 94.7513 174.485 95.1522 174.722 95.439C174.925 95.6855 175.205 95.7881 175.452 95.7814V95.7824Z" fill="#CECECE"/>
<path d="M149.147 94.7429C149.147 95.1266 149.149 95.5093 149.146 95.893C149.143 96.2978 148.801 96.5241 148.523 96.2613C148.348 96.0954 148.277 96.1635 148.141 96.2249C147.616 96.4608 147.088 96.4704 146.564 96.2287C146.088 96.009 145.819 95.6292 145.799 95.1045C145.78 94.5933 146.026 94.2115 146.469 93.9727C147.006 93.683 147.573 93.6466 148.129 93.9008C148.439 94.0418 148.476 93.9343 148.462 93.6562C148.442 93.2437 148.335 92.885 147.907 92.743C147.484 92.603 147.086 92.6375 146.791 93.0356C146.737 93.1094 146.671 93.213 146.596 93.2274C146.412 93.2639 146.166 93.332 146.046 93.2015C145.922 93.0663 146.094 92.8754 146.185 92.7335C146.559 92.1484 147.381 91.899 148.151 92.1263C148.77 92.3085 149.132 92.8188 149.146 93.5459C149.154 93.9449 149.147 94.3449 149.146 94.7439L149.147 94.7429ZM147.491 95.7827C147.729 95.7903 148.004 95.727 148.235 95.5362C148.553 95.2734 148.557 94.8475 148.247 94.5943C147.852 94.272 147.181 94.2451 146.775 94.5357C146.409 94.7957 146.389 95.2532 146.729 95.5506C146.932 95.728 147.175 95.7817 147.491 95.7836V95.7827Z" fill="#CECECE"/>
<path d="M113.354 94.2407C113.345 95.6286 112.434 96.5379 111.191 96.3998C110.634 96.3374 110.178 96.0842 109.888 95.6075C109.355 94.7298 109.348 93.8129 109.845 92.9256C110.227 92.2436 110.874 91.9933 111.634 92.0672C112.366 92.1381 112.868 92.5448 113.157 93.2143C113.297 93.5405 113.362 93.8848 113.354 94.2407V94.2407ZM112.617 94.2685C112.626 94.0229 112.595 93.8033 112.528 93.5875C112.357 93.0359 111.977 92.7098 111.477 92.6916C110.938 92.6714 110.533 92.964 110.338 93.5337C110.161 94.0517 110.171 94.5735 110.397 95.0742C110.597 95.5173 110.937 95.7811 111.443 95.7715C111.947 95.7619 112.278 95.4905 112.469 95.0416C112.576 94.7912 112.631 94.5246 112.617 94.2685V94.2685Z" fill="#CECECE"/>
<path d="M161.699 94.1942C161.715 95.8401 160.358 96.8626 158.976 96.2439C158.109 95.8555 157.677 94.832 157.89 93.6714C158.065 92.7161 158.751 92.1003 159.691 92.0533C160.83 91.9967 161.685 92.9098 161.699 94.1942ZM160.958 94.2527C160.978 93.9256 160.915 93.6139 160.768 93.3242C160.564 92.9213 160.236 92.695 159.776 92.6883C159.315 92.6825 158.97 92.8993 158.773 93.304C158.467 93.9313 158.475 94.575 158.801 95.1936C159.001 95.5744 159.335 95.7797 159.777 95.771C160.215 95.7615 160.54 95.5581 160.746 95.1754C160.9 94.8896 160.97 94.5788 160.958 94.2527Z" fill="#CECECE"/>
<path d="M73.8559 95.7796C74.463 95.7537 74.9771 95.2578 75.0932 94.5883C75.2131 93.8967 75.3359 93.2061 75.4529 92.5145C75.4903 92.292 75.545 92.129 75.8337 92.1309C76.1205 92.1328 76.2462 92.1971 76.1877 92.5126C75.9699 93.6886 75.7685 94.8674 75.5584 96.0443C75.5364 96.1661 75.5296 96.3225 75.3579 96.3244C75.1776 96.3263 74.9206 96.4309 74.8429 96.2131C74.7441 95.9379 74.6424 96.0558 74.5004 96.1364C74.3623 96.2141 74.2203 96.2928 74.0707 96.3445C73.007 96.7129 72.1792 96.0251 72.3605 94.9192C72.4919 94.1164 72.6597 93.3193 72.772 92.5145C72.8228 92.1491 73.0242 92.1213 73.3024 92.1491C73.6813 92.1875 73.4942 92.456 73.4693 92.621C73.3561 93.3778 73.1998 94.1288 73.0981 94.8876C73.0166 95.4938 73.3024 95.8026 73.8549 95.7786L73.8559 95.7796Z" fill="#EEEEEE"/>
<path d="M62.8627 92.536C63.2992 92.2204 63.7212 92.0612 64.2065 92.0842C64.8809 92.1168 65.3374 92.5264 65.3192 93.2055C65.2933 94.181 65.0362 95.1277 64.8693 96.0859C64.8137 96.4072 64.548 96.3497 64.3351 96.3305C64.0396 96.3027 64.1586 96.0706 64.1826 95.9228C64.3005 95.1824 64.4492 94.4467 64.5595 93.7052C64.6727 92.9427 64.1787 92.5523 63.4497 92.8209C62.949 93.005 62.6383 93.3599 62.5519 93.9047C62.4445 94.5819 62.3035 95.2543 62.2066 95.9334C62.1548 96.294 61.9563 96.3938 61.6455 96.3334C61.3031 96.2672 61.4728 96.0015 61.5007 95.8308C61.68 94.745 61.8747 93.6611 62.0723 92.5782C62.1078 92.3854 62.0982 92.1533 62.4109 92.1485C62.6699 92.1446 62.8896 92.1466 62.8627 92.5369V92.536Z" fill="#EEEEEE"/>
<path d="M132.379 93.784C132.379 94.5178 132.365 95.2525 132.385 95.9863C132.393 96.3153 132.228 96.3326 131.972 96.3393C131.696 96.3469 131.616 96.2434 131.617 95.9777C131.626 94.5734 131.601 93.1682 131.633 91.765C131.643 91.3065 131.49 91.1846 131.066 91.2211C130.701 91.2518 130.332 91.2134 129.966 91.2269C129.7 91.2364 129.6 91.1444 129.604 90.8691C129.608 90.6091 129.716 90.542 129.95 90.543C131.323 90.5478 132.696 90.5497 134.067 90.541C134.323 90.5391 134.394 90.6408 134.396 90.8806C134.398 91.1233 134.323 91.2297 134.069 91.224C133.622 91.2144 133.175 91.2374 132.729 91.2221C132.458 91.2125 132.369 91.3084 132.374 91.5798C132.39 92.3136 132.379 93.0483 132.379 93.7821V93.784Z" fill="#CECECE"/>
<path d="M107.154 96.4084C106.682 96.3882 106.152 96.2453 105.794 95.7456C105.68 95.5883 105.473 95.3427 105.674 95.219C105.863 95.1029 106.186 95.0492 106.389 95.3523C106.688 95.7983 107.133 95.8645 107.62 95.7571C107.889 95.6976 108.091 95.5528 108.118 95.2525C108.145 94.9485 107.971 94.7672 107.706 94.6818C107.327 94.56 106.938 94.4708 106.556 94.3567C105.985 94.185 105.709 93.8617 105.683 93.3534C105.656 92.8393 105.935 92.4134 106.441 92.1909C107.201 91.8571 108.204 92.093 108.594 92.7098C108.688 92.8575 108.893 93.081 108.697 93.1999C108.512 93.3121 108.195 93.3649 108.019 93.0819C107.768 92.68 107.385 92.6254 106.971 92.6829C106.665 92.7251 106.413 92.8824 106.385 93.2191C106.358 93.5337 106.602 93.6565 106.858 93.7342C107.088 93.8032 107.32 93.8617 107.553 93.9155C108.5 94.1351 108.92 94.5888 108.826 95.3005C108.736 95.9815 108.132 96.4093 107.154 96.4084V96.4084Z" fill="#CECECE"/>
<path d="M151.634 96.4138C151.115 96.3888 150.564 96.2507 150.205 95.7241C150.102 95.5725 149.875 95.3356 150.118 95.2052C150.29 95.1131 150.616 95.0412 150.797 95.3299C151.076 95.774 151.501 95.8459 151.972 95.7701C152.278 95.7212 152.527 95.5773 152.545 95.2282C152.562 94.904 152.351 94.7342 152.069 94.6508C151.717 94.5472 151.358 94.4695 151.006 94.3669C150.423 94.1961 150.124 93.8451 150.104 93.331C150.083 92.8072 150.384 92.3862 150.934 92.1713C151.72 91.8644 152.652 92.108 153.029 92.7334C153.117 92.8801 153.314 93.1027 153.097 93.2149C152.925 93.3041 152.621 93.3655 152.454 93.1017C152.166 92.6442 151.735 92.6106 151.274 92.7104C151.003 92.7689 150.819 92.9492 150.81 93.2465C150.802 93.5209 151.003 93.6388 151.221 93.7117C151.478 93.7971 151.743 93.8595 152.007 93.9237C152.932 94.1491 153.342 94.5942 153.256 95.2848C153.169 95.9725 152.574 96.407 151.632 96.4138H151.634Z" fill="#CECECE"/>
<path d="M155.476 96.4106C154.999 96.3838 154.471 96.236 154.123 95.7277C154.017 95.5732 153.8 95.3392 154.034 95.2097C154.212 95.1109 154.536 95.0534 154.715 95.3382C154.996 95.7833 155.424 95.8418 155.892 95.7737C156.184 95.7315 156.408 95.5915 156.453 95.274C156.5 94.9431 156.302 94.7647 156.021 94.6745C155.656 94.5584 155.282 94.474 154.916 94.3647C154.328 94.1892 154.033 93.8419 154.02 93.3259C154.007 92.806 154.323 92.36 154.849 92.1595C155.577 91.8823 156.507 92.0981 156.889 92.6564C157 92.8185 157.264 93.0449 157.013 93.2118C156.845 93.324 156.522 93.3508 156.341 93.0621C156.078 92.6439 155.662 92.6171 155.237 92.6986C154.978 92.7485 154.757 92.8952 154.725 93.1954C154.69 93.5196 154.92 93.6453 155.174 93.7259C155.417 93.8026 155.665 93.863 155.913 93.9206C156.832 94.1364 157.253 94.5891 157.167 95.2749C157.079 95.9819 156.471 96.4144 155.473 96.4087L155.476 96.4106Z" fill="#CECECE"/>
<path d="M78.6473 92.0963C79.195 92.0992 79.7053 92.2028 79.9998 92.7294C80.0832 92.879 80.2597 93.114 80.041 93.232C79.8568 93.3317 79.5998 93.3509 79.4051 93.0996C79.0722 92.6689 78.6406 92.5769 78.1821 92.7764C77.9624 92.8723 77.807 93.0162 77.7946 93.2732C77.7811 93.5447 77.9509 93.677 78.1763 93.7586C78.5207 93.8823 78.8785 93.9763 79.2132 94.1221C79.9 94.4204 80.1034 95.1781 79.6823 95.793C79.1058 96.6351 77.4541 96.6582 76.8632 95.8256C76.7414 95.6539 76.5256 95.4074 76.7443 95.2424C76.9543 95.0841 77.2325 95.1254 77.4368 95.4131C77.7495 95.8544 78.3269 95.9637 78.8046 95.7249C79.0156 95.6194 79.1816 95.4621 79.1883 95.2156C79.195 94.9652 79.0367 94.7954 78.8171 94.7062C78.5811 94.6113 78.3336 94.546 78.091 94.4693C77.2776 94.2132 76.9965 93.8775 77.0733 93.2502C77.149 92.6258 77.6986 92.15 78.4085 92.0963C78.4881 92.0906 78.5677 92.0963 78.6473 92.0963V92.0963Z" fill="#EEEEEE"/>
<path d="M197.005 93.0968C197.005 93.8152 197.019 94.5336 197 95.2511C196.991 95.5618 197.086 95.6702 197.403 95.6616C198.121 95.6415 198.839 95.6616 199.558 95.653C199.817 95.6491 199.973 95.6789 199.965 96.0088C199.959 96.3158 199.807 96.3359 199.572 96.3349C198.583 96.3292 197.593 96.3273 196.604 96.3378C196.338 96.3407 196.244 96.2544 196.245 95.981C196.254 94.289 196.254 92.598 196.245 90.906C196.244 90.6422 196.32 90.5281 196.597 90.5377C196.847 90.5463 197.02 90.5636 197.01 90.8954C196.989 91.6292 197.003 92.363 197.004 93.0977L197.005 93.0968Z" fill="#CECECE"/>
<path d="M66.0701 94.5141C66.0922 92.9919 67.1521 91.9483 68.5372 92.0912C69.0782 92.1468 69.4599 92.4269 69.6594 92.9362C69.7218 93.0945 69.835 93.3046 69.6153 93.3957C69.4187 93.4772 69.1846 93.4993 69.0129 93.2691C68.4461 92.5046 67.5972 92.5516 67.1185 93.3803C66.8289 93.8801 66.7166 94.4191 66.8586 94.9946C66.9488 95.3582 67.1281 95.6517 67.5108 95.7505C67.9099 95.8531 68.2724 95.7629 68.5717 95.4704C68.6504 95.3927 68.707 95.2929 68.7789 95.2076C68.9564 94.9985 69.2249 95.0167 69.3947 95.1155C69.6326 95.2546 69.4062 95.4598 69.3228 95.5999C68.9295 96.2588 68.0039 96.5821 67.2125 96.3595C66.4788 96.1533 66.0567 95.4713 66.0701 94.5141V94.5141Z" fill="#EEEEEE"/>
<path d="M84.2502 95.2645C84.7835 94.3581 85.3158 93.4517 85.8501 92.5462C85.9144 92.4369 85.9719 92.3103 86.0678 92.2355C86.2578 92.0868 86.5225 92.0599 86.6971 92.1846C86.9043 92.3314 86.6606 92.4964 86.5848 92.6239C85.9259 93.7375 85.2439 94.8377 84.5878 95.9532C84.4103 96.2554 84.1984 96.3954 83.8511 96.335C83.5058 96.2755 83.5768 95.981 83.5375 95.7681C83.3447 94.7312 83.1605 93.6934 82.9927 92.6527C82.9658 92.4868 82.7788 92.2163 83.1365 92.1587C83.4387 92.1098 83.6363 92.1875 83.6881 92.5616C83.8118 93.4603 83.9816 94.3524 84.1331 95.2463C84.1725 95.253 84.2118 95.2597 84.2502 95.2665V95.2645Z" fill="#EEEEEE"/>
<path d="M117.51 94.2101C117.51 93.906 117.496 93.602 117.514 93.2989C117.532 92.9651 117.529 92.6859 117.06 92.7483C116.819 92.7799 116.839 92.5795 116.834 92.4193C116.83 92.2581 116.864 92.1085 117.062 92.1383C117.601 92.2217 117.499 91.8486 117.514 91.5407C117.524 91.3268 117.4 91.0381 117.816 91.0352C118.112 91.0333 118.244 91.0937 118.242 91.4285C118.237 92.0932 118.256 92.1114 118.911 92.1277C119.215 92.1354 119.245 92.2764 119.234 92.5171C119.222 92.7895 119.038 92.7579 118.862 92.7588C118.236 92.7627 118.232 92.6255 118.234 93.4197C118.236 93.9952 118.229 94.5707 118.243 95.1462C118.254 95.6498 118.488 95.8234 118.987 95.7486C119.095 95.7323 119.282 95.5251 119.314 95.8004C119.335 95.9807 119.428 96.2138 119.156 96.3394C118.404 96.6847 117.556 96.1908 117.514 95.3611C117.494 94.9784 117.511 94.5937 117.511 94.2101H117.509H117.51Z" fill="#CECECE"/>
<path d="M70.6106 96.3372C70.3046 96.3737 70.2192 96.2605 70.2701 95.9785C70.5952 94.1743 70.9156 92.3701 71.2226 90.563C71.2772 90.2416 71.4566 90.186 71.7271 90.21C72.0839 90.2416 71.9602 90.492 71.9285 90.6742C71.6197 92.4487 71.3002 94.2213 70.9923 95.9957C70.9492 96.2432 70.8542 96.3823 70.6106 96.3363V96.3372Z" fill="#EEEEEE"/>
<path d="M52.7038 96.3331C52.3508 96.3629 52.3527 96.1547 52.3968 95.9025C52.7076 94.128 53.0165 92.3535 53.3215 90.5781C53.357 90.3719 53.4078 90.2126 53.6639 90.2059C53.9507 90.1982 54.1157 90.2366 54.0457 90.604C53.8078 91.8567 53.5997 93.1151 53.379 94.3707C53.285 94.904 53.1891 95.4373 53.098 95.9715C53.0587 96.2008 52.9743 96.3725 52.7038 96.3331Z" fill="#EEEEEE"/>
<path d="M54.6686 96.3383C54.3032 96.3709 54.3089 96.1694 54.355 95.9124C54.5833 94.6424 54.8039 93.3706 55.0264 92.0997C55.1147 91.598 55.2135 91.0973 55.2844 90.5928C55.3314 90.2599 55.5118 90.1583 55.8139 90.2168C56.142 90.2801 56.023 90.5362 55.9923 90.7156C55.7046 92.4114 55.4082 94.1063 55.1041 95.7992C55.059 96.0515 55.0686 96.3833 54.6686 96.3373V96.3383Z" fill="#EEEEEE"/>
<path d="M201.739 93.4367C201.739 94.2837 201.731 95.1297 201.743 95.9757C201.747 96.2443 201.661 96.3411 201.388 96.3354C201.129 96.3306 200.971 96.3028 200.973 95.9795C200.985 94.2866 200.985 92.5936 200.973 90.9007C200.971 90.5832 201.121 90.5391 201.385 90.5371C201.65 90.5352 201.748 90.6225 201.743 90.8968C201.729 91.7428 201.739 92.5898 201.739 93.4358V93.4367Z" fill="#CECECE"/>
<path d="M61.0793 90.8741C60.8836 91.9887 60.6889 93.1042 60.4923 94.2197C60.3925 94.7856 60.2784 95.3487 60.194 95.9165C60.1441 96.2532 59.9839 96.3923 59.6482 96.3433C59.2559 96.2858 59.4343 96.0057 59.465 95.8244C59.7412 94.189 60.0415 92.5575 60.3139 90.9221C60.3695 90.5912 60.5527 90.5566 60.8165 90.571C61.0179 90.5825 61.11 90.6717 61.0783 90.876L61.0793 90.8741Z" fill="#EEEEEE"/>
<path d="M144.854 93.2863C144.854 94.1803 144.845 95.0742 144.859 95.9682C144.863 96.2339 144.784 96.3413 144.508 96.3327C144.261 96.326 144.131 96.278 144.132 95.9864C144.141 94.1668 144.14 92.3473 144.129 90.5277C144.127 90.2304 144.268 90.1987 144.511 90.1901C144.795 90.1796 144.863 90.2975 144.859 90.5575C144.847 91.4668 144.854 92.377 144.854 93.2863Z" fill="#CECECE"/>
<path d="M114.972 92.6377C115.355 92.2176 115.681 92.0459 116.087 92.0469C116.369 92.0469 116.463 92.1658 116.462 92.4564C116.461 92.7528 116.355 92.7759 116.096 92.7634C115.404 92.7289 115.009 93.1365 115.005 93.8482C115.002 94.5503 114.999 95.2515 115.009 95.9536C115.013 96.2001 114.966 96.3344 114.673 96.3344C114.371 96.3344 114.297 96.2183 114.3 95.9373C114.312 94.8208 114.3 93.7043 114.31 92.5879C114.312 92.4075 114.204 92.137 114.558 92.1332C114.814 92.1303 115.116 92.0584 114.974 92.6387L114.972 92.6377Z" fill="#CECECE"/>
<path d="M81.0451 96.3291C80.7574 96.3607 80.672 96.236 80.7219 95.9617C80.9348 94.7867 81.1449 93.6108 81.3406 92.4329C81.402 92.0607 81.6696 92.1499 81.8902 92.1567C82.1866 92.1653 82.0868 92.383 82.0581 92.5442C81.8576 93.6731 81.6494 94.8001 81.4528 95.9301C81.4096 96.1756 81.3463 96.3703 81.0461 96.3291H81.0451Z" fill="#EEEEEE"/>
<path d="M57.512 94.2218C57.2559 94.2218 57.0007 94.2247 56.7446 94.2208C56.5835 94.2189 56.3955 94.2266 56.4262 93.983C56.4492 93.8007 56.4482 93.5647 56.7158 93.56C57.323 93.5484 57.9302 93.5532 58.5374 93.5571C58.6985 93.558 58.7666 93.6549 58.733 93.8132C58.6937 93.9954 58.6985 94.216 58.4232 94.2179C58.1192 94.2189 57.816 94.2179 57.512 94.2179C57.512 94.2199 57.512 94.2208 57.512 94.2227V94.2218Z" fill="#EEEEEE"/>
<path d="M181.384 94.2028C181.13 94.2028 180.875 94.1913 180.622 94.2057C180.367 94.2201 180.252 94.1414 180.246 93.8613C180.241 93.5688 180.377 93.517 180.623 93.5218C181.147 93.5323 181.672 93.5352 182.195 93.5227C182.431 93.517 182.541 93.5803 182.542 93.8393C182.543 94.0992 182.474 94.2229 182.193 94.2038C181.925 94.1855 181.653 94.1999 181.384 94.1999V94.2018V94.2028Z" fill="#CECECE"/>
<path d="M92.2949 97.229C92.3736 97.0919 92.4551 96.9413 92.5434 96.7945C92.6786 96.5701 92.8656 96.3946 92.5357 96.1241C92.3036 95.9342 92.3841 95.6042 92.6556 95.4335C92.9174 95.2694 93.187 95.3136 93.3625 95.5889C93.5946 95.9524 93.0057 97.2358 92.5769 97.3144C92.4906 97.3298 92.386 97.3499 92.2949 97.229V97.229Z" fill="#CECECE"/>
<path d="M122.692 51.7291C122.98 51.3292 123.453 51.3368 123.861 51.2217C124.376 51.0769 124.908 50.9906 125.43 50.8745C125.692 50.816 125.867 50.6673 125.849 50.3786C125.821 49.9432 126.026 50.2607 126.141 50.2827C126.14 50.9445 126.097 50.9369 125.431 51.0673C124.511 51.2476 123.604 51.5047 122.692 51.7282V51.7291Z" fill="#7D7D7D"/>
<path d="M140.23 47.1255C140.609 47.0689 140.986 47.2722 141.367 47.1303C141.442 47.1024 141.532 47.1504 141.554 47.2386C141.579 47.3413 141.465 47.3509 141.425 47.4065C141.379 47.4688 141.015 47.3442 141.292 47.607C140.917 47.7489 140.538 47.8698 140.135 47.8995C140.135 47.865 140.135 47.8305 140.135 47.7959C140.395 47.605 140.197 47.3489 140.231 47.1255H140.23Z" fill="#737373"/>
<path d="M151.398 30.605C149.173 30.6078 146.948 30.6098 144.724 30.6126C144.563 30.6126 144.405 30.6059 144.261 30.5234C146.562 30.5349 148.862 30.5465 151.164 30.5608C151.241 30.5608 151.32 30.5896 151.398 30.605V30.605Z" fill="#6F6F6F"/>
<path d="M81.9741 91.3479C81.7046 91.3345 81.5434 91.18 81.5425 90.9038C81.5425 90.6496 81.695 90.4913 81.9521 90.4741C82.236 90.4559 82.4058 90.6141 82.4211 90.8894C82.4374 91.1743 82.2619 91.3162 81.9732 91.3469L81.9741 91.3479Z" fill="#EEEEEE"/>
<path d="M181.725 45.0117C183.51 45.0117 185.295 45.0117 187.081 45.0117C185.855 45.1518 184.624 45.1067 183.396 45.099C182.838 45.0961 182.276 45.1412 181.725 45.0117V45.0117Z" fill="#5F5F5F"/>
<path d="M125.842 31.1917C125.334 31.1553 124.833 31.2473 124.329 31.2847C124.126 31.3001 123.916 31.3068 123.73 31.1888C124.429 31.0718 125.128 30.9529 125.842 31.0152C125.842 31.0737 125.842 31.1332 125.842 31.1917V31.1917Z" fill="#787878"/>
<path d="M130.818 30.5121H131.381C130.783 30.6896 130.187 30.9092 129.575 30.6032C129.985 30.5054 130.401 30.5111 130.818 30.5121Z" fill="#787878"/>
<path d="M115.483 32.2684C115.405 32.8056 115.058 32.9044 114.567 32.5207C114.728 32.397 114.982 32.467 115.096 32.2617C115.225 32.2636 115.354 32.2665 115.483 32.2684Z" fill="#898989"/>
<path d="M158.841 44.4402C159.745 44.2512 160.658 44.3874 161.566 44.3596C160.661 44.4776 159.75 44.4047 158.841 44.4402Z" fill="#6B6B6B"/>
<path d="M140.135 47.8086C140.135 47.8431 140.135 47.8777 140.135 47.9122C139.74 48.0848 139.319 48.1481 138.896 48.199C138.932 47.8844 139.2 47.9496 139.393 47.9045C139.574 47.8623 139.759 47.8393 139.942 47.8086C140.006 47.8086 140.071 47.8086 140.134 47.8086H140.135Z" fill="#6F6F6F"/>
<path d="M143.433 30.5193C142.589 30.5222 141.744 30.5241 140.9 30.527C140.9 30.4972 140.901 30.4685 140.902 30.4387C141.747 30.4224 142.593 30.3687 143.433 30.5193V30.5193Z" fill="#6F6F6F"/>
<path d="M140.901 30.4424C140.901 30.4721 140.9 30.5009 140.899 30.5306C140.388 30.5306 139.877 30.5325 139.366 30.5325C139.078 30.5325 138.79 30.5316 138.502 30.5306C138.502 30.5009 138.502 30.4711 138.503 30.4414H140.901V30.4424Z" fill="#787878"/>
<path d="M83.3511 60.3569C84.0868 60.1651 84.8349 60.3003 85.5774 60.2734C84.8397 60.4288 84.0935 60.3252 83.3511 60.3569Z" fill="#848484"/>
<path d="M129.488 30.6251C129.193 30.9205 128.863 30.8505 128.525 30.7239C128.84 30.6328 129.163 30.6164 129.488 30.6251Z" fill="#787878"/>
<path d="M171.272 44.2539C171.796 44.2702 172.326 44.1599 172.841 44.3345C172.317 44.3326 171.79 44.3642 171.272 44.2539Z" fill="#666666"/>
<path d="M127.952 47.7838C127.379 47.967 126.886 48.3535 126.242 48.3689C125.576 48.3852 124.908 48.4619 124.246 48.554C123.792 48.6173 123.375 48.8542 122.961 49.0278C122.406 49.2599 121.822 49.3137 121.262 49.4825C120.706 49.6503 120.125 49.6551 119.559 49.4997C118.867 49.3098 118.222 49.494 117.605 49.753C116.649 50.1549 115.676 50.2076 114.653 50.1366C113.51 50.0561 112.358 50.0954 111.21 50.0848C110.38 50.0772 109.553 50.0724 108.776 49.7117C108.559 49.612 108.312 49.6033 108.071 49.6043C107.611 49.6043 107.157 49.6302 106.722 49.3846C106.477 49.2465 106.163 49.2724 105.889 49.4134C105.765 49.4297 105.622 49.4134 105.518 49.469C104.785 49.869 103.991 49.8 103.205 49.798C102.963 49.4604 102.579 49.588 102.123 49.5237C103.026 49.1017 102.903 48.365 102.913 47.6888C102.927 46.7335 102.915 45.7781 102.918 44.8237C102.919 44.4727 102.925 44.1283 102.722 43.8109C102.622 43.6545 102.931 42.5438 103.071 42.4383C103.155 42.375 103.249 42.3577 103.341 42.3989C103.833 42.6167 103.979 42.3884 103.956 41.9309C103.953 41.8676 103.966 41.8043 103.971 41.7409C104.458 41.3458 105.104 41.2518 105.602 40.8777C106.289 40.7424 106.898 40.4115 107.52 40.1103C107.936 40.0298 108.291 39.8005 108.671 39.6308C109.802 39.3459 110.865 38.8519 111.983 38.5392C113.226 38.192 114.392 37.6261 115.653 37.3211C116.485 37.1196 117.258 36.688 118.085 36.4568C119.188 36.148 120.262 35.7499 121.375 35.467C122.2 35.2569 123.044 34.9998 123.817 34.6584C124.482 34.3649 125.128 34.0541 125.84 33.8939C126.044 33.8479 126.109 33.6973 126.154 33.516C126.204 33.3165 126.317 33.1515 126.542 33.1534C126.794 33.1544 126.641 33.3645 126.686 33.4748C126.775 33.6915 126.94 33.6858 127.035 33.4987C127.139 33.2944 127.284 33.1812 127.49 33.1103C127.69 33.0412 127.731 32.904 127.695 32.693C127.62 32.2576 127.839 32.0082 128.275 32.0859C128.709 32.1636 129.068 32.0897 129.464 31.8969C129.904 31.683 130.397 31.5305 130.901 31.5813C131.331 31.6235 131.656 31.3521 132.044 31.2686C133.105 31.0413 134.181 30.9195 135.259 30.6634H132.387C132.387 30.6154 132.388 30.5675 132.389 30.5195H137.735C138.198 30.7488 138.728 30.4917 139.284 30.7229C138.722 30.9128 138.199 30.6807 137.733 30.9022C137.448 30.9387 137.156 30.9492 136.879 31.0173C136.341 31.1488 135.738 30.9694 135.253 31.332C134.735 31.7185 134.087 31.7223 133.519 31.9573C132.688 32.3007 131.768 32.3218 130.938 32.6604C129.89 33.0872 128.758 33.2129 127.701 33.6062C127.182 33.7999 126.635 33.9237 126.114 34.1155C125.398 34.3793 124.7 34.691 123.949 34.8473C123.736 34.8915 123.544 34.9768 123.351 35.1831C123.866 35.0162 123.924 35.3499 123.974 35.6636C124.008 35.8833 124.013 36.1087 124.013 36.3321C124.015 39.8648 124.013 43.3974 124.016 46.9301C124.016 47.1507 123.954 47.401 124.114 47.5785C124.289 47.7713 124.366 47.9037 124.069 48.0341C124.028 48.0523 123.991 48.1406 123.998 48.1905C124.008 48.2662 124.102 48.2864 124.145 48.2394C124.502 47.8586 124.969 48.1022 125.377 48.036C126.225 47.8979 127.081 47.7636 127.947 47.7838H127.952Z" fill="#787878"/>
<path d="M127.954 47.7917C127.088 47.7715 126.232 47.9058 125.384 48.0439C124.976 48.1101 124.509 47.8665 124.152 48.2473C124.108 48.2933 124.015 48.2741 124.005 48.1984C123.998 48.1485 124.035 48.0602 124.076 48.042C124.374 47.9116 124.296 47.7792 124.121 47.5864C123.961 47.409 124.023 47.1586 124.023 46.938C124.021 43.4054 124.022 39.8727 124.02 36.3401C124.02 36.1175 124.015 35.8912 123.981 35.6715C123.931 35.3579 123.873 35.0241 123.358 35.191C123.551 34.9847 123.742 34.8994 123.956 34.8553C124.707 34.6979 125.405 34.3872 126.121 34.1234C126.642 33.9316 127.188 33.8078 127.708 33.6141C128.765 33.2208 129.897 33.0952 130.945 32.6683C131.774 32.3297 132.694 32.3086 133.526 31.9653C134.094 31.7303 134.742 31.7274 135.26 31.3399C135.745 30.9773 136.348 31.1567 136.886 31.0253C137.163 30.9572 137.455 30.9466 137.74 30.9102C137.611 31.0876 137.416 31.0847 137.225 31.1116C136.851 31.1643 136.604 31.2017 136.632 31.7715C136.739 34.0102 136.827 36.2509 136.789 38.4953C136.751 40.712 136.78 42.9306 136.78 45.1482C136.78 45.4513 136.784 45.7534 136.718 46.0527C136.654 46.3424 136.703 46.5946 137.014 46.727C137.294 46.8459 137.542 46.8517 137.719 46.5553C137.825 46.3798 137.987 46.3222 138.172 46.3884C138.469 46.4949 138.462 46.7769 138.507 47.0243C137.239 47.1078 136.007 46.7932 134.757 46.6809C133.486 46.5668 132.218 46.4527 130.949 46.656C130.629 46.7068 130.251 46.8047 130.208 47.1596C130.134 47.7648 129.771 47.8262 129.299 47.7907C128.851 47.7907 128.404 47.7907 127.956 47.7907L127.954 47.7917Z" fill="#737373"/>
<path d="M129.296 47.8075C129.768 47.842 130.131 47.7806 130.205 47.1763C130.248 46.8205 130.627 46.7236 130.946 46.6728C132.216 46.4694 133.484 46.5826 134.754 46.6977C136.004 46.8099 137.236 47.1245 138.504 47.0411H139.176C139.449 47.2061 139.717 47.419 140.039 47.137C140.102 47.137 140.166 47.137 140.23 47.137C140.196 47.3605 140.394 47.6166 140.134 47.8075C140.07 47.8075 140.005 47.8075 139.942 47.8075C139.776 47.371 139.508 47.3049 139.122 47.653C138.901 47.8516 138.774 47.9005 138.539 47.6626C138.23 47.3499 137.774 47.4526 137.398 47.4449C135.548 47.4085 133.697 47.4161 131.846 47.4353C131.315 47.4411 130.828 47.7068 130.356 47.9149C129.936 48.1 129.63 48.0329 129.296 47.8084V47.8075Z" fill="#787878"/>
<path d="M140.038 47.1297C139.715 47.4117 139.448 47.1987 139.174 47.0338C139.467 47.0232 139.756 47.0443 140.038 47.1297Z" fill="#737373"/>
<path d="M105.603 40.8816C105.106 41.2556 104.46 41.3496 103.973 41.7448C102.7 42.3721 101.431 43.01 100.152 43.6258C98.7021 44.324 97.2 44.9024 95.7152 45.5221C94.9449 45.8434 94.143 46.1561 93.5618 46.8237C93.3095 47.1124 93.2049 47.4001 93.2711 47.7838C93.4419 48.7679 93.226 49.071 92.2333 49.2024C91.9705 49.237 91.5791 49.4144 91.441 49.1602C91.3134 48.9252 91.676 48.7209 91.8486 48.5224C91.91 48.4514 92.0175 48.3929 91.9753 48.2874C91.9177 48.1435 91.7853 48.202 91.6827 48.226C90.7465 48.4408 89.8545 48.7861 88.9768 49.1698C88.4646 49.3933 88.2363 49.2724 88.2507 48.72C88.2795 47.5584 88.1298 46.392 88.4023 45.2333C88.5519 44.5993 88.3025 44.2032 87.8584 44.1447C88.292 43.9759 88.7466 43.8934 89.2051 43.833C89.2943 43.8214 89.4132 43.7677 89.4507 43.8895C89.4679 43.9452 89.4104 44.0401 89.3624 44.0948C89.1543 44.3298 88.9356 44.5571 88.6526 44.8612C89.3461 44.9725 89.9283 44.8554 90.4885 44.6444C90.7197 44.5571 90.7561 44.2838 90.7302 44.0603C90.5921 42.8786 91.0995 42.4067 92.3561 41.9299C94.6792 41.0475 97.1012 40.4471 99.3975 39.486C100.558 39.0006 101.711 38.4942 102.889 38.0568C103.811 37.7144 104.723 37.3259 105.699 37.1437C106.347 37.0161 106.956 36.735 107.618 36.6641C107.51 36.8147 107.359 36.8885 107.184 36.9355C106.439 37.1389 106.111 37.5503 106.087 38.3215C106.075 38.7023 106.059 39.0869 106.089 39.4658C106.133 40.0173 106.047 40.5075 105.603 40.8844V40.8816Z" fill="#848484"/>
<path d="M72.707 52.4027C72.7531 52.1696 72.9507 52.0785 73.1224 51.9672C74.7281 50.9294 76.3011 49.8427 77.949 48.87C78.1831 48.7319 78.4181 48.6044 78.6665 48.4941C78.7778 48.4451 79.0147 48.4144 78.842 48.1833C80.4036 48.0221 81.9604 47.673 83.5383 48.0365C83.755 48.0864 83.9929 48.1305 84.0083 48.4279C84.0236 48.7243 83.8164 48.8461 83.5891 48.9458C83.2265 49.1031 82.7527 49.2019 82.9061 49.7496C83.0548 50.2829 83.5411 50.21 83.9478 50.1822C84.2951 50.1582 84.6413 50.1016 84.9569 49.9146C85.7022 49.4734 86.507 49.4772 87.3271 49.6307C87.4364 49.6508 87.565 49.6604 87.5793 49.8033C87.5937 49.9472 87.4633 49.976 87.3654 50.0249C86.178 50.6158 85.0519 51.3169 83.943 52.0382C83.3368 52.4334 82.7229 52.8449 82.2011 53.3619C82.1743 53.0703 81.9431 53.1662 81.7983 53.1777C81.0846 53.2314 80.3863 53.3753 79.7034 53.593C79.0233 53.8098 78.3471 54.0774 77.6114 53.8213C77.292 53.7101 77.0148 53.5499 76.9505 53.2007C76.8728 52.7825 76.5822 52.7202 76.2752 52.8094C75.6786 52.984 75.1271 53.0473 74.6254 52.5782C74.5621 52.5188 74.3952 52.5082 74.3089 52.5475C73.743 52.8056 73.2221 52.6684 72.709 52.4017L72.707 52.4027Z" fill="#818181"/>
<path d="M84.7896 45.1019C85.3622 44.7997 85.9511 44.5503 86.6111 44.5254C85.9972 44.6961 85.46 45.1095 84.7896 45.1019Z" fill="#818181"/>
<path d="M61.7682 50.4951C62.3744 50.4951 62.9797 50.4951 63.5859 50.4941C63.6531 50.5248 63.8219 50.6131 63.7029 50.6294C63.0555 50.7186 62.3994 50.7407 61.7481 50.6275C61.7471 50.6275 61.7606 50.5411 61.7682 50.4951Z" fill="#BFBFBF"/>
<path d="M108.672 39.6316C108.292 39.8014 107.938 40.0306 107.521 40.1112C107.37 39.8887 107.16 39.9817 106.957 39.998C106.73 40.0162 106.458 40.0124 106.451 39.7122C106.444 39.4235 106.718 39.457 106.921 39.4417C107.349 39.4091 107.775 39.3726 108.203 39.3487C108.417 39.3362 108.629 39.3515 108.672 39.6326V39.6316Z" fill="#848484"/>
<path d="M129.724 48.3327C129.996 48.2982 130.146 48.4027 130.162 48.5955C130.181 48.8238 129.973 48.8401 129.823 48.7998C129.522 48.7183 129.266 48.8267 128.996 48.9188C128.878 48.959 128.701 48.9638 128.659 48.8315C128.597 48.6368 128.799 48.678 128.903 48.6473C129.203 48.5562 129.445 48.3058 129.724 48.3327V48.3327Z" fill="#787878"/>
<path d="M116.633 52.3945C116.517 52.6621 116.284 52.6689 116.036 52.6861C115.335 52.7341 114.647 52.5461 113.947 52.5864C114.246 52.4271 114.569 52.4972 114.882 52.4943C115.468 52.4885 116.054 52.5029 116.633 52.3955V52.3945Z" fill="#848484"/>
<path d="M112.414 52.6974C111.39 52.9036 110.368 53.0676 109.344 52.6974C110.368 52.8259 111.39 52.6264 112.414 52.6974Z" fill="#848484"/>
<path d="M126.914 49.0028C126.915 48.8426 127.064 48.8128 127.153 48.7361C127.304 48.6047 127.471 48.5117 127.656 48.6834C127.738 48.7601 127.827 48.8637 127.773 48.9721C127.661 49.1984 127.451 49.1227 127.271 49.0824C127.153 49.0555 127.015 49.1131 126.915 49.0028H126.914Z" fill="#787878"/>
<path d="M105.725 56.345C106.232 56.2184 106.283 55.9047 106.278 55.545C106.269 54.9398 106.273 54.3336 106.281 53.7283C106.285 53.4828 106.314 53.2171 106.638 53.2037C106.996 53.1893 107.034 53.4665 107.038 53.7322C107.046 54.4017 107.045 55.0712 107.042 55.7407C107.039 56.3594 106.404 56.697 105.725 56.345V56.345Z" fill="#8E8E8E"/>
<path d="M116.401 34.0397C116.094 34.1989 115.859 34.3188 115.626 34.4426C115.552 34.4819 115.477 34.5116 115.407 34.4522C115.316 34.3764 115.349 34.2805 115.39 34.1913C115.518 33.9141 115.833 33.8517 116.401 34.0387V34.0397Z" fill="#898989"/>
<path d="M116.015 33.2305C116.005 33.3763 115.912 33.4473 115.77 33.453C115.671 33.4569 115.572 33.4176 115.57 33.3025C115.567 33.148 115.683 33.0876 115.816 33.0723C115.922 33.0598 115.999 33.1068 116.015 33.2305Z" fill="#898989"/>
</g>
</g>
<defs>
<clipPath id="clip0_518_2062">
<rect width="231" height="127" fill="white"/>
</clipPath>
<clipPath id="clip1_518_2062">
<rect width="174.094" height="67.2383" fill="white" transform="translate(28.2939 30.3457)"/>
</clipPath>
</defs>
</svg>
