<svg width="216" height="207" viewBox="0 0 216 207" fill="none" xmlns="http://www.w3.org/2000/svg">
<g clip-path="url(#clip0_5527_1045)">
<rect width="216" height="206.929" fill="#151517"/>
<g clip-path="url(#clip1_5527_1045)">
<path fill-rule="evenodd" clip-rule="evenodd" d="M66.0303 87.8105L57.4455 105.067L72.5597 122.552L44.5078 125.73L88.0365 126.185L66.0303 87.8105V87.8105Z" fill="white"/>
<path fill-rule="evenodd" clip-rule="evenodd" d="M64.3392 81L44.6306 97.4623L30 122.099L42.4541 120.85L64.3392 81Z" fill="white"/>
<path d="M104.489 98.4238L95.0625 121.495H98.2677L100.719 115.027H111.139L113.744 121.495H116.932L107.471 98.4238H104.489ZM105.895 101.223H105.963C106.089 101.931 106.214 102.446 106.34 102.768L110.196 112.598H101.678L105.5 102.768C105.649 102.393 105.78 101.877 105.895 101.223V101.223ZM178.783 104.634C176.486 104.634 174.561 105.444 173.007 107.063C171.464 108.672 170.693 110.759 170.693 113.322C170.693 116.036 171.402 118.143 172.819 119.645C174.235 121.136 176.183 121.881 178.663 121.881C181.199 121.881 183.239 121.356 184.781 120.305V117.827C183.125 119.05 181.308 119.661 179.331 119.661C177.572 119.661 176.189 119.162 175.184 118.165C174.178 117.167 173.653 115.751 173.607 113.917H185.998V112.534C185.998 110.056 185.37 108.12 184.113 106.726C182.856 105.332 181.079 104.634 178.783 104.634V104.634ZM166.225 104.731C165.208 104.731 164.288 105.058 163.466 105.712C162.643 106.356 162.032 107.257 161.632 108.415H161.563V105.02H158.753V121.495H161.563V113.097C161.563 111.263 161.964 109.815 162.763 108.753C163.575 107.691 164.58 107.16 165.78 107.16C166.705 107.16 167.414 107.337 167.905 107.691V104.956C167.517 104.806 166.956 104.731 166.225 104.731V104.731ZM119.789 105.02V107.273H129.198L118.812 120.675V121.495H133.226V119.243H122.943L133.329 105.776V105.02H119.789V105.02ZM137.557 105.02V114.867C137.557 119.543 139.648 121.881 143.83 121.881C146.275 121.881 148.08 120.884 149.246 118.889H149.314V121.495H152.125V105.02H149.314V114.513C149.314 116.047 148.869 117.291 147.978 118.245C147.098 119.189 145.972 119.661 144.601 119.661C141.768 119.661 140.351 117.924 140.351 114.449V105.02H137.557V105.02ZM178.731 106.855C180.103 106.855 181.171 107.278 181.937 108.126C182.714 108.973 183.108 110.158 183.119 111.681H173.641C173.858 110.244 174.43 109.08 175.355 108.19C176.281 107.299 177.406 106.855 178.731 106.855V106.855Z" fill="white"/>
</g>
</g>
<defs>
<clipPath id="clip0_5527_1045">
<rect width="216" height="206.929" fill="white"/>
</clipPath>
<clipPath id="clip1_5527_1045">
<rect width="156" height="45.1862" fill="white" transform="translate(30 81)"/>
</clipPath>
</defs>
</svg>
