<svg width="216" height="207" viewBox="0 0 216 207" fill="none" xmlns="http://www.w3.org/2000/svg">
<g clip-path="url(#clip0_5455_7372)">
<rect width="216" height="206.929" fill="#151517"/>
<rect width="216" height="206.929" fill="#151517"/>
<path fill-rule="evenodd" clip-rule="evenodd" d="M66.2726 87.8555L57.6324 105.224L72.8442 122.82L44.6113 126.019L88.4207 126.477L66.2726 87.8555Z" fill="#F3F3F3"/>
<path fill-rule="evenodd" clip-rule="evenodd" d="M64.5606 81L44.7249 97.5684L30 122.364L42.5344 121.107L64.5606 81Z" fill="#F3F3F3"/>
<path d="M104.966 98.5371L95.4785 121.757H98.7044L101.171 115.248H111.659L114.281 121.757H117.489L107.967 98.5371H104.966ZM106.381 101.354H106.449C106.576 102.067 106.702 102.585 106.829 102.909L110.71 112.803H102.137L105.984 102.909C106.133 102.531 106.266 102.013 106.381 101.354ZM179.739 104.787C177.428 104.787 175.489 105.602 173.925 107.232C172.372 108.852 171.597 110.952 171.597 113.532C171.597 116.263 172.309 118.384 173.736 119.895C175.162 121.396 177.122 122.146 179.617 122.146C182.171 122.146 184.224 121.617 185.776 120.559V118.066C184.109 119.296 182.279 119.911 180.29 119.911C178.519 119.911 177.128 119.409 176.117 118.405C175.105 117.401 174.575 115.976 174.53 114.13H187V112.738C187 110.244 186.367 108.296 185.103 106.893C183.839 105.489 182.05 104.787 179.739 104.787ZM167.1 104.885C166.077 104.885 165.15 105.214 164.323 105.873C163.494 106.52 162.88 107.427 162.477 108.593H162.407V105.176H159.58V121.757H162.407V113.305C162.407 111.459 162.811 110.001 163.616 108.933C164.432 107.864 165.444 107.33 166.651 107.33C167.583 107.33 168.296 107.508 168.791 107.864V105.111C168.4 104.96 167.836 104.885 167.1 104.885ZM120.365 105.176V107.443H129.835L119.381 120.932V121.757H133.889V119.49H123.539L133.992 105.937V105.176H120.365ZM138.247 105.176V115.086C138.247 119.793 140.351 122.146 144.56 122.146C147.021 122.146 148.838 121.142 150.011 119.134H150.08V121.757H152.908V105.176H150.08V114.73C150.08 116.273 149.632 117.526 148.734 118.486C147.849 119.436 146.717 119.911 145.336 119.911C142.485 119.911 141.059 118.163 141.059 114.665V105.176H138.247ZM179.687 107.022C181.067 107.022 182.142 107.448 182.913 108.301C183.695 109.154 184.091 110.347 184.103 111.88H174.563C174.782 110.433 175.358 109.262 176.289 108.366C177.221 107.47 178.353 107.022 179.687 107.022Z" fill="#F3F3F3"/>
</g>
<defs>
<clipPath id="clip0_5455_7372">
<rect width="216" height="206.929" fill="white"/>
</clipPath>
</defs>
</svg>
