<svg width="231" height="127" viewBox="0 0 231 127" fill="none" xmlns="http://www.w3.org/2000/svg">
<g clip-path="url(#clip0_119_2341)">
<path fill-rule="evenodd" clip-rule="evenodd" d="M131.177 28.7768C128.736 26.3887 125.881 24.4646 122.751 23.0987C119.479 21.6793 116.024 21 112.381 21C108.739 21 105.313 21.6793 102.041 23.0987C98.8981 24.4565 96.0316 26.3813 93.5852 28.7768C91.1157 31.2463 89.2336 34.0858 87.8439 37.2338C86.5158 40.5191 85.8347 44.03 85.8379 47.5736C85.8379 51.2155 86.5164 54.6719 87.8439 57.9134C89.2328 61.1237 91.1157 63.9936 93.5852 66.3704C96.0127 68.805 98.8828 70.7537 102.041 72.1117C105.313 73.5302 108.738 74.2095 112.381 74.2095C116.024 74.2095 119.479 73.5302 122.751 72.1117C125.896 70.7452 128.755 68.7973 131.177 66.3704C133.647 63.9936 135.56 61.1237 136.857 57.9134C138.275 54.6727 138.955 51.2163 138.955 47.5736C138.955 43.9941 138.275 40.5368 136.857 37.2338C135.56 34.085 133.647 31.2463 131.177 28.7768Z" fill="#C1C1C1"/>
<path fill-rule="evenodd" clip-rule="evenodd" d="M133.525 38.6853C132.351 35.9377 130.747 33.5306 128.586 31.3704C126.512 29.2845 124.047 27.6274 121.333 26.4938C118.495 25.2591 115.531 24.6421 112.383 24.6421C109.235 24.6421 106.303 25.2599 103.463 26.4938C100.685 27.667 98.279 29.2718 96.1796 31.3704C94.0186 33.5306 92.4146 35.9385 91.2414 38.6853C90.0994 41.5248 89.4824 44.4874 89.4824 47.5738C89.4824 50.7218 90.0994 53.6844 91.2414 56.5247C92.397 59.2604 94.0743 61.7449 96.1796 63.8396C98.2782 65.9382 100.685 67.543 103.463 68.717C106.303 69.9517 109.235 70.5679 112.383 70.5679C115.531 70.5679 118.495 69.9517 121.333 68.717C124.047 67.583 126.512 65.9256 128.586 63.8396C130.747 61.6786 132.351 59.2715 133.525 56.5247C134.698 53.6852 135.316 50.7226 135.316 47.5738C135.316 44.4882 134.697 41.5248 133.525 38.6853Z" fill="#565656"/>
<path fill-rule="evenodd" clip-rule="evenodd" d="M127.164 33.7142L126.115 32.3555L125.868 31.7386L125.745 31.3686L124.633 31.1839C123.985 31.3686 123.06 32.2325 121.949 33.838C120.405 36.0606 119.109 37.6653 117.936 38.6843C117.134 39.3636 116.208 39.7951 115.283 39.919C115.063 39.924 114.847 39.859 114.667 39.7336C114.357 39.549 114.172 38.9936 114.172 38.1288L115.839 36.246L116.271 34.7027C116.271 34.3943 115.962 34.2704 115.407 34.3327L114.049 34.5797L113.123 34.8882L112.815 34.5189L112.074 33.8388C111.519 33.4065 111.087 33.4688 110.902 34.0858L110.779 35.3205C108.989 36.1852 108.124 36.8637 108.124 37.3576C108.124 37.7276 108.309 38.0369 108.618 38.1912L110.469 38.8081L110.346 39.7951L109.605 39.8567C108.555 39.7336 107.629 39.3636 106.919 38.6843C105.87 37.7884 104.512 36.1844 102.907 33.838C102.104 32.6656 101.178 31.7394 100.191 31.1839L99.7588 30.9985L99.2033 31.0609L98.8948 31.4309V31.9256L98.5248 32.481L97.5986 33.7158L95.5614 36.4314L93.8328 39.7336C93.0304 41.4622 92.5365 43.4985 92.3511 45.7826C92.1657 48.0043 92.2888 50.103 92.7212 52.1409C93.462 55.3512 94.8206 58.1284 96.7954 60.5051L97.7216 61.5545L98.0301 61.8638L98.4009 61.8326C98.524 61.616 98.4009 61.4314 98.0925 61.1229L97.4755 60.3205C96.7323 59.2623 96.1112 58.1234 95.6238 56.9256C94.4506 53.9319 94.3267 52.2648 95.1299 51.9563C95.6861 51.7093 96.3646 52.2648 97.167 53.561L97.7224 54.5488C97.907 55.1043 98.1548 55.2897 98.3394 55.1658C98.524 55.1043 98.524 54.9189 98.4625 54.7334L98.0925 54.178L97.5986 52.9433L96.9201 50.5977C96.5492 48.6221 96.7346 47.4505 97.414 47.0181C98.0933 46.5858 98.9572 46.9566 99.945 48.1905L100.747 49.4253L101.364 51.03C101.426 51.4616 101.55 51.647 101.735 51.647C102.044 51.5855 102.044 51.3385 101.858 50.907L101.735 49.6722L101.858 48.499C102.043 48.0667 102.291 47.759 102.599 47.6343C103.278 47.4497 103.895 47.759 104.451 48.5606C105.13 49.4868 105.439 50.7216 105.377 52.264L104.945 52.8817C104.08 53.2518 103.648 53.6833 103.71 54.178C103.772 54.795 103.957 55.2889 104.327 55.5974C106.117 54.7334 107.444 54.6104 108.371 55.1658C109.111 55.5974 109.852 56.9871 110.592 59.2704C111.333 61.5545 111.827 63.8993 112.013 66.3687L112.074 67.1711L112.136 67.9735C112.074 68.2828 112.198 68.4059 112.383 68.4059C112.63 68.4059 112.753 68.2828 112.691 67.9735L112.815 66.3687C113 63.8377 113.493 61.5233 114.173 59.3623C114.852 57.1094 115.593 55.7828 116.333 55.2265C117.198 54.6096 118.556 54.7327 120.346 55.535C120.839 55.2881 121.086 54.8557 121.148 54.1772C121.148 53.6218 120.716 53.1894 119.851 52.8809C119.604 52.7571 119.481 52.5101 119.42 52.2016C119.42 50.6576 119.728 49.4852 120.346 48.559C120.901 47.695 121.518 47.3866 122.197 47.5712C122.506 47.695 122.752 48.0035 122.907 48.4359L123.123 49.6706L122.907 50.9054C122.753 51.3369 122.815 51.5215 123.061 51.5839C123.214 51.6454 123.369 51.46 123.431 51.0284L124.111 49.3613L124.882 48.1889C125.87 46.955 126.672 46.5227 127.351 46.955C128.031 47.3874 128.216 48.6213 127.907 50.5969L127.227 52.9425L126.672 54.1157L126.364 54.6711C126.302 54.9181 126.302 55.0419 126.425 55.1035C126.609 55.2265 126.857 55.0419 127.043 54.548L127.659 53.5602C128.461 52.2032 129.141 51.647 129.696 51.894C130.498 52.264 130.312 53.9311 129.141 56.8633C128.708 58.1284 128.092 59.2704 127.351 60.3197L126.671 61.1221C126.364 61.3691 126.301 61.5545 126.424 61.7391L126.734 61.8318L127.043 61.5233L127.968 60.4428C130.005 58.0357 131.363 55.2881 132.043 52.1401C132.473 50.103 132.659 48.0043 132.473 45.7818C132.289 43.4977 131.733 41.4614 130.931 39.7328L129.201 36.4306L127.164 33.7142Z" fill="#E8E8E8"/>
<path fill-rule="evenodd" clip-rule="evenodd" d="M126.609 34.3341L125.375 32.7294L125.191 32.297L125.13 32.0501C125.068 31.8655 124.881 31.8655 124.698 32.0501L123.925 32.7909C123.001 33.7787 122.135 35.3219 121.457 37.3582L120.592 39.8581L119.851 41.0928C119.604 41.4021 119.295 41.5867 118.864 41.6483L117.074 41.2774L115.098 40.5989C114.482 40.4751 114.296 40.4751 114.605 40.6605C116.333 41.7098 116.765 43.7469 115.902 46.771L114.914 49.7959L113.74 52.5739C112.876 54.7956 112.445 57.0493 112.382 59.4564V59.5803V59.4572C112.382 58.2848 112.198 56.9262 111.889 55.4142C111.456 53.4378 110.901 52.2039 110.284 51.6484C109.728 51.2161 109.049 51.093 108.37 51.2784C107.691 51.463 107.167 51.8954 106.858 52.6362C107.043 51.093 107.259 50.1667 107.691 49.9206H108.678L110.344 50.6614L109.604 48.7474L108.863 46.5872C108.554 44.9824 108.554 43.6238 108.987 42.513C109.241 41.9396 109.674 41.4636 110.22 41.1552L111.208 40.7851L111.517 40.5374L111.393 39.6735L111.208 39.365L111.146 40.2289L110.837 40.4135L110.344 40.4759C109.418 40.5374 108.553 40.8467 107.751 41.2782C107.165 41.6491 106.547 41.7721 105.992 41.7106C105.577 41.6446 105.202 41.4243 104.943 41.0936L104.266 39.9204L103.525 37.5429C102.846 35.5057 101.92 33.901 100.871 32.7901L100.13 32.0493H99.6361V32.2962L99.3884 32.7286L98.2775 34.1479L96.4873 36.8636C95.1911 39.3642 94.5733 41.8329 94.5126 44.24C94.4502 47.018 94.8211 49.1166 95.6858 50.659L95.7473 50.5975C95.1919 48.7458 95.0065 46.7087 95.1919 44.4246C95.3149 42.8199 95.6866 41.1528 96.3651 39.3634L98.2168 35.5665C97.9083 37.0482 97.9083 38.808 98.0937 40.9682C98.4022 43.6222 99.02 45.7824 100.068 47.4495H100.131C99.4515 45.4739 99.02 43.1899 98.8961 40.6589C98.8337 38.4987 98.9584 36.6781 99.3284 35.1349L99.8223 33.6532L100.316 33.2209L100.933 33.8378L101.55 35.0726C102.106 36.3697 102.415 37.7882 102.599 39.1772L103.34 42.8199C103.649 43.9307 104.143 44.61 104.698 44.857C105.254 45.1039 105.81 44.98 106.488 44.5485C107.106 44.1161 107.507 43.5607 107.753 42.8814C107.569 43.8076 107.445 44.5485 107.506 45.227C107.568 45.9063 107.815 46.7087 108.186 47.5726L109.297 49.6097L108.186 49.0543L107.63 48.9312C107.167 48.8689 106.797 49.1782 106.611 49.8567C106.303 50.659 106.179 51.7084 106.179 53.0046C106.117 53.2516 105.994 53.4362 105.809 53.4985C104.821 53.6831 104.39 54.0532 104.574 54.6094L106.858 54.054C106.797 53.5601 107.044 53.067 107.444 52.5731C107.938 52.0168 108.493 51.8938 109.173 52.1407C110.037 52.5107 110.778 53.6839 111.333 55.7211C111.827 57.357 112.135 59.2702 112.259 61.4312L112.382 64.7031L112.568 61.432C112.63 59.271 112.939 57.3578 113.433 55.7219C113.989 53.6847 114.729 52.5115 115.593 52.1415C116.273 51.8946 116.828 52.0176 117.384 52.5739C117.814 53.0678 118 53.5609 117.937 54.0548L120.222 54.5487C120.469 54.1163 120.099 53.7463 119.048 53.5001C118.801 53.4378 118.678 53.2524 118.678 53.0062L118.246 49.8583C117.999 49.1789 117.63 48.8705 117.197 48.9328L116.518 49.1797L115.716 49.5506L116.456 48.0689C117.011 46.8965 117.32 45.6617 117.32 44.4893L117.073 42.8231C117.444 43.687 117.814 44.2424 118.122 44.5517C118.43 44.861 118.738 44.984 119.11 45.0448C119.48 45.1071 119.85 44.9832 120.158 44.6748C120.653 44.2432 121.084 43.5024 121.455 42.453L122.195 39.1812C122.505 37.5453 122.813 36.1259 123.213 35.0766L123.923 33.8418L124.448 33.2249L124.942 33.6572L125.498 35.1389C125.805 36.6821 125.93 38.5027 125.868 40.6629C125.805 43.1939 125.373 45.4779 124.633 47.4535H124.695C125.744 45.7864 126.362 43.6262 126.67 40.9721C126.855 38.812 126.855 37.0522 126.547 35.5705L128.399 39.3674C129.021 40.9962 129.435 42.6966 129.633 44.4286C129.818 46.7127 129.572 48.749 129.016 50.6015L129.077 50.663C129.942 49.1813 130.374 47.0212 130.312 44.244C130.251 41.9599 129.572 39.5528 128.337 37.0522L126.609 34.3341Z" fill="#565656"/>
<path fill-rule="evenodd" clip-rule="evenodd" d="M111.885 36.2463L111.514 36.8026C111.452 36.9256 111.576 36.9872 111.761 37.0495L112.502 37.111C112.811 37.111 112.934 37.0495 112.995 36.9256L112.811 36.4317L111.885 36.2463ZM113.861 36.0609L113.984 36.6787L114.354 36.2463L114.478 35.814L114.106 35.8763L113.861 36.0609Z" fill="#D1C584"/>
<path fill-rule="evenodd" clip-rule="evenodd" d="M187.133 102.232C186.822 101.919 186.401 101.742 185.96 101.737C185.467 101.737 185.035 101.922 184.726 102.232C184.416 102.57 184.232 102.972 184.232 103.466C184.232 103.899 184.416 104.329 184.726 104.639C185.096 104.948 185.528 105.133 185.96 105.133C186.393 105.133 186.825 104.948 187.133 104.639C187.442 104.329 187.627 103.899 187.627 103.466C187.627 102.972 187.441 102.57 187.133 102.232ZM185.96 101.984C186.33 101.984 186.64 102.108 186.946 102.416C187.256 102.725 187.379 103.034 187.379 103.466C187.379 103.899 187.256 104.206 186.946 104.454C186.639 104.762 186.33 104.885 185.96 104.885C185.528 104.885 185.219 104.762 184.91 104.454C184.601 104.145 184.479 103.836 184.479 103.466C184.479 103.034 184.601 102.725 184.91 102.416C185.219 102.108 185.528 101.984 185.96 101.984Z" fill="black"/>
<path fill-rule="evenodd" clip-rule="evenodd" d="M186.7 103.035L186.392 102.603L185.898 102.48H185.218V104.394H185.59V103.654H185.837L186.207 103.714L186.392 104.147V104.393H186.7V103.96L186.577 103.653L186.269 103.528L186.516 103.405L186.7 103.035ZM185.837 102.727L186.269 102.789L186.392 103.097L186.207 103.345L185.898 103.406H185.59V102.727H185.837ZM103.276 89.2387C103.214 85.7223 103.214 83.5302 103.337 82.4489L103.153 82.3882L102.35 82.9124L100.992 82.7582C98.8335 81.9154 96.5109 81.5781 94.202 81.772C92.7826 81.8327 91.4232 82.142 90.1581 82.7582C88.8619 83.3136 87.6895 84.1472 86.609 85.1653C84.4184 87.4502 83.3691 90.4127 83.4298 94.0234C83.4914 97.5414 84.6022 100.32 86.8863 102.295C89.0473 104.209 91.7317 105.074 95.0036 104.95C97.2868 104.888 99.2624 104.271 100.93 103.16C102.226 102.357 103.152 101.309 103.769 100.135L104.263 99.1486L103.954 98.9632C102.904 100.507 101.607 101.74 100.065 102.574C98.6454 103.284 97.0399 103.593 95.3121 103.47C93.2749 103.407 91.5471 102.482 90.1893 100.815C88.7692 99.0247 87.9979 96.6799 87.9364 93.8708C87.8437 90.7852 88.4303 88.2549 89.6954 86.2178C91.0532 84.0576 92.9673 82.946 95.3744 82.9148C97.2876 82.8229 98.8924 83.3783 100.313 84.5507C101.733 85.7855 102.597 87.3295 102.905 89.2411H103.276V89.2387ZM59.635 87.017C59.388 85.5353 58.648 84.3621 57.3517 83.5302C56.0243 82.5112 54.1422 82.0789 51.8885 82.1412L43.0615 82.2019V82.6031L43.617 82.6966L44.3578 82.9436L45.3456 83.5598C45.6541 83.869 45.7772 84.1775 45.7772 84.6083V101.861C45.7772 102.479 45.2833 103.035 44.3578 103.59L43 103.96V104.33L48.5247 104.27L54.2964 104.393C56.5493 104.33 58.3395 103.777 59.6973 102.88C61.1175 101.799 61.9198 100.442 61.9814 98.7138C62.0437 96.9237 61.4259 95.3797 60.0066 94.2073C58.7103 93.1268 57.2286 92.5713 55.5312 92.509C56.7347 92.3236 57.7225 91.8297 58.5249 91.0273C59.5119 89.9796 59.8827 88.6825 59.635 87.017ZM54.1102 84.3621C55.0365 85.1645 55.5304 86.2762 55.5304 87.634C55.5304 89.178 55.1596 90.3496 54.4187 91.0289C53.4925 91.8313 52.0116 92.079 49.8506 91.8936V83.5598C50.2206 83.3759 50.653 83.3128 51.1469 83.2521C52.3209 83.2521 53.3086 83.6221 54.1102 84.3621ZM57.5363 98.2823C57.5987 99.2077 57.4748 99.9494 57.1663 100.629C56.4255 102.294 54.9134 103.22 52.5055 103.282C50.7153 103.282 49.8514 102.603 49.8514 101.184V93.3138L51.7654 93.1284C54.0487 93.3138 55.7158 94.1457 56.7339 95.7521C57.2106 96.5143 57.4866 97.3847 57.5363 98.2823ZM181.64 82.5112V82.2019H172.287V82.5112L173.646 82.9436C174.509 83.3759 174.942 83.9921 174.942 84.7945V101.861C174.942 102.571 174.509 103.096 173.646 103.59L172.287 104.023V104.33H181.64V104.023L180.343 103.59L179.48 102.973C179.17 102.665 178.985 102.293 178.985 101.861V84.733C178.985 84.0536 179.417 83.4359 180.343 82.9428C180.837 82.7574 181.268 82.6031 181.64 82.5112ZM136.918 82.2954L134.016 82.2019L126.608 82.2954V82.5112L127.905 82.9436L128.77 83.5598C129.077 83.869 129.263 84.1775 129.263 84.6083V101.923C129.263 102.356 129.077 102.665 128.77 102.972L127.905 103.527L126.608 104.022V104.33H135.62V104.022L134.448 103.59L133.646 103.034C133.399 102.725 133.244 102.416 133.244 101.984V93.4976C133.244 93.3138 133.399 93.1883 133.552 93.1883C134.139 93.1883 134.88 93.7437 135.806 94.7635L137.657 97.4791L139.386 100.565L141.237 103.157C141.948 103.899 142.687 104.269 143.428 104.33C145.033 104.515 146.7 104.515 148.366 104.392V104.022C147.503 103.899 146.761 103.59 146.206 103.157L144.971 101.676L143.305 99.0207L141.453 96.0582C140.249 94.1441 138.954 93.0644 137.596 92.7567C139.261 92.6944 140.621 92.2013 141.639 91.2751C142.813 90.2873 143.367 89.0525 143.183 87.5708C142.998 86.0268 142.258 84.7921 140.992 83.8355C139.818 82.9124 138.46 82.3874 136.918 82.2954ZM134.695 83.2521C135.867 83.3128 136.857 83.6828 137.658 84.4556C138.46 85.2268 138.892 86.2754 138.955 87.634C139.017 88.8687 138.892 89.7942 138.522 90.4735C138.152 91.0912 137.474 91.5236 136.485 91.8313L134.757 92.0167L133.337 91.8936V83.5302L134.695 83.2521ZM168.152 85.4738C165.929 83.4367 162.967 82.3882 159.325 82.2019L153.429 82.2954L148.677 82.2019V82.5112L149.974 82.9436L150.837 83.5302C151.146 83.8379 151.269 84.1783 151.269 84.6091V101.924L150.837 103.036L149.974 103.591L148.677 103.961V104.331L159.202 104.456C163.152 104.517 166.301 103.406 168.584 100.999C169.523 99.9402 170.274 98.7294 170.805 97.4184C171.238 96.1836 171.486 94.9193 171.486 93.5615C171.486 90.2265 170.374 87.5109 168.152 85.4738ZM159.633 83.5302C161.794 83.9314 163.46 85.0414 164.757 86.7085C166.054 88.4364 166.671 90.5358 166.732 93.066C166.794 95.629 166.362 97.7892 165.436 99.4547C164.448 101.369 162.904 102.603 160.746 103.097L159.079 103.282L157.443 103.22C156.764 103.036 156.269 102.881 156.085 102.666C155.653 102.294 155.406 101.678 155.343 100.752V83.5598C156.517 83.2209 157.998 83.2209 159.633 83.5302ZM74.7275 81.8943L71.363 81.9862L64.5124 101.491C64.2031 102.416 63.6477 103.035 62.9068 103.467L61.1782 104.023V104.33H68.5858V104.023L67.1041 103.467C66.6718 103.158 66.4248 102.788 66.4248 102.233L66.8572 100.382L68.7712 94.7643H74.9745L76.8877 100.134L77.3816 101.985C77.4431 102.603 77.2585 103.097 76.7646 103.405L75.3453 103.96V104.33H84.9746V103.96L83.493 103.528C82.8136 103.219 82.2894 102.665 81.9497 101.8L74.7275 81.8943ZM74.5421 93.1891H69.2643L71.9184 85.5969L74.5421 93.1891ZM115.901 81.987H112.566L105.685 101.492C105.376 102.417 104.882 103.036 104.079 103.468L102.413 103.961V104.331H109.727V104.024L108.308 103.468C107.814 103.159 107.567 102.789 107.628 102.233L107.999 100.383L109.912 94.7651H116.208L118.615 101.986C118.678 102.603 118.432 103.097 117.999 103.406C117.69 103.654 117.197 103.838 116.579 103.961V104.331H126.117V103.961L124.698 103.529C124.05 103.22 123.524 102.666 123.185 101.801L115.901 81.987ZM115.776 93.1891H110.468L113.122 85.5969L115.776 93.1891Z" fill="#C1C1C1"/>
</g>
<defs>
<clipPath id="clip0_119_2341">
<rect width="231" height="127" fill="white"/>
</clipPath>
</defs>
</svg>
