<svg width="170" height="75" viewBox="0 0 170 75" fill="none" xmlns="http://www.w3.org/2000/svg">
<path d="M106 50.6688H111.82C112.974 50.6688 113.831 50.7169 114.399 50.813C114.966 50.9092 115.473 51.1074 115.92 51.4138C116.367 51.7142 116.741 52.1227 117.037 52.6213C117.333 53.12 117.484 53.6907 117.484 54.3155C117.484 54.9944 117.303 55.6192 116.934 56.1839C116.566 56.7486 116.071 57.1752 115.443 57.4575C116.331 57.7159 117.013 58.1544 117.49 58.7732C117.967 59.392 118.202 60.1189 118.202 60.954C118.202 61.6149 118.051 62.2517 117.743 62.8765C117.436 63.5013 117.013 63.9939 116.482 64.3664C115.95 64.7389 115.292 64.9671 114.513 65.0513C114.024 65.1053 112.841 65.1354 110.969 65.1474H106.012V50.6628L106 50.6688ZM108.94 53.0779V56.4242H110.866C112.014 56.4242 112.726 56.4062 113.004 56.3762C113.505 56.3161 113.903 56.1419 114.193 55.8595C114.483 55.5711 114.622 55.1986 114.622 54.73C114.622 54.2614 114.495 53.919 114.248 53.6366C114 53.3543 113.632 53.1861 113.143 53.126C112.853 53.096 112.014 53.0779 110.631 53.0779H108.94ZM108.94 58.8393V62.7143H111.663C112.72 62.7143 113.396 62.6842 113.68 62.6242C114.115 62.5461 114.471 62.3538 114.749 62.0474C115.026 61.741 115.159 61.3325 115.159 60.8158C115.159 60.3833 115.057 60.0108 114.839 59.7104C114.628 59.41 114.32 59.1878 113.922 59.0496C113.523 58.9114 112.654 58.8393 111.313 58.8393H108.94Z" fill="white"/>
<path d="M120.582 65.1474V50.6628H123.522V65.1474H120.582Z" fill="white"/>
<path d="M137.633 50.6688H143.453C144.606 50.6688 145.464 50.7169 146.031 50.813C146.599 50.9092 147.106 51.1074 147.553 51.4138C148 51.7142 148.374 52.1227 148.67 52.6213C148.966 53.12 149.117 53.6907 149.117 54.3155C149.117 54.9944 148.936 55.6192 148.567 56.1839C148.199 56.7486 147.704 57.1752 147.076 57.4575C147.963 57.7159 148.646 58.1544 149.123 58.7732C149.6 59.392 149.835 60.1189 149.835 60.954C149.835 61.6149 149.684 62.2517 149.376 62.8765C149.068 63.5013 148.646 63.9939 148.114 64.3664C147.583 64.7389 146.925 64.9671 146.146 65.0513C145.657 65.1053 144.474 65.1354 142.602 65.1474H137.645V50.6628L137.633 50.6688ZM140.573 53.0779V56.4242H142.499C143.646 56.4242 144.359 56.4062 144.637 56.3762C145.138 56.3161 145.536 56.1419 145.826 55.8595C146.116 55.5711 146.255 55.1986 146.255 54.73C146.255 54.2614 146.128 53.919 145.88 53.6366C145.633 53.3543 145.265 53.1861 144.776 53.126C144.486 53.096 143.646 53.0779 142.264 53.0779H140.573ZM140.573 58.8393V62.7143H143.296C144.353 62.7143 145.029 62.6842 145.313 62.6242C145.748 62.5461 146.104 62.3538 146.382 62.0474C146.659 61.741 146.792 61.3325 146.792 60.8158C146.792 60.3833 146.689 60.0108 146.472 59.7104C146.261 59.41 145.953 59.1878 145.554 59.0496C145.156 58.9114 144.286 58.8393 142.946 58.8393H140.573Z" fill="white"/>
<path d="M154.368 65.1474L150.896 50.6628H153.903L156.095 60.6116L158.758 50.6628H162.254L164.808 60.7798L167.042 50.6628H170L166.468 65.1474H163.352L160.454 54.3215L157.562 65.1474H154.374H154.368Z" fill="white"/>
<path d="M133.08 54.3396L133.98 54.4417L128.292 66.2348L127.393 66.1327L133.08 54.3396Z" fill="white"/>
<path fill-rule="evenodd" clip-rule="evenodd" d="M55.7896 29.3416L60.4628 44.3067C59.056 44.8053 57.456 45.0997 55.7533 45.0997C54.1171 45.1117 52.4869 44.8294 50.9473 44.2647L55.699 29.3416H55.7896Z" fill="white"/>
<path fill-rule="evenodd" clip-rule="evenodd" d="M99.2127 30.441C99.2127 35.0729 95.6927 36.5328 91.2911 36.5328H87.9824V24.5054H91.2911C95.6927 24.5054 99.2127 25.9652 99.2127 30.441Z" fill="white"/>
<path fill-rule="evenodd" clip-rule="evenodd" d="M0 0V75H76.9879L152.346 0H0ZM92.8371 46.7939H87.9887L87.9404 60.0228L65.1538 59.9868L63.5719 54.2494C61.2232 55.0304 58.5726 55.451 55.7529 55.451C52.9333 55.451 50.1438 54.9944 47.7468 54.1834L45.4706 59.9868L32.7852 60.0348L33.3467 57.1091C33.1595 57.2593 32.9905 57.4335 32.8033 57.5837C29.404 60.2932 25.1353 61.5608 19.8824 61.6449L18.5239 61.6629C12.468 61.6629 7.14874 60.2391 2.13134 57.3975L6.7744 48.2418C11.7918 51.2035 14.9375 51.8644 19.1881 51.7803C21.3798 51.7322 22.9798 51.3237 24.0183 50.2603C24.6281 49.6355 24.9904 48.8065 25.0025 47.9414C25.0508 45.5563 21.6515 44.4389 17.4854 43.1532C14.1164 42.1199 10.2763 40.7021 7.28157 38.5153C3.74343 35.926 2.05889 32.6758 2.14945 28.092C2.18568 24.7757 3.42343 21.7659 5.71779 19.3988C9.01442 16.0165 14.3398 13.9499 20.7338 13.9499H20.77C26.2463 13.9499 32.912 15.4878 37.7362 17.945L32.5316 26.9805C27.2425 24.4273 24.5738 24.187 21.567 24.0368C17.0628 23.7844 14.8167 25.3885 14.7805 27.1187C14.7322 29.2154 19.013 31.1138 23.0583 32.3995C29.1806 34.346 36.9513 36.9173 38.1407 44.4088L49.3287 14.9892H62.3221L75.412 50.2123L75.3637 15.0072H90.4099C104.744 15.0072 111.476 19.8314 111.476 30.9096C111.476 40.8583 104.556 46.7939 92.8431 46.7939H92.8371Z" fill="white"/>
<path d="M55.7896 29.3416L60.4628 44.3067C59.056 44.8053 57.456 45.0997 55.7533 45.0997C54.1171 45.1117 52.4869 44.8294 50.9473 44.2647L55.699 29.3416H55.7896Z" fill="white"/>
<path d="M87.9824 36.5267V24.4993H91.2911C95.6927 24.4993 99.2127 25.9591 99.2127 30.4349C99.2127 35.0668 95.6927 36.5267 91.2911 36.5267H87.9824Z" fill="white"/>
<path d="M0 0V75H76.9879L152.346 0H0ZM92.8371 46.7939H87.9887L87.9404 60.0228L65.1538 59.9868L63.5719 54.2494C61.2232 55.0304 58.5726 55.451 55.7529 55.451C52.9333 55.451 50.1438 54.9944 47.7468 54.1834L45.4706 59.9868L32.7852 60.0348L33.3467 57.1091C33.1595 57.2593 32.9905 57.4335 32.8033 57.5837C29.404 60.2932 25.1353 61.5608 19.8824 61.6449L18.5239 61.6629C12.468 61.6629 7.14874 60.2391 2.13134 57.3975L6.7744 48.2418C11.7918 51.2035 14.9375 51.8644 19.1881 51.7803C21.3798 51.7322 22.9798 51.3237 24.0183 50.2603C24.6281 49.6355 24.9904 48.8065 25.0025 47.9414C25.0508 45.5563 21.6515 44.4389 17.4854 43.1532C14.1164 42.1199 10.2763 40.7021 7.28157 38.5153C3.74343 35.926 2.05889 32.6758 2.14945 28.092C2.18568 24.7757 3.42343 21.7659 5.71779 19.3988C9.01442 16.0165 14.3398 13.9499 20.7338 13.9499H20.77C26.2463 13.9499 32.912 15.4878 37.7362 17.945L32.5316 26.9805C27.2425 24.4273 24.5738 24.187 21.567 24.0368C17.0628 23.7844 14.8167 25.3885 14.7805 27.1187C14.7322 29.2154 19.013 31.1138 23.0583 32.3995C29.1806 34.346 36.9513 36.9173 38.1407 44.4088L49.3287 14.9892H62.3221L75.412 50.2123L75.3637 15.0072H90.4099C104.744 15.0072 111.476 19.8314 111.476 30.9096C111.476 40.8583 104.556 46.7939 92.8431 46.7939H92.8371Z" fill="white"/>
<path d="M93.0426 65.1475C91.4909 65.1715 90.229 66.4511 90.2169 68.0251C90.2048 69.6112 91.4546 70.8908 93.0184 70.8848C94.6909 70.8848 96.0132 69.6232 95.983 68.0492C95.9588 66.4331 94.6245 65.1294 93.0365 65.1535L93.0426 65.1475ZM93.1029 70.5183C91.9075 70.5364 90.7784 69.3528 90.7724 68.0732C90.7724 66.6374 91.7927 65.586 93.1633 65.6101C94.4192 65.6341 95.4698 66.7575 95.4577 68.0672C95.4456 69.3048 94.2984 70.4943 93.0969 70.5183H93.1029Z" fill="white"/>
<path d="M93.8214 66.4811C93.2478 66.3128 92.3301 65.9584 92.1067 66.7214C91.847 67.5985 91.9255 68.6078 92.1429 69.6171C92.5052 69.4729 92.481 69.2566 92.5293 69.0704C92.6018 68.782 92.3421 68.3134 92.795 68.2353C93.1693 68.1752 93.2538 68.6438 93.4591 68.8901C93.5376 68.9802 93.6161 69.0704 93.7006 69.1665C93.7791 69.1064 93.8576 69.0403 93.9301 68.9803C93.6342 68.4936 93.9603 68.2113 94.2078 67.8148C94.4916 67.3462 94.5037 66.6793 93.8335 66.4871L93.8214 66.4811ZM93.1331 67.8328C92.7346 67.8448 92.5052 67.7126 92.5293 67.2621C92.5474 66.8655 92.7708 66.7814 93.1089 66.8055C93.4531 66.8235 93.8154 66.8415 93.8214 67.2981C93.8274 67.7367 93.5014 67.8208 93.1331 67.8328Z" fill="white"/>
</svg>
