<svg width="231" height="127" viewBox="0 0 231 127" fill="none" xmlns="http://www.w3.org/2000/svg">
<g clip-path="url(#clip0_632_2523)">
<path d="M65.4728 39.1962C69.8193 39.4818 74.6061 42.198 78.6402 46.2589C80.321 47.9487 80.3686 50.2811 79.6814 52.5421C79.2084 54.095 78.1969 55.3237 77.1021 56.472C76.1144 57.5103 75.0731 58.498 74.0468 59.4946C72.1963 61.2915 72.3808 62.5262 74.8619 63.3443C78.9436 64.689 83.0908 65.8403 87.2022 67.0987C88.9039 67.6194 90.5818 68.1906 92.0991 69.1783C94.5326 70.761 95.6661 72.9892 95.3775 75.8423C94.845 81.1288 92.9559 85.8829 89.5852 90.036C85.2179 95.4178 79.3452 98.1458 72.7318 99.4727C67.231 100.576 61.6916 101.052 56.1045 99.8713C53.4865 99.318 52.1329 98.4701 51.8741 96.7922C51.6301 95.2095 53.0076 93.2044 55.1109 92.2643C58.8267 90.6072 62.7834 90.0241 66.8145 89.9289C73.2138 89.7742 78.9585 87.888 83.8554 83.6784C85.4381 82.3159 86.875 80.8194 87.8567 78.9571C88.9099 76.9608 88.8801 74.9646 87.5979 73.0696C84.6169 68.6606 80.208 66.8726 75.1148 66.3639C75.0642 66.358 75.0166 66.352 74.966 66.355C70.087 66.6614 66.7015 62.5202 70.4054 57.1503C71.1878 56.0139 72.1309 54.9875 72.9222 53.854C75.8704 49.6206 72.7616 45.6668 69.4504 44.9469C65.6692 44.1258 60.0018 44.5304 55.9409 50.2394C54.6349 52.075 53.2158 52.31 51.8533 51.0903C50.2735 49.6771 49.9314 47.2019 51.285 45.5925C54.5694 41.6863 58.5827 39.1129 65.4758 39.1932L65.4728 39.1962Z" fill="#EEEEEE"/>
<path d="M161.704 26.2109C169.115 28.0257 175.145 31.2952 178.486 38.2389C180.069 41.5322 180.947 45.0427 180.483 48.7287C179.614 55.6188 175.029 60.5513 167.943 61.6819C159.997 62.9492 152.613 61.3873 147.13 55.116C145.012 52.6944 142.992 51.6174 139.939 52.0845C139.062 52.2184 138.181 51.9417 137.327 51.6442C136.188 51.2485 135.944 50.7577 136.789 49.7372C138.3 47.9106 139.701 45.9947 141.147 44.1175C142.165 42.7936 142.733 41.3477 142.834 39.6312C142.974 37.3196 144.045 35.3918 145.901 33.94C153.476 28.0287 164.873 31.2565 167.937 40.1815C169.377 44.3763 167.901 48.342 164.275 49.9871C163.849 50.1805 163.326 50.6208 162.924 50.1686C162.594 49.7967 163.007 49.3029 163.257 48.9786C166.298 45.0129 162.859 39.4884 158.86 38.3787C156.805 37.8075 154.761 37.6647 152.738 38.4233C148.814 39.893 146.969 43.5968 148.046 47.7708C150.349 56.6958 162.383 60.7983 169.674 55.1428C173.61 52.0905 175.496 45.9977 173.997 40.9402C172.224 34.9664 168.532 30.5158 163.097 27.4813C162.65 27.2314 162.047 27.16 161.713 26.2169L161.704 26.2109Z" fill="#EEEEEE"/>
<path d="M129.272 69.1909C130.665 69.0898 132.042 69.2118 133.396 69.5331C134.02 69.6818 134.666 69.8216 135.178 70.2322C135.743 70.6874 136.162 71.2675 135.877 72.0291C135.606 72.752 134.934 72.8442 134.264 72.7996C133.131 72.7223 132.003 72.5527 130.87 72.52C127.999 72.4367 125.556 73.5701 123.444 75.4117C121.162 77.4019 121.386 79.779 123.932 81.3914C125.854 82.6082 127.91 83.3609 130.239 83.1734C131.944 83.0336 133.372 82.3166 134.098 80.7875C136.308 76.1257 137.635 71.2645 136.945 66.0285C136.537 62.9167 134.907 60.5188 132.607 58.5047C132.048 58.0139 131.456 57.5676 131.212 56.8179C130.953 56.0147 130.914 55.2263 131.643 54.6521C132.354 54.0928 133.119 54.1702 133.836 54.6938C136.82 56.8774 139.024 59.6442 139.53 63.3718C139.842 65.6804 140.107 68.0188 139.646 70.4047C138.941 74.0372 138.343 77.7024 137.974 81.3825C137.689 84.2117 136.249 86.0146 133.889 87.2998C131.73 88.4779 129.457 89.2097 126.961 89.2127C124.512 89.2127 122.665 88.1982 121.451 86.0889C119.238 82.2423 118.815 78.1576 120.068 73.9361C121.082 70.5089 123.84 69.4795 127.044 69.1999C127.779 69.1374 128.525 69.1909 129.269 69.1909H129.272Z" fill="#EEEEEE"/>
<path d="M63.2005 84.1528C64.7148 76.4505 61.6059 69.3313 60.3891 61.9742C59.9458 59.2967 59.4133 56.634 58.9314 53.9625C58.6339 52.3114 59.0028 50.7168 59.4639 49.1519C59.6483 48.5242 60.1362 47.9738 60.8413 47.9649C61.5613 47.9589 61.8469 48.6253 61.9183 49.1965C62.9922 57.8597 66.8776 65.7346 68.9065 74.1241C69.4391 76.3256 69.8794 78.5806 70.0519 80.8327C70.2185 82.9747 69.4599 85.0304 68.4752 86.9195C67.895 88.0292 66.2409 88.3743 64.8903 87.9459C63.5932 87.5354 63.1291 86.6191 63.1975 85.3339C63.2183 84.9412 63.2005 84.5455 63.2005 84.1498V84.1528Z" fill="#EEEEEE"/>
<path d="M155.557 67.3906C157.702 67.3578 159.796 67.6524 161.831 68.3455C164.827 69.366 165.422 71.5139 163.17 73.7005C160.549 76.2442 157.785 78.648 155.078 81.1053C153.543 82.5006 151.981 83.8691 150.458 85.2792C150.047 85.66 149.36 86.1033 149.738 86.734C150.083 87.3082 150.841 87.0583 151.389 86.9125C154.301 86.1331 157.202 85.303 160.111 84.5028C160.825 84.3064 161.539 84.0803 162.268 83.9762C163.381 83.8215 164.074 84.354 164.265 85.4696C164.452 86.5615 164.059 87.3855 162.929 87.57C158.829 88.2394 154.724 88.8611 150.615 89.468C150.19 89.5305 149.729 89.4175 149.294 89.3342C146.908 88.873 146.403 87.7128 147.727 85.6005C148.167 84.8984 148.756 84.2737 149.339 83.6727C152.683 80.2366 156.051 76.8243 159.394 73.3911C160.016 72.7515 160.727 72.0107 160.171 71.0558C159.618 70.1067 158.579 70.1871 157.63 70.2942C156.187 70.4548 154.864 70.9873 153.561 71.6121C151.466 72.6176 149.345 73.5667 147.221 74.5097C145.766 75.1553 143.594 74.2539 143.053 72.7426C142.615 71.5199 143.454 70.7702 144.308 70.1722C145.492 69.3422 146.891 68.9465 148.262 68.5211C150.639 67.7803 153.052 67.3043 155.557 67.3935V67.3906Z" fill="#EEEEEE"/>
<path d="M107.405 84.346C107.485 82.0612 107.227 79.824 106.518 77.6403C106.385 77.2238 106.295 76.7776 106.283 76.3432C106.269 75.7601 106.159 75.0342 106.664 74.6802C107.292 74.2399 107.747 74.942 108.173 75.2693C109.095 75.9833 109.485 75.7601 109.723 74.6743C109.975 73.5229 110.359 72.3984 110.698 71.2649C111.6 68.2364 115.095 66.377 118.103 67.3141C119.135 67.6354 119.427 68.3018 118.984 69.2449C118.508 70.2564 117.734 71.0239 116.711 71.488C114.7 72.3984 113.578 74.0079 113.126 76.0904C112.51 78.9315 111.992 81.7905 111.395 84.6375C111.183 85.6461 110.919 86.6546 110.57 87.6244C110.309 88.3622 109.913 89.2101 108.979 89.1417C107.958 89.0673 107.697 88.1064 107.566 87.2942C107.408 86.3303 107.45 85.3337 107.405 84.349V84.346Z" fill="#EEEEEE"/>
<path d="M174.856 78.4346C174.558 81.5584 174.308 84.462 173.99 87.3566C173.901 88.1718 173.788 89.213 172.714 89.2636C171.545 89.3201 170.976 88.4128 170.765 87.3775C170.598 86.5593 170.503 85.7085 170.527 84.8755C170.655 80.4368 169.843 76.132 168.813 71.848C168.677 71.2798 168.629 70.6729 168.641 70.0868C168.674 68.5636 169.373 67.793 170.831 67.5848C172.279 67.3795 173.246 67.9269 173.725 69.2895C174.154 70.5062 174.32 71.7795 174.52 73.0499C174.814 74.9152 174.436 76.8073 174.856 78.4346Z" fill="#EEEEEE"/>
<path d="M99.1557 84.6021C99.2271 80.6215 98.3911 76.7659 97.4956 72.9222C97.2844 72.0089 97.0404 71.1045 97.088 70.1525C97.1684 68.5401 97.8258 67.7993 99.3907 67.5851C100.831 67.3887 101.908 68.0373 102.306 69.4772C102.622 70.6136 102.898 71.7798 103.014 72.952C103.505 77.8845 103.092 82.7873 102.407 87.6753C102.27 88.66 101.783 89.3948 100.67 89.2877C99.596 89.1836 99.1884 88.4071 99.1616 87.4164C99.1348 86.4793 99.1557 85.5422 99.1557 84.6051V84.6021Z" fill="#EEEEEE"/>
<path d="M153.227 48.5679C150.639 48.5649 149.523 46.7977 150.669 44.6885C151.519 43.1206 152.715 41.7551 154.622 41.7462C156.678 41.7343 158.097 42.9868 158.972 44.8015C159.671 46.2474 159.222 47.2737 157.707 47.8033C156.202 48.3299 154.613 48.3566 153.23 48.5708L153.227 48.5679Z" fill="#EEEEEE"/>
<path d="M98.8591 58.918C96.7825 58.9031 96.0774 57.8083 96.8361 56.2553C97.4132 55.0743 98.3176 54.2383 99.701 54.2383C101.019 54.2383 101.897 55.0267 102.477 56.1512C102.982 57.127 102.783 57.9243 101.694 58.2605C100.662 58.5818 99.585 58.7543 98.8591 58.9209V58.918Z" fill="#EEEEEE"/>
</g>
<defs>
<clipPath id="clip0_632_2523">
<rect width="231" height="127" fill="white"/>
</clipPath>
</defs>
</svg>
