<svg width="231" height="127" viewBox="0 0 231 127" fill="none" xmlns="http://www.w3.org/2000/svg">
<g clip-path="url(#clip0_665_5782)">
<g clip-path="url(#clip1_665_5782)">
<path d="M50.0699 40.6515C50.3942 40.4682 50.7561 40.5387 51.0992 40.5387C56.2598 40.534 61.4204 40.5528 66.581 40.5246C68.7618 40.5105 70.7875 40.9993 72.5453 42.2871C75.7084 44.5948 77.6401 48.8671 76.4369 52.8104C75.981 54.305 75.1867 55.574 74.0117 56.608C73.8143 56.7819 73.5511 56.8994 73.4383 57.2284C74.3783 57.8253 75.3418 58.4128 76.1314 59.2353C77.9268 61.1106 78.8198 63.329 78.7164 65.9187C78.6083 68.6024 77.7952 71.0511 76.1314 73.1849C75.9622 73.4011 75.7789 73.6032 75.5909 73.8006C75.4593 73.9416 75.3042 74.0591 75.1867 74.1578H50.0793C49.849 73.1332 49.849 41.6291 50.0652 40.6468L50.0699 40.6515ZM59.0328 68.7951C59.8318 68.7951 60.4898 68.7951 61.1431 68.7951C63.0936 68.7951 65.0441 68.7998 66.9946 68.781C68.2354 68.7669 69.0485 68.123 69.4339 66.9621C69.5796 66.525 69.7065 66.0503 69.6971 65.5944C69.6548 63.376 68.3294 62.1023 66.4165 62.1916C65.3481 62.2433 64.2762 62.248 63.2037 62.241C63.2028 62.241 63.2018 62.241 63.2009 62.241C62.8442 62.2386 62.4874 62.2349 62.1305 62.2313C62.1295 62.2313 62.1285 62.2313 62.1274 62.2313C61.7704 62.2276 61.4134 62.224 61.0565 62.2216C60.8775 62.2205 60.6984 62.2196 60.5194 62.2193C60.5189 62.2193 60.5185 62.2193 60.5181 62.2193C60.5073 62.2192 60.4966 62.2192 60.4858 62.2192C60.3179 62.2189 60.1501 62.2191 59.9822 62.2198C59.6814 62.2198 59.3571 62.1305 59.0328 62.389V68.7951ZM59.0328 53.7504C59.0555 53.7504 59.0781 53.7504 59.1008 53.7504C61.5148 53.7504 63.7917 53.7504 66.064 53.7504C66.3789 53.7504 66.675 53.6564 66.9382 53.4684C67.7278 52.9044 68.132 51.5649 67.7889 50.498C67.4648 49.4885 66.9627 48.8212 65.6398 48.8197C65.6265 48.8197 65.6131 48.8198 65.5997 48.82C65.5931 48.82 65.5865 48.82 65.5799 48.8201C63.6307 48.8483 61.6816 48.8248 59.7277 48.8295C59.7264 48.8295 59.7251 48.8295 59.7237 48.8295C59.698 48.8295 59.6721 48.8287 59.6459 48.8281C59.6428 48.828 59.6396 48.8282 59.6365 48.8281C59.608 48.8275 59.5793 48.8268 59.5504 48.8267C59.5441 48.8267 59.5378 48.8268 59.5315 48.8269C59.362 48.8282 59.1877 48.8551 59.0281 49.0316V53.7504H59.0328Z" fill="white"/>
<path d="M160.6 60.039V74.2988C157.559 74.3599 154.612 74.3458 151.684 74.3082C151.463 73.0486 151.491 41.5445 151.707 40.5904H158.607C162.715 46.5218 166.865 52.5143 171.015 58.5115C171.076 58.5021 171.137 58.488 171.203 58.4786V40.6092H180.048C180.241 41.5445 180.302 72.6303 180.124 74.1296C179.334 74.3787 172.51 74.4539 170.841 74.2142C167.532 69.5142 164.191 64.7625 160.844 60.0061C160.764 60.0155 160.684 60.0249 160.604 60.039H160.6Z" fill="white"/>
<path d="M99.1379 74.2189C95.6552 74.2189 92.1772 74.2001 88.6992 74.233C87.9848 74.2377 87.4443 74.0403 86.8991 73.5891C83.4399 70.7409 81.2591 67.1172 80.4789 62.7321C79.3556 56.3871 80.8596 50.6954 85.24 45.9108C88.248 42.6255 92.0597 40.7549 96.4824 40.1486C101.107 39.5188 105.469 40.3366 109.412 42.8229C114.742 46.1834 117.726 51.0714 118.243 57.3741C118.591 61.5759 117.731 65.5286 115.461 69.1288C114.389 70.8255 113.022 72.2731 111.499 73.5703C110.94 74.045 110.333 74.2471 109.577 74.2377C106.099 74.2001 102.616 74.2189 99.1379 74.2189ZM89.2303 58.1261C89.0376 59.0426 89.1833 59.945 89.3102 60.8239C89.4552 61.8363 89.6996 62.7775 90.0537 63.6388C90.9505 65.8204 92.5507 67.4894 95.0207 68.5037C97.6386 69.58 100.285 69.5377 102.912 68.6118C105.21 67.7987 106.996 66.3182 108.049 64.0857C109.525 60.9555 109.605 57.7689 108.317 54.5494C108.171 54.1844 108.009 53.8362 107.831 53.5048C107.773 53.3984 107.714 53.2938 107.654 53.1909C106.564 51.3398 104.935 50.0489 102.809 49.3183C101.018 48.7073 99.1661 48.4206 97.272 48.8389C93.6154 49.6473 90.9599 51.6166 89.7144 55.2638C89.3948 56.2038 89.2726 57.1579 89.2303 58.1214V58.1261Z" fill="white"/>
<path d="M121.51 40.6186C121.806 40.6045 122.036 40.581 122.262 40.581C126.877 40.581 131.493 40.5763 136.108 40.5904C138.383 40.5998 140.526 41.1873 142.491 42.3106C145.442 43.9932 147.228 46.5923 147.952 49.8682C149.071 54.9395 147.256 59.9544 142.89 63.2021C142.392 63.5734 141.823 63.846 141.198 64.2126C142.331 65.8858 143.445 67.5308 144.559 69.1711C145.673 70.8161 146.791 72.4564 147.924 74.1155C147.007 74.3834 140.465 74.4727 137.499 74.2659C135.662 71.272 133.786 68.217 131.911 65.162C131.427 65.0304 130.976 65.0586 130.416 65.1338V74.2706C127.399 74.374 124.49 74.3082 121.604 74.3176C121.388 73.3353 121.317 42.555 121.515 40.6092L121.51 40.6186ZM130.515 49.1256V56.9464C130.545 56.9464 130.574 56.9464 130.604 56.9464C130.626 56.9464 130.649 56.9464 130.672 56.9463C132.035 56.9454 133.343 56.933 134.651 56.9511C135.281 56.9605 135.897 56.89 136.508 56.7678C138.378 56.4012 139.534 54.9489 139.558 53.0407C139.577 51.4991 138.435 49.5392 136.39 49.276C134.449 49.0269 132.517 49.1961 130.52 49.1256H130.515Z" fill="white"/>
<path d="M148.906 80.9211V85.6023C148.45 85.9266 148.088 85.889 147.632 85.6728C147.515 83.3369 147.59 80.9775 147.59 78.6087C148.225 78.3596 148.756 78.4254 149.409 78.5288C150.039 80.2866 150.678 82.0726 151.411 84.1124C152.116 82.1149 152.741 80.3383 153.352 78.5946C153.976 78.4661 154.578 78.4771 155.157 78.6275V85.6775C154.767 85.9031 154.433 85.8702 153.954 85.701C153.841 84.1735 153.963 82.5802 153.695 80.9587C153.108 82.5614 152.52 84.1594 151.956 85.6963C151.571 85.8937 151.27 85.8702 150.843 85.7339C150.269 84.1735 149.668 82.5379 149.066 80.907C149.01 80.9117 148.958 80.9211 148.901 80.9258L148.906 80.9211Z" fill="white"/>
<path d="M166.954 85.7104C166.761 84.4743 166.78 79.5158 166.987 78.5006C168.312 78.4019 169.675 78.3032 171.01 78.6275C172.138 78.9048 172.782 79.7508 173.041 80.8459C173.238 81.6872 173.229 82.5567 173.031 83.4027C172.73 84.6858 171.819 85.4895 170.507 85.6728C169.346 85.8373 168.181 85.8467 166.954 85.7151V85.7104ZM168.223 84.6999C168.447 84.6999 168.656 84.703 168.855 84.7059C169.244 84.7117 169.595 84.7169 169.945 84.6973C169.957 84.6967 169.969 84.6959 169.981 84.6952C170.973 84.6294 171.527 84.1359 171.772 83.1677C171.955 82.4392 171.936 81.7107 171.715 80.9869C171.532 80.3853 171.142 79.9435 170.54 79.8025C170.058 79.6896 169.568 79.5766 169.061 79.577C168.787 79.5772 168.508 79.6104 168.223 79.6944V84.6999Z" fill="white"/>
<path d="M174.286 83.4779C174.615 83.2429 174.921 83.2993 175.287 83.398C175.527 83.8163 175.574 84.4132 176.138 84.6764C176.617 84.902 177.111 84.9396 177.623 84.8973C177.9 84.8738 178.164 84.7798 178.385 84.6153C178.92 84.2158 178.902 83.3698 178.323 83.0314C178.027 82.8575 177.675 82.7635 177.341 82.6695C176.852 82.5285 176.349 82.4439 175.87 82.2888C175.029 82.0115 174.432 81.4851 174.366 80.5451C174.305 79.6803 174.921 78.8578 175.842 78.5006C177.722 77.7768 179.433 78.6322 179.785 80.4746C179.431 80.5937 179.069 80.6407 178.699 80.6156C178.098 79.5675 177.571 79.2385 176.721 79.3701C176.133 79.4641 175.734 79.7743 175.687 80.1738C175.64 80.5968 175.926 80.9587 176.519 81.1514C177.036 81.3253 177.571 81.4522 178.093 81.612C178.389 81.7013 178.699 81.7765 178.977 81.9175C179.691 82.2841 180.105 82.881 180.119 83.6941C180.133 84.5025 179.78 85.1464 179.047 85.5036C177.816 86.1052 176.556 86.1146 175.334 85.4801C174.526 85.0618 174.22 84.3474 174.286 83.4779Z" fill="white"/>
<path d="M87.261 78.6369C88.2668 78.3596 90.7578 78.369 91.585 78.6369C92.4451 78.9142 92.9715 79.7132 92.9668 80.7237C92.9668 81.7154 92.4498 82.505 91.5756 82.8105C91.0539 82.9891 90.5087 83.0267 89.9588 83.0361C89.5405 83.0408 89.1081 82.975 88.6851 83.1254C88.4313 83.9526 88.6851 84.7845 88.5018 85.5882C88.1023 85.8655 87.7075 85.842 87.261 85.5976V78.6369ZM88.7368 81.8893C88.9547 81.8893 89.1679 81.8932 89.3774 81.8971C89.8547 81.9059 90.3132 81.9144 90.7672 81.8752C90.9293 81.8615 91.0712 81.821 91.1924 81.757C91.1936 81.7563 91.1949 81.7556 91.1962 81.7549C91.5294 81.5768 91.705 81.2198 91.7119 80.7519C91.7213 80.0798 91.4487 79.6803 90.8142 79.6145C90.1327 79.5487 89.4371 79.5111 88.718 79.6615C88.7179 79.6624 88.7178 79.6634 88.7177 79.6643C88.7049 79.7868 88.6895 79.9024 88.6746 80.0133C88.6458 80.2288 88.6193 80.4269 88.6193 80.625C88.6193 80.702 88.6163 80.7795 88.6133 80.8584C88.6017 81.165 88.5892 81.4921 88.7462 81.8846L88.7368 81.8893Z" fill="white"/>
<path d="M164.252 78.5758C164.717 78.416 165.093 78.3737 165.549 78.5758C165.027 79.8354 163.984 80.7754 163.396 82.0585C164.186 83.2335 164.985 84.4226 165.826 85.6728C165.3 85.9172 164.858 85.842 164.383 85.7668C163.678 85.0101 163.321 83.9808 162.475 83.1818C161.864 84.0701 161.3 84.8973 160.741 85.7104C160.304 85.8843 159.885 85.8655 159.331 85.7527C160.059 84.4179 161.004 83.2946 161.789 81.988C161.042 80.8788 160.29 79.7602 159.509 78.604C159.998 78.3267 160.416 78.4724 160.83 78.4677C161.544 79.168 161.873 80.1221 162.602 80.9258C163.199 80.0798 163.744 79.2949 164.252 78.5711V78.5758Z" fill="white"/>
<path d="M145.945 85.6728C145.555 85.889 145.259 85.8702 144.953 85.7527C144.686 85.4519 144.765 85.09 144.761 84.7469C144.747 83.9667 144.78 83.1865 144.742 82.4063C144.709 81.6637 144.483 81.4146 143.901 81.3535C143.2 81.2783 142.749 81.5462 142.533 82.176C142.383 82.6272 142.387 83.0925 142.378 83.5625C142.364 84.2534 142.462 84.9584 142.312 85.5976C141.969 85.8655 141.682 85.7856 141.4 85.6775C141.203 84.7845 141.156 80.0798 141.325 78.6604C141.612 78.3596 141.945 78.4254 142.336 78.5476C142.683 79.215 142.354 79.9905 142.585 80.7848C142.89 80.672 143.191 80.5451 143.496 80.4511C144.667 80.0892 145.875 80.7096 145.945 82.0162C146.011 83.257 146.053 84.4884 145.945 85.6728Z" fill="white"/>
<path d="M97.4224 82.2042C96.8678 81.1044 96.0453 81.1232 94.9925 82.27C94.6917 82.3311 94.3909 82.3875 94.0901 82.1619C94.0854 82.0632 94.0572 81.9457 94.076 81.8376C94.3016 80.3477 97.1639 80.0187 98.2261 81.1514C98.5128 81.4569 98.5692 81.8423 98.5927 82.2324C98.6162 82.74 98.5927 83.2476 98.6303 83.7505C98.6726 84.2722 98.5504 84.8456 99.1097 85.2216C99.2507 85.3156 99.2084 85.5835 99.0815 85.795C98.4658 86.2086 97.9347 85.9454 97.4271 85.5083C96.6422 85.9125 95.8338 86.1475 94.9549 85.8843C94.2452 85.6728 93.8598 85.2263 93.8175 84.5683C93.7752 83.8539 94.1418 83.2899 94.8703 83.0737C95.3544 82.9327 95.862 82.881 96.3602 82.787C96.7785 82.7071 97.2297 82.6836 97.4177 82.1995L97.4224 82.2042ZM97.3848 83.2852C97.1684 83.3272 96.9611 83.3642 96.7609 83.3998C96.3567 83.4718 95.9806 83.5387 95.6129 83.633C95.3116 83.7116 95.132 83.9444 95.1269 84.2598C95.1268 84.267 95.1268 84.2742 95.1269 84.2815C95.127 84.2869 95.1271 84.2924 95.1273 84.2979C95.1276 84.3096 95.128 84.3214 95.1288 84.3333C95.1523 84.6905 95.3685 84.8644 95.7116 84.9396C96.7926 85.1793 97.3331 84.7046 97.3848 83.2852Z" fill="white"/>
<path d="M130.421 83.5625C130.896 85.137 131.85 85.4801 132.94 84.5307C133.335 84.1876 133.669 84.1735 134.096 84.3239C133.725 85.5788 132.522 86.3073 131.309 86.0065C129.631 85.5976 129.129 84.3333 129.241 82.9186C129.359 81.4616 130.553 80.4229 131.906 80.484C133.368 80.5498 134.289 81.659 134.303 83.5014C133.058 83.6847 131.775 83.4309 130.421 83.5625ZM132.964 82.6037C132.668 81.6261 132.315 81.2689 131.723 81.2407C131.696 81.2393 131.669 81.2386 131.642 81.2387C131.594 81.239 131.548 81.2418 131.503 81.2472C131.002 81.306 130.679 81.687 130.44 82.4956C130.497 82.5083 130.554 82.5197 130.611 82.53C131.162 82.6287 131.714 82.6196 132.31 82.6097C132.504 82.6065 132.702 82.6032 132.907 82.6035C132.926 82.6035 132.945 82.6036 132.964 82.6037Z" fill="white"/>
<path d="M116.556 83.0925C116.565 84.8456 115.536 85.9125 113.835 85.9125C112.265 85.9125 111.198 84.7657 111.217 83.0972C111.236 81.4898 112.354 80.3101 113.905 80.2725C115.409 80.2349 116.542 81.4428 116.551 83.0972L116.556 83.0925ZM115.367 83.163C115.367 81.9269 114.648 81.1749 113.623 81.3582C112.89 81.4887 112.466 82.1406 112.461 83.1282C112.46 83.172 112.461 83.2166 112.462 83.2617C112.48 83.8094 112.614 84.2325 112.858 84.5202C112.868 84.5318 112.878 84.5432 112.888 84.5544C113.093 84.7794 113.371 84.9145 113.717 84.9537C114.7 85.0665 115.362 84.3474 115.367 83.163Z" fill="white"/>
<path d="M126.083 85.5741V79.6521C125.284 79.6051 124.598 79.5628 123.944 79.5252C123.733 79.168 123.766 78.8766 123.921 78.51H129.542C129.754 78.8625 129.754 79.1492 129.552 79.5205C128.903 79.5581 128.217 79.5957 127.432 79.6427C127.267 81.6449 127.46 83.6236 127.319 85.5788C126.929 85.8514 126.572 85.8373 126.083 85.5694V85.5741Z" fill="white"/>
<path d="M139.99 82.2606C139.45 82.4157 139.078 82.3687 138.82 81.9081C138.496 81.3206 137.932 81.3253 137.382 81.4287C136.813 81.5368 136.578 81.9786 136.428 82.4956C136.282 83.0032 136.324 83.492 136.456 83.9902C136.611 84.5918 136.992 84.9302 137.589 85.0195C138.162 85.1041 138.561 84.8409 138.806 84.3239C138.872 84.1876 138.966 84.0607 139.022 83.9667C139.375 83.8069 139.666 83.7834 139.967 84.0043C139.981 84.103 140.033 84.2299 140 84.3286C139.624 85.5036 138.858 86.0723 137.673 86.077C136.578 86.077 135.624 85.4096 135.257 84.3756C134.665 82.7165 135.417 81.001 136.926 80.5592C138.392 80.1315 139.661 80.8083 139.99 82.2606Z" fill="white"/>
<path d="M119.338 85.6164C118.883 85.8937 118.591 85.8702 118.215 85.7151C117.947 84.3709 118.248 82.9656 118.06 81.6496C117.867 81.3159 117.491 81.5227 117.299 81.2736C117.181 81.0715 117.205 80.8459 117.28 80.6391C117.458 80.3618 117.83 80.5639 118.069 80.2349C118.206 79.6803 118.079 78.8719 118.93 78.5711C119.334 78.4254 119.475 78.4207 120.278 78.6228C120.448 78.8296 120.434 79.0505 120.335 79.2808C120.119 79.5487 119.729 79.4124 119.494 79.638C119.296 79.8213 119.324 80.0563 119.362 80.2772C119.545 80.6109 119.973 80.39 120.184 80.6485C120.302 80.8271 120.269 81.0198 120.241 81.2031C120.067 81.5603 119.635 81.3018 119.334 81.6637V85.6164H119.338Z" fill="white"/>
<path d="M104.74 81.6872C104.449 81.3112 104.082 81.471 103.908 81.2031C103.833 81.0292 103.819 80.8365 103.866 80.6485C104.026 80.3853 104.407 80.5404 104.557 80.2631C104.712 79.8636 104.529 79.403 104.773 78.9988C105.088 78.8014 105.412 78.8108 105.732 78.9847C105.995 79.3842 105.798 79.8448 105.972 80.2772C106.141 80.5874 106.545 80.3618 106.761 80.5498C106.982 80.7801 106.855 81.0057 106.865 81.1749C106.616 81.4992 106.207 81.2877 105.948 81.6355C105.84 82.6084 105.873 83.6471 105.934 84.5448C106.193 85.0007 106.592 84.8503 106.775 84.9866C106.963 85.2874 106.883 85.5036 106.855 85.6681C106.62 85.9172 106.376 85.8796 106.15 85.8655C105.083 85.8138 104.768 85.4989 104.75 84.4414C104.731 83.5061 104.75 82.5708 104.75 81.6872H104.74Z" fill="white"/>
<path d="M100.083 80.5592C100.67 80.4417 101.126 80.3101 101.352 80.9869C101.859 80.6438 102.334 80.2067 102.997 80.3853C103.213 80.7096 103.175 81.0057 103.086 81.2689C102.968 81.4616 102.794 81.424 102.649 81.4663C101.681 81.7765 101.314 82.2371 101.281 83.2429C101.258 84.056 101.276 84.8691 101.276 85.607C100.896 85.9078 100.6 85.8467 100.242 85.7386C99.9275 84.9349 100.115 84.0701 100.087 83.2288C100.054 82.3734 100.083 81.5133 100.083 80.5545V80.5592Z" fill="white"/>
<path fill-rule="evenodd" clip-rule="evenodd" d="M90.0537 63.6388C90.9496 65.8264 92.5511 67.4971 95.0254 68.5131C97.6433 69.5894 100.289 69.5471 102.917 68.6212C105.215 67.8081 107.001 66.3276 108.054 64.0951C109.53 60.9649 109.609 57.7783 108.322 54.5588C108.175 54.1904 108.011 53.8391 107.831 53.5048C108.009 53.8362 108.171 54.1844 108.317 54.5494C109.605 57.7689 109.525 60.9555 108.049 64.0857C106.996 66.3182 105.21 67.7987 102.912 68.6118C100.285 69.5377 97.6386 69.58 95.0207 68.5037C92.5507 67.4894 90.9505 65.8204 90.0537 63.6388Z" fill="black"/>
<path fill-rule="evenodd" clip-rule="evenodd" d="M62.1305 62.2313C62.1295 62.2313 62.1285 62.2313 62.1274 62.2313C62.4852 62.2349 62.8431 62.2386 63.2009 62.241C63.2018 62.241 63.2028 62.241 63.2037 62.241C62.8461 62.2386 62.4884 62.235 62.1305 62.2313ZM69.6971 65.5944C69.6548 63.376 68.3294 62.1023 66.4165 62.1916C68.3294 62.0976 69.6595 63.376 69.6971 65.5944Z" fill="black"/>
<path fill-rule="evenodd" clip-rule="evenodd" d="M59.1008 53.7504C59.9045 53.7504 60.6925 53.751 61.4701 53.7515C63.0316 53.7525 64.5515 53.7535 66.0734 53.7504C66.3883 53.7504 66.6797 53.6611 66.9476 53.4684C67.7372 52.9044 68.1414 51.5649 67.7983 50.498C67.4734 49.4861 66.9697 48.818 65.6398 48.8197C66.9627 48.8212 67.4648 49.4885 67.7889 50.498C68.132 51.5649 67.7278 52.9044 66.9382 53.4684C66.675 53.6564 66.3789 53.7504 66.064 53.7504H59.1008ZM59.7277 48.8295C59.7008 48.8294 59.6734 48.8288 59.6459 48.8281C59.6428 48.828 59.6396 48.8282 59.6365 48.8281C59.6659 48.8288 59.695 48.8295 59.7237 48.8295L59.7277 48.8295Z" fill="black"/>
<path fill-rule="evenodd" clip-rule="evenodd" d="M130.515 49.1256L130.51 49.1256V56.9464C130.541 56.9464 130.572 56.9464 130.604 56.9464L130.515 56.9464V49.1256Z" fill="black"/>
<path fill-rule="evenodd" clip-rule="evenodd" d="M88.6031 80.8426C88.5899 81.1582 88.5759 81.491 88.7368 81.8893L88.7274 81.894C88.9445 81.894 89.1561 81.8974 89.3636 81.9008C89.8434 81.9086 90.3017 81.916 90.7578 81.8799C90.9244 81.8659 91.0694 81.8237 91.1924 81.757C91.0712 81.821 90.9293 81.8615 90.7672 81.8752C90.3132 81.9144 89.8547 81.9059 89.3774 81.8971C89.1679 81.8932 88.9547 81.8893 88.7368 81.8893L88.7462 81.8846C88.5892 81.4921 88.6017 81.165 88.6133 80.8584C88.6163 80.7795 88.6193 80.702 88.6193 80.625C88.6193 80.4269 88.6458 80.2288 88.6746 80.0133C88.6895 79.9024 88.7049 79.7868 88.7177 79.6643C88.7147 79.6649 88.7116 79.6656 88.7086 79.6662C88.6958 79.7898 88.6802 79.9062 88.6652 80.0179C88.6364 80.2335 88.6099 80.4316 88.6099 80.6297C88.609 80.7002 88.6061 80.7709 88.6031 80.8426Z" fill="black"/>
<path fill-rule="evenodd" clip-rule="evenodd" d="M97.3848 83.2852C97.3849 83.2836 97.3847 83.2821 97.3848 83.2805C97.207 83.3138 97.0359 83.3442 96.8697 83.3738C96.4253 83.4529 96.0166 83.5257 95.6129 83.6283C95.3145 83.7073 95.1308 83.942 95.1269 84.2598C95.1268 84.267 95.1268 84.2742 95.1269 84.2815C95.127 84.2869 95.1271 84.2924 95.1273 84.2979M97.3848 83.2852C97.1684 83.3272 96.9611 83.3642 96.7609 83.3998ZM96.7609 83.3998C96.3567 83.4718 95.9806 83.5387 95.6129 83.633ZM95.6129 83.633C95.3116 83.7116 95.132 83.9444 95.1269 84.2598Z" fill="black"/>
<path fill-rule="evenodd" clip-rule="evenodd" d="M115.367 83.163C115.367 84.3521 114.704 85.0712 113.717 84.9537C114.7 85.0665 115.362 84.3474 115.367 83.163ZM112.462 83.2617C112.478 83.8106 112.612 84.233 112.858 84.5202C112.614 84.2325 112.48 83.8094 112.462 83.2617ZM113.623 81.3582C112.89 81.4887 112.466 82.1406 112.461 83.1282C112.466 82.1362 112.89 81.4842 113.623 81.3582Z" fill="black"/>
<path fill-rule="evenodd" clip-rule="evenodd" d="M132.964 82.6037C132.965 82.6037 132.967 82.6037 132.968 82.6037C132.672 81.6261 132.315 81.2689 131.728 81.2407C131.699 81.2392 131.67 81.2385 131.642 81.2387C131.669 81.2386 131.696 81.2393 131.723 81.2407C132.315 81.2689 132.668 81.6261 132.964 82.6037ZM132.907 82.6035C132.702 82.6032 132.504 82.6065 132.31 82.6097C131.714 82.6196 131.162 82.6287 130.611 82.53C131.16 82.6314 131.711 82.6214 132.304 82.6105C132.5 82.6069 132.7 82.6033 132.907 82.6035Z" fill="black"/>
<path fill-rule="evenodd" clip-rule="evenodd" d="M168.218 79.6944V84.6999C168.22 84.6999 168.222 84.6999 168.223 84.6999C168.447 84.7 168.656 84.7036 168.855 84.707C169.244 84.7138 169.595 84.7199 169.945 84.6973C169.955 84.6966 169.966 84.6959 169.976 84.6952L169.945 84.6973C169.595 84.7169 169.244 84.7117 168.855 84.7059C168.656 84.703 168.447 84.6999 168.223 84.6999V79.6944C168.508 79.6104 168.787 79.5772 169.061 79.577C168.785 79.5768 168.505 79.6099 168.218 79.6944Z" fill="black"/>
</g>
</g>
<defs>
<clipPath id="clip0_665_5782">
<rect width="231" height="127" fill="white"/>
</clipPath>
<clipPath id="clip1_665_5782">
<rect width="130.66" height="47" fill="white" transform="translate(49.6699 39.5)"/>
</clipPath>
</defs>
</svg>
