<svg width="231" height="127" viewBox="0 0 231 127" fill="none" xmlns="http://www.w3.org/2000/svg">
<g clip-path="url(#clip0_665_5369)">
<g clip-path="url(#clip1_665_5369)">
<path d="M23.3672 54.1063C26.3087 53.9214 29.2539 53.9732 32.1954 54.0878C33.1167 54.1248 34.0084 54.3394 34.8816 54.665C36.8722 55.4087 37.923 56.8405 38.0969 58.8939C38.2597 60.8325 37.4235 62.2792 35.7289 63.2559C35.518 63.378 35.3145 63.5038 35.0962 63.637C35.1036 64.0477 35.4736 64.0847 35.6919 64.1624C39.8359 65.5609 39.1403 70.6333 36.8722 72.498C35.851 73.3378 34.6892 73.8151 33.4164 74.0963C33.0131 74.1851 32.5395 74.0852 32.2324 74.4736H23.3672V54.1063ZM27.3447 65.5017C27.3817 67.433 27.2226 69.2643 27.4557 71.2104C29.1577 71.2807 30.7487 71.3732 32.3249 71.166C33.9159 70.9588 34.8335 69.86 34.8594 68.3135C34.8853 66.7485 34.0306 65.6904 32.3138 65.5313C30.745 65.387 29.1503 65.5017 27.3447 65.5017ZM27.4594 62.6306C29.1133 62.8045 30.6969 62.9266 32.2509 62.5011C33.7013 62.1016 34.3081 61.1396 34.223 59.6227C34.1379 58.128 33.3831 57.2438 31.8735 57.0662C30.4231 56.896 28.9579 56.9293 27.341 57.0588C27.3928 58.9753 27.2189 60.7623 27.4594 62.6269V62.6306Z" fill="#EEEEEE"/>
<path d="M173.287 74.4752C173.247 73.9351 173.165 73.3912 173.165 72.851C173.158 67.0942 173.158 61.3373 173.165 55.5804C173.165 55.1587 173.202 54.7406 173.224 54.3299C175.393 53.6936 175.855 53.8267 177.169 55.4768C180.236 59.3431 183.292 63.2168 186.363 67.0794C186.541 67.305 186.626 67.6491 187.077 67.6713V54.2485C188.161 53.786 189.234 54.1227 190.193 54.0376C190.603 54.637 190.496 55.1365 190.496 55.61C190.503 61.3669 190.496 67.1238 190.503 72.8806C190.503 73.4245 190.529 73.9683 190.281 74.4752H188.065C187.403 73.9425 186.863 73.3024 186.337 72.6401C183.507 69.0587 180.673 65.4848 177.827 61.9182C177.502 61.5075 177.287 60.9673 176.691 60.7897C176.451 61.3262 176.58 61.8664 176.577 62.3917C176.562 65.8399 176.573 69.2918 176.566 72.74C176.566 73.3357 176.691 73.9572 176.247 74.4752H173.295H173.287Z" fill="#EEEEEE"/>
<path d="M42.2005 74.4773V54.3875C42.5483 53.9103 43.0145 54.0286 43.4215 54.0286C45.2678 54.0175 47.1104 54.0249 48.9567 54.036C49.8188 54.0434 50.6735 54.1322 51.5171 54.3283C54.2699 54.961 55.909 56.5112 56.2161 58.7977C56.6009 61.6687 55.5464 63.7591 53.0045 65.1539C52.7381 65.3019 52.468 65.4388 52.1942 65.5831C53.948 68.1322 55.687 70.674 57.4408 73.2083C57.7183 73.6079 58.0476 73.9668 58.0772 74.481H54.3846C53.6446 74.0223 53.1303 73.3748 52.6641 72.657C51.6466 71.0735 50.5884 69.5159 49.5413 67.9509C48.4091 66.2564 48.2019 66.1861 45.8894 66.7522V74.481H42.1968L42.2005 74.4773ZM46.0374 63.5297C47.6765 63.6333 49.1454 63.8035 50.5551 63.2078C51.9204 62.6343 52.6604 61.369 52.5383 59.8595C52.4236 58.4573 51.4986 57.3621 50.0371 57.1217C48.731 56.9034 47.3953 56.8886 46.0374 57.1069V63.5297Z" fill="#EEEEEE"/>
<path d="M116.053 74.5005V54.1406H128.914C129.08 55.1063 129.051 55.9831 128.929 57.045H119.986C119.856 58.9466 119.864 60.6707 119.993 62.5206C122.343 62.8462 124.677 62.4688 126.99 62.75C127.208 63.675 127.112 64.4926 127.071 65.5397H120.012C119.834 67.5449 119.901 69.3208 119.945 71.2188H128.784C129.243 72.362 128.936 73.4461 128.981 74.5005H116.056H116.053Z" fill="#EEEEEE"/>
<path d="M195.074 74.4875V54.3496C196.403 53.9574 204.494 53.8316 207.813 54.1461C208.132 54.9971 207.95 55.8887 207.943 57.0172C204.99 57.1392 202.064 57.0098 198.996 57.0985V62.4484C201.246 62.9923 203.666 62.2967 205.993 62.8258C206.137 63.6694 206.108 64.4426 206.011 65.3343C203.677 65.8781 201.257 65.2011 198.93 65.7264V71.1947H207.906C207.924 72.4267 208.28 73.4775 207.632 74.4875H195.078H195.074Z" fill="#EEEEEE"/>
<path d="M71.7402 74.474C70.2565 73.6748 68.4842 73.3714 67.3372 71.9803C67.241 71.7398 67.3224 71.5289 67.4482 71.3107C68.6359 69.2573 68.7654 69.2092 70.7634 70.4079C72.1324 71.2293 73.568 71.6029 75.1627 71.2367C76.4947 70.9296 77.2051 70.1674 77.3383 68.8873C77.4678 67.6442 77.046 66.8709 75.8065 66.2753C75.2034 65.9867 74.5411 65.8128 73.9047 65.5982C73.0944 65.3207 72.2656 65.0913 71.4701 64.7768C69.2538 63.9037 68.0402 62.3128 67.9884 59.9227C67.9366 57.5142 68.9874 55.7161 71.1297 54.584C74.049 53.0374 77.9858 53.6146 80.524 55.9122C80.6165 56.1823 80.4389 56.3709 80.3242 56.5781C79.2586 58.539 79.2401 58.5723 77.3124 57.5549C76.1062 56.9185 74.8556 56.8112 73.5606 57.048C72.5801 57.2293 71.8993 57.8065 71.6773 58.8017C71.4405 59.8598 71.7772 60.6627 72.8058 61.2399C73.4385 61.595 74.1452 61.8392 74.8334 62.0908C75.6363 62.3868 76.4762 62.5977 77.2717 62.9122C79.3326 63.7335 80.8644 65.0173 81.0124 67.3889C81.1826 70.1008 80.1725 72.2208 77.7601 73.6415C77.2458 73.9449 76.5576 73.9227 76.1765 74.4703H71.7439L71.7402 74.474Z" fill="#EEEEEE"/>
<path d="M138.208 74.4907C138.03 74.1947 137.705 74.1762 137.42 74.0837C133.257 72.7037 131.278 69.6735 130.834 65.5409C130.527 62.6884 131.004 59.9912 132.769 57.616C136.51 52.5843 144.461 52.7545 147.746 56.506C147.591 56.7428 147.436 56.9981 147.265 57.2423C146.104 58.8665 146.063 58.9109 144.35 57.9341C140.58 55.7809 135.229 57.4421 134.793 62.9067C134.667 64.4976 134.697 66.0515 135.314 67.5388C136.761 71.0277 140.901 72.4003 144.268 70.5763C144.901 70.2322 145.323 69.5108 146.141 69.5256C146.488 69.533 147.055 70.1582 148.02 71.4531C147.084 72.6223 145.878 73.4103 144.472 73.9431C144.095 74.0874 143.588 74.0171 143.373 74.4944H138.204L138.208 74.4907Z" fill="#EEEEEE"/>
<path d="M88.7251 74.475V57.2377C86.6531 56.9048 84.6329 57.2488 82.5868 57.0084C82.3611 56.0686 82.4721 55.1807 82.5017 54.0263C87.863 54.0078 93.1725 54.0189 98.5005 54.0189C98.8779 55.0253 98.6115 55.9206 98.7336 56.8863C96.6764 57.3894 94.6377 56.8382 92.4177 57.2747V74.4787H88.7251V74.475Z" fill="#EEEEEE"/>
<path d="M101.648 74.4734C101.278 74.0813 101.311 73.6003 101.311 73.1119C101.319 67.0702 101.315 61.0321 101.319 54.9904C101.319 54.7573 101.356 54.5242 101.389 54.1505C102.606 53.8915 103.798 54.0469 105.189 54.0395V71.1325H113.31C113.359 72.3905 113.64 73.4449 113.096 74.4734H101.648Z" fill="#EEEEEE"/>
<path d="M157.042 74.4763C156.568 73.9546 155.721 74.1877 155.229 73.5735C155.328 73.3849 155.451 73.1851 155.543 72.9705C156.168 71.5313 157.108 70.9615 158.836 71.1539C163.657 71.6904 165.822 68.0572 165.885 64.6349C165.914 63.0329 165.796 61.4605 164.93 60.0841C164.36 59.1777 164.334 58.4377 164.993 57.609C165.37 57.1354 165.655 56.5953 166.04 55.9922C167.698 57.1428 168.682 58.6893 169.24 60.4911C170.28 63.832 170.051 67.0693 168.156 70.0921C167.02 71.9049 165.378 73.1259 163.354 73.8806C162.847 74.0693 162.247 74.0434 161.84 74.48H157.042V74.4763Z" fill="#EEEEEE"/>
<path d="M60.6643 74.4651C60.3942 74.1099 60.335 73.714 60.335 73.2737C60.3461 67.1543 60.3461 61.0348 60.3498 54.9191C60.3498 54.6897 60.4053 54.4566 60.446 54.1385C61.6966 53.9424 62.888 53.9239 64.0387 54.1385C64.3939 54.7267 64.2533 55.2817 64.2533 55.8145C64.2644 61.4492 64.2607 67.084 64.257 72.7151C64.257 73.3144 64.3606 73.9286 63.9795 74.4725H60.6569L60.6643 74.4651Z" fill="#EEEEEE"/>
<path d="M152.875 72.2418C148.983 69.8813 147.851 63.1181 150.419 58.6266C153.26 53.6541 159.905 52.7291 163.587 54.6234C163.609 55.1525 163.161 55.4559 162.962 55.8814C162.473 56.9321 161.811 57.2947 160.501 57.1356C156.061 56.5991 153.205 59.1298 152.998 63.5288C152.92 65.1863 153.038 66.8327 153.952 68.2534C154.555 69.1895 154.448 69.9072 153.83 70.7175C153.467 71.1948 153.186 71.7349 152.868 72.2418H152.875Z" fill="#EEEEEE"/>
</g>
</g>
<defs>
<clipPath id="clip0_665_5369">
<rect width="231" height="127" fill="white"/>
</clipPath>
<clipPath id="clip1_665_5369">
<rect width="185.018" height="21.4513" fill="white" transform="translate(23 53)"/>
</clipPath>
</defs>
</svg>
