<svg width="231" height="127" viewBox="0 0 231 127" fill="none" xmlns="http://www.w3.org/2000/svg">
<g clip-path="url(#clip0_632_2596)">
<g clip-path="url(#clip1_632_2596)">
<path d="M48.1432 62.4859C48.3728 62.9994 48.7775 63.1323 49.1037 63.3498C52.1786 65.3735 53.0605 68.3758 52.7645 71.8131C52.6498 73.1844 52.3296 74.5557 51.6349 75.8122C50.2817 78.2347 48.2097 79.6422 45.5758 80.3611C44.4401 80.6692 43.2984 80.7054 42.1506 80.7115C37.4326 80.7296 32.7086 80.7175 27.9906 80.7175C27.8395 80.7175 27.6946 80.6813 27.5496 80.6692C27.314 79.5758 27.2415 47.4983 27.4771 45.4021C27.8939 45.2088 28.347 45.3054 28.788 45.3054C32.8535 45.2994 36.9191 45.3054 40.9907 45.2994C42.5493 45.2994 44.0837 45.5048 45.5818 45.9035C49.3031 46.9002 51.9128 49.7938 52.2631 54.1735C52.5531 57.7558 51.1576 60.4803 48.1432 62.4859Z" fill="#EEEEEE"/>
<path d="M112.504 60.5208C112.836 60.0858 112.685 59.5663 112.685 59.0891C112.703 56.6848 112.697 54.2805 112.685 51.8822C112.685 51.2237 112.649 50.5592 113.477 50.1484H115.7C116.28 50.523 116.449 51.0183 116.467 51.5983C116.473 51.8459 116.467 52.0997 116.467 52.3473C116.467 61.0584 116.467 69.7695 116.467 78.4805C116.467 79.2356 116.527 79.9968 115.833 80.5949C115.035 80.758 114.189 80.7036 113.465 80.6432C112.383 80.1599 112.867 79.1631 112.564 78.4926C112.293 78.4805 112.148 78.6255 112.015 78.7705C110.704 80.2082 109.079 80.8546 107.128 81.0781C105.37 81.2835 103.745 81.06 102.162 80.4197C99.5945 79.3806 97.891 77.4717 97.0271 74.8862C95.8371 71.3341 95.8129 67.7216 97.0271 64.1816C98.6884 59.3609 103.31 57.2828 107.768 58.1104C109.314 58.4004 110.613 59.0105 111.719 60.0919C111.93 60.2972 112.117 60.551 112.486 60.5208H112.504ZM112.685 69.6607C112.685 68.9116 112.746 68.1505 112.673 67.4074C112.401 64.5199 110.903 62.1277 107.629 61.5115C104.723 60.9678 101.926 62.2243 100.766 64.8763C99.5039 67.7699 99.5402 70.7421 100.513 73.6538C101.473 76.5293 103.817 77.8945 106.832 77.7073C109.429 77.5442 111.731 75.9916 112.51 72.941C112.788 71.8476 112.649 70.7541 112.685 69.6607Z" fill="#EEEEEE"/>
<path d="M139.41 70.2909C138.897 71.1608 138.202 71.0279 137.562 71.0279C133.442 71.0279 129.328 71.0279 125.208 71.0279C124.713 71.0279 124.205 70.9494 123.722 71.1185C123.19 72.955 124.32 75.5103 126.241 76.7064C127.794 77.673 129.479 77.9086 131.291 77.6126C133.073 77.3226 134.457 76.4285 135.599 75.1237C136.638 74.9485 137.616 74.8458 138.54 75.172C138.969 75.6855 138.83 76.1446 138.631 76.6279C138.027 78.0898 136.94 79.1349 135.574 79.8175C132.802 81.1948 129.89 81.6358 126.857 80.7237C123.172 79.6121 121.143 76.9601 120.279 73.396C119.675 70.9071 119.693 68.3397 120.218 65.8146C121.318 60.5227 125.933 57.0975 131.714 58.0942C135.719 58.7889 138.359 61.7671 139.157 65.5427C139.495 67.1375 139.435 68.7142 139.41 70.2728V70.2909ZM123.589 67.5665C127.715 67.5423 131.744 67.6087 135.75 67.5181C136.16 63.9962 133.212 61.5557 130.131 61.4047C126.749 61.2355 123.517 63.5311 123.589 67.5665Z" fill="#EEEEEE"/>
<path d="M167.253 64.1144C166.359 64.1748 165.513 64.2715 164.673 64.0359C164.263 62.9183 164.619 62.0242 165.265 61.2026C166.528 59.5897 168.213 58.6413 170.189 58.2607C172.321 57.8499 174.46 57.9345 176.568 58.4963C178.827 59.1004 180.319 60.514 181.087 62.7068C181.383 63.5586 181.624 64.4225 181.624 65.3347C181.624 69.9983 181.624 74.6559 181.624 79.3195C181.624 79.5671 181.576 79.8088 181.546 80.1108C180.495 80.6787 179.407 80.3887 178.32 80.3464C177.855 79.5369 178.308 78.6308 177.963 77.8153C177.794 77.9059 177.631 77.9482 177.541 78.0509C175.601 80.3887 172.974 81.0049 170.122 80.9384C167.645 80.878 165.61 79.8632 163.979 77.9482C162.529 76.2446 162.716 72.4388 164.196 70.9648C165.362 69.7989 166.721 69.0076 168.244 68.4578C169.663 67.9444 171.155 67.751 172.635 67.5336C174.357 67.2798 176.079 67.0382 177.746 66.7966C178.416 64.8091 177.637 62.4773 176.024 61.6074C174.073 60.5563 170.968 60.3448 168.805 62.1571C168.171 62.6887 167.851 63.4318 167.241 64.1144H167.253ZM177.903 69.6419C177.42 69.4425 177.015 69.5029 176.622 69.5573C174.949 69.811 173.282 70.107 171.608 70.3607C170.811 70.4816 170.068 70.7594 169.307 71.0071C168.63 71.2306 168.062 71.6354 167.513 72.0643C165.724 73.4718 166.335 75.9305 167.688 76.9695C169.621 78.4677 172.961 78.2744 174.804 77.2293C176.924 76.0211 178.332 73.3933 177.909 69.6358L177.903 69.6419Z" fill="#EEEEEE"/>
<path d="M75.7561 80.5717C74.9466 80.765 74.1008 80.6804 73.382 80.6381C72.2825 80.167 72.7416 79.1823 72.4819 78.5057C72.1254 78.4453 71.9744 78.6628 71.8174 78.8379C70.579 80.2032 69.0325 80.8073 67.2081 81.0731C65.0575 81.3812 63.0942 80.9764 61.2819 79.9797C58.7206 78.5721 57.4278 76.2222 57.2043 73.3709C57.0472 71.3774 57.1378 69.3657 57.1318 67.3601C57.1257 65.0042 57.1197 62.6482 57.1318 60.2983C57.1318 59.7606 56.9989 59.1928 57.3734 58.7155C58.4668 58.3833 58.642 58.3712 60.1764 58.5585C60.8168 59.0115 60.6899 59.7002 60.6899 60.3345C60.6899 63.9409 60.708 67.5474 60.6899 71.1539C60.6839 72.4285 60.9134 73.6548 61.4329 74.7965C62.4055 76.9411 65.0998 78.1493 67.6733 77.666C70.9112 77.0619 72.4517 74.9415 72.5543 71.5948C72.6691 67.8434 72.5785 64.0799 72.5846 60.3224C72.5846 59.7304 72.4819 59.1082 73.1101 58.5464C73.9317 58.3772 74.868 58.3651 75.7802 58.5705C76.2575 59.0659 76.3662 59.6277 76.3662 60.2499C76.3601 66.46 76.3601 72.6762 76.3662 78.8863C76.3662 79.5145 76.2514 80.0763 75.7621 80.5657L75.7561 80.5717Z" fill="#EEEEEE"/>
<path d="M146.037 58.5826C146.635 59.235 146.2 60.0083 146.617 60.5278C147.155 60.4916 147.336 60.0868 147.608 59.821C148.472 58.9632 149.505 58.5222 150.701 58.492C152.09 58.4558 153.486 58.3047 154.881 58.6068C155.232 59.6337 155.225 60.5459 154.942 61.3977C154.41 61.887 153.836 61.7662 153.298 61.7602C152.193 61.7481 151.093 61.7964 150.006 62.0078C148.188 62.3643 146.907 63.7416 146.641 65.5841C146.46 66.8225 146.406 68.0669 146.412 69.3174C146.43 72.4768 146.424 75.6302 146.412 78.7896C146.412 79.3333 146.52 79.8951 146.14 80.469C145.342 80.9221 144.43 80.5415 143.705 80.6744C142.793 80.2817 142.848 79.6112 142.848 78.9527C142.848 74.1441 142.848 69.3295 142.848 64.5209C142.848 63.065 142.848 61.6152 142.848 60.1593C142.848 59.6156 142.775 59.0417 143.361 58.5403C144.189 58.3833 145.125 58.3591 146.031 58.5766L146.037 58.5826Z" fill="#EEEEEE"/>
<path d="M89.9044 50.131H91.9161C92.4235 50.3425 92.6953 50.7231 92.6893 51.2849C92.6893 51.6352 92.6893 51.9856 92.6893 52.336C92.6893 61.1014 92.6893 69.8668 92.6833 78.6323C92.6833 79.2182 92.8222 79.8344 92.4295 80.4687C91.469 80.8191 90.4541 80.7285 89.4755 80.5352C88.962 79.9613 89.1372 79.333 89.1372 78.747C89.1251 71.3348 89.1312 63.9225 89.1312 56.5103C89.1312 54.9094 89.1372 53.3025 89.1312 51.7017C89.1312 51.0795 89.1493 50.4875 89.8984 50.125L89.9044 50.131Z" fill="#EEEEEE"/>
<path d="M83.7789 80.6391C83.0177 80.6935 82.172 80.766 81.3746 80.5848C80.7765 80.0834 80.9638 79.437 80.9638 78.8631C80.9517 73.7525 80.9578 68.6479 80.9578 63.5372C80.9578 62.3834 80.9517 61.2356 80.9578 60.0818C80.9578 59.6408 80.8732 59.1756 81.2115 58.6863C82.0935 58.2272 83.0781 58.5172 83.9178 58.5051C84.5038 58.9582 84.5219 59.4535 84.5219 59.967C84.5219 66.3765 84.5219 72.7919 84.5219 79.2014C84.5219 79.7934 84.4192 80.2948 83.7729 80.6452L83.7789 80.6391Z" fill="#EEEEEE"/>
<path d="M186.071 80.126C185.835 77.0934 185.926 59.9432 186.179 58.7229C187.152 58.2759 188.185 58.5054 189.146 58.5658C189.52 58.8679 189.538 59.2182 189.538 59.5747C189.538 66.2862 189.532 72.9977 189.52 79.7152C189.52 79.8602 189.46 80.0052 189.411 80.2347C188.3 80.8569 187.194 80.8147 186.065 80.126H186.071Z" fill="#EEEEEE"/>
<path d="M155.708 75.9703C157.297 75.8857 158.632 75.8132 160.016 76.0005C160.426 77.4201 160.124 78.7551 160.215 80.1506C158.602 80.8332 157.11 80.8876 155.521 80.1083C155.569 78.7129 155.352 77.3778 155.702 75.9703H155.708Z" fill="#EEEEEE"/>
<path d="M80.4566 54.4321C80.5713 52.8614 79.937 51.4418 80.9942 50.1309C82.2568 50.1551 83.4952 49.847 84.7034 50.3967C85.0718 51.7257 84.794 52.9883 84.8 54.3354C83.3683 54.7039 82.0574 54.5529 80.4626 54.4381L80.4566 54.4321Z" fill="#EEEEEE"/>
<path d="M199.04 45.3125C201.759 45.5421 203.541 47.016 203.541 49.7466C203.541 52.314 201.934 54.0236 199.161 54.096C196.714 54.1565 194.787 52.3865 194.793 49.7224C194.793 47.1973 196.503 45.6266 199.04 45.3125ZM199.191 53.4195C201.149 53.5222 202.9 51.7522 202.906 49.7405C202.906 47.7591 201.197 45.9408 199.064 46.0253C197.004 46.1099 195.47 47.6685 195.488 49.7949C195.506 51.8851 197.095 53.4376 199.197 53.4195H199.191Z" fill="#EEEEEE"/>
<path d="M185.81 50.3354C186.245 50.0455 186.547 50.0334 186.843 50.0273C187.738 50.0273 188.632 50.0273 189.598 50.0273C190.299 51.2959 190.172 52.5041 189.755 53.7969C188.414 53.954 187.152 54.0204 185.847 53.7425C185.581 52.5464 185.605 51.4409 185.81 50.3354Z" fill="#EEEEEE"/>
<path d="M200.46 47.8722C200.967 48.6998 200.387 49.2435 200.043 49.8174C200.544 50.3853 200.859 51.0015 201.118 51.6539C200.913 51.8593 200.659 51.7807 200.375 51.7747C199.723 51.2914 199.771 50.0047 198.605 50.0349C197.941 50.4638 198.49 51.2189 198.104 51.678C197.904 51.7928 197.723 51.8049 197.476 51.6116V47.4494C198.545 47.4071 199.59 47.1654 200.454 47.8662L200.46 47.8722ZM198.376 49.3644C199.131 49.5879 199.578 49.4429 199.783 48.8086C199.62 48.2287 199.246 48.0051 198.702 48.0112C198.128 48.3555 198.225 48.8207 198.37 49.3644H198.376Z" fill="#EEEEEE"/>
</g>
</g>
<defs>
<clipPath id="clip0_632_2596">
<rect width="231" height="127" fill="white"/>
</clipPath>
<clipPath id="clip1_632_2596">
<rect width="177" height="36.2457" fill="white" transform="translate(27 45)"/>
</clipPath>
</defs>
</svg>
