<svg width="231" height="127" viewBox="0 0 231 127" fill="none" xmlns="http://www.w3.org/2000/svg">
<g clip-path="url(#clip0_492_205)">
<path d="M215.116 74.4247C213.932 74.4911 212.748 74.5567 211.565 74.6251C211.261 74.6427 210.957 74.6699 210.616 74.6951C210.517 74.1911 210.585 73.6987 210.51 73.1707C210.399 73.2531 210.327 73.3007 210.262 73.3567C209.97 73.6087 209.689 73.8759 209.387 74.1147C208.126 75.1099 206.59 74.9223 205.473 74.1831C204.824 73.7539 204.362 73.1543 203.997 72.4775C203.484 71.5283 203.203 70.5031 203.049 69.4439C202.788 67.6387 202.797 65.8331 203.117 64.0351C203.329 62.8443 203.718 61.7179 204.4 60.7059C204.722 60.2275 205.099 59.7995 205.564 59.4531C206.675 58.6255 208.523 58.3335 209.927 59.7827C210.083 59.9443 210.235 60.1107 210.429 60.3175C210.447 60.1871 210.468 60.1051 210.468 60.0235C210.469 58.1187 210.474 56.2143 210.462 54.3095C210.459 53.9531 210.395 53.5955 210.341 53.2415C210.285 52.8751 210.044 52.6539 209.705 52.5399C209.479 52.4639 209.245 52.4091 208.987 52.3371V51.3723C209.122 51.3591 209.251 51.3411 209.381 51.3343C210.498 51.2739 211.616 51.2171 212.734 51.1543C212.835 51.1487 212.935 51.1095 213.036 51.0859C213.356 51.0859 213.676 51.0859 213.996 51.0859C214.003 51.2583 214.017 51.4307 214.017 51.6035C214.017 58.2371 214.014 64.8707 214.016 71.5043C214.016 71.8631 214.038 72.2235 214.075 72.5803C214.111 72.9311 214.294 73.1691 214.663 73.2423C214.817 73.2727 214.965 73.3371 215.115 73.3859V74.4251L215.116 74.4247ZM210.469 66.6403C210.481 66.6403 210.493 66.6399 210.504 66.6395C210.469 65.4159 210.444 64.1919 210.397 62.9691C210.375 62.4035 210.22 61.8647 209.917 61.3811C209.578 60.8407 209.083 60.5647 208.442 60.6047C207.811 60.6443 207.408 61.0131 207.211 61.5875C207.07 62.0003 206.944 62.4283 206.892 62.8595C206.652 64.8339 206.666 66.8175 206.762 68.7999C206.797 69.5299 206.859 70.2615 206.969 70.9835C207.033 71.4103 207.168 71.8411 207.351 72.2327C207.813 73.2195 209.309 73.2519 209.839 72.3863C210.037 72.0623 210.215 71.7039 210.301 71.3375C210.411 70.8623 210.453 70.3639 210.463 69.8743C210.486 68.7967 210.47 67.7179 210.47 66.6399L210.469 66.6403Z" fill="#EEEEEE"/>
<path d="M177.443 51.0781C177.446 51.2513 177.45 51.4241 177.45 51.5973C177.45 58.1349 177.45 64.6725 177.452 71.2101C177.452 71.5957 177.459 71.9833 177.499 72.3661C177.564 72.9861 177.712 73.1393 178.307 73.2913C178.395 73.3137 178.482 73.3397 178.588 73.3689V74.3857C177.071 74.4833 175.576 74.5797 174.02 74.6797V73.1045C173.874 73.2109 173.803 73.2545 173.741 73.3085C173.441 73.5713 173.155 73.8533 172.842 74.0993C171.326 75.2921 169.536 74.7689 168.551 73.8889C167.891 73.2993 167.441 72.5681 167.116 71.7541C166.652 70.5925 166.435 69.3793 166.368 68.1357C166.282 66.5209 166.332 64.9149 166.726 63.3361C166.969 62.3605 167.339 61.4381 167.917 60.6077C168.278 60.0889 168.709 59.6397 169.245 59.2973C170.55 58.4637 172.128 58.6057 173.258 59.6585C173.463 59.8489 173.664 60.0425 173.891 60.2573C173.906 60.1713 173.934 60.0905 173.934 60.0101C173.934 58.0529 173.934 56.0957 173.924 54.1381C173.923 53.8737 173.884 53.6077 173.845 53.3453C173.784 52.9397 173.548 52.6701 173.16 52.5413C172.933 52.4661 172.703 52.4021 172.452 52.3261V51.3737C172.575 51.3585 172.702 51.3349 172.829 51.3281C173.933 51.2673 175.037 51.2109 176.141 51.1485C176.256 51.1421 176.369 51.1025 176.483 51.0781C176.803 51.0781 177.123 51.0781 177.443 51.0781H177.443ZM173.932 66.9149C173.935 66.9149 173.937 66.9149 173.94 66.9149C173.94 66.3421 173.951 65.7693 173.937 65.1969C173.918 64.3985 173.897 63.5997 173.844 62.8029C173.807 62.2509 173.615 61.7389 173.303 61.2765C172.714 60.4061 171.275 60.2329 170.706 61.4697C170.618 61.6621 170.53 61.8633 170.496 62.0697C170.395 62.6729 170.272 63.2781 170.248 63.8865C170.194 65.2697 170.171 66.6553 170.179 68.0397C170.186 69.1577 170.254 70.2781 170.494 71.3745C170.572 71.7309 170.709 72.0965 170.908 72.4005C171.393 73.1433 172.529 73.2085 173.143 72.5661C173.454 72.2397 173.668 71.8509 173.751 71.4149C173.842 70.9333 173.912 70.4413 173.925 69.9521C173.951 68.9405 173.933 67.9277 173.933 66.9157L173.932 66.9149Z" fill="#EEEEEE"/>
<path d="M123.374 51.0781C124.091 51.3549 124.803 51.6429 125.524 51.9049C126.148 52.1313 126.536 52.0285 126.933 51.5069C127.124 51.2553 127.33 51.1429 127.637 51.1701C127.821 51.1865 128.008 51.1729 128.189 51.1729C128.276 51.4617 128.303 58.0497 128.218 58.6725C128.017 58.6725 127.808 58.6725 127.599 58.6725C127.39 58.6725 127.201 58.6725 126.97 58.6725C126.916 58.4685 126.863 58.2793 126.816 58.0889C126.565 57.0941 126.301 56.1021 125.856 55.1737C125.615 54.6713 125.335 54.1849 125.04 53.7117C124.777 53.2905 124.418 52.9489 123.998 52.6765C123.316 52.2337 122.581 52.1537 121.815 52.3869C120.804 52.6945 120.206 53.8233 120.453 54.9217C120.572 55.4493 120.826 55.9173 121.11 56.3693C121.717 57.3329 122.466 58.1829 123.253 58.9981C123.836 59.6017 124.459 60.1661 125.043 60.7685C125.85 61.6001 126.677 62.4165 127.422 63.3017C128.822 64.9665 129.481 66.9181 129.439 69.0933C129.422 69.9769 129.271 70.8441 128.907 71.6581C127.775 74.1889 125.521 75.3245 122.779 74.4569C122.424 74.3449 122.084 74.1881 121.737 74.0529C121.464 73.9469 121.193 73.8349 120.917 73.7381C120.516 73.5973 120.152 73.6729 119.846 73.9669C119.654 74.1509 119.472 74.3477 119.301 74.5509C119.152 74.7269 118.977 74.8145 118.746 74.8081C118.496 74.8009 118.246 74.8065 117.973 74.8065V66.8661C118.414 66.8225 118.86 66.8509 119.341 66.8553C119.383 66.9981 119.425 67.1337 119.463 67.2705C119.783 68.4273 120.162 69.5617 120.729 70.6257C121.133 71.3841 121.624 72.0749 122.274 72.6457C122.787 73.0961 123.372 73.3841 124.052 73.4889C125.626 73.7309 126.852 72.7269 126.912 71.1369C126.943 70.3153 126.728 69.5565 126.324 68.8465C125.94 68.1701 125.457 67.5661 124.928 67.0025C124.081 66.0993 123.209 65.2189 122.349 64.3277C121.562 63.5129 120.76 62.7133 119.998 61.8757C118.915 60.6853 118.18 59.2993 117.983 57.6929C117.728 55.6069 118.172 53.7149 119.78 52.2273C120.358 51.6933 121.031 51.3265 121.803 51.1513C121.85 51.1405 121.891 51.1033 121.934 51.0785C122.414 51.0785 122.894 51.0785 123.374 51.0785L123.374 51.0781Z" fill="#EEEEEE"/>
<path d="M15.1702 52.4156C15.1626 52.2872 15.151 52.1696 15.149 52.052C15.1458 51.8408 15.1482 51.6296 15.1482 51.4012C15.2714 51.38 15.3598 51.3512 15.4478 51.3516C17.8462 51.368 20.245 51.3608 22.6422 51.4164C23.9454 51.4468 25.2078 51.7368 26.3478 52.4092C27.9158 53.334 28.7458 54.6924 28.7726 56.5372C28.8022 58.55 27.9522 60.0728 26.2854 61.1652C25.4622 61.7048 24.5514 62.0332 23.6018 62.2656C23.551 62.278 23.5002 62.2908 23.3866 62.3188C23.4958 62.3732 23.5526 62.4176 23.6154 62.4308C24.5966 62.6368 25.5478 62.93 26.4378 63.4008C27.1634 63.7848 27.8094 64.2692 28.3226 64.918C28.9966 65.7704 29.355 66.7404 29.4034 67.8244C29.4334 68.492 29.3918 69.1556 29.2538 69.8104C28.899 71.4964 27.9418 72.7232 26.4102 73.5016C25.4106 74.0096 24.3358 74.2584 23.225 74.3388C22.5082 74.3908 21.7878 74.4068 21.069 74.4104C19.2702 74.42 17.471 74.4136 15.6722 74.4136C15.5262 74.4136 15.3806 74.4136 15.1978 74.4136C15.1098 74.0616 15.1558 73.7228 15.163 73.35C15.3174 73.3036 15.4642 73.2496 15.6158 73.2148C16.1902 73.0832 16.4682 72.7052 16.5126 72.1396C16.5386 71.808 16.5566 71.4748 16.5566 71.1424C16.5566 65.5896 16.5542 60.0364 16.5498 54.4836C16.5498 54.2176 16.5374 53.9508 16.5174 53.6856C16.4646 52.9936 16.1982 52.6844 15.5286 52.5188C15.4138 52.4904 15.3014 52.4532 15.1702 52.4152V52.4156ZM20.5962 62.9408C20.5962 63.1124 20.5962 63.2572 20.5962 63.402C20.5966 65.746 20.5962 68.0904 20.5978 70.4344C20.5978 70.8604 20.5978 71.2868 20.6118 71.7128C20.6198 71.9516 20.641 72.1928 20.685 72.4272C20.793 73.006 21.119 73.2796 21.7038 73.3C21.8634 73.3056 22.0246 73.3056 22.1834 73.2912C23.1098 73.2064 23.8266 72.7932 24.2722 71.954C24.5182 71.4904 24.6642 70.996 24.7582 70.4824C24.9674 69.3432 24.9306 68.1984 24.8022 67.0588C24.7358 66.468 24.6066 65.8748 24.427 65.3076C23.8234 63.4004 22.0426 62.8452 20.5962 62.9404V62.9408ZM20.6178 61.8112C21.0098 61.9024 21.3814 61.8392 21.7446 61.7868C22.7982 61.6344 23.575 61.1052 23.9742 60.084C24.1798 59.5588 24.2874 59.0136 24.3574 58.4572C24.481 57.4724 24.4262 56.488 24.337 55.506C24.2818 54.8972 24.195 54.2896 23.9522 53.7172C23.8082 53.3776 23.6082 53.0828 23.2934 52.8844C22.6286 52.466 21.8994 52.3884 21.1398 52.5108C20.8546 52.5568 20.6918 52.7328 20.6674 53.0236C20.6406 53.3412 20.5998 53.6596 20.599 53.9776C20.5934 56.4684 20.5958 58.9596 20.597 61.4504C20.597 61.5668 20.6102 61.6828 20.6178 61.8108V61.8112Z" fill="#EEEEEE"/>
<path d="M152.015 60.2038V59.1414C153.526 59.0622 155.022 58.9842 156.571 58.903C156.598 59.607 156.624 60.2882 156.651 60.9694C156.685 60.9898 156.719 61.0102 156.753 61.0306C156.818 60.9362 156.871 60.8282 156.952 60.7494C157.352 60.359 157.73 59.9394 158.168 59.5982C159.085 58.8842 160.146 58.7006 161.27 58.9278C162.124 59.1006 162.731 59.6046 163.07 60.417C163.387 61.179 163.501 61.9842 163.523 62.797C163.565 64.3678 163.581 65.9394 163.593 67.511C163.604 68.9494 163.595 70.3882 163.595 71.8266C163.595 71.9598 163.596 72.093 163.6 72.2262C163.619 72.739 163.826 73.1222 164.336 73.3002C164.435 73.3346 164.528 73.3838 164.635 73.4306V74.3766H160.03C160.03 74.2282 160.03 74.0862 160.03 73.9446C160.032 70.5614 160.037 67.1782 160.03 63.7946C160.029 63.2774 159.974 62.7594 159.928 62.2434C159.914 62.0878 159.86 61.9306 159.799 61.7846C159.63 61.383 159.34 61.1614 158.886 61.1242C158.135 61.063 157.596 61.3646 157.23 62.0038C156.898 62.5838 156.781 63.2246 156.735 63.8798C156.71 64.225 156.709 64.5718 156.709 64.9182C156.706 67.1558 156.706 69.3938 156.709 71.6314C156.709 71.8838 156.721 72.1382 156.757 72.3874C156.828 72.8858 157.106 73.2098 157.61 73.321C157.701 73.341 157.79 73.3718 157.91 73.4062V74.3838H152.069C151.981 74.1062 151.972 73.8266 152.04 73.409C152.074 73.3962 152.11 73.3782 152.147 73.3694C152.954 73.1842 153.141 72.6862 153.14 72.037C153.137 70.5718 153.141 69.1066 153.142 67.6414C153.143 65.7498 153.144 63.8586 153.144 61.967C153.144 61.7538 153.146 61.5402 153.133 61.3278C153.098 60.7506 152.891 60.4842 152.349 60.3046C152.25 60.2714 152.148 60.243 152.015 60.2022V60.2038Z" fill="#EEEEEE"/>
<path d="M69.3168 73.4177V74.3353C69.03 74.4225 64.2416 74.4573 63.4044 74.3749C63.3992 74.2297 63.3916 74.0765 63.3892 73.9233C63.3864 73.7645 63.3884 73.6057 63.3884 73.4317C63.5656 73.3693 63.7268 73.3169 63.8848 73.2561C64.2364 73.1201 64.4572 72.8725 64.5056 72.4921C64.5376 72.2417 64.5788 71.9897 64.5792 71.7381C64.5848 68.3945 64.5836 65.0509 64.5836 61.7073C64.5836 61.6273 64.58 61.5473 64.572 61.4681C64.4912 60.6617 64.3348 60.4765 63.5524 60.2525C63.5148 60.2417 63.4804 60.2205 63.3888 60.1785C63.3888 60.0341 63.3888 59.8657 63.3888 59.6977C63.3888 59.5297 63.3888 59.3553 63.3888 59.1405C64.9296 59.0605 66.4404 58.9817 67.9928 58.9013C68.0452 59.6033 67.9896 60.2897 68.0764 61.0569C68.2352 60.8793 68.3236 60.7653 68.4276 60.6673C68.8244 60.2933 69.1952 59.8829 69.632 59.5629C70.5888 58.8621 71.6664 58.6753 72.8196 58.9709C73.6584 59.1861 74.212 59.7217 74.5208 60.5189C74.8528 61.3757 74.95 62.2777 74.9704 63.1841C74.9976 64.3957 74.9832 65.6085 74.9844 66.8205C74.986 68.3925 74.982 69.9645 74.9884 71.5361C74.9896 71.8277 75.0228 72.1197 75.0476 72.4113C75.0852 72.8537 75.3088 73.1545 75.736 73.2973C75.824 73.3269 75.9084 73.3681 76.0192 73.4141V74.3777H71.4728C71.4728 74.2081 71.4728 74.0517 71.4728 73.8957C71.4724 70.5121 71.472 67.1285 71.4712 63.7449C71.4712 63.1985 71.4712 62.6509 71.3156 62.1205C71.2636 61.9429 71.1964 61.7673 71.116 61.6005C71.0056 61.3721 70.8112 61.2197 70.5688 61.1669C69.7376 60.9865 69.0652 61.2929 68.6988 61.9065C68.2528 62.6537 68.1344 63.4821 68.12 64.3261C68.0968 65.6577 68.1036 66.9901 68.1004 68.3225C68.098 69.4017 68.0952 70.4805 68.104 71.5597C68.1064 71.8377 68.1468 72.1157 68.1808 72.3925C68.2396 72.8673 68.5168 73.1601 68.9652 73.3029C69.0668 73.3353 69.1676 73.3693 69.3168 73.4185V73.4177Z" fill="#EEEEEE"/>
<path d="M43.6386 73.4202V74.4586C42.1014 74.5358 40.577 74.6126 39.013 74.6914C38.9926 74.0046 38.9718 73.3198 38.9514 72.635C38.9134 72.6122 38.8758 72.5894 38.8378 72.5666C38.785 72.6526 38.7474 72.7538 38.6774 72.8222C38.2402 73.2494 37.8302 73.7138 37.347 74.0822C36.3962 74.8074 35.3062 74.9502 34.1594 74.6602C33.4494 74.4806 32.9246 74.0586 32.5998 73.393C32.333 72.8466 32.1954 72.2646 32.1302 71.6674C32.0738 71.1522 32.0354 70.6322 32.033 70.1142C32.021 67.4234 32.0246 64.7322 32.0182 62.0414C32.0174 61.7758 31.9862 61.5106 31.969 61.245C31.9358 60.7406 31.7014 60.3914 31.201 60.2446C31.1378 60.2262 31.0778 60.1946 30.9834 60.1554V59.1706C32.4946 59.1222 34.0042 59.0734 35.565 59.0234C35.565 59.181 35.565 59.3366 35.565 59.4922C35.5658 63.1422 35.5642 66.7922 35.5726 70.4426C35.5734 70.773 35.611 71.1086 35.6782 71.4318C35.7798 71.9202 35.9914 72.3574 36.5342 72.483C37.1194 72.6186 37.6498 72.4858 38.073 72.0426C38.4538 71.6442 38.6458 71.1418 38.7434 70.615C38.8302 70.1458 38.8946 69.6646 38.8974 69.1886C38.913 66.6974 38.9062 64.2066 38.9062 61.7154C38.9062 61.609 38.9038 61.5022 38.8946 61.3962C38.8414 60.803 38.617 60.3426 37.9686 60.2126C37.9186 60.2026 37.8722 60.175 37.811 60.1506V59.1706C39.3318 59.1222 40.843 59.0738 42.4074 59.0238C42.411 59.1674 42.4186 59.321 42.4186 59.4746C42.4194 63.5378 42.4186 67.6006 42.423 71.6638C42.423 71.9414 42.4598 72.2198 42.489 72.497C42.5338 72.9218 42.8078 73.1538 43.185 73.2874C43.3222 73.3362 43.465 73.3698 43.6386 73.4198V73.4202Z" fill="#EEEEEE"/>
<path d="M190.652 70.774H191.406C191.493 71.1076 191.471 71.4432 191.436 71.7644C191.387 72.224 191.333 72.6988 191.176 73.1288C190.415 75.218 188.115 75.1596 187.051 74.056C186.777 73.7728 186.577 73.4184 186.349 73.0916C186.276 72.9856 186.224 72.864 186.147 72.7196C185.948 72.9616 185.777 73.1784 185.596 73.3872C185.108 73.9508 184.536 74.392 183.814 74.6236C181.809 75.2672 179.898 74.06 179.599 71.9764C179.352 70.2596 179.942 68.8384 181.085 67.6016C182.023 66.5872 183.158 65.854 184.414 65.2988C184.888 65.0892 185.371 64.9008 185.861 64.698C185.872 64.6516 185.895 64.6008 185.894 64.5508C185.88 63.5792 185.908 62.6044 185.837 61.6368C185.738 60.2752 184.961 59.86 183.74 60.056C183.363 60.1164 183.003 60.2636 182.711 60.5436C182.925 60.6848 183.137 60.8004 183.322 60.9504C184.187 61.6548 184.185 62.926 183.326 63.628C182.402 64.3836 180.778 64.0476 180.251 62.9796C179.977 62.424 180.009 61.8412 180.203 61.2688C180.355 60.8176 180.637 60.4476 180.999 60.1388C181.789 59.4652 182.693 59.0456 183.724 58.8968C184.762 58.7472 185.795 58.7284 186.818 59.002C188.305 59.4004 189.179 60.3976 189.36 61.9328C189.42 62.4468 189.443 62.968 189.445 63.4864C189.453 66.1772 189.448 68.868 189.452 71.5584C189.452 71.7696 189.465 71.9872 189.519 72.19C189.611 72.5436 189.966 72.6488 190.228 72.3968C190.345 72.2844 190.44 72.1148 190.474 71.956C190.554 71.5804 190.591 71.196 190.651 70.774H190.652ZM185.883 65.9868C185.711 66.0468 185.587 66.0816 185.469 66.1336C184.603 66.5184 183.995 67.1588 183.603 68.0168C183.107 69.104 183.017 70.246 183.157 71.4132C183.188 71.672 183.274 71.9348 183.386 72.1716C183.591 72.6076 183.966 72.7696 184.443 72.686C184.778 72.6272 185.025 72.4424 185.223 72.1768C185.715 71.5208 185.898 70.768 185.903 69.966C185.911 68.7424 185.905 67.5184 185.903 66.2944C185.903 66.2156 185.893 66.1364 185.883 65.9872V65.9868Z" fill="#EEEEEE"/>
<path d="M145.855 72.7293C145.546 73.0809 145.283 73.4169 144.982 73.7141C144.398 74.2905 143.702 74.6449 142.874 74.7573C140.87 75.0297 139.666 73.5697 139.377 72.3377C139.015 70.7945 139.381 69.4089 140.315 68.1589C141.136 67.0593 142.207 66.2521 143.42 65.6341C144 65.3385 144.609 65.1001 145.206 64.8381C145.326 64.7857 145.449 64.7413 145.598 64.6825C145.598 63.8749 145.603 63.0777 145.594 62.2809C145.591 62.0025 145.564 61.7229 145.527 61.4469C145.504 61.2773 145.452 61.1093 145.396 60.9465C145.197 60.3653 144.778 60.0773 144.172 60.0205C143.519 59.9593 142.936 60.1121 142.429 60.5177C142.689 60.7181 142.97 60.8793 143.181 61.1057C144.165 62.1625 143.556 63.4681 142.675 63.8453C142.275 64.0161 141.852 64.0681 141.421 63.9965C140.223 63.7977 139.544 62.7849 139.805 61.5913C139.898 61.1665 140.084 60.7897 140.377 60.4649C140.954 59.8261 141.657 59.3801 142.472 59.1233C143.812 58.7017 145.175 58.6605 146.534 59.0029C147.996 59.3713 148.828 60.3425 149.046 61.8241C149.116 62.2961 149.138 62.7785 149.14 63.2561C149.15 65.9865 149.145 68.7173 149.15 71.4477C149.15 71.6861 149.178 71.9257 149.215 72.1617C149.24 72.3233 149.316 72.4645 149.503 72.5037C149.716 72.5481 149.932 72.4933 150.023 72.3025C150.129 72.0785 150.202 71.8325 150.25 71.5881C150.301 71.3297 150.306 71.0621 150.333 70.7777H151.127C151.178 71.7413 151.161 72.6701 150.694 73.5425C149.832 75.1529 147.712 75.1213 146.682 73.9841C146.452 73.7301 146.277 73.4253 146.084 73.1389C146.004 73.0193 145.943 72.8861 145.857 72.7285L145.855 72.7293ZM145.599 65.9901C145.456 66.0293 145.379 66.0429 145.308 66.0705C144.292 66.4673 143.626 67.2109 143.22 68.2017C142.818 69.1841 142.728 70.2125 142.837 71.2569C142.869 71.5681 142.969 71.8833 143.096 72.1709C143.29 72.6085 143.722 72.7825 144.192 72.6717C144.521 72.5941 144.764 72.3989 144.955 72.1305C145.392 71.5141 145.596 70.8213 145.599 70.0709C145.604 68.9537 145.6 67.8365 145.599 66.7193C145.599 66.4945 145.599 66.2693 145.599 65.9901Z" fill="#EEEEEE"/>
<path d="M88.0771 67.149H81.3891C81.3667 67.2474 81.3407 67.3102 81.3395 67.3734C81.3155 68.5878 81.3511 69.7982 81.7007 70.9738C81.7987 71.303 81.9307 71.627 82.0855 71.9338C82.8003 73.3514 84.3683 73.3114 85.2667 72.7278C85.6427 72.4834 85.9347 72.161 86.1763 71.7878C86.5511 71.209 86.7719 70.5718 86.8983 69.8982C86.9375 69.6898 86.9791 69.4822 87.0227 69.2578C87.3647 69.161 87.7047 69.2374 88.0707 69.2098C88.0943 69.6314 88.0127 70.005 87.9415 70.3774C87.7771 71.2354 87.4867 72.0466 86.9891 72.7714C85.9691 74.2574 84.5259 74.8642 82.7595 74.7726C81.2819 74.6958 80.1243 74.0038 79.2063 72.8774C78.3363 71.8098 77.8247 70.5798 77.5971 69.2294C77.2671 67.273 77.3231 65.3322 77.8631 63.4154C78.0919 62.6034 78.4315 61.8386 78.8927 61.131C79.4495 60.2766 80.1559 59.577 81.0975 59.1626C82.9319 58.355 85.1035 58.7334 86.4315 60.5002C87.0663 61.345 87.4587 62.2986 87.6999 63.319C87.9711 64.4642 88.0763 65.629 88.0955 66.803C88.0971 66.9058 88.0851 67.009 88.0775 67.1494L88.0771 67.149ZM84.4079 65.8054C84.4239 65.7338 84.4407 65.695 84.4395 65.657C84.4035 64.4342 84.3887 63.2106 84.3187 61.9898C84.2855 61.4082 84.1615 60.8282 83.8375 60.319C83.4211 59.6646 82.5759 59.6378 82.1571 60.293C81.9599 60.6014 81.8223 60.9574 81.7099 61.3086C81.4527 62.1118 81.3679 62.9486 81.3279 63.7854C81.2963 64.4474 81.3215 65.1122 81.3215 65.8058H84.4075L84.4079 65.8054Z" fill="#EEEEEE"/>
<path d="M137.66 69.623H138.656C138.676 69.6646 138.707 69.699 138.707 69.7334C138.721 70.7522 138.623 71.7542 138.245 72.7122C137.979 73.387 137.583 73.9778 136.938 74.327C135.829 74.927 134.675 74.9734 133.521 74.4438C132.957 74.1854 132.62 73.7098 132.403 73.1434C132.181 72.5634 132.105 71.9554 132.099 71.341C132.086 70.0358 132.089 68.7302 132.088 67.425C132.087 65.267 132.088 63.1094 132.088 60.9514V60.459H130.493C130.493 60.0222 130.487 59.6398 130.498 59.2574C130.5 59.193 130.572 59.1294 130.616 59.0686C130.631 59.0486 130.66 59.0394 130.683 59.0266C132.397 58.0634 133.336 56.5278 133.842 54.693C134.025 54.0282 134.121 53.339 134.255 52.661C134.28 52.5334 134.301 52.4046 134.328 52.2578H135.597C135.606 52.8286 135.601 53.3954 135.602 53.9618C135.603 54.5346 135.602 55.1074 135.602 55.6802C135.602 56.2398 135.602 56.799 135.602 57.3586C135.602 57.9298 135.602 58.5006 135.602 59.1134H138.387C138.412 59.5698 138.405 59.985 138.391 60.4434H135.635C135.621 60.585 135.603 60.687 135.603 60.789C135.602 64.3586 135.602 67.9286 135.607 71.4982C135.607 71.7358 135.639 71.9762 135.68 72.211C135.735 72.523 135.896 72.7626 136.235 72.809C136.582 72.8562 136.87 72.7314 137.063 72.4378C137.339 72.0182 137.478 71.5458 137.533 71.051C137.584 70.5902 137.617 70.127 137.661 69.6234L137.66 69.623Z" fill="#EEEEEE"/>
<path d="M45.2803 74.7553V68.2857H46.4095C46.4975 68.6521 46.5791 69.0145 46.6723 69.3733C46.9627 70.4913 47.3747 71.5529 48.1399 72.4445C48.5999 72.9809 49.1299 73.4185 49.8411 73.5701C50.4439 73.6985 51.0367 73.7005 51.5599 73.3041C52.1903 72.8265 52.4347 72.0617 52.2159 71.2685C52.0587 70.6985 51.7395 70.2269 51.2955 69.8477C51.0031 69.5977 50.6863 69.3729 50.3663 69.1581C49.2599 68.4157 48.1407 67.6897 47.1439 66.8001C46.7975 66.4909 46.4603 66.1605 46.1755 65.7957C44.8419 64.0881 44.9739 61.3937 46.4723 59.8389C47.4099 58.8665 48.5643 58.5633 49.8747 58.8761C50.1711 58.9469 50.4563 59.0653 50.7447 59.1665C50.9331 59.2325 51.1147 59.3189 51.3055 59.3761C51.9047 59.5561 52.1315 59.4833 52.4963 58.9637C52.6027 58.8121 52.7147 58.7517 52.8903 58.7585C53.1139 58.7673 53.3383 58.7605 53.5895 58.7605V64.4173H52.5211C52.4383 64.1653 52.3703 63.9089 52.2715 63.6653C52.0127 63.0249 51.7807 62.3685 51.4611 61.7589C51.2295 61.3173 50.9075 60.9101 50.5675 60.5409C50.1047 60.0389 49.5079 59.7929 48.8075 59.8521C47.8087 59.9365 47.1163 60.9653 47.4519 61.9097C47.5519 62.1909 47.7243 62.4593 47.9127 62.6941C48.4015 63.3037 49.0375 63.7461 49.6831 64.1749C50.4039 64.6537 51.1347 65.1213 51.8255 65.6409C52.3235 66.0157 52.7919 66.4405 53.2227 66.8913C54.9331 68.6817 54.8951 71.4833 53.4547 73.2185C52.2459 74.6749 50.4239 75.1609 48.6631 74.4665C48.3415 74.3397 48.0243 74.1993 47.7107 74.0533C47.3335 73.8777 47.0135 73.9561 46.7295 74.2421C46.6919 74.2797 46.6463 74.3117 46.6163 74.3545C46.2827 74.8249 45.8215 74.8789 45.2799 74.7549L45.2803 74.7553Z" fill="#EEEEEE"/>
<path d="M108.881 58.7644V64.3968C108.523 64.4888 108.171 64.4328 107.801 64.4256C107.74 64.2268 107.683 64.038 107.624 63.8496C107.348 62.9568 107.015 62.0852 106.486 61.3088C106.264 60.982 105.996 60.6764 105.704 60.4084C105.29 60.0268 104.785 59.8316 104.209 59.8476C103.186 59.876 102.453 60.8644 102.723 61.85C102.828 62.2344 103.026 62.5704 103.312 62.8308C103.774 63.25 104.251 63.6584 104.755 64.0248C105.605 64.6432 106.493 65.2096 107.343 65.8272C107.993 66.2988 108.542 66.8776 109.008 67.5372C110.154 69.158 110.154 72.0048 108.312 73.6744C107.006 74.8584 105.522 75.078 103.896 74.4484C103.611 74.338 103.333 74.208 103.055 74.0816C102.644 73.8952 102.28 73.9408 101.97 74.2832C101.952 74.3028 101.928 74.3184 101.913 74.3396C101.585 74.8044 101.122 74.8732 100.605 74.7852C100.521 74.5 100.503 68.728 100.588 68.2872C100.646 68.2804 100.71 68.2676 100.774 68.2672C101.066 68.2648 101.358 68.2664 101.68 68.2664C101.742 68.5224 101.8 68.764 101.858 69.006C102.043 69.7848 102.28 70.5448 102.642 71.2628C102.956 71.8876 103.359 72.4452 103.876 72.9188C104.469 73.4612 105.168 73.6948 105.967 73.634C106.795 73.5708 107.433 72.962 107.542 72.1392C107.631 71.4676 107.434 70.8768 107.035 70.3432C106.719 69.9204 106.304 69.61 105.876 69.3128C104.99 68.6988 104.094 68.0968 103.226 67.458C102.755 67.112 102.305 66.728 101.895 66.312C100.486 64.8804 100.243 63.1596 100.841 61.3224C101.246 60.0788 102.11 59.2104 103.42 58.87C104.179 58.6724 104.925 58.752 105.655 59.0252C105.992 59.1512 106.323 59.2924 106.666 59.3964C107.182 59.5528 107.433 59.4704 107.731 59.03C107.867 58.8284 108.014 58.74 108.253 58.7608C108.448 58.778 108.646 58.7644 108.881 58.7644Z" fill="#EEEEEE"/>
<path d="M89.7158 74.7839V68.2947H90.831C90.8782 68.4875 90.9318 68.6907 90.9774 68.8959C91.207 69.9287 91.5454 70.9195 92.1022 71.8267C92.4406 72.3783 92.8606 72.8535 93.4034 73.2151C93.9882 73.6043 94.637 73.7135 95.315 73.6135C96.2086 73.4819 96.8494 72.5283 96.709 71.5851C96.6174 70.9699 96.343 70.4423 95.8962 70.0187C95.6174 69.7543 95.3054 69.5215 94.991 69.2991C94.1866 68.7299 93.3574 68.1947 92.5674 67.6059C92.0242 67.2011 91.5146 66.7467 91.0182 66.2843C89.5074 64.8775 89.351 62.2931 90.2382 60.7383C90.879 59.6151 91.8102 58.9155 93.121 58.7739C93.705 58.7107 94.2602 58.8419 94.805 59.0315C95.1442 59.1495 95.4746 59.2951 95.8182 59.3967C96.3502 59.5543 96.571 59.4839 96.877 59.0299C97.0162 58.8235 97.1714 58.7507 97.4042 58.7651C97.5998 58.7775 97.797 58.7675 98.0166 58.7675V64.4307C97.6682 64.4595 97.3178 64.4591 96.9546 64.4243C96.8006 63.9619 96.6586 63.5067 96.4978 63.0583C96.1898 62.1999 95.7858 61.3923 95.1706 60.7079C94.7182 60.2043 94.171 59.8767 93.4738 59.8455C92.8362 59.8171 92.363 60.1051 92.045 60.6311C91.733 61.1471 91.7294 61.6947 92.0182 62.2291C92.2894 62.7307 92.6874 63.1283 93.135 63.4667C93.623 63.8355 94.1314 64.1795 94.6446 64.5131C95.6746 65.1819 96.6822 65.8775 97.539 66.7667C98.2114 67.4643 98.6766 68.2799 98.849 69.2363C99.1182 70.7307 98.8226 72.0987 97.8342 73.2799C96.625 74.7247 94.8114 75.1667 93.0666 74.4551C92.7586 74.3295 92.4522 74.1999 92.1482 74.0643C91.7574 73.8899 91.4234 73.9639 91.1358 74.2743C91.1086 74.3035 91.0734 74.3271 91.0518 74.3595C90.7262 74.8471 90.2498 74.8555 89.7142 74.7839H89.7158Z" fill="#EEEEEE"/>
<path d="M192.042 60.132V59.1524C193.646 59.0728 195.234 58.9936 196.857 58.9128C196.877 59.874 196.896 60.7992 196.915 61.7244C196.939 61.732 196.962 61.7392 196.986 61.7468C197.032 61.6668 197.086 61.5904 197.124 61.5068C197.372 60.9592 197.652 60.43 198.047 59.9724C198.539 59.402 199.126 58.974 199.893 58.876C200.757 58.7652 201.5 59.0248 201.96 59.786C202.413 60.5364 202.408 61.3232 201.93 62.0896C201.311 63.0812 199.405 63.358 198.665 61.9364C198.586 61.7852 198.514 61.6308 198.407 61.4116C198.298 61.5824 198.208 61.706 198.134 61.8388C197.625 62.76 197.364 63.7608 197.203 64.7916C197.014 66.0044 196.943 67.2252 196.958 68.4528C196.97 69.518 196.963 70.5832 196.964 71.6484C196.964 71.7548 196.961 71.862 196.97 71.968C197.052 72.9472 197.41 73.1048 198.065 73.17C198.301 73.1936 198.537 73.2204 198.819 73.2508V74.3872H192.145V73.4268C192.36 73.356 192.576 73.292 192.786 73.2148C193.172 73.074 193.402 72.8028 193.435 72.3872C193.464 72.016 193.501 71.6436 193.501 71.2716C193.505 68.156 193.503 65.04 193.497 61.9244C193.497 61.6732 193.467 61.4196 193.427 61.1708C193.361 60.7564 193.137 60.4628 192.722 60.3376C192.506 60.2728 192.291 60.2076 192.042 60.1324L192.042 60.132Z" fill="#EEEEEE"/>
<path d="M55.9467 74.3752V73.4208C56.1047 73.3668 56.2551 73.3212 56.4007 73.2644C56.7935 73.1112 57.0367 72.834 57.0755 72.4048C57.1019 72.1136 57.1307 71.8212 57.1307 71.5292C57.1339 68.3076 57.1323 65.086 57.1287 61.8644C57.1287 61.652 57.1043 61.4396 57.0859 61.228C57.0431 60.7308 56.7827 60.4196 56.2915 60.3056C56.1891 60.282 56.0887 60.2484 55.9603 60.2116V59.138C57.4995 59.0592 59.0447 58.98 60.6375 58.8984C60.6375 59.1032 60.6375 59.2596 60.6375 59.4164C60.6383 63.2772 60.6383 67.1376 60.6407 70.9984C60.6407 71.3444 60.6463 71.6908 60.6655 72.0364C60.6759 72.2208 60.7095 72.4064 60.7539 72.586C60.8367 72.9196 61.0443 73.1484 61.3751 73.2584C61.5263 73.3088 61.6787 73.3564 61.8515 73.412V74.376H55.9463L55.9467 74.3752Z" fill="#EEEEEE"/>
<path d="M56.585 53.2222C56.5822 52.1906 57.5174 51.2498 58.5522 51.2422C59.6106 51.2346 60.5574 52.171 60.5582 53.2262C60.559 54.2514 59.569 55.2282 58.5402 55.217C57.5078 55.2058 56.5878 54.2674 56.585 53.2222Z" fill="#EEEEEE"/>
</g>
<defs>
<clipPath id="clip0_492_205">
<rect width="231" height="127" fill="white"/>
</clipPath>
</defs>
</svg>
