<svg width="287" height="59" viewBox="0 0 287 59" fill="none" xmlns="http://www.w3.org/2000/svg">
<mask id="mask0_2551_170" style="mask-type:alpha" maskUnits="userSpaceOnUse" x="0" y="0" width="287" height="59">
<path fill-rule="evenodd" clip-rule="evenodd" d="M130.951 47.1697L137.031 46.5787C137.282 47.3227 137.632 47.8535 138.084 48.1687C138.537 48.4909 139.135 48.6509 139.891 48.6509C140.715 48.6509 141.348 48.4678 141.803 48.1062C142.151 47.8419 142.325 47.5035 142.325 47.1048C142.325 46.6528 142.093 46.3028 141.636 46.0571C141.306 45.881 140.425 45.6654 139.005 45.4081C136.878 45.0233 135.398 44.6757 134.57 44.3511C133.744 44.022 133.046 43.4727 132.48 42.7031C131.912 41.9336 131.629 41.0551 131.629 40.063C131.629 38.9829 131.937 38.0511 132.549 37.2699C133.16 36.4865 134.002 35.9 135.073 35.5153C136.147 35.1305 137.586 34.9358 139.393 34.9358C141.297 34.9358 142.705 35.0888 143.615 35.3831C144.524 35.6845 145.278 36.1481 145.886 36.7762C146.489 37.402 146.992 38.2504 147.398 39.3213L141.59 39.91C141.436 39.3862 141.191 38.9991 140.838 38.7511C140.353 38.4219 139.773 38.255 139.091 38.255C138.402 38.255 137.894 38.3825 137.581 38.6375C137.261 38.8901 137.108 39.1938 137.108 39.5531C137.108 39.9587 137.307 40.2577 137.709 40.464C138.11 40.6703 138.982 40.8534 140.328 41.0226C142.362 41.2591 143.874 41.5859 144.87 42.0077C145.862 42.4296 146.623 43.0299 147.148 43.8157C147.677 44.5945 147.939 45.4545 147.939 46.3932C147.939 47.3412 147.66 48.2638 147.101 49.1585C146.547 50.0555 145.668 50.7671 144.471 51.2933C143.269 51.8264 141.636 52.0883 139.571 52.0883C136.655 52.0883 134.577 51.6618 133.341 50.8088C132.104 49.9559 131.306 48.7366 130.951 47.1697Z" fill="#7A7B7D"/>
<path fill-rule="evenodd" clip-rule="evenodd" d="M112.77 47.2741L118.85 46.683C119.102 47.4271 119.45 47.9579 119.905 48.2754C120.355 48.5976 120.956 48.7552 121.712 48.7552C122.533 48.7552 123.171 48.5768 123.621 48.2128C123.969 47.9486 124.146 47.6125 124.146 47.2115C124.146 46.7572 123.914 46.4095 123.457 46.1615C123.123 45.9877 122.246 45.7721 120.821 45.5125C118.696 45.1277 117.216 44.78 116.391 44.4532C115.565 44.131 114.864 43.5793 114.301 42.8098C113.73 42.0403 113.449 41.1641 113.449 40.1697C113.449 39.0896 113.755 38.1578 114.368 37.3789C114.98 36.5908 115.822 36.0067 116.894 35.622C117.968 35.2372 119.404 35.0425 121.216 35.0425C123.12 35.0425 124.524 35.1955 125.433 35.4898C126.342 35.7912 127.096 36.2547 127.704 36.8829C128.309 37.5087 128.813 38.3571 129.219 39.428L123.41 40.0167C123.257 39.4906 123.009 39.1058 122.656 38.8601C122.174 38.5263 121.592 38.3617 120.91 38.3617C120.221 38.3617 119.713 38.4915 119.399 38.7419C119.082 38.9945 118.926 39.3005 118.926 39.6598C118.926 40.0654 119.128 40.3644 119.527 40.573C119.931 40.777 120.8 40.9601 122.148 41.1293C124.18 41.3657 125.695 41.6926 126.686 42.1144C127.683 42.5363 128.444 43.1366 128.966 43.9224C129.495 44.7012 129.757 45.5612 129.757 46.5022C129.757 47.4479 129.481 48.3705 128.92 49.2652C128.367 50.1645 127.488 50.8761 126.291 51.4023C125.09 51.9331 123.457 52.195 121.392 52.195C118.476 52.195 116.395 51.7708 115.159 50.9155C113.92 50.0649 113.124 48.8433 112.77 47.2741Z" fill="#7A7B7D"/>
<path fill-rule="evenodd" clip-rule="evenodd" d="M105.669 41.9497C105.546 40.7328 105.231 39.8613 104.713 39.3398C104.196 38.8159 103.516 38.5493 102.674 38.5493C101.7 38.5493 100.925 38.9503 100.338 39.7408C99.9694 40.2368 99.7328 40.9692 99.6354 41.9497H105.669ZM111.893 44.9584H99.6191C99.7258 45.969 99.9949 46.7177 100.415 47.2137C101.006 47.9253 101.781 48.2799 102.732 48.2799C103.333 48.2799 103.908 48.1246 104.447 47.814C104.781 47.6193 105.135 47.2763 105.516 46.7803L111.55 47.3505C110.626 49.0008 109.515 50.1806 108.211 50.8969C106.905 51.6085 105.038 51.9677 102.598 51.9677C100.482 51.9677 98.8188 51.6618 97.601 51.0498C96.3901 50.4379 95.3833 49.4667 94.5876 48.1316C93.7896 46.7988 93.3906 45.2319 93.3906 43.4309C93.3906 40.8696 94.1909 38.7927 95.7892 37.2119C97.3922 35.6265 99.5983 34.8291 102.419 34.8291C104.704 34.8291 106.511 35.1884 107.831 35.9C109.156 36.6046 110.167 37.6384 110.856 38.9828C111.55 40.3318 111.893 42.0865 111.893 44.2468V44.9584Z" fill="#7A7B7D"/>
<path fill-rule="evenodd" clip-rule="evenodd" d="M72.9648 35.418H78.9335V38.0836C79.8266 36.9918 80.729 36.22 81.643 35.7518C82.557 35.2789 83.6681 35.0425 84.9788 35.0425C86.7534 35.0425 88.1406 35.564 89.1474 36.5978C90.1448 37.6293 90.6436 39.2263 90.6436 41.3889V51.8102H84.2063V42.7959C84.2063 41.7667 84.0138 41.0412 83.6287 40.6124C83.2343 40.1813 82.6915 39.9727 81.9863 39.9727C81.2138 39.9727 80.5782 40.2601 80.1004 40.8349C79.6202 41.4075 79.3743 42.4459 79.3743 43.9386V51.8102H72.9648V35.418Z" fill="#7A7B7D"/>
<path fill-rule="evenodd" clip-rule="evenodd" d="M63.6777 52.0235H69.8042V35.6289H63.6777V52.0235Z" fill="#7A7B7D"/>
<path fill-rule="evenodd" clip-rule="evenodd" d="M63.6777 33.6724H69.8042V29.3936H63.6777V33.6724Z" fill="#7A7B7D"/>
<path fill-rule="evenodd" clip-rule="evenodd" d="M43.9727 47.0283L50.1478 46.4048C50.4007 47.1906 50.7533 47.7538 51.2149 48.0876C51.6719 48.4306 52.282 48.5952 53.0475 48.5952C53.8826 48.5952 54.5298 48.4051 54.9868 48.0204C55.344 47.7422 55.5203 47.3853 55.5203 46.9611C55.5203 46.4813 55.2837 46.115 54.8221 45.8531C54.4811 45.6677 53.5903 45.4382 52.1451 45.167C49.9877 44.7591 48.4869 44.3905 47.6471 44.0451C46.812 43.6998 46.0999 43.118 45.5269 42.3044C44.9493 41.4908 44.6616 40.559 44.6616 39.5113C44.6616 38.3663 44.9748 37.3812 45.5942 36.5537C46.2158 35.7238 47.0695 35.1073 48.1575 34.697C49.2477 34.2914 50.7069 34.0828 52.5418 34.0828C54.4764 34.0828 55.9054 34.245 56.8287 34.5603C57.7496 34.8755 58.5151 35.3669 59.1345 36.0298C59.7469 36.695 60.2572 37.5921 60.6702 38.7232L54.7734 39.3491C54.618 38.7928 54.3674 38.3848 54.0102 38.1252C53.5184 37.7706 52.9292 37.599 52.2356 37.599C51.5373 37.599 51.02 37.7312 50.7022 38C50.3798 38.2689 50.2244 38.5934 50.2244 38.9689C50.2244 39.4001 50.4262 39.7176 50.8321 39.9355C51.2381 40.1511 52.1242 40.3504 53.4929 40.5266C55.5551 40.7769 57.0931 41.1223 58.0999 41.5673C59.1113 42.0147 59.8814 42.6498 60.4127 43.4819C60.9508 44.3071 61.2176 45.2157 61.2176 46.2101C61.2176 47.2114 60.9346 48.1896 60.3663 49.1376C59.8049 50.0856 58.9118 50.8389 57.6986 51.3976C56.4784 51.9585 54.8221 52.2413 52.725 52.2413C49.7651 52.2413 47.6541 51.787 46.3968 50.883C45.1395 49.979 44.3322 48.6902 43.9727 47.0283Z" fill="#7A7B7D"/>
<path fill-rule="evenodd" clip-rule="evenodd" d="M42.2376 51.6479H36.3222V48.9313C35.4407 50.0462 34.5569 50.8436 33.6568 51.3141C32.7591 51.787 31.6549 52.0257 30.3489 52.0257C28.6068 52.0257 27.2427 51.4996 26.2499 50.4403C25.2617 49.3833 24.7676 47.7515 24.7676 45.5541V34.8848H31.1306V44.1031C31.1306 45.1554 31.3208 45.9064 31.7036 46.3445C32.091 46.7872 32.6292 47.0074 33.3251 47.0074C34.0813 47.0074 34.6984 46.7107 35.1809 46.1243C35.6634 45.5309 35.9047 44.4763 35.9047 42.9511V34.8848H42.2376V51.6479Z" fill="#7A7B7D"/>
<path fill-rule="evenodd" clip-rule="evenodd" d="M7.30719 46.4141H11.0002C12.2506 46.4141 13.1274 46.2055 13.6354 45.7767C14.1504 45.3502 14.4056 44.7754 14.4056 44.0545C14.4056 43.3869 14.1527 42.8469 13.647 42.4412C13.139 42.0356 12.2552 41.8316 10.984 41.8316H7.30719V46.4141ZM7.30719 37.5273H10.4551C11.5848 37.5273 12.3689 37.3349 12.8166 36.9617C13.2596 36.5815 13.48 36.0415 13.48 35.3322C13.48 34.6739 13.2596 34.157 12.8166 33.7885C12.3689 33.413 11.601 33.2298 10.5061 33.2298H7.30719V37.5273ZM0 28.645H13.5589C15.8183 28.645 17.5535 29.1874 18.7597 30.2676C19.9707 31.3477 20.5761 32.6875 20.5761 34.2775C20.5761 35.6173 20.1446 36.7647 19.2817 37.7243C18.7041 38.3617 17.8643 38.867 16.7555 39.2379C18.4373 39.6273 19.676 40.3018 20.4717 41.2498C21.2627 42.2048 21.6617 43.4008 21.6617 44.8379C21.6617 46.0131 21.3764 47.0678 20.815 48.0065C20.249 48.943 19.4789 49.6824 18.4976 50.2294C17.8922 50.5678 16.9735 50.8158 15.7464 50.9665C14.1156 51.1751 13.0369 51.2794 12.5011 51.2794H0V28.645Z" fill="#7A7B7D"/>
<path fill-rule="evenodd" clip-rule="evenodd" d="M260.527 47.1999L266.705 46.5857C266.96 47.3599 267.315 47.9162 267.774 48.2453C268.234 48.5837 268.844 48.746 269.609 48.746C270.447 48.746 271.091 48.5582 271.551 48.1804C271.906 47.9046 272.082 47.5522 272.082 47.135C272.082 46.6622 271.848 46.2983 271.386 46.041C271.045 45.8625 270.152 45.6353 268.707 45.3641C266.549 44.9631 265.046 44.6015 264.206 44.2585C263.369 43.9201 262.657 43.3476 262.084 42.5432C261.504 41.7412 261.216 40.8233 261.216 39.7896C261.216 38.6631 261.529 37.6895 262.151 36.8759C262.771 36.0577 263.627 35.4504 264.717 35.0448C265.807 34.6438 267.269 34.4421 269.103 34.4421C271.04 34.4421 272.469 34.5998 273.393 34.908C274.316 35.221 275.081 35.7054 275.698 36.3591C276.313 37.0127 276.824 37.9005 277.236 39.0154L271.337 39.6319C271.18 39.0826 270.929 38.6793 270.57 38.422C270.08 38.0743 269.491 37.9051 268.797 37.9051C268.097 37.9051 267.582 38.0372 267.264 38.2991C266.939 38.5657 266.784 38.8833 266.784 39.2564C266.784 39.6829 266.986 39.9935 267.394 40.2068C267.8 40.4247 268.688 40.6147 270.055 40.7932C272.119 41.0412 273.657 41.382 274.666 41.8177C275.678 42.2581 276.45 42.8863 276.981 43.7045C277.517 44.5181 277.784 45.4174 277.784 46.3933C277.784 47.383 277.503 48.345 276.935 49.2791C276.371 50.2155 275.478 50.9573 274.263 51.5043C273.045 52.0629 271.386 52.3364 269.287 52.3364C266.324 52.3364 264.211 51.8914 262.954 50.999C261.696 50.1089 260.889 48.8387 260.527 47.1999Z" fill="#1B1918"/>
<path fill-rule="evenodd" clip-rule="evenodd" d="M256.425 30.7056V35.3646H260.104V40.0305H256.425V45.9528C256.425 46.6644 256.499 47.1372 256.64 47.3667C256.856 47.7214 257.237 47.9045 257.786 47.9045C258.28 47.9045 258.969 47.7677 259.858 47.4942L260.347 51.9098C258.693 52.2529 257.153 52.4244 255.719 52.4244C254.054 52.4244 252.829 52.2204 252.043 51.8125C251.252 51.4068 250.669 50.7833 250.294 49.9535C249.913 49.1214 249.728 47.77 249.728 45.9064V40.0305H247.262V35.3646H249.728V30.7079L256.425 30.7056Z" fill="#1B1918"/>
<path fill-rule="evenodd" clip-rule="evenodd" d="M241.43 45.1902L246.847 45.9018C246.55 47.2022 246.058 48.331 245.381 49.2837C244.696 50.2387 243.826 50.9757 242.764 51.5042C241.708 52.0281 240.358 52.2923 238.725 52.2923C237.145 52.2923 235.833 52.1208 234.784 51.787C233.733 51.444 232.828 50.8993 232.075 50.1413C231.314 49.3787 230.722 48.4909 230.295 47.4687C229.868 46.4465 229.65 45.0929 229.65 43.4008C229.65 41.6369 229.908 40.165 230.437 38.9921C230.817 38.1322 231.337 37.3603 232.003 36.6789C232.666 35.9974 233.346 35.4828 234.049 35.1537C235.157 34.6229 236.582 34.3586 238.317 34.3586C240.746 34.3586 242.597 34.8616 243.873 35.863C245.144 36.862 246.044 38.3246 246.554 40.2531L241.191 41.0759C241.026 40.3435 240.718 39.7918 240.272 39.421C239.829 39.0478 239.236 38.867 238.486 38.867C237.544 38.867 236.779 39.2564 236.194 40.0329C235.612 40.8187 235.32 41.9962 235.32 43.577C235.32 44.9863 235.612 46.0571 236.19 46.7896C236.772 47.5221 237.505 47.886 238.405 47.886C239.15 47.886 239.776 47.6658 240.286 47.223C240.794 46.7826 241.177 46.1058 241.43 45.1902Z" fill="#1B1918"/>
<path fill-rule="evenodd" clip-rule="evenodd" d="M221.783 41.857C221.66 40.6146 221.344 39.7268 220.834 39.1937C220.317 38.6559 219.642 38.3871 218.807 38.3871C217.832 38.3871 217.06 38.795 216.48 39.604C216.111 40.107 215.875 40.8556 215.777 41.857H221.783ZM227.979 44.9282H215.763C215.87 45.9597 216.137 46.7269 216.554 47.2299C217.143 47.9554 217.916 48.3147 218.86 48.3147C219.459 48.3147 220.029 48.1617 220.567 47.8418C220.899 47.6425 221.254 47.2925 221.63 46.7872L227.638 47.369C226.715 49.0518 225.61 50.2571 224.314 50.9872C223.015 51.7151 221.157 52.0813 218.73 52.0813C216.621 52.0813 214.965 51.7707 213.757 51.1449C212.548 50.5213 211.546 49.5246 210.755 48.164C209.961 46.8034 209.562 45.2064 209.562 43.3683C209.562 40.7537 210.36 38.6374 211.952 37.0218C213.545 35.4039 215.742 34.5903 218.549 34.5903C220.823 34.5903 222.623 34.9589 223.936 35.6821C225.253 36.4029 226.26 37.4576 226.947 38.8275C227.638 40.2043 227.979 41.9961 227.979 44.2027V44.9282Z" fill="#1B1918"/>
<path fill-rule="evenodd" clip-rule="evenodd" d="M201.474 35.2742H207.413V51.036C207.413 53.0479 207.276 54.4711 206.995 55.3102C206.717 56.147 206.207 56.8261 205.462 57.343C204.715 57.8668 203.648 58.1265 202.259 58.1265C201.117 58.1265 200.505 58.3142 198.753 58.189L198.744 53.4257C199.396 53.4698 200.658 53.2542 201.082 52.6678C201.342 52.3062 201.474 51.5853 201.474 50.5052V35.2742Z" fill="#1B1918"/>
<path fill-rule="evenodd" clip-rule="evenodd" d="M186.688 43.6976C186.688 45.1022 186.959 46.1221 187.493 46.7549C188.036 47.3854 188.718 47.7006 189.548 47.7006C190.309 47.7006 190.954 47.3923 191.474 46.7711C191.988 46.1499 192.255 45.1022 192.255 43.6373C192.255 42.3416 191.995 41.389 191.49 40.784C190.979 40.179 190.362 39.873 189.639 39.873C188.769 39.873 188.061 40.1906 187.509 40.8211C186.962 41.4515 186.688 42.4088 186.688 43.6976ZM180.271 29.3335H186.732V37.1611C187.37 36.5028 188.098 36.0137 188.91 35.6823C189.72 35.3554 190.622 35.1885 191.608 35.1885C193.636 35.1885 195.324 35.9071 196.651 37.3396C197.983 38.7743 198.646 40.8303 198.646 43.5098C198.646 45.2969 198.342 46.8778 197.734 48.2314C197.131 49.5944 196.289 50.6096 195.213 51.2841C194.141 51.9563 192.949 52.2924 191.638 52.2924C190.513 52.2924 189.488 52.056 188.555 51.5878C187.852 51.2146 187.089 50.5215 186.259 49.5063V51.9262H180.271V29.3335Z" fill="#1B1918"/>
<path fill-rule="evenodd" clip-rule="evenodd" d="M161.258 40.2715C161.258 42.6149 161.689 43.9802 162.564 45.0047C163.431 46.0269 164.621 46.5392 166.118 46.5392C167.66 46.5392 168.855 46.0385 169.697 45.0371C170.541 44.0335 170.968 42.55 170.968 39.9563C170.968 37.7659 170.525 36.5165 169.644 35.5059C168.764 34.4999 167.567 33.9969 166.053 33.9969C164.61 33.9969 163.448 34.5069 162.571 35.5337C161.698 36.5559 161.258 37.9073 161.258 40.2715ZM154.078 40.2368C154.078 36.447 155.141 33.4939 157.247 31.3846C159.36 29.2707 162.302 28.2161 166.069 28.2161C169.938 28.2161 172.914 29.2545 175.009 31.3313C177.092 33.4012 178.143 36.3102 178.143 40.049C178.143 42.761 177.684 44.9885 176.77 46.7269C175.856 48.4607 174.536 49.812 172.812 50.7809C171.082 51.7498 168.936 52.2296 166.357 52.2296C163.74 52.2296 161.573 51.8124 159.852 50.9803C158.138 50.1435 156.75 48.8223 155.679 47.019C154.614 45.211 154.078 42.951 154.078 40.2368Z" fill="#1B1918"/>
<path fill-rule="evenodd" clip-rule="evenodd" d="M278.119 34.5417H281.497V35.2765H280.362V37.5133H279.249V35.2765H278.119V34.5417ZM281.988 34.5417H283.452L284.016 36.3497L284.58 34.5417H286.036V37.5133H285.129V35.2487L284.427 37.5133H283.601L282.9 35.2487V37.5133H281.988V34.5417Z" fill="#1B1918"/>
<path fill-rule="evenodd" clip-rule="evenodd" d="M204.661 24.7927C207.083 24.7927 209.046 26.7537 209.046 29.1736C209.046 31.5935 207.083 33.5521 204.661 33.5521C202.242 33.5521 200.279 31.5935 200.279 29.1736C200.279 26.7537 202.242 24.7927 204.661 24.7927Z" fill="#E30016"/>
<path fill-rule="evenodd" clip-rule="evenodd" d="M141.745 4.25128C177.801 -2.67232 215.051 -2.08589 215.144 13.1335C215.167 16.9048 213.051 21.0515 208.041 24.4148C208.711 22.681 209.189 20.0293 209.187 18.1564C209.168 2.99961 166.701 4.42049 134.382 10.6209C102.063 16.819 86.8111 22.7528 74.0293 28.1443C85.403 20.88 105.691 11.1772 141.745 4.25128Z" fill="#13539E"/>
</mask>
<g mask="url(#mask0_2551_170)">
<rect x="-35.0078" y="-32.6492" width="338" height="126" fill="white"/>
</g>
</svg>
