<svg width="231" height="127" viewBox="0 0 231 127" fill="none" xmlns="http://www.w3.org/2000/svg">
<g clip-path="url(#clip0_303_447)">
<path d="M76.4105 43.1562C76.8797 43.239 77.3397 43.3494 77.7629 43.5794C78.9037 44.2142 79.5845 45.171 79.7961 46.4498C79.8329 46.6982 79.8513 46.9466 79.8513 47.2042C79.8513 57.8761 79.8513 68.548 79.8513 79.2199C79.8513 80.8023 79.1429 81.9983 77.7537 82.7803C77.2477 83.0655 76.6773 83.2127 76.0977 83.2127C65.3153 83.2127 54.5422 83.2127 43.7598 83.2127C42.8766 83.2127 42.0946 82.8815 41.4138 82.3019C40.6962 81.7039 40.273 80.9403 40.089 80.0295C40.0706 79.9191 40.089 79.7995 40.043 79.6983V46.6706C40.043 46.6706 40.0614 46.597 40.0706 46.551C40.2362 45.2538 40.8986 44.2878 42.021 43.6346C42.4718 43.3678 42.9594 43.2298 43.4654 43.1562H76.4105ZM60.7245 49.0166C60.4761 49.035 60.2277 49.0166 59.9885 49.0534C59.2157 49.1454 58.4889 49.4122 57.753 49.6238C55.5174 50.2678 53.2818 50.9302 51.037 51.5742C49.5558 51.9974 48.8106 53.3314 49.243 54.8033C49.841 56.8365 50.4114 58.8697 51.0002 60.9029C51.5154 62.7061 52.0306 64.5185 52.5458 66.3216C53.429 69.4036 54.3214 72.4856 55.1954 75.5676C55.5358 76.7728 56.7962 77.5916 58.0198 77.3064C58.995 77.0764 59.9517 76.7636 60.9177 76.4876C62.5553 76.0184 64.1929 75.5308 65.8305 75.0616C66.6217 74.8316 67.3945 74.5648 68.1121 74.1416C69.0045 73.608 69.7497 72.9272 70.4029 72.1268C70.8721 71.5472 71.2677 70.9216 71.5713 70.2316C72.1693 68.8608 72.3349 67.4256 72.1417 65.9445C71.9761 64.7393 71.5989 63.6077 70.9549 62.5681C70.0257 61.0685 68.7469 59.9645 67.1093 59.2837C66.9713 59.2285 66.9345 59.1733 67.0081 59.0261C67.6061 57.7565 67.8361 56.4317 67.6337 55.0333C67.4313 53.6718 66.9345 52.4206 66.0237 51.3902C64.6253 49.817 62.8405 49.0534 60.7337 49.0166H60.7245Z" fill="#EEEEEE"/>
<path d="M85.336 56.7329C85.336 53.3565 85.336 49.9893 85.336 46.613C85.336 46.1622 85.3268 45.7298 85.4832 45.3066C85.7592 44.5798 86.5504 43.9634 87.3416 43.9542C89.8992 43.945 92.4568 43.899 95.0144 43.9634C96.7256 44.0094 98.3724 44.405 99.8352 45.3802C101.316 46.3646 102.19 47.763 102.494 49.5018C102.742 50.9185 102.568 52.2985 101.878 53.5865C101.381 54.5065 100.691 55.2425 99.8076 55.7945C99.7524 55.8313 99.6512 55.8589 99.6604 55.9325C99.6604 55.9969 99.7616 56.0061 99.8168 56.0337C100.406 56.2729 100.939 56.6041 101.436 56.9997C102.089 57.5057 102.604 58.1221 103.018 58.8397C103.396 59.5021 103.653 60.2105 103.764 60.9649C104.012 62.6852 103.8 64.3136 102.816 65.7948C102.062 66.9356 101.004 67.6992 99.7432 68.1868C98.7864 68.564 97.7836 68.794 96.7624 68.9136C95.3364 69.0884 93.9104 69.0884 92.4752 69.0332C91.5368 68.9964 90.5892 69.0332 89.6416 69.024C88.878 69.024 88.1144 69.024 87.36 68.9688C86.3664 68.9136 85.612 68.2512 85.3728 67.2484C85.336 67.1012 85.336 66.9448 85.336 66.7976C85.336 63.4396 85.336 60.0817 85.336 56.7145V56.7329ZM89.9452 56.4385C89.9452 58.8121 89.9452 61.1948 89.9452 63.5684C89.9452 63.8628 89.9452 64.1572 89.9452 64.4424C89.9452 64.5712 89.982 64.6356 90.1292 64.6356C92.0612 64.5896 93.9932 64.7276 95.9252 64.5528C96.6152 64.4884 97.2684 64.3136 97.8664 63.9548C98.446 63.6052 98.86 63.1268 99.0072 62.446C99.1084 61.9584 99.0992 61.4708 99.0256 60.9833C98.8876 60.0265 98.354 59.3825 97.4616 59.0145C96.7808 58.7385 96.0724 58.6557 95.3548 58.5453C94.7936 58.4533 94.26 58.2693 93.8276 57.8737C93.3952 57.4781 93.1928 56.9721 93.1376 56.3925C93.0824 55.8405 93.1284 55.2977 93.4596 54.8285C93.846 54.2765 94.4072 54.0005 95.042 53.8257C95.4928 53.6969 95.962 53.6417 96.4036 53.4669C96.8268 53.3013 97.204 53.0713 97.4708 52.7033C97.986 52.0041 98.0504 51.2037 97.9216 50.3941C97.7192 49.1062 96.5416 48.1954 95.272 48.2138C93.6068 48.2414 91.9508 48.2138 90.2856 48.2138C90.0587 48.2138 89.9452 48.3242 89.9452 48.545C89.9452 51.1669 89.9452 53.7889 89.9452 56.4201V56.4385Z" fill="#EEEEEE"/>
<path d="M142.723 53.3876C142.723 50.8393 142.723 48.8061 142.723 46.7729C142.723 46.1197 142.925 45.5125 143.358 45.0157C143.781 44.5189 144.342 44.3073 144.995 44.2981C145.814 44.2797 146.449 44.5925 146.909 45.2549C147.176 45.6321 147.323 46.0737 147.351 46.5337C147.433 47.9965 147.369 49.4593 147.378 50.9221C147.387 53.2864 147.378 55.6416 147.378 58.006C147.378 59.1284 147.415 60.2416 147.709 61.3364C147.903 62.0264 148.16 62.6888 148.694 63.2132C149.209 63.7284 149.816 64.0596 150.525 64.1792C151.399 64.3355 152.273 64.3447 153.128 64.1056C154.177 63.8204 154.931 63.1672 155.364 62.1552C155.695 61.3732 155.833 60.5636 155.916 59.7264C155.98 59.0088 155.989 58.3004 155.989 57.5828C155.989 53.9856 155.989 50.3977 155.989 46.8005C155.989 46.1013 156.21 45.4481 156.707 44.9329C157.158 44.4637 157.728 44.2797 158.381 44.2981C158.952 44.2981 159.458 44.4729 159.863 44.8685C160.341 45.3285 160.553 45.9173 160.635 46.5705C160.672 46.9017 160.635 47.2145 160.635 47.5365C160.635 51.3821 160.635 55.2276 160.635 59.0732C160.635 60.1588 160.507 61.2352 160.258 62.3024C159.973 63.5168 159.522 64.6667 158.786 65.6879C158.133 66.5987 157.314 67.3163 156.33 67.8407C155.281 68.3927 154.168 68.6871 152.99 68.8067C152.411 68.8619 151.822 68.8987 151.242 68.8803C149.816 68.8251 148.427 68.5675 147.139 67.9051C146.09 67.3623 145.225 66.6079 144.545 65.6419C143.717 64.4643 143.257 63.1396 142.99 61.7412C142.843 60.9776 142.769 60.214 142.741 59.432C142.659 57.2516 142.741 55.062 142.705 53.3968L142.723 53.3876Z" fill="#EEEEEE"/>
<path d="M177.989 43.9564C179.488 43.9196 180.785 44.1956 182.027 44.7108C182.763 45.0236 183.453 45.4192 184.07 45.9252C184.889 46.5968 185.606 47.3512 185.983 48.3723C186.241 49.0899 186.269 49.7983 185.79 50.4515C185.441 50.9207 184.953 51.1875 184.383 51.2703C183.334 51.4083 182.524 50.9483 181.88 50.1755C181.153 49.3015 180.261 48.7311 179.148 48.5287C178.366 48.3815 177.575 48.3907 176.811 48.6391C175.459 49.0807 175.081 50.6447 175.597 51.6107C175.863 52.1167 176.296 52.4571 176.765 52.7515C177.685 53.3127 178.679 53.7175 179.663 54.1499C180.933 54.7019 182.202 55.2723 183.343 56.0635C184.521 56.8823 185.496 57.8759 186.094 59.2099C186.407 59.8998 186.581 60.6174 186.673 61.3718C186.738 61.9238 186.729 62.4758 186.701 63.0186C186.673 63.6994 186.499 64.3618 186.223 64.9966C185.873 65.8154 185.367 66.533 184.723 67.1494C184.309 67.5358 183.84 67.8486 183.343 68.1246C182.46 68.6122 181.521 68.9526 180.528 69.1274C179.663 69.2746 178.789 69.2838 177.915 69.2286C176.986 69.1734 176.075 68.9894 175.192 68.7042C173.913 68.281 172.781 67.6278 171.788 66.7078C171.309 66.2662 170.859 65.797 170.509 65.2542C170.067 64.5734 169.874 63.8098 170.021 63.0002C170.169 62.1814 170.932 61.4914 171.76 61.3442C172.478 61.2246 173.057 61.5098 173.6 61.9146C173.849 62.0986 174.051 62.3194 174.244 62.5586C174.723 63.1382 175.311 63.5798 175.946 63.9754C176.609 64.3802 177.335 64.6194 178.099 64.693C179.028 64.7942 179.939 64.7206 180.785 64.2882C181.512 63.911 181.935 63.3038 182.018 62.485C182.147 61.1878 181.577 60.2494 180.5 59.5595C179.323 58.8051 178.035 58.2715 176.747 57.7471C175.67 57.3055 174.612 56.8087 173.637 56.1555C172.616 55.4747 171.76 54.6191 171.245 53.4783C170.997 52.9263 170.831 52.3467 170.776 51.7395C170.748 51.4451 170.693 51.1507 170.702 50.8471C170.711 50.1111 170.794 49.3843 171.006 48.6759C171.236 47.9216 171.567 47.2132 172.055 46.5876C172.561 45.9344 173.186 45.4192 173.904 45.0144C174.833 44.49 175.836 44.1864 176.885 44.03C177.308 43.9656 177.731 43.9748 178.007 43.984L177.989 43.9564Z" fill="#EEEEEE"/>
<path d="M112.731 62.8703C112.731 61.7939 112.713 60.7176 112.741 59.6412C112.75 59.2272 112.621 58.8868 112.409 58.5464C111.443 57.01 110.496 55.4644 109.539 53.9188C108.812 52.7504 108.085 51.582 107.359 50.4044C106.853 49.5856 106.31 48.7761 105.841 47.9297C105.454 47.2305 105.316 46.4577 105.592 45.6665C105.887 44.8293 106.917 44.2221 107.8 44.2773C108.812 44.3325 109.456 44.8385 109.925 45.7033C110.339 46.4761 110.809 47.2121 111.259 47.9573C111.986 49.1809 112.722 50.4044 113.449 51.628C113.955 52.4744 114.461 53.3208 114.967 54.1672C115.031 54.2776 115.068 54.3604 115.178 54.1672C116.181 52.4836 117.184 50.8 118.196 49.1165C118.858 48.0033 119.53 46.8901 120.183 45.7677C120.349 45.4825 120.496 45.1881 120.735 44.9489C121.241 44.4429 121.839 44.2405 122.548 44.2681C123.274 44.3049 123.845 44.6085 124.277 45.1789C124.691 45.7217 124.746 46.3381 124.618 46.9913C124.498 47.5893 124.194 48.0953 123.882 48.6105C123.026 49.9812 122.18 51.3612 121.324 52.732C120.487 54.0844 119.65 55.4368 118.812 56.78C118.362 57.4976 117.92 58.2244 117.478 58.942C117.414 59.0432 117.423 59.1444 117.423 59.2456C117.423 61.5179 117.423 63.7903 117.423 66.0627C117.423 66.6607 117.368 67.2587 117.064 67.7923C116.65 68.5283 116.016 68.9055 115.178 68.9515C113.799 69.0251 112.915 67.9119 112.787 66.7711C112.676 65.8235 112.759 64.8759 112.741 63.9283C112.741 63.5603 112.741 63.2015 112.741 62.8335L112.731 62.8703Z" fill="#EEEEEE"/>
<path d="M133.396 53.6358C133.396 51.3818 133.396 49.1186 133.396 46.8647C133.396 46.1839 133.571 45.5491 134.013 45.0155C134.353 44.6015 134.813 44.3807 135.338 44.3255C135.733 44.2887 136.129 44.2887 136.515 44.4267C137.178 44.6567 137.592 45.1167 137.84 45.7423C138.033 46.2299 138.098 46.7451 138.052 47.2787C138.052 47.3615 138.052 47.4351 138.052 47.5179C138.052 51.897 138.07 56.2854 138.042 60.6645C138.033 62.3205 137.693 63.9305 136.883 65.4025C136.166 66.6997 135.126 67.6473 133.755 68.2269C132.936 68.5765 132.081 68.7697 131.198 68.8525C130.572 68.9169 129.937 68.9629 129.312 68.9169C127.95 68.8341 126.708 68.4201 125.576 67.6473C124.592 66.9849 123.828 66.1293 123.295 65.0805C122.918 64.3445 122.724 63.5533 122.623 62.7253C122.55 62.0629 122.678 61.4741 123.074 60.9497C123.488 60.4069 124.049 60.1033 124.739 60.0574C125.291 60.0206 125.806 60.1217 126.248 60.4989C126.45 60.6737 126.598 60.8945 126.717 61.1337C127.002 61.6581 127.168 62.2193 127.398 62.7621C127.775 63.6361 128.41 64.1973 129.367 64.3261C130.057 64.4181 130.738 64.4365 131.409 64.1789C132.108 63.9029 132.614 63.4337 132.918 62.7437C133.286 61.9249 133.396 61.0601 133.396 60.1677C133.396 57.9966 133.396 55.8254 133.396 53.6542V53.6358Z" fill="#EEEEEE"/>
<path d="M163.712 48.4758C163.712 47.9422 163.694 47.5282 163.712 47.1326C163.74 46.4886 163.832 45.8538 164.163 45.2835C164.494 44.7223 164.991 44.4003 165.626 44.2899C166.178 44.1979 166.721 44.2071 167.245 44.4187C167.797 44.6487 168.147 45.0443 168.358 45.5963C168.57 46.1574 168.561 46.7278 168.487 47.3166C168.395 48.0618 168.266 48.807 168.073 49.543C167.871 50.3342 167.613 51.107 167.282 51.8522C166.84 52.855 165.617 53.2322 164.752 52.625C164.384 52.3674 164.172 51.9902 164.025 51.5762C163.85 51.0702 163.777 50.5366 163.731 50.003C163.685 49.451 163.712 48.899 163.703 48.485L163.712 48.4758Z" fill="#EEEEEE"/>
<path d="M171.076 81.9811C170.699 81.9811 170.432 81.7787 170.285 81.3739C170.175 81.0795 170.064 80.7759 169.963 80.4815C169.908 80.3251 169.825 80.2699 169.66 80.2699C168.51 80.2699 167.36 80.2699 166.21 80.2699C166.035 80.2699 165.961 80.3343 165.906 80.4907C165.786 80.8311 165.648 81.1623 165.52 81.4935C165.336 81.9627 164.894 82.0823 164.489 81.9535C164.048 81.8155 163.827 81.3555 163.992 80.9139C164.259 80.1963 164.544 79.4787 164.82 78.7703C165.428 77.2063 166.044 75.6515 166.642 74.0875C167.001 73.14 168.096 72.9376 168.822 73.5264C169.098 73.7472 169.2 74.0783 169.319 74.3911C170.092 76.3507 170.856 78.3103 171.619 80.2699C171.711 80.5091 171.812 80.7483 171.886 80.9967C172.015 81.4199 171.582 82.0639 171.067 81.9903L171.076 81.9811ZM167.958 74.9247H167.912C167.774 75.2835 167.645 75.6423 167.507 76.0011C167.166 76.9027 166.835 77.7951 166.495 78.6967C166.44 78.8347 166.44 78.8991 166.624 78.8991C167.498 78.8991 168.381 78.8991 169.255 78.8991C169.402 78.8991 169.439 78.8715 169.374 78.7151C169.043 77.8319 168.721 76.9395 168.39 76.0471C168.252 75.6699 168.105 75.2927 167.958 74.9155V74.9247Z" fill="#EEEEEE"/>
<path d="M158.04 80.9184C157.626 81.4152 157.157 81.7648 156.559 81.866C155.455 82.0592 154.416 81.7004 153.808 80.6792C153.486 80.1364 153.321 79.5568 153.339 78.922C153.358 78.37 153.321 77.8272 153.542 77.2937C153.919 76.3737 154.526 75.7113 155.556 75.5365C156.403 75.3985 157.166 75.5733 157.792 76.1989C157.856 76.2633 157.921 76.3277 157.994 76.3921C157.994 76.3921 158.013 76.4013 158.031 76.4105C158.086 76.3645 158.059 76.3001 158.059 76.2449C158.086 75.8217 158.372 75.5733 158.813 75.5825C159.172 75.5825 159.43 75.8769 159.43 76.2725C159.43 78.1032 159.43 79.934 159.43 81.774C159.43 82.9884 158.795 83.89 157.636 84.2488C156.578 84.58 155.52 84.534 154.48 84.1384C154.278 84.0556 154.094 83.9452 153.937 83.7796C153.716 83.5496 153.68 83.2184 153.845 82.9792C153.992 82.7676 154.351 82.6848 154.618 82.8136C154.968 82.9884 155.326 83.1448 155.722 83.1816C156.292 83.2368 156.844 83.2368 157.36 82.9332C157.792 82.6848 157.985 82.2892 158.04 81.8292C158.077 81.544 158.04 81.2588 158.04 80.9276V80.9184ZM158.04 78.7012C158.04 78.3792 158.04 78.0664 158.04 77.7444C158.04 77.5972 157.985 77.4776 157.884 77.3765C157.507 76.9809 157.047 76.7601 156.495 76.7509C155.915 76.7417 155.437 76.9441 155.106 77.4409C154.701 78.0296 154.655 78.6828 154.82 79.3452C154.968 79.9432 155.308 80.4032 155.924 80.5964C156.578 80.7988 157.166 80.624 157.691 80.2284C157.948 80.0352 158.086 79.7868 158.05 79.4464C158.022 79.2072 158.05 78.9588 158.05 78.7104L158.04 78.7012Z" fill="#EEEEEE"/>
<path d="M182.019 81.139C181.973 81.2218 181.991 81.2954 181.991 81.369C181.991 82.1234 181.991 82.887 181.991 83.6414C181.991 84.0646 181.614 84.4142 181.227 84.3774C180.887 84.3406 180.602 84.0646 180.574 83.6966C180.574 83.6598 180.574 83.6138 180.574 83.577C180.574 81.185 180.574 78.7838 180.574 76.3919C180.574 76.1343 180.62 75.8859 180.859 75.7295C181.347 75.3983 181.927 75.6651 181.991 76.2447C181.991 76.2999 181.991 76.3459 181.991 76.4471C182.193 76.2171 182.387 76.0515 182.598 75.9043C183.711 75.1591 185.45 75.4167 186.195 76.7415C186.527 77.3303 186.692 77.9559 186.701 78.6366C186.701 79.2714 186.655 79.8786 186.389 80.4582C185.947 81.415 185.257 81.9946 184.171 82.0682C183.408 82.1234 182.755 81.875 182.203 81.3506C182.138 81.2954 182.092 81.2218 182.019 81.139V81.139ZM181.991 78.7746C181.991 79.1334 181.991 79.4922 181.991 79.851C181.991 79.9798 182.037 80.0718 182.12 80.1638C182.479 80.5318 182.902 80.7618 183.417 80.817C183.978 80.8722 184.447 80.6882 184.788 80.2558C185.45 79.4002 185.459 78.2778 184.852 77.3855C184.65 77.0911 184.374 76.8887 184.024 76.8059C183.426 76.6587 182.874 76.7875 182.387 77.1463C182.129 77.3395 181.927 77.5603 181.982 77.9467C182.019 78.2226 181.982 78.5078 181.982 78.7838L181.991 78.7746Z" fill="#EEEEEE"/>
<path d="M174.562 76.4401C174.672 76.2837 174.801 76.1733 174.939 76.0537C175.804 75.3178 177.202 75.3178 178.085 75.9801C178.711 76.4493 179.033 77.1117 179.18 77.8569C179.373 78.8597 179.3 79.8349 178.794 80.7457C178.352 81.5277 177.699 81.9785 176.788 82.0613C175.96 82.1349 175.261 81.8773 174.7 81.2701C174.663 81.2241 174.617 81.1873 174.562 81.1413C174.507 81.2149 174.525 81.2885 174.525 81.3529C174.525 82.1257 174.525 82.8893 174.525 83.6621C174.525 84.1957 174.056 84.5085 173.559 84.3245C173.329 84.2417 173.154 84.0025 173.154 83.7633C173.154 81.2425 173.154 78.7217 173.154 76.1917C173.154 75.8513 173.449 75.5846 173.807 75.5846C174.194 75.5846 174.497 75.8237 174.525 76.1825C174.525 76.2561 174.507 76.3389 174.562 76.4401V76.4401ZM174.525 78.7861C174.525 79.0805 174.553 79.3749 174.525 79.6601C174.488 80.0005 174.663 80.2121 174.902 80.3961C175.059 80.5157 175.224 80.6169 175.399 80.6905C176.153 81.0125 177.009 80.8193 177.469 80.1109C177.92 79.4117 177.938 78.6573 177.69 77.8937C177.552 77.4889 177.303 77.1393 176.899 76.9369C176.245 76.6057 175.353 76.7529 174.792 77.2865C174.608 77.4613 174.516 77.6361 174.534 77.8937C174.553 78.1881 174.534 78.4917 174.534 78.7861H174.525Z" fill="#EEEEEE"/>
<path d="M93.1875 77.5644C93.1875 76.3317 93.1875 75.0989 93.1875 73.8569C93.1875 73.5165 93.4359 73.2313 93.7579 73.1945C94.1259 73.1485 94.4295 73.3325 94.5399 73.6637C94.5675 73.7465 94.5675 73.8293 94.5675 73.9213C94.5675 74.6941 94.5675 75.4761 94.5675 76.2489C94.5675 76.3041 94.5399 76.3869 94.5951 76.4145C94.6687 76.4513 94.7055 76.3593 94.7515 76.3225C95.3035 75.7889 95.9475 75.5221 96.7111 75.4945C97.2263 75.4761 97.6955 75.5681 98.1187 75.8809C98.4867 76.1477 98.6431 76.5341 98.7535 76.9481C98.7995 77.1412 98.7995 77.3436 98.7995 77.5368C98.7995 78.7604 98.7995 79.984 98.7995 81.1984C98.7995 81.4652 98.7351 81.7044 98.4959 81.8516C97.9623 82.1736 97.3919 81.8516 97.3827 81.2168C97.3735 80.122 97.3643 79.0272 97.3827 77.9324C97.4011 77.1045 96.8583 76.7089 96.1039 76.7365C95.5703 76.7549 95.1471 76.9757 94.7699 77.316C94.6227 77.4448 94.5583 77.6012 94.5583 77.8036C94.5583 78.9628 94.5583 80.1128 94.5583 81.272C94.5583 81.5848 94.3835 81.8424 94.1167 81.9436C93.8407 82.0448 93.5279 81.962 93.3255 81.7228C93.2059 81.594 93.1875 81.4284 93.1875 81.2628C93.1875 80.03 93.1875 78.7972 93.1875 77.5552V77.5644Z" fill="#EEEEEE"/>
<path d="M120.633 79.2373C119.998 79.2373 119.354 79.2373 118.719 79.2373C118.535 79.2373 118.489 79.2741 118.535 79.4581C118.719 80.2032 119.335 80.7368 120.136 80.8196C120.697 80.8748 121.231 80.792 121.737 80.562C122.169 80.3688 122.528 80.4884 122.666 80.8564C122.767 81.1048 122.666 81.3624 122.39 81.5556C122.059 81.7856 121.691 81.896 121.304 81.9788C120.642 82.1168 119.979 82.1628 119.326 81.9696C118.544 81.7396 117.928 81.298 117.505 80.5896C117.109 79.918 116.98 79.2097 117.063 78.4369C117.146 77.6825 117.413 77.0201 117.919 76.4773C118.443 75.9253 119.087 75.5941 119.86 75.5389C120.449 75.4929 121.028 75.5389 121.562 75.8241C122.335 76.2197 122.804 76.8545 123.061 77.6641C123.144 77.9309 123.199 78.1977 123.227 78.4737C123.273 78.9061 122.988 79.2557 122.546 79.2557C121.902 79.2557 121.258 79.2557 120.614 79.2557L120.633 79.2373ZM120.191 78.2621C120.642 78.2621 121.093 78.2621 121.543 78.2621C121.939 78.2621 121.976 78.2069 121.838 77.8297C121.838 77.8297 121.838 77.8205 121.838 77.8113C121.571 77.1213 121.056 76.8085 120.329 76.7533C119.455 76.6889 118.756 77.2225 118.535 78.0413C118.489 78.2069 118.526 78.2713 118.701 78.2621C119.197 78.2621 119.694 78.2621 120.191 78.2621Z" fill="#EEEEEE"/>
<path d="M103.745 79.2369C103.101 79.2369 102.457 79.2369 101.813 79.2369C101.583 79.2369 101.574 79.2553 101.629 79.4761C101.804 80.2304 102.448 80.7088 103.184 80.81C103.782 80.8928 104.343 80.764 104.886 80.534C105.19 80.4052 105.549 80.488 105.696 80.7272C105.843 80.9572 105.788 81.2792 105.595 81.454C105.328 81.6748 105.024 81.8128 104.693 81.8956C104.251 82.006 103.81 82.0796 103.359 82.0796C102.632 82.0796 101.97 81.8956 101.39 81.4448C100.553 80.8008 100.148 79.9452 100.139 78.8873C100.13 78.0593 100.332 77.3049 100.847 76.6425C101.289 76.0813 101.869 75.7133 102.568 75.5753C103.433 75.4005 104.261 75.4833 105.006 75.9985C105.76 76.5229 106.137 77.2865 106.303 78.1789C106.349 78.4089 106.386 78.6297 106.275 78.8597C106.147 79.1173 105.944 79.2277 105.668 79.2369C105.033 79.2369 104.389 79.2369 103.755 79.2369H103.745ZM103.267 78.2617C103.782 78.2617 104.307 78.2617 104.822 78.2617C104.96 78.2617 105.006 78.2341 104.978 78.0777C104.914 77.7649 104.776 77.4981 104.564 77.2589C104.242 76.9001 103.828 76.7989 103.368 76.7621C102.448 76.6793 101.786 77.3049 101.602 78.0869C101.574 78.2157 101.602 78.2801 101.758 78.2709C102.264 78.2709 102.77 78.2709 103.276 78.2709L103.267 78.2617Z" fill="#EEEEEE"/>
<path d="M128.363 78.7196C128.363 78.324 128.391 77.9652 128.363 77.6156C128.335 77.3212 128.133 77.1096 127.875 76.9716C127.066 76.5485 126.284 76.7049 125.529 77.128C125.134 77.3488 124.72 77.1832 124.646 76.7509C124.6 76.4841 124.784 76.3093 124.968 76.1529C125.382 75.8125 125.888 75.6469 126.403 75.5641C127.066 75.4537 127.737 75.4537 128.381 75.6837C129.182 75.9689 129.633 76.5209 129.752 77.3764C129.807 77.7628 129.78 78.14 129.78 78.5264C129.78 79.4372 129.78 80.348 129.78 81.2588C129.78 81.8936 129.2 82.1144 128.759 81.9304C128.575 81.8568 128.427 81.7096 128.409 81.4888C128.409 81.4428 128.381 81.406 128.354 81.3416C128.069 81.5992 127.765 81.8108 127.406 81.9212C126.514 82.2064 125.667 82.1512 124.904 81.5532C124.508 81.2496 124.306 80.8264 124.241 80.348C124.14 79.6488 124.278 79.0048 124.839 78.5264C125.244 78.1768 125.732 78.002 126.284 77.9836C126.909 77.956 127.498 78.0756 128.023 78.4252C128.133 78.4988 128.234 78.6092 128.372 78.7288L128.363 78.7196ZM128.363 80.0352C128.363 79.9248 128.363 79.8236 128.363 79.7132C128.363 79.5844 128.326 79.4924 128.234 79.4004C127.866 78.9864 126.808 78.7748 126.229 79.0876C125.842 79.2992 125.612 79.612 125.631 80.0536C125.649 80.532 125.916 80.8448 126.348 81.0012C126.863 81.1852 127.36 81.1208 127.848 80.9C128.188 80.7436 128.427 80.5228 128.354 80.1088C128.354 80.0812 128.354 80.0536 128.354 80.026L128.363 80.0352Z" fill="#EEEEEE"/>
<path d="M146.391 78.7797C146.391 77.9425 146.391 77.1053 146.391 76.2681C146.391 75.9369 146.603 75.6701 146.907 75.6057C147.256 75.5321 147.569 75.6885 147.716 75.9921C147.762 76.0841 147.753 76.1853 147.762 76.2865C147.762 76.3325 147.735 76.4061 147.79 76.4337C147.854 76.4613 147.882 76.3969 147.919 76.3601C148.351 75.9001 148.894 75.6241 149.51 75.5413C150.182 75.4493 150.853 75.4769 151.396 75.9829C151.718 76.2773 151.884 76.6545 151.939 77.0777C152.031 77.8229 151.957 78.5681 151.976 79.3133C151.985 79.9205 151.976 80.5277 151.976 81.1349C151.976 81.3465 151.948 81.5581 151.81 81.7329C151.617 81.9721 151.295 82.064 151.019 81.972C150.752 81.8801 150.568 81.6041 150.568 81.2821C150.568 80.1689 150.559 79.0465 150.568 77.9333C150.568 77.1973 150.071 76.7005 149.262 76.7557C148.719 76.7925 148.296 77.0133 147.928 77.3721C147.808 77.4825 147.753 77.6205 147.753 77.7953C147.753 78.9729 147.753 80.1505 147.753 81.3189C147.753 81.6409 147.514 81.9445 147.229 81.9813C146.833 82.0365 146.511 81.8525 146.401 81.5213C146.373 81.4385 146.373 81.3557 146.373 81.2637C146.373 80.4357 146.373 79.6077 146.373 78.7705L146.391 78.7797Z" fill="#EEEEEE"/>
<path d="M87.8499 78.085C87.8499 77.0178 87.8499 75.9598 87.8499 74.8926C87.8499 74.6994 87.7855 74.6442 87.6015 74.6442C87.0403 74.6534 86.4699 74.6442 85.9087 74.6442C85.4487 74.6442 85.1727 74.359 85.1819 73.9082C85.1819 73.5494 85.4579 73.2734 85.8259 73.2734C87.4175 73.2734 89.0183 73.2734 90.6099 73.2734C90.8491 73.2734 91.0883 73.2734 91.3275 73.2734C91.7507 73.2734 92.0451 73.531 92.0543 73.9266C92.0635 74.3314 91.7783 74.6442 91.3459 74.6442C90.7755 74.6534 90.2051 74.6534 89.6347 74.6442C89.4231 74.6442 89.3771 74.7086 89.3771 74.911C89.3771 76.9994 89.3771 79.097 89.3771 81.1854C89.3771 81.765 88.8895 82.1238 88.3375 81.949C88.0615 81.8662 87.8499 81.5718 87.8499 81.2682C87.8499 80.201 87.8499 79.143 87.8499 78.0758V78.085Z" fill="#EEEEEE"/>
<path d="M137.359 76.4684C137.801 76.0544 138.242 75.7232 138.794 75.5944C139.503 75.438 140.202 75.392 140.837 75.8428C141.287 76.1648 141.536 76.6248 141.545 77.1584C141.573 78.5568 141.554 79.946 141.545 81.3444C141.545 81.694 141.269 81.97 140.91 81.9792C140.478 81.9792 140.174 81.7308 140.174 81.3536C140.174 80.6728 140.174 79.9828 140.174 79.302C140.174 78.8512 140.174 78.4004 140.174 77.9496C140.174 77.1216 139.668 76.6984 138.84 76.7536C138.325 76.7904 137.902 77.002 137.543 77.3608C137.423 77.4804 137.359 77.6184 137.359 77.8024C137.359 78.9616 137.359 80.13 137.359 81.2892C137.359 81.6112 137.193 81.8504 136.917 81.9516C136.614 82.062 136.338 81.9884 136.126 81.74C136.016 81.6112 135.988 81.4548 135.988 81.2984C135.988 79.6148 135.988 77.922 135.988 76.2384C135.988 75.8612 136.264 75.6036 136.651 75.5944C137.046 75.5944 137.341 75.8428 137.359 76.22C137.359 76.2936 137.359 76.358 137.359 76.4776V76.4684Z" fill="#EEEEEE"/>
<path d="M111.021 77.4568C111.021 76.2885 111.021 75.1201 111.021 73.9517C111.021 73.5009 111.334 73.2065 111.785 73.1881C112.162 73.1697 112.567 73.5929 112.567 73.9609C112.558 76.0677 112.567 78.1744 112.567 80.272C112.567 80.4499 112.656 80.5388 112.834 80.5388C113.772 80.5388 114.711 80.5388 115.649 80.5388C115.934 80.5388 116.173 80.6032 116.321 80.87C116.541 81.2656 116.321 81.8268 115.861 81.8912C115.299 81.9648 114.729 81.9188 114.159 81.928C113.478 81.9372 112.797 81.928 112.125 81.928C111.73 81.928 111.371 81.836 111.159 81.4588C111.077 81.3116 111.031 81.1552 111.031 80.9896C111.031 79.812 111.031 78.6344 111.031 77.466L111.021 77.4568Z" fill="#EEEEEE"/>
<path d="M132.89 76.5782C133.222 76.063 133.626 75.7594 134.16 75.6306C134.546 75.5386 134.832 75.6674 134.933 75.9894C135.052 76.3758 134.887 76.753 134.537 76.9002C134.362 76.9738 134.178 76.9738 133.994 77.0106C133.571 77.0934 133.24 77.3233 132.964 77.6361C132.89 77.7189 132.89 77.8201 132.89 77.9121C132.89 79.0345 132.89 80.1569 132.89 81.2793C132.89 81.9693 132.265 82.1349 131.878 81.9233C131.648 81.7945 131.52 81.6013 131.52 81.3253C131.52 79.6417 131.52 77.9489 131.52 76.2654C131.52 75.879 131.786 75.6122 132.164 75.603C132.568 75.5938 132.863 75.8422 132.89 76.2286C132.89 76.3298 132.89 76.4218 132.89 76.5782V76.5782Z" fill="#EEEEEE"/>
<path d="M144.656 78.8218C144.656 79.6498 144.656 80.4777 144.656 81.3149C144.656 81.7289 144.389 81.9957 143.994 81.9957C143.561 81.9957 143.285 81.7381 143.285 81.3149C143.285 79.6314 143.285 77.957 143.285 76.2734C143.285 75.8686 143.58 75.5926 143.984 75.6018C144.389 75.6018 144.656 75.8686 144.656 76.2734C144.656 77.1198 144.656 77.9754 144.656 78.8218V78.8218Z" fill="#EEEEEE"/>
<path d="M143.955 74.8803C143.449 74.8803 143.118 74.5399 143.127 74.0247C143.127 73.5647 143.514 73.1967 143.983 73.1875C144.36 73.1875 144.857 73.5463 144.829 74.0523C144.802 74.5491 144.48 74.8803 143.964 74.8803H143.955Z" fill="#EEEEEE"/>
<path d="M189.228 44.3464C190.13 44.3464 190.81 45.0364 190.801 45.9564C190.801 46.812 190.084 47.502 189.228 47.5204C188.455 47.5388 187.6 46.8488 187.655 45.8C187.692 45.1008 188.409 44.2912 189.228 44.3464ZM190.544 45.9104C190.58 45.1744 189.964 44.5764 189.228 44.5764C188.409 44.5764 187.894 45.248 187.885 45.9012C187.885 46.5544 188.391 47.2536 189.21 47.2628C189.918 47.272 190.608 46.6188 190.544 45.9104V45.9104Z" fill="#EEEEEE"/>
<path d="M64.375 60.1296C65.2398 60.2124 66.0218 60.4148 66.767 60.7644C68.009 61.3531 68.9934 62.2179 69.711 63.3863C70.5022 64.6651 70.8334 66.0635 70.7046 67.5539C70.5298 69.5043 69.6558 71.1051 68.1286 72.3471C67.2546 73.0554 66.2334 73.4418 65.157 73.7454C63.5838 74.187 62.0198 74.6562 60.4558 75.107C59.6738 75.337 58.8826 75.5578 58.1006 75.7878C57.3094 76.027 56.6654 75.4658 56.509 74.9046C56.0398 73.2026 55.5338 71.5007 55.0462 69.7987C54.5126 67.9403 53.979 66.0727 53.4454 64.2143C52.8566 62.1719 52.277 60.1388 51.6882 58.0964C51.357 56.9372 51.0167 55.778 50.6947 54.6188C50.4647 53.8092 50.8511 53.1652 51.6514 52.9352C53.6754 52.3556 55.6902 51.7576 57.7142 51.178C58.4226 50.9756 59.1218 50.7364 59.8394 50.58C61.7714 50.166 63.409 50.7088 64.7338 52.1716C65.525 53.0456 65.9942 54.0852 66.1598 55.2536C66.3622 56.6612 66.031 57.9492 65.249 59.136C65.0098 59.504 64.7062 59.8168 64.3566 60.148L64.375 60.1296Z" fill="#EEEEEE"/>
<path d="M188.631 45.9168C188.631 45.6776 188.631 45.4384 188.631 45.1992C188.631 45.0704 188.677 45.0152 188.806 45.0244C188.98 45.0244 189.164 45.0244 189.348 45.0244C189.634 45.0244 189.836 45.1532 189.9 45.3832C189.983 45.6684 189.9 45.926 189.652 46.064C189.514 46.1376 189.523 46.1928 189.606 46.294C189.707 46.432 189.799 46.5792 189.891 46.7172C189.946 46.7908 189.919 46.8184 189.836 46.8276C189.726 46.8276 189.634 46.8276 189.56 46.708C189.468 46.5424 189.339 46.3952 189.247 46.2204C189.183 46.1008 189.082 46.0916 188.98 46.11C188.852 46.1284 188.888 46.2388 188.888 46.3216C188.888 46.4412 188.888 46.5608 188.888 46.6804C188.888 46.7632 188.861 46.8184 188.76 46.8184C188.668 46.8184 188.631 46.7632 188.631 46.6804C188.631 46.4228 188.631 46.1652 188.631 45.9076V45.9168ZM188.888 45.5672C188.888 45.788 188.974 45.8984 189.146 45.8984C189.486 45.8984 189.661 45.788 189.661 45.5672C189.661 45.3556 189.486 45.236 189.164 45.236C188.98 45.236 188.888 45.3464 188.888 45.5672Z" fill="#EEEEEE"/>
</g>
<defs>
<clipPath id="clip0_303_447">
<rect width="231" height="127" fill="white"/>
</clipPath>
</defs>
</svg>
