<svg width="231" height="127" viewBox="0 0 231 127" fill="none" xmlns="http://www.w3.org/2000/svg">
<g clip-path="url(#clip0_360_4990)">
<path d="M117.052 77.6036H109.109C109.694 76.9985 110.308 76.6334 110.534 75.9403C110.808 75.1037 110.926 74.2467 110.932 73.3762C110.943 70.8797 110.937 68.3814 110.937 65.8849C110.937 61.0017 110.937 56.1201 110.937 51.2369C110.937 50.4154 111.361 50.0036 112.211 50.0013C114.463 50.0013 116.712 49.976 118.964 50.0098C120.746 50.0368 122.497 50.2633 124.126 51.0679C128.249 53.103 129.148 58.0961 126.001 61.453C124.863 62.6666 123.533 63.576 121.932 64.0594C121.515 64.1861 121.352 64.3383 121.684 64.7406C123.861 67.3842 125.876 70.1647 128.151 72.7271C129.611 74.3718 131.356 75.7105 133.158 76.968C133.379 77.1219 133.639 77.2402 133.776 77.487C133.715 77.5546 133.683 77.6272 133.646 77.6289C132.072 77.7101 130.495 77.7473 128.927 77.6239C127.537 77.514 126.312 76.9393 125.411 75.8339C123.053 72.9401 120.536 70.1714 118.546 66.9937C117.906 65.9711 117.22 64.9772 116.567 63.9596C116.155 63.314 116.185 63.2633 116.925 63.1128C118.45 62.8018 119.922 62.3556 121.217 61.4479C123.056 60.1599 123.847 58.0116 123.207 55.9866C122.624 54.1391 120.837 52.9154 118.646 52.8866C117.747 52.8748 116.849 52.8816 115.957 53.0557C115.539 53.1368 115.369 53.3278 115.389 53.7301C115.392 53.7859 115.387 53.8416 115.387 53.8991C115.391 60.6061 115.38 67.3115 115.409 74.0185C115.416 75.4028 115.744 76.7027 117.198 77.4244C117.149 77.4853 117.1 77.5461 117.051 77.6087L117.052 77.6036Z" fill="#EEEEEE"/>
<path d="M206.839 77.5994H199.963C200.005 77.1836 200.314 77.089 200.503 76.903C200.967 76.4466 201.279 75.8973 201.279 75.2668C201.279 72.0992 201.523 68.9232 201.127 65.7641C200.961 64.4338 200.532 63.1881 199.396 62.3227C197.17 60.6256 193.751 61.7006 192.932 64.3561C192.726 65.0288 192.594 65.7218 192.591 66.425C192.577 69.2038 192.583 71.9826 192.572 74.7631C192.569 75.6843 192.846 76.4703 193.571 77.0737C193.713 77.1921 193.918 77.2833 193.881 77.6062H187.447C187.478 77.4743 187.468 77.3645 187.515 77.329C188.597 76.5143 188.825 75.3767 188.808 74.1107C188.781 71.9775 188.815 69.8427 188.789 67.7096C188.776 66.5551 188.61 65.421 188.172 64.3358C187.25 62.0539 185.074 61.0414 182.735 61.8223C180.918 62.4292 180.231 63.9166 180.13 65.6052C179.939 68.8269 180.04 72.0587 180.083 75.2871C180.091 75.9598 180.383 76.5312 180.88 76.9977C181.036 77.143 181.271 77.236 181.283 77.4997C181.193 77.7025 181.004 77.6755 180.845 77.6755C179.072 77.6822 177.299 77.6839 175.525 77.6772C175.318 77.6772 175.025 77.7617 174.941 77.4828C174.875 77.2631 175.123 77.1616 175.27 77.0433C176.058 76.4128 176.176 75.5423 176.176 74.6161C176.171 70.5729 176.175 66.5315 176.175 62.4883C176.175 62.179 176.202 61.868 176.169 61.562C176.098 60.8809 176.367 60.4667 177.011 60.1963C177.814 59.8599 178.583 59.4424 179.356 59.0385C179.841 58.7849 180.039 58.9539 180.045 59.4509C180.052 60.0357 180.047 60.6222 180.047 61.1817C180.356 61.2984 180.414 61.0871 180.503 60.9721C183.01 57.7234 188.866 58.2085 191.1 61.3609C191.6 62.0657 191.643 62.0607 192.185 61.4167C194.812 58.2998 198.788 58.266 201.675 59.4678C203.727 60.3214 204.523 62.1418 204.912 64.1921C205.101 65.1928 205.096 66.2019 205.096 67.2126C205.096 69.5706 205.093 71.9285 205.088 74.2865C205.086 75.0251 205.184 75.7418 205.517 76.4112C205.774 76.9284 206.352 77.1092 206.844 77.5977L206.839 77.5994Z" fill="#EEEEEE"/>
<path d="M47.6092 69.3281C47.8847 69.6222 47.8036 69.9163 47.8053 70.1851C47.8137 71.4764 47.7766 72.7678 47.8222 74.0575C47.8476 74.7928 47.5653 75.2745 46.9584 75.6514C41.9432 78.77 36.7945 79.0337 31.7286 75.976C26.9686 73.1025 24.7763 68.6689 25.018 63.1434C25.3087 56.4837 30.7955 50.8567 37.4673 50.1333C40.8614 49.7648 43.9226 50.588 46.7945 52.3526C47.5517 52.8174 47.8814 53.3719 47.829 54.2711C47.7563 55.5016 47.8171 56.7406 47.807 57.9745C47.8053 58.2415 47.8915 58.5373 47.5754 58.867C45.2918 55.4492 42.048 53.9601 38.0065 54.3116C35.2293 54.5534 33.0031 55.9123 31.2705 58.0691C28.064 62.0599 28.6961 67.8981 32.6397 71.5102C35.8378 74.4395 43.3496 75.528 47.6109 69.3281H47.6092Z" fill="#EEEEEE"/>
<path d="M142.075 78.0357C138.446 77.9715 135.421 76.6632 133.461 73.5092C130.309 68.4299 132.491 61.8598 138.069 59.6556C141.891 58.1445 145.664 58.2375 148.992 60.898C154.406 65.2251 153.47 73.6055 147.28 76.8221C145.656 77.6656 143.935 78.1321 142.074 78.0374L142.075 78.0357ZM148.296 68.8998C148.365 67.6202 148.103 66.3627 147.562 65.171C146.513 62.8621 144.726 61.5251 142.163 61.5437C139.667 61.5606 137.753 62.7353 136.818 65.095C135.686 67.9498 136.144 70.6813 137.985 73.1136C140.39 76.2914 144.822 75.6609 146.778 73.352C147.868 72.064 148.385 70.6103 148.297 68.8998H148.296Z" fill="#EEEEEE"/>
<path d="M156.914 62.7798C157.71 61.5983 158.504 60.4168 159.304 59.2387C159.437 59.0426 159.647 58.9598 159.884 58.9361C161.535 58.7637 163.183 58.6302 164.838 58.9615C168.16 59.6258 169.703 61.4935 169.742 64.9907C169.769 67.3757 169.745 69.7607 169.77 72.1474C169.791 74.0675 170.299 74.6879 172.15 75.1493C173.063 75.3758 173.068 75.3859 172.573 76.1483C172.358 76.4779 172.091 76.7821 171.927 77.1337C171.535 77.9788 170.878 78.1479 170.048 77.9687C169.167 77.7794 168.259 77.6273 167.527 77.0661C167.056 76.7044 166.65 76.728 166.133 76.9342C164.208 77.7016 162.226 78.1377 160.125 78.0262C157.335 77.8774 154.813 76.0215 154.302 73.4776C153.755 70.758 154.579 68.8665 157.074 67.7509C158.606 67.0664 160.25 66.8162 161.878 66.4984C162.762 66.326 163.65 66.1536 164.478 65.7919C165.264 65.4488 165.857 64.9535 165.871 63.9799C165.884 62.9861 165.333 62.4215 164.515 62.0429C162.882 61.2873 161.224 61.4563 159.581 61.9955C158.736 62.2728 157.918 62.6328 157.086 62.9556C157.029 62.8982 156.971 62.839 156.914 62.7815V62.7798ZM165.866 71.189C165.866 70.3489 165.851 69.5071 165.871 68.6671C165.884 68.1042 165.749 67.8963 165.141 68.1414C164.02 68.5944 162.84 68.8648 161.657 69.1133C160.942 69.2637 160.242 69.47 159.601 69.8401C159.013 70.1799 158.624 70.6633 158.432 71.3141C158.006 72.7525 158.597 74.1047 159.955 74.7521C161.848 75.6547 163.68 75.2102 165.496 74.4833C165.849 74.343 165.864 74.0253 165.864 73.7075C165.864 72.8674 165.864 72.0274 165.864 71.1856L165.866 71.189Z" fill="#EEEEEE"/>
<path d="M52.9897 62.9729C53.8315 61.5413 54.7054 60.3767 55.5337 59.1833C55.652 59.0126 55.8481 58.9585 56.0509 58.9365C57.7886 58.7455 59.5178 58.6222 61.252 59.0244C64.3453 59.7411 65.8666 61.5734 65.8987 64.7393C65.9207 66.8995 65.9021 69.0613 65.9055 71.2232C65.9055 71.6998 65.8987 72.1782 65.9359 72.6532C66.0441 74.051 66.6205 74.7238 67.9829 75.0736C68.201 75.1294 68.419 75.2021 68.6405 75.2224C69.1408 75.2663 69.2185 75.4742 68.9413 75.8715C68.654 76.2873 68.3227 76.6845 68.108 77.1375C67.7074 77.9843 67.0532 78.1331 66.2233 77.9742C65.3325 77.8034 64.4417 77.604 63.7081 77.0563C63.2314 76.6997 62.824 76.7217 62.3102 76.9296C60.3866 77.7054 58.4072 78.1381 56.3044 78.0283C53.5695 77.8846 51.1101 76.098 50.4813 73.5744C49.8558 71.0643 50.7466 68.9126 53.0776 67.8223C54.6817 67.0736 56.4126 66.8335 58.1182 66.4887C58.9464 66.3214 59.7713 66.1473 60.5573 65.8312C61.3906 65.4965 62.0701 64.9742 62.0904 64.0158C62.1107 63.0456 61.5157 62.3999 60.6553 62.0179C58.8923 61.2336 57.1428 61.5142 55.395 62.1024C54.6581 62.3509 53.9971 62.8005 52.9897 62.9763V62.9729ZM62.1242 71.1049C62.1242 70.2361 62.1141 69.3673 62.1276 68.4985C62.1361 68.0117 61.9434 67.9238 61.5039 68.0759C60.7889 68.3244 60.062 68.5475 59.3335 68.7554C58.3345 69.0393 57.2984 69.1847 56.3298 69.5785C55.5151 69.9098 54.866 70.3899 54.6057 71.2874C54.1611 72.8205 54.8406 74.2454 56.3197 74.8573C58.1858 75.6297 59.9572 75.1734 61.7135 74.4635C62.06 74.3232 62.1259 74.0426 62.1242 73.713C62.1192 72.8442 62.1242 71.9754 62.1242 71.1066V71.1049Z" fill="#EEEEEE"/>
<path d="M106.942 77.5994H100.548C100.534 77.4963 100.519 77.454 100.529 77.4456C101.866 76.4703 101.897 75.0724 101.856 73.6019C101.799 71.4434 101.836 69.2798 101.839 67.1196C101.839 66.1291 101.704 65.164 101.384 64.2242C100.653 62.0657 98.9234 61.4048 96.8341 61.5857C94.2783 61.8071 93.1644 63.0883 93.1222 65.6761C93.0731 68.7068 93.1053 71.7375 93.1086 74.7682C93.1086 75.713 93.4112 76.5294 94.1921 77.1244C94.3155 77.2191 94.5015 77.3053 94.4322 77.5183C94.3899 77.645 94.2598 77.6569 94.1516 77.6585C92.108 77.6619 90.0644 77.6619 88.0867 77.6619C87.9531 77.432 88.0055 77.3256 88.0968 77.2596C89.1245 76.5244 89.3409 75.4781 89.3341 74.2932C89.3105 70.0557 89.3409 65.8181 89.3105 61.5806C89.3054 60.8572 89.537 60.4414 90.203 60.1625C90.9281 59.8599 91.6093 59.4576 92.3176 59.1128C93.0207 58.7714 93.085 58.8085 93.1019 59.5641C93.1154 60.1506 93.1053 60.7388 93.2557 61.442C93.445 61.2189 93.631 60.9941 93.8236 60.7743C96.7192 57.502 102.4 58.5787 104.493 61.2983C105.279 62.3209 105.577 63.5143 105.598 64.7685C105.632 66.7579 105.612 68.7474 105.615 70.7368C105.615 71.6344 105.619 72.5336 105.615 73.4312C105.61 74.9321 105.571 76.4432 107.088 77.4337C107.04 77.4895 106.991 77.5453 106.944 77.5994H106.942Z" fill="#EEEEEE"/>
<path d="M75.8756 62.3367C75.8756 66.4052 75.8841 70.4737 75.8705 74.5422C75.8672 75.6003 76.0531 76.5536 76.9878 77.2095C77.0994 77.2872 77.2448 77.3886 77.1484 77.5475C77.0487 77.7149 76.8509 77.6743 76.6887 77.676C74.8885 77.6794 73.0883 77.6777 71.2864 77.676C71.2306 77.676 71.1731 77.676 71.1173 77.6692C70.9838 77.6489 70.8148 77.6726 70.7725 77.4968C70.7336 77.3345 70.8672 77.2433 70.977 77.1638C71.9557 76.4471 72.091 75.4076 72.091 74.3089C72.091 66.8176 72.1062 59.3246 72.0758 51.8333C72.0724 50.9882 72.2887 50.4709 73.1052 50.1582C73.8371 49.8776 74.525 49.4821 75.2231 49.1187C75.7167 48.8618 75.8858 49.0308 75.8756 49.5396C75.8638 50.1853 75.8739 50.831 75.8739 51.475C75.8739 55.0938 75.8739 58.7144 75.8739 62.3333L75.8756 62.3367Z" fill="#EEEEEE"/>
<path d="M85.8396 77.41C85.6994 77.6804 85.5472 77.6686 85.412 77.6686C83.5831 77.672 81.7558 77.6754 79.9269 77.6686C79.7426 77.6686 79.4925 77.7396 79.4046 77.5114C79.3116 77.2697 79.5685 77.1801 79.7055 77.0652C80.5743 76.3417 80.7061 75.3546 80.7061 74.3218C80.7061 69.3575 80.7044 64.3914 80.7027 59.4271C80.7027 56.819 80.7264 54.2092 80.6875 51.6011C80.6774 50.9047 80.9174 50.5193 81.5445 50.2506C82.3441 49.9074 83.1115 49.4882 83.889 49.0961C84.2812 48.8983 84.4739 49.0014 84.4739 49.446C84.4739 49.6978 84.4772 49.9514 84.4772 50.2032C84.4772 57.8619 84.4739 65.5189 84.4874 73.1775C84.4908 74.7444 84.1426 76.4347 85.838 77.4117L85.8396 77.41Z" fill="#EEEEEE"/>
</g>
<defs>
<clipPath id="clip0_360_4990">
<rect width="231" height="127" fill="white"/>
</clipPath>
</defs>
</svg>
