<svg width="100" height="100" viewBox="0 0 100 100" fill="none" xmlns="http://www.w3.org/2000/svg">
<g clip-path="url(#clip0_148_207)">
<path d="M42.6411 99.9697C40.2708 99.6174 37.8898 99.3291 35.5516 98.7205C21.6716 95.0904 11.4431 86.8905 4.89816 74.1422C1.07582 66.6791 -0.472332 58.6821 0.114898 50.3541C1.01176 37.734 6.17939 27.0891 15.5964 18.5796C22.6005 12.2588 30.8324 8.51124 40.1427 7.12324C41.6801 6.88835 43.239 6.76022 44.7978 6.70684C46.9332 6.6321 48.4706 8.09484 48.5134 10.2409C48.5667 13.4867 48.5667 16.7431 48.5134 19.9889C48.4813 22.0496 47.0506 23.4482 45.0007 23.555C31.2381 24.2597 19.4721 34.8192 17.3154 48.4002C14.7316 64.6398 25.0882 79.4807 41.2317 82.6731C57.482 85.8975 73.5828 74.5907 76.1666 58.1589C76.3267 57.1339 76.4548 56.0983 76.5296 55.0626C76.6684 53.066 78.0137 51.614 80.0316 51.5819C83.3094 51.5179 86.5979 51.5285 89.8864 51.5819C92.0645 51.614 93.5166 53.1835 93.4098 55.3936C92.972 64.4796 90.2387 72.829 84.943 80.2281C77.2236 91.0225 66.7389 97.4393 53.649 99.5853C52.7201 99.7348 51.7912 99.8416 50.8623 99.9697H42.6731H42.6411ZM44.9259 15.1309C44.9259 13.8283 44.8939 12.5258 44.9366 11.2339C44.9579 10.5078 44.691 10.2516 43.9757 10.2836C42.1606 10.3904 40.3455 10.5932 38.5731 10.9563C26.6791 13.3692 17.3047 19.6152 10.621 29.7263C4.95154 38.3105 2.7948 47.8023 3.84114 58.0415C4.49243 64.4156 6.56375 70.3092 9.86292 75.7865C10.5249 76.8862 10.5462 76.8862 11.5606 76.1602C13.5998 74.7081 15.6178 73.2347 17.6891 71.836C18.3938 71.3662 18.4365 71.0139 18.0094 70.2986C14.3259 64.0632 12.735 57.3475 13.5037 50.1299C14.6141 39.6238 19.643 31.4453 28.3447 25.5409C32.9998 22.3806 38.1888 20.5975 43.8048 20.1384C44.5949 20.0743 44.9686 19.8074 44.9259 18.9426C44.8619 17.6827 44.9152 16.4122 44.9152 15.1416L44.9259 15.1309ZM48.5347 91.5243C48.5347 92.8269 48.5667 94.1294 48.524 95.4213C48.5027 96.1901 48.7803 96.457 49.549 96.4143C52.3784 96.2541 55.1758 95.8271 57.8984 95.0583C70.6146 91.4495 79.9248 83.7088 85.7544 71.836C88.1461 66.9674 89.3953 61.7784 89.8117 56.3865C89.8757 55.4897 89.6622 55.1053 88.6586 55.1267C86.1602 55.1907 83.6511 55.1694 81.1527 55.1267C80.3092 55.116 80.0209 55.4256 79.9569 56.2477C79.5832 61.1591 78.1738 65.7715 75.6434 69.9783C69.707 79.8651 61.0053 85.4705 49.4743 86.5702C48.7803 86.6342 48.5027 86.9332 48.524 87.6272C48.5561 88.9298 48.524 90.2217 48.524 91.5243H48.5347ZM44.9366 91.567C44.9366 90.2964 44.8939 89.0259 44.9579 87.766C45.0007 86.9012 44.6163 86.6236 43.8369 86.5702C42.8973 86.5061 41.9577 86.4207 41.0395 86.2499C33.0425 84.7658 26.3801 80.9648 21.1484 74.7081C20.7 74.1743 20.3904 74.217 19.8779 74.5907C17.7211 76.1602 15.5537 77.7083 13.3543 79.2138C12.7243 79.6515 12.7564 79.9612 13.2048 80.5164C18.1269 86.5488 24.2127 90.9584 31.473 93.7344C35.4768 95.2612 39.6195 96.158 43.9009 96.425C44.7124 96.4784 45.0007 96.1901 44.9686 95.3786C44.9152 94.1081 44.9579 92.8482 44.9579 91.5776L44.9366 91.567Z" fill="#727272"/>
<path d="M99.9994 45.9435C99.284 47.7906 97.8853 48.538 95.9528 48.5166C92.9313 48.4846 89.9097 48.5273 86.8881 48.4953C84.6993 48.4739 83.3327 47.0966 83.1726 44.9078C82.5213 35.8752 78.6135 28.5508 71.4813 22.9881C66.7087 19.2726 61.2422 17.2867 55.2097 16.913C52.9782 16.7742 51.6116 15.3755 51.5902 13.1333C51.5689 10.0477 51.5689 6.96208 51.5902 3.86577C51.6009 1.41008 53.0637 -0.063331 55.4873 0.0434382C65.545 0.502546 74.5029 3.90848 82.4252 10.1011C82.6601 10.2933 82.8736 10.7204 83.2046 10.5495C83.5142 10.3894 83.3327 9.96229 83.3541 9.64199C83.3861 9.22559 83.3434 8.78783 83.4074 8.38211C83.5676 7.41051 84.2189 6.85531 85.1264 6.84463C86.0874 6.84463 86.7707 7.41051 86.8988 8.42482C86.9735 9.0334 86.9095 9.65266 86.9095 10.336C87.4113 10.2826 87.5928 9.95162 87.8277 9.71672C90.7959 6.75922 93.7534 3.78036 96.7322 0.83353C97.9494 -0.372962 98.9424 -0.298223 99.978 1.05775V2.42439C99.6364 2.81944 99.3267 3.23584 98.9637 3.59885C96.1023 6.48162 93.2195 9.34303 90.3581 12.2258C90.1232 12.4607 89.7816 12.6315 89.7389 13.0693C90.4329 13.1013 91.0948 13.0693 91.7248 13.1654C92.6964 13.3148 93.2302 13.9875 93.2302 14.9164C93.2302 15.8346 92.675 16.4859 91.7034 16.646C91.255 16.7208 90.7959 16.6781 90.3474 16.6994C90.0698 16.7208 89.6855 16.5713 89.5253 16.8382C89.3438 17.1585 89.7282 17.34 89.899 17.5536C93.9242 22.6358 96.7963 28.3052 98.5046 34.5726C99.22 37.2098 99.5936 39.911 99.9887 42.6016V45.9221L99.9994 45.9435ZM91.5432 44.9078C92.8458 44.9078 94.1484 44.8865 95.4403 44.9292C96.1877 44.9505 96.4867 44.705 96.4546 43.9256C96.3585 42.1105 96.1557 40.2954 95.7713 38.523C92.4935 23.4366 83.7705 12.8024 69.5915 6.70583C65.3207 4.8694 60.8151 3.91916 56.1706 3.65224C55.5727 3.62021 55.167 3.7163 55.1777 4.46368C55.199 7.16494 55.199 9.85552 55.1777 12.5568C55.1777 13.1547 55.466 13.3682 55.9891 13.4216C56.6938 13.4964 57.4092 13.5604 58.1138 13.6779C70.8941 15.8346 79.7132 22.9668 84.6246 34.9249C85.7564 37.6689 86.3756 40.5623 86.6212 43.5198C86.7386 44.9078 86.76 44.9078 88.1373 44.9078C89.2691 44.9078 90.4115 44.9078 91.5432 44.9078V44.9078Z" fill="#727272"/>
<path d="M21.6504 53.3639C21.6504 39.0568 33.6512 27.6752 47.8942 28.3158C61.2938 28.9244 72.4512 40.306 71.7785 54.6131C71.1806 67.3186 60.856 78.4973 46.6984 78.4546C31.9856 78.4119 21.6077 66.4644 21.6611 53.3639H21.6504ZM46.6984 31.8819C35.6905 31.7218 25.3553 40.5516 25.1844 53.1824C25.0136 65.1725 34.8044 75.006 46.8052 74.9099C58.9662 74.8138 68.2765 65.1619 68.2551 53.3212C68.2338 41.3203 58.6673 31.9033 46.6984 31.8819V31.8819Z" fill="#727272"/>
<path d="M44.9372 59.7057C44.9372 58.4351 44.9159 57.1646 44.9372 55.9047C44.9586 55.2641 44.745 54.9331 44.0937 54.7089C40.5917 53.5131 38.3175 50.3847 38.2855 46.8507C38.2535 43.1458 40.4529 40.0175 44.019 38.7362C44.5422 38.544 44.9159 38.3305 45.108 37.754C45.3429 37.0279 45.9302 36.6756 46.6776 36.6649C47.4783 36.6436 48.0762 37.0279 48.3325 37.786C48.5247 38.3519 48.8984 38.5761 49.4215 38.7683C52.8061 40.0068 54.6425 42.4838 55.123 46.0072C55.3045 47.3632 54.6212 48.3775 53.5215 48.4736C52.4538 48.5697 51.685 47.7796 51.5676 46.4023C51.4288 44.8114 50.7028 43.5622 49.3895 42.6653C49.1866 42.5265 48.9624 42.2916 48.6955 42.4518C48.4286 42.6119 48.5353 42.9216 48.5353 43.1671C48.5353 45.7403 48.5567 48.3027 48.514 50.8759C48.5033 51.6126 48.845 51.8688 49.4749 52.093C52.9342 53.3209 55.1657 56.4706 55.1764 60.0367C55.1764 63.5921 52.9022 66.8058 49.4856 67.991C48.9304 68.1832 48.514 68.3967 48.3325 69.016C48.1083 69.742 47.489 70.105 46.763 70.1157C45.9836 70.1157 45.3536 69.742 45.1187 68.9733C44.9372 68.3967 44.5529 68.1832 44.0404 68.0017C40.8053 66.8379 38.9795 64.4996 38.3709 61.1577C38.3496 61.0296 38.3389 60.9015 38.3282 60.7734C38.2214 59.3106 38.8087 58.4031 39.9191 58.307C41.0508 58.2109 41.7769 58.9903 41.905 60.4531C42.0438 62.108 42.8766 63.3038 44.2219 64.2113C44.7344 64.553 44.9693 64.4889 44.9586 63.8163C44.9372 62.4497 44.9586 61.083 44.9586 59.7164L44.9372 59.7057ZM44.9372 46.8187C44.9372 45.5481 44.9372 44.2882 44.9372 43.0177C44.9372 42.3984 44.713 42.2276 44.1898 42.5692C42.7057 43.5515 41.8836 44.8968 41.8836 46.7119C41.8836 48.5163 42.6951 49.8829 44.1792 50.8545C44.7023 51.1962 44.9372 51.036 44.9265 50.4168C44.9159 49.221 44.9265 48.0145 44.9265 46.8187H44.9372ZM48.5353 59.8872C48.5353 61.1471 48.5353 62.4176 48.5353 63.6775C48.5353 64.3395 48.7702 64.5317 49.3468 64.1366C50.7668 63.1437 51.5889 61.8304 51.5783 60.058C51.5783 58.2643 50.7882 56.8977 49.2934 55.9154C48.6528 55.4883 48.5247 55.7873 48.5353 56.3958C48.546 57.5596 48.5353 58.7234 48.5353 59.8979V59.8872Z" fill="#727272"/>
</g>
<defs>
<clipPath id="clip0_148_207">
<rect width="100" height="100" fill="white"/>
</clipPath>
</defs>
</svg>
