<?xml version="1.0" encoding="utf-8"?>
<!-- Generator: Adobe Illustrator 24.0.1, SVG Export Plug-In . SVG Version: 6.00 Build 0)  -->
<svg version="1.1" id="Layer_1" xmlns="http://www.w3.org/2000/svg" xmlns:xlink="http://www.w3.org/1999/xlink" x="0px" y="0px"
	 viewBox="0 0 52.6 52.6" style="enable-background:new 0 0 52.6 52.6;" xml:space="preserve">
<style type="text/css">
	.st0{fill:none;}
	.st1{clip-path:url(#SVGID_2_);}
	.st2{fill:#FFFFFF;}
</style>
<g>
	<rect class="st0" width="52.6" height="52.6"/>
	<g>
		<g>
			<g>
				<defs>
					<rect id="SVGID_1_" x="11.6" y="12.1" width="29.4" height="28.4"/>
				</defs>
				<clipPath id="SVGID_2_">
					<use xlink:href="#SVGID_1_"  style="overflow:visible;"/>
				</clipPath>
				<g class="st1">
					<path class="st2" d="M34.9,12.1H17.7c-1.6,0-3.2,0.6-4.3,1.8c-1.2,1.2-1.8,2.7-1.8,4.4v16.1c0,1.6,0.6,3.2,1.8,4.3
						c1.1,1.2,2.7,1.8,4.3,1.8h17.2c1.6,0,3.2-0.6,4.3-1.8c1.1-1.2,1.8-2.7,1.8-4.3V18.3c0-1.6-0.6-3.2-1.8-4.3
						C38.1,12.7,36.5,12.1,34.9,12.1z M24.4,30.7c0.8,0,1.7-0.2,2.2-0.4l0.2-0.1l0.4,1.9l-0.1,0.1c-0.5,0.2-1.5,0.5-3,0.5
						c-3.6,0-5.9-2.3-5.9-5.8c0-3.6,2.5-6.1,6.2-6.1c1.3,0,2.4,0.3,2.8,0.5l0.1,0.1l-0.5,1.9l-0.2-0.1c-0.7-0.3-1.4-0.4-2.1-0.4
						c-2.4,0-3.8,1.6-3.8,4C20.6,29.3,22,30.7,24.4,30.7L24.4,30.7z M33.3,22.3l-0.2-0.1c-0.3,0-0.5-0.1-0.8-0.1
						c-1,0-1.2,0.9-1.2,1.7v0.3h1.8v1.8h-1.8v6.7h-2.4v-6.7h-1.1v-1.8h1.1v-0.2c0-1.2,0.4-2.3,1-2.9c0.6-0.5,1.4-0.9,2.3-0.8
						c0.5,0,0.9,0.1,1.4,0.2l0.1,0.1L33.3,22.3z"/>
				</g>
			</g>
		</g>
	</g>
</g>
</svg>
