<svg width="231" height="127" viewBox="0 0 231 127" fill="none" xmlns="http://www.w3.org/2000/svg">
<g clip-path="url(#clip0_518_1927)">
<g clip-path="url(#clip1_518_1927)">
<path d="M91.5725 67.7566H88.6863C88.3559 65.7994 88.5652 63.8606 88.5285 61.9365C88.4917 60.0565 88.5211 58.1764 88.5211 56.1826H76.5761C76.1869 60.0344 76.7781 63.8239 76.1905 67.6905H73.2309C72.9996 63.7468 73.1611 59.7994 73.1281 55.8558C73.0987 51.9598 73.1207 48.0639 73.1207 44.0504C74.2223 43.9476 75.111 43.8631 76.2199 43.7603C76.6128 46.6649 76.3411 49.562 76.4953 52.3821C77.8613 52.8227 85.679 52.9402 88.4109 52.5657C88.701 49.7199 88.3522 46.8007 88.5982 43.8264C89.5493 43.8778 90.3865 43.9256 91.4293 43.9807C91.7341 47.9684 91.5211 51.9194 91.5615 55.8594C91.5982 59.7554 91.5689 63.655 91.5689 67.7529L91.5725 67.7566Z" fill="white"/>
<path d="M122.061 67.9916C120.974 67.9402 120.078 67.8961 118.936 67.841C118.143 65.4212 117.324 62.9023 116.491 60.3906C115.668 57.9157 114.688 55.5033 113.979 52.9806C113.256 50.4066 112.242 47.9133 111.049 45.3393C108.578 52.6612 106.106 59.983 103.543 67.584C102.713 68.1972 101.447 67.6207 100.11 68.043C100.176 67.4518 100.154 67.0405 100.275 66.6844C101.23 63.9157 102.225 61.1617 103.18 58.3894C104.09 55.7383 104.953 53.0724 105.857 50.4176C106.407 48.8056 107.01 47.212 107.571 45.6037C108.53 42.846 109.466 40.0774 110.436 37.3234C110.59 36.8864 110.862 36.4935 111.269 35.7188C115.037 46.4556 118.687 56.8472 122.315 67.2462C122.373 67.4188 122.171 67.6831 122.061 67.9916Z" fill="white"/>
<path d="M155.542 64.8337H164.851V67.4995C163.569 67.8961 154.955 68.0136 152.451 67.6831C151.973 66.2694 151.962 46.5143 152.436 44.19C153.717 43.8448 162.233 43.7456 164.803 44.0725V46.8558H155.535C155.329 48.9965 155.403 50.9133 155.484 53.0577H164.822V55.9512C163.327 56.267 161.752 56.0651 160.195 56.1018C158.682 56.1385 157.169 56.1091 155.535 56.1091V64.8374L155.542 64.8337Z" fill="white"/>
<path d="M62.013 45.9194V50.0063C59.6519 47.3074 56.9346 46.1141 53.7877 46.2426C51.4743 46.3344 49.396 47.3038 47.7619 48.9855C44.0973 52.7603 44.0312 58.3894 46.8806 61.8521C48.8341 64.2278 51.3788 65.5461 54.5111 65.535C57.5882 65.524 59.8758 63.8643 62.0827 61.4555V65.95C54.5074 70.6134 47.604 68.4799 43.6823 62.9647C40.5024 58.4922 40.5942 51.1006 45.8194 46.3197C49.6273 42.835 57.9297 42.1116 62.0166 45.9194H62.013Z" fill="white"/>
<path d="M180.009 67.808V47.0284H173.789C173.08 46.1287 173.41 45.174 173.469 44.2597C174.795 43.8191 187.801 43.7383 189.806 44.1679V46.6685C187.746 47.3478 185.517 46.3674 183.358 47.3992V67.808H180.009Z" fill="white"/>
<path d="M142.499 64.6905V67.7309C138.633 67.9292 134.873 67.7933 130.9 67.8227C130.569 63.7762 130.801 59.8325 130.756 55.8998C130.712 52.0039 130.745 48.1043 130.745 44.0578H133.643C133.683 44.6563 133.764 45.2952 133.764 45.9341C133.775 51.4935 133.771 57.0528 133.771 62.6122C133.771 63.2658 133.771 63.9231 133.771 64.6905H142.499Z" fill="white"/>
<path d="M92.7856 84.1418V86.9049H89.0952V84.1418H88.1772V90.5677H89.0952V87.7036H92.7856V90.5677H93.7036V84.1418H92.7856Z" fill="white"/>
<path d="M102.2 90.6412C104.155 90.6412 105.606 89.2458 105.606 87.3548C105.606 85.4637 104.155 84.0684 102.2 84.0684C100.226 84.0684 98.7758 85.4729 98.7758 87.3548C98.7758 89.2366 100.226 90.6412 102.2 90.6412ZM102.2 89.8242C100.759 89.8242 99.6938 88.7776 99.6938 87.3548C99.6938 85.9319 100.759 84.8854 102.2 84.8854C103.623 84.8854 104.688 85.9319 104.688 87.3548C104.688 88.7776 103.623 89.8242 102.2 89.8242Z" fill="white"/>
<path d="M111.867 90.5677H112.776V84.9404H114.979V84.1418H109.664V84.9404H111.867V90.5677Z" fill="white"/>
<path d="M120.569 89.7691V87.6944H123.791V86.9141H120.569V84.9404H124.186V84.1418H119.651V90.5677H124.314V89.7691H120.569Z" fill="white"/>
<path d="M129.473 90.5677H133.87V89.7691H130.391V84.1418H129.473V90.5677Z" fill="white"/>
<path d="M140.405 90.6412C142.104 90.6412 142.893 89.7966 142.893 88.8144C142.893 86.4551 139.001 87.4374 139.001 85.8676C139.001 85.3076 139.469 84.8487 140.562 84.8487C141.131 84.8487 141.764 85.0139 142.324 85.3719L142.627 84.6375C142.095 84.2703 141.314 84.0684 140.562 84.0684C138.872 84.0684 138.101 84.9129 138.101 85.9043C138.101 88.2911 141.994 87.2997 141.994 88.8694C141.994 89.4294 141.516 89.8609 140.405 89.8609C139.579 89.8609 138.762 89.5488 138.285 89.1173L137.945 89.8333C138.459 90.3107 139.423 90.6412 140.405 90.6412Z" fill="white"/>
</g>
</g>
<defs>
<clipPath id="clip0_518_1927">
<rect width="231" height="127" fill="white"/>
</clipPath>
<clipPath id="clip1_518_1927">
<rect width="148.349" height="55.4466" fill="white" transform="translate(41.5454 35.459)"/>
</clipPath>
</defs>
</svg>
