<svg width="231" height="127" viewBox="0 0 231 127" fill="none" xmlns="http://www.w3.org/2000/svg">
<g clip-path="url(#clip0_518_1665)">
<g clip-path="url(#clip1_518_1665)">
<path d="M170.87 65.7782H167.019C167.32 63.4991 167.627 61.273 167.904 59.0411C168.111 57.3853 168.315 55.7275 168.439 54.0659C168.473 53.6254 168.327 52.9509 168.032 52.7719C167.753 52.6048 167.124 52.8702 166.722 53.0865C165.951 53.5034 165.236 54.0187 164.506 54.4867C167 59.3242 163.78 65.6563 157.779 66.8932C154.682 67.5323 151.753 67.3908 149.594 64.6691C148.542 65.2827 147.585 65.9061 146.566 66.4095C145.962 66.7064 145.274 66.8972 144.603 66.9876C141.99 67.3357 140.279 65.4675 140.554 62.5552C140.804 59.9161 141.146 57.285 141.374 54.644C141.42 54.115 141.292 53.2852 140.954 53.0846C140.541 52.8388 139.66 52.8938 139.258 53.1927C137.715 54.3412 136.265 55.6213 134.826 56.8996C134.606 57.0942 134.553 57.5446 134.529 57.8828C134.374 60.2033 134.25 62.5257 134.108 64.8481C134.089 65.1667 134.03 65.4833 133.982 65.8451H130.366C130.472 64.0635 130.563 62.3448 130.681 60.628C130.826 58.5042 130.995 56.3824 131.151 54.2586C131.241 53.0158 130.576 52.4376 129.473 52.9922C128.437 53.5133 127.538 54.3077 126.588 54.996C125.112 56.0638 124.305 57.4207 124.203 59.336C124.087 61.4834 123.633 63.6112 123.314 65.8235H119.655C120.075 62.4529 120.451 59.1394 120.915 55.8396C121.23 53.5959 120.689 53.0629 118.483 53.645C118.388 53.6706 118.288 53.6804 118.195 53.7099C117.095 54.0495 116.656 54.7784 116.876 55.8967C117.279 57.9575 117.273 59.9968 116.514 61.9869C115.031 65.8766 110.329 67.9532 106.456 66.4272C105.167 65.9198 104.263 65.0388 103.929 63.5089C103.197 64.0517 102.595 64.6101 101.895 64.9916C100.757 65.615 99.6003 66.2718 98.3713 66.6514C96.1629 67.3298 94.2495 66.1204 94.0765 63.8078C93.9369 61.9377 94.2161 60.0302 94.3616 58.1443C94.4639 56.8071 94.6802 55.4798 94.7982 54.1425C94.9162 52.8112 93.9919 52.1269 92.8848 52.8919C91.1739 54.0737 89.6185 55.4857 88.0374 56.8484C87.8132 57.0411 87.7877 57.5033 87.7405 57.8513C87.3944 60.4137 87.0679 62.978 86.7238 65.6229H83.0838C83.135 65.1175 83.1822 64.6416 83.249 63.9691C82.5745 64.4292 82.0514 64.8363 81.4811 65.1608C80.6611 65.6308 79.845 66.144 78.964 66.4567C75.7154 67.613 73.3773 65.7625 73.7017 62.3153C73.9436 59.7411 74.2818 57.1749 74.4923 54.5968C74.5395 54.0088 74.4215 53.12 74.0439 52.8683C73.6604 52.6107 72.7185 52.768 72.278 53.0944C70.7559 54.2153 69.3243 55.464 67.9124 56.7265C67.641 56.9684 67.5545 57.4797 67.4955 57.8828C67.1396 60.278 66.8308 62.6791 66.4572 65.0703C66.4159 65.3318 66.0836 65.735 65.8633 65.7527C64.8604 65.8254 63.8477 65.7841 62.774 65.7841V64.3073C61.6118 64.9975 60.5617 65.7212 59.427 66.2679C58.1409 66.8893 56.7447 67.2728 55.378 66.5196C54.0585 65.792 53.4292 64.6023 53.5748 63.0802C53.7871 60.8306 54.0251 58.5848 54.2788 56.3411C54.4145 55.1514 54.3574 54.9036 53.5551 54.1779C54.1411 53.1141 55.0378 52.5831 55.9778 52.7463C56.9276 52.9096 57.785 53.883 57.8066 55.1415C57.8302 56.5751 57.6533 58.0106 57.551 59.4462C57.4546 60.7834 57.2501 62.1206 57.256 63.4558C57.2639 65.1804 58.3435 65.8235 59.8773 65.0644C60.7819 64.616 61.6393 64.0595 62.4731 63.4873C62.7288 63.3123 62.9608 62.9426 63.0021 62.6338C63.3482 60.1049 63.6766 57.5721 63.946 55.0353C64.0345 54.1976 64.0404 53.293 62.9903 52.9253C63.5586 51.6943 65.1672 50.7228 66.3432 51.1653C68.404 51.9401 67.7453 53.824 67.8101 55.6036C68.5849 54.9213 69.2123 54.2723 69.934 53.7571C71.1768 52.8683 72.4668 52.0404 73.7666 51.2361C74.0813 51.0414 74.5119 50.9863 74.8954 50.9549C77.0861 50.7779 78.2129 51.8398 78.0437 54.0187C77.8746 56.2054 77.5816 58.3803 77.3928 60.5651C77.2965 61.6663 77.1863 62.7911 77.3063 63.8806C77.4479 65.1824 78.4095 65.6838 79.5835 65.1116C80.6946 64.5689 81.7388 63.8845 82.7712 63.1982C83.0189 63.033 83.1881 62.6279 83.2353 62.3094C83.5696 60.0105 83.8645 57.7058 84.1713 55.4031C84.3522 54.0364 84.0494 53.3383 83.0484 52.9646C83.2844 52.6696 83.4732 52.3589 83.7328 52.1269C84.6295 51.3226 85.7052 50.7327 86.8654 51.2361C88.0413 51.7454 88.1161 52.9764 88.1023 54.1209C88.0964 54.5614 88.0413 54.9999 87.9902 55.6862C88.6195 55.1297 89.0501 54.6951 89.5359 54.3274C90.8357 53.3442 92.1277 52.3452 93.4905 51.4524C93.9821 51.1299 94.6586 50.9903 95.2603 50.9568C97.3585 50.8408 98.4893 52.0699 98.2828 54.1956C98.0271 56.8347 97.74 59.4698 97.4667 62.1068C97.4569 62.2051 97.4392 62.3015 97.4333 62.3998C97.3703 63.3968 97.3153 64.4528 98.2395 65.0841C99.1913 65.735 100.049 65.0526 100.875 64.6121C101.364 64.3506 101.824 64.0359 102.292 63.737C103.183 63.1687 103.824 62.5021 104.168 61.393C104.692 59.7136 106.027 58.5416 107.496 57.6429C109.167 56.6203 110.935 55.757 112.638 54.7856C112.878 54.6499 113.187 54.2389 113.134 54.0482C112.384 51.3855 111.102 49.0749 108.534 47.7397C107.429 47.1655 106.249 46.9197 105.024 47.368C104.253 47.6492 103.789 48.1507 103.759 49.0415C103.72 50.1408 103.118 50.89 102.231 51.0473C101.331 51.2086 100.707 50.7917 100.308 50.0188C99.8737 49.1772 100.141 48.1723 101.01 47.4978C103.461 45.5962 106.192 45.6808 108.947 46.5598C112.017 47.5391 114.097 49.7022 115.562 52.5084C115.726 52.8211 115.891 53.1337 116.036 53.409C117.81 52.8112 119.499 52.2193 121.204 51.6785C121.759 51.5035 122.353 51.4386 122.935 51.3639C123.829 51.2498 124.64 51.8044 124.854 52.823C125.037 53.7001 125.035 54.6184 125.123 55.639C125.536 55.2811 125.924 54.9016 126.354 54.5771C127.554 53.6726 128.738 52.7444 129.992 51.9224C130.49 51.596 131.143 51.419 131.744 51.356C133.953 51.1319 134.985 52.1269 134.948 54.3412C134.94 54.7935 134.948 55.2457 134.948 55.8908C135.487 55.4365 135.906 55.0491 136.358 54.7089C137.634 53.7473 138.914 52.7896 140.216 51.8634C140.501 51.6608 140.869 51.5606 141.211 51.4563C143.644 50.715 145.288 51.9145 145.134 54.4277C144.993 56.7462 144.674 59.0529 144.468 61.3674C144.387 62.2779 144.306 63.2041 144.385 64.1087C144.503 65.438 145.451 65.9592 146.698 65.4911C146.851 65.4341 147.004 65.3731 147.144 65.2905C147.763 64.9248 148.613 64.6829 148.916 64.1382C149.152 63.7154 148.709 62.9091 148.554 62.2759C147.706 58.8346 148.914 55.6489 151.974 53.4248C154.982 51.2381 160.707 50.1191 164.054 53.8771C165.456 53.0118 166.864 52.1348 168.282 51.2774C168.644 51.0591 169.029 50.8664 169.422 50.713C171.117 50.0503 172.258 50.713 172.47 52.532C172.559 53.2989 172.486 54.0855 172.486 55.0648C173.585 54.1406 174.519 53.297 175.515 52.532C176.264 51.9558 177.058 51.4229 177.892 50.9824C178.395 50.7169 179.005 50.5793 179.579 50.5301C181.717 50.3492 182.834 51.4131 182.674 53.5388C182.511 55.7256 182.265 57.9064 182.01 60.0853C181.62 63.3968 181.402 66.6887 182.912 69.8135C184.781 73.6756 188.023 75.5792 192.153 76.0472C193.046 76.1495 194.041 75.8506 194.912 75.5281C196.32 75.0089 196.603 74.1024 195.978 72.716C195.457 71.5577 195.61 70.4742 196.414 69.8528C197.126 69.3041 197.907 69.2058 198.711 69.6404C199.622 70.1301 200.019 70.9265 199.877 71.9294C199.614 73.7995 198.548 75.1112 196.859 75.884C193.874 77.2507 190.837 76.8299 187.833 75.9725C181.298 74.1063 177.487 68.4251 178.181 61.6565C178.443 59.1158 178.753 56.581 178.952 54.0364C178.997 53.4523 178.852 52.5674 178.468 52.3176C178.073 52.0581 177.129 52.1977 176.692 52.5222C175.202 53.6313 173.813 54.8819 172.429 56.1248C172.203 56.3293 172.144 56.7698 172.095 57.1139C171.676 59.9889 171.279 62.8678 170.87 65.7861V65.7782ZM161.25 60.5513C161.265 58.1207 160.801 56.0225 160.001 54.6873C159.002 53.0217 157.476 52.3471 155.6 52.5261C153.59 52.7188 152.31 53.7925 151.869 55.7374C151.301 58.2525 151.453 60.7558 152.505 63.1372C153.346 65.0408 155.1 66.0299 157.085 65.8431C159.212 65.6406 160.443 64.5453 160.974 62.3133C161.134 61.6486 161.189 60.9584 161.25 60.5513V60.5513ZM113.509 55.2005C112.825 55.5014 112.207 55.7157 111.645 56.0264C109.423 57.2575 107.429 58.7481 106.739 61.3576C106.369 62.7538 106.369 64.1913 107.57 65.2768C108.611 66.2187 109.852 66.1125 110.965 65.5187C111.649 65.1549 112.314 64.5354 112.701 63.8648C114.262 61.1531 114.113 58.2427 113.507 55.1985L113.509 55.2005Z" fill="#EEEEEE"/>
<path d="M50.2776 65.3895C50.5509 66.0954 50.1458 66.3648 49.6405 66.6362C44.738 69.2811 37.8356 67.9852 33.8987 63.6668C29.838 59.2147 29.2441 52.8984 32.473 47.3548C35.5329 42.1004 40.2662 39.422 46.2227 38.7298C48.9718 38.4113 51.6561 38.6335 54.1988 39.7819C56.7493 40.9343 58.3107 42.8457 58.4995 45.7305C58.5939 47.1739 57.6499 48.3106 56.1063 48.5977C54.8162 48.8376 53.3768 47.992 53.0208 46.7354C52.8045 45.9704 52.9088 45.2389 53.4967 44.6391C53.6344 44.4995 53.776 44.3619 53.9195 44.2301C55.772 42.5311 55.4986 41.1801 53.1211 40.2775C48.1007 38.3719 41.7942 40.3011 38.7796 44.8849C35.8043 49.4118 34.5143 54.3614 36.0461 59.7437C37.9458 66.4199 44.3939 67.8358 48.3504 66.2803C48.9876 66.0305 49.5952 65.708 50.2776 65.3914V65.3895Z" fill="#EEEEEE"/>
<path d="M110.082 83.8854C110.607 84.4891 111.094 85.0516 111.781 85.8401C112.066 85.028 112.259 84.4065 112.508 83.8087C112.599 83.5905 112.829 83.4292 112.994 83.2424C113.09 83.4784 113.307 83.7419 113.261 83.9464C113.118 84.613 112.966 85.3013 112.66 85.903C112.217 86.7703 112.953 86.9925 113.379 87.2167C113.806 87.4408 114.386 87.37 114.898 87.429C114.927 87.1596 114.929 86.8823 114.994 86.6208C115.063 86.3396 115.163 86.0545 115.316 85.8145C115.354 85.7575 115.798 85.8401 115.812 85.907C115.867 86.1901 115.926 86.5343 115.812 86.7762C115.271 87.9187 113.755 88.3258 112.614 87.5215C111.926 87.0357 111.492 87.0652 110.851 87.5372C110.459 87.8263 109.883 87.9619 109.384 87.9836C108.314 88.0268 107.388 87.4192 107.124 86.5736C106.823 85.6041 107.242 84.8588 107.952 84.2296C108.097 84.1017 108.241 83.97 108.377 83.8461C107.521 82.0428 107.521 81.4077 108.363 80.9042C109.258 80.3694 110.634 80.5385 111.157 81.2484C111.659 81.9307 111.389 82.6308 110.084 83.8815L110.082 83.8854ZM109.419 84.2453C108.009 85.1577 107.661 85.8814 108.166 86.5893C108.744 87.3995 110.068 87.2973 111.205 86.3258C111.114 86.2039 111.031 86.0702 110.929 85.9542C110.418 85.3701 109.901 84.792 109.417 84.2453H109.419ZM109.307 83.2424L109.838 83.2955C110.139 82.7999 110.487 82.3221 110.695 81.7911C110.729 81.7026 110.152 81.2051 109.857 81.2051C109.507 81.2051 108.86 81.5374 108.86 81.7243C108.86 82.2316 109.138 82.737 109.305 83.2424H109.307Z" fill="#EEEEEE"/>
<path d="M124.726 87.7257C124.024 87.9912 123.715 87.7906 123.637 87.2085C123.615 87.0473 123.589 86.8841 123.574 86.7228C123.385 84.6659 122.797 84.2568 120.585 84.7229V87.7867C120.262 87.8103 120.018 87.828 119.706 87.8496V80.9059C120.842 80.9059 122.02 80.7781 123.147 80.9649C123.646 81.0475 124.252 81.6847 124.441 82.2038C124.757 83.075 124.207 83.7613 123.692 84.0464C124.051 85.3305 124.384 86.5085 124.726 87.7277V87.7257ZM120.606 83.7475C121.369 83.7475 122.048 83.8635 122.655 83.7043C123.017 83.6099 123.517 83.075 123.505 82.7564C123.489 82.369 123.062 81.7712 122.702 81.6729C122.052 81.4959 121.318 81.6237 120.606 81.6237V83.7475Z" fill="#EEEEEE"/>
<path d="M150.273 84.2283C150.716 84.6347 151.114 85.8028 151.467 87.7326C150.899 87.9725 150.553 87.8624 150.492 87.18C150.448 86.6923 150.476 86.1594 150.279 85.7346C150.086 85.3197 149.711 84.8104 149.314 84.6983C147.707 84.2382 147.451 84.4781 147.451 86.124C147.451 86.6432 147.451 87.1643 147.239 87.9174C146.997 87.7306 146.549 87.5477 146.545 87.355C146.496 85.2096 146.513 83.0622 146.513 80.8342C147.67 80.8342 148.712 80.7732 149.742 80.8558C150.486 80.9148 151.113 81.2786 151.308 82.1143C151.504 82.954 151.251 83.4909 150.273 84.2303V84.2283ZM147.532 81.5795V83.7721C148.159 83.7721 148.708 83.7918 149.255 83.7662C149.915 83.7367 150.393 83.4437 150.419 82.722C150.446 81.9374 149.941 81.6306 149.247 81.5854C148.704 81.55 148.157 81.5775 147.532 81.5775V81.5795Z" fill="#EEEEEE"/>
<path d="M79.5192 84.3474C79.5054 86.7879 78.0856 88.1133 75.7514 87.8615C74.0681 87.6806 73.0396 86.369 73.018 84.3809C72.9924 82.0663 74.192 80.6917 76.2568 80.6721C78.3157 80.6524 79.5329 82.0231 79.5192 84.3474ZM78.5379 84.3002C78.5418 82.672 78.1151 81.8284 77.1102 81.4705C75.7376 80.9848 74.4574 81.675 74.0976 83.0968C73.5824 85.1301 74.3041 86.8685 75.7652 87.1143C77.5527 87.4152 78.534 86.4201 78.5379 84.2983V84.3002Z" fill="#EEEEEE"/>
<path d="M98.3731 85.6044C98.7369 85.8778 99.0397 85.9977 99.1656 86.216C99.7103 87.1776 101.258 87.5473 102.094 86.8138C102.343 86.5936 102.55 86.1039 102.481 85.805C102.404 85.4668 102.05 85.0754 101.72 84.9358C101.067 84.6605 100.338 84.5681 99.6552 84.3498C98.8313 84.0843 98.3318 83.5514 98.3652 82.6154C98.3987 81.6518 98.9532 81.0304 99.8067 80.877C100.613 80.7315 101.508 80.7374 102.292 80.9478C102.772 81.0756 103.116 81.7127 103.521 82.1198C103.433 82.2555 103.344 82.3912 103.254 82.5269C102.965 82.401 102.564 82.3538 102.402 82.1336C101.755 81.2388 100.916 81.2309 100.052 81.5967C99.7378 81.7304 99.3799 82.1906 99.374 82.5092C99.3681 82.814 99.728 83.2702 100.039 83.4098C100.686 83.7009 101.411 83.8169 102.098 84.0234C102.988 84.2908 103.612 84.806 103.602 85.8227C103.592 86.8453 103.026 87.5335 102.082 87.7321C101.303 87.8954 100.442 87.9347 99.669 87.7774C98.7683 87.5945 98.2492 86.918 98.3692 85.6064L98.3731 85.6044Z" fill="#EEEEEE"/>
<path d="M141.764 87.8969C139.77 87.8851 138.5 86.4633 138.533 84.2805C138.569 82.0761 139.857 80.6563 141.811 80.672C143.827 80.6877 145.066 82.0485 145.082 84.2648C145.099 86.5243 143.833 87.9087 141.764 87.8969ZM144.089 84.367C144.134 82.727 143.609 81.7398 142.523 81.4271C141.231 81.0555 139.998 81.7044 139.66 82.9354C139.133 84.8488 139.755 86.715 141.039 87.0768C141.131 87.1024 141.231 87.1063 141.328 87.1221C143.1 87.3777 144.032 86.4495 144.089 84.367V84.367Z" fill="#EEEEEE"/>
<path d="M132.052 85.5733C132.479 85.9017 132.723 86.1043 132.98 86.2871C133.401 86.5841 133.828 87.0954 134.261 87.1072C134.882 87.1229 135.643 86.9223 136.105 86.5329C136.687 86.0413 136.274 85.1603 135.431 84.9047C134.776 84.7061 134.097 84.5861 133.448 84.3698C132.589 84.0847 132.078 83.5105 132.143 82.539C132.208 81.5794 132.79 81.0052 133.655 80.8577C134.406 80.7318 135.22 80.7338 135.964 80.8891C136.646 81.0307 137.165 81.5282 137.039 82.6393C136.648 82.4092 136.306 82.303 136.107 82.071C135.466 81.3218 134.235 81.1408 133.462 81.7406C132.8 82.2539 132.921 83.129 133.738 83.4279C134.379 83.6619 135.057 83.7917 135.714 83.9863C136.892 84.3344 137.358 84.8968 137.32 85.8919C137.281 86.9341 136.632 87.6676 135.478 87.8407C134.904 87.9272 134.3 87.9272 133.724 87.8544C132.617 87.7148 132.149 87.1268 132.05 85.5753L132.052 85.5733Z" fill="#EEEEEE"/>
<path d="M158.612 85.5685C159.031 85.9087 159.377 86.0601 159.511 86.3217C160.012 87.2931 161.965 87.5035 162.63 86.6206C163.115 85.9756 162.858 85.1831 162.032 84.9196C161.41 84.721 160.752 84.6403 160.136 84.4319C159.283 84.1428 158.588 83.6453 158.661 82.6109C158.732 81.5844 159.393 80.9925 160.341 80.8372C161.031 80.7251 161.776 80.7329 162.46 80.8726C163.164 81.0161 163.648 81.5156 163.648 82.6404C163.196 82.3926 162.822 82.2943 162.614 82.0544C161.987 81.3229 160.716 81.1459 159.957 81.7476C159.32 82.253 159.401 83.0829 160.171 83.3818C160.868 83.6532 161.617 83.7869 162.331 84.015C163.196 84.2903 163.861 84.7485 163.845 85.8006C163.829 86.831 163.31 87.5212 162.35 87.7159C161.57 87.8752 160.714 87.9263 159.937 87.7828C159.021 87.6117 158.51 86.9333 158.612 85.5685V85.5685Z" fill="#EEEEEE"/>
<path d="M67.1382 83.7354H70.6209V80.9056C70.7329 80.8407 70.8431 80.7778 70.9552 80.7129C71.1518 80.943 71.5156 81.1691 71.5195 81.4051C71.5648 83.4955 71.5451 85.5878 71.5451 87.7529C71.256 87.7883 71.0161 87.8178 70.6582 87.8611V84.7265H67.1382C67.1382 85.5721 67.1657 86.3823 67.1205 87.1885C67.1087 87.4088 66.8786 87.6172 66.7488 87.8316C66.5915 87.6113 66.3025 87.395 66.2985 87.1708C66.2631 85.2732 66.2631 83.3735 66.2985 81.4779C66.3025 81.2556 66.5955 81.0374 66.7528 80.8171C66.8806 81.0354 67.1048 81.2458 67.1205 81.472C67.1677 82.1838 67.1382 82.9016 67.1382 83.7354V83.7354Z" fill="#EEEEEE"/>
<path d="M127.13 84.7053V86.9195C128.308 87.0336 129.45 87.1437 130.589 87.2774C130.606 87.2794 130.591 87.5744 130.591 87.7867H126.231V80.8077C127.556 80.8077 128.825 80.7939 130.093 80.8254C130.239 80.8293 130.378 81.0771 130.52 81.2108C130.361 81.3288 130.209 81.5412 130.044 81.551C129.358 81.5903 128.665 81.6179 127.981 81.5589C127.216 81.494 126.974 81.8106 127.065 82.5205C127.098 82.7781 126.992 83.0829 127.092 83.2973C127.214 83.5509 127.47 83.7613 127.708 83.9305C127.816 84.0091 128.038 83.9069 128.188 83.9521C128.882 84.1586 129.725 83.49 130.309 84.3159C129.586 84.426 128.862 84.544 128.135 84.6423C127.82 84.6836 127.499 84.6817 127.126 84.7013L127.13 84.7053Z" fill="#EEEEEE"/>
<path d="M91.3524 81.1209C91.1439 81.2703 90.9433 81.5319 90.727 81.5476C89.9778 81.6027 89.2207 81.5948 88.4695 81.5633C87.911 81.5398 87.6868 81.7639 87.7399 82.3086C87.7596 82.5033 87.7655 82.7039 87.7399 82.8966C87.6278 83.6872 87.9031 84.0372 88.7527 83.9585C89.494 83.8897 90.2472 83.9448 91.0043 83.9448C90.9584 84.4115 90.5205 84.6455 89.6907 84.6468C89.0791 84.6468 88.4675 84.6468 87.8029 84.6468V86.9161C88.9847 87.0321 90.1253 87.1423 91.2639 87.274C91.2816 87.276 91.2658 87.571 91.2658 87.7833H86.9946V80.8633H91.1164C91.195 80.9478 91.2757 81.0344 91.3543 81.1189L91.3524 81.1209Z" fill="#EEEEEE"/>
<path d="M83.6167 81.5663V87.7863C83.2864 87.8079 83.0425 87.8236 82.6768 87.8453V81.5663C81.9846 81.5663 81.4044 81.5978 80.8302 81.5486C80.6454 81.5329 80.4782 81.3067 80.3052 81.175C80.4861 81.0491 80.6631 80.819 80.846 80.8171C82.3798 80.7895 83.9137 80.7895 85.4475 80.821C85.6107 80.8249 85.77 81.0924 85.9293 81.2359C85.7661 81.346 85.6107 81.5368 85.4416 81.5486C84.8655 81.5879 84.2873 81.5643 83.6187 81.5643L83.6167 81.5663Z" fill="#EEEEEE"/>
<path d="M155.431 87.7966H154.452V81.5746C153.821 81.5746 153.276 81.61 152.739 81.5589C152.511 81.5373 152.301 81.3347 152.083 81.2147C152.285 81.0791 152.486 80.8293 152.69 80.8254C154.322 80.7939 155.955 80.8077 157.577 80.8077C157.709 81.5628 157.709 81.5648 156.895 81.5746C156.44 81.5805 155.986 81.5746 155.431 81.5746V87.7966V87.7966Z" fill="#EEEEEE"/>
<path d="M93.9921 86.9156C95.1897 87.0375 96.2359 87.1417 97.2781 87.2715C97.3037 87.2755 97.2958 87.5685 97.3056 87.7848H93.1426V80.9571C93.9626 80.7743 93.9842 80.7743 93.9882 81.5038C94.0019 83.2953 93.9921 85.0848 93.9921 86.9156V86.9156Z" fill="#EEEEEE"/>
</g>
</g>
<defs>
<clipPath id="clip0_518_1665">
<rect width="231" height="127" fill="white"/>
</clipPath>
<clipPath id="clip1_518_1665">
<rect width="170.34" height="49.98" fill="white" transform="translate(30.3301 38.5078)"/>
</clipPath>
</defs>
</svg>
