<svg width="231" height="127" viewBox="0 0 231 127" fill="none" xmlns="http://www.w3.org/2000/svg">
<g clip-path="url(#clip0_503_4179)">
<g clip-path="url(#clip1_503_4179)">
<path d="M98.9739 104.329C99.4653 103.983 99.612 103.477 99.6128 102.914C99.617 101.112 99.6111 99.3082 99.6145 97.5056C99.6145 97.1249 99.4812 96.8033 99.2454 96.5151C99.1955 96.4535 99.1047 96.4002 99.1413 96.3069C99.1788 96.2111 99.2813 96.2344 99.3596 96.2336C100.4 96.2311 101.44 96.2336 102.481 96.2311C102.795 96.2311 102.775 96.3718 102.612 96.5493C102.358 96.8242 102.298 97.1482 102.298 97.5089C102.305 99.3257 102.303 101.142 102.3 102.959C102.3 103.329 102.36 103.676 102.588 103.98C102.778 104.232 102.971 104.27 103.195 104.01C103.429 103.738 103.575 103.436 103.603 103.075C103.728 101.403 103.974 99.7447 104.173 98.0812C104.238 97.5272 104.203 96.9991 103.878 96.526C103.69 96.2527 103.784 96.1628 104.082 96.1636C104.928 96.1678 105.774 96.1744 106.62 96.1603C106.93 96.1553 107.057 96.3185 107.166 96.5693C107.688 97.7788 108.219 98.9841 108.75 100.189C108.815 100.336 108.849 100.505 109.022 100.65C109.284 99.9138 109.539 99.2016 109.791 98.4877C110.018 97.8471 110.251 97.209 110.463 96.5634C110.553 96.2869 110.698 96.1578 111.001 96.1628C111.86 96.1769 112.721 96.1703 113.581 96.1661C113.889 96.1644 114.01 96.2436 113.792 96.5409C113.458 96.9958 113.522 97.5264 113.578 98.0295C113.754 99.6122 113.964 101.192 114.159 102.773C114.224 103.289 114.429 103.725 114.838 104.063C115.107 104.286 115.316 104.237 115.492 103.961C115.685 103.661 115.757 103.319 115.759 102.97C115.765 101.112 115.762 99.2532 115.762 97.3948C115.762 97.0416 115.606 96.7534 115.382 96.496C115.227 96.316 115.259 96.2319 115.497 96.2319C116.552 96.2319 117.606 96.2319 118.66 96.2319C118.939 96.2319 118.944 96.3727 118.786 96.5326C118.483 96.8383 118.451 97.2082 118.453 97.608C118.46 99.3557 118.469 101.103 118.449 102.85C118.443 103.463 118.599 103.968 119.117 104.327H111.043C111.309 103.968 111.685 103.669 111.605 103.137C111.431 101.983 111.271 100.827 111.106 99.6714C111.084 99.6689 111.062 99.6672 111.04 99.6647C110.514 101.219 109.988 102.773 109.462 104.327H108.797C107.853 103.934 107.2 103.28 106.857 102.295C106.64 101.671 106.331 101.077 106.06 100.471C105.924 100.165 105.783 99.8621 105.605 99.4714C105.479 100.613 105.38 101.645 105.246 102.672C105.157 103.352 105.245 103.94 105.884 104.327H98.9755L98.9739 104.329Z" fill="#EEEEEE"/>
<path d="M132.515 104.358C133.119 103.76 133.088 103.002 133.079 102.234C133.061 100.682 133.077 99.1297 133.075 97.5779C133.075 97.1289 133.049 96.6857 132.664 96.3642C132.615 96.3225 132.55 96.2684 132.596 96.1893C132.645 96.1035 132.739 96.1134 132.819 96.1143C134.081 96.1168 135.343 96.091 136.603 96.1376C137.459 96.1693 138.314 96.2892 139.113 96.6516C140.782 97.4088 141.554 98.6249 141.498 100.418C141.442 102.176 140.555 103.412 138.875 104.039C138.514 104.174 138.131 104.254 137.759 104.358H132.515V104.358ZM135.767 100.279H135.758C135.758 101.028 135.758 101.776 135.758 102.525C135.758 102.71 135.768 102.864 136.004 102.939C136.929 103.232 137.97 102.777 138.379 101.899C138.664 101.286 138.675 100.642 138.676 99.9869C138.68 98.4025 137.787 97.5495 136.203 97.6245C135.886 97.6395 135.757 97.7561 135.762 98.076C135.775 98.8107 135.767 99.5454 135.767 100.28V100.279Z" fill="#EEEEEE"/>
<path d="M165.727 90.684C165.231 92.111 164.006 92.4408 162.725 92.5949C161.662 92.7224 160.595 92.6199 159.555 92.3151C159.213 92.2151 158.999 92.0593 158.946 91.6853C158.904 91.3854 158.795 91.0955 158.727 90.7982C158.704 90.6965 158.629 90.5674 158.735 90.4883C158.815 90.4283 158.918 90.5083 159.007 90.5449C159.702 90.8273 160.41 91.0672 161.15 91.198C161.577 91.2738 162.007 91.3013 162.423 91.1505C163.028 90.9314 163.134 90.3225 162.633 89.9169C162.276 89.627 161.865 89.4254 161.433 89.2613C160.758 89.0039 160.105 88.704 159.529 88.2542C158.216 87.2304 158.378 85.4403 159.85 84.6606C161.268 83.9101 162.732 84.0076 164.219 84.3882C164.475 84.454 164.588 84.6015 164.576 84.8655C164.564 85.1146 164.568 85.3645 164.573 85.6136C164.579 85.8876 164.452 85.9518 164.206 85.871C163.824 85.746 163.443 85.6136 163.055 85.517C162.661 85.4187 162.26 85.4062 161.87 85.5611C161.611 85.6636 161.481 85.8743 161.442 86.1317C161.402 86.3941 161.594 86.5382 161.788 86.6498C161.979 86.7598 162.185 86.8456 162.39 86.9305C163.069 87.2129 163.739 87.5137 164.365 87.9018C164.993 88.2908 165.502 88.7865 165.727 89.5178V90.6832V90.684Z" fill="#EEEEEE"/>
<path d="M120.531 104.354C121.088 103.738 121.111 102.989 121.1 102.215C121.08 100.817 121.083 99.4172 121.102 98.0186C121.107 97.6513 120.989 97.5288 120.625 97.548C120.101 97.5763 119.614 97.6937 119.169 97.9736C119.101 98.0169 119.025 98.0886 118.944 98.0394C118.856 97.9861 118.902 97.8895 118.919 97.812C119.017 97.3522 119.122 96.8932 119.217 96.4326C119.263 96.206 119.392 96.1094 119.623 96.1094C121.646 96.1127 123.668 96.1119 125.691 96.111C125.952 96.111 126.081 96.201 126.005 96.4909C125.894 96.919 125.805 97.3539 125.702 97.7845C125.658 97.9703 125.619 98.1044 125.392 97.8978C125.018 97.5571 124.538 97.543 124.06 97.5555C123.861 97.5605 123.796 97.6696 123.797 97.8487C123.8 99.5105 123.785 101.173 123.814 102.834C123.824 103.423 124.187 103.894 124.526 104.353H120.531V104.354Z" fill="#EEEEEE"/>
<path d="M93.8635 22.6072C94.0626 22.4847 94.2184 22.5222 94.3667 22.5222C108.707 22.5205 123.047 22.5205 137.387 22.5205C137.429 22.5205 137.47 22.5164 137.512 22.5214C137.631 22.5355 137.797 22.4681 137.855 22.593C137.927 22.7471 137.757 22.8329 137.667 22.927C136.053 24.6264 134.444 26.329 132.816 28.015C132.543 28.2974 132.436 28.5814 132.436 28.9713C132.445 38.2201 132.438 47.4689 132.455 56.7177C132.456 57.2391 132.304 57.4957 131.819 57.7073C126.763 59.9156 121.717 62.148 116.672 64.3813C116.383 64.5096 116.141 64.5104 115.846 64.3846C110.624 62.173 105.401 59.9672 100.17 57.7781C99.742 57.599 99.6129 57.3683 99.6137 56.9126C99.6279 47.7055 99.6204 38.4983 99.6346 29.2912C99.6346 28.8047 99.4854 28.4582 99.1539 28.1191C97.4796 26.4015 95.8227 24.6672 94.1601 22.9379C94.0659 22.8404 93.9785 22.7363 93.8635 22.6072V22.6072ZM135.495 23.5185H96.365C97.6937 24.8879 98.9532 26.2149 100.25 27.5035C100.628 27.8792 100.76 28.2607 100.759 28.7839C100.745 37.9652 100.752 47.1457 100.74 56.327C100.74 56.7268 100.875 56.9109 101.234 57.0617C106.081 59.0909 110.923 61.1326 115.762 63.1809C116.085 63.3175 116.354 63.3092 116.671 63.1659C121.311 61.0776 125.953 58.9934 130.605 56.9301C131.027 56.7427 131.168 56.5269 131.168 56.0688C131.154 46.9291 131.159 37.7903 131.149 28.6506C131.149 28.2574 131.264 27.9775 131.54 27.6993C132.77 26.4581 133.981 25.1978 135.196 23.9425C135.309 23.8258 135.453 23.7284 135.494 23.5185H135.495Z" fill="#EEEEEE"/>
<path d="M142.925 90.5858C142.77 91.1431 142.613 91.6995 142.46 92.2577C142.388 92.5176 142.177 92.4834 141.987 92.4834C140.322 92.4851 138.658 92.4534 136.994 92.4942C135.525 92.53 134.057 92.5425 132.588 92.5409C132.457 92.5409 132.276 92.6092 132.208 92.4626C132.145 92.3293 132.32 92.2602 132.397 92.1744C132.641 91.9045 132.709 91.5854 132.654 91.2447C132.473 90.1243 132.279 89.0065 132.021 87.8711C131.914 88.1693 131.802 88.4667 131.7 88.7666C131.299 89.9477 130.893 91.1273 130.509 92.3143C130.401 92.6483 130.261 92.7066 129.937 92.575C128.983 92.1869 128.253 91.6129 127.883 90.5975C127.576 89.7528 127.166 88.9457 126.796 88.1235C126.742 88.0035 126.718 87.8603 126.553 87.7511C126.431 88.9865 126.316 90.1935 126.191 91.3997C126.14 91.8886 126.423 92.1935 126.806 92.4534C126.788 92.4867 126.768 92.5201 126.75 92.5542C126.287 92.5542 125.824 92.5542 125.361 92.5542C124.958 92.5542 124.556 92.5567 124.155 92.55C124.03 92.5484 123.834 92.5117 124.015 92.3493C124.706 91.7279 124.632 90.8665 124.745 90.0735C124.929 88.7857 125.063 87.4904 125.231 86.1992C125.299 85.6695 125.235 85.1747 124.936 84.7265C124.765 84.4699 124.809 84.3583 125.13 84.3608C125.99 84.3675 126.849 84.3733 127.709 84.3583C128.035 84.3525 128.127 84.5616 128.23 84.7973C128.768 86.0293 129.309 87.2605 129.851 88.4908C129.894 88.5891 129.951 88.6808 130.004 88.7766C130.186 88.7082 130.176 88.5458 130.219 88.4267C130.644 87.2388 131.075 86.0535 131.47 84.8565C131.597 84.4716 131.793 84.34 132.19 84.3542C132.98 84.3825 133.771 84.36 134.561 84.3633C135.032 84.365 135.053 84.3925 134.815 84.7707C134.525 85.2321 134.583 85.7403 134.636 86.2276C134.81 87.8103 135.021 89.3888 135.219 90.969C135.282 91.4688 135.478 91.8978 135.882 92.221C136.072 92.3726 136.23 92.3568 136.385 92.1777C136.602 91.9278 136.734 91.6354 136.742 91.3089C136.789 89.2714 136.78 87.2338 136.748 85.1955C136.744 84.9806 136.674 84.7898 136.548 84.6157C136.494 84.5407 136.382 84.4749 136.425 84.37C136.48 84.2392 136.618 84.285 136.72 84.2842C137.955 84.28 139.189 84.2834 140.423 84.28C140.77 84.2792 141.117 84.28 141.461 84.2492C141.662 84.2309 141.755 84.2917 141.757 84.4849C141.761 84.9148 141.763 85.3446 141.758 85.7744C141.755 86.0027 141.65 86.0435 141.473 85.9019C140.921 85.4604 140.267 85.5695 139.635 85.5645C139.471 85.5628 139.372 85.6386 139.371 85.8127C139.37 86.2701 139.371 86.7274 139.37 87.1855C139.37 87.4138 139.518 87.4637 139.702 87.4554C140.103 87.4371 140.506 87.5321 140.905 87.4404C141.129 87.3888 141.209 87.4737 141.205 87.692C141.199 88.0943 141.203 88.4958 141.204 88.8982C141.204 89.1381 141.115 89.1564 140.932 89.024C140.55 88.7474 140.104 88.7416 139.657 88.7399C139.441 88.7391 139.365 88.844 139.367 89.0481C139.372 89.6029 139.378 90.1577 139.364 90.7116C139.357 91.0065 139.553 91.0481 139.763 91.0865C140.859 91.2855 141.916 91.2656 142.845 90.5117C142.872 90.5358 142.898 90.5608 142.925 90.585V90.5858Z" fill="#EEEEEE"/>
<path d="M149.746 88.9536C149.746 88.5496 149.746 88.1397 149.746 87.7307C149.746 87.1484 149.731 86.5662 149.75 85.9839C149.768 85.4583 149.646 84.9968 149.262 84.6211C149.208 84.5678 149.107 84.5112 149.175 84.4195C149.207 84.3754 149.294 84.3671 149.358 84.3512C149.397 84.3412 149.44 84.3479 149.482 84.3471C152.432 84.2638 155.381 84.2304 158.332 84.2529C158.81 84.2563 158.837 84.2904 158.725 84.7561C158.632 85.1468 158.528 85.5349 158.437 85.9264C158.389 86.1297 158.312 86.203 158.139 86.0281C157.997 85.8856 157.815 85.8181 157.627 85.764C156.763 85.5166 156.562 85.6615 156.562 86.5362C156.562 87.839 156.571 89.1427 156.558 90.4455C156.553 91.0885 156.658 91.6875 157.078 92.1989C157.271 92.4347 157.163 92.5113 156.916 92.5121C155.793 92.5138 154.67 92.5146 153.546 92.5121C153.324 92.5121 153.257 92.4347 153.43 92.2472C153.709 91.9465 153.813 91.5775 153.814 91.1777C153.82 89.4867 153.82 87.7957 153.833 86.1047C153.835 85.794 153.703 85.7007 153.407 85.6974C152.907 85.6915 152.448 85.8082 152.014 86.0506C151.914 86.1064 151.807 86.2538 151.689 86.1522C151.582 86.0614 151.677 85.9181 151.702 85.7998C151.785 85.3958 151.873 84.9918 151.923 84.577C151.527 84.9768 151.412 85.4808 151.41 86.0206C151.404 87.3234 151.406 88.627 151.405 89.9298C151.405 90.692 151.398 91.4551 151.407 92.2173C151.411 92.5763 151.29 92.7104 150.907 92.6504C149.65 92.4538 148.664 91.7966 147.844 90.872C146.997 89.9182 146.186 88.9344 145.358 87.9648C145.279 87.8715 145.216 87.7574 145.089 87.7141C145.067 87.7324 145.03 87.7482 145.03 87.7657C144.988 88.9011 144.976 90.0373 145.036 91.1718C145.058 91.5767 145.26 91.9399 145.551 92.2381C145.606 92.2947 145.701 92.3405 145.667 92.4372C145.633 92.5346 145.53 92.518 145.451 92.518C144.661 92.5205 143.871 92.5213 143.08 92.5188C143.002 92.5188 142.899 92.5413 142.864 92.443C142.83 92.3472 142.921 92.2964 142.979 92.2422C143.369 91.8707 143.486 91.4026 143.484 90.8828C143.479 89.4134 143.459 87.9431 143.492 86.4745C143.507 85.7957 143.327 85.2226 142.885 84.7186C142.816 84.6403 142.691 84.5653 142.751 84.4404C142.807 84.3196 142.945 84.3537 143.05 84.3537C143.785 84.3504 144.52 84.3596 145.255 84.3487C145.542 84.3446 145.707 84.5053 145.877 84.6994C147.082 86.0755 148.293 87.4475 149.504 88.8186C149.555 88.8761 149.584 88.9694 149.746 88.9544V88.9536Z" fill="#EEEEEE"/>
<path d="M66.1509 92.3663C67.0005 91.8965 66.8556 91.0651 66.8548 90.2813C66.8506 88.1746 66.8398 86.0679 66.8364 83.9621C66.8364 83.4415 66.7406 82.9692 66.2958 82.6318C66.245 82.5935 66.1817 82.5185 66.1892 82.4694C66.2034 82.3694 66.31 82.3711 66.3908 82.3711C67.8735 82.3769 69.3571 82.3694 70.839 82.3986C71.627 82.4136 72.4142 82.4802 73.1864 82.6718C73.8511 82.8367 74.4734 83.0958 75.0673 83.4348C76.3651 84.1754 77.0082 85.3099 77.1573 86.7785C77.3097 88.2771 77.1098 89.6757 76.0111 90.7911C75.0581 91.759 73.8811 92.3438 72.5158 92.4512C70.4958 92.6095 68.4708 92.4904 66.4483 92.5179C66.3558 92.5195 66.25 92.5354 66.1509 92.3663V92.3663ZM70.1085 87.4757H70.1135C70.1135 88.432 70.1118 89.3883 70.1151 90.3446C70.1151 90.502 70.0801 90.6686 70.2959 90.7586C71.2572 91.1617 72.6883 90.6628 73.2181 89.7456C73.7112 88.891 73.7512 87.9622 73.7487 87.0101C73.7437 85.0958 72.4459 83.9205 70.5525 84.1437C70.2367 84.1812 70.0951 84.307 70.1018 84.6477C70.1201 85.5898 70.1085 86.5328 70.1085 87.4749V87.4757Z" fill="#EEEEEE"/>
<path d="M117.513 80.6412C117.997 80.1806 118.031 79.5883 118.03 78.9844C118.028 77.4875 118.018 75.9897 118.037 74.4937C118.042 74.088 117.903 73.9622 117.509 73.9764C117.024 73.9939 116.578 74.0963 116.164 74.3479C116.085 74.3962 115.997 74.4962 115.905 74.4362C115.793 74.3637 115.852 74.2329 115.872 74.1305C115.954 73.7373 116.059 73.3483 116.127 72.9526C116.182 72.6344 116.339 72.5269 116.663 72.5286C118.784 72.5403 120.905 72.5344 123.026 72.5344C123.941 72.5344 124.856 72.5486 125.771 72.5278C126.121 72.5194 126.327 72.6294 126.487 72.9493C126.827 73.6307 127.218 74.2871 127.567 74.9643C127.719 75.26 127.815 75.2325 127.958 74.966C128.12 74.6603 128.296 74.3604 128.478 74.0663C128.739 73.6473 128.762 73.2258 128.472 72.8227C128.266 72.5336 128.444 72.5378 128.652 72.5378C129.318 72.5378 129.984 72.5453 130.649 72.5353C131.013 72.5294 131.006 72.6711 130.853 72.9318C130.115 74.1863 129.389 75.4466 128.649 76.7003C128.517 76.9235 128.448 77.1459 128.452 77.4058C128.462 78.0297 128.473 78.6537 128.45 79.2767C128.432 79.7549 128.581 80.1431 128.924 80.4696C128.997 80.5396 129.135 80.6012 129.078 80.7328C129.032 80.8395 128.908 80.8036 128.816 80.8045C127.72 80.807 126.625 80.807 125.529 80.8036C125.439 80.8036 125.315 80.8328 125.279 80.7128C125.251 80.6229 125.349 80.5721 125.402 80.5129C125.659 80.2264 125.701 79.8665 125.749 79.5092C125.758 79.4408 125.746 79.37 125.754 79.3017C125.941 77.7832 125.616 76.4129 124.678 75.1726C124.18 74.5137 123.897 73.7031 123.322 73.0867C123.232 72.9901 123.151 72.8177 123.004 72.8601C122.884 72.8951 122.901 73.0701 122.873 73.19C122.794 73.5274 122.711 73.8631 122.631 74.2004C122.585 74.3904 122.523 74.4778 122.332 74.3037C121.937 73.9439 121.443 73.968 120.955 73.9889C120.805 73.9947 120.725 74.0822 120.726 74.2296C120.742 75.9198 120.66 77.6107 120.77 79.2992C120.798 79.7391 121.007 80.1197 121.27 80.4688C121.36 80.5879 121.458 80.7362 121.195 80.7378C119.98 80.7453 118.766 80.7412 117.55 80.7412C117.537 80.7078 117.524 80.6745 117.509 80.6404L117.513 80.6412Z" fill="#EEEEEE"/>
<path d="M111.614 78.3346C111.374 79.011 111.135 79.6883 110.893 80.3647C110.846 80.4988 110.733 80.5446 110.602 80.5662C108.143 80.9727 105.724 81.0094 103.389 79.9257C101.917 79.2418 101.172 78.0606 100.88 76.5287C100.654 75.345 100.854 74.2113 101.331 73.1209C101.69 72.2995 102.303 71.7206 103.095 71.3108C104.873 70.392 106.771 70.227 108.722 70.4011C109.053 70.4303 109.381 70.5003 109.713 70.5178C109.978 70.5319 110.081 70.6377 110.075 70.9001C110.064 71.3716 110.061 71.8431 110.077 72.3145C110.088 72.6611 109.978 72.7319 109.666 72.5761C108.783 72.1371 107.855 71.8997 106.856 71.9564C106.285 71.9888 105.807 72.1988 105.404 72.5886C103.763 74.1763 104 77.2834 105.859 78.592C106.859 79.2959 107.965 79.2784 109.095 79.0543C109.937 78.8869 110.748 78.6129 111.531 78.2505C111.559 78.2788 111.587 78.3063 111.615 78.3346H111.614Z" fill="#EEEEEE"/>
<path d="M111.669 92.6601C110.88 92.7193 109.993 92.5885 109.16 92.2028C107.704 91.5281 106.724 90.4718 106.614 88.7975C106.492 86.9266 107.392 85.6163 109.027 84.8482C110.859 83.9878 112.772 83.9628 114.617 84.8024C117.241 85.9961 117.688 89.6813 115.482 91.5447C114.534 92.3452 113.469 92.6676 111.669 92.661V92.6601ZM114.018 88.7417C114.059 87.8595 113.805 87.0873 113.254 86.4159C112.337 85.2964 110.624 85.4072 109.852 86.6325C109.038 87.9237 109.232 89.6055 110.324 90.7159C111.494 91.9062 113.326 91.4906 113.861 89.9137C113.992 89.5289 114.041 89.1324 114.017 88.7417H114.018Z" fill="#EEEEEE"/>
<path d="M90.4932 104.115C91.2162 103.547 91.2162 102.793 91.2154 102.035C91.2129 100.039 91.2137 98.0412 91.2154 96.0445C91.2154 95.4964 91.0713 95.005 90.6706 94.6085C90.5948 94.5335 90.4482 94.4718 90.4824 94.3569C90.5265 94.2044 90.6931 94.2586 90.8089 94.2578C91.9043 94.2536 93.0005 94.2553 94.0968 94.2544C94.2075 94.2544 94.3192 94.2519 94.43 94.2544C94.7057 94.2628 95.1213 94.1678 95.2271 94.3069C95.4146 94.5543 94.9789 94.7026 94.8864 94.9517C94.7482 95.324 94.6807 95.7038 94.6782 96.0887C94.6649 98.0854 94.6724 100.083 94.6624 102.08C94.6607 102.345 94.734 102.494 95.0206 102.523C96.0326 102.622 97.0389 102.67 98.0293 102.36C98.2693 102.285 98.4525 102.113 98.7782 101.945C98.5433 102.71 98.3417 103.379 98.1293 104.046C98.0843 104.186 97.9411 104.192 97.8128 104.192C95.4412 104.19 93.0688 104.19 90.6973 104.185C90.6598 104.185 90.6223 104.16 90.4949 104.113L90.4932 104.115Z" fill="#EEEEEE"/>
<path d="M120.733 92.4956H116.889C116.882 92.4423 116.868 92.399 116.877 92.3932C117.388 92.0899 117.455 91.6168 117.449 91.072C117.429 89.2844 117.435 87.496 117.445 85.7075C117.449 85.1477 117.328 84.6629 116.788 84.3381C116.942 84.2106 117.098 84.2539 117.238 84.2531C118.444 84.2489 119.65 84.2606 120.856 84.2464C121.465 84.2389 122.039 84.3597 122.601 84.5763C123.474 84.9128 123.984 85.5317 124.036 86.4764C124.092 87.4926 123.672 88.1374 122.733 88.5822C122.004 88.9279 121.229 89.0537 120.436 89.0911C120.133 89.1053 120.013 89.2244 120.025 89.5218C120.038 89.84 120.036 90.1599 120.025 90.4781C120 91.232 120.02 91.965 120.815 92.4148C120.787 92.4415 120.761 92.4681 120.733 92.4948V92.4956ZM120.041 87.311C120.041 87.7267 120.048 88.1424 120.038 88.5572C120.031 88.8546 120.159 88.9021 120.391 88.7679C120.899 88.4747 121.227 88.0374 121.328 87.4618C121.459 86.7138 121.113 86.0257 120.531 85.7975C120.155 85.65 120.05 85.7125 120.043 86.1065C120.037 86.508 120.042 86.9095 120.042 87.311H120.041Z" fill="#EEEEEE"/>
<path d="M90.0199 90.0191C90.1898 89.5135 90.3323 89.0861 90.4764 88.6597C90.7746 87.78 91.0778 86.902 91.3718 86.0215C91.5726 85.4193 91.79 84.8087 91.022 84.368C91.0436 84.3372 91.0645 84.3056 91.0861 84.2747C91.5484 84.2747 92.0108 84.2747 92.4731 84.2747C93.2461 84.2747 93.4979 84.6363 93.2286 85.3593C92.3631 87.685 91.4885 90.0066 90.6413 92.339C90.5039 92.7172 90.3348 92.7947 89.9707 92.6722C89.4951 92.5123 89.0361 92.3265 88.6005 92.0775C87.9624 91.7126 87.5259 91.2061 87.271 90.4956C86.6995 88.9046 86.0673 87.3352 85.4742 85.7508C85.3051 85.2985 85.0577 84.9095 84.7237 84.5671C84.6612 84.503 84.5462 84.4455 84.6029 84.3297C84.6454 84.2431 84.7478 84.2639 84.8278 84.2639C85.7291 84.2631 86.6312 84.2639 87.5326 84.2639C87.715 84.2639 87.8541 84.3106 87.9032 84.5163C88.2673 86.034 88.9795 87.4243 89.5143 88.8796C89.6459 89.2361 89.7567 89.6068 90.0199 90.0183V90.0191Z" fill="#EEEEEE"/>
<path d="M84.7611 90.5578C84.602 91.1259 84.4437 91.694 84.2838 92.2613C84.238 92.4254 84.1097 92.4612 83.9606 92.4612C82.0205 92.4595 80.0796 92.4587 78.1396 92.4554C78.1038 92.4554 78.0679 92.4262 77.9905 92.3929C78.6485 91.8481 78.6411 91.1101 78.6411 90.3729C78.6411 88.8343 78.6419 87.2966 78.6402 85.7581C78.6402 85.3116 78.6169 84.8692 78.3178 84.4977C78.1987 84.3503 78.2445 84.2736 78.4253 84.2645C78.5219 84.2595 78.6194 84.2603 78.716 84.2603C80.2271 84.2578 81.7373 84.2603 83.2484 84.2462C83.5033 84.2437 83.6007 84.3178 83.5941 84.571C83.5832 84.945 83.5916 85.3191 83.5907 85.6931C83.5907 85.9263 83.5383 86.0663 83.2867 85.8647C82.7194 85.4115 82.0497 85.5523 81.4066 85.5506C81.2225 85.5506 81.1984 85.7031 81.1984 85.8505C81.1975 86.2662 81.2042 86.6819 81.195 87.0975C81.1892 87.3524 81.3108 87.4432 81.5499 87.4365C81.9647 87.4249 82.3821 87.4374 82.7952 87.4066C83.0018 87.3907 83.0801 87.4532 83.0809 87.6448C83.0826 88.0605 83.0851 88.4761 83.0818 88.8918C83.0793 89.1425 82.9643 89.1284 82.7952 89.0118C82.437 88.7652 82.0297 88.7135 81.6065 88.7119C81.3666 88.7119 81.2442 88.7927 81.2467 89.0467C81.2525 89.5874 81.255 90.128 81.2458 90.6678C81.2408 90.9426 81.4049 91.0234 81.629 91.0643C82.7119 91.265 83.754 91.2417 84.6686 90.492C84.6995 90.5137 84.7311 90.5345 84.7619 90.5561L84.7611 90.5578Z" fill="#EEEEEE"/>
<path d="M132.726 102.372C132.565 102.954 132.406 103.537 132.241 104.118C132.201 104.26 132.077 104.297 131.944 104.297C130.044 104.299 128.144 104.3 126.244 104.299C126.166 104.299 126.056 104.32 126.04 104.213C126.032 104.163 126.092 104.09 126.139 104.046C126.488 103.716 126.596 103.295 126.597 102.838C126.6 100.993 126.599 99.1492 126.599 97.305C126.599 96.9651 126.545 96.6411 126.304 96.377C126.115 96.1713 126.237 96.1221 126.435 96.1213C127.046 96.1188 127.656 96.1196 128.266 96.1188C129.223 96.1179 130.181 96.1271 131.137 96.1096C131.445 96.1038 131.564 96.2046 131.549 96.512C131.533 96.8718 131.544 97.2325 131.544 97.5932C131.544 97.8181 131.454 97.8739 131.27 97.734C130.726 97.32 130.091 97.3974 129.47 97.3983C129.302 97.3983 129.21 97.4799 129.209 97.6507C129.208 98.1221 129.209 98.5936 129.207 99.0651C129.205 99.2883 129.334 99.3525 129.529 99.3416C129.943 99.32 130.362 99.405 130.77 99.2883C130.994 99.2242 131.039 99.34 131.039 99.5232C131.038 99.9256 131.039 100.327 131.039 100.729C131.039 100.954 130.962 101.013 130.772 100.859C130.4 100.559 129.959 100.542 129.508 100.555C129.302 100.562 129.202 100.646 129.203 100.855C129.205 101.41 129.211 101.965 129.199 102.519C129.193 102.779 129.348 102.839 129.556 102.884C130.657 103.117 131.704 103.054 132.726 102.371V102.372Z" fill="#EEEEEE"/>
<path d="M100.295 90.5621C100.142 91.1202 99.9883 91.6775 99.835 92.2356C99.7917 92.3922 99.6851 92.4588 99.5277 92.4588C97.5735 92.4555 95.6192 92.4522 93.665 92.4472C93.6425 92.4472 93.62 92.4205 93.5601 92.383C94.2048 91.8299 94.1956 91.0735 94.1981 90.3263C94.204 88.8294 94.2081 87.3325 94.194 85.8356C94.1898 85.37 94.1965 84.8902 93.8683 84.492C93.6958 84.2829 93.8799 84.2663 94.0249 84.2638C94.3856 84.2571 94.7454 84.2604 95.1061 84.2596C96.3256 84.2579 97.546 84.2663 98.7655 84.2463C99.0662 84.2413 99.1612 84.3446 99.152 84.6253C99.1395 84.9851 99.1487 85.3458 99.1478 85.7065C99.1478 85.9789 99.0487 86.0281 98.828 85.8581C98.2707 85.4283 97.6159 85.5482 96.9845 85.5466C96.8346 85.5466 96.7596 85.6399 96.7588 85.7881C96.7571 86.2455 96.7588 86.7028 96.7571 87.1601C96.7571 87.3867 96.8987 87.4375 97.0861 87.435C97.4877 87.4292 97.8917 87.4483 98.2898 87.4075C98.5239 87.3833 98.633 87.4208 98.6322 87.6649C98.6297 88.0664 98.6364 88.4687 98.628 88.8703C98.6239 89.1102 98.5339 89.1643 98.3248 89.0069C97.9616 88.7328 97.531 88.7161 97.0961 88.7111C96.8479 88.7086 96.7463 88.8019 96.7513 89.0527C96.7613 89.5791 96.7679 90.1064 96.7488 90.632C96.738 90.9244 96.8854 91.0194 97.1345 91.0635C98.2299 91.2585 99.2878 91.2426 100.217 90.4888C100.243 90.5129 100.27 90.5371 100.296 90.5612L100.295 90.5621Z" fill="#EEEEEE"/>
<path d="M106.917 90.7378C106.767 91.2392 106.617 91.7407 106.467 92.2413C106.408 92.4379 106.253 92.4754 106.074 92.4754C104.244 92.4754 102.414 92.4762 100.583 92.4746C100.493 92.4746 100.368 92.5121 100.327 92.3954C100.288 92.2838 100.408 92.2313 100.471 92.1647C100.691 91.9298 100.795 91.6541 100.795 91.3342C100.795 89.4491 100.798 87.5632 100.797 85.6781C100.797 85.2675 100.641 84.9251 100.335 84.6485C100.277 84.5969 100.184 84.5344 100.251 84.4453C100.282 84.402 100.372 84.3853 100.436 84.3853C101.6 84.382 102.765 84.382 103.93 84.3853C104.148 84.3853 104.226 84.4769 104.057 84.656C103.714 85.0176 103.658 85.4682 103.656 85.9314C103.649 87.4982 103.659 89.0643 103.642 90.6311C103.638 90.9927 103.768 91.1084 104.119 91.1293C104.745 91.1668 105.363 91.1551 105.98 91.0435C106.297 90.986 106.585 90.8677 106.841 90.662C106.867 90.6878 106.892 90.7128 106.918 90.7386L106.917 90.7378Z" fill="#EEEEEE"/>
<path d="M116.08 80.7292H112.02C112.66 80.2485 112.697 79.6521 112.695 79.0298C112.687 77.3663 112.685 75.7028 112.7 74.0402C112.704 73.602 112.614 73.2197 112.32 72.8906C112.268 72.8323 112.176 72.779 112.228 72.6832C112.274 72.5966 112.373 72.6149 112.452 72.6149C113.491 72.6132 114.531 72.6141 115.571 72.6149C115.835 72.6149 115.92 72.7307 115.728 72.9356C115.416 73.2696 115.381 73.667 115.383 74.0943C115.392 75.7853 115.395 77.4763 115.383 79.1673C115.379 79.7495 115.491 80.266 116.08 80.7292V80.7292Z" fill="#EEEEEE"/>
<path d="M115.936 24.2978C121.678 24.2978 127.419 24.2978 133.161 24.2978C133.272 24.2978 133.384 24.2919 133.494 24.3003C133.584 24.3069 133.713 24.2628 133.746 24.3836C133.78 24.5093 133.654 24.5735 133.581 24.6501C132.638 25.648 131.703 26.6526 130.743 27.6339C130.48 27.903 130.373 28.1729 130.373 28.5494C130.382 37.6457 130.377 46.7421 130.391 55.8385C130.391 56.2949 130.256 56.5257 129.835 56.7114C125.436 58.6573 121.044 60.6224 116.655 62.5883C116.371 62.7149 116.126 62.7424 115.827 62.6149C111.222 60.654 106.614 58.7006 102.001 56.7589C101.637 56.6057 101.516 56.4091 101.517 56.0167C101.528 46.8646 101.523 37.7132 101.534 28.561C101.534 28.1537 101.418 27.8613 101.129 27.5748C100.193 26.6485 99.2815 25.6964 98.3652 24.7509C98.2644 24.6468 98.0645 24.5485 98.1336 24.3936C98.2111 24.2178 98.431 24.3011 98.5868 24.3003C104.093 24.2961 109.599 24.2969 115.104 24.2969C115.382 24.2969 115.659 24.2969 115.936 24.2969L115.936 24.2978ZM112.729 40.9636C113.229 40.8245 113.578 40.632 113.943 40.4738C114.382 40.283 114.629 39.9798 114.784 39.5225C115.155 38.4338 115.587 37.3667 115.978 36.2838C116.142 35.829 116.437 35.6241 116.918 35.6316C118.236 35.6532 119.547 35.7398 120.842 36.0064C122.452 36.3379 123.681 37.5341 123.966 39.1368C124.324 41.1535 123.872 43.0119 122.782 44.7312C121.508 46.7413 119.732 47.8025 117.306 47.73C115.865 47.6867 114.421 47.7217 112.979 47.7217C111.867 47.7217 111.771 47.5801 112.158 46.5438C112.683 45.1419 113.205 43.7383 113.722 42.3339C113.767 42.2139 113.911 42.0665 113.78 41.9582C113.666 41.8649 113.524 42.0032 113.399 42.0498C113.101 42.1623 112.811 42.3022 112.506 42.3897C112.223 42.4713 112.075 42.6337 111.974 42.9061C111.556 44.0374 111.112 45.1586 110.693 46.2898C110.577 46.603 110.388 46.8379 110.135 47.047C109.685 47.4193 109.172 47.6767 108.595 47.895C108.667 47.9191 108.691 47.9341 108.714 47.9341C112.043 47.9316 115.373 47.9741 118.7 47.905C120.402 47.8692 121.958 47.2794 123.252 46.1132C124.479 45.0061 125.208 43.6009 125.608 42.0298C126.023 40.4021 125.739 38.8836 124.624 37.5883C123.714 36.532 122.474 36.0505 121.157 35.7457C120.142 35.5108 119.113 35.3908 118.066 35.3991C116.366 35.4133 114.665 35.4033 112.992 35.4033C113.099 35.4666 113.253 35.5491 113.398 35.644C114.17 36.1472 114.352 36.7061 114.027 37.5599C113.943 37.7799 113.854 37.9981 113.77 38.2188C113.436 39.0977 113.103 39.9765 112.729 40.9644V40.9636ZM115.148 40.3447C115.023 40.4196 114.896 40.4954 114.77 40.5704C113.81 41.1418 112.819 41.64 111.67 41.6616C109.462 41.7025 107.827 40.9269 106.911 38.7595C106.447 37.6624 106.557 36.527 106.704 35.4016C107.102 32.3545 109.433 29.7614 112.328 29.0817C114.594 28.5494 117.552 29.5665 118.356 32.4178C118.367 32.4553 118.391 32.4886 118.399 32.5053V29.0692C117.656 29.6514 117.387 29.6889 116.575 29.3091C115.113 28.626 113.567 28.3745 111.991 28.616C108.917 29.0883 106.616 30.7385 105.125 33.4683C103.823 35.8515 104.347 38.8861 106.309 40.6271C109.098 43.1027 112.719 42.4347 115.149 40.3455L115.148 40.3447ZM125.512 50.5864C124.871 51.3869 124.308 52.2082 123.559 52.8805C122.793 53.5669 121.927 54.0292 120.873 54.035C119.556 54.0417 118.239 54.0392 116.922 54.0308C116.66 54.0292 116.395 54.0059 116.139 53.9525C115.573 53.8351 115.423 53.5644 115.618 53.0263C116.059 51.8159 116.505 50.6072 116.957 49.4002C117.313 48.4489 117.317 48.4639 116.306 48.4564C115.971 48.4539 115.821 48.5747 115.711 48.8871C115.213 50.2982 114.674 51.6943 114.185 53.1079C113.996 53.6518 113.658 54.0084 113.146 54.2191C112.843 54.3441 112.53 54.4457 112.113 54.5981C112.669 54.5981 113.109 54.5981 113.549 54.5981C116.931 54.5981 120.314 54.594 123.696 54.604C124.04 54.6048 124.23 54.5065 124.326 54.1616C124.476 53.6285 124.67 53.1079 124.845 52.5823C125.067 51.9167 125.289 51.2511 125.512 50.5856V50.5864ZM115.914 41.9898C116.226 42.1398 116.473 42.2364 116.699 42.3697C117.502 42.842 117.704 43.4201 117.388 44.2964C117.158 44.9353 116.926 45.5726 116.693 46.2106C116.291 47.3102 116.172 47.1778 117.425 47.1911C117.695 47.1944 117.823 47.0661 117.907 46.8304C118.236 45.9183 118.609 45.0195 118.898 44.0957C119.197 43.1385 119.827 42.5471 120.729 42.1973C120.903 42.1298 121.082 42.0756 121.33 41.9907H115.914V41.9898Z" fill="#EEEEEE"/>
</g>
</g>
<defs>
<clipPath id="clip0_503_4179">
<rect width="231" height="127" fill="white"/>
</clipPath>
<clipPath id="clip1_503_4179">
<rect width="99.7934" height="81.9678" fill="white" transform="translate(65.9338 22.3594)"/>
</clipPath>
</defs>
</svg>
