<svg width="231" height="127" viewBox="0 0 231 127" fill="none" xmlns="http://www.w3.org/2000/svg">
<g clip-path="url(#clip0_665_5531)">
<g clip-path="url(#clip1_665_5531)">
<path d="M136.036 67.9847V43.4836C136.736 43.4319 137.389 43.3567 138.042 43.3473C140.623 43.3191 143.203 43.2721 145.783 43.3144C147.226 43.3379 148.693 43.3661 150.098 43.6481C154.361 44.5035 156.941 47.2201 158.027 51.3326C158.802 54.2795 158.784 57.2781 157.9 60.2156C156.993 63.2236 155.226 65.5548 152.283 66.8849C150.949 67.4912 149.52 67.7967 148.086 67.8484C144.298 67.9847 140.505 67.9988 136.717 68.0599C136.529 68.0599 136.341 68.0223 136.04 67.9894L136.036 67.9847ZM142.46 62.4857C142.513 62.4811 142.566 62.4765 142.619 62.472C142.643 62.4698 142.667 62.4677 142.691 62.4656C144.081 62.346 145.402 62.2483 146.705 62.1175C147.035 62.0844 147.363 62.0492 147.692 62.011C149.891 61.7572 151.212 60.5258 151.724 58.3873C152.072 56.9303 152.133 55.4498 151.95 53.9834C151.696 51.9436 150.841 50.2516 148.787 49.4385C147.208 48.8165 145.588 48.8766 143.959 48.9371C143.459 48.9557 142.957 48.9743 142.456 48.9732V62.4857H142.46Z" fill="white"/>
<path d="M89.8346 42.9478C95.296 43.0089 99.6529 46.2707 101.096 51.5065C102.149 55.3229 101.97 59.0547 100.104 62.6173C98.4732 65.7287 95.9587 67.7168 92.4948 68.4735C90.4409 68.92 88.387 68.9341 86.3425 68.4688C82.4932 67.5946 79.8518 65.2211 78.4982 61.6162C77.0224 57.6964 76.9895 53.6826 78.7567 49.8004C80.2842 46.4493 82.8503 44.2497 86.4834 43.4084C87.5785 43.1546 88.716 43.0982 89.8346 42.9525V42.9478ZM95.1738 55.9762C95.1738 55.9753 95.1738 55.9744 95.1738 55.9734C95.211 54.3765 94.9195 52.9016 94.2197 51.5206C92.8191 48.757 89.4586 47.8358 86.8172 49.462C86.4755 49.6732 86.1738 49.9149 85.9069 50.1819C85.884 50.2049 85.8614 50.2281 85.839 50.2514C85.2106 50.905 84.781 51.7036 84.4766 52.5781C83.6494 54.9469 83.7998 57.3392 84.5941 59.6798C85.2756 61.6914 87.1227 63.2659 89.7171 63.2048C91.2341 63.1682 92.6076 62.4769 93.574 61.291C93.9728 60.8015 94.3023 60.2278 94.544 59.5811C94.9858 58.4014 95.2161 57.1888 95.1691 55.9762H95.1738Z" fill="white"/>
<path d="M122.509 43.4977H128.892C128.934 43.8267 129.009 44.1181 129.009 44.4142C129.018 49.0531 129.037 53.692 129.004 58.3356C128.99 60.0182 128.647 61.6585 128.064 63.2424C127.106 65.8321 125.207 67.4066 122.575 68.0411C119.811 68.7085 117.005 68.7461 114.213 68.121C110.439 67.2703 107.953 64.4644 107.836 60.6151C107.671 55.1631 107.671 49.7064 107.605 44.2544C107.605 44.0664 107.657 43.8784 107.699 43.5823C109.767 43.3802 111.816 43.5165 113.974 43.5024C114.007 44.0664 114.058 44.5599 114.058 45.0534C114.063 49.2646 114.058 53.4758 114.068 57.687C114.068 58.3074 114.124 58.9325 114.218 59.5435C114.467 61.1368 115.36 62.2742 116.86 62.8523C118.411 63.4492 119.853 63.1437 121.132 62.0862C121.893 61.4564 122.302 60.6339 122.387 59.6657C122.443 59.0077 122.453 58.3403 122.453 57.6776C122.457 53.3865 122.453 49.1001 122.457 44.809C122.457 44.3907 122.49 43.9724 122.509 43.5024V43.4977Z" fill="white"/>
<path d="M43.798 58.9278H49.8422C50.1242 60.2485 49.6918 61.4282 49.3158 62.5891C48.733 64.3939 47.605 65.8368 46.0164 66.8567C41.683 69.6344 37.171 69.9916 32.6026 67.51C29.839 66.0107 28.0624 63.609 27.2164 60.5916C26.2529 57.1559 26.2905 53.7061 27.7569 50.4208C29.4771 46.5668 32.4804 44.2121 36.6916 43.4742C40.2166 42.8585 43.4643 43.6011 46.3501 45.6832C48.0985 46.9475 49.3628 48.6207 49.814 50.7921C49.9315 51.3514 49.9315 51.9295 49.9879 52.5546C49.6025 52.6016 49.3393 52.658 49.0761 52.658C47.6285 52.6674 46.1809 52.6392 44.738 52.6721C44.0612 52.6862 43.61 52.47 43.3985 51.8073C42.7452 49.744 41.119 49.086 39.1638 48.9309C36.325 48.7053 34.6988 50.1482 33.7964 52.5217C32.8282 55.0691 32.9645 57.6259 33.8904 60.1639C35.1547 63.6419 39.6056 64.0414 41.9697 62.3964C42.4162 62.0862 42.7123 61.5128 42.9708 61.0052C43.2998 60.3519 43.5207 59.6422 43.8027 58.9231L43.798 58.9278Z" fill="white"/>
<path d="M62.5464 62.8523C64.5721 62.8523 66.4004 62.8523 68.2334 62.8523C70.0664 62.8523 71.8946 62.8523 73.8028 62.8523V68.168C73.0508 68.4077 58.1942 68.497 56.3377 68.2667C56.1262 67.4019 56.0932 45.0675 56.3141 43.8549H62.5464V62.8523Z" fill="white"/>
<path d="M202.644 58.016C203.18 58.0724 203.598 58.11 204.04 58.157C204.082 58.3685 204.167 58.5283 204.129 58.6552C203.523 60.7467 202.964 62.8664 201.535 64.6007C199.095 67.5617 195.89 68.6897 192.154 68.2385C189.573 67.9236 187.28 66.8661 185.47 64.925C183.961 63.3082 183.162 61.3295 182.622 59.238C181.419 54.6179 182.213 50.3785 185.122 46.548C186.904 44.2027 189.324 42.9619 192.182 42.6047C194.71 42.2898 197.173 42.6047 199.42 43.9442C201.699 45.2978 203.043 47.3141 203.64 49.8568C203.673 50.0025 203.64 50.1623 203.64 50.4443C203.199 50.4631 202.794 50.4819 202.338 50.5054C202.212 50.2234 202.066 49.9931 202.005 49.744C201.168 46.2237 198.038 44.3625 195.063 44.0194C190.734 43.5212 186.739 45.7725 184.995 49.7487C183.35 53.4946 183.303 57.3063 184.911 61.0851C185.874 63.3552 187.496 65.0848 189.7 66.1752C191.947 67.2891 194.297 67.275 196.633 66.4055C200.05 65.1365 201.76 62.5092 202.437 59.0782C202.498 58.7774 202.555 58.4813 202.649 58.016H202.644Z" fill="white"/>
<path d="M176.216 49.1001V66.8003H180.38C180.408 67.2515 180.427 67.6134 180.46 68.1069H176.216V74.5694H174.745V68.309H162.478C161.895 67.4301 162.247 66.7157 162.633 66.0436C162.999 65.4044 163.465 64.8169 163.888 64.2106C167.197 59.4824 170.51 54.7542 173.819 50.0213C174.331 49.2881 174.89 48.6442 175.929 48.9403C175.967 48.9497 175.995 48.9779 176.211 49.0954L176.216 49.1001ZM174.637 66.6499V51.0459C171.032 56.3193 167.535 61.4282 163.963 66.6499H163.966H174.637Z" fill="white"/>
<path d="M53.8936 80.4914H54.6644C55.2801 81.8685 56.206 82.3573 57.428 81.9766C58.0484 81.7839 58.3257 81.4549 58.3445 80.9191C58.368 80.3457 58.0061 80.0684 57.5408 79.9086C57.1366 79.7676 56.7089 79.7018 56.2953 79.589C55.8817 79.4762 55.454 79.3963 55.0733 79.2177C54.0158 78.7242 53.7573 77.5351 54.3965 76.5763C55.1156 75.4906 58.2458 75.218 58.9367 76.9429C59.0354 77.1873 59.073 77.4599 59.1576 77.7795C58.8756 77.8829 58.6406 77.9722 58.3539 78.0803C57.9967 77.5586 57.8463 76.8536 57.1225 76.7737C56.7089 76.7267 56.2671 76.6844 55.8676 76.7737C55.2519 76.91 55.1814 77.1121 55.1673 78.1649C55.5339 78.3106 55.9475 78.4986 56.3752 78.6349C57.005 78.837 57.6536 78.9733 58.2787 79.1895C59.0777 79.4668 59.4396 80.1154 59.4443 80.9097C59.4443 81.6617 59.0683 82.2727 58.3633 82.5829C57.2776 83.0623 56.1496 83.0905 55.078 82.5594C54.3025 82.174 53.8513 81.516 53.903 80.4914H53.8936Z" fill="white"/>
<path d="M82.3239 82.8931C81.9432 82.8555 81.7224 82.832 81.4075 82.7991C81.3793 81.4502 81.3557 80.1483 81.3322 78.8981C79.9645 78.3811 79.3347 78.7806 79.283 80.0684C79.2642 80.5337 79.283 81.0037 79.283 81.469C79.283 81.892 79.283 82.3103 79.283 82.8085C79.0151 82.8367 78.8412 82.8555 78.6203 82.8743C78.1362 81.5348 78.8506 80.0543 78.1127 78.7947C76.8813 78.5456 76.2985 78.9639 76.2421 80.1624C76.1998 81.0507 76.2327 81.9484 76.2327 82.9213H75.3538V78.0286C75.7815 77.7748 76.1058 77.803 76.3314 78.2918C77.2996 77.6338 78.2725 77.521 79.2031 78.367C79.894 77.897 80.5708 77.5586 81.4121 77.85C81.9526 78.038 82.3098 78.3529 82.3192 78.9263C82.3427 80.2 82.3286 81.4784 82.3286 82.8884L82.3239 82.8931Z" fill="white"/>
<path d="M44.7098 78.1132C44.4513 78.1461 44.2022 78.1837 43.9155 78.2213C43.8027 78.0192 43.6899 77.8641 43.6194 77.6902C43.0742 76.4118 40.8699 76.4118 40.1226 77.7513C39.4928 78.884 39.5022 80.0684 40.085 81.2199C40.4751 81.9954 41.1989 82.3291 42.0261 82.2915C42.8862 82.2492 43.4643 81.7463 43.7228 80.9144C43.7792 80.7358 43.8262 80.5525 43.892 80.341H44.6205C44.6722 80.4632 44.7615 80.5713 44.7521 80.67C44.6205 81.9296 43.6711 82.9213 42.4444 83.0999C40.4469 83.3913 39.1262 82.4795 38.7173 80.4679C38.2896 78.367 39.1497 76.1721 41.6219 75.8713C43.1447 75.688 44.362 76.5387 44.7098 78.1179V78.1132Z" fill="white"/>
<path d="M31.954 76.0499H33.0585C33.9186 78.2448 34.7881 80.4726 35.6999 82.7944C35.3098 82.8414 35.0513 82.8743 34.6988 82.9166C34.4403 82.3009 34.1912 81.704 33.9092 81.0272H31.1174C30.873 81.6241 30.6286 82.2257 30.3701 82.8508H29.3925C30.1821 80.4961 31.0986 78.2965 31.9587 76.0499H31.954ZM33.4533 79.9274C33.2559 79.0062 32.988 78.2072 32.5133 77.2766C32.4727 77.3689 32.4326 77.4593 32.3933 77.548C32.0139 78.4001 31.7021 79.1059 31.6297 79.9274H33.4533Z" fill="white"/>
<path d="M68.0312 80.2987C68.3226 80.3128 68.5435 80.3222 68.7315 80.3316C68.7973 80.4679 68.8725 80.5431 68.8584 80.5995C68.4683 82.3949 67.4155 83.2221 65.6436 83.1281C64.0362 83.0435 62.9552 81.9907 62.7719 80.294C62.6121 78.8511 62.7437 77.4975 64.0268 76.5058C65.7705 75.1616 68.2521 75.9418 68.7832 78.0897C68.5388 78.1367 68.2991 78.1837 68.0124 78.2401C67.8949 78.0427 67.7915 77.8829 67.7069 77.7184C67.3262 76.9523 66.6823 76.7173 65.8692 76.7596C65.0467 76.7972 64.4451 77.1732 64.1161 77.9111C63.7213 78.79 63.6602 79.7112 63.9469 80.6418C64.2712 81.6946 64.9762 82.2821 65.9491 82.3056C66.8045 82.3291 67.392 81.8544 67.8056 80.8251C67.862 80.6794 67.9325 80.5431 68.0406 80.2987H68.0312Z" fill="white"/>
<path d="M84.3872 82.4983V84.7919C84.1193 84.8154 83.9078 84.8342 83.5694 84.8624C83.4049 82.5359 83.4895 80.2705 83.5177 77.9581C83.7903 77.9346 83.9877 77.8829 84.1569 77.9158C84.2885 77.944 84.3966 78.0897 84.5235 78.1884C85.8959 77.5492 86.9629 77.6714 87.6632 78.5691C88.4011 79.5091 88.4434 81.2857 87.7525 82.1787C87.0193 83.1234 85.9429 83.2503 84.3825 82.4936L84.3872 82.4983ZM84.4342 80.5149C84.4389 80.5948 84.4342 80.7499 84.4718 80.9003C84.6363 81.6946 85.1722 82.1458 85.9242 82.1364C86.7044 82.127 86.991 81.8309 87.2542 80.952C87.2791 80.8685 87.2983 80.7861 87.3122 80.7049C87.3918 80.2355 87.2935 79.7967 87.1133 79.3681C86.8971 78.8605 86.474 78.6114 85.91 78.602C84.9888 78.5832 84.4107 79.2976 84.4342 80.5149Z" fill="white"/>
<path d="M93.5052 82.7803C93.101 83.0435 92.6546 82.9683 92.1658 82.5547C91.8885 82.6769 91.6158 82.8367 91.315 82.9119C90.9437 83.0012 90.5489 83.0811 90.1776 83.0482C89.4256 82.9777 88.9275 82.456 88.8664 81.7792C88.81 81.187 89.1906 80.5807 89.8392 80.3457C90.2716 80.1859 90.7416 80.1154 91.1928 80.0026C91.4842 79.9321 91.7757 79.8616 92.0107 79.8099C92.2786 79.213 92.1093 78.8793 91.6111 78.7148C90.9249 78.4892 90.4315 78.7242 89.8581 79.5655C89.6372 79.542 89.3881 79.5185 89.1296 79.495C89.3693 78.4093 89.8064 77.9816 90.7182 77.8923C90.9109 77.8735 91.1082 77.8923 91.3009 77.8782C92.4759 77.7654 93.2608 78.3341 93.1292 79.6548C93.0775 80.1953 93.0776 80.7452 93.134 81.2857C93.1857 81.7463 93.3501 82.1928 93.5052 82.7897V82.7803ZM92.0389 80.5337C91.4655 80.6371 90.9109 80.67 90.408 80.8533C90.1871 80.9332 89.9709 81.2998 89.9474 81.5583C89.9286 81.7416 90.1965 82.0377 90.408 82.1317C90.564 82.2011 90.7187 82.2314 90.8704 82.2311C91.2119 82.2306 91.5377 82.0754 91.8274 81.8638C92.2547 81.5539 92.4005 81.136 92.0351 80.5353C92.0348 80.5347 92.0345 80.5342 92.0342 80.5337H92.0389Z" fill="white"/>
<path d="M69.5822 80.4444C69.5775 78.8323 70.5316 77.8218 72.0544 77.8265C73.4738 77.8312 74.4843 78.8746 74.5172 80.3692C74.5501 81.8967 73.502 83.0623 72.0779 83.0858C70.6256 83.1046 69.5869 82.0048 69.5822 80.4491V80.4444ZM73.4879 80.4162C73.4785 79.26 72.7688 78.508 71.8194 78.6443C71.0815 78.7524 70.6115 79.401 70.5739 80.3692C70.559 80.7269 70.6229 81.0581 70.748 81.3392C70.9764 81.8523 71.4086 82.1987 71.9369 82.2351C72.7814 82.2911 73.487 81.4717 73.488 80.4391C73.488 80.4315 73.488 80.4239 73.4879 80.4162Z" fill="white"/>
<path d="M95.216 82.8367H94.3231V78.0662C94.674 77.9816 94.9873 78.0349 95.2631 78.226C95.6297 78.0897 95.9775 77.9111 96.3441 77.8265C97.5097 77.5727 98.3087 78.0709 98.4074 79.2459C98.5061 80.3974 98.4308 81.5583 98.4308 82.7897C98.1112 82.8132 97.8716 82.8273 97.5097 82.8508C97.5097 81.8027 97.458 80.8345 97.5238 79.8757C97.5849 79.0391 97.1336 78.5832 96.5367 78.5973C95.7377 78.6161 95.2537 79.0485 95.2255 79.9086C95.1926 80.8345 95.216 81.7651 95.216 82.832V82.8367Z" fill="white"/>
<path d="M99.6951 84.8953C99.6481 84.6556 99.6106 84.477 99.5683 84.2655C99.9067 84.1292 100.273 84.0775 100.494 83.866C100.734 83.6404 100.837 83.2691 101.021 82.9307C100.381 81.3045 99.7468 79.683 99.0794 77.9722C99.4413 77.9393 99.6999 77.9158 100.029 77.8876C100.48 79.1143 100.922 80.3081 101.453 81.7369C101.951 80.3692 102.379 79.1942 102.83 77.9581C103.079 77.9393 103.328 77.9252 103.559 77.9064C103.61 78.0474 103.671 78.1273 103.653 78.179C102.943 80.1154 102.252 82.0565 101.495 83.9741C101.176 84.7825 100.851 84.9047 99.6951 84.9V84.8953Z" fill="white"/>
<path d="M46.0963 78.8746C45.7908 78.7383 45.5229 78.6208 45.2973 78.5174C45.1281 77.803 45.7532 77.9769 46.0587 77.7278C46.0822 77.3847 46.1057 77.004 46.1386 76.5387C46.3924 76.5152 46.6368 76.4917 46.947 76.4588C47.0081 76.9006 47.0598 77.2766 47.1256 77.7325C47.3747 77.8077 47.6567 77.897 47.9669 77.991C47.981 78.1508 47.9951 78.2965 48.0139 78.4986C47.7131 78.5926 47.4311 78.6772 47.1162 78.7759V81.939C47.4123 82.0283 47.6614 82.1035 47.9575 82.1928V82.8179H46.5569C45.8989 82.2116 46.1386 81.5113 46.1057 80.8721C46.0728 80.2141 46.0963 79.5514 46.0963 78.8746Z" fill="white"/>
<path d="M52.0606 76.064H52.869V82.8414C52.7797 82.8837 52.681 82.9683 52.5776 82.9777C52.4319 82.9918 52.2815 82.9495 52.0606 82.926V76.064Z" fill="white"/>
<path d="M48.7706 78.0145C49.2782 77.7372 49.5508 77.9863 49.7811 78.2589C50.2417 78.0474 50.6835 77.8453 51.224 77.6009C51.2945 77.9863 51.3368 78.2307 51.3885 78.5221C51.1723 78.6161 51.0078 78.7101 50.8292 78.7665C50.0161 79.0344 49.6589 79.5937 49.6777 80.435C49.6918 81.2011 49.6777 81.9672 49.6777 82.8132H48.7706V78.0145Z" fill="white"/>
<path fill-rule="evenodd" clip-rule="evenodd" d="M94.5486 59.5764C94.9902 58.3973 95.2205 57.1854 95.1738 55.9734C95.1738 55.9728 95.1738 55.9722 95.1737 55.9715L95.1738 55.9734L95.1738 55.9762H95.1691C95.2161 57.1888 94.9858 58.4014 94.544 59.5811C94.3023 60.2278 93.9728 60.8015 93.574 61.291C93.975 60.8005 94.3062 60.2252 94.5486 59.5764ZM95.1737 55.9715H95.1784C95.216 54.3735 94.9246 52.8977 94.2243 51.5159C92.8237 48.7476 89.4632 47.8264 86.8218 49.4573C86.4781 49.6698 86.175 49.913 85.9069 50.1819C86.1738 49.9149 86.4755 49.6732 86.8172 49.462C89.4586 47.8358 92.8191 48.757 94.2197 51.5206C94.9193 52.9011 95.2107 54.3753 95.1737 55.9715Z" fill="black"/>
<path fill-rule="evenodd" clip-rule="evenodd" d="M143.935 48.9362C143.444 48.9547 142.952 48.9732 142.46 48.9732C142.96 48.9742 143.46 48.9557 143.959 48.9371C145.588 48.8766 147.208 48.8165 148.787 49.4385C150.841 50.2516 151.696 51.9436 151.95 53.9834C152.133 55.4498 152.072 56.9303 151.724 58.3873C151.212 60.5258 149.891 61.7572 147.692 62.011C147.363 62.0492 147.035 62.0844 146.705 62.1175C146.705 62.1175 146.705 62.1175 146.705 62.1175C147.037 62.0845 147.367 62.0494 147.696 62.011C149.896 61.7572 151.221 60.5258 151.729 58.3873C152.077 56.9303 152.138 55.4545 151.954 53.9834C151.701 51.9436 150.845 50.2469 148.791 49.4385C147.204 48.8131 145.573 48.8745 143.935 48.9362ZM142.691 62.4656C142.667 62.4677 142.643 62.4698 142.619 62.472L142.46 62.4857H142.465C142.541 62.4789 142.616 62.4722 142.691 62.4656Z" fill="black"/>
<path fill-rule="evenodd" clip-rule="evenodd" d="M163.963 66.6546H174.637V66.6499H163.966C163.965 66.6515 163.964 66.6531 163.963 66.6546Z" fill="black"/>
<path fill-rule="evenodd" clip-rule="evenodd" d="M71.9369 82.2398C72.7827 82.2959 73.4891 81.474 73.488 80.4391C73.488 80.433 73.488 80.427 73.4879 80.4209L73.488 80.4391C73.487 81.4717 72.7814 82.2911 71.9369 82.2351C71.4086 82.1987 70.9764 81.8523 70.748 81.3392M71.9369 82.2398C71.407 82.2033 70.9758 81.8549 70.748 81.3392Z" fill="black"/>
<path fill-rule="evenodd" clip-rule="evenodd" d="M87.1133 79.3681C87.2977 79.7971 87.3932 80.233 87.3122 80.7049C87.3918 80.2355 87.2935 79.7967 87.1133 79.3681Z" fill="black"/>
<path fill-rule="evenodd" clip-rule="evenodd" d="M92.0393 80.5345C92.0392 80.5342 92.039 80.534 92.0389 80.5337H92.0435C92.0421 80.534 92.0407 80.5342 92.0393 80.5345ZM90.8704 82.2311C91.2127 82.2314 91.5416 82.0759 91.8321 81.8638C92.2596 81.5538 92.4053 81.1357 92.0393 80.5345C92.0379 80.5348 92.0365 80.535 92.0351 80.5353C92.4005 81.136 92.2547 81.5539 91.8274 81.8638C91.5377 82.0754 91.2119 82.2306 90.8704 82.2311Z" fill="black"/>
</g>
</g>
<defs>
<clipPath id="clip0_665_5531">
<rect width="231" height="127" fill="white"/>
</clipPath>
<clipPath id="clip1_665_5531">
<rect width="178.13" height="42.77" fill="white" transform="translate(26.4351 42.1172)"/>
</clipPath>
</defs>
</svg>
