<svg width="231" height="127" viewBox="0 0 231 127" fill="none" xmlns="http://www.w3.org/2000/svg">
<g clip-path="url(#clip0_518_1939)">
<g clip-path="url(#clip1_518_1939)">
<path d="M36.7387 88.2546C36.6923 88.2365 36.6484 88.2094 36.6007 88.2043C36.1005 88.1437 35.7421 87.8639 35.4623 87.4656C35.1851 87.0698 35.0214 86.6224 34.8951 86.1609C34.6823 85.381 34.5843 84.583 34.5482 83.7785C34.4889 82.4584 34.5005 81.137 34.6114 79.8207C34.6978 78.7932 34.8267 77.7683 34.935 76.7421C34.944 76.6545 34.9466 76.5668 34.9518 76.4624C34.8061 76.4817 34.7623 76.5913 34.7004 76.6686C34.0609 77.4538 33.433 78.2492 32.7858 79.0278C32.087 79.8684 31.3599 80.6857 30.5154 81.3845C30.1493 81.6874 29.7574 81.962 29.3525 82.2108C29.1114 82.3591 28.8304 82.4584 28.5545 82.5293C27.8789 82.7046 27.3194 82.4906 26.912 81.9195C26.4556 81.2801 26.1629 80.5671 26.0146 79.7962C25.78 78.5818 25.9579 77.4048 26.3576 76.2522C26.7856 75.0211 27.438 73.9111 28.2025 72.863C29.3732 71.2566 30.7617 69.8553 32.2766 68.5764C33.6006 67.46 35.0033 66.4544 36.5234 65.6177C37.1422 65.2774 37.774 64.9628 38.4521 64.7566C38.7254 64.674 39.0116 64.6199 39.2953 64.5812C39.6253 64.5374 39.8793 64.6534 40.074 64.9525C40.8476 66.1476 41.4032 67.4368 41.7913 68.8007C42.2129 70.2768 42.4372 71.7852 42.5275 73.3168C42.5893 74.37 42.5855 75.4207 42.5133 76.4714C42.325 79.1826 41.8145 81.8228 40.7367 84.3328C40.3318 85.2765 39.8432 86.1725 39.1625 86.9512C38.5759 87.6241 37.8745 88.0973 36.9669 88.2107C36.9295 88.2159 36.8934 88.2391 36.8573 88.2546H36.7387V88.2546Z" fill="#EEEEEE"/>
<path d="M46.2171 38.5547C46.698 38.828 46.9249 39.2882 47.1054 39.7781C47.3375 40.4085 47.4329 41.066 47.4638 41.7325C47.5425 43.4407 47.313 45.1205 46.9571 46.7849C46.2003 50.3146 45.0297 53.7052 43.4594 56.9552C43.1319 57.6334 42.7451 58.2844 42.3558 58.929C42.0515 59.4344 41.6609 59.8727 41.1542 60.1924C40.4735 60.6204 39.736 60.5933 39.0952 60.1112C38.9302 59.9861 38.7613 59.8508 38.6414 59.6857C38.3397 59.268 38.0432 58.8439 37.7841 58.3991C36.7037 56.5401 35.7947 54.6012 35.1101 52.5591C34.6164 51.0869 34.2489 49.5837 34.0852 48.0379C33.9395 46.6701 33.9331 45.3036 34.2412 43.9499C34.3559 43.4446 34.5094 42.9508 34.7711 42.5009C34.9142 42.2534 35.0766 42.0084 35.2726 41.8021C35.7612 41.2903 36.4316 41.1782 37.0788 41.4644C37.4991 41.65 37.8215 41.9556 38.1064 42.3062C38.5538 42.858 38.9019 43.4716 39.1752 44.124C39.491 44.8743 39.7747 45.6375 40.0738 46.3942C40.1125 46.4909 40.1576 46.585 40.2246 46.7346C40.311 46.5915 40.3703 46.5038 40.4206 46.4097C41.0639 45.2224 41.6957 44.0299 42.3519 42.849C42.8921 41.8769 43.4748 40.9294 44.1569 40.0463C44.6274 39.4378 45.1354 38.8705 45.8625 38.5547H46.2197H46.2171Z" fill="#EEEEEE"/>
<path d="M214.455 72.1628C213.741 72.1628 213.025 72.168 212.311 72.1628C212.064 72.1615 211.813 72.1577 211.57 72.1203C210.871 72.0146 210.504 71.575 210.506 70.8762C210.506 70.7808 210.506 70.6854 210.506 70.5281C210.427 70.6364 210.382 70.697 210.34 70.7576C209.479 71.9836 208.276 72.4761 206.811 72.3859C206.15 72.3446 205.524 72.1564 204.948 71.8173C203.463 70.9446 203.053 69.2686 203.456 67.9266C203.674 67.1995 204.142 66.6619 204.766 66.248C205.388 65.8368 206.079 65.5931 206.797 65.4243C207.808 65.187 208.834 65.1007 209.87 65.1071C210.006 65.1071 210.143 65.1071 210.266 65.1071C210.527 64.0796 209.934 63.1166 208.958 62.9271C208.494 62.8369 208.028 62.8381 207.568 62.9451C207.416 62.98 207.265 63.0405 207.126 63.1127C206.927 63.2159 206.815 63.3835 206.823 63.6194C206.828 63.787 206.823 63.9546 206.823 64.1106C206.598 64.1905 204.667 64.2124 204.254 64.1505C204.242 64.1364 204.217 64.1209 204.217 64.1067C204.226 63.5833 204.202 63.0547 204.26 62.5365C204.311 62.0711 204.617 61.7282 204.992 61.4574C205.384 61.1725 205.829 61.0011 206.295 60.894C207.644 60.5846 208.994 60.5666 210.333 60.934C212.011 61.393 212.926 62.5494 213.079 64.2485C213.17 65.2528 213.128 66.27 213.137 67.282C213.143 67.9175 213.13 68.5518 213.126 69.1874C213.126 69.266 213.126 69.3472 213.136 69.4246C213.168 69.6425 213.287 69.7624 213.51 69.7791C213.707 69.7933 213.907 69.7791 214.106 69.7894C214.222 69.7946 214.338 69.823 214.454 69.8397V72.1641L214.455 72.1628ZM210.328 67.0796C209.499 66.9597 208.044 67.095 207.325 67.3812C207.062 67.4857 206.812 67.6404 206.583 67.808C206.352 67.9768 206.226 68.2308 206.182 68.5157C206.063 69.2879 206.504 69.939 207.267 70.1208C207.924 70.2768 208.534 70.1633 209.078 69.7701C209.789 69.2544 210.186 68.5389 210.323 67.6803C210.354 67.4895 210.327 67.2897 210.327 67.0796H210.328Z" fill="#EEEEEE"/>
<path d="M22.3763 69.6598C21.5886 69.6521 20.8343 69.5541 20.1136 69.2628C19.4084 68.9766 18.8141 68.5408 18.3448 67.9414C17.7891 67.2323 17.4243 66.4291 17.2695 65.546C17.0903 64.5237 17.383 63.6007 17.9799 62.7666C18.466 62.0884 19.0745 61.5367 19.763 61.0713C20.8524 60.3339 22.023 59.7473 23.2324 59.2342C23.5057 59.1182 23.779 58.9905 24.0252 58.8281C24.4713 58.5354 24.6067 58.1551 24.4597 57.642C24.3927 57.4048 24.287 57.1779 24.1812 56.9549C23.9221 56.4057 23.6797 55.8526 23.5585 55.2545C23.2478 53.7178 23.9724 52.493 25.4757 52.0225C26.2673 51.775 27.064 51.8239 27.8608 51.9941C29.0044 52.2378 30.0461 52.7161 30.9872 53.4058C33.05 54.9193 34.6062 56.8453 35.6363 59.1865C36.0566 60.1405 36.3106 61.1344 36.2758 62.1903C36.2667 62.4739 36.1971 62.7227 36.0012 62.9225C35.6685 63.2629 35.3501 63.6226 34.9839 63.923C32.2507 66.1713 29.2377 67.9272 25.8663 69.0385C24.7292 69.4123 23.5624 69.6431 22.3776 69.6598H22.3763Z" fill="#EEEEEE"/>
<path d="M55.7128 55.5021C56.556 55.4751 57.3089 55.7033 57.9754 56.2138C58.4937 56.6121 58.8973 57.0866 58.994 57.7634C59.0623 58.2443 58.9437 58.6903 58.7567 59.1235C58.486 59.7513 58.0812 60.2915 57.6196 60.7878C56.3561 62.1453 54.8774 63.2244 53.2709 64.1371C53.0389 64.2686 52.8107 64.4156 52.6121 64.5909C52.3324 64.8372 52.3259 65.0937 52.5825 65.3657C52.7307 65.523 52.9112 65.6532 53.0892 65.7783C53.6951 66.205 54.2211 66.7155 54.6659 67.3059C54.9728 67.7133 55.201 68.1658 55.3131 68.6686C55.4717 69.3828 55.3015 70.0274 54.8851 70.6127C54.4687 71.1993 53.8988 71.6131 53.2954 71.9857C52.5554 72.4421 51.7574 72.7231 50.8884 72.7863C50.2347 72.834 49.6017 72.7192 48.988 72.4988C48.1436 72.1945 47.4151 71.7021 46.7512 71.1078C45.5096 69.9952 44.5388 68.666 43.7343 67.2183C43.2818 66.4048 42.8886 65.5565 42.5005 64.7082C42.2813 64.2287 42.1846 63.7104 42.1666 63.1767C42.1318 62.1415 42.5482 61.3112 43.3449 60.6937C43.8993 60.2644 44.5079 59.8983 45.1151 59.5438C47.0206 58.4299 48.9906 57.4411 51.0496 56.6405C52.1519 56.2112 53.2735 55.8399 54.4455 55.6465C54.8658 55.5769 55.2925 55.5486 55.7154 55.5021H55.7128Z" fill="#EEEEEE"/>
<path d="M114.998 71.5392C114.991 70.7296 115.001 69.9329 115.014 69.0975C115.239 69.0975 115.425 69.1001 115.611 69.0975C115.992 69.0911 116.115 68.9957 116.156 68.6192C116.219 68.0468 116.262 67.4731 116.312 66.8994C116.427 65.5845 116.54 64.2695 116.654 62.9545C116.739 61.9657 116.823 60.9769 116.906 59.9881C117.011 58.7518 117.114 57.5155 117.221 56.2804C117.229 56.194 117.254 56.1102 117.273 56.02C117.363 56.0123 117.43 56.002 117.498 56.002C118.332 56.002 119.166 56.0097 120.002 56.0045C120.182 56.0045 120.289 56.0535 120.364 56.2301C121.429 58.7647 122.503 61.2954 123.567 63.8299C123.755 64.2772 123.903 64.7426 124.071 65.199C124.098 65.2725 124.126 65.346 124.165 65.4452C124.201 65.3988 124.232 65.3743 124.242 65.3434C124.911 63.4393 125.787 61.6228 126.578 59.7702C127.066 58.6293 127.574 57.4974 128.058 56.3552C128.149 56.1412 128.257 56.0535 128.498 56.06C129.303 56.0793 130.107 56.0729 130.912 56.078C131.213 56.0806 131.217 56.0909 131.24 56.4003C131.373 58.182 131.51 59.9623 131.643 61.744C131.733 62.952 131.817 64.1599 131.906 65.3666C131.986 66.465 132.067 67.5634 132.149 68.6618C132.18 69.0691 132.296 69.1774 132.708 69.1955C132.894 69.2032 133.083 69.2148 133.312 69.2264C133.329 70.0386 133.311 70.834 133.266 71.6488C133.157 71.6591 133.07 71.6733 132.983 71.6733C132.189 71.6643 131.394 71.6604 130.601 71.6372C129.889 71.6166 129.499 71.2762 129.384 70.5711C129.323 70.1998 129.299 69.822 129.273 69.4456C129.181 68.168 129.098 66.8904 129.01 65.6141C128.939 64.5841 128.856 63.5553 128.801 62.5252C128.774 62.0212 128.796 61.5158 128.796 61.0066C128.78 61.0246 128.756 61.0427 128.748 61.0672C128.36 62.3435 127.815 63.5553 127.254 64.7633C126.653 66.0602 126.061 67.361 125.477 68.6656C125.382 68.8784 125.271 68.9647 125.033 68.957C124.437 68.9364 123.84 68.9364 123.244 68.9467C123.043 68.9493 122.945 68.8745 122.867 68.694C122.045 66.8221 121.205 64.9579 120.395 63.0809C120.136 62.4814 119.948 61.851 119.727 61.2335C119.701 61.16 119.677 61.0878 119.615 61.0143C119.611 61.0852 119.602 61.1574 119.604 61.2283C119.634 62.2532 119.551 63.2717 119.46 64.2901C119.386 65.1307 119.326 65.9725 119.257 66.8131C119.161 67.9708 119.063 69.1272 118.965 70.2836C118.961 70.3235 118.958 70.3622 118.951 70.4022C118.821 71.2015 118.407 71.565 117.595 71.5715C116.82 71.5779 116.045 71.5715 115.27 71.5676C115.193 71.5676 115.117 71.5521 115 71.5392H114.998Z" fill="#EEEEEE"/>
<path d="M189.724 70.578C189.682 70.6296 189.64 70.6812 189.598 70.734C188.884 71.6468 187.934 72.1212 186.792 72.2346C186.152 72.2978 185.522 72.2527 184.903 72.0774C183.583 71.7035 182.644 70.8681 182.023 69.6627C181.613 68.866 181.413 68.0113 181.336 67.1217C181.24 66.0182 181.343 64.9378 181.722 63.8962C182.234 62.4845 183.139 61.4222 184.565 60.8679C185.657 60.4437 186.776 60.4192 187.899 60.7351C188.563 60.922 189.138 61.2637 189.618 61.8361C189.635 61.7329 189.653 61.6736 189.654 61.6143C189.667 60.9091 189.678 60.2052 189.689 59.5001C189.689 59.4498 189.691 59.4008 189.689 59.3505C189.668 58.9921 189.526 58.849 189.17 58.8361C188.982 58.8297 188.793 58.8361 188.604 58.8335C188.527 58.8323 188.45 58.8207 188.331 58.809C188.318 58.0304 188.318 57.262 188.34 56.4653C188.454 56.455 188.549 56.4382 188.646 56.4395C189.49 56.4498 190.335 56.4614 191.178 56.4782C191.305 56.4808 191.434 56.504 191.561 56.5311C192.064 56.6393 192.354 56.9616 192.452 57.4567C192.49 57.6501 192.506 57.8512 192.506 58.0484C192.497 60.0931 192.48 62.139 192.467 64.1837C192.458 65.8119 192.452 67.4402 192.445 69.0684C192.445 69.1277 192.445 69.1883 192.452 69.2463C192.481 69.5132 192.606 69.6382 192.874 69.6511C193.063 69.6601 193.252 69.6511 193.44 69.655C193.538 69.6563 193.635 69.664 193.776 69.6717C193.785 70.4569 193.774 71.2239 193.763 72.0206C193.658 72.0335 193.573 72.0516 193.489 72.0516C192.704 72.0477 191.92 72.0438 191.135 72.0335C190.987 72.0309 190.837 72.0116 190.692 71.9832C190.135 71.8724 189.828 71.5256 189.782 70.9583C189.773 70.841 189.78 70.7211 189.78 70.6025L189.726 70.5793L189.724 70.578ZM184.185 66.4578C184.185 66.5674 184.178 66.677 184.185 66.7852C184.236 67.5188 184.407 68.2162 184.844 68.8247C185.335 69.5067 186.007 69.8612 186.846 69.8806C188.015 69.9077 188.951 69.2592 189.393 68.135C189.562 67.7057 189.645 67.2584 189.678 66.802C189.747 65.8609 189.617 64.9585 189.1 64.1463C188.525 63.2439 187.574 62.7862 186.365 63.0427C185.434 63.2413 184.846 63.8601 184.489 64.7135C184.256 65.2705 184.172 65.857 184.185 66.4591V66.4578Z" fill="#EEEEEE"/>
<path d="M150.461 71.7466H147.643C147.643 71.3869 147.64 71.053 147.643 70.7178C147.65 69.8348 147.663 68.9504 147.67 68.0673C147.682 66.0213 147.69 63.9767 147.703 61.9307C147.708 61.0773 147.721 60.2226 147.73 59.3691C147.73 59.2596 147.735 59.15 147.729 59.0417C147.711 58.7323 147.574 58.5943 147.26 58.584C146.982 58.575 146.705 58.5827 146.441 58.5827C146.351 58.3275 146.342 56.551 146.423 56.2003C146.502 56.1939 146.588 56.1797 146.674 56.1797C147.459 56.1797 148.245 56.1797 149.028 56.1861C149.166 56.1861 149.306 56.2016 149.444 56.2235C150.149 56.337 150.518 56.7289 150.551 57.4444C150.574 57.9394 150.559 58.4371 150.555 58.9334C150.546 60.0846 150.533 61.2359 150.523 62.4103C150.565 62.3575 150.607 62.3136 150.64 62.2634C151.426 61.0979 152.542 60.4894 153.924 60.3579C154.559 60.2973 155.194 60.3489 155.813 60.5281C156.825 60.8208 157.53 61.4512 157.91 62.4374C158.16 63.0859 158.248 63.7627 158.248 64.4524C158.248 65.8821 158.243 67.3118 158.239 68.7428C158.239 68.8227 158.236 68.9014 158.24 68.9813C158.254 69.2946 158.385 69.4338 158.698 69.4506C158.876 69.4596 159.055 69.4506 159.234 69.4544C159.331 69.4557 159.429 69.4648 159.566 69.4725C159.573 70.2589 159.569 71.0273 159.568 71.8201C159.429 71.8291 159.322 71.8433 159.216 71.842C158.461 71.8343 157.706 71.8278 156.951 71.8137C156.754 71.8098 156.554 71.7943 156.359 71.7569C155.882 71.6667 155.578 71.3792 155.48 70.9009C155.439 70.6985 155.419 70.4884 155.419 70.2808C155.423 68.6319 155.439 66.9844 155.439 65.3355C155.439 64.9694 155.423 64.5981 155.36 64.2397C155.209 63.3811 154.684 62.9647 153.812 62.926C152.221 62.8551 150.952 63.9406 150.626 65.4966C150.545 65.8821 150.512 66.283 150.507 66.6788C150.488 68.2671 150.488 69.8567 150.48 71.4449C150.48 71.5416 150.469 71.6383 150.461 71.7505V71.7466Z" fill="#EEEEEE"/>
<path d="M180.21 69.58V71.9418C180.111 71.9573 180.036 71.9805 179.961 71.9805C179.087 71.9702 178.214 71.9586 177.34 71.9392C177.193 71.9354 177.044 71.9057 176.901 71.867C176.493 71.7549 176.229 71.4867 176.127 71.078C176.079 70.8872 176.052 70.6861 176.054 70.4902C176.056 68.8426 176.074 67.195 176.073 65.5461C176.073 65.1413 176.057 64.7301 175.985 64.3317C175.834 63.4963 175.32 63.0825 174.473 63.0567C173.038 63.0116 171.889 63.8083 171.413 65.1581C171.216 65.7189 171.141 66.2952 171.139 66.8843C171.13 68.3927 171.125 69.9023 171.118 71.4107C171.118 71.5589 171.118 71.7059 171.118 71.8748C171.018 71.8928 170.943 71.9199 170.869 71.9186C170.075 71.9096 169.281 71.898 168.487 71.8851C168.44 71.8851 168.393 71.867 168.312 71.8516C168.312 71.7381 168.312 71.6311 168.312 71.5254C168.317 70.0763 168.322 68.6273 168.33 67.177C168.336 66.0154 168.346 64.8539 168.355 63.6936C168.355 63.6446 168.358 63.5943 168.354 63.5453C168.33 63.2475 168.199 63.1173 167.9 63.1057C167.712 63.098 167.522 63.1057 167.334 63.1018C167.238 63.1006 167.141 63.0877 167.008 63.0786C166.99 62.2806 167.009 61.5033 167.013 60.704C167.16 60.6962 167.266 60.6833 167.373 60.6846C168.157 60.6924 168.942 60.7001 169.726 60.7156C169.883 60.7181 170.043 60.7426 170.196 60.7813C170.734 60.9167 171.041 61.2996 171.061 61.8526C171.071 62.1001 171.063 62.3477 171.063 62.6519C171.139 62.5552 171.187 62.5011 171.228 62.4405C172.098 61.1668 173.31 60.5235 174.845 60.4758C175.334 60.4603 175.819 60.5016 176.293 60.6189C177.662 60.9579 178.441 61.8616 178.749 63.2076C178.881 63.7825 178.905 64.3678 178.903 64.9531C178.898 66.3235 178.885 67.6926 178.88 69.063C178.88 69.4266 179.016 69.5633 179.385 69.5774C179.651 69.5877 179.919 69.58 180.209 69.58H180.21Z" fill="#EEEEEE"/>
<path d="M141.582 64.6849C141.625 64.1886 141.572 63.7593 141.398 63.3506C141.157 62.7872 140.681 62.5449 140.11 62.4714C139.696 62.4185 139.276 62.4121 138.866 62.5165C138.705 62.5577 138.543 62.6196 138.396 62.6983C138.199 62.804 138.095 62.9793 138.101 63.2114C138.105 63.3777 138.101 63.5427 138.101 63.6974C137.814 63.7722 135.781 63.7747 135.503 63.7077C135.494 63.6574 135.474 63.6007 135.474 63.544C135.476 63.1662 135.474 62.7898 135.492 62.4134C135.518 61.8397 135.778 61.3781 136.25 61.0623C136.535 60.8715 136.849 60.6975 137.176 60.5969C138.652 60.1431 140.15 60.1018 141.64 60.5105C143.243 60.9488 144.129 62.0447 144.349 63.6677C144.428 64.244 144.419 64.8357 144.421 65.4197C144.425 66.5413 144.407 67.6629 144.402 68.7845C144.399 69.2177 144.532 69.3466 144.974 69.3505C145.219 69.3531 145.465 69.3505 145.747 69.3505C145.766 70.1627 145.734 70.9297 145.739 71.7123C145.63 71.7252 145.554 71.7419 145.478 71.7419C144.743 71.7419 144.009 71.7419 143.274 71.7355C143.145 71.7355 143.016 71.7174 142.888 71.6981C142.184 71.5937 141.818 71.1837 141.794 70.4734C141.79 70.3689 141.794 70.2658 141.745 70.1511C141.691 70.2297 141.636 70.3083 141.581 70.3857C140.935 71.2971 140.052 71.8077 138.944 71.9327C138.01 72.0384 137.118 71.8889 136.3 71.4196C135.226 70.8034 134.664 69.8649 134.612 68.6234C134.56 67.3638 135.088 66.4202 136.145 65.7588C136.916 65.2766 137.774 65.0356 138.658 64.877C139.482 64.7287 140.312 64.672 141.149 64.6836C141.286 64.6849 141.422 64.6836 141.587 64.6836L141.582 64.6849ZM141.602 66.6342C140.668 66.6058 139.758 66.6264 138.867 66.8714C138.531 66.9642 138.21 67.097 137.934 67.3187C137.613 67.5766 137.44 67.9066 137.44 68.323C137.439 68.9856 137.846 69.5206 138.505 69.6934C139.201 69.8765 139.847 69.7501 140.418 69.3118C141.078 68.8051 141.452 68.1206 141.594 67.3071C141.631 67.0957 141.685 66.8804 141.6 66.6342H141.602Z" fill="#EEEEEE"/>
<path d="M104.911 69.8109V71.4933C104.42 71.5204 103.95 71.523 103.464 71.4792C103.453 71.385 103.435 71.309 103.436 71.2329C103.445 69.1483 103.455 67.0637 103.467 64.9791C103.48 62.6469 103.495 60.3135 103.508 57.9814C103.511 57.5263 103.385 57.4077 102.922 57.4012C102.704 57.3987 102.485 57.3961 102.267 57.3909C102.238 57.3909 102.211 57.3742 102.146 57.3522C102.127 56.9423 102.124 56.5246 102.148 56.1301C102.184 56.0979 102.192 56.0863 102.2 56.0863C102.843 56.094 103.49 56.0656 104.13 56.1237C104.678 56.1739 104.942 56.4949 105.021 57.0441C105.042 57.1911 105.053 57.3406 105.053 57.4889C105.053 58.76 105.048 60.0299 105.044 61.301C105.044 61.5769 105.044 61.8515 105.044 62.1545C105.085 62.1042 105.122 62.0668 105.152 62.0217C105.888 60.9194 106.943 60.3625 108.24 60.2452C108.968 60.1781 109.689 60.2439 110.383 60.4992C111.588 60.9439 112.407 61.7935 112.937 62.9434C113.277 63.6822 113.451 64.466 113.514 65.2717C113.602 66.3817 113.514 67.4749 113.118 68.5269C112.598 69.9141 111.7 70.9519 110.288 71.4869C109.404 71.8221 108.489 71.8917 107.564 71.6854C106.541 71.4572 105.737 70.8887 105.131 70.0366C105.075 69.9566 105.022 69.8754 104.966 69.7955C104.948 69.8006 104.932 69.8071 104.914 69.8122L104.911 69.8109ZM111.971 65.9846C111.97 64.9443 111.753 64.0405 111.328 63.2954C110.456 61.7677 108.884 61.3268 107.421 61.787C106.311 62.1364 105.634 62.9331 105.267 64.0044C104.925 64.9997 104.872 66.0233 105.04 67.0585C105.159 67.7921 105.397 68.4844 105.838 69.089C106.627 70.1732 107.7 70.5973 109.015 70.3743C110.087 70.1925 110.845 69.5557 111.361 68.621C111.812 67.8024 111.975 66.9116 111.971 65.9846V65.9846Z" fill="#EEEEEE"/>
<path d="M81.4496 67.9744C81.7513 68.3611 82.0298 68.7195 82.3238 69.096C82.24 69.1888 82.1742 69.2752 82.0969 69.3474C80.8024 70.5579 79.276 71.285 77.5187 71.5171C76.3004 71.6782 75.0988 71.5944 73.9294 71.2012C72.1722 70.6108 70.7978 69.5188 69.8799 67.9151C68.4488 65.4128 68.2451 62.7815 69.4002 60.1361C70.5451 57.5165 72.6131 56.0352 75.4623 55.6962C77.003 55.5131 78.4895 55.7761 79.9219 56.3588C80.4118 56.5586 80.8669 56.8216 81.2653 57.1749C81.8467 57.6905 82.1652 58.3209 82.1252 59.1164C82.1072 59.4722 82.1226 59.828 82.1226 60.2225C81.6121 60.2573 81.1351 60.247 80.6348 60.2109C80.6284 60.0897 80.6181 59.993 80.6181 59.8963C80.6181 59.7274 80.6181 59.5586 80.6232 59.3897C80.6335 59.021 80.5046 58.6974 80.2442 58.4499C80.016 58.2333 79.7697 58.0128 79.4913 57.8762C77.5612 56.9364 75.5926 56.8087 73.6393 57.7679C72.0419 58.5517 71.0492 59.8757 70.5928 61.58C70.0655 63.5499 70.2873 65.4476 71.3483 67.2022C72.3049 68.784 73.7089 69.7638 75.5513 70.0332C77.1654 70.2691 78.6739 69.912 80.056 69.056C80.475 68.7956 80.8476 68.4617 81.2408 68.1587C81.3027 68.111 81.3581 68.0543 81.4509 67.9718L81.4496 67.9744Z" fill="#EEEEEE"/>
<path d="M98.2801 60.4355H99.7821C99.7873 60.7088 99.7963 60.964 99.795 61.2193C99.7873 62.3615 99.7744 63.5025 99.7692 64.6447C99.7615 66.2433 99.7589 67.8419 99.7538 69.4404C99.7538 69.4997 99.7538 69.5591 99.7538 69.6196C99.7628 70.0103 99.8827 70.1366 100.271 70.1521C100.547 70.1624 100.823 70.1624 101.111 70.1675V71.4387C101.019 71.4503 100.951 71.467 100.884 71.467C100.418 71.4683 99.951 71.4683 99.483 71.4645C99.3838 71.4645 99.2845 71.4554 99.1865 71.4374C98.5896 71.3265 98.2814 70.9823 98.2608 70.3738C98.2466 69.9381 98.2582 69.5023 98.2582 69.0653C98.2273 69.1143 98.1886 69.1736 98.1512 69.2355C97.2101 70.8212 95.837 71.6746 93.974 71.6965C93.4841 71.703 93.0019 71.6501 92.5313 71.5122C91.6469 71.253 91.0229 70.7 90.6658 69.8465C90.3925 69.1942 90.2842 68.5071 90.279 67.8109C90.2648 66.1324 90.2803 64.4552 90.2842 62.7766C90.2842 62.5678 90.2945 62.3589 90.2842 62.1514C90.2687 61.8342 90.1385 61.7079 89.8188 61.6937C89.6305 61.6847 89.441 61.6911 89.2528 61.6911C89.1561 61.6911 89.0581 61.6911 88.924 61.6911C88.8956 61.2386 88.906 60.8197 88.9176 60.3916C89.0233 60.3788 89.0903 60.3633 89.1574 60.3633C89.6241 60.3633 90.0908 60.3659 90.5588 60.3671C90.6078 60.3671 90.6581 60.371 90.7071 60.3762C91.4819 60.4638 91.8287 60.8261 91.83 61.6048C91.83 63.273 91.8197 64.9412 91.8003 66.6094C91.7926 67.2759 91.8003 67.9385 91.9447 68.5935C91.9576 68.6515 91.9731 68.7095 91.9911 68.7662C92.2683 69.6828 92.8743 70.1753 93.8296 70.241C95.4128 70.3506 96.6299 69.7228 97.4782 68.3885C98.0158 67.5428 98.2273 66.6004 98.2363 65.609C98.2505 64.0104 98.2544 62.4118 98.2634 60.8132C98.2634 60.6959 98.2737 60.5799 98.2801 60.4355V60.4355Z" fill="#EEEEEE"/>
<path d="M194.744 63.2338V60.8682C194.845 60.8591 194.93 60.8424 195.016 60.8437C195.84 60.854 196.664 60.8669 197.489 60.8798C197.568 60.881 197.648 60.8875 197.726 60.9004C198.403 61.0125 198.76 61.4096 198.782 62.0955C198.795 62.5119 198.785 62.9283 198.814 63.3576C198.859 63.2635 198.905 63.1706 198.948 63.0765C199.334 62.254 199.892 61.5862 200.698 61.1466C201.297 60.8192 201.939 60.6812 202.623 60.7599C202.661 60.765 202.701 60.7715 202.74 60.7818C202.758 60.7869 202.775 60.7985 202.793 60.8088C202.859 61.0254 202.863 63.1835 202.793 63.5187C202.544 63.5187 202.289 63.5136 202.035 63.5187C201.156 63.5381 200.416 63.8745 199.821 64.5217C199.409 64.9716 199.168 65.5118 199.028 66.101C198.87 66.7726 198.847 67.4559 198.847 68.1417C198.847 69.3226 198.838 70.5048 198.831 71.6857C198.831 71.7927 198.821 71.8997 198.814 71.999C198.573 72.0712 196.401 72.0841 196.05 72.0183C196.042 71.9487 196.027 71.8739 196.027 71.7979C196.035 69.663 196.044 67.5294 196.054 65.3945C196.057 64.8685 196.069 64.3425 196.075 63.8165C196.077 63.3988 195.95 63.2635 195.531 63.2454C195.277 63.2351 195.021 63.2377 194.747 63.2338H194.744Z" fill="#EEEEEE"/>
<path d="M165.948 71.8812C165.841 71.8812 165.744 71.8812 165.646 71.8812C164.861 71.8787 164.077 71.8774 163.292 71.8696C163.124 71.8683 162.954 71.8477 162.791 71.8129C162.33 71.7162 162.027 71.4416 161.923 70.9775C161.882 70.7957 161.857 70.6049 161.857 70.418C161.864 68.2238 161.878 66.0309 161.888 63.8367C161.888 63.7078 161.892 63.5776 161.878 63.4499C161.851 63.1934 161.735 63.0799 161.474 63.0632C161.276 63.0516 161.077 63.0606 160.879 63.0567C160.782 63.0555 160.685 63.0451 160.568 63.0374V60.6808C160.665 60.6692 160.748 60.6511 160.833 60.6524C161.638 60.655 162.442 60.6589 163.247 60.6666C163.375 60.6666 163.505 60.6834 163.631 60.7053C164.296 60.8213 164.65 61.199 164.686 61.8733C164.71 62.3387 164.7 62.8066 164.697 63.272C164.691 65.1478 164.682 67.0249 164.674 68.9006C164.674 68.9702 164.674 69.0399 164.681 69.1082C164.708 69.3467 164.822 69.4692 165.062 69.4846C165.31 69.5001 165.559 69.4885 165.806 69.4975C166.003 69.504 166.037 69.5336 166.034 69.7244C166.024 70.3987 166.005 71.0742 165.988 71.7484C165.988 71.7768 165.971 71.8039 165.947 71.8812H165.948Z" fill="#EEEEEE"/>
<path d="M87.8251 70.1162V71.3654C87.731 71.3757 87.6459 71.395 87.5608 71.395C87.1044 71.395 86.6467 71.395 86.1903 71.386C86.042 71.3834 85.8925 71.3615 85.7481 71.3293C85.2904 71.2274 85.0248 70.9412 84.9578 70.4733C84.9268 70.258 84.9152 70.0388 84.9165 69.8209C84.9333 65.8992 84.9539 61.9775 84.9745 58.0558C84.9745 57.9462 84.9784 57.8367 84.9719 57.7284C84.9552 57.4344 84.8211 57.2965 84.5246 57.2836C84.2964 57.2733 84.0682 57.2823 83.8387 57.2784C83.7704 57.2784 83.7033 57.2643 83.595 57.2527C83.5795 56.8272 83.586 56.407 83.5924 56.0086C83.6427 55.9764 83.6595 55.957 83.6762 55.957C84.3015 55.9673 84.9281 55.9532 85.5495 55.9983C86.1026 56.0382 86.3824 56.3348 86.4791 56.8788C86.5049 57.0245 86.5216 57.174 86.5203 57.3223C86.4997 60.9165 86.4765 64.5108 86.4533 68.105C86.4507 68.5717 86.4404 69.0384 86.443 69.5051C86.4456 69.9254 86.5784 70.0491 87.0012 70.0569C87.2488 70.062 87.4976 70.0685 87.7451 70.0762C87.7619 70.0762 87.7799 70.093 87.8251 70.1175V70.1162Z" fill="#EEEEEE"/>
<path d="M164.45 58.8547H162.058C162.044 57.9909 162.049 57.1556 162.071 56.3047H164.447C164.518 56.5458 164.519 58.5427 164.449 58.8547H164.45Z" fill="#EEEEEE"/>
</g>
</g>
<defs>
<clipPath id="clip0_518_1939">
<rect width="231" height="127" fill="white"/>
</clipPath>
<clipPath id="clip1_518_1939">
<rect width="197.39" height="49.7549" fill="white" transform="translate(17.0649 38.5098)"/>
</clipPath>
</defs>
</svg>
