<svg width="220" height="47" viewBox="0 0 220 47" fill="none" xmlns="http://www.w3.org/2000/svg">
<g clip-path="url(#clip0_2622_1133)">
<path d="M128.686 30.3175C128.729 30.7766 128.809 31.2419 128.809 31.6949C128.809 36.7668 128.809 41.8387 128.809 47H1V0H128.733V8.21798C126.467 8.21798 124.184 8.17176 121.903 8.25496C121.628 8.2789 121.362 8.36375 121.124 8.50336C120.886 8.64298 120.682 8.83388 120.526 9.06227C117.145 16.0416 113.801 23.0547 110.46 30.0618C110.423 30.1419 110.46 30.2559 110.46 30.5178C112.024 30.5178 113.598 30.601 115.156 30.4654C115.584 30.4284 116.152 29.806 116.315 29.3346C116.736 28.1267 117.449 27.7261 118.703 27.8155C120.283 27.9264 121.875 27.8401 123.621 27.8401C123.683 28.669 123.738 29.4609 123.803 30.3576H128.748L128.686 30.3175ZM51.6836 31.0724C58.4271 31.1094 63.4709 26.1053 63.4647 19.3848C63.4586 12.6644 58.3994 7.61712 51.7082 7.6202C45.017 7.62328 39.9824 12.6213 39.9548 19.2061C39.924 26.1361 44.768 31.0385 51.6836 31.0724ZM112.59 19.5328C112.722 12.9017 107.789 7.7527 101.181 7.6202C94.6218 7.49078 89.2614 12.3809 89.1446 18.6022C89.0063 25.9019 93.6259 30.9492 100.557 31.0724C107.488 31.1957 112.449 26.4504 112.59 19.5328ZM38.5164 22.5032C37.0257 22.5032 35.6456 22.42 34.284 22.5463C33.7615 22.5956 33.2543 23.0825 32.7964 23.443C31.7114 24.3058 30.7954 25.5999 29.5722 26.0344C24.7712 27.7076 20.4405 23.8374 20.9231 18.5005C21.2028 15.4191 23.2928 13.0342 26.1697 12.5103C29.5076 11.894 31.4532 12.954 33.0176 16.1617C33.1652 16.4699 33.5525 16.8427 33.8445 16.855C35.3813 16.9259 36.8904 16.8889 38.4118 16.8889C38.4456 12.005 33.6539 7.84823 27.9186 7.62637C21.5163 7.37678 16.1744 11.854 15.6918 17.8719C15.1324 24.7834 19.3494 30.3052 25.7209 31.0016C33.4725 31.852 37.9231 27.1314 38.5133 22.5032H38.5164ZM87.6171 16.8304C87.3989 11.5058 82.2905 7.41683 76.2232 7.63869C68.9757 7.90368 64.4667 13.3731 64.8202 20.2969C65.1275 26.5767 70.3803 31.1803 77.1699 31.0817C82.7854 31.0077 87.4972 26.7678 87.5433 22.4939C86.2739 22.4939 85.0014 22.5432 83.732 22.4785C82.8099 22.4323 82.3612 22.7867 81.7957 23.5478C81.0519 24.5615 79.9915 25.5691 78.8481 26.0128C75.7745 27.2269 72.4365 25.8033 70.8874 22.8945C69.2799 19.8779 70.0853 15.6625 72.6425 13.6812C76.1833 10.9419 80.4463 12.2792 82.5149 16.815L87.6171 16.8304ZM13.9675 28.8662C12.7042 25.9019 11.4656 23.1194 10.3468 20.2877C10.1071 19.6141 10.1071 18.8782 10.3468 18.2047C11.4717 15.3329 12.7166 12.5072 13.9399 9.61385L10.6726 8.18718C9.3694 11.2223 8.17068 14.1958 6.81522 17.0954C6.13596 18.5498 6.09605 19.8132 6.78453 21.283C8.15228 24.2103 9.36325 27.2146 10.6757 30.2744L13.9675 28.8662Z" fill="white"/>
<path d="M170.397 19.5206C170.381 25.7388 165.685 31.4578 157.755 31.0572C151.706 30.7491 146.804 25.5416 146.948 19.1878C147.099 12.4704 152.241 7.54335 158.935 7.68817C165.63 7.83299 170.532 12.8772 170.397 19.5206ZM158.677 26.4198C162.366 26.4198 165.319 23.3168 165.273 19.4312C165.224 15.4255 162.399 12.3441 158.748 12.2825C155.143 12.2332 152.207 15.3916 152.17 19.3696C152.134 23.3476 154.94 26.4044 158.677 26.4198Z" fill="white"/>
<path d="M172.344 30.4131V7.99927C176.321 8.27043 180.304 8.11018 184.091 8.90517C189.488 10.036 192.55 15.376 191.79 21.1998C191.133 26.2471 186.688 30.2559 181.472 30.3977C178.463 30.4809 175.454 30.4131 172.344 30.4131ZM177.427 25.9389C181.666 26.5152 184.343 25.5106 185.843 22.8576C187.171 20.5065 186.968 17.2125 185.37 15.185C183.618 12.9633 180.578 12.1036 177.427 12.9941V25.9389Z" fill="white"/>
<path d="M128.729 30.3575C128.788 29.7412 128.892 29.1465 128.892 28.5426C128.908 22.1744 128.916 15.8063 128.914 9.43812C128.914 9.09301 128.954 8.74789 128.969 8.49522C132.78 8.49522 136.527 8.18708 140.194 8.58458C143.86 8.98207 146.51 12.8985 146.255 16.6824C145.969 20.8761 142.969 24.0284 138.98 24.2379C137.406 24.318 135.826 24.2379 134.062 24.2379V30.2928H128.695L128.729 30.3575ZM134.086 20.189C136.524 20.0349 139.075 20.9162 140.572 18.3001C140.998 17.622 141.2 16.827 141.152 16.0271C141.103 15.2273 140.806 14.4628 140.301 13.8414C138.62 11.6166 136.253 12.6951 134.086 12.4794V20.189Z" fill="white"/>
<path d="M209.024 14.6457H204.284C203.215 11.9341 202.591 11.2777 200.802 11.6722C199.994 11.8509 198.912 12.5966 198.727 13.2991C198.543 14.0017 199.118 15.1788 199.733 15.7365C200.486 16.4205 201.62 16.6824 202.597 17.1108C203.808 17.6438 205.056 18.0906 206.236 18.7038C208.483 19.8809 209.617 21.8222 209.531 24.3427C209.417 27.1498 208.031 29.2298 205.397 30.2805C202.631 31.3836 199.809 31.4237 197.062 30.1819C194.246 28.9031 192.875 26.5243 192.974 23.2149H197.772C197.912 23.7799 198.082 24.3373 198.279 24.885C199.016 26.6599 201.073 27.612 202.692 26.7339C203.43 26.3333 204.229 25.3781 204.303 24.617C204.377 23.8559 203.728 22.7342 203.055 22.2659C201.952 21.4986 200.569 21.1289 199.305 20.5865C198.512 20.2445 197.695 19.9395 196.932 19.5327C194.412 18.1923 193.29 16.1679 193.551 13.5333C193.819 10.8248 195.334 8.96981 198.122 8.20872C201.503 7.28431 204.733 7.39523 207.38 10.1099C207.967 10.7004 208.418 11.4122 208.702 12.1956C208.986 12.979 209.096 13.8152 209.024 14.6457Z" fill="white"/>
<path d="M215.451 30.2528L212.242 28.8631C213.49 25.905 214.729 23.0733 215.86 20.1953C216.076 19.5686 216.071 18.8864 215.844 18.2633C214.726 15.4253 213.502 12.6275 212.242 9.63545L215.439 8.21802C216.951 11.7616 218.454 15.262 219.923 18.7809C220.028 19.1095 220.011 19.4648 219.877 19.7824C218.448 23.2119 216.985 26.6292 215.451 30.2528Z" fill="white"/>
<path d="M123.673 13.6134V23.6216H118.891C120.47 20.1397 121.986 16.7902 123.501 13.4531L123.673 13.6134Z" fill="white"/>
<path d="M58.1464 19.4434C58.1464 23.4831 55.3802 26.4104 51.6027 26.398C47.9697 26.398 45.1943 23.3413 45.2189 19.3972C45.2435 15.3914 48.0958 12.3101 51.7349 12.3101C55.4232 12.3316 58.1403 15.3514 58.1464 19.4434Z" fill="white"/>
<path d="M107.294 19.468C107.294 23.4738 104.616 26.4011 100.925 26.4072C97.1538 26.4072 94.4029 23.4615 94.3906 19.4002C94.3906 15.4468 97.2921 12.2915 100.922 12.3131C104.641 12.347 107.297 15.3267 107.294 19.468Z" fill="white"/>
</g>
<defs>
<clipPath id="clip0_2622_1133">
<rect width="219" height="47" fill="white" transform="translate(0.992188)"/>
</clipPath>
</defs>
</svg>
