<svg width="231" height="127" viewBox="0 0 231 127" fill="none" xmlns="http://www.w3.org/2000/svg">
<g clip-path="url(#clip0_317_2117)">
<path d="M81.1178 48.3655H86.3058C86.6119 49.1169 86.3058 49.9049 86.5303 50.7583C88.314 48.5901 90.7019 47.9899 93.2694 47.9899C95.8695 47.9899 98.0573 48.978 99.6533 51.1258C100.351 50.5746 100.792 49.8845 101.506 49.4762C102.698 48.7902 103.902 48.2022 105.303 48.141C105.731 48.1206 106.139 47.9654 106.58 47.9613C108.266 47.9491 109.903 48.239 111.433 48.9249C112.74 49.5088 113.797 50.4562 114.629 51.6321C115.903 53.4206 116.532 55.4091 116.527 57.6059C116.523 61.0725 116.527 64.5392 116.532 68.0099C116.532 68.4509 116.478 68.8674 116.319 69.2798C115.785 70.6885 115.25 72.1013 114.731 73.4692C114.017 73.657 110.315 73.7019 109.025 73.559C108.78 73.2691 108.89 72.9138 108.89 72.5913C108.882 68.0385 108.886 63.4898 108.882 58.937C108.882 58.4756 108.829 58.0264 108.727 57.565C108.405 56.1073 107.429 55.3478 106.07 55.0947C105.131 54.9191 104.172 55.0212 103.319 55.5928C102.266 56.2992 101.78 57.2996 101.649 58.5287C101.294 61.7993 101.555 65.0781 101.49 68.3529C101.478 68.949 101.417 69.5166 101.2 70.0719C100.751 71.2193 100.331 72.3749 99.8778 73.5753H93.9878C93.7388 73.2446 93.8449 72.8934 93.8408 72.5627C93.8326 67.9813 93.8245 63.3999 93.8408 58.8145C93.8408 58.0142 93.6367 57.2751 93.2898 56.5932C92.8081 55.6418 91.9469 55.1763 90.906 55.0579C88.4732 54.7844 86.8528 56.2788 86.5956 58.5736C86.2731 61.4441 86.5221 64.3187 86.4364 67.1892C86.4078 68.1691 86.4895 69.145 86.065 70.0964C85.5629 71.2193 85.1711 72.3871 84.7221 73.5712H78.9626C78.7504 73.4038 78.7953 73.1752 78.7953 72.9628C78.7953 66.9238 78.7953 60.8888 78.7953 54.8497C78.7953 54.6659 78.7667 54.4618 78.832 54.2985C79.5749 52.3385 80.2239 50.3459 81.1178 48.3696V48.3655Z" fill="#EEEEEE"/>
<path d="M200.257 50.7233V48.6654H207.69V73.1892H200.351C200.147 72.5767 200.33 71.9479 200.228 71.3558C199.983 71.2578 199.873 71.4661 199.763 71.564C198.277 72.9156 196.522 73.5444 194.546 73.8466C192.971 74.0875 191.465 73.8996 189.975 73.5689C188.62 73.2668 187.391 72.5889 186.26 71.76C183.636 69.8409 182.154 67.1991 181.334 64.1081C181.097 63.218 181.207 62.4422 181.542 61.601C182.317 59.6533 183.007 57.673 183.734 55.7048C184.309 54.141 184.889 52.5812 185.472 51.0214C185.583 50.7274 185.77 50.5151 186.044 50.3232C187.424 49.3595 188.881 48.5796 190.55 48.2693C191.82 48.0325 193.073 47.8692 194.391 48.0856C195.681 48.2979 196.926 48.5511 198.081 49.1799C198.836 49.5923 199.465 50.1803 200.261 50.7233H200.257ZM188.562 61.1764C188.481 61.5398 188.677 62.0542 188.799 62.5483C189.179 64.1081 189.999 65.3698 191.473 66.1334C192.714 66.7744 194.003 66.9133 195.395 66.7499C196.934 66.5703 198.049 65.7536 199.024 64.6838C199.347 64.3327 199.579 63.8876 199.742 63.4058C200.155 62.1931 200.326 60.9844 200.085 59.6982C199.649 57.3667 197.865 55.5783 195.624 55.223C194.832 55.0964 194.044 55.0474 193.256 55.223C192.412 55.4149 191.579 55.6436 190.873 56.1744C189.277 57.383 188.652 59.0612 188.562 61.1764V61.1764Z" fill="#EEEEEE"/>
<path d="M135.941 48.3883H144.218C144.48 48.6741 144.276 48.8987 144.198 49.111C143.606 50.7321 142.998 52.349 142.394 53.966C141.733 55.7258 141.071 57.4857 140.406 59.2456C139.353 62.0426 138.296 64.8396 137.243 67.6407C136.594 69.3719 135.945 71.1032 135.308 72.8386C135.222 73.0713 135.161 73.3082 135.014 73.5123C134.349 73.6593 127.479 73.692 126.418 73.5532C126.173 73.3898 126.091 73.1163 125.997 72.859C122.965 64.7048 119.936 56.5507 116.887 48.3516H125.316C125.699 48.7681 125.675 49.2295 125.81 49.6296C127.079 53.3984 128.32 57.1795 129.597 60.9483C129.92 61.8956 130.124 62.8429 130.079 63.8474C130.046 64.5252 130.071 65.1989 130.34 65.9053C132.214 60.0418 134.075 54.2273 135.941 48.3924V48.3883Z" fill="#EEEEEE"/>
<path d="M155.988 48.34H164.495C164.915 49.5446 165.348 50.692 165.719 51.8638C166.136 53.1868 166.576 54.5016 167.034 55.8123C167.43 56.9474 167.781 58.0989 168.152 59.2381C168.336 59.7934 168.515 60.3488 168.715 60.9C169.197 62.227 169.299 63.6031 169.266 64.9995C169.258 65.3384 169.266 65.6774 169.34 66.0326C170.119 64.1502 170.638 62.1862 171.291 60.2671C171.956 58.3112 172.532 56.3268 173.156 54.3587C173.781 52.3906 174.422 50.4265 175.05 48.4788C175.797 48.2992 182.675 48.2869 183.577 48.4788C180.438 56.8535 177.308 65.2119 174.169 73.5906H165.454C162.311 65.1996 159.164 56.8086 155.988 48.3359V48.34Z" fill="#EEEEEE"/>
<path d="M48.3592 54.3225C47.4817 55.0126 42.6529 57.732 41.7998 58.0178C40.9344 56.8827 39.9303 55.8864 38.4078 55.5801C37.322 55.3637 36.2567 55.3025 35.2199 55.6822C34.2893 56.0252 33.4239 56.507 32.7872 57.3155C30.8361 59.7981 31.1871 63.1586 33.2443 65.1145C35.1954 66.9682 39.416 67.4991 41.8855 63.8119C44.0284 65.0369 46.1796 66.2618 48.3837 67.5195C47.6898 68.7975 46.8816 69.8673 45.853 70.7534C45.1795 71.3373 44.4652 71.8599 43.6692 72.2887C42.212 73.0726 40.6855 73.6035 39.0486 73.7995C38.2854 73.8893 37.5302 74.0404 36.7506 73.9914C33.6566 73.7995 30.8238 72.9338 28.4237 70.884C26.2359 69.018 24.8644 66.6742 24.2072 63.8895C23.848 62.3705 23.9501 60.921 24.5583 59.4592C25.3052 57.6667 25.9297 55.8251 26.6073 54.004C26.791 53.514 26.9543 53.0118 27.1665 52.5341C27.5012 51.7705 28.1625 51.2805 28.7829 50.7865C30.4605 49.4635 32.3912 48.6305 34.473 48.2467C35.8199 47.9976 37.1914 47.7975 38.5956 48.0915C39.3099 48.2385 40.0569 48.2712 40.7671 48.4917C42.457 49.0143 44.0244 49.7575 45.4326 50.864C46.4653 51.6766 47.2939 52.6443 48.0327 53.706C48.1552 53.8815 48.2368 54.0816 48.3592 54.3144V54.3225Z" fill="#EEEEEE"/>
<path d="M66.2958 55.9385C67.5204 52.6801 68.7367 49.434 70.0266 46C70.4144 46.7881 70.7409 47.4169 71.0103 48.0743C71.5124 49.2992 72.0063 50.5283 72.541 51.741C72.6879 52.0717 72.9369 52.3657 73.1818 52.6393C74.8921 54.5217 75.8595 56.7879 76.1575 59.2541C76.4473 61.655 76.2228 64.0478 75.1411 66.3017C74.59 67.4532 73.9696 68.5312 73.0635 69.4336C72.9981 69.4989 72.9165 69.5561 72.8716 69.6337C72.4185 70.4666 71.6267 70.9239 70.896 71.4548C69.4837 72.4837 67.9367 73.2105 66.2346 73.6229C64.8754 73.9496 63.4998 74.0966 62.112 73.9741C61.365 73.9088 60.5813 73.8761 59.8262 73.4637C60.6221 71.2914 61.414 69.1355 62.214 66.9591C65.7938 67.0735 68.0877 65.4769 69.1041 62.1083C69.3409 59.6788 68.7531 57.6821 66.2917 55.9385H66.2958Z" fill="#EEEEEE"/>
<path d="M66.4032 48.4598C65.5705 50.7137 64.7664 52.8982 63.9623 55.0827C61.1459 54.6907 58.7253 56.1444 57.7335 58.2513C56.2722 61.3545 57.0763 64.0086 59.8642 66.0543C58.6437 69.3291 57.4437 72.5548 56.2436 75.7805C55.8885 75.7315 55.8477 75.4457 55.7579 75.2416C55.1905 73.9104 54.6354 72.5711 54.0843 71.2318C53.8027 70.5418 53.5006 69.8517 53.0027 69.3005C51.5577 67.704 50.7413 65.8053 50.2107 63.7514C49.9087 62.5918 50.0311 61.4199 49.9985 60.248C49.9576 58.6392 50.4515 57.157 51.0597 55.6952C51.5373 54.5437 52.2108 53.5311 53.0108 52.5879C53.9333 51.4977 55.0313 50.6116 56.2436 49.8644C57.8151 48.9007 59.5213 48.3863 61.3499 48.1045C62.7541 47.8881 64.1092 48.0269 65.4848 48.1658C65.7746 48.1943 66.0563 48.3454 66.4032 48.4598Z" fill="#EEEEEE"/>
<path d="M147.791 48.3947H153.469C153.722 48.6275 153.652 48.8888 153.652 49.1256C153.652 55.8711 153.652 62.6165 153.664 69.362C153.664 69.9745 153.432 70.5094 153.24 71.0566C152.95 71.8977 152.583 72.7143 152.215 73.6331H146.064C145.783 73.384 145.852 73.1186 145.852 72.8817C145.852 66.6303 145.852 60.3789 145.844 54.1275C145.844 53.6784 145.954 53.2701 146.105 52.8699C146.652 51.3959 147.211 49.93 147.791 48.3906V48.3947Z" fill="#EEEEEE"/>
<path d="M200.989 78.7303V81.1838C200.365 81.2859 199.822 81.2614 199.255 81.2165C199.091 80.9389 198.94 80.6776 198.793 80.4286C198.316 80.2326 197.854 80.3674 197.491 80.3347C197.058 80.5388 197.063 80.9593 196.797 81.1838C196.597 81.2859 196.389 81.2696 196.197 81.2246C196.103 81.1879 196.087 81.1389 196.107 81.0695C196.418 79.9591 197.079 79.0039 197.544 77.9669C197.667 77.6975 197.761 77.3954 198.063 77.1627C198.491 77.8118 198.687 78.5262 199.046 79.1549C199.397 79.7713 199.548 80.5021 200.128 81.0246C200.316 79.706 200.21 78.3956 200.295 76.9219C201.304 77.9261 202.193 78.812 203.226 79.8407V77.4036C203.467 77.1219 203.651 77.1831 203.814 77.2036C204.034 77.4485 204.075 80.1673 203.879 81.3879C203.218 81.1797 202.908 80.5756 202.447 80.1673C201.989 79.7632 201.577 79.3141 200.993 78.7303H200.989ZM197.997 78.7099C197.826 78.9671 197.716 79.1876 197.728 79.4611C197.973 79.604 198.165 79.6203 198.34 79.4284C198.34 79.1753 198.201 78.9753 197.997 78.7099Z" fill="#EEEEEE"/>
<path d="M149.117 77.1298C149.831 77.9789 150.01 78.975 150.582 79.8649C151.043 78.9464 151.366 78.0075 151.986 77.1094C152.349 77.8319 152.37 78.5423 152.525 79.2077C152.676 79.8445 153.051 80.461 152.843 81.1713C152.415 81.2978 152.251 81.1019 152.166 80.7508C152.051 80.2773 152.019 79.7792 151.749 79.3179C151.235 79.9384 151.157 80.7794 150.59 81.404C150.035 80.759 149.859 79.9466 149.333 79.2363C149.076 79.9098 149.121 80.6038 148.77 81.1345C148.57 81.2611 148.398 81.2897 148.178 81.1386C148.439 79.8282 148.655 78.4892 149.121 77.1298H149.117Z" fill="#EEEEEE"/>
<path d="M192.583 77.1118C193.048 78.4998 193.154 79.8388 193.595 81.0309C193.375 81.2799 193.195 81.2513 192.967 81.1942C192.636 80.5736 192.546 79.8552 192.395 79.006C192.109 79.9491 191.542 80.5818 191.269 81.5085C190.628 80.7369 190.366 79.9286 189.962 79.1285C189.632 79.7694 189.681 80.4838 189.428 81.1084C189.244 81.3003 189.048 81.2268 188.885 81.1901C188.832 81.1084 188.799 81.0799 188.803 81.0594C188.93 80.4022 189.007 79.7286 189.203 79.0877C189.391 78.4713 189.383 77.7854 189.775 77.0547C190.264 78.0508 190.611 78.9244 191.162 79.8103C191.693 78.9081 191.934 77.9773 192.583 77.1037V77.1118Z" fill="#EEEEEE"/>
<path d="M188.74 79.2438C188.556 80.1909 188.148 80.8972 187.246 81.2605C186.458 81.5748 185.523 81.4524 184.939 80.8604C184.303 80.2154 183.89 79.5092 184.286 78.5458C184.67 77.615 185.454 77.121 186.254 77.1496C186.56 77.1619 186.886 77.1292 187.168 77.219C187.735 77.4027 188.238 77.6926 188.421 78.3335C188.515 78.656 188.646 78.9703 188.744 79.2438H188.74ZM185.078 79.8194C185.866 80.7257 186.446 80.8972 187.148 80.4604C187.756 80.0848 187.984 79.2806 187.707 78.5988C187.458 77.9865 186.788 77.7701 185.976 77.9293C185.384 78.0477 184.874 78.4968 185.078 79.8154V79.8194Z" fill="#EEEEEE"/>
<path d="M167.453 81.2377V77.2288C168.143 77.0859 168.821 77.0859 169.478 77.1962C170.372 77.3431 170.882 78.0371 170.947 78.9352C171.017 79.8742 170.78 80.6416 169.768 81.2377H167.453V81.2377ZM170.155 79.8048C170.225 78.082 169.661 77.5962 168.159 78.0616C168.159 78.8903 168.098 79.7354 168.2 80.5804C169.09 80.8335 169.67 80.4824 170.155 79.8048V79.8048Z" fill="#EEEEEE"/>
<path d="M142.606 77.2192C142.814 77.1498 142.961 77.1375 143.145 77.2314C143.377 77.5988 143.165 78.0601 143.32 78.5133C143.851 78.7337 144.418 78.6276 144.969 78.5908C145.19 78.2683 145.075 77.9499 145.112 77.6519C145.149 77.3743 145.275 77.1702 145.573 77.1702C145.871 77.1702 146.018 77.3825 146.022 77.6601C146.031 78.8031 146.022 79.9421 146.022 81.0484C145.786 81.2647 145.561 81.3219 145.28 81.3137C144.912 80.7585 145.243 80.1013 145.018 79.4808C144.508 79.2807 143.961 79.4073 143.398 79.4073C143.079 79.9502 143.39 80.5748 143.19 81.0892C143.01 81.2811 142.83 81.2362 142.651 81.1913C142.443 80.9586 142.402 78.4153 142.598 77.2233L142.606 77.2192Z" fill="#EEEEEE"/>
<path d="M163.266 77.0625C164.213 77.9851 165.082 78.8301 166.078 79.8017V77.385C166.315 77.1197 166.494 77.1605 166.674 77.2054C166.882 77.4258 166.935 79.9732 166.752 81.3489C165.556 80.6958 164.833 79.5282 163.678 78.6383C163.898 79.5568 163.502 80.3488 163.768 81.1326C163.523 81.2959 163.319 81.2632 163.107 81.1979C163.107 80.5284 163.086 79.863 163.111 79.1976C163.139 78.5403 162.988 77.8626 163.258 77.0625H163.266Z" fill="#EEEEEE"/>
<path d="M157.65 77.2223C157.854 77.1488 158.005 77.1406 158.177 77.2223C158.467 77.606 158.156 78.1204 158.43 78.5898C159.009 78.6552 159.61 78.6592 160.23 78.5817C160.414 78.1408 160.246 77.6877 160.373 77.3202C160.585 77.0876 160.781 77.1692 161.026 77.2264V81.076C160.838 81.2801 160.659 81.2352 160.446 81.178C160.169 80.6555 160.463 80.035 160.222 79.4226C159.63 79.3532 159.026 79.3532 158.385 79.4308C158.209 80.0187 158.328 80.5943 158.336 81.1617C158.12 81.2923 157.911 81.2393 157.703 81.1903C157.507 80.5657 157.471 78.3204 157.646 77.2223H157.65Z" fill="#EEEEEE"/>
<path d="M173.082 79.4731C173.282 80.1834 174.111 80.5141 174.229 81.3224C173.907 81.4203 173.678 81.2121 173.397 81.1754C173.058 80.7345 172.707 80.2855 172.27 79.718C172.241 80.261 172.221 80.6529 172.201 81.0407C172.037 81.2775 171.801 81.2856 171.531 81.2938V77.2319C171.931 77.1053 172.303 77.1421 172.662 77.1584C173.34 77.187 173.744 77.5095 173.874 78.0851C173.997 78.6158 173.817 78.971 173.225 79.3629C173.176 79.3955 173.131 79.4363 173.082 79.4731V79.4731ZM172.307 77.9953C172.217 78.2729 172.184 78.5015 172.323 78.7178C172.535 78.8526 172.723 78.8526 172.907 78.677C172.984 78.4443 173.017 78.2157 172.878 78.0034C172.703 77.8728 172.531 77.8851 172.307 77.9912V77.9953Z" fill="#EEEEEE"/>
<path d="M130.273 81.0355C130.028 81.2764 129.852 81.2437 129.665 81.1947C129.411 81.0029 129.375 80.6599 129.13 80.4027C128.681 80.2354 128.199 80.2966 127.762 80.3538C127.44 80.566 127.411 80.9171 127.179 81.158C126.97 81.2723 126.738 81.2804 126.505 81.1825C126.407 80.9416 127.726 78.1371 128.415 77.1328C129.207 78.3779 129.73 79.7006 130.273 81.0314V81.0355ZM128.444 78.8637C128.158 78.9739 128.085 79.1862 128.101 79.4597C128.334 79.5985 128.522 79.6026 128.701 79.4352C128.73 79.2066 128.603 79.0433 128.444 78.8637V78.8637Z" fill="#EEEEEE"/>
<path d="M153.166 81.3872C153.823 79.9666 154.395 78.7174 154.978 77.4723C155.044 77.3376 155.138 77.2069 155.37 77.211C156.015 78.5255 156.672 79.8605 157.325 81.1831C156.999 81.4403 156.787 81.2076 156.529 81.1831C156.383 80.93 156.231 80.6688 156.076 80.4034C155.574 80.232 155.08 80.3258 154.619 80.3218C154.293 80.4973 154.28 80.8565 153.962 81.1913C153.88 81.2729 153.619 81.2484 153.166 81.3832V81.3872ZM155.244 78.7256C155.084 78.9379 154.905 79.1256 155.007 79.4318C155.187 79.5869 155.374 79.6114 155.587 79.4686C155.497 79.2236 155.562 78.9174 155.244 78.7256V78.7256Z" fill="#EEEEEE"/>
<path d="M183.852 78.0619C183.378 78.0619 183.015 77.8741 182.607 77.8864C181.566 77.9191 181.154 78.3028 181.145 79.3438C181.145 79.4948 181.162 79.65 181.17 79.8255C181.288 79.9602 181.403 80.1031 181.529 80.2337C181.656 80.3644 181.798 80.4868 181.909 80.5889C182.599 80.8379 183.199 80.5889 183.778 80.3399C183.986 80.6134 183.95 80.8379 183.774 81.1073C183.129 81.438 182.46 81.4625 181.688 81.2951C180.647 81.0665 180.251 79.7765 180.37 78.8661C180.505 77.8292 181.17 77.2169 182.215 77.1557C182.554 77.1352 182.897 77.1312 183.231 77.172C183.676 77.2251 183.795 77.4088 183.856 78.066L183.852 78.0619Z" fill="#EEEEEE"/>
<path d="M136.263 78.0056C136.181 78.2628 136.169 78.471 136.279 78.7159C136.655 78.9363 137.112 78.7281 137.516 78.8669C137.667 78.969 137.696 79.1037 137.594 79.2997C137.218 79.5038 136.765 79.2997 136.357 79.4425C136.145 79.9528 136.157 79.9569 136.3 80.5897C136.704 80.8224 137.214 80.5203 137.61 80.7938C137.663 80.9326 137.683 81.0469 137.52 81.2102C136.892 81.3408 136.177 81.1653 135.496 81.3286C135.218 80.7611 135.157 78.3567 135.389 77.3483C135.99 77.1197 136.451 77.0952 137.549 77.234C137.72 77.4177 137.72 77.6055 137.561 77.8219C137.173 78.0178 136.712 77.7851 136.263 78.0097V78.0056Z" fill="#EEEEEE"/>
<path d="M178.524 81.2416C178.091 81.3886 177.895 81.1722 177.736 81.1926C177.381 81.0007 177.474 80.6374 177.291 80.4782C176.907 80.1679 175.858 80.2618 175.552 80.6129C175.454 80.7272 175.393 80.8742 175.303 80.9967C175.111 81.2579 174.858 81.2824 174.572 81.1681C175.034 79.7189 176.091 77.5471 176.532 77.1797C177.189 78.5187 177.846 79.8536 178.524 81.2334V81.2416ZM176.409 78.7065C176.274 79.0167 176.168 79.2535 176.062 79.5025C176.327 79.5923 176.56 79.6046 176.797 79.4535C176.805 79.1596 176.687 78.9351 176.413 78.7065H176.409Z" fill="#EEEEEE"/>
<path d="M141.698 80.1811C141.788 80.5607 141.816 80.8302 141.637 81.071C140.302 81.663 139.359 81.5201 138.641 80.6179C138.09 79.928 138.094 78.6298 138.653 77.944C139.371 77.0581 140.478 76.8622 141.694 77.4296C141.714 77.5194 141.755 77.6337 141.763 77.7521C141.772 77.8705 141.751 77.9889 141.735 78.1807C141.298 78.0338 140.906 77.8991 140.514 77.7684C139.735 77.8746 139.192 78.2828 139.016 79.0544C138.886 79.6177 139.126 80.0994 139.596 80.4178C140.31 80.9077 140.996 80.7077 141.702 80.1852L141.698 80.1811Z" fill="#EEEEEE"/>
<path d="M194.747 79.6914C194.722 80.2139 194.698 80.7568 194.673 81.2916C194.404 81.308 194.204 81.2712 194.008 81.0957V77.3277C194.8 77.0174 195.53 77.1032 196.249 77.4053C196.947 78.6912 196.534 79.3321 194.747 79.6914ZM194.987 78.7647C195.4 78.8586 195.726 78.83 195.783 78.3687C195.824 78.038 195.571 77.936 194.971 78.0094C194.849 78.238 194.861 78.4667 194.987 78.7606V78.7647Z" fill="#EEEEEE"/>
<path d="M204.365 77.353C204.533 77.1244 204.716 77.1489 204.949 77.1938C205.337 77.602 205.48 78.2511 206.043 78.6471C206.308 78.2307 206.549 77.8429 206.798 77.4673C207.018 77.1325 207.3 77.0713 207.704 77.3122C206.945 78.4879 205.994 79.5738 206.435 80.9658C206.186 81.2761 206.006 81.2475 205.806 81.2026C205.557 80.9822 205.504 80.5821 205.549 80.3698C205.737 79.4595 205.21 78.8594 204.757 78.2184C204.561 77.9408 204.369 77.6714 204.365 77.3571V77.353Z" fill="#EEEEEE"/>
<path d="M133.032 78.0737C132.673 77.7594 132.167 78.0492 131.979 77.5757C131.963 77.2695 132.179 77.1593 132.445 77.1552C133.212 77.1429 133.979 77.1511 134.673 77.1511C134.963 77.3838 134.882 77.5838 134.845 77.7512C134.551 77.9961 134.171 77.7798 133.869 78.1309C133.69 78.5677 133.824 79.1269 133.796 79.6699C133.767 80.1843 133.796 80.6986 133.918 81.1844C133.584 81.4457 133.363 81.213 133.037 81.1028V78.0737H133.032Z" fill="#EEEEEE"/>
<path d="M162.312 81.1189C162.149 81.274 161.941 81.2944 161.684 81.2944V77.3182C161.88 77.1141 162.059 77.1549 162.235 77.2039C162.439 77.4244 162.484 79.8084 162.308 81.1189H162.312Z" fill="#EEEEEE"/>
</g>
<defs>
<clipPath id="clip0_317_2117">
<rect width="231" height="127" fill="white"/>
</clipPath>
</defs>
</svg>
