<svg width="100" height="100" viewBox="0 0 100 100" fill="none" xmlns="http://www.w3.org/2000/svg">
<g clip-path="url(#clip0_147_20)">
<g clip-path="url(#clip1_147_20)">
<path d="M50.5018 99.9649C35.0793 99.9649 19.651 99.9649 4.22856 99.9649C0.440279 99.9649 0.28219 99.7834 0.258769 96.0361C0.247059 93.7057 0.329031 91.3754 0.241204 89.0509C0.153377 86.7908 1.25414 85.8657 3.37956 85.8481C4.35151 85.8423 5.31761 85.8013 6.28957 85.8013C7.68309 85.8013 8.50867 85.2099 8.46768 83.7227C8.38571 81.0703 8.34472 78.4823 10.9327 76.7024C11.6646 76.1988 11.3835 75.0688 11.3835 74.2081C11.3953 67.5157 11.3718 60.8232 11.4011 54.125C11.407 52.6963 11.1669 51.5311 9.87877 50.606C8.11637 49.3413 8.40327 47.3154 8.52623 45.5062C8.68432 43.1348 7.84704 42.2507 5.39373 42.2859C0.375873 42.3561 0.317321 42.239 0.375872 37.2973C0.492975 27.3904 -0.941535 30.1891 7.25567 25.1596C20.219 17.179 33.3403 9.43849 46.2802 1.41695C49.3249 -0.468408 51.7021 -0.474263 54.7526 1.41109C69.1094 10.2816 83.5775 18.9707 98.0514 27.648C99.9484 28.7839 100.838 30.1247 100.715 32.3321C100.587 34.6507 100.657 36.9869 100.68 39.3173C100.704 41.3432 99.8196 42.28 97.7118 42.3561C93.8649 42.4966 93.8357 42.5845 93.8298 46.5074C93.8298 48.4103 93.7596 50.1962 91.8156 51.2911C90.8203 51.8473 90.8905 52.9188 90.8905 53.8907C90.8905 60.7764 90.8847 67.6679 90.8905 74.5535C90.8905 75.3206 90.6856 76.3159 91.3999 76.7317C93.9762 78.2306 93.9703 80.637 93.8064 83.0962C93.6717 85.1221 94.5734 85.7837 96.5407 85.8481C100.657 85.9886 100.762 86.1877 100.78 90.2453C100.786 92.3825 100.669 94.5196 100.803 96.645C100.967 99.2271 99.8079 100.012 97.3546 99.9941C86.101 99.918 74.8474 99.959 63.5939 99.9649C59.2259 99.9649 54.8638 99.9649 50.4959 99.9649H50.5018ZM50.5369 39.0362C64.9815 39.0362 79.4262 39.048 93.8708 39.0187C95.0477 39.0187 96.4529 39.4285 96.9916 37.6837C98.0514 34.2467 96.8862 31.0323 93.6951 29.1001C80.1815 20.9204 66.6327 12.7935 53.1483 4.56116C51.2278 3.39013 49.7464 3.41355 47.8435 4.59629C40.4368 9.19843 32.9363 13.6601 25.471 18.1685C19.0011 22.0739 12.5136 25.9617 6.04951 29.8847C4.08803 31.0733 3.12193 34.9903 4.07047 37.713C4.81407 39.8384 6.68186 38.9953 8.06953 39.0011C22.2214 39.0655 36.3792 39.0421 50.531 39.0362H50.5369ZM50.5252 96.6977C65.0752 96.6977 79.6311 96.6274 94.1811 96.7562C96.9799 96.7797 97.6122 95.7667 97.5888 93.2022C97.5595 90.6962 97.2902 89.2909 94.1753 89.3495C83.9932 89.531 73.8052 89.4139 63.6173 89.4139C44.7988 89.4139 25.9746 89.408 7.15613 89.4315C6.0378 89.4315 4.47447 88.9279 3.92409 90.099C3.09266 91.8672 3.2566 93.9516 3.79528 95.7902C4.21685 97.213 5.78602 96.6743 6.86923 96.6743C21.4193 96.7036 35.9751 96.6977 50.5252 96.6977V96.6977ZM58.6755 64.2485C58.6755 65.4137 58.6111 66.5788 58.6873 67.7382C58.9449 71.6494 57.4518 75.9354 61.1464 79.1323C61.4509 79.3957 61.4684 80.0281 61.5446 80.5024C62.1223 84.0584 64.2477 85.8286 67.9208 85.813C68.3072 85.813 68.6995 85.7779 69.086 85.813C71.2231 86.0003 72.0604 85.0343 71.9667 82.9088C71.8847 81.0996 71.5627 79.0737 73.3075 77.7973C74.6894 76.7902 74.8709 75.5079 74.865 73.9856C74.8299 68.0719 74.865 62.1524 74.8474 56.2328C74.8474 53.9493 75.3217 51.537 72.7747 50.0264C72.037 49.5931 72.0311 48.5157 71.955 47.6257C71.6661 44.0892 69.6891 42.3229 66.0237 42.3268C65.9242 42.3268 65.8305 42.3268 65.731 42.3268C61.7261 42.3385 61.7144 42.3385 61.6324 46.2673C61.6031 47.6375 61.7495 49.2301 60.6253 50.0849C58.5936 51.6307 58.617 53.6507 58.658 55.8112C58.7048 58.6217 58.6697 61.438 58.6697 64.2485H58.6755ZM42.3631 63.9674C42.3631 63.1946 42.4217 62.41 42.3514 61.643C41.9591 57.3863 43.7976 52.7022 39.8395 49.1071C39.3887 48.6972 39.4121 47.6316 39.4297 46.8763C39.5468 41.7238 39.1779 42.3795 34.4587 42.3327C33.6858 42.3268 32.907 42.3385 32.1342 42.3795C31.2793 42.4205 30.483 42.7777 30.4947 43.6911C30.5533 46.9173 30.2664 49.9971 27.9536 52.5558C27.696 52.8368 27.8189 53.4926 27.8131 53.9786C27.8072 60.8584 27.8072 67.744 27.8131 74.6238C27.8131 75.6016 27.8131 76.6263 28.6913 77.282C30.2078 78.4121 30.3659 79.9754 30.3718 81.6851C30.3952 85.813 30.4245 85.813 34.5758 85.8247C35.1554 85.8247 35.7409 85.7779 36.3206 85.8247C38.528 86.0238 39.5819 85.1396 39.418 82.8269C39.3126 81.287 39.0784 79.4075 40.3372 78.4179C42.5505 76.6731 42.3748 74.4364 42.3631 72.1178C42.3455 69.4069 42.3631 66.6901 42.3631 63.9792V63.9674ZM15.0079 64.2602C15.0079 66.491 14.9903 68.7218 15.0079 70.9468C15.0606 77.6334 14.276 76.8019 21.1675 76.9541C23.41 77.0068 24.2766 76.2808 24.2239 73.968C24.1009 68.5403 24.2414 63.1126 24.1712 57.6849C24.0833 50.9339 25.4593 51.5955 17.6485 51.5253C15.5641 51.5077 14.9552 52.4797 14.9962 54.3709C15.0606 57.6673 15.0137 60.9638 15.0079 64.2602V64.2602ZM45.9874 64.0553C45.9874 66.3798 45.964 68.6984 45.9874 71.0229C46.0753 77.6216 45.0272 76.7961 52.1412 76.96C54.5067 77.0127 55.1273 76.0525 55.0805 73.8685C54.9751 68.4525 55.0922 63.0306 55.0336 57.6146C54.9634 50.9456 56.152 51.6307 48.7452 51.5194C46.5261 51.4843 45.8879 52.427 45.9582 54.4821C46.0636 57.6732 45.9874 60.8642 45.9816 64.0611L45.9874 64.0553ZM87.6175 64.4651C87.6175 62.1406 87.6468 59.8162 87.6175 57.4917C87.518 50.969 88.689 51.6424 81.493 51.5136C79.2037 51.4726 78.4191 52.345 78.4601 54.5817C78.5596 59.904 78.4425 65.238 78.501 70.5603C78.5772 77.6626 77.3827 76.8429 85.1174 76.9424C87.0203 76.9659 87.6878 76.1871 87.6468 74.3428C87.5648 71.0522 87.6234 67.7557 87.6292 64.4651H87.6175ZM19.3875 47.8775C21.1324 47.8775 22.8772 47.8131 24.6162 47.8951C26.5367 47.9829 27.1339 47.0812 27.128 45.2661C27.128 43.3866 26.3434 42.6489 24.5166 42.6781C21.226 42.7308 17.9354 42.725 14.6449 42.684C12.7771 42.6606 12.092 43.5564 12.0803 45.3598C12.0686 47.2569 12.9293 47.9653 14.7385 47.8892C16.2843 47.8248 17.8359 47.8775 19.3875 47.8775V47.8775ZM50.4783 47.8775C52.1236 47.8775 53.7689 47.819 55.4084 47.8951C57.2352 47.9771 58.0373 47.251 58.0198 45.3539C58.0022 43.5564 57.3816 42.6489 55.4903 42.6781C52.2056 42.725 48.915 42.725 45.6303 42.6781C43.8035 42.6489 43.0247 43.4042 43.0189 45.272C43.013 47.0929 43.6395 47.9829 45.5483 47.8951C47.1877 47.819 48.833 47.8775 50.4783 47.8834V47.8775ZM82.8514 47.8775C84.5963 47.8775 86.3411 47.8365 88.0801 47.8892C89.7429 47.9419 90.5919 47.3388 90.5685 45.5413C90.5509 43.8843 90.2933 42.6664 88.2499 42.6899C84.8597 42.7308 81.4755 42.725 78.0853 42.6899C76.2058 42.6664 75.5442 43.5857 75.5325 45.3774C75.5208 47.292 76.4166 47.9653 78.2083 47.8951C79.7541 47.8365 81.3057 47.8834 82.8573 47.8834L82.8514 47.8775ZM19.3875 85.7837C21.1324 85.7837 22.8772 85.731 24.622 85.7954C26.5425 85.8657 27.1222 84.9347 27.128 83.1313C27.1339 81.246 26.361 80.5199 24.5225 80.5551C21.3256 80.6136 18.1287 80.6136 14.9318 80.5551C13.0347 80.5199 12.0686 81.164 12.0744 83.2309C12.0744 85.3738 13.2045 85.8715 15.0254 85.8013C16.4775 85.7486 17.9296 85.7896 19.3875 85.7837V85.7837ZM50.4315 85.7837C50.4315 85.7837 50.4315 85.7779 50.4315 85.772C52.1705 85.772 53.9153 85.7369 55.6543 85.7837C57.4225 85.8247 57.9963 84.9347 58.0139 83.266C58.0315 81.4977 57.4869 80.5199 55.5489 80.5551C52.2583 80.6078 48.9677 80.6019 45.683 80.5551C43.8913 80.5258 43.0482 81.1757 43.0189 83.0903C42.9896 85.1221 43.8328 85.9008 45.7884 85.8071C47.3341 85.7369 48.8857 85.7896 50.4315 85.7896V85.7837ZM82.951 85.7779C84.6958 85.7779 86.4406 85.7427 88.1855 85.7896C89.9303 85.8364 90.5685 85.0167 90.5744 83.3128C90.5802 81.5797 90.1528 80.5199 88.162 80.5551C84.8656 80.6136 81.575 80.5961 78.2786 80.5551C76.5396 80.5316 75.5618 81.0996 75.5325 83.0435C75.4974 85.046 76.3346 85.8832 78.302 85.8013C79.8477 85.7369 81.4052 85.7896 82.951 85.7837V85.7779Z" fill="#727272"/>
<path d="M50.456 14.1234C55.2748 14.0824 59.3851 18.1693 59.3617 22.9822C59.3383 27.9122 55.3743 31.8235 50.4384 31.7825C45.6197 31.7473 41.7611 27.9298 41.6791 23.1169C41.5913 18.2746 45.6021 14.1643 50.456 14.1234V14.1234ZM50.2862 28.1523C53.5358 28.2577 55.6612 26.2962 55.7374 23.1227C55.8135 20.0019 53.934 17.9116 50.9186 17.7594C47.6924 17.5955 45.444 19.5569 45.3093 22.6543C45.1747 25.9098 47.1127 28.0527 50.2862 28.1523Z" fill="#727272"/>
</g>
</g>
<defs>
<clipPath id="clip0_147_20">
<rect width="100" height="100" fill="white"/>
</clipPath>
<clipPath id="clip1_147_20">
<rect width="100.591" height="100" fill="white" transform="translate(0.236328)"/>
</clipPath>
</defs>
</svg>
