<svg width="231" height="127" viewBox="0 0 231 127" fill="none" xmlns="http://www.w3.org/2000/svg">
<g clip-path="url(#clip0_495_483)">
<path fill-rule="evenodd" clip-rule="evenodd" d="M168.052 63.576C168.091 67.8989 167.046 72.1625 165.015 75.9779L168.558 79.522L158.687 89.3926L155.397 86.1027C151.452 88.7307 146.66 90.186 141.476 90.1519C127.399 90.1901 115.858 79.1549 115.153 65.348C114.195 79.1549 102.653 90.186 88.5765 90.1519C85.0831 90.1641 81.622 89.4843 78.3924 88.1533C75.1627 86.8214 72.2283 84.8642 69.7581 82.3945C67.2879 79.924 65.3308 76.9898 63.9994 73.76C62.6679 70.5302 61.9885 67.0697 62.0001 63.576C61.9791 48.9761 73.8667 37.0886 88.5765 37C93.2825 37.0321 97.8955 38.3147 101.943 40.7163C105.99 43.118 109.326 46.5524 111.609 50.6676L99.2073 57.7546C97.0134 54.0083 93.0607 51.5198 88.5765 51.427C81.8354 51.5198 76.4147 56.949 76.4273 63.576C76.4172 65.1742 76.7246 66.7587 77.3316 68.2375C77.9385 69.7156 78.833 71.0589 79.9632 72.1893C81.0934 73.319 82.4367 74.214 83.9153 74.8206C85.3938 75.4281 86.9782 75.7351 88.5765 75.7253C92.4153 75.7586 95.8786 73.924 98.1945 71.1693L90.3482 70.9159V59.7793H114.899C114.901 59.9845 114.908 60.2009 114.916 60.4242C114.93 60.8419 114.945 61.2836 114.924 61.721C116.006 47.9796 127.492 37.0879 141.476 37C156.186 37.0928 168.074 48.9803 168.052 63.576ZM151.093 63.0693L153.625 65.3473C153.612 65.0496 153.617 64.7506 153.623 64.4412C153.628 64.1631 153.633 63.8767 153.625 63.5753C153.642 56.9483 148.217 51.5191 141.475 51.4263C138.271 51.4806 135.211 52.7781 132.945 55.0447C130.678 57.3114 129.381 60.3698 129.327 63.5753C129.406 70.333 134.831 75.758 141.475 75.7247C142.494 75.7368 143.511 75.6524 144.513 75.4713L141.729 72.9399L151.093 63.0693Z" fill="#EEEEEE"/>
</g>
<defs>
<clipPath id="clip0_495_483">
<rect width="231" height="127" fill="white"/>
</clipPath>
</defs>
</svg>
