<svg width="100" height="100" viewBox="0 0 100 100" fill="none" xmlns="http://www.w3.org/2000/svg">
<g clip-path="url(#clip0_514_4822)">
<path d="M94.0807 86.2508H5.64804C2.69912 85.6439 0.827495 83.8796 0 80.9951V18.3182C0.292746 17.4224 0.622573 16.5461 1.1944 15.7811C2.74986 13.6948 4.90447 13 7.41427 13C35.713 13.0117 64.0137 13.0078 92.3125 13.0078C92.5389 13.0078 92.7672 13.0059 92.9936 13.0117C97.0316 13.1327 99.799 15.9431 99.8009 19.9791C99.8087 39.7609 99.8048 59.5446 99.8009 79.3264C99.8009 79.908 99.8048 80.4896 99.6565 81.0653C98.9012 83.983 96.9613 85.6205 94.0807 86.2489V86.2508ZM60.4813 82.9018C63.0789 82.9018 65.6746 82.9018 68.2722 82.9018C76.4847 82.9018 84.6992 82.9077 92.9116 82.894C94.9901 82.8901 96.1689 81.8401 96.4734 79.7909C96.5261 79.4396 96.53 79.0805 96.53 78.7234C96.5319 59.3553 96.5202 39.9892 96.5475 20.6211C96.5515 18.0313 95.32 16.3744 92.3593 16.3822C70.9342 16.4407 49.5072 16.4134 28.0802 16.4134C27.0653 16.4134 26.5572 16.913 26.5559 17.9123C26.5559 39.0641 26.5559 60.216 26.5559 81.3659C26.5559 82.3859 27.0855 82.8966 28.1446 82.8979C38.9235 82.8979 49.7004 82.8979 60.4793 82.8979L60.4813 82.9018ZM23.1601 49.6498C23.1601 39.595 23.1601 29.5421 23.1601 19.4872C23.1601 18.7729 23.1445 18.0606 23.1601 17.3463C23.1718 16.6925 22.8752 16.4115 22.2194 16.4115C16.9285 16.4232 11.6396 16.4017 6.34868 16.4427C4.94155 16.4524 3.98329 17.2702 3.47587 18.5583C3.20069 19.257 3.19288 20.0122 3.19288 20.7636C3.19874 33.1526 3.19678 45.5416 3.19678 57.9326C3.19678 64.9389 3.18898 71.9434 3.20264 78.9498C3.20849 81.6274 4.48486 82.8921 7.14104 82.896C11.944 82.9038 16.747 82.8999 21.5519 82.8979C22.6227 82.8979 23.1594 82.3554 23.162 81.2703C23.162 70.7295 23.162 60.1887 23.162 49.6479L23.1601 49.6498Z" fill="#727272"/>
<path d="M81.6546 54.7612C82.7865 51.9372 83.9165 49.1131 85.0504 46.2911C85.5579 45.0284 86.0614 43.7617 86.5864 42.5049C86.926 41.693 87.5407 41.2773 88.4346 41.4061C89.3518 41.5388 89.7578 42.1829 89.8437 43.0279C90.3862 48.3774 90.9112 53.7288 91.4401 59.0802C91.4986 59.6735 91.4791 60.257 91.0439 60.7273C90.5814 61.227 90.0076 61.385 89.3596 61.186C88.62 60.9596 88.2648 60.3975 88.1809 59.6676C87.974 57.8662 87.7866 56.061 87.5993 54.2557C87.4666 52.9676 87.3456 51.6776 87.1933 50.1299C86.9806 50.5691 86.8557 50.7915 86.762 51.0277C85.6144 53.8868 84.4649 56.744 83.3291 59.6071C82.9914 60.458 82.6031 61.2504 81.5355 61.264C80.4133 61.2777 80.0152 60.4463 79.6678 59.5681C78.45 56.4962 77.2205 53.4263 75.825 50.3544C75.6357 52.1206 75.4445 53.8888 75.2591 55.655C75.1224 56.9431 75.0092 58.2351 74.857 59.5212C74.7204 60.6864 74.0256 61.3265 73.0361 61.2543C72.0662 61.1821 71.469 60.417 71.5783 59.2246C71.9276 55.3857 72.3101 51.5488 72.6868 47.7119C72.8332 46.2286 73.0166 44.7493 73.1532 43.266C73.2391 42.3488 73.5377 41.6071 74.5428 41.41C75.4698 41.2305 76.1158 41.6676 76.5803 42.8132C78.0616 46.4804 79.5253 50.1573 80.9949 53.8302C81.1237 54.1523 81.2642 54.4684 81.4009 54.7885C81.4867 54.7787 81.5707 54.767 81.6565 54.7573L81.6546 54.7612Z" fill="#727272"/>
<path d="M53.1448 51.3211C53.1448 48.7918 53.1331 46.2644 53.1487 43.7351C53.1605 41.9533 53.7674 41.2995 55.5454 41.2975C58.2679 41.2975 60.9943 41.1414 63.713 41.3951C66.8141 41.6859 69.2556 43.8971 69.7494 46.8343C70.2607 49.8789 68.7033 52.779 65.8598 54.071C65.152 54.3924 65.029 54.8614 65.4909 55.4781C66.2111 56.4383 66.9488 57.3849 67.6455 58.3607C68.3696 59.3736 68.2974 60.3494 67.4972 60.9466C66.7341 61.5185 65.6997 61.294 64.964 60.3416C63.7579 58.7744 62.5615 57.1995 61.4042 55.5952C60.9416 54.9531 60.403 54.637 59.6067 54.6877C58.8963 54.7326 58.1801 54.7072 57.4658 54.7014C56.81 54.6955 56.5348 55.0117 56.5446 55.6616C56.5622 56.8599 56.5641 58.0602 56.5387 59.2604C56.5114 60.5173 55.8869 61.2433 54.8799 61.2511C53.8787 61.2569 53.1897 60.5465 53.1683 59.2936C53.1253 56.6355 53.1546 53.9773 53.1546 51.3192C53.1507 51.3192 53.1468 51.3192 53.1448 51.3192V51.3211ZM60.241 51.3328C60.241 51.3075 60.241 51.2802 60.241 51.2548C61.373 51.2548 62.5225 51.3758 63.6329 51.2275C65.4128 50.9874 66.6072 49.4886 66.5038 47.8648C66.3926 46.0888 65.0342 44.7383 63.188 44.6856C61.2773 44.6309 59.3647 44.6778 57.4521 44.6641C56.8569 44.6602 56.5426 44.8729 56.5465 45.5092C56.5602 47.1602 56.5583 48.8133 56.5465 50.4644C56.5407 51.0772 56.8022 51.3524 57.4209 51.3407C58.3596 51.3231 59.3003 51.3368 60.241 51.3368V51.3328Z" fill="#727272"/>
<path d="M42.6392 41.3625C44.466 41.3781 46.8899 42.4437 48.8572 44.5437C49.9969 45.7595 50.1472 46.7197 49.3295 47.5062C48.5215 48.283 47.5554 48.0742 46.4157 46.8739C43.8532 44.1767 39.8796 43.964 37.1395 46.3801C34.3233 48.8646 34.1652 53.2441 36.796 55.9412C39.4034 58.613 43.7205 58.5935 46.2986 55.9002C46.5894 55.5958 46.8782 55.2796 47.2119 55.0298C47.8989 54.5165 48.6191 54.5438 49.2592 55.1059C49.8993 55.668 50.0047 56.3745 49.6046 57.1298C49.47 57.3835 49.2885 57.6216 49.0933 57.8363C46.3025 60.8984 42.8383 62.0342 38.8726 60.912C34.8815 59.782 32.3873 57.0166 31.6964 52.8967C30.6777 46.8134 35.5372 41.2083 42.6373 41.3625H42.6392Z" fill="#727272"/>
<path d="M74.7864 23.0448C73.7832 23.0448 72.7801 23.0701 71.7789 23.037C70.6294 22.9999 69.8897 22.3246 69.8819 21.3761C69.8741 20.4667 70.5435 19.7348 71.6579 19.6997C73.791 19.6314 75.9281 19.6314 78.0593 19.6997C79.1756 19.7348 79.8275 20.4725 79.804 21.3976C79.7806 22.3637 79.0624 23.0038 77.8914 23.0389C76.8571 23.0701 75.8207 23.0448 74.7864 23.0448Z" fill="#727272"/>
<path d="M34.868 23.0448C33.8297 23.0448 32.7895 23.076 31.7513 23.037C30.6291 22.996 29.9557 22.3598 29.9323 21.4054C29.9089 20.4803 30.4866 19.7621 31.5776 19.7212C33.781 19.6411 35.9902 19.6392 38.1936 19.7192C39.2729 19.7582 39.8408 20.4823 39.8135 21.423C39.7881 22.3442 39.1519 22.9784 38.0824 23.0292C37.0129 23.078 35.9395 23.0409 34.87 23.0409C34.87 23.0409 34.87 23.0448 34.87 23.0467L34.868 23.0448Z" fill="#727272"/>
<path d="M48.1957 23.0406C47.1614 23.0406 46.1251 23.0699 45.0907 23.0328C43.988 22.9918 43.2757 22.3459 43.2269 21.4305C43.18 20.5367 43.8612 19.7424 44.9541 19.7072C47.1184 19.635 49.2887 19.6331 51.4511 19.7072C52.5499 19.7443 53.2251 20.5406 53.1724 21.4364C53.1178 22.3556 52.4093 22.9918 51.3008 23.0328C50.2664 23.0699 49.2301 23.0406 48.1957 23.0406Z" fill="#727272"/>
<path d="M88.2372 23.0453C87.2028 23.0453 86.1665 23.0687 85.1321 23.0375C83.965 23.0023 83.239 22.3583 83.2098 21.3981C83.1824 20.4496 83.8792 19.7197 85.0541 19.6845C87.1228 19.626 89.1935 19.626 91.2622 19.6845C92.4293 19.7158 93.1514 20.4457 93.1436 21.3708C93.1338 22.3446 92.3571 23.0121 91.1471 23.0414C90.1771 23.0648 89.2071 23.0453 88.2372 23.0453Z" fill="#727272"/>
<path d="M61.5193 23.0412C60.481 23.0412 59.4408 23.0724 58.4044 23.0334C57.2725 22.9904 56.6109 22.3659 56.5914 21.4057C56.5699 20.4416 57.1827 19.7332 58.3205 19.698C60.4595 19.6297 62.6044 19.6317 64.7434 19.7058C65.8714 19.7449 66.5076 20.4845 66.4764 21.4194C66.4432 22.3601 65.7543 22.9963 64.636 23.0353C63.5977 23.0724 62.5595 23.0431 61.5193 23.0431V23.0412Z" fill="#727272"/>
<path d="M13.1461 23.0427C11.5574 23.0427 9.9688 23.0602 8.38016 23.0349C7.56633 23.0212 6.94181 22.6445 6.66858 21.8385C6.43243 21.1418 6.67443 20.5641 7.21113 20.1015C7.57218 19.7932 8.02887 19.6819 8.48165 19.678C11.6257 19.6624 14.7718 19.6371 17.9159 19.68C19.1474 19.6976 19.8987 20.4489 19.8617 21.415C19.8226 22.3967 19.0615 23.0251 17.8163 23.0446C16.2609 23.068 14.7035 23.0505 13.148 23.0505C13.148 23.0485 13.148 23.0466 13.148 23.0446L13.1461 23.0427Z" fill="#727272"/>
<path d="M13.2518 42.9797C14.776 42.9797 16.2983 42.9621 17.8225 42.9855C19.0657 43.005 19.8288 43.6413 19.862 44.621C19.8932 45.589 19.1457 46.3306 17.9084 46.3482C14.7975 46.3931 11.6846 46.3911 8.5737 46.3501C7.33245 46.3345 6.58107 45.6183 6.58498 44.6561C6.59083 43.6549 7.391 42.9972 8.68299 42.9816C10.2072 42.9641 11.7295 42.9777 13.2537 42.9777L13.2518 42.9797Z" fill="#727272"/>
<path d="M13.2423 53.0094C11.6537 53.0094 10.065 53.0269 8.47638 53.0016C7.68207 52.9879 7.02241 52.6815 6.70039 51.8833C6.45644 51.2783 6.60086 50.7357 7.0029 50.2536C7.38542 49.797 7.92017 49.635 8.48224 49.6311C11.6263 49.6155 14.7724 49.5979 17.9165 49.6369C19.1401 49.6525 19.8993 50.402 19.8622 51.37C19.8252 52.3399 19.0543 52.984 17.815 53.0074C16.2927 53.0347 14.7685 53.0133 13.2442 53.0133C13.2442 53.0133 13.2442 53.0094 13.2442 53.0074L13.2423 53.0094Z" fill="#727272"/>
<path d="M13.2278 59.6493C11.6724 59.6493 10.1149 59.6649 8.55949 59.6454C7.37485 59.6298 6.63517 59.017 6.58638 58.0665C6.53759 57.1258 7.23628 56.3374 8.39555 56.3179C11.6021 56.2632 14.8125 56.2632 18.0191 56.3218C19.2096 56.3432 19.8966 57.1005 19.8517 58.0451C19.8068 59.0014 19.0671 59.6298 17.8942 59.6454C16.3387 59.6669 14.7833 59.6513 13.2259 59.6513L13.2278 59.6493Z" fill="#727272"/>
<path d="M13.2442 39.7194C11.9483 39.7194 10.6524 39.7272 9.35654 39.7155C8.93694 39.7116 8.51343 39.6882 8.09968 39.6219C7.14338 39.4677 6.53642 38.7612 6.58911 37.9103C6.64181 37.0515 7.31317 36.4173 8.28704 36.3665C9.03061 36.3275 9.77614 36.3509 10.5217 36.349C12.9515 36.349 15.3812 36.3411 17.811 36.3548C19.062 36.3607 19.8193 36.9754 19.8544 37.9591C19.8895 38.9329 19.1772 39.6258 17.9067 39.6765C16.3551 39.739 14.7977 39.6921 13.2422 39.6921C13.2422 39.7019 13.2422 39.7097 13.2422 39.7194H13.2442Z" fill="#727272"/>
<path d="M13.2266 66.2722C11.6731 66.2722 10.1176 66.2839 8.56411 66.2683C7.33067 66.2566 6.57343 65.6067 6.5871 64.6152C6.60076 63.6453 7.32091 63.011 8.50165 63.0071C11.6418 62.9915 14.782 62.9934 17.9242 63.0071C19.1049 63.0129 19.8348 63.6433 19.8563 64.6055C19.8797 65.5969 19.1186 66.2566 17.889 66.2683C16.3355 66.2839 14.7801 66.2722 13.2266 66.2722Z" fill="#727272"/>
<path d="M11.4736 29.6742C10.4392 29.6742 9.40287 29.6976 8.37045 29.6664C7.33413 29.6332 6.6374 28.9969 6.58666 28.1109C6.53787 27.2268 7.16044 26.4774 8.19481 26.3954C10.4197 26.2198 12.6523 26.2276 14.8772 26.3876C15.9331 26.4637 16.5517 27.1878 16.5205 28.0758C16.4893 29.0008 15.773 29.641 14.6742 29.6683C13.6087 29.6956 12.5411 29.6742 11.4736 29.6742Z" fill="#727272"/>
<path d="M11.4641 76.3248C10.4941 76.3248 9.52221 76.3658 8.5542 76.3151C7.31101 76.2487 6.58109 75.5793 6.58695 74.6074C6.5928 73.5984 7.37541 72.9661 8.68301 72.9563C10.6229 72.9426 12.5629 72.9407 14.5028 72.9563C15.7382 72.968 16.4915 73.6023 16.5169 74.5918C16.5403 75.5364 15.8631 76.2175 14.6648 76.2956C13.6031 76.3658 12.5316 76.3092 11.466 76.3092C11.466 76.3151 11.466 76.319 11.466 76.3248H11.4641Z" fill="#727272"/>
</g>
<defs>
<clipPath id="clip0_514_4822">
<rect width="100" height="73.5768" fill="white" transform="translate(0 13)"/>
</clipPath>
</defs>
</svg>
