<svg width="216" height="207" viewBox="0 0 216 207" fill="none" xmlns="http://www.w3.org/2000/svg">
<g clip-path="url(#clip0_5527_606)">
<rect width="216" height="206.929" fill="#151517"/>
<path d="M89.13 61.2129V56.839H95.3607V52.1055H84.457V65.5269H95.3607V61.1531L89.13 61.2129Z" fill="white"/>
<path d="M106.56 56.8937H110.933V52.1602H99.9102V56.8937L104.224 61.2077H99.9102V65.5818H110.814V61.2077L106.56 56.8937Z" fill="white"/>
<path d="M122.078 56.8937H126.392V52.1602H115.488V56.8937L119.862 61.2077H115.488V65.5818H126.392V61.2077L122.078 56.8937Z" fill="white"/>
<path d="M144.543 72.127H71.4551L77.904 145.215L107.999 153.814L138.094 145.215L144.543 72.127Z" fill="#757575"/>
<path d="M108 78.5781V147.152L132.076 140.273L137.45 78.5781H108Z" fill="#8D8D8D"/>
<path d="M127.562 89.3242H108V97.9228H118.533L117.888 106.521H108V115.12H117.458L116.814 124.793L108 127.803V136.831L124.982 131.242L126.487 106.521L127.562 89.3242Z" fill="white"/>
<path d="M107.999 89.3242V97.9228H88.8676L88.2227 89.3242H107.999ZM98.111 106.521L98.541 115.12H107.999V106.521H98.111ZM98.9709 119.419H90.3723L91.0172 131.242L107.999 136.831V127.803L99.1859 124.793L98.9709 119.419Z" fill="#EEEEEE"/>
</g>
<defs>
<clipPath id="clip0_5527_606">
<rect width="216" height="206.929" fill="white"/>
</clipPath>
</defs>
</svg>
