<svg width="169" height="33" viewBox="0 0 169 33" fill="none" xmlns="http://www.w3.org/2000/svg">
<g clip-path="url(#clip0_72_1644)">
<path d="M19.7146 5.85448C20.7763 6.88693 21.8331 7.91937 22.8947 8.95669C23.9661 9.2635 24.497 10.2083 25.208 10.9291C25.4271 11.1531 25.5781 11.4404 25.9044 11.5329C27.38 13.0086 28.9238 14.4209 30.3264 15.9647C33.1169 19.0377 33.7793 22.5977 32.4643 26.5132C32.177 27.3654 31.5585 28.0278 30.9741 28.6901C29.2647 30.8524 27.1268 32.3134 24.3557 32.7614C24.2973 32.7712 24.2486 32.8442 24.195 32.8832H21.2974C20.5717 32.7079 19.8169 32.7371 19.101 32.5179C18.0296 32.1916 17.0945 31.6121 16.2715 30.8719C15.5653 30.2339 14.8884 29.5521 14.2553 28.8362C13.7001 27.3508 12.7797 26.0164 12.6141 24.3704C12.2975 21.1902 13.0865 18.3851 15.2536 16.0085C16.1108 15.0686 17.0215 14.1774 17.9565 13.3105C19.9484 11.4696 20.338 9.25376 19.6221 6.74083C19.5344 6.43888 19.3006 6.10285 19.7195 5.84961L19.7146 5.85448Z" fill="#707070"/>
<path d="M19.7139 5.85441C20.0694 6.92582 20.3422 7.99723 20.3081 9.1563C20.2594 10.7342 19.6896 12.0345 18.6084 13.1546C17.3422 14.4695 15.9104 15.6334 14.8049 17.0945C12.4527 20.2064 12.2628 24.7745 14.3277 28.091C14.4543 28.2955 14.6004 28.4903 14.6199 28.7436C14.0939 28.953 13.8845 28.4952 13.6166 28.2322C10.7287 25.3833 7.86026 22.5148 4.98207 19.6512C4.11521 18.7892 3.21912 17.9467 2.38634 17.0506C1.15909 15.7357 0.224047 14.2601 0.146127 12.3851C0.136387 12.1562 0.126646 11.9127 0.00976562 11.6936V8.52319C0.243527 8.33813 0.214307 8.04593 0.277618 7.80243C1.24675 4.17425 3.48697 1.68566 7.10054 0.604513C10.7774 -0.496115 14.0647 0.375621 16.865 2.98596C17.8487 3.9064 18.7643 4.89502 19.7139 5.84954V5.85441Z" fill="#404040"/>
<path d="M30.9687 28.6908C32.0109 26.9863 32.7171 25.1795 32.7317 23.1487C32.7512 20.3825 31.821 17.9865 29.8876 15.9946C28.485 14.5482 27.0581 13.1262 25.6409 11.6895C24.852 10.4769 24.6961 9.15223 24.9445 7.75453C25.076 6.99481 25.5873 6.43475 25.9331 5.78704C27.662 3.69779 29.4931 1.74004 32.1278 0.746551C37.8647 -1.41088 44.4003 2.37314 45.3353 8.40225C45.8613 11.8161 44.9263 14.7576 42.4669 17.2219C38.8631 20.8355 35.2787 24.4636 31.6798 28.0821C31.4606 28.3012 31.2074 28.4863 30.9687 28.686V28.6908Z" fill="#D1D1D1"/>
<path d="M116.905 11.1883C116.905 13.6379 116.905 16.0876 116.905 18.5372C116.905 20.1297 116.773 21.7076 116.169 23.2027C114.762 26.7042 112.01 28.4526 108.387 28.9444C105.504 29.334 102.606 29.2805 99.7523 28.6522C95.6176 27.7415 92.8319 24.4786 92.5397 20.2514C92.3206 17.0616 92.603 13.8668 92.5446 10.6721C92.5105 8.85067 92.4277 7.01954 92.681 5.20302C92.7443 4.75497 92.8271 4.30206 92.9439 3.86376C93.3774 2.21768 94.4731 1.31186 96.1436 1.04401C97.775 0.781024 99.4162 0.888164 101.057 0.883294C101.486 0.883294 101.905 1.04888 102.007 1.51153C102.124 2.02775 101.72 2.22742 101.316 2.36379C99.5039 2.98715 99.1776 4.56017 98.9049 6.1478C98.7393 7.12181 98.7588 8.11043 98.7588 9.09418C98.7588 12.3376 98.7539 15.5811 98.7442 18.8245C98.7442 19.7206 98.861 20.5972 99.1143 21.4543C100.122 24.8487 103.288 26.8308 107.038 26.412C110.384 26.037 112.984 23.266 113.072 19.7303C113.174 15.6005 113.125 11.4659 113.116 7.33609C113.116 5.60723 113.047 3.87837 113.008 2.1495C113.008 2.00827 112.994 1.85243 113.033 1.72094C113.218 1.12193 114.323 0.732323 115.395 0.878424C116.349 1.00992 116.827 1.45309 116.831 2.25177C116.836 5.23224 116.831 8.20783 116.831 11.1883C116.851 11.1883 116.875 11.1883 116.895 11.1883H116.905Z" fill="#D8D8D8"/>
<path d="M73.1045 0.149894C76.0703 0.188855 78.3544 0.315476 80.5897 0.8804C81.2959 1.06059 81.968 1.3187 82.5962 1.67909C83.9306 2.44855 84.7634 3.56866 84.9582 5.11246C85.1384 6.54425 85.1481 7.98578 85.1432 9.42731C85.1432 9.79257 85.0166 9.99711 84.6416 9.92893C84.2958 9.87049 83.7601 10.2017 83.692 9.50523C83.2926 5.38518 80.4875 3.24237 76.5574 2.68231C73.4941 2.24888 70.5818 2.65796 68.1517 4.81539C66.6663 6.13517 65.7166 7.79098 65.2102 9.68543C64.2995 13.075 64.2849 16.4791 65.2881 19.8492C66.6273 24.354 70.2214 26.8328 74.9308 26.7744C78.7976 26.7306 81.9631 25.3621 84.4517 22.4206C85.0799 21.6803 85.4354 22.5618 85.8689 22.7566C86.3851 22.9904 85.9078 23.2826 85.7568 23.4822C83.5069 26.5065 80.4972 28.289 76.7668 28.8539C73.1045 29.4091 69.4958 29.2727 66.0429 27.8068C61.3093 25.7955 58.8061 22.0943 58.0804 17.1171C57.7249 14.687 57.8515 12.2714 58.5626 9.91432C60.2086 4.43553 64.0901 1.49889 69.5883 0.456707C70.9665 0.193725 72.3642 0.120674 73.0948 0.145024L73.1045 0.149894Z" fill="#D8D8D8"/>
<path d="M123.256 19.0275C123.256 16.2905 123.256 14.0308 123.256 11.776C123.256 6.74523 126.037 3.07323 130.902 1.60247C133.289 0.881709 135.729 1.08138 138.159 1.07651C138.777 1.07651 138.953 1.5002 138.655 2.07C138.084 3.16089 137.18 3.70633 135.943 3.70633C134.833 3.70633 133.727 3.72094 132.651 4.07645C130.167 4.90436 129.047 6.46764 129.037 9.17538C129.013 15.0097 129.003 20.844 128.988 26.6832C128.988 28.1442 128.414 28.714 126.938 28.7237C126.456 28.7237 125.974 28.7286 125.492 28.7237C124.172 28.7091 123.422 27.9981 123.398 26.6832C123.349 23.9706 123.213 21.2579 123.266 19.0226L123.256 19.0275Z" fill="#D8D8D8"/>
<path d="M25.9315 5.79102C25.6149 6.78937 25.1815 7.75364 25.1961 8.84453C25.2058 9.59938 25.3179 10.3201 25.5955 11.0166C25.6831 11.2406 25.8 11.4597 25.6393 11.6984C24.7237 10.7828 23.8081 9.87211 22.8926 8.95654C23.8763 8.20168 24.5533 7.15463 25.4347 6.30724C25.6052 6.14166 25.7659 5.96634 25.9364 5.79589L25.9315 5.79102Z" fill="#DEDEDE"/>
<path fill-rule="evenodd" clip-rule="evenodd" d="M168.833 21.6702C168.824 20.7953 168.815 19.9642 168.834 19.2027L168.849 19.1978C168.849 18.2712 168.848 17.4074 168.847 16.5846C168.845 15.0508 168.843 13.6593 168.849 12.2678C168.854 11.06 168.742 9.87172 168.547 8.68343C167.807 4.12021 165.123 1.25176 160.701 0.506641C157.38 -0.0534128 154.005 -0.116723 150.694 0.492031C145.439 1.4563 141.635 4.29553 139.955 9.50647C138.84 12.9642 138.874 16.456 139.999 19.9186C141.134 23.4153 143.393 25.9428 146.715 27.5402C148.565 28.4314 150.523 28.9038 152.559 29.0548C156.124 29.3178 159.611 29.0158 162.791 27.2285C163.546 26.8048 163.969 26.8535 164.422 27.5305C164.934 28.3048 165.61 28.6555 166.604 28.5678C167.938 28.446 168.63 27.8811 168.737 26.5272C168.867 24.8662 168.849 23.2011 168.833 21.6702ZM162.52 19.3274C162.522 18.7127 162.523 18.0982 162.523 17.4841V17.4792C162.526 16.8957 162.533 16.3124 162.541 15.7294C162.564 13.9818 162.587 12.2363 162.47 10.4907C162.358 8.82516 162.056 7.20344 161.291 5.6986C160.561 4.2522 159.431 3.28793 157.833 2.86424C153.061 1.59316 148.356 4.14019 146.701 8.95179C145.649 12.0199 145.532 15.1757 146.165 18.3363C147.246 23.747 150.548 26.6154 155.783 26.742C157.853 26.7907 159.869 26.5229 161.768 25.6073C162.314 25.3443 162.548 25.018 162.538 24.3995C162.513 22.7102 162.517 21.0182 162.52 19.3274Z" fill="#D8D8D8"/>
</g>
<defs>
<clipPath id="clip0_72_1644">
<rect width="169" height="32.902" fill="white"/>
</clipPath>
</defs>
</svg>
