<?xml version="1.0" encoding="utf-8"?>
<!-- Generator: Adobe Illustrator 26.0.1, SVG Export Plug-In . SVG Version: 6.00 Build 0)  -->
<svg version="1.1" id="Layer_1" xmlns="http://www.w3.org/2000/svg" xmlns:xlink="http://www.w3.org/1999/xlink" x="0px" y="0px"
	 viewBox="0 0 101.2 70.9" style="enable-background:new 0 0 101.2 70.9;" xml:space="preserve">
<style type="text/css">
	.st0{fill:#FFFFFF;}
</style>
<g>
	<path class="st0" d="M0,61.99c0-1.38,1.02-2.32,2.3-2.32c0.88,0,1.43,0.42,1.78,0.95l-0.57,0.3c-0.24-0.38-0.68-0.65-1.21-0.65
		c-0.91,0-1.61,0.71-1.61,1.72c0,1,0.7,1.72,1.61,1.72c0.53,0,0.98-0.28,1.21-0.65l0.57,0.3c-0.36,0.52-0.9,0.95-1.78,0.95
		C1.02,64.31,0,63.36,0,61.99z"/>
	<path class="st0" d="M6.93,64.23v-0.44c-0.25,0.27-0.66,0.52-1.16,0.52c-0.69,0-1.04-0.35-1.04-1.04v-2.3h0.61v2.09
		c0,0.54,0.27,0.7,0.69,0.7c0.38,0,0.72-0.22,0.9-0.46v-2.34h0.61v3.25H6.93z"/>
	<path class="st0" d="M8.51,63.36c0.22,0.24,0.65,0.46,1.09,0.46c0.46,0,0.7-0.19,0.7-0.46c0-0.32-0.37-0.43-0.79-0.52
		c-0.55-0.13-1.2-0.28-1.2-0.98c0-0.52,0.44-0.96,1.24-0.96c0.56,0,0.96,0.2,1.24,0.46l-0.27,0.42c-0.19-0.23-0.55-0.4-0.96-0.4
		c-0.41,0-0.67,0.16-0.67,0.42c0,0.28,0.35,0.38,0.75,0.47c0.56,0.13,1.24,0.28,1.24,1.03c0,0.56-0.46,1-1.31,1
		c-0.54,0-1.02-0.17-1.35-0.5L8.51,63.36z"/>
	<path class="st0" d="M11.77,63.51v-2h-0.54v-0.53h0.54v-0.89h0.61v0.89h0.66v0.53h-0.66v1.86c0,0.23,0.11,0.4,0.32,0.4
		c0.14,0,0.27-0.06,0.33-0.13l0.15,0.46c-0.13,0.12-0.32,0.21-0.63,0.21C12.03,64.31,11.77,64.02,11.77,63.51z"/>
	<path class="st0" d="M13.5,62.6c0-0.94,0.63-1.7,1.64-1.7c1.02,0,1.64,0.77,1.64,1.7c0,0.94-0.63,1.71-1.64,1.71
		C14.13,64.31,13.5,63.54,13.5,62.6z M16.15,62.6c0-0.61-0.36-1.16-1.01-1.16c-0.65,0-1.01,0.55-1.01,1.16
		c0,0.62,0.36,1.17,1.01,1.17C15.8,63.77,16.15,63.22,16.15,62.6z"/>
	<path class="st0" d="M21.5,64.23v-2.17c0-0.38-0.17-0.63-0.57-0.63c-0.33,0-0.65,0.23-0.81,0.46v2.33h-0.61v-2.17
		c0-0.38-0.16-0.63-0.57-0.63c-0.32,0-0.63,0.23-0.79,0.47v2.32h-0.61v-3.25h0.61v0.46c0.13-0.2,0.57-0.54,1.05-0.54
		c0.49,0,0.78,0.26,0.88,0.61c0.19-0.3,0.62-0.61,1.1-0.61c0.6,0,0.92,0.33,0.92,0.98v2.35H21.5z"/>
	<path class="st0" d="M24.81,64.23v-4.49h3.01v0.59h-2.34v1.31h2.29v0.59h-2.29v1.4h2.34v0.59H24.81z"/>
	<path class="st0" d="M30.1,60.89c0.61,0,0.98,0.26,1.22,0.57l-0.4,0.37c-0.2-0.28-0.46-0.4-0.79-0.4c-0.64,0-1.05,0.49-1.05,1.16
		c0,0.67,0.41,1.17,1.05,1.17c0.33,0,0.59-0.13,0.79-0.4l0.4,0.37c-0.24,0.32-0.61,0.57-1.22,0.57c-0.98,0-1.66-0.73-1.66-1.71
		S29.12,60.89,30.1,60.89z"/>
	<path class="st0" d="M31.78,62.6c0-0.94,0.63-1.7,1.64-1.7c1.02,0,1.64,0.77,1.64,1.7c0,0.94-0.63,1.71-1.64,1.71
		C32.42,64.31,31.78,63.54,31.78,62.6z M34.43,62.6c0-0.61-0.36-1.16-1.01-1.16c-0.65,0-1.01,0.55-1.01,1.16
		c0,0.62,0.36,1.17,1.01,1.17C34.08,63.77,34.43,63.22,34.43,62.6z"/>
	<path class="st0" d="M39.78,64.23v-2.17c0-0.38-0.17-0.63-0.57-0.63c-0.33,0-0.65,0.23-0.81,0.46v2.33H37.8v-2.17
		c0-0.38-0.16-0.63-0.57-0.63c-0.32,0-0.63,0.23-0.79,0.47v2.32h-0.61v-3.25h0.61v0.46c0.13-0.2,0.57-0.54,1.05-0.54
		c0.49,0,0.78,0.26,0.88,0.61c0.19-0.3,0.62-0.61,1.1-0.61c0.6,0,0.92,0.33,0.92,0.98v2.35H39.78z"/>
	<path class="st0" d="M45.29,64.23v-2.17c0-0.38-0.17-0.63-0.57-0.63c-0.33,0-0.65,0.23-0.81,0.46v2.33h-0.61v-2.17
		c0-0.38-0.16-0.63-0.57-0.63c-0.32,0-0.63,0.23-0.79,0.47v2.32h-0.61v-3.25h0.61v0.46c0.13-0.2,0.57-0.54,1.05-0.54
		c0.49,0,0.78,0.26,0.88,0.61c0.19-0.3,0.62-0.61,1.1-0.61c0.6,0,0.92,0.33,0.92,0.98v2.35H45.29z"/>
	<path class="st0" d="M48.28,60.89c0.98,0,1.58,0.76,1.58,1.76v0.15h-2.57c0.05,0.55,0.45,1.01,1.1,1.01c0.34,0,0.72-0.13,0.96-0.38
		l0.28,0.4c-0.32,0.32-0.78,0.48-1.31,0.48c-0.97,0-1.68-0.69-1.68-1.71C46.66,61.66,47.33,60.89,48.28,60.89z M47.29,62.36h1.98
		c-0.01-0.43-0.3-0.97-0.99-0.97C47.63,61.39,47.32,61.92,47.29,62.36z"/>
	<path class="st0" d="M50.62,64.23v-3.25h0.61v0.5c0.25-0.32,0.63-0.57,1.06-0.57v0.61c-0.06-0.01-0.13-0.02-0.21-0.02
		c-0.3,0-0.71,0.23-0.85,0.47v2.26H50.62z"/>
	<path class="st0" d="M54.35,60.89c0.61,0,0.98,0.26,1.22,0.57l-0.4,0.37c-0.2-0.28-0.46-0.4-0.79-0.4c-0.64,0-1.05,0.49-1.05,1.16
		c0,0.67,0.41,1.17,1.05,1.17c0.33,0,0.59-0.13,0.79-0.4l0.4,0.37c-0.24,0.32-0.61,0.57-1.22,0.57c-0.98,0-1.66-0.73-1.66-1.71
		S53.37,60.89,54.35,60.89z"/>
	<path class="st0" d="M57.66,60.89c0.98,0,1.58,0.76,1.58,1.76v0.15h-2.57c0.05,0.55,0.45,1.01,1.1,1.01c0.34,0,0.72-0.13,0.96-0.38
		l0.28,0.4c-0.32,0.32-0.78,0.48-1.31,0.48c-0.97,0-1.68-0.69-1.68-1.71C56.03,61.66,56.71,60.89,57.66,60.89z M56.66,62.36h1.98
		c-0.01-0.43-0.3-0.97-0.99-0.97C57,61.39,56.7,61.92,56.66,62.36z"/>
	<path class="st0" d="M61.74,64.23v-4.49h1.6c1.4,0,2.33,0.96,2.33,2.25c0,1.3-0.93,2.24-2.33,2.24H61.74z M62.42,63.63h0.93
		c1.04,0,1.64-0.74,1.64-1.65c0-0.92-0.58-1.66-1.64-1.66h-0.93V63.63z"/>
	<path class="st0" d="M67.9,60.89c0.98,0,1.58,0.76,1.58,1.76v0.15h-2.57c0.05,0.55,0.45,1.01,1.1,1.01c0.34,0,0.72-0.13,0.96-0.38
		l0.28,0.4c-0.32,0.32-0.78,0.48-1.31,0.48c-0.97,0-1.68-0.69-1.68-1.71C66.27,61.66,66.95,60.89,67.9,60.89z M66.9,62.36h1.99
		c-0.01-0.43-0.3-0.97-0.99-0.97C67.24,61.39,66.93,61.92,66.9,62.36z"/>
	<path class="st0" d="M71.1,64.23l-1.34-3.25h0.65l1.02,2.55l1.02-2.55h0.65l-1.34,3.25H71.1z"/>
	<path class="st0" d="M75,60.89c0.98,0,1.58,0.76,1.58,1.76v0.15h-2.57c0.05,0.55,0.45,1.01,1.1,1.01c0.34,0,0.72-0.13,0.96-0.38
		l0.28,0.4c-0.32,0.32-0.78,0.48-1.31,0.48c-0.97,0-1.68-0.69-1.68-1.71C73.38,61.66,74.06,60.89,75,60.89z M74.01,62.36h1.99
		c-0.01-0.43-0.3-0.97-0.99-0.97C74.35,61.39,74.04,61.92,74.01,62.36z"/>
	<path class="st0" d="M77.34,64.23v-4.49h0.61v4.49H77.34z"/>
	<path class="st0" d="M78.71,62.6c0-0.94,0.63-1.7,1.64-1.7c1.02,0,1.64,0.77,1.64,1.7c0,0.94-0.63,1.71-1.64,1.71
		C79.34,64.31,78.71,63.54,78.71,62.6z M81.36,62.6c0-0.61-0.36-1.16-1.01-1.16c-0.65,0-1.01,0.55-1.01,1.16
		c0,0.62,0.36,1.17,1.01,1.17C81,63.77,81.36,63.22,81.36,62.6z"/>
	<path class="st0" d="M83.36,65.46h-0.61v-4.49h0.61v0.47c0.23-0.32,0.63-0.55,1.06-0.55c0.85,0,1.45,0.64,1.45,1.7
		c0,1.06-0.6,1.71-1.45,1.71c-0.42,0-0.8-0.19-1.06-0.55V65.46z M84.26,61.43c-0.37,0-0.74,0.21-0.9,0.48v1.38
		c0.16,0.26,0.53,0.48,0.9,0.48c0.61,0,0.98-0.49,0.98-1.17C85.24,61.92,84.87,61.43,84.26,61.43z"/>
	<path class="st0" d="M90.58,64.23v-2.17c0-0.38-0.17-0.63-0.56-0.63c-0.33,0-0.65,0.23-0.81,0.46v2.33h-0.61v-2.17
		c0-0.38-0.16-0.63-0.57-0.63c-0.32,0-0.63,0.23-0.79,0.47v2.32h-0.61v-3.25h0.61v0.46c0.13-0.2,0.56-0.54,1.05-0.54
		c0.49,0,0.78,0.26,0.88,0.61c0.19-0.3,0.62-0.61,1.1-0.61c0.6,0,0.92,0.33,0.92,0.98v2.35H90.58z"/>
	<path class="st0" d="M93.57,60.89c0.98,0,1.58,0.76,1.58,1.76v0.15h-2.57c0.05,0.55,0.45,1.01,1.1,1.01c0.34,0,0.72-0.13,0.96-0.38
		l0.28,0.4c-0.32,0.32-0.78,0.48-1.31,0.48c-0.97,0-1.68-0.69-1.68-1.71C91.95,61.66,92.63,60.89,93.57,60.89z M92.58,62.36h1.99
		c-0.01-0.43-0.3-0.97-0.99-0.97C92.92,61.39,92.61,61.92,92.58,62.36z"/>
	<path class="st0" d="M98.11,64.23v-2.08c0-0.54-0.28-0.71-0.69-0.71c-0.38,0-0.72,0.23-0.89,0.47v2.32h-0.61v-3.25h0.61v0.46
		c0.21-0.26,0.65-0.54,1.15-0.54c0.69,0,1.04,0.36,1.04,1.05v2.28H98.11z"/>
	<path class="st0" d="M99.79,63.51v-2h-0.54v-0.53h0.54v-0.89h0.61v0.89h0.66v0.53h-0.66v1.86c0,0.23,0.11,0.4,0.32,0.4
		c0.14,0,0.27-0.06,0.33-0.13l0.16,0.46c-0.13,0.12-0.32,0.21-0.63,0.21C100.06,64.31,99.79,64.02,99.79,63.51z"/>
</g>
<g id="OA0QI7.tif">
	<g>
		<path class="st0" d="M25.68,7.24c1.21,0.3,2.37,0.7,3.35,1.53c1.18,1,1.92,2.27,2.29,3.79c0.29,0,0.56,0,0.83,0
			c13.85,0,27.7,0,41.55,0c0.19,0,0.37,0,0.56,0c1.23,0.02,1.77,0.74,1.43,1.93c-1.15,4.05-2.31,8.09-3.46,12.13
			c-0.54,1.89-1.08,3.79-1.62,5.68c-0.37,1.3-0.63,1.49-1.96,1.49c-10.96,0-21.93,0-32.89,0c-0.27,0-0.53,0-0.8,0
			c0.09,2.66,0.79,4.68,3.51,5.26c0.34,0.07,0.7,0.06,1.05,0.06c9.72,0,19.44,0,29.16,0c1.22,0,1.86,0.48,1.83,1.36
			c-0.02,0.86-0.64,1.29-1.84,1.29c-9.64,0-19.27-0.07-28.91,0.03c-3.51,0.04-6.71-2.05-7.36-6.35c-1.11-7.36-2.4-14.69-3.63-22.03
			c-0.37-2.23-1.93-3.52-4.2-3.54c-0.15,0-0.29,0-0.44,0c-0.76-0.02-1.27-0.36-1.42-0.97c-0.16-0.64,0.07-1.13,0.73-1.56
			c0.05-0.03,0.09-0.08,0.13-0.12C24.27,7.24,24.97,7.24,25.68,7.24z M72.71,15.24c-13.68,0-27.29,0-40.96,0
			c0.89,5.32,1.77,10.61,2.65,15.91c0.17,0,0.27,0,0.37,0c10.96,0,21.92,0,32.89,0.01c0.42,0,0.55-0.16,0.66-0.53
			c1.1-3.91,2.23-7.81,3.34-11.71C72.01,17.71,72.35,16.5,72.71,15.24z"/>
		<path class="st0" d="M43.9,49.75c0.01,2.94-2.35,5.31-5.28,5.32c-2.95,0.01-5.35-2.39-5.34-5.33c0.01-2.92,2.38-5.28,5.32-5.28
			C41.55,44.46,43.89,46.8,43.9,49.75z M41.25,49.78c0.01-1.46-1.17-2.66-2.62-2.67c-1.48-0.02-2.71,1.19-2.7,2.66
			c0.01,1.44,1.22,2.65,2.66,2.65C40.03,52.42,41.24,51.22,41.25,49.78z"/>
		<path class="st0" d="M67.83,49.74c0.01,2.94-2.35,5.31-5.27,5.33c-2.95,0.01-5.35-2.38-5.34-5.33c0.01-2.93,2.38-5.28,5.32-5.28
			C65.47,44.46,67.82,46.8,67.83,49.74z M65.18,49.74c-0.01-1.46-1.2-2.64-2.65-2.64c-1.45,0-2.65,1.18-2.67,2.63
			c-0.01,1.46,1.23,2.7,2.69,2.68C64,52.4,65.19,51.19,65.18,49.74z"/>
	</g>
</g>
<g>
	<path class="st0" d="M46.23,20.57v1.84l-2.46,0.81l2.46,0.81v1.84l-4.26-1.85v-1.61L46.23,20.57z"/>
	<path class="st0" d="M49.4,27.47l-1.39,0l3.78-8.51l1.39,0L49.4,27.47z"/>
	<path class="st0" d="M55.5,20.57l4.26,1.85v1.61l-4.26,1.85v-1.84l2.46-0.81L55.5,22.4V20.57z"/>
</g>
</svg>
