<svg width="231" height="127" viewBox="0 0 231 127" fill="none" xmlns="http://www.w3.org/2000/svg">
<g clip-path="url(#clip0_580_87)">
<path d="M124.703 54.238C124.228 53.7304 123.733 53.8537 123.307 54.0056C122.725 54.2147 122.172 54.5204 121.622 54.8099C120.655 55.3193 119.686 55.5552 118.514 54.8707C118.807 54.8367 118.957 54.8028 119.105 54.8063C119.84 54.8171 120.426 54.4918 120.932 53.9949C121.422 53.5159 121.883 53.0065 122.392 52.5489C122.742 52.2325 123.132 51.9501 123.538 51.7106C124.119 51.3675 124.696 51.3299 125.277 51.7929C125.615 52.061 125.997 52.3255 126.544 52.2468C126.396 51.9126 126.223 51.6123 126.128 51.2906C125.886 50.4738 125.306 50.1538 124.516 50.161C123.983 50.1646 123.447 50.2093 122.918 50.2807C121.688 50.4452 120.54 50.3076 119.568 49.4532C119.089 49.0314 118.946 48.7436 118.88 48.0465C119.021 48.1681 119.13 48.2592 119.237 48.3522C120.308 49.278 121.799 49.2977 122.918 48.4183C123.783 47.7391 124.648 47.0563 125.543 46.4183C125.969 46.1144 126.464 45.9053 126.984 45.6229C126.312 45.0849 125.577 44.8561 124.846 44.6345C121.347 43.571 117.963 44.0143 114.663 45.4513C111.997 46.6149 109.589 48.1949 107.369 50.0663C106.631 50.6883 105.911 51.3335 105.056 51.8679C105.778 50.8259 106.493 49.7785 107.223 48.7436C109.989 44.815 113.861 42.4181 118.288 40.8042C121.613 39.5923 125.052 38.9632 128.584 38.8113C127.851 38.0016 126.294 37.7639 124.533 38.2429C124.832 37.5905 125.275 37.2044 125.835 36.9327C126.816 36.4573 127.849 36.5181 128.898 36.6146C130.289 36.7415 131.683 36.8309 133.079 36.8898C133.485 36.9077 133.91 36.8076 134.301 36.6843C134.795 36.527 135.074 36.166 135.086 35.6137C135.108 34.661 134.602 34.2213 133.676 34.4626C133.247 34.5734 132.843 34.7808 132.427 34.9398C131.551 35.2759 130.67 35.2383 129.812 34.9005C129.202 34.6592 128.764 34.2392 128.652 33.4099C128.859 33.5493 128.986 33.6315 129.107 33.7191C129.965 34.3482 130.587 34.3464 131.454 33.678C132.067 33.2061 132.646 32.6913 133.267 32.2284C134.083 31.6189 134.97 31.1542 135.992 30.9522C136.798 30.7932 137.517 30.9326 138.214 31.3401C138.547 31.5349 138.895 31.7208 139.26 31.8334C140.044 32.0747 140.77 31.349 140.563 30.5519C140.445 30.0961 140.066 29.9817 139.665 29.9602C139.195 29.9334 138.723 29.9549 138.169 29.9549C138.475 29.3847 138.968 29.2006 139.394 28.9718C140.623 28.3087 141.909 28.0674 143.254 28.6322C144.241 29.0469 145.228 29.4669 146.213 29.8852C146.377 29.9549 146.545 30.0174 146.708 30.0889C148.349 30.8128 149.943 30.677 151.516 29.8566C152.068 29.567 152.64 29.3061 153.225 29.0862C154.284 28.6841 155.328 28.7109 156.301 29.3579C156.969 29.803 157.636 30.2516 158.277 30.7342C158.653 31.0166 159.012 31.2132 159.504 31.0952C159.818 31.0201 160.151 31.0255 160.474 30.9862C161.899 30.8146 163.291 30.8986 164.685 31.2918C165.382 31.4884 166.138 31.4688 166.868 31.5492C168.06 31.6797 169.084 32.1837 169.999 32.9433C170.271 33.1686 170.557 33.4206 170.882 33.526C172.171 33.9407 173.075 34.9345 174.176 35.628C174.226 35.6583 174.283 35.6977 174.309 35.7459C174.975 37.0507 176.225 37.8371 177.134 38.9292C179.864 42.209 181.574 45.9482 182.312 50.1413C182.933 53.6571 182.808 57.1335 181.737 60.5527C180.588 64.2257 178.436 67.2553 175.683 69.8917C175.62 69.9524 175.542 69.9971 175.467 70.0454C175.445 70.0597 175.413 70.0543 175.288 70.0722C176.094 67.3876 176.63 64.6904 176.707 61.9165C176.784 59.1335 176.487 56.3917 175.778 53.6982C175.068 51.0011 173.949 48.4791 172.519 46.0894C171.097 43.7104 169.231 41.6835 167.252 39.6334C167.191 39.6888 166.975 39.7889 166.93 39.9391C166.793 40.4002 166.51 40.6665 166.108 40.9257C165.824 41.108 165.7 41.5423 165.436 41.9785C165.273 42.0571 164.984 42.1965 164.657 42.3556C164.644 43.0723 164.251 43.5585 163.652 43.916C163.532 43.9874 163.373 44.1322 163.375 44.2413C163.382 44.9705 162.771 45.21 162.299 45.639C162.372 46.3593 162.027 46.9026 161.327 47.2547C161.373 47.9304 161.139 48.4719 160.574 48.858C160.462 48.9349 160.337 49.0922 160.335 49.2137C160.319 50.0126 159.786 50.4952 159.203 51.0261C159.377 51.1869 159.505 51.3353 159.661 51.4461C160.844 52.2862 161.261 53.464 160.916 54.8153C160.656 55.8323 160.56 56.9387 159.818 57.7912C159.75 57.8699 159.754 58.0129 159.731 58.129C159.552 59.0013 159.43 59.8878 159.187 60.7404C158.735 62.3258 157.784 63.5197 156.304 64.3187C154.967 65.0408 153.503 65.3017 152.061 65.6485C150.933 65.9184 149.803 66.1829 148.667 66.4099C143.094 67.5198 137.612 69.0087 132.123 70.46C124.962 72.3529 117.816 74.31 110.69 76.3297C106.454 77.5308 102.252 78.8571 98.0623 80.2101C92.3122 82.0654 86.5694 83.9421 80.8587 85.9171C73.6305 88.4159 66.4327 91.0004 59.2367 93.5921C55.989 94.7628 52.7807 96.0425 49.5544 97.2687C49.1988 97.4045 48.8323 97.5153 48.4159 97.6565C48.4159 96.7771 48.3801 95.98 48.4248 95.1864C48.4838 94.1175 48.6232 93.0541 48.6947 91.987C48.8431 89.7618 48.9557 87.5329 49.1112 85.3076C49.3185 82.3406 49.5616 79.3772 49.7689 76.4102C49.9226 74.2135 50.0281 72.015 50.1818 69.8202C50.3856 66.9139 50.6215 64.0077 50.8342 61.1014C50.9182 59.945 50.9736 58.785 51.0451 57.6286C51.0666 57.2765 51.1005 56.9262 51.1345 56.5097C62.1198 53.5588 73.1729 51.1369 84.4531 49.0653C84.4585 49.5747 84.4942 50.0019 84.4638 50.4255C84.3781 51.6409 84.244 52.8528 84.1689 54.07C84.017 56.5043 83.8972 58.9405 83.7543 61.3767C83.7114 62.1095 83.6416 62.8423 83.5791 63.627H84.2887C84.6122 58.962 84.8213 54.313 85.1037 49.5086C86.5033 50.245 87.6722 51.0904 88.9645 51.8786C88.7339 55.4248 88.5033 58.9727 88.2656 62.6278C88.7482 62.5474 89.1468 62.4956 89.54 62.4133C94.0496 61.4571 98.5538 60.4758 103.067 59.5428C105.483 59.0424 107.914 58.617 110.34 58.1648C111.3 57.9861 111.482 57.507 110.864 56.7546C109.782 55.4409 108.3 54.9583 106.686 54.8296C105.952 54.7706 105.201 54.8546 104.463 54.9315C102.684 55.1191 101.022 54.8439 99.5351 53.7947C99.4189 53.7125 99.3224 53.6017 99.0811 53.3765C99.6477 53.5248 100.041 53.6142 100.429 53.7304C102.155 54.2451 103.844 54.0431 105.51 53.4605C106.583 53.0851 107.653 52.7705 108.812 52.7741C109.798 52.7777 110.712 53.0083 111.528 53.5212C112.51 54.1379 113.45 54.8189 114.392 55.4963C115.757 56.4793 117.218 56.9297 118.925 56.6169C120.215 56.381 121.515 56.213 122.716 55.6571C123.2 55.4337 123.665 55.1602 124.108 54.8653C124.335 54.7134 124.496 54.4614 124.7 54.2415L124.703 54.238ZM164.029 31.9031C164.296 31.8727 164.562 31.8441 164.83 31.8137C164.489 31.5295 164.247 31.6511 164.042 31.9174C163.74 32.0354 163.438 32.1515 163.136 32.2695C162.628 32.4328 162.267 32.6633 162.054 32.9612C162.546 32.8879 162.853 32.6002 163.125 32.2588C163.457 32.2213 163.838 32.3053 164.027 31.9049L164.029 31.9031ZM153.939 44.7256C153.132 46.2109 152.315 47.6909 151.519 49.1815C151.135 49.9018 150.787 50.6436 150.404 51.4121C151.484 51.5033 151.636 51.4247 152.016 50.7061C152.654 49.4997 153.269 48.2789 153.947 47.0939C155.764 43.9177 157.802 40.8953 160.29 38.1946C160.908 37.5226 161.523 36.8469 162.186 36.1249C161.902 35.9711 161.677 35.8478 161.445 35.7227C160.898 36.1427 160.381 36.5395 159.866 36.9363C160.21 36.468 160.553 35.9979 160.907 35.5136C160.764 35.3652 160.631 35.2258 160.499 35.0882C156.797 38.1517 149.616 48.6632 149.155 51.6945C149.589 51.7946 149.866 51.6624 150.082 51.2459C151.073 49.346 152.091 47.4621 153.099 45.571C153.294 45.2029 153.455 44.8025 153.939 44.7256ZM157.779 42.0893C157.609 42.2483 157.409 42.3842 157.275 42.5701C155.546 44.9598 154.07 47.5032 152.715 50.1199C152.599 50.3451 152.517 50.59 152.383 50.9153C152.694 50.8044 152.901 50.7312 153.085 50.665C153.251 50.8634 153.376 51.0136 153.485 51.1458C154.276 51.0404 154.999 50.9421 155.705 50.8473C155.798 50.3505 155.788 49.9358 155.959 49.6158C156.149 49.2602 156.517 49.0064 156.776 48.6828C156.898 48.5309 157.008 48.3164 157.008 48.1306C157.008 47.6515 157.28 47.387 157.607 47.101C157.836 46.9008 158.09 46.6024 158.118 46.3253C158.176 45.7694 158.438 45.3798 158.826 45.0366C159.071 44.8204 159.302 44.6255 159.318 44.2377C159.327 44.0357 159.525 43.8194 159.682 43.6514C159.965 43.3511 160.281 43.0813 160.631 42.7542C160.533 42.2126 160.894 41.8659 161.291 41.5227C161.486 41.3547 161.731 41.1616 161.793 40.9364C161.945 40.3859 162.431 40.1839 162.76 39.8175C163.103 39.4368 163.307 38.9328 163.59 38.4949C163.649 38.4037 163.806 38.3823 163.881 38.2983C164.069 38.0892 164.233 37.8604 164.453 37.5851C164.049 37.2902 163.724 37.0525 163.506 36.8934C163.064 37.0418 162.741 37.1526 162.415 37.2616L162.431 37.2759C162.469 37.0704 162.506 36.8666 162.581 36.4609C162.288 36.6879 162.163 36.7594 162.068 36.8612C161.125 37.88 160.151 38.8738 159.259 39.9373C158.697 40.6076 158.26 41.3815 157.768 42.1089L157.782 42.0928L157.779 42.0893ZM150.62 47.4585C150.921 46.9169 151.223 46.3771 151.523 45.8356L151.509 45.8517C151.727 45.5442 151.947 45.2368 152.163 44.9312C151.509 44.4593 151.55 44.218 152.35 43.5406C152.485 43.6621 152.617 43.7837 152.776 43.9267C152.946 43.6639 153.103 43.4191 153.251 43.1885C153.135 43.0384 153.049 42.9275 152.912 42.7488C153.099 42.5665 153.303 42.2215 153.464 42.2394C154.116 42.3145 154.07 41.9856 154.031 41.5263C153.986 41.0043 154.163 40.8024 154.719 40.7094C155.096 40.6469 155.278 40.4789 155.15 40.1321C154.974 39.6567 155.3 39.4762 155.589 39.2867C155.752 39.1812 155.972 39.1652 156.156 39.1133C156.09 37.88 156.93 37.4564 157.818 37.1329C158.134 36.0534 158.224 35.9622 159.185 35.8317C158.73 35.342 159.364 35.1561 159.462 34.8129C158.932 34.3589 158.109 34.4948 157.848 33.6797C157.473 34.468 156.531 34.6038 156.283 35.4063C156.258 35.485 156.075 35.5082 155.977 35.5726C155.348 35.9926 154.998 36.7218 154.308 37.0847C154.213 37.1347 154.208 37.3528 154.158 37.4922C154.011 37.9015 153.763 38.2179 153.355 38.4002C153.169 38.4842 152.998 38.5986 152.819 38.7004C152.717 39.158 152.59 39.6245 152.286 39.8837C151.941 40.1768 151.714 40.4217 151.7 40.8971C151.693 41.1241 151.521 41.4726 151.337 41.5459C150.704 41.7961 150.633 42.2841 150.615 42.8453C150.608 43.0759 150.543 43.3047 150.508 43.5209C150.138 43.7622 149.587 43.8105 149.605 44.3306C149.632 45.1314 149.173 45.5139 148.499 45.7659C148.452 46.6345 148.406 47.4907 147.396 47.8303C147.396 48.1341 147.444 48.4112 147.383 48.6614C147.31 48.9652 147.224 49.3513 147.003 49.5175C146.583 49.8339 146.49 50.2182 146.486 50.6811C146.481 51.2245 146.306 51.6695 145.791 51.9358C145.737 51.9644 145.728 52.0788 145.662 52.2433C146.104 52.2022 146.477 52.1682 146.856 52.1342C146.985 52.2772 147.108 52.4131 147.222 52.5418C147.841 52.2611 147.521 51.3853 148.186 51.2048C148.297 51.1047 148.409 51.0064 148.522 50.9063C148.522 51.1494 148.522 51.3907 148.522 51.6338C148.579 51.607 148.635 51.5784 148.692 51.5516C148.981 50.8366 149.269 50.1235 149.559 49.4085L149.546 49.4264C149.905 48.7686 150.266 48.1091 150.626 47.4514L150.62 47.4585ZM51.1077 93.9174C51.7958 93.6564 52.4035 93.4258 53.0095 93.1971C54.9005 92.4839 56.7934 91.7707 58.6862 91.0576C59.9338 90.5875 60.9651 89.8601 61.4173 88.5499C61.6568 87.8528 61.857 87.1236 61.9392 86.3944C62.118 84.8 62.2109 83.1968 62.3396 81.5971C62.4111 80.7088 62.4933 79.8204 62.5577 78.9303C62.6703 77.3896 62.815 75.8489 62.8669 74.3064C62.9384 72.2277 61.9589 72.015 60.4057 72.4065C57.9283 73.0321 55.4814 73.7774 53.0166 74.453C52.5769 74.5728 52.366 74.789 52.3446 75.252C52.3052 76.1117 52.2266 76.9714 52.1658 77.8311C51.9907 80.2923 51.8137 82.7517 51.6439 85.2129C51.4634 87.8225 51.2846 90.432 51.1113 93.0416C51.0934 93.3025 51.1095 93.567 51.1095 93.9174H51.1077ZM83.0143 50.7615C81.3699 50.5203 54.1981 56.7331 52.3982 57.6929C52.1015 62.0309 51.8012 66.4081 51.492 70.8979C51.8494 70.8425 52.1068 70.8265 52.3517 70.7603C57.0936 69.4984 61.8284 68.2008 66.5793 66.9765C69.8627 66.1311 73.1676 65.3714 76.4689 64.6011C78.1472 64.2079 79.8417 63.8754 81.5272 63.5108C82.1885 63.3678 82.2636 63.2784 82.31 62.6368C82.3726 61.777 82.4298 60.9155 82.4941 60.0558C82.6657 57.7126 82.8534 55.3711 83.0071 53.0279C83.0554 52.2933 83.0143 51.5516 83.0143 50.7615ZM86.0207 81.3987C86.169 79.9956 86.3227 78.6676 86.4443 77.3378C86.5211 76.512 86.6588 75.6934 86.4764 74.8516C86.3638 74.3315 86.1297 73.9847 85.6668 73.7631C85.4076 73.6398 85.1538 73.5057 84.7981 73.3252C85.1145 73.0446 85.3272 72.8444 85.5524 72.6603C87.0287 71.4502 87.867 68.7102 87.3076 66.9121C87.1503 66.4081 86.8214 66.0703 86.287 66.0596C85.7865 66.0488 85.2717 66.0703 84.7856 66.1775C83.1019 66.5493 81.4253 66.9568 79.7487 67.3661C78.8318 67.5895 77.922 67.8416 77.0516 68.0703C76.5743 70.8551 75.3518 84.1655 75.5108 84.9698C76.9425 84.4801 78.3653 83.9939 79.7648 83.5149C80.015 81.0859 80.2546 78.757 80.4887 76.4852C81.0213 76.1903 81.4503 76.0187 81.999 76.412C82.1545 78.5246 81.579 80.6444 81.5665 82.8947C83.1072 82.3782 84.5604 81.8884 86.0189 81.3987H86.0207ZM62.6864 89.558C64.3343 88.9592 65.7964 88.4266 67.2478 87.8993C67.4748 86.4784 67.6875 85.1378 67.9002 83.8063C68.5061 83.6025 69.0316 83.4238 69.6911 83.2021V87.0325C71.3069 86.4569 72.7744 85.9314 74.265 85.4006C74.265 85.0252 74.2758 84.7303 74.2632 84.4354C74.2275 83.6633 74.1632 82.8929 74.1417 82.1208C74.0559 79.1484 73.988 76.176 73.9004 73.2036C73.8647 71.9561 73.8039 70.7085 73.7467 69.4627C73.7395 69.2965 73.6841 69.1338 73.6377 68.8979C71.18 69.5378 68.7778 70.1651 66.3523 70.7961C65.1369 77.0161 63.9375 83.161 62.6881 89.558H62.6864ZM155.607 31.8388C150.095 32.7181 145.067 35.5154 141.93 40.0731C139.329 43.8498 137.347 51.0064 138.089 53.4569C139.605 53.2227 141.127 52.9868 142.724 52.7402C143.21 51.7071 143.732 50.6793 144.182 49.6212C144.55 48.7526 144.706 47.7677 145.188 46.9795C145.635 46.252 145.97 45.487 146.375 44.7524C146.642 44.2681 147.087 43.8909 147.106 43.2743C147.11 43.1528 147.242 42.9937 147.358 42.9222C147.798 42.6505 147.982 42.2448 148.082 41.764C148.118 41.596 148.188 41.3779 148.315 41.2939C149.119 40.7648 149.069 39.519 150.102 39.1812C150.198 39.1491 150.252 38.9346 150.291 38.7952C150.452 38.2071 150.788 37.7871 151.294 37.6781C151.519 37.2831 151.646 36.9399 151.873 36.6879C152.413 36.0855 153.042 35.5583 153.552 34.9327C153.841 34.5788 154.079 34.2445 154.547 34.1105C154.931 33.9997 155.083 33.694 155.024 33.2561C154.377 33.0863 153.75 32.9219 152.928 32.7056C153.938 32.3803 154.772 32.1104 155.607 31.8405V31.8388ZM97.0202 77.672C99.9247 76.7873 102.688 75.9723 105.432 75.0982C106.736 74.6836 107.585 73.7524 107.977 72.4333C108.095 72.0365 108.175 71.6254 108.241 71.2143C108.644 68.662 109.039 66.1096 109.426 63.5555C109.48 63.2052 109.512 62.8423 109.487 62.4902C109.432 61.7467 109.094 61.4124 108.35 61.3946C107.848 61.382 107.339 61.4214 106.844 61.5072C105.761 61.6948 104.685 61.9218 103.609 62.1452C102.1 62.4598 100.595 62.7869 98.9863 63.1301C98.3375 67.9345 97.6905 72.7211 97.022 77.672H97.0202ZM95.9335 71.5914C96.0586 70.5691 96.1748 69.6128 96.2981 68.6191C95.2114 68.7281 94.3266 69.2178 93.2935 69.2C93.3793 68.4868 93.458 67.8487 93.5402 67.1588C94.5787 66.8817 95.576 66.6172 96.5859 66.3491C96.7217 65.3607 96.8486 64.4313 96.9934 63.3767C94.3999 63.9576 91.9226 64.5135 89.49 65.0586C88.9984 67.1606 87.6508 80.0653 87.8456 80.7999C90.246 80.0224 92.6447 79.2467 95.0845 78.4585C95.1595 77.4182 95.4688 76.4531 95.3615 75.3878C94.3785 75.6648 93.4848 75.9186 92.4517 76.21C92.6107 74.8677 92.7502 73.697 92.8967 72.4762C93.8994 72.1849 94.8611 71.9042 95.9353 71.5914H95.9335ZM120.492 70.839C122.437 70.3117 124.262 69.7862 126.105 69.334C126.68 69.1928 126.925 68.8872 127.127 68.3742C128.255 65.5269 129.415 62.6922 130.568 59.8538C130.934 58.9512 131.313 58.0522 131.747 57.003C130.132 57.2658 128.652 57.5053 127.111 57.7555C126.912 58.3614 126.707 58.9459 126.528 59.5375C125.979 61.3588 125.445 63.1855 124.896 65.005C124.819 65.2606 124.828 65.6074 124.317 65.661C124.364 63.1712 124.712 60.7386 124.825 58.1648C123.223 58.4418 121.693 58.7064 120.108 58.9816C120.237 62.9353 120.363 66.8192 120.494 70.839H120.492ZM114.74 66.812C115.82 66.5296 116.841 66.2633 117.834 66.0024C117.972 65.148 118.093 64.3991 118.219 63.6305C117.178 63.6431 116.277 64.1435 115.221 64.0416C115.337 63.4214 115.439 62.8799 115.55 62.2864C116.574 62.063 117.552 61.8485 118.59 61.6198C118.732 60.8512 118.867 60.1112 119.032 59.2175C116.413 59.634 113.981 60.1023 111.58 60.5831C111.239 61.3463 109.4 72.9909 109.482 73.9275C111.94 73.2305 114.381 72.5387 116.817 71.847C116.967 70.9659 117.223 70.1848 117.169 69.3143C116.186 69.5556 115.307 69.7701 114.258 70.0275C114.431 68.8854 114.579 67.9005 114.744 66.8103L114.74 66.812ZM146.132 61.1354C145.964 61.8146 145.766 62.467 145.65 63.1337C145.548 63.7217 145.823 64.0577 146.425 64.0756C146.954 64.0917 147.498 64.0488 148.016 63.9451C149.269 63.6949 150.513 63.4053 151.755 63.1086C152.651 62.8942 153.552 62.6886 154.42 62.3919C155.343 62.0791 156.156 61.5536 156.526 60.5938C156.781 59.9325 156.966 59.2372 157.125 58.5455C157.235 58.0629 157.062 57.8073 156.596 57.6751C156.254 57.5785 155.897 57.541 155.545 57.4802C154.49 57.2979 153.432 57.1371 152.384 56.9262C151.873 56.8225 151.698 56.4221 151.907 55.9985C152.154 55.4981 152.917 55.3265 153.357 55.6822C153.487 55.7876 153.589 55.927 153.707 56.0521C154.894 55.8627 156.036 55.6696 157.182 55.5034C158.151 55.3622 158.213 55.3247 158.412 54.4185C158.544 53.8179 158.358 53.4944 157.75 53.3997C157.343 53.3371 156.915 53.3282 156.504 53.3675C155.352 53.4783 154.197 53.5981 153.053 53.7679C151.821 53.952 150.574 54.1093 149.378 54.4381C147.819 54.8671 146.972 56.213 147.035 57.8306C147.049 58.2095 147.201 58.4526 147.55 58.5741C147.718 58.6313 147.889 58.6831 148.064 58.7099C149.208 58.8905 150.354 59.0656 151.498 59.2426C151.855 59.298 152.256 59.3498 152.37 59.7466C152.522 60.2757 152.291 60.7475 151.938 61.1318C151.607 61.4929 151.248 61.4964 150.644 61.2087C150.631 61.0764 150.624 60.9281 150.602 60.7833C150.583 60.6439 150.549 60.5062 150.504 60.2846C149.067 60.5634 147.673 60.8351 146.129 61.1354H146.132ZM144.289 64.6958C144.44 64.0631 144.572 63.5001 144.717 62.8816C143.641 62.8924 142.743 63.3892 141.735 63.3088C142.307 60.5527 143.069 57.9181 143.641 55.1638C142.268 55.3604 141.038 55.5427 139.807 55.7107C139.337 55.7751 139.097 55.9967 138.99 56.4865C138.309 59.5875 137.594 62.6815 136.897 65.7789C136.843 66.0185 136.848 66.2723 136.822 66.5672C139.219 65.9863 141.523 65.4268 143.828 64.8638C143.969 64.8299 144.103 64.7637 144.288 64.6958H144.289ZM132.922 56.8064C132.512 58.7153 132.087 60.567 131.722 62.4312C131.354 64.3062 130.895 66.165 130.621 68.1418C132.153 67.7504 133.56 67.3894 135.022 67.0158C135.428 65.1873 135.846 63.3964 136.218 61.5965C136.593 59.7841 137.109 57.9968 137.395 56.0825C135.858 56.331 134.453 56.558 132.922 56.8064ZM144.768 52.4041C145.083 51.4586 145.762 50.7687 145.802 49.8089C145.809 49.6409 146.011 49.446 146.168 49.3263C146.538 49.0475 146.647 48.6954 146.665 48.2449C146.676 47.9715 146.795 47.648 146.978 47.4496C147.357 47.0385 147.601 46.5773 147.7 46.0429C147.78 45.605 147.973 45.2565 148.345 45.0205C148.651 44.8275 148.745 44.5505 148.82 44.2109C148.878 43.9481 149.047 43.6639 149.255 43.4924C149.578 43.2242 149.775 42.9436 149.78 42.5165C149.782 42.3449 149.828 42.1411 149.93 42.0088C150.4 41.3904 150.819 40.7488 151.194 40.0642C151.394 39.6996 151.825 39.4654 151.929 38.9918C151.963 38.8363 152.111 38.6575 152.254 38.5807C152.812 38.2876 153.042 37.7353 153.416 37.2884C153.927 36.6754 154.549 36.1624 155.053 35.5171C155.484 34.9666 156.143 34.5967 156.692 34.1337C156.767 34.0712 156.774 33.9282 156.831 33.7727C156.49 33.6744 156.193 33.5868 155.802 33.4742C155.684 34.0444 155.461 34.4465 154.921 34.5502C154.824 34.5681 154.694 34.6968 154.676 34.7933C154.579 35.3223 154.181 35.4886 153.675 35.5886C153.707 36.1946 153.443 36.5467 152.863 36.7111C152.654 36.7701 152.402 37.0614 152.368 37.2777C152.258 37.9748 151.861 38.3751 151.194 38.5789C151.303 39.4905 150.703 39.7961 150.161 39.9498C149.891 40.3627 149.764 40.7541 149.5 40.9203C148.899 41.2921 148.561 41.7211 148.752 42.2841C148.397 42.7935 147.979 43.1599 147.873 43.6032C147.727 44.2073 147.462 44.6345 146.949 44.8936C146.835 45.3369 146.856 45.8624 146.604 46.1162C145.848 46.874 146.016 48.152 145.044 48.7526C145.078 49.6462 144.529 50.3272 144.205 51.094C144.005 51.5694 143.884 52.077 143.712 52.6168C144.009 52.5596 144.375 52.4863 144.767 52.4113L144.768 52.4041ZM157.346 50.7026C157.997 50.8616 157.966 50.8152 158.429 50.5238C158.86 50.2539 158.724 49.7517 158.967 49.4603C159.65 48.6382 160.088 47.6837 160.606 46.7668C161.023 46.0268 161.171 45.0795 162.038 44.6327C162.074 44.6148 162.067 44.5201 162.09 44.4665C162.505 43.4888 163.402 42.8346 163.827 41.8641C163.858 41.7944 163.976 41.7693 164.04 41.7086C164.144 41.6085 164.281 41.512 164.326 41.3851C164.519 40.8542 164.843 40.4663 165.377 40.2447C165.525 40.1822 165.654 40.0231 165.74 39.8783C165.92 39.5798 166.065 39.2617 166.249 38.9078C166.058 38.7344 165.847 38.5414 165.608 38.3251C165.273 38.5467 164.98 38.7433 164.708 38.9239C164.544 39.4875 164.191 39.979 163.649 40.3984C163.556 40.4699 163.398 40.5468 163.391 40.6308C163.325 41.3618 162.621 41.5549 162.276 42.0249C161.804 42.6666 161.454 43.4012 160.833 43.9374C160.894 44.5326 160.446 44.8293 160.108 45.1975C159.97 45.3458 159.775 45.5407 159.784 45.7051C159.816 46.3414 159.352 46.6453 159.001 47.0367C158.828 47.2297 158.547 47.4603 158.558 47.6623C158.588 48.27 158.156 48.5506 157.847 48.9366C157.65 49.1815 157.448 49.455 157.366 49.7481C157.284 50.0412 157.348 50.3755 157.348 50.7026H157.346ZM160.944 34.0908C160.578 34.0861 160.338 34.2344 160.222 34.5359C160.494 34.3679 160.719 34.2302 160.944 34.0908ZM161.775 33.3241C161.487 33.3217 161.243 33.4605 161.044 33.7405C161.387 33.5457 161.582 33.4349 161.775 33.3241ZM166.784 37.2705C166.741 37.2098 166.7 37.1472 166.657 37.0865C166.508 37.1865 166.36 37.2884 166.212 37.3885C166.242 37.4332 166.271 37.4779 166.301 37.5208L166.784 37.2705ZM168.753 38.5557C168.744 38.5056 168.734 38.4556 168.725 38.4055C168.517 38.4395 168.31 38.4717 168.104 38.5056C168.115 38.561 168.126 38.6182 168.135 38.6736C168.34 38.6343 168.548 38.5968 168.753 38.5574V38.5557Z" fill="white"/>
<path d="M93.9312 93.1873C94.7373 90.6564 96.0206 88.4526 97.7758 86.5526C99.6204 84.5562 101.926 83.2889 104.532 82.5597C106.055 82.1343 107.612 81.9287 109.188 81.7965C112.089 81.5534 115.004 81.3729 117.823 80.5471C119.498 80.0574 121.08 79.3907 122.304 78.0806C122.731 77.623 123.099 77.1297 123.291 76.3808C111.292 79.6338 99.5668 83.4319 87.8916 87.3981C76.2003 91.3696 64.577 95.5288 53.0019 100.031C51.8115 99.461 50.5871 98.8765 49.2305 98.2277C49.5683 98.0704 49.7631 97.9614 49.9704 97.8863C55.6937 95.779 61.4026 93.627 67.149 91.5805C74.4916 88.9656 81.8502 86.39 89.2286 83.8805C96.5229 81.4015 103.867 79.0725 111.263 76.908C120.683 74.1502 130.156 71.5924 139.685 69.2367C141.792 68.7148 143.915 68.2554 146.01 67.6871C148.815 66.9256 151.691 66.4788 154.495 65.7317C155.237 65.5351 155.978 65.2777 156.658 64.9274C158.747 63.8514 159.643 61.9478 160.073 59.7601C160.164 59.299 160.186 58.8235 160.245 58.3213C161.033 57.6332 161.705 54.6608 161.409 52.8984C162.129 53.2059 162.658 53.7117 163.246 54.1192C163.489 54.2872 163.739 54.4695 163.914 54.7001C164.27 55.1648 164.443 55.7064 164.299 56.2944C164.036 57.3615 163.905 58.5018 163.428 59.467C162.913 60.509 162.804 61.6065 162.535 62.6807C161.802 65.5976 159.902 67.2438 157.033 67.8872C155.846 68.1536 154.658 68.4199 153.408 68.7005C153.338 68.9561 153.251 69.1992 153.21 69.4494C153.154 69.789 153.136 70.134 153.099 70.4771C153.092 70.5343 153.036 70.604 153.054 70.6469C153.344 71.3654 153.247 72.1644 153.46 72.8722C153.664 73.5532 154.128 74.1877 154.588 74.7507C154.96 75.2065 155.51 75.3924 156.155 75.4585C158.804 75.7302 161.451 75.6033 164.079 75.3495C167.966 74.9723 171.405 73.3905 174.464 70.974C174.531 70.9204 174.612 70.8793 174.658 70.8489C174.523 71.6496 174.338 72.4575 174.26 73.2761C174.174 74.1698 173.745 74.8436 173.114 75.4245C172.917 75.6068 172.719 75.7927 172.494 75.9357C171.436 76.6096 170.885 77.6266 170.719 78.8098C170.531 80.1485 169.8 81.0476 168.699 81.6928C167.663 82.2987 166.533 82.6437 165.301 82.6669C166.345 82.2058 167.352 81.691 168.033 80.7437C168.739 79.7607 168.815 78.665 168.565 77.4872C168.061 77.4228 167.836 77.7678 167.609 78.0555C167.239 78.522 166.907 79.0153 166.563 79.5015C165.266 81.3353 163.51 82.0431 161.291 81.7375C160.468 81.6249 159.626 81.6606 158.795 81.6177C158.071 81.5802 157.6 81.9484 157.324 82.5668C157.11 83.0512 156.969 83.5677 156.811 84.0253C156.381 82.6383 156.77 81.5927 158.029 80.8152C158.895 80.2808 159.88 80.1879 160.849 80.0431C161.829 79.8965 162.424 79.3442 162.824 78.3612C162.538 78.3469 162.342 78.3004 162.159 78.3308C158.751 78.9153 155.88 80.4256 153.653 83.1388C152.788 84.1933 151.778 85.1371 150.772 86.0647C148.888 87.8038 146.573 88.6421 144.08 88.9745C142.552 89.1783 141 89.2962 139.458 89.3087C135.166 89.3391 131.77 91.1104 129.119 94.4242C129.012 94.5582 128.891 94.678 128.656 94.9336C128.656 94.6065 128.617 94.4331 128.662 94.2883C129.343 92.1453 130.208 90.1184 131.842 88.4758C133.529 86.7796 135.608 85.9396 137.87 85.3837C139.138 85.0727 140.417 84.751 141.619 84.2559C143.588 83.448 144.671 81.859 145.061 79.7893C145.147 79.3335 145.206 78.8724 145.286 78.354C144.31 78.2861 143.565 78.6186 143.025 79.2066C141.812 80.5346 138.594 80.5721 137.218 79.7928C136.998 79.6677 136.8 79.5015 136.444 79.2495C137.429 79.2781 138.214 79.3371 138.998 79.3138C139.497 79.2995 140.03 79.2513 140.48 79.0618C140.984 78.8491 141.497 78.5328 141.858 78.127C142.668 77.2155 142.262 76.1681 141.05 75.9733C140.126 75.8249 139.215 75.9321 138.33 76.27C137.37 76.6364 136.546 77.2119 135.763 77.8607C134.022 79.3031 132.306 80.7795 130.523 82.1682C127.738 84.3363 124.601 85.6536 121.053 85.986C118.311 86.2434 115.589 86.1576 112.863 85.8216C111.596 85.6661 110.323 85.4838 109.049 85.4498C104.775 85.339 100.982 86.6885 97.64 89.3481C96.421 90.3186 95.3468 91.4214 94.387 92.644C94.2422 92.8281 94.0867 93.0032 93.9347 93.1838L93.9312 93.1873ZM150.645 73.9357C150.325 72.4343 150.019 71.0008 149.698 69.4905C149.267 69.5995 148.818 69.7121 148.409 69.8158C147.814 71.4244 149.086 73.7551 150.647 73.9357H150.645ZM151.272 69.0312C151.022 69.3743 150.951 69.6692 150.972 70.1C150.997 70.6112 151.113 71.1081 151.131 71.6121C151.17 72.6649 151.61 73.5299 152.309 74.2771C152.493 74.4737 152.727 74.6953 153.058 74.5559C152.856 73.9375 152.641 73.3709 152.491 72.7882C152.405 72.4539 152.511 72.0536 152.375 71.7533C151.975 70.8703 152.096 69.9445 152.053 68.9918C151.783 69.0061 151.524 69.0204 151.272 69.0329V69.0312ZM148.073 72.3431C147.996 71.9445 148.001 71.5031 147.817 71.1617C147.63 70.8114 148.055 70.3431 147.465 69.9981C147.34 70.9347 147.633 71.6532 148.071 72.3431H148.073ZM147.208 71.8981C147.127 71.3529 147.174 70.7738 146.763 70.1232C146.716 70.8954 146.763 71.4477 147.208 71.8981ZM146.091 70.4021C145.908 70.8507 146.039 71.117 146.521 71.403C146.42 70.9704 146.616 70.5772 146.091 70.4021Z" fill="white"/>
<path d="M178.302 32.101C178.49 32.0921 178.685 32.0832 178.844 32.0742C179.16 32.4371 179.094 33.8813 178.76 34.3871C178.306 34.0618 178.624 33.5488 178.422 33.0912C178.229 33.5452 178.057 33.9492 177.886 34.3549C177.823 34.3585 177.76 34.3621 177.696 34.3656C177.523 33.9527 177.351 33.5416 177.144 33.0448C177.083 33.5345 177.035 33.9206 176.987 34.3084C176.531 33.606 176.74 32.8928 176.684 32.1493C177.714 31.8419 177.392 32.9107 177.877 33.1752C178.014 32.8267 178.15 32.4853 178.302 32.0992V32.101Z" fill="white"/>
<path d="M176.567 32.2124C176.236 32.3948 176.066 32.4877 175.907 32.5753C175.634 33.158 176.091 33.8711 175.543 34.4645C175.047 33.8729 175.43 33.2116 175.203 32.5878C175.071 32.5091 174.883 32.3983 174.717 32.2982C174.778 32.0105 175.487 31.9819 176.567 32.2124Z" fill="white"/>
<path d="M55.8328 88.1147C56.0044 84.49 56.3315 80.8991 56.6175 77.3387C57.9134 76.7917 58.2762 77.008 58.2011 78.3235C58.0939 80.1895 57.9223 82.052 57.7722 83.9162C57.6989 84.8331 57.6435 85.7518 57.5201 86.6616C57.3825 87.675 57.0518 87.9432 55.8311 88.1147H55.8328Z" fill="white"/>
<path d="M52.5036 69.5656C52.7717 65.7996 53.038 62.0586 53.3097 58.239C55.1257 57.8065 56.8505 57.3721 58.5861 56.9914C59.2599 56.8431 59.6299 57.1773 59.6531 57.9441C59.6781 58.8038 59.6531 59.6707 59.587 60.5286C59.4547 62.2445 59.2831 63.9586 59.1223 65.6727C59.0883 66.0266 59.049 66.3823 58.9793 66.7308C58.8363 67.4547 58.427 68.0141 57.7263 68.234C56.1409 68.7344 54.5394 69.1777 52.9397 69.6335C52.8414 69.6621 52.7163 69.6013 52.5 69.5656H52.5036ZM55.5457 66.847C55.6333 66.8935 55.7209 66.9417 55.8085 66.9882C55.964 66.8452 56.1713 66.7308 56.2607 66.5539C56.3625 66.3519 56.3804 66.0981 56.3983 65.8621C56.5163 64.3804 56.6342 62.9005 56.7343 61.4169C56.7701 60.8825 56.7683 60.3463 56.7665 59.8101C56.7665 59.5045 56.6521 59.2882 56.1409 59.4026C55.8388 61.8549 55.7673 64.3572 55.5457 66.8452V66.847Z" fill="white"/>
<path d="M77.2719 63.5867C76.2835 63.7994 75.3737 63.996 74.3495 64.2176C74.4907 62.4821 74.6194 60.8967 74.7481 59.3148C74.1743 59.0718 74.0385 59.1182 73.9777 59.6366C73.8955 60.3444 73.8508 61.0557 73.7847 61.7671C73.7061 62.6215 73.6256 63.4741 73.5362 64.4142C72.6354 64.6269 71.7578 64.836 70.882 65.0434C70.6872 64.2909 71.3217 56.1244 71.7221 53.8419C72.5586 53.6578 73.4451 53.463 74.371 53.2592C74.6444 53.9527 74.3781 54.5837 74.3406 55.2128C74.3013 55.8599 74.2584 56.5051 74.2155 57.1521C74.9018 57.1557 74.9447 57.1396 74.9983 56.6248C75.0752 55.8867 75.1181 55.1449 75.1914 54.4049C75.2343 53.967 75.3076 53.5327 75.3755 53.0412C76.3156 52.8481 77.2022 52.664 78.2246 52.4531C77.9046 56.2012 77.5936 59.826 77.2719 63.5831V63.5867Z" fill="white"/>
<path d="M65.2509 55.4119C65.3331 55.8743 65.2753 56.4599 65.0775 57.1689C64.6432 57.2833 64.1874 57.4049 63.6941 57.5353C63.4099 58.2235 63.3384 58.9348 63.5118 59.7284C63.9783 59.6391 64.4073 59.5551 64.8684 59.4657C65.1633 60.0823 64.8916 60.6382 64.7969 61.2692C64.3286 61.4068 63.8514 61.548 63.3366 61.6999C63.0631 62.7723 62.997 63.8501 63.0596 65.0083C63.5296 64.9404 63.9533 64.8796 64.4412 64.8099V66.5115C63.047 67.0495 61.6011 67.3087 60.0264 67.7073C60.2945 63.8948 60.5483 60.2092 60.8897 56.5523C61.4867 56.1537 64.0444 55.4906 65.2509 55.4102V55.4119Z" fill="white"/>
<path d="M66.5377 55.0451C67.3313 54.8646 68.1642 54.6733 69.108 54.457C69.2313 56.0764 68.9435 57.5921 68.8184 59.1149C68.6951 60.6181 68.5753 62.1195 68.4449 63.7388C68.9846 63.6566 69.4386 63.5869 69.9373 63.5101C70.1196 64.1088 70.0231 64.6719 69.8909 65.3046C68.4306 65.6513 67.0007 65.9909 65.5582 66.3341C65.4188 65.1991 66.2428 55.7261 66.5377 55.0433V55.0451Z" fill="white"/>
<path d="M78.3918 63.3317C78.7117 59.5353 79.0138 55.9624 79.3194 52.3215C80.222 52.0427 81.1104 51.8925 82.0452 51.7656C82.0916 51.9747 82.1578 52.1159 82.1471 52.2518C82.0005 54.1768 81.836 56.1018 81.6913 58.0268C81.5983 59.2726 81.525 60.5184 81.4518 61.7642C81.3964 62.69 81.3803 62.7276 80.4562 62.9313C79.8288 63.069 79.1961 63.1762 78.3882 63.3317H78.3918Z" fill="white"/>
<path d="M81.1255 70.4272C81.2774 70.3432 81.3739 70.2628 81.4829 70.2324C82.4267 69.9768 82.7645 70.2395 82.7037 71.219C82.6394 72.2592 82.3731 72.9688 80.9628 73.0957C80.7555 72.1806 81.1272 71.3084 81.1255 70.4272Z" fill="white"/>
<path d="M69.6331 73.4258C69.9155 74.0335 69.9584 78.1409 69.7922 79.703C69.3954 79.8299 68.9557 79.9711 68.3569 80.1642C68.7359 77.8245 69.0594 75.6064 69.6331 73.4258Z" fill="white"/>
<path d="M103.12 65.1009C103.188 65.0419 103.206 65.0151 103.232 65.0044C103.617 64.8221 104.035 64.6487 104.412 64.9275C104.805 65.2171 104.689 65.6747 104.627 66.0858C104.357 67.9053 104.078 69.7231 103.813 71.5426C103.627 72.8206 103.39 73.0744 102.097 73.2889C101.942 72.6115 102.344 69.3853 103.12 65.1027V65.1009Z" fill="white"/>
<path d="M149.559 49.4791C149.302 49.749 149.044 50.0171 148.73 50.3459C148.565 49.799 148.742 49.4576 149.109 49.2163C149.409 49.0161 149.529 49.202 149.547 49.4969L149.559 49.4791Z" fill="white"/>
<path d="M150.627 47.4612C150.336 47.7025 150.046 47.9438 149.801 48.1458C149.689 47.4827 149.714 47.4416 150.545 47.1484C150.572 47.2593 150.595 47.3647 150.62 47.4702L150.625 47.463L150.627 47.4612Z" fill="white"/>
<path d="M151.521 45.8584C151.323 46.0246 151.124 46.1908 150.856 46.4143C150.783 45.8494 151.082 45.6367 151.509 45.3633V45.8745L151.523 45.8584H151.521Z" fill="white"/>
<path d="M157.404 43.5156C157.77 44.4754 157.72 44.6202 156.943 45.0277C156.566 44.3485 156.661 44.0072 157.404 43.5156Z" fill="white"/>
<path d="M160.137 40.0504C160.197 39.3819 160.659 39.0709 161.197 38.7617C161.143 39.9271 160.962 40.1451 160.137 40.0504Z" fill="white"/>
<path d="M157.765 42.1255C158.02 42.0004 158.276 41.8752 158.572 41.7305C158.95 42.4937 158.353 42.76 158.009 43.1907C157.616 42.8583 157.798 42.4615 157.779 42.1094L157.765 42.1255Z" fill="white"/>
<path d="M154.463 48.2997C154.38 47.5544 154.681 47.1648 155.322 47.0039C155.44 47.7332 155.331 47.8994 154.463 48.2997Z" fill="white"/>
<path d="M154.064 48.9492C154.202 49.6677 154.139 49.7768 153.412 50.0788C153.194 49.3156 153.292 49.144 154.064 48.9492Z" fill="white"/>
<path d="M155.653 46.5372C155.61 46.0421 155.673 45.6292 156.202 45.4219C156.636 46.0367 156.465 46.4067 155.653 46.5372Z" fill="white"/>
<path d="M162.414 37.293C162.392 38.1384 162.271 38.3279 161.645 38.4887C161.563 37.7863 161.681 37.6093 162.43 37.3073L162.414 37.293Z" fill="white"/>
<path d="M159.787 40.4898C159.692 41.0618 159.398 41.3382 158.906 41.3192C159.027 40.8795 159.113 40.4595 159.787 40.4898Z" fill="white"/>
<path d="M156.156 41.6166C156.399 40.9052 156.807 40.3136 157.343 39.7774C157.987 39.1339 158.558 38.4208 159.163 37.738C159.357 37.5181 159.552 37.3001 159.747 37.082C159.307 38.0919 158.748 39.0106 157.924 39.7684C157.298 40.344 156.744 40.9964 156.158 41.6148L156.156 41.6166Z" fill="white"/>
<path d="M154.382 44.059C154.553 43.3137 155.086 42.84 155.637 42.3789C155.497 43.1475 154.916 43.5854 154.382 44.059Z" fill="white"/>
</g>
<defs>
<clipPath id="clip0_580_87">
<rect width="231" height="127" fill="white"/>
</clipPath>
</defs>
</svg>
