<svg width="231" height="127" viewBox="0 0 231 127" fill="none" xmlns="http://www.w3.org/2000/svg">
<g clip-path="url(#clip0_665_5784)">
<g clip-path="url(#clip1_665_5784)">
<path d="M39.5998 54.2891C42.0897 54.2891 44.4079 55.4051 46.0393 57.1221C47.6706 58.8391 48.7009 61.3287 48.7009 63.99C48.7009 66.6513 47.6706 69.0551 46.0393 70.8579C44.4079 72.6607 42.0897 73.6909 39.5998 73.6909H30.5845V54.2891H39.5998ZM39.5998 57.5513H33.5896V70.4287H39.5998C41.2311 70.4287 42.7766 69.7419 43.8069 68.54C44.9231 67.3381 45.61 65.7928 45.61 63.99C45.61 62.1872 44.9231 60.556 43.8069 59.44C42.7766 58.2381 41.317 57.5513 39.5998 57.5513Z" fill="#CECECE"/>
<path d="M82.1873 54.2891V57.4655H76.6064V73.7768H73.0003V57.4655H67.4194V54.2891H82.1873Z" fill="#CECECE"/>
<path d="M159.287 54.2891V57.4655H153.707V73.7768H150.1V57.4655H144.52V54.2891H159.287Z" fill="#CECECE"/>
<path d="M164.87 54.2891H161.264V73.7768H164.87V54.2891Z" fill="#CECECE"/>
<path d="M182.556 72.9181C181.869 73.1757 181.097 73.4332 180.324 73.5191C179.551 73.6907 178.693 73.7766 177.834 73.7766C177.662 73.7766 177.576 73.7766 177.405 73.7766C177.233 73.7766 177.061 73.7766 176.975 73.7766C176.46 73.7766 175.945 73.7766 175.43 73.6908C175.001 73.6049 174.485 73.6049 174.056 73.4332C173.197 73.2615 172.425 72.9181 171.652 72.4889C170.879 72.0596 170.192 71.4587 169.591 70.8577C168.733 69.9134 168.046 68.8832 167.617 67.6813C167.187 66.5653 166.93 65.2776 166.93 63.9898C166.93 62.7021 167.187 61.4143 167.617 60.2983C168.046 59.0964 168.733 58.0662 169.591 57.1219C170.107 56.6068 170.708 56.0917 171.309 55.6625C171.91 55.2332 172.596 54.8898 173.283 54.7181C173.798 54.5464 174.4 54.3747 175.001 54.2889C175.687 54.203 176.374 54.1172 176.975 54.1172H177.233C178.263 54.1172 179.208 54.203 180.066 54.3747C180.925 54.5464 181.783 54.7181 182.642 55.0615H182.728V55.1474V58.3238V58.4955L182.556 58.4096C181.783 58.0662 180.925 57.8087 179.98 57.637C179.122 57.4653 178.177 57.3794 177.233 57.3794H177.061H176.804C176.031 57.3794 175.172 57.637 174.314 57.9804C173.455 58.3238 172.682 58.753 172.167 59.2681C172.081 59.354 172.081 59.354 171.995 59.4398C171.995 59.5257 171.91 59.5257 171.824 59.6115C171.309 60.2125 170.879 60.8993 170.622 61.586C170.364 62.2728 170.192 63.1313 170.192 63.904C170.192 64.7625 170.364 65.5351 170.622 66.3077C170.965 67.0804 171.394 67.7672 171.91 68.3681C172.081 68.5398 172.253 68.7115 172.425 68.7974C172.596 68.9691 172.768 69.0549 172.94 69.2266C173.369 69.57 174.142 69.9134 175.001 70.0851C175.687 70.2568 176.46 70.4285 177.233 70.3426H177.405H177.662C178.521 70.3426 179.379 70.2568 180.152 70.0851C180.925 69.9134 181.783 69.6559 182.47 69.3125L182.642 69.2266V69.3983V72.5747V72.6606L182.556 72.9181Z" fill="#CECECE"/>
<path d="M103.308 73.7768V54.2891H107L113.611 69.0551L120.137 54.2891H123.743V73.7768H120.394V60.2126L115.071 73.7768H111.98L106.657 60.2126V73.7768H103.308Z" fill="#CECECE"/>
<path d="M194.148 62.3589H190.799C189.254 62.3589 188.395 61.6721 188.395 60.2126C188.395 58.324 190.027 57.3796 193.289 57.3796C195.006 57.3796 196.638 57.6372 198.269 58.0664L199.471 55.2334C197.496 54.6325 195.436 54.2891 193.289 54.2891C187.622 54.2891 184.789 56.2636 184.789 60.2985C184.789 63.9041 186.764 65.707 190.799 65.707H194.148C195.951 65.707 196.895 66.3938 196.895 67.8532C196.895 69.8277 195.436 70.8579 192.431 70.8579C189.941 70.8579 187.794 70.5145 185.819 69.7419V73.0041C187.794 73.6051 189.941 73.9485 192.431 73.9485C197.84 73.9485 200.501 71.8881 200.501 67.8532C200.587 64.1617 198.441 62.3589 194.148 62.3589Z" fill="#CECECE"/>
<path d="M60.4638 54.2891H56.6859L48.4434 73.7768H52.1353L58.489 58.0664L61.7517 65.3636H57.6304L56.4283 68.4541H62.6961L65.1002 73.7768H68.9639L60.4638 54.2891Z" fill="#CECECE"/>
<path d="M92.661 54.2891H88.8832L80.6406 73.6909H84.3326L90.6862 57.9806L93.9489 65.2777H89.8276L88.6256 68.4541H94.8934L97.2975 73.6909H101.161L92.661 54.2891Z" fill="#CECECE"/>
<path d="M137.738 54.2891H133.96L125.718 73.6909H129.41L135.763 57.9806L139.026 65.2777H134.905L133.703 68.4541H139.971L142.375 73.6909H146.238L137.738 54.2891Z" fill="#CECECE"/>
</g>
</g>
<defs>
<clipPath id="clip0_665_5784">
<rect width="231" height="127" fill="white"/>
</clipPath>
<clipPath id="clip1_665_5784">
<rect width="170.861" height="20.6038" fill="white" transform="translate(30.0688 53.6953)"/>
</clipPath>
</defs>
</svg>
