<svg width="181" height="45" viewBox="0 0 181 45" fill="none" xmlns="http://www.w3.org/2000/svg">
<path d="M180.851 0.0912903V44.9313C180.721 45.0013 180.571 44.9613 180.431 44.9613C163.231 44.9613 146.031 44.9913 128.831 44.9613C96.3014 44.9013 63.7614 44.9613 31.2314 44.9313C30.9714 44.9313 30.7014 44.9313 30.4414 44.9313C30.0814 44.8813 29.7114 44.9113 29.3414 44.9013C19.7114 44.9013 10.0714 44.9013 0.441427 44.8913C0.321427 44.8913 0.181421 44.9313 0.0914209 44.8213C0.0414209 44.6913 0.0714319 44.5613 0.0714319 44.4413C0.0714319 29.7913 0.0714319 15.1312 0.0714319 0.481244C0.0714319 0.351244 0.0514209 0.221239 0.0914209 0.101239C0.211421 0.041239 0.351426 0.0712707 0.471426 0.0712707C60.4714 0.0712707 120.471 0.0712707 180.481 0.0712707C180.611 0.0712707 180.741 0.031239 180.861 0.101239L180.851 0.0912903Z" fill="#5C5C5C"/>
<path d="M0.101562 0.101263V0.0213073C60.2416 0.0213073 120.392 0.0213073 180.532 0.0213073C180.632 0.0213073 180.772 -0.0586854 180.852 0.0913146C180.652 0.0913146 180.452 0.0913146 180.252 0.0913146C120.422 0.0913146 60.6016 0.0913146 0.771576 0.0913146C0.551576 0.0913146 0.321562 0.0913146 0.101562 0.0913146V0.101263Z" fill="#F7F7F7"/>
<path d="M156.281 23.0413C156.171 23.1813 156.221 23.3413 156.221 23.4813C156.221 26.8913 156.221 30.2913 156.221 33.7013C156.221 34.2813 156.221 34.2813 155.631 34.2813C153.981 34.2813 152.341 34.2813 150.691 34.2813C150.141 34.2813 150.141 34.2813 150.131 33.7413C150.111 31.3413 150.101 28.9513 150.081 26.5513C150.081 26.4113 150.081 26.2713 150.081 26.0813C149.911 26.1813 149.911 26.3213 149.871 26.4313C148.051 31.3513 143.351 34.5113 138.101 34.2613C135.331 34.1313 132.891 33.0813 130.761 31.3213C130.671 31.2413 130.591 31.0813 130.451 31.1513C130.341 31.2113 130.391 31.3713 130.391 31.4813C130.391 32.2713 130.381 33.0513 130.391 33.8413C130.391 34.1513 130.301 34.2813 129.971 34.2813C125.561 34.2813 121.141 34.2813 116.731 34.2813C116.371 34.2813 116.301 34.1113 116.301 33.8113C116.301 31.2313 116.301 28.6413 116.301 26.0613C116.301 21.2313 116.301 16.4013 116.301 11.5713C116.301 11.4213 116.301 11.2613 116.301 11.1113C116.301 10.8913 116.411 10.8013 116.631 10.8013C118.471 10.8013 120.301 10.8013 122.141 10.8013C122.361 10.8013 122.471 10.8913 122.461 11.1113C122.461 11.2513 122.461 11.3913 122.461 11.5313C122.461 17.0113 122.461 22.4813 122.461 27.9613C122.461 28.368 122.671 28.5713 123.091 28.5713C124.671 28.5713 126.241 28.5713 127.821 28.5713C128.227 28.5713 128.344 28.3913 128.171 28.0313C126.691 25.0113 126.301 21.8813 127.491 18.7013C129.221 14.0913 132.601 11.3913 137.501 10.8813C143.051 10.3013 148.001 13.5513 149.901 18.8013C149.931 18.8813 149.961 18.9513 150.011 19.0813C150.101 18.9113 150.071 18.7713 150.081 18.6413C150.101 16.2213 150.111 13.8013 150.131 11.3813C150.131 10.8613 150.141 10.8413 150.661 10.8313C152.221 10.8113 153.791 10.8113 155.351 10.7913C155.621 10.7913 155.751 10.9513 155.881 11.1313C158.021 13.9513 160.171 16.7613 162.311 19.5813C162.741 20.1513 163.181 20.7213 163.621 21.2913C163.691 21.3913 163.741 21.5213 163.891 21.5513C163.991 21.4013 163.951 21.2313 163.951 21.0713C163.951 17.8513 163.951 14.6313 163.951 11.4113C163.951 10.8013 163.951 10.8013 164.551 10.8013C166.211 10.8013 167.871 10.8013 169.531 10.8013C169.891 10.8013 170.001 10.9213 170.001 11.2713C170.001 18.7913 169.991 26.3113 170.001 33.8313C170.001 34.1813 169.891 34.3013 169.531 34.3013C167.991 34.2813 166.451 34.2913 164.911 34.3013C164.601 34.3013 164.421 34.1913 164.241 33.9513C161.701 30.4213 159.141 26.9013 156.591 23.3813C156.501 23.2613 156.451 23.1113 156.281 23.0513V23.0413Z" fill="white"/>
<path d="M31.6014 18.6713C31.6914 18.4813 31.6614 18.3413 31.6614 18.2013C31.6614 15.9313 31.6614 13.6713 31.6614 11.4013C31.6614 10.8713 31.6714 10.8613 32.1814 10.8513C36.4314 10.8313 40.6714 10.8213 44.9214 10.8113C45.4214 10.8113 45.4314 10.8113 45.4314 11.3213C45.4314 12.8913 45.4314 14.4713 45.4314 16.0413C45.4314 16.5813 45.4314 16.5813 44.8714 16.5813C42.8314 16.5813 40.8014 16.5813 38.7614 16.5813C38.2914 16.5813 38.2814 16.5913 38.2814 17.0513C38.2814 17.7313 38.3014 18.4113 38.2814 19.0913C38.2714 19.4513 38.4014 19.5613 38.7514 19.5613C40.5614 19.5513 42.3714 19.5613 44.1914 19.5613C44.7814 19.5613 44.7814 19.5613 44.7814 20.1513C44.7814 21.6913 44.7814 23.2313 44.7814 24.7713C44.7814 25.3113 44.7814 25.3113 44.2214 25.3113C42.4214 25.3113 40.6214 25.3113 38.8214 25.3113C38.3014 25.3113 38.2914 25.3113 38.2914 25.8413C38.2914 26.6013 38.3014 27.3713 38.2914 28.1313C38.2914 28.4713 38.4114 28.5813 38.7414 28.5813C40.7914 28.5713 42.8314 28.5813 44.8814 28.5813C45.4314 28.5813 45.4314 28.5813 45.4314 29.1313C45.4314 30.6813 45.4314 32.2313 45.4314 33.7813C45.4314 34.2613 45.4114 34.2813 44.9314 34.2813C40.6614 34.2813 36.3914 34.2813 32.1214 34.2813C31.6614 34.2813 31.6514 34.2713 31.6514 33.8013C31.6514 31.5213 31.6514 29.2413 31.6514 26.9613C31.6514 26.8213 31.6514 26.6813 31.6514 26.4913C31.4914 26.6213 31.4814 26.7713 31.4214 26.8913C29.5414 31.1613 26.2614 33.5913 21.6514 34.2613C21.4914 34.2813 21.3214 34.2813 21.1614 34.2813C17.9514 34.2813 14.7414 34.2813 11.5214 34.2813C10.9414 34.2813 10.9414 34.2813 10.9414 33.6913C10.9414 26.2513 10.9414 18.8213 10.9414 11.3813C10.9414 10.8013 10.9414 10.8013 11.5314 10.8013C14.7414 10.8113 17.9514 10.7813 21.1714 10.8613C23.6314 10.9213 25.8014 11.8613 27.7214 13.3613C29.4214 14.6813 30.6714 16.3413 31.4514 18.3513C31.4814 18.4413 31.5214 18.5213 31.5914 18.6613L31.6014 18.6713Z" fill="white"/>
<path d="M79.0215 22.5412C79.0215 26.2512 79.0215 29.9712 79.0215 33.6812C79.0215 34.2812 79.0215 34.2813 78.4115 34.2813C76.7515 34.2813 75.0915 34.2813 73.4315 34.2813C72.9715 34.2813 72.9615 34.2712 72.9515 33.8012C72.9315 32.9212 72.9115 32.0412 72.9115 31.1612C72.9115 30.8612 72.8015 30.7513 72.4915 30.7513C70.4115 30.7513 68.3215 30.7513 66.2415 30.7513C65.9915 30.7513 65.8315 30.8613 65.6615 31.0213C60.9115 35.5013 53.4715 35.3412 48.9215 30.6712C44.1415 25.7612 44.6015 18.1412 49.9515 13.7312C55.3115 9.31123 62.2715 10.0213 66.9215 14.2013C67.5215 14.7413 67.4315 14.6213 67.0415 15.2113C66.2415 16.4413 65.4215 17.6613 64.6115 18.8913C64.4415 19.1513 64.3315 19.1913 64.0815 18.9613C62.2415 17.3413 60.1015 16.6013 57.6415 16.8413C57.2015 16.8813 56.7515 16.8912 56.3115 16.9712C53.7115 17.4912 51.8615 19.6012 51.6615 22.3012C51.4815 24.7012 53.1015 27.0913 55.4815 27.9513C57.8915 28.8213 60.6815 27.9813 62.1415 25.8813C64.1115 23.0413 66.0215 20.1612 67.9615 17.3012C69.3415 15.2612 70.7315 13.2112 72.1115 11.1612C72.2815 10.9012 72.4715 10.7813 72.8015 10.7813C74.6915 10.7913 76.5915 10.7813 78.4815 10.7813C79.0115 10.7813 79.0215 10.7813 79.0215 11.3413C79.0215 15.0613 79.0215 18.7913 79.0215 22.5113V22.5412Z" fill="white"/>
<path d="M115.472 22.5513C115.472 26.2713 115.472 30.0013 115.472 33.7213C115.472 34.2813 115.472 34.2813 114.912 34.2913C113.242 34.2913 111.572 34.2913 109.902 34.2913C109.452 34.2913 109.422 34.2613 109.422 33.8113C109.422 31.0813 109.422 28.3613 109.422 25.6313C109.422 25.0413 109.422 25.0313 108.842 25.0313C106.842 25.0313 104.842 25.0313 102.842 25.0313C102.272 25.0313 102.262 25.0413 102.262 25.6013C102.262 28.2713 102.262 30.9313 102.262 33.6013C102.262 34.0613 102.029 34.2913 101.562 34.2913C99.9123 34.2913 98.2723 34.2913 96.6223 34.2913C96.1923 34.2913 96.1523 34.2613 96.1523 33.8313C96.1523 26.3113 96.1523 18.7913 96.1523 11.2713C96.1523 10.8413 96.1823 10.8113 96.6223 10.8113C98.3323 10.8113 100.032 10.8113 101.742 10.8113C102.202 10.8113 102.212 10.8213 102.212 11.2913C102.232 13.8513 102.242 16.4113 102.262 18.9713C102.262 19.5613 102.262 19.5613 102.852 19.5613C104.862 19.5613 106.872 19.5613 108.892 19.5613C109.382 19.5613 109.402 19.5413 109.412 19.0413C109.412 16.4813 109.422 13.9213 109.432 11.3613C109.432 10.8213 109.432 10.8113 109.992 10.8113C111.672 10.8113 113.362 10.8113 115.042 10.8113C115.402 10.8113 115.502 10.9313 115.502 11.2813C115.492 15.0413 115.502 18.8013 115.502 22.5613L115.472 22.5513Z" fill="white"/>
<path d="M90.612 25.2813C90.612 28.0913 90.612 30.9013 90.612 33.7013C90.612 34.2713 90.612 34.2813 90.052 34.2813C88.402 34.2813 86.762 34.2813 85.112 34.2813C84.552 34.2813 84.552 34.2813 84.552 33.7113C84.552 28.1313 84.552 22.5513 84.552 16.9713C84.552 16.5246 84.3253 16.3013 83.872 16.3013C82.672 16.3013 81.472 16.3013 80.272 16.3013C79.952 16.3013 79.832 16.1813 79.832 15.8713C79.832 14.3313 79.832 12.7913 79.832 11.2513C79.832 10.9513 79.932 10.8413 80.242 10.8413C85.092 10.8413 89.942 10.8213 94.782 10.8013C95.262 10.8013 95.292 10.8213 95.292 11.2913C95.292 12.7913 95.292 14.3013 95.292 15.8013C95.292 16.2613 95.262 16.2913 94.782 16.2913C93.582 16.2913 92.382 16.2913 91.182 16.2913C90.612 16.2913 90.612 16.2913 90.612 16.8513C90.612 19.6613 90.612 22.4713 90.612 25.2713V25.2813Z" fill="white"/>
<path d="M30.4816 44.8513C28.0416 44.8513 25.6116 44.8513 23.1716 44.8513C15.7216 44.8513 8.27157 44.8513 0.831573 44.8513C0.581573 44.8513 0.331563 44.8813 0.101562 44.7713C1.03156 44.7713 1.96157 44.7913 2.89157 44.7913C11.8416 44.7913 20.7916 44.7913 29.7516 44.8013C30.0016 44.8013 30.2416 44.7813 30.4916 44.8413L30.4816 44.8513Z" fill="#F7F7F7"/>
<path d="M132.623 22.5713C132.623 19.2713 135.343 16.5913 138.673 16.5913C142.013 16.5913 144.753 19.2913 144.753 22.5613C144.753 25.8713 142.023 28.5513 138.663 28.5613C135.333 28.5613 132.613 25.8813 132.613 22.5713H132.623Z" fill="#5C5C5C"/>
<path d="M17.5999 22.5713C17.5999 20.6613 17.5999 18.7413 17.5999 16.8313C17.5999 16.3113 17.6099 16.3013 18.1399 16.3013C19.2299 16.3013 20.3299 16.3013 21.4199 16.3013C23.0899 16.3113 24.4299 17.3613 24.9499 18.9313C25.7599 21.3813 25.7499 23.8113 24.9499 26.2613C24.4699 27.7413 23.1299 28.8213 21.5699 28.8613C20.3899 28.8913 19.2199 28.8613 18.0399 28.8813C17.6999 28.8813 17.5898 28.7513 17.5898 28.4213C17.5898 26.4713 17.5898 24.5213 17.5898 22.5713H17.5999Z" fill="#5C5C5C"/>
<path d="M72.9602 23.3813C72.9602 23.9913 72.9602 24.6013 72.9602 25.2113C72.9602 25.5013 72.8502 25.6112 72.5602 25.6112C71.7102 25.6112 70.8702 25.6112 70.0202 25.6112C69.9202 25.6112 69.7902 25.6513 69.7402 25.5313C69.6902 25.4313 69.7902 25.3613 69.8402 25.2813C70.7702 23.9813 71.7002 22.6813 72.6402 21.3913C72.6902 21.3213 72.7302 21.1912 72.8402 21.2312C72.9402 21.2712 72.9102 21.4012 72.9102 21.4812C72.9102 22.1112 72.9102 22.7513 72.9102 23.3813H72.9602Z" fill="#5C5C5C"/>
</svg>
