<svg width="231" height="127" viewBox="0 0 231 127" fill="none" xmlns="http://www.w3.org/2000/svg">
<g clip-path="url(#clip0_411_714)">
<g clip-path="url(#clip1_411_714)">
<path d="M44 72.5H61.4L60.4 73.9H44V72.5Z" fill="#CECECE"/>
<path d="M187.499 73.9H166.199L167.299 72.5H187.599V73.9H187.499Z" fill="#CECECE"/>
<path d="M44 69.8984H63.4L62.3 71.2984H44V69.8984Z" fill="#CECECE"/>
<path d="M44 67.2969H65.4L64.3 68.6969H44V67.2969Z" fill="#CECECE"/>
<path d="M187.499 71.2984H168.199L169.299 69.8984H187.599V71.2984H187.499Z" fill="#CECECE"/>
<path d="M171.2 67.2969H187.5V68.6969H170.1L171.2 67.2969Z" fill="#CECECE"/>
<path d="M62.8008 73.9016L72.0008 61.6016C72.0008 61.6016 82.2008 61.6016 83.4008 61.6016C84.7008 61.6016 84.7008 62.1016 84.0008 62.9016C83.4008 63.7016 82.3008 65.2016 81.7008 66.0016C81.4008 66.5016 80.8008 67.2016 82.7008 67.2016C84.8008 67.2016 98.0008 67.2016 98.0008 67.2016C96.8008 69.0016 92.6008 74.0016 85.2008 74.0016C79.2008 73.9016 62.8008 73.9016 62.8008 73.9016Z" fill="#CECECE"/>
<path d="M115.5 67.2969L110.5 73.9969H97.4004L102.4 67.2969H115.5Z" fill="#CECECE"/>
<path d="M134.6 67.2969L129.6 73.9969H116.4L121.4 67.2969H134.6Z" fill="#CECECE"/>
<path d="M138.901 67.2969C138.901 67.2969 137.901 68.5969 137.501 69.1969C135.801 71.3969 137.301 73.9969 142.701 73.9969C148.901 73.9969 163.901 73.9969 163.901 73.9969L168.901 67.2969H138.901Z" fill="#CECECE"/>
<path d="M69.2992 53.9984L64.6992 60.0984C64.6992 60.0984 88.3992 60.0984 89.6992 60.0984C90.9992 60.0984 90.9992 60.5984 90.2992 61.3984C89.6992 62.1984 88.5992 63.6984 87.9992 64.4984C87.6992 64.8984 87.0992 65.6984 88.9992 65.6984C91.0992 65.6984 99.1992 65.6984 99.1992 65.6984C99.1992 65.6984 100.899 63.4984 102.199 61.5984C104.099 59.0984 102.399 53.8984 95.6992 53.8984C89.6992 53.9984 69.2992 53.9984 69.2992 53.9984Z" fill="#CECECE"/>
<path d="M135.7 65.7H103.5L112.3 54H125.5L120.5 60.7H126.4L131.4 54H144.6L135.7 65.7Z" fill="#CECECE"/>
<path d="M162.8 54L154 65.7H140L148.8 54H162.8Z" fill="#CECECE"/>
</g>
</g>
<defs>
<clipPath id="clip0_411_714">
<rect width="231" height="127" fill="white" transform="matrix(-1 0 0 1 231 0)"/>
</clipPath>
<clipPath id="clip1_411_714">
<rect width="143.5" height="20" fill="white" transform="translate(44 54)"/>
</clipPath>
</defs>
</svg>
