<svg width="100" height="100" viewBox="0 0 100 100" fill="none" xmlns="http://www.w3.org/2000/svg">
<g clip-path="url(#clip0_472_1095)">
<path d="M3.18359 83.5783C3.5723 83.1272 4.06919 82.9824 4.65409 82.9916C5.78172 83.0099 6.91118 82.9824 8.0388 82.9989C8.5742 83.0062 8.84006 82.8064 8.80522 82.249C8.78689 81.9446 8.80522 81.6402 8.80522 81.334C8.80522 64.108 8.80339 46.8819 8.80706 29.6539C8.80706 26.0199 11.0256 23.5208 14.6084 23.1137C15.3326 23.0312 16.0679 23.0239 16.7976 23.0184C18.4441 23.0055 20.0907 23.0092 21.7372 23.0184C22.1002 23.0202 22.4687 23.0514 22.8263 23.1192C23.3745 23.2256 23.6826 23.5996 23.6881 24.1478C23.6954 24.7144 23.3342 25.0444 22.8116 25.1691C22.5201 25.2388 22.2066 25.2388 21.904 25.2388C19.7991 25.2443 17.696 25.2388 15.5911 25.2424C12.5383 25.2498 10.934 26.867 10.9321 29.951C10.9285 37.8168 10.9321 45.6827 10.9321 53.5504C10.9321 62.9418 10.9321 72.3314 10.9321 81.7228C10.9321 82.9916 10.934 82.9952 12.1734 82.9952C37.4231 82.9952 62.6709 82.9952 87.9206 82.9952C89.1289 82.9952 89.1325 82.9916 89.1325 81.7833C89.1325 64.4967 89.1344 47.2082 89.1325 29.9216C89.1325 26.8541 87.519 25.2498 84.446 25.2443C82.3411 25.2406 80.238 25.2443 78.1331 25.2424C77.7683 25.2424 77.3997 25.2644 77.0532 25.1104C76.6223 24.9197 76.3546 24.6044 76.3711 24.1258C76.3858 23.6583 76.6333 23.3172 77.0825 23.1595C77.2805 23.0899 77.4987 23.0367 77.7078 23.0367C80.4489 23.0532 83.1992 22.846 85.9312 23.1577C88.8465 23.4896 91.1934 26.139 91.2503 29.1222C91.2888 31.1336 91.2613 33.1468 91.2613 35.1582C91.2613 50.6461 91.2613 66.1358 91.2613 81.6237C91.2613 82.5356 91.7044 82.9928 92.5906 82.9952C93.5972 82.9952 94.6038 82.9769 95.6086 83.0044C96.5584 83.0319 96.9086 83.4114 96.9397 84.3649C96.9507 84.7004 96.9049 85.0415 96.9489 85.3697C97.2239 87.3811 96.4025 88.7085 94.5195 89.4511C93.7512 89.7537 93.2452 90.3716 92.9225 91.1343C92.3211 92.5608 91.2026 93.2099 89.6954 93.2649C89.4516 93.274 89.2077 93.2722 88.9638 93.2722C63.0138 93.2722 37.0637 93.2722 11.1136 93.2759C10.4701 93.2759 9.8265 93.2649 9.21043 93.0834C8.28083 92.8083 7.60059 92.1978 7.23205 91.3103C6.8195 90.3184 6.11359 89.6675 5.16198 89.2274C4.31489 88.8369 3.57597 88.3143 3.18543 87.4177V83.5746L3.18359 83.5783ZM50.0378 85.2248C35.5272 85.2248 21.0148 85.223 6.50413 85.2358C6.07142 85.2358 5.44251 84.97 5.27933 85.674C5.11798 86.3616 5.32517 86.9373 6.02008 87.2637C6.35011 87.4196 6.66915 87.5993 6.98635 87.7826C7.76744 88.2355 8.49535 88.8094 8.79789 89.6565C9.22877 90.8629 10.03 91.0683 11.1998 91.0665C37.0821 91.0371 62.9661 91.0445 88.8483 91.0445C89.1527 91.0445 89.4589 91.0298 89.7633 91.0445C90.3207 91.0701 90.713 90.8263 90.9111 90.3184C91.463 88.8956 92.5026 87.9623 93.8631 87.3554C94.602 87.0253 94.9925 86.4863 94.7835 85.6905C94.5781 84.9094 93.8704 85.2413 93.39 85.2395C78.9399 85.2211 64.4898 85.2248 50.0378 85.2248Z" fill="white"/>
<path d="M70.5255 6.18359C73.4005 7.01235 74.387 8.327 74.387 11.3432C74.387 31.7651 74.3833 52.1871 74.3925 72.609C74.3925 74.6809 73.681 76.2999 71.7027 77.1782C71.0242 77.4789 70.289 77.5486 69.5556 77.5486C56.5393 77.5522 43.5212 77.5596 30.5049 77.5449C27.43 77.5412 25.6772 75.7609 25.6753 72.7007C25.6698 52.1577 25.6717 31.6129 25.6753 11.07C25.6753 8.3545 26.7736 6.97935 29.5349 6.18543H70.5255V6.18359ZM72.1537 41.8624C72.1537 33.4171 72.1537 24.9719 72.1537 16.5266C72.1537 14.5152 72.1702 12.502 72.1409 10.4906C72.1225 9.19793 71.3781 8.48102 70.0818 8.42051C69.8691 8.41134 69.6546 8.41318 69.4419 8.41318C56.5136 8.41318 43.5835 8.41318 30.6552 8.41318C30.3509 8.41318 30.0428 8.40584 29.7403 8.43518C28.7025 8.53602 28.0058 9.24377 27.9251 10.2724C27.9013 10.5749 27.9068 10.8811 27.9068 11.1873C27.9068 31.6441 27.9068 52.1027 27.9068 72.5595C27.9068 72.8951 27.8994 73.2324 27.9343 73.5643C28.0314 74.4902 28.7319 75.1925 29.6596 75.2915C29.9915 75.3263 30.3289 75.319 30.6644 75.319C43.5633 75.319 56.4605 75.319 69.3594 75.319C69.7243 75.319 70.0946 75.33 70.4558 75.286C71.3323 75.1796 72.0254 74.4811 72.1207 73.601C72.1665 73.1774 72.1537 72.7484 72.1537 72.3211C72.1537 62.1688 72.1537 52.0165 72.1537 41.8624Z" fill="white"/>
<path d="M40.4811 25.8187C37.8903 25.8187 35.2995 25.8242 32.7069 25.8169C31.4326 25.8132 31.1245 25.5144 31.1227 24.2657C31.1154 20.5785 31.1154 16.8894 31.1227 13.2022C31.1245 12.0874 31.4802 11.6785 32.5785 11.6748C37.8518 11.6547 43.125 11.6565 48.4001 11.673C49.5149 11.6767 49.8963 12.0837 49.8981 13.1673C49.9073 16.8857 49.9073 20.6042 49.8981 24.3226C49.8945 25.4979 49.5607 25.8132 48.3433 25.8169C45.7213 25.8242 43.0994 25.8187 40.4792 25.8187H40.4811ZM40.5507 13.8934C38.4477 13.8934 36.3428 13.9172 34.2397 13.8806C33.4935 13.8677 33.2239 14.1079 33.2349 14.8743C33.2716 17.4963 33.2661 20.1183 33.2368 22.7402C33.2294 23.437 33.4238 23.7102 34.1645 23.7047C38.4018 23.6772 42.641 23.6808 46.8783 23.701C47.542 23.7047 47.7951 23.503 47.7877 22.8136C47.7584 20.1623 47.751 17.5091 47.7914 14.8578C47.8024 14.0713 47.498 13.8696 46.7701 13.8824C44.6982 13.9154 42.6245 13.8934 40.5507 13.8934Z" fill="white"/>
<path d="M59.6382 57.9071C62.229 57.9071 64.8198 57.9016 67.4106 57.9089C68.6079 57.9126 68.9342 58.2353 68.9361 59.4271C68.9434 63.1143 68.9434 66.8034 68.9361 70.4907C68.9342 71.6549 68.5785 72.0473 67.4179 72.051C62.1758 72.0657 56.9319 72.0657 51.6898 72.051C50.5292 72.0473 50.1607 71.6513 50.1588 70.498C50.1515 66.8107 50.1515 63.1217 50.1588 59.4344C50.1607 58.2426 50.4925 57.9126 51.6807 57.9089C54.332 57.8997 56.9851 57.9071 59.6364 57.9071H59.6382ZM59.5117 69.8287C61.6148 69.8287 63.7197 69.8049 65.8227 69.8416C66.569 69.8544 66.8385 69.6124 66.8275 68.8478C66.7908 66.2258 66.7963 63.6039 66.8257 60.9838C66.833 60.287 66.6405 60.0156 65.8961 60.0211C61.6588 60.0505 57.4196 60.0468 53.1823 60.0248C52.5167 60.0211 52.2656 60.2228 52.2729 60.9122C52.3022 63.5635 52.3096 66.2167 52.2692 68.868C52.2564 69.6582 52.5681 69.8544 53.2923 69.8416C55.3642 69.8086 57.438 69.8306 59.5117 69.8306V69.8287Z" fill="white"/>
<path d="M50.0636 31.0572C55.6412 31.0572 61.2188 31.0572 66.7946 31.0572C67.1595 31.0572 67.5299 31.048 67.8893 31.1031C68.4907 31.1947 68.9215 31.5138 68.9142 32.1812C68.9087 32.8486 68.4613 33.1474 67.8673 33.2465C67.5702 33.296 67.2604 33.2868 66.956 33.2868C55.6797 33.2868 44.4035 33.2886 33.1272 33.285C32.7348 33.285 32.3296 33.2721 31.9501 33.1823C31.4202 33.0558 31.1158 32.6817 31.1433 32.1152C31.1672 31.5908 31.477 31.2589 31.9702 31.1562C32.3535 31.0755 32.755 31.0627 33.1492 31.0627C38.7873 31.0572 44.4255 31.059 50.0636 31.059V31.0572Z" fill="white"/>
<path d="M50.027 50.4436C55.6047 50.4436 61.1823 50.4436 66.7581 50.4436C67.0624 50.4436 67.3686 50.4326 67.6712 50.4601C68.3349 50.5206 68.8978 50.7644 68.9088 51.5327C68.9216 52.356 68.3312 52.5962 67.6327 52.6622C67.4511 52.6787 67.2678 52.675 67.0844 52.675C55.7165 52.675 44.3486 52.675 32.9806 52.675C32.8889 52.675 32.7973 52.675 32.7056 52.6732C31.6586 52.642 31.1251 52.2551 31.1379 51.5382C31.1508 50.8305 31.6788 50.4491 32.7441 50.4472C38.5051 50.4399 44.2642 50.4436 50.0252 50.4436H50.027Z" fill="white"/>
<path d="M49.9987 37.5906C55.6974 37.5906 61.3942 37.5906 67.0928 37.5906C67.3972 37.5906 67.7052 37.576 68.0059 37.6145C68.5596 37.6878 68.8915 38.0142 68.9153 38.5826C68.9392 39.1473 68.6366 39.5195 68.1067 39.6497C67.7877 39.7285 67.4412 39.712 67.1075 39.712C55.712 39.7139 44.3166 39.7139 32.9211 39.7139C32.8001 39.7139 32.6773 39.712 32.5563 39.7139C31.8082 39.7212 31.2031 39.514 31.1463 38.6413C31.1023 37.9573 31.5918 37.5943 32.5434 37.5925C36.26 37.5851 39.9784 37.5888 43.695 37.5888C45.7981 37.5888 47.8993 37.5888 50.0024 37.5888L49.9987 37.5906Z" fill="white"/>
<path d="M50.0285 46.1348C44.3555 46.1348 38.6826 46.1348 33.0096 46.1348C32.7052 46.1348 32.3972 46.1477 32.0947 46.1183C31.5391 46.0652 31.1907 45.7553 31.1449 45.1887C31.1009 44.6258 31.3998 44.2426 31.9223 44.0941C32.2377 44.0043 32.5861 44.0134 32.9179 44.0134C44.3244 44.0098 55.7308 44.0098 67.1372 44.0098C67.2894 44.0098 67.4416 44.0098 67.5938 44.0134C68.318 44.0281 68.8919 44.294 68.9029 45.0989C68.9121 45.935 68.3199 46.1385 67.5938 46.1367C62.7753 46.133 57.9567 46.1367 53.1364 46.1367C52.0986 46.1367 51.0626 46.1367 50.0248 46.1367L50.0285 46.1348Z" fill="white"/>
<path d="M38.9593 69.8305C40.8461 69.8305 42.7328 69.8305 44.6213 69.8305C44.8945 69.8305 45.1714 69.8195 45.4427 69.8543C46.0716 69.9386 46.5722 70.2118 46.585 70.9269C46.5979 71.6402 46.1175 71.9372 45.4812 72.0289C45.241 72.0637 44.9954 72.0582 44.7515 72.0582C40.8259 72.0582 36.8985 72.0619 32.9728 72.0582C31.693 72.0582 31.121 71.6933 31.1411 70.9177C31.1595 70.1752 31.7114 69.8323 32.9343 69.8286C34.9439 69.8231 36.9516 69.8286 38.9612 69.8286L38.9593 69.8305Z" fill="white"/>
<path d="M61.4859 13.8932C59.6267 13.8932 57.7657 13.8987 55.9065 13.8877C55.5746 13.8877 55.2299 13.8712 54.9145 13.7795C54.425 13.6365 54.172 13.2698 54.183 12.7472C54.194 12.2614 54.4543 11.9552 54.8962 11.7901C55.2776 11.6471 55.6755 11.6618 56.0715 11.6618C59.7313 11.6618 63.3892 11.6581 67.0489 11.6618C68.347 11.6618 68.9154 12.0065 68.9209 12.7692C68.9283 13.5393 68.358 13.8877 67.0672 13.8895C65.208 13.8932 63.347 13.8895 61.4878 13.8895L61.4859 13.8932Z" fill="white"/>
<path d="M38.8662 56.9844C40.9692 56.9844 43.0741 56.9789 45.1772 56.9862C46.1362 56.9899 46.633 57.3456 46.5835 58.0222C46.5212 58.8803 45.9235 59.1076 45.1717 59.1076C40.9637 59.1076 36.7558 59.1076 32.5478 59.1076C31.7979 59.1076 31.1616 58.8821 31.1525 58.0204C31.1415 57.1183 31.8107 56.9789 32.5515 56.9826C34.6545 56.9917 36.7594 56.9862 38.8625 56.9862L38.8662 56.9844Z" fill="white"/>
<path d="M38.868 65.5275C36.7649 65.5275 34.66 65.522 32.557 65.5312C31.8144 65.5349 31.1525 65.39 31.1543 64.4898C31.1561 63.617 31.7905 63.4043 32.5423 63.4043C36.7503 63.4043 40.9582 63.4043 45.1644 63.4043C45.9143 63.4043 46.5194 63.6115 46.5817 64.4751C46.6312 65.148 46.116 65.522 45.1772 65.5257C43.0741 65.533 40.9692 65.5275 38.8662 65.5275H38.868Z" fill="white"/>
<path d="M61.5614 20.3244C59.7334 20.3244 57.9053 20.3244 56.0773 20.3244C55.8334 20.3244 55.5896 20.3317 55.3457 20.3152C54.6471 20.2712 54.1594 19.9724 54.1888 19.2004C54.2163 18.478 54.6911 18.203 55.3567 18.203C59.4693 18.1993 63.582 18.203 67.6946 18.2012C68.4097 18.2012 68.9066 18.5037 68.9047 19.2573C68.9047 20.0145 68.3785 20.3134 67.6836 20.3171C65.6429 20.3262 63.6003 20.3207 61.5596 20.3207V20.3262L61.5614 20.3244Z" fill="white"/>
<path d="M61.5673 26.7462C59.5559 26.7462 57.5463 26.7425 55.5349 26.748C54.8254 26.7498 54.2405 26.594 54.1855 25.7432C54.1415 25.0392 54.609 24.6284 55.5331 24.6248C59.5247 24.6119 63.5163 24.6193 67.5061 24.6193C68.256 24.6193 68.8923 24.8448 68.9033 25.7047C68.9161 26.6068 68.2469 26.7498 67.5061 26.748C65.5259 26.7407 63.5457 26.7462 61.5655 26.7462H61.5673Z" fill="white"/>
</g>
<defs>
<clipPath id="clip0_472_1095">
<rect width="94" height="87.2801" fill="white" transform="translate(3 6)"/>
</clipPath>
</defs>
</svg>
