<svg width="163" height="55" viewBox="0 0 163 55" fill="none" xmlns="http://www.w3.org/2000/svg">
<path d="M40.5801 34.4693L45.1664 1.88086H68.9176L68.3572 5.90754L65.9691 22.9764C65.7297 24.69 65.4989 26.4088 65.2284 28.1188C65.1599 28.3359 64.9846 28.5047 64.7654 28.566C60.4776 28.5912 56.1906 28.5855 51.7939 28.5855C51.9223 27.6327 52.0204 26.7405 52.1855 25.8563C52.2079 25.7315 52.5476 25.5909 52.7431 25.5858C53.8509 25.5591 54.9616 25.5555 56.0694 25.5858C56.5195 25.5966 56.6839 25.4618 56.7481 24.9966C57.6345 18.6158 58.5346 12.2379 59.4477 5.86066C59.491 5.55557 59.5126 5.24544 59.5458 4.89852H53.703C53.3554 7.36011 53.0092 9.80583 52.6644 12.253C52.0615 16.5372 51.4592 20.822 50.8577 25.1062C50.4474 28.0351 50.029 30.9612 49.6331 33.8916C49.5775 34.2948 49.5227 34.5624 49.0142 34.558C46.3139 34.5393 43.6151 34.5494 40.9169 34.5458C40.8037 34.5299 40.6897 34.5047 40.5801 34.4693Z" fill="white"/>
<path d="M18.4136 7.725C18.2845 8.67992 18.1951 9.5382 18.0306 10.382C18.0011 10.5328 17.6614 10.7189 17.4601 10.7239C16.3523 10.7571 15.2438 10.7593 14.1338 10.7311C13.6751 10.721 13.5171 10.8747 13.4537 11.3298C12.5586 17.7589 11.6527 24.1866 10.7346 30.6121C10.6985 30.8674 10.6877 31.127 10.6625 31.4213H16.5377L20.7021 1.86133H29.626C28.0941 12.7362 26.5672 23.5612 25.0389 34.4181H1.25391C1.59649 32.038 1.94053 29.6903 2.27085 27.3376C3.07287 21.6507 3.86984 15.9623 4.66176 10.271C4.75985 9.58363 4.82909 8.88403 4.97261 8.20318C5.01084 8.01999 5.26616 7.74664 5.43132 7.74447C9.71692 7.71562 14.0047 7.725 18.4136 7.725Z" fill="white"/>
<path d="M108.53 24.0901H117.489L116.468 31.4136H122.374L123.598 22.6231H108.768L110.847 7.76562H134.589C134.413 9.11074 134.25 10.4133 134.07 11.7159C133.802 13.669 133.532 15.6214 133.23 17.5687C133.199 17.7764 132.947 18.1168 132.794 18.1168C129.978 18.1479 127.161 18.1406 124.225 18.1406L125.238 10.7862H119.341L118.113 19.612H132.941C132.589 22.1515 132.255 24.6008 131.909 27.0508C131.587 29.3372 131.251 31.6184 130.936 33.9055C130.888 34.2582 130.837 34.4738 130.397 34.4731C122.706 34.4587 115.016 34.4522 107.328 34.4551C107.252 34.4392 107.179 34.4147 107.109 34.3829L108.53 24.0901Z" fill="white"/>
<path d="M67.7246 34.4216L71.4657 7.7574H80.3896L77.0841 31.3967H82.9485C83.1303 30.1223 83.3178 28.8471 83.4952 27.5677C84.2374 22.307 84.9803 17.0484 85.7224 11.7877C85.8912 10.5991 86.0816 9.41192 86.2309 8.21755C86.2749 7.86631 86.3773 7.71413 86.7574 7.71485C89.4801 7.72711 92.2035 7.7235 94.9276 7.72711C95.0264 7.7437 95.1223 7.7675 95.2161 7.80139L91.4829 34.4252L67.7246 34.4216Z" fill="white"/>
<path d="M134.174 34.4147L137.914 7.76562H161.669L159.597 22.5734H146.204L146.618 19.6127H151.051L152.317 10.7811H146.446L143.525 31.4179H149.397C149.61 30.0671 149.808 28.7205 150.053 27.3812C150.089 27.185 150.322 26.8813 150.466 26.8799C153.282 26.8518 156.101 26.8597 159.011 26.8597L157.934 34.4183L134.174 34.4147Z" fill="white"/>
<path d="M108.322 1.85547L103.734 34.4115H94.8105L99.3983 1.85547H108.322V1.85547Z" fill="white"/>
<path d="M40.9728 7.84246L37.2468 34.4295H28.3359C28.5213 33.0649 28.6937 31.7393 28.8826 30.4172C29.6356 25.0361 30.3907 19.6549 31.148 14.2745C31.4322 12.25 31.7121 10.2269 32.0236 8.20597C32.051 8.02638 32.3172 7.74437 32.4708 7.74293C35.2425 7.71985 38.015 7.73428 40.786 7.74293C40.8227 7.74582 40.8639 7.78621 40.9728 7.84246Z" fill="white"/>
<path d="M0.71875 53.8109V44.6562H4.79519C6.38769 44.6562 7.36208 45.6177 7.36208 46.9895C7.36208 48.1427 6.59324 48.9108 5.75588 49.089C6.73028 49.2404 7.54023 50.2422 7.54023 51.34C7.54023 52.8084 6.56583 53.8109 4.89184 53.8109H0.71875ZM6.18141 47.1546C6.18141 46.331 5.63255 45.6718 4.60334 45.6718H1.85831V48.6231H4.60334C5.63255 48.6231 6.18141 47.9913 6.18141 47.1546ZM6.35956 51.2174C6.35956 50.38 5.78329 49.6393 4.67114 49.6393H1.85831V52.7962H4.67114C5.72848 52.7954 6.35956 52.191 6.35956 51.2174Z" fill="#EEEEEE"/>
<path d="M13.7832 53.8105V52.8773C13.2754 53.4535 12.4106 53.9743 11.4225 53.9743C10.0363 53.9743 9.30859 53.2884 9.30859 51.861V47.1816H10.3378V51.5459C10.3378 52.7128 10.9278 53.0561 11.8337 53.0561C12.6299 53.0561 13.398 52.5895 13.7824 52.0536V47.1816H14.8116V53.8105H13.7832Z" fill="#EEEEEE"/>
<path d="M16.6934 45.548C16.6934 45.1636 17.0093 44.8477 17.3937 44.8477C17.7781 44.8477 18.0796 45.1636 18.0796 45.548C18.0796 45.9324 17.7781 46.2339 17.3937 46.2339C17.0093 46.2339 16.6934 45.9324 16.6934 45.548ZM16.8722 53.8105V47.1816H17.9014V53.8105H16.8722Z" fill="#EEEEEE"/>
<path d="M19.959 52.424V44.6562H20.9882V52.2055C20.9882 52.6995 21.2074 53.0565 21.6604 53.0565C21.9489 53.0565 22.223 52.9195 22.347 52.7687L22.6629 53.5506C22.3888 53.798 22.0318 53.9761 21.4281 53.9761C20.453 53.9754 19.959 53.4135 19.959 52.424Z" fill="#EEEEEE"/>
<path d="M28.4542 53.8109V52.8228C27.9602 53.495 27.1502 53.9754 26.2169 53.9754C24.4874 53.9754 23.2656 52.6584 23.2656 50.5033C23.2656 48.3764 24.4874 47.0176 26.2169 47.0176C27.1091 47.0176 27.9183 47.4561 28.4542 48.1838V44.6562H29.4834V53.8109H28.4542V53.8109ZM28.4542 51.9992V49.0068C28.0972 48.4305 27.2873 47.9364 26.478 47.9364C25.1329 47.9364 24.3367 49.0342 24.3367 50.5033C24.3367 51.9725 25.1329 53.0565 26.478 53.0565C27.2873 53.0558 28.0972 52.5755 28.4542 51.9992Z" fill="#EEEEEE"/>
<path d="M49.3535 53.8109V44.6562H53.0318C54.871 44.6562 55.9002 45.9191 55.9002 47.415C55.9002 48.9108 54.8573 50.1737 53.0318 50.1737H50.4924V53.8109H49.3535ZM54.7203 47.415C54.7203 46.3858 53.9795 45.6718 52.8948 45.6718H50.4931V49.1582H52.8948C53.9788 49.1582 54.7203 48.4442 54.7203 47.415Z" fill="#EEEEEE"/>
<path d="M57.3711 53.8116V47.1827H58.4003V48.2393C58.9355 47.5534 59.7043 47.0312 60.6095 47.0312V48.0886C60.4861 48.0742 60.3628 48.0612 60.2113 48.0612C59.5665 48.0612 58.7018 48.5826 58.3996 49.1178V53.8123H57.3711V53.8116Z" fill="#EEEEEE"/>
<path d="M61.5137 50.4896C61.5137 48.5682 62.8862 47.0176 64.7802 47.0176C66.7838 47.0176 67.9644 48.5819 67.9644 50.5726V50.8329H62.6121C62.6943 52.0814 63.5591 53.125 64.9864 53.125C65.7553 53.125 66.5097 52.8236 67.0449 52.274L67.5389 52.9469C66.8667 53.6054 65.9745 53.9761 64.9035 53.9761C62.9273 53.9754 61.5137 52.5617 61.5137 50.4896ZM64.7672 47.8679C63.3536 47.8679 62.6532 49.0616 62.5984 50.0641H66.9489C66.9352 49.089 66.2767 47.8679 64.7672 47.8679Z" fill="#EEEEEE"/>
<path d="M71.3955 53.8105L68.6367 47.1816H69.7626L71.9587 52.6162L74.1679 47.1816H75.28L72.5213 53.8105H71.3955Z" fill="#EEEEEE"/>
<path d="M75.9648 50.4896C75.9648 48.5682 77.3374 47.0176 79.2313 47.0176C81.2349 47.0176 82.4163 48.5819 82.4163 50.5726V50.8329H77.0633C77.1455 52.0814 78.0103 53.125 79.4376 53.125C80.2064 53.125 80.9609 52.8236 81.496 52.274L81.9908 52.9469C81.3179 53.6054 80.4257 53.9761 79.3547 53.9761C77.3785 53.9754 75.9648 52.5617 75.9648 50.4896ZM79.2176 47.8679C77.804 47.8679 77.1037 49.0616 77.0489 50.0641H81.4001C81.3857 49.089 80.7272 47.8679 79.2176 47.8679Z" fill="#EEEEEE"/>
<path d="M88.5625 53.8116V49.4741C88.5625 48.2934 87.9581 47.9364 87.0666 47.9364C86.2567 47.9364 85.5016 48.4312 85.1041 48.9664V53.8116H84.0742V47.1827H85.1041V48.1434C85.5701 47.5809 86.4759 47.0176 87.4777 47.0176C88.8495 47.0176 89.578 47.7179 89.578 49.1589V53.8116H88.5625V53.8116Z" fill="#EEEEEE"/>
<path d="M91.8563 52.4229V48.086H90.7578V47.1809H91.8563V45.3691H92.8985V47.1809H94.2436V48.0868H92.8985V52.2043C92.8985 52.6984 93.1184 53.0554 93.5577 53.0554C93.8591 53.0554 94.1195 52.9183 94.258 52.7676L94.5595 53.5494C94.2991 53.7968 93.9284 53.975 93.3384 53.975C92.351 53.9742 91.8563 53.4124 91.8563 52.4229Z" fill="#EEEEEE"/>
<path d="M115.24 53.8109L112.921 50.1737H111.081V53.8109H109.943V44.6562H113.622C115.295 44.6562 116.504 45.7266 116.504 47.415C116.504 49.0616 115.364 49.9675 114.114 50.0771L116.585 53.8109H115.24V53.8109ZM115.323 47.415C115.323 46.3721 114.568 45.6718 113.483 45.6718H111.081V49.1719H113.483C114.569 49.1719 115.323 48.4442 115.323 47.415Z" fill="#EEEEEE"/>
<path d="M117.463 50.4896C117.463 48.5682 118.836 47.0176 120.729 47.0176C122.734 47.0176 123.914 48.5819 123.914 50.5726V50.8329H118.561C118.643 52.0814 119.508 53.125 120.935 53.125C121.704 53.125 122.459 52.8236 122.994 52.274L123.489 52.9469C122.815 53.6054 121.924 53.9761 120.853 53.9761C118.877 53.9754 117.463 52.5617 117.463 50.4896ZM120.717 47.8679C119.303 47.8679 118.602 49.0616 118.548 50.0641H122.899C122.885 49.089 122.226 47.8679 120.717 47.8679Z" fill="#EEEEEE"/>
<path d="M125.191 50.4896C125.191 48.5264 126.523 47.0176 128.499 47.0176C129.708 47.0176 130.42 47.5116 130.929 48.1708L130.243 48.7882C129.804 48.1838 129.24 47.9364 128.554 47.9364C127.154 47.9364 126.262 49.0212 126.262 50.4896C126.262 51.9581 127.153 53.0565 128.554 53.0565C129.24 53.0565 129.803 52.7817 130.243 52.1917L130.929 52.8235C130.42 53.482 129.708 53.9761 128.499 53.9761C126.523 53.9754 125.191 52.4521 125.191 50.4896Z" fill="#EEEEEE"/>
<path d="M131.998 50.4896C131.998 48.5682 133.262 47.0176 135.279 47.0176C137.296 47.0176 138.56 48.5682 138.56 50.4896C138.56 52.411 137.296 53.9754 135.279 53.9754C133.262 53.9754 131.998 52.411 131.998 50.4896ZM137.474 50.4896C137.474 49.1445 136.693 47.9364 135.278 47.9364C133.864 47.9364 133.082 49.1445 133.082 50.4896C133.082 51.8484 133.864 53.0565 135.278 53.0565C136.693 53.0565 137.474 51.8484 137.474 50.4896Z" fill="#EEEEEE"/>
<path d="M142 53.8105L139.242 47.1816H140.368L142.564 52.6162L144.774 47.1816H145.886L143.126 53.8105H142Z" fill="#EEEEEE"/>
<path d="M146.572 50.4896C146.572 48.5682 147.944 47.0176 149.837 47.0176C151.842 47.0176 153.022 48.5819 153.022 50.5726V50.8329H147.669C147.752 52.0814 148.616 53.125 150.044 53.125C150.812 53.125 151.567 52.8236 152.103 52.274L152.597 52.9469C151.924 53.6054 151.032 53.9761 149.962 53.9761C147.985 53.9754 146.572 52.5617 146.572 50.4896ZM149.824 47.8679C148.41 47.8679 147.71 49.0616 147.655 50.0641H152.006C151.992 49.089 151.333 47.8679 149.824 47.8679Z" fill="#EEEEEE"/>
<path d="M154.682 53.8116V47.1827H155.712V48.2393C156.247 47.5534 157.015 47.0312 157.921 47.0312V48.0886C157.798 48.0742 157.674 48.0612 157.523 48.0612C156.878 48.0612 156.013 48.5826 155.712 49.1178V53.8123H154.682V53.8116Z" fill="#EEEEEE"/>
<path d="M38.5494 52.5129C39.4504 52.5129 40.1809 51.6701 40.1809 50.6305C40.1809 49.5908 39.4504 48.748 38.5494 48.748C37.6484 48.748 36.918 49.5908 36.918 50.6305C36.918 51.6701 37.6484 52.5129 38.5494 52.5129Z" fill="#EEEEEE"/>
<path d="M101.794 52.0115C102.695 52.0115 103.425 51.169 103.425 50.1298C103.425 49.0905 102.695 48.248 101.794 48.248C100.893 48.248 100.162 49.0905 100.162 50.1298C100.162 51.169 100.893 52.0115 101.794 52.0115Z" fill="#EEEEEE"/>
</svg>
