<svg width="180" height="41" viewBox="0 0 180 41" fill="none" xmlns="http://www.w3.org/2000/svg">
<path d="M90.9111 28.4289C92.1547 26.0777 93.3206 23.9207 94.4477 21.7249C97.5179 15.6621 100.413 9.52152 103.212 3.32272C103.6 2.44828 104.067 2.05973 104.999 2.19575C105.271 2.23462 105.543 2.19575 105.835 2.19575C108.4 2.19575 108.38 2.19571 108.691 4.70244C110.09 16.1479 111.179 27.6321 112.986 39.0387C113.102 39.7188 112.869 39.8937 112.247 39.8937C109.818 39.8937 107.389 39.8549 104.96 39.8937C104.144 39.8937 104.105 39.4468 104.067 38.8444C103.62 30.8968 102.784 22.9685 101.987 15.0403C101.987 14.982 101.948 14.9042 101.91 14.7876C101.521 14.9237 101.482 15.3123 101.346 15.5843C97.6151 23.3182 93.8842 31.0716 90.1727 38.825C89.8617 39.4857 89.5508 39.9326 88.6764 39.9326C87.802 39.9326 87.4133 39.5829 87.0441 38.8444C83.3909 31.266 79.7183 23.6875 76.0456 16.109C75.9096 15.837 75.7541 15.6038 75.4432 15.0597C75.1323 17.6442 74.8214 19.8982 74.5882 22.1523C74.0053 27.7293 73.6943 33.3452 73.3251 38.9416C73.2863 39.6217 73.092 39.952 72.3535 39.9132C71.2459 39.8743 70.1383 39.8743 69.0307 39.9132C68.2728 39.9326 68.1174 39.6994 68.234 38.9416C69.2055 33.4229 70.1577 27.8848 71.0322 22.3467C72.0038 16.2256 72.7616 10.0656 73.5195 3.90566C73.7721 1.82644 73.6555 2.39005 75.4238 2.1763C77.5419 1.90425 78.5329 2.72034 79.4073 4.66353C82.8079 12.3197 86.4806 19.8788 90.3281 27.3213C90.4836 27.6322 90.6585 27.9237 90.9111 28.4095V28.4289Z" fill="#A8A8A8"/>
<path d="M166.911 25.3395C166.911 22.7356 166.872 20.1512 166.93 17.5473C166.93 16.6534 166.639 16.3425 165.803 16.498C165.706 16.498 165.589 16.498 165.492 16.498C163.335 16.5757 163.355 16.5756 163.199 14.477C163.141 13.758 163.413 13.6415 164.015 13.6998C164.695 13.7775 165.395 13.7775 166.094 13.8553C166.736 13.933 166.949 13.6414 166.93 13.0196C166.852 11.3873 166.852 9.77455 166.755 8.14227C166.716 7.42328 166.891 7.01513 167.591 6.72365C169.592 5.86864 171.574 4.9359 173.556 4.04203C174.547 3.59509 174.742 3.75053 174.703 4.87759C174.567 7.57863 174.47 10.2797 174.314 12.9614C174.275 13.6026 174.47 13.8163 175.13 13.7775C176.199 13.6997 177.268 13.7192 178.356 13.6803C178.9 13.6609 179.056 13.8163 179.036 14.3993C178.978 16.6146 178.997 16.6146 176.763 16.5951C174.353 16.5757 174.256 16.5757 174.159 18.9464C173.964 24.1348 173.654 29.323 174.198 34.5114C174.489 37.2513 175.441 37.9509 178.473 37.504C178.784 37.4651 179.289 36.9598 179.405 37.5427C179.541 38.1646 179.872 39.0973 179.075 39.4083C176.044 40.5936 172.915 41.1766 169.806 39.6803C168.135 38.8642 167.377 37.3096 166.93 35.5608C166.464 33.7147 166.522 31.8493 166.58 29.9838C166.619 28.4292 166.58 26.8746 166.58 25.3201H166.93L166.911 25.3395Z" fill="#A8A8A8"/>
<path d="M151.693 20.132C152.334 18.7134 152.956 17.3726 153.85 16.1872C155.327 14.244 157.231 13.0587 159.757 13.0198C160.496 13.0198 160.904 13.0782 160.729 14.0498C160.379 16.0318 160.457 18.0527 160.496 20.0542C160.496 21.1424 160.438 21.1813 159.485 20.7733C155.852 19.1993 152.043 21.5699 151.985 25.534C151.907 29.8673 151.887 34.1812 152.296 38.5146C152.432 39.9137 152.412 39.9137 151.052 39.9137C149.109 39.9137 147.166 39.8749 145.242 39.9137C144.464 39.9137 144.192 39.7388 144.251 38.9227C144.775 31.6162 144.678 24.3292 144.426 17.0228C144.387 16.1678 144.328 15.2934 144.231 14.4384C144.173 13.7777 144.406 13.5834 145.047 13.6611C146.971 13.8748 148.914 13.8748 150.858 13.6611C151.615 13.5639 151.713 13.8749 151.713 14.5161C151.674 16.3427 151.713 18.1888 151.713 20.1514L151.693 20.132Z" fill="#A8A8A8"/>
<path d="M49.3648 40.0693C44.2737 40.0693 39.1825 40.0693 34.0913 40.0693C33.2752 40.0693 33.2946 39.8555 33.5083 39.1754C33.8387 38.0872 34.4217 37.718 35.607 37.7375C44.8955 37.7958 54.1645 37.7764 63.453 37.7764C64.6189 37.7764 65.3962 38.5148 65.4934 39.7001C65.5323 40.2831 65.1047 40.0693 64.8521 40.0693C62.326 40.0693 59.7998 40.0693 57.2737 40.0693C54.6503 40.0693 52.0076 40.0693 49.3843 40.0693H49.3648Z" fill="#A8A8A8"/>
<path d="M49.4605 36.2209C45.03 36.2209 40.5801 36.2209 36.1496 36.2209C35.761 36.2209 35.178 36.5319 35.0225 35.8712C34.906 35.4048 35.761 34.1223 36.1496 34.064C36.3828 34.0252 36.6354 34.064 36.8686 34.064C45.2243 34.064 53.5801 34.064 61.9164 34.064C62.9657 34.064 63.7041 34.7636 63.7819 35.7935C63.8207 36.4153 63.3544 36.221 63.0629 36.2404C61.0808 36.2598 59.1182 36.2404 57.1361 36.2404C54.5711 36.2404 52.0061 36.2404 49.4411 36.2404L49.4605 36.2209Z" fill="#A8A8A8"/>
<path d="M49.4239 32.4125C45.518 32.4125 41.6122 32.4125 37.687 32.3931C37.3372 32.3931 36.5793 32.7623 36.6765 32.0239C36.7542 31.4603 36.8125 30.547 37.8035 30.5276C38.2893 30.5276 38.7751 30.5276 39.2609 30.5276C46.4313 30.5276 53.5823 30.5276 60.7527 30.5276C61.4911 30.5276 62.249 31.3438 62.1713 32.0628C62.113 32.6263 61.6272 32.3736 61.3551 32.3931C57.9934 32.4125 54.6511 32.3931 51.2893 32.3931C50.6675 32.3931 50.0457 32.3931 49.4239 32.3931V32.4125Z" fill="#A8A8A8"/>
<path d="M49.2297 7.46181C48.5301 9.83252 47.3448 11.387 45.1878 12.5335C45.7125 10.9984 46.1594 9.73539 46.5869 8.47231C47.0727 7.07321 46.995 6.89836 45.6542 6.19881C44.838 5.79074 44.0219 5.36319 42.9531 4.81909C44.4688 4.64421 45.6736 4.70246 46.8589 4.78019C47.7528 4.83849 48.1998 4.46931 48.3746 3.59487C48.6078 2.39009 48.9187 1.20478 49.3851 0C49.6572 1.16592 49.9875 2.33183 50.2013 3.51718C50.3761 4.50821 50.9202 4.81904 51.8724 4.76074C53.0772 4.70244 54.282 4.76074 55.6616 4.76074C54.7678 5.22711 53.9322 5.67415 53.116 6.08222C51.4449 6.93723 51.4255 6.99545 51.989 8.80263C52.3388 9.94911 52.708 11.0957 53.1355 12.5142C50.9785 11.3483 49.9486 9.69645 49.2297 7.42291V7.46181Z" fill="#A8A8A8"/>
<path d="M49.3822 28.8958C45.9621 28.8958 42.5227 28.8958 39.1026 28.8958C38.7917 28.8958 38.1699 29.1483 38.2088 28.5848C38.2282 28.0601 38.3254 27.3606 39.0832 27.2246C39.2775 27.1857 39.4913 27.2246 39.705 27.2246C46.1759 27.2246 52.6467 27.2246 59.1176 27.2246C59.4479 27.2246 59.8754 27.0885 60.1086 27.3606C60.439 27.7104 60.7304 28.2157 60.6333 28.6626C60.5361 29.129 59.992 28.9152 59.6422 28.9152C56.2222 28.9152 52.7828 28.9152 49.3627 28.9152L49.3822 28.8958Z" fill="#A8A8A8"/>
<path d="M49.4033 21.7644C46.916 21.7644 44.4093 21.7644 41.922 21.7644C41.65 21.7644 41.1836 21.9587 41.1836 21.5118C41.1836 21.0843 41.3196 20.5791 41.9414 20.5791C42.3495 20.5791 42.777 20.5986 43.1851 20.5986C47.6544 20.5986 52.1238 20.5986 56.5737 20.5986C56.8846 20.5986 57.215 20.5208 57.4093 20.8512C57.5453 21.0844 57.7396 21.337 57.623 21.6285C57.5065 21.92 57.1955 21.7839 56.9818 21.7839C54.4556 21.7839 51.9295 21.7839 49.4033 21.7839V21.7644Z" fill="#787878"/>
<path d="M49.3823 25.1647C46.5452 25.1647 43.7081 25.1647 40.8711 25.1647C40.5019 25.1647 39.8218 25.5145 39.7829 24.8344C39.744 24.0959 40.4047 24.0765 40.9877 24.0765C42.7171 24.0765 44.4466 24.0765 46.176 24.0765C49.9458 24.0765 53.7156 24.0765 57.4854 24.0765C57.7575 24.0765 58.0295 24.0765 58.321 24.0765C58.8068 24.0765 59.04 24.3486 59.0594 24.7761C59.0788 25.3591 58.5736 25.1453 58.3016 25.1453C55.3285 25.1453 52.3554 25.1453 49.3823 25.1453V25.1647Z" fill="#A8A8A8"/>
<path d="M49.4252 18.8691C47.346 18.8691 45.2668 18.8691 43.1875 18.8691C42.9155 18.8691 42.4491 19.0828 42.4297 18.6165C42.4297 18.189 42.5657 17.7032 43.1681 17.6643C43.3041 17.6643 43.4402 17.6643 43.5762 17.6643C47.4626 17.6643 51.3295 17.6643 55.2159 17.6643C55.3908 17.6643 55.5657 17.6643 55.7406 17.6643C56.2653 17.742 56.4207 18.189 56.4013 18.5777C56.3818 19.0246 55.9349 18.8496 55.6629 18.8496C53.5836 18.8496 51.5044 18.8496 49.4252 18.8496V18.8691Z" fill="#777777"/>
<path d="M49.3817 15.3706C47.7883 15.3706 46.1949 15.3706 44.6015 15.3706C44.3683 15.3706 43.9602 15.5066 43.9408 15.0986C43.9019 14.6905 44.2128 14.4962 44.6209 14.4962C47.8078 14.4962 50.9946 14.4962 54.1814 14.4962C54.5895 14.4962 54.9199 14.6323 54.9004 15.0598C54.881 15.5262 54.4341 15.3706 54.162 15.3706C52.5686 15.3706 50.9752 15.3706 49.3817 15.3706Z" fill="#A8A8A8"/>
<path d="M52.0075 1.88531C52.6487 1.96304 53.0568 2.29334 53.0568 2.9346C53.0568 3.55642 52.6681 3.9451 52.0075 3.9451C51.4051 3.9451 51.0553 3.59534 51.0359 2.99295C51.0164 2.33226 51.4051 2.00191 52.0075 1.88531Z" fill="#767676"/>
<path d="M46.3311 3.94529C45.7287 3.88699 45.3789 3.53718 45.3789 2.93479C45.3789 2.2741 45.787 1.86609 46.4282 1.90496C47.0695 1.92439 47.4387 2.35191 47.3998 3.01259C47.3415 3.61498 46.9723 3.94529 46.3311 3.94529Z" fill="#747474"/>
<path fill-rule="evenodd" clip-rule="evenodd" d="M0.00555097 3.08998C0.355327 9.07503 0.413619 15.0795 0.355323 21.0646L0.37476 21.084C0.366717 22.3226 0.363667 23.562 0.360616 24.8018C0.348925 29.5534 0.337215 34.3121 0.0444121 39.0586C0.0249801 39.5833 0.0444165 39.8942 0.724536 39.8942C2.81582 39.8796 4.9071 39.8978 6.99838 39.916C10.4841 39.9464 13.9698 39.9767 17.4555 39.8553C24.1206 39.6415 29.3478 36.6102 32.7679 30.8195C35.7993 25.7283 36.1102 20.1901 34.9831 14.516C34.4973 12.0676 33.5063 9.83286 31.8351 7.92852C28.8815 4.56679 24.9562 3.22606 20.72 2.66253C16.3786 2.08962 12.0205 2.15061 7.66213 2.21161C5.36832 2.24371 3.07442 2.27582 0.782829 2.21551C0.122142 2.19608 -0.033313 2.46815 0.00555097 3.08998ZM8.61165 18.1299C8.63684 22.9231 8.66203 27.7164 8.59725 32.5096V32.529C8.59725 32.9033 8.60154 33.2797 8.60584 33.6575C8.61449 34.4175 8.62321 35.1833 8.59725 35.9491C8.57782 36.5515 8.79158 36.804 9.4134 36.8623C11.0457 37.0372 12.678 37.0566 14.2908 36.9595C19.246 36.668 23.0352 34.4333 25.095 29.7891C27.1937 25.0671 27.4657 20.0731 26.3387 15.1179C25.1533 9.83244 21.9082 6.31521 16.3312 5.47963C14.3003 5.16176 12.2534 5.3254 10.205 5.48916C9.99944 5.5056 9.79386 5.52203 9.58828 5.53798C8.79157 5.59628 8.59725 5.90719 8.59725 6.62617C8.57134 10.4608 8.5915 14.2953 8.61165 18.1299Z" fill="#A8A8A8"/>
<path fill-rule="evenodd" clip-rule="evenodd" d="M129.508 37.7233C129.724 37.5009 129.941 37.2777 130.162 37.0567V37.0179C130.415 37.2009 130.516 37.4451 130.611 37.6766C130.647 37.7647 130.683 37.8509 130.725 37.9312C131.794 39.9132 133.504 40.7489 135.7 40.6712C137.021 40.6129 138.265 40.1854 139.509 39.719C139.975 39.5441 140.461 39.3304 140.441 38.7474C140.422 38.113 139.889 38.0491 139.408 37.9914L139.392 37.9895C138.226 37.8535 137.604 37.1734 137.429 36.0463C137.274 35.0942 137.274 34.1226 137.274 33.151C137.283 32.6931 137.291 32.2352 137.3 31.7774C137.371 28.1157 137.442 24.4538 137.391 20.7922C137.332 16.9835 135.059 14.2631 131.464 13.3304C127.169 12.2033 123.147 12.8833 119.358 15.0792C117.059 16.4121 117.065 16.4392 117.599 18.9976L117.609 19.0434V19.1405C117.725 19.8012 117.92 20.1509 118.561 19.4903C119.63 18.3826 120.951 17.722 122.408 17.3139C124.118 16.8475 125.828 16.7309 127.48 17.5471C129.132 18.3632 130.104 20.2093 129.968 22.1136C129.842 23.8415 128.565 24.2189 127.312 24.5895C127.212 24.619 127.113 24.6485 127.014 24.6786C125.576 25.1255 124.138 25.4948 122.7 25.864C121.417 26.1943 120.213 26.6995 119.027 27.2825C114.228 29.6921 114.733 35.4828 116.734 38.1838C118.911 41.1375 125.518 41.5261 128.199 39.0194C128.652 38.6056 129.079 38.1658 129.508 37.7233ZM130.146 30.7678C130.152 30.3512 130.158 29.9342 130.181 29.5172H130.162C130.162 29.1796 130.158 28.8421 130.153 28.5053C130.145 27.8338 130.136 27.1651 130.162 26.5051C130.201 25.9027 130.026 25.864 129.521 26.0971C128.704 26.4663 127.869 26.8161 127.033 27.127C123.438 28.5066 122.506 30.4693 123.05 34.2779C123.438 36.8818 126.159 37.9311 128.258 36.3377C129.113 35.6965 129.618 34.7832 129.87 33.7533C130.117 32.7656 130.132 31.7681 130.146 30.7678Z" fill="#A8A8A8"/>
</svg>
