<svg width="216" height="207" viewBox="0 0 216 207" fill="none" xmlns="http://www.w3.org/2000/svg">
<g clip-path="url(#clip0_5535_2117)">
<rect width="216" height="206.929" fill="#151517"/>
<path d="M114.331 109.084H110.685V101.727H114.396C115.372 101.727 116.308 102.115 116.997 102.805C117.687 103.494 118.075 104.43 118.075 105.405C118.075 106.381 117.687 107.316 116.997 108.006C116.308 108.696 115.372 109.084 114.396 109.084H114.331ZM114.396 95.4219H104.117V115.422H114.331C116.983 115.422 119.527 114.368 121.402 112.493C123.277 110.618 124.331 108.074 124.331 105.422C124.331 102.77 123.277 100.226 121.402 98.3508C119.527 96.4754 116.983 95.4219 114.331 95.4219" fill="white"/>
<path d="M146.81 105.274C146.81 102.661 145.772 100.155 143.924 98.3075C142.077 96.4598 139.571 95.4219 136.958 95.4219H127.105V115.422H133.674V101.924H136.958C137.42 101.92 137.879 102.008 138.308 102.183C138.736 102.358 139.125 102.617 139.452 102.944C139.779 103.271 140.038 103.66 140.213 104.088C140.388 104.517 140.476 104.976 140.472 105.438V115.488H147.04L146.81 105.274Z" fill="white"/>
<path d="M169.794 105.274C169.794 102.661 168.756 100.155 166.909 98.3075C165.061 96.4598 162.555 95.4219 159.942 95.4219H150.09V115.422H156.658V101.924H159.942C160.874 101.924 161.768 102.295 162.427 102.954C163.086 103.613 163.456 104.506 163.456 105.438V115.488H170.024L169.794 105.274Z" fill="white"/>
<path d="M77.8408 95.4211V80.3799C75.1936 79.4469 72.4045 78.9803 69.5977 79.0006H45V111.841H61.4204V95.4211H77.8408Z" fill="white"/>
<path d="M77.8408 80.3789V95.4201H92.8818C91.6355 91.9609 89.6415 88.8193 87.0416 86.2194C84.4417 83.6194 81.3 81.6252 77.8408 80.3789V80.3789ZM45 128.327H61.4204V111.906H45V128.327Z" fill="#707070"/>
<path d="M92.785 95.4219H77.8423V103.665C77.8336 105.848 76.9625 107.94 75.4185 109.484C73.8745 111.028 71.7827 111.899 69.5992 111.908H61.4219V128.328H69.6321C72.8734 128.337 76.0844 127.705 79.0806 126.469C82.0769 125.232 84.7993 123.416 87.0912 121.124C89.3831 118.832 91.1995 116.11 92.4359 113.113C93.6722 110.117 94.3042 106.906 94.2956 103.665C94.2974 100.86 93.8311 98.0737 92.9161 95.4219" fill="white"/>
</g>
<defs>
<clipPath id="clip0_5535_2117">
<rect width="216" height="206.929" fill="white"/>
</clipPath>
</defs>
</svg>
