<svg width="216" height="207" viewBox="0 0 216 207" fill="none" xmlns="http://www.w3.org/2000/svg">
<g clip-path="url(#clip0_5455_7368)">
<rect width="216" height="206.929" fill="#151517"/>
<rect width="216" height="206.929" fill="#151517"/>
<path d="M51.959 103.824C51.6424 103.488 51.2565 103.22 50.831 103.033C50.4056 102.844 49.9505 102.756 49.4854 102.756C49.0204 102.746 48.5653 102.844 48.1398 103.023C47.7144 103.211 47.3285 103.478 47.0119 103.814C46.6854 104.141 46.4281 104.527 46.2599 104.952C46.0917 105.387 46.0027 105.842 46.0027 106.298C45.9928 106.763 46.0818 107.218 46.2599 107.643C46.438 108.069 46.6953 108.454 47.0218 108.781C47.3385 109.118 47.7223 109.384 48.1484 109.563C48.5744 109.742 49.0333 109.829 49.4953 109.82C49.9564 109.822 50.4132 109.732 50.8382 109.553C51.2633 109.375 51.6479 109.112 51.9689 108.781C52.3053 108.464 52.5625 108.078 52.7406 107.653C52.9187 107.228 53.0078 106.772 53.0078 106.307C53.0078 105.842 52.9187 105.387 52.7406 104.962C52.5526 104.527 52.2954 104.141 51.959 103.824ZM93.3661 95.79C93.3166 98.0063 93.4255 100.232 93.6827 102.439H93.5639C93.287 101.895 92.6736 100.885 91.7336 99.4112L69.1749 64H62.328V109.207H67.5918V76.526C67.6511 74.4581 67.5621 72.3903 67.3444 70.3224H67.5422C67.9183 71.3118 68.4031 72.2616 68.9769 73.1521L92.1491 109.207H98.6297V64H93.3661V95.79ZM134.318 104.24H115.717V88.5771H131.993V83.8081H115.717V68.7888H133.18V64H110.325V109.207H134.288L134.318 104.24ZM138.345 64V68.7888H151.306V109.207H156.57V68.7888H169.68V64H138.345ZM86.7568 120.446C85.4421 120.971 84.2546 121.77 83.274 122.791C82.2648 123.87 81.4733 125.136 80.9588 126.531C80.4442 127.926 80.2167 129.4 80.276 130.875C80.1771 133.606 81.127 136.277 82.9475 138.315C83.8578 139.275 84.966 140.017 86.1928 140.512C87.4197 141.006 88.7357 141.224 90.0516 141.165C92.0303 141.234 93.9993 140.818 95.7901 139.948L95.8099 137.642C94.1674 138.602 92.2975 139.077 90.3978 139.027C89.3787 139.067 88.3597 138.889 87.4197 138.503C86.4798 138.117 85.6287 137.524 84.9363 136.772C83.4879 135.089 82.7438 132.913 82.8585 130.697C82.7396 128.352 83.5412 126.056 85.0847 124.295C85.8169 123.484 86.7172 122.851 87.7166 122.415C88.7197 121.989 89.8028 121.783 90.8925 121.812C92.624 121.782 94.3259 122.207 95.8395 123.048V120.565C94.2696 119.932 92.5843 119.635 90.8925 119.694C89.4776 119.675 88.0628 119.922 86.7568 120.446ZM111.423 127.53C110.762 126.835 109.958 126.291 109.066 125.936C108.174 125.58 107.217 125.422 106.258 125.473C105.239 125.423 104.23 125.591 103.28 125.957C102.33 126.323 101.469 126.877 100.737 127.58C100.025 128.371 99.4807 129.292 99.1244 130.301C98.7682 131.31 98.6199 132.369 98.6892 133.437C98.5903 135.466 99.2927 137.454 100.638 138.968C101.311 139.69 102.122 140.264 103.033 140.65C103.943 141.026 104.923 141.214 105.902 141.174C106.901 141.204 107.901 141.016 108.831 140.63C109.761 140.244 110.592 139.661 111.274 138.919C112.662 137.354 113.38 135.308 113.273 133.22C113.392 131.142 112.729 129.114 111.423 127.53ZM109.612 137.692C109.177 138.194 108.632 138.59 108.02 138.849C107.407 139.108 106.744 139.223 106.08 139.186C105.397 139.215 104.725 139.087 104.101 138.83C103.478 138.562 102.924 138.167 102.469 137.652C101.521 136.478 101.044 134.993 101.133 133.487C101.044 131.933 101.519 130.4 102.469 129.173C102.914 128.658 103.468 128.253 104.091 127.976C104.715 127.709 105.397 127.58 106.07 127.61C106.743 127.57 107.406 127.699 108.019 127.966C108.633 128.233 109.177 128.639 109.612 129.153C110.511 130.397 110.949 131.915 110.849 133.447C110.948 134.951 110.513 136.465 109.612 137.692ZM121.08 126.561C120.338 127.224 119.793 128.085 119.526 129.044V125.937H117.053V140.818H119.526V133.229C119.447 131.854 119.803 130.479 120.535 129.311C120.803 128.886 121.159 128.53 121.594 128.282C122.03 128.035 122.514 127.887 123.009 127.877C123.642 127.827 124.275 127.996 124.81 128.352V125.898C124.355 125.749 123.88 125.68 123.405 125.7C122.554 125.69 121.733 125.997 121.08 126.561ZM139.285 132.705C139.404 130.815 138.84 128.955 137.702 127.451C137.138 126.818 136.445 126.314 135.664 125.987C134.882 125.661 134.041 125.512 133.2 125.561C132.27 125.532 131.34 125.72 130.479 126.096C129.628 126.472 128.866 127.036 128.253 127.748C126.91 129.316 126.213 131.335 126.304 133.398C126.175 135.456 126.818 137.494 128.105 139.097C128.728 139.779 129.5 140.314 130.35 140.67C131.201 141.026 132.131 141.174 133.052 141.135C134.882 141.224 136.693 140.729 138.216 139.72V137.484C136.914 138.542 135.293 139.128 133.616 139.146C132.972 139.186 132.319 139.087 131.716 138.849C131.112 138.612 130.558 138.266 130.103 137.801C129.219 136.731 128.77 135.367 128.847 133.982H139.305L139.285 132.705ZM128.827 132.012C128.955 130.835 129.47 129.727 130.281 128.866C130.645 128.475 131.086 128.165 131.577 127.956C132.068 127.746 132.597 127.642 133.131 127.649C133.645 127.62 134.15 127.709 134.625 127.906C135.1 128.104 135.515 128.401 135.852 128.787C136.544 129.707 136.89 130.835 136.841 131.983L128.827 132.012Z" fill="white"/>
</g>
<defs>
<clipPath id="clip0_5455_7368">
<rect width="216" height="206.929" fill="white"/>
</clipPath>
</defs>
</svg>
