<svg width="242" height="96" viewBox="0 0 242 96" fill="none" xmlns="http://www.w3.org/2000/svg">
<g clip-path="url(#clip0_2047_44)">
<path d="M63.7551 31.8001C63.7207 31.8388 63.6819 31.8775 63.6389 31.9033C53.5479 31.8904 43.4612 31.8904 33.3658 31.8259C32.1313 31.8173 31.7227 32.0754 31.7313 33.4088C31.7958 42.988 31.7657 52.5586 31.77 62.1378C31.77 62.6453 31.8517 63.1529 31.8947 63.6561C31.8431 63.7121 31.7872 63.7594 31.727 63.8024C31.4517 63.5787 31.1162 63.6002 30.7936 63.6002C20.5563 63.6131 10.319 63.6174 0.0860276 63.6303C0.0645207 63.1615 0.0301097 62.7012 0.0301097 62.2324C0.0258083 42.0073 0.0387124 21.7822 0 1.5571C0 0.357015 0.240877 0 1.51409 0C16.6506 0.0516166 31.7872 0.0129041 46.9238 0.0430138C52.6446 0.055918 58.2751 0.74844 63.669 2.8088C63.669 10.5126 63.669 18.2206 63.669 25.9244C63.669 27.8816 63.725 29.843 63.7508 31.8001H63.7551Z" fill="white"/>
<path d="M71.2477 89.3611C64.331 93.3141 56.8251 95.3659 48.8418 95.4777C43.151 95.5551 37.4517 95.4691 31.7567 95.4605C31.7481 84.9092 31.7395 74.3579 31.7266 63.8066C31.7868 63.7636 31.847 63.712 31.8943 63.6604C37.1248 63.6604 42.3553 63.7163 47.5858 63.6604C56.253 63.57 63.3847 56.9803 63.6127 48.7088C63.7676 43.1127 63.6428 37.508 63.6385 31.9033C63.6815 31.8732 63.7159 31.8388 63.7546 31.8C73.4069 31.813 83.0635 31.8259 92.7201 31.8388C100.437 53.7801 91.5029 77.799 71.2477 89.3611Z" fill="white"/>
<path d="M152.778 45.1C150.231 37.1381 142.893 31.8904 134.2 31.856C128.131 31.8345 122.061 31.8775 115.988 31.8259C114.951 31.8173 114.667 32.0539 114.676 33.1249C114.732 39.1426 114.702 45.1688 114.702 51.1907C114.702 57.2127 114.719 63.2346 114.685 69.2565C114.676 70.1856 114.852 70.5469 115.889 70.5383C122.1 70.4867 128.311 70.5512 134.518 70.5039C138.527 70.4695 142.244 69.3813 145.521 67.0112C152.575 61.9012 155.406 53.3156 152.778 45.1ZM134.892 58.1977C132.656 58.2923 130.415 58.1977 128.178 58.2622C127.374 58.288 127.283 57.9439 127.292 57.2772C127.326 55.2254 127.305 53.1737 127.305 51.1262C127.305 49.0787 127.339 47.1173 127.288 45.1129C127.266 44.287 127.447 43.9429 128.354 43.9945C130.677 44.1193 133.008 43.8655 135.336 44.1537C139.065 44.6182 141.727 47.6937 141.616 51.4488C141.512 55.019 138.544 58.0471 134.892 58.1977Z" fill="#ADADAD"/>
<path d="M203.245 51.1048C203.245 45.1302 203.28 39.1512 203.215 33.1766C203.202 32.0282 203.564 31.8217 204.617 31.8303C210.407 31.8776 216.201 31.9722 221.991 31.8303C232.581 31.5636 241.863 39.7663 241.941 51.5091C241.979 57.4837 241.962 63.4626 242.005 69.4373C242.009 70.2803 241.889 70.6589 240.895 70.6374C237.441 70.5685 233.983 70.5728 230.529 70.6374C229.553 70.6546 229.393 70.2932 229.398 69.433C229.428 63.6433 229.29 57.8493 229.454 52.064C229.583 47.4916 226.206 44.1064 221.801 44.429C220.223 44.5452 218.623 44.5108 217.04 44.429C216.051 44.3774 215.801 44.6828 215.805 45.6635C215.848 53.4619 215.805 61.2603 215.853 69.0588C215.861 70.1771 215.646 70.59 214.425 70.5556C211.16 70.4653 207.886 70.4825 204.617 70.5513C203.542 70.5728 203.202 70.3191 203.215 69.1878C203.275 63.1659 203.245 57.1396 203.245 51.1177V51.1048Z" fill="#ADADAD"/>
<path d="M158.71 51.0747C158.71 45.0958 158.736 39.1169 158.684 33.1336C158.675 32.1056 158.899 31.8131 159.97 31.8217C166.138 31.8862 172.307 31.7873 178.47 31.8862C188.411 32.0454 196.523 39.7621 197.156 49.6897C197.577 56.3568 197.293 63.0454 197.418 69.7212C197.431 70.5083 197.125 70.6288 196.442 70.6245C192.936 70.5987 189.43 70.5772 185.929 70.6331C184.983 70.6503 184.776 70.3449 184.785 69.4545C184.824 63.6605 184.677 57.8666 184.845 52.0769C184.978 47.44 181.752 44.0979 177.103 44.4291C175.614 44.5366 174.104 44.5366 172.621 44.4162C171.442 44.3215 171.278 44.799 171.287 45.827C171.326 53.5824 171.283 61.3378 171.334 69.0932C171.343 70.2632 171.02 70.5729 169.863 70.547C166.547 70.4653 163.226 70.4782 159.91 70.547C158.912 70.5686 158.675 70.2718 158.68 69.3039C158.723 63.2304 158.701 57.1569 158.701 51.0833L158.71 51.0747Z" fill="#ADADAD"/>
<path d="M31.7302 63.8024C31.7388 74.3537 31.7517 84.905 31.7603 95.4605C21.4929 95.4691 11.2298 95.4734 0.962385 95.5079C0.23115 95.5079 0.007478 95.3014 0.0117794 94.5616C0.0504918 84.2511 0.063396 73.9407 0.0849029 63.6346C10.3222 63.626 20.5595 63.6174 30.7968 63.6088C31.1194 63.6088 31.4549 63.583 31.7302 63.8067V63.8024Z" fill="#ADADAD"/>
<path d="M92.7233 31.8345C83.0667 31.8216 73.4101 31.8087 63.7535 31.7958C63.7277 29.8386 63.6761 27.8772 63.6718 25.9201C63.6632 18.2163 63.6718 10.5125 63.6718 2.80444C72.3563 5.76379 79.4192 11.0158 85.1142 18.1389C88.4133 22.2639 90.977 26.832 92.7233 31.8345Z" fill="#ADADAD"/>
</g>
<defs>
<clipPath id="clip0_2047_44">
<rect width="242" height="95.5079" fill="white"/>
</clipPath>
</defs>
</svg>
