<svg width="189" height="42" viewBox="0 0 189 42" fill="none" xmlns="http://www.w3.org/2000/svg">
<g clip-path="url(#clip0_67_1503)">
<path d="M125.964 27.1657C128.715 27.7308 130.102 29.4053 130.102 31.447C130.102 33.7112 128.345 36.0349 124.688 36.0349C121.002 36.0349 119.44 33.9369 119.002 32.3502C118.936 32.0279 119.123 31.6981 119.445 31.6056L121.819 31.0826C121.964 31.0587 122.113 31.1505 122.155 31.3012C122.349 32.2942 123.16 33.1461 124.659 33.1461C125.906 33.1461 126.505 32.4928 126.505 31.7564C126.505 31.1339 126.076 30.622 125.004 30.3987L123.157 29.9705C120.465 29.3776 119.248 27.7605 119.248 25.8058C119.248 23.312 121.457 21.2414 124.462 21.2414C127.929 21.2414 129.384 23.1655 129.81 24.6548C129.868 24.9706 129.69 25.2916 129.371 25.3897L127.348 25.8472C126.97 25.9289 126.757 25.7302 126.635 25.4157C126.363 24.7429 125.733 24.1029 124.49 24.1029C123.5 24.1029 122.706 24.6984 122.706 25.4902C122.706 26.1731 123.215 26.5974 123.982 26.7407L125.964 27.1657ZM171.93 18.918C171.93 21.0628 170.189 22.8028 168.044 22.8028C165.9 22.8028 164.16 21.0628 164.16 18.918C164.16 16.7712 165.9 15.0329 168.044 15.0329C170.189 15.0329 171.93 16.7712 171.93 18.918ZM171.678 13.1648C168.075 13.1648 165.149 10.241 165.149 6.63071C165.149 3.02121 168.075 0.0952759 171.678 0.0952759C175.29 0.0952759 178.219 3.02121 178.219 6.63071C178.219 10.241 175.29 13.1648 171.678 13.1648ZM185.336 4.58806C187.306 4.58806 188.907 6.18429 188.907 8.16005C188.907 10.1304 187.306 11.7297 185.336 11.7297C183.366 11.7297 181.765 10.1304 181.765 8.16005C181.765 6.18429 183.366 4.58806 185.336 4.58806ZM180.602 12.9698C184.364 12.9698 187.409 16.0138 187.409 19.7784C187.409 23.5342 184.364 26.5789 180.602 26.5789C176.847 26.5789 173.8 23.5342 173.8 19.7784C173.8 16.0138 176.847 12.9698 180.602 12.9698ZM165.73 37.0455C166.706 37.0455 167.497 37.8374 167.497 38.8147C167.497 39.791 166.706 40.5811 165.73 40.5811C164.752 40.5811 163.961 39.791 163.961 38.8147C163.961 37.8374 164.752 37.0455 165.73 37.0455ZM170.854 25.4229C173.679 25.4229 175.976 27.7149 175.976 30.547C175.976 33.3738 173.679 35.6695 170.854 35.6695C168.021 35.6695 165.729 33.3738 165.729 30.547C165.729 27.7149 168.021 25.4229 170.854 25.4229ZM162.236 39.9536V11.8854C162.136 7.59666 159.549 3.92377 155.859 2.25178C154.635 1.72083 153.313 1.37993 151.938 1.30684C145.128 0.946342 139.868 4.97424 138.464 10.41C137.551 13.7204 138.257 17.6992 140.536 21.0428C143.332 25.1487 154.832 36.0343 160.383 40.8843C160.575 41.0247 160.809 41.1113 161.067 41.1113C161.709 41.1113 162.228 40.5944 162.236 39.9536ZM159.837 27.0656C159.837 28.2027 158.915 29.1276 157.777 29.1276C156.636 29.1276 155.715 28.2027 155.715 27.0656C155.715 25.9292 156.636 25.0046 157.777 25.0046C158.915 25.0046 159.837 25.9292 159.837 27.0656ZM120.327 18.1293C120.215 18.3763 118.22 22.3224 118.22 22.3224C118.154 22.4457 118.008 22.5337 117.887 22.5337H116.628C116.498 22.5337 116.393 22.4293 116.393 22.2989C116.393 22.2789 116.396 22.2587 116.401 22.2398L117.66 19.4237C116.66 19.1751 115.91 18.2733 115.91 17.2001C115.91 15.9386 116.946 14.9023 118.207 14.9023C119.494 14.9023 120.53 15.9386 120.53 17.2001C120.53 17.6376 120.438 17.8815 120.327 18.1293H120.327ZM73.7871 32.5773C71.7989 32.5773 70.327 31.1032 70.327 28.6108C70.327 26.1163 71.8577 24.6976 73.7871 24.6976C75.7136 24.6976 77.2158 26.0872 77.2158 28.5817C77.2158 31.1033 75.7136 32.5773 73.7871 32.5773ZM77.141 23.0238C76.728 22.289 75.5945 21.3244 73.219 21.3244C69.2791 21.3244 66.531 24.5296 66.531 28.6108C66.531 32.8326 69.3617 35.9505 73.3328 35.9505C75.2026 35.9505 76.6189 35.0993 77.2422 33.9954C77.246 34.4532 77.305 35.1418 77.3474 35.377C77.3688 35.4978 77.5499 35.6135 77.691 35.6135H80.2145C80.5707 35.6135 80.8591 35.3225 80.8591 34.9698V15.7328C80.8591 15.3769 80.5707 15.0892 80.2145 15.0892H77.7853C77.4302 15.0892 77.141 15.3769 77.141 15.7328V23.0238ZM90.5545 32.5773C88.5656 32.5773 87.0941 31.1032 87.0941 28.6108C87.0941 26.1163 88.6248 24.6976 90.5545 24.6976C92.4803 24.6976 93.9829 26.0872 93.9829 28.5817C93.9829 31.1033 92.4803 32.5773 90.5545 32.5773ZM93.9084 23.0238C93.4948 22.289 92.3609 21.3244 89.9866 21.3244C86.0465 21.3244 83.2977 24.5296 83.2977 28.6108C83.2977 32.8326 86.1292 35.9505 90.0996 35.9505C91.9694 35.9505 93.386 35.0993 94.0089 33.9954C94.0127 34.4532 94.0721 35.1418 94.1141 35.377C94.1353 35.4978 94.3166 35.6135 94.4586 35.6135H96.9817C97.3372 35.6135 97.6256 35.3225 97.6256 34.9698V15.7328C97.6256 15.3769 97.3372 15.0892 96.9817 15.0892H94.5523C94.1969 15.0892 93.9084 15.3769 93.9084 15.7328V23.0238ZM54.4423 27.0502C54.5282 25.7733 55.6036 24.3015 57.5591 24.3015C59.7141 24.3015 60.6212 25.6614 60.6775 27.0502H54.4423ZM57.5028 21.2407C53.9314 21.2407 50.6459 24.1299 50.6459 28.5817C50.6459 33.2862 54.0165 36.0349 57.8425 36.0349C61.0398 36.0349 63.1564 34.2892 64.0058 32.1045C64.0995 31.8485 63.9658 31.5743 63.7102 31.4809L61.5326 30.823C61.3002 30.7764 60.9949 30.8445 60.8594 31.1139C60.3485 32.1238 59.4179 32.8044 57.8718 32.8044C56.0016 32.8044 54.4423 31.473 54.3568 29.6306H63.7387C64.0892 29.6306 64.3562 29.3504 64.3748 28.9963C64.3836 28.8281 64.3908 28.6515 64.3908 28.4658C64.3908 23.9884 61.8118 21.2407 57.5028 21.2407ZM114.471 22.3036L106.272 40.5045C106.081 40.839 105.668 41.1113 105.324 41.1113H102.612C102.26 41.1113 102.129 40.8262 102.295 40.4678L105.291 33.8535L99.6801 22.3111C99.4783 21.9559 99.6095 21.6657 99.9611 21.6657H102.876C103.23 21.6657 103.68 21.9559 103.881 22.3072L107.302 29.83L110.463 22.3057C110.663 21.9559 111.114 21.6675 111.463 21.665H114.194C114.543 21.665 114.64 21.936 114.471 22.3036ZM26.1428 21.5538C26.4548 21.5538 26.7372 21.5802 27.0213 21.6079V25.4053C26.5959 25.3197 26.2262 25.2921 25.8871 25.2921C23.9613 25.2921 22.2869 26.2288 22.2869 29.2329V34.9732C22.2819 35.3241 21.9952 35.6125 21.6436 35.6125H19.1612C18.8092 35.6125 18.5229 35.3241 18.5177 34.9732V22.2901C18.529 21.9471 18.8146 21.6655 19.1612 21.6655H21.5702C21.9046 21.687 22.1717 21.9624 22.1717 22.3029V23.7343C23.0243 21.8919 24.9532 21.5535 26.1428 21.5535V21.5538ZM42.6219 24.5018H39.4458V18.9152H42.6219C44.6054 18.9152 45.7678 20.0205 45.7678 21.7224C45.7678 23.3694 44.6054 24.5018 42.6219 24.5018ZM45.4833 27.3893C48.1179 26.6266 49.7656 24.5018 49.7656 21.6968C49.7656 18.2053 47.2718 15.5164 43.3573 15.5164H36.1502C35.7943 15.5164 35.5061 15.8074 35.5061 16.1603V34.9698C35.5061 35.3257 35.7943 35.6135 36.1502 35.6135H38.8019C39.1564 35.6135 39.4458 35.3218 39.4458 34.9698V27.8742H41.4861L45.111 34.9698C45.2936 35.3257 45.7311 35.6135 46.0862 35.6135H49.1377C49.4889 35.6135 49.6344 35.3218 49.4557 34.9698L45.4833 27.3893ZM28.8591 30.6482C30.3057 30.6482 31.4677 31.8114 31.4677 33.2295C31.4677 34.6451 30.3057 35.81 28.8591 35.81C27.4417 35.81 26.2808 34.6451 26.2808 33.2295C26.2808 31.8114 27.4417 30.6482 28.8591 30.6482ZM5.97405 31.9887H4.00646V19.1444H6.00537C9.29222 19.1444 12.0139 21.2139 12.0139 25.5776C12.0139 29.9455 9.26505 31.9887 5.97405 31.9887ZM6.14374 15.5135H0.740373C0.389423 15.5135 0.0957031 15.8062 0.0957031 16.1578V34.9692C0.0957031 35.3257 0.389423 35.6127 0.740373 35.6127H6.11518C11.8435 35.6127 16.0706 31.9302 16.0706 25.5776C16.0706 19.2286 11.8726 15.5135 6.14374 15.5135Z" fill="#D6D6D6"/>
</g>
<defs>
<clipPath id="clip0_67_1503">
<rect width="189" height="41.2051" fill="white"/>
</clipPath>
</defs>
</svg>
