<svg width="231" height="127" viewBox="0 0 231 127" fill="none" xmlns="http://www.w3.org/2000/svg">
<g clip-path="url(#clip0_580_1178)">
<g clip-path="url(#clip1_580_1178)">
<path d="M54.6184 84.0175C54.6131 83.4822 54.6119 82.9492 54.6529 82.4133C54.6891 81.9388 54.922 81.5696 55.2314 81.2695C56.2722 80.2609 57.4117 79.3652 58.5443 78.4624C58.8257 78.2383 59.0842 77.9868 59.3902 77.7931C59.5382 77.6995 59.4856 77.6071 59.3674 77.5246C59.0018 77.2672 58.6408 77.0033 58.2728 76.75C57.3199 76.0935 56.3617 75.4447 55.4104 74.7854C54.1328 73.899 52.8552 73.0127 51.5863 72.1134C50.3882 71.2639 49.1948 70.408 48.0149 69.5345C47.2661 68.9805 46.526 68.4106 45.8194 67.8045C45.4099 67.4535 45.0103 67.0837 44.6681 66.6514C44.406 66.3197 44.0936 66.023 43.8222 65.6937C43.2939 65.0524 42.8686 64.348 42.489 63.6115C41.9578 62.5812 41.605 61.4947 41.4178 60.3539C41.2429 59.2868 41.1733 58.2132 41.1394 57.1308C41.0873 55.4658 41.1247 53.8019 41.1008 52.138C41.0949 51.7413 41.2376 51.4985 41.5711 51.2827C42.4515 50.7122 43.3542 50.1886 44.2919 49.7141C44.8646 49.4245 45.4613 49.2005 46.0417 48.9348C46.2031 48.8611 46.2634 48.8892 46.278 49.0729C46.3658 50.1424 46.3043 51.2136 46.3195 52.2837C46.3219 52.437 46.2201 52.5007 46.1019 52.5622C45.6269 52.8091 45.1566 53.0653 44.6786 53.3069C44.4739 53.4105 44.3814 53.5462 44.3838 53.7873C44.3978 55.2575 44.3744 56.7283 44.4089 58.198C44.4358 59.3458 44.5593 60.4879 44.8372 61.6077C45.1495 62.8661 45.7837 63.9631 46.519 65.015C47.4404 66.3337 48.604 67.4143 49.8266 68.4399C50.3098 68.8453 50.7895 69.2555 51.2803 69.6521C51.9753 70.2138 52.6709 70.7748 53.3799 71.3184C54.4838 72.1643 55.5935 73.0021 56.7103 73.8312C57.7241 74.5835 58.7496 75.3195 59.771 76.062C59.7921 76.0772 59.8225 76.0807 59.8635 76.0719C59.5973 75.7624 59.2943 75.4933 58.9854 75.2277C58.1225 74.4852 57.276 73.7241 56.4061 72.9898C55.879 72.5452 55.3496 72.0976 54.8442 71.6331C54.1509 70.9954 53.4448 70.37 52.7627 69.7182C51.7723 68.7722 50.8767 67.7443 50.1133 66.6192C48.7982 64.6815 47.8815 62.5683 47.5902 60.2176C47.5182 59.6372 47.4872 59.0562 47.4702 58.4718C47.4135 56.5154 47.441 54.5584 47.3971 52.6025C47.355 50.714 47.3749 48.8254 47.3679 46.9369C47.3679 46.8591 47.3725 46.7807 47.3684 46.7035C47.3427 46.2155 47.4445 45.8481 47.9874 45.6469C48.735 45.3701 49.4838 45.1004 50.2455 44.8641C52.3825 44.2012 54.5751 43.8016 56.7922 43.5594C58.0482 43.4219 59.3136 43.3511 60.5772 43.2745C62.4919 43.158 64.3896 43.3137 66.2903 43.5044C68.3986 43.7162 70.4648 44.1269 72.5112 44.671C73.7549 45.0015 74.9834 45.3684 76.1832 45.8335C76.3675 45.9049 76.4547 45.9944 76.4593 46.1851C76.4628 46.3501 76.4915 46.5151 76.4915 46.6795C76.4927 50.136 76.5155 53.5924 76.4769 57.0489C76.4634 58.2588 76.3862 59.4699 76.1826 60.6745C75.948 62.0611 75.5181 63.3751 74.9085 64.6289C74.3773 65.7217 73.7151 66.7362 72.9552 67.6951C71.7805 69.1782 70.3981 70.4373 68.9649 71.6577C68.4191 72.1222 67.8979 72.6236 67.3421 73.077C66.5687 73.7083 65.872 74.4256 65.0723 75.0264C64.709 75.2996 64.389 75.6314 64.0181 75.9005C63.9567 75.9449 63.9105 76.0087 63.8965 76.1047C64.4159 75.8712 64.7944 75.457 65.242 75.1428C66.0838 74.5514 66.8963 73.9172 67.7118 73.2888C68.7128 72.5177 69.6926 71.7197 70.7018 70.9591C71.9683 70.0043 73.181 68.9828 74.3773 67.9467C75.0173 67.3927 75.624 66.7824 76.1967 66.1447C76.736 65.5439 77.2766 64.9506 77.7323 64.2802C78.5361 63.0972 78.9877 61.7879 79.224 60.389C79.5996 58.167 79.5481 55.9303 79.4721 53.6919C79.4645 53.4596 79.3182 53.3707 79.1538 53.2841C78.6981 53.0431 78.243 52.7991 77.7797 52.5727C77.596 52.4826 77.5275 52.3633 77.5287 52.1626C77.5346 51.2183 77.5252 50.2734 77.5299 49.3292C77.5322 48.8816 77.6364 48.8219 78.0336 49.001C78.9286 49.4041 79.8166 49.8177 80.6819 50.284C81.2733 50.6028 81.8092 51.0042 82.3895 51.3382C82.6504 51.4886 82.7656 51.7074 82.7604 52.0356C82.7381 53.5638 82.7533 55.0931 82.7393 56.6213C82.7264 58.0189 82.7165 59.4166 82.4029 60.7921C82.0929 62.1518 81.5822 63.4213 80.824 64.5973C80.3689 65.3034 79.8488 65.9558 79.2972 66.5818C78.5179 67.4664 77.6346 68.2451 76.7068 68.97C75.5198 69.8973 74.2972 70.7778 73.0529 71.6273C72.2181 72.1971 71.4008 72.7921 70.5643 73.3584C69.4393 74.1202 68.2986 74.8585 67.1725 75.6185C65.9545 76.4405 64.7482 77.28 63.532 78.1044C62.2052 79.0042 60.8726 79.8952 59.5435 80.7921C59.327 80.9384 59.1158 81.0922 58.9234 81.2993C59.0374 81.2508 59.1533 81.2063 59.2656 81.1542C61.1388 80.286 63.0137 79.4213 64.8822 78.5432C65.1279 78.4273 65.3203 78.4718 65.497 78.6303C66.0978 79.1709 66.77 79.6232 67.3678 80.169C67.7393 80.5078 68.1535 80.798 68.518 81.1496C68.9824 81.5977 69.2024 82.1208 69.1925 82.7643C69.186 83.1815 69.1574 83.6021 69.2363 84.0169H54.6172L54.6184 84.0175ZM54.6347 47.6091C55.0208 48.1515 55.5117 48.5704 55.9346 49.0501C56.0879 49.2244 56.1622 49.3871 56.1616 49.6176C56.154 51.3113 56.1575 53.0056 56.1575 54.6999C56.1575 58.5361 56.1563 62.3717 56.1604 66.2079C56.1604 66.4232 56.12 66.5929 55.9598 66.7555C55.5567 67.1639 55.1735 67.5927 54.7839 68.0146C54.7395 68.0625 54.6693 68.1111 54.6962 68.186C54.7254 68.2673 54.812 68.2416 54.8763 68.2439C55.3531 68.2585 55.8305 68.2825 56.3072 68.2802C58.6648 68.2702 61.0235 68.2749 63.3805 68.2275C64.3106 68.2088 65.242 68.1017 66.1282 67.7612C67.2883 67.316 68.25 66.628 68.9122 65.5609C69.2644 64.9939 69.547 64.3937 69.5938 63.7179C69.6435 63.0001 69.6786 62.2805 69.6839 61.5609C69.7067 58.621 69.6973 55.6817 69.6371 52.7418C69.6137 51.5863 69.3276 50.5385 68.5776 49.6422C67.5001 48.3551 66.0873 47.7209 64.4388 47.6483C62.8528 47.5787 61.2634 47.6314 59.6751 47.5916C58.0973 47.5518 56.5179 47.5746 54.9389 47.5723C54.8447 47.5723 54.7453 47.5477 54.6336 47.6103L54.6347 47.6091Z" fill="white"/>
<path d="M190.813 74.1269C189.342 74.1269 187.872 74.1286 186.4 74.128C186.003 74.128 185.997 74.121 185.997 73.715C185.997 68.6356 185.997 63.5556 185.997 58.4761C185.997 58.1711 185.843 58.0184 185.535 58.0181C185.087 58.0181 184.639 58.0192 184.191 58.0175C183.864 58.0163 183.844 57.9952 183.925 57.6875C184.157 56.8023 184.451 55.9364 184.74 55.0694C184.872 54.6733 185.011 54.2784 185.129 53.8782C185.191 53.6664 185.314 53.5717 185.525 53.5676C185.71 53.564 185.895 53.5547 186.08 53.5547C187.658 53.5564 189.236 53.5605 190.814 53.5635V74.128L190.813 74.1269Z" fill="white"/>
<path d="M150.638 64.7104C150.638 61.9355 150.635 59.1612 150.641 56.3863C150.643 55.6468 150.676 54.9079 150.685 54.1684C150.688 53.9344 150.775 53.8285 151.013 53.7787C152.026 53.5681 153.056 53.5026 154.078 53.371C155.226 53.2235 156.376 53.2434 157.516 53.2762C158.654 53.3084 159.814 53.4347 160.838 54.042C160.981 54.1268 161.098 54.1268 161.246 54.0584C162.159 53.6377 163.139 53.4722 164.124 53.3429C164.988 53.2294 165.865 53.213 166.727 53.2879C168.177 53.4142 169.521 53.8285 170.565 54.9576C171.213 55.6585 171.526 56.4723 171.644 57.3903C171.694 57.7776 171.696 58.1666 171.7 58.5557C171.758 63.5982 171.752 68.6408 171.758 73.6834C171.758 73.9911 171.6 74.1452 171.285 74.1456C169.941 74.1456 168.596 74.1456 167.251 74.1456C166.831 74.1456 166.827 74.1415 166.827 73.7232C166.824 68.9234 166.822 64.1236 166.82 59.3239C166.82 58.3808 166.4 57.9256 165.459 57.7887C164.802 57.6927 164.182 57.8197 163.561 57.9987C163.391 58.0479 163.322 58.1473 163.334 58.3176C163.34 58.4147 163.334 58.5124 163.334 58.6095C163.335 63.6334 163.336 68.6566 163.336 73.6805C163.336 73.9901 163.18 74.1452 162.867 74.1456C161.717 74.1456 160.568 74.1374 159.418 74.1508C159.121 74.1543 159.037 74.0549 159.037 73.7629C159.045 70.0245 159.045 66.286 159.037 62.5475C159.035 61.399 159.007 60.2506 158.985 59.1027C158.971 58.3796 158.513 57.8571 157.811 57.7074C157.12 57.5599 156.432 57.6611 155.743 57.6875C155.564 57.6945 155.483 57.7963 155.488 57.9736C155.491 58.0707 155.488 58.1684 155.488 58.2655C155.488 63.3865 155.488 68.5074 155.488 73.6284C155.488 73.9728 155.316 74.1452 154.973 74.1456C153.648 74.1456 152.323 74.1385 150.998 74.1508C150.703 74.1538 150.615 74.0572 150.616 73.7641C150.626 70.7458 150.622 67.7281 150.622 64.7098H150.638L150.638 64.7104Z" fill="white"/>
<path d="M139.009 70.5453C139.009 71.5966 139.009 72.6485 139.009 73.6999C139.009 74.1088 139.001 74.117 138.609 74.1176C137.225 74.1188 135.841 74.1188 134.457 74.1176C134.096 74.1176 134.079 74.1 134.079 73.7367C134.083 67.379 134.087 61.0212 134.093 54.6628C134.093 54.3715 134.124 54.0801 134.129 53.7882C134.133 53.6115 134.221 53.5448 134.383 53.5431C135.367 53.5331 136.349 53.4512 137.333 53.5185C137.663 53.5413 137.996 53.5372 138.327 53.536C139.808 53.529 141.289 53.5735 142.766 53.6694C144.069 53.7543 145.278 54.1679 146.271 55.0303C146.912 55.5872 147.376 56.2957 147.662 57.1189C147.943 57.9257 148.005 58.7524 148.007 59.5902C148.016 62.5499 148.015 65.5097 148.025 68.4701C148.031 70.1831 148.051 71.8961 148.064 73.6098C148.067 74.1164 148.064 74.1281 147.571 74.1147C146.178 74.0749 144.785 74.0667 143.392 74.0772C143.112 74.0796 143.02 73.9889 143.021 73.7092C143.026 71.606 143.019 69.5033 143.016 67.4C143.015 67.0004 143.013 66.9993 142.61 66.9993C141.528 66.9993 140.446 67.0074 139.365 66.9934C139.08 66.9899 138.999 67.0864 139.002 67.3626C139.016 68.4239 139.008 69.4851 139.008 70.5464L139.009 70.5453ZM139.009 60.0646C139.009 60.9791 139.012 61.8941 139.006 62.8085C139.004 63.0191 139.05 63.1326 139.295 63.1303C140.444 63.1215 141.593 63.1239 142.743 63.1291C142.942 63.1303 143.018 63.0595 143.019 62.8565C143.026 61.3874 143.026 59.9178 142.957 58.4505C142.919 57.6326 142.426 57.1996 141.636 57.1382C140.889 57.0803 140.137 57.1008 139.389 57.0651C139.098 57.0516 138.996 57.1347 139.002 57.4377C139.021 58.313 139.008 59.1888 139.008 60.0646H139.009Z" fill="white"/>
<path d="M116.282 65.047C116.707 65.2594 117.12 65.3565 117.469 65.6268C117.9 65.9603 118.116 66.4143 118.315 66.8852C118.432 67.1626 118.479 67.4627 118.488 67.7687C118.543 69.7444 118.543 71.7207 118.546 73.6964C118.547 74.1241 118.544 74.1276 118.132 74.1276C116.729 74.1282 115.325 74.1223 113.922 74.1323C113.644 74.134 113.549 74.0457 113.55 73.7637C113.558 71.943 113.552 70.1223 113.551 68.3016C113.551 68.1068 113.547 67.9126 113.497 67.7219C113.401 67.3533 113.078 67.0824 112.697 67.0713C111.84 67.0461 110.983 67.0362 110.127 67.0022C109.843 66.9911 109.758 67.0894 109.759 67.3685C109.769 69.4618 109.765 71.5551 109.764 73.6484C109.764 74.1247 109.761 74.1276 109.3 74.1276C107.955 74.1276 106.61 74.1223 105.265 74.1323C104.992 74.134 104.891 74.0545 104.891 73.7672C104.902 67.2339 104.905 60.7007 104.91 54.168C104.91 54.1387 104.91 54.1095 104.911 54.0802C104.921 53.5677 104.93 53.5548 105.439 53.5554C107.973 53.556 110.507 53.5496 113.041 53.5665C114.045 53.573 115.061 53.6174 115.987 54.0545C117.246 54.6483 117.973 55.6107 118.031 57.0599C118.098 58.715 118.066 60.3689 118.082 62.0235C118.092 63.1122 117.68 63.984 116.814 64.6433C116.646 64.772 116.476 64.899 116.281 65.047H116.282ZM109.764 60.1027C109.764 61.0072 109.769 61.9117 109.761 62.8162C109.758 63.0514 109.833 63.1468 110.079 63.1421C110.741 63.1298 111.403 63.1251 112.063 63.0719C112.704 63.0198 113.114 62.6015 113.136 62.0738C113.188 60.8305 113.188 59.5855 113.193 58.3406C113.196 57.8123 112.589 57.1511 112.103 57.133C111.442 57.1084 110.78 57.1084 110.119 57.0763C109.827 57.0616 109.756 57.1769 109.76 57.4478C109.773 58.3329 109.765 59.2181 109.765 60.1027H109.764Z" fill="white"/>
<path d="M102.516 65.541C102.516 66.2121 102.524 67.3512 102.513 68.4897C102.505 69.3128 102.387 70.119 102.025 70.8708C101.336 72.3048 100.175 73.1847 98.6959 73.6931C97.9296 73.9564 97.1352 74.0301 96.3366 74.0401C94.0575 74.0681 91.7777 74.0804 89.498 74.091C89.0312 74.0933 88.5637 74.0652 88.0969 74.0453C87.9647 74.0395 87.7927 74.0605 87.7424 73.9073C87.6991 73.7768 87.8664 73.7306 87.9337 73.6422C88.1853 73.3099 88.3988 72.9419 88.6854 72.6453C89.0171 72.3019 89.0569 71.9192 89.0563 71.477C89.0464 66.4543 89.0388 61.431 89.0645 56.4083C89.0674 55.7759 88.9259 55.2593 88.5251 54.7854C88.2876 54.504 88.0864 54.1916 87.8729 53.8897C87.812 53.8031 87.7401 53.7048 87.7939 53.5948C87.8465 53.4866 87.9647 53.5205 88.0566 53.5211C90.3562 53.5252 92.6558 53.5082 94.9549 53.5504C95.7511 53.565 96.5537 53.5047 97.3464 53.6352C98.2338 53.7815 99.0996 53.9915 99.8934 54.4414C100.557 54.8176 101.096 55.3161 101.564 55.9163C102.177 56.7026 102.365 57.6048 102.401 58.5654C102.484 60.7342 102.551 62.903 102.516 65.5416V65.541ZM93.9803 63.7262C93.9803 65.7984 93.9838 67.8707 93.9756 69.9424C93.9744 70.2068 94.0522 70.3086 94.3254 70.2916C94.8888 70.2571 95.4533 70.246 96.0172 70.2261C96.7175 70.201 97.6149 69.5334 97.5458 68.6266C97.4996 68.0187 97.5774 67.4026 97.5792 66.7907C97.5868 64.1152 97.5874 61.4398 97.5897 58.7649C97.5897 58.659 97.6055 58.5479 97.5499 58.4502C97.2329 57.8885 96.8351 57.438 96.1413 57.3433C95.551 57.2625 94.9578 57.2573 94.3658 57.2368C93.9826 57.2239 93.9808 57.2356 93.9808 57.6264C93.9808 59.6595 93.9808 61.6931 93.9808 63.7262H93.9803Z" fill="white"/>
<path d="M120.638 63.3074C120.638 61.5938 120.652 59.8802 120.632 58.1666C120.621 57.2392 120.799 56.3704 121.267 55.5695C121.545 55.0927 121.922 54.7025 122.39 54.4041C123.251 53.8536 124.209 53.65 125.218 53.6067C127.283 53.5183 129.348 53.5739 131.414 53.5552C131.821 53.5517 131.822 53.5563 131.822 53.9577C131.823 54.9997 131.823 56.0411 131.822 57.083C131.822 57.4768 131.816 57.482 131.407 57.4832C129.838 57.4867 128.269 57.4891 126.7 57.492C126.505 57.492 126.312 57.5014 126.119 57.5388C125.741 57.6119 125.46 57.9167 125.458 58.3105C125.45 59.4203 125.456 60.5302 125.453 61.64C125.453 61.7752 125.469 61.8553 125.639 61.8559C126.207 61.8577 126.775 61.9033 127.343 61.8629C127.411 61.8582 127.479 61.8471 127.547 61.8506C128.645 61.9162 129.743 61.8249 130.842 61.8553C131.048 61.8612 131.121 61.9413 131.12 62.1332C131.113 63.2331 131.106 64.3336 131.105 65.4335C131.105 65.6997 130.984 65.7822 130.728 65.781C129.11 65.7734 127.492 65.7769 125.875 65.7775C125.595 65.7775 125.455 65.9173 125.455 66.197C125.455 67.239 125.453 68.2804 125.455 69.3223C125.455 69.805 125.72 70.0753 126.196 70.101C127.929 70.1946 129.664 70.1291 131.398 70.1549C131.805 70.1607 131.811 70.1636 131.812 70.5609C131.816 71.6321 131.811 72.7028 131.828 73.774C131.833 74.0618 131.728 74.1408 131.455 74.1379C129.331 74.1127 127.207 74.104 125.083 74.0776C124.08 74.0653 123.126 73.8454 122.296 73.2551C121.309 72.553 120.744 71.5765 120.694 70.3748C120.597 68.0212 120.639 65.664 120.638 63.308L120.638 63.3074Z" fill="white"/>
<path d="M181.807 63.7991C181.807 67.0707 181.807 70.3417 181.807 73.6133C181.807 73.9367 181.645 74.0985 181.32 74.0989C179.975 74.0989 178.63 74.0995 177.285 74.0989C176.885 74.0989 176.88 74.0931 176.88 73.6888C176.88 68.6357 176.88 63.5826 176.879 58.5289C176.879 57.9222 176.939 57.9936 176.324 57.9889C175.915 57.986 175.506 57.9825 175.096 57.986C174.846 57.9884 174.761 57.8907 174.84 57.6438C175.257 56.3467 175.669 55.0485 176.079 53.7497C176.131 53.5847 176.225 53.5197 176.398 53.5197C178.104 53.5227 179.81 53.5244 181.515 53.5156C181.788 53.5145 181.809 53.6607 181.809 53.8678C181.806 55.2503 181.807 56.6328 181.807 58.0159C181.807 59.9436 181.807 61.8713 181.807 63.7991Z" fill="white"/>
<path d="M60.8035 57.7435C60.8035 55.6023 60.8035 53.4604 60.8035 51.3191C60.8035 50.9353 60.8094 50.9248 61.1978 50.9306C61.8594 50.94 62.5205 50.9189 63.1833 50.971C63.7935 51.019 64.2515 51.3074 64.6353 51.7432C64.8541 51.9919 64.8511 52.3172 64.8658 52.629C64.9576 54.5843 64.9014 56.5413 64.9131 58.4971C64.9219 59.9375 64.9061 61.3785 64.9196 62.8189C64.9266 63.5619 64.1924 64.4377 63.3945 64.5144C62.6357 64.5875 61.8746 64.5173 61.1188 64.6062C60.8456 64.6384 60.7982 64.4921 60.7988 64.2563C60.8047 62.0858 60.8023 59.9147 60.8023 57.7441L60.8035 57.7435Z" fill="white"/>
</g>
</g>
<defs>
<clipPath id="clip0_580_1178">
<rect width="231" height="127" fill="white"/>
</clipPath>
<clipPath id="clip1_580_1178">
<rect width="149.819" height="40.8952" fill="white" transform="translate(41 42.9961)"/>
</clipPath>
</defs>
</svg>
