<svg width="216" height="207" viewBox="0 0 216 207" fill="none" xmlns="http://www.w3.org/2000/svg">
<g clip-path="url(#clip0_5535_2176)">
<rect width="216" height="206.929" fill="#151517"/>
<g clip-path="url(#clip1_5535_2176)">
<path d="M46.7927 83C47.5746 85.9593 50.1067 88.6005 52.8426 91.341L53.423 91.9211C57.747 96.242 62.5863 101.151 62.5863 108.475C62.5681 112.651 60.8962 116.651 57.9364 119.598C54.9765 122.545 50.9699 124.199 46.7932 124.199C42.6164 124.199 38.6098 122.545 35.65 119.598C32.6901 116.651 31.0182 112.651 31 108.475C31 101.298 35.6463 96.4411 39.9001 92.1837L40.1627 91.9211L40.2934 91.7903C43.1969 88.888 45.9683 86.1209 46.793 83H46.7927ZM154.816 106.626C155.773 111.791 152.638 116.834 147.582 118.26C142.81 119.422 140.66 115.717 140.27 114.744C140.229 114.642 140.192 114.532 140.025 114.534C139.852 114.537 139.833 114.715 139.831 114.74V114.743L139.83 117.331L139.828 117.329V124.236H134.658V108.477C134.658 103.224 138.661 98.8368 143.892 98.3562C149.124 97.8759 153.859 101.461 154.816 106.626H154.816ZM46.7924 106.688C46.7924 106.688 45.801 107.766 44.7625 108.92L44.6171 109.081C43.8667 109.916 43.1151 110.766 42.7155 111.254C41.8606 112.256 41.3818 113.525 41.3616 114.842C41.3615 115.555 41.502 116.261 41.775 116.92C42.0479 117.58 42.448 118.178 42.9524 118.683C43.4568 119.187 44.0556 119.587 44.7146 119.86C45.3736 120.133 46.08 120.274 46.7933 120.274C49.7931 120.274 52.225 117.842 52.225 114.842C52.2367 113.514 51.7505 112.23 50.8625 111.243C50.4598 110.794 49.7412 109.99 49.0181 109.181L48.8736 109.019L46.7924 106.688V106.688ZM168.043 98.3568C173.221 98.8323 177.196 103.137 177.276 108.32L177.277 108.477V117.922H172.107L172.104 114.744C172.104 114.744 172.097 114.537 171.91 114.534C171.743 114.532 171.706 114.643 171.666 114.744C171.275 115.716 169.125 119.422 164.354 118.26C159.298 116.834 156.163 111.79 157.12 106.625C158.077 101.461 162.812 97.8759 168.043 98.3568H168.043ZM132.831 98.6785L132.83 108.334C132.83 113.909 129.192 118.428 123.617 118.428C118.096 118.428 114.528 113.999 114.457 108.501L114.456 108.334L114.458 98.6878H119.604V108.334C119.604 111.155 120.825 113.438 123.648 113.438C126.436 113.438 127.65 111.21 127.679 108.435L127.679 108.333L127.671 98.6785H132.831ZM184.496 92.7953V117.93H179.361V92.7953H184.496ZM110.26 98.4686C110.947 98.6243 111.611 98.8675 112.236 99.192L112.405 99.2826V105.131L112.402 105.128C112.373 105.1 112.343 105.074 112.312 105.048L112.271 105.014C111.939 104.743 110.974 104.066 109.214 103.65C104.828 102.613 102.544 106.593 102.499 107.496L102.498 107.522V117.913H97.3412V98.7169H101.941L102.491 102.081C102.491 102.081 102.509 102.255 102.671 102.259C102.867 102.264 102.869 102.196 102.926 102.081C103.042 101.845 105.834 97.4475 110.26 98.4689V98.4686ZM81.6171 92.7854C89.2374 92.7854 95.0169 94.1839 95.0169 105.333C95.0169 116.376 88.895 117.882 81.189 117.882H75.3238V92.7851L81.6171 92.7854ZM167.109 103.333C166.091 103.333 165.097 103.635 164.25 104.2C163.404 104.765 162.745 105.569 162.355 106.509C161.966 107.449 161.864 108.484 162.062 109.482C162.261 110.48 162.751 111.397 163.471 112.117C164.19 112.836 165.107 113.326 166.105 113.525C167.103 113.723 168.138 113.621 169.078 113.231C170.018 112.842 170.822 112.182 171.387 111.336C171.952 110.49 172.254 109.495 172.254 108.477C172.253 105.636 169.95 103.334 167.109 103.333ZM144.826 103.333C141.985 103.334 139.683 105.636 139.682 108.477C139.682 109.495 139.983 110.49 140.549 111.336C141.114 112.182 141.917 112.842 142.858 113.231C143.798 113.621 144.832 113.723 145.831 113.525C146.829 113.326 147.746 112.836 148.465 112.117C149.185 111.397 149.675 110.48 149.874 109.482C150.072 108.484 149.97 107.449 149.581 106.509C149.191 105.569 148.531 104.765 147.685 104.2C146.839 103.635 145.844 103.333 144.826 103.333V103.333ZM82.7309 97.1357H80.516V113.527L82.6451 113.582C87.0117 113.582 89.8238 113.185 89.8238 105.333C89.8238 97.8795 87.3906 97.1495 82.7306 97.1357H82.7309ZM46.7927 92.0862L46.7909 92.088L46.7465 92.1324L46.5829 92.2958L46.1652 92.7131L45.7434 93.1349L45.0077 93.8706L44.6138 94.2646L44.3119 94.5665L44.2558 94.6225L43.9578 94.9211L43.8757 95.003L43.8481 95.0309C43.2437 95.6322 42.0265 96.7562 43.4922 98.3397C44.2537 99.1627 46.5046 101.53 48.8451 104.025L49.1575 104.359C51.9198 107.307 54.7196 110.346 55.2692 111.159C55.7414 111.858 55.8094 112.185 56.4486 112.162C56.8068 112.149 57.0725 111.721 57.1894 111.465C57.738 110.266 58.668 106.632 55.9692 102.433C54.1075 99.5344 50.446 95.7099 48.3547 93.617L48.1769 93.4395C47.3374 92.6031 46.7927 92.0862 46.7927 92.0862V92.0862ZM39.8005 99.4028C33.1702 105.962 36.7441 112.122 37.7125 112.155C37.8126 112.158 37.9799 112.17 38.0944 111.851C38.649 110.304 43.1115 105.829 44.1584 104.755C44.1997 104.722 44.2335 104.68 44.2576 104.633C44.2818 104.586 44.2956 104.534 44.2984 104.482C44.3011 104.429 44.2927 104.376 44.2736 104.327C44.2544 104.277 44.2251 104.233 44.1875 104.195L39.8005 99.4028Z" fill="white"/>
</g>
</g>
<defs>
<clipPath id="clip0_5535_2176">
<rect width="216" height="206.929" fill="white"/>
</clipPath>
<clipPath id="clip1_5535_2176">
<rect width="153.496" height="41.268" fill="white" transform="translate(31 83)"/>
</clipPath>
</defs>
</svg>
