<svg width="231" height="127" viewBox="0 0 231 127" fill="none" xmlns="http://www.w3.org/2000/svg">
<g clip-path="url(#clip0_407_120)">
<path d="M151.609 85.4472C151.986 84.8959 152.562 84.562 153.062 84.1515C156.342 81.4612 159.589 78.7354 162.595 75.7373C165.641 72.6999 168.46 69.4807 170.549 65.6859C171.867 63.2913 172.777 60.7651 172.927 58.0086C173.092 54.9983 172.007 52.4087 170.184 50.0896C167.191 46.2827 163.336 43.5905 159.009 41.5177C158.774 41.4049 158.504 41.3517 158.326 41.1362C176.403 41.1362 194.478 41.1381 212.555 41.125C212.949 41.125 213 41.2239 213 41.5868C212.989 56.057 212.989 70.5273 213 84.9976C213 85.3642 212.942 85.4575 212.553 85.4575C192.238 85.4454 171.924 85.4463 151.609 85.4463V85.4472ZM159.936 85.256C160.104 85.3987 160.248 85.3484 160.38 85.3493C161.234 85.3549 162.09 85.3381 162.944 85.3586C163.326 85.368 163.625 85.2476 163.926 85.02C167.222 82.5246 170.527 80.0405 173.637 77.311C176.411 74.8763 179.045 72.3053 181.213 69.3006C183.204 66.5422 184.748 63.5926 184.947 60.1009C185.016 58.8836 184.855 57.6979 184.503 56.4134C184.399 57.2697 184.347 58.0095 184.214 58.7352C183.632 61.9386 182.166 64.7484 180.291 67.3641C177.412 71.3781 173.819 74.6915 170.009 77.7886C167.246 80.0358 164.342 82.0946 161.442 84.159C160.942 84.5153 160.448 84.8829 159.936 85.256Z" fill="#EEEEEE"/>
<path d="M17.0938 75.0012C17.5191 74.8669 17.9594 74.8939 18.3904 74.9219C19.2169 74.9751 19.9874 74.7605 20.7645 74.5301C21.0891 74.4331 21.4352 74.407 21.771 74.3473C21.8839 74.3267 21.994 74.2885 21.98 74.1467C21.9688 74.0301 21.8643 74.0226 21.771 74.0049C20.5574 73.7698 19.3652 73.3808 18.1003 73.5124C17.9585 73.5273 17.7094 73.5506 17.7122 73.3669C17.716 73.1318 17.9725 73.2101 18.1273 73.2055C19.2458 73.1747 20.3624 73.142 21.4277 72.7316C21.7085 72.6234 22.0098 72.6504 22.3046 72.6402C22.4296 72.6355 22.5826 72.6318 22.5966 72.4732C22.6134 72.2754 22.4287 72.3454 22.3242 72.3127C21.2067 71.9601 20.0686 71.7484 18.8895 71.8109C18.7682 71.8174 18.6432 71.781 18.521 71.7577C18.4473 71.7437 18.355 71.7325 18.3615 71.628C18.3671 71.5347 18.452 71.5049 18.5266 71.4937C18.6647 71.4732 18.8055 71.4508 18.9436 71.4583C20.0406 71.5198 21.1106 71.3818 22.1628 71.0683C22.3979 70.9984 22.6526 70.9956 22.8988 70.9629C23.0173 70.9471 23.175 70.9778 23.1918 70.8071C23.2085 70.6355 23.0462 70.6252 22.9324 70.5982C22.0285 70.3771 21.1358 70.0926 20.1843 70.1597C19.8755 70.1812 19.563 70.1569 19.2524 70.1485C19.1581 70.1457 19.0462 70.1299 19.0303 70.0207C19.0107 69.8873 19.1143 69.8239 19.2309 69.8127C19.4315 69.7931 19.6339 69.7735 19.8354 69.7819C20.7748 69.8183 21.6964 69.7455 22.5817 69.3948C22.8746 69.2782 23.1927 69.2931 23.5033 69.2894C23.6731 69.2875 23.8289 69.2418 23.8419 69.0478C23.855 68.8379 23.6572 68.8845 23.5369 68.8435C22.4231 68.461 21.2748 68.3258 20.1022 68.3398C19.9744 68.3416 19.8167 68.3668 19.7169 68.2343C19.7262 68.073 19.8522 68.0702 19.9539 68.0767C21.3876 68.1812 22.7412 67.7054 24.1321 67.503C24.2235 67.4899 24.3466 67.4853 24.3559 67.3799C24.3699 67.2297 24.2151 67.2446 24.1209 67.2091C23.091 66.822 22.0322 66.6289 20.9296 66.7203C20.883 66.7241 20.8363 66.7241 20.7897 66.7194C20.6423 66.7045 20.4091 66.7474 20.4128 66.5534C20.4165 66.3537 20.6581 66.391 20.7962 66.4088C22.1778 66.586 23.4585 66.0571 24.7851 65.8509C24.8783 65.836 24.994 65.822 24.9987 65.7119C25.0052 65.5617 24.8485 65.586 24.7589 65.5422C23.7076 65.031 22.5723 65.0048 21.4389 64.9619C21.2971 64.9563 21.0593 65.0142 21.0565 64.8099C21.0537 64.5608 21.3149 64.6186 21.4576 64.6373C22.8475 64.8173 24.1087 64.2175 25.4324 63.9983C25.5547 63.9778 25.7048 63.9582 25.6871 63.7893C25.6722 63.6531 25.5276 63.6755 25.4287 63.641C24.3317 63.2595 23.2057 63.0916 22.0444 63.1485C21.9054 63.155 21.6768 63.1932 21.6843 62.9778C21.6908 62.7959 21.9063 62.8509 22.0322 62.8518C23.41 62.8686 24.7375 62.5664 26.0593 62.2296C26.1629 62.2035 26.3019 62.2054 26.3009 62.0645C26.3009 61.9218 26.1545 61.9283 26.0565 61.8985C24.952 61.5561 23.8289 61.349 22.6656 61.4031C22.5453 61.4087 22.3326 61.4694 22.3382 61.2613C22.3429 61.0869 22.5416 61.1037 22.6768 61.099C23.0341 61.0888 23.3932 61.0617 23.7487 61.086C24.7851 61.1587 25.7039 60.6009 26.717 60.5561C26.8243 60.5514 26.9362 60.4899 26.9297 60.3518C26.9222 60.2072 26.7879 60.2147 26.6918 60.1736C25.6405 59.7184 24.5211 59.696 23.4054 59.64C23.2766 59.6335 23.0612 59.6979 23.0453 59.5356C23.0238 59.3219 23.2543 59.3649 23.396 59.3481C23.5192 59.3331 23.6461 59.3285 23.7683 59.3434C25.0061 59.4936 26.1573 59.044 27.3438 58.8341C27.4651 58.8126 27.5603 58.752 27.5584 58.6288C27.5547 58.4693 27.4073 58.4609 27.2897 58.4227C26.2935 58.0971 25.2823 57.8891 24.2244 57.9479C24.0416 57.9581 23.6983 58.016 23.7039 57.7986C23.7113 57.5076 24.0584 57.6204 24.2393 57.64C25.5705 57.7837 26.8168 57.3145 28.1013 57.1326C28.2851 57.1064 28.4717 57.085 28.6564 57.085C31.9978 57.0822 35.3402 57.0691 38.6816 57.0887C40.5343 57.0999 42.2367 57.6092 43.7115 58.7772C44.941 59.7501 45.5604 61.0496 45.5632 62.5822C45.5698 65.5067 44.7778 68.2549 43.2666 70.7353C41.8598 73.0432 39.7096 74.4611 37.1182 75.2204C35.5818 75.67 34.01 75.8268 32.4223 75.8342C28.9875 75.851 25.5519 75.8436 22.1171 75.8342C21.7001 75.8333 21.2561 75.8417 20.8708 75.7111C19.6376 75.2904 18.3727 75.2661 17.0975 75.2857V75.0059L17.0938 75.0012ZM34.6424 70.6308C34.6443 70.6 34.6462 70.5683 34.648 70.5375C34.5613 70.5114 34.4754 70.4825 34.3878 70.4592C33.6685 70.2698 32.9325 70.3799 32.2058 70.3323C32.051 70.322 31.7963 70.3967 31.7907 70.1653C31.7861 69.9433 32.0379 69.9806 32.1993 69.9713C32.4474 69.9573 32.6974 69.9526 32.9456 69.9629C33.6508 69.99 34.3402 69.9312 35.0072 69.6728C35.4475 69.5021 35.9102 69.4508 36.3812 69.4713C36.552 69.4788 36.7273 69.4834 36.8617 69.3454C36.9344 69.2707 37.0604 69.211 37.0193 69.086C36.9885 68.9927 36.8691 68.9965 36.7814 68.9666C35.7842 68.6243 34.76 68.5002 33.7086 68.5506C33.5193 68.5599 33.1844 68.6411 33.1723 68.3724C33.1639 68.1896 33.5109 68.1812 33.6891 68.2045C35.1182 68.3883 36.4354 67.7465 37.8262 67.6606C37.9083 67.656 38.0203 67.6476 38.0473 67.4899C37.0958 67.2623 36.204 66.7763 35.1713 66.9032C34.8812 66.9386 34.5809 66.9022 34.287 66.8854C34.1601 66.878 33.9596 66.9246 33.9642 66.7241C33.968 66.5636 34.1545 66.5767 34.2665 66.5925C35.7264 66.795 37.0781 66.1914 38.4895 66.031C38.5837 66.0207 38.6947 66.0076 38.7031 65.8948C38.7134 65.766 38.5837 65.7744 38.5007 65.7502C37.6098 65.4946 36.7525 65.0953 35.7852 65.1886C35.495 65.2166 35.1965 65.1588 34.9027 65.1354C34.7842 65.1261 34.6154 65.1513 34.6182 64.9778C34.621 64.8117 34.7861 64.8089 34.9055 64.8183C36.2656 64.9227 37.5454 64.5365 38.8328 64.1886C38.9419 64.1587 39.1266 64.2073 39.1163 64.0291C39.107 63.8752 38.9298 63.8873 38.816 63.8668C38.4811 63.8043 38.1257 63.8061 37.8094 63.6942C36.9727 63.3975 36.1163 63.3182 35.2404 63.3425C34.9922 63.349 34.7422 63.3444 34.4941 63.3322C34.3616 63.3257 34.1564 63.3518 34.1489 63.183C34.1396 62.975 34.3626 62.9871 34.5062 62.9824C35.1275 62.9619 35.7497 62.96 36.371 62.9442C37.051 62.9265 37.6872 62.7399 38.3561 62.4535C38.0081 62.2464 37.6975 62.1541 37.3785 62.0878C36.1499 61.835 34.9055 61.8807 33.6629 61.8807C33.4139 61.8807 33.3085 62.0123 33.232 62.2231C32.2254 64.9657 31.217 67.7073 30.2011 70.447C30.0743 70.7903 30.1769 70.8874 30.5211 70.8752C31.6694 70.8323 32.8187 70.8118 33.967 70.7679C34.1937 70.7596 34.4176 70.6803 34.6434 70.6336L34.6424 70.6308Z" fill="#EEEEEE"/>
<path d="M114.668 85.4504C114.448 85.3403 114.192 85.289 114.038 85.0717C113.936 84.9271 113.876 84.7676 113.958 84.5903C114.028 84.4411 114.166 84.4047 114.31 84.415C114.7 84.442 115.082 84.3431 115.467 84.6165C115.956 84.9635 116.762 84.6305 117.044 83.9803C116.557 84.1631 116.103 84.192 115.644 84.1724C114.775 84.1342 114.379 83.5623 114.666 82.748C115.189 81.2648 116.856 80.4942 118.291 81.0791C118.386 81.1174 118.453 81.1463 118.542 81.0772C118.818 80.8618 119.139 80.9746 119.443 80.9653C119.666 80.9588 119.708 81.1006 119.624 81.2778C119.104 82.372 118.667 83.5082 118.019 84.5372C117.641 85.1379 116.985 85.2928 116.347 85.4504H114.667H114.668ZM116.522 83.386C117.17 83.3888 117.763 82.9131 117.901 82.2778C117.983 81.9028 117.82 81.6911 117.422 81.6575C116.846 81.609 116.276 81.9896 116.01 82.6015C115.793 83.1006 115.977 83.3832 116.522 83.3851V83.386Z" fill="#EEEEEE"/>
<path d="M133.043 54.6526C133.21 54.5798 133.249 54.5546 133.292 54.5444C133.407 54.5173 133.578 54.5444 133.546 54.3559C133.519 54.1927 133.358 54.2225 133.239 54.2188C132.975 54.2123 132.71 54.2151 132.446 54.2132C132.304 54.2132 132.168 54.1945 132.053 54.0975C131.938 54.0014 131.858 53.882 131.892 53.7337C131.93 53.5714 132.086 53.604 132.203 53.6022C132.576 53.5938 132.949 53.5985 133.322 53.5919C133.433 53.5901 133.558 53.5695 133.543 53.4184C133.531 53.3055 133.422 53.2869 133.328 53.2859C132.939 53.2804 132.551 53.2794 132.162 53.2776C131.946 53.2766 131.744 53.2533 131.733 52.9716C131.722 52.66 131.956 52.6852 132.155 52.6815C132.512 52.6749 132.871 52.6833 133.228 52.674C133.357 52.6712 133.551 52.7095 133.54 52.4996C133.532 52.3335 133.36 52.3596 133.242 52.3578C132.838 52.3522 132.433 52.3438 132.029 52.3578C131.721 52.368 131.554 52.2505 131.553 51.9343C131.553 51.5835 131.824 51.6563 132.025 51.6507C132.413 51.6395 132.802 51.6507 133.191 51.6441C133.321 51.6413 133.525 51.6889 133.537 51.5051C133.55 51.2691 133.323 51.3298 133.184 51.3288C131.711 51.3232 130.239 51.3251 128.766 51.3251C128.47 51.3251 128.175 51.3326 127.88 51.3204C127.741 51.3148 127.529 51.3848 127.518 51.1469C127.51 50.9566 127.578 50.7598 127.783 50.6982C127.942 50.6507 128.12 50.6497 128.289 50.6488C129.813 50.6451 131.336 50.6469 132.859 50.6469C132.969 50.6469 133.079 50.6581 133.185 50.6423C133.307 50.6245 133.518 50.701 133.503 50.4902C133.493 50.3391 133.303 50.382 133.187 50.3811C131.897 50.3764 130.607 50.3783 129.316 50.3773C129.021 50.3773 128.726 50.3839 128.43 50.3745C128.282 50.3699 128.081 50.4408 128.004 50.2766C127.915 50.0891 128.107 49.965 128.212 49.8466C128.769 49.2197 129.505 48.9305 130.313 48.8577C131.627 48.7393 132.945 48.6684 134.262 48.5779C135.099 48.52 135.936 48.4743 136.772 48.4034C137.389 48.3512 137.466 48.1656 137.094 47.6422C136.703 47.0928 136.373 46.5219 136.262 45.8409C136.075 44.6963 136.59 43.6888 137.657 43.2196C138.762 42.7336 139.919 42.6786 141.081 42.9566C141.969 43.1692 142.277 43.7793 142.015 44.6506C141.875 45.1161 141.883 45.5648 142.189 45.9799C142.336 46.1795 142.457 46.3978 142.585 46.6114C142.651 46.7206 142.721 46.8698 142.615 46.9575C142.129 47.3587 142.382 47.8325 142.507 48.257C142.632 48.6833 142.475 48.9128 142.139 49.0919C141.818 49.2635 141.452 49.2757 141.105 49.3559C141 49.3801 140.875 49.3745 140.843 49.507C140.809 49.6423 140.917 49.701 141.01 49.757C142.177 50.4604 142.664 51.6124 143.028 52.8382C143.321 53.8205 143.598 54.8084 143.861 55.799C143.967 56.1983 144.153 56.2757 144.538 56.1423C145.785 55.7085 147.041 55.3018 148.296 54.8904C148.573 54.8 148.77 54.6311 148.955 54.4054C149.379 53.8876 150.188 53.7477 150.786 54.0527C151.33 54.3298 151.614 54.9688 151.474 55.5957C151.344 56.1796 150.797 56.5584 150.213 56.4184C149.69 56.2925 149.244 56.4091 148.793 56.674C147.24 57.5882 145.678 58.4875 144.116 59.3877C142.93 60.0715 142.018 59.828 141.344 58.6386C140.907 57.8681 140.494 57.0845 140.067 56.3084C140.016 56.2179 139.99 56.1013 139.834 56.0602C139.581 56.4968 139.458 56.9931 139.278 57.4642C139.024 58.1311 138.831 58.8252 138.549 59.4791C138.297 60.0612 138.49 60.4698 138.915 60.8345C139.618 61.4371 140.454 61.8271 141.245 62.2879C141.702 62.5547 142.139 62.8467 142.57 63.1545C143.397 63.7459 143.738 64.5678 143.81 65.5482C143.985 67.9484 144.175 70.3467 144.356 72.746C144.375 73.0044 144.425 73.2311 144.049 73.3561C143.756 73.4541 143.896 73.7535 144.11 73.8402C145.012 74.2069 145.758 74.9242 146.782 75.011C147.028 75.0315 147.24 75.1472 147.258 75.4354C147.277 75.7563 147.148 76.0147 146.865 76.1752C146.551 76.3543 146.205 76.3412 145.864 76.2927C145.512 76.2423 145.159 76.178 144.814 76.0912C144.136 75.9196 143.46 75.9391 142.781 76.0707C142.69 76.0884 142.598 76.1099 142.506 76.1201C141.254 76.2619 140.897 75.8375 141.252 74.635C141.433 74.024 141.373 73.871 140.806 73.4895C140.648 73.3822 140.635 73.1994 140.593 73.038C140.239 71.6947 140.064 70.3262 140.022 68.94C140.007 68.4568 139.936 67.9829 139.844 67.509C139.773 67.1471 139.577 66.899 139.256 66.717C138.53 66.3066 137.727 66.1154 136.942 65.8682C136.483 65.7236 136.016 65.5892 135.605 65.3327C135.345 65.1713 135.192 65.2002 134.988 65.4446C133.95 66.6835 132.876 67.8915 131.708 69.0118C130.498 70.1732 129.171 71.1602 127.608 71.8001C126.613 72.2078 125.671 72.7199 124.752 73.274C124.408 73.482 124.114 73.5604 123.801 73.2376C123.647 73.0772 123.463 73.0501 123.256 73.1835C122.535 73.6499 121.733 73.9587 120.964 74.3272C120.151 74.7171 119.449 75.2386 118.893 75.9513C118.798 76.0735 118.703 76.1994 118.589 76.3039C118.294 76.5725 117.942 76.7097 117.561 76.553C117.189 76.4009 117.138 76.0436 117.143 75.6882C117.15 75.1071 117.386 74.6238 117.846 74.2787C118.495 73.7917 118.932 73.1415 119.168 72.399C119.536 71.2413 120.347 70.7376 121.474 70.6117C121.797 70.5753 122.057 70.5352 122.03 70.1126C122.017 69.9158 122.2 69.8234 122.353 69.7497C122.801 69.5342 123.246 69.3085 123.708 69.1303C124.057 68.996 124.184 68.8318 123.912 68.5268C123.677 68.2637 123.854 68.1769 124.071 68.1182C124.399 68.0296 124.732 67.9605 125.058 67.884C125.063 67.8365 125.076 67.8047 125.066 67.7805C124.996 67.5855 124.61 67.5893 124.691 67.3794C124.771 67.1713 125.089 67.1872 125.309 67.12C125.624 67.024 125.955 67.0669 126.333 67.0323C126.135 66.6667 125.752 66.718 125.464 66.5314C125.692 66.2656 125.979 66.2254 126.269 66.2096C126.517 66.1965 126.766 66.2096 127.015 66.2058C127.104 66.2049 127.225 66.2226 127.231 66.0948C127.233 66.0323 127.172 65.9549 127.119 65.9055C126.907 65.7086 126.604 65.7217 126.285 65.5836C126.77 65.1592 127.348 65.1918 127.91 65.0435C127.731 64.8159 127.486 64.8224 127.276 64.773C126.987 64.7049 127.031 64.5855 127.207 64.4418C127.586 64.1321 128.06 64.1023 128.557 64.0314C128.429 63.8196 128.226 63.8271 128.067 63.7581C127.977 63.7189 127.821 63.7599 127.825 63.6013C127.828 63.481 127.939 63.4213 128.036 63.3728C128.411 63.1844 128.826 63.1564 129.271 63.0985C129.085 62.9316 128.886 62.9623 128.716 62.9101C128.603 62.8756 128.479 62.8345 128.535 62.6993C128.678 62.3504 128.409 62.3159 128.204 62.2245C127.253 61.7982 126.302 61.3746 125.411 60.8299C124.862 60.495 124.359 60.1078 123.945 59.6153C123.624 59.2328 123.436 58.7981 123.502 58.2851C123.519 58.1526 123.587 57.9819 123.721 58.1591C124.468 59.1433 125.644 59.3858 126.67 59.8653C128.247 60.6013 129.874 61.2245 131.599 61.5454C132.75 61.759 133.886 61.6358 134.93 61.1601C136.118 60.6181 136.603 59.4978 136.731 58.2869C136.927 56.4408 136.599 55.7794 134.602 55.0845C134.136 54.9222 133.651 54.8177 133.044 54.6507L133.043 54.6526Z" fill="#EEEEEE"/>
<path d="M66.0277 68.1405C67.6359 68.1788 69.1546 67.7273 70.7059 67.3523C69.9811 67.1685 69.3384 66.7366 68.5669 66.7263C68.0389 66.7198 67.51 66.7207 66.982 66.7142C66.8579 66.7123 66.6881 66.7067 66.6853 66.5575C66.6825 66.3989 66.8561 66.4148 66.9773 66.4036C67.024 66.3998 67.0706 66.398 67.1173 66.4008C68.2143 66.4623 69.2861 66.3495 70.3244 65.9698C70.4251 65.9325 70.5427 65.9399 70.6415 65.8998C70.857 65.8121 71.2442 65.9875 71.274 65.6983C71.2964 65.481 70.8971 65.5174 70.6966 65.4148C69.7581 64.9334 68.7273 65.0537 67.7283 64.9605C67.5865 64.9474 67.3495 65.0174 67.3458 64.8103C67.3411 64.5631 67.6005 64.6125 67.746 64.6321C69.1537 64.8289 70.4261 64.2002 71.7647 63.9866C71.8738 63.9688 71.9923 63.939 71.982 63.7944C71.9736 63.6787 71.8673 63.6703 71.7768 63.6433C70.7339 63.3289 69.6844 63.0584 68.579 63.1498C68.5016 63.1563 68.4232 63.1545 68.3458 63.1451C68.2133 63.1293 68.0072 63.161 68.0035 62.9912C67.9997 62.7991 68.2115 62.8466 68.3384 62.8466C69.6984 62.8485 71.0175 62.5948 72.3207 62.2282C72.4233 62.1992 72.5725 62.2179 72.5884 62.0892C72.6089 61.9185 72.4391 61.9278 72.3281 61.8905C71.2572 61.5369 70.1611 61.3615 69.0305 61.3989C68.9037 61.4035 68.6928 61.4548 68.676 61.2832C68.6537 61.0556 68.8878 61.0854 69.0231 61.0975C70.3505 61.2235 71.6033 60.814 72.8813 60.578C73.0315 60.55 73.2311 60.5416 73.2432 60.3494C73.2591 60.1153 73.0184 60.1946 72.8934 60.1376C71.8757 59.6694 70.7759 59.7169 69.6966 59.6339C69.5641 59.6237 69.3281 59.7225 69.3346 59.4837C69.3393 59.3214 69.551 59.3531 69.6854 59.3401C69.7628 59.3326 69.8421 59.3289 69.9186 59.3382C71.2013 59.4903 72.4055 59.077 73.6332 58.8298C73.7507 58.8065 73.8505 58.7626 73.8431 58.6283C73.8356 58.4977 73.7227 58.4604 73.6154 58.4296C72.7507 58.1852 71.899 57.8783 70.9736 57.9511C70.6975 57.9725 70.4158 57.9343 70.1369 57.9147C70.0585 57.9091 69.9811 57.8624 69.982 57.771C69.983 57.6787 70.0604 57.646 70.1425 57.6367C70.1891 57.6311 70.2358 57.6218 70.2815 57.6274C71.6854 57.785 73.0194 57.3578 74.3785 57.1386C74.5772 57.1068 74.7787 57.0789 74.9793 57.0789C78.3207 57.0751 81.6631 57.0593 85.0046 57.0835C86.9775 57.0975 88.7686 57.6693 90.2742 59.0005C91.3964 59.9921 91.9104 61.2906 91.8908 62.7319C91.8544 65.2702 91.1846 67.6872 90.0289 69.9372C88.6408 72.6378 86.3805 74.3132 83.4933 75.1872C81.9458 75.6555 80.359 75.8197 78.7545 75.8281C75.3347 75.8449 71.9158 75.8356 68.496 75.8318C67.8887 75.8318 67.2796 75.7992 66.7021 75.5958C65.9111 75.3178 65.0976 75.2553 64.2693 75.287C64.0678 75.2945 63.8654 75.287 63.6639 75.2777C63.5696 75.274 63.4661 75.2507 63.4558 75.135C63.4456 75.0184 63.5407 74.9727 63.6359 74.9615C63.8355 74.9382 64.0426 74.8934 64.2376 74.9204C65.579 75.1061 66.7992 74.5072 68.0855 74.343C68.1994 74.3281 68.3076 74.2758 68.3113 74.1471C68.316 73.982 68.1714 74.0044 68.0716 74.0044C67.7395 74.0044 67.4195 73.9242 67.1173 73.8076C66.2348 73.4661 65.315 73.5342 64.4008 73.5146C64.2581 73.5118 64.023 73.5697 64.0146 73.3682C64.0053 73.1527 64.2413 73.2077 64.3831 73.2059C65.5501 73.1891 66.7105 73.135 67.8216 72.7171C68.0883 72.6163 68.3757 72.6564 68.6536 72.6387C68.7833 72.6303 68.9242 72.6005 68.9242 72.4437C68.9242 72.2805 68.7665 72.3439 68.6732 72.315C67.4951 71.9409 66.287 71.7795 65.0519 71.7833C64.9241 71.7833 64.6723 71.8421 64.6825 71.6228C64.6909 71.4335 64.9241 71.4838 65.0697 71.4642C65.162 71.4521 65.2562 71.4521 65.3495 71.4559C66.3019 71.496 67.2404 71.4363 68.1564 71.1415C68.4969 71.0323 68.8486 70.9624 69.2096 70.9614C69.3551 70.9614 69.524 70.9437 69.5212 70.7627C69.5193 70.6032 69.3365 70.6294 69.2255 70.5958C68.1313 70.2674 67.0184 70.0892 65.871 70.1499C65.6919 70.1592 65.3766 70.246 65.371 69.9838C65.3654 69.731 65.6816 69.7851 65.8654 69.7907C66.9605 69.8234 68.0342 69.7441 69.0753 69.3607C69.3001 69.2786 69.566 69.3038 69.8132 69.2898C69.9858 69.2805 70.1303 69.232 70.1546 69.0435C70.1835 68.8084 69.9764 68.8868 69.8617 68.8495C68.7908 68.5015 67.6994 68.2982 66.565 68.3588C66.3906 68.3681 66.1909 68.3691 66.0277 68.1424V68.1405ZM84.6557 62.4763C84.3926 62.2673 84.1407 62.2039 83.8889 62.1414C82.5913 61.8168 81.2685 61.8849 79.9495 61.883C79.6967 61.883 79.6024 62.0407 79.5288 62.2431C78.5231 64.9838 77.5203 67.7254 76.5017 70.4614C76.3608 70.8411 76.5073 70.884 76.8244 70.8728C77.9569 70.8336 79.0894 70.8113 80.2219 70.7683C80.4868 70.7581 80.7564 70.718 81.0418 70.5725C80.1808 70.2366 79.3319 70.3877 78.5017 70.3327C78.3496 70.3224 78.095 70.412 78.0912 70.1667C78.0875 69.9362 78.3366 69.9782 78.4961 69.9717C78.8217 69.9586 79.1491 69.9521 79.4746 69.9633C80.0558 69.9838 80.623 69.9213 81.1687 69.718C81.6706 69.5305 82.1864 69.4446 82.7219 69.4717C82.8926 69.4801 83.0633 69.4792 83.2023 69.3458C83.3609 69.1928 83.4131 69.051 83.1435 68.9866C82.3627 68.8 81.6071 68.4791 80.7741 68.5556C80.4513 68.5855 80.122 68.5603 79.7965 68.5482C79.6771 68.5435 79.4924 68.5454 79.4774 68.4166C79.456 68.2235 79.6677 68.2618 79.789 68.2189C79.8459 68.1993 79.9131 68.189 79.9728 68.1974C81.3991 68.3924 82.7181 67.7627 84.1053 67.662C84.1883 67.6564 84.2993 67.6573 84.3544 67.4484C83.5764 67.4045 82.9308 66.898 82.1333 66.9101C81.636 66.9176 81.1388 66.8998 80.6426 66.8877C80.5082 66.884 80.3012 66.9082 80.2965 66.7403C80.2918 66.5594 80.5008 66.5967 80.6323 66.5901C80.8497 66.5799 81.0717 66.5566 81.2844 66.5873C82.5334 66.7692 83.6342 66.036 84.8506 66.0183C84.9001 66.0183 84.9766 65.9661 84.9915 65.9213C85.0241 65.8243 84.9374 65.7907 84.8618 65.772C84.068 65.578 83.3366 65.147 82.4765 65.2011C82.0614 65.2272 81.6398 65.1629 81.2219 65.1349C81.1034 65.1265 80.9336 65.1424 80.9429 64.9698C80.9513 64.8084 81.1183 64.8271 81.2387 64.8168C81.3002 64.8112 81.3637 64.8075 81.4252 64.814C82.7433 64.9399 83.9598 64.4586 85.2107 64.1806C85.2984 64.161 85.4103 64.1526 85.3954 64.0229C85.3852 63.9306 85.2937 63.9091 85.22 63.8961C84.8693 63.8326 84.4989 63.8252 84.1697 63.7048C83.29 63.3849 82.3851 63.3233 81.4644 63.3438C81.2471 63.3485 81.0288 63.3476 80.8123 63.3308C80.6845 63.3205 80.4821 63.3494 80.4812 63.1666C80.4812 62.9903 80.6827 62.9931 80.8105 62.9884C81.4318 62.966 82.053 62.9558 82.6743 62.9483C83.3516 62.9408 83.9747 62.7272 84.6557 62.4782V62.4763Z" fill="#EEEEEE"/>
<path d="M98.0009 74.662C97.6166 74.1293 97.1576 73.8094 96.4683 73.9055C96.2313 73.9381 95.9627 73.8933 95.7351 73.8112C94.7817 73.4689 93.8003 73.3812 92.7985 73.4269C92.721 73.4306 92.6417 73.4334 92.5652 73.4222C92.4384 73.4027 92.2406 73.4568 92.2434 73.2562C92.2462 73.0976 92.4216 73.1163 92.5419 73.1088C92.8983 73.0874 93.2593 73.0277 93.611 73.0603C94.5102 73.1424 95.3209 72.7954 96.1614 72.5901C96.2453 72.5696 96.3647 72.5631 96.3526 72.4334C96.3405 72.3075 96.2435 72.2459 96.125 72.2394C94.7015 72.162 93.3572 71.4987 91.8983 71.6694C91.7761 71.6834 91.5578 71.7338 91.541 71.5622C91.5205 71.3411 91.7518 71.3747 91.8899 71.3793C93.0625 71.4213 94.2145 71.3066 95.3405 70.9698C95.444 70.939 95.5532 70.925 95.6576 70.8961C95.7612 70.8672 95.8852 70.8439 95.8657 70.6946C95.8507 70.5799 95.7472 70.5724 95.6539 70.5528C94.333 70.2804 93.0149 69.9828 91.6539 69.9978C91.5419 69.9987 91.4011 70.0388 91.332 69.883C91.4029 69.7058 91.5624 69.7524 91.6902 69.7496C92.7938 69.7263 93.8936 69.6806 94.9431 69.2767C95.1791 69.1862 95.4319 69.1965 95.681 69.1918C95.8274 69.189 95.9767 69.1713 95.9748 68.9772C95.9729 68.8103 95.8395 68.7869 95.7099 68.7841C95.2043 68.772 94.7322 68.605 94.2621 68.4502C93.5317 68.2095 92.7817 68.327 92.0401 68.2841C91.9626 68.2795 91.8824 68.2935 91.8078 68.2795C91.6576 68.2515 91.3992 68.3457 91.4057 68.1032C91.4113 67.8867 91.6613 67.9138 91.8227 67.9194C92.9785 67.9558 94.1166 67.883 95.2229 67.4949C95.4916 67.4007 95.8069 67.4418 96.1007 67.4194C96.2071 67.411 96.3442 67.4241 96.3582 67.2813C96.3722 67.1302 96.2304 67.1386 96.1278 67.1143C94.8778 66.8121 93.6306 66.4959 92.3246 66.6153C92.2014 66.6265 91.9981 66.6573 91.9934 66.4623C91.9897 66.3018 92.1735 66.3018 92.2882 66.3168C93.8069 66.5061 95.2285 65.9212 96.7033 65.7664C96.8293 65.7533 96.9748 65.7393 97.0047 65.5957C97.0448 65.3998 96.8535 65.4436 96.7537 65.4007C95.6586 64.9278 94.4962 64.8802 93.3283 64.8606C93.1884 64.8578 92.9505 64.9334 92.9393 64.7272C92.9253 64.4707 93.1865 64.5369 93.333 64.5453C94.5121 64.6106 95.652 64.4548 96.7631 64.0397C97.0466 63.9333 97.3741 63.9436 97.6819 63.9035C97.8097 63.8867 97.9468 63.8652 97.9711 63.7179C98.0037 63.522 97.82 63.5639 97.7173 63.5248C96.6679 63.1274 95.5774 63.0266 94.4655 63.0565C94.2509 63.0621 93.8666 63.0845 93.8731 62.8727C93.8815 62.5928 94.249 62.6992 94.4599 62.6992C95.5961 62.6992 96.7248 62.6899 97.8097 62.2626C98.153 62.1274 98.5401 62.1236 98.9151 62.119C99.0756 62.1171 99.2677 62.0854 99.2761 61.9007C99.2836 61.729 99.0784 61.744 98.9534 61.7001C97.9021 61.327 96.8078 61.4109 95.722 61.3857C95.5476 61.382 95.2406 61.4538 95.2406 61.2496C95.2406 60.979 95.5532 61.0816 95.7332 61.0788C97.1642 61.0583 98.5718 60.8941 99.9739 60.5816C100.547 60.4538 101.094 60.4016 101.516 59.8671C100.037 59.3755 98.4944 59.7831 97.0093 59.5219C97.069 59.2719 97.2155 59.3158 97.3293 59.3092C97.7006 59.2868 98.0746 59.2393 98.445 59.2589C100.076 59.3456 101.661 59.0331 103.253 58.7598C103.845 58.6581 104.321 58.2952 104.876 58.1031C103.715 57.938 102.557 57.9687 101.4 57.9594C101.12 57.9575 100.841 57.9454 100.562 57.9324C100.485 57.9286 100.394 57.9118 100.382 57.8176C100.368 57.6963 100.466 57.6637 100.561 57.6525C100.668 57.6404 100.778 57.6376 100.886 57.6366C101.523 57.6348 102.161 57.6161 102.799 57.6394C104.312 57.6963 105.804 57.4995 107.301 57.3307C109.62 57.0685 111.944 56.8773 114.267 57.2738C115.778 57.5322 117.211 57.9893 118.216 59.2533C119.3 60.6162 119.52 62.2029 119.339 63.8792C119.315 64.1003 119.19 64.2095 118.966 64.2067C118.842 64.2048 118.717 64.2104 118.593 64.2104C117.116 64.2104 115.639 64.2123 114.162 64.2104C113.774 64.2104 113.32 64.3195 113.016 64.1563C112.669 63.9697 112.899 63.4511 112.787 63.0873C112.509 62.1787 111.85 61.7001 110.984 61.5201C109.35 61.1805 107.843 61.5481 106.459 62.4706C104.865 63.5332 104.104 65.1544 103.494 66.8737C103.272 67.5024 103.115 68.1507 102.998 68.8121C102.645 70.8149 103.732 71.689 105.541 71.8038C107.733 71.9428 109.483 71.0715 110.78 69.328C111.13 68.8578 111.495 68.7002 112.061 68.7114C113.77 68.745 115.481 68.7254 117.19 68.7216C117.493 68.7216 117.705 68.744 117.478 69.1284C115.565 72.3476 112.925 74.648 109.25 75.6284C107.171 76.1825 105.047 76.2767 102.915 76.0678C101.127 75.8924 99.3368 75.7068 97.5877 75.2562C97.3806 75.203 97.1558 75.2058 96.9394 75.2021C96.3955 75.1928 95.8507 75.203 95.3069 75.1872C95.1576 75.1825 94.8955 75.2553 94.9058 75.0099C94.9151 74.7963 95.166 74.8327 95.3274 74.8299C95.9337 74.8168 96.5401 74.8168 97.1464 74.8122C97.4384 74.8103 97.7285 74.8001 98.0019 74.6657L98.0009 74.662Z" fill="#EEEEEE"/>
<path d="M54.6688 62.0642C53.4897 62.0176 52.4179 62.0521 51.347 61.9831C50.819 61.9486 50.3013 61.9486 49.804 61.7284C48.8824 61.3208 47.8852 61.4122 46.916 61.317C46.79 61.3049 46.5755 61.3758 46.5699 61.1958C46.5633 60.9812 46.7956 61.0166 46.9346 61.0232C48.1091 61.0754 49.2565 60.9439 50.3731 60.5596C50.5485 60.4989 50.7649 60.5054 50.7854 60.2601C50.8059 60.0101 50.569 60.0418 50.429 59.9728C49.5998 59.5633 48.7033 59.6398 47.8208 59.6164C47.7117 59.6137 47.6025 59.622 47.4943 59.6109C47.3805 59.5987 47.2089 59.6351 47.2219 59.4485C47.2322 59.3095 47.3796 59.3217 47.485 59.317C47.6716 59.3086 47.8591 59.2974 48.0447 59.3123C49.0578 59.3972 50.0177 59.1575 50.9701 58.858C51.1697 58.7955 51.3917 58.7424 51.3992 58.4989C51.4076 58.2321 51.1343 58.2993 50.9832 58.2274C50.1361 57.8226 49.2098 57.9886 48.3236 57.8692C48.2163 57.8543 48.1063 57.8599 47.999 57.845C47.9384 57.8366 47.8796 57.8058 47.8721 57.7302C47.8628 57.6342 47.9225 57.5791 48.0027 57.5698C48.1566 57.5511 48.3124 57.5409 48.4673 57.5446C49.402 57.5679 50.3302 57.553 51.2341 57.2582C51.832 57.0633 52.4515 57.053 53.0765 57.0549C57.7556 57.0623 62.4357 57.0586 67.1148 57.0595C67.7557 57.0595 67.7473 57.0586 67.5318 57.6771C67.0766 58.983 66.6195 60.2881 66.1857 61.6015C66.0738 61.9392 65.8984 62.0689 65.5449 62.0558C64.4432 62.0148 63.3387 62.0167 62.2379 61.9607C61.7986 61.9383 61.6083 62.1034 61.4674 62.5017C59.9991 66.6464 58.5215 70.7882 57.0308 74.9254C56.666 75.9384 56.8731 75.8302 55.7285 75.8349C54.2985 75.8405 52.8675 75.806 51.4384 75.8461C50.2574 75.8787 49.1296 75.6446 48.0093 75.3246C47.3115 75.125 46.5932 75.1707 45.8824 75.1306C45.7424 75.1231 45.6025 75.125 45.4635 75.1119C45.3842 75.1045 45.3059 75.0653 45.3087 74.9711C45.3115 74.8853 45.3805 74.833 45.4617 74.8209C45.5689 74.805 45.6799 74.7901 45.7863 74.8013C47.0494 74.9263 48.249 74.597 49.4542 74.2994C49.6921 74.2407 49.9477 74.2528 50.1949 74.2276C50.2938 74.2173 50.3759 74.1642 50.3917 74.0597C50.4123 73.9244 50.3031 73.9095 50.2117 73.9086C49.2826 73.8992 48.4486 73.403 47.5204 73.389C47.055 73.3815 46.5895 73.3656 46.124 73.3479C46.0382 73.3451 45.9131 73.3628 45.8973 73.2434C45.8777 73.0942 46.0148 73.0886 46.1165 73.0615C46.1314 73.0578 46.1473 73.055 46.1632 73.0569C47.7294 73.2556 49.1884 72.6166 50.7108 72.4738C50.8274 72.4627 51 72.4944 51.0009 72.3237C51.0009 72.1697 50.8339 72.2304 50.7388 72.2089C50.527 72.1613 50.304 72.1492 50.1007 72.0774C49.1492 71.7416 48.1744 71.6063 47.1688 71.6707C47.0615 71.6772 46.9514 71.6641 46.8432 71.6511C46.7527 71.6399 46.6305 71.6324 46.6202 71.5233C46.6063 71.3722 46.7508 71.3815 46.8507 71.3591C46.8954 71.3488 46.9439 71.347 46.9897 71.3507C48.2975 71.471 49.5494 71.1623 50.8031 70.86C50.9235 70.8311 51.0494 70.8264 51.1707 70.7985C51.3209 70.7639 51.5876 70.875 51.5839 70.6389C51.5811 70.4486 51.3134 70.499 51.1576 70.4542C49.9859 70.1156 48.7984 69.9113 47.5717 69.9934C47.4738 69.9999 47.3227 70.0233 47.3133 69.8703C47.3031 69.6958 47.4635 69.679 47.5801 69.6884C48.9356 69.7966 50.2304 69.4692 51.5289 69.1576C51.6931 69.1184 51.8694 69.1352 52.0391 69.1165C52.1567 69.1044 52.2556 69.0428 52.264 68.9178C52.2751 68.7583 52.1334 68.7788 52.0345 68.7527C50.8488 68.4384 49.6678 68.0941 48.415 68.2126C48.2835 68.2247 48.04 68.2872 48.0438 68.0662C48.0475 67.8731 48.2835 67.8889 48.4262 67.9076C49.9029 68.0997 51.2695 67.4887 52.6987 67.332C52.7612 67.3255 52.8171 67.2947 52.8442 67.1454C52.0727 67.11 51.4225 66.6081 50.6259 66.6193C50.0979 66.6268 49.5699 66.5997 49.0419 66.5717C48.9337 66.5661 48.7434 66.5913 48.7387 66.4318C48.7331 66.2527 48.9197 66.3133 49.0307 66.2965C49.1529 66.2788 49.2807 66.2555 49.402 66.2686C50.7154 66.4104 51.9328 65.859 53.2099 65.7443C53.3227 65.734 53.4487 65.7182 53.4673 65.5904C53.4962 65.3889 53.3115 65.457 53.2108 65.4169C52.1147 64.9728 50.9804 64.7648 49.7956 64.8497C49.6613 64.859 49.4542 64.8628 49.4477 64.7005C49.4384 64.47 49.6688 64.5335 49.8059 64.5325C50.8983 64.5279 51.9748 64.4532 53.0009 64.0167C53.25 63.9113 53.5485 63.9234 53.8255 63.8833C53.9599 63.8637 54.1408 63.8889 54.1483 63.6976C54.1548 63.526 53.9767 63.5568 53.8675 63.5195C52.8022 63.1501 51.707 62.9663 50.5774 62.9887C50.4309 62.9915 50.1688 63.0736 50.1725 62.8273C50.1753 62.6445 50.4197 62.6799 50.5652 62.6836C51.7229 62.7191 52.86 62.6305 53.9515 62.1948C54.1343 62.1221 54.3461 62.1211 54.6716 62.0652L54.6688 62.0642Z" fill="#EEEEEE"/>
<path d="M128.408 52.9048C129.265 52.708 129.895 52.9747 130.514 53.5764C131.643 54.6753 133.074 55.2453 134.607 55.5718C135.321 55.7238 135.913 56.069 136.218 56.7798C136.819 58.1791 135.875 60.3974 134.449 60.9384C133.246 61.3946 132.032 61.2407 130.824 60.973C128.637 60.4879 126.617 59.5634 124.635 58.5532C123.844 58.1502 123.576 57.333 123.89 56.4309C124.264 55.3526 125.007 54.5466 125.838 53.804C126.581 53.1408 127.364 52.6072 128.407 52.9048H128.408ZM126.744 57.7033C127.115 57.7015 127.316 57.4832 127.477 57.2295C127.837 56.666 128.187 56.097 128.531 55.5242C128.684 55.2705 128.875 54.971 128.552 54.735C128.168 54.4533 127.743 54.2173 127.234 54.2583C127.187 54.2621 127.135 54.333 127.103 54.3833C126.559 55.2528 126.02 56.125 125.476 56.9953C125.397 57.1222 125.378 57.2257 125.543 57.291C125.946 57.4515 126.339 57.6418 126.744 57.7043V57.7033ZM133.029 56.8125C133.037 56.5466 132.926 56.3871 132.728 56.2938C132.49 56.1819 132.242 56.0923 132.006 55.9766C131.731 55.8414 131.546 55.9085 131.389 56.1697C131.029 56.7658 130.639 57.3442 130.288 57.9459C130.108 58.2556 129.659 58.6147 129.837 58.8815C130.064 59.2239 130.613 59.2752 131.048 59.3769C131.273 59.4291 131.49 59.3498 131.629 59.1623C132.135 58.4776 132.588 57.7565 132.98 57C133.015 56.9337 133.019 56.8516 133.029 56.8134V56.8125ZM133.223 60.2323C133.671 60.2341 134.21 59.8498 134.345 59.4487C134.391 59.3144 134.347 59.2444 134.241 59.1828C133.954 59.0158 133.723 59.028 133.54 59.3479C133.455 59.4963 133.349 59.7659 133.143 59.6409C132.888 59.4869 133.14 59.2808 133.226 59.1287C133.461 58.7099 133.715 58.3004 133.984 57.903C134.111 57.7155 134.215 57.3255 134.493 57.499C134.748 57.6576 134.401 57.8871 134.334 58.0877C134.291 58.2145 134.157 58.3563 134.35 58.4421C134.518 58.5177 134.691 58.6959 134.903 58.5317C135.161 58.3311 135.419 57.6315 135.303 57.3974C135.095 56.9757 134.713 56.8796 134.284 56.9011C133.917 56.9197 133.635 57.0923 133.44 57.402C133.11 57.9272 132.768 58.4459 132.459 58.9832C132.058 59.68 132.404 60.2304 133.224 60.2332L133.223 60.2323ZM130.562 56.0811C130.796 56.1781 130.885 55.9766 130.987 55.7994C131.056 55.6781 131.012 55.5848 130.892 55.5373C130.487 55.3787 130.083 55.2173 129.672 55.0764C129.466 55.0055 129.365 55.1651 129.279 55.3209C129.222 55.4235 129.179 55.5345 129.321 55.5932C129.625 55.7192 129.498 55.8899 129.386 56.0699C129.008 56.6763 128.648 57.2938 128.25 57.8862C128.043 58.1949 128.143 58.305 128.443 58.4095C128.728 58.5093 128.838 58.3367 128.957 58.1455C129.324 57.5513 129.691 56.9561 130.064 56.3656C130.169 56.1996 130.26 55.9916 130.562 56.0802V56.0811Z" fill="#EEEEEE"/>
<path d="M74.8827 84.1675C74.448 84.1675 74.0133 84.1657 73.5786 84.1694C73.308 84.1713 73.1961 84.0742 73.3248 83.8028C73.9106 82.5696 74.4955 81.3363 75.0804 80.1022C75.1597 79.9343 75.2773 79.8261 75.4741 79.8317C76.4648 79.8569 77.4601 79.7477 78.4471 79.9194C79.3351 80.0742 79.6896 80.6293 79.4452 81.4987C79.0226 83.0071 77.5823 84.1237 75.9984 84.1657C75.6261 84.1759 75.253 84.1675 74.8808 84.1675H74.8827ZM75.7054 83.3074C77.0235 83.2935 77.8155 82.689 78.115 81.4875C78.1653 81.2869 78.1458 81.1209 78.0226 80.9632C77.8043 80.6843 76.3295 80.5612 76.0776 80.8084C76.003 80.8811 75.9601 80.9903 75.9144 81.0873C75.6793 81.578 75.4564 82.0733 75.2138 82.5602C74.8043 83.383 74.8099 83.3028 75.7054 83.3074Z" fill="#EEEEEE"/>
<path d="M145.163 82.8563C144.775 82.8563 144.388 82.8563 144 82.8563C143.831 82.8563 143.675 82.9001 143.658 83.0932C143.641 83.29 143.759 83.4234 143.949 83.4533C144.273 83.5046 144.612 83.5298 144.895 83.3292C145.243 83.083 145.628 83.1165 146.014 83.1249C146.119 83.1268 146.252 83.1184 146.288 83.2462C146.316 83.3442 146.226 83.4169 146.154 83.4738C145.237 84.1968 144.214 84.5083 143.064 84.1958C142.483 84.0382 142.251 83.5475 142.407 82.9514C142.708 81.8003 143.86 80.9132 145.14 80.8525C145.528 80.8339 145.915 80.8339 146.29 80.9673C146.779 81.1426 147.003 81.5111 146.922 82.0158C146.811 82.6996 146.649 82.8479 146.001 82.8507C145.722 82.8516 145.442 82.8507 145.163 82.8507V82.8535V82.8563Z" fill="#EEEEEE"/>
<path d="M82.9247 82.8546C82.5367 82.8546 82.1486 82.8527 81.7596 82.8555C81.5973 82.8564 81.4303 82.8797 81.421 83.0887C81.4126 83.2837 81.5255 83.4208 81.7158 83.4516C82.0404 83.5038 82.3772 83.5271 82.6607 83.3219C83.0087 83.071 83.3977 83.1195 83.783 83.126C83.8744 83.1279 83.9845 83.1363 84.0106 83.2454C84.0358 83.348 83.9443 83.4087 83.8809 83.4768C83.2204 84.1764 81.6402 84.529 80.7493 84.1736C80.2008 83.9553 80.0059 83.5075 80.1822 82.876C80.4881 81.7808 81.6355 80.9198 82.8809 80.8527C83.3016 80.8303 83.7214 80.8405 84.1206 80.9963C84.5712 81.1717 84.7652 81.5756 84.6626 82.0999C84.5423 82.7137 84.3921 82.8471 83.8091 82.8508C83.5143 82.8527 83.2186 82.8508 82.9238 82.8508V82.8536L82.9247 82.8546Z" fill="#EEEEEE"/>
<path d="M99.4118 82.8553C99.0237 82.8553 98.6347 82.8534 98.2467 82.8553C98.0759 82.8562 97.9323 82.9103 97.9248 83.1118C97.9174 83.2937 98.0312 83.414 98.1944 83.4439C98.534 83.5064 98.8847 83.5269 99.1842 83.3142C99.534 83.0661 99.9239 83.1109 100.308 83.1277C100.564 83.1389 100.596 83.2527 100.428 83.4504C99.8129 84.1734 98.0293 84.5512 97.1692 84.1323C96.6935 83.901 96.5302 83.4663 96.6953 82.8655C96.9929 81.7788 98.1506 80.9122 99.4015 80.8525C99.7261 80.8366 100.05 80.8338 100.373 80.9206C101.175 81.136 101.466 82.0269 100.944 82.6808C100.831 82.8217 100.69 82.8459 100.531 82.8469C100.158 82.8478 99.7849 82.8469 99.4127 82.8469V82.8534L99.4118 82.8553Z" fill="#EEEEEE"/>
<path d="M125.189 82.899C126.004 81.9671 126.751 81.1192 127.493 80.2647C127.829 79.8775 128.508 79.6817 129 79.8318C129.156 79.8794 129.168 79.9568 129.083 80.0651C128.97 80.2115 128.847 80.3533 128.719 80.4886C127.719 81.5529 126.687 82.5893 125.731 83.691C125.3 84.1873 124.814 84.1901 124.266 84.1612C124.038 84.149 123.984 83.9998 123.984 83.8114C123.988 82.5987 123.993 81.3869 123.998 80.1742C123.999 79.9512 124.104 79.8234 124.339 79.8281C124.37 79.8281 124.401 79.8253 124.432 79.8253C125.482 79.8234 125.493 79.747 125.346 80.7358C125.247 81.4083 125.244 82.0949 125.189 82.8981V82.899Z" fill="#EEEEEE"/>
<path d="M131.22 84.1809C130.612 83.8656 130.035 84.2014 129.441 84.2947C129.41 84.2994 129.379 84.305 129.349 84.3087C128.724 84.3805 128.245 84.207 128.126 83.8647C127.999 83.4999 128.286 82.9262 128.769 82.6212C129.328 82.2686 129.969 82.2182 130.604 82.1678C130.871 82.1464 131.129 82.1137 131.365 81.9803C131.45 81.9327 131.518 81.86 131.483 81.7536C131.457 81.6725 131.379 81.6398 131.298 81.6342C130.972 81.61 130.613 81.5475 130.36 81.7872C130.054 82.0783 129.706 82.0195 129.356 82.0204C129.253 82.0204 129.121 82.0447 129.078 81.9104C129.042 81.7956 129.117 81.6995 129.186 81.6174C129.546 81.1911 130.031 81.0008 130.564 80.9085C131.136 80.8096 131.708 80.8021 132.273 80.9467C132.838 81.0913 132.978 81.3842 132.737 81.9094C132.522 82.3749 132.299 82.8367 132.082 83.3003C132.029 83.4122 131.935 83.5298 131.94 83.6408C131.963 84.1809 131.663 84.2555 131.219 84.1809H131.22ZM129.88 83.5615C130.294 83.527 130.702 83.4113 130.971 83.0204C131.044 82.9141 131.16 82.7247 130.883 82.7527C130.487 82.7928 130.083 82.8264 129.712 82.9915C129.551 83.0624 129.409 83.1809 129.463 83.3833C129.516 83.5774 129.698 83.5484 129.88 83.5615Z" fill="#EEEEEE"/>
<path d="M139.646 84.1972C139.026 83.8492 138.376 84.3063 137.697 84.2736C136.743 84.2279 136.496 83.8604 136.897 82.9938C137.165 82.4164 137.439 81.8408 137.719 81.269C137.853 80.9956 138.747 80.8016 138.965 80.9956C139.114 81.1281 138.983 81.2559 138.93 81.3716C138.699 81.88 138.445 82.379 138.221 82.8912C138.023 83.3427 138.134 83.4854 138.631 83.4677C139.167 83.4481 139.534 83.1822 139.757 82.7009C139.965 82.2503 140.178 81.8007 140.396 81.3538C140.564 81.0087 141.313 80.7867 141.643 80.9751C141.776 81.0516 141.742 81.1533 141.694 81.254C141.271 82.1533 140.846 83.0526 140.419 83.9499C140.266 84.2718 139.96 84.1291 139.646 84.1972Z" fill="#EEEEEE"/>
<path d="M111.947 84.1734C111.293 84.1734 111.283 84.1566 111.549 83.595C111.77 83.1314 112 82.6734 112.209 82.2051C112.366 81.8553 112.245 81.6594 111.861 81.6659C111.325 81.6753 110.904 81.8991 110.667 82.4085C110.45 82.873 110.231 83.3367 110.008 83.7984C109.854 84.1165 109.042 84.3357 108.749 84.1454C108.621 84.0624 108.672 83.9598 108.718 83.8609C109.137 82.9756 109.549 82.0885 109.98 81.2098C110.109 80.9476 110.915 80.8021 111.198 81.0316C111.372 81.1734 111.459 81.0997 111.598 81.0558C112.091 80.901 112.589 80.7956 113.108 80.9262C113.614 81.053 113.82 81.3282 113.627 81.8124C113.334 82.5465 112.972 83.2536 112.627 83.9673C112.475 84.2826 112.164 84.138 111.947 84.1753V84.1734Z" fill="#EEEEEE"/>
<path d="M93.4619 83.0368C94.0169 82.3997 94.5113 81.8241 95.016 81.256C95.2539 80.9873 95.9889 80.839 96.307 80.9706C96.5057 81.0526 96.4209 81.1655 96.335 81.2551C95.4451 82.186 94.5533 83.1161 93.6531 84.0387C93.5141 84.1814 92.557 84.2252 92.3882 84.1329C92.2725 84.0695 92.2622 83.9631 92.2585 83.8549C92.2315 83.0172 92.2081 82.1804 92.182 81.3428C92.1736 81.0694 92.3079 80.9678 92.5775 80.9491C93.5412 80.8838 93.5654 80.9015 93.5113 81.8596C93.4908 82.2252 93.3807 82.5881 93.4619 83.0368Z" fill="#EEEEEE"/>
<path d="M85.9106 84.1674C85.238 84.1674 85.2175 84.1403 85.4908 83.5629C86.0281 82.4285 86.571 81.2961 87.1158 80.1655C87.2586 79.8707 88.0813 79.6757 88.3407 79.8623C88.4647 79.9509 88.4116 80.061 88.3686 80.1524C87.7651 81.4267 87.1587 82.7 86.5477 83.9705C86.4041 84.269 86.113 84.1301 85.9115 84.1674H85.9106Z" fill="#EEEEEE"/>
<path d="M134.081 84.1688C133.624 84.1688 133.488 83.9716 133.674 83.5774C134.186 82.4962 134.697 81.4141 135.211 80.3339C135.426 79.8814 136.041 79.651 136.487 79.8395C136.669 79.916 136.604 80.0335 136.552 80.1426C135.954 81.4066 135.353 82.6678 134.754 83.9318C134.602 84.2527 134.308 84.1427 134.082 84.1688H134.081Z" fill="#EEEEEE"/>
<path d="M102.411 84.1704C101.69 84.1704 101.687 84.1686 101.962 83.5762C102.302 82.8458 102.648 82.1182 102.995 81.3915C103.241 80.8747 103.85 80.7581 104.28 81.1611C104.414 81.287 104.473 81.1629 104.547 81.1247C104.841 80.9708 105.155 80.8952 105.481 80.8635C105.605 80.8514 105.733 80.8542 105.736 81.0435C105.742 81.3738 105.36 81.8225 105.026 81.8159C104.314 81.8019 103.856 82.1256 103.602 82.7824C103.49 83.0706 103.317 83.3346 103.21 83.6247C103.055 84.0445 102.812 84.2833 102.411 84.1704Z" fill="#EEEEEE"/>
<path d="M88.8781 84.1711C88.2195 84.1711 88.2093 84.1534 88.4854 83.5778C88.8539 82.8082 89.2167 82.0358 89.588 81.2681C89.7186 80.9976 90.6076 80.8101 90.8287 80.9976C90.9425 81.0937 90.8763 81.1935 90.8306 81.2896C90.4192 82.159 90.0003 83.0247 89.5973 83.8978C89.4387 84.2411 89.1468 84.1581 88.8781 84.1711Z" fill="#EEEEEE"/>
<path d="M106.337 84.1641C106.161 84.1641 106.037 84.1659 105.913 84.1641C105.723 84.1603 105.655 84.0661 105.737 83.8936C106.169 82.984 106.599 82.0726 107.044 81.1696C107.146 80.9626 108.022 80.8515 108.206 80.9933C108.303 81.068 108.279 81.1613 108.241 81.2424C107.807 82.1678 107.38 83.0978 106.925 84.013C106.798 84.2667 106.505 84.138 106.337 84.165V84.1641Z" fill="#EEEEEE"/>
<path d="M128.761 51.6493C129.101 51.6493 129.443 51.6372 129.782 51.6549C129.929 51.6624 130.185 51.5598 130.185 51.8144C130.185 52.0355 130.087 52.3238 129.813 52.3331C129.009 52.362 128.204 52.348 127.399 52.3452C127.255 52.3452 127.156 52.2678 127.184 52.1111C127.223 51.8965 127.261 51.6624 127.553 51.6568C127.955 51.6493 128.358 51.6549 128.761 51.6549V51.6493Z" fill="#EEEEEE"/>
<path d="M107.967 80.7062C107.936 80.7062 107.904 80.7127 107.874 80.7062C107.698 80.6614 107.375 80.8209 107.385 80.5327C107.395 80.2509 107.499 79.9077 107.884 79.8386C107.975 79.8228 108.076 79.8106 108.162 79.834C108.381 79.8927 108.743 79.6465 108.797 80.0504C108.843 80.3918 108.481 80.6931 108.107 80.7062C108.06 80.708 108.014 80.7062 107.967 80.7062Z" fill="#EEEEEE"/>
<path d="M90.9006 79.8242C91.0396 79.9026 91.3344 79.6759 91.3988 80.008C91.451 80.2757 91.117 80.6666 90.8465 80.6964C90.77 80.7048 90.6879 80.7169 90.6161 80.6983C90.3987 80.6414 90.0359 80.8681 89.9948 80.4679C89.9584 80.1162 90.3045 79.8345 90.6814 79.8242C90.743 79.8223 90.8045 79.8242 90.9006 79.8242Z" fill="#EEEEEE"/>
<path d="M126.597 57.0487C126.393 57.0272 126.408 56.9041 126.481 56.7866C126.837 56.2082 127.2 55.6336 127.563 55.0599C127.615 54.9769 127.694 54.9144 127.792 54.9815C127.861 55.0291 127.878 55.1196 127.843 55.1914C127.523 55.8257 127.152 56.4293 126.712 56.989C126.687 57.0216 126.633 57.031 126.597 57.0496L126.597 57.0487Z" fill="#EEEEEE"/>
<path d="M130.923 58.754C130.734 58.7195 130.752 58.6113 130.815 58.5096C131.171 57.9275 131.532 57.3473 131.895 56.7699C131.943 56.6934 132.013 56.6094 132.122 56.6682C132.219 56.7204 132.234 56.8258 132.187 56.9116C131.852 57.5236 131.514 58.1346 131.067 58.6757C131.031 58.7186 130.961 58.7344 130.922 58.7549L130.923 58.754Z" fill="#EEEEEE"/>
</g>
<defs>
<clipPath id="clip0_407_120">
<rect width="231" height="127" fill="white"/>
</clipPath>
</defs>
</svg>
