<?xml version="1.0" encoding="utf-8"?>
<!-- Generator: Adobe Illustrator 27.4.0, SVG Export Plug-In . SVG Version: 6.00 Build 0)  -->
<svg version="1.1" id="Layer_1" xmlns="http://www.w3.org/2000/svg" xmlns:xlink="http://www.w3.org/1999/xlink" x="0px" y="0px"
	 viewBox="0 0 47 42" style="enable-background:new 0 0 47 42;" xml:space="preserve">
<style type="text/css">
	.st0{clip-path:url(#SVGID_00000065073643376990930250000006928336505364400031_);fill:#FFFFFF;}
</style>
<g>
	<defs>
		<rect id="SVGID_1_" width="47" height="42"/>
	</defs>
	<clipPath id="SVGID_00000135663992194968439040000011003422583831759780_">
		<use xlink:href="#SVGID_1_"  style="overflow:visible;"/>
	</clipPath>
	<path style="clip-path:url(#SVGID_00000135663992194968439040000011003422583831759780_);fill:#FFFFFF;" d="M44.5,11.1
		c-0.4-0.5-1-0.8-1.7-0.8c-1.3,0-2.7,0-4.1,0c-0.9,0-1.7,0-2.6,0l-8,0c-5.2,0-10.3,0-15.5-0.1c-0.6,0-1-0.3-1.1-0.9
		c-0.5-1.8-0.9-3.5-1.4-5.3C9.9,3.1,9.1,2.4,8.1,2.4c-0.9,0-1.8,0-2.7,0c-0.7,0-1.3,0-2,0c-0.6,0-0.9,0.1-1.1,0.4v0.5
		c0.2,0.3,0.4,0.5,1.1,0.5c1,0,1.9,0,2.9,0l1.2,0c1,0,1.3,0.2,1.6,1.2l4.7,17.4c0.4,1.3,0.7,2.6,1.1,4l0.2,0.6L14.4,27
		c-0.1,0-0.3,0.1-0.4,0.1c-1.8,0.2-3,1.7-3,3.5c0,1.7,1.4,3.1,3.2,3.2c0.4,0,0.9,0,1.3,0c0.2,0,0.5,0,0.7,0H17l-0.2,0.8
		c-0.6,2.9,0,4,1.3,4.9c1.4,1,2.8,1.1,4.2,0.2c1.8-1.1,2.4-2.8,1.6-5l-0.3-0.9h9.8L33,34.7c-0.7,2.1-0.3,3.7,1.2,4.8
		c1.3,1,3.1,1,4.5,0.1c1.5-1,1.9-2.5,1.3-4.9L40,34.4l0.2-0.2c0.1-0.1,0.2-0.3,0.3-0.4c0.2-0.2,0.3-0.4,0.3-0.5
		c0.1-0.2,0-0.4-0.1-0.5c-0.1-0.2-0.4-0.3-0.8-0.3l-25.4,0c-0.2,0-0.3,0-0.5,0c-1-0.1-1.8-0.9-1.8-2c0-1.1,0.6-2,1.7-2.1
		c0.2,0,0.4,0,0.6,0l0.1,0h24.3c1.4,0,2.4-0.8,2.7-2c0.4-1.8,0.8-3.5,1.2-5.3c0.6-2.7,1.2-5.4,1.9-8.1C45,12.3,44.9,11.6,44.5,11.1z
		 M34.7,34.5c0.5-0.5,1.1-0.8,1.8-0.8c1.4,0,2.5,1.1,2.5,2.5c0,1.4-1.1,2.6-2.5,2.6c0,0,0,0,0,0c-0.7,0-1.4-0.3-1.8-0.7
		C34.3,37.7,34,37,34,36.4C34,35.7,34.3,35,34.7,34.5z M18.5,34.5c0.5-0.5,1.1-0.8,1.8-0.8c1.4,0,2.6,1.1,2.6,2.5
		c0,0.7-0.2,1.3-0.7,1.8c-0.5,0.5-1.2,0.8-1.9,0.8c-1.4,0-2.6-1.1-2.6-2.5C17.7,35.7,18,35,18.5,34.5z M12.2,11.7l0.9-0.1
		c0.1,0,0.2,0,0.3,0l1.7,0c1.1,0,2.2,0,3.3,0c0.4,0,1,0.1,1.1,1c0.1,1.2,0.3,2.4,0.5,3.5l0.2,1.3c0,0.2,0,0.3,0,0.5l0,0.7h-6.2
		L12.2,11.7z M19.8,27c-0.3,0-0.6,0-0.8,0c-0.6,0-1.1,0-1.7,0c-0.5,0-1-0.5-1.2-0.9c-0.3-1-0.6-2.1-0.9-3.1v0L14.5,20l2.8,0
		c0.8,0,1.5,0,2.3,0c0.8,0,1,0.5,1.1,0.9c0.1,1.1,0.8,6.1,0.8,6.1L19.8,27z M27.8,27h-5l-0.9-7h5.9V27z M27.8,18.7h-6.1l-0.9-7h7
		V18.7z M29.1,11.7h7L36,12.4c-0.1,1-0.2,1.9-0.4,2.8l-0.1,0.6c-0.1,0.6-0.2,1.2-0.2,1.8c-0.1,0.6-0.5,1-1.1,1c-0.9,0-1.8,0-2.7,0
		l-1.4,0c-0.1,0-0.2,0-0.3,0l-0.7-0.1V11.7z M34.2,26.1c0,0.3-0.4,0.9-0.9,0.9c-1.2,0-2.3,0-3.5,0h-0.7v-7H35l-0.5,4
		C34.4,24.8,34.3,25.4,34.2,26.1z M40.5,25.9c-0.2,1-1,1.2-1.4,1.2h-3.8l0.9-7h5.6L40.5,25.9z M43.6,12.5l-1.1,4.6
		c0,0.1,0,0.2,0,0.2c-0.1,0.4-0.1,0.9-0.5,1.2c-0.3,0.2-0.6,0.3-0.9,0.3c-0.1,0-0.3,0-0.4,0c-0.1,0-0.2,0-0.3,0h-4l0.2-1.5
		c0.1-0.5,0.1-1.1,0.2-1.6c0.1-1,0.3-2,0.4-3c0-0.3,0.4-0.9,0.9-0.9c1.6,0,3.2,0,4.8,0c0,0,0.6,0,0.7,0.2
		C43.7,12.2,43.6,12.5,43.6,12.5z"/>
</g>
</svg>
