<?xml version="1.0" encoding="utf-8"?>
<!-- Generator: Adobe Illustrator 27.0.1, SVG Export Plug-In . SVG Version: 6.00 Build 0)  -->
<svg version="1.1" id="Layer_1" xmlns="http://www.w3.org/2000/svg" xmlns:xlink="http://www.w3.org/1999/xlink" x="0px" y="0px"
	 viewBox="0 0 64 63" style="enable-background:new 0 0 64 63;" xml:space="preserve">
<style type="text/css">
	.st0{fill:#5A5A5A;}
</style>
<path class="st0" d="M45.3,22.2c-0.4-0.5-1-0.8-1.7-0.8c-1.4,0-2.8,0-4.3,0c-0.9,0-1.8,0-2.7,0l-8.4,0c-5.4,0-10.9,0-16.3-0.1
	c-0.6,0-1-0.3-1.2-0.9c-0.5-1.9-1-3.7-1.5-5.5C8.9,13.7,8.1,13,7,12.9c-0.9,0-1.9-0.1-2.9,0c-0.7,0-1.4,0-2.1,0
	c-0.6,0-0.9,0.1-1.1,0.4v0.5c0.2,0.3,0.5,0.5,1.1,0.5c1,0,2,0,3,0l1.3,0c1.1,0,1.4,0.2,1.7,1.3L13,33.8c0.4,1.4,0.7,2.8,1.1,4.2
	l0.2,0.7l-0.7,0.2c-0.2,0-0.3,0.1-0.4,0.1c-1.9,0.2-3.2,1.7-3.1,3.7c0,1.5,1.2,2.9,2.7,3.3h4.9c-0.9,0.6-1.4,1.6-1.4,2.7
	c0,1.9,1.5,3.4,3.4,3.4c1.9,0,3.4-1.5,3.4-3.4c0-1.1-0.6-2.1-1.4-2.7h10.4c-0.9,0.6-1.4,1.6-1.4,2.7c0,1.9,1.5,3.4,3.4,3.4
	c1.9,0,3.4-1.5,3.4-3.4c0-1.1-0.6-2.1-1.4-2.7h5.4c0.1-0.2,0.3-0.3,0.3-0.5c0.1-0.2,0-0.4-0.1-0.5c-0.1-0.2-0.4-0.3-0.8-0.3l-26.7,0
	c-0.2,0-0.3,0-0.5,0c-1.1-0.1-1.9-1-1.9-2.1c0-1.1,0.7-2.1,1.8-2.3c0.2,0,0.5,0,0.7,0h25.7c1.4,0,2.5-0.8,2.8-2.1
	c0.4-1.9,0.9-3.7,1.3-5.6c0.7-2.8,1.3-5.7,2-8.5C45.8,23.4,45.7,22.7,45.3,22.2z M19.5,50.7c-1.2,0-2.1-0.9-2.1-2.1
	c0-1.2,0.9-2.1,2.1-2.1c1.2,0,2.1,0.9,2.1,2.1C21.6,49.7,20.7,50.7,19.5,50.7z M33.8,50.7c-1.2,0-2.1-0.9-2.1-2.1
	c0-1.2,0.9-2.1,2.1-2.1c1.2,0,2.1,0.9,2.1,2.1C35.9,49.7,35,50.7,33.8,50.7z M11.4,22.7l1-0.1c0.1,0,0.2,0,0.3,0l1.7,0
	c1.2,0,2.3,0,3.5,0c0.5,0,1.1,0.2,1.2,1.1c0.2,1.2,0.3,2.5,0.5,3.7l0.2,1.4c0,0.2,0,0.3,0,0.5l0,0.7h-6.5L11.4,22.7z M20.3,38.8
	l-0.9,0c-0.3,0-0.6,0-0.9,0c-0.6,0-1.2,0-1.8,0c-0.5,0-1.1-0.5-1.2-1c-0.3-1.1-0.6-2.2-0.9-3.3v0l-0.8-3.1l3,0c0.8,0,1.6,0,2.4,0
	c0.8,0,1.1,0.5,1.1,0.9c0.2,1.2,0.3,2.4,0.5,3.6l0.2,1.4c0,0,0.1,0.4,0.1,0.8C21,38.8,20.3,38.8,20.3,38.8z M27.7,38.8h-5.2l-1-7.3
	h6.2V38.8z M27.7,30.1h-6.4l-1-7.4h7.4V30.1z M34.8,35.8c-0.1,0.7-0.2,1.4-0.3,2.1c-0.1,0.3-0.4,0.9-1,0.9c-1.2,0-2.5,0-3.7,0h-0.7
	v-7.4h6.2L34.8,35.8z M34.5,30.1c-0.9,0-1.9,0-2.8,0l-1.4,0c-0.1,0-0.2,0-0.3,0L29.1,30v-7.3h7.4l-0.1,0.8c-0.1,1-0.3,2-0.4,3
	l-0.1,0.7c-0.1,0.6-0.2,1.3-0.2,1.9C35.6,29.7,35.2,30.1,34.5,30.1z M41.1,37.6c-0.3,1.1-1.1,1.2-1.4,1.2h-4l1-7.4h5.8L41.1,37.6z
	 M44.4,23.6l-1.1,4.8c0,0.1,0,0.2,0,0.3c-0.1,0.4-0.1,0.9-0.5,1.2c-0.3,0.2-0.6,0.3-0.9,0.3c-0.1,0-0.3,0-0.4,0c-0.1,0-0.2,0-0.3,0
	h-4.2l0.2-1.5c0.1-0.6,0.1-1.1,0.2-1.7c0.1-1.1,0.3-2.1,0.4-3.2c0-0.3,0.4-1,0.9-1c1.7,0,3.3,0,5,0c0,0,0.4,0,0.6,0.2
	C44.5,23.3,44.4,23.6,44.4,23.6z"/>
</svg>
