<?xml version="1.0" encoding="utf-8"?>
<!-- Generator: Adobe Illustrator 27.0.1, SVG Export Plug-In . SVG Version: 6.00 Build 0)  -->
<svg version="1.1" id="Layer_1" xmlns="http://www.w3.org/2000/svg" xmlns:xlink="http://www.w3.org/1999/xlink" x="0px" y="0px"
	 viewBox="0 0 63 63" style="enable-background:new 0 0 63 63;" xml:space="preserve">
<style type="text/css">
	.st0{clip-path:url(#SVGID_00000114063216948442816230000005609889755620690834_);fill:#5A5A5A;}
</style>
<g>
	<defs>
		<rect id="SVGID_1_" y="10" width="50" height="42"/>
	</defs>
	<clipPath id="SVGID_00000165932494166142826090000013873987619703898791_">
		<use xlink:href="#SVGID_1_"  style="overflow:visible;"/>
	</clipPath>
	<path style="clip-path:url(#SVGID_00000165932494166142826090000013873987619703898791_);fill:#5A5A5A;" d="M44,25.1l1.3-0.6
		c1-0.5,2-1,3.1-1.4c0.4-0.2,0.5-0.3,0.5-0.6c0-0.3-0.2-0.4-0.5-0.6c-0.1,0-0.1-0.1-0.2-0.1l-7.5-3.5c-5.1-2.4-10.1-4.8-15.2-7.2
		c-0.3-0.2-0.6-0.2-0.9,0l-6.5,3.1C12.7,16.7,7.4,19.3,2,21.8c-0.2,0.1-0.4,0.2-0.6,0.4c0,0-0.1,0.1-0.1,0.1v0.4l0.1,0.1
		C1.6,22.9,1.8,23,2,23.1c0.3,0.2,0.7,0.3,1,0.5c0.2,0.1,0.3,0.1,0.5,0.2l0.5,0.2c1.8,0.9,3.7,1.7,5.5,2.6l0.1,0.1v0.7
		c0,0.7,0,1.4,0,2.1c0,1.6,0,3.3,0,4.9c0,0.9,0.2,1.7,0.8,2.5c0.7,1,1.6,1.9,2.9,2.7c2.8,1.8,6,2.9,9.8,3.2
		c3.7,0.3,7.2-0.2,10.6-1.5c0.4-0.2,0.9-0.4,1.3-0.6l0.9-0.4v0.4c0,0.2,0,0.3,0,0.5c0,0.3,0,0.5,0,0.8c0,0.4-0.2,0.6-0.4,0.7
		c-0.5,0.3-0.9,0.8-1,1.3c-0.1,0.6,0,1.2,0.4,1.7C35,46,35,46.3,35,46.6c0,0.7-0.1,1.4-0.2,2.1c0,0.6-0.1,1.1-0.1,1.7
		c0,0.3,0,0.5,0.1,0.6c0.1,0.1,0.3,0.1,0.6,0.1h1.7c0.4,0,0.6,0,0.7-0.1c0.1-0.1,0.1-0.3,0.1-0.7c0-0.5-0.1-1.1-0.1-1.6
		c-0.1-0.7-0.1-1.3-0.2-2c0-0.3,0.1-0.6,0.3-0.8c0.4-0.5,0.5-1.1,0.4-1.7c-0.1-0.3-0.2-0.7-0.7-1c-0.8-0.5-0.9-1.2-0.8-1.9
		c0-0.1,0-0.3,0-0.4c0-0.2,0-0.4,0-0.6c0-0.2,0.2-0.5,0.4-0.7c0.3-0.3,0.6-0.5,0.9-0.8c0.5-0.4,1-0.8,1.4-1.3
		c0.8-0.8,1.1-1.8,1.1-3.1c0-1.4,0-2.8,0-4.2c0-0.9,0-1.8,0-2.7c0-0.4,0.2-0.7,0.5-0.9C42.1,26,43.1,25.6,44,25.1z M35.9,38.5
		c0,0.4-0.1,0.7-0.5,0.9c-2.4,1.3-5,2.1-7.7,2.4c-0.9,0.1-1.8,0.2-2.7,0.2c-3.6,0-7-0.9-10.2-2.6c-1.5-0.8-2.6-1.8-3.5-2.8
		c-0.5-0.7-0.8-1.4-0.8-2.3c0-1.4,0-2.9,0-4.3l0-2.7l3.4,1.6c3.5,1.6,7,3.3,10.5,5l0.2,0.1c0.3,0.1,0.5,0.1,0.9,0
		c2.4-1.1,4.7-2.3,7.1-3.4l2.3-1.1c0.1,0,0.2-0.1,0.3-0.1c0.1,0,0.2-0.1,0.3-0.1l0.1,0h0.2l0,3.6C35.9,34.7,35.9,36.6,35.9,38.5z
		 M35.8,50.1l0.3-3.3h0.6l0.3,3.3H35.8z M37,43.8c0.2,0.2,0.3,0.5,0.3,0.7c0,0.5-0.5,1-1,1c-0.5,0-1-0.4-1-1c0-0.3,0.1-0.5,0.3-0.7
		c0.2-0.2,0.4-0.3,0.7-0.3C36.6,43.5,36.8,43.6,37,43.8z M38.7,36.6c-0.3,0.4-0.6,0.7-1,1l-0.5,0.5l-0.4-0.3l0-6.5
		c0-0.8,0-1.6,0-2.4c0-0.3,0.1-0.6,0.5-0.8c0.5-0.2,0.9-0.4,1.4-0.6l0.9-0.4v0.9c0,0.6,0,1.2,0,1.8c0,1.4,0,2.8,0,4.2
		C39.6,35.1,39.3,35.9,38.7,36.6z M37.3,27.2c-0.4,0.2-0.8,0.2-1.3,0c-3.4-1.7-6.8-3.4-10.2-5.1L25.7,22c0,0-0.1,0-0.1-0.1
		c-0.1,0-0.1-0.1-0.2-0.1c-0.3-0.1-0.6,0-0.7,0.2c-0.1,0.3,0,0.6,0.3,0.7c0.6,0.3,1.2,0.6,1.8,0.9c0.4,0.2,0.8,0.4,1.2,0.6l6.8,3.4
		c0.1,0,0.1,0.1,0.2,0.1c0,0,0.1,0.1,0.1,0.1l0.4,0.2l-3.2,1.5c-1.2,0.5-2.3,1.1-3.4,1.6l-0.6,0.3c-0.9,0.4-1.7,0.8-2.6,1.2
		c-0.1,0.1-0.3,0.1-0.4,0.1c-0.1,0-0.3,0-0.4-0.1C18.8,30,12.9,27.2,7,24.4l-3.3-1.6c-0.1,0-0.1-0.1-0.2-0.1l-0.2-0.2l-0.1-0.2
		l3-1.4c1.3-0.6,2.5-1.2,3.8-1.8c4.8-2.3,9.7-4.6,14.5-6.9c0.2-0.1,0.6-0.1,0.8,0c6.9,3.3,13.9,6.6,20.8,9.8c0.1,0,0.1,0.1,0.2,0.1
		c0.1,0,0.1,0.1,0.2,0.1l0.5,0.2l-0.5,0.2c-0.5,0.3-1.1,0.5-1.6,0.8l-2.7,1.3C40.7,25.6,39,26.4,37.3,27.2z"/>
</g>
</svg>
