<?xml version="1.0" encoding="utf-8"?>
<!-- Generator: Adobe Illustrator 27.4.0, SVG Export Plug-In . SVG Version: 6.00 Build 0)  -->
<svg version="1.1" id="Layer_1" xmlns="http://www.w3.org/2000/svg" xmlns:xlink="http://www.w3.org/1999/xlink" x="0px" y="0px"
	 viewBox="0 0 50 43" style="enable-background:new 0 0 50 43;" xml:space="preserve">
<style type="text/css">
	.st0{clip-path:url(#SVGID_00000149369949914674312680000008535458026479431345_);fill:#FFFFFF;}
</style>
<g>
	<defs>
		<rect id="SVGID_1_" y="0.5" width="50" height="42"/>
	</defs>
	<clipPath id="SVGID_00000085249355639357849150000009956819414207299515_">
		<use xlink:href="#SVGID_1_"  style="overflow:visible;"/>
	</clipPath>
	<path style="clip-path:url(#SVGID_00000085249355639357849150000009956819414207299515_);fill:#FFFFFF;" d="M44,15.6l1.3-0.6
		c1-0.5,2-1,3.1-1.4c0.4-0.2,0.5-0.3,0.5-0.6c0-0.3-0.2-0.4-0.5-0.6c-0.1,0-0.1-0.1-0.2-0.1l-7.5-3.5C35.7,6.4,30.6,4,25.6,1.6
		c-0.3-0.2-0.6-0.2-0.9,0l-6.5,3.1C12.7,7.2,1.1,12.9,1,12.9c0,0,1.6,1,2,1.2c0.2,0.1,0.3,0.1,0.5,0.2l0.5,0.2
		c1.8,0.9,3.7,1.7,5.5,2.6l0.1,0.1v0.7c0,0.7,0,1.4,0,2.1c0,1.6,0,3.3,0,4.9c0,0.9,0.2,1.7,0.8,2.5c0.7,1,1.6,1.9,2.9,2.7
		c2.8,1.8,6,2.9,9.8,3.2c3.7,0.3,7.2-0.2,10.6-1.5c0.4-0.2,0.9-0.4,1.3-0.6l0.9-0.4v0.4c0,0.2,0,0.3,0,0.5c0,0.3,0,0.5,0,0.8
		c0,0.4-0.2,0.6-0.4,0.7c-0.5,0.3-0.9,0.8-1,1.3c-0.1,0.6,0,1.2,0.4,1.7c0.2,0.2,0.2,0.5,0.2,0.8c0,0.7-0.1,1.4-0.2,2.1
		c0,0.6-0.1,1.1-0.1,1.7c0,0.3,0,0.5,0.1,0.6c0.1,0.1,0.3,0.1,0.6,0.1h1.7c0.4,0,0.6,0,0.7-0.1c0.1-0.1,0.1-0.3,0.1-0.7
		c0-0.5-0.1-1.1-0.1-1.6c-0.1-0.7-0.1-1.3-0.2-2c0-0.3,0.1-0.6,0.3-0.8c0.4-0.5,0.5-1.1,0.4-1.7c-0.1-0.3-0.2-0.7-0.7-1
		c-0.8-0.5-0.9-1.2-0.8-1.9c0-0.1,0-0.3,0-0.4c0-0.2,0-0.4,0-0.6c0-0.2,0.2-0.5,0.4-0.7c0.3-0.3,0.6-0.5,0.9-0.8
		c0.5-0.4,1-0.8,1.4-1.3c0.8-0.8,1.1-1.8,1.1-3.1c0-1.4,0-2.8,0-4.2c0-0.9,0-1.8,0-2.7c0-0.4,0.2-0.7,0.5-0.9
		C42.1,16.5,43.1,16.1,44,15.6z M35.9,29c0,0.4-0.1,0.7-0.5,0.9c-2.4,1.3-5,2.1-7.7,2.4c-0.9,0.1-1.8,0.2-2.7,0.2
		c-3.6,0-7-0.9-10.2-2.6c-1.5-0.8-2.6-1.8-3.5-2.8c-0.5-0.7-0.8-1.4-0.8-2.3c0-1.4,0-2.9,0-4.3l0-2.7l3.4,1.6c3.5,1.6,7,3.3,10.5,5
		l0.2,0.1c0.3,0.1,0.5,0.1,0.9,0c2.3-1.1,4.6-2.2,6.9-3.3l2.5-1.2c0.1,0,0.2-0.1,0.3-0.1c0.1,0,0.2-0.1,0.3-0.1l0.1,0h0.2l0,3.6
		C35.9,25.1,35.9,27.1,35.9,29z M35.8,40.5l0.3-3.3h0.6l0.3,3.3H35.8z M37,34.3c0.2,0.2,0.3,0.5,0.3,0.7c0,0.5-0.5,1-1,1
		c-0.5,0-1-0.4-1-1c0-0.3,0.1-0.5,0.3-0.7c0.2-0.2,0.4-0.3,0.7-0.3C36.6,34,36.8,34.1,37,34.3z M38.7,27.1c-0.3,0.4-0.6,0.7-1,1
		l-0.9,1l0-0.8l0-6.5c0-0.8,0-1.6,0-2.4c0-0.3,0.1-0.6,0.5-0.8c0.5-0.2,0.9-0.4,1.4-0.6l0.9-0.4v0.9c0,0.6,0,1.2,0,1.8
		c0,1.4,0,2.8,0,4.2C39.6,25.6,39.3,26.4,38.7,27.1z M37.3,17.7c-0.4,0.2-0.8,0.2-1.3,0c-3.4-1.7-6.9-3.5-10.3-5.2
		c0,0-0.1,0-0.1-0.1c-0.1,0-0.1-0.1-0.2-0.1c-0.3-0.1-0.6,0-0.7,0.2c-0.1,0.3,0,0.6,0.3,0.7c0.6,0.3,1.2,0.6,1.8,0.9
		c0.4,0.2,0.8,0.4,1.2,0.6l6.8,3.4c0.1,0,0.1,0.1,0.2,0.1c0,0,0.1,0.1,0.1,0.1l0.4,0.2L28.1,22c-0.9,0.4-1.7,0.8-2.6,1.2
		c-0.1,0.1-0.3,0.1-0.4,0.1c-0.1,0-0.3,0-0.4-0.1c-6-2.8-11.9-5.6-17.9-8.4L3.1,13l3.2-1.6c1.3-0.6,2.5-1.2,3.8-1.8
		C15,7.3,19.8,5,24.6,2.7c0.2-0.1,0.6-0.1,0.8,0c6.9,3.3,13.9,6.6,20.8,9.8c0.1,0,0.1,0.1,0.2,0.1c0.1,0,0.1,0.1,0.2,0.1l0.5,0.2
		l-0.5,0.2c-0.5,0.3-1.1,0.5-1.6,0.8l-2.7,1.3C40.7,16,39,16.9,37.3,17.7z"/>
</g>
</svg>
