<svg width="231" height="127" viewBox="0 0 231 127" fill="none" xmlns="http://www.w3.org/2000/svg">
<g clip-path="url(#clip0_518_2100)">
<g clip-path="url(#clip1_518_2100)">
<path d="M178.471 87.6352C178.308 87.7279 178.145 87.8207 177.868 87.9779C177.788 87.4496 177.725 87.0321 177.663 86.6161C177.616 86.6011 177.57 86.5846 177.525 86.5697C177.297 87.0231 177.069 87.478 176.811 87.9898C176.04 87.6367 176.226 86.7897 175.642 86.2539C175.62 86.6146 175.621 86.8854 175.583 87.1488C175.545 87.4047 175.469 87.6561 175.295 87.8985C174.725 87.065 175.202 86.1013 174.843 85.1824C174.513 85.2303 174.182 85.2767 173.857 85.3231C173.516 86.1821 173.953 87.1159 173.564 87.909C173.459 87.9105 173.353 87.912 173.248 87.9135C173.206 87.5095 173.148 87.1054 173.127 86.6999C173.106 86.2823 173.122 85.8618 173.122 85.4398C172.787 85.3156 172.522 85.2169 172.096 85.0582C172.325 84.8757 172.449 84.6901 172.581 84.6871C173.224 84.6676 173.871 84.6931 174.514 84.714C174.608 84.717 174.724 84.8367 174.788 84.8098C175.996 84.301 176.066 85.2707 176.337 85.986C176.419 86.203 176.515 86.4155 176.605 86.6295L176.808 86.6325C176.965 86.2075 177.128 85.784 177.28 85.3575C177.553 84.5913 177.752 84.521 178.471 84.9475V87.6367V87.6352Z" fill="#CECECE"/>
<path d="M142.857 66.9307C144.997 65.8936 147.055 65.0152 149.31 64.7368C149.775 64.68 150.259 64.656 150.723 64.7099C152.732 64.9418 153.407 66.2034 152.752 68.059C152.363 69.1619 151.64 70.1631 150.975 71.1477C150 72.5889 148.94 73.9746 147.918 75.3843C147.788 75.5639 147.671 75.7509 147.505 75.9978C148.182 77.2085 148.888 78.4042 149.528 79.6328C150.318 81.1502 151.076 82.6841 151.797 84.236C151.978 84.6265 152.013 85.1039 152.038 85.5469C152.138 87.2753 151.095 88.3782 149.349 88.4141C147.381 88.4545 145.661 87.6584 143.991 86.7575C143.053 86.2502 142.182 85.6202 141.284 85.0381C140.995 84.851 140.72 84.6445 140.353 84.3871C140.047 84.6684 139.761 84.9273 139.478 85.1907C138.198 86.3759 136.914 87.5567 135.271 88.2375C133.746 88.8691 132.47 88.468 131.614 87.0538C130.548 85.297 130.279 83.3261 130.167 81.3253C129.838 75.4965 130.495 69.753 131.765 64.0769C132.049 62.8079 132.53 61.5418 133.151 60.3985C134.278 58.3199 136.178 58.0506 137.901 59.6742C138.707 60.4344 139.42 61.3263 140.038 62.2497C140.907 63.5501 141.648 64.9359 142.447 66.2842C142.57 66.4907 142.704 66.6897 142.86 66.9307H142.857ZM138.809 83.0029C138.553 82.723 138.39 82.5405 138.222 82.3609C137.112 81.1727 136.136 79.8917 135.497 78.3802C134.534 76.1026 134.734 73.9821 136.299 72.0097C137.428 70.5881 138.813 69.4717 140.295 68.4541C140.533 68.291 140.757 68.1099 141.064 67.8794C140.292 66.558 139.602 65.2636 138.802 64.044C138.151 63.0518 137.42 62.0985 136.62 61.2216C135.864 60.3925 135.283 60.4973 134.783 61.5209C134.382 62.341 134.013 63.2104 133.835 64.0993C133.338 66.582 132.865 69.0751 132.534 71.5832C132.034 75.3843 131.753 79.2093 132.362 83.0253C132.524 84.0354 132.937 85.0171 133.329 85.9734C133.537 86.4792 133.996 86.6543 134.574 86.3729C136.214 85.5753 137.48 84.3317 138.813 83.0014L138.809 83.0029ZM145.123 75.7764C144.054 73.7217 143.053 71.7942 142.067 69.8967C141.868 69.9251 141.783 69.9132 141.726 69.9491C139.985 71.0445 138.362 72.2821 137.36 74.1257C137.067 74.6645 136.852 75.3723 136.925 75.9619C137.208 78.2485 138.634 79.9007 140.27 81.5812C141.916 79.6133 143.502 77.7143 145.123 75.7764V75.7764ZM141.778 82.8981C143.924 84.5023 146.052 85.8941 148.645 86.361C149.876 86.5824 150.281 86.1769 149.926 85.0037C149.136 82.3848 147.505 80.2029 146.083 77.8146C144.665 79.4906 143.263 81.1457 141.778 82.8981ZM146.386 73.8264C146.583 73.7022 146.666 73.6783 146.704 73.6229C148.041 71.7119 149.383 69.8054 150.696 67.8794C150.875 67.6161 150.908 67.2539 151.002 66.9576C149.756 66.3051 144.834 67.7058 143.852 68.9479C144.68 70.5402 145.519 72.1579 146.386 73.8279V73.8264Z" fill="#CECECE"/>
<path d="M122.119 34.8171C123.251 34.7363 124.265 34.5731 125.269 34.6091C127.826 34.7018 130.047 35.5743 131.569 37.7487C132.733 39.4113 132.917 41.3058 132.66 43.2527C132.196 46.768 130.447 49.6053 127.883 51.9697C125.002 54.6245 121.575 56.0416 117.662 56.0746C115.182 56.0955 112.737 55.7034 110.599 54.2863C107.811 52.4366 106.83 49.3554 108.085 46.2502C108.384 45.5094 108.361 44.9018 108.147 44.1357C106.658 38.8037 107.321 33.8069 110.904 29.4507C112.938 26.9785 115.688 25.9774 118.892 26.3305C119.408 26.3874 119.934 26.4592 120.426 26.6179C122.719 27.3586 123.763 29.1319 123.247 31.4859C123.051 32.3778 122.686 33.2323 122.392 34.1033C122.319 34.3217 122.226 34.5342 122.116 34.8156L122.119 34.8171ZM109.82 47.4578C109.749 47.6509 109.686 47.7796 109.654 47.9158C109.19 49.951 110.148 51.9338 112.156 52.9125C115.039 54.3162 118.047 54.5317 121.085 53.5306C126.051 51.8934 129.537 48.8136 130.677 43.4847C131.476 39.748 129.206 36.752 125.384 36.556C123.646 36.4677 122.039 36.9331 120.471 37.6095C119.655 37.9612 119.076 37.9432 118.765 37.4958C118.35 36.9002 118.741 36.4318 119.063 35.9469C120.085 34.4085 121.052 32.8387 121.346 30.9711C121.559 29.6333 121.02 28.8207 119.726 28.4555C116.815 27.6355 113.728 28.7503 111.895 31.3063C109.71 34.3517 109.095 37.7831 109.478 41.4405C109.533 41.9673 109.702 42.4835 109.852 43.1495C110.151 42.8921 110.328 42.7334 110.513 42.5838C111.209 42.0226 111.862 41.3941 112.614 40.9212C114.635 39.6507 116.802 38.8112 119.251 39.1988C121.14 39.4966 122.538 40.5157 123.169 42.3504C123.784 44.1357 123.281 45.7294 122.047 47.1136C120.817 48.4919 119.199 49.1893 117.453 49.5813C114.775 50.1844 112.303 49.8357 110.275 47.7826C110.162 47.6673 110.01 47.5895 109.825 47.4563L109.82 47.4578ZM110.648 45.2101C111.191 45.8222 111.535 46.313 111.977 46.6901C113.746 48.2016 115.756 48.1238 117.816 47.4548C118.989 47.0732 120.058 46.4986 120.832 45.493C121.932 44.0638 121.427 42.0855 119.783 41.3791C118.91 41.0035 118.005 40.9362 117.081 41.1517C115.636 41.4899 114.283 42.0645 113.111 42.9669C112.279 43.6089 111.547 44.3826 110.648 45.2116V45.2101Z" fill="#CECECE"/>
<path d="M64.5385 34.9743C64.2272 34.0479 63.9354 33.2937 63.7214 32.5156C63.3638 31.2166 63.1004 29.9027 63.3593 28.5424C63.8142 26.142 65.3451 24.7638 67.6123 24.1368C71.3954 23.0907 74.5575 24.2445 76.8097 27.5951C79.0933 30.9906 79.9419 34.7348 79.3118 38.8157C78.9841 40.9362 78.3541 42.9206 77.1853 44.7493C77.3649 45.2446 77.5684 45.725 77.7166 46.2218C78.8898 50.1381 76.9339 53.3645 73.3573 54.9089C69.8675 56.4143 66.2595 56.4682 62.602 55.6287C60.4351 55.1319 58.4283 54.2819 56.7448 52.8078C54.1633 50.5496 53.2699 47.5671 53.4615 44.2764C53.65 41.0634 55.2229 38.4985 57.8058 36.6114C59.428 35.4262 61.357 35.1149 63.3293 35.0581C63.669 35.0476 64.0072 35.0132 64.54 34.9773L64.5385 34.9743ZM75.8714 46.6842C75.629 46.7231 75.5482 46.7186 75.4853 46.7516C75.3761 46.8084 75.2743 46.8833 75.1755 46.9581C72.3921 49.0606 69.3317 49.4482 66.0664 48.3663C64.0671 47.7048 62.822 46.0243 62.7966 44.0893C62.7711 42.2023 63.8501 40.7402 65.8614 39.9366C69.1791 38.6107 72.9458 39.5251 75.3925 42.2472C75.5527 42.4252 75.7173 42.6003 75.9597 42.8637C76.1557 42.5958 76.3233 42.4252 76.4221 42.2217C77.3559 40.2793 77.7226 38.1962 77.6896 36.0742C77.6522 33.6499 76.9219 31.3857 75.7083 29.2787C74.0592 26.4174 71.6842 25.1993 68.6583 25.7784C67.1828 26.0612 65.9168 26.7406 65.3586 28.2641C64.968 29.331 65.0204 30.4534 65.3735 31.4935C65.827 32.8283 66.4705 34.0988 66.9912 35.4142C67.1244 35.7509 67.2262 36.1939 67.1184 36.5112C66.9568 36.9855 66.4675 37.0424 65.9826 37.0005C65.167 36.9302 64.3454 36.8344 63.5299 36.8583C60.896 36.9347 58.6917 37.7981 57.0007 40.0024C54.087 43.8005 54.94 50.0767 59.642 52.5594C61.7131 53.6533 63.898 54.213 66.2116 54.3088C68.6045 54.4076 70.936 54.1068 73.0864 52.959C74.7221 52.0865 75.9193 50.8534 76.1887 48.9274C76.2964 48.1598 76.1857 47.4205 75.8744 46.6857L75.8714 46.6842ZM74.767 44.6969C74.7131 44.5248 74.7056 44.4156 74.6503 44.3407C72.7737 41.7369 69.8495 40.3945 66.5573 41.6396C65.4693 42.0511 64.6747 42.8203 64.6567 44.0654C64.6403 45.2072 65.3391 45.9599 66.3178 46.4223C68.2438 47.3322 70.2207 47.2753 72.1811 46.551C73.1867 46.1799 74.0966 45.6247 74.7655 44.6969H74.767Z" fill="#CECECE"/>
<path d="M154.074 53.9262C153.563 54.2989 153.048 54.7254 152.484 55.074C150.918 56.0393 149.268 56.147 147.544 55.5155C147.243 55.4048 146.84 55.3464 146.555 55.4527C143.397 56.6259 140.443 56.1695 137.644 54.4051C134.47 52.4058 133.4 49.3994 133.676 45.8243C133.902 42.8927 135.114 40.3562 137.142 38.2416C138.818 36.4937 140.896 35.3729 143.243 34.8162C146.303 34.0904 149.372 34.1233 152.376 35.1035C155.915 36.2588 158.223 38.71 159.387 42.2043C160.589 45.8093 160.622 49.4817 159.737 53.163C159.611 53.6838 159.36 54.1956 159.073 54.652C158.365 55.7819 157.111 56.1006 155.961 55.4018C155.294 54.9962 154.719 54.438 154.074 53.9262V53.9262ZM157.304 53.829C157.518 53.3097 157.799 52.8398 157.905 52.334C158.555 49.2408 158.574 46.149 157.615 43.1142C156.72 40.2828 154.972 38.1818 152.118 37.1268C149.702 36.2349 147.215 36.0927 144.696 36.5461C141.038 37.2061 138.242 39.0946 136.609 42.4871C135.527 44.7364 135.219 47.0918 136.039 49.5161C137.068 52.5585 141.142 54.5817 144.248 54.0445C144.449 54.01 144.638 53.9038 144.911 53.802C144.462 53.2289 144.058 52.762 143.708 52.2592C141.884 49.6403 141.013 46.8479 142.143 43.6813C142.903 41.5504 144.825 40.0239 146.908 39.9536C148.862 39.8878 150.673 41.1613 151.563 43.2264C152.907 46.3406 152.113 50.7462 149.77 53.2049C149.615 53.3681 149.488 53.5566 149.347 53.7332L149.465 53.9517C149.935 53.8589 150.477 53.8828 150.861 53.6479C151.637 53.175 152.382 52.6213 153.039 51.9958C154.155 50.9333 154.513 50.9318 155.42 52.1873C155.884 52.8293 156.357 53.4698 157.301 53.829H157.304ZM147.001 52.9431C147.315 52.7276 147.493 52.6318 147.638 52.5016C149.91 50.4439 150.6 47.876 150.04 44.9264C149.865 44.0016 149.438 43.1875 148.69 42.5829C147.922 41.9634 147.086 41.7254 146.122 42.125C144.491 42.7999 143.918 44.1931 143.675 45.7719C143.346 47.9269 144.317 49.6912 145.528 51.3418C145.945 51.9105 146.484 52.3894 147.002 52.9446L147.001 52.9431Z" fill="#CECECE"/>
<path d="M69.5236 80.398C69.5386 80.7048 69.5401 80.9442 69.561 81.1807C69.6972 82.731 69.6269 84.2634 69.13 85.7524C68.31 88.2126 66.4274 88.8352 64.3413 88.2276C59.4148 86.791 56.6059 83.3865 55.7499 78.3538C55.3279 75.8667 55.6617 73.4933 56.9172 71.283C57.1851 70.8101 57.0324 70.4599 56.787 70.0469C55.0646 67.1482 55.2666 63.8215 57.3422 61.4212C58.514 60.0668 60.0509 59.2438 61.7389 58.7155C64.8097 57.7533 67.9583 57.5034 71.1009 58.1498C76.0468 59.166 79.794 61.8536 81.4147 66.7606C83.3153 72.5146 80.7742 78.1024 74.4351 79.7081C73.0972 80.0478 71.6861 80.1032 70.3093 80.2903C70.0713 80.3232 69.8349 80.3561 69.5221 80.3995L69.5236 80.398ZM58.3568 69.2013C58.6382 69.0622 58.7609 69.0263 58.8552 68.9529C60.4594 67.7109 62.2791 67.0689 64.3024 66.9611C66.0114 66.8698 67.6829 66.9955 69.2737 67.6869C72.1155 68.9215 72.7216 72.2183 70.4814 74.3552C68.7799 75.9774 66.6863 76.1181 64.5433 75.6841C62.4542 75.2606 60.6704 74.1622 59.0542 72.7899C58.8761 72.6388 58.6696 72.519 58.4137 72.341C58.2476 72.5999 58.1009 72.7675 58.0186 72.962C57.4784 74.2385 57.1626 75.5734 57.2734 76.9591C57.4574 79.2667 58.1892 81.3932 59.6737 83.2009C61.1553 85.0042 63.0004 86.2522 65.3424 86.6683C66.2239 86.8239 66.8614 86.4243 67.2609 85.6911C67.4944 85.2646 67.7009 84.7632 67.7159 84.2889C67.7638 82.8029 67.7233 81.3154 67.7024 79.8279C67.6874 78.7803 68.1214 78.3329 69.1405 78.4511C71.1039 78.6786 73.0119 78.4406 74.8661 77.7896C78.8497 76.3919 80.9014 72.8947 80.1831 68.8048C79.378 64.2241 75.8433 61.1802 71.4945 60.0219C69.3201 59.4428 67.1113 59.4039 64.9025 59.7481C62.9974 60.0459 61.1598 60.5562 59.575 61.7444C57.5831 63.2364 56.8603 65.5859 57.7283 67.9174C57.8869 68.3424 58.1249 68.7374 58.3553 69.2043L58.3568 69.2013ZM59.569 70.7547C59.7426 70.9642 59.8488 71.1273 59.988 71.2545C61.1583 72.323 62.4737 73.17 63.9537 73.7342C65.4996 74.3223 67.0634 74.463 68.5614 73.586C69.4578 73.0608 70.1536 72.341 70.1073 71.2156C70.0654 70.1875 69.3396 69.6174 68.4851 69.2612C66.399 68.3903 64.2695 68.4277 62.1444 69.1295C61.1942 69.4438 60.3202 69.8987 59.569 70.7547V70.7547Z" fill="#CECECE"/>
<path d="M102.191 86.3013C101.971 86.4943 101.775 86.6784 101.565 86.849C99.7891 88.2991 97.8422 88.7615 95.6378 87.922C95.3295 87.8052 94.8986 87.8232 94.5828 87.9369C90.5887 89.3915 86.2249 87.9758 83.6764 84.9694C82.7231 83.8455 82.1799 82.5047 81.9809 81.0426C81.0815 74.4237 85.4288 68.4722 92.0298 67.2286C94.9779 66.6734 97.8811 66.7498 100.724 67.7285C104.237 68.9361 106.442 71.4427 107.55 74.919C108.645 78.3639 108.668 81.8747 107.879 85.3869C107.746 85.981 107.492 86.5766 107.17 87.0959C106.463 88.2392 105.206 88.5295 104.06 87.8067C103.418 87.4012 102.867 86.8535 102.189 86.3013H102.191ZM93.0265 86.4584L93.0773 86.207C92.8978 85.9765 92.7002 85.758 92.5401 85.5156C91.94 84.6043 91.2651 83.7288 90.7757 82.7606C89.4708 80.1866 89.4588 77.5723 90.9194 75.0552C91.9535 73.2714 93.5502 72.366 95.6543 72.5681C97.5473 72.7491 98.7939 73.858 99.5556 75.5296C101.007 78.7141 100.268 83.0734 97.8826 85.6473C97.7135 85.8299 97.5848 86.0484 97.3274 86.4C97.8092 86.4 98.0981 86.4389 98.3734 86.394C99.5481 86.201 100.362 85.4348 101.152 84.6237C102.297 83.449 102.559 83.4879 103.568 84.7719C104.048 85.3839 104.528 86.0274 105.459 86.3851C105.694 85.8389 105.985 85.3734 106.095 84.8676C106.779 81.731 106.794 78.5959 105.794 75.5191C104.868 72.6683 103.089 70.5748 100.201 69.5287C97.8496 68.6772 95.4433 68.5755 92.992 68.9391C88.3065 69.635 84.7479 72.9302 83.8485 77.5693C82.7082 83.4595 86.9761 86.4838 91.3788 86.6784C91.9235 86.7023 92.4772 86.5362 93.0265 86.4584V86.4584ZM95.1066 85.4962C95.4014 85.3301 95.4957 85.2926 95.5705 85.2328C98.0681 83.232 98.8209 80.3468 98.2148 77.4122C98.0532 76.628 97.5773 75.8424 97.055 75.2168C96.2798 74.289 95.1964 74.1289 94.1458 74.6003C92.6538 75.2707 92.0298 76.5607 91.7859 78.0751C91.4402 80.2151 92.2737 82.0258 93.4949 83.6869C93.9692 84.3319 94.5604 84.8886 95.1066 85.4947V85.4962Z" fill="#CECECE"/>
<path d="M92.776 56.0056C90.4789 56.0595 88.1668 55.6345 85.9894 54.6169C82.6223 53.0426 80.6545 50.3699 80.0603 46.7274C79.366 42.4729 80.5168 38.8365 83.9497 36.086C85.343 34.9696 86.9397 34.3381 88.7849 34.4503C90.3128 34.5446 91.3813 35.5577 91.5025 37.0871C91.6312 38.7123 91.1927 40.2387 90.7438 41.7696C90.4789 42.6735 90.1871 43.5818 90.0449 44.5097C89.801 46.0914 90.5238 47.3081 91.95 47.9411C93.2983 48.5397 95.1794 48.1715 96.0788 47.1225C96.6893 46.4102 96.8554 45.5422 96.6983 44.6683C96.4798 43.4486 96.1147 42.256 95.8513 41.0438C95.6672 40.1968 95.4547 39.3393 95.4218 38.4818C95.3545 36.6726 96.601 35.3287 98.4058 35.0878C100.013 34.8738 101.388 35.429 102.506 36.49C105.369 39.2106 106.319 42.6166 105.626 46.4341C104.694 51.57 99.7916 56.1612 93.4764 56.0071C93.2773 56.0026 93.0783 56.0071 92.7745 56.0071L92.776 56.0056ZM93.0544 54.0856C93.7712 54.0228 94.4925 53.9884 95.2048 53.8926C99.7033 53.288 103.398 49.5498 103.79 45.0454C104.034 42.2515 103.151 39.7883 101.002 37.8817C100.329 37.2846 99.5401 36.942 98.6003 37.1275C97.7414 37.2966 97.2685 37.8578 97.3957 38.7153C97.5049 39.4486 97.692 40.1758 97.9045 40.8882C98.3834 42.4909 98.7994 44.0951 98.6782 45.7951C98.6018 46.8576 98.2576 47.7854 97.5139 48.5487C96.0264 50.0751 94.1677 50.5075 92.1625 50.1035C89.4882 49.5648 87.9768 47.6523 88.0681 44.9332C88.1055 43.8093 88.4661 42.6959 88.6921 41.581C88.963 40.2462 89.3206 38.9233 89.5017 37.578C89.6109 36.7654 89.2174 36.4706 88.3838 36.4436C87.4246 36.4122 86.5641 36.7399 85.7889 37.2622C83.0399 39.1133 81.7514 41.7322 81.901 45.017C82.0597 48.5187 83.5756 51.2064 86.8155 52.7867C88.7864 53.7474 90.8874 54.0392 93.0544 54.0841V54.0856Z" fill="#CECECE"/>
<path d="M171.143 74.7147C171.555 75.8131 172.032 76.7799 172.282 77.8035C173.135 81.3082 171.598 85.0494 168.448 86.8512C164.667 89.0151 160.723 89.1543 156.819 87.1744C154.729 86.1149 153.389 84.3895 153.193 81.9637C153.07 80.4433 153.528 79.1159 154.697 78.0773C154.787 77.9965 154.854 77.8903 154.748 77.787C154.687 76.4342 154.461 75.0649 154.595 73.7315C154.954 70.1535 157.645 67.3386 161.219 66.6846C163.748 66.2207 166.243 66.4138 168.59 67.5211C170.409 68.3786 171.759 69.6731 171.974 71.822C172.086 72.9429 171.66 73.9141 171.146 74.7132L171.143 74.7147ZM169.526 76.2546C168.433 76.5195 167.507 76.8203 166.555 76.9565C165.158 77.1555 163.766 77.0837 162.512 76.307C161.394 75.6141 160.9 74.5426 161.157 73.4023C161.406 72.2994 162.37 71.5287 163.66 71.4015C165.559 71.216 167.233 71.8445 168.818 72.8097C169.081 72.9698 169.358 73.112 169.64 73.2691C170.054 72.699 170.142 72.1752 169.952 71.5826C169.626 70.568 168.933 69.8931 168.017 69.4157C166.281 68.5118 164.411 68.2933 162.501 68.4579C158.616 68.7947 156.084 71.8789 156.484 75.7353C156.526 76.1319 156.698 76.5165 156.773 76.7724C157.976 76.7724 159.023 76.6946 160.055 76.7903C161.551 76.931 162.937 77.4144 163.892 78.6774C164.551 79.5513 164.748 80.5405 164.273 81.5566C163.793 82.5877 162.901 83.0112 161.79 83.0292C159.745 83.0606 158.2 82.0235 156.8 80.6857C156.5 80.3999 156.231 80.0811 155.917 79.7459C155.189 80.331 155.077 81.0822 155.163 81.8574C155.375 83.8058 156.646 84.9581 158.302 85.7154C160.828 86.8691 163.435 86.8751 165.999 85.877C168.674 84.8339 170.319 82.899 170.551 79.9629C170.659 78.6011 170.356 77.3096 169.524 76.2546H169.526ZM158.003 78.8645C158.516 79.9524 160.605 81.2095 161.693 81.0598C161.973 81.0209 162.367 80.8234 162.449 80.6019C162.533 80.3774 162.371 79.9734 162.19 79.7519C161.439 78.836 159.197 78.3691 158.003 78.866V78.8645ZM167.757 74.5561C166.917 73.8797 165.273 73.2542 164.355 73.2961C163.845 73.3185 163.303 73.3649 163.071 73.947C163.633 75.1592 166.314 75.5153 167.757 74.5561V74.5561Z" fill="#CECECE"/>
<path d="M123.071 76.7006C123.233 77.2917 123.413 77.8559 123.538 78.432C124.107 81.006 123.933 83.4722 122.435 85.7364C120.28 88.9927 116.114 89.4566 113.266 86.7764C111.513 85.1258 110.51 83.0547 110.36 80.7247C110.205 78.3048 110.239 75.8386 110.526 73.4323C110.995 69.507 113.112 67.4105 117.033 66.7236C119.875 66.2268 122.736 66.2687 125.554 66.9436C126.221 67.1037 126.884 67.385 127.474 67.7367C129.197 68.7618 129.65 70.5755 128.647 72.3129C127.817 73.7541 126.552 74.7627 125.153 75.6052C124.517 75.9883 123.839 76.2996 123.073 76.7006H123.071ZM112.421 75.5364L112.256 75.6441C112.256 77.0807 112.187 78.5218 112.273 79.9525C112.385 81.8335 112.993 83.5635 114.296 84.9762C116.491 87.3541 119.472 86.9904 121.029 84.1666C122.233 81.9817 121.977 79.7609 121.162 77.5342C121.12 77.4219 121.027 77.3276 120.985 77.2648C117.901 77.5491 114.975 77.4698 112.419 75.5364H112.421ZM116.47 68.9129C116.455 68.9982 116.439 69.0835 116.424 69.1703C118.883 70.4753 120.728 72.4057 122.181 74.8061C123.897 74.1461 125.361 73.2632 126.498 71.8909C126.702 71.6455 126.874 71.3627 127.004 71.0724C127.311 70.387 127.214 69.9111 126.555 69.5519C125.91 69.2003 125.207 68.8965 124.493 68.7453C122.459 68.3158 120.393 68.3682 118.334 68.5433C117.708 68.5972 117.093 68.7857 116.473 68.9114L116.47 68.9129ZM120.086 75.3239C119.128 73.7466 118.054 72.5928 116.707 71.7233C116.114 71.3402 115.454 70.9841 114.775 70.8269C113.507 70.5336 112.735 71.4689 113.112 72.7305C113.385 73.6418 113.982 74.2808 114.836 74.6714C116.008 75.2056 117.256 75.3882 118.533 75.4017C118.99 75.4062 119.448 75.3583 120.087 75.3239H120.086Z" fill="#CECECE"/>
<path d="M168.579 37.3004C169.062 37.9558 169.498 38.4976 169.884 39.0737C171.629 41.6821 172.277 44.6152 172.372 47.6979C172.426 49.4428 172.414 51.1847 171.648 52.8189C170.901 54.4111 169.772 55.5829 167.997 55.945C165.584 56.4359 163.162 55.0516 162.144 52.7066C161.052 50.1896 161.27 47.5962 161.689 45.0043C162.135 42.2567 163.352 39.8653 165.234 37.8122C165.382 37.652 165.502 37.4665 165.667 37.251C165.182 36.6793 164.694 36.1541 164.262 35.5854C163.144 34.1114 162.834 32.4847 163.501 30.7368C164.287 28.6732 166.695 27.7079 168.993 28.4966C170.99 29.182 172.087 31.3803 171.494 33.4514C171.099 34.8312 170.162 35.8144 169.166 36.7631C168.99 36.9292 168.809 37.0894 168.579 37.2989V37.3004ZM167.275 38.6113C167.201 38.6861 167.126 38.7609 167.051 38.8358C167.006 38.8537 166.952 38.8642 166.916 38.8941C166.838 38.9555 166.764 39.0213 166.696 39.0947C163.804 42.2537 162.992 46.0473 163.413 50.1701C163.492 50.9558 163.851 51.7594 164.254 52.4537C165.141 53.9846 166.821 54.5398 168.208 53.8634C169.239 53.3606 169.793 52.4642 170.137 51.4152C170.604 49.989 170.542 48.524 170.444 47.0574C170.253 44.2725 169.534 41.6761 167.778 39.4359C167.582 39.1844 167.443 38.8881 167.278 38.6128L167.275 38.6113ZM167.175 35.8548C168.064 35.1799 168.802 34.493 169.33 33.6086C169.908 32.6388 169.797 31.4955 169.083 30.7877C168.386 30.0963 167.126 29.9407 166.238 30.436C165.296 30.9628 164.853 32.0432 165.165 33.1297C165.487 34.2491 166.238 35.0572 167.175 35.8533V35.8548Z" fill="#CECECE"/>
<path d="M87.6982 104.33C86.6761 104.597 86.0041 104.403 85.4834 103.548C84.7351 102.32 84.0871 101.031 83.3958 99.7683C83.2865 99.5678 83.1668 99.3732 83.0516 99.1757C82.9753 99.1922 82.8989 99.2101 82.8211 99.2266V104.276C81.8903 104.638 81.181 104.313 81.1675 103.49C81.1286 101.229 81.1615 98.9677 81.1705 96.705C81.1705 96.6362 81.2229 96.5688 81.2483 96.5075C82.2854 96.1513 83.3075 96.4536 83.8986 97.4293C84.5032 98.426 84.988 99.493 85.5298 100.527C85.6495 100.756 85.7857 100.977 85.9144 101.202C85.9712 101.185 86.0281 101.171 86.085 101.154V96.5449C86.9918 96.2216 87.6652 96.494 87.6802 97.2333C87.7281 99.5887 87.6982 101.947 87.6982 104.328V104.33Z" fill="#CECECE"/>
<path d="M129.12 96.291C131.353 96.288 132.867 97.9117 132.87 100.309C132.873 102.859 131.342 104.649 129.03 104.626C126.738 104.605 125.273 102.861 125.291 100.48C125.31 97.9102 126.772 96.294 129.12 96.291V96.291ZM131.227 100.577C131.067 99.9484 130.988 99.3768 130.774 98.8605C130.458 98.0988 129.753 97.7291 128.899 97.7965C128.107 97.8578 127.555 98.2739 127.274 99.0176C126.908 99.9873 126.935 100.965 127.3 101.925C127.585 102.675 128.171 103.061 128.95 103.122C129.668 103.179 130.317 102.935 130.654 102.286C130.931 101.753 131.046 101.135 131.226 100.575L131.227 100.577Z" fill="#CECECE"/>
<path d="M92.268 96.332C93.2063 96.3365 94.1072 96.4667 94.8988 97.0159C96.3474 98.0201 96.8487 99.7964 96.2666 101.832C95.8027 103.451 94.4813 104.467 92.7454 104.539C92.6212 104.543 92.4969 104.543 92.3727 104.543C90.6593 104.537 89.7359 104.141 89.8377 102.04C89.9125 100.503 89.8706 98.9584 89.8437 97.4185C89.8317 96.7855 90.1115 96.5011 90.7071 96.4547C91.2279 96.4143 91.7472 96.3739 92.268 96.3335V96.332ZM91.5497 98.029C91.5377 98.2371 91.5123 98.4795 91.5108 98.7219C91.5063 99.741 91.5078 100.76 91.5093 101.779C91.5123 102.945 91.9822 103.331 93.094 102.93C93.5729 102.756 94.0578 102.379 94.3511 101.962C95.0155 101.013 94.8958 99.6003 94.2014 98.6621C93.6058 97.8584 92.5478 97.5876 91.5497 98.029V98.029Z" fill="#CECECE"/>
<path d="M134.843 96.5846C136.167 96.3033 137.502 96.0953 138.817 96.5068C140.522 97.0411 140.927 99.2574 139.578 100.431C139.431 100.558 139.268 100.667 139.139 100.764C139.7 101.945 140.245 103.094 140.788 104.239C139.848 104.73 139.186 104.537 138.807 103.723C138.597 103.271 138.407 102.811 138.217 102.351C137.928 101.65 137.42 101.305 136.508 101.339V104.266C135.518 104.655 134.736 104.298 134.721 103.471C134.68 101.282 134.715 99.0912 134.726 96.9019C134.726 96.8331 134.775 96.7627 134.844 96.5831L134.843 96.5846ZM136.522 99.7901C137.491 100.058 138.216 99.9308 138.476 99.4235C138.705 98.9775 138.702 98.5016 138.349 98.1051C138.008 97.7205 137.203 97.6935 136.522 98.0243V99.7901V99.7901Z" fill="#CECECE"/>
<path d="M104.193 101.369V104.3C103.264 104.61 102.562 104.267 102.55 103.507C102.516 101.318 102.541 99.127 102.549 96.9376C102.549 96.8448 102.606 96.7505 102.66 96.5859C104.032 96.3016 105.44 96.0502 106.811 96.5859C108.331 97.1785 108.662 99.1569 107.495 100.303C107.32 100.475 107.124 100.625 106.953 100.772C107.507 101.943 108.048 103.091 108.589 104.233C107.625 104.725 107.001 104.538 106.598 103.697C106.374 103.227 106.206 102.729 105.98 102.259C105.62 101.508 105.29 101.339 104.193 101.37V101.369ZM104.265 99.7689C105.248 100.077 105.988 99.944 106.286 99.4098C106.532 98.9653 106.534 98.4954 106.179 98.1004C105.813 97.6888 104.88 97.6918 104.265 98.0704V99.7674V99.7689Z" fill="#CECECE"/>
<path d="M77.049 102.446H74.0725C73.9049 103.106 73.7433 103.745 73.5877 104.358C72.5207 104.625 72.0388 104.272 72.2154 103.281C72.6194 101.014 73.3677 98.8558 74.5454 96.8669C75.0138 96.0768 76.2784 96.1785 76.8575 97.063C77.1807 97.5568 77.4426 98.1135 77.6162 98.6762C78.128 100.336 78.5859 102.012 79.0543 103.685C79.1127 103.891 79.1067 104.114 79.1307 104.339C78.5096 104.599 77.929 104.554 77.6012 104.064C77.3124 103.633 77.2451 103.052 77.049 102.444V102.446ZM74.3868 100.96H76.6704C76.425 99.9347 76.1586 99.0503 75.6573 98.2602C75.572 98.2602 75.4867 98.2602 75.4029 98.2616C75.0797 99.1176 74.7579 99.9736 74.3868 100.96Z" fill="#CECECE"/>
<path d="M115.993 96.4439C116.133 97.4106 115.876 97.7997 115.057 97.861C114.438 97.9074 113.812 97.873 113.191 97.8835C112.923 97.888 112.656 97.9164 112.274 97.9404C112.223 98.4746 112.177 98.9669 112.112 99.6314H115.06C115.303 100.64 115.113 100.927 114.299 100.948C113.633 100.965 112.967 100.951 112.344 100.951C111.859 102.142 112.353 102.964 113.494 103.018C113.916 103.037 114.341 103.022 114.764 103.022C115.158 103.022 115.55 103.022 115.934 103.022C116.18 103.721 115.994 104.329 115.376 104.371C114.3 104.446 113.191 104.444 112.132 104.263C111.231 104.109 110.626 103.34 110.586 102.448C110.511 100.742 110.575 99.0283 110.67 97.3223C110.686 97.017 111.111 96.4963 111.37 96.4828C112.898 96.4035 114.432 96.4439 115.994 96.4439H115.993Z" fill="#CECECE"/>
<path d="M123.33 98.2489C122.611 98.0902 121.907 97.8942 121.19 97.7954C120.864 97.7505 120.475 97.8284 120.182 97.981C119.954 98.0992 119.706 98.4135 119.698 98.6484C119.691 98.8759 119.932 99.1887 120.15 99.3263C120.457 99.5194 120.842 99.5912 121.196 99.702C121.457 99.7828 121.729 99.8262 121.988 99.913C123.176 100.314 123.703 101.001 123.666 102.08C123.625 103.241 122.944 104.223 121.841 104.423C121.056 104.566 120.209 104.567 119.419 104.44C118.343 104.266 117.922 103.4 118.28 102.572C119.089 102.729 119.871 102.891 120.656 103.029C120.822 103.057 121.053 103.071 121.165 102.981C121.449 102.749 121.837 102.482 121.891 102.179C121.934 101.933 121.614 101.505 121.343 101.351C120.945 101.125 120.454 101.05 119.995 100.947C118.696 100.655 117.973 99.9504 117.954 98.9238C117.931 97.7475 118.766 96.6102 119.98 96.4112C120.745 96.2855 121.569 96.3154 122.334 96.4591C123.269 96.6342 123.616 97.4228 123.33 98.2519V98.2489Z" fill="#CECECE"/>
<path d="M154.445 98.1719C153.58 98.0357 152.79 97.886 151.994 97.7992C151.74 97.7723 151.443 97.8666 151.207 97.9863C150.623 98.2811 150.589 98.9665 151.153 99.2897C151.491 99.4843 151.891 99.5771 152.268 99.6983C152.575 99.797 152.893 99.8584 153.2 99.9587C154.082 100.244 154.656 100.797 154.722 101.771C154.794 102.83 154.448 103.698 153.474 104.203C152.449 104.732 151.35 104.716 150.279 104.387C149.369 104.107 149.049 103.33 149.342 102.558C150.171 102.718 150.975 102.883 151.784 103.025C151.949 103.053 152.18 103.061 152.293 102.971C152.564 102.753 152.922 102.498 152.98 102.205C153.027 101.97 152.751 101.542 152.503 101.403C152.081 101.165 151.573 101.065 151.092 100.948C149.71 100.613 149.044 99.9437 149.046 98.8558C149.047 97.6556 149.856 96.6065 151.132 96.403C151.895 96.2818 152.726 96.3207 153.483 96.4823C154.355 96.6694 154.643 97.3593 154.442 98.1764L154.445 98.1719Z" fill="#CECECE"/>
<path d="M148.235 96.5708C148.331 98.2618 146.884 97.7231 145.911 97.9849V104.26C144.839 104.695 144.208 104.323 144.193 103.318C144.171 101.852 144.189 100.384 144.183 98.9173C144.183 98.6254 144.148 98.3336 144.123 97.946C143.371 97.9071 142.67 97.8697 141.993 97.8338C141.766 96.9838 141.966 96.466 142.667 96.4391C144.45 96.3702 146.24 96.4181 148.027 96.4241C148.067 96.4241 148.106 96.4795 148.234 96.5723L148.235 96.5708Z" fill="#CECECE"/>
</g>
</g>
<defs>
<clipPath id="clip0_518_2100">
<rect width="231" height="127" fill="white"/>
</clipPath>
<clipPath id="clip1_518_2100">
<rect width="125.705" height="81.5582" fill="white" transform="translate(52.7676 23.1992)"/>
</clipPath>
</defs>
</svg>
