<svg width="231" height="127" viewBox="0 0 231 127" fill="none" xmlns="http://www.w3.org/2000/svg">
<g clip-path="url(#clip0_311_527)">
<path d="M50.4164 86.6307C48.3186 86.6015 45.0645 85.7233 42.2008 83.7133C38.815 81.3374 35.6097 78.7225 32.9606 75.527C29.8529 71.7705 28.4381 67.4675 29.1943 62.5743C29.8188 58.5397 30.5408 54.51 32.2044 50.7534C34.2827 46.0602 37.9661 43.0745 42.7813 41.3865C45.4987 40.4303 48.3283 40.2254 51.1628 40.2156C54.3144 40.2059 57.5051 40.0937 60.6079 40.523C67.1111 41.4255 72.7899 46.148 74.5364 52.7878C75.7902 57.5493 75.3121 62.1499 73.0777 66.5504C71.3116 70.0386 69.5797 73.5512 67.721 76.9906C64.4523 83.0254 58.4271 86.6258 50.4115 86.6356L50.4164 86.6307ZM51.4263 83.2498C55.4804 83.1669 59.7005 81.5423 63.1497 78.0395C65.828 75.3221 67.6917 72.0778 69.3163 68.6726C71.6385 63.8086 72.1166 58.8178 70.1261 53.7684C67.9405 48.2166 63.74 44.8308 57.9881 43.4209C54.6267 42.5964 51.158 42.5086 47.7234 42.855C42.352 43.4014 37.9515 45.7919 35.0682 50.4071C33.7753 52.4707 32.8338 54.788 32.0044 57.0859C30.7115 60.6521 30.453 64.3062 31.6092 68.014C32.6435 71.3363 34.5413 74.0927 36.8196 76.6491C40.4932 80.7764 44.9572 83.2255 51.4312 83.245L51.4263 83.2498Z" fill="#EEEEEE"/>
<path d="M108.722 71.9321V52.042C110.249 52.042 111.703 51.9933 113.147 52.0811C113.454 52.1006 113.854 52.5592 114.005 52.9007C115.586 56.4377 117.118 59.9942 118.674 63.5409C118.85 63.9361 119.074 64.3117 119.44 65.0045C120.235 63.1604 120.923 61.5944 121.592 60.0234C122.606 57.6524 123.611 55.2766 124.616 52.9007C124.88 52.2762 125.285 51.964 126.012 52.0128C126.982 52.0713 127.958 52.0616 128.929 52.0128C129.822 51.9689 130.154 52.3348 130.144 53.2227C130.11 55.8522 130.134 58.4769 130.134 61.1065C130.134 64.2581 130.1 67.4145 130.154 70.5661C130.168 71.576 129.807 71.9419 128.817 71.9419C125.846 71.9419 126.353 71.9419 126.338 69.5758C126.314 66.5461 126.334 63.5117 126.334 60.4772C126.334 60.0381 126.334 59.599 126.334 59.1648C126.251 59.1258 126.163 59.0916 126.08 59.0526C125.855 59.3892 125.577 59.6966 125.416 60.0625C123.958 63.3848 122.509 66.712 121.079 70.049C120.743 70.8296 120.411 71.4735 119.372 71.4687C118.386 71.4589 117.972 70.9808 117.615 70.1319C116.24 66.8633 114.791 63.619 113.366 60.3698C113.205 60.0088 113 59.6673 112.542 59.3258C112.507 59.721 112.444 60.1161 112.444 60.5113C112.434 63.8678 112.405 67.2243 112.459 70.5759C112.478 71.6004 112.107 71.976 111.127 71.937C110.371 71.9029 109.61 71.9321 108.707 71.9321H108.722Z" fill="#EEEEEE"/>
<path d="M181.559 61.6061C181.911 61.8013 182.096 61.8891 182.262 62.0062C184.486 63.5576 185.228 65.2748 184.496 67.841C183.867 70.051 182.247 71.5097 179.979 71.7048C176.92 71.9683 173.831 71.8707 170.753 71.9097C170.065 71.9195 169.748 71.5195 169.748 70.8218C169.758 64.9236 169.758 59.0302 169.748 53.132C169.748 52.2977 170.163 52.0099 170.963 52.0148C173.514 52.0392 176.071 51.9709 178.622 52.0392C182.096 52.1319 184.291 54.5712 184.042 57.9472C183.93 59.4839 182.95 60.4889 181.554 61.6061H181.559ZM173.875 63.5771C173.875 65.0943 173.836 66.5042 173.914 67.9044C173.929 68.1532 174.417 68.5728 174.695 68.5776C176.027 68.5923 177.368 68.5777 178.686 68.4069C179.983 68.2313 180.652 67.3141 180.642 66.0408C180.632 64.8504 179.857 63.7234 178.681 63.6161C177.168 63.4746 175.627 63.582 173.885 63.582L173.875 63.5771ZM173.949 55.4054V60.123C175.441 60.123 176.851 60.2255 178.237 60.0889C179.374 59.9767 180.149 58.879 180.149 57.7715C180.149 56.6738 179.344 55.5322 178.252 55.4298C176.861 55.303 175.451 55.4005 173.944 55.4005L173.949 55.4054Z" fill="#EEEEEE"/>
<path d="M149.708 61.4136C150.396 62.1941 151.216 62.8918 151.748 63.7651C153.636 66.8727 151.533 71.161 147.791 71.7074C145.883 71.9855 143.917 71.8879 141.976 71.9319C140.844 71.9562 139.707 71.9318 138.57 71.927C137.839 71.927 137.468 71.6294 137.473 70.8342C137.492 64.9359 137.492 59.0426 137.473 53.1443C137.473 52.2955 137.824 52.0125 138.639 52.0222C141.19 52.0515 143.747 51.9735 146.298 52.0515C150.294 52.1735 152.801 55.6031 151.406 59.0865C151.05 59.9793 150.255 60.6964 149.713 61.4233L149.708 61.4136ZM141.517 65.9507C141.517 66.5556 141.42 67.185 141.556 67.7558C141.634 68.0826 142.073 68.5559 142.361 68.5705C143.649 68.6193 144.957 68.6242 146.23 68.4485C147.684 68.2534 148.352 67.3216 148.289 65.9312C148.225 64.5944 147.415 63.7163 146.01 63.5406C145.371 63.4626 144.717 63.4431 144.074 63.448C141.283 63.4577 141.512 63.1211 141.522 65.9458L141.517 65.9507ZM144.064 55.3641C144.064 55.3641 144.064 55.3592 144.064 55.3543C143.62 55.3543 143.171 55.3934 142.732 55.3446C141.751 55.2373 141.429 55.6812 141.493 56.6081C141.551 57.4912 141.517 58.3791 141.507 59.267C141.507 59.8378 141.707 60.1939 142.346 60.189C143.439 60.1744 144.537 60.2329 145.62 60.1598C146.947 60.0671 147.83 59.0231 147.806 57.7156C147.776 56.4081 146.869 55.4617 145.522 55.369C145.039 55.3348 144.552 55.3641 144.069 55.3641H144.064Z" fill="#EEEEEE"/>
<path d="M202.71 55.436C200.705 55.436 198.768 55.436 196.832 55.436C194.714 55.436 194.7 55.4506 194.695 57.5143C194.69 60.3585 194.524 60.1243 197.334 60.1243C198.778 60.1243 200.222 60.1243 201.739 60.1243V63.4954C201.125 63.5345 200.539 63.593 199.949 63.5979C198.612 63.6125 197.271 63.6223 195.934 63.5979C195.061 63.5833 194.665 63.9735 194.69 64.8371C194.709 65.6469 194.719 66.4568 194.69 67.2617C194.656 68.1643 195.095 68.4716 195.948 68.4619C197.812 68.4375 199.681 68.5058 201.544 68.4375C202.588 68.3984 202.871 68.818 202.871 69.784C202.866 71.9403 202.901 71.9403 200.793 71.9403C197.954 71.9403 195.114 71.9501 192.275 71.9306C190.899 71.9208 190.806 71.8183 190.806 70.4865C190.802 64.8273 190.802 59.1681 190.806 53.5089C190.806 52.1283 190.894 52.0405 192.231 52.0356C195.353 52.0258 198.476 52.0356 201.603 52.0356C201.925 52.0356 202.242 52.0795 202.705 52.1088V55.4409L202.71 55.436Z" fill="#EEEEEE"/>
<path d="M89.9814 52.1094H101.846V55.4268C99.8899 55.4268 98.036 55.4268 96.1773 55.4268C94.5803 55.4268 93.7818 56.2253 93.7818 57.8222C93.7818 59.3476 94.5624 60.1103 96.1236 60.1103C97.3823 60.1103 98.641 60.1249 99.8948 60.1103C100.583 60.1054 100.958 60.3445 100.924 61.1007C100.885 61.8568 100.914 62.613 100.914 63.5839C99.2167 63.5839 97.6896 63.5839 96.1626 63.5839C93.777 63.5839 93.7672 63.5839 93.7818 65.989C93.7965 68.5113 93.4403 68.443 96.187 68.4381C97.7287 68.4381 99.2703 68.4722 100.812 68.4234C101.675 68.399 101.929 68.7649 101.958 69.5699C102.041 71.9214 102.066 71.9214 99.7192 71.9214C96.9578 71.9214 94.2014 71.9312 91.4401 71.9214C89.9619 71.9165 89.9033 71.8482 89.8984 70.4432C89.8984 64.784 89.8984 59.1199 89.8984 53.4607C89.8984 53.0656 89.9423 52.6655 89.9765 52.1094H89.9814Z" fill="#EEEEEE"/>
<path d="M158.581 52.0703H162.376C162.41 52.6118 162.469 53.0802 162.469 53.5534C162.474 59.1687 162.474 64.7888 162.469 70.4041C162.469 71.897 162.41 71.9506 160.878 71.9653C158.141 71.9897 158.585 71.9165 158.581 69.6723C158.566 64.379 158.576 59.0858 158.576 53.7925V52.0703H158.581Z" fill="#EEEEEE"/>
<path d="M51.1293 82.4008C45.1871 82.5277 40.9329 80.1079 37.4056 76.1318C34.9078 73.3169 32.8197 70.3019 32.0391 66.521C31.5318 64.0524 31.5805 61.6277 32.2001 59.2079C33.049 55.9051 34.1613 52.6999 36.2689 49.9581C39.1815 46.1625 43.0941 44.1086 47.8557 43.6354C51.9343 43.2305 55.9543 43.4939 59.8523 44.8112C66.8336 47.1675 71.5464 54.8708 70.4438 62.1302C69.4974 68.3456 66.419 73.5218 62.116 77.9467C59.101 81.0446 55.0956 82.4008 51.1195 82.4008H51.1293ZM52.5099 46.787C52.1733 46.626 51.8513 46.3577 51.5001 46.3138C48.8705 45.9869 46.2897 46.3821 43.8845 47.3773C38.5863 49.5776 35.2151 53.5341 33.7711 59.0762C33.6101 59.7056 33.6784 60.3886 33.6345 61.0716C34.298 59.1591 34.7321 57.2516 35.5957 55.5587C37.8838 51.085 41.4988 48.114 46.5092 47.1626C48.4704 46.787 50.5194 46.8748 52.5343 46.7528C53.6759 47.1334 54.837 47.4651 55.9494 47.9091C63.0576 50.7387 67.6581 58.642 65.414 66.9796C64.087 71.9118 61.0232 75.4 56.3836 77.4978C55.1493 78.054 53.8223 78.4101 52.5343 78.8541C50.978 78.8882 49.4218 78.9224 47.8606 78.9517L47.8752 79.2932C49.1583 79.2932 50.4463 79.3176 51.7294 79.2736C51.9928 79.2639 52.2465 78.9809 52.5051 78.8248C54.0467 79.1956 55.3835 78.4979 56.6812 77.893C63.9845 74.4682 67.2825 67.5894 66.2141 60.1544C65.5359 55.4368 63.0478 51.6412 58.9985 49.0165C57.0471 47.7481 55.0078 46.5431 52.5051 46.787H52.5099ZM46.9336 76.1172C46.9776 75.9952 47.0215 75.8733 47.0654 75.7513C43.2259 73.995 40.6939 71.18 39.6889 67.0283C38.4448 61.8863 41.5623 55.5539 47.2166 54.1683C52.0709 52.9828 58.5155 56.071 59.0083 62.784C59.1498 64.7012 58.2667 66.0038 56.1299 66.0331C53.9833 66.0624 51.8367 66.1599 49.6901 66.2087C49.2461 66.2185 48.7924 66.2087 48.3582 66.1356C47.3727 65.9697 46.6751 65.272 46.7483 64.4671C46.8361 63.5401 47.3776 62.9791 48.3289 62.9401C50.1487 62.8669 51.9733 62.8279 53.793 62.784C55.4127 62.7498 55.7494 62.2132 55.0517 60.7593C53.5101 57.5346 49.2705 56.3149 46.2262 58.2225C43.182 60.1349 42.0306 64.55 43.5527 68.0187C45.914 73.3998 52.4855 75.1268 57.491 72.8144C61.4476 70.9849 63.2527 67.6918 63.4576 63.4231C63.9016 54.1147 55.0322 47.1139 46.0848 49.7288C40.7524 51.2851 36.9275 56.0076 36.3763 61.7058C35.864 67.0137 38.8839 72.5021 43.7137 74.9073C44.7334 75.4147 45.8506 75.7171 46.9239 76.1172H46.9336ZM33.815 64.5695C32.81 70.3068 41.8599 79.9664 47.202 78.7516C39.5864 76.8929 35.1615 72.1802 33.815 64.5695V64.5695Z" fill="#EEEEEE"/>
</g>
<defs>
<clipPath id="clip0_311_527">
<rect width="231" height="127" fill="white"/>
</clipPath>
</defs>
</svg>
