<svg width="100" height="100" viewBox="0 0 100 100" fill="none" xmlns="http://www.w3.org/2000/svg">
<g clip-path="url(#clip0_632_3753)">
<path d="M98.7209 39.0497C98.1965 39.7907 97.4631 40.0301 96.5815 40.0282C87.3874 40.0187 78.1914 40.0282 68.9973 40.0187C67.3386 40.0187 66.7933 39.4506 66.7933 37.7881C66.7933 33.7753 66.7059 29.7587 66.8218 25.7497C66.9643 20.8837 69.5673 17.4808 73.6409 15.0868C74.4864 14.589 75.4402 14.893 75.8639 15.6606C76.2952 16.4415 76.0786 17.3364 75.2122 17.8665C73.8461 18.7025 72.6567 19.7133 71.7029 21.0034C70.5116 22.6127 69.9872 24.4424 69.9701 26.4166C69.9435 29.5136 69.9834 32.6106 69.9473 35.7057C69.9378 36.4904 70.1886 36.7393 70.9733 36.7393C73.8062 36.7431 73.8062 36.7678 73.8062 33.9235C73.8062 32.3123 73.7967 30.7011 73.81 29.088C73.8195 27.9366 74.4256 27.245 75.387 27.245C76.3427 27.245 76.9621 27.9423 76.9697 29.0918C76.9849 31.2711 77.0039 33.4523 76.9602 35.6316C76.9431 36.4334 77.1464 36.7507 78.0128 36.7393C81.2029 36.6937 84.3949 36.6994 87.5869 36.7355C88.3849 36.745 88.6224 36.4657 88.6072 35.6943C88.5654 33.5777 88.5901 31.4611 88.5958 29.3426C88.5996 27.9499 89.1658 27.2165 90.1975 27.2431C91.2349 27.2697 91.7631 27.9898 91.7669 29.3977C91.7707 31.5143 91.7935 33.6328 91.7555 35.7494C91.7422 36.4904 91.9835 36.7849 92.7321 36.7317C93.4237 36.6823 94.1229 36.7013 94.8164 36.726C95.375 36.745 95.622 36.5322 95.6125 35.9546C95.546 32.5118 95.7246 29.069 95.508 25.628C95.299 22.3163 93.532 19.9793 90.8758 18.2085C89.5534 17.3269 89.1753 16.546 89.7168 15.634C90.2754 14.6954 91.2558 14.6365 92.6086 15.4858C95.888 17.5435 97.864 20.5132 98.7228 24.2581V39.0497H98.7209Z" fill="white"/>
<path d="M98.6933 97.6143C98.1385 98.2622 97.4393 98.4541 96.5881 98.4522C87.3617 98.4294 78.1334 98.4389 68.907 98.437C67.2236 98.437 66.7656 97.9829 66.7656 96.3052C66.7656 92.2296 66.6517 88.1484 66.8037 84.0767C66.9842 79.2564 69.6346 75.9029 73.6816 73.5507C74.4853 73.0833 75.3936 73.3892 75.823 74.1226C76.2448 74.8446 76.049 75.787 75.2909 76.2943C74.4511 76.8586 73.5866 77.3849 72.8627 78.1012C70.9513 79.9917 69.952 82.2793 69.9387 84.9735C69.9235 88.0705 69.9576 91.1675 69.9196 94.2646C69.9101 95.055 70.1686 95.2906 70.9495 95.2887C73.7805 95.283 73.7805 95.3096 73.7805 92.4747C73.7805 90.8312 73.7691 89.1877 73.7862 87.5442C73.7976 86.3852 74.4094 85.7259 75.3974 85.7487C76.3189 85.7696 76.9364 86.4555 76.944 87.5328C76.9592 89.8071 76.9706 92.0833 76.9383 94.3577C76.9288 95.0645 77.1739 95.2887 77.8712 95.283C81.1259 95.2564 84.3806 95.2469 87.6353 95.2868C88.4352 95.2963 88.5853 94.9657 88.5777 94.2703C88.5511 91.9636 88.553 89.657 88.5815 87.3504C88.5929 86.3776 89.2085 85.7753 90.0958 85.7487C90.9926 85.7221 91.6689 86.3776 91.7316 87.3485C91.7487 87.6012 91.7393 87.8539 91.7393 88.1066C91.7393 90.1605 91.7716 92.2144 91.7241 94.2683C91.7051 95.0664 91.9882 95.2887 92.7615 95.2868C95.5792 95.2811 95.6019 95.3058 95.5735 92.4595C95.5469 89.6798 95.678 86.9001 95.488 84.1223C95.26 80.8182 93.5196 78.4679 90.852 76.7009C89.4935 75.8022 89.1154 74.97 89.7253 74.0561C90.3276 73.1517 91.2149 73.1099 92.5544 73.9611C95.8414 76.0511 97.882 79.0113 98.6933 82.8208V97.6124V97.6143Z" fill="white"/>
<path d="M19.054 1.1875C20.0781 1.5998 21.1174 1.9741 21.9686 2.72271C23.4943 4.06411 24.3778 5.72852 24.4101 7.76912C24.4481 10.0966 24.6533 12.4488 23.405 14.6091C22.0997 16.8683 20.384 18.5783 17.6404 18.6543C14.9595 18.7284 13.1887 17.1343 11.8454 14.9873C10.5762 12.958 10.4907 10.6932 10.5572 8.39803C10.6617 4.69111 12.5123 2.3142 16.0197 1.1894H19.054V1.1875ZM21.1516 9.64443C21.1516 8.96613 21.163 8.52533 21.1516 8.08263C21.087 5.89952 19.4967 4.26361 17.4846 4.30351C15.4668 4.34341 13.8689 6.00212 13.8119 8.13393C13.7929 8.89013 13.8043 9.64823 13.8081 10.4063C13.8138 11.8218 14.3002 13.0625 15.1989 14.1417C16.5631 15.7834 18.2712 15.8138 19.7399 14.2519C21.0376 12.8725 21.2846 11.1986 21.1535 9.64443H21.1516Z" fill="white"/>
<path d="M84.3093 1.1875C86.5095 1.9076 88.4608 3.10081 89.1182 5.38271C90.1784 9.06303 90.2791 12.7547 87.7331 16.0208C85.037 19.4789 80.8285 19.5739 77.9937 16.228C76.6466 14.6376 75.879 12.8003 75.8923 10.6799C75.898 9.85913 75.8866 9.03643 75.8923 8.21562C75.9189 4.90961 77.6441 2.4871 80.7468 1.387C80.9254 1.3243 81.1002 1.254 81.2769 1.1875C82.2877 1.1875 83.3004 1.1875 84.3112 1.1875H84.3093ZM79.0634 9.36323C79.0634 9.74133 79.052 10.1213 79.0653 10.4994C79.1185 11.9776 79.641 13.2753 80.648 14.3564C81.9172 15.7206 83.4695 15.7396 84.8033 14.4476C85.55 13.7237 86.0763 12.8573 86.2891 11.8522C86.6102 10.3265 86.6444 8.77803 86.3461 7.24092C86.025 5.58221 84.5278 4.35101 82.8425 4.30351C81.2864 4.25981 79.7398 5.39791 79.261 6.91982C79.0083 7.72162 79.0691 8.54432 79.0634 9.36323Z" fill="white"/>
<path d="M17.5614 40.018C13.0432 40.018 8.52505 40.0199 4.00685 40.018C2.06505 40.018 1.58055 39.5373 1.57865 37.6392C1.57865 33.7537 1.53115 29.8663 1.59005 25.9808C1.66605 21.018 4.25955 17.5637 8.37495 15.1032C9.22615 14.594 10.1799 14.8695 10.6131 15.6219C11.0577 16.3933 10.8392 17.2958 10.0165 17.8525C9.30975 18.3294 8.58965 18.7797 7.95315 19.3555C5.76055 21.341 4.71175 23.8034 4.73645 26.756C4.76115 29.7257 4.76875 32.6973 4.72505 35.6651C4.71175 36.5106 4.99105 36.8032 5.81565 36.731C6.44265 36.6759 7.08105 36.6911 7.70995 36.7272C8.36925 36.7652 8.60105 36.4992 8.59345 35.8437C8.56875 33.5694 8.57635 31.2932 8.59155 29.0189C8.59915 28.0024 9.11595 27.3564 9.94245 27.2481C10.9399 27.1189 11.736 27.8352 11.7493 28.9562C11.7759 31.1678 11.793 33.3794 11.7436 35.591C11.7246 36.4441 11.9583 36.7519 12.8551 36.7367C15.9502 36.6873 19.0472 36.6911 22.1442 36.7348C23.0125 36.7462 23.3184 36.4707 23.2956 35.6005C23.2462 33.7385 23.2747 31.8727 23.2861 30.0088C23.288 29.568 23.3089 29.1215 23.3792 28.6883C23.5312 27.7383 24.2019 27.1797 25.0588 27.2424C25.9195 27.307 26.5257 27.9359 26.5389 28.9049C26.5674 30.9892 26.5522 33.0754 26.5522 35.1616C26.5522 36.7196 26.5522 36.7329 28.0685 36.7177C30.5822 36.6911 30.28 37.0787 30.2933 34.5156C30.3067 31.8936 30.2421 29.2697 30.3085 26.6477C30.4035 22.8933 28.6574 20.1972 25.6383 18.1945C24.3102 17.3148 23.9378 16.532 24.4869 15.6181C25.0455 14.6909 26.0639 14.613 27.3863 15.487C31.3459 18.1033 33.5898 21.6887 33.5709 26.5432C33.5556 30.271 33.5709 34.0007 33.567 37.7285C33.567 39.4404 33.0123 40.0123 31.3099 40.0161C26.729 40.0256 22.148 40.0199 17.5652 40.0199L17.5614 40.018Z" fill="white"/>
<path d="M17.5556 98.4469C12.912 98.4469 8.26838 98.4488 3.62288 98.4469C2.04588 98.4469 1.56708 97.9757 1.56518 96.4309C1.56138 92.3231 1.45688 88.2134 1.59368 84.1113C1.75518 79.2378 4.45888 75.8938 8.52678 73.5245C9.26778 73.0932 10.1703 73.4105 10.5902 74.1059C11.0025 74.788 10.8467 75.7228 10.1798 76.2358C9.60408 76.6766 8.95428 77.0224 8.39188 77.4765C6.01688 79.3955 4.75338 81.8807 4.73248 84.9511C4.71158 88.0462 4.75528 91.1432 4.70968 94.2383C4.69638 95.0933 4.98898 95.3669 5.80408 95.2928C6.43108 95.2358 7.06948 95.2491 7.69838 95.289C8.36338 95.3308 8.58568 95.061 8.57808 94.4074C8.55338 92.1331 8.57238 89.8588 8.56858 87.5845C8.56858 87.0278 8.64838 86.5072 9.11008 86.131C9.62308 85.7149 10.2102 85.6294 10.7992 85.8992C11.4281 86.1861 11.7416 86.7105 11.7416 87.4154C11.7416 89.6593 11.7872 91.9032 11.7245 94.1433C11.6979 95.0838 12.0266 95.3137 12.9177 95.2985C15.9805 95.251 19.0471 95.2472 22.1099 95.2985C23.0523 95.3156 23.305 94.9755 23.2803 94.0901C23.229 92.2585 23.2613 90.425 23.2689 88.5934C23.2689 88.183 23.2879 87.7707 23.3411 87.366C23.4855 86.2659 24.1144 85.6902 25.0625 85.7605C25.9403 85.8251 26.5217 86.492 26.5293 87.5275C26.5464 89.6764 26.535 91.8234 26.5369 93.9723C26.5369 94.8413 26.9663 95.2764 27.8251 95.2776C29.4629 95.2802 30.2818 94.4657 30.2818 92.8342C30.2818 90.2749 30.2305 87.7156 30.2932 85.1582C30.3882 81.3677 28.6174 78.6583 25.5565 76.6462C25.3722 76.5246 25.1708 76.4258 24.9941 76.2966C24.2322 75.7399 24.0308 74.8811 24.4773 74.1325C24.9162 73.3934 25.7902 73.1255 26.6167 73.5606C28.7903 74.7063 30.5174 76.3498 31.7904 78.4455C32.9589 80.374 33.5783 82.464 33.5612 84.744C33.5327 88.5972 33.5574 92.4523 33.5517 96.3074C33.5498 97.9529 33.0539 98.4431 31.3971 98.4431C26.7839 98.445 22.1726 98.4431 17.5594 98.4431L17.5556 98.4469Z" fill="white"/>
<path d="M37.04 51.0861C37.04 48.4641 37.0324 45.8401 37.0419 43.2181C37.0533 40.1496 39.1623 38.0197 42.2232 38.0121C47.5318 37.9969 52.8404 37.995 58.149 38.0121C61.1453 38.0216 63.2809 40.1591 63.2923 43.1725C63.3132 48.4812 63.3132 53.7898 63.2923 59.0984C63.2809 62.108 61.1415 64.2493 58.1471 64.2588C52.8385 64.2778 47.5299 64.2759 42.2213 64.2588C39.1623 64.2493 37.0533 62.1156 37.0419 59.049C37.0324 56.3947 37.04 53.7404 37.04 51.0861ZM40.3289 51.1621C40.3289 53.7841 40.3175 56.4061 40.3327 59.0281C40.3403 60.4531 40.859 60.9642 42.2897 60.9661C47.5337 60.9756 52.7777 60.9756 58.0217 60.9661C59.4239 60.9642 59.992 60.4132 59.9958 59.0243C60.0072 53.7803 60.0072 48.5363 59.9958 43.2922C59.992 41.8463 59.4334 41.3067 57.9704 41.3048C52.7587 41.2972 47.5451 41.2972 42.3334 41.3048C40.8419 41.3067 40.3384 41.8045 40.3308 43.296C40.3175 45.9181 40.327 48.5401 40.327 51.1621H40.3289Z" fill="white"/>
<path d="M24.4194 68.1061C24.6417 70.54 23.9672 72.8676 22.2591 74.8797C19.5649 78.0527 15.459 78.047 12.7553 74.8607C10.6254 72.3527 10.3537 69.3943 10.6311 66.2897C10.9522 62.7006 13.1866 60.2952 16.7396 59.7404C20.4218 59.1666 24.2237 62.2769 24.4137 66.0332C24.446 66.664 24.4175 67.2967 24.4175 68.1023L24.4194 68.1061ZM21.1495 68.1764C21.1495 67.5456 21.1723 67.0079 21.1457 66.4721C21.0545 64.6139 19.6903 63.13 17.9309 62.9533C16.0518 62.7652 14.4539 63.89 13.9637 65.7406C13.6749 66.8293 13.8364 67.9389 13.8193 69.039C13.7984 70.312 14.2259 71.4578 14.9878 72.4705C16.5344 74.5282 18.5066 74.5225 20.0665 72.48C21.0697 71.1671 21.2578 69.6603 21.1476 68.1745L21.1495 68.1764Z" fill="white"/>
<path d="M75.9047 68.0242C75.6691 65.463 76.2125 63.164 78.2607 61.4369C80.4647 59.5787 82.9613 59.1455 85.5928 60.3387C88.1654 61.5072 89.5885 63.5858 89.6702 66.4396C89.7139 67.9786 89.8697 69.5366 89.4859 71.0623C88.9672 73.1163 87.945 74.8567 86.2122 76.1259C84.0652 77.6972 81.4755 77.7143 79.3551 76.0993C77.1739 74.4368 75.9997 72.21 75.9085 69.4454C75.8933 68.9723 75.9066 68.4973 75.9066 68.0242H75.9047ZM86.5181 68.0242C86.5181 67.3611 86.52 66.7018 86.3965 66.0425C86.0773 64.3439 84.6808 63.0557 83.0259 62.9721C81.1943 62.8771 79.6534 63.962 79.2468 65.7556C78.9143 67.2129 78.9922 68.7025 79.2183 70.1769C79.357 71.0737 79.7541 71.8585 80.3051 72.5672C81.8327 74.5318 83.7289 74.5356 85.2698 72.5862C86.3319 71.2429 86.558 69.6715 86.5181 68.0261V68.0242Z" fill="white"/>
<path d="M24.12 52.7598C20.9679 52.7598 18.0951 52.7598 15.2242 52.7598C14.2134 52.7598 13.2026 52.7636 12.1918 52.7598C10.8979 52.7522 10.1531 52.1556 10.1702 51.1543C10.1873 50.1815 10.9093 49.6115 12.1443 49.5963C12.397 49.5925 12.6497 49.5963 12.9024 49.5963C16.2502 49.5963 19.5999 49.5982 22.9477 49.5925C23.2517 49.5925 23.5728 49.678 23.9832 49.4386C23.4075 48.7869 22.8508 48.1637 22.2998 47.5329C21.4999 46.6171 21.4372 45.669 22.1288 45.0116C22.8983 44.2801 23.8217 44.3808 24.6843 45.3365C26.0599 46.8603 27.4222 48.3955 28.7769 49.9383C29.5597 50.8294 29.5483 51.5438 28.7465 52.4558C27.4108 53.9739 26.0713 55.4863 24.7185 56.9892C23.8426 57.962 22.9534 58.0855 22.163 57.3806C21.4258 56.7232 21.4885 55.7485 22.3302 54.7909C22.8679 54.1791 23.4075 53.5711 24.1181 52.7636L24.12 52.7598Z" fill="white"/>
<path d="M48.4193 26.882C48.6492 26.4564 48.558 26.1049 48.558 25.7705C48.5675 22.1092 48.5542 18.4479 48.5751 14.7885C48.5808 13.7244 49.2629 13.0366 50.1787 13.0632C51.0546 13.0879 51.6835 13.7719 51.7329 14.7638C51.7462 15.0165 51.7386 15.2692 51.7386 15.5219C51.7386 18.9628 51.7386 22.4018 51.7386 25.8427V26.9846C52.5385 26.2892 53.1864 25.7192 53.8419 25.1568C54.7254 24.3987 55.7362 24.3702 56.3689 25.077C57.0244 25.8104 56.8914 26.7623 55.9946 27.5698C54.4708 28.9416 52.9413 30.3077 51.4061 31.6681C50.5226 32.4509 49.7645 32.4471 48.8886 31.6681C47.3781 30.3267 45.8714 28.9834 44.3647 27.6382C43.39 26.768 43.2285 25.8636 43.9068 25.0922C44.5547 24.3569 45.5826 24.3987 46.5041 25.2024C47.1349 25.7534 47.7619 26.3082 48.4193 26.8839V26.882Z" fill="white"/>
<path d="M48.5652 75.3125C47.733 76.044 47.0851 76.6292 46.4201 77.1954C45.548 77.9402 44.5182 77.9402 43.895 77.2163C43.2642 76.4829 43.3763 75.5861 44.2427 74.8014C45.8102 73.3821 47.3872 71.9761 48.9756 70.5796C49.7698 69.8823 50.5393 69.8899 51.3506 70.6043C52.9371 72.0008 54.5141 73.4087 56.0778 74.8318C56.9138 75.5937 57.0031 76.5532 56.3571 77.2581C55.7358 77.9364 54.7364 77.925 53.9004 77.2144C53.2316 76.6444 52.578 76.0573 51.8978 75.4626C51.6242 75.8141 51.7458 76.1713 51.7458 76.4981C51.7344 79.8744 51.7382 83.2508 51.7382 86.629C51.7382 86.8817 51.742 87.1344 51.7363 87.3871C51.7097 88.5214 51.0998 89.2434 50.1612 89.2586C49.215 89.2738 48.5766 88.5651 48.5709 87.4194C48.5576 83.9804 48.5652 80.5394 48.5633 77.1004C48.5633 76.5779 48.5633 76.0535 48.5633 75.3125H48.5652Z" fill="white"/>
<path d="M76.169 52.7697C76.6896 53.3815 77.0525 53.8033 77.4116 54.2289C77.7175 54.5899 78.0595 54.9262 78.3141 55.3195C78.8043 56.0776 78.6732 56.9212 78.0101 57.4399C77.3185 57.9795 76.5433 58.0137 75.9505 57.381C74.3336 55.6558 72.7547 53.8907 71.2214 52.0895C70.7293 51.5119 70.7844 50.7595 71.2974 50.1686C72.768 48.4795 74.2519 46.7999 75.77 45.1526C76.4844 44.3774 77.3432 44.347 78.0462 44.9531C78.7302 45.544 78.8176 46.4351 78.1887 47.2426C77.6111 47.9855 76.9594 48.6695 76.3077 49.4143C76.663 49.7126 77.0202 49.5948 77.3375 49.5967C80.9665 49.6062 84.5955 49.5967 88.2264 49.6081C89.4481 49.6119 90.1416 50.3244 90.02 51.3941C89.9212 52.27 89.2847 52.7621 88.1865 52.7659C84.6202 52.7735 81.0539 52.7697 77.4876 52.7697C77.1437 52.7697 76.7979 52.7697 76.169 52.7697Z" fill="white"/>
<path d="M50.1916 44.5341C51.039 44.5607 51.6983 45.2162 51.7344 46.1415C51.7724 47.0877 51.7667 48.0358 51.7439 48.9839C51.7306 49.5501 51.9472 49.7838 52.521 49.7667C53.4045 49.7401 54.2899 49.7496 55.1734 49.7667C56.245 49.7876 56.9442 50.4032 56.9632 51.3152C56.9822 52.2576 56.2602 52.9036 55.1354 52.9226C54.2823 52.9378 53.4292 52.9511 52.578 52.9188C51.9681 52.896 51.7192 53.1221 51.742 53.7415C51.7743 54.625 51.7648 55.5104 51.742 56.3939C51.7154 57.4484 51.0637 58.1514 50.1517 58.1533C49.234 58.1533 48.6089 57.4693 48.5823 56.3882C48.5614 55.5047 48.55 54.6193 48.5823 53.7358C48.6032 53.1107 48.341 52.8979 47.7368 52.9188C46.8533 52.9492 45.9679 52.9416 45.0844 52.9188C44.0204 52.8922 43.3326 52.2443 43.3459 51.3209C43.3592 50.3994 44.0451 49.7876 45.1262 49.7648C45.8843 49.7477 46.6462 49.7078 47.3986 49.7724C48.2897 49.8484 48.6716 49.5691 48.5918 48.6229C48.5196 47.7774 48.5519 46.9167 48.5975 46.0674C48.6469 45.1383 49.3404 44.5037 50.1935 44.5322L50.1916 44.5341Z" fill="white"/>
</g>
<defs>
<clipPath id="clip0_632_3753">
<rect width="97.47" height="97.3602" fill="white" transform="translate(1 1)"/>
</clipPath>
</defs>
</svg>
