<svg width="100" height="100" viewBox="0 0 100 100" fill="none" xmlns="http://www.w3.org/2000/svg">
<g clip-path="url(#clip0_675_102)">
<path d="M99.9914 34.6014C99.1983 35.9124 98.0327 36.6477 96.4927 36.8301C95.7921 36.9137 95.1032 37.1018 94.4027 37.1398C93.2139 37.2025 92.5886 37.7782 92.2316 38.8878C91.9807 39.6687 92 40.2539 92.552 40.8809C93.1386 41.5478 93.6134 42.3097 94.1865 42.99C95.6455 44.7209 95.2942 48.0117 93.2197 49.1783C92.6118 49.5203 92.0811 49.9991 91.5195 50.419C89.7981 51.7015 87.9435 51.6977 86.2048 50.3924C85.3634 49.7597 84.522 49.1251 83.7076 48.4582C83.3313 48.1504 83.0167 48.1827 82.5709 48.3252C81.2046 48.7641 80.4249 49.5583 80.4095 51.0517C80.4018 51.8003 80.2069 52.5527 80.0506 53.2918C79.6395 55.2279 78.3002 56.5048 76.3414 56.7518C75.2607 56.8886 74.1569 56.8943 73.0762 56.7442C71.0306 56.463 69.6604 55.093 69.3323 53.0866C69.1799 52.1518 69.0506 51.2132 68.8884 50.2803C68.6125 48.7052 66.6692 47.9262 65.3781 48.8686C64.6313 49.4139 63.8979 49.9801 63.1414 50.514C61.2907 51.8193 59.0676 51.6559 57.4349 50.1017C56.8811 49.5754 56.3311 49.0415 55.7984 48.4943C54.1967 46.847 54.0442 44.7285 55.399 42.8873C56.0011 42.0684 56.6456 41.2799 57.24 40.4553C57.8672 39.5813 57.0027 37.5141 55.9316 37.3184C54.766 37.1056 53.5869 36.9536 52.4251 36.7199C50.3274 36.3 49.102 34.8066 49.0788 32.69C49.0691 31.8692 49.0711 31.0465 49.0788 30.2256C49.0962 27.9532 50.4277 26.4142 52.7107 26.0361C53.6583 25.8784 54.6135 25.753 55.5592 25.5858C57.1744 25.2989 57.9618 23.3286 56.9892 22.0423C56.4334 21.307 55.893 20.5603 55.3218 19.8364C54.2372 18.4627 54.1504 16.9521 54.9165 15.472C55.7 13.9577 56.9583 12.7702 58.4307 11.9209C59.8897 11.0792 61.4065 11.3129 62.7651 12.3047C63.5892 12.907 64.3977 13.5321 65.1832 14.1838C65.683 14.5999 66.1384 14.6417 66.7618 14.408C68.0007 13.9444 68.9039 13.3041 68.8421 11.8373C68.8267 11.4972 68.9637 11.1533 68.9888 10.8075C69.149 8.62057 70.2432 7.07776 72.256 6.15625H77.0709C79.0413 6.90866 80.0351 8.35267 80.2242 10.399C80.2976 11.1818 80.4655 11.9551 80.5948 12.7322C80.8109 14.0261 82.816 14.8374 83.9063 14.0622C84.7381 13.4713 85.5428 12.8443 86.3707 12.2515C88.1578 10.969 90.2651 11.1077 91.8842 12.6144C92.442 13.135 92.9804 13.6765 93.5188 14.218C95.2653 15.9679 95.4313 18.0161 93.9762 20.0321C93.4011 20.8282 92.7835 21.5958 92.1969 22.3862C91.9904 22.6636 91.807 22.9448 91.9074 23.34C92.3107 24.9227 92.8318 25.3958 94.4548 25.6599C96.5255 25.9981 98.7293 26.0646 99.9895 28.1527V34.5995L99.9914 34.6014ZM60.899 38.7301C61.0823 41.202 59.9186 42.2964 59.0328 43.5182C57.3944 45.7773 57.0007 45.1959 59.4477 47.5842C59.9823 48.1067 60.4744 48.0991 61.0514 47.6412C61.8253 47.0275 62.6223 46.4385 63.4406 45.8818C64.9477 44.8558 66.5341 44.5442 68.2304 45.4562C68.5681 45.6367 68.927 45.7792 69.2841 45.9179C70.963 46.5753 71.87 47.8046 72.1286 49.5469C72.2811 50.5767 72.4876 51.5989 72.6497 52.6268C72.7346 53.1664 72.9874 53.5692 73.5741 53.4951C74.5139 53.3754 75.5849 53.9625 76.3742 53.0752C76.5614 52.8662 76.5518 52.4786 76.6077 52.1689C76.7351 51.4545 76.9204 50.7401 76.9551 50.0219C77.1153 46.714 79.6549 45.8837 82.4937 45.2054C84.1881 44.8007 85.427 46.0053 86.7046 46.9192C89.3755 48.8306 88.4704 48.9655 91.012 46.5544C91.5369 46.0566 91.5214 45.6215 91.0795 45.0781C90.3597 44.1889 89.6746 43.2731 89.0011 42.3496C87.133 39.796 88.8409 35.1448 91.9402 34.3544C92.5597 34.1967 93.1985 34.115 93.8295 34.0029C96.9192 33.4538 96.4348 34.0637 96.4772 30.8774C96.4772 30.8451 96.4753 30.8147 96.4772 30.7824C96.512 30.1401 96.2399 29.7962 95.5567 29.7069C94.4451 29.5606 93.3451 29.3364 92.2374 29.1616C91.2725 29.0096 90.4485 28.5878 89.883 27.8183C89.0474 26.6859 88.4878 25.4015 88.1963 24.0392C87.8027 22.2 88.8814 20.8681 89.9139 19.5058C91.6585 17.2029 91.9653 17.7805 89.5028 15.377C89.0069 14.8944 88.536 14.8545 87.986 15.3105C87.2006 15.9622 86.3823 16.5721 85.5814 17.2048C84.2556 18.2498 82.8044 18.4265 81.2432 17.8128C80.7376 17.6133 80.2435 17.3853 79.7399 17.1763C78.1477 16.5189 77.2793 15.3238 77.0169 13.6632C76.8432 12.5726 76.6406 11.4858 76.4611 10.3971C76.3742 9.87268 76.052 9.56868 75.5367 9.64468C74.6027 9.78148 73.5413 9.16777 72.7462 10.0836C72.6555 10.1881 72.667 10.3838 72.6439 10.5396C72.5377 11.2578 72.3448 11.976 72.3486 12.6942C72.3679 16.1028 69.5253 17.2827 66.5862 17.7786C64.9362 18.0579 63.7686 16.9426 62.5625 16.0534C61.0019 14.9033 59.5751 15.0274 58.2821 16.4258C57.8344 16.9046 57.763 17.3226 58.1721 17.8413C58.782 18.6147 59.3763 19.3994 59.963 20.1917C61.7153 22.5572 60.789 26.7733 58.2011 28.2572C57.3114 28.7683 56.2983 28.7854 55.3295 28.9697C52.2283 29.5568 52.6991 28.888 52.6606 32.1865C52.6606 32.2188 52.6625 32.2492 52.6625 32.2815C52.649 32.8401 52.8941 33.1669 53.4827 33.2486C54.243 33.355 54.9995 33.5013 55.7579 33.6229C56.966 33.8167 58.2242 33.944 59.0618 34.951C60.1599 36.2696 60.7427 37.8257 60.899 38.732V38.7301Z" fill="#727272"/>
<path d="M45.4073 90.6788C57.3143 90.6788 69.2232 90.6693 81.1302 90.6902C82.7108 90.6921 84.0095 90.1981 85.0555 89.0334C85.866 88.129 86.1324 87.0631 86.1304 85.8813C86.1188 79.7518 86.1266 73.6224 86.1266 67.4929C86.1266 63.9551 86.1227 60.4154 86.1304 56.8775C86.1304 56.4367 86.1497 55.9902 86.2327 55.5589C86.4045 54.664 87.1011 54.0997 87.8962 54.1548C88.6566 54.2061 89.3474 54.8977 89.4381 55.7356C89.4748 56.0795 89.4574 56.4291 89.4574 56.7768C89.4574 66.2864 89.3436 75.7979 89.5095 85.3056C89.5848 89.6262 86.6302 94.1976 80.5359 94.1501C72.641 94.0893 64.7441 94.1349 56.8492 94.1349C41.4434 94.1349 26.0376 94.1368 10.6299 94.1292C9.70165 94.1292 8.77148 94.2888 7.84323 94.133C4.18428 93.5212 1.32621 90.2912 1.32235 86.6261C1.30498 66.5638 1.30306 46.5016 1.32235 26.4393C1.32621 22.4398 4.95814 18.8829 9.05709 18.8259C12.9727 18.7727 16.8883 18.8088 20.8039 18.8088C30.4338 18.8088 40.0616 18.8088 49.6915 18.8088C51.3531 18.8088 52.1481 19.3313 52.1346 20.4106C52.1231 21.4594 51.2315 22.0845 49.676 22.0845C36.4201 22.0902 23.1641 22.0864 9.90814 22.0883C9.01077 22.0883 8.10762 22.056 7.27007 22.474C5.49656 23.3613 4.59727 24.8224 4.54709 26.7357C4.48341 29.1354 4.53937 31.537 4.52007 33.9387C4.51621 34.4973 4.71113 34.7709 5.30165 34.7272C5.5892 34.7063 5.87867 34.7253 6.16814 34.7253C19.0709 34.7253 31.9738 34.7253 44.8766 34.7272C46.2892 34.7272 46.9936 35.3694 46.8913 36.5284C46.816 37.3701 46.2043 37.9876 45.3397 38.0636C44.9885 38.094 44.6334 38.0788 44.2802 38.0788C31.4739 38.0788 18.6676 38.0788 5.8613 38.0788C4.97358 38.0788 4.52843 38.5044 4.52586 39.3556C4.52586 54.7419 4.52393 70.1282 4.52586 85.5146C4.52586 88.2373 5.86902 90.067 8.24656 90.5667C8.77148 90.6769 9.32919 90.6693 9.87341 90.6693C21.7167 90.675 33.5601 90.6731 45.4034 90.6731L45.4073 90.6788Z" fill="#727272"/>
<path d="M28.0577 65.5487C24.4007 65.5487 20.7418 65.5563 17.0847 65.5468C13.9565 65.5392 11.9205 63.5252 11.9147 60.43C11.907 56.2291 11.9051 52.0301 11.9147 47.8291C11.9225 44.829 13.9854 42.7352 17.0346 42.7238C24.3505 42.6972 31.6646 42.6953 38.9805 42.7238C42.0914 42.7371 44.166 44.829 44.1775 47.8766C44.193 52.0776 44.193 56.2766 44.1775 60.4775C44.166 63.4872 42.0818 65.5335 39.0307 65.543C35.3737 65.5544 31.7147 65.5468 28.0577 65.5468V65.5487ZM28.0539 46.0089C24.4586 46.0089 20.8633 46.0051 17.2681 46.0108C15.8496 46.0127 15.3267 46.4896 15.3209 47.8728C15.3035 52.013 15.3054 56.1512 15.3209 60.2913C15.3267 61.627 15.9095 62.1951 17.2777 62.197C24.4682 62.2085 31.6588 62.2085 38.8493 62.197C40.1558 62.1951 40.6595 61.6916 40.6633 60.4072C40.6768 56.2367 40.6788 52.0662 40.6633 47.8937C40.6575 46.4877 40.1596 46.0165 38.7432 46.0127C35.1807 46.0051 31.6163 46.0108 28.0539 46.0108V46.0089Z" fill="#727272"/>
<path d="M45.2794 86.2189C34.8217 86.2189 24.3621 86.2189 13.9044 86.2189C13.6149 86.2189 13.3273 86.2246 13.0379 86.2151C11.8915 86.1733 11.1505 85.5387 11.1563 84.6115C11.1621 83.7128 11.9437 83.0059 13.0205 82.9337C13.308 82.9147 13.5975 82.9243 13.887 82.9243C34.9008 82.9243 55.9128 82.9242 76.9266 82.928C77.4052 82.928 77.8935 82.9319 78.3624 83.0136C79.1884 83.1599 79.694 83.6957 79.7152 84.5108C79.7384 85.3734 79.2096 85.932 78.3798 86.141C77.9842 86.2398 77.5519 86.2132 77.137 86.2132C66.5191 86.217 55.8993 86.2151 45.2814 86.2151L45.2794 86.2189Z" fill="#727272"/>
<path d="M45.4029 76.1933C34.7773 76.1933 24.1536 76.1933 13.528 76.1933C11.9456 76.1933 11.1543 75.6594 11.1563 74.6049C11.1601 73.5694 12.0324 72.9196 13.5068 72.9177C34.7561 72.912 56.0054 72.9139 77.2566 72.9177C77.6078 72.9177 77.9648 72.9462 78.3083 73.0146C79.2173 73.1932 79.7924 73.8658 79.7422 74.6486C79.6959 75.3972 78.9915 76.0812 78.1424 76.1705C77.7931 76.2085 77.438 76.1914 77.0848 76.1914C66.5248 76.1914 55.9629 76.1914 45.4029 76.1914V76.1933Z" fill="#727272"/>
<path d="M65.8899 66.1439C61.9144 66.1439 57.9409 66.1534 53.9655 66.1382C52.549 66.1325 51.752 64.9906 52.3502 63.8772C52.7246 63.1799 53.3518 62.9728 54.1179 62.9766C56.8737 62.9899 59.6314 62.9804 62.3892 62.9804C67.3585 62.9804 72.3258 62.9804 77.2951 62.9804C77.5827 62.9804 77.8741 62.969 78.1597 62.9899C79.0841 63.0583 79.7634 63.7423 79.746 64.5726C79.7306 65.3155 79.0165 66.0774 78.1983 66.123C77.3357 66.1724 76.4672 66.1439 75.6027 66.1439C72.3644 66.1439 69.1281 66.1439 65.8899 66.1439Z" fill="#727272"/>
<path d="M28.6559 30.089C28.0789 30.089 27.4961 30.1346 26.9248 30.0776C26.0738 29.994 25.4833 29.5551 25.3675 28.6678C25.2613 27.8546 25.767 27.0889 26.6585 26.9293C27.9863 26.6937 29.3429 26.7089 30.6745 26.9255C31.5526 27.0699 32.008 27.7178 31.9617 28.5652C31.9154 29.424 31.3384 29.9522 30.4796 30.0586C29.8794 30.1346 29.2638 30.0738 28.654 30.0738C28.654 30.0776 28.654 30.0814 28.654 30.0871L28.6559 30.089Z" fill="#727272"/>
<path d="M13.5691 30.0836C12.9921 30.0836 12.4112 30.1254 11.838 30.0741C10.9349 29.9943 10.298 29.3654 10.2343 28.5749C10.1764 27.8339 10.7728 27.0359 11.645 26.9067C12.9457 26.7148 14.2715 26.6977 15.5684 26.9181C16.4252 27.0644 16.8961 27.6705 16.8421 28.5559C16.79 29.4376 16.2535 29.9544 15.3928 30.0608C14.7926 30.1349 14.177 30.076 13.5672 30.076C13.5672 30.0779 13.5672 30.0817 13.5672 30.0836H13.5691Z" fill="#727272"/>
<path d="M21.1104 30.0912C20.5662 30.0912 20.0182 30.1216 19.4759 30.0855C18.5283 30.0209 17.822 29.3748 17.7738 28.5787C17.7294 27.8434 18.3373 27.0283 19.1922 26.9029C20.4929 26.7148 21.8167 26.6996 23.1155 26.9162C23.9917 27.0625 24.4239 27.6933 24.3911 28.5578C24.3564 29.4489 23.7852 29.943 22.936 30.057C22.3378 30.1368 21.7203 30.0722 21.1124 30.0722C21.1124 30.0779 21.1124 30.0836 21.1124 30.0893L21.1104 30.0912Z" fill="#727272"/>
<path d="M54.6815 52.9375C56.2679 52.9375 57.0475 53.4429 57.0765 54.4841C57.1054 55.5728 56.1791 56.2188 54.5966 56.2169C52.9987 56.2131 52.1612 55.645 52.1651 54.5696C52.1708 53.46 52.9775 52.9375 54.6815 52.9394V52.9375Z" fill="#727272"/>
<path d="M74.7963 21.1094C80.4584 21.1284 85.1575 25.7474 85.1768 31.3182C85.198 36.9347 80.4024 41.6619 74.6901 41.6581C68.9489 41.6543 64.2749 36.9784 64.3019 31.2669C64.3289 25.6448 69.0338 21.0904 74.7963 21.1094ZM81.6587 31.4075C81.6703 27.617 78.5073 24.4535 74.7249 24.4706C70.8999 24.4877 67.7466 27.5904 67.7138 31.3657C67.6829 35.0859 70.8073 38.1716 74.6284 38.1963C78.5112 38.221 81.6452 35.1923 81.6568 31.4075H81.6587Z" fill="#727272"/>
</g>
<defs>
<clipPath id="clip0_675_102">
<rect width="99" height="88.2253" fill="white" transform="translate(1 6)"/>
</clipPath>
</defs>
</svg>
