<svg width="91" height="91" viewBox="0 0 91 91" fill="none" xmlns="http://www.w3.org/2000/svg">
<g clip-path="url(#clip0_152_1244)">
<path d="M43.8327 90.9777C43.2862 90.7546 42.7284 90.5538 42.193 90.2973C39.1368 88.8026 37.5083 85.4898 38.2445 82.177C38.3895 81.519 38.2445 81.1843 37.6533 80.8497C31.34 77.2357 25.0491 73.5995 18.7581 69.9409C18.1335 69.584 17.7654 69.6398 17.23 70.1305C15.0549 72.1383 11.876 72.5398 9.13206 71.2348C6.65583 70.0636 4.89347 67.1858 5.00501 64.5088C5.13886 61.3745 7.00161 58.7087 9.86823 57.7382C10.716 57.4482 10.9837 57.0578 10.9725 56.1655C10.939 49.0714 10.939 41.9774 10.9725 34.8722C10.9725 34.0802 10.7829 33.6787 9.96862 33.411C6.54429 32.2621 4.57 28.8601 5.12771 25.2127C5.62964 21.8664 8.71935 19.1671 12.1995 19.1002C14.1626 19.0556 15.925 19.7025 17.3638 21.0745C17.81 21.4983 18.1223 21.5318 18.6577 21.2306C24.971 17.5609 31.2843 13.9135 37.6198 10.2772C38.2445 9.92028 38.3783 9.58565 38.2333 8.88294C37.6756 5.99401 38.5122 3.51778 40.8099 1.68849C43.1969 -0.207716 45.8851 -0.520033 48.629 0.818469C51.306 2.12351 52.6668 4.3655 52.7449 7.35482C52.7449 7.80099 52.8007 8.28061 52.6557 8.67101C52.3322 9.54104 52.6334 9.9649 53.4142 10.3999C59.6493 13.9581 65.8622 17.5609 72.0751 21.1637C72.6328 21.4872 72.9897 21.5206 73.5251 21.0522C75.7225 19.1113 78.2545 18.5536 81.0207 19.591C83.7424 20.6171 85.2816 22.6584 85.7501 25.525C85.7836 25.7034 85.8282 25.8708 85.8728 26.0381V26.9304C85.3709 30.2655 83.6754 32.5967 80.3626 33.6118C79.9388 33.7456 79.883 34.0691 79.883 34.4483C79.883 41.8547 79.883 49.2722 79.883 56.6786C79.883 57.1694 80.0503 57.4482 80.53 57.5709C81.1881 57.7494 81.8015 58.0394 82.3816 58.4075C84.5232 59.7572 85.5159 61.7761 85.8728 64.1965V65.0889C85.8282 65.3231 85.7836 65.5462 85.739 65.7804C85.3263 67.9443 84.2778 69.6955 82.3704 70.8667C81.6231 71.324 80.8646 71.1567 80.4184 70.5098C79.9723 69.8628 80.1061 69.1044 80.7642 68.5466C81.0542 68.3013 81.3777 68.0782 81.6454 67.8105C83.4858 65.97 83.4077 63.1034 81.4781 61.3187C79.6376 59.6121 76.7152 59.7795 75.0421 61.6868C73.4024 63.5496 73.659 66.5277 75.5887 68.1228C75.8117 68.3124 76.0794 68.4686 76.2802 68.6693C76.8379 69.2271 76.9272 69.8851 76.4698 70.5098C76.0237 71.1344 75.3656 71.3352 74.674 70.9336C74.2167 70.6771 73.7817 70.3425 73.4024 69.9744C73.012 69.584 72.6997 69.5951 72.2424 69.8628C65.8734 73.5549 59.5043 77.2469 53.1241 80.9055C52.5553 81.229 52.4214 81.5747 52.5887 82.177C52.8564 83.1252 52.8453 84.1179 52.6334 85.0771C51.953 88.2672 49.9229 90.1523 46.8332 91H43.8216L43.8327 90.9777ZM19.7508 26.2054C19.762 29.6409 17.8323 32.3736 14.7315 33.4333C14.0845 33.6564 13.8503 33.9575 13.8503 34.6379C13.8726 41.9105 13.8726 49.183 13.8503 56.4667C13.8503 57.1248 14.0622 57.4482 14.7203 57.6713C18.3343 58.8983 20.3643 62.4453 19.5724 66.1597C19.4162 66.907 19.6728 67.2081 20.2416 67.5428C26.5772 71.179 32.8905 74.8376 39.2149 78.4962C39.661 78.7527 39.9399 78.775 40.3638 78.3958C43.3865 75.663 47.4801 75.663 50.4806 78.3846C50.8822 78.7527 51.161 78.775 51.6295 78.5073C57.9651 74.8264 64.3229 71.1567 70.6808 67.5093C71.2608 67.1747 71.4281 66.8512 71.2831 66.1708C70.4912 62.5122 72.499 58.9206 76.046 57.7159C76.8268 57.4482 77.0164 57.069 77.0164 56.3105C76.9941 49.1495 76.9941 41.9997 77.0164 34.8387C77.0164 34.0245 76.771 33.6564 75.9902 33.3887C72.5213 32.184 70.5023 28.6258 71.2831 25.0677C71.4505 24.3203 71.2608 23.9634 70.6251 23.5953C64.3118 19.9813 58.0208 16.3451 51.7299 12.6865C51.2168 12.3854 50.9156 12.363 50.436 12.7981C47.5582 15.4416 43.3308 15.4528 40.453 12.8092C39.9957 12.3854 39.6834 12.363 39.1591 12.6754C33.0243 16.2447 26.8784 19.7806 20.7324 23.3276C19.472 24.0526 19.4831 24.0638 19.7062 25.4692C19.7508 25.7927 19.762 26.1161 19.762 26.2054H19.7508ZM49.9564 7.44405C50.001 5.03475 47.904 2.91545 45.4612 2.87084C43.0519 2.82622 40.9326 4.92321 40.888 7.36597C40.8434 9.77528 42.9404 11.8946 45.3831 11.9392C47.7813 11.9838 49.9117 9.88682 49.9564 7.44405ZM45.4166 79.1766C42.985 79.1877 40.8769 81.307 40.888 83.7275C40.8992 86.1591 43.0185 88.2672 45.4389 88.2561C47.8705 88.2449 49.9787 86.1256 49.9564 83.7052C49.9452 81.2736 47.8371 79.1654 45.4166 79.1766ZM16.8507 26.4954C16.8507 23.9188 14.9434 22.0003 12.3779 22.0003C9.89054 22.0003 7.84933 24.0415 7.87163 26.5177C7.89394 28.9605 9.9017 30.9682 12.3556 30.9682C14.9211 30.9682 16.8507 29.0609 16.8507 26.4954ZM78.5111 22.0003C75.9456 21.9891 74.0048 23.8853 73.9825 26.4285C73.9602 28.9939 75.8564 30.9571 78.3884 30.9682C80.8869 30.9905 82.9281 29.0162 82.9616 26.54C82.995 24.0749 80.9761 22.0114 78.4999 22.0003H78.5111ZM16.8507 64.6427C16.8507 62.0772 14.9434 60.1476 12.3779 60.1476C9.89054 60.1476 7.84933 62.1888 7.87163 64.665C7.89394 67.1078 9.9017 69.1044 12.3556 69.1155C14.9211 69.1155 16.8507 67.2081 16.8507 64.6427Z" fill="white"/>
<path d="M23.0645 45.5683C23.0645 42.1663 23.0645 38.7642 23.0645 35.3622C23.0645 33.5887 23.7783 32.2502 25.3511 31.3578C31.2962 27.9447 37.2414 24.5203 43.1643 21.0737C44.6589 20.2037 46.0978 20.1591 47.6036 21.0291C53.5823 24.498 59.5832 27.9558 65.573 31.4025C67.0454 32.2502 67.7592 33.5218 67.7816 35.1949C67.8039 38.028 67.7816 40.8724 67.7816 43.7055C67.7816 44.2186 67.7146 44.7206 67.3689 45.1221C66.9562 45.5906 66.4207 45.7356 65.8407 45.5237C65.1826 45.2783 64.9038 44.7429 64.8926 44.0625C64.8926 41.8985 64.8926 39.7458 64.8815 37.5819C64.8815 37.1246 65.1157 36.4776 64.7365 36.2545C64.3461 36.0203 63.9222 36.5669 63.5095 36.7899C62.7287 37.2138 61.9814 37.6934 61.2006 38.1061C60.6875 38.3738 60.509 38.7531 60.5202 39.3219C60.5425 41.6532 60.4867 43.9955 60.5425 46.3268C60.576 47.8549 59.9736 48.9257 58.624 49.6395C57.4751 50.2419 56.3597 50.9334 55.2331 51.5692C53.4484 52.5843 51.8645 51.6919 51.8088 49.6395C51.7753 47.9887 51.8088 46.3268 51.7976 44.6759C51.7976 43.6386 51.7195 43.594 50.8495 44.0959C49.7452 44.7317 48.6521 45.3787 47.5479 45.9921C47.0794 46.2487 46.8786 46.5721 46.8786 47.1187C46.8898 53.5324 46.8898 59.9572 46.8786 66.3708C46.8786 67.0401 47.0571 67.1516 47.6371 66.817C53.1361 63.6269 58.6351 60.4479 64.1453 57.269C64.6919 56.9567 64.9149 56.5105 64.9149 55.8859C64.8926 54.2016 64.9038 52.5173 64.9149 50.833C64.9149 49.6953 65.428 49.0707 66.3204 49.0595C67.2239 49.0484 67.7704 49.6395 67.7927 50.7884C67.8262 52.5619 67.8373 54.3355 67.7927 56.109C67.7481 57.704 67.0231 58.9198 65.6176 59.7341C59.5944 63.1919 53.5823 66.672 47.5702 70.1409C46.1313 70.9775 44.7259 70.9552 43.287 70.1186C37.2972 66.6497 31.3074 63.1919 25.3176 59.7452C23.7783 58.8641 23.0868 57.5256 23.0868 55.7967C23.0868 52.3946 23.0868 48.9926 23.0868 45.5906L23.0645 45.5683ZM43.9785 56.6778C43.9785 53.51 43.9785 50.3534 43.9785 47.1856C43.9785 46.6948 43.9228 46.3044 43.4097 46.0144C37.8437 42.8243 32.289 39.6231 26.7342 36.4107C26.0984 36.0426 25.9534 36.1765 25.9534 36.868C25.9645 43.1701 25.9757 49.4611 25.9534 55.7632C25.9534 56.5105 26.2322 56.9678 26.868 57.3359C32.3001 60.4591 37.7322 63.5934 43.142 66.7389C43.7778 67.107 43.9897 67.0512 43.9785 66.2593C43.9451 63.0692 43.9674 59.8679 43.9674 56.6778H43.9785ZM45.529 43.7167C45.6071 43.6944 45.7967 43.6721 45.9417 43.5828C47.2802 42.8243 48.6187 42.077 49.946 41.2962C50.526 40.9616 50.0353 40.8054 49.7787 40.6604C44.2016 37.4257 38.6245 34.2022 33.0474 30.9675C32.579 30.6998 32.1886 30.6998 31.7312 30.9675C30.5712 31.6702 29.3889 32.3506 28.1954 33.0087C27.6377 33.321 27.4815 33.5552 28.1508 33.9456C33.6386 37.0911 39.1153 40.2589 44.592 43.4267C44.8486 43.5717 45.1051 43.7278 45.5067 43.7167H45.529ZM41.1788 25.5354C41.2904 25.6915 41.3127 25.725 41.335 25.7361C47.0794 29.0712 52.8238 32.4063 58.5682 35.7526C58.9474 35.9757 59.2821 35.9311 59.639 35.7191C60.654 35.1168 61.6691 34.5145 62.7064 33.9568C63.4091 33.5775 63.1972 33.3321 62.6506 33.0198C61.1894 32.1944 59.7282 31.3467 58.267 30.499C54.3519 28.2347 50.448 25.9704 46.5328 23.7172C46.0198 23.4272 45.5178 23.0591 44.882 23.4161C43.6551 24.1188 42.4281 24.8215 41.1677 25.5465L41.1788 25.5354ZM56.2035 37.6934C55.7239 37.4034 55.4227 37.2249 55.1216 37.0465C50.158 34.1799 45.2055 31.3021 40.2419 28.4355C38.8588 27.6324 37.4794 27.6435 36.1037 28.4689C36.1037 28.4689 36.0033 28.5358 35.9475 28.5581C35.3452 28.8482 35.4679 29.0712 35.9698 29.3612C41.5469 32.5737 47.124 35.8084 52.7011 39.0319C52.98 39.1992 53.2588 39.3666 53.6046 39.1769C54.4189 38.7085 55.2331 38.2511 56.2035 37.6934ZM57.6313 43.6944C57.6313 42.7463 57.6313 41.8093 57.6313 40.8612C57.6313 40.3816 57.4305 40.2812 57.0289 40.5154C56.3931 40.8835 55.7574 41.2628 55.1216 41.6308C54.7981 41.8205 54.72 42.1105 54.72 42.4563C54.72 44.2521 54.72 46.0591 54.72 47.8549C54.72 48.4014 54.8873 48.4349 55.3447 48.223C57.6313 47.1299 57.6424 47.141 57.6424 44.5867V43.7055L57.6313 43.6944Z" fill="white"/>
</g>
<defs>
<clipPath id="clip0_152_1244">
<rect width="91" height="91" fill="white"/>
</clipPath>
</defs>
</svg>
