<svg width="231" height="127" viewBox="0 0 231 127" fill="none" xmlns="http://www.w3.org/2000/svg">
<g clip-path="url(#clip0_503_4101)">
<g clip-path="url(#clip1_503_4101)">
<path d="M153.999 52.8138C152.875 52.2133 151.731 51.6449 150.631 51.0057C145.218 47.8528 139.817 44.6763 134.405 41.5148C129.427 38.6065 124.44 35.7066 119.458 32.8025C118.536 32.2642 117.613 31.7258 116.685 31.1982C116.38 31.0245 116.052 30.8915 115.604 30.6792C102.966 38.1796 90.3074 45.6951 77.5005 53.2964V50.8213C90.168 43.3873 102.9 35.9147 115.72 28.3906C117.066 29.1606 118.426 29.9285 119.775 30.7113C124.087 33.2122 128.391 35.7259 132.702 38.2247C137.97 41.2768 143.24 44.3224 148.514 47.3595C150.333 48.4083 152.169 49.4293 153.999 50.4631V52.816V52.8138Z" fill="#CECECE"/>
<path d="M81.2754 99.0057C81.3011 98.8341 81.3247 98.6603 81.3612 98.418H150.889C150.927 98.6131 150.966 98.8083 151.002 99.0057H81.2754Z" fill="#CECECE"/>
<path d="M85.2887 50.7174C85.8313 50.4107 86.3182 50.134 86.9917 49.7522C87.0239 50.3185 87.0668 50.7174 87.0668 51.1185C87.0775 57.4629 87.0775 63.8052 87.0989 70.1496C87.1011 70.8852 87.2169 71.6231 87.2791 72.333C88.2379 72.4381 88.5724 72.2965 88.7977 71.4836C89.0036 70.7394 89.1344 69.9479 89.1365 69.1758C89.1687 62.7606 89.1623 56.3454 89.1666 49.9302C89.1666 49.5056 89.1666 49.0809 89.1666 48.5661C89.7414 48.2037 90.299 47.8519 90.9618 47.4337C91.2792 48.5833 91.0819 49.6386 91.1141 50.6745C91.1484 51.7791 91.1184 52.8837 91.1162 53.9883C91.1162 55.0564 91.1119 56.1267 91.1119 57.1948C91.1119 58.2629 91.1141 59.3332 91.1162 60.4013C91.1162 61.5059 91.1227 62.6105 91.1227 63.7151C91.1227 64.7789 91.1227 65.8427 91.1227 66.898C92.4053 66.9924 93.0316 66.4883 93.201 65.2744C93.2439 64.9591 93.2268 64.6331 93.2268 64.3135C93.2268 58.6833 93.2268 53.051 93.2268 47.4208C93.2268 46.9983 93.2268 46.5757 93.2268 46.0931C93.8445 45.7414 94.415 45.4197 95.1936 44.9778C95.1936 45.6449 95.1936 46.0631 95.1936 46.4792C95.1914 51.6118 95.1872 56.7422 95.185 61.8748C95.185 62.1236 95.1764 62.3746 95.1914 62.6234C95.2279 63.2925 95.5132 63.6572 96.0022 63.6786C96.4376 63.6979 96.9674 63.2818 97.0596 62.7778C97.124 62.4325 97.1068 62.0678 97.1068 61.7118C97.1068 56.1889 97.1025 50.6638 97.0982 45.1408C97.0982 44.7183 97.0982 44.2958 97.0982 43.8025C97.7138 43.4443 98.28 43.1161 99.0479 42.6679C99.0479 43.262 99.0479 43.6395 99.0479 44.0191C99.0457 47.6181 99.0179 51.2171 99.0479 54.8183C99.0736 57.9047 99.168 60.9911 99.2366 64.0775C99.2409 64.2877 99.2945 64.4958 99.3224 64.6802C100.086 65.0727 100.436 65.0277 100.674 64.3392C100.922 63.6121 101.137 62.8271 101.139 62.0657C101.171 55.6162 101.15 49.1645 101.146 42.715C101.146 42.2925 101.146 41.8721 101.146 41.4324C101.763 41.0785 102.31 40.7654 103.039 40.3471C103.076 40.8876 103.125 41.2844 103.125 41.6812C103.121 46.9918 103.106 52.3024 103.099 57.6109C103.099 58.0656 103.138 58.5181 103.155 58.8849C103.657 59.3482 104.028 59.2152 104.378 58.8913C104.886 58.4216 105.036 57.8232 105.032 57.1497C105.019 55.1186 105.028 53.0874 105.026 51.0563C105.023 47.528 105.019 43.9998 105.017 40.4715C105.017 40.049 105.017 39.6265 105.017 39.1589C105.705 38.7621 106.336 38.3996 107.061 37.9793C107.121 38.3932 107.183 38.6313 107.188 38.8715C107.256 42.0373 107.325 45.2052 107.374 48.3731C107.398 49.941 107.372 51.5088 107.387 53.0767C107.391 53.4499 107.471 53.821 107.514 54.1749C108.496 54.192 108.925 53.8832 109.043 53.1218C109.092 52.8086 109.069 52.4826 109.069 52.1609C109.077 47.4208 109.086 42.6807 109.094 37.9406C109.094 37.5889 109.094 37.235 109.094 36.7996C109.751 36.4178 110.373 36.0532 111.231 35.5535C111.231 36.1969 111.231 36.5744 111.231 36.9497C111.226 41.2973 111.218 45.6449 111.216 49.9924C111.216 51.2793 111.452 51.5346 112.908 51.7769V34.6119C113.68 34.1636 114.281 33.6017 115.139 33.4258V50.9405C115.696 51.042 116.373 50.8132 117.17 50.2541V33.7046C118.081 33.8204 118.615 34.4231 119.372 34.8092C119.372 35.2231 119.372 35.6435 119.372 36.0661C119.366 40.5917 119.36 45.1172 119.353 49.645C119.353 50.252 119.317 50.874 120.057 51.3051C120.31 51.1936 120.619 51.0584 121.033 50.8783V35.7894C121.848 36.2398 122.452 36.5744 123.104 36.9347C123.135 37.3873 123.188 37.8055 123.188 38.2238C123.197 42.6421 123.19 47.0626 123.21 51.481C123.212 51.97 123.3 52.4719 123.435 52.9437C123.572 53.4285 123.915 53.718 124.64 53.585C124.72 53.066 124.868 52.5233 124.874 51.9807C124.906 49.2375 124.88 46.4921 124.917 43.7488C124.938 42.078 125.035 40.4093 125.106 38.7385C125.112 38.6098 125.179 38.4854 125.256 38.2366C125.927 38.6163 126.532 38.9594 127.195 39.3326C127.216 39.7745 127.25 40.1949 127.25 40.6131C127.25 45.78 127.246 50.949 127.235 56.1159C127.235 56.6972 127.255 57.2548 127.684 57.7117C128.066 58.1192 128.477 58.2972 129.097 57.9047C129.123 57.5401 129.177 57.1262 129.177 56.7122C129.177 51.7941 129.164 46.876 129.159 41.9579C129.159 41.5483 129.185 41.1386 129.202 40.5573C129.923 40.9584 130.472 41.2651 131.124 41.6298C131.124 42.0394 131.124 42.4598 131.124 42.878C131.12 49.2932 131.109 55.7084 131.124 62.1236C131.124 62.6405 131.248 63.1746 131.414 63.6679C131.555 64.0861 131.9 64.3542 132.458 64.292C132.857 63.1832 132.312 62.2952 131.768 61.3086C132.186 61.2099 132.542 61.1263 132.898 61.0426C133.34 60.6051 133.228 60.0453 133.228 59.5241C133.232 54.4644 133.228 49.4026 133.224 44.343C133.224 43.929 133.224 43.5129 133.224 42.8909C133.968 43.307 134.515 43.6137 135.174 43.9826C135.174 44.3837 135.174 44.802 135.174 45.2202C135.169 50.3163 135.18 55.4124 135.15 60.5085C135.144 61.6346 135.592 62.3831 136.501 62.8593C137.158 62.6298 137.078 62.1622 137.082 61.7461C137.093 60.2855 137.095 58.8249 137.093 57.3621C137.089 53.7631 137.08 50.164 137.078 46.5629C137.078 46.1854 137.108 45.81 137.134 45.2395C137.846 45.6299 138.393 45.9301 139.043 46.2883C139.043 46.7151 139.043 47.1334 139.043 47.5538C139.043 52.7571 139.043 57.9605 139.032 63.1639C139.03 64.2384 139.313 65.1242 140.338 65.6025C140.898 65.5253 141.1 65.1864 141.132 64.7124C141.151 64.4293 141.145 64.1419 141.145 63.8566C141.145 58.9385 141.145 54.0204 141.145 49.1023C141.145 48.682 141.145 48.2616 141.145 47.7704C142.018 47.8519 142.496 48.3731 143.103 48.8728C143.103 49.2568 143.103 49.6814 143.103 50.104C143.107 56.1267 143.131 62.1493 143.101 68.172C143.094 69.3688 143.633 70.1817 144.482 70.941C145.006 70.6407 145.115 70.1624 145.169 69.6691C145.203 69.3517 145.184 69.0278 145.184 68.7082C145.19 62.9344 145.194 57.1605 145.203 51.3887C145.203 50.9769 145.229 50.5651 145.248 49.9603C145.969 50.3656 146.511 50.6702 147.032 50.9641C147.032 53.0596 147.037 55.0821 147.028 57.1047C147.028 57.4221 146.947 57.7417 146.955 58.0592C147.005 59.73 147.107 61.3987 147.122 63.0695C147.153 66.632 147.131 70.1968 147.146 73.7615C147.15 74.8532 147.386 75.0419 148.508 74.954C149.027 74.6194 149.042 74.0853 149.042 73.5405C149.042 71.829 149.044 70.1195 149.046 68.408C149.051 64.2749 149.061 60.1396 149.051 56.0066C149.051 55.2644 148.935 54.5223 148.898 53.7781C148.875 53.2955 148.894 52.8108 148.894 52.1158C149.703 52.6027 150.323 52.9781 150.951 53.3577V82.9649H148.907C148.718 81.0625 148.933 79.1857 148.783 77.3369C148.09 77.2039 148.049 77.6071 148.043 78.0147C148.025 79.3337 148.021 80.6507 148.006 81.9697C148.002 82.3193 147.974 82.6689 147.953 83.0893C147.627 83.1129 147.369 83.1322 146.957 83.1601V76.6913C146.52 76.6677 146.211 76.5905 145.93 76.6463C144.675 76.9015 143.425 77.1846 142.179 77.4763C141.222 77.6994 141.038 77.8924 140.935 78.9133C140.842 79.8313 140.817 80.7557 140.765 81.678C140.739 82.1306 140.718 82.5831 140.69 83.1043H139.493C139.47 82.5789 139.433 82.092 139.427 81.6051C139.416 80.715 139.416 79.8227 139.425 78.9326C139.435 77.5578 139.721 77.1567 141.001 76.7664C141.715 76.5476 142.451 76.3975 143.165 76.1808C144.448 75.7926 144.763 75.1642 144.19 73.9373C143.695 72.8735 143.122 71.8418 142.517 70.8338C140.744 67.8782 138.196 65.6561 135.493 63.5993C135.096 63.2968 134.627 62.9472 133.953 63.1939C133.987 63.4341 133.983 63.6765 134.058 63.8909C134.976 66.4712 135.615 69.1372 136.602 71.7024C137.297 73.5084 137.625 75.4773 137.921 77.4034C138.163 78.9755 138.129 80.5927 138.185 82.1906C138.198 82.5531 138.071 82.9177 138.011 83.2673C137.29 83.366 136.969 82.9585 136.63 82.6089C134.772 80.6914 132.926 78.7589 131.062 76.8479C130.723 76.5004 130.313 76.2259 129.906 75.8934C129.376 76.1315 128.902 76.2924 128.482 76.5433C125.391 78.39 122.382 80.3568 119.58 82.626C119.036 83.0679 118.512 83.1065 117.91 82.7054C118.019 82.1585 118.491 81.9654 118.823 81.6973C120.211 80.5842 121.644 79.5246 123.036 78.4157C123.527 78.0254 123.952 77.5492 124.451 77.0688C122.729 72.125 120.29 67.6637 117.605 63.3247C117.53 63.3354 117.455 63.3483 117.38 63.359C117.318 63.5714 117.208 63.7837 117.204 63.9982C117.187 64.854 117.208 65.7076 117.206 66.5634C117.204 71.518 117.2 76.4704 117.195 81.4249C117.195 81.8089 117.195 82.1928 117.195 82.6732H115.583C115.55 82.3343 115.499 82.0255 115.499 81.7166C115.495 76.5497 115.49 71.3807 115.505 66.2138C115.507 65.506 115.664 64.7982 115.662 64.0926C115.662 63.625 115.507 63.1574 115.422 62.6877L115.143 62.6169C114.894 62.9279 114.607 63.2175 114.401 63.5564C112.97 65.9007 111.694 68.3243 110.784 70.9281C110.291 72.3394 109.787 73.7486 109.315 75.1663C109.182 75.5653 109.124 75.9964 109.077 76.4168C108.989 77.1953 109.283 77.7594 109.965 78.2098C111.452 79.19 112.891 80.241 114.347 81.2662C114.577 81.4292 114.797 81.6051 115.121 81.8496C114.997 82.1842 114.873 82.5167 114.692 82.9971C114.227 82.6818 113.877 82.463 113.547 82.2164C110.909 80.2689 108.269 78.3321 105.289 76.9122C103.921 76.2602 103.2 76.3138 102.145 77.4291C100.727 78.9262 99.3289 80.449 97.9883 82.0148C97.229 82.9006 96.384 83.3724 95.2043 83.1966C94.6917 83.1193 94.1684 83.1129 93.6729 83.0765C93.0659 81.7531 92.4954 80.5691 91.9785 79.3595C91.6868 78.6774 91.2406 78.2313 90.5028 78.1198C89.3789 77.9503 88.2529 77.7787 87.1247 77.6522C86.6035 77.5943 86.0716 77.6415 85.4903 77.6415V83.1065C85.1085 83.1279 84.7761 83.1494 84.3256 83.1751C84.1476 81.545 84.3278 79.9836 84.2012 78.3707C83.9589 78.3535 83.768 78.3428 83.427 78.3192V82.8577C82.6956 83.3188 82.0757 83.1773 81.4687 83.0915C81.2028 82.225 81.0998 56.0108 81.3486 53.1732C81.9106 52.8108 82.524 52.414 83.279 51.9271C83.6629 54.7325 83.1224 57.3707 83.1953 60.011C83.2682 62.6469 83.2275 65.2851 83.2318 67.9232C83.2361 70.5935 83.2318 73.2617 83.2318 75.9084C83.6801 76.3524 84.1605 76.4361 84.6474 76.2109C85.1514 75.9771 85.1257 75.4709 85.1257 75.0012C85.1278 69.9758 85.13 64.9505 85.145 59.9252C85.145 59.4297 85.2351 58.9364 85.2651 58.4409C85.2865 58.087 85.2951 57.731 85.2887 57.3771C85.2479 55.2795 85.2007 53.1818 85.1621 51.0842C85.1621 50.9855 85.2286 50.8847 85.2844 50.7238L85.2887 50.7174ZM125.429 75.9084C126.088 76.183 126.526 76.1637 126.952 75.8934C127.253 75.7025 127.566 75.5309 127.866 75.3401C129.603 74.2398 130.935 74.718 131.988 75.8226C133.194 77.0859 134.446 78.3042 135.688 79.5289C135.952 79.7884 136.261 80.0008 136.737 80.3847C136.849 79.8785 137.001 79.5847 136.958 79.3209C136.651 77.3927 136.403 75.4494 135.95 73.5534C135.444 71.4322 134.556 69.4396 133.335 67.6165C131.956 65.5575 130.052 64.084 127.915 62.8893C127.634 62.7327 127.265 62.7306 126.929 62.6555C126.779 62.9429 126.637 63.1167 126.596 63.3118C126.489 63.8309 126.425 64.3607 126.343 64.8862C126.077 66.6042 125.766 68.3179 125.556 70.0423C125.372 71.5566 125.273 73.0837 125.194 74.6065C125.17 75.0441 125.35 75.4902 125.429 75.9041V75.9084ZM106.433 75.9084C106.868 75.2478 106.701 74.7288 106.611 74.2054C106.066 71.0547 105.527 67.9018 104.983 64.751C104.865 64.0711 104.738 63.3933 104.622 62.7392C103.863 62.6062 103.486 63.003 103.117 63.3826C101.596 64.9419 100.206 66.6084 99.0822 68.4787C96.7722 72.3309 95.599 76.4854 95.8242 81.0003C95.8392 81.2834 95.9679 81.5601 96.0751 81.9611C96.3968 81.7381 96.5942 81.648 96.7272 81.5021C97.7116 80.4254 98.6554 79.3101 99.6677 78.2613C100.453 77.4463 101.257 76.6227 102.166 75.9578C103.089 75.2821 104.174 75.0934 105.3 75.591C105.643 75.7433 106.029 75.7969 106.43 75.9063L106.433 75.9084ZM94.1019 81.1354C94.3249 80.8415 94.4193 80.7686 94.4429 80.6764C94.4879 80.5069 94.5051 80.3268 94.5094 80.1509C94.5587 77.9653 95.0821 75.8634 95.6226 73.7636C96.3025 71.1147 96.9781 68.4637 97.643 65.8106C97.7588 65.3451 97.8596 64.854 97.465 64.3156C97.0961 64.5494 96.7507 64.721 96.459 64.9612C94.9534 66.2031 93.4177 67.3999 92.1715 68.942C90.5929 70.8938 89.2438 72.9636 88.3301 75.3079C88.0126 76.1208 88.2121 76.6162 89.0379 76.8736C89.5741 77.0409 90.1532 77.1632 90.7109 77.1524C91.8498 77.131 92.4932 77.7315 92.9115 78.686C93.126 79.175 93.2868 79.6855 93.5077 80.1702C93.645 80.4683 93.8509 80.7364 94.1019 81.1375V81.1354ZM108.02 73.7207C108.136 73.7293 108.251 73.7357 108.369 73.7443C108.526 73.4462 108.71 73.1588 108.837 72.8478C109.315 71.6617 109.809 70.4777 110.227 69.268C110.409 68.7426 110.583 68.1291 110.484 67.6079C110.158 65.8835 110.446 64.2127 110.718 62.5268C111.106 60.1268 111.818 57.8211 112.734 55.5754C112.951 55.0457 113.049 54.5223 112.775 53.9196C112.571 54.0333 112.43 54.0784 112.337 54.1706C112.059 54.4451 111.784 54.7261 111.535 55.0264C109.749 57.1712 108.339 59.5434 107.209 62.0979C106.521 63.6529 106.338 65.2615 106.587 66.9001C106.874 68.7962 107.286 70.6729 107.664 72.5539C107.743 72.9507 107.902 73.3325 108.024 73.7228L108.02 73.7207ZM123.9 71.5759C124.063 71.0161 124.192 70.7008 124.243 70.3726C124.559 68.3758 124.814 66.3704 125.183 64.3843C125.322 63.6357 125.249 62.9815 124.955 62.3166C124.595 61.5038 124.233 60.693 123.877 59.8801C122.98 57.8425 121.712 56.0516 120.2 54.4301C120.001 54.2178 119.735 54.0655 119.463 53.8574C119.229 54.5674 119.227 54.8955 119.557 55.5733C120.702 57.9197 121.238 60.4442 121.208 63.0008C121.181 65.491 121.541 67.7903 122.817 69.9308C122.999 70.2354 123.117 70.5764 123.298 70.8831C123.4 71.059 123.566 71.1962 123.9 71.5759V71.5759ZM111.917 64.7296C112.091 64.6588 112.181 64.6502 112.213 64.603C113.273 63.0459 114.338 61.4909 115.37 59.9144C115.555 59.6335 115.681 59.2645 115.69 58.93C115.726 57.613 115.733 56.294 115.69 54.977C115.675 54.5116 115.48 54.0526 115.31 53.362C112.936 56.7465 112.279 60.4077 111.73 64.1033C111.702 64.2963 111.848 64.5151 111.915 64.7296H111.917ZM119.703 63.8009C120.531 62.4947 119.07 55.9486 117.2 54.1427C117.125 54.4666 117.024 54.7175 117.015 54.9727C116.987 55.7191 116.994 56.4655 116.994 57.2119C116.99 59.4454 117.662 61.4437 119.01 63.2067C119.139 63.3762 119.278 63.5392 119.43 63.685C119.497 63.7494 119.613 63.7623 119.703 63.7987V63.8009ZM128.136 61.2099C128.023 60.7595 128.018 60.5321 127.918 60.3648C126.255 57.6452 124.288 55.1829 121.747 53.2247C121.612 53.1196 121.382 53.1346 120.93 53.0317C121.247 53.5271 121.412 53.8231 121.614 54.0912C121.848 54.4022 122.156 54.6639 122.36 54.992C123.375 56.62 124.357 58.2651 125.369 59.8951C125.569 60.2147 125.792 60.6222 126.101 60.7488C126.669 60.9804 127.313 61.034 128.138 61.2078L128.136 61.2099ZM110.102 54.5631C108.725 54.9878 105.804 58.2415 105.478 59.5434C105.759 59.9659 106.034 60.382 106.39 60.9204C107.829 58.8549 108.843 56.6436 110.102 54.5652V54.5631Z" fill="#CECECE"/>
<path d="M126.333 91.7553C126.781 92.536 127.161 93.2137 127.558 93.8829C127.95 94.5414 128.358 95.1913 128.808 95.9227C128.143 96.1371 127.429 96.0278 126.646 95.9548C126.247 95.262 125.848 94.5543 125.432 93.8572C125.031 93.1816 124.834 92.3665 124.16 91.7981C123.765 92.6925 123.78 94.3569 124.154 95.4315C124.347 95.5259 124.563 95.6331 124.778 95.7382C124.741 95.8261 124.718 95.9377 124.694 95.9377C123.605 95.9463 122.515 95.9463 121.243 95.9463C121.586 95.6588 121.809 95.4744 122.082 95.2449V87.5192C121.794 87.3047 121.548 87.1203 121.162 86.835C122.882 86.835 124.465 86.7599 126.037 86.8629C127.03 86.9272 127.549 87.7273 127.811 88.6345C128.081 89.574 127.785 90.389 127.144 91.0861C126.933 91.3134 126.665 91.4872 126.335 91.7574L126.333 91.7553ZM123.92 91.1847C125.344 91.4014 125.927 90.9531 125.975 89.6962C125.985 89.4131 125.988 89.1278 125.96 88.8469C125.842 87.6458 125.185 87.2533 123.918 87.6736V91.1826L123.92 91.1847Z" fill="#CECECE"/>
<path d="M93.256 91.6867C94.0882 93.1281 94.8647 94.4707 95.6818 95.8842C95.0663 96.178 94.3756 95.9807 93.6121 95.9828C92.8378 94.5951 92.0549 93.1903 91.2227 91.7017C90.8559 92.4846 90.8023 93.7736 91.0168 95.3158C91.2442 95.4573 91.5058 95.6203 91.7653 95.7834C91.7353 95.8498 91.7096 95.9592 91.6817 95.9592C90.5535 95.9678 89.4275 95.9657 88.2178 95.9013C89.406 95.4402 89.1529 94.46 89.1615 93.5913C89.1765 91.9548 89.1744 90.3205 89.1679 88.684C89.1637 87.5772 89.1529 87.5772 88.2328 86.833C89.8736 86.833 91.4265 86.7515 92.9665 86.8651C93.8008 86.9273 94.5408 87.4528 94.7038 88.373C94.8925 89.4454 94.8775 90.5178 93.8995 91.2899C93.7343 91.4186 93.5413 91.5109 93.2539 91.6867H93.256ZM90.9546 91.1977C92.2737 91.3307 92.9407 90.8202 93.0158 89.6985C93.0394 89.3489 93.0201 88.9842 92.9429 88.6432C92.6876 87.5172 92.1557 87.2598 90.9567 87.6802V91.1977H90.9546Z" fill="#CECECE"/>
<path d="M136.456 91.2221C136.514 92.8907 136.136 94.2355 134.961 95.3058C133.387 96.7364 131.186 96.4147 129.955 94.8962C128.966 93.6779 128.726 92.2409 128.904 90.6901C129.045 89.4483 129.386 88.3351 130.326 87.4557C131.92 85.9651 134.562 86.3318 135.669 88.215C136.239 89.1845 136.595 90.2161 136.456 91.2221ZM130.729 91.3164C130.862 92.524 130.841 93.7015 131.463 94.7718C132.022 95.7348 133.018 95.8313 133.73 94.982C133.886 94.7954 134.03 94.5723 134.099 94.3428C134.704 92.3159 134.779 90.2826 134.049 88.2686C133.777 87.5136 133.316 87.2284 132.602 87.2391C131.881 87.252 131.463 87.6831 131.31 88.3094C131.068 89.3003 130.92 90.3127 130.731 91.3164H130.729Z" fill="#CECECE"/>
<path d="M99.681 86.5625C101.29 86.5668 102.577 87.5599 103.169 89.3508C103.69 90.9229 103.653 92.4994 102.922 94.0158C102.268 95.3713 101.204 96.1906 99.6639 96.2121C98.1046 96.2335 97.0064 95.3756 96.3887 94.0394C95.4879 92.0854 95.5736 90.0929 96.6632 88.214C97.341 87.0451 98.3233 86.5604 99.6767 86.5625H99.681ZM97.6327 91.2854C97.6735 91.2919 97.7142 91.3004 97.7571 91.3069C97.7571 91.5557 97.7121 91.813 97.7657 92.049C97.963 92.9434 98.1325 93.8506 98.4284 94.7129C98.6022 95.219 99.0376 95.5901 99.6639 95.5493C100.245 95.5107 100.657 95.204 100.931 94.7043C101.015 94.5499 101.094 94.3826 101.127 94.2131C101.288 93.3809 101.581 92.538 101.549 91.7101C101.506 90.5583 101.318 89.3872 101.002 88.2784C100.736 87.3411 99.9534 87.0258 99.1641 87.3068C98.6108 87.5041 98.3083 87.9609 98.1839 88.4864C97.9609 89.4087 97.815 90.3503 97.637 91.2854H97.6327Z" fill="#CECECE"/>
<path d="M118.232 95.1951V92.8701C117.977 92.6578 117.715 92.4411 117.393 92.1752H120.763C119.48 93.0696 120.31 94.3672 119.864 95.5254C118.472 96.2632 116.962 96.5421 115.371 95.8364C113.747 95.1179 113.131 93.7087 112.964 92.0744C112.831 90.7746 113.089 89.5156 113.79 88.3896C114.837 86.7102 116.552 86.1289 118.414 86.8002C118.68 86.8968 118.94 87.0147 119.225 87.1327C119.45 86.989 119.673 86.8453 119.956 86.663V89.7901C119.555 89.1317 119.332 88.5912 118.957 88.1965C118.584 87.804 118.097 87.4158 117.591 87.2807C116.61 87.0169 115.815 87.5038 115.409 88.529C114.92 89.7708 114.708 91.0727 114.937 92.4025C115.058 93.0953 115.212 93.8053 115.497 94.4423C116.003 95.5726 116.971 95.8236 118.236 95.1951H118.232Z" fill="#CECECE"/>
<path d="M83.7395 87.4585V91.0361C84.9557 90.8924 84.9149 89.8801 85.3181 88.9406V93.4169C84.9256 92.7134 84.9492 91.7182 83.8618 91.5659C83.525 92.589 83.6023 94.1547 84.0205 95.2228C85.76 95.5574 86.1396 95.3215 87.2785 93.2067C87.4487 93.6557 87.3986 94.5701 87.1284 95.9499C85.1294 96.0765 83.0961 95.9821 81.0649 96.0121C81.0477 95.9414 81.0306 95.8727 81.0134 95.8019C81.2665 95.6497 81.5218 95.4974 81.8456 95.3022V87.5272C81.5775 87.3234 81.3073 87.1197 80.9534 86.8516H86.9718V89.3846C86.5235 88.709 86.2619 88.0741 85.7964 87.6795C85.2581 87.2205 84.5138 87.4714 83.7417 87.4607L83.7395 87.4585Z" fill="#CECECE"/>
<path d="M147.689 92.0613V95.2936C148.015 95.478 148.27 95.6239 148.525 95.7697C148.515 95.8448 148.502 95.9177 148.491 95.9928C147.333 96.0593 146.175 96.0206 144.967 95.8147C145.22 95.6646 145.473 95.5145 145.797 95.3236V87.5529C145.535 87.3512 145.265 87.1432 144.864 86.8343C146.393 86.8343 147.77 86.7528 149.132 86.8601C150.215 86.9459 150.99 88.0547 151.003 89.243C151.015 90.4634 150.168 91.4843 148.935 91.7224C148.624 91.7825 148.306 91.8125 147.995 91.8768C147.899 91.8961 147.815 91.9841 147.689 92.0634V92.0613ZM147.732 87.5507C147.5 88.8977 147.539 90.5299 147.824 91.2698C148.506 91.2227 148.937 90.8473 149.029 90.1846C149.104 89.6312 149.102 89.0542 149.038 88.4987C148.961 87.8381 148.581 87.5915 147.732 87.5486V87.5507Z" fill="#CECECE"/>
<path d="M139.864 87.5593C139.864 88.5974 139.86 89.6955 139.864 90.7937C139.868 91.8254 139.86 92.857 139.903 93.8887C139.939 94.7895 140.327 95.2657 141.001 95.3579C141.816 95.4694 142.468 95.1134 142.734 94.279C142.925 93.6785 143.039 93.0329 143.062 92.4023C143.109 91.1948 143.081 89.9829 143.062 88.7733C143.045 87.6151 143.034 87.6151 142.17 86.83H144.356C144.087 87.1839 143.744 87.4821 143.613 87.8553C143.478 88.2392 143.534 88.6982 143.532 89.1229C143.523 90.5106 143.56 91.8983 143.517 93.286C143.48 94.4485 143.084 95.4394 141.925 95.9692C140.177 96.767 138.348 95.7911 138.15 93.8865C138.024 92.6533 138.009 91.4071 137.972 90.1674C137.947 89.2816 137.968 88.3915 137.968 87.4756C137.668 87.2826 137.408 87.1175 137.145 86.9502C137.172 86.9073 137.202 86.815 137.235 86.815C138.369 86.8086 139.506 86.8086 140.821 86.8086C140.465 87.0874 140.222 87.2783 139.864 87.5593V87.5593Z" fill="#CECECE"/>
<path d="M108.271 87.0042C108.526 86.8948 108.738 86.8047 108.962 86.7082C109.157 87.8771 109.127 88.6879 108.837 89.5265C108.651 89.0783 108.556 88.6579 108.32 88.3404C108.037 87.9544 107.683 87.5683 107.274 87.3431C106.746 87.0514 106.105 87.2659 105.836 87.6669C105.568 88.0702 105.596 88.7458 105.987 89.1447C106.356 89.5201 106.784 89.8461 107.218 90.1485C108.044 90.7212 108.826 91.3239 109.26 92.2698C109.914 93.6961 109.253 95.3948 107.818 96.0232C107.224 96.2827 106.645 96.287 106.066 96.0082C105.555 95.7615 105.058 95.6629 104.601 96.1347C104.305 95.3347 104.273 93.8484 104.543 92.6344C104.676 92.9754 104.74 93.192 104.843 93.3872C105.154 93.977 105.401 94.6269 105.824 95.1267C106.328 95.7208 107.278 95.7272 107.754 95.2832C108.329 94.747 108.355 93.9492 107.724 93.2907C107.312 92.8596 106.789 92.5357 106.315 92.1625C105.558 91.5684 104.818 90.9743 104.528 89.9769C104.209 88.8745 104.455 87.9158 105.236 87.1329C106.019 86.3457 106.96 86.4229 107.904 86.8648C108.001 86.9098 108.101 86.942 108.267 87.0063L108.271 87.0042Z" fill="#CECECE"/>
</g>
</g>
<defs>
<clipPath id="clip0_503_4101">
<rect width="231" height="127" fill="white"/>
</clipPath>
<clipPath id="clip1_503_4101">
<rect width="77" height="70.9939" fill="white" transform="translate(77 28)"/>
</clipPath>
</defs>
</svg>
