<?xml version="1.0" encoding="utf-8"?>
<!-- Generator: Adobe Illustrator 26.0.1, SVG Export Plug-In . SVG Version: 6.00 Build 0)  -->
<svg version="1.1" id="Layer_1" xmlns="http://www.w3.org/2000/svg" xmlns:xlink="http://www.w3.org/1999/xlink" x="0px" y="0px"
	 viewBox="0 0 115 85" style="enable-background:new 0 0 115 85;" xml:space="preserve">
<style type="text/css">
	.st0{fill:none;}
	.st1{fill:#A8A8A8;}
</style>
<g>
	<rect y="0" class="st0" width="115" height="85"/>
</g>
<g id="mo474U_00000141414562213511244080000004063514615511646081_">
	<g>
		<path class="st1" d="M67.13,29.03c-0.25-0.22-0.54-0.47-0.82-0.72c-0.05,0.04-0.11,0.09-0.16,0.13c0.06,0.19,0.13,0.39,0.24,0.73
			c-0.29-0.21-0.48-0.35-0.68-0.49c-0.48,0.91-1.45,1.39-2.52,1.29c-0.23-0.02-0.46,0.05-0.69,0.1c-0.11,0.02-0.23,0.12-0.31,0.09
			c-0.65-0.22-1.16,0.06-1.64,0.46c-0.11,0.09-0.25,0.17-0.4,0.2c-0.83,0.22-1.66,0.51-2.5,0.62c-0.56,0.07-1.18-0.29-1.63,0.35
			c-0.03,0.05-0.31-0.08-0.46-0.02c-0.25,0.04-0.52,0.04-0.76,0.13c-0.36,0.14-0.69,0.38-1.05,0.53c-1.09,0.46-2.17,1-3.3,1.28
			c-0.5,0.12-1.04,0.69-1.68,0.22c-0.11-0.08-0.44,0.15-0.68,0.2c-0.51,0.12-0.69-0.04-0.59-0.54c0.05-0.26,0.18-0.5,0.22-0.76
			c0.05-0.29,0.1-0.59,0.06-0.88c-0.12-0.82,0.01-1.57,0.4-2.29c0.12-0.22,0.26-0.48,0.26-0.72c-0.02-0.92,0.48-1.59,0.98-2.29
			c0.57-0.79,1.07-1.63,1.61-2.44c0.25-0.37,0.54-0.72,0.84-1.06c0.5-0.56,1.08-1.05,1.54-1.64c0.72-0.91,1.7-1.41,2.69-1.92
			c0.85-0.45,1.66-0.96,2.5-1.42c0.57-0.32,1.16-0.62,1.74-0.93c0.61-0.33,0.73-0.83,0.27-1.36c6.02,0,11.98,0,17.98,0
			c0,0.65,0,1.29,0,1.93c0,9.28,0.01,18.56,0.01,27.84c0,0.54-0.24,0.77-0.94,0.91c-2.56,0.53-5.15,0.72-7.76,0.69
			c-1.38-0.02-2.76-0.01-4.14-0.01c-1.31,0-2.62,0.01-3.93,0.01c-0.15,0-0.31,0-0.44-0.06c-0.79-0.35-1.58-0.31-2.43-0.16
			c-0.53,0.09-1.18,0.07-1.63-0.43c-0.1-0.11-0.25-0.16-0.39-0.23c-0.74-0.34-1.49-0.67-2.23-1.02c-0.5-0.24-1.04-0.43-1.5-0.74
			c-1.71-1.17-3.14-2.64-4.34-4.32c-0.43-0.6-0.73-1.31-1.04-1.98c-0.18-0.4-0.11-0.81,0.32-1.03c1.01-0.5,2.03-0.96,3.04-1.44
			c0.25-0.12,0.49-0.28,0.75-0.38c0.42-0.17,0.86-0.31,1.29-0.46c0.07-0.02,0.16-0.01,0.22-0.05c0.94-0.76,2.15-0.93,3.23-1.37
			c1.28-0.52,2.65-0.83,4-1.21c0.58-0.16,1.09-0.33,1.39-0.93c0.1-0.21,0.48-0.36,0.75-0.4c0.76-0.1,1.48-0.22,2.12-0.69
			c0.27-0.2,0.67-0.21,1-0.33c0.86-0.32,1.73-0.63,2.57-1c0.12-0.05,0.11-0.4,0.16-0.61c-0.19,0.02-0.41,0.01-0.58,0.08
			C67.78,28.63,67.47,28.83,67.13,29.03z"/>
		<path class="st1" d="M37.65,43.07c0-9.06,0-18.12,0-27.21c7.11,0,14.2,0,21.3,0c0,0.03,0.01,0.07,0.01,0.1
			c-0.08,0.03-0.15,0.07-0.23,0.08c-1.78,0.15-3.28,0.94-4.68,2c-1.21,0.92-2.55,1.68-3.71,2.66c-0.85,0.72-1.48,1.69-2.22,2.53
			c-0.34,0.4-0.73,0.76-1.05,1.17c-0.2,0.24-0.37,0.53-0.47,0.83c-0.18,0.57-0.4,1.08-0.82,1.56c-0.63,0.72-1.11,1.56-1.65,2.34
			c-0.02,0.03-0.06,0.06-0.06,0.1c0.03,1.09-0.91,1.9-0.86,2.99c0.01,0.23,0.18,0.46,0.28,0.68c0.07,0.15,0.16,0.3,0.24,0.45
			c-0.13,0.05-0.26,0.16-0.39,0.15c-0.42-0.03-0.48,0.2-0.44,0.53c0.04,0.33,0.1,0.66,0.14,1c0.01,0.11,0.03,0.26-0.03,0.33
			c-0.29,0.34-0.16,0.53,0.16,0.77c0.43,0.32,0.33,0.94-0.18,1.28c-1.42,0.94-2.65,2.08-3.65,3.46c-0.09,0.12-0.2,0.23-0.32,0.31
			c-0.5,0.32-0.73,0.78-0.84,1.35c-0.04,0.23-0.24,0.44-0.36,0.66C37.77,43.14,37.71,43.1,37.65,43.07z"/>
		<path class="st1" d="M37.68,46.15c0.44,0.36,0.82,0.63,1.15,0.96c0.63,0.63,1.47,0.72,2.25,0.77c0.71,0.05,1.43-0.21,2.15-0.35
			c0.09-0.02,0.15-0.17,0.22-0.26c-0.15-0.08-0.31-0.23-0.46-0.22c-0.47,0.03-0.93,0.13-1.4,0.18c-1,0.1-1.59-0.54-2.07-1.27
			c-0.35-0.53-0.19-1.14,0.11-1.59c0.46-0.69,1.03-1.33,1.61-1.93c0.74-0.76,1.54-1.47,2.33-2.2c0.1-0.09,0.3-0.22,0.37-0.19
			c0.91,0.5,1.85,0.98,2.38,1.95c0.06,0.1,0.01,0.27,0.01,0.38c-0.59,0.11-0.38-0.88-1.11-0.62c0.16,0.24,0.27,0.45,0.42,0.63
			c1.62,1.87,3.49,3.43,5.54,4.81c1.07,0.72,2.19,1.14,3.46,1.23c0.07,0,0.18,0,0.22,0.04c0.46,0.5,1.05,0.71,1.71,0.82
			c0.32,0.05,0.63,0.23,0.95,0.24c0.94,0.03,1.89,0.05,2.83,0c0.82-0.04,1.64-0.16,2.46-0.26c0.59-0.07,1.15-0.2,1.77,0.05
			c0.33,0.14,0.83-0.11,1.25-0.19c0.11-0.02,0.24-0.14,0.31-0.1c0.74,0.34,1.43-0.15,2.15-0.13c0.14,0,0.32-0.02,0.41-0.11
			c0.26-0.25,0.48-0.35,0.75-0.01c0.05,0.06,0.23,0.1,0.3,0.06c0.82-0.45,1.78-0.31,2.59-0.59c0.77-0.26,1.55-0.37,2.31-0.6
			c0.92-0.28,1.88-0.44,2.82-0.67c0.22-0.05,0.44-0.11,0.63-0.22c0.34-0.18,0.5-0.11,0.5,0.28c0,0.83-0.01,1.66,0,2.49
			c0.01,0.49-0.29,0.54-0.67,0.54c-2.25-0.01-4.5-0.01-6.74,0c-4.48,0.01-8.95,0.03-13.43,0.03c-6.52,0-13.04-0.02-19.55-0.01
			c-0.43,0-0.61-0.08-0.59-0.56c0.03-0.94,0.01-1.89,0.01-2.83C37.63,46.53,37.66,46.37,37.68,46.15z"/>
		<path class="st1" d="M64.32,62.45c-1.95-0.07-3.66-0.62-4.98-2.11c-1.95-2.19-1.42-5.79,1.06-7.36c1.59-1.01,3.32-1.27,5.15-1.05
			c1.07,0.13,2.11,0.39,3.02,1.01c1.63,1.11,2.26,2.66,2.05,4.59c-0.27,2.44-2.21,4.13-4.31,4.58
			C65.66,62.25,64.99,62.34,64.32,62.45z M68.4,57.45c0-0.11,0-0.23,0-0.34c-0.14-3.03-2.34-4.83-5.34-4.32
			c-0.76,0.13-1.41,0.49-1.88,1.14c-1.15,1.59-1.03,4.33,0.22,5.99c1.34,1.78,4.3,2.07,5.68,0.94
			C68.15,59.97,68.34,58.73,68.4,57.45z"/>
		<path class="st1" d="M47.27,52.16c0.19-0.03,0.38-0.1,0.56-0.1c1.59,0.01,3.17,0.01,4.76,0.04c0.93,0.02,1.79,0.24,2.47,0.94
			c0.78,0.81,0.89,1.98,0.21,2.89c-0.43,0.57-0.95,1.06-1.48,1.63c0.12,0.13,0.28,0.33,0.46,0.51c0.85,0.89,1.68,1.78,2.55,2.65
			c0.55,0.56,1.18,0.99,2.03,0.99c0.12,0,0.23,0.17,0.35,0.26c-0.08,0.09-0.17,0.27-0.24,0.26c-1.24-0.18-2.63,0.27-3.69-0.71
			c-0.68-0.62-1.27-1.33-1.89-2.01c-0.22-0.24-0.44-0.48-0.6-0.75c-0.41-0.72-1.08-0.76-1.77-0.7c-0.12,0.01-0.32,0.26-0.32,0.4
			c-0.01,0.85,0.03,1.7,0.06,2.55c0.01,0.46,0.22,0.7,0.7,0.68c0.11-0.01,0.24-0.02,0.34,0.02c0.14,0.06,0.25,0.16,0.38,0.24
			c-0.13,0.1-0.27,0.28-0.4,0.28c-0.39,0.01-0.79-0.09-1.18-0.09c-0.85,0.01-1.7,0.08-2.54,0.09c-0.17,0-0.33-0.15-0.5-0.22
			c0.14-0.1,0.28-0.3,0.42-0.3c0.55-0.01,0.71-0.3,0.71-0.8c0-2.53,0.01-5.06,0.03-7.59c0.01-0.54-0.28-0.73-0.74-0.81
			c-0.22-0.04-0.44-0.08-0.66-0.12C47.27,52.31,47.27,52.23,47.27,52.16z M50.66,55.03c0,0.55-0.02,1.09,0.01,1.64
			c0.01,0.18,0.1,0.42,0.24,0.51c0.52,0.33,1.83,0.08,2.27-0.37c0.71-0.71,0.65-2.09,0.31-2.82c-0.34-0.73-1.47-1.24-2.36-1.15
			c-0.35,0.04-0.49,0.2-0.48,0.55C50.67,53.93,50.66,54.48,50.66,55.03z"/>
		<path class="st1" d="M37.97,52.14c0.25-0.03,0.51-0.07,0.76-0.07c1.81,0,3.63,0.02,5.44,0.03c0.35,0,0.79-0.12,1.01,0.05
			c0.16,0.12,0.03,0.63,0.03,0.96c0,0.21,0.05,0.43-0.01,0.62c-0.03,0.13-0.19,0.27-0.32,0.3c-0.07,0.02-0.28-0.16-0.29-0.26
			c-0.02-0.67-0.48-0.73-0.98-0.74c-0.57-0.02-1.13-0.03-1.7-0.06c-0.34-0.02-0.47,0.12-0.46,0.46c0.02,0.83,0.01,1.66,0,2.49
			c0,0.28,0.04,0.5,0.39,0.47c0.95-0.08,1.93,0.2,2.84-0.3c0.06-0.03,0.37,0.17,0.37,0.27c0,0.49-0.05,0.97-0.12,1.46
			c-0.02,0.16-0.16,0.3-0.24,0.44c-0.12-0.12-0.32-0.23-0.33-0.37c-0.07-0.51-0.42-0.64-0.84-0.67c-0.57-0.03-1.13-0.02-1.7-0.05
			c-0.37-0.02-0.38,0.2-0.38,0.47c0.01,0.91,0.02,1.81,0,2.72c-0.01,0.5,0.23,0.85,0.69,0.88c0.76,0.05,1.54,0.03,2.3-0.04
			c0.38-0.04,0.67-0.3,0.7-0.76c0.01-0.13,0.26-0.24,0.4-0.36c0.07,0.17,0.19,0.34,0.19,0.51c0,0.22-0.13,0.43-0.16,0.65
			c-0.13,0.88-0.23,0.99-1.11,0.98c-1.4-0.02-2.8-0.08-4.19-0.09c-0.53,0-1.05,0.1-1.58,0.11c-0.16,0-0.33-0.16-0.49-0.24
			c0.15-0.1,0.29-0.27,0.44-0.28c0.52-0.02,0.69-0.29,0.69-0.76c0-2.53,0.01-5.06,0.03-7.6c0-0.58-0.29-0.81-0.82-0.86
			c-0.2-0.02-0.39-0.09-0.59-0.13C37.96,52.29,37.96,52.21,37.97,52.14z"/>
		<path class="st1" d="M74.89,62.45c-0.64-0.13-1.29-0.25-1.93-0.38c-0.35-0.07-0.51-0.3-0.5-0.65c0.01-0.53-0.01-1.06,0.03-1.58
			c0.01-0.15,0.17-0.28,0.26-0.42c0.12,0.14,0.33,0.26,0.36,0.41c0.29,1.49,2.02,2.26,3.34,1.46c0.92-0.56,1.03-1.62,0.18-2.43
			c-0.57-0.54-1.28-0.93-1.87-1.44c-0.59-0.52-1.25-1.03-1.64-1.68c-0.89-1.51-0.01-3.21,1.73-3.66c1.13-0.29,2.24-0.25,3.36,0.01
			c0.37,0.08,0.49,0.29,0.47,0.65c-0.02,0.36,0.02,0.72-0.02,1.07c-0.02,0.19-0.17,0.36-0.26,0.54c-0.13-0.15-0.27-0.29-0.39-0.44
			c-0.23-0.3-0.39-0.67-0.67-0.9c-0.55-0.45-1.87-0.4-2.4,0.01c-0.65,0.5-0.75,1.16-0.16,1.74c0.53,0.52,1.19,0.91,1.76,1.4
			c0.64,0.54,1.35,1.05,1.86,1.7c1.06,1.35,0.58,3.09-0.88,3.95C76.77,62.23,76.04,62.38,74.89,62.45z"/>
		<path class="st1" d="M58.41,70.13c-1.75,0-2.68-0.56-3.2-1.85c-0.39-0.95-0.11-1.79,0.52-2.5c1.34-1.51,3.78-1.34,5.06-0.19
			c1.21,1.08,0.91,3.12-0.52,4.03C59.67,70,59.03,70.23,58.41,70.13z M58.48,69.66c0.35-0.11,0.75-0.14,1.04-0.33
			c1.18-0.8,0.98-3.08-0.3-3.77c-0.9-0.48-2.13-0.34-2.58,0.34c-0.56,0.85-0.5,1.78-0.05,2.64C56.97,69.26,57.61,69.64,58.48,69.66z
			"/>
		<path class="st1" d="M47.18,70.01c0.75-0.43,0.6-1.02,0.6-1.57c0.01-0.72,0.01-1.43,0-2.15c0-0.49,0.16-1.04-0.63-1.27
			c0.23-0.12,0.32-0.21,0.4-0.21c0.83,0.01,1.65,0.03,2.48,0.07c0.62,0.03,1.1,0.32,1.32,0.9c0.24,0.6-0.04,1.1-0.48,1.51
			c-0.13,0.13-0.27,0.25-0.49,0.45c0.9,0.78,1.76,1.53,2.67,2.32c-0.71,0.12-1.37,0.13-1.92-0.36c-0.42-0.38-0.76-0.83-1.16-1.23
			c-0.18-0.18-0.4-0.36-0.63-0.43c-0.11-0.04-0.4,0.13-0.44,0.26c-0.19,0.61,0.05,1.24,0.7,1.71
			C48.77,70.01,48.07,70.01,47.18,70.01z M48.9,66.37C48.9,66.37,48.9,66.37,48.9,66.37c-0.01,0.17,0.01,0.34-0.01,0.51
			c-0.07,0.49,0.17,0.71,0.61,0.6c0.29-0.08,0.69-0.27,0.77-0.51c0.11-0.33,0.11-0.84-0.09-1.1c-0.21-0.28-0.69-0.35-1.05-0.51
			c-0.08,0.28-0.16,0.56-0.23,0.85C48.89,66.26,48.9,66.32,48.9,66.37z"/>
		<path class="st1" d="M41.77,67.42c0.21-0.03,0.36-0.07,0.51-0.07c0.43-0.01,0.86-0.01,1.29,0c0.1,0,0.23,0.03,0.3,0.09
			c0.04,0.03,0.02,0.22-0.02,0.24c-0.51,0.27-0.34,0.74-0.35,1.15c-0.01,1.09-0.17,1.28-1.27,1.29c-1.01,0.01-2.03,0.1-2.98-0.42
			c-0.86-0.47-1.39-1.12-1.43-2.13c-0.04-1.08,0.48-1.85,1.37-2.36c0.84-0.47,1.76-0.66,2.73-0.47c0.24,0.05,0.48,0.09,0.73,0.12
			c0.87,0.11,1.06,0.48,0.67,1.47c-0.13-0.14-0.26-0.23-0.34-0.36c-0.54-0.94-3.01-0.94-3.62,0.05c-0.43,0.7-0.38,1.43-0.15,2.12
			c0.25,0.75,0.84,1.23,1.65,1.39c0.07,0.01,0.15,0.01,0.23,0.02c1.67,0.08,1.22,0.03,1.26-1.39
			C42.35,67.96,42.04,67.74,41.77,67.42z"/>
		<path class="st1" d="M68.55,64.89c0.61,0,1.21,0,1.81,0c-0.59,0.44-0.38,1.04-0.42,1.57c-0.05,0.8-0.08,1.61-0.23,2.39
			c-0.13,0.7-0.74,1.08-1.36,1.22c-0.59,0.13-1.26,0.11-1.85-0.02c-0.95-0.21-1.45-0.97-1.49-2.02c-0.03-0.68-0.01-1.36,0-2.04
			c0.01-0.42-0.02-0.8-0.55-1.03c0.13-0.05,0.26-0.14,0.39-0.15c0.47-0.01,0.94-0.01,1.41,0.01c0.11,0,0.22,0.08,0.33,0.13
			c-0.05,0.09-0.11,0.17-0.16,0.26c-0.08,0.15-0.23,0.3-0.24,0.45c-0.02,0.85-0.02,1.7,0,2.55c0.01,0.56,0.22,1.12,0.77,1.27
			c0.6,0.16,1.29,0.27,1.79-0.3c0.14-0.16,0.26-0.39,0.27-0.59c0.04-0.98,0.07-1.96,0.03-2.94C69.04,65.42,68.78,65.21,68.55,64.89z
			"/>
		<path class="st1" d="M75.71,67.66c0.22-0.15,0.41-0.3,0.61-0.41c0.44-0.25,0.58-0.62,0.45-1.09c-0.13-0.44-0.72-0.92-1.08-0.83
			c-0.14,0.04-0.31,0.28-0.31,0.43c-0.02,1.11-0.04,2.23,0.02,3.34c0.02,0.31,0.31,0.6,0.5,0.94c-0.63,0-1.34,0-2.07,0
			c0-0.05-0.02-0.16,0.01-0.18c0.52-0.35,0.39-0.88,0.39-1.38c0-0.77,0-1.55,0-2.32c0-0.44,0.17-0.95-0.63-1.07
			c0.22-0.15,0.3-0.26,0.38-0.25c0.85,0.01,1.7,0.03,2.54,0.07c0.6,0.03,1.04,0.36,1.27,0.9c0.21,0.5-0.1,1.19-0.61,1.59
			C76.57,67.86,76.22,67.94,75.71,67.66z"/>
	</g>
</g>
</svg>
