<svg width="100" height="100" viewBox="0 0 100 100" fill="none" xmlns="http://www.w3.org/2000/svg">
<g clip-path="url(#clip0_503_4343)">
<path d="M98.9993 9.47809C98.7718 10.0058 98.5807 10.5563 98.3123 11.0658C96.72 14.0594 93.1623 15.3832 89.9823 14.0821C89.1361 13.7363 88.6584 13.891 88.0715 14.5097C86.6794 15.9747 85.2236 17.3804 83.7951 18.809C83.5676 19.0364 83.3447 19.2775 83.0808 19.4504C82.3802 19.9099 81.6568 19.9099 81.0654 19.2957C80.474 18.6816 80.4922 17.9628 80.9699 17.2758C81.1519 17.0165 81.393 16.7936 81.6159 16.5661C83.0899 15.0875 84.5457 13.5953 86.047 12.1486C86.5657 11.6482 86.6294 11.2251 86.3519 10.5472C84.7596 6.64834 86.8523 2.50837 90.8876 1.4802C94.0267 0.684051 97.3706 2.39008 98.6035 5.41545C98.7354 5.74301 98.8673 6.07057 98.9993 6.39813V9.47809ZM96.0239 7.94038C96.0239 6.04327 94.3543 4.36453 92.4526 4.35999C90.5601 4.35999 88.8768 6.02962 88.8768 7.93128C88.8768 9.82839 90.5464 11.5071 92.4481 11.5117C94.3452 11.5117 96.0239 9.83749 96.0239 7.94038Z" fill="white"/>
<path d="M5.39021 100.002C3.04271 99.2013 1.23659 97.7956 0.563273 95.3116C-0.141888 92.7184 0.444988 90.3891 2.46038 88.5557C4.47123 86.7223 6.84603 86.3265 9.35276 87.3001C10.2444 87.6458 10.7358 87.4866 11.3409 86.8497C12.8467 85.271 14.4117 83.7515 15.9631 82.2138C16.5454 81.636 17.2278 81.4404 17.9785 81.8362C18.629 82.182 18.8156 82.7779 18.7064 83.474C18.6245 83.979 18.2742 84.3202 17.933 84.6659C16.368 86.2309 14.8075 87.805 13.2289 89.3564C12.8467 89.734 12.7148 90.0661 12.9286 90.6257C14.5209 94.7384 12.9332 98.2551 8.81138 99.8383C8.69309 99.8838 8.57936 99.9475 8.46562 100.002H5.38566H5.39021ZM10.5038 93.4691C10.5174 91.5765 8.85232 89.8932 6.94611 89.8796C5.05355 89.8659 3.37482 91.531 3.35662 93.4372C3.33842 95.3252 5.00806 97.0131 6.91427 97.0267C8.80683 97.0404 10.4901 95.3753 10.5038 93.4691Z" fill="white"/>
<path d="M90.9098 100.004C88.5259 99.1895 86.7471 97.7473 86.051 95.2315C85.6461 93.7711 85.6734 92.288 86.3331 90.9095C86.6971 90.1498 86.5105 89.6948 85.9601 89.158C84.3496 87.5975 82.7755 85.9961 81.1968 84.3993C80.619 83.817 80.4371 83.13 80.8465 82.3839C81.1968 81.7379 81.8019 81.5605 82.4934 81.6787C82.9938 81.7652 83.335 82.12 83.6762 82.4612C85.2185 84.0035 86.7653 85.5367 88.2985 87.088C88.6897 87.4838 89.0264 87.684 89.636 87.4429C93.6804 85.8551 97.2472 87.4429 98.8076 91.4691C98.8668 91.6192 98.9396 91.7603 99.0032 91.9058V94.9858C98.198 97.5198 96.5284 99.1849 93.9943 99.9947H90.9144L90.9098 100.004ZM92.4657 89.8814C90.5732 89.8677 88.8944 91.5328 88.8762 93.439C88.8626 95.327 90.5322 97.0149 92.4339 97.0285C94.3264 97.0421 96.0097 95.3771 96.0234 93.4708C96.037 91.5783 94.3719 89.895 92.4657 89.8814Z" fill="white"/>
<path d="M49.6468 92.5383C47.3038 92.5383 44.9608 92.5474 42.6179 92.5383C40.1157 92.5292 38.6917 91.0916 38.6735 88.5758C38.6644 87.1973 38.6553 85.8143 38.6735 84.4358C38.6826 83.8626 38.4506 83.5668 37.9229 83.3712C36.8993 82.9936 35.8893 82.5796 34.8975 82.1292C34.3379 81.8745 33.9376 81.9745 33.5236 82.4022C32.5409 83.4167 31.5446 84.4176 30.5301 85.4003C28.865 87.0108 26.886 87.0062 25.2482 85.3821C21.8134 81.9609 18.3831 78.5352 14.9665 75.1004C13.3833 73.5081 13.3833 71.5109 14.9529 69.8913C15.9128 68.8995 16.8818 67.9168 17.8827 66.966C18.4059 66.4747 18.5105 66.0152 18.192 65.351C17.7462 64.4274 17.3686 63.4675 17.0228 62.503C16.8181 61.9298 16.4997 61.6978 15.89 61.7069C14.4797 61.7387 13.0648 61.7296 11.6545 61.7069C9.32067 61.675 7.85575 60.2283 7.84666 57.9036C7.82846 53.0903 7.82846 48.2724 7.84666 43.4591C7.85575 41.1435 9.32977 39.7013 11.6682 39.674C13.0466 39.6558 14.4297 39.6467 15.8081 39.6786C16.4496 39.6922 16.809 39.4647 17.0319 38.8551C17.3959 37.8633 17.8008 36.8807 18.2421 35.9207C18.4923 35.3748 18.4332 34.9654 17.9964 34.5423C17.0046 33.5823 16.0356 32.5997 15.0666 31.617C13.356 29.8746 13.3424 27.9092 15.0529 26.1986C18.4286 22.8093 21.8088 19.4291 25.1982 16.0534C26.886 14.3747 28.8468 14.3565 30.5483 16.0034C31.5401 16.9633 32.5227 17.9369 33.469 18.9377C33.9421 19.4382 34.3925 19.4973 35.0067 19.2062C35.9348 18.7694 36.8856 18.3782 37.8547 18.0415C38.4779 17.8231 38.6917 17.4637 38.6735 16.8268C38.6417 15.4483 38.6508 14.0653 38.669 12.6868C38.6963 10.3029 40.143 8.86987 42.536 8.84713C43.596 8.83803 44.656 8.82893 45.7115 8.84713C46.8216 8.86987 47.5449 9.49769 47.5495 10.403C47.554 11.2811 46.8079 11.9453 45.7115 11.9817C44.7516 12.0135 43.7871 12.0181 42.8226 11.9862C42.0674 11.9589 41.7945 12.2774 41.8126 13.0144C41.8445 14.361 41.8308 15.7122 41.8126 17.0588C41.7899 18.9605 40.9756 20.116 39.2195 20.8121C38.0867 21.2625 36.963 21.7311 35.8393 22.2088C34.1878 22.9094 32.9049 22.691 31.6174 21.4308C30.6074 20.4436 29.602 19.4518 28.6239 18.4328C28.1143 17.9005 27.6958 17.8868 27.1681 18.4146C23.9334 21.6719 20.6897 24.9202 17.4277 28.1503C16.8454 28.7281 16.9319 29.1512 17.4823 29.6744C18.4832 30.6252 19.4477 31.6124 20.4122 32.5997C21.6815 33.9008 21.9089 35.1746 21.2129 36.817C20.7124 37.9998 20.212 39.1781 19.7434 40.3746C19.1201 41.9669 17.9282 42.7403 16.2676 42.7995C14.8892 42.8495 13.5061 42.8404 12.1277 42.7995C11.327 42.7767 10.9676 43.0224 10.9721 43.8868C10.9994 48.4135 10.9949 52.9401 10.9721 57.4623C10.9721 58.2402 11.2314 58.5678 12.0321 58.545C13.3469 58.5041 14.6617 58.5268 15.981 58.5359C17.9509 58.5496 19.0974 59.3503 19.8162 61.1518C20.2666 62.2847 20.7261 63.4129 21.2129 64.5321C21.918 66.138 21.6269 67.5301 20.4031 68.7539C19.4295 69.7321 18.4696 70.7238 17.4687 71.6747C16.9137 72.2024 16.8545 72.63 17.4277 73.1987C20.6897 76.4288 23.9334 79.6771 27.1681 82.9345C27.7003 83.4713 28.1189 83.4304 28.6239 82.9072C29.6247 81.8654 30.6575 80.8554 31.6856 79.8409C32.8366 78.7081 34.1651 78.4487 35.6618 79.0675C36.8765 79.5725 38.0867 80.082 39.3105 80.5733C40.9528 81.233 41.7763 82.4022 41.8036 84.1992C41.8263 85.5777 41.8354 86.9607 41.8036 88.3392C41.7854 89.0807 42.072 89.3674 42.8181 89.3628C47.3766 89.3446 51.9351 89.3401 56.4936 89.3628C57.3034 89.3628 57.5673 89.0444 57.5446 88.271C57.5082 86.9243 57.5218 85.5731 57.5446 84.2265C57.5718 82.384 58.3816 81.2375 60.0968 80.546C61.2569 80.0774 62.417 79.6043 63.5634 79.1084C65.1239 78.4351 66.5024 78.6762 67.708 79.8773C68.7316 80.8963 69.7643 81.9063 70.7697 82.9436C71.2565 83.444 71.6614 83.4395 72.1528 82.9436C75.4147 79.668 78.6812 76.397 81.9568 73.1396C82.4481 72.6528 82.4663 72.2479 81.9613 71.7565C80.924 70.7511 79.9141 69.7184 78.895 68.6948C77.6939 67.4892 77.4437 66.1153 78.1171 64.5503C78.6266 63.372 79.1225 62.1891 79.5865 60.9926C80.2143 59.3548 81.4336 58.5769 83.1351 58.5268C84.5135 58.4859 85.8966 58.4904 87.275 58.5268C88.0393 58.545 88.376 58.2994 88.3714 57.485C88.3487 52.9265 88.3487 48.368 88.3714 43.8094C88.3714 43.0724 88.1076 42.7676 87.3569 42.7858C86.0103 42.8177 84.6591 42.804 83.3125 42.7858C81.4017 42.7676 80.2507 41.9624 79.5501 40.2063C79.0861 39.0462 78.6084 37.8861 78.1171 36.7396C77.4437 35.1746 77.7076 33.8007 78.9132 32.5997C79.8913 31.6261 80.8422 30.6252 81.8476 29.6789C82.439 29.1239 82.4981 28.6872 81.8885 28.0821C78.6493 24.8793 75.4283 21.6538 72.2164 18.4146C71.6523 17.8459 71.2247 17.8823 70.6924 18.4419C69.7188 19.4655 68.7043 20.4482 67.7034 21.4445C66.4933 22.6455 65.1148 22.873 63.5543 22.1951C62.4079 21.6992 61.2478 21.2307 60.0877 20.7621C58.3816 20.0751 57.5718 18.9195 57.5491 17.0679C57.5309 15.7213 57.5127 14.3701 57.5537 13.0235C57.5764 12.2319 57.2761 11.9225 56.4845 11.9498C55.3608 11.9908 54.2371 11.9771 53.1134 11.9498C51.9442 11.918 51.2027 11.272 51.2072 10.3393C51.2118 9.4158 51.9579 8.82438 53.1635 8.81073C54.4464 8.79708 55.7339 8.78798 57.0168 8.81073C59.1778 8.85168 60.6427 10.2984 60.6928 12.4503C60.7246 13.8924 60.7246 15.3392 60.6928 16.7813C60.6791 17.4182 60.8884 17.7776 61.5117 17.996C62.4807 18.3327 63.4315 18.7239 64.3596 19.1607C64.9738 19.4518 65.4242 19.3927 65.8973 18.8923C66.8481 17.8914 67.8308 16.9224 68.8226 15.9579C70.4877 14.3337 72.4712 14.3155 74.1045 15.9397C77.5438 19.3563 80.9695 22.782 84.3862 26.2214C86.0057 27.8501 85.9921 29.8382 84.368 31.5033C83.3853 32.5178 82.3844 33.5141 81.3699 34.4968C80.9331 34.9199 80.8785 35.3248 81.1288 35.8752C81.5792 36.867 81.9932 37.877 82.3662 38.9006C82.5664 39.442 82.8894 39.6376 83.449 39.6285C84.8593 39.6058 86.2742 39.6103 87.6845 39.6285C90.0638 39.6558 91.5151 41.1071 91.5242 43.5001C91.5378 48.2497 91.5378 52.9993 91.5242 57.7534C91.5196 60.201 90.0729 61.6432 87.6253 61.6614C86.2469 61.675 84.8638 61.6841 83.4854 61.6568C82.8803 61.6432 82.5527 61.8661 82.3435 62.4393C81.9841 63.4356 81.5837 64.4183 81.1424 65.3783C80.8694 65.9651 80.9513 66.3882 81.4108 66.8341C82.4072 67.7895 83.3762 68.7721 84.3407 69.7594C86.0012 71.4563 86.0103 73.4353 84.3407 75.1095C80.9468 78.5215 77.5393 81.9291 74.1272 85.3229C72.4849 86.9562 70.5013 86.9607 68.8453 85.3548C67.899 84.4403 66.9528 83.5214 66.0611 82.5569C65.5015 81.9518 64.9874 81.7789 64.214 82.1884C63.3951 82.6206 62.5171 82.9572 61.6345 83.2484C60.9521 83.4759 60.6609 83.8307 60.6882 84.5677C60.7382 85.8825 60.7064 87.1973 60.7019 88.5166C60.6882 91.0325 59.2642 92.4655 56.7666 92.4883C56.7029 92.4883 56.6392 92.4883 56.5755 92.4883C54.2644 92.4883 51.9533 92.4883 49.6422 92.4883L49.6468 92.5383Z" fill="white"/>
<path d="M49.6702 30.1265C39.3112 30.131 30.6627 37.7285 29.2979 48.0284C27.8011 59.3065 35.7217 69.6109 47.0224 71.0895C51.2488 71.6399 55.2614 70.9575 59.0602 69.0195C59.3741 68.8602 59.6835 68.6828 60.0065 68.5463C60.8618 68.1869 61.667 68.4553 62.0674 69.2106C62.4677 69.9703 62.2357 70.771 61.4168 71.2669C59.6152 72.3497 57.6772 73.114 55.6436 73.6235C41.7315 77.1129 28.1969 67.9959 26.1861 53.7971C24.4164 41.3089 33.3742 29.2484 45.8532 27.324C59.2103 25.2631 71.4346 34.2983 73.1816 47.6372C74.0915 54.5887 72.1398 60.7759 67.6495 66.1579C67.5449 66.2807 67.4357 66.399 67.3265 66.5127C66.4985 67.3771 65.6933 67.4909 64.9654 66.8585C64.2784 66.258 64.2738 65.3254 65.0109 64.4746C66.8397 62.3637 68.2637 60.0207 69.1645 57.373C73.3636 45.0122 65.2929 32.0236 52.3498 30.2857C51.4536 30.1674 50.5619 30.1401 49.6656 30.1265H49.6702Z" fill="white"/>
<path d="M13.5565 7.91293C13.6111 8.84102 13.4474 9.7327 13.0288 10.538C12.6558 11.2522 12.8696 11.6981 13.3973 12.2076C14.9214 13.6771 16.4045 15.1875 17.8921 16.6933C18.1606 16.9617 18.4381 17.2575 18.5928 17.5987C18.8976 18.2765 18.7975 18.9498 18.1833 19.4184C17.469 19.9644 16.7184 19.8734 16.0815 19.2774C15.076 18.3311 14.1207 17.3393 13.1425 16.3658C12.4829 15.7106 11.7959 15.0783 11.1772 14.3868C10.6768 13.8226 10.2218 13.7544 9.50301 14.0501C5.77248 15.5787 1.65525 13.6543 0.577037 9.84644C-0.173618 7.17593 0.458752 4.78293 2.57423 2.94496C4.68517 1.107 7.13731 0.77034 9.66678 1.90315C12.2099 3.0405 13.4701 5.13324 13.5565 7.91293ZM6.95988 4.35983C5.07187 4.33254 3.38403 5.99763 3.35673 7.90384C3.32944 9.79185 4.99453 11.4797 6.90074 11.507C8.78875 11.5343 10.4766 9.86919 10.5039 7.95843C10.5312 6.07042 8.87064 4.38258 6.95988 4.35529V4.35983Z" fill="white"/>
<path d="M46.5996 53.6933C46.5996 54.3575 46.6132 55.0172 46.5996 55.6814C46.5859 56.3547 46.5996 57.0326 46.4995 57.6968C46.363 58.6112 45.767 59.0798 44.9163 59.0434C44.0746 59.007 43.4923 58.4611 43.4878 57.5421C43.465 52.9836 43.465 48.4251 43.4878 43.8665C43.4923 42.9066 44.0428 42.3789 45.0027 42.3561C46.4449 42.3243 47.8962 42.297 49.3338 42.3743C51.563 42.4972 53.4738 44.3397 53.9014 46.6644C54.2881 48.7617 53.0461 51.1092 50.9352 51.9736C50.0253 52.3467 50.0526 52.6014 50.6577 53.2384C51.6267 54.262 52.5548 55.3311 53.4556 56.4184C54.1516 57.2555 54.0925 58.1199 53.3691 58.7159C52.7276 59.2436 51.7996 59.1617 51.1353 58.4292C49.9252 57.1008 48.7514 55.736 47.5641 54.3894C47.332 54.13 47.0955 53.8753 46.8634 53.616C46.777 53.6387 46.686 53.6615 46.5996 53.6842V53.6933ZM46.6132 47.4469C46.6132 47.4469 46.6178 47.4469 46.6223 47.4469C46.6223 47.8609 46.6314 48.2795 46.6223 48.6935C46.6132 49.1939 46.7997 49.4714 47.3457 49.4714C48.0827 49.4714 48.8197 49.4805 49.5203 49.2121C50.6167 48.7936 51.1035 47.6517 50.6349 46.6371C50.1709 45.6317 48.6878 45.0357 47.191 45.3997C46.131 45.659 46.7906 46.6235 46.6178 47.2559C46.5996 47.315 46.6178 47.3832 46.6178 47.4469H46.6132Z" fill="white"/>
<path d="M55.5983 50.7241C55.5983 48.5767 55.5938 46.4294 55.5983 44.2821C55.6028 42.8081 56.0714 42.3486 57.5682 42.3395C58.7556 42.3304 59.9385 42.3258 61.1259 42.3486C64.0557 42.4077 66.4578 44.8326 66.4487 47.7169C66.4441 50.6012 64.0557 53.0033 61.1167 53.0807C59.4547 53.1231 58.6237 53.9845 58.6237 55.6647C58.6237 56.3062 58.6464 56.9477 58.6055 57.5892C58.5509 58.4945 57.9913 59.0313 57.1406 59.045C56.2534 59.0586 55.6256 58.5036 55.6119 57.5573C55.5801 55.2826 55.6029 53.0079 55.6029 50.7286H55.5938L55.5983 50.7241ZM60.1523 45.3694C60.0249 45.3694 59.893 45.383 59.7701 45.3694C58.9239 45.2648 58.519 45.5013 58.6874 46.4749C58.8102 47.1892 58.7283 47.9444 58.7374 48.6768C58.7435 49.6019 59.203 50.0629 60.1159 50.0599C62.1631 50.0508 63.3278 49.1864 63.3096 47.6896C63.2914 46.2201 62.1449 45.3785 60.1614 45.374L60.1523 45.3694Z" fill="white"/>
<path d="M37.3545 42.3624C38.2507 42.3624 39.1515 42.3442 40.0477 42.3669C41.0486 42.3942 41.7083 42.9765 41.7674 43.8318C41.822 44.6462 41.1896 45.3695 40.1979 45.4469C39.1151 45.5333 38.0187 45.5106 36.9268 45.4969C36.3263 45.4924 36.0488 45.7107 36.0624 46.3431C36.1307 49.7233 35.5802 49.0364 38.6374 49.1183C39.0241 49.1274 39.4108 49.1001 39.793 49.141C40.7302 49.2411 41.317 49.8598 41.3125 50.6969C41.3125 51.5294 40.7256 52.1755 39.7839 52.2392C38.8558 52.3029 37.9232 52.2983 36.9951 52.2619C36.2717 52.2346 36.0624 52.5258 36.0534 53.2218C36.0124 55.8787 35.9942 55.8741 38.6693 55.8832C39.2789 55.8832 39.8885 55.8287 40.489 55.9833C41.3125 56.1926 41.8038 56.7203 41.7447 57.562C41.6855 58.3854 41.176 58.9723 40.3253 58.9951C38.369 59.0451 36.4128 59.0496 34.4565 58.9996C33.4829 58.9723 32.9552 58.2944 32.9279 57.1343C32.8915 55.6922 32.9142 54.2455 32.9142 52.8033C32.9142 50.11 32.9097 47.4122 32.9142 44.719C32.9142 42.8673 33.4238 42.3624 35.2345 42.3578C35.9396 42.3578 36.6448 42.3578 37.3499 42.3578L37.3545 42.3624Z" fill="white"/>
</g>
<defs>
<clipPath id="clip0_503_4343">
<rect width="99" height="99" fill="white" transform="translate(0 1)"/>
</clipPath>
</defs>
</svg>
