<svg width="216" height="207" viewBox="0 0 216 207" fill="none" xmlns="http://www.w3.org/2000/svg">
<g clip-path="url(#clip0_5534_1723)">
<rect width="216" height="206.929" fill="#151517"/>
<g clip-path="url(#clip1_5534_1723)">
<path fill-rule="evenodd" clip-rule="evenodd" d="M81.6315 102.407C81.4353 100.154 79.7042 98.0971 77.3203 98.0971C74.9363 98.0971 73.2384 100.154 73.01 102.407H81.6305H81.6315ZM82.6102 102.855C82.6092 102.979 82.5588 103.098 82.4702 103.186C82.3816 103.273 82.262 103.322 82.1374 103.322H73.01C73.2384 105.576 74.9363 107.633 77.3203 107.633C78.9528 107.633 80.1619 107.012 81.0762 105.706C81.209 105.528 81.4031 105.411 81.6576 105.519C81.7159 105.545 81.7679 105.583 81.8103 105.63C81.8527 105.678 81.8845 105.734 81.9035 105.795C81.9226 105.856 81.9284 105.92 81.9207 105.983C81.913 106.047 81.8919 106.108 81.8588 106.162C80.9455 107.764 79.1168 108.546 77.3203 108.546C74.2513 108.546 72.0625 105.804 72.0625 102.865C72.0625 99.9258 74.2513 97.1827 77.3203 97.1827C80.3872 97.1827 82.6052 99.9188 82.6112 102.855H82.6102ZM93.681 97.4111C93.9425 97.4111 94.1387 97.6404 94.1387 97.8688C94.1387 98.1303 93.9425 98.3254 93.681 98.3254H91.2317V107.927C91.2291 108.047 91.1802 108.162 91.0951 108.247C91.01 108.332 90.8953 108.381 90.775 108.383C90.6545 108.381 90.5396 108.332 90.4543 108.247C90.369 108.162 90.3199 108.047 90.3173 107.927V98.3254H87.9666C87.9061 98.3269 87.846 98.3162 87.7899 98.2938C87.7337 98.2714 87.6827 98.2378 87.6399 98.1951C87.5971 98.1524 87.5634 98.1015 87.5409 98.0454C87.5184 97.9893 87.5075 97.9292 87.5089 97.8688C87.5089 97.6404 87.705 97.4111 87.9666 97.4111H90.3173V93.8965C90.3173 93.6752 90.4682 93.47 90.6865 93.4348C90.9902 93.3845 91.2317 93.5948 91.2317 93.8845V97.4111H93.681V97.4111ZM108.604 102.048V107.862C108.604 108.123 108.376 108.318 108.147 108.318C108.086 108.319 108.026 108.308 107.97 108.286C107.914 108.263 107.863 108.23 107.821 108.187C107.778 108.145 107.744 108.094 107.722 108.038C107.699 107.982 107.689 107.922 107.69 107.861V102.048C107.69 100.089 106.579 98.1293 104.392 98.1293C101.583 98.1293 100.375 100.579 100.539 103.093C100.539 103.159 100.571 103.452 100.571 103.486V107.849C100.571 108.07 100.42 108.276 100.203 108.312C99.8984 108.361 99.657 108.151 99.657 107.861V88.7575C99.657 88.5291 99.8531 88.3008 100.114 88.3008C100.375 88.3008 100.571 88.5291 100.571 88.7575V99.5667C101.356 98.1625 102.759 97.2149 104.392 97.2149C107.069 97.2149 108.604 99.5667 108.604 102.048ZM123.985 102.407C123.789 100.154 122.058 98.0971 119.674 98.0971C117.29 98.0971 115.592 100.154 115.364 102.407H123.984H123.985ZM124.964 102.855C124.963 102.979 124.913 103.098 124.824 103.186C124.735 103.273 124.616 103.322 124.491 103.322H115.364C115.592 105.576 117.29 107.633 119.674 107.633C121.308 107.633 122.516 107.012 123.43 105.706C123.563 105.528 123.757 105.411 124.011 105.519C124.07 105.545 124.122 105.583 124.164 105.63C124.207 105.678 124.238 105.734 124.257 105.795C124.276 105.856 124.282 105.92 124.275 105.983C124.267 106.047 124.246 106.108 124.213 106.162C123.299 107.764 121.471 108.546 119.674 108.546C116.605 108.546 114.417 105.804 114.417 102.865C114.417 99.9258 116.605 97.1827 119.674 97.1827C122.741 97.1827 124.959 99.9188 124.965 102.855H124.964ZM136.166 97.8356C136.166 98.1303 136.003 98.2932 135.741 98.3254C133.063 98.7177 131.855 100.906 131.855 103.452V107.817C131.855 108.038 131.704 108.242 131.486 108.279C131.182 108.328 130.94 108.118 130.94 107.828V97.8798C130.94 97.6585 131.091 97.4543 131.309 97.4181C131.614 97.3688 131.855 97.5791 131.855 97.8688V99.8936C132.606 98.6192 134.109 97.4121 135.676 97.4121C135.904 97.4121 136.166 97.575 136.166 97.8356ZM150.175 102.407C149.978 100.154 148.248 98.0971 145.864 98.0971C143.48 98.0971 141.782 100.154 141.554 102.407H150.175ZM151.154 102.855C151.153 102.979 151.103 103.098 151.014 103.186C150.925 103.273 150.806 103.322 150.681 103.322H141.554C141.782 105.576 143.48 107.633 145.864 107.633C147.497 107.633 148.705 107.012 149.619 105.706C149.753 105.528 149.947 105.411 150.202 105.519C150.269 105.548 150.327 105.593 150.373 105.65C150.418 105.708 150.448 105.775 150.46 105.847C150.481 105.956 150.46 106.069 150.403 106.163C149.489 107.763 147.66 108.547 145.864 108.547C142.794 108.547 140.608 105.804 140.608 102.864C140.608 99.9258 142.794 97.1827 145.864 97.1827C148.93 97.1827 151.149 99.9188 151.155 102.855H151.154ZM165.881 97.9512V107.927C165.881 108.188 165.653 108.383 165.425 108.383C165.364 108.385 165.304 108.374 165.248 108.352C165.192 108.329 165.141 108.296 165.098 108.253C165.055 108.21 165.022 108.159 164.999 108.103C164.977 108.047 164.966 107.987 164.967 107.927V106.033C164.217 107.534 162.878 108.613 161.179 108.613C158.469 108.613 156.967 106.261 156.967 103.779V97.9352C156.967 97.7058 157.162 97.4765 157.424 97.4765C157.685 97.4765 157.882 97.7058 157.882 97.9341V103.779C157.882 105.739 158.991 107.698 161.179 107.698C164.249 107.698 164.967 104.824 164.967 101.656V97.9341C164.968 97.8631 164.985 97.7932 165.018 97.73C165.05 97.6667 165.097 97.6118 165.154 97.5693C165.211 97.5269 165.277 97.4982 165.346 97.4854C165.416 97.4726 165.488 97.4761 165.557 97.4956C165.653 97.5264 165.736 97.5873 165.795 97.6695C165.853 97.7516 165.884 97.8504 165.881 97.9512V97.9512ZM188.969 102.016V107.86C188.969 108.123 188.74 108.318 188.512 108.318C188.451 108.319 188.391 108.309 188.335 108.286C188.279 108.264 188.228 108.23 188.185 108.188C188.142 108.145 188.109 108.094 188.086 108.038C188.064 107.982 188.053 107.922 188.054 107.861V102.016C188.054 100.057 186.945 98.1303 184.756 98.1303C182.014 98.1303 180.969 101.068 180.969 103.355V107.861C180.969 108.123 180.74 108.318 180.511 108.318C180.451 108.319 180.391 108.309 180.334 108.286C180.278 108.264 180.227 108.23 180.185 108.188C180.142 108.145 180.108 108.094 180.086 108.038C180.064 107.982 180.053 107.922 180.054 107.861V102.016C180.054 100.057 178.944 98.1303 176.756 98.1303C173.98 98.1303 172.837 100.318 172.935 103.224C172.935 103.289 172.968 103.42 172.935 103.452V107.85C172.935 108.071 172.785 108.275 172.567 108.311C172.262 108.361 172.02 108.15 172.02 107.861V97.8808C172.02 97.6595 172.171 97.4543 172.389 97.4181C172.693 97.3688 172.935 97.5791 172.935 97.8688V99.5335C173.719 98.1303 175.124 97.2159 176.757 97.2159C178.617 97.2159 180.054 98.3908 180.642 100.122C181.392 98.424 182.862 97.2149 184.756 97.2149C187.434 97.2149 188.969 99.5335 188.969 102.016" fill="white"/>
<path fill-rule="evenodd" clip-rule="evenodd" d="M28.3789 103.83L43.6281 112.845V78.5273L28.3789 103.83Z" fill="white"/>
<path fill-rule="evenodd" clip-rule="evenodd" d="M43.6289 78.5273V112.845L58.8781 103.83L43.6289 78.5273Z" fill="white"/>
<path fill-rule="evenodd" clip-rule="evenodd" d="M43.6291 96.9004L28.3789 103.831L43.6281 112.846L58.8784 103.832L43.6291 96.9004Z" fill="#707070"/>
<path fill-rule="evenodd" clip-rule="evenodd" d="M43.6291 96.9004L28.3789 103.831L43.6281 112.846L43.6291 96.9004Z" fill="#D6D6D6"/>
<path fill-rule="evenodd" clip-rule="evenodd" d="M28.3789 106.723L43.6281 128.212V115.732L28.3789 106.723Z" fill="white"/>
<path fill-rule="evenodd" clip-rule="evenodd" d="M43.6289 115.732V128.213L58.8882 106.723L43.6289 115.732Z" fill="white"/>
</g>
</g>
<defs>
<clipPath id="clip0_5534_1723">
<rect width="216" height="206.929" fill="white"/>
</clipPath>
<clipPath id="clip1_5534_1723">
<rect width="161" height="50.5796" fill="white" transform="translate(28 78)"/>
</clipPath>
</defs>
</svg>
