<svg width="231" height="127" viewBox="0 0 231 127" fill="none" xmlns="http://www.w3.org/2000/svg">
<g clip-path="url(#clip0_317_2145)">
<path d="M81.0091 29.4298C81.1111 29.2939 81.0748 29.1352 81.0657 28.9902C81.0068 28.0338 81.238 27.1092 81.4079 26.1868C81.5213 25.5726 81.689 24.9539 81.8839 24.3534C81.9428 24.1743 82.0471 24.0089 82.1468 23.8502C82.2397 23.7029 82.276 23.533 82.3553 23.3857C82.6295 22.8848 82.8267 22.3318 83.2686 21.9375C83.3275 22.0372 83.2641 22.1347 83.2641 22.2321C83.2641 22.4905 83.0578 22.6582 82.9989 22.8939C82.6816 24.2106 82.6794 25.5636 82.5547 26.9029C82.4935 27.5715 82.6771 28.2468 82.6703 28.9267C82.668 29.1987 82.6998 29.4729 82.7202 29.7471C82.8131 30.9732 83.0352 32.1743 83.289 33.3777C83.5406 34.5675 83.7445 35.7618 84.1072 36.9267C84.3383 37.67 84.54 38.427 84.6783 39.193C84.7893 39.8094 85.1338 40.3375 85.2426 40.9494C85.2789 41.1579 85.3355 41.3664 85.4126 41.5635C85.68 42.2479 85.8228 42.9686 86.088 43.6576C86.3916 44.444 86.5684 45.287 86.8336 46.0938C87.0353 46.7102 87.3435 47.2859 87.484 47.925C87.5452 48.2015 87.5883 48.4938 87.7107 48.7431C88.0891 49.5204 88.3271 50.3476 88.6013 51.1635C88.6716 51.3743 88.6739 51.6326 88.8008 51.7935C89.0025 52.0473 89.0523 52.3374 89.1498 52.6207C89.2631 52.9539 89.3696 53.2915 89.4852 53.6247C89.6846 54.1981 89.9067 54.7601 90.1334 55.3221C90.36 55.8819 90.4847 56.4779 90.7045 57.0468C91.2054 58.334 91.6337 59.6507 92.0847 60.9584C92.1572 61.1691 92.1958 61.3912 92.266 61.602C92.5289 62.3975 92.8303 63.1793 93.0592 63.9839C93.2541 64.6751 93.4219 65.3776 93.6848 66.0416C94.1743 67.2768 94.2944 68.6071 94.7499 69.8513C95.0106 70.5652 95.0718 71.3493 95.2372 72.0994C95.4321 72.9923 95.6565 73.8649 96.001 74.7102C96.1573 75.0887 96.2616 75.177 96.6741 75.1929C96.9528 75.202 97.2271 75.1566 97.4764 75.0479C98.0112 74.8167 98.5506 74.5833 99.0923 74.3929C99.8379 74.1323 100.536 73.7719 101.268 73.4932C101.399 73.4433 101.56 73.4411 101.671 73.364C102.15 73.0331 102.732 72.9447 103.253 72.7136C104.142 72.317 105.098 72.0564 106.03 71.755C107.326 71.3357 108.636 70.9504 109.93 70.5198C110.755 70.2456 111.6 70.0552 112.425 69.7742C113.59 69.3754 114.805 69.1261 115.986 68.7703C117.148 68.4212 118.345 68.1969 119.492 67.7844C120.099 67.5669 120.736 67.4218 121.366 67.2745C121.79 67.1748 122.182 66.9822 122.59 66.8756C123.501 66.6377 124.419 66.4111 125.305 66.1051C126.327 65.7516 127.399 65.5544 128.398 65.1374C128.793 64.972 129.235 64.9289 129.609 64.7521C130.336 64.4054 131.127 64.249 131.877 63.9748C133.11 63.5215 134.341 63.0547 135.576 62.606C136.628 62.223 137.647 61.7493 138.683 61.3164C138.858 61.2439 138.944 61.0581 139.148 61.006C139.683 60.87 140.158 60.5731 140.619 60.2966C141.335 59.866 142.078 59.4853 142.772 59.0116C143.295 58.6536 143.787 58.257 144.308 57.8989C144.732 57.6065 145.088 57.2326 145.473 56.8927C145.808 56.5958 146.124 56.2921 146.411 55.9522C146.665 55.653 146.91 55.338 147.22 55.0887C147.06 55.8819 146.563 56.5142 146.21 57.2145C145.978 57.6723 145.58 57.9895 145.337 58.4337C145.14 58.7941 144.759 59.0139 144.492 59.3289C144.061 59.8366 143.513 60.2218 143.028 60.6751C142.889 60.8043 142.69 60.836 142.581 60.9765C142.223 61.4388 141.686 61.6768 141.224 61.9782C140.795 62.257 140.417 62.6762 139.866 62.7623C139.714 62.7873 139.649 62.9391 139.528 63.0026C139.028 63.2655 138.549 63.5759 138.015 63.7754C137.595 63.9317 137.253 64.2354 136.818 64.3737C136.265 64.5504 135.76 64.8609 135.197 65.0264C135.114 65.0513 135.039 65.1125 134.969 65.1669C134.681 65.3799 134.339 65.4502 134.005 65.5544C133.525 65.704 133.072 65.9261 132.607 66.1074C132.201 66.266 131.778 66.402 131.363 66.5516C130.887 66.7238 130.384 66.8009 129.93 67.0683C129.536 67.2994 129.038 67.3085 128.609 67.4966C128.013 67.7572 127.349 67.8116 126.767 68.138C126.477 68.3011 126.112 68.3329 125.779 68.419C124.992 68.6184 124.224 68.8813 123.453 69.1329C122.726 69.3708 121.962 69.4909 121.248 69.7448C120.051 70.1686 118.8 70.3974 117.608 70.8031C116.709 71.1091 115.779 71.2768 114.875 71.5465C114.243 71.7368 113.604 71.9091 112.976 72.113C112.282 72.3374 111.532 72.3872 110.882 72.6819C110.17 73.0037 109.381 73.0331 108.693 73.3821C108.477 73.4909 108.242 73.4909 108.017 73.543C107.462 73.6745 106.993 74.0439 106.419 74.1232C105.694 74.2229 105.016 74.4949 104.334 74.7283C103.641 74.9663 102.945 75.1997 102.254 75.449C101.32 75.7867 100.375 76.1198 99.4775 76.5277C98.5823 76.9357 97.6463 77.2394 96.7602 77.6654C96.2775 77.8966 95.7721 78.1277 95.2055 78.1187C94.7227 78.1096 94.5528 78.019 94.3941 77.5566C94.1675 76.8949 93.9726 76.2263 93.8389 75.5374C93.7437 75.0388 93.5578 74.5583 93.44 74.062C93.304 73.4819 93.1794 72.8972 93.091 72.3102C92.9822 71.5895 92.6581 70.9346 92.5017 70.2275C92.3295 69.4456 92.0281 68.6932 91.8966 67.9C91.8649 67.7051 91.6768 67.6258 91.636 67.4377C91.5385 66.9731 91.4252 66.504 91.262 66.0666C91.0331 65.4569 90.9153 64.8133 90.6297 64.2173C90.4371 63.8139 90.3578 63.3561 90.2354 62.921C90.0994 62.4247 89.8569 61.9691 89.696 61.4819C89.4875 60.8519 89.2631 60.2264 89.0705 59.5918C88.9186 59.0978 88.6421 58.6604 88.5197 58.1459C88.3724 57.5272 88.1322 56.9221 87.867 56.3397C87.5679 55.6825 87.5022 54.9459 87.1826 54.3182C86.9288 53.8196 86.863 53.2643 86.5798 52.7839C86.4483 52.5595 86.4302 52.2717 86.3463 52.0156C86.2194 51.6304 86.1605 51.236 85.9202 50.8734C85.7163 50.5675 85.7072 50.1414 85.5735 49.7811C85.3265 49.117 85.1814 48.4236 84.8755 47.7754C84.676 47.3516 84.6012 46.8666 84.4811 46.4066C84.3497 45.9125 84.1389 45.4434 84.0074 44.9539C83.8737 44.4576 83.6584 43.9884 83.5564 43.4831C83.4499 42.9618 83.4001 42.4043 83.1666 41.942C82.8652 41.3482 82.8561 40.7001 82.6476 40.0995C82.3711 39.3108 82.2941 38.4678 82.0289 37.6791C81.7048 36.7205 81.6958 35.7074 81.485 34.7329C81.3603 34.1618 81.34 33.5771 81.2289 33.0083C81.0725 32.197 81.0771 31.3879 81.0567 30.5743C81.0567 30.5176 81.0204 30.4633 81 30.4066C81 30.0825 81 29.7562 81 29.4321L81.0091 29.4298Z" fill="#A0A0A0"/>
<path d="M133.885 112.783C133.77 112.665 133.616 112.727 133.482 112.706C132.843 112.609 132.29 112.292 131.762 111.97C131.274 111.673 130.934 111.208 130.769 110.628C130.697 110.37 130.617 110.125 130.579 109.853C130.511 109.373 130.547 108.894 130.674 108.45C130.792 108.029 130.916 107.582 131.229 107.235C131.342 107.111 131.506 107.075 131.619 106.966C132.208 106.399 132.972 106.318 133.722 106.207C134.13 106.148 134.561 106.179 134.95 106.064C135.449 105.916 135.975 105.989 136.453 105.826C136.847 105.692 137.292 105.658 137.62 105.343C137.894 105.078 137.79 104.749 137.765 104.452C137.729 104.013 137.414 103.707 136.983 103.612C136.727 103.555 136.469 103.519 136.204 103.519C134.926 103.526 133.647 103.526 132.369 103.519C131.968 103.519 131.644 103.455 131.415 103.007C131.252 102.685 131.277 102.524 131.44 102.241C131.685 101.812 132.018 101.683 132.48 101.688C133.808 101.701 135.139 101.69 136.469 101.694C136.811 101.694 137.174 101.69 137.482 101.819C138.064 102.064 138.642 102.277 139.05 102.868C139.488 103.505 139.635 104.165 139.674 104.892C139.81 107.396 139.694 109.901 139.739 112.405C139.744 112.665 139.651 112.747 139.406 112.722C139.236 112.706 139.062 112.72 138.889 112.72C138.321 112.72 138.144 112.595 137.94 112.056C137.922 112.011 137.899 111.965 137.876 111.915C137.215 112.337 136.546 112.731 135.726 112.733C135.701 112.733 135.678 112.765 135.653 112.781H133.888L133.885 112.783ZM137.783 108.355C137.783 108.092 137.77 107.827 137.788 107.564C137.804 107.306 137.67 107.285 137.468 107.31C136.841 107.392 136.213 107.505 135.58 107.532C134.83 107.564 134.132 107.759 133.446 108.033C133.056 108.19 132.802 108.462 132.659 108.849C132.405 109.536 132.532 110.195 132.99 110.716C133.312 111.084 133.869 111.172 134.336 111.235C134.996 111.328 135.671 111.276 136.331 111.075C137.115 110.834 137.566 110.2 137.718 109.592C137.82 109.189 137.786 108.767 137.786 108.353L137.783 108.355Z" fill="#7A7A7A"/>
<path d="M119.565 112.787C119.313 112.728 119.05 112.699 118.812 112.606C118.198 112.366 117.589 112.141 117.09 111.65C116.705 111.269 116.521 110.82 116.34 110.353C116.222 110.052 116.229 109.717 116.236 109.399C116.24 109.223 116.256 109.039 116.276 108.858C116.338 108.302 116.489 107.752 116.861 107.346C117.428 106.727 118.157 106.369 119.007 106.267C119.547 106.202 120.095 106.179 120.626 106.072C121.382 105.921 122.167 105.898 122.899 105.61C123.368 105.426 123.599 104.98 123.434 104.404C123.241 103.731 122.955 103.543 122.071 103.532C120.723 103.514 119.372 103.527 118.021 103.527C117.634 103.527 117.274 103.473 117.11 103.045C116.974 102.689 117.11 102.095 117.41 101.848C117.561 101.723 117.765 101.703 117.956 101.703C119.418 101.698 120.879 101.687 122.341 101.705C123.214 101.717 123.991 102.029 124.592 102.666C124.979 103.076 125.219 103.586 125.29 104.164C125.371 104.846 125.417 105.531 125.414 106.22C125.408 108.271 125.408 110.322 125.417 112.373C125.417 112.645 125.351 112.762 125.063 112.733C124.832 112.71 124.596 112.724 124.363 112.728C124.059 112.733 123.878 112.554 123.767 112.307C123.601 111.947 123.606 111.931 123.279 112.114C122.686 112.452 122.083 112.756 121.376 112.749C121.362 112.749 121.346 112.774 121.333 112.787H119.567H119.565ZM123.463 108.352C123.463 108.098 123.449 107.845 123.468 107.591C123.486 107.328 123.37 107.28 123.141 107.314C122.713 107.38 122.287 107.45 121.856 107.482C120.988 107.543 120.127 107.62 119.313 107.967C119.062 108.074 118.815 108.18 118.629 108.389C118.16 108.912 118.135 109.519 118.35 110.14C118.436 110.385 118.513 110.675 118.781 110.804C119.418 111.11 120.082 111.314 120.802 111.267C121.079 111.249 121.346 111.233 121.625 111.16C122.162 111.017 122.699 110.915 123.017 110.399C123.173 110.145 123.345 109.9 123.404 109.594C123.481 109.182 123.461 108.767 123.465 108.352H123.463Z" fill="#7A7A7A"/>
<path d="M147.231 55.1158C146.92 55.3651 146.676 55.6801 146.422 55.9793C146.132 56.3215 145.817 56.6252 145.484 56.9198C145.098 57.2597 144.742 57.6337 144.319 57.926C143.797 58.2841 143.306 58.6807 142.782 59.0388C142.089 59.5124 141.345 59.8954 140.629 60.3237C140.169 60.6002 139.693 60.8971 139.158 61.0331C138.952 61.0852 138.868 61.271 138.694 61.3436C137.658 61.7764 136.64 62.2501 135.586 62.6331C134.351 63.0818 133.121 63.5487 131.888 64.0019C131.14 64.2761 130.349 64.4302 129.619 64.7793C129.245 64.9583 128.806 65.0013 128.409 65.1645C127.409 65.5815 126.337 65.7787 125.315 66.1322C124.429 66.4382 123.511 66.6648 122.6 66.9028C122.192 67.0093 121.8 67.2019 121.376 67.3016C120.746 67.4489 120.11 67.594 119.502 67.8115C118.355 68.224 117.159 68.4461 115.996 68.7974C114.815 69.1532 113.601 69.4025 112.436 69.8013C111.611 70.0846 110.765 70.2727 109.94 70.5469C108.646 70.9775 107.336 71.3605 106.04 71.7821C105.109 72.0835 104.152 72.3464 103.264 72.7407C102.743 72.9719 102.162 73.0602 101.682 73.3911C101.571 73.4682 101.412 73.4704 101.278 73.5203C100.546 73.7991 99.8484 74.1594 99.1028 74.42C98.5589 74.6104 98.0195 74.8438 97.4869 75.075C97.2353 75.1838 96.9634 75.2291 96.6846 75.22C96.2721 75.2064 96.1656 75.118 96.0115 74.7373C95.6647 73.892 95.4426 73.0172 95.2477 72.1265C95.0823 71.3764 95.0211 70.5945 94.7605 69.8784C94.3049 68.6319 94.1848 67.3016 93.6953 66.0688C93.4324 65.4047 93.2647 64.7022 93.0698 64.011C92.8409 63.2064 92.5417 62.4223 92.2765 61.6291C92.2063 61.4184 92.1678 61.1963 92.0952 60.9855C91.642 59.6778 91.2159 58.3611 90.715 57.0739C90.4929 56.505 90.3705 55.9113 90.1439 55.3492C89.9173 54.7872 89.6952 54.2252 89.4957 53.6518C89.3802 53.3187 89.2736 52.981 89.1603 52.6478C89.0629 52.3645 89.013 52.0722 88.8113 51.8206C88.6821 51.6597 88.6821 51.4014 88.6119 51.1906C88.3376 50.3747 88.0997 49.5498 87.7212 48.7702C87.5988 48.5187 87.5557 48.2286 87.4945 47.9521C87.354 47.313 87.0458 46.7374 86.8441 46.1209C86.5789 45.3119 86.4022 44.4711 86.0985 43.6847C85.831 42.9957 85.6905 42.2728 85.4231 41.5906C85.3461 41.3935 85.2894 41.185 85.2531 40.9765C85.1443 40.3668 84.7999 39.8365 84.6888 39.2201C84.5506 38.4541 84.3489 37.6972 84.1177 36.9538C83.7573 35.7889 83.5511 34.5923 83.2995 33.4048C83.0457 32.2037 82.8259 31.0003 82.7307 29.7742C82.7103 29.5023 82.6786 29.2281 82.6808 28.9538C82.6876 28.2739 82.5041 27.5986 82.5652 26.93C82.6876 25.5929 82.6899 24.24 83.0094 22.921C83.0661 22.6853 83.2746 22.5176 83.2746 22.2592C83.2746 22.1618 83.3381 22.0643 83.2791 21.9646C83.3381 21.8445 83.3947 21.7244 83.4537 21.6043C83.4672 21.6179 83.4808 21.6405 83.4944 21.6405C83.5103 21.6405 83.5307 21.6247 83.5443 21.6111C84.0746 21.0513 84.5846 20.4689 85.2622 20.0723C85.7155 19.8071 86.1325 19.4672 86.6084 19.2564C87.2815 18.9595 87.9818 18.7034 88.6889 18.5063C89.5025 18.2774 90.3343 18.0802 91.1842 18.0122C93.5344 17.8264 95.8755 17.8468 98.2098 18.2343C99.2342 18.4043 100.259 18.5516 101.278 18.776C102.869 19.125 104.447 19.4944 106.008 19.9635C106.924 20.2377 107.835 20.5165 108.742 20.8201C108.934 20.8836 109.147 20.8995 109.326 20.9878C109.961 21.3051 110.666 21.4207 111.303 21.7335C111.708 21.9329 112.168 22.019 112.59 22.1912C113.084 22.3929 113.544 22.6921 114.052 22.8371C114.895 23.0774 115.624 23.5691 116.452 23.8275C116.461 23.8298 116.47 23.8366 116.479 23.8411C117.034 24.1493 117.637 24.3623 118.199 24.6615C118.831 24.9969 119.498 25.2689 120.137 25.5929C120.755 25.9057 121.388 26.1912 121.984 26.5493C122.104 26.6218 122.251 26.6536 122.369 26.7306C122.797 27.0094 123.258 27.2473 123.706 27.4717C124.713 27.9725 125.676 28.5504 126.639 29.1193C127.269 29.4909 127.917 29.8377 128.513 30.2819C129.032 30.6694 129.64 30.9459 130.174 31.3312C130.598 31.6371 131.088 31.8569 131.491 32.1833C131.974 32.5731 132.502 32.9085 133.003 33.262C133.984 33.9533 134.918 34.7079 135.897 35.4014C136.373 35.7391 136.76 36.1742 137.259 36.4915C137.69 36.768 138.032 37.1804 138.431 37.5136C139.086 38.062 139.707 38.6558 140.31 39.2632C140.919 39.8773 141.558 40.4643 142.111 41.1351C142.483 41.5838 142.857 42.0371 143.269 42.4473C143.507 42.683 143.596 43.0093 143.84 43.2246C144.001 43.3651 144.149 43.5056 144.257 43.6937C144.677 44.4303 145.178 45.1192 145.633 45.8309C146.173 46.6739 146.479 47.6076 146.934 48.4801C147.208 49.0059 147.324 49.6337 147.439 50.2229C147.734 51.7255 147.784 53.2393 147.347 54.7351C147.331 54.7895 147.383 54.7963 147.424 54.8031C147.272 54.8529 147.415 55.0773 147.238 55.1136L147.231 55.1158ZM92.136 38.7736C92.1292 39.1838 92.2222 39.585 92.2154 39.9906C92.1972 41.049 92.4148 42.0847 92.5054 43.134C92.5825 44.0292 92.7366 44.913 92.9474 45.7923C93.208 46.8847 93.2987 48.0088 93.5797 49.1034C93.8154 50.0235 94.1078 50.93 94.2732 51.866C94.4069 52.6161 94.6789 53.3187 94.8964 54.0416C95.0007 54.3906 95.0528 54.7555 95.1684 55.1C95.4132 55.8274 95.5922 56.573 95.8642 57.2937C96.0704 57.8399 96.1497 58.4337 96.3514 58.9889C96.5781 59.6031 96.8568 60.2014 97.0336 60.8291C97.301 61.781 97.7407 62.6535 98.1124 63.56C98.3254 64.0767 98.6835 64.5028 98.9147 64.9991C99.2229 65.6586 99.726 66.1639 100.297 66.5379C100.95 66.9617 101.695 67.254 102.516 67.2427C103.309 67.2314 104.077 67.1407 104.862 66.9571C106.181 66.6489 107.515 66.4132 108.798 65.9645C109.77 65.6246 110.784 65.4274 111.744 65.0263C112.717 64.6206 113.759 64.403 114.743 63.9974C115.674 63.6121 116.642 63.313 117.583 62.9368C118.537 62.556 119.482 62.1526 120.436 61.7719C121.123 61.4977 121.769 61.1532 122.444 60.8631C122.591 60.7997 122.739 60.7294 122.884 60.6614C123.389 60.4235 123.851 60.1016 124.366 59.8931C124.964 59.6507 125.474 59.2654 126.038 58.973C126.555 58.7033 127.047 58.3951 127.527 58.0688C127.709 57.9441 127.904 57.8376 128.089 57.7152C128.425 57.4931 128.722 57.2235 129.048 56.9923C129.361 56.7702 129.696 56.573 129.943 56.2739C130.186 55.977 130.58 55.841 130.786 55.5396C131.129 55.0478 131.634 54.7124 131.951 54.2002C132.157 53.8671 132.459 53.5883 132.633 53.2439C132.969 52.5798 133.322 51.9272 133.572 51.2155C133.798 50.5719 133.903 49.9192 133.937 49.2552C133.991 48.181 133.909 47.1158 133.554 46.0801C133.406 45.6495 133.22 45.2371 133.059 44.8133C132.806 44.147 132.423 43.5555 132.069 42.9413C131.688 42.2818 131.219 41.6926 130.761 41.0989C130.333 40.5481 129.832 40.045 129.349 39.5306C128.883 39.032 128.379 38.5742 127.899 38.0938C127.407 37.6042 126.847 37.1827 126.315 36.734C125.916 36.3986 125.506 36.0768 125.091 35.7685C124.257 35.1499 123.364 34.6082 122.514 34.0076C121.995 33.6405 121.422 33.3708 120.896 33.0127C120.397 32.6751 119.826 32.4145 119.28 32.1357C119.083 32.0337 118.92 31.8864 118.702 31.8094C118.009 31.5578 117.36 31.1975 116.706 30.8643C116.187 30.5992 115.618 30.47 115.115 30.1436C114.704 29.8762 114.185 29.7538 113.707 29.6088C112.941 29.3754 112.241 28.9697 111.45 28.8133C111.162 28.7567 110.87 28.6977 110.598 28.5912C109.668 28.2332 108.687 28.0655 107.724 27.8434C107.173 27.7164 106.6 27.687 106.04 27.6009C105.109 27.4558 104.164 27.4785 103.23 27.338C102.749 27.2655 102.264 27.3833 101.782 27.4309C100.673 27.5397 99.5651 27.6122 98.5045 28.0065C97.5843 28.3487 96.671 28.6887 95.9299 29.3618C95.871 29.4139 95.7848 29.4366 95.7237 29.4864C95.4517 29.7062 95.1276 29.8762 94.9486 30.1844C94.8692 30.3204 94.8126 30.4496 94.6607 30.513C94.5429 30.5606 94.4749 30.6626 94.4137 30.7714C94.3095 30.9572 94.212 31.1521 94.076 31.313C93.3644 32.1448 93.1106 33.1986 92.7411 34.1822C92.4782 34.8824 92.3921 35.6598 92.2969 36.4099C92.1995 37.194 92.1859 37.9872 92.136 38.7759V38.7736Z" fill="#7F7F7F"/>
<path d="M147.409 54.7918C147.369 54.785 147.316 54.7759 147.332 54.7238C147.77 53.228 147.72 51.7142 147.425 50.2116C147.31 49.6224 147.194 48.9946 146.92 48.4688C146.467 47.5986 146.161 46.6626 145.619 45.8195C145.163 45.1079 144.665 44.419 144.243 43.6824C144.135 43.4921 143.987 43.3516 143.826 43.2133C143.582 42.998 143.491 42.6717 143.255 42.436C142.843 42.0258 142.469 41.5748 142.097 41.1238C141.544 40.453 140.905 39.866 140.295 39.2519C139.692 38.6445 139.072 38.0507 138.417 37.5023C138.018 37.1669 137.678 36.7544 137.245 36.4802C136.749 36.1629 136.361 35.7255 135.883 35.3901C134.904 34.6966 133.972 33.942 132.989 33.2507C132.486 32.8972 131.96 32.5641 131.477 32.172C131.074 31.8456 130.584 31.6258 130.16 31.3199C129.625 30.9346 129.018 30.6604 128.499 30.2706C127.903 29.8241 127.255 29.4796 126.625 29.108C125.662 28.5391 124.698 27.9612 123.692 27.4604C123.243 27.236 122.783 26.9981 122.355 26.7193C122.237 26.6423 122.092 26.6105 121.97 26.538C121.376 26.1799 120.741 25.8944 120.123 25.5816C119.483 25.2576 118.817 24.9856 118.185 24.6502C117.623 24.351 117.02 24.1403 116.465 23.8298C116.456 23.8253 116.447 23.8185 116.437 23.8162C115.608 23.5578 114.878 23.0661 114.037 22.8258C113.53 22.6808 113.07 22.3816 112.576 22.1799C112.154 22.0077 111.694 21.9216 111.288 21.7221C110.652 21.4094 109.944 21.2938 109.312 20.9765C109.133 20.8882 108.92 20.8723 108.727 20.8088C107.821 20.5052 106.91 20.2264 105.994 19.9522C104.433 19.4853 102.855 19.1159 101.264 18.7646C100.244 18.5403 99.22 18.393 98.1956 18.223C95.8613 17.8377 93.5202 17.8151 91.17 18.0009C90.3201 18.0689 89.4861 18.2661 88.6747 18.495C87.9699 18.6944 87.2673 18.9482 86.5942 19.2451C86.1183 19.4559 85.7013 19.7958 85.248 20.061C84.5704 20.4598 84.0604 21.04 83.5301 21.5998C83.5165 21.6134 83.4984 21.6292 83.4802 21.6292C83.4666 21.6292 83.4531 21.6066 83.4395 21.593C83.4485 21.5137 83.4395 21.4275 83.4666 21.3527C83.7817 20.4961 84.244 19.712 84.7834 18.989C85.0463 18.6355 85.3001 18.2366 85.6741 17.9805C86.2225 17.6066 86.6667 17.1103 87.2741 16.7998C87.7387 16.5618 88.1693 16.2468 88.6747 16.0995C89.5133 15.8547 90.3224 15.5329 91.1836 15.3426C92.9944 14.9414 94.8211 14.9936 96.6477 15.0139C97.6449 15.0253 98.6512 15.0978 99.6325 15.27C100.355 15.397 101.099 15.4219 101.804 15.6236C103.007 15.9658 104.245 16.129 105.459 16.4077C105.79 16.4848 106.08 16.6706 106.416 16.7522C107.238 16.9494 108.072 17.1284 108.859 17.4298C109.672 17.7426 110.52 17.9488 111.331 18.2729C111.769 18.4474 112.22 18.5697 112.648 18.7805C113.042 18.9754 113.493 19.0479 113.906 19.2111C114.454 19.4287 114.987 19.6916 115.533 19.9159C115.943 20.0859 116.399 20.172 116.777 20.3918C117.274 20.6797 117.827 20.8247 118.319 21.108C118.625 21.2848 118.996 21.2938 119.279 21.5318C119.712 21.8944 120.293 21.951 120.773 22.2389C121.272 22.538 121.784 22.8281 122.335 23.0321C122.987 23.2768 123.538 23.7278 124.173 23.9975C124.814 24.2695 125.378 24.6729 126.004 24.972C126.709 25.3097 127.382 25.7244 128.05 26.1323C128.603 26.47 129.202 26.7533 129.709 27.1431C130.126 27.4626 130.586 27.6983 131.024 27.9658C131.502 28.2581 131.917 28.6434 132.431 28.8881C132.835 29.0785 133.147 29.432 133.546 29.6519C133.637 29.7017 133.721 29.7856 133.814 29.8445C134.283 30.1459 134.691 30.5425 135.162 30.8235C135.622 31.0978 135.98 31.4966 136.452 31.7527C136.78 31.9318 137.034 32.2377 137.347 32.4575C137.823 32.7952 138.244 33.2077 138.707 33.568C139.053 33.8377 139.359 34.1754 139.711 34.4201C140.234 34.7827 140.585 35.3221 141.129 35.6643C141.487 35.8887 141.714 36.2921 142.036 36.5867C142.494 37.0037 142.908 37.4683 143.357 37.8989C143.516 38.0507 143.572 38.2683 143.729 38.4111C144.656 39.2632 145.34 40.3147 146.122 41.2892C146.349 41.5703 146.448 41.917 146.68 42.1799C147.269 42.8507 147.496 43.7278 147.996 44.4507C148.18 44.7136 148.232 45.0694 148.334 45.3867C148.52 45.9691 148.769 46.5289 148.91 47.1317C149.161 48.2241 149.263 49.3346 149.15 50.4382C149.084 51.0796 148.928 51.7277 148.713 52.36C148.579 52.7544 148.305 53.0785 148.232 53.4955C148.184 53.7651 148.017 53.9986 147.801 54.1776C147.602 54.3453 147.661 54.6739 147.405 54.8008L147.409 54.7918Z" fill="#B8B8B8"/>
<path d="M118.194 86.914C118.711 87.5055 119.248 88.0154 119.468 88.8018C120.071 88.0925 120.642 87.4285 121.401 86.9979C122.025 86.6443 122.621 86.2432 123.298 85.9826C123.756 85.8058 124.248 85.7106 124.681 85.5089C125.68 85.0421 126.752 85.0602 127.795 84.863C128.452 84.7407 129.098 84.7701 129.744 84.7814C130.138 84.7882 130.587 84.8698 130.902 85.1259C131.389 85.5225 131.702 86.0415 131.697 86.7168C131.688 88.6251 131.697 90.5355 131.688 92.4438C131.688 92.7044 131.736 92.8154 132.035 92.8132C133.619 92.7973 135.203 92.7996 136.785 92.8132C137.064 92.8154 137.121 92.718 137.121 92.4619C137.112 90.4811 137.116 88.5027 137.116 86.522C137.116 85.9667 137.232 85.7854 137.751 85.6222C138.007 85.5429 138.147 85.3072 138.397 85.2234C138.612 85.1508 138.814 85.0353 139.022 84.9378C139.088 85.0511 139.063 85.1531 139.063 85.2528C139.063 87.9021 139.067 90.5537 139.063 93.203C139.063 93.6358 138.918 94.0007 138.616 94.3452C138.245 94.7712 137.778 94.8709 137.282 94.8732C131.598 94.8823 125.911 94.88 120.227 94.8732C119.91 94.8732 119.731 94.9163 119.627 95.2811C119.455 95.8862 119.185 96.4641 118.743 96.9401C118.636 97.0556 118.55 97.1939 118.473 97.3321C118.36 97.5316 118.224 97.6834 118.004 97.7808C117.873 97.8398 117.694 97.8919 117.655 98.0868C117.646 98.1299 117.594 98.1707 117.533 98.1503C117.462 98.1253 117.492 98.0619 117.501 98.0211C117.569 97.6811 117.684 97.3525 117.766 97.0126C117.891 96.4981 118.054 95.9927 118.054 95.4556C118.054 95.4103 118.086 95.3627 118.106 95.3174C118.256 94.9933 118.185 94.88 117.832 94.8777C116.866 94.8777 115.903 94.8641 114.938 94.88C114.013 94.8959 113.222 94.1775 113.227 93.1735C113.242 88.7067 113.238 84.2375 113.227 79.7707C113.227 79.4489 113.313 79.2676 113.63 79.1611C114.065 79.0138 114.453 78.7599 114.842 78.5174C114.938 78.4585 115.037 78.3679 115.13 78.4087C115.23 78.454 115.18 78.5922 115.18 78.6874C115.18 82.5764 115.18 86.4653 115.18 90.3542C115.18 91.0251 115.187 91.6936 115.176 92.3644C115.173 92.5865 115.219 92.693 115.475 92.6862C116.297 92.6704 117.12 92.6726 117.941 92.6862C118.176 92.6908 118.228 92.6001 118.228 92.3826C118.222 90.9208 118.233 89.4591 118.217 87.9973C118.213 87.6574 118.131 87.3174 118.188 86.9118L118.194 86.914ZM124.937 92.6862C126.419 92.6862 127.899 92.6772 129.381 92.693C129.68 92.6953 129.755 92.6024 129.751 92.3146C129.735 91.0568 129.739 89.7967 129.748 88.5389C129.751 88.2013 129.726 87.8681 129.547 87.5848C129.377 87.3174 129.238 87.0137 128.849 86.9435C128.135 86.8188 127.428 86.9208 126.745 87.05C126.129 87.1656 125.499 87.2789 124.901 87.5146C124.372 87.7231 123.804 87.8749 123.344 88.1945C123.026 88.4143 122.666 88.5843 122.387 88.8789C122.19 89.0851 122.004 89.3321 121.782 89.4885C121.234 89.8715 120.996 90.4743 120.674 90.9933C120.434 91.3831 120.223 91.8568 120.189 92.3599C120.173 92.5888 120.177 92.6976 120.463 92.693C121.954 92.6772 123.446 92.6862 124.939 92.6862H124.937Z" fill="#7A7A7A"/>
<path d="M90.437 112.722C89.7865 112.722 89.1383 112.716 88.4879 112.722C87.8216 112.731 87.1508 112.727 86.5366 112.45C85.8839 112.156 85.17 111.947 84.6804 111.367C84.2498 110.859 83.7943 110.365 83.5699 109.726C83.3773 109.176 83.2436 108.598 83.2164 108.018C83.1779 107.213 83.1371 106.397 83.3229 105.599C83.4634 104.992 83.6583 104.425 84.0549 103.909C84.2634 103.635 84.4697 103.32 84.7167 103.118C85.0974 102.807 85.4329 102.397 85.9723 102.288C86.2692 102.227 86.5502 102.071 86.8335 101.944C87.2255 101.769 87.6471 101.729 88.0618 101.706C88.8528 101.661 89.6483 101.67 90.369 102.082C90.5729 102.198 90.8064 102.216 91.0149 102.329C91.4931 102.59 91.9078 102.907 92.2455 103.342C92.7033 103.929 93.0999 104.536 93.2246 105.291C93.3107 105.815 93.3175 106.37 93.0183 106.785C92.7486 107.156 92.309 107.424 91.8013 107.485C91.382 107.535 90.9537 107.553 90.5412 107.623C90.0358 107.709 89.5327 107.8 89.0228 107.877C88.6919 107.927 88.361 107.922 88.0301 107.961C87.1893 108.056 86.3417 108.095 85.4963 108.158C85.17 108.183 85.1178 108.267 85.1745 108.582C85.2629 109.067 85.5326 109.461 85.7592 109.88C85.8748 110.093 86.0969 110.159 86.2759 110.277C86.8448 110.655 87.4454 110.921 88.1616 110.905C89.4806 110.875 90.7996 110.9 92.1186 110.893C92.3634 110.893 92.6036 110.927 92.8393 110.968C93.1362 111.02 93.2382 111.27 93.3107 111.528C93.3946 111.825 93.3583 112.131 93.3764 112.432C93.39 112.659 93.3084 112.731 93.0818 112.729C92.2002 112.718 91.3163 112.725 90.4324 112.725L90.437 112.722ZM88.5196 103.394C88.1978 103.431 87.8284 103.474 87.459 103.521C87.0578 103.571 86.7587 103.798 86.4731 104.022C86.1694 104.26 85.8272 104.464 85.6255 104.836C85.3807 105.291 85.1609 105.74 85.1473 106.272C85.1405 106.526 85.2402 106.601 85.4669 106.569C85.7366 106.533 86.0108 106.531 86.2805 106.497C87.3117 106.365 88.3474 106.309 89.3808 106.204C89.9066 106.152 90.4347 106.123 90.9378 105.935C91.314 105.792 91.4274 105.552 91.3322 105.155C91.1531 104.412 90.5458 104.054 89.9769 103.703C89.5667 103.451 89.059 103.412 88.5219 103.399L88.5196 103.394Z" fill="#7A7A7A"/>
<path d="M103.909 94.8623C104.056 94.7467 104.201 94.6289 104.35 94.5178C104.906 94.1008 105.465 93.6861 105.892 93.1263C105.964 93.0311 106.062 92.9563 106.154 92.877C106.476 92.6028 106.356 92.2968 106.168 92.0385C105.989 91.7937 105.907 91.5172 105.812 91.2476C105.54 90.4816 105.105 89.7926 104.811 89.0402C104.711 88.7864 104.616 88.5325 104.525 88.2765C104.437 88.0226 104.221 87.8527 104.128 87.5898C103.875 86.8691 103.55 86.1779 103.186 85.5025C102.991 85.1445 102.886 84.7252 102.775 84.3195C102.633 83.787 102.524 83.2589 102.497 82.7014C102.454 81.8538 102.732 81.1263 103.133 80.4193C103.195 80.3105 103.312 80.2606 103.399 80.1768C103.505 80.0725 103.535 80.1949 103.553 80.2923C103.63 80.7297 103.603 81.183 103.734 81.6091C103.895 82.1326 103.918 82.7218 104.214 83.1773C104.659 83.8595 104.881 84.6436 105.318 85.328C105.463 85.5524 105.624 85.7926 105.697 86.0668C105.869 86.7127 106.29 87.2408 106.553 87.8481C106.764 88.3354 106.896 88.8612 107.163 89.3122C107.36 89.6453 107.433 90.0034 107.571 90.3637C107.904 89.5886 108.045 89.0402 108.051 88.213C108.067 85.6249 108.072 83.0345 108.049 80.4442C108.042 79.7847 108.226 79.6895 108.768 79.3926C109.096 79.2113 109.475 79.1252 109.778 78.8804C109.957 78.7354 110.012 78.8396 110.01 79.0323C110.005 79.9048 110.01 80.7796 110.01 81.6521C110.01 83.3994 110.01 85.1445 110.01 86.8918C110.01 88.1586 109.887 89.4141 109.568 90.6379C109.432 91.1546 109.273 91.6827 108.969 92.1541C108.777 92.451 108.702 92.8249 108.507 93.1331C108.167 93.6725 107.784 94.1869 107.326 94.6175C107.131 94.8011 106.834 94.9597 106.483 94.9461C105.633 94.9121 104.783 94.9348 103.931 94.9348C103.922 94.9099 103.915 94.8872 103.906 94.8623H103.909Z" fill="#7A7A7A"/>
<path d="M109.141 112.727C108.125 112.727 107.11 112.722 106.095 112.731C105.875 112.731 105.775 112.677 105.793 112.441C105.809 112.239 105.795 112.036 105.798 111.832C105.8 111.222 106.049 110.964 106.661 110.961C108.073 110.957 109.483 110.977 110.892 110.95C111.373 110.941 111.86 110.936 112.338 110.839C112.508 110.805 112.671 110.773 112.758 110.59C112.785 110.533 112.855 110.474 112.919 110.458C113.202 110.383 113.286 110.164 113.322 109.914C113.376 109.552 113.385 109.185 113.261 108.833C113.122 108.446 112.742 108.314 112.415 108.24C111.722 108.081 111.008 108.002 110.299 107.918C109.884 107.868 109.494 107.736 109.093 107.637C108.694 107.539 108.272 107.539 107.876 107.424C107.046 107.181 106.462 106.674 106.158 105.849C105.913 105.182 105.94 104.534 106.142 103.861C106.28 103.396 106.489 102.991 106.765 102.594C107.012 102.243 107.418 102.179 107.724 101.948C108.03 101.717 108.408 101.713 108.76 101.708C110.292 101.688 111.824 101.697 113.358 101.701C113.791 101.701 114.253 102.003 114.364 102.331C114.573 102.955 114.156 103.521 113.465 103.523C112.064 103.53 110.661 103.566 109.263 103.512C108.334 103.476 107.844 104.267 107.996 105.087C108.035 105.291 108.159 105.441 108.345 105.554C108.769 105.808 109.247 105.855 109.712 105.962C110.856 106.227 112.048 106.245 113.177 106.542C114.095 106.785 114.913 107.247 115.198 108.326C115.362 108.94 115.414 109.561 115.271 110.132C115.035 111.077 114.641 111.918 113.578 112.344C112.866 112.629 112.184 112.727 111.454 112.729C110.684 112.729 109.911 112.729 109.141 112.729V112.727Z" fill="#7A7A7A"/>
<path d="M93.3411 94.9334C91.6368 94.9334 89.9302 94.9175 88.2259 94.9402C87.3602 94.9515 86.5783 94.7045 85.9392 94.1628C85.6355 93.9067 85.368 93.5623 85.1482 93.1906C84.7085 92.4518 84.5794 91.654 84.5726 90.8291C84.568 90.1243 84.6156 89.415 84.8151 88.7351C84.8966 88.454 85.0734 88.2025 85.2071 87.9351C85.2321 87.8852 85.2615 87.8399 85.3182 87.858C85.3884 87.8784 85.3794 87.9509 85.3907 88.0099C85.5222 88.7169 85.6763 89.4195 85.7805 90.1288C85.8304 90.4642 86.0955 90.6705 86.1817 90.9719C86.3244 91.4682 86.6735 91.7651 87.0587 92.0982C87.7001 92.6512 88.4321 92.7283 89.1891 92.7328C91.6141 92.7509 94.0414 92.7419 96.4663 92.7373C97.1145 92.7373 97.7582 92.828 98.4086 92.8076C98.6556 92.7985 98.7395 92.7373 98.7372 92.4812C98.7259 91.0195 98.7282 89.5577 98.7372 88.096C98.7372 87.8308 98.7146 87.5158 98.9911 87.3685C99.4942 87.1033 100.02 86.879 100.537 86.6365C100.652 86.5821 100.679 86.6501 100.679 86.7475C100.679 86.8291 100.679 86.9107 100.679 86.99C100.679 89.0614 100.679 91.1328 100.679 93.2019C100.679 93.943 100.054 94.7135 99.3287 94.8608C99.0817 94.9107 98.8324 94.9334 98.5763 94.9334C96.8312 94.9288 95.0861 94.9311 93.3388 94.9311L93.3411 94.9334Z" fill="#7A7A7A"/>
<path d="M95.5695 107.272C95.5695 106.155 95.5604 105.038 95.5763 103.923C95.5808 103.637 95.5128 103.508 95.2091 103.544C95.0505 103.565 94.8896 103.54 94.7287 103.503C94.153 103.374 93.9128 102.678 94.221 102.173C94.4635 101.776 94.8103 101.713 95.1933 101.731C95.5128 101.745 95.5922 101.634 95.5763 101.335C95.5536 100.899 95.599 100.46 95.5627 100.027C95.531 99.6484 95.6624 99.3538 95.8777 99.0705C95.9933 98.9187 96.1406 98.862 96.3219 98.862C96.6573 98.862 96.9928 98.8711 97.3259 98.8597C97.5344 98.8529 97.5843 98.9413 97.582 99.1317C97.5752 99.8932 97.5865 100.655 97.5752 101.416C97.5707 101.65 97.6364 101.729 97.8812 101.733C98.4364 101.742 98.9962 101.656 99.5469 101.783C100.052 101.899 100.252 102.248 100.195 102.901C100.159 103.322 99.9095 103.537 99.3996 103.551C98.892 103.565 98.3843 103.562 97.8766 103.551C97.6613 103.546 97.5707 103.601 97.5729 103.839C97.5797 105.951 97.5729 108.063 97.5797 110.175C97.5797 110.708 97.9628 111.023 98.6268 111.048C98.9713 111.061 99.318 111.059 99.6625 111.048C100.03 111.036 100.299 111.263 100.533 111.476C100.707 111.635 100.682 111.945 100.682 112.197C100.682 112.845 100.757 112.75 100.145 112.754C99.5152 112.759 98.8852 112.743 98.2574 112.759C97.5571 112.775 96.9157 112.582 96.3197 112.235C96.1451 112.133 96.016 111.961 95.9162 111.757C95.6261 111.166 95.5423 110.551 95.5627 109.899C95.5899 109.026 95.5695 108.152 95.5695 107.279V107.272Z" fill="#7A7A7A"/>
<path d="M142.171 107.159C142.171 105.926 142.164 104.891 142.176 103.855C142.178 103.613 142.101 103.529 141.863 103.547C141.664 103.563 141.462 103.554 141.265 103.488C140.816 103.338 140.621 103.039 140.689 102.561C140.768 101.99 141.029 101.756 141.627 101.725C141.718 101.72 141.811 101.716 141.901 101.725C142.119 101.75 142.18 101.648 142.176 101.441C142.164 100.904 142.171 100.365 142.176 99.8278C142.176 99.7213 142.205 99.6216 142.237 99.5151C142.416 98.9236 142.819 98.817 143.379 98.8488C144.181 98.8918 144.184 98.8601 144.184 99.6737C144.184 100.231 144.204 100.791 144.177 101.348C144.161 101.673 144.279 101.734 144.574 101.734C145.117 101.734 145.666 101.673 146.21 101.781C146.375 101.813 146.495 101.87 146.559 102.026C146.647 102.244 146.908 102.352 146.924 102.613C146.951 103.098 146.475 103.542 145.906 103.551C145.419 103.56 144.932 103.56 144.444 103.551C144.247 103.547 144.179 103.617 144.179 103.814C144.184 105.906 144.147 107.998 144.202 110.09C144.22 110.806 144.268 110.853 145.022 111.001C145.534 111.1 146.051 110.989 146.561 111.103C146.996 111.198 147.168 111.479 147.221 111.814C147.357 112.684 147.295 112.757 146.43 112.757C145.902 112.757 145.374 112.768 144.845 112.755C144.356 112.741 143.873 112.721 143.409 112.51C142.74 112.206 142.382 111.737 142.282 110.989C142.105 109.65 142.214 108.308 142.171 107.168V107.159Z" fill="#7A7A7A"/>
<path d="M144.301 86.8128C144.301 89.3714 144.297 91.9278 144.308 94.4864C144.308 94.7946 144.229 94.8943 143.918 94.8762C143.503 94.849 143.086 94.8558 142.672 94.8762C142.413 94.8875 142.348 94.7946 142.348 94.5453C142.357 92.789 142.352 91.0326 142.352 89.2785C142.352 86.2938 142.352 83.3114 142.352 80.3267C142.352 80.1862 142.368 80.0479 142.391 79.9074C142.443 79.5788 142.606 79.4428 142.937 79.3726C143.195 79.3159 143.481 79.2298 143.678 78.9964C143.8 78.8513 144.007 78.8558 144.174 78.7924C144.272 78.7561 144.299 78.8128 144.299 78.8989C144.299 78.9805 144.299 79.0621 144.299 79.1414C144.299 81.7 144.299 84.2564 144.299 86.815L144.301 86.8128Z" fill="#7A7A7A"/>
<path d="M129.191 105.773C129.191 107.976 129.186 110.177 129.197 112.38C129.197 112.665 129.132 112.776 128.83 112.758C128.375 112.733 127.917 112.744 127.461 112.756C127.253 112.76 127.171 112.695 127.178 112.479C127.192 112.126 127.183 111.77 127.183 111.414C127.183 107.527 127.189 103.641 127.176 99.7541C127.176 99.1128 127.452 98.7343 128.125 98.7955C128.386 98.8204 128.653 98.8114 128.916 98.7955C129.129 98.7842 129.197 98.8635 129.195 99.0743C129.186 99.8765 129.191 100.677 129.191 101.479C129.191 102.909 129.191 104.341 129.191 105.771V105.773Z" fill="#7A7A7A"/>
<path d="M104.095 107.208C104.095 108.924 104.088 110.64 104.102 112.353C104.104 112.648 104.023 112.743 103.728 112.727C103.325 112.702 102.917 112.706 102.511 112.727C102.264 112.738 102.203 112.645 102.205 112.412C102.212 110.646 102.21 108.881 102.21 107.116C102.21 105.604 102.21 104.092 102.21 102.578C102.21 101.964 102.473 101.701 103.094 101.695C103.327 101.692 103.56 101.708 103.794 101.69C104.041 101.67 104.102 101.772 104.102 102.003C104.095 103.739 104.098 105.472 104.098 107.208H104.095Z" fill="#7A7A7A"/>
<path d="M92.5262 85.2745C92.5262 85.3765 92.5171 85.4785 92.5262 85.5782C92.5987 86.2513 92.2565 86.6298 91.5063 86.6796C90.5137 86.7453 90.5137 86.7499 90.5137 85.7799C90.5137 85.6688 90.5137 85.5578 90.5137 85.4445C90.5137 84.7623 90.8559 84.4247 91.5426 84.4224C91.7851 84.4224 92.0299 84.4292 92.2724 84.4224C92.4514 84.4156 92.5353 84.4745 92.5239 84.6649C92.5126 84.8666 92.5217 85.0706 92.5239 85.2745H92.5262Z" fill="#7A7A7A"/>
<path d="M95.0162 85.2815C95.0162 85.4039 95.0094 85.5263 95.0162 85.6464C95.0592 86.3875 94.7147 86.63 93.9986 86.673C93.0694 86.7297 93.0626 86.7093 93.0694 85.7801C93.0694 85.5286 93.0603 85.277 93.0966 85.0232C93.1532 84.6311 93.4909 84.4838 93.7969 84.4385C94.1232 84.3886 94.4654 84.4317 94.8009 84.4249C94.9572 84.4226 95.0207 84.4838 95.0162 84.6402C95.0094 84.8532 95.0162 85.0662 95.0162 85.2793V85.2815Z" fill="#7A7A7A"/>
<path d="M136.686 81.9419C136.686 82.1345 136.693 82.3272 136.686 82.5198C136.668 82.9141 136.38 83.1906 135.986 83.1929C135.632 83.1951 135.277 83.1861 134.923 83.1951C134.739 83.1997 134.671 83.1317 134.676 82.9481C134.685 82.6036 134.671 82.2592 134.681 81.9147C134.696 81.3141 134.959 81.0626 135.56 81.0626C135.864 81.0626 136.167 81.0671 136.471 81.0626C136.623 81.0603 136.693 81.117 136.689 81.2756C136.682 81.4977 136.689 81.7221 136.689 81.9442L136.686 81.9419Z" fill="#7A7A7A"/>
<path d="M139.185 81.905C139.174 82.2676 139.253 82.6439 138.968 82.9589C138.836 83.1039 138.698 83.19 138.505 83.19C138.161 83.19 137.819 83.19 137.474 83.19C137.361 83.19 137.234 83.1991 137.241 83.0314C137.259 82.5487 137.175 82.0637 137.293 81.5832C137.388 81.1889 137.526 81.0711 137.934 81.0597C138.258 81.0529 138.582 81.0665 138.904 81.0552C139.108 81.0484 139.203 81.1096 139.187 81.3271C139.174 81.5175 139.185 81.7124 139.185 81.9028V81.905Z" fill="#7A7A7A"/>
<path d="M104.096 99.7574C104.096 99.9092 104.096 100.061 104.096 100.213C104.096 100.752 103.79 101.054 103.246 101.054C102.972 101.054 102.7 101.049 102.426 101.054C102.272 101.056 102.206 100.997 102.208 100.841C102.213 100.394 102.199 99.9477 102.215 99.5035C102.224 99.1908 102.523 98.8826 102.831 98.8667C103.185 98.8508 103.541 98.8667 103.894 98.8599C104.06 98.8576 104.101 98.9415 104.098 99.0865C104.094 99.3086 104.098 99.533 104.098 99.7551L104.096 99.7574Z" fill="#7A7A7A"/>
<path d="M92.1371 38.7422C92.1869 37.9535 92.2005 37.1603 92.298 36.3762C92.3932 35.6238 92.4793 34.8487 92.7422 34.1484C93.1116 33.1649 93.3654 32.111 94.0771 31.2793C94.213 31.1184 94.3105 30.9235 94.4148 30.7377C94.4759 30.6289 94.5439 30.5269 94.6618 30.4793C94.8159 30.4159 94.8726 30.2867 94.9496 30.1507C95.1287 29.8425 95.4527 29.6725 95.7247 29.4527C95.7859 29.4028 95.872 29.3824 95.9309 29.3281C96.672 28.655 97.5876 28.315 98.5055 27.9728C99.5662 27.5785 100.674 27.5037 101.783 27.3972C102.265 27.3496 102.75 27.2317 103.231 27.3043C104.165 27.4448 105.11 27.4221 106.041 27.5671C106.601 27.6533 107.174 27.6827 107.725 27.8096C108.688 28.0317 109.667 28.1994 110.599 28.5575C110.871 28.6618 111.163 28.723 111.451 28.7796C112.242 28.936 112.944 29.3416 113.708 29.5751C114.186 29.7201 114.705 29.8448 115.116 30.1099C115.619 30.4363 116.188 30.5677 116.707 30.8306C117.362 31.1637 118.007 31.5263 118.703 31.7756C118.921 31.855 119.084 32.0023 119.281 32.102C119.827 32.3807 120.398 32.6414 120.897 32.979C121.423 33.3371 121.996 33.6068 122.515 33.9739C123.365 34.5745 124.256 35.1161 125.092 35.7348C125.507 36.043 125.919 36.3649 126.316 36.7003C126.848 37.149 127.408 37.5705 127.9 38.06C128.381 38.5405 128.884 38.9983 129.351 39.4969C129.831 40.0113 130.334 40.5144 130.762 41.0651C131.223 41.6566 131.692 42.2481 132.07 42.9076C132.424 43.5218 132.804 44.1133 133.061 44.7796C133.221 45.2034 133.407 45.6158 133.555 46.0464C133.91 47.0821 133.992 48.1473 133.938 49.2215C133.904 49.8855 133.799 50.5382 133.573 51.1818C133.323 51.8934 132.968 52.5461 132.634 53.2102C132.46 53.5546 132.159 53.8356 131.952 54.1665C131.637 54.6764 131.13 55.0141 130.787 55.5059C130.579 55.805 130.185 55.9433 129.944 56.2402C129.697 56.5416 129.362 56.7365 129.049 56.9586C128.723 57.1897 128.426 57.4594 128.09 57.6815C127.905 57.8039 127.712 57.9127 127.528 58.0351C127.046 58.3614 126.554 58.6696 126.039 58.9393C125.475 59.2339 124.965 59.6169 124.367 59.8594C123.852 60.0679 123.39 60.3897 122.885 60.6277C122.74 60.6957 122.592 60.7659 122.445 60.8294C121.77 61.1195 121.121 61.464 120.437 61.7382C119.483 62.1189 118.538 62.5223 117.584 62.903C116.643 63.277 115.678 63.5784 114.744 63.9637C113.76 64.3693 112.718 64.5869 111.746 64.9926C110.787 65.3937 109.774 65.5909 108.799 65.9308C107.517 66.3795 106.179 66.613 104.863 66.9234C104.078 67.107 103.31 67.1977 102.517 67.209C101.697 67.2203 100.949 66.928 100.298 66.5042C99.7248 66.1302 99.2217 65.6249 98.9157 64.9654C98.6846 64.4691 98.3265 64.0453 98.1134 63.5263C97.7418 62.6198 97.2998 61.7472 97.0347 60.7954C96.8579 60.1676 96.5791 59.5693 96.3525 58.9552C96.1485 58.4022 96.0715 57.8062 95.8652 57.26C95.5933 56.5393 95.4142 55.7937 95.1694 55.0662C95.0539 54.7218 95.0017 54.3569 94.8975 54.0079C94.6799 53.2849 94.4057 52.5801 94.2742 51.8322C94.1088 50.8963 93.8164 49.9875 93.5807 49.0696C93.2997 47.975 93.2091 46.851 92.9484 45.7586C92.7377 44.8793 92.5858 43.9977 92.5065 43.1003C92.4158 42.0532 92.1983 41.0175 92.2164 39.9569C92.2232 39.5535 92.1303 39.1501 92.1371 38.7399V38.7422ZM104.366 65.5501C105.051 65.609 105.733 65.4957 106.417 65.4277C106.737 65.396 107.059 65.3438 107.369 65.2668C107.716 65.1807 108.049 65.0288 108.398 64.954C109.089 64.809 109.747 64.5484 110.429 64.3739C110.884 64.256 111.295 64.0317 111.73 63.8753C112.326 63.6623 112.899 63.3948 113.491 63.175C113.731 63.0866 113.93 62.9008 114.182 62.8147C114.88 62.5744 115.524 62.2028 116.154 61.8402C116.605 61.5818 117.083 61.3642 117.522 61.0606C118.13 60.639 118.817 60.315 119.431 59.8866C119.612 59.7597 119.85 59.7076 120.009 59.5603C120.553 59.0526 121.244 58.7467 121.77 58.2073C122.141 57.8266 122.624 57.5659 122.955 57.1104C123.175 56.8067 123.429 56.5167 123.68 56.2334C124.14 55.7121 124.369 55.0594 124.659 54.4589C124.936 53.8832 125.072 53.2283 125.137 52.5688C125.246 51.4787 125.126 50.4294 124.825 49.3756C124.659 48.7932 124.337 48.2878 124.156 47.7212C124.097 47.5376 124.052 47.3473 123.932 47.1932C123.442 46.5654 123.116 45.8243 122.542 45.2487C122.182 44.8861 121.974 44.383 121.504 44.111C121.414 44.0589 121.33 43.9614 121.285 43.8663C121.015 43.2997 120.403 43.0867 120.006 42.6379C119.712 42.3048 119.288 42.026 118.891 41.7632C118.175 41.2872 117.473 40.7886 116.736 40.3399C115.839 39.7938 114.916 39.2906 113.989 38.8034C113.404 38.4952 112.77 38.2504 112.138 38.0306C111.761 37.8991 111.43 37.6657 111.036 37.5728C110.556 37.4595 110.057 37.3688 109.611 37.1694C108.69 36.7569 107.682 36.7728 106.735 36.5076C106.429 36.4215 106.091 36.451 105.769 36.4215C104.464 36.3014 103.172 36.3603 101.898 36.6821C101.427 36.8 100.967 36.9314 100.507 37.1241C99.8087 37.4187 99.1174 37.7042 98.5395 38.1915C98.0205 38.6289 97.4857 39.0617 97.0981 39.6328C96.8239 40.0385 96.5293 40.4328 96.2913 40.8589C95.9581 41.4572 95.8448 42.1439 95.6069 42.7807C95.3644 43.4311 95.3349 44.1654 95.3326 44.8748C95.3281 46.0396 95.3054 47.2068 95.3893 48.3716C95.4391 49.047 95.4573 49.7246 95.5298 50.3977C95.557 50.6379 95.5207 50.8917 95.6046 51.1184C95.7111 51.4107 95.7632 51.7121 95.8131 52.0136C95.9219 52.6708 95.9921 53.3348 96.0987 53.992C96.2346 54.8351 96.459 55.6555 96.6902 56.4781C96.8919 57.1943 97.0845 57.9172 97.3089 58.622C97.5695 59.4379 97.9571 60.2152 98.297 61.0062C98.3718 61.1829 98.3582 61.4141 98.5168 61.5319C98.7389 61.6951 98.8047 61.9353 98.9203 62.1552C99.0268 62.3569 99.1378 62.5563 99.2579 62.7512C99.4642 63.0889 99.752 63.354 99.9696 63.6759C100.219 64.043 100.554 64.3172 100.901 64.596C101.205 64.8407 101.59 64.9155 101.871 65.1761C101.996 65.2917 102.15 65.3325 102.308 65.3665C102.984 65.507 103.666 65.5977 104.364 65.5455L104.366 65.5501Z" fill="#A0A0A0"/>
</g>
<defs>
<clipPath id="clip0_317_2145">
<rect width="231" height="127" fill="white"/>
</clipPath>
</defs>
</svg>
