<svg width="100" height="100" viewBox="0 0 100 100" fill="none" xmlns="http://www.w3.org/2000/svg">
<g clip-path="url(#clip0_580_1822)">
<path d="M98.791 75.5783C98.3363 76.3421 97.6429 76.5986 96.7775 76.5758C95.6657 76.5473 94.5519 76.6005 93.442 76.5587C92.7161 76.5302 92.4066 76.7088 92.3092 77.522C91.7972 81.8236 88.84 85.101 84.7481 86.0263C79.0305 87.3183 73.6185 83.4613 72.8601 77.4973C72.7646 76.7468 72.5048 76.5587 71.8018 76.5587C61.0619 76.5739 50.3201 76.5758 39.5803 76.5587C38.8543 76.5587 38.6289 76.7962 38.5162 77.5106C37.7903 82.1029 34.9744 85.1751 30.7717 86.0605C25.1267 87.2499 19.5867 83.2238 19.0728 77.5125C19.0041 76.7582 18.7557 76.5492 18.0394 76.5606C15.7833 76.5929 13.5272 76.5796 11.2711 76.5701C8.91562 76.5606 7.61277 75.2648 7.5994 72.9392C7.58794 71.0557 6.6436 70.1133 4.76638 70.1121C4.09967 70.1121 3.42914 70.1425 2.76626 70.0855C1.69647 69.9943 1.07371 69.316 1.11955 68.3736C1.16349 67.473 1.80345 66.8422 2.83885 66.8384C7.6376 66.8175 12.4344 66.8175 17.2332 66.8384C18.3049 66.8441 18.9601 67.5186 18.962 68.4629C18.962 69.392 18.3164 70.0589 17.2256 70.0912C15.4795 70.1425 13.7297 70.1463 11.9836 70.1007C11.1392 70.0779 10.8737 70.3857 10.8909 71.2027C10.9444 73.5947 10.6884 73.2622 12.9846 73.2812C14.7956 73.2964 16.6085 73.2489 18.4176 73.3002C19.218 73.323 19.6517 73.0798 20.0299 72.3369C21.8543 68.7346 24.8745 66.8327 28.9072 66.865C32.9132 66.8973 35.8265 68.9132 37.6298 72.4528C37.9316 73.0456 38.2526 73.2964 38.9212 73.2945C48.8033 73.2793 58.6855 73.2755 68.5695 73.2983C69.391 73.2983 69.5839 72.981 69.5763 72.2324C69.5457 69.0443 69.5629 65.8561 69.5648 62.6679C69.5648 62.3525 69.5457 62.0295 69.6049 61.7237C69.7539 60.958 70.2392 60.4754 71.0224 60.407C71.8477 60.3329 72.4532 60.7357 72.6978 61.5185C72.8353 61.9612 72.8525 62.4513 72.8544 62.9206C72.8678 66.0138 72.8563 69.1089 72.8678 72.202C72.8678 72.5288 72.713 73.0171 73.1066 73.133C73.5612 73.266 73.5899 72.7264 73.7332 72.449C75.5785 68.8657 78.53 66.8802 82.5646 66.8669C86.5992 66.8536 89.5889 68.8049 91.3999 72.4091C91.7361 73.0779 92.1316 73.3553 92.8689 73.2964C93.5318 73.2432 94.2024 73.2698 94.8691 73.2869C95.4173 73.3021 95.6867 73.1045 95.679 72.5193C95.658 70.9101 95.6542 69.2989 95.681 67.6896C95.6924 67.0436 95.381 66.865 94.8041 66.8878C94.0056 66.9182 93.209 66.8517 92.4563 66.5743C90.3129 65.7877 89.2374 64.1936 89.0903 61.9725C89.0254 60.9979 89.0387 60.0137 89.0903 59.039C89.1572 57.7166 89.7647 57.1637 91.079 57.1504C92.2538 57.139 93.4306 57.1314 94.6054 57.1504C95.2645 57.1618 95.3008 56.892 95.02 56.4075C94.0648 54.7583 92.5958 53.8957 90.7179 53.8805C85.0614 53.8387 79.4049 53.8729 73.7484 53.8539C73.0798 53.852 72.8391 54.1085 72.8525 54.7469C72.8601 55.1516 72.8258 55.5791 72.6997 55.961C72.4437 56.7381 71.8668 57.1371 71.0243 57.0687C70.2143 57.0041 69.7616 56.512 69.6107 55.7596C69.5381 55.3929 69.5667 55.0053 69.5667 54.6272C69.5648 46.1666 69.5667 37.706 69.5648 29.2454C69.5648 27.9287 69.561 27.9249 68.2601 27.9249C49.5751 27.9249 30.8902 27.9249 12.2052 27.9249C10.91 27.9249 10.9081 27.9287 10.9062 29.253C10.9062 37.6186 10.9062 45.9842 10.9004 54.3498C10.9004 54.8514 10.8775 55.3644 10.7705 55.8527C10.5795 56.7153 9.98158 57.1238 9.09901 57.0706C8.24318 57.0193 7.78852 56.4949 7.63569 55.6988C7.57647 55.3929 7.60131 55.0699 7.60131 54.7545C7.60131 46.0108 7.6185 37.2652 7.58412 28.5215C7.57647 26.7279 8.25464 25.4853 9.94528 24.8203H70.5754C72.2679 25.6259 72.9423 27.0053 72.862 28.816C72.8429 29.2568 72.8945 29.7014 72.8525 30.1384C72.7723 30.9668 73.1142 31.2328 73.9452 31.2233C77.2443 31.1853 80.5454 31.2726 83.8407 31.191C87.7359 31.096 91.3216 34.0618 90.7466 39.3305C90.6931 39.8131 90.5269 40.2672 90.1123 40.5579C89.7131 40.8372 89.6309 41.183 89.7436 41.6276C90.4562 44.4376 91.163 47.2477 91.8679 50.0578C91.9654 50.4454 92.1239 50.7513 92.5614 50.8634C95.9389 51.7164 97.9122 53.9375 98.791 57.2131V75.5859V75.5783ZM80.7727 50.586C83.09 50.586 85.4091 50.5765 87.7263 50.5917C88.3185 50.5955 88.628 50.4758 88.4465 49.7823C87.7397 47.0672 87.052 44.3464 86.3872 41.6218C86.2496 41.0614 85.9173 40.9531 85.4206 40.9531C81.5464 40.9588 77.6742 40.9664 73.8 40.9455C73.0989 40.9417 72.8429 41.2001 72.8506 41.8878C72.8735 44.4433 72.8792 46.9969 72.8468 49.5524C72.8372 50.3371 73.1429 50.6069 73.9146 50.5955C76.1994 50.5651 78.4861 50.5841 80.7727 50.5841V50.586ZM28.8098 82.9711C32.47 82.9616 35.2629 80.1858 35.2648 76.5568C35.2667 72.9107 32.4127 70.1026 28.72 70.1197C25.0904 70.1368 22.3089 72.9544 22.3261 76.5967C22.3433 80.2428 25.1267 82.9806 28.8079 82.973L28.8098 82.9711ZM89.0502 76.6822C89.0922 73.0285 86.3337 70.1596 82.7423 70.1216C79.0515 70.0836 76.1784 72.7967 76.123 76.3763C76.0638 80.1003 78.7898 82.9274 82.4806 82.973C86.1656 83.0167 89.0101 80.296 89.0521 76.6841L89.0502 76.6822ZM80.2149 37.6566C82.3067 37.6566 84.3985 37.6623 86.4884 37.6547C87.4952 37.6509 87.6003 37.4894 87.2583 36.547C86.8189 35.3367 85.6403 34.5121 84.24 34.5026C81.1663 34.4836 78.0925 34.4798 75.0188 34.4988C72.6366 34.5121 72.8831 34.1397 72.8468 36.6781C72.8353 37.4115 73.1027 37.6794 73.8459 37.668C75.9682 37.6338 78.0925 37.6566 80.2149 37.6566ZM95.6676 62.0257C95.6676 60.9516 95.1378 60.4146 94.0782 60.4146C93.7286 60.4146 93.379 60.4146 93.0313 60.426C92.8078 60.4336 92.59 60.4678 92.4506 60.6844C91.8985 61.5413 92.5805 63.2474 93.591 63.5324C95.1441 63.9713 95.6657 63.5913 95.6657 62.0257H95.6676Z" fill="white"/>
<path d="M54.8124 40.9932C54.8545 41.5289 54.5392 41.9659 54.1515 42.3516C49.4176 47.0617 44.6896 51.7737 39.9348 56.4628C38.9892 57.3957 38.1295 57.3539 37.1934 56.4305C34.626 53.8959 32.068 51.3519 29.5158 48.8021C28.6313 47.9186 28.553 47.018 29.2522 46.3093C29.9418 45.6082 30.9142 45.6405 31.7796 46.4822C33.8427 48.4905 35.8925 50.5159 37.9098 52.5697C38.4294 53.0979 38.7332 53.1093 39.27 52.5697C43.4001 48.4221 47.5646 44.3067 51.7196 40.1819C52.1017 39.8019 52.4723 39.4162 53.0683 39.3725C54.0445 39.3003 54.8067 39.9748 54.8105 40.997L54.8124 40.9932Z" fill="white"/>
<path d="M53.2625 66.8291C56.8482 66.8291 60.432 66.8253 64.0177 66.8348C64.394 66.8348 64.7895 66.8462 65.1429 66.9545C65.8516 67.173 66.2279 67.6955 66.2413 68.4422C66.2547 69.1927 65.8803 69.6886 65.1868 69.9641C64.8238 70.1066 64.4456 70.1218 64.0635 70.1218C56.831 70.1218 49.5966 70.1218 42.3641 70.1218C42.238 70.1218 42.11 70.1218 41.9839 70.1123C40.8836 70.0211 40.1767 69.3295 40.2207 68.3928C40.2646 67.4751 40.9466 66.8557 42.0317 66.8424C44.0929 66.8177 46.1561 66.8329 48.2173 66.831C49.8984 66.831 51.5795 66.831 53.2606 66.831L53.2625 66.8291Z" fill="white"/>
<path d="M15.7788 60.4513C18.9213 60.4513 22.0619 60.4571 25.2044 60.4476C26.0392 60.4457 26.7078 60.6907 27.0345 61.5134C27.3593 62.3342 26.9008 63.269 26.0297 63.5711C25.5731 63.7288 25.0955 63.7288 24.6179 63.7288C18.715 63.7288 12.8121 63.7288 6.90916 63.725C6.56148 63.725 6.20807 63.7174 5.86612 63.6604C4.8995 63.4989 4.33213 62.8586 4.3646 62.0074C4.39899 61.1068 5.04659 60.4817 6.06671 60.4627C7.78028 60.4323 9.49384 60.4514 11.2074 60.4495C12.7299 60.4495 14.2544 60.4495 15.7769 60.4495L15.7788 60.4513Z" fill="white"/>
<path d="M28.7868 79.8518C27.0522 79.867 25.5545 78.4211 25.5201 76.6998C25.4857 74.8986 27.0216 73.3387 28.8116 73.3596C30.5061 73.3786 32.0343 74.8967 32.0534 76.582C32.0744 78.3204 30.5576 79.8385 28.7849 79.8537L28.7868 79.8518Z" fill="white"/>
<path d="M82.5796 79.8519C80.8068 79.8424 79.3015 78.33 79.3225 76.5744C79.3416 74.8739 80.8469 73.3824 82.5662 73.3596C84.3104 73.3368 85.8692 74.8682 85.8692 76.6067C85.8692 78.3661 84.3543 79.8614 82.5815 79.8519H82.5796Z" fill="white"/>
</g>
<defs>
<clipPath id="clip0_580_1822">
<rect width="98" height="61.6505" fill="white" transform="translate(0.765625 19.4141)"/>
</clipPath>
</defs>
</svg>
