<svg width="216" height="207" viewBox="0 0 216 207" fill="none" xmlns="http://www.w3.org/2000/svg">
<g clip-path="url(#clip0_5534_1666)">
<rect width="216" height="206.929" fill="#151517"/>
<g clip-path="url(#clip1_5534_1666)">
<path d="M123.172 122.158V102.258H124.889C126.943 102.258 128.997 102.258 131.05 102.258C132.022 102.218 132.983 102.469 133.81 102.979C134.638 103.489 135.295 104.235 135.696 105.12C135.974 105.676 136.135 106.282 136.168 106.903C136.2 107.523 136.105 108.143 135.887 108.725C135.669 109.307 135.333 109.837 134.9 110.283C134.468 110.729 133.948 111.08 133.373 111.316C133.227 111.356 133.089 111.424 132.969 111.518V111.518C134.021 111.714 134.976 112.26 135.678 113.066C136.381 113.873 136.791 114.894 136.841 115.962C136.976 117.097 136.714 118.243 136.101 119.207C135.487 120.17 134.559 120.892 133.474 121.249C132.268 121.655 131.009 121.882 129.737 121.922C127.515 121.922 125.293 121.922 123.004 121.922L123.172 122.158ZM125.731 119.464C127.482 119.464 129.098 119.464 130.848 119.464C131.682 119.447 132.475 119.101 133.054 118.502C133.634 117.903 133.955 117.099 133.946 116.266C133.95 115.428 133.642 114.619 133.081 113.996C132.521 113.373 131.749 112.982 130.916 112.898C129.985 112.831 129.051 112.831 128.121 112.898H125.731V119.464ZM125.731 110.272H127.919C128.865 110.284 129.81 110.228 130.747 110.103C131.414 110 132.021 109.661 132.46 109.149C132.899 108.636 133.14 107.984 133.14 107.309C133.14 106.634 132.899 105.981 132.46 105.469C132.021 104.957 131.414 104.618 130.747 104.514C129.963 104.464 129.175 104.464 128.391 104.514H125.798L125.731 110.272Z" fill="white"/>
<path d="M140.246 102.255H141.896C144.017 102.255 146.138 102.255 148.259 102.255C149.404 102.23 150.525 102.583 151.45 103.258C152.374 103.934 153.051 104.895 153.376 105.993C153.621 106.713 153.708 107.478 153.632 108.235C153.556 108.992 153.319 109.724 152.936 110.381C152.553 111.039 152.033 111.606 151.412 112.046C150.791 112.485 150.083 112.787 149.336 112.929H148.764L154.386 121.953H151.188C151.02 121.953 150.817 121.684 150.716 121.482C149.201 118.889 147.72 116.296 146.239 113.704C146.172 113.532 146.049 113.389 145.89 113.297C145.731 113.205 145.545 113.171 145.364 113.198C144.589 113.198 143.815 113.198 142.973 113.198V121.92H140.246V102.255ZM142.973 111.077C144.791 111.077 146.542 111.077 148.225 110.841C148.943 110.79 149.611 110.456 150.084 109.914C150.557 109.371 150.796 108.664 150.75 107.946C150.797 107.583 150.772 107.214 150.675 106.861C150.578 106.508 150.412 106.178 150.186 105.889C149.961 105.601 149.68 105.361 149.361 105.182C149.042 105.003 148.69 104.889 148.326 104.848C147.04 104.702 145.748 104.624 144.454 104.612H142.973V111.077Z" fill="white"/>
<path d="M101.793 122.16L103.509 118.321C105.765 113.135 108.088 107.984 110.243 102.765C110.29 102.595 110.4 102.449 110.549 102.356C110.698 102.262 110.878 102.228 111.051 102.26C111.691 102.26 112.431 102.26 112.903 102.26C113.374 102.26 113.441 103.27 113.677 103.842L121.151 121.217C121.151 121.452 121.319 121.688 121.454 122.025H118.559C118.559 122.025 118.222 121.756 118.121 121.553C117.582 120.274 117.044 118.961 116.539 117.614C116.486 117.454 116.381 117.317 116.24 117.226C116.099 117.134 115.932 117.093 115.764 117.109H107.381C107.216 117.079 107.046 117.115 106.908 117.21C106.769 117.304 106.673 117.449 106.641 117.614C106.136 118.927 105.597 120.207 105.092 121.52C105.045 121.692 104.937 121.841 104.788 121.94C104.64 122.039 104.461 122.081 104.284 122.059H101.691L101.793 122.16ZM115.327 114.752L111.59 105.627C110.31 108.758 109.065 111.721 107.819 114.752H115.327Z" fill="white"/>
<path d="M180.41 104.884L178.188 106.567C177.331 105.52 176.144 104.796 174.821 104.513C173.172 104.131 171.44 104.357 169.944 105.148C168.447 105.94 167.286 107.245 166.674 108.823C166.03 110.262 165.797 111.85 165.999 113.412C166.201 114.975 166.83 116.451 167.818 117.679C168.473 118.44 169.284 119.052 170.196 119.47C171.108 119.889 172.1 120.106 173.104 120.106C174.108 120.106 175.1 119.889 176.012 119.47C176.925 119.052 177.736 118.44 178.39 117.679C178.46 117.592 178.539 117.513 178.625 117.443L180.848 119.127C179.604 120.631 177.94 121.729 176.069 122.281C174.197 122.833 172.204 122.813 170.343 122.225C168.305 121.588 166.512 120.338 165.21 118.645C163.909 116.951 163.162 114.897 163.071 112.763C162.876 110.571 163.401 108.375 164.568 106.509C165.735 104.643 167.479 103.209 169.535 102.426C171.38 101.645 173.422 101.459 175.377 101.893C177.332 102.328 179.103 103.361 180.444 104.85" fill="white"/>
<path d="M92.5737 113.575V122.127H89.9141V102.328H102.371V104.786H92.6074V111.015H101.125C101.63 111.015 101.799 111.015 101.765 111.622C101.731 112.228 101.765 112.867 101.765 113.575H92.5737Z" fill="white"/>
<path d="M160.105 122.161H159.364H157.445V102.328H160.105V122.161Z" fill="white"/>
<path d="M35.2656 110.573L36.1745 108.755C36.5111 108.115 36.8479 107.981 37.4875 108.284L42.6386 110.742C43.2782 111.045 43.3791 111.415 43.1098 112.055C42.8404 112.695 42.5711 113.233 42.2681 113.806C42.2261 113.917 42.1601 114.018 42.0747 114.101C41.9893 114.184 41.8867 114.247 41.7741 114.285C41.6615 114.324 41.5418 114.337 41.4236 114.324C41.3053 114.311 41.1913 114.272 41.0899 114.21L35.8379 111.684C35.6188 111.565 35.4245 111.405 35.2656 111.213V110.573Z" fill="white"/>
<path d="M64.2173 125.117L62.3319 124.141C61.7259 123.838 61.5912 123.501 61.8942 122.895L64.3184 117.811C64.3589 117.682 64.4285 117.564 64.5221 117.466C64.6157 117.369 64.7307 117.294 64.8579 117.249C64.985 117.203 65.1211 117.188 65.2553 117.203C65.3895 117.219 65.5181 117.265 65.6313 117.339L67.3484 118.147C67.4647 118.194 67.5698 118.264 67.6565 118.354C67.7431 118.445 67.8094 118.553 67.8509 118.671C67.8923 118.789 67.9081 118.914 67.8969 119.039C67.8857 119.164 67.8479 119.284 67.7861 119.393C66.9781 121.11 66.1364 122.76 65.2947 124.579C65.1784 124.771 65.0431 124.952 64.8907 125.117H64.2173Z" fill="white"/>
<path d="M61.02 119.836C60.5486 120.745 60.1447 121.62 59.6397 122.429C59.1347 123.237 58.899 122.631 58.5286 122.429L51.7952 119.061L50.0446 118.22C49.9283 118.179 49.8227 118.112 49.7362 118.024C49.6497 117.936 49.5843 117.83 49.5453 117.713C49.5063 117.596 49.4947 117.471 49.5112 117.349C49.5277 117.227 49.5718 117.11 49.6404 117.007C49.8761 116.469 50.1119 115.93 50.3812 115.425C50.6506 114.92 51.122 114.516 51.93 114.886L59.1346 118.253C59.5741 118.439 60.0014 118.653 60.414 118.893C60.6793 119.099 60.9071 119.35 61.0874 119.634" fill="white"/>
<path d="M58.7637 92.7944L58.4609 93.6025L54.488 101.919C54.1176 102.694 53.781 102.795 53.0403 102.424L51.458 101.684C50.8184 101.347 50.6837 100.977 50.9867 100.337L55.0942 91.7843C55.3972 91.1109 55.7336 91.0098 56.3733 91.3129L58.0904 92.1546C58.3597 92.1546 58.5281 92.5924 58.7637 92.7944" fill="white"/>
<path d="M58.2925 115.793C57.3498 115.288 56.4745 114.884 55.6665 114.379C55.4982 114.379 55.4645 113.739 55.6665 113.503C57.0469 110.54 58.4609 107.611 59.8413 104.681C59.8792 104.571 59.9416 104.47 60.0238 104.387C60.106 104.304 60.2059 104.241 60.316 104.202C60.4261 104.163 60.5435 104.15 60.6596 104.163C60.7756 104.176 60.8873 104.215 60.9861 104.277L62.8715 105.186C62.9878 105.227 63.0932 105.294 63.1797 105.382C63.2662 105.47 63.3316 105.576 63.3706 105.693C63.4096 105.81 63.4212 105.935 63.4047 106.057C63.3882 106.179 63.3441 106.296 63.2755 106.398L59.2016 115.052C59.2016 115.321 58.764 115.49 58.461 115.793" fill="white"/>
<path d="M40.6528 107.405C39.7101 106.866 38.8349 106.462 38.0269 105.957C37.9502 105.812 37.9102 105.65 37.9102 105.486C37.9102 105.321 37.9502 105.16 38.0269 105.014C39.3736 102.118 40.7538 99.2226 42.1679 96.3268C42.2025 96.2058 42.2662 96.0952 42.3532 96.0043C42.4402 95.9135 42.548 95.8452 42.6674 95.8054C42.7868 95.7656 42.9139 95.7555 43.0381 95.7759C43.1622 95.7964 43.2795 95.8468 43.3798 95.9228L45.1306 96.731C45.2606 96.7641 45.3803 96.8291 45.4789 96.9201C45.5775 97.0112 45.6518 97.1254 45.6952 97.2523C45.7387 97.3793 45.7497 97.5151 45.7275 97.6475C45.7053 97.7798 45.6507 97.9045 45.5683 98.0104C44.2216 100.906 42.8411 103.768 41.4271 106.63C41.2207 106.914 40.9837 107.174 40.7202 107.405" fill="white"/>
<path d="M71.3222 111.182C70.3795 110.677 69.5043 110.273 68.73 109.801C68.6533 109.656 68.6133 109.494 68.6133 109.33C68.6133 109.166 68.6533 109.004 68.73 108.858C70.0767 105.929 71.4906 103 72.871 100.104C72.9075 99.9882 72.9707 99.8828 73.0553 99.796C73.1399 99.7093 73.2436 99.6437 73.3582 99.6044C73.4728 99.5651 73.5951 99.5532 73.7151 99.5698C73.8352 99.5863 73.9495 99.6308 74.0493 99.6996L75.8 100.508C76.4397 100.845 76.5744 101.215 76.2714 101.855L72.063 110.576C71.8532 110.867 71.6038 111.128 71.3222 111.35" fill="white"/>
<path d="M67.6562 105.084L66.9828 104.815L58.6671 100.875C57.7917 100.471 57.6906 100.134 58.0946 99.2925L58.7343 97.9457C59.1383 97.1375 59.475 97.0365 60.2831 97.4069L67.6899 100.943L68.8008 101.481C68.9112 101.519 69.0117 101.582 69.0946 101.664C69.1775 101.746 69.2407 101.846 69.2796 101.956C69.3184 102.066 69.332 102.184 69.319 102.3C69.3061 102.416 69.2669 102.527 69.2048 102.626C68.936 103.282 68.6327 103.922 68.2959 104.545C68.2959 104.781 67.8582 104.916 67.6562 105.084" fill="white"/>
<path d="M56.4103 106.797C55.9389 107.74 55.535 108.615 55.03 109.423C54.525 110.232 54.3567 109.626 53.9863 109.423L46.7477 106.056L45.502 105.484C44.8287 105.147 44.6941 104.777 44.9972 104.103L45.704 102.655C46.1417 101.78 46.4112 101.679 47.2865 102.083L54.02 105.45C54.626 105.753 55.2319 105.989 55.7706 106.326C56.3093 106.662 56.2083 106.763 56.444 107.033" fill="white"/>
<path d="M53.1445 87.0046C53.5599 86.1002 54.0322 85.2229 54.5585 84.3782C54.8278 83.9405 55.3327 84.2099 55.7367 84.3782L61.7969 87.3076L64.0188 88.3514C64.7258 88.7218 64.8605 89.0249 64.5238 89.7657L63.7494 91.3819C63.4127 92.0216 63.1097 92.1564 62.5037 91.8533L53.9525 87.7791C53.6585 87.5479 53.3879 87.2885 53.1445 87.0046" fill="white"/>
<path d="M64.119 110.137L64.8595 110.406L69.7412 112.729C70.5155 113.1 70.6501 113.437 70.2798 114.211C69.9094 114.985 69.8085 115.221 69.5392 115.726C69.2699 116.231 68.8995 116.534 68.2599 116.231C66.4755 115.423 64.8932 114.581 63.0079 113.74C62.8937 113.701 62.7893 113.638 62.7028 113.554C62.6162 113.47 62.5495 113.368 62.5076 113.255C62.4656 113.142 62.4495 113.021 62.4603 112.901C62.4711 112.781 62.5087 112.665 62.5702 112.561C62.8732 111.921 63.1426 111.315 63.4793 110.709C63.6592 110.484 63.8754 110.291 64.119 110.137" fill="white"/>
<path d="M79.035 95.9588C78.53 96.9016 78.1259 97.7771 77.6209 98.5852C77.4888 98.6457 77.3453 98.6771 77.2 98.6771C77.0548 98.6771 76.9112 98.6457 76.7792 98.5852C74.9612 97.7771 73.1769 96.9016 71.3589 96.0261C71.2513 95.9846 71.1543 95.9197 71.0751 95.8359C70.9959 95.7521 70.9363 95.6517 70.9008 95.542C70.8654 95.4323 70.8549 95.316 70.87 95.2017C70.8852 95.0874 70.9257 94.9779 70.9886 94.8813C71.2916 94.2752 71.561 93.6691 71.864 93.0967C71.8971 92.9746 71.9583 92.862 72.0429 92.7679C72.1275 92.6738 72.233 92.6008 72.351 92.5549C72.4689 92.5091 72.5959 92.4916 72.7219 92.5038C72.8478 92.516 72.969 92.5577 73.0759 92.6253C74.8266 93.4671 76.4426 94.2753 78.3279 95.1507C78.6044 95.3552 78.8436 95.6058 79.035 95.8915" fill="white"/>
<path d="M51.8334 93.7351C51.3284 94.6779 50.8908 95.5534 50.3858 96.3615C50.3858 96.5299 49.7798 96.5299 49.5778 96.3615C47.7598 95.5534 45.9754 94.6779 44.1911 93.8361C44.0797 93.7942 43.9791 93.7282 43.8962 93.6428C43.8133 93.5573 43.7503 93.4546 43.7117 93.342C43.6731 93.2294 43.6598 93.1097 43.6728 92.9914C43.6859 92.8731 43.7249 92.7591 43.7871 92.6576C44.0564 92.0066 44.3595 91.3669 44.6961 90.7383C44.7381 90.6395 44.8011 90.5511 44.8807 90.479C44.9602 90.4069 45.0546 90.3529 45.157 90.3208C45.2595 90.2888 45.3676 90.2794 45.4741 90.2934C45.5806 90.3073 45.6827 90.3443 45.7735 90.4017C47.5578 91.2435 49.3422 92.0516 51.0929 92.9271C51.3622 92.9271 51.5304 93.3985 51.8334 93.6678" fill="white"/>
<path d="M47.3153 108.725L47.8541 108.893L49.7058 109.768C49.82 109.807 49.9244 109.87 50.0109 109.954C50.0975 110.038 50.1642 110.14 50.2061 110.253C50.2481 110.366 50.2642 110.487 50.2534 110.607C50.2426 110.727 50.205 110.843 50.1435 110.947C49.3354 112.731 48.4601 114.482 47.6184 116.233C47.5835 116.338 47.5256 116.433 47.4491 116.513C47.3726 116.592 47.2792 116.653 47.176 116.692C47.0728 116.731 46.9622 116.746 46.8524 116.737C46.7425 116.727 46.6361 116.693 46.541 116.637L44.5548 115.695C44.4556 115.648 44.3668 115.582 44.294 115.5C44.2212 115.418 44.1659 115.322 44.1313 115.218C44.0967 115.115 44.0835 115.005 44.0927 114.896C44.1018 114.786 44.1329 114.68 44.1843 114.583L46.7093 109.297C46.8773 109.073 47.0822 108.88 47.3153 108.725" fill="white"/>
<path d="M49.1052 89.7652C48.1625 89.2601 47.2871 88.856 46.479 88.3173C46.3107 88.3173 46.277 87.6775 46.479 87.4418C47.2871 85.6909 48.1289 84.0746 48.9706 82.189C49.0086 82.0786 49.0709 81.9781 49.1531 81.8952C49.2353 81.8123 49.3352 81.749 49.4453 81.7101C49.5554 81.6713 49.6729 81.6578 49.7889 81.6708C49.905 81.6837 50.0164 81.7228 50.1153 81.785L51.967 82.6604C52.0871 82.7017 52.1964 82.7697 52.2865 82.8592C52.3766 82.9487 52.4454 83.0575 52.4875 83.1773C52.5296 83.2972 52.5439 83.425 52.5296 83.5513C52.5153 83.6775 52.4726 83.7988 52.4047 83.9062C51.5966 85.6235 50.7886 87.2734 49.9133 89.0244C49.714 89.3037 49.4761 89.5532 49.2063 89.7652" fill="white"/>
<path d="M66.6778 98.1797C65.7352 97.6746 64.86 97.2369 64.052 96.6981C63.9921 96.5719 63.9609 96.4339 63.9609 96.2941C63.9609 96.1543 63.9921 96.0163 64.052 95.89C64.86 94.1054 65.7353 92.3544 66.5769 90.5698C66.623 90.4661 66.6905 90.3732 66.7748 90.2973C66.8592 90.2214 66.9586 90.164 67.0666 90.1291C67.1746 90.0941 67.2887 90.0823 67.4016 90.0945C67.5144 90.1066 67.6236 90.1424 67.7217 90.1995L69.607 91.0749C69.7165 91.124 69.8141 91.1961 69.8935 91.2862C69.9728 91.3762 70.0322 91.4821 70.0673 91.5969C70.1024 91.7117 70.1124 91.8327 70.0969 91.9517C70.0814 92.0708 70.0406 92.1852 69.9773 92.2871C69.1693 94.0044 68.3613 95.6542 67.486 97.4725C67.486 97.7419 67.0482 97.9103 66.7452 98.1797" fill="white"/>
<path d="M89.9141 86.0938H91.8666V89.4272H95.7382V86.0938H97.6909V95.0504H95.7382V91.1782H91.9003V95.0504H89.9141V86.0938Z" fill="white"/>
<path d="M101.593 91.2455L98.2266 86.0938H100.684L102.603 89.4609L104.59 86.0938H106.947L103.58 91.2455V95.0504H101.593V91.2455Z" fill="white"/>
<path d="M107.484 86.0926H110.851C111.287 86.0394 111.728 86.0394 112.164 86.0926C112.55 86.1614 112.917 86.3104 113.241 86.5303C113.563 86.7354 113.82 87.0272 113.982 87.3721C114.189 87.7775 114.282 88.2313 114.251 88.6853C114.274 89.1353 114.193 89.5844 114.016 89.9985C113.866 90.3411 113.62 90.6332 113.309 90.8403C112.999 91.0705 112.643 91.2312 112.265 91.3117C111.828 91.3482 111.389 91.3482 110.952 91.3117H109.504V94.6788H107.518L107.484 86.0926ZM109.471 89.8974H110.784C110.951 89.9301 111.122 89.9301 111.289 89.8974C111.431 89.9437 111.584 89.9437 111.726 89.8974C111.862 89.8253 111.977 89.7213 112.063 89.5944C112.099 89.4166 112.099 89.2335 112.063 89.0556C112.122 88.8809 112.122 88.6917 112.063 88.517C111.946 88.3854 111.81 88.2719 111.659 88.1803C111.47 88.1455 111.276 88.1455 111.087 88.1803H109.504L109.471 89.8974Z" fill="white"/>
<path d="M115.43 86.0938H121.524V87.912H117.382V89.5956H121.288V91.4138H117.382V93.2321H121.759V95.0504H115.43V86.0938Z" fill="white"/>
<path d="M123.176 86.0945H126.542C126.979 86.0596 127.419 86.0596 127.856 86.0945C128.235 86.1844 128.598 86.3319 128.933 86.5322C129.237 86.7469 129.481 87.037 129.64 87.374C129.858 87.7762 129.963 88.2301 129.943 88.6872C129.963 89.2677 129.785 89.8377 129.438 90.3035C129.077 90.7544 128.561 91.0545 127.99 91.1453L130.279 94.9166H127.889L126.037 91.3473H125.061V94.9166H123.176V86.0945ZM125.162 89.7984H126.879H127.418C127.581 89.7619 127.725 89.6659 127.822 89.529C127.936 89.3605 127.995 89.1603 127.99 88.9566C127.998 88.763 127.938 88.5728 127.822 88.4179C127.746 88.2744 127.629 88.157 127.485 88.0812H126.98H125.162V89.7984Z" fill="white"/>
<path d="M131.359 86.0938H133.346V93.2321H137.015V95.0504H131.393L131.359 86.0938Z" fill="white"/>
<path d="M138.055 86.0938H144.148V87.912H140.007L140.041 89.5956H143.913V91.4138H140.041V93.2321H144.384V95.0504H138.055V86.0938Z" fill="white"/>
<path d="M145.834 86.0938H148.796C149.487 86.1019 150.175 86.1808 150.85 86.3294C151.453 86.4836 152.024 86.7461 152.533 87.1039C153.02 87.4795 153.412 87.9638 153.678 88.5181C153.991 89.1682 154.142 89.8846 154.116 90.6057C154.133 91.2683 153.995 91.9256 153.712 92.5251C153.448 93.0618 153.069 93.5332 152.601 93.9055C152.117 94.2883 151.57 94.5845 150.985 94.781C150.364 94.9737 149.716 95.0648 149.066 95.0504H145.699L145.834 86.0938ZM147.82 93.2321H148.83C149.255 93.2871 149.685 93.2871 150.11 93.2321C150.479 93.158 150.825 92.9963 151.119 92.7607C151.431 92.5536 151.676 92.2614 151.827 91.9189C151.988 91.5118 152.068 91.0771 152.062 90.6393C152.06 90.246 151.979 89.857 151.827 89.4945C151.668 89.1765 151.437 88.8999 151.153 88.6864C150.855 88.4776 150.526 88.3183 150.177 88.215C149.782 88.1072 149.374 88.0506 148.965 88.0467H147.82V93.2321Z" fill="white"/>
<path d="M163.578 94.3782C162.991 94.6711 162.368 94.8862 161.726 95.018C161.095 95.1535 160.452 95.2212 159.807 95.22C159.144 95.2259 158.484 95.1236 157.854 94.917C157.293 94.7043 156.778 94.3841 156.339 93.9742C155.898 93.56 155.554 93.0543 155.329 92.4926C155.068 91.8754 154.942 91.2095 154.959 90.5396C154.941 89.8728 155.055 89.209 155.295 88.5867C155.536 88.0335 155.879 87.5308 156.306 87.1051C156.739 86.6717 157.27 86.3484 157.854 86.1623C158.466 85.9282 159.118 85.8139 159.773 85.8256C160.443 85.8127 161.112 85.892 161.76 86.0613C162.364 86.229 162.919 86.5409 163.376 86.9704L161.962 88.4857C161.705 88.2137 161.395 87.9961 161.053 87.8459C160.267 87.5765 159.414 87.5765 158.629 87.8459C158.304 87.9965 158.008 88.2014 157.753 88.452C157.511 88.713 157.327 89.0231 157.214 89.3612C157.077 89.7388 157.009 90.1379 157.013 90.5396C157.008 90.9305 157.076 91.3189 157.214 91.6845C157.341 92.0162 157.523 92.3237 157.753 92.5936C158.005 92.8631 158.316 93.0706 158.662 93.1997C159.027 93.3403 159.416 93.4089 159.807 93.4017C160.175 93.4597 160.55 93.4597 160.918 93.4017L161.659 93.0987V91.6508H160.043V89.8325H163.409L163.578 94.3782Z" fill="white"/>
<path d="M165.16 86.0938H171.22L171.254 87.912H167.113V89.5956H171.018V91.4138H167.113V93.2321H171.49V95.0504H165.16V86.0938Z" fill="white"/>
<path d="M172.933 86.0945H176.3C176.726 86.0596 177.153 86.0596 177.579 86.0945C177.962 86.1718 178.328 86.3202 178.657 86.5321C178.979 86.7358 179.236 87.028 179.397 87.3739C179.606 87.8416 179.696 88.3531 179.661 88.8638C179.626 89.3746 179.466 89.8689 179.195 90.3035C178.834 90.7543 178.318 91.0545 177.748 91.1453L180.037 94.9166H177.647L175.761 91.3473H174.819V94.9166H172.832L172.933 86.0945ZM174.886 89.7983H176.637H177.175C177.339 89.7619 177.483 89.6659 177.579 89.529C177.636 89.3425 177.636 89.1431 177.579 88.9565C177.638 88.7818 177.638 88.5926 177.579 88.4179C177.493 88.2819 177.378 88.1669 177.243 88.0811H176.737H174.886V89.7983Z" fill="white"/>
</g>
</g>
<defs>
<clipPath id="clip0_5534_1666">
<rect width="216" height="206.929" fill="white"/>
</clipPath>
<clipPath id="clip1_5534_1666">
<rect width="146" height="44.3725" fill="white" transform="translate(35 81)"/>
</clipPath>
</defs>
</svg>
