<?xml version="1.0" encoding="utf-8"?>
<!-- Generator: Adobe Illustrator 27.7.0, SVG Export Plug-In . SVG Version: 6.00 Build 0)  -->
<svg version="1.1" id="Layer_1" xmlns="http://www.w3.org/2000/svg" xmlns:xlink="http://www.w3.org/1999/xlink" x="0px" y="0px"
	 viewBox="0 0 50 45" style="enable-background:new 0 0 50 45;" xml:space="preserve">
<style type="text/css">
	.st0{fill:#FFFFFF;}
</style>
<g>
	<path class="st0" d="M36.5,42.5c-10.1,0-20.1,0-30.2,0c-0.7-0.2-1.1-0.7-1.3-1.3c0-0.1,0-0.2,0-0.2c0-0.1,0-0.3,0-0.4
		c0-0.1,0-0.2,0-0.2c0.2-0.4,0.4-0.9,0.9-1.1c0.2-0.1,0.3-0.3,0.3-0.5c0-4.3,0-8.6,0-12.9c0-0.1,0-0.2,0-0.4
		c-0.6,0.1-0.9-0.2-1.2-0.7c0-1.1,0-2.3,0-3.4c0.3-0.5,0.7-0.8,1.3-0.8c2.1,0,4.1,0,6.2,0c0.1,0,0.3,0,0.4,0c0-0.4,0-0.7,0-1.1
		c-0.8,0-1.7,0-2.5,0c-0.4,0-0.7-0.1-1-0.5c-0.3-0.3-0.3-0.6-0.3-1c0-3.1,0-6.2,0-9.3c0-0.1,0-0.2,0-0.3c0-0.3,0.1-0.5,0.4-0.5
		c0.5,0,0.7,0.1,0.7,0.5c0,0.1,0,0.3,0,0.4c0,3,0,6,0,9c0,0.1,0,0.3,0,0.4c9.8,0,19.6,0,29.4,0c0-4.8,0-9.7,0-14.5
		c-9.8,0-19.6,0-29.4,0c0,0.3,0,0.6,0,0.8c0,0.4,0,0.8,0,1.2c0,0.3-0.2,0.5-0.5,0.5c-0.3,0-0.5-0.1-0.6-0.4c0-0.8-0.1-1.6,0-2.5
		c0-0.5,0.5-0.7,0.9-0.9c10,0,20,0,30,0c0.5,0.3,0.9,0.7,0.9,1.3c0,4.7,0,9.4,0,14.2c0,0.8-0.5,1.4-1.4,1.4c-0.8,0-1.6,0-2.5,0
		c0,0.4,0,0.7,0,1.1c0.2,0,0.3,0,0.4,0c2,0,4,0,5.9,0c0.7,0,1.3,0.1,1.6,0.8c0,1.1,0,2.2,0,3.4c-0.3,0.4-0.6,0.8-1.2,0.7
		c0,2.8,0,5.5,0,8.3c0,1.7,0,3.4,0,5c0,0.1,0,0.3,0.1,0.4c0.6,0.3,0.9,0.8,1.1,1.3c0,0,0,0.1,0,0.1c0,0.1,0,0.3,0,0.4
		c0,0.1,0,0.2,0,0.2c0,0-0.1,0-0.1,0.1c-0.2,0.7-0.7,1-1.3,1.3c-1.6,0-3.2,0-4.8,0c-0.4-0.3-0.5-0.6-0.3-0.9
		c0.1-0.1,0.4-0.2,0.6-0.2c1.3,0,2.7,0,4,0c0.3,0,0.6,0,0.6-0.4c0.1-0.4,0.1-0.8-0.8-0.8c-12,0-24,0-36,0c-0.1,0-0.2,0-0.3,0
		c-0.3,0.1-0.5,0.2-0.5,0.6c0,0.4,0.2,0.6,0.7,0.6c9.7,0,19.3,0,29,0c0.1,0,0.2,0,0.3,0c0.5,0,0.7,0.3,0.6,0.8
		C36.7,42.2,36.6,42.4,36.5,42.5z M9.8,29.9c0,0.1,0,0.2,0,0.3c0,2.9,0,5.7,0,8.6c0,0.1,0,0.1,0,0.2c3,0,6,0,9,0c0-1.2,0-2.3,0-3.5
		c0-1.9,0-3.7,0-5.6c0,0,0,0-0.1-0.1C15.7,29.9,12.8,29.9,9.8,29.9C9.8,29.9,9.8,29.9,9.8,29.9z M40.2,29.9
		C40.2,29.9,40.2,29.9,40.2,29.9c-3-0.1-6-0.1-8.9-0.1c0,0,0,0-0.1,0.1c0,0.1,0,0.2,0,0.2c0,2.9,0,5.7,0,8.6c0,0.1,0,0.1,0,0.2
		c3,0,6,0,9,0c0-3,0-6,0-8.9C40.3,30,40.3,30,40.2,29.9z M30,39C30,38.9,30,38.9,30,39c0.1-3.1,0.1-6.1,0.1-9.1c-3.4,0-6.8,0-10.1,0
		c0,0,0,0.1,0,0.1c0,3,0,6,0,8.9c0,0,0,0,0.1,0.1c0.4,0,0.8,0,1.2,0C24.1,39,27.1,39,30,39z M8.6,39c0-0.2,0-0.3,0-0.5c0-3,0-6,0-9
		c0-0.7,0.1-0.9,0.8-0.9c10.4,0,20.8,0,31.2,0c0.7,0,0.9,0.2,0.9,0.9c0,3,0,6,0,8.9c0,0.2,0,0.3,0,0.5c0.4,0,0.8,0,1.2,0
		c0-4.5,0-9,0-13.6c-11.7,0-23.5,0-35.2,0c0,4.5,0,9,0,13.6C7.8,39,8.1,39,8.6,39z M43.8,21.7c-12.6,0-25.1,0-37.6,0
		c0,0.9,0,1.7,0,2.5c12.6,0,25.1,0,37.6,0C43.8,23.4,43.8,22.5,43.8,21.7z M16.4,20.5c5.7,0,11.4,0,17.1,0c0-0.4,0-0.7,0-1.1
		c-5.7,0-11.4,0-17.1,0C16.4,19.8,16.4,20.1,16.4,20.5z M14.1,20.5c0.4,0,0.8,0,1.1,0c0-0.3,0-0.7,0-1c-0.4,0-0.8,0-1.1,0
		C14.1,19.8,14.1,20.1,14.1,20.5z M34.7,19.5c0,0.4,0,0.7,0,1c0.4,0,0.8,0,1.1,0c0-0.3,0-0.7,0-1C35.4,19.5,35.1,19.5,34.7,19.5z"/>
	<path class="st0" d="M5,40.5c0,0.1,0,0.3,0,0.4C5,40.8,5,40.7,5,40.5z"/>
	<path class="st0" d="M45,40.9c0-0.1,0-0.3,0-0.4C45,40.7,45,40.8,45,40.9z"/>
	<path class="st0" d="M29.3,12.6c0,1.1,0,2.2,0,3.4c0,0.7-0.4,1.1-1.1,1.1c-2.2,0-4.5,0-6.7,0c-0.7,0-0.9-0.2-0.9-0.9
		c0-1.1,0-2.2,0-3.3c0-0.1,0-0.3,0-0.4c0,0,0,0.1-0.1,0.1c-0.8-0.3-1.5-0.6-2.3-0.9c-0.4-0.2-0.6-0.5-0.4-1c0.4-1.4,0.9-2.7,1.5-4
		c0.3-0.5,0.6-0.8,1.2-1c0.6-0.2,1.2-0.5,1.8-0.7c0.4-0.2,1-0.1,1.3,0.3c0.7,0.9,1.7,1,2.5,0C26.5,5,26.9,4.8,27.4,5
		c0.9,0.3,1.7,0.7,2.6,1c0.1,0,0.2,0.1,0.3,0.2c0.9,1.4,1.4,2.9,1.9,4.5c0.1,0.5,0,0.8-0.5,1C30.9,12,30.1,12.3,29.3,12.6z
		 M29.7,11.2c0.3-0.1,0.7-0.3,1-0.4c0.1,0,0.2-0.2,0.1-0.3c-0.4-1-0.8-2-1.2-3c-0.1-0.2-0.3-0.5-0.5-0.6c-0.4-0.2-0.9-0.4-1.4-0.5
		C27.4,6.2,27,6,26.7,6.5c0,0.1-0.1,0.1-0.2,0.1c-1.4,1-2.8,0.5-3.7-0.6c-0.6,0.3-1.3,0.5-1.9,0.8c-0.2,0.1-0.4,0.2-0.4,0.4
		c-0.5,1.1-1,2.3-1.5,3.5c0.3,0.1,0.6,0.2,0.8,0.3c0.3,0.2,0.5,0.1,0.7-0.2c0.1-0.2,0.3-0.5,0.6-0.6c0.4-0.1,0.8,0.2,0.8,0.8
		c0,1.6,0,3.2,0,4.8c2.1,0,4.2,0,6.3,0c0-1.6,0-3.3,0-4.9c0-0.3,0.1-0.6,0.4-0.7c0.4-0.1,0.6,0.1,0.8,0.3
		C29.5,10.8,29.6,11,29.7,11.2z"/>
</g>
</svg>
