<svg width="100" height="100" viewBox="0 0 100 100" fill="none" xmlns="http://www.w3.org/2000/svg">
<g clip-path="url(#clip0_500_2196)">
<path d="M95.9998 14.1164V76.7223C95.4508 77.3956 94.7393 77.583 93.8862 77.5734C91.088 77.5371 88.2897 77.5601 85.4896 77.5601C75.6947 77.5601 65.898 77.5601 56.1031 77.5601C54.8828 77.5601 54.8522 77.5926 54.8484 78.7765C54.8446 79.9528 54.8446 81.1291 54.8484 82.3073C54.8522 83.541 54.9766 83.6424 56.1988 83.7208C60.9097 84.0192 65.546 84.7537 70.0428 86.2245C72.7454 87.1082 75.3562 88.1984 77.4372 90.2411C78.3897 91.1764 79.0955 92.2628 79.2523 93.6208C79.4474 95.304 78.6058 96.1226 76.9475 95.8185C73.6979 95.2237 70.4368 94.7015 67.1642 94.2348C61.5256 93.4315 55.8602 92.8672 50.17 92.8653C44.4778 92.8653 38.8144 93.4468 33.1777 94.2444C29.9376 94.7015 26.7071 95.2141 23.49 95.8128C21.782 96.1303 20.9117 95.3021 21.1412 93.5769C21.3688 91.8612 22.4055 90.6218 23.6889 89.5698C25.3338 88.2213 27.2312 87.33 29.2166 86.6185C34.0729 84.8837 39.1051 84.0498 44.233 83.7189C45.394 83.6443 45.5336 83.5238 45.5375 82.359C45.5413 81.2133 45.5394 80.0695 45.5375 78.9238C45.5362 78.0172 45.0708 77.5626 44.1412 77.5601C31.6112 77.5601 19.0793 77.5601 6.54936 77.5601C4.75144 77.5601 4.31152 77.1125 4.31152 75.2954C4.31152 55.3863 4.31152 35.4772 4.31152 15.5681C4.31152 13.7033 4.73805 13.2825 6.62396 13.2825C12.5399 13.2825 18.4558 13.2825 24.3698 13.2825C25.6838 13.2825 25.6857 13.2786 25.6877 11.9378C25.6896 10.0615 25.7163 8.18517 25.6762 6.30883C25.6571 5.45386 25.8464 4.74043 26.5254 4.19531H73.8605C74.5356 4.74043 74.7288 5.45003 74.7097 6.30309C74.6676 8.20621 74.6944 10.1112 74.6982 12.0144C74.7001 13.2576 74.7212 13.2806 75.9931 13.2806C81.9588 13.2806 87.9263 13.292 93.892 13.2691C94.7431 13.2652 95.4546 13.445 95.9998 14.1183V14.1164ZM50.1929 74.3582C63.9987 74.3582 77.8025 74.3582 91.6082 74.3582C92.8324 74.3582 92.8706 74.3238 92.8706 73.1494C92.8706 54.6691 92.8706 36.1868 92.8706 17.7065C92.8706 16.513 92.84 16.4843 91.6216 16.4843C86.4057 16.4824 81.1879 16.4824 75.9721 16.4843C74.702 16.4843 74.6982 16.4939 74.6963 17.871C74.6944 19.3801 74.6944 19.3858 75.9376 19.3877C79.8816 19.3916 83.8255 19.3877 87.7714 19.3897C89.5081 19.3897 89.9652 19.8525 89.9652 21.6045C89.9652 37.4779 89.9652 53.3493 89.9652 69.2227C89.9652 71.011 89.5119 71.4529 87.6891 71.4529C62.6866 71.4529 37.6859 71.4529 12.6833 71.4529C10.8625 71.4529 10.4168 71.0129 10.4168 69.215C10.4168 53.3417 10.4168 37.4702 10.4168 21.5969C10.4168 19.8487 10.8739 19.3916 12.6164 19.3897C16.5929 19.3858 20.5693 19.3897 24.5439 19.3839C24.8843 19.3839 25.3395 19.5121 25.5136 19.1582C25.8636 18.4486 25.7489 17.651 25.615 16.9185C25.4983 16.2796 24.8461 16.49 24.4042 16.4881C19.2515 16.4766 14.0987 16.4805 8.94595 16.4805C7.99089 16.4805 7.51272 16.9535 7.51144 17.8997C7.51144 36.2213 7.51144 54.5428 7.51144 72.8663C7.51144 73.8597 7.9979 74.3563 8.97082 74.3563C22.7115 74.3563 36.4541 74.3563 50.1948 74.3563L50.1929 74.3582ZM38.0493 19.3591C38.0493 23.0467 38.0742 26.7324 38.0321 30.4201C38.0206 31.3458 38.3267 31.6251 39.2428 31.6213C46.5206 31.5907 53.8003 31.606 61.078 31.604C62.2983 31.604 62.3308 31.5715 62.3327 30.3876C62.3346 23.1098 62.3346 15.8302 62.3327 8.5524C62.3327 7.34741 62.3079 7.32255 61.0933 7.32255C53.8462 7.32063 46.599 7.32255 39.3538 7.32255C38.0742 7.32255 38.0531 7.34359 38.0512 8.58683C38.0493 12.1788 38.0512 15.7709 38.0512 19.361L38.0493 19.3591ZM13.6167 45.4327C13.6167 52.6493 13.6282 59.8639 13.6033 67.0805C13.5995 67.9259 13.8233 68.2778 14.7299 68.2644C18.0044 68.2223 21.2789 68.2243 24.5515 68.2644C25.4371 68.2759 25.6991 67.966 25.6991 67.0996C25.6781 52.6359 25.6781 38.1722 25.6991 23.7085C25.6991 22.8114 25.3778 22.5628 24.5228 22.5724C21.3134 22.6106 18.102 22.5857 14.8906 22.5877C13.6397 22.5877 13.6167 22.6125 13.6167 23.8787C13.6167 31.0628 13.6167 38.2468 13.6167 45.4308V45.4327ZM86.7634 45.5169C86.7634 38.2697 86.75 31.0207 86.7806 23.7735C86.7845 22.8497 86.4918 22.5571 85.5718 22.5704C82.3298 22.6164 79.0878 22.6106 75.8458 22.5724C74.9794 22.5628 74.681 22.8344 74.681 23.72C74.702 38.1837 74.702 52.6474 74.681 67.1111C74.681 67.9909 74.966 68.2759 75.8401 68.2644C79.0496 68.2243 82.261 68.251 85.4724 68.2472C86.7385 68.2472 86.7634 68.2243 86.7634 66.9734C86.7634 59.8218 86.7634 52.6684 86.7634 45.5169ZM62.3327 47.0432C62.3327 43.3556 62.3079 39.6698 62.3499 35.9822C62.3614 35.0488 62.042 34.7829 61.1335 34.7867C53.8232 34.8174 46.5129 34.8154 39.2027 34.7887C38.342 34.7848 38.0302 35.0392 38.034 35.9305C38.0608 43.2733 38.0608 50.6142 38.034 57.957C38.0302 58.8445 38.3362 59.1046 39.2008 59.1027C46.511 59.0759 53.8213 59.0759 61.1316 59.1027C62.0363 59.1065 62.3633 58.8483 62.3519 57.9111C62.3079 54.2885 62.3346 50.6639 62.3346 47.0413L62.3327 47.0432ZM50.2541 68.2491C53.9399 68.2491 57.6237 68.2376 61.3094 68.2587C62.0229 68.2625 62.3652 68.0483 62.3423 67.2794C62.304 65.9462 62.306 64.6112 62.3423 63.2781C62.3633 62.5264 62.0573 62.2796 61.3267 62.2815C53.894 62.2969 46.4594 62.2988 39.0267 62.2815C38.2655 62.2815 38.0225 62.5876 38.0417 63.3087C38.0761 64.5787 38.0933 65.8525 38.0359 67.1206C37.9958 68.01 38.3343 68.2759 39.2008 68.2663C42.8846 68.23 46.5703 68.251 50.2561 68.251L50.2541 68.2491ZM74.0728 91.909C73.2063 91.0272 72.1697 90.5644 71.1234 90.1302C66.0663 88.0358 60.7261 87.2784 55.3227 86.9226C50.082 86.5784 44.8432 86.7314 39.6368 87.4754C35.6298 88.0473 31.6954 88.9023 28.025 90.6925C27.411 90.9928 26.7951 91.3008 26.3035 91.9128C42.2343 88.8468 58.1459 88.8717 74.0728 91.9071V91.909ZM28.8895 10.2336C28.8895 10.9624 28.9029 11.6911 28.8857 12.4198C28.8704 13.0185 29.1267 13.2882 29.7349 13.2806C31.1292 13.2653 32.5236 13.2557 33.9179 13.2844C34.6275 13.2997 34.8685 12.9898 34.8551 12.3108C34.8284 10.949 34.8322 9.58525 34.8551 8.22342C34.8647 7.57885 34.6103 7.30151 33.9562 7.31298C32.5618 7.33402 31.1675 7.33594 29.7731 7.31298C29.1094 7.30342 28.8627 7.59989 28.8876 8.23681C28.9124 8.90242 28.8933 9.56804 28.8933 10.2336H28.8895ZM71.4945 10.3886C71.4945 9.69045 71.4715 8.99232 71.5002 8.2961C71.5289 7.62858 71.2994 7.29577 70.5764 7.31107C69.182 7.33976 67.7877 7.3302 66.3934 7.3149C65.7947 7.30916 65.525 7.55589 65.5307 8.16413C65.546 9.59099 65.546 11.0159 65.5307 12.4428C65.525 13.0587 65.8119 13.2882 66.4029 13.2806C67.8298 13.2653 69.2547 13.2691 70.6816 13.2786C71.2363 13.2825 71.5021 13.0415 71.4926 12.4791C71.4811 11.7829 71.4906 11.0848 71.4926 10.3867L71.4945 10.3886ZM31.8637 16.4824C31.1656 16.4824 30.4694 16.5015 29.7731 16.4766C29.1114 16.4537 28.8742 16.7597 28.8837 17.3966C28.9048 18.791 28.901 20.1853 28.8857 21.5797C28.8799 22.1764 29.1228 22.4499 29.733 22.4442C31.1598 22.4289 32.5848 22.4289 34.0116 22.4442C34.6256 22.4499 34.859 22.1669 34.8532 21.5739C34.8379 20.1471 34.8418 18.7221 34.8513 17.2953C34.8551 16.7425 34.6161 16.4747 34.0537 16.4824C33.325 16.4919 32.5963 16.4843 31.8675 16.4824H31.8637ZM68.6063 16.4824C67.8776 16.4824 67.1469 16.5015 66.4201 16.4766C65.7583 16.4537 65.5193 16.7578 65.5288 17.3947C65.5499 18.7891 65.546 20.1834 65.5307 21.5778C65.525 22.1745 65.7679 22.448 66.3781 22.4423C67.8049 22.427 69.2299 22.427 70.6567 22.4423C71.2707 22.448 71.504 22.165 71.4983 21.572C71.483 20.1452 71.4868 18.7202 71.4964 17.2934C71.5002 16.7406 71.263 16.4709 70.7007 16.4805C70.0045 16.4919 69.3064 16.4824 68.6082 16.4805L68.6063 16.4824ZM28.8895 28.5476C28.8895 29.2763 28.9029 30.005 28.8857 30.7338C28.8704 31.3267 29.1114 31.6117 29.7253 31.604C31.1522 31.5887 32.5771 31.5887 34.004 31.604C34.6141 31.6098 34.8571 31.3382 34.8513 30.7395C34.836 29.3127 34.8398 27.8877 34.8494 26.4608C34.8532 25.9119 34.6256 25.6384 34.0595 25.6403C32.602 25.6499 31.1445 25.6499 29.6852 25.6403C29.1228 25.6365 28.8799 25.9004 28.8895 26.4532C28.901 27.1494 28.8933 27.8475 28.8895 28.5457V28.5476ZM71.4926 28.7197C71.4926 27.991 71.4753 27.2623 71.4983 26.5335C71.5193 25.8775 71.221 25.6288 70.5802 25.6384C69.1859 25.6594 67.7915 25.6556 66.3972 25.6403C65.8023 25.6346 65.525 25.8736 65.5307 26.4857C65.546 27.9107 65.546 29.3375 65.5307 30.7644C65.525 31.3764 65.8023 31.6136 66.3972 31.6079C67.7915 31.5926 69.1859 31.5887 70.5802 31.6098C71.219 31.6193 71.5213 31.3764 71.4964 30.7166C71.4715 30.0529 71.4906 29.3853 71.4906 28.7197H71.4926ZM34.8456 37.8451C34.8456 37.1164 34.8322 36.3877 34.8494 35.6589C34.8628 35.0564 34.595 34.7963 33.9925 34.802C32.5676 34.8173 31.1407 34.8135 29.7139 34.802C29.1706 34.7982 28.8837 35.0144 28.8876 35.5843C28.8952 37.0418 28.8971 38.4993 28.8876 39.9567C28.8837 40.5152 29.1343 40.7658 29.6928 40.762C31.1503 40.7524 32.6077 40.7524 34.0652 40.762C34.6371 40.7658 34.8571 40.4789 34.8475 39.9357C34.836 39.2395 34.8437 38.5413 34.8456 37.8451V37.8451ZM68.5183 40.762C69.2165 40.762 69.9127 40.7428 70.6108 40.7677C71.2726 40.7907 71.5117 40.4846 71.5002 39.8477C71.4792 38.4534 71.483 37.059 71.4983 35.6647C71.504 35.0679 71.2611 34.7944 70.651 34.8001C69.2241 34.8154 67.7992 34.8154 66.3723 34.8001C65.7583 34.7944 65.525 35.0775 65.5326 35.6704C65.5479 37.0973 65.5441 38.5222 65.5346 39.9491C65.5307 40.5018 65.7679 40.7696 66.3321 40.762C67.0609 40.7505 67.7896 40.7601 68.5183 40.762ZM34.8456 46.9705C34.8456 46.2743 34.8265 45.5762 34.8513 44.88C34.8743 44.2411 34.6199 43.9523 33.96 43.9619C32.5657 43.9848 31.1713 43.9829 29.777 43.9619C29.1228 43.9523 28.8723 44.2392 28.8818 44.88C28.9029 46.2743 28.899 47.6687 28.8837 49.063C28.878 49.6578 29.1171 49.9352 29.7292 49.9294C31.1541 49.9141 32.581 49.9141 34.0078 49.9294C34.6199 49.9352 34.8666 49.6578 34.8513 49.063C34.8341 48.3668 34.8475 47.6687 34.8475 46.9724L34.8456 46.9705ZM65.5365 46.8519C65.5365 47.5807 65.5556 48.3113 65.5307 49.0381C65.5078 49.698 65.8081 49.9409 66.4469 49.9314C67.8413 49.9103 69.2356 49.9141 70.6299 49.9294C71.2248 49.9352 71.5021 49.6961 71.4964 49.084C71.4811 47.6572 71.4811 46.2322 71.4964 44.8054C71.5021 44.1933 71.2229 43.9561 70.628 43.9619C69.2337 43.9772 67.8393 43.981 66.445 43.96C65.8042 43.9504 65.5059 44.1952 65.5307 44.8551C65.5556 45.5188 65.5365 46.1863 65.5365 46.8519V46.8519ZM31.9058 53.1313C31.1771 53.1313 30.4483 53.1408 29.7196 53.1275C29.1783 53.1179 28.8857 53.3321 28.8895 53.9059C28.8971 55.3634 28.8971 56.8208 28.8895 58.2802C28.8857 58.8368 29.1324 59.0912 29.6909 59.0874C31.1484 59.0778 32.6058 59.0797 34.0652 59.0874C34.5644 59.0874 34.8456 58.8827 34.8456 58.3586C34.8456 56.8687 34.8437 55.3787 34.8456 53.8906C34.8456 53.3799 34.6065 53.1313 34.0939 53.1332C33.3652 53.137 32.6364 53.1332 31.9077 53.1332L31.9058 53.1313ZM71.4906 56.1897C71.4906 55.4284 71.4868 54.6691 71.4906 53.9078C71.4945 53.4067 71.2783 53.1332 70.7562 53.1332C69.2662 53.1332 67.7762 53.1351 66.2882 53.1332C65.7756 53.1332 65.5346 53.3799 65.5365 53.8906C65.5403 55.3806 65.5384 56.8706 65.5365 58.3586C65.5365 58.8827 65.8176 59.0893 66.3149 59.0874C67.7724 59.0816 69.2299 59.0797 70.6892 59.0874C71.2477 59.0912 71.5002 58.8368 71.4906 58.2802C71.4792 57.584 71.4887 56.8859 71.4868 56.1877L71.4906 56.1897ZM31.7719 68.2491C32.5006 68.2491 33.2313 68.23 33.9581 68.2549C34.618 68.2778 34.8609 67.9775 34.8513 67.3387C34.8303 65.9443 34.8341 64.55 34.8494 63.1556C34.8551 62.5608 34.618 62.2816 34.0059 62.2892C32.579 62.3045 31.1541 62.3045 29.7272 62.2892C29.1152 62.2835 28.878 62.5627 28.8837 63.1556C28.899 64.55 28.9029 65.9443 28.8818 67.3387C28.8723 67.9794 29.1171 68.2797 29.7751 68.2549C30.4388 68.23 31.1063 68.2491 31.7719 68.2491ZM71.4926 65.2519C71.4926 64.5538 71.4792 63.8576 71.4964 63.1595C71.5117 62.5685 71.2726 62.2815 70.6567 62.2873C69.2299 62.3026 67.8049 62.3026 66.3781 62.2873C65.7679 62.2815 65.5231 62.5532 65.5307 63.1499C65.546 64.5768 65.5422 66.0017 65.5326 67.4286C65.5288 67.9775 65.7545 68.2529 66.3226 68.2491C67.78 68.2396 69.2375 68.2396 70.6969 68.2491C71.2592 68.2529 71.504 67.9909 71.4945 67.4362C71.483 66.7075 71.4907 65.9788 71.4945 65.25L71.4926 65.2519ZM48.7412 80.5496H48.7374C48.7374 80.8977 48.7374 81.2458 48.7374 81.5939C48.7374 83.65 48.7374 83.6328 50.7916 83.5295C51.3903 83.4989 51.6561 83.2732 51.6466 82.6707C51.6294 81.6264 51.6447 80.5821 51.6447 79.5378C51.6447 77.4204 51.6255 77.4147 49.5426 77.5562C48.9899 77.5945 48.7316 77.8087 48.7393 78.3653C48.7508 79.094 48.7412 79.8208 48.7412 80.5496Z" fill="#727272"/>
<path d="M45.66 40.776C46.056 40.7645 46.4022 40.9271 46.7445 41.0973C49.5275 42.4859 52.3085 43.8783 55.0934 45.265C55.8164 45.6246 56.3806 46.0875 56.3596 46.9903C56.3385 47.8452 55.782 48.2794 55.0953 48.6218C52.3124 50.0104 49.537 51.4181 46.7445 52.7857C45.092 53.5948 44.0151 52.8947 44.0094 51.0413C44.0017 48.2163 43.9979 45.3913 44.0151 42.5662C44.0228 41.4186 44.6559 40.7587 45.6581 40.7779L45.66 40.776ZM47.2093 46.9004C47.1978 49.033 47.1003 48.968 48.9154 48.0231C49.5256 47.7056 50.6082 47.5392 50.6101 46.9864C50.6139 46.2788 49.5237 46.1984 48.904 45.8675C47.1385 44.9227 47.1921 44.8557 47.2093 46.9004V46.9004Z" fill="#727272"/>
</g>
<defs>
<clipPath id="clip0_500_2196">
<rect width="92" height="91.8776" fill="white" transform="translate(4 4)"/>
</clipPath>
</defs>
</svg>
