<?xml version="1.0" encoding="utf-8"?>
<!-- Generator: Adobe Illustrator 27.0.1, SVG Export Plug-In . SVG Version: 6.00 Build 0)  -->
<svg version="1.1" id="Layer_1" xmlns="http://www.w3.org/2000/svg" xmlns:xlink="http://www.w3.org/1999/xlink" x="0px" y="0px"
	 viewBox="0 0 63 63" style="enable-background:new 0 0 63 63;" xml:space="preserve">
<style type="text/css">
	.st0{fill:#5A5A5A;}
	.st1{fill:none;}
</style>
<g>
	<g>
		<g>
			<path class="st0" d="M8.1,47.1c2.9,0,5.7,0,8.6,0c0.2,0,0.5,0.1,0.7,0.3c3.4,3.3,7.5,4.5,12,3.6c6.8-1.4,11.2-8,9.9-14.8
				c-1-5-3.9-8.5-8.9-10.1c-0.5-0.2-0.7-0.5-0.8-0.9l-0.1-0.3l2.2,0c0.2,0,0.3,0,0.5,0c1.8-0.2,3-1.8,2.9-3.7c-0.1-1.7-1.6-3-3.4-3
				H26c-0.1,0-0.1,0-0.2,0c-0.1,0-0.1,0-0.2,0h-0.3l0.2-0.3c0-0.1,0.1-0.1,0.1-0.2c0.6-1.1,0.6-2.4,0-3.4c-0.6-1-1.7-1.6-3-1.6H3.8
				c-1.4,0-2.7,0.9-3.2,2.3c-0.1,0.2-0.1,0.3-0.2,0.5v1.2c0,0,0.1,0.1,0.1,0.1c0.4,1.7,1.7,2.6,3.4,2.6h6.4l-0.2,0.3
				c-0.4,0.7-0.6,1.3-0.6,1.9c0,0.6,0.2,1.2,0.6,1.9l0.2,0.3H8.7c-0.1,0-0.3,0-0.4,0c-0.1,0-0.1,0-0.2,0c-0.2,0-0.5,0-0.7,0
				c-1.4,0.3-2.3,1-2.7,2.4c-0.4,1.3,0,2.5,1,3.4c0,0,0.1,0.1,0.1,0.1l0.1,0.1L5.8,30c-0.8,0.8-1.2,1.6-1.2,2.6c0,1,0.4,1.8,1.2,2.6
				L6,35.4l-0.2,0.1c-0.8,0.8-1.2,1.6-1.2,2.7c0,1,0.4,1.8,1.2,2.6l0.1,0.1l-0.2,0.3c-1.1,1.1-1.5,2.4-0.9,3.8
				C5.3,46.3,6.5,47.1,8.1,47.1z M34.8,30c2.2,2.2,3.5,5.2,3.5,8.3l0,0.2c0,3.1-1.3,5.9-3.4,8.1c-2.2,2.2-5.2,3.5-8.3,3.5
				c0,0,0,0,0,0c-3.1,0-6.1-1.2-8.3-3.5c-2.2-2.2-3.5-5.2-3.5-8.3c0-6.5,5.3-11.7,11.7-11.8c0,0,0,0,0.1,0
				C29.7,26.6,32.6,27.8,34.8,30z M31.6,19.3c1.1,0,2,0.7,2.3,1.7c0.2,0.6,0,1.3-0.4,1.8c-0.4,0.5-1,0.9-1.7,0.9l-0.2,0H13
				c-1.2,0-2.1-0.7-2.3-1.7c-0.2-0.7,0-1.4,0.4-1.9c0.4-0.5,1.1-0.9,1.8-0.9H31.6z M3.9,18.2c-1.1,0-2-0.6-2.3-1.6
				c-0.2-0.7,0-1.4,0.4-1.9c0.4-0.6,1.1-0.9,1.9-0.9h18.7c1.1,0,2,0.6,2.2,1.6c0.2,0.7,0,1.3-0.4,1.9c-0.4,0.5-1,0.9-1.7,0.9l-0.2,0
				H3.9z M5.8,27.6c-0.2-0.7,0-1.3,0.4-1.9c0.4-0.5,1-0.9,1.7-0.9l18.6,0c0.2,0,0.4,0,0.6,0c0.1,0,0.2,0,0.3,0l0.2,0v0.4l-0.2,0
				c-0.3,0-0.6,0-0.9,0.1c-0.6,0-1.2,0.1-1.8,0.2c-2.6,0.4-4.9,1.5-7,3.4c-0.2,0.1-0.4,0.3-0.7,0.3H8C6.9,29.3,6,28.6,5.8,27.6z
				 M5.8,33.2c-0.3-1,0.1-2,0.9-2.5c0.4-0.2,0.8-0.3,1.1-0.3c2,0,4,0,6,0l1.8,0l0.4,0c0,0-1,1.5-1.3,2C14.6,33,14,34.8,14,34.8H8
				C6.9,34.8,6.1,34.2,5.8,33.2z M5.7,38.1c0.1-1.2,1-2.1,2.1-2.1c1.3,0,2.7,0,4,0c0.6,0,1.2,0,1.8,0h0.2c0,0-0.2,1.6-0.2,2.1
				c0,0.6,0.2,2.3,0.2,2.3H9.3c-0.1,0-0.3,0-0.4,0c-0.1,0-0.3,0-0.4,0c-0.3,0-0.6,0-0.9-0.1C6.4,40.2,5.7,39.2,5.7,38.1z M7.2,41.7
				c0.3-0.1,0.5-0.1,0.7-0.1h5.8c0,0,0.1,0,0.1,0c0,0,0,0,0.1,0c0,0,0.5,1.7,0.7,2.1c0.2,0.5,1.3,2.2,1.3,2.2l-0.4,0.1l-2.5,0
				c-1.7,0-3.3,0-5,0c-1.2,0-2.1-0.8-2.2-2C5.6,43,6.2,42,7.2,41.7z"/>
			<path class="st0" d="M25.8,43.3l0.1,0l0,0.1c0.1,0.9,0.4,0.9,0.6,0.9c0.3,0,0.5-0.1,0.6-0.9l0-0.1l0.1-0.1c0.1,0,0.3-0.1,0.4-0.1
				c1.2-0.5,1.8-1.3,1.9-2.4c0.1-1.2-0.5-2.2-1.6-2.7c-0.4-0.2-0.9-0.2-1.4-0.3l-0.2,0c-0.8-0.1-1.2-0.4-1.5-1
				c-0.2-0.5-0.2-1,0.1-1.5c0.4-0.6,1.3-0.9,2.1-0.7c0.8,0.2,1.3,0.8,1.4,1.6c0,0.4,0.2,0.6,0.6,0.6c0,0,0,0,0,0
				c0.3,0,0.5-0.3,0.5-0.6c0-1.1-0.8-2.2-2-2.6c-0.3-0.1-0.5-0.3-0.5-0.7c0-0.4-0.3-0.6-0.6-0.6c-0.2,0-0.3,0.1-0.4,0.2
				c-0.1,0.1-0.2,0.3-0.2,0.4c0,0.4-0.1,0.6-0.5,0.7c-1.3,0.4-2,1.5-2,2.9c0,1.1,1,2.2,2.2,2.5c0.2,0.1,0.5,0.1,0.8,0.1
				c0.1,0,0.3,0,0.4,0c0.5,0.1,1,0.4,1.3,0.8c0.2,0.4,0.3,0.8,0.2,1.1c-0.2,0.9-1,1.4-2.1,1.4c-0.9-0.1-1.6-0.7-1.7-1.6
				c0-0.4-0.3-0.6-0.6-0.6c0,0,0,0,0,0c-0.3,0-0.5,0.3-0.5,0.7c0,0.6,0.2,1.1,0.6,1.6C24.6,42.7,25.1,43.1,25.8,43.3z"/>
			<path class="st0" d="M35.4,42.8c0.7-1.3,1-2.8,1.1-4.4l0-0.1c0-0.1,0-0.2,0-0.3c0-0.3,0-0.6-0.1-0.8c-0.5-3.4-2.3-6-5.4-7.6
				c-0.1-0.1-0.3-0.1-0.4-0.1c-0.1,0-0.1,0-0.2,0c-0.1,0-0.3,0.1-0.3,0.3c-0.2,0.4,0.1,0.7,0.3,0.8l0.2,0.1c0.3,0.2,0.6,0.3,0.9,0.5
				c3.6,2.5,4.7,7,2.8,11c-0.2,0.5-0.2,0.8,0.2,0.9c0.1,0.1,0.3,0.1,0.4,0.1C35.1,43.2,35.2,43,35.4,42.8z"/>
			<path class="st0" d="M22.6,46.1c-1.3-0.7-2.4-1.6-3.2-2.8c-1.9-2.8-2.1-5.8-0.7-8.8c0.4-0.7,0-0.9-0.2-1
				c-0.2-0.1-0.6-0.2-0.9,0.5c-0.6,1.3-1,2.7-1,4.1l0,0l0,0.3c0,2.2,0.7,4.1,1.9,5.8c0.9,1.3,2.1,2.3,3.6,3c0.3,0.1,0.5,0.1,0.7,0
				c0.2-0.1,0.3-0.3,0.2-0.6C23.1,46.3,22.9,46.2,22.6,46.1z"/>
			<g>
				<path class="st0" d="M28.4,29.1c0-0.3-0.3-0.6-0.6-0.6h0c0,0,0,0,0,0c-0.2,0-0.3,0.1-0.4,0.2c-0.1,0.1-0.2,0.2-0.2,0.4
					c0,0.3,0.2,0.6,0.6,0.6c0.2,0,0.3-0.1,0.5-0.2C28.3,29.4,28.4,29.2,28.4,29.1z"/>
				<polygon class="st0" points="27.8,28.3 27.8,28.3 27.8,28.3 				"/>
			</g>
			<path class="st0" d="M24.8,47.6c0,0.3,0.3,0.6,0.6,0.6c0.3,0,0.5-0.2,0.6-0.5l0-0.1c0-0.2-0.1-0.3-0.2-0.4S25.6,47,25.4,47
				c0,0,0,0,0,0C25,47,24.8,47.3,24.8,47.6z"/>
		</g>
	</g>
	<rect x="-1" y="10.5" class="st1" width="42" height="42"/>
</g>
</svg>
