<?xml version="1.0" encoding="utf-8"?>
<!-- Generator: Adobe Illustrator 26.0.1, SVG Export Plug-In . SVG Version: 6.00 Build 0)  -->
<svg version="1.1" id="Layer_1" xmlns="http://www.w3.org/2000/svg" xmlns:xlink="http://www.w3.org/1999/xlink" x="0px" y="0px"
	 viewBox="0 0 135 135" style="enable-background:new 0 0 135 135;" xml:space="preserve">
<style type="text/css">
	.st0{fill:#FFFFFF;}
	.st1{fill:#BEBEBE;}
	.st2{fill:#AAAAAA;}
	.st3{fill:#A3A3A3;}
	.st4{fill:none;}
</style>
<g>
	<path class="st0" d="M74.3,77.5V58.6h0.6v18.9H74.3z"/>
	<path class="st0" d="M55.6,77.2h-3.9c0-2.5,0-5.1,0-7.6c0-0.7-0.1-1.4-0.5-2c-0.3-0.5-0.8-0.8-1.3-0.9s-1.1-0.1-1.7-0.1
		c-0.2,0-0.4,0-0.6,0.1c-0.2,0-0.4,0.1-0.5,0.1s-0.4,0.1-0.5,0.2v10.2h-3.9V64.6c0.2-0.1,0.5-0.2,0.7-0.3c0.5-0.2,1-0.3,1.5-0.5
		c0.6-0.1,1.2-0.3,1.8-0.4c0.9-0.1,1.8-0.2,2.7-0.2c0.9,0,1.8,0.2,2.7,0.5c0.8,0.3,1.5,0.7,2,1.2c0.5,0.5,0.9,1.1,1.1,1.7
		c0.3,0.7,0.4,1.4,0.4,2.1C55.6,71.6,55.6,74.4,55.6,77.2L55.6,77.2z"/>
	<path class="st0" d="M115.6,64.1c0-1.6,0-3.1,0-4.7c0-0.2,0.1-0.4,0.3-0.5c0.1,0,0.2-0.1,0.3-0.1c0.5,0,1.1,0,1.6,0
		c0.5,0,1,0.2,1.3,0.5c0.4,0.5,0.4,1.2,0,1.7c-0.1,0.1-0.3,0.3-0.4,0.3c0.3,0.1,0.6,0.3,0.8,0.6c0.1,0.1,0.1,0.3,0.1,0.5
		c0,0.3,0,0.6-0.2,0.9c-0.3,0.3-0.6,0.6-1,0.6c-0.1,0-0.2,0-0.3,0C117.3,64.2,116.4,64.1,115.6,64.1z M116.6,63.3c0.4,0,0.9,0,1.3,0
		c0.1,0,0.1,0,0.2-0.1c0.2-0.1,0.3-0.2,0.3-0.4c0.1-0.2,0-0.5-0.1-0.7c-0.1-0.1-0.3-0.2-0.4-0.2c-0.4,0-0.9,0-1.3,0L116.6,63.3z
		 M116.6,61.1c0.4,0,0.7,0,1,0c0.3,0,0.5-0.1,0.6-0.4c0.1-0.2,0.1-0.4,0-0.5c-0.1-0.2-0.3-0.3-0.5-0.3c-0.4,0-0.8,0-1.1,0
		L116.6,61.1z"/>
	<path class="st0" d="M78.4,64.1h-1.1c0-1.5,0-3.1,0-4.6c0-0.3,0.1-0.5,0.4-0.6c0.1,0,0.1,0,0.2,0c0.6,0,1.2,0,1.7,0
		c0.1,0,0.2,0,0.3,0c0.3,0.1,0.6,0.2,0.8,0.4c0.1,0.2,0.3,0.3,0.3,0.5c0,0.1,0.1,0.2,0.1,0.3s0,0.2,0,0.3c0,0.5-0.1,1-0.5,1.3
		c-0.2,0.2-0.4,0.3-0.6,0.4c-0.1,0-0.2,0.1-0.4,0.1c-0.1,0-0.2,0-0.3,0c-0.2,0-0.4,0-0.6,0c-0.2,0-0.3,0-0.5-0.1L78.4,64.1
		L78.4,64.1z M78.8,61.6c0.2,0,0.3,0,0.5,0c0.4,0,0.7-0.2,0.8-0.6c0.1-0.2,0.1-0.3,0-0.5c0-0.2-0.1-0.4-0.3-0.5
		c-0.2-0.1-0.4-0.2-0.6-0.2c-0.3,0-0.5,0-0.8,0v1.7C78.5,61.6,78.7,61.6,78.8,61.6z"/>
	<path class="st0" d="M38,62.7c-0.7-0.1-1.3-0.5-1.6-1.1c-0.1-0.3-0.2-0.5-0.2-0.8c0-0.4,0.1-0.8,0.3-1.2c0.3-0.5,0.7-0.9,1.3-1
		c0.6-0.2,1.2-0.1,1.7,0.2c0.5,0.3,0.9,0.7,1,1.3c0.2,0.6,0.1,1.1-0.2,1.6c-0.3,0.5-0.8,0.9-1.4,1C38.5,62.8,38.3,62.8,38,62.7z"/>
	<path class="st0" d="M95.5,64.1v-2.2c0-0.3-0.1-0.5-0.3-0.7C95,61,94.7,61,94.4,61.1c-0.4,0.1-0.5,0.5-0.5,0.9c0,0.7,0,1.5,0,2.2
		h-1.1c0-0.7,0-1.5,0-2.2c0-0.3-0.1-0.6-0.3-0.8c-0.2-0.2-0.6-0.1-0.9-0.1c-0.1,0-0.2,0.1-0.3,0.1v3h-1.1v-3.6
		c0.5-0.2,1.1-0.3,1.6-0.4c0.3,0,0.7,0,1,0.1c0.3,0.1,0.5,0.3,0.7,0.5c0.3-0.3,0.6-0.5,1-0.6c0.4-0.1,0.9,0,1.3,0.2
		c0.3,0.2,0.6,0.5,0.6,0.9c0,0.1,0,0.2,0,0.3c0,0.8,0,1.7,0,2.5L95.5,64.1z"/>
	<path class="st0" d="M110.8,64.2c-0.3,0-0.7-0.1-1-0.3c-0.1-0.1-0.3-0.1-0.4-0.2l0.4-0.7c0.4,0.2,0.8,0.4,1.3,0.4
		c0.3,0,0.6,0,0.8-0.1c0.1-0.1,0.1-0.2,0.1-0.4c-0.1-0.2-0.3-0.2-0.4-0.2c-0.5-0.1-1-0.1-1.4-0.3c-0.4-0.1-0.6-0.4-0.7-0.8
		c-0.1-0.6,0.3-1.2,0.9-1.4c0.7-0.2,1.4-0.1,2.1,0.1c0.2,0.1,0.4,0.2,0.5,0.4c0,0.1,0,0.2-0.1,0.3c-0.1,0.1-0.2,0.2-0.3,0.3
		c-0.1-0.1-0.3-0.2-0.4-0.3c-0.3-0.1-0.7-0.2-1-0.2c-0.2,0-0.3,0-0.5,0.1c-0.1,0.1-0.2,0.2-0.1,0.4c0.1,0.2,0.3,0.2,0.4,0.2
		c0.4,0.1,0.7,0.1,1.1,0.2c0.3,0.1,0.6,0.2,0.8,0.4c0.2,0.3,0.3,0.7,0.2,1c-0.1,0.4-0.5,0.7-0.9,0.8
		C111.8,64.3,111.3,64.3,110.8,64.2z"/>
	<path class="st0" d="M127.4,64.1c0-0.7,0-1.5,0-2.2c0-0.2-0.1-0.5-0.2-0.7c-0.2-0.3-0.7-0.3-1-0.2c-0.1,0-0.3,0.1-0.4,0.1v3h-1.1
		v-3.6c0.6-0.3,1.3-0.4,1.9-0.4c0.5,0,1,0.2,1.4,0.5c0.2,0.2,0.4,0.5,0.4,0.9c0,0.1,0,0.2,0,0.2c0,0.8,0,1.6,0,2.4v0H127.4z"/>
	<path class="st0" d="M99.1,64.3c-0.5,0-1-0.2-1.4-0.6c-0.2-0.2-0.3-0.4-0.4-0.6c-0.1-0.4-0.2-0.8-0.1-1.3c0.1-0.5,0.4-1,0.8-1.3
		c0.5-0.3,1-0.4,1.5-0.3c0.4,0,0.9,0.3,1.1,0.6c0.2,0.3,0.3,0.7,0.3,1.1c0,0.2-0.1,0.3-0.2,0.4c-0.2,0.2-0.5,0.3-0.8,0.3
		c-0.6,0-1.1,0-1.7,0c0.1,0.3,0.4,0.6,0.7,0.7c0.3,0.1,0.5,0.1,0.8,0c0.3,0,0.5-0.1,0.7-0.2l0.3,0.8c-0.3,0.1-0.6,0.2-1,0.3
		C99.6,64.3,99.4,64.3,99.1,64.3z M98.3,61.9c0.5,0,1,0,1.4,0c0.1,0,0.1,0,0.2-0.1c0.1-0.1,0.1-0.3,0.1-0.4c0-0.3-0.2-0.6-0.5-0.6
		c-0.3-0.1-0.5,0-0.8,0.1C98.5,61.2,98.3,61.6,98.3,61.9z"/>
	<path class="st0" d="M107.7,64.2c-0.3,0-0.5-0.1-0.7-0.2c-0.3-0.2-0.4-0.5-0.5-0.9c-0.1-0.6,0-1.4,0-2c-0.2,0-0.3,0-0.5,0
		c-0.2-0.1-0.2-0.3-0.2-0.5c0-0.1,0.1-0.2,0.1-0.3h0.6v-0.7c0-0.3,0.2-0.4,0.5-0.4c0.2,0,0.4,0,0.6,0.1v1h0.8c0.2,0,0.3,0.1,0.4,0.2
		c0.1,0.1,0.1,0.3,0.1,0.4c0,0.1-0.1,0.2-0.1,0.3h-1.2c0,0.6,0,1.1,0,1.7c0,0.1,0,0.3,0.1,0.4c0.1,0.1,0.1,0.1,0.2,0.1
		c0.3,0.1,0.6,0,0.8-0.2l0.4,0.6c-0.3,0.2-0.6,0.4-1,0.4C108,64.2,107.9,64.2,107.7,64.2z"/>
	<path class="st0" d="M86.3,65.6c-0.3,0-0.6-0.1-0.8-0.2l0.3-0.8c0.3,0.1,0.6,0.1,0.8,0c0.1-0.1,0.2-0.2,0.3-0.3
		c0.1-0.2,0.3-0.4,0.3-0.6c-0.3-0.5-0.6-1.1-1-1.6c-0.2-0.3-0.4-0.7-0.6-1c-0.1-0.2-0.1-0.4,0-0.6c0.1-0.1,0.2-0.2,0.4-0.2
		c0.1,0,0.2,0,0.3,0c0.1,0,0.1,0,0.2,0.1c0,0,0,0,0,0c0.4,0.8,0.7,1.6,1.1,2.3c0.3-0.6,0.6-1.3,0.8-2c0.1-0.2,0.2-0.3,0.3-0.4
		c0.2-0.1,0.5-0.1,0.7,0c0.1,0,0.1,0.1,0.2,0.1c0,0.1-0.1,0.3-0.1,0.4c-0.3,0.7-0.6,1.4-0.9,2.1c-0.2,0.5-0.5,1-0.7,1.5
		c-0.2,0.3-0.4,0.6-0.7,0.9c-0.2,0.2-0.5,0.3-0.8,0.3C86.5,65.6,86.4,65.6,86.3,65.6z"/>
	<path class="st0" d="M40.2,77.2h-3.9c0-3.9,0-7.8,0-11.6c0-0.2,0-0.4,0.1-0.7c0.1-0.3,0.2-0.6,0.5-0.8c0.3-0.2,0.5-0.3,0.8-0.3
		c0.6-0.1,1.2-0.1,1.7,0.1c0.2,0,0.4,0.1,0.5,0.1c0.1,0,0.2,0.1,0.2,0.1L40.2,77.2L40.2,77.2z"/>
	<path class="st0" d="M122.6,69.1h-1v-1h1L122.6,69.1L122.6,69.1z"/>
	<path class="st0" d="M108.7,77.5l-1.4-1.3l-0.3,0.2l-0.5-0.5l0.9-0.5l2,1.7L108.7,77.5L108.7,77.5z"/>
	<path class="st0" d="M132.1,64.1c-0.3-0.3-0.5-0.6-0.8-1c-0.3-0.3-0.5-0.5-0.8-0.8v1.7h-1.1c0-1.7,0-3.4,0-5.2
		c0-0.3,0.3-0.4,0.5-0.4c0.2,0,0.4,0,0.5,0.1c0,1,0,2,0,3v0c0.5-0.4,0.9-0.8,1.4-1.2c0.2-0.2,0.5-0.3,0.8-0.3c0.2,0,0.4,0.1,0.6,0.3
		l0,0c-0.1,0.1-0.2,0.2-0.3,0.3c-0.4,0.4-0.9,0.7-1.3,1.1c0.4,0.3,0.7,0.6,1,1c0.3,0.4,0.6,0.7,0.9,1.1L132.1,64.1z"/>
	<path class="st0" d="M23.3,77.2L23.3,77.2c-0.1-4.7-0.1-9.4-0.1-14c0-0.4,0.1-0.9,0.3-1.3c0.3-0.7,0.8-1.4,1.5-1.8
		c0.7-0.4,1.5-0.7,2.4-0.8c0.3,0,0.6-0.1,1-0.1c1.6,0,3.2,0,4.8,0c0.3,0,0.6,0.1,0.9,0.1c0.4,0.1,0.7,0.4,0.8,0.8
		c0.2,0.5,0.2,1.1,0.1,1.6c-0.1,0.3-0.2,0.6-0.3,0.9c0,0.1-0.1,0.1-0.1,0.2h-5.3c-0.4,0-0.7,0.1-1,0.2c-0.3,0.1-0.5,0.4-0.7,0.7
		c-0.1,0.1-0.1,0.3-0.1,0.4c0,0.8,0,1.7,0,2.5h5c0.3,0,0.7,0.1,1,0.2c0.4,0.2,0.7,0.5,0.8,1c0.1,0.5,0.1,1,0,1.5
		c-0.1,0.2-0.1,0.4-0.2,0.6c-0.1,0.1-0.1,0.2-0.2,0.3h-6.4v7L23.3,77.2L23.3,77.2z"/>
	<path class="st0" d="M121.9,64.2c-0.4,0-0.8-0.1-1.2-0.3c-0.2-0.1-0.4-0.3-0.4-0.5c-0.1-0.3-0.1-0.6,0-0.9c0.1-0.2,0.2-0.4,0.4-0.6
		c0.4-0.3,1.2-0.3,1.8-0.3c0.2,0,0.3,0,0.5,0c0-0.3-0.1-0.5-0.3-0.7c-0.3-0.2-0.7-0.2-1-0.1c-0.1,0-0.3,0.1-0.4,0.1
		c-0.1,0.1-0.3,0.1-0.4,0.2c-0.1-0.1-0.3-0.3-0.3-0.4c0-0.3,0.2-0.5,0.4-0.6c0.1,0,0.2-0.1,0.4-0.1c0.5-0.1,1,0,1.5,0.1
		c0.3,0.1,0.6,0.3,0.8,0.6s0.3,0.6,0.3,0.9c0,0.8,0,1.6,0,2.4c-0.2,0-0.4,0.1-0.6,0.1C122.8,64.2,122.3,64.2,121.9,64.2z
		 M121.9,63.5c0.3,0,0.6,0,0.9-0.1v-1c-0.1,0-0.3,0-0.4,0c-0.3,0-0.6,0-0.9,0.1c-0.2,0.1-0.3,0.3-0.3,0.5c0,0.1,0,0.2,0,0.2
		C121.3,63.5,121.7,63.5,121.9,63.5L121.9,63.5z"/>
	<path class="st0" d="M83.3,64.2c-0.4,0-0.8-0.1-1.2-0.2c-0.1-0.1-0.3-0.2-0.4-0.3c-0.1-0.2-0.2-0.4-0.2-0.6c0-0.1,0-0.1,0-0.2
		c0-0.3,0.1-0.5,0.3-0.7c0.1-0.1,0.3-0.2,0.5-0.3c0.4-0.1,0.9-0.2,1.4-0.1c0.2,0,0.3,0,0.5,0c0.1-0.3-0.1-0.5-0.3-0.7
		c-0.2-0.2-0.7-0.2-1-0.1c-0.3,0-0.5,0.1-0.8,0.3h0C82.1,61.2,82,61.1,82,61c-0.1-0.1,0-0.3,0-0.4c0.2-0.3,0.9-0.4,1.2-0.4
		c0.4,0,0.9,0.1,1.3,0.3c0.2,0.1,0.4,0.2,0.5,0.4c0.2,0.3,0.3,0.6,0.3,0.9c0,0.8,0,1.6,0,2.4c-0.2,0-0.4,0.1-0.6,0.1
		C84.2,64.2,83.8,64.2,83.3,64.2z M83.4,63.5c0.1,0,0.2,0,0.4,0c0.1,0,0.3,0,0.4-0.1v-1c-0.1,0-0.3,0-0.4,0c-0.3,0-0.9,0-1.1,0.2
		c-0.1,0.1-0.1,0.3-0.1,0.4c0,0.1,0,0.1,0.1,0.2c0,0,0.1,0.1,0.1,0.1C83,63.5,83.2,63.5,83.4,63.5L83.4,63.5z"/>
	<path class="st0" d="M104.4,64.1c0-0.7,0-1.5,0-2.2c0-0.3-0.1-0.6-0.3-0.8c-0.3-0.2-0.7-0.2-1-0.1c-0.1,0-0.2,0.1-0.3,0.1v3h-1.1
		v-3.6c0.6-0.3,1.3-0.4,1.9-0.4c0.5,0,1,0.2,1.4,0.5c0.2,0.2,0.4,0.5,0.4,0.9c0,0.1,0,0.2,0,0.2c0,0.8,0,1.6,0,2.4H104.4z"/>
	<path class="st0" d="M104.8,69h-1v-0.9h1L104.8,69L104.8,69z"/>
	<path class="st0" d="M64.5,77.5c-0.9,0-1.8-0.2-2.7-0.5c-0.8-0.4-1.6-0.9-2.2-1.5c-0.8-0.8-1.4-1.8-1.7-2.9
		c-0.3-0.9-0.3-1.9-0.3-2.8c0.1-0.9,0.3-1.8,0.8-2.7c0.4-0.8,1-1.5,1.7-2.1c0.9-0.7,2-1.2,3.2-1.4c1-0.2,2-0.2,2.9,0
		c0.9,0.2,1.8,0.5,2.6,1c1,0.6,1.7,1.5,2.3,2.4c0.4,0.8,0.7,1.7,0.8,2.7c0.1,1,0,1.9-0.3,2.8c-0.3,0.9-0.7,1.8-1.3,2.5
		c-0.6,0.7-1.4,1.3-2.3,1.7c-0.9,0.4-1.8,0.6-2.8,0.7C65,77.5,64.8,77.5,64.5,77.5z M64.7,74.6c0.3,0,0.5,0,0.7-0.1
		c0.5-0.1,0.9-0.3,1.3-0.6c0.5-0.4,0.9-0.9,1.1-1.5c0.2-0.5,0.3-1,0.4-1.6c0.1-0.7,0-1.5-0.2-2.2c-0.2-0.6-0.5-1.1-0.9-1.5
		c-0.4-0.4-1-0.7-1.5-0.8c-0.5-0.1-1-0.1-1.4,0c-0.4,0.1-0.7,0.2-1,0.3c-0.4,0.3-0.8,0.6-1.1,1c-0.4,0.6-0.6,1.2-0.7,1.8
		c-0.1,0.6-0.1,1.2,0,1.8c0.1,0.6,0.3,1.3,0.6,1.8c0.3,0.4,0.6,0.7,1,1C63.5,74.4,64.1,74.6,64.7,74.6L64.7,74.6z"/>
	<path class="st0" d="M125.9,75.2h-1.1v-0.9c-0.3,0.2-0.7,0.3-1.1,0.2c-0.3-0.1-0.7-0.2-0.9-0.4c-0.4-0.3-0.6-0.9-0.5-1.5
		c0.2-0.5,0.5-0.9,1-1c0.4-0.1,0.7-0.2,1.1-0.1c0.1,0,0.2,0.1,0.3,0.1l-0.3,0.8c-0.2-0.1-0.4-0.1-0.7,0c-0.2,0.1-0.3,0.2-0.4,0.4
		c-0.1,0.1-0.1,0.3,0,0.4c0.1,0.2,0.2,0.3,0.4,0.4c0.3,0.1,0.6,0.1,0.8-0.1c0.1-0.1,0.2-0.1,0.3-0.2V71h-3.3v4.1h-1.1v-0.9
		c-0.4,0.2-0.8,0.3-1.2,0.2c-0.4-0.1-0.7-0.2-1-0.5c-0.2-0.2-0.3-0.4-0.4-0.6c-0.2-0.6,0-1.2,0.4-1.6c0.4-0.3,0.8-0.5,1.3-0.4
		c0.2,0,0.4,0,0.7,0.1c0.1,0,0.1,0,0.2,0.1l-0.3,0.8c-0.2-0.1-0.4-0.1-0.6-0.1c0,0-0.1,0-0.1,0l1.1,1V71h-3v-0.8h2.9l-2.1-1l0.5-0.8
		l2,1.4c0,0,0,0,0,0l-1-1.7l0.9-0.3h0c0,0,0,0,0,0c0.4,0.8,0.7,1.6,1.1,2.4l0,0h7.1V71c0,0,0,0,0,0c-1,0-1.9,0-2.9,0v0.6
		c0.2-0.1,0.4-0.2,0.6-0.2c0.4,0,0.8,0.1,1.1,0.2c0.3,0.2,0.5,0.4,0.7,0.7c0.2,0.4,0.2,0.8,0.1,1.2c-0.2,0.5-0.5,0.9-1,1.2
		c-0.1,0.1-0.2,0.1-0.3,0.2l-0.6-0.8c0.3-0.1,0.5-0.4,0.7-0.6c0.1-0.2,0.2-0.5,0.1-0.7c-0.1-0.2-0.2-0.3-0.4-0.4
		c-0.2-0.1-0.5-0.1-0.7,0.1c-0.1,0.1-0.2,0.2-0.3,0.3L125.9,75.2L125.9,75.2z M119.3,73.6c0.2,0,0.4,0,0.5-0.1
		c-0.3-0.3-0.7-0.6-1-0.9l0,0l0,0c0,0.1-0.1,0.1-0.1,0.2c0,0.1,0,0.2,0,0.3C118.8,73.4,119,73.6,119.3,73.6z"/>
	<path class="st0" d="M92.6,75.2h-1.1V71h-1.1v4.1h0c-0.4,0-0.7,0-1.1,0v-2.4h-1.2c-0.1,0-0.2,0-0.2,0.1c0,0,0,0.1,0,0.1
		c0,0.2,0,0.3,0,0.5c0,0.2-0.1,0.3-0.3,0.4c-0.1,0-0.3,0-0.4-0.1c-0.1-0.1-0.2-0.2-0.3-0.3c-0.2-0.2-0.4-0.5-0.6-0.8
		c-0.1-0.2-0.1-0.4-0.1-0.5c0.1-0.1,0.2-0.2,0.3-0.2c0,0,0.1,0,0.1,0c0.9,0,1.8,0,2.7,0v-0.9h-6v0.8c0.1-0.1,0.3-0.2,0.5-0.3
		c0.4-0.1,0.8-0.1,1.1,0.1c0.3,0.1,0.5,0.3,0.7,0.5c0.4,0.5,0.3,1.1,0.1,1.6c-0.1,0.2-0.2,0.4-0.3,0.6c-0.1,0.2-0.2,0.4-0.4,0.6
		l-0.9-0.6c0.2-0.3,0.4-0.6,0.5-0.9c0.1-0.2,0.1-0.4,0.1-0.6c-0.1-0.3-0.3-0.4-0.5-0.4c-0.2,0-0.4,0.1-0.5,0.2
		c-0.1,0.1-0.3,0.2-0.4,0.3v2.2h-1.1v-1.5C82,73.9,81.8,74,81.5,74c-0.4,0-0.8-0.1-1.1-0.3c-0.3-0.2-0.4-0.4-0.5-0.7
		c-0.1-0.2-0.1-0.3-0.1-0.5V71H79v4.1h-1.1V71h-0.6v-0.8h0.5c-0.1-0.2-0.1-0.4-0.1-0.7c0.1-0.5,0.4-0.9,0.9-1.2
		c0.5-0.3,1.1-0.4,1.7-0.3c0.4,0.1,0.8,0.3,1.2,0.5c0.5,0.4,0.9,1,1.2,1.5h-1c-0.2-0.3-0.4-0.5-0.6-0.8c-0.1-0.1-0.3-0.3-0.5-0.3
		c-0.3-0.2-0.7-0.2-1-0.2c-0.3,0.1-0.5,0.2-0.7,0.4c-0.2,0.3-0.1,0.6,0,0.9h12.7l-2.1-1.9c0,0,0,0,0,0c0.3-0.2,0.5-0.4,0.8-0.6
		l2.3,2.5h0.6V71h-0.6L92.6,75.2L92.6,75.2z M81.4,73.1c0.1,0,0.2,0,0.3-0.1c0.2-0.1,0.4-0.3,0.5-0.6V71H81c0,0.5,0,1,0,1.5
		c0,0.1,0,0.1,0,0.2C81.1,72.9,81.2,73,81.4,73.1L81.4,73.1z"/>
	<g>
		<path class="st1" d="M10.6,61.4c-0.1-0.4-0.3-0.9-0.5-1.3c-0.1-0.5-0.6-0.7-1.1-0.6c-0.1,0-0.2,0.1-0.3,0.1s-0.1,0.1-0.2,0.2
			c0,0.1-0.1,0.1-0.1,0.2l0,0c0-0.1,0.1-0.1,0.1-0.2c0.2-0.4,0.5-0.8,0.9-1c0.1-0.1,0.2-0.1,0.3-0.1c0.1,0,0.3-0.1,0.4-0.1
			c0.1,0,0.2,0,0.3,0c0.4,0,0.7,0.1,1.1,0.2c0.3,0.2,0.6,0.4,0.8,0.7c0.1,0.2,0.2,0.4,0.3,0.6c0.4,1,0.7,2.1,1.1,3.1
			c0,0.1,0.1,0.1,0.1,0.2c1.1,0,2.2,0,3.2,0.1c0.1,0,0.1,0,0.2,0c0,0,0,0,0,0l0,0c0,0.1-0.1,0.1-0.1,0.2s-0.1,0.1-0.1,0.2
			c0,0,0,0.1,0,0.1c0,0-0.1,0.1-0.1,0.1c0,0.1-0.1,0.1-0.1,0.2c0,0,0,0.1,0,0.1c0,0-0.1,0.1-0.1,0.1c-0.3,0.5-0.6,1-0.9,1.5
			c0.1,0,0.2,0,0.3,0c0,0,0,0,0,0c-0.9,0-1.8,0-2.7-0.1c-0.4,0-0.8-0.2-1.1-0.4c-0.4-0.3-0.7-0.7-0.8-1.1
			C11.3,63.3,11,62.4,10.6,61.4C10.6,61.5,10.6,61.5,10.6,61.4z"/>
		<path class="st1" d="M2.8,67.7C2.8,67.7,2.8,67.7,2.8,67.7C2.8,67.7,2.8,67.7,2.8,67.7c0.1,0,0.1-0.1,0.2-0.1l0,0h0
			c0,0,0.1-0.1,0.1-0.1l0,0c0,0,0,0,0,0C3.6,67.4,4,67.2,4.4,67c0,0,0,0,0,0h0c0,0,0.1-0.1,0.1-0.1c0,0,0,0,0,0h0
			c0.1-0.1,0.2-0.1,0.4-0.2c0,0,0,0,0,0l0,0h0c0,0,0.1-0.1,0.1-0.1c0,0,0,0,0,0h0c0,0,0.1,0,0.1,0c0,0,0,0,0,0L7,67.7
			c0.2,0.2,0.4,0.4,0.6,0.6c0.2,0.3,0.3,0.7,0.4,1.1c0,0.3,0,0.5-0.1,0.8c-0.3,1-0.6,1.9-0.9,2.9l0,0c-0.1,0.5-0.3,0.9-0.4,1.4
			c-0.1,0.3,0,0.6,0.2,0.9c0.1,0.2,0.3,0.3,0.6,0.3c0.1,0,0.3,0,0.4-0.1h0c-0.1,0.1-0.2,0.1-0.3,0.1c-0.5,0.2-1.1,0.3-1.6,0.1
			c-0.4-0.1-0.7-0.4-1-0.7c-0.3-0.3-0.4-0.6-0.5-1c0-0.1,0-0.2,0-0.3c0-0.2,0-0.5,0.1-0.7c0-0.1,0-0.2,0.1-0.3
			c0.3-1.1,0.7-2.2,1-3.3l-0.1,0L2.8,67.7z"/>
		<path class="st1" d="M8.4,60.2C8.5,60.2,8.5,60.2,8.4,60.2l0.2,0.3v0c0.2,0.2,0.4,0.4,0.6,0.6v0l0.2,0.2v0l0.2,0.2v0
			c0.2,0.2,0.4,0.4,0.6,0.6v0l0.1,0.1c0,0,0,0,0-0.1c0,0,0,0,0,0c-0.3,0.7-0.5,1.4-0.7,2.1c0,0.1-0.1,0.2-0.1,0.3
			c-0.1,0.3-0.3,0.5-0.5,0.7c-0.3,0.3-0.6,0.4-1,0.5c-0.1,0-0.2,0-0.3,0.1c-0.9,0-1.9,0-2.8,0.1l-0.4,0c0,0,0,0,0,0c0,0,0,0-0.1,0
			c-0.5,0-0.9,0-1.4,0c-0.1,0-0.2,0-0.3,0c-0.2,0.1-0.3,0.1-0.4,0.3c-0.2,0.3-0.3,0.6-0.1,0.9c0,0.1,0.1,0.2,0.2,0.3
			c0,0,0.1,0,0.1,0.1v0c-0.1-0.1-0.1-0.1-0.2-0.2c-0.5-0.5-0.8-1.2-0.7-1.9c0.1-0.4,0.3-0.8,0.5-1.2c0.3-0.4,0.8-0.6,1.2-0.7
			c0.1,0,0.2,0,0.3,0c1.2,0,2.4-0.1,3.7-0.1c0-0.1,0-0.1,0.1-0.1C7.7,62.2,8.1,61.2,8.4,60.2z"/>
		<path class="st2" d="M8.4,60.2c0,0,0-0.1,0-0.1c0,0,0,0,0,0l0,0c0-0.1,0.1-0.1,0.1-0.2c0.1-0.1,0.1-0.1,0.2-0.2
			c0.4-0.3,0.9-0.2,1.2,0.2c0.1,0.1,0.1,0.2,0.1,0.3c0.2,0.4,0.3,0.9,0.5,1.3v0c-0.1,0.2-0.2,0.4-0.2,0.7c0,0,0,0,0,0s0,0,0,0.1
			l-0.1-0.1v0c-0.2-0.2-0.4-0.4-0.6-0.6v0l-0.2-0.2v0l-0.2-0.2v0c-0.2-0.2-0.4-0.4-0.6-0.6v0L8.4,60.2C8.5,60.2,8.5,60.2,8.4,60.2z"
			/>
		<path class="st2" d="M2.8,67.7L2.8,67.7c-0.1-0.1-0.2-0.1-0.3-0.2c0,0,0,0,0,0c0,0,0,0,0,0c0,0-0.1,0-0.1-0.1
			c-0.1-0.1-0.1-0.2-0.2-0.3c-0.1-0.3-0.1-0.6,0.1-0.9C2.4,66.1,2.6,66,2.7,66c0.1,0,0.2,0,0.3,0c0.5,0,0.9,0,1.4,0c0,0,0,0,0.1,0
			c0.3,0.2,0.5,0.4,0.8,0.6c0,0,0,0,0,0c0,0-0.1,0-0.1,0h0c0,0,0,0,0,0c-0.1,0-0.1,0-0.1,0.1h0l0,0c0,0,0,0,0,0
			c-0.1,0.1-0.2,0.1-0.4,0.2h0c0,0,0,0,0,0C4.5,67,4.4,67,4.4,67h0c0,0,0,0,0,0c-0.4,0.2-0.8,0.4-1.3,0.6c0,0,0,0,0,0l0,0
			c-0.1,0-0.1,0-0.1,0.1h0l0,0C2.8,67.7,2.8,67.8,2.8,67.7L2.8,67.7C2.8,67.7,2.8,67.7,2.8,67.7z"/>
		<path class="st1" d="M13.7,75.6C13.7,75.6,13.7,75.6,13.7,75.6c0.1,0,0.2,0.1,0.3,0.1c0.1,0,0.3,0,0.4-0.1
			c0.3-0.1,0.6-0.5,0.6-0.8c0-0.1,0-0.2,0-0.2c-0.1-0.5-0.3-0.9-0.4-1.4v0c-0.3-1-0.6-1.9-0.9-2.9c0-0.1,0-0.1-0.1-0.2
			c-0.1-0.4-0.1-0.8,0.1-1.1c0.1-0.4,0.4-0.8,0.8-1.1c0.8-0.6,1.6-1.2,2.4-1.8c-0.1,0-0.1,0-0.2,0c0.1,0,0.1,0,0.2,0c0,0,0,0,0,0
			s0,0,0,0c0.4-0.3,0.8-0.6,1.1-0.9c0.4-0.3,0.5-0.8,0.2-1.2c-0.1-0.1-0.1-0.2-0.2-0.2c-0.1-0.1-0.2-0.1-0.3-0.1l0,0
			c0,0-0.1,0-0.1,0h0h0c0,0,0.1,0,0.1,0c0.1,0,0.2,0,0.3,0.1c0.3,0.1,0.6,0.2,0.8,0.4c0.4,0.3,0.6,0.6,0.8,1.1
			c0.3,0.7,0.1,1.5-0.3,2.2c-0.1,0.2-0.3,0.3-0.4,0.4c-0.9,0.7-1.9,1.4-2.8,2.1c0.4,1.1,0.7,2.3,1,3.4c0,0.1,0.1,0.3,0.1,0.4
			c0,0.3,0,0.6-0.1,0.9c-0.2,0.5-0.5,0.9-1,1.1c-0.1,0.1-0.2,0.1-0.4,0.2c-0.1,0.1-0.3,0.1-0.4,0.1c-0.1,0-0.2,0-0.3,0
			c-0.1,0-0.2,0-0.3,0c-0.2,0-0.4-0.1-0.6-0.1C13.9,75.7,13.8,75.7,13.7,75.6z"/>
		<path class="st2" d="M16.5,65.9h-0.2h-0.1v0c-0.1,0-0.2,0-0.3,0c0.3-0.5,0.6-1,0.9-1.5c0,0,0.1-0.1,0.1-0.1c0,0,0-0.1,0-0.1
			C17,64.1,17,64,17,64c0,0,0.1-0.1,0.1-0.1c0,0,0-0.1,0-0.1c0-0.1,0.1-0.2,0.1-0.2s0.1-0.1,0.1-0.2l0,0c0,0,0,0,0,0
			c0,0,0.1,0,0.1,0h0c0,0,0.1,0,0.1,0l0,0c0.1,0,0.2,0.1,0.3,0.1c0.4,0.3,0.5,0.8,0.3,1.2C18.1,64.9,18,65,17.9,65
			c-0.4,0.3-0.8,0.6-1.1,0.9c0,0,0,0,0,0c0,0,0,0,0,0C16.7,65.9,16.6,65.9,16.5,65.9z"/>
		<path class="st3" d="M7.6,75.6L7.6,75.6c-0.2,0.1-0.3,0.1-0.4,0.1c-0.5-0.1-0.8-0.5-0.8-1c0-0.1,0-0.1,0.1-0.2
			c0.1-0.4,0.3-0.9,0.4-1.4h0c0.8-0.6,1.7-1.1,2.5-1.7c0.5-0.4,1.2-0.5,1.9-0.3c0.3,0.1,0.5,0.2,0.7,0.4c0.8,0.6,1.6,1.1,2.4,1.7h0
			c0.1,0.5,0.3,1,0.4,1.4c0,0.1,0,0.2,0,0.2c0,0.4-0.2,0.7-0.6,0.8c-0.1,0-0.3,0.1-0.4,0.1c-0.1,0-0.2,0-0.3-0.1h0
			c0,0-0.1,0-0.1-0.1c-0.6-0.4-1.1-0.8-1.7-1.2c0,0.6,0,1.3,0,1.9c0,0.6-0.5,1.1-1.2,1.2c-0.3,0-0.5-0.1-0.7-0.2
			c-0.4-0.2-0.6-0.6-0.6-1c0-0.6,0-1.3,0-2C8.8,74.7,8.2,75.1,7.6,75.6L7.6,75.6z"/>
	</g>
	<path class="st0" d="M111.8,75.3C111.8,75.3,111.8,75.3,111.8,75.3c-0.8-1.1-1.6-2.1-2.4-3.2l0.8-0.6c0.1,0.3,0.3,0.5,0.5,0.7
		c0.1,0.1,0.2,0.1,0.3,0c0.1-0.1,0.2-0.2,0.2-0.3c0-0.3,0-0.6,0-1h-2.6v1.5h-1.7c-0.2,0-0.4,0.1-0.6,0.2c-0.2,0.2-0.3,0.5-0.1,0.8
		c0.1,0.3,0.3,0.5,0.6,0.7c0.4,0.2,0.8,0.2,1.2,0c0.2-0.1,0.4-0.2,0.6-0.4l0.8,0.6c-0.2,0.2-0.4,0.3-0.6,0.4
		c-0.3,0.1-0.5,0.2-0.8,0.3c-0.5,0.1-1,0.1-1.5-0.1c-0.5-0.2-1-0.6-1.2-1.1c-0.2-0.3-0.2-0.7-0.1-1.1c0.2-0.6,0.8-1.1,1.5-1.1
		c0.3,0,0.6,0,0.9,0V71h-3.3v4.1h-1.1v-1.8h-1.3c0,0.2,0,0.3,0,0.5c0,0.1-0.1,0.3-0.2,0.3c-0.2,0-0.4-0.1-0.5-0.2
		c-0.2-0.1-0.4-0.3-0.6-0.5c-0.2-0.1-0.4-0.4-0.4-0.6c0-0.1,0.1-0.2,0.2-0.2c0,0,0.1,0,0.1,0h0.4V71h-1.3v4.1h-1.1v-1.5
		c-0.2,0.1-0.4,0.2-0.6,0.3c-0.5,0.1-1,0-1.4-0.3c-0.4-0.2-0.6-0.6-0.6-1c0,0,0-0.1,0-0.1c0-0.5,0-1,0-1.5h-0.4v-0.8h3.1l-2-1.9
		c0,0,0,0,0,0c0.3-0.2,0.5-0.4,0.8-0.6l2.3,2.5h3.8l-2.1-1.9c0,0,0,0,0,0c0.3-0.2,0.5-0.4,0.8-0.6l2.3,2.5h11.1V71h-0.6v4.1h-1.1
		v-2.1h-0.8l-0.4-0.8h1.2V71h-1.3c0,0.4,0,0.8,0,1.1c0,0.4-0.2,0.7-0.5,0.9c-0.1,0.1-0.2,0.1-0.4,0.1c-0.1,0-0.1,0-0.1,0
		c0,0,0,0,0,0l1.4,1.7L111.8,75.3L111.8,75.3z M97.3,73.1c0.1,0,0.1,0,0.2,0c0.3-0.1,0.6-0.2,0.8-0.5V71h-1.5v1.5
		c0,0.1,0.1,0.3,0.1,0.3C97,73,97.1,73.1,97.3,73.1L97.3,73.1z M103.1,72.5L103.1,72.5l0-1.5h-1.3v1.5H103.1z"/>
	<rect class="st4" width="135" height="135"/>
</g>
</svg>
