<svg width="216" height="207" viewBox="0 0 216 207" fill="none" xmlns="http://www.w3.org/2000/svg">
<g clip-path="url(#clip0_5455_7322)">
<path d="M31.809 112.714L22.707 103.612L52.2573 74.0645H70.4558L31.809 112.714ZM70.4585 101.332H52.26L45.4403 108.149L54.5423 117.251" fill="white"/>
<path d="M45.4395 126.347L52.2564 133.164H70.455L54.5387 117.248" fill="#5F5F5F"/>
<path d="M36.3574 117.254L45.4431 108.166L54.5288 117.252L45.4431 126.34L36.3574 117.254Z" fill="#ADADAD"/>
<path d="M45.4473 126.34L54.533 117.254L55.8018 118.523L46.7161 127.608L45.4473 126.34Z" fill="url(#paint0_linear_5455_7322)"/>
<path d="M45.4395 126.346L58.943 121.681L54.5414 117.244" fill="url(#paint1_linear_5455_7322)"/>
</g>
<path d="M90.209 90.7246H105.195V93.5813H93.3392V102.425H104.06V105.282H93.3392V116.435H90.3655V90.7246H90.209Z" fill="white"/>
<path d="M111.771 90.7246H108.758V116.552H111.771V90.7246Z" fill="white"/>
<path d="M123.038 117.138C122.091 117.185 121.145 117.031 120.262 116.687C119.379 116.343 118.578 115.817 117.912 115.142C116.691 113.601 116.079 111.665 116.191 109.702V98.1582H119.204V109.272C119.116 110.669 119.517 112.052 120.338 113.185C121.136 113.931 122.166 114.381 123.255 114.459C124.345 114.537 125.428 114.24 126.325 113.616C127.13 113.077 127.778 112.334 128.203 111.463C128.656 110.579 128.897 109.601 128.907 108.607V98.1974H131.92V116.629H129.064V113.89C128.468 114.856 127.632 115.651 126.638 116.198C125.621 116.878 124.416 117.22 123.194 117.177" fill="white"/>
<path d="M143.895 116.863C143.158 116.849 142.429 116.703 141.743 116.433C141.171 116.178 140.643 115.834 140.178 115.415C139.714 114.961 139.331 114.432 139.043 113.85C138.739 113.174 138.591 112.438 138.613 111.698V100.858H135.326V98.1577H138.613V92.9922H141.626V98.1577H146.047V100.858H141.626V110.876C141.554 111.672 141.747 112.47 142.173 113.146C142.412 113.439 142.718 113.671 143.066 113.821C143.413 113.971 143.792 114.034 144.169 114.007C144.881 114.041 145.584 113.834 146.164 113.42V116.433L145.03 116.863H143.895Z" fill="white"/>
<path d="M156.885 116.863C156.148 116.849 155.419 116.703 154.733 116.433C154.161 116.178 153.633 115.834 153.168 115.415C152.704 114.961 152.32 114.432 152.033 113.85C151.728 113.174 151.581 112.438 151.603 111.698V100.858H148.629V98.1577H151.877V92.9922H154.889V98.1577H159.311V100.858H154.889V110.876C154.829 111.676 155.036 112.474 155.476 113.146C155.715 113.439 156.021 113.671 156.368 113.821C156.716 113.971 157.094 114.034 157.472 114.007C158.183 114.029 158.882 113.824 159.467 113.42V116.433L158.333 116.863H156.885Z" fill="white"/>
<path d="M170.459 117.138C168.792 117.15 167.154 116.703 165.724 115.846C164.366 114.997 163.238 113.828 162.437 112.442C161.687 110.879 161.299 109.166 161.303 107.433C161.307 105.75 161.695 104.09 162.437 102.58C163.179 101.146 164.268 99.9215 165.607 99.019C166.62 98.3593 167.761 97.9196 168.955 97.7282C170.149 97.5367 171.369 97.5979 172.538 97.9077C173.707 98.2174 174.798 98.7689 175.741 99.5266C176.683 100.284 177.456 101.231 178.01 102.306C178.77 103.81 179.159 105.474 179.145 107.159C179.212 107.481 179.212 107.814 179.145 108.137H164.433C164.494 109.381 164.828 110.597 165.411 111.698C165.953 112.626 166.756 113.375 167.72 113.85C168.609 114.289 169.584 114.53 170.576 114.555C171.69 114.573 172.786 114.279 173.741 113.705C174.696 113.13 175.47 112.3 175.976 111.307L178.558 112.559C177.786 114.019 176.655 115.258 175.271 116.159C173.8 116.834 172.195 117.169 170.576 117.138H170.459ZM175.858 105.398C175.806 104.596 175.564 103.818 175.154 103.128C174.692 102.315 174.049 101.618 173.276 101.093C172.337 100.514 171.247 100.228 170.145 100.271C169.463 100.244 168.782 100.355 168.144 100.597C167.505 100.839 166.922 101.208 166.428 101.68C165.403 102.689 164.707 103.985 164.433 105.398H175.858Z" fill="white"/>
<path d="M182.592 98.1584H185.448V101.133C185.83 100.091 186.582 99.227 187.561 98.7063C188.53 98.0489 189.678 97.7072 190.848 97.7279C191.588 97.7105 192.323 97.8576 193 98.1584V101.446C192.234 101.021 191.372 100.798 190.496 100.798C189.62 100.798 188.758 101.021 187.992 101.446C187.271 102.019 186.65 102.706 186.153 103.48C185.697 104.308 185.455 105.236 185.448 106.181V116.472H182.436L182.592 98.1584Z" fill="white"/>
<defs>
<linearGradient id="paint0_linear_5455_7322" x1="49.9902" y1="121.797" x2="51.2588" y2="123.065" gradientUnits="userSpaceOnUse">
<stop offset="0.2" stop-opacity="0.15"/>
<stop offset="0.85" stop-color="#616161" stop-opacity="0.01"/>
</linearGradient>
<linearGradient id="paint1_linear_5455_7322" x1="45.4403" y1="121.796" x2="58.9424" y2="121.796" gradientUnits="userSpaceOnUse">
<stop offset="0.2" stop-opacity="0.55"/>
<stop offset="0.85" stop-color="#616161" stop-opacity="0.01"/>
</linearGradient>
<clipPath id="clip0_5455_7322">
<rect width="68.8887" height="67.7776" fill="white" transform="translate(23 70)"/>
</clipPath>
</defs>
</svg>
