<svg width="262" height="95" viewBox="0 0 262 95" fill="none" xmlns="http://www.w3.org/2000/svg">
<g clip-path="url(#clip0_2622_1255)">
<path d="M76.7636 43.8477L51.1834 69.4355L76.7636 95.0233H47.529L36.5664 84.0437L21.9258 69.4355L47.529 43.8477H76.7636ZM47.529 -0.0473633L0 47.4526L14.617 62.0843L76.7636 -0.0473633H47.529Z" fill="white"/>
<path d="M36.5701 84.0441L76.7673 43.8481H47.5327L21.9531 69.4359L36.5701 84.0441Z" fill="white"/>
<path d="M76.7636 43.8477L51.1834 69.4355L76.7636 95.0233H47.529L36.5664 84.0437L21.9258 69.4355L47.529 43.8477H76.7636ZM47.529 -0.0473633L0 47.4526L14.617 62.0843L76.7636 -0.0473633H47.529Z" fill="white"/>
<path d="M0 47.4997L47.529 -0.0473633H76.7636L14.6642 62.1315L0 47.4997Z" fill="white"/>
<path d="M76.7636 43.8477L51.1834 69.4355L76.7636 95.0233H47.529L36.5664 84.0437L21.9258 69.4355L47.529 43.8477H76.7636ZM47.529 -0.0473633L0 47.4526L14.617 62.0843L76.7636 -0.0473633H47.529Z" fill="white"/>
<path d="M47.5329 94.9999H76.7675L51.1873 69.4355L36.5703 84.0437L47.5329 94.9999Z" fill="white"/>
<path d="M76.7636 43.8477L51.1834 69.4355L76.7636 95.0233H47.529L36.5664 84.0437L21.9258 69.4355L47.529 43.8477H76.7636ZM47.529 -0.0473633L0 47.4526L14.617 62.0843L76.7636 -0.0473633H47.529Z" fill="white"/>
<path d="M51.1873 69.4355L36.5703 84.0437L58.2601 76.5276L51.1873 69.4355Z" fill="white"/>
<path d="M76.7636 43.8477L51.1834 69.4355L76.7636 95.0233H47.529L36.5664 84.0437L21.9258 69.4355L47.529 43.8477H76.7636ZM47.529 -0.0473633L0 47.4526L14.617 62.0843L76.7636 -0.0473633H47.529Z" fill="white"/>
<path d="M21.9531 69.4122L36.5701 54.8042L51.1871 69.4122L36.5701 84.044L21.9531 69.4122Z" fill="white"/>
<path d="M76.7636 43.8477L51.1834 69.4355L76.7636 95.0233H47.529L36.5664 84.0437L21.9258 69.4355L47.529 43.8477H76.7636ZM47.529 -0.0473633L0 47.4526L14.617 62.0843L76.7636 -0.0473633H47.529Z" fill="white"/>
<path d="M86.0312 25.4702H111.658V30.3475H91.4066V45.4739H109.702V50.3512H91.4066V69.3888H86.2672V25.4702H86.0312Z" fill="white"/>
<path d="M117.766 25.4702H122.881V69.6245H117.766V25.4702Z" fill="white"/>
<path d="M142.161 70.6375C140.539 70.7156 138.919 70.4542 137.405 69.8699C135.89 69.2857 134.515 68.3914 133.367 67.2446C131.295 64.6084 130.256 61.3081 130.443 57.9614V38.2168H135.583V57.2309C135.452 59.5864 136.135 61.9153 137.516 63.8281C138.249 64.5679 139.129 65.1453 140.1 65.5228C141.071 65.9003 142.11 66.0695 143.151 66.0193C144.842 66.0783 146.504 65.5635 147.866 64.5585C149.23 63.6325 150.328 62.3652 151.049 60.883C151.826 59.3727 152.246 57.7039 152.275 56.0057V38.2168H157.391V69.6715H152.51V64.9592H152.275C151.262 66.6067 149.83 67.9562 148.125 68.8703C146.383 70.0938 144.289 70.7144 142.161 70.6375Z" fill="white"/>
<path d="M177.812 70.1192C176.552 70.1048 175.305 69.857 174.134 69.3887C173.159 68.9501 172.254 68.3706 171.447 67.6688C170.66 66.8851 170.007 65.9776 169.514 64.9827C168.986 63.8396 168.736 62.5885 168.783 61.3307V42.7878H163.195V38.0755H168.83V29.2871H173.946V38.0755H181.514V42.7878H173.946V59.8699C173.829 61.2444 174.168 62.6193 174.913 63.7812C175.328 64.2751 175.854 64.6644 176.448 64.9181C177.041 65.1719 177.686 65.2828 178.331 65.242C179.548 65.2933 180.749 64.9457 181.75 64.2523V69.3887C181.019 69.6243 180.547 69.8601 179.793 70.1192H177.812Z" fill="white"/>
<path d="M200.021 70.1192C198.76 70.1048 197.513 69.857 196.343 69.3887C195.372 68.9556 194.473 68.3755 193.678 67.6688C192.884 66.886 192.223 65.9787 191.722 64.9827C191.195 63.8396 190.944 62.5885 190.991 61.3307V42.7878H185.852V38.0755H191.486V29.2871H196.625V38.0755H204.193V42.7878H196.625V59.8699C196.508 61.2444 196.848 62.6193 197.592 63.7812C198.008 64.2751 198.534 64.6644 199.127 64.9181C199.721 65.1719 200.366 65.2828 201.011 65.242C202.228 65.2933 203.428 64.9457 204.429 64.2523V69.3887C203.698 69.6243 203.203 69.8601 202.472 70.1192H200.021Z" fill="white"/>
<path d="M223.193 70.6374C220.362 70.6632 217.58 69.9047 215.154 68.4462C212.814 67.0034 210.875 64.9936 209.519 62.603C208.234 59.9438 207.573 57.0266 207.586 54.0736C207.595 51.1985 208.255 48.363 209.519 45.78C210.764 43.3232 212.614 41.2231 214.894 39.6776C217.3 38.1524 220.111 37.3887 222.958 37.4864C225.804 37.3989 228.611 38.1618 231.021 39.6776C233.205 41.0459 234.974 42.985 236.136 45.2852C237.445 47.8528 238.116 50.6975 238.093 53.5789C238.156 54.1573 238.066 54.7419 237.834 55.2753H212.702C212.819 57.4113 213.406 59.4952 214.423 61.3778C215.326 62.9554 216.681 64.2271 218.313 65.0298C219.836 65.7749 221.499 66.1924 223.193 66.255C225.111 66.2793 226.997 65.767 228.639 64.7761C230.28 63.7851 231.611 62.355 232.482 60.6474L236.867 62.8386C235.535 65.3079 233.606 67.4056 231.257 68.9411C228.734 70.1167 225.975 70.697 223.193 70.6374ZM232.223 50.6573C232.163 49.2723 231.749 47.9255 231.021 46.746C230.227 45.3846 229.14 44.2173 227.838 43.3296C226.234 42.3128 224.36 41.8036 222.462 41.8688C221.301 41.8169 220.142 41.9988 219.052 42.4036C217.963 42.8083 216.966 43.4277 216.12 44.2249C214.378 45.9619 213.188 48.1754 212.702 50.5865L232.223 50.6573Z" fill="white"/>
<path d="M243.938 38.1695H248.818V43.2825H249.077C249.724 41.4866 251.031 40.0041 252.731 39.1356C254.374 37.9888 256.339 37.3945 258.343 37.4391C259.601 37.3923 260.853 37.6425 261.997 38.1695V43.7772C260.653 43.0516 259.137 42.7092 257.612 42.7876C256.144 42.8211 254.712 43.244 253.462 44.0129C252.222 44.9701 251.146 46.1243 250.279 47.4293C249.499 48.8782 249.086 50.4962 249.077 52.1416V69.6949H243.938V38.1695Z" fill="white"/>
</g>
<defs>
<clipPath id="clip0_2622_1255">
<rect width="262" height="95" fill="white"/>
</clipPath>
</defs>
</svg>
