<svg width="231" height="127" viewBox="0 0 231 127" fill="none" xmlns="http://www.w3.org/2000/svg">
<g clip-path="url(#clip0_303_475)">
<path d="M99.8508 67.3664C99.8508 71.3007 99.8508 75.2171 99.8508 79.1514C99.8508 79.6364 99.8508 80.1395 99.6891 80.6066C99.3837 81.5587 98.4675 82.1156 97.2279 82.0976C96.0422 82.0976 95.0542 81.5407 94.8745 80.6245C94.6949 79.6544 94.2817 79.852 93.5092 80.2473C87.7244 83.1755 80.4665 82.6186 75.5621 78.8999C70.1725 74.8218 69.8671 67.7437 74.9153 63.3961C79.0652 59.8032 84.4727 58.6354 89.7904 60.1984C91.2276 60.6116 92.5211 61.2583 93.7247 62.0128C93.9403 62.1386 94.1379 62.4081 94.4613 62.2644C94.7667 62.1386 94.6589 61.8512 94.6589 61.6356C94.6589 59.6415 94.6589 57.6474 94.6589 55.6533C94.6589 55.1682 94.7128 54.6652 94.8386 54.1981C95.1081 53.228 96.0602 52.6172 97.2279 52.6172C98.4316 52.6172 99.4376 53.246 99.7071 54.234C99.8149 54.6472 99.8508 55.0963 99.8508 55.5275C99.8508 59.4798 99.8508 63.4321 99.8508 67.3844V67.3664ZM85.5147 78.0915C90.6886 78.0915 94.641 75.0374 94.6589 70.9953C94.6589 66.7915 90.6707 63.5039 85.5686 63.5219C80.3947 63.5219 76.3705 66.7197 76.3705 70.8157C76.3705 74.9476 80.3228 78.0915 85.5327 78.0915H85.5147Z" fill="#EEEEEE"/>
<path d="M59.2855 72.7399C56.968 72.7399 54.6505 72.7399 52.333 72.7399C50.5186 72.7399 49.4227 71.9494 49.4407 70.7278C49.4407 69.614 50.6623 68.7517 52.3151 68.7337C55.6206 68.7157 58.9083 68.7337 62.2138 68.7337C63.6151 68.7337 63.687 68.6259 63.0582 67.6019C61.2078 64.6197 56.8962 62.967 52.872 63.7215C48.4885 64.5299 45.7219 67.2785 45.7039 70.7997C45.7039 73.8717 47.3747 76.1712 50.8779 77.4467C54.3451 78.7042 57.7226 78.4168 60.7587 76.4586C61.4593 76.0095 62.1599 75.4885 63.148 75.5604C64.1541 75.6322 64.9625 75.9915 65.3218 76.782C65.699 77.5725 65.5374 78.2911 64.8188 78.9558C62.5192 81.0577 59.537 81.9379 56.1596 82.0996C52.0456 82.3152 48.3268 81.4888 45.2009 79.2612C42.578 77.3928 41.0869 75.0214 40.7096 72.2548C40.2785 69.1469 41.2306 66.2905 43.7098 63.8113C47.8238 59.7153 56.9321 57.2721 64.2079 62.428C67.1902 64.5479 68.825 67.2067 69.0046 70.4044C69.0944 72.0213 68.1423 72.7579 66.1482 72.7579C63.8666 72.7579 61.585 72.7579 59.3035 72.7579L59.2855 72.7399Z" fill="#EEEEEE"/>
<path d="M155.652 79.2276C153.389 80.6648 151.107 81.7247 148.341 82.0121C139.987 82.8565 132.963 77.9161 132.46 71.7362C131.957 65.5742 137.13 60.58 144.424 59.5919C152.311 58.514 160.305 63.5262 160.862 69.8678C161.15 73.1913 160.934 76.4969 161.006 79.8204C161.006 80.1617 160.916 80.521 160.79 80.8444C160.449 81.6708 159.443 82.2457 158.383 82.2097C157.287 82.1558 156.425 81.7606 156.048 80.8983C155.85 80.4132 155.796 79.8923 155.652 79.2635V79.2276ZM146.652 78.0778C151.772 78.0778 155.778 74.8621 155.796 70.7481C155.796 66.724 151.754 63.5262 146.652 63.5262C141.55 63.5262 137.508 66.7599 137.526 70.8739C137.526 74.9519 141.514 78.0778 146.67 78.0778H146.652Z" fill="#EEEEEE"/>
<path d="M173.328 59.4766C177.209 59.5305 180.658 60.4826 183.425 62.7282C183.784 63.0157 184.107 63.339 184.377 63.6804C185.203 64.7044 185.006 65.6924 183.874 66.3571C182.76 67.0218 181.43 66.932 180.496 65.9978C179.275 64.8121 177.748 64.0397 175.879 63.6983C173.759 63.3031 171.64 63.2851 169.627 64.0756C168.675 64.4528 168.1 65.0098 168.208 65.926C168.316 66.8242 168.963 67.3452 169.987 67.5967C171.909 68.0818 173.921 68.1177 175.879 68.3692C177.819 68.6027 179.742 68.8902 181.484 69.6806C184.502 71.046 185.706 73.2197 185.58 75.8426C185.437 78.5014 183.568 80.3339 180.496 81.268C175.861 82.6693 171.388 82.328 167.202 80.1542C165.747 79.3997 164.705 78.3218 163.968 77.0642C163.34 75.9863 163.753 74.9264 164.974 74.3875C166.106 73.8844 167.382 74.1539 168.208 75.0881C170.633 77.8008 173.634 78.6631 177.73 77.8727C179.616 77.5134 180.568 76.7409 180.604 75.5552C180.658 74.1898 179.76 73.2197 177.945 72.7706C175.825 72.2317 173.58 72.2137 171.406 71.9083C170.148 71.7286 168.909 71.5131 167.723 71.1358C165.028 70.2915 163.573 68.6746 163.214 66.429C162.855 64.1474 163.986 62.351 166.322 61.0575C168.424 59.8898 170.795 59.4586 173.328 59.4945V59.4766Z" fill="#EEEEEE"/>
<path d="M119.992 82.0995C111.926 82.1175 105.674 77.3927 105.602 71.0511C105.548 65.0688 110.83 60.7033 117.692 59.7152C122.453 59.0326 126.495 60.1823 129.783 63.0028C130.717 63.8112 130.735 64.7275 129.981 65.4461C129.262 66.1287 127.879 66.2904 126.801 65.8054C126.513 65.6796 126.262 65.5179 126.01 65.3562C122.723 63.2723 118.537 63.0388 114.944 64.7634C111.674 66.3263 109.967 69.7936 111.009 72.7578C112.123 75.9196 115.537 78.0395 119.489 78.1293C122.094 78.1832 124.34 77.6263 126.262 76.225C127.448 75.3627 128.867 75.3627 129.873 76.1352C130.879 76.9077 130.861 78.0035 129.765 79.0096C127.573 81.0576 124.627 81.8121 121.411 82.1175C120.944 82.1534 120.477 82.1175 119.992 82.1175V82.0995Z" fill="#EEEEEE"/>
<path d="M196.555 56.5248C196.555 57.0996 196.609 57.6745 196.555 58.2494C196.465 59.0578 196.807 59.453 197.885 59.3452C198.388 59.2914 198.909 59.3273 199.412 59.3452C201.029 59.4171 202.035 60.2435 201.999 61.4292C201.963 62.5789 200.939 63.3335 199.358 63.3694C197.501 63.4173 196.573 64.1718 196.573 65.633C196.573 69.0104 196.573 72.3878 196.573 75.7652C196.573 76.1964 196.645 76.6275 196.699 77.0587C196.807 77.7234 197.238 78.0467 198.118 78.1186C199.753 78.2444 200.831 79.2684 200.633 80.3642C200.418 81.5319 199.16 82.1966 197.471 82.0529C193.986 81.7475 191.741 79.8073 191.687 76.9149C191.597 72.8189 191.579 68.7229 191.525 64.6269C191.525 63.3694 191.525 63.3694 189.962 63.3694C189.495 63.3694 189.01 63.3694 188.543 63.3694C187.249 63.2975 186.315 62.543 186.243 61.537C186.153 60.4411 186.944 59.5968 188.273 59.4171C188.974 59.3273 189.728 59.3452 190.447 59.3632C191.255 59.3991 191.525 59.1117 191.525 58.4829C191.489 57.2074 191.489 55.9499 191.525 54.6744C191.561 53.7402 192.082 53.0036 193.286 52.6982C194.363 52.4287 195.28 52.6443 196.016 53.345C196.376 53.6863 196.537 54.0995 196.555 54.5486C196.555 55.2133 196.555 55.878 196.555 56.5427V56.5248Z" fill="#EEEEEE"/>
<path d="M32.4269 55.0422C31.4029 55.0422 30.6843 54.647 30.2531 53.9643C29.7501 53.1738 30.0375 52.4193 30.7561 51.8085C31.8879 50.8204 33.2174 50.03 34.5468 49.2395C39.7926 46.1136 45.757 44.4968 52.2244 44.0117C53.5898 43.9039 54.8114 44.5507 55.027 45.5028C55.2785 46.6166 54.506 47.5688 53.0328 47.7664C50.6794 48.0538 48.308 48.2514 46.0085 48.8263C41.5352 49.9401 37.7086 51.9163 34.2593 54.3955C33.4868 54.9524 33.1635 55.0602 32.4449 55.0602L32.4269 55.0422Z" fill="#EEEEEE"/>
<path d="M52.491 51.0469C53.9462 51.0469 54.8444 51.6218 55.0241 52.6458C55.2037 53.7236 54.521 54.5141 53.0299 54.7297C50.928 55.0351 48.8261 55.3225 46.8499 56.0232C44.6762 56.7777 42.6821 57.7478 40.9394 59.0592C40.131 59.67 39.2328 60.1731 38.0291 59.9216C36.2865 59.5443 35.6397 57.8376 36.9512 56.8136C41.2089 53.4901 46.311 51.5319 52.2754 51.0648C52.3473 51.0648 52.4191 51.0648 52.491 51.0648V51.0469Z" fill="#EEEEEE"/>
</g>
<defs>
<clipPath id="clip0_303_475">
<rect width="231" height="127" fill="white"/>
</clipPath>
</defs>
</svg>
