<svg width="231" height="127" viewBox="0 0 231 127" fill="none" xmlns="http://www.w3.org/2000/svg">
<g clip-path="url(#clip0_407_165)">
<path d="M20 58.1127C26.2557 51.866 32.3142 45.812 38.1262 40C44.0502 45.9241 50.1401 52.0139 56.4675 58.3368C56.1986 58.6101 55.5533 59.2644 54.675 60.1472C49.338 54.7877 44.216 49.6479 38.8476 44.2571C38.3458 46.5156 38.4309 48.0616 39.941 49.509C43.6604 53.0715 47.2498 56.7639 50.8884 60.4071C51.462 60.9807 52.0132 61.5811 52.7257 62.325C51.9774 63.1316 51.3007 63.862 50.3642 64.8703C46.5149 60.9672 42.8224 57.2165 38.8925 53.2328C38.2965 55.4285 38.4399 56.9476 39.9545 58.3682C42.9389 61.1644 45.7979 64.0995 48.8002 67.066C48.0922 68.1236 47.5321 68.9616 46.7882 70.0774C44.0458 67.3663 41.4736 64.8165 38.7804 62.1547C38.3144 64.0502 38.4354 65.5962 39.9679 66.9988C41.7738 68.6524 43.396 70.5031 45.2153 72.3896C44.7 73.3172 44.2519 74.1283 43.6469 75.2217C42.0203 73.7116 40.5684 72.3672 39.0448 70.9557C37.1762 74.6033 40.6939 75.8939 42.0561 78.1927C41.6708 79.0486 41.2854 79.909 40.8104 80.9576C39.9769 80.4646 39.3092 80.0703 38.059 79.3309C38.3861 81.334 38.646 82.8979 38.9014 84.4573C39.0807 84.4484 39.2599 84.4349 39.4392 84.4259C39.1389 85.3267 38.8387 86.2274 38.5384 87.1281C34.2276 76.1627 28.3035 66.367 20 58.1127Z" fill="#EEEEEE"/>
<path d="M158.581 69.1481C157.985 69.2153 157.622 69.3004 157.259 69.287C156.976 69.278 156.699 69.1481 156.282 69.0315C155.48 66.9209 154.664 64.7879 153.638 62.0858C152.598 64.7476 151.751 66.9075 150.869 69.166H148.673C147.306 65.4287 145.935 61.6915 144.479 57.7122H147.23C148.068 60.0245 148.919 62.3681 149.937 65.1823C150.972 62.4353 151.832 60.1544 152.724 57.7839C153.378 57.7436 153.934 57.7122 154.678 57.6719C155.52 60.0514 156.331 62.3547 157.147 64.6535L157.572 64.7521C158.419 62.4622 159.266 60.1723 160.158 57.7615H162.708C161.296 61.6601 159.961 65.3301 158.576 69.1525L158.581 69.1481Z" fill="#EEEEEE"/>
<path d="M120.215 57.745H122.482C122.648 59.1027 122.805 60.4023 122.989 61.9124H127.564C127.734 60.5277 127.896 59.2282 128.084 57.727C128.863 57.6867 129.562 57.6509 130.535 57.6016V69.1539H128.084C127.927 67.6751 127.775 66.2322 127.604 64.6101H122.971C122.818 66.1381 122.679 67.5855 122.523 69.1539H120.219V57.7405L120.215 57.745Z" fill="#EEEEEE"/>
<path d="M77.707 57.5685C79.5129 57.5685 81.0634 57.555 82.6139 57.5685C84.3212 57.5864 85.8941 57.8866 86.6872 59.6881C87.44 61.3998 86.7679 62.7128 85.5132 63.8197C86.154 65.5314 86.7724 67.1715 87.5207 69.1656C86.4542 69.2149 85.7014 69.2553 85.1323 69.2822C83.3084 67.8348 84.2629 64.0034 80.4271 64.5814C80.2971 66.1319 80.1761 67.5748 80.0417 69.1656C79.2306 69.206 78.5943 69.2418 77.707 69.2866V57.5685ZM84.1823 61.6553C84.1912 61.355 84.1957 61.0503 84.2047 60.7501C83.295 59.352 81.982 59.3699 80.324 59.9211C80.3554 60.5664 80.3867 61.1803 80.436 62.2064C81.8431 62.0003 83.0127 61.8255 84.1823 61.6553Z" fill="#EEEEEE"/>
<path d="M116.467 59.0609C116.266 59.5269 116.051 60.0244 115.831 60.5307C113.693 60.0647 111.601 58.9713 109.871 60.9609C108.93 62.0453 108.952 64.7609 109.853 65.8409C110.978 67.1986 112.407 67.5258 114.195 66.7147C114.222 66.0963 114.249 65.4555 114.28 64.7744C113.568 64.4472 112.972 64.1739 112.403 63.914C112.461 62.0274 113.259 61.7541 116.772 62.4845V68.1128C114.164 69.959 109.772 69.6767 107.778 67.5078C105.838 65.3972 105.834 61.6152 107.769 59.4911C109.781 57.2819 113.64 57.0399 116.472 59.0609H116.467Z" fill="#EEEEEE"/>
<path d="M92.8702 66.905C94.7388 67.017 96.2714 67.1111 97.9697 67.2186C98.0504 67.8684 98.1176 68.3972 98.2117 69.1455H90.2891V57.75H98.0101C98.0638 58.3281 98.1131 58.8613 98.1803 59.6007C96.4013 59.7441 94.806 59.8741 93.0494 60.0175C93.0181 60.6717 92.9912 61.2094 92.9598 61.9488C94.582 62.0698 96.0428 62.1818 97.7591 62.3118C97.8353 62.9167 97.9115 63.4903 98.0145 64.27C96.2131 64.3686 94.6895 64.4538 93.0001 64.5479C92.9598 65.3366 92.924 65.9639 92.8747 66.9094L92.8702 66.905Z" fill="#EEEEEE"/>
<path d="M167.769 57.7031H170.144C171.878 61.409 173.603 65.088 175.485 69.1166C174.41 69.2017 173.724 69.2555 173.029 69.3093C172.528 68.4847 172.111 67.7946 171.573 66.9163H166.509C166.066 67.6064 165.586 68.3413 165.048 69.1748H162.463C164.3 65.2045 165.998 61.53 167.764 57.7031H167.769ZM170.771 64.5413C170.09 63.2194 169.624 62.3142 168.902 60.9071C168.284 62.4128 167.89 63.3673 167.406 64.5413H170.771Z" fill="#EEEEEE"/>
<path d="M201.865 57.6953H204.218C205.975 61.4415 207.731 65.1833 209.609 69.1805H207.046C206.624 68.4814 206.203 67.7868 205.674 66.913H200.584C200.149 67.5807 199.67 68.3156 199.11 69.176H196.551C198.41 65.1609 200.136 61.4326 201.865 57.6953ZM203.362 61.3295C203.187 61.3026 203.013 61.2713 202.838 61.2444C202.417 62.2705 201.995 63.2967 201.435 64.6545C202.73 64.5873 203.613 64.5425 204.76 64.4842C204.187 63.1847 203.774 62.2571 203.362 61.325V61.3295Z" fill="#EEEEEE"/>
<path d="M74.8152 64.2845C72.969 64.3741 71.5036 64.4503 69.8367 64.531C69.6978 66.077 69.5723 67.5199 69.4289 69.1241H67.0449V57.7734H74.9452V59.6555C73.1886 59.772 71.5933 59.8796 69.8501 59.9961V61.9812C71.4185 62.0843 72.8749 62.1829 74.506 62.2904C74.6001 62.8954 74.6808 63.4241 74.8152 64.2845Z" fill="#EEEEEE"/>
<path d="M139.416 69.1803H136.356V60.1867C135.061 59.9895 134.124 59.8506 132.946 59.6714C132.905 59.0933 132.865 58.5018 132.807 57.7266H142.732V59.6534C141.666 59.8148 140.729 59.9582 139.416 60.1553V69.1803Z" fill="#EEEEEE"/>
<path d="M177.547 69.1544V57.7812H180.132V66.6629C182.041 67.1513 183.982 66.9138 184.744 69.1588H177.547V69.1544Z" fill="#EEEEEE"/>
<path d="M194.911 69.1944H187.902V57.8078C188.552 57.7451 189.238 57.6779 190.331 57.5703V66.2682C192.227 67.0882 193.705 67.7246 195.18 68.3609C195.09 68.6387 195 68.9165 194.911 69.1944Z" fill="#EEEEEE"/>
<path d="M103.369 69.1662H101.025V57.82C101.738 57.7573 102.424 57.6945 103.369 57.6094V69.1662Z" fill="#EEEEEE"/>
</g>
<defs>
<clipPath id="clip0_407_165">
<rect width="231" height="127" fill="white"/>
</clipPath>
</defs>
</svg>
