<svg width="231" height="127" viewBox="0 0 231 127" fill="none" xmlns="http://www.w3.org/2000/svg">
<g clip-path="url(#clip0_453_511)">
<path d="M39.8729 51.7885C39.8701 50.0061 38.72 50.0004 37.1289 49.3359V50.6403C38.1296 51.0025 38.7697 51.5803 38.7697 52.2847C38.7835 60.147 38.7752 68.0093 38.7863 75.8716C38.7863 76.4563 38.6117 77.1036 39.094 77.5998C41.6386 77.6255 42.351 76.9411 42.351 74.4857C42.351 67.5644 42.3454 60.6432 42.362 53.722C42.3648 53.1516 42.1431 52.4786 42.836 52.0309C43.906 52.2704 43.7508 53.1602 43.7508 53.9244C43.7618 60.6575 43.7535 67.3905 43.7646 74.1235C43.7674 74.7167 43.6094 75.3526 44.0363 75.8774C46.3452 76.0171 47.0742 75.3498 47.0742 73.1054C47.077 67.4076 47.0715 61.7126 47.0798 56.0148C47.0826 55.2334 46.9883 54.4149 47.5898 53.7448C48.7706 53.8132 48.7318 54.663 48.7318 55.4701C48.7346 61.1223 48.7291 66.7717 48.7429 72.421C48.7429 73.0085 48.5738 73.6501 49.0118 74.1691C51.5481 74.1036 52.0498 73.6102 52.0498 71.2005C52.0525 67.1994 52.0442 63.1955 52.0609 59.1945C52.0664 57.6545 51.8557 56.0918 52.5459 54.6431C52.0415 54.0556 51.5453 53.7676 50.686 54.1241C51.4899 55.5157 51.2044 56.9901 51.2154 58.4302C51.2432 62.4769 51.2265 66.5264 51.2238 70.5759C51.2238 71.0008 51.2404 71.4314 51.1766 71.845C51.0713 72.518 50.7581 72.9828 50.0041 72.8345C49.4109 72.2699 49.5745 71.574 49.5745 70.9381C49.5606 65.5711 49.5717 60.204 49.5606 54.837C49.5579 54.2438 49.7436 53.4995 49.1282 53.1545C48.3105 52.6953 47.4346 52.2619 46.4589 52.3788C46.1457 52.9891 46.2565 53.5651 46.2565 54.1184C46.251 60.1887 46.251 66.262 46.251 72.3352V72.3383C46.251 72.7604 46.2621 73.1881 46.2205 73.6073C46.154 74.2633 45.8352 74.6311 45.17 74.5142C44.7514 74.0807 44.8567 73.5874 44.8512 73.1311C44.8373 71.9562 44.8456 70.7784 44.8456 69.6006C44.8456 64.091 44.8484 58.5842 44.8429 53.0746C44.8429 52.4273 44.9565 51.6858 44.1749 51.3835C43.3267 51.0556 42.4895 50.6535 41.5887 50.5964C41.1175 51.2124 41.2893 51.8455 41.2893 52.4358C41.2782 59.6394 41.281 66.8429 41.281 74.0465C41.281 74.4686 41.2921 74.8963 41.2477 75.3156C41.1812 75.9772 40.8486 76.3308 40.1307 76.191C39.7592 75.6121 39.8784 74.9847 39.8784 74.3887C39.8729 66.8544 39.8729 59.3228 39.8729 51.7885Z" fill="#F8F8F8"/>
<path d="M37.3725 76.7172C37.3837 68.6475 37.3753 60.5805 37.3894 52.5108V49.2919L37.1057 49.2891L37.1001 49.2919H35.9793C35.9653 49.9407 35.9372 50.5895 35.9372 51.2384C35.9344 59.2632 35.94 67.2852 35.9232 75.3072C35.9203 75.8633 36.1535 76.515 35.5187 77.0093C34.6423 76.6133 34.8951 75.8353 34.8951 75.2033C34.8783 67.4116 34.8895 59.6227 34.8755 51.831C34.8755 51.2131 35.0861 50.5137 34.4794 50.0587C34.0974 49.921 33.7828 50.039 33.4767 50.1429C30.4993 51.1513 30.915 50.7777 30.9066 53.5444C30.8926 60.221 30.9066 66.9004 30.8926 73.577C30.8897 74.1443 31.0807 74.7791 30.5639 75.3128C29.6173 75.0572 29.8617 74.3016 29.8617 73.723C29.8449 66.9987 29.8561 60.2744 29.8392 53.55C29.8392 52.9349 30.0527 52.2411 29.4825 51.7384C26.522 51.8648 25.8732 52.4911 25.8732 55.2016C25.8732 60.8137 25.8788 66.4229 25.8619 72.0349C25.8591 72.5405 26.067 73.1388 25.5137 73.5601C24.8143 73.1163 25.0305 72.4534 25.0305 71.8917C25.0137 66.3723 25.0277 60.8558 25.0137 55.3365C25.0137 54.6623 25.171 53.9264 24.5643 53.3928C21.4072 53.6427 20.851 54.2045 20.851 57.1229C20.851 61.4822 20.8538 65.8415 20.851 70.2008C20.851 70.8018 20.8622 71.4001 20.7302 71.9984C20.4044 73.4758 20.8398 73.8915 22.6346 73.7539C22.8144 72.9028 22.4689 72.0518 22.4801 71.1923C22.5279 67.9481 22.4998 64.7011 22.4998 61.4541C22.4998 59.7379 22.4914 58.0217 22.511 56.3055C22.5166 55.8477 22.424 55.2634 23.1683 55.2044C23.4969 55.7269 23.3705 56.2493 23.3705 56.7465C23.3818 59.4373 23.3761 62.1254 23.3761 64.8162C23.379 67.5071 23.3733 70.1951 23.3846 72.886C23.3874 73.4815 23.3115 74.1921 23.9548 74.4982C24.9041 74.9505 25.8844 75.3999 26.9995 75.3634C27.4546 74.7988 27.3225 74.1752 27.3225 73.5938C27.3282 67.6138 27.3282 61.631 27.3282 55.6482C27.3282 55.1848 27.3225 54.7213 27.3506 54.2579C27.3843 53.7186 27.6118 53.3871 28.2775 53.5557C28.4629 54.109 28.3955 54.668 28.3955 55.2157C28.3983 61.6142 28.3955 68.0155 28.4039 74.414C28.4067 75.001 28.2073 75.7482 28.8168 76.0852C29.814 76.6358 30.8926 77.0543 32.002 77.0627C32.4936 76.3886 32.3531 75.7678 32.3531 75.178C32.3616 68.2683 32.3588 61.3586 32.3588 54.4489C32.3588 53.845 32.3503 53.2411 32.3756 52.64C32.3953 52.1204 32.5666 51.7243 33.266 51.8619C33.5104 52.3282 33.4177 52.845 33.4177 53.3422C33.4205 58.12 33.4205 62.895 33.4205 67.6728C33.4205 70.549 33.4149 73.4225 33.4261 76.2987C33.4261 76.8408 33.2772 77.5234 33.8896 77.8014C34.8811 78.2508 35.8782 78.7901 36.9821 78.675C37.5214 78.0233 37.3725 77.3492 37.3725 76.7172Z" fill="#D9D9D9"/>
<path d="M210.997 64.0375C210.907 64.2482 210.792 64.456 210.73 64.6751C210.225 66.4615 209.188 67.3126 207.315 67.3519C205.399 67.3941 203.484 67.3576 201.568 67.38C200.981 67.3885 200.228 67.2845 200.195 68.1665C200.166 68.9136 200.518 69.54 201.304 69.7479C201.748 69.8658 202.225 69.8883 202.689 69.8911C204.557 69.908 206.427 69.8911 208.298 69.9024C208.806 69.9024 209.329 69.8265 209.868 70.1102C210.326 70.7956 210.183 71.5539 210.009 72.2758C209.559 72.7505 209.02 72.6494 208.517 72.6522C206.273 72.6634 204.031 72.6747 201.787 72.6522C198.872 72.6185 197.546 71.2646 197.535 68.3463C197.529 66.8155 197.526 65.2875 197.535 63.7566C197.554 60.9731 198.936 59.6164 201.779 59.5912C203.369 59.5771 204.956 59.5968 206.545 59.5884C209.287 59.5743 210.469 60.5883 210.803 62.8354C210.823 62.9646 210.93 63.0825 210.994 63.2033V64.0375H210.997ZM200.313 65.1526C202.304 65.1526 204.248 65.1751 206.189 65.1414C207.012 65.1274 207.806 64.9223 207.978 63.942C208.124 63.1022 207.506 62.3972 206.36 62.2146C204.885 61.9815 203.383 61.9702 201.911 62.2146C200.481 62.4534 200.034 63.2567 200.313 65.1526Z" fill="#F8F8F8"/>
<path d="M105.097 75.197C105.684 74.7925 106.26 74.8992 106.811 74.8936C108.912 74.8711 111.016 74.9105 113.117 74.8346C114.586 74.7813 115.027 74.1549 114.841 72.6662C114.442 72.3348 113.956 72.4387 113.499 72.4331C112.19 72.419 110.881 72.4584 109.575 72.4162C106.153 72.3095 104.089 70.4838 103.6 67.1525C103.471 66.2789 103.468 65.3914 103.597 64.5178C104.106 61.0433 106.1 59.3131 109.676 59.2541C110.985 59.2316 112.294 59.2176 113.6 59.2737C116.139 59.3805 117.872 60.7933 118.203 63.2988C118.706 67.0738 118.686 70.8798 118.195 74.6577C117.945 76.5845 116.796 77.6715 114.906 77.9496C111.985 78.3822 109.035 78.2389 106.095 78.2221C105.3 78.2164 104.878 77.8401 104.915 77.0199C104.943 76.4244 104.811 75.8149 105.092 75.197H105.097ZM115.01 69.1917C115.01 67.5457 115.052 66.1188 114.998 64.6948C114.945 63.2482 114.308 62.5741 112.853 62.4758C111.695 62.3971 110.521 62.4 109.364 62.4842C108.049 62.5825 107.235 63.2904 107.075 64.529C106.8 66.6497 106.912 68.3041 108.193 68.9445C108.401 69.0484 108.617 69.1776 108.839 69.1945C110.825 69.3406 112.81 69.3378 115.01 69.1917Z" fill="#D9D9D9"/>
<path d="M87.2007 67.9331C87.0771 68.9977 87.5631 69.4583 88.4731 69.6605C89.5405 69.8965 90.6135 69.7897 91.6836 69.801C93.4054 69.8234 95.1272 69.8066 96.8153 69.8066C97.3799 70.815 97.1917 71.7166 97.0738 72.562C96.6328 73.0789 96.0907 72.9778 95.5907 72.9806C93.397 72.9918 91.2005 73.0087 89.0068 72.9806C85.5407 72.9328 83.906 71.2616 83.8835 67.7899C83.8751 66.4472 83.8554 65.1018 83.8948 63.7592C83.9706 61.1077 85.4593 59.4645 88.1052 59.2988C90.0124 59.1808 91.9476 59.1359 93.8436 59.3156C97.5765 59.6667 98.2731 62.2761 97.526 65.3602C97.3097 66.2478 96.6019 66.8405 95.7283 67.186C94.7593 67.568 93.7565 67.714 92.7145 67.7056C91.0348 67.6944 89.3523 67.7196 87.6726 67.7421C87.5462 67.7421 87.4198 67.8432 87.2035 67.9331H87.2007ZM87.3075 64.8574C89.2708 64.8574 91.164 64.8659 93.0599 64.8518C93.8155 64.8462 94.5009 64.6468 94.4953 63.7227C94.4924 62.7817 93.8408 62.4587 93.0066 62.4475C91.6134 62.4278 90.2174 62.3941 88.827 62.4587C87.5041 62.5177 87.0771 63.1637 87.3103 64.8574H87.3075Z" fill="#D9D9D9"/>
<path d="M71.6361 55.8158C71.74 55.9956 71.7765 56.0321 71.785 56.0742C72.3467 58.9786 72.0771 59.3128 69.1531 59.3128C67.6139 59.3128 66.0718 59.2875 64.5326 59.3241C62.2687 59.3746 61.4878 60.3015 61.7209 62.602C62.1338 63.0177 62.6759 62.8744 63.1703 62.8772C65.364 62.8941 67.5577 62.8828 69.7514 62.8856C71.813 62.8885 72.1024 63.2171 71.872 65.2422C71.8355 65.5681 71.7765 65.8855 71.3075 66.3293H61.7294C61.3895 68.5651 61.7827 70.652 61.471 72.7025C60.3474 73.1519 59.3222 73.0115 58.4037 72.8345C58.0077 72.3317 58.0695 71.9048 58.0695 71.4947C58.0667 68.1606 58.0442 64.8265 58.0835 61.4925C58.1228 58.0994 60.0244 55.9422 63.4203 55.7035C65.9735 55.5237 68.5492 55.6557 71.1165 55.6614C71.2906 55.6614 71.4648 55.7597 71.6417 55.8158H71.6361Z" fill="#D9D9D9"/>
<path d="M119.893 55.7603C120.801 55.5637 121.716 55.5497 122.641 55.7744C123.34 56.7828 122.655 57.9962 123.199 59.0776C124.211 59.3978 125.286 59.218 126.343 59.2292C127.559 59.2433 128.767 59.2658 129.952 59.5888C132.303 60.2292 133.957 61.9791 134.109 64.434C134.269 67.0181 134.151 69.6163 134.143 72.2088C134.143 72.3802 134.03 72.5487 134.002 72.6245C133.716 72.9307 133.432 72.9475 133.154 72.9672C130.924 73.1161 130.747 72.9532 130.744 70.751C130.741 68.8972 130.764 67.0462 130.733 65.1924C130.707 63.6728 130.168 62.9959 128.682 62.6476C126.89 62.2263 125.076 62.4762 123.388 62.4566C122.851 63.0015 122.983 63.538 122.98 64.0295C122.966 66.4844 122.986 68.9394 122.966 71.3943C122.955 72.8296 122.747 72.9925 121.18 72.9784C119.742 72.9644 119.54 72.8015 119.534 71.3943C119.52 66.6249 119.526 61.8527 119.534 57.0833C119.534 56.6732 119.486 56.2435 119.899 55.7603H119.893Z" fill="#D9D9D9"/>
<path d="M173.385 61.8702C173.028 61.1624 173.138 60.5389 173.247 60.0108C173.705 59.5221 174.194 59.5923 174.652 59.5895C176.941 59.5839 179.233 59.5642 181.522 59.5951C184.362 59.6316 185.713 60.9911 185.741 63.828C185.763 66.0076 185.769 68.1873 185.735 70.3669C185.71 72.0438 185.131 72.6224 183.435 72.6449C180.957 72.6758 178.48 72.6982 176.005 72.6252C174.402 72.5775 173.121 71.9174 172.57 70.263C171.966 68.4513 172.337 66.766 173.601 65.6762C174.317 65.0582 175.168 64.8897 176.076 64.8869C177.806 64.8785 179.533 64.8869 181.264 64.8729C181.769 64.8701 182.297 64.9459 182.73 64.606C183.067 63.1117 182.775 62.5584 181.396 62.2719C179.595 61.8955 177.761 62.1792 175.944 62.0921C175.115 62.0528 174.264 62.2438 173.385 61.8759V61.8702ZM182.643 67.0975C180.696 67.0975 178.75 67.0834 176.803 67.1031C175.921 67.1143 175.236 67.4598 175.163 68.4457C175.098 69.2799 175.73 69.8445 176.856 69.8726C178.533 69.9175 180.216 69.8894 181.893 69.8838C182.224 69.8838 182.544 69.8248 182.811 69.4906C183.022 68.8221 183.056 68.1086 182.643 67.0975Z" fill="#F8F8F8"/>
<path d="M159.714 56.184C160.032 57.0772 160.029 57.917 159.751 58.7091C159.231 59.1136 158.7 59.0096 158.198 59.0124C156.563 59.0265 154.928 59.004 153.294 59.0209C150.6 59.0518 149.372 60.0461 148.867 62.678C148.575 64.1947 148.608 65.7115 149.167 67.1946C149.594 68.3293 150.37 69.0287 151.541 69.3405C152.409 69.5708 153.285 69.6129 154.178 69.6129C155.858 69.6129 157.538 69.6382 159.22 69.6607C159.352 69.6607 159.481 69.745 159.655 69.8068C160.102 70.6185 159.967 71.4696 159.788 72.2841C159.67 72.3824 159.605 72.4892 159.529 72.4948C156.692 72.7644 153.83 72.8993 151.027 72.4611C148.176 72.0145 146.344 70.2084 145.875 67.3153C145.505 65.0261 145.367 62.7089 146.075 60.4421C146.915 57.7429 148.886 56.2738 151.619 56.0463C154.077 55.8413 156.566 55.9873 159.04 55.9958C159.259 55.9958 159.476 56.1109 159.717 56.1783L159.714 56.184Z" fill="#F8F8F8"/>
<path d="M143.901 62.1742C142.772 62.691 141.643 62.177 140.494 62.6545C140.379 64.6768 140.247 66.7301 140.6 68.7918C140.724 69.5193 141.182 69.7777 141.87 69.8282C142.508 69.876 143.182 69.7046 143.864 70.1231C144.159 70.918 144.089 71.7691 143.915 72.609C140.336 74.1679 137.207 72.255 137.177 68.5221C137.16 66.584 137.177 64.6488 137.177 62.8904C136.651 62.2613 136.025 62.5674 135.519 62.1826C135.126 61.3343 135.165 60.413 135.514 59.5564C135.96 59.1491 136.5 59.3401 136.969 59.0536C137.483 58.093 136.893 56.9048 137.398 55.8319C138.306 55.5032 139.207 55.5819 140.143 55.7897C140.676 56.8093 140.182 57.9272 140.541 58.9918C141.519 59.5901 142.727 58.944 143.817 59.4665C144.207 60.3175 144.067 61.2164 143.901 62.177V62.1742Z" fill="#D9D9D9"/>
<path d="M195.318 72.4801C194.105 72.7525 192.942 72.7385 191.799 72.525C190.462 72.275 189.65 71.292 189.411 69.955C189.066 68.0253 189.156 66.0844 189.13 64.1463C189.122 63.5565 189.254 62.9413 188.956 62.447C188.591 62.0032 187.998 62.1773 187.628 61.7448C187.355 61.1858 187.403 60.5622 187.583 59.9864C187.914 59.4977 188.498 59.6634 188.922 59.2702C189.465 58.3882 188.835 57.2338 189.378 56.2001C190.189 55.8266 191.035 55.8912 191.894 56.1468C192.518 57.1383 191.88 58.2955 192.408 59.2955C193.355 59.919 194.523 59.287 195.537 59.787C195.978 60.4021 195.86 61.0678 195.666 61.7616C194.689 62.4751 193.433 61.7223 192.31 62.4245C192.071 64.5452 192.127 66.7473 192.273 68.9466C192.324 69.6825 192.917 70.0224 193.633 70.1263C194.178 70.2049 194.759 70.0448 195.307 70.4072C195.683 71.0223 195.63 71.6768 195.313 72.4801H195.318Z" fill="#F8F8F8"/>
<path d="M82.3944 59.2487C82.9787 60.361 82.9478 61.2767 82.4843 62.3075C81.2119 62.5463 79.9058 62.3974 78.6138 62.4227C76.6504 62.462 76.4229 62.6614 76.4145 64.5771C76.406 66.7539 76.4145 68.9307 76.4088 71.1076C76.4088 71.6132 76.4791 72.13 76.215 72.6637C75.5016 73.2001 74.6421 72.9586 73.8275 72.9249C73.2601 72.9024 73.0326 72.4642 73.0326 71.9558C73.027 68.8071 72.7967 65.65 73.1366 62.5182C73.3865 60.2206 74.5522 59.3021 76.892 59.2543C78.7486 59.215 80.6052 59.2459 82.3972 59.2459L82.3944 59.2487Z" fill="#D9D9D9"/>
<path d="M164.167 72.4256C162.959 72.7318 162.858 72.7318 161.661 72.4425C161.597 72.3386 161.468 72.2234 161.462 72.1054C161.358 68.6394 161.145 65.1676 161.703 61.7212C161.883 60.6117 162.611 59.7972 163.726 59.6876C165.9 59.4742 168.088 59.536 170.2 59.6595C170.751 60.4039 170.633 61.0696 170.447 61.7128C170.015 62.1847 169.475 62.0751 168.973 62.0864C168.181 62.1032 167.386 62.0695 166.594 62.1032C164.962 62.1706 164.434 62.7071 164.422 64.3222C164.406 66.499 164.422 68.6731 164.414 70.8499C164.414 71.3499 164.501 71.8723 164.167 72.4256Z" fill="#F8F8F8"/>
<path d="M99.1367 72.5996V59.6116C99.8136 59.0835 100.488 59.297 101.123 59.2492C102.089 59.1762 102.462 59.6762 102.46 60.5834C102.451 62.617 102.46 64.6506 102.462 66.6842C102.462 68.1644 102.471 69.6419 102.462 71.1221C102.448 72.8523 102.269 73.0209 100.524 72.9787C100.111 72.9675 99.6788 73.0237 99.1395 72.5996H99.1367Z" fill="#D9D9D9"/>
<path d="M99.3941 55.7106C100.386 55.5926 101.254 55.5701 102.071 55.7387C102.543 56.4605 102.568 57.1038 102.166 57.8172C101.234 58.0925 100.287 58.0363 99.307 57.8397C98.9307 57.1178 98.8829 56.4409 99.3941 55.7078V55.7106Z" fill="#D9D9D9"/>
</g>
<defs>
<clipPath id="clip0_453_511">
<rect width="231" height="127" fill="white"/>
</clipPath>
</defs>
</svg>
