<svg width="100" height="100" viewBox="0 0 100 100" fill="none" xmlns="http://www.w3.org/2000/svg">
<g clip-path="url(#clip0_214_3210)">
<g clip-path="url(#clip1_214_3210)">
<path d="M-0.00390625 77.356V35.4623C1.49974 30.8173 4.09018 28.9415 9.00309 28.9415C11.9508 28.9415 14.8986 28.9415 17.8463 28.9415C19.2606 28.9415 19.2606 28.9415 19.2606 27.5421C19.2606 20.1727 19.2606 12.8033 19.2606 5.41909C19.2606 2.50112 20.2432 1.07191 22.9677 0H96.304C99.0284 1.07191 100.011 2.516 100.011 5.43397C100.011 26.5893 100.011 47.7296 100.011 68.8849C100.011 72.2495 98.0458 74.2147 94.711 74.2147C87.2523 74.2147 79.8085 74.2147 72.3498 74.2147C71.0248 74.2147 71.0099 74.2296 70.9951 75.5694C70.9504 80.4228 67.5114 83.8767 62.6729 83.8767C58.1024 83.8767 53.5468 83.8767 48.9763 83.8767C47.5471 83.8767 47.5322 83.8767 47.9937 85.2911C48.4106 86.5267 48.8572 87.7624 49.2145 89.0278C49.4527 89.8764 49.8696 90.2337 50.7777 90.1891C52.1474 90.1146 53.5319 90.1593 54.9016 90.1891C57.5962 90.2337 59.6507 92.3031 59.6954 95.0127C59.7103 96.159 59.6954 97.2905 59.6954 98.4368C59.6954 99.4889 59.1594 100.015 58.0875 100.015C42.9766 100.015 27.8806 100.015 12.7697 100.015C12.5315 100.015 12.2932 100 12.0699 100.015C11.4149 100.06 11.1767 99.7469 11.1916 99.1067C11.2213 97.7371 11.1916 96.3525 11.1916 94.9829C11.2362 92.2882 13.3056 90.2337 16.0152 90.1891C17.4592 90.1742 18.9033 90.1593 20.3474 90.1891C21.0323 90.204 21.3896 89.936 21.598 89.2958C22.0297 87.8815 22.521 86.4969 22.9825 85.0975C23.3547 83.9661 23.3101 83.9065 22.1042 83.9065C17.4741 83.9065 12.8441 83.9065 8.21405 83.9065C7.64832 83.9065 7.0677 83.9065 6.51686 83.7874C3.01828 83.0132 0.934012 80.795 -0.00390625 77.3857L-0.00390625 77.356ZM59.6954 16.1977C47.7853 16.1977 35.8603 16.1977 23.9502 16.1977C22.6699 16.1977 22.6401 16.2275 22.6401 17.4929C22.6401 20.7831 22.6401 24.0732 22.6401 27.3634C22.6401 28.4155 23.1513 28.9415 24.1736 28.9415C36.9918 28.9415 49.8249 28.9415 62.6431 28.9415C67.4965 28.9415 70.9504 32.3805 70.9802 37.2339C70.9802 38.147 71.4566 38.6035 72.4094 38.6035C78.9897 38.6035 85.57 38.6035 92.1503 38.6035C93.5349 38.6035 93.5349 38.6035 93.5349 40.003C93.5349 48.6676 93.5349 57.3173 93.5349 65.9818C93.5349 67.9321 93.6986 67.7684 91.7335 67.7684C85.2276 67.7684 78.7068 67.7684 72.2009 67.7684C71.8436 67.7684 71.3672 67.6195 71.1737 67.9917C70.7717 68.7658 70.8908 69.6442 71.0695 70.4481C71.2035 71.0287 71.8585 70.8352 72.2903 70.8352C79.5405 70.8352 86.7908 70.8352 94.0411 70.8352C96.1104 70.8352 96.6017 70.3588 96.6017 68.2894C96.6017 51.4069 96.6017 34.5243 96.6017 17.6418C96.6017 16.6791 96.1104 16.1977 95.1279 16.1977C83.3071 16.1977 71.5012 16.1977 59.6805 16.1977H59.6954ZM35.3541 67.6046C45.5968 67.6046 55.8395 67.6046 66.0821 67.6046C67.1044 67.6046 67.6156 67.1133 67.6156 66.1307C67.6156 56.7366 67.6156 47.3277 67.6156 37.9336C67.6156 34.1819 65.7397 32.321 61.9583 32.321C44.3016 32.321 26.6449 32.321 8.97332 32.321C5.19187 32.321 3.31603 34.1819 3.31603 37.9336C3.31603 47.3277 3.31603 56.7366 3.31603 66.1307C3.31603 67.1133 3.82717 67.6046 4.84945 67.6046C15.0177 67.6046 25.2008 67.6046 35.369 67.6046H35.3541ZM59.5763 12.8182C71.397 12.8182 83.2029 12.8182 95.0236 12.8182C96.0757 12.8182 96.6067 12.3071 96.6166 11.2848C96.6166 9.43874 96.6166 7.59268 96.6166 5.74661C96.6166 3.81123 96.1104 3.30505 94.1602 3.30505C88.22 3.30505 82.2799 3.30505 76.3397 3.30505C59.2487 3.30505 42.1727 3.30505 25.0817 3.30505C23.1463 3.30505 22.6401 3.81123 22.6401 5.7615C22.6401 7.60756 22.6401 9.45363 22.6401 11.2997C22.6401 12.312 23.1364 12.8182 24.1289 12.8182C35.9496 12.8182 47.7555 12.8182 59.5763 12.8182V12.8182ZM35.4584 70.9841C29.1758 70.9841 22.9081 70.9841 16.6255 70.9841C12.5612 70.9841 8.49691 70.9841 4.4326 70.9841C3.62867 70.9841 3.24159 71.2074 3.28625 72.0709C3.33092 73.2172 3.28625 74.3487 3.30114 75.495C3.37558 78.3088 5.07277 80.1548 7.85675 80.4824C8.22894 80.527 8.60113 80.5121 8.95843 80.5121C26.6151 80.5121 44.2718 80.5121 61.9434 80.5121C62.0476 80.5121 62.1518 80.5121 62.2411 80.5121C65.6504 80.4824 67.5858 78.5321 67.6007 75.093C67.6007 74.2891 67.6007 73.4852 67.6007 72.6813C67.6007 71.5597 67.0548 70.999 65.963 70.999C55.7948 70.999 45.6117 70.999 35.4435 70.999L35.4584 70.9841ZM70.9951 53.1636C70.9951 56.5133 71.0099 59.8779 70.9951 63.2276C70.9951 64.0911 71.263 64.4037 72.1563 64.4037C77.7838 64.374 83.4262 64.374 89.0537 64.4037C89.947 64.4037 90.2001 64.0762 90.2001 63.2127C90.1703 56.5431 90.1703 49.8586 90.2001 43.1889C90.2001 42.2808 89.9172 41.9533 88.9942 41.9681C83.3964 41.9979 77.7987 41.9979 72.1861 41.9681C71.2481 41.9681 70.9802 42.3106 70.9802 43.2038C71.0248 46.5237 70.9951 49.8437 70.9951 53.1636ZM35.4137 96.6205C40.7881 96.6205 46.1625 96.6205 51.5221 96.6205C52.8322 96.6205 54.1423 96.6205 55.4524 96.6205C56.1075 96.6205 56.3308 96.3377 56.3457 95.7124C56.3754 94.2385 55.7055 93.5686 54.0976 93.5686C41.6814 93.5686 29.2651 93.5686 16.834 93.5686C16.4767 93.5686 16.0896 93.5983 15.7472 93.7025C14.8837 93.9705 14.3924 94.9829 14.6008 96.0101C14.7944 96.9332 15.5387 96.6056 16.0747 96.6056C22.521 96.6205 28.9674 96.6056 35.4137 96.6056V96.6205ZM35.4732 90.1742C38.5847 90.1742 41.7111 90.1593 44.8227 90.1742C45.6712 90.1742 45.9243 89.936 45.6266 89.1023C45.1204 87.688 44.644 86.2439 44.1974 84.8147C43.9889 84.1447 43.6316 83.847 42.8873 83.8618C37.9297 83.8916 32.9572 83.8767 27.9997 83.8618C27.3297 83.8618 26.9575 84.1 26.7491 84.7402C26.3025 86.1843 25.7963 87.5986 25.3199 89.0278C24.9924 90.0402 25.0668 90.1444 26.1089 90.1444C29.2205 90.1444 32.3468 90.1444 35.4584 90.1444L35.4732 90.1742Z" fill="#727272"/>
<path d="M62.7468 22.644C53.0103 22.644 43.2738 22.644 33.5373 22.644C32.1528 22.644 32.1379 22.644 32.1528 21.2594C32.1528 19.0263 31.9294 19.2794 34.1477 19.2794C53.2783 19.2794 72.4088 19.2794 91.5394 19.2794C91.9116 19.2794 92.2838 19.3092 92.6411 19.2794C93.2812 19.2347 93.5343 19.5176 93.5343 20.1578C93.5046 23.1502 93.8172 22.6291 91.2267 22.644C81.7285 22.6738 72.2302 22.644 62.7319 22.644H62.7468Z" fill="#727272"/>
<path d="M83.6958 29.0904C80.8374 29.0904 77.9939 29.0606 75.1354 29.0904C74.3017 29.0904 74.0189 28.8224 74.0338 27.9887C74.0933 25.3238 73.7658 25.7109 76.252 25.7109C81.5818 25.696 86.9264 25.7258 92.2562 25.6812C93.2685 25.6812 93.5961 25.9789 93.5663 26.9913C93.477 29.3733 93.7896 29.0606 91.4374 29.0755C88.8469 29.0904 86.2714 29.0755 83.6809 29.0755L83.6958 29.0904Z" fill="#727272"/>
<path d="M83.7089 35.5368C80.8505 35.5368 78.0069 35.507 75.1485 35.5368C74.3297 35.5368 74.0171 35.2837 74.0469 34.45C74.1064 31.7703 73.7789 32.1722 76.2502 32.1573C81.58 32.1425 86.9246 32.1722 92.2544 32.1276C93.2519 32.1276 93.6092 32.3955 93.5794 33.4377C93.4901 35.8197 93.8027 35.507 91.4653 35.5368C88.8749 35.5517 86.2993 35.5368 83.7089 35.5368V35.5368Z" fill="#727272"/>
<path d="M27.3149 22.6441C26.243 22.6441 25.707 22.0535 25.707 20.8725C25.707 19.6914 26.2976 19.1554 27.4787 19.2646C28.6597 19.3738 29.1957 19.9643 29.0865 21.0362C28.9773 22.1081 28.3868 22.6441 27.3149 22.6441V22.6441Z" fill="#727272"/>
<path d="M27.3885 64.5377C22.1183 64.5377 16.8481 64.5377 11.5778 64.5377C8.36213 64.5377 6.36719 62.5428 6.36719 59.3271C6.36719 53.0892 6.36719 46.8364 6.36719 40.5985C6.36719 37.3679 8.34724 35.3878 11.5778 35.3878C22.1183 35.3878 32.6587 35.3878 43.1991 35.3878C46.4148 35.3878 48.4098 37.3828 48.4098 40.5985C48.4098 46.8364 48.4098 53.0892 48.4098 59.3271C48.4098 62.5428 46.4148 64.5377 43.1991 64.5377C37.9289 64.5377 32.6587 64.5377 27.3885 64.5377ZM27.3885 61.1583C32.4503 61.1583 37.5269 61.1583 42.5887 61.1583C44.5241 61.1583 45.0303 60.6521 45.0452 58.7167C45.0452 52.8807 45.0452 47.0448 45.0452 41.2089C45.0452 39.2735 44.5241 38.7673 42.5887 38.7673C32.4503 38.7673 22.3267 38.7673 12.1882 38.7673C10.2528 38.7673 9.74667 39.2735 9.73178 41.2089C9.73178 47.0448 9.73178 52.8807 9.73178 58.7167C9.73178 60.6521 10.2528 61.1583 12.1882 61.1583C17.25 61.1583 22.3267 61.1583 27.3885 61.1583Z" fill="#727272"/>
<path d="M57.9229 38.7524C56.1066 38.7524 54.3052 38.7226 52.4889 38.7524C51.7594 38.7524 51.4766 38.5142 51.4766 37.7698C51.5212 34.9263 51.1937 35.4027 53.7692 35.3729C56.9552 35.3431 60.1411 35.3878 63.3271 35.3431C64.2352 35.3431 64.5776 35.5962 64.5479 36.5341C64.4734 39.0799 64.801 38.6929 62.3445 38.7375C60.8706 38.7524 59.3968 38.7375 57.9229 38.7375V38.7524Z" fill="#727272"/>
<path d="M58.1163 41.8193C59.9326 41.8193 61.734 41.8491 63.5503 41.8193C64.2798 41.8193 64.5627 42.0724 64.5478 42.8168C64.5031 45.6603 64.8306 45.1839 62.2402 45.1988C59.0542 45.2286 55.8683 45.1839 52.6823 45.2286C51.7742 45.2286 51.4467 44.9457 51.4765 44.0227C51.5509 41.4918 51.2234 41.864 53.6947 41.8342C55.1686 41.8193 56.6424 41.8342 58.1163 41.8342V41.8193Z" fill="#727272"/>
<path d="M58.102 51.645C56.2559 51.645 54.4099 51.6301 52.5638 51.645C51.8194 51.645 51.4621 51.4514 51.477 50.6326C51.5366 47.8189 51.1941 48.2953 53.7995 48.2655C56.9556 48.2357 60.1118 48.2804 63.2531 48.2357C64.1761 48.2357 64.5781 48.4441 64.5483 49.4565C64.459 51.9427 64.7865 51.6003 62.4194 51.6301C60.9753 51.645 59.5312 51.6301 58.0871 51.6301L58.102 51.645Z" fill="#727272"/>
<path d="M58.0128 58.0914C56.1667 58.0914 54.3206 58.0616 52.4746 58.0914C51.7451 58.0914 51.4622 57.8383 51.4771 57.0939C51.5218 54.2504 51.1943 54.7268 53.7847 54.697C56.9706 54.6672 60.1566 54.7119 63.3425 54.6672C64.2507 54.6672 64.5782 54.9352 64.5484 55.8731C64.474 58.4189 64.8015 58.0318 62.3451 58.0616C60.901 58.0765 59.4569 58.0616 58.0128 58.0616V58.0914Z" fill="#727272"/>
<path d="M56.4943 64.5376C55.3132 64.5376 54.7227 64.0017 54.7227 62.9298C54.7227 61.8579 55.2586 61.2673 56.3305 61.1581C57.4024 61.049 57.993 61.6147 58.1021 62.8553C58.2113 64.096 57.6754 64.6518 56.4943 64.5227V64.5376Z" fill="#727272"/>
<path d="M64.534 62.9299C64.534 64.0018 63.9434 64.5377 62.7623 64.5377C61.5813 64.5377 61.0453 63.9472 61.1545 62.7661C61.2637 61.585 61.8542 61.0491 62.9261 61.1583C63.998 61.2674 64.534 61.858 64.534 62.9299Z" fill="#727272"/>
<path d="M40.2969 6.37183C41.4185 6.37183 41.9792 6.93755 41.9792 8.06901C41.9792 9.20047 41.4135 9.76124 40.282 9.75131C39.1506 9.74139 38.5898 9.17566 38.5997 8.05412C38.6097 6.93259 39.1754 6.37183 40.2969 6.37183Z" fill="#727272"/>
<path d="M27.3893 9.75144C26.2678 9.75144 25.707 9.18571 25.707 8.05425C25.707 6.9228 26.2728 6.36203 27.4042 6.37196C28.5357 6.38188 29.0964 6.98235 29.0865 8.17335C29.0766 9.36436 28.5109 9.89039 27.3893 9.75144V9.75144Z" fill="#727272"/>
<path d="M32.1523 7.9648C32.1523 6.90282 32.7478 6.37183 33.9389 6.37183C35.1299 6.37183 35.6609 6.96733 35.5318 8.15834C35.4028 9.34935 34.8073 9.88034 33.7453 9.75131C32.6833 9.62229 32.1523 9.02678 32.1523 7.9648Z" fill="#727272"/>
<path d="M29.0709 74.0509C30.1528 74.0509 30.6937 74.6365 30.6937 75.8076C30.6937 76.9788 30.1081 77.5197 28.9369 77.4304C27.7658 77.3411 27.2249 76.7555 27.3142 75.6737C27.4035 74.5918 27.9891 74.0509 29.0709 74.0509Z" fill="#727272"/>
<path d="M35.3527 77.4304C34.2908 77.4304 33.7598 76.8349 33.7598 75.6439C33.7598 74.4529 34.3553 73.9219 35.5463 74.0509C36.7373 74.1799 37.2683 74.7754 37.1393 75.8374C37.0102 76.8994 36.4147 77.4304 35.3527 77.4304Z" fill="#727272"/>
<path d="M43.5877 75.7779C43.5877 76.8895 43.017 77.4453 41.8756 77.4453C40.7342 77.4453 40.1784 76.8746 40.2082 75.7332C40.2379 74.5919 40.8086 74.0361 41.9202 74.0658C43.0318 74.0956 43.5877 74.6663 43.5877 75.7779Z" fill="#727272"/>
<path d="M29.7555 39.8393C30.3063 40.0328 31.0358 40.271 31.7653 40.539C32.0482 40.6432 32.1822 40.8665 32.1077 41.1791C32.0631 41.3429 32.0333 41.5067 31.9886 41.6704C30.0235 47.5659 28.0583 53.4465 26.108 59.342C25.8698 60.0417 25.5721 60.2204 24.8575 59.9673C22.0884 58.9847 22.4159 59.5355 23.2794 56.9004C25.051 51.5111 26.8524 46.1367 28.6538 40.7623C28.8027 40.3305 28.8027 39.6755 29.7555 39.8541V39.8393Z" fill="#727272"/>
<path d="M19.7082 57.4809C19.5742 57.3767 19.3658 57.2576 19.2169 57.0938C17.0582 54.9351 14.8995 52.7616 12.7259 50.6177C12.2346 50.1265 12.2346 49.7692 12.7259 49.2927C14.8995 47.1489 17.0582 44.9902 19.202 42.8166C19.6635 42.3402 20.0059 42.37 20.4526 42.8315C22.6113 45.0647 22.4922 44.3203 20.5419 46.345C19.5593 47.3574 18.5618 48.3548 17.5495 49.3374C17.0731 49.784 17.0731 50.1116 17.5495 50.5731C18.8745 51.8534 20.1399 53.2082 21.4798 54.4736C22.1497 55.0989 22.1349 55.5455 21.45 56.0964C21.0629 56.409 20.7354 56.811 20.3781 57.1534C20.2144 57.3172 20.0506 57.5107 19.7231 57.4958L19.7082 57.4809Z" fill="#727272"/>
<path d="M42.5015 50.067C42.3675 50.2308 42.2186 50.4541 42.0251 50.6477C39.8961 52.7915 37.7374 54.9055 35.6234 57.0642C35.1321 57.5704 34.7748 57.5406 34.2984 57.0493C32.1993 54.8608 32.3035 55.5903 34.2091 53.5954C35.1917 52.583 36.1742 51.5707 37.2015 50.603C37.7077 50.1266 37.7077 49.7842 37.2015 49.2929C35.8765 48.0125 34.5962 46.6727 33.2712 45.3923C32.7352 44.8862 32.6012 44.4991 33.2116 43.9185C35.3554 41.8937 34.6408 41.9384 36.6655 43.9185C38.452 45.6454 40.179 47.4319 41.9357 49.1887C42.1591 49.4269 42.4568 49.6204 42.4866 50.067H42.5015Z" fill="#727272"/>
</g>
</g>
<defs>
<clipPath id="clip0_214_3210">
<rect width="100" height="100" fill="white"/>
</clipPath>
<clipPath id="clip1_214_3210">
<rect width="100" height="100" fill="white"/>
</clipPath>
</defs>
</svg>
