<svg width="100" height="100" viewBox="0 0 100 100" fill="none" xmlns="http://www.w3.org/2000/svg">
<g clip-path="url(#clip0_665_5935)">
<path d="M0.21346 60.0284C0.659174 59.1843 1.35989 58.6496 2.23632 58.2518C3.82203 57.5361 5.36489 56.7319 6.93989 55.991C7.99417 55.4942 8.69275 55.6394 9.05489 56.3783C9.40846 57.0961 9.07417 57.7066 8.00917 58.2328C6.5456 58.9549 5.08203 59.6811 3.59703 60.3631C2.95632 60.6557 2.7956 61.001 3.03132 61.6788C3.8156 63.9291 4.56346 66.192 5.26632 68.4696C5.4956 69.2106 5.87275 69.3685 6.59489 69.2253C8.09489 68.9285 9.6056 68.6843 11.1142 68.4338C12.5542 68.1939 12.8863 68.3707 13.5935 69.64C15.3442 72.7892 17.4227 75.7026 19.9685 78.2875C21.0849 79.4222 21.1106 79.7632 20.352 81.1462C19.6256 82.4703 18.942 83.8196 18.1813 85.1247C17.8406 85.712 17.9477 86.032 18.4942 86.4109C20.502 87.8044 22.4949 89.2211 24.4599 90.6694C25.0385 91.0967 25.4242 91.0651 25.9106 90.5557C27.0313 89.3811 28.2206 88.2696 29.3349 87.0887C30.0185 86.3667 30.7149 86.2151 31.6192 86.6572C35.0542 88.3349 38.6713 89.4821 42.4513 90.1115C43.5206 90.2905 44.0606 90.8041 44.1806 91.8903C44.3563 93.488 44.6799 95.0689 44.877 96.6645C44.967 97.3887 45.3099 97.576 45.9999 97.5676C48.387 97.5381 50.7742 97.5297 53.1613 97.5718C53.907 97.5844 54.2563 97.3781 54.3506 96.6161C54.5563 94.951 54.8563 93.2986 55.0835 91.6356C55.1992 90.7873 55.6385 90.3347 56.4999 90.1831C60.4106 89.4885 64.1756 88.3454 67.7413 86.5982C68.517 86.2193 69.1642 86.3562 69.762 86.9729C70.917 88.1623 72.1256 89.3053 73.2635 90.5136C73.7906 91.0714 74.2149 91.0651 74.8106 90.6294C76.7799 89.1853 78.7706 87.7644 80.7763 86.3709C81.2949 86.0109 81.3592 85.6994 81.0527 85.1626C80.2513 83.7585 79.5249 82.3145 78.7213 80.9104C78.2156 80.0284 78.2435 79.2811 78.9892 78.5401C81.7385 75.8057 83.9842 72.7029 85.7906 69.3011C86.3199 68.3076 87.132 68.2718 88.0577 68.4275C89.5663 68.6801 91.077 68.9243 92.577 69.2211C93.3335 69.3706 93.7342 69.2085 93.9742 68.4149C94.6535 66.1688 95.397 63.9396 96.1706 61.723C96.4213 61.0052 96.2499 60.6431 95.5642 60.3316C94.0449 59.6432 92.5535 58.8917 91.0556 58.1592C90.3227 57.8013 89.7849 57.3192 90.1449 56.4246C90.447 55.6773 91.1649 55.4858 92.1313 55.9362C93.9656 56.793 95.7913 57.6666 97.5956 58.5802C98.8042 59.1927 99.2563 60.2179 98.8556 61.4746C97.9406 64.3459 97.002 67.2108 96.027 70.061C95.5406 71.4841 94.4649 72.0482 92.9177 71.7872C91.5506 71.5556 90.1835 71.3135 88.8206 71.0546C88.1006 70.9178 87.642 71.1115 87.2606 71.783C85.7092 74.5111 83.8663 77.0456 81.6742 79.3169C81.1985 79.8116 81.1535 80.201 81.4899 80.782C82.1949 81.9966 82.8463 83.2449 83.4913 84.4911C84.2777 86.0088 84.027 87.0719 82.6577 88.057C80.3585 89.7116 78.0549 91.3619 75.7406 92.9954C74.2535 94.0459 73.2356 93.9596 71.9585 92.7028C70.9513 91.7114 69.9442 90.7199 68.9713 89.699C68.5535 89.259 68.172 89.1074 67.5763 89.3832C64.632 90.7473 61.5399 91.6945 58.3577 92.345C57.6935 92.4818 57.4106 92.7702 57.3377 93.448C57.1835 94.8731 56.9456 96.2877 56.7163 97.7044C56.4677 99.2327 55.6127 99.9758 54.0206 99.9884C51.0635 100.012 48.1063 100.014 45.1492 99.9884C43.5785 99.9737 42.7127 99.1906 42.4813 97.6771C42.2649 96.2604 42.0292 94.8437 41.862 93.4207C41.7913 92.8081 41.5642 92.4881 40.9256 92.3597C37.6706 91.6987 34.5099 90.741 31.5099 89.3222C30.972 89.0674 30.657 89.2801 30.3077 89.6358C29.2963 90.6715 28.2742 91.6966 27.2413 92.7113C25.9942 93.9364 24.957 94.0438 23.5449 93.0481C21.1706 91.3746 18.8092 89.6842 16.4542 87.9855C15.2242 87.0971 14.9435 86.0109 15.6227 84.67C16.3042 83.3228 17.022 81.9924 17.7677 80.6789C18.0592 80.1652 18.0056 79.8158 17.592 79.3885C15.3742 77.0919 13.5077 74.5322 11.9392 71.7724C11.5556 71.0967 11.0992 70.9199 10.3749 71.0609C9.04846 71.3199 7.71346 71.5367 6.38275 71.7682C4.66846 72.065 3.67203 71.4946 3.10846 69.8505C2.13132 67.0003 1.17346 64.1438 0.207031 61.2894C0.207031 60.8683 0.207031 60.4494 0.207031 60.0284H0.21346Z" fill="white"/>
<path d="M54.9515 1.21515C56.0723 1.68247 56.6508 2.49291 56.7687 3.70541C56.9058 5.09474 57.1823 6.47143 57.3623 7.85655C57.4308 8.38281 57.6494 8.65436 58.1958 8.76803C61.4787 9.45217 64.6758 10.4057 67.7144 11.8267C68.2351 12.0708 68.5694 11.8645 68.923 11.5004C69.9558 10.4373 71.0015 9.38691 72.0644 8.35123C73.2108 7.23346 74.2715 7.13452 75.5958 8.06495C78.0023 9.75319 80.3915 11.4625 82.7722 13.1844C83.9958 14.0706 84.2637 15.1631 83.5715 16.5062C82.6715 18.2554 81.7244 19.9795 80.7923 21.7098C80.4173 22.4066 79.8708 22.8402 79.0587 22.4487C78.2123 22.0403 78.1715 21.3267 78.5658 20.5752C79.3694 19.0533 80.1708 17.5313 81.0258 16.0367C81.358 15.4557 81.2723 15.1337 80.7194 14.7506C78.7394 13.3802 76.7787 11.9824 74.8437 10.5531C74.2072 10.0837 73.7658 10.09 73.213 10.6815C72.1308 11.8414 70.9587 12.9213 69.868 14.0748C69.1844 14.799 68.4815 14.9358 67.5815 14.4958C64.1487 12.816 60.5337 11.6646 56.7537 11.0373C55.6758 10.8583 55.1465 10.3447 55.0265 9.26271C54.8487 7.66709 54.5294 6.08621 54.3323 4.49059C54.2444 3.76856 53.9037 3.577 53.2115 3.58542C50.8244 3.617 48.4373 3.63384 46.0523 3.577C45.2123 3.55806 44.9315 3.87592 44.8373 4.63373C44.6337 6.26303 44.3444 7.88181 44.1258 9.51111C44.0123 10.3594 43.573 10.8225 42.7158 10.972C38.7665 11.6625 34.9801 12.8413 31.3801 14.5906C30.6408 14.9505 30.0194 14.7632 29.458 14.1864C28.2987 12.9992 27.0944 11.854 25.9565 10.6499C25.4358 10.0984 25.018 10.0774 24.4115 10.5194C22.4423 11.9635 20.4558 13.3865 18.4437 14.7737C17.8544 15.18 17.8887 15.5294 18.1994 16.0746C19.0158 17.5103 19.7873 18.969 20.5694 20.4215C20.9294 21.0909 21.0644 21.7561 20.383 22.3182C19.7658 22.8297 18.9601 22.6655 18.5101 21.8572C17.4837 20.0174 16.4808 18.1607 15.5337 16.2809C14.9594 15.1442 15.2465 14.0496 16.2815 13.2939C18.7415 11.5025 21.2187 9.73003 23.7151 7.98706C24.9323 7.13662 26.0037 7.2524 27.0773 8.29018C28.1701 9.34481 29.248 10.4163 30.2915 11.5151C30.733 11.9782 31.1101 12.0119 31.6887 11.7467C34.5044 10.4521 37.4401 9.48795 40.4937 8.90486C41.3765 8.73645 41.848 8.4207 41.9015 7.43764C41.9723 6.18725 42.3151 4.9537 42.4351 3.7033C42.5508 2.4887 43.1337 1.68036 44.2523 1.21094H54.943L54.9515 1.21515Z" fill="white"/>
<path d="M51.1401 38.4165C48.9651 37.8692 47.8593 38.8418 46.8543 40.7321C45.0136 44.1928 41.6043 45.4032 38.2229 44.1949C35.4393 43.2013 34.1901 40.3595 35.5722 37.8019C36.7229 35.6737 38.0579 33.636 39.3801 31.6025C40.0615 30.5542 41.0622 29.7754 42.2301 29.287C46.0679 27.6893 49.9186 26.1294 53.9365 24.9969C55.0722 24.677 56.1608 24.6812 57.2943 24.9969C61.1408 26.0768 64.8308 27.5693 68.4758 29.1607C69.6736 29.6827 70.7343 29.8006 71.9343 29.2659C73.0015 28.7902 74.1265 28.4366 75.2386 28.0619C76.2501 27.7208 77.2615 27.4535 77.7051 26.2957C77.8936 25.801 78.4851 25.6053 78.9908 25.4179C84.4915 23.3866 89.9922 21.351 95.4972 19.328C96.4936 18.9618 97.2522 19.1765 97.4815 19.9027C97.7836 20.8563 97.2093 21.3384 96.3929 21.6394C91.2586 23.5339 86.1308 25.4495 80.9772 27.2956C79.9786 27.6535 79.7815 28.0219 80.1479 29.0344C82.6658 36.0252 85.1279 43.035 87.5622 50.0532C87.8986 51.0257 88.2908 51.3625 89.3772 51.0384C91.3165 50.4616 93.3072 50.0469 95.2765 49.5669C95.5186 49.508 95.7629 49.4554 96.0072 49.4112C96.7443 49.2807 97.3015 49.5396 97.5051 50.2532C97.7108 50.9689 97.3851 51.5457 96.6672 51.7288C93.8772 52.4424 91.0872 53.1581 88.2693 53.756C87.0843 54.0086 86.2251 53.3876 85.7343 52.2803C85.6636 52.1204 85.6315 51.9393 85.5415 51.792C85.1622 51.1583 85.3551 50.1711 84.5451 49.8511C84.0393 49.6532 81.8386 51.3457 81.6008 51.9709C81.3779 52.5561 80.9965 52.9392 80.3408 52.9076C79.6293 52.8719 79.2822 52.4045 79.1408 51.7625C78.8858 50.6026 79.2479 49.8048 80.3108 49.2238C81.2772 48.6976 82.2393 48.1629 83.2272 47.6808C83.7436 47.4303 83.8786 47.1377 83.6858 46.603C81.7786 41.2562 79.8779 35.9073 78.0029 30.5479C77.7693 29.8785 77.4115 29.8953 76.8693 30.0911C75.0972 30.731 73.3036 31.3162 71.5486 31.9941C70.5072 32.3961 69.5729 32.3204 68.5658 31.8804C64.9508 30.3037 61.2801 28.866 57.5365 27.6051C56.3086 27.1925 55.1472 27.1651 53.8958 27.5566C50.4286 28.6407 47.0558 29.9627 43.7001 31.3268C42.4336 31.8425 41.5058 32.7077 40.8265 33.8802C39.9629 35.3706 39.0158 36.8125 38.1393 38.2966C36.9265 40.349 37.8629 41.9951 40.2779 42.1214C41.9879 42.2098 43.3272 41.5741 44.2958 40.1848C44.9622 39.227 45.5215 38.2124 45.9393 37.1262C46.2886 36.2168 46.9465 35.8358 47.9172 35.8442C50.1972 35.861 52.4793 35.8526 54.7593 35.8484C55.7879 35.8484 56.3579 36.261 56.6022 37.3261C57.4979 41.2099 59.9622 43.7865 63.7058 45.2327C64.0336 45.359 64.3893 45.4684 64.6658 45.6705C69.1122 48.9249 74.0043 51.4446 78.8751 54.0023C79.9829 54.5832 81.0393 55.2127 81.6736 56.3536C82.7515 58.2944 82.5436 60.4037 81.0715 62.1256C79.8136 63.597 77.6086 64.1401 75.6093 63.4686C75.3393 63.3781 75.0672 63.2876 74.8143 63.1592C74.2915 62.8939 74.1008 62.9697 74.0322 63.6076C73.7215 66.5167 71.1929 68.466 68.2551 68.0029C67.4301 67.8724 67.2308 68.0913 67.0615 68.807C66.2043 72.4403 62.9129 73.958 59.5143 72.3224C59.4179 72.2761 59.3215 72.234 59.2251 72.1856C58.2922 71.7267 57.6801 71.9898 57.3886 72.975C56.4908 75.9999 53.2915 77.4377 50.3151 76.1325C49.6336 75.8336 48.9586 75.4989 48.3308 75.1053C47.6151 74.6569 47.0408 74.6295 46.5008 75.3495C46.2929 75.6273 46.0036 75.8505 45.7336 76.0778C43.6636 77.8145 41.1629 77.7261 39.2001 75.861C38.3001 75.0042 37.3936 74.1517 37.1536 72.8634C37.0615 72.3729 36.7872 72.2824 36.3093 72.3414C33.1293 72.7329 30.6393 71.1857 29.6879 68.1944C29.4929 67.5861 29.2615 67.4703 28.6272 67.5756C24.7979 68.2134 21.4251 64.8601 22.2008 61.1615C22.3658 60.3742 21.9993 60.309 21.4422 60.149C18.3886 59.267 16.4622 56.1999 17.2743 53.537C17.3751 53.2044 17.5229 52.8803 17.7008 52.5793C18.3543 51.4762 18.3651 51.4762 17.0986 50.9942C16.2693 50.6784 15.3758 50.0385 14.6172 50.1648C13.7001 50.3163 13.8629 51.5941 13.4686 52.3435C12.8579 53.4992 11.9129 54.0317 10.5565 53.7223C7.95506 53.1266 5.36863 52.4719 2.7822 51.8214C2.00434 51.6257 1.47506 51.1436 1.69363 50.2953C1.92506 49.3901 2.63649 49.2512 3.46791 49.4554C5.64506 49.9901 7.82863 50.4953 9.99291 51.072C10.8265 51.2952 11.2422 51.1878 11.5551 50.2932C14.0579 43.1087 16.6058 35.941 19.1729 28.7797C19.4579 27.984 19.2351 27.6661 18.4786 27.3903C13.5008 25.5821 8.53577 23.7402 3.56863 21.9046C3.13577 21.7446 2.69006 21.5973 2.28934 21.3763C1.67434 21.0373 1.48363 20.4795 1.75577 19.8501C2.00649 19.2691 2.51006 19.0291 3.15291 19.1596C3.39506 19.2081 3.63077 19.2965 3.86434 19.3828C9.20006 21.3489 14.5315 23.3297 19.8758 25.2727C21.0801 25.7105 21.9436 26.361 22.0636 27.6935C22.1193 28.306 22.5758 28.3734 23.0408 28.4576C26.6129 29.0933 30.1851 29.7269 33.7572 30.3669C34.2115 30.449 34.6765 30.5184 35.1093 30.6637C35.7693 30.8847 36.0736 31.3836 35.9451 32.0614C35.8229 32.7077 35.3579 33.0508 34.7151 32.9813C33.6201 32.8635 32.5336 32.6761 31.4472 32.4867C28.3293 31.9393 25.2072 31.4047 22.1001 30.8026C21.3715 30.6616 21.0672 30.8574 20.8401 31.5036C19.0658 36.5662 17.2808 41.6246 15.4722 46.6746C15.2343 47.3377 15.3329 47.6935 16.0401 47.944C17.2786 48.3818 18.4893 48.8975 19.7129 49.3796C20.1179 49.5396 20.4779 49.5964 20.9258 49.367C24.2601 47.6514 28.0979 49.3775 28.9036 52.9918C29.1029 53.8886 29.3258 54.217 30.3736 54.1665C32.7565 54.0549 35.3365 56.341 35.8208 58.8481C35.9665 59.6038 36.1551 59.909 37.0743 59.909C39.6179 59.9111 42.1101 62.273 42.3865 64.8074C42.4551 65.4347 42.6843 65.62 43.3101 65.6452C46.8758 65.78 49.2801 68.5123 48.9243 71.9919C48.8943 72.2824 48.8151 72.5834 49.1236 72.7371C50.1329 73.2381 51.0608 73.9475 52.2415 74.0422C53.4608 74.1391 54.3951 73.5875 54.8086 72.5729C55.2201 71.5667 54.9651 70.4658 54.0801 69.7227C53.4265 69.1733 52.5415 68.6996 53.2165 67.6934C53.8936 66.683 54.7851 67.184 55.5865 67.5734C57.3736 68.4449 59.1201 69.4027 60.9351 70.209C62.8872 71.0762 64.7215 69.7206 64.4965 67.664C64.4065 66.8346 63.9693 66.2304 63.2258 65.841C62.4393 65.4284 61.6401 65.0411 60.8665 64.6117C60.1701 64.2264 59.7651 63.6581 60.1808 62.875C60.5986 62.0898 61.3165 62.1003 62.0279 62.4393C63.8536 63.3128 65.6665 64.2138 67.4815 65.1084C68.3043 65.5147 69.1401 65.7505 70.0379 65.3547C70.9315 64.9611 71.4201 64.2454 71.5186 63.3192C71.6172 62.3782 71.2401 61.5636 70.4129 61.0794C69.2515 60.4016 68.0279 59.8227 66.8365 59.1954C65.8765 58.6902 65.5379 58.0418 65.9386 57.3703C66.4529 56.5073 67.1708 56.6083 67.9658 57.0061C70.5993 58.3281 73.2308 59.6522 75.8879 60.9257C77.7115 61.7993 79.4236 61.0099 79.7729 59.2101C79.9851 58.1176 79.4386 57.1409 78.2301 56.4904C75.3565 54.9432 72.4658 53.4234 69.6093 51.8467C68.5251 51.2489 67.5051 50.5374 66.4658 49.8595C64.8972 48.8365 63.3565 47.8008 61.6079 47.0388C58.2243 45.561 55.9551 42.9466 54.6265 39.5869C54.2643 38.6713 53.8143 38.2924 52.8415 38.4039C52.2801 38.4692 51.7015 38.4165 51.1315 38.4165H51.1401ZM33.3286 59.6438C33.3286 58.6481 32.2079 57.1682 31.1879 56.7683C30.1443 56.3599 29.3322 56.7683 28.6036 57.4924C27.5793 58.5113 26.5315 59.5069 25.5051 60.5237C24.2729 61.7488 24.2643 62.8603 25.4601 64.0686C26.9065 65.5316 27.9586 65.6431 29.3065 64.399C30.4443 63.3465 31.5329 62.2393 32.6365 61.151C33.0779 60.7152 33.3715 60.2079 33.3286 59.6438ZM32.1029 67.1419C32.2315 68.4681 33.1379 69.2427 34.2222 69.8216C35.1758 70.3289 36.0115 69.9332 36.7272 69.2491C37.6186 68.3965 38.5572 67.5819 39.3758 66.6662C40.3508 65.5758 40.0872 64.4538 38.6751 63.1297C37.6272 62.1467 36.4508 62.0625 35.4522 62.9697C34.5136 63.8244 33.6243 64.7316 32.7201 65.6221C32.2979 66.0368 32.0708 66.5336 32.1029 67.144V67.1419ZM26.4822 54.0296C26.4779 53.0066 25.3936 51.6109 24.3136 51.2005C23.2786 50.8068 22.4515 51.1878 21.7272 51.9141C21.2301 52.4108 20.6965 52.8761 20.2251 53.3939C19.2715 54.4464 19.3615 55.4926 20.4608 56.623C21.7701 57.9703 22.8436 58.1997 23.9686 57.2756C24.7015 56.6736 25.3486 55.9726 26.0172 55.299C26.3836 54.9306 26.5036 54.4591 26.4843 54.0275L26.4822 54.0296ZM43.8908 68.0744C42.2172 68.0429 39.5965 70.6026 39.6051 71.933C39.6072 72.4087 39.7401 72.8318 40.0615 73.1813C40.3936 73.5433 40.7322 73.9054 41.1029 74.2275C42.0479 75.0463 43.0229 75.0674 43.9765 74.2717C44.5701 73.7749 45.1336 73.2402 45.6779 72.6929C46.3551 72.0109 46.8715 71.2089 46.3465 70.2574C45.7486 69.1733 44.9451 68.2513 43.8908 68.0744Z" fill="white"/>
<path d="M49.5115 85.501C34.8843 85.2379 22.2179 76.7293 16.7579 63.7434C16.5822 63.3245 16.4151 62.8971 16.2908 62.4593C16.1001 61.7857 16.3679 61.2847 17.0065 61.0089C17.6258 60.7416 18.1315 60.9815 18.4872 61.491C18.6843 61.7751 18.7936 62.1183 18.9329 62.4403C23.8615 73.757 32.4629 80.8342 44.8486 82.5161C58.8072 84.4106 69.8172 79.0891 77.6601 67.5577C78.4936 66.3304 79.1558 65.9663 79.8993 66.4631C80.6129 66.9388 80.5936 67.6377 79.7943 68.8628C73.5565 78.4113 64.6593 83.8086 53.2401 85.2548C52.6058 85.3347 51.9608 85.3263 51.3222 85.3684C50.7201 85.4063 50.1158 85.4568 49.5136 85.501H49.5115Z" fill="white"/>
<path d="M49.6108 18.2485C42.0958 18.2716 35.3522 20.524 29.3887 25.0225C29.1915 25.172 28.9922 25.3214 28.793 25.4646C28.103 25.9634 27.3894 26.0919 26.8301 25.3425C26.303 24.6373 26.6287 24.031 27.2565 23.53C29.2258 21.9576 31.3451 20.6124 33.608 19.4883C38.3844 17.1139 43.4672 15.8087 48.8008 15.7309C57.3958 15.6067 65.1165 18.179 71.8622 23.4585C72.713 24.1236 72.8844 24.8309 72.338 25.4182C71.6437 26.1613 70.9365 25.8814 70.2637 25.3551C66.038 22.0481 61.283 19.8588 55.9772 18.8316C53.8772 18.4253 51.7601 18.1916 49.6108 18.2485Z" fill="white"/>
</g>
<defs>
<clipPath id="clip0_665_5935">
<rect width="99" height="99" fill="white" transform="translate(0 1)"/>
</clipPath>
</defs>
</svg>
