<svg width="231" height="127" viewBox="0 0 231 127" fill="none" xmlns="http://www.w3.org/2000/svg">
<g clip-path="url(#clip0_312_568)">
<path d="M215.174 53.9093C215.174 53.9093 216.979 52.7496 217.592 52.1259C218.204 51.5133 218.543 50.4739 217.778 49.3032C217.012 48.1325 216.596 47.5855 216.694 46.8196C216.694 46.8196 215.786 46.5133 216.027 44.9815C216.027 44.9815 215.349 44.522 215.502 43.5373C215.502 43.5373 215.009 43.3185 214.856 42.9794L214.703 42.6402C214.703 42.6402 216.443 42.0603 219.058 44.4454C221.596 46.754 221.651 46.7649 222.395 46.7211C223.576 46.6555 224.823 45.0691 226.104 45.0909C227.46 45.1128 227.734 46.1741 227.734 46.1741C227.734 46.1741 226.104 46.4476 225.403 47.6511C224.703 48.8437 222.395 53.3513 215.163 53.9093H215.174Z" fill="#B1B1B1"/>
<path d="M7.81058 56.5152H5.31606L5.90687 53.6925H8.43421C8.63115 52.7188 8.84997 51.8654 9.09067 51.1104C9.33137 50.3555 9.65959 49.721 10.0753 49.2067C10.4911 48.6925 11.0381 48.3096 11.7274 48.047C12.4058 47.7954 13.3029 47.6641 14.4189 47.6641C14.8784 47.6641 15.3379 47.6859 15.7974 47.7188C16.2679 47.7625 16.7274 47.8172 17.176 47.8938L16.5195 50.9244C16.3007 50.9026 16.071 50.8916 15.8412 50.8697C15.6005 50.8479 15.3707 50.8369 15.1629 50.8369C14.6486 50.8369 14.2438 50.9026 13.9594 51.0339C13.6749 51.1651 13.4561 51.3511 13.3029 51.6028C13.1497 51.8544 13.0403 52.1498 12.9637 52.5109C12.8872 52.8719 12.7887 53.2658 12.6683 53.7034H15.6661L15.0753 56.5262H12.0447L9.39701 69.0644H5.17383L7.82152 56.5262L7.81058 56.5152Z" fill="#B1B1B1"/>
<path d="M29.3214 69.0485H25.2842L25.7656 66.9041H25.6999C24.3323 68.6109 22.538 69.4533 20.317 69.4533C18.8509 69.4533 17.735 69.1032 16.9691 68.403C16.2032 67.7028 15.8203 66.6743 15.8203 65.3286C15.8203 65.1754 15.8422 64.9676 15.875 64.7159C15.9188 64.4643 15.9516 64.2126 15.9954 63.961C16.0391 63.6984 16.0829 63.4577 16.1267 63.2389C16.1704 63.0201 16.2251 62.8231 16.2579 62.6919L18.1617 53.6875H22.3848L20.514 62.6919C20.4702 62.8122 20.4374 62.9544 20.4045 63.1185C20.3717 63.2827 20.3498 63.4577 20.328 63.6328C20.3061 63.8078 20.2842 63.9829 20.2733 64.1579C20.2514 64.322 20.2404 64.4643 20.2404 64.5627C20.2404 65.0223 20.4483 65.3943 20.875 65.6897C21.3017 65.9851 21.7612 66.1382 22.2536 66.1382C22.8881 66.1382 23.4461 66.0179 23.9275 65.7662C24.4089 65.5146 24.8356 65.1973 25.1857 64.8034C25.5468 64.4096 25.8312 63.9501 26.05 63.4358C26.2689 62.9216 26.433 62.3964 26.5533 61.8603L28.282 53.6875H32.5052L29.2995 69.0485H29.3214Z" fill="#B1B1B1"/>
<path d="M41.5406 53.6952H44.5712L43.9148 56.5179H40.917L39.3415 64.1547C39.2977 64.3188 39.2759 64.461 39.254 64.5814C39.2321 64.7127 39.2212 64.8002 39.2212 64.8658C39.2212 65.1394 39.2649 65.3582 39.3524 65.5004C39.44 65.6536 39.5494 65.763 39.6916 65.8396C39.8338 65.9162 39.987 65.9599 40.1511 65.9709C40.3152 65.9709 40.4794 65.9818 40.6435 65.9818C41.1358 65.9818 41.6391 65.949 42.1643 65.8943L41.4531 69.1656C41.0155 69.2094 40.5778 69.2422 40.1511 69.275C39.7135 69.3078 39.2649 69.3188 38.8163 69.3188C38.324 69.3188 37.8317 69.275 37.3503 69.1875C36.8689 69.1 36.4312 68.9359 36.0592 68.6952C35.6872 68.4545 35.3809 68.1372 35.1402 67.7433C34.8995 67.3494 34.7901 66.8352 34.812 66.2006C34.812 66.0037 34.8339 65.7849 34.8667 65.5332C34.9104 65.2816 34.9542 65.019 35.0199 64.7455L36.7485 56.5179H33.9805L34.6369 53.6952H37.3393L38.2912 49.9425L42.5144 49.0234L41.5625 53.6843L41.5406 53.6952Z" fill="#B1B1B1"/>
<path d="M58.4784 69.0485H54.4412L54.9117 66.9041H54.857C53.4894 68.6109 51.695 69.4533 49.474 69.4533C48.008 69.4533 46.892 69.1032 46.1261 68.403C45.3603 67.7028 44.9883 66.6743 44.9883 65.3286C44.9883 65.1754 45.0102 64.9676 45.043 64.7159C45.0867 64.4643 45.1196 64.2126 45.1633 63.961C45.2071 63.6984 45.2509 63.4577 45.2946 63.2389C45.3493 63.0091 45.3931 62.8231 45.4259 62.6919L47.3296 53.6875H51.5528L49.6819 62.6919C49.6382 62.8122 49.6053 62.9544 49.5835 63.1185C49.5506 63.2827 49.5287 63.4577 49.5069 63.6328C49.485 63.8078 49.4631 63.9829 49.4522 64.1579C49.4303 64.322 49.4193 64.4643 49.4193 64.5627C49.4193 65.0223 49.6272 65.3943 50.0539 65.6897C50.4806 65.9851 50.9401 66.1382 51.4325 66.1382C52.067 66.1382 52.625 66.0179 53.1064 65.7662C53.5878 65.5146 54.0145 65.1973 54.3646 64.8034C54.7257 64.4096 55.0101 63.9501 55.229 63.4358C55.4478 62.9216 55.6119 62.3964 55.7322 61.8603L57.45 53.6875H61.6731L58.4675 69.0485H58.4784Z" fill="#B1B1B1"/>
<path d="M64.735 53.697H68.7503L68.1267 56.4541L68.1813 56.5198C68.6518 55.4475 69.3739 54.6489 70.3367 54.1018C71.2995 53.5548 72.3389 53.2812 73.4767 53.2812C73.8925 53.2812 74.3301 53.3141 74.7787 53.3688L73.9144 57.4716C73.619 57.4169 73.3236 57.3513 73.0282 57.2966C72.7328 57.2419 72.4374 57.209 72.131 57.209C71.3214 57.209 70.6321 57.3513 70.0632 57.6248C69.4943 57.8983 69.0238 58.2812 68.6409 58.7517C68.2579 59.2331 67.9516 59.7692 67.7218 60.3709C67.4921 60.9727 67.3061 61.6073 67.1748 62.2528L65.7525 69.058H61.5293L64.735 53.697V53.697Z" fill="#B1B1B1"/>
<path d="M78.4977 62.3997C78.4758 62.5966 78.4649 62.7717 78.4649 62.903V63.2859C78.4649 64.1721 78.7275 64.8942 79.2636 65.4522C79.7997 66.0102 80.6093 66.2837 81.7034 66.2837C82.1082 66.2837 82.4583 66.2181 82.7756 66.0868C83.0929 65.9555 83.3664 65.7914 83.5962 65.5944C83.8369 65.3975 84.0447 65.1678 84.2198 64.9052C84.4058 64.6426 84.5699 64.4019 84.7231 64.1612H88.7603C88.443 65.0365 88.06 65.7914 87.6224 66.4478C87.1848 67.1043 86.6596 67.6513 86.0579 68.0999C85.4452 68.5485 84.7449 68.8767 83.9353 69.1065C83.1257 69.3362 82.1957 69.4456 81.1345 69.4456C80.1498 69.4456 79.2526 69.3034 78.443 69.0189C77.6334 68.7345 76.955 68.3078 76.3861 67.7389C75.8172 67.1699 75.3795 66.4697 75.0623 65.6273C74.745 64.7848 74.5918 63.822 74.5918 62.7279C74.5918 61.5026 74.7778 60.31 75.1607 59.1721C75.5437 58.0343 76.0798 57.0277 76.769 56.1415C77.4583 55.2553 78.3117 54.5551 79.3183 54.0299C80.3248 53.5048 81.4517 53.2422 82.699 53.2422C83.7274 53.2422 84.6574 53.3844 85.4999 53.6579C86.3423 53.9315 87.0644 54.3582 87.6552 54.9161C88.257 55.4851 88.7165 56.1853 89.0447 57.0277C89.3729 57.8702 89.5371 58.8439 89.5371 59.949C89.5371 60.7586 89.4605 61.5682 89.3073 62.3559H78.4758L78.4977 62.3997ZM85.664 59.7301C85.664 59.3363 85.6312 58.9424 85.5655 58.5595C85.4999 58.1765 85.3686 57.8264 85.1826 57.5091C84.9966 57.1918 84.7231 56.9402 84.362 56.7542C84.001 56.5682 83.5305 56.4698 82.9397 56.4698C82.3489 56.4698 81.8675 56.5573 81.4299 56.7323C80.9922 56.9074 80.6093 57.1481 80.292 57.4435C79.9747 57.7389 79.7012 58.089 79.4824 58.4829C79.2636 58.8767 79.0776 59.2925 78.9244 59.7301H85.664V59.7301Z" fill="#B1B1B1"/>
<path d="M100.491 47.8281H104.714L100.196 69.0425H95.9727L100.491 47.8281V47.8281Z" fill="#EEEEEE"/>
<path d="M108.327 62.3841C108.305 62.581 108.294 62.7561 108.294 62.8874V63.2703C108.294 64.1565 108.567 64.8786 109.114 65.4366C109.661 65.9946 110.504 66.2681 111.631 66.2681C112.036 66.2681 112.408 66.2025 112.725 66.0712C113.042 65.9399 113.327 65.7758 113.578 65.5788C113.819 65.3819 114.038 65.1521 114.224 64.8896C114.41 64.627 114.574 64.3863 114.738 64.1456H118.885C118.556 65.0208 118.162 65.7758 117.714 66.4322C117.265 67.0887 116.729 67.6357 116.106 68.0843C115.482 68.5329 114.76 68.8611 113.928 69.0909C113.097 69.3206 112.145 69.43 111.051 69.43C110.033 69.43 109.114 69.2878 108.283 69.0033C107.451 68.7189 106.751 68.2922 106.16 67.7232C105.58 67.1543 105.121 66.4541 104.804 65.6116C104.486 64.7692 104.322 63.8064 104.322 62.7123C104.322 61.4869 104.519 60.2944 104.913 59.1565C105.307 58.0187 105.854 57.0121 106.565 56.1259C107.276 55.2397 108.152 54.5395 109.18 54.0143C110.208 53.4891 111.368 53.2266 112.659 53.2266C113.71 53.2266 114.672 53.3688 115.537 53.6423C116.401 53.9158 117.145 54.3425 117.758 54.9005C118.37 55.4694 118.852 56.1697 119.191 57.0121C119.53 57.8546 119.705 58.8283 119.705 59.9333C119.705 60.743 119.629 61.5526 119.475 62.3403H108.338L108.327 62.3841ZM115.69 59.7145C115.69 59.3206 115.657 58.9268 115.591 58.5438C115.526 58.1609 115.394 57.8108 115.198 57.4935C115.001 57.1762 114.716 56.9246 114.344 56.7386C113.972 56.5526 113.491 56.4541 112.878 56.4541C112.265 56.4541 111.773 56.5417 111.324 56.7167C110.876 56.8918 110.482 57.1325 110.154 57.4279C109.826 57.7233 109.541 58.0734 109.322 58.4672C109.092 58.8611 108.907 59.2769 108.753 59.7145H115.679H115.69Z" fill="#EEEEEE"/>
<path d="M122.789 58.35C122.92 57.3763 123.205 56.5776 123.642 55.9321C124.069 55.2866 124.605 54.7723 125.251 54.3675C125.896 53.9737 126.607 53.6892 127.395 53.5251C128.183 53.361 128.992 53.2734 129.835 53.2734C130.48 53.2734 131.181 53.3172 131.925 53.4266C132.668 53.5251 133.336 53.722 133.949 54.0065C134.561 54.2909 135.065 54.7067 135.458 55.2428C135.852 55.7789 136.038 56.4682 136.016 57.3216C136.016 57.6607 135.984 58.0546 135.929 58.5141C135.874 58.9736 135.798 59.4332 135.699 59.9146L134.375 66.0962C134.299 66.3697 134.244 66.7198 134.222 67.1246C134.189 67.5294 134.178 67.8795 134.178 68.1749C134.178 68.4703 134.222 68.7657 134.321 69.0721H130.24V67.5622C129.682 68.2187 129.003 68.7001 128.183 69.0174C127.373 69.3347 126.542 69.4988 125.699 69.4988C124.857 69.4988 124.189 69.3894 123.588 69.1705C122.986 68.9517 122.483 68.6563 122.078 68.2843C121.673 67.9123 121.378 67.4747 121.17 66.9933C120.973 66.5119 120.863 65.9977 120.863 65.4616C120.863 63.9736 121.367 62.792 122.373 61.8949C123.38 60.9977 124.78 60.4507 126.553 60.2318C127.515 60.1115 128.347 60.024 129.058 59.9693C129.769 59.9146 130.36 59.8161 130.83 59.6848C131.301 59.5535 131.651 59.3675 131.881 59.1159C132.111 58.8642 132.231 58.5032 132.231 57.9999C132.231 57.6279 132.143 57.3106 131.968 57.0699C131.793 56.8183 131.585 56.6323 131.323 56.4901C131.06 56.3478 130.787 56.2603 130.48 56.2056C130.174 56.1509 129.89 56.129 129.649 56.129C128.916 56.129 128.27 56.315 127.69 56.6761C127.111 57.048 126.76 57.606 126.629 58.3828H122.8L122.789 58.35ZM131.41 61.676C130.896 61.9933 130.338 62.1903 129.747 62.2559C129.156 62.3216 128.555 62.3763 127.964 62.42C127.581 62.4638 127.209 62.5185 126.848 62.617C126.487 62.7045 126.159 62.8358 125.885 63.0218C125.612 63.1968 125.382 63.4375 125.207 63.7439C125.032 64.0502 124.944 64.4441 124.944 64.9145C124.944 65.4944 125.174 65.9211 125.623 66.2056C126.071 66.49 126.596 66.6323 127.187 66.6323C127.822 66.6323 128.358 66.5338 128.784 66.315C129.211 66.1071 129.583 65.8445 129.879 65.5163C130.174 65.1881 130.415 64.8161 130.579 64.4003C130.754 63.9846 130.896 63.5688 131.005 63.1531L131.41 61.6651V61.676Z" fill="#EEEEEE"/>
<path d="M140.229 53.6814H144.058L143.468 56.4385L143.522 56.5041C143.971 55.4319 144.66 54.6332 145.579 54.0862C146.498 53.5391 147.494 53.2656 148.566 53.2656C148.96 53.2656 149.376 53.2984 149.813 53.3532L148.993 57.456C148.708 57.4013 148.424 57.3356 148.139 57.2809C147.855 57.2262 147.57 57.1934 147.286 57.1934C146.509 57.1934 145.853 57.3356 145.317 57.6092C144.78 57.8827 144.321 58.2656 143.96 58.7361C143.588 59.2175 143.303 59.7536 143.085 60.3553C142.866 60.9571 142.691 61.5916 142.559 62.2372L141.203 69.0424H137.188L140.24 53.6814H140.229Z" fill="#EEEEEE"/>
<path d="M152.273 53.6814H156.31L155.84 55.8258H155.906C157.273 54.119 159.068 53.2656 161.278 53.2656C162.744 53.2656 163.86 53.6157 164.626 54.3159C165.391 55.0162 165.763 56.0446 165.763 57.3903C165.763 57.5435 165.741 57.7514 165.709 58.003C165.665 58.2547 165.632 58.5063 165.588 58.758C165.545 59.0205 165.501 59.2612 165.435 59.491C165.38 59.7207 165.337 59.9067 165.315 60.038L163.411 69.0424H159.188L161.059 60.038C161.081 59.9177 161.114 59.7755 161.146 59.6113C161.19 59.4472 161.212 59.2722 161.234 59.0862C161.256 58.9111 161.278 58.7361 161.289 58.572C161.31 58.4078 161.321 58.2656 161.321 58.1671C161.321 57.7076 161.103 57.3356 160.687 57.0402C160.26 56.7448 159.801 56.5917 159.308 56.5917C158.674 56.5917 158.116 56.712 157.634 56.9636C157.153 57.2153 156.726 57.5326 156.376 57.9264C156.015 58.3203 155.731 58.7798 155.512 59.2941C155.293 59.8083 155.129 60.3334 155.008 60.8695L153.28 69.0424H149.057L152.262 53.6814H152.273Z" fill="#EEEEEE"/>
<path d="M170.098 53.6815H174.343L171.071 69.0425H166.826L170.098 53.6815ZM174.824 51.3073H170.579L171.356 47.8281H175.601L174.824 51.3073Z" fill="#EEEEEE"/>
<path d="M177.799 53.6814H181.836L181.365 55.8258H181.42C182.788 54.119 184.582 53.2656 186.803 53.2656C188.269 53.2656 189.385 53.6157 190.14 54.3159C190.906 55.0162 191.278 56.0446 191.278 57.3903C191.278 57.5435 191.256 57.7514 191.223 58.003C191.179 58.2547 191.147 58.5063 191.103 58.758C191.059 59.0205 191.015 59.2612 190.961 59.491C190.906 59.7207 190.862 59.9067 190.84 60.038L188.936 69.0424H184.713L186.584 60.038C186.606 59.9177 186.628 59.7755 186.672 59.6113C186.715 59.4472 186.737 59.2722 186.759 59.0862C186.781 58.9111 186.803 58.7361 186.814 58.572C186.836 58.4078 186.847 58.2656 186.847 58.1671C186.847 57.7076 186.639 57.3356 186.212 57.0402C185.785 56.7448 185.326 56.5917 184.834 56.5917C184.199 56.5917 183.641 56.712 183.16 56.9636C182.678 57.2153 182.252 57.5326 181.901 57.9264C181.54 58.3203 181.256 58.7798 181.037 59.2941C180.818 59.8083 180.654 60.3334 180.534 60.8695L178.805 69.0424H174.582L177.788 53.6814H177.799Z" fill="#EEEEEE"/>
<path d="M207.57 68.2437C207.307 69.4144 206.968 70.41 206.531 71.2415C206.093 72.073 205.535 72.7513 204.857 73.2874C204.167 73.8236 203.358 74.2174 202.417 74.48C201.476 74.7426 200.371 74.8629 199.102 74.8629C198.325 74.8629 197.548 74.7754 196.771 74.6004C195.994 74.4253 195.283 74.1299 194.66 73.736C194.036 73.3422 193.522 72.8279 193.128 72.1934C192.734 71.5588 192.537 70.782 192.537 69.852H196.749C196.727 70.2459 196.804 70.585 196.957 70.8586C197.121 71.1321 197.329 71.3619 197.592 71.5369C197.865 71.712 198.161 71.8433 198.5 71.9198C198.839 71.9964 199.178 72.0402 199.506 72.0402C200.185 72.0402 200.743 71.898 201.18 71.6244C201.629 71.3509 202.001 70.968 202.329 70.4975C202.647 70.0271 202.909 69.4581 203.128 68.8017C203.347 68.1452 203.566 67.445 203.784 66.6901L203.73 66.6354C202.636 68.0796 201.235 68.8017 199.506 68.8017C198.598 68.8017 197.778 68.6595 197.045 68.3531C196.312 68.0577 195.688 67.631 195.185 67.073C194.682 66.515 194.288 65.8586 194.014 65.0927C193.741 64.3269 193.598 63.4735 193.598 62.5216C193.598 61.3947 193.773 60.2787 194.113 59.1737C194.463 58.0796 194.966 57.084 195.633 56.2087C196.301 55.3225 197.11 54.6114 198.073 54.0753C199.036 53.5282 200.13 53.2656 201.355 53.2656C202.428 53.2656 203.369 53.4735 204.178 53.8893C204.988 54.305 205.611 55.0162 206.049 56.0227H206.104L206.574 53.6814H210.611L207.548 68.2328L207.57 68.2437ZM202.132 56.4494C201.421 56.4494 200.797 56.6354 200.261 57.0183C199.725 57.3903 199.277 57.8608 198.927 58.4297C198.566 58.9986 198.292 59.6223 198.106 60.3006C197.92 60.979 197.822 61.6354 197.822 62.2481C197.822 62.7076 197.876 63.1343 197.986 63.5391C198.095 63.9439 198.27 64.305 198.5 64.6223C198.741 64.9396 199.036 65.1912 199.386 65.3662C199.747 65.5413 200.174 65.6288 200.666 65.6288C201.421 65.6288 202.078 65.4428 202.646 65.0818C203.204 64.7098 203.675 64.2503 204.047 63.6814C204.408 63.1234 204.692 62.4888 204.878 61.7995C205.064 61.1102 205.163 60.4319 205.163 59.7864C205.163 58.8127 204.911 58.014 204.419 57.3903C203.927 56.7667 203.161 56.4494 202.132 56.4494V56.4494Z" fill="#EEEEEE"/>
<path d="M4.13286 77.1641H5.01907L3.61863 83.7505H2.73242L4.13286 77.1641V77.1641Z" fill="#6D6E71"/>
<path d="M6.24524 78.9813H7.0111L6.85793 79.7034H6.87981C7.07675 79.4299 7.32839 79.222 7.63473 79.0907C7.94108 78.9485 8.25836 78.8828 8.59753 78.8828C9.05705 78.8828 9.39622 78.9813 9.61503 79.1782C9.83385 79.3752 9.94326 79.6815 9.94326 80.1082C9.94326 80.2176 9.93232 80.3489 9.91044 80.513C9.88856 80.6771 9.85573 80.8522 9.80103 81.0382L9.21022 83.7624H8.41154L9.03517 80.9835C9.03517 80.9835 9.05705 80.885 9.06799 80.8194C9.07893 80.7537 9.10081 80.6881 9.10081 80.6115C9.10081 80.5349 9.12269 80.4692 9.13364 80.4036C9.13364 80.3379 9.14458 80.2832 9.14458 80.2395C9.14458 80.0097 9.06799 79.8456 8.90388 79.7362C8.73976 79.6268 8.54283 79.5721 8.30213 79.5721C8.08331 79.5721 7.86449 79.6268 7.65662 79.7253C7.4378 79.8347 7.26274 79.966 7.10957 80.1191C6.96734 80.2395 6.85793 80.3927 6.7704 80.5677C6.69382 80.7428 6.62817 80.9288 6.57347 81.1148L6.01548 83.7515H5.2168L6.2343 78.9813H6.24524Z" fill="#6D6E71"/>
<path d="M11.6405 78.9813H12.4064L12.2532 79.7034H12.2751C12.4721 79.4299 12.7237 79.222 13.03 79.0907C13.3364 78.9485 13.6537 78.8828 13.9928 78.8828C14.4524 78.8828 14.7915 78.9813 15.0103 79.1782C15.2292 79.3752 15.3386 79.6815 15.3386 80.1082C15.3386 80.2176 15.3276 80.3489 15.3057 80.513C15.2839 80.6771 15.251 80.8522 15.2073 81.0382L14.6165 83.7624H13.8178L14.4414 80.9835C14.4414 80.9835 14.4633 80.885 14.4742 80.8194C14.4852 80.7537 14.5071 80.6881 14.5071 80.6115C14.5071 80.5349 14.5289 80.4692 14.5399 80.4036C14.5399 80.3379 14.5508 80.2832 14.5508 80.2395C14.5508 80.0097 14.4633 79.8456 14.3101 79.7362C14.146 79.6268 13.9491 79.5721 13.7084 79.5721C13.4896 79.5721 13.2707 79.6268 13.0629 79.7253C12.844 79.8347 12.669 79.966 12.5158 80.1191C12.3736 80.2395 12.2642 80.3927 12.1767 80.5677C12.1001 80.7428 12.0344 80.9288 11.9797 81.1148L11.4217 83.7515H10.623L11.6405 78.9813V78.9813Z" fill="#6D6E71"/>
<path d="M16.2227 81.8681C16.2227 81.4852 16.2883 81.1023 16.4087 80.7412C16.529 80.3802 16.7041 80.0629 16.9448 79.7784C17.1745 79.5049 17.459 79.2751 17.7981 79.111C18.1373 78.9469 18.5093 78.8594 18.936 78.8594C19.5815 78.8594 20.0848 79.0235 20.4349 79.3627C20.785 79.7018 20.9601 80.1942 20.9601 80.8287C20.9601 81.2117 20.9054 81.5946 20.785 81.9556C20.6647 82.3167 20.4896 82.634 20.2598 82.9184C20.0301 83.192 19.7456 83.4217 19.4174 83.5968C19.0892 83.7609 18.7062 83.8484 18.2795 83.8484C17.9623 83.8484 17.6778 83.7937 17.4262 83.7062C17.1745 83.6077 16.9557 83.4655 16.7916 83.2904C16.6165 83.1154 16.4852 82.8966 16.3868 82.6559C16.2883 82.4152 16.2445 82.1526 16.2445 81.8572L16.2227 81.8681ZM17.0213 81.8681C17.0213 82.262 17.1308 82.5793 17.3605 82.82C17.5903 83.0607 17.9185 83.181 18.3561 83.181C18.6406 83.181 18.9032 83.1044 19.122 82.9622C19.3517 82.82 19.5377 82.634 19.6909 82.4042C19.8441 82.1854 19.9535 81.9338 20.041 81.6712C20.1176 81.4086 20.1614 81.157 20.1614 80.9272C20.1614 80.7412 20.1395 80.5662 20.0848 80.402C20.041 80.2379 19.9535 80.0957 19.855 79.9753C19.7456 79.855 19.6143 79.7565 19.4502 79.6909C19.297 79.6143 19.1001 79.5815 18.8813 79.5815C18.5749 79.5815 18.3124 79.6581 18.0717 79.8003C17.8419 79.9535 17.645 80.1395 17.4918 80.3583C17.3386 80.5771 17.2183 80.8287 17.1417 81.1023C17.0651 81.3758 17.0213 81.6274 17.0213 81.8791V81.8681Z" fill="#6D6E71"/>
<path d="M23.5641 83.7468H22.7108L22.0215 78.9766H22.8639L23.2797 82.9372H23.3016L25.4022 78.9766H26.2666L23.5751 83.7468H23.5641Z" fill="#6D6E71"/>
<path d="M26.8135 80.4177C26.8463 80.1551 26.9338 79.9253 27.0651 79.7284C27.1964 79.5315 27.3496 79.3783 27.5356 79.247C27.7216 79.1157 27.9404 79.0282 28.1701 78.9625C28.4108 78.8969 28.6515 78.875 28.9141 78.875C29.1439 78.875 29.3736 78.8969 29.5815 78.9297C29.8003 78.9625 29.9863 79.0282 30.1504 79.1266C30.3145 79.2142 30.4458 79.3455 30.5443 79.4986C30.6428 79.6518 30.6865 79.8487 30.6865 80.0894C30.6865 80.2207 30.6647 80.3739 30.6318 80.5271C30.599 80.6802 30.5662 80.8225 30.5334 80.9538L30.227 82.2557C30.2051 82.3542 30.1833 82.4636 30.1504 82.584C30.1176 82.7043 30.0957 82.8247 30.0957 82.9341C30.0957 83.0435 30.1176 83.1201 30.1614 83.1638C30.2051 83.2076 30.2598 83.2295 30.3255 83.2295C30.3583 83.2295 30.4021 83.2295 30.4458 83.2076C30.4896 83.1966 30.5334 83.1748 30.5771 83.1638L30.4568 83.7437C30.3911 83.7765 30.3146 83.7984 30.2161 83.8203C30.1176 83.8422 30.041 83.8531 29.9644 83.8531C29.7456 83.8531 29.5815 83.7875 29.4721 83.6671C29.3627 83.5468 29.3189 83.3826 29.3408 83.1748L29.3189 83.1529C29.1548 83.3717 28.936 83.5468 28.6953 83.6671C28.4437 83.7875 28.1154 83.8531 27.6997 83.8531C27.5027 83.8531 27.3058 83.8312 27.1308 83.7765C26.9448 83.7328 26.7916 83.6452 26.6603 83.5468C26.529 83.4373 26.4196 83.2951 26.343 83.131C26.2664 82.9669 26.2227 82.759 26.2227 82.5074C26.2227 82.1573 26.2992 81.8947 26.4524 81.6868C26.6056 81.4899 26.8025 81.3367 27.0432 81.2382C27.2839 81.1398 27.5465 81.0632 27.831 81.0304C28.1154 80.9975 28.3999 80.9647 28.6625 80.9428C28.8704 80.9209 29.0563 80.8991 29.2095 80.8881C29.3627 80.8662 29.494 80.8334 29.5925 80.7787C29.6909 80.7349 29.7675 80.6584 29.8113 80.5708C29.855 80.4833 29.8769 80.352 29.8769 80.1988C29.8769 80.0676 29.8441 79.9691 29.7894 79.8816C29.7237 79.805 29.6472 79.7393 29.5596 79.6956C29.4612 79.6518 29.3627 79.619 29.2423 79.5971C29.122 79.5752 29.0126 79.5643 28.9141 79.5643C28.7609 79.5643 28.6187 79.5752 28.4655 79.608C28.3233 79.6409 28.192 79.6846 28.0717 79.7612C27.9513 79.8269 27.8529 79.9253 27.7763 80.0238C27.6997 80.1332 27.645 80.2645 27.6121 80.4177H26.8135V80.4177ZM27.0213 82.4964C27.0213 82.7152 27.1089 82.8794 27.2839 82.9997C27.459 83.1091 27.6669 83.1638 27.8857 83.1638C28.5202 83.1638 28.9688 82.9559 29.2423 82.5402C29.3736 82.3651 29.4612 82.1682 29.5049 81.9603C29.5487 81.7525 29.6034 81.5336 29.6581 81.3148H29.6362C29.5487 81.3586 29.4502 81.4023 29.3299 81.4352C29.2095 81.468 29.0892 81.5008 28.9469 81.5227C28.8156 81.5446 28.6734 81.5665 28.5202 81.5774C28.3671 81.5883 28.2248 81.6102 28.0826 81.6321C27.9404 81.654 27.7981 81.6759 27.6669 81.7196C27.5356 81.7525 27.4262 81.8072 27.3277 81.8728C27.2292 81.9384 27.1526 82.026 27.0979 82.1244C27.0323 82.2229 27.0104 82.3542 27.0104 82.5074L27.0213 82.4964Z" fill="#6D6E71"/>
<path d="M33.4314 78.977H34.3942L34.241 79.6663H33.2782L32.6765 82.4671C32.6765 82.4671 32.6655 82.5766 32.6546 82.6203C32.6546 82.675 32.6546 82.7188 32.6546 82.7735C32.6546 82.8938 32.6984 82.9814 32.7968 83.0251C32.8953 83.0689 33.0047 83.0908 33.1251 83.0908C33.2126 83.0908 33.2892 83.0908 33.3548 83.0689C33.4314 83.058 33.508 83.0361 33.5846 83.0142L33.4423 83.7363C33.2564 83.7691 33.0704 83.791 32.8844 83.791C32.7312 83.791 32.589 83.7801 32.4686 83.7582C32.3373 83.7363 32.2279 83.6925 32.1294 83.6378C32.031 83.5831 31.9544 83.5065 31.8997 83.4081C31.845 83.3096 31.8122 83.1783 31.8122 83.0251C31.8122 82.9595 31.8122 82.8938 31.8231 82.8282C31.8231 82.7625 31.845 82.6969 31.8559 82.6203L32.4905 79.6553H31.6699L31.8231 78.9661H32.6327L32.9281 77.5547H33.7268L33.4314 78.9661V78.977Z" fill="#6D6E71"/>
<path d="M35.4577 78.9802H36.2564L35.2499 83.7505H34.4512L35.4577 78.9802ZM36.4424 78.1269H35.6328L35.8407 77.1641H36.6503L36.4424 78.1269Z" fill="#6D6E71"/>
<path d="M36.9219 81.8681C36.9219 81.4852 36.9875 81.1023 37.1079 80.7412C37.2282 80.3802 37.4033 80.0629 37.644 79.7784C37.8737 79.5049 38.1582 79.2751 38.4974 79.111C38.8256 78.9469 39.2085 78.8594 39.6352 78.8594C40.2807 78.8594 40.784 79.0235 41.1341 79.3627C41.4842 79.7018 41.6593 80.1942 41.6593 80.8287C41.6593 81.2117 41.5936 81.5946 41.4842 81.9556C41.3639 82.3167 41.1888 82.634 40.9591 82.9184C40.7293 83.192 40.4448 83.4217 40.1166 83.5968C39.7884 83.7609 39.4055 83.8484 38.9788 83.8484C38.6615 83.8484 38.377 83.7937 38.1254 83.7062C37.8737 83.6077 37.6549 83.4655 37.4799 83.2904C37.3048 83.1154 37.1735 82.8966 37.0751 82.6559C36.9875 82.4152 36.9328 82.1526 36.9328 81.8572L36.9219 81.8681ZM37.7206 81.8681C37.7206 82.262 37.83 82.5793 38.0597 82.82C38.2895 83.0607 38.6177 83.181 39.0553 83.181C39.3398 83.181 39.6024 83.1044 39.8212 82.9622C40.051 82.82 40.237 82.634 40.3901 82.4042C40.5433 82.1854 40.6527 81.9338 40.7402 81.6712C40.8168 81.4086 40.8606 81.157 40.8606 80.9272C40.8606 80.7412 40.8387 80.5662 40.784 80.402C40.7293 80.2379 40.6527 80.0957 40.5543 79.9753C40.4448 79.855 40.3136 79.7565 40.1604 79.6909C39.9963 79.6143 39.8103 79.5815 39.5915 79.5815C39.2851 79.5815 39.0225 79.6581 38.7818 79.8003C38.5521 79.9535 38.3551 80.1395 38.202 80.3583C38.0488 80.5771 37.9284 80.8287 37.8519 81.1023C37.7753 81.3758 37.7315 81.6274 37.7315 81.8791L37.7206 81.8681Z" fill="#6D6E71"/>
<path d="M43.3003 78.9813H44.0662L43.913 79.7034H43.9349C44.1318 79.4299 44.3835 79.222 44.6898 79.0907C44.9962 78.9485 45.3134 78.8828 45.6526 78.8828C46.1121 78.8828 46.4513 78.9813 46.6701 79.1782C46.8889 79.3752 46.9983 79.6815 46.9983 80.1082C46.9983 80.2176 46.9874 80.3489 46.9546 80.513C46.9327 80.6771 46.8999 80.8522 46.8561 81.0382L46.2653 83.7624H45.4666L46.0793 80.9835C46.0793 80.9835 46.1012 80.885 46.1121 80.8194C46.1231 80.7537 46.145 80.6881 46.145 80.6115C46.145 80.5349 46.1668 80.4692 46.1778 80.4036C46.1778 80.3379 46.1887 80.2832 46.1887 80.2395C46.1887 80.0097 46.1121 79.8456 45.948 79.7362C45.7839 79.6268 45.587 79.5721 45.3463 79.5721C45.1275 79.5721 44.9086 79.6268 44.6898 79.7253C44.471 79.8347 44.2959 79.966 44.1428 80.1191C44.0005 80.2395 43.8911 80.3927 43.8036 80.5677C43.727 80.7428 43.6614 80.9288 43.6067 81.1148L43.0487 83.7515H42.25L43.2675 78.9813H43.3003Z" fill="#6D6E71"/>
<path d="M51.0346 80.3848C51.0346 80.2535 51.0237 80.1332 50.969 80.0238C50.9143 79.9253 50.8487 79.8378 50.7502 79.7612C50.6627 79.6846 50.5423 79.6409 50.422 79.608C50.3016 79.5752 50.1703 79.5533 50.0281 79.5533C49.9077 79.5533 49.7764 79.5533 49.6561 79.5862C49.5358 79.608 49.4263 79.6409 49.3279 79.6846C49.2294 79.7284 49.1528 79.794 49.0872 79.8706C49.0215 79.9472 48.9887 80.0457 48.9887 80.166C48.9887 80.2754 49.0215 80.3739 49.0981 80.4505C49.1747 80.5271 49.2622 80.6037 49.3935 80.6693C49.5139 80.735 49.6561 80.8006 49.7983 80.8553C49.9515 80.91 50.1047 80.9756 50.2688 81.0304C50.422 81.096 50.5861 81.1726 50.7392 81.2492C50.8924 81.3258 51.0347 81.4133 51.155 81.5227C51.2754 81.6321 51.3738 81.7525 51.4504 81.8837C51.527 82.026 51.5598 82.1791 51.5598 82.3651C51.5598 82.6277 51.4942 82.8575 51.3848 83.0435C51.2644 83.2295 51.1112 83.3826 50.9252 83.503C50.7392 83.6233 50.5204 83.7109 50.2907 83.7656C50.05 83.8203 49.8202 83.8531 49.5905 83.8531C49.3169 83.8531 49.0544 83.8312 48.8137 83.7656C48.573 83.7109 48.3651 83.6233 48.19 83.4921C48.015 83.3717 47.8837 83.2076 47.7743 82.9997C47.6758 82.7918 47.6211 82.5402 47.6211 82.2229H48.4198C48.4088 82.4089 48.4307 82.5511 48.4964 82.6715C48.562 82.7918 48.6495 82.8794 48.7699 82.956C48.8902 83.0216 49.0215 83.0763 49.1747 83.1091C49.3279 83.1419 49.492 83.1529 49.6561 83.1529C49.7874 83.1529 49.9187 83.1419 50.05 83.1201C50.1813 83.0982 50.3016 83.0544 50.4001 82.9997C50.5095 82.945 50.597 82.8684 50.6627 82.77C50.7283 82.6824 50.7611 82.5621 50.7611 82.4308C50.7611 82.3104 50.7283 82.212 50.6517 82.1354C50.5751 82.0479 50.4876 81.9713 50.3563 81.9056C50.236 81.84 50.0937 81.7743 49.9406 81.7196C49.7874 81.6649 49.6342 81.5993 49.481 81.5336C49.3169 81.468 49.1638 81.4023 49.0106 81.3258C48.8574 81.2492 48.7152 81.1616 48.5948 81.0632C48.4745 80.9647 48.376 80.8444 48.2994 80.7131C48.2228 80.5818 48.19 80.4177 48.19 80.2426C48.19 80.0238 48.2447 79.8269 48.3432 79.6518C48.4526 79.4767 48.5839 79.3345 48.748 79.2251C48.9121 79.1157 49.1091 79.0282 49.3279 78.9625C49.5467 78.8969 49.7655 78.875 49.9843 78.875C50.2031 78.875 50.4329 78.8969 50.6517 78.9516C50.8705 79.0063 51.0675 79.0938 51.2425 79.2142C51.4176 79.3345 51.5489 79.4877 51.6583 79.6846C51.7677 79.8816 51.8115 80.1113 51.8115 80.3848H51.0128H51.0346Z" fill="#6D6E71"/>
<path d="M56.1667 78.9802H56.9654L55.9588 83.7505H55.1602L56.1667 78.9802ZM57.1514 78.1269H56.3418L56.5496 77.1641H57.3593L57.1514 78.1269Z" fill="#6D6E71"/>
<path d="M58.4437 78.9813H59.2095L59.0564 79.7034H59.0783C59.2752 79.4299 59.5268 79.222 59.8332 79.0907C60.1395 78.9485 60.4568 78.8828 60.796 78.8828C61.2555 78.8828 61.5947 78.9813 61.8135 79.1782C62.0323 79.3752 62.1417 79.6815 62.1417 80.1082C62.1417 80.2176 62.1308 80.3489 62.1089 80.513C62.087 80.6771 62.0542 80.8522 62.0104 81.0382L61.4196 83.7624H60.6209L61.2336 80.9835C61.2336 80.9835 61.2555 80.885 61.2664 80.8194C61.2774 80.7537 61.2993 80.6881 61.2993 80.6115C61.2993 80.5349 61.3211 80.4692 61.3321 80.4036C61.3321 80.3379 61.343 80.2832 61.343 80.2395C61.343 80.0097 61.2555 79.8456 61.1023 79.7362C60.9382 79.6268 60.7413 79.5721 60.5006 79.5721C60.2818 79.5721 60.0629 79.6268 59.8441 79.7253C59.6253 79.8347 59.4502 79.966 59.2971 80.1191C59.1548 80.2395 59.0345 80.3927 58.9579 80.5677C58.8813 80.7428 58.8157 80.9288 58.761 81.1148L58.203 83.7515H57.4043L58.4218 78.9813H58.4437Z" fill="#6D6E71"/>
<path d="M67.0106 77.1641H67.8093L67.2403 79.6805L67.2622 79.7023C67.4592 79.4288 67.7108 79.2209 68.0171 79.0897C68.3235 78.9474 68.6408 78.8818 68.9799 78.8818C69.4395 78.8818 69.7786 78.9803 69.9974 79.1772C70.2163 79.3741 70.3257 79.6805 70.3257 80.1072C70.3257 80.2166 70.3147 80.3479 70.2928 80.512C70.271 80.6761 70.2381 80.8511 70.1944 81.0371L69.6036 83.7614H68.8049L69.4285 80.9824C69.4285 80.9824 69.4504 80.884 69.4613 80.8183C69.4723 80.7527 69.4942 80.687 69.5051 80.6104C69.5051 80.5339 69.527 80.4682 69.5379 80.4026C69.5379 80.3369 69.5489 80.2822 69.5489 80.2385C69.5489 80.0087 69.4723 79.8446 69.3082 79.7352C69.1441 79.6258 68.9471 79.5711 68.7064 79.5711C68.4876 79.5711 68.2688 79.6258 68.0609 79.7242C67.8421 79.8336 67.667 79.9649 67.5139 80.1181C67.3716 80.2385 67.2622 80.3916 67.1747 80.5667C67.0981 80.7417 67.0325 80.9277 66.9778 81.1137L66.4198 83.7505H65.6211L67.0325 77.1641H67.0106Z" fill="#6D6E71"/>
<path d="M74.8894 83.7468H74.1236L74.2767 83.0247H74.2549C74.0579 83.2982 73.8063 83.5061 73.4999 83.6483C73.1936 83.7906 72.8763 83.8562 72.5371 83.8562C72.0776 83.8562 71.7385 83.7577 71.5196 83.5608C71.3008 83.3639 71.1914 83.0575 71.1914 82.6308C71.1914 82.5324 71.2023 82.3901 71.2242 82.226C71.2461 82.0619 71.2899 81.8868 71.3227 81.7008L71.9135 78.9766H72.7122L72.0995 81.7665C72.0995 81.7665 72.0776 81.865 72.0667 81.9306C72.0557 81.9962 72.0448 82.0619 72.0339 82.1385C72.0339 82.2041 72.012 82.2807 72.001 82.3464C72.001 82.412 71.9901 82.4667 71.9901 82.5105C71.9901 82.7402 72.0667 82.9043 72.2308 83.0137C72.3949 83.1232 72.5918 83.1779 72.8325 83.1779C73.0514 83.1779 73.2592 83.1341 73.4452 83.0466C73.6422 82.959 73.8063 82.8496 73.9594 82.6965C74.1126 82.5542 74.233 82.3901 74.3424 82.2041C74.4518 82.0181 74.5174 81.8212 74.5612 81.6243L75.1192 78.9875H75.9179L74.9004 83.7577L74.8894 83.7468Z" fill="#6D6E71"/>
<path d="M77.414 78.9844H78.158L77.9829 79.6956L78.0048 79.7174C78.2127 79.4658 78.4534 79.2579 78.7488 79.1048C79.0442 78.9516 79.3505 78.875 79.6897 78.875C79.996 78.875 80.2586 78.9406 80.4774 79.0719C80.6963 79.2032 80.8385 79.422 80.9041 79.7393C81.0901 79.4767 81.3308 79.2689 81.6262 79.1157C81.9216 78.9625 82.228 78.8859 82.5562 78.8859C82.7203 78.8859 82.8954 78.9078 83.0485 78.9406C83.2127 78.9844 83.3549 79.0391 83.4862 79.1266C83.6175 79.2142 83.7159 79.3236 83.7925 79.4549C83.8691 79.5971 83.9019 79.7612 83.9019 79.9472C83.9019 80.0894 83.8801 80.2535 83.8582 80.4286C83.8253 80.6037 83.7925 80.7678 83.7597 80.8991L83.147 83.7546H82.3483L83.0267 80.7349C83.0485 80.6584 83.0595 80.5708 83.0814 80.4724C83.0923 80.3739 83.1032 80.2864 83.1032 80.2207C83.1032 80.0347 83.0376 79.8816 82.8954 79.7612C82.7531 79.6409 82.5781 79.5752 82.3702 79.5752C82.2608 79.5752 82.1405 79.5971 82.031 79.6299C81.9107 79.6627 81.8013 79.7174 81.7028 79.7722C81.5934 79.8269 81.4949 79.9034 81.4074 79.98C81.3089 80.0566 81.2324 80.1441 81.1667 80.2317C81.0354 80.3739 80.937 80.538 80.8822 80.724C80.8166 80.91 80.7619 81.1069 80.7181 81.3039L80.182 83.7656H79.3834L79.9632 81.0413C80.007 80.8553 80.0398 80.6802 80.0726 80.5271C80.1054 80.363 80.1164 80.2645 80.1164 80.2098C80.1164 80.0128 80.0617 79.8597 79.9413 79.7503C79.821 79.6409 79.6569 79.5862 79.438 79.5862C79.3286 79.5862 79.2192 79.608 79.1098 79.6409C79.0004 79.6737 78.891 79.7174 78.7925 79.7722C78.6941 79.8269 78.5956 79.8925 78.4971 79.9691C78.3987 80.0457 78.3221 80.1223 78.2564 80.1988C78.0923 80.363 77.972 80.5161 77.9063 80.6802C77.8407 80.8444 77.786 81.0413 77.7422 81.2711L77.1952 83.7656H76.3965L77.4249 78.9953L77.414 78.9844Z" fill="#6D6E71"/>
<path d="M85.0947 80.4177C85.1275 80.1551 85.2151 79.9253 85.3464 79.7284C85.4776 79.5315 85.6308 79.3783 85.8168 79.247C86.0028 79.1157 86.2216 79.0282 86.4514 78.9625C86.6921 78.8969 86.9328 78.875 87.1954 78.875C87.4251 78.875 87.6549 78.8969 87.8628 78.9297C88.0816 78.9625 88.2676 79.0282 88.4317 79.1266C88.5958 79.2142 88.7271 79.3455 88.8256 79.4986C88.924 79.6518 88.9678 79.8487 88.9678 80.0894C88.9678 80.2207 88.9568 80.3739 88.9131 80.5271C88.8803 80.6802 88.8474 80.8225 88.8146 80.9538L88.5083 82.2557C88.4864 82.3542 88.4645 82.4636 88.4317 82.584C88.3989 82.7043 88.377 82.8247 88.377 82.9341C88.377 83.0435 88.3989 83.1201 88.4426 83.1638C88.4864 83.2076 88.5411 83.2295 88.6067 83.2295C88.6396 83.2295 88.6833 83.2295 88.7271 83.2076C88.7708 83.1966 88.8146 83.1748 88.8584 83.1638L88.738 83.7437C88.6724 83.7765 88.5958 83.7984 88.4973 83.8203C88.3989 83.8422 88.3223 83.8531 88.2457 83.8531C88.0269 83.8531 87.8628 83.7875 87.7533 83.6671C87.6439 83.5468 87.6002 83.3826 87.6221 83.1748L87.6002 83.1529C87.4251 83.3717 87.2172 83.5468 86.9765 83.6671C86.7249 83.7875 86.3967 83.8531 85.9809 83.8531C85.784 83.8531 85.587 83.8312 85.412 83.7765C85.2369 83.7328 85.0728 83.6452 84.9415 83.5468C84.8102 83.4373 84.7008 83.2951 84.6242 83.131C84.5477 82.9669 84.5039 82.759 84.5039 82.5074C84.5039 82.1573 84.5805 81.8947 84.7337 81.6868C84.8868 81.4899 85.0838 81.3367 85.3245 81.2382C85.5652 81.1398 85.8277 81.0632 86.1122 81.0304C86.3967 80.9975 86.6811 80.9647 86.9437 80.9428C87.1516 80.9209 87.3376 80.8991 87.4908 80.8881C87.6439 80.8662 87.7643 80.8334 87.8737 80.7787C87.9722 80.7349 88.0488 80.6584 88.0925 80.5708C88.1363 80.4833 88.1582 80.352 88.1582 80.1988C88.1582 80.0676 88.1253 79.9691 88.0597 79.8816C87.994 79.805 87.9175 79.7393 87.8299 79.6956C87.7315 79.6518 87.633 79.619 87.5127 79.5971C87.3923 79.5752 87.2829 79.5643 87.1844 79.5643C87.0312 79.5643 86.889 79.5752 86.7358 79.608C86.5936 79.6409 86.4623 79.6846 86.342 79.7612C86.2216 79.8269 86.1232 79.9253 86.0466 80.0238C85.97 80.1332 85.9153 80.2645 85.8934 80.4177H85.0947V80.4177ZM85.3026 82.4964C85.3026 82.7152 85.3901 82.8794 85.5652 82.9997C85.7402 83.1091 85.9481 83.1638 86.1669 83.1638C86.8015 83.1638 87.2501 82.9559 87.5236 82.5402C87.6549 82.3651 87.7424 82.1682 87.7862 81.9603C87.8299 81.7525 87.8846 81.5336 87.9393 81.3148H87.9175C87.8299 81.3586 87.7315 81.4023 87.6111 81.4352C87.4908 81.468 87.3595 81.5008 87.2282 81.5227C87.0969 81.5446 86.9547 81.5665 86.8015 81.5774C86.6483 81.5883 86.5061 81.6102 86.3639 81.6321C86.2216 81.654 86.0794 81.6759 85.9481 81.7196C85.8168 81.7525 85.6965 81.8072 85.6089 81.8728C85.5105 81.9384 85.4339 82.026 85.3792 82.1244C85.3245 82.2229 85.2916 82.3542 85.2916 82.5074L85.3026 82.4964Z" fill="#6D6E71"/>
<path d="M90.6222 78.9813H91.3881L91.2349 79.7034H91.2568C91.4537 79.4299 91.7053 79.222 92.0117 79.0907C92.318 78.9485 92.6353 78.8828 92.9745 78.8828C93.434 78.8828 93.7732 78.9813 93.992 79.1782C94.2108 79.3752 94.3312 79.6815 94.3312 80.1082C94.3312 80.2176 94.3202 80.3489 94.2874 80.513C94.2655 80.6771 94.2327 80.8522 94.1889 81.0382L93.5981 83.7624H92.7994L93.4121 80.9835C93.4121 80.9835 93.434 80.885 93.4449 80.8194C93.4559 80.7537 93.4778 80.6881 93.4778 80.6115C93.4778 80.5349 93.4996 80.4692 93.5106 80.4036C93.5106 80.3379 93.5215 80.2832 93.5215 80.2395C93.5215 80.0097 93.4449 79.8456 93.2808 79.7362C93.1167 79.6268 92.9198 79.5721 92.6791 79.5721C92.4603 79.5721 92.2414 79.6268 92.0336 79.7253C91.8148 79.8347 91.6397 79.966 91.4865 80.1191C91.3443 80.2395 91.2349 80.3927 91.1474 80.5677C91.0598 80.7428 91.0051 80.9288 90.9504 81.1148L90.3924 83.7515H89.5938L90.6113 78.9813H90.6222Z" fill="#6D6E71"/>
<path d="M102.098 83.7474H101.354L101.518 83.069H101.496C101.255 83.3754 101.015 83.5832 100.763 83.6926C100.511 83.8021 100.227 83.8568 99.8986 83.8568C99.5704 83.8568 99.3188 83.813 99.0781 83.7145C98.8483 83.6161 98.6404 83.4848 98.4873 83.3097C98.3231 83.1347 98.2028 82.9268 98.1262 82.697C98.0496 82.4563 98.0059 82.1937 98.0059 81.8983C98.0059 81.5373 98.0715 81.1762 98.1919 80.8152C98.3122 80.4541 98.4873 80.1259 98.717 79.8415C98.9468 79.557 99.2203 79.3163 99.5595 79.1412C99.8986 78.9552 100.271 78.8677 100.697 78.8677C100.85 78.8677 101.004 78.8787 101.157 78.9115C101.31 78.9443 101.463 78.9881 101.605 79.0537C101.748 79.1194 101.868 79.2069 101.977 79.3163C102.087 79.4257 102.163 79.557 102.207 79.7211H102.229L102.743 77.1719H103.531L102.12 83.7583L102.098 83.7474ZM98.7936 81.9093C98.7936 82.2922 98.8921 82.5986 99.089 82.8283C99.2859 83.0581 99.6032 83.1675 100.041 83.1675C100.336 83.1675 100.61 83.0909 100.85 82.9377C101.091 82.7846 101.288 82.5876 101.441 82.3579C101.594 82.1281 101.726 81.8655 101.802 81.592C101.89 81.3185 101.934 81.0559 101.934 80.7933C101.934 80.4323 101.824 80.1369 101.616 79.9071C101.408 79.6773 101.102 79.557 100.708 79.557C100.391 79.557 100.107 79.6336 99.8768 79.7758C99.6361 79.918 99.4391 80.104 99.275 80.3338C99.1109 80.5636 98.9905 80.8152 98.914 81.0887C98.8374 81.3622 98.7936 81.6358 98.7936 81.8983V81.9093Z" fill="#6D6E71"/>
<path d="M104.492 81.5993C104.471 81.7415 104.46 81.8728 104.46 82.015C104.46 82.201 104.492 82.3651 104.558 82.5074C104.624 82.6496 104.722 82.77 104.843 82.8684C104.963 82.9669 105.094 83.0435 105.247 83.0872C105.401 83.1419 105.554 83.1638 105.718 83.1638C106.068 83.1638 106.363 83.0872 106.593 82.9341C106.823 82.7809 106.998 82.5511 107.118 82.2557H107.917C107.851 82.5183 107.753 82.7481 107.611 82.956C107.468 83.1529 107.304 83.317 107.118 83.4592C106.921 83.5905 106.713 83.6999 106.473 83.7656C106.232 83.8312 105.991 83.864 105.729 83.864C105.324 83.864 104.996 83.7984 104.733 83.678C104.471 83.5577 104.263 83.4045 104.099 83.2076C103.945 83.0216 103.836 82.8137 103.77 82.584C103.705 82.3651 103.672 82.1463 103.672 81.9384C103.672 81.4789 103.738 81.0632 103.869 80.6912C104 80.3192 104.186 79.991 104.416 79.7174C104.646 79.4439 104.908 79.236 105.215 79.0938C105.521 78.9406 105.838 78.875 106.166 78.875C106.878 78.875 107.392 79.061 107.72 79.422C108.048 79.794 108.212 80.3083 108.212 80.9756C108.212 81.096 108.212 81.2163 108.18 81.3258C108.158 81.4352 108.147 81.5227 108.136 81.5993H104.492V81.5993ZM107.414 80.91C107.425 80.7459 107.414 80.5818 107.381 80.4177C107.348 80.2536 107.282 80.1113 107.195 79.98C107.107 79.8487 106.987 79.7503 106.834 79.6737C106.681 79.5971 106.495 79.5533 106.276 79.5533C106.035 79.5533 105.827 79.5862 105.652 79.6627C105.477 79.7284 105.313 79.8269 105.182 79.9581C105.05 80.0785 104.93 80.2207 104.832 80.3848C104.733 80.549 104.657 80.724 104.602 80.8991H107.414V80.91Z" fill="#6D6E71"/>
<path d="M110.73 83.7468H109.877L109.188 78.9766H110.03L110.446 82.9372H110.468L112.568 78.9766H113.433L110.741 83.7468H110.73Z" fill="#6D6E71"/>
<path d="M114.396 81.5993C114.374 81.7415 114.363 81.8728 114.363 82.015C114.363 82.201 114.396 82.3651 114.461 82.5074C114.527 82.6496 114.625 82.77 114.746 82.8684C114.866 82.9669 114.997 83.0435 115.15 83.0872C115.304 83.1419 115.457 83.1638 115.621 83.1638C115.971 83.1638 116.266 83.0872 116.496 82.9341C116.726 82.7809 116.901 82.5511 117.021 82.2557H117.82C117.754 82.5183 117.656 82.7481 117.525 82.956C117.382 83.1529 117.218 83.317 117.032 83.4592C116.835 83.5905 116.628 83.6999 116.387 83.7656C116.146 83.8312 115.894 83.864 115.643 83.864C115.238 83.864 114.91 83.7984 114.647 83.678C114.385 83.5577 114.166 83.4045 114.013 83.2076C113.859 83.0216 113.75 82.8137 113.684 82.584C113.619 82.3651 113.586 82.1463 113.586 81.9384C113.586 81.4789 113.652 81.0632 113.783 80.6912C113.914 80.3192 114.1 79.991 114.33 79.7174C114.56 79.4439 114.822 79.236 115.129 79.0938C115.435 78.9406 115.752 78.875 116.08 78.875C116.792 78.875 117.317 79.061 117.634 79.422C117.962 79.794 118.126 80.3083 118.126 80.9756C118.126 81.096 118.126 81.2163 118.094 81.3258C118.072 81.4352 118.061 81.5227 118.05 81.5993H114.407H114.396ZM117.317 80.91C117.328 80.7459 117.317 80.5818 117.284 80.4177C117.251 80.2536 117.185 80.1113 117.098 79.98C117.01 79.8487 116.89 79.7503 116.737 79.6737C116.584 79.5971 116.398 79.5533 116.179 79.5533C115.938 79.5533 115.73 79.5862 115.555 79.6627C115.38 79.7284 115.216 79.8269 115.085 79.9581C114.954 80.0785 114.833 80.2207 114.735 80.3848C114.636 80.549 114.56 80.724 114.505 80.8991H117.317V80.91Z" fill="#6D6E71"/>
<path d="M120.051 77.1641H120.85L119.449 83.7505H118.65L120.051 77.1641V77.1641Z" fill="#6D6E71"/>
<path d="M121.125 81.8681C121.125 81.4852 121.191 81.1023 121.311 80.7412C121.431 80.3802 121.606 80.0629 121.847 79.7784C122.077 79.5049 122.361 79.2751 122.7 79.111C123.029 78.9469 123.412 78.8594 123.838 78.8594C124.484 78.8594 124.987 79.0235 125.326 79.3627C125.676 79.7018 125.851 80.1942 125.851 80.8287C125.851 81.2117 125.797 81.5946 125.676 81.9556C125.556 82.3167 125.381 82.634 125.151 82.9184C124.921 83.192 124.637 83.4217 124.309 83.5968C123.981 83.7609 123.598 83.8484 123.171 83.8484C122.854 83.8484 122.569 83.7937 122.318 83.7062C122.066 83.6077 121.847 83.4655 121.672 83.2904C121.497 83.1154 121.366 82.8966 121.267 82.6559C121.169 82.4152 121.125 82.1526 121.125 81.8572V81.8681ZM121.924 81.8681C121.924 82.262 122.033 82.5793 122.263 82.82C122.493 83.0607 122.821 83.181 123.258 83.181C123.543 83.181 123.806 83.1044 124.024 82.9622C124.243 82.82 124.44 82.634 124.593 82.4042C124.746 82.1854 124.867 81.9338 124.943 81.6712C125.02 81.4086 125.064 81.157 125.064 80.9272C125.064 80.7412 125.042 80.5662 124.987 80.402C124.932 80.2379 124.856 80.0957 124.757 79.9753C124.648 79.855 124.517 79.7565 124.364 79.6909C124.199 79.6143 124.013 79.5815 123.795 79.5815C123.488 79.5815 123.215 79.6581 122.985 79.8003C122.755 79.9535 122.558 80.1395 122.405 80.3583C122.252 80.5771 122.132 80.8287 122.055 81.1023C121.978 81.3758 121.935 81.6274 121.935 81.8791L121.924 81.8681Z" fill="#6D6E71"/>
<path d="M127.482 78.9844H128.226L128.062 79.6627H128.084C128.325 79.3564 128.565 79.1485 128.817 79.0391C129.069 78.9297 129.364 78.875 129.681 78.875C129.988 78.875 130.261 78.9188 130.491 79.0172C130.732 79.1157 130.928 79.247 131.093 79.422C131.257 79.5971 131.377 79.794 131.454 80.0347C131.53 80.2754 131.574 80.538 131.574 80.8334C131.574 81.1945 131.519 81.5555 131.388 81.9166C131.268 82.2776 131.093 82.5949 130.863 82.8903C130.633 83.1748 130.349 83.4155 130.02 83.5905C129.692 83.7765 129.309 83.864 128.883 83.864C128.729 83.864 128.576 83.8531 128.423 83.8203C128.27 83.7875 128.117 83.7437 127.974 83.678C127.832 83.6124 127.712 83.5249 127.602 83.4155C127.493 83.3061 127.416 83.1748 127.373 83.0107H127.351L126.837 85.5599H126.049L127.46 78.9625L127.482 78.9844ZM130.786 80.8334C130.786 80.4395 130.688 80.1332 130.491 79.9144C130.294 79.6846 129.977 79.5752 129.539 79.5752C129.244 79.5752 128.97 79.6518 128.729 79.805C128.489 79.9581 128.292 80.1551 128.139 80.3848C127.974 80.6146 127.854 80.8772 127.777 81.1507C127.69 81.4352 127.646 81.6977 127.646 81.9384C127.646 82.2995 127.756 82.5949 127.963 82.8247C128.171 83.0544 128.478 83.1748 128.872 83.1748C129.189 83.1748 129.462 83.0982 129.703 82.956C129.944 82.8137 130.141 82.6277 130.305 82.398C130.469 82.1682 130.589 81.9166 130.666 81.643C130.742 81.3695 130.786 81.096 130.786 80.8334V80.8334Z" fill="#6D6E71"/>
<path d="M133.244 78.9844H133.988L133.813 79.6956L133.835 79.7174C134.043 79.4658 134.283 79.2579 134.579 79.1048C134.863 78.9516 135.181 78.875 135.52 78.875C135.826 78.875 136.089 78.9406 136.308 79.0719C136.526 79.2032 136.669 79.422 136.734 79.7393C136.92 79.4767 137.161 79.2689 137.456 79.1157C137.752 78.9625 138.058 78.8859 138.386 78.8859C138.55 78.8859 138.715 78.9078 138.879 78.9406C139.043 78.9844 139.185 79.0391 139.316 79.1266C139.448 79.2142 139.546 79.3236 139.623 79.4549C139.699 79.5971 139.732 79.7612 139.732 79.9472C139.732 80.0894 139.721 80.2535 139.688 80.4286C139.655 80.6037 139.623 80.7678 139.601 80.8991L138.988 83.7546H138.189L138.868 80.7349C138.89 80.6584 138.9 80.5708 138.922 80.4724C138.933 80.3739 138.944 80.2864 138.944 80.2207C138.944 80.0347 138.879 79.8816 138.736 79.7612C138.594 79.6409 138.419 79.5752 138.211 79.5752C138.102 79.5752 137.981 79.5971 137.872 79.6299C137.752 79.6627 137.642 79.7174 137.544 79.7722C137.434 79.8269 137.336 79.9034 137.248 79.98C137.15 80.0566 137.073 80.1441 137.008 80.2317C136.876 80.3739 136.778 80.538 136.712 80.724C136.647 80.91 136.592 81.1069 136.548 81.3039L136.012 83.7656H135.213L135.793 81.0413C135.837 80.8553 135.87 80.6802 135.903 80.5271C135.936 80.363 135.946 80.2645 135.946 80.2098C135.946 80.0128 135.892 79.8597 135.771 79.7503C135.651 79.6409 135.487 79.5862 135.268 79.5862C135.159 79.5862 135.049 79.608 134.94 79.6409C134.83 79.6737 134.721 79.7174 134.623 79.7722C134.524 79.8269 134.426 79.8925 134.327 79.9691C134.24 80.0457 134.152 80.1223 134.087 80.1988C133.922 80.363 133.802 80.5161 133.736 80.6802C133.671 80.8444 133.616 81.0413 133.572 81.2711L133.025 83.7656H132.227L133.255 78.9953L133.244 78.9844Z" fill="#6D6E71"/>
<path d="M141.344 81.5993C141.322 81.7415 141.311 81.8728 141.311 82.015C141.311 82.201 141.344 82.3651 141.409 82.5074C141.475 82.6496 141.573 82.77 141.694 82.8684C141.814 82.9669 141.945 83.0435 142.099 83.0872C142.252 83.1419 142.405 83.1638 142.569 83.1638C142.919 83.1638 143.204 83.0872 143.444 82.9341C143.674 82.7809 143.849 82.5511 143.969 82.2557H144.768C144.702 82.5183 144.604 82.7481 144.473 82.956C144.33 83.1529 144.166 83.317 143.98 83.4592C143.783 83.5905 143.576 83.6999 143.335 83.7656C143.094 83.8312 142.843 83.864 142.591 83.864C142.186 83.864 141.858 83.7984 141.595 83.678C141.333 83.5577 141.114 83.4045 140.961 83.2076C140.807 83.0216 140.698 82.8137 140.632 82.584C140.567 82.3651 140.545 82.1463 140.545 81.9384C140.545 81.4789 140.611 81.0632 140.742 80.6912C140.873 80.3192 141.059 79.991 141.289 79.7174C141.519 79.4439 141.781 79.236 142.088 79.0938C142.394 78.9406 142.711 78.875 143.039 78.875C143.751 78.875 144.276 79.061 144.604 79.422C144.932 79.794 145.096 80.3083 145.096 80.9756C145.096 81.096 145.096 81.2163 145.063 81.3258C145.042 81.4352 145.031 81.5227 145.02 81.5993H141.376H141.344ZM144.265 80.91C144.265 80.7459 144.265 80.5818 144.232 80.4177C144.199 80.2536 144.134 80.1113 144.046 79.98C143.958 79.8487 143.838 79.7503 143.685 79.6737C143.532 79.5971 143.346 79.5533 143.127 79.5533C142.886 79.5533 142.678 79.5862 142.503 79.6627C142.317 79.7284 142.164 79.8269 142.033 79.9581C141.902 80.0785 141.781 80.2207 141.683 80.3848C141.584 80.549 141.508 80.724 141.453 80.8991H144.265V80.91Z" fill="#6D6E71"/>
<path d="M146.615 78.9813H147.381L147.228 79.7034H147.25C147.447 79.4299 147.698 79.222 148.005 79.0907C148.311 78.9485 148.628 78.8828 148.967 78.8828C149.427 78.8828 149.766 78.9813 149.985 79.1782C150.204 79.3752 150.313 79.6815 150.313 80.1082C150.313 80.2176 150.302 80.3489 150.28 80.513C150.258 80.6771 150.226 80.8522 150.182 81.0382L149.591 83.7624H148.792L149.416 80.9835C149.416 80.9835 149.427 80.885 149.449 80.8194C149.46 80.7537 149.482 80.6881 149.482 80.6115C149.482 80.5349 149.504 80.4692 149.514 80.4036C149.514 80.3379 149.525 80.2832 149.525 80.2395C149.525 80.0097 149.449 79.8456 149.285 79.7362C149.121 79.6268 148.924 79.5721 148.683 79.5721C148.464 79.5721 148.245 79.6268 148.037 79.7253C147.819 79.8347 147.644 79.966 147.49 80.1191C147.348 80.2395 147.239 80.3927 147.151 80.5677C147.075 80.7428 147.009 80.9288 146.954 81.1148L146.396 83.7515H145.598L146.615 78.9813V78.9813Z" fill="#6D6E71"/>
<path d="M153.103 78.977H154.066L153.913 79.6663H152.95L152.348 82.4671C152.348 82.4671 152.337 82.5766 152.326 82.6203C152.326 82.675 152.326 82.7188 152.326 82.7735C152.326 82.8938 152.37 82.9814 152.469 83.0251C152.567 83.0689 152.677 83.0908 152.797 83.0908C152.874 83.0908 152.961 83.0908 153.027 83.0689C153.103 83.058 153.18 83.0361 153.256 83.0142L153.114 83.7363C152.928 83.7691 152.742 83.791 152.556 83.791C152.403 83.791 152.261 83.7801 152.13 83.7582C151.998 83.7363 151.889 83.6925 151.79 83.6378C151.692 83.5831 151.615 83.5065 151.561 83.4081C151.506 83.3096 151.473 83.1783 151.473 83.0251C151.473 82.9595 151.473 82.8938 151.484 82.8282C151.484 82.7625 151.506 82.6969 151.517 82.6203L152.151 79.6553H151.342L151.495 78.9661H152.305L152.6 77.5547H153.399L153.103 78.9661V78.977Z" fill="#6D6E71"/>
</g>
<defs>
<clipPath id="clip0_312_568">
<rect width="231" height="127" fill="white"/>
</clipPath>
</defs>
</svg>
