<svg width="100" height="100" viewBox="0 0 100 100" fill="none" xmlns="http://www.w3.org/2000/svg">
<g clip-path="url(#clip0_500_2236)">
<path d="M86.6083 86.5446C85.8651 86.396 85.1062 86.3021 84.3787 86.0909C80.6705 85.0191 78.0263 82.7113 76.5712 79.1205C76.0001 77.7124 75.5542 76.2494 75.0926 74.8022C74.7719 73.8165 75.1474 73.0107 76.0001 72.7056C76.8372 72.4083 77.6117 72.8151 77.9872 73.8321C78.5035 75.2324 78.9181 76.6719 79.4658 78.0566C80.8348 81.5066 84.3708 83.7127 87.9851 83.431C91.795 83.1338 94.9007 80.4817 95.7926 76.8049C96.3011 74.7239 95.7848 72.7056 95.4484 70.6794C93.6334 59.7974 91.8028 48.9155 89.9722 38.0257C89.7297 36.5863 89.5106 35.1468 89.2133 33.7152C87.8756 27.222 81.8909 22.3091 75.2491 22.1526C71.494 22.0666 68.1927 23.1853 65.2825 25.5322C64.641 26.0486 64.2811 26.6118 64.3593 27.4802C64.4219 28.1686 64.4219 28.8727 64.2342 29.5611C63.5927 31.9159 61.5743 33.5431 59.0631 33.6057C57.1934 33.6526 55.3158 33.637 53.4383 33.6057C52.2648 33.59 51.5216 32.9485 51.5294 32.0411C51.5373 31.1336 52.2805 30.5077 53.4539 30.4921C55.2611 30.4686 57.076 30.4921 58.8832 30.4764C60.3226 30.4608 61.191 29.6315 61.3474 28.2234C61.4179 27.5975 61.2457 27.222 60.5417 27.269C60.4165 27.2768 60.2913 27.269 60.1583 27.269C53.5165 27.269 46.8747 27.269 40.2407 27.269C38.9577 27.269 38.7934 27.488 39.1298 28.7397C39.4193 29.8271 40.1781 30.4451 41.3438 30.4686C43.0883 30.4999 44.8407 30.4686 46.5852 30.4843C46.9608 30.4843 47.3519 30.5077 47.7118 30.6094C48.4393 30.8128 48.8383 31.3526 48.8227 32.088C48.807 32.7764 48.408 33.2849 47.7196 33.4805C47.391 33.5744 47.0312 33.6057 46.6869 33.6057C45.005 33.6213 43.3152 33.6213 41.6332 33.6057C38.2458 33.5744 35.9536 31.3448 36.0319 27.9809C36.0632 26.6744 35.5938 25.8843 34.6002 25.1254C25.6193 18.335 12.6095 23.6547 10.9432 34.787C10.333 38.8628 9.58196 42.9152 8.87788 46.9832C8.6823 48.1254 8.01734 48.7199 7.14115 48.5948C6.2102 48.4618 5.68605 47.6638 5.87381 46.5216C6.59353 42.1407 7.21156 37.7363 8.09557 33.3945C9.26121 27.6523 12.6173 23.4826 17.851 20.854C18.5785 20.4863 18.9462 20.0795 18.8445 19.2581C18.7976 18.8826 18.8367 18.4993 18.8445 18.1159C18.8602 15.4091 20.284 13.6959 22.9595 13.4377C24.9465 13.2421 26.9649 13.2265 28.952 13.4534C31.4241 13.735 33.106 15.4639 32.9887 17.9282C32.887 19.8996 33.4111 21.1826 35.2887 21.8945C35.8363 22.1057 36.3683 22.4969 36.7594 22.935C37.7217 24.0145 38.8795 24.2023 40.2564 24.1945C47.2111 24.1397 54.1737 24.1632 61.1284 24.1788C61.8794 24.1788 62.4583 23.9989 62.9981 23.4591C63.9291 22.536 65.0087 21.785 66.1899 21.2373C67.1287 20.8071 67.4338 20.1812 67.3243 19.219C67.2774 18.7809 67.3008 18.3271 67.3243 17.8891C67.4495 15.4561 68.9437 13.7272 71.361 13.469C73.5046 13.2421 75.6794 13.2187 77.8229 13.5003C79.9899 13.7897 81.6093 15.5265 81.4685 17.6857C81.3433 19.5945 81.9535 20.5802 83.6902 21.5503C88.8691 24.4448 91.6229 29.0917 92.5695 34.9356C94.2593 45.356 96.0507 55.7685 97.8109 66.1811C98.1864 68.4029 98.5933 70.609 98.9844 72.8307V76.8283C98.2256 80.0984 96.6062 82.7896 93.7273 84.6436C91.9514 85.7858 89.9878 86.2943 87.9304 86.5446H86.5926H86.6083ZM25.901 16.4965C25.0795 16.4965 24.2503 16.4731 23.4289 16.4965C22.1928 16.5357 21.3166 18.0533 21.8877 19.1407C22.0207 19.3989 22.2241 19.3754 22.451 19.3363C24.751 18.9139 27.0431 18.953 29.3353 19.4224C29.5152 19.4615 29.7969 19.5319 29.8438 19.3207C29.9924 18.6714 30.0237 17.9986 29.8047 17.3571C29.6169 16.8016 29.1475 16.5122 28.553 16.4965C27.669 16.4809 26.7771 16.4965 25.8931 16.4965H25.901ZM74.4277 16.4965C73.8253 16.4965 73.2229 16.4965 72.6284 16.4965C70.7586 16.4965 70.3753 16.9346 70.4379 18.8122C70.4535 19.3833 70.6413 19.5319 71.1733 19.4146C73.395 18.9373 75.6246 18.9295 77.862 19.3207C78.1202 19.3676 78.3471 19.438 78.4957 19.1095C79.012 17.9595 78.1671 16.5357 76.8998 16.4965C76.0784 16.4731 75.2569 16.4965 74.4355 16.4965H74.4277Z" fill="#727272"/>
<path d="M12.4376 86.5439C10.4036 86.2935 8.45561 85.8085 6.70324 84.682C2.43964 81.9361 0.632506 77.4378 1.57128 72.0164C2.65869 65.7031 3.70699 59.3821 4.77093 53.0688C4.7944 52.9124 4.81787 52.7559 4.85698 52.5994C5.12297 51.6059 5.87399 51.0739 6.73453 51.2773C7.54031 51.4651 8.03316 52.2474 7.8767 53.2096C7.49337 55.5879 7.07092 57.9661 6.67977 60.3365C5.92875 64.9052 5.10732 69.466 4.458 74.0426C3.85562 78.314 7.00834 82.468 11.2485 83.2425C15.5746 84.0327 19.5566 81.8735 21.0352 77.7116C22.9284 72.3919 24.6651 67.0096 26.4722 61.6586C26.5348 61.4787 26.5896 61.2987 26.6522 61.1188C27.1998 59.5542 28.0994 59.21 29.4919 60.1018C31.6668 61.4943 34.0137 61.8776 36.5171 61.3378C38.0817 61.0014 39.4273 60.2426 40.5773 59.1474C41.1718 58.5841 41.8368 58.3338 42.6348 58.3338C47.6885 58.3338 52.7422 58.3338 57.7881 58.3338C58.5548 58.3338 59.1884 58.5919 59.7752 59.1004C63.2721 62.1045 66.9803 62.394 71.0013 60.0236C72.2609 59.2804 73.1996 59.6011 73.6768 60.9858C74.467 63.2936 75.2415 65.6171 76.0003 67.9405C76.3523 69.0123 76.0003 69.8416 75.1319 70.1388C74.2714 70.4361 73.4813 69.9824 73.1057 68.9184C72.566 67.3929 72.0496 65.8596 71.5568 64.3184C71.369 63.7239 71.15 63.497 70.4694 63.763C66.065 65.4763 62.0048 64.8113 58.2966 61.9089C57.8976 61.596 57.4908 61.4552 56.9902 61.4552C52.4449 61.463 47.8997 61.463 43.3623 61.4552C42.8538 61.4552 42.4626 61.6273 42.0637 61.9324C38.379 64.78 34.3423 65.4763 29.9691 63.7865C29.179 63.4814 28.9834 63.7865 28.7722 64.428C27.2232 69.0984 25.6977 73.7766 24.0705 78.4157C22.4199 83.1017 19.0716 85.785 14.1352 86.4422C14.01 86.4578 13.8927 86.5126 13.7753 86.5517H12.4376V86.5439Z" fill="#727272"/>
<path d="M25.7762 27.9883C27.998 27.9961 29.8442 29.4903 30.2119 31.6808C30.3371 32.424 30.6109 32.7135 31.3854 32.8465C33.568 33.2063 35.1952 35.2403 35.1405 37.3682C35.0857 39.6291 33.4585 41.4988 31.1742 41.8039C30.5092 41.89 30.3449 42.2029 30.2432 42.7583C29.813 45.0896 28.0058 46.6699 25.7841 46.6856C23.5075 46.7012 21.6456 45.1131 21.2154 42.7427C21.1215 42.242 21.0902 41.89 20.4174 41.8118C18.1018 41.5379 16.4511 39.7073 16.3885 37.4699C16.3259 35.1621 17.8984 33.1907 20.2062 32.8308C20.9103 32.7213 21.1215 32.4788 21.2388 31.7982C21.6535 29.4591 23.4684 27.9805 25.7762 27.9883V27.9883ZM32.0112 37.3291C32.0269 36.5546 31.4949 35.9679 30.6657 35.8897C30.0633 35.8349 29.4531 35.874 28.8585 35.8036C27.7633 35.6784 27.2939 35.1465 27.2548 34.0512C27.2313 33.4801 27.2861 32.9012 27.2157 32.338C27.1218 31.5713 26.4021 30.9846 25.698 31.0237C24.9235 31.0628 24.3603 31.6182 24.3055 32.4397C24.2742 32.9169 24.3055 33.3941 24.282 33.8713C24.2429 35.1699 23.7501 35.7019 22.4436 35.8192C22.0055 35.8584 21.5518 35.8427 21.1137 35.8662C20.0497 35.9209 19.5569 36.3512 19.5256 37.2431C19.4943 38.1505 20.0263 38.7216 21.0589 38.8233C21.5283 38.8703 22.0133 38.8311 22.4905 38.8468C23.6327 38.8781 24.1725 39.3788 24.2664 40.5209C24.3055 41.0294 24.2664 41.5379 24.2977 42.0464C24.3446 42.9774 24.9392 43.5954 25.7606 43.6032C26.5351 43.6032 27.1922 42.9305 27.247 42.0308C27.2783 41.491 27.2392 40.9512 27.2704 40.4114C27.3252 39.4413 27.8728 38.9016 28.8429 38.8546C29.3827 38.8311 29.9225 38.8703 30.4623 38.8233C31.401 38.7373 32.0112 38.1271 32.0191 37.3291H32.0112Z" fill="#727272"/>
<path d="M34.8276 58.78C31.5106 58.78 28.8038 56.1123 28.7882 52.8188C28.7725 49.4784 31.5028 46.7168 34.8354 46.7246C38.0585 46.7246 40.8905 49.5722 40.8592 52.7719C40.8279 56.0811 38.1289 58.7722 34.8354 58.78H34.8276ZM34.7572 55.6664C36.4313 55.6821 37.7378 54.4147 37.7456 52.7719C37.7456 51.2073 36.4313 49.8539 34.8589 49.8382C33.216 49.8148 31.9174 51.1134 31.9096 52.7719C31.9096 54.4382 33.0987 55.6586 34.7572 55.6664Z" fill="#727272"/>
<path d="M65.5717 58.7803C62.2782 58.7803 59.5166 56.05 59.5244 52.7956C59.5244 49.5568 62.3016 46.7562 65.5326 46.7249C68.8496 46.6936 71.6111 49.463 71.5955 52.7956C71.5798 56.097 68.8887 58.7803 65.5717 58.7803ZM68.4741 52.78C68.4741 51.1371 67.152 49.815 65.5326 49.8306C63.9523 49.8463 62.638 51.1684 62.6459 52.7565C62.6459 54.4228 63.921 55.6745 65.6186 55.6667C67.285 55.6667 68.4819 54.4541 68.4819 52.78H68.4741Z" fill="#727272"/>
<path d="M82.6339 41.6082C80.2948 41.5847 78.339 39.5898 78.3625 37.2586C78.386 34.9273 80.4122 32.948 82.7278 32.995C85.0043 33.0419 86.9679 35.029 86.9601 37.2977C86.9601 39.6211 84.9339 41.6317 82.6339 41.6082ZM82.5792 38.4711C83.2676 38.4633 83.8309 37.9157 83.8465 37.3211C83.8622 36.7031 83.2598 36.0851 82.6339 36.1242C81.8751 36.1711 81.4918 36.6171 81.5074 37.3681C81.523 38.1035 81.9924 38.4086 82.5792 38.4711V38.4711Z" fill="#727272"/>
<path d="M75.5939 34.5671C73.2548 34.5515 71.2912 32.5644 71.3147 30.2332C71.3303 27.9097 73.3643 25.9226 75.6721 25.9696C77.9721 26.0165 79.9201 27.9879 79.9122 30.2644C79.9122 32.5957 77.9095 34.5828 75.5939 34.5671ZM75.7425 31.4301C76.3293 31.3831 76.7595 31.0233 76.7987 30.3114C76.8378 29.6855 76.2354 29.0675 75.6017 29.091C74.8976 29.1223 74.4987 29.5213 74.4595 30.2332C74.4283 30.9294 74.9368 31.4379 75.7425 31.4379V31.4301Z" fill="#727272"/>
<path d="M68.6154 41.6093C66.3075 41.6328 64.2814 39.6379 64.2657 37.3223C64.2501 35.0145 66.2606 33.0039 68.5762 32.9961C70.8215 32.9961 72.832 34.9675 72.8789 37.2362C72.9337 39.5127 70.9075 41.578 68.6075 41.6093H68.6154ZM69.7654 37.4005C69.7654 36.6651 69.1708 36.0784 68.5293 36.1332C67.8252 36.1879 67.4341 36.5947 67.4184 37.3066C67.4028 38.0029 67.9347 38.5114 68.631 38.4723C69.3507 38.4332 69.6949 38.0029 69.7654 37.4005Z" fill="#727272"/>
<path d="M71.3145 44.385C71.291 42.0694 73.2624 40.0666 75.5937 40.0432C77.8859 40.0197 79.9199 42.0459 79.9121 44.3537C79.9121 46.6615 77.8937 48.6564 75.5781 48.6564C73.3172 48.6564 71.3379 46.6693 71.3066 44.3928L71.3145 44.385ZM75.6093 43.1646C74.9679 43.1646 74.475 43.6418 74.4515 44.2989C74.4281 44.9952 74.9366 45.5428 75.6172 45.5115C76.3212 45.4802 76.728 45.0656 76.7985 44.385C76.861 43.7591 76.2508 43.1724 75.6093 43.1646Z" fill="#727272"/>
<path d="M56.5598 42.9612C55.8949 42.9612 55.2299 42.9847 54.5571 42.9612C53.5792 42.9221 52.9221 42.3198 52.8908 41.4749C52.8595 40.7004 53.4775 39.9494 54.3772 39.9024C55.8323 39.832 57.2952 39.832 58.7503 39.9024C59.6734 39.9494 60.2367 40.6456 60.2054 41.4749C60.1819 42.2885 59.5561 42.9143 58.6486 42.9612C57.9523 43.0004 57.2561 42.9612 56.552 42.9612H56.5598Z" fill="#727272"/>
<path d="M43.7375 42.9534C43.0725 42.9534 42.4076 42.9769 41.7426 42.9456C40.8351 42.8987 40.2093 42.2885 40.178 41.4671C40.1467 40.6378 40.71 39.9337 41.6253 39.8868C43.0804 39.8164 44.5433 39.8164 45.9984 39.8868C46.8902 39.9259 47.5239 40.6769 47.4926 41.4514C47.4613 42.2807 46.7885 42.9065 45.8263 42.9534C45.13 42.9847 44.4338 42.9534 43.7297 42.9534H43.7375Z" fill="#727272"/>
</g>
<defs>
<clipPath id="clip0_500_2236">
<rect width="98" height="73.545" fill="white" transform="translate(1 13)"/>
</clipPath>
</defs>
</svg>
