<?xml version="1.0" encoding="utf-8"?>
<!-- Generator: Adobe Illustrator 27.4.0, SVG Export Plug-In . SVG Version: 6.00 Build 0)  -->
<svg version="1.1" id="Layer_1" xmlns="http://www.w3.org/2000/svg" xmlns:xlink="http://www.w3.org/1999/xlink" x="0px" y="0px"
	 viewBox="0 0 50 45" style="enable-background:new 0 0 50 45;" xml:space="preserve">
<style type="text/css">
	.st0{fill:#FFFFFF;}
</style>
<g>
	<path class="st0" d="M47.3,21.5c0-0.2,0-0.5-0.1-0.7l0-0.1c-0.1-0.3-0.1-0.6-0.2-1c-0.2-0.5-0.3-1-0.6-1.5
		c-0.2-0.4-0.5-0.8-0.8-1.2c-0.2-0.3-0.4-0.5-0.7-0.8c-0.1-0.1-0.3-0.3-0.5-0.4l-0.2-0.2c-0.4-0.3-0.8-0.6-1.3-0.9
		c-0.6-0.3-1.1-0.5-1.6-0.6c-0.7-0.2-1.3-0.3-1.8-0.3c-2.6,0-5.3,0-7.9,0h-2.7l0-0.5c0-0.8,0-1.6,0-2.4c0-0.2-0.1-0.4-0.2-0.5
		c-0.2-0.3-0.6-0.3-0.7-0.3l-2.8,0l0-0.9c0-1,0-2.1,0-3.1c0-0.3,0-0.6-0.1-0.9c-0.1-0.6-0.4-1.2-0.7-1.7c-0.3-0.5-0.7-1-1.2-1.4
		c-0.4-0.4-0.9-0.6-1.5-0.8C21.1,1,20.6,0.9,20,0.9l-4.7,0l-3.8,0c-0.3,0-0.6,0.2-0.7,0.5c0,0.1-0.1,0.4,0,0.7
		c0.1,0.3,0.4,0.4,0.7,0.4c0,0,0,0,0,0c2.6,0,5.1,0,7.7,0c0.4,0,0.7,0,1.1,0.1c0.4,0,0.9,0.2,1.3,0.5c0.5,0.3,0.9,0.7,1.2,1.1
		c0.5,0.7,0.7,1.4,0.7,2.3c0,0.9,0,1.8,0,2.7l0,1l-2.8,0c-0.6,0-0.9,0.4-0.9,0.9v2.8l-1.9,0c-2.2,0-4.3,0-6.5,0c0,0,0,0,0,0
		c-0.5,0-1,0-1.5,0.1C9.4,14,8.7,14.3,8,14.6c-0.6,0.3-1.1,0.6-1.5,0.9c-0.3,0.3-0.6,0.5-0.8,0.7c-0.2,0.2-0.5,0.5-0.6,0.8
		c-0.3,0.4-0.6,0.8-0.8,1.2c-0.3,0.6-0.6,1.3-0.7,1.9c-0.1,0.5-0.2,1-0.2,1.5l0,18.8c0,0.3,0,0.5,0.1,0.7c0.2,0.9,0.6,1.7,1.2,2.3
		c0.2,0.2,0.5,0.4,0.8,0.7c0.6,0.4,1.4,0.6,2.2,0.7c0.3,0,0.6,0,0.8,0l0.3,0c0.3,0,0.7-0.1,1-0.3c0.5-0.3,0.9-0.8,1.1-1.1
		c0.3-0.5,0.6-1,0.9-1.5c0.3-0.5,0.6-1,0.9-1.5l0.5-0.9c0.1-0.2,0.3-0.5,0.4-0.7c0.2-0.4,0.4-0.7,0.6-1.1l0.7-1.3
		c0.2-0.3,0.3-0.5,0.5-0.8c0.3-0.5,0.6-1,0.9-1.5l1.2-2.1c5.2,0,10.4,0,15.7,0c0,0.1,0.1,0.1,0.1,0.2l1.4,2.4c0.3,0.5,0.6,1,0.9,1.5
		c0.2,0.4,0.4,0.7,0.6,1.1l1.9,3.4c0.3,0.6,0.7,1.2,1,1.8c0.4,0.7,0.8,1.3,1.3,1.8c0.3,0.3,0.7,0.5,1.1,0.6c0.3,0.1,0.7,0.1,1.1,0.1
		c0.2,0,0.4,0,0.6,0c0.4,0,0.8-0.1,1.1-0.2c0.6-0.2,1.1-0.6,1.6-1c0.5-0.4,0.8-0.9,1-1.5c0.2-0.5,0.3-1.1,0.3-1.6L47.3,21.5z
		 M45.7,40.2c0,0.7-0.2,1.3-0.6,1.8c-0.4,0.6-1,1-1.8,1.1c-0.3,0.1-0.7,0.1-1,0l-0.2,0c-0.2,0-0.4-0.1-0.5-0.2
		c-0.1-0.1-0.2-0.2-0.3-0.3c-0.4-0.5-0.7-1.1-1.1-1.7l-0.1-0.2c-0.2-0.4-0.4-0.8-0.7-1.2l-0.5-0.9c-0.4-0.8-0.9-1.6-1.3-2.4
		c-0.5-0.8-0.9-1.6-1.4-2.4c-0.5-0.9-1.1-1.8-1.6-2.7c0-0.1-0.1-0.2-0.2-0.3l-0.1-0.2c-0.2-0.3-0.5-0.4-0.6-0.4c0,0-0.1,0-0.1,0
		c0,0,0,0-0.1,0h-2.7c-4.5,0-9,0-13.6,0c-0.4,0-0.7,0.2-0.9,0.5c-0.3,0.5-0.5,0.9-0.8,1.4c-0.3,0.4-0.5,0.9-0.8,1.3
		c-0.5,0.8-0.9,1.6-1.3,2.3L13.3,36c-0.4,0.7-0.8,1.4-1.2,2.1l-0.4,0.8c-0.2,0.4-0.5,0.9-0.7,1.3c-0.4,0.8-0.9,1.5-1.4,2.3
		C9.4,42.8,9.2,43,9,43.1c-0.1,0.1-0.3,0.1-0.5,0.1c-0.1,0-0.2,0-0.4,0c-0.1,0-0.2,0-0.2,0c-0.6,0-1.1-0.2-1.6-0.5
		c-0.6-0.4-1-1-1.2-1.8C5,40.7,5,40.6,5,40.4C5,34.2,5,28,5,21.8c0-0.4,0.1-0.8,0.2-1.3c0.1-0.5,0.3-1,0.5-1.5
		c0.2-0.3,0.4-0.7,0.7-1.1c0.4-0.6,1-1.1,1.8-1.6c0.6-0.4,1.3-0.6,2-0.8c0.4-0.1,0.7-0.1,1.1-0.1c3.7,0,7.5,0,11.2,0l2.9,0l3.5,0
		c3.5,0,6.9,0,10.4,0c0.7,0,1.3,0.1,1.9,0.3c0.7,0.2,1.4,0.6,2,1c0.5,0.3,0.9,0.8,1.2,1.2c0.5,0.6,0.8,1.3,1,2
		c0.2,0.5,0.2,0.9,0.3,1.2l0,0.2c0,0.3,0,0.5,0,0.8L45.7,40.2z M21.6,13.8v-2.1h5.7v2.1H21.6z"/>
	<path class="st0" d="M17.1,23l-2.9,0v-2.9c0-0.4-0.3-0.8-0.8-0.8c-0.2,0-0.4,0.1-0.6,0.2c-0.1,0.1-0.2,0.3-0.2,0.6V23H9.7
		c-0.1,0-0.2,0-0.3,0c-0.5,0.2-0.5,0.7-0.5,0.9c0.1,0.4,0.4,0.6,0.8,0.6c0,0,0,0,0,0c0.7,0,1.5,0,2.2,0l0.6,0l0,2.9
		c0,0.5,0.3,0.8,0.8,0.8c0,0,0,0,0,0c0.2,0,0.4-0.1,0.6-0.2c0.1-0.1,0.2-0.3,0.2-0.6v-2.9l2.9,0c0.1,0,0.1,0,0.2,0
		c0.4-0.1,0.6-0.5,0.6-0.9C17.8,23.3,17.5,23,17.1,23z"/>
	<path class="st0" d="M23.5,26.7h-1.8c-0.4,0-0.8,0.3-0.8,0.8c0,0.2,0.1,0.4,0.2,0.6c0.1,0.1,0.3,0.2,0.5,0.2c0,0,0,0,0,0
		c0.2,0,0.4,0,0.6,0l1.2,0c0.5,0,0.8-0.3,0.8-0.8c0-0.2-0.1-0.4-0.2-0.6C23.9,26.8,23.7,26.7,23.5,26.7z"/>
	<path class="st0" d="M29.1,26.7c-0.6,0-1.3,0-1.9,0c-0.2,0-0.4,0.1-0.5,0.2c-0.1,0.2-0.2,0.4-0.2,0.6c0,0.4,0.4,0.8,0.8,0.8l1.9,0
		c0,0,0,0,0,0c0.2,0,0.4-0.1,0.5-0.2c0.2-0.2,0.2-0.4,0.2-0.6C29.8,27,29.5,26.7,29.1,26.7z"/>
	<path class="st0" d="M37.3,19c-0.6,0-1,0.4-1.1,1.1c0,0.3,0.1,0.5,0.3,0.8c0.2,0.2,0.5,0.3,0.8,0.3c0,0,0,0,0,0
		c0.6,0,1.1-0.5,1.1-1.1c0-0.3-0.1-0.6-0.3-0.8C37.9,19.1,37.6,19,37.3,19z"/>
	<path class="st0" d="M33.6,22.7c-0.6,0-1,0.4-1.1,1.1c0,0.3,0.1,0.5,0.3,0.8c0.2,0.2,0.5,0.3,0.8,0.3c0,0,0,0,0,0
		c0.6,0,1.1-0.5,1.1-1.1c0-0.3-0.1-0.6-0.3-0.8C34.2,22.8,33.9,22.7,33.6,22.7z"/>
	<path class="st0" d="M41.1,22.7c-0.6,0-1,0.4-1.1,1.1c0,0.3,0.1,0.5,0.3,0.8c0.2,0.2,0.5,0.3,0.8,0.3c0,0,0,0,0,0
		c0.6,0,1.1-0.5,1.1-1.1c0-0.3-0.1-0.6-0.3-0.8C41.7,22.8,41.4,22.7,41.1,22.7z"/>
	<path class="st0" d="M37.3,26.4c-0.6,0-1,0.4-1.1,1.1c0,0.3,0.1,0.5,0.3,0.8c0.2,0.2,0.5,0.3,0.8,0.3c0,0,0,0,0,0
		c0.6,0,1.1-0.5,1.1-1.1c0-0.3-0.1-0.6-0.3-0.8C37.9,26.5,37.6,26.4,37.3,26.4z"/>
</g>
</svg>
