<svg width="231" height="127" viewBox="0 0 231 127" fill="none" xmlns="http://www.w3.org/2000/svg">
<g clip-path="url(#clip0_407_181)">
<path d="M109.331 63.7706C112.923 63.7706 116.517 63.7653 120.11 63.7724C122.023 63.7777 122.023 63.7883 121.398 65.5774C120.36 68.5497 119.307 71.5167 118.294 74.4961C118.089 75.1019 117.78 75.3818 117.123 75.4757C111.944 76.2125 106.741 76.5633 101.514 76.3206C97.5765 76.1381 93.7115 75.543 90.105 73.8195C84.7467 71.2563 83.489 66.557 86.867 61.6556C88.9271 58.6674 91.8622 56.7915 95.109 55.3408C99.8562 53.2205 104.883 52.2658 110.04 52.0195C114.431 51.8105 118.822 51.9682 123.195 52.4712C123.952 52.558 124.179 52.7582 123.886 53.5092C123.44 54.6606 123.057 55.8368 122.675 57.0112C122.512 57.5125 122.303 57.6312 121.775 57.4221C117.834 55.8598 113.712 55.5339 109.528 55.7801C106.85 55.9378 104.279 56.5666 101.959 57.973C98.9582 59.7922 97.2382 62.4474 96.976 65.9547C96.7458 69.0227 98.1611 71.0951 101.093 72.0623C103.286 72.7868 105.551 72.8186 107.831 72.6451C108.281 72.6114 108.412 72.3262 108.534 71.9773C109.067 70.4486 109.593 68.9199 110.148 67.3983C110.638 66.0503 110.837 64.7927 109.193 63.9708C109.239 63.9035 109.283 63.8344 109.329 63.7671L109.331 63.7706Z" fill="#CECECE"/>
<path d="M134.426 52.6787C136.348 52.6787 138.08 52.6787 139.813 52.6787C142.053 52.6787 144.294 52.7035 146.535 52.6645C147.226 52.6521 147.498 52.8842 147.658 53.5591C149.011 59.2823 150.426 64.9913 151.769 70.7181C152.18 72.4752 152.944 73.9667 154.417 75.0136C154.201 75.3838 153.937 75.2757 153.725 75.2757C150.127 75.2828 146.531 75.2669 142.934 75.2934C142.282 75.2987 142.006 75.1004 141.873 74.4467C141.412 72.1706 140.884 69.9068 140.381 67.6395C140.332 67.4163 140.349 67.163 140.02 66.9203C139.324 69.5791 137.278 69.6092 135.11 69.4976C133.639 69.4214 132.162 69.5047 130.688 69.4728C130.061 69.4586 129.627 69.673 129.277 70.1849C128.878 70.7676 128.421 71.3097 128 71.8765C126.806 73.4831 126.816 73.7222 128.184 75.2066H119.545C119.894 74.762 120.172 74.4024 120.455 74.0464C125.107 68.2275 129.758 62.4105 134.41 56.5916C134.557 56.4074 134.699 56.2196 134.84 56.0301C135.962 54.5351 135.926 54.0781 134.426 52.6769V52.6787ZM138.337 58.5294C136.286 61.1776 134.311 63.7248 132.21 66.4385C134.832 66.4385 137.18 66.4296 139.531 66.4438C140.19 66.4473 140.05 66.0364 139.974 65.6697C139.667 64.2066 139.359 62.7435 139.028 61.2839C138.83 60.4124 138.736 59.5108 138.339 58.5294H138.337Z" fill="#CECECE"/>
<path d="M187.067 53.933C186.935 53.7753 186.817 53.6053 186.673 53.4583C185.889 52.6576 185.669 52.6753 184.996 53.584C184.103 54.7903 183.2 55.9895 182.332 57.2135C182.036 57.6298 181.848 57.7927 181.42 57.3286C180.801 56.6609 179.914 56.5475 179.065 56.4571C177.774 56.3172 176.476 56.3704 175.181 56.4341C174.648 56.4607 174.339 56.6998 174.159 57.2259C172.582 61.8456 170.99 66.4599 169.389 71.0689C168.854 72.6082 168.868 74.0129 170.315 75.1041C169.968 75.3715 169.665 75.2794 169.387 75.2794C165.555 75.2865 161.724 75.2847 157.893 75.283C156.872 75.283 156.858 75.2741 157.184 74.3353C159.12 68.752 161.065 63.1723 163.005 57.5908C163.378 56.5156 163.373 56.4979 162.199 56.4412C159.441 56.3084 156.723 56.5209 154.084 57.4013C153.817 57.4898 153.551 57.6687 153.239 57.5607C153.122 57.3446 153.303 57.233 153.4 57.109C154.414 55.8088 155.436 54.5158 156.447 53.2156C156.708 52.8808 156.964 52.6311 157.455 52.6328C163.378 52.6665 169.302 52.6877 175.225 52.6913C181.561 52.6948 187.897 52.6753 194.233 52.6682C194.674 52.6682 195.117 52.6877 195.558 52.6984C195.202 52.8844 194.814 52.8472 194.434 52.8489C192.492 52.8507 190.549 52.8932 188.609 52.8312C187.741 52.8029 187.178 52.9924 187.068 53.9277L187.067 53.933Z" fill="#CECECE"/>
<path d="M187.066 53.9375C187.175 53.0023 187.739 52.8127 188.607 52.8411C190.546 52.9031 192.489 52.8623 194.431 52.8588C194.812 52.8588 195.2 52.896 195.556 52.7082C196.468 52.6852 197.382 52.6887 198.291 52.6303C199.042 52.5824 199.114 52.8588 198.886 53.5035C197.57 57.2181 196.285 60.9432 194.987 64.6648C194.213 66.886 193.446 69.1108 192.652 71.325C192.142 72.7527 191.749 74.1361 193.469 75.0732C193.189 75.3513 192.941 75.2663 192.722 75.268C188.89 75.2787 185.057 75.2627 181.225 75.2981C180.404 75.3052 180.296 75.0696 180.554 74.3345C182.653 68.4023 184.722 62.4577 186.807 56.5201C187.105 55.6752 187.322 54.8321 187.064 53.9358L187.066 53.9375Z" fill="#CECECE"/>
<path d="M75.2258 62.9159C75.1568 63.3747 75.5305 63.5943 75.7661 63.8742C78.2513 66.8359 80.3096 70.0296 81.1652 73.8628C81.8879 77.1008 81.6346 80.2308 79.9996 83.1801C79.8473 83.4529 79.7463 83.7788 79.431 83.9488C79.1688 83.8142 79.2167 83.5485 79.1812 83.3395C78.2619 77.9298 75.07 73.9549 71.0579 70.4973C70.9587 70.4122 70.7904 70.4069 70.6522 70.3644C70.4627 70.1076 70.2873 69.8419 70.0836 69.5992C69.7737 69.2325 69.5133 68.756 68.8933 68.9367C68.8118 68.5364 68.5178 68.2831 68.2361 68.0315C66.4488 66.4409 64.6562 64.8591 62.8672 63.2737C62.8884 62.9549 63.0975 62.7459 63.3083 62.5439C64.9715 60.948 66.6331 59.3537 68.2999 57.7613C68.5567 57.5151 68.8295 57.2866 69.2298 57.4407C71.0951 59.2457 73.2207 60.7761 74.9105 62.7707C74.9779 62.8504 75.1178 62.8716 75.2223 62.9195L75.2258 62.9159Z" fill="#6C6C6C"/>
<path d="M50.3196 63.284C50.254 62.7419 49.8271 62.4284 49.5171 62.0493C47.1258 59.1231 45.1561 55.9701 44.3891 52.2113C43.7479 49.0689 43.9604 46.0081 45.5263 43.1314C45.7017 42.8108 45.8168 42.4264 46.2171 42.2422C46.5006 42.5787 46.3624 42.9844 46.435 43.344C47.4305 48.2878 50.3426 52.0076 54.0341 55.2314C54.112 55.3005 54.2555 55.2952 54.3671 55.3253C55.0189 56.1224 55.7753 56.7955 56.6999 57.2667C56.6964 57.598 56.9196 57.7963 57.1339 57.993C58.1666 58.9371 59.2365 59.8422 60.2285 60.8271C61.0433 61.6366 62.1486 62.1609 62.6694 63.2627C60.6677 65.151 58.6661 67.0374 56.6645 68.9257C54.8276 67.2925 52.9199 65.7355 51.2194 63.9518C50.9608 63.6807 50.7252 63.3619 50.3178 63.2804L50.3196 63.284Z" fill="#878787"/>
<path d="M56.6637 68.9286C58.6653 67.0404 60.6669 65.1539 62.6685 63.2656C62.7359 63.2656 62.8014 63.2656 62.8687 63.2656C64.6595 64.851 66.4521 66.4346 68.2376 68.0234C68.5193 68.275 68.8133 68.5265 68.8948 68.9286C66.9286 70.8027 64.9483 72.659 62.8563 74.3932C60.442 76.0866 57.9727 77.6808 55.197 78.7418C50.7014 80.4618 46.165 80.8869 41.5665 79.1616C41.0245 78.9579 40.4701 78.7578 39.9883 78.3539C40.4045 78.0085 40.874 78.136 41.292 78.0581C46.3917 77.1175 50.6323 74.5898 54.3326 71.0595C54.4318 70.9656 54.4743 70.8115 54.5434 70.6858C55.1917 70.0286 56.088 69.6708 56.6637 68.9286Z" fill="#3B3B3B"/>
<path d="M62.8669 63.2678C62.7996 63.2678 62.734 63.2678 62.6667 63.2678C62.146 62.166 61.0406 61.6417 60.2258 60.8322C59.2339 59.8473 58.164 58.9422 57.1313 57.9981C56.917 57.8014 56.6938 57.6031 56.6973 57.2718C56.8727 57.1691 57.0799 57.0982 57.2181 56.9583C59.0107 55.1444 60.8635 53.3979 62.8563 51.8019C66.7975 48.8438 71.0717 46.6438 76.051 46.0681C79.1012 45.7156 82.0417 46.1088 84.8351 47.4214C85.0795 47.5365 85.4072 47.579 85.5365 47.9794C84.8864 48.0732 84.2541 48.1352 83.6323 48.261C78.607 49.276 74.5152 51.9383 70.9176 55.465C70.8379 55.543 70.8078 55.6687 70.7564 55.7733C70.1613 56.248 69.5271 56.6873 69.2295 57.433C68.8292 57.2789 68.5564 57.5092 68.2996 57.7536C66.6328 59.3461 64.9695 60.9403 63.308 62.5362C63.0972 62.7399 62.8881 62.9472 62.8669 63.266V63.2678Z" fill="#444444"/>
<path d="M62.8574 74.4026C64.9494 72.6684 66.9297 70.8121 68.8959 68.938C69.5159 68.7573 69.7763 69.2338 70.0863 69.6005C70.2917 69.8431 70.4671 70.1106 70.6549 70.3657C72.9736 72.9837 74.9982 75.786 76.1832 79.1179C77.4905 82.7916 77.5454 86.43 75.8732 90.0169C75.6996 90.3889 75.48 90.7414 75.2728 91.0957C75.2178 91.1896 75.1293 91.2622 74.9681 91.4429C74.8405 90.8034 74.7502 90.2685 74.6262 89.7424C73.714 85.9039 71.6645 82.7066 68.8959 79.9717C66.9492 78.048 64.875 76.2536 62.8574 74.4026Z" fill="#878787"/>
<path d="M56.6642 68.9343C56.0867 69.6765 55.1904 70.0343 54.5439 70.6915C54.1471 70.7677 53.8849 71.067 53.5749 71.2814C48.8791 74.5265 43.8219 76.6131 37.9677 76.1649C36.0369 76.0179 34.2053 75.4972 32.4623 74.6611C32.287 74.5761 32.0567 74.5371 32 74.2147C33.9963 73.9897 35.9218 73.4884 37.7799 72.7321C41.1614 71.3593 44.0416 69.2461 46.6667 66.7538C47.8836 65.5989 49.1023 64.444 50.3192 63.2891C50.7249 63.3705 50.9604 63.6876 51.2208 63.9604C52.9213 65.7441 54.8291 67.3012 56.6659 68.9343H56.6642Z" fill="#444444"/>
<path d="M62.8582 51.8047C60.8654 53.3989 59.0108 55.1455 57.22 56.9611C57.0818 57.1011 56.8746 57.1719 56.6992 57.2746C55.7746 56.8035 55.0182 56.1304 54.3664 55.3333C53.7163 54.4635 53.0432 53.6097 52.4214 52.7223C49.9203 49.1477 48.2251 45.3075 48.5121 40.8118C48.6467 38.6986 49.4739 36.2134 50.5226 35C50.6873 34.9982 50.7015 35.1364 50.7156 35.2391C51.3179 39.671 53.6437 43.1818 56.6727 46.3083C58.4759 48.1717 60.4934 49.8067 62.4047 51.555C62.5287 51.6683 62.7076 51.7233 62.86 51.8047H62.8582Z" fill="#6C6C6C"/>
<path d="M69.2324 57.4341C69.53 56.6866 70.1641 56.2491 70.7593 55.7743C72.2809 54.8249 73.7228 53.7532 75.3152 52.9136C79.1094 50.9138 83.0896 49.7323 87.4347 50.0192C89.5355 50.1574 92.1412 50.9191 93.5299 51.8756C93.5087 52.074 93.3351 52.0651 93.2093 52.0775C87.8705 52.6337 83.5449 55.2376 79.6833 58.7644C78.1848 60.1336 76.711 61.5294 75.2249 62.9128C75.1186 62.865 74.9804 62.8438 74.9131 62.7641C73.2233 60.7713 71.0976 59.2409 69.2324 57.4341Z" fill="#3B3B3B"/>
</g>
<defs>
<clipPath id="clip0_407_181">
<rect width="231" height="127" fill="white"/>
</clipPath>
</defs>
</svg>
