<svg width="231" height="127" viewBox="0 0 231 127" fill="none" xmlns="http://www.w3.org/2000/svg">
<g clip-path="url(#clip0_312_554)">
<path d="M153.789 72.3359C148.688 72.3359 145.295 76.4716 145.295 82.6183C145.295 88.7649 148.673 92.5885 153.517 92.5885C157.757 92.5885 162.051 89.4038 162.051 82.3112C162.051 76.3429 158.722 72.3359 153.794 72.3359M153.655 90.5331C150.471 90.5331 148.168 87.1651 148.168 82.4944C148.168 78.4776 149.901 74.3914 153.73 74.3914C157.558 74.3914 159.133 78.5519 159.133 82.4201C159.133 87.1304 156.83 90.538 153.655 90.538" fill="#868788"/>
<path d="M53.9441 90.0097H53.9342C52.3394 90.0196 49.8183 90.0444 47.8273 90.0444C45.8362 90.0444 45.1477 90.0196 44.905 90.0097C44.8505 90.0097 44.697 89.7323 44.6475 89.559C44.6376 89.0439 44.6128 86.3792 44.6128 83.5065H53.1963C53.4389 83.5065 53.6668 83.2836 53.6668 83.031V81.2628C53.6668 81.0151 53.4389 80.7922 53.1963 80.7922H44.6078C44.6029 77.9294 44.6078 76.2553 44.6475 75.6362C44.6673 74.9428 45.0932 74.7596 45.2418 74.7298H53.7807C54.0333 74.7298 54.2463 74.507 54.2463 74.2643V72.4862C54.2463 72.2286 54.0333 72.0156 53.7807 72.0156H45.1329L44.9694 72.0354C43.964 72.184 42.0472 73.0954 41.9382 75.5223C41.8639 77.2113 41.9085 85.9334 41.9233 88.7863L41.9531 89.876C42.1116 90.8764 42.8644 92.605 44.7218 92.714C45.1229 92.7536 46.0343 92.7536 47.7876 92.7536C50.4276 92.7536 53.751 92.7289 53.959 92.7289C54.2215 92.714 54.4196 92.501 54.4196 92.2534L54.4048 90.4852C54.4048 90.2227 54.1918 90.0245 53.9441 90.0245" fill="#868788"/>
<path d="M67.4234 72.8454C67.4234 72.8454 67.3194 72.781 67.3144 72.7662C67.2599 72.7513 66.1554 72.1322 65.2044 72.0232C65.0014 71.9787 64.6051 71.9688 63.0301 71.9688C61.2966 71.9688 58.9984 72.0084 58.4387 72.0084L57.5769 72.0282C57.3243 72.0282 57.1113 72.2362 57.1113 72.4839V92.0926C57.1113 92.2114 57.1708 92.3303 57.255 92.4096C57.3342 92.5037 57.458 92.5582 57.5868 92.5582L65.0509 92.4492C65.3927 92.4294 67.0965 92.2263 68.5427 90.7751C69.8057 89.5121 71.9305 86.6939 71.9305 81.8895C71.9305 77.5606 69.5086 74.3214 67.4234 72.8454M59.8206 89.8192V74.6978C60.7319 74.6879 61.985 74.6632 63.0251 74.6632C64.4466 74.6632 64.7933 74.6978 64.8577 74.6978C65.1153 74.7325 65.6304 74.9356 65.9177 75.0842C66.4625 75.4853 69.2213 77.729 69.2213 81.8895C69.2213 85.6934 67.6017 87.8925 66.6309 88.8583C65.9325 89.5666 65.0261 89.7102 64.8231 89.7498L59.8206 89.8142V89.8192Z" fill="#868788"/>
<path d="M88.0729 72.6482C87.9788 72.559 87.8352 72.5045 87.7361 72.5194L85.9679 72.5937C85.8392 72.5937 85.7203 72.663 85.6311 72.7472C85.5469 72.8512 85.5123 72.9751 85.5172 73.089C85.5172 73.1534 85.8491 81.3555 85.5172 85.8874C85.2101 90.1915 81.3815 90.3401 81.228 90.3599C80.2324 90.3599 78.6871 89.8646 77.7064 88.8245C76.8991 87.9676 76.696 86.8532 76.5623 86.1846L76.5276 86.0063C76.4385 85.4367 76.483 77.8438 76.5375 72.8612C76.5375 72.7423 76.493 72.6036 76.4038 72.5194C76.3146 72.4302 76.2007 72.3906 76.0819 72.3906H74.2938C74.0412 72.3906 73.8184 72.5937 73.8184 72.8463C73.8184 74.2034 73.8184 86.0162 73.8431 86.2539C73.8431 86.3678 73.9026 88.7651 75.7451 90.662C77.1814 92.1776 79.1774 93.0395 81.228 93.0543H81.2577C82.9318 93.0543 87.8005 91.7715 88.2166 86.0855C88.5237 81.8706 88.3008 75.0355 88.2166 72.9751C88.2166 72.8463 88.167 72.7225 88.0779 72.6482" fill="#868788"/>
<path d="M103.133 88.75C102.935 88.6064 102.637 88.6559 102.474 88.864C102.474 88.8788 101.498 90.2458 98.9822 90.1022C95.6092 89.8843 93.9153 88.0764 93.3061 84.0893C92.7217 80.0972 94.3165 75.2136 97.5211 74.6193C97.9669 74.5202 98.3879 74.4905 98.7989 74.4905C101.102 74.4905 102.454 75.7585 102.613 75.9269C102.781 76.1002 103.083 76.1101 103.257 75.9318L104.549 74.7233C104.728 74.545 104.757 74.2577 104.564 74.0646C104.485 73.9754 102.429 71.7812 98.8089 71.7812C98.2294 71.7812 97.6201 71.8506 97.0258 71.9497C92.2264 72.856 89.8539 79.176 90.6464 84.4806C91.4042 89.6911 94.1531 92.4895 98.8089 92.7966C98.9921 92.8164 99.1902 92.8164 99.3586 92.8164C102.954 92.8164 104.619 90.5331 104.688 90.4341C104.832 90.2211 104.777 89.9288 104.564 89.7852L103.133 88.7451V88.75Z" fill="#868788"/>
<path d="M120.675 82.1893L119.382 77.9248C119.273 77.5831 119.184 77.2612 119.105 76.9491L118.981 76.5578C118.406 74.3884 117.743 71.9219 115.038 71.9219L114.87 71.9367C112.894 72.011 111.868 73.492 111.66 74.4578L106.866 91.6643C106.831 91.7981 106.851 91.9516 106.935 92.0705C107.024 92.1844 107.143 92.2488 107.292 92.2488L109.11 92.328H109.134C109.337 92.328 109.526 92.1844 109.58 91.9813L111.249 85.9833H118.941C119.625 88.2369 120.254 90.3865 120.546 91.3622L120.709 91.9219C120.769 92.1249 120.947 92.2438 121.145 92.2438H123.112C123.265 92.2438 123.409 92.1794 123.493 92.0655C123.572 91.9417 123.607 91.7733 123.567 91.6495C123.508 91.5058 121.913 86.2359 120.67 82.1893M116.38 77.2612C116.494 77.7267 116.633 78.2022 116.777 78.6926L118.144 83.2691H111.992L114.271 75.1363C114.295 75.0323 114.444 74.6509 115.023 74.6311C115.499 74.6311 115.732 74.854 116.38 77.2612" fill="#868788"/>
<path d="M136.681 72.0312H123.031C122.774 72.0312 122.561 72.2393 122.561 72.4968V74.2254C122.561 74.4879 122.778 74.6959 123.031 74.6959H128.331V91.8579C128.331 92.1303 128.539 92.3383 128.801 92.3383H130.56C130.822 92.3383 131.025 92.1254 131.025 91.8579V74.6959H136.681C136.939 74.6959 137.152 74.4879 137.152 74.2254V72.4968C137.152 72.2393 136.944 72.0312 136.681 72.0312" fill="#868788"/>
<path d="M140.346 72.25C140.089 72.25 139.881 72.4679 139.881 72.7156V91.9974C139.881 92.2599 140.089 92.458 140.346 92.458H142.115C142.367 92.458 142.59 92.255 142.59 91.9974V72.7156C142.59 72.463 142.367 72.25 142.115 72.25H140.346V72.25Z" fill="#868788"/>
<path d="M178.911 72.9745C178.911 72.7219 178.698 72.5188 178.435 72.5188H176.672C176.543 72.5188 176.424 72.5733 176.33 72.6625C176.236 72.7566 176.206 72.8606 176.206 72.9943C176.206 72.9943 176.241 82.1919 176.251 87.0904C171.729 80.1216 167.529 73.6828 167.133 73.1776C166.642 72.5634 166.127 72.4297 165.77 72.4297C165.592 72.4297 165.429 72.4743 165.25 72.5188C164.834 72.6823 164.151 73.1429 164.195 74.4951V91.8106C164.195 92.0731 164.418 92.2811 164.671 92.2811H166.454C166.707 92.2811 166.929 92.0681 166.929 91.8106C166.929 91.761 166.91 91.7214 166.9 91.6669L166.89 77.7145C169.614 81.8452 174.299 89.0617 175.805 91.3846C176.172 91.9493 176.721 92.2762 177.306 92.2762C177.445 92.2762 177.593 92.2514 177.732 92.2217C178.965 91.8601 178.965 90.4386 178.965 89.8195C178.965 87.6798 178.906 72.9894 178.906 72.9894" fill="#868788"/>
<path fill-rule="evenodd" clip-rule="evenodd" d="M152.749 49.0953V62.0423C152.729 65.2864 150.762 67.1785 147.3 67.2082C145.577 67.228 141.981 67.2082 141.981 67.2082C141.981 67.2082 141.921 63.9541 141.912 62.3295C141.862 56.8318 142.05 51.4231 141.991 45.9155C141.991 45.3409 142.189 44.2959 141.183 44.281C139.851 44.2364 139.777 45.0487 139.777 45.96C139.777 51.5172 139.608 56.9754 139.836 62.5475C139.945 65.4846 137.806 67.1537 135.081 67.3419C132.491 67.545 130.723 67.3419 130.723 67.3419C130.723 67.3419 130.416 51.7302 130.366 45.9254C130.366 45.2914 130.673 44.2067 129.41 44.2513C128.088 44.3107 128.227 45.1279 128.227 45.9254C128.236 51.3191 128.236 56.7377 128.227 62.1265C128.227 65.7074 126.394 67.337 122.674 67.5747C120.98 67.6936 117.464 67.6094 117.464 67.6094C117.464 67.6094 117.464 64.1819 117.464 62.6218C117.419 56.2424 117.464 49.8828 117.449 43.5133C117.449 39.5608 119.083 36.5098 122.962 34.8258C124.259 34.2513 125.701 34.0432 127.142 34.0432C135.136 34.0432 152.719 34.0234 152.719 34.0234C152.719 34.0234 152.778 34.3503 152.778 35.6133C152.664 40.1057 152.744 44.6029 152.744 49.0953" fill="#D6D6D6"/>
<path fill-rule="evenodd" clip-rule="evenodd" d="M100.884 34.0503C104.846 34.0503 114.435 34.0156 114.435 34.0156C114.435 34.0156 114.435 34.4416 114.515 35.7393C114.589 37.0023 114.525 38.2405 114.465 39.4936C114.321 42.5496 112.454 44.2583 109.21 44.2583C103.628 44.2831 98.0461 44.2831 92.474 44.2831H91.2061C90.0718 44.2137 89.9381 44.6843 89.8787 45.4817C89.7945 46.5268 90.8792 46.3386 91.4834 46.3386C98.6305 46.3386 114.475 46.3138 114.475 46.3138C114.475 46.3138 114.51 46.6159 114.51 48.082C114.475 49.3648 114.569 50.6575 114.217 51.9503C113.633 54.0255 112.221 55.1944 109.908 55.2043C103.772 55.2341 97.6152 55.1053 91.4834 55.135C90.8396 55.135 89.9034 54.8329 89.8787 56.086C89.844 57.2152 90.6662 57.2945 91.5974 57.2697C98.6107 57.2598 114.46 57.2301 114.46 57.2301C114.46 57.2301 114.495 57.6461 114.51 59.033C114.51 60.2762 114.51 61.4351 114.46 62.6239C114.336 65.6154 112.514 67.4381 109.433 67.4629C102.429 67.5075 95.3913 67.5768 88.3581 67.4381C82.796 67.3391 79.2199 63.6392 79.2051 58.399V43.2232C79.2199 37.6065 83.0089 34.1989 88.8237 34.0552C92.8455 33.981 96.8673 34.0503 100.889 34.0503" fill="#D6D6D6"/>
<path fill-rule="evenodd" clip-rule="evenodd" d="M62.4959 34.0495C66.3939 34.0495 76.0075 34 76.0075 34C76.0075 34 76.0273 38.3388 76.0075 39.5622C75.9828 42.6082 73.5261 44.2823 71.0199 44.2823C66.0967 44.2576 61.1784 44.4012 56.2601 44.2278C53.3478 44.1189 51.5003 46.4913 51.4657 48.636C51.4657 50.9638 51.4706 53.2967 51.4657 55.6345C51.4657 56.8331 51.9362 57.3284 53.2834 57.2937C56.8149 57.2343 60.3562 57.264 63.9075 57.2689C64.8386 57.2689 65.5469 57.1847 65.5419 56.0307C65.5221 54.8123 64.3384 55.0847 63.7391 55.0847C60.7475 55.0352 53.8579 55.2333 53.8579 55.2333C53.8579 55.2333 53.64 51.1521 53.957 49.6761C54.3978 47.6553 55.8639 46.3527 58.0135 46.3527C62.6395 46.318 67.2557 46.318 71.8669 46.3328C74.3136 46.3527 75.9729 47.9673 75.9877 50.3299C75.9976 54.4606 75.8094 58.631 76.0323 62.7766C76.1858 65.6295 73.9768 67.4126 71.3815 67.4423C64.2344 67.5463 57.0922 67.6553 49.955 67.4225C44.1452 67.2343 40.9803 63.3115 41.0001 58.2893C41.01 53.153 41.1041 48.1902 41.01 43.1382C40.901 37.8484 44.6356 34.1981 50.4355 34.0545C54.4573 33.9703 58.4741 34.0495 62.4959 34.0495" fill="#D6D6D6"/>
<path fill-rule="evenodd" clip-rule="evenodd" d="M169.588 67.4608C165.512 67.4608 155.918 67.4063 155.918 67.4063C155.918 67.4063 155.938 67.2082 155.953 66.1483C155.953 64.6426 155.972 64.281 155.938 62.067C155.898 58.0898 158.533 57.228 161.039 57.2429C166.621 57.2874 172.193 57.2627 177.79 57.2627C178.221 57.2627 178.637 57.223 179.053 57.2627C180.098 57.3766 180.42 56.7624 180.475 55.9501C180.564 54.8407 179.652 55.227 179.108 55.227C172.912 55.1874 166.735 55.1973 160.549 55.1973C157.587 55.1973 155.987 53.7164 155.977 50.9576C155.958 47.9511 155.958 44.9348 155.987 41.9234C156.012 38.2731 159.078 35.0487 162.852 34.3503C165.13 33.9491 167.389 34.0532 169.657 34.0532C176.265 34.0284 191 34.0234 191 34.0234C191 34.0234 190.99 34.2859 190.975 35.4202C190.955 37.4509 190.955 38.1691 190.955 39.3429C190.955 42.5425 189.192 44.2364 185.769 44.2463C180.192 44.2711 174.6 44.2711 169.009 44.2711H167.751C166.889 44.2315 166.453 44.5584 166.433 45.4598C166.388 46.4999 167.077 46.3266 167.726 46.3266H186.27C189.078 46.3266 190.925 48.07 190.955 50.7198C190.955 53.2854 190.896 55.861 190.955 58.4068C191.089 63.7164 187.32 67.337 181.5 67.4558C177.528 67.5351 173.57 67.4558 169.593 67.4558" fill="#D6D6D6"/>
</g>
<defs>
<clipPath id="clip0_312_554">
<rect width="231" height="127" fill="white"/>
</clipPath>
</defs>
</svg>
