<svg width="231" height="127" viewBox="0 0 231 127" fill="none" xmlns="http://www.w3.org/2000/svg">
<g clip-path="url(#clip0_312_742)">
<path d="M59.6175 64.2452C54.5907 64.2261 50.3857 61.3209 48.742 56.7337C47.0217 51.9745 48.3406 47.0624 52.2015 43.794C56.0242 40.5639 60.9937 40.1052 65.3897 42.5708C66.0587 42.9531 66.7086 43.3353 67.1673 43.9661C67.8363 44.9408 67.8936 45.9538 67.1864 46.9286C66.5174 47.846 65.5235 48.0181 64.5296 47.674C63.6695 47.3873 62.905 46.833 62.064 46.5081C59.0823 45.3804 55.6419 46.5081 54.0364 49.0884C52.3926 51.7452 52.794 55.4149 54.9347 57.4791C57.2665 59.7154 60.879 60.0021 63.5357 58.2054C64.0518 57.8614 64.5105 57.4791 64.7208 56.8675C65.1604 55.6252 64.6634 54.8033 63.3446 54.6504C62.5992 54.5739 61.8155 54.6504 61.0701 54.5166C59.9806 54.3254 59.2352 53.6183 59.197 52.5288C59.1588 51.3629 60.0189 50.6557 61.0701 50.5984C63.574 50.4837 66.0969 50.4646 68.5817 50.5984C69.9196 50.6748 70.493 51.7069 70.3019 53.064C70.2063 53.6565 70.0343 54.249 69.977 54.8415C69.4609 61.0342 65.9058 64.2644 59.5984 64.2452H59.6175Z" fill="#EEEEEE"/>
<path d="M108.28 53.8547C108.28 51.2362 108.28 48.6177 108.28 46.0183C108.28 43.438 109.121 42.1192 110.727 42.0427C112.409 41.9663 113.365 43.3807 113.365 46.0565C113.365 50.6819 113.365 55.2882 113.365 59.9136C113.365 60.3724 113.365 60.8311 113.326 61.2707C113.212 62.341 112.638 63.1056 111.644 63.526C110.593 63.9656 109.676 63.5834 108.969 62.8189C106.923 60.5826 104.897 58.3272 102.852 56.0719C101.629 54.7339 100.425 53.396 98.7428 52.1345C98.7428 54.0459 98.7428 55.9572 98.7428 57.8876C98.7428 58.9389 98.7811 60.0092 98.7046 61.0604C98.5899 62.6851 97.5196 63.7363 96.1625 63.7172C94.8055 63.6981 93.8307 62.6277 93.6587 60.984C93.6204 60.6782 93.6395 60.3724 93.6395 60.0857C93.6395 55.3838 93.6395 50.701 93.6395 45.9992C93.6395 45.6934 93.6395 45.3876 93.6395 45.0817C93.6969 43.782 94.1174 42.6926 95.4553 42.1956C96.7359 41.7178 97.6725 42.4059 98.4561 43.2851C100.712 45.8463 102.929 48.4457 105.165 51.0069C106.044 52.0199 106.962 53.0137 107.841 54.0076C107.975 53.9503 108.108 53.9121 108.242 53.8547H108.28Z" fill="#EEEEEE"/>
<path d="M136.493 76.8966C135.9 78.808 136.34 80.7575 136.206 82.6688C136.149 83.5672 136.206 84.4846 136.053 85.3829C135.938 86.0901 135.461 86.6444 134.677 86.7017C133.874 86.74 133.263 86.2239 133.205 85.5358C132.842 80.8531 132.766 76.1703 133.224 71.5067C133.396 69.8056 135.614 69.6909 136.952 71.3347C138.538 73.2651 139.952 75.3485 141.5 77.298C142.131 78.0816 142.533 79.1138 143.546 79.6107C144.215 78.8653 143.928 78.0817 143.947 77.3745C144.004 75.6352 143.947 73.8958 144.023 72.1565C144.062 71.048 144.616 70.2261 145.839 70.2643C146.929 70.3025 147.502 71.0671 147.502 72.0801C147.54 76.3041 147.521 80.5473 147.483 84.7713C147.483 85.6505 146.967 86.3386 146.088 86.6635C145.228 86.9693 144.578 86.5106 144.1 85.9181C142.055 83.3951 140.048 80.834 138.022 78.2919C137.62 77.795 137.429 77.0495 136.474 76.9349L136.493 76.8966Z" fill="#EEEEEE"/>
<path d="M98.3048 78.3716C98.3048 76.6323 98.2666 74.893 98.3048 73.1728C98.3812 71.013 99.2031 70.2485 101.401 70.1338C103.465 70.0191 105.491 70.2103 107.498 70.7072C111.78 71.7584 113.806 75.0268 113.328 80.0918C113.003 83.5322 109.754 86.3419 105.912 86.4757C104.249 86.533 102.567 86.533 100.904 86.4757C98.8973 86.3992 98.3621 85.864 98.3048 83.838C98.2474 82.0223 98.3048 80.2065 98.3048 78.4099V78.3716ZM101.917 78.3525H101.936C101.936 79.6331 101.936 80.9137 101.936 82.1943C101.936 83.0735 102.376 83.5322 103.293 83.6851C106.428 84.2394 109.524 82.0796 109.945 78.9641C110.308 76.2883 107.938 73.6124 104.937 73.3066C102.338 73.039 101.936 73.4213 101.898 76.0972C101.898 76.8426 101.898 77.6071 101.898 78.3525H101.917Z" fill="#EEEEEE"/>
<path d="M117.015 78.2447C117.015 76.429 117.053 74.6132 117.015 72.7974C116.977 71.0963 117.799 70.198 119.443 70.1598C122.023 70.0833 124.622 70.1025 127.203 70.1598C128.292 70.1598 129.21 70.6376 129.19 71.88C129.19 73.1224 128.177 73.2179 127.222 73.237C125.616 73.2753 124.03 73.2753 122.424 73.2561C121.201 73.2561 120.628 73.7913 120.609 75.0528C120.609 76.276 121.105 76.8877 122.367 76.8877C123.59 76.8877 124.794 76.8877 126.018 76.9259C127.069 76.9641 128.158 77.1935 128.177 78.4358C128.216 79.6973 127.145 79.9649 126.094 80.0222C125.1 80.0605 124.106 80.0414 123.132 80.0414C121.87 80.0414 120.609 79.9649 120.609 81.8189C120.609 83.348 121.029 83.6729 123.227 83.7111C124.374 83.7111 125.502 83.7111 126.648 83.7111C127.107 83.7111 127.566 83.7111 128.005 83.7876C128.808 83.9214 129.515 84.3036 129.458 85.2402C129.401 86.0429 128.751 86.387 128.005 86.4061C124.89 86.4252 121.774 86.4443 118.64 86.4061C117.378 86.4061 116.996 85.5078 116.996 84.3992C116.996 82.3541 116.996 80.3089 116.996 78.2638L117.015 78.2447Z" fill="#EEEEEE"/>
<path d="M140.85 63.1844C139.627 63.2226 138.901 62.7066 138.423 61.8656C137.926 61.0055 138.308 60.2027 138.882 59.5911C140.449 57.9283 142.074 56.3419 143.679 54.7364C144.941 53.4621 144.966 52.2134 143.756 50.9901C142.265 49.4802 140.717 48.0276 139.264 46.4794C138.022 45.1606 138.002 44.1285 138.996 43.0964C139.952 42.1216 141.175 42.1407 142.398 43.3257C145.074 45.906 147.674 48.5628 150.331 51.1813C151.363 52.1943 151.554 53.3793 150.598 54.4114C147.865 57.4695 144.998 60.3939 141.71 62.8786C141.424 63.0888 141.022 63.1462 140.831 63.2035L140.85 63.1844Z" fill="#EEEEEE"/>
<path d="M80.4174 76.7188C80.4174 75.4382 80.4174 74.1385 80.4174 72.8579C80.4174 71.7302 80.3027 70.2967 81.9082 70.2967C83.5902 70.2967 83.5902 71.7493 83.6093 72.9726C83.6284 75.1706 83.5711 77.3686 83.6475 79.5475C83.7049 81.2869 84.2018 82.8541 86.1132 83.504C88.5597 84.3259 90.7195 82.9115 90.8915 80.2165C91.0253 78.114 90.9298 75.9734 90.9489 73.8709C90.9489 73.1828 90.9489 72.4947 91.0444 71.8258C91.1782 70.9083 91.6943 70.2585 92.6691 70.2203C93.7585 70.182 94.4466 70.8701 94.4657 71.8831C94.504 75.3426 94.9818 78.8404 94.1217 82.2807C93.2616 85.6256 90.1461 87.3458 86.0176 86.8488C82.5772 86.4474 80.5321 84.2494 80.4174 80.809C80.3792 79.452 80.4174 78.0949 80.4174 76.7188V76.7188Z" fill="#EEEEEE"/>
<path d="M55.8913 86.8621C54.0373 86.8048 52.2788 86.4034 50.6733 85.4478C49.6603 84.8361 48.9913 84.0143 49.7176 82.8292C50.4248 81.6824 51.3423 82.0074 52.2597 82.619C53.5785 83.4791 55.012 83.8613 56.5985 83.7084C57.4012 83.632 58.1658 83.4791 58.3378 82.5616C58.5289 81.5869 57.9364 80.9561 57.1145 80.6312C55.7766 80.1151 54.4004 79.6564 53.0243 79.2359C51.0938 78.6434 49.9088 77.4966 49.8132 75.3559C49.7176 73.2344 50.5968 71.5715 52.47 70.7305C55.1267 69.5264 57.8217 69.794 60.3256 71.323C61.1092 71.8009 61.8738 72.489 61.2048 73.5593C60.6123 74.515 59.7522 74.5532 58.8156 74.0754C57.6497 73.4637 56.4264 73.1197 55.0885 73.2726C54.2857 73.3682 53.5021 73.5975 53.3301 74.4576C53.158 75.3368 53.8652 75.8338 54.5342 76.1778C55.0694 76.4645 55.6619 76.6174 56.2353 76.7894C56.8087 76.9615 57.4203 77.0952 57.9937 77.2673C61.1475 78.2994 62.3516 79.8476 62.0458 82.4279C61.74 84.9699 59.8477 86.5945 56.7896 86.843C56.4838 86.8621 56.178 86.843 55.8721 86.843L55.8913 86.8621Z" fill="#EEEEEE"/>
<path d="M172.314 70.0986C173.881 70.0221 175.334 70.3662 176.672 71.1689C177.532 71.7041 178.009 72.4495 177.551 73.4625C177.035 74.552 176.155 74.4755 175.238 73.9786C174.072 73.3479 172.83 73.0803 171.492 73.2523C170.689 73.367 169.982 73.6919 169.81 74.5329C169.6 75.4885 170.326 75.909 171.052 76.1575C172.275 76.5971 173.537 76.8838 174.741 77.3043C177.226 78.1453 178.698 79.9993 178.583 82.0635C178.43 84.5291 176.824 86.2684 174.072 86.708C171.415 87.1285 168.931 86.5742 166.713 85.0452C166.025 84.5673 165.356 83.9175 165.93 82.9618C166.484 82.0062 167.325 81.8915 168.281 82.3693C169.638 83.0383 170.957 83.8219 172.562 83.6881C173.594 83.6117 174.645 83.4588 174.856 82.2738C175.047 81.1461 174.091 80.7256 173.212 80.4198C172.199 80.0757 171.186 79.8081 170.154 79.4832C167.153 78.5467 166.102 77.0558 166.388 74.1697C166.599 72.029 168.567 70.328 171.167 70.0795C171.549 70.0413 171.931 70.0795 172.314 70.0795V70.0986Z" fill="#EEEEEE"/>
<path d="M171.758 47.3275C169.484 47.3275 167.19 47.3275 164.915 47.3275C163.501 47.3275 162.373 46.7923 161.743 45.5309C160.94 43.9444 162.335 42.3007 164.571 42.2816C168.757 42.2243 172.943 42.2625 177.11 42.2625C177.951 42.2625 178.792 42.2434 179.614 42.2816C181.066 42.358 182.098 43.0652 182.29 44.5561C182.462 45.8558 181.334 47.1364 179.728 47.2128C177.072 47.3466 174.415 47.251 171.758 47.251C171.758 47.2702 171.758 47.2893 171.758 47.3084V47.3275Z" fill="#EEEEEE"/>
<path d="M81.2752 63.6804C79.4595 63.6804 77.6246 63.6804 75.8088 63.6804C74.9678 63.6804 74.1268 63.6039 73.3623 63.2408C71.5656 62.4189 71.3171 60.4693 72.808 59.1888C73.6681 58.4624 74.7002 58.2904 75.7897 58.2904C79.4403 58.2904 83.0719 58.2522 86.7226 58.2904C89.1691 58.3095 90.8511 59.4372 90.8511 60.9663C90.8511 62.5145 89.2073 63.623 86.7417 63.6613C84.9259 63.6995 83.091 63.6613 81.2752 63.6613V63.6804Z" fill="#EEEEEE"/>
<path d="M125.867 63.6804C123.955 63.6804 122.063 63.6804 120.152 63.6804C119.311 63.6804 118.47 63.5848 117.743 63.1261C116.883 62.61 116.482 61.8455 116.52 60.8516C116.577 59.8386 117.093 59.1505 118.011 58.7491C118.871 58.4051 119.769 58.2904 120.687 58.2904C124.185 58.2904 127.701 58.2522 131.199 58.2904C133.971 58.3287 135.251 59.2079 135.289 60.9281C135.328 62.7438 133.952 63.6421 131.104 63.6804C129.345 63.6804 127.606 63.6804 125.847 63.6804H125.867Z" fill="#EEEEEE"/>
<path d="M81.771 42.279C84.0455 42.279 86.3391 42.2407 88.6136 42.279C90.5249 42.3172 91.5571 43.2537 91.5379 44.7255C91.5188 46.0825 90.3147 47.2675 88.5945 47.2867C84.0264 47.344 79.4583 47.3631 74.9093 47.2867C72.9979 47.2484 71.7747 46.0634 71.832 44.6108C71.8894 43.2729 73.0744 42.2981 74.9284 42.2599C77.2029 42.2025 79.4965 42.2599 81.771 42.2599V42.279Z" fill="#EEEEEE"/>
<path d="M126.112 47.3363C124.144 47.3363 122.175 47.3363 120.187 47.3363C119.652 47.3363 119.098 47.3363 118.601 47.2217C117.301 46.8585 116.441 46.0366 116.537 44.6222C116.632 43.1123 117.53 42.2904 119.06 42.2904C123.838 42.2904 128.616 42.2522 133.395 42.2904C135.038 42.3095 136.147 43.4372 136.128 44.7369C136.09 46.0557 135.019 47.1834 133.395 47.2599C130.967 47.3746 128.54 47.2981 126.112 47.2981V47.3363Z" fill="#EEEEEE"/>
<path d="M157.21 70.142C158.816 70.142 160.402 70.1038 162.008 70.142C163.097 70.1802 163.996 70.6772 163.938 71.9195C163.881 73.1619 162.849 73.1619 161.912 73.2383C160.001 73.3912 159.045 74.3979 159.045 76.2582C159.045 78.915 159.045 81.5526 159.045 84.2094C159.045 85.3944 158.892 86.675 157.344 86.675C155.93 86.675 155.49 85.4899 155.471 84.2667C155.433 81.5335 155.471 78.8194 155.433 76.0862C155.433 73.4295 155.395 73.4104 152.833 73.2575C152.681 73.2575 152.528 73.2575 152.375 73.2575C151.496 73.2001 150.597 73.0854 150.54 71.996C150.483 70.7536 151.324 70.2376 152.432 70.1802C154.019 70.1038 155.624 70.1802 157.23 70.1802L157.21 70.142Z" fill="#EEEEEE"/>
<path d="M69.0038 79.7092C69.0038 78.1993 68.9847 76.6893 69.0038 75.1794C69.042 73.8415 68.4304 73.2298 67.0925 73.2681C66.4808 73.2681 65.8692 73.2681 65.2767 73.1725C64.5504 73.0769 63.9196 72.7329 63.8241 71.9493C63.7285 71.0509 64.3592 70.554 65.1238 70.3246C65.6207 70.1717 66.175 70.1335 66.6911 70.1335C69.2714 70.1335 71.8708 70.1144 74.4511 70.1335C75.0436 70.1335 75.6744 70.2099 76.2478 70.382C77.0314 70.6113 77.6239 71.1083 77.5284 72.0257C77.4328 72.9814 76.6874 73.1916 75.8846 73.249C75.4259 73.2872 74.9672 73.249 74.5085 73.2872C72.5016 73.4019 72.4251 73.593 72.5016 75.619C72.6162 78.4095 72.578 81.2192 72.5971 84.0097C72.5971 84.392 72.5589 84.7743 72.4633 85.1374C72.1957 86.0931 71.6032 86.8003 70.5329 86.7238C69.539 86.6474 69.0994 85.8637 69.0803 84.9654C69.0229 83.2261 69.0803 81.4868 69.0803 79.7475C69.0803 79.7475 69.042 79.7475 69.0229 79.7475L69.0038 79.7092Z" fill="#EEEEEE"/>
<path d="M169.521 55.5796C169.521 53.8403 169.521 52.101 169.521 50.3617C169.521 48.8326 170.343 47.9343 171.853 47.8196C173.306 47.724 174.262 48.6032 174.395 49.9221C174.759 53.6874 174.797 57.4718 174.395 61.2371C174.242 62.5942 173.363 63.7218 171.777 63.5116C170.324 63.3205 169.541 62.3075 169.541 60.8166C169.541 59.0773 169.541 57.338 169.541 55.5987L169.521 55.5796Z" fill="#EEEEEE"/>
<path d="M79.6544 55.1278C78.2209 55.1278 76.7683 55.1661 75.3348 55.1278C73.8821 55.0705 72.7927 54.3824 72.7544 52.8342C72.6971 51.3434 73.6337 50.3495 75.0672 50.2157C78.1635 49.929 81.279 49.9481 84.3754 50.2157C85.9427 50.3495 86.9748 51.7066 86.7455 53.0063C86.497 54.5353 85.4075 55.0896 83.974 55.147C83.8211 55.147 83.6682 55.147 83.5153 55.147C82.2347 55.147 80.935 55.147 79.6544 55.147C79.6544 55.147 79.6544 55.147 79.6544 55.1278V55.1278Z" fill="#EEEEEE"/>
<path d="M124.299 55.1411C122.846 55.1411 121.413 55.1411 119.96 55.1411C118.469 55.1411 117.38 54.4339 117.246 52.9431C117.112 51.4331 118.163 50.5539 119.539 50.2863C120.648 50.0761 121.814 50.1143 122.942 50.0952C124.681 50.0952 126.439 50.0378 128.179 50.1334C130.147 50.2481 131.237 51.2993 131.18 52.8666C131.122 54.3766 130.205 55.0837 128.16 55.1602C128.007 55.1602 127.854 55.1602 127.701 55.1602C126.554 55.1602 125.426 55.1602 124.28 55.1602L124.299 55.1411Z" fill="#EEEEEE"/>
<path d="M157.345 42.1519C159.448 42.2093 160.633 44.2544 159.505 45.8981C158.091 47.9432 156.256 49.6634 154.287 51.1734C153.351 51.8997 152.261 51.6894 151.363 50.9249C150.445 50.1604 150.101 49.1092 150.751 48.0962C152.185 45.8599 154.172 44.1206 156.237 42.4577C156.562 42.2093 157.078 42.1902 157.345 42.1328V42.1519Z" fill="#EEEEEE"/>
<path d="M159.947 60.9458C159.947 62.0352 159.507 62.6851 158.762 63.182C157.921 63.7172 156.984 63.7937 156.2 63.182C154.174 61.5765 152.32 59.7799 150.734 57.7539C150.046 56.8746 150.352 55.8616 151.097 55.0589C151.843 54.2561 152.856 53.7974 153.754 54.4282C156.067 56.0146 157.997 58.0788 159.736 60.2768C159.908 60.4871 159.908 60.8502 159.947 60.984V60.9458Z" fill="#EEEEEE"/>
</g>
<defs>
<clipPath id="clip0_312_742">
<rect width="231" height="127" fill="white"/>
</clipPath>
</defs>
</svg>
