<svg width="231" height="127" viewBox="0 0 231 127" fill="none" xmlns="http://www.w3.org/2000/svg">
<g clip-path="url(#clip0_300_214)">
<path d="M81.6855 63.0811C81.9385 68.5218 77.3285 71.8844 72.6118 71.8448C67.8134 71.8051 63.6721 68.1598 63.7291 62.9472C63.7886 57.5263 67.7266 53.9852 72.7383 54C77.6583 54.0149 81.8963 57.3924 81.6855 63.0811V63.0811ZM72.7458 57.385C69.5021 57.1519 67.057 59.6342 67.0372 62.9968C67.0198 66.0172 69.4426 68.6359 72.6813 68.626C76.3241 68.616 78.4345 65.9131 78.4494 63.0142C78.4642 60.0483 76.3291 57.2312 72.7433 57.385H72.7458Z" fill="white"/>
<path d="M183.077 63.0973C183.077 60.9077 183.064 58.718 183.082 56.5283C183.091 55.1372 183.558 54.661 184.944 54.6511C187.134 54.6362 189.326 54.609 191.513 54.6759C193.958 54.7528 195.897 55.9257 197.199 57.9294C199.429 61.3565 199.277 64.915 197.157 68.3124C195.91 70.3111 193.894 71.3625 191.545 71.4964C189.363 71.6204 187.166 71.556 184.976 71.5312C183.553 71.5138 183.082 70.993 183.077 69.5448C183.069 67.3973 183.077 65.2473 183.077 63.0973ZM186.414 68.4909C187.607 68.5058 188.664 68.5356 189.72 68.5331C192.83 68.5232 194.62 67.0824 195.357 64.0595C195.892 61.8649 194.273 58.0088 191.473 57.8401C189.884 57.7434 188.284 57.7831 186.69 57.7707C186.628 57.7707 186.563 57.8649 186.414 57.9865V68.4909V68.4909Z" fill="white"/>
<path d="M44.3965 67.5876V65.0458C42.9731 64.2845 41.4281 64.8251 40.0022 64.5126C39.36 63.9745 39.0599 63.3546 39.4195 62.5412C39.7567 61.7799 40.4139 61.6138 41.1578 61.6138C42.6036 61.6138 44.0493 61.5914 45.4951 61.6212C46.9458 61.6485 47.4442 62.1543 47.4566 63.5579C47.469 65.0036 47.4343 66.4494 47.4665 67.8951C47.4888 68.949 47.0772 69.6483 46.1597 70.2212C43.2756 72.024 40.2403 72.1083 37.1331 71.0866C34.9335 70.365 33.3712 68.8449 32.6396 66.6329C31.5981 63.491 31.7295 60.4458 33.7729 57.6783C35.3972 55.4787 37.6365 54.395 40.3221 54.1694C42.368 53.9958 44.2626 54.4322 45.9414 55.6548C46.2068 55.8482 46.4746 56.0515 46.6854 56.2995C47.3475 57.0881 47.3425 57.8296 46.7077 58.5115C46.0009 59.2728 45.2917 59.3224 44.4114 58.6702C44.0816 58.4247 43.7716 58.1519 43.4269 57.9312C41.2347 56.5128 38.5788 57.408 36.8281 59.124C35.2063 60.7136 34.7822 64.2548 36.2875 66.3452C37.3166 67.7761 38.6408 68.5944 40.461 68.5771C41.8348 68.5647 43.1913 68.5771 44.399 67.5851L44.3965 67.5876Z" fill="white"/>
<path d="M144.057 65.1793C145.059 66.4093 145.969 67.5202 146.867 68.6411C147.045 68.8618 147.251 69.1023 147.316 69.3652C147.477 70.0298 147.452 70.6844 146.862 71.1779C146.279 71.6664 145.6 71.6962 145.019 71.3143C144.486 70.9647 144.015 70.4637 143.636 69.943C142.763 68.7452 141.979 67.4805 141.119 66.2704C140.92 65.9902 140.573 65.6579 140.275 65.638C139.182 65.5636 138.078 65.6083 136.94 65.6083C136.94 66.9622 136.93 68.1501 136.943 69.3379C136.95 69.9827 136.801 70.553 136.352 71.044C135.871 71.5697 135.274 71.6094 134.644 71.4978C133.979 71.3813 133.699 70.863 133.553 70.2852C133.473 69.9727 133.493 69.6305 133.493 69.3007C133.491 65.09 133.488 60.8768 133.493 56.6661C133.496 55.079 133.905 54.6574 135.45 54.6475C137.555 54.6351 139.663 54.6971 141.766 54.6351C146.004 54.5111 148.404 59.4187 146.368 62.8235C145.979 63.4732 145.349 63.9815 144.816 64.5395C144.623 64.7428 144.387 64.9015 144.057 65.1768V65.1793ZM136.925 62.3845C137.689 62.6077 141.642 62.7912 142.207 62.5036C142.728 62.2382 143.298 61.8464 143.569 61.3579C144.303 60.0386 143.916 57.7498 141.456 57.663C140.223 57.6183 138.986 57.6431 137.751 57.658C137.478 57.6605 137.208 57.7522 136.923 57.8043V62.3845H136.925Z" fill="white"/>
<path d="M115.73 71.5482C114.54 71.5234 113.828 70.4372 114.311 69.2742C114.691 68.3641 115.172 67.4937 115.621 66.6134C117.441 63.0499 119.264 59.4914 121.089 55.9304C121.22 55.6725 121.334 55.3997 121.508 55.174C122.277 54.1771 123.628 54.1697 124.325 55.2236C124.843 56.0097 125.238 56.8776 125.664 57.7233C127.467 61.2917 129.272 64.8602 131.05 68.441C131.283 68.9072 131.459 69.4404 131.502 69.9562C131.566 70.7423 131.112 71.2481 130.324 71.4713C129.538 71.6945 128.95 71.4862 128.531 70.7819C128.258 70.3207 128.03 69.8322 127.797 69.3511C127.536 68.8105 127.127 68.565 126.517 68.5675C124.164 68.5824 121.81 68.5898 119.46 68.5675C118.74 68.56 118.292 68.8601 118.014 69.4974C117.865 69.8371 117.669 70.157 117.523 70.4968C117.183 71.2953 116.541 71.5606 115.732 71.5482H115.73ZM125.533 65.2247C124.729 63.2284 123.928 61.4653 122.862 59.5782C121.872 61.5645 121.002 63.3177 120.052 65.2247H125.533V65.2247Z" fill="white"/>
<path d="M176.877 68.647H168.012C167.707 69.2694 167.419 69.9018 167.092 70.5118C166.591 71.4442 165.406 71.8558 164.57 71.412C163.816 71.0127 163.536 69.9737 164.012 69.0189C164.895 67.2459 165.844 65.5051 166.742 63.7394C168.034 61.2026 169.306 58.6558 170.586 56.1115C170.715 55.8536 170.826 55.5833 170.98 55.3403C171.841 53.9789 173.569 54.3162 174.087 55.4618C175.022 57.53 176.096 59.5337 177.113 61.5646C178.258 63.851 179.402 66.1349 180.545 68.4213C180.694 68.7164 180.86 69.0065 180.969 69.3165C181.299 70.2489 181.061 70.9061 180.28 71.3152C179.449 71.7517 178.613 71.6079 178.095 70.8342C177.641 70.1547 177.294 69.4033 176.877 68.6445V68.647ZM169.594 65.3067C171.506 65.3067 173.152 65.3662 175 65.2521C174.33 63.1864 173.435 61.4902 172.466 59.5386C171.461 61.5572 170.588 63.3079 169.594 65.3067V65.3067Z" fill="white"/>
<path d="M141.829 79.9318C141.666 79.354 141.427 78.8953 141.42 78.434C141.385 76.0385 141.405 73.6455 141.415 71.25C141.415 71.0616 141.497 70.8731 141.576 70.5234C142.581 71.565 143.488 72.5048 144.688 73.7472V76.6882C145.879 77.0453 165.861 77.0602 167.009 76.7428C167.357 75.9889 167.176 75.1508 167.173 74.3448C167.173 73.5587 167.314 72.9115 167.949 72.3659C168.306 72.0584 168.532 71.5898 168.785 71.1731C169.105 70.6499 169.502 70.387 170.233 70.7218C170.285 70.9673 170.402 71.2748 170.404 71.5848C170.422 73.5265 170.422 75.4657 170.404 77.4074C170.402 77.7744 170.31 78.1414 170.246 78.5059C170.027 79.726 169.72 80.0261 168.495 80.1749C168.17 80.2145 167.835 80.1997 167.505 80.1997C159.783 80.1997 152.063 80.2071 144.341 80.1873C143.568 80.1873 142.796 80.0335 141.827 79.9318H141.829Z" fill="white"/>
<path d="M167.162 49.5716C166.059 49.4476 165.168 49.2641 164.276 49.2591C159.028 49.2318 153.779 49.2269 148.531 49.2591C147.306 49.2666 146.081 49.4525 144.735 49.5666C144.67 50.7247 144.608 51.8505 144.539 53.14C143.472 52.954 142.56 52.7928 141.528 52.6143C141.486 52.2473 141.412 51.8952 141.409 51.5405C141.394 50.3428 141.389 49.1426 141.412 47.9448C141.434 46.757 141.93 46.2015 143.088 46.0329C143.413 45.9858 143.748 46.0031 144.078 46.0031C151.886 46.0031 159.698 46.0031 167.507 46.0031C167.879 46.0031 168.256 45.9907 168.62 46.0453C169.778 46.2213 170.126 46.5313 170.212 47.7043C170.331 49.3062 170.369 50.9131 170.403 52.5201C170.411 52.8325 170.307 53.1846 170.15 53.4599C169.416 54.7444 168.653 56.0116 167.886 57.2763C167.745 57.5094 167.554 57.7128 167.165 57.869V49.5666L167.162 49.5716Z" fill="white"/>
<path d="M105.766 72.1896C104.166 72.1053 102.698 71.7134 101.314 71.0365C100.779 70.7736 100.258 70.3743 99.8786 69.9156C99.3256 69.246 99.4223 68.3682 99.9629 67.7557C100.456 67.1977 101.138 67.1258 101.976 67.6317C103.554 68.5864 105.247 68.941 107.075 68.8096C107.722 68.7625 108.28 68.5839 108.746 68.1202C109.748 67.1258 109.704 65.8983 108.446 65.2684C107.206 64.6485 105.825 64.3137 104.513 63.8351C103.702 63.54 102.862 63.2871 102.11 62.8729C100.345 61.9033 99.5165 60.3782 99.7769 58.3522C100.012 56.5321 100.99 55.193 102.678 54.4912C105.022 53.5166 107.42 53.4422 109.756 54.5085C110.363 54.7863 110.887 55.3095 111.355 55.808C111.702 56.1774 111.789 56.6982 111.464 57.1842C111.144 57.6628 110.713 57.9728 110.118 57.8885C109.758 57.8364 109.389 57.7348 109.066 57.5661C107.849 56.9313 106.547 56.7726 105.218 56.909C104.714 56.9611 104.179 57.1842 103.757 57.4744C102.745 58.1712 102.745 59.4334 103.727 60.1749C104.084 60.4427 104.511 60.6411 104.932 60.7948C105.746 61.0875 106.584 61.3181 107.407 61.5884C108.228 61.8587 109.064 62.1017 109.86 62.4365C112.826 63.6913 113.711 66.7637 111.844 69.6279C111.214 70.5951 110.21 71.1654 109.133 71.4853C108.04 71.8102 106.894 71.9614 105.771 72.1871L105.766 72.1896Z" fill="white"/>
<path d="M90.0548 72.0362C88.6612 72.18 87.1311 71.6741 85.7002 70.9153C85.1522 70.6252 84.6513 70.1119 84.314 69.5837C83.8924 68.9215 84.1082 68.1478 84.6463 67.6742C85.1572 67.2254 85.8069 67.1262 86.474 67.5676C88.0263 68.5942 89.7225 68.9389 91.5452 68.8075C92.5495 68.7356 93.3976 68.4057 93.8614 67.4262C94.1565 66.8013 94.0994 66.2558 93.6109 65.7226C92.8669 64.9142 91.8453 64.696 90.8831 64.3488C89.4497 63.8355 87.9693 63.4288 86.5905 62.7989C85.1795 62.1566 84.4926 60.949 84.3587 59.3569C84.1231 56.5076 86.0003 54.6031 88.7802 53.9956C90.5855 53.6013 92.3958 53.6682 94.1069 54.4171C94.7318 54.6899 95.322 55.1189 95.8105 55.6C96.3759 56.153 96.3536 56.6787 95.9593 57.2788C95.5675 57.8765 94.9326 58.1096 94.2358 57.8938C94.0424 57.8343 93.8589 57.7302 93.6803 57.631C92.3635 56.8895 90.9352 56.7804 89.477 56.9069C88.6215 56.9813 87.7883 57.7426 87.632 58.5138C87.4609 59.3544 87.7734 59.9967 88.805 60.4505C89.8589 60.9118 90.9823 61.2143 92.066 61.6036C93.0728 61.9657 94.1242 62.2558 95.0616 62.7518C97.7051 64.1529 98.1267 68.123 95.9246 70.1615C94.33 71.6369 92.4082 72.0585 90.0499 72.0337L90.0548 72.0362Z" fill="white"/>
<path d="M54.1172 68.2974C55.2083 68.2974 56.0688 68.2974 56.9268 68.2974C58.1246 68.2974 59.3223 68.28 60.5201 68.3048C61.8716 68.3321 62.5758 68.9273 62.5436 69.9539C62.5163 70.8243 61.6608 71.5286 60.53 71.536C57.9683 71.5559 55.4091 71.5435 52.8475 71.5435C52.7656 71.5435 52.6813 71.5435 52.5995 71.5385C51.491 71.4443 50.9802 70.926 50.9207 69.7952C50.8934 69.2596 50.9132 68.7214 50.9132 68.1858C50.9132 64.4686 50.9132 60.7513 50.9132 57.0341C50.9132 56.6621 50.8959 56.2827 50.9678 55.9232C51.1414 55.0701 51.6993 54.6411 52.54 54.6485C53.3806 54.6535 53.9138 55.0924 54.0676 55.9653C54.132 56.3274 54.1122 56.7068 54.1122 57.0763C54.1147 60.2975 54.1122 63.5188 54.1122 66.7401C54.1122 67.184 54.1122 67.6303 54.1122 68.2924L54.1172 68.2974Z" fill="white"/>
<path d="M155.787 54.6834C157.313 54.6834 158.84 54.6313 160.36 54.6982C161.734 54.7578 162.436 56.1911 161.652 57.2822C161.454 57.5575 161.107 57.803 160.779 57.8922C160.231 58.0435 159.646 58.1129 159.076 58.1204C156.891 58.1452 154.706 58.1402 152.524 58.1204C152.035 58.1154 151.537 58.0559 151.061 57.9443C149.853 57.6616 149.385 56.2208 150.156 55.2438C150.525 54.7751 151.016 54.6635 151.582 54.6685C152.983 54.6834 154.384 54.6734 155.785 54.6734V54.6809L155.787 54.6834Z" fill="white"/>
<path d="M155.934 64.8184C154.488 64.8184 153.043 64.8531 151.599 64.8085C150.287 64.7688 149.682 64.0348 149.863 62.8147C149.995 61.9295 150.493 61.4484 151.458 61.3938C152.323 61.3467 153.191 61.3765 154.059 61.3765C155.877 61.3765 157.692 61.3715 159.51 61.3789C159.879 61.3789 160.261 61.374 160.616 61.4608C161.486 61.6765 162.089 62.5147 161.962 63.2884C161.843 64.0175 161.082 64.8606 160.271 64.8308C158.828 64.7763 157.382 64.816 155.937 64.816L155.934 64.8184Z" fill="white"/>
<path d="M155.808 71.5374C154.323 71.5374 152.837 71.5374 151.352 71.5374C150.645 71.5374 150.176 71.1704 149.924 70.5479C149.656 69.8883 149.861 69.0104 150.405 68.6434C150.692 68.45 151.082 68.3161 151.426 68.3136C154.355 68.2863 157.286 68.2789 160.217 68.3062C161.308 68.3161 161.968 68.9385 161.971 69.8213C161.973 70.9125 161.373 71.5051 160.14 71.5324C158.697 71.5646 157.251 71.5398 155.808 71.5398V71.5374Z" fill="white"/>
</g>
<defs>
<clipPath id="clip0_300_214">
<rect width="231" height="127" fill="white"/>
</clipPath>
</defs>
</svg>
