<svg width="216" height="207" viewBox="0 0 216 207" fill="none" xmlns="http://www.w3.org/2000/svg">
<g clip-path="url(#clip0_5455_7581)">
<rect width="216" height="206.929" fill="#151517"/>
<path d="M55.1611 93.7124C54.916 93.7124 54.8547 93.5898 54.9773 93.406L56.264 91.7517C56.3865 91.5679 56.6929 91.4453 56.938 91.4453H78.812C79.0571 91.4453 79.1184 91.6291 78.9958 91.8129L77.9542 93.406C77.8317 93.5898 77.5253 93.7736 77.3415 93.7736L55.1611 93.7124Z" fill="white"/>
<path d="M45.9111 99.3452C45.666 99.3452 45.6047 99.2226 45.7273 99.0388L47.014 97.3845C47.1365 97.2007 47.4429 97.0781 47.688 97.0781H75.6279C75.873 97.0781 75.9955 97.2619 75.9343 97.4458L75.4441 98.9163C75.3828 99.1614 75.1377 99.2839 74.8927 99.2839L45.9111 99.3452Z" fill="white"/>
<path d="M60.7412 104.982C60.4961 104.982 60.4348 104.798 60.5574 104.614L61.4152 103.082C61.5377 102.899 61.7828 102.715 62.0279 102.715H74.2822C74.5273 102.715 74.6499 102.899 74.6499 103.144L74.5273 104.614C74.5273 104.859 74.2822 105.043 74.0984 105.043L60.7412 104.982Z" fill="white"/>
<path d="M124.339 92.6098C120.479 93.5901 117.844 94.3254 114.045 95.3057C113.126 95.5508 113.065 95.6121 112.269 94.693C111.349 93.6514 110.675 92.9774 109.389 92.3647C105.529 90.4652 101.791 91.0167 98.2986 93.2838C94.1321 95.9797 91.9876 99.9624 92.0488 104.925C92.1101 109.827 95.4801 113.871 100.321 114.545C104.487 115.097 107.979 113.626 110.737 110.501C111.288 109.827 111.778 109.092 112.391 108.234C110.185 108.234 107.428 108.234 100.566 108.234C99.2789 108.234 98.9725 107.438 99.4014 106.396C100.198 104.496 101.669 101.31 102.526 99.7173C102.71 99.3497 103.139 98.7369 104.058 98.7369C107.183 98.7369 118.702 98.7369 126.361 98.7369C126.238 100.391 126.238 102.046 125.993 103.7C125.319 108.112 123.665 112.155 120.969 115.709C116.558 121.53 110.798 125.145 103.507 126.125C97.502 126.922 91.9263 125.758 87.0245 122.081C82.4904 118.65 79.917 114.116 79.243 108.479C78.4465 101.801 80.4072 95.7959 84.4511 90.5265C88.8014 84.8282 94.561 81.2132 101.607 79.9265C107.367 78.8849 112.881 79.5589 117.844 82.9288C121.092 85.0733 123.42 88.0144 124.952 91.5681C125.319 92.1196 125.074 92.4259 124.339 92.6098Z" fill="white"/>
<path d="M144.62 126.494C139.045 126.372 133.959 124.778 129.67 121.102C126.055 117.977 123.788 113.995 123.053 109.277C121.95 102.353 123.849 96.2258 128.016 90.7726C132.489 84.8905 137.88 81.8269 145.172 80.5402C151.422 79.4373 157.304 80.05 162.634 83.6651C167.475 86.9737 170.477 91.4466 171.274 97.3287C172.315 105.6 169.926 112.34 164.227 118.1C160.183 122.205 155.22 124.778 149.522 125.943C147.868 126.249 146.213 126.31 144.62 126.494ZM159.203 101.74C159.142 100.944 159.142 100.331 159.019 99.7183C157.916 93.6524 152.341 90.2211 146.52 91.5691C140.822 92.8558 137.145 96.4709 135.797 102.23C134.694 107.01 137.023 111.85 141.434 113.811C144.804 115.281 148.174 115.097 151.422 113.443C156.262 110.931 158.897 107.01 159.203 101.74Z" fill="white"/>
</g>
<defs>
<clipPath id="clip0_5455_7581">
<rect width="216" height="206.929" fill="white"/>
</clipPath>
</defs>
</svg>
