<svg width="231" height="127" viewBox="0 0 231 127" fill="none" xmlns="http://www.w3.org/2000/svg">
<g clip-path="url(#clip0_503_3669)">
<g clip-path="url(#clip1_503_3669)">
<path d="M68.9845 78.5428C68.9765 78.5336 68.9685 78.5241 68.9604 78.5149C68.9823 78.4079 68.9677 78.2711 69.1213 78.2541C69.4886 78.2138 69.8139 78.0695 70.117 77.8679C70.641 77.5193 71.0954 77.093 71.5221 76.6311C71.8593 76.266 72.1815 75.8887 72.4896 75.4998C73.044 74.7997 73.5585 74.0701 74.0537 73.3273C74.5578 72.5708 75.038 71.7991 75.5084 71.0216C75.8888 70.3925 76.2675 69.7624 76.6379 69.1275C77.1263 68.2905 77.6079 67.4494 78.0885 66.6078C78.4289 66.0118 78.7634 65.4123 79.0997 64.8138C79.4953 64.1097 79.8804 63.3996 80.2947 62.7063C80.4522 62.4428 80.6138 62.182 80.7734 61.92C80.7899 61.9049 80.8064 61.8901 80.8229 61.8751C80.9648 61.838 81.0885 61.7458 81.2392 61.7344C79.3881 64.7048 77.8037 67.8298 75.9715 70.8117C75.0489 72.3134 74.1255 73.8135 73.0607 75.2208C72.4062 76.0859 71.7191 76.9229 70.8943 77.635C70.4949 77.9797 70.0723 78.2907 69.5604 78.4533C69.4508 78.488 69.3382 78.5135 69.2268 78.5433H68.9842L68.9845 78.5428Z" fill="#3C3C3C"/>
<path d="M25.0244 76.4777C25.0455 76.363 25.0642 76.2475 25.088 76.1332C25.236 75.42 25.589 74.8067 26.0222 74.2341C26.6217 73.4425 27.3432 72.7707 28.1028 72.1385C29.5604 70.9255 31.1349 69.8767 32.7293 68.8565C33.2946 68.4948 33.8669 68.1445 34.4358 67.7891C34.4424 67.8878 34.536 67.9552 34.5321 68.0576C33.3664 68.7799 32.207 69.5116 31.0723 70.2818C30.8724 70.4175 30.665 70.5434 30.4806 70.7008C30.4561 70.7146 30.4301 70.7263 30.4073 70.7425C29.3782 71.4708 28.3699 72.2244 27.4478 73.0885C26.8854 73.6155 26.3663 74.1769 25.9478 74.8258C25.5484 75.4455 25.2818 76.108 25.3146 76.863C25.3252 77.1112 25.3956 77.3392 25.5356 77.545C25.4492 77.602 25.4206 77.6939 25.3893 77.7844C25.1908 77.5906 25.1025 77.3438 25.0511 77.0794C25.0436 77.0403 25.0334 77.0018 25.0242 76.9629C25.0242 76.8011 25.0242 76.6396 25.0242 76.4777H25.0244Z" fill="#7B7B7B"/>
<path d="M50.5198 49.0365C50.5205 49.0295 50.5215 49.0227 50.5222 49.0156H51.2015C51.2022 49.0224 51.2032 49.0295 51.2039 49.0362C50.9759 49.0362 50.7478 49.0362 50.5198 49.0362V49.0365Z" fill="#CDCDCD"/>
<path d="M30.4807 70.7026C30.6653 70.5452 30.8728 70.4193 31.0724 70.2837C32.2071 69.5134 33.3665 68.7814 34.5322 68.0594C34.7593 67.9226 34.9864 67.7855 35.2135 67.6485C35.2547 67.6752 35.2974 67.6759 35.3389 67.6511C35.515 67.5461 35.6907 67.4403 35.8661 67.3341C35.9442 67.2868 35.9507 67.2256 35.9017 67.1506C35.8622 67.0902 35.8287 67.0257 35.7926 66.9629C36.0342 66.8115 36.2722 66.6543 36.5179 66.5104C36.9071 66.2829 37.2205 65.9757 37.4872 65.6171C37.5903 65.4781 37.6905 65.3362 37.7472 65.1703C37.7606 65.1314 37.7989 65.0844 37.7606 65.0485C37.7239 65.0138 37.6737 65.0465 37.6356 65.0623C37.5238 65.1084 37.4127 65.1576 37.3054 65.2137C36.7535 65.5021 36.1953 65.777 35.5909 65.94C34.5642 66.2171 33.5273 66.3205 32.4749 66.0973C32.2978 66.0597 32.1248 66.0068 31.9601 65.9296C31.996 65.8639 32.064 65.8321 32.1161 65.7836C32.1557 65.7469 32.1726 65.7115 32.1054 65.688C31.9841 65.6453 31.8791 65.571 31.7643 65.5157C31.7326 65.4985 31.6983 65.4847 31.6692 65.4636C31.1636 65.0999 30.9218 64.5967 30.8953 63.9837C30.873 63.4645 30.9722 62.9626 31.1285 62.4701C31.4664 61.405 32.0348 60.4632 32.6824 59.5639C33.1363 58.9334 33.6477 58.3506 34.1705 57.7773C34.2163 57.7924 34.2637 57.8035 34.3076 57.823C34.8719 58.0709 35.4342 58.3232 36.0002 58.5673C36.2846 58.6898 36.5638 58.8259 36.8615 58.9164C36.8624 58.9234 36.8634 58.9302 36.8641 58.9372C36.6587 59.1978 36.4847 59.4797 36.3078 59.7597C35.8564 60.4746 35.4548 61.2158 35.1509 62.0067C35.064 62.2328 34.983 62.4618 34.9502 62.7037C34.9446 62.7457 34.9291 62.8022 34.9786 62.8238C35.0298 62.8461 35.055 62.7932 35.0824 62.7602C35.1361 62.6954 35.1737 62.6156 35.2562 62.579C35.188 62.8835 35.2074 63.1768 35.3578 63.4572C35.3896 63.5164 35.4306 63.5615 35.4781 63.6047C35.4602 63.6404 35.4461 63.6787 35.424 63.7115C35.3396 63.8367 35.3469 63.858 35.4791 63.9308C35.6926 64.0487 35.9223 64.0693 36.1591 64.0579C36.1815 64.105 36.2205 64.1035 36.2625 64.0936C36.3527 64.072 36.3804 64.1193 36.377 64.1989C36.3753 64.2391 36.3707 64.2792 36.3668 64.3192C36.3391 64.5972 36.3559 64.876 36.3569 65.1542C36.3573 65.2435 36.4114 65.2787 36.4964 65.2426C36.589 65.203 36.6795 65.1579 36.7707 65.1149C37.057 64.9801 37.3144 64.7884 37.6446 64.7425C37.8913 64.7083 38.0852 64.8794 38.0532 65.08C38.041 65.1567 38.0253 65.2314 37.9954 65.3018C37.8467 65.6535 37.6223 65.9585 37.3765 66.2452C37.1761 66.4791 36.9267 66.662 36.6618 66.819C36.5245 66.9005 36.4777 67.0056 36.5085 67.1628C36.5456 67.3525 36.5653 67.5459 36.5944 67.7373C36.7271 68.609 36.9306 69.4646 37.1715 70.312C37.2009 70.4156 37.2538 70.4438 37.3481 70.3909C37.3394 70.4324 37.3101 70.4605 37.2851 70.4925C36.9481 70.9251 36.6021 71.3504 36.253 71.7735C35.7678 72.3616 35.2576 72.9268 34.7312 73.4773C34.0545 74.1848 33.3464 74.8602 32.5926 75.4858C32.5086 75.4858 32.4538 75.5433 32.3922 75.5875C32.276 75.671 32.2505 75.6634 32.1923 75.53C32.0239 75.143 31.8485 74.759 31.6981 74.3645C31.6748 74.3031 31.6399 74.26 31.5729 74.2483C31.6789 74.1224 31.7854 73.9967 31.8912 73.8703C32.2263 73.4691 32.5577 73.0651 32.8388 72.6231C32.9982 72.4496 33.1062 72.2422 33.2238 72.0411C33.3667 71.8579 33.4568 71.6486 33.5674 71.4127C33.4449 71.4499 33.3847 71.5134 33.3114 71.553C33.2682 71.5763 33.2345 71.6323 33.1722 71.6003C33.2294 71.4877 33.2867 71.3751 33.3439 71.2623C33.3592 71.2655 33.3764 71.2749 33.3898 71.2713C33.6433 71.1988 33.8173 70.9486 33.7979 70.6866C33.7835 70.4942 33.6649 70.3851 33.472 70.3926C33.3667 70.3967 33.2653 70.4193 33.169 70.4666C32.7039 70.6949 32.283 70.9957 31.8531 71.2798C31.5581 71.4748 31.2905 71.7111 30.995 71.9081C30.9055 71.9678 30.872 71.9535 30.8468 71.8543C30.7655 71.5336 30.6779 71.2145 30.5972 70.8938C30.5775 70.8157 30.5467 70.7502 30.48 70.7041L30.4807 70.7026Z" fill="#484848"/>
<path d="M64.521 60.5401C64.6995 60.1833 64.8735 59.8244 65.0103 59.4484C65.1078 59.1808 65.1765 58.9093 65.1546 58.6216C65.3482 58.4845 65.3946 58.378 65.3194 58.2363C65.1687 57.9525 64.9285 57.7756 64.617 57.7337C64.1862 57.6754 63.7529 57.623 63.3159 57.6279C63.028 57.631 62.8722 57.7778 62.8732 58.0673C62.8737 58.2667 62.8465 58.4622 62.8074 58.6558C62.641 59.4802 62.3441 60.2604 61.9993 61.0241L61.9964 61.0261C61.8052 61.0501 61.6136 61.0702 61.4231 61.0993C61.1456 61.1415 60.8637 61.1522 60.5895 61.217C60.4915 61.2172 60.3938 61.2175 60.2957 61.218C60.4534 60.9174 60.6106 60.6165 60.7438 60.3041C61.0262 59.6415 61.2819 58.9702 61.4035 58.2558C61.4239 58.1354 61.4125 58.0226 61.3474 57.9176C61.5253 57.7465 61.5114 57.6488 61.2887 57.5556C61.1849 57.5122 61.0757 57.4787 60.9661 57.4522C60.6919 57.386 60.4209 57.2924 60.1359 57.2919C59.8304 57.2912 59.688 57.4588 59.7191 57.7545C59.7302 57.8608 59.7909 57.9421 59.8561 58.0195C59.9289 58.1056 60.0066 58.1878 60.0825 58.2715C60.2538 58.4603 60.2545 58.5212 60.0793 58.7097C59.9139 58.8877 59.7351 59.0503 59.5277 59.1794C59.2525 59.3504 58.9939 59.5433 58.7695 59.7783C58.2887 60.2818 57.8571 60.8237 57.4856 61.4133C57.4772 61.4218 57.4687 61.43 57.4602 61.4385C57.1775 61.4882 56.8908 61.4645 56.6062 61.48C56.1889 61.5028 55.7692 61.4858 55.3507 61.4858C55.349 61.4336 55.3529 61.3805 55.3446 61.3293C55.2835 60.947 55.2534 60.5608 55.2835 60.1762C55.3058 59.8902 55.2476 59.5695 55.5205 59.3511C55.5608 59.3266 55.6011 59.3021 55.6414 59.2776C55.8565 59.1418 56.062 58.9923 56.261 58.8334C56.4383 58.6917 56.4291 58.6032 56.2219 58.5013C56.2777 58.4333 56.3466 58.3805 56.4165 58.3283C56.4155 58.4139 56.4553 58.4756 56.5305 58.5119C56.5848 58.5384 56.6322 58.5158 56.6729 58.4768C57.1382 58.0292 57.5803 57.5612 57.9325 57.0165C58.1378 56.699 58.1142 56.6325 57.7729 56.4777C57.7656 56.4743 57.7593 56.4692 57.7525 56.4648C57.6754 56.3719 57.7198 56.3023 57.7964 56.2399C57.943 56.1206 58.0922 56.0046 58.2358 55.8821C58.343 55.7909 58.4612 55.745 58.6019 55.7606C58.812 55.8413 59.0211 55.9243 59.2319 56.0027C59.5073 56.1048 59.7858 56.1982 60.0716 56.2666C60.1698 56.2902 60.1904 56.2647 60.1613 56.1681C60.1427 56.1068 60.1237 56.0456 60.1048 55.9842C60.3418 56.0328 60.574 56.1075 60.8198 56.1065C60.9983 56.1058 61.0148 56.0866 60.9641 55.919C60.87 55.6089 60.7443 55.311 60.6068 55.0184C60.2329 54.2232 59.762 53.4922 59.1586 52.85C59.2069 52.7326 59.1208 52.6433 59.0948 52.5414C59.0856 52.5053 59.0483 52.4614 59.0946 52.4327C59.1327 52.409 59.1594 52.4519 59.1853 52.475C59.509 52.7627 59.7785 53.0972 60.0357 53.4439C60.1963 53.6603 60.3168 53.9054 60.5131 54.0968C60.5878 54.1696 60.6623 54.1899 60.7635 54.1734C60.934 54.1458 61.107 54.1322 61.2788 54.1121C61.4006 54.0977 61.4874 54.1392 61.5439 54.254C61.6027 54.3733 61.6825 54.4801 61.7802 54.5718C61.7941 54.5914 61.8101 54.6101 61.8217 54.631C62.043 55.0252 62.2368 55.4326 62.4137 55.8489C62.4809 56.007 62.5418 56.1701 62.6937 56.278C62.8225 56.37 62.9712 56.3816 63.1168 56.4076C63.258 56.4326 63.2861 56.3969 63.2861 56.2552C63.2861 56.1448 63.2002 56.1572 63.1398 56.1291C63.9756 56.1723 64.8082 56.0662 65.6433 56.0793C66.0547 56.0859 66.4662 56.0978 66.8725 56.171C66.8999 56.1759 66.9264 56.1863 66.9533 56.1941C66.8832 56.2251 66.8822 56.2972 66.8587 56.3554C66.8391 56.4037 66.8298 56.4704 66.7711 56.477C66.5955 56.4964 66.6746 56.5704 66.7292 56.6432C67.0234 57.0362 67.2687 57.4576 67.4667 57.9071C67.7277 58.5003 67.874 59.1238 67.9672 59.7619C67.9184 59.7786 67.8699 59.7953 67.8211 59.8118C67.7699 59.8227 67.7178 59.8312 67.6673 59.8451C66.9897 60.0311 66.3077 60.1993 65.6231 60.3574C65.3286 60.4254 65.028 60.4683 64.7398 60.5632C64.6687 60.5416 64.5869 60.6221 64.5222 60.5404L64.521 60.5401Z" fill="#8E8E8E"/>
<path d="M51.7438 49.7422C51.5633 50.067 51.384 50.3929 51.202 50.7167C50.907 51.2417 50.6103 51.766 50.3138 52.29C50.2064 52.4797 50.1338 52.5159 49.9191 52.4863C49.3388 52.406 48.7582 52.3301 48.1716 52.3058C47.503 52.2781 46.8492 52.365 46.2029 52.5246C44.5903 52.9227 43.1259 53.6469 41.7453 54.555C41.6882 54.5924 41.6375 54.6406 41.5698 54.6608C41.5698 54.6285 41.5713 54.596 41.5696 54.5637C41.5626 54.4286 41.5208 54.4055 41.4025 54.4723C41.3285 54.5138 41.2528 54.5531 41.1834 54.6016C40.5167 55.0666 39.8845 55.5759 39.2937 56.1334C38.603 56.7855 37.9575 57.4811 37.3742 58.2324C37.3022 58.1861 37.2207 58.1623 37.1411 58.1337C36.6095 57.9437 36.0797 57.7496 35.5464 57.565C35.2648 57.4675 34.9945 57.3389 34.7058 57.261C35.0326 56.8906 35.4043 56.5667 35.7716 56.2389C36.2262 55.833 36.6957 55.4446 37.1741 55.0666C37.8716 54.515 38.5882 53.9895 39.3282 53.4967C40.0346 53.0263 40.7605 52.5875 41.507 52.1823C42.1608 51.8276 42.8268 51.4979 43.5054 51.1935C44.1509 50.9038 44.8098 50.6471 45.4763 50.4108C45.8759 50.2691 46.2776 50.133 46.6898 50.0314C46.7264 50.0978 46.6849 50.1461 46.6522 50.1973C46.4625 50.4933 46.2681 50.7866 46.085 51.0867C45.8511 51.4695 45.6328 51.8616 45.4392 52.2667C45.4244 52.2978 45.3882 52.333 45.4164 52.366C45.4467 52.4014 45.4918 52.3793 45.5299 52.3677C45.6032 52.3451 45.6747 52.3143 45.7497 52.2997C45.9714 52.2566 46.1954 52.2231 46.4171 52.1796C46.8298 52.0989 47.2434 52.0312 47.6651 52.02C48.407 52.0004 49.1411 52.0797 49.8718 52.1947C49.9955 52.2141 50.053 52.1777 50.1103 52.0748C50.4841 51.4043 50.8692 50.7403 51.2382 50.067C51.3534 49.8567 51.5332 49.7842 51.7442 49.7422H51.7438Z" fill="#7B7B7B"/>
<path d="M45.4281 66.4255C45.3549 66.3964 45.2814 66.3673 45.2081 66.3381C45.1615 66.2331 45.3313 66.1351 45.2253 66.0349C45.1438 65.9577 45.0455 65.8985 44.9548 65.8313C44.9517 65.8289 44.948 65.827 44.9446 65.8248C44.809 65.6693 44.6935 65.5014 44.6438 65.2979C44.6042 65.136 44.6319 64.9708 44.628 64.8071C44.652 64.6855 44.6763 64.5637 44.7003 64.4422C44.7188 64.3893 44.7396 64.3371 44.7554 64.2833C44.7811 64.1964 44.7583 64.1479 44.6564 64.1676C44.6042 64.1775 44.5523 64.1804 44.5048 64.1501C44.5193 64.0577 44.5409 63.9669 44.5761 63.8798C44.6688 63.9567 44.8333 63.9223 44.8631 63.8194C44.9233 63.6117 44.784 63.39 44.5674 63.3575C44.4633 63.342 44.3578 63.3427 44.2566 63.3813C44.0712 63.4516 43.8934 63.5377 43.7231 63.6387C43.2816 63.9002 42.8672 64.2025 42.4441 64.4914C42.3725 64.4951 42.3131 64.5295 42.2561 64.5683C42.1629 64.6319 42.0712 64.6981 41.9773 64.7607C41.9489 64.7796 41.921 64.8185 41.882 64.7947C41.8509 64.7758 41.8628 64.736 41.8621 64.7049C41.8485 64.1882 41.8878 63.6739 41.9436 63.1612C42.0169 62.4868 42.1481 61.822 42.3238 61.1665C42.341 61.102 42.3456 61.0399 42.3225 60.9766C42.7595 61.1199 43.1964 61.2633 43.6333 61.4069C43.5302 61.4936 43.5009 61.6241 43.4349 61.7318C43.3461 61.8769 43.3725 61.9773 43.4839 62.0872C43.5734 62.1758 43.692 62.2112 43.7617 62.151C43.8243 62.0972 43.8177 61.9261 43.7498 61.8441C43.8396 61.8203 43.9296 61.7966 44.0193 61.7728C44.0523 61.8233 44.0438 61.8805 44.046 61.9358C44.0494 62.019 44.0921 62.0445 44.1644 62.0113C44.3417 61.9298 44.5235 61.8558 44.6756 61.7286C44.7188 61.7388 44.7624 61.7471 44.8051 61.7595C45.4141 61.9363 46.022 62.1163 46.6317 62.2903C46.9886 62.3922 47.3445 62.4984 47.7089 62.5727C47.7986 62.5977 47.8884 62.6224 47.9782 62.6471C47.9209 62.8526 47.8467 63.055 47.8571 63.2738C47.869 63.5196 47.9852 63.6593 48.2198 63.7044C48.2671 63.7136 48.3161 63.7144 48.3641 63.7192C48.384 63.7602 48.3848 63.8044 48.3894 63.8485C48.4003 63.9575 48.4546 64.0026 48.5609 63.9713C48.7623 63.9123 48.9539 63.8298 49.116 63.6908C49.1965 63.6384 49.2761 63.5843 49.3576 63.5339C49.5483 63.4155 49.6973 63.2415 49.8935 63.1309C49.9289 63.137 49.9649 63.1416 50 63.1491C50.345 63.2228 50.6861 63.3136 51.0345 63.3716L51.0297 63.3805C50.9399 63.4735 50.8516 63.5676 50.7604 63.6591C50.3074 64.1137 49.8615 64.5751 49.3525 64.9701C48.6492 65.5157 47.8915 65.9514 47.0123 66.1443C46.5635 66.2428 46.1101 66.2831 45.6547 66.1996C45.5419 66.1788 45.4856 66.2042 45.4577 66.309C45.4473 66.3478 45.4383 66.3872 45.4286 66.4262L45.4281 66.4255Z" fill="#4C4C4C"/>
<path d="M80.8229 61.8706C80.8064 61.8856 80.7899 61.9004 80.7734 61.9155C80.7314 61.9295 80.6885 61.9412 80.6477 61.9579C80.1096 62.177 79.5662 62.3818 79.0125 62.5586C78.6057 62.6886 78.1962 62.8114 77.7881 62.9373C77.7279 62.9395 77.6721 62.955 77.6212 62.9878C77.1095 63.1139 76.5986 63.2445 76.0858 63.365C75.7177 63.4516 75.3504 63.5419 74.9761 63.5989C75.0093 63.5846 75.0413 63.5674 75.0755 63.5567C75.6134 63.3907 76.1025 63.1304 76.5622 62.807C77.0659 62.4528 77.5234 62.0448 77.9718 61.6263C78.4589 61.1714 78.9053 60.6755 79.3597 60.1884C79.8275 59.6869 80.2741 59.1658 80.7549 58.6762C80.8765 58.5525 81.0087 58.4389 81.114 58.2992C81.2127 58.1682 81.1933 58.0731 81.0446 57.9906C81.2275 57.8072 81.4131 57.6264 81.6218 57.4717C81.6528 57.5231 81.6827 57.5753 81.7152 57.6255C81.7503 57.6801 81.7909 57.6866 81.8442 57.6429C82.0206 57.4983 82.1994 57.3567 82.3772 57.214C82.5611 57.0815 82.7613 56.9724 82.9367 56.8278C83.2385 56.6655 83.5306 56.4845 83.8615 56.3816C84.0204 56.3321 84.1703 56.3319 84.3176 56.4132C84.4116 56.4915 84.5074 56.4966 84.6051 56.4287C84.6277 56.4132 84.6536 56.4027 84.6781 56.3899C84.7121 56.4333 84.7553 56.4716 84.7562 56.5333C84.5575 56.6279 84.5464 56.6463 84.559 56.8569C84.5638 56.9389 84.5517 57.017 84.5214 57.0939C84.4496 57.2754 84.3496 57.4406 84.2354 57.5976C83.9018 58.0554 83.5182 58.4693 83.1138 58.864C82.836 59.135 82.583 59.4273 82.3406 59.7293C81.9389 60.2298 81.5648 60.751 81.2035 61.2813C81.072 61.4744 80.9308 61.6617 80.8234 61.8706H80.8229Z" fill="#818181"/>
<path d="M47.9734 58.4286C48.5656 57.9085 49.1855 57.4237 49.8398 56.9837C50.1753 56.758 50.521 56.5499 50.8847 56.3723C50.9242 56.3529 50.9662 56.3386 51.0072 56.3218C50.9703 56.3985 50.9189 56.4875 50.99 56.5564C51.0569 56.6212 51.1406 56.555 51.2146 56.5317C51.2336 56.5256 51.2505 56.5135 51.269 56.5057C51.6906 56.3286 52.1239 56.1986 52.5841 56.1758C52.5346 56.3247 52.3956 56.2951 52.2882 56.3153C52.1979 56.3323 52.1474 56.3691 52.112 56.4545C51.8964 56.9747 51.7226 57.5077 51.5931 58.0555C51.5851 58.0892 51.5567 58.1317 51.5878 58.1584C51.628 58.193 51.6596 58.144 51.6935 58.128C51.7765 58.089 51.852 57.9973 51.9536 58.0921C51.7988 58.194 51.6414 58.2923 51.4897 58.3988C51.0205 58.7285 50.5805 59.0936 50.1593 59.4827C49.6343 59.9677 49.1302 60.4716 48.6792 61.0272L48.6777 61.0279C48.6656 61.0274 48.6534 61.0281 48.6413 61.0264C47.8055 60.9114 46.9749 60.7659 46.1466 60.607C46.0571 60.5897 46.0462 60.5611 46.1148 60.4966C46.4438 60.187 46.7694 59.8738 47.0988 59.5647C47.2723 59.4019 47.4424 59.2336 47.6301 59.089C47.8519 58.9182 47.9688 58.7062 47.9734 58.4289V58.4286Z" fill="#858585"/>
<path d="M51.7434 49.7472C51.5323 49.7891 51.3525 49.8617 51.2373 50.072C50.8685 50.7452 50.4833 51.4093 50.1094 52.0798C50.0522 52.1827 49.9947 52.2191 49.8709 52.1997C49.1402 52.0847 48.4063 52.0053 47.6642 52.025C47.2423 52.0362 46.8287 52.1038 46.4162 52.1846C46.1945 52.2281 45.9708 52.2615 45.7488 52.3047C45.6741 52.3193 45.6025 52.3501 45.529 52.3726C45.4909 52.3843 45.4458 52.4064 45.4155 52.3709C45.3873 52.338 45.4233 52.303 45.4383 52.2717C45.6317 51.8666 45.85 51.4745 46.0841 51.0917C46.2675 50.7918 46.4616 50.4983 46.6513 50.2023C46.6841 50.1511 46.7256 50.1028 46.6889 50.0364C46.7035 50.0293 46.7171 50.0199 46.7324 50.0152C47.5494 49.7712 48.3801 49.5868 49.2225 49.4541C49.6727 49.383 50.1262 49.3415 50.5808 49.3131C50.8913 49.2937 51.2019 49.3066 51.509 49.3634C51.5624 49.3733 51.6189 49.3869 51.584 49.4648C51.5437 49.5545 51.5908 49.5514 51.6551 49.533C51.7397 49.5087 51.8128 49.4476 51.9069 49.4541C51.8601 49.556 51.8079 49.655 51.7431 49.7467L51.7434 49.7472Z" fill="#7F7F7F"/>
<path d="M55.2777 49.767C55.4801 49.765 55.6831 49.748 55.884 49.7878C55.835 49.8414 55.786 49.8946 55.7375 49.9484C55.7185 49.9693 55.696 49.9916 55.7088 50.0227C55.7217 50.054 55.7537 50.052 55.7816 50.0547C55.8939 50.0651 56.0068 50.0719 56.1183 50.0865C56.991 50.2017 57.8028 50.4904 58.55 50.9555C58.7615 51.087 58.976 51.2168 59.1589 51.3898C59.0204 51.3327 58.8867 51.3512 58.7504 51.4053C58.5932 51.4676 58.4311 51.5171 58.2724 51.5756C58.1359 51.6258 58.1368 51.628 58.2128 51.7537C57.8311 51.5836 57.4403 51.4414 57.0211 51.4026C56.7144 51.3742 56.4053 51.3597 56.113 51.4836C55.6288 51.6889 55.3699 52.2081 55.4555 52.7634C55.4956 53.0227 55.596 53.2598 55.6899 53.5002C55.6608 53.4728 55.6266 53.449 55.6035 53.417C55.5553 53.35 55.5116 53.3575 55.4543 53.4075C55.1343 53.685 54.8437 53.9917 54.5611 54.3061C54.5007 54.3733 54.4315 54.442 54.4281 54.5439C54.3978 54.5174 54.3646 54.4934 54.3374 54.4641C53.8092 53.8937 53.4504 53.236 53.3138 52.4652C53.2954 52.3619 53.2835 52.2576 53.2675 52.154C53.2563 52.0819 53.2241 52.0642 53.1607 52.1101C53.1088 52.1477 53.0632 52.1959 52.9992 52.2149C52.9977 52.2001 52.9963 52.1855 52.9948 52.1707C52.9958 52.1103 53.0045 52.0487 52.996 51.9895C52.9691 51.7985 53.0234 51.6513 53.201 51.5579C53.2619 51.5259 53.2842 51.4664 53.2995 51.3997C53.3667 51.1081 53.4868 50.8432 53.6998 50.626C54.0159 50.3034 54.4138 50.151 54.8478 50.0807C55.0492 50.0481 55.1717 49.9222 55.2782 49.767H55.2777Z" fill="#868686"/>
<path d="M71.4318 60.4911C71.6933 60.4321 71.8753 60.2509 72.0636 60.0792C72.1179 60.1165 72.1089 60.1781 72.1232 60.2313C72.1487 60.3261 72.2038 60.3453 72.2678 60.2749C72.4054 60.1236 72.5374 59.9668 72.6715 59.8123C72.7589 59.6687 72.893 59.567 73.0037 59.4443C73.4615 58.9365 73.9544 58.4661 74.492 58.043C74.4098 58.1686 74.418 58.3101 74.4188 58.4513C74.4207 58.7543 74.4297 59.0578 74.4164 59.3601C74.4047 59.6243 74.4122 59.894 74.3052 60.1464C74.2878 60.1876 74.2776 60.2313 74.298 60.2757C74.3011 60.3691 74.338 60.378 74.4098 60.3256C74.4738 60.2791 74.5299 60.217 74.6141 60.2031C74.6046 60.2895 74.5316 60.3882 74.6611 60.4479C74.6502 60.5049 74.6022 60.5294 74.5629 60.5627C74.5248 60.5949 74.4734 60.6224 74.4923 60.6879C74.4006 60.7179 74.3618 60.7851 74.3496 60.8778C74.3159 61.1328 74.2946 61.3904 74.2009 61.6338C73.9413 61.7247 73.699 61.8342 73.4918 62.0316C73.0874 62.4169 73.2652 63.1847 73.5954 63.432C73.8698 63.6372 74.1759 63.6998 74.509 63.661C74.5767 63.6532 74.6444 63.6336 74.7097 63.6712C74.6856 63.6736 74.6611 63.6738 74.6376 63.6785C73.3671 63.9363 72.0871 64.1384 70.8044 64.3248C70.7996 64.2461 70.8192 64.1746 70.8544 64.104C70.9405 63.9308 71.0259 63.7571 71.1045 63.5804C71.5065 62.6765 71.7729 61.7323 71.9343 60.7572C71.9495 60.6641 71.919 60.6374 71.8304 60.6621C71.722 60.6925 71.6223 60.7509 71.5075 60.7606C71.5007 60.6658 71.5182 60.5641 71.4323 60.4916L71.4318 60.4911Z" fill="#929292"/>
<path d="M46.4943 56.1029C46.7437 56.0529 46.9912 56.0435 47.2316 56.1442C47.5834 56.2912 47.6639 56.5542 47.4541 56.8703C47.3286 57.059 47.1714 57.2223 47.0254 57.3946C46.882 57.5636 46.7381 57.732 46.5945 57.9006C46.5761 57.8383 46.5666 57.7752 46.5668 57.7099C46.5668 57.6706 46.5748 57.6194 46.5295 57.6034C46.4768 57.585 46.4531 57.6362 46.4269 57.6702C46.2595 57.887 46.0901 58.1025 45.9271 58.3225C45.4518 58.9632 44.979 59.6061 44.5052 60.2481C44.4576 60.2401 44.4094 60.2342 44.3623 60.2236C44.0435 60.1503 43.7242 60.0802 43.4069 60.0006C43.0117 59.9016 42.6141 59.8104 42.2244 59.6901C42.2181 59.6353 42.2657 59.6146 42.295 59.5846C42.5464 59.3281 42.8089 59.0831 43.066 58.833C43.5027 58.4079 43.9372 57.98 44.3586 57.5399C44.8819 56.993 45.5156 56.6444 46.2376 56.4452C46.3383 56.4176 46.3902 56.3657 46.4089 56.2693C46.4213 56.2058 46.4307 56.1408 46.4941 56.1032L46.4943 56.1029Z" fill="#7E7E7E"/>
<path d="M67.9662 59.7629C67.8733 59.1248 67.7267 58.5013 67.4657 57.9082C67.2677 57.4586 67.0224 57.0372 66.7282 56.6442C66.6738 56.5717 66.5945 56.4974 66.7701 56.478C66.8288 56.4715 66.8378 56.4047 66.8577 56.3565C66.8815 56.2982 66.8822 56.2262 66.9523 56.1951C67.134 56.247 67.3223 56.282 67.4829 56.3909C67.3776 56.4795 67.3502 56.6241 67.4373 56.6905C67.6753 56.8725 67.7917 57.1343 67.914 57.3926C68.0191 57.6149 68.1122 57.8439 68.2677 58.0375C68.3658 58.1595 68.4077 58.1505 68.4582 58.0059C68.4727 57.9642 68.4846 57.9213 68.4977 57.8791C68.5771 57.8866 68.6222 57.8276 68.6714 57.7835C69.0797 57.4183 69.4834 57.0481 69.8942 56.6857C70.1239 56.4831 70.3689 56.2987 70.6438 56.1587C70.7404 56.1095 70.8374 56.059 70.949 56.0508C70.9427 56.0986 70.9396 56.1471 70.9299 56.1942C70.9073 56.3028 70.9269 56.3295 71.0385 56.307C71.13 56.2885 71.2154 56.307 71.3023 56.3247C71.3731 56.3392 71.4199 56.3822 71.4282 56.4542C71.4393 56.5505 71.4485 56.6488 71.4058 56.7408C71.3345 56.8946 71.2663 57.0506 71.1868 57.2002C70.9053 57.7294 70.7479 58.2927 70.7079 58.89C70.5266 58.9465 70.3476 59.0084 70.1734 59.0843C70.1419 59.0911 70.1094 59.0948 70.0793 59.1049C69.3803 59.3417 68.6758 59.5603 67.9659 59.7626L67.9662 59.7629Z" fill="#898989"/>
<path d="M51.907 49.4549C51.8129 49.4483 51.7396 49.5095 51.6552 49.5337C51.5909 49.5522 51.5436 49.5553 51.5841 49.4656C51.619 49.3877 51.5625 49.3739 51.5091 49.3642C51.202 49.3074 50.8915 49.2945 50.5809 49.3139C50.1265 49.3423 49.6731 49.384 49.2226 49.4549C48.3803 49.5876 47.5496 49.7722 46.7325 50.016C46.7172 50.0206 46.7036 50.0299 46.6891 50.0371C46.2769 50.1388 45.8751 50.2749 45.4755 50.4166C44.8089 50.6529 44.1502 50.9096 43.5046 51.1992C42.8261 51.5037 42.1603 51.8334 41.5063 52.1881C40.7598 52.593 40.0339 53.0319 39.3274 53.5025C38.5875 53.9952 37.8711 54.5207 37.1733 55.0724C36.6952 55.4506 36.2255 55.8391 35.7708 56.2447C35.4038 56.5724 35.0319 56.8963 34.7051 57.2668C34.6891 57.275 34.6731 57.283 34.657 57.2913C34.6165 57.1906 34.4812 57.2122 34.4351 57.1188C35.0416 56.5009 35.6859 55.9242 36.3519 55.3718C37.692 54.2602 39.1016 53.2456 40.6074 52.3693C42.9634 50.9981 45.4515 49.9554 48.1216 49.3722C48.9121 49.1994 49.7097 49.073 50.5198 49.0391C50.7479 49.0391 50.9759 49.0391 51.2039 49.0391C51.4014 49.0526 51.5975 49.0781 51.7867 49.1383C51.9524 49.1909 51.9931 49.3033 51.9073 49.4554L51.907 49.4549Z" fill="#939393"/>
<path d="M47.9736 58.426C47.969 58.7033 47.852 58.9154 47.6303 59.0862C47.4425 59.2307 47.2725 59.3994 47.099 59.5619C46.7695 59.871 46.444 60.1842 46.115 60.4938C46.0463 60.5583 46.057 60.5869 46.1468 60.6041C46.9753 60.763 47.8057 60.9086 48.6415 61.0236C48.6534 61.0253 48.6657 61.0246 48.6779 61.0251C48.2902 61.5015 47.9428 62.0032 47.7082 62.5755C47.344 62.5016 46.9879 62.3951 46.631 62.2932C46.0213 62.119 45.4134 61.9392 44.8044 61.7623C44.762 61.75 44.7181 61.7417 44.6749 61.7315C44.6664 61.723 44.6579 61.7148 44.6494 61.7063C44.6945 61.7051 44.7365 61.6946 44.7748 61.6689C45.206 61.3805 45.5708 61.0154 45.9461 60.6621C45.9934 60.6175 45.9864 60.5915 45.9238 60.5716C45.8525 60.5491 45.769 60.5551 45.7149 60.4887C46.4476 59.779 47.1876 59.0774 47.9731 58.4258L47.9736 58.426Z" fill="#909090"/>
<path d="M78.082 56.1298C78.1798 56.129 78.2788 56.1109 78.3736 56.1506C78.3717 56.2152 78.3724 56.2797 78.3666 56.344C78.3625 56.3891 78.3697 56.4221 78.4149 56.4425C78.7205 56.5793 78.7991 56.8457 78.8093 57.147C78.82 57.4578 78.7261 57.746 78.5895 58.0182C78.1608 58.8729 77.493 59.5238 76.7719 60.1279C76.7882 59.781 76.8047 59.4338 76.8209 59.0869C76.9211 58.9481 77.0104 58.8026 77.0876 58.6495C77.1526 58.5602 77.18 58.4564 77.2023 58.3508C77.2096 58.3164 77.222 58.2722 77.1904 58.2494C77.1533 58.2227 77.1273 58.2659 77.0985 58.2841C77.0388 58.3217 76.9915 58.3826 76.9119 58.3824C76.9243 58.2091 76.9175 58.2028 76.7472 58.2307C76.7807 58.1439 76.8561 58.0973 76.9245 58.0434C76.9459 58.0267 76.9723 58.008 76.9663 57.9765C76.9597 57.9428 76.9248 57.9447 76.8995 57.936C76.8316 57.9124 76.7664 57.9493 76.6992 57.9452C76.7375 57.8809 76.7528 57.811 76.7477 57.7368C76.7399 57.6247 76.7343 57.5121 76.7227 57.4003C76.7001 57.1851 76.6742 56.9702 76.6497 56.755C76.9677 56.6109 77.3015 56.5211 77.6448 56.4634C77.7159 56.4507 77.7865 56.4316 77.8581 56.4267C77.9687 56.4192 78.018 56.3658 78.0097 56.2567C78.0053 56.1982 78.0298 56.1562 78.082 56.1298V56.1298Z" fill="#858585"/>
<path d="M84.8535 55.8817C84.7427 55.9268 84.64 55.8817 84.5357 55.8528C84.5214 55.822 84.5248 55.7924 84.5347 55.7604C84.5726 55.6378 84.5312 55.5526 84.4105 55.5047C84.396 55.4989 84.3797 55.4967 84.3644 55.4928C84.272 55.4152 84.1665 55.355 84.0799 55.2689C83.9095 55.0998 83.8584 54.9101 83.959 54.6859C84.0071 54.5789 84.058 54.4741 84.1223 54.3761C84.4428 53.8875 84.847 53.4828 85.3361 53.1626C85.3759 53.1439 85.4139 53.1192 85.4554 53.1073C85.5952 53.067 85.6995 52.9942 85.7327 52.8421C85.7422 52.7982 85.7805 52.7802 85.823 52.7734C85.9016 52.7783 85.9761 52.796 86.0408 52.8436C86.0289 52.8821 86.0243 52.9251 86.004 52.9583C85.9484 53.049 85.9673 53.1097 86.0445 53.1851C86.1997 53.337 86.2791 53.527 86.2842 53.7494C86.2956 54.2485 86.068 54.6434 85.7453 54.9942C85.5277 55.2308 85.2698 55.4176 84.9809 55.5607C84.8567 55.6221 84.7926 55.7912 84.8538 55.881L84.8535 55.8817Z" fill="#818181"/>
<path d="M74.709 63.6714C74.6437 63.6338 74.5763 63.6534 74.5083 63.6612C74.1752 63.7 73.8691 63.6372 73.5947 63.4322C73.2642 63.1849 73.0867 62.4173 73.4911 62.0318C73.6985 61.8344 73.9406 61.7249 74.2002 61.634C74.239 61.6235 74.2783 61.6153 74.3162 61.6019C74.7914 61.4362 75.2315 61.1995 75.6563 60.9326C75.6466 60.9622 75.6423 60.9952 75.6263 61.0209C75.5724 61.108 75.5714 61.191 75.6333 61.2735C75.2192 61.5369 74.7796 61.7465 74.3142 61.9028C74.1878 61.9452 74.0597 61.9816 73.9414 62.0452C73.6049 62.2262 73.4853 62.4765 73.5643 62.8363C73.6379 63.1706 73.8771 63.3623 74.2427 63.3824C74.6342 63.404 75.0047 63.3164 75.364 63.1694C75.9654 62.9229 76.4868 62.5493 76.9814 62.1364C77.8148 61.4406 78.5523 60.6478 79.2852 59.8503C79.8129 59.2763 80.325 58.688 80.8833 58.1426C80.9352 58.0919 80.9905 58.0449 81.0441 57.9961C81.1931 58.0786 81.2125 58.1737 81.1135 58.3047C81.0082 58.4444 80.876 58.558 80.7544 58.6817C80.2736 59.1713 79.827 59.6924 79.3592 60.1939C78.9048 60.681 78.4587 61.1769 77.9713 61.6318C77.5229 62.0503 77.0654 62.4583 76.5617 62.8125C76.102 63.1359 75.6129 63.3962 75.0751 63.5622C75.0408 63.5729 75.0086 63.5901 74.9756 63.6044C74.8914 63.6459 74.7973 63.6481 74.7087 63.6714H74.709Z" fill="#707070"/>
<path d="M59.1592 51.3949C58.9765 51.2219 58.7618 51.0921 58.5503 50.9606C57.803 50.4958 56.9913 50.2071 56.1186 50.0916C56.0068 50.0768 55.894 50.0703 55.7819 50.0598C55.754 50.0572 55.722 50.0591 55.7091 50.0278C55.6962 49.9968 55.7188 49.9744 55.7377 49.9536C55.7862 49.8997 55.8355 49.8463 55.8843 49.793C56.517 49.8228 57.1208 49.98 57.7053 50.2153C58.7247 50.6258 59.5816 51.2707 60.3302 52.0657C61.3599 53.1589 62.1229 54.4231 62.6981 55.8033C62.7857 56.0136 62.9147 56.1255 63.1389 56.1303C63.1991 56.1585 63.2852 56.1461 63.2852 56.2565C63.2852 56.3981 63.257 56.4338 63.1158 56.4088C62.97 56.3829 62.8216 56.3712 62.6927 56.2793C62.5411 56.1713 62.48 56.0083 62.4128 55.8501C62.2362 55.434 62.0421 55.0267 61.8208 54.6322C61.8092 54.6114 61.7932 54.5927 61.7793 54.573C61.7672 54.5027 61.7209 54.4493 61.6871 54.3901C61.1117 53.3845 60.4183 52.4721 59.5471 51.7025C59.4239 51.5936 59.3069 51.474 59.1592 51.3949V51.3949Z" fill="#7B7B7B"/>
<path d="M52.9988 52.2198C53.0631 52.2009 53.1084 52.1526 53.1604 52.115C53.2237 52.0692 53.2559 52.0871 53.2671 52.159C53.2831 52.2625 53.2952 52.3669 53.3134 52.4702C53.4503 53.241 53.8088 53.8987 54.337 54.469C54.3642 54.4984 54.3974 54.5224 54.4277 54.5489C54.6092 54.7609 54.8205 54.9414 55.0413 55.1102C55.5755 55.5195 56.1604 55.8427 56.7774 56.1071C57.0952 56.2435 57.412 56.3866 57.7517 56.4657C57.7585 56.47 57.7648 56.4754 57.772 56.4785C58.1136 56.6333 58.1372 56.6998 57.9317 57.0174C57.5794 57.5618 57.1374 58.03 56.6721 58.4776C56.6313 58.5169 56.584 58.5392 56.5297 58.5128C56.4545 58.4764 56.4144 58.4145 56.4156 58.3291C56.8203 57.9334 57.2082 57.5227 57.5476 57.0683C57.7619 56.7816 57.7616 56.7847 57.4246 56.6649C56.4215 56.3077 55.4721 55.8487 54.6492 55.1597C53.8564 54.496 53.2829 53.69 53.0599 52.6626C53.0284 52.5168 52.9981 52.3703 52.9985 52.2196L52.9988 52.2198Z" fill="#7B7B7B"/>
<path d="M75.6334 61.2706C75.5715 61.1881 75.5725 61.1049 75.6263 61.018C75.6423 60.9923 75.6467 60.9593 75.6564 60.9297C75.7042 60.8999 75.752 60.87 75.8 60.8404C76.1438 60.6291 76.4573 60.3768 76.7719 60.1257C77.4929 59.5216 78.1608 58.871 78.5895 58.016C78.7261 57.7438 78.82 57.4556 78.8093 57.1448C78.7989 56.8435 78.7205 56.5771 78.4148 56.4403C78.3697 56.4202 78.3624 56.3872 78.3666 56.3418C78.3724 56.2777 78.3714 56.213 78.3736 56.1484C78.7307 56.1984 79.0049 56.4988 79.0774 56.9143C79.1495 57.3275 79.0412 57.7091 78.8714 58.0776C78.6058 58.6543 78.2118 59.1405 77.7741 59.593C77.1608 60.2269 76.4708 60.7657 75.7195 61.2264C75.6921 61.2432 75.6622 61.2558 75.6336 61.2703L75.6334 61.2706Z" fill="#6B6B6B"/>
<path d="M80.823 61.8725C80.9305 61.6638 81.0717 61.4763 81.2032 61.2832C81.5644 60.7531 81.9385 60.232 82.3403 59.7312C82.5826 59.4292 82.8356 59.1369 83.1134 58.8659C83.5181 58.4711 83.9017 58.0573 84.235 57.5995C84.3493 57.4425 84.4492 57.2773 84.521 57.0958C84.5514 57.0192 84.5635 56.9408 84.5586 56.8588C84.5458 56.648 84.5572 56.6298 84.7559 56.5352C84.86 56.7271 84.8711 56.927 84.8071 57.1329C84.7277 57.3877 84.5819 57.6065 84.4274 57.8195C84.1894 58.1473 83.9274 58.4566 83.6353 58.7361C82.8005 59.5352 82.1224 60.4598 81.4666 61.4035C81.3907 61.5127 81.315 61.6224 81.2391 61.7318C81.0884 61.7434 80.9649 61.8354 80.8228 61.8725H80.823Z" fill="#646464"/>
<path d="M37.374 58.2376C37.9574 57.4863 38.6028 56.7907 39.2935 56.1386C39.884 55.5811 40.5162 55.0716 41.1831 54.6068C41.2525 54.5585 41.3284 54.5192 41.4022 54.4775C41.5206 54.4107 41.5621 54.434 41.5693 54.5689C41.571 54.6012 41.5696 54.6337 41.5696 54.666C40.8617 55.1619 40.1882 55.7004 39.5533 56.2866C38.6804 57.0928 37.9036 57.9841 37.2053 58.9446C37.1818 58.9771 37.1539 59.0062 37.128 59.037C37.0353 59.0176 36.9623 58.9458 36.865 58.9385C36.8642 58.9315 36.8633 58.9247 36.8623 58.9176C37.0329 58.6908 37.2034 58.4642 37.374 58.2374V58.2376Z" fill="#6E6E6E"/>
<path d="M77.6448 56.4624C77.3015 56.5201 76.9674 56.6099 76.6496 56.754C76.6076 56.7676 76.5647 56.7783 76.5239 56.795C76.2292 56.9163 75.9463 57.0619 75.6707 57.2217C75.2553 57.4627 74.8599 57.7324 74.4914 58.0408C73.954 58.4639 73.4608 58.9343 73.003 59.4421C72.8924 59.5648 72.7582 59.6665 72.6709 59.8101C72.6175 59.7701 72.6073 59.7104 72.6012 59.6502C72.5961 59.602 72.5952 59.5534 72.5508 59.5212C72.9215 59.0767 73.3298 58.6682 73.759 58.281C74.291 57.8011 74.8543 57.3617 75.4734 56.9971C76.151 56.598 76.8643 56.2938 77.6457 56.1667C77.6855 56.1601 77.7256 56.157 77.7656 56.1523C77.7207 56.1768 77.6979 56.2128 77.6901 56.2654C77.6804 56.3316 77.6603 56.3964 77.6445 56.4619L77.6448 56.4624Z" fill="#B7B7B7"/>
<path d="M46.4943 56.1018C46.4309 56.1392 46.4212 56.2044 46.4091 56.268C46.3904 56.3643 46.3385 56.4162 46.2378 56.4439C45.5158 56.6431 44.8822 56.9919 44.3589 57.5385C43.9375 57.9788 43.5029 58.4066 43.0663 58.8316C42.8091 59.082 42.5466 59.327 42.2953 59.5832C42.2659 59.613 42.2183 59.6337 42.2247 59.6887C42.2011 59.697 42.1778 59.7052 42.1543 59.7135C42.0767 59.6455 41.9663 59.6502 41.8848 59.591C42.5929 58.8876 43.3011 58.1841 44.0095 57.481C44.173 57.319 44.3293 57.1491 44.5093 57.0043C45.0937 56.5334 45.7534 56.2277 46.4945 56.1016L46.4943 56.1018Z" fill="#939393"/>
<path d="M70.7078 58.8902C70.7478 58.2931 70.9055 57.7298 71.1867 57.2004C71.2662 57.0507 71.3342 56.8947 71.4057 56.7409C71.4484 56.649 71.439 56.5507 71.428 56.4544C71.4198 56.3823 71.3727 56.3392 71.3021 56.3248C71.2153 56.3071 71.1299 56.2889 71.0384 56.3071C70.9268 56.3295 70.9069 56.303 70.9297 56.1943C70.9394 56.1473 70.9428 56.0987 70.9489 56.0509C71.1262 56.0002 71.3019 56.0109 71.4698 56.083C71.6842 56.1749 71.7808 56.4338 71.7148 56.7186C71.6808 56.8656 71.6141 56.9995 71.543 57.1313C71.3024 57.5781 71.102 58.0393 71.0341 58.5481C70.9732 59.0035 70.9673 59.4579 71.0704 59.9086C71.1049 60.0588 71.1549 60.2036 71.2386 60.3346C71.2856 60.4081 71.3422 60.469 71.4314 60.4897C71.5173 60.5624 71.4999 60.6638 71.5067 60.7587C71.2725 60.7803 71.1161 60.6607 70.9965 60.4763C70.88 60.297 70.821 60.0952 70.7798 59.889C70.7138 59.5595 70.7007 59.2252 70.7078 58.8899V58.8902Z" fill="#777777"/>
<path d="M55.6409 59.2752C55.6006 59.2997 55.5603 59.3242 55.5201 59.3487C55.4876 59.3645 55.4546 59.3795 55.4225 59.3958C55.1775 59.5212 54.9262 59.6304 54.6535 59.6792C54.359 59.7318 54.1889 59.6202 54.1239 59.3412C54.1016 59.2454 54.1268 59.1563 54.1549 59.0683C54.3063 58.5954 54.3893 58.1124 54.3543 57.6151C54.3124 57.0168 54.1166 56.5105 53.5067 56.2672C53.4749 56.1696 53.4824 56.0689 53.4834 55.9688C54.2738 56.2817 54.6224 56.8033 54.6479 57.692C54.6612 58.1624 54.5856 58.6175 54.4504 59.0654C54.4388 59.1039 54.4274 59.143 54.4182 59.1823C54.3752 59.3621 54.4468 59.4356 54.627 59.398C54.9276 59.3351 55.1967 59.1961 55.4648 59.054C55.5642 59.0952 55.6397 59.1556 55.6414 59.275L55.6409 59.2752Z" fill="#717171"/>
<path d="M44.5053 60.2462C44.9791 59.6043 45.4517 58.9614 45.9272 58.3206C46.0905 58.1006 46.2598 57.8852 46.427 57.6683C46.4532 57.6343 46.4769 57.5831 46.5296 57.6015C46.5749 57.6173 46.5669 57.6688 46.5669 57.7081C46.5669 57.7733 46.5762 57.8366 46.5946 57.8987C46.2904 58.3083 45.9835 58.7163 45.6822 59.128C45.1026 59.9194 44.5259 60.713 43.948 61.5053C43.941 61.515 43.9315 61.5228 43.9233 61.5315C43.8638 61.4476 43.7651 61.4413 43.6799 61.4085C43.7006 61.3454 43.7481 61.2996 43.7855 61.2477C44.0249 60.9136 44.2653 60.5803 44.5055 60.2467L44.5053 60.2462Z" fill="#717171"/>
<path d="M37.5893 63.1479C38.2036 62.752 38.7902 62.3185 39.3547 61.8541C39.8254 61.4672 40.2851 61.0678 40.7366 60.6586C40.8024 60.5991 40.8705 60.5424 40.9375 60.4844C41.0387 60.5314 41.1471 60.5552 41.2546 60.5812C41.2551 60.5897 41.2556 60.5984 41.2558 60.6069C41.2065 60.6168 41.167 60.6435 41.1306 60.6768C40.9545 60.8366 40.7776 60.9955 40.602 61.1559C40.1762 61.5448 39.7371 61.9184 39.2846 62.2753C38.6701 62.76 38.0495 63.237 37.3489 63.596C37.3532 63.5182 37.4076 63.4667 37.4471 63.4066C37.5012 63.3243 37.5891 63.2598 37.5893 63.1477V63.1479Z" fill="#7B7B7B"/>
<path d="M36.8649 58.9338C36.9622 58.9411 37.0352 59.0129 37.1279 59.0323C36.9369 59.3213 36.7407 59.6068 36.5563 59.8999C36.0917 60.6379 35.6693 61.3985 35.3697 62.2211C35.3272 62.3373 35.2945 62.4572 35.2571 62.5753C35.1744 62.6122 35.1368 62.692 35.0834 62.7566C35.056 62.7896 35.0308 62.8425 34.9796 62.8201C34.9301 62.7985 34.9454 62.742 34.9512 62.7C34.9839 62.4582 35.065 62.2291 35.1518 62.003C35.4558 61.2121 35.8571 60.471 36.3088 59.756C36.4857 59.4761 36.6596 59.1942 36.8651 58.9336L36.8649 58.9338Z" fill="#3C3C3C"/>
<path d="M84.8535 55.8812C84.7924 55.7914 84.8564 55.6223 84.9806 55.5609C85.2698 55.4178 85.5277 55.231 85.7451 54.9944C86.0678 54.6436 86.2953 54.2487 86.2839 53.7496C86.2788 53.5272 86.1995 53.337 86.0442 53.1853C85.9671 53.1099 85.9479 53.0492 86.0037 52.9585C86.0241 52.9253 86.0287 52.8823 86.0406 52.8438C86.4033 53.0058 86.684 53.523 86.5357 54.1431C86.3856 54.771 85.994 55.2232 85.4824 55.5859C85.2914 55.7213 85.0901 55.8409 84.8533 55.8814L84.8535 55.8812Z" fill="#646464"/>
<path d="M85.336 53.1618C84.8471 53.4818 84.4427 53.8867 84.1222 54.3753C84.0579 54.4733 84.0067 54.5784 83.9589 54.6851C83.8585 54.9093 83.9094 55.0987 84.0797 55.2681C84.1664 55.3542 84.2719 55.4144 84.3643 55.492C84.3313 55.574 84.2986 55.656 84.2656 55.738C84.0509 55.6422 83.8721 55.5017 83.7428 55.3042C83.6132 55.1065 83.586 54.895 83.6644 54.6688C83.7787 54.3389 83.9706 54.056 84.196 53.7959C84.4953 53.4505 84.8202 53.1317 85.227 52.9102C85.3083 52.866 85.3901 52.8216 85.4815 52.8008C85.4138 52.9134 85.3639 53.033 85.3357 53.1615L85.336 53.1618Z" fill="#B7B7B7"/>
<path d="M55.2779 49.7662C55.1714 49.9215 55.0486 50.0474 54.8475 50.0799C54.4135 50.1503 54.0156 50.3029 53.6995 50.6253C53.4865 50.8424 53.3664 51.1073 53.2992 51.399C53.2839 51.4654 53.2616 51.5251 53.2007 51.5571C53.0231 51.6505 52.9688 51.798 52.9957 51.9887C53.0039 52.0479 52.9954 52.1096 52.9945 52.17C52.8853 51.3009 53.1968 50.3951 54.1219 49.9943C54.4897 49.8349 54.8759 49.758 55.2779 49.7662V49.7662Z" fill="#9C9C9C"/>
<path d="M53.4831 55.9696C53.4822 56.0698 53.4746 56.1705 53.5064 56.268C53.2075 56.1542 52.8955 56.168 52.5843 56.1717C52.1241 56.1945 51.6905 56.3245 51.2691 56.5016C51.2507 56.5094 51.2337 56.5215 51.2148 56.5276C51.1405 56.5509 51.0568 56.6171 50.9901 56.5523C50.919 56.4834 50.9705 56.3946 51.0073 56.3177C51.7492 55.9643 52.5202 55.785 53.3446 55.9286C53.3917 55.9368 53.437 55.9555 53.4831 55.9696V55.9696Z" fill="#787878"/>
<path d="M68.4978 57.8749C68.4847 57.9173 68.4731 57.96 68.4583 58.0017C68.4078 58.1461 68.3661 58.1553 68.2678 58.0333C68.1123 57.8397 68.0192 57.6107 67.9141 57.3884C67.7919 57.1301 67.6754 56.8683 67.4374 56.6863C67.3503 56.6199 67.3777 56.475 67.483 56.3867C67.704 56.5054 67.8651 56.6854 67.983 56.9008C68.1034 57.1201 68.2082 57.3482 68.319 57.5726C68.3712 57.6779 68.4282 57.7798 68.4976 57.8749H68.4978Z" fill="#787878"/>
<path d="M84.3172 56.4149C84.17 56.3336 84.02 56.3339 83.8611 56.3834C83.53 56.4862 83.2379 56.6672 82.9361 56.8295C82.8538 56.7766 82.8318 56.6837 82.7874 56.6056C83.1986 56.3494 83.6059 56.0808 84.1156 56.0743C84.2959 56.0719 84.4548 56.1376 84.5817 56.2706C84.4849 56.3028 84.4218 56.3969 84.3172 56.4149V56.4149Z" fill="#B7B7B7"/>
<path d="M45.7152 60.4846C45.7693 60.5511 45.8528 60.545 45.9241 60.5676C45.9867 60.5875 45.9937 60.6134 45.9464 60.6581C45.5711 61.0113 45.206 61.3764 44.7751 61.6649C44.7368 61.6906 44.6948 61.701 44.6497 61.7023C44.5362 61.6763 44.4272 61.6302 44.3093 61.6234C44.7834 61.3539 45.1941 61.0048 45.575 60.6176C45.6201 60.5717 45.6684 60.5288 45.7155 60.4844L45.7152 60.4846Z" fill="#B7B7B7"/>
<path d="M41.2543 60.5841C41.1466 60.5583 41.0384 60.5343 40.9373 60.4873C41.2531 60.1893 41.569 59.8917 41.8849 59.5938C41.9664 59.6529 42.077 59.6483 42.1544 59.7163C42.1027 59.7665 42.0511 59.8167 41.9991 59.8664C41.751 60.1056 41.5025 60.3446 41.2543 60.5838V60.5841Z" fill="#B7B7B7"/>
<path d="M37.589 63.1484C37.589 63.2605 37.501 63.3251 37.4469 63.4073C37.4073 63.4675 37.353 63.5187 37.3486 63.5968C37.023 63.7901 36.6815 63.9425 36.3054 64.0082C36.3202 63.9345 36.367 63.878 36.4097 63.8197C36.4396 63.779 36.4575 63.7421 36.3969 63.7135C36.819 63.5774 37.2084 63.3724 37.589 63.1487V63.1484Z" fill="#6E6E6E"/>
<path d="M36.3967 63.7124C36.4573 63.7411 36.4396 63.7779 36.4095 63.8187C36.3668 63.8769 36.32 63.9332 36.3052 64.0072C36.2567 64.023 36.2082 64.039 36.1596 64.0547C35.9229 64.0664 35.6931 64.0455 35.4796 63.9276C35.3474 63.8546 35.3401 63.8333 35.4245 63.7083C35.4466 63.6756 35.4609 63.6372 35.4786 63.6016C35.7215 63.7891 35.9949 63.7932 36.2788 63.7345C36.3178 63.7265 36.3571 63.7197 36.3964 63.7124H36.3967Z" fill="#626262"/>
<path d="M43.6798 61.4111C43.765 61.4441 43.8637 61.4504 43.9231 61.5341C43.8754 61.6033 43.8256 61.6712 43.7807 61.7423C43.7613 61.7729 43.7181 61.8003 43.7494 61.8473C43.8174 61.9293 43.8239 62.1004 43.7613 62.1542C43.6917 62.2142 43.5731 62.179 43.4835 62.0904C43.3722 61.9805 43.3457 61.8801 43.4345 61.735C43.5005 61.627 43.5299 61.4965 43.633 61.4102C43.6488 61.4106 43.6643 61.4109 43.6801 61.4114L43.6798 61.4111Z" fill="#4A4A4A"/>
<path d="M55.6407 59.2805C55.639 59.1611 55.5636 59.1007 55.4641 59.0595C55.7252 58.8863 55.9784 58.7021 56.2213 58.5039C56.4285 58.6058 56.4379 58.6946 56.2603 58.836C56.0614 58.9949 55.8559 59.1444 55.6407 59.2802V59.2805Z" fill="#7B7B7B"/>
<path d="M82.3766 57.2146C82.1987 57.3573 82.0199 57.499 81.8436 57.6436C81.7902 57.6872 81.7499 57.6809 81.7145 57.6261C81.682 57.5756 81.6521 57.5235 81.6211 57.4723C81.8098 57.294 82.0139 57.1343 82.2283 56.9883C82.2725 57.0671 82.3077 57.152 82.3763 57.2146H82.3766Z" fill="#949494"/>
<path d="M72.5511 59.5195C72.5955 59.5518 72.5965 59.6003 72.6016 59.6486C72.6079 59.7085 72.6178 59.7684 72.6712 59.8085C72.537 59.963 72.4051 60.1197 72.2675 60.2711C72.2037 60.3415 72.1484 60.3223 72.1229 60.2275C72.1086 60.1743 72.1176 60.1127 72.0632 60.0753C72.2258 59.89 72.3883 59.7049 72.5509 59.5195H72.5511Z" fill="#A4A4A4"/>
<path d="M82.3768 57.2117C82.3081 57.1489 82.2729 57.0642 82.2288 56.9854C82.401 56.8369 82.5905 56.7136 82.7875 56.6016C82.8316 56.6797 82.854 56.7724 82.9362 56.8255C82.7608 56.9703 82.5606 57.0793 82.3768 57.212V57.2117Z" fill="#A9A9A9"/>
<path d="M44.3092 61.625C44.4271 61.6318 44.536 61.6779 44.6496 61.7038C44.6581 61.7123 44.6666 61.7206 44.675 61.7291C44.5229 61.8564 44.3412 61.9304 44.1639 62.012C44.0916 62.0452 44.0489 62.0195 44.0455 61.9365C44.0433 61.8812 44.0518 61.8239 44.0188 61.7735C44.1156 61.7242 44.2124 61.6747 44.3092 61.6255V61.625Z" fill="#5C5C5C"/>
<path d="M77.6448 56.4622C77.6605 56.3967 77.6807 56.3319 77.6904 56.2657C77.6982 56.2133 77.721 56.1772 77.7658 56.1527C77.8711 56.1442 77.975 56.1148 78.082 56.1286C78.0298 56.1548 78.0053 56.1971 78.0097 56.2555C78.0179 56.3647 77.9687 56.4181 77.858 56.4256C77.7865 56.4304 77.7159 56.4496 77.6448 56.4622V56.4622Z" fill="#A3A3A3"/>
<path d="M85.3359 53.1635C85.3641 53.0349 85.4141 52.9153 85.4817 52.8027C85.5936 52.7707 85.7045 52.7278 85.8228 52.7746C85.7804 52.7814 85.7423 52.7993 85.7326 52.8432C85.6994 52.9951 85.595 53.0679 85.4553 53.1084C85.4136 53.1205 85.3755 53.145 85.3359 53.1637V53.1635Z" fill="#A0A0A0"/>
<path d="M84.2656 55.7421C84.2986 55.6601 84.3314 55.5781 84.3644 55.4961C84.3797 55.5 84.3959 55.5022 84.4105 55.508C84.5306 55.5557 84.572 55.6409 84.5347 55.7637C84.5247 55.7957 84.5213 55.8256 84.5356 55.8561C84.4372 55.8382 84.3493 55.7952 84.2656 55.7421V55.7421Z" fill="#9D9D9D"/>
<path d="M84.3174 56.4178C84.4219 56.3996 84.485 56.3055 84.5818 56.2734C84.6252 56.305 84.6631 56.3406 84.6779 56.3947C84.6534 56.4076 84.6274 56.4178 84.6049 56.4336C84.5069 56.5012 84.411 56.496 84.3174 56.418V56.4178Z" fill="#9C9C9C"/>
<path d="M77.7881 62.9437C78.1964 62.8178 78.6057 62.6953 79.0125 62.565C79.5659 62.3879 80.1096 62.1834 80.6477 61.9643C80.6887 61.9476 80.7314 61.9359 80.7734 61.9219C80.6137 62.1839 80.4521 62.4447 80.2947 62.7082C79.8803 63.4015 79.4953 64.1116 79.0996 64.8157C78.7634 65.4142 78.4288 66.0137 78.0884 66.6097C77.6078 67.4513 77.1263 68.2925 76.6379 69.1294C76.2674 69.7643 75.8887 70.3944 75.5083 71.0235C75.0382 71.8013 74.5578 72.573 74.0537 73.3292C73.5585 74.072 73.0439 74.8016 72.4896 75.5017C72.1817 75.8906 71.8593 76.2676 71.5221 76.633C71.0956 77.0949 70.6412 77.5212 70.1169 77.8698C69.8139 78.0714 69.4886 78.2157 69.1213 78.256C68.9677 78.2728 68.9822 78.4098 68.9604 78.5168C68.8937 78.5103 68.8265 78.5059 68.7668 78.47C68.7802 78.4409 68.7952 78.4123 68.8068 78.3822C68.8702 78.2204 68.8571 78.1922 68.6933 78.1398C68.6783 78.135 68.6618 78.1342 68.6457 78.1316C68.5802 78.0915 68.5249 78.0345 68.4485 78.0129C68.4167 77.9819 68.3845 77.9515 68.3537 77.9198C67.9953 77.5525 67.9017 77.1226 68.0557 76.6369C68.1159 76.4469 68.2175 76.2756 68.3219 76.1077C68.636 75.6024 69.0058 75.1376 69.3801 74.6764C70.0162 73.8925 70.6756 73.1281 71.3261 72.3559C71.8489 71.735 72.3683 71.1115 72.8894 70.4892C72.9598 70.4072 73.0323 70.3269 73.1005 70.2432C73.2822 70.0191 73.4775 69.8061 73.6437 69.5695C73.8673 69.3446 74.0459 69.0824 74.249 68.8405C74.444 68.5964 74.6371 68.3512 74.8349 68.1093C74.9091 68.0186 74.9229 67.9419 74.8188 67.8664C74.7856 67.8424 74.7655 67.807 74.7553 67.7667C74.9586 67.502 75.1616 67.2374 75.365 66.9727C75.5139 67.152 75.5685 67.1571 75.7056 66.9809C75.8693 66.7708 76.0268 66.5554 76.1823 66.3388C76.3422 66.1158 76.5164 65.9028 76.6508 65.6624C76.6588 65.6534 76.6675 65.6449 76.6745 65.635C77.0865 65.0563 77.4713 64.461 77.791 63.8256C77.8815 63.6458 77.9715 63.4646 78.0135 63.2649C78.0523 63.0806 77.9722 62.967 77.7879 62.943L77.7881 62.9437Z" fill="#494949"/>
<path d="M30.481 70.6986C30.5477 70.7447 30.5785 70.8104 30.5982 70.8883C30.679 71.209 30.7666 71.528 30.8478 71.8488C30.8731 71.948 30.9065 71.9623 30.9961 71.9026C31.2916 71.7054 31.5592 71.4693 31.8542 71.2743C32.2841 70.9902 32.705 70.6893 33.1701 70.4611C33.2666 70.4137 33.3678 70.3912 33.4731 70.3871C33.6659 70.3798 33.7846 70.4887 33.7989 70.6811C33.8183 70.9431 33.6446 71.1932 33.3908 71.2658C33.3775 71.2697 33.3603 71.2602 33.345 71.2568C33.3981 71.1008 33.4769 70.9533 33.4966 70.7864C33.5102 70.6714 33.4925 70.6554 33.3806 70.6942C33.2157 70.7517 33.0655 70.8395 32.9199 70.9339C31.638 71.7651 30.4633 72.7277 29.3932 73.818C29.0671 74.1501 28.777 74.5114 28.5186 74.8983C28.357 74.9614 28.1891 75.0296 28.1137 75.1945C28.0368 75.3624 28.0358 75.5458 28.1059 75.7232C28.1731 76.0029 28.3609 76.1519 28.6328 76.2094C28.9725 76.2812 29.2697 76.1579 29.5557 75.9997C29.9822 75.7639 30.3563 75.4556 30.7062 75.1201C31.0029 74.8355 31.2853 74.5361 31.5742 74.2433C31.6412 74.2549 31.6761 74.2981 31.6994 74.3595C31.85 74.754 32.0252 75.138 32.1936 75.525C32.2515 75.6584 32.2773 75.6659 32.3935 75.5825C32.4549 75.5383 32.5099 75.481 32.5939 75.4808C32.5662 75.5099 32.5417 75.5432 32.5104 75.5674C32.2365 75.7807 31.9655 75.9985 31.6856 76.2035C30.7188 76.9115 29.6947 77.5124 28.5419 77.8714C27.8315 78.0927 27.1117 78.1102 26.3858 77.9777C26.1214 77.9294 26.1682 77.8858 26.0248 78.1553C26.0212 78.1623 26.02 78.1706 26.0176 78.1783C25.9169 78.1449 25.8174 78.1085 25.7296 78.0473C25.7553 77.9884 25.7798 77.9287 25.8075 77.8705C25.8264 77.8304 25.8371 77.7926 25.7914 77.7649C25.6934 77.7055 25.6272 77.6099 25.5362 77.5427C25.3962 77.3367 25.3259 77.1089 25.3152 76.8607C25.2825 76.1058 25.5491 75.4434 25.9484 74.8236C26.3667 74.1744 26.8861 73.6132 27.4484 73.0863C28.3706 72.2221 29.3789 71.4686 30.408 70.7403C30.4308 70.724 30.4568 70.7124 30.4813 70.6986H30.481Z" fill="#464646"/>
<path d="M52.5844 56.1704C52.8954 56.1668 53.2076 56.1532 53.5065 56.2667C54.1165 56.5101 54.3122 57.0161 54.3542 57.6147C54.3891 58.112 54.3062 58.595 54.1548 59.0679C54.1266 59.1559 54.1014 59.245 54.1237 59.3408C54.1887 59.6198 54.3588 59.7314 54.6533 59.6787C54.926 59.63 55.1774 59.5208 55.4224 59.3954C55.4547 59.3789 55.4874 59.3638 55.5199 59.3483C55.247 59.5667 55.3052 59.8874 55.2829 60.1734C55.2528 60.5579 55.2829 60.9442 55.344 61.3265C55.3523 61.3777 55.3484 61.4308 55.3501 61.483C55.0105 61.483 54.6708 61.483 54.3312 61.483C54.2887 61.4813 54.2455 61.4842 54.2079 61.458C54.2203 61.3634 54.1638 61.3272 54.0832 61.3234C54.0126 61.32 53.9418 61.3289 53.8709 61.3323C53.8969 61.2731 53.9233 61.2142 53.9491 61.155C53.9886 61.0638 53.9702 61.0366 53.8687 61.0509C53.6914 61.0759 53.5226 61.13 53.3644 61.2147C53.2559 61.2727 53.1404 61.3209 53.0456 61.427C53.1989 61.483 53.3454 61.4456 53.4874 61.4609C52.9352 61.7744 52.5002 62.2244 52.0696 62.679C51.8199 62.9425 51.5739 63.2094 51.3262 63.4748C51.243 63.3935 51.1334 63.3952 51.0291 63.3802L51.0339 63.3712C51.6572 62.713 52.2496 62.0245 52.9568 61.4432C52.8736 61.4289 52.7972 61.4333 52.7215 61.4282C52.2879 61.3986 51.8544 61.3665 51.4209 61.3355C51.5419 61.0427 51.5295 60.7712 51.3025 60.5274C51.1108 60.3216 51.1166 60.2185 51.3197 60.0186C51.3541 59.9849 51.3913 59.9534 51.4294 59.9238C51.7265 59.6943 52.0424 59.4912 52.3505 59.277C52.5803 59.1173 52.801 58.9483 52.9483 58.7032C52.9806 58.6496 53.0417 58.5768 52.9944 58.5312C52.9468 58.4854 52.8918 58.5662 52.8433 58.596C52.738 58.661 52.6572 58.7658 52.5254 58.7872C52.6028 58.6911 52.6941 58.6045 52.7368 58.4844C52.7712 58.3874 52.7976 58.291 52.7025 58.2098C52.7389 58.1853 52.7787 58.1646 52.8115 58.136C52.9158 58.0441 52.9061 57.9931 52.7739 57.9444C52.6196 57.8873 52.4626 57.866 52.3052 57.9327C52.1875 57.9827 52.0708 58.0348 51.9536 58.0863C51.8522 57.9914 51.7768 58.0831 51.6935 58.1222C51.6596 58.1382 51.628 58.1874 51.5878 58.1525C51.557 58.1258 51.5851 58.0834 51.5931 58.0496C51.7227 57.5018 51.8966 56.9688 52.112 56.4487C52.1475 56.3633 52.1979 56.3262 52.2882 56.3094C52.3959 56.2893 52.5347 56.3189 52.5842 56.1699L52.5844 56.1704Z" fill="#898989"/>
<path d="M74.7089 63.6664C74.7977 63.6428 74.8916 63.6406 74.9758 63.5994C75.3501 63.5424 75.7174 63.4521 76.0854 63.3655C76.5986 63.245 77.1092 63.1144 77.6209 62.9883C77.3945 63.1824 77.1682 63.3764 76.9416 63.57C76.7116 63.7663 76.479 63.9594 76.2519 64.1591C76.1286 64.2675 76.1087 64.4056 76.1815 64.5385C75.9644 64.7326 75.7215 64.893 75.4833 65.0587C74.8254 65.517 74.1381 65.9236 73.3925 66.2251C73.3554 66.2402 73.3163 66.2504 73.2783 66.263C73.2649 66.2484 73.2453 66.2363 73.2392 66.2193C73.1815 66.0551 73.1669 66.0461 72.9951 66.0859C72.952 66.0958 72.9095 66.1084 72.867 66.121C72.4566 66.2426 72.041 66.3384 71.6101 66.3336C71.4704 66.3319 71.3306 66.3037 71.1911 66.2877C70.794 66.1528 70.532 65.8816 70.3888 65.491C70.2595 65.1378 70.2246 64.7705 70.2229 64.3978L70.2207 64.3942C70.4148 64.3694 70.6091 64.3447 70.8032 64.3197C72.0859 64.1334 73.3658 63.9313 74.6364 63.6734C74.6599 63.6685 74.6844 63.6683 74.7084 63.6661L74.7089 63.6664Z" fill="#4A4A4A"/>
<path d="M56.2229 66.4311C56.0099 66.4316 55.8005 66.4013 55.5926 66.3579C55.5637 66.3014 55.5681 66.24 55.5678 66.1798C55.5678 66.1279 55.5574 66.0806 55.5009 66.0641C55.3143 66.01 55.1399 65.9253 54.9594 65.8557C54.7044 65.6941 54.4819 65.501 54.333 65.2322C54.1129 64.8355 54.0455 64.4076 54.0639 63.9609C54.1435 63.9731 54.2233 63.9833 54.3024 63.9976C54.9722 64.1191 55.644 64.228 56.318 64.3222C56.8641 64.3984 57.4112 64.4694 57.9599 64.526C58.4726 64.5789 58.984 64.6429 59.499 64.6681C59.4871 64.7133 59.4563 64.7455 59.4226 64.7746C59.2634 64.9105 59.1094 65.0534 58.9432 65.1803C58.18 65.7637 57.3512 66.1752 56.3582 66.1456C56.2988 66.1439 56.2311 66.1354 56.2018 66.2072C56.1705 66.2841 56.1515 66.3627 56.2224 66.4314L56.2229 66.4311Z" fill="#4F4F4F"/>
<path d="M26.0176 78.1823C26.02 78.1745 26.0212 78.1663 26.0249 78.1592C26.1682 77.8897 26.1214 77.9334 26.3859 77.9817C27.1117 78.1141 27.8313 78.0967 28.5419 77.8754C29.6947 77.5163 30.7188 76.9154 31.6856 76.2075C31.9655 76.0025 32.2365 75.7846 32.5104 75.5714C32.5417 75.5469 32.5662 75.5139 32.5939 75.4848C33.3479 74.8588 34.0558 74.1837 34.7325 73.4762C35.2589 72.926 35.7691 72.3605 36.2543 71.7724C36.6034 71.3493 36.9494 70.9243 37.2864 70.4915C37.3111 70.4597 37.3407 70.4315 37.3494 70.3898C37.3771 70.3607 37.4077 70.334 37.4317 70.3022C37.6071 70.0703 37.7813 69.8374 37.9557 69.6047C38.7238 68.579 39.4453 67.521 40.1416 66.4455C40.269 66.2488 40.4026 66.0571 40.5722 65.8919C40.8871 65.5855 41.2627 65.3603 41.6149 65.1039C41.8922 64.9021 42.1836 64.7194 42.4444 64.495C42.8675 64.206 43.2819 63.9037 43.7234 63.6422C43.8937 63.5413 44.0718 63.4552 44.2569 63.3848C44.3583 63.3462 44.4636 63.3455 44.5677 63.361C44.7843 63.3935 44.9236 63.6153 44.8634 63.823C44.8336 63.9258 44.6691 63.9605 44.5764 63.8834C44.5771 63.8712 44.5767 63.8591 44.5786 63.8472C44.6101 63.6446 44.5463 63.5879 44.3491 63.6536C44.203 63.7024 44.0701 63.781 43.9393 63.8615C42.9269 64.4855 41.9752 65.1971 41.0096 65.8887C40.7714 66.0595 40.5863 66.2842 40.4262 66.5314C39.1981 68.4296 37.8909 70.2704 36.4377 72.0046C35.2803 73.3857 34.0442 74.6897 32.6463 75.8324C31.6793 76.6228 30.6557 77.3259 29.505 77.8278C28.6959 78.1806 27.8611 78.4103 26.9664 78.3468C26.6445 78.324 26.324 78.2951 26.0176 78.1825V78.1823Z" fill="#3C3C3C"/>
<path d="M67.9663 59.7604C68.6759 59.558 69.3806 59.3394 70.0796 59.1027C70.1099 59.0925 70.1424 59.0886 70.1737 59.082C70.1657 59.1255 70.1526 59.1684 70.1502 59.2121C70.1242 59.6878 70.0762 60.1609 69.9872 60.6294C69.8591 61.3016 69.6774 61.9584 69.4153 62.5918C69.3591 62.7274 69.3739 62.7456 69.5194 62.742C69.5677 62.7408 69.6162 62.7446 69.6645 62.7463C69.5141 62.8317 69.3996 62.9509 69.3241 63.1071C68.9935 63.1226 68.664 63.1282 68.3518 62.9909C68.3755 62.9635 68.3988 62.9356 68.4231 62.9084C68.5238 62.7946 68.5218 62.7776 68.3877 62.709C68.2198 62.6231 68.09 62.5006 68.0225 62.3223C67.9743 62.1942 67.9391 62.061 67.8918 61.9324C67.8192 61.7354 67.6756 61.6612 67.4713 61.7012C67.3799 61.7192 67.3095 61.7706 67.238 61.8232C67.2278 61.7286 67.3071 61.6721 67.3367 61.5937C67.4658 61.2534 67.5652 60.9047 67.6531 60.5515C67.7142 60.3052 67.7149 60.0457 67.8205 59.8101C67.8692 59.7934 67.9177 59.7766 67.9665 59.7601L67.9663 59.7604Z" fill="#9D9D9D"/>
<path d="M62.8223 66.2638C62.5959 66.2765 62.3693 66.2718 62.143 66.2638C62.1612 66.1874 62.2279 66.1486 62.2747 66.0943C62.2924 66.0736 62.3225 66.0554 62.3101 66.0234C62.2975 65.9909 62.2628 65.9958 62.2359 65.9967C61.9935 66.0057 61.7524 65.9819 61.5107 65.972C61.5384 65.9232 61.5639 65.8728 61.5942 65.8257C61.8091 65.4945 62.0389 65.1728 62.2403 64.8327C62.8904 64.8116 63.5401 64.8645 64.1908 64.8351C64.5419 64.8191 64.8939 64.8271 65.2454 64.8242C65.0249 65.1627 64.8061 65.5021 64.5829 65.8388C64.5113 65.9468 64.406 65.9975 64.273 65.9965C63.9295 65.9941 63.586 66.0018 63.2427 65.9936C63.0343 65.9887 62.9249 66.1159 62.8223 66.2641V66.2638Z" fill="#4D4D4D"/>
<path d="M72.8895 70.482C72.3686 71.1043 71.849 71.7278 71.3261 72.3486C70.6757 73.1206 70.0166 73.8853 69.3802 74.6691C69.0059 75.1303 68.6361 75.5952 68.322 76.1005C68.2174 76.2686 68.116 76.4397 68.0558 76.6296C67.9018 77.1153 67.9954 77.545 68.3537 77.9125C68.3845 77.9443 68.4171 77.9746 68.4486 78.0057C68.4173 78.0923 68.386 78.1789 68.3547 78.2655C67.8253 77.9346 67.567 77.2233 67.7586 76.6182C67.8748 76.2512 68.081 75.9317 68.2982 75.6192C68.8457 74.8312 69.4726 74.106 70.0879 73.3719C70.9343 72.3622 71.7854 71.3561 72.6348 70.3488C72.6607 70.3182 72.6903 70.2906 72.7182 70.2617C72.7643 70.3437 72.8628 70.385 72.8892 70.4822L72.8895 70.482Z" fill="#8A8A8A"/>
<path d="M51.029 63.387C51.1333 63.402 51.243 63.4003 51.3262 63.4816C50.6064 64.2584 49.8635 65.0102 48.9741 65.5986C48.2718 66.0631 47.5154 66.3924 46.6733 66.4976C46.2555 66.5501 45.8365 66.5806 45.4282 66.4324C45.4379 66.3933 45.4471 66.354 45.4573 66.3152C45.485 66.2104 45.5413 66.1852 45.6543 66.2058C46.1097 66.2895 46.5631 66.249 47.012 66.1505C47.8912 65.9576 48.6488 65.5219 49.3521 64.9763C49.8611 64.5815 50.307 64.1199 50.76 63.6652C50.8512 63.5738 50.9395 63.4796 51.0293 63.3867L51.029 63.387Z" fill="#3C3C3C"/>
<path d="M61.999 61.0215C62.344 60.2578 62.641 59.4776 62.8071 58.6532C62.8462 58.4596 62.8734 58.2643 62.8729 58.0647C62.8719 57.7752 63.0277 57.6287 63.3156 57.6253C63.7528 57.6205 64.1859 57.6729 64.6167 57.7311C64.9285 57.7733 65.1684 57.9499 65.3191 58.2338C65.3943 58.3754 65.3482 58.4817 65.1543 58.619C65.0369 58.1845 64.8419 58.0259 64.3848 57.9875C64.0592 57.9601 63.7344 57.9264 63.4086 57.9004C63.1878 57.8827 63.1701 57.9065 63.157 58.1253C63.1194 58.7559 62.9432 59.3553 62.7358 59.9466C62.6131 60.2964 62.4842 60.6443 62.3161 60.9759C62.2101 60.9912 62.1043 61.0065 61.9983 61.0215H61.999Z" fill="#7B7B7B"/>
<path d="M67.2373 61.8238C67.3089 61.7712 67.3792 61.7197 67.4707 61.7018C67.675 61.662 67.8188 61.7362 67.8911 61.933C67.9384 62.0616 67.9736 62.1945 68.0219 62.3228C68.0893 62.5012 68.2191 62.6237 68.387 62.7096C68.5212 62.7782 68.5231 62.7952 68.4224 62.909C68.3984 62.9362 68.3749 62.9638 68.3511 62.9915C68.0799 62.9007 67.8829 62.7253 67.7713 62.4626C67.7194 62.3403 67.6869 62.21 67.6442 62.0839C67.6012 61.9572 67.5466 61.9417 67.4409 62.0247C67.3824 62.0705 67.3448 62.1331 67.305 62.194C66.7628 63.0271 66.2206 63.86 65.6779 64.6929C65.6516 64.7331 65.6206 64.7705 65.5917 64.8091C65.4852 64.8081 65.3785 64.8069 65.272 64.8059C65.2955 64.7637 65.3166 64.7195 65.3431 64.679C65.927 63.7819 66.5114 62.885 67.0961 61.988C67.1357 61.9272 67.173 61.8641 67.2371 61.8238H67.2373Z" fill="#8B8B8B"/>
<path d="M64.5212 60.5393C64.586 60.6211 64.6677 60.5405 64.7388 60.5621C64.8356 60.5808 64.7868 60.6373 64.7652 60.6786C64.6338 60.9282 64.5037 61.1788 64.3652 61.4246C63.7611 62.4966 63.0976 63.5321 62.4268 64.5629C62.37 64.65 62.3259 64.748 62.2378 64.8118L61.928 64.8113C62.3419 64.1658 62.7608 63.5236 63.1684 62.8741C63.6466 62.1119 64.1039 61.337 64.5214 60.5391L64.5212 60.5393Z" fill="#BEBEBE"/>
<path d="M76.182 64.5382C76.1094 64.4053 76.1293 64.2672 76.2523 64.1588C76.4792 63.9589 76.7121 63.766 76.942 63.5697C77.1689 63.3761 77.395 63.1818 77.6213 62.988C77.672 62.9552 77.7281 62.9394 77.7883 62.9375C77.9726 62.9615 78.0527 63.0751 78.0139 63.2594C77.9719 63.4589 77.8819 63.6401 77.7914 63.8201C77.4717 64.4552 77.0869 65.0508 76.6749 65.6295C76.6679 65.6392 76.6592 65.6476 76.6512 65.6569C76.584 65.5809 76.4784 65.6006 76.3989 65.5552C76.6669 65.1389 76.9389 64.7253 77.2014 64.3056C77.3746 64.0285 77.5301 63.7408 77.6589 63.4397C77.6745 63.4035 77.6871 63.3659 77.6856 63.3167C77.1844 63.724 76.6834 64.1314 76.1822 64.5389L76.182 64.5382Z" fill="#3D3D3D"/>
<path d="M61.9989 61.0222C62.1049 61.0069 62.2107 60.9916 62.3167 60.9766C62.1529 61.3858 61.9462 61.7742 61.7328 62.1588C61.241 63.0448 60.668 63.8728 59.9714 64.612C59.9384 64.6469 59.9013 64.6782 59.8661 64.7112C59.7599 64.695 59.6534 64.6785 59.5471 64.6622C59.5762 64.629 59.6039 64.5945 59.6347 64.5628C59.9603 64.2277 60.2662 63.8759 60.5408 63.4975C60.6738 63.3104 60.8133 63.1275 60.9385 62.9354C61.3368 62.3238 61.6925 61.6881 61.996 61.0239L61.9989 61.0219V61.0222Z" fill="#8B8B8B"/>
<path d="M59.547 64.6641C59.6532 64.6803 59.7597 64.6968 59.866 64.7131C59.0525 65.5518 58.1306 66.2029 56.9462 66.3992C56.7068 66.439 56.4651 66.446 56.2228 66.431C56.1517 66.3623 56.1709 66.2837 56.2022 66.2068C56.2315 66.135 56.2992 66.1435 56.3586 66.1452C57.3516 66.1748 58.1804 65.7633 58.9436 65.1798C59.1098 65.053 59.2638 64.9101 59.423 64.7742C59.457 64.7453 59.4875 64.7131 59.4994 64.6677C59.5154 64.6665 59.5312 64.6653 59.5472 64.6641H59.547Z" fill="#3C3C3C"/>
<path d="M65.2726 64.8088C65.3791 64.8098 65.4858 64.811 65.5923 64.812C65.3383 65.229 65.0732 65.6393 64.7888 66.0362C64.6663 66.2072 64.495 66.2834 64.276 66.2781C63.7915 66.2664 63.3067 66.2708 62.822 66.2686C62.9246 66.1204 63.0341 65.9932 63.2425 65.9981C63.5857 66.0063 63.9293 65.9983 64.2728 66.001C64.4058 66.002 64.511 65.9513 64.5826 65.8433C64.8056 65.5066 65.0246 65.1672 65.2452 64.8287C65.2544 64.8219 65.2634 64.8154 65.2726 64.8086V64.8088Z" fill="#3C3C3C"/>
<path d="M54.2082 61.4609C54.2456 61.4871 54.289 61.4842 54.3314 61.4859C54.4656 61.5041 54.4775 61.573 54.4462 61.6963C54.336 62.1288 54.2349 62.5638 54.1553 63.0037C54.0995 63.3125 54.0748 63.6247 54.0403 63.936C53.9518 63.9282 53.8632 63.9205 53.7744 63.9127C53.781 63.4132 53.8773 62.9255 53.9799 62.4399C54.049 62.1121 54.1315 61.7872 54.2082 61.4612V61.4609Z" fill="#B7B7B7"/>
<path d="M53.7742 63.9141C53.8627 63.9218 53.9513 63.9296 54.0401 63.9374C54.0481 63.9454 54.0563 63.9536 54.0643 63.9616C54.0459 64.4082 54.1133 64.836 54.3334 65.2329C54.4826 65.5017 54.705 65.6948 54.9598 65.8564C54.921 65.942 54.9557 66.0412 54.9103 66.1257C54.437 65.9037 54.1238 65.5359 53.9413 65.0529C53.8028 64.6863 53.7579 64.3042 53.7742 63.9141V63.9141Z" fill="#8A8A8A"/>
<path d="M70.2234 64.3989C70.2251 64.7713 70.2598 65.1389 70.3893 65.4921C70.5325 65.8827 70.7945 66.1539 71.1916 66.2888C71.1824 66.3917 71.0747 66.4346 71.0475 66.5266C70.6467 66.4048 70.3796 66.1316 70.1989 65.7662C70.0351 65.4353 69.9684 65.0797 69.9512 64.7131C69.9526 64.6932 69.9551 64.6736 69.9555 64.6537C69.9597 64.4115 69.964 64.4069 70.2117 64.3984C70.2156 64.3984 70.2197 64.3989 70.2236 64.3992L70.2234 64.3989Z" fill="#6C6C6C"/>
<path d="M71.0474 66.5257C71.0745 66.4337 71.1825 66.3908 71.1915 66.2879C71.3312 66.3039 71.4707 66.3321 71.6104 66.3338C72.0413 66.3386 72.4569 66.2428 72.8674 66.1213C72.9098 66.1086 72.9523 66.096 72.9955 66.0861C73.1672 66.0465 73.1818 66.0553 73.2395 66.2195C73.2456 66.2365 73.2653 66.2489 73.2786 66.2632C72.6207 66.5235 71.9482 66.6892 71.2334 66.5783C71.1701 66.5686 71.1095 66.5436 71.0474 66.5257V66.5257Z" fill="#565656"/>
<path d="M76.3987 65.5586C76.4783 65.604 76.5838 65.5843 76.651 65.6602C76.5164 65.9007 76.3422 66.1137 76.1826 66.3366C76.0273 66.5533 75.8699 66.7685 75.7059 66.9788C75.5685 67.1549 75.514 67.1498 75.3652 66.9706C75.7097 66.4999 76.0542 66.0295 76.3987 65.5588V65.5586Z" fill="#3C3C3C"/>
<path d="M70.2236 64.3987C70.2197 64.3987 70.2156 64.398 70.2117 64.398C69.964 64.4067 69.9594 64.4113 69.9555 64.6532C69.9553 64.6731 69.9528 64.693 69.9511 64.7127C69.9271 64.6636 69.9305 64.6105 69.9312 64.5584C69.9371 64.1013 69.9931 63.652 70.1426 63.2175C70.1738 63.1263 70.1969 63.0321 70.2236 62.9394C70.3294 62.9067 70.3541 62.7735 70.4642 62.7461C70.5031 62.8987 70.4975 63.0477 70.4482 63.1988C70.3221 63.5874 70.2127 63.98 70.2214 64.3946L70.2236 64.3982V64.3987Z" fill="#B7B7B7"/>
<path d="M61.9279 64.8125C62.0313 64.8125 62.1344 64.8127 62.2377 64.813C62.2389 64.8205 62.2397 64.828 62.2404 64.8355C62.0393 65.1757 61.8095 65.4974 61.5943 65.8285C61.5638 65.8756 61.5385 65.9261 61.5109 65.9748C61.5058 66.0255 61.4803 66.0607 61.4386 66.0915C61.3879 66.1291 61.3374 66.1706 61.3192 66.2368C61.1943 66.166 61.1562 66.0777 61.1996 65.9481C61.2135 65.9067 61.2343 65.8664 61.2581 65.8297C61.4806 65.4901 61.7042 65.1514 61.9277 64.8125H61.9279Z" fill="#7A7A7A"/>
<path d="M44.6279 64.8104C44.6318 64.9741 44.6041 65.1394 44.6437 65.3012C44.6937 65.5047 44.8089 65.6726 44.9445 65.8281C44.9108 65.9184 44.8771 66.0086 44.8433 66.0986C44.4348 65.7517 44.2587 65.3196 44.361 64.7849C44.421 64.7757 44.4809 64.7674 44.5406 64.7568C44.5867 64.7488 44.6218 64.7548 44.6281 64.8101L44.6279 64.8104Z" fill="#898989"/>
<path d="M72.89 70.4829C72.8636 70.3859 72.7648 70.3444 72.719 70.2624C72.9041 70.0355 73.0885 69.8082 73.2743 69.5819C73.3355 69.5076 73.4 69.4361 73.4631 69.3633C73.5378 69.4167 73.6113 69.4712 73.644 69.5627C73.4781 69.7992 73.2826 70.0123 73.1009 70.2364C73.0329 70.3204 72.9604 70.4007 72.8898 70.4824L72.89 70.4829Z" fill="#757575"/>
<path d="M74.756 67.7617C74.7661 67.802 74.7863 67.8372 74.8195 67.8614C74.9236 67.9369 74.9098 68.0135 74.8355 68.1043C74.6378 68.3459 74.4447 68.5914 74.2496 68.8355C74.2416 68.7232 74.1155 68.7028 74.0776 68.6135C74.3037 68.3297 74.5301 68.0456 74.7562 67.7617H74.756Z" fill="#5A5A5A"/>
<path d="M70.4642 62.7455C70.3543 62.773 70.3293 62.9061 70.2236 62.9389C70.1886 62.8634 70.1343 62.9078 70.0901 62.9214C69.88 62.9862 69.6726 63.0595 69.4545 63.0946C69.4113 63.1017 69.3674 63.1027 69.3237 63.1063C69.3992 62.9501 69.5137 62.8309 69.6641 62.7455C69.8119 62.7215 69.947 62.6553 70.0904 62.6165C70.2643 62.5692 70.3825 62.6107 70.464 62.7455H70.4642Z" fill="#ABABAB"/>
<path d="M74.0772 68.6133C74.115 68.7023 74.2414 68.7229 74.2492 68.8353C74.0461 69.0771 73.8676 69.3394 73.6439 69.5643C73.6111 69.4728 73.5376 69.4182 73.4629 69.3649C73.6676 69.1143 73.8724 68.8639 74.0772 68.6133V68.6133Z" fill="#686868"/>
<path d="M61.3191 66.2386C61.3373 66.1726 61.3877 66.1309 61.4385 66.0933C61.4802 66.0624 61.5054 66.0273 61.5107 65.9766C61.7524 65.9865 61.9935 66.0103 62.2359 66.0016C62.2628 66.0006 62.2975 65.9957 62.3101 66.0282C62.3225 66.0603 62.2924 66.0785 62.2747 66.0991C62.2279 66.1534 62.1612 66.1922 62.143 66.2687C61.9023 66.2815 61.6614 66.2752 61.4207 66.2689C61.3844 66.2679 61.3484 66.2648 61.3193 66.2386H61.3191Z" fill="#606060"/>
<path d="M53.4872 61.4644C53.3453 61.4489 53.1987 61.4865 53.0454 61.4304C53.14 61.3242 53.2557 61.2761 53.3642 61.2181C53.5224 61.1335 53.6915 61.0794 53.8686 61.0544C53.97 61.0401 53.9884 61.0672 53.9489 61.1585C53.9232 61.2176 53.897 61.2766 53.8708 61.3358C53.7368 61.361 53.6148 61.4212 53.487 61.4646L53.4872 61.4644Z" fill="#7B7B7B"/>
<path d="M54.9104 66.1248C54.9558 66.0403 54.9211 65.9411 54.9599 65.8555C55.1404 65.9251 55.3148 66.0098 55.5014 66.0639C55.5579 66.0804 55.5681 66.1277 55.5683 66.1796C55.5686 66.24 55.5642 66.3011 55.5931 66.3577C55.3527 66.3176 55.1241 66.2434 54.9104 66.1248V66.1248Z" fill="#757575"/>
<path d="M25.5357 77.5469C25.6267 77.6141 25.6929 77.7097 25.7909 77.7691C25.8365 77.7968 25.8258 77.8346 25.8069 77.8746C25.7795 77.9329 25.755 77.9925 25.7291 78.0515C25.5959 77.9887 25.483 77.8996 25.3892 77.7863C25.4205 77.6958 25.4493 77.6036 25.5355 77.5469H25.5357Z" fill="#636363"/>
<path d="M44.843 66.1025C44.8767 66.0123 44.9105 65.922 44.9442 65.832C44.9476 65.8342 44.9512 65.8362 44.9544 65.8386C45.0451 65.9058 45.1434 65.965 45.2249 66.0421C45.3309 66.1423 45.1611 66.2403 45.2077 66.3454C45.0735 66.2833 44.951 66.2037 44.8428 66.1025H44.843Z" fill="#626262"/>
<path d="M44.6279 64.8103C44.6216 64.7549 44.5865 64.7489 44.5404 64.7569C44.4807 64.7673 44.4208 64.7758 44.3608 64.785C44.3659 64.6591 44.3868 64.5364 44.431 64.418C44.4555 64.4662 44.4974 64.4706 44.5445 64.4643C44.5962 64.4573 44.6483 64.4517 44.7002 64.4454C44.6762 64.5669 44.652 64.6887 44.6279 64.8103V64.8103Z" fill="#757575"/>
<path d="M44.7002 64.4486C44.6483 64.4549 44.5964 64.4607 44.5444 64.4675C44.4974 64.4738 44.4554 64.4695 44.4309 64.4212C44.4418 64.329 44.4671 64.2409 44.5047 64.1562C44.5522 64.1868 44.6041 64.1839 44.6563 64.1737C44.7582 64.1541 44.7807 64.2026 44.7553 64.2894C44.7395 64.3431 44.7186 64.3955 44.7002 64.4483V64.4486Z" fill="#5F5F5F"/>
<path d="M68.355 78.2716C68.3863 78.1849 68.4176 78.0983 68.4489 78.0117C68.5253 78.0333 68.5806 78.0903 68.6461 78.1304C68.6216 78.2184 68.5973 78.3065 68.5728 78.3943C68.4916 78.3686 68.4219 78.3225 68.355 78.2713V78.2716Z" fill="#737373"/>
<path d="M68.5728 78.3929C68.5973 78.3048 68.6215 78.2167 68.646 78.1289C68.6618 78.1316 68.6783 78.1323 68.6936 78.1372C68.8573 78.1896 68.8707 78.2177 68.8071 78.3795C68.7955 78.4094 68.7804 78.438 68.7671 78.4673C68.697 78.4564 68.6324 78.4312 68.5728 78.3931V78.3929Z" fill="#5C5C5C"/>
<path d="M34.1718 57.778C33.6489 58.3513 33.1378 58.934 32.6836 59.5645C32.0359 60.4639 31.4677 61.4057 31.1297 62.4707C30.9735 62.9632 30.8743 63.4649 30.8966 63.9843C30.9228 64.5974 31.1649 65.1006 31.6705 65.4642C31.6996 65.4851 31.7338 65.4992 31.7656 65.5161C31.7234 65.6052 31.6021 65.6234 31.5764 65.7274C31.0062 65.3691 30.7037 64.8429 30.6304 64.1837C30.5419 63.3861 30.7469 62.6357 31.0356 61.9045C31.4669 60.8123 32.1009 59.8394 32.8226 58.9207C33.1695 58.4791 33.5308 58.0492 33.925 57.6484C34.0068 57.6834 34.0888 57.7181 34.1705 57.753L34.1718 57.778V57.778Z" fill="#7B7B7B"/>
<path d="M35.2138 67.6504C34.9868 67.7875 34.7597 67.9243 34.5326 68.0614C34.5362 67.959 34.4428 67.8916 34.4363 67.7928C34.7429 67.6053 35.0496 67.418 35.356 67.2305C35.363 67.3212 35.4831 67.3836 35.4375 67.4796C35.398 67.5631 35.2936 67.5861 35.2228 67.6427C35.2197 67.6451 35.2167 67.6478 35.2138 67.6504V67.6504Z" fill="#606060"/>
<path d="M35.2139 67.6504C35.2168 67.6478 35.2197 67.6451 35.2228 67.6427C35.2934 67.5862 35.398 67.5631 35.4375 67.4797C35.4829 67.3836 35.3631 67.3215 35.356 67.2305C35.5018 67.1419 35.6476 67.0534 35.7932 66.9648C35.8294 67.0277 35.8628 67.092 35.9024 67.1526C35.9514 67.2276 35.9448 67.2887 35.8667 67.336C35.6913 67.4423 35.5157 67.5478 35.3395 67.6531C35.2981 67.6779 35.2554 67.6771 35.2141 67.6504H35.2139Z" fill="#4A4A4A"/>
<path d="M34.1703 57.7523C34.0886 57.7174 34.0066 57.6827 33.9248 57.6478C34.0857 57.4622 34.2543 57.2836 34.435 57.1172C34.4813 57.2103 34.6167 57.1888 34.657 57.2897C34.4974 57.4466 34.3617 57.6288 34.1703 57.7523V57.7523Z" fill="#B7B7B7"/>
<path d="M31.5759 65.7269C31.6016 65.6229 31.7229 65.6049 31.7652 65.5156C31.8799 65.5709 31.985 65.6452 32.1063 65.6879C32.1735 65.7114 32.1565 65.7468 32.1169 65.7835C32.0645 65.8317 31.9968 65.8638 31.9609 65.9295C31.8234 65.8798 31.6963 65.8101 31.5762 65.7269H31.5759Z" fill="#616161"/>
<path d="M42.4436 64.4918C42.1828 64.7162 41.8915 64.8989 41.6142 65.1007C41.2619 65.3571 40.8864 65.5823 40.5714 65.8887C40.4019 66.0539 40.2682 66.2456 40.1408 66.4423C39.4445 67.5178 38.723 68.5758 37.9549 69.6015C37.7805 69.8344 37.6063 70.0671 37.4309 70.299C37.4069 70.3308 37.3763 70.3575 37.3487 70.3866C37.2545 70.4395 37.2017 70.4113 37.1721 70.3077C36.9309 69.4603 36.7274 68.6047 36.5949 67.733C36.5658 67.5416 36.5461 67.3484 36.509 67.1585C36.4782 67.0013 36.525 66.8962 36.6623 66.8147C36.9273 66.6575 37.1764 66.4748 37.3771 66.241C37.6228 65.9542 37.8472 65.6492 37.9959 65.2975C38.0258 65.2271 38.0416 65.1526 38.0537 65.0757C38.0857 64.8748 37.8919 64.7038 37.6451 64.7383C37.315 64.7841 37.0576 64.9758 36.7713 65.1107C36.6801 65.1536 36.5898 65.1987 36.4969 65.2383C36.412 65.2744 36.3579 65.2392 36.3574 65.15C36.3562 64.8717 36.3397 64.5929 36.3673 64.3149C36.3712 64.2749 36.3758 64.2346 36.3775 64.1946C36.3809 64.1152 36.3533 64.0677 36.263 64.0893C36.221 64.0992 36.182 64.1007 36.1597 64.0536C36.2082 64.0379 36.2567 64.0218 36.3052 64.0061C36.681 63.9403 37.0229 63.788 37.3484 63.5946C38.0491 63.2356 38.6697 62.7586 39.2842 62.2739C39.7369 61.9168 40.1758 61.5431 40.6015 61.1545C40.7772 60.9941 40.954 60.8352 41.1302 60.6753C41.1666 60.6423 41.2061 60.6154 41.2554 60.6055C41.6108 60.729 41.9664 60.8524 42.3218 60.9759C42.3447 61.039 42.3403 61.1014 42.3231 61.1659C42.1477 61.8214 42.0164 62.4861 41.9429 63.1606C41.8871 63.673 41.8478 64.1875 41.8614 64.7043C41.8621 64.7356 41.8502 64.7751 41.8813 64.7941C41.9203 64.8178 41.9485 64.779 41.9766 64.7601C42.0705 64.6975 42.1622 64.6313 42.2554 64.5677C42.3124 64.5289 42.3716 64.4944 42.4434 64.4908L42.4436 64.4918Z" fill="#4A4A4A"/>
<path d="M34.1704 57.7528C34.3618 57.6293 34.4974 57.4471 34.6571 57.2901C34.6731 57.2819 34.6891 57.2739 34.7054 57.2656C34.9941 57.3435 35.2643 57.4721 35.546 57.5696C36.0792 57.754 36.6093 57.9483 37.1406 58.1383C37.2202 58.1667 37.3017 58.1907 37.3738 58.237C37.2032 58.4639 37.0327 58.6904 36.8621 58.9173C36.5647 58.8268 36.2852 58.6907 36.0009 58.5682C35.4349 58.3241 34.8725 58.0718 34.3082 57.8239C34.2643 57.8047 34.217 57.7933 34.1711 57.7783C34.1709 57.77 34.1704 57.7615 34.1702 57.7533L34.1704 57.7528Z" fill="#818181"/>
<path d="M28.3469 75.5561C28.4568 75.9055 28.6555 76.0142 29.0196 75.922C29.2258 75.8698 29.4097 75.7687 29.5863 75.6539C30.1489 75.2881 30.63 74.8281 31.0885 74.3433C31.508 73.9001 31.8996 73.4333 32.2666 72.9459C32.2834 72.9236 32.304 72.9042 32.3229 72.8834C32.3787 72.9156 32.411 72.8671 32.4505 72.8457C32.5823 72.7742 32.6859 72.6541 32.8397 72.6211C32.5585 73.0634 32.2271 73.4673 31.8921 73.8683C31.7865 73.9947 31.68 74.1204 31.5738 74.2463C31.2851 74.5391 31.0024 74.8385 30.7057 75.1231C30.3559 75.4586 29.9818 75.767 29.5553 76.0028C29.2692 76.161 28.9721 76.2844 28.6324 76.2124C28.3604 76.1549 28.1727 76.0059 28.1055 75.7262C28.1613 75.6347 28.2503 75.5903 28.3466 75.5561H28.3469Z" fill="#7B7B7B"/>
<path d="M32.84 72.619C32.6862 72.652 32.5823 72.7721 32.4509 72.8436C32.4113 72.865 32.379 72.9137 32.3232 72.8812C32.4771 72.6631 32.6311 72.445 32.7849 72.2269C32.856 72.2636 32.8934 72.1978 32.945 72.1748C33.0401 72.1323 33.101 72.0207 33.225 72.0367C33.1073 72.2378 32.9994 72.4453 32.84 72.6187V72.619Z" fill="#6C6C6C"/>
<path d="M33.225 72.0383C33.1013 72.0223 33.0401 72.1338 32.945 72.1763C32.8934 72.1994 32.856 72.2651 32.7849 72.2285C32.9142 72.0181 33.0438 71.8078 33.1731 71.5977C33.2354 71.6297 33.2692 71.5739 33.3123 71.5504C33.3858 71.5106 33.446 71.4473 33.5683 71.4102C33.4579 71.646 33.3677 71.8553 33.2248 72.0385L33.225 72.0383Z" fill="#5B5B5B"/>
<path d="M62.2402 64.8359C62.2395 64.8284 62.2388 64.8208 62.2375 64.8133C62.3256 64.7495 62.3698 64.6515 62.4265 64.5647C63.0973 63.5338 63.7609 62.4984 64.365 61.4263C64.5035 61.1806 64.6333 60.9299 64.765 60.6803C64.7868 60.6388 64.8354 60.5823 64.7386 60.5638C65.0268 60.469 65.3274 60.4263 65.6219 60.3581C66.3065 60.1999 66.9885 60.0316 67.6661 59.8457C67.7166 59.8319 67.7685 59.8234 67.8199 59.8125C67.7144 60.0483 67.7139 60.3079 67.6525 60.5539C67.5647 60.9071 67.4652 61.2558 67.3361 61.5961C67.3065 61.6743 67.2272 61.7308 67.2374 61.8256C67.1736 61.8659 67.1362 61.929 67.0965 61.9899C66.5118 62.8868 65.9273 63.7837 65.3434 64.6809C65.3169 64.7214 65.2958 64.7653 65.2723 64.8077C65.2631 64.8145 65.2541 64.8211 65.2449 64.8279C64.8933 64.8308 64.5413 64.8228 64.1903 64.8388C63.5399 64.8682 62.8899 64.8153 62.2397 64.8364L62.2402 64.8359Z" fill="#A6A6A6"/>
<path d="M54.0641 63.9591C54.056 63.9511 54.0478 63.9429 54.0398 63.9349C54.0745 63.6236 54.099 63.3114 54.1548 63.0025C54.2344 62.5627 54.3355 62.1277 54.4457 61.6951C54.477 61.5721 54.4651 61.503 54.3309 61.4848C54.6706 61.4848 55.0102 61.4848 55.3499 61.4848C55.7684 61.4848 56.1881 61.5015 56.6053 61.479C56.8899 61.4635 57.1767 61.487 57.4593 61.4375C57.4321 61.487 57.4059 61.5372 57.3776 61.5862C57.1733 61.9407 56.9763 62.2992 56.8768 62.6993C56.8011 63.003 56.7681 63.308 56.9998 63.5717C57.1226 63.7156 57.2885 63.7689 57.4676 63.7874C57.6245 63.8036 57.6731 63.768 57.7369 63.626C57.7677 63.5574 57.7466 63.529 57.6755 63.5249C57.6042 63.5208 57.5306 63.537 57.4622 63.503C57.7645 63.5242 58.051 63.4569 58.3305 63.3492C58.3829 63.4392 58.2922 63.4873 58.2699 63.5554C58.2599 63.5858 58.2386 63.6156 58.2689 63.6445C58.2927 63.6675 58.3228 63.6607 58.3487 63.6498C58.4118 63.6234 58.4766 63.5989 58.5353 63.5644C58.7308 63.4497 58.9319 63.3958 59.1583 63.4652C59.2696 63.4992 59.3863 63.522 59.5023 63.5336C59.8497 63.5683 60.201 63.6852 60.5411 63.4982C60.2665 63.8767 59.9603 64.2282 59.635 64.5635C59.6042 64.595 59.5765 64.6297 59.5474 64.6629C59.5314 64.6642 59.5156 64.6654 59.4996 64.6666C58.9846 64.6413 58.4732 64.5771 57.9605 64.5244C57.4118 64.4679 56.8647 64.397 56.3186 64.3206C55.6446 64.2265 54.9726 64.1176 54.303 63.996C54.2239 63.9817 54.1441 63.9715 54.0645 63.9594L54.0641 63.9591Z" fill="#A7A7A7"/>
<path d="M57.7514 56.4633C57.4118 56.3842 57.0949 56.2411 56.7771 56.1047C56.1604 55.8403 55.5753 55.5172 55.041 55.1079C54.8205 54.9388 54.6092 54.7585 54.4275 54.5465C54.4309 54.4446 54.4998 54.3759 54.5604 54.3087C54.8431 53.9946 55.1337 53.6877 55.4537 53.4101C55.5112 53.3604 55.5546 53.3526 55.6029 53.4196C55.626 53.4514 55.6602 53.4754 55.6893 53.5028C55.9149 53.8269 56.1485 54.1406 56.4503 54.4048C56.8933 54.7925 57.3754 55.1171 57.8929 55.3927C58.1275 55.5176 58.3647 55.637 58.6008 55.759C58.4601 55.7435 58.3419 55.7894 58.2347 55.8806C58.0908 56.0031 57.9416 56.1191 57.7953 56.2384C57.7187 56.3008 57.6743 56.3704 57.7514 56.4633V56.4633Z" fill="#8A8A8A"/>
<path d="M58.33 63.3517C58.6161 63.2108 58.8645 63.0153 59.1098 62.8151C59.1127 62.8697 59.094 62.917 59.0663 62.9631C59.0144 63.0495 58.9657 63.1375 58.9159 63.2251C58.904 63.2462 58.8885 63.2719 58.9062 63.2921C58.9331 63.3226 58.9581 63.2938 58.9788 63.2778C59.0615 63.2139 59.1471 63.1528 59.224 63.0822C59.7522 62.5982 60.1656 62.0257 60.5115 61.4019C60.5436 61.3442 60.6037 61.2964 60.5887 61.2183C60.8628 61.1535 61.1447 61.1428 61.4223 61.1006C61.6127 61.0715 61.8044 61.0514 61.9956 61.0273C61.6921 61.6916 61.3364 62.3272 60.938 62.9388C60.8128 63.131 60.6734 63.3139 60.5404 63.5009C60.2003 63.688 59.849 63.5711 59.5016 63.5364C59.3856 63.5247 59.2689 63.5019 59.1576 63.468C58.9312 63.3986 58.7298 63.4524 58.5345 63.5672C58.4758 63.6016 58.4111 63.6261 58.348 63.6526C58.322 63.6635 58.2919 63.67 58.2682 63.6472C58.2381 63.6181 58.2594 63.5883 58.2691 63.5582C58.2915 63.49 58.3822 63.442 58.3298 63.352L58.33 63.3517Z" fill="#ADADAD"/>
<path d="M59.1576 52.8546C59.0759 52.7755 58.9944 52.6967 58.9126 52.6176C58.9788 52.341 58.7285 51.972 58.4308 51.9077C58.358 51.8592 58.2852 51.8107 58.2125 51.7622C58.1365 51.6362 58.1358 51.6343 58.2721 51.5841C58.4308 51.5256 58.5931 51.4761 58.7501 51.4138C58.8864 51.3597 59.0201 51.341 59.1586 51.3982C59.3064 51.4773 59.4233 51.5969 59.5465 51.7059C60.4177 52.4754 61.1111 53.3879 61.6866 54.3935C61.7203 54.4526 61.7666 54.506 61.7788 54.5764C61.681 54.4844 61.6012 54.3779 61.5425 54.2586C61.4859 54.1436 61.3991 54.1023 61.2773 54.1166C61.1055 54.1368 60.9325 54.1504 60.762 54.178C60.6608 54.1943 60.5866 54.1741 60.5116 54.1014C60.3154 53.9102 60.1948 53.6649 60.0342 53.4485C59.777 53.1018 59.5075 52.7673 59.1838 52.4795C59.1579 52.4565 59.1312 52.4135 59.0931 52.4373C59.047 52.4662 59.0841 52.5099 59.0934 52.546C59.1193 52.6479 59.2054 52.7372 59.1572 52.8546H59.1576Z" fill="#898989"/>
<path d="M58.2127 51.7571C58.2855 51.8056 58.3583 51.8541 58.431 51.9026C58.4349 51.9722 58.4708 52.0317 58.4934 52.095C58.5174 52.1617 58.5594 52.225 58.5245 52.3005C58.1533 52.0511 57.7629 51.8429 57.3216 51.7461C57.0446 51.6852 56.7653 51.6489 56.4805 51.6831C56.0479 51.735 55.7544 52.0516 55.735 52.4856C55.7117 53.0053 55.9412 53.4233 56.2651 53.8C56.7876 54.408 57.4521 54.8284 58.1523 55.1977C58.7755 55.5264 59.4274 55.786 60.1041 55.9837C60.123 56.0451 60.1421 56.1062 60.1606 56.1676C60.1897 56.2639 60.1693 56.2897 60.0708 56.2661C59.7848 56.1977 59.5065 56.1043 59.2312 56.0022C59.0201 55.9238 58.811 55.8408 58.6011 55.76C58.3651 55.638 58.1278 55.5187 57.8932 55.3937C57.3757 55.1181 56.8934 54.7935 56.4507 54.4058C56.1489 54.1416 55.9152 53.8282 55.6896 53.5038C55.5957 53.2631 55.4953 53.0264 55.4552 52.767C55.3694 52.2117 55.6282 51.6925 56.1127 51.4873C56.405 51.3633 56.7141 51.3779 57.0208 51.4062C57.44 51.4451 57.8308 51.5872 58.2125 51.7573L58.2127 51.7571Z" fill="#7B7B7B"/>
<path d="M61.3467 57.9191C61.2933 57.8752 61.237 57.8354 61.1715 57.8124C60.8733 57.7078 60.5652 57.6414 60.2554 57.5853C60.17 57.5698 60.0538 57.5392 60.0016 57.6399C59.9522 57.736 60.0468 57.8022 60.1016 57.8677C60.1972 57.9825 60.303 58.0887 60.3971 58.2044C60.523 58.3595 60.5291 58.5276 60.433 58.7015C60.3374 58.8743 60.2025 59.0133 60.0533 59.138C59.9388 59.2338 59.8238 59.333 59.6957 59.4075C59.1814 59.7064 58.802 60.1463 58.4286 60.5939C58.2032 60.8639 58.005 61.1543 57.7973 61.4376C57.693 61.4299 57.586 61.46 57.4844 61.4144C57.8558 60.8251 58.2874 60.2828 58.7682 59.7794C58.9929 59.5443 59.2513 59.3515 59.5264 59.1804C59.7341 59.0514 59.9126 58.8886 60.0781 58.7108C60.2532 58.5223 60.2525 58.4616 60.0812 58.2726C60.0053 58.1889 59.9279 58.1067 59.8549 58.0205C59.7896 57.9432 59.7292 57.8619 59.7178 57.7556C59.6865 57.4596 59.8292 57.2922 60.1346 57.293C60.4197 57.2937 60.6906 57.3871 60.9648 57.4533C61.0744 57.4798 61.1836 57.5133 61.2875 57.5567C61.5104 57.6496 61.524 57.7476 61.3462 57.9187L61.3467 57.9191Z" fill="#7B7B7B"/>
<path d="M60.5892 61.2188C60.6042 61.2969 60.544 61.3444 60.512 61.4024C60.166 62.0261 59.7526 62.5987 59.2245 63.0827C59.1476 63.1533 59.062 63.2142 58.9792 63.2782C58.9586 63.2942 58.9336 63.3231 58.9067 63.2925C58.889 63.2724 58.9045 63.2467 58.9164 63.2256C58.9661 63.138 59.0149 63.0499 59.0668 62.9636C59.0947 62.9172 59.1131 62.8699 59.1102 62.8156C59.5833 62.3415 59.9657 61.8 60.2956 61.2197C60.3936 61.2195 60.4914 61.2192 60.5894 61.2188H60.5892Z" fill="#BDBDBD"/>
<path d="M57.4848 61.4143C57.5862 61.4602 57.6934 61.4298 57.7977 61.4376C57.633 61.7185 57.4566 61.9929 57.3227 62.2911C57.2218 62.516 57.1352 62.7445 57.1087 62.992C57.0951 63.1196 57.1124 63.2402 57.1754 63.353C57.0956 63.4095 57.0672 63.507 56.9998 63.5735C56.7681 63.3098 56.8013 63.0048 56.8768 62.7011C56.9763 62.3013 57.1735 61.9425 57.3775 61.588C57.4057 61.539 57.4321 61.489 57.4593 61.4393C57.4678 61.4308 57.4763 61.4226 57.4848 61.4141V61.4143Z" fill="#818181"/>
<path d="M42.3219 60.9799C41.9664 60.8564 41.6108 60.7329 41.2554 60.6094C41.2549 60.6009 41.2544 60.5922 41.2542 60.5837C41.5023 60.3445 41.7508 60.1055 41.9989 59.8663C42.0509 59.8163 42.1025 59.7661 42.1542 59.7162C42.1778 59.7079 42.201 59.6997 42.2246 59.6914C42.6142 59.8117 43.0118 59.903 43.407 60.0019C43.7241 60.0815 44.0436 60.1516 44.3624 60.2249C44.4095 60.2358 44.4575 60.2414 44.5053 60.2494C44.2651 60.583 44.0247 60.9163 43.7853 61.2504C43.7479 61.3025 43.7003 61.3482 43.6797 61.4112C43.664 61.4108 43.6484 61.4105 43.6327 61.41C43.1957 61.2666 42.7588 61.1233 42.3219 60.9796V60.9799Z" fill="#868686"/>
<path d="M51.4205 61.3401C51.854 61.3711 52.2876 61.4032 52.7211 61.4328C52.7968 61.4379 52.8732 61.4335 52.9564 61.4478C52.2492 62.0291 51.6568 62.7176 51.0335 63.3758C50.6852 63.3178 50.3441 63.2271 49.9991 63.1533C49.9639 63.1458 49.928 63.1412 49.8926 63.1351C49.8914 63.1286 49.8906 63.122 49.8901 63.1155C50.1512 62.8539 50.436 62.6174 50.6813 62.3387C50.9557 62.0269 51.2252 61.7137 51.4183 61.3425L51.4203 61.3398L51.4205 61.3401Z" fill="#9C9C9C"/>
<path d="M49.143 60.9024C48.9458 61.1527 48.7384 61.3946 48.5523 61.654C48.3279 61.9667 48.1394 62.2991 47.9773 62.6474C47.8875 62.6227 47.7978 62.5977 47.708 62.573C47.9424 62.0007 48.29 61.4989 48.6777 61.0225C48.6777 61.0225 48.6792 61.0217 48.6789 61.0217C48.7937 61.0661 48.8975 61.0513 48.9921 60.9689C49.0343 60.9322 49.0824 60.9012 49.1428 60.9024H49.143Z" fill="#858585"/>
<path d="M49.8906 63.1106C49.8911 63.1171 49.8921 63.1237 49.893 63.1302C49.6968 63.2409 49.5478 63.4148 49.3571 63.5332C49.2756 63.5839 49.196 63.6378 49.1155 63.6902C49.0289 63.6154 49.0929 63.499 49.0393 63.4153C49.2096 63.2872 49.3799 63.1591 49.5505 63.0312C49.6589 63.0788 49.7759 63.09 49.8906 63.1108V63.1106Z" fill="#6E6E6E"/>
<path d="M49.0389 63.418C49.0923 63.5019 49.0285 63.6181 49.1151 63.6928C48.9531 63.8316 48.7612 63.9141 48.56 63.9733C48.4538 64.0046 48.3994 63.9595 48.3885 63.8505C48.3841 63.8064 48.3834 63.7622 48.3633 63.7212C48.5726 63.7059 48.742 63.5936 48.9152 63.4917C48.9565 63.4675 48.9977 63.4427 49.0389 63.4182V63.418Z" fill="#5F5F5F"/>
<path d="M49.1431 60.9052C49.0827 60.9042 49.0346 60.935 48.9924 60.9716C48.8978 61.0541 48.794 61.0687 48.6792 61.0245C49.13 60.469 49.6343 59.9651 50.1593 59.4801C50.5805 59.091 51.0206 58.7256 51.4898 58.3961C51.6414 58.2896 51.7989 58.1914 51.9536 58.0895C52.0708 58.0383 52.1875 57.9859 52.3052 57.9359C52.4626 57.8692 52.6196 57.8905 52.7739 57.9476C52.9059 57.9963 52.9158 58.0473 52.8115 58.1392C52.779 58.1681 52.7392 58.1887 52.7026 58.213C52.5245 58.1514 52.362 58.1962 52.2028 58.2814C51.8202 58.4869 51.4733 58.7443 51.1356 59.0141C50.4332 59.5747 49.7804 60.188 49.1867 60.8632C49.1734 60.8782 49.1576 60.8911 49.1431 60.9049V60.9052Z" fill="#707070"/>
<path d="M70.4643 62.7493C70.3828 62.6141 70.2646 62.5729 70.0907 62.6202C69.9473 62.659 69.8124 62.7252 69.6644 62.7493C69.6161 62.7476 69.5676 62.7437 69.5193 62.7449C69.374 62.7485 69.3592 62.7303 69.4153 62.5947C69.6775 61.9613 69.8592 61.3045 69.9871 60.6323C70.0764 60.1638 70.1242 59.6907 70.1501 59.215C70.1525 59.1713 70.1654 59.1281 70.1737 59.085C70.3476 59.009 70.5269 58.9472 70.7081 58.8906C70.7013 59.2259 70.7142 59.5602 70.7802 59.8897C70.8214 60.0959 70.8806 60.2977 70.9968 60.477C71.1164 60.6614 71.2729 60.781 71.507 60.7594C71.6218 60.7497 71.7215 60.6912 71.8299 60.6609C71.9185 60.6362 71.949 60.6631 71.9338 60.756C71.7727 61.7311 71.506 62.675 71.104 63.5792C71.0254 63.7558 70.94 63.9295 70.8539 64.1028C70.8187 64.1736 70.7991 64.2452 70.8039 64.3235C70.6099 64.3483 70.4155 64.373 70.2214 64.398C70.2127 63.9834 70.3224 63.5909 70.4483 63.2022C70.4973 63.0511 70.5029 62.9019 70.4643 62.7495V62.7493Z" fill="#989898"/>
<path d="M74.4914 58.0368C74.8599 57.7284 75.2554 57.4587 75.6707 57.2177C75.9461 57.0579 76.2292 56.9123 76.524 56.791C76.5645 56.7743 76.6077 56.7636 76.6496 56.75C76.6741 56.9649 76.7003 57.1799 76.7227 57.3951C76.7343 57.5069 76.7399 57.6193 76.7477 57.7316C76.7527 57.8058 76.7375 57.8757 76.6991 57.94C76.5133 58.0103 76.342 58.1083 76.1758 58.2163C75.6916 58.5312 75.2843 58.9342 74.8934 59.3534C74.7433 59.5145 74.5928 59.6807 74.4917 59.8813C74.3873 59.991 74.3524 60.1353 74.2976 60.2695C74.277 60.2251 74.2872 60.1817 74.3049 60.1402C74.4116 59.8881 74.4041 59.6183 74.416 59.3539C74.4293 59.0514 74.4203 58.7481 74.4184 58.4451C74.4174 58.3039 74.4092 58.1627 74.4917 58.0368H74.4914Z" fill="#8B8B8B"/>
<path d="M76.7721 60.1231C76.4574 60.3739 76.144 60.6262 75.8002 60.8378C75.7521 60.8674 75.7044 60.8972 75.6566 60.927C75.2318 61.1939 74.7917 61.4307 74.3164 61.5964C74.2786 61.6095 74.239 61.6177 74.2004 61.6284C74.2941 61.3851 74.3157 61.1274 74.3492 60.8725C74.3613 60.7798 74.4001 60.7126 74.4918 60.6825C74.5369 60.7031 74.585 60.7053 74.6335 60.7072C74.9401 60.7194 75.1796 60.5563 75.4171 60.3984C75.9581 60.0386 76.4176 59.5898 76.8208 59.082C76.8046 59.429 76.7881 59.7761 76.7718 60.1231H76.7721Z" fill="#8B8B8B"/>
<path d="M74.6608 60.4461C74.9694 60.3996 75.2052 60.2118 75.4446 60.0352C75.8554 59.7319 76.2069 59.3656 76.5456 58.9861C76.6397 58.9857 76.6926 58.9119 76.7615 58.8661C76.8704 58.794 76.9488 58.6759 77.0876 58.6484C77.0104 58.8015 76.9211 58.9468 76.8209 59.0859C76.4177 59.5936 75.9582 60.0424 75.4172 60.4022C75.1797 60.5602 74.9403 60.7232 74.6336 60.7111C74.5849 60.7091 74.5371 60.7072 74.4919 60.6863C74.4728 60.6208 74.5242 60.5932 74.5625 60.5611C74.6018 60.5279 74.6499 60.5034 74.6608 60.4464V60.4461Z" fill="#A7A7A7"/>
<path d="M75.1756 59.4495C74.9767 59.6909 74.7622 59.9206 74.6137 60.1998C74.5295 60.2137 74.4735 60.2758 74.4094 60.3224C74.3374 60.3748 74.3008 60.3658 74.2976 60.2724C74.3527 60.1382 74.3876 59.9939 74.4917 59.8842C74.5422 59.9092 74.5756 59.8764 74.6101 59.8488C74.704 59.7731 74.7942 59.6918 74.8925 59.6222C74.9825 59.5584 75.0502 59.4558 75.1756 59.4492V59.4495Z" fill="#808080"/>
<path d="M75.1756 59.4491C75.0502 59.4554 74.9825 59.5583 74.8925 59.6221C74.7942 59.6917 74.7042 59.773 74.6101 59.8487C74.5756 59.8763 74.5422 59.9091 74.4917 59.8841C74.5929 59.6835 74.7433 59.517 74.8935 59.3562C75.2843 58.937 75.6916 58.534 76.1759 58.2191C76.342 58.1111 76.5133 58.0131 76.6992 57.9428C76.7664 57.9471 76.8316 57.9103 76.8996 57.9336C76.9248 57.9423 76.9597 57.9403 76.9663 57.9741C76.9723 58.0056 76.9459 58.024 76.9245 58.041C76.8561 58.0949 76.7807 58.1415 76.7472 58.2283C76.3488 58.3906 76.0267 58.6645 75.7093 58.9435C75.5254 59.1051 75.3532 59.2803 75.1756 59.4491V59.4491Z" fill="#707070"/>
<path d="M77.0874 58.6467C76.9489 58.6743 76.8705 58.7922 76.7613 58.8643C76.6922 58.9099 76.6393 58.9839 76.5454 58.9844C76.6832 58.7925 76.8237 58.602 76.9115 58.3798C76.9911 58.3798 77.0384 58.3192 77.0981 58.2816C77.1269 58.2634 77.1529 58.2199 77.19 58.2469C77.2216 58.2697 77.2092 58.3138 77.2019 58.3483C77.1796 58.4538 77.1522 58.5576 77.0872 58.6469L77.0874 58.6467Z" fill="#999999"/>
<path d="M28.3471 75.5571C28.2508 75.5913 28.1618 75.6357 28.106 75.7272C28.0359 75.5499 28.0368 75.3664 28.1138 75.1986C28.1892 75.0336 28.3571 74.9654 28.5187 74.9023C28.5075 74.9843 28.4532 75.0474 28.4228 75.1214C28.3651 75.2616 28.3394 75.4062 28.3474 75.5571H28.3471Z" fill="#5D5D5D"/>
<path d="M51.1253 61.2882C51.1365 61.2623 51.1477 61.2363 51.1591 61.2106C51.2614 60.9835 51.2471 60.8809 51.0613 60.7028C50.925 60.5721 50.8667 60.4209 50.8844 60.2351C50.8975 60.0954 50.9594 59.9816 51.0567 59.884C51.1067 59.9158 51.1394 59.8799 51.1746 59.8537C51.3199 59.7453 51.4701 59.6422 51.6096 59.5267C51.736 59.4219 51.8876 59.3447 51.9774 59.1987C52.1601 59.0621 52.343 58.9255 52.5257 58.7889C52.6572 58.7678 52.7382 58.6628 52.8435 58.598C52.8918 58.5682 52.9471 58.4876 52.9946 58.5332C53.0419 58.5788 52.9808 58.6514 52.9485 58.7052C52.8013 58.9503 52.5803 59.1196 52.3507 59.279C52.0426 59.4932 51.7268 59.6963 51.4296 59.9258C51.3915 59.9554 51.3544 59.9867 51.3199 60.0206C51.1166 60.2205 51.111 60.3236 51.3027 60.5294C51.5298 60.7732 51.5421 61.0447 51.4211 61.3375L51.4191 61.3402C51.3185 61.3397 51.2188 61.3334 51.1258 61.2885L51.1253 61.2882Z" fill="#939393"/>
<path d="M58.5246 52.3002C58.5595 52.2248 58.5173 52.1617 58.4935 52.0947C58.4707 52.0314 58.435 51.972 58.4312 51.9023C58.7288 51.9666 58.9792 52.3356 58.913 52.6122C58.7837 52.5081 58.6541 52.4043 58.5248 52.3002H58.5246Z" fill="#868686"/>
<path d="M56.9998 63.576C57.0672 63.5095 57.0956 63.412 57.1754 63.3555C57.2557 63.4348 57.3484 63.4908 57.4622 63.5073C57.5306 63.5413 57.6041 63.5251 57.6754 63.5292C57.7465 63.5333 57.7676 63.5617 57.7368 63.6303C57.6732 63.7723 57.6245 63.8079 57.4675 63.7917C57.2885 63.7732 57.1225 63.7196 56.9998 63.576V63.576Z" fill="#949494"/>
<path d="M51.1253 61.2891C51.2182 61.3339 51.3179 61.3403 51.4186 61.3407C51.2255 61.7119 50.9559 62.0249 50.6816 62.3369C50.4363 62.6156 50.1517 62.8522 49.8904 63.1137C49.7757 63.0928 49.6587 63.0819 49.5503 63.0341C49.8011 62.8005 50.0603 62.5761 50.299 62.3291C50.6085 62.0091 50.8958 61.6724 51.1253 61.2891V61.2891Z" fill="#B7B7B7"/>
<path d="M51.9773 59.1992C51.8876 59.3453 51.7357 59.4227 51.6095 59.5272C51.47 59.6429 51.3201 59.7458 51.1745 59.8543C51.1394 59.8805 51.1066 59.9161 51.0566 59.8846C51.3322 59.6141 51.6537 59.4054 51.9771 59.1992H51.9773Z" fill="#898989"/>
</g>
<path d="M206.896 65.5341C205.062 67.9862 200.725 68.7463 198.139 67.0631C197.184 66.4398 196.674 65.5691 196.692 64.3896C197.402 63.8741 198.133 64.2091 198.768 64.0955C199.983 65.9098 201.124 66.4282 202.942 66.0059C203.62 65.8487 204.296 65.6011 204.302 64.7391C204.307 63.9353 203.672 63.6965 203.041 63.5684C201.809 63.3179 200.551 63.1752 199.327 62.8898C198.209 62.6277 197.219 62.1239 196.922 60.8483C196.607 59.4854 197.146 58.1953 198.495 57.5953C200.588 56.6634 202.746 56.7071 204.82 57.674C205.775 58.1195 206.419 58.9146 206.448 60.129C205.798 60.5891 205.073 60.3416 204.214 60.3736C203.565 58.8447 202.213 58.6729 200.731 58.8622C200.079 58.9466 199.432 59.1709 199.377 59.9368C199.316 60.7668 200.023 60.9473 200.641 61.0697C201.544 61.2502 202.458 61.358 203.37 61.4832C204.817 61.6812 206.075 62.1967 206.893 63.4926V65.5312L206.896 65.5341Z" fill="#CECECE"/>
<path d="M161.329 67.4465V57.4313C162.849 57.1663 164.299 57.341 165.735 57.3032C166.606 57.2799 167.482 57.2886 168.353 57.3119C169.483 57.341 170.511 57.6789 170.997 58.7768C171.504 59.9155 171.382 61.0513 170.563 62.0531C170.441 62.2016 170.304 62.3385 170.118 62.5452C171.559 63.8849 170.863 65.7283 171.344 67.3592C170.552 67.7436 169.821 67.6679 169.104 67.4495C168.659 66.8 168.79 66.1011 168.737 65.4342C168.627 64.0683 168.178 63.6199 166.839 63.5878C165.825 63.5645 164.812 63.582 163.752 63.582C163.3 64.8605 163.74 66.1448 163.443 67.3941C162.796 67.7378 162.144 67.6213 161.332 67.4465H161.329ZM163.661 61.7327C165.074 61.7997 166.408 61.8696 167.741 61.6949C168.478 61.5988 168.828 61.1299 168.822 60.4018C168.819 59.7378 168.499 59.2398 167.837 59.1816C166.422 59.0564 165.001 59.0418 163.609 59.1903C163.53 60.1048 163.484 60.8183 163.658 61.7298L163.661 61.7327Z" fill="#CECECE"/>
<path d="M132.582 57.0117C132.718 57.0205 133.208 57.0147 133.685 57.0816C136.423 57.4602 138.124 59.3328 138.255 62.0878C138.392 65.0146 136.956 67.0211 134.224 67.6764C132.882 67.9997 131.524 67.9938 130.182 67.688C127.637 67.1085 126.195 65.3233 126.119 62.7139C126.014 59.0328 128.19 57.003 132.582 57.0117V57.0117ZM132.209 66.0776C134.431 66.0572 135.832 64.6477 135.817 62.4373C135.803 60.2094 134.413 58.8261 132.188 58.8261C129.862 58.8261 128.481 60.2123 128.516 62.5217C128.548 64.7176 129.984 66.098 132.209 66.0776V66.0776Z" fill="#CECECE"/>
<path d="M123.9 62.5343C125.35 63.9875 124.75 65.7436 125.129 67.3104C124.337 67.7356 123.644 67.6336 122.913 67.4618C122.476 66.7279 122.718 65.9154 122.555 65.1728C122.281 63.9409 121.955 63.6118 120.699 63.5798C119.692 63.5536 118.681 63.574 117.746 63.574C117.246 64.27 117.458 64.9194 117.414 65.5281C117.368 66.1484 117.496 66.7862 117.243 67.3686C116.605 67.721 115.99 67.6103 115.239 67.4851V57.5136C115.778 57.1204 116.427 57.3155 117.036 57.3039C118.539 57.2748 120.044 57.2981 121.547 57.2923C122.849 57.2893 124.171 57.3796 124.788 58.7367C125.403 60.0909 125.179 61.3985 123.903 62.5314L123.9 62.5343ZM117.578 61.6577C118.946 61.8761 120.28 61.8441 121.608 61.6752C122.325 61.5849 122.697 61.1189 122.68 60.3734C122.665 59.6949 122.304 59.2376 121.663 59.1765C120.292 59.0425 118.914 59.0454 117.56 59.1852C117.371 60.1055 117.339 60.851 117.578 61.6577Z" fill="#CECECE"/>
<path d="M189.295 63.3575C189.117 64.1816 189.12 64.8515 189.295 65.6902C191.4 65.9756 193.576 65.6552 195.701 65.862C195.865 66.3726 195.893 66.9289 195.786 67.5307C192.935 67.688 190.052 67.6035 187.206 67.5773C186.749 66.4445 186.682 58.8988 187.122 57.3233C189.961 57.3087 192.842 57.2301 195.667 57.3757C195.981 57.964 195.966 58.4183 195.693 58.9978C193.648 59.3007 191.517 58.9454 189.379 59.2046C189.047 59.8686 189.126 60.5122 189.332 61.281C191.33 61.5606 193.366 61.249 195.259 61.4616C195.777 61.9858 195.591 62.4576 195.533 63.0663C193.453 63.4827 191.313 62.9643 189.295 63.3633V63.3575Z" fill="#CECECE"/>
<path d="M153.25 63.1609C152.953 64.119 152.999 64.8238 153.151 65.7004C155.279 65.9508 157.452 65.6771 159.572 65.8518C159.751 66.3702 159.781 66.9274 159.662 67.5234C156.768 67.7098 153.844 67.5671 150.786 67.6137V57.3888C153.701 57.2141 156.578 57.3073 159.4 57.3335C159.834 57.9101 159.793 58.3994 159.491 59.0051C157.44 59.2963 155.309 58.9207 153.197 59.2235C152.961 59.9021 152.99 60.5107 153.165 61.2446C155.134 61.632 157.175 61.1689 159.129 61.498C159.598 62.0106 159.444 62.5027 159.266 63.1638H153.253L153.25 63.1609Z" fill="#CECECE"/>
<path d="M106.433 63.8808C106.086 64.5098 106.258 65.101 106.22 65.6689C106.182 66.2397 106.281 66.8221 106.086 67.4221C105.416 67.7162 104.779 67.6026 104.045 67.4891V57.3603C106.567 57.3603 108.978 57.2671 111.375 57.3981C112.714 57.4709 113.565 58.6824 113.678 60.1647C113.801 61.7461 113.044 63.0362 111.689 63.5138C110.996 63.7585 110.271 63.7701 109.543 63.7847C108.495 63.8021 107.435 63.6624 106.433 63.8837V63.8808ZM106.404 59.195C106.124 60.0803 106.107 60.9452 106.418 61.8306C107.627 62.0344 108.783 61.9791 109.927 61.9004C110.918 61.8306 111.389 61.2801 111.328 60.4269C111.267 59.5619 110.775 59.1163 109.916 59.1163C108.763 59.1163 107.606 59.0202 106.404 59.195V59.195Z" fill="#CECECE"/>
<path d="M142.09 63.89C141.711 65.0811 142.134 66.2751 141.77 67.4138C141.085 67.6992 140.445 67.6439 139.664 67.4371V57.3898C142.183 57.2413 144.638 57.1685 147.079 57.416C148.392 57.5471 149.193 58.6741 149.304 60.0895C149.432 61.7029 148.817 62.8823 147.548 63.4386C146.869 63.7356 146.147 63.7764 145.416 63.788C144.318 63.8055 143.208 63.6861 142.09 63.8929V63.89ZM142.084 61.8514C143.363 61.9941 144.647 62.0378 145.928 61.8427C146.648 61.732 146.983 61.2311 146.956 60.5001C146.93 59.7954 146.648 59.2275 145.905 59.175C144.629 59.0848 143.339 58.977 142.038 59.2741C141.889 60.1448 141.845 60.9399 142.087 61.8543L142.084 61.8514Z" fill="#CECECE"/>
<path d="M175.479 59.2807C174.238 58.9283 173.152 59.2836 172.083 58.972C171.783 58.4856 171.83 57.9905 172.037 57.3906H181.542C181.918 57.9119 181.88 58.4012 181.557 58.9924C180.488 59.2865 179.303 58.9254 178.007 59.2719V67.2981C177.194 67.7291 176.539 67.5951 175.689 67.502C175.365 64.7761 175.723 62.0327 175.476 59.2778L175.479 59.2807Z" fill="#CECECE"/>
<path d="M93.9619 53.1137C94.5473 52.9215 95.0074 52.8691 95.5433 53.204V73.5082C94.9929 73.8198 94.5327 73.7849 93.9619 73.5752V53.1137Z" fill="#CECECE"/>
<path d="M182.812 57.463C183.52 57.2358 184.128 57.2358 184.859 57.4659V67.3675C184.184 67.7403 183.569 67.5539 182.812 67.5626V57.463Z" fill="#CECECE"/>
</g>
<defs>
<clipPath id="clip0_503_3669">
<rect width="231" height="127" fill="white"/>
</clipPath>
<clipPath id="clip1_503_3669">
<rect width="61.5759" height="29.5493" fill="white" transform="translate(25 49)"/>
</clipPath>
</defs>
</svg>
