<svg width="216" height="207" viewBox="0 0 216 207" fill="none" xmlns="http://www.w3.org/2000/svg">
<g clip-path="url(#clip0_5527_1034)">
<rect width="216" height="206.929" fill="#151517"/>
<path d="M113.925 81.0771L115.317 81.1014L119.098 77.32L119.281 75.7177C116.276 73.0447 112.322 71.418 107.994 71.418C100.159 71.418 93.5448 76.7494 91.5859 83.9715C91.9996 83.6832 92.8817 83.8985 92.8817 83.8985L100.44 82.6551C100.44 82.6551 100.829 82.0103 101.024 82.0504C102.646 80.2756 104.884 79.1867 107.282 79.0059C109.68 78.825 112.056 79.5658 113.926 81.0771H113.925Z" fill="white"/>
<path d="M124.422 83.9853C123.554 80.7887 121.771 77.9151 119.293 75.7168L113.937 81.0726C115.036 81.9559 115.923 83.0746 116.533 84.3462C117.142 85.6178 117.459 87.0099 117.459 88.42V89.3654C120.066 89.3654 122.18 91.486 122.18 94.086C122.18 96.686 120.059 98.8067 117.459 98.8067H108.016L107.07 99.7557V105.423L108.016 106.363H117.459C120.712 106.355 123.828 105.058 126.127 102.758C128.426 100.457 129.721 97.3396 129.727 94.0872C129.722 89.9068 127.615 86.2032 124.41 83.9853H124.422Z" fill="white"/>
<path d="M98.5508 106.373H107.992V98.8148H98.5508C97.8804 98.8151 97.2177 98.6711 96.6078 98.3926L95.2451 98.8099L91.4637 102.591L91.1328 103.869C93.2603 105.502 95.8697 106.384 98.552 106.375L98.5508 106.373Z" fill="white"/>
<path d="M98.5467 81.8125C95.2911 81.8176 92.1704 83.1132 89.8683 85.4152C87.5663 87.7172 86.2708 90.838 86.2656 94.0935C86.2656 95.9892 86.7051 97.8592 87.5495 99.5564C88.3939 101.254 89.6203 102.732 91.1323 103.876L96.6073 98.4005C95.778 98.0274 95.0741 97.4227 94.5802 96.659C94.0864 95.8954 93.8236 95.0054 93.8236 94.096C93.8236 91.4899 95.9442 89.3753 98.5442 89.3753C99.4533 89.3769 100.343 89.6403 101.106 90.1339C101.869 90.6276 102.474 91.3306 102.849 92.159L108.324 86.684C106.078 83.7275 102.532 81.8174 98.5418 81.8174L98.5467 81.8125Z" fill="white"/>
<path d="M49.5951 130.189C47.0158 130.189 44.8014 129.277 42.9351 127.452C41.0687 125.627 40.1367 123.432 40.1367 120.872C40.1367 118.312 41.0675 116.117 42.9351 114.292C44.8026 112.467 47.0194 111.554 49.5951 111.554C50.7767 111.536 51.9498 111.755 53.0463 112.195C54.1427 112.636 55.1404 113.291 55.9814 114.121L54.1844 115.918C52.9547 114.729 51.3043 114.075 49.5939 114.099C47.7324 114.099 46.1507 114.756 44.8537 116.078C44.2228 116.705 43.7253 117.453 43.3914 118.277C43.0574 119.101 42.8939 119.984 42.9107 120.873C42.9107 122.754 43.5556 124.349 44.8537 125.667C45.4638 126.307 46.2001 126.814 47.016 127.154C47.832 127.495 48.7098 127.663 49.5939 127.647C51.4894 127.647 53.0553 127.038 54.3024 125.78C55.0324 125.05 55.519 123.955 55.6894 122.574H49.5987V120.029H58.1689C58.2602 120.482 58.2906 121.002 58.2906 121.611C58.2906 124.112 57.557 126.095 56.0848 127.566C54.4155 129.312 52.2523 130.182 49.5817 130.182L49.5951 130.189ZM69.5119 128.486C68.3439 129.63 66.9204 130.189 65.239 130.189C63.5576 130.189 62.1316 129.618 60.9661 128.486C59.8005 127.355 59.2165 125.915 59.2165 124.203C59.2165 122.492 59.8005 121.064 60.9661 119.921C62.1316 118.777 63.5576 118.217 65.239 118.217C66.9204 118.217 68.3464 118.789 69.5119 119.921C70.6775 121.052 71.2615 122.495 71.2615 124.203C71.2615 125.912 70.6775 127.342 69.5119 128.486ZM62.8519 126.807C63.1554 127.137 63.5249 127.399 63.9363 127.577C64.3477 127.755 64.792 127.845 65.2402 127.84C66.1649 127.84 66.9606 127.497 67.6285 126.806C68.2965 126.115 68.6286 125.248 68.6286 124.202C68.6286 123.144 68.3001 122.27 67.6395 121.586C66.9788 120.903 66.1819 120.564 65.2402 120.564C64.7911 120.557 64.3455 120.645 63.9322 120.821C63.5189 120.997 63.1472 121.258 62.8409 121.586C62.1803 122.268 61.8518 123.139 61.8518 124.202C61.8518 125.246 62.1839 126.116 62.8519 126.806V126.807ZM82.6507 128.486C81.4827 129.63 80.0592 130.189 78.3778 130.189C76.6963 130.189 75.2704 129.618 74.1048 128.486C72.9393 127.355 72.3553 125.915 72.3553 124.203C72.3553 122.492 72.9393 121.064 74.1048 119.921C75.2704 118.777 76.6963 118.217 78.3778 118.217C80.0592 118.217 81.4851 118.789 82.6507 119.921C83.8163 121.052 84.4003 122.495 84.4003 124.203C84.4003 125.912 83.8163 127.342 82.6507 128.486ZM75.9907 126.807C76.2942 127.137 76.6637 127.399 77.0751 127.577C77.4865 127.755 77.9308 127.845 78.379 127.84C79.3037 127.84 80.0994 127.497 80.7673 126.806C81.4353 126.115 81.7674 125.248 81.7674 124.202C81.7674 123.144 81.4389 122.27 80.7783 121.586C80.1176 120.903 79.3207 120.564 78.379 120.564C77.9298 120.557 77.4842 120.645 77.071 120.821C76.6577 120.997 76.2859 121.258 75.9797 121.586C75.3191 122.268 74.9906 123.139 74.9906 124.202C74.9906 125.246 75.3227 126.116 75.9907 126.806V126.807ZM91.2878 135.591C89.9556 135.591 88.8338 135.234 87.925 134.521C87.0161 133.808 86.3652 132.983 85.971 132.041L88.2681 131.088C88.509 131.665 88.8764 132.165 89.4032 132.59C89.93 133.014 90.5469 133.225 91.2915 133.225C92.2916 133.225 93.0775 132.921 93.6433 132.316C94.209 131.711 94.495 130.837 94.495 129.7V128.849H94.4037C93.6737 129.757 92.6067 130.214 91.2452 130.214C89.7147 130.214 88.3739 129.63 87.2217 128.464C86.662 127.913 86.2203 127.254 85.9233 126.527C85.6263 125.8 85.4802 125.02 85.4941 124.235C85.48 123.445 85.6258 122.66 85.9227 121.928C86.2196 121.195 86.6614 120.53 87.2217 119.973C88.3715 118.801 89.7159 118.212 91.2452 118.212C91.9266 118.212 92.5446 118.34 93.097 118.599C93.6494 118.859 94.0862 119.176 94.4037 119.552H94.495V118.586H96.9964V129.362C96.9964 131.455 96.4635 133.017 95.3929 134.058C94.3222 135.093 92.9571 135.616 91.289 135.616L91.2878 135.591ZM91.4703 127.839C91.9041 127.846 92.3341 127.758 92.7294 127.579C93.1248 127.4 93.4755 127.136 93.7564 126.806C94.3696 126.116 94.6762 125.257 94.6762 124.224C94.6762 123.18 94.3696 122.307 93.7564 121.608C93.4771 121.275 93.127 121.008 92.7314 120.828C92.3359 120.647 91.9051 120.557 91.4703 120.564C90.5457 120.564 89.7573 120.915 89.1076 121.608C88.4579 122.302 88.1294 123.175 88.1294 124.224C88.1294 125.253 88.4542 126.116 89.1076 126.806C89.7609 127.496 90.5469 127.84 91.4703 127.84V127.839ZM101.449 112.186V129.828H98.8129V112.186H101.449ZM108.676 130.188C106.978 130.188 105.562 129.611 104.425 128.46C103.289 127.31 102.72 125.886 102.72 124.188C102.72 122.431 103.267 120.988 104.367 119.868C104.883 119.325 105.506 118.895 106.197 118.606C106.887 118.316 107.631 118.172 108.38 118.185C109.106 118.185 109.782 118.316 110.403 118.582C110.98 118.819 111.505 119.166 111.948 119.604C112.318 119.972 112.646 120.38 112.926 120.82C113.158 121.196 113.356 121.591 113.518 122.002L113.791 122.684L105.769 126.008C106.377 127.219 107.35 127.827 108.679 127.827C109.891 127.827 110.877 127.275 111.633 126.168L113.677 127.533C113.221 128.215 112.578 128.829 111.745 129.374C110.911 129.919 109.886 130.189 108.674 130.189L108.676 130.188ZM105.335 124.007L110.689 121.781C110.535 121.401 110.258 121.095 109.837 120.861C109.414 120.624 108.935 120.503 108.45 120.511C107.676 120.511 106.954 120.827 106.281 121.463C105.608 122.1 105.283 122.95 105.314 124.009L105.335 124.007ZM127.637 130.188C125.24 130.188 123.233 129.378 121.612 127.755C119.991 126.132 119.179 124.111 119.179 121.686C119.179 119.261 119.989 117.238 121.612 115.617C123.235 113.997 125.241 113.184 127.637 113.184C130.091 113.184 132.085 114.072 133.614 115.842L132.161 117.254C131.066 115.874 129.545 115.185 127.635 115.185C125.858 115.185 124.367 115.784 123.133 116.982C121.899 118.181 121.303 119.747 121.303 121.686C121.303 123.625 121.911 125.195 123.133 126.395C124.354 127.594 125.85 128.192 127.635 128.192C129.588 128.192 131.257 127.403 132.623 125.829L134.077 127.283C133.315 128.192 132.359 128.918 131.278 129.408C130.133 129.935 128.885 130.202 127.624 130.189L127.637 130.188ZM138.047 129.828H135.954V113.553H138.047V129.828ZM141.457 120.022C142.534 118.894 143.89 118.327 145.572 118.327C147.253 118.327 148.61 118.893 149.687 120.022C150.763 121.151 151.301 122.577 151.301 124.262C151.301 125.947 150.766 127.373 149.687 128.502C148.607 129.631 147.253 130.197 145.572 130.197C143.89 130.197 142.534 129.631 141.457 128.502C140.38 127.373 139.843 125.947 139.843 124.262C139.843 122.577 140.378 121.151 141.457 120.022ZM143.014 127.179C143.744 127.913 144.589 128.282 145.569 128.282C146.55 128.282 147.394 127.913 148.124 127.179C148.854 126.446 149.205 125.47 149.205 124.259C149.205 123.049 148.843 122.072 148.124 121.339C147.405 120.607 146.55 120.237 145.569 120.237C144.589 120.237 143.744 120.606 143.014 121.339C142.284 122.073 141.934 123.049 141.934 124.259C141.934 125.47 142.295 126.447 143.014 127.179ZM162.87 129.828H160.869V128.283H160.778C160.461 128.812 159.975 129.265 159.324 129.621C158.673 129.978 157.986 130.181 157.256 130.181C155.86 130.181 154.805 129.757 154.086 128.907C153.367 128.057 153.006 126.92 153.006 125.497V118.676H155.098V125.154C155.098 127.232 156.015 128.268 157.848 128.268C158.258 128.277 158.665 128.187 159.033 128.005C159.401 127.823 159.72 127.555 159.963 127.224C160.503 126.538 160.792 125.688 160.78 124.814V118.676H162.873V129.817L162.87 129.828ZM169.961 130.189C168.522 130.189 167.277 129.62 166.233 128.484C165.189 127.347 164.666 125.938 164.666 124.254C164.666 122.571 165.189 121.162 166.233 120.025C167.277 118.889 168.523 118.32 169.961 118.32C170.808 118.32 171.572 118.502 172.248 118.863C172.925 119.225 173.429 119.681 173.761 120.229H173.852L173.761 118.683V113.549H175.853V129.828H173.852V128.283H173.761C173.429 128.827 172.925 129.283 172.248 129.648C171.573 130.006 170.809 130.188 169.961 130.188V130.189ZM170.302 128.279C170.774 128.286 171.242 128.192 171.675 128.003C172.108 127.815 172.497 127.537 172.814 127.188C173.504 126.461 173.848 125.482 173.848 124.268C173.848 123.054 173.505 122.062 172.814 121.348C172.497 120.998 172.108 120.72 171.675 120.532C171.242 120.344 170.774 120.25 170.302 120.256C169.331 120.256 168.498 120.625 167.8 121.359C167.103 122.092 166.756 123.068 166.756 124.279C166.756 125.489 167.103 126.466 167.8 127.199C168.115 127.549 168.501 127.829 168.932 128.019C169.364 128.209 169.831 128.305 170.302 128.301V128.279Z" fill="white"/>
</g>
<defs>
<clipPath id="clip0_5527_1034">
<rect width="216" height="206.929" fill="white"/>
</clipPath>
</defs>
</svg>
