<svg width="231" height="127" viewBox="0 0 231 127" fill="none" xmlns="http://www.w3.org/2000/svg">
<g clip-path="url(#clip0_580_169)">
<g clip-path="url(#clip1_580_169)">
<path d="M70.8363 96.2736C70.5471 96.2088 70.2515 96.1765 69.965 96.0975C69.6468 96.0097 69.3349 95.9066 69.0375 95.7622C68.8851 95.6882 68.7439 95.5973 68.6147 95.4869C68.3218 95.2375 68.1878 94.9379 68.278 94.5467C68.3428 94.2654 68.3828 93.9784 68.432 93.6937C68.4693 93.4763 68.4643 93.4582 68.2613 93.3565C67.6146 93.0321 66.9911 92.6672 66.3728 92.2922C65.1071 91.524 63.9135 90.6556 62.7633 89.7248C61.5194 88.7183 60.3359 87.6467 59.2382 86.482C58.7142 85.926 58.2519 85.3188 57.7951 84.7078C57.1892 83.8975 56.5757 83.0918 56.05 82.2258C55.5282 81.3663 55.1035 80.4567 54.6974 79.5379C54.1066 78.2021 53.686 76.8145 53.4158 75.3809C53.1663 74.0575 53.1615 72.7309 53.3948 71.4057C53.4659 71.0025 53.6108 70.6164 53.7458 70.2298C53.7559 70.2004 53.7701 70.1693 53.8089 70.1616C53.8783 70.1873 53.8677 70.2512 53.8653 70.303C53.8178 71.3725 54.1485 72.3614 54.5028 73.3469C55.3156 75.6068 56.5545 77.6266 57.9841 79.5393C58.8027 80.6343 59.6769 81.6799 60.6719 82.622C61.1207 83.0472 61.548 83.4948 61.9877 83.9298C62.806 84.7394 63.7084 85.448 64.6297 86.1352C65.5887 86.8506 66.529 87.5919 67.5315 88.2473C68.0287 88.5724 68.5342 88.8853 69.0389 89.1991C69.2286 89.317 69.2419 89.3076 69.2848 89.0991C69.3057 88.9969 69.3125 88.8903 69.3453 88.7923C69.4014 88.625 69.3373 88.5257 69.2033 88.4281C68.5084 87.9226 67.8185 87.41 67.1275 86.8992C66.9014 86.732 66.6825 86.5558 66.4782 86.3622C66.4451 86.3309 66.4073 86.3017 66.3979 86.2104C66.676 86.356 66.9289 86.4873 67.1812 86.6201C67.8422 86.9682 68.5048 87.3131 69.1982 87.5936C69.2353 87.6086 69.2717 87.6286 69.3103 87.637C69.3937 87.6553 69.4889 87.7621 69.5578 87.6228C69.6388 87.4591 69.6075 87.3295 69.4699 87.256C68.8111 86.9036 68.1647 86.5293 67.5276 86.1395C66.497 85.5095 65.5381 84.784 64.654 83.959C64.1375 83.4769 63.6038 83.013 63.116 82.5013C62.2449 81.5878 61.4241 80.63 60.7196 79.5817C59.8654 78.3108 59.3105 76.9141 59.0907 75.3959C58.9391 74.3486 58.9564 73.2999 59.1772 72.2604C59.2008 72.149 59.2045 72.023 59.2987 71.9391C59.3734 71.9661 59.3643 72.0208 59.3652 72.0659C59.3809 72.8454 59.6224 73.5639 59.9521 74.2592C60.3009 74.9946 60.7567 75.6668 61.1891 76.3525C61.6907 77.1479 62.2297 77.9172 62.8397 78.6343C63.5689 79.4911 64.3462 80.3017 65.1744 81.0643C66.2586 82.0624 67.4524 82.919 68.646 83.7763C69.0437 84.0621 69.4238 84.3721 69.8314 84.6447C69.8847 84.6804 69.9384 84.716 69.9944 84.7474C70.0469 84.7768 70.092 84.7604 70.1048 84.7018C70.1371 84.5531 70.1653 84.4032 70.1908 84.2533C70.1992 84.2031 70.1773 84.1581 70.1339 84.1284C70.0874 84.0969 70.0404 84.066 69.9915 84.0385C69.1358 83.557 68.3464 82.9749 67.5346 82.4266C67.4189 82.3482 67.2907 82.2771 67.2027 82.1477C67.2991 82.1 67.3579 82.1535 67.4194 82.181C68.2915 82.5721 69.1756 82.9351 70.0585 83.301C70.3499 83.4217 70.3566 83.4186 70.4145 83.1115C70.6345 81.944 70.8577 80.7765 71.0057 79.5974C71.1246 78.6499 71.2072 77.6981 71.3176 76.7497C71.4466 75.641 71.5237 74.5284 71.5886 73.4151C71.6295 72.7101 71.6356 72.0032 71.6563 71.297C71.6633 71.057 71.6777 70.8183 71.664 70.5766C71.6356 70.0697 71.5071 69.5985 71.2706 69.15C70.8009 68.2589 70.4251 67.3302 70.1819 66.3505C70.0267 65.7255 69.9343 65.0935 69.9001 64.4486C69.8705 63.8923 69.904 63.3425 69.9587 62.7915C69.9715 62.6628 69.9989 62.5375 70.0447 62.417C70.1199 62.22 70.1732 62.2003 70.3388 62.322C70.695 62.5842 71.0682 62.8195 71.449 63.0439C73.0755 64.0024 74.8213 64.6556 76.6556 65.0827C77.6183 65.3068 78.5896 65.4835 79.5714 65.5994C80.6502 65.7267 81.7315 65.7614 82.8169 65.684C83.2896 65.6503 83.7613 65.6154 84.2313 65.5537C84.3887 65.5329 84.4198 65.5753 84.3759 65.7257C83.9411 67.2165 83.1657 68.5178 82.1678 69.6954C81.8065 70.122 81.3673 70.459 80.9166 70.7834C80.6886 70.9475 80.4603 71.1124 80.2607 71.312C80.2079 71.3647 80.1532 71.4122 80.2414 71.4869C80.6146 71.8027 80.8672 72.2172 81.148 72.6075C81.9559 73.7311 82.666 74.916 83.2973 76.1459C83.9495 77.4171 84.4388 78.7493 84.6524 80.1694C84.7767 80.997 84.8524 81.8288 84.683 82.6606C84.488 83.6177 84.078 84.4753 83.412 85.1901C82.8572 85.7857 82.1745 86.2082 81.4114 86.496C81.3815 86.5073 81.3504 86.5163 81.3191 86.5235C81.2803 86.5324 81.2362 86.5469 81.2063 86.5114C81.1656 86.4632 81.2053 86.4223 81.2307 86.3832C81.4635 86.0263 81.6766 85.6577 81.854 85.2702C82.1157 84.6987 82.3312 84.107 82.4337 83.488C82.5641 82.6992 82.5525 81.9043 82.3806 81.1185C82.1463 80.0476 81.7853 79.0216 81.3268 78.0242C80.7105 76.6829 79.9255 75.4429 79.1098 74.2199C78.9587 73.9934 78.8459 73.782 78.9659 73.5106C78.9702 73.5007 78.957 73.4829 78.9425 73.4424C78.8943 73.5634 78.8514 73.6648 78.8131 73.7678C78.6477 74.2117 78.4848 74.6564 78.318 75.0999C78.285 75.1879 78.2592 75.2542 78.3689 75.3195C78.439 75.3614 78.4848 75.4503 78.5311 75.5246C79.0575 76.3677 79.3737 77.2843 79.528 78.266C79.6304 78.9187 79.6338 79.5632 79.4713 80.2007C79.2713 80.9857 78.882 81.6558 78.2023 82.1303C78.0302 82.2504 77.8485 82.3526 77.653 82.4282C77.5865 82.454 77.5144 82.4748 77.4438 82.4791C77.3382 82.4858 77.3006 82.4285 77.3348 82.3239C77.3522 82.2709 77.3796 82.221 77.4057 82.1711C77.739 81.5316 77.8979 80.8572 77.8815 80.1306C77.8682 79.5497 77.8253 78.9782 77.6872 78.4125C77.6135 78.1105 77.5378 77.803 77.631 77.4742C77.5583 77.4986 77.5631 77.5506 77.5525 77.589C76.9906 79.6181 76.3138 81.609 75.5582 83.5736C75.5092 83.7011 75.4598 83.8281 75.4126 83.9563C75.3359 84.1639 75.3629 84.1947 75.5895 84.1528C75.7078 84.1308 75.8259 84.1053 75.9419 84.073C76.7522 83.8469 77.5204 83.5304 78.2001 83.0221C79.1387 82.32 79.6152 81.3668 79.7483 80.219C79.8801 79.0811 79.7056 77.9787 79.387 76.8909C79.3689 76.8295 79.3528 76.7675 79.339 76.7051C79.3366 76.6945 79.3523 76.6798 79.3614 76.6637C79.4439 76.6784 79.4682 76.7538 79.5068 76.8102C80.234 77.8765 80.8175 79.0187 81.2904 80.2178C81.464 80.6582 81.6462 81.0956 81.7689 81.555C82.0273 82.5213 81.9846 83.482 81.5736 84.3837C81.0243 85.5893 80.0855 86.3533 78.756 86.596C77.981 86.7375 77.2054 86.7173 76.429 86.6216C75.9267 86.5596 75.428 86.4767 74.9387 86.342C74.7456 86.289 74.7283 86.3049 74.6719 86.502C74.5697 86.8597 74.5745 86.8703 74.9324 86.9571C75.8387 87.1769 76.7544 87.3466 77.6824 87.4391C78.1874 87.4895 78.693 87.4596 79.1949 87.3758C79.3238 87.3543 79.4533 87.3136 79.6396 87.3384C79.2387 87.6667 78.8842 87.9742 78.466 88.2005C77.8689 88.5237 77.2191 88.6621 76.5565 88.7571C75.9156 88.8489 75.2757 88.8262 74.6367 88.7332C74.5176 88.7158 74.3981 88.7009 74.278 88.6898C74.1549 88.6782 74.104 88.7233 74.0862 88.8455C74.0698 88.9569 74.1259 89.0104 74.2276 89.0289C74.3699 89.0547 74.5118 89.0812 74.6545 89.1049C75.8691 89.3044 77.088 89.429 78.3228 89.3748C80.0944 89.297 81.7453 88.8402 83.2264 87.8465C84.2395 87.167 85.0012 86.2735 85.441 85.1248C85.6433 84.5963 85.7472 84.0477 85.7816 83.4813C85.8344 82.6153 85.6912 81.7693 85.5526 80.9221C85.3755 79.8408 85.0674 78.7943 84.6994 77.7642C84.6753 77.6967 84.6389 77.6319 84.6415 77.5574C84.642 77.5429 84.6538 77.5292 84.6644 77.506C84.7859 77.5065 84.8375 77.6097 84.8973 77.6859C85.0959 77.9382 85.2935 78.192 85.477 78.4552C86.4069 79.7893 87.2539 81.1713 87.8379 82.6965C88.2638 83.8093 88.5976 84.9501 88.7056 86.1424C88.743 86.5563 88.7794 86.9723 88.7415 87.3919C88.7085 87.759 88.7246 88.1287 88.6875 88.4977C88.5526 89.845 87.969 90.9564 86.9256 91.8096C85.8667 92.6756 84.649 93.1847 83.2787 93.2982C81.4526 93.4498 79.6548 93.31 77.8935 92.7749C76.4695 92.3423 75.0715 91.846 73.7398 91.1753C73.7111 91.1608 73.6817 91.1478 73.6535 91.1326C73.5554 91.0801 73.5031 91.1167 73.4826 91.2184C73.4795 91.2341 73.4734 91.2492 73.4689 91.2644C73.3741 91.5874 73.3722 91.5922 73.6904 91.7246C74.9365 92.2425 76.1851 92.7535 77.4838 93.13C78.3891 93.3924 79.3161 93.5399 80.248 93.6648C81.0439 93.7716 81.8434 93.8487 82.6443 93.8897C83.2691 93.9217 83.8948 93.9656 84.5217 93.9533C84.6049 93.9516 84.7187 93.9126 84.764 94.0066C84.8148 94.1121 84.709 94.1789 84.6485 94.249C84.4624 94.464 84.225 94.6173 83.9953 94.7788C82.8468 95.5858 81.5553 96.0184 80.1795 96.2279C80.1161 96.2375 80.0518 96.2387 79.9944 96.2722H77.7292C77.679 96.2435 77.6238 96.2368 77.5674 96.2307C76.3116 96.096 75.0809 95.833 73.863 95.5062C73.4522 95.3961 73.0463 95.2688 72.6383 95.1493C72.4394 95.0909 72.437 95.0926 72.3644 95.2941C72.31 95.445 72.2562 95.5961 72.1981 95.7456C72.0983 96.0035 71.9508 96.2141 71.656 96.2722H70.8368L70.8363 96.2736Z" fill="#CECECE"/>
<path d="M79.1263 30.7541C79.5985 30.9552 79.9885 31.2791 80.3787 31.6004C80.8248 31.9677 81.2903 32.3121 81.7022 32.7197C82.5996 33.6076 83.3302 34.6219 83.9438 35.7202C84.2726 36.3085 84.5884 36.9053 84.8393 37.5332C85.1307 38.2625 85.2876 39.0193 85.3594 39.801C85.4079 40.3262 85.3739 40.8425 85.3052 41.3602C85.1946 42.1929 84.8337 42.9218 84.3676 43.6063C84.3314 43.6593 84.2897 43.7085 84.2519 43.7605C84.1403 43.9133 84.1393 43.9155 84.2965 44.0126C84.4813 44.1269 84.664 44.244 84.813 44.4048C84.8807 44.4781 84.94 44.4966 85.0429 44.4544C85.5633 44.2414 86.0767 44.0163 86.5774 43.7576C87.334 43.3667 88.1463 43.1491 88.9892 43.0365C89.437 42.9767 89.886 42.9818 90.3358 42.9842C90.3679 42.9842 90.4002 42.9859 90.4322 42.9859C90.5793 42.9859 90.7053 43.0295 90.767 43.1739C90.8311 43.3233 90.7909 43.4549 90.6788 43.5696C90.4599 43.794 90.258 44.0336 90.0647 44.2797C89.4678 45.0396 88.9299 45.8348 88.5517 46.7319C88.2673 47.4063 88.2403 48.105 88.3114 48.8141C88.3774 49.4721 88.5493 50.1074 88.7698 50.7305C89.1022 51.6695 89.3861 52.624 89.6713 53.5779C90.0162 54.7312 90.0868 55.9118 89.9854 57.1063C89.8812 58.3343 89.457 59.4466 88.7819 60.4719C88.423 61.0171 88.0388 61.5431 87.5644 61.9911C86.4282 63.0642 85.182 63.9728 83.6883 64.4949C83.5926 64.5284 83.5003 64.5807 83.3948 64.5686C83.3755 64.4929 83.4314 64.4761 83.4656 64.4491C84.2244 63.8523 84.9188 63.1844 85.6031 62.5064C86.6591 61.4604 87.475 60.2512 88.0788 58.8913C88.4483 58.0591 88.6727 57.1964 88.7513 56.2935C88.7966 55.7751 88.7206 55.2692 88.5695 54.7724C88.4435 54.3574 88.3065 53.9465 88.1624 53.5374C87.7717 52.4295 87.4943 51.2911 87.2662 50.14C87.118 49.3913 86.9963 48.6384 86.9418 47.8772C86.8979 47.2643 86.9462 46.6576 87.1493 46.0708C87.1703 46.0103 87.186 45.9481 87.2007 45.8856C87.2036 45.8734 87.1906 45.857 87.1848 45.8425C87.1431 45.8153 87.1084 45.8386 87.0753 45.8596C86.7536 46.0657 86.4867 46.3164 86.297 46.6608C86.1047 47.0098 85.9866 47.3819 85.8557 47.7521C85.8285 47.8293 85.829 47.9635 85.7222 47.9522C85.6173 47.9409 85.6467 47.8124 85.6337 47.7297C85.6265 47.6832 85.6275 47.6355 85.6185 47.5885C85.5395 48.4311 85.2514 49.205 84.8607 49.9457C84.8159 50.0305 84.76 50.1098 84.706 50.1894C84.6828 50.2236 84.6462 50.2506 84.6047 50.2246C84.5763 50.2067 84.5765 50.1679 84.5821 50.1361C84.6127 49.9621 84.6464 49.7888 84.6763 49.6148C84.7633 49.1057 84.7385 48.6078 84.5305 48.1267C84.4351 47.9059 84.3659 47.6733 84.2393 47.4663C84.0752 47.198 83.8874 47.1532 83.6483 47.361C83.4432 47.5391 83.2574 47.742 83.0804 47.9491C82.5842 48.5304 82.3482 49.2164 82.258 49.9696C82.1305 51.0327 82.2783 52.0665 82.5333 53.0937C82.6338 53.4986 82.756 53.8987 82.8151 54.3135C82.8623 54.6471 82.891 54.9824 82.8924 55.341C82.9609 55.2984 82.9626 55.242 82.9758 55.194C83.2583 54.1668 83.6748 53.1961 84.1887 52.2631C84.5645 51.581 84.9224 50.8891 85.3189 50.2185C85.4501 49.9968 85.5978 49.7864 85.7861 49.6085C86.0124 49.3947 86.1411 49.3899 86.3226 49.6316C86.7085 50.1457 86.9862 50.7158 87.0734 51.3576C87.1399 51.8462 86.9777 52.2964 86.743 52.716C86.5407 53.0771 86.2599 53.3757 85.9319 53.6283C85.8878 53.6623 85.8408 53.6972 85.7894 53.7163C85.7313 53.7377 85.6923 53.7081 85.7133 53.6435C85.733 53.583 85.7646 53.5261 85.793 53.4685C85.9974 53.0523 86.0543 52.6107 86.0071 52.1547C85.9878 51.9698 85.9536 51.7743 85.7542 51.6936C85.5544 51.6129 85.3941 51.7283 85.2534 51.8512C84.9518 52.1147 84.7347 52.4444 84.5768 52.8074C84.2174 53.6338 83.9566 54.4938 83.7194 55.3625C83.5276 56.0648 83.4683 56.7823 83.4152 57.5033C83.381 57.9684 83.3694 58.4331 83.3745 58.8988C83.381 59.4705 83.4548 60.0352 83.563 60.5953C83.6165 60.873 83.764 61.1022 83.9665 61.2929C84.1665 61.4814 84.384 61.4838 84.5937 61.3042C84.8704 61.0675 85.0495 60.7677 85.1377 60.4146C85.1611 60.3211 85.1733 60.2244 85.2037 60.1335C85.2536 59.9851 85.3491 59.9697 85.4462 60.0967C85.499 60.1658 85.539 60.2473 85.5711 60.3288C85.7029 60.6626 85.7559 61.0111 85.728 61.3678C85.7034 61.6802 85.6552 61.9887 85.5294 62.2816C85.3141 62.7826 84.9241 63.0557 84.404 63.1649C84.2237 63.2027 84.0508 63.1557 83.8848 63.0957C83.3263 62.8942 82.8987 62.5356 82.6119 62.0126C82.4405 61.7002 82.3253 61.3666 82.2477 61.0208C82.1231 60.4645 81.9963 59.9079 82.0076 59.3321C82.0081 59.3095 81.998 59.2868 81.9922 59.2622C81.9122 59.2502 81.9008 59.3201 81.8731 59.3613C81.7213 59.5881 81.5735 59.8178 81.4238 60.0461C80.8005 60.9974 79.886 61.5218 78.8206 61.832C78.0113 62.0678 77.1896 62.1873 76.3464 62.1254C75.954 62.0967 75.5628 62.055 75.1764 61.9781C75.0933 61.9615 75.0039 61.9516 74.9287 61.8735C75.014 61.7908 75.1111 61.7925 75.2022 61.786C75.6836 61.7518 76.1604 61.6816 76.6318 61.5816C77.4253 61.4134 78.1759 61.1403 78.8243 60.6344C79.3521 60.2225 79.7549 59.7026 80.0822 59.1268C80.4806 58.4261 80.7981 57.6898 80.9601 56.8942C81.0389 56.5078 81.0731 56.1159 81.0936 55.7233C81.1353 54.9187 81.0565 54.1207 80.9699 53.3217C80.9 52.6758 80.8364 52.0289 80.8015 51.3793C80.7872 51.1149 80.7627 50.8515 80.7605 50.5861C80.7506 49.3352 81.1657 48.2419 81.9772 47.2954C82.3378 46.8748 82.6955 46.4525 83.0303 46.0103C83.4726 45.4263 83.764 44.7685 84.0157 44.0886C84.0381 44.0283 84.0562 43.9681 84.0313 43.9015C83.958 43.7058 83.9954 43.5058 84.0123 43.3064C84.0523 42.8348 84.1051 42.3638 84.1275 41.8914C84.1663 41.0664 83.96 40.2852 83.6746 39.5188C83.3781 38.7222 82.9602 37.994 82.4716 37.3023C82.1288 36.8171 81.808 36.3163 81.4332 35.854C81.2809 35.6662 81.109 35.498 80.9338 35.3324C80.8991 35.2996 80.8598 35.2697 80.8183 35.2461C80.6014 35.1225 80.4804 35.1902 80.4766 35.4348C80.4737 35.6216 80.5192 35.8012 80.5573 35.9817C80.6754 36.5399 80.7909 37.0998 80.761 37.6744C80.7335 38.2028 80.7075 38.7306 80.611 39.2543C80.4674 40.0341 80.122 40.7056 79.6288 41.3185C78.9915 42.1107 78.2704 42.8152 77.4778 43.4489C76.8755 43.9305 76.3074 44.4513 75.7366 44.9688C75.0588 45.5834 74.3777 46.1946 73.7057 46.8158C72.9676 47.4981 72.2898 48.2356 71.6542 49.0158C70.6903 50.1993 69.9822 51.5254 69.4121 52.9305C69.1019 53.6953 68.9537 54.4955 68.9026 55.3215C68.8182 56.6845 69.2133 57.9135 69.8412 59.0996C70.3244 60.0126 71.0661 60.6315 71.95 61.1135C72.0165 61.1497 72.1054 61.162 72.1404 61.2746C71.9989 61.3295 71.8589 61.3073 71.7203 61.2835C70.511 61.0762 69.5201 60.5211 68.809 59.4944C68.1693 58.5707 67.7601 57.5681 67.6526 56.4447C67.5552 55.4271 67.6562 54.4246 67.8642 53.4307C68.1549 52.0416 68.594 50.6996 69.2174 49.4239C69.8043 48.2221 70.531 47.1059 71.3635 46.0589C71.8434 45.4554 72.3547 44.8791 72.8678 44.304C73.8471 43.2069 74.9072 42.1883 75.9314 41.1348C76.4792 40.5713 77.0216 40.001 77.4648 39.3447C78.0614 38.4611 78.3984 37.4869 78.5468 36.4368C78.6654 35.5978 78.6408 34.7554 78.6478 33.9128C78.6534 33.2299 78.5803 32.5498 78.5936 31.8667C78.5974 31.665 78.6167 31.4659 78.651 31.2683C78.6859 31.066 78.7601 30.8814 78.9342 30.7539H79.127L79.1263 30.7541Z" fill="#CECECE"/>
<path d="M46.2554 68.776C46.3183 68.669 46.3291 68.5489 46.3462 68.4294C46.5588 66.9523 47.1602 65.664 48.2306 64.6128C49.0027 63.8545 49.9283 63.3599 50.9637 63.0517C51.978 62.7494 53.0092 62.592 54.0668 62.5392C55.246 62.4802 56.4068 62.5934 57.5669 62.7692C59.5262 63.0661 61.3933 63.667 63.1967 64.4774C63.2659 64.5085 63.349 64.5251 63.4117 64.6345C63.129 64.5933 62.8783 64.5514 62.6262 64.521C60.9645 64.3212 59.3091 64.3024 57.6763 64.7358C56.468 65.0566 55.3503 65.5712 54.3749 66.3661C53.4919 67.0856 52.8484 67.9866 52.3892 69.0228C52.0175 69.8616 51.838 70.7476 51.7522 71.6561C51.5909 73.3609 51.8409 75.0149 52.3388 76.6443C52.8361 78.2708 53.4999 79.8245 54.2958 81.3257C55.0661 82.7786 55.9785 84.1347 57.0267 85.4001C57.4312 85.8884 57.8412 86.3722 58.2483 86.8586C58.2784 86.8945 58.3206 86.9246 58.3187 86.9936C58.2516 87.0285 58.2044 86.9752 58.1586 86.9429C57.5748 86.5308 57.0021 86.1041 56.4516 85.6474C55.735 85.0528 55.0138 84.4634 54.3233 83.8384C53.7103 83.2836 53.1106 82.7147 52.5512 82.104C51.9872 81.4881 51.4275 80.8691 50.8878 80.2318C49.8887 79.052 48.9969 77.7984 48.2687 76.431C47.6669 75.3008 47.1633 74.1303 46.8006 72.9015C46.589 72.1844 46.4198 71.458 46.3397 70.7129C46.3286 70.6088 46.3137 70.5054 46.2556 70.4143V68.776H46.2554Z" fill="#CECECE"/>
<path d="M171.866 66.2758C171.866 68.139 171.868 70.0022 171.865 71.8652C171.864 72.393 171.739 72.8828 171.391 73.2981C171.159 73.5758 170.861 73.7612 170.537 73.9094C170.013 74.1495 169.452 74.2519 168.885 74.3281C168.392 74.3946 167.895 74.4172 167.397 74.4363C166.988 74.452 166.578 74.4782 166.17 74.4616C165.176 74.4211 164.179 74.4013 163.208 74.1401C162.889 74.054 162.579 73.9453 162.29 73.7814C161.693 73.4415 161.34 72.9354 161.248 72.2491C161.22 72.0334 161.208 71.8182 161.208 71.601C161.21 68.0113 161.209 64.4213 161.208 60.8316C161.208 60.6465 161.222 60.4633 161.248 60.2799C161.349 59.5679 161.718 59.0472 162.353 58.7117C162.865 58.4415 163.419 58.3133 163.985 58.2277C164.597 58.1354 165.213 58.0848 165.832 58.08C166.643 58.0737 167.454 58.0585 168.263 58.1308C169.057 58.2014 169.845 58.3012 170.581 58.6375C171.43 59.0248 171.859 59.6893 171.863 60.6139C171.872 62.5012 171.866 64.3885 171.866 66.2756V66.2758ZM165.687 66.2633C165.687 66.7287 165.687 67.1944 165.687 67.6599C165.688 68.6953 165.689 69.7306 165.69 70.7661C165.69 70.936 165.709 71.1018 165.777 71.2602C165.922 71.5952 166.202 71.7709 166.579 71.7603C166.94 71.7502 167.205 71.5598 167.324 71.2168C167.391 71.0259 167.418 70.8275 167.418 70.6251C167.418 67.7276 167.418 64.8301 167.419 61.9326C167.419 61.7709 167.398 61.6121 167.367 61.4549C167.282 61.0309 166.996 60.7885 166.582 60.7819C166.113 60.7745 165.833 60.9863 165.725 61.4265C165.681 61.6085 165.688 61.7933 165.688 61.9775C165.687 63.4061 165.687 64.8349 165.687 66.2635V66.2633Z" fill="#CECECE"/>
<path d="M104.663 66.2697C104.663 64.4065 104.664 62.5436 104.662 60.6804C104.662 60.3555 104.708 60.0399 104.832 59.7386C105.056 59.1937 105.475 58.8478 106 58.6164C106.58 58.3607 107.196 58.2541 107.82 58.1811C108.852 58.0606 109.889 58.0591 110.924 58.0938C111.879 58.1259 112.833 58.1992 113.745 58.5291C113.98 58.6142 114.204 58.7212 114.412 58.8606C114.917 59.1992 115.193 59.6791 115.273 60.2745C115.305 60.5126 115.322 60.7527 115.322 60.9947C115.319 64.5362 115.319 68.0777 115.321 71.619C115.321 71.8689 115.302 72.1172 115.259 72.3618C115.125 73.1262 114.656 73.6172 113.964 73.9218C113.452 74.1477 112.91 74.2614 112.359 74.3304C111.49 74.4391 110.615 74.4863 109.74 74.4644C108.762 74.4398 107.781 74.4227 106.821 74.1899C106.413 74.091 106.019 73.9604 105.656 73.7435C105.024 73.3653 104.72 72.7938 104.669 72.0753C104.655 71.8834 104.664 71.6898 104.664 71.4973C104.663 69.7546 104.664 68.0119 104.664 66.2695L104.663 66.2697ZM110.841 66.2818C110.841 64.877 110.841 63.4723 110.841 62.0673C110.841 61.9147 110.847 61.7612 110.83 61.61C110.802 61.3488 110.72 61.1036 110.501 60.9375C110.017 60.5709 109.322 60.8158 109.172 61.4015C109.122 61.5973 109.11 61.7966 109.11 61.9983C109.112 63.8367 109.111 65.6748 109.111 67.5132C109.111 68.5487 109.112 69.5842 109.11 70.6199C109.11 70.7978 109.126 70.9732 109.172 71.1444C109.279 71.5402 109.581 71.7696 109.983 71.7667C110.396 71.7636 110.677 71.544 110.791 71.1422C110.844 70.9532 110.84 70.7609 110.84 70.5686C110.841 69.1397 110.841 67.7109 110.841 66.282V66.2818Z" fill="#CECECE"/>
<path d="M179.386 61.1319C179.433 61.0396 179.414 60.9504 179.414 60.866C179.416 60.1352 179.415 59.4046 179.415 58.6738C179.415 58.6097 179.417 58.5453 179.417 58.4812C179.417 58.3602 179.484 58.3079 179.598 58.3046C179.654 58.3029 179.71 58.3012 179.766 58.3012C180.866 58.3012 181.967 58.3012 183.067 58.3012C183.115 58.3012 183.164 58.2997 183.211 58.3036C183.384 58.318 183.415 58.3489 183.425 58.5268C183.43 58.623 183.427 58.7194 183.427 58.8158C183.428 63.473 183.43 68.1303 183.428 72.7876C183.428 73.1978 183.458 73.6054 183.502 74.0123C183.525 74.2217 183.504 74.2494 183.288 74.2526C182.999 74.2569 182.71 74.254 182.421 74.254C181.409 74.254 180.397 74.254 179.385 74.254C179.313 74.254 179.24 74.2564 179.169 74.2521C178.995 74.2415 178.965 74.2114 178.952 74.0328C178.946 73.9527 178.949 73.8722 178.949 73.792C178.946 71.9049 178.966 70.0176 178.932 68.1313C178.908 66.8454 178.747 65.5698 178.365 64.3326C178.233 63.9016 178.068 63.4844 177.79 63.1204C177.695 62.9963 177.581 62.8972 177.441 62.8314C177.326 62.7772 177.274 62.8056 177.261 62.9293C177.251 63.0168 177.255 63.1057 177.255 63.1939C177.255 66.727 177.254 70.2601 177.256 73.7932C177.256 74.3148 177.231 74.2526 176.793 74.2533C175.589 74.255 174.384 74.254 173.179 74.2538C173.107 74.2538 173.035 74.2519 172.962 74.2521C172.845 74.2526 172.783 74.1967 172.78 74.0781C172.779 74.014 172.777 73.9496 172.777 73.8855C172.777 68.8187 172.777 63.7519 172.777 58.6851C172.777 58.3043 172.782 58.298 173.171 58.3012C174.66 58.3132 176.04 58.7102 177.31 59.4851C177.979 59.8925 178.587 60.3755 179.143 60.9253C179.215 60.9964 179.275 61.0839 179.386 61.1314L179.386 61.1319Z" fill="#CECECE"/>
<path d="M124.478 66.5176C124.668 66.5959 124.832 66.6571 124.991 66.7304C125.672 67.0445 126.269 67.4675 126.721 68.0761C127.027 68.4885 127.184 68.9477 127.181 69.4671C127.174 70.5511 127.183 71.635 127.179 72.7187C127.178 73.1369 127.209 73.5524 127.254 73.9675C127.276 74.1733 127.254 74.2022 127.035 74.2039C126.537 74.2073 126.04 74.2054 125.542 74.2054C124.883 74.2054 124.225 74.2066 123.566 74.2046C123.22 74.2037 123.051 74.0911 122.929 73.7638C122.792 73.3989 122.759 73.0144 122.739 72.6288C122.682 71.4978 122.704 70.3659 122.699 69.2343C122.698 69.026 122.705 68.8173 122.646 68.6127C122.524 68.1834 122.33 68.0308 121.886 68.0281C121.67 68.0269 121.453 68.0243 121.236 68.0298C121.044 68.0349 121.017 68.0655 121.007 68.2576C121.004 68.3297 121.006 68.402 121.006 68.4743C121.006 70.2406 121.006 72.0069 121.006 73.7732C121.006 74.0612 120.859 74.2052 120.564 74.2054C119.335 74.2054 118.107 74.2056 116.878 74.2054C116.531 74.2054 116.528 74.2032 116.528 73.8573C116.528 68.7751 116.528 63.6929 116.528 58.6107C116.528 58.2677 116.542 58.253 116.876 58.2528C118.562 58.252 120.249 58.2344 121.935 58.2595C122.888 58.2737 123.846 58.3029 124.782 58.5309C125.181 58.6283 125.568 58.7541 125.926 58.9631C126.596 59.3548 126.919 59.953 126.94 60.7118C126.959 61.4178 126.946 62.1247 126.946 62.8312C126.946 63.2648 126.948 63.6985 126.945 64.1318C126.938 65.0798 126.506 65.7499 125.637 66.1389C125.326 66.2778 125.003 66.3677 124.674 66.4417C124.62 66.4537 124.562 66.4532 124.478 66.5181V66.5176ZM122.697 63.1487C122.697 63.1487 122.695 63.1487 122.694 63.1487C122.694 62.7071 122.706 62.2648 122.691 61.8237C122.671 61.2799 122.34 60.9668 121.802 60.9543C121.657 60.9509 121.513 60.9531 121.368 60.9533C121.128 60.9538 121.007 61.0734 121.006 61.3122C121.006 62.533 121.006 63.7536 121.006 64.9745C121.006 65.0306 121.008 65.0868 121.008 65.1432C121.009 65.2584 121.06 65.3254 121.182 65.3245C121.439 65.3223 121.697 65.3331 121.952 65.3146C122.292 65.29 122.509 65.0921 122.629 64.779C122.678 64.6496 122.697 64.5153 122.697 64.3777C122.697 63.9682 122.697 63.5584 122.697 63.1489V63.1487Z" fill="#CECECE"/>
<path d="M93.3924 66.2232C93.3924 64.3923 93.3898 62.5616 93.3941 60.7307C93.3953 60.1889 93.518 59.68 93.8684 59.2459C94.0591 59.0097 94.3026 58.842 94.567 58.7031C95.0792 58.4339 95.636 58.3143 96.2017 58.2285C97.342 58.0552 98.491 58.0547 99.6383 58.0984C100.465 58.1297 101.288 58.2237 102.083 58.4761C102.654 58.6573 103.198 58.8914 103.608 59.3551C103.884 59.6675 104.045 60.0276 104.048 60.4473C104.052 61.2742 104.05 62.1015 104.048 62.9285C104.048 63.1815 104.027 63.202 103.771 63.2023C102.47 63.2037 101.169 63.2037 99.868 63.2023C99.6268 63.202 99.6046 63.1787 99.6024 62.9415C99.599 62.5963 99.6046 62.2509 99.5995 61.9058C99.5961 61.6724 99.5718 61.4418 99.4682 61.2258C99.2982 60.8715 99.0049 60.7623 98.6347 60.7886C98.2972 60.8124 98.0458 61.0009 97.9381 61.3263C97.9026 61.4331 97.8783 61.543 97.8766 61.6568C97.8749 61.7773 97.8708 61.8976 97.8708 62.0181C97.8706 64.6357 97.8703 67.2536 97.8711 69.8712C97.8711 70.0874 97.8638 70.3043 97.9238 70.5169C98.0841 71.0836 98.4992 71.2627 99.0165 70.9833C99.0868 70.9453 99.1541 70.9004 99.2204 70.8553C99.48 70.6789 99.6311 70.469 99.6104 70.1185C99.5764 69.5424 99.6017 68.9627 99.601 68.3845C99.6005 68.069 99.5983 68.0683 99.2739 68.0663C99.1936 68.0659 99.1131 68.0692 99.0331 68.0639C98.8648 68.0528 98.8403 68.0271 98.8275 67.8634C98.8251 67.8313 98.8258 67.7993 98.8258 67.767C98.8258 67.0685 98.8248 66.3697 98.826 65.6712C98.8265 65.3752 98.8391 65.3624 99.1425 65.3624C100.669 65.3615 102.194 65.3617 103.72 65.3624C104.044 65.3624 104.049 65.3675 104.049 65.7071C104.049 67.819 104.049 69.9307 104.049 72.0427C104.049 72.2273 104.051 72.4119 104.05 72.5968C104.048 73.0468 104.084 73.4944 104.133 73.9413C104.136 73.9731 104.14 74.0052 104.14 74.0372C104.14 74.1915 104.115 74.2214 103.965 74.2358C103.926 74.2397 103.885 74.2385 103.845 74.2385C103.291 74.2385 102.737 74.2339 102.183 74.2414C102.013 74.2438 101.899 74.1896 101.804 74.0447C101.584 73.7092 101.349 73.3831 101.119 73.0545C101.005 72.8938 101.002 72.8928 100.842 73.0194C99.8124 73.8372 98.6322 74.2819 97.3331 74.4188C96.6599 74.4897 95.9867 74.5005 95.3301 74.2869C94.6414 74.0628 94.0765 73.68 93.7147 73.0348C93.4891 72.6325 93.3943 72.1962 93.3936 71.7399C93.3907 69.9011 93.3924 68.0622 93.3924 66.2234V66.2232Z" fill="#CECECE"/>
<path d="M137.785 66.208C137.785 64.3853 137.783 62.5624 137.786 60.7397C137.788 60.1981 137.905 59.6888 138.252 59.2518C138.441 59.0137 138.683 58.8445 138.946 58.7042C139.457 58.432 140.014 58.3094 140.58 58.2252C141.191 58.1344 141.808 58.0847 142.426 58.0797C143.149 58.0736 143.872 58.0592 144.592 58.1295C145.555 58.2238 146.507 58.3672 147.37 58.8476C147.795 59.0843 148.133 59.4051 148.322 59.8643C148.4 60.052 148.442 60.2466 148.442 60.4505C148.441 61.2695 148.443 62.0885 148.441 62.9076C148.441 63.179 148.424 63.1961 148.154 63.1963C146.861 63.1978 145.568 63.1978 144.275 63.1963C144.012 63.1961 143.996 63.177 143.994 62.9018C143.992 62.5646 143.998 62.2271 143.992 61.8902C143.987 61.6568 143.962 61.4262 143.857 61.2112C143.683 60.8576 143.386 60.7551 143.018 60.7831C142.674 60.8091 142.454 60.993 142.336 61.3064C142.293 61.4192 142.27 61.538 142.269 61.66C142.267 61.7805 142.264 61.9008 142.264 62.0213C142.263 64.631 142.263 67.2406 142.264 69.8503C142.264 70.0665 142.255 70.2834 142.313 70.4965C142.477 71.0955 142.896 71.2473 143.418 70.9726C143.496 70.9316 143.568 70.8805 143.64 70.8296C143.883 70.659 144.02 70.4551 144.002 70.1273C143.972 69.5587 143.994 68.9874 143.994 68.4174C143.994 68.3532 143.992 68.2889 143.991 68.2248C143.99 68.1158 143.933 68.064 143.826 68.063C143.697 68.0618 143.569 68.0643 143.441 68.0582C143.258 68.0498 143.222 68.0223 143.221 67.848C143.218 67.0852 143.218 66.3223 143.222 65.5597C143.223 65.3946 143.257 65.37 143.425 65.3582C143.489 65.3536 143.553 65.356 143.617 65.356C145.095 65.356 146.573 65.356 148.051 65.356C148.311 65.356 148.442 65.4902 148.442 65.7585C148.443 68.0792 148.443 70.3999 148.444 72.7203C148.444 73.1221 148.483 73.5213 148.524 73.9204C148.529 73.9681 148.532 74.0163 148.533 74.0643C148.537 74.1745 148.48 74.226 148.373 74.2289C148.333 74.2301 148.293 74.2321 148.253 74.2321C147.69 74.2321 147.128 74.2268 146.566 74.2354C146.392 74.2381 146.285 74.1718 146.192 74.0306C145.97 73.6958 145.737 73.3689 145.506 73.0409C145.399 72.8895 145.392 72.8878 145.246 73.004C144.218 73.8247 143.039 74.2718 141.74 74.4112C141.059 74.4842 140.378 74.4958 139.714 74.2783C139.025 74.053 138.462 73.6666 138.103 73.0206C137.878 72.6179 137.786 72.1809 137.786 71.7246C137.784 69.8857 137.785 68.0469 137.785 66.208Z" fill="#CECECE"/>
<path d="M149.689 71.9724C149.689 71.5067 149.692 71.0408 149.688 70.5751C149.678 69.4061 149.829 68.2534 150.037 67.1068C150.471 64.7172 151.103 62.377 151.805 60.0547C151.954 59.5627 152.109 59.0727 152.265 58.5834C152.351 58.3146 152.367 58.3021 152.635 58.3019C154.234 58.3004 155.832 58.3004 157.43 58.3019C157.677 58.3019 157.692 58.3144 157.771 58.554C158.211 59.8973 158.609 61.2528 158.977 62.6178C159.338 63.9594 159.666 65.309 159.93 66.6737C160.118 67.6518 160.267 68.6355 160.335 69.6295C160.355 69.9334 160.345 70.2396 160.345 70.5447C160.347 71.2755 160.347 72.0063 160.348 72.7372C160.348 73.139 160.387 73.5384 160.427 73.9375C160.431 73.9775 160.437 74.0175 160.437 74.0573C160.437 74.2096 160.411 74.2381 160.258 74.2513C160.202 74.2562 160.145 74.254 160.089 74.254C158.997 74.254 157.904 74.2489 156.812 74.2571C156.474 74.2595 156.218 74.2043 156.066 73.6914C155.949 73.2956 155.923 72.8856 155.906 72.4768C155.892 72.124 155.902 71.7701 155.897 71.417C155.894 71.1888 155.874 71.1668 155.649 71.1649C155.248 71.1615 154.846 71.1618 154.444 71.1644C154.193 71.1661 154.169 71.189 154.168 71.4416C154.166 72.2527 154.168 73.0638 154.167 73.8748C154.167 74.2487 154.162 74.2537 153.793 74.2537C152.548 74.2542 151.302 74.2537 150.057 74.2537C150.017 74.2537 149.977 74.2545 149.937 74.2533C149.718 74.2458 149.692 74.2246 149.691 73.9958C149.688 73.3212 149.69 72.6468 149.69 71.9721H149.689L149.689 71.9724ZM155.022 60.67C154.953 60.7554 154.945 60.845 154.925 60.9282C154.757 61.6151 154.656 62.3139 154.56 63.0134C154.438 63.9033 154.347 64.7968 154.254 65.69C154.181 66.3861 154.16 67.0823 154.168 67.7805C154.17 68.0016 154.194 68.023 154.425 68.0247C154.834 68.0276 155.244 68.0278 155.653 68.0247C155.878 68.023 155.89 68.0047 155.897 67.7714C155.92 67.0319 155.853 66.2962 155.784 65.5621C155.709 64.7558 155.612 63.9515 155.513 63.1479C155.421 62.4074 155.316 61.6686 155.131 60.9438C155.108 60.8535 155.093 60.7587 155.023 60.6703L155.022 60.67Z" fill="#CECECE"/>
<path d="M83.5217 41.6281C83.548 42.989 83.2638 44.2554 82.7201 45.4671C82.4713 46.0212 82.1223 46.5112 81.7422 46.98C81.6863 47.049 81.6279 47.1685 81.5168 47.1174C81.4209 47.0733 81.4339 46.9526 81.4303 46.8569C81.4194 46.5633 81.4956 46.2839 81.5761 46.006C81.7393 45.4432 81.9179 44.8842 82.0666 44.3178C82.2112 43.7673 82.3539 43.2139 82.3561 42.6376C82.3568 42.4042 82.3498 42.1719 82.2997 41.9429C82.291 41.9036 82.2872 41.8634 82.2761 41.825C82.2062 41.5869 82.0329 41.5199 81.8386 41.6725C81.6431 41.826 81.4619 41.9974 81.2763 42.1632C80.6411 42.7306 80.027 43.3204 79.4471 43.944C78.7365 44.708 78.0416 45.4866 77.3679 46.2842C76.8499 46.8974 76.3066 47.4893 75.8253 48.1329C74.9718 49.2744 74.2313 50.4859 73.6027 51.7646C73.2284 52.5262 72.9738 53.3245 72.8796 54.1742C72.7817 55.0556 73.2527 55.9574 74.0221 56.302C74.3689 56.4575 74.737 56.4927 75.108 56.4481C76.4406 56.2885 77.4171 55.5927 78.0867 54.4444C78.1978 54.254 78.2609 54.0464 78.2836 53.8293C78.3111 53.5653 78.3079 53.2992 78.2882 53.0353C78.2701 52.7914 78.1958 52.741 77.9589 52.8037C77.1187 53.0257 76.3319 52.8092 75.5724 52.4833C75.0831 52.2731 75.054 51.8945 75.4579 51.5445C75.6838 51.349 75.9419 51.2003 76.2008 51.0542C77.0611 50.5688 77.9223 50.085 78.8127 49.656C78.9647 49.5827 79.1185 49.5133 79.2805 49.4651C79.5022 49.3991 79.5784 49.4299 79.6905 49.6367C79.7749 49.7924 79.8392 49.9568 79.8983 50.1236C80.1704 50.8906 80.3208 51.6874 80.4996 52.4785C80.6799 53.2763 80.7508 54.0782 80.7212 54.8929C80.6739 56.1863 80.3796 57.4219 79.8195 58.5868C79.2938 59.6804 78.4251 60.4143 77.3067 60.8581C76.6445 61.1208 75.9547 61.2734 75.2412 61.2861C73.8948 61.3102 72.6822 60.9012 71.5828 60.1328C70.9906 59.7189 70.4709 59.2359 70.0923 58.614C69.6546 57.8953 69.4068 57.115 69.3296 56.277C69.2125 55.0004 69.5377 53.8081 70.0202 52.6484C70.5842 51.2931 71.4045 50.0988 72.3551 48.9876C73.125 48.0878 73.9888 47.2881 74.897 46.5307C75.7971 45.7802 76.6694 44.9966 77.5754 44.2527C78.1214 43.8044 78.668 43.3571 79.2005 42.8923C79.9993 42.1953 80.6204 41.3666 81.0755 40.4123C81.2362 40.0751 81.2898 39.7078 81.3348 39.3402C81.3888 38.9001 81.3939 38.4612 81.3476 38.0191C81.3225 37.7805 81.3257 37.5375 81.3351 37.2972C81.3435 37.0827 81.4527 37.0275 81.6393 37.1364C81.8931 37.2847 82.0905 37.4997 82.2647 37.7301C83.0616 38.7846 83.5321 39.9563 83.5213 41.2965C83.5203 41.417 83.5213 41.5372 83.5213 41.6284L83.5217 41.6281Z" fill="#CECECE"/>
<path d="M128.329 66.2968C128.329 63.759 128.329 61.2212 128.329 58.6833C128.329 58.4286 128.458 58.3011 128.717 58.3008C131.264 58.3008 133.81 58.3008 136.356 58.3008C136.63 58.3008 136.768 58.4392 136.768 58.7161C136.768 59.4951 136.768 60.2741 136.768 61.0532C136.768 61.1014 136.769 61.1496 136.767 61.1978C136.757 61.407 136.735 61.4345 136.526 61.4362C136.076 61.4398 135.626 61.4376 135.176 61.4376C134.493 61.4376 133.811 61.4376 133.128 61.4376C133.063 61.4376 132.999 61.439 132.935 61.4405C132.84 61.4427 132.784 61.4863 132.78 61.5858C132.779 61.6179 132.777 61.65 132.777 61.682C132.777 62.6057 132.776 63.5291 132.778 64.4527C132.778 64.6863 132.8 64.7048 133.049 64.7058C133.676 64.708 134.302 64.7065 134.929 64.7067C134.993 64.7067 135.057 64.7063 135.122 64.7067C135.41 64.7101 135.425 64.7231 135.427 65.0027C135.429 65.3158 135.427 65.6292 135.427 65.9423C135.427 66.4803 135.429 67.0185 135.427 67.5565C135.426 67.8265 135.41 67.8426 135.138 67.8433C134.472 67.8453 133.805 67.8438 133.138 67.8443C133.066 67.8443 132.993 67.8455 132.921 67.8484C132.836 67.8518 132.787 67.8964 132.782 67.9822C132.778 68.0381 132.777 68.0945 132.777 68.1506C132.777 69.034 132.777 69.9174 132.777 70.8008C132.777 70.857 132.778 70.9134 132.781 70.9693C132.786 71.0541 132.832 71.1026 132.918 71.1077C132.99 71.112 133.062 71.113 133.134 71.113C134.227 71.1132 135.319 71.113 136.412 71.1134C136.752 71.1134 136.767 71.1279 136.767 71.4634C136.769 72.2745 136.768 73.0858 136.767 73.8969C136.767 73.9531 136.765 74.0092 136.763 74.0654C136.758 74.1934 136.69 74.2536 136.562 74.2515C136.49 74.2503 136.418 74.2531 136.346 74.2531C133.815 74.2531 131.285 74.2531 128.755 74.2531C128.31 74.2531 128.328 74.2722 128.328 73.8374C128.328 71.3236 128.328 68.8099 128.328 66.2961L128.329 66.2968Z" fill="#CECECE"/>
<path d="M182.141 82.7345C182.187 82.8068 182.273 82.8155 182.344 82.8452C183.144 83.1792 183.526 83.7488 183.527 84.6204C183.529 85.4792 183.529 86.3382 183.527 87.197C183.525 88.0067 183.166 88.5263 182.409 88.8194C181.879 89.0246 181.322 89.1036 180.76 89.1328C179.107 89.2181 177.453 89.1598 175.8 89.1754C175.752 89.1759 175.704 89.1735 175.656 89.1713C175.539 89.166 175.48 89.1041 175.477 88.9886C175.475 88.9166 175.474 88.8443 175.474 88.772C175.474 85.0154 175.474 81.2589 175.474 77.5024C175.474 77.252 175.597 77.1266 175.844 77.1261C177.217 77.1261 178.589 77.1228 179.962 77.1276C180.656 77.13 181.339 77.2168 181.998 77.4491C182.304 77.5571 182.585 77.7114 182.829 77.9245C183.212 78.2576 183.368 78.6943 183.374 79.1887C183.381 79.7423 183.381 80.2965 183.373 80.8501C183.37 81.0336 183.344 81.2187 183.308 81.399C183.194 81.9678 182.856 82.3614 182.336 82.6075C182.272 82.6381 182.197 82.6506 182.147 82.7083C182.143 82.7133 182.144 82.723 182.141 82.7343L182.141 82.7345ZM178.853 85.5378C178.853 85.9786 178.851 86.4195 178.854 86.8603C178.855 87.0835 178.879 87.1047 179.105 87.1093C179.274 87.1127 179.442 87.1042 179.61 87.111C179.856 87.1209 179.998 86.9924 180.083 86.7781C180.125 86.6725 180.145 86.5626 180.145 86.4491C180.145 85.8559 180.145 85.2627 180.144 84.6696C180.144 84.5476 180.12 84.43 180.07 84.3191C179.994 84.1475 179.875 84.0352 179.675 84.0127C179.483 83.991 179.291 83.985 179.099 83.9884C178.873 83.9922 178.855 84.0091 178.853 84.2393C178.851 84.6722 178.852 85.1051 178.852 85.538L178.853 85.5378ZM178.853 80.3734H178.852C178.852 80.6857 178.851 80.9981 178.852 81.3105C178.854 81.6065 178.863 81.6147 179.168 81.6166C179.296 81.6176 179.424 81.6178 179.553 81.6166C179.893 81.6128 180.029 81.5062 180.107 81.1753C180.128 81.0902 180.141 81.0015 180.142 80.9145C180.145 80.5621 180.143 80.2097 180.143 79.8573C180.143 79.7353 180.116 79.6192 180.075 79.5054C179.995 79.2856 179.841 79.1667 179.604 79.1638C179.428 79.1614 179.252 79.1593 179.076 79.1634C178.878 79.1682 178.856 79.1884 178.854 79.3885C178.85 79.7168 178.852 80.0453 178.852 80.3736L178.853 80.3734Z" fill="#CECECE"/>
<path d="M118.696 83.1142C118.696 84.4794 118.695 85.8449 118.698 87.2101C118.698 87.3962 118.682 87.5801 118.644 87.7604C118.547 88.2268 118.29 88.5777 117.867 88.8067C117.45 89.0325 116.998 89.1432 116.535 89.2037C115.52 89.3358 114.502 89.3362 113.482 89.2692C112.959 89.2348 112.443 89.169 111.943 89.0067C111.859 88.9795 111.777 88.9465 111.695 88.9132C110.998 88.6283 110.677 88.0906 110.65 87.3554C110.648 87.3072 110.649 87.259 110.649 87.2108C110.649 84.4801 110.649 81.7495 110.647 79.0188C110.647 78.8409 110.664 78.6661 110.699 78.4924C110.796 78.0033 111.074 77.6521 111.511 77.4169C111.966 77.172 112.462 77.0727 112.966 77.016C113.612 76.9432 114.263 76.9018 114.913 76.9239C115.586 76.9471 116.261 76.9608 116.925 77.1035C117.185 77.1594 117.437 77.2344 117.682 77.3412C118.373 77.6432 118.686 78.1884 118.694 78.9214C118.703 79.7004 118.696 80.4794 118.696 81.2585C118.696 81.877 118.696 82.4952 118.696 83.1137V83.1142ZM114.028 83.1089C114.028 84.1926 114.028 85.2763 114.027 86.3597C114.027 86.5212 114.035 86.681 114.085 86.8355C114.171 87.1002 114.388 87.2629 114.66 87.2677C114.943 87.2725 115.172 87.1096 115.259 86.8358C115.299 86.7128 115.317 86.586 115.317 86.4564C115.316 84.241 115.316 82.0254 115.317 79.8101C115.317 79.664 115.296 79.5216 115.248 79.3842C115.152 79.1096 114.98 78.9908 114.684 78.9879C114.372 78.985 114.196 79.1022 114.096 79.3837C114.036 79.5524 114.026 79.7281 114.027 79.906C114.028 80.9736 114.027 82.0411 114.027 83.1089H114.028Z" fill="#CECECE"/>
<path d="M166.511 82.3944C166.511 80.7641 166.511 79.134 166.511 77.5036C166.511 77.2518 166.633 77.1257 166.879 77.1252C167.762 77.1249 168.646 77.1252 169.529 77.1252C169.593 77.1252 169.658 77.1271 169.722 77.1286C169.829 77.1312 169.884 77.1866 169.886 77.2934C169.887 77.3816 169.889 77.4701 169.889 77.5583C169.889 80.4736 169.889 83.3887 169.889 86.304C169.889 86.4807 169.886 86.6571 169.938 86.8294C170.026 87.1197 170.25 87.2925 170.541 87.2893C170.823 87.2865 171.041 87.117 171.127 86.8384C171.18 86.6665 171.179 86.4901 171.179 86.3132C171.179 83.3899 171.179 80.4666 171.179 77.5434C171.179 77.4552 171.18 77.3667 171.184 77.2785C171.188 77.1818 171.242 77.1334 171.337 77.1293C171.393 77.1266 171.449 77.1252 171.505 77.1252C172.413 77.1249 173.321 77.1249 174.228 77.1252C174.293 77.1252 174.357 77.1264 174.421 77.1317C174.494 77.138 174.54 77.1809 174.547 77.2539C174.555 77.3255 174.557 77.398 174.557 77.4701C174.558 80.7388 174.557 84.0072 174.559 87.2758C174.559 87.4622 174.538 87.6458 174.496 87.8252C174.392 88.2708 174.137 88.6059 173.731 88.8264C173.315 89.053 172.863 89.1641 172.4 89.2246C171.385 89.3572 170.367 89.3577 169.348 89.2909C168.824 89.2567 168.309 89.1916 167.809 89.0296C167.732 89.0048 167.657 88.9756 167.583 88.946C166.864 88.6603 166.529 88.1139 166.512 87.3571C166.504 87.0119 166.51 86.6665 166.51 86.3211C166.51 85.0121 166.51 83.703 166.51 82.3939L166.511 82.3944Z" fill="#CECECE"/>
<path d="M125.815 83.3634C126.092 83.4948 126.356 83.5926 126.591 83.7483C126.879 83.94 127.148 84.1518 127.37 84.4223C127.657 84.7715 127.804 85.1649 127.802 85.6183C127.8 86.4371 127.801 87.2559 127.805 88.0747C127.807 88.3473 127.803 88.6196 127.845 88.8915C127.882 89.1321 127.842 89.1735 127.592 89.1742C126.773 89.1767 125.953 89.1776 125.135 89.174C124.793 89.1726 124.64 89.0518 124.545 88.7204C124.46 88.4254 124.431 88.1207 124.429 87.8155C124.422 87.0288 124.423 86.2421 124.424 85.4553C124.424 85.2775 124.414 85.1005 124.362 84.9313C124.284 84.6809 124.144 84.4787 123.808 84.5001C123.672 84.5088 123.535 84.4994 123.399 84.5018C123.152 84.5064 123.131 84.5293 123.127 84.7848C123.125 84.8489 123.126 84.9132 123.126 84.9774C123.126 86.2057 123.126 87.4337 123.126 88.6621C123.126 88.7182 123.127 88.7744 123.126 88.8305C123.124 89.1567 123.109 89.1742 122.789 89.175C122.107 89.1764 121.424 89.1755 120.742 89.1755C120.525 89.1755 120.308 89.1762 120.092 89.1755C119.757 89.174 119.75 89.1673 119.749 88.844C119.749 88.8199 119.749 88.7958 119.749 88.7717C119.749 85.0227 119.749 81.2739 119.749 77.5248C119.749 77.259 119.88 77.126 120.143 77.1257C121.42 77.1257 122.696 77.1237 123.973 77.1264C124.713 77.1281 125.449 77.1809 126.168 77.3725C126.519 77.466 126.849 77.6056 127.124 77.8591C127.445 78.1549 127.606 78.5256 127.612 78.9493C127.626 79.8482 127.63 80.7477 127.612 81.6465C127.6 82.266 127.304 82.7304 126.744 83.0166C126.528 83.1267 126.302 83.2072 126.067 83.2667C125.992 83.2858 125.908 83.2841 125.816 83.3636L125.815 83.3634ZM123.127 80.799C123.127 81.2565 123.124 81.7142 123.128 82.1717C123.129 82.4063 123.157 82.4308 123.394 82.4347C123.539 82.4371 123.684 82.4361 123.828 82.4304C124.092 82.4198 124.261 82.279 124.345 82.0336C124.397 81.8808 124.422 81.7229 124.421 81.5605C124.42 81.0627 124.42 80.565 124.421 80.0673C124.422 79.9378 124.404 79.811 124.376 79.6855C124.301 79.3497 124.093 79.1754 123.75 79.1629C123.63 79.1586 123.51 79.1595 123.389 79.1619C123.149 79.1663 123.129 79.1839 123.127 79.4261C123.124 79.8836 123.127 80.3413 123.127 80.7988V80.799Z" fill="#CECECE"/>
<path d="M101.875 83.1403C101.875 81.2614 101.875 79.3826 101.875 77.5039C101.875 77.2523 101.998 77.1262 102.244 77.1258C103.585 77.1255 104.926 77.1238 106.267 77.1265C106.999 77.1279 107.726 77.1826 108.44 77.3605C108.628 77.4073 108.809 77.4731 108.983 77.5565C109.589 77.8481 109.916 78.3314 109.926 79.0051C109.938 79.7918 109.929 80.5788 109.929 81.3655C109.929 82.0882 109.931 82.8108 109.929 83.5334C109.926 84.3372 109.55 84.8675 108.798 85.1474C108.242 85.3542 107.661 85.4344 107.075 85.4663C106.563 85.494 106.05 85.5289 105.535 85.5152C105.271 85.5082 105.255 85.5318 105.255 85.8076C105.254 86.8112 105.255 87.8149 105.254 88.8186C105.254 89.1613 105.242 89.1746 104.906 89.175C104.006 89.1763 103.107 89.1755 102.207 89.1753C102.167 89.1753 102.127 89.1763 102.087 89.1726C101.923 89.1577 101.891 89.1285 101.879 88.9692C101.873 88.8894 101.876 88.8087 101.876 88.7284C101.876 86.8657 101.876 85.003 101.876 83.1403H101.875ZM105.254 81.2997C105.254 81.3559 105.254 81.4121 105.254 81.4685C105.254 82.0465 105.253 82.6247 105.256 83.2027C105.257 83.4167 105.283 83.4411 105.489 83.4464C105.649 83.4505 105.81 83.4474 105.97 83.4437C106.237 83.438 106.399 83.2895 106.493 83.0521C106.551 82.9065 106.55 82.7534 106.55 82.6008C106.551 81.7418 106.551 80.8828 106.55 80.0235C106.55 79.9193 106.549 79.8138 106.533 79.7113C106.486 79.4129 106.306 79.2213 106.024 79.1767C105.817 79.1442 105.607 79.161 105.398 79.1661C105.313 79.168 105.265 79.215 105.259 79.3006C105.256 79.3647 105.255 79.4291 105.255 79.4932C105.255 80.0953 105.255 80.6976 105.255 81.2997H105.254Z" fill="#CECECE"/>
<path d="M151.184 83.0924C151.184 81.7272 151.185 80.362 151.183 78.9968C151.183 78.7697 151.214 78.5492 151.276 78.3315C151.389 77.9297 151.647 77.6455 152.003 77.4418C152.466 77.1767 152.979 77.0752 153.499 77.0164C154.153 76.9427 154.812 76.901 155.47 76.9246C156.094 76.947 156.722 76.9607 157.336 77.1051C157.58 77.1625 157.813 77.2408 158.041 77.3464C158.596 77.6038 158.873 78.0526 158.889 78.6427C158.911 79.5094 158.897 80.3772 158.894 81.2444C158.893 81.4478 158.855 81.4876 158.653 81.4886C157.802 81.4924 156.95 81.4927 156.099 81.4886C155.886 81.4876 155.855 81.4493 155.853 81.2251C155.85 80.7754 155.851 80.3256 155.852 79.876C155.853 79.7225 155.842 79.5711 155.796 79.4239C155.702 79.1216 155.525 78.9895 155.212 78.9881C154.895 78.9869 154.716 79.1146 154.622 79.414C154.58 79.5449 154.562 79.6796 154.562 79.8175C154.563 82.0258 154.563 84.2344 154.562 86.4428C154.562 86.5807 154.579 86.7156 154.623 86.846C154.711 87.1085 154.933 87.2678 155.206 87.2683C155.479 87.2688 155.701 87.1105 155.79 86.8482C155.837 86.7101 155.852 86.5669 155.852 86.4211C155.851 85.9713 155.851 85.5216 155.852 85.072C155.853 84.7823 155.867 84.7671 156.146 84.7664C156.966 84.7649 157.785 84.7649 158.604 84.7664C158.874 84.7669 158.894 84.7862 158.895 85.052C158.897 85.8711 158.902 86.6903 158.893 87.5094C158.885 88.2072 158.559 88.6967 157.903 88.9611C157.473 89.1344 157.023 89.2074 156.567 89.2559C155.854 89.3316 155.139 89.3224 154.425 89.2981C153.775 89.2759 153.126 89.2212 152.501 89.0151C152.44 88.9951 152.379 88.9746 152.319 88.9512C151.555 88.6509 151.192 88.1305 151.184 87.3086C151.178 86.6583 151.183 86.0077 151.183 85.3572C151.183 84.6022 151.183 83.8473 151.183 83.0927L151.184 83.0924Z" fill="#CECECE"/>
<path d="M99.6786 80.4869C99.3091 80.4869 98.9396 80.4901 98.5703 80.4857C98.3522 80.4831 98.3199 80.45 98.3146 80.2314C98.3088 79.9906 98.3158 79.7496 98.3107 79.5088C98.3057 79.2719 98.21 79.1297 97.9812 79.0639C97.6043 78.9554 97.2171 78.9458 96.8397 79.0487C96.4832 79.1458 96.3651 79.3401 96.3817 79.7098C96.3931 79.9608 96.4984 80.175 96.6392 80.3741C96.8879 80.7256 97.2056 81.0095 97.5505 81.2604C98.2126 81.7422 98.8861 82.2086 99.5465 82.6926C99.9871 83.0156 100.405 83.3661 100.744 83.8016C101.058 84.2032 101.219 84.6448 101.207 85.1611C101.19 85.8593 101.203 86.5581 101.202 87.2566C101.202 87.3528 101.2 87.4494 101.19 87.5451C101.116 88.2702 100.712 88.7313 100.04 88.9783C99.5993 89.1405 99.1394 89.2112 98.6754 89.2582C98.0111 89.3256 97.3442 89.3201 96.6782 89.3052C96.0182 89.2905 95.3646 89.2126 94.7292 89.0248C94.3175 88.9031 93.929 88.7349 93.6265 88.4124C93.4426 88.2164 93.3363 87.9879 93.3346 87.7192C93.3307 87.0929 93.3307 86.4665 93.3336 85.8403C93.3346 85.6289 93.3625 85.5973 93.5686 85.5964C94.3074 85.5925 95.0464 85.5928 95.7852 85.5964C96.0009 85.5973 96.0332 85.6335 96.0382 85.8533C96.0433 86.078 96.0387 86.3028 96.0407 86.5277C96.044 86.9269 96.1915 87.1204 96.5765 87.2123C96.8927 87.2877 97.2114 87.2978 97.531 87.2185C97.9986 87.1023 98.236 86.728 98.1321 86.2539C98.0615 85.9319 97.8952 85.6598 97.6749 85.4187C97.294 85.002 96.8575 84.6489 96.4056 84.3131C95.8642 83.9111 95.3041 83.5336 94.7931 83.0918C94.3609 82.7182 93.9441 82.3289 93.6846 81.8051C93.5542 81.5417 93.4843 81.2664 93.4862 80.9702C93.4905 80.2717 93.4802 79.5729 93.4903 78.8744C93.4977 78.3649 93.6491 77.9086 94.0639 77.5752C94.312 77.3759 94.5988 77.2496 94.9039 77.1691C95.3631 77.0479 95.8307 76.9729 96.3065 76.9628C96.7076 76.9541 97.1077 76.8999 97.5095 76.9242C98.2456 76.9686 98.9878 76.9579 99.7075 77.1561C100.083 77.2595 100.44 77.3945 100.713 77.6931C100.9 77.8977 101.012 78.1325 101.015 78.4082C101.022 79.0265 101.022 79.6448 101.019 80.263C101.018 80.4534 100.986 80.4828 100.787 80.4855C100.418 80.4905 100.048 80.4869 99.6788 80.4872L99.6786 80.4869Z" fill="#CECECE"/>
<path d="M143.203 80.4862C142.833 80.4862 142.464 80.4893 142.094 80.485C141.875 80.4826 141.843 80.4496 141.837 80.2319C141.832 79.9911 141.839 79.7501 141.833 79.5093C141.829 79.2716 141.733 79.1297 141.505 79.0634C141.128 78.9542 140.741 78.945 140.364 79.0475C140.007 79.1444 139.888 79.3384 139.905 79.7077C139.916 79.9586 140.02 80.1731 140.161 80.3722C140.41 80.7236 140.727 81.0078 141.072 81.259C141.734 81.741 142.408 82.2072 143.068 82.6912C143.509 83.0142 143.927 83.3644 144.267 83.7999C144.58 84.2013 144.742 84.6428 144.729 85.1591C144.713 85.8574 144.726 86.5562 144.725 87.2547C144.725 87.3509 144.723 87.4475 144.713 87.5432C144.639 88.268 144.236 88.7298 143.564 88.9774C143.123 89.1398 142.663 89.2102 142.199 89.2577C141.559 89.3232 140.917 89.3172 140.274 89.3066C139.589 89.2953 138.912 89.2182 138.253 89.0246C137.849 88.9063 137.468 88.7411 137.167 88.4304C136.967 88.2246 136.857 87.9833 136.856 87.696C136.854 87.0778 136.853 86.4595 136.856 85.8413C136.857 85.6287 136.885 85.5971 137.09 85.5961C137.837 85.5923 138.583 85.5923 139.33 85.5966C139.518 85.5976 139.554 85.6371 139.56 85.8275C139.567 86.0601 139.561 86.2932 139.563 86.526C139.566 86.9262 139.713 87.1192 140.097 87.2115C140.414 87.2872 140.732 87.2976 141.052 87.2183C141.52 87.1024 141.758 86.7285 141.654 86.2546C141.582 85.9242 141.409 85.6475 141.182 85.4011C140.799 84.9861 140.362 84.6342 139.909 84.2991C139.368 83.8976 138.807 83.5196 138.298 83.0768C137.872 82.7076 137.463 82.3224 137.207 81.8056C137.077 81.5419 137.007 81.2669 137.008 80.9709C137.013 80.2724 137.002 79.5737 137.013 78.8751C137.02 78.3658 137.171 77.9091 137.585 77.5755C137.833 77.3759 138.12 77.2494 138.425 77.1689C138.884 77.0474 139.352 76.971 139.827 76.9625C140.205 76.9558 140.58 76.9023 140.958 76.9225C141.719 76.9635 142.484 76.9541 143.228 77.1551C143.604 77.2566 143.96 77.3928 144.234 77.6914C144.421 77.8958 144.534 78.1306 144.537 78.4063C144.544 79.0246 144.543 79.6428 144.541 80.2611C144.54 80.4522 144.508 80.4821 144.31 80.4848C143.941 80.4898 143.572 80.4862 143.202 80.4865L143.203 80.4862Z" fill="#CECECE"/>
<path d="M70.9122 68.7561C70.7767 68.666 70.715 68.5715 70.6487 68.4835C70.2908 68.0084 69.8967 67.5657 69.4833 67.1373C68.9979 66.6343 68.4315 66.2494 67.8262 65.9093C66.9284 65.4046 65.9763 65.0153 65.0449 64.5819C64.4192 64.2905 63.7949 63.9955 63.1538 63.738C61.6738 63.1439 60.1437 62.7187 58.5924 62.3617C57.8409 62.1889 57.0836 62.0443 56.3185 61.9493C55.6979 61.8724 55.0765 61.7943 54.4498 61.7753C54.2333 61.7688 54.0174 61.7399 53.8012 61.7387C52.6076 61.7329 51.4328 61.8905 50.2695 62.1501C49.6657 62.2848 49.0665 62.434 48.4844 62.6471C48.0819 62.7944 47.7102 62.9981 47.3532 63.2321C47.313 63.2586 47.2766 63.2912 47.2344 63.3141C47.1636 63.3526 47.1238 63.3177 47.124 63.2468C47.124 63.1837 47.1344 63.1183 47.1525 63.0578C47.5629 61.6914 48.3661 60.6297 49.6038 59.9058C50.5267 59.3662 51.5335 59.0849 52.5827 58.9287C53.4772 58.7954 54.3777 58.7993 55.2746 58.8458C56.2783 58.8978 57.2665 59.0755 58.2364 59.3493C59.04 59.5761 59.8465 59.7945 60.6376 60.0616C61.8703 60.4778 63.0923 60.9187 64.2384 61.5502C65.1452 62.0498 66.0717 62.5141 66.9739 63.0229C67.1277 63.1097 67.2803 63.1993 67.4278 63.2962C68.1128 63.745 68.793 64.2016 69.4816 64.6448C69.7065 64.7894 69.8138 64.9572 69.8478 65.2399C69.9806 66.3451 70.2399 67.4196 70.7786 68.409C70.8302 68.5038 70.9028 68.5937 70.9117 68.7566L70.9122 68.7561Z" fill="#CECECE"/>
<path d="M133.79 84.3116C133.79 85.8052 133.79 87.2992 133.79 88.7929C133.79 89.1686 133.784 89.1744 133.418 89.1749C132.543 89.1756 131.667 89.1756 130.791 89.1749C130.419 89.1747 130.411 89.1674 130.411 88.8006C130.411 85.8371 130.411 82.8736 130.411 79.9103C130.411 79.4769 130.426 79.4981 130.007 79.4984C129.461 79.4986 128.915 79.4998 128.369 79.4976C128.111 79.4964 128.091 79.4771 128.09 79.2255C128.087 78.6152 128.087 78.0047 128.09 77.3944C128.091 77.1466 128.112 77.1268 128.373 77.1261C129.184 77.1242 129.995 77.1254 130.807 77.1254C132.453 77.1254 134.1 77.1254 135.747 77.1254C136.01 77.1254 136.142 77.2608 136.142 77.5318C136.143 78.0538 136.142 78.5757 136.142 79.0978C136.142 79.138 136.143 79.178 136.142 79.2183C136.134 79.467 136.108 79.4959 135.861 79.4974C135.315 79.5 134.769 79.4984 134.223 79.4986C134.134 79.4986 134.046 79.5005 133.957 79.5008C133.85 79.5008 133.793 79.5523 133.793 79.6618C133.792 79.7341 133.79 79.8064 133.79 79.8785C133.79 81.3562 133.79 82.8338 133.79 84.3116H133.79Z" fill="#CECECE"/>
<path d="M159.329 83.1431C159.329 81.264 159.329 79.3849 159.329 77.5058C159.329 77.2523 159.459 77.1253 159.719 77.125C160.586 77.125 161.454 77.125 162.321 77.125C162.393 77.125 162.466 77.1269 162.538 77.1281C162.644 77.1301 162.702 77.1831 162.704 77.2908C162.706 77.3791 162.708 77.4675 162.708 77.5557C162.708 80.4949 162.708 83.4341 162.708 86.373C162.708 86.6386 162.839 86.7716 163.102 86.7719C163.832 86.7719 164.563 86.7719 165.294 86.7719C165.359 86.7719 165.423 86.7695 165.487 86.7741C165.666 86.7864 165.697 86.8112 165.698 86.9929C165.702 87.6435 165.702 88.2938 165.698 88.9443C165.697 89.1374 165.666 89.1625 165.472 89.1733C165.416 89.1765 165.36 89.1748 165.304 89.1748C163.448 89.1748 161.593 89.1748 159.737 89.1748C159.465 89.1748 159.329 89.0354 159.329 88.7566C159.329 86.8854 159.329 85.0145 159.329 83.1434L159.329 83.1431Z" fill="#CECECE"/>
<path d="M65.2003 67.999C65.1184 68.0638 65.0538 68.0344 64.9914 68.033C64.1085 68.013 63.2234 67.9802 62.3477 68.12C61.1596 68.3097 60.0861 68.7585 59.2728 69.6768C58.3627 70.7043 57.9423 71.9016 58.0869 73.2916C58.1889 74.2702 58.3878 75.2264 58.6558 76.1686C58.9971 77.368 59.5394 78.4738 60.2705 79.4862C60.4582 79.7465 60.6407 80.0111 60.8135 80.2816C61.2387 80.9464 61.7073 81.5757 62.2718 82.1306C62.3294 82.1872 62.4468 82.2557 62.379 82.3415C62.3152 82.4225 62.2149 82.3328 62.144 82.2916C61.5735 81.9592 61.0338 81.5812 60.5549 81.1267C59.9027 80.5079 59.2683 79.8706 58.6201 79.248C58.0385 78.6893 57.5386 78.0638 57.0693 77.4109C56.4638 76.5687 55.8962 75.7041 55.4575 74.7607C55.1082 74.0096 54.7816 73.2511 54.6563 72.4229C54.5387 71.647 54.5187 70.8757 54.7142 70.1066C55.0617 68.7394 55.907 67.8054 57.1879 67.251C57.8281 66.9739 58.5037 66.8413 59.1981 66.7986C59.3823 66.7873 59.5659 66.7683 59.7503 66.7601C60.6325 66.7205 61.4935 66.8777 62.3516 67.0529C63.2268 67.2315 64.08 67.4856 64.906 67.8266C65.0063 67.8681 65.1198 67.8929 65.2003 67.9987V67.999Z" fill="#CECECE"/>
<path d="M55.8178 67.4171C55.7838 67.3494 55.8014 67.313 55.8178 67.2763C56.1208 66.5901 56.538 65.9858 57.1235 65.5115C57.7482 65.0055 58.4855 64.7727 59.2713 64.6715C59.9616 64.5825 60.6483 64.6201 61.3353 64.7161C62.2187 64.8392 63.0999 64.9689 63.9529 65.2418C64.5584 65.4353 65.1432 65.6833 65.7183 65.9497C67.2442 66.6561 68.7049 67.4788 70.0716 68.4622C70.4235 68.7155 70.7742 68.9703 71.13 69.2183C71.2915 69.3309 71.3741 69.4827 71.4274 69.6681C71.5337 70.0371 71.5028 70.4172 71.5392 70.7918C71.5431 70.8311 71.5392 70.8779 71.4913 70.8911C71.4486 70.9029 71.4178 70.8692 71.3859 70.8456C71.0058 70.5628 70.6315 70.2719 70.2446 69.999C69.0735 69.1728 67.8512 68.4328 66.5086 67.918C65.4141 67.4983 64.3109 67.0943 63.152 66.8849C62.2281 66.7178 61.303 66.5392 60.3651 66.4807C58.9064 66.3898 57.4997 66.6212 56.1735 67.2638C56.0598 67.319 55.9523 67.3925 55.818 67.4176L55.8178 67.4171Z" fill="#CECECE"/>
</g>
</g>
<defs>
<clipPath id="clip0_580_169">
<rect width="231" height="127" fill="white"/>
</clipPath>
<clipPath id="clip1_580_169">
<rect width="137.582" height="65.4863" fill="white" transform="translate(46.2085 30.7539)"/>
</clipPath>
</defs>
</svg>
