<?xml version="1.0" encoding="utf-8"?>
<!-- Generator: Adobe Illustrator 27.4.0, SVG Export Plug-In . SVG Version: 6.00 Build 0)  -->
<svg version="1.1" id="Layer_1" xmlns="http://www.w3.org/2000/svg" xmlns:xlink="http://www.w3.org/1999/xlink" x="0px" y="0px"
	 viewBox="0 0 50 45" style="enable-background:new 0 0 50 45;" xml:space="preserve">
<style type="text/css">
	.st0{fill:#FFFFFF;}
</style>
<path class="st0" d="M35.1,6.6c-3.4-1.4-6.8-2.8-10.3-4.2C21.4,3.7,18,5.1,14.6,6.6c-3.4,1.4-6.7,2.8-10.1,4.2l0,5.8H1.7v1.1h2.8
	v18.5H1.7v6.7h46.2v-6.7h-2.7V17.6h2.7v-1.1h-2.8l0-2.9c0-1,0-1.9,0-2.9C41.8,9.3,38.4,7.9,35.1,6.6z M5.6,12.2c0-0.6,0.6-1,0.9-1.1
	L16.4,7c2.6-1.1,5.1-2.1,7.7-3.2c0.4-0.2,1-0.2,1.4,0c3.6,1.5,7.2,3,10.8,4.4l6.7,2.8c0.7,0.3,1,0.8,1,1.5c0,0.7,0,1.3,0,2l0,1.9
	H5.6l0-1.5C5.6,14,5.6,13.1,5.6,12.2z M36.5,22.1c-1.7-0.2-3.3,0.9-3.7,2.6c-0.1,0.3-0.1,0.7-0.1,1v10l0,0.4h-4.5V25.8
	c0-1.8-0.9-3.1-2.5-3.5c-1-0.3-2.1-0.1-2.9,0.5c-0.8,0.6-1.3,1.5-1.4,2.4c-0.1,1.7-0.1,3.4-0.1,5l0,5.9h-4.5l0-4.5c0-2,0-4.1,0-6.1
	c0-1.8-1.2-3.1-2.9-3.5c-0.9-0.2-1.9,0.1-2.7,0.8c-0.8,0.6-1.2,1.5-1.2,2.4c0,2.1,0,4.2,0,6.3l0,4.5H5.6V17.6H44v18.5h-4.5V25.5
	C39.5,23.8,38.2,22.3,36.5,22.1z M38.4,25.6v10.5h-4.5V25.7c0-1.5,0.9-2.1,1.4-2.3c0.7-0.3,1.5-0.2,2.1,0.2
	C38,24,38.4,24.8,38.4,25.6z M27.1,25.5c0,0,0,9.7,0,9.8l0,0.9h-4.5V25.5c0-1.2,0.8-2.1,2-2.3c1.1-0.2,2.1,0.6,2.4,1.6
	C27.1,25,27.1,25.3,27.1,25.5z M15.8,36.1h-4.6V25.7c0-1.2,0.6-2.1,1.7-2.4c0.6-0.2,1.2-0.1,1.8,0.2c0.5,0.3,0.9,0.9,1,1.5
	c0.1,0.2,0.1,0.5,0.1,0.7V36.1z M46.8,37.3v4.4h-44v-4.4H46.8z"/>
</svg>
