<svg width="243" height="47" viewBox="0 0 243 47" fill="none" xmlns="http://www.w3.org/2000/svg">
<g clip-path="url(#clip0_2622_1204)">
<path d="M130.037 16.3647V20.5411C130.92 19.0069 132.952 15.5611 139.482 15.7437V22.9764C137.248 22.8738 135.04 23.4831 133.17 24.7176C130.17 27.0067 130.062 30.002 130.062 34.8847V46.038H123.289V16.3404L130.037 16.3647ZM142.3 25.2899C142.35 23.6714 142.763 22.0852 143.509 20.6507C146.315 15.5367 153.28 15.5611 155.155 15.5855C158.184 15.4541 161.196 16.1125 163.898 17.4971C167.321 19.6279 167.381 22.3676 167.381 25.5577L167.321 41.131C167.321 43.3715 167.321 44.2847 168.53 46.0015H160.234L160.077 43.5663C157.618 45.5243 154.565 46.5731 151.43 46.5373C144.827 46.5373 140.861 42.3852 140.897 37.3199C140.886 35.9328 141.205 34.5632 141.828 33.3261C143.945 29.101 148.443 28.1878 151.249 27.6399C160.802 26.0326 160.234 25.0829 160.101 23.6582C159.968 22.2336 158.577 21.016 155.373 21.016C152.458 21.016 150.874 21.9292 150.172 22.879C149.901 23.2038 149.698 23.5805 149.576 23.9865C149.453 24.3925 149.413 24.8193 149.459 25.2411H142.36L142.3 25.2899ZM160.331 31.244C158.387 32.1382 156.32 32.7294 154.2 32.9974C151.684 33.3383 148.371 33.9106 148.346 37.0399C148.346 39.329 150.269 40.5101 153.051 40.5101C156.679 40.5101 159.097 38.8906 159.908 37.1129C160.242 36.2747 160.386 35.3721 160.331 34.4707V31.244ZM198.739 4.45644L198.606 46.038H191.64V43.1523C190.659 44.3474 189.418 45.2987 188.013 45.9322C186.608 46.5658 185.076 46.8645 183.538 46.8051C176.572 46.8051 170.586 41.5207 170.61 31.8285C170.61 23.0616 175.556 15.5976 183.913 15.6342C185.364 15.5748 186.81 15.8411 188.147 16.4139C189.483 16.9868 190.676 17.8517 191.64 18.9461V4.44425L198.739 4.45644ZM190.068 24.9367C189.511 24.0816 188.747 23.3835 187.848 22.9084C186.948 22.4333 185.943 22.1969 184.928 22.2215C180.188 22.2215 177.914 26.4709 177.89 31.1344C177.89 31.6702 177.89 40.4857 184.735 40.5101C188.363 40.5101 191.64 37.8191 191.592 31.4875C191.688 29.2048 191.161 26.9392 190.068 24.9367ZM210.941 4.45644L210.808 46.038H203.733V4.45644H210.941ZM242.274 39.1342C239.009 44.9057 234.909 47 228.972 47C221.317 47 213.988 42.1295 214.012 31.244C214.012 21.357 220.385 15.8046 228.597 15.829C236.3 15.829 239.481 20.5168 240.073 21.4057C242.492 24.8272 242.963 29.929 243.024 32.8878L221.401 32.8026C222.2 37.466 225.029 40.1083 229.673 40.1083C234.51 40.1083 235.719 37.2834 236.602 36.0658L242.274 39.1342ZM235.321 27.6642C234.704 23.0738 231.886 21.4665 228.79 21.4665C225.041 21.4665 222.466 23.6217 221.643 27.5546L235.321 27.6642ZM101.703 24.3158V30.4038H112.031V37.5756C109.04 39.47 105.547 40.4003 102.018 40.2422C95.0398 40.2422 89.2834 34.3368 89.2834 25.1559C89.2834 16.1577 94.5802 10.1184 102.586 10.1184C104.739 10.0903 106.837 10.808 108.528 12.1513C110.219 13.4945 111.4 15.3818 111.874 17.4971H118.96C118.96 13.3572 114.123 3.16577 102.03 3.16577C89.2109 3.16577 81.6406 12.3222 81.6406 25.2046C81.6406 38.5984 90.7105 46.9756 101.582 46.9756C117.63 46.9756 119.057 38.8663 119.057 38.8663V24.3158H101.703Z" fill="white"/>
<path d="M74.3014 11.8717C74.2259 10.6506 73.9985 9.44382 73.6242 8.27977C72.6598 5.8602 71.0533 3.75411 68.9804 2.19169C67.239 0.584433 64.506 -0.657549 63.6232 0.389601C63.4176 0.657477 62.3414 1.49764 61.8576 2.14297C61.6594 2.37899 61.5296 2.6655 61.4827 2.97096C61.4733 3.0893 61.4986 3.2078 61.5553 3.31189C61.5886 3.36275 61.6249 3.41153 61.6641 3.458C61.7397 3.54819 61.8248 3.62983 61.918 3.70152C62.1753 3.92656 62.4504 4.13016 62.7404 4.31033C64.5628 5.31633 65.9946 6.91235 66.8037 8.83986C67.3116 10.1914 68.4846 13.3451 66.4529 15.2202C65.7719 15.9098 64.8744 16.3401 63.9134 16.4378C61.6762 16.5717 58.157 14.6479 50.8769 7.82924C43.9597 1.22976 35.4824 0.377427 28.819 1.09582C25.5604 1.44857 22.3491 2.15484 19.2412 3.20231C15.456 4.41993 13.1946 5.73495 13.1946 7.93884C13.196 8.57598 13.3278 9.20598 13.5817 9.7896C13.6735 10.0306 13.7785 10.2664 13.8961 10.4958C15.207 13.2835 16.6934 15.984 18.3463 18.5808C22.5184 25.5943 31.6488 15.3541 31.6488 15.3541C24.8524 25.6673 19.0115 23.159 16.7622 19.5793C15.3993 17.3295 14.1872 14.9905 13.1342 12.578C-4.09853 18.8487 0.557312 46.4399 0.557312 46.4399H9.11922C11.3081 36.285 19.0962 36.6989 20.4385 46.4399H26.9687C32.7493 26.5805 45.1085 46.4399 45.1085 46.4399H52.437C52.437 35.8588 51.3487 31.8285 56.718 31.1344C65.933 29.9168 70.214 25.5334 72.9954 18.9583C73.2371 18.3735 73.447 17.7761 73.6242 17.1684C73.6242 17.0588 73.6242 16.9492 73.7209 16.8396C73.8298 16.4256 73.9265 16.036 74.0112 15.622C74.0958 15.208 74.1079 15.1106 74.1442 14.8549C74.1805 14.5992 74.2047 14.3922 74.2289 14.1487C74.3125 13.3928 74.3366 12.6315 74.3014 11.8717ZM46.1002 20.7603C41.6015 19.2505 43.2099 14.6723 43.2099 14.6723L52.4612 17.765C51.9906 18.9949 51.0654 19.9937 49.8796 20.552C48.6938 21.1104 47.3394 21.1851 46.1002 20.7603Z" fill="white"/>
<path d="M47.987 19.8869C49.2953 19.7471 50.2474 18.6037 50.1134 17.3331C49.9794 16.0626 48.8102 15.146 47.5018 15.2858C46.1934 15.4257 45.2414 16.569 45.3754 17.8396C45.5093 19.1102 46.6786 20.0268 47.987 19.8869Z" fill="white"/>
</g>
<defs>
<clipPath id="clip0_2622_1204">
<rect width="243" height="47" fill="white"/>
</clipPath>
</defs>
</svg>
