<svg width="231" height="127" viewBox="0 0 231 127" fill="none" xmlns="http://www.w3.org/2000/svg">
<g clip-path="url(#clip0_580_310)">
<path d="M136.719 39.6929C136.736 39.6784 136.753 39.664 136.77 39.6471C136.682 39.5628 136.593 39.479 136.505 39.3953C136.302 39.2022 136.1 39.0097 135.902 38.8136C134.57 37.4931 133.126 36.3059 131.577 35.2495C129.314 33.7037 126.889 32.4753 124.301 31.5643C122.319 30.8689 120.291 30.3625 118.213 30.0669C116.885 29.8804 115.55 29.7786 114.208 29.7447C114.089 29.7423 114.065 29.7932 114.065 29.8925C114.065 29.953 114.065 30.0136 114.066 30.0744V30.0763C114.067 30.2195 114.069 30.3631 114.062 30.5055C114.055 30.6678 114.123 30.7163 114.275 30.7139C114.5 30.7103 114.725 30.7211 114.95 30.7319C115.032 30.7358 115.113 30.7397 115.194 30.7429C116.606 30.8011 118.004 30.9634 119.395 31.2009C122.814 31.7872 126.063 32.8727 129.147 34.4572C130.797 35.3052 132.372 36.2744 133.872 37.3696C134.863 38.094 135.81 38.8691 136.719 39.6929Z" fill="#EEEEEE"/>
<path d="M90.6593 87.1134C90.6692 87.1249 90.6794 87.1361 90.6897 87.1473C90.7024 87.1612 90.7151 87.1751 90.7272 87.1897C91.8078 88.343 92.9854 89.3896 94.2331 90.3564C96.2878 91.9482 98.5023 93.2687 100.884 94.3105C103.188 95.3185 105.58 96.0308 108.053 96.4766C109.115 96.668 110.185 96.8013 111.261 96.8861C111.865 96.9321 112.47 96.9733 113.078 96.9757C113.238 96.9757 113.294 96.9224 113.287 96.7649C113.277 96.5856 113.28 96.4063 113.287 96.2295C113.294 96.0889 113.253 96.026 113.098 96.0163C112.817 95.9987 112.535 95.9887 112.253 95.9786C111.872 95.965 111.491 95.9514 111.111 95.9193C109.812 95.8127 108.521 95.6456 107.244 95.396C104.78 94.9138 102.393 94.1749 100.092 93.1669C97.5525 92.0548 95.1829 90.6568 92.9732 88.985C92.181 88.386 91.4177 87.7534 90.6593 87.1134Z" fill="#EEEEEE"/>
<path d="M104.37 76.616C104.371 76.6458 104.371 76.6756 104.373 76.7054V76.703C104.378 77.1319 104.271 77.5268 103.99 77.8587C103.544 78.3869 102.958 78.5008 102.323 78.3288C101.715 78.164 101.388 77.7109 101.274 77.1076C101.163 76.5261 101.228 75.9713 101.642 75.511C102.117 74.9852 102.723 74.9052 103.36 75.1112C103.985 75.3147 104.274 75.8114 104.358 76.4389C104.368 76.4971 104.369 76.5564 104.37 76.616Z" fill="#EEEEEE"/>
<path d="M108.087 75.6445V76.1218C108.087 76.1969 108.099 76.2744 108.194 76.272C108.292 76.2699 108.39 76.2738 108.488 76.2776C108.733 76.2873 108.978 76.2969 109.216 76.2139C109.527 76.1073 109.667 75.9062 109.648 75.596C109.631 75.3101 109.473 75.1405 109.158 75.0678C108.94 75.018 108.718 75.0218 108.496 75.0256H108.496C108.406 75.0272 108.315 75.0288 108.225 75.0266C108.129 75.0266 108.085 75.0727 108.085 75.1647V75.6421L108.087 75.6445Z" fill="#EEEEEE"/>
<path d="M124.805 77.05C124.994 76.5436 125.183 76.0372 125.392 75.4776V75.4751C125.472 75.7005 125.535 75.8701 125.598 76.0421C125.731 76.4079 125.864 76.7738 126 77.1372C126.043 77.2584 126.026 77.3141 125.884 77.3117C125.637 77.3081 125.389 77.3085 125.14 77.309H125.139L124.89 77.3093C124.882 77.3093 124.874 77.3095 124.865 77.3097C124.797 77.3117 124.722 77.3138 124.757 77.1954C124.766 77.159 124.779 77.1227 124.792 77.0864C124.797 77.0742 124.801 77.0621 124.805 77.05Z" fill="#EEEEEE"/>
<path d="M135.294 75.6758V76.1531C135.294 76.2355 135.311 76.3082 135.415 76.3106C135.728 76.3179 136.04 76.3179 136.341 76.2258C136.646 76.1337 136.799 75.8914 136.774 75.5886C136.75 75.2906 136.585 75.1306 136.258 75.0652C136.055 75.0253 135.85 75.0262 135.645 75.0271C135.576 75.0274 135.508 75.0277 135.439 75.0265C135.333 75.0265 135.289 75.0749 135.292 75.1791V75.6758H135.294Z" fill="#EEEEEE"/>
<path d="M96.3508 76.1777V75.6592C96.3508 75.6043 96.3516 75.5492 96.3525 75.4941C96.3541 75.3834 96.3557 75.2724 96.3508 75.1625C96.346 75.0607 96.3799 75.0244 96.4793 75.0244C96.5507 75.0256 96.6223 75.0251 96.694 75.0247C96.909 75.0233 97.1243 75.0219 97.337 75.0656C97.6447 75.1286 97.807 75.2957 97.8337 75.5865C97.8603 75.8772 97.7198 76.1122 97.4315 76.2116C97.1141 76.3206 96.7797 76.3158 96.4478 76.3085C96.3605 76.3061 96.3508 76.2504 96.3508 76.1777Z" fill="#EEEEEE"/>
<path d="M130.237 75.6585V76.1552C130.237 76.2279 130.245 76.3054 130.342 76.3054L130.403 76.3068C130.727 76.3141 131.052 76.3215 131.359 76.1939C131.645 76.0752 131.761 75.8426 131.715 75.5276C131.679 75.2757 131.497 75.1158 131.204 75.0625C131.004 75.0261 130.804 75.0266 130.603 75.027C130.568 75.0271 130.532 75.0272 130.496 75.0271C130.465 75.0269 130.434 75.0267 130.402 75.0261C130.276 75.0237 130.233 75.0794 130.235 75.1981C130.238 75.2999 130.237 75.4017 130.236 75.5034L130.236 75.5427C130.235 75.5805 130.235 75.6183 130.235 75.6561L130.237 75.6585Z" fill="#EEEEEE"/>
<path fill-rule="evenodd" clip-rule="evenodd" d="M85.2607 25.625C81.0409 25.625 77.6201 29.0458 77.6201 33.2656V93.2444C77.6201 97.4642 81.0409 100.885 85.2607 100.885H145.24C149.459 100.885 152.88 97.4642 152.88 93.2444V33.2656C152.88 29.0458 149.459 25.625 145.24 25.625H85.2607ZM85.4163 46.2858C89.8793 37.3599 100.198 29.3207 113.65 29.311C126.976 29.3013 137.368 37.2024 141.981 46.3149C141.912 46.2918 141.882 46.2443 141.855 46.2003C141.852 46.1947 141.848 46.1891 141.845 46.1837C141.841 46.178 141.837 46.1724 141.833 46.1671C140.457 44.19 138.897 42.368 137.16 40.7035C134.713 38.3605 131.987 36.4101 128.973 34.8594C126.727 33.7037 124.379 32.8145 121.932 32.1894C120.347 31.7848 118.741 31.4965 117.11 31.3341C115.814 31.2057 114.513 31.133 113.209 31.1548C110.44 31.1984 107.714 31.574 105.037 32.2887C102.483 32.972 100.043 33.9387 97.7222 35.2011C95.7015 36.2986 93.8044 37.5779 92.0381 39.051C90.8557 40.0396 89.7363 41.0935 88.6896 42.225C87.5872 43.4171 86.5623 44.6722 85.6295 46.0023C85.588 46.0616 85.5447 46.1199 85.5013 46.1785C85.4737 46.2157 85.446 46.253 85.4187 46.2906L85.4163 46.2858ZM107.513 63.1197C107.513 64.622 107.512 66.1243 107.518 67.6265C107.518 67.8107 107.46 67.91 107.293 67.9948C105.628 68.821 103.864 69.3105 102.035 69.5842C100.845 69.7611 99.6484 69.8483 98.4467 69.8072C95.9535 69.7199 93.6106 69.1094 91.5269 67.6895C88.961 65.9402 87.4588 63.4955 86.887 60.4596C86.7247 59.5971 86.6544 58.7224 86.6714 57.8502C86.7247 55.0687 87.5267 52.5465 89.3511 50.3998C90.6207 48.9073 92.2053 47.8606 94.037 47.1846C95.4326 46.6685 96.8766 46.419 98.3643 46.3778C100.118 46.3293 101.829 46.5643 103.491 47.1192C104.761 47.5408 105.946 48.1295 106.975 49.0018L106.982 49.0073C107.358 49.324 107.363 49.3286 107.043 49.6971C106.602 50.2027 106.159 50.7077 105.715 51.2129L105.711 51.2182C105.166 51.8396 104.621 52.4612 104.077 53.0843C103.968 53.2079 103.908 53.2055 103.796 53.0892C102.74 51.9843 101.42 51.4222 99.9246 51.226C98.5339 51.0443 97.1989 51.2211 95.9438 51.8729C94.4295 52.6579 93.4046 53.879 92.8619 55.4806C92.1471 57.5812 92.2634 59.6673 93.2132 61.6687C94.0346 63.401 95.4592 64.4259 97.3176 64.8523C98.1826 65.051 99.0597 65.0898 99.944 65.0292C100.724 64.9759 101.49 64.8548 102.231 64.5955C102.529 64.4913 102.529 64.4889 102.529 64.1788V60.731C102.529 60.4645 102.527 60.4621 102.265 60.4621H98.5872C98.3061 60.4621 98.3061 60.462 98.3061 60.1907V56.3601C98.3061 56.2223 98.3061 56.1545 98.34 56.1211C98.3729 56.0887 98.4377 56.0887 98.5654 56.0887H107.264C107.511 56.0887 107.516 56.0936 107.518 56.3504V62.003L107.513 61.9933L107.513 63.1197ZM118.554 61.7318C118.621 61.6895 118.634 61.629 118.646 61.5706C118.649 61.5555 118.652 61.5404 118.656 61.5259C119.933 56.76 121.21 51.9918 122.479 47.2235C122.53 47.0297 122.608 46.9546 122.816 46.957C124.514 46.9643 126.213 46.9643 127.911 46.957C128.105 46.957 128.192 47.0152 128.243 47.2066C129.523 51.9724 130.807 56.7382 132.093 61.5016C132.097 61.5178 132.101 61.5345 132.104 61.5514C132.117 61.6131 132.13 61.677 132.183 61.7245C132.243 61.6915 132.252 61.6399 132.261 61.5894C132.262 61.5828 132.263 61.5762 132.264 61.5697C132.265 61.5639 132.266 61.5582 132.268 61.5525L134.834 50.9621C134.923 50.5918 135.013 50.2214 135.103 49.8509L135.114 49.8037C135.327 48.924 135.541 48.0435 135.749 47.163C135.788 46.9934 135.878 46.9594 136.033 46.9594C137.014 46.9622 137.996 46.9618 138.978 46.9614C139.714 46.9611 140.45 46.9608 141.186 46.9619C141.431 46.9619 141.436 46.9715 141.366 47.2163C140.947 48.6834 140.528 50.1506 140.109 51.6178C139.691 53.0848 139.272 54.5517 138.853 56.0186L138.286 58.0052C137.436 60.9839 136.586 63.9617 135.737 66.941C135.701 67.07 135.664 67.1988 135.627 67.3276L135.626 67.3317L135.626 67.3323L135.625 67.3327C135.466 67.8896 135.307 68.446 135.156 69.0053C135.107 69.1871 135.023 69.2452 134.836 69.2428C133.22 69.2355 131.604 69.2355 129.988 69.2428C129.813 69.2428 129.731 69.1968 129.678 69.0175C128.704 65.6707 127.725 62.3253 126.747 58.9802L126.738 58.9494C126.442 57.9361 126.146 56.9229 125.85 55.9096L125.392 54.3468C125.388 54.3355 125.386 54.3225 125.383 54.3091C125.376 54.2681 125.368 54.2245 125.324 54.2208C125.262 54.2152 125.254 54.2663 125.246 54.3122C125.244 54.3255 125.242 54.3384 125.239 54.3493L125.233 54.369L125.229 54.3817L125.228 54.3874C124.512 56.8388 123.796 59.2901 123.083 61.7391C122.793 62.7327 122.503 63.7259 122.212 64.719L122.208 64.7335L122.208 64.7344C121.79 66.1627 121.373 67.5909 120.958 69.0199C120.909 69.1822 120.834 69.2404 120.665 69.2404C119.036 69.2355 117.408 69.2331 115.78 69.2404C115.572 69.2404 115.494 69.1677 115.441 68.9787C114.307 64.9664 113.168 60.9565 112.029 56.9466C111.494 55.0609 110.959 53.1753 110.423 51.2901L110.368 51.0974C110.003 49.8107 109.637 48.5242 109.272 47.2381C109.232 47.0978 109.212 47.0281 109.238 46.9936C109.264 46.9594 109.335 46.9594 109.476 46.9594C109.828 46.9594 110.181 46.9595 110.534 46.9596H110.536C111.945 46.96 113.354 46.9604 114.765 46.9546C114.961 46.9546 115.039 47.0176 115.085 47.209C116.211 51.9797 117.345 56.7504 118.479 61.5186C118.482 61.5321 118.485 61.5458 118.488 61.5596C118.5 61.6195 118.512 61.6797 118.559 61.727L118.554 61.7318ZM85.495 80.5402C85.4687 80.4987 85.439 80.4519 85.3435 80.4104V80.4128C87.2819 84.1513 89.8477 87.3253 93.0532 89.9711C98.7349 94.6619 105.282 97.1647 112.637 97.3852C120.718 97.6251 127.926 95.1537 134.196 90.0317C137.448 87.3738 140.036 84.1683 141.959 80.4322C141.885 80.4609 141.846 80.5197 141.809 80.5778C141.798 80.5933 141.788 80.6088 141.778 80.6236C140.074 83.0586 138.095 85.2441 135.856 87.1969C133.898 88.9026 131.771 90.3661 129.484 91.5921C126.933 92.9586 124.248 93.9762 121.433 94.6546C119.308 95.1658 117.156 95.4614 114.976 95.5438C113.75 95.5898 112.524 95.5729 111.3 95.4832C110.026 95.3912 108.761 95.2337 107.506 94.9962C103.951 94.3227 100.591 93.1088 97.4241 91.3595C94.8122 89.9154 92.4281 88.1588 90.2669 86.1018C88.4957 84.4154 86.9039 82.5716 85.5083 80.5606C85.5038 80.554 85.4994 80.5472 85.495 80.5402ZM100.169 78.2827C100.753 79.2664 101.686 79.6565 102.801 79.6686H102.798C102.827 79.6686 102.855 79.6695 102.883 79.6703H102.884C102.939 79.6719 102.993 79.6735 103.048 79.6686C103.876 79.6056 104.598 79.31 105.153 78.6728C105.703 78.0429 105.916 77.2942 105.858 76.4728C105.79 75.511 105.388 74.7235 104.547 74.2147C103.852 73.7931 103.084 73.6744 102.28 73.7883C99.7865 74.142 99.2147 76.6715 100.169 78.2827ZM106.731 75.9719L106.731 75.9667V75.9646C106.732 75.3501 106.733 74.7358 106.728 74.1205C106.728 73.9581 106.762 73.8927 106.939 73.8952C107.229 73.8991 107.52 73.8978 107.81 73.8966C108.234 73.8947 108.659 73.8929 109.083 73.9073C109.64 73.9242 110.171 74.0575 110.59 74.4669C111.24 75.0993 111.256 76.5337 110.106 77.0352C109.957 77.0998 109.926 77.2024 110.011 77.3429C110.145 77.5626 110.28 77.7823 110.414 78.002C110.683 78.4413 110.951 78.8807 111.218 79.32C111.329 79.5017 111.312 79.5356 111.099 79.5381C110.876 79.5408 110.654 79.5404 110.432 79.54C110.265 79.5397 110.098 79.5395 109.931 79.5405C109.788 79.5405 109.699 79.4896 109.628 79.3588C109.37 78.8758 109.106 78.3957 108.842 77.9151L108.601 77.4762C108.523 77.3357 108.301 77.2654 108.158 77.3332C108.083 77.3687 108.085 77.4315 108.087 77.4929V77.4934C108.087 77.5017 108.087 77.5099 108.087 77.5181C108.088 77.5236 108.088 77.529 108.087 77.5343V79.2764C108.087 79.5235 108.073 79.5356 107.828 79.5381C107.771 79.5381 107.713 79.538 107.655 79.5379L107.523 79.5375H107.523C107.318 79.537 107.113 79.5365 106.91 79.5381C106.772 79.5381 106.723 79.492 106.726 79.3467C106.731 78.7176 106.73 78.0898 106.729 77.4614V77.4593C106.728 77.2075 106.728 76.9554 106.728 76.7033L106.731 76.7057C106.731 76.4609 106.731 76.2163 106.731 75.9719ZM127.458 79.5373C127.516 79.5378 127.573 79.5383 127.63 79.5383V79.5407C127.661 79.5407 127.691 79.5408 127.721 79.5409L127.815 79.5413C127.938 79.5418 128.062 79.5424 128.185 79.5407C128.396 79.5383 128.411 79.5141 128.331 79.3178C128.158 78.8999 127.985 78.4841 127.813 78.0683C127.726 77.8598 127.639 77.6513 127.553 77.4425C127.09 76.328 126.627 75.2135 126.169 74.0989C126.111 73.956 126.029 73.8881 125.869 73.9003C125.774 73.9073 125.677 73.9053 125.581 73.9034C125.512 73.902 125.442 73.9006 125.372 73.9027C125.23 73.9063 125.122 73.9037 125.037 73.9018C124.891 73.8984 124.816 73.8966 124.765 73.9304C124.71 73.966 124.681 74.0411 124.622 74.1954C124.594 74.2711 124.557 74.3658 124.507 74.4842C124.002 75.6729 123.504 76.8643 123.005 78.0564L123.005 78.0574C122.834 78.4661 122.663 78.8752 122.491 79.2839C122.392 79.5214 122.404 79.5407 122.668 79.5407C122.796 79.5417 122.923 79.5408 123.05 79.54H123.051C123.256 79.5386 123.46 79.5372 123.664 79.5432C123.829 79.5456 123.926 79.4947 123.979 79.3324C124.021 79.2042 124.069 79.0781 124.117 78.9519C124.159 78.8394 124.202 78.7269 124.241 78.6128C124.284 78.4868 124.35 78.4311 124.49 78.4311C125.084 78.4359 125.678 78.4359 126.271 78.4311C126.397 78.4286 126.47 78.4747 126.513 78.5958C126.554 78.7088 126.6 78.8197 126.645 78.9304C126.699 79.062 126.753 79.1933 126.799 79.3275C126.855 79.4874 126.952 79.5456 127.114 79.5383C127.229 79.5351 127.344 79.5362 127.458 79.5373ZM133.879 76.7055V74.1954C133.879 73.9047 133.884 73.8998 134.182 73.8998H136.021C136.343 73.8998 136.656 73.9459 136.966 74.0331C137.816 74.2754 138.279 74.9804 138.16 75.8551C138.058 76.6159 137.639 77.0883 136.895 77.2943C136.542 77.3936 136.181 77.4251 135.815 77.43L135.801 77.4301C135.549 77.4324 135.422 77.4336 135.358 77.4978C135.292 77.5636 135.292 77.6957 135.292 77.963V79.2665C135.292 79.5161 135.27 79.5355 135.015 79.5379H134.133C133.894 79.5379 133.877 79.5209 133.877 79.2714V76.7031L133.879 76.7055ZM94.9431 74.1691V76.7155L94.9407 76.718V79.2644C94.9407 79.5309 94.9504 79.5406 95.2242 79.5406H96.0867C96.3242 79.5382 96.3533 79.5116 96.3533 79.2765L96.3533 79.2745C96.3557 78.7179 96.3581 78.1638 96.3508 77.6096C96.3484 77.4739 96.3896 77.4255 96.5229 77.4327C96.6707 77.44 96.816 77.4376 96.9638 77.4327C97.4266 77.4133 97.8821 77.3673 98.3061 77.1638C98.9118 76.873 99.2074 76.3715 99.2292 75.7125C99.251 75.0946 99.0524 74.5713 98.4903 74.2345C98.0808 73.9898 97.6301 73.9147 97.1674 73.905C96.7036 73.8946 96.2386 73.8966 95.7732 73.8986C95.587 73.8994 95.4008 73.9001 95.2145 73.9001C94.9528 73.9026 94.9431 73.9098 94.9431 74.1691ZM128.844 76.7173C128.844 76.5033 128.844 76.2893 128.845 76.0753V76.0739C128.846 75.4331 128.847 74.7923 128.839 74.1514C128.839 73.9625 128.89 73.8946 129.086 73.897C129.561 73.9043 130.035 73.9034 130.509 73.9025H130.509C130.667 73.9022 130.826 73.9019 130.984 73.9019C131.265 73.9019 131.543 73.9407 131.817 74.0085C132.755 74.2387 133.244 74.9728 133.099 75.9298C132.99 76.6567 132.544 77.0807 131.863 77.2915C131.505 77.403 131.136 77.4296 130.766 77.4345L130.752 77.4346C130.496 77.4369 130.367 77.4381 130.302 77.5032C130.235 77.5699 130.235 77.7038 130.235 77.9748C130.235 78.0355 130.235 78.0963 130.235 78.157C130.234 78.2287 130.234 78.3003 130.234 78.3719V78.3726C130.232 78.6807 130.231 78.9887 130.237 79.2952C130.242 79.4818 130.167 79.5448 129.99 79.5424C129.685 79.5351 129.377 79.5351 129.072 79.5424C128.897 79.5472 128.839 79.4794 128.842 79.3049C128.847 78.689 128.846 78.0743 128.845 77.4591C128.845 77.2127 128.844 76.9663 128.844 76.7197V76.7173ZM89.9689 78.9856C90.5383 79.4702 91.2046 79.6543 91.8684 79.6688L91.866 79.6664C92.4911 79.6689 93.0048 79.5307 93.4554 79.1891C94.2138 78.6149 94.4415 77.1442 93.3609 76.5142C93.1889 76.4149 93.0145 76.3253 92.8279 76.2574C92.7516 76.2301 92.6753 76.2032 92.5991 76.1763C92.3437 76.0863 92.0894 75.9966 91.8394 75.894C91.5801 75.785 91.4735 75.5984 91.5026 75.3731C91.5317 75.1598 91.7061 75.0024 91.9629 74.9491C92.4112 74.857 92.7988 74.9709 93.1308 75.2761C93.2301 75.3682 93.2931 75.3658 93.3803 75.2689C93.4835 75.1553 93.5895 75.0445 93.6953 74.9339L93.6956 74.9337C93.7883 74.8367 93.881 74.7398 93.9715 74.6413C94.1435 74.4572 94.1435 74.4451 93.9327 74.2973C93.2592 73.82 92.5129 73.6577 91.6988 73.8151C91.2361 73.9048 90.8266 74.0938 90.4995 74.4451C89.9253 75.0654 89.9301 76.2938 90.783 76.8074C91.0737 76.9843 91.3887 77.1054 91.7109 77.2096L91.7636 77.2269C91.9882 77.3007 92.2117 77.3742 92.4184 77.4955C92.6413 77.6263 92.7092 77.825 92.668 78.0673C92.6292 78.2951 92.479 78.4235 92.2609 78.4719C91.7109 78.5907 91.2385 78.4211 90.8411 78.0431C90.7442 77.9486 90.6958 77.9607 90.6134 78.0455L90.613 78.0459C90.3951 78.2711 90.1771 78.4963 89.9519 78.7118C89.838 78.8208 89.855 78.8887 89.9689 78.9856ZM118.179 79.6692C117.391 79.6619 116.747 79.4754 116.187 79.0344C115.981 78.8721 115.983 78.8551 116.163 78.6685L116.262 78.5667L116.263 78.5664L116.263 78.5661L116.264 78.5652C116.431 78.3942 116.598 78.2238 116.761 78.0483C116.851 77.9514 116.909 77.9538 117.008 78.0483C117.362 78.3875 117.786 78.5498 118.283 78.5014C118.639 78.465 118.845 78.2615 118.847 77.9465C118.847 77.7406 118.753 77.5928 118.578 77.4934C118.373 77.3771 118.15 77.3015 117.929 77.2263L117.888 77.2124C117.556 77.1009 117.226 76.9846 116.924 76.7981C116.039 76.2457 116.083 74.8767 116.802 74.3098C117.65 73.641 118.593 73.6168 119.569 73.9996C119.79 74.0869 119.991 74.2128 120.175 74.3606C120.272 74.4382 120.277 74.5036 120.19 74.5957C119.972 74.8186 119.754 75.0463 119.545 75.2765C119.455 75.3758 119.392 75.3686 119.296 75.2813C118.964 74.9761 118.576 74.8573 118.13 74.9543C117.868 75.0124 117.701 75.1578 117.677 75.3589C117.646 75.6133 117.742 75.7708 118.007 75.8992C118.177 75.982 118.356 76.0416 118.536 76.1014L118.537 76.1016C118.636 76.1345 118.735 76.1675 118.833 76.2045C118.856 76.2132 118.879 76.2218 118.902 76.2305L118.902 76.2306L118.903 76.2307C119.047 76.2847 119.192 76.3388 119.329 76.4056C119.923 76.6987 120.284 77.1567 120.265 77.8399C120.243 78.5886 119.896 79.1434 119.199 79.4487C118.85 79.6014 118.484 79.6886 118.186 79.6716L118.179 79.6692ZM114.18 73.9007C113.985 73.9003 113.79 73.8999 113.595 73.8999V73.8975C113.4 73.8975 113.206 73.8979 113.011 73.8983H113.01C112.523 73.8993 112.035 73.9003 111.547 73.8951C111.38 73.8951 111.317 73.9508 111.324 74.118C111.334 74.3651 111.334 74.6147 111.324 74.8642C111.317 75.0363 111.373 75.1065 111.552 75.1017C111.801 75.0949 112.052 75.0964 112.302 75.098H112.302C112.409 75.0986 112.516 75.0993 112.623 75.0993C112.809 75.0993 112.902 75.1954 112.902 75.3876C112.902 75.7592 112.902 76.131 112.902 76.5029V76.5042C112.903 77.434 112.904 78.3642 112.899 79.2933C112.897 79.475 112.955 79.5453 113.139 79.5404C113.326 79.5356 113.514 79.5372 113.701 79.5388L113.703 79.5388C113.796 79.5396 113.889 79.5404 113.982 79.5404C114.191 79.5388 114.295 79.4371 114.295 79.2351C114.295 79.0281 114.295 78.8209 114.295 78.6137L114.295 78.2591C114.295 77.2826 114.296 76.3052 114.292 75.3294C114.292 75.1574 114.346 75.0944 114.522 75.0993C114.721 75.1044 114.921 75.1034 115.12 75.1024C115.298 75.1016 115.475 75.1007 115.652 75.1041C115.819 75.1065 115.877 75.0435 115.872 74.8788C115.862 74.6292 115.862 74.3821 115.872 74.1325C115.879 73.9581 115.819 73.8975 115.642 73.8975C115.156 73.9027 114.668 73.9017 114.18 73.9007Z" fill="#EEEEEE"/>
</g>
<defs>
<clipPath id="clip0_580_310">
<rect width="231" height="127" fill="white"/>
</clipPath>
</defs>
</svg>
