<svg width="216" height="207" viewBox="0 0 216 207" fill="none" xmlns="http://www.w3.org/2000/svg">
<g clip-path="url(#clip0_5527_792)">
<rect width="216" height="206.929" fill="#151517"/>
<g clip-path="url(#clip1_5527_792)">
<path d="M108.786 119.052C105.721 118.896 102.71 118.577 99.7677 118.057C99.6638 118.038 99.5614 118.024 99.4576 118.004C101.406 120.028 102.689 124.457 102.671 124.443C99.3591 120.67 95.9088 117.572 92.0826 116.276C91.4059 117.679 91.3346 119.817 91.6079 122.377C89.979 119.37 89.8204 117.38 89.8333 116.624C89.1283 118.833 86.9986 120.782 84.6307 122.69C86.9011 119.6 88.1568 116.958 88.2076 114.853C78.4677 115.761 67.7958 116.444 56.5142 116.974C57.0453 116.075 57.8433 115.66 58.8083 115.558C60.8488 115.471 74.2472 114.858 92.0952 113.107C92.6022 113.058 93.113 113.006 93.6266 112.955C93.77 112.941 93.9141 112.924 94.0546 112.91C95.9276 112.722 97.8417 112.519 99.796 112.305C100.241 112.255 100.686 112.205 101.134 112.156C101.143 112.156 101.153 112.155 101.159 112.153L109.442 119.087C109.334 119.081 108.899 119.059 108.785 119.052L108.786 119.052Z" fill="white"/>
<path d="M192.801 95.3179C190.764 97.2242 188.264 98.5356 185.832 99.8635C184.391 100.625 182.867 101.371 181.393 102.065C179.425 100.318 177.552 98.6473 175.615 96.8488C179.643 95.3127 183.665 93.5556 187.432 91.4506C183.679 93.4591 179.599 94.9498 175.59 96.3558C176.968 91.9132 178.751 87.3737 180.727 83.0105C184.321 83.2802 188.149 84.1857 190.958 86.564C192.515 88.0753 193.864 90.0338 194.021 92.2559C194.085 93.3986 193.614 94.5207 192.801 95.3176L192.801 95.3179Z" fill="white"/>
<path d="M155.823 102.908C158.099 102.339 160.336 101.745 162.523 101.126C164.793 100.484 167.009 99.8129 169.157 99.1125C169.282 99.0724 169.411 99.0302 169.539 98.9909C171.654 98.2977 173.702 97.5752 175.676 96.8247L181.456 102.036C181.065 102.221 180.667 102.404 180.262 102.591C178.737 103.29 177.104 104.005 175.383 104.726C173.443 105.538 171.384 106.357 169.234 107.175C167.246 107.928 165.176 108.679 163.044 109.415C161.228 110.041 159.365 110.66 157.463 111.261C157.392 111.283 157.323 111.307 157.252 111.329C154.409 109.22 151.969 106.74 149.327 104.446C151.52 103.952 153.686 103.44 155.823 102.908L155.823 102.908Z" fill="white"/>
<path d="M108.14 111.333C110.42 111.051 112.728 110.752 115.062 110.437C117.297 110.135 119.549 109.812 121.818 109.475C124.086 109.137 126.362 108.78 128.646 108.406C130.969 108.026 133.293 107.625 135.61 107.207C137.901 106.791 140.188 106.356 142.458 105.901C143.277 105.737 144.094 105.569 144.907 105.4C146.315 105.108 147.713 104.806 149.1 104.496C149.176 104.481 149.249 104.462 149.325 104.444L157.25 111.328C157.108 111.373 156.966 111.415 156.824 111.46C154.806 112.091 152.747 112.708 150.655 113.295C148.543 113.889 146.401 114.454 144.238 114.99C142.414 115.442 140.58 115.87 138.737 116.271C138.363 116.351 137.995 116.429 137.624 116.507C135.309 116.991 133.089 117.394 130.967 117.731C128.564 118.112 126.284 118.406 124.139 118.625C122.728 118.771 121.371 118.883 120.073 118.974C118.969 119.038 117.865 119.086 116.771 119.119C114.19 119.201 111.64 119.187 109.125 119.071C106.472 116.818 103.75 114.539 101.159 112.152C102.945 111.951 104.761 111.743 106.599 111.521C107.109 111.46 107.626 111.397 108.139 111.333L108.14 111.333Z" fill="white"/>
<path d="M148.735 103.537C148.433 103.601 148.127 103.664 147.819 103.73C146.897 103.921 145.958 104.114 144.998 104.308C143.96 104.516 142.9 104.722 141.816 104.928C141.27 105.034 140.722 105.135 140.163 105.24C138.496 105.552 136.776 105.859 135.004 106.166C132.826 106.541 130.567 106.915 128.226 107.281C125.995 107.631 123.69 107.975 121.31 108.312C119.052 108.634 116.725 108.947 114.33 109.256C112.193 109.53 110.004 109.797 107.755 110.058C107.646 110.071 107.537 110.084 107.429 110.094C105.195 110.354 102.905 110.605 100.561 110.848C100.507 110.853 100.453 110.858 100.401 110.864L101.744 107.249C101.74 107.325 101.729 107.404 101.726 107.481C103.397 103.174 108.207 98.1011 113.269 95.3129C115.602 94.0275 118.233 92.9913 121.213 92.1707C123.432 91.5596 125.845 91.0688 128.476 90.6859C130.776 90.3499 133.238 90.0926 135.884 89.9123C135.089 90.7977 134.399 91.8684 133.8 93.0892C133.696 93.3026 133.591 93.5219 133.492 93.7456C133.392 93.9693 133.294 94.1967 133.202 94.4284C133.202 94.4256 133.206 94.4233 133.207 94.4204C135.844 90.6767 139.582 88.8367 143.831 87.8843C142.813 88.7884 141.393 90.3159 140.391 92.3217C140.254 92.5951 140.129 92.878 140.011 93.1653C139.98 93.2384 139.95 93.3086 139.922 93.3795C139.923 93.3767 139.926 93.3773 139.927 93.3744C139.927 93.3744 139.927 93.3715 139.931 93.3722C140.895 92.0847 141.873 91.0401 142.934 90.1873C143.16 90.0047 143.391 89.8295 143.628 89.6653C143.987 89.4135 144.356 89.1829 144.737 88.9676C144.98 88.8297 145.228 88.6992 145.482 88.5767C146.078 88.2879 146.704 88.035 147.372 87.8173C147.575 87.7503 147.781 87.687 147.992 87.6251C148.293 87.5546 148.587 87.4885 148.876 87.4246C150.186 87.1383 151.341 86.9375 152.346 86.7986C152.849 86.7291 153.311 86.6742 153.737 86.6354C153.906 86.6188 154.072 86.6045 154.23 86.5915C154.706 86.5557 155.125 86.5337 155.491 86.5262C156.038 86.5146 156.466 86.5321 156.773 86.5596C156.627 86.672 156.475 86.805 156.321 86.9591C155.258 88.0226 154.034 90.0227 153.279 91.674C153.279 91.674 153.122 92.0729 153.059 92.2453C153.047 92.2796 149.101 103.525 149.101 103.525C149.055 103.535 148.784 103.525 148.734 103.538L148.735 103.537Z" fill="white"/>
<path d="M175.659 96.3297C173.803 96.967 171.707 97.6463 169.349 98.3501C169.228 98.3879 169.101 98.4243 168.976 98.4614C166.936 99.0677 164.706 99.6978 162.274 100.336C160.175 100.891 157.932 101.452 155.528 102.017C153.435 102.51 151.216 103.009 148.881 103.504L153.035 92.2285C155.456 89.2203 157.322 87.9721 159.742 87.0101C160.405 86.7602 161.095 86.5141 161.805 86.2759C163.979 85.5478 166.337 84.8907 168.652 84.3537C170.888 83.837 173.076 83.4358 175.019 83.1937C176.255 83.0413 177.39 82.9538 178.37 82.9421C179.234 82.9325 180.045 82.9593 180.811 83.0154C178.892 87.3688 176.747 92.7512 175.657 96.3306L175.659 96.3297Z" fill="white"/>
<path d="M99.3789 110.972C97.5526 111.16 95.6963 111.343 93.8015 111.519C93.7729 111.521 93.7473 111.524 93.7188 111.526C93.451 111.552 93.1839 111.575 92.9162 111.601C91.6394 111.718 90.4929 111.812 87.8845 112.03C87.6081 110.52 86.2556 109.023 84.669 107.529C86.5519 108.118 88.1483 109.362 89.1602 111.213C90.5394 104.459 93.6749 99.1299 99.3056 97.3835C99.8084 97.227 100.326 97.0991 100.869 97.0026C98.8153 97.9227 97.6652 99.4155 97.0494 102.616C97.045 102.622 97.0399 102.63 97.0355 102.635C97.0399 102.63 97.045 102.622 97.0494 102.616C100.298 98.4948 102.88 96.6655 106.706 95.4386C107.613 95.1474 108.589 94.8892 109.662 94.6429C104.468 97.6562 102.096 102.065 101.749 107.25L101.729 107.48L100.407 110.865C100.065 110.904 99.7229 110.939 99.3783 110.974L99.3789 110.972Z" fill="white"/>
<path d="M94.0082 82.4435C95.1614 81.6329 96.6749 81.4036 98.0333 81.744C99.1854 82.021 100.198 82.8282 100.706 83.9014C100.428 84.0696 100.15 84.2392 99.8714 84.4069C99.623 83.8872 99.2421 83.4267 98.7595 83.1092C98.1076 82.6728 97.3046 82.4972 96.5274 82.537C95.7254 82.5715 94.9366 82.8781 94.3317 83.4072C93.4378 84.1821 92.9376 85.3428 92.8385 86.5084C92.7218 87.8256 93.1702 89.1901 94.0765 90.1575C94.5129 90.624 95.059 90.9936 95.6673 91.1955C96.9788 91.6387 98.5283 91.2484 99.4777 90.242C99.7089 89.9962 99.9003 89.7143 100.05 89.4126C100.339 89.5616 100.628 89.7091 100.915 89.8603C100.653 90.4577 100.214 90.9681 99.6875 91.3501C98.4533 92.244 96.7856 92.5776 95.3262 92.0913C94.2473 91.7325 93.3376 90.9572 92.7248 90.0089C91.9596 88.8295 91.614 87.3663 91.8512 85.9737C92.079 84.5799 92.8411 83.2563 94.0082 82.4435V82.4435Z" fill="white"/>
<path d="M75.161 92.2282C75.1602 88.7029 75.1595 85.1776 75.1613 81.6523C76.6316 81.6535 78.1023 81.6516 79.5726 81.6535C80.1708 81.6572 80.7622 81.8584 81.2459 82.2081C82.064 82.7969 82.5962 83.7625 82.666 84.7671C82.7106 85.506 82.5237 86.2584 82.1334 86.8881C81.7965 87.4345 81.2943 87.8867 80.6943 88.1238C80.3393 88.2668 79.9554 88.3314 79.5734 88.3254C78.4453 88.325 77.3172 88.325 76.1892 88.3254C76.1888 89.626 76.1888 90.9267 76.1892 92.2274C75.8462 92.2285 75.5036 92.2274 75.161 92.2282V92.2282ZM76.1892 82.5759C76.1884 84.1847 76.1888 85.7931 76.1892 87.4015C77.3165 87.4022 78.4438 87.4015 79.5711 87.4018C79.9922 87.4048 80.4132 87.2619 80.7419 86.9973C81.163 86.6611 81.4354 86.1638 81.5544 85.6429C81.7064 84.9922 81.6328 84.2803 81.2951 83.6979C80.9375 83.0551 80.2477 82.5785 79.4987 82.5766C78.3958 82.5748 77.2925 82.5763 76.1892 82.5759V82.5759Z" fill="white"/>
<path d="M86.52 81.6528C86.803 81.652 87.0863 81.6524 87.3696 81.6528C88.8456 85.1773 90.3211 88.7022 91.7963 92.2275C91.4237 92.2275 91.0514 92.2278 90.6791 92.2275C90.2217 91.1257 89.765 90.0235 89.3079 88.9217C87.7224 88.9213 86.1373 88.921 84.5518 88.9217C84.1011 90.0235 83.6474 91.1242 83.1978 92.2263C82.8297 92.229 82.4615 92.2271 82.0938 92.2275C83.5686 88.7022 85.0449 85.1777 86.52 81.6528V81.6528ZM84.7773 88.1033C86.2078 88.1036 87.6383 88.1033 89.0685 88.1033C88.3649 86.3594 87.6575 84.6174 86.9527 82.8739C86.227 84.6166 85.5001 86.359 84.7773 88.1033Z" fill="white"/>
<path d="M68.4458 81.6528C68.7288 81.652 69.0121 81.6524 69.2954 81.6528C70.7714 85.1773 72.2469 88.7022 73.7221 92.2275C73.3495 92.2275 72.9772 92.2278 72.6049 92.2275C72.1475 91.1257 71.6908 90.0235 71.2337 88.9217C69.6482 88.9213 68.063 88.921 66.4775 88.9217C66.0268 90.0235 65.5731 91.1242 65.1236 92.2263C64.7554 92.229 64.3873 92.2271 64.0195 92.2275C65.4943 88.7022 66.9706 85.1777 68.4458 81.6528V81.6528ZM66.7031 88.1033C68.1336 88.1036 69.5641 88.1033 70.9943 88.1033C70.2906 86.3594 69.5833 84.6174 68.8785 82.8739C68.1527 84.6166 67.4258 86.359 66.7031 88.1033Z" fill="white"/>
<path d="M102.375 81.6528C102.718 81.652 103.061 81.6524 103.403 81.6528C103.404 83.221 103.403 84.7896 103.404 86.3583C105.495 86.3583 107.587 86.3586 109.678 86.3579C109.679 84.7896 109.678 83.221 109.679 81.6528C110.026 81.652 110.374 81.6524 110.722 81.6528C110.723 85.1777 110.723 88.7022 110.722 92.2271C110.374 92.2275 110.026 92.2282 109.678 92.2267C109.679 90.5785 109.679 88.93 109.678 87.2818C107.587 87.2811 105.495 87.2814 103.404 87.2814C103.402 88.9304 103.406 90.5789 103.402 92.2278C103.06 92.2267 102.717 92.2286 102.375 92.2267C102.375 88.7022 102.375 85.1773 102.375 81.6528V81.6528Z" fill="white"/>
<path d="M113.114 81.6531C115.438 81.652 117.763 81.6531 120.088 81.6523C120.09 81.9604 120.09 82.2682 120.088 82.5763C118.106 82.5755 116.124 82.5763 114.142 82.5759C114.14 83.8465 114.142 85.1176 114.141 86.3882C115.87 86.389 117.599 86.3882 119.328 86.3886V87.2664C117.599 87.2671 115.87 87.2667 114.141 87.2667C114.14 88.6124 114.141 89.9585 114.141 91.3042C116.168 91.305 118.196 91.3042 120.223 91.305C120.224 91.6123 120.223 91.9197 120.224 92.227C117.854 92.2285 115.483 92.2282 113.113 92.227C113.114 88.7025 113.113 85.1776 113.114 81.6531V81.6531Z" fill="white"/>
<path d="M170.258 117.746C170.59 117.746 170.922 117.746 171.254 117.746C171.254 117.817 171.254 117.888 171.254 117.959C171.13 117.959 171.007 117.959 170.883 117.959C170.883 118.306 170.883 118.653 170.883 119C170.799 119 170.714 119 170.63 119C170.63 118.653 170.63 118.306 170.63 117.959C170.506 117.959 170.382 117.959 170.258 117.959C170.258 117.888 170.258 117.817 170.258 117.746V117.746Z" fill="white"/>
<path d="M171.414 119C171.414 118.582 171.414 118.164 171.414 117.746C171.541 117.746 171.667 117.746 171.793 117.746C171.869 118.031 171.945 118.316 172.021 118.601C172.096 118.316 172.171 118.031 172.246 117.746C172.372 117.746 172.499 117.746 172.625 117.746C172.625 118.164 172.625 118.582 172.625 119C172.547 119 172.469 119 172.391 119C172.39 118.672 172.391 118.343 172.39 118.014C172.307 118.343 172.224 118.672 172.141 119C172.06 119.001 171.979 119 171.898 119.001C171.815 118.672 171.733 118.343 171.65 118.015C171.65 118.343 171.65 118.672 171.65 119C171.571 119 171.493 119.001 171.414 119V119Z" fill="white"/>
<path fill-rule="evenodd" clip-rule="evenodd" d="M147.982 122.025H156.988C157.36 120.333 157.732 118.642 158.104 116.95C160.674 116.95 163.327 116.967 165.898 116.967C167.153 116.967 168.264 116.577 169.251 115.91C170.443 115.105 171.332 113.871 171.667 112.349C172.232 109.775 172.8 107.201 173.369 104.627C173.693 103.157 174.114 101.498 173.061 100.171C172.092 98.9494 170.805 98.8544 169.393 98.8544C159.225 98.8656 149.056 98.8542 138.887 98.8542C137.86 98.8542 137.001 99.1861 136.103 99.6488C135.262 99.0537 134.502 98.8542 133.47 98.8542H119.513C119.894 97.1393 120.275 95.4245 120.656 93.7097H111.636C111.264 95.3827 110.892 97.0558 110.52 98.7286H102.587C101.492 98.7286 100.439 99.0724 99.5202 99.6627C98.6294 99.1086 97.9425 98.868 96.8873 98.868H70.7026C71.1023 97.13 71.5021 95.3918 71.9016 93.6536C68.8996 93.6491 65.8973 93.6444 62.8953 93.6398C61.1646 101.381 59.4338 109.122 57.7031 116.863C60.7024 116.864 63.7017 116.865 66.7007 116.866C67.603 112.904 68.5052 108.942 69.4073 104.981H72.452C72.8143 104.981 72.743 105.187 72.6823 105.46C71.8289 109.262 70.9755 113.064 70.1223 116.866C90.006 116.866 109.889 116.866 129.774 116.866C130.786 116.866 131.578 116.657 132.489 116.192C133.387 116.792 134.18 116.991 135.277 116.982L149.093 116.866C148.723 118.586 148.352 120.305 147.982 122.025L147.982 122.025ZM109.021 104.997H106.366C105.9 104.997 105.774 105.209 105.682 105.627C105.349 107.118 105.017 108.609 104.684 110.1C104.59 110.528 104.807 110.598 105.182 110.598H107.766C108.184 108.731 108.603 106.864 109.021 104.997V104.997ZM124.252 105.105H127.088C127.634 105.105 127.604 105.391 127.506 105.833C127.181 107.294 126.857 108.754 126.532 110.215C126.418 110.725 126.101 110.716 125.663 110.716H122.776C122.352 110.716 122.349 110.466 122.424 110.123C122.748 108.663 123.071 107.202 123.394 105.742C123.514 105.201 123.727 105.105 124.252 105.105V105.105ZM142.922 105.105H145.758C146.304 105.105 146.274 105.391 146.176 105.833C145.851 107.294 145.526 108.754 145.202 110.215C145.088 110.725 144.771 110.716 144.332 110.716H141.446C141.022 110.716 141.019 110.466 141.094 110.123C141.417 108.663 141.741 107.202 142.064 105.742C142.184 105.201 142.397 105.105 142.922 105.105V105.105ZM159.572 110.758H162.227C162.693 110.758 162.818 110.546 162.911 110.128C163.243 108.637 163.576 107.146 163.908 105.655C164.003 105.227 163.786 105.157 163.411 105.157H160.827C160.408 107.024 159.99 108.891 159.572 110.758" fill="#454548"/>
<path fill-rule="evenodd" clip-rule="evenodd" d="M140.866 99.9628H152.092C153.844 99.9628 154.96 101.396 154.572 103.148L152.572 112.176C152.184 113.928 150.433 115.361 148.681 115.361H137.455C135.703 115.361 134.587 113.928 134.976 112.176L136.976 103.148C137.364 101.396 139.114 99.9628 140.866 99.9628ZM142.901 103.587H148.452C149.379 103.587 149.969 104.346 149.764 105.273L148.705 110.052C148.5 110.978 147.573 111.737 146.646 111.737H141.096C140.169 111.737 139.578 110.978 139.783 110.052L140.842 105.273C141.047 104.346 141.974 103.587 142.901 103.587Z" fill="white"/>
<path fill-rule="evenodd" clip-rule="evenodd" d="M156.194 99.961L153.381 112.636L152.781 115.354L151.641 120.514H155.957L157.105 115.354L166.256 115.361C168.007 115.362 169.755 113.928 170.143 112.177L172.142 103.152C172.53 101.401 171.414 99.9609 169.662 99.9609H156.194V99.961ZM159.711 103.589H166.026C166.954 103.589 167.542 104.35 167.337 105.277L166.278 110.052C166.073 110.979 165.147 111.741 164.22 111.741H157.904L159.711 103.589Z" fill="white"/>
<path fill-rule="evenodd" clip-rule="evenodd" d="M122.178 100.162H133.49C135.256 100.162 136.38 101.607 135.989 103.372L133.973 112.47C133.582 114.235 131.818 115.68 130.053 115.68H118.74C116.975 115.68 115.851 114.235 116.242 112.47L118.257 103.372C118.648 101.606 120.412 100.162 122.178 100.162H122.178ZM124.228 103.815H129.821C130.756 103.815 131.35 104.579 131.144 105.513L130.077 110.329C129.87 111.262 128.936 112.027 128.002 112.027H122.409C121.474 112.027 120.879 111.262 121.086 110.329L122.153 105.513C122.36 104.579 123.293 103.815 124.228 103.815" fill="white"/>
<path fill-rule="evenodd" clip-rule="evenodd" d="M114.836 94.8457L113.68 100.046L104.458 100.038C102.693 100.038 100.932 101.482 100.541 103.247L98.519 112.349C98.128 114.114 99.253 115.557 101.019 115.557H114.597L118.037 100.046L119.186 94.8459H114.836L114.836 94.8457ZM106.51 103.694H112.874L111.046 111.901H104.689C103.755 111.901 103.162 111.141 103.369 110.208L104.436 105.388C104.642 104.454 105.576 103.694 106.51 103.694L106.51 103.694Z" fill="white"/>
<path fill-rule="evenodd" clip-rule="evenodd" d="M66.0732 94.8458L64.3125 102.784H64.3348L64.2602 103.098C64.2323 103.188 64.2061 103.281 64.1856 103.374L62.7233 109.962H62.7382L61.4922 115.558H65.842L67.088 109.962H67.0954L68.0803 105.515C68.0819 105.508 68.0788 105.5 68.0803 105.493L68.4608 103.814H74.8101C75.7441 103.814 76.3449 104.581 76.1382 105.515L75.1384 110.021L73.9148 115.558H78.272L79.503 110.021H79.5105L80.9803 103.374C81.3712 101.608 80.2462 100.158 78.4808 100.158H69.2517L70.4305 94.8457H66.0733L66.0732 94.8458Z" fill="white"/>
<path fill-rule="evenodd" clip-rule="evenodd" d="M96.8851 115.557H82.3733C80.6081 115.557 79.4835 114.112 79.8745 112.347L80.4593 109.707H80.4619L80.5744 109.199C80.9651 107.435 82.7302 105.989 84.4949 105.99L94.649 105.994L94.7988 105.32C94.9582 104.44 94.4036 103.727 93.5315 103.692H81.7772L82.5864 100.041L97.1734 100.045C98.9023 100.079 99.9956 101.509 99.6093 103.253L99.3348 104.492H99.3372L99.0039 105.996H99.0071L97.2954 113.72H97.2922L96.8851 115.556L96.8851 115.557ZM85.6047 111.904H93.3358L93.8385 109.642H86.2399C86.2034 109.638 86.1658 109.636 86.1273 109.636C85.5049 109.636 84.8834 110.145 84.7462 110.768C84.6104 111.383 84.9964 111.887 85.6061 111.899C85.6058 111.901 85.6055 111.902 85.6049 111.904" fill="white"/>
<path d="M25.0362 106.108C24.9645 106.303 24.8926 106.499 24.8208 106.694L24.4083 106.543C24.4801 106.347 24.5521 106.152 24.6237 105.957L25.0362 106.108ZM24.8208 106.694C24.7141 106.984 24.6071 107.275 24.5004 107.566L24.088 107.415C24.1946 107.124 24.3016 106.833 24.4083 106.543L24.8208 106.694ZM24.5004 107.566L24.4488 107.646L24.2942 107.49L24.5004 107.566ZM24.4488 107.646C24.2147 107.877 23.9803 108.11 23.746 108.342L23.4367 108.031C23.671 107.799 23.9054 107.566 24.1396 107.335L24.4488 107.646ZM23.746 108.342C23.5383 108.547 23.3304 108.753 23.1226 108.959L22.8133 108.648C23.0211 108.442 23.229 108.236 23.4367 108.031L23.746 108.342ZM23.1226 108.959C23.0276 109.053 22.9954 109.084 22.9668 109.112L22.6626 108.794C22.726 108.733 22.7961 108.665 22.8133 108.648L23.1226 108.959ZM22.9668 109.112C22.6854 109.382 22.6298 109.436 22.7108 109.92L22.2777 109.992C22.1582 109.279 22.2416 109.199 22.6626 108.794L22.9668 109.112ZM22.7108 109.92C22.7761 110.31 22.9057 110.707 23.1091 111.094L22.7189 111.299C22.4945 110.872 22.3508 110.429 22.2777 109.992L22.7108 109.92ZM23.1091 111.094C23.2979 111.454 23.5493 111.802 23.87 112.124L23.559 112.433C23.2031 112.076 22.9258 111.693 22.7189 111.299L23.1091 111.094ZM23.87 112.124C24.2805 112.535 24.9505 113.045 25.6478 113.31L25.4932 113.721C24.7311 113.431 24.0034 112.878 23.559 112.433L23.87 112.124ZM25.6478 113.31C26.1329 113.494 26.6273 113.558 27.0404 113.375L27.2174 113.777C26.6845 114.013 26.0767 113.943 25.4932 113.721L25.6478 113.31ZM27.0404 113.375L27.4648 113.187L27.3411 113.635L27.1289 113.576L27.0404 113.375ZM27.3411 113.635C27.286 113.834 27.2214 114.039 27.1472 114.244L26.733 114.094C26.8034 113.9 26.8646 113.706 26.9166 113.518L27.3411 113.635ZM27.1472 114.244C27.0779 114.435 26.9995 114.629 26.9114 114.823L26.5109 114.641C26.5927 114.461 26.6667 114.278 26.733 114.094L27.1472 114.244ZM26.9114 114.823C26.5397 115.638 26.9292 116.067 27.5329 116.342L27.3507 116.743C26.5247 116.366 25.994 115.774 26.5109 114.641L26.9114 114.823ZM27.5329 116.342C27.9187 116.518 28.3855 116.64 28.8193 116.753L28.7093 117.177C28.2535 117.058 27.7631 116.931 27.3507 116.743L27.5329 116.342ZM28.8193 116.753C28.9339 116.782 29.045 116.811 29.1248 116.833L29.0131 117.257C28.8956 117.225 28.8024 117.201 28.7093 117.177L28.8193 116.753ZM29.1248 116.833C29.6479 116.974 30.5523 117.234 31.3653 117.285L31.3377 117.725C30.4858 117.671 29.5531 117.403 29.0131 117.257L29.1248 116.833ZM31.3653 117.285C32.1 117.332 32.755 117.208 32.9066 116.645L33.3312 116.757C33.1062 117.592 32.2676 117.784 31.3377 117.725L31.3653 117.285ZM32.9066 116.645C32.9868 116.347 33.0334 116.117 33.0527 115.889L33.4926 115.925C33.4717 116.173 33.4201 116.426 33.3312 116.757L32.9066 116.645ZM33.0527 115.889C33.0722 115.66 33.0642 115.437 33.036 115.154L33.4725 115.113C33.5043 115.431 33.5135 115.678 33.4926 115.925L33.0527 115.889ZM33.036 115.154L33.0532 115.045L33.2542 115.134L33.036 115.154ZM33.0532 115.045C33.3491 114.384 33.4711 114.205 33.6864 113.89L34.049 114.138C33.8499 114.429 33.7371 114.594 33.4553 115.223L33.0532 115.045ZM33.6864 113.89C33.7084 113.858 33.7272 113.83 33.7826 113.748L34.1469 113.994C34.1329 114.015 34.0871 114.082 34.049 114.138L33.6864 113.89ZM33.7826 113.748C33.9506 113.499 34.0278 113.333 34.0525 113.161L34.4873 113.221C34.452 113.467 34.3546 113.686 34.1469 113.994L33.7826 113.748ZM34.0525 113.161C34.0783 112.98 34.0523 112.764 34.0132 112.434L34.4497 112.385C34.4926 112.747 34.5213 112.983 34.4873 113.221L34.0525 113.161ZM34.0132 112.434C34.0024 112.344 33.9935 112.273 33.9874 112.227L34.4222 112.172C34.4354 112.271 34.4444 112.34 34.4497 112.385L34.0132 112.434ZM33.9874 112.227C33.9825 112.189 33.9715 112.114 33.9563 112.01L34.3911 111.946C34.3979 111.993 34.4082 112.066 34.4222 112.172L33.9874 112.227ZM33.9563 112.01L33.9134 111.716L34.2064 111.761L34.1737 111.978L33.9563 112.01ZM34.2064 111.761C34.8286 111.854 35.4392 111.9 36.0466 111.904L36.0449 112.344C35.417 112.34 34.7852 112.292 34.1411 112.195L34.2064 111.761ZM36.0466 111.904C36.6559 111.908 37.2618 111.87 37.873 111.794L37.9246 112.231C37.2948 112.309 36.6711 112.348 36.0449 112.344L36.0466 111.904ZM37.873 111.794L38.0087 112.203L37.8988 112.012L37.873 111.794ZM38.0087 112.203C37.6537 112.41 37.2993 112.592 36.8471 112.824L36.6461 112.433C37.0924 112.203 37.4421 112.023 37.7888 111.821L38.0087 112.203ZM36.8471 112.824C36.8142 112.841 36.7803 112.859 36.7462 112.876L36.5452 112.484C36.5793 112.467 36.6132 112.449 36.6461 112.433L36.8471 112.824ZM36.7462 112.876C36.2815 113.115 36.2773 113.617 36.4414 114.142L36.0222 114.273C35.7973 113.553 35.8273 112.853 36.5452 112.484L36.7462 112.876ZM36.4414 114.142C36.6276 114.738 37.023 115.366 37.2712 115.748L36.9034 115.987C36.6419 115.584 36.2249 114.922 36.0222 114.273L36.4414 114.142ZM37.2712 115.748C37.7907 116.549 38.2807 117.223 38.8434 117.568L38.6148 117.942C37.9785 117.553 37.4535 116.835 36.9034 115.987L37.2712 115.748ZM38.8434 117.568C39.375 117.894 39.9966 117.924 40.8199 117.478L41.0278 117.867C40.044 118.399 39.282 118.351 38.6148 117.942L38.8434 117.568ZM40.8199 117.478C41.209 117.268 41.3396 117.039 41.5154 116.731L41.8986 116.948C41.6862 117.32 41.5284 117.596 41.0278 117.867L40.8199 117.478ZM41.5154 116.731C41.5854 116.608 41.6622 116.474 41.7746 116.306L42.1389 116.55C42.0489 116.685 41.9703 116.822 41.8986 116.948L41.5154 116.731ZM41.7746 116.306L41.8511 116.235L41.9568 116.428L41.7746 116.306ZM41.8511 116.235C41.9795 116.164 42.5281 115.711 43.0617 115.27L43.3419 115.609C42.7901 116.065 42.2226 116.534 42.0624 116.621L41.8511 116.235ZM43.0617 115.27C43.3364 115.043 43.6073 114.819 43.7479 114.706L44.0246 115.05C43.7672 115.258 43.5555 115.432 43.3419 115.609L43.0617 115.27ZM43.7479 114.706L43.9164 114.57L44.0555 114.737L43.8862 114.878L43.7479 114.706ZM44.0555 114.737C44.1433 114.842 44.282 114.907 44.4706 114.952L44.3692 115.38C44.088 115.313 43.8722 115.205 43.717 115.019L44.0555 114.737ZM44.4706 114.952C44.687 115.004 44.9715 115.029 45.316 115.054L45.285 115.494C44.9239 115.468 44.6224 115.441 44.3692 115.38L44.4706 114.952ZM45.316 115.054C45.5862 115.074 46.4494 115.073 47.0069 115.073V115.513C46.4373 115.513 45.5555 115.514 45.285 115.494L45.316 115.054ZM47.0069 115.073C47.1837 115.073 47.3305 115.073 47.4184 115.074L47.4166 115.514C47.3289 115.513 47.1827 115.513 47.0067 115.513V115.073H47.0069ZM47.4184 115.074C47.9378 115.077 48.3496 115.054 48.6216 114.9L48.8381 115.283C48.4793 115.486 48.0047 115.517 47.4167 115.514L47.4185 115.074H47.4184ZM48.6216 114.9C48.87 114.759 49.0193 114.482 49.0565 113.963L49.4964 113.994C49.447 114.682 49.2205 115.066 48.8381 115.283L48.6216 114.9ZM49.0565 113.963C49.0755 113.697 49.08 113.538 49.05 113.402L49.4796 113.307C49.522 113.5 49.5182 113.688 49.4964 113.994L49.0565 113.963ZM49.05 113.402C49.0201 113.265 48.9495 113.124 48.8188 112.892L49.2037 112.677C49.3545 112.944 49.4373 113.114 49.4796 113.307L49.05 113.402ZM48.8188 112.892L48.7913 112.789L49.0113 112.784L48.8188 112.892ZM48.7913 112.789C48.7829 112.474 48.7742 112.158 48.7659 111.842L49.2059 111.832C49.2141 112.147 49.2228 112.463 49.2312 112.779L48.7913 112.789ZM48.7659 111.842C48.7576 111.526 48.749 111.211 48.7407 110.895L49.1806 110.885C49.1889 111.2 49.1975 111.516 49.2059 111.832L48.7659 111.842ZM48.7407 110.895C48.7315 110.556 48.6949 110.284 48.6279 110.02L49.0541 109.913C49.1295 110.211 49.1705 110.513 49.1806 110.885L48.7407 110.895ZM48.6279 110.02C48.5603 109.753 48.4596 109.487 48.3237 109.163L48.7292 108.993C48.8722 109.333 48.9791 109.618 49.0541 109.913L48.6279 110.02ZM48.3237 109.163C48.2274 108.934 48.1449 108.712 48.0641 108.494L48.4766 108.343C48.5536 108.55 48.6322 108.762 48.7292 108.993L48.3237 109.163ZM48.4766 108.342V108.343L48.2704 108.418L48.4766 108.342ZM48.0641 108.495C47.9384 108.156 47.8164 107.827 47.6374 107.473L48.031 107.276C48.2189 107.647 48.3459 107.989 48.4766 108.342L48.0641 108.495ZM47.6374 107.473L47.6176 107.337L47.8342 107.374L47.6374 107.473ZM47.6176 107.337C47.6393 107.214 47.6575 107.1 47.6713 106.997L48.1061 107.052C48.0882 107.186 48.0696 107.306 48.0508 107.412L47.6176 107.337ZM47.6713 106.997C47.6837 106.903 47.6964 106.786 47.7091 106.643L48.149 106.679C48.1398 106.783 48.1252 106.908 48.1061 107.052L47.6713 106.997ZM47.7091 106.643L47.75 106.183L48.0811 106.502L47.929 106.661L47.7091 106.643ZM48.0811 106.502C48.2965 106.709 48.5121 106.917 48.7275 107.125L48.4232 107.443C48.2079 107.235 47.9923 107.027 47.7769 106.82L48.0811 106.502ZM48.7275 107.125L49.2107 107.59L48.9065 107.908L48.4232 107.443L48.7275 107.125ZM49.2107 107.59C49.5595 107.926 49.8781 108.232 50.2317 108.44L50.0083 108.82C49.6124 108.586 49.2753 108.264 48.9065 107.908L49.2107 107.59ZM50.2317 108.44C50.5718 108.641 50.9553 108.757 51.4536 108.734L51.4742 109.174C50.8782 109.202 50.4177 109.062 50.0083 108.82L50.2317 108.44ZM51.4536 108.734C51.9913 108.708 52.572 108.478 53.0548 108.121L53.3161 108.475C52.7662 108.881 52.0985 109.144 51.4742 109.174L51.4536 108.734ZM53.0548 108.121C53.5155 107.782 53.8829 107.331 54.0321 106.84L54.4532 106.967C54.275 107.553 53.848 108.083 53.3161 108.475L53.0548 108.121ZM54.0321 106.84C54.0835 106.671 54.135 106.501 54.1864 106.332L54.6075 106.459C54.5562 106.628 54.5046 106.798 54.4532 106.967L54.0321 106.84ZM54.1864 106.332C54.2461 106.135 54.3062 105.937 54.366 105.74L54.7871 105.868C54.7273 106.065 54.6672 106.262 54.6075 106.459L54.1864 106.332ZM54.366 105.74L54.4233 105.552L54.6169 105.588L54.5766 105.804L54.366 105.74ZM54.6169 105.588C55.5076 105.757 56.4776 105.816 57.4098 105.718L57.4527 106.154C56.4781 106.257 55.4653 106.195 54.5362 106.02L54.6169 105.588ZM57.4098 105.718C58.2287 105.632 59.0186 105.424 59.6976 105.062L59.9039 105.45C59.1744 105.839 58.3285 106.062 57.4527 106.154L57.4098 105.718ZM59.6976 105.062C60.6921 104.531 61.439 103.747 61.9768 102.815L62.3583 103.034C61.7805 104.035 60.9764 104.878 59.9039 105.45L59.6976 105.062ZM61.9768 102.815V102.815L62.1676 102.925L61.9768 102.815V102.815ZM61.9768 102.815C62.5913 101.75 62.9355 100.494 63.0666 99.2005L63.5031 99.2418C63.3657 100.598 63.0041 101.916 62.3583 103.035L61.9768 102.815ZM63.0666 99.2005C63.1733 98.1462 63.1142 96.7083 62.8935 95.3175L63.3266 95.2488C63.553 96.675 63.6133 98.1539 63.5031 99.2416L63.0666 99.2005ZM62.8935 95.3175C62.6988 94.0909 62.3786 92.9046 61.9368 92.0589L62.327 91.856C62.7906 92.7435 63.1249 93.9776 63.3266 95.249L62.8935 95.3175ZM61.9368 92.0589C61.9022 91.9926 61.8447 91.9202 61.7708 91.8473L62.0784 91.5328C62.1845 91.6376 62.2704 91.7476 62.327 91.856L61.9368 92.0589ZM61.7708 91.8473C61.5822 91.6613 61.3021 91.4851 61.0119 91.3853L61.1545 90.9694C61.507 91.0906 61.8481 91.3055 62.0784 91.5328L61.7708 91.8473ZM61.0119 91.3853C60.7427 91.2926 60.4714 91.2671 60.2777 91.3683L60.0748 90.9782C60.3874 90.8148 60.7811 90.841 61.1545 90.9694L61.0119 91.3853ZM60.2777 91.3683C60.2371 91.3895 60.1992 91.4171 60.1655 91.4512L59.851 91.1436C59.9183 91.0754 59.9937 91.0205 60.0748 90.9782L60.2777 91.3683ZM60.1655 91.4512C59.9857 91.6336 59.8278 91.8641 59.6696 92.0952L59.307 91.8477C59.4779 91.5979 59.6485 91.3489 59.851 91.1436L60.1655 91.4512ZM59.6696 92.0952C59.4615 92.3991 59.2524 92.7044 58.9818 92.9356L58.6966 92.6005C58.9254 92.405 59.1167 92.1257 59.307 91.8477L59.6696 92.0952ZM58.9818 92.9356C58.6506 93.2187 58.2665 93.3728 57.9098 93.5158L57.7466 93.1069C58.0709 92.9769 58.4201 92.8367 58.6966 92.6005L58.9818 92.9356ZM57.9098 93.5158C57.8476 93.5407 57.7866 93.5652 57.7479 93.5811L57.5813 93.1739C57.6496 93.1458 57.6982 93.1263 57.7466 93.1069L57.9098 93.5158ZM57.7479 93.5811L57.5379 93.6677L57.4583 93.4531L57.6646 93.3775L57.7479 93.5811ZM57.4583 93.4531C57.3161 93.0691 57.1416 92.726 56.9396 92.4035L57.3125 92.1699C57.5286 92.5149 57.7163 92.8845 57.8708 93.3019L57.4583 93.4531ZM56.9396 92.4035C56.7355 92.0776 56.504 91.774 56.2499 91.4711L56.5867 91.1892C56.8549 91.5088 57.0985 91.8284 57.3125 92.1699L56.9396 92.4035ZM56.2499 91.4711C56.0535 91.2373 55.863 91.0622 55.6573 90.9055L55.9236 90.5566C56.1544 90.7324 56.3676 90.9283 56.5867 91.1892L56.2499 91.4711ZM55.6573 90.9055C55.452 90.7491 55.2186 90.6025 54.9464 90.4321L55.1801 90.0592C55.4557 90.2318 55.6923 90.3804 55.9236 90.5566L55.6573 90.9055ZM54.9464 90.4321C54.1795 89.9519 53.5366 89.3879 52.8808 88.8126L53.1694 88.481C53.8114 89.0442 54.4408 89.5962 55.1801 90.0592L54.9464 90.4321ZM52.8808 88.8126C52.6047 88.5705 52.3261 88.3261 52.0147 88.0693L52.2949 87.7291C52.5831 87.9667 52.8777 88.2251 53.1694 88.481L52.8808 88.8126ZM52.0147 88.0693C50.562 86.8715 49.2167 86.2912 47.7876 86.2012L47.8152 85.7613C49.3403 85.8573 50.7663 86.4687 52.2951 87.7291L52.0147 88.0693ZM47.7876 86.2012C46.348 86.1106 44.8096 86.5138 42.9831 87.2826L42.8128 86.877C44.7011 86.0822 46.3007 85.666 47.8153 85.7613L47.7876 86.2012ZM42.9831 87.2826C42.1223 87.6448 41.4853 88.071 40.9325 88.5822L40.6353 88.259C41.2247 87.7139 41.9015 87.2606 42.8128 86.877L42.9831 87.2826ZM40.9325 88.5822C40.3756 89.0972 39.8968 89.7056 39.3599 90.4239L39.0076 90.161C39.5576 89.4252 40.0501 88.8002 40.6353 88.259L40.9325 88.5822ZM39.3599 90.4239L39.2978 90.507L39.1949 90.5124L39.1838 90.2924L39.3599 90.4239ZM39.1949 90.5124C38.889 90.5283 38.6329 90.5653 38.3782 90.6671L38.2149 90.2582C38.5233 90.1348 38.8215 90.0907 39.1726 90.0725L39.1949 90.5124ZM38.3782 90.6671C38.1195 90.7705 37.853 90.9435 37.5264 91.2317L37.2359 90.9018C37.6035 90.5774 37.9102 90.38 38.2149 90.2582L38.3782 90.6671ZM37.5264 91.2317C37.2749 91.4536 37.0298 91.6809 36.7892 91.9136L36.4833 91.5974C36.7248 91.3639 36.9749 91.1321 37.2359 90.9018L37.5264 91.2317ZM36.7892 91.9136L36.7884 91.9145L36.6363 91.7556L36.7892 91.9137V91.9136ZM36.7884 91.9145C36.5501 92.145 36.3174 92.3798 36.0884 92.6188L35.7706 92.3146C36.0033 92.0716 36.2405 91.8323 36.4842 91.5966L36.7884 91.9145ZM36.0884 92.6188L35.9638 92.6833L35.9295 92.4667L36.0884 92.6188ZM35.9638 92.6833C34.2444 92.9573 32.8511 93.258 31.6067 93.74L31.4486 93.3293C32.721 92.8365 34.1423 92.5295 35.8953 92.2501L35.9638 92.6833ZM31.6067 93.74C30.3729 94.2179 29.284 94.8767 28.1642 95.8695L27.8737 95.5396C29.0352 94.5098 30.1659 93.8261 31.4487 93.3293L31.6067 93.74ZM28.1642 95.8695C27.7104 96.2718 27.3191 96.6952 26.9777 97.1422L26.6288 96.8759C26.9885 96.4049 27.3991 95.9603 27.8737 95.5396L28.1642 95.8695ZM26.9777 97.1422C26.6362 97.5894 26.3428 98.0629 26.085 98.5649L25.6932 98.3655C25.9618 97.8423 26.2693 97.3468 26.6288 96.8759L26.9777 97.1422ZM26.085 98.5649L26.0524 98.6121L25.8891 98.4652L26.085 98.5649ZM26.0524 98.6121C25.8022 98.8885 25.5526 99.1687 25.2848 99.4097L24.991 99.0815C25.2495 98.8487 25.4874 98.5818 25.7258 98.3183L26.0524 98.6121ZM25.2848 99.4097C25.0042 99.6624 24.6999 99.8773 24.3482 100.013L24.1902 99.6019C24.4836 99.4889 24.7453 99.3026 24.991 99.0815L25.2848 99.4097ZM24.3482 100.013H24.3474L24.2692 99.8073L24.3482 100.013ZM24.3474 100.013C24.0651 100.121 23.9272 100.176 23.7708 100.109L23.941 99.7038C23.9481 99.7067 24.0191 99.668 24.191 99.6019L24.3474 100.013ZM23.7708 100.109L23.77 100.108L23.8559 99.9065L23.7708 100.109V100.109ZM23.77 100.108C23.6051 100.038 23.5591 99.9031 23.4571 99.6307L23.8696 99.4778C23.9275 99.6326 23.9263 99.698 23.9419 99.7046L23.77 100.108ZM23.4571 99.6307L23.3997 99.4775L23.5319 99.3781L23.6633 99.5543L23.4571 99.6307ZM23.5319 99.3781C23.9361 99.0744 23.9744 98.4696 24.0112 97.887L24.4511 97.9146C24.4081 98.5958 24.3632 99.3033 23.7948 99.7304L23.5319 99.3781ZM24.0112 97.887C24.0159 97.8108 24.0208 97.735 24.025 97.6772L24.4649 97.7082C24.4591 97.7878 24.455 97.8514 24.4511 97.9146L24.0112 97.887ZM24.025 97.6772L24.0406 97.4626L24.2552 97.4728L24.2449 97.6927L24.025 97.6772ZM24.2552 97.4728C24.6181 97.49 24.7834 97.746 24.9617 98.0221L24.5922 98.2594C24.4782 98.0829 24.3725 97.9192 24.2346 97.9127L24.2552 97.4728ZM24.9617 98.0221C25.0114 98.0992 25.0627 98.1786 25.1169 98.247L24.7733 98.5202C24.705 98.4339 24.6478 98.3455 24.5922 98.2594L24.9617 98.0221ZM25.1599 98.4309L25.0593 98.881L24.7733 98.5202L24.9451 98.3836L25.1599 98.4309ZM24.7303 98.3363C24.8046 98.0041 24.8615 97.5685 24.7811 97.212L25.209 97.1157C25.3073 97.5512 25.2443 98.0536 25.1599 98.4309L24.7303 98.3363ZM24.7811 97.212C24.73 96.9852 24.6205 96.7903 24.417 96.6849L24.618 96.2931C24.9545 96.4674 25.131 96.7696 25.209 97.1157L24.7811 97.212ZM24.417 96.6849L24.2431 96.5948L24.3112 96.4125L24.5175 96.489L24.417 96.6849ZM24.3112 96.4125C24.3437 96.3256 24.391 96.205 24.4396 96.0811L24.8486 96.241C24.8105 96.338 24.7724 96.4355 24.7237 96.5655L24.3112 96.4125ZM24.4396 96.0811C24.5045 95.9156 24.571 95.7459 24.6411 95.5466L25.057 95.6909C24.9943 95.869 24.9204 96.0575 24.8486 96.241L24.4396 96.0811ZM24.8121 95.4022L25.1811 95.3382L25.057 95.6909L24.849 95.6187L24.8121 95.4022ZM24.886 95.8353C24.4601 95.9092 23.522 96.4356 22.8411 97.1423L22.5232 96.8381C23.266 96.0671 24.3211 95.4874 24.8121 95.4022L24.886 95.8353ZM22.8411 97.1423C22.5943 97.3985 22.3851 97.6751 22.253 97.9571L21.8544 97.7732C22.0101 97.4409 22.2473 97.1245 22.5232 96.8381L22.8411 97.1423ZM22.253 97.9571C22.127 98.2259 22.0694 98.5011 22.1158 98.7683L21.6826 98.8422C21.6198 98.4801 21.6924 98.1187 21.8544 97.7732L22.253 97.9571ZM22.1158 98.7683C22.1578 99.011 22.2882 99.255 22.5337 99.4915L22.2295 99.8094C21.9112 99.5027 21.7404 99.1756 21.6826 98.8422L22.1158 98.7683ZM22.5337 99.4915L22.5947 99.598L22.3816 99.6505L22.5337 99.4915ZM22.5947 99.598C22.6505 99.8252 22.7006 100.017 22.7551 100.191L22.3358 100.322C22.2791 100.141 22.2268 99.9401 22.1685 99.7029L22.5947 99.598ZM22.7551 100.191C22.8072 100.357 22.864 100.506 22.9354 100.655L22.5384 100.844C22.4588 100.678 22.395 100.51 22.3358 100.322L22.7551 100.191ZM22.9354 100.655C23.0936 100.984 23.3439 101.184 23.6323 101.277L23.4983 101.696C23.0996 101.568 22.7547 101.293 22.5384 100.844L22.9354 100.655ZM23.6323 101.277C23.9689 101.385 24.3605 101.352 24.7263 101.209L24.8862 101.618C24.4288 101.796 23.9327 101.835 23.4983 101.696L23.6323 101.277ZM24.7263 101.209L25.1082 101.06L25.021 101.46L24.8062 101.414L24.7263 101.209ZM25.021 101.46C24.9174 101.935 24.8549 102.433 24.8339 102.996L24.394 102.981C24.4159 102.393 24.4819 101.87 24.5914 101.367L25.021 101.46ZM24.8339 102.996C24.813 103.559 24.8343 104.19 24.898 104.932L24.4581 104.968C24.3935 104.216 24.3721 103.568 24.394 102.981L24.8339 102.996ZM24.898 104.932C24.9142 105.121 24.9337 105.295 24.956 105.454L24.5212 105.512C24.4935 105.315 24.4722 105.133 24.4581 104.968L24.898 104.932ZM24.956 105.454C24.9807 105.629 25.0108 105.808 25.0457 105.991L24.6144 106.073C24.5791 105.889 24.5478 105.702 24.5212 105.512L24.956 105.454ZM25.0457 105.991L25.0363 106.108L24.8301 106.032" fill="black"/>
<path fill-rule="evenodd" clip-rule="evenodd" d="M36.0503 92.818L33.1542 93.2887L30.5116 94.447L28.2672 95.8589L26.1314 98.4653L24.9248 99.7432L23.7581 100.173L23.4495 99.419L23.9891 98.6402L24.1103 97.5419L24.4717 97.5565L24.8666 97.9167L24.7601 96.7979L24.3224 96.5043L24.3356 96.0779L23.2988 96.6645L22.3598 97.7723L22.1641 98.7624L22.5656 99.5553L22.9401 100.902L23.7017 101.263L24.5029 101.223L25.2626 100.782L24.7558 103.352L25.2626 106.212L24.7048 107.533L22.8776 109.501L23.2025 110.677L24.068 112.04L25.7001 113.189L26.5658 113.307L27.5282 113.34L26.9278 115.805L29.136 116.71L31.8873 117.072L32.8284 116.457L32.9008 114.792L33.9507 113.054L34.0231 111.678L36.5571 111.859L38.91 111.642L36.5571 113.054L36.9553 114.755L38.4394 117.072L39.8875 117.688L41.0458 117.217L41.5165 116.276L43.9419 114.43L44.4125 114.828L48.2134 114.972L48.9736 114.357L49.046 113.271L48.7926 112.801L48.6116 109.868L47.3446 107.334L47.5617 106.212L48.322 106.61L50.4578 108.601L51.5076 108.674L52.6659 108.203L53.8244 107.334L54.4036 105.452L57.8064 105.669L59.8698 104.873L61.5349 103.316L62.7295 101.072L63.0192 98.4291L62.7657 95.3522L62.1142 92.6011L61.4625 91.7322L60.5576 91.4426L58.9647 93.1802L57.5168 93.687L56.2498 91.5874L54.9828 90.429L54.2949 89.9946L51.5438 87.714L49.3355 86.5194L47.1273 86.3384L44.5572 86.7728L42.3127 87.6054L40.7561 88.8724L39.5254 90.3566L38.2584 90.7186L36.0503 92.818Z" fill="white" stroke="#1F1917" stroke-width="0.0644626" stroke-miterlimit="10"/>
<path fill-rule="evenodd" clip-rule="evenodd" d="M27.6547 99.353C25.174 102.246 25.7251 105.755 26.4126 109.193C26.0457 108.266 25.6787 107.339 25.3118 106.412L24.9062 103.863C24.9448 102.994 24.9835 102.125 25.0222 101.256C25.3698 100.426 25.7174 99.5951 26.065 98.7646C26.5864 97.9922 27.1079 97.2196 27.6293 96.4471C28.4404 95.7712 29.2516 95.0952 30.0627 94.4193C30.951 94.0524 31.8394 93.6855 32.7278 93.3186C33.7706 93.1834 34.8135 93.0482 35.8563 92.913C34.8906 94.0138 33.9251 95.1146 32.9594 96.2155C30.6334 96.9699 29.2617 97.478 27.6547 99.353" fill="white"/>
<path fill-rule="evenodd" clip-rule="evenodd" d="M39.3305 90.537C37.606 92.2195 36.664 93.4885 35.5666 95.4585C34.7816 96.8678 33.901 98.2251 33.0757 99.6146C32.6582 100.318 32.6188 100.908 32.494 101.719C32.0885 101.236 31.6829 100.753 31.2773 100.27C31.4705 99.691 31.6636 99.1116 31.8568 98.5322C32.5134 97.3542 33.17 96.176 33.8266 94.9981C35.2171 93.6269 36.6076 92.2558 37.9982 90.8845C38.4423 90.7686 38.8865 90.6527 39.3307 90.5369" fill="white"/>
<path fill-rule="evenodd" clip-rule="evenodd" d="M47.8502 86.3651C46.469 86.883 44.1752 87.0535 44.0158 88.6388C43.9025 89.7647 44.1007 90.3304 44.7793 91.5215C43.1032 89.7871 42.6887 90.0555 39.4492 90.5945C39.9127 89.9378 40.3762 89.2812 40.8397 88.6245C41.6508 88.1225 42.462 87.6203 43.2731 87.1182C44.316 86.8864 45.3589 86.6547 46.4017 86.4229C46.8844 86.4036 47.3673 86.3844 47.85 86.3651" fill="white"/>
<path fill-rule="evenodd" clip-rule="evenodd" d="M51.6623 107.806C52.1221 108.09 52.1122 108.296 52.0353 108.49C52.3981 108.345 52.7608 108.2 53.1235 108.055C53.3585 107.739 53.5935 107.424 53.8284 107.108C54.0029 106.659 54.1773 106.209 54.3518 105.76C54.1289 105.592 53.906 105.424 53.6831 105.257C52.709 105.381 51.7348 105.505 50.7606 105.63C50.6881 105.827 50.6155 106.024 50.543 106.221C50.5638 106.5 50.5845 106.78 50.6052 107.06C50.6985 107.226 50.7918 107.392 50.885 107.557C51.0302 107.63 51.1752 107.703 51.3203 107.775C51.4344 107.786 51.5483 107.796 51.6623 107.806Z" fill="white"/>
<path fill-rule="evenodd" clip-rule="evenodd" d="M51.39 102.81C49.9251 103.233 49.9365 103.349 49.5039 104.803C50.075 103.886 50.4978 103.424 51.39 102.81Z" fill="white"/>
<path fill-rule="evenodd" clip-rule="evenodd" d="M61.1274 91.9338C60.867 92.0541 60.6134 92.112 60.4507 92.3502C60.1002 92.863 59.7999 93.2943 59.2203 93.6543C58.9284 93.8357 58.6265 93.9531 58.317 94.0495C58.0602 94.1294 57.9061 94.0581 57.6875 94.2151C57.8172 94.2377 57.9468 94.2604 58.0765 94.2832H58.934C59.2864 94.0655 59.6388 93.8479 59.9911 93.6303C60.1985 93.4126 60.4057 93.195 60.6129 92.9774C60.7844 92.6295 60.9559 92.2815 61.1274 91.9338" fill="white"/>
<path fill-rule="evenodd" clip-rule="evenodd" d="M37.7929 95.1844C37.2165 96.7614 36.713 98.1133 35.8398 99.541C36.9586 98.3357 37.6368 97.3112 38.2775 95.9484C38.5264 95.4191 38.5734 94.7979 39.2667 95.0289C39.2978 95.5575 39.4096 96.086 39.4407 96.6145C39.8153 93.9293 40.8716 92.8065 43.327 91.7643C42.6326 91.8473 41.9382 91.9301 41.2439 92.013C40.591 92.1582 39.9381 92.3032 39.2852 92.4483C38.9639 92.9147 38.6426 93.3811 38.3214 93.8474C38.1452 94.293 37.969 94.7386 37.7928 95.1842" fill="white"/>
<path fill-rule="evenodd" clip-rule="evenodd" d="M42.5536 95.1206C43.0831 97.6129 43.8454 100.005 44.1767 102.537C44.3918 104.182 44.4153 104.972 43.5875 106.391C42.6829 106.333 42.1213 106.435 41.2463 106.722C37.7629 107.864 35.7652 109.542 33.418 106.16C34.1672 106.513 34.9166 106.866 35.6658 107.219L37.2682 106.904C38.2113 106.355 39.1544 105.806 40.0975 105.256C40.8333 105.111 41.5691 104.966 42.3048 104.821C42.5432 103.826 42.7815 102.831 43.0199 101.836C42.8437 100.52 42.6675 99.2039 42.4914 97.8877C42.4707 97.2659 42.45 96.6441 42.4292 96.0223C42.4707 95.7217 42.5122 95.4212 42.5535 95.1206" fill="white"/>
<path fill-rule="evenodd" clip-rule="evenodd" d="M48.555 110.544C48.2624 112.569 49.2287 113.657 48.8287 114.217C48.7153 114.375 48.5618 114.651 48.3904 114.727C47.7781 114.997 46.9363 114.676 46.8761 114.835H44.8552C44.5859 114.72 44.3164 114.607 44.0469 114.493C44.4614 114.005 44.876 113.518 45.2905 113.031C45.6946 112.15 46.0988 111.269 46.503 110.389C46.7622 109.497 47.0213 108.606 47.2802 107.715H47.6844C47.9747 108.658 48.2648 109.601 48.555 110.544" fill="white"/>
<path fill-rule="evenodd" clip-rule="evenodd" d="M45.1582 104.657C45.3224 105.576 45.6075 105.795 46.0399 106.685C45.752 108.136 45.2896 109.863 44.7332 111.144C44.4985 111.684 44.3091 111.982 43.8953 112.4C43.1968 113.105 42.4906 113.72 41.6983 114.331C41.1282 114.771 40.7301 114.55 40.0265 114.45C39.7273 114.993 39.6447 115.294 39.094 115.57C38.247 115.993 37.489 115.08 36.8242 114.544C37.3041 115.293 37.7841 116.043 38.2639 116.792C38.5956 117.103 38.9272 117.414 39.2588 117.725C39.5386 117.767 39.8184 117.808 40.0983 117.85C40.4714 117.622 40.8444 117.394 41.2175 117.166C41.4144 116.792 41.6114 116.419 41.8082 116.046C42.2228 115.735 42.6374 115.425 43.0518 115.114C43.5597 114.678 44.0675 114.243 44.5753 113.808C44.8966 113.352 45.2178 112.896 45.5391 112.44C45.8292 111.901 46.1195 111.362 46.4096 110.823C46.7827 109.704 47.1557 108.585 47.5289 107.465C47.56 107.04 47.5911 106.616 47.6221 106.191C47.1557 105.983 46.6894 105.776 46.2231 105.569C45.8811 105.248 45.5003 104.978 45.1582 104.657" fill="white"/>
<path fill-rule="evenodd" clip-rule="evenodd" d="M33.9999 111.132C35.5691 111.132 37.2263 111.045 38.6633 110.386C39.0701 109.776 39.4715 109.278 39.9692 108.738C39.5162 109.594 39.3742 110.077 39.2541 111.039C39.0986 111.267 38.9432 111.495 38.7877 111.723C37.6062 111.754 36.4248 111.785 35.2434 111.816C34.86 111.775 34.4765 111.733 34.0931 111.692C34.0517 111.651 34.0102 111.609 33.9688 111.568C33.9791 111.423 33.9896 111.277 33.9999 111.132" fill="white"/>
<path fill-rule="evenodd" clip-rule="evenodd" d="M33.7898 110.044C33.7492 109.677 33.7086 109.309 33.668 108.941C33.3999 110.554 33.4644 111.636 32.7217 113.081C32.1669 113.724 31.4839 114.309 30.7015 114.622C30.7676 115.018 30.7873 115.266 30.749 115.556C30.6112 116.602 28.5203 116.14 27.6602 116.098C29.0401 116.454 30.42 116.809 31.7998 117.164C32.1107 117.04 32.4216 116.915 32.7326 116.791C32.8362 116.19 32.9398 115.589 33.0435 114.988C33.3336 114.449 33.6239 113.91 33.914 113.371C33.9657 113.039 34.0176 112.708 34.0694 112.376C33.9761 111.599 33.8829 110.822 33.7896 110.044" fill="white"/>
<path fill-rule="evenodd" clip-rule="evenodd" d="M31.4528 100.937C31.4094 101.721 31.3587 102.048 31.7047 102.741C32.1446 103.622 32.6849 104.45 33.1628 105.32C33.2146 104.74 33.2664 104.16 33.3182 103.579C32.6964 102.698 32.0747 101.817 31.4528 100.937" fill="white"/>
<path fill-rule="evenodd" clip-rule="evenodd" d="M25.0706 106.864C24.936 107.15 24.8014 107.437 24.6668 107.723C25.0372 108.971 25.3665 109.761 26.0719 110.851C25.949 111.293 25.8571 111.486 25.5744 111.846C24.9536 111.751 24.4024 111.723 23.7734 111.725C24.4679 112.264 25.1623 112.803 25.8566 113.342C26.1985 113.28 26.5405 113.217 26.8825 113.155C27.2245 112.813 27.5665 112.471 27.9085 112.129C27.4213 111.373 26.9343 110.616 26.4473 109.86C25.9884 108.861 25.5294 107.862 25.0706 106.864" fill="white"/>
<path fill-rule="evenodd" clip-rule="evenodd" d="M61.1386 91.5187C61.5614 93.4214 62.1068 95.177 62.0562 97.1255C61.9941 99.5161 61.5282 102.536 59.3131 103.978C56.8326 105.592 53.9207 104.828 51.1992 104.137C52.3082 104.593 53.4171 105.049 54.5259 105.505C55.5623 105.557 56.5987 105.608 57.635 105.66C58.3398 105.453 59.0445 105.246 59.7492 105.038C60.2985 104.582 60.8478 104.126 61.397 103.67C61.8115 102.8 62.226 101.929 62.6406 101.059C62.796 100.053 62.9515 99.0482 63.1069 98.0431C62.9826 97.0584 62.8582 96.074 62.7338 95.0895C62.5059 94.1152 62.2778 93.141 62.0499 92.167C61.7462 91.9509 61.4425 91.7349 61.1387 91.5189" fill="white"/>
<path fill-rule="evenodd" clip-rule="evenodd" d="M24.1174 97.191C22.9912 97.9239 22.549 98.2457 22.6724 99.6041C22.7846 100.011 22.8968 100.418 23.0091 100.825C23.168 100.932 23.3271 101.04 23.4861 101.147C23.6825 101.213 23.8789 101.278 24.0753 101.344C24.4307 101.26 24.7861 101.175 25.1416 101.091C25.324 100.525 25.5064 99.9595 25.6888 99.3936C25.1837 99.6415 24.6786 99.8894 24.1736 100.137H23.8228C23.6919 99.9361 23.5609 99.7351 23.4299 99.534C23.589 99.3001 23.748 99.0663 23.907 98.8325C23.9912 98.3882 24.0753 97.9439 24.1595 97.4997C24.267 97.5324 24.3747 97.5651 24.4822 97.5978C24.6131 97.7008 24.7441 97.8036 24.875 97.9065C24.8563 97.6727 24.8376 97.4388 24.8189 97.205C24.73 97.0554 24.6412 96.9057 24.5523 96.7561C24.4635 96.6812 24.3747 96.6064 24.2857 96.5316C24.2296 96.7514 24.1736 96.9712 24.1174 97.191" fill="white"/>
<path fill-rule="evenodd" clip-rule="evenodd" d="M49.3789 86.4878C50.3783 87.4158 51.605 88.2225 52.4045 89.3567C52.7138 89.7958 53.0576 90.0204 52.3992 90.6404C53.0948 90.4417 53.3533 90.4633 53.9101 90.5308C54.9231 90.6534 55.8725 92.0933 55.9331 93.1252C55.9211 93.2218 55.6517 93.4408 54.8685 93.657C54.8529 93.6871 54.4265 93.5986 54.4371 93.6275C54.5185 93.8502 54.6272 93.8843 54.7933 93.9885C54.8293 94.2362 54.8525 94.6182 55.0212 94.889C55.5141 94.8804 55.9957 94.934 56.4783 95.0296C56.6407 95.2989 56.6162 95.5683 56.6027 95.8379C56.7892 95.8069 56.9757 95.7757 57.1623 95.7447C57.1104 95.3197 57.0586 94.8948 57.0069 94.47C57.1726 94.1901 57.3384 93.9103 57.5043 93.6305C57.2658 93.0916 57.0275 92.5527 56.7892 92.0138C56.3331 91.5786 55.8772 91.1433 55.4212 90.708C55.3774 90.7059 55.3333 90.7036 55.2895 90.7014C54.7766 90.3867 54.2639 90.072 53.7511 89.7573C52.9147 89.073 52.0783 88.3887 51.2419 87.7044C50.6209 87.2988 50 86.8933 49.379 86.4878" fill="white"/>
<path fill-rule="evenodd" clip-rule="evenodd" d="M51.0675 94.1447C51.0148 94.237 50.9352 94.3843 50.8332 94.4864C51.2495 94.8802 51.4549 95.1438 51.6032 95.7007C51.1326 95.9344 50.6621 96.168 50.1915 96.4017C49.7933 96.7834 49.3951 97.1652 48.9969 97.5469C48.4728 97.2648 48.3422 97.0481 48.0886 96.5103C47.7933 96.5884 47.5134 96.6637 47.2695 96.5742C47.4243 96.5754 47.5194 96.5367 47.6739 96.4411C47.9273 96.1779 48.1807 95.9146 48.4341 95.6513C48.8817 95.3124 49.3293 94.9734 49.7768 94.6345C50.0697 94.539 50.3626 94.4435 50.6555 94.3481C50.7673 94.3021 50.9556 94.1909 51.0675 94.1447" fill="white"/>
<path fill-rule="evenodd" clip-rule="evenodd" d="M52.3647 95.5532C50.8675 96.3594 49.4335 97.1702 48.668 98.7012C48.668 96.7578 50.6192 95.9024 52.3647 95.5532Z" fill="white"/>
<path fill-rule="evenodd" clip-rule="evenodd" d="M48.3705 91.7293C47.2588 92.4873 46.4727 94.017 46.5715 95.5078C46.2093 94.2169 46.3376 92.9971 47.4496 92.1056C47.6372 92.0144 47.8248 91.9232 48.0123 91.832C48.1318 91.7978 48.2511 91.7637 48.3705 91.7294" fill="white"/>
<path fill-rule="evenodd" clip-rule="evenodd" d="M50.4919 103.238C50.7217 103.113 51.1388 102.941 51.3686 102.816C51.1322 102.856 50.7085 102.942 50.4721 102.982C49.8408 103.089 49.7665 103.241 49.6685 103.862C49.6223 104.155 49.5587 104.518 49.5125 104.811C49.6363 104.48 49.7852 104.095 49.9294 103.779C50.082 103.446 50.168 103.414 50.4919 103.238V103.238ZM38.7776 87.2286C39.2738 86.4843 39.5595 86.2422 40.3229 85.7708C39.2862 86.0205 39.0886 86.2125 38.7776 87.2286ZM38.6144 88.8681C39.4826 87.1227 40.14 86.48 41.9578 85.6229C39.9017 86.1268 39.2974 86.4852 38.6144 88.8681ZM20.0217 97.9529C20.2122 97.0789 20.3898 96.7492 20.9286 96.0318C20.0545 96.6424 19.9406 96.8933 20.0217 97.9529ZM39.4825 112.58C39.4562 112.368 39.4298 112.156 39.4033 111.944C39.3557 111.56 39.3576 111.248 39.3882 110.861C39.4177 110.486 39.4471 110.112 39.4765 109.738C39.3675 110.118 39.1496 110.499 39.0406 110.879C38.997 111.032 38.9609 111.155 38.9403 111.269C37.3134 111.601 35.6983 111.622 34.0709 111.331C33.9672 110.729 33.8408 110.101 33.7348 109.651C33.7026 110.155 33.7233 111.549 33.7207 112.329C33.7187 112.933 33.6932 113.14 33.3816 113.654C33.0897 114.136 32.9661 114.245 32.5576 115.058C32.5915 115.572 32.5922 115.911 32.4558 116.398C32.229 117.208 29.9416 116.58 29.3381 116.415C28.5949 116.212 27.0586 115.909 27.4449 114.919C27.785 114.047 28.0005 113.128 28.1666 111.908C26.8051 109.946 25.5389 107.258 25.296 104.877C25.1074 103.028 25.2206 101.89 25.6207 100.758C26.2547 98.9664 27.1417 97.4151 28.565 96.1658C30.4848 94.4812 32.2797 93.8046 35.0895 93.3769C34.4138 94.1333 33.7452 94.9332 33.0165 95.7909C32.2788 96.6593 31.8404 97.5363 31.3721 98.486C30.725 99.7977 30.7389 100.297 31.5967 101.448C32.3359 102.441 32.735 102.888 33.0577 103.859C32.7911 104.408 32.6943 104.872 32.6046 105.623C33.5097 106.612 34.1822 107.29 35.061 107.499C35.923 107.704 36.6429 107.664 37.414 107.27C39.1268 106.394 40.7117 105.263 42.6438 105.216C43.5377 103.019 43.4473 101.183 43.0181 99.0567C42.7251 97.6047 42.6076 96.2298 42.5164 94.7494C42.154 96.2739 42.0861 97.6145 42.3548 99.1331C42.679 100.963 42.9309 102.985 42.0293 104.593C40.2823 104.727 38.785 105.79 37.2104 106.605C36.5776 106.933 35.9186 106.965 35.218 106.773C34.5677 106.594 34.1289 106.164 33.4284 105.356C33.4174 104.545 33.6004 104.171 33.9729 103.436C34.5714 102.256 35.2321 101.158 35.957 99.9972C35.0693 101.069 34.2283 101.964 33.5296 103.041C33.2625 102.28 32.8807 101.894 32.2481 101.037C31.6303 100.201 31.5655 99.8341 32.0275 98.8658C32.492 97.8927 32.886 97.0373 33.6767 96.1837C35.0428 94.7084 36.2942 93.0665 37.7882 91.6137C38.5994 90.8248 38.9287 90.8521 40.0047 90.689C40.9771 90.5416 41.9267 90.3555 42.9185 90.125C41.9593 90.2145 41.0321 90.2474 40.0983 90.2705C40.0886 90.2708 40.079 90.2711 40.0694 90.2711C40.9881 89.0978 41.5213 88.444 43.0134 87.7957C46.6872 86.2001 49.0216 86.0275 51.9075 88.4534C52.6554 89.0821 53.3086 89.6925 54.0671 90.2349C53.7921 90.2584 53.5551 90.3077 53.2417 90.4308C53.6232 90.3582 54.0637 90.4303 54.4595 90.5026C54.5706 90.5747 54.6848 90.6449 54.8018 90.714C55.3371 91.0294 55.641 91.2036 56.003 91.7081C56.3857 92.2412 56.7047 92.7739 56.9859 93.3611C56.8016 93.2953 56.6471 93.2396 56.5094 93.1987C56.4081 93.1522 56.2978 93.1215 56.1809 93.1103C55.9494 93.088 55.7278 93.145 55.5432 93.2586C55.5358 93.262 55.5284 93.2654 55.5209 93.2691C55.2248 93.4132 54.7661 93.5776 54.4591 93.6274C54.6156 93.6815 54.9619 93.7017 55.1253 93.6371C55.1472 93.6283 55.1694 93.6217 55.1923 93.6163C55.1186 93.7416 55.0704 93.8841 55.0556 94.0379C55.036 94.2418 55.0775 94.4376 55.1652 94.6075L55.1661 94.6093C55.1938 94.6745 55.2323 94.7348 55.2747 94.7781C55.1343 94.8297 54.9911 94.8888 54.8435 94.953C55.5281 94.8487 56.1454 94.8307 56.8136 94.9188C56.8577 95.1294 56.9021 95.3526 56.9432 95.5796C56.8604 95.5862 56.7778 95.5925 56.6951 95.599C56.6884 95.5996 56.6816 95.6002 56.675 95.6008C56.3588 95.3481 56.0066 95.3906 55.5254 95.5004C54.062 95.8341 54.4059 96.6553 53.7326 97.8925C54.4316 97.038 54.3798 96.144 55.519 95.8742C55.7844 95.8114 55.9651 95.7328 56.1448 95.7598C55.8214 95.9225 55.5416 96.1921 55.4307 96.5052C55.118 97.3881 55.3122 98.132 54.9687 98.9567C55.3942 98.2195 55.4199 97.5 55.8003 96.7244C55.9369 96.4458 56.4441 95.9998 56.7554 95.9929C56.8409 95.9911 56.9261 95.9893 57.0117 95.9874C57.0867 96.4782 57.1323 96.9654 57.1032 97.3696C57.0502 98.1071 56.8585 99.2018 56.7438 99.6207C57.1292 99.1253 57.3048 98.0759 57.4741 97.3373C57.6504 96.5681 57.6059 95.6452 57.4516 94.8189C57.2398 93.6851 58.4074 93.8695 59.0853 93.3352C59.5836 92.9424 59.9265 92.3152 60.3834 91.8709C60.8366 91.4303 61.5499 92.0777 61.7281 92.5085C62.501 94.3782 62.8531 97.3199 62.649 99.2048C62.4199 101.32 61.3982 103.629 59.5327 104.67C57.1547 105.997 54.3506 105.186 51.9882 104.391C51.4839 104.221 51.1333 103.973 50.69 103.694C50.8107 104.237 50.8655 104.812 50.7049 105.355C50.45 106.216 50.0384 107.625 51.2076 107.885C51.6526 107.984 51.8544 107.97 52.4826 107.646C51.9741 107.761 51.7178 107.732 51.3683 107.668C51.0516 107.609 50.8837 107.408 50.7952 107.171C50.9059 107.251 51.0863 107.294 51.3947 107.369C52.2614 107.578 53.0874 107.16 53.2489 106.559C53.3432 106.208 53.3271 106.024 53.5267 105.545C53.7059 105.6 53.8915 105.651 54.0816 105.697C53.9744 106.047 53.8669 106.397 53.7596 106.747C53.481 107.656 52.3957 108.389 51.4373 108.372C50.5514 108.356 49.9898 107.801 49.3782 107.257C48.9568 106.882 48.5514 106.524 48.1495 106.168C47.0469 105.821 46.1631 105.414 45.14 104.656C45.8682 105.512 46.3623 105.986 47.3778 106.412C47.2301 107.918 46.7065 109.017 46.2601 110.459C46.0581 111.111 44.4631 113.723 44.021 113.978C43.7058 114.159 41.7317 115.822 41.3602 116.042C41.0837 116.409 40.8409 116.916 40.4251 117.136C39.158 117.806 38.3438 116.523 37.6618 115.44C37.3513 114.946 36.4892 113.524 37.2408 113.126C37.9514 112.75 38.3494 112.481 39.0743 112.005C39.1809 112.199 39.3637 112.386 39.4828 112.58L39.4825 112.58ZM43.8875 114.878C43.246 115.396 42.1672 116.313 41.9579 116.428C41.5789 116.994 41.5321 117.344 40.925 117.673C39.1176 118.651 38.1584 117.516 37.0886 115.867C36.5788 115.082 35.4641 113.288 36.647 112.68C37.1453 112.424 37.5231 112.232 37.8998 112.013C36.659 112.166 35.4411 112.168 34.1747 111.978C34.1972 112.131 34.2167 112.276 34.2325 112.409C34.3148 113.101 34.3418 113.313 33.966 113.871C33.692 114.277 33.5864 114.395 33.2554 115.134C33.3157 115.734 33.2895 116.072 33.1201 116.701C32.7435 118.099 30.1336 117.333 29.07 117.045C27.7904 116.699 25.9621 116.377 26.7122 114.732C26.888 114.346 27.0261 113.952 27.1299 113.576C26.0111 114.071 24.4562 113.021 23.7155 112.278C23.0111 111.572 22.6285 110.752 22.4952 109.956C22.3817 109.279 22.4856 109.282 22.9689 108.803C23.4111 108.366 23.8531 107.928 24.2952 107.49C24.4737 107.004 24.6525 106.519 24.8309 106.033C24.7614 105.67 24.7097 105.308 24.6789 104.95C24.5505 103.456 24.5936 102.392 24.807 101.414C24.0285 101.718 23.1352 101.575 22.7378 100.749C22.5867 100.435 22.4967 100.115 22.3826 99.6506C20.6459 97.9773 23.9004 95.7837 24.8498 95.6187C24.7413 95.9271 24.6224 96.2093 24.5177 96.489C25.1616 96.8224 25.0827 97.7721 24.9459 98.3836C24.7143 98.0913 24.5863 97.7091 24.2457 97.6927C24.1958 98.3842 24.2044 99.1483 23.6643 99.5543C23.8242 99.9817 23.8158 99.9821 24.2702 99.8073C24.9155 99.5589 25.4014 99.0054 25.8902 98.4653C26.4167 97.4398 27.0915 96.5276 28.0199 95.7046C30.3012 93.682 32.4576 93.0202 35.9296 92.4668C36.3918 91.9845 36.8694 91.5192 37.3821 91.0667C38.0766 90.4538 38.5276 90.3265 39.1845 90.2923C40.2715 88.8383 41.1268 87.8258 42.8989 87.0799C46.6135 85.5163 49.1741 85.4409 52.1555 87.8993C53.1408 88.7116 53.9811 89.5676 55.0639 90.2457C55.6119 90.5889 56.0035 90.8355 56.419 91.3303C56.9415 91.9529 57.3682 92.5755 57.6652 93.3769C58.0489 93.219 58.4865 93.0702 58.8399 92.7682C59.2961 92.3783 59.5864 91.7258 60.0089 91.2975C60.5698 90.7291 61.8492 91.4153 62.1325 91.9575C63.0961 93.8016 63.4903 97.2002 63.2855 99.2212C63.0324 101.72 62.0025 104.081 59.8016 105.256C58.305 106.054 56.2964 106.129 54.5774 105.804C54.466 106.17 54.355 106.537 54.2436 106.904C53.9094 108.002 52.6046 108.9 51.4649 108.954C50.3705 109.005 49.7773 108.44 49.0596 107.749C48.6831 107.386 48.3063 107.024 47.9297 106.661C47.9078 106.908 47.8755 107.145 47.8348 107.375C48.1312 107.96 48.2736 108.474 48.5273 109.078C48.8065 109.742 48.9424 110.179 48.9616 110.89C48.9784 111.521 48.9953 112.153 49.0122 112.784C49.2938 113.284 49.3185 113.406 49.2775 113.979C49.1907 115.185 48.5261 115.3 47.4185 115.293C47.0495 115.291 45.6566 115.3 45.3016 115.274C44.5958 115.223 44.1305 115.169 43.8873 114.878L43.8875 114.878ZM47.6221 108.295C47.3993 109.091 47.0998 109.842 46.8264 110.703C46.5677 111.518 45.2407 113.884 44.4597 114.458C44.6117 114.571 44.8908 114.616 45.3878 114.658C45.7395 114.689 47.126 114.695 47.4741 114.701C48.2405 114.715 48.5314 114.657 48.6089 113.784C48.6467 113.357 48.6133 113.277 48.3996 112.903C48.3807 112.235 48.3618 111.567 48.343 110.899C48.3251 110.265 48.2036 109.901 47.9546 109.31C47.8055 108.957 47.7247 108.628 47.6221 108.295V108.295ZM24.2771 97.3638C24.4492 97.3443 24.5556 97.4345 24.6887 97.5675C24.664 97.2498 24.6053 97.0142 24.3823 96.8843C24.3666 96.936 24.3519 96.9876 24.338 97.0401C24.311 97.1423 24.2917 97.251 24.2771 97.3638ZM25.3582 99.6596C25.2343 99.98 25.1194 100.31 25.0112 100.652C24.9933 100.708 24.9761 100.765 24.9594 100.821C24.3049 101.099 23.4444 101.275 23.115 100.587C22.955 100.254 22.8648 99.9261 22.7481 99.5041C21.6703 98.3876 23.2814 96.9136 24.1589 96.3848C24.0319 96.6578 23.9418 96.8645 23.8802 97.0772C23.6134 97.9994 24.001 98.8223 23.1641 99.4908C23.5574 100.284 23.5393 100.601 24.4543 100.234C24.8073 100.093 25.0984 99.8942 25.3582 99.6596V99.6596ZM25.106 107.173C25.6021 108.889 26.4468 110.575 27.3834 111.992C27.3833 112 27.3832 112.008 27.3832 112.017C27.3245 112.26 27.2566 112.498 27.1143 112.688C26.4449 113.584 24.742 112.269 24.2492 111.766C23.7104 111.216 23.3497 110.564 23.2639 109.953C23.2015 109.508 23.262 109.497 23.573 109.182C23.9921 108.757 24.4116 108.333 24.8305 107.909C24.9222 107.663 25.0143 107.418 25.106 107.173V107.173ZM56.8061 93.4031C56.9016 93.4975 56.9786 93.61 57.0318 93.7343C57.0607 93.7078 57.0917 93.6826 57.124 93.6588C57.0848 93.5704 57.0449 93.4832 57.0041 93.3974C56.9362 93.3989 56.8703 93.4008 56.8061 93.4031ZM48.6062 96.489C48.5189 96.3059 48.4771 96.1128 48.4756 95.922C48.1543 96.1787 47.805 96.422 47.4425 96.5626C47.943 96.1156 48.6228 95.0616 49.1154 94.7289C49.6744 94.3511 50.433 94.4247 51.0848 94.1232C50.8623 94.3253 50.5771 94.4883 50.2868 94.6433C50.6066 94.7604 50.883 94.9973 51.0407 95.3279C51.1072 95.4673 51.147 95.6129 51.163 95.7586C51.6009 95.6147 52.0309 95.5467 52.3941 95.5519C51.0949 95.9166 49.7131 96.7695 48.7603 97.899C48.8673 97.6044 49.0169 97.3386 49.1971 97.1012C48.9474 96.9707 48.7365 96.762 48.6062 96.489H48.6062ZM42.5816 91.7892C41.8642 92.0691 41.2099 92.2792 40.5105 92.4549C39.8724 93.2936 39.4837 93.728 39.3368 94.8522C39.1641 93.7463 39.1281 93.541 39.6203 92.7156C39.4777 92.7881 39.345 92.8878 39.155 93.0503C38.4674 93.6382 37.5711 95.9487 37.2127 96.7748C37.4402 95.7805 38.1517 93.2953 38.8846 92.571C39.3665 92.0945 39.4758 92.1054 40.1554 92.0412C40.9648 91.9644 41.7726 91.8807 42.5816 91.7893V91.7892ZM57.5554 94.2C58.1374 94.2551 58.4701 94.3449 58.9912 94.0872C59.9626 93.6065 60.6772 92.8218 61.1407 91.8833C60.8572 93.003 60.2867 93.9544 59.1032 94.3765C58.522 94.5836 58.1473 94.3697 57.5554 94.2V94.2ZM46.3864 94.3094C46.6057 93.3384 46.995 92.4028 48.503 91.679C46.5042 92.1795 46.1295 93.019 46.3864 94.3094V94.3094ZM20.4689 99.5386C20.6403 97.5968 21.018 96.7585 22.3977 95.2972C20.6671 96.5166 20.2353 97.0707 20.4689 99.5386" fill="black"/>
<path fill-rule="evenodd" clip-rule="evenodd" d="M48.8633 96.8032C48.7297 96.5239 48.8492 96.1873 49.1292 96.054C49.4093 95.9206 49.7466 96.0398 49.8802 96.3193C49.8928 96.3458 49.9029 96.373 49.9111 96.4003C49.6437 96.5987 49.3985 96.8326 49.193 97.1035C49.0544 97.0479 48.9319 96.9467 48.8633 96.8032Z" fill="white"/>
<path fill-rule="evenodd" clip-rule="evenodd" d="M55.1226 94.3819C55.1449 94.1505 55.3423 93.9798 55.5737 94.0022C55.805 94.0246 55.9758 94.2314 55.9536 94.4629C55.9488 94.5121 55.9355 94.5583 55.9155 94.6009C55.7037 94.6369 55.4919 94.6991 55.2737 94.7793C55.1824 94.6859 55.1097 94.5154 55.1226 94.3819Z" fill="white"/>
</g>
</g>
<defs>
<clipPath id="clip0_5527_792">
<rect width="216" height="206.929" fill="white"/>
</clipPath>
<clipPath id="clip1_5527_792">
<rect width="176" height="49" fill="white" transform="translate(20 79)"/>
</clipPath>
</defs>
</svg>
