<svg width="231" height="127" viewBox="0 0 231 127" fill="none" xmlns="http://www.w3.org/2000/svg">
<g clip-path="url(#clip0_120_2439)">
<path d="M23.8203 63.4559C23.8203 58.6434 23.8203 53.8309 23.8203 49.0183C23.8203 48.6521 24.0061 48.4684 24.3776 48.4675C26.6147 48.4675 28.8518 48.4675 31.0897 48.4675C31.4636 48.4675 31.651 48.6504 31.652 49.0162C31.652 52.4074 31.652 55.7987 31.652 59.1906C31.652 59.7199 31.6534 59.7214 32.1942 59.7214C36.7884 59.7214 41.3826 59.7214 45.9767 59.7214C46.3348 59.7214 46.5144 59.5435 46.5153 59.1878C46.5153 55.808 46.5153 52.429 46.5153 49.0492C46.5153 48.6619 46.7035 48.468 47.0798 48.4675C49.3414 48.4668 51.6022 48.4653 53.8637 48.4653C54.3377 48.4653 54.347 48.4747 54.347 48.9458C54.347 58.6427 54.347 68.3388 54.347 78.0357C54.347 78.5032 54.3363 78.5126 53.8601 78.5126C51.5749 78.5126 49.2897 78.5126 47.0044 78.5111C46.5333 78.5111 46.5189 78.4982 46.5189 78.0314C46.5168 74.5087 46.5168 70.986 46.5153 67.4634C46.5153 67.0837 46.3236 66.8936 45.9401 66.8931C41.3581 66.8931 36.7755 66.8931 32.1935 66.8931C31.6534 66.8931 31.652 66.8946 31.652 67.426C31.652 70.9365 31.652 74.4477 31.652 77.9581C31.652 78.3258 31.466 78.5099 31.094 78.5104C28.8684 78.5104 26.6435 78.5104 24.4178 78.5104C24.0195 78.5104 23.8203 78.3045 23.8203 77.8928C23.8203 73.081 23.8203 68.2684 23.8203 63.4559Z" fill="#A8A8A8"/>
<path d="M180.326 63.4682C180.326 58.6557 180.326 53.8432 180.326 49.0306C180.326 48.6562 180.509 48.4692 180.873 48.4697C188.662 48.474 196.451 48.4769 204.24 48.4841C204.694 48.4841 205.148 48.5214 205.602 48.5308C205.818 48.5351 205.897 48.6399 205.897 48.8432C205.895 50.6228 205.895 52.4018 205.898 54.1814C205.898 54.4105 205.797 54.5089 205.573 54.5003C205.454 54.4953 205.334 54.5003 205.214 54.5003C199.758 54.5003 194.303 54.5003 188.847 54.5003C188.484 54.5003 188.302 54.688 188.302 55.0633C188.302 56.5916 188.302 58.1206 188.302 59.6489C188.302 60.0348 188.491 60.228 188.869 60.2285C193.416 60.2285 197.962 60.2285 202.508 60.2285C202.904 60.2285 203.102 60.4246 203.102 60.8167C203.102 62.4649 203.102 64.1124 203.102 65.7606C203.102 66.1322 202.919 66.3184 202.551 66.3194C197.993 66.3194 193.434 66.3194 188.875 66.3194C188.493 66.3194 188.302 66.5102 188.302 66.8918C188.302 68.3964 188.301 69.901 188.302 71.4055C188.302 71.8968 188.305 71.8996 188.806 71.8996C194.406 71.8996 200.005 71.8996 205.604 71.8996C205.989 71.8996 206.182 72.089 206.183 72.4677C206.183 74.307 206.183 76.1455 206.183 77.9848C206.183 78.5119 206.18 78.5148 205.673 78.5148C197.394 78.5148 189.114 78.5148 180.835 78.5148C180.346 78.5148 180.335 78.504 180.335 78.0121C180.334 73.1636 180.335 68.3152 180.335 63.4668H180.328L180.326 63.4682Z" fill="#A8A8A8"/>
<path d="M126.135 63.5013C126.135 58.7124 126.135 53.9236 126.135 49.1355C126.135 48.7314 126.339 48.5291 126.749 48.5286C132.156 48.5128 137.563 48.4935 142.97 48.4812C145.686 48.4748 148.402 48.4798 151.118 48.4812C151.614 48.4812 151.625 48.4927 151.625 48.9768C151.626 50.6487 151.626 52.3206 151.625 53.9926C151.625 54.5003 151.623 54.5018 151.098 54.5025C145.594 54.5025 140.09 54.5025 134.587 54.5025C134.217 54.5025 134.032 54.6854 134.032 55.0512C134.032 56.6039 134.031 58.1559 134.032 59.7086C134.032 60.2285 134.033 60.23 134.547 60.23C139.189 60.23 143.831 60.23 148.473 60.23C148.898 60.23 149.11 60.4358 149.11 60.8476C149.11 62.4958 149.11 64.1433 149.11 65.7916C149.11 66.1435 148.928 66.3199 148.565 66.3209C143.911 66.3209 139.257 66.3209 134.603 66.3209C134.223 66.3209 134.032 66.5112 134.032 66.8918C134.032 68.3964 134.032 69.901 134.032 71.4056C134.032 71.8982 134.034 71.9004 134.534 71.9004C140.133 71.9004 145.732 71.9004 151.332 71.9004C151.718 71.9004 151.911 72.089 151.911 72.4663C151.911 74.3171 151.912 76.1685 151.911 78.0193C151.911 78.5019 151.904 78.5098 151.44 78.5098C143.161 78.5098 134.881 78.5098 126.602 78.5098C126.148 78.5098 126.135 78.4962 126.135 78.0107C126.135 73.1745 126.135 68.3375 126.135 63.5013Z" fill="#A8A8A8"/>
<path d="M92.1006 78.5248C90.856 78.5248 89.6121 78.5155 88.3675 78.5313C88.0565 78.5349 87.8705 78.448 87.7111 78.1657C86.6432 76.2719 85.5515 74.3924 84.4807 72.5C84.3321 72.2371 84.1597 72.1409 83.8574 72.1416C78.6291 72.1502 73.4007 72.1502 68.1724 72.1416C67.8579 72.1416 67.6683 72.2371 67.5131 72.5136C66.461 74.3888 65.3902 76.2532 64.3403 78.1298C64.1815 78.4142 64.0049 78.5349 63.668 78.5334C61.2751 78.5191 58.8821 78.5262 56.4892 78.5255C56.0554 78.5255 56.0396 78.4982 56.2536 78.1133C59.1974 72.821 62.1434 67.5302 65.0864 62.2379C67.5591 57.7909 70.0325 53.344 72.4951 48.892C72.6596 48.5953 72.8406 48.4632 73.1918 48.4654C75.1775 48.4812 77.164 48.479 79.1497 48.4668C79.4772 48.4646 79.6632 48.5673 79.8263 48.8611C83.0825 54.7178 86.3494 60.5681 89.615 66.4192C91.7745 70.2887 93.9362 74.1576 96.0965 78.0264C96.1259 78.0788 96.1518 78.1327 96.1841 78.183C96.35 78.4408 96.2775 78.5327 95.9751 78.5306C94.6831 78.5219 93.3911 78.527 92.0984 78.527L92.1006 78.5248ZM75.9424 56.0774C75.8835 56.1312 75.8605 56.1434 75.8497 56.1628C74.0974 59.3666 72.3479 62.5719 70.592 65.7742C70.444 66.0443 70.5324 66.0881 70.7966 66.0881C74.18 66.083 77.5626 66.0852 80.9459 66.0838C81.3294 66.0838 81.3351 66.068 81.1577 65.7383C79.8772 63.3647 78.5982 60.9897 77.3177 58.6161C76.8652 57.7773 76.4099 56.9406 75.9416 56.0766L75.9424 56.0774Z" fill="#EEEEEE"/>
<path d="M98.0394 63.4889C98.0394 58.6649 98.0394 53.8416 98.0394 49.0176C98.0394 48.484 98.0408 48.4825 98.5802 48.4818C102.767 48.4818 106.954 48.438 111.14 48.4933C115.386 48.5493 119.632 48.5005 123.878 48.5299C124.419 48.5335 124.42 48.5321 124.42 49.0628C124.421 50.6866 124.42 52.3104 124.42 53.9342C124.42 54.493 124.419 54.4944 123.868 54.4944C118.173 54.4944 112.48 54.4944 106.785 54.4944C106.678 54.4944 106.569 54.5045 106.463 54.493C106.138 54.4571 106.024 54.5885 106.028 54.9203C106.043 56.2934 106.034 57.6666 106.034 59.0398C106.034 59.3141 106.039 59.5892 106.034 59.8635C106.031 60.0574 106.116 60.1515 106.313 60.1458C106.433 60.1422 106.553 60.1465 106.673 60.1465C111.446 60.1465 116.219 60.1465 120.992 60.1465C121.351 60.1465 121.53 60.3246 121.531 60.6808C121.531 62.3642 121.531 64.0476 121.529 65.7311C121.529 66.1222 121.326 66.3181 120.921 66.3185C116.148 66.3185 111.375 66.3185 106.602 66.3185C106.223 66.3185 106.034 66.5091 106.034 66.8902C106.034 70.5917 106.034 74.2932 106.034 77.994C106.034 78.5118 106.032 78.514 105.518 78.514C103.185 78.514 100.852 78.5147 98.5198 78.514C98.0502 78.514 98.0394 78.5032 98.0394 78.0292C98.0387 73.1815 98.0394 68.3337 98.0394 63.4867V63.4889Z" fill="#A8A8A8"/>
<path d="M153.898 65.3099C153.898 61.2026 153.902 57.0961 153.896 52.9888C153.894 51.6659 153.864 50.343 153.852 49.0194C153.848 48.5454 153.868 48.5296 154.328 48.5289C155.201 48.5267 156.075 48.5325 156.947 48.5253C158.561 48.5131 160.176 48.4915 161.789 48.4786C162.329 48.4743 162.331 48.4793 162.331 49.0122C162.331 56.4145 162.331 63.8168 162.33 71.2184C162.33 71.6153 162.526 71.814 162.917 71.8145C167.964 71.8152 173.012 71.8159 178.06 71.8166C178.626 71.8166 178.623 71.8173 178.628 72.394C178.644 74.2678 178.664 76.1415 178.679 78.0152C178.682 78.5029 178.671 78.5101 178.172 78.5101C170.254 78.5101 162.336 78.5093 154.417 78.5079C153.904 78.5079 153.903 78.5057 153.902 77.9887C153.902 73.7622 153.902 69.5357 153.902 65.3092H153.898V65.3099Z" fill="#A8A8A8"/>
<path d="M63.424 48.4756C64.4876 48.4756 65.5512 48.485 66.6141 48.4706C66.9444 48.4663 67.0802 48.5568 67.0766 48.9137C67.0601 50.3924 67.0615 51.8719 67.0759 53.3506C67.0787 53.676 66.9753 53.7902 66.6464 53.7887C64.4718 53.7787 62.2971 53.7794 60.1218 53.7887C59.8036 53.7902 59.7103 53.6673 59.7124 53.3643C59.7225 51.8855 59.7254 50.4061 59.711 48.9274C59.7081 48.5884 59.8151 48.4648 60.1613 48.4699C61.2486 48.4864 62.3359 48.4756 63.4232 48.4756H63.424Z" fill="#EEEEEE"/>
<path d="M88.6468 53.7828C87.5703 53.7828 86.4937 53.7727 85.4172 53.7885C85.0732 53.7935 84.9633 53.6758 84.9669 53.3332C84.982 51.8652 84.9812 50.3965 84.9669 48.9279C84.964 48.5953 85.0538 48.4632 85.4086 48.4654C87.5616 48.4804 89.7147 48.4826 91.8671 48.4733C92.2204 48.4718 92.3461 48.5752 92.3411 48.9429C92.3224 50.3994 92.3231 51.8559 92.3411 53.3124C92.3454 53.6693 92.2413 53.7964 91.875 53.7899C90.7992 53.7706 89.7219 53.7835 88.6454 53.7835L88.6468 53.7828Z" fill="#EEEEEE"/>
</g>
<defs>
<clipPath id="clip0_120_2439">
<rect width="231" height="127" fill="white"/>
</clipPath>
</defs>
</svg>
