<?xml version="1.0" encoding="utf-8"?>
<!-- Generator: Adobe Illustrator 27.4.0, SVG Export Plug-In . SVG Version: 6.00 Build 0)  -->
<svg version="1.1" id="Layer_1" xmlns="http://www.w3.org/2000/svg" xmlns:xlink="http://www.w3.org/1999/xlink" x="0px" y="0px"
	 viewBox="0 0 41 32" style="enable-background:new 0 0 41 32;" xml:space="preserve">
<style type="text/css">
	.st0{clip-path:url(#SVGID_00000132807035714018980750000013620399213945445774_);}
	.st1{fill:#FFFFFF;}
</style>
<g>
	<defs>
		<rect id="SVGID_1_" y="0.2" width="41" height="31"/>
	</defs>
	<clipPath id="SVGID_00000034773192496928693480000001167653719946535043_">
		<use xlink:href="#SVGID_1_"  style="overflow:visible;"/>
	</clipPath>
	<g style="clip-path:url(#SVGID_00000034773192496928693480000001167653719946535043_);">
		<path class="st1" d="M0,16.6c0.2-0.3,0.5-0.4,0.8-0.4c1.3,0,2.6,0,3.9,0c-0.3-0.8-0.6-1.6-0.9-2.4c-1.4-4.4,0-8.8,3.9-11.3
			c1.8-1.2,3.9-1.6,6-1.3c2.3,0.3,4.4,1.3,6.4,2.5c0.3,0.2,0.6,0.2,0.9,0c1.8-1.1,3.6-2,5.7-2.4c5.4-1.1,9.8,2.4,10.9,6.9
			c0.5,2.2,0.2,4.2-0.5,6.3c-0.1,0.3-0.2,0.6-0.4,0.9c0.7,0,1.3,0,1.9,0c0.5,0,1,0,1.4,0c0.5,0,0.8,0.2,0.8,0.6
			c0,0.4-0.3,0.6-0.8,0.6c-1.2,0-2.4,0-3.6,0c-0.1,0-0.4,0.1-0.4,0.2c-1.6,2.7-3.7,5-6,7.1c-2.5,2.3-5.2,4.4-8.1,6.3
			c-0.2,0.2-0.5,0.3-0.7,0.5c-0.4,0.3-0.8,0.2-1.2,0c-1.7-0.9-3.2-2-4.7-3.2c-2.6-2.1-5.2-4.3-7.3-6.8c-0.8-1-1.6-2.1-2.4-3.1
			c-0.1-0.1-0.3-0.2-0.4-0.2c-1.4,0-2.9,0-4.3,0c-0.4,0-0.7-0.1-1-0.4L0,16.6L0,16.6z M20.6,20.2c0.1-0.2,0.1-0.3,0.1-0.4
			c1.1-3.9,2.3-7.9,3.4-11.8c0.1-0.4,0.3-0.7,0.7-0.7c0.4,0,0.6,0.3,0.7,0.7c0.6,2.1,1.3,4.1,1.9,6.2c0.1,0.2,0.1,0.3,0.2,0.5
			c0.1,0,0.1,0,0.1,0c0.4-0.6,0.8-1.1,1.1-1.6c0.4-0.6,0.9-0.6,1.3,0c0.5,0.8,0.9,1.5,1.4,2.3c0.1,0.1,0.2,0.2,0.4,0.2
			c1.1,0,2.2,0,3.4,0c0.1,0,0.3-0.1,0.3-0.2c0.9-2,1.5-4.1,1-6.3c-0.7-4-4.5-7.3-9.3-6.4C25,3,23.1,4,21.2,5.3
			c-0.5,0.3-0.6,0.3-1.1,0c-1-0.6-2-1.2-3.1-1.7c-1.7-0.8-3.6-1.3-5.5-1C7.9,3,5,6.2,4.7,9.8C4.6,12,5.1,14,6.1,15.9
			c0.1,0.2,0.2,0.3,0.5,0.3c1.6,0,3.1-0.1,4.7,0c0.9,0.1,1.3-0.2,1.7-1c0.8-1.7,1.6-3.3,2.4-4.9c0.2-0.3,0.4-0.6,0.7-0.4
			c0.2,0.1,0.4,0.3,0.5,0.5c0.8,1.9,1.5,3.9,2.3,5.9C19.5,17.5,20,18.8,20.6,20.2L20.6,20.2z M16,12c-0.1,0.2-0.2,0.3-0.2,0.4
			c-0.7,1.5-1.5,2.9-2.2,4.4c-0.2,0.5-0.5,0.7-1.1,0.7c-1.6,0-3.2,0-4.9,0c-0.1,0-0.3,0-0.5,0c0.1,0.2,0.1,0.3,0.2,0.3
			c0.7,0.9,1.4,1.8,2.1,2.6c3.2,3.6,7,6.5,11,9.1c0.2,0.1,0.3,0.1,0.5,0c0.8-0.5,1.6-1,2.3-1.6c3.6-2.6,7-5.4,9.8-8.8
			c0.6-0.7,1.1-1.5,1.7-2.4c-0.3,0-0.4,0-0.5,0c-0.9,0-1.9,0-2.8,0c-0.4,0-0.7-0.1-0.9-0.5c-0.4-0.7-0.8-1.3-1.2-2
			c-0.5,0.7-0.9,1.4-1.4,2c-0.2,0.3-0.4,0.5-0.8,0.4c-0.4-0.1-0.5-0.3-0.6-0.6c-0.3-0.9-0.5-1.8-0.8-2.7c-0.3-1-0.6-2.1-1-3.2
			c-0.1,0.2-0.1,0.3-0.1,0.4c-0.8,2.6-1.5,5.1-2.2,7.7c-0.4,1.3-0.8,2.7-1.2,4c-0.1,0.5-0.6,0.7-0.9,0.5c-0.2-0.1-0.3-0.3-0.4-0.6
			c-0.9-2.3-1.8-4.5-2.7-6.8C16.8,14.3,16.4,13.2,16,12L16,12z"/>
	</g>
</g>
</svg>
