<svg width="100" height="100" viewBox="0 0 100 100" fill="none" xmlns="http://www.w3.org/2000/svg">
<path d="M0 87.578V62.2442C0.0937903 61.9107 0.198002 61.5877 0.281371 61.2542C1.63612 56.054 4.82499 52.5004 9.84798 50.6038C12.1615 49.7284 14.4854 48.9051 16.8093 48.0506C17.3304 47.8526 18.0703 47.8109 18.0286 47.0189C17.9765 46.081 18.4142 45.0597 17.3825 44.2781C14.7772 42.3294 13.0056 39.7554 12.0781 36.629C11.9009 36.035 11.5779 35.7328 10.9839 35.5556C8.31607 34.7741 6.61742 32.7419 6.53405 30.2721C6.44026 27.448 7.84712 25.3012 10.5358 24.3425C11.2548 24.082 11.4945 23.7068 11.4737 22.9878C11.4424 21.2057 11.4528 19.4133 11.4737 17.6313C11.4945 12.8063 15.0481 9.23185 19.8627 9.22143C26.2092 9.21101 32.5661 9.22143 38.9125 9.22143C40.7988 9.22143 41.2886 9.72164 41.2886 11.5974C41.2886 18.392 41.3094 25.1866 41.2886 31.9812C41.2677 38.5465 38.2247 43.2048 32.3368 46.0393C31.9095 46.2477 31.4406 46.3728 31.4093 47.0085C31.3885 47.6859 31.8678 47.863 32.3368 48.0819C35.1297 49.322 37.9017 50.6038 40.705 51.8022C44.269 53.3133 46.6242 55.8873 47.8851 59.5451C49.1878 63.3071 50.6155 67.0275 51.939 70.7687C52.2099 71.5294 52.5746 71.8837 53.4188 71.8525C54.8569 71.7899 56.3054 71.8004 57.7435 71.8525C58.5668 71.8733 58.9628 71.6336 59.1087 70.7374C59.9528 65.4539 60.8803 60.1912 61.7348 54.9077C62.3705 50.9998 64.9029 48.7697 68.8525 48.7697C77.3978 48.7697 85.9431 48.7697 94.4885 48.7697C98.3755 48.7697 100.533 51.3958 99.8866 55.2516C98.6465 62.5881 97.4481 69.9246 96.1975 77.261C96.0516 78.1364 96.2184 78.4386 97.125 78.4491C98.2713 78.4491 98.9174 79.0535 98.9279 80.1269C98.9696 82.357 98.9696 84.5871 98.9279 86.8172C98.907 87.7968 98.2713 88.3908 97.2918 88.4533C96.5727 88.495 95.8432 88.5054 95.1346 88.4533C94.2696 88.4012 93.9987 88.766 94.0091 89.5997C94.0404 92.2779 93.9987 94.9561 94.0404 97.6344C94.0508 98.5619 93.8528 99.3226 93.1233 99.9166H5.76289C5.03341 99.333 4.83541 98.5618 4.84583 97.6448C4.88751 94.9457 4.84583 92.2466 4.86667 89.5476C4.86667 88.766 4.61656 88.3908 3.80372 88.4533C3.29308 88.4846 2.77202 88.4221 2.27181 88.4638C1.35475 88.5367 0.594005 88.2762 0 87.5571L0 87.578ZM36.0571 70.7478C36.0571 69.9246 36.0467 69.1013 36.0571 68.278C36.0884 66.7044 35.9321 65.1204 36.1509 63.5468C36.3281 62.2859 37.464 61.6398 38.5686 62.0983C39.1939 62.3588 39.4857 62.8903 39.7254 63.4739C40.7154 65.9645 41.7262 68.4448 42.6954 70.9354C42.9351 71.5607 43.2686 71.8837 43.9772 71.8525C45.1756 71.8108 46.3845 71.8212 47.5829 71.8525C48.302 71.8733 48.5104 71.6336 48.2499 70.9354C46.8743 67.2046 45.5404 63.453 44.1335 59.7327C43.4457 57.8986 42.1952 56.4709 40.4132 55.6372C37.5265 54.272 34.5982 53.0111 31.6907 51.698C31.2009 51.4791 30.8674 51.5313 30.5965 52.0419C28.1371 56.7106 21.2695 56.7627 18.7893 51.9273C18.5392 51.4375 18.2474 51.2916 17.7264 51.4896C15.194 52.4379 12.5783 53.2299 10.1189 54.345C6.30479 56.0644 4.06424 59.1178 3.55361 63.2967C3.13676 66.7149 3.34519 70.1538 3.41813 73.5824C3.48066 76.4274 5.45026 78.324 8.29523 78.4178C11.2444 78.5116 14.1936 78.4386 17.1532 78.4491C17.8306 78.4491 18.0598 78.126 18.0494 77.4903C18.0286 76.5941 17.9973 75.6979 18.0494 74.8121C18.1119 73.8846 17.6951 73.6241 16.8301 73.6449C14.673 73.6866 12.5054 73.6658 10.3482 73.6553C8.72249 73.6553 8.17017 73.103 8.15975 71.5086C8.14933 69.1013 8.12849 66.7044 8.15975 64.2971C8.19102 61.671 7.6908 62.0045 10.6191 61.9524C11.4007 61.942 11.6196 62.265 11.6091 62.9945C11.5779 65.0162 11.63 67.0483 11.5883 69.07C11.5675 69.9246 11.8801 70.2268 12.7346 70.2059C14.9335 70.1643 17.1324 70.2059 19.3208 70.1851C21.8531 70.1642 21.9573 70.6019 21.5718 67.7153C21.2174 65.0266 20.9882 65.5581 23.656 65.0996C24.4793 64.9641 24.8753 65.2351 24.9482 66.0792C25.0628 67.3401 25.2608 68.6011 25.3859 69.862C25.4693 70.7583 25.7715 71.4356 26.5531 72.0088C28.3663 73.3635 29.398 75.2393 29.6794 77.4903C29.7628 78.1885 30.0337 78.4491 30.7215 78.4282C32.0971 78.3969 33.4727 78.3865 34.8379 78.4282C35.7445 78.4595 36.0571 78.0843 36.0467 77.2194C36.0155 75.0622 36.0467 72.8946 36.0467 70.7374L36.0571 70.7478ZM49.3545 96.561C62.5268 96.561 75.6992 96.561 88.8819 96.561C89.9935 96.561 90.5493 95.9878 90.5493 94.8415C90.5493 93.2262 90.5493 91.6214 90.5493 90.0061C90.5493 88.9918 90.0317 88.4846 88.9965 88.4846C69.3735 88.4846 49.7505 88.4846 30.1171 88.4846C23.3538 88.4846 16.6009 88.4846 9.83755 88.4846C8.83018 88.4846 8.32302 89.0057 8.31607 90.0478C8.31607 91.7256 8.31607 93.4138 8.31607 95.0916C8.31607 96.0712 8.81628 96.561 9.81671 96.561C22.989 96.561 36.1614 96.561 49.3441 96.561H49.3545ZM79.8155 78.4386C83.2857 78.4386 86.7456 78.4386 90.2158 78.4386C92.0603 78.4386 92.4876 78.0739 92.8002 76.2502C93.9987 69.0492 95.1867 61.8482 96.3851 54.6472C96.6561 53.0006 96.0516 52.2503 94.3738 52.2503C87.4021 52.2399 80.4408 52.2503 73.469 52.2295C72.6458 52.2295 72.3019 52.5421 72.1768 53.3237C70.8637 61.3063 69.5507 69.2889 68.1959 77.261C68.0292 78.2406 68.321 78.4595 69.2172 78.4595C72.75 78.4282 76.2827 78.4491 79.8259 78.4491L79.8155 78.4386ZM37.8183 27.7398C37.8183 25.8744 37.8183 24.3321 37.8183 22.7898C37.8183 21.3725 37.7975 21.3621 36.3489 21.6434C34.2022 22.0707 32.0346 22.425 29.8461 22.5709C26.8657 22.7585 23.979 22.3833 21.1758 21.3099C20.092 20.8931 19.8835 21.1119 19.8627 22.227C19.7897 25.0824 18.4871 26.7706 15.7255 27.4584C15.069 27.6252 14.9127 27.9378 14.9127 28.5318C14.9335 29.7302 14.9127 30.9287 14.9127 32.1375C15.0377 40.0159 21.676 44.5282 27.9391 43.6946C32.712 43.0589 37.1201 38.7862 37.6412 34.0029C37.8808 31.8145 37.7558 29.6156 37.8183 27.7502V27.7398ZM49.3128 85.0352C64.1004 85.0352 78.888 85.0352 93.6756 85.0352C94.0195 85.0352 94.3634 85.0352 94.7073 85.0352C94.9991 85.0352 95.3222 84.9831 95.3847 84.6809C95.5618 83.8785 95.6556 83.0135 95.3534 82.2528C95.1033 81.6275 94.3738 81.9089 93.8632 81.9089C64.2567 81.8984 34.6399 81.9089 5.03341 81.9089C4.72078 81.9089 4.41856 81.9089 4.10593 81.9089C3.85582 81.9089 3.57445 81.961 3.5015 82.2111C3.27224 83.0135 3.24097 83.868 3.48066 84.6392C3.68908 85.3062 4.43941 85.0248 4.95004 85.0248C19.7376 85.0352 34.5252 85.0248 49.3128 85.0248V85.0352ZM14.9127 20.3199C14.9127 21.1119 14.8814 21.904 14.9231 22.6855C14.9439 23.0815 14.6313 23.7381 15.2253 23.8319C15.8506 23.9361 16.1319 23.3212 16.2882 22.7793C16.3716 22.4875 16.382 22.1749 16.3925 21.8623C16.4029 21.039 16.3925 20.2157 16.4029 19.3925C16.4341 18.1107 17.0177 17.5479 18.3099 17.475C20.1962 17.3708 21.9886 17.7251 23.7498 18.3816C25.1775 18.9131 26.6573 19.1736 28.1788 19.1111C31.1279 18.986 34.0459 18.5692 36.9325 17.9439C37.5474 17.8084 37.8392 17.5688 37.8287 16.9331C37.8079 15.8389 37.8079 14.7342 37.8287 13.64C37.8496 12.9209 37.5057 12.6812 36.8283 12.6917C31.2009 12.7021 25.5839 12.6604 19.9565 12.7229C16.9865 12.7542 15.0481 14.7863 14.9335 17.7563C14.9022 18.6109 14.9335 19.4758 14.9335 20.3304L14.9127 20.3199ZM63.0896 78.4386C63.7148 78.4907 64.4131 78.5116 64.5902 77.4382C65.9137 69.3306 67.2685 61.2229 68.6336 53.1257C68.7691 52.3128 68.446 52.2295 67.7895 52.3858C66.143 52.7714 65.476 53.9385 65.2259 55.4809C64.0379 62.6402 62.8395 69.7995 61.6619 76.9588C61.4222 78.4386 61.443 78.4386 63.1 78.4386H63.0896ZM51.4387 75.3019C49.4796 75.3019 47.5308 75.3227 45.5716 75.3019C44.8005 75.2915 44.5504 75.6249 44.5712 76.3544C44.6025 77.7508 45.2277 78.4282 46.6763 78.4386C49.7297 78.4595 52.7831 78.4386 55.8365 78.4386C57.879 78.4386 57.8582 78.4386 58.1812 76.4169C58.3167 75.5937 58.0353 75.2915 57.2016 75.3019C55.2841 75.3331 53.3562 75.3019 51.4387 75.3019ZM27.9391 48.4049C28.0954 47.5608 27.6681 47.2169 26.7302 47.2794C25.6047 47.3628 24.4688 47.2482 23.3642 47.0085C22.072 46.7306 21.4571 47.2725 21.5197 48.6342C21.6134 50.5933 23.0411 52.094 24.7815 52.0523C26.5531 52.0002 27.8974 50.4996 27.9495 48.4049H27.9391ZM23.9165 78.4386C24.3646 78.4386 24.8023 78.4074 25.2504 78.4386C26.0737 78.5116 26.2821 78.1468 26.0945 77.4069C25.6985 75.8438 24.771 74.7287 23.2912 74.093C21.7906 73.4365 21.4988 73.6345 21.4988 75.2185C21.4988 75.4895 21.4988 75.7604 21.4988 76.0418C21.5197 78.7513 21.1966 78.4178 23.9061 78.4386H23.9165ZM39.6316 73.301C39.6316 74.7391 39.6316 76.1668 39.6316 77.6049C39.6316 78.2198 39.9338 78.4386 40.5278 78.4491C41.2156 78.4595 41.1531 78.0739 41.1635 77.5737C41.1843 75.9584 40.2777 74.6766 39.642 73.301H39.6316ZM11.4528 29.9387C11.4528 29.4905 11.4528 29.0424 11.4528 28.6047C11.4528 28.3755 11.5466 28.0733 11.234 27.9899C10.9735 27.9274 10.8067 28.1671 10.64 28.3442C9.9105 29.105 9.83756 30.418 10.4837 31.283C10.6817 31.5435 10.8901 31.9499 11.2757 31.8145C11.6196 31.6894 11.432 31.2621 11.4528 30.9703C11.4841 30.6264 11.4528 30.2826 11.4528 29.9387Z" fill="white"/>
<path d="M74.2184 1C80.669 1 87.1197 1 93.5704 1C96.9052 1 98.9269 3.04254 98.9373 6.39815C98.9373 14.9435 98.9373 23.4888 98.9373 32.0342C98.9373 35.3689 96.8948 37.401 93.5391 37.401C88.2869 37.401 83.0346 37.4115 77.7928 37.3906C77.0321 37.3906 76.511 37.6199 76.0629 38.2452C74.9687 39.7771 73.8119 41.2777 72.676 42.7783C71.4151 44.4353 70.3 44.4457 69.0599 42.82C67.8927 41.2881 66.7256 39.7666 65.6105 38.2035C65.1832 37.6095 64.6934 37.3906 63.964 37.3906C60.8376 37.4219 57.7217 37.4115 54.5953 37.3906C51.4482 37.3802 49.3639 35.3064 49.3535 32.18C49.3535 23.5305 49.3535 14.881 49.3535 6.24183C49.3535 3.05296 51.4377 1 54.6579 1C61.1815 1 67.6947 1 74.2184 1ZM74.1767 4.45982C67.8927 4.45982 61.6192 4.45982 55.3352 4.45982C53.3344 4.45982 52.8029 4.97045 52.8029 6.92963C52.8029 15.1311 52.8029 23.3325 52.8029 31.5339C52.8029 33.3889 53.3552 33.9516 55.1789 33.9516C58.472 33.9516 61.7651 33.9933 65.0582 33.9308C66.2774 33.91 67.1528 34.2643 67.8406 35.296C68.5388 36.3485 69.3517 37.3385 70.1124 38.3494C70.8002 39.2456 70.894 39.2456 71.5922 38.3181C72.4051 37.2551 73.2283 36.2026 73.9995 35.1084C74.5831 34.2643 75.323 33.9412 76.3547 33.9516C81.8779 33.9829 87.4011 33.9725 92.9243 33.9621C94.9668 33.9621 95.4671 33.4514 95.4671 31.3985C95.4671 23.27 95.4671 15.1311 95.4671 7.00258C95.4671 4.97045 94.9564 4.47024 92.893 4.47024C86.6508 4.47024 80.3981 4.47024 74.1558 4.47024L74.1767 4.45982Z" fill="white"/>
<path d="M82.4006 70.352C79.566 70.352 77.3672 68.1844 77.3672 65.3498C77.3672 62.5153 79.5348 60.3268 82.3693 60.3164C85.2143 60.3164 87.4027 62.484 87.4027 65.3081C87.4027 68.1531 85.2351 70.3415 82.4006 70.352ZM82.3798 63.8179C81.6086 63.8179 80.8583 64.5787 80.8687 65.3498C80.8791 66.0897 81.5773 66.7984 82.3172 66.8296C83.0988 66.8609 83.8596 66.1418 83.8804 65.3498C83.9012 64.5682 83.1613 63.8075 82.3798 63.8075V63.8179Z" fill="white"/>
<path d="M24.7921 29.0941C24.7921 30.2404 24.212 30.8136 23.0518 30.8136C21.8915 30.8136 21.3184 30.2335 21.3323 29.0732C21.3462 27.913 21.9263 27.3399 23.0726 27.3538C24.2189 27.3677 24.7921 27.9478 24.7921 29.0941Z" fill="white"/>
<path d="M34.6823 29.1367C34.6823 30.2622 34.0918 30.8249 32.9107 30.8249C31.7297 30.8249 31.1669 30.2344 31.2225 29.0533C31.2781 27.8722 31.9033 27.3095 33.0983 27.3651C34.1543 27.3651 34.6823 27.9556 34.6823 29.1367Z" fill="white"/>
<path d="M74.1467 10.89C78.7112 10.89 83.2756 10.9108 87.8401 10.8691C88.7676 10.8691 89.1115 11.1401 89.0802 12.0988C89.0072 14.6937 89.3407 14.329 86.8188 14.3394C78.1067 14.3498 69.3947 14.3394 60.6722 14.3394C59.2549 14.3394 59.234 14.3394 59.2445 12.9221C59.2549 10.6295 59.0256 10.89 61.287 10.89C65.5805 10.8796 69.8636 10.89 74.1571 10.89H74.1467Z" fill="white"/>
<path d="M74.1565 17.4742C78.6897 17.4742 83.2124 17.5055 87.7456 17.4534C88.7877 17.443 89.1212 17.7556 89.0795 18.7977C88.9962 21.2362 89.3088 20.9236 86.9119 20.9236C78.1686 20.934 69.4148 20.9236 60.6715 20.9236C59.2542 20.9236 59.2438 20.9236 59.2542 19.4959C59.2646 17.2137 59.0354 17.4742 61.2968 17.4742C65.5903 17.4638 69.8734 17.4742 74.1669 17.4742H74.1565Z" fill="white"/>
<path d="M74.0416 27.521C69.5084 27.521 64.9856 27.5001 60.4524 27.5418C59.5145 27.5418 59.1915 27.25 59.2228 26.3121C59.2957 23.7173 58.9622 24.082 61.4946 24.082C70.2066 24.0716 78.9187 24.082 87.6412 24.082C89.0585 24.082 89.0689 24.082 89.0585 25.4993C89.048 27.7919 89.2773 27.521 87.0159 27.5314C82.6912 27.5418 78.3664 27.5314 74.052 27.5314L74.0416 27.521Z" fill="white"/>
</svg>
