<?xml version="1.0" encoding="utf-8"?>
<!-- Generator: Adobe Illustrator 27.0.1, SVG Export Plug-In . SVG Version: 6.00 Build 0)  -->
<svg version="1.1" id="Layer_1" xmlns="http://www.w3.org/2000/svg" xmlns:xlink="http://www.w3.org/1999/xlink" x="0px" y="0px"
	 viewBox="0 0 63 63" style="enable-background:new 0 0 63 63;" xml:space="preserve">
<style type="text/css">
	.st0{fill:#5A5A5A;}
</style>
<path class="st0" d="M0,32c0.2-0.3,0.5-0.4,0.8-0.4c1.3,0,2.6,0,3.9,0c-0.3-0.8-0.6-1.6-0.9-2.4c-1.4-4.4,0-8.8,3.9-11.3
	c1.8-1.2,3.9-1.6,6-1.3c2.3,0.3,4.4,1.3,6.4,2.5c0.3,0.2,0.6,0.2,0.9,0c1.8-1.1,3.6-2,5.7-2.4c5.4-1.1,9.8,2.4,10.9,6.9
	c0.5,2.2,0.2,4.2-0.5,6.3c-0.1,0.3-0.2,0.6-0.4,0.9c0.7,0,1.3,0,1.9,0c0.5,0,1,0,1.4,0c0.5,0,0.8,0.2,0.8,0.6c0,0.4-0.3,0.6-0.8,0.6
	c-1.2,0-2.4,0-3.6,0c-0.1,0-0.4,0.1-0.4,0.2c-1.6,2.7-3.7,5-6,7.1c-2.5,2.3-5.2,4.4-8.1,6.3c-0.2,0.2-0.5,0.3-0.7,0.5
	c-0.4,0.3-0.8,0.2-1.2,0c-1.7-0.9-3.2-2-4.7-3.2c-2.6-2.1-5.2-4.3-7.3-6.8c-0.8-1-1.6-2.1-2.4-3.1c-0.1-0.1-0.3-0.2-0.4-0.2
	c-1.4,0-2.9,0-4.3,0c-0.4,0-0.7-0.1-1-0.4L0,32L0,32z M20.6,35.6c0.1-0.2,0.1-0.3,0.1-0.4c1.1-3.9,2.3-7.9,3.4-11.8
	c0.1-0.4,0.3-0.7,0.7-0.7c0.4,0,0.6,0.3,0.7,0.7c0.6,2.1,1.3,4.1,1.9,6.2c0.1,0.2,0.1,0.3,0.2,0.5c0.1,0,0.1,0,0.1,0
	c0.4-0.6,0.8-1.1,1.1-1.6c0.4-0.6,0.9-0.6,1.3,0c0.5,0.8,0.9,1.5,1.4,2.3c0.1,0.1,0.2,0.2,0.4,0.2c1.1,0,2.2,0,3.4,0
	c0.1,0,0.3-0.1,0.3-0.2c0.9-2,1.5-4.1,1-6.3c-0.7-4-4.5-7.3-9.3-6.4c-2.2,0.4-4.2,1.4-6.1,2.6c-0.5,0.3-0.6,0.3-1.1,0
	c-1-0.6-2-1.2-3.1-1.7c-1.7-0.8-3.6-1.3-5.5-1c-3.6,0.5-6.5,3.6-6.8,7.2c-0.1,2.2,0.4,4.2,1.4,6.1c0.1,0.2,0.2,0.3,0.5,0.3
	c1.6,0,3.1-0.1,4.7,0c0.9,0.1,1.3-0.2,1.7-1c0.8-1.7,1.6-3.3,2.4-4.9c0.2-0.3,0.4-0.6,0.7-0.4c0.2,0.1,0.4,0.3,0.5,0.5
	c0.8,2,1.5,3.9,2.3,5.9C19.5,32.9,20,34.2,20.6,35.6L20.6,35.6z M16,27.4c-0.1,0.2-0.2,0.3-0.2,0.4c-0.7,1.5-1.5,2.9-2.2,4.4
	c-0.2,0.5-0.5,0.7-1.1,0.7c-1.6,0-3.2,0-4.9,0c-0.1,0-0.3,0-0.5,0c0.1,0.2,0.1,0.3,0.2,0.3C8,34.1,8.7,35,9.4,35.9
	c3.2,3.6,7,6.5,11,9.1c0.2,0.1,0.3,0.1,0.5,0c0.8-0.5,1.6-1,2.3-1.6c3.6-2.6,7-5.4,9.8-8.8c0.6-0.7,1.1-1.5,1.7-2.4
	c-0.3,0-0.4,0-0.5,0c-0.9,0-1.9,0-2.8,0c-0.4,0-0.7-0.1-0.9-0.5c-0.4-0.7-0.8-1.3-1.2-2c-0.5,0.7-0.9,1.4-1.4,2
	c-0.2,0.3-0.4,0.5-0.8,0.4c-0.4-0.1-0.5-0.3-0.6-0.6c-0.3-0.9-0.5-1.8-0.8-2.7c-0.3-1-0.6-2.1-1-3.2c-0.1,0.2-0.1,0.3-0.1,0.4
	c-0.8,2.6-1.5,5.1-2.2,7.7c-0.4,1.3-0.8,2.7-1.2,4c-0.1,0.5-0.6,0.7-0.9,0.5c-0.2-0.1-0.3-0.3-0.4-0.6c-0.9-2.3-1.8-4.5-2.7-6.8
	C16.8,29.7,16.4,28.6,16,27.4L16,27.4z"/>
</svg>
