<svg width="216" height="207" viewBox="0 0 216 207" fill="none" xmlns="http://www.w3.org/2000/svg">
<g clip-path="url(#clip0_5527_1017)">
<rect width="216" height="206.929" fill="#151517"/>
<g clip-path="url(#clip1_5527_1017)">
<path d="M73.5716 103.993V119.689C73.6044 120.211 73.525 120.734 73.3389 121.223C73.1528 121.712 72.8643 122.155 72.4927 122.524C72.1211 122.892 71.675 123.176 71.1844 123.358C70.6938 123.539 70.17 123.614 69.6483 123.576H42.1849C41.6187 123.657 41.0415 123.604 40.4994 123.422C39.9572 123.24 39.4652 122.933 39.0626 122.527C38.66 122.121 38.3579 121.626 38.1806 121.082C38.0033 120.539 37.9557 119.961 38.0415 119.395V87.9311C38.0039 87.4093 38.0783 86.8855 38.2598 86.3949C38.4413 85.9042 38.7257 85.458 39.0938 85.0864C39.4619 84.7147 39.9053 84.4261 40.3942 84.24C40.883 84.0538 41.4061 83.9744 41.9282 84.0072H69.685C70.2037 83.975 70.7234 84.0535 71.2096 84.2375C71.6957 84.4215 72.1371 84.7067 72.5047 85.0743C72.8722 85.4419 73.1574 85.8834 73.3413 86.3696C73.5253 86.8558 73.6038 87.3755 73.5716 87.8944V103.883V103.993ZM71.6283 103.883V88.0778C71.6283 86.5009 71.115 86.0242 69.575 85.9875H42.0382C40.4982 85.9875 39.9848 86.5376 39.9848 88.0778V119.689C39.9848 121.082 40.5349 121.669 41.8549 121.669H69.8682C70.1079 121.707 70.3531 121.687 70.5838 121.612C70.8145 121.537 71.0242 121.408 71.1958 121.237C71.3674 121.065 71.496 120.855 71.5711 120.624C71.6463 120.394 71.6659 120.149 71.6283 119.909V103.92" fill="white"/>
<path d="M91.6102 102.491V97.1738H95.4602V111.659H91.6102V105.828H86.7334V111.659H82.7734V97.1738H86.6601V102.491H91.6102Z" fill="white"/>
<path d="M146.173 104.393C146.191 105.689 145.865 106.967 145.229 108.096C144.593 109.225 143.669 110.166 142.551 110.822C141.433 111.478 140.161 111.826 138.865 111.83C137.569 111.835 136.295 111.495 135.172 110.847C134.208 110.269 133.408 109.453 132.849 108.477C132.291 107.501 131.992 106.398 131.982 105.273C131.782 104.12 131.853 102.936 132.19 101.816C132.528 100.695 133.122 99.6691 133.926 98.8188C134.946 97.796 136.245 97.0974 137.66 96.8104C139.076 96.5233 140.545 96.6606 141.882 97.2052C143.169 97.6572 144.285 98.4946 145.079 99.6035C145.873 100.712 146.306 102.039 146.319 103.403C146.337 103.733 146.337 104.063 146.319 104.393H146.173ZM135.723 104.099C135.723 104.796 135.723 105.236 135.723 105.713C135.786 106.04 135.885 106.36 136.016 106.667C136.202 107.285 136.583 107.826 137.102 108.212C137.62 108.597 138.248 108.804 138.894 108.804C139.54 108.804 140.168 108.597 140.687 108.212C141.205 107.826 141.586 107.285 141.772 106.667C142.254 105.323 142.317 103.866 141.956 102.486C141.849 101.761 141.48 101.099 140.92 100.626C140.359 100.154 139.645 99.9021 138.913 99.9189C138.181 99.8996 137.466 100.145 136.901 100.61C136.335 101.074 135.956 101.727 135.833 102.449C135.833 103.073 135.649 103.696 135.576 104.099" fill="white"/>
<path d="M124.684 106.117L127.727 111.728H123.804C123.804 111.728 123.437 111.435 123.327 111.251C122.594 109.968 121.824 108.721 121.164 107.401C121.11 107.254 121.025 107.121 120.914 107.011C120.803 106.901 120.67 106.817 120.523 106.764C120.376 106.712 120.219 106.692 120.064 106.707C119.908 106.722 119.758 106.771 119.624 106.851V111.728H115.957V97.2793C118.377 97.2793 120.76 97.2793 123.29 97.2793C126.957 97.6093 128.02 99.9196 127.544 103.11C127.441 103.834 127.124 104.51 126.634 105.052C126.144 105.595 125.503 105.978 124.794 106.154L124.684 106.117ZM119.917 103.697C120.87 103.697 121.787 103.697 122.704 103.697C123.09 103.642 123.44 103.439 123.679 103.131C123.918 102.823 124.029 102.434 123.987 102.047C124.002 101.854 123.979 101.66 123.919 101.476C123.858 101.293 123.763 101.123 123.637 100.976C123.51 100.829 123.357 100.709 123.184 100.622C123.011 100.535 122.823 100.484 122.63 100.47C121.75 100.47 120.834 100.47 119.917 100.47V103.88" fill="white"/>
<path d="M163.517 111.732C162.087 111.732 160.841 111.732 159.594 111.732C159.443 111.714 159.299 111.662 159.172 111.579C159.045 111.497 158.938 111.386 158.861 111.256C157.944 109.826 157.101 108.322 156.221 106.855L155.671 105.975C155.291 106.249 154.987 106.614 154.788 107.038C154.589 107.461 154.502 107.929 154.534 108.395C154.534 109.496 154.534 110.559 154.534 111.732H150.867V97.2472H154.534V102.491L155.194 101.648L158.237 97.6873C158.501 97.4111 158.85 97.2305 159.227 97.1738C160.474 97.1738 161.684 97.1738 162.894 97.1738L162.49 97.724C161.207 99.2275 159.96 100.731 158.824 102.161C158.721 102.257 158.638 102.374 158.582 102.503C158.526 102.632 158.497 102.772 158.497 102.913C158.497 103.054 158.526 103.194 158.582 103.323C158.638 103.452 158.721 103.569 158.824 103.665C160.29 106.048 161.721 108.469 163.151 110.999L163.664 111.916" fill="white"/>
<path d="M167.18 97.1738H171.03V105.205C171.03 105.682 171.03 106.195 171.03 106.672C171.03 106.954 171.086 107.234 171.195 107.494C171.305 107.755 171.464 107.991 171.666 108.189C171.867 108.387 172.106 108.543 172.368 108.648C172.631 108.752 172.911 108.804 173.193 108.799C174.477 108.799 175.173 108.212 175.32 106.782C175.467 105.352 175.32 104.582 175.32 103.445C175.32 101.391 175.32 99.3008 175.32 97.1738H178.987C178.987 97.1738 178.987 97.4673 178.987 97.5773C178.987 100.548 178.987 103.555 178.987 106.525C179.034 107.254 178.927 107.984 178.672 108.668C178.417 109.352 178.021 109.974 177.508 110.494C176.995 111.013 176.378 111.419 175.698 111.683C175.018 111.947 174.289 112.064 173.56 112.026C172.721 112.051 171.883 111.965 171.067 111.769C169.91 111.618 168.848 111.051 168.079 110.173C167.309 109.296 166.886 108.169 166.887 107.002C166.887 103.738 166.887 100.511 166.887 97.1738" fill="white"/>
<path d="M100.703 111.513V97.1738H111.043V100.328H104.663V102.675H109.21V105.755H104.663V108.432H111.373V111.513H100.703Z" fill="white"/>
<path d="M50.7665 101.353C52.3253 100.943 53.9041 100.613 55.4966 100.363C56.9218 100.198 58.3613 100.198 59.7865 100.363C61.0775 100.521 62.269 101.137 63.1439 102.1C64.0188 103.062 64.5189 104.307 64.5533 105.607C64.5533 109.605 64.5533 113.639 64.5533 117.636C64.5672 117.758 64.5672 117.881 64.5533 118.002H60.6666V106.561C60.6666 104.764 59.9698 104.067 58.1732 104.067C55.1987 104.188 52.2798 104.912 49.5931 106.194C48.7131 106.561 47.8698 107.001 46.9531 107.441V90.3887H50.8032L50.7665 101.353Z" fill="white"/>
<path d="M64.5143 90.0586C64.2411 92.2715 63.3374 94.3592 61.9109 96.0727C61.7681 96.2641 61.5587 96.395 61.3242 96.4395H57.9141C58.6108 94.9359 60.7008 90.1686 60.7008 90.1686H64.3676" fill="white"/>
<path d="M47.0625 117.63V109.893L51.3894 113.78L47.0625 117.63Z" fill="white"/>
</g>
</g>
<defs>
<clipPath id="clip0_5527_1017">
<rect width="216" height="206.929" fill="white"/>
</clipPath>
<clipPath id="clip1_5527_1017">
<rect width="141" height="39.6128" fill="white" transform="translate(38 84)"/>
</clipPath>
</defs>
</svg>
