<svg width="216" height="207" viewBox="0 0 216 207" fill="none" xmlns="http://www.w3.org/2000/svg">
<g clip-path="url(#clip0_5470_751)">
<rect width="216" height="206.929" fill="#151517"/>
<g clip-path="url(#clip1_5470_751)">
<path d="M27.1602 95.4222L36.5828 79.0176L46.0054 95.4222L36.5796 111.852L27.1602 95.4222Z" fill="#D6D6D6"/>
<path d="M64.8628 95.4238L55.4338 79.0176H36.5918L46.0144 95.4222L64.8628 95.4238Z" fill="white"/>
<path d="M74.2726 111.858L64.8484 128.264L55.4258 111.86L64.8516 95.4297L74.2726 111.858Z" fill="#D6D6D6"/>
<path d="M36.5742 111.857L46.0032 128.26H64.8452L55.4226 111.855L36.5742 111.857Z" fill="white"/>
<path d="M84.8926 110.789H87.1861V104.38H93.8979V110.789H96.1691V96.5126H93.8979V102.414H87.1861V96.5126H84.8926V110.789ZM100.457 110.789H102.75V96.5126H100.457V110.789ZM116.484 106.474C116.484 104.993 115.621 103.593 113.77 103.218V103.175C115.223 102.667 116.191 101.377 116.191 99.9181C116.191 97.7182 114.592 96.4501 111.499 96.4501L107.04 96.5142V110.791L110.91 110.855C115.266 110.855 116.484 108.338 116.484 106.476V106.474ZM113.777 100.278C113.777 101.716 112.662 102.584 110.537 102.584C110.053 102.584 109.696 102.584 109.317 102.563V98.333L111.106 98.2914C113.125 98.2914 113.777 99.1159 113.777 100.28V100.278ZM114.051 106.518C114.051 107.955 113.063 108.971 110.977 108.971C110.241 108.971 109.671 108.927 109.316 108.865V104.318C109.631 104.297 110.367 104.297 110.599 104.297C112.598 104.297 114.049 104.889 114.049 106.518H114.051ZM122.15 98.4371H127.347V96.5126H119.856V110.789H127.347V108.82H122.166V104.377H127.11V102.494H122.166L122.15 98.4371ZM140.633 110.789L136.891 105.818L135.691 104.297C138.005 104.044 139.71 102.584 139.71 100.299C139.71 97.4652 137.69 96.4277 134.744 96.4277L130.921 96.5126V110.789H133.215V104.614H133.32L137.738 110.789H140.633ZM137.309 100.552C137.309 101.969 136.195 102.922 134.342 102.922C133.97 102.924 133.598 102.91 133.227 102.88V98.3538L134.427 98.3122C136.341 98.3122 137.294 98.9894 137.294 100.554L137.309 100.552Z" fill="#D6D6D6"/>
<path d="M154.976 110.79V96.5137H152.746V100.76L152.894 107.548L151.17 104.311L146.477 96.5297H143.451V110.806H145.681V106.003L145.554 99.679L147.146 102.683L152.004 110.805L154.976 110.79ZM170.142 110.79L164.988 96.5137H162.44L157.348 110.79H159.662L160.756 107.64H166.5L167.594 110.79H170.142ZM165.893 105.798H161.347L162.946 101.379C163.22 100.617 163.451 99.8359 163.583 99.1154H163.625C163.78 99.8634 163.991 100.599 164.255 101.315L165.893 105.798ZM169.656 98.459H173.549V110.79H175.843V98.459H179.756V96.5137H169.658L169.656 98.459ZM184.421 98.4382H189.618V96.5137H182.128V110.79H189.618V108.821H184.421V104.378H189.365V102.495H184.421V98.4382Z" fill="white"/>
</g>
</g>
<defs>
<clipPath id="clip0_5470_751">
<rect width="216" height="206.929" fill="white"/>
</clipPath>
<clipPath id="clip1_5470_751">
<rect width="163" height="49.6087" fill="white" transform="translate(27 79)"/>
</clipPath>
</defs>
</svg>
