<svg width="100" height="100" viewBox="0 0 100 100" fill="none" xmlns="http://www.w3.org/2000/svg">
<path d="M11.0356 54.4516C11.6648 52.7184 12.9231 52.0537 14.7393 52.0655C23.2507 52.1011 31.774 52.0774 40.2854 52.0774C42.8376 52.0774 43.8704 53.1339 43.8704 55.7099C43.8704 56.3984 43.8704 57.075 43.8704 57.7635C43.8466 59.746 42.707 60.9093 40.7127 60.9331C38.9558 60.9568 37.199 60.9331 35.4421 60.9449C35.1334 60.9449 34.7179 60.7787 34.5518 61.0992C34.4093 61.3604 34.7536 61.6216 34.9079 61.8471C37.8519 66.0969 41.8998 68.6254 46.9568 69.5988C56.3941 71.4031 66.0689 65.0285 68.1581 55.6387C68.2412 55.2944 68.3124 54.9383 68.4193 54.6059C68.7279 53.7274 69.4995 53.2645 70.3067 53.4782C71.1258 53.6918 71.6007 54.4516 71.4345 55.3656C70.8528 58.547 69.6182 61.4791 67.6714 64.067C62.9587 70.311 56.6434 73.4449 48.8561 72.982C41.0807 72.519 35.1453 68.7085 31.2161 61.9302C30.8006 61.2179 30.3851 60.8737 29.5541 60.9331C28.4264 61.0043 27.2749 60.9924 26.1472 60.9331C25.3281 60.8974 25.1975 61.123 25.518 61.859C27.6429 66.726 30.9312 70.6315 35.3352 73.5874C40.5821 77.113 46.4107 78.6087 52.6548 77.9677C61.1306 77.1011 67.802 73.0057 72.5503 65.9069C75.3519 61.7165 76.7407 57.0394 76.8595 52.0299C76.9663 47.9226 76.1828 43.9577 74.4259 40.1947C74.141 39.5893 73.9392 39.4112 73.4288 39.981C72.6334 40.8595 71.66 41.5242 70.556 41.9516C69.915 42.189 69.915 42.4976 70.1406 43.0556C70.4848 43.8984 70.7816 44.7531 71.0309 45.6315C71.3514 46.7474 70.9715 47.6021 70.0931 47.8751C69.1909 48.16 68.4668 47.6971 68.0513 46.5812C67.6833 45.5722 67.3034 44.575 66.9354 43.566C66.7217 42.9843 66.33 42.6994 65.7127 42.6163C63.0418 42.284 60.9763 40.9544 59.3856 38.8177C59.2194 38.5921 59.1482 38.1054 58.6971 38.3191C58.3172 38.4853 58.2934 38.8295 58.3647 39.2331C58.6852 41.0969 58.056 42.5689 56.4297 43.5541C54.9459 44.4563 53.2958 44.2783 51.7407 43.0081C51.2303 42.5926 50.9335 42.6519 50.518 43.0912C49.7108 43.934 48.8917 44.7768 48.0252 45.5603C46.5888 46.878 45.0931 46.8661 43.7042 45.5128C42.161 44.0171 40.6415 42.4976 39.1576 40.9544C37.8756 39.6249 37.8993 38.0461 39.1695 36.6928C39.9767 35.85 40.8077 35.019 41.6505 34.2118C42.0779 33.8082 42.1728 33.5114 41.7455 33.0009C40.5584 31.5764 40.2854 29.9739 41.1994 28.2882C42.0304 26.7569 43.4905 26.0921 45.5085 26.3651C45.9715 26.4245 46.2445 26.2821 46.5294 25.9972C50.8742 21.6524 55.2189 17.2958 59.5636 12.963C59.8841 12.6425 60.0266 12.3457 59.9554 11.8471C59.6823 10.1733 60.1453 8.73694 61.6054 7.76353C63.0418 6.79012 64.5138 6.77825 66.0095 7.68044C66.1757 7.7754 66.3538 7.90598 66.5318 7.90598C67.2085 7.92972 69.0722 5.60304 68.8822 4.95014C68.6567 4.14293 68.7279 3.35945 69.2502 2.73029C70.1168 1.68566 70.9834 0.617284 72.2417 0H73.9986C75.3044 0.830959 76.2778 2.02991 77.358 3.09829C79.5066 5.22317 81.6553 7.35992 83.7683 9.52042C85.1334 10.9093 85.0978 12.4169 83.7564 13.8177C83.3291 14.2569 82.878 14.6842 82.4506 15.1235C81.8333 15.7526 81.038 16.1087 80.2426 15.8713C79.1624 15.5508 78.5332 16.0138 77.9278 16.7498C77.6785 17.0465 77.3936 17.3314 77.0969 17.5807C76.7051 17.9131 76.6814 18.2099 76.9782 18.661C77.9041 20.1092 77.9397 21.6168 76.99 23.0651C76.0166 24.537 74.5684 25.095 72.8471 24.7745C72.2892 24.6676 71.933 24.8694 71.7194 25.2968C71.4701 25.7835 72.0043 25.8784 72.2536 26.0684C75.1975 28.3238 76.4558 31.2915 75.9691 34.9478C75.8623 35.755 76.0048 36.3841 76.3727 37.0608C79.5779 43.0081 80.765 49.359 79.6372 56.0185C78.0347 65.5389 72.8946 72.6971 64.5613 77.5522C64.3713 77.6709 64.0389 77.6709 64.0389 78.0745H65.1192C71.1021 78.0745 77.085 78.0745 83.0679 78.0745C83.7208 78.0745 84.3737 78.122 85.0029 78.217C87.1633 78.5613 88.754 80.5318 88.6235 82.633C88.4929 84.8172 86.7004 86.5978 84.4924 86.7047C83.8158 86.7403 83.1273 86.7521 82.4506 86.7047C81.6909 86.6453 81.4772 86.8708 81.7028 87.6425C82.32 89.6961 82.8898 91.7616 83.4596 93.839C84.4093 97.3053 82.3794 99.9881 78.7944 100C59.5161 100 40.2379 100 20.9715 100C20.4848 100 19.9981 100 19.5233 99.8576C16.8998 99.1216 15.5821 96.7593 16.3181 93.9815C16.8761 91.8803 17.4577 89.7792 18.0988 87.7018C18.3481 86.8827 18.1344 86.6572 17.3272 86.7165C16.6505 86.764 15.962 86.7521 15.2854 86.7165C13.1486 86.6097 11.5223 85.019 11.2374 82.7873C11 80.9117 12.2939 78.9886 14.217 78.3832C15.0005 78.1339 15.8077 78.0745 16.6268 78.0745C22.8352 78.0745 29.0437 78.0745 35.2521 78.0745C35.5727 78.0745 35.9288 78.1695 36.273 77.9321C36.1306 77.8253 36.0594 77.754 35.9763 77.7066C29.3642 74.0622 24.7108 68.6966 22.0518 61.6216C21.8381 61.0518 21.4582 60.9449 20.924 60.9449C18.8466 60.9568 16.7574 60.8974 14.68 60.9687C12.8519 61.028 11.6173 60.3039 11 58.5708V54.4753L11.0356 54.4516ZM49.9126 81.2559C38.8015 81.2559 27.6785 81.2559 16.5674 81.2559C16.1163 81.2559 15.6534 81.1966 15.2141 81.3746C14.7156 81.5765 14.3832 81.9088 14.4307 82.4786C14.49 83.0603 14.8224 83.4402 15.4278 83.4995C15.8789 83.547 16.3419 83.547 16.793 83.547C31.2279 83.547 45.651 83.547 60.0859 83.547C60.7032 83.547 61.3205 83.5826 61.9259 83.6895C62.6975 83.8319 63.113 84.4017 63.113 85.1614C63.113 85.9687 62.65 86.5029 61.8428 86.669C61.4986 86.7403 61.1306 86.7165 60.7745 86.7165C56.1567 86.7165 51.5389 86.7165 46.933 86.7165C38.9084 86.7165 30.8718 86.7284 22.8471 86.6928C21.9212 86.6928 21.5532 86.9896 21.3276 87.868C20.746 90.1709 20.0456 92.4383 19.4164 94.7175C19.0722 95.952 19.6301 96.7474 20.9003 96.8898C21.2564 96.9255 21.6125 96.9136 21.9687 96.9136C40.6296 96.9136 59.2787 96.9136 77.9397 96.9136C78.2365 96.9136 78.5214 96.9136 78.8181 96.9136C80.2783 96.8186 80.8481 96.0351 80.4563 94.6225C79.839 92.4027 79.1505 90.1947 78.6045 87.9511C78.367 86.9777 77.9516 86.6572 76.9425 86.6928C74.6396 86.764 72.3248 86.7284 70.0218 86.7047C69.0603 86.7047 68.4312 86.1111 68.3599 85.2683C68.2887 84.4611 68.8704 83.7844 69.82 83.6301C70.2355 83.5589 70.6629 83.547 71.0784 83.547C75.1738 83.547 79.2692 83.547 83.3647 83.547C83.7208 83.547 84.0769 83.547 84.4331 83.5114C85.0385 83.452 85.3827 83.0959 85.4539 82.5143C85.5252 81.897 85.1572 81.5171 84.6111 81.3746C84.2075 81.2678 83.7802 81.2678 83.3528 81.2678C72.2061 81.2678 61.0594 81.2678 49.9126 81.2678V81.2559ZM69.6182 22.6377C69.6064 22.3765 69.3808 22.2222 69.2028 22.0442C67.0423 19.8837 64.8818 17.735 62.745 15.5627C62.2583 15.0641 61.9378 15.1116 61.4748 15.5864C57.4269 19.6581 53.367 23.7298 49.2835 27.7778C48.7255 28.3238 48.7612 28.68 49.2953 29.2023C51.2896 31.1491 53.2483 33.1434 55.2308 35.114C56.3585 36.2417 56.5128 36.2179 57.5218 34.9715C57.8542 34.5679 57.8067 34.1287 57.8067 33.6776C57.8067 31.5171 58.4359 29.5821 59.7773 27.8965C61.6766 25.4986 64.217 24.3827 67.2441 24.359C68.0275 24.359 69.6182 23.2431 69.642 22.6496L69.6182 22.6377ZM27.5242 57.7398C31.584 57.7398 35.6439 57.7042 39.7037 57.7635C40.784 57.7754 40.7958 57.2531 40.8196 56.4459C40.8433 55.5674 40.594 55.2588 39.6681 55.2588C31.5484 55.2944 23.4169 55.2944 15.2972 55.2588C14.3357 55.2588 14.1814 55.6505 14.1814 56.4696C14.1814 57.3243 14.312 57.7754 15.3329 57.7517C19.3927 57.7042 23.4525 57.7279 27.5123 57.7279L27.5242 57.7398ZM60.9763 33.4758C60.9525 36.8471 63.5522 39.518 66.8761 39.5655C70.2118 39.6011 73.0014 36.8708 73.0014 33.547C73.0014 30.235 70.3186 27.5522 66.9948 27.5404C63.5997 27.5404 61 30.0926 60.9763 33.4758ZM76.7407 13.2835C76.622 13.1529 76.4796 12.9748 76.3253 12.8205C75.2688 11.764 74.2122 10.7075 73.1676 9.651C71.3158 7.79915 71.3395 7.82289 69.5233 9.67474C69.0009 10.2089 69.0484 10.5413 69.5589 11.0161C70.5679 11.9777 71.5413 12.9748 72.5266 13.9601C73.8878 15.3213 75.1975 15.2738 76.4558 13.8177C76.5745 13.6752 76.7526 13.5565 76.7407 13.2716V13.2835ZM74.5446 20.8096C74.5328 20.3941 74.1766 20.133 73.8917 19.8362C70.9122 16.8566 67.9326 13.8651 64.953 10.8856C64.7868 10.7312 64.6325 10.5651 64.4544 10.4226C64.1102 10.1496 63.7422 10.114 63.3979 10.4226C63.0299 10.755 62.9943 11.1467 63.2555 11.5622C63.3742 11.7521 63.5404 11.9183 63.6947 12.0726C66.6505 15.0285 69.6064 17.9962 72.5741 20.952C72.7996 21.1776 73.0489 21.415 73.3338 21.5456C73.9273 21.8067 74.5446 21.4506 74.5565 20.8215L74.5446 20.8096ZM44.6538 29.4991C44.3333 29.5109 44.084 29.6415 43.9535 29.9383C43.7398 30.4368 44.0009 30.8167 44.3333 31.1491C47.4316 34.2474 50.5299 37.3576 53.6282 40.444C54.0437 40.8595 54.5541 41.18 55.0527 40.6339C55.5275 40.1116 55.2308 39.613 54.8034 39.1857C51.7289 36.1111 48.6543 33.0366 45.5798 29.962C45.3186 29.7009 45.0456 29.4753 44.6538 29.4991ZM44.4995 36.028C44.4164 36.0755 44.2977 36.1111 44.2028 36.2061C43.443 36.9539 42.6833 37.7137 41.9354 38.4734C41.5912 38.8295 41.8167 39.1144 42.0897 39.3875C43.1937 40.4915 44.2977 41.5717 45.378 42.6876C45.7934 43.1149 46.1258 43.0674 46.5057 42.6519C47.1111 42.0109 47.7165 41.3818 48.3576 40.8001C48.8443 40.3609 48.773 40.0285 48.3338 39.6011C47.2536 38.5684 46.2208 37.5 45.1643 36.4435C44.9862 36.2654 44.82 36.0399 44.4877 36.0161L44.4995 36.028ZM73.0489 3.44255C72.7284 3.54938 72.4791 3.77493 72.3485 4.05983C72.1823 4.41595 72.5385 4.58215 72.7284 4.77208C75.1382 7.19373 77.548 9.60351 79.9696 12.0133C80.2545 12.2982 80.4919 12.7137 80.9905 12.2151C81.4297 11.7759 81.3466 11.491 80.943 11.0874C78.5214 8.67759 76.1116 6.25594 73.7018 3.84615C73.5237 3.66809 73.3576 3.44255 73.0608 3.43067L73.0489 3.44255Z" fill="white"/>
<path d="M71.0304 33.5212C71.0423 35.7648 69.1667 37.676 66.9706 37.6641C64.727 37.6523 62.8752 35.7886 62.8633 33.5568C62.8633 31.3251 64.727 29.4258 66.935 29.4258C69.2023 29.4258 71.0067 31.242 71.0186 33.5212H71.0304Z" fill="white"/>
</svg>
