<svg width="231" height="127" viewBox="0 0 231 127" fill="none" xmlns="http://www.w3.org/2000/svg">
<g clip-path="url(#clip0_632_2722)">
<g clip-path="url(#clip1_632_2722)">
<path d="M29.698 63.4858C29.698 60.9572 29.6689 58.4287 29.7077 55.9002C29.7368 53.8231 30.4939 53.0174 32.6148 52.9932C37.6866 52.9398 42.7583 52.9398 47.83 52.9932C50.2082 53.0174 50.8148 53.6581 50.8294 56.007C50.8634 61.1417 50.8634 66.2812 50.8294 71.4159C50.8148 73.7357 50.3877 74.1434 47.9417 74.1579C42.7874 74.1919 37.6332 74.1967 32.4838 74.1579C30.1251 74.1385 29.7271 73.6969 29.7028 71.3091C29.6737 68.7029 29.698 66.0919 29.698 63.4858ZM40.4141 63.413C41.8556 64.9417 43.0252 66.2375 44.2628 67.4654C45.3937 68.5913 45.7091 68.5913 46.641 67.7323C47.7475 66.718 47.8252 66.2035 46.8205 65.1844C44.9811 63.311 43.0786 61.5008 41.2101 59.6566C40.5937 59.0451 40.0259 58.9674 39.361 59.6178C37.1527 61.7823 34.9687 63.9662 32.9157 66.32C33.105 66.6597 33.2069 66.9752 33.4156 67.1984C34.6969 68.5913 35.1143 68.5962 36.4975 67.2615C37.6914 66.1113 38.8659 64.9369 40.4093 63.4227L40.4141 63.413Z" fill="#EEEEEE"/>
<path d="M144.742 67.1928C144.742 65.7174 144.742 64.3245 144.742 62.9365C144.742 60.8011 144.718 58.6657 144.752 56.5303C144.781 54.7395 144.922 54.6279 146.674 54.6182C147.072 54.6182 147.479 54.6085 147.945 54.9919V72.3323C147.804 72.4294 147.683 72.5944 147.557 72.5992C142.806 72.837 143.839 72.8613 142.102 69.5272C140.457 66.3726 138.962 63.1355 137.258 59.6558C136.729 61.9513 137.069 64.0188 137.006 66.0571C136.943 68.1731 136.991 70.294 136.991 72.3905C136.554 72.5264 136.336 72.6478 136.118 72.6526C133.74 72.7206 133.725 72.7157 133.72 70.3571C133.71 65.7708 133.706 61.1845 133.72 56.5983C133.73 54.526 133.851 54.5357 135.86 54.3658C137.661 54.2105 138.632 54.8705 139.326 56.5012C140.719 59.7771 142.301 62.9802 143.81 66.2076C143.975 66.5619 144.131 66.9356 144.737 67.1928H144.742Z" fill="#EEEEEE"/>
<path d="M75.1941 63.7577C75.1941 62.889 75.1698 62.0203 75.1941 61.1564C75.3446 56.245 79.0865 53.4059 84.0272 54.4493C86.9392 55.0657 88.6378 56.74 89.162 59.6762C89.6522 62.4085 89.6182 65.1603 89.1523 67.9023C88.7058 70.5182 87.1382 72.0761 84.5756 72.8138C82.6294 73.3719 80.7415 73.2117 78.9263 72.4643C76.5336 71.4743 75.4756 69.4942 75.2329 67.0676C75.1213 65.9756 75.2135 64.8642 75.2135 63.7577C75.2038 63.7577 75.1941 63.7577 75.1893 63.7577H75.1941ZM85.8278 63.748C85.8278 63.748 85.8035 63.748 85.7938 63.748C85.7938 62.5638 85.9151 61.3651 85.7647 60.2003C85.5463 58.4677 84.2698 57.5359 82.3673 57.4923C80.4309 57.4486 79.2224 58.2688 78.8632 60.0402C78.373 62.4619 78.3439 64.9128 78.8778 67.3345C79.2515 69.0331 80.6201 69.9407 82.4401 69.8727C84.3378 69.7999 85.6433 68.6691 85.8083 66.8249C85.9006 65.8058 85.8229 64.772 85.8229 63.748H85.8278Z" fill="#EEEEEE"/>
<path d="M165.022 59.0975C164.604 59.2819 164.25 59.4518 163.886 59.6022C162.896 60.0099 162.076 60.039 161.445 58.9325C160.673 57.5785 159.334 57.3164 157.882 57.5445C156.582 57.7483 155.606 58.4472 155.32 59.7381C154.737 62.3928 154.665 65.0815 155.364 67.7119C155.776 69.2746 157.475 70.1045 159.212 69.8425C160.979 69.5755 161.974 68.5515 162.115 66.8577C162.178 66.1104 161.916 65.625 161.076 65.5959C160.756 65.5862 160.43 65.6008 160.11 65.5619C158.984 65.4309 158.795 65.1785 158.8 64.0575C158.8 63.1887 159.159 62.7228 160.081 62.7471C161.76 62.7908 163.454 62.6015 165.23 62.8975C165.677 65.0378 165.531 67.1247 164.939 69.1921C164.832 69.5658 164.619 69.9153 164.4 70.2453C162.809 72.667 159.649 73.6134 156.232 72.701C153.466 71.9633 151.791 69.9541 151.675 67.0082C151.583 64.8 151.578 62.5821 151.675 60.3739C151.83 56.7 154.238 54.4579 158.038 54.3074C161.493 54.1715 163.6 55.346 164.837 58.1366C164.959 58.4132 164.963 58.7384 165.031 59.1024L165.022 59.0975Z" fill="#EEEEEE"/>
<path d="M106.555 61.8886C106.555 63.5484 106.555 65.2082 106.555 66.868C106.555 71.3378 102.823 73.3227 99.0567 72.9539C94.2811 72.4928 92.9512 69.4936 93.0143 66.3584C93.0823 63.0388 93.0046 59.7192 93.0337 56.4045C93.0483 54.803 94.2277 54.1041 95.7613 54.7156C96.4602 54.9922 96.3389 55.6037 96.3389 56.1279C96.3583 59.132 96.3534 62.1313 96.3486 65.1354C96.3486 66.0866 96.3777 67.0281 96.7417 67.9308C97.2464 69.1975 98.2899 69.712 99.5566 69.843C100.872 69.9789 102.187 69.2315 102.731 68.1007C103.08 67.3776 103.216 66.6011 103.211 65.7954C103.201 64.5336 103.211 63.2669 103.211 62.0002C103.211 60.1851 103.192 58.3652 103.216 56.5501C103.24 54.8078 103.405 54.6331 104.837 54.6088C106.322 54.5846 106.536 54.7835 106.565 56.4385C106.594 58.2536 106.57 60.0735 106.57 61.8886C106.56 61.8886 106.55 61.8886 106.541 61.8886H106.555Z" fill="#EEEEEE"/>
<path d="M122.031 58.4619C120.58 59.5587 119.463 59.7043 118.274 58.1561C117.478 57.1224 116.076 57.2389 114.896 57.6611C113.504 58.1561 113.246 59.8305 114.455 60.6895C115.222 61.2379 116.158 61.5728 117.037 61.9513C118.143 62.4269 119.298 62.7909 120.298 63.4849C123.652 65.8241 123.201 70.7987 119.454 72.4342C117.381 73.3369 115.212 73.4339 113.106 72.5652C111.286 71.813 110.106 70.5123 109.995 68.3915C110.388 68.2022 110.737 68.0275 111.096 67.8673C112.028 67.4403 112.664 67.5664 113.319 68.5031C114.309 69.9105 115.853 70.3182 117.343 69.8377C118.245 69.5465 118.92 68.9884 119.056 68.0275C119.182 67.1345 118.653 66.4939 117.925 66.0911C117.158 65.664 116.323 65.3631 115.508 65.0234C114.397 64.5623 113.251 64.1644 112.276 63.4364C110.66 62.2376 109.912 60.6361 110.218 58.6754C110.519 56.7244 111.654 55.4043 113.615 54.7395C117.444 53.434 120.74 54.8171 122.041 58.4667L122.031 58.4619Z" fill="#EEEEEE"/>
<path d="M200.24 67.7033C199.303 68.8826 199.1 70.324 198.517 71.6004C198.226 72.2313 197.935 72.6875 197.153 72.7117C196.285 72.736 195.853 72.3283 195.576 71.5518C195.13 70.2949 194.601 69.067 194.028 67.6353C193.416 68.1497 193.504 68.6885 193.494 69.1786C193.475 69.9697 193.484 70.7608 193.479 71.5518C193.475 72.1439 193.402 72.6972 192.596 72.6632C191.776 72.6292 191.805 72.008 191.795 71.4596C191.776 70.2706 191.781 69.0864 191.786 67.8974C191.786 66.2376 191.79 64.5729 191.805 62.9132C191.805 62.4133 191.921 61.9571 192.552 61.8988C193.052 61.8503 193.552 61.8891 193.8 62.3939C194.076 62.9617 194.285 63.5635 194.537 64.141C195.353 65.9949 195.872 67.9799 196.959 69.7319C197.804 69.4116 197.828 68.6982 198.061 68.1595C198.716 66.6307 199.299 65.0728 199.925 63.5295C200.104 63.0927 200.298 62.6559 200.546 62.2531C200.784 61.8649 201.22 61.8552 201.623 61.894C202.104 61.9425 202.308 62.2628 202.308 62.7045C202.308 65.7911 202.308 68.8777 202.288 71.9644C202.288 72.4206 201.997 72.6729 201.507 72.6438C201.046 72.6147 200.74 72.372 200.696 71.9255C200.638 71.2995 200.667 70.6588 200.614 70.0328C200.546 69.2757 200.852 68.4555 200.24 67.6935V67.7033Z" fill="#EEEEEE"/>
<path d="M60.4065 54.8605V72.4291C60.1201 72.5455 59.9114 72.7008 59.6979 72.7105C57.213 72.8416 57.1644 72.7979 57.1547 70.3082C57.145 65.9792 57.145 61.6453 57.1547 57.3162C57.1596 54.482 57.2227 54.4334 60.4065 54.8605Z" fill="#EEEEEE"/>
<path d="M129.16 72.3584C128.515 72.8486 127.932 72.7321 127.389 72.7127C126.107 72.6739 125.981 72.5962 125.972 71.3441C125.942 66.2871 125.952 61.2252 125.962 56.1682C125.962 55.6343 125.86 54.984 126.569 54.7753C127.345 54.5472 128.16 54.489 128.913 54.8675C129.083 54.95 129.189 55.2509 129.223 55.4693C129.282 55.8576 129.282 56.2555 129.282 56.6486C129.282 61.4727 129.286 66.2919 129.282 71.116C129.282 71.5722 129.199 72.0333 129.165 72.3633L129.16 72.3584Z" fill="#EEEEEE"/>
<path d="M62.4348 63.3758C65.1332 63.3758 67.7831 63.3758 70.4379 63.3758C70.7485 63.3758 71.0883 63.3418 71.428 63.7155V72.4319C71.1562 72.5677 71.0252 72.6842 70.8796 72.6988C68.1617 72.9366 67.9967 72.7861 67.9724 70.1411C67.9433 66.4624 68.3461 66.9235 64.5799 66.8847C64.1771 66.8847 63.7743 66.8847 63.3715 66.8652C62.4784 66.8264 62.0659 66.3557 62.1096 65.4918C62.1387 64.8706 61.9785 64.2348 62.4348 63.3758Z" fill="#EEEEEE"/>
<path d="M189.314 67.5347C189.314 68.1656 189.358 68.7965 189.305 69.4225C189.125 71.7035 187.781 72.9654 185.427 73.0964C183.117 73.2226 181.52 72.0675 181.064 69.9273C180.666 68.0491 180.7 66.1758 181.146 64.3121C181.617 62.3272 183.262 61.4973 185.364 61.5798C187.407 61.6623 189.13 62.6087 189.28 64.9382C189.338 65.7972 189.29 66.6659 189.29 67.5298C189.295 67.5298 189.305 67.5298 189.309 67.5298L189.314 67.5347ZM187.606 67.3891C187.577 67.3891 187.548 67.3891 187.518 67.3891C187.518 66.6853 187.586 65.9719 187.504 65.2779C187.358 64.0695 186.669 63.3997 185.548 63.2396C184.359 63.0697 183.267 63.6375 182.908 64.7683C182.374 66.4524 182.374 68.1801 182.922 69.8642C183.262 70.9125 184.233 71.4463 185.354 71.3638C186.514 71.2813 187.29 70.6455 187.48 69.5002C187.596 68.8062 187.567 68.0928 187.606 67.3891Z" fill="#EEEEEE"/>
<path d="M179.022 64.3767C178.231 64.8135 177.692 65.2503 177.154 64.4446C176.892 64.0467 176.528 63.7458 176.057 63.5565C174.562 62.945 172.985 63.7118 172.8 65.2842C172.655 66.5315 172.655 67.8127 172.766 69.0649C172.951 71.1323 174.877 71.9671 176.615 70.7247C177.348 70.2005 177.906 69.4968 178.877 70.2102C177.707 72.6514 175.086 73.5832 172.747 72.3796C171.665 71.8215 171.038 70.9285 170.985 69.7346C170.922 68.3175 170.937 66.8955 170.927 65.4735C170.917 63.7797 171.718 62.4742 173.339 62.0374C175.057 61.5764 176.887 61.4793 178.226 63.0712C178.527 63.4303 178.716 63.872 179.017 64.3767H179.022Z" fill="#EEEEEE"/>
<path d="M71.526 54.4967V61.3203C71.395 61.4367 71.2882 61.6212 71.1621 61.6357C68.1142 61.9512 68.0219 61.8687 68.0122 58.8937C68.0122 58.1026 67.9928 57.3115 68.0171 56.5253C68.0753 54.7054 68.3083 54.4724 70.104 54.4045C70.4923 54.3899 70.8854 54.453 71.5212 54.4967H71.526Z" fill="#EEEEEE"/>
<path d="M168.437 71.9731C168.437 72.308 168.344 72.5992 167.946 72.6283C167.602 72.6574 167.311 72.5409 167.286 72.1478C167.267 71.813 167.374 71.5218 167.781 71.4927C168.131 71.4635 168.403 71.5752 168.441 71.9731H168.437Z" fill="#EEEEEE"/>
</g>
</g>
<defs>
<clipPath id="clip0_632_2722">
<rect width="231" height="127" fill="white"/>
</clipPath>
<clipPath id="clip1_632_2722">
<rect width="174.72" height="22.3344" fill="white" transform="translate(28.6401 51.8438)"/>
</clipPath>
</defs>
</svg>
