<svg width="216" height="207" viewBox="0 0 216 207" fill="none" xmlns="http://www.w3.org/2000/svg">
<g clip-path="url(#clip0_5527_623)">
<rect width="216" height="206.929" fill="#151517"/>
<g clip-path="url(#clip1_5527_623)">
<path d="M144.779 72.3633H72.5078L78.8847 144.634L108.643 153.137L138.402 144.634L144.779 72.3633Z" fill="#757575"/>
<path d="M108.645 78.7441V146.551L132.451 139.749L137.766 78.7441H108.645Z" fill="#8D8D8D"/>
<path d="M108.645 114.879V106.376H126.925L125.437 130.821L108.645 136.347V127.42L117.36 124.444L117.997 114.879H108.645V114.879ZM127.563 97.8736L128.2 89.3711H108.645V97.8736H127.563Z" fill="white"/>
<path d="M108.644 127.42V136.347L91.8515 130.821L91.0013 119.13H99.5038L99.9289 124.444L108.644 127.42ZM98.2284 97.8736H108.644V89.3711H89.3008L90.7887 114.879H108.644V106.376H98.8661L98.2284 97.8736Z" fill="#EEEEEE"/>
<path d="M80.166 53.2324H83.3875V59.0075H89.2835V53.2324H92.5049V67.8225H89.2835V61.9256H83.3875V67.8225H80.166V53.2324Z" fill="white"/>
<path d="M99.4351 56.2112H94.998V53.2324H107.033V56.2112H102.657V67.8225H99.4351V56.2112Z" fill="white"/>
<path d="M109.525 53.2324H112.99L116.819 59.3723L120.649 53.2324H124.113V67.8225H120.892V58.2781L116.819 64.5396H116.698L112.686 58.3389V67.8225H109.525V53.2324Z" fill="white"/>
<path d="M127.578 53.2324H130.8V64.9044H138.093V67.8225H127.578V53.2324Z" fill="white"/>
</g>
</g>
<defs>
<clipPath id="clip0_5527_623">
<rect width="216" height="206.929" fill="white"/>
</clipPath>
<clipPath id="clip1_5527_623">
<rect width="73" height="100.69" fill="white" transform="translate(72 53)"/>
</clipPath>
</defs>
</svg>
