<svg width="216" height="207" viewBox="0 0 216 207" fill="none" xmlns="http://www.w3.org/2000/svg">
<g clip-path="url(#clip0_5534_1696)">
<rect width="216" height="206.929" fill="#151517"/>
<g clip-path="url(#clip1_5534_1696)">
<path d="M16.6989 126.816C16.6593 126.816 16.6202 126.806 16.5849 126.788C16.5497 126.77 16.5193 126.743 16.4963 126.711L1.68616 105.738C1.66102 105.702 1.64567 105.66 1.64167 105.617C1.63767 105.574 1.64516 105.53 1.66338 105.49L12.39 82.1554C12.4082 82.1158 12.4365 82.0817 12.472 82.0565C12.5076 82.0313 12.5492 82.016 12.5926 82.0121L38.1287 79.6502C38.1722 79.6449 38.2164 79.6518 38.2562 79.6701C38.296 79.6885 38.3299 79.7175 38.3541 79.7541L53.1644 100.727C53.1895 100.763 53.2048 100.804 53.2088 100.848C53.2128 100.891 53.2054 100.935 53.1871 100.974L42.4608 124.31C42.4426 124.35 42.4143 124.384 42.3787 124.409C42.3432 124.434 42.3016 124.449 42.2583 124.453L16.7217 126.815C16.7142 126.816 16.7065 126.816 16.6989 126.816L16.6989 126.816ZM2.17404 105.568L16.8187 126.307L42.0699 123.972L52.6765 100.897L38.0318 80.1574L12.7809 82.4927L2.17404 105.568Z" fill="white"/>
<path d="M16.611 126.761L12.5122 105.421L12.4922 82.0918L32.4618 87.9697L53.1693 100.852L37.7898 114.523L16.611 126.761ZM12.7408 82.4235L12.758 105.398L16.7889 126.372L37.6453 114.322L52.7564 100.886L32.345 88.1892L12.7408 82.4235Z" fill="white"/>
<path d="M32.7866 88.9483C33.1974 88.9483 33.5303 88.6153 33.5303 88.2046C33.5303 87.7939 33.1974 87.4609 32.7866 87.4609C32.3759 87.4609 32.043 87.7939 32.043 88.2046C32.043 88.6153 32.3759 88.9483 32.7866 88.9483Z" fill="white"/>
<path d="M32.786 89.7408C32.4825 89.7411 32.1856 89.6514 31.9331 89.483C31.6806 89.3146 31.4836 89.075 31.3673 88.7947C31.2509 88.5143 31.2203 88.2058 31.2793 87.908C31.3383 87.6102 31.4843 87.3367 31.6988 87.1219C31.9134 86.9072 32.1868 86.7608 32.4845 86.7015C32.7821 86.6421 33.0908 86.6724 33.3712 86.7885C33.6517 86.9046 33.8915 87.1012 34.0602 87.3536C34.2289 87.6059 34.3189 87.9026 34.319 88.2062C34.3187 88.6128 34.1571 89.0027 33.8697 89.2904C33.5824 89.5781 33.1926 89.7401 32.786 89.7408ZM32.786 88.1619L32.74 88.2062C32.7402 88.2182 32.7452 88.2296 32.7538 88.238C32.7624 88.2463 32.774 88.2509 32.786 88.2508V88.1619Z" fill="white"/>
<path d="M37.7515 115.13C38.1622 115.13 38.4952 114.797 38.4952 114.386C38.4952 113.976 38.1622 113.643 37.7515 113.643C37.3408 113.643 37.0078 113.976 37.0078 114.386C37.0078 114.797 37.3408 115.13 37.7515 115.13Z" fill="white"/>
<path d="M37.7509 115.923C37.4473 115.923 37.1505 115.833 36.8979 115.665C36.6453 115.496 36.4484 115.257 36.3321 114.976C36.2157 114.696 36.1851 114.387 36.2442 114.09C36.3032 113.792 36.4493 113.518 36.6639 113.303C36.8784 113.089 37.1519 112.942 37.4496 112.883C37.7474 112.824 38.056 112.854 38.3365 112.97C38.617 113.086 38.8568 113.283 39.0255 113.535C39.1941 113.788 39.2842 114.085 39.2842 114.388C39.2839 114.795 39.1224 115.185 38.8349 115.473C38.5475 115.76 38.1576 115.922 37.7509 115.923V115.923ZM37.7509 114.344L37.7052 114.388C37.7054 114.4 37.7103 114.411 37.7189 114.42C37.7275 114.428 37.739 114.433 37.7509 114.432V114.344Z" fill="white"/>
<path d="M16.8843 127.312C17.295 127.312 17.628 126.979 17.628 126.568C17.628 126.157 17.295 125.824 16.8843 125.824C16.4736 125.824 16.1406 126.157 16.1406 126.568C16.1406 126.979 16.4736 127.312 16.8843 127.312Z" fill="white"/>
<path d="M16.8798 128.101C16.5762 128.101 16.2794 128.011 16.0268 127.843C15.7743 127.674 15.5773 127.435 15.461 127.154C15.3446 126.874 15.314 126.565 15.3731 126.267C15.4321 125.97 15.5782 125.696 15.7928 125.481C16.0073 125.266 16.2808 125.12 16.5785 125.061C16.8762 125.002 17.1849 125.032 17.4654 125.148C17.7459 125.264 17.9856 125.461 18.1543 125.713C18.323 125.966 18.4131 126.262 18.4131 126.566C18.4128 126.973 18.2513 127.363 17.9638 127.65C17.6764 127.938 17.2865 128.1 16.8798 128.101V128.101ZM16.8798 126.522L16.8341 126.566C16.8343 126.578 16.8393 126.589 16.8478 126.597C16.8564 126.606 16.8679 126.61 16.8798 126.61V126.522Z" fill="white"/>
<path d="M12.6148 106.392C13.0255 106.392 13.3584 106.059 13.3584 105.648C13.3584 105.237 13.0255 104.904 12.6148 104.904C12.204 104.904 11.8711 105.237 11.8711 105.648C11.8711 106.059 12.204 106.392 12.6148 106.392Z" fill="white"/>
<path d="M12.6138 107.182C12.3103 107.182 12.0135 107.092 11.761 106.924C11.5085 106.756 11.3116 106.516 11.1953 106.236C11.079 105.955 11.0484 105.647 11.1075 105.349C11.1665 105.051 11.3126 104.778 11.5271 104.563C11.7417 104.348 12.0151 104.202 12.3128 104.143C12.6105 104.084 12.9191 104.114 13.1995 104.23C13.48 104.346 13.7196 104.543 13.8882 104.795C14.0569 105.048 14.1468 105.344 14.1468 105.648C14.1463 106.054 13.9847 106.444 13.6973 106.732C13.41 107.019 13.0203 107.181 12.6138 107.182V107.182ZM12.6138 105.603L12.5678 105.648C12.5681 105.66 12.5731 105.671 12.5818 105.679C12.5904 105.688 12.6019 105.692 12.6138 105.692V105.603Z" fill="white"/>
<path d="M52.9585 101.653C53.3692 101.653 53.7022 101.32 53.7022 100.91C53.7022 100.499 53.3692 100.166 52.9585 100.166C52.5478 100.166 52.2148 100.499 52.2148 100.91C52.2148 101.32 52.5478 101.653 52.9585 101.653Z" fill="white"/>
<path d="M52.9572 102.442C52.6537 102.442 52.357 102.352 52.1045 102.184C51.852 102.015 51.6552 101.776 51.5389 101.495C51.4227 101.215 51.3921 100.906 51.4513 100.609C51.5104 100.311 51.6565 100.037 51.871 99.8227C52.0856 99.608 52.359 99.4618 52.6567 99.4026C52.9544 99.3433 53.2629 99.3737 53.5433 99.4898C53.8238 99.606 54.0634 99.8027 54.232 100.055C54.4006 100.307 54.4906 100.604 54.4905 100.908C54.4901 101.314 54.3284 101.704 54.041 101.992C53.7535 102.279 53.3638 102.441 52.9572 102.442ZM52.9572 100.863L52.9115 100.908C52.9117 100.92 52.9167 100.931 52.9252 100.939C52.9338 100.948 52.9453 100.952 52.9572 100.952V100.863Z" fill="white"/>
<path d="M12.6148 83.0049C13.0255 83.0049 13.3584 82.672 13.3584 82.2613C13.3584 81.8505 13.0255 81.5176 12.6148 81.5176C12.204 81.5176 11.8711 81.8505 11.8711 82.2613C11.8711 82.672 12.204 83.0049 12.6148 83.0049Z" fill="white"/>
<path d="M12.6142 83.7916C12.3106 83.7919 12.0138 83.7022 11.7612 83.5338C11.5087 83.3654 11.3118 83.1258 11.1954 82.8455C11.079 82.5651 11.0484 82.2566 11.1074 81.9588C11.1664 81.661 11.3124 81.3875 11.527 81.1727C11.7415 80.9579 12.0149 80.8116 12.3126 80.7523C12.6103 80.6929 12.9189 80.7232 13.1994 80.8393C13.4798 80.9553 13.7196 81.152 13.8883 81.4043C14.057 81.6567 14.1471 81.9534 14.1471 82.257C14.1468 82.6636 13.9852 83.0535 13.6979 83.3412C13.4105 83.6289 13.0208 83.7909 12.6142 83.7916ZM12.6142 82.2126L12.5681 82.257C12.5683 82.269 12.5733 82.2804 12.5819 82.2888C12.5905 82.2971 12.6021 82.3018 12.6141 82.3016L12.6142 82.2126Z" fill="white"/>
<path d="M42.2356 124.454C42.2074 124.454 42.1794 124.449 42.1528 124.44L22.6822 117.567L1.76727 105.81C1.73306 105.791 1.7039 105.764 1.68217 105.731C1.66043 105.699 1.64676 105.661 1.64226 105.622C1.63776 105.584 1.64257 105.544 1.6563 105.507C1.67002 105.471 1.69227 105.438 1.7212 105.411L17.457 90.992L38.0322 79.6794C38.0659 79.6607 38.1034 79.6502 38.1418 79.6486C38.1802 79.6471 38.2185 79.6545 38.2535 79.6704C38.2885 79.6862 38.3194 79.7099 38.3437 79.7397C38.368 79.7694 38.3852 79.8044 38.3938 79.8418L43.0036 100.107L42.4835 124.212C42.4826 124.251 42.4725 124.289 42.4539 124.324C42.4353 124.358 42.4088 124.388 42.3765 124.41C42.3351 124.439 42.2859 124.454 42.2356 124.454L42.2356 124.454ZM2.30884 105.546L22.8865 117.116L41.9949 123.858L42.5136 100.157L37.9827 80.2725L17.7441 91.3922L2.30884 105.546Z" fill="white"/>
<path d="M37.8367 114.478L37.7352 114.443L12.4961 105.669L12.5775 105.598L32.832 88.0859L37.8367 114.478ZM12.7399 105.622L37.6746 114.291L32.7504 88.3207L12.7399 105.622Z" fill="white"/>
<path d="M22.6034 117.799L17.2969 90.7949L43.2469 100.073L22.6034 117.799ZM17.952 91.556L22.9261 116.868L42.2759 100.253L17.952 91.556Z" fill="white"/>
<path d="M12.8351 82.1358L12.4023 82.3789L17.4115 91.295L17.8442 91.0518L12.8351 82.1358Z" fill="white"/>
<path d="M16.6758 126.433L22.5602 117.197L22.9785 117.465L17.0941 126.7L16.6758 126.433Z" fill="white"/>
<path d="M42.7783 99.9155L42.7422 100.41L52.9425 101.155L52.9787 100.661L42.7783 99.9155Z" fill="white"/>
<path d="M62.6406 96.8528L65.9594 96.8346L65.9894 102.447L72.4366 102.412L72.4067 96.8004L75.7254 96.7832L75.8046 111.835L72.4858 111.852L72.4516 105.347L66.0044 105.381L66.0386 111.886L62.7198 111.905L62.6406 96.8528Z" fill="white"/>
<path d="M82.3271 105.378L76.6211 96.7762L80.7485 96.7538L83.9699 102.371L87.323 96.7195L91.2589 96.6992L85.6459 105.36L85.6791 111.781L82.3603 111.798L82.3271 105.378Z" fill="white"/>
<path d="M92.1523 96.6955L97.7482 96.6667C98.4911 96.6586 99.2329 96.726 99.9621 96.8677C100.611 96.9877 101.231 97.2333 101.786 97.5907C102.311 97.9434 102.738 98.4241 103.026 98.9876C103.358 99.6793 103.519 100.44 103.496 101.207C103.523 101.966 103.382 102.723 103.082 103.421C102.823 103.989 102.423 104.482 101.919 104.851C101.39 105.223 100.79 105.483 100.157 105.614C99.4301 105.772 98.6886 105.851 97.945 105.85L95.5192 105.863L95.5503 111.73L92.2315 111.747L92.1523 96.6955ZM95.5054 103.056L97.7182 103.044C98.0075 103.044 98.296 103.014 98.5792 102.956C98.8421 102.902 99.0937 102.803 99.3226 102.664C99.5429 102.526 99.7247 102.335 99.8509 102.109C99.9932 101.836 100.061 101.532 100.049 101.225C100.063 100.896 99.9674 100.572 99.7782 100.302C99.5986 100.068 99.3633 99.8827 99.0937 99.763C98.8 99.6332 98.4872 99.5523 98.1674 99.5234C97.8422 99.4908 97.5156 99.4751 97.1888 99.4764L95.4861 99.4849L95.5054 103.056Z" fill="white"/>
<path d="M105.469 96.6277L115.702 96.5742L115.718 99.6353L108.804 99.6716L108.819 102.478L115.35 102.443L115.366 105.504L108.834 105.539L108.85 108.601L116.148 108.563L116.164 111.624L105.548 111.679L105.469 96.6277Z" fill="white"/>
<path d="M118.527 96.5589L124.357 96.5279C125.09 96.5203 125.821 96.5913 126.538 96.7397C127.183 96.8677 127.798 97.1167 128.351 97.4734C128.877 97.826 129.304 98.3067 129.592 98.8702C129.921 99.5549 130.082 100.309 130.061 101.068C130.095 102.038 129.808 102.993 129.245 103.784C128.656 104.556 127.788 105.068 126.827 105.21L130.69 111.546L126.711 111.568L123.533 105.568L121.894 105.576L121.925 111.592L118.607 111.611L118.527 96.5589ZM121.879 102.77L123.838 102.76C124.135 102.758 124.45 102.746 124.784 102.723C125.093 102.705 125.398 102.639 125.687 102.527C125.951 102.422 126.181 102.248 126.354 102.023C126.545 101.742 126.636 101.405 126.614 101.066C126.629 100.744 126.545 100.426 126.376 100.153C126.224 99.9314 126.018 99.7531 125.778 99.6349C125.516 99.5098 125.235 99.4285 124.947 99.3942C124.643 99.3541 124.337 99.3348 124.031 99.3365L121.861 99.3472L121.879 102.77Z" fill="white"/>
<path d="M132.227 96.4879L135.545 96.4707L135.608 108.461L141.757 108.429L141.773 111.49L132.306 111.54L132.227 96.4879Z" fill="white"/>
<path d="M143.445 96.4265L153.679 96.373L153.695 99.4341L146.78 99.4704L146.795 102.277L153.327 102.243L153.343 105.304L146.811 105.338L146.827 108.4L154.125 108.362L154.141 111.423L143.524 111.478L143.445 96.4265Z" fill="white"/>
<path d="M156.508 96.3595L161.487 96.3327C162.644 96.3214 163.799 96.4507 164.925 96.7178C165.951 96.9548 166.919 97.3949 167.772 98.0119C168.596 98.6247 169.261 99.4266 169.71 100.35C170.22 101.447 170.47 102.646 170.441 103.855C170.47 104.968 170.239 106.072 169.766 107.08C169.328 107.987 168.697 108.789 167.918 109.427C167.118 110.074 166.204 110.566 165.224 110.876C164.186 111.211 163.103 111.382 162.013 111.382L156.587 111.411L156.508 96.3595ZM159.89 108.333L161.614 108.323C162.333 108.325 163.05 108.242 163.751 108.078C164.368 107.937 164.95 107.67 165.459 107.292C165.949 106.918 166.337 106.426 166.589 105.863C166.881 105.182 167.019 104.444 166.994 103.703C167.006 103.038 166.86 102.379 166.568 101.781C166.302 101.252 165.917 100.792 165.444 100.436C164.948 100.072 164.387 99.8044 163.791 99.6482C163.143 99.4722 162.473 99.3861 161.801 99.3926L159.843 99.4033L159.89 108.333Z" fill="white"/>
<path d="M186.156 110.192C185.193 110.703 184.164 111.081 183.099 111.315C182.03 111.548 180.939 111.668 179.845 111.672C178.736 111.689 177.633 111.508 176.587 111.137C175.628 110.795 174.749 110.26 174.005 109.565C173.266 108.867 172.685 108.019 172.299 107.078C171.48 104.974 171.468 102.641 172.265 100.529C172.641 99.5835 173.213 98.729 173.944 98.0218C174.681 97.3194 175.555 96.7759 176.51 96.4249C177.551 96.0414 178.652 95.8483 179.762 95.8549C180.886 95.8381 182.008 95.9785 183.093 96.272C184.092 96.5477 185.01 97.0569 185.773 97.7576L183.445 100.321C183.009 99.8697 182.486 99.5106 181.907 99.2656C181.228 99.0084 180.504 98.8894 179.778 98.9159C179.118 98.9096 178.464 99.0358 177.855 99.287C177.298 99.52 176.796 99.8664 176.381 100.304C175.966 100.75 175.646 101.277 175.443 101.852C175.01 103.11 175.017 104.478 175.463 105.731C175.674 106.299 175.999 106.818 176.417 107.256C176.837 107.69 177.342 108.032 177.902 108.259C178.514 108.504 179.17 108.623 179.829 108.61C180.462 108.619 181.093 108.533 181.701 108.356C182.133 108.228 182.552 108.059 182.952 107.85L182.939 105.405L180.238 105.419L180.222 102.357L186.115 102.326L186.156 110.192Z" fill="white"/>
<path d="M188.914 96.1893L199.147 96.1348L199.164 99.1958L192.249 99.2321L192.264 102.039L198.796 102.004L198.812 105.065L192.28 105.1L192.296 108.162L199.594 108.123L199.61 111.184L188.994 111.241L188.914 96.1893Z" fill="white"/>
<path d="M201.973 96.1243L207.802 96.0944C208.534 96.0863 209.266 96.1573 209.984 96.3061C210.629 96.4342 211.244 96.6831 211.796 97.0398C212.322 97.392 212.749 97.8728 213.037 98.4367C213.367 99.1213 213.528 99.875 213.507 100.635C213.54 101.605 213.253 102.559 212.691 103.35C212.1 104.122 211.233 104.633 210.272 104.777L214.136 111.113L210.157 111.133L206.977 105.134L205.339 105.143L205.369 111.159L202.052 111.176L201.973 96.1243ZM205.324 102.336L207.282 102.326C207.579 102.324 207.895 102.312 208.228 102.289C208.538 102.271 208.842 102.205 209.131 102.092C209.395 101.989 209.626 101.815 209.799 101.59C209.99 101.309 210.082 100.972 210.059 100.632C210.074 100.311 209.991 99.9925 209.821 99.719C209.669 99.4981 209.463 99.3199 209.222 99.2014C208.96 99.0759 208.679 98.9945 208.391 98.9607C208.087 98.9203 207.782 98.9006 207.475 98.9019L205.305 98.9136L205.324 102.336Z" fill="white"/>
</g>
</g>
<defs>
<clipPath id="clip0_5534_1696">
<rect width="216" height="206.929" fill="white"/>
</clipPath>
<clipPath id="clip1_5534_1696">
<rect width="214" height="49.8356" fill="white" transform="translate(1 79)"/>
</clipPath>
</defs>
</svg>
