<svg width="216" height="207" viewBox="0 0 216 207" fill="none" xmlns="http://www.w3.org/2000/svg">
<g clip-path="url(#clip0_5534_1458)">
<rect width="216" height="206.929" fill="#151517"/>
<path fill-rule="evenodd" clip-rule="evenodd" d="M38.4789 88.5742H38.6304C38.9239 88.6121 39.1795 88.8772 39.1795 89.1802C39.1795 90.4679 39.1795 91.7557 39.1795 93.0434C39.1795 93.3653 38.8955 93.6589 38.5736 93.6589C38.2422 93.6778 37.9392 93.3937 37.9297 93.0623C37.9297 91.7557 37.9297 90.4585 37.9297 89.1518C37.9392 88.8583 38.1853 88.6026 38.4789 88.5742Z" fill="white"/>
<path fill-rule="evenodd" clip-rule="evenodd" d="M30.0718 90.4784C30.3464 90.4122 30.6494 90.5637 30.763 90.8193C31.3217 91.965 31.8709 93.1202 32.4295 94.2754C32.5242 94.4647 32.5053 94.7109 32.3916 94.8908C32.2591 95.0991 31.9939 95.2128 31.7478 95.1654C31.5584 95.137 31.388 95.0045 31.3027 94.834C30.7536 93.6788 30.1949 92.5142 29.6457 91.359C29.551 91.1697 29.5605 90.9329 29.6836 90.753C29.7594 90.611 29.9108 90.5069 30.0718 90.4784Z" fill="white"/>
<path fill-rule="evenodd" clip-rule="evenodd" d="M46.4626 90.477C46.7561 90.4012 47.0781 90.5717 47.1822 90.8557C47.2485 91.0167 47.239 91.1966 47.1633 91.3576C46.633 92.4654 46.1028 93.5827 45.5631 94.6905C45.5063 94.8136 45.4495 94.9462 45.3358 95.0409C45.1086 95.2302 44.7393 95.2302 44.5215 95.0219C44.3132 94.842 44.2564 94.5296 44.37 94.2834C44.9287 93.1187 45.4779 91.9636 46.0365 90.7989C46.1217 90.6379 46.2827 90.5149 46.4626 90.477Z" fill="white"/>
<path fill-rule="evenodd" clip-rule="evenodd" d="M37.7301 95.4584C38.8569 95.3826 40.0026 95.4678 41.1009 95.714C43.487 96.2443 45.6932 97.5509 47.3029 99.3784C47.6627 99.7666 47.9752 100.193 48.2782 100.638C49.4902 102.437 50.1814 104.586 50.2476 106.754C50.3234 108.866 49.8121 110.996 48.7705 112.843C48.3066 113.667 47.7574 114.424 47.1135 115.115C46.8389 115.428 46.517 115.712 46.2045 115.996C44.6517 117.34 42.739 118.278 40.7222 118.657C38.4592 119.083 36.0826 118.836 33.9616 117.927C32.6549 117.369 31.4524 116.573 30.4298 115.589C30.0132 115.182 29.625 114.765 29.2746 114.301C28.3467 113.098 27.646 111.707 27.2483 110.239C26.7181 108.298 26.6992 106.224 27.1915 104.274C27.6744 102.352 28.6592 100.571 30.0132 99.1322C30.2594 98.8481 30.5434 98.602 30.8275 98.3463C32.3519 97.0112 34.2267 96.0738 36.2151 95.6667C36.717 95.5625 37.2283 95.4963 37.7301 95.4584ZM34.454 97.2101C34.2457 97.3048 34.0279 97.39 33.829 97.5036C35.3819 97.4752 36.9158 97.8634 38.3361 98.4694C38.7338 97.7498 39.1788 97.0491 39.7469 96.462C37.9479 96.2632 36.111 96.5189 34.454 97.2101ZM41.1199 96.7082C41.1199 96.7272 41.1199 96.7556 41.1294 96.765C40.9873 96.7461 40.8453 96.7935 40.7222 96.8692C40.495 97.0112 40.3151 97.2195 40.1446 97.4373C39.8416 97.835 39.586 98.2706 39.3587 98.7156C39.3208 98.7819 39.283 98.8387 39.264 98.9144C39.425 98.9902 39.5765 99.0754 39.7375 99.1606C40.4666 99.5678 41.1672 100.032 41.83 100.534C42.0194 100.676 42.2088 100.827 42.3887 100.979C43.0136 101.509 43.6196 102.067 44.1783 102.673C44.699 102.494 45.3145 102.636 45.6838 103.043C45.9015 103.279 46.0436 103.592 46.0625 103.914C46.072 104.103 46.053 104.293 45.9868 104.463L45.9962 104.473C45.9489 104.577 45.911 104.681 45.8447 104.776C46.1099 105.164 46.356 105.561 46.5833 105.959C46.6685 106.092 46.7253 106.234 46.8105 106.366C47.0567 105.808 47.265 105.239 47.4165 104.652C47.4733 104.444 47.5207 104.226 47.5586 104.018C47.7195 103.156 47.7574 102.247 47.4923 101.405C47.4165 101.168 47.3218 100.941 47.1609 100.742C46.962 100.486 46.7727 100.221 46.5359 99.9938C46.5265 99.9654 46.5075 99.937 46.4791 99.9181C45.8069 99.1795 45.0304 98.5262 44.1688 98.0054C43.506 97.5793 42.7769 97.2479 42.0383 96.9923C41.7448 96.8787 41.4324 96.784 41.1199 96.7082ZM32.3803 98.6966C31.9069 98.8576 31.4524 99.1038 31.0831 99.4352C30.9316 99.5867 30.7801 99.7287 30.6476 99.8897C30.5624 99.956 30.4961 100.051 30.4203 100.126C29.8143 100.827 29.303 101.604 28.8959 102.437C28.11 104.027 27.7312 105.827 27.8165 107.607C27.8259 107.957 27.8543 108.317 27.9112 108.658C27.9017 108.781 27.9964 108.885 28.0816 108.961C28.2899 109.131 28.555 109.216 28.8107 109.292C29.0569 109.358 29.2841 109.406 29.5208 109.444C30.1742 109.548 30.837 109.586 31.4998 109.605L31.5092 109.595V109.576C31.5187 109.586 31.5282 109.595 31.5282 109.595C31.6986 109.614 31.8596 109.605 32.03 109.605C32.9958 109.605 33.9616 109.557 34.9179 109.472C35.1073 108.402 35.3346 107.332 35.5713 106.262C35.2872 106.082 35.0694 105.817 34.9274 105.514C34.8801 105.4 34.8327 105.277 34.8043 105.154C34.6812 104.586 34.8517 103.961 35.2588 103.545C35.5713 103.223 36.0068 103.014 36.4519 102.995C36.7833 101.954 37.1525 100.931 37.5976 99.937C37.6922 99.7287 37.7869 99.5204 37.8816 99.3216C37.0578 98.9618 36.1962 98.6872 35.3156 98.5357C34.3498 98.3842 33.3272 98.3747 32.3803 98.6966ZM38.8379 99.7855C38.3361 100.922 37.9006 102.096 37.5123 103.27C37.9384 103.545 38.2414 103.999 38.3172 104.491C38.3361 104.605 38.3456 104.719 38.3361 104.832C38.3172 105.306 38.1089 105.76 37.7585 106.073C37.4366 106.366 37.001 106.546 36.5655 106.537C36.3382 107.474 36.1299 108.411 35.9595 109.358C36.3288 109.32 36.698 109.273 37.0768 109.226C37.1241 108.866 37.3324 108.535 37.6354 108.326C37.9479 108.108 38.3456 108.042 38.7149 108.146C39.0841 108.241 39.3966 108.506 39.5576 108.856C39.9363 108.79 40.3056 108.724 40.6843 108.648C40.6843 108.639 40.6938 108.62 40.6938 108.62L40.6843 108.658C40.8358 108.629 40.9873 108.601 41.1388 108.563C42.8337 108.213 44.5097 107.796 46.1477 107.209C45.8258 106.565 45.466 105.95 45.0588 105.363C44.6706 105.476 44.2351 105.419 43.8942 105.202C43.5912 105.012 43.364 104.709 43.2787 104.368C43.2409 104.236 43.2314 104.094 43.2314 103.961C43.2314 103.734 43.2977 103.507 43.4113 103.308C43.061 102.929 42.6917 102.569 42.3129 102.219C42.1425 102.067 41.9721 101.916 41.7922 101.764C40.8737 101.016 39.889 100.335 38.8379 99.7855ZM48.5338 104.179C48.4959 104.425 48.4391 104.662 48.3918 104.899C48.2592 105.448 48.0699 105.987 47.8521 106.518C48.0793 106.414 48.2971 106.29 48.5054 106.158C48.7043 106.025 48.9126 105.883 49.0641 105.694C49.1303 105.609 49.1872 105.505 49.1493 105.4C49.0925 105.022 49.0073 104.652 48.9031 104.283C48.8273 103.999 48.7327 103.715 48.6285 103.44C48.6001 103.677 48.5812 103.933 48.5338 104.179ZM47.4449 107.749C47.9468 109.017 48.2687 110.381 48.2498 111.754C48.9978 110.201 49.3576 108.468 49.2818 106.754C48.7232 107.171 48.0793 107.474 47.4449 107.749ZM45.7122 108.374C44.112 108.885 42.4834 109.273 40.8358 109.614C40.6749 109.642 40.5139 109.68 40.3529 109.709C40.0973 109.756 39.8511 109.803 39.5954 109.841C39.5008 110.125 39.3019 110.371 39.0557 110.523C38.7433 110.722 38.3456 110.769 37.9858 110.665C37.7017 110.58 37.4555 110.4 37.2851 110.154C36.7833 110.21 36.2909 110.267 35.7891 110.315C35.6376 111.252 35.5145 112.189 35.4292 113.127C35.4198 113.288 35.4008 113.449 35.3914 113.61C35.3535 114.149 35.3346 114.689 35.3535 115.238C35.9595 115.144 36.5655 115.002 37.1525 114.822C37.3703 114.755 37.5881 114.68 37.7964 114.604C38.0331 114.519 38.2793 114.434 38.5065 114.329C38.7717 114.225 39.0273 114.112 39.283 113.988C40.1067 113.6 40.9021 113.127 41.6501 112.606C41.6123 112.483 41.5744 112.36 41.5649 112.227C41.4986 111.659 41.7827 111.063 42.2656 110.76C42.7296 110.457 43.364 110.438 43.8469 110.712C44.5381 110.002 45.1725 109.216 45.7122 108.374ZM46.7253 108.639C46.0909 109.642 45.324 110.561 44.4907 111.404C44.6801 111.801 44.6896 112.284 44.5097 112.691C44.3676 113.023 44.1025 113.297 43.7711 113.449C43.2882 113.685 42.6727 113.648 42.2277 113.335C41.2335 114.055 40.173 114.67 39.0557 115.172C38.6486 115.352 38.232 115.513 37.8153 115.664C37.0389 115.93 36.2435 116.138 35.4292 116.251C35.4671 116.526 35.5334 116.801 35.6376 117.056C35.7228 117.246 35.8364 117.426 36.0163 117.53C36.0163 117.539 36.0163 117.568 36.0163 117.577C36.3572 117.662 36.698 117.729 37.0484 117.776C38.7433 118.013 40.495 117.842 42.1046 117.274C42.5212 117.123 42.9379 116.962 43.3261 116.753C43.487 116.697 43.6291 116.602 43.7806 116.517C44.5665 116.072 45.305 115.532 45.9584 114.907C46.1951 114.689 46.4223 114.462 46.5928 114.197C46.9052 113.733 47.1041 113.193 47.1987 112.644C47.4071 111.479 47.2272 110.277 46.8957 109.15C46.8389 108.97 46.8011 108.8 46.7253 108.639ZM28.2141 110.05C28.3088 110.353 28.4035 110.665 28.5171 110.959C28.7917 111.688 29.1515 112.379 29.5776 113.032C29.7291 113.25 29.8806 113.487 30.0511 113.685L30.0416 113.676C30.212 113.922 30.4109 114.14 30.6097 114.367C30.7139 114.471 30.7991 114.594 30.9222 114.67C31.3672 114.983 31.8974 115.163 32.4277 115.267C33.0716 115.39 33.7249 115.409 34.3688 115.361C34.3214 114.519 34.3782 113.676 34.4445 112.833C34.4634 112.682 34.4824 112.521 34.4918 112.369L34.5013 112.379C34.5676 111.725 34.6623 111.072 34.7664 110.419C34.0847 110.466 33.403 110.504 32.7212 110.513C32.5602 110.513 32.3993 110.523 32.2288 110.523C31.282 110.523 30.3257 110.495 29.3788 110.343C29.1231 110.296 28.858 110.248 28.6118 110.182C28.4793 110.144 28.3467 110.097 28.2141 110.05ZM32.9579 116.299C33.5071 116.64 34.0847 116.924 34.6907 117.16C34.596 116.895 34.5297 116.621 34.4729 116.346C33.9711 116.375 33.4692 116.365 32.9579 116.299Z" fill="white"/>
<path fill-rule="evenodd" clip-rule="evenodd" d="M23.727 96.0372C23.9164 95.9519 24.1436 95.9614 24.3235 96.075C25.3367 96.7 26.3498 97.3344 27.3629 97.9593C27.505 98.054 27.6659 98.1203 27.7606 98.2623C27.9121 98.4801 27.9216 98.7831 27.7701 98.9914C27.5997 99.2565 27.2114 99.3417 26.9463 99.1807C25.8858 98.5274 24.8254 97.8646 23.7743 97.2113C23.6797 97.1545 23.5755 97.0882 23.4997 96.9935C23.424 96.9083 23.3861 96.8041 23.3672 96.6905V96.5295C23.3956 96.3212 23.5282 96.1318 23.727 96.0372Z" fill="white"/>
<path fill-rule="evenodd" clip-rule="evenodd" d="M52.8327 96.008C53.0316 95.9417 53.2683 95.9986 53.4293 96.1406C53.647 96.33 53.7038 96.6708 53.5618 96.917C53.4766 97.078 53.3156 97.1632 53.1641 97.2579C52.1321 97.8923 51.1094 98.5361 50.0774 99.1705C49.9069 99.2842 49.6797 99.2936 49.4903 99.2084C49.2631 99.1043 49.1116 98.8581 49.1305 98.6024C49.14 98.3941 49.2631 98.1953 49.443 98.0911C50.494 97.4378 51.5355 96.7939 52.5866 96.1406C52.6623 96.0932 52.738 96.0364 52.8327 96.008Z" fill="white"/>
<path fill-rule="evenodd" clip-rule="evenodd" d="M41.1176 96.707C41.43 96.7828 41.7425 96.8775 42.0455 96.9816C42.1496 97.313 42.2254 97.6634 42.2727 98.0137C42.9071 97.9474 43.5415 97.938 44.1759 98.0042C45.0281 98.525 45.8045 99.1783 46.4863 99.9169C46.5052 99.9358 46.5242 99.9642 46.5431 99.9926C46.0413 99.5192 45.4069 99.1973 44.7535 99.0079C43.9771 98.7807 43.1628 98.7049 42.358 98.7333C42.4242 99.4813 42.4148 100.229 42.3864 100.977C42.197 100.826 42.0171 100.674 41.8277 100.532C41.8467 99.9453 41.8372 99.3582 41.7898 98.7712C41.0892 98.828 40.4074 98.97 39.7352 99.1594C39.5742 99.0742 39.4227 98.989 39.2617 98.9132C39.2807 98.8469 39.3185 98.7807 39.3564 98.7144C40.1234 98.4303 40.9093 98.222 41.7141 98.0895C41.6667 97.777 41.6099 97.4551 41.4774 97.1615C41.4016 97.0006 41.3069 96.8207 41.1176 96.7733C41.127 96.7544 41.1176 96.726 41.1176 96.707Z" fill="white"/>
<path fill-rule="evenodd" clip-rule="evenodd" d="M33.8825 101.972C35.1039 100.931 36.4485 100.031 37.8972 99.3398C37.8025 99.5482 37.7078 99.747 37.6131 99.9553C36.3538 100.542 35.1702 101.309 34.1097 102.209C34.2612 102.446 34.2802 102.758 34.1571 103.014C34.015 103.326 33.6647 103.525 33.3238 103.478C33.1723 103.468 33.0398 103.402 32.9167 103.336C32.3107 103.97 31.7615 104.652 31.2786 105.39C31.0987 105.674 30.9093 105.958 30.7578 106.261C32.0929 105.816 33.4564 105.476 34.8199 105.173C34.8483 105.296 34.8862 105.419 34.943 105.532C33.8635 105.797 32.7841 106.11 31.7426 106.479C31.3449 106.612 30.9472 106.763 30.5685 106.924C30.9661 107.871 31.468 108.771 32.0456 109.604C31.8751 109.604 31.7142 109.604 31.5437 109.594C31.5343 109.585 31.5248 109.575 31.5248 109.575C31.0324 108.875 30.5874 108.146 30.1992 107.379C29.9151 108.042 29.6784 108.733 29.5364 109.433C29.2997 109.396 29.063 109.348 28.8357 109.282C29.0251 108.629 29.2713 107.985 29.5743 107.379C29.3091 107.511 29.063 107.644 28.8168 107.795C28.5611 107.956 28.3055 108.127 28.0972 108.354C28.0214 108.439 27.9551 108.534 27.9267 108.648C27.8699 108.297 27.8415 107.947 27.832 107.596C28.4475 107.161 29.1292 106.858 29.8299 106.593C29.2807 105.277 28.8925 103.866 28.9115 102.436C29.3091 101.603 29.8299 100.826 30.4359 100.126C30.5117 100.05 30.5779 99.9553 30.6632 99.889C30.5495 100.041 30.4454 100.192 30.3507 100.362C29.9057 101.139 29.7352 102.048 29.7258 102.938C29.7163 104.027 29.9246 105.106 30.2749 106.138C30.9661 105.03 31.7899 104.008 32.7084 103.089C32.6232 102.928 32.5758 102.739 32.6042 102.55C32.6421 102.275 32.822 102.019 33.0777 101.906C33.3238 101.773 33.6458 101.802 33.8825 101.972Z" fill="white"/>
<path fill-rule="evenodd" clip-rule="evenodd" d="M41.7842 101.773C41.9641 101.925 42.1345 102.076 42.3049 102.228C42.2481 102.843 42.1724 103.449 42.0777 104.055C42.4564 104.018 42.8447 103.999 43.2234 103.97C43.2139 104.112 43.2329 104.245 43.2707 104.377C42.8541 104.396 42.447 104.406 42.0304 104.434C41.9925 104.519 41.9925 104.633 41.9735 104.728C41.9167 105.059 41.8599 105.39 41.7936 105.712C41.9357 105.788 42.0588 105.911 42.144 106.063C42.2955 106.337 42.2671 106.707 42.0777 106.953C41.9357 107.152 41.699 107.265 41.4622 107.284C41.3581 107.71 41.2539 108.146 41.1403 108.572C40.9888 108.6 40.8373 108.629 40.6858 108.667L40.6953 108.629C40.8278 108.155 40.9509 107.682 41.0456 107.199C40.7994 107.076 40.6195 106.839 40.5911 106.565C40.5438 106.243 40.6953 105.911 40.9699 105.741C41.0835 105.665 41.2161 105.627 41.3486 105.618C41.4149 105.229 41.4717 104.851 41.5191 104.463C41.2161 104.481 40.9131 104.51 40.6101 104.548C40.5722 104.69 40.5059 104.832 40.3828 104.926C40.2029 105.087 39.9283 105.125 39.7105 105.031C39.559 104.974 39.436 104.841 39.3697 104.699C39.0288 104.747 38.6879 104.794 38.3471 104.851C38.3471 104.737 38.3376 104.623 38.3281 104.51C38.6595 104.463 38.9909 104.415 39.3223 104.368C39.3507 104.036 39.6727 103.762 40.0135 103.781C40.2692 103.79 40.5059 103.97 40.6006 104.207C40.932 104.169 41.2539 104.141 41.5853 104.103C41.6611 103.336 41.7274 102.559 41.7842 101.773Z" fill="white"/>
<path fill-rule="evenodd" clip-rule="evenodd" d="M46.064 103.902C46.5659 103.912 47.0677 103.94 47.5601 103.997C47.5222 104.215 47.4749 104.423 47.418 104.631C47.0772 104.565 46.7268 104.518 46.386 104.48C46.2534 104.47 46.1303 104.442 45.9978 104.452L45.9883 104.442C46.0546 104.281 46.0735 104.092 46.064 103.902Z" fill="white"/>
<path fill-rule="evenodd" clip-rule="evenodd" d="M48.5327 104.18C48.6557 104.208 48.7788 104.246 48.9019 104.284C49.0061 104.653 49.0818 105.022 49.1481 105.401C49.1008 105.278 48.9871 105.183 48.8735 105.117C48.722 105.022 48.5611 104.956 48.3906 104.899C48.4474 104.653 48.4948 104.416 48.5327 104.18Z" fill="white"/>
<path fill-rule="evenodd" clip-rule="evenodd" d="M40.362 109.708C40.523 109.68 40.6839 109.642 40.8449 109.613C40.4093 111.1 39.9075 112.567 39.2921 113.988C39.0364 114.111 38.7807 114.225 38.5156 114.329C39.2447 112.842 39.8507 111.289 40.362 109.708Z" fill="white"/>
<path fill-rule="evenodd" clip-rule="evenodd" d="M28.612 110.182C28.8676 110.248 29.1233 110.305 29.3789 110.343C29.2937 111.185 29.3505 112.066 29.6346 112.871C29.7387 113.155 29.8713 113.429 30.0323 113.676L30.0417 113.685C29.8618 113.486 29.7198 113.249 29.5683 113.032C29.1422 112.378 28.7824 111.687 28.5078 110.958C28.5362 110.693 28.5741 110.437 28.612 110.182Z" fill="white"/>
<path fill-rule="evenodd" clip-rule="evenodd" d="M32.2266 110.513C32.3875 110.513 32.5485 110.504 32.7189 110.504C32.8231 110.636 32.9367 110.76 33.0409 110.883C33.1924 110.816 33.3533 110.769 33.5238 110.778C33.8362 110.797 34.1298 111.015 34.2339 111.309C34.3286 111.545 34.3002 111.83 34.1676 112.047C34.2813 112.151 34.3854 112.246 34.499 112.35C34.4896 112.511 34.4706 112.663 34.4517 112.814C34.2623 112.644 34.0824 112.483 33.9025 112.303C33.6469 112.464 33.2965 112.473 33.0314 112.312C32.7663 112.161 32.5958 111.839 32.6242 111.536C32.6337 111.394 32.6905 111.252 32.7663 111.129C32.5769 110.939 32.4065 110.731 32.2266 110.513Z" fill="white"/>
<path fill-rule="evenodd" clip-rule="evenodd" d="M35.4023 113.62C35.4118 113.459 35.4213 113.298 35.4402 113.137C36.1788 113.695 36.9741 114.197 37.8074 114.614C37.5896 114.69 37.3813 114.765 37.1635 114.832C36.548 114.462 35.961 114.055 35.4023 113.62Z" fill="white"/>
<path fill-rule="evenodd" clip-rule="evenodd" d="M43.6189 115.853C44.4616 115.749 45.3043 115.455 45.9577 114.906C45.3043 115.541 44.5753 116.071 43.7799 116.516C43.6284 116.592 43.4864 116.686 43.3254 116.753C41.6589 116.772 40.0303 116.289 38.5343 115.579C38.1177 116.364 37.6632 117.131 37.0477 117.775C36.6974 117.728 36.3565 117.662 36.0156 117.576C36.0156 117.567 36.0156 117.539 36.0156 117.529C36.1008 117.567 36.1955 117.567 36.2713 117.539C36.4607 117.472 36.6027 117.33 36.7447 117.188C37.1708 116.734 37.4927 116.194 37.8052 115.664C38.2218 115.522 38.6384 115.351 39.0456 115.171C39.4527 115.323 39.8694 115.465 40.286 115.569C41.3843 115.853 42.5111 115.995 43.6189 115.853Z" fill="white"/>
<path fill-rule="evenodd" clip-rule="evenodd" d="M57.9102 95.1367H66.6024V96.6422H57.9102V95.1367ZM82.3013 95.1367H89.1093L89.6395 96.6422H82.3108V95.1367H82.3013ZM89.952 97.5607L90.4822 99.0662H84.8011H82.3013V97.5607H89.952ZM90.7947 99.9752L91.3249 101.481H84.7916V99.9752H90.7947ZM91.5901 102.248L91.9404 103.251L92.2718 102.248H99.0797V103.753H95.5195V102.778L95.1976 103.753H88.6643L88.3613 102.882V103.753H84.7916V102.248H91.5901V102.248ZM92.5275 101.481L93.0198 99.9752H99.0797V101.481H92.5275ZM93.3228 99.0662L93.8152 97.5607H101.456V99.0662H99.0797H93.3228ZM94.1182 96.6422L94.6106 95.1367H101.456V96.6422H94.1182ZM99.0797 104.757V106.262H95.5195V104.757H99.0797ZM99.0797 107.077V108.582H95.5195V107.077H99.0797ZM99.0797 109.396H101.456V110.902H95.5195V109.396H99.0797ZM101.456 111.716V113.222H95.5195V111.716H101.456ZM94.8662 104.757L94.3738 106.262H89.5448L89.0146 104.757H94.8662ZM94.0992 107.077L93.6069 108.582H90.3591L89.8289 107.077H94.0992ZM93.3418 109.396L92.8494 110.902H91.1734L90.6432 109.396H93.3418ZM92.5748 111.716L92.0351 113.364L91.4575 111.716H92.5748ZM88.3613 104.757V106.262H84.7916V104.757H88.3613ZM88.3613 107.077V108.582H84.7916V107.077H88.3613ZM88.3613 109.396V110.902H82.3013V109.396H84.8011H88.3613ZM88.3613 111.716V113.222H82.3013V111.716H88.3613ZM67.7102 95.1367H76.2982C77.9363 95.1367 79.1672 95.7427 79.9815 96.6422H67.7102V95.1367ZM80.6065 97.5607C80.8526 98.0341 81.0231 98.536 81.1178 99.0662H70.0489H67.7007V97.5607H80.6065ZM81.1935 99.9752C81.1935 100.534 81.1178 101.036 80.9852 101.481H77.3587V99.9752H81.1935ZM73.8553 101.481H70.0489V99.9752H73.8553V101.481V101.481ZM80.6917 102.248C80.3792 102.882 79.9531 103.374 79.527 103.753H70.0489V102.248H80.6917V102.248ZM79.6312 104.757C80.0099 105.126 80.4266 105.637 80.758 106.262H70.0489V104.757H79.6312ZM81.1083 107.077C81.2598 107.531 81.3545 108.033 81.3545 108.582H77.3777V107.077H81.1083ZM73.8553 108.582H70.0489V107.077H73.8553V108.582V108.582ZM81.2787 109.396C81.1935 109.946 81.0136 110.447 80.7674 110.902H67.7007V109.396H70.0489H81.2787ZM80.2088 111.716C79.3755 112.663 78.1541 113.222 76.819 113.222H67.7007V111.716H80.2088ZM66.6024 97.5607V99.0662H64.1689H60.3436H57.9102V97.5607H66.6024ZM64.1689 99.9752V101.481H60.3436V99.9752H64.1689ZM64.1689 102.248V103.753H60.3436V102.248H64.1689V102.248ZM64.1689 104.757V106.262H60.3436V104.757H64.1689ZM64.1689 107.077V108.582H60.3436V107.077H64.1689ZM64.1689 109.396H66.6024V110.902H57.9102V109.396H60.3436H64.1689ZM66.6024 111.716V113.222H57.9102V111.716H66.6024Z" fill="white"/>
<path fill-rule="evenodd" clip-rule="evenodd" d="M109.636 113.127L104.816 94.8809H108.869L111.747 107.294L114.891 94.8809H118.707L121.879 107.114L124.776 94.8809H128.782L123.981 113.127H119.909L116.851 100.732L113.783 113.127H109.636Z" fill="white"/>
<path fill-rule="evenodd" clip-rule="evenodd" d="M137.733 111.838C136.975 113.031 134.106 113.893 131.682 113.268C130.063 112.851 128.832 111.724 128.832 109.452C128.832 107.388 129.968 106.431 131.284 105.939C132.828 105.361 134.826 105.286 136.151 105.039C137.193 104.85 137.562 104.556 137.562 103.534C137.562 102.275 136.426 101.924 135.337 101.972C133.841 102.028 132.96 102.606 132.96 103.988H129.258C129.258 102.606 129.874 101.536 130.811 100.797C131.928 99.9168 133.51 99.5097 135.072 99.5002C137.619 99.4907 141.283 99.7937 141.302 103.326L141.35 111.327C141.35 112.084 141.596 112.756 141.861 113.135L137.979 113.107L137.733 111.838ZM137.609 106.696C136.88 107.302 134.968 107.359 133.917 107.672C133.102 107.918 132.525 108.401 132.525 109.3C132.525 110.408 133.197 111.033 134.854 111.024C136.199 111.014 137.609 110.2 137.609 108.259V106.696V106.696Z" fill="white"/>
<path fill-rule="evenodd" clip-rule="evenodd" d="M151.337 113.289C150.447 113.355 149.557 113.365 148.667 113.365C147.531 113.365 146.594 113.128 145.959 112.645C145.164 112.048 144.975 111.348 144.965 109.833L144.937 102.381H142.73V99.9002H144.937V95.9707H148.639V99.9002H151.328V102.381H148.639L148.658 109.397C148.658 109.861 148.857 110.174 149.198 110.287C149.756 110.477 150.731 110.429 151.347 110.391L151.337 113.289Z" fill="white"/>
<path fill-rule="evenodd" clip-rule="evenodd" d="M152.414 108.817H155.908C155.984 110.37 157.3 110.976 158.569 111.014C159.979 111.051 161.04 110.36 161.04 109.451C161.04 108.864 160.614 108.4 159.79 108.097C158.749 107.709 157.129 107.491 155.813 107.075C154.838 106.762 154.052 106.459 153.512 105.882C152.793 105.115 152.613 104.045 152.793 103.013C152.944 102.17 153.314 101.356 153.929 100.806C155.037 99.8406 156.722 99.4902 158.351 99.4902C159.979 99.4902 161.693 99.8311 162.669 100.589C163.691 101.384 164.297 102.331 164.297 103.789H160.813C160.746 102.359 159.506 101.98 158.351 101.99C157.328 101.999 156.362 102.255 156.362 103.287C156.362 103.865 157.063 104.281 157.84 104.518C158.947 104.859 160.443 105.029 161.892 105.493C163.473 106.005 164.733 106.98 164.733 108.93C164.733 110.237 164.184 111.279 163.473 111.979C162.309 113.144 160.529 113.494 158.682 113.485C156.817 113.475 155.132 113.087 154.175 112.32C153.048 111.449 152.414 110.275 152.414 108.817Z" fill="white"/>
<path fill-rule="evenodd" clip-rule="evenodd" d="M169.667 106.528C169.667 107.882 169.941 108.933 170.5 109.672C171.059 110.411 171.844 110.751 172.876 110.751C173.89 110.751 174.666 110.411 175.225 109.672C175.783 108.933 176.058 107.882 176.058 106.528C176.058 105.184 175.783 104.133 175.234 103.404C174.685 102.665 173.918 102.324 172.905 102.324C171.882 102.324 171.058 102.665 170.509 103.404C169.951 104.133 169.667 105.174 169.667 106.528ZM166.012 106.557C166.012 104.407 166.618 102.713 167.839 101.482C169.051 100.251 170.718 99.5879 172.848 99.5879C174.96 99.5879 176.636 100.251 177.848 101.482C179.069 102.713 179.675 104.407 179.675 106.557C179.675 108.725 179.069 110.42 177.848 111.651C176.626 112.882 174.96 113.545 172.848 113.545C170.727 113.545 169.051 112.882 167.839 111.651C166.618 110.411 166.012 108.716 166.012 106.557Z" fill="white"/>
<path fill-rule="evenodd" clip-rule="evenodd" d="M181.379 113.128V99.9097H184.863V101.747C185.99 100.071 187.448 99.5215 189.048 99.5215C192.088 99.5215 193.802 100.97 193.802 104.464V113.137H190.09V105.468C190.09 103.905 189.654 102.485 187.893 102.485C186.132 102.485 185.1 103.489 185.1 105.847V113.147H181.379V113.128Z" fill="white"/>
</g>
<defs>
<clipPath id="clip0_5534_1458">
<rect width="216" height="206.929" fill="white"/>
</clipPath>
</defs>
</svg>
