<svg width="100" height="100" viewBox="0 0 100 100" fill="none" xmlns="http://www.w3.org/2000/svg">
<path d="M97.049 97.846C96.5435 98.6641 95.8174 98.9306 94.8614 98.9214C88.0046 98.8939 81.1385 98.9123 74.2816 98.9031C72.6823 98.9031 72.1308 98.3608 72.1308 96.7523C72.1308 84.5183 72.1308 72.2936 72.1308 60.0597C72.1308 58.4604 72.7467 57.8445 74.3644 57.8353C76.8461 57.817 79.337 57.8078 81.8187 57.8353C82.6459 57.8445 82.9492 57.5504 82.8941 56.7416C82.8389 56.0154 82.8389 55.2801 82.8941 54.554C82.9492 53.7543 82.6183 53.5337 81.8554 53.5429C76.8553 53.5705 71.8459 53.5521 66.8457 53.5521C62.1396 53.5521 57.4336 53.5521 52.7275 53.5521C51.839 53.5521 51.3947 54.0117 51.3947 54.9308C51.3947 55.5283 51.4407 56.1257 51.3856 56.7232C51.2936 57.6239 51.6889 57.8537 52.5345 57.8353C54.9519 57.7894 57.3692 57.817 59.7958 57.8262C61.6433 57.8262 62.2683 58.4328 62.2683 60.2711C62.2683 72.3396 62.2683 84.3988 62.2683 96.4673C62.2683 98.3516 61.6984 98.9031 59.8418 98.9031C53.0768 98.9031 46.321 98.9031 39.5561 98.9031C37.8189 98.9031 37.2214 98.3424 37.2122 96.5868C37.203 84.454 37.203 72.3212 37.2122 60.1976C37.2122 58.4787 37.8556 57.8445 39.5653 57.8353C42.047 57.817 44.5379 57.8078 47.0196 57.8445C47.8468 57.8537 48.1501 57.5688 48.0858 56.7507C48.0307 56.0246 48.0307 55.2893 48.0858 54.5632C48.1501 53.7635 47.8284 53.5429 47.0564 53.5429C41.9826 53.5705 36.9181 53.5613 31.8444 53.5521C27.1751 53.5521 22.4966 53.5797 17.8273 53.5245C16.7979 53.5153 16.4578 53.837 16.5681 54.8297C16.6324 55.4547 16.6324 56.089 16.5681 56.714C16.4854 57.6147 16.8806 57.8445 17.7262 57.8353C20.116 57.7894 22.4966 57.817 24.8864 57.8262C26.7707 57.8262 27.3314 58.3868 27.3314 60.2343C27.3314 72.3304 27.3314 84.4264 27.3314 96.5225C27.3314 98.4067 26.8534 98.8939 24.9967 98.8939C18.2317 98.8939 11.476 98.8939 4.71102 98.8939C2.88191 98.8939 2.36719 98.37 2.36719 96.5133C2.36719 84.4448 2.36719 72.3855 2.36719 60.3171C2.36719 58.4052 2.95544 57.8262 4.86728 57.817C7.15597 57.817 9.44466 57.817 11.7242 57.817C12.6556 57.817 13.1243 57.3329 13.1305 56.3647C13.1305 55.0687 13.1213 53.7819 13.1305 52.4859C13.1488 50.8038 13.7371 50.2248 15.41 50.2248C25.8515 50.2248 36.2931 50.2248 46.7255 50.2248C47.6201 50.2248 48.0705 49.7683 48.0766 48.8552C48.0766 48.46 48.0582 48.0556 48.0766 47.6603C48.141 46.732 48.1501 45.9415 46.9093 45.6933C46.1372 45.5371 45.8982 44.6731 45.7144 43.9745C45.3743 42.6877 44.7125 41.8605 43.3154 41.5847C42.286 41.3825 41.3117 40.8862 40.4109 40.3255C39.841 39.9762 39.3171 39.9578 38.7288 40.252C35.6221 41.7686 35.7875 41.4652 33.5724 39.2409C31.3297 36.989 30.9436 37.2096 32.5338 33.919C32.7911 33.3859 32.7543 32.9447 32.451 32.43C31.7433 31.2259 31.2102 29.9299 30.8609 28.5879C30.6954 27.9721 30.3737 27.6412 29.7947 27.4298C26.5041 26.2165 26.8166 26.2992 26.8166 22.9903C26.8166 19.6997 26.5133 19.7549 29.8039 18.5692C30.3462 18.3761 30.6771 18.0728 30.8333 17.4846C31.1918 16.1334 31.7249 14.8466 32.4235 13.6425C32.736 13.1094 32.7911 12.6314 32.5154 12.0616C30.9896 8.85373 31.2653 9.05594 33.5632 6.73048C36.1093 4.13848 35.8795 4.50614 38.738 5.75618C39.3355 6.01355 39.8226 6.05031 40.4017 5.68265C41.4679 5.00248 42.6536 4.52452 43.8669 4.2212C44.7493 4.0006 45.1813 3.49507 45.4754 2.68621C45.7971 1.76706 45.9809 0.728421 46.9644 0.195312H52.5345C53.518 0.728421 53.6926 1.77625 54.0235 2.68621C54.3085 3.50426 54.7497 4.0006 55.632 4.2212C56.8177 4.51533 57.9667 4.99329 59.0145 5.63669C59.6579 6.03193 60.191 6.03193 60.8528 5.71942C63.5092 4.49694 63.3989 4.14767 65.9265 6.72129C68.3715 9.203 68.3899 9.02836 66.9744 12.0616C66.7078 12.6314 66.7538 13.1094 67.0663 13.6425C67.7648 14.8466 68.3071 16.1334 68.6564 17.4846C68.8127 18.0728 69.1344 18.3761 69.6767 18.5784C72.9948 19.7549 72.6639 19.7641 72.6731 22.9903C72.6823 26.3452 72.8753 26.2625 69.7043 27.439C69.1252 27.6504 68.7759 27.9629 68.6288 28.5971C68.3715 29.6633 68.0406 30.7387 67.434 31.6395C66.6619 32.7884 66.7905 33.7627 67.3788 34.9301C68.2796 36.7132 68.1417 37.0349 66.6986 38.478C66.3677 38.8089 66.046 39.1306 65.7151 39.4615C63.647 41.5296 63.6379 41.548 60.9631 40.3439C60.2278 40.013 59.6303 40.013 58.9134 40.4266C58.0586 40.9138 57.1394 41.3917 56.1927 41.6031C54.814 41.8972 54.1062 42.6785 53.7754 43.9837C53.6007 44.6823 53.3525 45.5463 52.5896 45.7117C51.3856 45.9691 51.3212 46.7136 51.4039 47.6695C51.4407 48.0923 51.4039 48.5335 51.4039 48.9563C51.4039 49.8142 51.8451 50.2462 52.7275 50.2523C63.1599 50.2523 73.5923 50.2523 84.0246 50.2523C85.7618 50.2523 86.3317 50.8222 86.3501 52.5686C86.3593 53.8922 86.4052 55.2249 86.3317 56.5393C86.2766 57.5228 86.5707 57.8905 87.6093 57.8537C89.9899 57.7802 92.3797 57.8537 94.7603 57.8262C95.7806 57.817 96.5711 58.1387 97.0582 59.067V97.846H97.049ZM49.7495 42.4947C50.4848 42.651 50.8525 42.2833 51.0455 41.6123C51.1742 41.1711 51.3764 40.7483 51.5326 40.3071C51.8084 39.5626 52.3415 39.1122 53.1136 38.9468C55.0438 38.5423 56.8453 37.807 58.509 36.7316C59.2443 36.2628 59.9888 36.1985 60.7701 36.557C61.2205 36.7592 61.6801 36.9522 62.1304 37.1636C62.5716 37.375 62.9209 37.3291 63.3161 37.0074C64.0055 36.4559 64.2721 35.8768 63.739 35.0588C62.8474 33.6984 62.8658 32.4024 63.8676 31.0329C64.6213 29.9942 65.1728 28.7626 65.3659 27.4849C65.614 25.7477 66.5148 24.7275 68.1968 24.3598C69.0425 24.176 69.2355 23.6245 69.2171 22.8248C69.1987 22.0344 68.73 21.777 68.1233 21.6299C66.5332 21.2439 65.6508 20.3064 65.4026 18.6427C65.2188 17.3927 64.7316 16.1702 63.9871 15.1683C62.875 13.6885 62.8474 12.2822 63.8033 10.7748C64.2169 10.1313 64.0699 9.67177 63.5276 9.14785C63.0128 8.64232 62.5624 8.54121 61.965 8.91807C60.5127 9.82803 59.1524 9.90156 57.6634 8.80777C56.4409 7.907 54.9427 7.42904 53.4353 7.1441C52.3782 6.94189 51.7073 6.39959 51.3947 5.37014C51.2845 4.99329 51.073 4.63482 50.9719 4.25797C50.7881 3.58698 50.3561 3.43073 49.7127 3.43073C49.0509 3.43073 48.6465 3.62375 48.4627 4.27635C48.3707 4.62563 48.1777 4.94733 48.0766 5.29661C47.7641 6.35363 47.0931 6.94189 45.9901 7.15329C44.3449 7.46581 42.7823 8.07245 41.4128 9.00998C40.2454 9.81884 39.1792 9.8556 38.0027 9.16624C37.8005 9.04675 37.5707 8.9916 37.3777 8.86292C36.7802 8.47687 36.3574 8.71585 35.9162 9.17543C35.4842 9.61662 35.1717 9.99347 35.5761 10.6277C35.7875 10.9586 35.8703 11.3722 36.0633 11.7123C36.5964 12.659 36.5045 13.5138 35.8979 14.4054C35.043 15.6738 34.3261 17.0618 34.0779 18.5692C33.793 20.2512 32.9566 21.2163 31.3205 21.6575C30.2726 21.9425 30.052 22.4939 30.2818 23.5326C30.4657 24.369 31.2745 24.3598 31.8444 24.5528C33.0393 24.9573 33.7103 25.6558 33.9309 26.9243C34.1882 28.4041 34.7305 29.838 35.5945 31.0421C36.5872 32.43 36.5321 33.68 35.7232 35.0863C35.1717 36.0514 35.3923 36.5294 36.3023 37.136C36.8721 37.5221 37.3133 37.136 37.7821 36.9338C38.8208 36.4651 39.8134 35.9595 40.9624 36.7224C42.6077 37.8162 44.4184 38.524 46.3578 38.9376C47.1391 39.103 47.6538 39.5626 47.9295 40.3071C48.0858 40.7391 48.288 41.1619 48.4259 41.6123C48.6373 42.2833 49.0325 42.6234 49.7587 42.4763L49.7495 42.4947ZM40.6407 78.3508C40.6407 83.6819 40.6591 89.0222 40.6223 94.3533C40.6223 95.2816 40.8521 95.6125 41.8356 95.6033C47.0655 95.5574 52.3047 95.5574 57.5347 95.6033C58.5182 95.6033 58.8399 95.3643 58.8399 94.3349C58.8031 83.7371 58.8031 73.13 58.8399 62.5322C58.8399 61.4844 58.4906 61.2638 57.5255 61.273C52.3231 61.3189 47.1207 61.3189 41.9183 61.273C40.9256 61.273 40.6039 61.5211 40.6131 62.5506C40.6591 67.8173 40.6315 73.0841 40.6315 78.3508H40.6407ZM5.81401 78.3508C5.81401 83.6819 5.83239 89.0222 5.79562 94.3533C5.79562 95.2908 6.0438 95.6125 7.0181 95.6033C12.2205 95.5574 17.4229 95.5574 22.6253 95.6033C23.6547 95.6125 23.9121 95.2724 23.9029 94.2889C23.8753 83.7187 23.8753 73.1484 23.9029 62.5782C23.9029 61.5947 23.6272 61.2546 22.6161 61.2638C17.4505 61.3097 12.2756 61.2822 7.11001 61.2822C5.8232 61.2822 5.81401 61.2822 5.81401 62.6333C5.81401 67.8725 5.81401 73.1025 5.81401 78.3416V78.3508ZM93.6482 78.4887C93.6482 73.1852 93.6298 67.8817 93.6665 62.5874C93.6665 61.6039 93.4092 61.273 92.3889 61.2822C87.2233 61.3281 82.0485 61.3281 76.8828 61.2822C75.9085 61.2822 75.5501 61.5211 75.5592 62.5598C75.596 73.1668 75.5868 83.7646 75.5592 94.3716C75.5592 95.3184 75.8442 95.6217 76.8001 95.6125C82.0025 95.5757 87.2049 95.5665 92.4073 95.6125C93.4551 95.6217 93.6757 95.2632 93.6665 94.2981C93.6298 89.0314 93.6482 83.7646 93.6482 78.4887Z" fill="white"/>
<path d="M60.7516 22.9899C60.7516 29.139 55.8618 34.0565 49.7494 34.0657C43.6186 34.0657 38.7196 29.1666 38.7012 23.0359C38.692 16.9327 43.637 11.9325 49.7034 11.9141C55.7606 11.8957 60.7516 16.8959 60.7516 22.9899ZM49.6942 30.6189C53.9591 30.628 57.3967 27.2731 57.4151 23.0634C57.4335 18.8721 53.9959 15.3793 49.8137 15.3609C45.5489 15.3425 42.0745 18.7526 42.0469 22.9991C42.0193 27.1904 45.4478 30.6097 49.6942 30.6189Z" fill="white"/>
<path d="M55.1818 88.5682C55.1818 91.6198 52.7093 94.0923 49.7037 94.0647C46.6705 94.0372 44.2623 91.583 44.2715 88.5223C44.2807 85.4339 46.6705 83.0625 49.7497 83.0625C52.8196 83.0625 55.191 85.4707 55.1818 88.5682ZM49.6853 86.5185C48.5364 86.5369 47.5805 87.4928 47.6172 88.5958C47.6632 89.7263 48.6375 90.6455 49.7588 90.6271C50.8894 90.6087 51.8361 89.6436 51.8269 88.5223C51.8177 87.4101 50.8526 86.5093 49.6853 86.5277V86.5185Z" fill="white"/>
<path d="M49.62 69.6536C48.0022 69.6536 46.3753 69.6628 44.7576 69.6536C43.4892 69.6352 42.7355 69.001 42.7171 67.9716C42.6987 66.9605 43.4708 66.2252 44.7117 66.216C48.0574 66.1884 51.4031 66.1884 54.7396 66.216C55.9805 66.2252 56.7434 66.9513 56.725 67.9716C56.7066 69.001 55.9529 69.6444 54.6845 69.6536C52.9932 69.672 51.3112 69.6536 49.62 69.6536Z" fill="white"/>
<path d="M49.7761 73.9222C51.4306 73.9222 53.0851 73.913 54.7396 73.9222C55.9528 73.9314 56.6973 74.5473 56.7341 75.5307C56.7709 76.4959 56.0539 77.2955 54.8866 77.3139C51.449 77.3691 48.0114 77.3691 44.5737 77.3139C43.388 77.2955 42.6803 76.4959 42.7354 75.5307C42.7906 74.5289 43.5075 73.9314 44.73 73.9222C46.412 73.9038 48.1033 73.9222 49.7853 73.9222H49.7761Z" fill="white"/>
<path d="M14.8207 83.0625C17.8723 83.0625 20.3357 85.4982 20.3448 88.5223C20.3448 91.5279 17.8723 94.0372 14.8667 94.0739C11.953 94.1107 9.32422 91.5003 9.32422 88.5682C9.32422 85.5534 11.8059 83.0717 14.8207 83.0717V83.0625ZM16.8796 88.5498C16.8888 87.3182 16.0708 86.5001 14.8299 86.5093C13.6442 86.5093 12.8262 87.309 12.7894 88.4855C12.7527 89.6436 13.6442 90.5904 14.8024 90.6179C15.9421 90.6547 16.8705 89.7355 16.8796 88.5498Z" fill="white"/>
<path d="M14.7205 69.6559C13.1303 69.6559 11.5402 69.6651 9.95927 69.6559C8.61731 69.6467 7.84522 68.9941 7.8636 67.9371C7.88199 66.8709 8.63569 66.2183 9.97765 66.2091C13.2498 66.1907 16.5312 66.1907 19.8034 66.2091C21.035 66.2091 21.8531 66.9168 21.8899 67.8911C21.9174 68.9022 21.0626 69.6375 19.7942 69.6559C18.103 69.6743 16.4209 69.6559 14.7297 69.6559H14.7205Z" fill="white"/>
<path d="M14.8216 77.3544C13.2683 77.3544 11.7149 77.3636 10.1615 77.3544C9.52731 77.3544 8.8931 77.2992 8.39675 76.8397C7.85446 76.3433 7.71658 75.6907 7.96475 75.0289C8.24969 74.266 8.85633 73.926 9.67438 73.926C12.5146 73.926 15.3639 73.926 18.2041 73.926C18.8016 73.926 19.399 73.9168 19.9873 73.926C21.0902 73.9627 21.8439 74.6245 21.8715 75.562C21.8991 76.4628 21.2649 77.2257 20.1711 77.2809C18.3879 77.3636 16.6048 77.3084 14.8216 77.3084C14.8216 77.3268 14.8216 77.3452 14.8216 77.3636V77.3544Z" fill="white"/>
<path d="M79.0977 88.4947C79.1069 85.4707 81.5794 83.0533 84.6402 83.0625C87.6458 83.0717 90.1367 85.5902 90.1183 88.5958C90.0907 91.5371 87.4528 94.1291 84.5483 94.074C81.5334 94.0096 79.0885 91.5095 79.0977 88.4947ZM84.5666 86.5185C83.3258 86.5369 82.5261 87.3642 82.5629 88.605C82.5905 89.7356 83.4912 90.6271 84.585 90.6179C85.7432 90.6179 86.6623 89.6896 86.6531 88.5315C86.6439 87.309 85.7983 86.491 84.5666 86.5093V86.5185Z" fill="white"/>
<path d="M84.6135 69.6545C82.9591 69.6545 81.3046 69.6637 79.6501 69.6545C78.4185 69.6453 77.6004 68.9652 77.5636 67.9817C77.5269 66.9706 78.3817 66.2169 79.6501 66.2169C82.9223 66.1985 86.2037 66.1985 89.4758 66.2169C90.8362 66.2169 91.5715 66.8695 91.5715 67.9449C91.5715 69.0295 90.8362 69.6453 89.4758 69.6545C87.8581 69.6729 86.2312 69.6545 84.6135 69.6545Z" fill="white"/>
<path d="M84.586 77.3563C83.1613 77.3563 81.7458 77.3563 80.3211 77.3563C79.8983 77.3563 79.4571 77.3287 79.0435 77.246C78.106 77.0622 77.5269 76.3544 77.5729 75.5272C77.6188 74.654 78.3266 73.9554 79.2917 73.937C81.0748 73.9003 82.858 73.9187 84.6503 73.9187C86.3324 73.9187 88.0236 73.9095 89.7057 73.9187C90.7995 73.9278 91.498 74.5069 91.5807 75.4261C91.6726 76.4187 91.0752 77.2092 89.9446 77.2644C88.1615 77.3563 86.3783 77.2919 84.5952 77.2919C84.5952 77.3103 84.5952 77.3287 84.5952 77.3563H84.586Z" fill="white"/>
</svg>
