<svg width="100" height="100" viewBox="0 0 100 100" fill="none" xmlns="http://www.w3.org/2000/svg">
<g clip-path="url(#clip0_149_868)">
<path d="M0 47.8595C0.22 47.3495 0.39 46.8195 0.68 46.3495C1.81 44.4995 3.47 43.5695 5.66 43.6995C7.72 43.8195 9.29 44.7895 10.16 46.6395C11.32 49.1095 12.37 51.6395 13.41 54.1595C13.71 54.8795 13.96 55.0895 14.75 54.7195C17.8 53.3295 20.69 53.7595 23.21 55.9295C26.24 58.5595 29.61 60.5795 33.29 62.1695C37.78 64.1095 40.01 67.9295 41.25 72.4395C41.82 74.4995 41.89 76.6195 41.81 78.7295C41.78 79.4895 42 79.8795 42.79 80.1195C44.39 80.6095 45.11 81.8895 45.13 83.4795C45.17 87.8395 45.18 92.1995 45.13 96.5595C45.1 98.7095 43.63 100.059 41.5 100.059C35.51 100.059 29.52 100.059 23.53 100.059C21.32 100.059 19.9 98.6795 19.89 96.4795C19.86 92.1795 19.89 87.8895 19.88 83.5895C19.88 82.9595 19.96 82.3295 20.3 81.8095C20.73 81.1695 20.5 80.7795 20.02 80.3095C16.9 77.2195 13.8 74.0995 10.69 70.9995C9.1 69.4195 7.83 67.6295 6.9 65.5895C4.81 60.9995 2.73 56.4095 0.65 51.8095C0.42 51.2995 0.22 50.7495 0 50.1995C0 49.4195 0 48.6395 0 47.8595ZM31.23 79.8695C33.25 79.8695 35.27 79.8695 37.28 79.8695C37.83 79.8695 38.23 79.8095 38.23 79.0995C38.23 77.1795 38.33 75.2495 37.81 73.3795C36.89 70.0095 35.36 66.9795 31.98 65.4995C27.92 63.7295 24.15 61.5595 20.84 58.5895C19.68 57.5495 18.28 57.2095 16.75 57.6995C15.47 58.1095 15.4 58.2895 16.27 59.2995C18.83 62.2495 21.75 64.8595 24.46 67.6695C24.73 67.9495 25.03 68.2095 25.26 68.5295C25.83 69.2895 25.75 70.1995 25.11 70.8395C24.47 71.4795 23.56 71.5395 22.8 70.9695C22.54 70.7795 22.32 70.5395 22.09 70.3095C19.86 68.0795 17.65 65.8195 15.39 63.6195C13.24 61.5195 11.63 59.0695 10.48 56.2995C9.38 53.6595 8.24 51.0295 7.08 48.4095C6.59 47.2895 5.6 46.8995 4.62 47.3195C3.65 47.7395 3.27 48.7395 3.68 49.8695C3.88 50.4195 4.14 50.9495 4.38 51.4795C6.21 55.5095 8.05 59.5295 9.86 63.5695C10.66 65.3395 11.65 66.9695 13.02 68.3495C16.65 71.9895 20.3 75.6195 23.92 79.2695C24.37 79.7195 24.84 79.9095 25.47 79.8995C27.39 79.8695 29.31 79.8995 31.23 79.8895V79.8695ZM32.51 96.6195C35.18 96.6195 37.85 96.5895 40.51 96.6395C41.33 96.6495 41.57 96.3695 41.56 95.5695C41.53 91.8895 41.53 88.2195 41.56 84.5395C41.56 83.7595 41.35 83.4495 40.52 83.4595C35.18 83.4895 29.85 83.4895 24.51 83.4595C23.69 83.4595 23.44 83.7395 23.45 84.5295C23.48 88.2095 23.49 91.8795 23.45 95.5595C23.44 96.4595 23.78 96.6495 24.6 96.6395C27.23 96.5995 29.87 96.6195 32.51 96.6195V96.6195Z" fill="#727272"/>
<path d="M50.7899 0C54.2699 1.55 57.7399 3.1 61.2199 4.63C65.8899 6.69 70.5699 8.74 75.2599 10.76C76.3599 11.24 76.8199 12 76.8199 13.19C76.7999 21.75 76.8899 30.31 76.7799 38.87C76.7099 44.85 74.2799 49.83 69.4799 53.43C63.7199 57.74 57.8399 61.88 51.9999 66.08C50.6499 67.05 49.3499 67.04 48.0099 66.08C42.1999 61.9 36.3499 57.77 30.6099 53.49C25.6999 49.83 23.2699 44.78 23.2199 38.68C23.1499 30.22 23.2199 21.76 23.1899 13.3C23.1899 12.03 23.6599 11.26 24.8499 10.75C32.6699 7.36 40.4699 3.93 48.2799 0.51C48.6099 0.37 48.9099 0.18 49.2299 0.02C49.7499 0.02 50.2699 0.02 50.7899 0.02V0ZM73.2099 27.35C73.2099 23.15 73.1999 18.95 73.2199 14.76C73.2199 14.04 72.9899 13.65 72.3199 13.36C65.2499 10.29 58.1799 7.21 51.1299 4.09C50.3499 3.75 49.6899 3.74 48.9099 4.09C41.8599 7.2 34.7899 10.29 27.7199 13.36C27.0599 13.64 26.7899 14 26.7899 14.74C26.8199 22.91 26.7499 31.08 26.8299 39.25C26.8699 43.54 28.5499 47.27 31.8899 49.93C37.5599 54.45 43.6099 58.48 49.4699 62.77C49.9399 63.11 50.2899 62.97 50.6899 62.67C56.1699 58.7 61.6999 54.8 67.1399 50.77C71.1599 47.79 73.1799 43.71 73.2099 38.68C73.2299 34.9 73.2099 31.13 73.2099 27.35V27.35Z" fill="#727272"/>
<path d="M67.4593 100.08C64.4993 100.08 61.5393 100.08 58.5793 100.08C56.3693 100.08 54.9093 98.7404 54.8893 96.5404C54.8393 92.1804 54.8493 87.8204 54.8893 83.4604C54.9093 81.6904 55.7893 80.5704 57.4393 80.0604C58.0993 79.8604 58.2093 79.4804 58.1993 78.9104C58.1493 76.5904 58.2093 74.2904 58.8793 72.0404C60.2893 67.2804 62.8993 63.5804 67.7293 61.7104C71.0593 60.4204 73.9793 58.4004 76.6793 56.0504C79.2793 53.7804 82.2093 53.2804 85.3693 54.7404C85.9893 55.0304 86.2693 54.9504 86.5293 54.3104C87.5593 51.8504 88.6193 49.4004 89.6793 46.9604C90.4093 45.2704 91.6693 44.1604 93.4693 43.7304C95.5593 43.2304 97.3493 43.8304 98.7493 45.4204C100.269 47.1504 100.519 49.1704 99.6093 51.2504C98.0793 54.7404 96.4793 58.1904 94.8993 61.6504C94.3893 62.7804 93.8693 63.9004 93.3693 65.0304C92.3793 67.2904 91.0393 69.3004 89.2793 71.0504C86.1893 74.1204 83.1193 77.2304 80.0193 80.2904C79.5093 80.8004 79.3093 81.2104 79.7393 81.8704C80.0693 82.3904 80.1393 83.0304 80.1393 83.6604C80.1393 87.8904 80.1393 92.1204 80.1393 96.3504C80.1393 98.7304 78.7493 100.08 76.3493 100.08C73.3893 100.08 70.4293 100.08 67.4693 100.08H67.4593ZM68.7593 79.8604C70.6793 79.8604 72.5993 79.8404 74.5193 79.8704C75.1893 79.8804 75.6793 79.6604 76.1493 79.1904C79.7193 75.5804 83.3193 72.0004 86.9093 68.4004C87.9793 67.3304 88.9093 66.1404 89.5393 64.7804C91.8093 59.8804 94.0393 54.9604 96.2593 50.0304C96.8093 48.8104 96.4293 47.7404 95.4093 47.3004C94.3793 46.8604 93.4193 47.3004 92.8593 48.5604C92.1093 50.2504 91.3993 51.9704 90.6593 53.6704C89.5493 56.2304 88.6293 58.9104 86.8193 61.1104C83.9393 64.6204 80.5293 67.6104 77.3493 70.8304C76.6293 71.5604 75.6693 71.4804 74.9693 70.8304C74.1693 70.0804 74.1893 69.0604 75.0693 68.1604C77.0593 66.1404 79.0693 64.1504 81.0693 62.1504C82.0793 61.1404 83.0993 60.1404 83.9993 59.0104C84.4993 58.3804 84.3593 58.0804 83.6693 57.8204C81.8593 57.1304 80.2893 57.5504 78.8893 58.8104C75.8093 61.5804 72.3293 63.7304 68.4893 65.2704C66.7693 65.9604 65.4393 67.1004 64.3593 68.5804C62.0393 71.7904 61.5793 75.4504 61.7793 79.2704C61.8093 79.9004 62.2593 79.8704 62.6893 79.8704C64.7093 79.8704 66.7293 79.8704 68.7493 79.8704L68.7593 79.8604ZM67.5293 83.4604C64.8893 83.4604 62.2593 83.4904 59.6193 83.4404C58.7493 83.4204 58.4193 83.6504 58.4293 84.5804C58.4793 88.2204 58.4693 91.8704 58.4293 95.5104C58.4293 96.3704 58.6793 96.6304 59.5393 96.6204C64.8393 96.5904 70.1493 96.5904 75.4493 96.6204C76.2293 96.6204 76.5493 96.4204 76.5393 95.5804C76.4993 91.8704 76.5093 88.1604 76.5393 84.4504C76.5393 83.6904 76.2893 83.4204 75.5193 83.4304C72.8493 83.4604 70.1793 83.4404 67.5193 83.4404L67.5293 83.4604Z" fill="#727272"/>
<path d="M35.8292 91.8296C35.3692 91.8296 34.9192 91.8396 34.4792 91.6796C33.6492 91.3696 33.1992 90.7596 33.2592 89.8896C33.3192 89.0196 33.8492 88.4096 34.7192 88.2996C35.4492 88.1996 36.2192 88.1996 36.9592 88.2996C37.8292 88.4196 38.3592 89.0096 38.4092 89.8996C38.4492 90.7696 38.0292 91.3896 37.1792 91.6896C36.7392 91.8496 36.2792 91.8396 35.8292 91.8296V91.8296Z" fill="#727272"/>
<path d="M70.15 28.2007C70.15 31.5507 70.15 34.9107 70.15 38.2607C70.14 42.6407 68.37 46.1007 64.78 48.6607C60.43 51.7607 56.12 54.9007 51.79 58.0207C50.18 59.1807 49.84 59.1707 48.25 58.0207C44 54.9607 39.78 51.8407 35.49 48.8507C31.61 46.1507 29.82 42.4907 29.85 37.8107C29.9 31.1707 29.89 24.5307 29.85 17.8907C29.85 16.4207 30.37 15.5707 31.75 14.9907C37.35 12.6107 42.92 10.1607 48.47 7.6807C49.54 7.2007 50.46 7.1807 51.53 7.6607C57.15 10.1607 62.78 12.6307 68.43 15.0607C69.64 15.5807 70.18 16.3607 70.17 17.6707C70.13 21.1807 70.16 24.7007 70.16 28.2207L70.15 28.2007ZM33.45 29.1307C33.45 32.1607 33.49 35.1807 33.44 38.2107C33.39 41.3907 34.65 43.8607 37.23 45.7107C41.25 48.5907 45.26 51.4907 49.26 54.4007C49.79 54.7807 50.17 54.8307 50.72 54.4307C54.82 51.4407 58.95 48.4907 63.05 45.5007C65.29 43.8607 66.52 41.6307 66.54 38.8407C66.58 32.2707 66.54 25.6907 66.57 19.1207C66.57 18.3907 66.32 18.0007 65.66 17.7207C60.71 15.5707 55.76 13.4007 50.82 11.2307C50.28 10.9907 49.78 10.9907 49.23 11.2307C44.29 13.4007 39.34 15.5707 34.38 17.7107C33.68 18.0107 33.42 18.4207 33.43 19.1907C33.47 22.5107 33.45 25.8307 33.45 29.1507V29.1307Z" fill="#727272"/>
<path d="M64.1798 88.2402C65.9098 88.2402 66.7998 88.8602 66.7698 90.0502C66.7498 91.2202 65.8198 91.8402 64.1098 91.8302C63.9098 91.8302 63.7198 91.8302 63.5198 91.8202C62.2998 91.7202 61.5298 90.9802 61.5698 89.9302C61.6098 88.9302 62.3798 88.2802 63.5798 88.2402C63.7798 88.2402 63.9698 88.2402 64.1698 88.2402H64.1798Z" fill="#727272"/>
<path d="M61.7692 21.6407C61.7492 22.1807 61.5392 22.5807 61.2792 22.9707C56.9792 29.4207 52.6892 35.8707 48.3792 42.3107C47.4892 43.6407 46.5292 43.7807 45.2492 42.8307C43.2392 41.3307 41.2292 39.8307 39.2392 38.3207C38.1692 37.5107 37.9492 36.5307 38.6092 35.6407C39.2592 34.7607 40.2592 34.7007 41.3592 35.5007C42.6992 36.4807 44.0492 37.4507 45.3392 38.4907C46.0192 39.0407 46.3592 38.9707 46.8492 38.2407C50.5592 32.6207 54.3092 27.0207 58.0492 21.4107C58.2792 21.0607 58.5092 20.6907 58.8092 20.4007C59.3492 19.9007 59.9992 19.7407 60.6992 20.0807C61.3792 20.4107 61.7092 20.9707 61.7592 21.6407H61.7692Z" fill="#727272"/>
</g>
<defs>
<clipPath id="clip0_149_868">
<rect width="100" height="100" fill="white"/>
</clipPath>
</defs>
</svg>
