<svg width="231" height="127" viewBox="0 0 231 127" fill="none" xmlns="http://www.w3.org/2000/svg">
<g clip-path="url(#clip0_503_2383)">
<g clip-path="url(#clip1_503_2383)">
<path d="M40.0596 85.2426C40.0596 70.5198 40.0596 55.797 40.0596 41.0742C90.3726 41.0742 140.686 41.0742 190.999 41.0742C190.999 55.797 190.999 70.5198 190.999 85.2426C140.686 85.2426 90.3726 85.2426 40.0596 85.2426ZM68.2988 53.6397C68.1108 53.6269 68.0037 53.6135 67.896 53.6135C65.3615 53.6123 62.827 53.616 60.2925 53.6075C60.0303 53.6069 59.8922 53.7005 59.7814 53.9323C59.1956 55.1576 58.5957 56.3762 58.0001 57.5966C55.1109 63.5174 52.2211 69.4375 49.3325 75.3583C49.2595 75.5079 49.2005 75.6643 49.1184 75.8559C49.2984 75.8651 49.4274 75.8778 49.5564 75.8778C52.0197 75.8791 54.4837 75.8699 56.947 75.8882C57.3424 75.8912 57.5359 75.7531 57.7044 75.4057C61.0992 68.4234 64.5055 61.4471 67.9088 54.4695C68.0317 54.2177 68.1473 53.9628 68.2988 53.6397V53.6397ZM101.39 60.9938C101.358 61.0054 101.326 61.0169 101.294 61.0285C101.224 60.9232 101.151 60.8198 101.085 60.7127C99.696 58.449 98.3071 56.1852 96.92 53.9202C96.8172 53.7523 96.7241 53.6111 96.4814 53.6148C95.5895 53.6288 94.697 53.6251 93.8051 53.6172C93.5672 53.6154 93.4857 53.7097 93.4857 53.9427C93.49 57.3289 93.4906 60.7152 93.4845 64.1014C93.4845 64.363 93.5934 64.4324 93.8325 64.4275C94.3496 64.4166 94.8667 64.4251 95.3838 64.4245C95.8511 64.4245 95.8535 64.4233 95.8535 63.9475C95.8541 61.7172 95.8535 59.4862 95.8553 57.2559C95.8553 57.1196 95.8724 56.984 95.8809 56.8477C96.0214 56.9298 96.0969 57.0302 96.1626 57.1367C97.5971 59.468 99.0323 61.7981 100.461 64.1331C100.584 64.335 100.716 64.4348 100.966 64.4299C101.787 64.4141 102.609 64.4184 103.43 64.4269C103.665 64.4293 103.754 64.3436 103.753 64.1069C103.749 60.7206 103.749 57.3344 103.754 53.9482C103.754 53.6926 103.652 53.6123 103.408 53.6172C102.881 53.6281 102.353 53.6196 101.826 53.6202C101.392 53.6202 101.39 53.6221 101.39 54.0656C101.389 56.2454 101.39 58.4252 101.39 60.6051C101.39 60.7346 101.39 60.8648 101.39 60.9944V60.9938ZM169.98 54.6977C169.87 54.5973 169.801 54.5048 169.709 54.4543C169.223 54.1885 168.754 53.8666 168.236 53.6872C167.09 53.2899 165.892 53.2108 164.694 53.3799C162.626 53.672 161.088 54.7062 160.259 56.6761C159.852 57.6435 159.77 58.6637 159.868 59.6919C160.04 61.5061 160.849 62.9498 162.439 63.9067C163.273 64.4086 164.19 64.663 165.152 64.7122C166.816 64.7974 168.425 64.5504 169.946 63.8313C170.131 63.7431 170.231 63.6342 170.23 63.4182C170.226 61.7153 170.227 60.0125 170.229 58.3096C170.229 58.0979 170.152 57.9963 169.924 57.9975C168.718 58.0036 167.512 58.003 166.306 57.9975C166.085 57.9963 165.994 58.0827 165.998 58.3036C166.006 58.6887 165.998 59.0738 165.999 59.4589C166.003 60.251 165.926 60.1597 166.694 60.1646C167.094 60.167 167.495 60.1646 167.934 60.1646C167.934 60.7803 167.94 61.3345 167.927 61.8881C167.925 61.9557 167.836 62.0494 167.765 62.0822C166.516 62.6523 165.244 62.8044 163.991 62.137C162.907 61.559 162.422 60.5789 162.314 59.3804C162.175 57.8613 162.834 56.5113 164.048 55.8609C165.088 55.3036 166.991 55.2878 168.082 56.2929C168.147 56.3525 168.224 56.3999 168.334 56.4821C168.883 55.8865 169.421 55.303 169.98 54.6971L169.98 54.6977ZM156.448 59.8963C156.597 59.8464 156.699 59.8099 156.803 59.7789C157.742 59.496 158.343 58.8766 158.628 57.944C158.809 57.349 158.806 56.7394 158.707 56.1365C158.553 55.1911 158.029 54.5079 157.164 54.085C156.511 53.7663 155.811 53.6427 155.101 53.6294C153.672 53.6026 152.241 53.6239 150.812 53.6172C150.575 53.616 150.49 53.7054 150.49 53.9396C150.495 57.3265 150.495 60.7127 150.489 64.0996C150.489 64.3594 150.594 64.4324 150.835 64.4275C151.372 64.4166 151.91 64.4251 152.447 64.4239C152.839 64.4226 152.858 64.4062 152.858 64.0108C152.86 62.8652 152.858 61.719 152.861 60.5734C152.861 60.4274 152.884 60.282 152.898 60.105C153.203 60.105 153.466 60.1208 153.726 60.1007C153.976 60.0812 154.108 60.1828 154.22 60.4012C154.866 61.6533 155.53 62.8962 156.179 64.147C156.28 64.3399 156.397 64.4324 156.625 64.4287C157.364 64.416 158.105 64.4251 158.845 64.4226C158.93 64.4226 159.014 64.4044 159.157 64.3874C158.241 62.8701 157.354 61.4002 156.447 59.8969L156.448 59.8963ZM117.211 55.7842C117.393 55.7842 117.533 55.7842 117.672 55.7842C119.061 55.7842 120.45 55.78 121.839 55.7873C122.085 55.7885 122.188 55.7076 122.181 55.4533C122.168 54.9769 122.179 54.5006 122.178 54.0242C122.176 53.6275 122.17 53.6202 121.761 53.6196C119.622 53.619 117.483 53.619 115.344 53.6196C114.998 53.6196 114.824 53.7924 114.823 54.138C114.823 57.3922 114.823 60.6464 114.823 63.9007C114.823 63.9511 114.828 64.0023 114.823 64.0527C114.798 64.3204 114.899 64.4488 115.187 64.4275C115.439 64.4086 115.694 64.4239 115.947 64.4239C117.975 64.4239 120.003 64.4239 122.03 64.4239C122.42 64.4239 122.437 64.4062 122.439 64.0096C122.442 63.5636 122.442 63.1177 122.439 62.6711C122.437 62.2787 122.417 62.2592 122.025 62.2592C120.565 62.258 119.106 62.2592 117.646 62.2574C117.508 62.2574 117.37 62.2404 117.218 62.23V60.0058C117.383 59.9973 117.522 59.9833 117.661 59.9833C118.948 59.9815 120.236 59.976 121.524 59.9869C121.804 59.9894 121.903 59.8908 121.895 59.6158C121.882 59.1498 121.895 58.6832 121.892 58.2172C121.889 57.84 121.868 57.8187 121.496 57.8181C120.209 57.8168 118.921 57.8181 117.634 57.8156C117.497 57.8156 117.36 57.7956 117.211 57.7834V55.7842H117.211ZM143.31 55.8055C143.481 55.797 143.611 55.7855 143.74 55.7849C145.129 55.7836 146.518 55.7788 147.907 55.7885C148.18 55.7903 148.291 55.7058 148.281 55.4229C148.265 54.9368 148.269 54.4495 148.28 53.9634C148.286 53.7218 148.208 53.6154 147.95 53.616C145.72 53.6221 143.49 53.6221 141.26 53.616C141.008 53.6154 140.92 53.7109 140.921 53.9561C140.925 57.332 140.925 60.7073 140.921 64.0832C140.921 64.3241 141.001 64.4275 141.256 64.4269C143.568 64.4202 145.879 64.4202 148.19 64.4269C148.46 64.4275 148.548 64.3241 148.542 64.068C148.531 63.6019 148.541 63.1353 148.538 62.6693C148.536 62.2781 148.516 62.2592 148.122 62.2592C146.663 62.258 145.203 62.2592 143.743 62.2574C143.606 62.2574 143.468 62.2404 143.316 62.23V60.0058C143.481 59.9973 143.62 59.9839 143.759 59.9833C145.047 59.9815 146.334 59.976 147.621 59.9869C147.901 59.9894 148.001 59.8908 147.994 59.6158C147.98 59.1498 147.993 58.6832 147.99 58.2172C147.987 57.84 147.966 57.8187 147.594 57.8181C146.306 57.8168 145.019 57.8181 143.732 57.8162C143.595 57.8162 143.459 57.7968 143.309 57.7852V55.8062L143.31 55.8055ZM170.968 53.6391C171.055 53.7839 171.111 53.8867 171.175 53.9847C172.376 55.8153 173.573 57.6471 174.783 59.4716C174.943 59.7126 175.009 59.9529 175.007 60.2376C174.998 61.5146 175.007 62.7916 175 64.0686C174.998 64.3265 175.079 64.4342 175.349 64.4263C175.886 64.4117 176.424 64.4233 176.961 64.422C177.358 64.4208 177.375 64.4062 177.376 64.0138C177.378 62.7672 177.383 61.5201 177.372 60.2735C177.37 59.9663 177.445 59.7095 177.616 59.4516C178.831 57.6185 180.034 55.7776 181.24 53.9384C181.293 53.8581 181.336 53.7723 181.412 53.6415C181.259 53.6312 181.162 53.6196 181.066 53.6196C180.366 53.6178 179.667 53.6275 178.967 53.6135C178.725 53.6087 178.582 53.6896 178.457 53.9007C177.787 55.0347 177.103 56.1608 176.421 57.2882C176.357 57.3934 176.278 57.4901 176.18 57.6289C176.063 57.4324 175.974 57.2869 175.89 57.1391C175.279 56.0641 174.665 54.9909 174.064 53.9104C173.946 53.6993 173.811 53.6081 173.562 53.6129C172.812 53.6288 172.062 53.6178 171.312 53.619C171.215 53.619 171.118 53.6294 170.967 53.6385L170.968 53.6391ZM108.045 55.7234C108.055 55.9467 108.069 56.1158 108.069 56.2849C108.07 58.8596 108.069 61.4337 108.071 64.0083C108.071 64.4056 108.09 64.422 108.48 64.4233C108.987 64.4245 109.493 64.4245 110 64.4233C110.435 64.4226 110.436 64.4214 110.436 63.9785C110.436 61.3838 110.436 58.789 110.437 56.1943C110.437 56.0477 110.456 55.9017 110.469 55.7234C110.637 55.7234 110.767 55.7234 110.897 55.7234C111.657 55.7234 112.417 55.7131 113.177 55.7283C113.459 55.7338 113.554 55.634 113.543 55.3566C113.525 54.9313 113.539 54.5054 113.538 54.0796C113.538 53.7733 113.388 53.6198 113.089 53.619C110.849 53.619 108.609 53.619 106.369 53.619C106.004 53.619 105.639 53.6245 105.274 53.6178C105.071 53.6142 104.976 53.6926 104.977 53.9025C104.983 54.4093 104.984 54.9161 104.976 55.4229C104.973 55.6461 105.067 55.7295 105.286 55.7258C105.782 55.7173 106.279 55.724 106.776 55.724C107.18 55.724 107.583 55.724 108.044 55.724L108.045 55.7234ZM126.863 62.2319V61.7366C126.863 59.1814 126.863 56.6262 126.863 54.0711C126.863 53.6202 126.861 53.6196 126.4 53.619C125.893 53.6184 125.386 53.6324 124.879 53.6142C124.584 53.6032 124.49 53.7158 124.492 54.0023C124.503 55.1278 124.496 56.2533 124.496 57.3788C124.496 59.5891 124.497 61.7999 124.496 64.0102C124.496 64.2359 124.489 64.4293 124.817 64.4275C126.875 64.4184 128.934 64.4208 130.992 64.4263C131.235 64.4269 131.312 64.3277 131.307 64.0984C131.297 63.6117 131.29 63.1244 131.309 62.6383C131.321 62.3444 131.217 62.2501 130.924 62.2532C129.718 62.2659 128.511 62.2592 127.304 62.2574C127.175 62.2574 127.046 62.2428 126.863 62.2319H126.863ZM135.076 62.2367C135.076 62.0481 135.076 61.8991 135.076 61.7494C135.076 59.1638 135.073 56.5788 135.08 53.9932C135.081 53.7243 135.008 53.6056 134.719 53.6142C134.162 53.6306 133.604 53.6275 133.047 53.6154C132.793 53.6099 132.709 53.7133 132.709 53.9573C132.712 57.3338 132.712 60.7097 132.709 64.0862C132.709 64.3308 132.794 64.4275 133.047 64.4263C135.095 64.4196 137.143 64.4196 139.191 64.4263C139.449 64.4269 139.526 64.3235 139.52 64.0813C139.508 63.605 139.518 63.1286 139.516 62.6516C139.515 62.2665 139.508 62.2586 139.12 62.258C137.923 62.2568 136.727 62.258 135.53 62.2568C135.4 62.2568 135.27 62.2452 135.076 62.2367ZM91.2724 59.0233C91.2724 57.3508 91.2675 55.6784 91.2773 54.0066C91.2791 53.7224 91.2006 53.6026 90.8989 53.6135C90.3623 53.6324 89.8245 53.6324 89.2879 53.6135C88.9904 53.6032 88.8997 53.7194 88.9028 54.0035C88.9137 54.9258 88.9064 55.8481 88.9064 56.7704C88.9064 59.1827 88.9095 61.5949 88.9028 64.0071C88.9022 64.2864 88.9539 64.4433 89.2854 64.4287C89.8117 64.4056 90.3392 64.4239 90.866 64.4226C91.2657 64.4214 91.2712 64.4166 91.2712 64.0096C91.2718 62.3475 91.2712 60.6854 91.2712 59.0233H91.2724ZM75.999 75.8091C76.4042 75.9356 76.493 75.904 76.6555 75.5712C77.4652 73.9146 78.2731 72.2568 79.0811 70.5995C81.7902 65.045 84.4999 59.4899 87.2084 53.9348C87.2504 53.8484 87.282 53.7565 87.321 53.6616C86.858 53.56 86.8008 53.5831 86.6341 53.9256C83.1298 61.1106 79.6256 68.2956 76.1231 75.4806C76.0726 75.5846 76.0404 75.6984 75.999 75.8085V75.8091ZM78.9314 53.672C78.469 53.546 78.4076 53.5777 78.202 53.9993C76.9195 56.6317 75.637 59.2636 74.3534 61.8954C72.137 66.4394 69.9201 70.9828 67.705 75.5268C67.6624 75.6138 67.635 75.7075 67.6003 75.7981C67.9751 75.9381 68.0846 75.9016 68.241 75.6041C68.2927 75.5055 68.3407 75.4051 68.39 75.3047C71.8103 68.2938 75.2312 61.2822 78.651 54.2706C78.7471 54.0741 78.8365 53.8739 78.9308 53.6713L78.9314 53.672ZM143.77 70.8338C142.897 70.2868 142.227 70.3002 141.747 70.8526C141.314 71.3509 141.292 72.1156 141.697 72.6212C142.165 73.204 142.871 73.2442 143.798 72.7161C143.808 73.1712 143.887 73.6372 143.491 73.9377C142.875 74.4049 142.272 74.1938 141.7 73.7576C141.626 73.8513 141.567 73.9249 141.512 73.9937C141.953 74.4871 142.714 74.6556 143.352 74.422C143.888 74.2261 144.142 73.8033 144.147 73.0872C144.151 72.5804 144.149 72.073 144.148 71.5662C144.148 71.2821 144.156 70.998 144.139 70.7151C144.134 70.6348 144.049 70.5594 144.001 70.4821C143.936 70.5527 143.866 70.6208 143.807 70.6963C143.784 70.7249 143.785 70.7711 143.769 70.8338H143.77ZM162.419 73.0781C162.388 72.9783 162.368 72.8925 162.334 72.8128C161.838 71.6599 161.344 70.5058 160.835 69.3584C160.784 69.2428 160.637 69.0968 160.535 69.0962C160.432 69.0962 160.284 69.241 160.233 69.356C159.715 70.5217 159.213 71.694 158.709 72.8651C158.68 72.9333 158.671 73.0112 158.654 73.0835C158.938 73.1858 159.073 73.0756 159.16 72.8347C159.258 72.5628 159.382 72.3 159.496 72.028C159.912 72.028 160.291 72.0712 160.658 72.0189C161.34 71.9209 161.79 72.1156 161.916 72.8402C161.918 72.8499 161.924 72.8584 161.927 72.8682C161.995 73.0951 162.141 73.1718 162.419 73.0775V73.0781ZM92.0031 72.8524C92.3997 72.968 92.7611 73.1334 93.1347 73.1663C93.5374 73.2016 93.9018 73.0118 94.1683 72.6826C94.5662 72.1917 94.5856 71.377 94.1513 70.9147C93.956 70.7072 93.6646 70.5588 93.389 70.4651C92.884 70.2929 92.4466 70.5204 92.0396 70.8459C92.0098 70.7151 91.9879 70.6196 91.9647 70.5186C91.6697 70.4103 91.6563 70.5959 91.6563 70.7936C91.6563 72.0085 91.6563 73.2229 91.6563 74.4378C91.6563 74.4682 91.646 74.5065 91.6606 74.5272C91.7159 74.6063 91.7798 74.6793 91.84 74.7548C91.8936 74.683 91.9812 74.6161 91.9939 74.5382C92.0189 74.38 92.0031 74.2151 92.0031 74.0533C92.0031 73.6329 92.0031 73.2125 92.0031 72.8524V72.8524ZM155.739 72.7885C155.837 72.9102 155.917 73.0093 155.997 73.1085C156.049 72.9807 156.144 72.8542 156.145 72.7258C156.157 71.5407 156.156 70.355 156.146 69.1698C156.145 69.0615 156.053 68.9539 156.003 68.8456C155.946 68.9551 155.845 69.0628 155.84 69.1747C155.821 69.6194 155.834 70.066 155.83 70.5119C155.829 70.6153 155.809 70.7182 155.795 70.8417C154.895 70.2807 154.156 70.3099 153.659 70.8995C153.24 71.3947 153.242 72.2069 153.662 72.6978C154.166 73.2867 154.885 73.3147 155.739 72.7897L155.739 72.7885ZM165.43 73.0854C165.685 73.1474 165.698 72.9862 165.699 72.8299C165.703 72.2726 165.703 71.7153 165.703 71.158C165.703 70.4894 165.71 69.8202 165.695 69.1522C165.693 69.0482 165.592 68.9466 165.537 68.8437C165.486 68.9496 165.396 69.053 165.39 69.1613C165.371 69.5251 165.383 69.8908 165.382 70.2552C165.382 70.4414 165.382 70.6275 165.382 70.8471C164.372 70.2959 163.704 70.3215 163.217 70.8903C162.801 71.3764 162.763 72.1838 163.195 72.6559C163.395 72.873 163.694 73.0324 163.978 73.1304C164.481 73.3032 164.92 73.0799 165.328 72.7392C165.368 72.8737 165.395 72.968 165.43 73.0854V73.0854ZM119.029 72.3529C118.11 73.0616 117.264 73.0756 116.635 72.4204C116.016 71.7749 115.978 70.6287 116.552 69.9303C117.135 69.2209 117.912 69.1893 118.909 69.8518C118.99 69.7837 119.076 69.7107 119.16 69.6389C118.723 69.0427 117.835 68.8523 117.034 69.1571C116.134 69.4996 115.644 70.3714 115.752 71.4391C115.846 72.3717 116.539 73.0592 117.55 73.2229C118.228 73.333 119.016 73.0075 119.24 72.5068C119.175 72.4587 119.105 72.4076 119.029 72.3517V72.3529ZM90.5709 69.519C90.2674 69.0682 89.6517 68.9034 89.0238 69.0828C88.5456 69.2197 88.2433 69.5841 88.2074 70.0672C88.1715 70.5448 88.399 70.9013 88.8888 71.1033C89.1692 71.2189 89.4649 71.2992 89.7442 71.4178C90.1652 71.5973 90.3312 71.8881 90.2601 72.2744C90.1974 72.6139 89.8634 72.8724 89.4594 72.9029C89.0524 72.9333 88.7355 72.7581 88.4538 72.449C88.3498 72.5287 88.2597 72.5975 88.1605 72.6729C88.438 73.0848 88.8346 73.1967 89.2538 73.2375C89.9109 73.3013 90.5551 72.8749 90.6628 72.3267C90.7924 71.6691 90.4894 71.2438 89.7235 70.9956C89.5215 70.9305 89.3177 70.8642 89.1254 70.7754C88.7203 70.5874 88.5645 70.3203 88.6333 69.968C88.7032 69.606 89.0117 69.3323 89.4321 69.3663C89.7362 69.3907 90.0307 69.5361 90.33 69.6273C90.3294 69.6565 90.3282 69.6857 90.3276 69.7143C90.4097 69.6486 90.4919 69.5835 90.5722 69.5197L90.5709 69.519ZM97.6811 71.9057C97.8691 71.3655 97.5448 70.7352 97.0027 70.5131C96.3384 70.2406 95.5877 70.5381 95.2944 71.1897C94.9841 71.8796 95.2482 72.696 95.8888 73.027C96.4911 73.3385 97.2917 73.1639 97.6008 72.6327C97.543 72.5792 97.4809 72.522 97.4073 72.4539C96.9912 72.8335 96.5434 72.988 96.0366 72.7088C95.7483 72.55 95.57 72.3054 95.5664 71.9057C95.9411 71.9057 96.2928 71.9057 96.6438 71.9057C96.9948 71.9057 97.3465 71.9057 97.6805 71.9057H97.6811ZM103.332 71.0175C103.777 70.7772 104.203 70.5953 104.646 70.8982C104.832 71.0254 104.895 71.231 104.819 71.4835C104.705 71.4914 104.595 71.4896 104.488 71.5072C104.161 71.562 103.823 71.5888 103.511 71.6934C103.142 71.8175 103.001 72.0986 103.029 72.4806C103.053 72.8025 103.257 73.0337 103.614 73.134C104.09 73.2673 104.488 73.1225 104.833 72.7593C104.947 72.8864 104.878 73.2198 105.207 73.072C105.207 72.5378 105.209 72.0031 105.207 71.4683C105.206 70.9147 105.03 70.6184 104.625 70.4785C104.147 70.313 103.476 70.4626 103.188 70.8112C103.229 70.8697 103.273 70.9329 103.333 71.0181L103.332 71.0175ZM147.209 71.0163C147.655 70.7668 148.082 70.5971 148.52 70.9074C148.702 71.0357 148.761 71.2432 148.691 71.4561C148.286 71.5151 147.902 71.5456 147.532 71.632C147.202 71.7092 146.94 71.9021 146.897 72.2811C146.831 72.8718 147.323 73.2965 147.966 73.1608C148.229 73.1054 148.469 72.9418 148.74 72.8171C148.818 72.8876 148.735 73.2101 149.038 73.089C149.038 72.4113 149.068 71.736 149.019 71.0662C149.005 70.8794 148.792 70.6555 148.612 70.543C148.203 70.288 147.465 70.4036 147.1 70.7267C147.08 70.7443 147.075 70.7796 147.056 70.8234C147.101 70.88 147.148 70.9402 147.209 71.0169V71.0163ZM179.3 70.5229C179.335 70.636 179.362 70.7498 179.405 70.8581C179.68 71.5443 179.963 72.2282 180.232 72.9169C180.278 73.0331 180.321 73.1851 180.283 73.2922C180.126 73.7418 180.05 74.293 179.366 74.1884C179.289 74.4354 179.387 74.5132 179.595 74.5212C179.991 74.5358 180.257 74.3526 180.449 73.8757C180.869 72.8329 181.276 71.7847 181.687 70.7382C181.714 70.6683 181.722 70.5904 181.742 70.5077C181.49 70.4267 181.355 70.4973 181.275 70.7255C181.088 71.2608 180.888 71.792 180.69 72.3237C180.654 72.4174 180.603 72.5056 180.53 72.6571C180.457 72.4879 180.415 72.3973 180.379 72.3042C180.182 71.7834 179.979 71.2639 179.792 70.7395C179.707 70.504 179.576 70.4128 179.299 70.5235L179.3 70.5229ZM176.572 71.7938C176.571 71.0047 175.98 70.4164 175.185 70.4115C174.365 70.4067 173.778 70.9871 173.78 71.7999C173.783 72.6133 174.372 73.1906 175.191 73.1821C175.986 73.1736 176.573 72.5835 176.572 71.7938V71.7938ZM120 71.8047C120.003 72.6017 120.582 73.1785 121.384 73.1821C122.193 73.1858 122.795 72.5908 122.791 71.7901C122.787 70.9998 122.196 70.4152 121.4 70.4121C120.582 70.4091 119.997 70.9913 120 71.8053L120 71.8047ZM138.645 70.7754C138.522 70.6555 138.434 70.5685 138.345 70.4821C138.295 70.5977 138.202 70.7127 138.2 70.8289C138.188 71.4969 138.191 72.1649 138.205 72.8329C138.207 72.9272 138.306 73.0191 138.359 73.1121C138.421 73.0172 138.53 72.9241 138.534 72.8262C138.556 72.4222 138.531 72.0164 138.551 71.6125C138.578 71.0923 138.952 70.7395 139.428 70.7534C139.879 70.7668 140.088 71.0297 140.099 71.6167C140.107 72.0317 140.094 72.4472 140.111 72.8615C140.115 72.9467 140.213 73.0282 140.267 73.1115C140.325 73.033 140.433 72.9558 140.434 72.8767C140.446 72.3206 140.453 71.7628 140.428 71.2073C140.409 70.7966 140.161 70.546 139.762 70.4468C139.301 70.3318 138.935 70.5229 138.645 70.7766L138.645 70.7754ZM150.629 70.7839C150.507 70.6665 150.412 70.5746 150.318 70.4833C150.272 70.6129 150.189 70.7419 150.186 70.8721C150.174 71.5297 150.176 72.188 150.192 72.8457C150.194 72.9351 150.301 73.0227 150.36 73.1109C150.415 73.0209 150.516 72.9333 150.521 72.8408C150.54 72.4368 150.518 72.0304 150.537 71.6265C150.562 71.1008 150.923 70.7474 151.399 70.7522C151.864 70.7571 152.076 71.0248 152.086 71.6313C152.093 72.0463 152.08 72.4618 152.099 72.8761C152.103 72.957 152.21 73.0331 152.27 73.1109C152.322 73.0373 152.419 72.9643 152.42 72.8901C152.43 72.3237 152.438 71.7561 152.411 71.1903C152.392 70.7912 152.146 70.5509 151.761 70.4511C151.299 70.3318 150.93 70.5058 150.63 70.7845L150.629 70.7839ZM124.095 70.7839C123.987 70.6725 123.896 70.577 123.804 70.4821C123.754 70.6178 123.664 70.7528 123.661 70.8891C123.647 71.5267 123.649 72.1649 123.665 72.8031C123.667 72.9071 123.757 73.089 123.823 73.0963C124.039 73.1207 123.999 72.9254 124.001 72.7927C124.008 72.3979 123.99 72.0018 124.012 71.6082C124.041 71.0881 124.416 70.7364 124.891 70.7516C125.34 70.7656 125.549 71.0297 125.56 71.6186C125.568 72.0335 125.554 72.4496 125.571 72.8639C125.575 72.9479 125.674 73.0282 125.73 73.1097C125.787 73.0306 125.892 72.9534 125.894 72.873C125.907 72.3267 125.914 71.7792 125.89 71.2329C125.871 70.7869 125.624 70.5356 125.188 70.4377C124.738 70.3361 124.384 70.5314 124.096 70.7833L124.095 70.7839ZM131.654 73.0866C131.896 73.1596 131.952 73.0586 131.944 72.8627C131.932 72.5792 131.931 72.2957 131.929 72.0122C131.927 71.5967 131.937 71.1811 131.92 70.7662C131.915 70.6695 131.821 70.577 131.767 70.4827C131.707 70.5807 131.629 70.6731 131.591 70.779C131.562 70.8599 131.586 70.9597 131.584 71.0503C131.579 71.3947 131.595 71.7415 131.562 72.0828C131.516 72.5476 131.136 72.8597 130.689 72.8408C130.254 72.8226 130.038 72.5628 130.028 72.0286C130.02 71.6034 130.035 71.1769 130.017 70.7522C130.013 70.6604 129.912 70.5722 129.856 70.4821C129.797 70.5697 129.691 70.6561 129.688 70.7455C129.671 71.2213 129.676 71.6977 129.681 72.174C129.684 72.5463 129.769 72.8883 130.139 73.0665C130.525 73.2533 130.906 73.2137 131.266 72.9813C131.354 72.9248 131.438 72.8615 131.535 72.794C131.582 72.9102 131.616 72.9935 131.653 73.086L131.654 73.0866ZM172.971 70.8429C172.79 70.4876 172.479 70.4249 172.165 70.4176C171.811 70.4091 171.476 70.4955 171.27 70.8277C171.224 70.9025 171.195 70.995 171.182 71.0832C171.127 71.4488 171.3 71.7202 171.678 71.8473C171.945 71.9374 172.231 71.9836 172.489 72.0937C172.792 72.2227 172.799 72.5707 172.511 72.7325C172.393 72.7988 172.233 72.8566 172.108 72.8323C171.841 72.7806 171.583 72.6735 171.266 72.5713C171.256 72.5804 171.19 72.6358 171.128 72.6881C171.394 73.1353 172.008 73.3007 172.568 73.0957C172.915 72.9686 173.106 72.7039 173.099 72.362C173.092 72.0438 172.892 71.7956 172.54 71.6873C172.318 71.6186 172.088 71.5711 171.866 71.5036C171.678 71.4464 171.495 71.3259 171.565 71.1203C171.613 70.9786 171.795 70.7954 171.927 70.7875C172.189 70.7723 172.459 70.8654 172.725 70.9135C172.727 70.9469 172.728 70.9804 172.729 71.0144C172.806 70.9597 172.884 70.9049 172.971 70.8429V70.8429ZM128.739 70.8484C128.474 70.4237 127.895 70.2953 127.393 70.5204C127.094 70.6543 126.942 70.8849 126.944 71.2146C126.947 71.5468 127.141 71.7384 127.429 71.8406C127.638 71.9148 127.861 71.9495 128.073 72.0146C128.279 72.0779 128.503 72.1473 128.48 72.4265C128.457 72.7173 128.226 72.8396 127.99 72.8244C127.693 72.8049 127.402 72.6948 127.109 72.6242C127.109 72.5908 127.108 72.5567 127.108 72.5232C127.035 72.581 126.963 72.6394 126.893 72.6954C127.198 73.1468 127.806 73.3013 128.352 73.0902C128.684 72.9619 128.872 72.7033 128.869 72.3772C128.867 72.0566 128.67 71.8005 128.323 71.6922C128.111 71.6253 127.892 71.5815 127.678 71.5182C127.472 71.4573 127.287 71.3557 127.326 71.0996C127.362 70.8569 127.567 70.7534 127.772 70.7668C128.02 70.7833 128.264 70.8776 128.51 70.9384C128.51 70.9627 128.51 70.9865 128.509 71.0108C128.581 70.9603 128.652 70.9098 128.738 70.849L128.739 70.8484ZM111.097 70.8465C110.849 70.4499 110.373 70.3191 109.861 70.4772C109.509 70.5861 109.306 70.8417 109.301 71.1842C109.296 71.5164 109.471 71.7409 109.845 71.8595C110.095 71.9392 110.36 71.9818 110.599 72.0858C110.705 72.132 110.821 72.2872 110.825 72.3967C110.829 72.5092 110.725 72.6565 110.626 72.7331C110.531 72.8061 110.371 72.8536 110.256 72.8317C109.988 72.78 109.729 72.6802 109.394 72.5774C109.393 72.5786 109.321 72.637 109.253 72.693C109.548 73.1444 110.163 73.3007 110.71 73.0896C111.039 72.9625 111.228 72.7021 111.227 72.3754C111.225 72.0578 111.027 71.7999 110.68 71.6904C110.468 71.6234 110.248 71.5802 110.035 71.5164C109.842 71.4586 109.66 71.3661 109.681 71.1264C109.705 70.8648 109.916 70.7535 110.133 70.7656C110.382 70.7796 110.625 70.8776 110.943 70.9573C110.942 70.9573 111.013 70.9068 111.098 70.8465H111.097ZM100.803 70.8131C100.417 70.3957 99.797 70.2947 99.255 70.5478C98.7105 70.8021 98.4495 71.3478 98.5365 72.0499C98.6095 72.6364 99.0286 73.055 99.6528 73.1645C100.117 73.246 100.623 73.0574 100.789 72.7392C100.666 72.5348 100.533 72.6321 100.383 72.7149C99.7526 73.0629 99.0147 72.7064 98.907 71.997C98.8437 71.5827 98.9319 71.2006 99.2884 70.9414C99.651 70.678 100.043 70.6744 100.427 70.9062C100.583 71.0005 100.704 71.0181 100.803 70.8137V70.8131ZM166.517 70.5247C166.545 70.6208 166.566 70.7157 166.601 70.8052C166.876 71.4908 167.148 72.1777 167.439 72.8566C167.485 72.9643 167.629 73.1061 167.718 73.1C167.832 73.0915 167.984 72.9698 168.034 72.8584C168.265 72.3413 168.467 71.8114 168.678 71.2858C168.779 71.0357 168.879 70.7851 168.983 70.5265C168.734 70.4201 168.608 70.4882 168.531 70.703C168.361 71.169 168.183 71.6313 168.006 72.0949C167.935 72.2793 167.859 72.4612 167.752 72.7258C167.673 72.5457 167.625 72.4508 167.587 72.3517C167.378 71.8029 167.168 71.2554 166.966 70.7042C166.888 70.4894 166.761 70.4213 166.516 70.5259L166.517 70.5247ZM134.805 70.8331C134.82 70.9548 134.841 71.0528 134.842 71.1513C134.848 71.6167 134.835 72.0828 134.853 72.5482C134.871 73.058 135.378 73.3506 135.833 73.1158C135.904 73.0793 135.931 72.9564 136.01 72.8177C135.799 72.8286 135.671 72.8718 135.583 72.8311C135.444 72.766 135.232 72.651 135.225 72.5457C135.19 71.9854 135.209 71.4221 135.209 70.8313C135.406 70.8222 135.569 70.8313 135.722 70.8003C135.798 70.7845 135.858 70.6932 135.925 70.636C135.855 70.5819 135.791 70.4955 135.713 70.4797C135.559 70.4487 135.398 70.4572 135.22 70.448C135.209 70.3063 135.219 70.1925 135.188 70.0903C135.152 69.9717 135.082 69.864 135.027 69.7514C134.966 69.8585 134.888 69.9595 134.85 70.0739C134.814 70.184 134.82 70.3081 134.805 70.4474C134.674 70.4578 134.559 70.4474 134.458 70.4803C134.389 70.5034 134.338 70.5861 134.28 70.6421C134.34 70.6969 134.392 70.7772 134.462 70.8003C134.562 70.8331 134.677 70.8234 134.805 70.8331V70.8331ZM112.636 70.8398C112.766 70.8265 112.847 70.8252 112.925 70.8088C113.076 70.7778 113.332 70.9049 113.341 70.647C113.35 70.375 113.089 70.5022 112.94 70.4718C112.854 70.4541 112.765 70.4517 112.647 70.4389C112.638 70.274 112.648 70.1213 112.613 69.9796C112.591 69.8938 112.497 69.8263 112.436 69.7508C112.383 69.8245 112.302 69.8914 112.285 69.9729C112.251 70.1238 112.254 70.2832 112.241 70.4401C112.049 70.4633 111.901 70.4809 111.738 70.5004V70.7778C111.918 70.8027 112.073 70.8246 112.246 70.849C112.257 70.9998 112.272 71.1288 112.274 71.2584C112.279 71.694 112.266 72.1296 112.284 72.5646C112.305 73.0635 112.848 73.3616 113.278 73.1109C113.345 73.072 113.361 72.9454 113.419 72.8171C113.215 72.828 113.105 72.8414 112.995 72.839C112.796 72.8341 112.648 72.7289 112.642 72.5324C112.627 71.9787 112.637 71.4245 112.637 70.8411L112.636 70.8398ZM133.445 70.998C133.445 70.3811 133.453 69.7636 133.438 69.1467C133.436 69.0427 133.337 68.9411 133.283 68.8383C133.222 68.9453 133.109 69.0512 133.108 69.1589C133.095 70.3726 133.096 71.5869 133.107 72.8013C133.108 72.9047 133.209 73.0075 133.264 73.1103C133.324 73.0032 133.434 72.898 133.437 72.7891C133.454 72.1929 133.445 71.5954 133.446 70.9986L133.445 70.998ZM106.737 70.998C106.737 70.3805 106.745 69.763 106.73 69.1461C106.728 69.0421 106.629 68.9411 106.574 68.8383C106.513 68.9453 106.4 69.0512 106.399 69.1589C106.386 70.3629 106.386 71.5675 106.399 72.7721C106.4 72.8852 106.495 73.0902 106.557 73.0939C106.791 73.1085 106.733 72.8962 106.734 72.7593C106.742 72.1722 106.737 71.5851 106.737 70.998H106.737ZM177.838 70.8684C177.815 70.8179 177.806 70.7906 177.791 70.7674C177.732 70.6713 177.67 70.5764 177.609 70.4809C177.558 70.5837 177.462 70.6865 177.461 70.79C177.456 71.4567 177.465 72.1241 177.487 72.7903C177.49 72.8968 177.586 73.0008 177.639 73.1061C177.695 73.0045 177.794 72.9053 177.8 72.8013C177.821 72.4283 177.808 72.0536 177.814 71.68C177.82 71.3728 177.907 71.0814 178.174 70.9159C178.363 70.7991 178.599 70.7595 178.865 70.6689C178.868 70.6269 178.873 70.5381 178.879 70.4468C178.409 70.3373 178.112 70.5673 177.837 70.869L177.838 70.8684ZM102.051 71.7993C102.051 71.7993 102.052 71.7993 102.052 71.7993C102.052 71.4458 102.064 71.0911 102.044 70.7388C102.039 70.6506 101.929 70.5685 101.868 70.4833C101.814 70.5667 101.716 70.6494 101.715 70.734C101.703 71.4409 101.702 72.1485 101.716 72.8554C101.718 72.9418 101.831 73.0258 101.893 73.1109C101.946 73.0276 102.04 72.9454 102.044 72.8597C102.061 72.5068 102.051 72.1527 102.051 71.7993V71.7993ZM107.975 71.7658C107.975 72.1296 107.965 72.4934 107.982 72.8566C107.986 72.9436 108.079 73.0258 108.131 73.1103C108.193 73.0264 108.308 72.943 108.31 72.8572C108.325 72.1503 108.325 71.4427 108.31 70.7358C108.308 70.65 108.195 70.5661 108.132 70.4815C108.08 70.5661 107.986 70.6482 107.982 70.7352C107.964 71.0777 107.974 71.4221 107.975 71.7652L107.975 71.7658ZM137.095 71.795C137.095 71.4415 137.105 71.0875 137.088 70.7346C137.083 70.6482 136.99 70.5667 136.937 70.4827C136.875 70.5679 136.761 70.6518 136.759 70.7376C136.745 71.4446 136.746 72.1521 136.759 72.8591C136.76 72.9436 136.857 73.0264 136.91 73.1103C136.971 73.0258 137.081 72.9436 137.086 72.8554C137.107 72.5032 137.094 72.1485 137.095 71.795V71.795ZM170.13 71.8114C170.13 71.458 170.142 71.1039 170.122 70.751C170.117 70.6585 170.015 70.5715 169.958 70.4821C169.9 70.5722 169.794 70.661 169.792 70.7516C169.779 71.4482 169.779 72.1454 169.793 72.8426C169.795 72.9333 169.9 73.0215 169.957 73.1109C170.014 73.0215 170.116 72.9345 170.122 72.8414C170.142 72.4989 170.129 72.1552 170.129 71.8114H170.13ZM169.98 69.8092C170.086 69.6352 170.196 69.5336 170.191 69.4375C170.188 69.3572 170.031 69.2088 169.976 69.2228C169.879 69.2477 169.75 69.3676 169.741 69.4582C169.732 69.544 169.86 69.6438 169.98 69.8092ZM108.16 69.8092C108.271 69.6383 108.382 69.5403 108.381 69.4442C108.379 69.3639 108.228 69.2112 108.171 69.2234C108.073 69.2447 107.941 69.3609 107.929 69.4509C107.918 69.5367 108.044 69.6395 108.159 69.8092H108.16ZM136.944 69.8068C137.051 69.6419 137.172 69.5367 137.156 69.4613C137.135 69.3639 137.004 69.2903 136.92 69.2069C136.843 69.2879 136.704 69.3694 136.704 69.4503C136.704 69.5458 136.825 69.6413 136.944 69.8068ZM102.224 69.4716C102.083 69.3511 101.99 69.2136 101.918 69.2246C101.819 69.2392 101.737 69.3645 101.647 69.4424C101.728 69.5288 101.798 69.6608 101.895 69.6857C101.965 69.7034 102.071 69.5768 102.223 69.4716H102.224Z" fill="white"/>
<path d="M152.891 58.1478V55.6638C152.939 55.6382 152.965 55.6127 152.991 55.6133C153.739 55.6309 154.492 55.5993 155.232 55.6851C156.039 55.7782 156.425 56.3902 156.279 57.1665C156.214 57.5139 156.017 57.7542 155.708 57.9045C155.582 57.9659 155.443 58.0292 155.307 58.0371C154.521 58.0821 153.734 58.1113 152.891 58.1484L152.891 58.1478Z" fill="white"/>
<path d="M143.812 71.7729C143.817 72.3643 143.394 72.7853 142.796 72.7841C142.243 72.7835 141.788 72.3333 141.78 71.7809C141.772 71.2163 142.231 70.7557 142.802 70.7539C143.394 70.7521 143.807 71.1682 143.812 71.7729V71.7729Z" fill="white"/>
<path d="M161.418 71.6599H159.644C159.938 70.9481 160.211 70.2843 160.484 69.62C160.516 69.6175 160.547 69.6157 160.579 69.6133C160.853 70.2825 161.128 70.9517 161.418 71.6599V71.6599Z" fill="white"/>
<path d="M93.0724 70.7545C93.6717 70.7582 94.0933 71.1907 94.0927 71.801C94.0915 72.4215 93.6553 72.8547 93.0402 72.8462C92.4373 72.8376 91.9731 72.3704 91.9859 71.7839C91.9986 71.1895 92.4622 70.7503 93.073 70.7539L93.0724 70.7545Z" fill="white"/>
<path d="M154.755 72.8455C154.155 72.848 153.728 72.4227 153.718 71.8101C153.708 71.2084 154.141 70.7582 154.734 70.7539C155.357 70.7497 155.84 71.2102 155.836 71.8046C155.832 72.3887 155.361 72.8425 154.755 72.8455Z" fill="white"/>
<path d="M164.291 72.8455C163.695 72.8413 163.261 72.3959 163.267 71.7955C163.272 71.1901 163.708 70.7521 164.301 70.7539C164.913 70.7557 165.385 71.2059 165.388 71.7888C165.39 72.388 164.911 72.8498 164.291 72.8455V72.8455Z" fill="white"/>
<path d="M97.3455 71.5481H95.6134C95.5684 71.1369 95.9602 70.7792 96.459 70.7554C96.9993 70.7299 97.3527 71.028 97.3461 71.5481H97.3455Z" fill="white"/>
<path d="M104.835 71.8738C104.894 72.2315 104.82 72.5047 104.554 72.6939C104.277 72.8916 103.959 72.9153 103.664 72.7565C103.544 72.6914 103.425 72.5186 103.415 72.3866C103.408 72.2723 103.527 72.0989 103.638 72.035C104.001 71.8269 104.405 71.8251 104.835 71.8738H104.835Z" fill="white"/>
<path d="M148.7 71.868C148.759 72.2379 148.683 72.5184 148.399 72.7063C148.115 72.8937 147.802 72.9053 147.502 72.7532C147.18 72.5901 147.176 72.2075 147.495 72.031C147.863 71.8266 148.265 71.8297 148.7 71.868V71.868Z" fill="white"/>
<path d="M175.184 72.8455C174.584 72.8492 174.154 72.4209 174.147 71.8101C174.14 71.2041 174.568 70.7582 175.163 70.7539C175.758 70.7497 176.194 71.1828 176.203 71.7894C176.212 72.3911 175.777 72.8419 175.184 72.8455V72.8455Z" fill="white"/>
<path d="M121.384 72.8461C120.791 72.8449 120.361 72.4014 120.365 71.7936C120.37 71.1847 120.8 70.7515 121.398 70.7539C121.992 70.7563 122.419 71.1956 122.421 71.8064C122.423 72.4045 121.982 72.8467 121.385 72.8455L121.384 72.8461Z" fill="white"/>
</g>
</g>
<defs>
<clipPath id="clip0_503_2383">
<rect width="231" height="127" fill="white"/>
</clipPath>
<clipPath id="clip1_503_2383">
<rect width="151" height="44.2292" fill="white" transform="translate(40 41)"/>
</clipPath>
</defs>
</svg>
