<svg width="100" height="100" viewBox="0 0 100 100" fill="none" xmlns="http://www.w3.org/2000/svg">
<g clip-path="url(#clip0_317_1995)">
<path d="M86.1947 56.3542C86.1947 63.6875 86.1947 71.0301 86.1947 78.3634C86.1947 78.7986 86.1206 79.1968 85.7687 79.5116C85.4724 79.7801 85.1298 79.8449 84.7595 79.8449C83.4447 79.8449 82.1298 79.8449 80.815 79.8449C80.3706 79.8449 80.3613 79.8449 80.3613 80.3079C80.3613 83.3171 80.3613 86.3171 80.3613 89.3264C80.3613 90.919 80.241 92.4838 79.565 93.9468C78.0743 97.1782 75.5743 99.0949 72.0373 99.6134C71.6854 99.669 71.3336 99.6782 70.9817 99.6782C57.2595 99.6782 43.5373 99.6782 29.815 99.6782C28.028 99.6782 26.3891 99.1875 24.8891 98.2245C22.5095 96.6968 21.0928 94.5208 20.5836 91.7523C20.4632 91.1042 20.4447 90.4375 20.4447 89.7708C20.4447 86.6319 20.4447 83.4838 20.4447 80.3449C20.4447 79.8449 20.4447 79.8449 19.9539 79.8449C18.6947 79.8449 17.4354 79.8449 16.1854 79.8449C15.065 79.8449 14.6113 79.4005 14.6113 78.2894C14.6113 65.3171 14.6113 52.3542 14.6113 39.3819C14.6113 37.6782 14.6113 35.9745 14.6113 34.2708C14.6113 33.2708 15.0836 32.8079 16.0836 32.7986C17.3706 32.7986 18.6669 32.7986 19.9539 32.7986C20.4261 32.7986 20.4354 32.7986 20.4354 32.3264C20.4354 29.5579 20.4354 26.7986 20.4354 24.0301C20.4354 20.5671 20.4354 17.1042 20.4354 13.6412C20.4354 12.3264 20.3891 11.0116 20.4817 9.70602C20.6298 7.56713 21.4169 5.69676 22.8336 4.08565C24.3058 2.40972 26.1576 1.40046 28.3428 1.00231C28.7595 0.928241 29.1761 0.881944 29.6021 0.881944C43.4632 0.881944 57.3243 0.854167 71.1854 0.909722C74.4632 0.918982 77.0095 2.51157 78.8243 5.2338C79.7873 6.66898 80.2595 8.27083 80.3243 10.0116C80.3798 11.5949 80.3428 13.1875 80.3428 14.7708C80.3428 17.9282 80.3521 21.0764 80.3613 24.2338C80.3613 26.919 80.3613 29.6042 80.3613 32.2893C80.3613 32.7986 80.3613 32.7986 80.8799 32.7986C82.1391 32.7986 83.3891 32.7986 84.6484 32.7986C85.741 32.7986 86.1947 33.2523 86.1947 34.3449C86.1947 41.6782 86.1947 49.0208 86.1947 56.3542V56.3542ZM51.6391 76.1227C52.9724 75.2616 54.2965 74.5486 55.6761 73.9282C58.9169 72.4838 62.3243 71.669 65.8521 71.3264C67.7317 71.1412 69.6113 71.1319 71.5002 71.2338C73.2039 71.3264 74.8891 71.5301 76.565 71.8264C76.9632 71.9005 76.991 71.8819 76.991 71.4653C76.991 69.6227 76.991 67.7894 76.991 65.9468C76.991 65.7431 76.991 65.5394 77.1021 65.3449C77.3706 64.8264 77.9169 64.5579 78.4724 64.6875C79.0743 64.8264 79.4261 65.2801 79.4261 65.9745C79.4261 68.419 79.4261 70.8634 79.4261 73.3079C79.4261 73.5856 79.3613 73.8542 79.1947 74.0857C78.7873 74.6505 78.241 74.669 77.6298 74.5301C74.991 73.9375 72.315 73.6597 69.6113 73.6319C68.1021 73.6134 66.6021 73.706 65.1021 73.9097C61.7873 74.3449 58.6021 75.2523 55.5928 76.7338C55.1947 76.9282 54.8058 77.1412 54.3521 77.3819H55.315C60.1669 77.3819 65.028 77.3819 69.8798 77.3819C74.2965 77.3819 78.7224 77.3819 83.1391 77.3819C83.7132 77.3819 83.7132 77.3819 83.7132 76.7894C83.7132 69.1782 83.7132 61.5671 83.7132 53.9653C83.7132 47.9005 83.7132 41.8356 83.7132 35.7616C83.7132 35.2893 83.7132 35.2893 83.241 35.2801C82.1298 35.2801 81.028 35.2801 79.9169 35.2801C79.4169 35.2801 79.4169 35.2801 79.4169 35.7616C79.4169 38.4838 79.4169 41.1968 79.4169 43.919C79.4169 44.3542 79.4261 44.7894 79.4169 45.2245C79.3891 45.9468 78.8428 46.4745 78.1669 46.456C77.4539 46.4468 76.991 45.9468 76.9817 45.1782C76.9817 43.4838 76.9817 41.7986 76.9817 40.1042C76.9817 37.2153 76.9817 34.3264 76.9817 31.4282C76.9817 31.1968 76.9817 31.0208 76.6761 30.9653C74.7873 30.6134 72.8891 30.3727 70.9724 30.2986C68.2132 30.1875 65.4724 30.3634 62.7687 30.9282C58.9447 31.7245 55.3798 33.1227 52.1761 35.4005C51.7873 35.6782 51.6298 35.9653 51.6298 36.4375C51.6391 48.7431 51.6391 61.0486 51.6391 73.3542C51.6391 74.2523 51.6391 75.1597 51.6391 76.1227V76.1227ZM49.1761 76.1227C49.1761 75.9931 49.1761 75.9375 49.1761 75.8819C49.1761 73.8264 49.1761 71.7708 49.1761 69.7153C49.1761 58.4931 49.1761 47.2708 49.1761 36.0579C49.1761 35.8542 49.0928 35.7523 48.9447 35.6412C47.2224 34.3542 45.3428 33.3542 43.3521 32.5486C40.2965 31.3079 37.1206 30.6227 33.8428 30.3727C32.3521 30.2616 30.8521 30.2616 29.3613 30.3449C27.6576 30.4468 25.9724 30.6412 24.3058 30.9468C23.8243 31.0301 23.8336 31.0394 23.8336 31.5394C23.8336 40.1319 23.8336 48.7245 23.8336 57.3171C23.8336 62.0486 23.8336 66.7801 23.8336 71.5116C23.8336 71.8357 23.9447 71.9005 24.241 71.8449C25.741 71.5486 27.2595 71.3634 28.7873 71.2708C31.3706 71.1042 33.9447 71.1597 36.5095 71.5208C39.8798 71.9931 43.1113 72.919 46.1761 74.4282C47.1947 74.9282 48.1669 75.4838 49.1761 76.1412V76.1227ZM50.3891 85.5486C43.4076 85.5486 36.4261 85.5486 29.4447 85.5486C29.3521 85.5486 29.2595 85.5486 29.1669 85.5486C28.4447 85.5116 27.9539 85.0116 27.9539 84.2894C27.9539 82.9653 27.9539 81.6412 27.9539 80.3171C27.9539 79.8634 27.9539 79.8542 27.5095 79.8542C26.1391 79.8542 24.7687 79.8542 23.3984 79.8542C22.9261 79.8542 22.9261 79.8542 22.9261 80.3264C22.9261 83.6597 22.9261 87.0023 22.9261 90.3356C22.9261 90.7245 22.9632 91.1134 23.028 91.4931C23.6391 94.8264 26.6391 97.2616 30.0835 97.2616C43.5835 97.2338 57.0928 97.2431 70.5928 97.2616C72.5465 97.2616 74.241 96.6782 75.6761 95.3356C77.0465 94.0486 77.8428 92.456 77.8706 90.5857C77.9261 87.1319 77.8891 83.6875 77.8891 80.2338C77.8891 79.9468 77.7965 79.8542 77.5095 79.8634C76.0835 79.8727 74.6576 79.8727 73.2224 79.8634C72.9169 79.8634 72.8336 79.9745 72.8428 80.2616C72.8521 81.6134 72.8428 82.956 72.8428 84.3079C72.8428 85.0301 72.3613 85.5301 71.6298 85.5671C71.4724 85.5671 71.3058 85.5671 71.1484 85.5671C64.2224 85.5671 57.3058 85.5671 50.3798 85.5671L50.3891 85.5486ZM50.4169 11.3264C51.3058 11.3264 52.2039 11.3264 53.0928 11.3264C59.2502 11.3264 65.4076 11.3264 71.565 11.3264C71.7687 11.3264 71.9724 11.3264 72.1669 11.4282C72.6484 11.669 72.8521 12.0486 72.8521 12.5949C72.8521 17.5671 72.8521 22.5394 72.8521 27.5023C72.8521 27.8171 72.8891 27.9838 73.278 28.0208C74.6298 28.1412 75.9724 28.3449 77.3058 28.6042C77.8891 28.7153 77.8891 28.7153 77.8891 28.1227C77.8891 22.1782 77.8891 16.2431 77.8891 10.2986C77.8891 9.90972 77.8613 9.52083 77.7965 9.1412C77.2039 5.79861 74.278 3.34491 70.8798 3.34491C64.4354 3.34491 57.991 3.34491 51.5465 3.34491C44.3243 3.34491 37.1021 3.34491 29.8798 3.34491C28.7965 3.34491 27.7595 3.56713 26.815 4.08565C24.2595 5.46528 22.9354 7.60417 22.9261 10.5301C22.9261 14.669 22.9261 18.7986 22.9261 22.9375C22.9261 24.7338 22.9261 26.5208 22.9261 28.3171C22.9261 28.5579 22.9539 28.7338 23.2595 28.669C24.6484 28.3819 26.0465 28.1875 27.4539 28.0208C27.9632 27.9653 27.9632 27.9468 27.9632 27.4468C27.9632 22.5116 27.9632 17.5764 27.9632 12.6412C27.9632 12.3356 27.991 12.0486 28.1854 11.7986C28.4632 11.4468 28.8243 11.3264 29.2687 11.3264C36.315 11.3264 43.3706 11.3264 50.4169 11.3264ZM50.4354 13.7616C43.9261 13.7616 37.4076 13.7616 30.8984 13.7616C30.5712 13.7616 30.4076 13.9221 30.4076 14.2431C30.4076 18.6227 30.4076 22.9931 30.4076 27.3727C30.4076 27.456 30.4076 27.5301 30.4076 27.6134C30.4076 27.7708 30.4724 27.8449 30.6391 27.8356C31.2687 27.7801 31.8891 27.8264 32.5187 27.8356C35.4447 27.8912 38.315 28.3264 41.1298 29.1227C44.3984 30.0579 47.4447 31.4468 50.1854 33.4838C50.3706 33.6227 50.491 33.6042 50.6669 33.4745C52.0465 32.4375 53.5373 31.5671 55.1021 30.8356C57.278 29.8264 59.5373 29.0764 61.8798 28.5764C63.6391 28.1968 65.4076 27.9653 67.2039 27.8634C68.1484 27.8171 69.1021 27.7338 70.0465 27.8171C70.3798 27.8449 70.4354 27.7431 70.4354 27.456C70.4354 23.0301 70.4354 18.6134 70.4354 14.1875C70.4354 13.8356 70.3243 13.7431 69.9817 13.7523C63.4724 13.7523 56.9539 13.7523 50.4447 13.7523L50.4354 13.7616ZM46.4261 77.3727C46.4261 77.3727 46.3613 77.3171 46.3335 77.2986C46.028 77.1412 45.7317 76.9745 45.4261 76.8171C40.7224 74.4838 35.7317 73.5208 30.5095 73.6505C28.0002 73.7153 25.528 74.0116 23.0743 74.5486C22.8984 74.5857 22.7132 74.6227 22.528 74.6042C21.8243 74.5301 21.3984 74.0116 21.3984 73.2153C21.3984 69.8264 21.3984 66.4282 21.3984 63.0394C21.3984 53.9468 21.3984 44.8542 21.3984 35.7523C21.3984 35.2708 21.3984 35.2708 20.9354 35.2708C19.815 35.2708 18.6947 35.2708 17.5743 35.2708C17.1021 35.2708 17.1021 35.2708 17.1021 35.7523C17.1021 49.4838 17.1021 63.2153 17.1021 76.9468C17.1021 77.2616 17.1669 77.3727 17.5095 77.3727C21.1854 77.3634 24.8613 77.3634 28.5465 77.3727C30.8984 77.3727 33.2502 77.3819 35.6113 77.3819C38.7687 77.3819 41.9169 77.3819 45.0743 77.3727C45.528 77.3727 45.9817 77.3727 46.4539 77.3727H46.4261ZM50.4169 83.1042C56.9354 83.1042 63.4632 83.1042 69.9817 83.1042C70.3335 83.1042 70.4354 83.0023 70.4261 82.6597C70.3984 81.8634 70.4076 81.0579 70.4261 80.2616C70.4261 79.9282 70.3243 79.7986 69.991 79.8357C69.9169 79.8449 69.8335 79.8357 69.7502 79.8357C58.7132 79.8357 47.6761 79.8357 36.6484 79.8357C34.7039 79.8357 32.7687 79.8357 30.8243 79.8357C30.491 79.8357 30.3891 79.9375 30.3984 80.2708C30.4169 81.0857 30.4169 81.8912 30.3984 82.706C30.3984 83.0208 30.5002 83.1134 30.815 83.1134C37.3521 83.1134 43.8798 83.1134 50.4169 83.1134V83.1042Z" fill="#727272"/>
<path d="M79.4165 55.5731C79.4165 56.249 79.4258 56.9157 79.4165 57.5916C79.4073 58.1749 79.0739 58.6101 78.5554 58.7768C78.0554 58.9435 77.5461 58.7768 77.2128 58.3509C77.0369 58.1286 76.9721 57.8694 76.9813 57.5824C76.9813 56.2398 76.9813 54.8879 76.9813 53.5453C76.9813 52.8046 77.4721 52.2675 78.1573 52.2583C78.8517 52.2398 79.398 52.7768 79.4165 53.5175C79.435 54.2027 79.4165 54.8879 79.4165 55.5731V55.5731Z" fill="#727272"/>
<path d="M50.3989 95.3458C48.26 95.3644 46.51 93.6884 46.4174 91.5495C46.3896 90.8829 46.7878 90.3366 47.3896 90.1977C47.9452 90.0773 48.5285 90.3736 48.7692 90.9106C48.8803 91.1514 48.8526 91.4014 48.8989 91.6514C49.0563 92.4662 49.76 93.0032 50.584 92.9199C51.3155 92.8458 51.9452 92.1329 51.9266 91.3829C51.9081 90.5588 51.2785 89.9199 50.4452 89.8736C49.7229 89.8366 49.26 89.4384 49.1766 88.7718C49.1118 88.2255 49.4637 87.6606 50.0007 87.4847C50.297 87.3829 50.6118 87.4106 50.9174 87.4477C52.8896 87.6977 54.3896 89.4292 54.3803 91.4106C54.3803 93.3736 52.8618 95.0866 50.8989 95.3366C50.7322 95.3551 50.5563 95.3366 50.3896 95.3366L50.3989 95.3458Z" fill="#727272"/>
<path d="M44.8509 8.34983C44.462 8.34983 44.0732 8.34983 43.6843 8.34983C43.0269 8.34057 42.5269 7.89612 42.4898 7.27575C42.4435 6.55353 42.8602 5.9702 43.5546 5.93316C44.4157 5.88686 45.2954 5.88686 46.1565 5.93316C46.8695 5.9702 47.3139 6.56279 47.2583 7.24797C47.2028 7.9239 46.6935 8.35909 45.9806 8.34983C45.6009 8.34983 45.2306 8.34983 44.8509 8.34983Z" fill="#727272"/>
<path d="M55.9437 8.35214C55.5548 8.35214 55.1659 8.35214 54.7771 8.35214C54.0641 8.35214 53.5548 7.87066 53.5363 7.20399C53.5085 6.51881 53.9808 5.95399 54.6937 5.92622C55.5271 5.88918 56.3604 5.88918 57.1937 5.92622C57.8974 5.95399 58.3419 6.50029 58.3234 7.21325C58.2956 7.87992 57.8141 8.33362 57.1197 8.35214C56.7308 8.35214 56.3419 8.35214 55.953 8.35214H55.9437Z" fill="#727272"/>
<path d="M50.4165 16.8203C53.5925 16.8203 56.7684 16.8203 59.9443 16.8203C60.648 16.8203 61.1017 17.1166 61.2869 17.6722C61.5184 18.3573 61.0832 19.1074 60.3795 19.2462C60.1758 19.2833 59.9721 19.2925 59.7684 19.2925C56.435 19.2925 53.0924 19.2925 49.7591 19.2925C46.861 19.2925 43.9536 19.2925 41.0554 19.2925C40.8424 19.2925 40.6202 19.2925 40.4073 19.2462C39.8517 19.1444 39.4258 18.6073 39.4258 18.0425C39.4258 17.5148 39.8424 16.9962 40.3702 16.8759C40.5647 16.8296 40.7591 16.8296 40.9536 16.8296C44.111 16.8296 47.2591 16.8296 50.4165 16.8296V16.8203Z" fill="#727272"/>
<path d="M50.3973 21.2656C52.8417 21.2656 55.2862 21.2656 57.7306 21.2656C58.4806 21.2656 58.9899 21.7564 58.9899 22.4601C58.9899 23.2008 58.4991 23.7008 57.7491 23.7101C52.851 23.7101 47.9436 23.7101 43.0454 23.7101C42.2954 23.7101 41.8047 23.2193 41.8047 22.4971C41.8047 21.7749 42.2954 21.2749 43.0269 21.2656C45.4806 21.2656 47.9436 21.2656 50.3973 21.2656V21.2656Z" fill="#727272"/>
<path d="M50.4443 25.6797C51.3424 25.6797 52.2498 25.6797 53.148 25.6797C53.685 25.6797 54.1017 25.9112 54.3332 26.4112C54.5369 26.8556 54.472 27.2815 54.185 27.6704C53.935 28.0038 53.5739 28.1519 53.1665 28.1519C51.3424 28.1612 49.5183 28.1704 47.685 28.1519C47.1757 28.1519 46.7035 27.976 46.4813 27.4575C46.2869 27.013 46.2961 26.5686 46.6109 26.1704C46.9072 25.8001 47.3239 25.6982 47.7683 25.6982C48.6572 25.6982 49.5461 25.6982 50.435 25.6982L50.4443 25.6797Z" fill="#727272"/>
</g>
<defs>
<clipPath id="clip0_317_1995">
<rect width="72.2222" height="100" fill="white" transform="translate(14)"/>
</clipPath>
</defs>
</svg>
