<svg width="211" height="61" viewBox="0 0 211 61" fill="none" xmlns="http://www.w3.org/2000/svg">
<g clip-path="url(#clip0_81_2929)">
<path d="M20.4882 60.7052C19.8096 59.9901 19.379 59.118 18.9448 58.2496C18.7733 57.903 18.6748 57.498 18.8135 57.0894C18.9156 56.7902 18.8427 56.5238 18.6931 56.2575C18.4887 55.8926 18.4669 55.546 18.7551 55.1811C18.9667 54.9111 19.0324 54.5645 18.9558 54.2142C18.8828 53.8785 18.8974 53.5757 19.1929 53.3348C19.3243 53.2254 19.3535 53.0576 19.3498 52.8934C19.3498 52.7146 19.3316 52.5394 19.317 52.3606C19.2696 51.8097 19.2842 51.7659 19.7731 51.5433C20.0467 51.4193 20.1708 51.2332 20.138 50.934C20.1234 50.7881 20.1088 50.6458 20.1088 50.4998C20.1161 50.0875 20.1963 49.9781 20.605 49.9416C20.9224 49.9124 21.1267 49.7847 21.1669 49.4563C21.1997 49.1753 21.3639 49.1243 21.612 49.1608C22.1301 49.2374 22.63 49.3286 23.0277 49.719C23.3087 49.9927 23.6626 50.0839 24.0566 50.0583C24.3777 50.0364 24.7025 50.0401 25.0272 50.0401C25.1221 50.0401 25.2352 50.0291 25.2644 50.1532C25.2899 50.259 25.2242 50.3393 25.1403 50.3977C25.0491 50.4633 24.9506 50.5181 24.8521 50.5764C24.6295 50.7114 24.4361 50.8829 24.25 51.0617C23.9873 51.3135 23.918 51.5652 24.0822 51.9265C24.3558 52.5139 24.2135 52.9262 23.6845 53.3166C23.316 53.5903 22.9073 53.78 22.4695 53.9113C22.1812 53.9989 21.955 54.1412 21.7543 54.3747C21.5135 54.6557 21.2326 54.9074 20.9407 55.1337C20.5758 55.4146 20.3569 55.7722 20.2584 56.21C20.1416 56.7281 20.0139 57.2462 19.9081 57.7717C19.8169 58.2168 19.9482 58.64 20.1161 59.045C20.2292 59.3151 20.3496 59.5778 20.4225 59.8587C20.4554 59.9828 20.4919 60.1032 20.6013 60.1907C20.7838 60.3367 20.7765 60.5228 20.678 60.7125H20.4846L20.4882 60.7052Z" fill="#B1B1B1"/>
<path d="M0 18.704C0.0656764 18.5435 0.127704 18.3793 0.19338 18.2188C0.368518 18.2954 0.397707 18.4559 0.41595 18.6201C0.437843 18.8135 0.437843 19.0069 0.437843 19.2002C0.437843 24.7572 0.441491 30.3105 0.430545 35.8675C0.430545 36.1995 0.554601 36.5899 0.189732 36.8453C0.127704 36.7468 0.0656764 36.6483 0.00364869 36.5534C0.00364869 30.6061 0.00364869 24.655 0.00364869 18.7077L0 18.704Z" fill="#B1B1B1"/>
<path d="M26.4601 50.6958C26.5805 50.5024 26.7666 50.4951 26.887 50.3856C26.96 50.32 27.0366 50.2543 27.0001 50.1412C26.9709 50.0463 26.8797 50.0463 26.7994 50.0427C26.752 50.039 26.7009 50.0427 26.6535 50.039C26.2266 50.0171 26.1463 49.9259 26.2084 49.5136C26.2266 49.4041 26.2667 49.2947 26.3069 49.1925C26.3653 49.0356 26.4638 48.9517 26.6426 49.0356C26.7301 49.0758 26.8213 49.1159 26.9162 49.1378C27.1753 49.1925 27.3613 49.0758 27.3322 48.8167C27.2592 48.2183 27.4051 47.6637 27.5511 47.0982C27.6277 46.7953 27.562 46.737 27.2263 46.7515C27.1789 46.7515 27.1278 46.7588 27.0804 46.7698C26.8761 46.8099 26.7703 46.737 26.7812 46.518C26.7885 46.3721 26.7921 46.2261 26.7921 46.0802C26.7921 45.916 26.8323 45.8284 27.033 45.7992C27.3467 45.7518 27.3942 45.6715 27.3358 45.376C27.2373 44.8761 27.2592 44.3799 27.354 43.8837C27.365 43.8216 27.3686 43.756 27.3723 43.6903C27.3723 43.5298 27.3103 43.4422 27.1351 43.486C27.0403 43.5079 26.9454 43.5334 26.8505 43.5553C26.5112 43.6283 26.4674 43.5954 26.4273 43.2379C26.4273 43.205 26.4236 43.1722 26.4236 43.1393C26.4163 42.5008 26.2412 42.3512 27.0658 42.3841C27.4234 42.3987 27.5474 42.2454 27.4307 41.9462C27.2373 41.4537 27.1899 40.9465 27.1862 40.4247C27.1862 40.089 27.1023 40.0526 26.8067 40.1912C26.7046 40.2386 26.6097 40.3007 26.5039 40.3445C26.3798 40.3955 26.2412 40.5524 26.1171 40.3992C25.9821 40.2313 25.9712 40.0015 25.9712 39.7971C25.9712 39.6074 26.1719 39.6184 26.3069 39.5892C26.4163 39.5673 26.5331 39.5819 26.6462 39.5636C26.9417 39.5198 27.0439 39.3994 26.9344 39.144C26.7155 38.6296 26.6389 38.0896 26.5842 37.5423C26.5513 37.2431 26.4674 37.2139 26.2084 37.3635C26.1244 37.4109 26.0515 37.4802 25.9675 37.5277C25.8471 37.597 25.7267 37.7539 25.5844 37.6444C25.4567 37.5423 25.4421 37.3562 25.4567 37.1956C25.4713 37.0095 25.6428 36.9913 25.7815 36.9585C26.4638 36.7979 26.4674 36.7979 26.2047 36.1776C26.0624 35.8456 26.0223 35.4917 25.9712 35.1414C25.9152 34.7474 25.7182 34.6403 25.3801 34.8203C25.2816 34.8751 25.1831 34.9298 25.0773 34.9772C24.9496 35.032 24.8146 35.1414 24.727 34.9152C24.6139 34.6197 24.6577 34.408 24.8729 34.3533C24.997 34.3205 25.1283 34.3314 25.2561 34.3132C25.6136 34.2621 25.6939 34.149 25.5406 33.8352C25.3546 33.4484 25.2816 33.0398 25.2378 32.6202C25.2086 32.3465 25.1429 32.321 24.8875 32.4268C24.8146 32.4596 24.7452 32.5071 24.6723 32.5363C24.5737 32.5727 24.4716 32.6822 24.3621 32.5946C24.249 32.5034 24.2673 32.3611 24.2782 32.2334C24.2928 32.0583 24.4387 32.0583 24.5664 32.0364C24.6467 32.0254 24.727 32.0254 24.8073 32.0108C25.0043 31.978 25.1065 31.854 25.0225 31.6679C24.8437 31.2592 24.7635 30.8396 24.7489 30.3981C24.7416 30.1865 24.6321 30.1062 24.4278 30.1938C24.3548 30.2266 24.2782 30.2558 24.2052 30.2887C24.052 30.358 23.9535 30.3033 23.9206 30.1427C23.8914 30.0041 23.906 29.8873 24.0848 29.8581C24.2819 29.8253 24.5409 29.9311 24.654 29.6939C24.7562 29.486 24.5701 29.2962 24.5263 29.0955C24.4752 28.873 24.4679 28.6468 24.457 28.4205C24.4351 28.0119 24.4169 27.9973 24.041 28.1177C23.979 28.1359 23.9206 28.1651 23.8586 28.1834C23.7418 28.2162 23.6725 28.1651 23.6433 28.052C23.6141 27.9499 23.6251 27.855 23.7345 27.8076C23.7929 27.782 23.855 27.7674 23.9206 27.7528C24.3074 27.6507 24.311 27.6507 24.2673 27.2785C24.2381 27.0377 24.1943 26.8005 24.1541 26.5597C24.1104 26.3189 24.0009 26.1693 23.72 26.2459C23.5813 26.2824 23.4572 26.2788 23.4281 26.0963C23.3989 25.9212 23.4609 25.8008 23.6506 25.8008C23.9608 25.8008 24.0301 25.6256 24.0009 25.3593C23.9863 25.217 23.9973 25.0674 23.9936 24.9214C23.9863 24.4654 23.9863 24.4544 23.5339 24.4106C23.3697 24.3924 23.3004 24.3304 23.3004 24.1735C23.3004 24.0385 23.3587 23.9582 23.4974 23.9472C23.5777 23.9399 23.6579 23.9363 23.7382 23.9326C23.9316 23.9217 23.9827 23.8086 23.9608 23.6371C23.9389 23.4766 23.9133 23.316 23.8987 23.1591C23.8841 22.9986 23.9681 22.8234 23.8805 22.6811C23.7783 22.5206 23.5813 22.6082 23.4317 22.5826C23.2237 22.5498 23.2383 22.3966 23.2456 22.2506C23.2566 22.0718 23.3733 22.0499 23.5193 22.0755C23.5667 22.0828 23.6141 22.0937 23.6616 22.101C24.0264 22.1484 24.0447 22.1338 24.0666 21.769C24.0812 21.561 24.0702 21.3457 24.1031 21.1414C24.1432 20.875 24.0155 20.7875 23.782 20.7802C23.7017 20.7802 23.6214 20.7729 23.5412 20.7656C23.3697 20.7473 23.3295 20.6452 23.3587 20.4919C23.3843 20.3496 23.4427 20.2475 23.6141 20.2803C23.8148 20.3168 24.0046 20.4299 24.2417 20.4007C24.2964 20.0468 24.322 19.6929 24.4497 19.3608C24.5227 19.1675 24.4241 19.0507 24.2198 19.0325C24.1396 19.0252 24.0593 19.0288 23.979 19.0179C23.6397 18.985 23.5886 18.8975 23.6981 18.591C23.7528 18.4304 23.855 18.4085 24.0009 18.4377C24.2016 18.4779 24.4023 18.6384 24.6029 18.5107C24.8219 18.372 24.7671 18.102 24.8182 17.8904C24.924 17.4708 24.9021 17.4635 24.4643 17.3285C24.3147 17.2811 24.0374 17.3103 24.1104 17.0439C24.1943 16.7484 24.3986 16.9673 24.5409 17.0147C24.9788 17.1643 25.0006 17.157 25.1612 16.7046C25.1831 16.6426 25.205 16.5842 25.2269 16.5222C25.3363 16.2108 25.2305 15.9943 24.9094 15.8727C24.5336 15.7304 24.4935 15.6684 24.6029 15.413C24.665 15.267 24.7489 15.2269 24.9058 15.2999C25.0882 15.3874 25.2524 15.5954 25.4786 15.4896C25.6902 15.3947 25.672 15.132 25.7669 14.9496C25.9384 14.6102 25.9274 14.6066 25.5917 14.4497C25.5042 14.4096 25.4166 14.3694 25.3254 14.3366C25.1138 14.2563 25.0773 14.114 25.1648 13.9133C25.267 13.6762 25.3254 13.6543 25.5589 13.8039C25.8629 13.9985 26.0746 13.9304 26.1938 13.5996C26.1938 13.5996 26.2047 13.5704 26.212 13.5558C26.3336 13.2274 26.2497 12.9696 25.9602 12.7823C25.8252 12.6947 25.672 12.629 25.7413 12.4101C25.8107 12.1985 25.8909 12.151 26.088 12.2532C26.1317 12.2751 26.1682 12.3043 26.212 12.3298C26.5915 12.5451 26.679 12.5487 26.7849 12.3517C26.9819 11.9759 26.9308 11.5636 26.6644 11.3994C26.6498 11.3921 26.6353 11.3848 26.6207 11.3775C26.1025 11.0856 26.0989 11.0747 26.3944 10.5347C26.5805 10.5529 26.7082 10.6879 26.8578 10.7791C27.0476 10.8959 27.1643 10.8448 27.2008 10.6259C27.2555 10.2938 27.23 9.98006 26.9199 9.75749C26.8396 9.69911 26.7666 9.63709 26.6936 9.57141C26.5586 9.44735 26.6061 9.3087 26.679 9.1737C26.763 9.02411 26.8651 9.11167 26.9673 9.15181C27.3103 9.28316 27.3431 9.25762 27.3249 8.88546C27.3139 8.6337 27.2482 8.42937 27.0366 8.25423C26.7812 8.03896 26.8323 7.83463 27.1534 7.72152C27.3139 7.66679 27.3467 7.56828 27.3395 7.42963C27.3285 7.26544 27.2811 7.13044 27.1534 6.99908C26.9344 6.77287 26.9563 6.59408 27.1862 6.35327C27.427 6.10151 27.438 5.88259 27.2117 5.64177C26.9527 5.36447 26.9819 5.05798 27.2847 4.85001C27.3942 4.77703 27.5182 4.7369 27.6496 4.72595C27.8576 4.70771 28.0692 4.67852 28.2772 4.67852C29.5396 4.67487 30.8021 4.67487 32.0645 4.67852C32.7213 4.67852 33.3488 4.80257 33.9217 5.14555C34.9397 5.75488 35.4578 6.64881 35.4651 7.82734C35.476 9.91074 35.4651 11.9978 35.4651 14.0812C35.4651 14.4534 35.4651 14.8255 35.4651 15.1977C35.4651 15.6842 35.7168 15.9274 36.2204 15.9274C37.7565 15.9274 39.2962 15.9274 40.8323 15.9274C41.157 15.9274 41.4781 15.942 41.8029 15.9712C43.328 16.1099 44.5248 17.3687 44.5978 18.8975C44.605 19.0434 44.605 19.1894 44.605 19.3353C44.605 24.9762 44.605 30.617 44.605 36.2579C44.605 36.5827 44.605 36.9037 44.5357 37.2212C44.2037 38.6369 42.985 39.6366 41.5256 39.6475C39.7304 39.6621 37.9352 39.6512 36.1364 39.6512C35.4724 39.6512 35.4687 39.6512 35.4687 40.3226C35.4687 42.8438 35.4687 45.365 35.4687 47.8863C35.4687 48.1782 35.4687 48.4664 35.4104 48.7547C35.0893 50.2981 33.7247 51.1847 32.5242 51.2102C30.9407 51.2431 29.3535 51.2248 27.7663 51.2212C27.2774 51.2212 26.8651 51.0059 26.4711 50.6921L26.4601 50.6958Z" fill="#B1B1B1"/>
<path d="M0.184774 36.8459C0.181126 30.9423 0.173828 25.0424 0.173828 19.1388C0.173828 18.8323 0.184774 18.5258 0.192072 18.2194C0.297884 17.9129 0.381803 17.6027 0.549643 17.3181C1.18087 16.2527 2.12223 15.7127 3.35184 15.7054C5.19807 15.6908 7.04066 15.7054 8.8869 15.7018C9.58744 15.7018 9.59109 15.7018 9.59109 15.0122C9.59109 12.6186 9.59839 10.2287 9.59109 7.83518C9.59109 6.92301 9.91948 6.16773 10.5689 5.54016C11.2257 4.90529 12.0394 4.68272 12.9223 4.67542C14.1994 4.66447 15.4801 4.67177 16.7571 4.67177C17.7751 4.67177 18.7967 4.67907 19.8147 4.66812C20.1577 4.66447 20.4897 4.7265 20.8254 4.76299C20.9276 4.77393 21.0115 4.81407 21.0845 4.87975C21.1939 4.98191 21.2377 5.08772 21.0772 5.18989C20.9677 5.25921 20.8582 5.32489 20.7597 5.40881C20.6831 5.47448 20.6539 5.573 20.705 5.67151C20.7451 5.75543 20.8254 5.77732 20.9093 5.77368C20.975 5.77368 21.037 5.75908 21.1027 5.74449C21.2268 5.72259 21.3326 5.73719 21.3508 5.89043C21.3654 6.00719 21.3581 6.1203 21.2195 6.16773C21.1903 6.17868 21.1574 6.18233 21.1246 6.18963C21.0005 6.20787 20.8911 6.24801 20.9093 6.39395C20.9276 6.5399 21.048 6.52895 21.1684 6.5326C21.3581 6.54355 21.442 6.78071 21.3143 6.94855C21.2596 7.02518 21.1574 7.06166 21.0918 7.13099C20.9093 7.32072 20.9166 7.43383 21.1538 7.56883C21.2705 7.63451 21.3326 7.68924 21.307 7.82424C21.2778 7.97019 21.1976 8.05046 21.0443 8.0614C20.8692 8.07235 20.6831 8.06505 20.5299 8.17086C20.4058 8.25478 20.289 8.35695 20.3255 8.52479C20.3693 8.71087 20.5226 8.70722 20.6758 8.69263C20.7378 8.68533 20.7999 8.69263 20.8619 8.69263C20.8619 9.14142 20.8546 9.14871 20.497 9.23993C20.3547 9.27277 20.2088 9.28736 20.0665 9.31655C19.8694 9.35669 19.7016 9.44791 19.5812 9.6121C19.4973 9.72521 19.4681 9.85291 19.5593 9.96967C19.6542 10.0901 19.7855 10.0828 19.9059 10.0025C20.0592 9.90399 20.238 9.77264 20.3876 9.92223C20.5335 10.0718 20.3474 10.247 20.3073 10.4075C20.2416 10.6556 20.0847 10.787 19.822 10.7979C19.6943 10.8052 19.5666 10.8271 19.4389 10.8527C18.9682 10.9366 18.8004 11.2029 18.8843 11.7247C19.0521 11.7648 19.158 11.6554 19.2711 11.5714C19.3623 11.5021 19.4571 11.4474 19.5739 11.4291C19.7782 11.4 19.8658 11.4839 19.7892 11.6663C19.687 11.9035 19.5557 12.126 19.4426 12.3596C19.344 12.5639 19.1616 12.5456 18.9828 12.5347C18.6252 12.5128 18.4027 12.6952 18.2713 13.009C18.2348 13.0966 18.1801 13.1915 18.2567 13.2827C18.337 13.3775 18.4319 13.3301 18.5231 13.2936C18.6727 13.2316 18.815 13.1513 18.9682 13.1075C19.1434 13.0565 19.2273 13.1477 19.1543 13.3119C19.0375 13.5782 18.8989 13.8336 18.7712 14.0927C18.7128 14.2058 18.607 14.2386 18.4939 14.2642C18.3188 14.3007 18.1436 14.3335 17.9721 14.3809C17.5671 14.4977 17.3847 14.8078 17.3008 15.1946C17.2825 15.2749 17.2862 15.3661 17.3555 15.4172C17.454 15.4901 17.5379 15.4172 17.6146 15.3624C17.7787 15.242 17.8955 15.0413 18.1436 15.0669C18.1582 15.6762 17.9466 16.0338 17.4102 16.2491C16.9979 16.4133 16.8082 16.7161 16.7827 17.143C16.779 17.2342 16.7681 17.3473 16.8812 17.3911C16.9687 17.4276 17.0308 17.3583 17.0928 17.3072C17.2241 17.2014 17.3227 17.0372 17.5671 17.0481C17.465 17.5225 17.4029 17.9749 16.9943 18.2923C16.779 18.4602 16.5966 18.6718 16.4068 18.8688C16.3156 18.96 16.2317 19.0622 16.2135 19.1972C16.2025 19.2811 16.2098 19.365 16.2755 19.4198C16.3448 19.4818 16.4251 19.4563 16.5017 19.4198C16.6586 19.3395 16.7717 19.1863 16.9578 19.1534C17.0235 19.5475 16.7936 20.3721 16.5272 20.6567C16.3521 20.8464 16.1697 21.0325 16.0566 21.2697C16.0091 21.3718 15.9435 21.4776 16.0128 21.5907C16.104 21.7403 16.2354 21.6674 16.3594 21.6345C16.385 21.6272 16.4178 21.6455 16.4762 21.6601C16.3959 22.1271 16.4506 22.6197 16.104 23.0247C15.9799 23.1706 15.9654 23.3822 15.9362 23.5756C15.9033 23.7982 15.8887 24.0062 16.1916 24.05C16.2317 24.0573 16.2828 24.0901 16.3083 24.1266C16.4689 24.3382 16.4032 25.0497 16.1916 25.2504C15.9362 25.4875 15.8085 25.7685 15.8158 26.1115C15.8231 26.4435 15.9179 26.4946 16.2281 26.3304C16.2682 26.3085 16.312 26.2903 16.4251 26.2355C16.4616 26.7755 16.717 27.279 16.2682 27.7497C16.1441 27.8811 16.104 28.0635 16.0712 28.2387C15.9909 28.6947 16.1368 28.8151 16.5966 28.6583C16.7206 29.0341 16.8155 29.377 16.52 29.7419C16.2828 30.0375 16.3083 30.4096 16.3813 30.7672C16.4214 30.9569 16.4944 31.0883 16.706 30.9387C16.8994 30.8037 16.9614 30.9131 16.9906 31.0846C17.0125 31.1941 17.0271 31.3072 17.0527 31.4167C17.0928 31.5881 17.06 31.7086 16.9067 31.8326C16.5127 32.1573 16.3667 32.836 16.5674 33.2848C16.6404 33.4453 16.7425 33.4526 16.8702 33.3468C17.0162 33.2264 17.1001 33.0294 17.3373 32.9965C17.5197 33.2921 17.5416 33.6314 17.6292 33.9561C17.6656 34.0911 17.5671 34.1532 17.4723 34.2262C16.9286 34.6312 16.779 35.1785 17.0344 35.7951C17.1074 35.9739 17.2059 35.9994 17.3701 35.8754C17.6693 35.6443 17.859 35.7197 17.9393 36.1016C18.0415 36.5941 18.0378 36.6051 17.6219 36.8787C17.3774 37.0393 17.2278 37.2582 17.1877 37.5465C17.1366 37.9186 17.1767 38.2871 17.2606 38.652C17.2825 38.7469 17.3008 38.8527 17.4139 38.8782C17.527 38.9038 17.589 38.8162 17.651 38.7432C17.7715 38.5936 17.8882 38.4367 18.0159 38.2908C18.0779 38.2215 18.1619 38.1485 18.2677 38.1959C18.3552 38.2361 18.3479 38.3273 18.3516 38.4075C18.3625 38.5681 18.3625 38.7323 18.3735 38.8928C18.3844 39.0534 18.3261 39.1701 18.1801 39.2504C17.7532 39.4803 17.6365 39.8707 17.651 40.3158C17.6583 40.5749 17.6729 40.8339 17.7204 41.0857C17.7569 41.2791 17.8846 41.3083 18.0378 41.1806C18.1838 41.0565 18.2713 40.8704 18.4902 40.7682C18.6654 41.0638 18.6252 41.3812 18.6216 41.6914C18.6216 41.8191 18.5012 41.8738 18.4063 41.9358C18.0998 42.1438 17.9685 42.4503 17.9612 42.8079C17.9539 43.0998 17.9612 43.3917 17.994 43.6799C18.0159 43.8696 18.1546 43.9061 18.3115 43.7894C18.3771 43.7419 18.4246 43.6726 18.4866 43.6215C18.534 43.5814 18.5888 43.5522 18.6727 43.4938C18.8004 43.7565 18.7602 44.0119 18.7566 44.26C18.7566 44.395 18.6398 44.4425 18.545 44.5045C17.9138 44.9059 17.9356 45.5626 17.9028 46.1902C17.8919 46.3982 18.0524 46.3836 18.2166 46.3143C18.5705 46.1647 18.5888 46.1793 18.6216 46.5405C18.6325 46.6864 18.6289 46.8324 18.6362 46.9783C18.6508 47.2045 18.5742 47.3614 18.3224 47.3724C18.0086 47.387 17.8663 47.5876 17.786 47.8504C17.7058 48.1131 17.6401 48.3794 17.5781 48.6458C17.5489 48.7662 17.5015 48.9158 17.6328 49.0033C17.7715 49.0946 17.8736 48.9669 17.9721 48.8939C18.0779 48.8173 18.1655 48.7224 18.275 48.6531C18.41 48.5728 18.5413 48.5764 18.545 48.7735C18.5523 49.2077 18.5924 49.6492 18.4647 50.0761C18.3188 50.5686 17.9575 50.8459 17.4978 51.0247C16.9104 51.2509 16.2864 51.2619 15.6771 51.2509C14.6883 51.229 13.7032 51.2509 12.718 51.229C11.2294 51.1962 10.0508 50.2804 9.68231 48.8902C9.60204 48.5874 9.59839 48.2846 9.59839 47.9744C9.59839 45.3729 9.59839 42.7677 9.59839 40.1662C9.59839 39.6773 9.36001 39.4328 8.88325 39.4328C7.08809 39.4328 5.28929 39.4328 3.49413 39.4328C2.49075 39.4328 1.62236 39.1117 0.940053 38.3492C0.549643 37.915 0.33437 37.4005 0.192072 36.8459H0.184774Z" fill="#B1B1B1"/>
<path d="M67.0141 31.0111C66.8828 29.5954 66.7332 28.1834 66.7223 26.7604C66.7077 24.5967 66.715 22.433 66.715 20.2694C66.715 19.7805 66.7223 19.7768 67.2002 19.7732C67.7001 19.7695 68.2036 19.7805 68.7035 19.7732C68.948 19.7695 69.0611 19.8717 69.0501 20.1161C69.0428 20.2438 69.0501 20.3752 69.0501 20.5029C69.0501 25.768 69.0501 31.033 69.0501 36.2981C69.0501 37.0205 69.1304 37.0096 68.3386 37.0096C67.9847 37.0096 67.6271 36.995 67.2732 37.0096C66.9813 37.0242 66.839 36.9074 66.7478 36.6301C66.4267 35.6304 66.0837 34.6379 65.7481 33.6455C65.3978 32.6056 65.0913 31.5475 64.6936 30.5258C64.0149 28.7927 63.5479 26.9976 63.0626 25.2061C63.0298 25.082 63.0261 24.9506 63.0079 24.8266C62.8838 24.6551 62.8619 24.4617 62.8911 24.1406C62.8546 24.48 62.9386 24.6952 62.9094 24.9178C63.2049 28.7051 63.1867 32.5034 63.2487 36.2981C63.2596 37.0096 63.2633 37.0096 62.5299 37.0132C62.1249 37.0132 61.7199 37.0059 61.3185 37.0132C61.0741 37.0132 60.9573 36.911 60.9719 36.6629C60.9792 36.5498 60.9719 36.4367 60.9719 36.3236C60.9719 31.0403 60.9719 25.757 60.9719 20.4774C60.9719 19.7111 60.9354 19.7805 61.6907 19.7768C62.0483 19.7768 62.4022 19.795 62.7561 19.7732C63.0553 19.7549 63.1867 19.8863 63.2742 20.1563C63.6136 21.1998 63.9456 22.247 64.3251 23.2795C65.0657 25.2973 65.7553 27.3296 66.3683 29.3875C66.5654 30.0515 66.7368 30.7265 66.9156 31.3979C66.9448 31.4344 66.9594 31.4854 66.9923 31.5146C67.0214 31.5402 67.0069 31.4927 67.0105 31.4818C67.047 31.3286 67.0689 31.1753 67.0105 31.0221L67.0141 31.0111Z" fill="#B1B1B1"/>
<path d="M173.609 28.4117C173.609 31.046 173.609 33.6804 173.609 36.3147C173.609 36.4607 173.609 36.6066 173.602 36.7526C173.594 36.9058 173.51 36.997 173.361 36.997C172.748 37.0007 172.131 37.0007 171.518 36.997C171.361 36.997 171.288 36.8949 171.288 36.7453C171.288 36.5993 171.285 36.4534 171.285 36.3074C171.285 33.8993 171.285 31.4912 171.285 29.083C171.285 28.4956 171.285 28.4956 170.697 28.4956C169.92 28.4956 169.143 28.4956 168.366 28.4956C167.829 28.4956 167.822 28.4992 167.822 29.0356C167.822 31.4291 167.822 33.819 167.822 36.2126C167.822 37.07 167.913 37.0116 167.001 37.0116C166.644 37.0116 166.29 37.0189 165.932 37.0116C165.531 37.0007 165.505 36.9715 165.494 36.5555C165.494 36.457 165.494 36.3622 165.494 36.2636C165.494 31.0095 165.494 25.7591 165.494 20.505C165.494 19.6804 165.469 19.7789 166.231 19.7752C166.651 19.7752 167.074 19.7789 167.494 19.7752C167.716 19.7752 167.822 19.8701 167.818 20.0927C167.818 20.2204 167.818 20.3517 167.818 20.4794C167.818 22.2417 167.818 24.0041 167.818 25.7627C167.818 25.9087 167.818 26.0546 167.826 26.2006C167.826 26.3976 167.928 26.4961 168.125 26.4961C168.285 26.4961 168.45 26.4998 168.61 26.4998C169.322 26.4998 170.033 26.4998 170.745 26.4998C171.27 26.4998 171.277 26.4852 171.281 25.9452C171.281 24.1026 171.281 22.26 171.281 20.4174C171.281 19.9868 171.49 19.7716 171.909 19.7716C172.361 19.7716 172.814 19.7789 173.266 19.7716C173.518 19.7679 173.62 19.8774 173.609 20.1218C173.602 20.2678 173.609 20.4137 173.609 20.5597C173.609 23.1794 173.609 25.7956 173.609 28.4153V28.4117Z" fill="#B1B1B1"/>
<path d="M130.334 28.3986C130.334 31.0147 130.334 33.6345 130.334 36.2506C130.334 36.3783 130.327 36.5096 130.334 36.6373C130.345 36.8745 130.258 37.0022 130.002 37.0022C129.451 36.9986 128.904 36.9986 128.353 37.0022C128.105 37.0022 128.003 36.8854 128.01 36.6446C128.014 36.4987 128.01 36.3527 128.01 36.2068C128.01 33.8972 128.01 31.5875 128.01 29.2743C128.01 29.1283 128.003 28.9824 128.01 28.8364C128.017 28.5993 127.919 28.4825 127.667 28.4825C126.744 28.4898 125.825 28.4862 124.901 28.4825C124.679 28.4825 124.577 28.581 124.584 28.8036C124.588 28.9495 124.584 29.0955 124.584 29.2414C124.584 31.5839 124.584 33.9264 124.584 36.2688C124.584 36.4148 124.58 36.5607 124.58 36.7067C124.58 36.8818 124.496 36.984 124.318 36.9876C123.719 36.9913 123.121 36.9913 122.522 36.9876C122.347 36.9876 122.26 36.8927 122.26 36.714C122.26 36.5863 122.256 36.4549 122.256 36.3272C122.256 31.0293 122.256 25.7278 122.256 20.4299C122.256 19.7257 122.223 19.7621 122.909 19.7621C123.347 19.7621 123.781 19.7549 124.219 19.7658C124.547 19.7731 124.569 19.8023 124.584 20.138C124.591 20.3459 124.584 20.5576 124.584 20.7692C124.584 22.433 124.584 24.0968 124.584 25.7606C124.584 25.8883 124.591 26.0196 124.584 26.1474C124.573 26.3991 124.704 26.494 124.942 26.4903C125.135 26.4903 125.328 26.4903 125.525 26.4903C126.171 26.4903 126.821 26.4903 127.466 26.4903C127.999 26.4867 128.014 26.4757 128.014 25.9467C128.014 24.1223 128.014 22.2943 128.014 20.47C128.014 19.6709 128.003 19.7694 128.729 19.7621C129.148 19.7621 129.572 19.7694 129.991 19.7621C130.236 19.7585 130.353 19.857 130.342 20.1051C130.338 20.2511 130.342 20.397 130.342 20.543C130.342 23.1591 130.342 25.7788 130.342 28.3949L130.334 28.3986Z" fill="#B1B1B1"/>
<path d="M89.7278 28.4933C89.7643 29.898 89.7643 31.4013 90.0051 32.89C90.0708 33.3059 90.1584 33.7182 90.3481 34.0977C90.6655 34.7362 91.1727 35.0865 91.8988 35.0573C92.6176 35.0281 93.1175 34.6705 93.3911 34.0065C93.6429 33.4008 93.7268 32.755 93.7706 32.1128C93.8144 31.4998 93.8071 30.8868 93.8071 30.2702C93.8071 29.9382 93.7706 29.9053 93.4458 29.8944C93.0262 29.8798 92.603 29.8944 92.1834 29.8834C91.8331 29.8725 91.7966 29.836 91.7857 29.4857C91.7747 29.0807 91.7857 28.6794 91.7857 28.2744C91.7857 28.0336 91.8878 27.9241 92.136 27.9241C93.3181 27.9277 94.4967 27.9241 95.6788 27.9277C96.0218 27.9277 96.0619 27.9715 96.0656 28.3328C96.0765 29.3653 96.0656 30.4016 95.9963 31.4341C95.9342 32.3025 95.854 33.1746 95.6496 34.0247C95.5876 34.2911 95.5183 34.5574 95.4307 34.8201C94.9856 36.1592 94.0625 36.9291 92.665 37.148C92.0301 37.2465 91.4062 37.2246 90.7859 37.0896C89.6731 36.8415 88.874 36.1847 88.3559 35.1777C87.9363 34.3604 87.7283 33.481 87.597 32.5835C87.3233 30.708 87.2686 28.8217 87.3525 26.928C87.4109 25.6181 87.4912 24.3155 87.7831 23.0312C87.8962 22.524 88.0421 22.0278 88.2756 21.5644C88.8996 20.3385 89.9066 19.6744 91.2749 19.5686C91.8222 19.5248 92.3731 19.5358 92.9168 19.6525C93.9457 19.8678 94.7083 20.4406 95.2446 21.3273C95.5037 21.7578 95.6971 22.2212 95.843 22.7028C95.9525 23.0604 95.9525 23.075 95.6168 23.2173C95.1096 23.4326 94.5988 23.6332 94.088 23.8376C93.7596 23.9653 93.7414 23.9616 93.6502 23.6296C93.5371 23.2246 93.4239 22.8196 93.2269 22.4474C92.946 21.9147 92.5045 21.6447 91.9024 21.6082C91.2092 21.5644 90.7166 21.8563 90.3992 22.462C90.0781 23.0786 89.9905 23.7536 89.9176 24.4287C89.7753 25.7458 89.7424 27.0703 89.7242 28.4933H89.7278Z" fill="#B1B1B1"/>
<path d="M82.403 19.7688C83.2933 19.7688 84.1835 19.7688 85.0738 19.7688C85.4934 19.7688 85.5117 19.7907 85.519 20.2067C85.5263 20.5606 85.5263 20.9182 85.519 21.2721C85.5117 21.7027 85.4898 21.7245 85.0337 21.7282C84.1434 21.7318 83.2531 21.7282 82.3628 21.7282C81.5784 21.7282 81.655 21.7099 81.6514 22.4433C81.6514 23.7861 81.6514 25.1251 81.6514 26.4678C81.6514 26.5809 81.6477 26.6941 81.6514 26.8072C81.6732 27.1283 81.6951 27.1647 82.0345 27.1684C82.8262 27.1793 83.6216 27.172 84.4134 27.1757C84.844 27.1757 85.0604 27.3849 85.0629 27.8033C85.0629 28.128 85.0702 28.4491 85.0629 28.7738C85.0519 29.135 85.03 29.1606 84.6688 29.1642C83.9099 29.1715 83.1473 29.1642 82.3884 29.1679C81.593 29.1679 81.655 29.1131 81.655 29.9049C81.655 31.3607 81.655 32.8129 81.655 34.2687C81.655 34.3818 81.655 34.495 81.655 34.6081C81.6696 34.9875 81.6878 35.0131 82.0855 35.0167C82.9904 35.024 83.8989 35.0167 84.8038 35.0167C85.2806 35.0167 85.519 35.2551 85.519 35.7319C85.519 36.0384 85.5117 36.3448 85.519 36.655C85.5226 36.9031 85.4059 37.0089 85.165 37.0016C85.0848 37.0016 85.0045 37.0016 84.9206 37.0016C83.2385 37.0016 81.5565 37.0016 79.8708 37.0016C79.7577 37.0016 79.6446 37.0016 79.5315 36.9943C79.3563 36.987 79.2688 36.8885 79.2651 36.717C79.2651 36.5893 79.2578 36.4579 79.2578 36.3302C79.2578 31.0287 79.2578 25.7272 79.2578 20.4256C79.2578 19.6886 79.2724 19.7725 79.9255 19.7688C80.7501 19.7688 81.5747 19.7688 82.403 19.7688V19.7688Z" fill="#B1B1B1"/>
<path d="M133.019 28.3428C133.019 25.7559 133.019 23.1726 133.019 20.5857C133.019 20.458 133.019 20.3266 133.019 20.1989C133.033 19.7866 133.041 19.7684 133.471 19.7684C135.234 19.7647 136.996 19.7647 138.762 19.7684C139.185 19.7684 139.203 19.7903 139.211 20.2026C139.218 20.5747 139.218 20.9469 139.211 21.3191C139.2 21.6985 139.174 21.7277 138.784 21.7314C137.879 21.7387 136.97 21.7314 136.066 21.7314C135.277 21.7314 135.35 21.7131 135.35 22.4392C135.35 23.8439 135.35 25.2523 135.35 26.6571C135.35 27.1606 135.365 27.1716 135.872 27.1752C136.664 27.1788 137.456 27.1752 138.251 27.1752C138.758 27.1752 138.758 27.1825 138.766 27.6933C138.766 27.9998 138.766 28.3063 138.766 28.6128C138.762 29.1564 138.762 29.1564 138.233 29.1637C137.894 29.1637 137.554 29.1637 137.215 29.1637C136.81 29.1637 136.405 29.1637 136 29.1637C135.569 29.1637 135.353 29.3729 135.35 29.7913C135.35 30.8093 135.35 31.8273 135.35 32.8453C135.35 33.4108 135.347 33.9764 135.35 34.5419C135.354 34.9907 135.372 35.0089 135.814 35.0126C136.751 35.0199 137.689 35.0126 138.627 35.0126C139.207 35.0126 139.207 35.0162 139.211 35.6146C139.211 35.8737 139.211 36.1327 139.211 36.3918C139.211 36.7931 139.016 36.995 138.627 36.9975C138.561 36.9975 138.499 36.9975 138.434 36.9975C136.879 36.9975 135.328 36.9975 133.774 36.9975C133.646 36.9975 133.515 37.0011 133.387 36.9975C133.055 36.9792 133.033 36.9573 133.019 36.629C133.012 36.4684 133.019 36.3042 133.019 36.1437C133.019 33.5422 133.019 30.9406 133.019 28.3391V28.3428Z" fill="#B1B1B1"/>
<path d="M175.936 28.7315C175.929 26.9765 176.038 25.3674 176.436 23.7912C176.64 22.9702 176.939 22.1894 177.403 21.4779C178.625 19.6025 180.971 19.172 182.624 19.8251C183.098 20.0112 183.106 20.0258 183.109 20.5329C183.109 20.9708 183.109 21.405 183.106 21.8428C183.106 22.0362 183.014 22.1019 182.825 22.0252C182.646 21.9523 182.463 21.8829 182.277 21.8282C181.172 21.5035 180.121 21.8939 179.493 22.8644C179.172 23.357 178.968 23.9043 178.851 24.4772C178.348 26.94 178.304 29.4138 178.771 31.8876C178.888 32.5079 179.099 33.1027 179.435 33.6463C180.146 34.792 181.285 35.2152 182.569 34.8102C182.631 34.792 182.69 34.7665 182.752 34.7482C183.065 34.6533 183.098 34.6643 183.106 34.9781C183.117 35.478 183.106 35.9778 183.106 36.4813C183.106 36.6857 183.014 36.8061 182.832 36.89C182.445 37.0651 182.036 37.1782 181.617 37.2038C179.72 37.3169 178.194 36.6638 177.191 34.9963C176.6 34.0112 176.323 32.9166 176.148 31.7928C175.98 30.7383 175.921 29.6729 175.94 28.7425L175.936 28.7315Z" fill="#B1B1B1"/>
<path d="M172.84 13.2594C185.217 13.2594 197.593 13.2594 209.969 13.2594C210.148 13.2594 210.327 13.2558 210.502 13.2594C210.845 13.274 210.922 13.3762 210.882 13.7119C210.863 13.8688 210.79 13.9454 210.637 13.9527C210.509 13.9563 210.378 13.96 210.25 13.96C185.271 13.96 160.289 13.96 135.31 13.96C135.211 13.96 135.117 13.96 135.018 13.96C134.712 13.9417 134.664 13.8943 134.657 13.6316C134.65 13.3434 134.708 13.2813 135.029 13.2631C135.208 13.2558 135.387 13.2631 135.562 13.2631C147.985 13.2631 160.413 13.2631 172.837 13.2631L172.84 13.2594Z" fill="#B1B1B1"/>
<path d="M161.568 29.4136C161.568 31.7087 161.568 34.0037 161.568 36.2987C161.568 36.4264 161.56 36.5578 161.568 36.6855C161.575 36.9153 161.455 37.0029 161.239 37.0029C160.688 37.0029 160.141 37.0029 159.59 37.0029C159.364 37.0029 159.273 36.8825 159.276 36.6672C159.276 36.5067 159.276 36.3425 159.276 36.1819C159.276 31.6247 159.276 27.0675 159.276 22.5103C159.276 21.7295 159.287 21.8134 158.554 21.8098C158.036 21.8098 157.518 21.8134 156.999 21.8061C156.649 21.7988 156.627 21.7806 156.616 21.4595C156.605 21.007 156.616 20.5546 156.613 20.1022C156.609 19.8468 156.733 19.7555 156.97 19.7665C157.083 19.7738 157.196 19.7665 157.31 19.7665C159.378 19.7665 161.451 19.7665 163.52 19.7665C163.647 19.7665 163.779 19.7701 163.906 19.7665C164.103 19.7628 164.209 19.8468 164.209 20.0547C164.209 20.54 164.209 21.0253 164.209 21.5106C164.209 21.7477 164.082 21.8098 163.87 21.8098C163.272 21.8061 162.673 21.8098 162.075 21.8098C161.575 21.8098 161.571 21.8171 161.568 22.3315C161.568 24.6922 161.568 27.0493 161.568 29.41V29.4136Z" fill="#B1B1B1"/>
<path d="M92.1437 41.8909C80.2672 41.8909 68.3907 41.8909 56.5142 41.8909C56.3354 41.8909 56.1566 41.8836 55.9815 41.8909C55.7516 41.8982 55.6641 41.7851 55.6641 41.5662C55.6641 41.2926 55.7188 41.2196 55.9888 41.2013C56.1165 41.1904 56.2479 41.1977 56.3756 41.1977C80.2234 41.1977 104.075 41.1977 127.923 41.1977C128.036 41.1977 128.149 41.194 128.262 41.1977C128.572 41.2159 128.627 41.2853 128.627 41.5735C128.627 41.8399 128.477 41.8982 128.251 41.8909C128.091 41.8836 127.926 41.8909 127.766 41.8909C115.889 41.8909 104.013 41.8909 92.1364 41.8909H92.1437Z" fill="#B1B1B1"/>
<path d="M75.3746 29.4359C75.3746 31.7163 75.3746 33.9931 75.3746 36.2735C75.3746 36.4195 75.3709 36.5654 75.3709 36.7114C75.3709 36.8792 75.2979 36.996 75.1192 36.9996C74.5354 37.0033 73.9552 37.0033 73.3714 36.9996C73.189 36.9996 73.116 36.8902 73.116 36.7187C73.116 36.5581 73.1124 36.3939 73.1124 36.2334C73.1124 31.6762 73.1124 27.119 73.1124 22.5581C73.1124 21.7189 73.1671 21.8211 72.3425 21.8138C71.8098 21.8101 71.2734 21.8065 70.7407 21.8138C70.4999 21.8138 70.3832 21.7335 70.3868 21.4781C70.3941 21.0111 70.3905 20.5404 70.3868 20.0734C70.3868 19.8763 70.4707 19.7705 70.675 19.7742C70.7736 19.7742 70.8684 19.7742 70.9669 19.7742C73.1197 19.7742 75.2724 19.7742 77.4215 19.7742C77.5017 19.7742 77.582 19.7815 77.6623 19.7742C77.8885 19.7632 77.9834 19.8763 77.9797 20.0952C77.9761 20.5623 77.9761 21.033 77.9797 21.5C77.9797 21.7299 77.8739 21.8138 77.655 21.8101C77.0566 21.8065 76.4582 21.8101 75.8598 21.8101C75.3819 21.8138 75.3746 21.8174 75.3746 22.3064C75.3746 24.6816 75.3746 27.0569 75.3746 29.4359V29.4359Z" fill="#B1B1B1"/>
<path d="M150.726 28.3752C150.726 25.7591 150.726 23.1393 150.726 20.5232C150.726 20.3773 150.733 20.2313 150.726 20.0854C150.722 19.8592 150.832 19.7679 151.054 19.7716C151.62 19.7789 152.186 19.7752 152.751 19.7716C152.952 19.7716 153.047 19.8701 153.047 20.0671C153.047 20.2277 153.05 20.3919 153.05 20.5524C153.05 25.1242 153.05 29.696 153.05 34.2715C153.05 35.0997 153.014 35.0195 153.824 35.0231C154.696 35.0231 155.572 35.0231 156.444 35.0231C156.889 35.0231 156.903 35.045 156.907 35.4938C156.911 35.8805 156.9 36.271 156.907 36.6577C156.911 36.9058 156.805 37.0153 156.56 37.0043C156.48 37.0043 156.4 37.0043 156.319 37.0043C154.652 37.0043 152.988 37.0043 151.321 37.0043C151.222 37.0043 151.127 37.0007 151.029 37.0007C150.836 37.0007 150.726 36.9095 150.722 36.7088C150.722 36.5629 150.719 36.4169 150.719 36.271C150.719 33.6366 150.719 31.0023 150.719 28.3716L150.726 28.3752Z" fill="#B1B1B1"/>
<path d="M58.3506 28.4131C58.3506 31.0329 58.3506 33.649 58.3506 36.2688C58.3506 36.4147 58.3506 36.5607 58.3469 36.7066C58.3469 36.8745 58.2739 36.9949 58.0952 36.9949C57.4639 36.9985 56.8327 36.9985 56.2015 36.9949C56.0446 36.9949 55.9716 36.8891 55.9643 36.7431C55.957 36.6154 55.957 36.484 55.957 36.3563C55.957 31.0366 55.957 25.7204 55.957 20.4006C55.957 20.3349 55.957 20.2729 55.957 20.2072C55.9716 19.7986 55.9862 19.7803 56.4095 19.7731C56.9093 19.7658 57.4129 19.7658 57.9127 19.7731C58.3287 19.7803 58.336 19.7913 58.3469 20.2218C58.3469 20.3495 58.3469 20.4809 58.3469 20.6086C58.3469 23.2101 58.3469 25.8153 58.3469 28.4168L58.3506 28.4131Z" fill="#B1B1B1"/>
<path d="M131.204 15.0283C131.302 14.875 131.262 14.7108 131.262 14.5539C131.266 13.6162 131.262 12.6785 131.262 11.7408C131.262 11.2409 131.27 11.2409 131.784 11.2373C132.21 11.2324 132.423 11.4428 132.423 11.8685C132.423 13.4374 132.423 15.0064 132.423 16.5717C132.423 16.6994 132.419 16.8307 132.415 16.9584C132.412 17.1153 132.32 17.1919 132.171 17.2029C131.857 17.2321 131.58 17.2065 131.339 16.9365C130.624 16.1229 129.879 15.3348 129.146 14.5357C128.788 14.1453 128.424 13.7585 128.04 13.3462C127.927 13.5177 127.957 13.6637 127.957 13.7987C127.957 14.7692 127.957 15.7398 127.957 16.7067C127.957 17.1847 127.935 17.1992 127.468 17.2102C127.387 17.2102 127.307 17.2102 127.223 17.2102C126.815 17.1956 126.793 17.181 126.793 16.7541C126.789 15.0903 126.789 13.4229 126.793 11.7591C126.793 11.5839 126.698 11.3212 126.953 11.2628C127.209 11.2045 127.504 11.1461 127.73 11.3832C127.796 11.4526 127.862 11.5255 127.927 11.5985C128.891 12.6457 129.854 13.6929 130.824 14.7364C130.927 14.8458 131 15.0064 131.197 15.0246L131.204 15.0283Z" fill="#B1B1B1"/>
<path d="M86.9204 13.4634C86.9204 13.9487 86.9058 14.434 86.9204 14.9192C86.9933 16.9187 85.3806 17.5426 84.0051 17.3128C82.8229 17.1157 82.1552 16.3313 82.1369 15.1309C82.1187 13.9852 82.1296 12.8358 82.1369 11.6901C82.1369 11.2596 82.1552 11.245 82.5711 11.245C83.3592 11.245 83.2972 11.1866 83.3009 11.931C83.3009 12.8687 83.3009 13.8064 83.3009 14.7404C83.3009 14.9192 83.3009 15.098 83.3228 15.2732C83.4067 15.8788 83.8664 16.2729 84.494 16.2838C85.1471 16.2984 85.636 15.9117 85.7309 15.2914C85.7601 15.1017 85.7564 14.9046 85.7564 14.7113C85.7564 13.7079 85.7564 12.7081 85.7564 11.7047C85.7564 11.2523 85.771 11.2414 86.2235 11.2414C86.9642 11.2414 86.9167 11.183 86.9204 11.9091C86.9204 12.4272 86.9204 12.9416 86.9204 13.4598V13.4634Z" fill="#B1B1B1"/>
<path d="M25.8276 47.045C25.7911 47.1837 25.7437 47.3551 25.7035 47.5303C25.6123 47.9061 25.5503 48.2856 25.5904 48.6796C25.6342 49.0992 25.4664 49.2488 25.0869 49.1211C24.4265 48.8949 23.7624 48.8803 23.0801 48.9715C22.6095 49.0372 22.5985 49.008 22.697 48.5556C22.7335 48.395 22.7627 48.2381 22.697 48.0812C22.6386 47.9389 22.5365 47.8368 22.3796 47.8149C22.2154 47.7893 22.1023 47.8769 22.0257 48.0156C21.9709 48.1141 21.9235 48.2162 21.8834 48.322C21.7338 48.7052 21.7374 48.7088 21.3288 48.665C21.2011 48.6504 21.0734 48.6285 20.9456 48.603C20.4604 48.5081 20.0152 48.5847 19.6066 48.873C19.5263 48.9277 19.446 48.9861 19.3585 49.0189C19.1687 49.0919 19.0155 48.9825 19.0666 48.7891C19.1651 48.3987 19.2198 47.9973 19.4205 47.6361C19.5956 47.3187 19.851 47.107 20.2159 47.0669C20.6756 47.0195 21.0259 46.8516 21.1135 46.3445C21.1317 46.2423 21.2084 46.1547 21.3178 46.1803C21.6353 46.2569 21.9855 46.2459 22.1826 46.6145C22.3869 46.9976 22.4963 47.0085 22.8649 46.7458C23.0181 46.64 23.1458 46.6181 23.3136 46.6728C23.9595 46.8881 24.6199 46.8626 25.2803 46.7604C25.3752 46.7458 25.4737 46.7312 25.5685 46.7312C25.813 46.7312 25.8604 46.7823 25.8422 47.0413L25.8276 47.045Z" fill="#B1B1B1"/>
<path d="M19.4839 43.1068C19.4839 43.0083 19.4839 42.9134 19.4839 42.8149C19.5058 42.3369 19.7064 41.9793 20.1771 41.8042C20.542 41.6692 20.7901 41.443 20.7718 41.0197C20.7645 40.8081 20.874 40.7351 21.0674 40.7315C21.3739 40.7205 21.6658 40.7023 21.9139 40.9723C22.1109 41.1876 22.3152 41.173 22.4867 40.9322C22.6473 40.706 22.8297 40.695 23.0669 40.6914C23.7236 40.6841 24.333 40.4688 24.9314 40.2134C25.4203 40.0054 25.4458 40.0236 25.4495 40.5527C25.4495 41.0088 25.5115 41.4503 25.6757 41.8808C25.818 42.2566 25.7085 42.4318 25.3327 42.4135C24.6176 42.3771 23.9535 42.5412 23.315 42.8368C23.2858 42.8514 23.253 42.8587 23.2238 42.8696C23.0304 42.9535 22.9136 42.9098 22.9027 42.6799C22.8954 42.5668 22.899 42.4537 22.8735 42.3442C22.8151 42.0852 22.6144 41.9173 22.3992 41.9429C22.1583 41.9757 22.1036 42.1581 22.0598 42.3588C22.0233 42.5303 22.1182 42.7383 21.9723 42.8696C21.8081 43.0156 21.5746 43.0046 21.3702 43.0119C20.7828 43.0375 20.3085 43.26 19.9436 43.7198C19.8743 43.8073 19.7867 43.9059 19.659 43.8657C19.5313 43.8292 19.5167 43.7015 19.5094 43.5884C19.4948 43.4279 19.4875 43.2673 19.4766 43.1068H19.4839V43.1068Z" fill="#B1B1B1"/>
<path d="M18.6371 37.8618C18.6116 37.3766 18.7904 37.0044 19.2757 36.7891C19.6259 36.6322 19.8485 36.3659 19.7609 35.9426C19.7281 35.7857 19.7901 35.6945 19.947 35.669C20.2608 35.6142 20.5636 35.523 20.8555 35.7967C21.0781 36.0083 21.2715 35.9828 21.4174 35.7274C21.5634 35.4683 21.7604 35.4209 22.0122 35.4026C22.5412 35.3661 23.0119 35.1545 23.4716 34.9137C23.6285 34.8334 23.7818 34.7422 23.9423 34.6619C24.0919 34.5853 24.1904 34.6364 24.2342 34.7969C24.2525 34.8736 24.2634 34.9538 24.2707 35.0341C24.3035 35.5048 24.4057 35.9536 24.61 36.3878C24.7779 36.749 24.6794 36.9205 24.2962 36.9424C23.6322 36.9789 23.0302 37.1795 22.4646 37.5189C22.4245 37.5444 22.3807 37.5663 22.3369 37.5845C22.0815 37.694 22.0195 37.6648 21.972 37.4058C21.9538 37.3109 21.9611 37.2124 21.9392 37.1175C21.8735 36.8585 21.6692 36.7052 21.4503 36.7453C21.2022 36.7891 21.1766 36.9825 21.162 37.1868C21.1219 37.7706 21.1255 37.7925 20.5746 37.891C20.0017 37.9932 19.5347 38.2267 19.2246 38.7339C19.1552 38.847 19.0531 38.9492 18.9071 38.9127C18.7575 38.8725 18.7539 38.7229 18.7284 38.5989C18.6773 38.3617 18.6371 38.1245 18.6444 37.8655L18.6371 37.8618Z" fill="#B1B1B1"/>
<path d="M22.8254 45.5174C22.8254 45.4518 22.8291 45.3897 22.8254 45.324C22.8035 45.0686 22.6576 44.8935 22.4606 44.8826C22.2125 44.868 22.1322 45.0504 22.0665 45.2401C21.8804 45.7838 21.8804 45.8057 21.3222 45.7692C20.7603 45.7327 20.2641 45.8495 19.8481 46.2472C19.7569 46.3311 19.6547 46.4442 19.5088 46.353C19.392 46.2837 19.4212 46.1559 19.4212 46.0428C19.4285 45.7327 19.4723 45.4299 19.5635 45.138C19.6839 44.7622 19.9138 44.4885 20.3261 44.4009C20.7238 44.317 21.012 44.1163 21.0558 43.6748C21.0741 43.4851 21.1835 43.4304 21.355 43.4486C21.6652 43.4778 21.9461 43.5252 22.1468 43.8244C22.3146 44.0762 22.4934 44.0871 22.7087 43.8646C22.8802 43.6858 23.0371 43.6675 23.2633 43.704C23.8288 43.7989 24.3907 43.7259 24.9453 43.5836C25.0548 43.5544 25.1642 43.5252 25.2737 43.4997C25.5948 43.4304 25.6386 43.4742 25.6167 43.8098C25.6167 43.8573 25.6057 43.9047 25.5984 43.9521C25.5072 44.4155 25.4963 44.8789 25.5875 45.3459C25.6605 45.7218 25.5145 45.8677 25.1351 45.7911C24.5002 45.6634 23.8836 45.7072 23.2633 45.8786C22.8181 45.9991 22.8035 45.9808 22.8218 45.5174H22.8254Z" fill="#B1B1B1"/>
<path d="M19.1562 40.3966C19.1635 39.8092 19.3241 39.3859 19.8495 39.167C20.1925 39.0247 20.4005 38.773 20.3494 38.3753C20.3238 38.1855 20.4041 38.1089 20.5829 38.0907C20.904 38.0578 21.2105 38.0104 21.4805 38.2913C21.6629 38.4811 21.8745 38.4555 22.0095 38.2257C22.1628 37.963 22.3671 37.9374 22.6189 37.9338C23.0458 37.9265 23.4471 37.8061 23.8339 37.6382C24.0564 37.5434 24.2717 37.4302 24.4943 37.3354C24.7862 37.2077 24.8446 37.2296 24.8701 37.5324C24.9175 38.0797 24.965 38.6197 25.1948 39.1378C25.3152 39.4115 25.1985 39.572 24.881 39.5793C24.155 39.5939 23.4836 39.7873 22.8414 40.123C22.5897 40.2543 22.5386 40.2105 22.4875 39.9405C22.462 39.8128 22.462 39.6815 22.4255 39.5611C22.3598 39.3568 22.2139 39.229 21.9913 39.2473C21.776 39.2619 21.7067 39.4297 21.6738 39.6158C21.6665 39.6632 21.6629 39.7107 21.6593 39.7618C21.6228 40.2507 21.6264 40.2762 21.1557 40.331C20.5282 40.4039 20.0027 40.6156 19.6342 41.1519C19.5795 41.2285 19.5065 41.3088 19.3934 41.2833C19.2584 41.2504 19.2438 41.13 19.2292 41.0169C19.2 40.7943 19.1781 40.5681 19.1599 40.4076L19.1562 40.3966Z" fill="#B1B1B1"/>
<path d="M209.638 41.9767C209.638 41.4002 209.638 40.8529 209.638 40.3093C209.638 40.1305 209.638 39.9553 209.638 39.7766C209.645 39.2876 209.821 39.1599 210.299 39.2767C210.408 39.3022 210.474 39.357 210.481 39.4664C210.492 39.5613 210.492 39.6598 210.492 39.7547C210.492 40.8675 210.496 41.984 210.492 43.0969C210.492 43.2611 210.569 43.4836 210.342 43.5602C210.116 43.6369 209.905 43.5931 209.726 43.4034C209.054 42.6809 208.379 41.9658 207.701 41.2543C207.58 41.1266 207.489 40.966 207.307 40.904C207.161 40.9916 207.215 41.1339 207.212 41.2506C207.204 41.8964 207.212 42.5423 207.205 43.1881C207.205 43.3267 207.241 43.5019 207.059 43.5566C206.858 43.615 206.635 43.6442 206.449 43.5274C206.303 43.4398 206.354 43.2647 206.354 43.1224C206.351 42.1847 206.354 41.2506 206.354 40.3129C206.354 40.1013 206.347 39.8933 206.354 39.6817C206.362 39.543 206.303 39.3606 206.478 39.2986C206.661 39.2329 206.865 39.2147 207.029 39.3533C207.153 39.4555 207.256 39.5832 207.365 39.7036C208.029 40.4078 208.69 41.1156 209.354 41.8235C209.408 41.8818 209.459 41.9475 209.638 41.9767V41.9767Z" fill="#B1B1B1"/>
<path d="M186.028 41.4499C186.028 42.0155 186.032 42.581 186.028 43.1466C186.025 43.5552 185.981 43.5917 185.587 43.599C185.167 43.6063 185.124 43.5662 185.113 43.132C185.105 42.7598 185.105 42.3876 185.105 42.0155C185.105 41.7965 185.003 41.6907 184.781 41.6944C184.394 41.7017 184.003 41.7017 183.617 41.6944C183.39 41.6944 183.292 41.7965 183.292 42.0155C183.292 42.4022 183.292 42.7926 183.285 43.1794C183.285 43.318 183.321 43.4968 183.146 43.5589C182.945 43.6282 182.73 43.6355 182.533 43.537C182.431 43.4859 182.442 43.3728 182.442 43.2779C182.442 42.0483 182.442 40.8223 182.442 39.5927C182.442 39.33 182.573 39.268 182.807 39.268C183.186 39.268 183.255 39.2899 183.277 39.5891C183.299 39.8956 183.285 40.2021 183.296 40.5086C183.31 40.8953 183.339 40.9318 183.711 40.9428C184.051 40.9537 184.39 40.9537 184.729 40.9428C185.051 40.9318 185.094 40.888 185.109 40.5742C185.124 40.2677 185.113 39.9613 185.127 39.6548C185.134 39.5161 185.109 39.33 185.299 39.3008C185.518 39.2644 185.758 39.2133 185.955 39.3446C186.072 39.4212 186.028 39.5818 186.032 39.7095C186.032 40.2896 186.032 40.8734 186.032 41.4536L186.028 41.4499Z" fill="#B1B1B1"/>
<path d="M88.3457 14.2066C88.3457 13.3857 88.3457 12.5611 88.3457 11.7401C88.3457 11.2512 88.353 11.2475 88.8237 11.2402C88.8565 11.2402 88.8894 11.2402 88.9222 11.2402C89.506 11.2402 89.5096 11.2402 89.5096 11.824C89.5096 13.0171 89.5096 14.2103 89.5096 15.4034C89.5096 15.5165 89.5096 15.6296 89.5096 15.7427C89.5206 16.1696 89.5315 16.1842 89.9438 16.1915C90.2832 16.1988 90.6225 16.1879 90.9618 16.1952C91.323 16.2061 91.3376 16.2243 91.3559 16.5856C91.3559 16.6184 91.3559 16.6512 91.3559 16.6841C91.3559 17.2022 91.3376 17.2241 90.8122 17.2277C90.1664 17.2314 89.5206 17.2314 88.8748 17.2277C88.353 17.2277 88.3494 17.2204 88.3457 16.6731C88.3457 15.8522 88.3457 15.0276 88.3457 14.2066V14.2066Z" fill="#B1B1B1"/>
<path d="M139.158 41.4426C139.158 42.041 139.165 42.6357 139.158 43.2341C139.154 43.5552 139.088 43.599 138.734 43.599C138.384 43.599 138.326 43.5552 138.315 43.2268C138.3 42.8401 138.315 42.4533 138.304 42.0665C138.293 41.7418 138.26 41.709 137.932 41.7017C137.56 41.6907 137.187 41.7017 136.819 41.7017C136.596 41.7017 136.494 41.8002 136.494 42.0191C136.494 42.4241 136.498 42.8255 136.483 43.2305C136.472 43.5625 136.414 43.6026 136.064 43.6026C135.71 43.6026 135.64 43.5589 135.64 43.2414C135.633 42.0301 135.64 40.8223 135.637 39.611C135.637 39.3592 135.746 39.2753 135.987 39.2716C136.37 39.2716 136.447 39.2935 136.469 39.5781C136.494 39.8992 136.476 40.224 136.491 40.545C136.505 40.8953 136.542 40.9354 136.888 40.9464C137.242 40.9573 137.6 40.9464 137.954 40.9464C138.198 40.9464 138.304 40.8333 138.304 40.5925C138.304 40.2714 138.304 39.9467 138.322 39.6256C138.344 39.2935 138.41 39.2571 138.807 39.2753C139.121 39.2899 139.15 39.3081 139.154 39.6584C139.161 40.2568 139.154 40.8515 139.154 41.4499L139.158 41.4426Z" fill="#B1B1B1"/>
<path d="M18.4197 35.1739C18.4014 34.7032 18.5802 34.3639 19.0363 34.1815C19.3318 34.0647 19.5143 33.8494 19.4595 33.5028C19.434 33.3386 19.507 33.262 19.6602 33.2401C19.9302 33.2036 20.182 33.1306 20.441 33.335C20.6891 33.532 20.7731 33.4992 21.0029 33.2292C21.0942 33.1233 21.1744 33.0504 21.3167 33.0394C21.9771 32.9883 22.5646 32.7329 23.1411 32.4264C23.433 32.2695 23.5059 32.3024 23.5461 32.6381C23.5972 33.0759 23.6811 33.4919 23.8781 33.8932C23.9912 34.1194 23.8963 34.2873 23.6409 34.2982C22.9769 34.3274 22.3785 34.539 21.802 34.8492C21.6269 34.944 21.4919 34.9148 21.459 34.6813C21.4444 34.5719 21.4225 34.4551 21.3715 34.3566C21.2912 34.2034 21.1562 34.1121 20.9737 34.145C20.8059 34.1742 20.7439 34.3055 20.711 34.4588C20.711 34.4734 20.7074 34.4916 20.7037 34.5062C20.66 34.6594 20.795 34.8419 20.6636 34.9696C20.5177 35.1119 20.3024 35.1192 20.1163 35.1447C19.6201 35.2104 19.2516 35.4694 18.9232 35.8234C18.6824 36.0788 18.562 36.0386 18.4853 35.6957C18.4452 35.5242 18.4379 35.3454 18.416 35.1703L18.4197 35.1739Z" fill="#B1B1B1"/>
<path d="M168.605 43.3109C168.525 43.3109 168.445 43.3109 168.364 43.3109C168.124 43.3182 168.007 43.2087 168.011 42.9642C168.014 42.6906 168.003 42.4133 168.007 42.1396C168.007 41.8988 167.908 41.7821 167.66 41.7894C167.368 41.7967 167.076 41.7821 166.788 41.7894C166.566 41.793 166.478 41.6945 166.456 41.4719C166.391 40.7677 166.445 40.6984 167.164 40.6948C168.105 40.6948 168.007 40.7495 168.011 39.8665C168.014 39.1185 168.011 39.1185 168.769 39.1441C169.207 39.1587 169.226 39.1733 169.233 39.622C169.237 39.8483 169.229 40.0745 169.237 40.3007C169.251 40.6473 169.28 40.6765 169.638 40.6911C169.912 40.7021 170.189 40.7021 170.462 40.6984C170.703 40.6984 170.824 40.8006 170.813 41.0487C170.813 41.0961 170.813 41.1472 170.813 41.1946C170.824 41.7784 170.813 41.7857 170.229 41.7894C170.003 41.7894 169.777 41.7967 169.55 41.7894C169.324 41.7857 169.229 41.8988 169.233 42.1177C169.237 42.3586 169.233 42.603 169.229 42.8438C169.218 43.2744 169.193 43.2999 168.751 43.3145C168.704 43.3145 168.653 43.3145 168.605 43.3145V43.3109Z" fill="#B1B1B1"/>
<path d="M17.9746 32.7683C17.9746 32.2502 18.1242 31.9182 18.5329 31.743C18.8393 31.6117 19.0473 31.4146 19.0327 31.0498C19.0254 30.9111 19.1094 30.8418 19.2407 30.8308C19.5144 30.809 19.788 30.7506 20.0252 30.9658C20.2222 31.1446 20.4156 31.0972 20.5615 30.8929C20.6454 30.7798 20.7367 30.7141 20.879 30.7104C21.5029 30.6812 22.0794 30.4769 22.6413 30.2142C22.9733 30.061 23.028 30.0902 23.0645 30.4587C23.1047 30.8637 23.1484 31.2577 23.3236 31.6336C23.433 31.8744 23.3528 31.9911 23.0828 32.0349C22.8456 32.0714 22.5975 32.0641 22.3603 32.1006C21.9882 32.1553 21.6525 32.3232 21.3095 32.4691C21.0322 32.5859 21.0213 32.5713 20.9556 32.2903C20.941 32.2283 20.941 32.1626 20.9228 32.1006C20.8644 31.8926 20.7367 31.754 20.5068 31.7759C20.3025 31.7941 20.266 31.9619 20.2259 32.1225C20.1894 32.2721 20.2806 32.4582 20.1164 32.5713C19.9777 32.6661 19.8099 32.6698 19.6494 32.6917C19.1677 32.7537 18.7518 32.9106 18.4307 33.3083C18.2483 33.5345 18.106 33.4834 18.0403 33.2098C18.0002 33.0383 17.9856 32.8595 17.9746 32.7756V32.7683Z" fill="#B1B1B1"/>
<path d="M17.8398 30.4028C17.807 29.9139 17.9785 29.5563 18.4674 29.3775C18.6535 29.3118 18.8031 29.1878 18.8505 28.9762C18.8797 28.8448 18.8104 28.6478 18.9965 28.6004C19.2263 28.542 19.4708 28.4836 19.7007 28.6186C19.7299 28.6332 19.7518 28.6587 19.7773 28.677C20.0947 28.874 20.102 28.885 20.3866 28.6295C20.4924 28.5347 20.6019 28.4982 20.7332 28.4982C21.2623 28.5018 21.7476 28.3413 22.2292 28.1443C22.7035 27.9509 22.7072 27.9545 22.7546 28.4872C22.7838 28.8083 22.8349 29.1221 22.9517 29.4286C23.0575 29.7059 22.9735 29.8446 22.678 29.8373C22.0833 29.8263 21.5287 29.965 20.9887 30.2021C20.7953 30.2897 20.6785 30.2167 20.6712 29.9942C20.6712 29.9139 20.6603 29.83 20.6311 29.757C20.5691 29.5928 20.4487 29.4797 20.2662 29.5016C20.0984 29.5198 20.0363 29.6548 20.0035 29.8081C19.8941 30.286 19.894 30.2897 19.4124 30.3481C18.9855 30.3992 18.5878 30.494 18.2923 30.8443C18.212 30.9392 18.1208 31.0596 17.9675 30.9829C17.8471 30.9246 17.8654 30.7932 17.8544 30.6838C17.8435 30.5889 17.8435 30.4904 17.8398 30.3955V30.4028Z" fill="#B1B1B1"/>
<path d="M191.06 42.4255C191.159 42.5168 191.257 42.6262 191.374 42.7065C191.669 42.9145 191.991 42.9947 192.33 42.8269C192.709 42.6408 192.757 42.1811 192.428 41.9111C192.29 41.798 192.118 41.7396 191.95 41.6812C191.753 41.6082 191.553 41.5426 191.367 41.4477C190.94 41.2361 190.699 40.8894 190.721 40.4005C190.743 39.8897 190.976 39.4956 191.458 39.3023C192.089 39.0469 192.691 39.149 193.246 39.5394C193.384 39.6343 193.406 39.7255 193.279 39.8496C193.209 39.9152 193.147 39.9919 193.089 40.0685C192.987 40.1998 192.888 40.1962 192.76 40.0977C192.531 39.9152 192.271 39.8605 191.987 39.9371C191.783 39.9955 191.644 40.1232 191.615 40.3348C191.586 40.5392 191.71 40.6742 191.877 40.7544C192.049 40.8384 192.235 40.9004 192.417 40.9697C192.538 41.0172 192.658 41.0609 192.775 41.1157C193.264 41.3419 193.589 41.6849 193.589 42.2614C193.589 42.8634 193.286 43.2684 192.768 43.5238C192.115 43.8485 191.268 43.6953 190.75 43.1808C190.48 42.9108 190.48 42.867 190.761 42.608C190.841 42.5314 190.914 42.4401 191.053 42.4219L191.06 42.4255Z" fill="#B1B1B1"/>
<path d="M134.794 40.2787C133.791 39.8044 133.163 39.881 132.63 40.5268C132.258 40.9793 132.24 41.8404 132.594 42.2964C133.101 42.9496 133.783 43.0444 134.827 42.5883C134.904 42.8109 134.86 43.0335 134.86 43.2524C134.86 43.4275 134.736 43.5005 134.59 43.5516C133.043 44.0697 131.463 43.0882 131.463 41.5302C131.463 41.2894 131.463 41.0486 131.521 40.8078C131.85 39.5234 133.324 38.7937 134.561 39.2972C134.765 39.3811 134.882 39.5016 134.863 39.7314C134.849 39.9029 134.904 40.0853 134.794 40.2787V40.2787Z" fill="#B1B1B1"/>
<path d="M17.5527 28.27C17.5746 27.8979 17.7388 27.5512 18.1803 27.398C18.5634 27.2666 18.7896 27.0441 18.6984 26.6026C18.6546 26.3946 18.7568 26.2924 18.9611 26.2997C19.2165 26.307 19.4902 26.2888 19.6033 26.6099C19.6872 26.847 19.8842 26.847 20.0302 26.7157C20.3075 26.4603 20.6395 26.453 20.9789 26.4311C21.3182 26.4092 21.6502 26.3362 21.9786 26.2414C22.2997 26.1501 22.3763 26.2012 22.4493 26.5296C22.5113 26.8142 22.5441 27.1025 22.5989 27.3871C22.6427 27.6133 22.5587 27.7154 22.3325 27.7373C21.7852 27.7921 21.2452 27.8942 20.738 28.1241C20.5666 28.2007 20.4571 28.1496 20.4133 27.9672C20.3841 27.8395 20.3659 27.7118 20.2856 27.606C20.2017 27.5002 20.1032 27.4162 19.9572 27.4418C19.8332 27.4637 19.7711 27.5585 19.7347 27.6753C19.7201 27.7227 19.7164 27.7702 19.7055 27.8176C19.6142 28.1788 19.6106 28.1971 19.2676 28.1752C18.7677 28.1387 18.3409 28.2664 17.9906 28.6349C17.914 28.7152 17.8264 28.8137 17.6987 28.7663C17.5491 28.7079 17.571 28.5583 17.5564 28.4342C17.5564 28.4014 17.5564 28.3686 17.5564 28.27H17.5527Z" fill="#B1B1B1"/>
<path d="M165.701 42.6412C165.822 42.7981 165.756 42.9805 165.77 43.1484C165.789 43.3782 165.672 43.5059 165.46 43.5716C164.95 43.7285 164.431 43.7541 163.935 43.5716C162.862 43.1812 162.268 42.342 162.381 41.1781C162.487 40.1017 163.286 39.3063 164.366 39.1859C164.705 39.1494 165.044 39.1567 165.373 39.2625C165.738 39.3793 165.77 39.4158 165.774 39.8135C165.774 39.9558 165.811 40.1054 165.687 40.2732C165.26 40.0178 164.8 39.8354 164.282 40.0214C163.997 40.1236 163.767 40.2915 163.596 40.5359C163.213 41.0759 163.22 41.8494 163.603 42.353C164.052 42.9367 164.618 43.017 165.705 42.6449L165.701 42.6412Z" fill="#B1B1B1"/>
<path d="M176.527 40.2797C176.093 40.0462 175.644 39.8236 175.123 40.0133C174.824 40.1228 174.583 40.3016 174.404 40.5606C174.014 41.1225 174.046 41.9143 174.477 42.4069C174.969 42.9724 175.644 43.0344 176.535 42.5893C176.557 42.6112 176.593 42.6294 176.597 42.6513C176.67 43.4796 176.575 43.5927 175.743 43.6766C174.758 43.7751 173.842 43.268 173.441 42.3996C173.032 41.5129 173.244 40.3673 173.959 39.7251C174.605 39.1449 175.371 39.0537 176.181 39.2617C176.579 39.3639 176.611 39.4222 176.608 39.8382C176.608 39.9768 176.655 40.1264 176.52 40.276L176.527 40.2797Z" fill="#B1B1B1"/>
<path d="M199.248 40.2773C198.806 40.0292 198.339 39.8213 197.803 40.0292C197.504 40.146 197.274 40.3357 197.102 40.5984C196.727 41.1749 196.781 41.9594 197.226 42.441C197.73 42.9847 198.398 43.0358 199.292 42.5687C199.372 42.8059 199.335 43.0431 199.328 43.2729C199.321 43.4772 199.149 43.5283 198.996 43.5721C197.234 44.0939 195.771 42.784 195.986 41.1311C196.179 39.6315 197.449 38.9346 198.81 39.2375C199.314 39.3506 199.35 39.4163 199.339 39.9307C199.339 40.0402 199.368 40.1569 199.248 40.2773V40.2773Z" fill="#B1B1B1"/>
<path d="M22.2283 23.3139C22.2648 23.9342 22.2648 23.9305 21.6519 23.9415C21.2505 23.9488 20.8455 23.9342 20.4441 24.0218C20.2398 24.0692 20.0829 24.0291 20.1194 23.7627C20.1231 23.7299 20.1194 23.697 20.1194 23.6678C20.1158 23.4854 20.0172 23.3613 19.8567 23.2957C19.6962 23.23 19.5502 23.3103 19.4772 23.4343C19.3021 23.7372 19.0467 23.7773 18.7366 23.7335C18.4228 23.6897 18.1272 23.7335 17.8645 23.9378C17.7478 24.0291 17.6018 24.0911 17.4632 23.9816C17.3464 23.8904 17.3792 23.7481 17.3975 23.6204C17.4595 23.1315 17.6529 22.7228 18.109 22.4747C18.2075 22.42 18.3024 22.358 18.3899 22.2886C18.8533 21.9165 19.2218 21.9858 19.5356 22.5149C19.6195 22.6572 19.7363 22.7666 19.8859 22.6754C20.1632 22.5076 20.4478 22.5769 20.736 22.5769C21.1228 22.5769 21.5132 22.5842 21.9 22.5769C22.1517 22.5696 22.2502 22.679 22.2283 22.9272C22.2174 23.0549 22.2283 23.1862 22.2283 23.3139Z" fill="#B1B1B1"/>
<path d="M19.284 17.7676C19.6818 17.8187 19.9335 17.9865 20.0649 18.3222C20.2181 18.7089 20.2254 18.7053 20.6377 18.7016C20.7034 18.7016 20.7727 18.6907 20.8311 18.7126C21.382 18.9169 21.9476 19.0227 22.535 19.0118C22.7357 19.0118 22.8379 19.1322 22.7649 19.3329C22.6591 19.6248 22.5934 19.9203 22.5934 20.2304C22.5934 20.4019 22.4985 20.453 22.338 20.4092C21.7761 20.2596 21.2179 20.11 20.6523 19.9714C20.4553 19.924 20.3896 19.8108 20.4042 19.6248C20.4115 19.4971 20.4224 19.3621 20.2911 19.2781C20.1488 19.1869 20.0138 19.1942 19.9043 19.3329C19.8095 19.4533 19.7693 19.6649 19.5686 19.6357C19.3169 19.5992 19.0651 19.5335 18.8535 19.3694C18.817 19.3402 18.7878 19.2964 18.7623 19.2599C18.6382 19.0957 18.4959 19.103 18.3427 19.2088C18.2223 19.2891 18.1092 19.3876 17.9815 19.4496C17.799 19.5408 17.664 19.4277 17.6859 19.2271C17.6969 19.1249 17.7443 19.041 17.8063 18.968C18.1493 18.5593 18.5434 18.2018 18.9739 17.888C19.0797 17.8114 19.2038 17.7712 19.2877 17.7712L19.284 17.7676Z" fill="#B1B1B1"/>
<path d="M22.307 25.021C22.3216 25.8383 22.307 25.8565 21.5408 25.8091C21.1723 25.7836 20.8038 25.7179 20.4389 25.6632C20.2966 25.6413 20.1725 25.5756 20.0521 25.4807C19.7858 25.2691 19.7055 25.2764 19.5048 25.5355C19.3954 25.6778 19.2786 25.7507 19.1108 25.7763C18.5817 25.8565 18.0709 25.9551 17.6695 26.3747C17.4944 26.5607 17.3047 26.4586 17.2864 26.1922C17.2609 25.7799 17.3849 25.4114 17.7498 25.1925C18.0636 25.0028 18.3336 24.7984 18.454 24.4372C18.5343 24.2 18.7386 24.2146 18.9356 24.2219C19.1363 24.2292 19.2932 24.2511 19.3808 24.4956C19.4975 24.8167 19.7128 24.875 19.9719 24.6598C20.1397 24.5211 20.2966 24.4773 20.4973 24.4883C20.9351 24.5175 21.3657 24.4737 21.7998 24.408C22.2705 24.335 22.2997 24.3642 22.307 24.8313C22.307 24.9115 22.307 24.9918 22.307 25.021V25.021Z" fill="#B1B1B1"/>
<path d="M186.479 39.3231C186.796 39.2428 187.037 39.2793 187.274 39.2756C187.471 39.2683 187.548 39.4179 187.635 39.5529C187.865 39.9178 188.095 40.2863 188.336 40.6658C188.551 40.5746 188.598 40.3885 188.693 40.2498C188.785 40.1185 188.865 39.9762 188.952 39.8412C189.354 39.1954 189.397 39.1735 190.211 39.3267C190.226 39.5055 190.098 39.6186 190.014 39.75C189.675 40.279 189.332 40.8081 188.978 41.3298C188.836 41.5378 188.77 41.7567 188.777 42.0085C188.788 42.4281 188.788 42.8477 188.777 43.2673C188.77 43.5555 188.704 43.5957 188.372 43.5957C188.033 43.5957 187.953 43.5555 187.942 43.2855C187.923 42.8659 187.923 42.4463 187.934 42.0267C187.942 41.7421 187.869 41.494 187.708 41.2532C187.303 40.6329 186.913 40.0054 186.479 39.3194V39.3231Z" fill="#B1B1B1"/>
<path d="M22.4036 21.1255C22.3853 21.3809 22.3707 21.64 22.3525 21.8954C22.3379 22.107 22.2321 22.1763 22.0278 22.1216C21.5242 21.9866 21.0061 21.9975 20.488 21.9939C20.1268 21.9939 20.1231 21.9793 20.145 21.6108C20.1523 21.5123 20.156 21.421 20.0976 21.3335C19.9407 21.0963 19.6707 21.1036 19.5357 21.3919C19.4153 21.6546 19.2693 21.6728 19.0395 21.5779C18.6162 21.4028 18.2003 21.359 17.7989 21.6509C17.7187 21.7093 17.6128 21.7166 17.5326 21.64C17.4523 21.5633 17.4632 21.4648 17.4924 21.37C17.5472 21.1985 17.642 21.0452 17.7624 20.9175C18.0507 20.611 18.3353 20.3045 18.6418 20.0199C18.941 19.7426 19.5539 19.9324 19.6233 20.3301C19.6598 20.5527 19.751 20.622 19.9699 20.6256C20.6777 20.6402 21.3746 20.8008 22.0898 20.7716C22.3671 20.7606 22.4218 20.8518 22.3999 21.1255H22.4036Z" fill="#B1B1B1"/>
<path d="M18.2539 17.1891C18.2539 16.7512 18.5093 16.3791 18.907 16.2368C19.1515 16.1529 19.3996 16.0762 19.6477 16.0106C20.0855 15.8975 20.4249 16.0507 20.5781 16.4776C20.6839 16.7731 20.8408 16.9008 21.151 16.8717C21.2276 16.8644 21.3188 16.8717 21.3881 16.9008C21.8661 17.1125 22.3696 17.2183 22.8731 17.3387C23.1796 17.4117 23.2052 17.4664 23.1431 17.7802C23.1176 17.9079 23.0921 18.0319 23.0592 18.1596C22.9534 18.6011 22.906 18.6267 22.4535 18.4953C22.096 18.3932 21.7457 18.2655 21.3845 18.1706C21.1656 18.1122 21.0743 18.0137 21.0634 17.7729C21.0415 17.3168 20.8299 17.2365 20.4358 17.5065C20.0928 17.74 19.7791 17.6415 19.6441 17.2584C19.4872 16.8206 19.323 16.7658 18.9435 17.0285C18.8231 17.1088 18.7246 17.2183 18.6115 17.3131C18.5385 17.3752 18.4619 17.4481 18.3561 17.408C18.2393 17.3642 18.2649 17.2511 18.2539 17.1854V17.1891Z" fill="#B1B1B1"/>
<path d="M21.5236 16.1417C21.5601 15.9556 21.5419 15.8133 21.3996 15.7221C21.2463 15.6236 21.1004 15.671 20.9471 15.7549C20.5202 15.9921 20.2904 15.8753 20.17 15.3828C20.0787 15.0106 19.9145 14.9303 19.5789 15.1091C19.4074 15.2003 19.2541 15.3207 19.0899 15.4229C19.0206 15.463 18.944 15.4995 18.8637 15.4484C18.7652 15.3864 18.7725 15.2879 18.7835 15.1894C18.8309 14.8026 19.1374 14.456 19.557 14.3502C19.8051 14.2845 20.0641 14.2444 20.3159 14.2006C20.7537 14.1276 21.0748 14.321 21.1806 14.7588C21.25 15.0507 21.3704 15.2259 21.6915 15.2259C21.7827 15.2259 21.8848 15.2587 21.9651 15.3062C22.3884 15.5506 22.8408 15.7148 23.3005 15.8753C23.6654 16.0067 23.6946 16.0578 23.5669 16.4008C23.2859 17.156 23.4173 17.2874 22.5161 16.8678C22.2825 16.7583 22.0454 16.6525 21.8082 16.554C21.5966 16.4701 21.4105 16.3789 21.5273 16.1308L21.5236 16.1417Z" fill="#B1B1B1"/>
<path d="M23.1596 2.40096C23.3238 2.25866 23.477 2.28055 23.6156 2.2842C23.9221 2.28785 24.225 2.29514 24.5205 2.16744C24.7139 2.08352 24.8489 2.16379 24.838 2.37906C24.827 2.63812 24.9292 2.83515 25.0678 3.04677C25.2867 3.3788 25.2065 3.65246 24.8416 3.92246C25.1007 4.11584 25.159 4.42233 25.294 4.68503C25.3342 4.76166 25.3488 4.84558 25.294 4.9149C25.2211 5.00977 25.1189 4.96963 25.0277 4.94409C24.7942 4.88206 24.6227 4.73977 24.5351 4.5172C24.4475 4.30192 24.3198 4.27273 24.1192 4.3749C23.9002 4.48801 23.6485 4.49895 23.4113 4.52084C23.0537 4.55368 22.7108 4.62301 22.3751 4.75071C22.2693 4.79085 22.1416 4.82004 22.0577 4.71787C21.9664 4.60476 22.0102 4.46976 22.0686 4.353C22.2401 4.01368 22.7619 3.83489 23.2143 3.96624C23.3858 4.01732 23.5427 4.0903 23.7032 3.92246C23.8054 3.80935 23.809 3.74732 23.685 3.6561C23.5244 3.5357 23.3566 3.53935 23.1778 3.58313C22.8494 3.66705 22.521 3.75462 22.1927 3.83124C22.0686 3.86043 21.919 3.90422 21.8679 3.73273C21.8168 3.57218 21.9081 3.45543 22.0394 3.37151C22.1525 3.29853 22.2839 3.30218 22.4116 3.28759C22.6196 3.26934 22.8312 3.26205 23.0355 3.21826C23.4077 3.13434 23.4843 2.91542 23.2763 2.57974C23.2435 2.52866 23.2033 2.48123 23.1486 2.40825L23.1596 2.40096Z" fill="#B1B1B1"/>
<path d="M20.9737 13.6544C20.9737 13.5814 20.9883 13.5011 20.9846 13.4209C20.9627 13.1618 20.8132 13.0378 20.5614 13.1071C20.3753 13.1582 20.2075 13.2567 20.025 13.3297C19.9484 13.3588 19.8681 13.3698 19.8025 13.3005C19.7368 13.2311 19.7477 13.1545 19.7769 13.0779C19.8864 12.7933 20.0433 12.5598 20.3753 12.5123C20.6307 12.4759 20.8861 12.4248 21.1415 12.4065C21.6852 12.3664 22.0209 12.6145 22.1376 13.1582C22.196 13.4428 22.3529 13.6033 22.612 13.7128C23.1118 13.928 23.5095 14.3367 24.0422 14.5045C24.1918 14.552 24.1991 14.6906 24.1371 14.8293C24.0641 14.9898 23.9985 15.154 23.9255 15.3145C23.8124 15.5626 23.7248 15.5991 23.473 15.4678C23.1045 15.2708 22.747 15.0518 22.3821 14.8439C22.207 14.7453 22.1121 14.6213 22.196 14.4097C22.258 14.2491 22.1887 14.1324 22.0574 14.0375C21.9114 13.9353 21.7837 13.9755 21.6633 14.0776C21.5173 14.2017 21.3823 14.3549 21.1561 14.2163C20.9372 14.0813 20.9336 13.8806 20.9737 13.6544V13.6544Z" fill="#B1B1B1"/>
<path d="M21.6258 10.7654C22.2789 10.7435 22.5562 10.9223 22.724 11.4331C22.8371 11.7797 22.9466 12.0679 23.3516 12.2175C23.7529 12.3671 24.0996 12.659 24.4754 12.8853C24.6359 12.9838 24.7053 13.0969 24.6286 13.283C24.5411 13.4909 24.4644 13.7026 24.3878 13.9178C24.3294 14.0893 24.2236 14.1112 24.0959 14.0054C23.7165 13.6953 23.3078 13.4435 22.8517 13.2647C22.6839 13.199 22.6364 13.0859 22.7167 12.9181C22.8152 12.7065 22.7605 12.6043 22.5087 12.5678C21.8958 12.4875 21.8082 12.3781 21.7717 11.7724C21.7425 11.3309 21.5382 11.2105 21.1295 11.4148C20.958 11.5024 20.7975 11.6155 20.6333 11.7177C20.564 11.7578 20.4874 11.8125 20.4144 11.7505C20.3451 11.6958 20.3597 11.6046 20.3706 11.5243C20.4363 11.0865 20.6443 10.8164 21.031 10.8274C21.2718 10.8347 21.5126 10.7763 21.6367 10.7617L21.6258 10.7654Z" fill="#B1B1B1"/>
<path d="M22.4399 9.19593C22.9106 9.18134 23.2535 9.4258 23.3447 9.89648C23.4141 10.2504 23.6038 10.4547 23.8775 10.6554C24.2131 10.9035 24.5306 11.1735 24.9064 11.3705C25.1946 11.5201 25.2238 12.2207 24.9757 12.4469C24.8918 12.5235 24.7933 12.5126 24.7057 12.4615C24.2788 12.2024 23.8556 11.9361 23.4323 11.6697C23.3229 11.6004 23.2973 11.491 23.3411 11.3705C23.436 11.1078 23.3338 10.9655 23.0638 10.9364C22.5858 10.8853 22.3341 10.6372 22.3487 10.1409C22.356 9.93297 22.221 9.86364 22.0312 9.86729C21.8159 9.87459 21.6262 9.9731 21.4292 10.0351C21.265 10.0862 21.1008 10.1045 21.0096 9.92202C20.922 9.74323 21.0351 9.61553 21.1555 9.50242C21.265 9.40026 21.3891 9.32728 21.5386 9.30904C21.8597 9.2689 22.1808 9.23242 22.4435 9.19958L22.4399 9.19593Z" fill="#B1B1B1"/>
<path d="M141.049 41.3996C141.049 42.0125 141.049 42.6219 141.049 43.2349C141.049 43.3772 141.057 43.5486 140.863 43.5778C140.644 43.607 140.411 43.6581 140.21 43.5158C140.126 43.4538 140.137 43.3407 140.137 43.2458C140.137 42.0381 140.137 40.8304 140.137 39.6227C140.137 39.3855 140.214 39.276 140.469 39.2651C141.009 39.2432 141.053 39.2651 141.057 39.8051C141.06 40.3378 141.057 40.8669 141.057 41.3996H141.049Z" fill="#B1B1B1"/>
<path d="M172.508 41.4504C172.508 42.0306 172.508 42.6107 172.508 43.1908C172.508 43.3295 172.537 43.5083 172.359 43.563C172.158 43.625 171.943 43.6396 171.749 43.5338C171.651 43.4827 171.665 43.366 171.665 43.2711C171.665 42.0452 171.658 40.8192 171.665 39.5932C171.665 39.2904 171.727 39.2612 172.114 39.2685C172.453 39.2758 172.497 39.294 172.501 39.6115C172.512 40.2245 172.501 40.8374 172.501 41.4504H172.508Z" fill="#B1B1B1"/>
<path d="M200.996 41.4021C200.996 42.0004 200.996 42.5988 200.996 43.1972C200.996 43.3359 201.028 43.5147 200.842 43.5621C200.623 43.6168 200.39 43.6533 200.186 43.522C200.098 43.4672 200.113 43.3468 200.113 43.2519C200.113 42.0406 200.105 40.8256 200.113 39.6142C200.113 39.2895 200.16 39.2712 200.547 39.2676C200.934 39.2676 200.985 39.2931 200.988 39.6033C200.999 40.2016 200.988 40.8 200.988 41.3984L200.996 41.4021Z" fill="#B1B1B1"/>
<path d="M195.17 41.4425C195.17 42.0409 195.177 42.6393 195.17 43.234C195.166 43.5514 195.093 43.5989 194.743 43.5989C194.393 43.5989 194.32 43.5514 194.32 43.2304C194.313 42.019 194.313 40.8076 194.32 39.5963C194.32 39.2971 194.371 39.2715 194.721 39.2679C195.108 39.2642 195.163 39.2898 195.17 39.5999C195.181 40.2129 195.17 40.8259 195.17 41.4425V41.4425Z" fill="#B1B1B1"/>
<path d="M22.799 8.06313C22.945 8.06313 23.0909 8.04853 23.2332 8.06313C23.6163 8.11421 23.9155 8.30394 23.9958 8.698C24.0615 9.01908 24.222 9.19057 24.5322 9.30003C24.8204 9.39855 25.0466 9.62477 25.2692 9.83639C25.5246 10.0845 25.4845 10.3946 25.4224 10.6975C25.3896 10.8617 25.2364 10.9018 25.1233 10.8069C24.7985 10.5369 24.4264 10.3472 24.0578 10.1502C23.952 10.0954 23.9484 9.99693 23.9958 9.90207C24.1199 9.66125 23.9849 9.54449 23.7842 9.45693C23.4959 9.32922 23.2478 9.17963 23.1639 8.83665C23.1201 8.65786 22.9486 8.61043 22.7698 8.64327C22.5473 8.68705 22.3247 8.71624 22.0985 8.71259C21.9817 8.71259 21.8686 8.69435 21.8139 8.57394C21.7555 8.43164 21.8285 8.32583 21.9197 8.22732C22.0255 8.11786 22.1605 8.06678 22.3101 8.06313C22.4707 8.05583 22.6312 8.06313 22.7917 8.06313H22.799Z" fill="#B1B1B1"/>
<path d="M26.2521 6.78732C26.2047 5.97367 26.201 5.17095 26.1426 4.36824C26.0514 3.14228 25.8982 1.93092 25.5041 0.759689C25.4895 0.712256 25.4713 0.668472 25.4603 0.621039C25.4348 0.493335 25.402 0.351036 25.5698 0.299954C25.7011 0.259819 25.7814 0.361982 25.8325 0.464145C25.9529 0.708607 26.0843 0.95307 26.1791 1.20848C26.6607 2.48187 26.8578 3.79175 26.5987 5.14541C26.4929 5.69272 26.4674 6.25826 26.2521 6.78367V6.78732Z" fill="#B1B1B1"/>
<path d="M19.4258 50.1319C18.7691 51.6133 18.2619 53.1421 18.0138 54.7475C17.9481 55.1781 17.9226 55.6159 17.8751 56.0464C17.8606 56.1741 17.8606 56.3274 17.6781 56.3201C17.5066 56.3128 17.492 56.1669 17.4774 56.0391C17.368 55.1124 17.4191 54.2002 17.6964 53.3063C18.0247 52.2518 18.4699 51.2521 19.1121 50.3472C19.185 50.2414 19.2471 50.1319 19.3164 50.0225C19.4076 50.0006 19.455 50.0298 19.4258 50.1319V50.1319Z" fill="#B1B1B1"/>
<path d="M23.5705 6.86081C23.7749 6.83891 23.9391 6.92284 24.023 7.12351C24.2419 7.63798 24.5922 7.99555 25.1395 8.18528C25.5043 8.30934 25.6649 8.71434 25.581 9.1011C25.5518 9.2361 25.4606 9.31637 25.3401 9.23245C24.9716 8.9807 24.4316 8.92232 24.3477 8.34218C24.3295 8.20352 24.1872 8.15609 24.0668 8.10136C23.8332 7.9919 23.5997 7.88609 23.4939 7.61609C23.4319 7.45189 23.2823 7.4373 23.1254 7.47744C22.9867 7.51392 22.8481 7.55771 22.7058 7.5869C22.6073 7.60514 22.5088 7.5869 22.4577 7.48838C22.4103 7.39352 22.4321 7.3023 22.4869 7.21473C22.5598 7.10162 22.6693 7.02865 22.7934 6.99581C23.0415 6.93013 23.2932 6.87175 23.5669 6.86446L23.5705 6.86081Z" fill="#B1B1B1"/>
<path d="M23.6314 4.75977C23.8504 4.75977 24.0036 4.7999 24.0912 4.91666C24.3721 5.29977 24.7881 5.40923 25.2113 5.52964C25.5397 5.6245 25.6419 5.77045 25.6127 6.04046C25.5798 6.336 25.4156 6.42722 25.1383 6.30681C24.9559 6.22654 24.8173 6.09154 24.675 5.96383C24.2627 5.58437 23.792 5.45302 23.2447 5.60991C22.9966 5.67924 22.7412 5.73032 22.4894 5.7814C22.358 5.80694 22.2194 5.80329 22.1647 5.65005C22.1209 5.52964 22.1829 5.42383 22.2814 5.3545C22.7156 5.06626 23.1936 4.88017 23.6314 4.75977Z" fill="#B1B1B1"/>
<path d="M23.3605 6.35378C23.127 6.35378 22.9153 6.43041 22.7037 6.51798C22.576 6.57271 22.4337 6.59095 22.3863 6.41946C22.3425 6.25527 22.4592 6.18594 22.6052 6.17865C22.8533 6.1677 23.0722 6.05824 23.2984 5.97797C23.802 5.79918 24.0829 5.8904 24.342 6.35378C24.5354 6.69676 24.8491 6.82447 25.1921 6.93757C25.5023 7.03609 25.5935 7.16014 25.5862 7.44839C25.5825 7.66366 25.495 7.74758 25.2833 7.7038C24.8674 7.61988 24.5426 7.39366 24.342 7.0142C24.2033 6.75149 24.0209 6.52892 23.7326 6.42311C23.6122 6.37933 23.4809 6.37203 23.3568 6.35014L23.3605 6.35378Z" fill="#B1B1B1"/>
<path d="M68.0489 15.9064C68.4393 15.8991 68.7494 16.2092 68.7531 16.6033C68.7531 17.0046 68.4575 17.3038 68.0562 17.3002C67.6731 17.2929 67.3921 17.0156 67.3812 16.6325C67.3702 16.2275 67.6585 15.9137 68.0525 15.9064H68.0489Z" fill="#B1B1B1"/>
<path d="M67.0148 31.0117C67.1498 31.3583 67.1097 31.7305 67.1461 32.0954C66.9892 31.8874 66.9564 31.6393 66.9199 31.3912C67.0002 31.2781 66.9892 31.1394 67.0148 31.0117V31.0117Z" fill="#B1B1B1"/>
<path d="M62.9109 24.9155C62.8124 24.7258 62.8161 24.5287 62.8489 24.2441C62.9803 24.474 63.0204 24.6418 63.0131 24.8243C62.9803 24.8535 62.9438 24.8827 62.9109 24.9155Z" fill="#B1B1B1"/>
<path d="M105.78 42.0278C105.722 42.1081 105.645 42.0753 105.576 42.0607C105.535 42.0534 105.528 42.0096 105.565 41.9986C105.638 41.9767 105.714 41.9585 105.78 42.0242V42.0278Z" fill="#B1B1B1"/>
<path d="M19.4239 50.1324C19.3874 50.096 19.3509 50.0595 19.3145 50.023C19.3582 49.9683 19.3984 49.8661 19.475 49.9354C19.537 49.9938 19.4713 50.0704 19.4203 50.1288L19.4239 50.1324Z" fill="#B1B1B1"/>
<path d="M98.7328 14.0216C99.0867 14.0216 99.4443 14.0216 99.7982 14.0216C99.9989 14.0216 100.097 14.1274 100.083 14.3244C99.9806 15.9773 99.1378 17.2507 97.3171 17.3455C96.3538 17.3966 95.4855 17.1777 94.7959 16.4626C94.6827 16.3458 94.5696 16.229 94.4894 16.0904C93.8545 15.0323 93.7633 13.9121 94.285 12.8029C94.7338 11.8506 95.5584 11.3106 96.591 11.1501C97.266 11.0443 97.9483 11.0552 98.5832 11.369C98.9991 11.5733 99.3348 11.8689 99.6048 12.2447C99.7216 12.4089 99.7252 12.5366 99.5245 12.6314C99.4516 12.6679 99.3823 12.7081 99.3129 12.7482C98.987 12.9258 98.6963 12.8893 98.4409 12.6387C97.6637 11.8762 96.1824 12.0476 95.5876 12.9781C95.1899 13.602 95.1169 14.2843 95.3395 14.9812C95.7153 16.1707 97.131 16.6705 98.1891 16.0028C98.3095 15.9262 98.4263 15.8313 98.5175 15.7219C98.6635 15.5504 98.8678 15.3461 98.7875 15.1308C98.7036 14.9046 98.419 15.0359 98.222 15.014C98.0614 14.9994 97.8972 15.014 97.7367 15.0067C97.3937 14.9921 97.3609 14.9556 97.3499 14.6017C97.3463 14.5069 97.3499 14.4083 97.3536 14.3098C97.3572 14.1092 97.4667 14.0179 97.6601 14.0179C98.014 14.0179 98.3716 14.0179 98.7255 14.0179L98.7328 14.0216Z" fill="#B1B1B1"/>
<path fill-rule="evenodd" clip-rule="evenodd" d="M210.555 37.0055C210.707 37.0079 210.857 37.0102 210.999 36.939V34.9979L210.996 34.9934V34.9979C210.705 34.9997 210.415 35.0018 210.124 35.0038H210.124H210.124C209.252 35.01 208.38 35.0161 207.511 35.0161C207.139 35.0161 207.117 34.9833 207.113 34.5819C207.109 34.1623 207.11 33.7442 207.112 33.3256V33.3252V33.3226C207.113 33.1126 207.113 32.9025 207.113 32.6919V29.6416C207.113 29.1928 207.132 29.1746 207.577 29.1746C208.136 29.1697 208.698 29.1713 209.258 29.173H209.259H209.259C209.539 29.1738 209.819 29.1746 210.098 29.1746C210.572 29.1746 210.583 29.16 210.587 28.682C210.591 28.3609 210.591 28.0362 210.587 27.7151C210.583 27.2079 210.569 27.1897 210.076 27.1861C209.602 27.1836 209.128 27.1844 208.653 27.1852C208.416 27.1856 208.179 27.1861 207.942 27.1861C207.887 27.1861 207.837 27.1862 207.789 27.1864C207.43 27.1877 207.259 27.1883 207.178 27.1032C207.105 27.0256 207.106 26.8768 207.109 26.5923C207.109 26.5197 207.11 26.4382 207.11 26.3469C207.107 25.4759 207.108 24.6033 207.109 23.7313C207.109 23.2955 207.11 22.8598 207.11 22.4245C207.11 22.4007 207.11 22.3767 207.11 22.3527C207.11 22.3339 207.11 22.3151 207.111 22.2963C207.111 22.2099 207.112 22.123 207.11 22.0378C207.11 21.8334 207.216 21.7495 207.409 21.7495C207.555 21.7495 207.701 21.7495 207.847 21.7459L210.991 21.724L210.995 21.7191L210.999 21.713V19.7719H205.519C205.452 19.7722 205.391 19.772 205.335 19.7718C205.059 19.7707 204.919 19.7702 204.848 19.8399C204.776 19.9117 204.776 20.0578 204.778 20.3542C204.778 20.3986 204.778 20.4465 204.778 20.498V36.2895C204.778 36.332 204.779 36.3748 204.779 36.4178C204.78 36.5041 204.781 36.591 204.778 36.6763C204.771 36.8952 204.866 37.0083 205.092 37.0047C205.146 37.0022 205.199 37.0031 205.253 37.0039L205.272 37.0042C205.292 37.0044 205.313 37.0047 205.333 37.0047H210.474C210.501 37.0047 210.528 37.0051 210.555 37.0055Z" fill="#B1B1B1"/>
<path fill-rule="evenodd" clip-rule="evenodd" d="M197.427 29.3324C197.422 29.1946 197.416 29.0465 197.488 28.8754L197.492 28.879C197.628 29.0562 197.689 29.231 197.746 29.398C197.761 29.4408 197.775 29.4832 197.791 29.5249C198.662 31.8453 199.533 34.1692 200.404 36.4933L200.408 36.5022L200.408 36.5032L200.429 36.5595C200.597 37.001 200.601 37.0047 201.049 37.0083C201.535 37.012 202.02 37.0156 202.505 37.0083C202.969 37.001 202.994 36.9609 202.837 36.5376C202.476 35.5707 202.111 34.6002 201.739 33.6369C201.442 32.8689 201.142 32.1017 200.843 31.3346C200.544 30.5675 200.245 29.8003 199.947 29.0323C199.809 28.6674 199.812 28.6565 200.177 28.5069C200.958 28.1894 201.476 27.6275 201.794 26.8577C202.067 26.19 202.173 25.4894 202.217 24.7779C202.279 23.8183 202.199 22.8733 201.867 21.9611C201.48 20.8921 200.728 20.2207 199.626 19.9398C199.188 19.8266 198.74 19.7719 198.284 19.7719C198.009 19.7719 197.735 19.7715 197.46 19.7711L197.459 19.7711C196.909 19.7703 196.36 19.7695 195.81 19.7719C195.736 19.7723 195.671 19.7717 195.612 19.7711C195.382 19.769 195.255 19.7678 195.186 19.83C195.102 19.9057 195.102 20.0754 195.102 20.4514V20.4871V36.2895C195.102 36.3272 195.101 36.3649 195.1 36.4026V36.403C195.099 36.4783 195.097 36.5536 195.102 36.6289C195.124 36.9536 195.153 36.9974 195.474 37.0047C195.959 37.012 196.445 37.0083 196.93 37.0047C197.404 37.001 197.419 36.9828 197.43 36.5157V36.129V29.4373C197.43 29.4029 197.428 29.368 197.427 29.3324ZM197.43 22.2129V24.5371L197.426 24.5408V24.7341C197.428 25.0596 197.427 25.385 197.427 25.7105C197.426 26.1439 197.426 26.5774 197.43 27.0109C197.433 27.3393 197.485 27.405 197.733 27.3867C199.028 27.2992 199.564 26.8248 199.791 25.785C199.984 24.8874 199.951 23.9825 199.725 23.0959C199.488 22.1618 198.908 21.724 197.941 21.6984C197.455 21.6838 197.43 21.7021 197.43 22.2129Z" fill="#B1B1B1"/>
<path fill-rule="evenodd" clip-rule="evenodd" d="M191.986 37.0047H192.57L192.566 37.001C192.648 37.001 192.729 37.0018 192.811 37.0027C192.973 37.0043 193.135 37.0059 193.296 37.001C193.715 36.9901 193.745 36.9572 193.664 36.5486C193.587 36.1501 193.487 35.7551 193.388 35.3602L193.388 35.3598C193.31 35.0498 193.232 34.7399 193.164 34.4287C192.439 31.0846 191.723 27.738 191.007 24.391L191.007 24.3885C190.837 23.5952 190.667 22.8019 190.497 22.0086C190.362 21.3737 190.227 20.7425 190.089 20.1112C190.049 19.9325 190.001 19.7683 189.76 19.7683C189.469 19.7731 189.178 19.7715 188.888 19.7699C188.742 19.7691 188.596 19.7683 188.45 19.7683C188.279 19.7683 188.18 19.8485 188.148 20.0164C188.135 20.0796 188.12 20.1429 188.105 20.2061C188.097 20.2377 188.089 20.2694 188.082 20.301C187.96 20.8612 187.838 21.4214 187.716 21.9815L187.704 22.0371L187.703 22.0397C186.86 25.9142 186.018 29.7852 185.126 33.6479C184.943 34.4408 184.772 35.2362 184.601 36.0321C184.568 36.1848 184.535 36.3375 184.503 36.4902C184.397 36.9864 184.408 37.001 184.933 37.0047H186.148C186.415 37.0029 186.55 37.002 186.631 36.9355C186.715 36.8674 186.742 36.7306 186.798 36.4537C186.859 36.1428 186.919 35.8318 186.979 35.5208L186.979 35.5204C187.069 35.0544 187.16 34.5883 187.254 34.1222C187.348 33.6442 187.356 33.6442 187.856 33.6442H190.089C190.141 33.6445 190.189 33.6445 190.234 33.6445C190.517 33.6445 190.647 33.6445 190.719 33.7091C190.779 33.7638 190.797 33.8646 190.831 34.0508C190.844 34.1222 190.86 34.206 190.88 34.3046C190.977 34.7617 191.062 35.2203 191.148 35.6794C191.195 35.935 191.243 36.1907 191.293 36.4464C191.366 36.8162 191.597 37.0022 191.986 37.0047ZM189.183 24.2308C189.158 24.0447 189.133 23.8533 189.107 23.6541L189.104 23.6651C188.996 23.8325 188.981 23.9705 188.968 24.1012C188.965 24.13 188.962 24.1585 188.958 24.1868C188.917 24.4745 188.877 24.7631 188.838 25.0519C188.763 25.5946 188.688 26.1383 188.607 26.6789C188.424 27.8854 188.197 29.0876 187.971 30.2888C187.904 30.6423 187.837 30.9958 187.772 31.3492C187.684 31.8235 187.691 31.8308 188.188 31.8381C188.511 31.8406 188.835 31.8397 189.158 31.8389C189.32 31.8385 189.482 31.8381 189.644 31.8381C190.078 31.8363 190.271 31.8416 190.338 31.7525C190.406 31.6612 190.341 31.4707 190.267 31.0719C190.234 30.8903 190.2 30.7088 190.167 30.5272C189.845 28.7864 189.524 27.0465 189.319 25.2887C189.278 24.9428 189.232 24.5969 189.183 24.2308Z" fill="#B1B1B1"/>
<path fill-rule="evenodd" clip-rule="evenodd" d="M201.894 43.5992C201.914 43.5999 201.934 43.6006 201.954 43.6015H201.958L201.966 43.6016C202.197 43.6053 202.444 43.6092 202.505 43.3242C202.636 42.7222 203.023 42.5762 203.574 42.6601C203.702 42.6784 203.833 42.6784 203.961 42.6601C204.384 42.5945 204.61 42.7696 204.745 43.1746C204.888 43.5942 204.957 43.6088 205.388 43.5942C205.774 43.5833 205.807 43.5358 205.654 43.16C205.471 42.716 205.284 42.2739 205.097 41.8323L205.093 41.8232C205.017 41.6436 204.941 41.4641 204.866 41.2846C204.829 41.1991 204.793 41.1138 204.756 41.0286C204.733 40.9746 204.71 40.9208 204.687 40.8669C204.504 40.4426 204.322 40.0194 204.154 39.5879C204.052 39.3325 203.895 39.2596 203.636 39.2596C203.37 39.2596 203.271 39.4019 203.184 39.6098C202.744 40.6413 202.299 41.6673 201.853 42.6949L201.851 42.6997L201.648 43.1673C201.622 43.2257 201.597 43.2841 201.575 43.3461C201.524 43.4847 201.567 43.5687 201.713 43.5869C201.774 43.5951 201.834 43.5972 201.894 43.5992ZM203.644 40.5767C203.417 41.0438 203.235 41.4597 203.1 41.9778H203.104H203.987C204.118 41.9778 204.224 41.9195 204.173 41.7772C204.146 41.7049 204.122 41.632 204.096 41.5587C203.984 41.2325 203.87 40.8985 203.644 40.5767Z" fill="#B1B1B1"/>
<path fill-rule="evenodd" clip-rule="evenodd" d="M178.969 40.8501C178.97 41.0496 178.971 41.2492 178.971 41.4488H178.975V43.1928C178.975 43.2141 178.975 43.2361 178.975 43.2583C178.973 43.3701 178.972 43.4884 179.084 43.5431C179.278 43.6343 179.497 43.627 179.697 43.5541C179.837 43.5047 179.833 43.3814 179.829 43.2632C179.828 43.2329 179.827 43.2029 179.829 43.1746C179.833 43.0557 179.832 42.9384 179.83 42.8205V42.8201C179.829 42.761 179.829 42.7016 179.829 42.6419V42.6296C179.829 42.2802 179.829 42.1203 179.908 42.0476C179.975 41.9862 180.099 41.987 180.328 41.9883H180.328C180.364 41.9885 180.403 41.9888 180.445 41.9888C180.675 41.9888 180.894 41.9523 181.106 41.8611C181.368 41.7516 181.569 41.5728 181.697 41.3138C182.167 40.3688 181.576 39.3362 180.525 39.2778C180.139 39.2559 179.748 39.2596 179.362 39.2669C179 39.2742 178.975 39.296 178.971 39.6573C178.966 40.0527 178.968 40.4497 178.969 40.8473V40.8477V40.8501ZM179.829 40.5767V40.6242H179.832V40.8176C179.843 41.2372 179.912 41.3028 180.317 41.2481C180.379 41.2408 180.445 41.2299 180.507 41.2116C180.832 41.1131 181.014 40.8139 180.949 40.5038C180.876 40.1644 180.536 39.9674 180.109 40.0185C179.85 40.0477 179.832 40.0878 179.829 40.5767Z" fill="#B1B1B1"/>
<path fill-rule="evenodd" clip-rule="evenodd" d="M161.016 43.2512C161.1 43.5322 161.29 43.6343 161.527 43.5979H161.662C162.045 43.5833 162.067 43.5577 161.924 43.2038C161.842 42.9936 161.752 42.7847 161.662 42.5755L161.662 42.5751L161.662 42.5747C161.605 42.4429 161.549 42.311 161.494 42.1785C161.463 42.1065 161.433 42.0344 161.402 41.9623L161.324 41.777L161.323 41.776L161.323 41.7749C161.014 41.0483 160.706 40.3212 160.41 39.5916C160.312 39.3398 160.162 39.2596 159.899 39.2596C159.64 39.2632 159.535 39.3909 159.443 39.6025C159.124 40.3493 158.8 41.0947 158.477 41.8395L158.476 41.8413L158.473 41.847L158.473 41.8479C158.284 42.2829 158.095 42.7178 157.907 43.1527C157.874 43.2257 157.845 43.3023 157.823 43.3789C157.787 43.4993 157.849 43.5541 157.958 43.5833C158.4 43.7 158.652 43.5796 158.834 43.16C158.839 43.1475 158.845 43.1349 158.851 43.1223L158.852 43.1207C158.872 43.0753 158.893 43.0293 158.907 42.9812C158.976 42.7477 159.126 42.6492 159.374 42.6601C159.728 42.6747 160.085 42.6747 160.439 42.6601C160.691 42.6492 160.833 42.7514 160.906 42.9812C160.921 43.0272 160.941 43.0706 160.961 43.1135C160.982 43.1591 161.003 43.2042 161.016 43.2512ZM160.472 41.9341C160.319 41.4488 160.173 41.0219 159.91 40.5731V40.5694C159.724 40.8987 159.607 41.2163 159.493 41.526C159.465 41.6041 159.436 41.6817 159.407 41.7589C159.367 41.8611 159.378 41.9596 159.513 41.9669C159.546 41.9689 159.58 41.971 159.614 41.9732C159.891 41.9909 160.173 42.0089 160.472 41.9341Z" fill="#B1B1B1"/>
<path fill-rule="evenodd" clip-rule="evenodd" d="M156.854 42.5078C156.69 42.2826 156.523 42.0547 156.353 41.8209C156.431 41.7725 156.505 41.7313 156.575 41.6925L156.576 41.6922C156.732 41.6056 156.867 41.5306 156.973 41.4123C157.572 40.7409 157.28 39.639 156.411 39.3654C155.99 39.2336 155.558 39.2503 155.127 39.267C154.962 39.2734 154.796 39.2798 154.631 39.2778C154.43 39.2742 154.404 39.4274 154.404 39.5806C154.404 39.9873 154.404 40.3943 154.403 40.8016V40.8024V40.8032V40.8066C154.401 41.622 154.4 42.4384 154.404 43.2549C154.408 43.5431 154.481 43.5869 154.806 43.5942C155.167 43.6015 155.244 43.5541 155.255 43.2549C155.261 43.0719 155.26 42.8878 155.26 42.7032V42.7018C155.259 42.5482 155.259 42.3944 155.262 42.2405C155.263 42.2198 155.262 42.1983 155.261 42.1765C155.257 42.0872 155.253 41.9949 155.364 41.945C155.496 41.9714 155.557 42.0711 155.618 42.1698L155.619 42.1711C155.625 42.1808 155.631 42.1905 155.637 42.2001C155.645 42.2138 155.654 42.2274 155.663 42.2405C155.789 42.4196 155.911 42.6001 156.034 42.7803L156.034 42.7809L156.034 42.7815L156.036 42.7836C156.112 42.896 156.189 43.0082 156.265 43.1199C156.627 43.6489 156.871 43.7256 157.572 43.492C157.333 43.1624 157.096 42.8378 156.854 42.5078ZM155.26 40.5801C155.261 40.5911 155.262 40.6021 155.262 40.6132H155.258V40.7081C155.262 41.259 155.397 41.3612 155.922 41.1934C155.97 41.1788 156.014 41.1605 156.057 41.1386C156.335 40.9927 156.455 40.6935 156.357 40.4016C156.251 40.0951 155.842 39.8871 155.481 39.9638C155.239 40.0158 155.251 40.1757 155.263 40.3347C155.268 40.3984 155.273 40.462 155.262 40.5184C155.257 40.5377 155.259 40.5586 155.26 40.5801Z" fill="#B1B1B1"/>
<path fill-rule="evenodd" clip-rule="evenodd" d="M150.979 40.8063C150.979 41.0058 150.978 41.2054 150.978 41.405H150.975C150.975 41.6108 150.976 41.8162 150.976 42.0213V42.0222V42.023C150.978 42.4319 150.98 42.8397 150.975 43.2476C150.971 43.492 151.073 43.5942 151.318 43.6015C151.748 43.6161 151.814 43.565 151.825 43.1162V42.7769C151.825 42.2831 152.069 42.018 152.558 41.9815C153.346 41.9231 153.81 41.4415 153.817 40.668C153.828 39.8725 153.365 39.3398 152.576 39.2815C152.323 39.2637 152.067 39.2648 151.811 39.266C151.647 39.2667 151.482 39.2675 151.318 39.2632C151.066 39.2559 150.978 39.3727 150.978 39.6135C150.981 40.0096 150.98 40.4073 150.979 40.8055V40.8059V40.8063ZM151.825 40.5658V40.6643V40.668V40.8613C151.843 41.2335 151.901 41.2882 152.259 41.2517C152.354 41.2408 152.452 41.2262 152.544 41.1934C152.836 41.0839 152.985 40.792 152.919 40.4892C152.85 40.1644 152.525 39.9747 152.12 40.0185C151.858 40.044 151.832 40.0951 151.825 40.5658Z" fill="#B1B1B1"/>
<path fill-rule="evenodd" clip-rule="evenodd" d="M149.986 42.3099C150.511 40.7628 149.643 39.1793 147.848 39.172H147.851C146.669 39.1647 145.797 39.7996 145.545 40.854C145.297 41.8976 145.71 42.9155 146.582 43.3972C147.516 43.9153 148.848 43.7365 149.552 43.0031C149.745 42.8024 149.895 42.5726 149.986 42.3099ZM149.253 41.4488C149.26 40.5731 148.676 39.9528 147.83 39.9455H147.833C146.987 39.9346 146.377 40.5403 146.359 41.4086C146.341 42.2551 146.954 42.9046 147.793 42.9192C148.632 42.9338 149.245 42.3208 149.253 41.4488Z" fill="#B1B1B1"/>
<path fill-rule="evenodd" clip-rule="evenodd" d="M147.928 37.0022C148.014 37.0035 148.101 37.0047 148.187 37.0047L148.191 37.0083H148.869H148.917C149.347 36.9937 149.373 36.9645 149.296 36.5632C149.291 36.5316 149.283 36.4999 149.275 36.4683C149.271 36.4525 149.267 36.4367 149.263 36.4209C149.075 35.5734 148.894 34.7244 148.713 33.8752L148.712 33.8739L148.712 33.8728C148.408 32.4487 148.103 31.024 147.768 29.6051C147.428 28.1738 147.125 26.7334 146.823 25.2929L146.823 25.2926L146.823 25.2922C146.693 24.6767 146.564 24.0611 146.432 23.4461C146.344 23.0376 146.257 22.6284 146.17 22.219L146.168 22.2127L146.168 22.2101C146.024 21.5329 145.879 20.8549 145.732 20.1769C145.648 19.7938 145.629 19.7829 145.254 19.7756C144.914 19.7683 144.575 19.7683 144.236 19.7756C143.845 19.7829 143.838 19.7938 143.743 20.1587C143.732 20.1955 143.725 20.2336 143.718 20.2714C143.714 20.2973 143.709 20.3232 143.703 20.3484C143.193 22.6793 142.684 25.0101 142.176 27.3409L142.167 27.3813L142.158 27.4216C141.649 29.7524 141.14 32.0833 140.631 34.4141C140.549 34.7844 140.459 35.153 140.37 35.5215C140.28 35.89 140.191 36.2585 140.109 36.6289C140.036 36.9572 140.072 36.9974 140.408 37.0047C140.878 37.012 141.344 37.0083 141.813 37.0047L141.816 37.0047C142.313 37.001 142.316 36.9974 142.415 36.5085C142.481 36.1787 142.545 35.8489 142.61 35.5191C142.706 35.0243 142.803 34.5295 142.904 34.0346C142.98 33.6515 142.991 33.6442 143.378 33.6442L143.382 33.6442C144.11 33.6406 144.835 33.6369 145.564 33.6442C145.693 33.6457 145.802 33.6443 145.893 33.643C146.135 33.6398 146.257 33.6381 146.33 33.6973C146.404 33.7576 146.427 33.8812 146.472 34.1309C146.488 34.2168 146.506 34.3177 146.531 34.436C146.68 35.1621 146.823 35.8955 146.954 36.6252C147.001 36.8916 147.129 37.0193 147.41 37.0047C147.583 36.9974 147.755 36.9998 147.928 37.0022ZM145.929 31.2507C145.447 28.7623 145.016 26.2666 144.75 23.6651V23.6687C144.618 23.8244 144.606 23.9612 144.595 24.0905C144.593 24.1218 144.59 24.1526 144.586 24.1832C144.546 24.4672 144.507 24.7521 144.468 25.0373C144.394 25.5837 144.319 26.131 144.236 26.6752C144.035 27.9945 143.785 29.3056 143.535 30.6156C143.495 30.8273 143.455 31.039 143.415 31.2507C143.305 31.8272 143.312 31.8308 143.918 31.8308H145.421C146.027 31.8272 146.042 31.8235 145.929 31.2507Z" fill="#B1B1B1"/>
<path fill-rule="evenodd" clip-rule="evenodd" d="M144.124 42.0921L144.12 42.0877L144.054 41.998C144.008 41.935 143.96 41.8701 143.911 41.8027L143.914 41.7991C144.279 41.6385 144.553 41.4743 144.71 41.1715C145.148 40.3286 144.648 39.4055 143.663 39.2888C143.383 39.2556 143.1 39.2593 142.816 39.263C142.662 39.2651 142.509 39.2671 142.357 39.2632C142.119 39.2559 142.046 39.3763 142.046 39.5916C142.048 40.1169 142.047 40.6422 142.047 41.1675C142.046 41.8681 142.046 42.5688 142.05 43.2695C142.054 43.5468 142.13 43.5906 142.466 43.5906C142.802 43.5942 142.871 43.5504 142.886 43.2731C142.893 43.102 142.893 42.9298 142.892 42.7577C142.892 42.607 142.891 42.4561 142.897 42.3062C142.897 42.2845 142.896 42.2616 142.894 42.2382C142.888 42.1362 142.881 42.0256 143.05 41.9632C143.082 42.0106 143.114 42.0579 143.146 42.1053L143.229 42.2267L143.23 42.2278C143.465 42.5749 143.702 42.9233 143.944 43.2695C143.958 43.2901 143.972 43.3115 143.986 43.333C144.061 43.4486 144.137 43.5667 144.294 43.576C144.331 43.5785 144.368 43.5815 144.405 43.5845C144.636 43.6034 144.875 43.6228 145.13 43.5285C145.022 43.2851 144.87 43.0905 144.721 42.9003C144.662 42.8253 144.604 42.7511 144.549 42.6747C144.413 42.4856 144.275 42.2982 144.124 42.0921ZM142.87 40.5728C142.871 40.5838 142.871 40.5948 142.871 40.6059V40.7519C142.878 41.2627 142.995 41.3466 143.484 41.197C143.572 41.1715 143.663 41.1277 143.739 41.0693C143.962 40.9015 144.024 40.5804 143.896 40.3286C143.769 40.0769 143.334 39.8871 143.061 39.9747C142.856 40.0404 142.865 40.1911 142.873 40.3412C142.877 40.3996 142.88 40.4579 142.871 40.5111C142.869 40.5304 142.869 40.5513 142.87 40.5728Z" fill="#B1B1B1"/>
<path fill-rule="evenodd" clip-rule="evenodd" d="M114.63 37.0031C114.716 37.0039 114.803 37.0047 114.889 37.0047H114.882C114.968 37.0047 115.055 37.0059 115.141 37.0071C115.314 37.0095 115.486 37.012 115.659 37.0047C116.017 36.9937 116.049 36.9463 115.991 36.5997C115.984 36.5542 115.972 36.5105 115.961 36.4673C115.959 36.458 115.957 36.4489 115.955 36.4397C115.952 36.4297 115.95 36.4198 115.947 36.4099C115.443 34.0529 114.937 31.697 114.432 29.3416L114.426 29.315L114.421 29.2882C114.001 27.3333 113.582 25.3788 113.163 23.4243L113.059 22.939C112.864 22.0272 112.668 21.1135 112.47 20.2025C112.375 19.7756 112.368 19.7719 111.926 19.7683L111.923 19.7682C111.599 19.7646 111.279 19.761 110.956 19.7683C110.573 19.7756 110.565 19.7792 110.478 20.1623C110.404 20.4824 110.329 20.8024 110.254 21.1224C110.105 21.762 109.956 22.4016 109.81 23.0411C109.246 25.5376 108.704 28.0385 108.162 30.5404L108.162 30.5435L108.161 30.5466C108.005 31.2641 107.85 31.9816 107.694 32.6992C107.417 33.9653 107.143 35.2278 106.873 36.4902C106.767 36.9864 106.782 37.001 107.307 37.0047C107.712 37.0083 108.117 37.0083 108.522 37.0047C109 36.9974 109.007 36.9974 109.099 36.5413C109.179 36.1459 109.256 35.7505 109.332 35.3555C109.412 34.9413 109.493 34.5276 109.577 34.1149C109.672 33.6479 109.679 33.6442 110.135 33.6442C110.416 33.6442 110.697 33.6438 110.977 33.6434C111.538 33.6426 112.098 33.6418 112.66 33.6442C113.12 33.6479 113.123 33.6515 113.214 34.1222C113.267 34.3959 113.32 34.6696 113.374 34.9434C113.484 35.5092 113.595 36.0755 113.696 36.6435C113.74 36.8989 113.853 37.0156 114.112 37.0047C114.285 36.9998 114.457 37.0014 114.63 37.0031ZM111.425 23.6358C111.514 23.7837 111.529 23.9422 111.543 24.0972L111.543 24.0993C111.788 26.4928 112.215 28.8572 112.663 31.2179L112.718 31.5025C112.751 31.6958 112.693 31.8235 112.477 31.8235H110.299C110.128 31.8235 110.08 31.7141 110.106 31.5608C110.112 31.5237 110.119 31.4866 110.126 31.4494C110.17 31.2012 110.215 30.9509 110.263 30.7034C110.708 28.3901 111.124 26.0732 111.386 23.7344C111.386 23.7149 111.396 23.6955 111.408 23.6717C111.414 23.6608 111.419 23.6489 111.425 23.6358Z" fill="#B1B1B1"/>
<path fill-rule="evenodd" clip-rule="evenodd" d="M100.682 29.3681C100.677 29.2261 100.671 29.072 100.751 28.8754C100.772 28.9147 100.79 28.947 100.806 28.9747C100.838 29.0319 100.86 29.0696 100.875 29.1089C101.051 29.5702 101.224 30.0324 101.396 30.4946L101.397 30.4953L101.397 30.496C101.79 31.5469 102.183 32.5971 102.611 33.6333C102.971 34.4993 103.287 35.3821 103.604 36.2646C103.648 36.386 103.691 36.5075 103.735 36.6289C103.834 36.8916 103.969 37.0229 104.264 37.012C104.569 37.0012 104.874 37.0031 105.179 37.005C105.392 37.0064 105.605 37.0077 105.819 37.0047C106.22 36.9974 106.238 36.9718 106.092 36.5778C105.941 36.1618 105.784 35.749 105.627 35.3363C105.548 35.13 105.469 34.9237 105.392 34.7169C105.132 34.0302 104.871 33.344 104.611 32.6579L104.611 32.6564L104.604 32.6381C104.15 31.4425 103.697 30.2472 103.246 29.0505C103.1 28.6674 103.104 28.6565 103.491 28.4959C104.239 28.1821 104.735 27.6202 105.012 26.8832C105.643 25.2012 105.658 23.4972 105.038 21.8115C104.662 20.7863 103.896 20.1477 102.816 19.9106C102.389 19.8157 101.955 19.7683 101.517 19.7683H99.0429C98.9909 19.7685 98.9428 19.7685 98.8984 19.7684C98.6379 19.7681 98.5033 19.7679 98.4338 19.8351C98.3596 19.907 98.3599 20.0559 98.3605 20.3641C98.3605 20.3939 98.3606 20.4251 98.3606 20.4579V36.3589V36.6982C98.357 36.8952 98.4482 37.001 98.6489 37.001H100.397C100.594 36.9974 100.685 36.8916 100.685 36.6945C100.682 36.5972 100.683 36.4999 100.684 36.4026L100.685 36.33C100.685 36.3056 100.685 36.2811 100.685 36.2567V29.4701C100.685 29.4366 100.684 29.4027 100.682 29.3681ZM103.082 25.7813C103.159 25.4164 103.195 25.0479 103.202 24.621H103.199C103.196 24.5769 103.193 24.5324 103.191 24.4874C103.165 24.0598 103.136 23.5949 103.027 23.136C102.768 22.0378 101.962 21.6838 101.017 21.6948C100.802 21.6984 100.678 21.775 100.685 22.0049C100.69 22.0902 100.688 22.1771 100.686 22.2634C100.686 22.3064 100.685 22.3492 100.685 22.3917V26.7044C100.685 27.4561 100.688 27.4597 101.451 27.332C102.389 27.1751 102.885 26.7081 103.082 25.7813Z" fill="#B1B1B1"/>
<path fill-rule="evenodd" clip-rule="evenodd" d="M125.204 12.3833C124.507 11.5295 123.628 11.0661 122.624 11.1063C120.895 11.1063 119.727 11.9966 119.388 13.4743C119.308 13.8282 119.304 14.1821 119.333 14.536C119.428 15.7146 119.997 16.572 121.085 17.0682C121.69 17.3455 122.333 17.4149 122.982 17.3273C124.23 17.1558 125.153 16.5136 125.587 15.3023C125.857 14.5506 125.817 13.7771 125.547 13.0218C125.463 12.792 125.361 12.5731 125.204 12.3833ZM122.515 16.2801C123.683 16.2801 124.493 15.4373 124.493 14.2332V14.2296C124.493 13.0145 123.697 12.179 122.53 12.1717C121.344 12.1644 120.508 13.0218 120.515 14.2405C120.523 15.4336 121.355 16.2801 122.515 16.2801Z" fill="#B1B1B1"/>
<path fill-rule="evenodd" clip-rule="evenodd" d="M113.524 13.3497V13.3501V13.3505C113.524 13.6297 113.525 13.9087 113.525 14.1873C113.525 14.479 113.524 14.7702 113.523 15.0612V15.062V15.0628C113.521 15.6444 113.52 16.225 113.525 16.8055C113.525 17.1704 113.565 17.2142 113.9 17.2215L114.021 17.2234C114.677 17.2341 115.33 17.2448 115.984 17.1485C116.735 17.0427 117.374 16.6961 117.863 16.1305C119.078 14.7331 118.713 11.8105 116.148 11.3179C115.611 11.2148 115.07 11.2227 114.529 11.2305C114.343 11.2332 114.156 11.2359 113.97 11.234C113.546 11.2303 113.525 11.2522 113.525 11.6682C113.522 12.227 113.523 12.7873 113.524 13.3472V13.3497ZM114.687 13.6927C114.688 13.8646 114.688 14.0363 114.688 14.2077C114.688 14.3854 114.687 14.5627 114.686 14.7398C114.684 15.0938 114.681 15.4471 114.688 15.8021C114.692 16.1597 114.725 16.178 115.083 16.1889C115.389 16.1962 115.692 16.1597 115.987 16.0612C116.794 15.7948 117.305 15.0286 117.264 14.1566C117.221 13.2043 116.644 12.4928 115.772 12.3176C115.568 12.2775 115.356 12.2556 115.148 12.2447C114.754 12.2228 114.696 12.2739 114.688 12.6606C114.684 13.0037 114.685 13.3485 114.687 13.6927Z" fill="#B1B1B1"/>
<path fill-rule="evenodd" clip-rule="evenodd" d="M111.188 15.1303C111.099 15.0234 111.009 14.9159 110.985 14.7696V14.7659C111.045 14.6652 111.142 14.6323 111.237 14.5999C111.28 14.5854 111.322 14.571 111.361 14.5506C111.77 14.3354 112.032 14.007 112.156 13.5618C112.459 12.4563 111.875 11.5003 110.741 11.2924C110.26 11.2048 109.773 11.2185 109.284 11.2322C109.061 11.2384 108.837 11.2447 108.613 11.2413C108.427 11.2376 108.354 11.3434 108.354 11.5149C108.354 11.5788 108.353 11.6436 108.353 11.7083C108.352 11.7731 108.351 11.8378 108.351 11.9017V16.5027C108.351 17.2434 108.362 17.2543 109.11 17.2105C109.478 17.1886 109.504 17.1668 109.511 16.769C109.513 16.5355 109.513 16.3011 109.513 16.0667C109.513 15.8322 109.513 15.5978 109.515 15.3643C109.515 15.3326 109.515 15.3005 109.514 15.2679C109.511 15.1425 109.507 15.0092 109.591 14.8644C109.839 15.0943 110.022 15.3315 110.19 15.5796C110.485 16.0211 110.781 16.4626 111.076 16.9077C111.175 17.0573 111.273 17.2069 111.485 17.2069C111.6 17.2055 111.715 17.2072 111.83 17.2089C112.021 17.2118 112.213 17.2146 112.404 17.2032C112.62 17.1923 112.66 17.1084 112.525 16.9223C112.321 16.6416 112.113 16.3645 111.905 16.0875L111.905 16.0867L111.904 16.086C111.696 15.809 111.488 15.5319 111.284 15.2512C111.255 15.2097 111.221 15.17 111.188 15.1303ZM110.996 13.197C111.051 12.5804 110.675 12.2118 109.982 12.2009C109.551 12.1936 109.526 12.2191 109.515 12.6606V13.3356C109.515 14.0435 109.595 14.1092 110.295 13.945C110.372 13.9267 110.449 13.9012 110.522 13.8683C110.81 13.737 110.967 13.5144 110.996 13.197Z" fill="#B1B1B1"/>
<path fill-rule="evenodd" clip-rule="evenodd" d="M107.077 15.4811C107.869 13.3794 106.643 11.0771 104.129 11.099V11.1026C104.074 11.1058 104.019 11.1083 103.963 11.1108C103.825 11.1172 103.687 11.1235 103.549 11.1391C102.206 11.2924 101.207 12.1863 100.937 13.5035C100.798 14.1748 100.831 14.8498 101.097 15.4993C101.331 16.0685 101.696 16.5355 102.228 16.8493C102.994 17.2981 103.83 17.4514 104.702 17.3091C105.815 17.1303 106.672 16.5574 107.077 15.4811ZM102.06 14.2004C102.057 15.3716 102.936 16.2801 104.096 16.2801C105.253 16.2838 106.092 15.4336 106.103 14.2442C106.114 13.0474 105.297 12.2045 104.14 12.1644C103.013 12.1243 102.064 13.0729 102.06 14.2004Z" fill="#B1B1B1"/>
<path fill-rule="evenodd" clip-rule="evenodd" d="M80.4038 17.1485C80.5039 17.2142 80.6471 17.2142 80.9308 17.2142L80.9381 17.2178H81.1789C81.5803 17.1996 81.6095 17.1668 81.4526 16.7909C81.312 16.4555 81.1721 16.1199 81.0323 15.7842C80.4386 14.36 79.845 12.9357 79.2014 11.5332C79.1926 11.5143 79.1844 11.4944 79.1762 11.4743C79.14 11.3859 79.1025 11.2943 79.0043 11.2705C78.7672 11.2121 78.5191 11.223 78.2819 11.2595C78.117 11.2856 78.0668 11.4263 78.0185 11.5617C78.0059 11.5971 77.9934 11.6321 77.979 11.6645C77.6178 12.5037 77.2566 13.342 76.8954 14.1802L76.8916 14.1891C76.5316 15.0244 76.1717 15.8598 75.8117 16.6961C75.7953 16.7326 75.7798 16.77 75.7643 16.8074C75.7488 16.8448 75.7333 16.8822 75.7169 16.9186C75.6366 17.0938 75.6767 17.2032 75.881 17.2105C76.0618 17.216 76.2445 17.2153 76.4263 17.2146C76.4866 17.2144 76.5472 17.2142 76.6071 17.2142C76.7932 17.2178 76.9027 17.1157 76.972 16.9515C77.0098 16.8576 77.0502 16.7651 77.0905 16.6727C77.1472 16.5424 77.2039 16.4125 77.253 16.2801C77.3369 16.0503 77.4828 15.9517 77.7273 15.9554C77.9786 15.9594 78.23 15.9579 78.4813 15.9563C78.6824 15.955 78.8835 15.9538 79.0846 15.9554C79.1691 15.9561 79.2438 15.9559 79.31 15.9557C79.5716 15.9549 79.7022 15.9545 79.7922 16.0148C79.8819 16.0748 79.9312 16.1952 80.0297 16.4355C80.0569 16.5018 80.0879 16.5773 80.1245 16.6632L80.1289 16.6736C80.2445 16.9464 80.3018 17.0816 80.4038 17.1485ZM79.3327 14.7513C79.1138 14.1821 78.8876 13.6166 78.6613 13.051H78.53C78.4644 13.2176 78.3986 13.3842 78.3327 13.5508C78.1748 13.95 78.0167 14.3498 77.8623 14.7513C77.7966 14.9192 77.8732 14.9994 78.0411 14.9994H79.1539C79.3254 14.9994 79.3947 14.9119 79.3327 14.7513Z" fill="#B1B1B1"/>
<path fill-rule="evenodd" clip-rule="evenodd" d="M71.9368 11.7083V14.1785L71.9332 14.1748V16.5027C71.9356 16.9989 72.1898 17.2361 72.6957 17.2142C73.1044 17.1996 73.119 17.185 73.1263 16.7581C73.1277 16.5771 73.1269 16.3962 73.126 16.2152C73.1247 15.9437 73.1234 15.6723 73.1299 15.4008C73.1372 15.0432 73.1628 15.0286 73.5276 15.014C73.61 15.0112 73.6924 15.0122 73.7745 15.0132C73.9034 15.0149 74.0318 15.0165 74.1589 15.0031C74.7828 14.9411 75.3301 14.7331 75.6512 14.1493C76.2386 13.0802 75.83 11.2924 74.0421 11.2413C73.4919 11.2267 72.9453 11.2303 72.3951 11.234L72.3929 11.234C71.9478 11.2376 71.9368 11.2486 71.9368 11.7083ZM73.1336 12.5366V13.1131H73.1299V13.259C73.1299 14.0362 73.3197 14.1748 74.0786 13.945C74.1078 13.9377 74.1406 13.9267 74.1698 13.9158C74.4872 13.7844 74.677 13.4816 74.677 13.1131C74.677 12.7482 74.4799 12.4526 74.1406 12.3359C73.9108 12.2556 73.6699 12.2374 73.4255 12.241C73.2285 12.241 73.1336 12.3359 73.1336 12.5366Z" fill="#B1B1B1"/>
<path fill-rule="evenodd" clip-rule="evenodd" d="M56.3314 11.7339V14.2004C56.3314 14.491 56.3306 14.7817 56.3297 15.0724C56.3281 15.6538 56.3265 16.2351 56.3314 16.8165C56.335 17.1631 56.3715 17.2105 56.6707 17.2178C56.7351 17.2191 56.7995 17.2204 56.8639 17.2218C57.5589 17.2363 58.2559 17.2508 58.9438 17.1339C60.3376 16.9004 61.3228 15.7036 61.3337 14.2551C61.3483 12.7518 60.407 11.577 58.9803 11.3106C58.469 11.2152 57.9519 11.2218 57.436 11.2284C57.2414 11.2309 57.047 11.2333 56.8531 11.2303C56.3387 11.223 56.3314 11.234 56.3314 11.7339ZM57.5683 12.5585V14.204H57.5646V15.8496C57.5646 16.0539 57.623 16.178 57.8638 16.1889C59.5094 16.2546 60.2318 15.1709 60.1005 13.9413C59.9837 12.8358 58.8709 12.0294 57.7908 12.2447C57.5975 12.2812 57.5683 12.4016 57.5683 12.5585Z" fill="#B1B1B1"/>
<path fill-rule="evenodd" clip-rule="evenodd" d="M66.6754 17.1522C66.3442 17.2485 66.0127 17.2281 65.6836 17.2077C65.6139 17.2034 65.5444 17.1991 65.475 17.1959C65.3243 17.19 65.2525 17.074 65.1823 16.9603C65.1658 16.9337 65.1493 16.9071 65.132 16.8822C64.9277 16.5921 64.7252 16.3011 64.5227 16.0101C64.3202 15.7191 64.1177 15.4282 63.9133 15.1381C63.9008 15.1204 63.8891 15.1014 63.8774 15.0823C63.831 15.0071 63.7831 14.9293 63.6725 14.9119C63.5734 14.9798 63.5798 15.0808 63.5859 15.1772C63.5877 15.205 63.5894 15.2324 63.5886 15.2585C63.5813 15.7912 63.5813 16.3239 63.5886 16.8566C63.5886 17.0974 63.4901 17.1959 63.2456 17.2178C62.4685 17.2835 62.4247 17.247 62.421 16.4735V11.9199C62.421 11.774 62.4247 11.628 62.4283 11.4857C62.432 11.3325 62.5122 11.2449 62.6691 11.2486C62.9079 11.2541 63.1477 11.2462 63.3876 11.2384C63.9394 11.2203 64.4918 11.2021 65.0335 11.3471C66.4893 11.7375 66.5659 13.4341 65.8982 14.1967C65.7231 14.3937 65.5042 14.5251 65.267 14.6346C65.0043 14.7513 64.997 14.7732 65.1758 15.014C65.3765 15.2877 65.5799 15.5586 65.7833 15.8295C65.9867 16.1004 66.1901 16.3713 66.3908 16.645C66.4158 16.6792 66.4435 16.7122 66.4714 16.7456C66.5654 16.8577 66.6631 16.974 66.6754 17.1522ZM63.5902 12.9158C63.5894 12.9802 63.5886 13.0448 63.5886 13.1094V13.2554C63.5886 14.0544 63.7565 14.1712 64.519 13.8975C64.8948 13.7625 65.0736 13.4998 65.0736 13.0875C65.0736 12.6716 64.8985 12.4235 64.5117 12.2885C64.3256 12.2264 64.1359 12.2045 63.9425 12.2009C63.7054 12.1936 63.5777 12.2775 63.5886 12.5329C63.5935 12.6593 63.5919 12.7872 63.5902 12.9158Z" fill="#B1B1B1"/>
</g>
<defs>
<clipPath id="clip0_81_2929">
<rect width="211" height="60.4203" fill="white" transform="translate(0 0.289062)"/>
</clipPath>
</defs>
</svg>
