<svg width="91" height="91" viewBox="0 0 91 91" fill="none" xmlns="http://www.w3.org/2000/svg">
<path d="M67.908 88.9384H23.1604C21.3683 88.4185 20.8348 87.7072 20.8211 85.8056C20.8211 85.149 20.8074 84.506 20.8211 83.8494C20.9305 80.6619 23.092 78.5825 26.2931 78.5689C27.538 78.5689 28.7829 78.5689 30.0278 78.5689C31.2317 78.5689 31.2727 78.5141 31.4505 77.2829C31.7652 75.0257 32.0935 72.7822 32.4218 70.525C32.5997 69.3485 32.5313 69.239 31.3274 69.239C25.828 69.239 20.3149 69.239 14.8155 69.239C11.9427 69.239 9.0699 69.2664 6.19708 69.239C2.5445 69.1843 0 66.845 0 63.5344C0 45.2441 0 26.9538 0 8.67724C0 6.4337 1.09441 4.79209 3.0233 3.69768C4.14507 3.0684 5.38996 3 6.64853 3C32.5723 3 58.4961 3 84.4199 3C85.186 3 85.9657 3.01368 86.7181 3.2052C88.9753 3.76609 90.2886 5.29826 91 7.41867V64.7793C90.5349 66.12 89.8509 67.2965 88.6607 68.1446C87.4158 69.0201 85.9931 69.239 84.5293 69.239C76.4444 69.239 68.3731 69.239 60.2882 69.239C59.9599 69.239 59.6315 69.239 59.3169 69.239C58.7423 69.239 58.5098 69.5263 58.5919 70.0872C58.9612 72.6591 59.3443 75.2309 59.7136 77.8028C59.7957 78.391 60.124 78.5825 60.6849 78.5689C62.1897 78.5415 63.7082 78.5415 65.213 78.5689C67.5934 78.5962 69.659 80.3609 70.1105 82.6866C70.302 83.7126 70.261 84.7523 70.2473 85.7783C70.2473 87.6798 69.7001 88.4048 67.908 88.9247V88.9384ZM45.5274 66.3252C58.5508 66.3252 71.5743 66.3252 84.5977 66.3252C87.2106 66.3252 88.264 65.2718 88.264 62.6589C88.264 44.9569 88.264 27.2548 88.264 9.56645C88.264 6.96723 87.1969 5.90018 84.5977 5.90018C58.5508 5.90018 32.5039 5.90018 6.45701 5.90018C3.85779 5.90018 2.80442 6.96723 2.80442 9.56645C2.80442 27.2685 2.80442 44.9705 2.80442 62.6589C2.80442 65.2718 3.85779 66.3252 6.47069 66.3252C19.4941 66.3252 32.5176 66.3252 45.541 66.3252H45.5274ZM45.4863 86.0245C52.0801 86.0245 58.6739 86.0245 65.2677 86.0245C65.7055 86.0245 66.157 86.0245 66.5947 86.0245C66.882 86.0245 67.1282 85.9698 67.265 85.6825C67.6344 84.9164 67.224 82.6592 66.6084 82.071C65.9381 81.428 65.0762 81.3733 64.2144 81.3733C51.7655 81.3733 39.3166 81.3733 26.854 81.3733C26.4436 81.3733 26.0195 81.387 25.6228 81.4827C24.46 81.729 23.7897 82.5498 23.7486 83.7399C23.735 84.0956 23.7486 84.4513 23.7486 84.807C23.7486 86.0382 23.7486 86.0382 24.9935 86.0382C31.8199 86.0382 38.66 86.0382 45.4863 86.0382V86.0245ZM45.541 69.239C42.5588 69.239 39.5628 69.2527 36.5806 69.2253C35.8145 69.2253 35.4588 69.4716 35.3494 70.2514C35.0074 72.7411 34.638 75.2172 34.255 77.707C34.1592 78.3089 34.3918 78.5962 35.021 78.5825C35.9923 78.5689 36.9773 78.5825 37.9486 78.5825C40.2195 78.5825 39.9322 78.8014 39.9596 76.6126C39.9869 74.3007 41.4781 72.3581 43.6258 71.8793C44.857 71.6057 46.0882 71.6057 47.3195 71.8656C49.2347 72.276 50.7668 73.8766 51.0404 75.8055C51.1362 76.4484 51.0952 77.1051 51.0952 77.748C51.0952 78.2816 51.273 78.5825 51.8612 78.5825C53.284 78.5825 54.693 78.5825 56.1158 78.5825C56.7314 78.5825 56.8682 78.2542 56.7861 77.7207C56.4167 75.2446 56.0337 72.7548 55.6917 70.265C55.5822 69.4989 55.2539 69.2253 54.4741 69.239C51.4919 69.2664 48.4959 69.2527 45.5137 69.2527L45.541 69.239ZM45.4863 78.5689C45.8146 78.5689 46.1293 78.5689 46.4576 78.5689C48.4002 78.5689 48.6191 78.3089 48.2223 76.3527C48.0171 75.3403 47.4152 74.67 46.4713 74.6427C45.2401 74.6153 43.8584 74.2323 43.0786 75.6687C42.7093 76.339 42.7777 77.0914 42.7777 77.8301C42.7777 78.35 43.0239 78.5689 43.5437 78.5689C44.1867 78.5689 44.8434 78.5689 45.4863 78.5689Z" fill="white"/>
<path d="M6.07424 36.0554C6.07424 28.121 6.07424 20.1865 6.07424 12.2657C6.07424 9.72124 6.96344 8.83203 9.48058 8.83203C20.1374 8.83203 30.7942 8.83203 41.451 8.83203C41.834 8.83203 42.2307 8.83203 42.6001 8.92779C43.3662 9.10563 43.7903 9.62548 43.7492 10.3916C43.6945 11.1713 43.1883 11.6091 42.4223 11.7185C42.0392 11.7733 41.6562 11.7459 41.2731 11.7459C30.972 11.7459 20.6709 11.7459 10.3698 11.7459C9.45778 11.7459 9.00178 12.211 9.00178 13.1413C9.00178 28.4767 9.00178 43.7984 9.00178 59.1337C9.00178 60.4744 9.00178 60.4744 10.3287 60.4744C20.8351 60.4744 31.3414 60.4744 41.8477 60.4744C42.2581 60.4744 42.6822 60.4607 43.0789 60.5565C43.7492 60.707 44.1733 61.1447 44.187 61.8698C44.2143 62.6222 43.8313 63.1147 43.1063 63.2925C42.7369 63.3883 42.3402 63.4019 41.9571 63.4019C31.1225 63.4019 20.2879 63.4019 9.45322 63.4019C6.9224 63.4019 6.04688 62.5127 6.04688 59.9546C6.04688 51.9927 6.04688 44.0309 6.04688 36.0691L6.07424 36.0554Z" fill="white"/>
<path d="M84.9949 36.1903C84.9949 44.0974 84.9949 51.9908 84.9949 59.8979C84.9949 60.404 85.0085 60.8965 84.8854 61.4027C84.6118 62.4013 83.9962 63.0717 82.9565 63.2632C82.4641 63.3589 81.9579 63.3863 81.4517 63.3863C71.0001 63.3863 60.5622 63.3863 50.1106 63.3863C49.7823 63.3863 49.454 63.3863 49.1393 63.3589C48.2364 63.2495 47.6345 62.6613 47.6482 61.8952C47.6482 61.1291 48.2775 60.5545 49.1941 60.4861C49.5497 60.4588 49.9054 60.4861 50.2611 60.4861C60.3844 60.4861 70.5076 60.4861 80.6309 60.4861C81.5976 60.4861 82.081 60.021 82.081 59.0907C82.081 43.7554 82.081 28.4336 82.081 13.0983C82.081 12.2045 81.6387 11.7576 80.754 11.7576C70.3708 11.7576 59.974 11.7576 49.5908 11.7576C49.1804 11.7576 48.7563 11.785 48.3596 11.6892C47.6892 11.5524 47.2515 11.1146 47.2241 10.4033C47.1968 9.66456 47.5524 9.14471 48.2775 8.96687C48.6469 8.87111 49.0436 8.84375 49.4129 8.84375C60.1518 8.84375 70.9044 8.84375 81.6432 8.84375C84.1057 8.84375 85.0085 9.76032 85.0085 12.2501C85.0085 20.2393 85.0085 28.2284 85.0085 36.2176L84.9949 36.1903Z" fill="white"/>
<path d="M28.7986 42.2776C25.1323 42.2776 21.466 42.2776 17.7998 42.2776C15.693 42.2776 14.6533 41.32 14.6397 39.1995C14.6123 32.5784 14.6123 25.9435 14.6397 19.3224C14.6397 17.2704 15.7067 16.2717 17.745 16.2717C25.1049 16.258 32.4785 16.2717 39.8384 16.2717C41.9315 16.2717 42.9301 17.2977 42.9301 19.4044C42.9301 25.9983 42.9301 32.5921 42.9301 39.1859C42.9301 41.2652 41.9178 42.2639 39.7974 42.2639C36.1311 42.2639 32.4648 42.2639 28.7986 42.2639V42.2776ZM28.7028 39.35C32.1091 39.35 35.5018 39.3363 38.9082 39.35C39.7016 39.35 40.0162 39.1038 40.0162 38.283C39.9889 32.2501 40.0026 26.2171 40.0162 20.1705C40.0162 19.4592 39.77 19.1582 39.0313 19.1719C37.4991 19.1992 35.9533 19.1719 34.4211 19.1719C33.3677 19.1719 33.2856 19.2676 33.272 20.3621C33.272 22.0721 33.2993 23.7958 33.2309 25.5058C33.1899 26.778 32.67 27.2705 31.3978 27.2979C29.6467 27.3389 27.9094 27.3389 26.1583 27.2979C24.8587 27.2705 24.3389 26.7233 24.3389 25.4237C24.3389 23.6726 24.3115 21.9353 24.3389 20.1842C24.3525 19.4044 24.0652 19.1445 23.2992 19.1582C21.767 19.1992 20.2211 19.1582 18.689 19.1582C17.5672 19.1582 17.5262 19.1992 17.5262 20.3073C17.5262 26.2582 17.5262 32.1953 17.5262 38.1462C17.5262 39.2816 17.5672 39.3227 18.7574 39.3227C22.068 39.3227 25.3785 39.3227 28.7028 39.3227V39.35ZM30.3718 21.7985C30.3718 21.6206 30.3718 21.4428 30.3718 21.2649C30.3307 18.953 30.8095 19.1856 28.0325 19.1856C27.5263 19.1856 27.2664 19.4318 27.2664 19.938C27.2664 20.7041 27.2527 21.4701 27.2664 22.2362C27.2938 24.6576 26.9107 24.3977 29.633 24.3977C30.1529 24.3977 30.3855 24.1651 30.3855 23.6453C30.3855 23.0297 30.3855 22.4004 30.3855 21.7848L30.3718 21.7985Z" fill="white"/>
<path d="M28.81 45.3828C32.5446 45.3828 36.2656 45.3828 40.0003 45.3828C42.1344 45.3828 42.9278 46.2036 42.9278 48.3514C42.9278 49.8562 42.9278 51.3747 42.9278 52.8795C42.9142 54.6306 42.0797 55.5061 40.3149 55.5471C38.386 55.5882 36.4708 55.5608 34.5419 55.5608C29.0425 55.5608 23.5295 55.5608 18.0301 55.5608C17.5649 55.5608 17.0861 55.5608 16.621 55.4787C15.5676 55.3146 14.8563 54.699 14.7468 53.6456C14.528 51.5252 14.5006 49.3911 14.7468 47.2707C14.8973 45.9984 15.8139 45.4102 17.3461 45.3965C20.8345 45.3965 24.3366 45.3965 27.825 45.3965C28.1533 45.3965 28.4817 45.3965 28.7963 45.3965L28.81 45.3828ZM28.7142 52.6469C32.0522 52.6469 35.4038 52.6469 38.7417 52.6469C39.9729 52.6469 40.014 52.6059 40.014 51.4294C40.014 50.7454 39.9866 50.0614 40.014 49.3911C40.0687 48.584 39.7404 48.2967 38.9332 48.3104C36.5119 48.3514 34.0768 48.3104 31.6554 48.3104C27.3052 48.3104 22.9549 48.324 18.6183 48.3104C17.8249 48.3104 17.4692 48.5429 17.5239 49.3774C17.5786 50.1161 17.5786 50.8549 17.5239 51.5936C17.4692 52.4007 17.7838 52.688 18.5909 52.6743C21.9562 52.6333 25.3352 52.6606 28.7005 52.6606L28.7142 52.6469Z" fill="white"/>
<path d="M54.1865 45.3815C55.1304 45.3815 56.0744 45.3542 57.0183 45.3815C58.3863 45.4362 59.2345 46.2707 59.2481 47.6251C59.2755 49.5129 59.2755 51.4008 59.2481 53.3023C59.2345 54.5198 58.5505 55.368 57.3329 55.4638C55.2125 55.6553 53.0784 55.669 50.958 55.4501C49.8773 55.3406 49.248 54.684 49.1522 53.5759C48.9607 51.5102 48.9744 49.4445 49.1522 47.3788C49.248 46.1202 50.0825 45.4226 51.341 45.3815C52.285 45.3405 53.2289 45.3815 54.1728 45.3815H54.1865ZM54.1591 52.6457C56.5668 52.6183 56.3616 52.9603 56.3616 50.4842C56.3616 48.0355 56.5805 48.2954 54.1728 48.2954C51.683 48.2954 51.9977 48.0491 51.9977 50.4705C51.9977 52.9466 51.683 52.632 54.1591 52.6457Z" fill="white"/>
<path d="M59.2605 21.4118C59.2605 22.3284 59.2742 23.2449 59.2605 24.1615C59.2195 25.4885 58.4534 26.3777 57.1401 26.4324C55.1565 26.5008 53.1866 26.5008 51.203 26.4324C50.0265 26.3913 49.2741 25.6526 49.1646 24.4761C48.9868 22.4104 48.9868 20.3447 49.1646 18.279C49.2741 17.0615 50.0265 16.3502 51.2851 16.3091C53.2276 16.2407 55.1839 16.2407 57.1401 16.3091C58.4671 16.3638 59.2332 17.253 59.2605 18.58C59.2879 19.5239 59.2605 20.4679 59.2605 21.4118ZM51.9827 21.3297C52.0101 23.8195 51.6544 23.5185 54.2126 23.5459C54.24 23.5459 54.2673 23.5459 54.2947 23.5459C56.4972 23.5322 56.3604 23.7784 56.3467 21.4939C56.3467 18.8673 56.5929 19.2093 54.0895 19.2093C51.6818 19.2093 51.9964 18.9357 51.9691 21.3434L51.9827 21.3297Z" fill="white"/>
<path d="M54.2395 30.4575C55.156 30.4575 56.0726 30.4301 56.9892 30.4575C58.3982 30.4985 59.2464 31.3467 59.26 32.7557C59.2874 34.6162 59.2874 36.4767 59.26 38.3372C59.2464 39.6095 58.5487 40.4303 57.2901 40.5397C55.2244 40.7175 53.1587 40.7175 51.093 40.5397C49.9302 40.4439 49.2599 39.7736 49.1641 38.5971C49 36.5725 49 34.5205 49.1641 32.4958C49.2599 31.1962 50.1081 30.4985 51.4214 30.4712C52.3653 30.4438 53.3092 30.4712 54.2531 30.4712L54.2395 30.4575ZM54.1437 37.7353C56.5514 37.7079 56.3599 38.0499 56.3599 35.5738C56.3599 33.1388 56.5787 33.3713 54.1711 33.3713C51.6676 33.3713 51.9822 33.1525 51.9822 35.5465C51.9822 38.0362 51.6676 37.7079 54.13 37.7353H54.1437Z" fill="white"/>
<path d="M70.1915 20.4163C68.8646 20.4163 67.5239 20.4163 66.1969 20.4163C65.8413 20.4163 65.4856 20.4026 65.1436 20.3205C64.4185 20.1564 63.9945 19.6502 64.0081 18.9252C64.0081 18.1454 64.5006 17.6529 65.2667 17.5435C65.8823 17.4614 66.5116 17.5024 67.1272 17.5024C69.6443 17.5024 72.1615 17.5024 74.6649 17.5024C75.8551 17.5024 76.5528 18.2685 76.3202 19.2672C76.115 20.1427 75.4173 20.3889 74.6239 20.4026C73.1464 20.4163 71.669 20.4026 70.1915 20.4026V20.4163Z" fill="white"/>
<path d="M70.2186 22.8203C71.696 22.8203 73.1735 22.8203 74.6509 22.8203C75.7317 22.8203 76.3336 23.3402 76.3473 24.2157C76.361 25.0775 75.7864 25.6795 74.7193 25.6931C71.7097 25.7342 68.6864 25.7342 65.6768 25.6931C64.6234 25.6931 63.9941 25.0502 63.9941 24.2294C63.9941 23.3812 64.6781 22.8203 65.7862 22.8203C67.2637 22.8203 68.7411 22.8203 70.2186 22.8203Z" fill="white"/>
<path d="M70.2188 37.0078C71.7236 37.0078 73.2284 37.0078 74.7332 37.0078C75.7592 37.0078 76.3338 37.5277 76.3612 38.3758C76.3748 39.2377 75.7592 39.8122 74.7195 39.8122C71.7099 39.8122 68.6866 39.8122 65.677 39.8122C64.6373 39.8122 63.9807 39.2377 63.9944 38.4032C63.9944 37.5687 64.651 37.0352 65.7044 37.0215C67.2092 37.0215 68.714 37.0215 70.2188 37.0215V37.0078Z" fill="white"/>
<path d="M70.2186 49.4045C68.6864 49.4045 67.1406 49.4045 65.6084 49.4045C64.6234 49.4045 63.9941 48.8436 63.9805 48.0228C63.9805 47.2157 64.6098 46.6138 65.5674 46.6001C68.6454 46.5864 71.7097 46.5864 74.7877 46.6001C75.759 46.6001 76.361 47.1883 76.3473 48.0228C76.3473 48.871 75.759 49.3772 74.733 49.3908C73.2282 49.4045 71.7234 49.3908 70.2186 49.3908V49.4045Z" fill="white"/>
<path d="M70.1912 31.6875C71.696 31.6875 73.2008 31.6875 74.7057 31.6875C75.759 31.6875 76.3746 32.2484 76.3609 33.1102C76.3473 33.9447 75.7453 34.4782 74.7467 34.4782C71.7097 34.4782 68.6591 34.4782 65.6221 34.4782C64.6371 34.4782 64.0078 33.9174 63.9941 33.1102C63.9941 32.2757 64.6371 31.7012 65.6768 31.6875C67.1816 31.6875 68.6864 31.6875 70.1912 31.6875Z" fill="white"/>
<path d="M70.151 54.7243C68.6462 54.7243 67.1414 54.7243 65.6366 54.7243C64.6379 54.7243 64.0223 54.1908 63.995 53.37C63.9676 52.5355 64.6243 51.9336 65.6503 51.9336C68.6872 51.9336 71.7379 51.9336 74.7749 51.9336C75.7598 51.9336 76.3618 52.4945 76.3618 53.329C76.3618 54.1635 75.7599 54.7107 74.7612 54.7107C73.229 54.7243 71.6832 54.7107 70.151 54.7107V54.7243Z" fill="white"/>
</svg>
