<svg width="100" height="100" viewBox="0 0 100 100" fill="none" xmlns="http://www.w3.org/2000/svg">
<g clip-path="url(#clip0_343_4775)">
<path d="M74.9606 96.299H26.4236C24.4822 95.7393 23.8994 94.9616 23.884 92.8967C23.8782 92.1904 23.8666 91.4841 23.8917 90.7797C24.0171 87.3195 26.3561 85.0635 29.824 85.0558C31.1729 85.052 32.5199 85.0558 33.8689 85.0558C35.1754 85.0558 35.2178 85.0018 35.4069 83.6663C35.7505 81.2232 36.0978 78.7781 36.4626 76.3388C36.6536 75.0651 36.5745 74.9435 35.2776 74.9416C29.3087 74.9377 23.3378 74.9397 17.3689 74.9397C14.2561 74.9397 11.1413 74.9706 8.02852 74.93C4.07045 74.8779 1.32045 72.3537 1.31852 68.7623C1.30694 48.9295 1.30887 29.0967 1.31852 9.26388C1.31852 6.82652 2.5073 5.05494 4.59151 3.86809C5.8073 3.17529 7.16203 3.1116 8.51677 3.1116C36.6324 3.10774 64.748 3.10967 92.8636 3.1116C93.6992 3.1116 94.5368 3.13283 95.3492 3.33546C97.7924 3.94529 99.2205 5.59915 99.9982 7.90722V70.1074C99.5003 71.5663 98.7534 72.8439 97.4585 73.7548C96.1038 74.7062 94.5715 74.9358 92.9755 74.9358C84.2122 74.9358 75.4489 74.9358 66.6875 74.9358C66.3343 74.9358 65.9812 74.9474 65.628 74.9435C64.9989 74.9358 64.7519 75.26 64.8387 75.8583C65.244 78.6488 65.6589 81.4393 66.0622 84.2318C66.1529 84.8667 66.5041 85.0713 67.1217 85.0616C68.7582 85.0365 70.3966 85.0384 72.0331 85.0616C74.621 85.0963 76.8519 87.003 77.3401 89.5349C77.5543 90.6504 77.4984 91.7735 77.4964 92.8948C77.4906 94.9616 76.9001 95.7393 74.9626 96.3009L74.9606 96.299ZM50.6931 71.7767C64.8175 71.7767 78.9419 71.7767 93.0662 71.7767C95.8954 71.7767 97.0359 70.64 97.0359 67.8032C97.0359 48.6091 97.0359 29.4151 97.0359 10.2211C97.0359 7.39774 95.878 6.24178 93.0643 6.24178C64.8155 6.24178 36.5668 6.24178 8.318 6.24178C5.50238 6.24178 4.35221 7.39581 4.35221 10.2249C4.35221 29.419 4.35221 48.613 4.35221 67.807C4.35221 70.6439 5.48887 71.7786 8.32186 71.7786C22.4462 71.7786 36.5706 71.7786 50.695 71.7786L50.6931 71.7767ZM50.641 93.1476C57.7929 93.1476 64.9468 93.1476 72.0987 93.1476C72.5792 93.1476 73.0617 93.1437 73.5422 93.1437C73.8471 93.1437 74.1154 93.08 74.262 92.7732C74.6596 91.9492 74.2177 89.4963 73.5499 88.8537C72.8166 88.1493 71.8941 88.0895 70.9485 88.0895C57.4455 88.0934 43.9426 88.0895 30.4376 88.0953C29.9919 88.0953 29.5364 88.1165 29.1022 88.2111C27.8382 88.4851 27.1184 89.367 27.0643 90.6542C27.0489 91.0383 27.0547 91.4242 27.0566 91.8083C27.0624 93.1379 27.0643 93.1437 28.4133 93.1437C35.8219 93.1437 43.2324 93.1437 50.641 93.1437V93.1476ZM50.695 74.9377C47.4568 74.9377 44.2166 74.959 40.9784 74.9223C40.1447 74.9127 39.7626 75.1925 39.6487 76.03C39.282 78.7279 38.871 81.4181 38.4676 84.1102C38.3692 84.7702 38.6085 85.0732 39.2936 85.0597C40.3512 85.0385 41.4106 85.0597 42.4682 85.0558C44.9268 85.0462 44.6257 85.2932 44.6508 82.9156C44.6759 80.4127 46.3008 78.3014 48.634 77.7842C49.9636 77.489 51.3087 77.4851 52.6441 77.7669C54.7264 78.2069 56.3841 79.9437 56.6794 82.0453C56.7759 82.7381 56.7431 83.4541 56.7334 84.1584C56.7257 84.7413 56.9245 85.0674 57.5613 85.0616C59.1013 85.0481 60.6394 85.052 62.1794 85.0597C62.8433 85.0635 63.0015 84.7104 62.9127 84.1256C62.5113 81.4335 62.0983 78.7434 61.7336 76.0455C61.6217 75.2137 61.2531 74.9204 60.4136 74.93C57.1754 74.9667 53.9371 74.9455 50.6969 74.9455L50.695 74.9377ZM50.6333 85.0539C50.9845 85.0539 51.3376 85.0539 51.6889 85.0539C53.8001 85.0539 54.0298 84.7644 53.5994 82.6474C53.3755 81.5493 52.7194 80.8218 51.7024 80.7948C50.3727 80.76 48.8694 80.3509 48.0164 81.9083C47.617 82.6377 47.6941 83.4579 47.6922 84.2569C47.6922 84.8262 47.9643 85.0655 48.522 85.0539C49.2264 85.0404 49.9289 85.05 50.6333 85.0539Z" fill="white"/>
<path d="M7.89146 38.9516C7.89146 30.3504 7.89146 21.7472 7.89146 13.146C7.89146 10.3902 8.84865 9.41949 11.5909 9.41756C23.1467 9.41177 34.7025 9.4137 46.2602 9.41949C46.6751 9.41949 47.0997 9.433 47.5011 9.52563C48.3251 9.71475 48.798 10.2802 48.7458 11.1177C48.6937 11.9572 48.1418 12.4435 47.3101 12.5497C46.899 12.6018 46.4764 12.5805 46.0595 12.5805C34.8878 12.5805 23.718 12.5805 12.5462 12.5805C11.5607 12.5805 11.0667 13.0829 11.0641 14.0877C11.0641 30.7132 11.0641 47.3405 11.0641 63.966C11.0641 65.4153 11.068 65.4191 12.5018 65.4191C23.8974 65.4191 35.293 65.4191 46.6887 65.423C47.1364 65.423 47.5976 65.4076 48.028 65.5079C48.7516 65.6758 49.209 66.1428 49.2302 66.9302C49.2534 67.7484 48.8481 68.2811 48.0627 68.4721C47.6632 68.5686 47.2367 68.5841 46.8237 68.5841C35.075 68.5898 23.3262 68.5918 11.5774 68.586C8.83707 68.586 7.88953 67.6191 7.88953 64.8518C7.8876 56.2177 7.88953 47.5837 7.88953 38.9497L7.89146 38.9516Z" fill="white"/>
<path d="M93.488 39.1041C93.488 47.6726 93.488 56.241 93.488 64.8094C93.488 65.3536 93.5092 65.8998 93.3626 66.4362C93.0654 67.5247 92.3919 68.2406 91.2764 68.4587C90.7457 68.5629 90.1938 68.5899 89.6515 68.5899C78.3215 68.5976 66.9915 68.5957 55.6615 68.5938C55.3083 68.5938 54.9533 68.6034 54.604 68.5629C53.6197 68.451 52.9752 67.8045 52.9887 66.9708C53.0003 66.1371 53.6738 65.5119 54.658 65.4424C55.042 65.4154 55.428 65.4289 55.814 65.4289C66.7908 65.4289 77.7676 65.4289 88.7445 65.4289C89.7892 65.4289 90.3128 64.9245 90.3154 63.9159C90.3154 47.2924 90.3154 30.6689 90.3154 14.0454C90.3154 13.0779 89.8368 12.5929 88.8796 12.5903C77.6133 12.5903 66.3489 12.5903 55.0826 12.5864C54.6348 12.5864 54.1736 12.6096 53.7413 12.5189C53.0099 12.3645 52.5429 11.8898 52.5062 11.1178C52.4696 10.3131 52.8652 9.75537 53.6506 9.55467C54.0482 9.45239 54.4747 9.4273 54.8876 9.4273C66.538 9.42151 78.1883 9.41958 89.8406 9.42537C92.5076 9.42537 93.4861 10.425 93.488 13.1133C93.4919 21.7782 93.488 30.4431 93.488 39.108V39.1041Z" fill="white"/>
<path d="M32.5385 45.7043C28.5611 45.7043 24.5837 45.7101 20.6064 45.7024C18.3195 45.6966 17.1964 44.6603 17.1867 42.3657C17.1539 35.181 17.1539 27.9962 17.1867 20.8115C17.1983 18.5903 18.3369 17.5076 20.5523 17.5038C28.5399 17.4883 36.5274 17.4883 44.515 17.5038C46.7902 17.5076 47.8613 18.6115 47.8632 20.9003C47.869 28.0522 47.869 35.206 47.8632 42.358C47.8613 44.6159 46.7651 45.6966 44.4725 45.7024C40.4951 45.712 36.5178 45.7043 32.5404 45.7043H32.5385ZM32.44 42.5317C36.1299 42.5317 39.8216 42.5143 43.5115 42.5452C44.3683 42.5529 44.7157 42.2769 44.7118 41.3853C44.6886 34.8394 44.6925 28.2953 44.7079 21.7494C44.7079 20.9794 44.4436 20.6436 43.6408 20.661C41.9734 20.6976 40.3041 20.6667 38.6348 20.6725C37.4904 20.6783 37.4036 20.769 37.3939 21.9617C37.3785 23.822 37.4171 25.6843 37.3534 27.5427C37.3071 28.9225 36.7455 29.4513 35.3676 29.4803C33.4744 29.5189 31.5813 29.5189 29.6881 29.4803C28.2774 29.4532 27.7216 28.8531 27.712 27.4462C27.6985 25.5531 27.6772 23.6599 27.7197 21.7667C27.739 20.9196 27.4167 20.6339 26.5908 20.6552C24.9234 20.6976 23.2541 20.6629 21.5848 20.6687C20.3632 20.6725 20.3265 20.7073 20.3246 21.9096C20.3208 28.359 20.3227 34.8085 20.3246 41.258C20.3246 42.4931 20.3632 42.5278 21.6581 42.5297C25.2515 42.5336 28.8467 42.5297 32.44 42.5297V42.5317ZM34.2464 23.4997C34.2464 23.4997 34.2483 23.4997 34.2502 23.4997C34.2502 23.3087 34.2541 23.1157 34.2502 22.9246C34.2058 20.4236 34.7308 20.6687 31.7067 20.6764C31.1529 20.6764 30.8788 20.9369 30.8788 21.4927C30.8788 22.3245 30.8615 23.1562 30.8711 23.988C30.9 26.6164 30.4832 26.325 33.4378 26.3308C33.9993 26.3308 34.2599 26.078 34.2502 25.5164C34.2386 24.8448 34.2483 24.1732 34.2483 23.5017L34.2464 23.4997Z" fill="white"/>
<path d="M32.5538 49.0733C36.5967 49.0733 40.6417 49.0694 44.6846 49.0752C46.9927 49.0791 47.8611 49.9629 47.865 52.2922C47.8688 53.9287 47.8766 55.5652 47.8611 57.2017C47.8457 59.1026 46.9425 60.054 45.0339 60.0926C42.9478 60.135 40.8617 60.108 38.7755 60.108C32.8066 60.108 26.8376 60.11 20.8667 60.1042C20.3553 60.1042 19.8362 60.0926 19.3325 60.0135C18.1843 59.8301 17.4181 59.1643 17.2966 58.02C17.0534 55.7215 17.0322 53.4038 17.3062 51.1093C17.4703 49.7372 18.466 49.0849 20.1315 49.0791C23.9178 49.0636 27.706 49.0733 31.4924 49.0733C31.8455 49.0733 32.1987 49.0733 32.5518 49.0733H32.5538ZM32.4457 56.9489C36.0699 56.9489 39.6941 56.9489 43.3183 56.9489C44.6518 56.9489 44.6943 56.9065 44.702 55.625C44.7078 54.8879 44.6653 54.1468 44.7117 53.4135C44.7657 52.5373 44.4106 52.2247 43.5345 52.2382C40.906 52.2768 38.2757 52.2517 35.6453 52.2517C30.9308 52.2517 26.2162 52.2671 21.5017 52.2382C20.641 52.2324 20.2531 52.4852 20.3167 53.3903C20.3727 54.1873 20.3727 54.9959 20.3167 55.7929C20.255 56.6749 20.5927 56.974 21.4785 56.9643C25.1336 56.9277 28.7906 56.9489 32.4476 56.9489H32.4457Z" fill="white"/>
<path d="M60.0739 49.0613C61.0987 49.0613 62.1253 49.0305 63.1501 49.0671C64.6283 49.1212 65.5508 50.032 65.5759 51.4987C65.6087 53.5482 65.6067 55.6015 65.5759 57.651C65.5566 58.9748 64.8175 59.8838 63.5013 59.9996C61.2048 60.2022 58.891 60.2196 56.5945 59.9841C55.4192 59.8645 54.7457 59.1563 54.6376 57.9559C54.4369 55.7212 54.4504 53.4729 54.6222 51.2382C54.7264 49.8777 55.6296 49.1231 56.9978 49.0671C58.0225 49.0266 59.0492 49.0594 60.0739 49.0594V49.0613ZM60.0411 56.9447C62.6483 56.9138 62.436 57.2901 62.4341 54.6019C62.4341 51.9503 62.6657 52.2243 60.0624 52.2243C57.3548 52.2243 57.6983 51.9619 57.6983 54.5787C57.6983 57.2592 57.3625 56.9177 60.0411 56.9447Z" fill="white"/>
<path d="M65.5848 23.0789C65.5848 24.0728 65.606 25.0667 65.579 26.0586C65.5423 27.4925 64.7028 28.467 63.2786 28.5172C61.1346 28.5925 58.9848 28.5886 56.8388 28.5153C55.5709 28.4709 54.743 27.6642 54.633 26.3886C54.44 24.1539 54.44 21.9056 54.633 19.6709C54.7469 18.3567 55.5748 17.5867 56.9372 17.5403C59.0504 17.4689 61.1674 17.4612 63.2806 17.5442C64.7164 17.6002 65.5442 18.567 65.5809 20.0028C65.606 21.0275 65.5867 22.0542 65.5867 23.0789H65.5848ZM57.6918 22.9863C57.7246 25.6919 57.3406 25.3581 60.1099 25.3851C60.1427 25.3851 60.1735 25.3851 60.2063 25.3851C62.5955 25.3677 62.443 25.6437 62.4353 23.16C62.4256 20.3174 62.7055 20.6821 59.9941 20.6763C57.3792 20.6725 57.7188 20.3811 57.6937 22.9882L57.6918 22.9863Z" fill="white"/>
<path d="M60.1384 32.8768C61.1323 32.8768 62.1261 32.8517 63.118 32.8826C64.6426 32.9289 65.5593 33.8436 65.5805 35.374C65.6075 37.3926 65.6075 39.4112 65.5805 41.4279C65.5612 42.8077 64.8144 43.6915 63.4442 43.8131C61.2094 44.0119 58.9631 44.0061 56.7284 43.817C55.4605 43.7089 54.7368 42.9814 54.6307 41.7057C54.4454 39.5038 54.4551 37.2865 54.621 35.0845C54.7272 33.6777 55.6419 32.925 57.0642 32.8845C58.0889 32.8536 59.1137 32.8787 60.1403 32.8787L60.1384 32.8768ZM60.0361 40.764C62.6491 40.7331 62.4368 41.1133 62.4368 38.425C62.4368 35.785 62.6742 36.034 60.0709 36.034C57.3575 36.034 57.701 35.7928 57.701 38.3903C57.701 41.0882 57.3652 40.735 60.0361 40.7621V40.764Z" fill="white"/>
<path d="M77.4308 21.9857C75.9873 21.9857 74.5438 21.9934 73.1003 21.9818C72.7182 21.978 72.3265 21.9606 71.9559 21.8757C71.1705 21.6962 70.717 21.1559 70.7247 20.3666C70.7344 19.5194 71.2593 18.9829 72.0833 18.8709C72.7452 18.7802 73.4284 18.8227 74.1019 18.8208C76.8287 18.8169 79.5556 18.8073 82.2824 18.8285C83.5793 18.8381 84.3319 19.6602 84.0752 20.7429C83.8494 21.6962 83.1007 21.9625 82.2438 21.9722C80.6401 21.9934 79.0365 21.978 77.4308 21.978V21.9838V21.9857Z" fill="white"/>
<path d="M77.4653 24.5979C79.069 24.5979 80.6727 24.5863 82.2764 24.6018C83.442 24.6134 84.0962 25.173 84.1155 26.1167C84.1348 27.0584 83.5134 27.7049 82.3439 27.7204C79.0729 27.7628 75.8018 27.7609 72.5308 27.7204C71.3941 27.7049 70.7013 27.0218 70.7071 26.136C70.7109 25.2116 71.4539 24.6114 72.6543 24.6018C74.2579 24.5883 75.8616 24.5979 77.4653 24.5979Z" fill="white"/>
<path d="M77.4634 39.9827C79.098 39.9827 80.7306 39.9692 82.3652 39.9885C83.4729 40.002 84.1059 40.5558 84.1232 41.4648C84.1406 42.4065 83.471 43.0163 82.3382 43.0202C79.071 43.0337 75.8018 43.0318 72.5346 43.0202C71.4096 43.0163 70.6994 42.3969 70.7071 41.486C70.7148 40.577 71.4134 39.9962 72.5617 39.9846C74.1962 39.9692 75.8288 39.9807 77.4634 39.9807V39.9827Z" fill="white"/>
<path d="M77.4693 53.4373C75.8038 53.4373 74.1365 53.4508 72.471 53.4335C71.3981 53.4219 70.7188 52.8237 70.7072 51.9417C70.6956 51.0637 71.3884 50.4094 72.4324 50.4037C75.7652 50.3863 79.0961 50.3863 82.4289 50.4037C83.4884 50.4094 84.1388 51.0405 84.1233 51.9514C84.1098 52.8642 83.4788 53.42 82.371 53.4315C80.7365 53.4508 79.1038 53.4354 77.4693 53.4354V53.4373Z" fill="white"/>
<path d="M77.4269 34.2151C79.0615 34.2151 80.6941 34.2035 82.3287 34.219C83.4711 34.2286 84.1389 34.8211 84.1234 35.7609C84.108 36.6679 83.4634 37.2391 82.3711 37.2449C79.0711 37.2565 75.7731 37.2565 72.4731 37.2449C71.4039 37.2411 70.7208 36.6409 70.7073 35.757C70.6918 34.8462 71.402 34.2305 72.5271 34.219C74.1597 34.2035 75.7943 34.2151 77.4289 34.2151H77.4269Z" fill="white"/>
<path d="M77.3947 59.2031C75.7602 59.2031 74.1275 59.2146 72.493 59.1992C71.4142 59.1895 70.7349 58.6125 70.7079 57.7306C70.6789 56.8197 71.391 56.179 72.5065 56.1732C75.8065 56.1617 79.1046 56.1597 82.4046 56.1752C83.4775 56.1809 84.1298 56.7869 84.124 57.6959C84.1202 58.6067 83.4737 59.1876 82.391 59.1973C80.7256 59.2146 79.0602 59.2011 77.3947 59.2011V59.2031Z" fill="white"/>
</g>
<defs>
<clipPath id="clip0_343_4775">
<rect width="99" height="94" fill="white" transform="translate(1 3)"/>
</clipPath>
</defs>
</svg>
