<svg width="216" height="207" viewBox="0 0 216 207" fill="none" xmlns="http://www.w3.org/2000/svg">
<g clip-path="url(#clip0_5455_7323)">
<rect width="216" height="206.929" fill="#151517"/>
<g clip-path="url(#clip1_5455_7323)">
<path d="M98.8164 95.4935H100.013V118.146H98.8164V95.4935ZM117.023 94.9375C110.227 94.9375 105.1 100.067 105.1 106.82C105.1 113.615 110.227 118.701 117.023 118.701C123.819 118.701 128.948 113.615 128.948 106.819C128.948 100.067 123.819 94.9375 117.023 94.9375V94.9375ZM117.023 117.59C110.912 117.59 106.296 112.974 106.296 106.82C106.296 100.665 110.911 96.0495 117.023 96.0495C123.135 96.0495 127.752 100.665 127.752 106.82C127.752 112.974 123.135 117.59 117.023 117.59ZM151.557 97.2031C148.992 95.1087 145.916 94.9375 144.334 94.9375C140.745 94.9375 136.769 96.6049 135.36 99.8532H135.273V95.4935H134.076V118.146H135.273V105.11C135.273 99.4252 138.779 96.0492 144.462 96.0492C147.882 96.0492 149.718 97.1603 150.873 98.1858C152.582 99.7245 153.651 102.246 153.651 106.177V118.145H154.848V106.178C154.848 102.118 153.78 99.0832 151.557 97.2031V97.2031ZM161.473 95.4935H162.669V118.146H161.473V95.4935ZM179.68 117.59C173.909 117.59 168.951 113.23 168.951 106.82C168.951 103.742 170.233 100.751 172.072 99.0829C174.422 96.9891 176.516 96.0495 179.722 96.0495C184.166 96.0495 188.099 98.5278 189.637 102.844H190.963C189.167 97.502 184.295 94.9375 179.68 94.9375C172.798 94.9375 167.754 100.152 167.754 106.863C167.754 113.915 173.096 118.701 179.68 118.701C185.065 118.701 189.338 115.624 190.919 111.008H189.595C188.484 114.385 184.808 117.59 179.68 117.59V117.59Z" fill="white" stroke="white"/>
<path d="M99.4131 89.7636C100.127 89.7636 100.705 89.1852 100.705 88.4717C100.705 87.7581 100.127 87.1797 99.4131 87.1797C98.6995 87.1797 98.1211 87.7581 98.1211 88.4717C98.1211 89.1852 98.6995 89.7636 99.4131 89.7636Z" fill="white" stroke="white"/>
<path d="M162.071 89.7636C162.785 89.7636 163.363 89.1852 163.363 88.4717C163.363 87.7581 162.785 87.1797 162.071 87.1797C161.358 87.1797 160.779 87.7581 160.779 88.4717C160.779 89.1852 161.358 89.7636 162.071 89.7636Z" fill="white" stroke="white"/>
<path d="M53.975 114.757C60.5013 114.757 65.7918 109.466 65.7918 102.94C65.7918 96.4136 60.5013 91.123 53.975 91.123C47.4488 91.123 42.1582 96.4136 42.1582 102.94C42.1582 109.466 47.4488 114.757 53.975 114.757Z" fill="white"/>
<path d="M78.0912 82.8892C78.0912 80.6447 76.271 78.8259 74.0272 78.8259C73.0494 78.8253 72.1045 79.1791 71.3677 79.8218C66.5217 76.1673 60.4979 73.998 53.9754 73.998C38.0165 73.998 25.0332 86.9817 25.0332 102.941C25.0332 118.9 38.0168 131.883 53.9758 131.883C69.9347 131.883 82.918 118.9 82.918 102.941C82.918 96.4185 80.749 90.394 77.0949 85.5484C77.7377 84.8117 78.0917 83.8669 78.0912 82.8892V82.8892ZM53.9754 130.91C38.5534 130.91 26.0062 118.363 26.0062 102.94C26.0062 87.5186 38.5534 74.9713 53.9758 74.9713C60.246 74.9713 66.0406 77.0459 70.7108 80.5445C70.224 81.2293 69.9627 82.0487 69.9632 82.8889C69.9632 85.133 71.7827 86.9519 74.0265 86.9519C74.9006 86.9519 75.7076 86.6737 76.3706 86.2042C79.8691 90.8742 81.9437 96.6688 81.9437 102.94C81.9444 118.363 69.3978 130.91 53.9754 130.91V130.91Z" fill="white"/>
</g>
</g>
<defs>
<clipPath id="clip0_5455_7323">
<rect width="216" height="206.929" fill="white"/>
</clipPath>
<clipPath id="clip1_5455_7323">
<rect width="166" height="58.0336" fill="white" transform="translate(25 74)"/>
</clipPath>
</defs>
</svg>
