<svg width="231" height="127" viewBox="0 0 231 127" fill="none" xmlns="http://www.w3.org/2000/svg">
<g clip-path="url(#clip0_665_5719)">
<g clip-path="url(#clip1_665_5719)">
<mask id="mask0_665_5719" style="mask-type:luminance" maskUnits="userSpaceOnUse" x="22" y="40" width="187" height="47">
<path d="M208.697 40.1797H22.9941V86.6037H208.697V40.1797Z" fill="white"/>
</mask>
<g mask="url(#mask0_665_5719)">
<path d="M30.0991 85.0409L40.2528 65.8798L50.4066 46.7188L70.5129 85.0409H30.0991Z" fill="#D4D4D4"/>
<path opacity="0.87" d="M78.8773 85.0162L58.2779 39.7266L37.0698 85.0162H78.8773Z" fill="#B9B9B9"/>
<path d="M42.6449 52.6172L22.438 85.0167H62.8517L45.1386 56.6426L42.6449 52.6172Z" fill="#B2B2B2"/>
<path d="M88.3991 77.8688C90.0167 75.748 91.6054 73.7065 93.1368 71.629C93.5392 71.0754 93.9563 70.8237 94.6824 71.0538V84.8707L93.6041 84.9211V73.1673L93.4027 73.1027C92.2022 74.6769 91.0015 76.2513 89.801 77.8256C89.5638 78.1347 89.3193 78.4438 89.0893 78.7674C88.6148 79.436 88.1547 79.357 87.6946 78.753C86.4222 77.0852 85.1497 75.4247 83.8701 73.764C83.6975 73.5411 83.5033 73.3399 83.1727 72.9588V84.8707L82.0728 84.9283V71.0826C82.8132 70.7879 83.2733 71.104 83.7189 71.6936C85.2359 73.7424 86.796 75.7625 88.4063 77.876L88.3991 77.8688Z" fill="white"/>
<path d="M129.556 70.6875C130.16 71.0827 130.649 71.2481 130.922 71.5932C133.546 74.9431 136.134 78.322 138.737 81.6863C138.974 81.9882 139.211 82.2901 139.621 82.8078V71.0253H140.742V85.1729C140.167 84.8135 139.643 84.641 139.355 84.2816C136.688 80.8812 134.057 77.4521 131.418 74.0374C131.224 73.7857 131.016 73.5487 130.656 73.1172V84.8566L129.556 84.9357V70.6875Z" fill="white"/>
<path d="M117.836 47.2344C118.224 47.4932 118.706 47.6801 118.979 48.0251C121.624 51.4039 124.234 54.8114 126.858 58.2046C127.052 58.4561 127.261 58.6933 127.635 59.1462V47.45H128.763V61.2239C128.152 61.5114 127.778 61.2454 127.397 60.7494C124.795 57.3419 122.164 53.9487 119.54 50.5484C119.338 50.2896 119.137 50.038 118.734 49.5348V61.2886H117.62V47.5075L117.829 47.2344H117.836Z" fill="white"/>
<path d="M184.366 82.4846V71.0688H185.445V84.8426C184.834 85.1301 184.459 84.864 184.086 84.3681C181.484 80.9606 178.853 77.5675 176.229 74.1672C176.027 73.9083 175.826 73.6567 175.452 73.1894V84.864L174.309 84.9647V70.7812C174.87 71.1262 175.387 71.2844 175.661 71.6367C178.313 75.0082 180.923 78.4158 183.54 81.8161C183.734 82.0677 183.942 82.3048 184.144 82.5493L184.366 82.4774V82.4846Z" fill="white"/>
<path d="M87.2113 47.4452C89.519 47.4452 91.7476 47.3805 93.9691 47.4667C96.0612 47.5458 97.427 48.8326 97.6499 50.7305C97.8871 52.7146 96.8951 54.0301 94.386 54.9144C95.8598 57.0423 97.3049 59.1413 98.7642 61.2621C97.8511 61.564 97.3552 61.2621 96.8951 60.5504C95.8023 58.8826 94.6018 57.2796 93.4946 55.6261C93.1495 55.1085 92.7829 54.8641 92.143 54.8928C90.9065 54.9431 89.6699 54.9072 88.3185 54.9072V61.3053L87.2041 61.3772V47.4452H87.2113ZM91.1151 53.9295C92.2581 53.872 93.2141 53.8864 94.1559 53.757C95.7088 53.5485 96.5499 52.5636 96.5212 51.1258C96.4924 49.7025 95.5939 48.7176 94.0482 48.581C92.941 48.4876 91.8195 48.5091 90.7052 48.5019C88.2897 48.4947 88.2825 48.5019 88.2969 50.8958C88.2969 51.8375 88.0021 53.1675 88.4911 53.6132C89.0517 54.1308 90.3314 53.8576 91.1151 53.9151V53.9295Z" fill="white"/>
<path d="M104.878 70.7969C108.868 70.8041 111.845 73.9169 111.809 78.0288C111.773 82.1264 108.825 85.1602 104.878 85.1674C100.867 85.1674 97.9121 82.1192 97.9121 77.9857C97.9121 73.8521 100.881 70.7897 104.878 70.7969ZM99.0767 78.0145C99.0912 81.4507 101.564 84.0602 104.828 84.0818C108.113 84.1034 110.651 81.4363 110.63 77.9641C110.608 74.5135 108.149 71.9255 104.878 71.9112C101.564 71.8968 99.0695 74.5207 99.0767 78.0073V78.0145Z" fill="white"/>
<path d="M107.478 47.1719C111.418 47.1863 114.358 50.2415 114.372 54.3392C114.387 58.4942 111.367 61.5782 107.313 61.5424C103.387 61.5064 100.461 58.4152 100.476 54.3248C100.49 50.1984 103.466 47.1575 107.478 47.1791V47.1719ZM101.64 54.3104C101.626 57.7969 104.113 60.4425 107.413 60.4497C110.677 60.4497 113.15 57.876 113.193 54.4182C113.243 50.9604 110.72 48.279 107.42 48.2861C104.149 48.2861 101.655 50.8885 101.64 54.3176V54.3104Z" fill="white"/>
<path d="M166.767 84.8366C165.904 85.1025 165.415 84.8581 165.2 84.0674C165.12 83.787 164.912 83.5425 164.847 83.2622C164.394 81.2565 163.172 80.6167 161.166 80.89C159.815 81.0768 158.42 80.969 157.047 80.9114C156.371 80.8828 156.041 81.1344 155.811 81.731C155.502 82.5218 155.077 83.2694 154.79 84.0674C154.517 84.8222 154.092 85.1241 153.215 84.8294C153.92 83.2622 154.624 81.695 155.329 80.135C156.616 77.2738 157.888 74.4129 159.204 71.5587C159.326 71.2928 159.678 70.9909 159.944 70.9693C160.203 70.9549 160.62 71.221 160.728 71.4654C162.748 75.8864 164.739 80.3292 166.76 84.8294L166.767 84.8366ZM159.995 72.4861C158.837 75.0381 157.773 77.3673 156.666 79.7972H163.309C162.202 77.3601 161.145 75.0239 159.995 72.4861Z" fill="white"/>
<path d="M124.832 71.0469H125.809C125.867 71.1188 125.946 71.1692 125.946 71.2122C125.924 74.1883 126.039 77.1718 125.838 80.1407C125.615 83.4117 123.387 85.2377 120.101 85.1657C117.111 85.101 114.99 83.0809 114.839 79.9251C114.709 77.1502 114.781 74.3609 114.767 71.5788C114.767 71.4207 114.803 71.2697 114.832 71.0685H115.831C115.852 71.4135 115.881 71.7586 115.888 72.1036C115.888 74.1022 115.888 76.1007 115.888 78.092C115.888 78.7461 115.917 79.4003 115.989 80.0546C116.255 82.5562 117.901 84.0659 120.346 84.0802C122.754 84.0874 124.422 82.6713 124.681 80.1695C124.853 78.4802 124.796 76.7692 124.824 75.0726C124.846 73.7643 124.824 72.4631 124.824 71.0469H124.832Z" fill="white"/>
<path d="M148.137 72.1116H143.263V71.0547H154.126V72.0899H149.302V84.8788L148.13 84.9508V72.1044L148.137 72.1116Z" fill="white"/>
<path d="M83.2422 61.3472H82.2285V47.48L83.2422 47.4297V61.3472Z" fill="white"/>
<path d="M170.27 84.8863H169.25V71.0264L170.27 70.9688V84.8863Z" fill="white"/>
<path d="M190.33 75.3221C188.915 75.3293 187.764 74.2078 187.735 72.7988C187.707 71.3899 188.835 70.2325 190.252 70.2037C191.725 70.1748 192.905 71.3178 192.905 72.7629C192.905 74.1575 191.739 75.3077 190.33 75.3221ZM190.295 74.977C191.554 74.977 192.567 73.9778 192.559 72.7485C192.559 71.5048 191.539 70.5272 190.281 70.5416C189.066 70.5558 188.096 71.512 188.067 72.7197C188.038 73.9634 189.037 74.977 190.295 74.977Z" fill="white"/>
<path d="M189.474 74.0544V71.5156H190.332C190.53 71.5156 190.693 71.5495 190.82 71.6173C190.948 71.6842 191.042 71.7764 191.103 71.8937C191.164 72.0111 191.195 72.1445 191.195 72.2941C191.195 72.4437 191.164 72.5764 191.103 72.6921C191.042 72.8078 190.948 72.8987 190.822 72.9648C190.695 73.0301 190.534 73.0627 190.337 73.0627H189.643V72.785H190.327C190.463 72.785 190.572 72.7652 190.654 72.7255C190.738 72.6859 190.798 72.6297 190.835 72.5569C190.873 72.4834 190.892 72.3958 190.892 72.2941C190.892 72.1925 190.873 72.1036 190.835 72.0276C190.797 71.9516 190.737 71.8929 190.653 71.8516C190.57 71.8094 190.459 71.7883 190.322 71.7883H189.782V74.0544H189.474ZM190.669 72.914L191.294 74.0544H190.937L190.322 72.914H190.669Z" fill="white"/>
</g>
</g>
</g>
<defs>
<clipPath id="clip0_665_5719">
<rect width="231" height="127" fill="white"/>
</clipPath>
<clipPath id="clip1_665_5719">
<rect width="185.703" height="46.6054" fill="white" transform="translate(23 40)"/>
</clipPath>
</defs>
</svg>
