<svg width="231" height="127" viewBox="0 0 231 127" fill="none" xmlns="http://www.w3.org/2000/svg">
<g clip-path="url(#clip0_120_2368)">
<path d="M173.449 69.0368C173.492 69.7333 173.636 70.3976 173.553 71.0331C173.359 72.5339 172.257 73.4817 170.706 73.6756C168.735 73.9234 166.925 73.4063 165.18 72.5698C162.818 71.4388 160.75 69.8698 158.818 68.1284C157.307 66.7677 155.648 65.7013 153.616 65.3674C152.46 65.1771 151.286 65.0012 150.119 64.994C147.049 64.9832 143.979 65.1268 140.913 65.1053C137.362 65.0802 134.008 64.2903 131.05 62.2042C128.899 60.6855 127.305 58.6713 125.97 56.4345C125.449 55.562 124.921 54.6895 124.44 53.7919C123.517 52.0649 122.031 51.0919 120.167 50.7867C118.878 50.5749 117.539 50.5857 116.229 50.6108C114.48 50.6395 112.735 50.8406 110.99 50.8549C108.657 50.8765 106.312 50.8837 103.985 50.7221C101.149 50.5282 98.3844 49.864 95.6952 48.9197C95.5875 48.8838 95.4833 48.8443 95.3577 48.7976C94.3847 50.5569 92.6972 51.0632 90.8876 51.2678C87.1679 51.6915 83.6924 50.7257 80.339 49.2357C78.9926 48.6361 77.6928 47.9144 76.228 47.6379C75.4452 47.4907 74.641 47.4369 73.8439 47.4046C73.2946 47.383 73.0899 47.62 73.1725 48.1478C73.3449 49.2357 72.9068 50.0471 72.0954 50.7042C71.2768 51.3684 70.4438 51.9788 69.302 51.968C67.4997 51.9536 66.1784 50.7221 66.042 48.9305C65.8912 46.9199 66.6523 45.3006 68.0993 43.9542C69.7616 42.4103 71.801 41.6886 73.9732 41.3116C75.2945 41.0854 76.6444 41.0064 77.9801 40.8628C77.9873 40.8736 77.9657 40.8233 77.9298 40.7946C75.2119 38.8091 72.3826 37.0211 69.1836 35.9045C68.0993 35.5239 66.9862 35.2402 65.8265 35.251C64.1031 35.269 62.5485 35.8829 61.0513 36.6549C59.9598 37.2186 59.0083 37.9761 58.161 38.8666C57.5111 39.5451 56.7607 40.0514 55.777 40.0945C55.0804 40.1268 54.5383 39.8108 54.1756 39.2543C53.8992 38.8271 53.655 38.3531 53.5294 37.8648C53.4612 37.6027 53.6048 37.2078 53.7879 36.978C53.9782 36.7374 54.0105 36.5651 53.9279 36.2958C53.8453 36.0301 53.8202 35.7429 53.7556 35.4018C54.1505 35.5598 54.4557 35.7429 54.7824 35.7896C55.0661 35.8327 55.4323 35.8183 55.6621 35.6711C56.8182 34.9315 57.346 33.3266 56.9115 32.0268C56.4843 30.7415 54.9943 30.3752 54.0715 31.3805C53.6838 31.8042 53.4037 32.3428 53.1488 32.8634C52.9441 33.2835 52.9693 33.7538 53.1596 34.2026C53.2996 34.5293 53.4252 34.8632 53.5796 35.2546C53.0159 35.2869 52.5707 35.1002 52.1291 34.8668C51.9783 34.7879 51.7701 34.7627 51.6013 34.795C50.6427 34.971 49.8097 34.7376 49.088 34.0949C48.3053 33.3948 47.7668 32.5115 47.3287 31.5744C47.0523 30.9856 47.1779 30.3932 47.6447 29.9516C48.4884 29.1545 49.3609 28.3933 50.2441 27.6393C50.4667 27.449 50.5278 27.3054 50.5134 27.0002C50.4955 26.6951 50.6283 26.3145 50.8258 26.0811C51.8455 24.8711 53.2098 24.1782 54.6603 23.636C56.89 22.7995 59.2202 22.4261 61.5791 22.1855C64.3437 21.9054 67.1083 21.9701 69.8729 22.1963C73.5746 22.5015 77.2405 23.0867 80.874 23.8586C90.2521 25.8549 99.3502 28.7847 108.236 32.35C118.735 36.5615 129.133 41.0244 139.24 46.1192C146.044 49.548 152.79 53.0918 159.522 56.6606C161.838 57.8886 163.996 59.4037 166.286 60.6783C168.046 61.6585 169.837 62.6423 171.726 63.3245C174.465 64.3154 177.248 64.1933 179.901 62.8469C180.856 62.3622 181.829 62.0499 182.921 62.294C184.271 62.592 184.859 63.7302 184.235 64.9725C183.448 66.5379 182.124 67.5145 180.533 68.1464C178.397 68.9937 176.167 69.1589 173.898 69.026C173.729 69.0153 173.557 69.026 173.46 69.026L173.449 69.0368ZM57.5578 26.0344C57.4609 26.1816 57.4106 26.2678 57.3496 26.3432C56.1611 27.826 54.628 28.5298 52.7179 28.5657C50.9838 28.6016 49.7235 29.5171 48.8977 31.0251C48.6392 31.499 48.6177 32.0089 48.9803 32.4361C49.2352 32.7377 49.5404 33.0214 49.8779 33.2224C50.6534 33.6856 51.4003 33.5527 52.0034 32.8849C52.2117 32.6516 52.384 32.3823 52.5564 32.1202C52.9872 31.4595 53.4037 30.7917 53.8346 30.1311C54.8794 28.5226 57.1341 28.9032 58.0353 30.1275C58.7929 31.1544 59.2633 33.2978 58.0389 34.7807C57.1629 35.8434 56.1288 36.7195 55.0266 37.5273C54.549 37.8756 54.5383 38.0874 55.005 38.4465C55.461 38.7983 56.057 38.8127 56.6818 38.3603C57.3998 37.8397 58.0748 37.2581 58.7391 36.6692C59.2417 36.224 59.7013 35.7644 60.3835 35.5526C60.8789 35.3982 61.3457 35.1038 61.773 34.7986C63.0547 33.8938 63.6723 32.6659 63.3707 31.0825C63.2414 30.4075 62.9973 29.7577 62.8034 29.097C63.3384 29.2155 63.8518 29.5135 64.3114 29.9085C65.0402 30.5332 65.5967 31.2944 66.0276 32.1489C66.419 32.928 67.0006 33.4414 67.8946 33.5671C68.2465 33.6174 68.5912 33.7251 68.9394 33.8184C72.4437 34.7448 75.395 36.5292 77.5959 39.4554C77.621 39.4877 77.6605 39.5092 77.7682 39.5954C77.043 37.6889 76.6947 35.847 77.2369 33.8328C77.3159 34.0231 77.3589 34.12 77.402 34.2206C77.858 35.3013 78.2889 36.3928 78.7736 37.4627C79.5599 39.2041 80.6549 40.6797 82.4537 41.5019C83.0246 41.764 83.5991 42.0297 84.1951 42.2344C85.1645 42.5683 86.1483 42.8483 87.1285 43.1535C86.9992 43.1715 86.8699 43.1679 86.7443 43.1463C83.5273 42.6006 80.2959 42.3205 77.0286 42.4677C75.1042 42.5575 73.2479 42.9022 71.485 43.6993C69.5749 44.561 68.1711 45.8858 67.6146 47.9754C67.4171 48.7187 67.453 49.4224 67.9233 50.0651C68.584 50.9663 69.8406 51.1817 70.6987 50.4851C71.1727 50.101 71.5856 49.6306 71.9733 49.1567C72.3503 48.7007 72.2785 48.5068 71.7507 48.2375C71.1655 47.9395 71.0147 47.3722 71.4132 46.848C71.5461 46.6685 71.7328 46.5105 71.9231 46.3957C72.6447 45.9684 73.4526 45.8032 74.2712 45.8212C76.2208 45.8607 78.1093 46.2844 79.9548 46.8732C82.0552 47.5446 84.1305 48.295 86.3529 48.4889C87.807 48.6145 89.2504 48.6002 90.6435 48.0939C92.3884 47.462 93.523 46.3274 93.7205 44.3958C93.8677 42.9668 93.7204 41.563 93.4691 40.1627C93.3147 39.3154 93.1173 38.4788 92.9342 37.6171C98.3449 41.606 104.578 43.0673 111.069 43.7854C105.748 44.2845 100.65 43.1499 95.5264 41.5953C96.205 43.1571 96.3774 44.7189 96.2661 46.3274C96.3702 46.3777 96.4599 46.4208 96.5497 46.4603C101.038 48.514 105.756 49.4978 110.685 49.4691C113.338 49.4547 115.992 49.4188 118.645 49.3829C119.155 49.3757 119.665 49.329 120.225 49.3003C119.948 47.7313 118.796 46.8373 117.873 45.7709C118.232 45.9325 118.588 46.1012 118.911 46.3238C121.514 48.1119 123.507 50.4421 125.097 53.1528C125.801 54.3484 126.522 55.5476 127.377 56.6355C130.404 60.4808 134.382 62.5597 139.29 62.732C141.584 62.811 143.882 62.7931 146.176 62.7967C148.115 62.7967 150.043 62.9295 151.957 63.2598C153.903 63.5937 155.738 64.1826 157.292 65.4679C158.807 66.721 160.326 67.9633 161.856 69.1984C163.055 70.1678 164.301 71.069 165.82 71.4639C167.026 71.7799 168.25 71.9127 169.449 71.4244C170.308 71.0762 170.72 70.4047 170.685 69.4569C170.652 68.6095 170.157 68.1284 169.41 67.7981C167.123 66.7964 165.094 65.4248 163.471 63.5004C162.789 62.689 162.157 61.8273 161.436 61.0553C159.834 59.3427 157.748 58.7898 155.49 58.6785C152.898 58.5492 150.305 58.4199 147.72 58.2332C145.871 58.1004 144.295 57.3249 143.221 55.7918C142.575 54.8726 142.094 53.8386 141.577 52.8369C141.046 51.8064 140.604 50.7257 139.75 49.8963C139.667 49.8173 139.581 49.7383 139.502 49.6558C139.434 49.5839 139.373 49.5085 139.236 49.3506C140.561 50.0938 141.591 50.9806 142.36 52.1654C142.74 52.7543 143.175 53.3108 143.62 53.8529C145.024 55.562 146.754 56.7432 148.988 57.0628C151.652 57.4434 154.319 57.8204 156.991 58.165C158.761 58.3948 160.294 59.0662 161.543 60.3588C162.473 61.3174 163.425 62.2509 164.337 63.2275C166.049 65.0586 168.11 66.2686 170.541 66.8933C171.115 67.0405 171.65 67.3421 172.203 67.5719C172.465 67.6796 172.713 67.834 172.982 67.8986C174.577 68.2649 176.192 68.2792 177.815 68.1392C179.302 68.0099 180.669 67.536 181.887 66.6671C182.414 66.2901 182.906 65.8665 183.143 65.2346C183.506 64.2616 182.87 63.3999 181.844 63.5758C181.075 63.705 180.339 64.0066 179.589 64.2328C178.975 64.4195 178.375 64.6924 177.747 64.775C175.377 65.0981 173.051 64.7534 170.896 63.7733C168.448 62.6602 166.082 61.3641 163.716 60.0859C162.129 59.2278 160.624 58.2117 159.034 57.3644C156.987 56.2729 154.88 55.2927 152.811 54.2407C149.16 52.3845 145.566 50.4061 141.861 48.6684C130.088 43.1463 118.132 38.0515 105.856 33.7287C101.332 32.1345 96.8118 30.544 92.1335 29.4489C91.4693 29.2945 90.7835 29.1976 90.1013 29.1437C89.692 29.1114 89.6525 29.2766 89.8356 29.6464C90.2342 30.4542 90.6112 31.2728 90.9881 32.0915C91.0456 32.2207 91.0635 32.3679 91.1174 32.5762C91.0061 32.5008 90.9666 32.4792 90.9379 32.4505C88.859 30.3286 86.3781 28.8062 83.6781 27.6214C80.5903 26.2678 77.3518 25.4276 74.0234 24.9358C72.4616 24.706 70.8962 24.5085 69.32 24.8316C68.0993 25.083 66.9539 25.5174 65.9486 26.2678C65.5573 26.5622 65.5752 26.774 66.0096 26.932C67.8874 27.6142 69.4277 28.7847 70.7705 30.2316C71.5748 31.1005 72.2929 32.034 72.9248 33.1434C72.8063 33.0752 72.7668 33.0609 72.7345 33.0357C69.7078 30.7091 66.5877 28.5764 62.746 27.7794C62.1464 27.6537 61.597 27.2229 61.0621 26.8746C60.861 26.7417 60.7676 26.4437 60.5917 26.1673C61.2057 26.2427 61.6868 26.3432 62.1679 26.354C63.9344 26.4006 65.4603 25.8226 66.6846 24.53C66.7708 24.4367 66.8642 24.2572 66.8247 24.1674C66.7852 24.0741 66.6021 23.9987 66.4728 23.9843C63.2953 23.6683 60.1178 23.5894 56.9654 24.2428C55.5185 24.5408 54.0679 24.8532 52.779 25.6072C52.3302 25.8693 51.9245 26.2355 51.5798 26.6233C51.4433 26.7776 51.4326 27.151 51.5116 27.3701C51.6372 27.7147 52.0034 27.7471 52.3481 27.7758C52.6784 27.8045 52.7036 27.5639 52.7933 27.3629C53.2206 26.4222 53.9207 25.8549 54.9727 25.8046C55.5005 25.7795 56.0355 25.7723 56.5633 25.8046C56.8828 25.8262 57.1952 25.9375 57.5578 26.0165V26.0344ZM53.296 27.6681C54.2044 27.8189 55.1953 27.4024 55.4861 26.7489C54.427 26.3252 53.436 26.7417 53.296 27.6681Z" fill="#EEEEEE"/>
<path d="M53.2969 27.6667C53.4369 26.7403 54.4279 26.3238 55.487 26.7475C55.1962 27.4046 54.2052 27.821 53.2969 27.6667Z" fill="#EEEEEE"/>
<path d="M100.511 80.6845C102.252 81.022 103.803 81.8263 105.3 82.9608L105.304 82.9501C105.304 82.6901 105.303 82.4378 105.301 82.191C105.299 81.5925 105.296 81.0263 105.311 80.4619C105.318 80.1747 105.228 80.0347 104.963 79.9198C100.371 77.9594 95.7318 77.8517 91.2007 79.9413C86.9712 81.8909 84.7021 85.3126 84.7559 90.0411C84.799 93.8865 86.5835 96.7157 90.1344 98.335C92.3245 99.3331 94.6619 99.6742 97.0423 99.7353C99.9793 99.8107 102.848 99.4444 105.605 98.3673C105.886 98.2596 105.993 98.1232 105.993 97.8072C105.979 95.8223 105.981 93.8352 105.982 91.8493V91.8468C105.982 91.2795 105.982 90.7123 105.982 90.1453C105.982 90.0554 105.976 89.9656 105.97 89.8747L105.968 89.8398C105.966 89.8234 105.965 89.8071 105.964 89.7906C105.963 89.7713 105.962 89.7519 105.961 89.7324H101.789V90.235C101.789 90.7736 101.788 91.3119 101.788 91.8502C101.787 93.4648 101.785 95.0785 101.796 96.6942C101.796 97.003 101.71 97.1466 101.401 97.2291C99.7962 97.6636 98.1661 97.8826 96.5074 97.6923C93.6961 97.3692 91.5203 96.0587 90.2457 93.4628C89.2978 91.5419 89.1686 89.499 89.5096 87.4165C89.8112 85.5675 90.5724 83.9267 92.0014 82.6808C94.4752 80.523 97.3906 80.0813 100.511 80.6845Z" fill="#EEEEEE"/>
<path fill-rule="evenodd" clip-rule="evenodd" d="M190.338 91.0779C191.8 93.0953 193.248 95.0953 194.713 97.1193L194.736 97.1518C195.255 97.8681 195.775 98.5874 196.299 99.3116H195.786C195.437 99.3116 195.089 99.3106 194.74 99.3095H194.739C193.781 99.3067 192.824 99.3039 191.869 99.3224C191.52 99.3295 191.33 99.2003 191.143 98.9274C190.348 97.7654 189.548 96.606 188.748 95.4466L188.746 95.4448L188.741 95.4375L188.737 95.4305C187.936 94.2704 187.135 93.1104 186.34 91.9477C186.156 91.6784 185.963 91.5778 185.639 91.585C184.706 91.6066 183.772 91.6137 182.842 91.585C182.437 91.5707 182.304 91.6748 182.307 92.102C182.324 93.7582 182.322 95.4164 182.32 97.0736V97.0743C182.319 97.6262 182.318 98.1784 182.318 98.7299V99.2793H178.161V78.8893L178.172 78.8873C178.192 78.8839 178.211 78.8805 178.227 78.8773C178.278 78.8679 178.317 78.8606 178.358 78.8606C179.209 78.8628 180.061 78.8626 180.913 78.8625H180.914C182.86 78.8622 184.807 78.8618 186.752 78.8893C188.217 78.9109 189.668 79.1227 191.043 79.672C193.398 80.6091 194.547 82.3756 194.633 84.8781C194.734 87.7146 193.301 89.578 190.878 90.8203C190.768 90.8762 190.656 90.9288 190.528 90.9882L190.527 90.9888C190.468 91.0166 190.405 91.046 190.338 91.0779ZM182.343 89.9478L182.344 89.9475C182.34 89.8751 182.336 89.812 182.333 89.7558C182.324 89.6005 182.319 89.4978 182.319 89.395C182.319 88.781 182.319 88.1669 182.319 87.5527V87.5521C182.32 85.4006 182.322 83.248 182.308 81.0975C182.308 80.9547 182.322 80.8484 182.358 80.7715C182.424 80.6269 182.564 80.5843 182.817 80.5984C183.272 80.6251 183.728 80.6337 184.185 80.6424C185.078 80.6592 185.969 80.6761 186.839 80.8281C189.183 81.241 190.389 82.8208 190.361 85.1474C190.341 86.6784 189.811 87.9264 188.848 88.7319C188.273 89.2149 187.542 89.5396 186.674 89.6715C185.701 89.8204 184.71 89.8561 183.701 89.8924C183.251 89.9086 182.798 89.9249 182.34 89.9515L182.343 89.9478Z" fill="#EEEEEE"/>
<path d="M117.874 78.875H122.085L122.085 80.78C122.085 84.5169 122.085 88.2538 122.107 91.9907C122.111 92.6873 122.215 93.391 122.348 94.0768C122.66 95.6745 123.633 96.748 125.162 97.2651C127.27 97.976 129.406 97.9221 131.5 97.222C133.471 96.5649 134.411 95.0354 134.677 93.0571C134.796 92.1918 134.857 91.3157 134.86 90.4433C134.873 87.7733 134.871 85.1033 134.869 82.4319V82.4289C134.868 81.4264 134.867 80.4237 134.867 79.4207V78.8821H137.596V79.3489C137.596 80.2263 137.597 81.1036 137.598 81.981C137.602 84.9059 137.606 87.8308 137.567 90.7556C137.553 91.8363 137.427 92.935 137.19 93.9906C136.555 96.8162 134.76 98.6043 131.966 99.2865C128.782 100.066 125.586 99.9435 122.455 98.9633C119.655 98.0873 118.272 96.0443 117.982 93.2007C117.899 92.3749 117.874 91.5419 117.874 90.709C117.866 88.0242 117.868 85.3394 117.869 82.6533C117.87 81.5784 117.87 80.5033 117.87 79.4279V78.8678L117.874 78.875Z" fill="#EEEEEE"/>
<path fill-rule="evenodd" clip-rule="evenodd" d="M76.6991 99.3116H77.1766C77.1469 99.2445 77.1214 99.1848 77.0981 99.1303C77.0565 99.0329 77.0218 98.9518 76.9827 98.8736C76.3418 97.5613 75.7009 96.2481 75.06 94.9349C74.4191 93.6217 73.7783 92.3085 73.1374 90.9962C72.6151 89.9274 72.0926 88.8588 71.5702 87.7903L71.5638 87.7772C70.163 84.9126 68.7624 82.0483 67.3676 79.1801C67.2527 78.9432 67.127 78.8391 66.8506 78.8498C66.233 78.875 65.6155 78.8785 64.9979 78.8498C64.6748 78.8319 64.5276 78.9575 64.3875 79.2376C62.2943 83.4402 60.1952 87.6412 58.0958 91.8428C56.9291 94.1777 55.7623 96.5129 54.5965 98.8484C54.5492 98.943 54.5071 99.0376 54.457 99.1501L54.4568 99.1505C54.4347 99.2002 54.411 99.2534 54.3846 99.3116C54.6403 99.3116 54.8898 99.31 55.1351 99.3084H55.1361C55.7103 99.3047 56.261 99.3012 56.8118 99.3188C57.1134 99.3259 57.2677 99.2218 57.3934 98.9561C57.8015 98.0952 58.2145 97.2371 58.6273 96.3794L58.6281 96.3776C59.0103 95.5834 59.3924 94.7896 59.7703 93.9942C59.8816 93.7608 60 93.6495 60.2801 93.6495C63.296 93.6603 66.3084 93.6603 69.3244 93.6495C69.5972 93.6495 69.7265 93.7464 69.8342 93.9906C70.1338 94.6662 70.4371 95.3394 70.7402 96.0125L70.741 96.0143L70.7414 96.0153C71.1789 96.9865 71.6162 97.9574 72.0423 98.9346C72.1751 99.2398 72.3403 99.3224 72.6527 99.3188C73.6315 99.3057 74.6123 99.3078 75.5935 99.31H75.5944C75.9626 99.3108 76.3308 99.3116 76.6991 99.3116ZM60.7792 91.9153C62.1579 89.0394 63.5151 86.2102 64.9225 83.2768L64.9227 83.2772C64.9227 83.2771 64.9226 83.2773 64.9227 83.2772C66.2691 86.2213 67.5581 89.0431 68.8686 91.9155L60.7792 91.9153C60.7791 91.9154 60.7792 91.9153 60.7792 91.9153Z" fill="#EEEEEE"/>
<path fill-rule="evenodd" clip-rule="evenodd" d="M168.8 99.3116C168.382 99.3115 167.971 99.3082 167.564 99.3049H167.563C166.575 99.2968 165.613 99.2889 164.653 99.3295C164.011 99.3583 163.709 99.1536 163.465 98.5648C163.052 97.5687 162.606 96.5847 162.16 95.601C161.919 95.0707 161.679 94.5405 161.444 94.0085C161.329 93.75 161.199 93.6495 160.901 93.6495C157.914 93.6639 154.931 93.6603 151.943 93.6495C151.638 93.6495 151.487 93.7464 151.358 94.0193C150.952 94.8835 150.538 95.7436 150.125 96.604L150.124 96.6053L150.123 96.6071C149.755 97.3722 149.387 98.1374 149.024 98.9059C148.884 99.2003 148.73 99.3367 148.378 99.3224C147.83 99.2994 147.28 99.3036 146.708 99.308C146.474 99.3098 146.237 99.3116 145.994 99.3116C146.019 99.2545 146.041 99.2022 146.062 99.1532C146.104 99.0544 146.14 98.9696 146.181 98.8879C146.905 97.4369 147.63 95.9858 148.354 94.5347L148.355 94.5327C150.895 89.4462 153.435 84.3591 155.968 79.2699C156.123 78.9611 156.291 78.8247 156.65 78.8462C157.25 78.8786 157.857 78.8678 158.46 78.8498C158.708 78.8426 158.844 78.9216 158.955 79.1514C160.772 82.8833 162.594 86.6114 164.416 90.3398C165.097 91.7338 165.778 93.1277 166.459 94.522C166.894 95.4104 167.328 96.2987 167.77 97.2021L168.244 98.1739C168.428 98.5494 168.613 98.9283 168.8 99.3116ZM152.383 91.9155C152.382 91.9166 152.382 91.9178 152.381 91.9189H160.474L160.473 91.9155H160.474C159.932 90.7266 159.392 89.5458 158.852 88.3628C158.083 86.6803 157.313 84.9935 156.529 83.2733C155.407 85.6142 154.313 87.8931 153.213 90.1834L152.382 91.9155H152.383Z" fill="#EEEEEE"/>
<path d="M43.4913 79.0068C43.4875 78.9619 43.4837 78.9168 43.4806 78.8714H39.3193V79.4243C39.3193 80.2123 39.3214 81.0003 39.3236 81.7883C39.3282 83.4956 39.3329 85.203 39.3157 86.9103C39.287 89.9945 39.2439 93.075 39.1577 96.1556C39.1218 97.3871 38.8812 98.6007 38.4432 99.764C37.8257 101.401 36.7054 102.64 35.3303 103.681C35.2403 103.751 35.1677 103.847 35.0955 103.943C35.0641 103.985 35.0326 104.026 35 104.065C37.2656 104.241 39.0859 103.397 40.619 101.925C42.6799 99.9507 43.4662 97.4123 43.4949 94.6476C43.5328 91.0598 43.5245 87.4702 43.5163 83.8813C43.5128 82.3631 43.5093 80.8451 43.5093 79.3273C43.5093 79.2209 43.5003 79.1145 43.4913 79.0068Z" fill="#EEEEEE"/>
</g>
<defs>
<clipPath id="clip0_120_2368">
<rect width="231" height="127" fill="white"/>
</clipPath>
</defs>
</svg>
