<svg width="231" height="127" viewBox="0 0 231 127" fill="none" xmlns="http://www.w3.org/2000/svg">
<g clip-path="url(#clip0_312_630)">
<path d="M210.7 71.0406H208.305C208.305 70.1348 208.319 69.2859 208.303 68.4393C208.255 66.0894 208.236 63.7396 208.125 61.3944C208.011 59.0137 206.934 57.8684 204.924 57.8305C202.657 57.7878 201.16 59.0137 200.99 61.3162C200.795 63.9293 200.76 66.5566 200.71 69.1768C200.672 71.1805 200.71 71.1828 198.479 71.005V56.7089H200.624C200.677 57.4179 200.729 58.1245 200.807 59.1915C201.367 58.5655 201.694 58.1364 202.083 57.7736C203.8 56.1611 205.839 56.0947 207.935 56.7444C209.343 57.1807 209.979 58.3782 210.384 59.7037C210.484 60.031 210.595 60.3582 210.7 60.6854V71.0406Z" fill="#EEEEEE"/>
<path d="M109.286 48.287C110.865 48.17 111.655 48.8118 111.655 50.2124C111.655 56.5246 111.655 62.8344 111.655 69.1466C111.655 71.2286 111.624 71.2547 109.407 70.9085C109.355 70.1852 109.3 69.4336 109.231 68.4922C108.904 68.7791 108.695 68.9261 108.537 69.1134C106.931 71.0009 104.901 71.6435 102.495 71.1314C100.104 70.6216 98.7173 69.0115 98.1861 66.7754C97.534 64.0367 97.6905 61.3809 99.3907 58.9029C101.653 55.6022 106.739 55.7516 108.491 58.3054C108.629 58.507 108.876 58.635 109.288 58.9788V48.287H109.286ZM100.342 63.4913C100.477 64.5773 100.519 65.7179 100.775 66.8086C101.285 68.9878 102.639 70.2327 104.458 70.3797C106.182 70.5172 107.752 69.4596 108.596 67.4702C109.62 65.0587 109.606 62.5855 108.714 60.1502C108.055 58.3481 106.725 57.4897 104.942 57.511C103.149 57.5324 101.674 58.507 101.077 60.2403C100.726 61.2623 100.588 62.3578 100.339 63.4913H100.342Z" fill="#EEEEEE"/>
<path d="M128.231 71.1237C127.42 71.0122 126.612 71.1237 126.185 70.7751C125.831 70.4858 125.931 69.6535 125.782 68.7809C124.423 70.6494 122.742 71.375 120.681 71.3086C118.111 71.2256 116.411 70.0139 116.254 67.5004C116.036 63.9555 116.2 60.3868 116.2 56.7422H118.315C118.315 57.3848 118.31 58.0345 118.315 58.6842C118.331 61.1147 118.298 63.5476 118.379 65.9757C118.464 68.4821 119.775 69.8503 121.997 69.9144C124.164 69.976 125.734 68.6363 125.86 66.3338C126.005 63.6757 125.941 61.0057 125.964 58.3404C125.969 57.8377 125.964 57.3374 125.964 56.7469H128.229V71.1237H128.231Z" fill="#EEEEEE"/>
<path d="M71.5649 63.6041C71.719 67.9742 68.8072 71.1256 64.4489 71.3011C59.9435 71.4813 56.9771 68.6003 56.8396 63.91C56.7163 59.6797 59.723 56.5473 64.0434 56.405C68.7313 56.2509 71.3942 58.8023 71.5649 63.6041ZM59.3697 63.9432C59.2559 63.9787 59.1444 64.0167 59.0306 64.0522C59.5167 65.5105 59.787 67.0898 60.5316 68.4034C62.1796 71.3129 66.3032 71.1944 67.8705 68.2469C69.3549 65.4607 69.4687 62.5607 68.1978 59.6394C67.5623 58.1763 66.4786 57.3203 64.8543 57.2444C63.1921 57.1662 61.7291 57.5693 60.7379 59.0395C59.7372 60.5262 59.3246 62.1695 59.3697 63.9408V63.9432Z" fill="#EEEEEE"/>
<path d="M180.056 63.8312C179.973 59.5369 182.973 56.4662 187.315 56.3998C191.891 56.3286 194.737 59.0816 194.786 63.6273C194.836 68.0876 191.647 71.4618 187.21 71.3599C183.317 71.2697 180.045 68.8772 180.056 63.8336V63.8312ZM192.55 63.6795C192.067 62.1002 191.82 60.6111 191.17 59.3211C189.812 56.6179 185.626 56.3832 183.997 58.9465C182.079 61.9698 181.882 65.235 183.656 68.4053C185.245 71.2484 189.375 71.2342 190.898 68.365C191.664 66.9209 192.01 65.2563 192.55 63.6771V63.6795Z" fill="#EEEEEE"/>
<path d="M95.4846 63.6876C94.3985 63.6876 93.3078 63.6971 92.2146 63.6876C90.1635 63.6663 88.1124 63.6592 86.0613 63.5951C85.2812 63.5714 85.0037 63.8204 85.0891 64.6124C85.3191 66.7275 85.9048 68.6292 88.0152 69.6346C90.1683 70.659 92.153 70.1682 94.0191 68.8711C94.2349 68.7194 94.4412 68.5534 94.7021 68.3542C95.0198 69.1794 94.7779 69.6346 94.0879 70.0354C90.5358 72.1007 86.1941 71.5933 83.9604 68.8095C80.662 64.6954 82.5638 57.8236 87.4058 56.638C92.6984 55.3409 95.6672 58.8693 95.4822 63.69L95.4846 63.6876ZM93.2983 62.5589C93.1845 60.6524 93.1086 58.8788 91.4345 57.7501C90.1019 56.8537 88.4231 56.9533 87.0264 57.9919C85.5159 59.1159 85.0867 60.7046 85.127 62.5565H93.3007L93.2983 62.5589Z" fill="#EEEEEE"/>
<path d="M149.294 59.6041C148.938 58.4517 149.211 57.783 150.28 57.3182C152.061 56.5428 153.852 56.1397 155.786 56.5808C157.529 56.9791 158.637 58.0865 158.769 59.7961C158.98 62.5231 158.959 65.2666 159.011 68.003C159.033 69.1246 158.665 70.4548 160.749 70.1821C159.31 71.4294 157.6 71.0286 156.576 69.3735C155.141 70.4216 153.662 71.3559 151.767 71.3013C148.775 71.2183 147.027 68.6005 148.172 65.8902C148.606 64.8611 149.403 64.2659 150.435 63.998C151.765 63.6518 153.126 63.4218 154.461 63.085C155.431 62.8408 156.552 62.746 156.73 61.4086C156.915 60.0024 156.187 58.492 155.035 57.9181C153.214 57.0147 150.847 57.5743 149.619 59.201C149.536 59.3124 149.443 59.4191 149.294 59.6041V59.6041ZM156.543 65.959C156.543 65.4515 156.512 64.9417 156.55 64.4366C156.605 63.711 156.308 63.3791 155.59 63.5735C154.307 63.9245 152.991 64.2066 151.774 64.7236C150.337 65.333 149.828 66.9976 150.432 68.5057C150.928 69.7458 152.455 70.424 153.873 70.0375C155.943 69.4731 156.543 68.5602 156.541 65.959H156.543Z" fill="#EEEEEE"/>
<path d="M44.2993 70.2946C42.9477 71.4518 41.2831 71.0392 40.3014 69.3533C39.8295 69.6805 39.3718 70.0196 38.8929 70.3231C36.8868 71.6012 34.5772 71.6344 32.9031 70.4227C30.705 68.8316 31.0346 65.2629 33.5647 64.2528C34.9377 63.705 36.4458 63.475 37.9041 63.1549C40.0785 62.6806 40.5266 62.2562 40.427 60.6153C40.3274 58.9483 39.0992 57.72 37.3895 57.5754C35.6656 57.4307 34.1741 57.8315 33.0999 59.5056C32.8249 58.6827 32.6945 58.0449 33.4604 57.6015C35.2601 56.5558 37.2022 56.1242 39.258 56.5202C41.3921 56.9328 42.5042 58.3579 42.6038 60.8832C42.6987 63.2711 42.6963 65.666 42.656 68.0586C42.637 69.2323 42.6062 70.2946 44.2969 70.2923L44.2993 70.2946ZM40.3654 66.2659C40.3654 65.4455 40.3512 64.8977 40.3701 64.35C40.3915 63.7524 40.1306 63.4133 39.5283 63.5627C38.2005 63.8923 36.8323 64.1532 35.5803 64.6748C33.9773 65.3435 33.4272 67.3543 34.269 68.8458C34.9614 70.0741 36.9627 70.5223 38.3427 69.7682C39.8508 68.9454 40.8633 67.8689 40.3678 66.2659H40.3654Z" fill="#EEEEEE"/>
<path d="M144.963 68.7745C144.736 69.225 144.629 69.8723 144.261 70.0929C141.722 71.6247 139.038 71.6792 136.33 70.5647C133.954 69.5878 132.723 67.6671 132.381 65.2437C131.563 59.4461 135.559 55.6426 141.542 56.4939C142.677 56.6551 143.775 57.0725 145.006 57.4044C144.719 58.2296 144.52 58.8035 144.411 59.1165C143.154 58.4952 142.025 57.6226 140.776 57.3902C138.397 56.9492 136.301 58.2344 135.428 60.5345C134.535 62.8915 134.537 65.3101 135.815 67.5699C137.534 70.6122 140.946 71.2998 143.792 69.2392C144.074 69.0353 144.351 68.8266 144.631 68.6203C144.743 68.6725 144.852 68.7247 144.963 68.7768V68.7745Z" fill="#EEEEEE"/>
<path d="M21.5864 78.4277C22.9427 78.4135 23.6896 77.5432 23.9149 76.4382C24.318 74.4606 24.6618 72.4427 24.7235 70.4343C24.8468 66.4767 24.7614 62.5144 24.7614 58.5521C24.7614 57.1831 25.4752 56.5808 26.9026 56.7452C26.943 56.8685 27.0307 57.0108 27.0283 57.153C26.9999 62.6804 27.0259 68.2101 26.9026 73.7374C26.8457 76.3031 25.2807 78.2996 23.1253 78.8948C22.6297 79.0324 21.8756 79.5137 21.584 78.4277H21.5864Z" fill="#EEEEEE"/>
<path d="M170.041 70.3506C168.46 72.0769 165.102 71.458 164.395 69.3856C164.137 68.6244 164.066 67.7731 164.051 66.9622C164.006 64.3372 164.032 61.7099 164.023 59.0826C164.023 58.6226 163.983 58.1625 163.954 57.5768C163.463 57.5768 163.07 57.6172 162.693 57.5579C162.52 57.5318 162.226 57.2591 162.252 57.1856C162.32 56.9769 162.546 56.6426 162.676 56.6568C163.945 56.792 164.073 56.0853 164.042 55.0752C163.987 53.2731 164.336 52.9624 166.399 52.7656C166.399 53.6667 166.442 54.5606 166.387 55.4475C166.335 56.3011 166.631 56.7066 167.525 56.6165C167.876 56.5809 168.248 56.5525 168.585 56.6307C168.903 56.7042 169.185 56.9248 169.481 57.0789C169.202 57.2472 168.936 57.5057 168.635 57.5602C168.177 57.6432 167.691 57.6077 167.219 57.5792C166.6 57.5413 166.389 57.814 166.394 58.4115C166.413 61.5083 166.351 64.6075 166.43 67.702C166.482 69.829 167.226 70.3317 170.041 70.3506V70.3506Z" fill="#EEEEEE"/>
<path d="M48.0469 56.6955H50.1739C50.2213 57.5088 50.264 58.2747 50.3233 59.2849C51.6725 57.708 52.7632 56.0055 55.2175 56.5366C55.0657 57.2883 54.9258 57.9926 54.7764 58.7371C54.2951 58.666 53.9133 58.6067 53.5315 58.5569C52.2724 58.3909 51.3239 58.8865 50.8876 60.0484C50.5627 60.9139 50.3209 61.8553 50.2829 62.7729C50.1905 64.926 50.2403 67.0838 50.2379 69.2393C50.2347 70.5498 49.5044 71.1292 48.0469 70.9774V56.6955V56.6955Z" fill="#EEEEEE"/>
<path d="M175.708 70.9596C175.516 71.0023 175.402 71.0521 175.289 71.0474C172.977 70.9596 173.337 71.2466 173.328 69.0982C173.311 65.4181 173.323 61.7403 173.323 58.0602V56.7109H175.708V70.9596V70.9596Z" fill="#EEEEEE"/>
<path d="M26.0495 53.0677C24.9848 53.0843 24.1311 52.2923 24.1098 51.2703C24.0884 50.2128 24.8923 49.3781 25.9356 49.3828C27.0169 49.3876 27.7781 50.0895 27.797 51.0949C27.816 52.2212 27.0809 53.0511 26.0518 53.0653L26.0495 53.0677Z" fill="#EEEEEE"/>
<path d="M176.068 50.9977C176.102 51.9984 175.397 52.6908 174.51 52.6932C173.488 52.6932 173.133 52.0221 173.114 51.1756C173.095 50.3077 173.621 49.786 174.503 49.7813C175.397 49.7765 175.971 50.2294 176.068 50.9977Z" fill="#EEEEEE"/>
</g>
<defs>
<clipPath id="clip0_312_630">
<rect width="231" height="127" fill="white"/>
</clipPath>
</defs>
</svg>
