<svg width="78" height="147" viewBox="0 0 78 147" fill="none" xmlns="http://www.w3.org/2000/svg">
<path d="M74.7104 115.915H74.1641V115.605H75.6354V115.915H75.0923V117.461H74.7104V115.915ZM77.645 115.996H77.6364L77.0947 117.461H76.8469L76.3089 115.996H76.3024V117.461H75.9422V115.606H76.4722L76.971 116.92L77.4683 115.606H77.9964V117.461H77.6448L77.645 115.996Z" fill="white"/>
<path d="M25.7904 77.9759C25.7904 77.9759 21.9879 80.2164 28.4966 80.9745C36.3816 81.8859 40.4116 81.7552 49.1009 80.0889C49.1009 80.0889 51.3854 81.5402 54.5759 82.7973C35.0967 91.2557 10.4905 82.3073 25.7904 77.9759ZM23.4102 66.9382C23.4102 66.9382 19.1453 70.1368 25.6587 70.8194C34.0818 71.6998 40.7337 71.7718 52.244 69.5262C52.244 69.5262 53.8363 71.1615 56.3396 72.0557C32.7877 79.0332 6.55548 72.606 23.4102 66.9382Z" fill="white"/>
<path d="M43.4726 48.2146C48.2723 53.8134 42.2118 58.8518 42.2118 58.8518C42.2118 58.8518 54.3985 52.4775 48.8017 44.4954C43.5743 37.0514 39.5655 33.3531 61.2674 20.6011C61.2676 20.6008 27.2026 29.2206 43.4726 48.2146Z" fill="white"/>
<path d="M69.2405 86.14C69.2405 86.14 72.0544 88.4894 66.1414 90.3065C54.8978 93.7574 19.344 94.7995 9.46728 90.4442C5.91687 88.8791 12.5749 86.7074 14.6693 86.2517C16.8535 85.7718 18.1017 85.8612 18.1017 85.8612C14.1533 83.0431 -7.41932 91.3945 7.14388 93.7865C46.8598 100.312 79.5425 90.848 69.2405 86.14ZM27.6201 55.5018C27.6201 55.5018 9.53514 59.8539 21.2157 61.4343C26.1476 62.1033 35.9793 61.9519 45.1369 61.1745C52.6213 60.5348 60.1367 59.1751 60.1367 59.1751C60.1367 59.1751 57.4977 60.3202 55.5884 61.6408C37.2235 66.5346 1.74584 64.2578 11.9594 59.2523C20.597 55.022 27.6201 55.5018 27.6201 55.5018ZM60.0622 73.8746C78.731 64.0459 70.0995 54.6002 64.0744 55.873C62.5977 56.1844 61.9393 56.4542 61.9393 56.4542C61.9393 56.4542 62.4878 55.5842 63.5343 55.2075C75.4533 50.962 84.6198 67.7292 59.6867 74.3703C59.6867 74.3703 59.9761 74.1089 60.0622 73.8746Z" fill="white"/>
<path d="M48.806 0.00952148C48.806 0.00952148 59.1451 10.488 38.9999 26.6016C22.8454 39.5271 35.3161 46.8969 38.9931 55.3176C29.5638 46.6975 22.6437 39.1097 27.2863 32.0474C34.1001 21.6806 52.9776 16.6544 48.806 0.00952148Z" fill="white"/>
<path d="M29.4509 100.509C47.3706 101.671 74.8884 99.8637 75.5398 91.2732C75.5398 91.2732 74.2873 94.5296 60.7301 97.1162C45.4356 100.032 26.5713 99.692 15.3828 97.823C15.3828 97.823 17.6735 99.7433 29.4509 100.509Z" fill="white"/>
<path d="M26.5147 133.334C24.8242 134.82 23.0388 135.654 21.4366 135.654C19.1497 135.654 17.9141 134.264 17.9141 132.036C17.9141 129.625 19.2382 127.863 24.549 127.863H26.5144L26.5147 133.334ZM31.1792 138.666V122.161C31.1792 117.944 28.8056 115.162 23.0828 115.162C19.7418 115.162 16.8153 115.998 14.4366 117.064L15.1232 119.986C16.996 119.289 19.4203 118.641 21.7997 118.641C25.0964 118.641 26.5147 119.986 26.5147 122.766V124.852H24.8693C16.8595 124.852 13.2463 128.003 13.2463 132.731C13.2463 136.812 15.6274 139.131 20.1106 139.131C22.9924 139.131 25.1436 137.925 27.1546 136.161L27.5196 138.667L31.1792 138.666ZM46.7463 138.666H40.9287L33.9271 115.58H39.0079L43.3522 129.764L44.318 134.03C46.5159 127.862 48.0706 121.605 48.8481 115.58H53.7902C52.4659 123.182 50.0832 131.526 46.7463 138.666ZM69.0641 133.334C67.3705 134.82 65.5821 135.654 63.9796 135.654C61.6967 135.654 60.4579 134.264 60.4579 132.036C60.4579 129.625 61.7847 127.863 67.0953 127.863H69.0641V133.334ZM73.7281 138.666V122.161C73.7281 117.944 71.3489 115.162 65.6323 115.162C62.2892 115.162 59.3615 115.998 56.9839 117.064L57.6697 119.986C59.5431 119.289 61.9719 118.641 64.3495 118.641C67.6438 118.641 69.0641 119.986 69.0641 122.766V124.852H67.4158C59.4039 124.852 55.7921 128.003 55.7921 132.731C55.7921 136.812 58.1713 139.131 62.6537 139.131C65.5373 139.131 67.6877 137.925 69.7019 136.161L70.0683 138.667L73.7281 138.666ZM8.13179 142.587C6.80206 144.554 4.65432 146.11 2.30302 146.99L0 144.245C1.78969 143.314 3.32459 141.811 4.03773 140.412C4.65459 139.167 4.90992 137.563 4.90992 133.726V107.37H9.86569V133.365C9.86543 138.494 9.46071 140.566 8.13179 142.587Z" fill="white"/>
</svg>
