<?xml version="1.0" encoding="utf-8"?>
<!-- Generator: Adobe Illustrator 24.0.1, SVG Export Plug-In . SVG Version: 6.00 Build 0)  -->
<svg version="1.1" id="Layer_1" xmlns="http://www.w3.org/2000/svg" xmlns:xlink="http://www.w3.org/1999/xlink" x="0px" y="0px"
	 viewBox="0 0 52.6 52.6" style="enable-background:new 0 0 52.6 52.6;" xml:space="preserve">
<style type="text/css">
	.st0{fill:none;}
	.st1{fill:#FFFFFF;}
</style>
<g>
	<rect class="st0" width="52.6" height="52.6"/>
</g>
<path class="st1" d="M35.3,37.7h-0.1v-0.1h0.4v0.1L35.3,37.7l0.1,0.3h-0.1C35.3,38,35.3,37.7,35.3,37.7z M36.1,37.7L36.1,37.7
	L35.9,38h-0.1l-0.1-0.4l0,0V38h-0.1v-0.5h0.1l0.1,0.4l0.1-0.4h0.1V38h-0.1L36.1,37.7z"/>
<path class="st1" d="M22.9,28c0,0-1,0.6,0.7,0.8c2,0.2,3,0.2,5.2-0.2c0,0,0.6,0.4,1.4,0.7C25.3,31.4,19,29.1,22.9,28z M22.3,25.2
	c0,0-1.1,0.8,0.6,1c2.1,0.2,3.9,0.2,6.7-0.4c0,0,0.4,0.4,1.1,0.6C24.6,28.3,18,26.7,22.3,25.2z"/>
<path class="st1" d="M27.4,20.5c1.2,1.4-0.3,2.7-0.3,2.7s3.1-1.6,1.6-3.6c-1.4-1.9-2.4-2.9,3.1-6.1C31.9,13.5,23.3,15.7,27.4,20.5z"
	/>
<path class="st1" d="M33.9,30.1c0,0,0.7,0.6-0.8,1.1c-2.9,0.9-11.9,1.1-14.4,0c-0.9-0.4,0.8-0.9,1.3-1.1c0.6-0.1,0.9-0.1,0.9-0.1
	c-1-0.7-6.5,1.4-2.8,2C28.2,33.7,36.5,31.3,33.9,30.1z M23.4,22.3c0,0-4.6,1.1-1.6,1.5c1.3,0.1,3.8,0.1,6.1-0.1
	c1.9-0.1,3.8-0.5,3.8-0.5s-0.6,0.3-1.1,0.6c-4.6,1.2-13.6,0.6-11.1-0.6C21.6,22.2,23.4,22.3,23.4,22.3z M31.6,27
	c4.7-2.5,2.6-4.9,1-4.6c-0.4,0.1-0.5,0.1-0.5,0.1s0.1-0.2,0.4-0.3c3-1.1,5.4,3.1-1,4.9C31.5,27.1,31.6,27,31.6,27z"/>
<path class="st1" d="M28.7,8.2c0,0,2.6,2.6-2.5,6.7c-4.1,3.3-0.9,5.1,0,7.3c-2.4-2.2-4.1-4.1-3-5.9C25,13.7,29.8,12.5,28.7,8.2z"/>
<path class="st1" d="M23.9,33.7c4.6,0.3,11.5-0.1,11.7-2.4c0,0-0.3,0.9-3.8,1.5c-3.9,0.7-8.6,0.6-11.5,0.2
	C20.3,33,20.9,33.5,23.9,33.7z"/>
<path class="st1" d="M23.1,42c-0.4,0.4-0.9,0.6-1.3,0.6c-0.6,0-0.9-0.4-0.9-0.9c0-0.6,0.4-1.1,1.7-1.1h0.5L23.1,42z M24.3,43.4v-4.2
	c0-1.1-0.6-1.8-2.1-1.8c-0.9,0-1.6,0.2-2.2,0.5l0.1,0.7c0.5-0.1,1.1-0.4,1.7-0.4c0.9,0,1.2,0.4,1.2,1.1v0.5h-0.4c-2,0-2.9,0.8-2.9,2
	c0,1,0.6,1.6,1.7,1.6c0.7,0,1.3-0.3,1.8-0.8l0.1,0.6L24.3,43.4z M28.2,43.4h-1.5l-1.8-5.9h1.3l1.1,3.6l0.2,1.1
	c0.6-1.6,0.9-3.1,1.1-4.7h1.3C29.6,39.5,29.1,41.6,28.2,43.4z M33.9,42c-0.4,0.4-0.9,0.6-1.3,0.6c-0.6,0-0.9-0.4-0.9-0.9
	c0-0.6,0.4-1.1,1.7-1.1h0.5C33.9,40.6,33.9,42,33.9,42z M35.1,43.4v-4.2c0-1.1-0.6-1.8-2.1-1.8c-0.9,0-1.6,0.2-2.2,0.5l0.1,0.7
	c0.5-0.1,1.1-0.4,1.7-0.4c0.9,0,1.2,0.4,1.2,1.1v0.5h-0.4c-2,0-2.9,0.8-2.9,2c0,1,0.6,1.6,1.7,1.6c0.7,0,1.3-0.3,1.8-0.8l0.1,0.6
	L35.1,43.4z M18.4,44.4c-0.4,0.5-0.9,0.9-1.5,1.1l-0.6-0.7c0.4-0.2,0.9-0.6,1-1c0.1-0.3,0.2-0.7,0.2-1.7v-6.7h1.3V42
	C18.9,43.4,18.8,43.9,18.4,44.4z"/>
</svg>
