<svg width="216" height="207" viewBox="0 0 216 207" fill="none" xmlns="http://www.w3.org/2000/svg">
<g clip-path="url(#clip0_5455_7632)">
<rect width="216" height="206.929" fill="#151517"/>
<path d="M105.362 107.686C101.708 101.001 99.4873 93.5664 98.8425 85.9949C99.0574 79.4467 114.531 72.9666 120.549 63.5535C123.988 57.7555 123.701 50.5251 119.833 45C120.621 49.7066 119.761 54.5496 117.325 58.7787C113.242 65.7362 98.3411 69.8971 92.5384 81.9023C86.7357 93.9757 105.362 107.686 105.362 107.686Z" fill="white"/>
<path d="M130.865 69.623C130.865 69.623 107.654 78.0812 107.654 87.699C107.654 97.3168 113.958 100.523 114.961 103.592C115.248 106.525 114.603 109.458 113.17 112.05C113.17 112.05 122.269 106.048 120.764 99.0221C119.26 91.9963 112.168 89.8136 116.251 82.856C120.478 77.8766 125.421 73.3747 130.865 69.623Z" fill="white"/>
<path d="M102.854 120.44C124.346 119.69 132.154 113.278 132.154 113.278C118.328 116.893 81.4343 116.62 81.1478 114.028C80.9329 111.368 92.5383 109.117 92.5383 109.117C92.5383 109.117 74.3422 109.117 72.8377 113.483C71.3333 117.848 81.4343 121.191 102.854 120.44Z" fill="white"/>
<path d="M133.943 130.606C133.943 130.606 154.933 126.309 152.856 115.395C150.349 102.162 135.663 109.597 135.663 109.597C135.663 109.597 146.05 109.597 147.053 115.6C148.128 121.671 133.943 130.606 133.943 130.606Z" fill="white"/>
<path d="M123.558 124.873C119.259 125.896 114.818 126.578 110.376 127.056C99.8453 128.215 87.1653 127.328 86.1624 125.623C85.1595 123.918 87.8817 122.963 87.8817 122.963C75.2734 125.828 82.2223 130.875 96.9798 131.899C107.654 131.967 118.256 130.739 128.572 128.283L123.558 124.873Z" fill="white"/>
<path d="M90.9612 135.379C90.9612 135.379 85.2301 135.515 84.8719 138.448C84.5137 141.313 88.3822 143.905 102.567 144.724C110.805 145.27 119.043 144.042 126.637 141.04L120.261 137.289C120.261 137.289 116.25 138.107 110.017 138.926C103.784 139.744 91.0328 138.244 90.5314 137.152C90.1732 136.538 90.3881 135.788 90.9612 135.379Z" fill="white"/>
<path d="M146.052 148.41C147.055 147.387 147.055 145.749 145.98 144.795C145.837 144.658 145.622 144.522 145.407 144.385C145.98 145.136 145.837 146.227 145.121 146.773C143.759 148.069 131.438 151.275 111.809 152.23C92.1082 153.184 70.6884 150.456 70.0436 148.069C69.3989 145.681 81.0043 143.703 81.0043 143.703C79.6432 143.908 63.5245 144.181 63.0231 148.341C62.5216 152.571 70.0436 155.845 100.347 155.845C130.65 155.845 143.831 150.661 146.052 148.41Z" fill="white"/>
<path d="M134.233 157.889C120.909 160.481 80.5762 158.844 80.5762 158.844C99.0589 162.459 118.115 162.8 136.741 159.799C151.068 157.411 151.928 150.795 151.928 150.795C151.928 150.795 147.558 155.297 134.233 157.889Z" fill="white"/>
</g>
<defs>
<clipPath id="clip0_5455_7632">
<rect width="216" height="206.929" fill="white"/>
</clipPath>
</defs>
</svg>
