<?xml version="1.0" encoding="utf-8"?>
<!-- Generator: Adobe Illustrator 26.0.1, SVG Export Plug-In . SVG Version: 6.00 Build 0)  -->
<svg version="1.1" id="Layer_1" xmlns="http://www.w3.org/2000/svg" xmlns:xlink="http://www.w3.org/1999/xlink" x="0px" y="0px"
	 viewBox="0 0 276 111.2" style="enable-background:new 0 0 276 111.2;" xml:space="preserve">
<style type="text/css">
	.st0{fill:#999999;}
	.st1{fill-opacity:0.2;}
	.st2{fill:#ACACAC;}
	.st3{fill:#262626;}
	.st4{fill:#0C0C0C;}
	.st5{fill:#A3A3A3;}
	.st6{fill:#FFFFFF;}
	.st7{fill-rule:evenodd;clip-rule:evenodd;fill:#FFFFFF;}
</style>
<g>
	<path class="st0" d="M166.1,19.6c0.7,1,1.1,2.1,1.1,3.3c0,1.2,0,2.4,0,3.6c0,7.5,0,15,0,22.5c0,2-0.7,3.6-2.1,5
		c-0.7,0.7-1.7,1.2-2.6,1.7c-5.1,3-10.2,6.1-15.4,9.1c-1.9,1.1-3.8,2.2-5.6,3.3c-1.2,0.7-2.4,1-3.8,1c-0.1,0-0.3,0-0.4-0.1
		c0-0.1,0.1-0.1,0.1-0.1c0.4-0.1,0.5-0.4,0.5-0.8c0-3.7,0-7.4,0-11c0-0.3,0-0.6,0-0.9c0-2,0-4.1,0-6.1c0-0.1,0-0.3,0.1-0.4
		c0-0.1,0.1-0.2,0.2-0.2c0.8-0.1,1.4-0.6,2-0.9c2.7-1.6,5.4-3.1,8-4.7c0.9-0.5,1.4-1.3,1.4-2.4c0-3.4,0-6.8,0-10.2
		c0-0.5-0.2-1-0.3-1.5c0-0.2,0.2-0.3,0.3-0.4c1.6-1.2,3.3-2.1,5-3.1c0.1-0.1,0.2-0.1,0.3-0.1c0.8-0.5,1.6-1,2.4-1.5
		c1.6-1,3.2-1.9,4.7-2.8c1.2-0.7,2.4-1.4,3.6-2.1C165.9,19.6,166,19.6,166.1,19.6L166.1,19.6z"/>
	<path class="st0" d="M155.1,42.1c0,2-0.7,3.6-2.1,5c-0.7,0.7-1.7,1.2-2.6,1.7l-12,7.4c-0.4,0.2-0.9-0.1-0.9-0.5l0.4-5.6
		c0-0.1,0-0.3,0.1-0.4c0-0.1,0.1-0.2,0.2-0.2c0.8-0.1,1.4-0.6,2-0.9c2.7-1.6,5.4-3.1,8-4.7c0.9-0.5,1.4-1.3,1.4-2.4
		c0-3.4,0-6.8,0-10.2c0-0.5-0.1-1.1-0.3-1.6l3.4-3.4c0.9-0.9,2.5-0.3,2.5,1.1L155.1,42.1z"/>
	<path class="st1" d="M155.1,42.1c0,2-0.7,3.6-2.1,5c-0.7,0.7-1.7,1.2-2.6,1.7l-12,7.4c-0.4,0.2-0.9-0.1-0.9-0.5l0.4-5.6
		c0-0.1,0-0.3,0.1-0.4c0-0.1,0.1-0.2,0.2-0.2c0.8-0.1,1.4-0.6,2-0.9c2.7-1.6,5.4-3.1,8-4.7c0.9-0.5,1.4-1.3,1.4-2.4
		c0-3.4,0-6.8,0-10.2c0-0.5-0.1-1.1-0.3-1.6l3.4-3.4c0.9-0.9,2.5-0.3,2.5,1.1L155.1,42.1z"/>
	<path class="st2" d="M166.1,19.6c-1.4,0.8-2.7,1.6-4.1,2.4c-1.9,1.1-3.7,2.3-5.6,3.4c-0.5,0.3-0.9,0.6-1.4,0.8
		c-0.1,0-0.2,0-0.3-0.2c-0.5-0.6-1.2-1-1.8-1.4c-3.1-1.8-6.2-3.5-9.4-5.3c-1.2-0.7-2.5-1.4-3.7-2.1c-1.3-0.7-2.7-0.7-4,0
		c-3.7,2.1-7.3,4.3-11,6.5c-0.8,0.5-1.6,0.9-2.4,1.4c-0.6,0.3-1.1,0.8-1.4,1.4c-0.1,0.1-0.1,0.2-0.2,0.2c-0.3,0-0.5-0.1-0.7-0.2
		c-2.6-1.5-5.2-2.9-7.8-4.4c-0.8-0.4-1.6-0.9-2.4-1.3c-0.2-0.1-0.4-0.2-0.5-0.4c0.6-1.3,1.6-2.2,2.9-3c3-1.8,6.1-3.6,9.1-5.4
		c4.3-2.6,8.6-5.1,13-7.6c2.1-1.2,4.4-1.2,6.5,0c5.9,3.3,11.8,6.7,17.8,10c1.8,1,3.6,2,5.3,3C164.8,18,165.6,18.7,166.1,19.6
		L166.1,19.6z"/>
	<path class="st3" d="M109.4,20.5c0.1,0,0.2,0,0.3,0.1c2.3,1.3,4.7,2.6,7,3.9c1.3,0.7,2.7,1.5,4,2.2v0.1c-0.5,1.4-0.3,2.9-0.3,4.4
		c0,4.7,0,9.4,0,14.1c0,1,0.4,1.7,1.2,2.2c2.5,1.4,5.1,2.9,7.6,4.3c1.4,0.8,2.8,1.6,4.1,2.3c0.9,0.5,1.8,1,2.7,1.5
		c0.5,0.3,1,0.4,1.6,0.5c0.2,0,0.4,0.1,0.5,0.2c0,0.9,0,1.9,0,2.9c0,3,0,6.1,0,9.1v0.1c0,0.5-0.3,0.8-0.8,0.8
		c-1.2-0.1-2.2-0.6-3.2-1.1c-4.7-2.7-9.5-5.3-14.2-8c-3.1-1.7-6.1-3.4-9.2-5.2c-1.4-0.8-2.1-2.1-2.1-3.8c0-6.7,0-13.5,0-20.2
		c0-2.4,0-4.7,0-7.1C108.7,22.5,108.9,21.5,109.4,20.5L109.4,20.5z"/>
	<path class="st4" d="M126.3,30c-0.2,0.5-0.2,1-0.2,1.5c0,3.6,0,7.2,0,10.8c0,0.7,0.3,1.3,0.9,1.6c3.2,1.8,6.4,3.6,9.6,5.4
		c0.5,0.3,1,0.4,1.5,0.4c0,2,0,4,0,6.1c0,0.2,0,0.3,0,0.5c-1.1,0-2-0.4-2.9-1c-2.3-1.3-4.6-2.6-7-3.9c-1.7-1-3.4-2-5.2-2.9
		c-0.4-0.2-0.8-0.5-1.2-0.7c-1.2-0.6-1.7-1.5-1.6-2.8c0-2.6,0-5.3,0-7.9c0-2.8,0-5.6,0-8.4c0-0.5,0.1-1,0.2-1.5
		c0-0.1,0.1-0.3,0.2-0.3c0.1-0.1,0.2-0.1,0.4,0c1.7,0.9,3.3,1.9,4.9,2.9C126.2,29.7,126.3,29.8,126.3,30L126.3,30z"/>
	<path class="st5" d="M126.3,30c-1.7-1.1-3.5-2.1-5.3-3.1c-0.1-0.1-0.2-0.1-0.3-0.2c0,0,0,0,0-0.1c0.3-0.7,0.8-1.2,1.5-1.6
		c4.1-2.4,8.1-4.8,12.2-7.2c0.6-0.4,1.2-0.8,1.8-1c1.3-0.5,2.5-0.4,3.7,0.3c2.4,1.4,4.8,2.7,7.2,4.1c2.2,1.2,4.4,2.5,6.6,3.7
		c0.6,0.3,1,0.8,1.3,1.3c-1.6,0.9-3.2,1.8-4.7,2.9c-0.3,0.2-0.6,0.4-0.8,0.6c-0.4-0.6-0.9-1-1.6-1.3c-2.6-1.4-5.1-2.9-7.7-4.3
		c-0.4-0.2-0.8-0.5-1.3-0.7c-0.9-0.4-1.7-0.3-2.5,0.2c-2.6,1.5-5.3,3.1-7.9,4.7c-0.4,0.2-0.7,0.4-1.1,0.7
		C126.9,29.1,126.6,29.5,126.3,30L126.3,30z"/>
</g>
<g>
	<path class="st6" d="M179.1,101.6h-4.2V85.2h4v2.4c0.1-0.2,0.2-0.2,0.3-0.3c1.2-1.8,3-2.5,5.1-2.5c1.3,0,2.6,0.4,3.5,1.4
		c0.4,0.5,0.8,1,1.1,1.6c0.1-0.2,0.2-0.4,0.4-0.5c2-3,6.2-3.1,8.3-1.7c1.2,0.9,1.8,2.1,2.1,3.5c0.2,0.9,0.2,1.7,0.2,2.6
		c0,3.1,0,6.2,0,9.3c0,0.1,0,0.3,0,0.4h-4.2c0-0.2,0-0.3,0-0.5c0-3,0-6.1,0-9c0-0.8-0.1-1.4-0.3-2.2c-0.3-1-1-1.5-2-1.6
		c-2.6-0.3-3.7,1.6-3.9,3.4c-0.1,0.5-0.1,1-0.1,1.3c0,2.7,0,5.3,0,8.1c0,0.2,0,0.4,0,0.6h-4.2v-0.5c0-3,0-6,0-9
		c0-0.8-0.1-1.4-0.3-2.2c-0.3-1.1-1-1.6-2.1-1.7c-2.3-0.2-3.4,1.3-3.7,3c-0.1,0.6-0.1,1-0.1,1.6c0,2.8,0,5.5,0,8.3
		C179,101.2,179,101.4,179.1,101.6L179.1,101.6z"/>
	<path class="st6" d="M208.4,107.6c-1,0-2,0-3,0c-0.8,0-1.2-0.4-1.2-1.1c0-6.9,0-13.7,0-20.7v-0.6h4.1v2.5c0.2-0.3,0.4-0.5,0.5-0.7
		c1.3-1.6,3-2.2,5-2.2c3.8,0.1,6.2,2.9,6.8,6.1c0.4,2.3,0.4,4.6-0.6,6.8c-1.2,3-4,4.6-7.2,4.2c-1.8-0.2-3.2-1-4.2-2.5
		c0,0-0.1-0.1-0.2-0.2L208.4,107.6L208.4,107.6z M216.7,93.4c0-0.3-0.1-0.6-0.1-0.8c-0.1-0.7-0.2-1.2-0.4-1.8
		c-0.2-0.7-0.5-1.1-1-1.6c-0.7-0.7-1.6-1-2.8-1.1c-1.8,0-3.2,1-3.8,2.7s-0.6,3.5,0,5.2c0.1,0.4,0.3,0.7,0.5,1
		c0.7,1.1,1.9,1.8,3.3,1.8c1.8,0,3.2-1,3.8-2.8c0.2-0.6,0.3-1.1,0.4-1.7v-0.1C216.6,94,216.7,93.7,216.7,93.4L216.7,93.4z"/>
	<path class="st6" d="M50.6,99.4c0,0.2,0,0.3,0,0.5c0,2.5,0,4.9,0,7.3c0,0.4-0.1,0.5-0.5,0.5c-1.2,0-2.5,0-3.7,0V85.2h4v2.5
		c0.3-0.4,0.5-0.7,0.8-1c1.3-1.4,3-1.9,4.9-1.9c3.9,0.1,6.3,2.9,6.9,6.3c0.4,2.3,0.3,4.6-0.7,6.7c-1.9,4.2-6.5,4.9-9.3,3.4
		C51.9,100.8,51.3,100.2,50.6,99.4L50.6,99.4z M50.5,93.4c0,0.1,0,0.2,0,0.3c0,0.4,0.1,0.8,0.1,1.2c0,0,0,0,0,0.1l0,0
		c0,0.2,0.1,0.3,0.1,0.5c0,0.1,0.1,0.2,0.1,0.3c0.5,1.9,1.9,3,3.8,3c1.8,0,3.3-1,3.8-2.9c0.3-0.9,0.4-1.7,0.4-2.5l0,0
		c0-0.9-0.1-1.7-0.4-2.6c-0.5-1.7-1.9-2.7-3.6-2.8c-1.8-0.1-3.1,0.8-3.9,2.5C50.7,91.4,50.5,92.4,50.5,93.4L50.5,93.4z"/>
	<path class="st6" d="M151.9,95.7c0.5,1,0.9,2.1,1.3,3.1c0,0.1-0.1,0.4-0.2,0.5c-1.1,1-2.6,1.7-4.1,2.1c-2.9,0.8-5.8,0.7-8.6-0.4
		c-3-1-4.9-3.1-5.9-6c-1.3-3.8-1.3-7.6,0.3-11.2c1.4-3.2,4-5.1,7.5-5.9c3-0.7,6-0.4,8.9,1c0.8,0.4,1.3,0.9,2,1.3
		c0.1,0.1,0.2,0.3,0.1,0.4c-0.4,1-0.9,2.1-1.2,3.1c-0.8-0.5-1.4-1-2.1-1.3c-2.5-1.2-5.1-1.4-7.7-0.4c-1.9,0.8-3,2.3-3.5,4.2
		c-0.8,2.5-0.7,4.9,0.1,7.4c0.9,2.7,3.1,4.3,5.9,4.4c2.7,0.2,4.9-0.5,7-2.2C151.8,95.7,151.8,95.7,151.9,95.7
		C151.8,95.8,151.8,95.8,151.9,95.7L151.9,95.7z"/>
	<path class="st6" d="M109.1,93c2.7,2.9,5.2,5.6,7.9,8.5c-0.2,0-0.3,0-0.5,0c-1.4,0-2.9,0-4.3,0c-0.2,0-0.5-0.1-0.7-0.3
		c-2.1-2.2-4.2-4.4-6.3-6.6c-0.1-0.1-0.3-0.3-0.5-0.4v7.2h-4.2V78h4.2v14.1c0.1,0,0.1,0.1,0.2,0.1c0.1-0.1,0.2-0.3,0.3-0.4
		c2-2.1,4-4.2,5.9-6.3c0.2-0.2,0.4-0.3,0.8-0.3c1.5,0,3,0,4.7,0C114.1,87.9,111.6,90.5,109.1,93L109.1,93z"/>
	<path class="st6" d="M231.7,84.9c2.5,0,4.7,0.7,6.3,2.6c1,1.1,1.7,2.6,1.9,4.1c0.3,1.9,0.2,3.8-0.6,5.6c-1.2,2.9-3.4,4.4-6.5,4.7
		c-1.7,0.2-3.3,0.1-4.9-0.6c-2.8-1.2-4.2-3.4-4.6-6.4c-0.3-1.8-0.1-3.6,0.6-5.2c1.1-2.7,3.1-4.1,6-4.6C230.6,85,231.1,85,231.7,84.9
		L231.7,84.9z M236,93.6c0-0.3-0.1-0.6-0.1-0.8c-0.1-0.5-0.1-1-0.2-1.4c-0.4-2-1.8-3.2-3.7-3.3c-2-0.1-3.4,0.9-4.1,2.8V91
		c-0.5,1.7-0.5,3.4,0.1,5c0.6,1.7,2,2.8,3.8,2.8c1.7,0,3.1-1,3.7-2.7l0,0c0.2-0.6,0.3-1.2,0.4-1.8C235.9,94.1,236,93.9,236,93.6
		L236,93.6z"/>
	<path class="st6" d="M162.7,84.9c1.5,0,2.9,0.2,4.1,0.8c1.8,0.9,3.1,2.2,3.8,4c1,2.5,1,5,0,7.5c-1.1,2.9-3.4,4.3-6.5,4.7
		c-1.7,0.2-3.3,0.1-4.9-0.6c-2.8-1.2-4.2-3.4-4.6-6.3c-0.2-1.7-0.2-3.4,0.5-5c1-2.8,3.1-4.4,6.1-4.9C161.7,85,162.3,85,162.7,84.9
		L162.7,84.9z M167.2,93.5c0-0.3-0.1-0.6-0.1-0.8c-0.1-0.6-0.1-1-0.3-1.6c-0.5-1.9-1.9-3-3.8-3c-1.9-0.1-3.4,1-3.9,2.9
		c-0.3,0.9-0.4,1.6-0.4,2.5v0.1c0,0.9,0.2,1.7,0.4,2.6c0.6,1.7,2,2.7,3.8,2.7s3.2-1,3.7-2.7C167,95.2,167,94.3,167.2,93.5
		L167.2,93.5z"/>
	<path class="st6" d="M76.7,91.9c-0.1-0.8-0.1-1.3-0.2-2c-0.2-1-1-1.6-2.1-1.8c-1.6-0.3-3.2,0.1-4.8,0.7c-0.7,0.3-1.3,0.6-2,1
		c-0.4-1-0.8-1.8-1.1-2.8c1-0.7,1.9-1,3-1.3c2-0.6,4.1-0.9,6.2-0.5c3,0.6,4.8,2.5,4.9,5.5c0.1,2.9,0.1,5.8,0.1,8.7
		c0,0.8,0,1.4,0,2.2h-3.9v-2.4c-0.5,0.5-0.8,1-1.2,1.5c-0.9,0.9-1.9,1.1-3,1.2c-1.7,0.1-3.3-0.3-4.8-1.3c-1.6-1.3-2.3-3.5-1.5-5.5
		c0.5-1.4,1.6-2.1,3-2.5c1.9-0.6,3.8-0.7,5.8-0.7C75.4,91.9,76,91.9,76.7,91.9L76.7,91.9z M76.6,94.3c-0.4,0-0.8,0-1,0l0,0
		c-0.8,0-1.6,0.1-2.4,0.1c-0.7,0.1-1.3,0.2-2,0.4c-0.7,0.2-1.1,0.7-1.2,1.3c-0.1,1,0.2,1.8,1,2.3c0.8,0.6,1.7,0.7,2.6,0.6
		c0,0,0,0,0.1,0c0.4-0.1,0.7-0.2,1-0.4C76.1,98,76.9,96.3,76.6,94.3L76.6,94.3z"/>
	<path class="st6" d="M30.4,94.4H18.6c0.1,2.5,1.7,4.1,4.1,4.4c2.3,0.2,4.3-0.3,6.2-1.7c0.3,0.6,0.5,1.2,0.8,1.8
		c0.5,1,0.5,1-0.6,1.7c-1.9,1.1-4.1,1.5-6.3,1.4c-1.5-0.1-3-0.4-4.4-1.1c-2-1.2-3.2-3-3.7-5.2c-0.4-2.2-0.3-4.3,0.8-6.3
		c1.3-2.6,3.6-4,6.5-4.3c1.6-0.1,3.1,0.1,4.6,0.9c2,1.1,3,2.9,3.4,5C30.2,92,30.3,93.1,30.4,94.4L30.4,94.4z M26.8,91.9
		c0-2-1-4.2-3.9-4.2c-0.2,0-0.3,0-0.5,0c-2.3,0.2-3.8,2.2-3.8,4.2H26.8z"/>
	<path class="st6" d="M274.9,94.4h-11.8c0,2.4,1.7,4.2,4,4.4c2.1,0.2,4.4-0.2,6.2-1.6c0,0.1,0.1,0.1,0.1,0.2c0.4,0.9,0.8,1.7,1,2.6
		c-0.9,0.7-1.7,1.1-2.8,1.4c-2.7,0.9-5.2,1-7.8-0.1c-3-1.2-4.7-3.6-4.9-6.9c-0.2-2,0.1-4,1.2-5.7c1.7-2.6,4.2-3.7,7.2-3.7
		c1.3,0,2.6,0.3,3.7,1c1.9,1.1,3,2.9,3.4,5C274.8,92.1,274.8,93.1,274.9,94.4L274.9,94.4z M271.3,91.9c0-1.5-0.6-2.9-1.7-3.5
		c-0.1,0-0.1-0.1-0.2-0.1c-0.6-0.3-1.2-0.5-2-0.5c-2.7,0-4.2,2.1-4.3,4.2L271.3,91.9L271.3,91.9z"/>
	<path class="st6" d="M242.7,100c0.4-1,0.7-1.8,1-2.8c1.1,0.7,2.2,1.2,3.4,1.5c1.3,0.3,2.7,0.4,4.1,0.1c1-0.3,1.7-1.2,1.5-2.2
		c-0.2-0.7-0.6-1-1.1-1.2c-0.9-0.3-1.8-0.4-2.8-0.7c-1-0.2-2.1-0.4-3-0.8c-3.5-1.2-3.2-5.6-1.2-7.3c1.1-1,2.6-1.5,4-1.7
		c2.2-0.3,4.2,0,6.2,1c0.5,0.2,1,0.6,1.4,0.9c-0.4,1-0.8,1.8-1.1,2.7c-1-0.4-1.9-0.9-2.9-1.2c-1.1-0.5-2.3-0.5-3.5-0.2
		c-0.3,0.1-0.7,0.2-1,0.4c-0.7,0.4-1,1-0.9,1.8c0.1,0.8,0.6,1.2,1.2,1.4c1,0.3,2.1,0.5,3.1,0.7c1,0.2,2.2,0.4,3.1,1
		c1.5,0.9,2.3,2.2,2.2,3.9c-0.2,2.3-1.5,3.7-3.6,4.4c-1.9,0.7-3.9,0.6-5.8,0.3c-1.4-0.2-2.8-0.7-4-1.4
		C243,100.2,242.8,100.1,242.7,100L242.7,100z"/>
	<path class="st6" d="M31.5,88.4v-3.1h3.1v-4.9h4.2v4.9h4.9v3.1h-4.9c0,0.2,0,0.4,0,0.5c0,2.1,0,4.2,0,6.3c0,0.4,0,0.9,0.1,1.2
		c0.3,1.4,1.1,2.2,3,2.1c0.6,0,1.2-0.2,1.9-0.3c0.2,1,0.4,2,0.7,3c-0.9,0.5-1.7,0.7-2.7,0.7c-1.6,0.1-3.1,0-4.6-0.9
		c-1.5-0.9-2.2-2.3-2.5-3.9c-0.1-0.7-0.1-1.3-0.1-2c0-2.1,0-4.2,0-6.2c0-0.2,0-0.4,0-0.6L31.5,88.4L31.5,88.4z"/>
	<path class="st6" d="M96.8,97.1c0.4,1,0.9,2,1.2,3c-0.9,0.8-1.9,1.2-3,1.5c-2.2,0.6-4.3,0.6-6.4-0.3c-2.7-1.1-4.2-3.2-4.7-6.1
		c-0.3-1.5-0.2-3,0.2-4.5c0.9-3.1,3.1-5.2,6.4-5.6c2.1-0.3,4.1-0.1,6,0.8l0,0c0.4,0.3,1,0.5,1.2,0.9c0.3,0.5-0.2,0.9-0.4,1.3
		c-0.2,0.6-0.5,1-0.7,1.5c-0.7-0.4-1.2-0.8-1.9-1c-1.1-0.5-2.3-0.6-3.4-0.3c-1.4,0.3-2.4,1.1-3,2.6c-0.6,1.6-0.6,3.2-0.1,4.9
		c0.8,2.4,2.8,3.2,4.9,3C94.7,98.6,95.8,98,96.8,97.1L96.8,97.1z"/>
	<path class="st6" d="M6.4,78h4.3v0.5c0,5.4,0,10.9,0,16.4c0,1-0.1,2.1-0.5,3c-0.7,1.9-2.1,3-3.9,3.5c-1.6,0.5-3.2,0.4-4.9,0.5
		c-0.1-1.1-0.2-2.3-0.3-3.5c0.8,0,1.4-0.1,2.1-0.1c0.4,0,0.8-0.1,1.1-0.2c1.3-0.4,2.1-1.3,2.1-2.8c0-0.6,0-1.1,0-1.7
		c0-5,0-10.1,0-15V78z"/>
	<path class="st7" d="M271.3,91.9L271.3,91.9c0-1.5-0.6-2.9-1.7-3.5C270.7,89.1,271.3,90.4,271.3,91.9z"/>
	<path class="st7" d="M235.9,94.3c0-0.3,0.1-0.5,0.1-0.7l0,0c0-0.3-0.1-0.6-0.1-0.8c-0.1-0.5-0.1-1-0.2-1.4c-0.4-2-1.8-3.2-3.7-3.3
		c-2-0.1-3.5,1-4.1,2.8c0.6-1.9,2.1-2.9,4.1-2.8c1.9,0.1,3.3,1.3,3.7,3.3c0.1,0.5,0.1,0.9,0.2,1.4c0,0.3,0.1,0.5,0.1,0.8l0,0
		C236,93.9,235.9,94.1,235.9,94.3c-0.1,0.6-0.2,1.2-0.4,1.8l0,0c0,0,0,0,0-0.1C235.7,95.5,235.8,94.9,235.9,94.3z"/>
	<path class="st7" d="M216.6,94.2C216.6,94.3,216.6,94.3,216.6,94.2L216.6,94.2c0-0.2,0.1-0.5,0.1-0.8l0,0c0-0.3-0.1-0.6-0.1-0.8
		c-0.1-0.7-0.2-1.2-0.4-1.8c-0.2-0.7-0.5-1.1-1-1.6c0.4,0.4,0.8,1,1,1.6c0.2,0.6,0.3,1.2,0.4,1.8c0,0.3,0.1,0.6,0.1,0.8l0,0
		C216.7,93.7,216.6,94,216.6,94.2L216.6,94.2z"/>
	<path class="st7" d="M167.2,93.5L167.2,93.5c0-0.3-0.1-0.6-0.1-0.8c-0.1-0.6-0.1-1-0.3-1.6c-0.5-1.9-1.9-3-3.8-3
		c-1.9-0.1-3.4,1-3.9,2.9c-0.3,0.9-0.4,1.6-0.4,2.5c0-0.9,0.1-1.6,0.4-2.5c0.6-1.9,2-3,3.9-2.9c1.9,0.1,3.3,1.1,3.8,3
		c0.1,0.5,0.2,1,0.3,1.6C167.1,92.9,167.2,93.2,167.2,93.5z"/>
	<path class="st7" d="M76.6,94.3L76.6,94.3c-0.4,0-0.8,0-1,0l0,0c-0.8,0-1.6,0.1-2.4,0.1c-0.7,0.1-1.3,0.2-2,0.4
		c-0.7,0.2-1.1,0.7-1.2,1.3c-0.1,1,0.2,1.8,1,2.3c0.8,0.6,1.7,0.7,2.6,0.6c-0.9,0.2-1.7,0-2.6-0.6c-0.8-0.6-1-1.4-1-2.3
		c0.1-0.7,0.6-1.1,1.2-1.3c0.7-0.2,1.3-0.3,2-0.4c0.8-0.1,1.6-0.1,2.4-0.1C75.8,94.3,76.2,94.3,76.6,94.3z"/>
	<path class="st7" d="M50.5,93.4L50.5,93.4c0,0.1,0,0.2,0,0.3C50.5,93.6,50.5,93.5,50.5,93.4z M50.7,94.9
		C50.7,94.9,50.7,94.9,50.7,94.9C50.7,94.9,50.7,94.9,50.7,94.9C50.7,94.9,50.7,94.9,50.7,94.9L50.7,94.9z M58.5,95.9
		c0.3-0.9,0.4-1.7,0.4-2.5C58.9,94.3,58.8,95.1,58.5,95.9c-0.6,1.8-2,2.9-3.8,2.9c-1.9,0-3.3-1.1-3.8-3c0-0.1-0.1-0.2-0.1-0.3
		c0,0.1,0.1,0.2,0.1,0.3c0.5,1.9,1.9,3,3.8,3C56.5,98.8,57.9,97.8,58.5,95.9z"/>
	<path class="st7" d="M26.8,91.9L26.8,91.9c0-2-1-4.2-3.9-4.2C25.7,87.7,26.7,89.9,26.8,91.9z"/>
</g>
</svg>
