<?xml version="1.0" encoding="utf-8"?>
<!-- Generator: Adobe Illustrator 24.0.1, SVG Export Plug-In . SVG Version: 6.00 Build 0)  -->
<svg version="1.1" id="Layer_1" xmlns="http://www.w3.org/2000/svg" xmlns:xlink="http://www.w3.org/1999/xlink" x="0px" y="0px"
	 viewBox="0 0 206 53" style="enable-background:new 0 0 206 53;" xml:space="preserve">
<style type="text/css">
	.st0{fill:#FFFFFF;}
	.st1{filter:url(#Adobe_OpacityMaskFilter);}
	.st2{fill:url(#SVGID_2_);}
	.st3{mask:url(#SVGID_1_);fill:#FFFFFF;}
	.st4{filter:url(#Adobe_OpacityMaskFilter_1_);}
	.st5{fill:url(#SVGID_4_);}
	.st6{mask:url(#SVGID_3_);fill:#FFFFFF;}
	.st7{filter:url(#Adobe_OpacityMaskFilter_2_);}
	.st8{fill:url(#SVGID_6_);}
	.st9{mask:url(#SVGID_5_);fill:#FFFFFF;}
	.st10{filter:url(#Adobe_OpacityMaskFilter_3_);}
	.st11{fill:url(#SVGID_8_);}
	.st12{mask:url(#SVGID_7_);fill:#FFFFFF;}
	.st13{filter:url(#Adobe_OpacityMaskFilter_4_);}
	.st14{fill:url(#SVGID_10_);}
	.st15{mask:url(#SVGID_9_);fill:#FFFFFF;}
	.st16{filter:url(#Adobe_OpacityMaskFilter_5_);}
	.st17{fill:url(#SVGID_12_);}
	.st18{mask:url(#SVGID_11_);fill:#FFFFFF;}
	.st19{filter:url(#Adobe_OpacityMaskFilter_6_);}
	.st20{fill:url(#SVGID_14_);}
	.st21{mask:url(#SVGID_13_);fill:#FFFFFF;}
	.st22{filter:url(#Adobe_OpacityMaskFilter_7_);}
	.st23{fill:url(#SVGID_16_);}
	.st24{mask:url(#SVGID_15_);fill:#FFFFFF;}
	.st25{filter:url(#Adobe_OpacityMaskFilter_8_);}
	.st26{fill:url(#SVGID_18_);}
	.st27{mask:url(#SVGID_17_);fill:#FFFFFF;}
</style>
<g>
	<g>
		<g>
			<path class="st0" d="M91.7,28.3c0,4-3.9,6-8.7,6c-4.8,0-8.7-2-8.7-6c0-4,3.9-6,8.7-6C87.7,22.3,91.7,24.3,91.7,28.3z M82.9,20.4
				c-6.3,0-11.4,3-11.4,7.8c0,4.8,5.1,7.8,11.4,7.8c6.3,0,11.4-3,11.4-7.8C94.3,23.4,89.2,20.4,82.9,20.4z"/>
			<path class="st0" d="M115.4,28.3c0,4-3.9,6-8.7,6c-4.8,0-8.7-2-8.7-6c0-4,3.9-6,8.7-6C111.5,22.3,115.4,24.3,115.4,28.3z
				 M106.7,20.4c-6.3,0-11.4,3-11.4,7.8c0,4.8,5.1,7.8,11.4,7.8c6.3,0,11.4-3,11.4-7.8C118.1,23.4,113,20.4,106.7,20.4z"/>
			<rect x="152.1" y="13.7" class="st0" width="2.7" height="22.2"/>
			<path class="st0" d="M176.7,20.6v2.6c-2-1.7-5.1-2.8-8.5-2.8c-6.3,0-11.4,3-11.4,7.8c0,4.8,5.1,7.8,11.4,7.8
				c3.4,0,6.4-0.9,8.5-2.5v2.2h2.7V20.6H176.7z M168.2,34.2c-4.8,0-8.7-2-8.7-6c0-4,3.9-6,8.7-6c4.8,0,8.5,2.5,8.5,6.8v1.7
				C175.8,32.2,172,34.2,168.2,34.2z"/>
			<path class="st0" d="M147.6,22.1c-1.3-0.9-3.1-1.6-5.6-1.6c-2.7,0-4.6,0.7-5.8,1.6c-0.6,0.4-1,0.8-1.4,1.1
				c-0.3-0.4-0.8-0.8-1.3-1.2c-1.2-0.8-3.1-1.5-5.7-1.5c-2.5,0-4.3,0.7-5.6,1.5v-1.4h-2.7v15.3h2.7V25.1c0.5-0.9,2-2.8,5.6-2.8
				c4.8,0,5.7,3.2,5.7,3.2v10.3h2.7V25.7c0.1-0.1,0.5-3.4,5.8-3.4c5,0,5.6,3.6,5.6,3.7v9.9h2.4V25.5
				C149.9,24.8,149.2,23.3,147.6,22.1z"/>
			<path class="st0" d="M70.2,29L70.2,29L70.2,29C70.2,28.9,70.2,28.9,70.2,29V13.7h-2.7V29c0,0,0.1,2.2-1.2,3.4
				c-1.1,1.1-2.4,1.6-5,1.5c-1.6-0.1-3.8-0.4-5.5-0.7c-0.3,0-0.6-0.1-0.9-0.2l-1,2c0.6,0.1,1.2,0.2,1.7,0.2c1.8,0.3,3.6,0.6,5.3,0.7
				c3.2,0.2,5.5-0.3,7.3-2C70.1,32.2,70.2,29.4,70.2,29z"/>
			<path class="st0" d="M186.1,13.7h-2.7v17.2h2.7V13.7z M184.7,33c-1.2,0-2.1,0.7-2.1,1.6c0,0.9,0.9,1.6,2.1,1.6
				c1.1,0,2.1-0.7,2.1-1.6C186.8,33.7,185.9,33,184.7,33z"/>
			<g>
				<path class="st0" d="M188.7,15.8v-2.1h-1.1v-0.3h2.6v0.3h-1.1v2.1H188.7z"/>
				<path class="st0" d="M190.7,15.8v-2.4h0.7l0.8,1.7c0.1,0.2,0.1,0.3,0.2,0.4c0-0.1,0.1-0.2,0.2-0.4l0.8-1.6h0.6v2.4h-0.4v-2l-1,2
					H192l-0.9-2v2H190.7z"/>
			</g>
		</g>
		<g>
			<path class="st0" d="M40.2,8.3c-0.6,0.6-1.1,1.4-1.3,2.3c-2.6-0.5-5.4,0.2-7.4,2c-0.1,0.1-0.2,0.2-0.3,0.3l-7.9,7.9l4.1,4.1
				l7.8-7.8c0.5-0.5,1.2-0.8,1.9-0.8c0.7,0,1.3,0.3,1.8,0.7c1,1,1,2.7-0.1,3.7l0,0l4.1,4.1l0.2-0.2c0.1-0.1,0.2-0.2,0.3-0.3
				c1.8-2,2.6-4.7,2-7.4c0.9-0.2,1.6-0.7,2.3-1.3c2.1-2.1,2.1-5.4,0-7.5C45.6,6.2,42.2,6.2,40.2,8.3z"/>
			<path class="st0" d="M29.9,12.6c-0.1-0.1-0.2-0.2-0.3-0.3c-2-1.6-4.5-2.2-7-1.7c-0.2-0.9-0.7-1.6-1.3-2.3c-2.1-2.1-5.4-2.1-7.5,0
				c-2.1,2.1-2.1,5.4,0,7.5c0.6,0.6,1.4,1.1,2.3,1.3c-0.5,2.5,0.1,5.1,1.7,7c0.1,0.1,0.2,0.2,0.3,0.3c0.1,0.1,0.2,0.2,0.3,0.3
				l7.9,7.9l4.1-4.1l-7.8-7.8c-0.2-0.2-0.4-0.5-0.6-0.8c-0.4-1-0.3-2.1,0.5-2.9c0.8-0.8,1.9-0.9,2.9-0.5c0.3,0.1,0.6,0.3,0.8,0.6
				l0,0.1l4.1-4.1l-0.2-0.2C30.1,12.8,30,12.7,29.9,12.6z"/>
			<path class="st0" d="M31,22l7.8,7.8c0.2,0.2,0.4,0.5,0.6,0.8c0.4,1,0.3,2.1-0.5,2.9C38.2,34.3,37,34.4,36,34
				c-0.3-0.1-0.6-0.3-0.8-0.6l0,0L31,37.5l0.4,0.4l0,0c0.1,0.1,0.2,0.2,0.3,0.3c2,1.6,4.5,2.2,7,1.7c0.2,0.9,0.7,1.6,1.3,2.3
				c2.1,2.1,5.4,2.1,7.5,0c2.1-2.1,2.1-5.4,0-7.5c-0.6-0.6-1.4-1.1-2.3-1.3c0.5-2.5-0.1-5.1-1.7-7c-0.1-0.1-0.2-0.2-0.3-0.3
				c-0.1-0.1-0.2-0.2-0.3-0.3l-7.9-7.9L31,22z"/>
			<path class="st0" d="M26.2,33.4c-0.2,0.2-0.5,0.4-0.8,0.6c-1,0.4-2.1,0.3-2.9-0.5c-0.8-0.8-0.9-1.9-0.5-2.9
				c0.1-0.3,0.3-0.6,0.6-0.8l0-0.1l-3.8-3.8l-0.2,0.2c-0.1,0.1-0.2,0.2-0.3,0.3c-0.1,0.1-0.2,0.2-0.3,0.3c-1.5,1.9-2.1,4.3-1.6,6.6
				c0,0,0,0,0,0l0,0c0,0.1,0.1,0.3,0.1,0.4c-0.1,0-0.3,0.1-0.4,0.1l0,0c0,0,0,0,0,0c-0.7,0.2-1.5,0.6-2,1.2c-1.9,1.9-1.9,5,0,6.8
				c1.9,1.9,5,1.9,6.8,0c0.6-0.6,1-1.3,1.2-2c0.1,0,0.3,0.1,0.4,0.1c2.5,0.5,5.1-0.1,7-1.7c0.1-0.1,0.2-0.2,0.3-0.3
				c0.1-0.1,0.2-0.2,0.3-0.3l7.9-7.9L34,25.6L26.2,33.4z"/>
			<defs>
				<filter id="Adobe_OpacityMaskFilter" filterUnits="userSpaceOnUse" x="14.2" y="7.9" width="6.6" height="4.4">
					<feColorMatrix  type="matrix" values="1 0 0 0 0  0 1 0 0 0  0 0 1 0 0  0 0 0 1 0"/>
				</filter>
			</defs>
			<mask maskUnits="userSpaceOnUse" x="14.2" y="7.9" width="6.6" height="4.4" id="SVGID_1_">
				<g class="st1">
					
						<linearGradient id="SVGID_2_" gradientUnits="userSpaceOnUse" x1="49.1453" y1="184.535" x2="45.8216" y2="187.4825" gradientTransform="matrix(0.7071 -0.7071 0.7071 0.7071 -147.6194 -87.8106)">
						<stop  offset="0" style="stop-color:#FFFFFF"/>
						<stop  offset="0.1762" style="stop-color:#C4C4C4"/>
						<stop  offset="0.4005" style="stop-color:#7F7F7F"/>
						<stop  offset="0.6033" style="stop-color:#484848"/>
						<stop  offset="0.7771" style="stop-color:#212121"/>
						<stop  offset="0.9151" style="stop-color:#090909"/>
						<stop  offset="1" style="stop-color:#000000"/>
					</linearGradient>
					<path class="st2" d="M20.8,10.4c-0.1,1.2-1.6,2.1-3.4,2c-1.8-0.1-3.2-1.2-3.2-2.4c0.1-1.2,1.6-2.1,3.4-2
						C19.5,8.1,20.9,9.1,20.8,10.4z"/>
				</g>
			</mask>
			<path class="st3" d="M20.8,10.4c-0.1,1.2-1.6,2.1-3.4,2c-1.8-0.1-3.2-1.2-3.2-2.4c0.1-1.2,1.6-2.1,3.4-2
				C19.5,8.1,20.9,9.1,20.8,10.4z"/>
			<defs>
				<filter id="Adobe_OpacityMaskFilter_1_" filterUnits="userSpaceOnUse" x="42.8" y="34.9" width="5.1" height="3.4">
					<feColorMatrix  type="matrix" values="1 0 0 0 0  0 1 0 0 0  0 0 1 0 0  0 0 0 1 0"/>
				</filter>
			</defs>
			<mask maskUnits="userSpaceOnUse" x="42.8" y="34.9" width="5.1" height="3.4" id="SVGID_3_">
				<g class="st4">
					
						<linearGradient id="SVGID_4_" gradientUnits="userSpaceOnUse" x1="-721.6537" y1="-200.7429" x2="-724.1974" y2="-198.4872" gradientTransform="matrix(0.7071 -0.7071 0.7071 0.7071 697.6606 -333.3922)">
						<stop  offset="0" style="stop-color:#FFFFFF"/>
						<stop  offset="0.1762" style="stop-color:#C4C4C4"/>
						<stop  offset="0.4005" style="stop-color:#7F7F7F"/>
						<stop  offset="0.6033" style="stop-color:#484848"/>
						<stop  offset="0.7771" style="stop-color:#212121"/>
						<stop  offset="0.9151" style="stop-color:#090909"/>
						<stop  offset="1" style="stop-color:#000000"/>
					</linearGradient>
					<path class="st5" d="M47.9,36.8c-0.1,0.9-1.2,1.6-2.6,1.5c-1.4-0.1-2.5-0.9-2.4-1.8c0.1-0.9,1.2-1.6,2.6-1.5
						C46.8,35,47.9,35.9,47.9,36.8z"/>
				</g>
			</mask>
			<path class="st6" d="M47.9,36.8c-0.1,0.9-1.2,1.6-2.6,1.5c-1.4-0.1-2.5-0.9-2.4-1.8c0.1-0.9,1.2-1.6,2.6-1.5
				C46.8,35,47.9,35.9,47.9,36.8z"/>
			<defs>
				<filter id="Adobe_OpacityMaskFilter_2_" filterUnits="userSpaceOnUse" x="14.6" y="34.9" width="5.1" height="3.4">
					<feColorMatrix  type="matrix" values="1 0 0 0 0  0 1 0 0 0  0 0 1 0 0  0 0 0 1 0"/>
				</filter>
			</defs>
			<mask maskUnits="userSpaceOnUse" x="14.6" y="34.9" width="5.1" height="3.4" id="SVGID_5_">
				<g class="st7">
					
						<linearGradient id="SVGID_6_" gradientUnits="userSpaceOnUse" x1="-741.5903" y1="-220.6795" x2="-744.134" y2="-218.4238" gradientTransform="matrix(0.7071 -0.7071 0.7071 0.7071 697.6606 -333.3922)">
						<stop  offset="0" style="stop-color:#FFFFFF"/>
						<stop  offset="0.1762" style="stop-color:#C4C4C4"/>
						<stop  offset="0.4005" style="stop-color:#7F7F7F"/>
						<stop  offset="0.6033" style="stop-color:#484848"/>
						<stop  offset="0.7771" style="stop-color:#212121"/>
						<stop  offset="0.9151" style="stop-color:#090909"/>
						<stop  offset="1" style="stop-color:#000000"/>
					</linearGradient>
					<path class="st8" d="M19.7,36.8c-0.1,0.9-1.2,1.6-2.6,1.5c-1.4-0.1-2.5-0.9-2.4-1.8c0.1-0.9,1.2-1.6,2.6-1.5
						C18.6,35,19.7,35.9,19.7,36.8z"/>
				</g>
			</mask>
			<path class="st9" d="M19.7,36.8c-0.1,0.9-1.2,1.6-2.6,1.5c-1.4-0.1-2.5-0.9-2.4-1.8c0.1-0.9,1.2-1.6,2.6-1.5
				C18.6,35,19.7,35.9,19.7,36.8z"/>
			<defs>
				<filter id="Adobe_OpacityMaskFilter_3_" filterUnits="userSpaceOnUse" x="40.5" y="7.6" width="6.6" height="4.4">
					<feColorMatrix  type="matrix" values="1 0 0 0 0  0 1 0 0 0  0 0 1 0 0  0 0 0 1 0"/>
				</filter>
			</defs>
			<mask maskUnits="userSpaceOnUse" x="40.5" y="7.6" width="6.6" height="4.4" id="SVGID_7_">
				<g class="st10">
					
						<linearGradient id="SVGID_8_" gradientUnits="userSpaceOnUse" x1="-465.4988" y1="-351.191" x2="-468.8224" y2="-348.2436" gradientTransform="matrix(0.7071 -0.7071 0.7071 0.7071 621.395 -73.2154)">
						<stop  offset="0" style="stop-color:#FFFFFF"/>
						<stop  offset="0.1762" style="stop-color:#C4C4C4"/>
						<stop  offset="0.4005" style="stop-color:#7F7F7F"/>
						<stop  offset="0.6033" style="stop-color:#484848"/>
						<stop  offset="0.7771" style="stop-color:#212121"/>
						<stop  offset="0.9151" style="stop-color:#090909"/>
						<stop  offset="1" style="stop-color:#000000"/>
					</linearGradient>
					<path class="st11" d="M47.1,10c-0.1,1.2-1.6,2.1-3.4,2c-1.8-0.1-3.2-1.2-3.2-2.4c0.1-1.2,1.6-2.1,3.4-2
						C45.7,7.7,47.2,8.8,47.1,10z"/>
				</g>
			</mask>
			<path class="st12" d="M47.1,10c-0.1,1.2-1.6,2.1-3.4,2c-1.8-0.1-3.2-1.2-3.2-2.4c0.1-1.2,1.6-2.1,3.4-2
				C45.7,7.7,47.2,8.8,47.1,10z"/>
			<polygon class="st0" points="16.1,33.8 16.1,33.8 16.1,33.8 			"/>
			<path class="st0" d="M16.5,33.3C16.5,33.3,16.5,33.3,16.5,33.3L16.5,33.3C16.5,33.3,16.5,33.3,16.5,33.3z"/>
			<defs>
				<filter id="Adobe_OpacityMaskFilter_4_" filterUnits="userSpaceOnUse" x="22.8" y="26.3" width="12.9" height="9.7">
					<feColorMatrix  type="matrix" values="1 0 0 0 0  0 1 0 0 0  0 0 1 0 0  0 0 0 1 0"/>
				</filter>
			</defs>
			<mask maskUnits="userSpaceOnUse" x="22.8" y="26.3" width="12.9" height="9.7" id="SVGID_9_">
				<g class="st13">
					
						<linearGradient id="SVGID_10_" gradientUnits="userSpaceOnUse" x1="-215.2457" y1="42.0987" x2="-215.2457" y2="57.4885" gradientTransform="matrix(-0.7071 -0.7071 0.7071 -0.7071 -157.6925 -86.4338)">
						<stop  offset="0" style="stop-color:#FFFFFF"/>
						<stop  offset="0.1762" style="stop-color:#C4C4C4"/>
						<stop  offset="0.4005" style="stop-color:#7F7F7F"/>
						<stop  offset="0.6033" style="stop-color:#484848"/>
						<stop  offset="0.7771" style="stop-color:#212121"/>
						<stop  offset="0.9151" style="stop-color:#090909"/>
						<stop  offset="1" style="stop-color:#000000"/>
					</linearGradient>
					<path class="st14" d="M26.6,34.4c-1.1,1.1-2.6,1.2-3.8,0.5c0,0.1,0.1,0.1,0.1,0.2c1.2,1.2,3.7,1.2,5-0.1l7.8-7.8l-1-1
						L26.6,34.4z"/>
				</g>
			</mask>
			<path class="st15" d="M26.6,34.4c-1.1,1.1-2.6,1.2-3.8,0.5c0,0.1,0.1,0.1,0.1,0.2c1.2,1.2,3.7,1.2,5-0.1l7.8-7.8l-1-1L26.6,34.4z
				"/>
			<defs>
				<filter id="Adobe_OpacityMaskFilter_5_" filterUnits="userSpaceOnUse" x="22" y="11.3" width="7.8" height="3">
					<feColorMatrix  type="matrix" values="1 0 0 0 0  0 1 0 0 0  0 0 1 0 0  0 0 0 1 0"/>
				</filter>
			</defs>
			<mask maskUnits="userSpaceOnUse" x="22" y="11.3" width="7.8" height="3" id="SVGID_11_">
				<g class="st16">
					
						<linearGradient id="SVGID_12_" gradientUnits="userSpaceOnUse" x1="51.0667" y1="190.3436" x2="52.116" y2="196.4204" gradientTransform="matrix(0.7071 -0.7071 0.7071 0.7071 -147.6194 -87.8106)">
						<stop  offset="0" style="stop-color:#FFFFFF"/>
						<stop  offset="0.1762" style="stop-color:#C4C4C4"/>
						<stop  offset="0.4005" style="stop-color:#7F7F7F"/>
						<stop  offset="0.6033" style="stop-color:#484848"/>
						<stop  offset="0.7771" style="stop-color:#212121"/>
						<stop  offset="0.9151" style="stop-color:#090909"/>
						<stop  offset="1" style="stop-color:#000000"/>
					</linearGradient>
					<path class="st17" d="M22.3,11.5L22,11.9l0,0c2.4-0.4,5,0.4,6.8,2.2l0.2,0.2l0.7-0.7C27.8,11.6,24.9,10.9,22.3,11.5z"/>
				</g>
			</mask>
			<path class="st18" d="M22.3,11.5L22,11.9l0,0c2.4-0.4,5,0.4,6.8,2.2l0.2,0.2l0.7-0.7C27.8,11.6,24.9,10.9,22.3,11.5z"/>
			<defs>
				<filter id="Adobe_OpacityMaskFilter_6_" filterUnits="userSpaceOnUse" x="20" y="17.3" width="9.7" height="12.9">
					<feColorMatrix  type="matrix" values="1 0 0 0 0  0 1 0 0 0  0 0 1 0 0  0 0 0 1 0"/>
				</filter>
			</defs>
			<mask maskUnits="userSpaceOnUse" x="20" y="17.3" width="9.7" height="12.9" id="SVGID_13_">
				<g class="st19">
					
						<linearGradient id="SVGID_14_" gradientUnits="userSpaceOnUse" x1="43.0808" y1="193.9153" x2="43.0808" y2="209.3054" gradientTransform="matrix(0.7071 -0.7071 0.7071 0.7071 -147.6194 -87.8106)">
						<stop  offset="0" style="stop-color:#FFFFFF"/>
						<stop  offset="0.1762" style="stop-color:#C4C4C4"/>
						<stop  offset="0.4005" style="stop-color:#7F7F7F"/>
						<stop  offset="0.6033" style="stop-color:#484848"/>
						<stop  offset="0.7771" style="stop-color:#212121"/>
						<stop  offset="0.9151" style="stop-color:#090909"/>
						<stop  offset="1" style="stop-color:#000000"/>
					</linearGradient>
					<path class="st20" d="M21.6,21.2c-1.1-1.1-1.2-2.6-0.5-3.8c-0.1,0-0.1,0.1-0.2,0.1c-1.2,1.2-1.2,3.7,0.1,5l7.8,7.8l1-1
						L21.6,21.2z"/>
				</g>
			</mask>
			<path class="st21" d="M21.6,21.2c-1.1-1.1-1.2-2.6-0.5-3.8c-0.1,0-0.1,0.1-0.2,0.1c-1.2,1.2-1.2,3.7,0.1,5l7.8,7.8l1-1L21.6,21.2
				z"/>
			<defs>
				<filter id="Adobe_OpacityMaskFilter_7_" filterUnits="userSpaceOnUse" x="25.7" y="14.6" width="12.9" height="9.7">
					<feColorMatrix  type="matrix" values="1 0 0 0 0  0 1 0 0 0  0 0 1 0 0  0 0 0 1 0"/>
				</filter>
			</defs>
			<mask maskUnits="userSpaceOnUse" x="25.7" y="14.6" width="12.9" height="9.7" id="SVGID_15_">
				<g class="st22">
					
						<linearGradient id="SVGID_16_" gradientUnits="userSpaceOnUse" x1="84.3965" y1="-64.409" x2="84.3965" y2="-49.0198" gradientTransform="matrix(0.7071 0.7071 -0.7071 0.7071 -68.1064 0.3962)">
						<stop  offset="0" style="stop-color:#FFFFFF"/>
						<stop  offset="0.1762" style="stop-color:#C4C4C4"/>
						<stop  offset="0.4005" style="stop-color:#7F7F7F"/>
						<stop  offset="0.6033" style="stop-color:#484848"/>
						<stop  offset="0.7771" style="stop-color:#212121"/>
						<stop  offset="0.9151" style="stop-color:#090909"/>
						<stop  offset="1" style="stop-color:#000000"/>
					</linearGradient>
					<path class="st23" d="M34.8,16.2c1.1-1.1,2.6-1.2,3.8-0.5c0-0.1-0.1-0.1-0.1-0.2c-1.2-1.2-3.7-1.2-5,0.1l-7.8,7.8l1,1
						L34.8,16.2z"/>
				</g>
			</mask>
			<path class="st24" d="M33.5,15.5l-7.8,7.8l1,1l8.1-8.1c1.1-1.1,2.6-1.2,3.8-0.5c0-0.1-0.1-0.1-0.1-0.2
				C37.3,14.3,34.7,14.3,33.5,15.5z"/>
			<defs>
				<filter id="Adobe_OpacityMaskFilter_8_" filterUnits="userSpaceOnUse" x="31.7" y="20.3" width="9.7" height="12.9">
					<feColorMatrix  type="matrix" values="1 0 0 0 0  0 1 0 0 0  0 0 1 0 0  0 0 0 1 0"/>
				</filter>
			</defs>
			<mask maskUnits="userSpaceOnUse" x="31.7" y="20.3" width="9.7" height="12.9" id="SVGID_17_">
				<g class="st25">
					
						<linearGradient id="SVGID_18_" gradientUnits="userSpaceOnUse" x1="260.0707" y1="-532.508" x2="260.0707" y2="-517.1185" gradientTransform="matrix(-0.7071 0.7071 -0.7071 -0.7071 -151.2111 -528.7489)">
						<stop  offset="0" style="stop-color:#FFFFFF"/>
						<stop  offset="0.1762" style="stop-color:#C4C4C4"/>
						<stop  offset="0.4005" style="stop-color:#7F7F7F"/>
						<stop  offset="0.6033" style="stop-color:#484848"/>
						<stop  offset="0.7771" style="stop-color:#212121"/>
						<stop  offset="0.9151" style="stop-color:#090909"/>
						<stop  offset="1" style="stop-color:#000000"/>
					</linearGradient>
					<path class="st26" d="M39.8,29.4c1.1,1.1,1.2,2.6,0.5,3.8c0.1,0,0.1-0.1,0.2-0.1c1.2-1.2,1.2-3.7-0.1-5l-7.8-7.8l-1,1
						L39.8,29.4z"/>
				</g>
			</mask>
			<path class="st27" d="M40.4,28.1l-7.8-7.8l-1,1l8.1,8.1c1.1,1.1,1.2,2.6,0.5,3.8c0.1,0,0.1-0.1,0.2-0.1
				C41.7,31.9,41.7,29.3,40.4,28.1z"/>
		</g>
	</g>
</g>
</svg>
