<svg width="231" height="127" viewBox="0 0 231 127" fill="none" xmlns="http://www.w3.org/2000/svg">
<g clip-path="url(#clip0_410_554)">
<path d="M76.1863 95.1152C76.2789 95.1152 76.2789 95.1152 76.2789 95.2078L76.6492 95.5781C76.3715 95.8559 76.0937 96.1337 75.7233 96.2263C75.3529 96.4115 74.9826 96.5041 74.427 96.5041C73.964 96.5041 73.5937 96.4115 73.2233 96.3189C72.8529 96.1337 72.5752 95.9485 72.2974 95.6707C72.0196 95.3929 71.8344 95.1152 71.7418 94.7448C71.6492 94.3744 71.5566 93.9115 71.5566 93.5411C71.5566 93.0781 71.6492 92.7078 71.7418 92.3374C71.927 91.967 72.1122 91.5966 72.39 91.4115C72.6678 91.1337 72.9455 90.9485 73.3159 90.7633C73.6863 90.5781 74.0566 90.5781 74.5196 90.5781C74.9826 90.5781 75.3529 90.6707 75.6307 90.7633C76.0011 90.9485 76.2789 91.1337 76.464 91.3189L76.1863 91.6892C76.1863 91.6892 76.1863 91.7818 76.0937 91.7818H76.0011C75.9085 91.7818 75.9085 91.7818 75.8159 91.6892C75.7233 91.5966 75.6307 91.5966 75.5381 91.5041C75.4455 91.4115 75.2603 91.4115 75.0752 91.3189C74.89 91.2263 74.7048 91.2263 74.427 91.2263C74.1492 91.2263 73.8715 91.3189 73.5937 91.4115C73.3159 91.5041 73.1307 91.6892 72.9455 91.8744C72.7603 92.0596 72.6678 92.3374 72.4826 92.6152C72.39 92.8929 72.2974 93.2633 72.2974 93.5411C72.2974 93.9115 72.39 94.1892 72.4826 94.5596C72.5752 94.93 72.7603 95.1152 72.9455 95.3003C73.1307 95.4855 73.3159 95.6707 73.5937 95.7633C73.8715 95.8559 74.1492 95.9485 74.427 95.9485C74.6122 95.9485 74.7974 95.9485 74.89 95.9485C74.9826 95.9485 75.1678 95.8559 75.2603 95.8559C75.3529 95.8559 75.4455 95.7633 75.6307 95.6707C75.7233 95.5781 75.8159 95.4855 75.9085 95.3929C76.0937 95.1152 76.0937 95.1152 76.1863 95.1152C76.1863 95.1152 76.0937 95.1152 76.1863 95.1152Z" fill="#231F20"/>
<path d="M78.5013 92.8947C78.5939 92.6169 78.7791 92.4317 78.9643 92.2465C79.1495 92.0613 79.4272 91.9688 79.705 91.9688C79.7976 91.9688 79.8902 91.9688 79.9828 91.9688C80.0754 91.9688 80.168 92.0613 80.168 92.0613L80.0754 92.7095C80.0754 92.8021 79.9828 92.8021 79.9828 92.8021C79.9828 92.8021 79.8902 92.8021 79.7976 92.8021C79.705 92.8021 79.6124 92.8021 79.5198 92.8021C79.4272 92.8021 79.242 92.8021 79.1495 92.8947C79.0569 92.8947 78.9643 92.9873 78.8717 93.0799C78.7791 93.1725 78.6865 93.265 78.6865 93.3576C78.5939 93.4502 78.5939 93.5428 78.5013 93.728V96.4132H77.668V92.1539H78.1309C78.2235 92.1539 78.3161 92.1539 78.3161 92.2465C78.3161 92.2465 78.4087 92.3391 78.4087 92.4317L78.5013 92.8947Z" fill="#231F20"/>
<path d="M84.426 95.7705C84.3334 95.8631 84.2408 95.9557 84.0556 96.0483C83.963 96.1409 83.7778 96.2335 83.5927 96.2335C83.4075 96.3261 83.3149 96.3261 83.1297 96.3261C82.9445 96.3261 82.8519 96.3261 82.6667 96.3261C82.389 96.3261 82.1112 96.2335 81.8334 96.1409C81.5556 96.0483 81.3704 95.8631 81.1853 95.6779C81.0001 95.4928 80.8149 95.215 80.7223 94.9372C80.6297 94.6594 80.5371 94.2891 80.5371 93.9187C80.5371 93.6409 80.5371 93.3631 80.6297 93.0854C80.7223 92.8076 80.8149 92.6224 81.0001 92.4372C81.1853 92.252 81.3704 92.0668 81.6482 91.9742C81.926 91.8817 82.2038 91.7891 82.4816 91.7891C82.7593 91.7891 82.9445 91.7891 83.2223 91.8817C83.4075 91.9742 83.5927 92.0668 83.7779 92.252C83.963 92.4372 84.0556 92.6224 84.1482 92.8076C84.2408 93.0854 84.2408 93.2705 84.2408 93.6409C84.2408 93.7335 84.2408 93.8261 84.2408 93.9187C84.2408 93.9187 84.1482 94.0113 84.0556 94.0113H81.2778C81.2778 94.2891 81.2778 94.4742 81.3704 94.6594C81.463 94.8446 81.5556 95.0298 81.6482 95.1224C81.7408 95.215 81.926 95.3076 82.0186 95.4002C82.2038 95.4928 82.389 95.4928 82.5741 95.4928C82.7593 95.4928 82.9445 95.4928 83.0371 95.4002C83.1297 95.4002 83.3149 95.3076 83.4075 95.3076C83.5001 95.215 83.5927 95.215 83.6853 95.215C83.7778 95.215 83.7778 95.1224 83.8704 95.1224C83.963 95.1224 83.963 95.1224 84.0556 95.215L84.426 95.7705ZM83.7779 93.8261C83.7779 93.6409 83.7778 93.5483 83.6853 93.3631C83.6853 93.2705 83.5927 93.0854 83.5001 92.9928C83.4075 92.9002 83.3149 92.8076 83.1297 92.715C83.0371 92.6224 82.8519 92.6224 82.6667 92.6224C82.2964 92.6224 82.0186 92.715 81.8334 92.9002C81.6482 93.0854 81.5556 93.3631 81.463 93.7335H83.7779V93.8261Z" fill="#231F20"/>
<path d="M85.6305 92.7107C85.9083 92.5255 86.0935 92.3403 86.3712 92.2477C86.649 92.1551 86.9268 92.0625 87.2972 92.0625C87.5749 92.0625 87.7601 92.0625 87.9453 92.1551C88.1305 92.2477 88.3157 92.3403 88.4083 92.5255C88.5009 92.7106 88.5935 92.8032 88.6861 93.081C88.7786 93.2662 88.7786 93.544 88.7786 93.7292V96.4144H88.4083C88.3157 96.4144 88.2231 96.4144 88.2231 96.4144C88.2231 96.4144 88.1305 96.3218 88.1305 96.2292L88.0379 95.8588C87.9453 95.9514 87.8527 96.044 87.7601 96.1366C87.6675 96.2292 87.5749 96.3218 87.3898 96.3218C87.2972 96.4144 87.112 96.4144 87.0194 96.4144C86.9268 96.4144 86.7416 96.4144 86.5564 96.4144C86.3712 96.4144 86.1861 96.4144 86.0935 96.3218C85.9083 96.3218 85.8157 96.2292 85.7231 96.1366C85.6305 96.044 85.5379 95.9514 85.4453 95.7662C85.4453 95.6736 85.4453 95.4884 85.4453 95.3032C85.4453 95.1181 85.4453 94.9329 85.5379 94.8403C85.6305 94.6551 85.8157 94.5625 86.0009 94.3773C86.1861 94.2847 86.4638 94.1921 86.8342 94.0995C87.2046 94.0069 87.5749 94.007 88.0379 94.007V93.7292C88.0379 93.4514 87.9453 93.1736 87.8527 92.9884C87.7601 92.8032 87.4824 92.7107 87.2046 92.7107C87.0194 92.7107 86.8342 92.7107 86.7416 92.8032C86.649 92.8032 86.5564 92.8958 86.4638 92.9884C86.3712 93.081 86.2786 93.081 86.2786 93.1736C86.1861 93.1736 86.1861 93.2662 86.0935 93.2662C86.0009 93.2662 86.0009 93.2662 85.9083 93.2662L85.8157 93.1736L85.6305 92.7107ZM88.0379 94.4699C87.6675 94.4699 87.3898 94.4699 87.2046 94.5625C86.9268 94.5625 86.7416 94.6551 86.649 94.7477C86.4638 94.8403 86.3712 94.9329 86.3712 95.0255C86.2786 95.1181 86.2786 95.2106 86.2786 95.3032C86.2786 95.3958 86.2786 95.4884 86.3712 95.581C86.3712 95.6736 86.4638 95.7662 86.5564 95.7662C86.649 95.8588 86.649 95.8588 86.7416 95.8588C86.8342 95.8588 86.9268 95.8588 87.0194 95.8588C87.112 95.8588 87.2972 95.8588 87.3898 95.8588C87.4823 95.8588 87.5749 95.7662 87.6675 95.7662C87.7601 95.7662 87.8527 95.6736 87.9453 95.581C88.0379 95.4884 88.1305 95.3958 88.2231 95.3958V94.4699H88.0379Z" fill="#231F20"/>
<path d="M91.5561 96.4138C91.1858 96.4138 90.908 96.3212 90.7228 96.136C90.5376 95.9508 90.445 95.673 90.445 95.3027V92.7101H89.9821C89.8895 92.7101 89.8895 92.7101 89.8895 92.7101L89.7969 92.6175V92.2471L90.445 92.1545L90.6302 90.8582C90.6302 90.7656 90.6302 90.7656 90.7228 90.7656H90.8154H91.1858V92.1545H92.3895V92.7101H91.1858V95.2101C91.1858 95.3953 91.1858 95.4878 91.2784 95.5804C91.3709 95.673 91.4635 95.673 91.5561 95.673C91.6487 95.673 91.7413 95.673 91.7413 95.673C91.8339 95.673 91.8339 95.673 91.9265 95.5804C91.9265 95.5804 92.0191 95.5804 92.0191 95.4878H92.1117H92.2043C92.2043 95.4878 92.2043 95.4878 92.2969 95.5804L92.5747 95.9508C92.4821 96.0434 92.2969 96.136 92.1117 96.2286C91.9265 96.4138 91.7413 96.4138 91.5561 96.4138Z" fill="#231F20"/>
<path d="M94.3341 90.7677C94.3341 90.8602 94.3341 90.9528 94.3341 90.9528C94.3341 91.0454 94.2415 91.0454 94.2415 91.138C94.1489 91.2306 94.1489 91.2306 94.0564 91.2306C93.9638 91.2306 93.8712 91.2306 93.8712 91.2306C93.7786 91.2306 93.686 91.2306 93.686 91.2306C93.5934 91.2306 93.5934 91.138 93.5008 91.138C93.4082 91.0454 93.4082 91.0454 93.4082 90.9528C93.4082 90.8602 93.4082 90.7677 93.4082 90.7677C93.4082 90.6751 93.4082 90.5825 93.4082 90.5825C93.4082 90.4899 93.5008 90.4899 93.5008 90.3973C93.5934 90.3047 93.5934 90.3047 93.686 90.3047C93.7786 90.3047 93.7786 90.3047 93.8712 90.3047C93.9638 90.3047 94.0564 90.3047 94.0564 90.3047C94.1489 90.3047 94.1489 90.3973 94.2415 90.3973C94.3341 90.4899 94.3341 90.4899 94.3341 90.5825C94.3341 90.6751 94.3341 90.7677 94.3341 90.7677ZM94.2415 92.1565V96.4158H93.4082V92.1565H94.2415Z" fill="#231F20"/>
<path d="M96.4626 92.7107C96.5552 92.6181 96.6478 92.5255 96.7404 92.4329C96.833 92.3403 96.9256 92.2477 97.0182 92.2477C97.1107 92.1551 97.2959 92.1551 97.3885 92.1551C97.4811 92.1551 97.6663 92.0625 97.8515 92.0625C98.1293 92.0625 98.3145 92.0625 98.4996 92.1551C98.6848 92.2477 98.87 92.3403 98.9626 92.5255C99.0552 92.7106 99.1478 92.8032 99.2404 92.9884C99.333 93.1736 99.333 93.4514 99.333 93.6366V96.3218H98.4996V93.6366C98.4996 93.3588 98.407 93.081 98.3145 92.8958C98.1293 92.7106 97.9441 92.6181 97.6663 92.6181C97.4811 92.6181 97.2959 92.7107 97.1107 92.8032C96.9256 92.8958 96.7404 93.081 96.6478 93.1736V96.3218H95.8145V92.0625H96.2774C96.37 92.0625 96.4626 92.1551 96.4626 92.2477V92.7107Z" fill="#231F20"/>
<path d="M104.334 92.2465V92.5243C104.334 92.6169 104.242 92.7095 104.149 92.7095L103.686 92.8021C103.686 92.8947 103.779 92.9873 103.779 93.0799C103.779 93.1725 103.779 93.265 103.779 93.3576C103.779 93.5428 103.779 93.728 103.686 93.9132C103.593 94.0984 103.501 94.191 103.316 94.3762C103.131 94.4687 103.038 94.5613 102.853 94.6539C102.668 94.7465 102.482 94.7465 102.205 94.7465C102.019 94.7465 101.834 94.7465 101.649 94.6539C101.556 94.7465 101.464 94.7465 101.464 94.8391C101.464 94.9317 101.371 94.9317 101.371 95.0243C101.371 95.1169 101.371 95.2095 101.464 95.2095C101.556 95.2095 101.649 95.3021 101.742 95.3021C101.834 95.3021 102.019 95.3021 102.205 95.3021C102.39 95.3021 102.575 95.3021 102.76 95.3021C102.945 95.3021 103.131 95.3021 103.316 95.3947C103.501 95.3947 103.593 95.4873 103.779 95.5799C103.871 95.6725 104.056 95.7651 104.056 95.8576C104.149 95.9502 104.149 96.1354 104.149 96.3206C104.149 96.5058 104.149 96.691 104.056 96.8762C103.964 97.0613 103.871 97.2465 103.686 97.3391C103.501 97.4317 103.316 97.6169 103.038 97.6169C102.853 97.8947 102.575 97.8947 102.297 97.8947C102.019 97.8947 101.742 97.8947 101.464 97.8021C101.186 97.7095 101.001 97.6169 100.908 97.5243C100.723 97.4317 100.631 97.3391 100.538 97.1539C100.445 97.0613 100.445 96.8762 100.445 96.691C100.445 96.5058 100.538 96.3206 100.631 96.1354C100.723 95.9502 100.908 95.8576 101.186 95.765C101.093 95.6725 101.001 95.6725 100.908 95.5799C100.816 95.4873 100.816 95.3947 100.816 95.2095C100.816 95.1169 100.816 95.1169 100.816 95.0243C100.816 94.9317 100.908 94.9317 100.908 94.8391C100.908 94.7465 101.001 94.7465 101.093 94.6539C101.186 94.5613 101.279 94.5613 101.371 94.4688C101.186 94.3762 101.001 94.191 100.908 94.0058C100.816 93.8206 100.723 93.5428 100.723 93.3576C100.723 93.1725 100.723 92.9873 100.816 92.8021C100.908 92.6169 101.001 92.5243 101.186 92.3391C101.371 92.2465 101.464 92.1539 101.742 92.0613C101.927 91.9687 102.205 91.9688 102.39 91.9688C102.76 91.9688 103.038 92.0613 103.316 92.1539H104.334V92.2465ZM103.501 96.5984C103.501 96.5058 103.501 96.4132 103.408 96.3206C103.316 96.228 103.316 96.228 103.223 96.1354C103.13 96.1354 103.038 96.0428 102.853 96.0428C102.76 96.0428 102.575 96.0428 102.482 96.0428C102.297 96.0428 102.205 96.0428 102.019 96.0428C101.834 96.0428 101.742 96.0428 101.556 96.0428C101.371 96.1354 101.279 96.228 101.186 96.3206C101.093 96.4132 101.001 96.5058 101.001 96.691C101.001 96.7836 101.001 96.8762 101.093 96.9688C101.093 97.0613 101.186 97.1539 101.279 97.1539C101.371 97.2465 101.464 97.2465 101.649 97.2465C101.834 97.2465 101.927 97.3391 102.205 97.3391C102.39 97.3391 102.575 97.3391 102.76 97.2465C102.945 97.2465 103.038 97.1539 103.13 97.0613C103.223 96.9687 103.316 96.9688 103.408 96.8762C103.501 96.7836 103.501 96.691 103.501 96.5984ZM102.205 94.2836C102.39 94.2836 102.482 94.2836 102.575 94.191C102.668 94.191 102.76 94.0984 102.853 94.0058C102.945 93.9132 102.945 93.8206 103.038 93.728C103.038 93.6354 103.13 93.5428 103.13 93.3576C103.13 93.0799 103.038 92.8947 102.945 92.8021C102.76 92.6169 102.575 92.6169 102.297 92.6169C102.019 92.6169 101.834 92.7095 101.649 92.8021C101.464 92.9873 101.464 93.1725 101.464 93.3576C101.464 93.4502 101.464 93.5428 101.556 93.728C101.556 93.8206 101.649 93.9132 101.742 94.0058C101.834 94.0984 101.927 94.0984 102.019 94.191C101.927 94.191 102.112 94.2836 102.205 94.2836Z" fill="#231F20"/>
<path d="M109.705 92.0625C109.983 92.0625 110.261 92.1551 110.538 92.2477C110.816 92.3403 111.001 92.5255 111.186 92.7107C111.372 92.8958 111.464 93.1736 111.557 93.3588C111.649 93.6366 111.742 93.9144 111.742 94.2847C111.742 94.6551 111.649 94.9329 111.557 95.2106C111.464 95.4884 111.372 95.6736 111.186 95.8588C111.001 96.044 110.816 96.2292 110.538 96.3218C110.261 96.4144 109.983 96.5069 109.705 96.5069C109.427 96.5069 109.149 96.4144 108.872 96.3218C108.594 96.2292 108.409 96.044 108.224 95.8588C108.038 95.6736 107.946 95.3958 107.853 95.2106C107.761 94.9329 107.668 94.6551 107.668 94.2847C107.668 93.9144 107.761 93.6366 107.853 93.3588C107.946 93.081 108.131 92.8958 108.224 92.7107C108.409 92.5255 108.594 92.3403 108.872 92.2477C109.149 92.0625 109.427 92.0625 109.705 92.0625ZM109.705 95.7662C110.075 95.7662 110.446 95.6736 110.631 95.3958C110.816 95.1181 110.909 94.7477 110.909 94.2847C110.909 93.8218 110.816 93.4514 110.631 93.1736C110.446 92.8958 110.168 92.8032 109.705 92.8032C109.335 92.8032 108.964 92.8958 108.779 93.1736C108.594 93.4514 108.501 93.8218 108.501 94.2847C108.501 94.7477 108.594 95.1181 108.779 95.3958C108.964 95.6736 109.335 95.7662 109.705 95.7662Z" fill="#231F20"/>
<path d="M113.779 92.8032C113.872 92.7107 113.964 92.6181 114.057 92.5255C114.149 92.4329 114.242 92.3403 114.427 92.3403C114.52 92.2477 114.705 92.2477 114.798 92.1551C114.89 92.1551 115.075 92.0625 115.26 92.0625C115.538 92.0625 115.723 92.1551 115.909 92.2477C116.094 92.3403 116.279 92.5255 116.372 92.7107C116.557 92.8958 116.649 93.081 116.742 93.3588C116.835 93.6366 116.835 93.9144 116.835 94.2847C116.835 94.5625 116.835 94.9329 116.742 95.1181C116.649 95.3958 116.557 95.581 116.372 95.8588C116.186 96.044 116.001 96.2292 115.816 96.3218C115.631 96.4144 115.353 96.5069 115.075 96.5069C114.798 96.5069 114.612 96.5069 114.427 96.4144C114.242 96.3218 114.057 96.2292 113.964 96.044V97.8958H113.131V92.2477H113.594C113.686 92.2477 113.779 92.3403 113.779 92.4329V92.8032ZM113.872 95.3032C113.964 95.4884 114.149 95.581 114.335 95.6736C114.52 95.7662 114.705 95.7662 114.89 95.7662C115.26 95.7662 115.538 95.6736 115.723 95.3958C115.816 95.1181 116.001 94.7477 116.001 94.1921C116.001 93.9144 116.001 93.7292 115.909 93.544C115.909 93.3588 115.816 93.1736 115.723 93.081C115.631 92.9884 115.538 92.8958 115.353 92.8032C115.26 92.7107 115.075 92.7107 114.89 92.7107C114.612 92.7107 114.427 92.8032 114.242 92.8958C114.057 92.9884 113.872 93.1736 113.779 93.3588V95.3032H113.872Z" fill="#231F20"/>
<path d="M118.873 92.8032C118.965 92.7107 119.058 92.6181 119.151 92.5255C119.243 92.4329 119.336 92.3403 119.521 92.3403C119.613 92.2477 119.799 92.2477 119.891 92.1551C119.984 92.1551 120.169 92.0625 120.354 92.0625C120.632 92.0625 120.817 92.1551 121.002 92.2477C121.188 92.3403 121.373 92.5255 121.465 92.7107C121.651 92.8958 121.743 93.081 121.836 93.3588C121.928 93.6366 121.928 93.9144 121.928 94.2847C121.928 94.5625 121.928 94.9329 121.836 95.1181C121.743 95.3958 121.651 95.581 121.465 95.8588C121.28 96.044 121.095 96.2292 120.91 96.3218C120.725 96.4144 120.447 96.5069 120.169 96.5069C119.891 96.5069 119.706 96.5069 119.521 96.4144C119.336 96.3218 119.151 96.2292 119.058 96.044V97.8958H118.225V92.2477H118.688C118.78 92.2477 118.873 92.3403 118.873 92.4329V92.8032ZM118.873 95.3032C118.965 95.4884 119.151 95.581 119.336 95.6736C119.521 95.7662 119.706 95.7662 119.891 95.7662C120.262 95.7662 120.539 95.6736 120.725 95.3958C120.91 95.1181 121.002 94.7477 121.002 94.1921C121.002 93.9144 121.002 93.7292 120.91 93.544C120.91 93.3588 120.817 93.1736 120.725 93.081C120.632 92.9884 120.539 92.8958 120.354 92.8032C120.262 92.7107 120.076 92.7107 119.891 92.7107C119.613 92.7107 119.428 92.8032 119.243 92.8958C119.058 92.9884 118.873 93.1736 118.78 93.3588V95.3032H118.873Z" fill="#231F20"/>
<path d="M124.891 92.0625C125.168 92.0625 125.446 92.1551 125.724 92.2477C126.002 92.3403 126.187 92.5255 126.372 92.7107C126.557 92.8958 126.65 93.1736 126.742 93.3588C126.835 93.6366 126.928 93.9144 126.928 94.2847C126.928 94.6551 126.835 94.9329 126.742 95.2106C126.65 95.4884 126.557 95.6736 126.372 95.8588C126.187 96.044 126.002 96.2292 125.724 96.3218C125.446 96.4144 125.168 96.5069 124.891 96.5069C124.613 96.5069 124.335 96.4144 124.057 96.3218C123.779 96.2292 123.594 96.044 123.409 95.8588C123.224 95.6736 123.131 95.3958 123.039 95.2106C122.946 94.9329 122.854 94.6551 122.854 94.2847C122.854 93.9144 122.946 93.6366 123.039 93.3588C123.131 93.081 123.316 92.8958 123.409 92.7107C123.594 92.5255 123.779 92.3403 124.057 92.2477C124.335 92.0625 124.613 92.0625 124.891 92.0625ZM124.891 95.7662C125.261 95.7662 125.631 95.6736 125.816 95.3958C126.002 95.1181 126.094 94.7477 126.094 94.2847C126.094 93.8218 126.002 93.4514 125.816 93.1736C125.631 92.8958 125.354 92.8032 124.891 92.8032C124.52 92.8032 124.15 92.8958 123.965 93.1736C123.779 93.4514 123.687 93.8218 123.687 94.2847C123.687 94.7477 123.779 95.1181 123.965 95.3958C124.242 95.6736 124.52 95.7662 124.891 95.7662Z" fill="#231F20"/>
<path d="M128.964 92.8947C129.057 92.6169 129.242 92.4317 129.427 92.2465C129.612 92.0613 129.89 91.9688 130.168 91.9688C130.26 91.9688 130.353 91.9688 130.446 91.9688C130.538 91.9688 130.631 92.0613 130.631 92.0613L130.538 92.7095C130.538 92.8021 130.446 92.8021 130.446 92.8021C130.446 92.8021 130.353 92.8021 130.26 92.8021C130.168 92.8021 130.075 92.8021 129.983 92.8021C129.89 92.8021 129.705 92.8021 129.612 92.8947C129.52 92.8947 129.427 92.9873 129.335 93.0799C129.242 93.1725 129.149 93.265 129.149 93.3576C129.057 93.4502 129.057 93.5428 128.964 93.728V96.4132H128.131V92.1539H128.594C128.686 92.1539 128.779 92.1539 128.779 92.2465C128.779 92.2465 128.872 92.3391 128.872 92.4317L128.964 92.8947Z" fill="#231F20"/>
<path d="M132.947 96.4138C132.576 96.4138 132.299 96.3212 132.113 96.136C131.928 95.9508 131.836 95.673 131.836 95.3027V92.7101H131.373C131.28 92.7101 131.28 92.7101 131.28 92.7101L131.188 92.6175V92.2471L131.836 92.1545L132.021 90.8582C132.021 90.7656 132.021 90.7656 132.113 90.7656H132.206H132.576V92.1545H133.78V92.7101H132.669V95.2101C132.669 95.3953 132.669 95.4878 132.762 95.5804C132.854 95.673 132.947 95.673 133.039 95.673C133.132 95.673 133.225 95.673 133.225 95.673C133.317 95.673 133.317 95.673 133.41 95.5804C133.41 95.5804 133.502 95.5804 133.502 95.4878H133.595H133.687C133.687 95.4878 133.687 95.4878 133.78 95.5804L134.058 95.9508C133.965 96.0434 133.78 96.136 133.595 96.2286C133.317 96.4138 133.132 96.4138 132.947 96.4138Z" fill="#231F20"/>
<path d="M138.501 92.1562V96.4155H138.038C137.945 96.4155 137.853 96.3229 137.853 96.2303L137.76 95.7674C137.668 95.8599 137.575 95.9525 137.482 96.0451C137.39 96.1377 137.297 96.2303 137.205 96.2303C137.112 96.3229 136.927 96.3229 136.834 96.3229C136.742 96.3229 136.556 96.4155 136.464 96.4155C136.186 96.4155 136.001 96.4155 135.816 96.3229C135.631 96.2303 135.445 96.1377 135.353 95.9525C135.26 95.7674 135.168 95.6748 135.075 95.4896C134.982 95.3044 134.982 95.0266 134.982 94.8414V92.1562H135.816V94.8414C135.816 95.1192 135.908 95.397 136.001 95.5822C136.186 95.7674 136.371 95.86 136.649 95.86C136.834 95.86 137.019 95.7674 137.205 95.6748C137.39 95.5822 137.575 95.397 137.76 95.3044V92.1562H138.501V92.1562Z" fill="#231F20"/>
<path d="M140.816 92.7107C140.909 92.6181 141.001 92.5255 141.094 92.4329C141.186 92.3403 141.279 92.2477 141.372 92.2477C141.464 92.1551 141.649 92.1551 141.742 92.1551C141.835 92.1551 142.02 92.0625 142.205 92.0625C142.483 92.0625 142.668 92.0625 142.853 92.1551C143.038 92.2477 143.224 92.3403 143.316 92.5255C143.409 92.7106 143.501 92.8032 143.594 92.9884C143.686 93.1736 143.686 93.4514 143.686 93.6366V96.3218H142.853V93.6366C142.853 93.3588 142.761 93.081 142.668 92.8958C142.483 92.7106 142.298 92.6181 142.02 92.6181C141.835 92.6181 141.649 92.7107 141.464 92.8032C141.279 92.8958 141.094 93.081 141.001 93.1736V96.3218H140.168V92.0625H140.631C140.724 92.0625 140.816 92.1551 140.816 92.2477V92.7107Z" fill="#231F20"/>
<path d="M146.002 90.7677C146.002 90.8602 146.002 90.9528 146.002 90.9528C146.002 91.0454 145.91 91.0454 145.91 91.138C145.817 91.2306 145.817 91.2306 145.724 91.2306C145.632 91.2306 145.539 91.2306 145.539 91.2306C145.447 91.2306 145.354 91.2306 145.354 91.2306C145.261 91.2306 145.261 91.138 145.169 91.138C145.076 91.0454 145.076 91.0454 145.076 90.9528C145.076 90.8602 145.076 90.7677 145.076 90.7677C145.076 90.6751 145.076 90.5825 145.076 90.5825C145.076 90.4899 145.169 90.4899 145.169 90.3973C145.261 90.3047 145.261 90.3047 145.354 90.3047C145.447 90.3047 145.447 90.3047 145.539 90.3047C145.632 90.3047 145.724 90.3047 145.724 90.3047C145.817 90.3047 145.817 90.3973 145.91 90.3973C146.002 90.4899 146.002 90.4899 146.002 90.5825C146.002 90.6751 146.002 90.7677 146.002 90.7677ZM145.91 92.1565V96.4158H145.076V92.1565H145.91Z" fill="#231F20"/>
<path d="M148.779 96.4138C148.408 96.4138 148.131 96.3212 147.945 96.136C147.76 95.9508 147.668 95.673 147.668 95.3027V92.7101H147.205C147.112 92.7101 147.112 92.7101 147.112 92.7101L147.02 92.6175V92.2471L147.668 92.1545L147.853 90.8582C147.853 90.7656 147.853 90.7656 147.945 90.7656H148.038H148.408V92.1545H149.612V92.7101H148.408V95.2101C148.408 95.3953 148.408 95.4878 148.501 95.5804C148.594 95.673 148.686 95.673 148.779 95.673C148.871 95.673 148.964 95.673 148.964 95.673C149.057 95.673 149.057 95.673 149.149 95.5804C149.149 95.5804 149.242 95.5804 149.242 95.4878H149.334H149.427C149.427 95.4878 149.427 95.4878 149.52 95.5804L149.797 95.9508C149.705 96.0434 149.52 96.136 149.334 96.2286C149.149 96.4138 148.964 96.4138 148.779 96.4138Z" fill="#231F20"/>
<path d="M151.558 90.7677C151.558 90.8602 151.558 90.9528 151.558 90.9528C151.558 91.0454 151.465 91.0454 151.465 91.138C151.372 91.2306 151.372 91.2306 151.28 91.2306C151.187 91.2306 151.095 91.2306 151.095 91.2306C151.002 91.2306 150.909 91.2306 150.909 91.2306C150.817 91.2306 150.817 91.138 150.724 91.138C150.632 91.0454 150.632 91.0454 150.632 90.9528C150.632 90.8602 150.632 90.7677 150.632 90.7677C150.632 90.6751 150.632 90.5825 150.632 90.5825C150.632 90.4899 150.724 90.4899 150.724 90.3973C150.817 90.3047 150.817 90.3047 150.909 90.3047C151.002 90.3047 151.002 90.3047 151.095 90.3047C151.187 90.3047 151.28 90.3047 151.28 90.3047C151.372 90.3047 151.372 90.3973 151.465 90.3973C151.558 90.4899 151.558 90.4899 151.558 90.5825C151.558 90.6751 151.558 90.7677 151.558 90.7677ZM151.372 92.1565V96.4158H150.539V92.1565H151.372Z" fill="#231F20"/>
<path d="M156.463 95.7705C156.371 95.8631 156.278 95.9557 156.093 96.0483C156 96.1409 155.815 96.2335 155.63 96.2335C155.445 96.3261 155.352 96.3261 155.167 96.3261C154.982 96.3261 154.889 96.3261 154.704 96.3261C154.426 96.3261 154.148 96.2335 153.871 96.1409C153.593 96.0483 153.408 95.8631 153.222 95.6779C153.037 95.4928 152.852 95.215 152.759 94.9372C152.667 94.6594 152.574 94.2891 152.574 93.9187C152.574 93.6409 152.574 93.3631 152.667 93.0854C152.759 92.8076 152.852 92.6224 153.037 92.4372C153.222 92.252 153.408 92.0668 153.685 91.9742C153.963 91.8817 154.241 91.7891 154.519 91.7891C154.796 91.7891 154.982 91.7891 155.259 91.8817C155.445 91.9742 155.63 92.0668 155.815 92.252C156 92.4372 156.093 92.6224 156.185 92.8076C156.278 93.0854 156.278 93.2705 156.278 93.6409C156.278 93.7335 156.278 93.8261 156.278 93.9187C156.278 93.9187 156.185 94.0113 156.093 94.0113H153.315C153.315 94.2891 153.315 94.4742 153.408 94.6594C153.5 94.8446 153.593 95.0298 153.685 95.1224C153.778 95.215 153.963 95.3076 154.056 95.4002C154.241 95.4928 154.426 95.4928 154.611 95.4928C154.796 95.4928 154.982 95.4928 155.074 95.4002C155.167 95.4002 155.352 95.3076 155.445 95.3076C155.537 95.215 155.63 95.215 155.722 95.215C155.815 95.215 155.815 95.1224 155.908 95.1224C156 95.1224 156 95.1224 156.093 95.215L156.463 95.7705ZM155.722 93.8261C155.722 93.6409 155.722 93.5483 155.63 93.3631C155.63 93.2705 155.537 93.0854 155.445 92.9928C155.352 92.9002 155.259 92.8076 155.074 92.715C154.982 92.6224 154.796 92.6224 154.611 92.6224C154.241 92.6224 153.963 92.715 153.778 92.9002C153.593 93.0854 153.5 93.3631 153.408 93.7335H155.722V93.8261Z" fill="#231F20"/>
<path d="M160.168 92.8958C160.075 92.9884 160.075 92.9884 159.983 92.9884C159.983 92.9884 159.89 92.9884 159.798 92.9884C159.705 92.9884 159.705 92.8958 159.612 92.8958C159.52 92.8958 159.427 92.8032 159.335 92.8032C159.242 92.8032 159.15 92.8032 158.964 92.8032C158.872 92.8032 158.779 92.8032 158.687 92.8032C158.594 92.8032 158.501 92.8958 158.409 92.8958C158.316 92.9884 158.316 92.9884 158.224 93.081C158.224 93.1736 158.131 93.2662 158.131 93.2662C158.131 93.3588 158.131 93.4514 158.224 93.544C158.316 93.6366 158.409 93.6366 158.501 93.7292C158.594 93.8218 158.687 93.8218 158.872 93.8218C158.964 93.8218 159.15 93.9144 159.242 93.9144C159.335 93.9144 159.52 94.0069 159.612 94.0995C159.705 94.1921 159.89 94.1921 159.983 94.2847C160.075 94.3773 160.168 94.4699 160.261 94.5625C160.353 94.6551 160.353 94.8403 160.353 95.0255C160.353 95.2107 160.353 95.3958 160.261 95.581C160.168 95.7662 160.075 95.8588 159.983 96.044C159.89 96.1366 159.705 96.2292 159.427 96.3218C159.242 96.4144 158.964 96.4144 158.687 96.4144C158.409 96.4144 158.131 96.3218 157.853 96.2292C157.575 96.1366 157.39 96.044 157.205 95.8588L157.39 95.581L157.483 95.4884H157.575C157.668 95.4884 157.668 95.4884 157.761 95.581C157.853 95.581 157.853 95.6736 157.946 95.6736C158.038 95.6736 158.131 95.7662 158.224 95.7662C158.316 95.7662 158.501 95.8588 158.687 95.8588C158.872 95.8588 158.964 95.8588 159.057 95.7662C159.15 95.7662 159.242 95.6736 159.335 95.581C159.427 95.4884 159.427 95.4884 159.52 95.3958C159.52 95.3032 159.612 95.2107 159.612 95.1181C159.612 95.0255 159.612 94.9329 159.52 94.8403C159.427 94.7477 159.335 94.7477 159.242 94.6551C159.15 94.5625 159.057 94.5625 158.872 94.5625C158.779 94.5625 158.594 94.4699 158.501 94.4699C158.409 94.4699 158.224 94.3773 158.131 94.2847C158.038 94.1921 157.853 94.1921 157.761 94.0995C157.668 94.0069 157.575 93.9144 157.483 93.7292C157.39 93.6366 157.39 93.4514 157.39 93.2662C157.39 93.081 157.39 92.9884 157.483 92.8032C157.575 92.6181 157.668 92.5255 157.761 92.4329C157.853 92.3403 158.038 92.2477 158.224 92.1551C158.409 92.0625 158.594 92.0625 158.872 92.0625C159.15 92.0625 159.427 92.0625 159.612 92.1551C159.798 92.2477 160.075 92.3403 160.168 92.5255V92.8958Z" fill="#231F20"/>
<path d="M52.7611 76.9766V77.8099H50.3537V84.2914H49.3351V77.8099H46.9277V76.9766H52.7611Z" fill="#D9D9D9"/>
<path d="M61.6494 84.2914H60.6309V80.958H56.6494V84.2914H55.6309V76.9766H56.6494V80.2173H60.6309V76.9766H61.6494V84.2914Z" fill="#D9D9D9"/>
<path d="M69.7988 76.9766V77.8099H66.2802V80.2173H69.1506V80.958H66.2802V83.458H69.7988V84.2914H65.2617V76.9766H69.7988Z" fill="#D9D9D9"/>
<path d="M77.9463 81.6074V84.3851H76.9277V77.0703H79.0574C79.5203 77.0703 79.8907 77.1629 80.2611 77.2555C80.6314 77.3481 80.9092 77.5333 81.0944 77.7185C81.2796 77.9036 81.4648 78.1814 81.5574 78.4592C81.65 78.737 81.7425 79.0148 81.7425 79.3851C81.7425 79.7555 81.65 80.0333 81.5574 80.3111C81.4648 80.5888 81.2796 80.8666 81.0018 81.0518C80.8166 81.237 80.4463 81.4222 80.1685 81.5148C79.7981 81.6073 79.4277 81.6999 78.9648 81.6999H77.9463V81.6074ZM77.9463 80.774H79.15C79.4277 80.774 79.7055 80.774 79.8907 80.6814C80.0759 80.5888 80.2611 80.4962 80.4463 80.4036C80.6314 80.3111 80.724 80.1259 80.8166 79.9407C80.9092 79.7555 80.9092 79.5703 80.9092 79.2925C80.9092 78.8296 80.724 78.4592 80.4463 78.1814C80.1685 77.9036 79.7055 77.8111 79.15 77.8111H77.9463V80.774Z" fill="#D9D9D9"/>
<path d="M91.7418 80.6803C91.7418 81.2358 91.6492 81.6988 91.464 82.1617C91.2788 82.6247 91.001 82.9951 90.7232 83.3655C90.4455 83.7358 89.9825 83.921 89.6121 84.1062C89.1492 84.2914 88.6862 84.384 88.1306 84.384C87.5751 84.384 87.1121 84.2914 86.6492 84.1062C86.1862 83.921 85.8158 83.6432 85.538 83.3655C85.2603 82.9951 84.9825 82.6247 84.7973 82.1617C84.6121 81.6988 84.5195 81.2358 84.5195 80.6803C84.5195 80.1247 84.6121 79.6617 84.7973 79.1988C84.9825 78.7358 85.2603 78.3654 85.538 77.9951C85.8158 77.6247 86.2788 77.4395 86.6492 77.2543C87.1121 77.0692 87.5751 76.9766 88.1306 76.9766C88.6862 76.9766 89.1492 77.0692 89.6121 77.2543C90.0751 77.4395 90.4455 77.7173 90.7232 77.9951C91.001 78.3654 91.2788 78.7358 91.464 79.1988C91.6492 79.5692 91.7418 80.1247 91.7418 80.6803ZM90.7232 80.6803C90.7232 80.2173 90.6306 79.8469 90.538 79.4766C90.4455 79.1062 90.2603 78.8284 89.9825 78.5506C89.7973 78.2729 89.5195 78.0877 89.1492 77.9951C88.8714 77.9025 88.501 77.8099 88.038 77.8099C87.6677 77.8099 87.2973 77.9025 86.9269 77.9951C86.6492 78.0877 86.3714 78.2729 86.0936 78.5506C85.9084 78.8284 85.7232 79.1062 85.538 79.4766C85.4455 79.8469 85.3529 80.2173 85.3529 80.6803C85.3529 81.1432 85.4455 81.5136 85.538 81.884C85.6306 82.2543 85.8158 82.5321 86.0936 82.8099C86.2788 83.0877 86.5566 83.2729 86.9269 83.3655C87.2047 83.458 87.5751 83.5506 88.038 83.5506C88.4084 83.5506 88.7788 83.458 89.1492 83.3655C89.4269 83.2729 89.7047 83.0877 89.9825 82.8099C90.1677 82.5321 90.3529 82.2543 90.538 81.884C90.7232 81.5136 90.7232 81.1432 90.7232 80.6803Z" fill="#D9D9D9"/>
<path d="M96.0029 81.2358V84.2914H94.9844V76.9766H97.0214C97.4844 76.9766 97.8547 77.0692 98.2251 77.1617C98.5955 77.2543 98.8733 77.3469 99.0584 77.5321C99.2436 77.7173 99.4288 77.9025 99.5214 78.1803C99.614 78.458 99.7066 78.7358 99.7066 79.0136C99.7066 79.2914 99.7066 79.4766 99.614 79.7543C99.5214 79.9395 99.4288 80.2173 99.2436 80.4025C99.0585 80.5877 98.8733 80.7729 98.6881 80.8654C98.5029 80.958 98.2251 81.0506 97.9473 81.1432C98.0399 81.2358 98.2251 81.3284 98.3177 81.421L100.447 84.2914H99.5214C99.3362 84.2914 99.2436 84.1988 99.151 84.1062L97.2066 81.5136C97.114 81.421 97.114 81.3284 97.0214 81.3284C96.9288 81.3284 96.8362 81.2358 96.7436 81.2358H96.0029V81.2358ZM96.0029 80.5877H97.0214C97.2992 80.5877 97.577 80.5877 97.7622 80.4951C97.9473 80.4025 98.1325 80.3099 98.3177 80.2173C98.5029 80.1247 98.5955 79.9395 98.6881 79.7543C98.7807 79.5692 98.7807 79.384 98.7807 79.1988C98.7807 78.7358 98.5955 78.458 98.3177 78.1803C98.0399 77.9951 97.577 77.8099 97.0214 77.8099H95.9103V80.5877H96.0029Z" fill="#D9D9D9"/>
<path d="M108.132 76.9766V77.8099H105.725V84.2914H104.706V77.8099H102.299V76.9766H108.132Z" fill="#D9D9D9"/>
<path d="M118.595 78.1791C118.595 78.2717 118.503 78.2717 118.503 78.2717H118.41C118.317 78.2717 118.317 78.2717 118.225 78.1791C118.132 78.0865 118.04 78.0865 117.947 77.9939C117.854 77.9013 117.669 77.9013 117.484 77.8087C117.299 77.7161 117.114 77.7161 116.929 77.7161C116.743 77.7161 116.466 77.7161 116.373 77.8087C116.188 77.9013 116.095 77.9939 115.91 78.0865C115.817 78.1791 115.725 78.2717 115.632 78.4569C115.54 78.5495 115.54 78.7347 115.54 78.9199C115.54 79.105 115.632 79.2902 115.725 79.4754C115.817 79.568 116.003 79.7532 116.095 79.8458C116.188 79.9384 116.466 80.031 116.651 80.1236C116.836 80.2161 117.114 80.3087 117.299 80.3087C117.484 80.4013 117.762 80.4939 117.947 80.5865C118.132 80.6791 118.317 80.7717 118.503 80.9569C118.688 81.1421 118.78 81.2347 118.873 81.5124C118.966 81.6976 119.058 81.9754 119.058 82.2532C119.058 82.531 118.966 82.9013 118.873 83.1791C118.78 83.4569 118.595 83.7347 118.41 83.9199C118.225 84.105 117.947 84.2902 117.669 84.3828C117.391 84.4754 117.021 84.568 116.651 84.568C116.188 84.568 115.725 84.4754 115.354 84.2902C114.984 84.105 114.614 83.9199 114.336 83.5495L114.614 83.0865L114.706 82.9939H114.799C114.891 82.9939 114.984 82.9939 115.077 83.0865C115.169 83.1791 115.262 83.2717 115.447 83.3643C115.54 83.4569 115.725 83.5495 115.91 83.6421C116.095 83.7347 116.373 83.7347 116.651 83.7347C116.929 83.7347 117.114 83.7347 117.299 83.6421C117.484 83.5495 117.669 83.4569 117.762 83.3643C117.854 83.2717 117.947 83.0865 118.04 82.9013C118.132 82.7161 118.132 82.531 118.132 82.3458C118.132 82.1606 118.04 81.9754 117.947 81.7902C117.854 81.605 117.669 81.5124 117.577 81.4199C117.391 81.3273 117.206 81.2347 117.021 81.1421C116.836 81.0495 116.558 81.0495 116.373 80.9569C116.188 80.8643 115.91 80.7717 115.725 80.6791C115.54 80.5865 115.354 80.4939 115.169 80.3087C114.984 80.1236 114.891 79.9384 114.799 79.7532C114.706 79.568 114.614 79.2902 114.614 78.9199C114.614 78.6421 114.706 78.3643 114.799 78.1791C114.891 77.9013 115.077 77.7161 115.262 77.531C115.447 77.3458 115.725 77.1606 116.003 77.068C116.28 76.9754 116.651 76.8828 116.929 76.8828C117.299 76.8828 117.669 76.9754 118.04 77.068C118.41 77.1606 118.688 77.3458 118.966 77.6236L118.595 78.1791Z" fill="#D9D9D9"/>
<path d="M123.13 81.6074V84.3851H122.111V77.0703H124.334C124.797 77.0703 125.167 77.1629 125.537 77.2555C125.908 77.3481 126.185 77.5333 126.371 77.7185C126.556 77.9036 126.741 78.1814 126.834 78.4592C126.926 78.737 127.019 79.0148 127.019 79.3851C127.019 79.7555 126.926 80.0333 126.834 80.3111C126.741 80.5888 126.556 80.8666 126.278 81.0518C126.093 81.237 125.722 81.4222 125.445 81.5148C125.074 81.6073 124.704 81.6999 124.241 81.6999H123.13V81.6074ZM123.13 80.774H124.334C124.611 80.774 124.889 80.774 125.074 80.6814C125.259 80.5888 125.445 80.4962 125.63 80.4036C125.815 80.3111 125.908 80.1259 126 79.9407C126.093 79.7555 126.093 79.5703 126.093 79.2925C126.093 78.8296 125.908 78.4592 125.63 78.1814C125.352 77.9036 124.889 77.8111 124.334 77.8111H123.13V80.774V80.774Z" fill="#D9D9D9"/>
<path d="M134.705 76.9766V77.8099H131.186V80.2173H134.057V80.958H131.186V83.458H134.705V84.2914H130.168V76.9766H134.705Z" fill="#D9D9D9"/>
<path d="M143.131 82.8111C143.224 82.8111 143.224 82.8111 143.317 82.9036L143.687 83.3666C143.409 83.737 143.039 84.0148 142.576 84.1999C142.113 84.3851 141.65 84.4777 141.002 84.4777C140.446 84.4777 139.983 84.3851 139.52 84.1999C139.057 84.0148 138.687 83.737 138.409 83.4592C138.131 83.0888 137.854 82.7185 137.668 82.2555C137.483 81.7925 137.391 81.3296 137.391 80.774C137.391 80.2185 137.483 79.7555 137.668 79.2925C137.854 78.8296 138.131 78.4592 138.409 78.0888C138.78 77.7185 139.15 77.5333 139.613 77.3481C140.076 77.1629 140.539 77.0703 141.094 77.0703C141.65 77.0703 142.113 77.1629 142.483 77.3481C142.854 77.5333 143.224 77.7185 143.502 77.9962L143.224 78.4592L143.131 78.5518H143.039C143.039 78.5518 142.946 78.5518 142.854 78.4592C142.761 78.4592 142.761 78.3666 142.668 78.3666C142.576 78.274 142.483 78.274 142.391 78.1814C142.298 78.0888 142.205 78.0888 142.02 77.9962C141.928 77.9036 141.742 77.9036 141.557 77.9036C141.372 77.9036 141.187 77.8111 141.002 77.8111C140.631 77.8111 140.261 77.9036 139.891 77.9962C139.52 78.0888 139.242 78.3666 139.057 78.5518C138.78 78.8296 138.594 79.1073 138.502 79.4777C138.409 79.8481 138.317 80.2185 138.317 80.6814C138.317 81.1444 138.409 81.5148 138.502 81.8851C138.594 82.2555 138.78 82.5333 139.057 82.8111C139.242 83.0888 139.52 83.274 139.891 83.3666C140.261 83.4592 140.539 83.5518 140.909 83.5518C141.094 83.5518 141.28 83.5518 141.465 83.5518C141.65 83.5518 141.835 83.4592 141.928 83.4592C142.113 83.3666 142.205 83.3666 142.298 83.274C142.391 83.1814 142.576 83.0888 142.668 82.9962C143.039 82.8111 143.039 82.8111 143.131 82.8111Z" fill="#D9D9D9"/>
<path d="M147.946 84.2914H146.928V76.9766H147.946V84.2914Z" fill="#D9D9D9"/>
<path d="M157.854 84.2914H157.113C157.021 84.2914 156.928 84.2914 156.928 84.1988C156.836 84.1988 156.836 84.1062 156.836 84.0136L156.187 82.2543H152.854L152.206 84.0136C152.206 84.1062 152.113 84.1062 152.113 84.1988C152.021 84.2914 152.021 84.2914 151.928 84.2914H151.188L154.15 76.9766H155.169L157.854 84.2914ZM153.039 81.6062H155.817L154.706 78.6432C154.613 78.458 154.521 78.2729 154.521 77.9951C154.521 78.1803 154.428 78.2729 154.428 78.3655C154.428 78.458 154.336 78.5506 154.336 78.6432L153.039 81.6062Z" fill="#D9D9D9"/>
<path d="M161.558 83.458H164.706V84.2914H160.539V76.9766H161.558V83.458Z" fill="#D9D9D9"/>
<path d="M168.872 84.2914H167.854V76.9766H168.872V84.2914Z" fill="#D9D9D9"/>
<path d="M176.371 78.1791C176.371 78.2717 176.278 78.2717 176.278 78.2717H176.185C176.093 78.2717 176.093 78.2717 176 78.1791C175.908 78.0865 175.815 78.0865 175.722 77.9939C175.63 77.9013 175.445 77.9013 175.259 77.8087C175.074 77.7161 174.889 77.7161 174.704 77.7161C174.519 77.7161 174.241 77.7161 174.148 77.8087C173.963 77.9013 173.871 77.9939 173.685 78.0865C173.593 78.1791 173.5 78.2717 173.408 78.4569C173.315 78.5495 173.315 78.7347 173.315 78.9199C173.315 79.105 173.408 79.2902 173.5 79.4754C173.593 79.568 173.778 79.7532 173.871 79.8458C173.963 79.9384 174.241 80.031 174.426 80.1236C174.611 80.2161 174.889 80.3087 175.074 80.3087C175.259 80.4013 175.537 80.4939 175.722 80.5865C175.908 80.6791 176.093 80.7717 176.278 80.9569C176.463 81.1421 176.556 81.2347 176.648 81.5124C176.741 81.6976 176.834 81.9754 176.834 82.2532C176.834 82.531 176.741 82.9013 176.648 83.1791C176.556 83.4569 176.371 83.7347 176.185 83.9199C176 84.105 175.722 84.2902 175.445 84.3828C175.167 84.4754 174.797 84.568 174.426 84.568C173.963 84.568 173.5 84.4754 173.13 84.2902C172.759 84.105 172.389 83.9199 172.111 83.5495L172.389 83.0865L172.482 82.9939H172.574C172.667 82.9939 172.759 82.9939 172.852 83.0865C172.945 83.1791 173.037 83.2717 173.222 83.3643C173.315 83.4569 173.5 83.5495 173.685 83.6421C173.871 83.7347 174.148 83.7347 174.426 83.7347C174.704 83.7347 174.889 83.7347 175.074 83.6421C175.259 83.5495 175.445 83.4569 175.537 83.3643C175.63 83.2717 175.722 83.0865 175.815 82.9013C175.908 82.7161 175.908 82.531 175.908 82.3458C175.908 82.1606 175.815 81.9754 175.722 81.7902C175.63 81.605 175.445 81.5124 175.352 81.4199C175.167 81.3273 174.982 81.2347 174.797 81.1421C174.611 81.0495 174.334 81.0495 174.148 80.9569C173.963 80.8643 173.685 80.7717 173.5 80.6791C173.315 80.5865 173.13 80.4939 172.945 80.3087C172.759 80.1236 172.667 79.9384 172.574 79.7532C172.482 79.568 172.389 79.2902 172.389 78.9199C172.389 78.6421 172.482 78.3643 172.574 78.1791C172.667 77.9013 172.852 77.7161 173.037 77.531C173.222 77.3458 173.5 77.1606 173.778 77.068C174.056 76.9754 174.426 76.8828 174.704 76.8828C175.074 76.8828 175.445 76.9754 175.815 77.068C176.185 77.1606 176.463 77.3458 176.741 77.6236L176.371 78.1791Z" fill="#D9D9D9"/>
<path d="M184.89 76.9766V77.8099H182.483V84.2914H181.464V77.8099H179.057V76.9766H184.89Z" fill="#D9D9D9"/>
<path d="M184.982 87.1484H47.0195V87.5188H184.982V87.1484Z" fill="#EEEEEE"/>
<path d="M177.019 34.0038C177.019 31.7815 178.778 30.0223 181 30.0223C183.222 30.0223 184.982 31.7815 184.982 34.0038C184.982 36.226 183.222 37.9852 181 37.9852C178.778 37.9852 177.019 36.1334 177.019 34.0038ZM167.019 29.9297C164.796 29.9297 163.037 31.6889 163.037 33.9112C163.037 36.1334 164.796 37.8927 167.019 37.8927C169.241 37.8927 171 36.1334 171 33.9112C171 31.7815 169.148 29.9297 167.019 29.9297ZM181 43.9112C178.778 43.9112 177.019 45.6704 177.019 47.8926C177.019 50.1149 178.778 51.8741 181 51.8741C183.222 51.8741 184.982 50.1149 184.982 47.8926C184.982 45.763 183.222 43.9112 181 43.9112Z" fill="#C5C3C3"/>
<path d="M58.8706 62.2488C58.8706 63.5451 58.6854 64.7488 58.4076 65.86C58.0373 66.9711 57.5743 67.897 56.9261 68.6377C56.278 69.3785 55.4447 70.0266 54.4261 70.397C53.315 70.86 52.1113 71.0451 50.815 71.0451C50.1669 71.0451 49.6113 71.0451 48.9632 70.9525C48.315 70.86 47.7595 70.7674 47.1113 70.5822L47.3891 67.3414C47.3891 67.0637 47.5743 66.7859 47.7595 66.6933C47.9447 66.5081 48.2224 66.4155 48.5928 66.4155C48.778 66.4155 48.9632 66.4155 49.241 66.5081C49.5187 66.6007 49.7965 66.6007 50.2595 66.6007C50.815 66.6007 51.278 66.5081 51.6484 66.4155C52.0187 66.2303 52.3891 66.0451 52.6669 65.6748C52.9447 65.3044 53.1298 64.8414 53.2224 64.3785C53.315 63.8229 53.4076 63.1748 53.4076 62.3414V47.1562H58.8706V62.2488V62.2488Z" fill="#EEEEEE"/>
<path d="M96.0924 47.1562V70.86H91.2776V57.1562C91.2776 56.8785 91.2776 56.5081 91.2776 56.1377C91.2776 55.7674 91.2776 55.397 91.3702 55.0266L85.0739 67.2488C84.8887 67.6192 84.611 67.897 84.2406 68.0822C83.8702 68.2674 83.4999 68.36 83.1295 68.36H82.3887C81.9258 68.36 81.5554 68.2674 81.2776 68.0822C80.9073 67.897 80.7221 67.6192 80.4443 67.2488L74.148 55.0266C74.148 55.397 74.2406 55.7674 74.2406 56.1377C74.2406 56.5081 74.2406 56.8785 74.2406 57.1562V70.7674H69.4258V47.1562H73.5924C73.8702 47.1562 74.0554 47.1562 74.2406 47.1562C74.4258 47.1562 74.611 47.1562 74.7036 47.2488C74.8887 47.3414 74.9813 47.3414 75.0739 47.5266C75.1665 47.6192 75.2591 47.8044 75.4443 47.9896L81.5554 60.0266C81.7406 60.397 82.0184 60.86 82.2036 61.3229C82.3887 61.7859 82.5739 62.2488 82.7591 62.7118C82.9443 62.2488 83.1295 61.7859 83.3147 61.3229C83.4999 60.86 83.685 60.397 83.9628 60.0266L90.0739 47.9896C90.1665 47.8044 90.2591 47.6192 90.4443 47.5266C90.5369 47.434 90.7221 47.3414 90.8147 47.2488C90.9999 47.1562 91.0924 47.1562 91.2776 47.1562C91.4628 47.1562 91.648 47.1562 91.9258 47.1562H96.0924Z" fill="#EEEEEE"/>
<path d="M115.352 47.1562C117.019 47.1562 118.408 47.3414 119.519 47.6192C120.63 47.897 121.648 48.36 122.297 48.9155C123.037 49.4711 123.593 50.1192 123.871 50.9525C124.241 51.7859 124.334 52.6192 124.334 53.6377C124.334 54.1933 124.241 54.6563 124.148 55.2118C123.963 55.6748 123.778 56.1377 123.408 56.6007C123.037 57.0637 122.667 57.434 122.111 57.8044C121.556 58.1748 121 58.4525 120.26 58.7303C121.834 59.1007 122.945 59.7488 123.685 60.5822C124.426 61.4155 124.797 62.5266 124.797 63.8229C124.797 64.8414 124.611 65.7674 124.241 66.6007C123.871 67.434 123.315 68.2674 122.482 68.9155C121.741 69.5637 120.815 70.0266 119.704 70.397C118.593 70.7674 117.297 70.9525 115.908 70.9525H106.648V47.1562H115.352ZM112.111 51.2303V57.0637H114.982C115.63 57.0637 116.093 57.0637 116.648 56.9711C117.111 56.8785 117.574 56.6933 117.852 56.5081C118.223 56.3229 118.408 55.9525 118.593 55.5822C118.778 55.2118 118.871 54.7488 118.871 54.1933C118.871 53.6377 118.778 53.1748 118.685 52.8044C118.5 52.434 118.315 52.1562 118.037 51.8785C117.76 51.6933 117.389 51.5081 116.926 51.4155C116.463 51.3229 115.908 51.2303 115.352 51.2303H112.111V51.2303ZM116 66.6933C116.741 66.6933 117.297 66.6007 117.76 66.4155C118.223 66.2303 118.593 65.9525 118.871 65.6748C119.148 65.397 119.334 65.0266 119.426 64.6562C119.519 64.2859 119.611 63.9155 119.611 63.5451C119.611 63.0822 119.519 62.7118 119.426 62.3414C119.334 61.9711 119.148 61.6933 118.871 61.5081C118.593 61.2303 118.223 61.0451 117.76 60.9525C117.297 60.86 116.741 60.7674 116 60.7674H112.204V66.6933H116Z" fill="#EEEEEE"/>
<path d="M150.352 70.86H146.093C145.63 70.86 145.259 70.7674 144.981 70.4896C144.704 70.3044 144.426 70.0266 144.333 69.6563L142.852 65.4896H133.87L132.481 69.6563C132.389 69.934 132.111 70.2118 131.833 70.4896C131.555 70.7674 131.185 70.86 130.722 70.86H126.463L135.63 47.1562H141.278L150.352 70.86ZM141.555 61.7859L139.333 55.3044C139.148 54.934 138.963 54.3785 138.778 53.8229C138.593 53.2674 138.407 52.6192 138.222 51.9711C138.037 52.6192 137.852 53.2674 137.667 53.8229C137.481 54.3785 137.296 54.8414 137.111 55.3044L134.889 61.7859H141.555Z" fill="#EEEEEE"/>
<path d="M175.353 70.8576H169.89C169.519 70.8576 169.242 70.765 169.056 70.5799C168.871 70.3947 168.686 70.2095 168.501 69.9317L163.779 61.5984C163.686 61.8762 163.594 62.0613 163.501 62.2465L159.056 69.9317C158.871 70.1169 158.686 70.3947 158.501 70.4873C158.316 70.6725 158.038 70.765 157.668 70.765H152.482L160.075 58.5428L152.76 47.0613H158.223C158.594 47.0613 158.871 47.1539 159.056 47.1539C159.242 47.2465 159.334 47.4317 159.519 47.6169L164.242 55.5799C164.334 55.3947 164.334 55.3021 164.427 55.2095C164.519 55.1169 164.612 54.9317 164.705 54.8391L168.871 47.7095C169.056 47.4317 169.149 47.3391 169.334 47.1539C169.519 47.0613 169.705 46.9688 169.982 46.9688H175.26L167.853 58.265L175.353 70.8576Z" fill="#EEEEEE"/>
<path d="M183.5 53.9141V70.7659H178.5V53.9141H183.5Z" fill="#EEEEEE"/>
</g>
<defs>
<clipPath id="clip0_410_554">
<rect width="231" height="127" fill="white"/>
</clipPath>
</defs>
</svg>
