<svg width="231" height="127" viewBox="0 0 231 127" fill="none" xmlns="http://www.w3.org/2000/svg">
<g clip-path="url(#clip0_122_2511)">
<path d="M211.655 63.5908C212.185 62.5813 212.674 61.649 213.165 60.7178C213.819 59.4792 214.496 58.2531 215.299 57.1026C215.543 56.7536 215.825 56.4403 216.159 56.1789C217.422 55.1901 219.088 55.7948 219.418 57.3583C219.498 57.7349 219.53 58.1155 219.529 58.5013C219.525 60.5157 219.527 62.5306 219.527 64.545C219.527 64.7178 219.526 64.8905 219.533 65.0627C219.541 65.236 219.544 65.4203 219.748 65.4923C219.935 65.5585 220.094 65.4756 220.217 65.3495C220.526 65.0345 220.823 64.7085 221.124 64.3861C221.372 64.1194 221.606 63.8378 221.871 63.5885C222.168 63.308 222.477 63.2908 222.754 63.4952C223.002 63.6783 223.086 63.972 222.896 64.3227C222.219 65.5706 221.554 66.834 220.568 67.874C219.849 68.6325 218.96 68.9561 217.901 68.705C217.061 68.5058 216.518 67.9955 216.236 67.1934C216.082 66.7546 216.035 66.2985 216.036 65.8338C216.04 63.915 216.042 61.9962 216.032 60.078C216.031 59.8241 216.162 59.4262 215.877 59.353C215.563 59.273 215.468 59.6893 215.335 59.9226C214.021 62.2226 212.846 64.5945 211.681 66.9722C211.521 67.2993 211.367 67.6299 211.151 67.9264C210.818 68.3843 210.366 68.6538 209.817 68.758C209.028 68.9077 208.399 68.4971 208.22 67.718C208.13 67.3241 208.108 66.9221 208.108 66.5173C208.112 64.234 208.11 61.9507 208.109 59.668C208.109 59.4953 208.115 59.3219 208.103 59.1503C208.065 58.5808 207.782 58.404 207.256 58.6367C207.065 58.7213 206.887 58.8428 206.719 58.9684C206.165 59.3801 205.627 59.8178 205.014 60.1408C204.732 60.2894 204.663 60.5007 204.669 60.799C204.688 61.7567 204.756 62.7172 204.559 63.6674C204.17 65.5372 203.293 67.0851 201.58 68.0399C199.57 69.1599 197.019 69.0569 195.267 67.5596C194.629 67.0149 194.129 66.352 193.809 65.585C192.851 63.2844 192.812 61.0006 194.038 58.7662C194.064 58.7173 194.077 58.6609 194.109 58.5722C193.852 58.4967 193.665 58.6447 193.478 58.7415C192.486 59.2592 191.602 59.9347 190.758 60.6631C190.468 60.9136 190.194 61.1837 189.899 61.4296C189.645 61.6421 189.588 61.8667 189.702 62.1886C190.005 63.042 190.217 63.9173 190.17 64.8352C190.11 65.9904 189.723 67.0033 188.887 67.8285C188.407 68.3013 187.844 68.5973 187.184 68.7292C185.898 68.9855 184.746 68.1441 184.599 66.8358C184.511 66.0463 184.682 65.312 185.034 64.6095C185.337 64.0054 185.725 63.456 186.158 62.9424C186.363 62.6988 186.394 62.4921 186.237 62.2191C185.979 61.7705 185.749 61.3058 185.496 60.8543C185.396 60.6752 185.263 60.6689 185.148 60.8532C185.046 61.0155 184.949 61.1814 184.849 61.3449C183.82 63.0322 182.778 64.7108 181.63 66.3215C181.308 66.7741 180.968 67.2158 180.616 67.6466C180.246 68.0992 179.794 68.4551 179.237 68.6532C178.062 69.0718 176.997 68.4522 176.796 67.221C176.725 66.7868 176.684 66.3474 176.685 65.9035C176.692 63.9271 176.69 61.9513 176.686 59.975C176.686 59.7481 176.727 59.5143 176.615 59.2684C176.363 59.2799 176.28 59.4947 176.182 59.66C175.86 60.2047 175.548 60.7558 175.246 61.3121C174.166 63.3017 173.123 65.3109 172.126 67.3431C172.025 67.5493 171.917 67.7548 171.784 67.9414C171.432 68.4384 170.942 68.7171 170.336 68.7776C169.662 68.8444 169.137 68.4885 168.932 67.8447C168.838 67.5475 168.825 67.2423 168.825 66.9342C168.824 64.7085 168.822 62.4828 168.82 60.2577C168.82 60.066 168.811 59.8742 168.797 59.6836C168.79 59.5857 168.748 59.4901 168.653 59.4509C168.524 59.3974 168.427 59.4832 168.359 59.5736C168.243 59.7256 168.139 59.8869 168.04 60.051C166.525 62.5888 164.936 65.0788 163.239 67.4992C162.986 67.8602 162.725 68.2144 162.343 68.4603C161.264 69.1553 160.005 68.6975 159.629 67.4715C159.514 67.0989 159.5 66.7177 159.5 66.333C159.501 64.2415 159.501 62.1506 159.499 60.059C159.499 59.8679 159.502 59.6732 159.467 59.4866C159.43 59.2897 159.27 59.2505 159.133 59.4014C159.018 59.5281 158.922 59.6755 158.838 59.8252C157.512 62.2041 156.143 64.56 154.979 67.0258C154.79 67.4249 154.575 67.8124 154.295 68.1562C153.855 68.6975 153.199 68.906 152.6 68.709C152.08 68.538 151.759 68.1931 151.667 67.646C151.609 67.3045 151.585 66.9619 151.585 66.6152C151.589 64.5433 151.587 62.4707 151.586 60.3988C151.586 60.2456 151.586 60.0919 151.579 59.9387C151.571 59.7308 151.459 59.6531 151.276 59.7498C150.436 60.1944 149.53 60.438 148.61 60.6424C148.337 60.7029 148.313 60.886 148.335 61.1227C148.425 62.0849 148.373 63.042 148.14 63.9801C147.72 65.6691 146.838 67.0534 145.327 67.9616C143.325 69.164 140.747 69.0787 138.965 67.5953C137.969 66.7661 137.393 65.6702 137.054 64.4465C136.726 63.2637 136.727 62.0602 136.923 60.852C136.959 60.6309 137.081 60.4149 136.991 60.1477C136.707 60.1132 136.553 60.3418 136.379 60.4863C135.549 61.171 134.812 61.9582 134.007 62.6665C133.331 63.2608 133.037 63.8839 133.163 64.8047C133.381 66.4033 133.341 68.0226 133.292 69.6321C133.183 73.1921 132.36 76.5776 130.684 79.7368C130.195 80.6581 129.587 81.4949 128.803 82.1917C128.092 82.8234 127.286 83.2334 126.304 83.1913C125.652 83.1631 125.124 82.8861 124.737 82.3569C124.317 81.7828 124.141 81.1188 124.04 80.4289C123.755 78.4756 123.988 76.5655 124.523 74.6819C125.156 72.4521 126.151 70.3808 127.314 68.3848C127.594 67.9046 127.598 67.9 127.214 67.5205C126.544 66.86 125.899 66.1753 125.318 65.4353C125.15 65.2211 124.951 65.118 124.692 65.0777C123.619 64.9101 122.551 64.9533 121.487 65.1548C121.13 65.2228 120.777 65.3184 120.42 65.3881C120.099 65.4508 119.924 65.5977 119.901 65.9582C119.87 66.4344 119.783 66.9089 119.697 67.38C119.635 67.7203 119.518 68.0485 119.332 68.3445C119.186 68.5777 119.005 68.7822 118.692 68.7563C118.436 68.7355 118.243 68.5075 118.177 68.1401C118.086 67.6287 118.074 67.1105 118.056 66.5928C118.036 66.0411 117.981 65.9979 117.434 66.0981C115.715 66.4131 114.035 66.204 112.379 65.7123C111.823 65.5476 111.31 65.2832 110.853 64.9233C110.224 64.4281 109.888 63.7756 109.948 62.9712C110.016 62.0602 110.59 61.3956 111.545 61.1589C113.535 60.6643 115.385 61.0104 117.077 62.1753C117.235 62.2842 117.387 62.4022 117.544 62.5099C117.569 62.5266 117.615 62.5122 117.728 62.5122C117.566 61.8425 117.377 61.2119 117.012 60.6424C116.867 60.4161 116.703 60.2024 116.568 59.9704C116.379 59.6439 116.401 59.4895 116.697 59.2822C117.154 58.9615 117.645 58.6954 118.189 58.5526C118.607 58.4426 118.826 58.5365 119.07 58.9039C119.317 59.2753 119.459 59.694 119.578 60.1201C119.875 61.1797 119.972 62.2675 120.029 63.3605C120.035 63.475 120.025 63.5914 120.034 63.7054C120.06 64.067 120.1 64.1039 120.454 64.0434C120.87 63.9726 121.282 63.8793 121.698 63.8085C122.323 63.7014 122.955 63.6789 123.59 63.6893C123.948 63.695 123.989 63.6305 123.828 63.3386C122.485 60.8981 122.144 58.2555 122.341 55.5339C122.503 53.3059 123.312 51.2812 124.576 49.4436C126.027 47.3325 127.855 45.6481 130.202 44.5638C130.692 44.3375 131.201 44.1739 131.728 44.0599C131.975 44.0069 132.223 43.9862 132.472 44.0046C132.903 44.0369 133.058 44.1901 133.064 44.6168C133.068 44.8644 133.044 45.1161 133.002 45.3602C132.757 46.7578 132.451 48.1451 132.324 49.5611C132.183 51.1275 132.102 52.6915 132.203 54.2693C132.305 55.8581 132.437 57.4429 132.603 59.0254C132.685 59.8034 132.779 60.5802 132.87 61.3789C133.13 61.3904 133.23 61.2067 133.359 61.0812C134.919 59.5696 136.556 58.1518 138.392 56.9805C139.041 56.567 139.706 56.187 140.437 55.9336C140.82 55.8006 141.209 55.694 141.619 55.747C141.982 55.7936 142.085 55.9791 141.934 56.305C141.821 56.5503 141.645 56.7553 141.473 56.9626C140.23 58.4559 139.894 60.207 140.041 62.0849C140.109 62.9573 140.362 63.7779 140.873 64.5058C141.69 65.6725 142.991 66.1447 144.303 65.7411C145.122 65.4888 145.676 64.9302 146.071 64.1903C146.553 63.2867 146.557 62.3112 146.506 61.3271C146.494 61.1042 146.383 60.9741 146.153 60.9511C145.885 60.9251 145.619 60.89 145.352 60.8612C144.635 60.7846 143.965 60.5664 143.361 60.1667C142.449 59.5621 141.987 58.4702 142.202 57.4786C142.474 56.2181 143.659 55.5679 145.019 55.9468C146.03 56.2284 146.728 56.9425 147.26 57.8224C147.428 58.1005 147.558 58.4017 147.708 58.6914C147.903 59.0686 147.941 59.0933 148.329 59.0075C149.25 58.8042 150.135 58.5019 150.982 58.0764C151.411 57.8604 151.618 57.5863 151.596 57.0916C151.563 56.3833 151.581 55.6721 151.589 54.9621C151.61 53.1389 151.652 51.3169 152.124 49.5387C152.445 48.3265 152.872 47.1563 153.62 46.1336C154.246 45.2779 154.989 44.5638 156.101 44.4106C156.989 44.288 157.731 44.5655 158.256 45.3153C158.628 45.8468 158.817 46.448 158.853 47.0936C158.971 49.1609 158.607 51.1453 157.786 53.0428C157.142 54.5308 156.306 55.9042 155.238 57.1296C155.055 57.3393 154.924 57.5512 154.925 57.8443C154.934 59.6859 154.934 61.5281 154.938 63.3697C154.938 63.4065 154.956 63.4428 154.979 63.5263C155.225 63.3956 155.297 63.1526 155.405 62.9499C156.189 61.4757 156.998 60.0164 157.876 58.5964C158.28 57.9445 158.648 57.2673 159.16 56.6891C159.663 56.1225 160.252 55.7441 161.046 55.7292C161.82 55.7148 162.315 56.0971 162.623 56.7617C162.845 57.2396 162.893 57.7556 162.893 58.2796C162.889 60.294 162.89 62.3089 162.895 64.3233C162.895 64.5277 162.843 64.7425 162.973 64.9683C163.218 64.8963 163.311 64.6746 163.426 64.4949C164.339 63.0754 165.252 61.6548 166.15 60.2255C166.742 59.2834 167.307 58.3251 167.889 57.3761C168.029 57.1475 168.171 56.9166 168.337 56.707C168.951 55.9342 169.765 55.6284 170.731 55.7539C171.343 55.8334 171.72 56.2394 171.944 56.783C172.144 57.2661 172.215 57.7786 172.214 58.3032C172.209 59.8379 172.211 61.3732 172.215 62.9078C172.215 63.1111 172.179 63.3219 172.272 63.5585C172.475 63.4313 172.526 63.2418 172.612 63.0823C173.629 61.1889 174.673 59.3122 175.827 57.4976C176.074 57.1089 176.324 56.7231 176.662 56.4018C177.229 55.8633 177.906 55.6572 178.671 55.7499C179.254 55.8201 179.653 56.1582 179.893 56.6845C180.104 57.1463 180.176 57.6353 180.174 58.1414C180.171 60.233 180.17 62.3239 180.18 64.4154C180.181 64.674 180.047 65.0748 180.278 65.1623C180.585 65.2781 180.716 64.8698 180.869 64.651C182.535 62.275 184.021 59.7913 185.292 57.1815C185.46 56.8371 185.589 56.4743 185.739 56.1213C185.799 55.9802 185.851 55.8322 185.933 55.7055C186.165 55.3485 186.46 55.3525 186.705 55.7078C186.748 55.7706 186.786 55.8397 186.811 55.9111C187.297 57.2943 188.112 58.518 188.718 59.8425C188.894 60.2255 188.983 60.2462 189.305 59.9635C190.027 59.33 190.789 58.7478 191.575 58.1961C193.191 57.0617 194.908 56.1495 196.879 55.7942C197.222 55.7326 197.567 55.7171 197.911 55.7412C198.363 55.7729 198.48 55.9992 198.258 56.3977C198.174 56.5463 198.059 56.6805 197.944 56.8077C197.004 57.8431 196.525 59.0807 196.402 60.4524C196.285 61.7665 196.354 63.0593 197.049 64.2461C197.833 65.5844 199.225 66.1822 200.623 65.7416C201.659 65.4151 202.275 64.659 202.634 63.6749C202.922 62.8865 202.937 62.0596 202.91 61.2309C202.901 60.9228 202.721 60.8445 202.455 60.8503C201.975 60.8606 201.496 60.8422 201.024 60.738C200.172 60.5503 199.439 60.1846 198.942 59.4239C198.54 58.8083 198.45 58.138 198.568 57.4372C198.716 56.5572 199.429 55.9537 200.382 55.8581C200.996 55.7965 201.563 55.933 202.088 56.2549C202.636 56.5912 203.085 57.0329 203.447 57.561C203.588 57.766 203.709 57.9854 203.826 58.2054C204.134 58.7841 204.13 58.7852 204.72 58.4426C205.335 58.0856 205.914 57.6761 206.468 57.2304C206.887 56.8941 207.293 56.5423 207.751 56.2566C208.355 55.88 209.003 55.694 209.719 55.7332C210.561 55.7793 211.077 56.1507 211.341 56.9563C211.535 57.546 211.555 58.1639 211.56 58.7772C211.571 60.1587 211.562 61.5402 211.566 62.9216C211.566 63.1094 211.526 63.3034 211.655 63.5856L211.655 63.5908ZM125.457 56.8066C125.442 57.846 125.54 58.8751 125.699 59.899C126.045 62.1206 126.889 64.1327 128.25 65.9253C128.308 66.0013 128.368 66.0768 128.432 66.1482C128.538 66.2662 128.663 66.3025 128.774 66.1678C129.116 65.7543 129.448 65.3328 129.725 64.8721C129.809 64.7333 129.779 64.5755 129.754 64.4223C129.632 63.6657 129.513 62.9084 129.39 62.1523C129.17 60.8094 128.949 59.4642 128.891 58.1046C128.747 54.6696 129.308 51.3451 130.558 48.1399C130.85 47.3901 131.155 46.645 131.431 45.8889C131.571 45.5025 131.454 45.3988 131.048 45.5042C130.614 45.6171 130.242 45.852 129.883 46.1134C128.92 46.816 128.202 47.7368 127.595 48.7434C126.099 51.2213 125.457 53.9307 125.457 56.8072V56.8066ZM130.149 67.2176C129.946 67.2412 129.885 67.3995 129.8 67.5164C127.712 70.3681 126.259 73.4783 125.962 77.0486C125.896 77.8497 125.843 78.6587 126.113 79.4425C126.534 80.6679 127.642 80.9524 128.592 80.0811C129.084 79.6302 129.408 79.0699 129.666 78.4647C130.35 76.854 130.625 75.1552 130.717 73.4236C130.814 71.5952 130.582 69.7876 130.307 67.9858C130.267 67.7301 130.313 67.4473 130.15 67.2176H130.149ZM154.928 55.0704C155.053 54.9581 155.09 54.9385 155.108 54.9074C156.553 52.4295 157.141 49.7563 156.922 46.9018C156.908 46.7112 156.88 46.5177 156.826 46.3351C156.693 45.8819 156.325 45.791 156.008 46.1319C155.905 46.2424 155.828 46.3795 155.754 46.5131C155.521 46.9381 155.396 47.4005 155.298 47.8715C154.993 49.344 154.921 50.8361 154.926 52.3345C154.929 53.2138 154.927 54.0931 154.927 55.0704H154.928ZM116.006 64.6947C116.293 64.6947 116.582 64.7206 116.865 64.6878C117.172 64.6521 117.225 64.5064 117.017 64.268C116.614 63.8062 116.18 63.3777 115.667 63.0316C115.136 62.6735 114.563 62.5226 113.929 62.5623C113.627 62.5813 113.344 62.6435 113.213 62.9464C113.067 63.2856 113.108 63.6242 113.338 63.9213C113.544 64.1874 113.834 64.3406 114.144 64.45C114.746 64.6625 115.367 64.7552 116.006 64.6953L116.006 64.6947ZM187.073 64.3981C186.646 64.9469 186.372 65.4963 186.269 66.1234C186.235 66.3302 186.244 66.5438 186.338 66.739C186.431 66.9331 186.55 67.1139 186.797 67.1087C187.014 67.1041 187.132 66.9475 187.218 66.7701C187.26 66.6849 187.296 66.5945 187.314 66.5018C187.454 65.7969 187.373 65.118 187.073 64.3976V64.3981ZM200.947 57.7556C200.568 57.7429 200.384 57.9445 200.426 58.3234C200.458 58.6108 200.624 58.8077 200.854 58.9655C201.163 59.178 201.524 59.2258 201.879 59.2868C202.028 59.3127 202.203 59.3266 202.306 59.1958C202.443 59.0231 202.29 58.8716 202.209 58.7317C202.045 58.4507 201.847 58.1961 201.569 58.0142C201.377 57.8886 201.189 57.7568 200.947 57.755V57.7556ZM145.516 59.1987C145.592 59.1987 145.669 59.2033 145.744 59.1976C145.955 59.1814 146.01 59.0645 145.922 58.8854C145.698 58.4282 145.377 58.0539 144.913 57.8299C144.592 57.675 144.274 57.7366 144.133 57.9456C143.991 58.1564 144.043 58.4852 144.258 58.738C144.372 58.8722 144.515 58.9689 144.679 59.026C144.949 59.1204 145.225 59.1993 145.516 59.1993V59.1987Z" fill="#EEEEEE"/>
<path d="M40.698 63.4992C40.9641 63.3892 41.0211 63.1502 41.1224 62.9596C41.996 61.3161 42.9122 59.6968 43.8975 58.1172C44.2827 57.4993 44.649 56.8658 45.2041 56.3735C45.6677 55.9623 46.198 55.7349 46.8252 55.74C47.5352 55.7458 48.0287 56.0786 48.3166 56.7179C48.5827 57.3075 48.6374 57.9398 48.6397 58.575C48.6455 60.4938 48.6397 62.412 48.6449 64.3307C48.6449 64.5317 48.5948 64.7465 48.7249 64.9607C48.9783 64.853 49.0589 64.6244 49.1793 64.443C50.7508 62.0774 52.2429 59.6622 53.7032 57.2269C53.8927 56.9108 54.1179 56.628 54.3856 56.3781C54.9747 55.827 55.6836 55.645 56.4628 55.7665C57.1722 55.8765 57.55 56.3775 57.7533 57.0167C57.9226 57.55 57.9623 58.108 57.964 58.666C57.9686 60.0475 57.964 61.429 57.9675 62.8099C57.9675 63.0137 57.9347 63.2251 58.0331 63.4566C58.2698 63.3408 58.3095 63.1191 58.4034 62.9469C59.452 61.0276 60.5099 59.114 61.7019 57.2776C61.9225 56.9373 62.1759 56.628 62.4695 56.3487C62.9095 55.9301 63.4312 55.7372 64.0359 55.74C64.872 55.7441 65.4116 56.1086 65.6967 56.9021C65.8729 57.3939 65.9276 57.9087 65.927 58.431C65.9247 60.503 65.9247 62.5749 65.9293 64.6469C65.9293 64.8513 65.8769 65.0661 66.0048 65.2884C66.2322 65.2291 66.3221 65.0258 66.4389 64.8668C67.4646 63.4744 68.3617 61.9996 69.2342 60.5087C69.806 59.5321 70.36 58.5451 70.8523 57.5246C71.0608 57.0922 71.2733 56.6631 71.4242 56.2059C71.4662 56.0786 71.5198 55.9548 71.5796 55.8351C71.6764 55.641 71.7979 55.4567 72.0409 55.4521C72.2914 55.4475 72.4169 55.6352 72.4901 55.8374C72.9686 57.1607 73.7161 58.3533 74.3161 59.6173C74.3737 59.7388 74.4342 59.8586 74.4923 59.9795C74.5897 60.1828 74.7187 60.2202 74.8972 60.0676C75.1304 59.8684 75.3665 59.6714 75.6055 59.4797C77.1361 58.2508 78.7169 57.1008 80.5683 56.3896C81.4649 56.0452 82.3759 55.74 83.3543 55.7423C83.5967 55.7429 83.8938 55.6744 84.0309 55.9416C84.1766 56.2261 83.9583 56.4489 83.7982 56.6603C83.671 56.8278 83.5241 56.981 83.3894 57.1428C82.0534 58.7432 81.5034 62.0975 82.7778 64.2703C83.5431 65.5757 84.977 66.1815 86.3643 65.7485C87.1158 65.5141 87.6513 65.0189 88.0475 64.3468C88.624 63.3702 88.636 62.3014 88.5906 61.2199C88.5796 60.9527 88.4172 60.856 88.1707 60.8583C87.6709 60.8629 87.1728 60.8502 86.6827 60.7374C85.6082 60.4903 84.7697 59.9398 84.3845 58.8601C84.0816 58.0107 84.115 57.1889 84.7738 56.4985C85.4274 55.8126 86.2514 55.7251 87.1146 55.9531C87.7803 56.1287 88.3182 56.5393 88.7662 57.0559C89.0939 57.4336 89.3691 57.8483 89.5937 58.298C89.8298 58.7702 89.854 58.7766 90.3308 58.514C91.0898 58.0959 91.7728 57.5667 92.4465 57.0259C92.8058 56.7374 93.1652 56.4501 93.5602 56.2111C94.1528 55.8523 94.7897 55.6986 95.4842 55.7395C96.2391 55.7838 96.7413 56.1604 97.0217 56.8445C97.2066 57.2949 97.2526 57.7717 97.2521 58.2554C97.2498 59.8286 97.2498 61.4019 97.2544 62.9751C97.2544 63.1588 97.206 63.3529 97.3292 63.5568C97.5141 63.4393 97.5602 63.2464 97.6425 63.0863C98.5276 61.3627 99.4133 59.6392 100.435 57.9911C100.688 57.5839 100.947 57.1774 101.238 56.7979C101.77 56.1057 102.457 55.7072 103.363 55.7377C104.088 55.7625 104.595 56.1034 104.921 56.7369C105.175 57.2298 105.213 57.763 105.212 58.3049C105.209 60.4155 105.21 62.526 105.212 64.6359C105.212 64.8271 105.206 65.0229 105.242 65.2089C105.297 65.4934 105.487 65.5826 105.756 65.4715C105.975 65.3805 106.128 65.2037 106.28 65.031C106.623 64.6428 106.962 64.2513 107.301 63.8597C107.452 63.6846 107.611 63.5176 107.825 63.4191C108.082 63.3022 108.317 63.3598 108.52 63.536C108.712 63.7019 108.773 63.9173 108.686 64.1608C108.64 64.2864 108.588 64.4119 108.522 64.5277C107.984 65.4583 107.453 66.394 106.81 67.2567C106.311 67.9264 105.737 68.504 104.877 68.7147C103.373 69.0833 102.024 68.1792 101.817 66.6463C101.753 66.1706 101.718 65.6944 101.72 65.2129C101.727 63.4479 101.725 61.6829 101.718 59.9179C101.717 59.7204 101.817 59.4221 101.578 59.3541C101.343 59.2873 101.258 59.5868 101.158 59.7572C100.115 61.5274 99.195 63.3621 98.2765 65.198C97.8988 65.9529 97.5331 66.7136 97.1519 67.4669C96.8254 68.1124 96.3491 68.5829 95.612 68.7395C94.7309 68.9267 94.0906 68.523 93.9184 67.6356C93.8643 67.3563 93.8625 67.0632 93.862 66.777C93.8579 64.4361 93.8602 62.0958 93.8585 59.7549C93.8585 59.5252 93.8643 59.2919 93.828 59.0662C93.7485 58.5767 93.4502 58.4172 92.997 58.628C92.773 58.7322 92.5674 58.8808 92.367 59.0282C91.8113 59.4376 91.2798 59.8845 90.6481 60.1776C90.3314 60.3245 90.3527 60.5698 90.3844 60.8543C90.5508 62.3676 90.4155 63.8499 89.7826 65.2475C88.8013 67.415 87.1002 68.6284 84.7288 68.7741C82.4421 68.9146 80.5158 67.8199 79.5386 65.5913C78.5372 63.3074 78.5337 61.0126 79.7557 58.7783C79.7914 58.7132 79.815 58.6412 79.8559 58.5456C79.6699 58.4903 79.5444 58.5859 79.4148 58.6441C78.479 59.0679 77.6682 59.6818 76.8822 60.3285C76.4382 60.6936 76.0282 61.1001 75.5905 61.4733C75.351 61.6777 75.3037 61.8943 75.4137 62.1856C75.6867 62.9078 75.8589 63.6575 75.8784 64.4298C75.917 65.9564 75.4327 67.2659 74.1624 68.1907C73.5428 68.6416 72.8379 68.8996 72.0513 68.7378C71.0297 68.5276 70.3398 67.6903 70.2753 66.6077C70.2327 65.8971 70.4291 65.2389 70.7504 64.6163C71.051 64.0353 71.4115 63.4894 71.8405 62.9965C72.0778 62.7235 72.1037 62.4724 71.9257 62.1643C71.643 61.6743 71.4651 61.1197 71.0504 60.6947C70.8103 60.8358 70.7331 61.0633 70.6168 61.2539C69.4789 63.122 68.3249 64.9791 67.0436 66.7545C66.6946 67.2382 66.3088 67.688 65.8758 68.0997C65.5009 68.4556 65.0603 68.6675 64.5565 68.7562C63.7767 68.8938 63.0431 68.5195 62.7005 67.8066C62.4972 67.3828 62.435 66.9313 62.4356 66.4637C62.4396 64.2956 62.4396 62.1275 62.4338 59.9599C62.4333 59.7215 62.4983 59.4636 62.3135 59.2298C62.0434 59.3386 61.9449 59.5799 61.8275 59.7866C61.3253 60.6706 60.8243 61.5557 60.3475 62.4528C59.5004 64.0451 58.6637 65.642 57.8846 67.2688C57.7009 67.6529 57.4814 68.0076 57.1636 68.299C56.8532 68.5834 56.4858 68.7343 56.0769 68.7775C55.3755 68.8512 54.8348 68.485 54.635 67.8095C54.525 67.4381 54.5048 67.0563 54.5048 66.6704C54.5077 64.5219 54.5066 62.3728 54.5054 60.2243C54.5054 60.0325 54.4985 59.8407 54.4881 59.6496C54.4829 59.5511 54.449 59.4549 54.3419 59.4273C54.2359 59.4002 54.1553 59.4676 54.0977 59.5448C53.9946 59.6824 53.8938 59.824 53.8069 59.972C52.2999 62.5375 50.6558 65.0154 48.9841 67.4749C48.7779 67.7784 48.5372 68.0491 48.2729 68.3024C47.4932 69.0493 45.8249 69.0453 45.3659 67.5118C45.2277 67.0494 45.1891 66.5714 45.1891 66.0894C45.1897 64.0555 45.192 62.0221 45.1851 59.9882C45.1845 59.7699 45.2934 59.4365 45.0578 59.3611C44.7751 59.2701 44.6737 59.6139 44.5591 59.8166C43.2819 62.0693 42.0196 64.3301 40.861 66.648C40.6721 67.0252 40.4884 67.4058 40.2811 67.7732C40.06 68.1642 39.7611 68.4879 39.3361 68.6669C38.4827 69.0263 37.5711 68.5535 37.388 67.6483C37.343 67.4254 37.343 67.191 37.3425 66.9618C37.339 64.7937 37.3402 62.6262 37.3402 60.4581C37.3402 60.3239 37.3448 60.1891 37.3384 60.055C37.32 59.6686 37.2739 59.6283 36.9405 59.7895C36.1579 60.1678 35.3304 60.4062 34.4914 60.6153C34.0635 60.7218 34.0434 60.7466 34.0434 61.2055C34.0434 62.0486 34.1073 62.8945 33.919 63.7284C33.4836 65.6587 32.5081 67.2123 30.7137 68.1377C27.9519 69.5624 24.2601 68.7562 22.9327 64.9676C22.4599 63.6178 22.3597 62.2346 22.6402 60.8278C22.6886 60.5859 22.7335 60.3435 22.7813 60.0947C22.5751 60.0354 22.4766 60.1759 22.369 60.264C21.2218 61.198 20.1634 62.2271 19.1171 63.2706C18.8119 63.5752 18.8263 63.915 18.8556 64.28C18.9875 65.9051 19.0946 67.5337 19.0457 69.1633C18.9357 72.8131 18.1911 76.3172 16.4802 79.5743C15.8882 80.7013 15.1782 81.7476 14.1215 82.5083C13.5479 82.9218 12.9208 83.1809 12.2033 83.1965C11.3021 83.216 10.6663 82.7922 10.2408 82.0257C10.0254 81.6376 9.89929 81.2138 9.81464 80.7779C9.51864 79.2495 9.58832 77.7264 9.8751 76.2055C10.3174 73.8612 11.2422 71.6977 12.3473 69.6021C12.5707 69.1783 12.8195 68.7671 13.0556 68.3502C13.294 67.9293 13.2853 67.9362 12.9525 67.5619C12.3536 66.8881 11.7121 66.2552 11.127 65.5671C9.324 63.441 8.30819 61.0155 8.05999 58.2151C7.71102 54.2716 8.88923 50.8838 11.4725 47.9366C12.6502 46.5931 14.0242 45.5053 15.621 44.7025C16.2067 44.4083 16.824 44.1992 17.4667 44.0691C17.6348 44.0351 17.8081 44.0121 17.9792 44.0075C18.6765 43.9879 18.9023 44.2217 18.7917 44.907C18.6155 46.0051 18.3932 47.0958 18.221 48.1945C17.8508 50.555 17.8306 52.9275 17.9907 55.3081C18.1128 57.1267 18.3241 58.9349 18.5038 60.7471C18.5245 60.9568 18.5476 61.1646 18.6437 61.3817C18.8867 61.3495 18.9979 61.1531 19.1413 61.0166C20.7116 59.5165 22.3505 58.1016 24.1904 56.9355C24.8567 56.5134 25.5523 56.1483 26.3004 55.8909C26.6303 55.7775 26.9689 55.7124 27.3185 55.7481C27.7204 55.789 27.8362 55.975 27.653 56.324C27.5477 56.5249 27.3985 56.7063 27.2523 56.8831C25.7665 58.6769 25.4809 60.7402 25.9036 62.9533C26.0009 63.4635 26.2169 63.9403 26.499 64.3808C27.1797 65.4427 28.146 65.976 29.4106 65.8665C30.6205 65.7617 31.4007 65.039 31.892 63.9766C32.2726 63.1531 32.3118 62.2726 32.2628 61.3823C32.2473 61.1007 32.0998 60.9809 31.8275 60.9516C31.3328 60.8974 30.8335 60.8698 30.3481 60.742C29.7048 60.5721 29.129 60.2859 28.6516 59.8148C27.9807 59.152 27.778 58.3401 27.9369 57.4371C28.0924 56.5566 28.8174 55.9566 29.7613 55.8662C30.3988 55.8051 30.9781 55.9629 31.5125 56.3061C32.3642 56.8538 32.9423 57.6277 33.3604 58.5341C33.6316 59.1215 33.6293 59.1186 34.2645 58.9718C35.1859 58.7581 36.0595 58.4276 36.8916 57.9738C37.2204 57.7947 37.3534 57.5696 37.3494 57.1964C37.3344 55.8725 37.3229 54.5486 37.3517 53.2253C37.3914 51.39 37.6932 49.5985 38.3888 47.8893C38.7746 46.9409 39.2733 46.057 40.0231 45.34C40.489 44.8949 41.0268 44.5764 41.6678 44.4422C42.702 44.2263 43.6458 44.6542 44.1376 45.5824C44.634 46.5199 44.6668 47.5317 44.5897 48.5562C44.349 51.7672 43.1005 54.5607 41.0504 57.0121C40.7366 57.3876 40.5967 57.7711 40.6047 58.264C40.6301 59.7987 40.6122 61.3334 40.6162 62.8686C40.6162 63.0707 40.5748 63.285 40.6974 63.5009L40.698 63.4992ZM11.2318 56.7956C11.2318 57.2177 11.2151 57.6404 11.2347 58.0613C11.3384 60.3164 11.8555 62.4609 12.9813 64.4367C13.3141 65.0206 13.6873 65.578 14.114 66.0992C14.2724 66.2927 14.406 66.3238 14.5643 66.1026C14.7768 65.8067 14.991 65.5112 15.2197 65.2273C15.4408 64.9532 15.5053 64.6555 15.446 64.3129C15.3481 63.7462 15.2675 63.1761 15.173 62.6089C14.9018 60.9815 14.668 59.349 14.5764 57.7014C14.5137 56.5699 14.6426 55.4423 14.7601 54.3171C14.9525 52.4772 15.3619 50.6857 15.9925 48.9483C16.365 47.921 16.7779 46.9081 17.1666 45.8865C17.2116 45.769 17.3025 45.6279 17.1793 45.511C17.0664 45.4039 16.9265 45.465 16.7987 45.5036C16.2182 45.6775 15.7166 45.989 15.2634 46.3846C14.2211 47.2945 13.4345 48.4019 12.8206 49.6284C11.6937 51.8812 11.1351 54.2687 11.2307 56.7956H11.2318ZM15.871 67.2071C15.6602 67.2313 15.5986 67.3868 15.5151 67.506C15.2191 67.9298 14.9237 68.3548 14.6438 68.789C13.1517 71.1046 12.1106 73.594 11.757 76.3449C11.6493 77.1833 11.628 78.0293 11.7121 78.8677C11.7875 79.6221 12.0472 80.3275 12.8834 80.5348C13.6815 80.7324 14.2292 80.2659 14.6853 79.6803C14.945 79.3468 15.1626 78.9841 15.3296 78.5959C16.2159 76.5326 16.4889 74.3536 16.4526 72.1377C16.4295 70.7423 16.2476 69.3522 16.0374 67.9696C15.9976 67.7104 15.9798 67.4467 15.871 67.2071ZM40.7141 55.0726C41.0026 54.6914 41.1869 54.3148 41.3649 53.9364C42.4331 51.6664 42.8275 49.2766 42.6294 46.7831C42.6162 46.6138 42.5857 46.4382 42.5241 46.281C42.3622 45.8669 42.0282 45.8036 41.7259 46.1307C41.5013 46.3731 41.3827 46.68 41.2716 46.987C40.9226 47.951 40.8045 48.9604 40.7303 49.9717C40.6174 51.4988 40.5869 53.0295 40.6168 54.5613C40.6197 54.7087 40.5754 54.8647 40.7141 55.0738V55.0726ZM73.1339 65.9086C73.1005 65.498 73.0366 65.0816 72.903 64.6797C72.8419 64.4971 72.7187 64.481 72.6168 64.64C72.3052 65.1271 72.034 65.635 71.9897 66.2276C71.9724 66.4608 72.0121 66.6883 72.1555 66.8829C72.3887 67.2002 72.6836 67.195 72.8915 66.8576C73.0665 66.5737 73.1103 66.2483 73.1333 65.9086H73.1339ZM86.6827 57.755C86.2474 57.7302 86.0136 58.0562 86.1662 58.4748C86.3545 58.9919 87.3444 59.4566 87.8701 59.2724C88.0135 59.2223 88.0849 59.1307 88.0464 58.9643C87.937 58.4909 87.1423 57.7815 86.6827 57.755ZM31.3374 59.2038C31.4157 59.1906 31.5821 59.2591 31.6645 59.1365C31.767 58.9839 31.6276 58.8491 31.5539 58.7218C31.3184 58.3141 31.0034 57.9842 30.5594 57.8091C30.3176 57.7135 30.0573 57.702 29.8834 57.9427C29.7198 58.169 29.767 58.4138 29.9012 58.6435C29.9916 58.7984 30.1344 58.8935 30.2922 58.9683C30.6066 59.118 30.9366 59.2056 31.338 59.2044L31.3374 59.2038Z" fill="#EEEEEE"/>
</g>
<defs>
<clipPath id="clip0_122_2511">
<rect width="231" height="127" fill="white"/>
</clipPath>
</defs>
</svg>
