<svg width="216" height="207" viewBox="0 0 216 207" fill="none" xmlns="http://www.w3.org/2000/svg">
<g clip-path="url(#clip0_5535_2147)">
<rect width="216" height="206.929" fill="#151517"/>
<path d="M89.7819 94.3789V105.985C89.7819 107.018 89.8558 107.988 88.9286 108.692C88.0753 109.396 86.6296 109.619 85.0719 109.619C82.6984 109.619 80.1771 109.063 80.1771 109.063L79.6211 110.547C79.6211 110.547 83.1441 111.289 85.7029 111.326C87.8535 111.363 89.7449 110.88 90.783 109.694C91.6363 108.73 91.8956 107.618 91.8592 105.727V94.3789H89.783" fill="white"/>
<path d="M107.1 100.794C105.543 99.9407 103.652 99.4961 101.501 99.4961C99.3868 99.4961 97.4965 99.9418 95.9018 100.794C93.8996 101.87 92.8984 103.464 92.8984 105.466C92.8984 107.469 93.8996 109.063 95.9018 110.139C97.4965 110.992 99.3504 111.437 101.501 111.437C103.615 111.437 105.506 110.991 107.063 110.139C109.066 109.063 110.067 107.469 110.067 105.466C110.067 103.427 109.066 101.87 107.1 100.794V100.794ZM105.877 108.947C104.654 109.651 103.208 109.979 101.502 109.979C99.7591 109.979 98.2759 109.645 97.0889 108.978C95.6431 108.163 94.9382 107.013 94.9382 105.455C94.9382 103.935 95.6801 102.748 97.0889 101.932C98.2753 101.265 99.7586 100.931 101.502 100.931C103.208 100.931 104.691 101.265 105.915 101.932C107.325 102.747 108.066 103.934 108.066 105.455C108.029 106.939 107.324 108.125 105.878 108.941L105.877 108.947Z" fill="white"/>
<path d="M125.338 100.794C123.781 99.9407 121.89 99.4961 119.739 99.4961C117.625 99.4961 115.735 99.9418 114.14 100.794C112.138 101.87 111.137 103.464 111.137 105.466C111.137 107.469 112.138 109.063 114.14 110.139C115.735 110.992 117.589 111.437 119.739 111.437C121.854 111.437 123.744 110.991 125.302 110.139C127.304 109.063 128.305 107.469 128.305 105.466C128.305 103.427 127.304 101.87 125.338 100.794V100.794ZM124.116 108.947C122.893 109.651 121.446 109.979 119.74 109.979C117.997 109.979 116.514 109.645 115.327 108.978C113.881 108.163 113.176 107.013 113.176 105.455C113.176 103.935 113.918 102.748 115.327 101.932C116.514 101.265 117.997 100.931 119.74 100.931C121.446 100.931 122.929 101.265 124.154 101.932C125.563 102.747 126.304 103.934 126.304 105.455C126.267 106.939 125.562 108.125 124.117 108.941L124.116 108.947Z" fill="white"/>
<path d="M150.519 100.498C149.407 99.8303 147.961 99.4965 146.255 99.4965C144.068 99.4965 142.324 100.164 140.99 101.499C139.729 100.164 137.949 99.4965 135.761 99.4965C133.981 99.4965 132.535 99.8672 131.422 100.573V99.6455H129.457V111.178H131.422V103.316C131.571 102.76 131.941 102.24 132.535 101.796C133.35 101.24 134.383 100.942 135.687 100.942C136.837 100.942 137.807 101.16 138.622 101.647C139.586 102.203 140.031 102.945 140.031 103.983V111.251H141.96V103.946C141.96 102.914 142.405 102.166 143.369 101.61C144.184 101.165 145.186 100.906 146.336 100.906C147.485 100.906 148.486 101.123 149.302 101.61C150.266 102.166 150.711 102.908 150.711 103.946V111.214H152.677V104.205C152.64 102.574 151.898 101.313 150.526 100.497L150.519 100.498ZM154.191 94.3789V111.214H156.157V94.3789H154.191V94.3789ZM178.072 94.3789V107.395H180.037V94.3789H178.072ZM172.917 99.6444V101.61C171.249 100.2 169.024 99.459 166.279 99.459C164.092 99.459 162.2 99.8667 160.643 100.72C158.715 101.796 157.708 103.353 157.708 105.429C157.708 107.469 158.71 109.063 160.712 110.102C162.269 110.955 164.16 111.363 166.348 111.363C167.424 111.363 168.499 111.251 169.462 110.992C170.834 110.622 171.984 110.102 172.874 109.398V111.178H174.839V99.6444H172.911H172.917ZM159.784 105.466C159.784 103.946 160.526 102.76 161.935 101.943C163.121 101.276 164.641 100.942 166.384 100.942C168.535 100.942 170.204 101.461 171.385 102.5C172.417 103.427 172.942 104.62 172.942 106.06V107.432C172.127 108.359 170.903 109.063 169.345 109.551C168.418 109.848 167.417 109.997 166.379 109.997C164.599 109.997 163.116 109.663 161.929 109.033C160.484 108.18 159.779 107.031 159.779 105.473L159.784 105.466ZM179.078 109.026C177.707 109.026 177.521 109.731 177.521 110.176C177.521 110.621 177.739 111.325 179.078 111.325C180.45 111.325 180.636 110.583 180.636 110.176C180.636 109.768 180.419 109.026 179.078 109.026Z" fill="white"/>
<path d="M42.283 103.49L41.5221 102.729C39.0763 100.283 38.3697 96.8594 39.2393 93.7614C36.7936 93.2179 35 91.0439 35 88.435C35 85.4458 37.4458 83 40.435 83C43.1526 83 45.3809 84.9566 45.8157 87.5654C48.7507 86.8589 51.9573 87.6741 54.2401 89.9569L54.5662 90.283L50.5442 94.3049L50.2181 93.9788C49.5905 93.3528 48.7403 93.0013 47.8539 93.0013C46.9675 93.0013 46.1172 93.3528 45.4896 93.9788C44.8637 94.6064 44.5122 95.4566 44.5122 96.343C44.5122 97.2294 44.8637 98.0797 45.4896 98.7073L54.5118 107.729L50.4899 111.751L46.2505 107.512L42.283 103.49Z" fill="white"/>
<path d="M46.7969 99.0318L55.819 90.0096C58.2105 87.6182 61.6889 86.8573 64.7325 87.7269C65.113 85.0637 67.3957 83.0527 70.1132 83.0527C73.1025 83.0527 75.5483 85.4985 75.5483 88.4878C75.5483 91.2597 73.4829 93.5424 70.8198 93.8685C71.6894 96.9121 70.9285 100.336 68.537 102.728L68.2109 103.054L64.2977 99.0318L64.6238 98.7057C65.2498 98.0781 65.6013 97.2278 65.6013 96.3414C65.6013 95.455 65.2498 94.6048 64.6238 93.9772C63.9962 93.3512 63.146 92.9997 62.2596 92.9997C61.3732 92.9997 60.5229 93.3512 59.8953 93.9772L50.8732 102.999L46.7969 99.0318Z" fill="white"/>
<path d="M64.8912 119.306C61.7933 120.23 58.3148 119.524 55.8691 117.078L55.543 116.752L59.5649 112.73L59.891 113.056C60.5186 113.682 61.3688 114.033 62.2553 114.033C63.1417 114.033 63.9919 113.682 64.6195 113.056C65.2454 112.428 65.597 111.578 65.597 110.692C65.597 109.805 65.2454 108.955 64.6195 108.327L55.5973 99.3051L59.6193 95.2832L68.6958 104.36C70.9785 106.642 71.7938 109.903 71.0872 112.893C73.7504 113.273 75.7613 115.556 75.7613 118.273C75.7613 121.263 73.3156 123.708 70.3263 123.708C67.6088 123.654 65.3804 121.752 64.8912 119.306V119.306Z" fill="white"/>
<path d="M63.3166 108.002L54.2944 117.025C51.9573 119.362 48.6963 120.123 45.7614 119.416C45.2179 121.862 43.0439 123.655 40.435 123.655C37.4458 123.655 35 121.21 35 118.22C35 115.666 36.7936 113.492 39.185 112.948C38.4241 109.905 39.185 106.644 41.5221 104.307L41.8482 103.98L45.8701 108.002L45.544 108.329C44.918 108.956 44.5665 109.806 44.5665 110.693C44.5665 111.579 44.918 112.429 45.544 113.057C46.1716 113.683 47.0218 114.034 47.9082 114.034C48.7946 114.034 49.6449 113.683 50.2725 113.057L59.2946 104.035L63.3166 108.002Z" fill="white"/>
</g>
<defs>
<clipPath id="clip0_5535_2147">
<rect width="216" height="206.929" fill="white"/>
</clipPath>
</defs>
</svg>
