<?xml version="1.0" encoding="utf-8"?>
<!-- Generator: Adobe Illustrator 24.0.1, SVG Export Plug-In . SVG Version: 6.00 Build 0)  -->
<svg version="1.1" id="Layer_1" xmlns="http://www.w3.org/2000/svg" xmlns:xlink="http://www.w3.org/1999/xlink" x="0px" y="0px"
	 viewBox="0 0 52.6 52.6" style="enable-background:new 0 0 52.6 52.6;" xml:space="preserve">
<style type="text/css">
	.st0{clip-path:url(#SVGID_2_);}
	.st1{fill:#FFFFFF;}
	.st2{fill:none;}
</style>
<g>
	<g>
		<g>
			<defs>
				<rect id="SVGID_1_" x="11.2" y="11.2" width="30.2" height="30.2"/>
			</defs>
			<clipPath id="SVGID_2_">
				<use xlink:href="#SVGID_1_"  style="overflow:visible;"/>
			</clipPath>
			<g class="st0">
				<path class="st1" d="M11.2,11.2v30.2h30.2V11.2H11.2z M27.6,34.7c0,2.9-1.7,4.3-4.2,4.3c-2.3,0-3.6-1.2-4.2-2.6l2.3-1.4
					c0.5,0.8,0.9,1.4,1.8,1.4s1.5-0.3,1.5-1.8v-9.6h2.8L27.6,34.7L27.6,34.7z M34.1,39c-2.6,0-4.4-1.3-5.2-2.9l2.3-1.3
					c0.6,1,1.4,1.7,2.8,1.7c1.2,0,2-0.6,2-1.4c0-1-0.7-1.3-2.1-1.9L33.2,33c-2.1-0.9-3.4-2-3.4-4.3c0-2.1,1.6-3.7,4.1-3.7
					c1.8,0,3.1,0.6,4,2.3l-2.2,1.4c-0.5-0.9-1-1.2-1.8-1.2s-1.4,0.5-1.4,1.2c0,0.9,0.5,1.2,1.7,1.7l0.7,0.3c2.4,1,3.8,2.1,3.8,4.5
					C38.8,37.7,36.8,39,34.1,39L34.1,39z"/>
			</g>
		</g>
	</g>
	<rect class="st2" width="52.6" height="52.6"/>
</g>
</svg>
