<svg width="216" height="207" viewBox="0 0 216 207" fill="none" xmlns="http://www.w3.org/2000/svg">
<g clip-path="url(#clip0_5470_730)">
<rect width="216" height="206.929" fill="#151517"/>
<g clip-path="url(#clip1_5470_730)">
<path fill-rule="evenodd" clip-rule="evenodd" d="M36.4102 129.924H40.3607C39.0439 130.242 37.68 130.242 36.4102 129.924Z" fill="white"/>
<path fill-rule="evenodd" clip-rule="evenodd" d="M54.1406 126.156C54.5636 125.793 55.0335 125.521 55.5504 125.385C55.2684 125.839 54.7045 126.156 54.1406 126.156Z" fill="white"/>
<path fill-rule="evenodd" clip-rule="evenodd" d="M51.5547 127.338C52.0246 127.02 52.5885 126.793 53.1524 126.748C52.7295 127.157 52.1656 127.384 51.5547 127.338Z" fill="white"/>
<path fill-rule="evenodd" clip-rule="evenodd" d="M40.3613 129.925C40.8312 129.517 41.4421 129.835 41.9591 129.744C41.4891 130.107 40.9252 129.835 40.3613 129.925Z" fill="white"/>
<path fill-rule="evenodd" clip-rule="evenodd" d="M41.9609 129.699C42.4309 129.29 43.0418 129.608 43.5587 129.517C43.0418 129.926 42.4779 129.653 41.9609 129.699Z" fill="white"/>
<path fill-rule="evenodd" clip-rule="evenodd" d="M43.5605 129.517C44.0305 129.109 44.5944 129.426 45.1583 129.336C44.6414 129.699 44.0775 129.426 43.5605 129.517Z" fill="white"/>
<path fill-rule="evenodd" clip-rule="evenodd" d="M35 129.926C35.4229 129.608 35.9868 129.608 36.4098 129.926H35Z" fill="white"/>
<path fill-rule="evenodd" clip-rule="evenodd" d="M47.9336 128.517C48.2155 128.199 48.6855 128.063 49.1084 128.108C48.8264 128.38 48.4035 128.562 47.9336 128.517Z" fill="white"/>
<path fill-rule="evenodd" clip-rule="evenodd" d="M46.1465 128.925C46.4754 128.562 46.9453 128.789 47.3213 128.744C46.9923 129.062 46.5694 128.88 46.1465 128.925Z" fill="white"/>
<path fill-rule="evenodd" clip-rule="evenodd" d="M140.443 80.7213C143.359 80.6759 146.227 80.9029 149.096 81.4476C149.708 81.5838 149.708 81.8562 149.614 82.2193C149.284 83.8081 148.955 85.3969 148.626 86.9857C148.485 87.6212 148.25 87.6212 147.685 87.4396C144.252 86.2594 140.631 85.7147 136.962 85.8054C134.329 85.8962 133.247 87.0311 133.059 89.6185C132.871 91.6613 133.999 93.6586 135.928 94.5665C137.809 95.5652 139.737 96.3823 141.76 97.1086C143.782 97.8803 145.71 98.9243 147.403 100.241C149.849 102.238 151.307 105.143 151.448 108.23C151.777 114.131 147.826 119.488 141.948 121.077C136.351 122.756 130.284 122.121 125.205 119.306C124.781 119.079 124.64 118.852 124.781 118.444C125.346 116.764 125.91 115.085 126.428 113.36C126.569 112.86 126.804 112.906 127.18 113.133C129.955 114.812 133.012 115.902 136.21 116.446C137.95 116.719 139.737 116.673 141.43 116.265C142.888 115.856 143.97 114.585 144.064 113.087C144.158 112.588 144.252 112.043 144.299 111.544C144.628 109.274 143.359 107.095 141.195 106.142C139.032 105.053 136.774 104.054 134.47 103.191C130.566 101.92 127.556 98.879 126.38 95.0658C124.923 89.8909 127.509 84.489 132.541 82.1739C134.846 80.9937 137.668 80.4489 140.443 80.7213Z" fill="white"/>
<path fill-rule="evenodd" clip-rule="evenodd" d="M82.4073 79.3096C82.7365 81.1254 82.8306 82.9865 82.5954 84.8477C82.4543 88.0253 81.5137 91.1575 79.9147 93.9265C77.2339 98.3751 72.8601 101.643 67.7337 103.096C64.6767 104.004 61.5727 104.594 58.3746 104.912C53.3423 105.411 48.31 105.638 43.2777 105.502C42.6193 105.502 42.2901 105.366 42.7604 104.685C42.8545 104.458 43.0896 104.276 43.3718 104.231C44.2654 103.959 44.8768 103.505 44.7357 102.415C44.6416 101.371 44.8298 100.327 45.3001 99.3284C45.6763 97.6488 46.2877 96.0146 47.1343 94.4712C47.8868 93.3818 48.8274 92.2469 50.4264 92.3377C50.7556 92.3377 51.0848 92.4285 51.32 92.6555C51.7903 93.064 52.4958 93.2002 53.1072 93.064C58.7509 92.2469 64.0653 89.9772 68.3922 86.3911C69.615 85.3924 70.6967 84.1668 71.4962 82.8049C71.9665 82.0786 72.719 81.5339 73.6126 81.3977C75.776 80.9438 77.9394 80.7168 80.1028 80.7168C80.5731 80.7168 80.9964 80.4444 81.2315 80.0359C81.4667 79.6273 81.6548 79.0372 82.4073 79.3096Z" fill="white"/>
<path fill-rule="evenodd" clip-rule="evenodd" d="M157.563 101.189C157.563 94.788 157.563 88.3421 157.516 81.9415C157.516 81.1698 157.657 80.852 158.503 80.852C165.605 80.8974 172.66 80.852 179.714 80.8066C180.42 80.8066 180.702 80.9428 180.655 81.7145C180.608 82.6224 180.608 83.4849 180.655 84.3928C180.702 85.0283 180.514 85.2099 179.855 85.2099C175.387 85.1645 170.872 85.2099 166.404 85.1645C165.652 85.1645 165.464 85.3461 165.511 86.0724C165.558 90.3394 165.558 94.6065 165.511 98.8735C165.511 99.509 165.652 99.6906 166.31 99.6906C170.59 99.6452 174.87 99.6906 179.197 99.6452C179.949 99.6452 180.137 99.8268 180.09 100.553C180.043 101.461 180.043 102.323 180.09 103.231C180.137 103.912 179.902 104.048 179.291 104.048C175.011 104.003 170.731 104.048 166.404 104.003C165.652 104.003 165.511 104.185 165.511 104.911C165.558 110.086 165.511 115.215 165.558 120.39C165.558 121.162 165.37 121.298 164.617 121.298C162.548 121.253 160.479 121.253 158.409 121.298C157.61 121.344 157.516 121.071 157.516 120.345C157.61 114.081 157.563 107.635 157.563 101.189Z" fill="white"/>
<path fill-rule="evenodd" clip-rule="evenodd" d="M119.328 101.146V119.122C119.469 122.981 118.105 126.703 115.472 129.608C113.449 131.651 110.91 133.149 108.182 134.102C107.947 134.238 107.571 134.148 107.429 133.921V133.875C107.1 133.24 106.771 132.604 106.442 131.969C106.301 131.651 106.395 131.56 106.677 131.379C109.075 129.881 110.722 127.384 111.098 124.66C111.239 123.843 111.333 123.071 111.38 122.254C111.38 108.863 111.38 95.4718 111.38 82.0806C111.38 81.2181 111.568 80.9457 112.462 80.9911C114.39 81.0819 116.365 81.0819 118.341 80.9911C119.281 80.9457 119.422 81.2635 119.375 82.0806C119.281 88.3449 119.328 94.7455 119.328 101.146Z" fill="white"/>
<path fill-rule="evenodd" clip-rule="evenodd" d="M93.3663 109.588C92.7078 110.677 92.0494 111.721 91.391 112.811C91.1558 113.128 90.7796 113.31 90.7796 113.764C90.3563 114.218 90.0271 114.672 89.7449 115.171C89.4157 115.262 89.1805 115.58 89.1805 115.943C88.8043 116.351 88.428 116.76 88.0048 117.168C87.7226 117.395 87.5345 117.668 87.3934 117.94C86.2646 119.211 85.0889 120.391 83.819 121.526C83.3957 121.708 83.1606 122.071 82.8314 122.343C82.5492 122.797 82.1259 123.115 81.6556 123.297C81.2794 123.478 80.5739 123.342 80.668 124.114C74.648 128.608 67.4523 131.377 59.8804 132.058C56.9645 132.33 54.0015 132.33 51.0856 132.012C47.6994 131.649 44.3602 130.832 41.1151 129.652C40.6448 129.516 40.3626 129.107 40.3626 128.653C40.3626 128.063 40.3626 127.428 40.3156 126.792C40.2686 123.251 40.4567 119.756 40.927 116.215C41.1151 113.9 41.3973 111.63 41.8206 109.361C42.1028 107.908 42.3379 107.727 43.7959 107.727C46.3355 107.681 48.9222 107.817 51.4619 107.681C51.5559 107.636 51.697 107.636 51.7911 107.636C52.0263 107.59 52.2144 107.59 52.4495 107.59H53.0609C53.6723 107.636 54.3308 107.59 54.9422 107.454C55.3184 107.409 55.6946 107.409 56.0239 107.454C56.7764 107.5 57.3878 107.454 57.9992 107.273C58.4695 107.182 58.9868 107.182 59.4571 107.273C60.3977 107.5 61.4324 107.409 62.326 107.046C63.4077 106.773 64.4894 106.592 65.5711 106.546C67.6405 106.274 69.6628 105.684 71.591 104.867C71.7321 104.776 71.9673 104.73 72.1554 104.776C72.8609 105.23 72.8609 105.23 71.8732 105.956C69.1454 107.182 66.2295 108.044 63.2196 108.498C61.9027 108.68 60.6329 109.088 59.316 109.27C55.3654 109.724 51.4619 110.45 47.4643 110.541C45.8182 110.541 44.3602 111.63 44.031 113.219C43.5137 115.67 43.1374 118.167 42.8553 120.664C42.7612 121.163 42.7612 121.708 42.6201 122.253C42.479 122.934 42.7612 123.251 43.4667 123.251C44.8776 123.297 44.8776 123.297 44.9246 124.613C44.7835 125.884 45.6771 127.11 47.041 127.473C49.8158 128.381 52.6377 129.107 55.5065 129.606C55.9298 129.652 56.3531 129.697 56.7764 129.743C56.8704 129.743 56.9645 129.788 57.1056 129.788C58.2813 129.924 59.4571 129.924 60.6799 129.833C60.774 129.788 60.868 129.788 60.9621 129.743C61.4324 129.652 61.9027 129.743 62.373 129.606C62.4671 129.606 62.5611 129.561 62.6552 129.561C63.1255 129.561 63.5958 129.516 64.0191 129.425C64.1131 129.379 64.2072 129.379 64.3013 129.379C64.7716 129.379 65.2419 129.334 65.6652 129.198C65.9944 129.016 66.3706 128.88 66.6998 128.789C67.0761 128.744 67.4523 128.699 67.8286 128.608C68.0637 128.517 68.2989 128.426 68.487 128.381C68.9103 128.29 69.2865 128.154 69.7098 128.018C70.5093 127.791 71.2148 127.382 72.0143 127.201C72.5787 127.155 73.096 126.974 73.5193 126.61C73.8485 126.338 74.2248 126.111 74.601 126.02C75.1183 125.93 75.6357 125.657 75.9649 125.249C77.1877 124.477 78.3164 123.66 79.5392 122.843C80.0566 122.661 80.668 122.525 80.9031 121.935C81.8437 120.891 82.9725 120.074 84.0542 119.12C84.2893 118.984 84.5245 118.757 84.6656 118.53C85.0418 117.986 85.4181 117.486 85.8884 116.987C86.1235 116.805 86.3116 116.533 86.4527 116.306C87.2993 115.126 88.2399 114.036 88.9924 112.811C89.2276 112.584 89.4627 112.266 89.6038 111.948C89.886 111.222 90.3093 110.541 90.8266 109.951C91.2499 109.678 91.1088 109.27 91.2499 108.861C91.485 108.226 91.8142 107.681 92.1905 107.136C92.4727 106.773 92.3316 106.319 92.4256 105.911C92.5197 105.184 92.8019 104.458 93.1781 103.823C93.3663 103.505 93.4133 103.096 93.3663 102.733C93.4133 102.461 93.4603 102.143 93.6014 101.916C93.8836 101.417 93.7425 100.872 93.7895 100.373C93.7895 100.282 93.8366 100.191 93.8836 100.1C93.9777 99.6463 94.0247 99.1924 94.0247 98.7385C94.0247 98.6477 94.0717 98.5569 94.0717 98.4661C94.2128 97.9668 94.2128 97.422 94.0717 96.8773C94.0247 96.7865 94.0247 96.6957 94.0247 96.6049C94.0247 96.151 94.1658 95.7425 94.1658 95.3339C94.1658 95.1069 94.2598 94.8346 94.4009 94.653C94.8242 93.9721 95.1064 93.2004 95.2005 92.3833C95.2475 92.0201 95.3886 91.7024 95.5297 91.3846C95.7178 91.0669 95.8119 90.7037 95.8119 90.3405C95.8119 90.2498 95.8589 90.159 95.8589 90.0682C95.9059 89.6596 95.953 89.2511 95.953 88.7971C96.1411 88.1162 95.6708 87.4807 95.7178 86.7998C95.7648 86.3459 95.7178 85.8465 95.5297 85.3926C95.4356 85.1656 95.3416 84.9386 95.3416 84.7117C95.3886 84.3939 95.2945 84.0762 95.1534 83.7584C94.8712 83.3045 94.6831 82.8505 94.542 82.3058C94.3069 81.3071 93.6014 80.49 92.6138 80.1269C92.0024 80.0361 91.391 80.0815 90.7796 80.2177C89.2276 80.5808 88.0518 81.8518 87.8166 83.3952C87.7226 83.8492 87.6755 84.3485 87.6755 84.8025C87.6755 84.8933 87.6285 84.984 87.6285 85.0748C87.4874 85.4834 87.5815 85.9373 87.4404 86.3459C87.3934 86.5274 87.2993 86.6636 87.2523 86.8452C87.1582 87.2084 87.1112 87.5715 87.0641 87.9347C86.876 88.1616 86.829 88.2978 86.7349 88.4794C86.6409 88.7971 86.5468 89.1149 86.5468 89.4327C85.9824 91.657 85.0889 93.7905 83.819 95.7425C83.5839 96.0602 83.3487 96.4234 83.1136 96.7865C82.8784 97.1951 82.5962 97.5582 82.267 97.876C82.0319 98.0576 81.8437 98.3299 81.6086 98.1029C81.3734 97.876 81.5616 97.4674 81.6086 97.1951C81.7497 96.7865 82.0319 96.4688 82.4081 96.1964C82.7373 96.0148 82.7373 95.6517 82.8314 95.3339C82.8784 95.0615 82.9725 94.8346 83.0665 94.5622C83.1606 94.2898 83.3487 93.9721 83.5368 93.7451C83.819 93.4274 84.1482 93.1096 83.9131 92.6103C83.9601 91.9747 84.1482 91.3846 84.4304 90.7945C84.6185 90.4767 84.6656 90.159 84.5715 89.7958C84.6185 89.0695 84.7596 88.2978 84.9948 87.5715C85.0889 87.2991 85.324 87.0722 85.2299 86.709C85.1829 86.5274 85.2299 86.3459 85.277 86.2097C85.7473 85.7103 85.5592 85.1656 85.371 84.6209C85.324 84.3031 85.324 83.94 85.371 83.5768C85.5592 82.4874 85.6062 81.3979 85.4651 80.3538C85.371 78.8104 85.371 78.765 86.829 78.5835C86.876 78.5835 86.9231 78.4927 86.9701 78.4473C87.0171 78.4019 87.1112 78.3565 87.2052 78.3111C87.9107 78.4927 88.381 77.948 88.9924 77.8572C89.1335 77.8118 89.2746 77.8118 89.4157 77.7664C90.0271 77.7664 90.5914 77.6756 91.1088 77.4486C91.485 77.3578 91.8613 77.267 92.2375 77.2216C93.5544 77.5394 94.8712 77.4486 96.1411 77.1309C96.2351 77.4486 96.047 77.8118 96.4233 78.0387C96.5173 78.4927 96.3762 78.992 96.7995 79.3098C96.8465 79.3098 96.8465 79.3552 96.8465 79.4006C96.9876 80.1723 96.6114 81.0348 97.4109 81.6703C97.4109 81.8065 97.4109 81.8972 97.4579 82.0334C97.6931 82.3966 97.2228 82.8959 97.6931 83.2591C97.552 83.6676 97.8812 84.0762 97.8812 84.4393C98.1164 84.8025 97.8342 85.2564 98.0693 85.6196C98.0693 85.8465 98.1164 86.0735 98.1164 86.3005C98.2575 87.0722 98.2575 87.8439 98.1164 88.6156C98.0223 89.0241 98.0693 89.3873 98.2575 89.7504V90.7491C97.8812 91.43 98.3045 92.1109 98.2104 92.7918C98.1634 93.155 98.3045 93.5635 98.1164 93.9267C98.1164 93.9721 98.1164 94.0629 98.0693 94.1083C97.7401 94.6076 98.2104 95.1977 97.9282 95.6971C97.9282 95.8332 97.9282 95.9694 97.8812 96.1056C97.6931 96.4234 97.9282 96.7865 97.6931 97.0589C97.6931 97.1497 97.6931 97.1951 97.6461 97.2859C97.4579 97.6036 97.6931 97.9668 97.4579 98.2391C97.4579 98.3299 97.4579 98.3753 97.4109 98.4661C97.3168 98.8293 96.9406 98.7839 96.7054 98.8746C96.7054 99.3286 97.3639 99.5556 97.0817 100.055C96.7525 100.327 96.9406 100.69 96.8465 101.008C96.5173 101.598 96.3292 102.234 96.2822 102.915C95.9059 103.142 96.1411 103.505 96.047 103.777C95.4826 104.64 95.0594 105.593 94.9183 106.592C94.495 107.273 94.1658 107.999 93.8836 108.725C93.6014 109.134 93.5074 109.406 93.3663 109.588Z" fill="white"/>
<path fill-rule="evenodd" clip-rule="evenodd" d="M82.4081 79.3116C81.8908 79.4024 81.5146 79.8109 81.3735 80.2648C81.1853 80.855 80.8091 80.9004 80.1977 81.0365C78.4105 81.3543 76.6234 81.0365 74.8362 81.3543C73.0961 81.6721 71.5911 82.7161 70.8386 84.2595C69.7569 85.7121 68.346 86.9832 66.7939 87.9818C62.7493 90.7509 58.0933 92.5666 53.155 93.3383C52.4496 93.5653 51.6971 93.3837 51.1797 92.8844C50.6154 92.3851 49.7688 92.3397 49.1574 92.7936C47.4643 93.9739 46.3826 95.7896 46.1004 97.787C45.9593 98.4679 45.7242 99.1488 45.395 99.7843C44.9717 100.828 44.8776 102.009 45.1128 103.143C45.2068 103.416 45.0187 103.552 44.8306 103.734C44.4543 104.142 43.937 104.415 43.3726 104.505C43.1845 103.961 43.2315 103.325 43.5137 102.78C44.8776 98.0139 46.8059 93.3837 49.2515 89.0259C49.5337 88.3904 50.1921 87.9818 50.8976 88.118C52.8728 88.5266 54.8481 87.3009 55.2714 85.3944C55.2714 85.349 55.3184 85.2582 55.3184 85.2128C55.4595 84.5319 56.0239 83.9872 56.7294 83.8964C57.0115 83.851 57.2937 83.7602 57.5759 83.6694C61.7146 82.9431 65.8063 82.2168 69.898 81.4451C73.5193 80.7642 77.1877 80.0833 80.8091 79.4024C81.2794 79.3116 81.6086 78.9938 82.0319 78.903C82.5022 78.7214 82.4081 79.0392 82.4081 79.3116Z" fill="white"/>
<path fill-rule="evenodd" clip-rule="evenodd" d="M51.2235 79.9931C53.1047 81.3096 55.0329 80.3563 56.9142 79.9478C62.6989 78.6767 68.4837 77.4965 74.3155 76.4524C79.7241 75.4991 85.0385 74.5005 90.4471 73.5472C91.4347 73.3656 92.5164 73.3202 93.457 73.0478C94.1625 72.8663 94.4917 73.0932 94.6328 73.8195C92.4224 74.2281 90.2119 74.6366 88.0015 75.0452C83.2984 75.9531 78.5953 76.8156 73.8452 77.7234C68.3897 78.8129 62.8871 79.9024 57.3845 80.9918C56.3028 81.2188 55.2681 81.4458 54.1864 81.6727C53.8572 81.7181 53.575 81.8089 53.6691 82.399C53.9512 83.4431 53.528 84.578 52.5873 85.2135C51.7408 85.9852 50.518 86.076 49.5303 85.5312C48.7308 85.0773 48.5897 85.395 48.2605 85.9852C44.6862 91.7956 42.1465 98.1508 40.6886 104.778C39.0895 111.814 38.4311 119.077 38.7133 126.295C38.7133 126.522 38.7603 126.749 38.7603 126.976C38.7603 127.203 39.0895 127.612 38.5722 127.657C38.1959 127.702 37.7727 127.612 37.7256 127.067C37.6786 126.613 37.5845 126.204 37.5845 125.796C37.0672 112.949 39.842 100.194 45.6268 88.618C45.956 87.9371 46.2852 87.2562 46.7555 86.6661C47.7432 85.4858 48.1665 83.9424 47.8843 82.4444C48.5897 81.1734 49.8125 80.2655 51.2235 79.9931Z" fill="white"/>
<path fill-rule="evenodd" clip-rule="evenodd" d="M56.3036 107.682H55.0808C54.8926 107.546 54.6105 107.637 54.3753 107.455C54.3283 107.41 54.2812 107.319 54.2812 107.228C56.1625 107.047 58.0907 106.911 59.972 106.684C65.5686 106.32 70.9772 104.641 75.7743 101.781C79.0194 99.5568 81.6061 96.5153 83.2051 92.9746C83.5344 93.1108 83.4873 93.3378 83.3933 93.6101C83.2522 93.9733 83.1581 94.3364 83.1111 94.6996C82.0294 96.9239 80.5244 98.9212 78.6432 100.555C75.304 103.551 71.1653 105.549 66.6503 106.275C66.18 106.32 65.7567 106.457 65.3335 106.638C64.2047 106.729 63.123 106.911 62.0413 107.228C61.2418 107.455 60.3952 107.546 59.5017 107.455H57.9496C57.4323 107.455 56.8679 107.501 56.3506 107.637" fill="white"/>
<path fill-rule="evenodd" clip-rule="evenodd" d="M57.5274 83.8493C56.1165 84.0309 55.5992 84.9388 55.2699 86.2098C54.5174 87.8894 52.6362 88.7519 50.802 88.3434C50.2847 88.2072 49.7203 88.4795 49.5322 89.0243C48.2624 91.5663 46.8985 94.063 45.8638 96.7413C45.0643 98.7386 44.4529 100.736 43.7944 102.779C43.6063 103.323 43.4652 103.914 43.3712 104.504C43.136 104.549 42.9479 104.64 42.7598 104.685C43.3241 102.052 44.0766 99.5103 45.1113 97.0136C46.24 93.9268 47.651 90.8854 49.297 88.0256C49.4381 87.7532 49.4852 87.3901 50.0495 87.5263C52.6832 88.1618 54.0471 87.4355 55.1288 84.848C55.317 83.7585 56.2105 83.3954 57.5274 83.8493Z" fill="white"/>
<path fill-rule="evenodd" clip-rule="evenodd" d="M57.5261 83.8484C57.1499 83.8484 56.7736 83.8484 56.3504 83.8937C55.739 83.8937 55.2686 84.3023 55.1276 84.847C54.9394 83.9845 55.3157 83.6668 56.1622 83.5306C60.6301 82.7589 65.0981 81.9418 69.566 81.1247C73.4695 80.3984 77.4201 79.6721 81.3237 78.9458C81.5588 78.9004 81.794 78.9004 82.0291 78.9004C80.8063 80.126 79.1132 79.9899 77.6082 80.2622C74.7864 80.7616 72.0116 81.3971 69.1897 81.8964C65.2862 82.5319 61.3826 83.2128 57.5261 83.8484Z" fill="white"/>
<path fill-rule="evenodd" clip-rule="evenodd" d="M51.742 107.866C51.4128 108.183 51.0365 108.093 50.7073 108.093C48.3087 108.093 45.9572 108.138 43.5586 108.093C42.8061 108.093 42.4299 108.274 42.2888 109.046C41.8185 111.225 41.4893 113.404 41.3482 115.628C41.2071 117.353 40.9719 119.078 40.7838 120.803C40.7368 121.348 41.066 121.983 40.4076 122.392V122.483C41.2541 123.572 39.7491 124.798 40.5957 125.932C40.6897 126.069 40.4076 126.523 40.3605 126.84C40.1254 124.888 40.0783 122.891 40.2665 120.939C40.3605 118.306 40.5957 115.673 40.9719 113.086C41.2541 111.406 41.5363 109.772 41.8185 108.138C41.9125 107.684 42.1477 107.457 42.665 107.457C44.9695 107.502 47.3211 107.457 49.6256 107.457C50.3781 107.23 51.1776 107.412 51.742 107.866Z" fill="white"/>
<path fill-rule="evenodd" clip-rule="evenodd" d="M83.02 94.5619C82.6438 93.9718 83.4904 93.5178 83.2082 92.9731C84.478 89.387 85.0894 85.6193 85.0424 81.8516C85.5127 81.897 85.4186 82.3055 85.4656 82.5779C85.5127 82.8956 85.4186 83.3042 85.6067 83.6219V84.8022C85.6538 85.2561 85.6067 85.7555 85.4186 86.2094V86.7995C85.4186 87.0265 85.3716 87.2535 85.2305 87.3896C85.0894 88.2521 84.9483 89.1146 84.8543 89.9771C84.7132 90.2041 84.7602 90.5218 84.6661 90.7488C84.478 91.3389 84.2428 91.9291 84.0547 92.5192C84.1488 92.9731 84.0077 93.3817 83.6785 93.6994C83.6785 94.0172 83.5374 94.2895 83.2552 94.5165C83.1611 94.6981 83.0671 94.6981 83.02 94.5619Z" fill="white"/>
<path fill-rule="evenodd" clip-rule="evenodd" d="M92.3772 77.4962C92.0009 77.6324 91.5777 77.6778 91.1544 77.6778C90.543 77.8594 89.9786 77.9956 89.3672 78.0864H88.991C88.4266 78.1318 87.9563 78.4041 87.3919 78.4949H87.2038C86.7335 78.8581 86.1221 78.4949 85.6048 78.7673C85.4166 78.8581 85.2285 78.5857 85.2285 78.3133C87.1097 77.7232 89.1321 77.4962 91.1074 77.1331C92.3772 76.8607 93.6941 76.7245 95.0109 76.543C94.6347 77.2239 93.8351 77.6324 93.0356 77.4962C92.8475 77.4509 92.6123 77.3147 92.3772 77.4962Z" fill="white"/>
<path fill-rule="evenodd" clip-rule="evenodd" d="M85.2281 78.313C85.8395 78.9939 86.5449 78.2222 87.2033 78.4946C87.1563 78.8577 86.9682 79.2209 86.5919 79.0393C85.5102 78.54 85.6984 79.3571 85.7454 79.8564C85.9335 81.1274 85.9335 82.3985 85.6513 83.6695C85.181 83.6241 85.2751 83.2156 85.2751 82.9432C85.2281 82.6254 85.4162 82.2169 85.134 81.8991C85.134 81.536 85.087 81.1274 85.087 80.7643C84.8988 80.0834 85.134 79.4025 84.9459 78.7216C84.7107 78.313 84.9459 78.2676 85.2281 78.313Z" fill="white"/>
<path fill-rule="evenodd" clip-rule="evenodd" d="M92.377 77.4964C92.8002 76.9516 93.4587 77.3602 93.976 77.1332C94.3522 77.0424 94.6815 76.8154 94.9166 76.4977C95.575 76.2707 96.0924 76.1799 96.1394 77.1332C95.7161 77.5871 95.3399 78.0411 94.6344 77.4964C94.4933 77.4056 94.3052 77.4056 94.1641 77.4964C93.6468 77.9049 92.8943 77.9049 92.377 77.4964Z" fill="white"/>
<path fill-rule="evenodd" clip-rule="evenodd" d="M51.9292 81.4906C51.8351 81.5814 51.7881 81.7176 51.694 81.763C50.4712 82.1715 49.3895 82.8978 48.543 83.8511C48.6841 82.3985 50.048 81.309 51.5529 81.3998C51.694 81.4452 51.7881 81.4452 51.9292 81.4906Z" fill="white"/>
<path fill-rule="evenodd" clip-rule="evenodd" d="M51.7432 107.864C51.0377 107.818 50.4263 107.319 49.6738 107.455C51.1788 107.319 52.7308 107.228 54.2828 107.274L54.3299 107.319C54.471 107.727 54.2358 107.773 53.9536 107.773C53.6714 107.727 53.3893 107.637 53.1071 107.864H52.5427C52.4486 107.727 52.2135 107.637 52.0724 107.727C52.0254 107.773 51.9783 107.818 51.9313 107.864H51.7432Z" fill="white"/>
<path fill-rule="evenodd" clip-rule="evenodd" d="M94.8226 106.729C94.7286 106.638 94.6816 106.502 94.6816 106.366C94.7756 105.413 95.2456 104.505 95.9974 103.869C95.7155 104.913 95.2925 105.866 94.8226 106.729Z" fill="white"/>
<path fill-rule="evenodd" clip-rule="evenodd" d="M97.3633 81.672C96.7524 81.7628 96.5645 81.4905 96.5645 80.9003C96.6114 80.401 96.6584 79.9017 96.7994 79.4023C97.0814 80.1286 97.2693 80.9003 97.3633 81.672Z" fill="white"/>
<path fill-rule="evenodd" clip-rule="evenodd" d="M96.9845 100.145C96.9375 100.055 96.9845 99.9185 96.9375 99.8731C96.1386 98.7836 96.1386 98.7836 97.3604 98.5566C97.3604 99.1014 97.2194 99.6461 96.9845 100.145Z" fill="white"/>
<path fill-rule="evenodd" clip-rule="evenodd" d="M98.1607 89.7981C97.8318 89.6619 97.6908 89.2987 97.8318 88.9356C98.0197 88.0731 98.0667 87.1652 98.0197 86.3027C98.2077 87.483 98.2547 88.6632 98.1607 89.7981Z" fill="white"/>
<path fill-rule="evenodd" clip-rule="evenodd" d="M97.9748 93.974C98.0218 93.1569 97.9748 92.3398 97.7868 91.5681C97.6928 91.2503 97.8338 90.9326 98.1158 90.8418C98.2567 91.8859 98.2097 92.9299 97.9748 93.974Z" fill="white"/>
<path fill-rule="evenodd" clip-rule="evenodd" d="M60.1142 124.16C59.6443 124.07 59.5503 123.843 59.9732 123.57C60.3022 123.343 60.6781 123.071 61.148 123.389C60.9131 123.797 60.4431 123.843 60.1142 124.16Z" fill="white"/>
<path fill-rule="evenodd" clip-rule="evenodd" d="M96.187 103.055C96.234 102.374 95.9051 101.602 96.7509 101.148C96.7039 101.829 96.516 102.465 96.187 103.055Z" fill="white"/>
<path fill-rule="evenodd" clip-rule="evenodd" d="M96.7518 79.3121C95.671 79.1305 96.2819 78.495 96.3759 78.041C96.6109 78.4042 96.7518 78.8581 96.7518 79.3121Z" fill="white"/>
<path fill-rule="evenodd" clip-rule="evenodd" d="M89.1815 115.989C89.0875 115.762 88.7116 115.626 88.8996 115.353C89.1345 115.081 89.4165 115.262 89.6984 115.262C89.6514 115.535 89.5575 115.853 89.1815 115.989Z" fill="white"/>
<path fill-rule="evenodd" clip-rule="evenodd" d="M84.8517 78.7207C85.0396 79.4016 85.0866 80.0825 84.9927 80.7634C84.8047 80.0825 84.7577 79.4016 84.8517 78.7207Z" fill="white"/>
<path fill-rule="evenodd" clip-rule="evenodd" d="M90.7793 113.811C90.3564 113.084 91.0613 113.084 91.4372 112.857C91.3902 113.221 91.1553 113.584 90.7793 113.811Z" fill="white"/>
<path fill-rule="evenodd" clip-rule="evenodd" d="M97.7864 95.788C98.0214 95.2887 97.2695 94.6532 97.9274 94.1992C97.9274 94.7439 98.1154 95.2887 97.7864 95.788Z" fill="white"/>
<path fill-rule="evenodd" clip-rule="evenodd" d="M62.3242 122.388C62.5592 122.025 62.7002 121.48 63.3111 121.571C63.0291 121.888 62.8881 122.433 62.3242 122.388Z" fill="white"/>
<path fill-rule="evenodd" clip-rule="evenodd" d="M97.5977 83.2608C96.8928 82.943 97.3627 82.4891 97.4097 82.0352C97.7387 82.3983 97.5037 82.8522 97.5977 83.2608Z" fill="white"/>
<path fill-rule="evenodd" clip-rule="evenodd" d="M66.8891 117.989C66.7951 117.489 67.0771 117.308 67.547 117.217C67.594 117.671 67.218 117.807 66.8891 117.989Z" fill="white"/>
<path fill-rule="evenodd" clip-rule="evenodd" d="M97.9263 85.6217C97.5973 85.2585 97.8323 84.85 97.7383 84.4414C98.0672 84.8046 97.9732 85.2585 97.9263 85.6217Z" fill="white"/>
<path fill-rule="evenodd" clip-rule="evenodd" d="M97.3633 98.3322C97.4103 98.0144 97.2693 97.6513 97.5512 97.3789C97.5512 97.6967 97.6922 98.0598 97.3633 98.3322Z" fill="white"/>
<path fill-rule="evenodd" clip-rule="evenodd" d="M93.3644 109.588C93.3174 109.315 93.4584 108.998 93.7403 108.861C93.7403 109.179 93.6463 109.451 93.3644 109.588Z" fill="white"/>
<path fill-rule="evenodd" clip-rule="evenodd" d="M97.5508 97.1505C97.5978 96.8328 97.4568 96.4696 97.7387 96.1973C97.7387 96.515 97.8797 96.8782 97.5508 97.1505Z" fill="white"/>
<path fill-rule="evenodd" clip-rule="evenodd" d="M92.3772 107.275C91.8599 107.684 91.7188 108.319 91.3896 108.864C91.2014 109.227 91.3425 109.726 91.0133 110.044C90.4489 110.589 90.0727 111.27 89.8375 112.041C89.5083 112.223 89.3202 112.495 89.2261 112.858C88.3796 114.039 87.486 115.219 86.6395 116.445C86.4043 116.581 86.1692 116.808 86.0281 117.035C85.6518 117.579 85.2285 118.079 84.8523 118.624C84.6171 118.76 84.382 118.987 84.2409 119.214L81.0428 121.983C80.7606 122.573 80.1022 122.573 79.6789 122.981C78.5502 123.844 77.3274 124.661 76.1046 125.342C75.6813 125.66 75.211 125.932 74.7407 126.114C74.4115 126.341 73.9882 126.386 73.753 126.704C73.1416 127.021 72.6243 127.248 72.0599 127.385C71.3074 127.748 70.5079 128.02 69.6614 128.202C69.2381 128.292 68.8618 128.429 68.4856 128.61L67.8742 128.792C67.498 129.019 67.0276 128.746 66.6984 128.973C66.3692 129.11 66.04 129.246 65.7108 129.382C65.1935 129.654 64.6291 129.291 64.1117 129.564C63.6414 129.836 63.03 129.473 62.5127 129.745C61.9954 130.017 61.431 129.654 60.9137 129.927C59.5968 130.063 58.2329 130.063 56.916 129.927C56.4457 129.745 55.9754 129.745 55.5051 129.927C53.6709 129.518 51.8367 129.246 50.0496 128.701C48.3565 128.429 46.8044 127.793 45.4405 126.885C44.7351 126.25 44.4529 125.296 44.641 124.343C44.7821 123.526 44.4529 123.39 43.8415 123.435C42.3365 123.617 42.1484 123.254 42.4306 121.847C42.7598 120.031 42.9009 118.215 43.1831 116.399C43.2771 114.81 43.6534 113.267 44.3588 111.86C44.8762 110.997 45.9109 110.407 46.9926 110.362C49.4852 110.316 52.0248 110.089 54.4704 109.681C57.0101 109.272 59.5498 109.091 62.0894 108.501C64.1117 108.137 66.087 107.684 68.0623 107.139C69.3322 106.685 70.602 106.231 71.8718 105.732C73.4709 104.778 75.1169 104.052 76.6219 102.963C78.6442 101.419 80.5255 99.6942 82.2186 97.7876C82.4537 97.4699 82.7359 97.1521 83.0181 96.789C83.3003 96.4712 83.4884 96.1534 83.6295 95.7903C84.8053 93.7929 85.7459 91.6594 86.4513 89.4351C86.6865 89.1173 86.4043 88.7542 86.6395 88.4364C86.6395 88.2549 86.6865 88.1187 86.8276 88.0279C87.0627 87.6647 86.7806 87.2108 87.0157 86.8476C87.0157 86.6661 87.0627 86.5299 87.2038 86.4391C87.486 85.9852 87.1568 85.4858 87.392 85.0319C87.6741 84.5325 87.3449 83.9424 87.5801 83.4431C87.6741 81.8089 88.8969 80.4017 90.543 80.0839C91.2485 79.8116 92.048 80.1747 92.7535 79.9023C93.8822 80.4925 94.6817 81.5365 94.8698 82.7622C94.9169 83.1253 95.058 83.4431 95.3401 83.7154C95.5753 84.0332 95.2931 84.3964 95.5283 84.7141C95.5283 84.9411 95.4812 85.1681 95.7164 85.3042C95.9986 85.8036 95.6223 86.3937 95.9045 86.893C95.7634 87.5739 96.5159 88.1641 96.0926 88.8904C95.8104 89.3443 96.1397 89.8437 95.9045 90.2976C95.6223 90.6608 95.9515 91.1147 95.7164 91.4778C95.3872 92.2495 95.1991 93.0212 95.105 93.8383C95.058 94.2469 94.8228 94.61 94.5406 94.8824C94.3995 94.7462 94.3525 94.5192 94.3995 94.3377C94.8698 91.9318 94.5877 89.4351 93.6 87.1654C93.3649 86.5299 93.0356 85.9852 92.6594 85.4404C92.4713 85.0773 92.048 84.9411 91.7188 85.1227C91.6717 85.1681 91.6247 85.1681 91.5777 85.2135C90.8722 85.6674 90.3079 86.2575 89.9786 86.9838C88.8029 89.4351 88.0974 92.068 86.7335 94.4285C84.1939 98.7409 80.6666 102.463 76.4338 105.232C73.5649 106.866 70.4609 108.183 67.2158 109.182C65.3345 109.817 63.3593 110.226 61.478 110.68C59.0795 111.27 56.6809 111.587 54.3294 112.314C53.9531 112.45 53.4828 112.495 53.0595 112.541C52.213 112.541 51.4134 112.858 50.755 113.358C49.4852 114.311 48.1683 115.174 46.8044 116.036C46.4752 116.218 46.2401 116.49 46.099 116.853C45.2995 118.578 44.7821 120.394 44.547 122.255C44.547 122.8 44.7351 123.027 45.2054 122.936C46.3812 122.936 47.5099 122.754 48.6386 122.437C51.2724 121.983 53.859 121.483 56.4928 120.848C58.7973 120.349 61.1018 119.668 63.3593 118.85C63.8766 118.624 64.441 118.487 64.9583 118.397C65.3345 118.442 65.7578 118.306 66.04 118.079C67.7801 117.262 69.5673 116.626 71.3545 115.9C72.0599 116.081 72.4362 115.446 72.9065 115.128C74.7407 114.175 76.5749 113.176 78.3621 112.178C78.6913 112.132 78.9735 111.951 79.1616 111.724C80.4784 110.634 81.9364 109.817 83.2532 108.728C85.887 106.685 88.2385 104.37 90.2608 101.782C91.0603 100.738 91.8128 99.6488 92.5183 98.5139C92.9416 97.9692 93.3178 97.3337 93.6 96.6982C93.6941 96.4712 93.7411 96.2442 94.0233 96.2442C94.2584 96.3804 94.0703 96.6982 94.2584 96.8797C94.3995 97.4699 94.3995 98.06 94.2584 98.6501C93.9292 99.1041 94.2584 99.6942 94.0233 100.239C93.7411 100.829 94.0703 101.465 93.8352 102.009C93.6941 102.236 93.6 102.509 93.647 102.781C93.4119 103.144 93.6941 103.598 93.4589 103.961C92.8945 104.506 92.9886 105.323 92.6594 105.959C92.3772 106.413 92.7064 106.912 92.4713 107.366" fill="white"/>
<path fill-rule="evenodd" clip-rule="evenodd" d="M48.5437 122.572C47.2739 123.116 45.863 123.298 44.4991 123.162C44.1228 123.162 44.1699 122.844 44.1699 122.572C44.2639 121.255 44.5931 119.939 45.1105 118.668C45.2516 118.259 45.3456 117.941 45.4397 117.578C45.6748 116.625 46.3333 115.808 47.2268 115.354C48.1204 114.945 48.92 114.401 49.5784 113.765C51.0363 112.676 52.8235 112.04 54.6577 111.859C57.3385 111.132 60.0662 110.588 62.794 109.997C66.4154 109.135 69.9427 107.955 73.3759 106.502C74.8339 105.821 76.1978 105.049 77.4676 104.096C79.8662 102.417 81.9826 100.419 83.7697 98.1496C85.9802 95.5167 87.6262 92.5207 88.6139 89.2977C88.9431 88.2083 89.6956 87.3004 89.9778 86.1655C90.2129 85.2577 91.2476 84.9853 92.0001 84.5313C92.3763 84.3044 92.6115 84.7129 92.7996 84.9399C93.8813 86.4379 94.5398 88.1629 94.7279 89.9786C94.7279 90.7503 94.8219 91.4766 94.916 92.2483C94.963 93.1108 94.8219 93.9733 94.5398 94.745C94.3046 94.8812 94.3516 95.1082 94.3516 95.3352C94.2576 95.3805 94.1635 95.3805 94.0695 95.3352C93.7873 93.9279 93.7873 92.4753 93.5051 91.0227C93.364 90.251 93.317 89.4339 93.364 88.6622C93.364 88.0267 93.0818 87.4366 92.5174 87.028C92.2352 86.8464 92.0001 86.6195 91.812 86.3471C91.7649 86.2563 91.7179 85.984 91.4357 86.0747C91.2476 86.1655 91.1065 86.3471 91.1065 86.5287C91.2476 88.0267 90.1189 88.98 89.6486 90.251C89.3193 91.2497 88.9431 92.2483 88.4728 93.2016C86.7327 96.1522 84.5692 98.9213 82.0766 101.373C78.9256 104.55 75.069 106.956 70.8363 108.499C67.6852 109.77 64.4401 110.905 61.195 111.813C59.737 112.176 58.232 112.449 56.7271 112.585C56.5389 112.585 56.3038 112.54 56.1157 112.63C55.081 113.266 53.8582 113.629 52.6354 113.629C51.7418 113.856 50.9423 114.31 50.3779 114.991C49.3432 115.899 47.9793 116.307 46.9917 117.215C46.5684 117.487 46.3333 117.987 46.4744 118.486C46.6154 119.212 46.0511 119.848 45.863 120.529C45.5337 121.618 45.5337 121.709 46.6625 121.709C47.415 121.618 48.1204 121.936 48.5437 122.572Z" fill="white"/>
<path fill-rule="evenodd" clip-rule="evenodd" d="M83.0193 94.5645H83.2074C83.2074 94.8368 83.1604 95.1092 83.0193 95.3362C82.8782 95.6993 82.8782 96.1079 82.643 96.3802C82.2668 96.5618 82.0316 96.8342 81.8435 97.1519C81.2791 98.4683 80.4326 99.6032 79.3038 100.466C78.034 101.828 76.529 103.008 74.883 103.961C74.0834 104.415 73.2839 105.05 72.2492 104.914C70.1799 105.868 67.9694 106.503 65.6649 106.821C65.1476 106.912 64.5832 107.002 64.0189 107.002C62.749 106.957 61.7143 107.865 60.4445 107.683C60.1153 107.638 59.7391 107.774 59.5039 107.502L64.0189 106.685C64.4892 106.548 65.0065 106.458 65.4768 106.503C65.8531 106.367 66.2763 106.231 66.6526 106.095C73.7072 104.914 79.7271 100.693 83.0193 94.5645Z" fill="white"/>
<path fill-rule="evenodd" clip-rule="evenodd" d="M72.2493 104.915C74.1305 104.234 75.8236 103.235 77.3286 101.964C78.5514 100.92 79.5861 99.7398 80.8089 98.6957C81.3262 98.2418 81.3733 97.6063 81.8436 97.1523C81.7965 97.4247 81.7965 97.6971 81.7025 98.0602C81.8906 97.924 82.0787 97.8333 82.2668 97.7425C81.9847 98.4234 81.5143 99.0135 80.95 99.4674C79.8212 100.421 78.8806 101.601 77.7519 102.509C76.0118 103.916 74.0365 105.006 71.873 105.732C71.873 105.369 72.8137 105.505 72.2493 104.915Z" fill="white"/>
<path fill-rule="evenodd" clip-rule="evenodd" d="M53.1074 107.863C53.2485 107.591 53.4366 107.455 53.7188 107.591C54.048 107.727 54.2832 107.636 54.3773 107.318C54.7065 107.318 54.9887 107.455 55.1297 107.682C54.4713 108.045 53.8129 107.818 53.1074 107.863Z" fill="white"/>
<path fill-rule="evenodd" clip-rule="evenodd" d="M85.4167 86.2568C85.3697 85.7575 85.2287 85.3036 85.6046 84.8496C85.8866 85.3489 86.1686 85.8937 85.4167 86.2568Z" fill="white"/>
<path fill-rule="evenodd" clip-rule="evenodd" d="M87.3906 78.4932C87.8605 78.1755 88.4244 78.0393 88.9884 78.0847C88.4244 78.1755 88.0955 79.0834 87.3906 78.4932Z" fill="white"/>
<path fill-rule="evenodd" clip-rule="evenodd" d="M83.6289 93.7916C83.7229 93.383 83.8169 92.9745 84.0048 92.6113C84.4278 93.0199 84.3338 93.2922 83.6289 93.7916Z" fill="white"/>
<path fill-rule="evenodd" clip-rule="evenodd" d="M56.3047 107.682C56.7746 107.183 57.3385 107.319 57.9024 107.501C57.3855 107.682 56.8216 107.773 56.3047 107.682Z" fill="white"/>
<path fill-rule="evenodd" clip-rule="evenodd" d="M59.127 122.981C59.4559 122.436 60.1138 122.391 60.4897 121.982C60.3957 122.8 59.6909 122.8 59.127 122.981Z" fill="white"/>
<path fill-rule="evenodd" clip-rule="evenodd" d="M89.416 78.0843C89.9334 77.585 90.5918 77.812 91.2032 77.6758C90.6859 78.0389 90.0274 78.2205 89.416 78.0843Z" fill="white"/>
<path fill-rule="evenodd" clip-rule="evenodd" d="M92.8022 79.9016C92.0968 80.3101 91.3443 79.9923 90.5918 80.1285C91.2973 79.6746 92.0497 79.9923 92.8022 79.9016Z" fill="white"/>
<path fill-rule="evenodd" clip-rule="evenodd" d="M93.7877 101.917C93.8817 101.327 93.5997 100.691 93.9757 100.146C93.8817 100.737 94.1636 101.372 93.7877 101.917Z" fill="white"/>
<path fill-rule="evenodd" clip-rule="evenodd" d="M94.2105 95.3809H94.3985C94.3045 95.8348 94.2575 96.2887 94.2105 96.7881C93.9756 96.6519 93.9756 96.3795 93.9756 96.1526C93.7406 95.8348 93.9286 95.5624 94.2105 95.3809Z" fill="white"/>
<path fill-rule="evenodd" clip-rule="evenodd" d="M94.2129 98.5575V96.7871C94.4948 97.3318 94.4948 98.0128 94.2129 98.5575Z" fill="white"/>
<path fill-rule="evenodd" clip-rule="evenodd" d="M87.6276 83.4395C87.5336 83.9842 87.8156 84.5289 87.4396 85.0282C87.4866 84.5289 87.2047 83.9388 87.6276 83.4395Z" fill="white"/>
<path fill-rule="evenodd" clip-rule="evenodd" d="M93.9752 100.145C94.0692 99.6007 93.7872 99.056 94.1632 98.5566C94.0692 99.056 94.3981 99.6461 93.9752 100.145Z" fill="white"/>
<path fill-rule="evenodd" clip-rule="evenodd" d="M95.9994 86.8486C95.5765 86.3492 95.9054 85.8045 95.8114 85.2598C96.1874 85.7591 95.9054 86.3038 95.9994 86.8486Z" fill="white"/>
<path fill-rule="evenodd" clip-rule="evenodd" d="M96.0007 90.2041C96.0477 89.7501 95.8127 89.2508 96.1886 88.7969C96.0946 89.2962 96.3766 89.7955 96.0007 90.2041Z" fill="white"/>
<path fill-rule="evenodd" clip-rule="evenodd" d="M83.6304 95.7891C83.6774 96.1976 83.4425 96.6062 83.0195 96.7877C83.1135 96.3792 83.3015 96.016 83.6304 95.7891Z" fill="white"/>
<path fill-rule="evenodd" clip-rule="evenodd" d="M92.3796 107.276C92.4266 106.822 92.1916 106.323 92.5675 105.869C92.5206 106.368 92.7555 106.868 92.3796 107.276Z" fill="white"/>
<path fill-rule="evenodd" clip-rule="evenodd" d="M91.0117 110.088C91.1527 109.68 91.1057 109.226 91.3876 108.908C91.3407 109.317 91.5286 109.816 91.0117 110.088Z" fill="white"/>
<path fill-rule="evenodd" clip-rule="evenodd" d="M87.3917 85.0762C87.2977 85.5301 87.5796 86.0294 87.2037 86.4834C87.2977 85.9841 87.0157 85.4847 87.3917 85.0762Z" fill="white"/>
<path fill-rule="evenodd" clip-rule="evenodd" d="M93.3659 103.915C93.4129 103.506 93.1779 103.052 93.5539 102.734C93.5069 103.098 93.7418 103.551 93.3659 103.915Z" fill="white"/>
<path fill-rule="evenodd" clip-rule="evenodd" d="M84.6176 90.7951C84.4296 90.5228 84.5236 90.205 84.7586 90.0234C84.7586 90.0234 84.7586 90.0234 84.8055 90.0234C84.9935 90.2958 84.8995 90.659 84.6176 90.7951Z" fill="white"/>
<path fill-rule="evenodd" clip-rule="evenodd" d="M95.7624 91.3873C95.8094 90.9787 95.5744 90.5248 95.9503 90.207C95.9034 90.6156 96.1383 91.0695 95.7624 91.3873Z" fill="white"/>
<path fill-rule="evenodd" clip-rule="evenodd" d="M87.0148 86.8457C86.9678 87.2542 87.1558 87.7082 86.8268 88.0259C86.8738 87.6174 86.6389 87.1635 87.0148 86.8457Z" fill="white"/>
<path fill-rule="evenodd" clip-rule="evenodd" d="M82.6426 96.3795C82.6896 96.0164 82.8305 95.6986 83.0185 95.3809C83.0185 95.744 83.0655 96.1526 82.6426 96.3795Z" fill="white"/>
<path fill-rule="evenodd" clip-rule="evenodd" d="M51.9316 107.866C51.9316 107.684 52.0256 107.503 52.2606 107.548C52.4486 107.548 52.4955 107.73 52.4955 107.911H51.9316V107.866Z" fill="white"/>
<path fill-rule="evenodd" clip-rule="evenodd" d="M89.1785 112.858C89.1315 112.449 89.2255 112.086 89.7894 112.086L89.1785 112.858Z" fill="white"/>
<path fill-rule="evenodd" clip-rule="evenodd" d="M85.2304 87.4358C85.2304 87.2089 85.1834 86.9819 85.4184 86.8457C85.7473 87.1635 85.4184 87.2543 85.2304 87.4358Z" fill="white"/>
<path fill-rule="evenodd" clip-rule="evenodd" d="M86.5923 88.4355C86.5453 88.7533 86.7333 89.1619 86.4043 89.4342C86.4513 89.0711 86.2633 88.7079 86.5923 88.4355Z" fill="white"/>
<path fill-rule="evenodd" clip-rule="evenodd" d="M63.6876 119.213C63.6406 118.895 63.8756 118.623 64.2045 118.623C64.2515 118.623 64.2515 118.623 64.2985 118.623C64.1576 118.85 63.9696 119.077 63.6876 119.213Z" fill="white"/>
<path fill-rule="evenodd" clip-rule="evenodd" d="M65.4766 116.989C65.4766 116.716 65.6645 116.444 65.9935 116.398C66.0405 116.398 66.0405 116.398 66.0875 116.398C65.9465 116.671 65.7585 116.898 65.4766 116.989Z" fill="white"/>
<path fill-rule="evenodd" clip-rule="evenodd" d="M95.5747 84.6666C95.2458 84.3943 95.4337 84.0311 95.3867 83.668C95.7157 83.9403 95.5277 84.3035 95.5747 84.6666Z" fill="white"/>
<path fill-rule="evenodd" clip-rule="evenodd" d="M66.6984 106.096C66.3224 106.368 65.8995 106.504 65.4766 106.504C65.8055 106.186 66.2284 106.005 66.6984 106.096Z" fill="white"/>
<path fill-rule="evenodd" clip-rule="evenodd" d="M94.2108 95.3805C94.1167 95.6529 94.0697 95.9252 93.9756 96.1976C93.6934 97.0601 93.2231 97.8772 92.5647 98.5581C92.2825 98.1495 92.5177 97.741 92.4236 97.287C92.2355 96.7423 91.9533 96.5607 91.483 96.9239C88.8963 99.1028 85.8863 100.646 83.4407 103.052C82.0769 104.232 80.6189 105.231 79.0198 106.094C78.5025 106.411 78.0792 106.82 77.6089 107.138C74.7401 109.135 71.4479 110.542 68.6731 112.676C66.0394 114.718 63.1705 116.307 60.5838 118.35C59.314 119.394 57.809 120.029 56.4921 120.983C53.9054 121.754 51.2247 122.299 48.4969 122.572C47.7444 121.981 46.7097 121.8 45.8162 122.118C45.3929 122.299 45.2988 121.936 45.2988 121.618C45.3929 120.756 45.6751 119.939 46.0513 119.167C46.0983 118.985 46.2865 118.804 46.2394 118.758C45.3929 117.351 46.8038 116.988 47.4152 116.534C48.685 115.672 50.0489 114.9 51.2247 113.947C51.8831 113.447 52.6827 113.22 53.5292 113.22C54.0936 113.266 54.6579 113.13 55.1282 112.812C56.4921 112.176 57.9971 111.813 59.5021 111.859C60.6308 111.677 61.7125 111.45 62.7472 111.041C64.9106 110.406 67.074 109.725 69.1904 108.908C73.8465 107.319 78.0322 104.822 81.5595 101.509C83.6759 99.3298 85.6042 97.0147 87.3913 94.5634C88.0027 93.6555 88.5201 92.7022 88.8493 91.6582C89.1785 90.3417 89.7899 89.0707 90.6364 87.9812C90.9186 87.6635 90.7775 87.3003 90.7775 86.9372C90.7305 86.4378 90.9656 85.9385 91.3889 85.6661C91.53 85.5754 91.9063 85.4392 91.9063 85.6208C91.8122 86.6648 92.8469 86.801 93.3172 87.3457C94.0697 88.2082 93.6464 89.1615 93.7405 90.0694C94.0226 91.7944 94.2108 93.6101 94.2108 95.3805Z" fill="white"/>
<path fill-rule="evenodd" clip-rule="evenodd" d="M61.6188 127.792C60.9604 128.11 60.1138 127.429 59.1732 127.474C58.7029 127.52 58.5618 127.111 58.844 126.703C58.9381 126.567 59.0792 126.476 59.2202 126.385C61.4307 125.159 63.5471 123.752 65.6164 122.254C67.5447 121.029 69.3319 119.667 71.2131 118.396C74.223 116.398 77.186 114.31 80.1959 112.267C82.3123 110.86 84.3817 109.317 86.5921 107.955C86.9684 107.637 87.3446 107.319 87.6738 106.911C88.003 106.593 88.3793 106.321 88.8496 106.23C89.461 106.094 89.7902 106.094 89.414 106.82C89.3669 106.911 89.3199 107.002 89.3199 107.093C89.6962 109.271 88.1912 110.769 87.3917 112.494C86.451 114.083 85.3693 115.627 84.1465 117.034C83.1119 118.35 81.8891 119.531 80.5252 120.484C78.4558 122.254 76.1513 123.752 73.6117 124.887C71.6834 125.795 69.7081 126.521 67.6387 127.111C65.6164 127.52 63.6411 127.747 61.6188 127.792Z" fill="white"/>
<path fill-rule="evenodd" clip-rule="evenodd" d="M56.4922 120.981C56.6333 120.618 56.8684 120.346 57.1976 120.164C60.772 118.167 63.923 115.58 67.3563 113.355C69.3316 111.812 71.448 110.45 73.7054 109.224C75.6807 108.135 77.609 106.909 79.4432 105.547C82.7353 103.641 85.322 100.826 88.5201 98.7837C89.6018 98.1936 90.5895 97.4219 91.4831 96.6048C91.9534 96.1055 92.3766 96.2416 92.6118 97.0133C92.7529 97.5127 92.7529 98.0574 92.6118 98.5567C90.7306 101.734 88.332 104.594 85.4631 107.045C83.4878 108.816 81.3244 110.223 79.2551 111.857C79.0199 111.993 78.7377 112.13 78.4555 112.266C76.6684 113.401 74.8342 114.399 72.8589 115.216C72.4826 115.58 72.0123 115.852 71.448 116.033L66.0865 118.212C65.8043 118.439 65.381 118.394 65.0988 118.621C63.3116 118.939 61.7596 119.847 59.9725 120.21C58.8437 120.527 57.715 120.8 56.4922 120.981Z" fill="white"/>
<path fill-rule="evenodd" clip-rule="evenodd" d="M71.4473 116.036C71.8702 115.673 72.3401 115.4 72.857 115.219C72.4811 115.673 72.1991 116.308 71.4473 116.036Z" fill="white"/>
<path fill-rule="evenodd" clip-rule="evenodd" d="M44.5488 118.576C44.7838 118.303 45.1597 118.122 45.5357 118.167C45.3477 118.666 44.9248 118.576 44.5488 118.576Z" fill="white"/>
<path fill-rule="evenodd" clip-rule="evenodd" d="M78.457 112.266C78.645 112.039 78.927 111.903 79.2559 111.857C79.1149 112.175 78.786 112.311 78.457 112.266Z" fill="white"/>
<path fill-rule="evenodd" clip-rule="evenodd" d="M56.9155 114.399C56.9155 113.537 57.4799 113.628 57.9972 113.628C58.3735 113.628 58.7027 113.764 58.6556 114.172C58.5616 114.763 57.9972 115.217 57.3858 115.217C56.7274 115.217 56.9155 114.717 56.9155 114.399Z" fill="white"/>
</g>
</g>
<defs>
<clipPath id="clip0_5470_730">
<rect width="216" height="206.929" fill="white"/>
</clipPath>
<clipPath id="clip1_5470_730">
<rect width="145.701" height="61.1005" fill="white" transform="translate(35 73)"/>
</clipPath>
</defs>
</svg>
