<svg width="188" height="49" viewBox="0 0 188 49" fill="none" xmlns="http://www.w3.org/2000/svg">
<g clip-path="url(#clip0_73_1924)">
<path d="M27.5269 48.4081C15.5218 49.4604 11.1651 36.2619 15.74 23.2367C18.1205 16.4674 14.3797 10.7183 6.78273 13.5672C-8.26368 19.2136 3.09973 53.1691 27.5269 48.4081V48.4081Z" fill="url(#paint0_linear_73_1924)"/>
<path d="M42.1498 8.95368C49.0602 18.8477 39.827 29.2294 26.2885 31.7703C19.2497 33.0921 16.1506 39.2133 22.413 44.3785C34.8094 54.6127 58.4795 27.7729 42.1498 8.94727V8.95368Z" fill="url(#paint1_linear_73_1924)"/>
<path d="M0.746094 15.9927C5.83428 5.03998 19.4242 7.86319 28.3943 18.3476C33.0526 23.7951 39.8924 23.4293 41.227 15.4089C43.8706 -0.484521 8.84357 -7.60671 0.746094 15.9927Z" fill="url(#paint2_linear_73_1924)"/>
<path d="M39.5308 32.7994C39.8773 32.7994 42.4567 33.518 42.4567 34.1019C42.4567 34.365 42.0204 34.9489 42.0204 36.0589C42.0204 38.279 44.7538 38.927 46.7043 38.927C50.1692 38.927 51.5359 37.6887 52.0749 34.2046C55.0007 15.8794 54.9558 14.8078 55.1996 14.4485C55.5397 13.993 57.0026 13.6016 57.4454 13.6016C57.7405 13.6016 57.9843 13.6978 57.9843 14.1855C57.9843 14.4806 56.0787 27.7818 55.6937 30.5216C54.9622 35.6739 53.3517 39.9151 46.8134 39.9151C42.8609 39.9151 38.6133 37.9581 38.6133 34.1468C38.6133 33.1074 39.1523 32.8058 39.5372 32.8058L39.5308 32.7994Z" fill="white"/>
<path d="M73.4536 24.0375C73.6461 23.4793 74.1337 23.1905 75.2052 23.1905C75.5004 23.1905 75.9367 23.2226 75.9367 23.7103C75.9367 24.0375 74.9614 28.3365 74.8138 29.7096C74.6213 31.6666 74.2749 33.0654 74.2749 33.553C74.2749 34.0086 74.3711 34.432 75.494 34.5026C76.9056 34.5668 77.0532 34.5668 77.0532 34.7914C77.0532 35.1507 75.1539 35.6062 73.4471 35.6062C71.8816 35.6062 71.4452 35.048 71.4452 34.0727C71.4452 33.4247 71.6377 31.596 71.7853 30.6528L71.6891 30.5886C68.9557 34.0086 66.171 35.6127 63.5403 35.6127C61.0956 35.6127 60.5117 34.4705 60.5117 33.1359C60.5117 32.2569 60.6144 31.8976 61.2945 28.3429C62.026 24.4995 62.4174 23.7167 62.6099 23.5499C62.905 23.3253 64.0215 22.998 64.5155 22.998C64.9069 22.998 65.0481 23.2226 65.0481 23.4215C65.0481 24.1722 64.368 26.418 64.0728 28.0798C63.5852 30.8838 63.3413 32.52 63.3413 33.0397C63.3413 33.7198 64.0215 34.1754 65.0032 34.1754C68.5643 34.1754 71.6377 29.0872 72.4205 26.88L73.4471 24.0439L73.4536 24.0375Z" fill="white"/>
<path d="M85.8526 34.5009C85.1661 35.4762 84.8773 35.611 84.4859 35.611C84.0496 35.611 83.6582 34.8923 83.0679 32.9353C81.5087 27.5905 80.1934 24.8828 80.1934 23.7086C80.1934 23.4134 80.2896 23.0926 80.7259 23.0926C80.9697 23.0926 82.2402 23.484 82.7727 23.8112C83.1192 24.0102 83.1641 24.2026 83.3566 24.8571C85.4099 31.7676 85.5061 32.2616 85.8975 32.2616C86.09 32.2616 86.2889 32.1333 88.6309 28.6107C91.8006 23.8497 91.8968 22.9707 92.4358 22.9707C92.7823 22.9707 93.2186 23.4904 93.2186 23.6893C93.2186 23.9781 92.8785 24.4657 85.8526 34.5138V34.5009Z" fill="white"/>
<path d="M105.318 25.2033C105.318 27.8469 98.8764 29.7012 98.1962 29.7012C97.9973 29.7012 97.9011 29.5986 97.9011 29.4702C97.9011 28.3923 100.634 23.8623 103.804 23.8623C104.876 23.8623 105.318 24.581 105.318 25.2033V25.2033ZM107.519 16.1113C107.224 16.1113 106.935 16.1113 106.64 16.368L101.032 21.0969C100.936 21.1931 100.885 21.2958 100.885 21.3278C100.885 21.4241 100.981 21.4883 101.173 21.4883H102.052C102.399 21.4883 102.636 21.4562 102.887 21.2573L109.617 16.4321C109.714 16.368 109.765 16.3038 109.765 16.2717C109.765 16.1755 109.617 16.1113 109.425 16.1113H107.519V16.1113ZM97.561 31.6582C97.5097 31.0358 97.7086 30.9781 99.5116 30.3878C102.88 29.3098 107.757 27.3528 107.757 25.0109C107.757 23.8046 106.73 23.0859 104.735 23.0859C101.757 23.0859 96.3868 25.2033 94.9752 29.9964C94.68 30.9781 93.416 30.5546 93.416 31.1385C93.416 31.6646 94.5902 31.2732 94.6415 32.024C94.7827 34.4044 96.6884 35.6107 99.9094 35.6107C101.719 35.6107 104.106 35.1872 105.716 34.5007C106.935 33.9745 107.327 33.8141 107.327 33.5511C107.327 33.3265 107.224 33.2302 106.935 33.2302C106.647 33.2302 104.298 34.3659 101.27 34.3659C99.903 34.3659 97.7086 33.8141 97.561 31.6582V31.6582Z" fill="white"/>
<path d="M113.422 31.7229C113.422 29.5413 114.834 27.4239 116.451 26.1535C117.869 25.0114 119.428 24.5879 122.7 24.5879C124.259 24.5879 124.792 24.5879 124.792 25.3065C124.792 26.609 120.255 34.3023 115.963 34.3023C114.301 34.3023 113.422 33.1922 113.422 31.7229ZM126.21 33.3206C126.21 30.8439 129.963 13.1731 129.963 12.7497C129.963 12.4545 129.816 12.3262 129.476 12.3262C127.769 12.3262 127.666 12.6213 126.986 15.3868C125.921 19.8205 125.427 22.5218 125.132 22.9196C124.888 23.2789 122.501 23.1827 119.716 23.7666C113.91 25.0049 110.586 29.9905 110.586 32.5699C110.586 34.0392 111.856 35.6048 114.93 35.6048C118.985 35.6048 121.519 32.8329 123.81 29.7659L123.913 29.8365C123.72 31.2032 123.38 33.3527 123.38 33.7761C123.38 34.7899 123.964 35.6048 125.774 35.6048C127.429 35.6048 129.822 34.9503 129.822 34.5269C129.822 34.4306 129.726 34.2702 129.534 34.2702C129.29 34.2702 128.263 34.3985 127.628 34.3985C126.46 34.3985 126.216 34.0392 126.216 33.3206H126.21Z" fill="white"/>
<path d="M139.19 34.3679C142.219 34.3679 144.561 33.2322 144.856 33.2322C145.151 33.2322 145.241 33.3284 145.241 33.553C145.241 33.8161 144.856 33.9765 143.63 34.5026C142.026 35.1828 139.626 35.6127 137.823 35.6127C134.602 35.6127 132.697 34.4064 132.549 32.0259C132.504 31.2752 131.33 31.6666 131.33 31.1404C131.33 30.5566 132.601 30.98 132.896 29.9983C134.314 25.2053 139.684 23.0879 142.661 23.0879C144.663 23.0879 145.684 23.8065 145.684 25.0128C145.684 27.3612 140.801 29.3118 137.432 30.3897C135.629 30.9736 135.43 31.0378 135.481 31.6602C135.629 33.8097 137.823 34.3679 139.19 34.3679V34.3679ZM141.731 23.8707C138.555 23.8707 135.822 28.4007 135.822 29.4786C135.822 29.6069 135.924 29.7096 136.117 29.7096C136.797 29.7096 143.239 27.8488 143.239 25.2117C143.239 24.5893 142.796 23.8707 141.725 23.8707H141.731Z" fill="white"/>
<path d="M155.148 25.3694C153.338 25.4977 153.293 25.7608 152.953 27.8782C152.074 33.2936 151.927 34.4293 151.734 34.7244C151.195 35.4752 149.976 35.5778 149.681 35.5778C149.193 35.5778 149.148 35.3468 149.148 35.0196C149.148 34.301 149.681 31.9526 150.515 27.3264C150.714 26.2163 151.054 24.1631 151.202 24.0027C151.446 23.7075 152.857 23.3161 153.101 23.3161C153.544 23.3161 153.595 23.5407 153.595 23.6754V24.7149C153.595 24.7149 153.595 24.8496 153.736 24.8496C153.832 24.8496 155.154 24.131 155.443 24.0348C156.758 23.5407 159.004 23.252 159.691 23.252C160.377 23.252 160.422 23.515 160.422 23.7075C160.422 24.9138 159.986 24.9459 158.908 25.0485L155.148 25.3758V25.3694Z" fill="white"/>
<path d="M173.987 25.467C173.987 25.0114 173.942 24.389 173.159 24.389C170.964 24.389 165.883 29.381 164.664 33.7441C164.522 34.2702 164.176 35.5343 162.469 35.5343C161.834 35.5343 161.834 35.1493 161.834 34.9825C161.834 34.4948 161.975 33.3848 163.881 24.2222C164.028 23.5036 165.446 23.0801 166.082 23.0801C166.428 23.0801 166.614 23.2405 166.614 23.4394C166.614 23.7666 166.319 24.8061 165.645 29.15L165.742 29.2141C168.719 25.5568 171.6 23.0865 174.724 23.0865C176.431 23.0865 176.816 23.9655 176.816 24.9087C176.816 25.4285 176.476 26.5385 176.04 28.6559L176.136 28.6944C179.408 24.2607 181.949 23.0865 183.707 23.0865C185.267 23.0865 186.191 23.8051 186.191 24.9793C186.191 26.0894 185.754 27.5202 185.267 29.6055C184.676 32.1208 184.432 33.1923 184.432 33.7441C184.432 34.1034 184.432 34.4948 186.486 34.4948C187.115 34.4948 187.461 34.5205 187.461 34.7836C187.461 35.207 185.703 35.5984 184.144 35.5984C182.142 35.5984 181.41 35.0402 181.41 34.0328C181.41 33.2821 182.046 31.261 182.533 29.1756C183.021 27.0582 183.367 26.0124 183.367 25.2937C183.367 24.774 183.124 24.4147 182.533 24.4147C180.48 24.4147 175.655 29.8301 174.968 32.7624C174.577 34.328 174.141 35.4316 172.671 35.4316C172.331 35.4316 171.991 35.207 171.991 34.6809C171.991 33.8019 173.987 27.116 173.987 25.4541V25.467Z" fill="white"/>
</g>
<defs>
<linearGradient id="paint0_linear_73_1924" x1="23.4206" y1="52.7648" x2="9.18124" y2="17.5245" gradientUnits="userSpaceOnUse">
<stop stop-color="#969696"/>
<stop offset="1" stop-color="#F9F9F9"/>
</linearGradient>
<linearGradient id="paint1_linear_73_1924" x1="44.594" y1="19.0781" x2="19.2493" y2="39.9314" gradientUnits="userSpaceOnUse">
<stop stop-color="#969696"/>
<stop offset="1" stop-color="#F9F9F9"/>
</linearGradient>
<linearGradient id="paint2_linear_73_1924" x1="9.94709" y1="4.6421" x2="25.958" y2="-4.95023" gradientUnits="userSpaceOnUse">
<stop stop-color="#969696"/>
<stop offset="1" stop-color="#F9F9F9"/>
</linearGradient>
<clipPath id="clip0_73_1924">
<rect width="188" height="48.7645" fill="white" transform="translate(0 0.150391)"/>
</clipPath>
</defs>
</svg>
