<svg width="231" height="127" viewBox="0 0 231 127" fill="none" xmlns="http://www.w3.org/2000/svg">
<g clip-path="url(#clip0_503_3680)">
<g clip-path="url(#clip1_503_3680)">
<path d="M61.9725 46.0558C61.9748 46.1773 61.9793 46.2993 61.9793 46.4208C61.9793 57.8161 61.9793 69.212 61.9793 80.6074C61.9793 80.7288 61.9748 80.8509 61.9725 80.9723C50.4181 80.9723 38.8636 80.9717 27.3091 80.9774C27.0983 80.9774 27.0505 80.9301 27.051 80.7193C27.0572 69.2491 27.0572 57.779 27.051 46.3089C27.051 46.098 27.0983 46.0502 27.3091 46.0508C38.8636 46.057 50.4181 46.0558 61.9725 46.0558V46.0558ZM43.6406 70.7093C43.7232 70.7813 43.6985 70.851 43.6985 70.9112C43.7002 72.0166 43.7002 73.1226 43.6996 74.228C43.6996 75.4087 43.6951 76.5889 43.7024 77.7697C43.7041 78.0109 43.6153 78.1121 43.3735 78.102C43.121 78.0918 42.8675 78.1036 42.6144 78.0997C42.4429 78.0969 42.3507 78.1593 42.3547 78.3449C42.3603 78.635 42.3597 78.9257 42.3547 79.2164C42.3519 79.3862 42.4317 79.4474 42.5948 79.4474C43.7659 79.4446 44.9371 79.4446 46.1083 79.4474C46.2753 79.4474 46.3462 79.3721 46.3445 79.209C46.3417 78.9279 46.3394 78.6468 46.3456 78.3657C46.3495 78.1722 46.2601 78.0952 46.0729 78.1003C45.8671 78.1059 45.6602 78.0907 45.455 78.1031C45.1913 78.1194 45.0906 78.0182 45.0934 77.7455C45.1047 76.7711 45.1306 75.795 45.0873 74.8228C45.0305 73.5583 45.0721 72.2944 45.0485 71.0304C45.0473 70.959 45.0159 70.8555 45.0906 70.824C45.1947 70.7802 45.225 70.9005 45.27 70.9612C45.55 71.3385 45.8592 71.6882 46.2202 71.9902C47.4516 73.0191 48.846 73.5122 50.4462 73.1602C52.955 72.6087 54.5552 70.0785 54.0638 67.5078C53.9333 66.8264 53.6865 66.1961 53.2929 65.6237C53.2536 65.5663 53.1703 65.5005 53.2294 65.4291C53.2603 65.392 53.3503 65.3971 53.4138 65.3954C53.6381 65.3898 53.8619 65.3982 54.0857 65.36C55.2518 65.1604 56.1942 64.5728 56.987 63.7142C58.2566 62.3395 58.5804 60.2226 57.7314 58.5549C56.8453 56.8142 55.4385 55.8296 53.4571 55.7357C53.2789 55.7273 53.1827 55.7037 53.2834 55.494C53.781 54.4594 53.7557 53.3872 53.465 52.3116C52.7925 49.8252 50.4518 48.3589 47.9351 48.8812C46.4069 49.1983 45.2312 50.0383 44.5109 51.4575C44.4783 51.5222 44.4637 51.6222 44.3816 51.6256C44.277 51.6307 44.2737 51.5132 44.2315 51.4457C44.2017 51.3985 44.1826 51.3445 44.1545 51.2961C43.1626 49.6093 41.6389 48.8059 39.7317 48.7834C38.3755 48.7671 37.2055 49.3316 36.3284 50.3791C35.0908 51.8578 34.7456 53.5277 35.4096 55.3663C35.5429 55.7352 35.5592 55.7296 35.1622 55.7824C32.9373 56.0804 31.1016 58.0989 31.0009 60.3581C30.8879 62.8933 32.9745 65.2267 35.5035 65.392C35.6486 65.4016 35.7959 65.3993 35.6469 65.6068C34.9688 66.5525 34.7118 67.6208 34.7692 68.7667C34.8327 70.0279 35.3078 71.1288 36.2356 71.9834C37.5535 73.1973 39.1318 73.506 40.8399 73.0838C42.1146 72.7689 43.1542 72.1144 43.6035 70.7807C43.6119 70.7554 43.6282 70.733 43.6406 70.7099V70.7093Z" fill="#EEEEEE"/>
<path d="M204 52.0156C203.813 52.6746 203.484 53.2351 202.907 53.6327C201.426 54.6543 199.331 53.7783 198.983 51.9892C198.722 50.6437 199.548 49.3392 200.876 48.9985C202.181 48.664 203.485 49.3983 203.915 50.7095C203.941 50.7893 203.971 50.868 203.999 50.9473V52.0156H204ZM203.54 51.5079C203.578 50.5576 202.863 49.4286 201.51 49.4028C200.37 49.3814 199.403 50.3732 199.408 51.4938C199.414 52.6189 200.364 53.5753 201.482 53.5804C202.621 53.586 203.539 52.6611 203.541 51.5079H203.54Z" fill="#EEEEEE"/>
<path d="M93.1297 56.5354C93.3433 56.7103 93.5564 56.8862 93.7712 57.06C94.6017 57.7313 95.4299 58.406 96.2665 59.0695C96.4453 59.2112 96.5179 59.3636 96.5173 59.5924C96.5111 63.4529 96.5111 67.3139 96.5173 71.1744C96.5173 71.4044 96.4498 71.5568 96.2649 71.6928C95.6306 72.159 95.0076 72.6397 94.3779 73.112C94.3071 73.1648 94.2368 73.27 94.1389 73.2222C94.0411 73.1738 94.0777 73.0546 94.0777 72.9652C94.0715 70.9883 94.067 69.0109 94.0625 67.0339C94.0617 66.7438 93.9124 66.5988 93.6144 66.5988C92.293 66.5988 90.9717 66.6049 89.6504 66.5937C89.3856 66.5914 89.2934 66.6645 89.2934 66.94C89.2928 68.3541 89.2686 69.7682 89.2647 71.1823C89.2641 71.3909 89.2023 71.5315 89.0381 71.6585C88.4011 72.1516 87.773 72.6566 87.1393 73.1542C87.0758 73.2042 87.0123 73.2953 86.9246 73.2604C86.8267 73.2222 86.8678 73.1126 86.8678 73.0344C86.8661 70.5981 86.8672 68.1618 86.8678 65.7256C86.8683 63.7205 86.8762 61.7149 86.8644 59.7099C86.8627 59.3996 86.9516 59.1921 87.2001 58.9987C88.1542 58.257 89.0915 57.4935 90.035 56.7378C90.1205 56.6692 90.202 56.5956 90.2908 56.5196C90.2048 56.4443 90.1171 56.4758 90.0384 56.4758C88.3893 56.4747 86.7401 56.478 85.0905 56.4758C84.924 56.4758 84.7891 56.509 84.6592 56.6293C82.6368 58.4988 80.6098 60.3633 78.5851 62.23C78.5604 62.253 78.5446 62.2851 78.5036 62.3424C78.9702 62.3632 79.4054 62.3925 79.8406 62.3987C80.5153 62.4082 81.1901 62.4065 81.8648 62.3981C82.0492 62.3958 82.1847 62.4538 82.3073 62.5893C82.716 63.0408 83.1299 63.4872 83.5465 63.9314C83.65 64.0416 83.691 64.1619 83.6904 64.3115C83.6859 66.6353 83.6842 68.9591 83.6854 71.283C83.6854 71.4589 83.6269 71.5815 83.4818 71.6844C82.8094 72.1618 82.1431 72.6476 81.4729 73.1277C81.4003 73.1795 81.3239 73.2829 81.23 73.2256C81.1434 73.1727 81.1833 73.0535 81.1833 72.9636C81.1816 70.4148 81.1822 67.8661 81.1816 65.3174C81.1816 65.0452 81.042 64.909 80.7627 64.9086C79.451 64.9097 78.1392 64.9176 76.8269 64.9069C76.5587 64.9047 76.4704 64.9834 76.4727 65.2561C76.4879 67.1582 76.489 69.0603 76.4963 70.9625C76.4963 71.0648 76.5075 71.1683 76.5238 71.2695C76.5525 71.4499 76.4777 71.5658 76.3338 71.6715C75.6692 72.159 75.0108 72.656 74.349 73.148C74.2759 73.202 74.2045 73.3082 74.1112 73.27C73.992 73.2216 74.0471 73.0884 74.0471 72.9934C74.0443 70.2383 74.0448 67.4832 74.0448 64.7287C74.0448 62.1333 74.0448 59.5373 74.0448 56.9419C74.0448 56.6334 73.8951 56.4792 73.5956 56.4792C72.2557 56.4792 70.9158 56.4803 69.5754 56.4769C69.4703 56.4769 69.3196 56.5348 69.269 56.4184C69.2201 56.306 69.3595 56.2267 69.4264 56.1429C69.9347 55.5053 70.4542 54.8773 70.953 54.2329C71.1081 54.0322 71.2791 53.9389 71.5259 53.9715C71.572 53.9777 71.6192 53.9726 71.6665 53.9726C82.6862 53.9715 93.706 53.999 104.726 53.9569C110.516 53.9349 116.306 53.949 122.096 53.9316C125.994 53.9197 129.893 53.9242 133.791 53.922C133.837 53.922 133.885 53.9231 133.931 53.922C134.146 53.9181 134.151 54.008 134.04 54.157C133.695 54.6237 133.351 55.0921 133.006 55.5599C132.833 55.7938 132.655 56.0232 132.489 56.2616C132.382 56.4156 132.25 56.4747 132.063 56.4735C131.201 56.4679 130.339 56.4735 129.477 56.4775C129.425 56.4775 129.365 56.4539 129.303 56.5264C129.762 56.8958 130.219 57.2641 130.676 57.6324C131.267 58.1086 131.855 58.5882 132.45 59.0583C132.597 59.1741 132.658 59.3023 132.658 59.4884C132.652 63.3399 132.649 67.1908 132.649 71.0423C132.649 71.2385 132.581 71.3769 132.43 71.4994C131.773 72.0291 131.125 72.5677 130.469 73.0979C130.396 73.157 130.326 73.2846 130.213 73.2177C130.126 73.1665 130.165 73.0456 130.165 72.9551C130.163 70.9968 130.164 69.0384 130.163 67.08C130.163 66.7865 130.012 66.6396 129.71 66.6392C128.399 66.6392 127.086 66.646 125.775 66.6336C125.495 66.6308 125.402 66.7073 125.405 66.9968C125.419 68.3744 125.408 69.7519 125.415 71.1289C125.416 71.3364 125.359 71.4781 125.188 71.6029C124.524 72.0909 123.869 72.5925 123.209 73.0867C123.136 73.1412 123.065 73.2475 122.972 73.2104C122.851 73.1626 122.907 73.0293 122.907 72.9343C122.903 69.0362 122.901 65.138 122.9 61.2398C122.9 60.668 122.909 60.0962 122.896 59.5249C122.891 59.3051 122.963 59.1617 123.14 59.0313C124.219 58.2368 125.29 57.4316 126.364 56.6304C126.408 56.5978 126.449 56.5624 126.529 56.4977H115.126C115.145 56.6141 115.248 56.6535 115.322 56.7125C117.181 58.2126 119.042 59.7116 120.901 61.2106C121.221 61.4687 121.222 61.4709 120.891 61.7149C118.734 63.305 116.578 64.8962 114.416 66.4796C114.229 66.6167 114.159 66.7635 114.161 66.9935C114.17 68.38 114.161 69.7671 114.17 71.1542C114.172 71.3853 114.097 71.5377 113.913 71.6726C113.256 72.1556 112.609 72.6509 111.956 73.139C111.885 73.1918 111.815 73.3003 111.719 73.2531C111.62 73.2053 111.666 73.0844 111.666 72.9962C111.664 71.1969 111.664 69.3977 111.664 67.5985C111.664 64.7967 111.664 61.995 111.663 59.1932C111.663 59.0931 111.71 58.9554 111.622 58.9014C111.515 58.835 111.42 58.9604 111.328 59.0138C110.931 59.2449 110.536 59.4783 110.149 59.724C109.991 59.8241 109.904 59.7926 109.81 59.6419C109.526 59.1791 109.24 58.7164 108.937 58.2655C108.804 58.0676 108.869 57.9815 109.046 57.8736C109.764 57.4344 110.475 56.983 111.202 56.5275C111.12 56.4404 111.033 56.4719 110.958 56.4719C108.147 56.4696 105.336 56.4735 102.525 56.4651C102.252 56.4645 102.175 56.5523 102.176 56.8193C102.18 60.2115 102.177 63.6036 102.171 66.9957C102.17 67.5664 102.155 68.1377 102.129 68.7078C102.12 68.9282 102.198 69.0468 102.397 69.1385C103.435 69.617 104.469 70.1028 105.499 70.5976C105.685 70.6864 105.813 70.6392 105.96 70.534C106.885 69.8784 107.814 69.2273 108.74 68.5751C108.863 68.4891 108.988 68.4059 109.109 68.3165C109.302 68.1725 109.369 68.2439 109.369 68.4582C109.367 69.2549 109.366 70.051 109.369 70.8478C109.37 71.008 109.298 71.1064 109.168 71.1879C108.094 71.8559 107.021 72.5267 105.95 73.1997C105.835 73.2722 105.732 73.2779 105.609 73.2222C103.697 72.3558 101.785 71.4921 99.8723 70.6296C99.7447 70.5723 99.6828 70.4868 99.6885 70.3474C99.6924 70.254 99.6885 70.1601 99.6885 70.0662C99.6885 65.6716 99.6885 61.2769 99.6885 56.8829C99.6885 56.6141 99.556 56.4795 99.2909 56.4792C97.3421 56.478 95.3928 56.4769 93.444 56.4752C93.345 56.4752 93.2461 56.4752 93.1466 56.4752C93.1404 56.496 93.1336 56.5163 93.1274 56.5371L93.1297 56.5354ZM127.755 64.0483C128.457 64.0483 129.159 64.0438 129.861 64.0511C130.069 64.0534 130.166 63.9966 130.164 63.7666C130.157 62.6252 130.162 61.4833 130.168 60.3419C130.169 60.1766 130.119 60.0625 129.978 59.9674C129.326 59.5277 128.677 59.0852 128.035 58.6315C127.876 58.5191 127.764 58.5325 127.612 58.6394C126.946 59.1066 126.273 59.566 125.599 60.0209C125.459 60.1153 125.407 60.2278 125.408 60.3942C125.414 61.5075 125.417 62.6213 125.406 63.7346C125.404 63.987 125.496 64.0562 125.734 64.0523C126.408 64.0405 127.081 64.0483 127.755 64.0483V64.0483ZM91.6689 64.0348V64.0309C92.3706 64.0309 93.0729 64.0236 93.7746 64.0348C93.9967 64.0382 94.0675 63.9629 94.063 63.7436C94.0422 62.6123 94.0316 61.4805 94.0214 60.3492C94.0203 60.2053 93.972 60.1035 93.8488 60.0225C93.1842 59.5857 92.5213 59.146 91.8623 58.7007C91.7252 58.6079 91.6155 58.6107 91.4806 58.7018C90.8216 59.1471 90.1598 59.5879 89.4952 60.0248C89.3637 60.1114 89.3108 60.2148 89.3114 60.3723C89.3142 61.4951 89.3159 62.6179 89.3041 63.7408C89.3018 63.9831 89.3985 64.0416 89.62 64.0382C90.3032 64.0281 90.9863 64.0343 91.6695 64.0343L91.6689 64.0348ZM81.077 56.5241C80.9865 56.4539 80.9095 56.4786 80.8381 56.478C79.4993 56.4764 78.1612 56.4837 76.823 56.4713C76.5593 56.469 76.4901 56.5539 76.4924 56.8081C76.5036 58.0996 76.4969 59.3917 76.4991 60.6832C76.4991 60.763 76.4704 60.8502 76.5469 60.9463C78.0588 59.471 79.5657 57.9995 81.077 56.5241V56.5241ZM114.266 58.8778C114.235 58.9194 114.225 58.9267 114.225 58.934C114.219 60.5151 114.213 62.0956 114.211 63.6767C114.211 63.8808 114.308 63.8313 114.42 63.7526C115.437 63.0363 116.455 62.3188 117.475 61.607C117.637 61.494 117.609 61.4186 117.468 61.3163C117.203 61.124 116.946 60.921 116.686 60.7226C115.883 60.1108 115.08 59.4985 114.266 58.8778V58.8778Z" fill="#EEEEEE"/>
<path d="M159.791 56.4937H152.511C152.555 56.6466 152.661 56.7281 152.748 56.8215C153.394 57.5125 154.038 58.2052 154.693 58.8889C154.843 59.0458 154.859 59.1442 154.679 59.2926C154.362 59.5546 154.059 59.8358 153.763 60.1219C153.621 60.2591 153.527 60.2513 153.395 60.1113C152.803 59.4849 152.198 58.8704 151.61 58.2406C151.457 58.077 151.355 58.0584 151.172 58.2052C150.64 58.6342 150.096 59.0503 149.543 59.4517C149.314 59.6176 149.231 59.802 149.231 60.0854C149.24 63.712 149.233 67.338 149.244 70.9646C149.245 71.2969 149.161 71.5173 148.879 71.7124C148.239 72.1538 147.627 72.6351 147 73.0956C146.923 73.1524 146.847 73.2749 146.737 73.2092C146.654 73.158 146.692 73.036 146.692 72.9454C146.691 70.4153 146.691 67.8857 146.691 65.3555C146.691 63.5754 146.687 61.7947 146.696 60.0146C146.698 59.7773 146.63 59.6108 146.45 59.4562C145.96 59.0351 145.479 58.6027 145.005 58.1625C144.865 58.032 144.781 58.027 144.639 58.1608C143.963 58.7956 143.272 59.4141 142.596 60.0494C142.444 60.1928 142.351 60.1973 142.21 60.0432C141.955 59.7677 141.682 59.5108 141.418 59.2448C141.153 58.9777 141.152 58.9755 141.411 58.7191C142.05 58.0866 142.69 57.4546 143.334 56.826C143.426 56.7354 143.542 56.6674 143.665 56.5752C143.513 56.4453 143.408 56.4774 143.315 56.4768C142.209 56.474 141.104 56.4762 139.998 56.4729C139.91 56.4729 139.785 56.5212 139.742 56.4217C139.701 56.3244 139.818 56.262 139.877 56.1962C140.512 55.4822 141.152 54.7726 141.787 54.058C141.876 53.9579 141.976 53.9129 142.107 53.9174C142.21 53.9208 142.313 53.9174 142.416 53.9174C161.044 53.9174 179.673 53.9174 198.301 53.9208C198.461 53.9208 198.695 53.8285 198.765 53.9899C198.826 54.1288 198.603 54.2362 198.498 54.3475C197.875 55.0087 197.243 55.6615 196.62 56.3233C196.503 56.4487 196.368 56.4672 196.214 56.4661C195.343 56.4616 194.471 56.4594 193.6 56.4577C193.225 56.4571 193.224 56.4594 193.224 56.8299C193.224 60.9625 193.221 65.0946 193.23 69.2272C193.23 69.5016 193.141 69.6714 192.927 69.8367C191.519 70.9252 190.117 72.0217 188.723 73.1287C188.519 73.2907 188.39 73.2749 188.195 73.1259C186.744 72.0155 185.287 70.9134 183.826 69.8159C183.64 69.6759 183.578 69.5168 183.578 69.2907C183.581 65.7395 183.578 62.1883 183.576 58.6364C183.576 58.3966 183.469 58.328 183.256 58.4307C182.766 58.6657 182.272 58.8934 181.788 59.1385C181.588 59.2398 181.487 59.2055 181.41 58.994C181.304 58.7039 181.181 58.4194 181.05 58.14C180.962 57.9516 181.024 57.8538 181.192 57.7588C181.91 57.3562 182.623 56.944 183.41 56.4937H173.614C174.086 56.8316 174.514 57.1391 174.944 57.445C176.639 58.6505 178.333 59.8588 180.032 61.0581C180.254 61.215 180.213 61.3004 180.021 61.4404C178.587 62.4806 177.16 63.5281 175.731 64.5745C175.643 64.6392 175.538 64.6853 175.477 64.7932C175.577 64.8528 175.681 64.823 175.779 64.823C176.931 64.8258 178.084 64.8241 179.237 64.8253C179.592 64.8253 179.607 64.8399 179.607 65.1846C179.608 67.1525 179.605 69.1204 179.611 71.0877C179.612 71.2946 179.549 71.4363 179.385 71.5651C178.716 72.0925 178.055 72.6323 177.39 73.1653C177.321 73.2204 177.255 73.3312 177.154 73.2699C177.079 73.2243 177.111 73.1147 177.111 73.0332C177.11 71.0371 177.11 69.0411 177.11 67.0456C177.11 66.6357 177.109 66.6346 176.714 66.6346C175.421 66.6346 174.128 66.6419 172.835 66.6284C172.55 66.6256 172.468 66.7122 172.47 66.9962C172.481 68.336 172.464 69.6759 172.472 71.0158C172.474 71.2677 172.39 71.4318 172.194 71.5842C171.551 72.0852 170.921 72.603 170.284 73.1119C170.215 73.1675 170.147 73.2738 170.048 73.2255C169.951 73.1782 169.984 73.0585 169.984 72.9685C169.982 71.5724 169.982 70.1763 169.982 68.7797C169.982 65.4438 169.982 62.1079 169.981 58.772C169.981 58.6634 170.034 58.5172 169.936 58.4543C169.83 58.3851 169.735 58.5144 169.642 58.5679C169.3 58.7641 168.961 58.9631 168.628 59.1717C168.486 59.2611 168.396 59.2398 168.302 59.1048C168.092 58.8057 167.879 58.5083 167.652 58.2221C167.521 58.0562 167.536 57.9651 167.721 57.851C168.382 57.4416 169.033 57.0166 169.687 56.5971C169.724 56.5741 169.755 56.5443 169.831 56.4847H162.761C162.749 56.6067 162.854 56.6415 162.919 56.6955C163.877 57.4922 164.833 58.2907 165.802 59.075C165.992 59.2291 166.057 59.3933 166.052 59.6277C165.98 62.7843 166.019 65.9419 166.002 69.0985C165.998 69.8013 165.993 70.5041 165.997 71.2064C165.998 71.4037 165.923 71.5387 165.77 71.659C165.122 72.169 164.482 72.6885 163.838 73.2024C163.775 73.2524 163.71 73.348 163.624 73.3081C163.521 73.2598 163.568 73.1411 163.568 73.0534C163.563 71.0203 163.556 68.9866 163.567 66.9534C163.568 66.6695 163.489 66.5863 163.203 66.5891C161.854 66.6037 160.504 66.6026 159.156 66.5896C158.882 66.5868 158.806 66.6712 158.808 66.9399C158.817 67.9329 158.806 68.9264 158.795 69.9194C158.791 70.359 158.764 70.7987 158.759 71.2384C158.757 71.4071 158.686 71.5162 158.557 71.614C157.908 72.1071 157.264 72.6058 156.614 73.0989C156.538 73.1569 156.461 73.2794 156.353 73.2142C156.269 73.1642 156.308 73.041 156.308 72.9505C156.307 70.458 156.307 67.9655 156.307 65.473C156.307 63.5242 156.311 61.5748 156.303 59.626C156.302 59.3859 156.377 59.2302 156.567 59.0829C157.598 58.2862 158.617 57.4759 159.64 56.6702C159.696 56.6258 159.765 56.5915 159.793 56.4942L159.791 56.4937ZM186.078 62.4626C186.078 64.3457 186.081 66.2287 186.074 68.1111C186.074 68.318 186.13 68.4569 186.302 68.5829C186.937 69.0473 187.565 69.5218 188.186 70.0048C188.361 70.1414 188.487 70.1634 188.673 70.0138C189.3 69.5083 189.938 69.0169 190.58 68.53C190.734 68.4131 190.771 68.2753 190.771 68.0943C190.768 64.3282 190.766 60.5628 190.774 56.7973C190.774 56.5387 190.698 56.4588 190.44 56.4605C189.11 56.4712 187.78 56.465 186.449 56.4656C186.081 56.4656 186.079 56.4672 186.079 56.8417C186.079 58.7152 186.079 60.5886 186.079 62.4621L186.078 62.4626ZM161.165 64.0375V64.0319C161.858 64.0319 162.551 64.0212 163.243 64.0375C163.509 64.0437 163.579 63.9453 163.576 63.6957C163.56 62.5728 163.557 61.4494 163.558 60.326C163.558 60.1568 163.501 60.05 163.359 59.9583C162.707 59.5355 162.057 59.1099 161.415 58.6724C161.256 58.5639 161.141 58.574 160.988 58.6752C160.433 59.0407 159.885 59.4202 159.306 59.7435C158.904 59.9679 158.739 60.2063 158.774 60.705C158.846 61.7115 158.811 62.7252 158.807 63.7362C158.806 63.9706 158.885 64.0448 159.115 64.0415C159.798 64.0302 160.481 64.0375 161.165 64.0375H161.165ZM172.441 63.8773C172.501 63.8486 172.537 63.8379 172.566 63.8171C173.653 63.0345 174.738 62.2495 175.826 61.4697C176.034 61.3212 175.919 61.2369 175.786 61.1368C174.771 60.3688 173.756 59.5979 172.74 58.831C172.671 58.7793 172.602 58.6629 172.504 58.7242C172.419 58.777 172.46 58.8973 172.459 58.9879C172.457 60.2428 172.457 61.4978 172.458 62.7528C172.458 63.116 172.377 63.4781 172.44 63.8779L172.441 63.8773ZM145.562 56.4864C146.365 57.1279 147.118 57.7273 147.868 58.3306C148.004 58.4402 148.099 58.3812 148.211 58.2907C148.889 57.7441 149.571 57.2027 150.249 56.6573C150.302 56.6151 150.39 56.5949 150.382 56.4864H145.562V56.4864Z" fill="#EEEEEE"/>
<path d="M139.082 66.5878C138.521 66.5878 137.961 66.5844 137.399 66.5895C137.175 66.5911 137.109 66.522 137.219 66.3072C137.492 65.7753 137.759 65.2395 138.022 64.7019C138.091 64.5608 138.182 64.4877 138.346 64.4883C139.458 64.4922 140.571 64.4917 141.683 64.4888C141.888 64.4888 141.929 64.5648 141.847 64.7464C141.601 65.2918 141.358 65.8383 141.123 66.3882C141.051 66.5585 140.928 66.59 140.765 66.5889C140.204 66.585 139.643 66.5872 139.082 66.5872V66.5878Z" fill="#EEEEEE"/>
<path d="M44.4063 53.7307C44.6706 54.2233 45.0108 54.5927 45.5067 54.808C46.336 55.1679 47.0788 54.9891 47.7749 54.4746C47.8496 54.4195 47.9312 54.3503 47.8733 54.2407C47.8243 54.1479 47.7316 54.1676 47.6472 54.1805C47.3138 54.2323 46.9832 54.2626 46.643 54.2177C45.7766 54.103 45.2717 53.4097 45.4977 52.5713C45.8553 51.2455 46.8016 50.536 48.079 50.2177C50.2584 49.6751 51.7377 50.9925 52.35 52.8828C52.5147 53.3906 52.5316 53.9152 52.4141 54.4369C52.3387 54.7715 52.1875 55.0734 51.9446 55.3197C51.2631 56.0113 50.5198 56.0248 49.8192 55.3562C49.6573 55.2016 49.5162 55.0251 49.3644 54.8592C49.3143 54.8047 49.2665 54.7293 49.18 54.7647C49.0973 54.7985 49.1001 54.8851 49.1001 54.9598C49.1001 55.0251 49.1035 55.0914 49.1153 55.1555C49.2817 56.045 50.0014 56.7754 50.8965 56.9283C51.1406 56.9699 51.199 57.0132 51.1169 57.2724C50.7846 58.3233 51.113 59.2128 52.0211 59.8122C52.0756 59.8481 52.1313 59.8841 52.1909 59.9106C52.2611 59.9415 52.3387 59.955 52.4006 59.892C52.4703 59.8212 52.4225 59.7509 52.3837 59.6885C52.2038 59.4006 52.0627 59.0958 51.9721 58.768C51.8108 58.185 51.9418 57.6851 52.4264 57.3129C52.7885 57.0346 53.2316 56.9964 53.6601 57.0475C55.1686 57.2274 56.3657 58.3205 56.7963 59.847C57.1461 61.0874 56.658 62.0893 55.9035 63.0013C55.3834 63.6299 54.7205 64.0645 53.8934 64.1972C53.2389 64.3024 52.6873 64.0837 52.2398 63.617C51.9317 63.2959 51.8631 62.8934 51.9783 62.4649C52.0615 62.1568 52.174 61.8599 52.3399 61.5838C52.3893 61.5018 52.4905 61.4056 52.404 61.3061C52.3044 61.1925 52.1937 61.2898 52.1009 61.3409C51.1737 61.8515 50.7307 63.0907 51.1484 64.0629C51.2547 64.3108 51.1917 64.3288 50.964 64.3423C49.5415 64.4266 48.6475 65.6535 48.9843 67.04C49.0085 67.1396 49.0158 67.2638 49.1513 67.2627C49.2677 67.2616 49.2828 67.1457 49.3087 67.0575C49.4425 66.593 49.6236 66.1562 49.9868 65.816C50.4287 65.4016 51.0056 65.342 51.5043 65.6872C52.2842 66.227 52.7126 66.9917 52.8015 67.9228C52.9094 69.0569 52.6137 70.0852 51.8158 70.923C51.2693 71.4965 50.5423 71.7136 49.7804 71.7495C47.8806 71.8401 46.6318 70.8696 45.8418 69.2216C45.4966 68.5008 45.2728 67.7355 45.1244 66.9495C45.0968 66.8028 45.0805 66.6751 45.2582 66.602C46.4339 66.1168 47.1884 65.1789 47.8524 64.1539C48.5941 63.0097 49.1473 61.7683 49.6792 60.5172C49.7192 60.4228 49.7793 60.33 49.6433 60.2541C49.4993 60.1743 49.4442 60.2682 49.3784 60.3671C48.6554 61.4624 47.9255 62.5521 46.9663 63.4635C46.6458 63.7677 46.3141 64.0584 45.9177 64.2585C45.4044 64.5172 45.1013 64.3288 45.1002 63.7486C45.0968 61.4062 45.0985 59.0638 45.0985 56.7214C45.0985 56.4309 44.9542 56.2855 44.6656 56.2851C44.4406 56.2851 44.2152 56.2935 43.9908 56.2834C43.7693 56.2733 43.6822 56.3711 43.699 56.5848C43.7063 56.6781 43.6996 56.772 43.6996 56.8659C43.6996 60.9232 43.6996 64.9799 43.6996 69.0372V69.3464C43.5742 69.3425 43.5714 69.2486 43.5444 69.1896C43.1148 68.2506 41.9386 67.8671 40.9512 68.1151C40.8602 68.1381 40.7528 68.1702 40.7556 68.2843C40.7584 68.4035 40.877 68.4058 40.9636 68.435C41.1767 68.5058 41.396 68.5643 41.6007 68.6548C42.5183 69.0631 42.7876 69.8766 42.308 70.765C42.1146 71.1232 41.8222 71.3824 41.4719 71.5752C40.2147 72.2685 38.2895 72.0886 37.2133 71.135C36.5724 70.5671 36.2581 69.7962 36.1332 68.9618C35.9629 67.8244 36.2148 66.8022 37.0655 65.9779C37.8639 65.2037 38.8057 65.3634 39.3218 66.3535C39.4483 66.5958 39.54 66.8506 39.6091 67.1143C39.6311 67.1969 39.658 67.2857 39.7632 67.2897C39.8875 67.2942 39.9083 67.1963 39.9302 67.1019C40.2681 65.6636 39.4337 64.5515 38.1782 64.3862C37.9983 64.3625 37.9319 64.3164 38.0269 64.1196C38.5487 63.0379 37.9499 61.8695 37.1273 61.3601C37.0357 61.3033 36.9249 61.2015 36.822 61.2903C36.6949 61.4005 36.822 61.5136 36.8754 61.6131C37.1054 62.037 37.3196 62.4756 37.2572 62.9693C37.1571 63.7637 36.1878 64.3687 35.3033 64.1939C33.986 63.9341 33.1538 63.0811 32.5994 61.9139C31.9444 60.5347 32.3807 59.3399 33.2741 58.2508C33.8493 57.5502 34.6044 57.1375 35.5176 57.0436C35.8774 57.0065 36.2316 57.0503 36.5656 57.1825C37.0671 57.3809 37.3736 57.9921 37.2729 58.5521C37.2027 58.9451 37.0402 59.3016 36.8479 59.6474C36.8063 59.7228 36.7084 59.8032 36.804 59.8959C36.8855 59.9747 36.9828 59.9325 37.0643 59.8841C37.7059 59.5057 38.1343 58.9806 38.1883 58.2091C38.2147 57.8319 38.186 57.458 38.0275 57.1077C37.9544 56.9463 37.9904 56.8805 38.1647 56.8327C39.1115 56.5747 39.5675 55.8966 39.7261 54.9722C39.7407 54.8867 39.7609 54.7962 39.6637 54.7512C39.5692 54.7074 39.5023 54.7737 39.4483 54.8401C39.2706 55.0582 39.098 55.282 38.8771 55.458C38.4475 55.7999 37.9859 56.0158 37.4247 55.7864C37.2027 55.6958 37.0182 55.5643 36.8838 55.3579C36.1344 54.2053 36.2552 53.0493 36.881 51.9017C37.1813 51.3507 37.6238 50.9183 38.1315 50.5511C38.8664 50.0198 39.698 50.0153 40.5307 50.157C41.5647 50.3324 42.4446 50.8008 43.0316 51.7128C43.2891 52.1131 43.3915 52.5505 43.3026 53.0273C43.1615 53.783 42.7235 54.1738 41.9543 54.2109C41.7114 54.2227 41.468 54.2222 41.2262 54.1755C41.1227 54.1558 40.9816 54.1119 40.9338 54.2536C40.8945 54.3706 41.0114 54.4324 41.0924 54.4926C42.0044 55.1684 43.7018 55.2022 44.3192 53.837C44.3299 53.8128 44.3529 53.7943 44.4063 53.729V53.7307Z" fill="#EEEEEE"/>
<path d="M202.042 51.6476C202.34 51.9231 202.529 52.2571 202.729 52.5815C202.788 52.6771 202.972 52.8081 202.82 52.8986C202.689 52.9762 202.465 52.9931 202.336 52.8143C202.22 52.6551 202.121 52.4842 202.009 52.3223C201.903 52.1682 201.797 52.0136 201.678 51.8697C201.488 51.6408 201.224 51.6791 200.973 51.7044C200.851 51.7167 200.855 51.8331 200.854 51.927C200.851 52.1705 200.851 52.4145 200.851 52.658C200.851 52.8171 200.816 52.929 200.618 52.9284C200.422 52.9278 200.386 52.821 200.386 52.6585C200.388 51.8809 200.39 51.1027 200.385 50.3251C200.383 50.1413 200.441 50.0395 200.639 50.0451C201.078 50.0581 201.519 50.0153 201.958 50.0794C202.406 50.1446 202.632 50.3493 202.69 50.7603C202.739 51.1151 202.561 51.4058 202.187 51.5784C202.145 51.5975 202.104 51.6172 202.042 51.6464L202.042 51.6476ZM201.434 50.4426C200.817 50.4488 200.788 50.4826 200.853 51.069C200.868 51.2028 200.918 51.2804 201.058 51.2787C201.329 51.2754 201.601 51.2849 201.871 51.2607C202.092 51.2411 202.229 51.0982 202.236 50.8694C202.242 50.6344 202.096 50.5073 201.881 50.4685C201.735 50.4421 201.583 50.45 201.434 50.4421V50.4426Z" fill="#EEEEEE"/>
</g>
</g>
<defs>
<clipPath id="clip0_503_3680">
<rect width="231" height="127" fill="white"/>
</clipPath>
<clipPath id="clip1_503_3680">
<rect width="177" height="34.9777" fill="white" transform="translate(27 46)"/>
</clipPath>
</defs>
</svg>
