<svg width="231" height="127" viewBox="0 0 231 127" fill="none" xmlns="http://www.w3.org/2000/svg">
<g clip-path="url(#clip0_632_2542)">
<g clip-path="url(#clip1_632_2542)">
<mask id="mask0_632_2542" style="mask-type:luminance" maskUnits="userSpaceOnUse" x="-13" y="-23" width="258" height="172">
<path d="M-12.605 148.879H244.358V-22.4298H-12.605V148.879Z" fill="white"/>
</mask>
<g mask="url(#mask0_632_2542)">
<path d="M51.9946 57.0295H59.6827V74.086H59.8314C60.5898 72.5989 61.4077 71.2308 62.181 69.8479L69.9731 57.0295H79.4903L68.144 73.4614L80.1148 95.6037H71.0438L62.6419 78.9486L59.6827 83.0083V95.6037H51.9946V57.0295ZM97.217 78.4297C97.217 76.318 96.3991 72.764 92.8451 72.764C89.5884 72.764 88.2649 76.0801 88.0567 78.4297H97.217ZM88.1014 84.3779C88.3542 87.9766 91.5067 89.7015 95.1351 89.7015C97.7821 89.7015 99.9234 89.3 102.005 88.5565L103.017 94.4452C100.474 95.5903 97.3657 96.2148 94.005 96.2148C85.5585 96.2148 80.7107 90.6681 80.7107 81.9094C80.7107 74.8161 84.6365 66.9793 93.2912 66.9793C101.336 66.9793 104.399 74.0131 104.399 80.9428C104.399 82.4298 104.251 83.7533 104.147 84.3779H88.1014Z" fill="#EEEEEE"/>
<path d="M118.71 59.6082V67.6234H124.272V74.0326H118.725V84.1595C118.725 87.5351 119.439 89.0816 121.773 89.0816C122.74 89.0816 123.498 88.9627 124.064 88.8586L124.108 95.4314C123.082 95.8924 121.253 96.2344 119.067 96.2344C116.569 96.2344 114.487 95.2083 113.268 93.7807C111.84 92.1152 111.126 89.4385 111.126 85.483V74.0326H107.81V67.6234H111.126V61.5563L118.71 59.6082V59.6082Z" fill="#EEEEEE"/>
<path d="M138.418 59.6082V67.6234H143.98V74.0326H138.433V84.1595C138.433 87.5351 139.147 89.0816 141.482 89.0816C142.448 89.0816 143.206 88.9627 143.772 88.8586L143.816 95.4314C142.79 95.8924 140.961 96.2344 138.775 96.2344C136.277 96.2344 134.195 95.2083 132.976 93.7807C131.548 92.1152 130.834 89.4385 130.834 85.483V74.0326H127.518V67.6234H130.834V61.5563L138.418 59.6082ZM154.765 81.6951C154.765 86.1563 156.341 89.9929 159.806 89.9929C163.212 89.9929 164.803 86.2158 164.803 81.6951C164.803 77.695 163.628 73.1743 159.806 73.1743C155.985 73.1743 154.765 77.7544 154.765 81.6951ZM172.803 81.5762C172.803 92.045 165.68 96.2237 159.464 96.2237C152.386 96.2237 146.78 90.781 146.78 81.6357C146.78 72.1929 152.743 66.9882 160.074 66.9882C167.554 66.9882 172.803 72.5498 172.803 81.5762Z" fill="#EEEEEE"/>
<path d="M165.957 53.4354C165.912 53.361 165.853 53.2866 165.808 53.2272C166.463 47.844 174.106 47.4723 174.106 42.7583C174.106 45.9852 167.072 44.7361 163.042 47.3533C162.908 46.6246 162.864 45.8514 162.879 44.9889C162.879 37.7469 169.957 34.9661 169.957 29.9101C169.957 34.981 158.209 36.0219 156.812 44.5874C155.488 43.487 154.075 42.7434 152.395 42.7434C149.659 42.7434 148.246 45.4499 148.246 45.4499C148.246 45.4499 150.685 44.6617 151.503 47.502C152.187 49.911 154.09 60.3056 179.608 57.6289C179.608 57.6289 171.786 56.9894 165.957 53.4354ZM149.753 62.314C149.738 62.2842 149.723 62.2694 149.708 62.2396C149.946 60.2618 152.667 60.0536 152.831 58.4179C152.608 59.4439 150.109 59.0573 148.652 60.009C148.607 59.7265 148.578 59.4439 148.593 59.1168C148.593 56.3657 151.284 55.3099 151.284 53.3916C151.284 55.3248 146.823 55.7114 146.303 58.9681C145.797 58.5517 145.262 58.2692 144.622 58.2692C143.581 58.2692 143.046 59.2952 143.046 59.2952C143.046 59.2952 143.968 58.9978 144.28 60.0685C144.548 60.9905 145.262 64.9312 154.942 63.9051C154.942 63.9051 151.968 63.6672 149.753 62.314Z" fill="#CECECE"/>
</g>
</g>
</g>
<defs>
<clipPath id="clip0_632_2542">
<rect width="231" height="127" fill="white"/>
</clipPath>
<clipPath id="clip1_632_2542">
<rect width="127.556" height="66.36" fill="white" transform="translate(52 30)"/>
</clipPath>
</defs>
</svg>
