<?xml version="1.0" encoding="utf-8"?>
<!-- Generator: Adobe Illustrator 26.0.1, SVG Export Plug-In . SVG Version: 6.00 Build 0)  -->
<svg version="1.1" id="Layer_1" xmlns="http://www.w3.org/2000/svg" xmlns:xlink="http://www.w3.org/1999/xlink" x="0px" y="0px"
	 viewBox="0 0 144 59" style="enable-background:new 0 0 144 59;" xml:space="preserve">
<style type="text/css">
	.st0{fill:none;}
	.st1{clip-path:url(#SVGID_00000073703353691540143660000003328338485372799164_);}
	.st2{fill:#DCDCDC;}
</style>
<rect y="0.37" class="st0" width="144" height="58.28"/>
<g>
	<defs>
		<rect id="SVGID_1_" x="24.27" y="10.6" width="95.46" height="38.58"/>
	</defs>
	<clipPath id="SVGID_00000065035468379208078640000013374611866282820254_">
		<use xlink:href="#SVGID_1_"  style="overflow:visible;"/>
	</clipPath>
	<g style="clip-path:url(#SVGID_00000065035468379208078640000013374611866282820254_);">
		<path class="st2" d="M98.53,10.6v18.96l-0.24,0.2l-0.24,0.2l-0.23,0.21l-0.22,0.21l-0.21,0.21l-0.21,0.22l-0.2,0.22l-0.2,0.22
			V10.6H75.58v17.26h-1.75V10.6H52.63v17.29h-1.75V10.6H29.68v19.71l-5.41,17.87h4.76l2.39-7.91h0.69l3.95,7.91h5.74l-3.83-7.91
			h8.69l-2.41,7.91h5.19l2.38-7.89h1.15v-0.02h11.57l-2.3,7.89h5.24l2.23-7.89h2.36l0.06,7.89h4.39l5.05-7.89h3.31l-1.71,7.89h5.16
			L90,40.27h2.98l-0.02,0.45l0.01,0.46l0.02,0.44l0.04,0.44l0.03,0.21l0.03,0.21l0.04,0.21l0.04,0.21l0.05,0.21l0.05,0.2l0.06,0.2
			l0.06,0.2l0.07,0.2l0.07,0.19l0.08,0.19l0.08,0.18l0.09,0.19l0.09,0.18l0.1,0.17l0.1,0.18l0.11,0.17l0.12,0.16l0.12,0.17
			l0.13,0.15l0.13,0.16l0.13,0.15l0.15,0.15l0.15,0.14l0.19,0.16l0.19,0.16l0.2,0.15l0.21,0.14l0.21,0.14l0.21,0.13l0.22,0.11
			l0.23,0.12l0.22,0.1l0.23,0.1l0.23,0.09l0.24,0.09L97.97,48l0.24,0.07l0.24,0.07l0.24,0.06l0.48,0.11l0.49,0.08l0.48,0.07
			l0.48,0.06l0.47,0.04l0.46,0.02l0.45,0.02h0.43l0.58-0.01l0.58-0.01l0.59-0.03l0.59-0.03l0.59-0.05l0.59-0.05l0.59-0.06l0.59-0.07
			l0.6-0.08l0.6-0.09l0.6-0.1l0.6-0.1l0.6-0.11l0.6-0.12l0.6-0.12l0.61-0.14l1.79-7.16h5.89V10.6L98.53,10.6L98.53,10.6z
			 M31.65,39.53l0.03-0.11l0.07,0.11H31.65z M50.11,28.9l-0.3,1.01l-2.82,9.29l-0.11,0.33H37.6l-0.72-1.52l9.99-10.12h-6.42
			l-7.81,8.34l2.53-8.34h-4.74V11.35h19.67V28.9z M55.58,36.75l-0.15,0.01l-0.14,0.01l-0.15,0.01h-0.55l-0.17,0.01h-0.16l-1.26-0.01
			l0.58-2.14l0.27-1.06l0.67-2.49h0.43l0.21-0.01h1.18l0.59,0.01l0.54,0.02l0.24,0.01l0.23,0.02l0.22,0.03l0.2,0.03l0.18,0.03
			l0.17,0.05l0.16,0.05l0.14,0.06l0.12,0.06l0.11,0.08l0.1,0.08l0.08,0.1l0.05,0.08l0.04,0.08l0.04,0.09l0.03,0.1l0.02,0.11
			l0.01,0.11v0.25l-0.01,0.14l-0.01,0.14l-0.03,0.16l-0.03,0.16l-0.09,0.34l-0.11,0.38l-0.11,0.32l-0.12,0.31l-0.13,0.29l-0.14,0.27
			l-0.07,0.12l-0.07,0.12l-0.08,0.12l-0.09,0.11l-0.09,0.11l-0.09,0.1l-0.1,0.1l-0.1,0.09l-0.11,0.08l-0.11,0.09l-0.12,0.07
			l-0.13,0.08l-0.13,0.07l-0.14,0.06l-0.14,0.06l-0.15,0.05l-0.16,0.06l-0.17,0.04l-0.18,0.04l-0.18,0.04l-0.2,0.03l-0.2,0.03
			l-0.21,0.02L55.58,36.75L55.58,36.75z M69.91,39.53l2.07-7.29l0.08,7.29H69.91z M73.06,27.86h-4.92l-3.39,11.67h-5.22l0.24-0.1
			l0.24-0.1l0.23-0.1l0.23-0.11l0.22-0.11l0.21-0.13l0.21-0.12l0.2-0.13l0.2-0.14l0.19-0.14l0.18-0.14l0.18-0.16l0.17-0.15
			l0.16-0.17l0.16-0.16l0.15-0.18l0.15-0.17l0.14-0.19l0.13-0.18l0.13-0.2l0.12-0.2l0.11-0.2l0.11-0.21l0.1-0.22l0.1-0.22l0.09-0.22
			L64,35.15l0.08-0.24l0.06-0.24l0.07-0.24l0.05-0.26l0.05-0.25l0.07-0.4l0.06-0.38l0.04-0.36l0.03-0.34l0.01-0.34l-0.01-0.31
			l-0.01-0.31l-0.04-0.29l-0.04-0.27l-0.07-0.27l-0.07-0.25l-0.1-0.24l-0.11-0.23l-0.12-0.23L63.8,29.5l-0.16-0.2l-0.13-0.14
			l-0.13-0.14l-0.14-0.12l-0.15-0.11l-0.16-0.11l-0.16-0.1l-0.17-0.09l-0.17-0.08l-0.18-0.08l-0.18-0.06l-0.19-0.06l-0.19-0.06
			l-0.2-0.05l-0.2-0.04l-0.2-0.04l-0.21-0.03l-0.43-0.06L60,27.9l-0.44-0.03l-0.45-0.01h-5.71V11.35h19.67L73.06,27.86L73.06,27.86z
			 M85.01,39.53h-2.95l4.47-6.99L85.01,39.53z M96,28.19l-0.01,4.05l-0.25,0.35l-0.23,0.36l-0.23,0.36l-0.21,0.36l-0.2,0.36
			l-0.2,0.37l-0.17,0.36l-0.17,0.36l-0.16,0.35l-0.14,0.36l-0.14,0.35l-0.12,0.34l-0.11,0.34l-0.1,0.33l-0.09,0.32l-0.08,0.32
			l-0.05,0.21l-0.05,0.22l-0.05,0.21l-0.04,0.22l-0.04,0.21l-0.03,0.21l-0.03,0.21l-0.02,0.22h-2.89l2.47-11.64l-8.32-0.01
			l-7.45,11.65h-0.54V11.35H96V28.19L96,28.19z M107.35,44.29l-0.41,0.07l-0.42,0.06l-0.42,0.06l-0.41,0.05l-0.41,0.04l-0.41,0.03
			l-0.4,0.02h-0.66l-0.26-0.01l-0.25-0.02l-0.25-0.03l-0.24-0.04l-0.23-0.04l-0.23-0.05l-0.22-0.06l-0.21-0.07l-0.21-0.07l-0.2-0.09
			l-0.19-0.09l-0.19-0.11l-0.18-0.11l-0.17-0.12l-0.16-0.12l-0.16-0.14l-0.14-0.15l-0.14-0.15L100,42.98l-0.12-0.17l-0.11-0.19
			l-0.1-0.19l-0.1-0.2l-0.08-0.21l-0.07-0.23l-0.06-0.23l-0.06-0.24l-0.04-0.25l-0.03-0.26l-0.02-0.27l-0.01-0.28h9.17L107.35,44.29
			L107.35,44.29z M118.98,39.53h-4.96l0.82-3.26h-9.94l-0.82,3.26h-4.81v-0.67l0.06-0.28l0.05-0.28l0.06-0.3l0.06-0.3l0.09-0.33
			l0.09-0.33l0.1-0.33l0.11-0.32l0.12-0.32l0.13-0.32l0.14-0.31l0.14-0.31l0.16-0.31l0.16-0.29l0.17-0.3l0.19-0.28l0.19-0.28
			l0.19-0.27l0.21-0.26l0.22-0.25l0.23-0.24l0.23-0.22l0.25-0.22l0.25-0.21l0.26-0.19l0.28-0.18l0.28-0.16l0.29-0.15l0.3-0.14
			l0.31-0.12l0.32-0.1l0.33-0.08l0.34-0.07l0.35-0.05l0.36-0.03l0.37-0.01l0.29,0.01l0.29,0.02l0.29,0.04l0.28,0.06l0.14,0.04
			l0.13,0.04l0.13,0.04l0.12,0.06l0.12,0.05l0.12,0.07l0.11,0.07l0.11,0.07l0.1,0.09l0.1,0.09l0.09,0.09l0.09,0.11l0.08,0.1
			l0.07,0.12l0.06,0.13l0.06,0.13l0.05,0.14l0.04,0.15l0.03,0.15l0.03,0.17l0.01,0.17v0.37l-0.02,0.2h5.93l0.09-0.41l0.08-0.47
			l0.04-0.25l0.02-0.27l0.02-0.27v-0.28l-0.01-0.29l-0.03-0.3l-0.03-0.14l-0.02-0.15l-0.04-0.15l-0.04-0.15l-0.05-0.16l-0.05-0.15
			l-0.06-0.15l-0.07-0.15l-0.07-0.15l-0.09-0.15l-0.09-0.15l-0.1-0.15l-0.12-0.16l-0.13-0.15l-0.13-0.15l-0.14-0.14l-0.15-0.14
			l-0.16-0.13l-0.16-0.12l-0.17-0.12l-0.18-0.12l-0.18-0.1l-0.19-0.1l-0.2-0.1l-0.2-0.09l-0.21-0.09l-0.22-0.08l-0.22-0.08
			l-0.22-0.07l-0.24-0.06l-0.23-0.06l-0.25-0.06L111.11,27l-0.25-0.05l-0.26-0.04l-0.27-0.03l-0.55-0.06l-0.56-0.05l-0.59-0.02
			l-0.6-0.01l-0.45,0.01l-0.47,0.01l-0.49,0.03l-0.51,0.04l-0.53,0.06L105,26.96l-0.55,0.09l-0.56,0.12l-0.28,0.06l-0.29,0.07
			l-0.28,0.08l-0.29,0.08l-0.29,0.09l-0.29,0.1l-0.29,0.1l-0.28,0.11l-0.29,0.12l-0.29,0.13l-0.28,0.13l-0.29,0.14l-0.28,0.15
			l-0.28,0.16l-0.28,0.16l-0.28,0.18V11.35h19.7L118.98,39.53L118.98,39.53z"/>
	</g>
</g>
</svg>
