<svg width="100" height="100" viewBox="0 0 100 100" fill="none" xmlns="http://www.w3.org/2000/svg">
<g clip-path="url(#clip0_277_1972)">
<path d="M94.8637 43.8126C94.8637 47.6221 94.8433 51.1595 94.891 54.6969C94.891 55.0847 95.3263 55.4588 95.5304 55.8602C95.8365 56.452 96.2039 57.0371 96.3875 57.6697C96.7481 58.9078 96.993 60.1799 97.3059 61.4384C97.6937 63.0098 97.3399 63.5064 95.6869 63.5677C94.3331 63.6221 92.9726 63.6833 91.6188 63.6493C89.9998 63.6085 89.5984 63.0234 89.9726 61.5064C90.2583 60.3568 90.408 59.1731 90.7685 58.0507C91.0338 57.2207 91.3671 56.2956 91.9658 55.7173C92.7481 54.969 93.027 54.2207 92.9862 53.1935C92.8909 50.5949 92.8705 47.9962 92.8025 45.4044C92.7821 44.6221 92.8637 43.7717 91.7549 43.5745C90.7753 43.3976 90.1767 43.7445 89.7073 44.6357C88.027 47.833 86.3059 51.0098 84.5508 54.1663C84.1494 54.8874 83.6665 55.7037 82.993 56.1119C81.8297 56.833 81.7005 57.7853 81.7005 58.9758C81.7277 66.4316 81.7209 73.8874 81.7073 81.3432C81.7073 84.4588 80.8977 85.2751 77.8025 85.2751C53.1631 85.2751 28.5168 85.2751 3.87734 85.2751C0.97938 85.2751 0.15625 84.4452 0.15625 81.5336C0.15625 66.0575 0.15625 50.5813 0.15625 35.1051C0.15625 32.4112 0.435161 32.1255 3.20387 32.1255C17.1086 32.1255 31.0134 32.0915 44.9113 32.1595C46.7005 32.1663 47.7209 31.6153 48.442 29.9962C49.2651 28.1459 50.2515 26.35 51.3127 24.6221C52.061 23.3976 51.925 22.4724 51.0338 21.4248C50.0474 20.2683 49.1903 18.9962 48.2583 17.7922C47.6801 17.0371 47.2583 16.2547 47.7481 15.3024C48.2855 14.2615 49.2447 14.2615 50.2447 14.3296C58.5916 14.8738 66.9318 15.4452 75.2787 15.935C81.4828 16.2956 79.5916 15.2888 83.2719 20.0779C88.3671 26.7037 93.3807 33.384 98.4216 40.0507C98.7617 40.4996 99.1222 40.969 99.2923 41.486C99.6937 42.6765 98.925 43.7105 97.6052 43.833C97.1562 43.8738 96.7005 43.8194 96.2515 43.8194C95.8093 43.8194 95.3671 43.8194 94.8365 43.8194L94.8637 43.8126ZM79.7005 57.4384C78.8297 57.4384 78.061 57.4724 77.2923 57.4316C76.4488 57.384 75.5916 57.3432 74.7685 57.1799C66.3399 55.5132 58.7889 52.0098 52.3195 46.316C49.993 44.2683 47.5508 42.2615 46.3603 39.2683C45.8841 38.0711 45.2039 37.6969 43.9522 37.7037C30.612 37.7445 17.2719 37.7241 3.93176 37.7377C3.33992 37.7377 2.74809 37.8534 2.09503 37.9282C2.04061 38.6153 1.96577 39.1119 1.96577 39.6153C1.96577 50.4044 1.95897 61.1935 1.96577 71.9826C1.96577 73.7513 2.12224 73.8942 3.93176 73.8942C28.578 73.8942 53.2243 73.8942 77.8705 73.8942C78.4216 73.8942 78.9726 73.8194 79.7073 73.7717V57.4452L79.7005 57.4384ZM49.6597 16.316C50.0202 16.901 50.1971 17.2479 50.4284 17.5473C55.8909 24.7513 61.3671 31.9418 66.8093 39.1527C67.4148 39.9554 68.1222 40.2479 69.1018 40.3092C75.7005 40.6969 82.2991 41.1459 88.8977 41.5541C89.2515 41.5745 89.612 41.4724 90.3059 41.384C89.7209 40.8942 89.408 40.5949 89.061 40.35C85.2107 37.6765 81.3535 35.0098 77.4964 32.3432C76.2447 31.4724 74.9522 30.6493 73.7753 29.6833C73.408 29.384 73.3399 28.7037 73.1358 28.2003C73.7005 28.2139 74.3059 28.0915 74.8093 28.2683C75.3739 28.4724 75.8433 28.9418 76.3535 29.2956C82.0202 33.2139 87.6937 37.1255 93.3535 41.0643C94.5372 41.8874 95.7481 42.0575 97.1018 41.7037C97.061 41.4656 97.0814 41.3296 97.027 41.2547C91.3671 33.7785 85.7141 26.3024 80.0134 18.8534C79.6869 18.4248 79.0134 18.0575 78.4828 18.0166C69.2379 17.3636 59.9862 16.7717 50.7345 16.1731C50.476 16.1595 50.2107 16.2343 49.6597 16.3092V16.316ZM53.4964 24.7241C53.0406 25.4724 52.7549 25.8874 52.5168 26.3296C51.1222 28.9146 49.8161 31.5473 48.3195 34.0711C47.2991 35.7922 47.3467 37.4044 48.3059 39.0234C48.9045 40.0371 49.5916 41.0234 50.4011 41.8738C56.2039 48.0098 63.1835 52.2343 71.3331 54.4588C74.2107 55.2479 77.1154 56.0439 80.1767 55.3976C81.442 55.1323 82.3263 54.5132 82.925 53.384C84.4284 50.5405 85.9726 47.7173 87.476 44.867C87.6937 44.452 87.8093 43.9758 88.0202 43.3772C87.3671 43.2819 86.9386 43.1867 86.51 43.1595C80.476 42.7785 74.442 42.384 68.4012 42.0439C67.1767 41.9758 66.2787 41.5881 65.5304 40.5813C62.9794 37.1255 60.3739 33.7173 57.7753 30.2956C56.4216 28.5064 55.0406 26.7377 53.4896 24.7173L53.4964 24.7241ZM2.24469 79.7513C1.57802 82.9486 1.99298 83.486 4.87734 83.4996C5.10183 83.4996 5.32632 83.4996 5.55761 83.4996C29.4624 83.4996 53.3671 83.4996 77.2719 83.4996C77.6665 83.4996 78.1426 83.6221 78.442 83.4452C78.959 83.1391 79.6052 82.7241 79.7685 82.2139C79.993 81.52 79.8229 80.6969 79.8229 79.7785C78.9386 79.7173 78.2787 79.6289 77.6188 79.6289C68.9726 79.6221 60.3263 79.6221 51.6801 79.6289C50.3331 79.6289 48.9998 79.5268 47.8229 80.4928C47.408 80.833 46.6392 80.8398 46.0338 80.8398C42.646 80.867 39.2515 80.8874 35.8637 80.8262C35.1086 80.8126 34.3467 80.4928 33.5984 80.2955C32.8025 80.0847 32.0202 79.6629 31.2311 79.6629C22.1903 79.6153 13.1494 79.6289 4.10183 79.6425C3.49639 79.6425 2.89094 79.7173 2.23788 79.7581L2.24469 79.7513ZM79.5576 77.5881C79.9454 75.8262 79.8501 75.7173 77.8365 75.7173C53.3059 75.7173 28.7753 75.7105 4.23788 75.7309C3.40795 75.7309 2.00659 75.2139 2.06782 76.7785C2.12224 78.1595 3.42836 77.6833 4.22428 77.6833C13.3263 77.7173 22.4284 77.6969 31.5236 77.7037C32.7413 77.7037 34.0134 77.4792 34.9114 78.7173C35.1018 78.9826 35.7413 78.9894 36.1767 78.9962C39.3399 79.0234 42.51 79.0302 45.6733 78.9962C46.1494 78.9962 46.8297 78.9146 47.0542 78.6085C47.7957 77.6017 48.7821 77.6969 49.8025 77.6969C59.0134 77.6969 68.2311 77.6969 77.442 77.6901C78.1562 77.6901 78.8773 77.6221 79.5508 77.5881H79.5576ZM45.7753 34.003C45.1767 33.969 44.578 33.8942 43.9726 33.8942C30.6937 33.8874 17.4216 33.8874 4.14264 33.8942C3.69367 33.8942 3.18346 33.8262 2.80931 34.003C2.47598 34.1595 2.08142 34.6221 2.08822 34.9418C2.08822 35.2615 2.50999 35.6969 2.85013 35.8466C3.23788 36.0098 3.73448 35.9214 4.19026 35.9214C10.1767 35.9214 16.1699 35.9214 22.1562 35.9214C29.3875 35.9214 36.6188 35.9214 43.8501 35.9146C45.6052 35.9146 45.6665 35.8262 45.7753 34.0098V34.003ZM94.1699 56.9418C93.9454 56.9146 93.7209 56.8942 93.4896 56.867C92.0474 58.0779 92.7005 59.9758 91.9454 61.6017H95.2787C94.8705 59.8806 94.5168 58.4112 94.1699 56.9418Z" fill="white" stroke="white"/>
<path d="M20.5781 51.2465C21.2652 51.0289 21.8842 50.6683 22.5169 50.6615C30.4217 50.6207 38.3264 50.6343 46.2312 50.6411C46.5645 50.6411 46.9795 50.5867 47.2244 50.7567C47.5441 50.9812 47.8842 51.3826 47.9251 51.7431C47.9523 51.9676 47.4897 52.369 47.17 52.4778C46.7618 52.6207 46.2788 52.5595 45.8298 52.5595C38.2108 52.5595 30.5849 52.5663 22.9659 52.5595C22.1019 52.5595 21.1155 52.7499 20.5849 51.2465H20.5781Z" fill="white" stroke="white"/>
<path d="M20.5977 64.8881C21.3051 64.6977 21.9038 64.3983 22.5092 64.3915C30.4208 64.3575 38.3323 64.3711 46.2507 64.3779C46.5296 64.3779 46.8698 64.3235 47.0807 64.4596C47.4276 64.6773 47.6861 65.0242 47.9854 65.3167C47.6861 65.6024 47.4276 65.9834 47.0738 66.1398C46.7405 66.2895 46.2983 66.2011 45.9038 66.2011C38.2167 66.2011 30.5296 66.2011 22.8426 66.1875C22.0466 66.1875 21.0807 66.446 20.6045 64.8881H20.5977Z" fill="white" stroke="white"/>
<path d="M20.6386 45.1291C21.21 44.9318 21.7747 44.5645 22.3461 44.5645C28.6658 44.5236 34.9787 44.5372 41.2985 44.5372C41.4685 44.5372 41.6862 44.4896 41.7951 44.5713C42.2032 44.8706 42.5774 45.2175 42.9583 45.544C42.5434 45.8434 42.142 46.1631 41.7066 46.442C41.5842 46.5168 41.3733 46.4692 41.2032 46.4692C34.9447 46.4692 28.6794 46.4828 22.4209 46.442C21.8291 46.442 21.244 46.1087 20.6522 45.925C20.6454 45.6597 20.6386 45.3944 20.625 45.1291H20.6386Z" fill="white" stroke="white"/>
<path d="M20.5918 58.76C21.2925 58.5763 21.8911 58.2906 22.4966 58.2838C28.7142 58.2498 34.9251 58.2566 41.1428 58.2634C41.4762 58.2634 41.8571 58.2362 42.1428 58.3722C42.4557 58.5219 42.9455 58.9232 42.9047 59.0865C42.8095 59.4402 42.4694 59.8416 42.1292 59.9845C41.7415 60.1545 41.2449 60.0797 40.7891 60.0797C34.8027 60.0797 28.8095 60.0933 22.8231 60.0797C22.0204 60.0797 21.0612 60.3246 20.5918 58.7532V58.76Z" fill="white" stroke="white"/>
<path d="M8.80938 65.0682C10.2516 63.3948 11.5577 61.8641 12.8706 60.3471C13.3468 59.7961 13.7958 59.1907 14.3672 58.7485C14.6393 58.5376 15.1699 58.6669 15.5781 58.6397C15.5985 59.0478 15.8094 59.6056 15.6189 59.8437C13.6257 62.2995 11.5985 64.7281 9.48965 67.075C9.23795 67.3539 8.19714 67.3744 7.92503 67.1022C7.04748 66.2383 6.31278 65.2179 5.63251 64.1907C5.44884 63.9118 5.65292 63.3812 5.68013 62.9662C6.12911 63.041 6.68013 62.9798 6.99986 63.2179C7.6053 63.6737 8.08149 64.3063 8.80938 65.0682Z" fill="white" stroke="white"/>
<path d="M8.68604 54.4336C7.44115 52.8417 6.45475 51.6445 5.55679 50.3791C5.40033 50.1615 5.52958 49.4268 5.69965 49.3587C6.04659 49.2227 6.63162 49.2227 6.89693 49.4336C7.53638 49.9438 8.04659 50.6172 8.80169 51.4268C10.0874 49.9234 11.2439 48.5628 12.4071 47.2091C13.033 46.4812 13.6248 45.7193 14.3255 45.073C14.584 44.8349 15.1078 44.903 15.516 44.8281C15.5636 45.2839 15.8221 45.9098 15.618 46.1615C13.4616 48.8213 11.2303 51.42 8.69285 54.42L8.68604 54.4336Z" fill="white" stroke="white"/>
</g>
<defs>
<clipPath id="clip0_277_1972">
<rect width="100" height="100" fill="white"/>
</clipPath>
</defs>
</svg>
