<svg width="231" height="127" viewBox="0 0 231 127" fill="none" xmlns="http://www.w3.org/2000/svg">
<g clip-path="url(#clip0_518_2049)">
<g clip-path="url(#clip1_518_2049)">
<path d="M79.8832 69.7714H82.1096V71.8865L82.2198 71.9012C82.4683 71.5156 82.7069 71.1227 82.9677 70.7457C84.0325 69.2145 86.1966 69.1876 87.3667 69.8681C87.8171 70.1301 88.1758 70.4875 88.401 70.9636C88.5307 71.2378 88.6482 71.518 88.8025 71.8657C88.9567 71.6356 89.0864 71.4471 89.2113 71.2549C89.6654 70.5548 90.2223 69.9563 91.0289 69.687C92.9677 69.0395 94.8392 69.6576 95.4194 71.7176C95.5283 72.1056 95.6103 72.5168 95.6128 72.9183C95.6312 75.7946 95.625 78.6698 95.625 81.5461C95.625 81.6856 95.5932 81.824 95.5712 82.0149C94.9176 82.1312 94.2688 82.0749 93.625 82.0492C93.5173 82.0443 93.3717 81.8717 93.3239 81.7456C93.2688 81.6024 93.3007 81.4237 93.2994 81.2609C93.2933 78.7934 93.2909 76.3246 93.2786 73.8571C93.2774 73.5743 93.248 73.2855 93.1819 73.0113C92.8845 71.7714 91.483 71.3504 90.505 72.1937C89.8796 72.7322 89.5246 73.4409 89.2676 74.1998C88.991 75.015 88.8686 75.8558 88.8808 76.7249C88.9028 78.2548 88.8857 79.7848 88.8845 81.3136C88.8845 81.5327 88.8845 81.7517 88.8845 82.0235H86.5944C86.5785 81.7566 86.5527 81.5192 86.5527 81.2805C86.5479 78.8938 86.5491 76.5082 86.5393 74.1215C86.5381 73.7775 86.5099 73.4275 86.4463 73.0896C86.199 71.7983 84.8367 71.3087 83.8367 72.19C83.4377 72.5425 83.1084 73.0248 82.8783 73.5095C82.3765 74.5694 82.139 75.7065 82.1427 76.8876C82.1476 78.3564 82.1427 79.8252 82.1427 81.2928C82.1427 81.5131 82.1427 81.7346 82.1427 82.0308C81.3605 82.0994 80.6421 82.0859 79.9358 82.0455C79.7938 81.5755 79.7461 70.698 79.882 69.769L79.8832 69.7714Z" fill="#EEEEEE"/>
<path d="M109.487 75.9256C109.459 76.9561 109.316 77.9561 108.983 78.9329C108.215 81.1813 106.617 82.1728 104.459 82.3331C103.411 82.4114 102.381 82.2707 101.421 81.8031C100.153 81.185 99.3707 80.1434 98.9656 78.8252C98.3634 76.8644 98.3744 74.8815 98.9778 72.9244C99.5164 71.1777 100.655 69.9562 102.483 69.6159C104.516 69.2365 106.487 69.3528 108.004 71.0553C108.761 71.906 109.11 72.9501 109.302 74.0431C109.411 74.6624 109.428 75.2977 109.486 75.9256H109.487ZM101.055 76.0039C101.166 76.7664 101.239 77.5388 101.399 78.2915C101.579 79.1361 101.993 79.8668 102.814 80.2511C104.188 80.8949 106.07 80.4714 106.598 78.2903C106.855 77.2303 106.931 76.1544 106.842 75.0749C106.775 74.2658 106.667 73.4556 106.312 72.7028C105.841 71.704 105.026 71.2389 103.962 71.2597C102.849 71.2818 102.022 71.7922 101.597 72.873C101.202 73.8803 101.136 74.9317 101.055 76.0051V76.0039Z" fill="#EEEEEE"/>
<path d="M119.609 82.0729C119.609 81.7069 119.609 81.4474 119.609 81.1879C119.606 78.7204 119.609 76.2541 119.589 73.7865C119.585 73.4071 119.508 73.0179 119.401 72.6507C119.241 72.0974 118.819 71.849 118.257 71.7988C117.374 71.718 116.657 72.0289 116.093 72.6984C115.389 73.5332 115.008 74.5209 114.847 75.5809C114.74 76.281 114.724 76.9983 114.712 77.7094C114.691 78.9126 114.707 80.1157 114.705 81.3189C114.705 81.538 114.684 81.7571 114.672 82.0251H112.418V69.7682C113.147 69.6838 113.868 69.7352 114.679 69.7339V72.1182C114.723 72.1256 114.767 72.1329 114.811 72.1403C114.956 71.8796 115.088 71.6115 115.248 71.3606C116.398 69.5565 117.9 69.215 119.677 69.5626C120.766 69.7755 121.408 70.5993 121.716 71.6421C121.847 72.0864 121.93 72.5613 121.934 73.0228C121.957 75.8367 121.953 78.6506 121.952 81.4646C121.952 82.046 121.918 82.0704 121.314 82.0766C120.788 82.0815 120.261 82.0766 119.609 82.0766V82.0729Z" fill="#EEEEEE"/>
<path d="M76.5846 80.1141V81.9378C75.8625 82.059 75.1501 82.2059 74.4316 82.2916C73.1978 82.4384 71.9836 82.3136 70.8294 81.8411C69.4279 81.2683 68.5136 80.2108 67.9836 78.813C67.6409 77.9109 67.4597 76.9734 67.4524 76.0052C67.4438 74.8645 67.434 73.7335 67.7988 72.6197C68.4132 70.747 69.9053 69.5536 71.8673 69.4826C72.6189 69.4557 73.3704 69.4141 74.1036 69.6846C75.1305 70.0628 75.8968 70.7078 76.3496 71.7127C76.7242 72.5438 76.898 73.414 76.8882 74.3247C76.8821 74.9636 76.8686 74.9881 76.2444 74.9893C74.3888 74.993 72.5332 74.9917 70.6788 74.9893C69.7351 74.9893 69.6813 75.0223 69.811 75.944C69.9689 77.0676 70.3067 78.1325 71.0583 79.0174C72.3349 80.5205 73.969 80.7506 75.7817 80.3161C76.0143 80.2598 76.2468 80.1998 76.5846 80.1141V80.1141ZM74.5026 73.3467C74.4757 72.1876 73.8062 71.4997 72.6764 71.2892C71.5222 71.0738 70.3459 71.8412 70.0032 72.7494C69.8171 73.2427 69.8979 73.4006 70.4022 73.4055C71.6409 73.4165 72.8796 73.4091 74.1195 73.4055C74.237 73.4055 74.3533 73.3712 74.5026 73.3479V73.3467Z" fill="#EEEEEE"/>
<path d="M158.89 74.9987C158.921 76.8898 159.392 78.481 160.817 79.6486C162.287 80.853 163.969 80.6082 165.735 80.1333C165.735 80.6988 165.749 81.1811 165.724 81.6609C165.718 81.7686 165.59 81.9375 165.49 81.9607C163.516 82.432 161.543 82.6192 159.633 81.7037C158.222 81.0268 157.365 79.853 156.951 78.3818C156.413 76.4663 156.353 74.53 156.928 72.5985C157.423 70.9376 158.929 69.6438 160.663 69.5202C161.445 69.4639 162.267 69.4749 163.022 69.6585C164.578 70.0355 165.451 71.1652 165.814 72.6768C165.95 73.2435 165.965 73.8445 165.989 74.432C166.011 74.951 165.956 74.9938 165.441 74.9963C164.197 75.0036 162.954 74.9975 161.712 74.9975C160.817 74.9975 159.922 74.9975 158.889 74.9975L158.89 74.9987ZM159.064 73.3268C159.822 73.492 163.186 73.4504 163.609 73.279C163.654 72.1322 162.737 71.2803 161.435 71.257C160.186 71.235 159.099 72.1664 159.064 73.3268Z" fill="#EEEEEE"/>
<path d="M154.445 74.9725H147.544C147.108 76.1989 148.06 78.5612 149.294 79.5918C150.795 80.8452 152.464 80.5734 154.201 80.1463V81.9394C153.485 82.0569 152.774 82.2062 152.055 82.2846C150.76 82.4265 149.495 82.3005 148.29 81.7558C147.058 81.1977 146.21 80.2687 145.708 79.0324C145.065 77.4511 144.945 75.8024 145.13 74.112C145.243 73.079 145.511 72.1145 146.114 71.2614C146.852 70.2161 147.888 69.6323 149.137 69.5099C149.857 69.4389 150.61 69.4634 151.321 69.5919C152.801 69.8575 153.703 70.8305 154.196 72.2149C154.502 73.0741 154.572 73.9566 154.446 74.9725H154.445ZM147.579 73.3018C148.126 73.4572 151.609 73.445 152.09 73.2858C152.197 72.1732 151.278 71.2834 149.97 71.2332C148.716 71.1855 147.546 72.1977 147.579 73.3018Z" fill="#EEEEEE"/>
<path d="M64.0927 82.0373H61.9581C61.8014 81.5918 61.7573 59.6911 61.9177 58.9004H64.0523C64.1931 59.3839 64.2347 81.1205 64.0927 82.0373Z" fill="#EEEEEE"/>
<path d="M137.419 69.7672H139.643V71.8883C139.682 71.903 139.72 71.9165 139.76 71.9312C140.521 70.4489 141.605 69.4698 143.445 69.4906C143.523 70.2604 143.495 70.9863 143.458 71.7096C143.454 71.7965 143.325 71.9055 143.228 71.9508C143.104 72.0095 142.954 72.0279 142.813 72.0413C141.247 72.1956 140.362 73.1527 139.952 74.5774C139.768 75.2139 139.7 75.8993 139.684 76.5652C139.647 78.1539 139.673 79.7438 139.67 81.3326C139.67 81.5504 139.648 81.7695 139.635 82.0339H137.478C137.316 81.6104 137.255 70.7745 137.42 69.7672H137.419Z" fill="#EEEEEE"/>
<path d="M114.85 88.9311C114.946 88.2689 114.987 87.5932 115.149 86.947C115.557 85.3252 116.733 84.6728 118.338 84.9445C119.164 85.0841 119.72 85.6226 120.057 86.3668C120.214 86.7156 120.337 87.0975 120.383 87.4757C120.547 88.7964 120.615 90.1171 120.113 91.3949C119.501 92.9543 117.568 93.5748 116.202 92.5944C115.828 92.3251 115.562 91.8674 115.332 91.4488C115.151 91.1183 115.061 90.7205 115.001 90.3411C114.929 89.8809 114.93 89.4084 114.9 88.9408C114.883 88.9372 114.867 88.9335 114.85 88.9286V88.9311ZM115.802 88.9066C115.845 88.9127 115.886 88.9188 115.929 88.9249C115.929 89.2713 115.892 89.6226 115.939 89.9629C115.997 90.3827 116.075 90.8135 116.232 91.204C116.493 91.8588 116.981 92.2554 117.728 92.2578C118.459 92.2603 118.896 91.8551 119.174 91.2297C119.247 91.0632 119.304 90.8857 119.343 90.707C119.58 89.6385 119.546 88.5626 119.41 87.4868C119.38 87.2469 119.317 87.0008 119.218 86.7817C118.946 86.1857 118.582 85.6838 117.84 85.6496C117.083 85.6153 116.464 85.9592 116.235 86.7083C116.017 87.4182 115.941 88.1722 115.803 88.9078L115.802 88.9066Z" fill="#EEEEEE"/>
<path d="M109.628 92.8519H108.756V89.2313C107.663 89.1812 106.656 89.1983 105.563 89.2228C105.447 90.4296 105.585 91.6255 105.478 92.8421H104.672C104.592 90.2668 104.656 87.7001 104.642 85.0821H105.512V88.4504C105.986 88.4504 106.365 88.4504 106.746 88.4504C107.194 88.4504 107.642 88.4553 108.09 88.4504C108.713 88.4443 108.729 88.4309 108.734 87.7846C108.74 87.1126 108.731 86.4407 108.736 85.7675C108.737 85.5484 108.762 85.3293 108.778 85.0723H109.628V92.8519V92.8519Z" fill="#EEEEEE"/>
<path d="M134.203 85.0293C135.336 85.0293 136.435 85.0293 137.534 85.0293C137.766 85.0293 137.935 85.0893 137.935 85.3671C137.935 85.6523 137.785 85.7674 137.515 85.7674C136.883 85.7674 136.252 85.7674 135.62 85.7735C135.051 85.7796 135.02 85.8053 135.01 86.3487C135.001 86.8579 135.02 87.3683 135.007 87.8775C134.997 88.2471 135.163 88.3842 135.522 88.3769C136.233 88.3634 136.944 88.3732 137.703 88.3732V89.1149C137.494 89.1358 137.278 89.1725 137.063 89.1774C136.554 89.1884 136.043 89.1921 135.534 89.181C135.185 89.1737 135.001 89.2961 135.007 89.6731C135.018 90.345 135.017 91.0182 135.008 91.6902C135.004 92.0305 135.16 92.159 135.493 92.1529C136.165 92.1418 136.838 92.1541 137.51 92.1516C137.791 92.1504 138.02 92.2251 137.961 92.558C137.941 92.6792 137.782 92.8677 137.682 92.8701C136.507 92.8921 135.332 92.8836 134.181 92.8836C134.002 92.2141 134.021 85.5593 134.203 85.0305V85.0293Z" fill="#EEEEEE"/>
<path d="M154.967 85.8659C154.617 85.8047 154.262 85.7325 153.903 85.6835C153.416 85.6174 152.929 85.5881 152.475 85.8463C151.85 86.2025 151.689 86.9626 152.153 87.5085C152.319 87.7043 152.548 87.8561 152.772 87.9907C153.363 88.3494 153.986 88.6578 154.562 89.0397C155.511 89.6725 155.794 90.5244 155.444 91.5819C155.178 92.3824 154.565 92.8206 153.771 92.9087C153.051 92.9883 152.309 92.9785 151.587 92.905C150.908 92.8365 150.901 92.7569 151.023 91.9516C151.194 91.9895 151.361 92.0409 151.531 92.0629C152.073 92.1327 152.617 92.2453 153.158 92.2404C153.893 92.2343 154.391 91.8365 154.547 91.2588C154.705 90.6676 154.473 90.1168 153.848 89.7104C153.371 89.3995 152.865 89.1339 152.378 88.839C152.101 88.6713 151.826 88.4962 151.565 88.3041C150.467 87.4938 150.701 85.5073 152.252 85.0507C153.013 84.8268 153.781 84.8525 154.547 84.992C155.139 85.0997 155.167 85.1768 154.967 85.8635V85.8659Z" fill="#EEEEEE"/>
<path d="M127.566 92.8395H126.727C126.711 92.5715 126.685 92.3328 126.685 92.0953C126.681 90.2398 126.685 88.383 126.681 86.5275C126.681 85.7882 126.665 85.7772 125.927 85.7698C125.662 85.7674 125.397 85.7637 125.132 85.7661C124.881 85.7674 124.756 85.6548 124.761 85.3965C124.765 85.137 124.902 85.0317 125.145 85.033C125.186 85.033 125.227 85.0293 125.268 85.0293C126.492 85.0293 127.716 85.0293 128.938 85.0293C129.195 85.0293 129.446 85.0354 129.433 85.3989C129.421 85.7441 129.187 85.7723 128.922 85.7698C128.5 85.7674 128.079 85.7698 127.565 85.7698V92.8395H127.566Z" fill="#EEEEEE"/>
<path d="M146.734 92.186V92.7858C146.617 92.8188 146.504 92.8764 146.39 92.8776C145.453 92.8862 144.514 92.8776 143.576 92.8874C143.259 92.8898 143.077 92.7956 143.078 92.4382C143.087 90.0722 143.087 87.7063 143.092 85.3415C143.092 85.2657 143.131 85.1885 143.163 85.0723H143.92C143.935 85.3195 143.958 85.5374 143.958 85.7552C143.962 87.6524 143.958 89.5484 143.962 91.4455C143.962 92.1261 143.977 92.1383 144.636 92.1444C145.126 92.1481 145.615 92.1395 146.105 92.1444C146.303 92.1469 146.502 92.1714 146.734 92.1873V92.186Z" fill="#EEEEEE"/>
<path d="M166.843 68.3952C167.541 67.7856 168.702 68.0867 169.105 68.9827C169.425 69.6926 169.214 70.4919 168.594 70.9276C167.942 71.3841 167.034 71.285 166.485 70.6963C166.015 70.1932 165.964 69.2238 166.405 68.6596C166.507 68.5298 166.701 68.4747 166.853 68.3854C166.729 68.5678 166.598 68.7452 166.482 68.9325C166.192 69.4001 166.196 70.0231 166.513 70.4233C166.879 70.886 167.355 71.1136 167.953 70.9863C168.688 70.8309 169.131 70.2128 169.055 69.4698C168.982 68.7611 168.368 68.2385 167.618 68.2716C167.359 68.2826 167.1 68.3523 166.842 68.394L166.843 68.3952Z" fill="#EEEEEE"/>
<path d="M167.102 68.7604C167.319 68.7604 167.56 68.7384 167.794 68.7653C168.239 68.8167 168.349 69.0114 168.299 69.4728C168.266 69.7776 168.293 70.0897 168.293 70.3981C168.249 70.4104 168.205 70.4226 168.161 70.4361C168.097 70.332 168.043 70.2206 167.966 70.1276C167.873 70.0138 167.773 69.8498 167.653 69.8265C167.42 69.7812 167.362 69.9771 167.336 70.1778C167.325 70.2647 167.267 70.3467 167.222 70.452C166.937 70.108 166.899 69.5475 167.102 68.7629V68.7604ZM168.09 69.4214C167.62 69.0175 167.615 69.0187 167.377 69.4214H168.09Z" fill="#EEEEEE"/>
<path fill-rule="evenodd" clip-rule="evenodd" d="M116.724 40.629C116.684 40.58 116.64 40.5265 116.591 40.467L116.592 40.4694C114.641 43.522 114.001 46.7876 114.226 50.2478C114.313 51.5905 114.564 52.9124 115.159 54.2857C115.984 53.0434 116.958 52.2098 118.251 51.7937C119.56 51.3726 120.848 51.3971 122.16 51.9638C121.639 55.014 119.923 56.9283 116.877 57.681C117.446 58.7594 118.232 59.5611 119.03 60.3334C121.865 63.0751 125.276 64.5439 129.187 64.7667C129.341 65.6577 129.292 69.3982 129.104 69.889H127.117V71.7336H129.267V72.5573C129.267 73.2916 129.266 74.0259 129.266 74.7602C129.265 76.4127 129.263 78.0651 129.273 79.7176C129.28 80.8008 129.704 81.676 130.733 82.1313C131.862 82.6307 133.055 82.5183 134.236 82.407C134.294 82.4016 134.352 82.3961 134.41 82.3908C134.542 82.3785 134.751 82.1839 134.762 82.0591C134.792 81.7147 134.788 81.3665 134.783 80.9945C134.781 80.8522 134.78 80.7064 134.78 80.556C134.685 80.5708 134.598 80.5846 134.515 80.5976C134.29 80.6331 134.102 80.6629 133.913 80.6906C132.644 80.8755 131.81 80.2574 131.629 78.993C131.603 78.8118 131.603 78.627 131.603 78.4434C131.6 76.4447 131.598 74.4447 131.6 72.4459C131.6 72.3029 131.612 72.1603 131.626 71.9892C131.634 71.8997 131.642 71.8024 131.65 71.6932H134.953V69.8425H131.604C131.604 69.3476 131.602 68.8599 131.6 68.3775C131.594 67.1586 131.589 65.9736 131.62 64.7924C131.963 64.7207 132.302 64.6619 132.638 64.6036C133.588 64.4388 134.512 64.2785 135.412 63.8462C135.344 63.7953 135.288 63.7534 135.239 63.7171C135.161 63.6583 135.103 63.6145 135.043 63.5721C133.482 62.4741 132.762 60.9576 132.833 59.0641C132.855 58.4472 132.995 58.3261 133.573 58.3726C135.771 58.5488 137.508 59.4827 138.591 61.4705C138.659 61.5949 138.732 61.7171 138.802 61.8366C138.84 61.8994 138.876 61.9614 138.912 62.0225C141.431 61.0396 145.444 55.3139 145.428 52.8561C145.158 52.8699 144.888 52.8905 144.617 52.9111C144.023 52.9564 143.428 53.0017 142.837 52.9748C141.055 52.8928 139.685 51.9834 138.553 50.6603C138.324 50.3935 138.316 50.1401 138.587 49.921C138.701 49.8287 138.814 49.7331 138.927 49.6375C139.266 49.349 139.607 49.0596 139.993 48.8537C141.754 47.9112 143.546 47.9284 145.329 48.8304C145.449 48.8917 145.569 48.9534 145.714 49.0275C145.8 49.0719 145.896 49.1209 146.005 49.1768C146.04 47.3751 145.786 45.7227 145.251 43.9982C145.147 44.0881 145.054 44.169 144.969 44.2436C144.801 44.3903 144.661 44.5125 144.518 44.631C143.537 45.4388 142.404 45.839 141.139 45.8611C140.688 45.8684 140.581 45.7778 140.545 45.3519C140.362 43.2417 140.825 41.3409 142.378 39.8011C142.472 39.7083 142.557 39.6066 142.657 39.4883C142.705 39.4304 142.757 39.3685 142.815 39.3017C139.242 34.893 134.713 32.7583 129.065 33.0056C124.82 33.1904 120.279 35.6898 118.565 38.0827C118.625 38.0896 118.681 38.0973 118.736 38.1047C118.846 38.1195 118.948 38.1333 119.051 38.139C121.256 38.2589 122.999 39.6322 123.637 41.7522C123.842 42.4315 123.806 42.538 123.15 42.7313C120.996 43.3654 118.548 42.8611 117.003 40.97C116.92 40.8674 116.836 40.7654 116.724 40.629ZM126.816 42.4792C125.478 41.4841 124.505 39.5992 124.505 37.9505L124.504 37.9517C124.557 36.7693 124.839 35.6592 125.557 34.6947C125.848 34.3042 125.951 34.2785 126.367 34.527C127.835 35.4046 128.724 36.6665 128.915 38.3936C129.088 39.948 128.62 41.2736 127.549 42.4021C127.318 42.6457 127.115 42.702 126.816 42.4792ZM124.597 54.7435C125.805 53.5648 127.249 53.1548 128.959 53.3873H128.958C129.149 54.4975 128.962 55.5146 128.51 56.4595C127.557 58.457 125.969 59.5733 123.733 59.7337C123.367 59.7606 123.203 59.6259 123.164 59.2783C122.97 57.5537 123.309 56.0005 124.597 54.7435ZM138.571 44.0313C138.571 46.3973 136.653 48.3152 134.287 48.3152C131.921 48.3152 130.003 46.3973 130.003 44.0313C130.003 41.6654 131.921 39.7474 134.287 39.7474C136.653 39.7474 138.571 41.6654 138.571 44.0313ZM129.024 46.9689C129.024 48.9292 127.435 50.5184 125.475 50.5184C123.514 50.5184 121.925 48.9292 121.925 46.9689C121.925 45.0085 123.514 43.4193 125.475 43.4193C127.435 43.4193 129.024 45.0085 129.024 46.9689ZM134.899 56.3935C136.522 56.3935 137.837 55.0783 137.837 53.456C137.837 51.8336 136.522 50.5184 134.899 50.5184C133.277 50.5184 131.962 51.8336 131.962 53.456C131.962 55.0783 133.277 56.3935 134.899 56.3935Z" fill="#EEEEEE"/>
</g>
</g>
<defs>
<clipPath id="clip0_518_2049">
<rect width="231" height="127" fill="white"/>
</clipPath>
<clipPath id="clip1_518_2049">
<rect width="107.59" height="60.2198" fill="white" transform="translate(61.7051 32.8887)"/>
</clipPath>
</defs>
</svg>
