<svg width="210" height="76" viewBox="0 0 210 76" fill="none" xmlns="http://www.w3.org/2000/svg">
<path d="M4.97046 0C5.32608 0.206758 5.7396 0.140595 6.12003 0.26465C8.22896 0.918005 9.70936 2.96077 9.70936 5.293C9.70936 10.5695 9.70936 15.8377 9.70936 21.1141C9.70936 25.8034 9.70935 30.4844 9.70108 35.1737C9.70108 35.6368 9.81688 35.7526 10.28 35.7443C13.919 35.7278 17.5662 35.7857 21.2051 35.7112C23.314 35.6699 25.2576 36.8443 25.5057 39.7472C25.638 41.3185 25.3403 42.6997 24.0914 43.7748C23.314 44.4447 22.4043 44.7011 21.3953 44.7011C16.0941 44.7011 10.801 44.6763 5.49976 44.7011C2.10893 44.7176 0 42.1704 0 39.1103C0.0165406 27.7883 0 16.4662 0 5.15241C0 2.97732 1.57137 0.752599 3.48181 0.190217C3.6803 0.132325 3.92841 0.206758 4.07727 0H4.97046Z" fill="#A8A8A8"/>
<path d="M209.86 15.6638C209.86 15.6638 209.777 15.6473 209.736 15.639C209.496 15.4653 209.488 15.2007 209.479 14.9443C209.463 13.0338 209.463 11.1234 209.479 9.21296C209.479 8.95658 209.496 8.69193 209.736 8.51825C209.777 8.51825 209.81 8.50998 209.851 8.50171V15.6721L209.86 15.6638Z" fill="#525252"/>
<path d="M60.4554 75.2931C48.2567 75.2187 37.4804 67.7092 32.7333 56.6849C31.3935 53.567 33.1881 50.3002 36.5045 49.7792C38.6466 49.4484 40.7637 50.6724 41.69 52.7896C43.6832 57.3548 46.8838 60.7952 51.2753 63.144C61.3734 68.5363 74.3992 64.459 79.6012 54.2534C79.8658 53.7324 80.1139 53.1948 80.3538 52.6572C81.4951 50.1017 84.2822 48.9521 86.7715 50.0107C89.2857 51.0859 90.4684 53.8895 89.3354 56.4451C85.0182 66.2123 77.6246 72.2827 67.1957 74.6398C65.1612 75.1029 63.0853 75.2435 60.4554 75.2848V75.2931Z" fill="#494949"/>
<path d="M163.935 26.7958C163.935 29.037 164.001 31.2783 163.918 33.5196C163.827 35.9428 163.323 38.2833 161.942 40.3508C160.461 42.5508 158.303 43.783 155.822 44.4695C151.174 45.7596 146.526 45.7266 141.969 44.089C138.082 42.6996 135.973 39.7885 135.253 35.8022C135.005 34.4293 134.914 33.0399 134.922 31.6422C134.931 27.8378 134.898 24.0335 134.939 20.2374C134.956 18.3683 135.898 16.9872 137.528 16.1188C139.099 15.2835 140.695 15.3662 142.176 16.3338C143.689 17.318 144.4 18.7736 144.4 20.5765C144.4 24.2651 144.4 27.9619 144.4 31.6505C144.4 34.206 146.286 36.5134 148.693 36.654C151.719 36.8277 154.391 35.3142 154.44 31.5512C154.49 27.8048 154.44 24.0583 154.465 20.3119C154.473 18.2939 155.962 16.3669 157.897 15.788C160.957 14.87 163.951 17.103 163.984 20.3615C164.009 22.5118 163.984 24.6621 163.984 26.8123H163.943L163.935 26.7958Z" fill="#A8A8A8"/>
<path d="M183.907 45.0319C180.938 44.9575 178.126 44.7259 175.455 43.6673C174.032 43.1049 172.783 42.2862 171.774 41.12C170.865 40.0697 170.616 38.8953 171.129 37.5886C171.658 36.2571 172.692 35.5624 174.065 35.2977C175.661 34.9917 177.109 35.5541 178.581 36.0172C180.061 36.4887 181.525 37.0345 183.088 37.233C183.7 37.3157 184.296 37.3074 184.874 37.0676C185.627 36.7533 185.9 36.1826 185.71 35.397C185.486 34.4542 184.825 33.9579 183.981 33.6354C182.799 33.1805 181.533 32.9986 180.326 32.643C178.812 32.2046 177.324 31.7084 175.893 31.0302C171.965 29.1777 170.583 24.0005 173.288 20.2954C174.876 18.1203 177.076 16.8466 179.631 16.1933C183.816 15.1347 187.959 15.3332 192.012 16.9045C192.855 17.2271 193.641 17.6654 194.319 18.2774C195.312 19.1706 195.585 20.2871 195.237 21.5276C194.873 22.8178 193.964 23.5787 192.624 23.8268C191.367 24.0584 190.184 23.7027 188.985 23.4464C187.678 23.1652 186.404 22.7268 185.073 22.5449C184.353 22.4457 183.642 22.4374 182.956 22.7268C181.823 23.1983 181.591 24.3478 182.46 25.2079C182.873 25.6215 183.394 25.8448 183.94 26.0267C185.751 26.6304 187.571 27.1845 189.365 27.8131C191.458 28.5491 193.385 29.5664 194.708 31.4272C197.04 34.7023 196.503 38.9367 193.443 41.7899C191.441 43.6508 189.034 44.5688 186.363 44.8996C185.503 45.0071 184.643 45.0154 183.915 45.0402L183.907 45.0319Z" fill="#A8A8A8"/>
<path d="M64.1523 45.0982C61.1005 45.1643 58.1894 44.5937 55.5759 42.9644C52.0114 40.7397 49.9769 37.4068 49.0755 33.3874C47.7026 27.3335 50.804 20.5601 56.221 17.5745C58.0074 16.5904 59.9261 16.0694 61.9441 15.937C64.45 15.7633 66.9394 15.8709 69.3543 16.6731C70.4956 17.0535 71.5625 17.5911 72.3812 18.5091C73.3819 19.6504 73.8699 20.9985 73.5722 22.4788C73.1669 24.4803 71.1572 25.5885 69.1144 25.1005C67.816 24.7863 66.5176 24.4058 65.2026 24.2239C61.3156 23.678 58.4623 25.6216 57.7014 28.9132C56.7751 32.9243 59.1735 36.4226 63.0109 36.9106C64.5492 37.109 66.0379 36.7451 67.5183 36.3482C68.4446 36.1001 69.3708 35.9099 70.3385 36.0339C72.191 36.2737 73.2662 37.3737 73.6549 39.1932C74.1345 41.4344 72.894 42.9727 71.3392 43.7667C69.6024 44.6516 67.725 44.9576 65.8146 45.0899C65.2688 45.1313 64.7146 45.0899 64.1605 45.0899L64.1523 45.0982Z" fill="#A8A8A8"/>
<path d="M32.3537 30.3768C32.3537 27.0356 32.3454 23.6944 32.3537 20.3449C32.3619 17.5992 34.5949 15.4654 37.3241 15.5729C39.8383 15.6722 41.8728 17.7646 41.9472 20.3532C41.972 21.2712 41.9472 22.1892 41.9472 23.1072C41.9472 28.7972 41.9472 34.4954 41.9472 40.1854C41.9472 42.5259 40.5909 44.4198 38.5068 45.0235C35.3806 45.925 32.3619 43.692 32.3537 40.4501C32.3371 37.0923 32.3537 33.7263 32.3537 30.3685V30.3768Z" fill="#A8A8A8"/>
<path d="M89.9643 30.443C89.9643 33.7842 89.9643 37.1254 89.9643 40.4749C89.9643 42.8568 88.1531 44.8995 85.796 45.1973C83.3977 45.495 81.1481 44.0063 80.5444 41.7072C80.4286 41.2606 80.3707 40.8057 80.3707 40.3509C80.3707 33.7181 80.3707 27.0853 80.3707 20.4607C80.3707 17.6819 82.4879 15.5647 85.1923 15.5813C87.8057 15.5978 89.956 17.7563 89.956 20.3615C89.956 23.7192 89.956 27.0853 89.956 30.443H89.9643Z" fill="#A8A8A8"/>
<path d="M85.1427 10.0567C82.4631 10.0567 80.3707 7.9808 80.3707 5.31776C80.3707 2.6299 82.4714 0.529244 85.1592 0.537514C87.814 0.545785 89.9229 2.66299 89.9146 5.30949C89.9146 7.97253 87.814 10.0567 85.1427 10.0567Z" fill="#494949"/>
<path d="M37.1165 10.0567C34.47 10.0567 32.3445 7.92291 32.3528 5.29295C32.3611 2.65472 34.4948 0.529244 37.1331 0.537514C39.7878 0.537514 41.9133 2.64645 41.9298 5.28468C41.9464 7.92291 39.7878 10.0649 37.1165 10.0567Z" fill="#494949"/>
<path d="M166.994 59.604C166.754 59.6454 166.713 59.8687 166.605 60.0341C166.101 60.8198 165.621 61.622 165.125 62.4159C164.637 63.2016 164.546 63.2016 164.042 62.3911C163.545 61.5972 163.057 60.8032 162.553 60.0093C162.462 59.8604 162.412 59.6619 162.206 59.604C162.007 59.7612 162.09 59.9762 162.09 60.1664C162.082 61.2167 162.073 62.2588 162.09 63.3091C162.09 63.6978 161.966 63.8798 161.544 63.855C161.064 63.8302 160.585 63.8302 160.113 63.855C159.749 63.8715 159.625 63.7061 159.625 63.367C159.625 60.7371 159.625 58.1154 159.625 55.4854C159.625 55.1629 159.741 54.9975 160.08 55.0305C160.138 55.0305 160.196 55.0388 160.246 55.0305C161.511 54.7907 162.363 55.2621 162.933 56.42C163.281 57.1229 163.818 57.7267 164.248 58.3883C164.488 58.7605 164.662 58.7935 164.918 58.3966C165.555 57.4289 166.225 56.4944 166.862 55.5268C167.102 55.1629 167.375 54.9892 167.813 55.0223C168.235 55.0554 168.656 55.0388 169.078 55.0223C169.401 55.014 169.55 55.1381 169.55 55.4689C169.55 58.1154 169.55 60.7619 169.55 63.4001C169.55 63.7309 169.401 63.855 169.078 63.8467C168.582 63.8302 168.086 63.8219 167.59 63.8467C167.184 63.8632 167.077 63.673 167.085 63.3174C167.085 62.2174 167.085 61.1175 167.085 60.0093C167.085 59.8687 167.118 59.7115 166.978 59.5958L166.994 59.604Z" fill="#A8A8A8"/>
<path d="M126.18 59.1823C126.18 60.5552 126.163 61.8784 126.188 63.1934C126.196 63.6896 126.064 63.9129 125.535 63.855C125.154 63.8137 124.757 63.822 124.377 63.855C123.897 63.8964 123.74 63.7227 123.748 63.2348C123.773 60.886 123.756 58.529 123.756 56.1802C123.756 55.9403 123.773 55.7005 123.756 55.4607C123.723 55.072 123.856 54.9066 124.278 54.9066C126.188 54.8817 126.188 54.8652 127.296 56.4366C127.941 57.3463 128.595 58.2643 129.24 59.1823C129.347 59.3312 129.413 59.5131 129.612 59.5627C129.794 59.447 129.711 59.265 129.711 59.1161C129.711 57.9004 129.728 56.6929 129.711 55.4772C129.703 55.0389 129.86 54.8817 130.29 54.9148C130.563 54.9396 130.844 54.9148 131.117 54.9148C132.143 54.9148 132.151 54.7494 132.143 55.9734C132.143 58.1981 132.143 60.4229 132.143 62.6476C132.143 64.0701 132.234 63.8385 130.935 63.855C130.737 63.855 130.53 63.8302 130.331 63.855C129.868 63.9129 129.579 63.7144 129.322 63.3423C128.454 62.0935 127.561 60.8529 126.676 59.6124C126.568 59.4552 126.502 59.2485 126.188 59.174L126.18 59.1823Z" fill="#A8A8A8"/>
<path d="M174.908 54.9147C175.868 54.9147 176.819 54.9313 177.778 54.9147C178.192 54.9065 178.341 55.0636 178.324 55.4606C178.308 55.8493 178.316 56.2297 178.324 56.6184C178.332 56.9823 178.192 57.1395 177.803 57.1395C176.753 57.1229 175.711 57.1395 174.66 57.1312C174.23 57.1312 173.966 57.2056 173.966 57.7267C173.966 58.2311 174.189 58.3552 174.636 58.3469C175.52 58.3304 176.397 58.3552 177.282 58.3387C177.687 58.3304 177.836 58.4627 177.844 58.868C177.894 60.5468 177.902 60.5468 176.232 60.5468C175.735 60.5468 175.239 60.5468 174.743 60.5468C174.346 60.5468 173.957 60.5138 173.966 61.1092C173.966 61.7295 174.387 61.6468 174.768 61.6468C175.76 61.6468 176.753 61.6633 177.745 61.6468C178.183 61.6385 178.316 61.8039 178.324 62.2257C178.365 63.8632 178.374 63.8632 176.72 63.8632C175.173 63.8632 173.627 63.8467 172.088 63.8715C171.65 63.8715 171.501 63.7392 171.509 63.3091C171.518 60.704 171.518 58.0905 171.509 55.4854C171.509 55.0553 171.658 54.9065 172.097 54.923C173.031 54.9561 173.974 54.9313 174.908 54.9313V54.9147Z" fill="#A8A8A8"/>
<path d="M209.744 8.51023C209.744 10.8838 209.744 13.2574 209.744 15.631C208.873 15.6806 208.437 15.2864 208.437 14.4483V10.6522C208.437 10.6522 208.379 10.6357 208.346 10.6357C208.115 11.5289 207.883 12.4221 207.66 13.3236C207.494 13.9604 207.329 14.5972 207.188 15.2423C207.114 15.5648 206.965 15.6723 206.626 15.6723C205.658 15.6641 205.658 15.6723 205.418 14.7461C205.096 13.489 204.782 12.2319 204.467 10.9665C204.434 10.8425 204.41 10.7184 204.269 10.5944C204.269 12.1244 204.228 13.6213 204.285 15.1099C204.31 15.8129 203.897 15.6392 203.516 15.6723C203.128 15.6971 202.888 15.6806 202.896 15.1513C202.929 13.092 202.921 11.041 202.896 8.98164C202.896 8.58467 203.02 8.46888 203.392 8.51023C203.955 8.55986 204.666 8.28694 205.046 8.61775C205.394 8.92375 205.394 9.62673 205.543 10.156C205.799 11.0906 206.047 12.0251 206.303 12.9597C206.312 12.9927 206.345 13.0176 206.403 13.0755C206.775 11.686 207.147 10.3132 207.486 8.94029C207.569 8.60948 207.693 8.48542 208.032 8.51023C208.603 8.54332 209.173 8.52678 209.744 8.53505V8.51023Z" fill="#A8A8A8"/>
<path d="M141.25 54.9149C142.242 54.9149 143.234 54.9315 144.227 54.9149C144.607 54.9149 144.764 55.039 144.74 55.4277C144.715 55.8329 144.715 56.2382 144.74 56.6351C144.764 57.0321 144.591 57.1562 144.219 57.1313C143.888 57.1065 143.557 57.1313 143.226 57.1313C142.523 57.1313 142.457 57.1975 142.449 57.9253C142.449 59.6538 142.449 61.374 142.449 63.1025C142.449 63.6043 142.195 63.8551 141.688 63.8551C141.324 63.8551 140.952 63.8303 140.588 63.8551C140.117 63.8965 139.984 63.6732 139.984 63.2431C139.992 61.465 139.984 59.6869 139.984 57.9005C139.984 57.1396 139.968 57.1231 139.215 57.1231C137.669 57.1231 137.685 57.1231 137.669 55.5848C137.669 55.0555 137.842 54.8818 138.372 54.9066C139.323 54.948 140.282 54.9149 141.233 54.9149H141.25Z" fill="#A8A8A8"/>
<path d="M191.011 54.9148C192.003 54.9148 192.996 54.9313 193.988 54.9148C194.401 54.9065 194.55 55.0554 194.517 55.4606C194.492 55.841 194.492 56.2297 194.517 56.6185C194.534 56.9906 194.41 57.1643 194.013 57.1395C193.665 57.1147 193.318 57.1395 192.962 57.1395C192.309 57.1395 192.226 57.2222 192.226 57.859C192.226 59.604 192.226 61.3491 192.226 63.0858C192.226 63.6041 191.962 63.8633 191.432 63.8633C191.135 63.8633 190.845 63.8633 190.548 63.8633C190.029 63.8633 189.77 63.5931 189.77 63.0528C189.77 61.4566 189.77 59.8604 189.77 58.2642C189.77 57.1477 189.96 57.1312 188.637 57.1312C187.405 57.1312 187.463 57.3628 187.471 55.9486C187.471 55.8907 187.471 55.841 187.471 55.7831C187.471 55.2153 187.749 54.9313 188.306 54.9313C189.208 54.9313 190.109 54.9313 191.011 54.9313V54.9148Z" fill="#A8A8A8"/>
<path d="M198.182 12.6287C198.182 11.9505 198.182 11.2724 198.182 10.5942C198.182 10.0098 197.898 9.71754 197.33 9.71754C197.181 9.71754 197.032 9.71754 196.892 9.71754C195.982 9.71754 195.99 9.71754 196.065 8.8078C196.081 8.60932 196.114 8.5018 196.346 8.5018C198.074 8.5018 199.803 8.5018 201.523 8.5018C201.63 8.5018 201.771 8.49353 201.779 8.63413C201.796 8.96494 201.854 9.32057 201.746 9.61003C201.664 9.83333 201.316 9.69273 201.085 9.701C200.77 9.71754 200.456 9.72581 200.15 9.701C199.786 9.66792 199.687 9.80024 199.695 10.1641C199.712 11.8182 199.695 13.464 199.712 15.1181C199.712 15.5481 199.596 15.6804 199.166 15.6722C198.19 15.6474 198.19 15.6722 198.19 14.7211C198.19 14.0264 198.19 13.3234 198.19 12.6287H198.182Z" fill="#A8A8A8"/>
<path d="M99.8974 61.647C99.7486 61.647 99.5997 61.647 99.4591 61.647C99.0208 61.6635 98.8967 61.4154 98.905 61.0184C98.905 60.6297 98.9546 60.3072 99.4509 60.3237C99.7817 60.3237 100.112 60.3072 100.443 60.3485C100.832 60.3899 101.121 60.6214 101.113 61.0267C101.113 61.4402 100.791 61.6139 100.402 61.647C100.237 61.6635 100.071 61.647 99.9057 61.647H99.8974Z" fill="#A8A8A8"/>
<path fill-rule="evenodd" clip-rule="evenodd" d="M98.6572 37.572C101.725 42.8485 106.522 45.1973 111.476 45.3544C115.868 45.3544 118.953 44.4777 121.748 42.5921C128.141 38.2667 130.225 29.7648 126.421 23.132C123.791 18.5503 119.73 16.0278 114.503 15.4406C109.45 14.8783 104.976 16.2346 101.262 19.7826C96.4573 24.3726 95.3242 31.849 98.6572 37.572ZM111.517 23.777C108.242 24.3229 106.067 27.0769 106.067 30.4594L106.059 30.4677C106.075 30.9639 106.092 31.4519 106.183 31.9481C107.026 36.6456 112.121 39.1598 116.537 36.0667C119.06 34.3051 120.044 29.0783 117.48 26.0844C115.884 24.2154 113.907 23.3718 111.517 23.777Z" fill="#A8A8A8"/>
<path fill-rule="evenodd" clip-rule="evenodd" d="M145.07 59.3893C145.053 61.9118 147.121 63.9628 149.66 63.9628H149.668C151.984 64.1117 154.333 62.0441 154.333 59.4059C154.324 56.8669 152.29 54.882 149.767 54.791C147.485 54.7083 145.078 56.6188 145.07 59.3893ZM149.685 61.7133C150.851 61.7133 151.86 60.6464 151.868 59.3976V59.3894C151.885 58.1405 150.893 57.0654 149.718 57.0406C148.569 57.0158 147.535 58.1075 147.535 59.3563C147.527 60.6051 148.536 61.7133 149.685 61.7133Z" fill="#A8A8A8"/>
<path fill-rule="evenodd" clip-rule="evenodd" d="M104.553 59.3893C104.537 61.9118 106.613 63.9628 109.143 63.9628C111.459 64.12 113.808 62.0441 113.808 59.4141C113.808 56.8752 111.773 54.882 109.251 54.791C106.968 54.7083 104.57 56.6188 104.553 59.3893ZM109.202 61.7133C110.368 61.6968 111.369 60.6051 111.352 59.3645V59.3563C111.344 58.0992 110.343 57.0406 109.169 57.0406C108.019 57.0406 106.994 58.1571 107.019 59.3893C107.044 60.663 108.052 61.7381 109.202 61.7133Z" fill="#A8A8A8"/>
<path fill-rule="evenodd" clip-rule="evenodd" d="M183.353 62.6449C183.391 62.6436 183.429 62.6423 183.467 62.6413C183.507 62.6402 183.548 62.6395 183.588 62.6394C183.632 62.6395 183.675 62.6413 183.718 62.6431C183.805 62.6468 183.891 62.6504 183.974 62.6394C184.71 62.565 185.322 62.6808 185.553 63.5243C185.628 63.7807 185.851 63.8634 186.124 63.8634H187.836C188.489 63.8634 188.547 63.7725 188.283 63.1604C188.069 62.67 187.856 62.1799 187.643 61.6901L187.63 61.6606L187.629 61.6576L187.628 61.6547C186.912 60.0089 186.197 58.3658 185.487 56.7179C184.991 55.5655 184.123 55.0059 182.882 55.039C182.568 55.0473 182.369 55.1465 182.245 55.4442C181.12 58.0825 179.979 60.7207 178.838 63.3589C178.681 63.7146 178.772 63.8717 179.169 63.8717C179.739 63.8552 180.31 63.8386 180.881 63.8717C181.319 63.8965 181.592 63.7394 181.724 63.3341C181.914 62.7717 182.303 62.5733 182.874 62.6394C183.034 62.656 183.194 62.6504 183.353 62.6449ZM183.954 59.5015C183.85 59.2579 183.744 59.0092 183.634 58.7439V58.7522C183.421 58.9787 183.336 59.2213 183.255 59.4541C183.236 59.5103 183.217 59.5659 183.196 59.6206C183.169 59.696 183.123 59.7744 183.076 59.8537C182.964 60.0438 182.849 60.2395 182.989 60.4145C183.151 60.6235 183.404 60.5921 183.657 60.5605C183.764 60.5471 183.872 60.5336 183.973 60.5386C184.254 60.5468 184.32 60.3732 184.221 60.1333C184.133 59.9216 184.044 59.7135 183.954 59.5015Z" fill="#A8A8A8"/>
<path fill-rule="evenodd" clip-rule="evenodd" d="M96.4593 58.0895C96.4584 58.5177 96.4575 58.9456 96.4575 59.3726H96.474V63.2845C96.474 63.5987 96.4988 63.8551 96.9371 63.8551C97.5502 63.848 98.1648 63.8501 98.7795 63.8521H98.7805C99.6001 63.8548 100.42 63.8575 101.238 63.8386C102.396 63.8138 103.305 63.1604 103.586 62.1762C103.901 61.0763 103.777 59.9267 102.726 59.3064C102.453 59.1493 102.528 59.0418 102.726 58.8681C103.156 58.4794 103.454 58.008 103.454 57.3877C103.462 55.9735 102.437 54.948 100.915 54.9232C100.362 54.9161 99.8093 54.9181 99.2571 54.9201C98.5209 54.9228 97.7853 54.9255 97.0529 54.9066C96.5732 54.8984 96.4575 55.0803 96.4575 55.5186C96.463 56.3735 96.4611 57.2321 96.4593 58.0895ZM98.9049 57.5695C98.847 58.2063 98.9876 58.3387 99.7485 58.3387H100.079C100.501 58.3304 100.807 58.165 100.791 57.7018C100.774 57.2635 100.451 57.1395 100.071 57.1312C99.8312 57.1229 99.5996 57.1229 99.3598 57.1312C99.0869 57.1395 98.9297 57.2801 98.9049 57.5695Z" fill="#A8A8A8"/>
<path fill-rule="evenodd" clip-rule="evenodd" d="M115.035 58.2619C115.033 58.6345 115.032 59.0074 115.032 59.381L115.04 59.3892C115.04 59.7612 115.042 60.1325 115.043 60.5036L115.043 60.5089C115.046 61.4395 115.05 62.3682 115.032 63.3011C115.024 63.7394 115.173 63.8966 115.603 63.8635C116.041 63.8304 116.488 63.8387 116.926 63.8635C117.348 63.8883 117.48 63.6981 117.463 63.3094C117.447 62.8131 117.447 62.3169 117.463 61.8207C117.48 61.3658 117.745 61.217 118.166 61.3907C118.365 61.4734 118.481 61.6305 118.596 61.7959C118.734 61.9834 118.873 62.171 119.012 62.3585L119.013 62.3594C119.29 62.7339 119.567 63.1085 119.837 63.483C120.019 63.7394 120.251 63.8635 120.581 63.8552C120.917 63.8458 121.252 63.8471 121.588 63.8485C121.84 63.8495 122.091 63.8505 122.343 63.8469C122.386 63.8448 122.433 63.8505 122.481 63.8563C122.617 63.8728 122.76 63.8901 122.839 63.7312C122.927 63.5563 122.815 63.4264 122.708 63.3018C122.694 63.285 122.679 63.2682 122.665 63.2515C122.546 63.0947 122.426 62.9367 122.307 62.7785C121.973 62.3359 121.638 61.8915 121.284 61.4651C120.97 61.0929 120.887 60.8531 121.342 60.4892C122.285 59.7201 122.591 58.1404 122.128 56.8916C121.665 55.6511 120.598 54.915 119.242 54.915C118.756 54.9117 118.271 54.9137 117.787 54.9157H117.785C117.058 54.9186 116.332 54.9216 115.603 54.9067C115.173 54.8985 115.024 55.0308 115.024 55.4691C115.041 56.4023 115.038 57.3312 115.035 58.2619ZM118.034 58.959H118.423L118.415 58.9673H118.688C119.432 58.959 119.879 58.6364 119.879 58.1071C119.879 57.4869 119.448 57.1395 118.671 57.123C118.049 57.1107 117.737 57.1045 117.582 57.2575C117.424 57.4139 117.43 57.7364 117.439 58.3883C117.447 58.8184 117.621 58.9921 118.034 58.959Z" fill="#A8A8A8"/>
</svg>
