<svg width="251" height="73" viewBox="0 0 251 73" fill="none" xmlns="http://www.w3.org/2000/svg">
<g clip-path="url(#clip0_2047_56)">
<path d="M51.7387 10.1717C51.7562 7.52621 49.8296 5.6796 47.2841 5.6927C32.9725 5.78437 18.6609 5.73635 4.34923 5.73635C1.45706 5.73635 0 7.16387 0 9.99709V52.7267C0 55.6341 1.4395 57.0398 4.41067 57.0398H25.8145C32.9506 57.0398 40.0866 56.9481 47.2227 57.0878C49.8296 57.1402 51.7606 55.2718 51.7387 52.5477C51.6377 38.4209 51.6377 24.2985 51.7387 10.1717ZM17.2257 14.594C17.217 13.7689 17.5549 13.3323 18.4195 13.3367C20.175 13.3454 21.9261 13.3454 23.6816 13.3367C24.5374 13.3323 24.906 13.7514 24.8929 14.5809C24.8753 15.4496 24.8885 16.3183 24.8885 17.1914C24.8885 18.0645 24.8753 18.8503 24.8929 19.6798C24.9104 20.5049 24.5549 20.9414 23.6947 20.9414C21.9392 20.9327 20.1881 20.9327 18.437 20.9414C17.5725 20.9458 17.217 20.5267 17.2257 19.6972C17.2433 17.9947 17.2433 16.2965 17.2257 14.594ZM7.65394 14.5197C7.65394 13.6554 8.0972 13.3149 8.92667 13.3323C9.80002 13.3542 10.6778 13.3367 11.5555 13.3367C12.4333 13.3367 13.2276 13.3498 14.0659 13.3323C14.9041 13.3192 15.3254 13.6903 15.321 14.5372C15.3123 16.279 15.3123 18.0165 15.3167 19.7584C15.321 20.614 14.8734 20.9501 14.0439 20.9414C12.3323 20.9283 10.6163 20.9283 8.90473 20.9414C8.06648 20.9501 7.64955 20.5878 7.65394 19.7365C7.6671 17.9991 7.6671 16.2572 7.65394 14.5197ZM15.3167 24.006C15.3123 25.7871 15.321 27.5639 15.3123 29.345C15.3079 30.0697 14.9217 30.432 14.1975 30.4364C13.3198 30.4408 12.442 30.4364 11.5687 30.4364C10.6514 30.4408 9.73419 30.4364 8.81695 30.4408C8.02259 30.4451 7.65394 30.0522 7.65833 29.2708C7.66272 27.4897 7.65833 25.7129 7.66271 23.9318C7.66271 23.2071 8.04453 22.8404 8.77306 22.8404C10.5681 22.836 12.3587 22.8404 14.1536 22.8404C14.9392 22.836 15.321 23.2289 15.3167 24.006ZM13.9298 39.9445C13.0916 39.9139 12.2533 39.9401 11.4195 39.9401C10.5856 39.9401 9.74297 39.927 8.90911 39.9445C8.07087 39.9619 7.64955 39.5952 7.65394 38.7439C7.6671 37.0021 7.6671 35.2646 7.65394 33.5228C7.64955 32.6628 8.08842 32.3267 8.92228 32.3354C10.6339 32.3528 12.3499 32.3528 14.0615 32.3354C14.9875 32.3267 15.3342 32.7763 15.321 33.6538C15.2991 35.317 15.2947 36.9759 15.321 38.6392C15.3342 39.617 14.8646 39.9837 13.9254 39.9445H13.9298ZM24.8929 48.2433C24.8929 49.0946 24.4715 49.4525 23.6333 49.4438C21.9217 49.4307 20.2057 49.4307 18.4941 49.4438C17.6602 49.4525 17.2257 49.1164 17.2301 48.2564C17.2389 46.5189 17.2389 44.7771 17.2257 43.0352C17.2214 42.184 17.6427 41.8173 18.4809 41.8347C19.3587 41.8522 20.232 41.8391 21.1098 41.8391C21.9875 41.8391 22.7863 41.8522 23.6201 41.8347C24.4496 41.8173 24.8929 42.1665 24.8929 43.0221C24.8841 44.764 24.8841 46.5058 24.8929 48.2433ZM24.8929 29.1355C24.9104 30.1177 24.4364 30.48 23.4972 30.4451C22.659 30.4146 21.8251 30.4408 20.9869 30.4408C20.1486 30.4408 19.3148 30.4233 18.4765 30.4408C17.6383 30.4626 17.217 30.0959 17.2214 29.2402C17.2345 27.5028 17.2345 25.7609 17.2257 24.0235C17.2214 23.1635 17.6558 22.8273 18.4897 22.8317C20.2013 22.8491 21.9173 22.8491 23.6289 22.8317C24.5549 22.8229 24.9016 23.277 24.8929 24.1544C24.8665 25.8133 24.8665 27.4766 24.8929 29.1355ZM34.4559 45.6807V48.2913C34.4559 49.0727 34.0565 49.4438 33.2753 49.4438C31.4803 49.4394 29.6897 49.4438 27.8947 49.4394C27.1618 49.4351 26.8019 49.0509 26.8019 48.3306C26.7976 46.5495 26.8019 44.7683 26.7976 42.9916C26.7976 42.2058 27.1882 41.8347 27.9781 41.8391C29.7687 41.8435 31.5637 41.8347 33.3543 41.8435C34.0828 41.8478 34.4515 42.232 34.4559 42.9523C34.4603 43.8603 34.4559 44.7683 34.4559 45.6807ZM34.4603 38.757C34.4603 39.6127 34.017 39.9532 33.1875 39.9445C31.4759 39.927 29.7643 39.927 28.0483 39.9445C27.1179 39.9576 26.7668 39.5035 26.7932 38.6261C26.8195 37.7923 26.7976 36.9628 26.7976 36.1334C26.7976 35.3039 26.8063 34.3915 26.7976 33.5228C26.7888 32.7501 27.1443 32.3397 27.943 32.3397H33.3236C34.118 32.3441 34.4647 32.7676 34.4603 33.5359C34.4515 35.2777 34.4515 37.0152 34.4603 38.757ZM34.4559 17.1914C34.4559 18.0253 34.4427 18.8547 34.4603 19.6841C34.4778 20.5092 34.118 20.9458 33.2578 20.9414C31.5067 20.9327 29.7512 20.9327 28.0001 20.9414C27.1399 20.9458 26.7844 20.5223 26.7932 19.6929C26.8107 17.9947 26.8151 16.2921 26.7932 14.5896C26.78 13.6772 27.2189 13.3192 28.1098 13.3323C29.7863 13.3542 31.4584 13.3585 33.1305 13.328C34.1092 13.3149 34.4998 13.7602 34.4647 14.7031C34.4339 15.5325 34.4559 16.362 34.4559 17.1914ZM42.8603 49.4394H40.1086C39.2352 49.4394 38.3575 49.4438 37.4797 49.4394C36.7512 49.4351 36.3738 49.064 36.3738 48.3393C36.3694 46.5626 36.3738 44.7814 36.3694 43.0047C36.3694 42.2189 36.7468 41.8391 37.5368 41.8391C39.3274 41.8435 41.1224 41.8391 42.9174 41.8435C43.6415 41.8435 44.0233 42.2189 44.0277 42.9392C44.0321 44.7203 44.0277 46.4971 44.0321 48.2782C44.0321 49.0596 43.6459 49.4438 42.8603 49.4394ZM44.0277 36.2076C44.0277 37.037 44.0189 37.8665 44.0321 38.6959C44.0496 39.5297 43.6766 39.9445 42.8208 39.9445C41.0653 39.9357 39.3142 39.9314 37.5631 39.9445C36.6941 39.9445 36.3562 39.5079 36.365 38.6828C36.3825 36.9803 36.3869 35.2821 36.365 33.5796C36.3562 32.6584 36.8082 32.3179 37.6948 32.331C39.3669 32.3572 41.0434 32.3572 42.7155 32.331C43.7029 32.3136 44.0716 32.7807 44.0365 33.7149C44.0058 34.5443 44.0277 35.3738 44.0277 36.2076ZM44.0365 29.1267C44.054 30.1002 43.5976 30.48 42.654 30.4451C41.8158 30.4146 40.9775 30.4408 40.1437 30.4408C39.3098 30.4408 38.4672 30.4233 37.6333 30.4451C36.7995 30.4626 36.365 30.1133 36.3694 29.2533C36.3781 27.5115 36.3781 25.774 36.3694 24.0322C36.365 23.1809 36.7863 22.8273 37.6245 22.8317C39.3362 22.8491 41.0521 22.8535 42.7637 22.8317C43.681 22.8229 44.0496 23.2595 44.0365 24.1413C44.0145 25.8046 44.0101 27.4635 44.0365 29.1267Z" fill="white"/>
<path d="M214.982 37.1592C214.982 31.5801 214.965 25.9966 215 20.4175C215.004 19.4746 214.789 19.0773 213.745 19.0904C210.997 19.1297 210.997 19.0817 210.826 21.8407C210.822 21.9149 210.795 21.9935 210.769 22.1244C210.357 22.1463 210.203 21.8756 209.988 21.7272C208.224 20.5005 206.407 19.3567 204.291 18.8198C196.264 16.7811 188.431 20.758 185.262 28.4501C183.046 33.8327 182.945 39.3638 184.173 44.9604C184.937 48.4266 186.368 51.596 189.106 53.9621C194.263 58.4149 201.658 58.7292 207.609 54.8352C208.689 54.128 209.694 53.3072 210.822 52.4734C210.905 53.1064 210.997 53.639 211.041 54.176C211.261 56.6687 211.256 56.6207 213.811 56.6687C214.789 56.6861 215.004 56.3587 215 55.4464C214.965 49.3521 214.982 43.2535 214.982 37.1592ZM210.594 37.1374C210.594 40.381 210.594 43.6246 210.589 46.8681C210.589 47.2479 210.703 47.6539 210.361 47.9857C207.829 50.4391 205.125 52.6524 201.5 53.2505C195.72 54.2022 190.95 51.2598 189.098 45.5148C187.395 40.2413 187.268 34.9197 189.589 29.7859C191.564 25.4248 194.737 22.3471 199.832 22.0328C203.506 21.8058 206.609 23.338 209.439 25.5514C210.286 26.2149 210.664 26.8828 210.629 28.0004C210.528 31.0432 210.594 34.0903 210.594 37.1374Z" fill="white"/>
<path d="M159.089 29.3231C157.996 25.0537 155.837 21.522 151.685 19.5313C145.492 16.5671 137.702 18.501 133.239 24.1238C129.114 29.3275 128.157 35.3257 129.048 41.6993C129.667 46.1609 131.462 50.1248 134.867 53.2024C140.432 58.2271 149.324 58.8514 156.346 54.7871C158.461 53.5648 158.4 53.5953 157.298 51.4257C156.763 50.3736 156.394 50.2907 155.38 50.9455C150.943 53.818 146.151 54.6038 141.196 52.4909C135.644 50.1248 133.577 44.3448 133.283 39.5079C133.23 38.6391 133.766 38.7919 134.266 38.7919H146.462C150.408 38.7919 154.358 38.7395 158.299 38.8181C159.506 38.8443 159.795 38.3597 159.844 37.3207C159.971 34.6141 159.756 31.9424 159.089 29.3231ZM154.551 35.0114C151.163 34.9546 147.775 34.9896 144.387 34.9896C140.998 34.9896 137.61 34.959 134.222 35.007C133.34 35.0245 133.143 34.7669 133.296 33.9418C134.095 29.6243 135.837 25.8744 139.761 23.4995C144.527 20.6139 152.725 21.3037 154.845 29.5152C155.222 30.9777 155.398 32.4619 155.551 33.9549C155.635 34.7582 155.429 35.0245 154.551 35.0114Z" fill="white"/>
<path d="M235.771 51.6003C238.036 44.86 240.217 38.3554 242.416 31.8508C243.746 27.9262 245.124 24.0191 246.432 20.0857C246.673 19.3523 247.015 19.0467 247.788 19.1035C248.543 19.1603 249.302 19.1384 250.061 19.1079C250.93 19.0773 251.193 19.313 250.869 20.2254C249.271 24.6826 247.744 29.166 246.168 33.6319C242.864 43.009 239.563 52.3905 236.215 61.7501C235.021 65.0897 233.366 68.1936 230.553 70.5117C227.604 72.9389 224.264 73.5457 220.586 72.5198C219.757 72.2885 219.467 71.8868 219.731 71.0749C219.998 70.2498 220.011 69.1977 220.551 68.6433C221.161 68.019 222.092 68.8354 222.895 68.9358C225.875 69.3156 228.06 68.0103 229.82 65.8013C231.887 63.2038 232.783 60.0694 233.779 56.9917C233.915 56.5639 233.674 56.2147 233.529 55.8611C229.1 44.9691 224.659 34.0816 220.222 23.1896C219.792 22.1332 219.41 21.0549 218.949 20.0115C218.611 19.2432 218.875 18.9856 219.643 19.038C219.682 19.038 219.722 19.038 219.761 19.038C222.064 18.9798 223.631 20.0464 224.462 22.2379C228.008 31.5234 231.563 40.8044 235.117 50.0855C235.284 50.5177 235.482 50.9411 235.767 51.6047L235.771 51.6003Z" fill="white"/>
<path d="M119.734 39.7042C119.734 44.8861 119.707 50.0723 119.756 55.2542C119.764 56.267 119.431 56.5202 118.461 56.5114C115.424 56.4809 115.424 56.5114 115.424 53.5298C115.424 43.7161 115.415 33.9068 115.441 24.0932C115.441 23.207 115.279 22.7966 114.278 22.897C113.33 22.9887 112.365 22.8665 111.413 22.932C110.535 22.9931 110.272 22.6264 110.351 21.8275C110.39 21.3953 110.412 20.95 110.351 20.5222C110.214 19.5924 110.71 19.361 111.509 19.3435C112.426 19.3261 113.339 19.2082 114.252 19.2213C115.152 19.2344 115.459 18.9375 115.45 17.9858C115.428 15.0217 115.257 12.0488 115.586 9.09768C115.92 6.1073 116.833 3.33957 119.514 1.58464C123.06 -0.733445 126.769 -0.209584 130.477 1.2223C130.824 1.35763 130.982 1.59337 130.793 1.9688C130.741 2.07358 130.714 2.19144 130.679 2.30495C130.147 4.02496 129.022 4.67251 127.304 4.2476C122.968 3.16932 120.326 5.01593 119.887 9.42945C119.826 10.0581 119.747 10.6867 119.742 11.3154C119.725 13.6116 119.764 15.9035 119.72 18.1998C119.707 18.9463 119.949 19.1383 120.668 19.1252C122.858 19.0816 125.053 19.1296 127.247 19.0991C127.993 19.086 128.292 19.2868 128.296 20.0988C128.318 22.9101 128.349 22.9101 125.5 22.9101C123.947 22.9101 122.389 22.9669 120.835 22.8883C119.914 22.8447 119.707 23.1633 119.712 24.0277C119.751 29.2489 119.729 34.4744 119.729 39.6955L119.734 39.7042Z" fill="white"/>
<path d="M67.0065 30.9122C67.0065 22.919 67.0241 14.9301 66.9846 6.93687C66.9802 5.90224 67.1601 5.47879 68.3451 5.50935C71.5181 5.58793 71.5181 5.53118 71.5181 8.67434C71.5181 22.8797 71.5269 37.0807 71.4962 51.2861C71.4962 52.2683 71.6498 52.6088 72.7601 52.6001C79.6153 52.539 86.4749 52.5957 93.3301 52.5433C94.458 52.5346 94.7564 52.8707 94.7169 53.9534C94.6072 56.9001 95.0987 56.481 92.1934 56.4854C84.2586 56.5028 76.3281 56.4679 68.3933 56.5159C67.2918 56.5203 66.9758 56.2365 66.9846 55.1277C67.0328 47.0559 67.0109 38.9841 67.0109 30.9122H67.0065Z" fill="white"/>
<path d="M170.093 24.6738C171.682 22.6963 173.271 20.9544 175.355 19.6972C177.804 18.2173 180.42 17.9597 183.163 18.6101C184.089 18.8284 184.686 19.2475 184.203 20.352C183.861 21.1421 184.054 22.2772 183.413 22.7705C182.763 23.2638 181.859 22.4998 181.043 22.4081C177.813 22.0458 175.452 23.5519 173.486 25.87C172.226 27.3586 171.3 29.0612 170.519 30.8423C170.3 31.34 170.317 31.842 170.317 32.3528C170.317 39.988 170.295 47.6189 170.339 55.2542C170.343 56.2845 170.071 56.6162 169.005 56.5944C166.012 56.5377 166.012 56.5813 166.012 53.6215C166.012 42.6248 166.012 31.6325 166.012 20.6357C166.012 19.1165 166.012 19.0991 167.596 19.1209C169.984 19.1558 169.817 18.6538 169.926 21.4303C169.97 22.5129 170.045 23.5956 170.102 24.6782L170.093 24.6738Z" fill="white"/>
<path d="M104.14 37.9232C104.14 43.7381 104.123 49.5573 104.158 55.3722C104.162 56.2802 103.938 56.6032 102.964 56.5901C99.8305 56.5552 99.8305 56.5989 99.8305 53.5081C99.8305 42.507 99.8437 31.5059 99.8086 20.5049C99.8086 19.4528 100.024 19.0511 101.187 19.0861C104.136 19.1646 104.14 19.1079 104.14 22.0153C104.14 27.3194 104.14 32.6191 104.14 37.9232Z" fill="white"/>
<path d="M104.821 8.22468C104.821 10.8833 104.821 10.8527 102.14 10.8876C98.9274 10.9313 99.2741 10.7348 99.2785 8.05006C99.2785 6.23983 100.191 5.33472 102.017 5.33472C103.887 5.33472 104.821 6.29804 104.821 8.22468Z" fill="white"/>
</g>
<defs>
<clipPath id="clip0_2047_56">
<rect width="251" height="73" fill="white"/>
</clipPath>
</defs>
</svg>
