<svg width="219" height="63" viewBox="0 0 219 63" fill="none" xmlns="http://www.w3.org/2000/svg">
<g clip-path="url(#clip0_2668_613)">
<path d="M45.1425 8.77835C45.1578 6.49525 43.4768 4.9016 41.2559 4.9129C28.7688 4.99202 16.2818 4.95058 3.79474 4.95058C1.2713 4.95058 0 6.18255 0 8.62765V45.5039C0 48.013 1.25598 49.2261 3.84835 49.2261H22.5234C28.7497 49.2261 34.976 49.147 41.2023 49.2676C43.4768 49.3128 45.1617 47.7003 45.1425 45.3494C45.0544 33.1578 45.0544 20.97 45.1425 8.77835ZM15.0296 12.5948C15.022 11.8828 15.3168 11.506 16.0712 11.5098C17.6029 11.5173 19.1307 11.5173 20.6624 11.5098C21.4091 11.506 21.7307 11.8677 21.7193 12.5835C21.7039 13.3332 21.7154 14.083 21.7154 14.8365C21.7154 15.59 21.7039 16.2681 21.7193 16.9839C21.7346 17.696 21.4244 18.0728 20.6739 18.0728C19.1422 18.0652 17.6144 18.0652 16.0865 18.0728C15.3321 18.0765 15.022 17.7148 15.0296 16.999C15.045 15.5297 15.045 14.0641 15.0296 12.5948ZM6.67814 12.5308C6.67814 11.7848 7.06489 11.4909 7.78861 11.506C8.55062 11.5249 9.31646 11.5098 10.0823 11.5098C10.8481 11.5098 11.5412 11.5211 12.2726 11.506C13.004 11.4947 13.3716 11.8149 13.3678 12.5458C13.3601 14.0491 13.3601 15.5485 13.3639 17.0518C13.3678 17.7902 12.9772 18.0803 12.2535 18.0728C10.7601 18.0615 9.26285 18.0615 7.76946 18.0728C7.03808 18.0803 6.67431 17.7676 6.67814 17.0329C6.68962 15.5335 6.68962 14.0302 6.67814 12.5308ZM13.3639 20.7175C13.3601 22.2547 13.3678 23.788 13.3601 25.3252C13.3563 25.9506 13.0193 26.2633 12.3875 26.267C11.6216 26.2708 10.8558 26.267 10.0938 26.267C9.29349 26.2708 8.49318 26.267 7.69288 26.2708C6.99979 26.2746 6.67814 25.9355 6.68197 25.2611C6.6858 23.724 6.68197 22.1906 6.68579 20.6535C6.68579 20.0281 7.01894 19.7116 7.65458 19.7116C9.22073 19.7078 10.783 19.7116 12.3492 19.7116C13.0346 19.7078 13.3678 20.0469 13.3639 20.7175ZM12.1539 34.4726C11.4225 34.4463 10.6911 34.4689 9.9636 34.4689C9.23605 34.4689 8.50084 34.4576 7.77329 34.4726C7.04191 34.4877 6.67431 34.1712 6.67814 33.4366C6.68962 31.9334 6.68962 30.4339 6.67814 28.9307C6.67431 28.1885 7.05723 27.8984 7.78478 27.9059C9.27817 27.921 10.7754 27.921 12.2688 27.9059C13.0767 27.8984 13.3792 28.2864 13.3678 29.0437C13.3486 30.4791 13.3448 31.9108 13.3678 33.3462C13.3792 34.1901 12.9695 34.5066 12.1501 34.4726H12.1539ZM21.7193 41.6346C21.7193 42.3693 21.3517 42.6782 20.6203 42.6707C19.1269 42.6594 17.6297 42.6594 16.1363 42.6707C15.4087 42.6782 15.0296 42.3881 15.0335 41.646C15.0411 40.1465 15.0411 38.6433 15.0296 37.14C15.0258 36.4054 15.3934 36.0889 16.1248 36.104C16.8906 36.119 17.6526 36.1077 18.4185 36.1077C19.1843 36.1077 19.8812 36.119 20.6088 36.104C21.3325 36.0889 21.7193 36.3903 21.7193 37.1287C21.7116 38.632 21.7116 40.1352 21.7193 41.6346ZM21.7193 25.1443C21.7346 25.992 21.321 26.3047 20.5016 26.2746C19.7702 26.2482 19.0426 26.2708 18.3113 26.2708C17.5799 26.2708 16.8523 26.2557 16.121 26.2708C15.3896 26.2897 15.022 25.9732 15.0258 25.2348C15.0373 23.7353 15.0373 22.2321 15.0296 20.7326C15.0258 19.9904 15.4049 19.7003 16.1324 19.7041C17.6258 19.7191 19.1231 19.7191 20.6164 19.7041C21.4244 19.6965 21.7269 20.0884 21.7193 20.8456C21.6963 22.2773 21.6963 23.7127 21.7193 25.1443ZM30.0631 39.4231V41.6761C30.0631 42.3505 29.7146 42.6707 29.033 42.6707C27.4669 42.6669 25.9046 42.6707 24.3384 42.6669C23.699 42.6632 23.385 42.3316 23.385 41.71C23.3811 40.1729 23.385 38.6357 23.3811 37.1024C23.3811 36.4242 23.7219 36.104 24.4112 36.1077C25.9735 36.1115 27.5397 36.104 29.102 36.1115C29.7376 36.1153 30.0593 36.4468 30.0631 37.0684C30.0669 37.8521 30.0631 38.6357 30.0631 39.4231ZM30.0669 33.4479C30.0669 34.1863 29.6802 34.4802 28.9565 34.4726C27.4631 34.4576 25.9697 34.4576 24.4725 34.4726C23.6607 34.4839 23.3543 34.0921 23.3773 33.3349C23.4003 32.6153 23.3811 31.8994 23.3811 31.1836C23.3811 30.4678 23.3888 29.6804 23.3811 28.9307C23.3735 28.2638 23.6836 27.9097 24.3806 27.9097H29.0752C29.7683 27.9134 30.0708 28.2789 30.0669 28.942C30.0593 30.4452 30.0593 31.9447 30.0669 33.4479ZM30.0631 14.8365C30.0631 15.5561 30.0516 16.2719 30.0669 16.9877C30.0822 17.6998 29.7683 18.0765 29.0177 18.0728C27.4899 18.0652 25.9582 18.0652 24.4303 18.0728C23.6798 18.0765 23.3696 17.7111 23.3773 16.9952C23.3926 15.5297 23.3965 14.0604 23.3773 12.5911C23.3658 11.8036 23.7487 11.4947 24.5261 11.506C25.9888 11.5249 27.4478 11.5286 28.9067 11.5022C29.7606 11.4909 30.1014 11.8752 30.0708 12.689C30.044 13.4048 30.0631 14.1207 30.0631 14.8365ZM37.396 42.6669H34.9951C34.2331 42.6669 33.4673 42.6707 32.7014 42.6669C32.0658 42.6632 31.7365 42.3429 31.7365 41.7175C31.7326 40.1842 31.7365 38.647 31.7326 37.1137C31.7326 36.4355 32.0619 36.1077 32.7512 36.1077C34.3135 36.1115 35.8797 36.1077 37.4458 36.1115C38.0776 36.1115 38.4108 36.4355 38.4146 37.0571C38.4184 38.5943 38.4146 40.1277 38.4184 41.6648C38.4184 42.3392 38.0815 42.6707 37.396 42.6669ZM38.4146 31.2477C38.4146 31.9635 38.4069 32.6793 38.4184 33.3951C38.4338 34.1147 38.1083 34.4726 37.3616 34.4726C35.8299 34.4651 34.302 34.4613 32.7742 34.4726C32.016 34.4726 31.7211 34.0959 31.7288 33.3838C31.7441 31.9145 31.748 30.449 31.7288 28.9796C31.7211 28.1847 32.1156 27.8908 32.8891 27.9021C34.348 27.9247 35.8107 27.9247 37.2697 27.9021C38.1312 27.8871 38.4529 28.2902 38.4223 29.0964C38.3955 29.8123 38.4146 30.5281 38.4146 31.2477ZM38.4223 25.1368C38.4376 25.977 38.0393 26.3047 37.2161 26.2746C36.4847 26.2482 35.7533 26.2708 35.0258 26.2708C34.2982 26.2708 33.563 26.2557 32.8354 26.2746C32.1079 26.2897 31.7288 25.9883 31.7326 25.2461C31.7403 23.7428 31.7403 22.2434 31.7326 20.7401C31.7288 20.0055 32.0964 19.7003 32.8278 19.7041C34.3212 19.7191 35.8184 19.7229 37.3118 19.7041C38.1121 19.6965 38.4337 20.0733 38.4223 20.8343C38.4031 22.2697 38.3993 23.7014 38.4223 25.1368Z" fill="white"/>
<path d="M187.575 32.069C187.575 27.2542 187.56 22.4355 187.591 17.6207C187.594 16.8069 187.407 16.4641 186.495 16.4754C184.098 16.5093 184.098 16.4678 183.949 18.8489C183.945 18.9129 183.922 18.9807 183.899 19.0938C183.539 19.1126 183.405 18.879 183.218 18.7509C181.678 17.6923 180.093 16.7052 178.247 16.2418C171.244 14.4824 164.409 17.9145 161.644 24.5529C159.71 29.1982 159.622 33.9716 160.694 38.8015C161.361 41.7929 162.609 44.5281 164.998 46.5701C169.498 50.4129 175.95 50.6842 181.142 47.3236C182.084 46.7133 182.961 46.005 183.945 45.2854C184.018 45.8317 184.098 46.2913 184.137 46.7547C184.328 48.9059 184.324 48.8645 186.553 48.9059C187.407 48.921 187.594 48.6384 187.591 47.851C187.56 42.5916 187.575 37.3284 187.575 32.069ZM183.746 32.0502C183.746 34.8494 183.746 37.6487 183.742 40.4479C183.742 40.7757 183.842 41.1261 183.543 41.4124C181.334 43.5297 178.975 45.4398 175.812 45.956C170.769 46.7773 166.607 44.238 164.991 39.28C163.505 34.7289 163.394 30.1363 165.419 25.7057C167.143 21.942 169.911 19.2859 174.357 19.0147C177.562 18.8187 180.269 20.1411 182.739 22.0513C183.478 22.6239 183.807 23.2003 183.777 24.1648C183.689 26.7908 183.746 29.4205 183.746 32.0502Z" fill="white"/>
<path d="M138.806 25.3063C137.852 21.6217 135.968 18.5738 132.346 16.8558C126.943 14.2977 120.146 15.9667 116.252 20.8192C112.652 25.3101 111.818 30.4866 112.595 35.9871C113.135 39.8375 114.701 43.2584 117.672 45.9145C122.528 50.2509 130.286 50.7896 136.413 47.2821C138.258 46.2272 138.205 46.2535 137.243 44.3811C136.776 43.4731 136.455 43.4016 135.57 43.9667C131.699 46.4457 127.517 47.1238 123.194 45.3004C118.35 43.2584 116.547 38.2702 116.29 34.0958C116.244 33.3461 116.711 33.478 117.148 33.478H127.789C131.232 33.478 134.678 33.4328 138.117 33.5006C139.17 33.5232 139.422 33.105 139.464 32.2083C139.575 29.8725 139.388 27.5668 138.806 25.3063ZM134.846 30.2153C131.89 30.1663 128.934 30.1965 125.978 30.1965C123.022 30.1965 120.066 30.1701 117.11 30.2116C116.34 30.2266 116.168 30.0043 116.302 29.2923C116.998 25.5662 118.519 22.33 121.942 20.2805C126.1 17.7901 133.253 18.3854 135.103 25.4721C135.432 26.7342 135.585 28.0151 135.719 29.3036C135.792 29.9968 135.612 30.2266 134.846 30.2153Z" fill="white"/>
<path d="M205.714 44.5317C207.69 38.7147 209.593 33.1011 211.511 27.4875C212.671 24.1006 213.874 20.7287 215.015 17.3341C215.225 16.7012 215.524 16.4375 216.198 16.4865C216.857 16.5354 217.519 16.5166 218.182 16.4902C218.94 16.4639 219.17 16.6673 218.886 17.4547C217.492 21.3013 216.16 25.1705 214.785 29.0247C211.902 37.1172 209.022 45.2136 206.1 53.2911C205.059 56.1732 203.615 58.8519 201.161 60.8524C198.588 62.9472 195.674 63.4708 192.465 62.5855C191.741 62.3858 191.488 62.0392 191.718 61.3384C191.952 60.6264 191.963 59.7184 192.434 59.24C192.966 58.7012 193.778 59.4057 194.479 59.4924C197.079 59.8202 198.986 58.6937 200.521 56.7873C202.325 54.5457 203.106 51.8406 203.975 49.1845C204.094 48.8153 203.883 48.5139 203.757 48.2087C199.893 38.8088 196.018 29.4127 192.147 20.0128C191.772 19.1011 191.438 18.1705 191.036 17.2701C190.742 16.607 190.971 16.3847 191.641 16.4299C191.676 16.4299 191.71 16.4299 191.745 16.4299C193.754 16.3797 195.121 17.3002 195.846 19.1915C198.94 27.205 202.042 35.2147 205.143 43.2243C205.289 43.5973 205.461 43.9628 205.71 44.5354L205.714 44.5317Z" fill="white"/>
<path d="M104.468 34.2653C104.468 38.7373 104.445 43.2131 104.487 47.6851C104.495 48.5592 104.204 48.7777 103.358 48.7702C100.708 48.7438 100.708 48.7702 100.708 46.197C100.708 37.7276 100.7 29.2621 100.723 20.7928C100.723 20.028 100.581 19.6738 99.7084 19.7605C98.8813 19.8396 98.0389 19.7341 97.2079 19.7906C96.4421 19.8434 96.2123 19.5269 96.2813 18.8374C96.3157 18.4645 96.3349 18.0802 96.2813 17.711C96.1626 16.9085 96.5953 16.7088 97.2922 16.6937C98.0925 16.6787 98.8889 16.577 99.6854 16.5883C100.47 16.5996 100.738 16.3434 100.731 15.5221C100.712 12.9639 100.562 10.3983 100.85 7.85144C101.141 5.27071 101.937 2.88212 104.277 1.36759C107.371 -0.632953 110.606 -0.180854 113.842 1.05488C114.145 1.17168 114.282 1.37512 114.118 1.69912C114.072 1.78954 114.049 1.89127 114.018 1.98922C113.554 3.47361 112.572 4.03246 111.073 3.66576C107.29 2.73518 104.985 4.32883 104.602 8.13777C104.549 8.68029 104.48 9.22281 104.476 9.76532C104.46 11.747 104.495 13.725 104.457 15.7067C104.445 16.3509 104.656 16.5167 105.284 16.5054C107.195 16.4677 109.109 16.5091 111.024 16.4828C111.675 16.4715 111.935 16.6448 111.939 17.3455C111.958 19.7718 111.985 19.7718 109.5 19.7718C108.144 19.7718 106.785 19.8208 105.429 19.7529C104.625 19.7153 104.445 19.9903 104.449 20.7363C104.483 25.2422 104.464 29.7519 104.464 34.2578L104.468 34.2653Z" fill="white"/>
<path d="M58.4646 26.6778C58.4646 19.7795 58.4799 12.885 58.4455 5.98671C58.4416 5.09382 58.5986 4.72837 59.6325 4.75474C62.401 4.82256 62.401 4.77358 62.401 7.48618C62.401 19.7456 62.4087 32.0012 62.3819 44.2607C62.3819 45.1084 62.5159 45.4022 63.4847 45.3947C69.4659 45.3419 75.451 45.3909 81.4322 45.3457C82.4163 45.3382 82.6767 45.6283 82.6422 46.5626C82.5465 49.1057 82.9754 48.744 80.4404 48.7477C73.5172 48.7628 66.5978 48.7327 59.6746 48.7741C58.7135 48.7779 58.4378 48.533 58.4455 47.5761C58.4876 40.61 58.4684 33.6439 58.4684 26.6778H58.4646Z" fill="white"/>
<path d="M148.409 21.294C149.795 19.5873 151.181 18.0841 153 16.999C155.137 15.7218 157.419 15.4996 159.812 16.0609C160.62 16.2493 161.141 16.611 160.72 17.5641C160.421 18.2461 160.59 19.2256 160.03 19.6513C159.464 20.0771 158.675 19.4178 157.963 19.3386C155.144 19.0259 153.084 20.3257 151.369 22.3263C150.27 23.611 149.462 25.0803 148.78 26.6174C148.589 27.0469 148.604 27.4802 148.604 27.921C148.604 34.5103 148.585 41.0959 148.623 47.6852C148.627 48.5744 148.39 48.8607 147.459 48.8419C144.848 48.7929 144.848 48.8306 144.848 46.2762C144.848 36.7859 144.848 27.2993 144.848 17.809C144.848 16.4979 144.848 16.4829 146.23 16.5017C148.313 16.5319 148.168 16.0986 148.263 18.4947C148.302 19.4291 148.367 20.3634 148.416 21.2977L148.409 21.294Z" fill="white"/>
<path d="M90.8615 32.7283C90.8615 37.7465 90.8461 42.7686 90.8768 47.7869C90.8806 48.5706 90.6853 48.8493 89.8352 48.838C87.1012 48.8079 87.1012 48.8456 87.1012 46.1782C87.1012 36.6841 87.1127 27.19 87.082 17.696C87.082 16.788 87.2697 16.4414 88.2844 16.4715C90.8576 16.5393 90.8615 16.4904 90.8615 18.9995C90.8615 23.577 90.8615 28.1507 90.8615 32.7283Z" fill="white"/>
<path d="M91.4569 7.09808C91.4569 9.39249 91.4569 9.36611 89.1173 9.39625C86.3143 9.43393 86.6168 9.26439 86.6206 6.94738C86.6206 5.38513 87.4171 4.604 89.01 4.604C90.6413 4.604 91.4569 5.43536 91.4569 7.09808Z" fill="white"/>
</g>
<defs>
<clipPath id="clip0_2668_613">
<rect width="219" height="63" fill="white"/>
</clipPath>
</defs>
</svg>
