<svg width="28" height="27" viewBox="0 0 28 27" fill="none" xmlns="http://www.w3.org/2000/svg">
<path d="M27.772 13.5054C27.7713 16.162 26.9828 18.7587 25.5062 20.9673C24.0297 23.1758 21.9315 24.8969 19.4768 25.913C17.0222 26.9291 14.3214 27.1945 11.7159 26.6758C9.11041 26.157 6.7173 24.8773 4.83907 22.9985C2.96083 21.1197 1.68183 18.7262 1.16383 16.1205C0.645843 13.5149 0.912081 10.8142 1.92891 8.35985C2.94574 5.90552 4.66752 3.80782 6.87648 2.33195C9.08544 0.856095 11.6824 0.0683595 14.339 0.0683594C17.9017 0.0683594 21.3184 1.48363 23.8376 4.00281C26.3568 6.52198 27.772 9.9387 27.772 13.5014" fill="#4467AD"/>
<path d="M15.3781 11.6723C15.5991 11.4243 15.7781 11.1723 16.0071 10.9593C16.3351 10.6392 16.7236 10.3878 17.15 10.2195C17.5763 10.0512 18.0318 9.96958 18.4901 9.97929C19.0166 9.97081 19.5419 10.0347 20.0511 10.1693C20.5851 10.3167 21.0689 10.6067 21.4507 11.0082C21.8324 11.4097 22.0977 11.9075 22.2181 12.4483C22.4343 13.3011 22.5315 14.1798 22.5071 15.0593C22.5071 16.9153 22.5021 18.7703 22.5071 20.6263C22.5071 20.8003 22.4591 20.8453 22.2881 20.8443C21.3321 20.8363 20.376 20.8363 19.42 20.8443C19.252 20.8443 19.22 20.7933 19.22 20.6343C19.2254 18.8689 19.2254 17.1023 19.22 15.3343C19.2301 14.8909 19.1783 14.4483 19.066 14.0193C18.9873 13.6592 18.777 13.3414 18.4762 13.1283C18.1754 12.9152 17.8059 12.8221 17.4401 12.8673C17.1994 12.855 16.9588 12.8917 16.7328 12.9752C16.5068 13.0588 16.3001 13.1875 16.1254 13.3534C15.9506 13.5194 15.8115 13.7191 15.7164 13.9405C15.6212 14.1619 15.5722 14.4003 15.5721 14.6413C15.5378 14.916 15.5208 15.1925 15.5211 15.4693C15.5211 17.1863 15.5211 18.9033 15.5211 20.6213C15.5211 20.7923 15.4791 20.8433 15.3041 20.8413C14.3407 20.8326 13.3777 20.8326 12.415 20.8413C12.261 20.8413 12.2151 20.8013 12.2151 20.6413C12.2191 17.2413 12.2191 13.8413 12.2151 10.4413C12.2151 10.2733 12.2701 10.2343 12.4291 10.2353C13.3437 10.242 14.2581 10.242 15.1721 10.2353C15.3401 10.2353 15.3841 10.2883 15.3801 10.4473C15.3711 10.8533 15.3801 11.2603 15.3801 11.6663" fill="#FEFEFE"/>
<path d="M10.141 15.5583C10.141 17.2403 10.141 18.9223 10.141 20.6043C10.141 20.7913 10.095 20.8473 9.90198 20.8453C8.94598 20.8353 7.99097 20.8373 7.03497 20.8453C6.88197 20.8453 6.83496 20.8083 6.83496 20.6453C6.83963 17.2399 6.83963 13.8346 6.83496 10.4293C6.83496 10.2883 6.86898 10.2383 7.01898 10.2393C7.98898 10.2453 8.95794 10.2473 9.92694 10.2393C10.1129 10.2393 10.1389 10.3093 10.1379 10.4693C10.1379 12.1693 10.1379 13.8613 10.1379 15.5563" fill="#FEFEFE"/>
<path d="M10.4049 6.86289C10.4067 7.24096 10.2961 7.61105 10.0873 7.92623C9.87852 8.24141 9.58082 8.48749 9.23198 8.63327C8.88314 8.77905 8.4989 8.81797 8.12792 8.74509C7.75694 8.67221 7.41594 8.4908 7.14818 8.22388C6.88042 7.95696 6.69794 7.61656 6.62389 7.24581C6.54984 6.87505 6.58755 6.49066 6.73223 6.14136C6.87691 5.79206 7.12205 5.49359 7.43657 5.28379C7.75109 5.07398 8.12082 4.9623 8.49889 4.96289C9.00263 4.96525 9.48514 5.16598 9.84191 5.52162C10.1987 5.87726 10.401 6.35916 10.4049 6.86289" fill="#FEFEFE"/>
</svg>
