<svg width="100" height="100" viewBox="0 0 100 100" fill="none" xmlns="http://www.w3.org/2000/svg">
<g clip-path="url(#clip0_669_6522)">
<path d="M97.9961 32.2719C97.7351 32.2508 97.4856 32.2335 97.24 32.2335C92.8125 32.2297 88.3851 32.2297 83.9577 32.2297C81.4283 32.2297 78.9009 32.2297 76.3715 32.2297C74.7498 32.2297 74.4447 31.9226 74.4427 30.3048C74.4408 23.943 74.4408 17.5811 74.4408 11.2193V2.54303C74.4408 2.3991 74.4389 2.25516 74.4351 2.11123C74.4312 1.87326 74.4274 1.62762 74.4351 1.38005C74.4408 1.14016 74.3948 1.04613 74.3832 1.03461C74.3775 1.02885 74.3314 1.00966 74.2259 1.00966C74.1894 1.00966 74.1491 1.01158 74.1069 1.01734C74.0282 1.02502 73.9438 1.03077 73.8478 1.03077C73.7787 1.03077 73.7096 1.02885 73.6405 1.02694C73.583 1.02694 73.5273 1.0231 73.4717 1.0231H63.8434H54.6489C42.5853 1.0231 29.639 1.02118 16.706 1.00391H16.7003C15.9249 1.00391 15.4048 1.22077 14.8483 1.77731C10.1503 6.47527 5.47148 11.0926 1.51618 14.9865C1.14195 15.3569 0.996094 15.7138 0.996094 16.2665C1.00569 36.2041 1.00761 56.4756 1.00761 76.0812C1.00761 83.2663 1.00761 90.4515 1.00761 97.6366C1.00761 97.7575 1.01528 97.8822 1.0268 98.0108H74.4351V94.3415C74.4351 90.5647 74.437 86.7879 74.4408 83.0111C74.4408 82.2818 74.4408 81.7541 74.7997 81.3952C75.1586 81.0344 75.6806 81.0344 76.406 81.0344C78.8855 81.0344 81.365 81.0344 83.8445 81.0344C88.2777 81.0344 92.7089 81.0344 97.1421 81.0306C97.4223 81.0306 97.7005 81.0152 97.9942 80.996V32.2738L97.9961 32.2719ZM7.66504 15.7254H8.01623L11.2116 12.5262L16.1207 7.6133L17.1033 6.6288V8.63619V10.1791C17.1033 10.6781 17.1033 11.1771 17.1033 11.676C17.1013 12.9081 17.0994 14.1824 17.1071 15.4337C17.109 15.7618 17.0726 16.2358 16.731 16.5794C16.493 16.8192 16.1591 16.9402 15.7388 16.9402C14.6084 16.9363 13.4857 16.9363 12.3611 16.9344C11.0312 16.9344 9.70122 16.9306 8.37127 16.9267C8.03159 16.9267 7.66312 16.6849 7.66504 16.2973V15.7215V15.7254ZM69.5835 91.5089C69.5835 92.171 69.5835 92.6488 69.2458 92.9885C68.9061 93.3301 68.4301 93.3301 67.768 93.3301C57.2052 93.3301 46.6443 93.3301 36.0814 93.3301C26.5991 93.3301 17.1148 93.3301 7.63049 93.3301C6.05297 93.3301 5.75551 93.0346 5.75359 91.4743C5.75359 82.7194 5.75359 73.9625 5.75359 65.2076V57.5753V54.2955C5.75359 44.1857 5.75359 34.0739 5.75359 23.9641C5.75359 23.0544 5.75359 22.5516 6.12782 22.187C6.49629 21.8281 7.00486 21.8281 7.92987 21.8281H9.86051H12.3381H14.8157C16.9574 21.8281 19.0972 21.8281 21.239 21.8243C21.4079 21.8243 21.7802 21.8243 21.9279 21.7897C21.9644 21.6381 21.9644 21.2447 21.9644 21.0873C21.9682 18.5522 21.9682 15.9729 21.9682 13.48C21.9682 11.5475 21.9682 9.61493 21.9682 7.68239C21.9682 6.95889 21.9682 6.43497 22.3386 6.07418C22.7033 5.71723 23.231 5.71723 23.9622 5.71723C31.2683 5.71723 38.5705 5.71723 45.8766 5.71723C53.1827 5.71723 60.3775 5.71723 67.6279 5.71723C68.3841 5.71723 68.885 5.71723 69.2362 6.07802C69.5797 6.43114 69.5797 6.93778 69.5797 7.7035C69.5797 15.2053 69.5797 22.7051 69.5797 30.2069C69.5797 31.0571 69.5797 31.5273 69.2362 31.8765C68.8888 32.2316 68.4244 32.2316 67.5838 32.2316C58.5121 32.2316 49.4424 32.2316 40.3707 32.2316H17.9803C17.5562 32.2316 17.1186 32.2316 16.9651 32.2757C16.921 32.4293 16.921 32.861 16.921 33.2794C16.921 48.8242 16.921 64.3689 16.921 79.9137C16.921 80.3666 16.921 80.8329 16.9708 80.9864C17.1205 81.0344 17.5715 81.0344 18.0072 81.0344H42.76H67.5128C68.3841 81.0344 68.8638 81.0344 69.2189 81.3856C69.5758 81.7387 69.5758 82.2166 69.5758 83.084V83.8114C69.5758 86.335 69.5778 88.945 69.5758 91.5108L69.5835 91.5089ZM93.323 74.1679C93.323 74.947 93.323 75.4633 92.9584 75.8279C92.5938 76.1925 92.0487 76.1925 91.2945 76.1925C79.9353 76.1925 68.5779 76.1925 57.2186 76.1925C45.8594 76.1925 34.9952 76.1925 23.8854 76.1925C23.0794 76.1925 22.5478 76.1925 22.1774 75.8202C21.809 75.4498 21.8089 74.9163 21.8089 74.1103C21.8089 62.3961 21.8089 50.6838 21.8089 38.9696C21.8089 38.1578 21.809 37.6684 22.1697 37.321C22.5209 36.9833 22.9911 36.9833 23.8451 36.9814H41.5893H49.617H57.6447H58.349H65.9065H73.464C79.4248 36.9814 85.3894 36.9814 91.3502 36.9814C92.1754 36.9814 92.6302 36.9814 92.9738 37.3191C93.3211 37.6607 93.3211 38.1386 93.3211 38.9293C93.3211 50.6742 93.3211 62.4191 93.3211 74.1659L93.323 74.1679Z" fill="#727272"/>
<path d="M27.943 64.0193C28.2999 65.9403 29.2595 67.5697 30.7199 68.7307C32.1708 69.8841 34.0055 70.4944 36.0244 70.4944C36.3103 70.4944 36.6039 70.481 36.8937 70.456C38.7457 70.2967 40.4863 69.3851 41.7971 67.8902C43.1155 66.3856 43.8467 64.4607 43.8563 62.4706C43.8659 60.2693 43.864 58.0297 43.862 55.8631C43.862 54.3335 43.8601 52.8021 43.862 51.2725C43.862 50.6814 43.7987 50.1038 43.6663 49.5012C42.843 45.7838 39.6285 43.2852 35.6674 43.2852C35.3392 43.2852 35.0053 43.3024 34.6733 43.337C30.9579 43.7208 27.8854 47.1733 27.8259 51.0288C27.8048 52.3626 27.8105 53.7213 27.8163 55.034C27.8182 55.6424 27.8221 56.2488 27.8221 56.8572V57.4329H27.8105C27.8105 57.619 27.8105 57.8071 27.8144 57.9914C27.8317 58.6976 27.8105 59.4096 27.7894 60.0985C27.7472 61.4592 27.7088 62.745 27.9449 64.0155L27.943 64.0193ZM32.5891 51.4376C32.6218 49.5204 33.9786 48.0753 35.7461 48.0753C36.1568 48.0753 36.5694 48.1559 36.9724 48.3132C38.2525 48.8161 38.9491 49.8063 38.9894 51.1766C38.9894 51.2111 38.9932 51.2457 38.9952 51.2783C38.999 51.3454 39.0028 51.4126 39.0028 51.4798C39.0028 52.9882 39.0028 54.4947 39.0028 56.0031V56.932C39.0028 57.4674 39.0048 58.0029 39.0067 58.5402C39.0105 59.7704 39.0163 61.0447 38.9971 62.2998C38.9645 64.2822 37.6748 65.6908 35.8574 65.7216C35.8382 65.7216 35.819 65.7216 35.7998 65.7216C33.9959 65.7216 32.616 64.2765 32.5891 62.3593C32.5335 58.3138 32.5335 54.7404 32.5891 51.4376Z" fill="#727272"/>
<path d="M49.2655 43.7234C49.0141 43.7234 48.9488 43.7675 48.945 43.7694C48.945 43.7694 48.9104 43.8289 48.9123 44.0228C48.9296 45.3508 48.9296 46.7402 48.9123 48.1527C48.9085 48.3811 48.9526 48.4444 48.9546 48.4463C48.9546 48.4463 49.0102 48.4809 49.1964 48.4809H49.2328C49.4171 48.4751 49.6109 48.4732 49.8297 48.4732C50.1041 48.4732 50.3766 48.477 50.6511 48.479C50.9197 48.4828 51.1903 48.4847 51.459 48.4847C51.8505 48.4847 52.1729 48.477 52.4723 48.4617C52.5395 48.4578 52.6047 48.4559 52.6661 48.4559C53.2054 48.4559 53.6007 48.5922 53.879 48.8762C54.2705 49.2735 54.3089 49.8511 54.3032 50.2503C54.2705 52.5053 54.2763 54.8024 54.282 57.0229C54.284 57.8903 54.2859 58.7558 54.2859 59.6233C54.2859 60.4293 54.2878 61.2353 54.2897 62.0414C54.2955 64.3251 54.2993 66.6856 54.2744 69.0116C54.2686 69.4357 54.3473 69.5605 54.3799 69.595C54.4337 69.6487 54.5795 69.6794 54.7791 69.6794C54.8117 69.6794 54.8463 69.6794 54.8808 69.6775C55.2435 69.6622 55.6293 69.6545 56.0956 69.6545C56.4142 69.6545 56.7328 69.6583 57.0513 69.6622C57.3661 69.666 57.6789 69.6698 57.9936 69.6698H58.0646C58.5099 69.6698 58.9666 69.6698 59.1182 69.6199C59.1681 69.4683 59.1681 68.9962 59.17 68.5414V68.1326V67.9676C59.17 66.5091 59.17 65.0486 59.172 63.5901C59.1758 59.2222 59.1777 54.7046 59.1547 50.2618C59.1528 49.855 59.195 49.2696 59.5884 48.8743C59.8648 48.596 60.2543 48.4617 60.7821 48.4617C60.8435 48.4617 60.9088 48.4617 60.9759 48.4674C61.2791 48.4828 61.6073 48.4905 62.0065 48.4905C62.2771 48.4905 62.5477 48.4866 62.8183 48.4828C63.0946 48.479 63.3691 48.4751 63.6454 48.4751C63.8527 48.4751 64.0388 48.477 64.2135 48.4809H64.2538C64.4495 48.4809 64.509 48.4463 64.5129 48.4425C64.5129 48.4425 64.5493 48.3772 64.5455 48.1719C64.5244 46.8055 64.5244 45.4141 64.5455 44.0381C64.5493 43.827 64.5129 43.7637 64.509 43.7598C64.5071 43.7598 64.4399 43.7215 64.2173 43.7215C61.8069 43.7272 59.337 43.7311 56.8709 43.7311C54.4049 43.7311 51.8294 43.7272 49.2751 43.7215V43.4336H49.2693V43.7215L49.2655 43.7234Z" fill="#727272"/>
<path d="M86.2096 43.4336V43.7215C83.6744 43.7291 81.0644 43.7311 78.4468 43.7311C76.0747 43.7311 73.6317 43.7291 71.1829 43.7234C71.0313 43.7234 70.9622 43.7426 70.9392 43.7522C70.9296 43.7752 70.9123 43.8443 70.9142 43.9882C70.9353 45.393 70.9353 46.8151 70.9142 48.216C70.9123 48.3638 70.9315 48.431 70.9392 48.4559C70.9603 48.4636 71.0217 48.4809 71.1483 48.4809H71.1771C71.3441 48.477 71.5111 48.477 71.6799 48.477C71.9736 48.477 72.2672 48.4809 72.5608 48.4847C72.8487 48.4886 73.1385 48.4924 73.4263 48.4924C73.8447 48.4924 74.1882 48.4847 74.5068 48.4674C74.574 48.4636 74.6373 48.4617 74.6987 48.4617C75.2226 48.4617 75.6084 48.596 75.8828 48.8743C76.2705 49.2658 76.3127 49.8319 76.305 50.2791C76.2724 52.5379 76.2781 54.837 76.2839 57.0593C76.2858 57.921 76.2877 58.7846 76.2877 59.6463C76.2877 60.4044 76.2877 61.1624 76.2916 61.9205C76.2954 64.3117 76.2993 66.7854 76.2781 69.2189C76.2762 69.5413 76.3415 69.6123 76.3434 69.6142C76.3626 69.6334 76.4528 69.6698 76.6562 69.6698H76.6927C76.9306 69.6641 77.1897 69.6622 77.4814 69.6622C77.7731 69.6622 78.0495 69.6641 78.3316 69.666C78.6118 69.6679 78.8939 69.6698 79.1741 69.6698C79.3046 69.6698 79.437 69.6698 79.5675 69.6698C79.6654 69.6698 79.7594 69.6698 79.8496 69.6698C79.9571 69.6698 80.0569 69.6698 80.1528 69.6698C80.2354 69.6698 80.316 69.6698 80.3889 69.6698C80.5559 69.6698 80.9339 69.6698 81.0663 69.6315C81.1258 69.4626 81.1258 68.9118 81.1258 68.3322V68.1173C81.1258 65.8201 81.1258 63.5248 81.1258 61.2277C81.1258 57.5928 81.1258 53.9561 81.1297 50.3213C81.1297 48.8532 81.4886 48.4924 82.9548 48.4828C83.1543 48.4828 83.3539 48.479 83.5535 48.479C83.9738 48.4751 84.3941 48.4713 84.8125 48.4713C85.3057 48.4713 85.7356 48.477 86.129 48.4866C86.1463 48.4866 86.1635 48.4866 86.1789 48.4866C86.4111 48.4866 86.4706 48.4406 86.4725 48.4406C86.4821 48.4291 86.509 48.36 86.507 48.2064C86.5013 46.9916 86.5032 45.7557 86.5051 44.562V43.994C86.5051 43.8193 86.4725 43.7656 86.4706 43.7618C86.4706 43.7618 86.4073 43.7234 86.2096 43.7234V43.4355C86.2096 43.4355 86.2096 43.4355 86.2077 43.4355L86.2096 43.4336Z" fill="#727272"/>
</g>
<defs>
<clipPath id="clip0_669_6522">
<rect width="97" height="97.0069" fill="white" transform="translate(1 1)"/>
</clipPath>
</defs>
</svg>
