<svg width="216" height="207" viewBox="0 0 216 207" fill="none" xmlns="http://www.w3.org/2000/svg">
<g clip-path="url(#clip0_5534_1453)">
<rect width="216" height="206.929" fill="#151517"/>
<g clip-path="url(#clip1_5534_1453)">
<path d="M127.236 74.5561L127.154 62.2578L88.625 101.441L88.6659 113.494L127.236 74.5561Z" fill="#828282"/>
<path d="M126.95 62.2578V74.6378L140.637 87.9983L127.358 101.4L88.4208 62.4212L62.8438 87.9983L88.4617 113.494L88.5026 101.4L75.1011 87.9983L88.5026 74.6378L127.481 113.575L152.976 87.9166L126.95 62.2578Z" fill="white"/>
<path d="M53.5703 133.188H56.6755V142.135H61.5785V144.75H53.5703V133.188Z" fill="white"/>
<path d="M92.8789 142.787L95.1261 141.112C95.6981 141.806 96.3927 142.378 97.5367 142.378C98.4765 142.378 99.0076 142.092 99.0076 141.48C99.0076 140.989 98.6399 140.744 97.8636 140.499L96.5153 140.05C94.8401 139.478 93.6552 138.456 93.6552 136.577C93.6552 134.289 95.5347 133.145 97.6184 133.145C99.6613 133.145 100.805 133.88 101.459 134.656L99.7022 136.495C99.2119 136.005 98.7216 135.678 97.7819 135.678C97.0464 135.678 96.6378 136.005 96.6378 136.495C96.6378 136.944 96.883 137.149 97.455 137.353L98.9667 137.884C101.296 138.66 102.072 139.764 102.072 141.398C102.072 143.522 100.764 145.034 97.7001 145.034C95.0444 144.912 93.5735 143.727 92.8789 142.787Z" fill="white"/>
<path d="M114.691 144.748H111.668L117.306 132.981C117.347 132.858 117.47 132.858 117.511 132.981L123.108 144.748H119.921L119.472 143.767H115.1L114.691 144.748ZM117.266 138.742L116.121 141.438H118.45L117.266 138.742Z" fill="white"/>
<path d="M135.698 138.986V144.747H132.797V133.062C132.797 132.939 132.838 132.858 133.042 133.021L140.315 138.986V133.185H143.216V144.911C143.216 145.033 143.175 145.115 142.971 144.952L135.698 138.986Z" fill="white"/>
<path d="M156.123 135.802H153.059V133.188H162.292V135.802H159.228V144.75H156.123V135.802Z" fill="white"/>
<path d="M77.145 133.064C73.8763 133.064 71.1797 135.72 71.1797 139.03C71.1797 142.298 73.8355 144.954 77.145 144.954C80.4136 144.954 83.1102 142.298 83.1102 138.989C83.1102 135.72 80.4544 133.064 77.145 133.064ZM77.145 142.176C75.4289 142.176 73.9989 140.746 73.9989 139.03C73.9989 137.273 75.4289 135.884 77.145 135.884C78.9018 135.884 80.291 137.273 80.291 139.03C80.291 140.746 78.9018 142.176 77.145 142.176Z" fill="white"/>
</g>
</g>
<defs>
<clipPath id="clip0_5534_1453">
<rect width="216" height="206.929" fill="white"/>
</clipPath>
<clipPath id="clip1_5534_1453">
<rect width="110" height="83.2857" fill="white" transform="translate(53 62)"/>
</clipPath>
</defs>
</svg>
