<svg width="231" height="127" viewBox="0 0 231 127" fill="none" xmlns="http://www.w3.org/2000/svg">
<g clip-path="url(#clip0_303_405)">
<ellipse cx="38.1607" cy="55.1919" rx="2.12946" ry="2.12944" fill="#A8A8A8"/>
<ellipse cx="38.1607" cy="66.5591" rx="2.12946" ry="2.12944" fill="#A8A8A8"/>
<ellipse cx="26.8033" cy="66.5591" rx="2.12946" ry="2.12944" fill="#A8A8A8"/>
<ellipse cx="32.4869" cy="66.5591" rx="2.12946" ry="2.12944" fill="#A8A8A8"/>
<ellipse cx="38.1607" cy="60.8794" rx="2.12946" ry="2.12944" fill="#A8A8A8"/>
<ellipse cx="32.4869" cy="60.8794" rx="2.12946" ry="2.12944" fill="#A8A8A8"/>
<ellipse cx="38.1607" cy="72.231" rx="2.12946" ry="2.12944" fill="#A8A8A8"/>
<ellipse cx="26.8033" cy="72.231" rx="2.12946" ry="2.12944" fill="#A8A8A8"/>
<ellipse cx="32.4869" cy="72.231" rx="2.12946" ry="2.12944" fill="#A8A8A8"/>
<ellipse cx="21.1295" cy="72.231" rx="2.12946" ry="2.12944" fill="#A8A8A8"/>
<path fill-rule="evenodd" clip-rule="evenodd" d="M100.453 70.1082C105.007 76.6571 109.42 77.8258 115.485 74.2995V74.1988C115.602 74.519 115.697 74.7826 115.781 75.0167C115.856 75.2245 115.922 75.4091 115.989 75.5891H121.55V65.393C121.084 65.1278 120.601 65.1282 120.124 65.1287C119.55 65.1293 118.984 65.1298 118.467 64.6676L118.546 64.4106C119.186 62.3154 119.843 60.1667 120.462 58.018C120.936 56.3894 121.388 54.7609 121.842 53.1243C122.006 52.5335 122.17 51.9415 122.336 51.3482C119.555 50.8646 117.722 50.8847 115.727 51.4086C115.54 52.1673 115.561 52.9477 115.583 53.7478C115.609 54.6692 115.635 55.6167 115.344 56.5873C112.583 54.935 109.662 55.0156 106.84 55.6604C103.939 56.3455 101.984 58.4613 100.412 61.101V55.5395C99.6349 55.5591 98.8764 55.5384 98.1281 55.5181C96.5686 55.4756 95.0531 55.4343 93.5008 55.7611V62.9347C93.5008 63.384 93.5097 63.8355 93.5186 64.2877C93.5365 65.1945 93.5545 66.1043 93.5008 67.0051C93.3395 69.7657 91.5058 70.7933 89.0072 69.544C88.7918 69.4292 88.6072 69.2428 88.395 69.0285C88.3093 68.9419 88.2191 68.8509 88.1206 68.7582C87.8717 66.5285 87.9056 64.2721 87.9396 62.0193C87.9716 59.8948 88.0035 57.7734 87.7981 55.6805H81.088C80.9887 56.628 80.9945 57.5552 81.0004 58.5003C81.0077 59.6657 81.0152 60.8581 80.826 62.1488C77.6422 55.7813 72.6046 54.3909 66.499 55.882C64.0406 56.4866 62.1666 58.0784 60.8568 60.2345C59.0836 63.1563 58.8418 66.2797 60.0307 69.544H50.439C50.439 63.4225 49.9776 56.9436 50.439 51.1361C48.2224 51.0354 45.5626 50.9951 43.5273 51.1361V75.4682C47.2149 75.9116 58.7007 75.7906 60.5949 75.307C60.7711 74.7599 60.7467 74.1872 60.722 73.6085C60.6931 72.9297 60.6639 72.2427 60.9576 71.5792C65.5519 77.9266 76.272 78.6117 81.0477 69.0604C81.5716 72.0628 82.3776 74.6622 85.4607 75.71C88.4832 76.7377 91.1431 76.0929 93.6015 74.2794C93.8362 74.4937 93.8952 74.7804 93.9486 75.0399C94.0007 75.2929 94.0474 75.52 94.2463 75.6294H100.453V70.1082ZM106.619 65.5987C106.881 67.6138 107.807 69.1654 109.621 70.1527H109.601C113.248 70.455 115.162 69.2057 115.565 66.2637C115.868 64.0875 114.175 61.6694 111.999 61.1455C109.641 60.5611 107.707 62.1732 106.619 65.5987ZM66.4988 63.4225C65.3301 65.498 65.7331 68.3795 68.6751 70.0923H68.6952C72.3022 70.9789 73.9142 69.2863 74.6799 66.6667C75.2643 64.6315 73.9142 62.4553 71.8186 61.3873C69.9043 60.4201 67.4459 61.7299 66.4988 63.4225Z" fill="#D6D6D6"/>
<path d="M145.917 55.2864C146.024 53.9573 146.114 52.8438 146.204 51.802C147.012 50.9938 147.677 50.9579 152.849 51.4608V64.5003C155.113 59.2737 158.31 57.1184 163.033 57.0825C167.559 57.0466 170.9 58.9504 173.451 62.7581V57.7111C175.408 56.7412 177.222 57.2082 179.324 57.2441C179.899 59.7946 179.45 62.345 179.611 64.8236C179.683 65.9371 179.665 67.1046 180.024 68.1463C180.815 70.4093 181.964 70.6428 184.82 69.188V57.3519H191.142C192.274 59.1839 191.106 61.429 191.968 63.8357C192.92 60.8902 194.016 58.3936 196.925 57.4776C199.763 56.5976 202.457 57.1005 205.313 58.7708V51.5326C207.594 50.922 209.66 51.1555 211.959 51.2991V75.7616C209.426 75.4383 206.858 76.965 204.846 74.4685C198.201 77.414 194.716 76.067 191.645 68.8108V75.5461C189.112 75.7257 186.742 76.8932 184.838 74.0733C182.647 75.4563 180.24 76.2645 177.618 75.8335C174.456 75.3126 174.115 72.5287 173.073 69.9244C170.703 73.9296 167.685 76.2107 162.728 75.9951C157.914 75.7796 155.148 73.4986 153.155 69.0084C153.011 71.4511 152.885 73.4806 152.76 75.6718H146.402C146.24 74.4685 146.06 73.2651 145.827 71.6307C142.899 75.0073 139.343 76.049 135.176 75.9412C130.955 75.8335 127.866 74.1272 125.369 70.7686C126.232 68.1104 126.476 64.8595 127.41 62.0217C126.332 61.7702 124.504 61.7916 123.537 61.7916C122.57 61.7916 124.346 58.5553 125.477 57.2082C126.806 55.6277 128.261 53.8675 130.039 52.9875C134.619 50.7244 139.271 51.0836 143.672 53.7957C144.372 54.2267 145.037 54.6937 145.917 55.2864ZM145.953 70.6069V57.2801C144.246 58.3757 142.756 59.3276 141.247 60.2975C138.966 58.214 136.2 56.9208 133.47 58.4295C130.129 60.2795 130.327 63.7639 130.776 66.907C134.583 70.9482 137.116 71.0919 141.534 67.4817C142.863 68.4337 144.246 69.4035 145.953 70.6069ZM158.777 65.9551C159.352 69.5349 162.171 71.2535 164.147 70.6788C166.212 70.0681 167.901 66.2852 166.374 63.9974C165.516 62.7114 164.489 62.0473 162.943 62.0217C160.711 61.9847 158.384 63.7274 158.795 65.9551C159.205 68.1827 158.777 65.9551 158.777 65.9551ZM201.954 62.2552C199.405 62.2377 197.949 65.0032 198.488 67.7871C198.811 69.4933 200.41 70.8224 202.062 70.7326C203.535 70.6608 204.99 69.3856 205.313 67.8948C205.888 65.2007 204.518 62.2727 201.954 62.2552Z" fill="#A5A5A5"/>
</g>
<defs>
<clipPath id="clip0_303_405">
<rect width="231" height="127" fill="white"/>
</clipPath>
</defs>
</svg>
