<svg width="174" height="41" viewBox="0 0 174 41" fill="none" xmlns="http://www.w3.org/2000/svg">
<path d="M83.4828 7.39246C83.4828 16.3592 83.4096 25.326 83.4828 34.2927C83.4828 37.4769 84.3978 38.2454 87.5819 38.5016C87.9845 38.5016 88.4969 38.3552 88.5335 39.014C88.5701 39.746 88.0943 39.746 87.5819 39.746C84.1416 39.746 80.6647 39.746 77.2244 39.746C76.712 39.746 76.1996 39.746 76.2362 39.0506C76.2362 38.282 76.895 38.5382 77.2976 38.5016C80.1889 38.3186 80.9209 37.6965 81.3235 34.8417C81.4333 34 81.4699 33.1582 81.4699 32.3164C81.4699 23.7522 81.4699 15.2247 81.4699 6.66049C81.4699 6.2213 81.4699 5.81871 81.4699 5.37952C81.2869 2.5248 80.3353 1.5732 77.4806 1.20721C77.0414 1.17061 76.2362 1.50002 76.3094 0.621639C76.346 -0.183539 77.1146 0.0726484 77.5904 0.0726484C80.0425 0.0726484 82.4946 0.109247 84.9102 0.0726484C86.1179 0.0360494 86.6669 0.475243 87.1793 1.53662C91.6444 10.906 96.1461 20.2753 100.648 29.6447C100.867 30.1205 101.124 30.5963 101.38 31.1086C101.965 30.7792 102.039 30.1937 102.295 29.6813C106.65 20.2753 111.042 10.8328 115.361 1.39022C115.8 0.438641 116.312 0.0360494 117.374 0.0726484C119.826 0.145846 122.241 0.0726562 124.693 0.109255C125.169 0.109255 125.901 -0.110338 125.865 0.768039C125.865 1.53662 125.133 1.20723 124.767 1.28042C121.765 1.60981 120.667 2.52478 120.667 5.2697C120.667 15.0782 120.667 24.9234 120.777 34.7319C120.777 37.5501 121.839 38.3918 124.73 38.5748C125.169 38.5748 125.901 38.282 125.901 39.197C125.901 40.0754 125.169 39.7826 124.693 39.7826C119.972 39.7826 115.251 39.7826 110.529 39.7826C110.054 39.7826 109.358 40.0022 109.395 39.1238C109.395 38.2454 110.164 38.5748 110.603 38.5748C113.823 38.4284 114.629 37.7697 114.848 34.5123C115.251 28.6931 114.958 22.8373 114.995 16.9814C114.995 13.7973 114.995 10.6498 114.665 7.35585C113.75 9.3322 112.799 11.2719 111.884 13.2483C108.041 21.6295 104.198 30.0107 100.318 38.3918C100.062 38.9042 100.062 39.746 99.1838 39.746C98.342 39.746 98.3054 38.9408 98.0492 38.4284C93.4744 28.5101 88.9361 18.5918 84.3612 8.67342C84.1782 8.23423 83.9586 7.83165 83.739 7.42906C83.6658 7.42906 83.556 7.42907 83.4828 7.46567V7.39246Z" fill="#A8A8A8"/>
<path d="M152.657 20.3481C149.838 20.3481 147.02 20.3481 144.202 20.3481C142.958 20.3481 142.116 20.7873 142.153 22.1415C142.226 26.3503 141.933 30.5226 142.336 34.7315C142.592 37.5131 143.434 38.3182 146.252 38.4646C146.691 38.4646 147.423 38.0986 147.496 38.977C147.569 40.0018 146.727 39.6724 146.252 39.6724C141.64 39.6724 136.992 39.6724 132.381 39.6724C131.905 39.6724 131.209 39.892 131.283 39.0136C131.319 38.2084 131.941 38.5012 132.344 38.4646C135.418 38.2816 136.114 37.6229 136.48 34.5851C136.846 31.4742 136.626 28.3267 136.626 25.1792C136.663 19.4331 136.626 13.6871 136.626 7.97765C136.626 7.06267 136.59 6.18428 136.48 5.2693C136.15 2.08519 135.565 1.5362 132.344 1.20681C131.941 1.17021 131.283 1.4996 131.283 0.694423C131.283 -0.220553 131.978 0.0722463 132.417 0.0722463C137.029 0.0722463 141.64 0.0722463 146.288 0.0722463C146.727 0.0722463 147.459 -0.293738 147.496 0.621237C147.533 1.53621 146.801 1.17022 146.325 1.24341C143.251 1.53621 142.592 2.19498 142.299 5.2693C141.933 9.0756 142.226 12.9185 142.116 16.7248C142.079 18.2986 143.068 18.5548 144.275 18.5548C148.521 18.5548 152.766 18.5548 157.012 18.5548C158.512 18.5548 159.976 18.5182 161.477 18.4816C162.538 18.4816 163.051 17.896 163.014 16.8712C162.977 12.9551 163.234 9.00242 162.904 5.08632C162.648 2.1218 161.879 1.463 158.915 1.20681C158.476 1.17021 157.707 1.53622 157.707 0.657844C157.707 -0.257132 158.439 0.0722463 158.878 0.0722463C163.49 0.0722463 168.101 0.0722463 172.749 0.0722463C173.225 0.0722463 173.921 -0.257132 173.921 0.657844C173.921 1.46302 173.298 1.17021 172.859 1.20681C169.712 1.463 168.87 2.15839 168.797 5.30591C168.65 11.7473 168.723 18.1522 168.687 24.5936C168.687 27.9241 168.614 31.2912 168.797 34.6217C168.943 37.5863 169.821 38.2816 172.749 38.4646C173.189 38.4646 173.921 38.1352 173.921 39.0502C173.921 39.9286 173.189 39.6724 172.749 39.6724C168.138 39.6724 163.49 39.6724 158.878 39.6724C158.439 39.6724 157.707 39.9652 157.707 39.0868C157.707 38.1719 158.403 38.5012 158.842 38.4646C161.806 38.2816 162.611 37.696 162.868 34.6949C163.27 30.4494 162.977 26.204 163.014 21.9585C163.014 20.6775 162.062 20.3115 160.928 20.3481C158.183 20.3481 155.401 20.3481 152.657 20.3481Z" fill="#A8A8A8"/>
<path d="M53.438 31.9129C54.7922 28.6556 55.9999 25.691 57.2077 22.6899C59.1109 18.0784 60.9774 13.4669 62.844 8.85546C63.2466 7.83069 63.6491 6.76932 63.9053 5.70795C64.4177 3.47541 63.5393 2.04805 61.3434 1.31607C60.9408 1.16968 60.2454 1.31606 60.3186 0.584077C60.3918 -0.111305 61.014 0.0350858 61.4532 0.0350858C64.2713 0.0350858 67.0895 0.0350858 69.9076 0.0350858C70.3468 0.0350858 70.9324 -0.184498 71.1154 0.474284C71.2984 1.20626 70.6395 1.16968 70.237 1.31607C67.9312 2.26765 66.7601 4.20738 65.8817 6.33012C62.7708 13.7597 59.733 21.2259 56.6587 28.6555C55.1948 32.2422 53.7308 35.7923 52.2302 39.379C52.0472 39.8548 52.0107 40.5136 51.3519 40.5868C50.5467 40.66 50.5101 39.8548 50.3271 39.379C45.6424 28.6555 40.9577 17.8954 36.3097 7.17191C35.8705 6.18374 35.4313 5.23216 34.9921 4.28059C34.1869 2.56043 32.9426 1.31606 30.9296 1.13307C30.5636 1.13307 30.161 1.13306 30.1976 0.584077C30.1976 0.0350913 30.6002 0.0350858 30.9662 0.0350858C35.5777 0.0350858 40.1892 0.0350858 44.8372 0.0350858C45.1666 0.0350858 45.496 0.0717027 45.5326 0.510891C45.5692 0.840282 45.4594 1.02326 45.0934 1.20625C41.3237 2.78001 40.9944 3.47539 42.6413 7.35489C45.2764 13.5401 48.0214 19.6888 50.7297 25.8374C51.5715 27.7406 52.4498 29.6437 53.438 31.9129Z" fill="#A8A8A8"/>
<path d="M11.0908 20.1278C11.0908 24.6295 11.0908 29.1677 11.0908 33.6694C11.0908 37.1829 11.8228 37.8417 15.2997 37.8417C17.8616 37.8417 20.387 37.8417 22.9489 37.8417C26.4624 37.8051 29.1708 36.3046 30.8543 33.157C31.5131 31.8761 32.1353 30.5951 32.7208 29.3141C32.8672 29.0213 33.0136 28.692 33.3796 28.8018C33.8188 28.9115 33.7456 29.3141 33.6358 29.6069C32.6476 32.791 31.5863 35.9752 30.5981 39.1227C30.4151 39.7449 29.9759 39.7083 29.4635 39.7083C20.021 39.7083 10.5418 39.7083 1.09928 39.7083C0.660088 39.7083 0.0379208 39.8547 0.00132181 39.1227C-0.0352772 38.2077 0.696694 38.5005 1.13588 38.5005C4.2102 38.3175 5.19838 37.4025 5.19838 34.255C5.23498 24.7027 5.23498 15.1503 5.19838 5.59798C5.19838 2.45046 4.28341 1.57207 1.2091 1.20608C0.769908 1.16948 0.00132181 1.57207 0.00132181 0.693696C0.00132181 -0.148082 0.733309 0.108126 1.2091 0.108126C5.93037 0.108126 10.6516 0.108126 15.3729 0.108126C15.8121 0.108126 16.2147 0.108133 16.6539 0.144732C16.9467 0.144732 17.1296 0.364324 17.1662 0.657117C17.1662 1.05971 16.9467 1.20609 16.5807 1.24269C16.1415 1.24269 15.7389 1.2427 15.2997 1.3159C12.1156 1.64529 11.0176 2.81644 10.981 6.03715C10.9444 10.7584 10.981 15.4797 10.981 20.201L11.0908 20.1278Z" fill="#A8A8A8"/>
</svg>
