<svg width="231" height="128" viewBox="0 0 231 128" fill="none" xmlns="http://www.w3.org/2000/svg">
<path fill-rule="evenodd" clip-rule="evenodd" d="M133.174 27.6819C123.433 39.5634 114.088 51.7033 106.897 65.4279H106.892C106.962 65.4373 107.024 65.4467 107.081 65.4552C107.18 65.4703 107.262 65.4827 107.344 65.4882C108.016 65.5279 108.688 65.5706 109.359 65.6133L109.36 65.6134C110.947 65.7144 112.534 65.8153 114.123 65.8758C120.66 66.1256 127.163 65.8285 133.601 64.6011C138.045 63.7484 142.347 62.4436 146.352 60.286C150.706 57.9433 154.285 54.7781 156.696 50.4027C157.506 48.9428 158.234 47.4313 158.587 45.7948C159.078 43.521 158.63 41.3592 157.549 39.3222C156.141 36.678 154.009 34.7057 151.593 33.0176C147.524 30.1753 142.985 28.3364 138.256 26.9325C130.612 24.6673 122.77 23.7328 114.825 23.539C110.488 23.4314 106.164 23.651 101.849 24.1376C97.2156 24.6587 92.6422 25.4899 88.1505 26.756C83.9302 27.9445 79.8391 29.4604 76.0193 31.6438C73.2847 33.207 70.7697 35.0416 68.8275 37.5652C65.9895 41.2429 65.7139 45.2479 68.0265 49.1754C69.1505 51.0831 70.6448 52.6722 72.3372 54.0847C75.5843 56.7892 79.2792 58.7099 83.1938 60.2516C83.5383 60.3894 83.7407 60.3377 84.0034 60.0966C90.42 54.2656 96.9615 48.5854 103.908 43.3875C112.047 37.3025 120.638 31.9668 129.893 27.7292C130.008 27.6746 130.128 27.6285 130.249 27.582C130.299 27.5625 130.35 27.5429 130.401 27.5225C115.307 37.3585 101.97 49.2141 89.7396 62.4694C89.8669 62.5025 89.9843 62.5335 90.0958 62.563L90.1009 62.5644C90.2628 62.6071 90.4126 62.6467 90.5621 62.6847C93.9513 63.5503 97.375 64.2394 100.846 64.6786C101.147 64.7174 101.333 64.6571 101.501 64.3815C101.779 63.9179 102.075 63.4637 102.37 63.0102L102.371 63.0094C102.522 62.7765 102.674 62.5438 102.823 62.3101C106.057 57.2371 109.446 52.2717 113.266 47.6164C118.868 40.795 125.143 34.6368 131.801 28.8618C132.113 28.5911 132.427 28.3223 132.74 28.0542L132.741 28.0532L132.742 28.0526L132.761 28.0358C132.899 27.9177 133.037 27.7998 133.174 27.6819ZM128.787 26.0226C128.791 26.0843 128.794 26.1428 128.795 26.2046L128.795 26.2054V26.214L128.795 26.222C128.417 26.3588 128.04 26.497 127.664 26.635L127.662 26.6356L127.66 26.6364L127.66 26.6366C127.386 26.737 127.113 26.8373 126.84 26.9368C115.867 30.9289 105.26 35.7306 94.972 41.2429C91.4988 43.1031 88.051 45.0164 84.6052 46.9286L84.6036 46.9295L84.5956 46.9339C83.5455 47.5166 82.4957 48.0992 81.4454 48.6801C81.0923 48.8739 80.7779 48.9213 80.3903 48.8352C78.8486 48.4863 77.3973 47.9394 76.114 47.0049C75.1873 46.3283 74.5413 45.5309 74.1836 44.6339C73.7618 43.5823 73.738 42.3935 74.1245 41.1014C74.6929 39.1937 75.8212 37.6089 77.0744 36.106C79.4214 33.2895 82.4058 31.3473 85.7131 29.853C89.1195 28.3113 92.6982 27.338 96.3587 26.6404C99.8727 25.9729 103.417 25.5853 106.987 25.3786C111.005 25.146 115.023 25.1073 119.041 25.314C121.263 25.4288 123.484 25.5999 125.703 25.771C126.731 25.8502 127.759 25.9294 128.786 26.003C128.786 26.0059 128.786 26.0088 128.786 26.0117L128.787 26.0226ZM120.797 55.8822C120.954 55.9178 121.096 55.9568 121.228 55.993C121.478 56.0618 121.691 56.1204 121.904 56.126C122.11 56.129 122.316 56.1329 122.522 56.1369C123.492 56.1555 124.464 56.174 125.427 56.0959C128.877 55.8159 132.262 55.1614 135.599 54.2613C139.023 53.3354 142.364 52.177 145.461 50.4199C147.274 49.3907 148.949 48.1849 150.207 46.4925C151.481 44.7785 151.925 42.8836 151.352 40.8036C151.145 40.0474 150.887 39.3179 150.58 38.6165C149.848 36.942 148.831 35.4273 147.515 34.0905C144.496 31.0157 140.762 29.3017 136.594 28.4103C136.12 28.307 135.9 28.4275 135.655 28.8367L135.281 29.4662L135.281 29.4668C133.645 32.2242 132.008 34.9825 130.315 37.7036C130.066 38.1052 129.816 38.5061 129.566 38.9071C127.729 41.8515 125.893 44.7942 124.411 47.9401C123.589 49.6815 122.797 51.4385 121.989 53.2293L121.988 53.2313L121.988 53.2322L121.983 53.2444C121.591 54.1124 121.196 54.9883 120.792 55.8743L120.785 55.8726L120.789 55.8812L120.792 55.8743C120.795 55.8749 120.797 55.8754 120.799 55.876C120.798 55.8781 120.798 55.8801 120.797 55.8822Z" fill="#E8E8E8"/>
<path fill-rule="evenodd" clip-rule="evenodd" d="M152.721 104.295C152.837 104.316 152.954 104.337 153.07 104.358L153.075 104.367H154.056C154.066 104.363 154.076 104.358 154.085 104.353C154.098 104.346 154.11 104.339 154.123 104.332C154.168 104.306 154.212 104.281 154.259 104.281C155.9 104.19 157.157 103.394 158.161 102.14C158.214 102.074 158.277 102.019 158.364 101.943C158.418 101.896 158.481 101.841 158.557 101.77V103.949H164.039V83.8768C164.039 83.865 164.039 83.8533 164.039 83.8416C164.039 83.8266 164.04 83.8118 164.04 83.797C164.044 83.5541 164.048 83.3475 163.656 83.3514C162.774 83.3596 161.892 83.359 161.01 83.3585C160.03 83.3579 159.049 83.3573 158.07 83.3686C157.093 83.3816 156.576 83.795 156.223 84.7553C156.292 84.7769 156.365 84.7984 156.434 84.8199C157.476 85.1085 158.113 85.931 158.113 87.0033V90.0394C158.113 90.1235 158.105 90.2077 158.094 90.3124L158.094 90.3133L158.094 90.315C158.091 90.3364 158.089 90.3586 158.087 90.3818C158.085 90.3971 158.084 90.4129 158.082 90.4292C158.08 90.4583 158.077 90.4891 158.074 90.5217C156.714 89.234 155.176 88.7 153.411 88.7345C150.723 88.7862 148.544 90.3322 147.631 92.8644C147.149 94.2037 147.05 95.5904 147.106 96.9943C147.179 98.803 147.687 100.474 148.729 101.968C149.513 103.088 150.568 103.816 151.899 104.134C152.168 104.198 152.444 104.247 152.72 104.295L152.721 104.295ZM152.894 96.4757C152.914 96.672 152.929 96.8571 152.944 97.0343C152.973 97.3924 153 97.7185 153.057 98.0408C153.286 99.3155 154.186 100.164 155.31 100.194C156.05 100.215 156.674 100.015 157.144 99.6193C157.546 99.2829 157.836 98.8037 157.993 98.1964C158.074 97.8993 158.126 97.5892 158.156 97.2792C158.251 96.2801 158.204 95.2896 157.739 94.368C157.26 93.4206 156.283 92.8521 155.31 92.9383C154.553 93.0018 153.931 93.3501 153.53 93.9399C153.359 94.1906 153.227 94.4849 153.143 94.8195C153.042 95.2259 152.993 95.6478 152.948 96.0346C152.931 96.1882 152.914 96.3363 152.894 96.4757Z" fill="#E8E8E8"/>
<path fill-rule="evenodd" clip-rule="evenodd" d="M184.715 104.274L184.715 104.274C184.892 104.301 185.068 104.328 185.244 104.358L185.239 104.345H186.402C186.447 104.335 186.491 104.322 186.535 104.309C186.633 104.281 186.731 104.252 186.829 104.246C188.555 104.13 190.106 103.57 191.424 102.42C191.455 102.394 191.489 102.368 191.523 102.344L191.537 102.334L191.553 102.323L191.579 102.305L191.598 102.291C191.634 102.266 191.671 102.241 191.708 102.214C191.78 102.425 191.848 102.631 191.915 102.834C191.992 103.069 192.068 103.298 192.147 103.527C192.272 103.889 192.526 103.979 192.905 103.975C193.976 103.959 195.049 103.962 196.122 103.965H196.123C196.525 103.965 196.926 103.966 197.328 103.966C197.427 103.966 197.527 103.96 197.657 103.952C197.686 103.95 197.717 103.948 197.75 103.946C197.779 103.944 197.809 103.942 197.84 103.941C197.133 102.76 197.153 101.517 197.173 100.28C197.177 99.9882 197.182 99.6964 197.177 99.4059C197.167 98.7804 197.175 98.153 197.183 97.5257V97.5158C197.2 96.2076 197.216 94.8995 197.074 93.6094C196.759 90.7758 195.528 89.5097 192.849 89.0101C190.95 88.657 189.021 88.6613 187.108 88.7776C186.01 88.8465 184.895 89.0747 183.84 89.3977C182.1 89.9317 180.843 91.594 180.765 93.2735C180.877 93.2859 180.989 93.2988 181.101 93.3117C181.338 93.339 181.576 93.3664 181.816 93.3898C182.36 93.4449 182.905 93.4987 183.449 93.5524C184.266 93.633 185.082 93.7136 185.898 93.7989C186.161 93.829 186.295 93.7386 186.398 93.4931C186.704 92.7524 187.255 92.2658 188.06 92.171C188.689 92.0978 189.331 92.0462 189.959 92.1021C190.898 92.1883 191.325 92.6878 191.428 93.6051C191.462 93.8979 191.393 94.0831 191.083 94.1692C190.7 94.273 190.318 94.3837 189.936 94.4944C189.32 94.673 188.704 94.8515 188.082 95.0004C187.464 95.1482 186.841 95.2775 186.219 95.4067C185.228 95.6125 184.238 95.8182 183.267 96.0985C180.769 96.822 179.831 98.5618 180.377 101.12C180.726 102.761 181.975 103.635 183.543 104.053C183.926 104.154 184.32 104.214 184.715 104.274ZM191.411 96.8746C191.412 96.8743 191.414 96.874 191.415 96.8737L191.419 96.878L191.423 96.9779L191.427 97.0577C191.46 97.8533 191.492 98.6119 191.204 99.337C190.769 100.427 189.847 100.93 188.775 101.15C188.753 101.154 188.732 101.158 188.71 101.162C188.261 101.243 187.772 101.216 187.315 101.142C186.596 101.026 186.148 100.505 186.058 99.82C185.98 99.2085 186.299 98.5883 186.932 98.2998C187.395 98.0898 187.886 97.9346 188.374 97.7804C188.466 97.7512 188.558 97.7221 188.65 97.6926C189.231 97.5064 189.812 97.3323 190.395 97.1576L190.397 97.1569C190.595 97.0974 190.794 97.0378 190.993 96.9777C191.021 96.9691 191.048 96.9614 191.077 96.954C191.152 96.9336 191.23 96.9158 191.321 96.8953L191.321 96.8951C191.346 96.8896 191.371 96.8837 191.398 96.8776C191.402 96.8766 191.407 96.8757 191.411 96.8746Z" fill="#E8E8E8"/>
<path fill-rule="evenodd" clip-rule="evenodd" d="M82.5608 104.358C82.3883 104.327 82.2145 104.3 82.0405 104.273C81.6586 104.213 81.2756 104.153 80.9028 104.053C79.2836 103.626 78.0261 102.718 77.6859 101.008C77.1949 98.5403 78.1294 96.8005 80.6229 96.0899C81.5869 95.8168 82.5701 95.6109 83.554 95.4048C84.1831 95.2731 84.8126 95.1413 85.4375 94.9918C86.0885 94.8368 86.7321 94.6504 87.3756 94.4641L87.3761 94.4639C87.7157 94.3656 88.0555 94.2672 88.396 94.1736C88.6932 94.0917 88.7793 93.9238 88.7621 93.618C88.7061 92.7696 88.2496 92.1926 87.4098 92.1065C86.794 92.0419 86.161 92.0548 85.5494 92.128C84.714 92.227 84.0723 92.6663 83.7493 93.4759C83.6417 93.7429 83.491 93.829 83.211 93.7989C82.219 93.694 81.2245 93.5961 80.2312 93.4983C79.8793 93.4636 79.5274 93.429 79.1759 93.3941C78.961 93.3731 78.7476 93.349 78.5233 93.3236C78.3791 93.3072 78.2301 93.2903 78.0734 93.2735C78.25 92.1667 78.6376 91.2236 79.4343 90.4614C80.4161 89.5269 81.6349 89.1178 82.9311 88.9412C85.36 88.6096 87.8017 88.601 90.2176 89.0273C92.9953 89.5183 93.9427 90.8705 94.4035 93.3769C94.5128 93.9606 94.5083 94.5688 94.5039 95.1713V95.1766C94.5028 95.3323 94.5017 95.4876 94.5026 95.6421C94.5155 97.5024 94.5198 99.3628 94.5026 101.223C94.4939 102.166 94.7265 103.041 95.1528 103.941C95.0932 103.945 95.0386 103.949 94.9872 103.954L94.9862 103.954L94.9855 103.954C94.8781 103.963 94.785 103.971 94.692 103.971C94.3162 103.971 93.9404 103.97 93.5646 103.97C92.4375 103.968 91.3103 103.966 90.1832 103.979C89.8559 103.979 89.6406 103.898 89.5286 103.592C89.4395 103.346 89.3532 103.099 89.2642 102.845L89.2641 102.845C89.1939 102.644 89.1222 102.439 89.0463 102.227C89.0185 102.247 88.99 102.267 88.9612 102.287L88.9609 102.288C88.8915 102.337 88.8203 102.387 88.7534 102.442C87.4443 103.579 85.9112 104.134 84.1972 104.251C84.0919 104.259 83.9885 104.287 83.8845 104.314C83.8311 104.328 83.7775 104.342 83.7235 104.354H82.5608V104.358ZM88.545 96.9235C88.6081 96.9065 88.6765 96.888 88.7534 96.8663C88.7534 96.8684 88.7534 96.8704 88.7534 96.8725C88.7548 96.8721 88.7563 96.8717 88.7578 96.8713C88.7579 97.047 88.7624 97.221 88.7668 97.3931C88.7842 98.0669 88.8009 98.7139 88.5511 99.3334C88.1161 100.419 87.1988 100.935 86.1265 101.146C85.6055 101.245 85.0327 101.194 84.5073 101.09C84.3015 101.048 84.1188 100.971 83.9647 100.862C83.6743 100.657 83.4842 100.337 83.4307 99.9227C83.3402 99.2164 83.5771 98.6307 84.2317 98.3293C84.7348 98.0962 85.2697 97.9235 85.8037 97.7512C85.8639 97.7317 85.9241 97.7123 85.9842 97.6928L86.0662 97.6661C86.6273 97.4846 87.1936 97.3182 87.7609 97.1515L87.7625 97.151C87.9349 97.1004 88.1073 97.0497 88.2797 96.9986C88.3624 96.9728 88.4466 96.95 88.5434 96.9239L88.545 96.9235ZM88.7578 96.8713V96.8658L88.7621 96.8701L88.7578 96.8713Z" fill="#E8E8E8"/>
<path d="M60.0208 103.962H52.0366C52.0321 103.889 52.0261 103.816 52.0201 103.744C52.0088 103.61 51.9979 103.48 51.9979 103.351C51.9979 99.8968 51.9979 96.4431 51.9936 92.9893C51.9936 92.4079 51.985 91.8222 51.8945 91.2538C51.7137 90.0781 50.8394 89.2039 49.7844 89.0661C48.4063 88.8895 47.1014 89.514 46.632 90.7327C46.3564 91.4519 46.1885 92.2572 46.1799 93.0237C46.1438 95.6551 46.1477 98.2865 46.1516 100.918C46.1528 101.74 46.154 102.563 46.154 103.385V103.945H38.0837V89.7896C38.0837 89.7532 38.0839 89.7167 38.0841 89.6802C38.0853 89.4788 38.0864 89.2752 38.0536 89.0747C37.821 87.5761 37.1622 87.0076 35.5817 86.9344C35.2727 86.92 34.9656 86.9249 34.6657 86.9297C34.5183 86.9321 34.3727 86.9344 34.2295 86.9344C34.2134 86.9055 34.1991 86.8832 34.1878 86.8654C34.1688 86.8358 34.1579 86.8187 34.1606 86.8052C34.897 84.5745 36.3138 83.3428 38.3378 83.3902C39.8899 83.4264 41.4441 83.4182 42.9975 83.4101H43.0023C43.667 83.4066 44.3315 83.4031 44.9956 83.4031H45.5468V86.3487C45.5834 86.3724 45.6189 86.3961 45.6545 86.4198C45.69 86.4435 45.7255 86.4671 45.7621 86.4908C45.7888 86.4429 45.8129 86.3929 45.8371 86.343C45.8909 86.2315 45.9445 86.1206 46.0248 86.0343C47.2952 84.6477 48.7508 83.5538 50.65 83.1792C52.2347 82.8691 53.8152 82.8562 55.3827 83.2395C56.9977 83.6357 58.1949 84.6132 59.0777 85.9999C59.1638 86.1377 59.2499 86.2712 59.3705 86.4564C59.4212 86.4083 59.4703 86.3622 59.5181 86.3173C59.6286 86.2135 59.7321 86.1164 59.8313 86.0171C60.9725 84.8974 62.1568 83.8294 63.7416 83.3686C65.5374 82.8476 67.3547 82.7701 69.1591 83.2524C71.8765 83.9802 73.3234 85.8707 73.767 88.5752C73.8962 89.3632 73.9522 90.1729 73.9565 90.9695C73.9694 94.0961 73.9678 97.2227 73.9662 100.349C73.9656 101.391 73.9651 102.433 73.9651 103.475C73.9651 103.575 73.9591 103.674 73.9526 103.783L73.9526 103.783L73.9525 103.785C73.9509 103.811 73.9493 103.838 73.9478 103.866C73.9463 103.892 73.9449 103.918 73.9436 103.945H65.9766C65.9734 103.878 65.9685 103.811 65.9636 103.743L65.9635 103.743C65.955 103.627 65.9465 103.51 65.9465 103.394C65.9465 99.7763 65.9465 96.1588 65.9422 92.5414C65.9422 92.1108 65.9163 91.6758 65.8259 91.2581C65.5675 90.0609 64.6416 89.1996 63.453 89.1005C62.3291 89.0058 61.1534 89.4967 60.5419 90.6939C60.1242 91.5122 60.0294 92.3993 60.0251 93.295C60.0159 95.6877 60.0176 98.0803 60.0194 100.471V100.479C60.0201 101.434 60.0208 102.388 60.0208 103.342V103.962Z" fill="#E8E8E8"/>
<path d="M98.8262 83.3471C97.4826 83.2954 96.6041 83.8337 96.1562 85.1472L96.1648 85.1515C96.2422 85.169 96.316 85.187 96.3878 85.2045L96.3889 85.2048C96.5285 85.2388 96.6601 85.2709 96.7936 85.2936C97.5601 85.4185 97.9563 85.9008 98.0597 86.6416C98.1071 86.9947 98.1415 87.3521 98.1415 87.7053V103.949H103.985V103.394C103.985 102.761 103.983 102.128 103.982 101.495C103.976 99.8065 103.971 98.1183 104.003 96.4301C104.016 95.7712 104.14 95.0908 104.36 94.475C104.687 93.5448 105.635 93.0797 106.716 93.1788C107.646 93.2649 108.232 93.7946 108.443 94.8238C108.533 95.2588 108.55 95.711 108.55 96.1545C108.563 98.592 108.563 101.034 108.55 103.475C108.546 103.846 108.628 103.992 109.041 103.988C110.259 103.969 111.476 103.971 112.694 103.973C113.1 103.974 113.506 103.975 113.912 103.975C114.003 103.975 114.094 103.968 114.189 103.961L114.19 103.961C114.242 103.956 114.296 103.952 114.351 103.949C114.353 103.866 114.357 103.792 114.36 103.724C114.364 103.645 114.368 103.573 114.368 103.501C114.368 102.753 114.368 102.004 114.369 101.256V101.254C114.37 99.0113 114.37 96.7702 114.364 94.5267C114.36 93.997 114.325 93.4587 114.256 92.929C113.994 90.8533 112.779 89.3632 110.893 88.9412C108.52 88.4158 106.337 88.7905 104.515 90.5346C104.421 90.6225 104.324 90.7086 104.2 90.8187L104.199 90.8196C104.134 90.8764 104.063 90.9395 103.981 91.0126V90.4011C103.981 89.8543 103.981 89.3075 103.98 88.7606V88.7584C103.978 87.1183 103.977 85.4782 103.99 83.8381C103.994 83.472 103.891 83.3557 103.516 83.3557C103.275 83.3584 103.035 83.3614 102.794 83.3645C101.471 83.3813 100.149 83.3981 98.8262 83.3471Z" fill="#E8E8E8"/>
<path d="M134.074 90.7956C133.866 90.9974 133.645 91.211 133.394 91.4522C133.394 91.2458 133.392 91.0478 133.39 90.8559V90.855C133.386 90.4015 133.382 89.9814 133.403 89.5613C133.42 89.191 133.299 89.079 132.929 89.079C132.009 89.0889 131.09 89.0875 130.171 89.086C129.482 89.085 128.792 89.0839 128.101 89.0876C127.141 89.0919 126.723 89.4192 126.418 90.3925C127.089 90.526 127.667 90.8145 127.847 91.5466C127.925 91.861 127.972 92.1926 127.972 92.5156C127.977 96.133 127.977 99.7504 127.977 103.368V103.958H133.777C133.779 103.94 133.78 103.921 133.782 103.903C133.784 103.868 133.787 103.833 133.79 103.799L133.79 103.797C133.801 103.672 133.812 103.549 133.812 103.428C133.813 102.631 133.813 101.832 133.813 101.034C133.813 99.7029 133.812 98.3714 133.82 97.0416C133.825 96.4344 133.846 95.8186 133.937 95.22C134.131 93.9324 135.013 93.1745 136.241 93.1745C137.438 93.1745 138.088 93.7558 138.316 95.0607C138.352 95.2721 138.351 95.4907 138.351 95.7067L138.351 95.7712V103.949H144.173C144.176 103.896 144.179 103.846 144.182 103.797L144.182 103.797L144.182 103.796L144.182 103.794L144.182 103.793C144.189 103.686 144.195 103.588 144.195 103.488C144.195 102.669 144.196 101.85 144.197 101.031V101.029C144.199 98.8413 144.202 96.6527 144.186 94.4664C144.182 93.8161 144.126 93.1572 143.997 92.5199C143.639 90.7284 142.631 89.4451 140.823 88.9757C140.086 88.7862 139.294 88.7646 138.527 88.756C136.99 88.7431 135.651 89.29 134.531 90.3537C134.38 90.4988 134.231 90.6438 134.074 90.7956Z" fill="#E8E8E8"/>
<path d="M176.403 88.7733C174.87 88.9843 174.038 90.091 173.354 91.3442V91.3485C173.333 91.3439 173.311 91.3405 173.288 91.3371C173.269 91.3341 173.249 91.331 173.229 91.327L173.228 90.7112C173.227 90.3006 173.226 89.8901 173.229 89.4795C173.233 89.2427 173.199 89.079 172.897 89.079C171.99 89.0855 171.085 89.0887 170.179 89.0919L170.168 89.092C169.262 89.0952 168.356 89.0984 167.45 89.1049C167.303 89.1049 167.148 89.1436 167.019 89.2039C166.571 89.4149 166.532 89.8369 166.493 90.259C166.471 90.5332 166.651 90.5754 166.823 90.6155C166.88 90.629 166.937 90.6422 166.984 90.6638C167.333 90.8231 167.592 91.0514 167.665 91.4303C167.725 91.7361 167.76 92.0462 167.76 92.3562C167.764 96.0426 167.764 99.7332 167.764 103.424C167.764 103.551 167.771 103.678 167.778 103.807L167.778 103.808C167.781 103.853 167.783 103.899 167.785 103.945H173.608V103.385C173.618 102.706 173.625 102.027 173.632 101.348C173.647 99.9899 173.661 98.632 173.698 97.2742C173.724 96.288 173.909 95.3234 174.336 94.4233C174.814 93.4199 175.683 92.972 176.786 93.1529C177.092 93.2003 177.406 93.2563 177.69 93.3682C177.992 93.4888 178.117 93.3941 178.229 93.1271C178.435 92.6346 178.653 92.1464 178.87 91.658L178.871 91.657C178.961 91.4538 179.052 91.2506 179.142 91.0471C179.178 90.9628 179.215 90.8787 179.251 90.7945L179.385 90.4859C179.523 90.1681 179.663 89.847 179.809 89.514C178.724 88.9024 177.6 88.6053 176.403 88.7733Z" fill="#E8E8E8"/>
<path d="M124.066 103.958H118.27C118.267 103.91 118.265 103.864 118.262 103.818C118.255 103.702 118.248 103.591 118.248 103.48C118.248 98.8547 118.248 94.2295 118.24 89.6001C118.24 89.1953 118.339 89.0618 118.756 89.0661C120.393 89.0876 122.029 89.0833 123.666 89.0661C123.989 89.0661 124.101 89.1565 124.101 89.4967C124.092 94.1951 124.092 98.8977 124.092 103.596C124.092 103.672 124.085 103.745 124.076 103.838C124.073 103.872 124.07 103.909 124.066 103.949V103.958Z" fill="#E8E8E8"/>
<path d="M123.351 83.8079C122.697 83.3428 121.952 83.1749 121.198 83.1878L121.203 83.1921C120.32 83.1749 119.536 83.36 118.86 83.8811C117.882 84.6391 117.882 85.7932 118.851 86.5683C120.07 87.5459 122.271 87.5201 123.468 86.5124C124.432 85.6984 124.385 84.5357 123.351 83.8079Z" fill="#E8E8E8"/>
</svg>
