<svg width="231" height="127" viewBox="0 0 231 127" fill="none" xmlns="http://www.w3.org/2000/svg">
<g clip-path="url(#clip0_455_530)">
<path d="M52.9263 46.0005C56.3905 46.0005 59.8553 45.9982 63.3195 46.0035C63.7713 46.0041 64.2256 46.023 64.6745 46.0714C66.1588 46.2315 67.3395 47.349 67.6029 48.8203C67.6655 49.17 67.6874 49.5232 67.6868 49.8782C67.6856 54.3465 67.6868 58.8148 67.685 63.2831C67.685 64.2052 67.6673 64.2193 66.7731 64.2211C65.73 64.2229 64.6863 64.2229 63.6432 64.2211C62.7241 64.2193 62.7099 64.2075 62.7088 63.3074C62.7064 60.6305 62.7082 57.9531 62.7076 55.2762C62.7076 54.1539 62.7141 53.0323 62.7034 51.91C62.6934 50.8421 62.2534 50.3986 61.1943 50.3891C60.1317 50.3797 59.0685 50.3808 58.0054 50.3891C57.1152 50.3956 56.8418 50.6638 56.8406 51.5592C56.8347 55.3778 56.8376 59.1964 56.8364 63.0156C56.8364 63.2323 56.8429 63.4491 56.8282 63.6647C56.7975 64.1254 56.7236 64.2081 56.2511 64.2152C55.3261 64.2288 54.4006 64.2217 53.4756 64.2217C53.1017 64.2217 52.7278 64.214 52.354 64.217C52.0397 64.2193 51.8779 64.0693 51.8673 63.7574C51.8596 63.5413 51.8537 63.3245 51.8537 63.1083C51.8531 59.3878 51.8537 55.6678 51.8525 51.9473C51.8525 51.6915 51.859 51.434 51.8312 51.1806C51.7822 50.7346 51.5188 50.4712 51.0746 50.4074C50.9198 50.385 50.7604 50.3885 50.6032 50.3885C49.3239 50.3873 48.0445 50.385 46.7646 50.3885C46.0068 50.3903 45.9802 50.418 45.9796 51.2036C45.9778 55.1604 45.979 59.1166 45.9784 63.0735C45.9784 63.2902 45.9855 63.5076 45.9684 63.7226C45.9365 64.1183 45.8644 64.201 45.4586 64.2122C44.79 64.2305 44.1202 64.2217 43.451 64.2223C42.8213 64.2223 42.1911 64.2305 41.5615 64.2158C41.1208 64.2052 41.0523 64.1313 41.0128 63.6984C40.995 63.5029 41.0009 63.305 41.0009 63.1083C41.0009 57.7741 41.0004 52.4393 41.0009 47.1051C41.0009 46.3707 41.3736 46.0029 42.1191 46.0017C45.7215 46.0011 49.3233 46.0017 52.9257 46.0017L52.9263 46.0005Z" fill="white"/>
<path d="M156.557 55.1175C156.557 57.8523 156.558 60.5864 156.557 63.3212C156.556 64.2077 156.544 64.2213 155.676 64.2213C150.994 64.2231 146.312 64.2225 141.63 64.2201C141.375 64.2201 141.115 64.2184 140.866 64.1723C139.769 63.9679 138.955 63.1168 138.936 61.9479C138.889 59.1553 138.875 56.3603 138.943 53.5688C138.977 52.1377 140.064 51.0922 141.487 50.8914C141.817 50.8447 142.153 50.8364 142.487 50.8359C145.045 50.8317 147.602 50.8335 150.16 50.8329C150.337 50.8329 150.514 50.8341 150.691 50.8329C151.511 50.8258 151.558 50.7821 151.561 49.9593C151.565 48.8967 151.557 47.8347 151.566 46.7721C151.571 46.0947 151.645 46.0143 152.306 46.0084C153.486 45.9978 154.666 45.996 155.847 46.0102C156.488 46.0179 156.554 46.0929 156.555 46.7367C156.56 49.5305 156.557 52.3237 156.558 55.1175H156.557ZM151.437 51.4318C151.036 52.1058 150.647 52.6941 150.325 53.3166C149.915 54.1075 149.296 54.4471 148.414 54.4217C147.433 54.3934 146.449 54.4046 145.467 54.4217C144.39 54.4406 143.92 54.9155 143.912 55.9805C143.904 57.2185 143.905 58.4565 143.912 59.6951C143.918 60.5321 144.133 60.7589 144.955 60.763C146.901 60.7725 148.846 60.7707 150.792 60.7648C151.466 60.763 151.543 60.6774 151.56 60.0247C151.562 59.9656 151.561 59.9066 151.561 59.8481C151.561 57.2734 151.563 54.6993 151.56 52.1247C151.56 51.9321 151.598 51.7319 151.439 51.4324L151.437 51.4318Z" fill="white"/>
<path d="M79.8298 64.2315C77.5068 64.2315 75.1837 64.2315 72.8607 64.2315C72.664 64.2315 72.4667 64.2345 72.27 64.2286C71.2222 64.1973 70.6238 63.6084 70.6108 62.5647C70.5973 61.4625 70.6067 60.3598 70.6067 59.257C70.6067 58.8631 70.599 58.4691 70.612 58.0757C70.6475 57.0019 71.3362 56.273 72.4076 56.1685C72.5641 56.1531 72.7224 56.1537 72.8796 56.1537C75.2617 56.1531 77.6438 56.1502 80.0259 56.1537C81.2025 56.1555 81.4045 56.3604 81.408 57.5276C81.4092 57.8625 81.4051 58.1968 81.398 58.5317C81.3915 58.8442 81.2244 58.9977 80.9149 59.0007C80.639 59.0036 80.3638 59.009 80.0879 59.009C78.7489 59.0101 77.4105 59.009 76.0715 59.0107C75.8748 59.0107 75.6745 59.0025 75.4826 59.0349C75.0585 59.107 74.9669 59.345 75.0036 60.2027C75.026 60.7278 75.1099 60.837 75.5399 60.8802C75.6568 60.892 75.7761 60.889 75.8937 60.889C78.0596 60.889 80.225 60.889 82.3909 60.889C82.509 60.889 82.6278 60.892 82.7453 60.8807C83.1369 60.8435 83.2202 60.7614 83.2503 60.3734C83.2627 60.2168 83.2568 60.0585 83.2568 59.9008C83.2568 58.7591 83.2155 57.615 83.2668 56.4756C83.3436 54.7757 82.6685 54.3918 81.2332 54.4107C78.0638 54.452 74.8937 54.426 71.7242 54.419C71.4596 54.4184 71.0916 54.5519 70.9528 54.3026C70.8087 54.0439 71.1354 53.8194 71.2795 53.5979C71.6557 53.0209 72.0739 52.4704 72.4395 51.8874C72.9038 51.1473 73.5559 50.8295 74.4188 50.836C76.3875 50.8508 78.3561 50.8402 80.3248 50.8402C81.8605 50.8402 83.3962 50.8408 84.9319 50.8414C85.5107 50.8414 86.0754 50.9217 86.5869 51.207C87.5798 51.7616 88.0949 52.624 88.1433 53.7533C88.1693 54.3623 88.1522 54.9736 88.1522 55.5837C88.1522 58.0645 88.1522 60.5453 88.1522 63.0254C88.1522 63.2026 88.1551 63.3798 88.1492 63.557C88.1297 64.1589 88.0712 64.2262 87.4499 64.2274C84.9101 64.2327 82.3702 64.2298 79.831 64.2298V64.2309L79.8298 64.2315Z" fill="white"/>
<path d="M181.336 64.2312C179.013 64.2312 176.69 64.2312 174.367 64.2312C174.19 64.2312 174.012 64.233 173.835 64.2294C172.695 64.2064 172.106 63.6151 172.092 62.458C172.081 61.5331 172.089 60.6075 172.089 59.6825C172.089 59.1704 172.079 58.6583 172.094 58.1468C172.128 56.9986 172.813 56.2739 173.953 56.1693C174.129 56.1534 174.306 56.154 174.484 56.154C176.846 56.1528 179.208 56.151 181.571 56.154C182.693 56.1557 182.889 56.3512 182.893 57.451C182.894 57.8249 182.888 58.1988 182.882 58.5727C182.878 58.832 182.739 58.9732 182.482 58.9903C182.306 59.0027 182.129 59.008 181.951 59.008C180.495 59.0092 179.038 59.008 177.581 59.0098C177.384 59.0098 177.187 59.0098 176.992 59.0305C176.693 59.0612 176.51 59.2466 176.516 59.5367C176.525 59.9684 176.306 60.4528 176.723 60.8077C176.813 60.8839 176.986 60.8834 177.12 60.8834C179.443 60.8881 181.766 60.8916 184.089 60.8834C184.643 60.8816 184.733 60.7818 184.736 60.2112C184.745 58.7741 184.75 57.3371 184.735 55.9C184.725 54.9272 184.249 54.447 183.277 54.431C182.136 54.4121 180.994 54.4245 179.852 54.4239C177.588 54.4239 175.324 54.4257 173.06 54.4192C172.856 54.4186 172.581 54.5125 172.468 54.2839C172.357 54.0613 172.585 53.8882 172.7 53.7151C173.136 53.0601 173.592 52.4175 174.028 51.7618C174.432 51.1529 174.999 50.8505 175.719 50.8493C179.38 50.8446 183.042 50.815 186.703 50.8629C188.473 50.8859 189.622 52.141 189.629 53.913C189.641 57.0825 189.633 60.2519 189.633 63.4214C189.633 63.5395 189.626 63.6577 189.624 63.7758C189.619 64.0599 189.482 64.2147 189.19 64.22C188.994 64.2235 188.797 64.2306 188.6 64.2306C186.179 64.2312 183.758 64.2306 181.336 64.2306V64.2312Z" fill="white"/>
<path d="M96.0146 53.9331C96.2455 53.8014 96.3365 53.5994 96.4564 53.4299C96.8881 52.8192 97.3193 52.2078 97.7363 51.587C98.0848 51.069 98.5556 50.8275 99.1805 50.8298C101.169 50.8387 103.157 50.8115 105.145 50.8399C106.906 50.8653 108.088 52.0359 108.197 53.7979C108.21 53.994 108.207 54.1913 108.207 54.3879C108.208 57.3011 108.207 60.2148 108.207 63.1279C108.207 63.246 108.209 63.3642 108.206 63.4823C108.186 64.1604 108.135 64.2153 107.448 64.2182C106.287 64.2236 105.125 64.2241 103.964 64.2177C103.287 64.2141 103.231 64.1598 103.229 63.4652C103.224 61.1421 103.226 58.8196 103.226 56.4966C103.226 56.2603 103.231 56.0241 103.221 55.7878C103.183 54.9579 102.724 54.4866 101.895 54.4216C101.816 54.4157 101.737 54.4151 101.658 54.4151C99.985 54.4145 98.3116 54.411 96.6389 54.4157C96.0211 54.4175 95.9596 54.4777 95.9585 55.0932C95.9543 57.8096 95.9567 60.526 95.9555 63.2425C95.9555 63.8922 95.6277 64.2178 94.9721 64.2194C93.8894 64.2206 92.8067 64.2236 91.724 64.2177C91.0495 64.2141 90.9987 64.1562 90.978 63.4687C90.9769 63.4291 90.9769 63.3901 90.9769 63.3506C90.9769 57.8586 90.9757 52.3667 90.978 46.8742C90.978 46.0597 91.0347 46.0071 91.8528 46.003C92.916 45.9977 93.9786 46.0006 95.0418 46.003C95.1989 46.003 95.3566 46.0142 95.5131 46.0254C95.7907 46.0449 95.9472 46.1843 95.9472 46.4755C95.9472 46.6527 95.9549 46.8299 95.9555 47.0071C95.9561 49.0939 95.9555 51.1801 95.9579 53.2669C95.9579 53.4754 95.9283 53.6904 96.0134 53.9325L96.0146 53.9331Z" fill="white"/>
<path d="M119.206 57.5482C119.206 55.7378 119.206 53.9275 119.206 52.1171C119.206 51.9594 119.204 51.8023 119.207 51.6446C119.221 50.9098 119.279 50.8419 120.03 50.8407C124.26 50.8354 128.491 50.8354 132.721 50.8366C133.509 50.8366 134.247 51.0096 134.862 51.5377C135.576 52.152 135.914 52.9293 135.909 53.8779C135.896 56.3769 135.905 58.876 135.906 61.3745C135.906 62.0827 135.911 62.7915 135.903 63.4997C135.896 64.1541 135.841 64.2149 135.199 64.2191C134.038 64.2274 132.877 64.2262 131.716 64.2197C131.026 64.2161 130.975 64.1671 130.973 63.479C130.968 61.1766 130.971 58.8748 130.97 56.5724C130.97 56.3167 130.977 56.0598 130.953 55.8058C130.869 54.9115 130.399 54.4614 129.5 54.4213C129.126 54.4041 128.752 54.4142 128.378 54.4142C127.315 54.4136 126.253 54.4136 125.19 54.4142C124.531 54.4142 124.201 54.7349 124.2 55.3764C124.2 57.9936 124.2 60.6102 124.2 63.2274C124.2 63.8885 123.878 64.2201 123.234 64.222C122.132 64.2238 121.031 64.2268 119.929 64.2197C119.281 64.2155 119.213 64.1577 119.21 63.5085C119.201 61.521 119.207 59.534 119.207 57.5464H119.206V57.5482Z" fill="white"/>
<path d="M121.485 74.1152C121.448 72.9345 121.442 71.7532 121.644 70.5842C121.687 70.3332 121.744 70.0816 121.821 69.8388C122.171 68.7302 122.888 67.9859 124.007 67.6245C124.958 67.3173 125.942 67.2878 126.922 67.2358C127.906 67.1838 128.889 67.2606 129.87 67.3321C129.969 67.3392 130.066 67.3551 130.163 67.3717C132.085 67.7018 132.991 68.5506 133.146 70.8453C133.182 71.3692 133.074 71.4738 132.551 71.4891C132.06 71.5033 131.567 71.5033 131.076 71.4879C130.619 71.4738 130.586 71.433 130.487 70.9983C130.247 69.9481 129.91 69.6587 128.833 69.6073C127.948 69.5648 127.063 69.5677 126.178 69.6073C125.901 69.6197 125.631 69.6658 125.364 69.739C124.774 69.9009 124.42 70.2795 124.307 70.8813C124.237 71.2493 124.185 71.6185 124.185 71.9941C124.185 73.332 124.184 74.6698 124.182 76.0082C124.181 76.404 124.241 76.792 124.308 77.1801C124.428 77.8806 124.822 78.3112 125.531 78.4341C125.725 78.4677 125.918 78.5132 126.114 78.5221C126.999 78.5622 127.885 78.5752 128.769 78.5221C129.864 78.4571 130.274 78.0708 130.436 76.9923C130.477 76.7212 130.502 76.4442 130.5 76.1701C130.496 75.7478 130.406 75.658 129.971 75.6468C129.42 75.6326 128.869 75.642 128.318 75.6409C128.102 75.6409 127.885 75.6474 127.669 75.635C127.256 75.6113 127.172 75.5499 127.143 75.1583C127.117 74.8063 127.119 74.4495 127.143 74.0975C127.171 73.6946 127.257 73.6232 127.645 73.5895C127.802 73.5759 127.96 73.5806 128.117 73.5801C129.475 73.5795 130.833 73.5795 132.191 73.5801C132.368 73.5801 132.544 73.5866 132.722 73.5925C133.006 73.6019 133.163 73.746 133.16 74.0337C133.15 75.4288 133.271 76.8287 133.01 78.2143C132.781 79.4341 132.074 80.2226 130.87 80.5522C130.756 80.5835 130.642 80.6165 130.525 80.6349C128.509 80.9491 126.485 80.9975 124.478 80.6225C122.794 80.3076 121.94 79.3431 121.644 77.6455C121.542 77.0608 121.514 76.4719 121.49 75.8836C121.467 75.2947 121.485 74.7041 121.485 74.114V74.1152Z" fill="white"/>
<path d="M159.595 58.2139C159.595 56.6192 159.594 55.0244 159.595 53.4296C159.595 53.2329 159.591 53.0351 159.606 52.8396C159.693 51.6671 160.434 50.9199 161.606 50.8236C161.782 50.8089 161.961 50.8112 162.137 50.8112C165.327 50.8107 168.516 50.8089 171.705 50.8142C171.954 50.8142 172.289 50.7061 172.426 50.9382C172.593 51.2223 172.261 51.4249 172.118 51.6382C171.693 52.2773 171.234 52.8927 170.799 53.5265C170.4 54.1095 169.866 54.3977 169.153 54.3877C168.189 54.3741 167.224 54.3812 166.259 54.3865C165.035 54.3936 164.598 54.8313 164.594 56.0734C164.587 58.436 164.592 60.7987 164.591 63.1607C164.591 63.8525 164.245 64.1989 163.552 64.1997C162.508 64.2003 161.465 64.2026 160.422 64.1985C159.64 64.1955 159.598 64.1571 159.596 63.3521C159.592 61.6392 159.595 59.9263 159.595 58.2134V58.2139Z" fill="white"/>
<path d="M120.287 74.069C120.255 75.2473 120.387 76.4322 120.169 77.6035C120.111 77.9118 120.036 78.2195 119.938 78.5172C119.605 79.5213 118.914 80.1752 117.924 80.5225C117.419 80.6997 116.896 80.8119 116.366 80.8426C114.951 80.9241 113.534 80.972 112.125 80.7599C111.892 80.7251 111.66 80.6749 111.433 80.6129C110.299 80.3051 109.543 79.6046 109.209 78.4646C109.002 77.7606 108.907 77.0388 108.901 76.3093C108.888 74.7742 108.893 73.2397 108.898 71.7046C108.901 71.0921 108.991 70.489 109.13 69.893C109.406 68.7135 110.131 67.9645 111.289 67.6166C112.052 67.3875 112.839 67.3538 113.623 67.3012C114.805 67.2221 115.985 67.2729 117.153 67.4737C118.946 67.7826 119.848 68.6958 120.169 70.4748C120.242 70.883 120.289 71.2917 120.288 71.7069C120.286 72.4943 120.288 73.281 120.288 74.0684L120.287 74.069ZM117.627 74.0536C117.627 73.385 117.625 72.717 117.628 72.0483C117.629 71.6922 117.574 71.3443 117.508 70.9958C117.371 70.274 116.941 69.8139 116.224 69.7182C115.131 69.5723 114.025 69.5398 112.935 69.7448C112.094 69.9031 111.742 70.3425 111.655 71.2067C111.492 72.854 111.555 74.5061 111.579 76.1564C111.584 76.5285 111.632 76.9024 111.694 77.2697C111.807 77.939 112.182 78.3784 112.877 78.4847C113.972 78.6519 115.068 78.6489 116.163 78.4841C116.183 78.4812 116.202 78.4759 116.221 78.4723C116.911 78.33 117.326 77.9065 117.482 77.2266C117.571 76.8427 117.629 76.4546 117.627 76.0589C117.623 75.3903 117.626 74.7222 117.627 74.0536Z" fill="white"/>
<path d="M144.738 80.8763C143.874 80.8687 143.004 80.9407 142.147 80.7824C141.934 80.7434 141.722 80.6986 141.513 80.6442C140.277 80.3217 139.574 79.5137 139.338 78.2704C139.253 77.8215 139.25 77.3708 139.26 76.9183C139.267 76.6384 139.392 76.4694 139.687 76.4677C140.277 76.4641 140.867 76.4653 141.457 76.4647C141.784 76.4647 141.9 76.6508 141.912 76.9538C141.923 77.2084 141.952 77.4635 141.993 77.7146C142.069 78.1747 142.36 78.4641 142.803 78.5474C144.033 78.7777 145.269 78.7866 146.499 78.5444C147.015 78.4428 147.32 78.0908 147.386 77.5651C147.443 77.115 147.447 76.6614 147.391 76.2101C147.33 75.7311 147.079 75.4169 146.59 75.3106C145.874 75.1546 145.145 75.1393 144.42 75.1015C143.593 75.059 142.769 75.0076 141.953 74.8676C140.492 74.6166 139.737 73.88 139.436 72.4288C139.275 71.6503 139.262 70.8688 139.384 70.0815C139.605 68.6557 140.363 67.8276 141.774 67.5027C142.507 67.3338 143.257 67.3143 144.003 67.2836C144.967 67.244 145.932 67.2688 146.892 67.3692C147.887 67.4737 148.777 67.7915 149.344 68.6911C149.796 69.4064 149.864 70.2044 149.826 71.0224C149.816 71.254 149.69 71.4004 149.461 71.4046C148.832 71.4164 148.202 71.4152 147.573 71.4081C147.344 71.4057 147.214 71.2693 147.192 71.0384C147.184 70.9598 147.18 70.8812 147.173 70.8033C147.09 69.8718 146.805 69.5747 145.888 69.547C145.121 69.5239 144.353 69.5464 143.586 69.5493C143.527 69.5493 143.468 69.5552 143.409 69.5611C142.325 69.6775 142.015 70.0254 142.015 71.1246C142.015 72.3484 142.28 72.6509 143.502 72.7761C144.812 72.9107 146.134 72.9273 147.44 73.1269C149.263 73.4057 149.879 74.0608 150.087 75.8794C150.19 76.7701 150.139 77.6472 149.949 78.519C149.705 79.6448 149.024 80.3583 147.906 80.6531C147.428 80.7795 146.944 80.8645 146.451 80.8734C145.88 80.884 145.31 80.8757 144.739 80.8757L144.738 80.8763Z" fill="white"/>
<path d="M184.289 80.8326C183.425 80.8237 182.556 80.8976 181.699 80.7375C181.486 80.6979 181.274 80.6536 181.065 80.5993C179.829 80.2786 179.124 79.47 178.887 78.2284C178.801 77.7801 178.81 77.3282 178.816 76.8758C178.821 76.5964 178.948 76.4263 179.242 76.4239C179.832 76.4192 180.422 76.4198 181.012 76.4198C181.336 76.4198 181.46 76.6041 181.469 76.9071C181.476 77.1422 181.486 77.3802 181.525 77.6118C181.61 78.1097 181.902 78.4345 182.405 78.5214C183.598 78.7257 184.794 78.7364 185.984 78.5113C186.519 78.4103 186.856 78.0642 186.938 77.5161C187.005 77.0672 187.006 76.613 186.94 76.1629C186.865 75.6632 186.593 75.343 186.077 75.2474C185.359 75.1139 184.631 75.0967 183.905 75.0548C183.099 75.0087 182.294 74.9597 181.499 74.8221C180.018 74.5651 179.204 73.7382 178.956 72.2651C178.828 71.502 178.818 70.74 178.944 69.9746C179.152 68.7052 179.839 67.8701 181.098 67.5145C181.884 67.2918 182.692 67.2859 183.496 67.2422C184.478 67.1884 185.463 67.2316 186.443 67.3266C188.765 67.5517 189.458 69.0679 189.392 70.9178C189.381 71.2002 189.252 71.3656 188.963 71.3685C188.373 71.375 187.783 71.3744 187.192 71.3721C186.912 71.3709 186.752 71.2332 186.742 70.9421C186.739 70.8635 186.735 70.7849 186.727 70.7064C186.64 69.8417 186.362 69.5428 185.503 69.5091C184.698 69.4772 183.891 69.5044 183.084 69.5091C182.986 69.5091 182.888 69.5245 182.792 69.541C181.85 69.697 181.59 69.9988 181.57 70.9551C181.568 71.0531 181.569 71.1517 181.572 71.2504C181.597 72.2917 181.819 72.5776 182.869 72.7004C184.002 72.8333 185.142 72.8918 186.279 72.9916C186.867 73.043 187.45 73.1263 188.011 73.3295C188.817 73.6219 189.329 74.1771 189.504 75.0152C189.757 76.2255 189.755 77.4393 189.451 78.6413C189.198 79.6407 188.553 80.2786 187.569 80.5768C187.058 80.7316 186.534 80.8196 186.001 80.8302C185.431 80.8415 184.86 80.8326 184.29 80.8326H184.289Z" fill="white"/>
<path d="M166.539 74.0962C166.573 73.0159 166.479 71.9332 166.644 70.8553C166.964 68.7667 167.926 67.7555 170.012 67.4106C171.615 67.1454 173.232 67.1761 174.837 67.3751C176.337 67.5612 177.112 68.3237 177.438 69.7915C177.558 70.332 177.605 70.8789 177.596 71.4324C177.59 71.7377 177.473 71.9303 177.154 71.9356C176.564 71.945 175.974 71.9456 175.384 71.938C175.068 71.9338 174.935 71.7484 174.934 71.4406C174.933 71.1855 174.933 70.9268 174.897 70.6751C174.812 70.0815 174.554 69.7525 173.972 69.6811C172.819 69.5393 171.657 69.5068 170.505 69.7165C169.822 69.8411 169.449 70.2936 169.336 70.9598C169.274 71.3278 169.219 71.7023 169.218 72.0738C169.209 73.6272 169.143 75.1824 169.295 76.7335C169.32 76.9887 169.346 77.2415 169.432 77.486C169.593 77.9467 169.905 78.2509 170.371 78.3903C170.711 78.4919 171.061 78.5509 171.417 78.5498C172.007 78.5486 172.598 78.548 173.188 78.5462C173.465 78.545 173.736 78.4954 174.005 78.4346C174.595 78.3017 174.925 77.9231 175.01 77.3401C175.056 77.03 175.043 76.7122 175.07 76.3986C175.104 75.9993 175.177 75.8995 175.565 75.8824C176.134 75.857 176.706 75.8576 177.275 75.8806C177.661 75.8965 177.762 75.9975 177.764 76.3974C177.77 77.2043 177.734 78.0117 177.474 78.7878C177.144 79.7736 176.426 80.3241 175.45 80.5869C175.01 80.7057 174.559 80.7624 174.109 80.7824C172.658 80.848 171.205 81.0311 169.754 80.7695C167.834 80.4227 166.95 79.4995 166.668 77.5716C166.519 76.5533 166.543 75.5309 166.539 74.5085C166.539 74.3709 166.539 74.2332 166.539 74.095V74.0962Z" fill="white"/>
<path d="M116.172 57.6407C116.172 59.5485 116.174 61.4563 116.171 63.3635C116.17 64.2064 116.149 64.2265 115.315 64.2288C114.193 64.2324 113.072 64.2347 111.951 64.2271C111.321 64.2229 111.25 64.1621 111.249 63.5673C111.244 60.7942 111.247 58.021 111.249 55.2485C111.25 54.4564 111.603 53.838 112.256 53.4163C113.363 52.7016 114.484 52.0093 115.609 51.3224C116.063 51.0448 116.164 51.1127 116.168 51.6821C116.177 52.8622 116.172 54.0424 116.172 55.2219C116.172 56.0282 116.172 56.8344 116.172 57.6407H116.172Z" fill="white"/>
<path d="M154.499 75.2778C154.499 73.6848 154.501 72.0918 154.497 70.4994C154.494 69.7941 154.424 69.7268 153.714 69.7197C152.907 69.712 152.101 69.7262 151.295 69.7102C150.695 69.6984 150.618 69.6116 150.603 69.018C150.594 68.6642 150.591 68.3098 150.606 67.956C150.625 67.4693 150.711 67.3931 151.211 67.3641C151.309 67.3582 151.408 67.36 151.506 67.36C154.396 67.36 157.288 67.3582 160.178 67.3606C161.074 67.3612 161.111 67.3996 161.116 68.2856C161.118 68.5998 161.11 68.9146 161.103 69.2289C161.096 69.5401 160.928 69.6972 160.621 69.702C160.11 69.7096 159.599 69.7132 159.088 69.7161C158.695 69.7185 158.301 69.7091 157.908 69.7209C157.333 69.738 157.242 69.8378 157.222 70.4308C157.216 70.6074 157.219 70.7846 157.219 70.9618C157.219 73.9116 157.22 76.8613 157.218 79.8111C157.217 80.8051 157.201 80.8193 156.185 80.8217C155.812 80.8229 155.437 80.8317 155.065 80.8093C154.607 80.7815 154.515 80.6941 154.506 80.2322C154.49 79.3675 154.498 78.5016 154.497 77.6363C154.497 76.8495 154.497 76.0628 154.497 75.2766L154.499 75.2778Z" fill="white"/>
<path d="M99.3405 74.0594C99.3405 72.1716 99.3405 70.2839 99.3405 68.3967C99.3405 68.2 99.3446 68.0034 99.3535 67.8073C99.3659 67.5273 99.5124 67.3643 99.7965 67.3619C100.405 67.3572 101.015 67.3589 101.624 67.3684C101.881 67.3725 102.019 67.5267 102.034 67.7789C102.049 68.014 102.057 68.2502 102.057 68.4859C102.058 71.4351 102.057 74.3848 102.058 77.334C102.058 78.0821 102.442 78.4564 103.209 78.4568C104.546 78.4568 105.883 78.4568 107.22 78.4568C107.357 78.4568 107.496 78.4538 107.633 78.4621C108.14 78.4934 108.214 78.5608 108.229 79.0563C108.242 79.4491 108.242 79.8431 108.229 80.2359C108.213 80.6966 108.137 80.7651 107.667 80.8035C107.549 80.8129 107.431 80.8111 107.313 80.8111C104.974 80.8111 102.633 80.8135 100.294 80.8106C99.3712 80.8094 99.3423 80.7781 99.3411 79.8407C99.3387 77.914 99.3405 75.9867 99.3405 74.0599V74.0594Z" fill="white"/>
<path d="M137.636 74.1643C137.636 76.0916 137.638 78.019 137.634 79.9463C137.633 80.7631 137.58 80.8139 136.764 80.8204C136.313 80.824 135.86 80.8157 135.408 80.8074C135.099 80.8021 134.939 80.6409 134.931 80.3302C134.927 80.1536 134.919 79.9764 134.919 79.7998C134.918 76.0042 134.917 72.2081 134.919 68.4125C134.919 67.3641 134.924 67.3606 135.966 67.3594C136.36 67.3594 136.753 67.3641 137.146 67.3718C137.456 67.3777 137.613 67.5443 137.623 67.8508C137.629 68.0475 137.635 68.2442 137.635 68.4403C137.636 70.3481 137.635 72.2559 137.635 74.1631L137.636 74.1643Z" fill="white"/>
<path d="M164.83 74.1043C164.83 75.9932 164.83 77.8815 164.83 79.7705C164.83 79.9476 164.822 80.1248 164.827 80.3015C164.835 80.6098 164.699 80.7964 164.383 80.8017C163.794 80.8106 163.203 80.8106 162.613 80.8017C162.297 80.797 162.161 80.6092 162.17 80.3015C162.175 80.1638 162.166 80.0262 162.166 79.8886C162.166 76.0322 162.166 72.1764 162.166 68.32C162.166 67.3678 162.173 67.3619 163.114 67.3596C163.527 67.3584 163.941 67.3625 164.353 67.3714C164.659 67.3779 164.827 67.5297 164.823 67.8486C164.821 68.0258 164.829 68.2024 164.829 68.3796C164.829 70.2881 164.829 72.1965 164.829 74.1049L164.83 74.1043Z" fill="white"/>
<path d="M113.705 46.0056C114.333 46.0056 114.962 45.9903 115.59 46.0103C116.087 46.0263 116.162 46.1102 116.168 46.6164C116.179 47.4214 116.165 48.2265 116.174 49.0316C116.177 49.3363 116.061 49.5525 115.808 49.7203C114.465 50.608 113.129 51.5088 111.782 52.39C111.39 52.647 111.256 52.5737 111.253 52.1047C111.243 50.2589 111.244 48.4125 111.253 46.5667C111.256 46.1108 111.344 46.0257 111.82 46.0103C112.448 45.9908 113.077 46.0056 113.705 46.0056Z" fill="white"/>
</g>
<defs>
<clipPath id="clip0_455_530">
<rect width="231" height="127" fill="white"/>
</clipPath>
</defs>
</svg>
