<svg width="231" height="127" viewBox="0 0 231 127" fill="none" xmlns="http://www.w3.org/2000/svg">
<g clip-path="url(#clip0_580_652)">
<path d="M132.566 37.0625C131.961 39.1883 131.356 41.3151 130.749 43.4409C130.25 45.1914 129.765 46.9458 129.239 48.6874C129.051 49.3109 128.767 49.9059 128.599 50.5403C128.53 50.7994 128.29 50.9117 128.071 51.0259C127.198 51.4801 126.324 51.9312 125.452 52.3863C125.313 52.4592 125.15 52.5055 125.005 52.805C126.221 52.3243 127.321 51.8889 128.422 51.4535C128.444 51.4781 128.465 51.5017 128.486 51.5264C128.301 51.683 128.119 51.8426 127.931 51.9962C127.206 52.5863 126.489 53.1872 125.75 53.7576C125.348 54.0679 125.176 54.4382 125.201 54.9426C125.28 56.5138 125.327 58.087 125.412 59.6581C125.439 60.1724 125.261 60.5181 124.846 60.8205C123.587 61.7366 122.356 62.6922 121.102 63.6152C120.645 63.9521 120.272 64.3481 119.967 64.8258C119.292 65.8887 118.601 66.9428 117.88 68.0559C117.633 67.584 117.673 67.1201 117.606 66.6837C117.559 66.3763 117.495 66.0769 117.213 65.9301C116.14 65.3706 115.111 64.7204 113.952 64.3343C113.614 64.221 113.283 64.2259 112.941 64.3303C111.78 64.684 110.62 65.0357 109.454 65.3647C109.029 65.4839 108.863 65.6976 108.936 66.1458C109.038 66.7723 109.092 67.4077 109.168 68.049C108.957 68.0657 108.919 67.9101 108.87 67.8116C107.435 64.8869 105.117 62.8025 102.425 61.0964C101.597 60.5723 101.398 59.9241 101.49 58.9912C101.633 57.558 101.642 56.1119 101.703 54.6707C101.719 54.3082 101.52 54.058 101.252 53.8413C100.435 53.1823 99.6234 52.5174 98.8117 51.8524C98.6885 51.7519 98.5733 51.6416 98.4964 51.4564C99.5002 51.8554 100.505 52.2543 101.509 52.6533L101.577 52.5055C101.035 52.2199 100.513 51.8839 99.9475 51.6574C98.8166 51.2052 98.1448 50.5167 97.8118 49.2449C96.7322 45.1224 95.49 41.0432 94.3118 36.9473C94.3049 36.9227 94.3256 36.8892 94.3512 36.7956C94.9896 38.1767 95.6082 39.5105 96.2229 40.8452C97.1626 42.8853 98.1083 44.9234 99.0333 46.9714C99.251 47.4541 99.5731 47.7644 100.075 47.9348C101.177 48.3081 102.267 48.714 103.367 49.0962C103.914 49.2873 104.003 49.2203 104.021 48.6519C104.055 47.5703 104.071 46.4887 104.128 45.4081C104.155 44.9067 104.018 44.623 103.47 44.6259C103.21 44.6269 102.95 44.5668 102.689 44.5511C102.117 44.5166 101.603 44.3462 101.151 43.9778C100.287 43.2724 99.4195 42.573 98.5398 41.8884C98.1724 41.6018 98.0187 41.2619 98.0157 40.792C98.001 38.3491 97.9507 35.9061 97.9359 33.4631C97.933 32.9814 97.7951 32.7558 97.2779 32.7125C95.8584 32.5933 94.4428 32.4307 93.0283 32.2662C92.6204 32.2189 92.4402 32.3815 92.3279 32.7597C91.6964 34.8816 91.0473 36.9975 90.403 39.1154C90.3754 39.2051 90.3439 39.2928 90.2454 39.3676C90.3272 38.5303 90.4089 37.692 90.4897 36.8547C90.4424 36.8458 90.3951 36.837 90.3479 36.8281C89.9065 38.9529 89.4652 41.0777 89.0239 43.2025L88.955 43.1907C89.1333 41.8451 89.3086 40.4985 89.4918 39.1529C89.8376 36.6202 90.1893 34.0876 90.534 31.554C90.6276 30.8664 90.8227 30.7138 91.5526 30.7886C92.5791 30.894 93.6045 31.0004 94.631 31.1038C94.7413 31.1147 94.8526 31.1058 95.0034 31.1058C94.9176 30.8123 94.6822 30.8389 94.5216 30.7945C93.51 30.5177 92.4993 30.235 91.4768 30.0045C90.9133 29.8774 90.605 29.5868 90.4503 29.0293C89.8356 26.8178 89.1608 24.6221 88.5737 22.4037C88.2812 21.2965 87.8595 20.2986 86.9877 19.5312C86.7533 19.3253 86.7563 19.2101 87.0823 19.1352C89.6041 18.5511 92.124 17.959 94.6458 17.3749C95.1501 17.2577 95.5609 17.434 95.9461 17.7768C98.2009 19.7814 100.475 21.7634 102.722 23.7759C103.2 24.2044 103.682 24.3177 104.296 24.1857C106.987 23.6114 109.686 23.0706 112.378 22.5012C113.081 22.3525 113.765 22.3436 114.471 22.4913C117.195 23.0656 119.928 23.6055 122.651 24.1916C123.259 24.3226 123.707 24.2004 124.168 23.7877C126.429 21.7663 128.722 19.7804 130.982 17.7581C131.417 17.369 131.81 17.2508 132.393 17.3956C134.794 17.9915 137.208 18.5304 139.618 19.0919C140.199 19.2278 140.219 19.2505 139.812 19.6474C139.099 20.3429 138.672 21.1654 138.416 22.1348C137.812 24.4172 137.118 26.675 136.494 28.9515C136.326 29.5652 136.007 29.8883 135.38 30.0212C134.387 30.2321 133.411 30.5187 132.429 30.7778C132.262 30.8221 132.079 30.8428 131.952 30.9866C132.045 31.1669 132.189 31.1107 132.307 31.0989C133.317 30.9975 134.327 30.8921 135.337 30.7827C136.044 30.7069 136.298 30.8586 136.381 31.4752C136.917 35.4372 137.446 39.4001 137.927 43.3739C137.47 41.1693 137.013 38.9637 136.556 36.7591C136.433 37.6743 136.625 38.5608 136.622 39.4819C136.572 39.3282 136.519 39.1765 136.472 39.0219C135.85 36.966 135.217 34.9131 134.613 32.8523C134.47 32.3628 134.235 32.2239 133.726 32.2899C132.363 32.4652 130.992 32.5943 129.622 32.7105C129.087 32.7558 128.932 33.0277 128.936 33.5163C128.945 34.8451 128.939 36.174 128.925 37.5019C128.912 38.6485 128.871 39.7961 128.857 40.9427C128.852 41.3348 128.71 41.6284 128.399 41.8697C127.453 42.6036 126.507 43.3384 125.584 44.0989C125.112 44.488 124.552 44.4792 124.006 44.5461C122.621 44.7166 122.737 44.6486 122.817 45.8592C122.878 46.7901 122.848 47.7289 122.842 48.6637C122.839 49.1198 122.982 49.3021 123.46 49.1267C124.66 48.6874 125.868 48.2677 127.075 47.8452C127.483 47.7023 127.683 47.3832 127.853 47.0118C129.321 43.8064 130.796 40.6049 132.271 37.4014C132.331 37.2714 132.402 37.1463 132.468 37.0182C132.499 37.033 132.531 37.0478 132.563 37.0625H132.566ZM108.085 33.1075C108.068 33.073 108.051 33.0395 108.034 33.005C109.014 32.416 109.995 31.8269 110.975 31.2378C111.348 31.0142 111.697 30.765 111.772 30.2961C111.978 29.0342 112.186 27.7733 112.375 26.5095C112.481 25.8051 112.418 25.7569 111.733 25.9204C109.025 26.5676 106.313 27.201 103.612 27.8797C102.947 28.0472 102.471 27.9221 101.975 27.4492C100.004 25.5736 97.995 23.7375 96.0091 21.8767C95.619 21.5112 95.2112 21.3457 94.6714 21.4846C94.2823 21.5841 93.8744 21.6087 93.442 21.6708C93.5198 21.4097 93.704 21.3162 93.8528 21.2009C94.3571 20.8079 94.8723 20.4296 95.3797 20.0415C95.5195 19.9341 95.685 19.8415 95.5402 19.6061C95.2358 19.1125 94.6871 18.8702 94.1079 19.0111C93.1209 19.2514 92.1358 19.4987 91.1507 19.743C90.4848 19.9085 90.4592 19.9479 90.6601 20.6138C91.3802 22.9996 92.1141 25.3806 92.8184 27.7704C92.9642 28.2658 93.2351 28.5397 93.7247 28.6904C95.3846 29.2007 97.0326 29.7494 98.6905 30.2665C99.0973 30.3936 99.3013 30.5965 99.3574 31.0487C99.6263 33.2277 99.9406 35.4007 100.219 37.5787C100.281 38.0673 100.452 38.2998 100.978 38.153C101.97 37.8752 102.846 38.086 103.713 38.6672C104.773 39.3775 105.92 39.9567 107.016 40.6127C107.348 40.8117 107.595 40.8039 107.889 40.5389C108.668 39.8375 109.47 39.1598 110.267 38.4781C110.357 38.4013 110.424 38.2584 110.612 38.3156C110.57 38.5884 110.54 38.8623 110.485 39.1312C109.569 43.5611 108.655 47.9909 107.723 52.4179C107.619 52.9114 107.653 53.3419 107.9 53.7842C108.411 54.7003 108.952 55.6065 109.371 56.566C109.762 57.4624 110.274 58.016 111.321 57.8259C111.368 57.817 111.418 57.8397 111.467 57.8427C113.087 57.9333 114.707 57.9756 116.325 57.7973C116.733 57.752 117.005 57.5767 117.2 57.1955C117.775 56.0715 118.375 54.9603 118.988 53.8571C119.241 53.401 119.305 52.9518 119.198 52.4405C118.474 49.0085 117.764 45.5736 117.052 42.1396C116.786 40.8541 116.533 39.5666 116.243 38.1225C117.245 38.9913 118.131 39.739 118.991 40.5172C119.299 40.796 119.554 40.8157 119.905 40.6049C120.987 39.9557 122.121 39.3853 123.167 38.684C124.046 38.0939 124.935 37.8683 125.947 38.154C126.444 38.2939 126.622 38.0841 126.683 37.6102C126.953 35.4815 127.255 33.3557 127.52 31.226C127.587 30.6822 127.824 30.3729 128.353 30.2153C129.546 29.8597 130.727 29.4637 131.915 29.0904C134.24 28.3604 133.787 28.7298 134.461 26.5469C135.085 24.5265 135.674 22.4953 136.3 20.4749C136.43 20.0572 136.319 19.8592 135.91 19.7706C135.51 19.6839 135.115 19.5755 134.717 19.478C134.016 19.3066 133.319 19.1234 132.615 18.9717C132.213 18.885 131.44 19.281 131.353 19.6455C131.25 20.075 131.722 20.1144 131.936 20.3252C132.12 20.5074 132.353 20.6424 132.563 20.799C132.913 21.062 133.264 21.326 133.615 21.59C133.068 21.6097 132.582 21.5476 132.101 21.4551C131.683 21.3753 131.35 21.4649 131.029 21.7673C128.998 23.6754 126.943 25.5579 124.921 27.4758C124.437 27.9349 123.973 28.0432 123.325 27.8807C120.641 27.2049 117.945 26.5755 115.252 25.9332C114.486 25.751 114.444 25.7913 114.555 26.5518C114.708 27.5891 114.923 28.6215 115.001 29.6646C115.067 30.5315 115.507 31.024 116.218 31.4161C117.114 31.9116 117.979 32.4662 118.857 32.9962C117.542 32.812 116.276 32.5125 115.013 32.1963C114.757 32.1323 114.63 31.9047 114.524 31.6762C114.261 31.1117 113.996 30.5473 113.726 29.9858C113.671 29.8695 113.618 29.7149 113.477 29.7021C113.298 29.6863 113.243 29.8597 113.181 29.9887C112.903 30.564 112.628 31.1423 112.36 31.7225C112.236 31.9904 112.066 32.1845 111.763 32.2534C110.534 32.5342 109.309 32.8218 108.081 33.1075H108.085ZM118.953 44.7087C119.004 44.9806 119.03 45.1539 119.07 45.3244C119.662 47.8777 120.246 50.432 120.857 52.9813C120.979 53.4936 120.931 53.9329 120.67 54.39C120.216 55.1859 119.843 56.0321 119.36 56.8093C118.731 57.823 118.076 58.8208 117.007 59.468C116.209 59.9507 115.461 60.5132 114.687 61.0372C114.207 61.3633 114.269 61.8499 114.302 62.3257C114.332 62.7454 114.699 62.7572 114.982 62.8478C115.683 63.0734 116.397 63.2615 117.091 63.5078C117.542 63.6674 117.858 63.561 118.181 63.2241C119.246 62.112 120.298 60.9841 121.424 59.9349C122.266 59.1508 122.813 58.2751 122.932 57.1167C122.989 56.567 123.147 56.0232 123.292 55.4864C123.454 54.8864 123.378 54.3407 123.122 53.7733C121.842 50.9353 120.587 48.0865 119.32 45.2426C119.249 45.083 119.216 44.8968 118.953 44.7087ZM107.797 44.9274C107.74 44.9875 107.711 45.0081 107.698 45.0357C106.332 48.1062 104.965 51.1767 103.601 54.2481C103.485 54.5092 103.467 54.7781 103.533 55.0647C103.783 56.1503 104.021 57.2398 104.26 58.3283C104.322 58.609 104.459 58.8445 104.659 59.0484C106.047 60.4649 107.437 61.8805 108.817 63.3039C109.092 63.5876 109.38 63.6516 109.749 63.5295C110.464 63.294 111.188 63.0832 111.908 62.8596C112.631 62.635 112.702 62.5178 112.65 61.7692C112.626 61.4273 112.475 61.182 112.195 60.9998C111.66 60.6511 111.136 60.2827 110.591 59.9507C109.289 59.1558 108.259 58.1007 107.51 56.7738C107.059 55.974 106.653 55.1495 106.192 54.3555C105.917 53.8827 105.874 53.4266 106.003 52.8986C106.606 50.431 107.184 47.9565 107.768 45.4849C107.807 45.3165 107.913 45.149 107.796 44.9274H107.797Z" fill="#EEEEEE"/>
<path d="M89.9941 41.043C90.334 41.6035 90.4315 42.1206 90.594 42.6151C91.588 45.6374 92.5957 48.6546 93.5936 51.6749C93.7719 52.2157 94.0901 52.6678 94.425 53.115C95.3569 54.3592 96.2829 55.6073 97.2453 56.8997C97.002 56.9361 96.9163 56.7972 96.8148 56.7175C95.4239 55.6221 94.0398 54.5178 92.645 53.4263C92.3347 53.183 92.1307 52.8904 92.0145 52.5161C91.6559 51.3567 91.2865 50.2012 90.9161 49.0457C90.8728 48.9127 90.857 48.7019 90.6876 48.7049C90.5132 48.7078 90.5152 48.9167 90.4935 49.0526C90.1596 51.1242 89.8394 53.1968 89.4966 55.2664C89.4001 55.8486 89.6828 56.1747 90.1202 56.481C95.0712 59.9574 100.013 63.4465 104.965 66.9199C105.523 67.3109 105.925 67.7798 106.177 68.4182C106.615 69.5313 107.103 70.6257 107.574 71.726C107.676 71.9654 107.765 72.2215 108.084 72.2659C110.012 72.5368 111.928 73.0283 113.879 72.9249C115.493 72.8402 117.094 72.517 118.7 72.3043C119.036 72.2599 119.205 72.0551 119.329 71.7605C119.812 70.6119 120.324 69.4751 120.789 68.3187C121.012 67.7631 121.347 67.3464 121.838 67.0016C126.789 63.5253 131.723 60.0263 136.683 56.5618C137.278 56.1461 137.531 55.759 137.386 54.9955C137.017 53.0481 136.754 51.0809 136.437 49.1235C136.411 48.963 136.462 48.6842 136.247 48.6714C136.048 48.6605 136.042 48.9344 135.99 49.095C135.628 50.2189 135.274 51.3449 134.922 52.4718C134.816 52.8077 134.665 53.1072 134.381 53.3308C132.901 54.5001 131.425 55.6713 129.946 56.8406C129.887 56.8879 129.828 56.9598 129.684 56.8948C130.27 56.0988 130.799 55.2674 131.44 54.5365C132.805 52.9811 133.574 51.1577 134.156 49.1994C134.848 46.8746 135.658 44.5843 136.433 42.2851C136.56 41.9069 136.509 41.4577 136.927 41.0853C137.019 41.6429 137.111 42.1433 137.183 42.6457C137.836 47.1219 138.48 51.599 139.141 56.0732C139.219 56.6002 138.982 56.8889 138.59 57.1696C133.563 60.7661 128.549 64.3794 123.515 67.966C122.823 68.4595 122.306 69.023 121.998 69.8288C121.59 70.8996 121.083 71.9339 120.639 72.9919C120.459 73.4213 120.175 73.6676 119.719 73.7868C117.801 74.2892 115.888 74.8113 113.976 75.3353C113.632 75.4299 113.305 75.4309 112.961 75.3373C111.017 74.8073 109.071 74.2813 107.123 73.7671C106.701 73.6558 106.456 73.4066 106.289 73.0135C105.759 71.7605 105.203 70.5174 104.669 69.2663C104.508 68.891 104.27 68.6024 103.938 68.365C98.7525 64.6532 93.5739 60.9296 88.3786 57.2317C87.8752 56.8731 87.7235 56.4732 87.8092 55.8979C88.2564 52.8993 88.6948 49.8988 89.1312 46.8992C89.3814 45.1803 89.6208 43.4594 89.867 41.7404C89.8946 41.5473 89.936 41.3572 89.9931 41.044L89.9941 41.043Z" fill="#EEEEEE"/>
<path d="M105.302 87.3567C105.302 85.8151 105.299 84.2725 105.303 82.7308C105.305 82.0915 105.407 81.9861 106.044 81.9753C106.584 81.9654 107.125 81.9812 107.666 81.9753C108.174 81.9693 108.397 82.1811 108.392 82.717C108.374 85.0792 108.381 87.4414 108.39 89.8036C108.391 90.0814 108.262 90.4863 108.611 90.5897C109.09 90.7316 109.615 90.7582 110.099 90.5572C110.278 90.4833 110.278 90.2627 110.301 90.0814C110.627 87.5734 110.958 85.0654 111.281 82.5565C111.324 82.2245 111.499 82.0462 111.815 82.0196C112.944 81.926 114.075 81.9654 115.205 81.995C115.493 82.0028 115.634 82.1821 115.676 82.4678C115.934 84.2498 116.174 86.0338 116.469 87.8098C116.678 89.0678 116.77 90.3444 117.073 91.5876C117.161 91.9511 117.179 92.3323 117.212 92.7076C117.237 92.9982 117.057 93.1322 116.791 93.1352C116.07 93.143 115.349 93.144 114.628 93.1352C114.342 93.1312 114.152 92.9756 114.153 92.68C114.155 92.284 114.063 91.9107 113.97 91.5305C113.904 91.2596 113.833 91.0241 113.515 91.0872C113.215 91.1473 113.046 91.3738 113.052 91.695C113.059 92.0053 113.092 92.3156 113.092 92.6259C113.092 92.9372 112.917 93.1351 112.607 93.1322C110.201 93.1066 107.795 93.2051 105.387 93.0839C104.55 93.0416 103.692 93.1302 102.844 93.1509C102.368 93.1627 102.021 93.1352 102.027 92.4929C102.03 92.1708 101.85 91.8378 101.846 91.4881C101.843 91.2675 101.728 91.1039 101.497 91.0832C101.242 91.0606 101.085 91.2133 101.054 91.4497C101.015 91.758 101.016 92.0703 100.999 92.3816C100.967 92.9815 100.813 93.1381 100.223 93.143C99.616 93.1489 99.0092 93.1312 98.4033 93.148C97.9512 93.1608 97.7621 92.9598 97.8182 92.5234C97.9492 91.5039 98.0832 90.4853 98.2211 89.4677C98.5304 87.1833 98.8496 84.8999 99.1481 82.6136C99.2042 82.1811 99.4406 82.0068 99.8317 82.0019C100.897 81.9881 101.961 81.9841 103.026 81.9861C103.382 81.9861 103.533 82.1871 103.58 82.5407C103.836 84.4547 104.1 86.3687 104.384 88.2787C104.549 89.3948 104.811 90.4961 104.865 91.628C104.877 91.8684 105.068 92.0732 105.057 92.3313C105.053 92.4289 105.093 92.5392 105.221 92.5303C105.335 92.5224 105.392 92.422 105.395 92.3225C105.407 92.0279 105.426 91.7314 105.401 91.4389C105.287 90.0804 105.294 88.7191 105.3 87.3577L105.302 87.3567ZM113.526 86.8248C113.222 87.4001 113.194 87.9468 113.227 88.5033C113.239 88.6984 113.293 88.8727 113.526 88.8767C113.761 88.8806 113.823 88.7092 113.834 88.5122C113.863 87.9547 113.851 87.405 113.525 86.8238L113.526 86.8248ZM101.743 88.263C101.695 87.8857 101.521 87.4877 101.537 87.0573C101.54 86.9794 101.501 86.874 101.403 86.8947C101.339 86.9085 101.274 86.9883 101.239 87.0553C101.033 87.4532 101.138 87.8877 101.114 88.3063C101.101 88.5299 101.008 88.8619 101.379 88.8777C101.763 88.8944 101.711 88.5585 101.743 88.263ZM109.936 92.7579C110.146 92.1905 110.156 91.6339 109.936 91.0852V92.7579Z" fill="#EEEEEE"/>
<path d="M131.066 87.558C131.066 85.9513 131.064 84.3447 131.067 82.738C131.068 82.1115 131.18 81.9953 131.809 81.9756C132.284 81.9608 132.759 81.9667 133.235 81.9697C134.022 81.9736 134.082 82.0307 134.083 82.805C134.085 85.7888 134.079 88.7716 134.09 91.7554C134.091 92.0263 133.945 92.509 134.27 92.5208C134.627 92.5336 134.464 92.0509 134.501 91.7849C134.625 90.8629 134.75 89.9419 134.948 89.0307C135.03 88.6514 134.992 88.2475 135.038 87.8584C135.219 86.3335 135.408 84.8096 135.603 83.2857C135.642 82.9784 135.721 82.675 135.793 82.3736C135.858 82.0997 136.088 82.0317 136.322 82.014C137.434 81.9303 138.548 81.9638 139.66 81.9923C139.938 81.9992 140.111 82.1578 140.152 82.4474C140.322 83.6453 140.49 84.8441 140.669 86.041C140.972 88.0594 141.282 90.0758 141.589 92.0933C141.604 92.1908 141.619 92.2873 141.627 92.3858C141.687 93.1207 141.669 93.1414 140.946 93.1434C140.34 93.1443 139.733 93.1434 139.127 93.1414C138.825 93.1404 138.698 93.0606 138.67 92.6843C138.64 92.2765 138.546 91.8578 138.484 91.4431C138.45 91.2116 138.277 91.0678 138.029 91.0806C137.8 91.0934 137.667 91.2471 137.643 91.4599C137.608 91.7849 137.598 92.113 137.591 92.441C137.58 92.9217 137.365 93.1719 136.862 93.1443C136.014 93.098 135.161 93.0931 134.316 93.0823C133.477 93.0714 132.621 93.1 131.774 93.1493C131.231 93.1808 131.058 92.9542 131.066 92.4282C131.088 90.8058 131.073 89.1824 131.073 87.56H131.067L131.066 87.558ZM138.331 88.2633C138.296 87.956 138.261 87.5994 138.213 87.2438C138.196 87.1088 138.234 86.9049 138.032 86.897C137.862 86.8901 137.793 87.0655 137.774 87.2093C137.73 87.5649 137.725 87.9254 137.674 88.28C137.637 88.547 137.537 88.8445 137.927 88.8869C138.344 88.9322 138.32 88.5953 138.332 88.2643L138.331 88.2633Z" fill="#EEEEEE"/>
<path d="M91.407 89.1482C91.2287 89.3413 91.2849 89.5816 91.2819 89.7993C91.2701 90.6839 91.2652 91.5695 91.275 92.4541C91.28 92.9289 91.0731 93.1505 90.5953 93.1368C90.1865 93.1249 89.7748 93.1111 89.3669 93.1417C88.832 93.1811 88.6439 92.9634 88.6468 92.4314C88.6616 90.0545 88.6468 87.6785 88.6439 85.3015C88.6429 84.4326 88.6547 83.5638 88.639 82.695C88.6301 82.2034 88.8271 81.9591 89.3295 81.966C90.1481 81.9759 90.9677 81.971 91.7863 81.9778C92.3044 81.9828 92.531 82.2418 92.5714 82.7708C92.6315 83.5618 92.7763 84.345 93.0176 85.1823C93.2777 84.8799 93.321 84.5765 93.3545 84.277C93.4117 83.7569 93.4747 83.2348 93.4875 82.7117C93.5013 82.163 93.7683 81.9542 94.2894 81.9611C95.1247 81.9729 95.9601 81.9562 96.7954 81.966C97.4781 81.9739 97.5697 82.0931 97.5569 82.7945C97.5027 85.792 97.4544 88.7896 97.4042 91.7882C97.4012 91.9517 97.4032 92.1162 97.4062 92.2797C97.418 92.8498 97.1304 93.1351 96.5432 93.1358C96.1669 93.1358 95.7897 93.1299 95.4134 93.1358C94.9839 93.1417 94.7829 92.9407 94.7859 92.5083C94.7908 91.6562 94.7878 90.8031 94.778 89.951C94.776 89.7511 94.8154 89.5314 94.6489 89.3383C94.2244 90.0279 94.3751 90.7933 94.2441 91.5045C94.1741 91.8857 94.1328 92.2748 94.0608 92.66C93.9958 93.0048 93.8441 93.1239 93.5092 93.1397C92.0562 93.2047 92.0365 93.1752 91.9114 91.6542C91.8523 90.941 91.7163 90.2328 91.6031 89.5245C91.5814 89.3905 91.5843 89.225 91.406 89.1482H91.407Z" fill="#EEEEEE"/>
<path d="M119.659 100.584C119.659 98.7815 119.672 96.9788 119.651 95.1761C119.646 94.659 119.837 94.4876 120.345 94.4964C121.799 94.522 123.254 94.4659 124.702 94.6875C125.512 94.8116 126.298 95.4795 126.462 96.3237C126.63 97.1817 126.647 98.0427 126.528 98.9155C126.446 99.5321 126.131 99.8926 125.561 100.081C125.386 100.139 125.117 100.155 125.112 100.379C125.108 100.544 125.362 100.557 125.506 100.616C126.224 100.912 126.583 101.452 126.59 102.216C126.604 103.511 126.596 104.806 126.604 106.101C126.606 106.492 126.426 106.671 126.037 106.666C125.513 106.659 124.989 106.654 124.465 106.668C124.014 106.68 123.861 106.459 123.863 106.035C123.871 104.723 123.863 103.412 123.856 102.101C123.854 101.746 123.793 101.415 123.424 101.231C122.934 100.987 122.685 101.123 122.67 101.692C122.65 102.462 122.661 103.233 122.66 104.003C122.659 104.692 122.651 105.38 122.66 106.068C122.665 106.475 122.499 106.676 122.077 106.668C121.471 106.657 120.864 106.654 120.259 106.67C119.812 106.682 119.653 106.477 119.656 106.044C119.667 104.225 119.661 102.406 119.66 100.587L119.659 100.584ZM122.663 97.8762C122.663 98.1717 122.653 98.4672 122.666 98.7618C122.676 99.0021 122.648 99.2829 122.974 99.3538C123.278 99.4198 123.521 99.3105 123.696 99.0534C123.936 98.7027 123.937 97.1364 123.696 96.8035C123.502 96.5345 123.226 96.437 122.917 96.5158C122.621 96.5907 122.675 96.8704 122.664 97.0911C122.65 97.3531 122.661 97.6161 122.662 97.8782L122.663 97.8762Z" fill="#EEEEEE"/>
<path d="M118.221 101.006C118.154 101.879 118.357 103.16 118.102 104.429C117.829 105.784 116.979 106.556 115.673 106.8C114.872 106.95 114.043 106.965 113.241 106.718C111.932 106.314 111.135 105.359 111.108 103.976C111.064 101.749 111.057 99.5198 111.108 97.2925C111.147 95.5893 112.329 94.4644 114.031 94.4043C114.878 94.3747 115.733 94.3156 116.536 94.7146C117.739 95.3116 118.169 96.3597 118.214 97.6097C118.25 98.6076 118.221 99.6084 118.221 101.007V101.006ZM114.019 100.585C114.019 101.699 114.015 102.814 114.022 103.928C114.024 104.156 114.047 104.387 114.099 104.608C114.151 104.824 114.291 104.989 114.534 105.02C114.797 105.055 114.974 104.92 115.096 104.706C115.264 104.412 115.292 104.084 115.292 103.754C115.294 101.623 115.294 99.4922 115.292 97.3615C115.292 97.1152 115.282 96.869 115.181 96.6375C115.076 96.3951 114.914 96.2247 114.626 96.2326C114.315 96.2415 114.141 96.4286 114.075 96.7044C114.027 96.9084 114.019 97.1261 114.018 97.3378C114.013 98.4195 114.016 99.5011 114.017 100.583L114.019 100.585Z" fill="#EEEEEE"/>
<path d="M136.484 102.497C138.061 102.508 137.871 102.336 137.889 103.882C137.891 104.078 137.891 104.276 137.915 104.471C137.954 104.774 138.106 104.994 138.431 105.043C138.739 105.09 138.967 104.972 139.125 104.697C139.507 104.032 139.307 102.806 138.739 102.283C138.084 101.679 137.314 101.234 136.575 100.757C135.352 99.97 134.964 98.8352 135.009 97.4768C135.023 97.0532 135.062 96.6217 135.155 96.21C135.353 95.3421 135.967 94.7806 136.779 94.5905C138.062 94.2891 139.369 94.231 140.627 94.8092C141.27 95.1047 141.61 95.6081 141.712 96.2809C141.775 96.7015 141.79 97.129 141.821 97.5536C141.848 97.9141 141.692 98.1171 141.315 98.1181C140.742 98.1181 140.168 98.12 139.596 98.1181C139.273 98.1171 139.126 97.9496 139.115 97.6285C139.105 97.3349 139.09 97.0384 139.037 96.7498C138.988 96.4759 138.841 96.2641 138.519 96.2504C138.218 96.2375 138.029 96.3883 137.901 96.6454C137.567 97.3201 137.814 98.2875 138.475 98.7446C139.107 99.1819 139.75 99.6085 140.411 100.001C141.497 100.644 141.983 101.64 142.097 102.839C142.151 103.406 142.137 103.988 142.08 104.556C141.941 105.922 141.053 106.606 139.792 106.817C138.941 106.959 138.068 106.982 137.213 106.727C135.5 106.215 135.32 105.306 135.109 103.994C135.106 103.978 135.107 103.962 135.107 103.945C135.093 102.283 134.96 102.516 136.486 102.497H136.484Z" fill="#EEEEEE"/>
<path d="M98.3621 94.3828C99.0329 94.3936 99.6929 94.4084 100.339 94.6695C101.321 95.0655 101.733 95.821 101.784 96.809C101.851 98.1015 101.834 98.1015 100.544 98.1024C100.495 98.1024 100.446 98.1024 100.396 98.1024C99.5924 98.1024 99.1347 97.7035 99.0231 96.9056C98.9758 96.5598 98.8999 96.2367 98.4645 96.2318C98.0143 96.2269 97.8301 96.5234 97.7779 96.9194C97.6666 97.7715 97.8823 98.463 98.697 98.9092C99.2556 99.2156 99.7776 99.5879 100.309 99.9426C101.23 100.557 101.886 101.326 102.015 102.502C102.117 103.43 102.13 104.336 101.865 105.227C101.682 105.843 101.228 106.282 100.652 106.511C99.3225 107.042 97.9493 107.066 96.6303 106.511C95.6403 106.094 95.1507 105.268 95.1399 104.17C95.1192 102.171 94.9724 102.508 96.7308 102.475C96.8451 102.473 96.9613 102.486 97.0746 102.474C97.6065 102.419 97.8223 102.654 97.7947 103.185C97.772 103.626 97.7671 104.071 97.8804 104.506C97.9582 104.804 98.1237 105.004 98.4498 105.028C98.7886 105.054 99.0093 104.893 99.1403 104.588C99.4634 103.841 99.1876 102.692 98.5749 102.165C98.0262 101.693 97.4292 101.279 96.8086 100.923C95.2177 100.009 94.7813 98.594 95.0089 96.9007C95.266 94.9867 96.0984 94.3848 98.3601 94.3838L98.3621 94.3828Z" fill="#EEEEEE"/>
<path d="M130.337 90.1748C130.337 90.3226 130.332 90.4704 130.337 90.6171C130.4 92.2258 129.444 93.1044 127.927 93.2837C127.036 93.3891 126.143 93.3911 125.283 92.9813C124.323 92.5233 123.906 91.7647 123.877 90.7521C123.819 88.713 123.7 89.0341 125.459 88.9957C125.758 88.9888 126.216 89.1425 126.312 88.844C126.418 88.5189 125.925 88.445 125.698 88.2608C125.408 88.0234 125.078 87.8333 124.783 87.6008C123.705 86.7507 123.614 85.5332 123.753 84.3383C123.972 82.4637 124.766 81.849 126.668 81.8411C126.962 81.8401 127.258 81.8372 127.552 81.846C129.167 81.8953 130.029 82.7277 130.126 84.3245C130.199 85.5253 130.179 85.5489 128.999 85.5489C128.918 85.5489 128.836 85.5489 128.754 85.5489C128.41 85.546 128.058 85.5893 127.725 85.5302C127.201 85.4366 127.635 84.9175 127.4 84.6762C127.367 84.6427 127.36 84.5845 127.331 84.5471C127.194 84.3718 127.246 83.962 126.9 84.0585C126.584 84.1472 126.603 84.4959 126.615 84.7747C126.632 85.1746 126.795 85.4928 127.153 85.7095C127.559 85.9548 127.952 86.2227 128.348 86.4828C130.008 87.5733 130.338 88.186 130.336 90.1739L130.337 90.1748ZM127.535 90.4132C127.455 90.0389 127.418 89.6567 127.154 89.3582C127.044 89.2341 126.914 89.1159 126.731 89.1789C126.563 89.2361 126.536 89.3986 126.537 89.5444C126.54 89.8704 126.548 90.1985 126.586 90.5226C126.62 90.8161 126.688 91.1786 127.071 91.1304C127.429 91.085 127.495 90.7275 127.535 90.4132Z" fill="#EEEEEE"/>
<path d="M103.317 100.572C103.317 98.8518 103.317 97.1309 103.317 95.4109C103.317 94.4968 103.319 94.479 104.255 94.5007C105.511 94.5303 106.766 94.417 108.022 94.6593C109.148 94.877 109.744 95.3725 109.894 96.53C110.046 97.7032 110.054 98.8833 109.882 100.057C109.756 100.914 109.308 101.356 108.473 101.541C108.005 101.645 107.531 101.639 107.057 101.647C106.394 101.659 106.318 101.732 106.316 102.382C106.312 103.595 106.301 104.808 106.32 106.019C106.327 106.486 106.147 106.675 105.685 106.66C105.112 106.642 104.538 106.64 103.966 106.66C103.468 106.679 103.309 106.452 103.313 105.979C103.327 104.176 103.318 102.374 103.317 100.572ZM106.316 98.1081C106.316 98.4509 106.31 98.7937 106.318 99.1365C106.323 99.3749 106.271 99.6655 106.595 99.7403C106.931 99.8181 107.258 99.7108 107.371 99.3837C107.66 98.5484 107.645 97.6943 107.379 96.8501C107.356 96.7772 107.289 96.7142 107.232 96.658C107.037 96.4699 106.795 96.4364 106.549 96.5004C106.267 96.5733 106.325 96.8275 106.32 97.0294C106.31 97.388 106.317 97.7475 106.317 98.1071L106.316 98.1081Z" fill="#EEEEEE"/>
<path d="M88.6799 100.543C88.6799 98.7562 88.6927 96.9692 88.672 95.1823C88.6661 94.6691 88.8454 94.4868 89.3596 94.4977C90.6205 94.5243 91.8824 94.5272 93.1433 94.4967C93.6949 94.4829 93.8526 94.7055 93.8535 95.2217C93.8565 96.7545 93.8713 96.7663 92.3454 96.8156C91.8844 96.8303 91.6893 97.0224 91.6992 97.4716C91.709 97.9139 91.7051 98.3572 91.7031 98.7995C91.7011 99.2093 91.9041 99.3974 92.3109 99.3896C92.6222 99.3836 92.9335 99.3955 93.2448 99.3994C93.5659 99.4033 93.7294 99.561 93.7245 99.886C93.7245 99.9028 93.7245 99.9185 93.7255 99.9353C93.8102 101.449 93.8102 101.459 92.2882 101.52C91.8952 101.536 91.711 101.698 91.708 102.079C91.7041 102.652 91.7051 103.226 91.7061 103.8C91.7061 104.177 91.8706 104.373 92.2764 104.355C92.701 104.337 93.1285 104.356 93.5541 104.355C93.8792 104.353 94.0387 104.51 94.0378 104.835C94.0368 105.277 94.0378 105.721 94.0378 106.163C94.0378 106.48 93.89 106.659 93.5639 106.66C92.0893 106.662 90.6156 106.663 89.1409 106.66C88.6917 106.659 88.6809 106.334 88.6809 106.005C88.6819 104.186 88.6809 102.365 88.6809 100.546L88.6799 100.543Z" fill="#EEEEEE"/>
<path d="M113.444 9.9463C114.647 12.6168 115.814 15.2125 116.985 17.8072C117.135 18.1382 117.09 18.4357 116.908 18.7391C116.354 19.667 115.803 20.5959 115.263 21.5317C115.135 21.7534 114.983 21.8194 114.739 21.7672C113.88 21.582 113.017 21.58 112.159 21.7701C111.905 21.8263 111.769 21.7248 111.647 21.512C111.123 20.6048 110.599 19.6966 110.047 18.806C109.803 18.412 109.813 18.0584 109.999 17.6496C111.011 15.4302 112.009 13.2039 113.009 10.9787C113.155 10.6546 113.286 10.3236 113.445 9.94531L113.444 9.9463Z" fill="#EEEEEE"/>
<path d="M129.458 101.738C129.458 100.377 129.462 99.0178 129.456 97.6574C129.454 96.9166 129.365 96.8329 128.642 96.8191C127.894 96.8053 127.52 96.4277 127.52 95.6862C127.52 94.4116 127.434 94.5041 128.677 94.5041C130.314 94.5041 131.953 94.5189 133.589 94.4963C134.107 94.4894 134.306 94.6874 134.275 95.1898C134.254 95.5493 134.266 95.9108 134.269 96.2714C134.272 96.6339 134.104 96.823 133.733 96.8141C133.716 96.8141 133.7 96.8161 133.683 96.8161C132.325 96.8013 132.406 96.757 132.405 98.1607C132.404 100.733 132.406 103.306 132.403 105.878C132.403 106.599 132.337 106.66 131.615 106.665C131.123 106.668 130.632 106.647 130.141 106.67C129.626 106.693 129.447 106.462 129.453 105.964C129.469 104.556 129.458 103.146 129.458 101.738Z" fill="#EEEEEE"/>
<path d="M120.281 84.673C120.63 84.0691 120.632 83.5037 120.727 82.9668C120.871 82.1453 121.022 81.9916 121.844 81.9768C122.285 81.9689 122.729 81.9729 123.17 82.0014C123.596 82.028 123.776 82.2083 123.627 82.6841C122.996 84.6996 122.404 86.7268 121.776 88.7433C121.465 89.7431 121.618 90.7617 121.6 91.7724C121.571 93.3199 121.696 93.1407 120.218 93.1436C118.816 93.1466 118.77 93.2874 118.871 91.7911C119.019 89.6121 118.494 87.574 117.832 85.5418C117.518 84.5774 117.268 83.5914 116.978 82.6191C116.873 82.2704 116.987 82.0675 117.336 82.0212C117.972 81.9364 118.611 81.9502 119.248 82.0064C119.673 82.0438 119.738 82.3787 119.793 82.7137C119.897 83.3402 119.995 83.9677 120.281 84.6749V84.673Z" fill="#EEEEEE"/>
<path d="M112.657 70.5627C111.847 69.9647 111.058 69.7116 110.212 69.2456C111.001 69.355 111.536 69.0082 112.101 68.7659C112.209 68.7196 112.395 68.6851 112.336 68.5137C112.287 68.3748 112.122 68.3787 111.99 68.3945C111.714 68.429 111.439 68.4822 111.162 68.5117C110.406 68.5915 109.799 67.9286 109.932 67.1819C109.971 66.9593 110.116 66.846 110.306 66.7662C111.182 66.3968 112.06 66.0323 112.933 65.654C113.273 65.5063 113.595 65.522 113.929 65.6698C114.694 66.0067 115.463 66.3347 116.23 66.6687C116.922 66.9701 117.017 67.1661 116.823 67.8813C116.724 68.2438 116.131 68.5649 115.656 68.5206C115.299 68.4871 114.941 68.4605 114.583 68.4418C114.528 68.4388 114.471 68.493 114.299 68.5777C115.174 68.9146 115.851 69.5648 116.817 69.1875C116.143 69.5017 115.466 69.8091 114.798 70.1342C114.651 70.2051 114.38 70.2425 114.445 70.4622C114.503 70.6592 114.759 70.5883 114.928 70.5833C115.205 70.5755 115.481 70.5331 115.743 70.5055C114.691 71 112.742 71.0148 110.983 70.5065C111.559 70.5498 112.039 70.671 112.657 70.5627Z" fill="#EEEEEE"/>
<path d="M119.28 13.5391C119.836 14.8985 120.347 16.2805 120.966 17.6104C121.376 18.49 121.445 19.2988 121.075 20.2001C120.804 20.8641 120.647 21.5763 120.458 22.2717C120.368 22.5998 120.207 22.716 119.855 22.6717C118.96 22.5594 118.076 22.3919 117.195 22.1998C116.63 22.0767 116.606 22.0156 116.911 21.5398C117.177 21.1261 117.408 20.6828 117.722 20.3085C118.482 19.4042 118.694 18.3423 118.781 17.2085C118.876 15.987 119.045 14.7704 119.182 13.5519C119.215 13.5479 119.246 13.543 119.279 13.5391H119.28Z" fill="#EEEEEE"/>
<path d="M107.718 13.5391C107.839 14.5586 107.961 15.5782 108.08 16.5977C108.156 17.2488 108.228 17.9 108.3 18.5511C108.345 18.955 108.533 19.2968 108.751 19.6288C109.184 20.2858 109.609 20.9478 110.047 21.6019C110.271 21.9348 110.186 22.1023 109.803 22.1722C108.885 22.3377 107.968 22.5141 107.05 22.6825C106.773 22.7337 106.576 22.6589 106.488 22.3545C106.204 21.3625 105.906 20.3735 105.613 19.3835C105.528 19.0959 105.488 18.8161 105.605 18.5196C106.254 16.8568 107.017 15.2403 107.717 13.5391H107.718Z" fill="#EEEEEE"/>
<path d="M99.2861 110.777C99.2861 110.122 99.2979 109.467 99.2821 108.812C99.2713 108.367 99.4762 108.201 99.9037 108.196C100.447 108.191 100.984 108.245 101.514 108.344C101.986 108.433 102.269 108.745 102.275 109.235C102.289 110.331 102.292 111.429 102.273 112.526C102.264 113.013 101.918 113.35 101.426 113.372C100.887 113.398 100.346 113.376 99.8062 113.386C99.424 113.393 99.2821 113.201 99.2851 112.84C99.292 112.153 99.2871 111.465 99.2861 110.777ZM100.508 110.735C100.508 111.227 100.503 111.718 100.511 112.211C100.513 112.369 100.503 112.574 100.726 112.59C100.949 112.606 101.054 112.435 101.056 112.241C101.065 111.258 101.063 110.275 101.056 109.292C101.055 109.112 100.948 108.964 100.759 108.959C100.535 108.953 100.512 109.142 100.51 109.31C100.504 109.785 100.508 110.26 100.507 110.736L100.508 110.735Z" fill="#EEEEEE"/>
<path d="M141.728 110.827C141.728 111.499 141.73 112.171 141.728 112.844C141.728 113.107 141.681 113.351 141.348 113.37C141.038 113.387 140.71 113.434 140.589 113.017C140.44 112.499 140.277 111.984 140.117 111.468C140.083 111.36 140.048 111.223 139.897 111.252C139.752 111.281 139.762 111.419 139.762 111.532C139.764 111.974 139.772 112.417 139.774 112.86C139.775 113.191 139.64 113.386 139.274 113.377C138.923 113.368 138.832 113.163 138.832 112.861C138.834 111.484 138.833 110.106 138.832 108.728C138.832 108.453 138.912 108.241 139.228 108.21C139.55 108.179 139.81 108.242 139.92 108.602C140.072 109.104 140.238 109.601 140.408 110.098C140.449 110.215 140.483 110.393 140.641 110.375C140.806 110.357 140.784 110.177 140.787 110.052C140.797 109.61 140.797 109.167 140.798 108.724C140.798 108.42 140.903 108.211 141.248 108.212C141.58 108.213 141.72 108.403 141.722 108.712C141.726 109.417 141.723 110.122 141.723 110.827H141.727H141.728Z" fill="#EEEEEE"/>
<path d="M135.628 110.735C135.628 111.194 135.649 111.653 135.623 112.111C135.574 112.979 135.029 113.439 134.114 113.421C133.204 113.402 132.735 112.962 132.721 112.074C132.706 111.14 132.705 110.206 132.726 109.274C132.743 108.512 133.196 108.09 133.975 108.054C134.915 108.011 135.527 108.404 135.603 109.164C135.655 109.683 135.613 110.211 135.613 110.735C135.618 110.735 135.623 110.735 135.627 110.735H135.628ZM134.479 110.715C134.479 110.715 134.481 110.715 134.482 110.715C134.482 110.225 134.49 109.736 134.478 109.247C134.473 109.035 134.448 108.784 134.163 108.777C133.876 108.77 133.841 109.027 133.825 109.234C133.753 110.227 133.76 111.222 133.821 112.215C133.834 112.418 133.86 112.687 134.155 112.663C134.42 112.642 134.467 112.397 134.473 112.182C134.486 111.694 134.477 111.204 134.477 110.715H134.479Z" fill="#EEEEEE"/>
<path d="M110.773 110.762C110.773 110.107 110.778 109.452 110.771 108.798C110.766 108.387 110.957 108.18 111.366 108.205C111.888 108.238 112.409 108.282 112.929 108.336C113.156 108.36 113.361 108.491 113.408 108.708C113.543 109.318 113.771 109.955 113.199 110.487C113.1 110.579 113.048 110.706 113.156 110.78C113.665 111.127 113.512 111.651 113.536 112.125C113.55 112.386 113.536 112.649 113.53 112.91C113.522 113.228 113.362 113.384 113.036 113.383C112.702 113.383 112.563 113.212 112.558 112.897C112.551 112.422 112.552 111.948 112.532 111.474C112.524 111.258 112.469 110.999 112.205 111.002C111.907 111.005 111.944 111.291 111.938 111.492C111.925 111.967 111.927 112.442 111.927 112.917C111.927 113.285 111.716 113.388 111.387 113.388C111.056 113.388 110.786 113.325 110.782 112.924C110.775 112.204 110.78 111.484 110.78 110.762C110.778 110.762 110.776 110.762 110.775 110.762H110.773ZM111.923 109.53C111.985 109.755 111.835 110.125 112.213 110.14C112.531 110.152 112.535 109.828 112.537 109.587C112.54 109.329 112.546 108.991 112.217 108.972C111.856 108.951 111.974 109.309 111.922 109.53H111.923Z" fill="#EEEEEE"/>
<path d="M118.204 108.181C118.715 108.074 119.066 108.308 119.153 108.918C119.339 110.227 119.529 111.537 119.709 112.847C119.741 113.072 119.778 113.343 119.431 113.357C119.133 113.369 118.783 113.466 118.653 113.044C118.63 112.966 118.614 112.884 118.585 112.808C118.504 112.586 118.409 112.37 118.111 112.41C117.847 112.446 117.768 112.645 117.753 112.868C117.731 113.205 117.581 113.368 117.229 113.372C116.692 113.379 116.55 113.243 116.62 112.702C116.777 111.486 116.937 110.272 117.101 109.056C117.215 108.206 117.247 108.181 118.204 108.182V108.181ZM118.463 110.902C118.431 110.564 118.394 110.157 118.353 109.752C118.343 109.656 118.333 109.537 118.212 109.522C118.091 109.507 118.044 109.618 118.028 109.711C117.941 110.225 117.847 110.739 117.79 111.256C117.767 111.472 117.9 111.632 118.148 111.624C118.376 111.617 118.45 111.463 118.462 111.264C118.468 111.166 118.462 111.068 118.462 110.901L118.463 110.902Z" fill="#EEEEEE"/>
<path d="M93.9872 110.808C93.9872 110.12 93.9931 109.432 93.9853 108.744C93.9803 108.372 94.1567 108.2 94.5202 108.203C94.8965 108.206 95.2728 108.201 95.6491 108.216C95.8845 108.225 96.0589 108.334 96.0786 108.597C96.1002 108.88 95.9535 109.035 95.6826 109.054C95.2994 109.082 95.1309 109.271 95.1378 109.656C95.1447 110.005 95.258 110.212 95.6461 110.221C95.9091 110.227 95.9978 110.419 95.9978 110.663C95.9978 110.907 95.9081 111.097 95.6451 111.104C95.0955 111.119 95.1467 111.508 95.1358 111.87C95.125 112.258 95.2541 112.494 95.6973 112.481C96.0067 112.472 96.1249 112.677 96.1101 112.969C96.0963 113.253 95.9308 113.373 95.6619 113.381C95.6451 113.381 95.6294 113.383 95.6126 113.383C93.7045 113.376 94.0119 113.601 93.9853 111.888C93.9794 111.528 93.9853 111.168 93.9853 110.808H93.9882H93.9872Z" fill="#EEEEEE"/>
<path d="M106.515 113.386C106.368 113.386 106.22 113.378 106.074 113.388C105.662 113.414 105.473 113.237 105.476 112.814C105.484 111.472 105.483 110.13 105.478 108.787C105.476 108.406 105.632 108.199 106.028 108.203C106.405 108.207 106.781 108.2 107.156 108.212C107.421 108.22 107.587 108.348 107.589 108.637C107.591 108.896 107.46 109.034 107.208 109.055C106.888 109.083 106.635 109.164 106.623 109.564C106.612 109.94 106.693 110.196 107.134 110.235C107.367 110.256 107.429 110.466 107.424 110.683C107.419 110.904 107.33 111.08 107.096 111.102C106.513 111.157 106.644 111.592 106.625 111.951C106.605 112.369 106.847 112.48 107.213 112.482C107.495 112.483 107.614 112.661 107.612 112.934C107.61 113.209 107.483 113.369 107.202 113.379C106.974 113.387 106.744 113.381 106.516 113.381V113.388L106.515 113.386Z" fill="#EEEEEE"/>
<path d="M88.8565 110.785C88.8565 110.114 88.8614 109.442 88.8546 108.772C88.8506 108.381 89.0338 108.198 89.42 108.203C89.7963 108.208 90.1726 108.202 90.5479 108.215C90.7863 108.223 90.9528 108.333 90.9695 108.599C90.9873 108.879 90.8582 109.038 90.5804 109.057C90.2445 109.082 90.0199 109.203 90.015 109.587C90.0101 109.938 90.0849 110.192 90.5026 110.233C90.7361 110.257 90.8021 110.458 90.7991 110.676C90.7961 110.896 90.7144 111.08 90.4809 111.101C90.0485 111.142 90.013 111.435 90.011 111.767C90.0091 112.16 90.0071 112.553 90.0002 112.945C89.9933 113.325 89.7461 113.389 89.4328 113.389C89.1195 113.389 88.8674 113.323 88.8634 112.946C88.8575 112.226 88.8614 111.506 88.8614 110.786C88.8595 110.786 88.8575 110.786 88.8565 110.786V110.785Z" fill="#EEEEEE"/>
<path d="M123.278 111.223C123.278 110.715 123.277 110.208 123.278 109.701C123.279 109.377 123.199 109.122 122.825 109.052C122.572 109.004 122.483 108.822 122.507 108.578C122.533 108.313 122.713 108.212 122.946 108.209C123.584 108.202 124.222 108.201 124.859 108.209C125.096 108.212 125.27 108.319 125.287 108.587C125.303 108.834 125.2 109.015 124.948 109.045C124.505 109.096 124.453 109.398 124.452 109.751C124.452 110.733 124.444 111.715 124.451 112.697C124.454 113.109 124.372 113.389 123.861 113.391C123.341 113.394 123.273 113.103 123.28 112.695C123.29 112.205 123.282 111.713 123.282 111.223H123.277H123.278Z" fill="#EEEEEE"/>
<path d="M129.46 110.806C129.46 111.46 129.453 112.113 129.463 112.767C129.469 113.189 129.313 113.397 128.859 113.392C128.428 113.388 128.282 113.192 128.284 112.791C128.292 111.467 128.291 110.143 128.284 108.82C128.282 108.427 128.42 108.203 128.852 108.203C129.297 108.203 129.463 108.43 129.46 108.845C129.455 109.499 129.459 110.153 129.46 110.807V110.806Z" fill="#EEEEEE"/>
<path d="M123.852 30.264C122.402 30.0168 120.951 29.7695 119.5 29.5242C119.294 29.4898 118.984 29.3607 118.901 29.5262C118.779 29.7695 119.115 29.8808 119.27 30.0207C119.716 30.4246 120.186 30.8029 120.613 31.2422C119.269 30.594 117.708 30.4118 116.603 29.2701C116.29 28.946 116.328 28.8426 116.698 28.6052C117.424 28.1402 118.093 28.1106 118.905 28.4318C120.534 29.076 122.207 29.605 123.861 30.1823C123.858 30.2098 123.855 30.2374 123.852 30.264Z" fill="#EEEEEE"/>
<path d="M103.371 30.0713C105.148 29.4517 106.921 28.8222 108.703 28.2174C109.426 27.9721 109.936 28.5267 110.515 28.7917C110.691 28.8724 110.567 29.0232 110.468 29.1079C110.133 29.3955 109.822 29.7304 109.445 29.9472C108.479 30.5018 107.395 30.7776 106.317 31.1214C106.775 30.7421 107.237 30.3668 107.69 29.9816C107.818 29.8723 108.064 29.7787 107.973 29.5778C107.897 29.4123 107.678 29.5187 107.523 29.5423C106.149 29.7482 104.774 29.957 103.4 30.1649C103.39 30.1333 103.38 30.1028 103.371 30.0713Z" fill="#EEEEEE"/>
<path d="M106.643 36.7897C107.426 35.714 108.051 34.4629 109.589 34.2945C109.909 34.259 110.215 34.1083 110.53 34.0167C111.349 33.7793 112.194 33.5872 112.704 32.7617C112.622 33.5872 112.591 34.4294 111.904 34.9771C111.244 35.5022 110.515 35.9396 109.769 36.3622C110.175 35.9208 110.583 35.4805 110.986 35.0363C111.071 34.9437 111.218 34.8422 111.136 34.7063C111.059 34.5802 110.899 34.6481 110.771 34.6639C109.433 34.8264 108.232 35.2756 107.285 36.2863C107.102 36.4823 106.858 36.6232 106.644 36.7887L106.643 36.7897Z" fill="#EEEEEE"/>
<path d="M114.244 32.8242C114.991 33.8477 116.174 33.9236 117.223 34.2102C118.29 34.5018 119.134 35.0091 119.744 35.9292C119.96 36.2542 120.233 36.5419 120.429 36.9044C119.885 36.4591 119.325 36.0326 118.803 35.5647C117.997 34.8426 116.973 34.8387 116.002 34.6555C115.924 34.6407 115.827 34.6436 115.799 34.7451C115.77 34.8545 115.851 34.9293 115.915 34.9993C116.289 35.4041 116.665 35.807 117.001 36.2572C116.208 35.7755 115.363 35.3509 114.735 34.6771C114.302 34.2112 114.315 33.498 114.244 32.8252V32.8242Z" fill="#EEEEEE"/>
</g>
<defs>
<clipPath id="clip0_580_652">
<rect width="231" height="127" fill="white"/>
</clipPath>
</defs>
</svg>
