<?xml version="1.0" encoding="utf-8"?>
<!-- Generator: Adobe Illustrator 26.0.1, SVG Export Plug-In . SVG Version: 6.00 Build 0)  -->
<svg version="1.1" id="Layer_1" xmlns="http://www.w3.org/2000/svg" xmlns:xlink="http://www.w3.org/1999/xlink" x="0px" y="0px"
	 viewBox="0 0 63 63" style="enable-background:new 0 0 63 63;" xml:space="preserve">
<style type="text/css">
	.st0{clip-path:url(#SVGID_00000022537439425648830030000014902817170808353712_);}
	.st1{fill:#5A5A5A;}
</style>
<g>
	<g>
		<defs>
			<rect id="SVGID_1_" y="13" width="37" height="37"/>
		</defs>
		<clipPath id="SVGID_00000159435577738317764270000007630368572959504291_">
			<use xlink:href="#SVGID_1_"  style="overflow:visible;"/>
		</clipPath>
		<g style="clip-path:url(#SVGID_00000159435577738317764270000007630368572959504291_);">
			<g>
				<path class="st1" d="M21.2,50h-5.8l0-0.4c-0.1-0.8-0.2-1.6-0.4-2.4c0-0.1-0.1-0.2-0.2-0.2c-0.7-0.3-1.7-0.6-2.6-0.9
					c-0.1,0-0.2,0-0.3,0.1c-0.4,0.3-0.8,0.7-1.2,1.1l-0.7,0.7l-4.6-3.4l0.2-0.6l0.9-1.9c0.1-0.1,0.1-0.2-0.2-0.4l-0.1-0.1
					C6,41.6,5.8,41.3,5.6,41c-0.3-0.4-0.6-0.8-0.9-1.3c-0.1-0.1-0.3-0.1-0.6-0.1l-2.5,0.3l-1.8-5.4L0,34.3c0.1-0.1,0.3-0.2,0.4-0.2
					L0.5,34l1.2-0.6c0.7-0.2,0.9-0.6,0.8-1.2c-0.1-0.4,0-0.9,0-1.3c0-0.2,0-0.4,0-0.6v-0.1c0-0.3,0-0.3-0.3-0.4
					c-0.5-0.3-1-0.6-1.6-0.9L0,28.6L1.8,23l0.8,0.2c0.5,0,1,0.1,1.5,0.2l0.2,0c0.2,0,0.3,0,0.5-0.2c0.2-0.3,0.5-0.7,0.8-1
					c0.2-0.3,0.5-0.6,0.7-1L6.5,21c0.1-0.1,0.1-0.2,0-0.5c0,0-0.1-0.2-0.2-0.3c-0.2-0.3-0.4-0.7-0.5-1l-0.6-1l4.7-3.4l1.8,1.8
					c0.2,0.2,0.2,0.2,0.5,0.1c0.4-0.2,0.9-0.3,1.4-0.5c0.3-0.1,0.7-0.2,1.1-0.3c0.1,0,0.2-0.1,0.2-0.3c0-0.3,0.1-0.6,0.2-1
					c0.1-0.3,0.1-0.6,0.2-1l0.2-0.6h5.7l0,0.4c0.1,0.8,0.2,1.6,0.4,2.4c0,0.1,0.1,0.2,0.2,0.2c0.2,0.1,0.4,0.1,0.6,0.2
					c0.3,0.1,0.6,0.2,0.9,0.3c0.4,0.2,0.7,0.3,1,0.4c0.3,0.1,0.4-0.1,0.4-0.1c0.6-0.5,1.1-1,1.7-1.6l0.2-0.2l4.6,3.4L31.3,19
					c-0.2,0.3-0.3,0.5-0.4,0.8c-0.1,0.3-0.3,0.6-0.4,0.8c-0.1,0.2-0.1,0.4,0.1,0.7c0.6,0.7,1,1.3,1.4,1.9c0.2,0.2,0.4,0.3,0.7,0.2
					c0.3-0.1,0.5-0.1,0.8-0.1c0.2,0,0.5,0,0.7-0.1c0.1,0,0.2,0,0.3,0c0.1,0,0.2-0.1,0.4-0.1h0.3l1.8,5.5L36,29
					c-0.2,0.1-0.5,0.3-0.8,0.4c-0.3,0.1-0.5,0.3-0.8,0.4c-0.2,0.1-0.2,0.3-0.2,0.4v2.5c0,0.3,0,0.3,0.3,0.4c0.3,0.2,0.6,0.3,0.9,0.5
					c0.3,0.1,0.5,0.3,0.8,0.4l0.6,0.4L35.1,40l-0.9-0.2c-0.3-0.1-0.5-0.1-0.7-0.1c-0.2,0-0.5,0-0.7-0.1c-0.2,0-0.5,0-0.9,0.5
					c-0.4,0.7-0.8,1.3-1.3,1.9l-0.2,0.2c-0.1,0.1-0.1,0.1,0,0.3c0,0.1,0.1,0.2,0.2,0.3c0.2,0.3,0.4,0.7,0.5,1l0.6,1l-4.6,3.4
					l-0.7-0.5c-0.3-0.3-0.6-0.6-0.8-0.9c-0.1-0.1-0.3-0.3-0.4-0.4c-0.2-0.1-0.3-0.2-0.5-0.1c-0.9,0.3-1.8,0.6-2.5,0.8
					c-0.1,0-0.1,0.1-0.2,0.3c0,0.2-0.1,0.5-0.1,0.9c-0.1,0.3-0.1,0.7-0.2,1L21.2,50z M16.2,49.2h4.4l0-0.1c0-0.3,0.1-0.6,0.1-0.9
					c0-0.3,0.1-0.6,0.1-0.9c0.1-0.4,0.3-0.8,0.8-0.9c0.7-0.2,1.6-0.5,2.5-0.8c0.5-0.2,0.9-0.1,1.3,0.3c0.1,0.1,0.3,0.3,0.4,0.4
					c0.3,0.3,0.6,0.6,0.9,0.9l0.1,0.1l3.6-2.6l-0.2-0.4c-0.2-0.4-0.3-0.7-0.5-1c-0.1-0.1-0.2-0.3-0.2-0.4c-0.1-0.4-0.2-0.8,0.2-1.2
					l0.2-0.2c0.4-0.5,0.8-1.1,1.2-1.8c0.7-0.8,1.2-0.8,1.5-0.8l0.1,0c0.2,0,0.5,0.1,0.7,0.1c0.3,0,0.5,0.1,0.8,0.1l0.2,0l1.4-4.3
					l0,0c-0.3-0.1-0.5-0.3-0.8-0.4c-0.3-0.1-0.5-0.3-0.8-0.4c-0.5-0.3-0.7-0.6-0.7-1.2v-2.5c0-0.5,0.2-0.9,0.7-1.1
					c0.2-0.1,0.5-0.3,0.7-0.4c0.3-0.1,0.5-0.3,0.8-0.4l0.2-0.1L34.5,24c-0.1,0-0.2,0-0.3,0c-0.2,0-0.4,0.1-0.7,0.1
					c-0.2,0-0.5,0-0.7,0.1c-0.6,0.1-1.1-0.1-1.5-0.6c-0.4-0.6-0.8-1.2-1.4-1.9c-0.4-0.5-0.4-1-0.2-1.5c0.2-0.3,0.3-0.5,0.4-0.8
					c0.1-0.3,0.3-0.6,0.4-0.8l0-0.1L27,15.9c-0.5,0.5-1,0.9-1.5,1.4c-0.2,0.2-0.6,0.4-1.2,0.3c-0.4-0.1-0.7-0.2-1.2-0.4
					c-0.2-0.1-0.5-0.2-0.8-0.3c-0.2-0.1-0.5-0.1-0.7-0.2c-0.3-0.2-0.7-0.5-0.7-0.9c-0.2-0.6-0.3-1.3-0.4-2l-4.5,0
					c0,0.3-0.1,0.6-0.2,1c-0.1,0.3-0.1,0.6-0.2,1c-0.1,0.4-0.3,0.8-0.8,0.9c-0.4,0.1-0.7,0.2-1.1,0.3c-0.5,0.1-0.9,0.3-1.4,0.5
					c-0.5,0.1-0.9,0.1-1.3-0.3l-1.4-1.4l-3.5,2.6l0.2,0.4c0.2,0.4,0.3,0.7,0.5,1c0.1,0.1,0.2,0.3,0.2,0.4c0.1,0.5,0.2,1-0.2,1.4
					L7,21.7c-0.2,0.3-0.5,0.6-0.7,1c-0.2,0.3-0.5,0.6-0.7,1c-0.4,0.6-0.9,0.6-1.2,0.6l-0.3,0C3.5,24.1,3.1,24,2.6,24l-0.2,0L1,28.2
					l0,0c0.6,0.3,1.1,0.6,1.6,0.9c0.5,0.3,0.7,0.6,0.7,1.1v0.1c0,0.2,0,0.4,0,0.6c0,0.4,0,0.8,0,1.1c0.1,1-0.3,1.7-1.3,2l-1.1,0.6
					c0,0-0.1,0.1-0.1,0.1l1.4,4.3L4,38.8c0.4,0,0.8,0,1.2,0.4c0.3,0.5,0.7,0.9,1,1.3c0.2,0.3,0.4,0.5,0.6,0.8
					c0.5,0.4,0.6,0.9,0.4,1.4l-0.9,1.8l3.6,2.6l0.3-0.3c0.4-0.4,0.8-0.8,1.2-1.1c0.3-0.3,0.8-0.4,1.1-0.2c0.9,0.3,2,0.6,2.7,0.9
					c0.3,0.2,0.6,0.5,0.6,0.9C16,47.8,16.1,48.5,16.2,49.2z"/>
			</g>
			<path class="st1" d="M18.5,18.9L18.5,18.9c-3.3,0-6.5,1.3-8.8,3.6C7.3,24.9,6,28,6,31.4C6,38.3,11.6,44,18.4,44
				s12.4-5.6,12.4-12.6C30.9,24.6,25.4,18.9,18.5,18.9z M26.6,39.8c-2.2,2.2-5.1,3.5-8.2,3.5l0,0l0,0c-3.1,0-6-1.2-8.2-3.4
				c-2.3-2.3-3.5-5.2-3.5-8.4c0-3.1,1.2-6.1,3.4-8.4c2.2-2.2,5.2-3.5,8.3-3.5l0,0c3.1,0,6,1.2,8.2,3.4c2.3,2.3,3.5,5.2,3.5,8.4
				C30,34.6,28.8,37.5,26.6,39.8z"/>
			<path class="st1" d="M11.7,37.1l5.9,3.5c0.6,0.3,1.1,0.3,1.6,0c2-1.2,4-2.4,6-3.6c0.5-0.3,0.8-0.8,0.8-1.4v-8.2
				c0-0.7-0.3-1.1-0.8-1.5c-2-1.2-4-2.4-6-3.5c-0.3-0.2-0.5-0.2-0.8-0.2s-0.6,0.1-0.8,0.3l-0.4,0.2c-1.9,1.1-3.7,2.2-5.6,3.3
				c-0.6,0.3-0.8,0.8-0.8,1.5c0,0.9,0,1.8,0,2.7v1.4V33c0,0.9,0,1.8,0,2.7C10.9,36.3,11.2,36.8,11.7,37.1z M25.4,27.3v0.6
				c0,0.1,0,0.1,0,0.2v7.4c0,0.3-0.1,0.7-0.5,1c-1.3,0.8-2.7,1.6-4,2.3l-1.5,0.9c-0.1,0-0.1,0.1-0.2,0.1l-0.3,0.1V31h0.2L25.4,27.3z
				 M12.4,26.4c0.1-0.1,0.2-0.1,0.3-0.2l1.3-0.8c1.3-0.8,2.6-1.5,3.9-2.3c0.4-0.3,0.9-0.3,1.3,0c1.2,0.7,2.3,1.4,3.5,2.1l2.3,1.4
				l-1.8,1.1c-0.5,0.3-1,0.6-1.5,0.9c-0.8,0.5-1.7,1-2.5,1.5c-0.2,0.1-0.4,0.2-0.7,0.2c-0.2,0-0.4-0.1-0.7-0.2
				c-0.2-0.1-0.3-0.2-0.5-0.3l-0.6-0.3l2.9-1.8c-0.7-0.4-1.4-0.8-2-1.2c-0.1-0.1-0.2-0.1-0.3-0.2c-0.2-0.1-0.4-0.3-0.6-0.3
				s-0.4,0.2-0.6,0.3c-0.1,0.1-0.2,0.2-0.3,0.2c-0.5,0.3-1.1,0.6-1.6,1c-0.3,0.2-0.5,0.2-0.8,0c-0.2-0.1-0.4-0.2-0.6-0.4L12,26.6
				L12.4,26.4z M15.1,28.5l-0.6-0.3l0.2-0.2c0.6-0.4,1.1-0.7,1.6-1c0.1-0.1,0.3-0.1,0.5,0s0.4,0.3,0.7,0.4l0.6,0.4l-0.8,0.5
				c-0.4,0.2-0.8,0.5-1.1,0.7c-0.1,0-0.1,0-0.2,0s-0.2,0-0.3-0.1C15.5,28.7,15.3,28.6,15.1,28.5z M15.7,29.9V32L15,31.6
				c-0.2-0.1-0.5-0.3-0.7-0.4c-0.1-0.1-0.3-0.3-0.3-0.5v-2l0.7,0.4c0.2,0.1,0.5,0.3,0.7,0.4C15.5,29.6,15.7,29.8,15.7,29.9z
				 M11.6,28.1c0-0.1,0-0.1,0-0.2s0-0.1,0-0.2v-0.4l0.7,0.4c0.3,0.1,0.5,0.3,0.7,0.4c0.2,0.2,0.2,0.5,0.2,0.6c0,0.9,0,1.7,0,2.6
				c0,0.2,0,0.2,0.2,0.3c0.6,0.4,1.3,0.8,2,1.2l1.1,0.6v-3.2l1.7,1v8.9l-0.4-0.2c-0.1,0-0.2-0.1-0.3-0.1l-0.7-0.4
				c-1.5-0.9-3-1.8-4.5-2.7c-0.4-0.3-0.6-0.6-0.6-1.1v-7.5H11.6z"/>
		</g>
	</g>
</g>
</svg>
