<?xml version="1.0" encoding="utf-8"?>
<!-- Generator: Adobe Illustrator 26.0.1, SVG Export Plug-In . SVG Version: 6.00 Build 0)  -->
<svg version="1.1" id="Layer_1" xmlns="http://www.w3.org/2000/svg" xmlns:xlink="http://www.w3.org/1999/xlink" x="0px" y="0px"
	 viewBox="0 0 112 88" style="enable-background:new 0 0 112 88;" xml:space="preserve">
<style type="text/css">
	.st0{clip-path:url(#SVGID_00000165942118146758133910000016681207989476166294_);}
	.st1{fill:#FFFFFF;}
	.st2{fill:#D0D0D0;}
	.st3{fill:#808080;}
	.st4{fill:#BEBEBE;}
	.st5{fill:none;}
</style>
<g>
	<g>
		<defs>
			<rect id="SVGID_1_" x="23.26" y="18.28" width="65.48" height="51.45"/>
		</defs>
		<clipPath id="SVGID_00000153674091595311660800000003309632422591165105_">
			<use xlink:href="#SVGID_1_"  style="overflow:visible;"/>
		</clipPath>
		<g style="clip-path:url(#SVGID_00000153674091595311660800000003309632422591165105_);">
			<path class="st1" d="M87.44,68.52v0.13h0.12c0.02,0,0.05-0.01,0.07-0.02c0.02-0.01,0.03-0.03,0.02-0.05
				c0-0.02-0.01-0.04-0.02-0.05c-0.02-0.01-0.04-0.02-0.07-0.02L87.44,68.52L87.44,68.52z M87.57,68.43c0.05,0,0.1,0.01,0.15,0.04
				c0.04,0.03,0.05,0.07,0.05,0.12c0,0.04-0.01,0.08-0.04,0.1c-0.03,0.03-0.07,0.05-0.12,0.05l0.16,0.19h-0.13l-0.15-0.19h-0.05
				v0.19h-0.11v-0.5L87.57,68.43L87.57,68.43z M87.53,69.1c0.06,0,0.11-0.01,0.16-0.03c0.05-0.02,0.09-0.05,0.13-0.09
				c0.04-0.04,0.07-0.08,0.09-0.13c0.04-0.1,0.04-0.22,0-0.32c-0.02-0.05-0.05-0.09-0.09-0.13c-0.04-0.04-0.08-0.07-0.13-0.09
				c-0.05-0.02-0.11-0.03-0.16-0.03c-0.06,0-0.11,0.01-0.16,0.03c-0.05,0.02-0.09,0.05-0.13,0.09c-0.12,0.12-0.15,0.3-0.09,0.46
				c0.02,0.05,0.05,0.09,0.09,0.13c0.04,0.04,0.08,0.07,0.13,0.09C87.42,69.09,87.48,69.1,87.53,69.1 M87.53,68.15
				c0.14,0,0.28,0.06,0.38,0.16c0.05,0.05,0.09,0.11,0.12,0.17c0.06,0.13,0.06,0.28,0,0.41c-0.03,0.06-0.07,0.12-0.12,0.17
				c-0.05,0.05-0.11,0.09-0.17,0.11c-0.07,0.03-0.14,0.04-0.21,0.04c-0.07,0-0.15-0.01-0.21-0.04c-0.06-0.03-0.12-0.07-0.17-0.11
				c-0.05-0.05-0.09-0.11-0.11-0.18c-0.06-0.13-0.06-0.28,0-0.41c0.03-0.06,0.07-0.12,0.12-0.17c0.05-0.05,0.11-0.09,0.17-0.11
				C87.39,68.16,87.46,68.14,87.53,68.15"/>
			<path class="st1" d="M37.41,66.24c0-0.94,0.62-1.72,1.63-1.72c1.01,0,1.62,0.74,1.62,1.72c0,0.98-0.65,1.72-1.62,1.72
				S37.41,67.18,37.41,66.24z M41.76,66.24v-2.69h-1.17v0.65c-0.37-0.48-0.93-0.79-1.7-0.79c-1.51,0-2.69,1.18-2.69,2.82
				c0,1.64,1.18,2.82,2.69,2.82c0.76,0,1.33-0.3,1.7-0.79v0.65h1.17L41.76,66.24L41.76,66.24z"/>
			<path class="st1" d="M81.23,66.24c0-0.94,0.62-1.72,1.63-1.72s1.62,0.74,1.62,1.72c0,0.98-0.65,1.72-1.62,1.72
				C81.9,67.96,81.23,67.18,81.23,66.24z M85.59,66.24v-4.84h-1.17v2.81c-0.37-0.48-0.93-0.79-1.7-0.79c-1.51,0-2.69,1.18-2.69,2.82
				c0,1.64,1.18,2.82,2.69,2.82c0.76,0,1.33-0.3,1.7-0.79v0.65h1.17V66.24z"/>
			<path class="st1" d="M56.26,64.46c0.75,0,1.24,0.47,1.36,1.3h-2.79C54.95,64.99,55.42,64.46,56.26,64.46 M56.28,63.41
				c-1.57,0-2.68,1.15-2.68,2.82c0,1.68,1.15,2.82,2.75,2.82c0.81,0,1.55-0.2,2.2-0.75l-0.57-0.87C57.54,67.8,56.96,68,56.43,68
				c-0.75,0-1.44-0.35-1.61-1.32h3.99c0.01-0.14,0.02-0.29,0.02-0.45C58.82,64.56,57.78,63.41,56.28,63.41"/>
			<path class="st1" d="M70.39,66.24c0-0.94,0.62-1.72,1.63-1.72c1.01,0,1.62,0.74,1.62,1.72c0,0.98-0.65,1.72-1.62,1.72
				S70.39,67.18,70.39,66.24z M74.74,66.24v-2.69h-1.17v0.65c-0.37-0.48-0.93-0.79-1.7-0.79c-1.51,0-2.69,1.18-2.69,2.82
				c0,1.64,1.18,2.82,2.69,2.82c0.76,0,1.33-0.3,1.7-0.79v0.65h1.17L74.74,66.24L74.74,66.24z"/>
			<path class="st1" d="M63.79,66.24c0,1.63,1.13,2.82,2.87,2.82c0.81,0,1.35-0.18,1.93-0.64l-0.56-0.94
				c-0.44,0.32-0.9,0.48-1.41,0.48C65.68,67.94,65,67.27,65,66.24s0.69-1.71,1.62-1.72c0.51,0,0.97,0.17,1.41,0.48l0.56-0.94
				c-0.58-0.46-1.12-0.64-1.93-0.64C64.92,63.41,63.79,64.61,63.79,66.24z"/>
			<path class="st1" d="M78.85,63.41c-0.67,0-1.11,0.32-1.42,0.79v-0.65h-1.16v5.37h1.17v-3.01c0-0.89,0.38-1.38,1.15-1.38
				c0.25,0,0.5,0.04,0.73,0.14l0.36-1.1C79.42,63.46,79.09,63.42,78.85,63.41"/>
			<path class="st1" d="M47.53,63.98c-0.56-0.37-1.34-0.56-2.19-0.56c-1.36,0-2.24,0.65-2.24,1.72c0,0.88,0.65,1.42,1.85,1.58
				l0.55,0.08c0.64,0.09,0.94,0.26,0.94,0.56c0,0.42-0.43,0.65-1.22,0.65s-1.39-0.26-1.79-0.56l-0.55,0.91
				c0.64,0.47,1.45,0.7,2.33,0.7c1.55,0,2.45-0.73,2.45-1.75c0-0.94-0.71-1.44-1.88-1.61l-0.55-0.08c-0.51-0.07-0.91-0.17-0.91-0.53
				c0-0.39,0.38-0.63,1.02-0.63c0.69,0,1.35,0.26,1.68,0.46L47.53,63.98L47.53,63.98z"/>
			<path class="st1" d="M62.61,63.42c-0.67,0-1.11,0.32-1.42,0.79v-0.65h-1.16v5.37h1.17v-3.01c0-0.89,0.38-1.38,1.15-1.38
				c0.25,0,0.5,0.04,0.73,0.14l0.36-1.1C63.18,63.46,62.84,63.42,62.61,63.42"/>
			<path class="st1" d="M52.64,63.55h-1.91v-1.63h-1.18v1.63h-1.09v1.07h1.09v2.45c0,1.25,0.48,1.99,1.87,1.99
				c0.51,0,1.09-0.16,1.46-0.42l-0.34-1c-0.35,0.2-0.73,0.3-1.03,0.3c-0.58,0-0.77-0.36-0.77-0.9v-2.43h1.91V63.55z"/>
			<path class="st1" d="M35.17,68.92v-3.37c0-1.27-0.81-2.12-2.11-2.14c-0.69-0.01-1.39,0.2-1.89,0.96
				c-0.37-0.6-0.95-0.96-1.78-0.96c-0.57,0-1.13,0.17-1.57,0.8v-0.66h-1.17v5.37h1.18v-2.98c0-0.93,0.52-1.43,1.32-1.43
				c0.8,0,1.17,0.51,1.17,1.42v2.99h1.18v-2.98c0-0.93,0.54-1.43,1.31-1.43c0.78,0,1.18,0.51,1.18,1.42v2.99L35.17,68.92z"/>
			<path class="st1" d="M88.11,51.05v-0.79h-0.2l-0.24,0.54l-0.24-0.54h-0.21v0.79h0.15v-0.59l0.22,0.51h0.15l0.22-0.51v0.59H88.11z
				 M86.81,51.05V50.4h0.26v-0.13H86.4v0.13h0.26v0.65H86.81z"/>
			<path class="st2" d="M64.85,54.42H47.15V22.6h17.71L64.85,54.42L64.85,54.42z"/>
			<path class="st3" d="M48.27,38.51c0-6.45,3.02-12.2,7.73-15.91c-3.56-2.81-7.97-4.33-12.5-4.33c-11.18,0-20.23,9.06-20.23,20.24
				c0,11.18,9.06,20.24,20.23,20.24c4.54,0.01,8.94-1.52,12.51-4.33C51.29,50.72,48.27,44.97,48.27,38.51z"/>
			<path class="st4" d="M88.74,38.51c0,11.18-9.06,20.24-20.23,20.24c-4.54,0.01-8.94-1.52-12.51-4.33
				c4.71-3.71,7.73-9.45,7.73-15.91c0-6.45-3.02-12.2-7.73-15.91c3.56-2.81,7.97-4.33,12.51-4.33
				C79.68,18.28,88.74,27.34,88.74,38.51"/>
		</g>
	</g>
	<rect class="st5" width="112" height="88"/>
</g>
</svg>
