<svg width="195" height="36" viewBox="0 0 195 36" fill="none" xmlns="http://www.w3.org/2000/svg">
<path d="M8.50204 5.69922C8.98731 6.58937 9.54552 7.68048 10.1811 8.98594C10.8182 10.2914 11.4717 11.6996 12.1564 13.2119C12.8397 14.7243 13.5244 16.2843 14.2017 17.8666C14.879 19.4519 15.5072 20.9464 16.0951 22.3397C16.692 20.9464 17.3202 19.4594 17.9975 17.8666C18.6748 16.2754 19.3506 14.7317 20.0353 13.2119C20.7201 11.6921 21.3899 10.2914 22.0181 8.98594C22.6462 7.68048 23.2119 6.5983 23.6972 5.69922H29.4191C29.6901 7.55693 29.9401 9.63346 30.1679 11.9318C30.3897 14.2256 30.5981 16.6192 30.7722 19.0962C30.9479 21.5716 31.1072 24.0709 31.2501 26.5702C31.393 29.0709 31.5284 31.4184 31.6326 33.6214H25.5117C25.4328 30.9093 25.3241 27.953 25.1857 24.7556C25.0503 21.5716 24.8508 18.3325 24.5799 15.0845C24.0946 16.2143 23.5617 17.4722 22.9886 18.8342C22.4155 20.1947 21.771 21.5806 21.2053 22.95C20.6412 24.318 20.0681 25.6309 19.5262 26.8813C18.9844 28.1331 18.5319 29.1989 18.1568 30.0653H13.7641C13.3815 29.1736 12.9275 28.1093 12.3872 26.8813C11.8453 25.6562 11.2886 24.318 10.7081 22.95C10.1261 21.5806 9.54552 20.2111 8.94861 18.8416L7.33205 15.0935C7.06113 18.34 6.86315 21.5731 6.72769 24.7646C6.59224 27.956 6.48953 30.9182 6.40914 33.6319H0.279297C0.383495 31.4273 0.517465 29.0784 0.661854 26.5806C0.804755 24.0798 0.971473 21.5895 1.14712 19.1066C1.32277 16.6222 1.52075 14.2271 1.75147 11.9422C1.9822 9.65727 2.22781 7.56437 2.50021 5.70964L8.50204 5.69922Z" fill="#FDFDFF"/>
<path d="M34.0122 23.1959C33.9795 21.5153 34.2742 19.8437 34.88 18.2763C35.3966 16.9619 36.1706 15.7621 37.156 14.7499C38.0804 13.8225 39.1864 13.0961 40.4041 12.6168C41.6023 12.1419 42.881 11.9023 44.1686 11.9082C45.4904 11.8368 46.8108 12.0452 48.0463 12.5215C49.2818 12.9979 50.4012 13.7302 51.3315 14.671C53.0835 16.5123 53.9558 19.2185 53.9513 22.7895C53.9513 23.1393 53.9513 23.5219 53.9513 23.9372C53.9513 24.3495 53.8948 24.7336 53.871 25.0506H40.1808C40.2344 25.6401 40.416 26.2058 40.7137 26.7119C41.0129 27.2209 41.4207 27.6571 41.9075 27.9876C43.1326 28.769 44.5705 29.1501 46.0218 29.0772C47.1115 29.0757 48.1981 28.9759 49.2699 28.7735C50.16 28.6232 51.0308 28.3716 51.8659 28.0263L52.6623 32.9057C52.2455 33.1007 51.8138 33.2615 51.3732 33.3895C50.7837 33.5637 50.1853 33.7051 49.5824 33.8108C48.9215 33.9298 48.2204 34.034 47.4657 34.1144C46.717 34.1948 45.9653 34.2335 45.2136 34.2335C43.5136 34.2707 41.8226 33.9849 40.2299 33.3895C38.9036 32.8655 37.7098 32.0528 36.7363 31.0093C35.8 30.0194 35.0974 28.8301 34.6836 27.5321C34.2266 26.1328 34.0018 24.6666 34.0122 23.1959ZM48.1162 20.8946C48.0924 20.3885 48.0046 19.8884 47.8528 19.4076C47.7158 18.9357 47.4821 18.4951 47.168 18.117C46.8465 17.73 46.4476 17.4129 45.998 17.1866C45.4517 16.9306 44.8504 16.8071 44.2475 16.8279C43.6506 16.8115 43.0581 16.9276 42.5118 17.1688C42.0474 17.3831 41.6351 17.6913 41.3017 18.0768C40.9771 18.4638 40.7271 18.9059 40.5618 19.3822C40.3892 19.875 40.2612 20.3811 40.1793 20.8946H48.1162Z" fill="#FDFDFF"/>
<path d="M77.0796 32.9437C76.5377 33.1015 75.917 33.2622 75.2248 33.4066C74.5326 33.5495 73.7928 33.685 73.0277 33.7877C72.2641 33.8919 71.4826 33.9871 70.6877 34.0512C69.8928 34.1152 69.1366 34.1941 68.4117 34.1941C66.819 34.2089 65.2366 33.941 63.7392 33.3992C62.4352 32.9318 61.2488 32.183 60.2694 31.2021C59.3092 30.2137 58.5739 29.0288 58.1125 27.7308C57.6004 26.2646 57.3488 24.718 57.3726 23.1624C57.3518 21.5875 57.5691 20.0186 58.0172 18.5077C58.3923 17.2186 59.0234 16.0204 59.8719 14.9799C60.6713 14.0183 61.685 13.2561 62.8326 12.7604C64.0905 12.2246 65.445 11.9536 66.8115 11.9641C67.5647 11.9551 68.315 12.0355 69.0473 12.2022C69.7291 12.3749 70.396 12.6056 71.0375 12.8944V3.31856L77.0796 2.35547V32.9437ZM63.4936 22.8662C63.4206 24.4545 63.8627 26.0219 64.7514 27.3393C65.1816 27.9049 65.7457 28.3575 66.3933 28.6522C67.0408 28.9484 67.7508 29.0809 68.4608 29.0347C69.0027 29.0347 69.4954 29.0347 69.9494 28.9722C70.4034 28.9067 70.7458 28.8829 71.0792 28.8368V17.9078C70.6207 17.6339 70.1236 17.4315 69.607 17.3035C69.0101 17.1457 68.3939 17.0653 67.7776 17.0653C64.9196 17.0653 63.4936 18.9989 63.4936 22.8662Z" fill="#FDFDFF"/>
<path d="M101.132 20.4092H103.87V32.8654C102.891 33.2063 101.888 33.4698 100.868 33.6618C99.0595 34.0265 97.2152 34.1932 95.3694 34.1619C93.6293 34.1783 91.9026 33.8479 90.292 33.1929C88.7558 32.5781 87.3744 31.6344 86.2401 30.4302C85.0403 29.1113 84.1264 27.5587 83.5577 25.8707C82.8834 23.8671 82.5574 21.7608 82.5947 19.6471C82.5589 17.5259 82.9117 15.4152 83.6366 13.422C84.2618 11.7265 85.2294 10.1769 86.4783 8.87C87.6572 7.65535 89.0788 6.70118 90.6492 6.06855C92.2613 5.41657 93.9865 5.08611 95.7266 5.09802C97.4578 5.05038 99.1831 5.27664 100.844 5.76638C101.871 6.07004 102.861 6.49428 103.789 7.03164L102.867 9.37164C101.919 8.75538 100.871 8.3118 99.771 8.05874C98.4001 7.71489 96.9904 7.54668 95.5763 7.55859C94.2098 7.5571 92.8567 7.82653 91.5974 8.35496C90.3783 8.87596 89.2902 9.66191 88.4134 10.6548C87.4488 11.7608 86.715 13.0484 86.255 14.4431C85.6968 16.1326 85.4289 17.9025 85.4586 19.6798C85.4378 21.3753 85.6551 23.0663 86.1032 24.7022C86.4857 26.0985 87.1541 27.401 88.0621 28.5308C88.9314 29.5891 90.0419 30.4242 91.2997 30.9675C92.7213 31.557 94.25 31.8443 95.7892 31.81C96.9428 31.8264 98.0934 31.752 99.2352 31.5868C99.8752 31.5108 100.503 31.3694 101.114 31.1655L101.132 20.4092Z" fill="#FDFDFF"/>
<path d="M116.16 12.3952C116.979 12.3908 117.796 12.4563 118.603 12.5947C119.147 12.6706 119.683 12.8061 120.195 12.9996L119.67 15.2518C119.246 15.088 118.806 14.9734 118.355 14.9094C117.498 14.7739 116.63 14.7114 115.761 14.7263C114.848 14.707 113.934 14.7903 113.04 14.9734C112.577 15.0657 112.124 15.1982 111.685 15.3723V33.6309H109.068V13.732C109.972 13.3598 110.904 13.0576 111.853 12.8239C113.266 12.4994 114.713 12.3551 116.16 12.3952Z" fill="#FDFDFF"/>
<path d="M129.459 12.314C130.647 12.2813 131.831 12.4793 132.946 12.8946C133.836 13.231 134.631 13.7773 135.262 14.4858C135.869 15.1914 136.308 16.0235 136.551 16.9211C136.831 17.9184 136.965 18.95 136.957 19.9845V33.118C136.686 33.1984 136.296 33.2847 135.787 33.3815C135.277 33.4753 134.69 33.5809 134.011 33.6837C133.336 33.7864 132.596 33.8831 131.776 33.9456C130.955 34.0111 130.12 34.0498 129.26 34.0498C128.236 34.0617 127.213 33.9382 126.22 33.6837C125.355 33.4663 124.544 33.0763 123.833 32.536C123.148 32.0016 122.603 31.3124 122.241 30.522C121.828 29.5767 121.628 28.5526 121.659 27.5211C121.63 26.5148 121.853 25.516 122.304 24.6169C122.736 23.8101 123.358 23.1239 124.12 22.6193C124.948 22.0804 125.868 21.7008 126.834 21.4954C127.986 21.2468 129.163 21.1233 130.342 21.1292C130.717 21.1292 131.137 21.1292 131.529 21.1932C131.92 21.2572 132.323 21.287 132.739 21.3525C133.15 21.415 133.462 21.488 133.751 21.5609C133.947 21.6011 134.142 21.6577 134.331 21.7336V20.4445C134.331 19.7389 134.278 19.0334 134.172 18.3352C134.074 17.6743 133.831 17.0402 133.464 16.482C133.078 15.9119 132.553 15.4534 131.935 15.1512C131.121 14.7791 130.229 14.6034 129.333 14.6421C128.184 14.6034 127.032 14.7121 125.911 14.9681C125.153 15.1825 124.605 15.3581 124.255 15.4936L123.889 13.1938C124.57 12.9139 125.281 12.7115 126.006 12.5894C127.145 12.3885 128.301 12.2947 129.459 12.314ZM129.705 31.7337C130.726 31.7337 131.615 31.7337 132.38 31.6309C133.036 31.5803 133.691 31.4955 134.337 31.3749V24.0379C133.882 23.8548 133.41 23.7134 132.929 23.6151C132.052 23.4454 131.161 23.371 130.271 23.3933C129.593 23.3963 128.919 23.4439 128.251 23.5377C127.575 23.6255 126.918 23.8295 126.316 24.1435C125.732 24.4472 125.235 24.8938 124.867 25.4401C124.462 26.0787 124.266 26.8259 124.302 27.5806C124.279 28.2579 124.41 28.9322 124.683 29.5559C124.927 30.0739 125.303 30.5175 125.772 30.845C126.289 31.1844 126.863 31.424 127.469 31.5446C128.206 31.6905 128.955 31.7545 129.705 31.7337Z" fill="#FDFDFF"/>
<path d="M141.834 13.5008C142.632 13.2775 143.659 13.0393 145.019 12.7684C146.612 12.4796 148.23 12.3472 149.851 12.371C151.21 12.3248 152.565 12.557 153.832 13.0542C154.835 13.4666 155.713 14.1394 156.37 15.0042C157.026 15.9152 157.489 16.9542 157.723 18.0543C157.998 19.3374 158.131 20.6488 158.122 21.9617V33.6304H155.485V22.8295C155.503 21.5717 155.401 20.3169 155.185 19.0799C155.036 18.1823 154.695 17.3293 154.183 16.5791C153.711 15.939 153.056 15.4553 152.303 15.1948C151.376 14.8851 150.399 14.7437 149.421 14.772C148.357 14.7616 147.291 14.8286 146.237 14.9715C145.646 15.0399 145.058 15.159 144.485 15.3287V33.6349H141.865L141.834 13.5008Z" fill="#FDFDFF"/>
<path d="M164.599 12.7898H172.901V15.0092H164.599V26.0885C164.577 27.0575 164.68 28.0266 164.902 28.9718C165.053 29.6044 165.351 30.1924 165.769 30.6896C166.14 31.0826 166.616 31.3579 167.139 31.4845C167.719 31.6259 168.316 31.6914 168.913 31.6854C169.815 31.7167 170.716 31.5872 171.572 31.3029C172.118 31.1079 172.654 30.8712 173.165 30.5943L173.808 32.7736C173.181 33.1115 172.52 33.3779 171.834 33.5699C170.842 33.8825 169.809 34.0373 168.769 34.0329C167.667 34.0626 166.567 33.8915 165.521 33.5312C164.705 33.2305 163.989 32.7125 163.443 32.0352C162.888 31.2761 162.51 30.4023 162.338 29.4794C162.106 28.2841 161.997 27.0679 162.011 25.8503V6.66886L164.631 6.18359L164.599 12.7898Z" fill="#FDFDFF"/>
<path d="M183.584 2.35547V3.60585H181.132V10.3147H179.676V3.60585H177.23V2.35547H183.584Z" fill="#FDFDFF"/>
<path d="M187.755 2.35547C187.922 2.64127 188.105 3.00001 188.311 3.42127C188.52 3.84402 188.734 4.28909 188.949 4.75055C189.164 5.212 189.371 5.68089 189.587 6.1602L190.168 7.48948L190.742 6.1602C190.949 5.68238 191.155 5.212 191.37 4.75055C191.588 4.28909 191.801 3.84402 192.008 3.42127C192.216 3.00001 192.398 2.6249 192.564 2.35547H193.87C193.941 2.93749 194.005 3.55822 194.069 4.2102C194.132 4.86367 194.19 5.54097 194.236 6.21677C194.284 6.89406 194.339 7.59367 194.38 8.28585C194.42 8.97803 194.492 9.65532 194.492 10.3147H193.066C193.066 9.39184 192.994 8.43619 192.954 7.45822C192.916 6.48024 192.852 5.52459 192.765 4.60913L192.462 5.2373C192.35 5.4844 192.223 5.74638 192.095 6.03367L191.698 6.91787L191.306 7.81696C191.178 8.10276 191.068 8.37516 190.957 8.61333L190.684 9.24745H189.602C189.522 9.0718 189.434 8.85745 189.322 8.60291C189.212 8.34837 189.1 8.0849 188.972 7.80654L188.584 6.9149C188.448 6.60528 188.32 6.31055 188.185 6.0307L187.82 5.23432C187.709 4.98722 187.604 4.78032 187.524 4.6136C187.436 5.52906 187.374 6.47577 187.325 7.46268C187.278 8.44959 187.246 9.39631 187.222 10.3207H185.799C185.799 9.65978 185.861 8.98398 185.909 8.27394C185.957 7.56539 185.997 6.87322 186.043 6.18104C186.091 5.48887 186.155 4.81306 186.211 4.15959C186.266 3.50761 186.347 2.9107 186.411 2.36142L187.755 2.35547Z" fill="#FDFDFF"/>
</svg>
