<?xml version="1.0" encoding="utf-8"?>
<!-- Generator: Adobe Illustrator 27.0.1, SVG Export Plug-In . SVG Version: 6.00 Build 0)  -->
<svg version="1.1" id="Layer_1" xmlns="http://www.w3.org/2000/svg" xmlns:xlink="http://www.w3.org/1999/xlink" x="0px" y="0px"
	 viewBox="0 0 63 63" style="enable-background:new 0 0 63 63;" xml:space="preserve">
<style type="text/css">
	.st0{clip-path:url(#SVGID_00000008129615659517780080000010776856667970123922_);}
	.st1{fill:#5A5A5A;}
</style>
<g>
	<defs>
		<rect id="SVGID_1_" y="13.5" width="36" height="36"/>
	</defs>
	<clipPath id="SVGID_00000060722914088316316360000003233602562632139431_">
		<use xlink:href="#SVGID_1_"  style="overflow:visible;"/>
	</clipPath>
	<g style="clip-path:url(#SVGID_00000060722914088316316360000003233602562632139431_);">
		<path class="st1" d="M22.6,38.1c1.5-1.3,2.4-3,2.6-5l0-0.2h2.3v-0.7h-2.3l0-0.2c-0.1-1.1-0.5-2.2-1-3.2L24,28.7l3.1-3.1l-0.4-0.4
			l-2.9,2.9l-0.2,0l-0.1-0.1c-1.3-1.5-2.9-2.3-4.7-2.5c-0.2,0-0.4-0.2-0.4-0.5c0-0.2,0-0.5,0-0.7l0-0.5l0.3-0.1c0.1,0,0.1,0,0.2,0
			c2.1-0.3,3.9-2.1,4.1-4.2c0.3-2.3-1-4.5-3.2-5.2c-0.3-0.1-0.5-0.2-0.8-0.2l-0.3-0.1h-1.3c-0.1,0-0.1,0.1-0.2,0.1
			c-2.3,0.4-3.9,2.3-4.1,4.7c-0.1,2.2,1.4,4.3,3.6,4.9c0.2,0,0.4,0.1,0.5,0.1l0.5,0.1l0,0.5c0,0.2,0,0.4,0,0.6
			c0,0.2-0.1,0.5-0.5,0.6c-1.2,0.1-2.3,0.6-3.3,1.3c-0.3,0.2-0.6,0.5-1,0.8c-0.1,0.1-0.3,0.3-0.5,0.4l-0.2,0.2l-3-3l-0.5,0.5
			l3.2,3.1l-0.1,0.2c-0.6,0.9-0.9,2-1,3.2l0,0.2H9.6v0.7h1.1l0,0.2c0.2,2,1,3.6,2.6,5l0.2,0.2l-3.1,3l0.5,0.5c0,0,0.1-0.1,0.1-0.1
			l0.7-0.7c0.7-0.7,1.3-1.3,2-2c0.2-0.3,0.5-0.3,0.8-0.1c0.8,0.5,1.6,0.7,2.5,0.8c0.3,0,0.6,0.1,0.6,0.7c0,0.4,0,0.9,0,1.3l0,0.4
			h0.7l0-0.4c0-0.4,0-0.9,0-1.3c0-0.4,0.2-0.6,0.5-0.6c0.9-0.1,1.8-0.4,2.6-0.8c0.3-0.2,0.5-0.1,0.8,0.1c0.4,0.4,0.7,0.7,1.1,1.1
			c0.3,0.3,0.6,0.6,0.9,0.9c0.3,0.3,0.5,0.5,0.8,0.8l0.5-0.5l-3.1-3L22.6,38.1z M24.3,31.1c0.2,1,0.2,2.1,0,3c0,0.2-0.2,0.4-0.5,0.4
			c-1,0-2.1,0-3.1,0h-0.2v-3.9l2.2,0c0.3,0,0.7,0,1,0C24.2,30.6,24.3,30.9,24.3,31.1z M19,26.2c1.6,0.1,3.9,1.5,4.7,3.4l0.2,0.3
			l-3.6,0l-0.1-0.2L20,29.3c-0.2-0.4-0.3-0.8-0.5-1.2c-0.2-0.3-0.3-0.7-0.5-1c-0.1-0.2-0.2-0.4-0.3-0.6l-0.2-0.4L19,26.2z
			 M14.9,21.8c-0.8-0.8-1.2-1.9-1.2-3c0-2.3,1.9-4.2,4.1-4.2l0,0H18c1.1,0,2.2,0.4,3,1.3c0.8,0.8,1.2,1.9,1.2,3
			c0,2.3-1.9,4.2-4.3,4.2C16.8,23.1,15.8,22.7,14.9,21.8z M18,26.4l0.2,0.4l1.5,3.1h-2.8l-0.4,0.7h3.3l0,0.2c0.2,1.1,0.2,2.3,0,3.5
			l0,0.2h-3.3h-0.2l0-0.2c-0.3-1.2-0.3-2.3,0-3.5l0-0.2h0.2l0.4-0.7l-0.6,0L18,26.4z M12.2,29.7c0.2-1.4,2.7-3.2,4.7-3.5l0.5-0.1
			L15.6,30h-3.4L12.2,29.7z M11.6,34.1c-0.2-1-0.2-2.1,0-3c0-0.2,0.2-0.4,0.5-0.4c1,0,2.1,0,3.1,0h0.2v3.9l-2,0c-0.4,0-0.8,0-1.2,0
			C11.9,34.6,11.7,34.4,11.6,34.1z M16.9,39c-1.6,0-4.1-1.8-4.7-3.4l-0.1-0.3h3.5l1.7,3.8L16.9,39z M18,39l-0.2-0.6l-1.1-2.9
			l-0.1-0.2l0.1,0h3L18,39z M19,39.1L19,39.1l-0.4,0l1.7-3.8H24l-0.2,0.4C22.7,37.5,21.2,38.6,19,39.1z"/>
		<path class="st1" d="M10.3,18.6c0-0.9-0.3-1.2-1.2-1.2l-2.1,0c-1.7,0-3.5,0-5.2,0c-0.7,0-1.1,0.2-1.3,0.6v4
			c0.2,0.5,0.6,0.7,1.2,0.7c0.3,0,0.7,0,1,0c0.3,0,0.5,0,0.8,0c0,0,0,0,0,0c0.4,0,0.6,0.2,0.7,0.6c0,0.3,0.1,0.6,0.2,0.8
			c0.2,0.6,0.5,0.9,1.1,0.9c0.5,0,0.9-0.3,1-0.9c0.1-0.3,0.1-0.6,0.2-0.9l0.1-0.5h2.5c0.7,0,1.1-0.3,1.1-1.1V18.6z M9.6,22H7.1
			c-0.1,0-0.2,0-0.3,0c-0.2,0-0.4,0-0.5,0c-0.1,0.1-0.1,0.3-0.1,0.5c0,0.1,0,0.2-0.1,0.3c0,0.1-0.1,0.3-0.1,0.4
			c-0.1,0.2-0.1,0.4-0.2,0.6c0,0.1-0.1,0.2-0.2,0.3c0,0,0,0,0,0c0,0-0.1,0-0.2,0c-0.1,0-0.2,0-0.2,0C5.1,24,5,24,5,23.8
			c-0.2-0.6-0.3-1.1-0.4-1.7c0-0.2-0.1-0.2-0.3-0.2c-0.7,0-1.4,0-2,0l-1.1,0v-3.9h8.4V22z"/>
		<path class="st1" d="M6.8,31.4c-0.7-0.4-1.5-0.4-2.2,0c-0.2,0.1-0.5,0.1-0.7,0c-0.7-0.3-1.4-0.4-2.1-0.1c-0.6,0.3-1.1,0.8-1.3,1.6
			c0,0,0,0.1-0.1,0.1v0.9C0.6,34.5,1,35,1.7,35.5c0.6,0.4,1.1,0.9,1.7,1.4c0.3,0.2,0.6,0.5,0.8,0.7c0,0,0,0,0.1,0.1l0.5-0.4
			c0.8-0.7,1.7-1.4,2.5-2.1C7.8,34.6,8.1,34,8,33.2C7.9,32.4,7.4,31.8,6.8,31.4z M6.7,34.7l-0.9,0.8c-0.5,0.4-0.9,0.8-1.4,1.1
			l-0.2,0.1L2.2,35c-0.2-0.1-0.3-0.2-0.5-0.4C1,34,0.9,33,1.5,32.3c0.3-0.3,0.7-0.5,1.1-0.5c0.5,0,0.9,0.1,1.2,0.4
			c0.1,0.1,0.2,0.2,0.3,0.3c0.1-0.1,0.2-0.2,0.2-0.3c0.4-0.3,0.8-0.5,1.3-0.5c0.5,0,0.9,0.2,1.2,0.6c0.3,0.3,0.4,0.7,0.4,1.2
			C7.3,34,7.1,34.4,6.7,34.7z"/>
		<path class="st1" d="M32.1,22.8l3.3,1.1v-6.6l-3.1,1l-0.3,0.1l-0.1-0.3l0,0c-0.2-0.5-0.5-0.7-1.1-0.7h-4.2c-0.7,0-1.1,0.4-1.1,1.1
			v4.2c0,0.8,0.3,1.1,1.1,1.1c0.4,0,0.9,0,1.3,0c0.9,0,1.8,0,2.7,0c0.7,0,1.1-0.2,1.3-0.8L32.1,22.8z M32.1,19.5
			c0-0.2,0.1-0.4,0.3-0.5c0.6-0.2,1.1-0.4,1.7-0.6l0.7-0.2V23l-0.9-0.3c-0.5-0.2-1.1-0.3-1.6-0.5c-0.2-0.1-0.3-0.3-0.3-0.5
			C32.1,20.9,32.1,20.2,32.1,19.5z M31.4,23.1h-5v-5h5V23.1z"/>
		<path class="st1" d="M31.5,46.5l-0.2-0.1l0.1-0.2c0-0.1,0.1-0.2,0.2-0.2c0.1-0.2,0.2-0.3,0.2-0.4c0.1-0.5,0.4-0.9,0.7-1.3l0.1-0.1
			c0.6-0.7,0.7-1.6,0.3-2.4c-0.4-0.9-1.1-1.3-2-1.4c-0.4,0-0.8,0-1.3,0c-0.2,0-0.4,0-0.6,0c-0.5,0-1,0.2-1.5,0.6
			c-0.5,0.4-0.8,1-0.8,1.6c0,0.6,0.2,1.3,0.7,1.8c0,0,0.1,0.1,0.1,0.1c0.1,0.1,0.3,0.2,0.3,0.4c0.1,0.3,0.3,0.6,0.4,0.9
			c0.1,0.2,0.1,0.3,0.2,0.5l0.1,0.2l-0.1,0.1c-0.7,0.7-1,1.3-1.2,2.4h5.4C32.3,47.4,32.3,47.2,31.5,46.5z M31.2,45.3
			C30.9,45.8,30.5,46,30,46c-0.7,0-1.3-0.6-1.4-1.3l0-0.5c0-0.1,0-0.2,0-0.3c0-0.2,0.1-0.4,0.3-0.5c0.1-0.1,0.3-0.1,0.5-0.1
			c0.6,0.1,1.1,0.3,1.6,0.4c0.1,0,0.3,0.2,0.3,0.3C31.5,44.4,31.5,44.9,31.2,45.3z M28.1,43.4l-0.3,0.3l-0.2-0.3
			c-0.2-0.5-0.2-1,0.1-1.5c0.3-0.5,0.7-0.8,1.2-0.8c0.7,0,1.4-0.1,2.2,0c0.5,0,1,0.3,1.2,0.8c0.3,0.5,0.3,1,0.1,1.5l0,0l-0.6,0.1
			l0,0c-0.2-0.2-0.5-0.3-0.9-0.4c-0.3-0.1-0.6-0.1-0.9-0.2C29,42.5,28.7,42.6,28.1,43.4z M28.3,48c0.1-0.6,0.7-1.2,1.5-1.3
			c0.8-0.1,1.7,0.5,1.9,1.3l0.1,0.3h-3.6L28.3,48z"/>
		<path class="st1" d="M32,31.2c-0.2-0.1-0.4-0.1-0.6-0.1c-0.4,0-0.7,0.1-1.1,0.3c-0.6,0.3-1,0.9-1.1,1.4c-0.1,0.4-0.1,0.8-0.1,1.2
			l0,0.2c0,2.4,1.9,4.3,4.3,4.4c0.9,0,1.7-0.5,2-1.4c0.2-0.5,0.1-0.9-0.1-1.3c-0.2-0.4-0.5-0.6-0.9-0.7c-0.5-0.1-1.3,0.1-1.7,0.5
			l0.6,0.4c0.1-0.2,0.6-0.3,0.8-0.3c0.2,0.1,0.5,0.2,0.6,0.4c0.2,0.2,0.2,0.6,0.1,0.9C34.6,37.7,34,38,33.3,38
			c-1-0.1-1.9-0.5-2.6-1.2c-0.7-0.7-1-1.7-0.9-2.8l0-0.2c0-0.2,0-0.3,0-0.5c0.1-0.8,0.8-1.5,1.6-1.5c0,0,0,0,0,0
			c0.5,0,0.9,0.3,1,0.8c0.1,0.5-0.1,1-0.5,1.2l-0.1,0c-0.1,0-0.1,0.1-0.2,0.1c-0.1,0-0.3,0.1-0.3,0.2c0,0.4,0,0.9,0.1,1.3
			c0.2,0.6,0.9,1.1,1.5,1c0,0,0.1-0.1,0.1-0.1c0.1-0.1,0.1-0.1,0.2-0.2l0,0l-0.8-0.5c-0.4-0.2-0.5-0.5-0.5-0.7
			c0-0.2,0.1-0.4,0.4-0.6c0.6-0.4,0.8-1,0.7-1.7C33.1,31.9,32.7,31.4,32,31.2z"/>
		<path class="st1" d="M9.3,43.8c-0.2,0-0.4-0.2-0.5-0.3c-0.4-0.5-1.1-0.9-1.7-0.9c0,0,0,0,0,0c-0.7,0-1.3,0.3-1.8,0.9
			c-0.1,0.1-0.3,0.3-0.5,0.3c-1,0.3-1.7,0.9-2,1.9c-0.2,0.6-0.1,1.2,0.2,1.6c0.3,0.4,0.8,0.6,1.4,0.6c0.6,0,1.2,0,1.7,0
			c0.3,0,0.5,0,0.8,0l0,0l1,0c0.6,0,1.3,0,1.9,0c0.9,0,1.5-0.6,1.5-1.5C11.4,45.1,10.5,44.1,9.3,43.8z M10.5,46.9
			c-0.2,0.2-0.4,0.3-0.7,0.3H4.5c-0.4,0-0.7-0.1-0.9-0.3c-0.2-0.2-0.2-0.6-0.1-1c0.2-0.9,1-1.5,1.9-1.5c0.2,0,0.2,0,0.3-0.2
			c0.3-0.6,0.8-1,1.4-1c0.7,0,1.1,0.3,1.4,1c0.1,0.1,0.1,0.2,0.3,0.2c1,0,1.9,0.8,2,1.8C10.8,46.5,10.7,46.8,10.5,46.9z"/>
		<path class="st1" d="M14.1,45.6c0.1,0.1,0.1,0.2,0.2,0.2c2.4-1.9,4.9-1.9,7.2,0l0.5-0.4c-1.1-1.1-2.6-1.7-4.2-1.6
			c-1.5,0-3,0.7-3.9,1.7C14,45.5,14.1,45.6,14.1,45.6z"/>
		<path class="st1" d="M18,46.7c1,0,1.9,0.5,2.5,1.4l0.5-0.4c-0.7-1.1-1.7-1.7-3-1.7c0,0,0,0-0.1,0c-1.2,0-2.2,0.6-3,1.7l0.5,0.4
			C16.1,47.2,17,46.7,18,46.7z"/>
		<rect x="17.7" y="48.1" class="st1" width="0.9" height="0.9"/>
		<path class="st1" d="M20.1,17.7c-0.9-0.4-1.7-0.9-2.6-1.3c-0.1-0.1-0.3-0.1-0.5-0.2l-0.1,0c-0.7,0-1.2,0.5-1.3,1.2
			c0,1.1,0,2,0,2.9c0,0.4,0.2,0.8,0.6,1c0.4,0.2,0.8,0.2,1.2,0c0.9-0.5,1.9-0.9,2.7-1.4c0.5-0.2,0.7-0.6,0.7-1.1
			C20.8,18.3,20.6,18,20.1,17.7z M19.8,19.4c-0.7,0.4-1.4,0.7-2,1l-0.5,0.2c-0.1,0.1-0.3,0.1-0.4,0.1c-0.1,0-0.2,0-0.3-0.1
			c-0.1-0.1-0.3-0.2-0.3-0.6c0-0.3,0-0.6,0-0.9l0-0.4l0-0.4c0-0.3,0-0.6,0-0.8c0-0.4,0.2-0.5,0.3-0.6c0.1-0.1,0.4-0.1,0.7,0l0.3,0.2
			c0.7,0.4,1.5,0.7,2.2,1.1c0.2,0.1,0.4,0.4,0.4,0.6C20.2,19.1,19.9,19.4,19.8,19.4z"/>
		<rect x="7.6" y="19.7" class="st1" width="0.9" height="0.9"/>
		<rect x="5.1" y="19.7" class="st1" width="0.9" height="0.9"/>
		<rect x="2.4" y="19.7" class="st1" width="0.9" height="0.9"/>
	</g>
</g>
</svg>
