<svg width="100" height="100" viewBox="0 0 100 100" fill="none" xmlns="http://www.w3.org/2000/svg">
<g clip-path="url(#clip0_580_1944)">
<path d="M7.15623 99.8918C6.39286 99.3289 6.13648 98.5829 6.4372 97.6923C6.73599 96.8056 7.5167 96.6456 8.30898 96.6379C11.2256 96.6147 14.1421 96.6263 17.0568 96.6205C18.2674 96.6186 18.3252 96.5646 18.3252 95.3887C18.3271 83.6241 18.3233 71.8595 18.3387 60.0948C18.3387 59.4201 18.119 58.9729 17.5946 58.5488C15.9773 57.2399 15.2004 55.5031 15.1908 53.425C15.185 52.014 15.1773 50.6048 15.1947 49.1938C15.2004 48.6656 15.0848 48.3282 14.5296 48.0834C13.5157 47.6362 13.2651 46.9364 13.6834 45.8762C16.0178 39.9775 18.3753 34.0884 20.7155 28.1917C21.0664 27.3088 21.6678 26.8943 22.6317 26.9097C24.4263 26.9387 26.221 26.9059 28.0157 26.9232C28.6306 26.929 28.8812 26.7652 28.7598 26.0789C27.1367 16.8241 31.9771 8.15919 39.3678 3.95877C49.1604 -1.60452 61.8253 1.74193 67.7452 11.5423C70.4324 15.9894 71.4136 20.7971 70.5886 25.9343C70.4536 26.7729 70.71 26.9406 71.456 26.9271C73.1852 26.8963 74.9162 26.9329 76.6473 26.9117C77.6362 26.9001 78.2723 27.3203 78.6366 28.2476C80.9229 34.0634 83.2284 39.8696 85.5127 45.6854C86.0235 46.9846 85.823 47.5302 84.5893 48.1817C84.1016 48.4381 84.1267 48.814 84.1113 49.2265C84.0496 50.9537 84.2211 52.6848 84.0014 54.412C83.7797 56.1585 82.9759 57.583 81.5918 58.6336C81.0308 59.0596 80.8727 59.5165 80.8727 60.1758C80.8862 71.9404 80.892 83.7051 80.867 95.4697C80.867 96.3468 81.1214 96.6494 82.0101 96.6359C84.8939 96.5935 87.7777 96.6225 90.6635 96.6205C91.5618 96.6205 92.3926 96.7651 92.9439 97.5824C92.9439 98.3516 93.2427 99.4157 92.8591 99.8051C92.4793 100.189 91.4075 99.8918 90.6403 99.8918C62.8142 99.8918 34.9862 99.8918 7.16008 99.8918H7.15623ZM77.667 78.2478C77.667 76.1967 77.667 74.1438 77.667 72.0927C77.667 68.3742 77.6574 64.6557 77.6767 60.9372C77.6805 60.2991 77.5648 59.9502 76.8208 59.8693C75.5485 59.7305 74.4304 59.1579 73.4974 58.2751C73.1794 57.9744 72.9808 57.9551 72.6203 58.25C69.8984 60.4707 67.1091 60.5305 64.3005 58.4023C63.7993 58.0225 63.5159 58.1074 63.0706 58.4486C60.368 60.5131 57.4321 60.4495 54.8201 58.277C54.4924 58.0033 54.3093 57.9512 53.943 58.2442C51.0669 60.5343 48.2544 60.5362 45.3918 58.2519C45.0333 57.9666 44.8501 57.9898 44.5128 58.2674C41.8314 60.4669 38.8705 60.5208 36.1833 58.4062C35.738 58.0553 35.4758 58.0727 35.0363 58.4042C32.2759 60.4881 29.6041 60.4765 26.7511 58.3734C26.3405 58.0707 26.0726 58.0264 25.6851 58.3907C24.8485 59.1811 23.8307 59.7112 22.6991 59.8269C21.7873 59.9194 21.6408 60.33 21.6447 61.128C21.6717 67.1231 21.6582 73.1163 21.6582 79.1114C21.6582 84.4973 21.6582 89.8833 21.6582 95.2673C21.6582 96.1707 22.124 96.6237 23.0558 96.6263C24.0485 96.6263 25.0432 96.6302 26.036 96.6263C27.2967 96.6205 27.3005 96.6186 27.3005 95.3232C27.3044 90.2592 27.2581 85.1932 27.3179 80.1292C27.3892 73.9221 33.1337 69.2397 39.2059 70.3655C44.135 71.2811 47.5315 75.3293 47.5682 80.4261C47.6048 85.3937 47.5759 90.3633 47.5778 95.3328C47.5778 96.6147 47.5894 96.6263 48.8578 96.6263C58.0548 96.6282 67.2537 96.6128 76.4506 96.6475C77.4492 96.6514 77.6882 96.3179 77.6824 95.3714C77.6439 89.6655 77.6632 83.9595 77.6632 78.2536L77.667 78.2478ZM36.0869 34.1501C35.2117 31.4032 36.1582 29.2538 38.4541 28.6794C39.2753 28.4731 39.6685 28.0355 40.0039 27.3184C42.6738 21.6318 45.3803 15.9624 48.0713 10.2854C48.773 8.80496 49.8583 7.80835 51.4987 7.47486C53.5189 7.06234 55.8495 7.98569 56.9888 9.66471C58.2861 11.575 58.2803 13.5143 56.9194 15.4882C53.3377 20.6891 49.7465 25.8842 46.1398 31.0678C45.7272 31.6615 45.4805 32.1781 45.8429 32.9029C46.1012 33.4176 46.0877 34.0133 45.9528 34.5993C45.3475 37.2016 42.8068 38.366 40.4261 37.1072C39.4893 36.6118 38.5775 36.074 37.6522 35.5573C43.2155 41.3597 53.8929 42.524 61.2509 36.18C69.112 29.4022 69.7307 18.0424 62.7448 10.2526C56.2852 3.05083 44.8347 2.5959 37.496 9.34857C29.9569 16.2882 30.2383 27.5266 36.085 34.1501H36.0869ZM49.6347 45.0107C52.3276 45.0107 55.0206 45.0107 57.7136 45.0107C65.3742 45.0107 73.0367 45.0107 80.6973 45.0107C81.2197 45.0107 81.7903 45.1321 81.4241 44.2261C79.6545 39.8252 77.9118 35.4128 76.1769 30.9984C75.9707 30.4721 75.6661 30.2524 75.1013 30.2639C73.7866 30.2909 72.4642 30.368 71.1611 30.2446C69.8772 30.1232 69.2758 30.6013 68.7149 31.7617C64.5511 40.3804 55.3464 45.1051 45.9354 43.3741C38.6912 42.0421 33.4826 37.9245 30.3405 31.249C30.0089 30.5454 29.6446 30.2157 28.8369 30.2524C27.3969 30.316 25.9511 30.314 24.5112 30.2524C23.7035 30.2177 23.316 30.5222 23.0268 31.2605C21.3787 35.4687 19.6842 39.6575 18.0072 43.8541C17.5484 45.001 17.5541 45.0068 18.7647 45.0068C29.0547 45.0068 39.3447 45.0068 49.6347 45.0068V45.0107ZM30.6643 87.6722C30.6643 90.2669 30.6932 92.8635 30.6489 95.4581C30.6335 96.3179 30.8802 96.6475 31.7843 96.6379C35.5645 96.5974 39.3428 96.6032 43.1229 96.6359C43.9441 96.6437 44.2448 96.3988 44.2391 95.543C44.2063 90.4481 44.2429 85.3552 44.214 80.2603C44.1928 76.4685 41.1297 73.4151 37.4382 73.4382C33.7197 73.4613 30.7029 76.4936 30.6701 80.2719C30.6489 82.7393 30.6662 85.2067 30.6643 87.6722ZM54.6235 12.5562C54.6408 11.7447 53.9874 10.9967 53.0409 10.7442C52.1464 10.5052 51.4351 10.8078 50.9994 11.7312C48.2776 17.4911 45.573 23.2606 42.8743 29.0321C42.7644 29.2673 42.4521 29.6027 42.7663 29.7993C43.0998 30.0056 43.227 29.5642 43.3735 29.3541C46.9995 24.1127 50.6158 18.8655 54.2341 13.6203C54.4558 13.3003 54.6389 12.9649 54.6254 12.5582L54.6235 12.5562ZM18.5508 51.4626C18.5508 52.199 18.5373 52.9335 18.5527 53.6698C18.5932 55.4973 19.6939 56.5787 21.5117 56.5941C23.3353 56.6096 24.5324 55.5435 24.5883 53.7739C24.6365 52.2414 24.5902 50.7051 24.6075 49.1706C24.6133 48.6174 24.4225 48.3359 23.8345 48.3417C22.3329 48.3552 20.8293 48.3552 19.3276 48.3417C18.7493 48.3359 18.5296 48.6039 18.545 49.1629C18.5643 49.9301 18.5508 50.6974 18.5508 51.4646V51.4626ZM80.7744 51.5937C80.7744 50.7629 80.7648 49.9301 80.7783 49.0993C80.786 48.5769 80.5566 48.3398 80.0323 48.3417C78.4978 48.3494 76.9634 48.3475 75.429 48.3437C74.9625 48.3437 74.7196 48.5461 74.7234 49.0357C74.735 50.6973 74.6637 52.3648 74.762 54.0226C74.8603 55.692 76.1499 56.6539 77.9697 56.5864C79.6294 56.5267 80.7108 55.4607 80.7687 53.799C80.7937 53.0646 80.7725 52.3282 80.7764 51.5937H80.7744ZM52.6823 51.5802C52.6823 51.5802 52.6881 51.5802 52.69 51.5802C52.69 50.8111 52.6669 50.04 52.6977 49.2728C52.7228 48.6386 52.5146 48.3224 51.8264 48.334C50.3845 48.361 48.9426 48.3552 47.4988 48.3359C46.9012 48.3282 46.6178 48.5383 46.6294 49.1745C46.6544 50.7455 46.6024 52.3166 46.6544 53.8877C46.7084 55.5416 47.9094 56.5787 49.6597 56.5787C51.4062 56.5787 52.5956 55.5339 52.6765 53.8877C52.7151 53.1205 52.6823 52.3494 52.6823 51.5802ZM43.2675 51.6149H43.2714C43.2714 50.7822 43.2617 49.9475 43.2752 49.1147C43.2829 48.5981 43.0709 48.3417 42.5388 48.3437C41.0006 48.3514 39.4623 48.3475 37.924 48.3456C37.4536 48.3456 37.2146 48.5499 37.2184 49.0395C37.2319 50.707 37.1568 52.3783 37.2589 54.038C37.3592 55.6669 38.6469 56.6288 40.4107 56.5749C42.0916 56.5247 43.1981 55.4703 43.2617 53.8241C43.2906 53.0877 43.2675 52.3494 43.2675 51.613V51.6149ZM62.0875 51.5957C62.0875 50.6337 62.0759 49.8646 62.0913 49.0954C62.1029 48.5653 61.8639 48.3398 61.3415 48.3437C59.8359 48.3533 58.3285 48.3552 56.823 48.3437C56.2524 48.3398 56.0134 48.5981 56.0191 49.1591C56.0346 50.7937 55.9921 52.4303 56.0558 54.0631C56.1097 55.4529 57.2027 56.4631 58.6234 56.5691C60.3796 56.7002 61.5901 55.9252 61.939 54.4718C62.1819 53.4578 62.0528 52.4284 62.0894 51.5995L62.0875 51.5957ZM33.8701 51.6843H33.899C33.899 50.8516 33.8913 50.0188 33.9009 49.1861C33.9067 48.6444 33.7023 48.3398 33.1183 48.3437C31.6455 48.3533 30.1728 48.3494 28.6981 48.3437C28.1834 48.3437 27.9251 48.575 27.9289 49.0954C27.9405 50.7937 27.8942 52.494 27.9733 54.1865C28.0407 55.6341 29.2937 56.5941 30.9246 56.5922C32.592 56.5903 33.7448 55.6688 33.8566 54.1787C33.9182 53.3498 33.8681 52.5152 33.8681 51.6824L33.8701 51.6843ZM65.4282 51.6149H65.4436C65.4436 52.4149 65.4069 53.2168 65.4513 54.0149C65.538 55.5995 66.6407 56.5614 68.3332 56.5806C70.0662 56.5999 71.2902 55.6284 71.3616 54.0515C71.4348 52.4226 71.3866 50.788 71.4001 49.1571C71.4059 48.5962 71.1572 48.3398 70.5924 48.3437C69.1524 48.3552 67.7125 48.3571 66.2744 48.3417C65.6556 48.334 65.4108 48.6193 65.4243 49.2169C65.4397 50.0169 65.4282 50.8169 65.4282 51.6169V51.6149ZM39.5239 31.8909C39.2579 31.8967 39.1211 31.968 39.0459 32.1241C38.9456 32.3304 39.0189 32.5232 39.1924 32.6215C40.1273 33.1593 41.068 33.6875 42.0203 34.1964C42.2131 34.3005 42.4772 34.3101 42.5967 34.048C42.7162 33.7877 42.5215 33.62 42.3345 33.5024C41.6907 33.0957 41.0372 32.7005 40.3798 32.3169C40.0811 32.1434 39.7591 32.0046 39.5239 31.889V31.8909Z" fill="white"/>
<path d="M62.5082 89.9446C60.0754 89.9446 57.6408 89.9504 55.208 89.9427C53.7141 89.9369 53.0953 89.3432 53.0914 87.8531C53.0779 82.9529 53.0799 78.0527 53.0914 73.1526C53.0953 71.6914 53.7314 71.0263 55.208 71.0205C60.1063 70.9974 65.0064 70.9993 69.9047 71.0205C71.3177 71.0263 71.9731 71.6779 71.9808 73.1005C72.0059 78.0334 72.0039 82.9645 71.9847 87.8974C71.9789 89.3258 71.3235 89.9388 69.9085 89.9446C67.443 89.9542 64.9775 89.9465 62.512 89.9465L62.5082 89.9446ZM56.4167 80.4604C56.4167 82.1895 56.4379 83.9206 56.4071 85.6497C56.3936 86.361 56.675 86.602 57.3709 86.5981C60.8292 86.5769 64.2894 86.5789 67.7476 86.5962C68.3876 86.6001 68.6748 86.3977 68.669 85.7153C68.6478 82.2242 68.6478 78.7313 68.669 75.2402C68.6729 74.5675 68.4184 74.3496 67.763 74.3535C64.3048 74.3747 60.8446 74.3805 57.3863 74.3496C56.6095 74.3419 56.3878 74.6407 56.4032 75.3694C56.4379 77.0658 56.4148 78.764 56.4148 80.4623L56.4167 80.4604Z" fill="white"/>
<path d="M63.5768 30.667C63.573 34.1002 60.8222 36.8568 57.416 36.8452C54.0579 36.8336 51.3168 34.0038 51.336 30.5648C51.3534 27.2473 54.0791 24.5331 57.4237 24.5042C60.88 24.4733 63.5826 27.1779 63.5768 30.667ZM57.4796 33.4891C59.1875 33.4891 60.3133 32.3595 60.2901 30.6728C60.2651 29.0015 59.0873 27.8044 57.4661 27.8063C55.814 27.8063 54.6767 28.9802 54.6844 30.6728C54.6921 32.4096 55.7639 33.4891 57.4815 33.4891H57.4796Z" fill="white"/>
<path d="M38.4043 85.2109C38.4255 83.2639 38.9325 82.5314 40.064 82.5391C41.2014 82.5468 41.8163 83.4316 41.7662 85.0528C41.7508 85.529 41.6891 86.0147 41.5599 86.4716C41.344 87.2292 40.8235 87.6513 40.0023 87.6282C39.1734 87.607 38.6973 87.1328 38.5219 86.3733C38.4139 85.9106 38.4236 85.421 38.4062 85.209L38.4043 85.2109Z" fill="white"/>
<path d="M67.0853 81.8141C67.0256 82.6275 66.6786 83.2039 65.9268 83.4545C65.1943 83.6993 64.5523 83.4333 64.1707 82.8222C63.309 81.442 62.4897 80.0329 61.7244 78.5968C61.3293 77.8546 61.6377 77.0276 62.3548 76.619C63.0642 76.2141 63.8487 76.1698 64.3557 76.8464C65.387 78.2266 66.1754 79.7707 66.9851 81.2917C67.0699 81.4517 67.0583 81.6637 67.0834 81.8141H67.0853Z" fill="white"/>
<path d="M61.8142 83.1516C61.8104 83.9554 61.0007 84.7111 60.1564 84.6995C59.2774 84.686 57.9473 83.1419 57.9203 82.1029C57.8991 81.2393 58.7704 80.4046 59.6822 80.4181C60.6248 80.4316 61.82 81.9622 61.8142 83.1516Z" fill="white"/>
</g>
<defs>
<clipPath id="clip0_580_1944">
<rect width="87.0484" height="99" fill="white" transform="translate(6 1)"/>
</clipPath>
</defs>
</svg>
