<svg width="295" height="58" viewBox="0 0 295 58" fill="none" xmlns="http://www.w3.org/2000/svg">
<g clip-path="url(#clip0_2642_658)">
<path d="M118.363 51.1363C118.828 50.4124 118.571 49.5894 118.571 48.8259C118.59 34.7058 118.63 20.5857 118.546 6.46558C118.536 4.39318 119.125 3.80815 121.181 3.84781C128.685 3.98663 136.199 3.82798 143.703 4.00646C148.533 4.12049 152.971 5.50375 156.265 9.3957C162.313 16.54 160.772 31.9889 148.568 35.1322C143.282 36.4907 137.918 36.1684 132.573 36.1337C130.439 36.1188 129.656 36.6989 129.725 38.92C129.874 43.6201 129.725 48.3301 129.795 53.0401C129.814 54.5325 129.349 55.0679 127.818 55.053C121.547 54.9886 115.277 54.9985 109.006 55.053C107.723 55.063 107.089 54.5672 106.638 53.3971C105.246 49.7828 103.671 46.2429 102.344 42.6087C101.873 41.3197 101.15 41.0321 99.9561 41.0371C95.6666 41.0718 91.3721 41.1114 87.0875 41.0222C85.5619 40.9924 84.9031 41.6221 84.4276 42.9805C83.2042 46.4858 81.7974 49.9216 80.5789 53.4269C80.1529 54.6465 79.5387 55.1026 78.2558 55.058C75.6999 54.9688 73.1342 54.9192 70.5832 55.0679C68.5623 55.1819 68.4335 54.5126 69.0972 52.8369C73.3521 42.103 77.5327 31.3443 81.7479 20.5956C83.7044 15.603 85.7204 10.6352 87.6076 5.62274C88.093 4.32873 88.7568 3.76848 90.1437 3.88251C91.4563 3.98663 92.7838 3.90235 94.1014 3.90235C98.4008 3.90235 98.3414 3.93209 100.021 7.97774C105.905 22.1425 111.834 36.2874 117.753 50.4323C117.867 50.705 117.847 51.1165 118.358 51.1512L118.363 51.1363ZM137.537 13.9471C135.248 13.9471 133.356 13.9719 131.459 13.9371C130.384 13.9173 129.844 14.2098 129.745 15.4394C129.497 18.4885 129.433 21.5178 129.765 24.5619C129.849 25.3403 129.864 26.1385 130.904 26.1088C135.575 25.9799 140.301 26.7037 144.902 25.3701C147.498 24.6165 148.776 22.4796 148.622 19.4206C148.478 16.4805 147.092 14.894 144.283 14.2495C141.91 13.7091 139.523 14.0809 137.542 13.9471H137.537ZM93.7002 19.8569L93.0859 19.9164C91.7634 23.3274 90.4459 26.7335 89.1184 30.1396C88.8113 30.9229 89.1679 31.2154 89.8911 31.2154C92.1102 31.2254 94.3243 31.2254 96.5433 31.2154C97.1427 31.2154 97.8758 31.1113 97.5835 30.2933C96.3353 26.793 95.0029 23.3274 93.7002 19.847V19.8569Z" fill="#9A9A9A"/>
<path d="M51.5482 55.9702C44.4402 55.8462 39.1501 54.8546 34.6624 51.3246C30.0014 47.6558 28.0894 42.6631 28.0003 36.8525C27.9904 36.1683 28.238 35.732 28.9414 35.6576C31.7202 35.3552 34.499 35.0478 37.2778 34.785C38.0356 34.7156 38.5656 35.1321 38.6201 35.9204C38.8381 39.1777 39.6256 42.1624 42.771 43.8332C46.585 45.856 50.6417 46.0791 54.7876 45.0925C56.0755 44.7851 57.2741 44.2497 58.2698 43.3176C60.6028 41.1361 60.3056 38.0473 57.4871 36.55C54.4012 34.909 50.934 34.438 47.5905 33.5852C43.7616 32.6135 39.8881 31.7359 36.4803 29.604C26.861 23.5802 28.4213 11.4581 36.5843 6.16801C43.6675 1.57699 56.3776 2.04799 63.119 7.11001C67.3887 10.3128 69.0134 14.879 69.3057 20.0402C69.3651 21.0715 68.9094 21.5573 67.894 21.6268C65.348 21.8052 62.807 22.0135 60.2659 22.2118C59.1911 22.2961 58.7354 21.9391 58.5125 20.7443C57.4227 14.7997 55.5801 13.3074 49.5371 13.2033C47.4667 13.1686 45.4011 13.2826 43.4743 14.1304C41.8546 14.8394 40.7153 16.0293 40.7401 17.8935C40.7649 19.7328 42.0329 20.5707 43.6427 21.131C48.1651 22.7076 52.9103 23.4265 57.4871 24.7899C60.4294 25.6674 63.223 26.8326 65.6452 28.781C73.3376 34.9784 71.8219 47.8541 62.7822 52.8219C58.775 55.0232 54.5746 56.2032 51.5482 55.9652V55.9702Z" fill="#9A9A9A"/>
<path d="M189.855 40.3728C189.706 45.7918 187.963 50.8141 182.316 53.3774C177.031 55.777 171.746 55.4002 167.293 51.4735C162.374 47.1453 161.73 41.3991 163.182 35.3702C164.816 28.5878 170.403 24.7157 177.294 25.3206C184.283 25.9354 189.053 30.7098 189.721 37.76C189.791 38.4987 189.801 39.2424 189.855 40.3728ZM185.199 39.8968C185.303 38.3846 184.971 36.932 184.52 35.519C183.445 32.1674 181.147 30.0455 177.695 29.4356C174.455 28.8655 171.691 30.0058 169.462 32.4005C166.842 35.2265 166.064 44.7357 170.136 48.2658C171.597 49.535 173.207 50.4423 175.203 50.5861C181.301 51.0323 185.268 46.8131 185.199 39.8968Z" fill="white"/>
<path d="M225.303 45.1572C223.406 45.1572 221.514 45.1819 219.617 45.1572C218.339 45.1373 217.829 45.4596 218.274 46.9122C218.958 49.1433 220.399 50.4373 222.594 50.834C224.768 51.2306 226.601 50.4076 227.537 48.4046C228.647 46.0397 230.365 47.0064 231.931 47.3882C233.05 47.6609 232.495 48.5285 232.228 49.1978C230.801 52.7427 227.289 54.8647 223.129 54.6862C218.448 54.4879 215.218 52.2965 214.02 48.4343C213.168 45.6926 213.128 42.9013 213.811 40.1249C215.109 34.8298 219.859 31.984 225.392 33.1342C230.133 34.1209 233.342 38.9846 232.669 43.9772C232.53 45.0233 232.074 45.1671 231.242 45.1572C229.266 45.1423 227.284 45.1522 225.308 45.1572H225.303ZM222.94 41.4536V41.4635C224.085 41.4635 225.234 41.4238 226.378 41.4734C228.221 41.5528 228.255 40.6603 227.626 39.3267C226.764 37.4972 225.244 36.6692 223.307 36.5899C221.34 36.5106 219.805 37.4526 218.809 39.0788C217.715 40.8586 218.116 41.4387 220.236 41.4536C221.137 41.4586 222.039 41.4536 222.935 41.4536H222.94Z" fill="white"/>
<path d="M193.097 43.9125C193.097 41.1906 193.063 38.4687 193.117 35.7469C193.132 34.9238 192.632 33.6844 193.89 33.4563C194.935 33.2679 196.436 32.7424 197.065 33.8728C197.64 34.8991 197.981 34.4875 198.511 34.1355C199.943 33.1787 201.533 32.8564 203.212 32.8861C207.571 32.9605 210.052 35.1519 210.251 39.5C210.449 43.9472 210.31 48.4044 210.384 52.8615C210.419 55.0381 208.849 54.2398 207.779 54.3935C206.432 54.5819 205.887 54.1109 205.926 52.6335C206.03 48.8407 205.976 45.0429 205.951 41.2501C205.931 38.4043 204.713 36.8921 202.434 36.7781C199.943 36.6541 197.763 38.5332 197.689 41.1311C197.58 44.9239 197.55 48.7217 197.679 52.5145C197.744 54.4034 196.763 54.4629 195.391 54.4332C194.113 54.4034 192.949 54.5819 193.068 52.5839C193.236 49.7083 193.112 46.8129 193.107 43.9224L193.097 43.9125Z" fill="white"/>
<path d="M163.286 12.8465C163.286 10.4568 163.37 8.06709 163.256 5.68233C163.177 3.98177 163.905 3.55539 165.455 3.63968C167.342 3.73884 169.239 3.61985 171.132 3.64959C176.238 3.72892 178.358 7.21433 175.966 11.6764C175.57 12.4152 175.52 12.7077 176.199 13.2382C178.274 14.8644 178.309 17.1599 177.556 19.3067C176.783 21.503 174.866 22.5739 172.518 22.6235C170.052 22.678 167.58 22.5937 165.113 22.6731C163.677 22.7177 163.241 22.0831 163.266 20.7494C163.315 18.1168 163.281 15.4792 163.281 12.8415H163.291L163.286 12.8465ZM169.586 20.1396C170.483 20.1396 171.156 20.2288 171.8 20.1247C173.529 19.8421 175 19.2769 174.985 17.0806C174.97 15.0676 173.836 14.433 172.038 14.1752C170.636 13.9769 169.254 13.962 167.857 13.9521C167.367 13.9521 166.743 13.9422 166.649 14.5421C166.401 16.1733 166.163 17.9085 166.713 19.4306C167.194 20.7692 168.764 19.9165 169.591 20.1445L169.586 20.1396ZM169.675 11.3492C170.498 11.3492 171.345 11.4732 172.137 11.3244C174.099 10.9625 174.891 8.87027 173.697 7.37298C172.969 6.45577 167.743 5.81124 166.906 6.57476C166.693 6.76812 166.599 7.135 166.53 7.44239C165.822 10.551 166.505 11.4137 169.67 11.3492H169.675Z" fill="#9A9A9A"/>
<path d="M235.058 16.5747C234.067 16.5747 233.077 16.5499 232.086 16.5896C231.472 16.6144 230.684 16.3566 230.402 17.2143C230.174 17.9084 230.555 18.5133 230.922 19.0537C232.076 20.7542 234.592 20.9773 236.098 19.5197C236.45 19.1776 236.693 18.7314 237.015 18.3596C237.698 17.5762 238.624 17.8142 239.288 18.1662C240.249 18.6719 239.531 19.485 239.239 20.08C237.733 23.1241 232.978 24.0165 229.921 21.8698C227.009 19.8222 227.143 16.773 227.484 13.8033C227.782 11.2103 229.396 9.51467 231.947 8.75115C236.172 7.48688 240.259 10.7442 240.046 15.1716C239.991 16.2772 239.511 16.6094 238.515 16.5846C237.361 16.5549 236.207 16.5797 235.053 16.5846L235.058 16.5747ZM233.953 14.4627C234.815 13.6743 236.752 15.1915 236.92 13.5405C237.084 11.9143 235.652 10.8136 233.77 10.8186C232.086 10.8186 230.095 12.2316 230.456 13.3868C231.031 15.2311 232.735 13.8132 233.953 14.4627Z" fill="#9A9A9A"/>
<path d="M199.796 8.38924C201.356 8.6173 203.06 8.8057 204.194 10.1394C204.709 10.7442 205.536 11.8052 204.724 12.5142C203.986 13.1637 202.862 13.4364 202.074 12.0383C201.257 10.5905 199.756 10.65 198.334 10.9921C197.77 11.126 197.299 11.5573 197.245 12.2019C197.19 12.891 197.661 13.2381 198.25 13.4265C199.895 13.952 201.589 14.3586 203.179 15.013C205.531 15.9847 206.289 18.2654 205.081 20.4964C204.006 22.4846 202.049 23.0745 200.043 23.0051C197.928 22.9308 195.684 22.6482 194.644 20.2684C194.327 19.5445 193.733 18.6521 194.783 18.1365C195.59 17.7398 196.551 17.6357 197.051 18.8058C197.839 20.6402 199.434 20.6204 201.034 20.3874C201.896 20.2585 202.614 19.718 202.624 18.7661C202.634 17.9084 201.95 17.5217 201.192 17.3035C200.088 16.9813 198.988 16.6293 197.879 16.3268C195.877 15.7815 194.258 14.6907 194.367 12.4696C194.486 10.0749 196.274 8.97923 198.473 8.53301C198.874 8.45369 199.29 8.43881 199.781 8.38428L199.796 8.38924Z" fill="#9A9A9A"/>
<path d="M247.311 8.42383C248.812 8.73618 250.739 8.77088 251.819 10.5309C252.195 11.1408 253.037 12.0877 251.982 12.6331C251.289 12.9901 250.13 13.5701 249.486 12.1472C248.807 10.64 247.415 10.6945 246.073 10.9325C245.399 11.0515 244.815 11.4878 244.731 12.2166C244.632 13.0446 245.285 13.3173 245.944 13.5255C247.361 13.9717 248.768 14.4378 250.184 14.8741C251.725 15.3451 252.804 16.1978 252.983 17.9331C253.171 19.7725 252.453 21.1359 250.907 22.0928C248.025 23.8776 243.398 23.0298 242.115 20.412C241.803 19.7725 240.971 18.8553 241.952 18.2355C242.799 17.7001 243.79 17.6505 244.428 18.88C245.295 20.5509 246.88 20.6798 248.51 20.3922C249.362 20.2435 250.105 19.7526 250.12 18.7858C250.135 17.9232 249.431 17.5365 248.683 17.3134C247.737 17.0308 246.796 16.6936 245.825 16.5201C242.715 15.9698 241.828 14.8096 241.927 12.0877C242.006 9.92607 244.22 8.44862 247.311 8.42879V8.42383Z" fill="#9A9A9A"/>
<path d="M260.332 8.43385C261.768 8.63712 263.537 8.81065 264.622 10.422C265.048 11.0566 265.85 11.9193 264.993 12.5737C264.319 13.0943 263.235 13.1439 262.596 12.187C261.739 10.9078 260.51 10.6599 259.123 10.8831C258.346 11.007 257.697 11.4284 257.628 12.2861C257.558 13.1191 258.262 13.3918 258.886 13.595C260.372 14.0859 261.902 14.4379 263.363 14.9832C266.063 15.9897 266.801 18.7314 265.048 20.9724C262.685 23.9917 256.672 23.6298 255.022 20.3279C254.695 19.6784 253.843 18.7859 254.883 18.191C255.701 17.725 256.716 17.5415 257.34 18.8504C258.158 20.5609 259.762 20.6551 261.392 20.3923C262.274 20.2485 262.952 19.723 262.967 18.7661C262.982 17.8836 262.308 17.5118 261.536 17.3085C260.58 17.0606 259.619 16.8325 258.668 16.5599C255.978 15.7815 254.462 14.1255 254.69 12.2366C254.953 10.06 257.266 8.40906 260.337 8.42889L260.332 8.43385Z" fill="#9A9A9A"/>
<path d="M213.599 15.6723C213.599 13.937 213.614 12.2067 213.599 10.4715C213.589 9.53937 213.787 8.69157 214.931 8.92955C216.536 9.26173 217.987 8.80064 219.523 8.51308C222.634 7.92805 224.763 9.80214 224.833 13.0198C224.887 15.5781 224.853 18.1364 224.867 20.6996C224.872 21.716 224.991 22.7076 223.426 22.6679C221.792 22.6282 222.133 21.5078 222.123 20.5757C222.104 18.3446 222.099 16.1185 222.123 13.8875C222.138 12.2613 221.44 11.0565 219.805 10.9226C218.275 10.7987 217.13 11.701 216.719 13.2528C216.07 15.6872 216.487 18.181 216.392 20.65C216.353 21.6416 216.561 22.6778 214.986 22.6679C213.406 22.658 213.609 21.6069 213.604 20.6252C213.599 18.9743 213.604 17.3233 213.604 15.6723H213.599Z" fill="#9A9A9A"/>
<path d="M191.998 15.6031C191.998 17.4177 191.978 19.2372 192.008 21.0518C192.022 22.1921 191.379 23.0895 190.418 22.5689C188.862 21.7211 187.683 22.5392 186.346 22.8466C183.245 23.5655 180.679 21.6567 180.571 18.4935C180.481 15.8559 180.551 13.2134 180.501 10.5708C180.481 9.50485 180.704 8.8504 181.987 8.87519C183.196 8.89998 183.275 9.59409 183.27 10.5014C183.25 12.7275 183.26 14.9585 183.26 17.1846C183.26 18.796 183.597 20.2734 185.524 20.4222C187.441 20.5709 188.59 19.5595 188.976 17.6309C189.437 15.3353 189.15 13.02 189.229 10.7195C189.264 9.81719 189.08 8.86528 190.527 8.87519C191.829 8.88511 191.998 9.64862 191.998 10.6501C191.998 12.3011 191.998 13.9521 191.998 15.6031Z" fill="#9A9A9A"/>
<path d="M210.553 15.6772C210.553 17.4125 210.563 19.1428 210.553 20.8781C210.548 21.6862 210.716 22.6034 209.433 22.6481C208.264 22.6927 207.804 22.1523 207.809 21.0169C207.828 17.467 207.833 13.9172 207.809 10.3673C207.804 9.34104 208.165 8.875 209.25 8.875C210.439 8.875 210.568 9.55423 210.558 10.4814C210.538 12.2166 210.553 13.9469 210.553 15.6822V15.6772Z" fill="#9A9A9A"/>
<path d="M210.532 5.33032C210.656 6.38636 210.196 6.81274 209.141 6.82265C208.006 6.82761 207.803 6.22771 207.793 5.27083C207.778 4.13051 208.239 3.64464 209.393 3.65951C210.646 3.67934 210.587 4.4974 210.537 5.33032H210.532Z" fill="#9A9A9A"/>
</g>
<defs>
<clipPath id="clip0_2642_658">
<rect width="238" height="53" fill="white" transform="translate(28 3)"/>
</clipPath>
</defs>
</svg>
