<svg width="216" height="207" viewBox="0 0 216 207" fill="none" xmlns="http://www.w3.org/2000/svg">
<g clip-path="url(#clip0_5535_1951)">
<rect width="216" height="206.929" fill="#151517"/>
<g clip-path="url(#clip1_5535_1951)">
<path d="M66.8386 119.077C66.8386 117.2 66.6339 114.947 66.6339 113.309C66.1561 114.845 65.644 116.551 64.9614 118.394L62.6406 124.879H61.3095L59.1596 118.497C58.5453 116.585 57.9992 114.879 57.6237 113.309C57.6237 114.981 57.6237 117.2 57.3848 119.213L57.0094 124.981H55.3711L56.2926 111.568H58.477L60.7636 118.053C61.3096 119.725 61.7534 121.193 62.0946 122.558C62.4701 121.227 62.9478 119.759 63.528 118.053L65.8829 111.568H68.0672L68.9205 124.981H67.214L66.8386 119.077Z" fill="white"/>
<path d="M72.5368 113.581C72.3888 113.572 72.2439 113.535 72.1106 113.47C71.9772 113.405 71.8581 113.315 71.7598 113.204C71.6615 113.093 71.5859 112.963 71.5377 112.823C71.4895 112.683 71.4695 112.535 71.4788 112.387C71.4957 112.106 71.6172 111.841 71.8193 111.646C72.0215 111.45 72.2896 111.337 72.5709 111.329C72.7099 111.324 72.8483 111.347 72.9784 111.396C73.1085 111.445 73.2277 111.519 73.3292 111.614C73.4306 111.709 73.5123 111.823 73.5695 111.95C73.6268 112.077 73.6587 112.214 73.6631 112.353V112.353C73.6676 112.496 73.6438 112.639 73.5931 112.773C73.5424 112.907 73.4657 113.03 73.3675 113.135C73.2692 113.24 73.1513 113.324 73.0204 113.383C72.8896 113.442 72.7485 113.474 72.6051 113.479L72.5368 113.581ZM71.6835 115.356H73.3558V124.98H71.6152L71.6835 115.356Z" fill="white"/>
<path d="M83.1162 124.743C82.2533 125.11 81.3239 125.296 80.3859 125.289C79.1783 125.345 77.9977 124.92 77.1023 124.108C76.207 123.295 75.6696 122.162 75.6077 120.954V120.374C75.5426 119.076 75.9946 117.805 76.8645 116.839C77.7344 115.873 78.9515 115.291 80.2495 115.221H80.7613C81.585 115.219 82.3997 115.393 83.1504 115.733L82.775 117.064C82.1463 116.764 81.4575 116.613 80.7613 116.62C79.8561 116.62 78.9881 116.98 78.348 117.62C77.708 118.26 77.3484 119.128 77.3484 120.033C77.3315 120.157 77.3315 120.284 77.3484 120.408C77.298 121.27 77.5764 122.12 78.1274 122.785C78.6784 123.45 79.4611 123.881 80.3176 123.992H80.659C81.3906 123.988 82.1126 123.825 82.775 123.514L83.1162 124.743Z" fill="white"/>
<path d="M85.1602 118.359C85.1602 117.199 85.1602 116.243 85.1602 115.356H86.6618V117.233C86.8354 116.65 87.1837 116.135 87.6599 115.756C88.136 115.378 88.7168 115.155 89.3238 115.117H89.8017V116.755H89.1874C88.5941 116.771 88.0278 117.007 87.5988 117.417C87.1698 117.827 86.9088 118.382 86.8666 118.974C86.8497 119.247 86.8497 119.52 86.8666 119.793V124.946H85.1602V118.359Z" fill="white"/>
<path d="M95.4054 125.185C94.8036 125.194 94.2059 125.083 93.6473 124.859C93.0887 124.635 92.5802 124.302 92.1514 123.879C91.7227 123.457 91.3822 122.954 91.1499 122.398C90.9175 121.843 90.7978 121.247 90.7978 120.645V120.236C90.6936 118.997 91.0837 117.767 91.8829 116.814C92.6821 115.861 93.8256 115.263 95.064 115.151H95.5418C96.7431 115.141 97.8997 115.605 98.7619 116.442C99.624 117.278 100.122 118.42 100.149 119.621V120.099C100.206 120.716 100.14 121.337 99.9559 121.928C99.7719 122.519 99.4734 123.068 99.0772 123.543C98.681 124.019 98.1951 124.411 97.647 124.699C97.0989 124.986 96.4994 125.163 95.883 125.219L95.4054 125.185ZM95.4054 123.888C97.0777 123.888 98.3063 122.318 98.3063 120.133C98.3063 118.495 97.5212 116.447 95.4394 116.447C93.3575 116.447 92.5385 118.359 92.5385 120.202C92.5385 122.045 93.7331 123.888 95.4054 123.888Z" fill="white"/>
<path d="M102.088 123.205C102.796 123.616 103.592 123.85 104.409 123.888C105.638 123.888 106.218 123.239 106.218 122.454C106.218 121.669 105.74 121.157 104.477 120.68C103.215 120.202 101.918 119.11 101.918 117.949C101.935 117.559 102.03 117.176 102.195 116.823C102.361 116.469 102.595 116.152 102.883 115.889C103.171 115.626 103.509 115.422 103.876 115.29C104.244 115.157 104.634 115.098 105.024 115.117H105.228C106.042 115.114 106.843 115.326 107.549 115.731L107.14 116.96C106.551 116.609 105.879 116.421 105.194 116.413C104.17 116.413 103.624 116.994 103.624 117.71C103.624 118.427 104.17 118.905 105.399 119.383C106.628 119.861 107.89 120.85 107.89 122.284C107.89 123.717 106.593 125.219 104.477 125.219C103.536 125.219 102.609 124.984 101.781 124.536L102.088 123.205Z" fill="white"/>
<path d="M114.034 125.185C113.432 125.194 112.835 125.083 112.276 124.859C111.718 124.635 111.209 124.302 110.78 123.879C110.352 123.457 110.011 122.954 109.779 122.398C109.546 121.843 109.427 121.247 109.427 120.645V120.236C109.323 118.997 109.713 117.767 110.512 116.814C111.311 115.861 112.455 115.263 113.693 115.151H114.307C115.508 115.141 116.665 115.605 117.527 116.442C118.389 117.278 118.888 118.42 118.915 119.621V120.099C118.971 120.716 118.905 121.337 118.721 121.928C118.537 122.519 118.239 123.068 117.843 123.543C117.446 124.019 116.96 124.411 116.412 124.699C115.864 124.986 115.265 125.163 114.648 125.219L114.034 125.185ZM114.034 123.888C115.706 123.888 116.935 122.318 116.935 120.133C116.935 118.495 116.15 116.447 114.068 116.447C111.986 116.447 111.167 118.359 111.167 120.202C111.167 122.045 112.362 123.888 114.034 123.888Z" fill="white"/>
<path d="M121.132 124.982V116.688H119.801V115.357H121.132V114.879C121.073 114.264 121.143 113.642 121.337 113.055C121.531 112.467 121.845 111.927 122.258 111.467C122.561 111.174 122.92 110.945 123.312 110.793C123.705 110.641 124.124 110.568 124.545 110.579C125.059 110.567 125.57 110.66 126.046 110.852L125.808 112.183C125.449 112.043 125.066 111.974 124.681 111.978C123.248 111.978 122.838 113.275 122.838 114.777V115.289H125.159V116.62H122.872V124.913L121.132 124.982Z" fill="white"/>
<path d="M129.023 113.035V115.356H131.378V116.687H128.887V121.875C128.887 123.069 129.228 123.752 130.184 123.752C130.523 123.803 130.868 123.803 131.208 123.752V125.083C130.717 125.264 130.194 125.345 129.672 125.322C129.327 125.333 128.983 125.275 128.661 125.152C128.339 125.029 128.044 124.843 127.795 124.605C127.285 123.866 127.044 122.975 127.112 122.079V116.823H125.645V115.492H127.112V113.718L129.023 113.035Z" fill="white"/>
<path d="M55.6396 129.246C56.846 129.041 58.0677 128.938 59.2915 128.939C61.2357 128.795 63.1624 129.393 64.6839 130.611C65.3246 131.238 65.8235 131.995 66.1473 132.831C66.4711 133.667 66.6122 134.563 66.561 135.458C66.6037 136.406 66.4565 137.353 66.1283 138.244C65.8002 139.135 65.2975 139.951 64.6498 140.645C63.0101 142.038 60.8917 142.736 58.7453 142.591C57.7214 142.591 56.6635 142.591 55.6055 142.591L55.6396 129.246ZM57.3803 141.089C57.9479 141.141 58.5191 141.141 59.0867 141.089C59.7552 141.17 60.4331 141.117 61.081 140.933C61.729 140.75 62.334 140.44 62.861 140.021C63.3881 139.602 63.8267 139.082 64.1513 138.492C64.4759 137.902 64.6801 137.254 64.7521 136.584C64.7862 136.198 64.7862 135.81 64.7521 135.424C64.8181 134.805 64.7608 134.179 64.5833 133.582C64.4059 132.985 64.112 132.429 63.7184 131.947C63.3249 131.465 62.8394 131.065 62.2905 130.771C61.7415 130.478 61.1398 130.296 60.5201 130.236C60.135 130.185 59.7449 130.185 59.3598 130.236C58.6853 130.243 58.0122 130.3 57.3461 130.407L57.3803 141.089Z" fill="white"/>
<path d="M69.9415 132.831L72.0233 138.531C72.2622 139.145 72.5011 139.896 72.6718 140.476C72.8424 139.896 73.0472 139.179 73.2861 138.462L75.1633 132.831H77.0062L74.4124 139.657C73.7584 141.908 72.59 143.976 70.9995 145.698C70.3812 146.237 69.6446 146.623 68.8493 146.824L68.4398 145.356C68.9918 145.174 69.5022 144.884 69.9415 144.503C70.5614 143.964 71.0613 143.302 71.409 142.558C71.4283 142.411 71.4283 142.261 71.409 142.114C71.4237 141.978 71.4237 141.841 71.409 141.705L67.9961 132.797L69.9415 132.831Z" fill="white"/>
<path d="M78.5156 135.425C78.5156 134.401 78.5156 133.616 78.5156 132.831H80.0515V134.401C80.3696 133.85 80.8273 133.392 81.3786 133.075C81.9299 132.757 82.5551 132.591 83.1913 132.592C84.5223 132.592 86.6042 133.411 86.6042 136.687V142.455H84.8636V136.892C84.8636 135.356 84.2833 134.025 82.6451 134.025C82.1178 134.046 81.6105 134.232 81.1943 134.557C80.778 134.881 80.4737 135.328 80.3244 135.834C80.2915 136.106 80.2915 136.381 80.3244 136.653V142.455H78.5839L78.5156 135.425Z" fill="white"/>
<path d="M96.1911 140.135C96.1221 140.907 96.1221 141.683 96.1911 142.456H94.6211V141.261C94.2786 141.713 93.8345 142.079 93.3246 142.328C92.8147 142.577 92.2534 142.702 91.6861 142.694C91.3273 142.718 90.9676 142.67 90.6274 142.553C90.2873 142.437 89.9735 142.255 89.704 142.017C89.4345 141.779 89.2145 141.491 89.0568 141.167C88.8991 140.844 88.8069 140.493 88.7852 140.135V139.896C88.7852 137.575 90.8329 136.312 94.5188 136.483V136.244C94.5783 135.73 94.4377 135.213 94.1264 134.8C93.815 134.387 93.3569 134.11 92.8465 134.026H92.3345C91.4531 134.025 90.5895 134.273 89.8432 134.742L89.4676 133.582C90.4165 133.016 91.5026 132.721 92.6076 132.729C95.5427 132.729 96.2594 134.742 96.2594 136.688L96.1911 140.135ZM94.4847 137.541C92.5734 137.541 90.4233 137.848 90.4233 139.725C90.3949 140.127 90.5256 140.524 90.7874 140.831C91.0492 141.137 91.4209 141.329 91.8225 141.363H92.0614C92.5731 141.379 93.0765 141.232 93.4996 140.944C93.9226 140.656 94.2436 140.241 94.4163 139.759C94.4329 139.578 94.4329 139.395 94.4163 139.213L94.4847 137.541Z" fill="white"/>
<path d="M98.9531 135.425C98.9531 134.401 98.9531 133.616 98.9531 132.831H100.455V134.367C100.752 133.823 101.192 133.371 101.727 133.058C102.263 132.745 102.873 132.584 103.492 132.592C104.084 132.598 104.658 132.789 105.135 133.138C105.613 133.486 105.969 133.976 106.154 134.537C106.409 134.043 106.771 133.612 107.212 133.275C107.826 132.829 108.571 132.601 109.328 132.626C110.591 132.626 112.468 133.445 112.468 136.79V142.455H110.898V136.995C110.898 135.152 110.216 134.025 108.851 134.025C108.384 134.056 107.936 134.224 107.565 134.51C107.194 134.796 106.917 135.186 106.769 135.63C106.72 135.912 106.72 136.2 106.769 136.483V142.455H105.062V136.688C105.062 135.118 104.414 134.025 103.083 134.025C102.584 134.059 102.108 134.248 101.722 134.567C101.336 134.885 101.06 135.317 100.933 135.8C100.881 136.082 100.881 136.371 100.933 136.653V142.455H99.2262L98.9531 135.425Z" fill="white"/>
<path d="M116.224 131.057C115.925 131.057 115.639 130.939 115.428 130.727C115.216 130.516 115.098 130.23 115.098 129.931C115.107 129.629 115.233 129.343 115.449 129.132C115.666 128.922 115.956 128.805 116.258 128.805C116.557 128.805 116.843 128.923 117.054 129.135C117.266 129.346 117.384 129.632 117.384 129.931C117.384 130.23 117.266 130.516 117.054 130.727C116.843 130.939 116.557 131.057 116.258 131.057H116.224ZM115.405 132.832H117.146V142.456H115.405V132.832Z" fill="white"/>
<path d="M126.833 142.114C125.961 142.493 125.02 142.69 124.069 142.694C123.47 142.722 122.871 142.63 122.308 142.425C121.745 142.22 121.227 141.905 120.786 141.499C120.345 141.093 119.989 140.603 119.738 140.059C119.487 139.514 119.347 138.925 119.325 138.326C119.308 138.133 119.308 137.939 119.325 137.746C119.293 137.105 119.387 136.464 119.603 135.859C119.819 135.255 120.153 134.699 120.584 134.223C121.015 133.748 121.535 133.362 122.116 133.088C122.696 132.814 123.325 132.657 123.967 132.626H124.547C125.385 132.587 126.219 132.764 126.97 133.138L126.56 134.469C125.941 134.14 125.248 133.976 124.547 133.992C123.642 133.992 122.774 134.351 122.133 134.991C121.493 135.631 121.134 136.499 121.134 137.405V137.814C121.083 138.676 121.362 139.525 121.913 140.19C122.464 140.855 123.247 141.287 124.103 141.398H124.547C125.276 141.402 125.997 141.251 126.663 140.954L126.833 142.114Z" fill="white"/>
<path d="M128.612 140.682C129.319 141.093 130.115 141.327 130.933 141.364C132.161 141.364 132.742 140.75 132.742 139.931C132.742 139.112 132.264 138.634 131.001 138.156C129.738 137.678 128.475 136.586 128.475 135.426C128.489 135.037 128.579 134.655 128.741 134.302C128.903 133.949 129.133 133.631 129.419 133.367C129.705 133.104 130.04 132.9 130.405 132.767C130.771 132.634 131.159 132.575 131.547 132.593H131.752C132.566 132.586 133.368 132.798 134.073 133.207L133.663 134.436C133.068 134.101 132.4 133.914 131.718 133.89C131.526 133.866 131.331 133.883 131.146 133.938C130.96 133.993 130.788 134.086 130.641 134.211C130.493 134.336 130.373 134.491 130.289 134.665C130.204 134.838 130.156 135.028 130.148 135.221C130.148 136.006 130.694 136.381 131.922 136.859C133.151 137.337 134.414 138.327 134.414 139.76C134.414 141.194 133.117 142.695 131.001 142.695C130.06 142.695 129.133 142.461 128.305 142.013L128.612 140.682Z" fill="white"/>
<path d="M142.907 142.181C142.116 142.499 141.268 142.65 140.416 142.625C139.832 142.662 139.247 142.582 138.694 142.39C138.142 142.198 137.633 141.898 137.197 141.507C136.762 141.116 136.409 140.642 136.159 140.114C135.909 139.585 135.767 139.011 135.74 138.427C135.706 138.201 135.706 137.971 135.74 137.744C135.666 136.491 136.091 135.26 136.922 134.319C137.754 133.379 138.924 132.806 140.177 132.727H140.689C141.461 132.687 142.233 132.828 142.942 133.137L142.634 134.161C142.035 133.885 141.383 133.745 140.723 133.751C140.25 133.709 139.773 133.765 139.323 133.917C138.873 134.07 138.459 134.314 138.109 134.635C137.759 134.957 137.479 135.348 137.289 135.783C137.099 136.219 137.001 136.689 137.003 137.164C136.986 137.369 136.986 137.574 137.003 137.779C136.946 138.23 136.98 138.688 137.103 139.126C137.225 139.564 137.434 139.973 137.717 140.329C138 140.685 138.351 140.981 138.751 141.2C139.15 141.418 139.588 141.555 140.041 141.601H140.621C141.313 141.607 141.999 141.467 142.634 141.191L142.907 142.181Z" fill="white"/>
<path d="M144.48 133.036C145.258 132.897 146.046 132.829 146.835 132.831C147.824 132.723 148.816 133.005 149.6 133.616C149.84 133.851 150.027 134.133 150.151 134.444C150.274 134.756 150.331 135.09 150.316 135.425C150.33 135.968 150.164 136.501 149.843 136.939C149.521 137.378 149.064 137.697 148.542 137.848V137.848C148.921 138.018 149.249 138.283 149.495 138.618C149.74 138.953 149.894 139.347 149.941 139.759C150.107 140.654 150.347 141.533 150.658 142.387H149.395C149.087 141.657 148.88 140.887 148.781 140.101C148.473 138.77 147.962 138.292 146.835 138.224H145.675V142.387H144.48V133.036ZM145.709 137.37H146.938C148.269 137.37 149.088 136.654 149.088 135.562C149.088 134.469 148.2 133.787 146.904 133.787C146.496 133.736 146.083 133.736 145.675 133.787L145.709 137.37Z" fill="white"/>
<path d="M160.081 138.393C160.081 137.062 160.081 135.424 160.081 134.264C159.739 135.356 159.364 136.585 158.886 137.882L157.214 142.557H156.292L154.722 137.984C154.279 136.619 153.903 135.39 153.63 134.264C153.63 135.458 153.63 137.028 153.425 138.496L153.187 142.591H151.855L152.504 133.035H154.074L155.678 137.677C156.087 138.837 156.395 139.895 156.668 140.885C156.941 139.929 157.282 138.871 157.692 137.677L159.398 133.035H160.934L161.548 142.591H160.319L160.081 138.393Z" fill="white"/>
<path fill-rule="evenodd" clip-rule="evenodd" d="M70.5586 106.312V102.899C76.7013 96.4501 81.8851 89.1514 85.9509 81.2272C89.0377 75.5601 91.3343 69.4971 92.7767 63.207C92.8251 62.8733 92.8935 62.5428 92.9815 62.2172C92.9815 62.0125 92.9816 61.5688 93.2887 61.7053C93.5959 61.8418 94.2784 61.7053 94.2784 62.3197V96.4488C94.2784 97.5068 94.2784 97.5068 93.1862 97.6092C90.1185 97.9451 87.0899 98.5737 84.1419 99.4863C80.8824 100.502 77.7636 101.924 74.8589 103.718C74.8589 104.06 74.3469 104.06 74.1763 104.333C73.3215 104.886 72.501 105.49 71.7191 106.141C71.3778 106.141 71.1046 106.619 70.695 106.619" fill="white"/>
<path fill-rule="evenodd" clip-rule="evenodd" d="M70.5586 106.313C70.8658 106.109 71.1387 105.767 71.5483 105.801C72.0803 105.399 72.682 105.098 73.323 104.914C73.8009 104.914 74.2103 104.402 74.7564 104.436C77.3457 103.421 80.003 102.589 82.7086 101.945C86.719 100.958 90.8311 100.443 94.961 100.409C98.977 100.401 102.978 100.894 106.872 101.877C107.759 102.116 108.135 101.877 108.135 100.887V86.4844C108.116 86.2718 108.149 86.0578 108.233 85.8614C108.316 85.6649 108.447 85.4921 108.613 85.3582C111.586 82.7539 114.423 79.997 117.111 77.0989C117.111 77.0989 117.35 76.7234 117.589 76.8941C117.828 77.0647 118.135 76.8941 118.135 77.4061V105.665C118.165 105.899 118.103 106.136 117.964 106.327C117.824 106.517 117.616 106.647 117.384 106.689C117.204 106.725 117.018 106.725 116.838 106.689C112.137 105.041 107.275 103.897 102.333 103.276C98.0062 102.77 93.6427 102.656 89.2955 102.935C83.5014 103.242 77.7686 104.274 72.2309 106.006L70.9681 106.416C70.9681 106.416 70.6951 106.416 70.5928 106.416" fill="white"/>
<path fill-rule="evenodd" clip-rule="evenodd" d="M73.3558 105.014L71.5469 105.799C72.0865 105.139 72.7616 104.604 73.5264 104.229C73.5264 104.229 73.8677 104.229 73.936 103.887L74.8575 103.512C78.0004 101.805 81.334 100.476 84.789 99.5529C87.7676 98.738 90.8205 98.2235 93.9016 98.0171C94.9255 98.0171 94.9596 98.0171 94.9596 96.925V87.5395C94.9444 87.3862 94.9606 87.2313 95.0075 87.0846C95.0545 86.9378 95.1311 86.8022 95.2325 86.6863C99.817 81.7706 103.482 76.0716 106.052 69.8606C106.052 69.6558 106.051 69.2462 106.529 69.3828C107.007 69.5193 107.314 69.3827 107.314 70.1677C107.314 80.1789 107.314 90.1902 107.314 100.201C107.314 100.611 107.314 100.782 106.768 100.85C106.259 100.918 105.742 100.918 105.233 100.85C100.392 99.8898 95.4385 99.6255 90.5229 100.065C85.1029 100.487 79.7997 101.862 74.8575 104.126H74.5844C74.2431 104.502 73.6971 104.502 73.3558 104.843" fill="white"/>
</g>
</g>
<defs>
<clipPath id="clip0_5535_1951">
<rect width="216" height="206.929" fill="white"/>
</clipPath>
<clipPath id="clip1_5535_1951">
<rect width="107" height="85.8912" fill="white" transform="translate(55 61)"/>
</clipPath>
</defs>
</svg>
