<svg width="284" height="67" viewBox="0 0 284 67" fill="none" xmlns="http://www.w3.org/2000/svg">
<path d="M97.0816 8.55281C94.6466 14.1058 92.4356 19.2208 90.1496 24.3018C89.6906 25.3208 89.5946 26.8378 88.1166 26.9598C86.4676 27.0958 86.4706 25.4518 86.0166 24.4738C83.9306 19.9488 81.9506 15.3738 79.9286 10.8178C79.7166 10.3398 79.4786 9.87381 79.1526 9.19481C78.8477 9.82536 78.7431 10.5341 78.8526 11.2258C78.8352 15.7978 78.8319 20.3701 78.8426 24.9428C78.8426 26.1088 78.7126 27.0888 77.1506 27.0488C76.1136 27.0218 75.6006 26.6228 75.6016 25.5748C75.6136 18.4488 75.6222 11.3231 75.6276 4.19781C75.6276 3.28681 75.9716 2.69181 76.9626 2.69781C78.2726 2.70781 79.6536 2.26681 80.3966 4.06181C82.3266 8.72181 84.3966 13.3228 86.4186 17.9458C86.8896 19.0238 87.3696 20.0978 87.8396 21.1578C88.5646 21.0298 88.5396 20.4578 88.7166 20.0578C90.9936 14.9638 93.2436 9.85781 95.5166 4.76381C95.9676 3.75381 96.2876 2.66381 97.7936 2.63881C100.088 2.60281 100.226 2.80081 100.411 5.07281C100.951 11.7118 99.9736 18.3588 100.611 24.9938C100.723 26.1728 100.49 27.0768 98.9246 27.0708C97.3346 27.0648 97.0666 26.2048 97.0716 24.9068C97.0926 19.6278 97.0806 14.3478 97.0806 8.54681" fill="white"/>
<path d="M262.591 41.1599C262.243 44.4145 262.161 47.6921 262.349 50.9599C262.449 53.0329 262.431 55.1119 262.432 57.1879C262.432 58.3939 261.758 58.8289 260.588 58.7879C259.477 58.7439 259.188 58.1409 259.188 57.1699C259.199 50.1633 259.203 43.1563 259.2 36.1489C259.2 35.3269 259.281 34.5259 260.349 34.4999C261.723 34.4659 263.193 34.0409 263.966 35.8779C265.807 40.2539 267.759 44.5839 269.666 48.9329C270.235 50.2329 270.808 51.5239 271.547 53.2009C272.508 51.1679 273.347 49.4569 274.129 47.7229C275.914 43.7749 277.729 39.8399 279.417 35.8489C280.157 34.0989 281.516 34.3679 282.849 34.4819C284.284 34.6059 283.966 35.8049 283.969 36.6899C283.993 43.3999 283.996 50.1099 283.979 56.8199C283.979 57.7049 284.08 58.6609 282.765 58.7889C281.4 58.9209 280.636 58.5689 280.654 56.9889C280.707 52.4769 280.674 47.9639 280.654 43.4509C280.767 42.6377 280.696 41.8094 280.448 41.0269C279.835 42.0696 279.339 43.1762 278.969 44.3269C277.093 48.5589 275.209 52.7876 273.319 57.0129C272.964 57.8029 272.7 58.7849 271.539 58.7229C270.507 58.6679 270.26 57.7649 269.927 57.0229C267.787 52.2589 265.672 47.4839 263.526 42.7229C263.294 42.2069 263.21 41.5849 262.586 41.1729" fill="white"/>
<path d="M191.163 18.8319C191.163 20.9659 191.138 23.1009 191.173 25.2319C191.193 26.4669 190.773 27.0799 189.421 27.0769C188.099 27.0769 187.599 26.5179 187.633 25.2599C187.733 21.6469 188.114 18.0409 187.7 14.4179C187.565 13.2329 187.443 12.3179 185.941 12.3369C185.134 12.3479 184.841 11.7369 184.832 10.9989C184.825 10.3809 184.925 9.61393 185.637 9.61293C188.008 9.61293 187.791 7.92893 187.899 6.39493C187.927 5.60693 188.12 4.83347 188.464 4.12406C188.808 3.41466 189.297 2.78493 189.898 2.27521C190.5 1.76548 191.201 1.38699 191.958 1.16394C192.714 0.940899 193.508 0.878226 194.29 0.979934C195.251 1.12293 195.812 1.53893 195.83 2.57093C195.847 3.56493 195.62 4.17093 194.402 3.95093C194.045 3.83078 193.665 3.79467 193.291 3.84542C192.918 3.89617 192.561 4.03241 192.249 4.24354C191.937 4.45466 191.677 4.73498 191.491 5.06268C191.305 5.39039 191.197 5.75664 191.175 6.13293C190.626 9.26093 191.406 9.73293 193.775 9.50393C194.186 9.46393 194.605 9.50393 195.021 9.49793C197.421 9.48893 197.433 9.48893 197.489 7.04693C197.509 6.17993 197.547 5.44693 198.589 5.08393C200.247 4.50193 200.523 4.63693 200.579 6.43093C200.667 9.25293 200.666 9.27293 203.403 9.46393C204.348 9.52993 205.026 9.77693 205.049 10.8779C205.073 12.0699 204.364 12.5009 203.339 12.3779C201.414 12.1449 200.75 12.9529 200.682 14.8489C200.596 17.2239 200.504 19.5979 200.654 21.9629C200.781 23.9689 201.482 24.5239 203.354 24.4039C204.154 24.3529 204.954 24.1289 205.043 25.3199C205.083 25.5397 205.078 25.7651 205.029 25.9829C204.98 26.2007 204.888 26.4065 204.758 26.5881C204.628 26.7697 204.463 26.9235 204.273 27.0405C204.083 27.1574 203.871 27.2351 203.65 27.2689C200.257 28.2169 197.658 26.3979 197.534 22.8309C197.434 19.9849 197.441 17.1309 197.528 14.2839C197.574 12.7789 196.986 12.3019 195.548 12.3549C190.762 12.5339 191.317 11.4199 190.957 16.8749C190.914 17.5249 190.951 18.1799 190.951 18.8339H191.16" fill="white"/>
<path d="M81.0609 34.3949C83.6567 34.253 86.2564 34.592 88.7289 35.3949C90.2468 35.8596 91.6149 36.7172 92.6947 37.8808C93.7746 39.0443 94.5277 40.4726 94.8779 42.0209C96.0989 47.0999 95.6079 51.8069 91.5229 55.6379C89.3927 57.484 86.7028 58.5588 83.8869 58.6889C81.7119 58.9169 79.4959 58.7469 77.2979 58.7699C76.2539 58.7809 75.7979 58.2229 75.7269 57.2459C75.7269 57.1869 75.7109 57.1279 75.7109 57.0689C75.7469 50.2459 75.8189 43.4239 75.7969 36.6009C75.7909 34.7389 76.6719 34.2379 78.3239 34.3849C79.1489 34.4589 79.9859 34.3979 81.0609 34.3979V34.3949ZM78.9889 46.5109C78.9889 48.3509 78.9659 50.1909 78.9889 52.0309C79.0509 56.1689 78.2999 55.8139 82.8209 55.7449C87.7709 55.6699 91.0319 53.0929 91.7929 48.4899C92.6329 43.4129 91.2659 38.4679 84.3929 37.5819C83.1049 37.4159 81.7929 37.4939 80.4929 37.4109C79.2929 37.3349 78.9589 37.9349 78.9769 39.0309C79.0189 41.5229 78.9899 44.0169 78.9879 46.5099" fill="white"/>
<path d="M151.722 43.2919C152.716 42.2045 153.999 41.4232 155.422 41.0399C156.307 40.7549 157.255 40.7319 158.152 40.9738C159.05 41.2156 159.858 41.712 160.48 42.4029C161.417 43.4469 161.88 43.6469 163.008 42.5529C163.914 41.6742 165.067 41.0928 166.313 40.8865C167.559 40.6801 168.837 40.8585 169.979 41.3979C172.304 42.3089 172.932 44.4389 173.031 46.6199C173.19 50.1149 173.088 53.6199 173.126 57.1199C173.138 58.2049 172.759 58.7639 171.586 58.7819C170.378 58.7999 169.827 58.2919 169.826 57.1059C169.826 54.4353 169.818 51.7643 169.801 49.0929C169.813 48.2625 169.776 47.432 169.69 46.6059C169.645 45.976 169.402 45.3765 168.995 44.8936C168.588 44.4108 168.038 44.0695 167.425 43.9189C166.799 43.7062 166.122 43.6916 165.487 43.8769C164.853 44.0623 164.29 44.4387 163.877 44.9549C162.904 46.0972 162.379 47.5544 162.4 49.0549C162.41 51.4883 162.413 53.9216 162.409 56.3549C162.409 57.5309 162.644 58.8279 160.738 58.7839C158.853 58.7399 159.117 57.4049 159.105 56.2599C159.079 53.8269 159.125 51.3929 159.121 48.9599C159.13 48.1886 159.092 47.4175 159.006 46.6509C158.962 46.052 158.743 45.4792 158.376 45.0043C158.008 44.5293 157.509 44.1734 156.94 43.9809C156.355 43.7492 155.718 43.6858 155.099 43.7979C154.481 43.9099 153.906 44.1929 153.44 44.6149C152.862 45.1311 152.406 45.77 152.107 46.485C151.807 47.1999 151.671 47.9727 151.709 48.7469C151.699 51.4179 151.666 54.0889 151.693 56.7599C151.705 57.9749 151.534 58.8339 149.987 58.8139C148.521 58.7949 148.381 57.9419 148.387 56.8279C148.397 52.3169 148.387 47.8059 148.394 43.2949C148.394 42.3109 148.406 41.3439 149.781 41.2619C150.94 41.1919 151.832 41.4069 151.727 43.2899" fill="white"/>
<path d="M240.409 46.6559C240.409 43.2729 240.455 39.8889 240.388 36.5079C240.357 34.9689 240.949 34.3639 242.488 34.4259C244.388 34.5029 246.288 34.4189 248.188 34.4409C251.87 34.4849 254.249 36.1129 255.132 39.1559C255.583 40.6494 255.516 42.2515 254.942 43.702C254.367 45.1525 253.319 46.3662 251.968 47.1459C251.368 47.5459 250.836 47.7569 251.41 48.6049C253.084 51.0739 253.986 53.9389 255.391 56.5519C255.723 57.1709 256.665 58.1709 255.465 58.6089C254.402 58.9969 252.905 59.3529 252.183 57.8319C251.267 55.9039 250.517 53.8969 249.61 51.9639C248.847 50.3379 248.025 48.7399 245.81 48.7169C243.891 48.6969 243.582 48.9419 243.81 50.8379C243.97 52.8491 244.011 54.868 243.931 56.8839C243.931 58.1689 243.397 58.8139 241.99 58.8039C240.49 58.7939 240.424 57.8919 240.427 56.8039C240.436 53.4209 240.427 50.0379 240.427 46.6549H240.408L240.409 46.6559ZM246.121 45.7399C247.367 45.7846 248.604 45.5091 249.714 44.9399C250.469 44.5803 251.09 43.9882 251.485 43.2505C251.879 42.5128 252.028 41.668 251.908 40.8399C251.81 40.0086 251.435 39.2344 250.844 38.6414C250.253 38.0483 249.481 37.6706 248.65 37.5689C247.769 37.5225 246.886 37.5446 246.009 37.6349C244.309 37.5059 243.843 38.3579 243.934 39.8869C243.993 41.0082 243.969 42.1322 243.863 43.2499C243.648 45.6829 243.71 45.7809 246.122 45.7439" fill="white"/>
<path d="M144.813 51.5398C144.813 53.9188 144.835 55.5808 144.802 57.2398C144.789 57.9048 144.655 58.6268 143.814 58.7008C143.031 58.7698 142.006 59.1208 141.645 58.0718C141.301 57.0718 140.878 57.3718 140.403 57.8208C139.771 58.3655 139.03 58.7671 138.229 58.9983C137.428 59.2294 136.586 59.2845 135.762 59.1598C134.656 59.1566 133.583 58.7898 132.706 58.1161C131.83 57.4424 131.2 56.4992 130.913 55.4318C130.354 52.5848 131.364 50.2578 133.691 49.0978C135.702 48.0978 137.929 47.9848 140.091 47.6848C141.637 47.4698 141.648 46.7648 141.12 45.6228C140.866 45.014 140.421 44.5047 139.851 44.1723C139.282 43.84 138.619 43.7029 137.965 43.7818C136.72 43.8732 135.502 44.1822 134.365 44.6948C133.802 44.9238 133.051 46.1188 132.529 44.8338C132.129 43.8568 132.1 42.5918 133.364 42.0688C135.151 41.2451 137.102 40.8418 139.07 40.8898C142.448 41.0958 144.07 42.6558 144.599 46.0368C144.776 47.8645 144.846 49.701 144.809 51.5368L144.813 51.5398ZM139.89 50.4648C138.781 50.6428 137.661 50.7648 136.568 51.0108C134.631 51.4468 133.878 52.5418 134.198 54.3108C134.402 55.0601 134.894 55.6981 135.567 56.0857C136.24 56.4734 137.039 56.5791 137.79 56.3798C139.712 56.0378 141.069 54.3858 141.416 52.1148C141.616 50.8408 141.448 50.0638 139.891 50.4648" fill="white"/>
<path d="M230.602 59.1498C222.687 59.4658 218.255 53.2058 218.78 45.9938C218.909 43.7296 219.599 41.5328 220.786 39.6008C224.278 34.0238 230.534 33.3218 235.743 34.6588C236.823 34.9358 237.402 36.7918 236.823 37.7758C236.412 38.4758 235.899 38.0358 235.428 37.8818C233.299 37.1058 230.994 36.943 228.776 37.4118C227.748 37.6016 226.772 38.0101 225.916 38.6096C225.059 39.2091 224.341 39.9857 223.81 40.8868C222.731 42.6476 222.152 44.6693 222.137 46.7343C222.121 48.7994 222.668 50.8297 223.72 52.6068C225.32 55.4678 228.975 56.7068 232.82 55.9978C233.52 55.8688 234.19 55.5748 234.89 55.4778C235.536 55.3878 236.39 54.2838 236.809 55.5138C237.162 56.5628 237.178 57.7978 235.734 58.3268C234.09 58.9241 232.348 59.2034 230.599 59.1498" fill="white"/>
<path d="M153.476 18.1639C153.505 21.8399 152.149 24.8589 148.798 26.5279C147.374 27.295 145.764 27.6471 144.15 27.5444C142.536 27.4417 140.983 26.8883 139.668 25.9469C135.81 23.3469 134.926 16.6039 137.875 12.4659C140.539 8.72792 146.512 7.89492 150.304 10.7319C152.278 12.2079 153.464 14.9939 153.475 18.1639H153.476ZM150.075 18.1919C150.075 17.8369 150.1 17.4799 150.075 17.1269C149.81 13.9269 147.988 12.0889 145.037 12.0399C141.922 11.9889 139.97 13.7319 139.618 16.9399C139.454 18.1761 139.518 19.432 139.808 20.6449C140.019 21.766 140.629 22.7723 141.527 23.4762C142.424 24.1801 143.547 24.5337 144.686 24.4709C147.52 24.5449 148.886 23.5899 149.739 20.9959C150.027 20.0921 150.142 19.1424 150.08 18.1959" fill="white"/>
<path d="M184.524 17.9639C184.553 23.8389 181.283 27.3959 175.824 27.4239C170.809 27.4499 167.329 23.8419 167.263 18.5499C167.195 13.0159 170.743 9.13492 175.924 9.07792C181.257 9.01892 184.492 12.3639 184.524 17.9639V17.9639ZM181.224 18.1229H181.167C181.167 17.7669 181.187 17.4099 181.167 17.0549C180.976 14.1479 179.45 12.3059 177.043 12.0659C173.873 11.7499 171.602 13.2539 170.861 16.1659C170.476 17.6696 170.505 19.2494 170.945 20.7379C171.745 23.5229 173.833 24.7669 177.175 24.4539C179.362 24.2489 180.849 22.5539 181.136 19.9019C181.199 19.3129 181.198 18.7179 181.227 18.1249" fill="white"/>
<path d="M103.984 54.762C105.199 51.515 106.224 48.762 107.262 46.008C107.702 44.843 108.217 43.708 108.611 42.524C108.735 42.0928 109.016 41.7234 109.398 41.4885C109.781 41.2536 110.237 41.1699 110.678 41.254C111.75 41.286 112.253 41.654 111.793 42.799C109.087 49.514 106.493 56.274 103.649 62.931C102.362 65.946 100.17 67.022 97.649 66.687C96.555 66.541 96.286 65.966 96.274 65.012C96.259 63.888 96.89 63.791 97.792 63.891C98.3895 63.9616 98.994 63.8397 99.5175 63.5432C100.041 63.2466 100.456 62.7908 100.703 62.242C101.803 60.248 102.503 58.389 101.356 55.942C99.448 51.87 98.02 47.571 96.436 43.35C96.203 42.73 95.391 41.799 96.583 41.424C97.676 41.081 99.006 40.831 99.566 42.408C100.679 45.539 101.766 48.678 102.877 51.808C103.167 52.63 103.485 53.441 103.977 54.761" fill="white"/>
<path d="M117.156 43.336C117.725 42.6441 118.427 42.0729 119.221 41.6558C120.014 41.2388 120.882 40.9842 121.775 40.907C123.173 40.6764 124.605 40.9967 125.772 41.8004C126.939 42.6041 127.748 43.8288 128.031 45.217C128.931 49.317 128.431 53.502 128.431 57.651C128.431 58.821 127.431 58.772 126.583 58.788C125.595 58.807 125.199 58.288 125.197 57.354C125.19 54.7987 125.178 52.2437 125.161 49.689C125.161 49.155 125.169 48.619 125.139 48.089C124.99 45.375 123.718 43.851 121.575 43.799C120.992 43.7812 120.412 43.8813 119.869 44.0932C119.325 44.3052 118.831 44.6246 118.414 45.0324C117.997 45.4402 117.667 45.9279 117.443 46.4664C117.219 47.0048 117.107 47.5829 117.112 48.166C117.001 51.133 117.065 54.107 117.084 57.077C117.091 58.252 116.634 58.818 115.391 58.8C114.271 58.783 113.752 58.336 113.754 57.209C113.766 52.3957 113.766 47.5827 113.754 42.77C113.754 41.87 114.068 41.307 115.064 41.232C116.287 41.14 117.204 41.402 117.155 43.34" fill="white"/>
<path d="M202.216 59.151C201.205 59.186 200.195 59.0477 199.231 58.742C198.793 58.6458 198.407 58.3899 198.148 58.0243C197.89 57.6587 197.776 57.2097 197.831 56.765C197.842 55.047 197.973 54.92 199.576 55.665C200.787 56.1729 202.113 56.3456 203.414 56.165C203.838 56.1704 204.252 56.0336 204.59 55.7762C204.928 55.5189 205.169 55.1559 205.277 54.7452C205.384 54.3345 205.35 53.8997 205.182 53.5102C205.013 53.1206 204.719 52.7988 204.346 52.596C203.485 52.0708 202.597 51.5918 201.685 51.161C198.285 49.43 197.053 47.149 198.042 44.395C198.973 41.803 202.457 40.272 205.695 41.026C206.903 41.308 208.01 41.626 207.969 43.244C207.942 44.31 207.732 44.899 206.524 44.333C205.496 43.8486 204.352 43.6625 203.224 43.796C202.762 43.819 202.32 43.9909 201.964 44.2858C201.608 44.5808 201.358 44.983 201.249 45.4324C201.141 45.8818 201.181 46.3541 201.363 46.7789C201.545 47.2037 201.86 47.5581 202.261 47.789C203.14 48.282 204.061 48.705 204.968 49.143C207.903 50.557 209.115 52.485 208.609 54.951C208.087 57.494 205.903 59.06 202.749 59.151C202.571 59.151 202.393 59.151 202.215 59.151" fill="white"/>
<path d="M158.899 27.4199C158.646 27.3879 157.88 27.3109 157.122 27.1869C155.535 26.9289 154.961 25.9539 155.097 24.3979C155.183 23.4229 155.497 23.0369 156.417 23.6229C157.548 24.2959 158.863 24.5912 160.172 24.4659C161.235 24.4149 162.216 24.2279 162.538 23.0119C162.698 22.4912 162.648 21.929 162.401 21.4439C162.154 20.9589 161.727 20.5888 161.212 20.4119C160.101 19.8489 158.974 19.3169 157.876 18.7289C156.969 18.3367 156.213 17.6619 155.72 16.8051C155.228 15.9483 155.025 14.9553 155.142 13.9739C155.204 12.989 155.561 12.0455 156.166 11.266C156.771 10.4865 157.597 9.907 158.535 9.60294C160.269 8.93949 162.181 8.90763 163.935 9.51294C164.286 9.57671 164.605 9.75686 164.841 10.0243C165.077 10.2917 165.216 10.6309 165.235 10.9869C165.392 12.6019 165.095 12.8979 163.565 12.3869C162.547 12.0521 161.466 11.959 160.405 12.1149C159.986 12.1421 159.586 12.3008 159.261 12.5685C158.937 12.8361 158.706 13.1991 158.599 13.6059C158.462 14.0367 158.473 14.5013 158.631 14.925C158.789 15.3487 159.085 15.7069 159.471 15.9419C160.174 16.3807 160.915 16.7568 161.683 17.0659C165.236 18.6079 166.53 20.5059 165.911 23.3219C165.343 25.9059 162.911 27.4429 158.898 27.4219" fill="white"/>
<path d="M191.62 59.169C187.663 59.139 184.99 57.496 183.749 54.459C182.079 50.374 182.794 46.084 185.706 43.25C188.369 40.659 191.562 40.404 194.969 41.366C196.459 41.787 196.309 42.975 196.177 44.116C196.172 44.2062 196.147 44.2941 196.103 44.373C196.059 44.4519 195.998 44.5199 195.924 44.5716C195.85 44.6234 195.765 44.6576 195.676 44.6717C195.587 44.6858 195.496 44.6795 195.409 44.653C195.121 44.5858 194.84 44.4917 194.57 44.372C192.329 43.491 190.133 43.347 188.254 45.12C187.347 45.9915 186.701 47.0975 186.386 48.3147C186.072 49.5319 186.101 50.8126 186.472 52.014C187.334 55.714 190.702 57.285 194.372 55.846C194.918 55.632 195.697 54.709 196.107 55.873C196.329 56.3043 196.377 56.8044 196.24 57.2697C196.104 57.7351 195.793 58.1301 195.374 58.3731C194.217 58.9718 192.92 59.2458 191.62 59.166" fill="white"/>
<path d="M119.481 27.423C117.828 27.568 116.173 27.1626 114.774 26.27C113.375 25.3773 112.31 24.0474 111.745 22.487C110.945 20.7753 110.667 18.8663 110.944 16.9975C111.221 15.1287 112.042 13.3827 113.304 11.977C115.73 9.09496 119.004 8.56596 122.549 9.46096C123.357 9.66096 124.125 9.91096 124.237 10.998C124.411 12.688 124.049 13.022 122.467 12.44C121.092 11.8348 119.535 11.7898 118.127 12.3145C116.719 12.8392 115.571 13.8923 114.927 15.25C113.505 18.002 114.273 22.015 116.647 23.635C118.392 24.827 120.338 24.672 122.295 24.128C122.877 23.966 123.646 22.998 124.074 24.061C124.21 24.2958 124.293 24.5579 124.315 24.8285C124.337 25.099 124.299 25.3711 124.204 25.6252C124.108 25.8792 123.957 26.1087 123.762 26.2972C123.566 26.4857 123.331 26.6284 123.074 26.715C121.935 27.182 120.715 27.4225 119.483 27.423" fill="white"/>
<path d="M130.358 11.41C131.839 9.96002 133.043 8.96201 134.866 9.22701C136.236 9.42701 136.366 10.3 136.334 11.407C136.299 12.658 135.474 12.39 134.706 12.374C132.006 12.317 130.449 13.874 130.306 17.033C130.183 19.695 130.255 22.367 130.282 25.033C130.294 26.256 130.072 27.097 128.545 27.07C127.087 27.044 126.945 26.199 126.954 25.079C126.969 20.573 126.953 16.067 126.965 11.561C126.965 10.704 126.765 9.67401 128.073 9.50901C129.31 9.35401 130.374 9.48301 130.361 11.409" fill="white"/>
<path d="M108.163 18.4C108.163 20.657 108.135 22.914 108.175 25.171C108.196 26.386 107.844 27.064 106.466 27.051C105.166 27.039 104.848 26.384 104.852 25.26C104.869 20.568 104.869 15.876 104.852 11.184C104.845 9.97504 105.337 9.48404 106.552 9.49004C107.818 9.50104 108.192 10.117 108.173 11.273C108.136 13.648 108.162 16.024 108.162 18.4" fill="white"/>
<path d="M180.142 50.337C180.142 52.586 180.118 54.837 180.151 57.083C180.168 58.25 179.751 58.817 178.495 58.812C177.22 58.806 176.862 58.174 176.867 57.04C176.885 52.3646 176.885 47.6893 176.867 43.014C176.862 41.848 177.312 41.26 178.533 41.254C179.805 41.247 180.156 41.941 180.148 43.054C180.129 45.48 180.142 47.907 180.141 50.333" fill="white"/>
<path d="M180.55 35.9969C180.543 36.2629 180.482 36.5245 180.369 36.7657C180.257 37.0068 180.096 37.2223 179.897 37.3987C179.698 37.5751 179.464 37.7086 179.211 37.7911C178.958 37.8735 178.691 37.9031 178.426 37.8779C178.172 37.891 177.917 37.8484 177.681 37.753C177.445 37.6576 177.232 37.5116 177.058 37.3254C176.884 37.1392 176.752 36.9172 176.673 36.675C176.594 36.4327 176.568 36.176 176.598 35.9229C176.582 35.6541 176.627 35.3851 176.728 35.1357C176.83 34.8864 176.987 34.663 177.186 34.4821C177.386 34.3012 177.623 34.1674 177.881 34.0905C178.139 34.0137 178.411 33.9957 178.677 34.0379C178.932 34.0328 179.185 34.0806 179.42 34.1784C179.656 34.2762 179.868 34.4218 180.044 34.606C180.22 34.7901 180.356 35.0088 180.443 35.2483C180.53 35.4877 180.567 35.7426 180.55 35.9969" fill="white"/>
<path d="M106.552 2.26893C107.827 2.38093 108.534 2.99093 108.523 4.18293C108.544 4.45081 108.506 4.71995 108.411 4.97154C108.317 5.22312 108.169 5.4511 107.978 5.63955C107.786 5.828 107.556 5.97238 107.303 6.0626C107.05 6.15283 106.78 6.18672 106.512 6.16193C106.259 6.17373 106.005 6.13161 105.768 6.03835C105.532 5.94508 105.318 5.80279 105.14 5.62084C104.963 5.43889 104.826 5.2214 104.739 4.9827C104.651 4.74399 104.615 4.48948 104.633 4.23593C104.617 3.97748 104.655 3.71849 104.745 3.47568C104.835 3.23288 104.975 3.01165 105.156 2.82629C105.337 2.64093 105.555 2.49555 105.795 2.39955C106.036 2.30355 106.294 2.25905 106.552 2.26893" fill="white"/>
<path d="M28.076 1.03491C28.076 1.03491 20.7 31.7569 0 52.0349V58.3059C0 58.3059 4.9 48.5119 28.582 46.6119V1.03491H28.076Z" fill="white"/>
<path d="M2.99219 55.885C2.99219 55.885 13.4792 48.17 30.1072 48.17V33.639C36.4727 27.0888 41.6039 19.4436 45.2542 11.071H46.1702V50.916C46.1702 50.916 18.2622 47.066 2.99219 55.885Z" fill="white"/>
<path d="M0.402344 58.3061C0.402344 58.3061 28.5263 47.1061 59.3573 59.1391V20.9561H58.7333L47.4493 31.8761V52.9611C47.4493 52.9611 17.5773 46.6331 0.402344 58.3061Z" fill="white"/>
</svg>
