<svg width="293" height="58" viewBox="0 0 293 58" fill="none" xmlns="http://www.w3.org/2000/svg">
<g clip-path="url(#clip0_2625_2851)">
<path d="M37.8073 4.41471C28.5477 4.41471 19.2926 4.40561 10.033 4.41471C5.99554 4.41471 4.4553 5.99396 4.4553 10.0855C4.45074 17.2808 4.4553 24.4762 4.44619 31.6671C4.44619 32.418 4.45074 33.2008 4.24568 33.9062C3.94493 34.953 3.12013 35.5765 2.01736 35.4627C0.946482 35.3535 0.226491 34.6708 0.0533284 33.5603C-0.0150252 33.1143 0.02143 32.6547 0.02143 32.1995C0.02143 24.7038 0.00320241 17.2035 0.02143 9.70771C0.0396577 3.81396 3.76265 0.0364922 9.70486 0.0273899C28.4474 -0.00901941 47.19 -0.00446825 65.9371 0.0228387C72.0251 0.031941 75.6798 3.74569 75.698 9.82604C75.7162 18.1547 75.7253 26.4878 75.698 34.8165C75.6798 40.7876 72.0433 44.4513 66.0601 44.4786C57.1058 44.5195 48.1515 44.4877 39.1972 44.4877C38.8189 44.4877 38.4362 44.4877 38.0579 44.4604C36.7592 44.3648 35.8114 43.7458 35.8114 42.3896C35.8114 40.9605 36.6954 40.1823 38.1491 40.1777C41.5622 40.1641 44.9799 40.1686 48.393 40.1641C54.162 40.1641 59.9265 40.1823 65.6956 40.155C69.6829 40.1368 71.378 38.4392 71.3826 34.4797C71.3963 26.3012 71.4008 18.1228 71.3826 9.94437C71.3735 6.15325 69.61 4.41016 65.8095 4.40561C56.4769 4.39195 47.1398 4.40561 37.8073 4.40561V4.41471Z" fill="white"/>
<path d="M57.9269 16.7209C57.8951 14.4271 56.8834 13.444 54.5457 13.4167C50.9048 13.3712 47.2638 13.3667 43.6228 13.4167C41.2669 13.4486 40.2644 14.5454 40.1824 16.9666C40.1155 19.0238 39.0902 20.0538 37.1064 20.0569C32.8275 20.0614 31.6609 20.8943 30.2984 24.9084C28.0838 31.4211 25.8691 37.9384 23.6408 44.4465C22.775 46.9724 22.1279 47.2956 18.9882 46.8678C16.7462 46.5628 17.972 44.8425 17.8763 43.8139C17.6211 41.156 16.7735 40.2094 14.0211 40.1684C12.3533 40.1457 10.6855 40.1684 9.01766 40.1684C7.04452 40.1684 5.07138 40.1275 3.1028 40.1821C1.21168 40.2367 0.0906848 41.288 0.0542295 43.1586C-0.0232379 47.0953 -0.0141241 51.0321 0.0587864 54.9643C0.0906848 56.7438 1.24358 57.8406 2.94331 57.8952C6.88503 58.0227 10.8313 58.0363 14.773 57.9089C16.6869 57.8452 17.7806 56.6254 17.8171 54.6275C17.8262 53.9494 17.8763 53.2621 17.8034 52.584C17.6895 51.4872 18.1315 51.0685 19.2206 51.1732C19.895 51.2369 20.5831 51.1868 21.2666 51.1823C25.0124 51.1777 26.22 50.2857 27.4139 46.7631C29.7015 40.0365 32.0027 33.3144 34.3039 26.5923C35.0832 24.3168 35.8305 23.9663 39.0978 24.4533C41.0937 24.7491 40.073 26.3466 40.1413 27.3205C40.3327 30.1286 41.2213 31.1298 44.0421 31.148C47.5326 31.1663 51.0232 31.1799 54.5093 31.1389C56.7968 31.1162 57.8859 30.0876 57.9224 27.8485C57.9771 24.1393 57.9771 20.4301 57.9269 16.7209ZM8.89007 53.4897C5.93416 53.4897 4.4562 51.9924 4.4562 48.9977C4.4562 46.003 5.94023 44.4996 8.9083 44.4875C11.8764 44.4754 13.3528 45.9833 13.3376 49.0114C13.3224 52.0394 11.8399 53.5322 8.89007 53.4897Z" fill="white"/>
<path d="M103.199 13.2576C101.194 18.7873 99.1887 24.3124 97.1882 29.842C96.8646 30.7386 96.7735 31.708 95.3517 31.7126C93.8571 31.7217 93.8799 30.6112 93.5928 29.7692C91.7427 24.3579 89.9381 18.9329 88.0744 13.3805C87.3134 14.632 87.605 15.87 87.5275 17.0487C87.2496 21.4315 86.9762 25.8142 86.803 30.2016C86.7483 31.5715 86.1012 31.749 84.9438 31.749C83.5129 31.749 83.8364 30.816 83.8866 30.0514C84.324 23.5569 84.7661 17.0578 85.2582 10.5679C85.3174 9.78961 84.8891 8.52438 86.3974 8.56535C87.7235 8.60175 89.1817 8.01921 89.8424 10.1082C91.6196 15.7198 93.8753 21.1766 95.5021 27.2979C96.8783 23.393 98.1178 19.8568 99.3755 16.3296C100.136 14.1906 101.025 12.0925 101.681 9.92159C102.278 7.94184 103.796 8.62451 105.04 8.5699C106.557 8.50163 106.124 9.75775 106.179 10.5451C106.621 16.9668 107.027 23.3885 107.423 29.8102C107.482 30.7295 107.842 31.7626 106.152 31.7672C104.634 31.7717 104.452 31.0845 104.397 29.842C104.165 24.3306 103.855 18.8191 103.568 13.3077L103.199 13.253V13.2576Z" fill="white"/>
<path d="M275.857 27.9032C277.046 24.1712 278.245 20.4529 279.411 16.721C279.698 15.8062 279.963 15.1326 281.198 15.1554C282.392 15.1736 282.706 15.7379 282.998 16.7118C284.087 20.3619 285.253 23.9937 286.593 28.2718C287.782 24.0392 288.771 20.4484 289.81 16.8711C290.02 16.143 289.979 15.1872 291.227 15.1781C292.54 15.169 293.424 15.1599 292.8 16.9576C291.259 21.3813 289.833 25.846 288.443 30.3198C288.115 31.3757 287.632 31.7352 286.534 31.7489C285.376 31.7625 284.98 31.2574 284.675 30.2516C283.599 26.7153 282.437 23.2064 281.138 19.174C280.327 21.5861 279.648 23.5932 278.974 25.6003C278.445 27.175 277.871 28.7406 277.406 30.3335C277.106 31.3575 276.586 31.758 275.474 31.7489C274.34 31.7443 273.934 31.3074 273.633 30.2652C272.357 25.8369 270.949 21.4451 269.655 17.0213C269.491 16.4661 268.584 15.483 269.887 15.2737C270.84 15.1189 272.152 14.6183 272.562 16.4115C273.351 19.8749 274.317 23.2974 275.21 26.7335C275.319 27.1613 275.315 27.6528 275.866 27.8941L275.857 27.9032Z" fill="white"/>
<path d="M186.914 14.8186C182.143 14.8141 178.716 18.4004 178.657 23.4658C178.598 28.4311 181.929 32.0493 186.604 32.0948C191.471 32.1449 194.962 28.4857 194.971 23.3293C194.98 18.3503 191.64 14.8186 186.914 14.8186ZM191.485 25.7141C190.737 28.2764 188.896 29.8602 186.723 29.8283C184.563 29.801 182.708 28.1672 182.029 25.6185C181.838 24.8994 181.801 24.1394 181.696 23.3975C181.71 21.9958 182.066 20.6896 182.754 19.4972C183.651 17.9407 185.032 17.0987 186.841 17.0987C188.65 17.0987 190.004 17.9908 190.851 19.5837C191.89 21.5361 192.104 23.5887 191.485 25.7141Z" fill="white"/>
<path d="M259.524 14.8186C254.74 14.7503 251.295 18.2547 251.149 23.3475C251.008 28.2855 254.307 31.9719 258.978 32.0903C263.844 32.2177 267.371 28.6177 267.44 23.4476C267.508 18.4277 264.259 14.8869 259.524 14.8186ZM263.776 26.3695C262.924 28.3993 261.548 29.8283 259.21 29.8056C256.872 29.7783 255.505 28.3082 254.721 26.2648C254.084 24.6036 254.047 22.8878 254.557 21.1629C255.337 18.5688 257.073 17.076 259.333 17.0896C261.58 17.0987 263.348 18.6461 264.022 21.2585C264.204 21.9776 264.232 22.7422 264.245 22.8195C264.3 24.4853 264.159 25.4501 263.776 26.3695Z" fill="white"/>
<path d="M154.038 14.8185C149.272 14.864 145.882 18.4822 145.863 23.5476C145.845 28.5129 149.208 32.0901 153.897 32.0947C158.755 32.0947 162.209 28.4082 162.177 23.2427C162.145 18.2637 158.778 14.7775 154.038 14.8185ZM158.445 26.4785C157.616 28.4082 156.267 29.7827 154.029 29.81C151.792 29.8373 150.384 28.4947 149.554 26.5696C148.784 24.7901 148.734 22.915 149.317 21.0445C150.124 18.464 151.906 17.0121 154.175 17.085C156.349 17.1532 157.971 18.5959 158.686 21.1673C158.887 21.8864 158.955 22.6374 159.087 23.3792C159.083 24.4669 158.86 25.5046 158.445 26.4785Z" fill="white"/>
<path d="M227.799 20.148C227.799 16.8985 227.881 13.6444 227.762 10.3994C227.703 8.85204 228.254 8.46975 229.703 8.51071C232.729 8.60173 235.764 8.55622 238.79 8.52891C239.729 8.51981 240.389 8.60173 240.389 9.82599C240.389 11.0047 239.815 11.1822 238.831 11.1595C236.634 11.114 234.438 11.1777 232.242 11.1322C231.303 11.114 230.779 11.3643 230.906 12.3928C230.925 12.543 230.906 12.6932 230.906 12.848C230.794 16.6588 232.632 18.5642 236.42 18.5642C237.104 18.5642 237.783 18.5915 238.466 18.5642C239.355 18.5233 239.651 18.9329 239.66 19.7885C239.669 20.6896 239.473 21.2084 238.416 21.1811C236.525 21.1265 234.62 21.2722 232.738 21.1356C231.18 21.0218 230.82 21.6272 230.884 23.0608C230.988 25.4001 230.847 27.7485 230.938 30.0878C230.988 31.3939 230.528 31.7626 229.252 31.7671C227.972 31.7717 227.767 31.2347 227.785 30.1378C227.84 26.8109 227.803 23.4886 227.803 20.1617L227.799 20.148Z" fill="white"/>
<path d="M199.137 24.6263C199.137 22.9606 199.128 21.2948 199.137 19.6291C199.146 18.4959 199.401 17.2671 197.524 17.4719C196.781 17.5538 196.85 16.8302 196.831 16.3068C196.809 15.7333 196.891 15.1417 197.629 15.2327C199.36 15.4466 199.087 14.2269 199.201 13.212C199.698 8.69268 202.245 6.41255 206.141 6.9951C206.825 7.09977 207.782 6.92228 207.668 8.14654C207.577 9.1569 207.185 9.46638 206.068 9.41631C203.343 9.28888 201.52 11.8421 202.254 14.4772C202.609 15.7561 203.621 15.0006 204.323 15.1963C205.07 15.4056 206.26 14.6684 206.305 16.2749C206.351 17.9907 205.084 17.5993 204.25 17.4901C202.386 17.2398 202.167 18.1272 202.213 19.6837C202.313 23.1608 202.181 26.647 202.272 30.1241C202.309 31.494 201.757 31.7307 200.545 31.7534C199.196 31.7807 199.096 31.1117 199.123 30.0695C199.174 28.2536 199.137 26.4377 199.137 24.6217V24.6263Z" fill="white"/>
<path d="M128.901 14.8005C129.411 14.896 130.232 15.028 131.043 15.2055C131.781 15.3693 132.533 15.4331 132.237 16.6255C131.968 17.7177 131.567 17.7815 130.523 17.5767C125.201 16.5253 122.038 19.2105 122.471 24.2896C122.804 28.1672 125.83 30.238 129.917 29.5053C130.628 29.3778 131.776 28.149 132.191 30.0286C132.592 31.8446 131.147 31.6033 130.263 31.7899C126.709 32.55 123.36 32.1586 121.036 29.0501C118.798 26.0555 118.753 22.6512 120.329 19.3698C121.952 15.9929 124.996 14.8187 128.91 14.7959L128.901 14.8005Z" fill="white"/>
<path d="M169.347 32.122C168.19 32.1357 167.087 31.8717 165.993 31.5349C165.16 31.2801 164.736 30.8705 165.1 29.8647C165.465 28.8588 165.911 28.8315 166.782 29.2457C167.889 29.7691 169.101 29.9784 170.336 29.7918C171.448 29.6234 172.396 29.1683 172.688 27.9668C172.997 26.6879 172.478 25.7185 171.339 25.136C170.395 24.6536 169.375 24.3259 168.431 23.8526C166.481 22.8695 165.046 21.5178 165.319 19.0784C165.551 17.0031 167.142 15.4784 169.593 14.9642C171.047 14.6592 172.464 14.8731 173.863 15.2873C174.67 15.5239 175.226 15.8516 174.884 16.8984C174.547 17.9361 173.973 17.8496 173.184 17.5083C172.337 17.1396 171.434 17.0031 170.509 17.1442C169.366 17.3125 168.463 17.8405 168.249 19.0511C168.044 20.198 168.732 20.9034 169.689 21.3676C170.509 21.759 171.357 22.0958 172.182 22.469C174.952 23.7297 176.114 25.5046 175.736 27.8758C175.372 30.165 173.526 31.6988 170.71 32.0447C170.259 32.0993 169.803 32.0993 169.347 32.1266V32.122Z" fill="white"/>
<path d="M209.978 23.2792C209.978 22.1459 209.965 21.0127 209.978 19.8749C210.001 18.5869 210.261 17.176 208.142 17.4946C207.408 17.6039 207.335 17.0031 207.326 16.4297C207.312 15.7788 207.353 15.1144 208.228 15.2327C210.179 15.5012 210.001 14.2405 209.992 12.9844C209.987 12.2198 209.646 11.2823 210.817 10.9182C212.042 10.5359 213.154 10.2765 212.826 12.1925C212.402 14.6775 213.346 15.6742 215.857 15.2236C216.736 15.0643 217.274 15.3692 217.233 16.4433C217.196 17.4127 216.686 17.4764 215.916 17.531C212.835 17.754 212.835 17.7768 212.835 20.9034C212.835 22.8695 212.794 24.8356 212.872 26.7972C212.94 28.513 213.628 29.7555 215.647 29.5461C216.463 29.4596 216.914 29.628 216.973 30.5701C217.032 31.5668 216.558 31.8672 215.679 32.031C212.384 32.6409 210.201 30.9752 210.015 27.58C209.933 26.1464 210.001 24.7082 210.001 23.27H209.974L209.978 23.2792Z" fill="white"/>
<path d="M144.298 15.7834C144.384 14.5318 143.446 14.8003 142.726 14.8777C141.103 15.0506 140.137 16.3067 138.966 17.3217C138.825 17.0213 138.643 16.821 138.652 16.6299C138.72 15.3874 138.059 15.1508 136.961 15.1781C135.581 15.2099 135.877 16.1156 135.881 16.9166C135.899 21.1446 135.922 25.3772 135.941 29.6052C135.945 30.7112 135.612 31.8308 137.531 31.8034C139.54 31.7807 138.966 30.5109 138.985 29.5142C139.035 27.2477 138.93 24.9813 139.026 22.7148C139.162 19.6837 140.356 18.1545 143.227 17.7449C144.817 17.5174 144.248 16.5525 144.298 15.7834ZM138.743 17.8951C138.707 17.845 138.638 17.7904 138.643 17.7404C138.647 17.6903 138.725 17.6493 138.77 17.6038C138.802 17.6584 138.839 17.7085 138.875 17.7631C138.83 17.8132 138.789 17.8541 138.743 17.8951Z" fill="white"/>
<path d="M247.018 19.5974C247.018 23.0836 246.999 26.5652 247.027 30.0514C247.036 31.0618 246.99 31.7399 245.628 31.7535C244.22 31.7672 244.046 31.1573 244.051 29.9831C244.092 22.9379 244.097 15.8928 244.051 8.84755C244.042 7.58688 244.384 7.13177 245.71 7.12721C247.182 7.12266 247.022 8.00104 247.022 8.91127C247.022 12.4703 247.022 16.0338 247.022 19.5928L247.018 19.5974Z" fill="white"/>
<path d="M112.516 23.4522C112.516 21.1857 112.557 18.9147 112.498 16.6482C112.471 15.6105 112.739 15.119 113.879 15.1827C114.84 15.2373 115.651 15.1463 115.633 16.5481C115.574 21.1584 115.574 25.7733 115.633 30.3836C115.651 31.7945 114.817 31.6807 113.865 31.7353C112.708 31.8036 112.475 31.2756 112.498 30.2562C112.553 27.9897 112.516 25.7187 112.516 23.4522Z" fill="white"/>
<path d="M115.869 10.586C115.741 11.7693 115.039 12.4065 113.932 12.3701C112.829 12.3337 112.082 11.6373 112.118 10.4904C112.159 9.26617 112.934 8.52433 114.165 8.60625C115.299 8.68362 115.832 9.48462 115.869 10.586Z" fill="white"/>
<path d="M138.878 17.7633C138.832 17.8088 138.787 17.8543 138.741 17.8953C138.705 17.8452 138.636 17.7906 138.641 17.7405C138.641 17.6905 138.723 17.6495 138.764 17.604C138.8 17.6541 138.837 17.7087 138.873 17.7633H138.878Z" fill="white"/>
</g>
<defs>
<clipPath id="clip0_2625_2851">
<rect width="293" height="58" fill="white"/>
</clipPath>
</defs>
</svg>
