<svg width="216" height="207" viewBox="0 0 216 207" fill="none" xmlns="http://www.w3.org/2000/svg">
<g clip-path="url(#clip0_5535_2736)">
<rect width="216" height="206.929" fill="#151517"/>
<path d="M65.25 118.123C65.25 116.193 65.0395 113.878 65.0395 112.194C64.5483 113.773 64.0218 115.527 63.3201 117.422L60.9343 124.088H59.5659L57.3557 117.527C56.7241 115.562 56.1627 113.808 55.7767 112.194C55.7767 113.913 55.7767 116.194 55.5311 118.264L55.1452 124.193H53.4609L54.4083 110.404H56.6539L59.0046 117.071C59.566 118.79 60.0221 120.299 60.373 121.702C60.7589 120.334 61.2501 118.825 61.8466 117.071L64.2675 110.404H66.5131L67.3902 124.193H65.6359L65.25 118.123Z" fill="white"/>
<path d="M71.1094 112.472C70.9573 112.464 70.8084 112.425 70.6713 112.358C70.5342 112.291 70.4117 112.198 70.3107 112.084C70.2096 111.97 70.132 111.837 70.0824 111.693C70.0328 111.549 70.0123 111.397 70.0218 111.244C70.0392 110.956 70.1641 110.684 70.3719 110.483C70.5797 110.281 70.8554 110.165 71.1446 110.157C71.2874 110.152 71.4297 110.176 71.5634 110.226C71.6972 110.276 71.8198 110.353 71.9241 110.45C72.0283 110.548 72.1123 110.666 72.1712 110.796C72.2301 110.926 72.2628 111.067 72.2673 111.209V111.209C72.272 111.357 72.2475 111.504 72.1954 111.642C72.1433 111.78 72.0645 111.906 71.9635 112.014C71.8625 112.121 71.7412 112.208 71.6067 112.268C71.4722 112.329 71.3272 112.363 71.1797 112.367L71.1094 112.472ZM70.2323 114.297H71.9515V124.191H70.1621L70.2323 114.297Z" fill="white"/>
<path d="M81.987 123.947C81.0999 124.325 80.1445 124.516 79.1802 124.509C77.9387 124.566 76.725 124.129 75.8046 123.294C74.8841 122.459 74.3317 121.294 74.2681 120.053V119.456C74.2011 118.122 74.6657 116.815 75.56 115.822C76.4543 114.829 77.7056 114.231 79.0399 114.158H79.5661C80.413 114.156 81.2505 114.336 82.0222 114.684L81.6363 116.053C80.99 115.745 80.2818 115.589 79.5661 115.597C78.6356 115.597 77.7432 115.966 77.0852 116.624C76.4272 117.282 76.0575 118.175 76.0575 119.105C76.0402 119.233 76.0402 119.363 76.0575 119.491C76.0058 120.378 76.2919 121.251 76.8584 121.934C77.4249 122.618 78.2295 123.061 79.11 123.175H79.4609C80.2131 123.171 80.9553 123.003 81.6363 122.684L81.987 123.947Z" fill="white"/>
<path d="M84.0898 117.386C84.0898 116.193 84.0898 115.211 84.0898 114.298H85.6336V116.228C85.8121 115.629 86.1702 115.099 86.6596 114.71C87.1491 114.321 87.7462 114.091 88.3702 114.053H88.8615V115.737H88.23C87.6201 115.753 87.0379 115.995 86.5969 116.417C86.1558 116.838 85.8875 117.409 85.8441 118.017C85.8268 118.298 85.8268 118.579 85.8441 118.86V124.158H84.0898V117.386Z" fill="white"/>
<path d="M94.621 124.403C94.0023 124.413 93.3879 124.299 92.8136 124.068C92.2393 123.838 91.7166 123.496 91.2758 123.062C90.835 122.627 90.485 122.11 90.2462 121.539C90.0073 120.968 89.8842 120.356 89.8842 119.737V119.316C89.7771 118.042 90.1781 116.777 90.9997 115.798C91.8214 114.819 92.9969 114.204 94.27 114.088H94.7613C95.9962 114.079 97.1852 114.555 98.0716 115.415C98.9579 116.275 99.4702 117.45 99.4978 118.684V119.175C99.5557 119.809 99.4882 120.448 99.2991 121.055C99.1099 121.663 98.8031 122.227 98.3958 122.716C97.9885 123.205 97.4889 123.608 96.9254 123.904C96.362 124.2 95.7457 124.381 95.112 124.438L94.621 124.403ZM94.621 123.07C96.3402 123.07 97.6032 121.456 97.6032 119.211C97.6032 117.526 96.7961 115.421 94.6559 115.421C92.5156 115.421 91.6737 117.386 91.6737 119.281C91.6737 121.175 92.9018 123.07 94.621 123.07Z" fill="white"/>
<path d="M101.491 122.368C102.219 122.79 103.037 123.031 103.877 123.069C105.14 123.069 105.737 122.403 105.737 121.596C105.737 120.789 105.246 120.262 103.948 119.771C102.649 119.28 101.316 118.157 101.316 116.964C101.334 116.563 101.431 116.17 101.601 115.806C101.772 115.443 102.012 115.117 102.308 114.846C102.605 114.576 102.952 114.366 103.33 114.23C103.707 114.094 104.108 114.033 104.509 114.052H104.72C105.556 114.05 106.379 114.268 107.105 114.684L106.684 115.947C106.079 115.587 105.389 115.393 104.684 115.385C103.632 115.385 103.07 115.982 103.07 116.719C103.07 117.456 103.632 117.947 104.895 118.438C106.158 118.929 107.456 119.947 107.456 121.42C107.456 122.894 106.123 124.438 103.948 124.438C102.98 124.438 102.027 124.197 101.176 123.736L101.491 122.368Z" fill="white"/>
<path d="M113.777 124.403C113.158 124.413 112.544 124.299 111.97 124.068C111.396 123.838 110.873 123.496 110.432 123.062C109.991 122.627 109.641 122.11 109.402 121.539C109.163 120.968 109.04 120.356 109.04 119.737V119.316C108.933 118.042 109.334 116.777 110.156 115.798C110.978 114.819 112.153 114.204 113.426 114.088H114.058C115.293 114.079 116.482 114.555 117.368 115.415C118.254 116.275 118.767 117.45 118.794 118.684V119.175C118.852 119.809 118.785 120.448 118.596 121.055C118.406 121.663 118.1 122.227 117.692 122.716C117.285 123.205 116.785 123.608 116.222 123.904C115.659 124.2 115.042 124.381 114.409 124.438L113.777 124.403ZM113.777 123.07C115.496 123.07 116.759 121.456 116.759 119.211C116.759 117.526 115.952 115.421 113.812 115.421C111.672 115.421 110.83 117.386 110.83 119.281C110.83 121.175 112.058 123.07 113.777 123.07Z" fill="white"/>
<path d="M121.075 124.192V115.666H119.707V114.298H121.075V113.807C121.015 113.174 121.087 112.535 121.286 111.931C121.486 111.327 121.808 110.771 122.233 110.298C122.545 109.998 122.913 109.762 123.317 109.606C123.721 109.449 124.151 109.374 124.584 109.386C125.112 109.374 125.638 109.469 126.128 109.667L125.882 111.035C125.513 110.891 125.12 110.82 124.724 110.824C123.251 110.824 122.83 112.158 122.83 113.701V114.228H125.216V115.596H122.865V124.122L121.075 124.192Z" fill="white"/>
<path d="M129.181 111.912V114.298H131.601V115.666H129.04V120.999C129.04 122.227 129.391 122.929 130.374 122.929C130.722 122.982 131.077 122.982 131.426 122.929V124.297C130.921 124.484 130.385 124.567 129.847 124.543C129.493 124.555 129.139 124.496 128.808 124.369C128.477 124.243 128.174 124.051 127.917 123.806C127.394 123.047 127.146 122.13 127.216 121.21V115.807H125.707V114.438H127.216V112.614L129.181 111.912Z" fill="white"/>
<path d="M53.7382 128.578C54.9785 128.367 56.2344 128.261 57.4925 128.262C59.4912 128.114 61.4719 128.728 63.0361 129.981C63.6948 130.626 64.2077 131.404 64.5405 132.263C64.8734 133.123 65.0184 134.043 64.9658 134.963C65.0097 135.938 64.8584 136.912 64.521 137.828C64.1836 138.744 63.6669 139.583 63.001 140.296C61.3154 141.728 59.1375 142.446 56.931 142.296C55.8784 142.296 54.7908 142.296 53.7031 142.296L53.7382 128.578ZM55.5277 140.753C56.1112 140.806 56.6984 140.806 57.282 140.753C57.9692 140.836 58.6661 140.781 59.3322 140.593C59.9983 140.404 60.6203 140.085 61.1621 139.654C61.704 139.223 62.1548 138.689 62.4886 138.083C62.8223 137.476 63.0322 136.81 63.1062 136.121C63.1413 135.724 63.1413 135.325 63.1062 134.928C63.174 134.292 63.1151 133.648 62.9327 133.035C62.7503 132.421 62.4481 131.85 62.0436 131.354C61.639 130.858 61.1399 130.447 60.5756 130.145C60.0112 129.844 59.3926 129.657 58.7555 129.595C58.3596 129.543 57.9586 129.543 57.5627 129.595C56.8693 129.602 56.1773 129.661 55.4925 129.771L55.5277 140.753Z" fill="white"/>
<path d="M68.4491 132.262L70.5893 138.121C70.8349 138.753 71.0806 139.524 71.256 140.121C71.4314 139.524 71.6419 138.788 71.8875 138.051L73.8174 132.262H75.712L73.0454 139.279C72.3731 141.593 71.1719 143.719 69.5368 145.489C68.9012 146.043 68.1439 146.44 67.3264 146.647L66.9054 145.138C67.4728 144.951 67.9975 144.652 68.4491 144.261C69.0864 143.707 69.6003 143.026 69.9578 142.261C69.9777 142.11 69.9777 141.956 69.9578 141.805C69.9729 141.665 69.9729 141.524 69.9578 141.384L66.4492 132.227L68.4491 132.262Z" fill="white"/>
<path d="M77.2539 134.93C77.2539 133.877 77.2539 133.07 77.2539 132.263H78.8328V133.877C79.1598 133.311 79.6304 132.841 80.1972 132.514C80.7639 132.188 81.4066 132.016 82.0607 132.018C83.429 132.018 85.5693 132.86 85.5693 136.228V142.157H83.7799V136.438C83.7799 134.86 83.1833 133.491 81.4992 133.491C80.9571 133.513 80.4356 133.704 80.0076 134.038C79.5797 134.371 79.2669 134.83 79.1134 135.351C79.0796 135.63 79.0796 135.913 79.1134 136.193V142.157H77.3241L77.2539 134.93Z" fill="white"/>
<path d="M95.4261 139.77C95.3552 140.564 95.3552 141.362 95.4261 142.156H93.8121V140.928C93.4599 141.393 93.0034 141.769 92.4792 142.025C91.955 142.281 91.378 142.41 90.7947 142.402C90.426 142.425 90.0561 142.376 89.7064 142.257C89.3568 142.137 89.0342 141.95 88.7571 141.705C88.48 141.461 88.2539 141.164 88.0917 140.832C87.9296 140.5 87.8348 140.139 87.8125 139.77V139.525C87.8125 137.139 89.9176 135.84 93.7069 136.016V135.77C93.7681 135.242 93.6236 134.711 93.3035 134.286C92.9834 133.861 92.5124 133.576 91.9877 133.49H91.4614C90.5552 133.489 89.6674 133.744 88.9002 134.226L88.514 133.034C89.4895 132.451 90.6062 132.148 91.7421 132.156C94.7595 132.156 95.4964 134.227 95.4964 136.226L95.4261 139.77ZM93.6718 137.104C91.707 137.104 89.4966 137.419 89.4966 139.349C89.4674 139.762 89.6018 140.171 89.8709 140.486C90.14 140.801 90.5222 140.997 90.935 141.033H91.1806C91.7066 141.049 92.2242 140.898 92.6591 140.602C93.094 140.306 93.4239 139.879 93.6016 139.384C93.6186 139.197 93.6186 139.01 93.6016 138.823L93.6718 137.104Z" fill="white"/>
<path d="M98.2695 134.93C98.2695 133.877 98.2695 133.07 98.2695 132.263H99.8133V133.842C100.119 133.283 100.571 132.818 101.122 132.497C101.672 132.175 102.299 132.01 102.936 132.018C103.544 132.024 104.134 132.22 104.625 132.579C105.116 132.937 105.482 133.44 105.673 134.018C105.935 133.51 106.306 133.066 106.76 132.72C107.391 132.262 108.157 132.027 108.936 132.053C110.234 132.053 112.164 132.895 112.164 136.333V142.158H110.55V136.544C110.55 134.649 109.848 133.491 108.445 133.491C107.964 133.522 107.504 133.696 107.123 133.99C106.742 134.283 106.457 134.684 106.304 135.141C106.254 135.431 106.254 135.727 106.304 136.018V142.158H104.55V136.228C104.55 134.614 103.883 133.491 102.515 133.491C102.002 133.526 101.513 133.72 101.116 134.048C100.719 134.375 100.436 134.819 100.305 135.316C100.251 135.606 100.251 135.903 100.305 136.193V142.158H98.5503L98.2695 134.93Z" fill="white"/>
<path d="M116.021 130.439C115.714 130.439 115.42 130.317 115.202 130.1C114.985 129.882 114.863 129.588 114.863 129.281C114.872 128.971 115.002 128.676 115.225 128.46C115.448 128.244 115.746 128.123 116.056 128.123C116.363 128.123 116.658 128.245 116.875 128.462C117.092 128.679 117.214 128.974 117.214 129.281C117.214 129.588 117.092 129.882 116.875 130.1C116.658 130.317 116.363 130.439 116.056 130.439H116.021ZM115.179 132.263H116.969V142.157H115.179V132.263Z" fill="white"/>
<path d="M126.931 141.806C126.034 142.195 125.067 142.398 124.089 142.403C123.473 142.431 122.858 142.337 122.279 142.126C121.7 141.915 121.168 141.591 120.714 141.174C120.261 140.756 119.895 140.253 119.637 139.693C119.379 139.133 119.234 138.528 119.212 137.912C119.195 137.713 119.195 137.514 119.212 137.315C119.179 136.656 119.276 135.997 119.498 135.376C119.72 134.754 120.063 134.183 120.506 133.694C120.949 133.205 121.485 132.808 122.081 132.527C122.678 132.245 123.325 132.084 123.984 132.052H124.58C125.442 132.012 126.3 132.193 127.071 132.579L126.65 133.947C126.014 133.609 125.301 133.44 124.58 133.456C123.65 133.456 122.757 133.825 122.099 134.483C121.441 135.141 121.072 136.034 121.072 136.964V137.385C121.02 138.272 121.306 139.145 121.872 139.828C122.439 140.512 123.244 140.956 124.124 141.069H124.58C125.329 141.074 126.071 140.919 126.756 140.613L126.931 141.806Z" fill="white"/>
<path d="M128.757 140.332C129.485 140.755 130.303 140.996 131.143 141.034C132.406 141.034 133.003 140.403 133.003 139.56C133.003 138.718 132.512 138.227 131.213 137.736C129.915 137.245 128.617 136.122 128.617 134.929C128.631 134.53 128.723 134.137 128.89 133.774C129.056 133.41 129.293 133.084 129.587 132.813C129.881 132.542 130.225 132.332 130.601 132.196C130.976 132.059 131.375 131.998 131.775 132.017H131.985C132.823 132.01 133.647 132.228 134.371 132.649L133.95 133.912C133.338 133.567 132.652 133.375 131.95 133.35C131.753 133.326 131.552 133.343 131.362 133.4C131.171 133.456 130.995 133.552 130.843 133.681C130.691 133.809 130.568 133.968 130.481 134.147C130.394 134.325 130.344 134.52 130.336 134.719C130.336 135.526 130.897 135.912 132.161 136.403C133.424 136.894 134.722 137.911 134.722 139.385C134.722 140.859 133.389 142.402 131.213 142.402C130.245 142.402 129.293 142.161 128.441 141.701L128.757 140.332Z" fill="white"/>
<path d="M143.461 141.874C142.647 142.2 141.776 142.356 140.9 142.33C140.299 142.368 139.697 142.286 139.129 142.089C138.561 141.891 138.038 141.583 137.59 141.181C137.143 140.779 136.78 140.292 136.523 139.749C136.266 139.205 136.12 138.616 136.093 138.015C136.058 137.782 136.058 137.546 136.093 137.313C136.016 136.025 136.453 134.759 137.308 133.792C138.163 132.825 139.366 132.237 140.654 132.155H141.18C141.974 132.114 142.767 132.258 143.496 132.576L143.18 133.629C142.564 133.345 141.893 133.202 141.215 133.208C140.729 133.164 140.238 133.222 139.775 133.379C139.313 133.535 138.887 133.787 138.527 134.117C138.167 134.447 137.88 134.849 137.685 135.297C137.489 135.744 137.389 136.228 137.391 136.717C137.373 136.927 137.373 137.138 137.391 137.348C137.332 137.812 137.367 138.283 137.493 138.733C137.619 139.184 137.834 139.604 138.125 139.97C138.416 140.336 138.777 140.641 139.187 140.865C139.597 141.09 140.048 141.23 140.513 141.278H141.11C141.822 141.284 142.527 141.14 143.18 140.857L143.461 141.874Z" fill="white"/>
<path d="M145.07 132.472C145.869 132.329 146.68 132.259 147.491 132.261C148.507 132.151 149.527 132.44 150.333 133.069C150.58 133.309 150.772 133.599 150.899 133.92C151.026 134.24 151.084 134.584 151.07 134.928C151.084 135.487 150.913 136.034 150.583 136.485C150.253 136.936 149.782 137.264 149.246 137.419V137.419C149.635 137.593 149.973 137.866 150.225 138.211C150.478 138.555 150.636 138.96 150.684 139.384C150.855 140.303 151.101 141.207 151.421 142.086H150.123C149.806 141.334 149.593 140.544 149.491 139.735C149.175 138.366 148.649 137.875 147.491 137.805H146.298V142.086H145.07V132.472ZM146.333 136.928H147.596C148.965 136.928 149.807 136.191 149.807 135.068C149.807 133.946 148.895 133.244 147.561 133.244C147.142 133.192 146.718 133.192 146.298 133.244L146.333 136.928Z" fill="white"/>
<path d="M161.108 137.981C161.108 136.613 161.108 134.929 161.108 133.736C160.757 134.859 160.371 136.122 159.88 137.455L158.161 142.262H157.213L155.6 137.56C155.144 136.157 154.758 134.894 154.477 133.736C154.477 134.964 154.477 136.578 154.266 138.086L154.021 142.297H152.652L153.319 132.473H154.933L156.582 137.244C157.003 138.437 157.319 139.525 157.599 140.542C157.88 139.56 158.231 138.472 158.652 137.244L160.406 132.473H161.985L162.617 142.297H161.354L161.108 137.981Z" fill="white"/>
<path fill-rule="evenodd" clip-rule="evenodd" d="M69.0781 104.999V101.49C75.3931 94.8605 80.7222 87.3572 84.902 79.2108C88.0754 73.3848 90.4363 67.1518 91.9192 60.6854C91.9689 60.3423 92.0392 60.0025 92.1297 59.6678C92.1297 59.4573 92.1298 59.0012 92.4455 59.1416C92.7613 59.2819 93.463 59.1416 93.463 59.7732V94.8592C93.463 95.9469 93.4629 95.9469 92.3402 96.0521C89.1865 96.3974 86.073 97.0436 83.0423 97.9819C79.6913 99.0262 76.4851 100.488 73.499 102.332C73.499 102.683 72.9727 102.683 72.7972 102.964C71.9185 103.532 71.075 104.153 70.2711 104.824C69.9203 104.824 69.6394 105.315 69.2184 105.315" fill="white"/>
<path fill-rule="evenodd" clip-rule="evenodd" d="M69.0781 105.003C69.3939 104.792 69.6745 104.441 70.0955 104.476C70.6425 104.063 71.261 103.754 71.9201 103.564C72.4113 103.564 72.8323 103.038 73.3936 103.073C76.0555 102.03 78.7873 101.174 81.5687 100.512C85.6916 99.4972 89.919 98.9673 94.1647 98.9329C98.2933 98.9243 102.407 99.4312 106.41 100.442C107.322 100.687 107.708 100.442 107.708 99.4241V84.6178C107.688 84.3993 107.723 84.1793 107.808 83.9773C107.894 83.7753 108.028 83.5977 108.199 83.46C111.256 80.7827 114.172 77.9486 116.936 74.9691C116.936 74.9691 117.181 74.5832 117.427 74.7586C117.672 74.934 117.988 74.7586 117.988 75.2849V104.336C118.019 104.577 117.956 104.821 117.812 105.017C117.669 105.213 117.455 105.346 117.216 105.389C117.031 105.426 116.84 105.426 116.655 105.389C111.823 103.694 106.824 102.518 101.743 101.88C97.2953 101.36 92.8094 101.243 88.3403 101.529C82.3838 101.846 76.4903 102.906 70.7973 104.687L69.4991 105.108C69.4991 105.108 69.2185 105.108 69.1132 105.108" fill="white"/>
<path fill-rule="evenodd" clip-rule="evenodd" d="M71.9534 103.666L70.0938 104.473C70.6485 103.795 71.3426 103.245 72.1288 102.859C72.1288 102.859 72.4796 102.859 72.5498 102.508L73.4972 102.122C76.7282 100.367 80.1553 99.0013 83.7072 98.0519C86.7693 97.2142 89.9077 96.6853 93.0753 96.4731C94.1279 96.4731 94.1629 96.4731 94.1629 95.3503V85.7017C94.1472 85.544 94.1639 85.3848 94.2122 85.234C94.2605 85.0831 94.3392 84.9437 94.4435 84.8245C99.1565 79.771 102.924 73.9122 105.566 67.5271C105.566 67.3166 105.566 66.8955 106.057 67.0359C106.548 67.1762 106.864 67.0359 106.864 67.8428C106.864 78.1347 106.864 88.4267 106.864 98.7186C106.864 99.1396 106.864 99.315 106.303 99.3852C105.779 99.4556 105.248 99.4556 104.724 99.3852C99.7472 98.3983 94.6552 98.1266 89.6018 98.5782C84.0298 99.0119 78.578 100.425 73.4972 102.753H73.2165C72.8656 103.139 72.3043 103.139 71.9534 103.49" fill="white"/>
</g>
<defs>
<clipPath id="clip0_5535_2736">
<rect width="216" height="206.929" fill="white"/>
</clipPath>
</defs>
</svg>
