<svg width="231" height="127" viewBox="0 0 231 127" fill="none" xmlns="http://www.w3.org/2000/svg">
<g clip-path="url(#clip0_122_2514)">
<path d="M217.055 53.9714C216.557 54.3432 216.131 54.797 215.671 55.2098C215.567 55.3028 215.535 55.4066 215.537 55.5351C215.543 55.6773 215.537 55.8194 215.537 55.9616C215.537 60.4531 215.537 64.9419 215.537 69.4334C215.537 69.5755 215.543 69.7177 215.537 69.8598C215.529 70.0321 215.469 70.1824 215.289 70.2289C215.103 70.2781 214.944 70.2371 214.827 70.0567C214.515 69.5783 214.195 69.1108 213.881 68.6324C212.856 67.0714 211.833 65.5078 210.808 63.9468C209.559 62.0441 208.307 60.1415 207.057 58.2388C207.011 58.165 206.953 58.0994 206.877 57.9982C206.751 58.1568 206.806 58.3181 206.806 58.4575C206.8 61.5575 206.817 64.6603 206.789 67.7603C206.784 68.2825 206.964 68.6215 207.353 68.9304C207.722 69.2256 208.047 69.5728 208.454 69.961H203.553C203.807 69.5865 204.165 69.3104 204.477 68.996C204.551 68.9222 204.635 68.8538 204.723 68.7937C205.023 68.575 205.103 68.2907 205.103 67.9189C205.078 63.8757 205.07 59.8298 205.062 55.7866C205.062 55.5023 205.007 55.3 204.761 55.1032C204.318 54.7506 203.927 54.335 203.512 53.9441C203.591 53.7774 203.733 53.8512 203.842 53.8484C204.805 53.843 205.767 53.8621 206.729 53.8375C207.254 53.8238 207.59 54.0453 207.867 54.4717C208.845 55.978 209.848 57.4706 210.841 58.9687C211.781 60.3902 212.722 61.809 213.689 63.2743C213.788 63.1075 213.755 62.9654 213.755 62.8369C213.755 60.4859 213.752 58.1322 213.763 55.7812C213.763 55.4695 213.681 55.2645 213.43 55.0622C212.995 54.7123 212.604 54.3077 212.128 53.8621H217.057V53.9687L217.055 53.9714Z" fill="#DDDDDD"/>
<path d="M112.308 108.953C112.341 108.467 112.565 108.035 112.694 107.576C112.902 106.84 113.15 106.118 113.383 105.391C113.539 104.899 113.541 104.899 113.101 104.571C112.229 103.926 111.354 103.284 110.482 102.641C110.398 102.578 110.318 102.51 110.236 102.442C110.316 102.264 110.458 102.343 110.562 102.34C111.666 102.335 112.77 102.34 113.875 102.335C114.345 102.335 114.351 102.335 114.498 101.876C114.843 100.81 115.179 99.7434 115.515 98.6773C115.548 98.5761 115.559 98.4668 115.685 98.3984C115.92 98.896 116.054 99.4291 116.231 99.9457C116.456 100.602 116.647 101.266 116.86 101.925C116.991 102.33 116.997 102.335 117.412 102.335C118.462 102.338 119.515 102.335 120.564 102.335H121.127C121.007 102.562 120.84 102.633 120.706 102.734C119.864 103.36 119.02 103.981 118.178 104.607C117.814 104.877 117.817 104.88 117.954 105.309C118.334 106.493 118.714 107.677 119.094 108.863C118.856 108.953 118.686 108.806 118.514 108.685C117.773 108.169 117.043 107.63 116.316 107.092C115.674 106.613 115.679 106.616 115.015 107.108C114.159 107.737 113.342 108.426 112.415 108.951H112.308V108.953Z" fill="#EEEEEE"/>
<path d="M17.8988 70.3252H13C13.3581 69.8359 13.8037 69.5078 14.2028 69.1442C14.4789 68.8927 14.5801 68.6139 14.6074 68.2749C14.6867 67.2853 14.7605 66.2957 14.8453 65.3061C14.9819 63.6631 15.1296 62.0229 15.2663 60.3799C15.3865 58.9475 15.474 57.515 15.6244 56.088C15.6544 55.7955 15.5451 55.6615 15.3811 55.503C15.0339 55.1694 14.684 54.8414 14.3368 54.5079C14.263 54.4368 14.1755 54.3739 14.1372 54.2017C14.5801 54.2017 15.0011 54.2017 15.4193 54.2017C16.1492 54.2017 16.8819 54.2263 17.6118 54.1935C18.1394 54.1716 18.4456 54.4067 18.6424 54.8633C19.0579 55.8255 19.4789 56.7851 19.8999 57.7446C20.556 59.24 21.2176 60.738 21.8764 62.2334C21.9201 62.3291 21.9748 62.422 22.0432 62.5478C22.1962 62.3919 22.2482 62.2143 22.322 62.0448C23.3389 59.6774 24.3696 57.3182 25.3728 54.9426C25.597 54.4095 25.9332 54.1662 26.5101 54.1771C27.5953 54.1962 28.6806 54.1826 29.7905 54.1826C29.7796 54.3685 29.6238 54.445 29.5199 54.5462C29.2028 54.8578 28.8857 55.1722 28.5522 55.4674C28.3444 55.6533 28.2897 55.8529 28.317 56.1263C28.4701 57.7665 28.6123 59.4095 28.7517 61.0524C28.9048 62.8539 29.047 64.6582 29.1973 66.4597C29.2547 67.1295 29.3258 67.7992 29.3777 68.4717C29.3969 68.7205 29.5008 68.9009 29.6976 69.0513C30.1623 69.4121 30.515 69.8905 31.0098 70.2459C30.6298 70.3799 26.2886 70.4264 25.0831 70.3115C25.5259 69.8796 25.9168 69.4559 26.3542 69.0868C26.6139 68.8681 26.7124 68.6904 26.6522 68.3269C26.5429 67.6653 26.5429 66.9846 26.4855 66.3121C26.3597 64.8113 26.223 63.3105 26.0973 61.8097C26.018 60.8747 25.9524 59.9371 25.8786 58.9994C25.8676 58.849 25.8485 58.696 25.8239 58.4691C25.6025 58.7124 25.5451 58.9557 25.4521 59.1716C24.3012 61.8862 23.1612 64.6063 22.0158 67.3236C21.9283 67.5313 21.8846 67.8211 21.6112 67.8375C21.2968 67.8539 21.2476 67.5395 21.152 67.3236C19.9027 64.516 18.6561 61.7058 17.4122 58.8955C17.363 58.7834 17.3247 58.6659 17.2345 58.5784C17.1471 58.6467 17.1143 58.7206 17.1088 58.8162C17.0268 59.9671 16.9502 61.1153 16.8573 62.2662C16.7206 63.9802 16.5839 65.6943 16.4199 67.4056C16.3926 67.7036 16.3843 68.007 16.3297 68.305C16.2586 68.6959 16.4008 68.9775 16.7097 69.229C17.1033 69.5488 17.4614 69.9124 17.907 70.3252H17.8988Z" fill="#DDDDDD"/>
<path d="M118.695 54.0059H124.611C124.542 54.23 124.378 54.3394 124.247 54.4624C123.935 54.7522 123.618 55.0392 123.296 55.3153C123.148 55.4438 123.093 55.586 123.096 55.78C123.102 57.3656 123.104 58.9512 123.096 60.5367C123.096 60.7746 123.175 60.8402 123.402 60.8374C125.043 60.8183 126.68 60.8046 128.32 60.8019C128.539 60.8019 128.596 60.7144 128.594 60.5176C128.591 58.932 128.588 57.3465 128.594 55.7609C128.594 55.5613 128.52 55.4274 128.378 55.3016C128.085 55.0419 127.801 54.774 127.508 54.5143C127.353 54.3776 127.189 54.2492 127.055 54.0195H132.918C132.522 54.3913 132.213 54.7276 131.858 55.0037C131.478 55.2989 131.319 55.6297 131.322 56.13C131.344 59.979 131.333 63.8281 131.336 67.6772C131.336 67.8385 131.352 67.9998 131.338 68.1583C131.308 68.5165 131.478 68.7516 131.743 68.973C132.148 69.312 132.517 69.6892 132.962 70.1048H127.038C127.533 69.6373 127.979 69.2163 128.43 68.8008C128.596 68.6477 128.67 68.4782 128.668 68.2431C128.657 66.6575 128.668 65.072 128.657 63.4864C128.657 63.1529 128.706 62.7374 128.534 62.5132C128.367 62.2972 127.932 62.4449 127.618 62.4421C126.262 62.4339 124.909 62.4367 123.553 62.4421C123.104 62.4421 123.099 62.4449 123.096 62.8604C123.096 64.6783 123.096 66.4962 123.091 68.3142C123.091 68.5219 123.143 68.6668 123.309 68.8144C123.763 69.2108 124.19 69.64 124.63 70.0583C124.269 70.1676 119.63 70.2004 118.807 70.0911C119.258 69.6728 119.671 69.271 120.106 68.8964C120.313 68.716 120.387 68.5165 120.382 68.2486C120.311 64.1343 120.362 60.0201 120.352 55.9031C120.352 55.6352 120.289 55.4493 120.065 55.2688C119.613 54.8998 119.201 54.4843 118.689 54.0113L118.695 54.0059Z" fill="#DDDDDD"/>
<path d="M162.021 63.3335C162.108 63.1776 162.103 63.03 162.103 62.8906C162.098 60.5915 162.073 58.2952 162.092 55.9962C162.095 55.5506 161.939 55.2635 161.619 54.9983C161.256 54.6976 160.911 54.3696 160.485 53.9841H165.416C165.042 54.4161 164.645 54.7359 164.26 55.0612C163.987 55.2936 163.85 55.5396 163.85 55.9223C163.866 59.2712 163.855 62.6227 163.861 65.9715C163.861 67.1989 163.883 68.4291 163.894 69.6566C163.894 69.7823 163.905 69.9081 163.88 70.0284C163.814 70.3509 163.464 70.4548 163.227 70.2279C163.164 70.1678 163.117 70.0885 163.071 70.0147C161.696 67.9179 160.321 65.8184 158.946 63.7217C157.784 61.9529 156.622 60.1842 155.457 58.4155C155.4 58.328 155.34 58.2433 155.282 58.1585C155.127 58.2105 155.173 58.328 155.173 58.4237C155.179 61.614 155.195 64.8015 155.184 67.9917C155.184 68.3826 155.285 68.6615 155.575 68.9185C155.974 69.2711 156.384 69.6128 156.764 70.0639H151.931C151.895 69.9053 152.037 69.8534 152.117 69.7714C152.226 69.6566 152.349 69.5527 152.472 69.4515C153.099 68.9248 153.413 68.2533 153.413 67.4368C153.413 63.6232 153.407 59.8097 153.421 55.9962C153.421 55.649 153.336 55.3893 153.071 55.1624C152.653 54.8043 152.259 54.4215 151.852 54.0497C151.931 53.8857 152.073 53.9541 152.185 53.9541C153.166 53.9486 154.145 53.9677 155.127 53.9431C155.594 53.9322 155.9 54.1236 156.146 54.4926C157.207 56.0946 158.273 57.6938 159.336 59.2958C160.181 60.5697 161.023 61.8491 161.868 63.1257C161.914 63.194 161.969 63.2597 162.026 63.3362L162.021 63.3335Z" fill="#DDDDDD"/>
<path d="M50.7676 54.17C51.7709 54.1427 52.6593 54.1044 53.5478 54.0989C55.6336 54.088 57.7194 54.0962 59.8025 54.0962C60.4668 54.0962 60.5188 54.1345 60.7211 54.7414C60.9562 55.4494 61.1885 56.1574 61.4264 56.8655C61.4592 56.9666 61.4974 57.0623 61.4564 57.2236C61.0026 56.8983 60.5734 56.5921 60.147 56.2832C60.0595 56.2203 59.972 56.1574 59.8927 56.0864C59.5292 55.7638 59.1191 55.638 58.6243 55.6544C57.6101 55.6872 56.5931 55.6626 55.5762 55.6654C55.1634 55.6654 55.1552 55.6708 55.1552 56.0536C55.1552 57.5872 55.1552 59.1181 55.1552 60.6517C55.1552 61.0699 55.1388 61.0508 55.5707 61.0508C56.4073 61.0508 57.2465 61.0399 58.083 61.0563C58.3537 61.0617 58.556 60.9743 58.7528 60.802C59.1355 60.4658 59.5292 60.1432 59.972 59.7687V63.9157C59.5264 63.5522 59.1273 63.2378 58.7391 62.9097C58.5259 62.7293 58.3072 62.6418 58.0201 62.6473C57.2 62.6664 56.3799 62.6528 55.5598 62.6555C55.1689 62.6555 55.1579 62.661 55.1579 63.0191C55.1552 64.837 55.1552 66.6549 55.1579 68.4701C55.1579 68.8282 55.1689 68.8282 55.5106 68.8228C56.79 68.8009 58.0721 68.7708 59.3515 68.7544C59.5948 68.7517 59.7998 68.6861 59.9939 68.5439C60.568 68.1229 61.1475 67.7129 61.7243 67.2974C61.9102 67.1634 62.1016 67.0377 62.3449 66.8709C62.2492 67.4532 62.0442 67.9398 61.8993 68.4401C61.7708 68.8829 61.615 69.3176 61.4947 69.7632C61.4018 70.1049 61.1967 70.2689 60.8495 70.2799C60.5297 70.2881 60.2099 70.3154 59.89 70.3154C56.9677 70.3181 54.0453 70.3154 51.123 70.3154C51.041 70.3154 50.948 70.3455 50.8277 70.2416C51.194 69.8889 51.533 69.5062 51.9294 69.2C52.2903 68.9239 52.4242 68.6205 52.4215 68.1667C52.4023 65.4931 52.416 62.8223 52.4105 60.1487C52.4078 58.7599 52.3832 57.3712 52.3805 55.9825C52.3805 55.7474 52.3067 55.5916 52.1317 55.4385C51.6943 55.053 51.2788 54.6484 50.7676 54.1673V54.17Z" fill="#DDDDDD"/>
<path d="M115.692 54.7912C115.052 56.2701 114.431 57.6616 113.745 59.0968C113.494 58.2821 113.272 57.5358 112.854 56.8688C112.318 56.0131 111.64 55.3406 110.607 55.1192C109.36 54.854 108.322 55.2368 107.491 56.1662C106.632 57.123 106.233 58.304 106.014 59.5424C105.662 61.5407 105.686 63.5363 106.214 65.5046C106.479 66.4942 106.908 67.3964 107.63 68.1563C109.013 69.6161 111.372 69.3728 112.57 67.8775C113.292 66.9754 113.666 65.9393 113.822 64.813C113.836 64.7091 113.838 64.6052 113.852 64.4385C114.464 64.6654 114.806 65.0864 114.97 65.655C115.23 66.5653 115.038 67.421 114.544 68.2028C113.92 69.1897 113.024 69.8321 111.908 70.1711C110.383 70.6385 108.874 70.6194 107.376 70.0508C105.848 69.4685 104.724 68.4078 103.909 67.0218C103.103 65.6495 102.726 64.1542 102.655 62.5577C102.559 60.48 103.032 58.5719 104.194 56.8579C105.386 55.0973 107.018 53.9464 109.161 53.6895C110.842 53.4872 112.417 53.8672 113.781 54.9169C114.035 55.1137 114.254 55.1657 114.557 55.0618C114.888 54.9497 115.241 54.895 115.697 54.7884L115.692 54.7912Z" fill="#DDDDDD"/>
<path d="M68.4257 70.2098C68.915 69.7587 69.3333 69.3596 69.7652 68.9769C69.9593 68.8019 70.0741 68.627 70.0687 68.3426C69.9867 64.3541 70.0441 60.3629 70.0277 56.3744C70.0277 55.6609 70.0277 55.6609 69.3306 55.6609C68.6526 55.6609 67.9746 55.6746 67.2994 55.6554C67.0069 55.6472 66.7964 55.7511 66.5886 55.9452C66.0556 56.4427 65.5088 56.9211 64.9648 57.405C64.9293 57.4351 64.8719 57.4433 64.8008 57.4706C64.8062 56.984 64.9593 56.5466 65.0359 56.0983C65.1152 55.6254 65.219 55.1579 65.3229 54.6932C65.4377 54.1847 65.5389 54.0972 66.0392 54.0945C69.6203 54.0917 73.2015 54.0945 76.7854 54.0945C77.2119 54.0945 77.3322 54.1683 77.4142 54.5182C77.6301 55.4504 77.827 56.3853 78.0429 57.3695C77.7996 57.3203 77.6903 57.1508 77.5536 57.0414C77.0807 56.6669 76.6159 56.2815 76.1676 55.8769C75.968 55.6964 75.7466 55.598 75.5006 55.598C74.7187 55.598 73.9341 55.5488 73.1523 55.6254C72.7477 55.6636 72.7395 55.6718 72.745 56.06C72.7532 56.6614 72.7887 57.2601 72.7915 57.8588C72.8024 61.2787 72.8161 64.6959 72.8051 68.1157C72.8051 68.5449 72.9172 68.8566 73.248 69.1272C73.6416 69.4498 73.9998 69.8107 74.4372 70.2125H68.4312L68.4257 70.2098Z" fill="#DDDDDD"/>
<path d="M115.578 43.474C119.088 43.474 122.598 43.474 126.108 43.474C126.25 43.474 126.395 43.4658 126.534 43.4904C126.799 43.5368 126.972 43.7391 126.944 43.9633C126.912 44.2121 126.761 44.3406 126.512 44.3542C126.351 44.3624 126.193 44.3597 126.031 44.3597C121.575 44.3597 117.122 44.3597 112.666 44.3597C110.121 44.3597 107.576 44.4745 105.028 44.4362C104.85 44.4335 104.67 44.4636 104.5 44.3898C104.309 44.3078 104.159 44.1984 104.164 43.9606C104.17 43.7255 104.323 43.597 104.514 43.5423C104.681 43.4958 104.867 43.5068 105.042 43.5068C108.552 43.5068 112.062 43.5068 115.575 43.5068V43.4767L115.578 43.474Z" fill="#EEEEEE"/>
<path d="M115.578 40.0959C112.049 40.0959 108.522 40.0959 104.993 40.0959C104.832 40.0959 104.673 40.0959 104.512 40.0767C104.312 40.0549 104.186 39.94 104.17 39.7323C104.154 39.5355 104.236 39.3933 104.413 39.2976C104.599 39.1965 104.796 39.2265 104.99 39.2265C107.04 39.2265 109.088 39.2265 111.138 39.2265C116.111 39.2183 121.081 39.2074 126.053 39.1965C126.215 39.1965 126.376 39.1855 126.535 39.2047C126.745 39.2293 126.939 39.4534 126.939 39.6366C126.939 39.8198 126.745 40.0439 126.537 40.0713C126.379 40.0904 126.217 40.0795 126.056 40.0795C122.563 40.0795 119.072 40.0795 115.578 40.0795C115.578 40.0849 115.578 40.0904 115.578 40.0959Z" fill="#EEEEEE"/>
<path d="M85.3313 42.6152C85.3313 41.7623 85.3285 40.9969 85.3313 40.2314C85.3313 39.8815 85.6675 39.6929 85.9737 39.8624C86.1131 39.9389 86.0749 40.0756 86.0749 40.1932C86.0776 40.8684 86.0749 41.5464 86.0749 42.2243C86.0749 42.6152 86.0831 43.0089 86.0694 43.3998C86.0639 43.5638 86.1733 43.8044 85.9491 43.8673C85.7222 43.9329 85.457 43.9712 85.2547 43.7497C84.9431 43.408 84.626 43.0718 84.3143 42.7328C83.8578 42.2353 83.4067 41.7322 82.9502 41.2374C82.8709 41.1527 82.8053 41.0269 82.5894 41.0543C82.5894 41.4452 82.5511 41.8498 82.6003 42.2407C82.655 42.6699 82.6358 43.0936 82.6358 43.5174C82.6358 43.8563 82.5866 43.8864 82.2695 43.8974C81.9169 43.9083 81.8403 43.8563 81.8321 43.5283C81.8184 42.9761 81.8294 42.4239 81.8266 41.8717C81.8266 41.3386 81.8212 40.8028 81.8266 40.2697C81.8321 39.846 81.8376 39.8542 82.234 39.8296C82.5401 39.8104 82.7506 39.8979 82.9611 40.1494C83.5462 40.8411 84.1749 41.4944 84.7927 42.1587C84.9322 42.3091 85.0634 42.4758 85.3231 42.6152H85.3313Z" fill="#EEEEEE"/>
<path d="M141.932 42.4427C141.932 41.6554 141.929 40.8872 141.932 40.1217C141.932 39.7773 142.284 39.5859 142.58 39.7582C142.714 39.8374 142.675 39.9769 142.675 40.0944C142.678 41.002 142.675 41.9123 142.675 42.8199C142.675 43.0332 142.67 43.2464 142.675 43.4624C142.678 43.64 142.596 43.7193 142.421 43.7275C142.126 43.7439 141.896 43.6975 141.677 43.4323C141.032 42.6504 140.343 41.9069 139.671 41.1469C139.603 41.0704 139.548 40.9719 139.348 40.961C139.348 41.2726 139.348 41.5816 139.348 41.8932C139.348 42.4099 139.362 42.9265 139.354 43.4432C139.348 43.7521 139.288 43.7795 138.957 43.7959C138.711 43.8068 138.605 43.7303 138.607 43.4651C138.618 42.3251 138.616 41.1852 138.607 40.0425C138.607 39.8183 138.676 39.7226 138.911 39.7226C139.203 39.7226 139.433 39.7527 139.652 40.0206C140.278 40.7942 140.956 41.5241 141.617 42.2705C141.683 42.3443 141.74 42.4481 141.926 42.4399L141.932 42.4427Z" fill="#EEEEEE"/>
<path d="M133.148 41.7394C133.148 41.2063 133.143 40.6732 133.148 40.1374C133.154 39.7437 133.159 39.7328 133.523 39.7301C134.411 39.7246 135.302 39.7301 136.191 39.7246C136.423 39.7246 136.562 39.7848 136.571 40.0472C136.579 40.2905 136.505 40.408 136.24 40.4026C135.778 40.3889 135.316 40.3998 134.851 40.3998C134.69 40.3998 134.531 40.3998 134.37 40.3998C134.058 40.4035 133.903 40.5611 133.903 40.8728C133.903 41.332 133.903 41.3348 134.375 41.3375C134.873 41.3375 135.373 41.343 135.871 41.3293C136.155 41.3211 136.177 41.4824 136.182 41.7011C136.191 41.9389 136.084 42.0073 135.863 42.0045C135.33 41.9963 134.794 42.0155 134.261 41.9963C133.974 41.9881 133.892 42.1002 133.897 42.3709C133.911 43.2019 133.848 43.0625 134.564 43.0707C135.133 43.0789 135.704 43.0816 136.273 43.068C136.535 43.0598 136.617 43.1636 136.609 43.4124C136.601 43.7541 136.593 43.7869 136.259 43.7869C135.335 43.7924 134.408 43.7815 133.484 43.7951C133.219 43.7979 133.148 43.6885 133.151 43.4452C133.162 42.8766 133.154 42.308 133.154 41.7366C133.151 41.7366 133.145 41.7366 133.143 41.7366L133.148 41.7394Z" fill="#EEEEEE"/>
<path d="M114.935 26.9569C114.599 28.1297 114.339 29.3188 114.752 30.5381C114.159 30.7185 114.12 30.6857 114.003 30.1335C113.839 29.3544 113.91 28.5862 114.074 27.7524C113.081 27.9711 112.103 27.8016 111.146 27.993C109.913 28.239 109.287 29.2013 109.558 30.4451C109.607 30.6693 109.692 30.8853 109.763 31.1067C109.828 31.309 109.91 31.5058 109.968 31.7108C110.132 32.2986 110.118 32.3232 109.539 32.6184C109.487 32.058 109.271 31.5523 109.074 31.0411C108.885 30.5572 108.844 30.0624 108.855 29.5403C108.874 28.6573 109.76 27.7251 110.621 27.4763C111.154 27.3205 111.706 27.2685 112.25 27.2549C113.071 27.233 113.885 27.2357 114.662 26.9159C114.744 26.8831 114.837 26.8858 114.938 26.9624L114.935 26.9569Z" fill="#EEEEEE"/>
<path d="M121.595 32.6593C120.953 32.2492 120.95 32.2492 121.128 31.6177C121.253 31.1749 121.426 30.7484 121.538 30.2974C121.806 29.2394 121.087 28.165 119.914 27.9764C119.438 27.8999 118.963 27.8616 118.481 27.8807C118.006 27.8999 117.533 27.8425 117.005 27.7386C117.104 28.3209 117.172 28.843 117.139 29.3706C117.123 29.6194 117.12 29.8709 117.074 30.1115C116.97 30.6555 116.959 30.6527 116.346 30.5899C116.352 30.2399 116.499 29.9119 116.508 29.5565C116.527 28.7501 116.437 27.9628 116.199 27.1918C116.117 26.9267 116.199 26.8337 116.445 26.9267C117.298 27.2465 118.183 27.2438 119.075 27.2465C119.553 27.2465 120.031 27.3258 120.488 27.4816C121.685 27.8917 122.615 29.0371 122.106 30.7211C122.049 30.907 121.981 31.0929 121.907 31.2733C121.735 31.6998 121.568 32.1262 121.598 32.6593H121.595Z" fill="#EEEEEE"/>
<path d="M94.6398 41.7929C94.6398 41.2571 94.648 40.7241 94.6371 40.1882C94.6316 39.9531 94.6836 39.8274 94.9597 39.8301C95.9411 39.8411 96.9198 39.8383 97.9012 39.8301C98.139 39.8301 98.2046 39.9313 98.2046 40.15C98.2046 40.3851 98.1527 40.5108 97.8793 40.5054C97.1849 40.4917 96.4878 40.4972 95.7935 40.5054C95.6622 40.5054 95.4681 40.4479 95.4408 40.6448C95.408 40.8853 95.3533 41.1423 95.4845 41.3719C95.542 41.4731 95.6814 41.4321 95.7825 41.4348C96.3347 41.4376 96.8869 41.4458 97.4392 41.4348C97.6989 41.4294 97.7754 41.5278 97.7781 41.7793C97.7781 42.0417 97.6797 42.1182 97.431 42.1128C96.8979 42.0991 96.3621 42.1046 95.8263 42.1128C95.4326 42.1182 95.4217 42.1237 95.4189 42.4846C95.4135 43.2555 95.3725 43.1434 96.0696 43.1489C96.6928 43.1543 97.3161 43.1571 97.9422 43.1489C98.1964 43.1434 98.2811 43.2363 98.2839 43.4906C98.2839 43.753 98.1827 43.8268 97.9367 43.8268C96.9553 43.8186 95.9766 43.8159 94.9952 43.8268C94.7054 43.8323 94.6316 43.712 94.6371 43.4496C94.6508 42.8974 94.6398 42.3451 94.6398 41.7929Z" fill="#EEEEEE"/>
<path d="M69.7091 41.8915C69.7091 41.3229 69.7145 40.7515 69.7091 40.1829C69.7063 39.9642 69.7774 39.8604 70.0125 39.8604C71.0267 39.8686 72.0437 39.8686 73.0579 39.8604C73.3066 39.8604 73.3504 39.9834 73.3504 40.1939C73.3504 40.4208 73.3094 40.5711 73.0333 40.5684C72.41 40.5629 71.7867 40.5766 71.1661 40.5821C71.024 40.5821 70.8818 40.5875 70.7397 40.5821C70.5565 40.5793 70.4827 40.6695 70.4909 40.8445C70.4936 40.932 70.4991 41.0249 70.4909 41.1124C70.4554 41.4049 70.603 41.476 70.8654 41.4705C71.4176 41.4568 71.9698 41.465 72.5221 41.4678C72.7298 41.4678 72.9622 41.4158 72.9567 41.763C72.9485 42.1047 72.9212 42.1567 72.5057 42.1676C71.989 42.1813 71.4723 42.1785 70.9556 42.1868C70.4991 42.1922 70.4964 42.195 70.4936 42.6652C70.4936 42.9139 70.4936 43.1627 70.4936 43.4142C70.4882 43.8981 70.4854 43.9008 70.0918 43.8981C69.72 43.8953 69.7173 43.8953 69.7173 43.3869C69.7173 42.8893 69.7173 42.389 69.7173 41.8915H69.7091Z" fill="#EEEEEE"/>
<path d="M160.799 40.6828C160.9 40.0759 161.253 39.7178 161.846 39.6385C162.218 39.5893 162.595 39.5866 162.964 39.6467C163.566 39.7424 163.973 40.1688 163.998 40.6992C164.011 40.9972 163.949 41.1284 163.604 41.533C163.612 41.5658 163.61 41.6122 163.631 41.6286C164.37 42.1316 164.222 43.4056 163.153 43.7063C162.598 43.8621 162.06 43.8539 161.529 43.6707C161.147 43.5368 160.873 43.2579 160.736 42.8588C160.671 42.6675 160.687 42.5444 160.922 42.5335C161.155 42.5226 161.341 42.5335 161.513 42.7713C161.849 43.2279 162.582 43.3181 163.06 43.0228C163.271 42.8916 163.385 42.7085 163.361 42.4433C163.333 42.1699 163.183 42.0442 162.934 41.9704C162.672 41.8911 162.407 41.8911 162.142 41.8993C161.912 41.9075 161.822 41.82 161.83 41.5876C161.835 41.3826 161.865 41.2377 162.12 41.2514C162.333 41.2623 162.549 41.2651 162.759 41.2405C163.118 41.1994 163.26 41.0436 163.251 40.7374C163.243 40.4477 163.077 40.2754 162.724 40.2672C162.27 40.2563 161.8 40.1743 161.447 40.6172C161.289 40.8167 161.023 40.7183 160.799 40.68V40.6828Z" fill="#EEEEEE"/>
<path d="M113.289 24.5695C114.779 24.225 116.258 24.2168 117.753 24.5585C117.461 25.6848 116.55 26.3983 115.49 26.3847C114.448 26.371 113.554 25.6466 113.292 24.5695H113.289Z" fill="#EEEEEE"/>
<path d="M115.094 21.6674V20.3279C114.665 20.3006 114.34 20.5439 113.938 20.5466C113.867 20.0545 113.9 19.5652 113.919 19.0649C114.302 19.054 114.602 19.2973 115.002 19.3191C115.032 18.9747 114.881 18.674 114.818 18.3569C114.756 18.0398 114.764 18.0097 115.078 18.0124C115.466 18.0152 115.857 17.9632 116.254 18.0534C116.232 18.4772 116.062 18.8544 115.994 19.2973C116.382 19.3055 116.702 19.0622 117.093 19.0294C117.18 19.5296 117.134 20.019 117.123 20.5384C116.729 20.5439 116.401 20.3334 115.997 20.3142C115.904 20.7598 116.002 21.2191 115.942 21.6674L115.95 21.6592C115.66 21.692 115.371 21.692 115.081 21.6592L115.089 21.6674H115.094Z" fill="#DDDDDD"/>
<path d="M127.892 34.7779C127.72 34.7505 127.659 34.5974 127.539 34.5236C127.372 34.4197 127.367 34.2776 127.422 34.1054C127.588 33.5914 127.607 33.0638 127.629 32.528C127.679 31.1584 126.771 29.9829 125.319 29.5783C125.267 29.5646 125.213 29.5592 125.161 29.5564C124.712 29.5428 124.518 29.2776 124.475 28.8375C124.989 28.7828 125.459 28.955 125.918 29.1245C127.424 29.6822 128.326 30.9069 128.324 32.5007C128.324 33.2716 128.22 34.0534 127.892 34.7751V34.7779Z" fill="#EEEEEE"/>
<path d="M103.185 34.8689C102.756 33.5813 102.504 32.2828 103.1 30.9925C103.639 29.8279 104.653 29.2293 105.869 28.9449C106.058 28.9012 106.252 28.8739 106.443 28.8465C106.493 28.8383 106.545 28.8602 106.602 28.8684C106.575 28.9422 106.534 29.0078 106.531 29.0762C106.525 29.4179 106.307 29.5163 106.017 29.5682C105.353 29.6831 104.779 29.9674 104.289 30.4458C103.663 31.0581 103.417 31.8099 103.42 32.6573C103.42 33.1385 103.496 33.6114 103.636 34.0707C103.702 34.2866 103.756 34.4807 103.483 34.5983C103.371 34.6448 103.365 34.8143 103.182 34.8662L103.185 34.8689Z" fill="#EEEEEE"/>
<path d="M151.537 43.668C152.133 42.5581 152.702 41.5056 153.312 40.3711C152.56 40.3711 151.906 40.3684 151.253 40.3711C151.048 40.3711 150.911 40.3383 150.914 40.0841C150.914 39.7724 150.933 39.7314 151.283 39.7287C152.136 39.7232 152.992 39.7232 153.845 39.7287C154.257 39.7314 154.337 39.8517 154.154 40.2044C153.662 41.1502 153.161 42.0906 152.664 43.0338C152.639 43.0803 152.617 43.1295 152.593 43.1787C152.39 43.5632 152.038 43.7254 151.535 43.6653L151.537 43.668Z" fill="#EEEEEE"/>
<path d="M58.1278 50.8836C58.7457 50.8918 59.2733 51.444 59.2541 52.0673C59.235 52.7015 58.7785 53.1936 58.0759 53.1854C57.346 53.1772 56.9578 52.584 56.9551 52.0099C56.9551 51.3975 57.5073 50.8836 58.1278 50.8809V50.8836Z" fill="#DDDDDD"/>
<path d="M53.5382 52.0378C53.5191 51.3352 54.1287 50.8924 54.6891 50.8896C55.3179 50.8896 55.8373 51.4364 55.8318 52.0542C55.8263 52.6748 55.2796 53.2215 54.6672 53.1996C54.0439 53.1778 53.489 52.6666 53.5382 52.0378Z" fill="#DDDDDD"/>
<path d="M148.698 41.7008C148.698 42.2722 148.687 42.8408 148.704 43.4094C148.712 43.6964 148.556 43.7183 148.338 43.721C148.108 43.7265 148.023 43.6363 148.026 43.4066C148.034 42.6576 148.031 41.9113 148.026 41.1623C148.026 40.7112 148.02 40.7112 147.572 40.6757C147.52 40.6702 147.466 40.6784 147.411 40.6702C147.258 40.6456 147.214 40.5335 147.206 40.3996C147.198 40.2738 147.258 40.2027 147.381 40.1754C147.698 40.1016 147.982 39.9622 148.209 39.7161C148.321 39.5958 148.472 39.5931 148.605 39.6532C148.748 39.7189 148.693 39.8692 148.696 39.9868C148.701 40.5554 148.696 41.1267 148.696 41.6981L148.698 41.7008Z" fill="#EEEEEE"/>
<path d="M115.943 21.6656C116.457 21.8324 116.927 22.062 117.285 22.4912C117.589 22.8548 117.775 23.2539 117.802 23.7433C117.266 23.6858 116.76 23.612 116.252 23.582C115.981 23.5656 115.927 23.4343 115.932 23.2074C115.943 22.6908 115.948 22.1768 115.954 21.6602L115.946 21.6684L115.943 21.6656Z" fill="#EEEEEE"/>
<path d="M115.087 21.6612C115.095 22.1724 115.092 22.6864 115.112 23.1976C115.12 23.46 115.04 23.5858 114.753 23.5803C114.259 23.5748 113.777 23.6924 113.291 23.7607C113.255 23.0199 113.756 22.249 114.507 21.8963C114.699 21.8061 114.901 21.7405 115.098 21.664L115.09 21.6558L115.087 21.6612Z" fill="#EEEEEE"/>
<path d="M129.539 31.3067C130.004 31.3067 130.296 31.6101 130.299 32.083C130.299 32.5204 129.96 32.8785 129.539 32.8785C129.115 32.8785 128.779 32.5314 128.774 32.0858C128.768 31.6484 129.107 31.3039 129.539 31.3067Z" fill="#EEEEEE"/>
<path d="M101.514 32.9113C101.085 32.9031 100.754 32.5532 100.768 32.1158C100.782 31.6456 101.074 31.3777 101.561 31.3859C102.004 31.3941 102.348 31.744 102.332 32.165C102.315 32.5942 101.96 32.9195 101.517 32.9113H101.514Z" fill="#EEEEEE"/>
<path d="M107.68 30.2372C107.27 30.2318 106.983 29.9475 106.975 29.5429C106.967 29.1191 107.278 28.813 107.71 28.8184C108.068 28.8239 108.432 29.1738 108.437 29.5237C108.443 29.9201 108.101 30.2427 107.68 30.2372Z" fill="#EEEEEE"/>
<path d="M123.848 31.1566C123.848 31.5804 123.523 31.9221 123.126 31.9166C122.746 31.9111 122.448 31.5804 122.459 31.173C122.47 30.7602 122.757 30.4595 123.151 30.4513C123.55 30.4431 123.848 30.7466 123.845 31.1566H123.848Z" fill="#EEEEEE"/>
<path d="M124.089 29.5295C124.078 29.9369 123.726 30.2622 123.321 30.2376C122.927 30.213 122.69 29.9041 122.665 29.4885C122.643 29.1523 123.007 28.7696 123.373 28.7614C123.772 28.7532 124.103 29.1222 124.092 29.5295H124.089Z" fill="#EEEEEE"/>
<path d="M107.938 31.9402C107.563 31.9374 107.189 31.5465 107.199 31.172C107.208 30.844 107.566 30.4667 107.88 30.4558C108.246 30.4448 108.667 30.8877 108.646 31.2649C108.626 31.6121 108.279 31.9429 107.938 31.9402Z" fill="#EEEEEE"/>
<path d="M102.86 30.3337C102.847 30.7083 102.508 31.0418 102.139 31.0472C101.77 31.05 101.395 30.6509 101.417 30.2709C101.439 29.8991 101.797 29.582 102.174 29.5956C102.554 29.612 102.874 29.9565 102.86 30.3337Z" fill="#EEEEEE"/>
<path d="M128.929 29.5672C129.331 29.5617 129.626 29.8542 129.626 30.2588C129.626 30.6689 129.331 30.9751 128.934 30.9778C128.565 30.9805 128.24 30.6497 128.234 30.2616C128.229 29.8433 128.5 29.5699 128.926 29.5645L128.929 29.5672Z" fill="#EEEEEE"/>
<path d="M101.166 33.9524C101.171 33.5424 101.472 33.228 101.855 33.2335C102.229 33.2417 102.56 33.5834 102.555 33.9579C102.549 34.316 102.188 34.6823 101.844 34.6851C101.472 34.6851 101.161 34.3488 101.169 33.9524H101.166Z" fill="#EEEEEE"/>
<path d="M129.209 34.6204C128.835 34.615 128.561 34.3252 128.559 33.9261C128.553 33.4914 128.827 33.2016 129.237 33.2071C129.649 33.2126 129.964 33.5242 129.947 33.9124C129.931 34.2897 129.581 34.6259 129.212 34.6204H129.209Z" fill="#EEEEEE"/>
<path d="M107.616 27.9333C107.638 27.5751 107.969 27.2444 108.3 27.2471C108.68 27.2526 109.027 27.6462 108.994 28.0344C108.964 28.387 108.609 28.7124 108.283 28.685C107.898 28.655 107.594 28.3105 107.616 27.9305V27.9333Z" fill="#EEEEEE"/>
<path d="M123.449 27.9654C123.438 28.3618 123.161 28.6352 122.773 28.6325C122.366 28.6297 122.046 28.3126 122.065 27.9272C122.084 27.5444 122.434 27.2219 122.812 27.2437C123.178 27.2656 123.459 27.5827 123.451 27.9627L123.449 27.9654Z" fill="#EEEEEE"/>
<path d="M127.062 28.9777C127.068 28.6223 127.399 28.2888 127.746 28.2915C128.115 28.2943 128.386 28.6004 128.375 28.9996C128.364 29.3768 128.044 29.6857 127.691 29.6611C127.36 29.6392 127.06 29.3112 127.065 28.9777H127.062Z" fill="#EEEEEE"/>
<path d="M103.979 29.0418C103.97 29.4081 103.703 29.6897 103.355 29.6951C103.014 29.7006 102.669 29.3561 102.672 29.0144C102.675 28.6754 103.033 28.2955 103.353 28.3337C103.703 28.3747 104.009 28.5798 103.976 29.0418H103.979Z" fill="#EEEEEE"/>
<path d="M121.586 27.5636C121.247 27.5745 120.922 27.2875 120.895 26.943C120.865 26.5904 121.173 26.2651 121.553 26.2514C121.917 26.2377 122.245 26.5494 122.242 26.9102C122.242 27.2465 121.933 27.5499 121.589 27.5636H121.586Z" fill="#EEEEEE"/>
<path d="M110.15 26.9372C110.142 27.3308 109.858 27.5823 109.448 27.5604C109.079 27.544 108.813 27.2597 108.835 26.9071C108.857 26.5517 109.155 26.2483 109.48 26.251C109.849 26.251 110.158 26.5708 110.15 26.9344V26.9372Z" fill="#EEEEEE"/>
<path d="M125.592 28.2488C125.592 27.9262 125.909 27.5818 126.215 27.5763C126.57 27.5681 126.882 27.8962 126.871 28.2652C126.86 28.6151 126.554 28.9213 126.229 28.9104C125.909 28.8994 125.595 28.5714 125.592 28.2488Z" fill="#EEEEEE"/>
<path d="M104.822 28.9217C104.469 28.9217 104.182 28.6264 104.196 28.2738C104.209 27.8938 104.472 27.6341 104.838 27.6423C105.196 27.6505 105.472 27.9321 105.475 28.2902C105.475 28.6346 105.18 28.9217 104.825 28.9244L104.822 28.9217Z" fill="#EEEEEE"/>
<path d="M116.168 30.0294C116.157 30.3821 115.851 30.6691 115.512 30.65C115.184 30.6309 114.896 30.3411 114.896 30.0322C114.896 29.6741 115.181 29.387 115.533 29.3843C115.867 29.3843 116.179 29.7014 116.168 30.0294Z" fill="#EEEEEE"/>
<path d="M125.267 27.8945C125.267 28.2335 125.002 28.4959 124.665 28.4959C124.321 28.4959 124.075 28.2499 124.067 27.8972C124.058 27.5446 124.356 27.2357 124.69 27.2521C125.007 27.2685 125.272 27.5637 125.269 27.8945H125.267Z" fill="#EEEEEE"/>
<path d="M106.971 27.8994C106.979 28.2849 106.78 28.5118 106.413 28.5255C106.08 28.5391 105.798 28.2767 105.787 27.9459C105.777 27.6151 106.036 27.339 106.372 27.3226C106.731 27.3062 106.963 27.5304 106.971 27.9022V27.8994Z" fill="#EEEEEE"/>
<path d="M120.17 25.9309C120.468 25.9391 120.747 26.2261 120.742 26.5241C120.736 26.8084 120.417 27.1118 120.146 27.0954C119.845 27.0763 119.577 26.7893 119.588 26.4913C119.599 26.166 119.853 25.9227 120.173 25.9309H120.17Z" fill="#EEEEEE"/>
<path d="M110.37 26.4411C110.398 26.1459 110.652 25.9299 110.953 25.9545C111.275 25.9791 111.494 26.2471 111.467 26.5806C111.445 26.8676 111.171 27.1164 110.895 27.1054C110.556 27.0918 110.338 26.8157 110.37 26.4439V26.4411Z" fill="#EEEEEE"/>
<path d="M116.066 28.571C116.071 28.8854 115.858 29.1205 115.552 29.1341C115.259 29.1478 114.997 28.91 114.989 28.6202C114.978 28.325 115.216 28.0734 115.508 28.068C115.842 28.0625 116.063 28.2593 116.068 28.571H116.066Z" fill="#EEEEEE"/>
<path d="M119.277 26.3851C119.288 26.7022 119.11 26.9072 118.817 26.9209C118.528 26.9345 118.303 26.7295 118.29 26.4425C118.276 26.1609 118.487 25.9231 118.765 25.9094C119.066 25.8957 119.268 26.0816 119.279 26.3851H119.277Z" fill="#EEEEEE"/>
<path d="M112.752 26.4392C112.746 26.7453 112.555 26.9285 112.254 26.9203C111.962 26.9121 111.76 26.7016 111.768 26.4118C111.776 26.1193 111.981 25.928 112.282 25.9307C112.582 25.9334 112.76 26.1248 112.755 26.4392H112.752Z" fill="#EEEEEE"/>
<path d="M115.549 27.8209C115.308 27.8264 115.079 27.5886 115.084 27.3453C115.09 27.1047 115.289 26.9188 115.535 26.927C115.787 26.9352 115.956 27.1102 115.962 27.3644C115.967 27.6022 115.776 27.8155 115.549 27.8209Z" fill="#EEEEEE"/>
<path d="M117.989 26.4285C117.986 26.6609 117.825 26.814 117.584 26.814C117.33 26.814 117.128 26.6199 117.141 26.393C117.152 26.2207 117.396 25.9802 117.562 25.9747C117.762 25.9692 117.991 26.2125 117.989 26.4285Z" fill="#EEEEEE"/>
<path d="M113.474 26.8116C113.22 26.817 113.067 26.6831 113.05 26.4398C113.031 26.191 113.212 26.0215 113.488 26.027C113.723 26.0325 113.895 26.2019 113.892 26.4234C113.892 26.6393 113.712 26.8061 113.474 26.8116Z" fill="#EEEEEE"/>
<path d="M97.0751 38.7907C96.6787 39.1269 96.4737 39.5944 95.9023 39.5179C96.2304 38.7825 96.3397 38.706 97.0751 38.7907Z" fill="#EEEEEE"/>
<path fill-rule="evenodd" clip-rule="evenodd" d="M116.763 32.8188C116.677 32.892 116.584 32.9698 116.433 32.9889L116.431 32.9835C116.34 32.7654 116.437 32.6064 116.53 32.453C116.547 32.4257 116.563 32.3984 116.578 32.3711C116.753 32.0567 116.912 31.7369 116.983 31.387C117.04 31.0999 116.939 30.9496 116.666 30.9632C116.633 30.9649 116.6 30.9668 116.568 30.9686C116.23 30.9875 115.897 31.0062 115.575 30.8566C115.531 30.8348 115.458 30.8375 115.419 30.8621C115.182 31.0232 114.928 31.0018 114.672 30.9803C114.598 30.9741 114.523 30.9678 114.449 30.966C114.134 30.9605 114.066 31.0753 114.099 31.3979C114.127 31.6669 114.25 31.8939 114.373 32.1207C114.427 32.2212 114.482 32.3217 114.528 32.4258C114.543 32.4587 114.559 32.4913 114.575 32.5239C114.652 32.6805 114.729 32.8361 114.632 33.0217C114.564 33.0283 114.523 32.9911 114.481 32.9535C114.47 32.9442 114.46 32.9348 114.449 32.9261L114.431 32.9118C114.175 32.7032 113.914 32.4915 113.601 32.3738C113.197 32.218 113.014 32.3328 113.049 32.762C113.067 32.9756 113.041 33.1923 113.015 33.4093C112.965 33.8229 112.915 34.2374 113.169 34.6319C113.192 34.6664 113.187 34.7211 113.182 34.7752C113.18 34.7982 113.178 34.8212 113.178 34.8424C113.178 34.8792 113.178 34.9172 113.178 34.9556C113.176 35.1908 113.174 35.4423 113.418 35.5504C113.69 35.6706 113.91 35.4849 114.108 35.3171C114.131 35.2979 114.153 35.2789 114.175 35.2607C114.294 35.1608 114.399 35.0436 114.504 34.9261C114.566 34.857 114.627 34.7879 114.692 34.7221C114.834 34.5772 115.001 34.5608 115.181 34.6538C115.342 34.7365 115.316 34.8756 115.292 35.0061C115.291 35.0135 115.289 35.0209 115.288 35.0283C115.261 35.1868 115.225 35.3427 115.179 35.4958C114.894 36.4033 113.861 36.8818 112.981 36.5182C112.811 36.4471 112.672 36.3432 112.554 36.2065C112.396 36.0179 112.308 35.8539 112.511 35.6078C112.82 35.2306 112.746 34.8069 112.524 34.4105C112.368 34.1344 112.111 34.0195 111.8 34.0605C111.518 34.0961 111.387 34.2902 111.313 34.5526C111.174 35.042 111.343 35.4356 111.699 35.7445C111.915 35.9331 111.901 36.078 111.764 36.2885C111.406 36.8462 110.652 37.0266 110.072 36.6877C109.673 36.4526 109.413 36.0944 109.173 35.7172C109.113 35.627 109.052 35.5286 109.173 35.4383C109.26 35.3755 109.356 35.3126 109.465 35.3755C109.586 35.4465 109.703 35.5286 109.818 35.6106C110.026 35.7555 110.253 35.8511 110.504 35.8839C110.668 35.9058 110.818 35.8484 110.802 35.6734C110.765 35.2862 110.71 34.9004 110.655 34.5139C110.637 34.382 110.618 34.2501 110.6 34.118C110.594 34.0852 110.578 34.0414 110.551 34.025C110.318 33.8814 110.289 33.654 110.26 33.4234C110.256 33.3907 110.252 33.3578 110.247 33.3252C110.236 33.258 110.207 33.1926 110.177 33.1275C110.169 33.1105 110.161 33.0934 110.154 33.0764C110.061 32.8632 109.903 32.8249 109.725 32.9561C109.631 33.0239 109.552 33.112 109.474 33.1993C109.445 33.2317 109.416 33.264 109.386 33.2951C109.325 33.3591 109.29 33.4404 109.254 33.5232C109.206 33.635 109.156 33.7497 109.041 33.8282C108.892 33.615 108.949 33.4112 109.004 33.2152C109.015 33.175 109.027 33.1351 109.036 33.0955C109.107 32.7948 109.129 32.4969 109.044 32.1989C108.99 32.0048 108.869 31.8872 108.648 31.9611C108.579 31.9838 108.51 32.0065 108.441 32.0292C107.913 32.2024 107.384 32.3762 106.874 32.6035C106.701 32.68 106.639 32.7757 106.723 32.978C106.858 33.2999 107.1 33.5184 107.344 33.7381C107.363 33.7554 107.382 33.7726 107.401 33.7899L107.417 33.8043C107.553 33.93 107.682 34.0479 107.65 34.2902C107.544 34.2698 107.441 34.2465 107.341 34.2238C107.133 34.1765 106.936 34.1318 106.737 34.1207C106.354 34.0988 106.245 34.282 106.434 34.6128C106.576 34.8615 106.704 35.0884 106.68 35.3973C106.669 35.5477 106.718 35.7746 106.906 35.8511C107.166 35.9578 107.27 36.1546 107.33 36.4088C107.349 36.4944 107.402 36.574 107.453 36.6495C107.462 36.6633 107.472 36.6769 107.481 36.6904C107.568 36.8216 107.686 36.8271 107.792 36.7177C107.904 36.6056 107.997 36.4744 108.044 36.3159C108.077 36.1993 108.12 36.0844 108.162 35.9698C108.176 35.9339 108.189 35.898 108.202 35.8621C108.26 35.7008 108.377 35.6461 108.538 35.6707C108.692 35.6926 108.735 35.8156 108.744 35.9414C108.747 35.9936 108.751 36.046 108.755 36.0984C108.773 36.331 108.79 36.5645 108.768 36.7943C108.689 37.6089 107.809 37.9916 107.133 37.516C106.956 37.393 106.857 37.2727 106.89 36.9938C106.942 36.5428 106.794 36.1081 106.354 35.8593C105.974 35.6434 105.665 35.8047 105.657 36.2421C105.649 36.715 105.816 37.1141 106.28 37.3301C106.301 37.3394 106.323 37.3467 106.345 37.3541C106.433 37.3832 106.519 37.4117 106.513 37.5624C106.499 37.8768 106.19 38.3416 105.9 38.44C105.438 38.5958 104.807 38.399 104.504 38.008C104.329 37.7811 104.378 37.6691 104.662 37.6199C105.056 37.5515 105.345 37.7292 105.586 38.0573C105.865 37.6581 105.739 37.3328 105.499 37.0567C105.337 36.8708 105.253 36.6904 105.231 36.4471C105.203 36.1026 105.004 35.8429 104.67 35.7363C104.479 35.6762 104.38 35.5668 104.298 35.4001C104.181 35.1622 104.047 34.9326 103.67 34.9381C103.774 35.2361 103.801 35.5149 103.67 35.7801C103.525 36.0698 103.388 36.0944 103.159 35.873C103.074 35.791 102.991 35.7063 102.909 35.6216C102.754 35.4636 102.6 35.3056 102.431 35.165C101.997 34.8069 101.502 34.8697 101.201 35.3126C101.7 35.358 102.044 35.6616 102.388 35.9659C102.417 35.9915 102.446 36.0171 102.475 36.0425C102.743 36.2776 102.893 36.5291 102.882 36.9146C102.869 37.4176 103.115 37.8194 103.621 37.9698C103.899 38.0518 104.093 38.2049 104.23 38.4427C104.389 38.7243 104.621 38.8008 104.938 38.8008C112.016 38.7844 119.096 38.7735 126.174 38.7735C126.483 38.7735 126.671 38.6669 126.83 38.429C126.956 38.2404 127.079 38.0573 127.333 37.9834C127.97 37.8003 128.238 37.3301 128.221 36.6904C128.216 36.4553 128.295 36.2885 128.459 36.1272C128.864 35.7281 129.277 35.3536 129.878 35.2142C129.43 34.8123 128.976 34.8096 128.566 35.1759C128.448 35.2819 128.338 35.3963 128.227 35.5108C128.056 35.6888 127.884 35.8671 127.683 36.0152C127.47 35.8785 127.366 35.698 127.308 35.4876C127.273 35.3556 127.302 35.2247 127.332 35.0921C127.349 35.0187 127.365 34.9447 127.371 34.8697C127.032 34.9107 126.882 35.1267 126.751 35.3673C126.736 35.3929 126.724 35.42 126.712 35.4471C126.668 35.5441 126.624 35.6408 126.485 35.6707C126.051 35.7609 125.881 36.0944 125.824 36.4826C125.788 36.7259 125.704 36.9064 125.54 37.0868C125.307 37.341 125.274 37.6472 125.477 38.0272C125.753 37.6226 126.108 37.5242 126.521 37.6089C126.636 37.6335 126.74 37.7128 126.66 37.8358C126.297 38.4017 125.55 38.7161 124.957 38.2842C124.741 38.1256 124.632 37.8632 124.596 37.5898C124.572 37.3934 124.697 37.3393 124.822 37.2856C124.876 37.2623 124.93 37.2391 124.971 37.2043C125.255 36.9638 125.419 36.6494 125.438 36.2803C125.449 36.0616 125.356 35.8621 125.14 35.7527C124.949 35.657 124.79 35.7664 124.651 35.8703C124.274 36.1491 124.148 36.54 124.184 36.9938C124.187 37.0227 124.195 37.0516 124.204 37.0805C124.225 37.1528 124.246 37.225 124.184 37.2973C123.935 37.5898 123.599 37.7073 123.232 37.6909C122.855 37.6773 122.541 37.516 122.393 37.1387C122.218 36.6877 122.259 36.2284 122.377 35.7773C122.431 35.5641 122.636 35.5422 122.789 35.709C122.849 35.7746 122.873 35.8556 122.897 35.937C122.909 35.9744 122.92 36.0118 122.934 36.048C122.947 36.0794 122.96 36.111 122.972 36.1427C123.045 36.326 123.118 36.5103 123.262 36.6549C123.369 36.7587 123.511 36.7997 123.577 36.6603C123.771 36.2448 124.036 35.8867 124.35 35.5586C124.361 35.5477 124.367 35.5258 124.367 35.5094C124.348 35.1212 124.503 34.7959 124.681 34.4624C124.796 34.2492 124.706 34.1316 124.465 34.0961C124.205 34.057 123.961 34.1297 123.716 34.2029L123.681 34.2136C123.665 34.2181 123.649 34.2238 123.634 34.2295C123.563 34.2549 123.492 34.2804 123.445 34.2C123.396 34.118 123.432 34.0195 123.495 33.9539C123.618 33.8254 123.746 33.7024 123.88 33.5876C124.088 33.4099 124.252 33.2022 124.35 32.9479C124.4 32.8222 124.405 32.6718 124.266 32.6226C124.11 32.5654 123.962 32.4894 123.815 32.4137C123.617 32.3121 123.42 32.2112 123.21 32.1579C123.132 32.1377 123.052 32.1216 122.973 32.1054C122.815 32.0733 122.657 32.0411 122.502 31.9775C122.226 31.8626 122.139 31.9337 122.021 32.2126C121.909 32.4798 121.965 32.7323 122.02 32.9852C122.041 33.0764 122.061 33.1676 122.073 33.2596C122.079 33.2989 122.088 33.3382 122.098 33.3774C122.134 33.5261 122.169 33.6727 121.994 33.809C121.94 33.7193 121.888 33.6301 121.836 33.5416C121.78 33.4469 121.725 33.3529 121.669 33.2596C121.573 33.1065 121.453 32.9807 121.289 32.8932C121.157 32.8222 121.021 32.8085 120.974 32.9507C120.878 33.2528 120.753 33.5429 120.629 33.8331C120.548 34.0207 120.468 34.2085 120.395 34.3995C120.384 34.4323 120.381 34.4733 120.389 34.5034C120.465 34.7536 120.394 34.9827 120.322 35.2192L120.318 35.2306C120.309 35.259 120.299 35.2879 120.289 35.3172C120.234 35.4714 120.176 35.6358 120.318 35.7828C120.466 35.9333 120.621 35.8776 120.775 35.8223C120.823 35.8053 120.87 35.7883 120.917 35.7773C121.04 35.7487 121.138 35.6802 121.236 35.612C121.269 35.5891 121.301 35.5663 121.335 35.545C121.366 35.5252 121.396 35.5037 121.426 35.4824C121.483 35.4418 121.54 35.4014 121.603 35.3727C121.729 35.3153 121.849 35.3481 121.939 35.4547C122.015 35.5464 121.967 35.6197 121.92 35.6912C121.909 35.7072 121.899 35.7231 121.89 35.7391C121.729 36.0206 121.51 36.2557 121.275 36.4744C120.687 37.0184 119.845 36.9556 119.35 36.3295C119.132 36.0534 119.129 35.9742 119.408 35.7199C119.739 35.4137 119.856 35.0447 119.79 34.61C119.744 34.3175 119.564 34.1371 119.287 34.0441C119 33.9485 118.809 34.1152 118.64 34.3011C118.331 34.6401 118.271 35.1896 118.577 35.5805C118.798 35.8621 118.694 36.037 118.517 36.2229C118.183 36.5701 117.759 36.6767 117.295 36.6084C116.376 36.4717 115.818 35.8347 115.761 34.8971C115.753 34.7358 115.829 34.662 115.952 34.621C116.163 34.5499 116.332 34.6182 116.464 34.8014C116.666 35.0802 116.92 35.3017 117.221 35.4657C117.658 35.7035 117.877 35.5996 117.874 35.1076C117.872 34.8697 117.93 34.6355 117.989 34.4015C118.088 34.0036 118.187 33.6061 117.989 33.1912C117.974 33.1617 117.989 33.116 118.002 33.0728C118.006 33.06 118.01 33.0473 118.014 33.0354C118.017 33.0196 118.022 33.0036 118.026 32.9876C118.084 32.7567 118.148 32.5053 117.912 32.352C117.709 32.2195 117.504 32.3327 117.312 32.4382C117.282 32.4546 117.253 32.4708 117.224 32.4859C117.156 32.5221 117.094 32.5707 117.032 32.6193C116.981 32.659 116.93 32.6988 116.876 32.732C116.837 32.7567 116.801 32.7873 116.763 32.8188ZM116.518 33.7127L116.501 33.7167C116.456 33.7275 116.42 33.736 116.384 33.7342C116.045 33.7232 115.796 33.8271 115.731 34.1989C115.709 34.3246 115.657 34.4586 115.504 34.4395C115.389 34.4258 115.348 34.2891 115.337 34.1934C115.287 33.7745 115.008 33.755 114.727 33.7355C114.658 33.7307 114.588 33.7258 114.523 33.715C114.536 33.4991 114.703 33.4389 114.851 33.4252C115.157 33.3979 115.2 33.2284 115.225 32.9633C115.255 32.6352 115.31 32.299 115.55 31.9545C115.723 32.299 115.859 32.6106 115.848 32.955C115.84 33.2366 115.939 33.3815 116.22 33.4225C116.354 33.4417 116.496 33.4854 116.57 33.6986V33.7014C116.564 33.7026 116.558 33.7039 116.552 33.7051C116.546 33.7063 116.541 33.7075 116.536 33.7086C116.53 33.71 116.524 33.7114 116.518 33.7127ZM123.382 34.9917C123.376 34.878 123.33 34.778 123.232 34.7265C122.951 34.5816 122.91 34.3985 122.986 34.0813C122.997 34.0347 123.011 33.987 123.024 33.9384C123.096 33.6795 123.176 33.3925 123.005 33.0726C122.759 33.3542 122.551 33.5975 122.459 33.9064C122.377 34.1798 122.27 34.3492 121.945 34.2864C121.835 34.2645 121.699 34.2891 121.655 34.5105C122.086 34.5256 122.135 34.8201 122.185 35.1206C122.199 35.203 122.213 35.2858 122.234 35.3635C122.608 35.1047 122.991 34.9808 123.382 34.9917ZM108.883 35.3416C108.814 34.8714 109.066 34.6117 109.473 34.4641H109.476C109.372 34.341 109.252 34.2754 109.129 34.3082C108.839 34.3875 108.724 34.2618 108.653 33.9966C108.56 33.6549 108.347 33.3815 108.06 33.0863C107.953 33.633 108.063 34.0731 108.205 34.5051C108.012 34.6326 107.855 34.7921 107.735 34.9835C107.735 34.9835 108.85 35.3307 108.883 35.3416ZM127.912 36.3148C127.847 36.9627 127.748 37.5067 127.027 37.6871C127.013 37.5987 127.018 37.5074 127.023 37.4159C127.036 37.1989 127.048 36.9805 126.808 36.7959C127.268 36.9691 127.504 36.7263 127.757 36.4665C127.807 36.4147 127.859 36.3621 127.912 36.3121V36.3148ZM103.235 36.3595L103.232 36.3558L103.235 36.3585L103.235 36.3595ZM104.145 37.6871C103.454 37.5805 103.241 37.2773 103.235 36.3595C103.532 36.7566 103.78 37.0305 104.257 36.8506C104.085 37.124 103.976 37.3837 104.145 37.6871Z" fill="#EEEEEE"/>
<path fill-rule="evenodd" clip-rule="evenodd" d="M198.883 67.4175C200.061 65.7992 200.632 63.984 200.605 61.9829V61.9856L200.602 61.8333C200.593 61.2991 200.584 60.7655 200.479 60.2388C200.042 58.0518 199.063 56.1765 197.237 54.8397C195.588 53.6314 193.743 53.2022 191.742 53.7434C189.268 54.4105 187.702 56.089 186.748 58.3908C186.037 60.1048 185.876 61.8872 186.223 63.7106C186.638 65.8894 187.647 67.7182 189.44 69.0605C190.925 70.1677 192.606 70.5887 194.427 70.2797C196.302 69.9599 197.77 68.9484 198.883 67.4175ZM170.624 53.8756L170.624 53.8756C169.988 53.8779 169.344 53.8801 168.691 53.8801V53.8829C169.022 54.3299 169.392 54.6381 169.749 54.9359C169.796 54.975 169.842 55.0139 169.889 55.0529C170.209 55.3235 170.326 55.5942 170.326 56.0042C170.316 59.1369 170.316 62.2713 170.317 65.4047V65.4049V65.4051V65.4053C170.318 66.2994 170.318 67.1934 170.318 68.0873C170.318 68.1175 170.317 68.1476 170.317 68.1777L170.317 68.1777C170.316 68.2375 170.314 68.297 170.318 68.3552C170.326 68.5056 170.282 68.6258 170.159 68.727C169.889 68.9566 169.621 69.1917 169.361 69.4323C169.214 69.568 169.074 69.709 168.917 69.8659L168.917 69.8663L168.917 69.8664C168.846 69.9368 168.773 70.0105 168.694 70.0884C168.763 70.0919 168.814 70.0955 168.856 70.0984C168.91 70.1022 168.948 70.1048 168.987 70.1048C169.818 70.0902 170.65 70.095 171.483 70.0998H171.483H171.483H171.483H171.483C172.842 70.1076 174.201 70.1155 175.559 70.0392C178.516 69.8724 180.556 68.3661 181.83 65.7718C182.636 64.1289 182.808 62.3711 182.486 60.5723C182.169 58.809 181.411 57.2563 180.146 55.9906C178.719 54.5636 176.939 53.9184 174.943 53.8883C173.515 53.8655 172.087 53.8705 170.624 53.8756ZM196.871 66.1637C197.404 64.8242 197.582 63.4218 197.568 61.7651L197.563 61.7679C197.576 61.3879 197.544 60.7864 197.462 60.185C197.314 59.0833 197.038 58.0281 196.508 57.044C196.065 56.2239 195.469 55.5541 194.605 55.1714C193.285 54.5864 191.724 55.0019 190.761 56.1719C190.247 56.8007 189.9 57.5169 189.657 58.2851C189.255 59.5481 189.121 60.8493 189.137 62.1724C189.154 63.3698 189.301 64.5426 189.673 65.6825C189.979 66.6257 190.422 67.4868 191.163 68.173C192.432 69.3485 194.362 69.3184 195.603 68.1183C196.182 67.5606 196.579 66.8963 196.871 66.1637ZM173.06 55.8247V61.9702H173.096V63.1456V68.1702C173.096 68.6076 173.104 68.6295 173.539 68.6322L173.722 68.6339C174.3 68.6393 174.879 68.6447 175.461 68.6076C176.792 68.5229 177.779 67.8805 178.492 66.7897C178.976 66.0489 179.222 65.2123 179.373 64.3512C179.586 63.1238 179.651 61.8881 179.504 60.6416C179.367 59.4661 179.116 58.3261 178.479 57.3119C177.675 56.027 176.519 55.3354 174.98 55.3409C174.877 55.3409 174.774 55.3402 174.671 55.3395C174.275 55.3368 173.879 55.3341 173.484 55.3709L173.452 55.3739C173.066 55.4089 173.06 55.4094 173.06 55.8247Z" fill="#DDDDDD"/>
<path d="M150.093 70.0972H150.105L150.096 70.1C150.095 70.0991 150.094 70.0982 150.093 70.0972Z" fill="#DDDDDD"/>
<path fill-rule="evenodd" clip-rule="evenodd" d="M150.093 70.0972C149.984 69.9983 149.888 69.9089 149.8 69.8266C149.643 69.6805 149.51 69.5572 149.369 69.4439C148.73 68.9354 148.199 68.3613 148.073 67.5084C148.051 67.3672 148 67.2298 147.949 67.0928C147.925 67.0282 147.9 66.9636 147.879 66.8988C147.705 66.3475 147.53 65.7962 147.356 65.2449C146.196 61.5807 145.036 57.916 143.888 54.2471C143.812 54.0011 143.7 53.9491 143.478 53.9519L143.332 53.9538C142.741 53.9616 142.147 53.9694 141.554 53.9492C141.286 53.9409 141.174 54.053 141.105 54.2854C141.012 54.6043 140.914 54.9208 140.817 55.2373C140.768 55.3956 140.719 55.5538 140.671 55.7124C140.43 56.4938 140.19 57.2751 139.949 58.0564C138.915 61.416 137.882 64.7748 136.857 68.1372C136.753 68.4789 136.578 68.7222 136.318 68.96C136.208 69.0625 136.092 69.1613 135.976 69.2608C135.679 69.5141 135.378 69.7717 135.135 70.1055C136.133 70.2039 139.744 70.1683 139.968 70.0972C139.872 69.9875 139.773 69.8728 139.673 69.7553C139.424 69.4658 139.162 69.1595 138.88 68.8698C138.683 68.6675 138.604 68.5117 138.71 68.2246C138.838 67.8832 138.935 67.5301 139.031 67.1769C139.076 67.0155 139.12 66.8541 139.167 66.6938C139.205 66.5671 139.242 66.4404 139.28 66.3137C139.404 65.8963 139.529 65.4784 139.648 65.059C139.706 64.8594 139.771 64.7255 140.014 64.8348C140.067 64.8587 140.125 64.8679 140.184 64.8771C140.233 64.8848 140.281 64.8925 140.326 64.9086C141.466 65.3296 142.603 65.3706 143.743 64.9032C143.783 64.8859 143.827 64.8809 143.871 64.876C143.918 64.8707 143.964 64.8655 144.003 64.8458C144.241 64.7282 144.35 64.7993 144.424 65.0481C144.755 66.1525 145.096 67.2569 145.444 68.3559C145.504 68.5445 145.427 68.6511 145.307 68.7714C145.028 69.0475 144.757 69.3291 144.487 69.6106C144.465 69.6335 144.442 69.6561 144.42 69.6788C144.299 69.7997 144.177 69.9223 144.126 70.0972H150.093ZM142.569 59.0769C142.381 58.4727 142.192 57.8621 141.999 57.2409H141.997C141.649 58.4087 141.312 59.5418 140.978 60.663C140.697 61.6075 140.418 62.5436 140.138 63.4848H143.935C143.48 62.0147 143.03 60.5654 142.569 59.0769Z" fill="#DDDDDD"/>
<path fill-rule="evenodd" clip-rule="evenodd" d="M46.0668 68.0847C47.4637 66.4144 48.0843 64.4434 48.1007 62.2755L48.1034 62.2782C48.1013 62.2175 48.0994 62.157 48.0975 62.0967C48.087 61.7656 48.0767 61.4389 48.0351 61.1082C47.7617 58.9076 46.8897 57.0049 45.2084 55.5396C43.2538 53.8365 41.0121 53.3636 38.5573 54.252C36.455 55.0147 35.0472 56.5702 34.2626 58.5987C32.934 62.0349 33.3085 65.3017 35.6814 68.2077C36.8268 69.6074 38.3331 70.4548 40.1565 70.6325C42.584 70.8676 44.5359 69.9135 46.0668 68.0847ZM37.5346 57.6936C36.8867 59.1288 36.7336 60.6596 36.6735 62.2206L36.6762 62.2233C36.7118 63.3496 36.8047 64.4759 37.1027 65.5803C37.4061 66.693 37.849 67.7318 38.7347 68.5191C39.4455 69.1533 40.2738 69.4267 41.2333 69.3037C42.5045 69.1424 43.3028 68.3633 43.8933 67.3081C44.8009 65.687 44.9649 63.8991 44.9758 62.1003C44.9813 61.2228 44.8883 60.3343 44.686 59.465C44.3908 58.202 43.9397 57.032 42.9939 56.0834C42.0726 55.1567 40.5007 55.009 39.481 55.512C38.5352 55.9795 37.9529 56.7668 37.5346 57.6936Z" fill="#DDDDDD"/>
<path fill-rule="evenodd" clip-rule="evenodd" d="M96.3679 70.0627C96.4882 69.9258 96.6114 69.7856 96.668 69.5855L96.6735 69.58C96.6313 69.5782 96.5918 69.5757 96.5541 69.5734C96.4795 69.5687 96.4117 69.5645 96.3427 69.5663C95.4925 69.5964 94.7872 69.2684 94.1776 68.6998C94.1153 68.6418 94.0564 68.5795 93.9976 68.5171C93.9094 68.4237 93.8211 68.3301 93.7211 68.2514C93.4777 68.0601 93.5051 67.8906 93.6937 67.6801C93.8359 67.5243 93.9534 67.3438 94.0682 67.1634C94.6259 66.2777 94.8884 65.3181 94.7489 64.2684C94.6615 63.6123 94.3935 63.041 93.8987 62.5954C93.6254 62.3493 93.3602 62.3192 93.1333 62.5297C92.7725 62.8633 92.4444 63.2268 92.1546 63.6314C93.5379 64.4926 93.8441 66.1601 92.8107 67.1525C92.7887 67.1323 92.7656 67.1132 92.7424 67.094C92.6996 67.0585 92.6566 67.0228 92.6194 66.9802C91.6434 65.8731 90.673 64.7632 89.7927 63.5795C89.1339 62.6938 88.5024 61.7916 88.0294 60.7884C87.7779 60.2553 87.5647 59.7085 87.6167 59.1017C87.6823 58.3636 88.2017 57.8059 88.8851 57.7293C89.492 57.661 90.1016 58.1011 90.2957 58.7955C90.5827 59.8152 90.3094 60.6872 89.5385 61.4062C89.4936 61.4482 89.4434 61.4846 89.3929 61.5212C89.302 61.5873 89.2098 61.6542 89.1448 61.7561C89.1575 61.777 89.17 61.798 89.1825 61.8189L89.1832 61.82C89.2161 61.8751 89.2487 61.9298 89.2842 61.983C89.4464 62.2217 89.6533 62.281 89.9048 62.1607C90.4023 61.9229 90.8862 61.655 91.3044 61.2914C92.5264 60.2225 92.5756 58.5221 91.2798 57.5708C90.3668 56.901 89.3416 56.7096 88.2481 56.9885C86.5915 57.4122 85.0989 59.0716 85.9545 61.2121C86.1323 61.6575 86.3635 62.0707 86.5933 62.4816L86.5937 62.4824C86.6713 62.6211 86.7487 62.7595 86.8239 62.8988C86.7563 63.0073 86.6626 63.0637 86.5716 63.1185C86.5411 63.1368 86.511 63.155 86.4822 63.1749C85.9081 63.5713 85.3887 64.0169 84.9622 64.5773C83.5434 66.4526 84.2077 68.8939 86.1022 69.919C87.2257 70.5259 88.4204 70.545 89.6341 70.3865C90.364 70.2908 91.0365 70.0092 91.638 69.5746C91.6901 69.5359 91.7463 69.5034 91.8149 69.4638C91.8579 69.439 91.9059 69.4114 91.9605 69.3777C92.0351 69.4573 92.1104 69.5367 92.1858 69.6162L92.1863 69.6167C92.3543 69.7936 92.5229 69.9713 92.685 70.1541C92.8135 70.3017 92.9556 70.3564 93.1497 70.3564C93.7978 70.3505 94.4474 70.3517 95.0963 70.3528H95.0975C95.3569 70.3532 95.6162 70.3537 95.8752 70.3537C95.8817 70.3537 95.8883 70.3537 95.8948 70.3538C95.9015 70.3538 95.9081 70.3539 95.9148 70.354C96.0257 70.3556 96.1385 70.3572 96.2142 70.2498C96.2607 70.1847 96.314 70.124 96.3679 70.0627ZM91.0964 68.5328C89.7815 66.9992 88.4967 65.4491 87.3485 63.7898C86.255 64.7302 86.2578 66.9281 87.1845 68.068C87.9527 69.0112 89.8335 69.383 91.0964 68.5328Z" fill="#DDDDDD"/>
<path fill-rule="evenodd" clip-rule="evenodd" d="M125.566 40.4736H115.566V40.5037H105.405C105.363 40.5037 105.321 40.5046 105.279 40.5055C105.195 40.5074 105.112 40.5092 105.03 40.5037C104.792 40.4873 104.724 40.6076 104.727 40.8263C104.732 41.2208 104.731 41.6152 104.73 42.0097C104.73 42.1674 104.729 42.3252 104.729 42.4829C104.732 42.851 104.713 43.0174 104.786 43.0917C104.859 43.1647 105.021 43.1486 105.383 43.1472C106.412 43.1423 107.441 43.1408 108.471 43.1393C110.897 43.1358 113.323 43.1323 115.749 43.0843C118.04 43.0406 120.333 43.0511 122.625 43.0615C123.631 43.0661 124.637 43.0707 125.642 43.0707C125.684 43.0707 125.726 43.0694 125.768 43.0682C125.852 43.0658 125.935 43.0634 126.017 43.0707C126.285 43.0953 126.35 42.9613 126.345 42.7208C126.339 42.3646 126.34 42.0084 126.34 41.6522C126.341 41.3851 126.342 41.118 126.339 40.8509C126.337 40.4848 126.329 40.4846 125.941 40.4737L125.94 40.4736H125.566ZM112.182 42.4612C111.829 42.4694 111.476 42.1441 111.474 41.8078C111.474 41.4852 111.829 41.1463 112.173 41.1408C112.534 41.1353 112.857 41.4442 112.857 41.7996C112.857 42.1741 112.573 42.453 112.179 42.4612H112.182ZM120.716 41.7969C121.895 42.4885 121.911 42.4885 123.133 41.7696C122.946 41.6799 122.775 41.5967 122.612 41.5175C122.422 41.4252 122.244 41.3382 122.064 41.2529C121.979 41.2119 121.884 41.2064 121.804 41.2474C121.683 41.3094 121.556 41.3605 121.428 41.4117C121.179 41.5118 120.928 41.6125 120.716 41.7969ZM108.015 41.8379C108.25 41.6557 108.497 41.5392 108.737 41.4257C108.851 41.3723 108.962 41.3196 109.071 41.2611C109.172 41.2064 109.276 41.2255 109.377 41.2748C109.575 41.3713 109.774 41.4668 109.988 41.5696L109.988 41.5696L109.988 41.5698C110.132 41.6387 110.282 41.7108 110.443 41.7887C110.176 41.9877 109.908 42.1129 109.652 42.233C109.545 42.2828 109.44 42.3317 109.339 42.3846C109.287 42.412 109.194 42.4038 109.136 42.3792C108.87 42.2561 108.607 42.1272 108.332 41.9926L108.332 41.9925L108.332 41.9925L108.332 41.9925C108.228 41.9418 108.123 41.8903 108.015 41.8379ZM115.55 41.324C115.664 41.324 115.778 41.325 115.893 41.326C116.15 41.3284 116.408 41.3307 116.665 41.3212C116.914 41.313 117.031 41.4032 117.004 41.6575C117 41.6922 117.002 41.7281 117.003 41.7637L117.003 41.7637C117.003 41.7813 117.004 41.7988 117.004 41.816V41.816C117.004 42.2808 117.004 42.2835 116.537 42.2862C115.864 42.289 115.189 42.2917 114.516 42.2862C114.15 42.2835 114.15 42.2753 114.139 41.896L114.139 41.8953V41.8434C114.141 41.7658 114.14 41.6998 114.139 41.6438V41.6438V41.6437V41.6437V41.6436V41.6436C114.138 41.5 114.137 41.4217 114.176 41.3788C114.222 41.3274 114.326 41.3272 114.553 41.3269L114.648 41.3267H115.552L115.55 41.324ZM118.904 42.4257C119.328 42.4448 119.587 42.2152 119.601 41.8106H119.598C119.612 41.4142 119.344 41.1435 118.942 41.1435C118.549 41.1435 118.267 41.4169 118.261 41.8024C118.259 42.1605 118.513 42.4092 118.904 42.4257ZM125.022 41.324H125.235C125.545 41.3276 125.7 41.4852 125.7 41.7969C125.7 42.1085 125.532 42.2717 125.197 42.2862C125.161 42.2862 125.126 42.2871 125.09 42.2881C125.019 42.2899 124.948 42.2917 124.877 42.2862C124.819 42.2803 124.753 42.2872 124.688 42.2942C124.544 42.3097 124.399 42.3251 124.328 42.1988C124.23 42.0272 124.255 41.8122 124.28 41.6039C124.285 41.5565 124.291 41.5095 124.295 41.4634C124.306 41.3513 124.399 41.3294 124.489 41.3267C124.607 41.323 124.726 41.3243 124.844 41.3255C124.904 41.3261 124.963 41.3267 125.022 41.3267V41.324ZM105.943 42.319H106.157L106.159 42.3163C106.257 42.3151 106.341 42.3161 106.413 42.317C106.833 42.3221 106.843 42.3222 106.843 41.8461V41.8381C106.843 41.3294 106.843 41.3267 106.318 41.324H105.943C105.613 41.3276 105.449 41.4935 105.449 41.8215C105.449 42.1495 105.613 42.3154 105.943 42.319Z" fill="#EEEEEE"/>
<path d="M143.812 84.3081C143.763 84.7647 143.763 85.2157 143.812 85.6613C143.917 85.7028 143.972 85.6493 144.024 85.5976C144.061 85.5607 144.098 85.5246 144.151 85.5246C144.397 85.5234 144.642 85.52 144.888 85.5167C145.194 85.5124 145.501 85.5082 145.808 85.5082C145.934 85.5082 145.977 85.6012 145.996 85.7215C146.109 86.3885 145.986 86.6236 145.368 86.9626C144.616 87.3754 143.804 87.3863 142.981 87.359C142.56 87.3453 142.183 87.1977 141.828 86.9844C140.857 86.4049 140.472 85.4918 140.502 84.4175C140.521 83.704 140.709 83.0205 141.264 82.482C141.838 81.9216 142.538 81.6919 143.301 81.7001C144.405 81.7138 145.447 81.9435 146.158 82.9631C146.279 82.7759 146.397 82.5969 146.512 82.4218L146.742 82.0704C146.788 81.9997 146.834 81.9293 146.879 81.8587C146.953 81.7439 146.918 81.599 146.797 81.6345C146.559 81.7058 146.398 81.5949 146.239 81.4852C146.184 81.4476 146.13 81.4102 146.073 81.3803C144.753 80.6805 143.364 80.4836 141.948 80.9566C139.307 81.8368 138.84 84.658 139.824 86.3939C140.701 87.9412 142.361 88.4442 143.763 88.3786C144.873 88.3267 145.873 87.9221 146.748 87.2195C146.915 87.0856 147 86.9516 146.994 86.7302C146.981 86.1233 146.981 85.5192 146.994 84.9123C147 84.6389 146.91 84.535 146.628 84.5432C146.171 84.5549 145.713 84.5527 145.254 84.5505C145.071 84.5496 144.887 84.5487 144.703 84.5487C144.623 84.5487 144.543 84.5466 144.463 84.5446C144.383 84.5425 144.303 84.5405 144.222 84.5405C144.144 84.5405 144.098 84.4864 144.05 84.4303C143.992 84.3633 143.933 84.2933 143.812 84.3081Z" fill="#EEEEEE"/>
<path d="M161.114 85.5311L161.113 84.9968C161.112 83.7882 161.111 82.5897 161.119 81.3912C161.119 81.1862 161.062 81.0194 160.925 80.8336C161.409 80.7898 161.849 80.7926 162.352 80.8336C162.141 81.0092 162.146 81.2096 162.151 81.406L162.152 81.4341L162.152 81.4545C162.153 81.4681 162.153 81.4816 162.153 81.4951V87.646C162.153 88.2419 162.106 88.2748 161.519 88.2365C161.292 88.2201 161.182 88.0889 161.054 87.933C160.022 86.6854 158.988 85.4402 157.954 84.195L157.945 84.1838C157.426 83.5583 156.906 82.9328 156.387 82.307C156.38 82.2984 156.373 82.2896 156.366 82.2809L156.365 82.28C156.316 82.2202 156.269 82.1617 156.188 82.1403C156.067 82.1725 156.075 82.259 156.083 82.3396C156.085 82.356 156.086 82.3722 156.087 82.3876L156.087 82.3935C156.087 82.3966 156.087 82.3997 156.087 82.4027C156.086 83.0654 156.085 83.7285 156.085 84.3917C156.085 85.3865 156.084 86.3814 156.081 87.3754C156.081 87.6815 156.15 87.9604 156.39 88.2447C155.865 88.3158 155.403 88.3158 154.925 88.2501L154.931 88.2385C155.119 87.9084 155.122 87.9037 155.122 87.4929V81.5553C155.122 81.5259 155.122 81.4963 155.123 81.4667C155.129 81.2502 155.134 81.0279 154.848 80.85C155.235 80.7898 155.581 80.7969 155.912 80.8036H155.913C156.064 80.8066 156.211 80.8096 156.357 80.8062C156.526 80.8012 156.614 80.9117 156.707 81.0284L156.717 81.0409C156.723 81.0483 156.729 81.0558 156.735 81.0632C158.014 82.6132 159.296 84.1605 160.586 85.6996C160.63 85.7525 160.671 85.8102 160.711 85.868C160.819 86.0223 160.928 86.1782 161.111 86.2518L161.114 86.2545C161.114 86.0129 161.114 85.7717 161.114 85.5311Z" fill="#EEEEEE"/>
<path d="M101.926 84.6353C102.284 83.8871 102.639 83.144 102.993 82.4004C103.009 82.4057 103.025 82.4104 103.041 82.415L103.042 82.4151L103.059 82.4203L103.07 82.4234L103.081 82.4268L103.091 82.43V87.4328C103.091 87.4733 103.092 87.514 103.092 87.5549C103.098 87.8393 103.104 88.1273 102.82 88.3568C102.848 88.358 102.877 88.3593 102.905 88.3607C102.924 88.3617 102.943 88.3627 102.963 88.3637C102.992 88.3653 103.02 88.3669 103.049 88.3685L103.122 88.3727C103.588 88.3997 104.048 88.4263 104.594 88.3048C104.187 88.1171 104.187 87.8426 104.187 87.5612V87.5176C104.19 85.6541 104.192 83.7933 104.187 81.9325C104.187 81.9156 104.187 81.8986 104.187 81.8817C104.186 81.5517 104.185 81.2249 104.474 80.9128C104.322 80.9128 104.177 80.9152 104.037 80.9175C103.729 80.9226 103.446 80.9272 103.167 80.9046C102.809 80.8746 102.629 81.0113 102.476 81.3311C101.809 82.728 101.12 84.114 100.431 85.5C100.418 85.5244 100.408 85.5518 100.398 85.5798C100.361 85.6806 100.321 85.79 100.152 85.8007C99.9908 85.4654 99.8297 85.1294 99.6682 84.7928C99.4928 84.427 99.317 84.0604 99.1404 83.693C99.0066 83.4153 98.873 83.1373 98.7395 82.8592C98.4721 82.3026 98.2047 81.7459 97.9349 81.1917C97.9251 81.1709 97.9164 81.1489 97.9076 81.1269C97.8643 81.0188 97.82 80.9083 97.6588 80.9128C97.5104 80.9162 97.3615 80.9134 97.2099 80.9106H97.2095C96.864 80.9041 96.5041 80.8975 96.1033 80.962C96.3848 81.1725 96.3848 81.4131 96.3848 81.6619C96.383 82.9341 96.3836 84.205 96.3842 85.4756C96.3845 86.1108 96.3848 86.7458 96.3848 87.3808C96.3848 87.3918 96.3849 87.4028 96.385 87.4138L96.3851 87.4353C96.3853 87.4563 96.3856 87.4773 96.3859 87.4983C96.3901 87.7982 96.3943 88.0966 96.1525 88.365H97.738C97.34 88.1328 97.3421 87.8554 97.3441 87.5771C97.3442 87.5573 97.3444 87.5374 97.3444 87.5175V82.4328C97.7997 83.2098 98.1819 83.9944 98.5624 84.7755L98.5625 84.7758L98.5659 84.7829L98.5673 84.7857C98.6443 84.9438 98.7212 85.1017 98.7987 85.2595C98.9452 85.5585 99.0839 85.8614 99.2235 86.1665L99.2238 86.1671C99.527 86.8296 99.8352 87.5028 100.239 88.1709C100.812 86.9684 101.371 85.7982 101.924 84.64L101.926 84.6353Z" fill="#EEEEEE"/>
<path d="M72.555 80.9675H74.2226C73.9817 81.195 73.9845 81.4303 73.9873 81.6683L73.9875 81.6837C73.9893 83.0119 73.9887 84.34 73.9881 85.6681V85.675C73.9878 86.3402 73.9875 87.0054 73.9875 87.6706C73.9875 87.6974 73.9868 87.7243 73.9862 87.7514C73.981 87.9679 73.9756 88.1931 74.2964 88.3923H72.5686C72.8528 88.1507 72.8457 87.8743 72.8387 87.6039C72.8376 87.5621 72.8366 87.5205 72.8366 87.4792C72.8355 87.2092 72.8309 86.9388 72.8263 86.6683V86.668C72.8194 86.2621 72.8125 85.8559 72.8174 85.4508C72.8202 85.172 72.7272 85.079 72.4484 85.0818C71.1116 85.0927 69.7748 85.09 68.438 85.0818C68.1838 85.0818 68.0935 85.1665 68.099 85.4207C68.106 85.9198 68.1052 86.4177 68.1044 86.916V86.9163C68.1039 87.2012 68.1035 87.4864 68.1045 87.7717C68.1045 87.985 68.1236 88.1927 68.3997 88.3732C67.9669 88.4433 67.5899 88.4356 67.1966 88.4275C67.0533 88.4246 66.9079 88.4216 66.7568 88.4224C66.9639 88.1743 66.9629 87.9214 66.9619 87.6705C66.9619 87.6532 66.9618 87.6359 66.9618 87.6187V81.7412C66.9618 81.7166 66.9622 81.692 66.9625 81.6674C66.9661 81.434 66.9697 81.1987 66.6556 81.0058C67.1514 80.9282 67.569 80.939 68.0357 80.951C68.1609 80.9543 68.2897 80.9576 68.4243 80.9593C68.103 81.1866 68.1037 81.4338 68.1044 81.6819L68.1045 81.7166C68.1057 82.0071 68.1053 82.2971 68.105 82.587V82.5873C68.1045 82.9739 68.1041 83.3604 68.1072 83.7477C68.1099 84.1332 68.1181 84.1359 68.4817 84.1359C69.783 84.1359 71.0842 84.1332 72.3828 84.125C72.801 84.125 72.8065 84.1168 72.812 83.7204C72.8143 83.4145 72.8136 83.1092 72.813 82.804V82.8037C72.8121 82.3969 72.8112 81.9902 72.8174 81.5826C72.8202 81.3666 72.7873 81.1725 72.555 80.973V80.9675Z" fill="#EEEEEE"/>
<path d="M176.46 81.9484L176.461 81.9489L176.458 81.9516L176.46 81.9484Z" fill="#EEEEEE"/>
<path d="M176.478 81.9243C176.472 81.9323 176.466 81.9404 176.46 81.9484C176.222 81.7774 175.937 81.691 175.605 81.6892C175.214 81.6892 174.822 81.6889 174.43 81.6886C173.646 81.688 172.863 81.6874 172.079 81.6892C171.691 81.6892 171.685 81.7002 171.68 82.0665C171.676 82.3097 171.677 82.5529 171.678 82.7961C171.679 83.0696 171.68 83.343 171.674 83.6165C171.672 83.8379 171.74 83.9391 171.978 83.9363C172.563 83.9305 173.147 83.9316 173.731 83.9327H173.733C173.967 83.9332 174.201 83.9336 174.435 83.9336C174.67 83.9336 174.876 83.8625 175.064 83.6766V85.2349C174.837 84.8568 174.518 84.8621 174.201 84.8674L174.168 84.868L174.145 84.8683L174.121 84.8685C173.923 84.8693 173.724 84.871 173.526 84.8727H173.525C173.029 84.8768 172.534 84.881 172.038 84.8713C171.756 84.8658 171.663 84.9724 171.672 85.2431C171.685 85.7953 171.683 86.3475 171.672 86.8997C171.666 87.1348 171.721 87.2578 171.994 87.2578C173.438 87.2469 174.881 87.2441 176.322 87.2605C176.502 87.2605 176.6 87.167 176.722 87.0499C176.758 87.0158 176.796 86.9797 176.838 86.9434C176.838 87.0762 176.838 87.201 176.838 87.3205V87.3275C176.837 87.5521 176.837 87.7584 176.838 87.9658C176.841 88.1517 176.754 88.2228 176.579 88.2146H170.54C170.509 88.2146 170.477 88.2097 170.434 88.2028C170.422 88.201 170.41 88.199 170.397 88.197L170.379 88.1944L170.369 88.193C170.359 88.1916 170.349 88.1902 170.338 88.1887L170.327 88.1873C170.537 87.9112 170.534 87.6106 170.532 87.3045C170.528 85.9014 170.528 84.498 170.529 83.0949C170.529 82.6282 170.529 82.1614 170.529 81.6947C170.529 81.3484 170.462 81.0477 170.329 80.7926C170.422 80.7106 170.53 80.7191 170.637 80.7274C170.668 80.7299 170.7 80.7324 170.731 80.7324C172.494 80.7297 174.258 80.7297 176.021 80.7324C176.513 80.7324 176.516 80.7379 176.518 81.2299C176.518 81.4432 176.516 81.6564 176.508 81.8696C176.508 81.8879 176.493 81.9061 176.478 81.9243Z" fill="#EEEEEE"/>
<path fill-rule="evenodd" clip-rule="evenodd" d="M112.568 80.9648C112.686 80.8182 112.81 80.826 112.926 80.8332C112.95 80.8348 112.974 80.8363 112.998 80.8363C113.25 80.8357 113.502 80.835 113.755 80.8342C114.766 80.8312 115.779 80.8281 116.789 80.839C117.158 80.8445 117.536 80.8773 117.897 80.9566C119.075 81.2135 119.509 82.0227 119.496 82.8538C119.479 83.9254 118.889 84.7482 117.907 84.9779C117.473 85.079 117.03 85.1118 116.587 85.1118C116.378 85.1118 116.17 85.1124 115.961 85.1131C115.404 85.1147 114.847 85.1163 114.291 85.1064C114.012 85.1009 113.919 85.2048 113.924 85.4782C113.938 86.2245 113.941 86.9735 113.924 87.7198C113.919 87.9522 114.009 88.1189 114.217 88.2993C113.635 88.324 113.126 88.3376 112.517 88.2884C112.834 88.0987 112.834 87.8605 112.834 87.6113V87.605C112.828 85.6285 112.828 83.6548 112.834 81.6783L112.834 81.6402C112.834 81.3725 112.835 81.1188 112.571 80.9648H112.568ZM115.767 84.1197C115.589 84.1197 115.422 84.1189 115.261 84.1182C114.909 84.1165 114.591 84.115 114.272 84.1225C114.023 84.1307 113.919 84.0432 113.924 83.7862C113.938 83.234 113.938 82.6818 113.924 82.1296C113.919 81.8672 114.028 81.7933 114.274 81.7961C114.738 81.8002 115.201 81.8002 115.665 81.8002C116.128 81.8002 116.592 81.8002 117.057 81.8043C117.152 81.8043 117.245 81.827 117.339 81.8499L117.339 81.85C117.367 81.8568 117.395 81.8636 117.423 81.8699C118.085 82.0202 118.323 82.3018 118.317 82.9251C118.315 83.5867 118.063 83.9065 117.421 84.0623C117.063 84.1484 116.7 84.1345 116.362 84.1215C116.152 84.1134 115.951 84.1057 115.767 84.1225V84.1197Z" fill="#EEEEEE"/>
<path fill-rule="evenodd" clip-rule="evenodd" d="M87.3717 88.3786H89.1541C88.8288 88.0369 88.6812 87.7143 88.5391 87.3918C87.6861 85.4536 86.8359 83.5181 85.9967 81.5771C85.9566 81.4841 85.9238 81.4041 85.8955 81.3352C85.8083 81.1226 85.7647 81.0161 85.6855 80.9632C85.6063 80.9103 85.4915 80.9108 85.262 80.9117H85.2617C85.1766 80.912 85.0758 80.9124 84.9552 80.9101C84.9433 80.9101 84.9315 80.9107 84.9196 80.9113C84.8959 80.9125 84.8722 80.9137 84.8485 80.9101C84.6107 80.8746 84.4959 81.0031 84.4084 81.2053L84.3206 81.4091C84.2813 81.5004 84.242 81.5917 84.2027 81.683L84.0079 82.1357L84.0076 82.1364C83.4178 83.5071 82.8282 84.8772 82.2242 86.2436C82.1507 86.4097 82.0814 86.5779 82.0117 86.7469C81.7856 87.2954 81.5555 87.8533 81.1689 88.3841C81.1979 88.3847 81.2267 88.3853 81.2554 88.386C81.2976 88.387 81.3394 88.388 81.3809 88.389C81.8225 88.3996 82.2333 88.4094 82.6889 88.3622C82.4811 88.0396 82.6069 87.7745 82.7381 87.5011C82.8611 87.2441 82.9841 86.9844 83.0661 86.7138C83.1427 86.465 83.2876 86.3885 83.5363 86.3912C83.8839 86.3964 84.2315 86.3954 84.5791 86.3944C84.9614 86.3933 85.3437 86.3923 85.7261 86.3994C85.848 86.4019 85.978 86.3877 86.1081 86.3735C86.4095 86.3406 86.7117 86.3077 86.918 86.4814C87.1088 86.6411 87.2085 86.9068 87.3089 87.1742C87.358 87.305 87.4073 87.4364 87.4674 87.5558C87.6096 87.8374 87.6643 88.1053 87.3717 88.3786ZM85.0672 82.1405L85.0685 82.1437L84.7312 82.9322L84.7304 82.934C84.3669 83.7837 84.0242 84.5848 83.6702 85.4101H86.4231C86.4531 85.3198 86.4313 85.2542 86.4012 85.1886C85.9752 84.2164 85.5491 83.2441 85.0685 82.1437L85.0699 82.1405H85.0672Z" fill="#EEEEEE"/>
<path fill-rule="evenodd" clip-rule="evenodd" d="M131.572 88.3023H131.572L131.464 88.2993C131.77 87.9855 131.643 87.7074 131.515 87.4266L131.515 87.4261C131.501 87.3965 131.488 87.3668 131.475 87.3371C131.433 87.242 131.398 87.1401 131.363 87.038C131.272 86.7734 131.18 86.5076 130.969 86.3557C130.775 86.2169 130.517 86.25 130.258 86.283C130.145 86.2975 130.032 86.3119 129.925 86.3119C129.578 86.3119 129.231 86.3204 128.884 86.3289H128.884C128.467 86.339 128.05 86.3492 127.634 86.3447C127.328 86.342 127.18 86.4596 127.098 86.7357C127.035 86.938 126.951 87.1348 126.858 87.3289L126.855 87.3352C126.711 87.6365 126.569 87.9328 126.767 88.2857C126.396 88.3362 126.051 88.3287 125.703 88.3211C125.561 88.3181 125.419 88.315 125.275 88.3158C125.761 87.4807 126.125 86.6152 126.486 85.7566C126.665 85.3307 126.843 84.9065 127.035 84.4885C127.502 83.4711 127.934 82.4349 128.365 81.3994L128.365 81.399L128.465 81.1589C128.572 80.9046 128.728 80.8308 128.993 80.8281L129.027 80.828C129.788 80.8252 129.79 80.8252 130.105 81.5471C130.95 83.4853 131.797 85.4207 132.648 87.3562L132.669 87.4052C132.796 87.6932 132.925 87.9881 133.241 88.2829H133.238C132.632 88.3317 132.13 88.3178 131.572 88.3023ZM127.716 85.38H130.589C130.105 84.2674 129.649 83.2176 129.143 82.0585C129.045 82.2863 128.949 82.5096 128.855 82.7297C128.773 82.9202 128.692 83.1082 128.612 83.2946L128.501 83.5526C128.238 84.1663 127.98 84.7659 127.716 85.38Z" fill="#EEEEEE"/>
<path d="M57.2571 82.2852C57.6125 82.441 57.946 82.6351 58.0389 83.1271H58.0416C58.2932 82.8531 58.4362 82.5606 58.5746 82.2773L58.5748 82.2769C58.6213 82.1817 58.6674 82.0875 58.7169 81.9954C58.8875 81.6751 58.8867 81.675 58.5596 81.6223L58.5173 81.6154C58.3546 81.5898 58.1998 81.5227 58.0461 81.4562C58.0191 81.4445 57.9921 81.4328 57.9651 81.4213C56.7677 80.921 55.5321 80.7379 54.2636 81.0495C52.8421 81.3994 51.8088 82.2524 51.4616 83.6876C51.0871 85.2348 51.5081 86.6208 52.782 87.6515C54.25 88.8406 56.7349 88.8543 58.3232 87.7007C58.34 87.6884 58.3567 87.6761 58.3734 87.6639C58.5951 87.5004 58.8107 87.3414 59.2226 87.4355C59.1074 87.2768 59.0029 87.1247 58.9014 86.9771C58.6588 86.6241 58.4341 86.2972 58.1237 85.9675C58.0334 86.6919 57.5605 86.9653 57.0657 87.2141C56.9642 87.2674 56.8556 87.3112 56.7487 87.3544L56.724 87.3644C54.8268 88.1025 52.8339 86.9981 52.5441 85.0134C52.402 84.0347 52.7847 82.739 54.0094 82.1922C55.1166 81.7001 56.1882 81.8122 57.2571 82.2852Z" fill="#EEEEEE"/>
<path fill-rule="evenodd" clip-rule="evenodd" d="M78.1577 39.8213C77.928 39.7667 77.7011 39.7612 77.4715 39.7585V39.7612C77.4306 39.7612 77.3894 39.76 77.3481 39.7588C77.2652 39.7564 77.1818 39.7539 77.0997 39.7612C76.1292 39.8405 75.3693 40.3435 75.1342 41.3276C74.8335 42.5879 75.5579 43.7005 76.8263 43.9274C77.2337 43.9985 77.6273 44.0012 78.0346 43.9274C79.0926 43.7333 79.7678 43.0034 79.8006 41.9728C79.8362 40.8246 79.2621 40.0838 78.1577 39.8213ZM88.3991 41.3068V41.3071V41.3074C88.3986 41.4747 88.3982 41.6418 88.3982 41.8088L88.4009 41.8115H88.4419V43.572C88.4447 43.7388 88.4556 43.8727 88.7044 43.8618C89.0887 43.8442 89.4722 43.8397 89.8558 43.8352C90.1297 43.832 90.4037 43.8288 90.6781 43.8208C91.1729 43.8071 91.6076 43.6404 91.9876 43.3068C92.4824 42.8722 92.5562 42.3118 92.5452 41.7076C92.5288 40.7618 92.1379 40.215 91.2221 39.9526C90.6395 39.7864 90.046 39.8093 89.452 39.8322C89.1569 39.8436 88.8617 39.855 88.5677 39.8432C88.4447 39.8405 88.3955 39.9116 88.3955 40.051C88.4013 40.4688 88.4002 40.8881 88.3991 41.3067V41.3068V41.3068ZM75.9351 41.3452C75.6371 42.2336 76.0745 43.3053 77.6437 43.2834V43.2807C77.9143 43.2725 78.3982 43.1959 78.718 42.7831C79.1008 42.2883 79.1363 41.7115 78.8629 41.1702C78.4966 40.4458 77.8022 40.4239 77.1024 40.4759C76.5447 40.5196 76.1019 40.8504 75.9351 41.3452ZM89.1861 41.4823C89.1858 41.595 89.1855 41.7078 89.1855 41.8209L89.1882 41.8236C89.1882 41.942 89.1888 42.0605 89.1894 42.179C89.1906 42.4159 89.1918 42.6528 89.1882 42.8897C89.1827 43.0811 89.2456 43.1877 89.4588 43.1822C89.5435 43.1804 89.6282 43.1797 89.7129 43.1789C90.1424 43.1751 90.5714 43.1712 90.987 43.0319C91.5556 42.8405 91.8098 42.4332 91.7825 41.7498C91.7579 41.1101 91.4709 40.7438 90.8831 40.5989C90.4877 40.5029 90.0885 40.5043 89.6887 40.5058C89.6102 40.5061 89.5318 40.5064 89.4534 40.5059C89.2319 40.5032 89.1855 40.6207 89.1855 40.8066C89.1873 41.0324 89.1867 41.257 89.1861 41.4819V41.482V41.4823Z" fill="#EEEEEE"/>
<path fill-rule="evenodd" clip-rule="evenodd" d="M158.431 40.1189C158.439 39.7253 158.415 39.7143 158.015 39.7143H158.018C157.78 39.6706 157.603 39.8292 157.43 40.026C157.103 40.4011 156.77 40.7724 156.437 41.1431C156.367 41.2209 156.297 41.2987 156.228 41.3764C156.014 41.617 155.801 41.8549 155.588 42.09C155.413 42.284 155.394 42.5246 155.47 42.7406C155.528 42.9065 155.675 42.8883 155.813 42.8711C155.858 42.8656 155.901 42.8602 155.941 42.8609C156.455 42.8718 156.971 42.8718 157.485 42.8609C157.715 42.8581 157.813 42.9483 157.794 43.1752C157.792 43.2084 157.793 43.2416 157.795 43.2748C157.797 43.3127 157.798 43.3506 157.794 43.3885C157.764 43.6509 157.887 43.7329 158.136 43.7247C158.464 43.711 158.497 43.6974 158.51 43.3639C158.512 43.3246 158.51 43.2843 158.509 43.2442C158.502 43.0415 158.496 42.8463 158.838 42.8417C158.972 42.8395 158.97 42.7187 158.967 42.6104C158.966 42.5862 158.966 42.5625 158.967 42.541C158.972 42.3907 158.959 42.2321 158.765 42.2294C158.516 42.2242 158.508 42.0764 158.498 41.9003C158.498 41.8907 158.497 41.881 158.497 41.8713L158.491 41.7798C158.457 41.2277 158.423 40.6733 158.431 40.1189ZM157.793 41.1005C157.794 40.9547 157.794 40.8089 157.794 40.6631C157.775 40.6576 157.756 40.6514 157.738 40.6453C157.719 40.6391 157.701 40.633 157.682 40.6275L157.591 40.7237C157.156 41.1835 156.719 41.6461 156.277 42.2186C156.446 42.2186 156.603 42.2182 156.753 42.2179C157.03 42.2173 157.281 42.2168 157.531 42.2186C157.701 42.2213 157.794 42.1611 157.794 41.9753C157.792 41.6837 157.793 41.3921 157.793 41.1005Z" fill="#EEEEEE"/>
</g>
<defs>
<clipPath id="clip0_122_2514">
<rect width="231" height="127" fill="white"/>
</clipPath>
</defs>
</svg>
