<svg width="216" height="207" viewBox="0 0 216 207" fill="none" xmlns="http://www.w3.org/2000/svg">
<g clip-path="url(#clip0_5527_802)">
<rect width="216" height="206.929" fill="#151517"/>
<g clip-path="url(#clip1_5527_802)">
<path fill-rule="evenodd" clip-rule="evenodd" d="M178.767 99.5104C178.618 99.5401 178.469 99.8675 178.469 100.046C178.44 101.237 178.41 104.392 178.41 106.535C178.41 106.595 178.499 106.714 178.588 106.714C179.035 106.744 180.106 106.773 181.029 106.773C182.309 106.773 183.053 106.595 183.47 106.416C184.542 105.88 185.048 104.719 185.048 103.439C185.048 100.552 183.024 99.4507 180.017 99.4507C179.809 99.421 179.214 99.421 178.767 99.5104V99.5104ZM186.447 112.816C186.447 109.869 184.274 108.232 180.345 108.232C180.166 108.232 178.916 108.202 178.618 108.262C178.529 108.292 178.41 108.351 178.41 108.441C178.41 110.554 178.38 113.918 178.469 115.227C178.529 115.793 178.946 116.597 179.452 116.835C179.987 117.132 181.208 117.192 182.041 117.192C184.393 117.192 186.447 115.882 186.447 112.816V112.816ZM172.695 97.8734C172.992 97.8734 173.885 97.9624 176.177 97.9624C178.35 97.9624 180.077 97.903 182.19 97.903C184.78 97.903 188.352 98.8256 188.352 102.695C188.352 104.6 187.012 106.119 185.256 106.863C185.167 106.893 185.167 106.952 185.256 106.982C187.756 107.607 189.959 109.155 189.959 112.072C189.959 114.93 188.173 116.745 185.584 117.876C184.006 118.561 182.041 118.799 180.047 118.799C178.529 118.799 174.451 118.621 172.189 118.68C171.951 118.591 172.397 117.519 172.605 117.341C173.141 117.311 173.558 117.281 174.124 117.102C174.927 116.894 175.016 116.656 175.135 115.436C175.195 114.394 175.195 110.702 175.195 108.083C175.195 104.481 175.225 102.041 175.195 100.85C175.165 99.9275 174.838 99.6294 174.183 99.4507C173.677 99.3617 172.844 99.2423 172.159 99.1533C172.01 99.0043 172.516 97.9921 172.695 97.8734ZM155.519 116.388C156.234 116.953 157.633 117.191 158.883 117.191C160.49 117.191 162.098 116.894 163.646 115.495C165.223 114.066 166.325 111.864 166.325 108.351C166.325 104.987 165.045 102.249 162.425 100.642C160.937 99.7184 159.032 99.332 156.829 99.332C156.174 99.332 155.549 99.3617 155.162 99.5401C155.073 99.5997 154.865 99.8675 154.865 100.016C154.805 100.612 154.805 105.196 154.805 107.875C154.805 110.643 154.805 114.513 154.865 114.959C154.865 115.406 155.073 116.09 155.519 116.388H155.519ZM148.762 97.873C149.328 97.873 151.501 97.9624 152.542 97.9624C154.418 97.9624 155.757 97.8734 159.3 97.8734C162.276 97.8734 164.777 98.6769 166.563 100.195C168.735 102.07 169.867 104.66 169.867 107.815C169.867 112.31 167.813 114.9 165.759 116.388C163.705 117.906 161.026 118.799 157.216 118.799C155.192 118.799 151.709 118.74 148.822 118.71H148.792C148.643 118.442 149.03 117.4 149.268 117.37C150.042 117.281 150.251 117.251 150.638 117.103C151.263 116.864 151.382 116.537 151.471 115.436C151.56 113.382 151.531 110.911 151.531 108.113C151.531 106.119 151.56 102.219 151.501 100.969C151.412 99.9271 150.965 99.6591 150.072 99.4804C149.626 99.3914 149.03 99.272 148.197 99.183C148.078 98.9743 148.613 98.0517 148.762 97.8734V97.873Z" fill="white"/>
<path fill-rule="evenodd" clip-rule="evenodd" d="M112.745 117.549C112 117.46 111.465 117.341 110.81 117.043C110.72 116.983 110.571 116.686 110.571 116.567C110.512 115.525 110.512 112.548 110.512 110.554C110.512 108.946 110.244 107.548 109.56 106.565C108.756 105.434 107.595 104.779 106.107 104.779C104.797 104.779 103.041 105.672 101.582 106.922C101.552 106.952 101.314 107.161 101.344 106.833C101.344 106.506 101.404 105.851 101.433 105.404C101.463 104.987 101.225 104.779 101.225 104.779C100.272 105.255 97.5935 105.881 96.6109 105.97C95.8968 106.119 95.7181 106.803 96.4626 107.041H96.4922C97.2954 107.279 97.8315 107.548 98.2479 107.816C98.5457 108.054 98.516 108.381 98.516 108.649C98.5457 110.881 98.5457 114.305 98.4566 116.18C98.427 116.924 98.2186 117.192 97.6825 117.311L97.7422 117.281C97.3254 117.371 96.998 117.46 96.4919 117.519C96.3132 117.698 96.3132 118.65 96.4919 118.859C96.8193 118.859 98.5457 118.77 99.975 118.77C101.939 118.77 102.952 118.859 103.457 118.859C103.666 118.621 103.725 117.728 103.606 117.519C103.041 117.49 102.624 117.43 102.237 117.311C101.701 117.192 101.552 116.924 101.522 116.299C101.463 114.721 101.463 111.387 101.463 109.125C101.463 108.5 101.642 108.202 101.82 108.024C102.505 107.429 103.606 107.012 104.589 107.012C105.541 107.012 106.166 107.309 106.642 107.697C107.297 108.232 107.506 109.006 107.595 109.572C107.744 110.852 107.684 113.382 107.684 115.585C107.684 116.775 107.595 117.073 107.149 117.222C106.94 117.311 106.404 117.43 105.779 117.489C105.571 117.698 105.63 118.621 105.779 118.829C106.642 118.829 107.655 118.74 109.143 118.74C110.988 118.74 112.179 118.829 112.656 118.829C112.804 118.65 112.864 117.787 112.745 117.549V117.549ZM120.99 106.179C119.413 106.179 118.43 107.399 118.43 109.304C118.43 111.239 119.293 113.471 121.734 113.471C122.151 113.471 122.925 113.292 123.282 112.876C123.848 112.34 124.235 111.268 124.235 110.137C124.235 107.667 123.014 106.178 120.99 106.178V106.179ZM120.782 119.335C120.186 119.335 119.769 119.514 119.502 119.663C118.251 120.466 117.686 121.24 117.686 122.163C117.686 123.026 118.013 123.711 118.728 124.306C119.591 125.05 120.782 125.408 122.3 125.408C125.336 125.408 126.675 123.77 126.675 122.163C126.675 121.032 126.11 120.287 124.949 119.871C124.116 119.514 122.598 119.335 120.782 119.335V119.335ZM120.99 127.075C119.174 127.075 117.864 126.687 116.733 125.824C115.632 124.991 115.156 123.741 115.156 122.877C115.156 122.639 115.215 121.984 115.751 121.389C116.078 121.032 116.793 120.347 118.49 119.186C118.549 119.157 118.579 119.127 118.579 119.067C118.579 119.008 118.519 118.948 118.46 118.919C117.061 118.383 116.644 117.519 116.525 117.043V116.983C116.495 116.805 116.436 116.626 116.704 116.448C116.912 116.299 117.21 116.12 117.537 115.912C118.043 115.614 118.579 115.287 118.906 115.019C118.966 114.959 118.966 114.9 118.966 114.84C118.966 114.781 118.906 114.721 118.847 114.692C116.763 114.007 115.722 112.459 115.722 110.137C115.722 108.619 116.406 107.25 117.626 106.387C118.46 105.732 120.544 104.928 121.913 104.928H122.002C123.401 104.958 124.175 105.255 125.276 105.642C125.872 105.851 126.437 105.94 127.212 105.94C128.372 105.94 128.878 105.583 129.295 105.166C129.325 105.226 129.384 105.375 129.414 105.762C129.444 106.149 129.325 106.714 129.027 107.131C128.789 107.458 128.253 107.697 127.717 107.697H127.568C127.033 107.637 126.794 107.577 126.794 107.577L126.675 107.637C126.646 107.697 126.675 107.756 126.705 107.845L126.735 107.905C126.794 108.173 126.913 108.976 126.913 109.185C126.913 111.626 125.931 112.697 124.889 113.501C123.877 114.245 122.717 114.721 121.407 114.84C121.377 114.84 121.258 114.84 120.99 114.87C120.841 114.87 120.633 114.9 120.603 114.9H120.573C120.335 114.959 119.74 115.257 119.74 115.763C119.74 116.209 120.008 116.745 121.288 116.835C121.555 116.864 121.823 116.864 122.121 116.894C123.818 117.013 125.931 117.162 126.913 117.49C128.283 117.995 129.146 119.216 129.146 120.675C129.146 122.878 127.569 124.931 124.949 126.211C123.669 126.777 122.389 127.075 120.99 127.075V127.075ZM137.957 106.327C137.332 106.327 136.766 106.476 136.349 106.773C135.189 107.488 134.593 108.917 134.593 111C134.593 114.9 136.558 117.639 139.356 117.639C140.19 117.639 140.844 117.4 141.41 116.924C142.273 116.209 142.72 114.781 142.72 112.786C142.72 108.917 140.785 106.327 137.957 106.327L137.957 106.327ZM138.493 119.067C133.432 119.067 131.617 115.346 131.617 111.864C131.617 109.423 132.599 107.548 134.563 106.208C135.963 105.345 137.63 104.869 139.118 104.869C142.987 104.869 145.696 107.637 145.696 111.626C145.696 114.334 144.625 116.477 142.571 117.787C141.588 118.442 139.892 119.067 138.493 119.067H138.493V119.067ZM85.4486 106.327C84.8235 106.327 84.2581 106.476 83.841 106.773C82.6804 107.488 82.0849 108.917 82.0849 111C82.0849 114.9 84.0494 117.639 86.8476 117.639C87.6811 117.639 88.3359 117.4 88.9017 116.924C89.7645 116.209 90.2113 114.781 90.2113 112.786C90.2113 108.917 88.3062 106.327 85.4486 106.327ZM85.9844 119.067C80.924 119.067 79.1083 115.346 79.1083 111.864C79.1083 109.423 80.0905 107.548 82.055 106.208C83.4542 105.345 85.1212 104.869 86.6095 104.869C90.4793 104.869 93.1879 107.637 93.1879 111.626C93.1879 114.334 92.1163 116.477 90.0623 117.787C89.1097 118.442 87.413 119.067 85.9844 119.067ZM51.9611 118.77C51.9014 118.68 51.8417 118.412 51.8717 118.085C51.8717 117.847 51.9314 117.698 51.9611 117.639C52.5862 117.549 52.9136 117.46 53.2707 117.371C53.8662 117.222 54.1042 116.894 54.1339 116.15C54.2236 114.364 54.2236 110.971 54.1936 108.619V108.559C54.1936 108.292 54.1936 107.964 53.8662 107.726C53.3897 107.429 52.8243 107.161 52.0801 106.952C51.8124 106.863 51.6337 106.714 51.6634 106.536C51.6634 106.357 51.8421 106.149 52.2291 106.089C53.2114 106 55.7709 105.375 56.7831 104.928C56.8428 104.987 56.9321 105.166 56.9321 105.404L56.9024 105.732C56.8724 106.059 56.8428 106.446 56.8428 106.833C56.8428 106.952 56.9621 107.041 57.0808 107.041C57.1405 107.041 57.2002 107.012 57.2595 106.982C59.1646 105.493 60.8909 104.958 61.7838 104.958C63.2427 104.958 64.374 105.642 65.2372 107.071C65.2965 107.161 65.3562 107.19 65.4455 107.19C65.5049 107.19 65.5939 107.161 65.6239 107.101C67.3803 105.762 69.1366 104.958 70.2972 104.958C73.0654 104.958 74.7028 107.012 74.7028 110.494C74.7028 111.477 74.7028 112.757 74.6731 113.918C74.6731 114.959 74.6434 115.912 74.6434 116.597C74.6434 116.745 74.8515 117.222 75.1789 117.311C75.5956 117.519 76.1614 117.609 76.9056 117.728H76.9352C76.9949 117.936 76.8759 118.71 76.7568 118.859C76.5781 118.859 76.3101 118.859 76.0127 118.829C75.2592 118.79 74.5048 118.77 73.7502 118.77C71.9049 118.77 70.9523 118.799 70.0292 118.859C69.9701 118.621 69.9401 117.906 70.0292 117.728C70.5653 117.639 70.833 117.549 71.1607 117.46C71.7562 117.281 71.9049 117.013 71.9349 116.239C71.9349 115.674 72.0536 110.852 71.8749 109.691C71.6965 108.5 70.8033 107.101 68.8386 107.101C68.0944 107.101 66.9338 107.399 65.8026 108.262C65.7433 108.321 65.6833 108.47 65.6833 108.559V108.589C65.8026 109.214 65.8026 109.929 65.8026 111.03V112.965C65.8026 114.305 65.7726 115.555 65.8026 116.507C65.8026 117.162 66.1897 117.311 66.5171 117.43C66.6958 117.46 66.8145 117.49 66.9635 117.519C67.2312 117.579 67.4993 117.639 67.916 117.728C67.9757 117.847 67.9757 118.234 67.8864 118.561C67.8564 118.74 67.7967 118.829 67.767 118.859C66.7551 118.829 65.7133 118.799 64.1953 118.799C63.7488 118.799 62.9747 118.829 62.3199 118.829C61.7838 118.829 61.278 118.859 60.9806 118.859C60.9506 118.799 60.8909 118.591 60.8909 118.263C60.8909 117.996 60.9506 117.787 61.0103 117.728C61.159 117.698 61.278 117.668 61.427 117.668C61.7838 117.609 62.0818 117.549 62.3792 117.49C62.8857 117.341 63.064 117.073 63.0937 116.418C63.1831 114.93 63.2724 110.673 63.064 109.601C62.707 107.875 61.7248 107.012 60.1468 107.012C59.2243 107.012 58.063 107.458 57.1108 108.173C56.9618 108.292 56.8428 108.589 56.8428 108.857V110.613C56.8428 112.757 56.8428 115.436 56.8724 116.597C56.9024 116.953 57.0211 117.371 57.7059 117.519C57.855 117.549 58.093 117.609 58.3907 117.639L58.9262 117.728C58.9862 117.906 58.9562 118.621 58.8372 118.859C58.5395 118.859 58.1824 118.829 57.7653 118.829C57.1405 118.799 56.3367 118.77 55.4438 118.77C54.4019 118.77 53.6578 118.799 53.0623 118.829C52.6456 118.77 52.3182 118.77 51.9611 118.77V118.77Z" fill="white"/>
<path fill-rule="evenodd" clip-rule="evenodd" d="M36.3038 125.914L35.0836 125.497C35.0836 125.497 35.2326 119.276 32.9998 118.83C31.5118 117.103 33.2385 45.6036 38.5963 118.591C38.5963 118.591 36.7506 119.514 36.4232 121.092C36.0658 122.64 36.3038 125.914 36.3038 125.914V125.914Z" fill="white"/>
<path fill-rule="evenodd" clip-rule="evenodd" d="M36.3038 125.914L35.0836 125.497C35.0836 125.497 35.2326 119.276 32.9998 118.83C31.5118 117.103 33.2385 45.6036 38.5963 118.591C38.5963 118.591 36.7506 119.514 36.4232 121.092C36.0658 122.64 36.3038 125.914 36.3038 125.914V125.914Z" fill="#707070"/>
<path fill-rule="evenodd" clip-rule="evenodd" d="M36.9574 119.9C36.9574 119.9 47.6439 112.875 45.1431 98.2591C42.7323 87.6329 37.0468 84.1502 36.4216 82.8106C35.7372 81.8581 35.082 80.1914 35.082 80.1914L35.5288 109.749C35.5288 109.779 34.6059 118.798 36.9577 119.9" fill="white"/>
<path fill-rule="evenodd" clip-rule="evenodd" d="M36.9574 119.9C36.9574 119.9 47.6439 112.875 45.1431 98.2591C42.7323 87.6329 37.0468 84.1502 36.4216 82.8106C35.7372 81.8581 35.082 80.1914 35.082 80.1914L35.5288 109.749C35.5288 109.779 34.6059 118.798 36.9577 119.9" fill="#A6A7AA"/>
<path fill-rule="evenodd" clip-rule="evenodd" d="M34.4579 120.287C34.4579 120.287 24.4261 113.44 25.0216 101.385C25.587 89.3298 32.6715 83.4063 34.0408 82.3347C34.934 81.3822 34.9636 81.0248 35.0233 80.0723C35.6484 81.4119 35.5294 100.105 35.6184 102.308C35.8862 110.791 35.1423 118.68 34.4579 120.287Z" fill="white"/>
<path fill-rule="evenodd" clip-rule="evenodd" d="M34.4579 120.287C34.4579 120.287 24.4261 113.44 25.0216 101.385C25.587 89.3298 32.6715 83.4063 34.0408 82.3347C34.934 81.3822 34.9636 81.0248 35.0233 80.0723C35.6484 81.4119 35.5294 100.105 35.6184 102.308C35.8862 110.791 35.1423 118.68 34.4579 120.287Z" fill="white"/>
</g>
</g>
<defs>
<clipPath id="clip0_5527_802">
<rect width="216" height="206.929" fill="white"/>
</clipPath>
<clipPath id="clip1_5527_802">
<rect width="165.152" height="47.1014" fill="white" transform="translate(25 80)"/>
</clipPath>
</defs>
</svg>
