<svg width="231" height="127" viewBox="0 0 231 127" fill="none" xmlns="http://www.w3.org/2000/svg">
<g clip-path="url(#clip0_118_2161)">
<path d="M216.947 83.3565C216.965 83.3146 216.982 83.2727 216.999 83.2304H217V41.0015C216.917 41.024 216.833 41.0439 216.749 41.0638C216.57 41.1062 216.392 41.1484 216.223 41.2151C215.035 41.6854 213.848 42.1596 212.661 42.6338L212.66 42.634L212.654 42.6364L212.653 42.6368L212.652 42.6371C211.594 43.0599 210.536 43.4827 209.476 43.9028C206.935 44.9105 205.622 46.8242 205.622 49.5458V85.2521C205.622 85.2752 205.623 85.2982 205.623 85.3212C205.623 85.3442 205.624 85.3672 205.625 85.3901C205.627 85.4909 205.63 85.5914 205.62 85.6907C205.578 86.0777 205.754 86.1933 206.13 86.192C207.1 86.1877 208.07 86.1897 209.04 86.1917C210.581 86.1949 212.122 86.198 213.663 86.1757C215.211 86.1543 216.45 85.1114 216.849 83.6224C216.874 83.5315 216.911 83.444 216.947 83.3565Z" fill="#EEEEEE"/>
<path d="M202.172 52.29L202.173 52.2887C202.091 52.3179 202.017 52.3435 201.948 52.3673L201.947 52.3676C201.813 52.4142 201.699 52.4537 201.586 52.4986C200.734 52.8384 199.882 53.1786 199.03 53.5189L199.027 53.5202L199.007 53.5282L199.003 53.5298C197.539 54.1146 196.074 54.6994 194.609 55.2818C192.205 56.2367 190.888 58.1642 190.888 60.7451V86.1543C190.974 86.1585 191.055 86.1635 191.131 86.1682L191.131 86.1682C191.282 86.1774 191.417 86.1857 191.552 86.1857L192.34 86.1866H192.342C194.442 86.189 196.544 86.1913 198.644 86.1857C200.772 86.1807 202.172 84.7722 202.172 82.6449V52.29Z" fill="#EEEEEE"/>
<path d="M14 85.8879V70.752H19.1467V72.726C20.3668 71.2646 21.8105 70.38 23.7179 70.3197C25.6404 70.2582 27.1595 70.894 28.088 72.7825L28.1808 72.6844C28.309 72.5486 28.4169 72.4343 28.5241 72.3201C30.2229 70.4981 32.3238 69.9566 34.6986 70.5107C36.5331 70.9379 37.7934 72.55 38.0346 74.6183C38.1113 75.2792 38.1527 75.9489 38.1552 76.6149C38.1644 78.8433 38.1629 81.0718 38.1614 83.3228L38.1614 83.3305C38.1608 84.1764 38.1603 85.0256 38.1603 85.8791H32.9307V82.9213C32.9307 82.2538 32.9308 81.5861 32.9309 80.9184V80.9103C32.9312 79.576 32.9315 78.2415 32.9307 76.9076C32.9294 75.391 32.271 74.5743 31.0308 74.5404C29.6449 74.5014 28.6811 75.4011 28.6371 76.8699C28.6045 77.9841 28.6092 79.0989 28.6138 80.2139L28.6138 80.2145C28.6156 80.6447 28.6174 81.075 28.617 81.5052C28.6162 82.4611 28.6165 83.417 28.6168 84.3894C28.6169 84.8819 28.617 85.3786 28.617 85.8817H23.4993L23.4993 77.1725C23.4994 76.9394 23.4996 76.7046 23.4704 76.4741C23.3045 75.1862 22.6486 74.5416 21.5127 74.5404C20.2738 74.5391 19.3817 75.2867 19.2145 76.4905C19.1741 76.7833 19.1742 77.0818 19.1743 77.3784L19.1743 77.4278C19.1739 77.8854 19.1733 78.3431 19.1727 78.8007C19.1699 80.9742 19.1671 83.1475 19.1806 85.32C19.1831 85.7585 19.0989 85.9608 18.5988 85.9495C17.648 85.9279 16.6973 85.9313 15.7465 85.9347C15.3163 85.9362 14.8862 85.9377 14.4561 85.9369C14.3627 85.9369 14.2693 85.9244 14.168 85.9109H14.1679L14.1676 85.9108L14.1673 85.9108L14.1671 85.9107L14.1669 85.9107C14.1146 85.9037 14.0601 85.8964 14.0025 85.8905L14 85.8879Z" fill="#EEEEEE"/>
<path d="M187.438 63.6037C187.336 63.6389 187.248 63.6684 187.17 63.6947L187.17 63.6948L187.169 63.6951C187.018 63.7456 186.903 63.7845 186.79 63.8298C186.09 64.1093 185.389 64.3871 184.689 64.665C183.04 65.3193 181.391 65.9735 179.751 66.6482C177.397 67.6157 176.16 69.4251 176.128 71.9369C176.093 74.7864 176.098 77.6364 176.103 80.4863C176.106 82.1894 176.109 83.8924 176.103 85.5952C176.102 86.0651 176.245 86.2021 176.711 86.1983C178.329 86.1845 179.947 86.1861 181.564 86.1876H181.565C182.312 86.1883 183.059 86.189 183.805 86.1882C186.042 86.1857 187.438 84.7847 187.438 82.5444V63.6037Z" fill="#EEEEEE"/>
<path d="M74.5527 63.4101V73.0212C74.6223 72.9365 74.6753 72.8739 74.7171 72.8245C74.7862 72.7428 74.8247 72.6974 74.8568 72.648C76.3043 70.4617 79.0498 69.9151 81.2625 70.5434C83.1636 71.0837 84.4289 72.7574 84.488 74.9965C84.5493 77.3193 84.5427 79.6435 84.5361 81.9676C84.534 82.6922 84.5319 83.4169 84.5319 84.1414C84.5319 84.281 84.5405 84.4313 84.5492 84.5838L84.5493 84.5842C84.5764 85.0601 84.6048 85.5566 84.3774 85.8126C84.1898 86.0229 83.7184 85.9897 83.2597 85.9574C83.0856 85.9452 82.9132 85.933 82.759 85.9344C81.9909 85.9414 81.2221 85.9399 80.4303 85.9383C80.0848 85.9376 79.735 85.9369 79.379 85.9369V77.4215C79.379 77.3886 79.3791 77.3556 79.3792 77.3227C79.3797 77.1467 79.3802 76.9704 79.3664 76.7958C79.2483 75.2478 78.5635 74.519 77.1977 74.4851C75.7954 74.4499 74.7336 75.3458 74.5967 76.7556C74.5393 77.3484 74.5436 77.9472 74.548 78.5457V78.5461C74.5492 78.7212 74.5505 78.8964 74.5502 79.0713C74.5496 79.3034 74.549 79.5354 74.5484 79.7674V79.768C74.5436 81.6241 74.5387 83.4801 74.5577 85.3351C74.5628 85.7937 74.4371 85.9571 73.9584 85.947C73.0441 85.9276 72.1293 85.9303 71.2147 85.933H71.2145C70.7691 85.9343 70.3237 85.9357 69.8785 85.9344C69.7713 85.9344 69.6642 85.9213 69.5443 85.9065C69.4828 85.899 69.4181 85.891 69.3482 85.8842V85.2346C69.3482 84.0259 69.3484 82.8172 69.3486 81.6085C69.3494 76.4693 69.3501 71.33 69.3369 66.1908C69.3369 65.7071 69.4487 65.4583 69.9338 65.2748C71.0252 64.8639 72.1044 64.4185 73.2251 63.9559L73.2255 63.9557C73.6606 63.7761 74.1019 63.5939 74.5527 63.4101Z" fill="#EEEEEE"/>
<path fill-rule="evenodd" clip-rule="evenodd" d="M94.9824 82.7291C93.0725 82.8535 91.5031 81.3318 91.7079 79.4898L91.7104 79.4885H102.329C102.329 79.2273 102.334 78.9786 102.338 78.7385C102.347 78.2347 102.355 77.7689 102.32 77.306C102.17 75.3106 101.544 73.5062 99.9921 72.1404C98.5094 70.8362 96.7264 70.3386 94.7876 70.3172C92.0497 70.2871 89.6749 71.1252 87.9434 73.3316C86.5109 75.1573 86.1667 77.2821 86.4067 79.54C86.7082 82.3735 88.1155 84.4128 90.7542 85.5525C92.5749 86.339 94.4911 86.378 96.4211 86.1594C97.7857 86.0035 99.0811 85.6115 100.192 84.7608C101.445 83.8009 102.131 82.5268 102.327 80.9008H98.0659C98.0347 80.9008 98.002 80.8981 97.9692 80.8954C97.8925 80.8891 97.8154 80.8827 97.7555 80.9109C97.6211 80.9737 97.4414 81.0629 97.3999 81.1823C96.9966 82.3358 96.0592 82.66 94.9824 82.7291ZM91.7584 76.2285C91.7959 76.0132 91.8501 75.8085 91.9194 75.6157C92.3605 74.389 93.417 73.645 94.716 73.701C94.9567 73.7113 95.1829 73.7449 95.3935 73.8005C96.5277 74.0993 97.2067 75.0348 97.2323 76.4129C97.2332 76.4592 97.2334 76.506 97.2328 76.5533C97.2328 76.5534 97.2327 76.5534 97.2327 76.5535H91.7153C91.7256 76.4427 91.74 76.3343 91.7584 76.2285Z" fill="#EEEEEE"/>
<path fill-rule="evenodd" clip-rule="evenodd" d="M137.977 86.2611C135.945 86.2347 133.591 85.5336 131.875 83.4352C128.076 78.7911 130.78 71.5184 136.677 70.4818C138.627 70.1388 140.552 70.2456 142.389 71.0548C144.925 72.1706 146.423 74.1031 146.8 76.8435C147.177 79.5815 146.679 82.0958 144.593 84.0811C142.916 85.6781 140.84 86.2662 137.977 86.2611ZM135.467 77.8996C135.467 77.8993 135.467 77.899 135.467 77.8987C135.52 77.6649 135.564 77.4411 135.607 77.2257L135.607 77.2254L135.607 77.2251L135.607 77.2247C135.695 76.7761 135.777 76.3636 135.916 75.9717C136.33 74.8019 137.299 74.1887 138.585 74.1862C139.88 74.1849 140.835 74.7856 141.253 75.9654C141.454 76.5303 141.58 77.1002 141.633 77.6716C141.72 78.617 141.606 79.5666 141.29 80.505C140.841 81.8382 139.902 82.4313 138.459 82.4036C137.725 82.3895 137.108 82.175 136.644 81.7556C136.331 81.4726 136.088 81.0961 135.925 80.6245C135.898 80.5482 135.874 80.4694 135.852 80.3882C135.763 80.0605 135.702 79.7251 135.654 79.3912C135.617 79.1363 135.588 78.8824 135.559 78.6335C135.559 78.6331 135.559 78.6327 135.559 78.6323L135.559 78.6321C135.53 78.3813 135.502 78.1357 135.467 77.8996ZM135.467 77.8987L135.467 77.8992V77.8979L135.467 77.8987Z" fill="#EEEEEE"/>
<path fill-rule="evenodd" clip-rule="evenodd" d="M41.813 83.6714C43.5042 85.6153 45.7923 86.2435 48.4888 86.2687V86.2674C51.2117 86.2134 53.7109 85.3024 55.4009 82.7793C56.4677 81.1848 56.7517 79.3805 56.6084 77.512C56.3785 74.4914 54.9146 72.2849 52.1038 71.0485C50.2881 70.2494 48.3782 70.1111 46.4533 70.4793C43.5884 71.0284 41.4058 72.5438 40.4635 75.3784C39.4821 78.3325 39.6719 81.2124 41.813 83.6714ZM50.8888 80.7897C50.8921 80.7816 50.8955 80.7734 50.8988 80.7651C51.5484 79.1581 51.5384 77.502 50.9302 75.8848C50.5043 74.7515 49.6084 74.2112 48.3996 74.1873C47.1608 74.1623 46.1791 74.6381 45.723 75.8032C45.7193 75.8128 45.7155 75.8225 45.7118 75.8322C45.5118 76.3578 45.4097 76.9203 45.3059 77.4919C45.259 77.7498 45.2118 78.0096 45.1552 78.2686C45.2041 78.4946 45.2462 78.7211 45.287 78.9466C45.2943 78.987 45.3015 79.0273 45.3088 79.0675C45.414 79.6525 45.5176 80.2282 45.7182 80.7676C45.7791 80.932 45.8506 81.083 45.9319 81.2212C45.8505 81.0831 45.7791 80.9321 45.7181 80.7678" fill="#EEEEEE"/>
<path d="M153.939 85.8993H148.858V70.7532H153.948V72.8302C153.998 72.8491 154.047 72.8679 154.098 72.888C154.104 72.8803 154.111 72.8726 154.117 72.8648C154.124 72.8564 154.131 72.8481 154.138 72.8397L154.153 72.8225C154.167 72.8054 154.182 72.7884 154.197 72.7714C154.272 72.6836 154.347 72.596 154.416 72.5035C155.97 70.4089 159.14 69.65 161.467 70.8349C163.185 71.7094 163.9 73.2776 163.95 75.053C164.022 77.5882 164.007 80.1252 163.992 82.6832L163.992 82.6883C163.986 83.7483 163.98 84.8119 163.98 85.8804H158.841V85.1353C158.841 84.6259 158.841 84.1165 158.841 83.6071V83.5783C158.841 81.55 158.841 79.5212 158.838 77.4932C158.838 77.2017 158.818 76.9089 158.784 76.6199C158.614 75.1648 157.973 74.5253 156.66 74.4863C155.334 74.4474 154.291 75.2779 154.079 76.5646C154.015 76.9541 153.985 77.3524 153.983 77.747C153.978 79.3949 153.978 81.0434 153.978 82.6917C153.978 83.5909 153.978 84.4901 153.977 85.3891C153.977 85.4866 153.968 85.5841 153.956 85.7051C153.951 85.7635 153.945 85.8273 153.939 85.8993Z" fill="#EEEEEE"/>
<path d="M124.174 75.1824H128.79L128.791 75.1837C128.584 72.8503 127.411 71.3551 125.238 70.7193C123.333 70.1614 121.391 70.1262 119.479 70.6426C117.446 71.193 115.898 72.3465 115.617 74.5856C115.293 77.1602 116.182 78.8464 118.594 79.5928C119.169 79.7708 119.763 79.8939 120.356 80.0167C120.458 80.0378 120.56 80.0589 120.662 80.0803C120.995 80.1504 121.33 80.2122 121.664 80.274C122.212 80.375 122.759 80.4759 123.297 80.6131C123.796 80.74 124.244 81.0428 124.195 81.6598C124.145 82.2843 123.719 82.6022 123.141 82.7429C121.574 83.1236 120.732 82.6863 120.077 81.171H115.401C115.427 83.2342 116.481 84.8174 118.385 85.5813C120.551 86.4509 122.802 86.471 125.042 85.9847C128.119 85.3162 129.437 83.4842 129.21 80.3505C129.111 78.9784 128.48 77.9015 127.233 77.2972C126.491 76.9365 125.683 76.6764 124.877 76.4892C124.229 76.339 123.572 76.2284 122.914 76.1178L122.914 76.1177C122.378 76.0276 121.842 75.9375 121.31 75.8258C120.828 75.7253 120.394 75.4614 120.415 74.8583C120.436 74.2702 120.816 73.9724 121.331 73.804C122.612 73.3856 123.533 73.8292 124.174 75.1824Z" fill="#EEEEEE"/>
<path d="M67.1141 74.2262C66.877 74.2262 66.644 74.2298 66.4139 74.2334H66.4138C65.8894 74.2416 65.3807 74.2495 64.875 74.2137C64.2706 74.1709 64.145 74.4109 64.1538 74.9638C64.1754 76.2139 64.172 77.4647 64.1686 78.7156C64.1671 79.2815 64.1656 79.8474 64.1664 80.4133C64.1676 81.7 64.6903 82.2064 65.9695 82.1448C66.2173 82.1331 66.464 82.0968 66.7387 82.0564C66.8761 82.0362 67.0206 82.015 67.1757 81.9953C67.1757 82.2588 67.1762 82.5216 67.1767 82.7838C67.1784 83.7316 67.18 84.6716 67.1594 85.6115C67.1569 85.7284 66.9458 85.9068 66.8038 85.9432C65.345 86.3038 63.8673 86.4031 62.3947 86.0601C60.4483 85.6065 59.1629 84.1866 59.0599 82.1712C58.9774 80.5576 58.9715 78.9398 58.9656 77.3219V77.3217C58.9631 76.6227 58.9605 75.9238 58.9518 75.2252C58.9501 75.0909 58.951 74.9746 58.9518 74.874C58.9542 74.562 58.9554 74.4002 58.8752 74.3164C58.7888 74.2261 58.6078 74.2264 58.2319 74.2269H58.2312C58.1453 74.227 58.0491 74.2272 57.9416 74.2262C57.7818 74.2246 57.6216 74.2251 57.4498 74.2256H57.4472C57.396 74.2258 57.3438 74.226 57.2903 74.2261C57.2502 74.2262 57.2093 74.2262 57.1676 74.2262V70.7231H58.8023C58.8304 70.6833 58.8548 70.6535 58.8738 70.6302C58.9042 70.593 58.921 70.5724 58.9179 70.5547C58.7872 69.743 59.2735 69.4615 59.9445 69.2178C60.923 68.8627 61.8878 68.4689 62.8881 68.0606L62.8886 68.0604C63.3075 67.8894 63.7326 67.7159 64.1676 67.5416C64.1676 67.8086 64.1714 68.0678 64.1752 68.3214C64.1836 68.8902 64.1915 69.4309 64.155 69.9679C64.1123 70.5899 64.3385 70.7608 64.9328 70.718C65.4221 70.6833 65.9143 70.6912 66.4237 70.6994C66.6509 70.703 66.8814 70.7067 67.1166 70.7067V74.225L67.1141 74.2262Z" fill="#EEEEEE"/>
<path d="M109.565 70.7306H104.4L104.399 70.7293V85.8678C104.438 85.8759 104.475 85.8856 104.511 85.8949C104.582 85.9135 104.648 85.9307 104.714 85.9307C105.223 85.9324 105.732 85.9317 106.242 85.931C107.196 85.9298 108.151 85.9285 109.106 85.9432C109.582 85.9508 109.584 85.6882 109.584 85.3451C109.578 83.155 109.578 80.9637 109.583 78.7723C109.588 76.9855 110.368 75.9715 112.128 75.5682C112.648 75.449 113.183 75.39 113.722 75.3307L113.722 75.3306C113.972 75.3031 114.224 75.2754 114.475 75.2415V70.5283C112.242 70.4567 110.681 71.4456 109.699 73.4321L109.565 73.3416V70.7306Z" fill="#EEEEEE"/>
</g>
<defs>
<clipPath id="clip0_118_2161">
<rect width="231" height="127" fill="white"/>
</clipPath>
</defs>
</svg>
