<svg width="231" height="127" viewBox="0 0 231 127" fill="none" xmlns="http://www.w3.org/2000/svg">
<g clip-path="url(#clip0_665_5533)">
<g clip-path="url(#clip1_665_5533)">
<path d="M50.6655 90.4073C50.4316 90.087 50.1963 89.7668 49.9624 89.448C50.0111 89.1097 50.1016 88.7713 50.103 88.4316C50.1142 85.1528 50.1114 81.874 50.1114 78.5938C51.7571 80.0167 52.8751 81.7682 53.1327 83.9415C53.368 85.9255 52.9238 87.7926 51.7097 89.4299C51.4633 89.7626 51.1988 90.0815 50.9426 90.4073H50.6641H50.6655Z" fill="#9E9E9E"/>
<path d="M64.4413 52.9141C65.4535 53.7828 65.9812 54.9496 66.3599 56.1762C66.5868 56.9113 66.7511 57.6938 66.7692 58.4581C66.7887 59.2239 66.6662 60.0147 66.4727 60.761C66.0578 62.3635 65.2558 63.753 64.0487 64.9239C62.137 66.7756 60.2672 68.6719 58.3918 70.5613C57.6455 71.3145 56.9479 72.1137 56.2045 72.8711C55.2299 73.8638 54.038 74.3747 52.6485 74.1575C51.3105 73.9487 50.3345 73.1286 49.7665 71.9313C49.1831 70.7019 49.2179 69.421 49.9684 68.2515C50.3234 67.6973 50.7884 67.2059 51.2465 66.7269C52.714 65.1912 54.2051 63.6778 55.681 62.1491C56.5623 61.2371 57.4325 60.314 58.3041 59.3924C58.5853 59.0944 58.854 58.7839 59.1283 58.4776L59.287 58.3454C59.752 57.9249 60.3034 57.5824 60.5387 56.9559C60.9564 56.5396 61.3727 56.1219 61.7904 55.7056C62.3013 55.2392 62.9014 54.8535 63.1813 54.1783C63.3665 53.9931 63.5516 53.8079 63.7382 53.6227C63.9721 53.386 64.2046 53.1508 64.4385 52.9141H64.4413Z" fill="#515151"/>
<path d="M52.8856 51.6962C52.053 50.8357 51.2232 49.9753 50.3878 49.1177C50.0161 48.7362 49.6318 48.3686 49.2615 47.9871C48.117 46.8009 47.4167 45.4184 47.1633 43.7643C46.8528 41.726 47.3108 39.9063 48.4386 38.2258C48.7031 37.8304 49.0429 37.4851 49.4188 37.0312C50.5925 38.269 51.7439 39.4817 52.894 40.6943C52.8898 44.3616 52.887 48.0303 52.8828 51.6976L52.8856 51.6962Z" fill="#595959"/>
<path d="M45.8066 74.1406C46.2243 74.5569 46.642 74.9746 47.0583 75.3909C47.0096 75.7278 46.9191 76.0648 46.9177 76.4031C46.9065 79.3004 46.9163 82.1992 46.9051 85.0979C46.9051 85.4348 46.8146 85.7732 46.7659 86.1101C46.3496 85.691 45.9333 85.2719 45.5156 84.8529C45.563 84.5368 45.6507 84.2208 45.6521 83.9033C45.6632 80.9879 45.6535 78.0738 45.6646 75.1584C45.6646 74.8187 45.7551 74.4803 45.8038 74.1406H45.8066Z" fill="#999999"/>
<path d="M45.8028 74.168C45.7541 74.5077 45.6636 74.846 45.6636 75.1857C45.6524 78.1012 45.6608 81.0152 45.651 83.9307C45.651 84.2467 45.5619 84.5642 45.5146 84.8802L44.398 83.6369C44.4467 83.3905 44.5372 83.144 44.5372 82.8962C44.5469 80.1896 44.5456 77.483 44.54 74.7778C44.54 74.6093 44.4857 74.4409 44.4258 74.0942C43.9761 74.5703 43.635 74.9309 43.2925 75.2929C43.014 75.4781 42.7356 75.6633 42.4585 75.8485C42.4585 75.7566 42.4585 75.6633 42.4585 75.5714C42.9221 75.1551 43.3858 74.7388 43.8494 74.3211C44.2239 73.948 44.5985 73.5763 44.973 73.2031C45.2501 73.5247 45.5271 73.8478 45.8042 74.1694L45.8028 74.168Z" fill="#989898"/>
<path d="M50.1111 78.6152C50.1111 81.894 50.1139 85.1729 50.1028 88.4531C50.1028 88.7914 50.0123 89.1297 49.9621 89.4695C49.5918 89.0991 49.2214 88.7302 48.8511 88.3598C48.8998 87.9728 48.9875 87.5857 48.9889 87.1986C49.0014 83.9658 48.9973 80.7329 48.9987 77.5C49.369 77.8717 49.7394 78.2435 50.1097 78.6166L50.1111 78.6152Z" fill="#9C9C9C"/>
<path d="M46.7626 86.1333C46.8114 85.7963 46.9005 85.458 46.9019 85.1211C46.913 82.2237 46.9032 79.325 46.9144 76.4263C46.9144 76.0893 47.0063 75.7524 47.055 75.4141C47.4254 75.7844 47.7971 76.1548 48.1675 76.5251C48.1187 76.8634 48.0282 77.2004 48.0268 77.5387C48.0157 80.4179 48.0296 83.2986 48.0087 86.1778C48.0059 86.5259 47.8486 86.8726 47.7623 87.2192C47.4281 86.8572 47.0954 86.4952 46.7612 86.1319L46.7626 86.1333Z" fill="#9A9A9A"/>
<path d="M47.7632 87.2332C47.8495 86.8865 48.0068 86.5398 48.0096 86.1918C48.0291 83.3125 48.0166 80.4319 48.0277 77.5526C48.0277 77.2143 48.1196 76.8774 48.1683 76.5391C48.4454 76.8621 48.7225 77.1851 48.9995 77.5081C48.9995 80.741 49.0023 83.9739 48.9898 87.2067C48.9884 87.5938 48.8993 87.9808 48.852 88.3679C48.49 87.9892 48.128 87.6105 47.766 87.2332H47.7632Z" fill="#9B9B9B"/>
<path d="M43.2918 75.3081C43.6329 74.9475 43.9754 74.5855 44.4251 74.1094C44.485 74.4561 44.5393 74.6245 44.5393 74.793C44.5448 77.4996 44.5462 80.2062 44.5365 82.9114C44.5365 83.1578 44.446 83.4043 44.3973 83.6521C44.0269 83.2803 43.6579 82.9072 43.2876 82.5355C43.3349 82.289 43.4227 82.0426 43.424 81.7948C43.4352 79.8525 43.4352 77.9117 43.424 75.9695C43.424 75.7481 43.3377 75.5281 43.2918 75.3067V75.3081Z" fill="#979797"/>
<path d="M54.9828 42.9062C55.2613 43.1847 55.5397 43.4632 55.8182 43.7416C55.814 47.4089 55.8112 51.0776 55.8071 54.7448C55.5286 54.4664 55.2501 54.1893 54.9717 53.9109C54.9759 50.2436 54.9786 46.5749 54.9828 42.9076V42.9062Z" fill="#666666"/>
<path d="M56.3764 44.4467C56.6549 44.7252 56.9334 45.0036 57.2118 45.2807C57.2104 48.5261 57.2076 51.7715 57.2063 55.0169C57.0183 55.2536 56.8317 55.4903 56.6438 55.727C56.5519 55.5878 56.4586 55.4485 56.3667 55.3093C56.3709 51.688 56.3737 48.0666 56.3778 44.4453L56.3764 44.4467Z" fill="#696969"/>
<path d="M43.2914 75.3047C43.3373 75.5261 43.4236 75.746 43.4236 75.9674C43.4348 77.9097 43.4348 79.8505 43.4236 81.7927C43.4222 82.0392 43.3345 82.287 43.2872 82.5334C42.8695 82.0726 42.4518 81.6131 42.0341 81.1523C42.0355 79.909 42.0453 78.6657 42.0341 77.4223C42.0313 77.1787 41.9478 76.9364 41.9019 76.6942C42.087 76.4171 42.2722 76.1387 42.4588 75.8616C42.7372 75.6764 43.0157 75.4913 43.2928 75.3061L43.2914 75.3047Z" fill="#969696"/>
<path d="M36.6293 64.7449C36.9008 64.4623 37.1737 64.1797 37.4452 63.8984C38.1706 65.0178 38.8918 66.14 39.6214 67.258C40.3774 68.4164 41.1418 69.5692 41.9034 70.7234C41.6708 70.9545 41.4397 71.1857 41.2072 71.4182C41.1543 71.3151 41.1125 71.2051 41.0471 71.1105C39.6924 69.0986 38.3363 67.0868 36.9746 65.0791C36.8869 64.9496 36.7449 64.8563 36.6279 64.7463L36.6293 64.7449Z" fill="#C2C2C2"/>
<path d="M37.7256 63.5996L38.4176 63.0469C38.5387 63.1819 38.6779 63.3058 38.7796 63.4534C39.7416 64.8596 40.6912 66.2728 41.6547 67.6776C42.0974 68.3222 42.5652 68.9488 43.0219 69.5823C42.7908 69.8148 42.5583 70.0459 42.3271 70.2784C42.213 70.1336 42.0891 69.9944 41.986 69.8426C40.5645 67.7625 39.1457 65.6811 37.7256 63.5996Z" fill="#BFBFBF"/>
<path d="M36.6272 64.7592C36.7441 64.8692 36.8848 64.9625 36.9739 65.092C38.3355 67.0996 39.6916 69.1115 41.0464 71.1233C41.1104 71.218 41.1536 71.328 41.2065 71.431C40.974 71.7067 40.7414 71.9838 40.5089 72.2594C40.4296 72.0478 40.3878 71.8097 40.2639 71.6273C39.1751 70.0193 38.0627 68.4265 36.9767 66.8156C36.6829 66.3798 36.4518 65.8995 36.1914 65.44C36.3362 65.2131 36.4824 64.9848 36.6272 64.7578V64.7592Z" fill="#C5C5C5"/>
<path d="M50.2521 61.9729C50.021 62.2054 49.7899 62.4379 49.5588 62.6704C48.1832 60.66 46.8048 58.6537 45.4404 56.6363C45.3192 56.4566 45.2997 56.2074 45.2329 55.9916L45.9291 55.2969C46.0474 55.5893 46.1198 55.9123 46.2911 56.1698C47.4996 57.9868 48.7276 59.7926 49.9514 61.5983C50.0405 61.7306 50.1519 61.849 50.2521 61.9743V61.9729Z" fill="#A7A7A7"/>
<path d="M45.2343 55.9766C45.3011 56.1938 45.3206 56.4416 45.4418 56.6212C46.8048 58.6386 48.1846 60.6463 49.5602 62.6553C49.3263 62.8879 49.0938 63.1204 48.8599 63.3529C48.4923 62.8252 48.1219 62.2989 47.7599 61.7685C46.9051 60.5154 46.0404 59.2693 45.2092 58.0009C44.9391 57.5874 44.7609 57.1154 44.5396 56.6699C44.7721 56.4388 45.0032 56.2077 45.2357 55.9766H45.2343Z" fill="#A9A9A9"/>
<path d="M51.2279 60.8646C51.0427 61.0943 50.8589 61.324 50.6737 61.5538C50.3911 61.2252 50.0751 60.9175 49.83 60.5625C48.7315 58.9669 47.6483 57.3616 46.572 55.7521C46.4217 55.5266 46.3298 55.262 46.2114 55.0156C46.4425 54.8276 46.6723 54.6411 46.9034 54.4531C47.6692 55.6018 48.4308 56.7546 49.2021 57.9004C49.8718 58.8931 50.5526 59.8775 51.2293 60.866L51.2279 60.8646Z" fill="#A4A4A4"/>
<path d="M47.3257 54.1911C47.6501 54.0992 47.9745 54.0073 48.3003 53.9141C48.4075 54.1146 48.4966 54.3276 48.6233 54.5141C49.8123 56.2573 51.0069 57.9962 52.2001 59.7366C51.9676 60.015 51.7337 60.2935 51.5012 60.5706C51.4232 60.4063 51.3647 60.2295 51.2645 60.0805C50.0602 58.2886 48.8475 56.5023 47.6403 54.7132C47.5262 54.5448 47.4301 54.3652 47.3257 54.1897V54.1911Z" fill="#A0A0A0"/>
<path d="M35.375 66.8345C35.556 66.5073 35.737 66.1787 35.918 65.8516C35.9848 66.0228 36.0238 66.2122 36.1241 66.3611C36.7241 67.2661 37.3437 68.1586 37.9466 69.0636C38.7151 70.2164 39.4739 71.3775 40.2369 72.5345C40.1005 72.671 39.964 72.806 39.8276 72.9425C39.5951 72.7364 39.3096 72.5679 39.137 72.3201C37.8714 70.5004 36.6267 68.6654 35.3764 66.8345H35.375Z" fill="#C8C8C8"/>
<path d="M54.0015 52.9415C53.7328 52.6575 53.4655 52.3735 53.1968 52.0895C53.5699 51.9168 53.4432 51.5743 53.4446 51.2959C53.4544 47.992 53.4544 44.6867 53.4557 41.3828L54.0127 41.9383C54.0085 45.6056 54.0057 49.2743 54.0015 52.9415Z" fill="#5E5E5E"/>
<path d="M54.001 52.9485C54.0052 49.2813 54.0079 45.6126 54.0121 41.9453C54.1973 42.1305 54.3825 42.3157 54.569 42.5008C54.5649 46.1681 54.5621 49.8368 54.5579 53.504C54.3727 53.3189 54.1875 53.1337 54.001 52.9485Z" fill="#616161"/>
<path d="M53.4544 41.4135C53.453 44.7174 53.4544 48.0227 53.4432 51.3266C53.4432 51.605 53.5699 51.9475 53.1954 52.1202C53.0924 51.9879 52.9893 51.8542 52.8877 51.722C52.8919 48.0547 52.8947 44.386 52.8988 40.7188C53.084 40.9499 53.2692 41.181 53.4558 41.4135H53.4544Z" fill="#5C5C5C"/>
<path d="M56.3753 44.459C56.3711 48.0803 56.3683 51.7016 56.3641 55.323C56.1789 55.1378 55.9938 54.954 55.8086 54.7688C55.8128 51.1016 55.8156 47.4329 55.8197 43.7656C56.0049 43.9967 56.1901 44.2279 56.3753 44.459Z" fill="#676767"/>
<path d="M34.8192 70.3192C34.8192 69.8096 34.8192 69.3 34.8192 68.7891C34.9821 68.9436 35.1784 69.0759 35.3023 69.2555C36.2825 70.6798 37.2529 72.1124 38.2178 73.5479C38.357 73.7553 38.4517 73.992 38.5673 74.2148C38.3849 74.3972 38.2039 74.5796 38.0215 74.762C37.8377 74.5615 37.6275 74.3805 37.4757 74.1591C36.7517 73.0968 36.0472 72.0219 35.3274 70.9568C35.1756 70.7313 34.9877 70.5294 34.8164 70.3178L34.8192 70.3192Z" fill="#CDCDCD"/>
<path d="M57.6267 45.6797C57.8592 45.9122 58.0904 46.1433 58.3229 46.3758C58.3215 48.4643 58.3117 50.5513 58.3229 52.6397C58.3257 53.173 58.3145 53.6909 58.0402 54.1684C57.901 54.2617 57.7618 54.3536 57.6226 54.4469C57.624 51.5245 57.6253 48.6035 57.6281 45.6811L57.6267 45.6797Z" fill="#6C6C6C"/>
<path d="M52.2016 59.7508C51.0084 58.0105 49.8138 56.2715 48.6248 54.5284C48.4981 54.3418 48.409 54.1288 48.3018 53.9283C48.5816 53.8823 48.8615 53.835 49.1413 53.7891C50.3011 55.4988 51.4595 57.2085 52.6193 58.9182C52.48 59.1967 52.3408 59.4738 52.2016 59.7522V59.7508Z" fill="#9E9E9E"/>
<path d="M41.9015 76.6719C41.9474 76.9141 42.0324 77.1578 42.0338 77.4C42.0463 78.6433 42.0365 79.8867 42.0338 81.13C41.2903 80.3419 40.5482 79.5553 39.8047 78.7673C40.3115 77.879 41.2012 77.3694 41.9001 76.6719H41.9015Z" fill="#959595"/>
<path d="M42.4591 75.5786C42.4591 75.6705 42.4591 75.7638 42.4591 75.8557C42.2698 75.9754 42.0595 76.0715 41.8952 76.2191C41.5082 76.5672 41.1991 77.0517 40.7536 77.2758C40.1771 77.5654 39.8527 78.0137 39.5297 78.508C39.3445 78.3228 39.1608 78.1376 38.9756 77.9525C39.0327 77.7812 39.0466 77.5793 39.151 77.4457C39.7581 76.6716 40.3776 75.9072 41.0083 75.1526C41.9036 74.0805 42.8128 73.0196 43.7164 71.9531C43.7637 71.9991 43.8096 72.0464 43.857 72.0924C43.3794 72.7119 42.8657 73.3078 42.4354 73.9594C42.0192 74.5887 41.4219 75.1108 41.135 75.8223C41.1796 75.878 41.2241 75.9351 41.2687 75.9907C41.6655 75.8529 42.0623 75.7151 42.4577 75.5772L42.4591 75.5786Z" fill="#9A9A9A"/>
<path d="M58.7487 46.9375C58.9784 47.1658 59.2068 47.3956 59.4365 47.6239C59.4351 49.296 59.4323 50.9668 59.4309 52.6389C59.1525 52.9633 58.874 53.2863 58.5969 53.6107C58.5969 51.6504 58.5914 49.6914 58.6039 47.7311C58.6053 47.4666 58.6986 47.202 58.7501 46.9375H58.7487Z" fill="#6E6E6E"/>
<path d="M34.8147 70.3047C34.9859 70.5177 35.1739 70.7182 35.3257 70.9437C36.0455 72.0088 36.75 73.0837 37.474 74.146C37.6257 74.3674 37.836 74.5498 38.0198 74.7489C37.7845 75.0301 37.5492 75.3099 37.3125 75.5912C36.7277 74.7391 36.1513 73.8815 35.5526 73.0391C35.4426 72.8832 35.2477 72.7871 35.0931 72.6632C34.8662 71.8933 34.7506 71.1094 34.8133 70.3047H34.8147Z" fill="#CFCFCF"/>
<path d="M54.5581 53.4876C54.5623 49.8203 54.5651 46.1516 54.5692 42.4844C54.7085 42.6222 54.8463 42.7614 54.9855 42.8993C54.9814 46.5665 54.9786 50.2352 54.9744 53.9025C54.8352 53.7633 54.6973 53.6254 54.5581 53.4862V53.4876Z" fill="#636363"/>
<path d="M49.8398 53.9141C51.2071 54.0797 52.0633 54.8887 52.5938 56.0999C52.9057 56.8114 52.9502 57.5618 52.8737 58.3248C51.8629 56.8546 50.8507 55.3843 49.8398 53.9141Z" fill="#9B9B9B"/>
<path d="M47.3372 65.0203C47.198 65.1595 47.0588 65.2988 46.9196 65.438C46.7358 65.2347 46.5214 65.0537 46.3752 64.8268C45.7542 63.8591 45.1666 62.8692 44.5401 61.9058C43.9748 61.0356 43.3692 60.1932 42.7983 59.3272C42.6897 59.163 42.6591 58.9472 42.5923 58.755C42.6856 58.6617 42.7789 58.5698 42.8707 58.4766C42.9612 58.6603 43.0336 58.858 43.1464 59.0265C44.2268 60.6332 45.3073 62.2385 46.403 63.8341C46.687 64.2476 47.024 64.6263 47.3372 65.0217V65.0203Z" fill="#B0B0B0"/>
<path d="M59.4291 52.6556C59.4305 50.9835 59.4333 49.3128 59.4347 47.6406C59.7591 47.965 60.0835 48.288 60.4079 48.6124C60.4065 49.6358 60.4037 50.6591 60.4023 51.6824C60.1698 51.9609 59.9387 52.2379 59.7062 52.5164C59.6129 52.5623 59.521 52.6083 59.4277 52.6556H59.4291Z" fill="#707070"/>
<path d="M43.0218 69.5873C42.5651 68.9524 42.0973 68.3259 41.6546 67.6826C40.6897 66.2792 39.7402 64.8646 38.7795 63.4584C38.6778 63.3095 38.5386 63.1869 38.4175 63.0519C38.5581 62.8653 38.7001 62.6788 38.8407 62.4922C38.9201 62.6815 38.9716 62.8904 39.0844 63.0575C40.3528 64.9287 41.6281 66.7957 42.9132 68.6558C43.0497 68.8549 43.2641 68.9997 43.4437 69.1696C43.3031 69.3088 43.1624 69.448 43.0232 69.5873H43.0218Z" fill="#BDBDBD"/>
<path d="M37.7214 63.6328C39.1415 65.7143 40.5603 67.7957 41.9818 69.8758C42.0863 70.0276 42.2088 70.1668 42.323 70.3116C42.3202 70.3575 42.3174 70.4035 42.316 70.4494C42.1782 70.5441 42.0403 70.6388 41.9025 70.7335C41.1409 69.5779 40.3765 68.4251 39.6205 67.2681C38.8909 66.1515 38.1697 65.0293 37.4443 63.9085C37.5362 63.8166 37.6281 63.7247 37.72 63.6328H37.7214Z" fill="#C1C1C1"/>
<path d="M40.0854 61.2614C40.2261 61.1222 40.3653 60.983 40.5059 60.8438C40.5978 61.0749 40.6507 61.3297 40.7858 61.5315C41.642 62.8152 42.5067 64.0919 43.3866 65.3589C43.8962 66.0927 44.4406 66.8027 44.9696 67.5239C44.829 67.6645 44.6898 67.8052 44.5492 67.9458C43.5648 66.4922 42.5749 65.0429 41.5975 63.5852C41.0837 62.818 40.5895 62.0369 40.0868 61.2614H40.0854Z" fill="#B8B8B8"/>
<path d="M44.2763 68.1894C44.1357 68.33 43.995 68.4706 43.853 68.6099C42.7573 66.9809 41.6588 65.3533 40.5672 63.7229C40.169 63.1284 39.7833 62.5256 39.3921 61.9269C39.5313 61.7877 39.6719 61.6484 39.8112 61.5078C39.9156 61.7348 39.9922 61.9812 40.13 62.1859C41.397 64.0752 42.6737 65.9589 43.9519 67.8413C44.0396 67.9708 44.1677 68.0738 44.2763 68.1894Z" fill="#BABABA"/>
<path d="M57.6249 45.6962C57.6235 48.6186 57.6221 51.5396 57.6194 54.462C57.4801 54.6471 57.3409 54.8323 57.2017 55.0175C57.2031 51.7721 57.2058 48.5267 57.2072 45.2812C57.3465 45.4191 57.4843 45.5583 57.6235 45.6962H57.6249Z" fill="#6A6A6A"/>
<path d="M46.0591 66.404L45.6693 66.8286C45.3323 66.3942 44.9745 65.9751 44.6626 65.524C43.6825 64.1025 42.7106 62.6754 41.7555 61.2358C41.5314 60.8989 41.3866 60.5104 41.2056 60.1456C41.2975 60.0524 41.3907 59.9605 41.4826 59.8672C41.5244 59.9493 41.5578 60.037 41.6093 60.1136C42.9501 62.1046 44.2895 64.0956 45.6414 66.0782C45.7361 66.2174 45.9185 66.2968 46.0605 66.4026L46.0591 66.404Z" fill="#B4B4B4"/>
<path d="M44.5404 56.6733C44.7604 57.1188 44.94 57.5922 45.2101 58.0043C46.0413 59.2727 46.906 60.5188 47.7608 61.7718C48.1228 62.3023 48.4946 62.8286 48.8608 63.3562C48.7689 63.4941 48.6784 63.6319 48.5865 63.7697C48.4598 63.6068 48.3233 63.4509 48.2078 63.2797C46.8433 61.2622 45.4802 59.2434 44.1172 57.2232C44.2578 57.0394 44.3984 56.8557 44.5391 56.6719L44.5404 56.6733Z" fill="#ABABAB"/>
<path d="M44.9657 67.5041C44.4366 66.7829 43.8936 66.0728 43.3826 65.3391C42.5027 64.0721 41.6381 62.7954 40.7818 61.5117C40.6468 61.3098 40.5938 61.0537 40.502 60.8239L40.7776 60.5469C40.8305 60.6485 40.8737 60.7571 40.9377 60.8518C42.259 62.8121 43.5803 64.7725 44.9141 66.723C45.02 66.8776 45.2232 66.9667 45.382 67.0864C45.2427 67.2257 45.1035 67.3649 44.9643 67.5041H44.9657Z" fill="#B6B6B6"/>
<path d="M47.3332 65.0019C47.0199 64.6065 46.683 64.2292 46.399 63.8143C45.3032 62.2187 44.2228 60.6134 43.1424 59.0067C43.0282 58.8382 42.9572 58.6405 42.8667 58.4567C43.0059 58.3175 43.1452 58.1783 43.2844 58.0391C43.3874 58.2897 43.4529 58.5653 43.6004 58.7867C44.7895 60.5674 45.991 62.3398 47.2023 64.1052C47.3346 64.2988 47.5657 64.4255 47.7509 64.5828C47.6117 64.722 47.4724 64.8626 47.3332 65.0019Z" fill="#AFAFAF"/>
<path d="M45.3875 67.1043C45.2288 66.9845 45.0255 66.8968 44.9197 66.7409C43.5859 64.7889 42.2646 62.8286 40.9433 60.8696C40.8793 60.775 40.8361 60.6664 40.7832 60.5647C40.9224 60.4255 41.0617 60.2863 41.2009 60.1484C41.3819 60.5132 41.5281 60.9017 41.7509 61.2386C42.706 62.6768 43.6778 64.1053 44.658 65.5268C44.9698 65.9779 45.3277 66.397 45.6646 66.8314C45.5713 66.9233 45.4794 67.0138 45.3861 67.1057L45.3875 67.1043Z" fill="#B6B6B6"/>
<path d="M41.8964 59.4503C41.9897 59.357 42.083 59.2652 42.1749 59.1719C42.2041 59.2582 42.2152 59.357 42.264 59.4308C43.2038 60.8259 44.138 62.2252 45.0931 63.6077C45.5888 64.3247 46.1234 65.0139 46.64 65.7156C46.4994 65.8562 46.3573 65.9968 46.2167 66.1375C44.9052 64.1966 43.5881 62.2586 42.2876 60.3108C42.115 60.0518 42.0245 59.7385 41.895 59.4503H41.8964Z" fill="#B2B2B2"/>
<path d="M40.2344 72.5225C39.4715 71.3655 38.7127 70.2044 37.9441 69.0516C37.3412 68.148 36.7217 67.2555 36.1216 66.3491C36.0227 66.2002 35.9838 66.0108 35.9155 65.8396C36.0074 65.7003 36.1007 65.5611 36.1926 65.4219C36.453 65.8813 36.6827 66.3603 36.9779 66.7974C38.0638 68.4069 39.1763 70.0011 40.2651 71.6092C40.389 71.7916 40.4308 72.0297 40.5101 72.2413C40.4182 72.336 40.3249 72.4292 40.233 72.5239L40.2344 72.5225Z" fill="#C6C6C6"/>
<path d="M43.4433 69.2045C43.2651 69.0346 43.0506 68.8898 42.9128 68.6907C41.6277 66.8306 40.3524 64.9636 39.084 63.0923C38.9712 62.9253 38.9197 62.7164 38.8403 62.5271C38.9322 62.4352 39.0241 62.3419 39.1174 62.25C39.9096 63.4139 40.7102 64.5737 41.4927 65.7446C42.1986 66.8 42.885 67.8693 43.5797 68.933C43.5352 69.0235 43.4892 69.114 43.4447 69.2058L43.4433 69.2045Z" fill="#BCBCBC"/>
<path d="M46.2071 54.9936C46.3254 55.24 46.4173 55.5059 46.5677 55.7301C47.6453 57.3396 48.7272 58.9463 49.8257 60.5404C50.0707 60.8955 50.3868 61.2032 50.6694 61.5317C50.5302 61.6696 50.3896 61.8088 50.2503 61.9466C50.1501 61.8213 50.0387 61.703 49.9496 61.5707C48.7258 59.7635 47.4978 57.9591 46.2892 56.1422C46.118 55.8846 46.0456 55.5616 45.9272 55.2693C46.0191 55.1774 46.1124 55.0855 46.2043 54.9922L46.2071 54.9936Z" fill="#A5A5A5"/>
<path d="M44.2737 68.2229C44.1651 68.1073 44.037 68.0043 43.9493 67.8748C42.6712 65.9924 41.3944 64.1101 40.1274 62.2193C39.9896 62.0147 39.913 61.7682 39.8086 61.5413C39.9005 61.4494 39.9924 61.3575 40.0843 61.2656C40.5869 62.0411 41.0798 62.8222 41.5949 63.5893C42.5723 65.0471 43.5622 66.4978 44.5466 67.95C44.4561 68.0405 44.3642 68.1324 44.2737 68.2229Z" fill="#BABABA"/>
<path d="M41.8956 59.4453C42.0251 59.7335 42.1156 60.0468 42.2883 60.3057C43.5887 62.2535 44.9058 64.1916 46.2173 66.1324C46.163 66.2216 46.1087 66.3093 46.0544 66.3984C45.9124 66.2912 45.73 66.2132 45.6354 66.074C44.2834 64.0914 42.944 62.099 41.6033 60.1094C41.5517 60.0329 41.5183 59.9451 41.4766 59.863C41.6158 59.7238 41.755 59.5845 41.8943 59.4453H41.8956Z" fill="#B4B4B4"/>
<path d="M44.1204 57.2578C45.4835 59.2766 46.8451 61.2968 48.211 63.3142C48.3265 63.4841 48.463 63.6414 48.5897 63.8043C48.4978 63.8962 48.4045 63.9895 48.3126 64.0814C48.1428 63.8976 47.9478 63.7305 47.8058 63.5273C46.5597 61.7243 45.322 59.9157 44.0898 58.1015C43.977 57.9345 43.9255 57.7256 43.8447 57.5363C43.9366 57.4444 44.0285 57.3511 44.1204 57.2592V57.2578Z" fill="#ACACAC"/>
<path d="M47.7546 64.6177C47.5694 64.4603 47.3397 64.3336 47.206 64.1401C45.9933 62.3747 44.7932 60.6023 43.6041 58.8216C43.4566 58.6002 43.3925 58.3246 43.2881 58.0739C43.38 57.982 43.4733 57.8888 43.5652 57.7969C43.6431 57.9612 43.703 58.1394 43.8046 58.2884C45.0647 60.1638 46.3289 62.0364 47.6014 63.9048C47.7142 64.0705 47.8868 64.1972 48.033 64.342C47.9398 64.4339 47.8479 64.5258 47.7546 64.6177Z" fill="#AEAEAE"/>
<path d="M47.3289 54.2045C47.4333 54.3786 47.5294 54.5596 47.6435 54.728C48.8507 56.5171 50.0634 58.3048 51.2677 60.0953C51.3679 60.2442 51.4264 60.4211 51.5044 60.5854C51.4125 60.6772 51.3206 60.7691 51.2287 60.861C50.552 59.8725 49.8712 58.8882 49.2015 57.8955C48.4302 56.751 47.6686 55.5982 46.9028 54.4482C47.0448 54.366 47.1869 54.2853 47.3275 54.2031L47.3289 54.2045Z" fill="#A2A2A2"/>
<path d="M42.4604 75.5474C42.0636 75.6852 41.6668 75.8231 41.2714 75.9609C41.2268 75.9052 41.1822 75.8481 41.1377 75.7924C41.4245 75.081 42.0218 74.5603 42.4381 73.9296C42.8683 73.278 43.3821 72.6821 43.8596 72.0625C43.9543 72.1572 44.0476 72.2518 44.1423 72.3465C43.2651 73.0287 43.034 73.4743 43.2818 74.1161C43.4447 73.9658 43.584 73.8237 43.7371 73.697C44.0685 73.4228 44.3469 73.0552 44.8356 73.0427C44.8816 73.0886 44.9289 73.1332 44.9749 73.1791C44.6003 73.5522 44.2258 73.924 43.8513 74.2971C43.2261 74.5352 42.6734 74.8526 42.4604 75.5474Z" fill="#9C9C9C"/>
<path d="M35.3751 66.8295C36.6254 68.6604 37.8701 70.4954 39.1357 72.3151C39.3084 72.5629 39.5938 72.7328 39.8263 72.9375C39.7275 73.0697 39.6286 73.202 39.5312 73.3343C39.442 73.39 39.3515 73.4456 39.2624 73.5027C39.2221 73.3955 39.2012 73.2758 39.1385 73.1825C37.937 71.399 36.734 69.6155 35.5199 67.8403C35.4253 67.7011 35.2401 67.6245 35.0967 67.5187C35.19 67.289 35.2819 67.0592 35.3751 66.8281V66.8295Z" fill="#C9C9C9"/>
<path d="M46.6399 65.7335C46.1234 65.0318 45.5873 64.3426 45.0931 63.6255C44.1366 62.2416 43.2023 60.8438 42.2639 59.4487C42.2152 59.3749 42.2027 59.2761 42.1748 59.1897C42.314 59.0505 42.4519 58.9127 42.5911 58.7734C42.6579 58.9656 42.6886 59.1814 42.7972 59.3457C43.368 60.2117 43.9737 61.054 44.5389 61.9242C45.1655 62.889 45.7516 63.8775 46.374 64.8452C46.5202 65.0721 46.7346 65.2545 46.9184 65.4564C46.8265 65.5483 46.7332 65.6402 46.6413 65.7335H46.6399Z" fill="#B2B2B2"/>
<path d="M62.0785 50.4076C62.1732 50.5023 62.2693 50.5984 62.364 50.6931C61.8808 51.3279 61.3866 51.9545 60.9201 52.6005C60.7015 52.9026 60.7169 53.195 61.1638 53.3997C61.5077 53.1142 61.8516 52.8177 62.2052 52.5337C62.5756 52.2371 62.9571 51.9531 63.333 51.6635H63.3288C63.1966 51.864 63.081 52.0798 62.9292 52.2649C62.7023 52.5406 62.4503 52.7954 62.2094 53.0599C61.6344 53.4721 61.051 53.873 60.4899 54.3005C60.2491 54.4829 60.0346 54.6722 59.7061 54.597V53.7533C60.0931 53.1908 60.4871 52.6339 60.8617 52.0631C60.9313 51.9573 60.9271 51.8027 60.9577 51.6704L62.0771 50.4062L62.0785 50.4076Z" fill="#7D7D7D"/>
<path d="M35.0915 67.5078C35.2349 67.6136 35.42 67.6902 35.5147 67.8294C36.7288 69.6046 37.9317 71.3867 39.1333 73.1716C39.1959 73.2649 39.2168 73.3846 39.2572 73.4918C39.1639 73.5837 39.072 73.677 38.9788 73.7689C37.8566 72.1093 36.7399 70.4441 35.6024 68.7957C35.4409 68.5618 35.1722 68.4003 34.9536 68.2067C34.9996 67.9742 35.0455 67.7417 35.0915 67.5092V67.5078Z" fill="#CBCBCB"/>
<path d="M34.9575 68.2344C35.1761 68.4293 35.4448 68.5894 35.6063 68.8233C36.7438 70.4732 37.8605 72.1369 38.9827 73.7965C38.8434 73.9358 38.7042 74.0736 38.565 74.2128C38.4494 73.9901 38.3547 73.752 38.2155 73.5459C37.2506 72.1105 36.2802 70.6778 35.3 69.2535C35.1761 69.0725 34.9798 68.9417 34.8169 68.7871C34.8642 68.6033 34.9116 68.4182 34.9575 68.2344Z" fill="#CCCCCC"/>
<path d="M63.3339 51.6892C62.958 51.9788 62.5765 52.2628 62.2062 52.5593C61.8525 52.842 61.5072 53.1385 61.1647 53.4253C60.7178 53.2207 60.7025 52.9283 60.9211 52.6262C61.3875 51.9802 61.8818 51.3536 62.3649 50.7188C62.6879 51.0432 63.0109 51.3662 63.3339 51.6906V51.6892Z" fill="#808080"/>
<path d="M43.5761 68.8975C42.8813 67.8338 42.1949 66.7659 41.489 65.7092C40.7066 64.5383 39.906 63.3785 39.1138 62.2146C39.2057 62.1227 39.2989 62.0294 39.3908 61.9375C39.7821 62.5362 40.1677 63.139 40.5659 63.7335C41.6589 65.3639 42.756 66.9915 43.8518 68.6205C43.7599 68.7124 43.6666 68.8042 43.5747 68.8975H43.5761Z" fill="#BCBCBC"/>
<path d="M48.0343 64.3144C47.8895 64.1696 47.7169 64.0443 47.6027 63.8772C46.3315 62.0088 45.0673 60.1361 43.8059 58.2607C43.7056 58.1104 43.6458 57.9335 43.5664 57.7693C43.6583 57.6774 43.7516 57.5841 43.8435 57.4922C43.9242 57.6815 43.9743 57.8904 44.0885 58.0575C45.3207 59.8702 46.5585 61.6788 47.8046 63.4832C47.9452 63.6878 48.1401 63.8535 48.3114 64.0373C48.2195 64.1292 48.1262 64.2211 48.0343 64.3144Z" fill="#ACACAC"/>
<path d="M49.8359 53.9283C50.8467 55.3985 51.8589 56.8688 52.8697 58.339C52.7862 58.5326 52.7026 58.7247 52.6191 58.9182C51.4593 57.2085 50.3009 55.4988 49.1411 53.7891C49.3722 53.8364 49.6034 53.8823 49.8345 53.9297L49.8359 53.9283Z" fill="#9C9C9C"/>
<path d="M43.7136 71.9512C42.81 73.0177 41.9008 74.0786 41.0056 75.1507C40.3748 75.9053 39.7553 76.6696 39.1482 77.4437C39.0438 77.5774 39.0285 77.7793 38.9728 77.9505C38.8795 77.8573 38.7876 77.7654 38.6943 77.6721C38.8252 77.4382 38.9366 77.189 39.0925 76.9745C39.5074 76.4079 39.9418 75.8565 40.3679 75.2982C40.9248 74.6508 41.4803 74.002 42.0372 73.3546C42.2572 73.1569 42.4856 72.9662 42.693 72.7573C42.9965 72.4524 43.2847 72.1336 43.5799 71.8203C43.6245 71.8649 43.669 71.9094 43.7136 71.9526V71.9512Z" fill="#979797"/>
<path d="M59.7081 52.5011C59.9406 52.2226 60.1717 51.9456 60.4042 51.6671C60.5615 51.4792 60.7119 51.2828 60.879 51.1032C61.1839 50.7747 61.4972 50.4558 61.8077 50.1328C61.855 50.1788 61.9009 50.2261 61.9483 50.272C61.5208 50.6688 61.0683 51.0462 60.9611 51.6671C60.7829 51.8411 60.5769 51.9957 60.4293 52.1934C59.8083 53.0288 59.2055 53.8781 58.5956 54.7218C57.99 55.1868 57.628 55.8008 57.4776 56.5429C57.3843 56.4496 57.291 56.3563 57.1978 56.263C57.376 55.5961 57.8605 55.1186 58.2462 54.5798C58.739 53.8906 59.2208 53.1931 59.7067 52.4997L59.7081 52.5011Z" fill="#767676"/>
<path d="M58.7482 46.9545C58.6966 47.219 58.6034 47.4836 58.602 47.7481C58.5894 49.7084 58.595 51.6674 58.595 53.6277C58.4558 53.8129 58.3165 53.9981 58.1773 54.1832C58.1314 54.1832 58.084 54.1832 58.0381 54.1832C58.3124 53.7071 58.3235 53.1878 58.3207 52.6545C58.311 50.5661 58.3207 48.479 58.3207 46.3906C58.4627 46.5786 58.6048 46.7665 58.7468 46.9545H58.7482Z" fill="#6D6D6D"/>
<path d="M61.8048 50.1607C61.4943 50.4837 61.1797 50.8025 60.8761 51.1311C60.7091 51.3107 60.5587 51.5056 60.4014 51.695C60.4028 50.6717 60.4055 49.6483 60.4069 48.625C60.8734 49.1374 61.3384 49.6497 61.8048 50.1621V50.1607Z" fill="#727272"/>
<path d="M35.0967 72.6562C35.2526 72.7802 35.4461 72.8762 35.5561 73.0322C36.1534 73.8745 36.7312 74.7321 37.316 75.5842C37.2241 75.6733 37.1322 75.761 37.0403 75.8501C36.2203 75.2278 35.7636 74.3548 35.3751 73.4373C35.2679 73.1839 35.1886 72.9166 35.0967 72.6562Z" fill="#D1D1D1"/>
<path d="M57.4805 56.5711C57.6308 55.8276 57.9928 55.215 58.5985 54.75C58.4272 55.3194 57.9552 55.7775 57.9302 56.521C58.2003 56.4569 58.4161 56.4361 58.6054 56.3539C58.9368 56.2091 59.2501 56.0267 59.5717 55.861C59.5258 55.9543 59.4784 56.0462 59.4325 56.1395C59.0134 56.514 58.5929 56.8899 58.1738 57.2645C57.9427 57.0333 57.7116 56.8036 57.4805 56.5725V56.5711Z" fill="#787878"/>
<path d="M39.5322 73.3242C39.6311 73.192 39.7299 73.0597 39.8274 72.9274C39.9638 72.791 40.1003 72.6559 40.2367 72.5195C40.3286 72.4248 40.4219 72.3315 40.5138 72.2369C40.7463 71.9612 40.9788 71.6841 41.2113 71.4085C41.4439 71.1773 41.675 70.9462 41.9075 70.7137C42.0453 70.619 42.1832 70.5244 42.321 70.4297C42.3697 70.4701 42.4185 70.5104 42.4686 70.5522C41.817 71.2971 41.1654 72.042 40.5138 72.7868C40.5138 72.8328 40.5138 72.8787 40.5138 72.9247C40.4205 73.0639 40.3286 73.2017 40.2353 73.341C40.0042 73.4802 39.7717 73.6194 39.5406 73.7572C39.5392 73.6124 39.5364 73.469 39.535 73.3242H39.5322Z" fill="#6F6F6F"/>
<path d="M58.1708 57.2597C58.5898 56.8852 59.0103 56.5093 59.4294 56.1348C59.6536 55.9802 59.8972 55.8493 60.0963 55.6683C60.6268 55.1866 61.1364 54.684 61.6543 54.1897C61.8854 54.0505 62.1179 53.9113 62.349 53.7734C62.3031 53.8667 62.2558 53.9586 62.2098 54.0519C61.7629 54.4417 61.3048 54.819 60.8718 55.2242C60.0559 55.9872 59.254 56.7655 58.4464 57.5382C58.3531 57.4463 58.2613 57.353 58.168 57.2611L58.1708 57.2597Z" fill="#757575"/>
<path d="M39.5269 73.3516C39.5283 73.4964 39.5311 73.6398 39.5325 73.7846C39.1148 74.2482 38.6985 74.7104 38.2808 75.1741C38.1415 75.3592 38.0023 75.5444 37.8631 75.7296C37.7225 75.9189 37.5818 76.1083 37.4412 76.299C37.3062 76.1556 37.1697 76.0122 37.0347 75.8688C37.1266 75.7797 37.2185 75.692 37.3103 75.6029C37.5456 75.3216 37.7809 75.0418 38.0176 74.7606C38.2 74.5782 38.381 74.3958 38.5634 74.2134C38.7026 74.0742 38.8419 73.9363 38.9811 73.7971C39.0744 73.7052 39.1663 73.6119 39.2596 73.52C39.3487 73.4643 39.4392 73.4086 39.5283 73.3516H39.5269Z" fill="#6C6C6C"/>
<path d="M39.5288 78.5039C39.8504 78.0096 40.1762 77.5613 40.7526 77.2717C41.1968 77.0475 41.5059 76.563 41.8943 76.215C42.0586 76.0674 42.2689 75.9713 42.4582 75.8516C42.273 76.1286 42.0879 76.4071 41.9013 76.6841C41.2024 77.3817 40.3141 77.8913 39.8059 78.7795C39.714 78.6876 39.6207 78.5958 39.5288 78.5025V78.5039Z" fill="#989898"/>
<path d="M44.8318 73.0711C44.3431 73.0837 44.0647 73.4512 43.7333 73.7255C43.5802 73.8522 43.4409 73.9928 43.278 74.1446C43.0302 73.5028 43.2613 73.0586 44.1385 72.375C44.3696 72.6075 44.6007 72.84 44.8318 73.0711Z" fill="#9D9D9D"/>
<path d="M58.1757 54.1588C58.3149 53.9736 58.4542 53.7884 58.5934 53.6032C58.8719 53.2788 59.1503 52.9558 59.4274 52.6314C59.5207 52.5855 59.6126 52.5395 59.7058 52.4922C59.2199 53.1855 58.7382 53.8831 58.2453 54.5723C57.8597 55.1111 57.3751 55.5886 57.1969 56.2555C57.1036 56.1636 57.0117 56.0717 56.9185 55.9785C57.3375 55.3714 57.7566 54.7644 58.1757 54.1574V54.1588Z" fill="#727272"/>
<path d="M43.0208 71.0938C43.0681 71.1397 43.1141 71.187 43.1614 71.233C42.2313 72.3023 41.3013 73.3701 40.3712 74.4394C40.2779 74.4853 40.1861 74.5313 40.0928 74.5786C40.0928 74.4867 40.0928 74.3935 40.0928 74.3016C40.0928 74.2556 40.0928 74.2097 40.0928 74.1623C40.2779 73.9772 40.4631 73.792 40.6483 73.6068C40.9268 73.3298 41.2052 73.0513 41.4837 72.7742C41.996 72.2145 42.5084 71.6548 43.0208 71.0951V71.0938Z" fill="#898989"/>
<path d="M40.3686 74.4486C41.2986 73.3793 42.2287 72.3115 43.1587 71.2422L43.298 71.5193C42.8775 72.033 42.457 72.5468 42.0366 73.0605C41.8124 73.2805 41.5854 73.4977 41.3627 73.7205C41.0285 74.0546 40.6986 74.3915 40.3672 74.7271C40.3672 74.6352 40.3672 74.5419 40.3672 74.45L40.3686 74.4486Z" fill="#8F8F8F"/>
<path d="M58.4482 57.5019C59.2558 56.7292 60.0577 55.9509 60.8736 55.1879C61.3066 54.7828 61.7647 54.4055 62.2116 54.0156C62.2116 54.1075 62.2116 54.2008 62.2116 54.2927C61.8872 54.6171 61.5628 54.9401 61.2384 55.2645C61.1145 55.3216 60.9627 55.3522 60.8708 55.4413C60.2234 56.0706 59.5774 56.7027 58.955 57.3571C58.8256 57.4922 58.8019 57.7275 58.7309 57.9168C58.6376 57.7776 58.5429 57.6383 58.4496 57.4991L58.4482 57.5019Z" fill="#717171"/>
<path d="M63.7413 53.6172C63.5561 53.8023 63.3709 53.9875 63.1844 54.1727C62.7207 54.6349 62.2571 55.0985 61.7921 55.5608C61.7461 55.5608 61.6988 55.5608 61.6528 55.5608V55.2837C61.9313 54.9593 62.2098 54.6349 62.4882 54.3119L62.6274 54.0348C63.3069 53.7494 63.6995 53.1521 64.1631 52.6328C64.2091 52.6788 64.2564 52.7261 64.3024 52.772C64.1144 53.0547 63.9265 53.3359 63.7399 53.6185L63.7413 53.6172Z" fill="#646464"/>
<path d="M62.3515 53.7793C62.1204 53.9185 61.8879 54.0577 61.6567 54.1955V53.7793C61.8419 53.5941 62.0271 53.4089 62.2137 53.2237C62.7358 52.8478 63.3414 52.5471 63.4695 51.8203C63.5628 51.9136 63.6575 52.0055 63.7508 52.0988C63.5405 52.3633 63.3317 52.6278 63.1214 52.891C62.9585 53.0943 62.7942 53.2975 62.6313 53.5008C62.5381 53.5927 62.4462 53.686 62.3529 53.7779L62.3515 53.7793Z" fill="#777777"/>
<path d="M40.3707 74.4453C40.3707 74.5372 40.3707 74.6305 40.3707 74.7224C40.0004 75.1387 39.6286 75.555 39.2583 75.9726C38.8851 76.3472 38.5134 76.7203 38.1403 77.0948C38.0567 76.9974 37.9732 76.9013 37.8896 76.8038C38.0303 76.6966 38.1876 76.6061 38.3087 76.4808C38.9088 75.8543 39.4991 75.218 40.0923 74.5845C40.1856 74.5386 40.2774 74.4927 40.3707 74.4453Z" fill="#8B8B8B"/>
<path d="M61.6537 55.5781C61.6997 55.5781 61.747 55.5781 61.7929 55.5781V55.7174C61.3766 56.1336 60.9589 56.5513 60.5413 56.9676C60.0748 57.3867 59.5235 57.7292 59.2896 58.3571L59.1309 58.4894C59.1406 58.4504 59.1448 58.41 59.1434 58.3697C59.213 58.1831 59.2339 57.9478 59.362 57.8183C60.111 57.0581 60.8865 56.323 61.6523 55.5781H61.6537Z" fill="#616161"/>
<path d="M61.6535 55.5753C60.8878 56.3188 60.1123 57.0553 59.3632 57.8155C59.2351 57.945 59.2142 58.1803 59.1446 58.3669L59.0054 58.2276C59.1418 57.9728 59.2351 57.6791 59.4217 57.4716C60.0064 56.8228 60.6288 56.2046 61.2358 55.5753C61.2358 55.5294 61.2358 55.4834 61.2358 55.4361C61.3291 55.3902 61.421 55.3428 61.5143 55.2969C61.5602 55.2969 61.6076 55.2969 61.6535 55.2969V55.5739V55.5753Z" fill="#666666"/>
<path d="M40.3696 75.3047C39.9436 75.863 39.5078 76.4143 39.0943 76.981C38.9369 77.1954 38.8269 77.4446 38.6961 77.6785C38.554 77.5365 38.412 77.3945 38.27 77.2539C38.9049 77.0492 39.0929 76.3962 39.5356 75.9994C39.8141 75.7683 40.0925 75.5372 40.3696 75.3047Z" fill="#949494"/>
<path d="M40.0928 74.5988C39.4996 75.2323 38.9093 75.8685 38.3092 76.4951C38.1881 76.6218 38.0308 76.7109 37.8902 76.8181C37.8762 76.7791 37.8665 76.7373 37.8623 76.6955C37.8637 76.644 37.8651 76.5925 37.8665 76.5424C38.2368 76.1261 38.6086 75.7098 38.9789 75.2921C39.3493 74.9677 39.721 74.6447 40.0914 74.3203C40.0914 74.4122 40.0914 74.5055 40.0914 74.5974L40.0928 74.5988Z" fill="#868686"/>
<path d="M61.2399 55.4361C61.2399 55.482 61.2399 55.528 61.2399 55.5753C61.1174 55.631 60.9684 55.6603 60.8765 55.748C60.2708 56.3341 59.6666 56.9231 59.0888 57.5357C58.9621 57.6693 58.9412 57.9018 58.8702 58.0884C58.8242 58.0425 58.7783 57.9951 58.731 57.9492C58.8034 57.7598 58.827 57.5245 58.9551 57.3895C59.5761 56.7351 60.2221 56.103 60.8709 55.4737C60.9642 55.3832 61.1146 55.354 61.2385 55.2969C61.2385 55.3428 61.2385 55.3902 61.2385 55.4361H61.2399Z" fill="#6E6E6E"/>
<path d="M62.3525 53.7848C62.4458 53.6929 62.5377 53.5997 62.631 53.5078C63.1782 53.2126 63.6613 52.8562 63.8868 52.2422C63.9328 52.2881 63.9801 52.3355 64.0261 52.3814C63.891 52.5889 63.7755 52.8144 63.6154 53.001C63.3007 53.3672 62.9596 53.7097 62.6296 54.0633L62.4904 54.3404C62.4444 54.3404 62.3971 54.3404 62.3511 54.3404C62.3052 54.3404 62.2579 54.3404 62.2119 54.3404C62.2119 54.2485 62.2119 54.1552 62.2119 54.0633C62.2579 53.97 62.3052 53.8781 62.3511 53.7848H62.3525Z" fill="#6E6E6E"/>
<path d="M58.8691 58.0912C58.9388 57.9046 58.961 57.6721 59.0877 57.5385C59.6669 56.9259 60.2698 56.3369 60.8754 55.7508C60.9673 55.6631 61.1163 55.6338 61.2388 55.5781C60.6318 56.2074 60.0094 56.8242 59.4247 57.4744C59.2367 57.6833 59.1434 57.977 59.0084 58.2304C58.9624 58.1845 58.9165 58.1385 58.8705 58.0912H58.8691Z" fill="#6A6A6A"/>
<path d="M40.5103 72.9456C40.5103 72.8996 40.5103 72.8537 40.5103 72.8077C40.7149 72.6727 40.9544 72.571 41.1173 72.397C41.6283 71.8498 42.11 71.2748 42.6029 70.7109C42.6502 70.7583 42.6962 70.8042 42.7435 70.8516C42.4623 71.2261 42.1824 71.6006 41.9012 71.9751C41.67 72.2062 41.4375 72.4388 41.2064 72.6699C41.0672 72.8091 40.9279 72.9483 40.7887 73.0862C40.6954 73.0402 40.6021 72.9929 40.5103 72.9469V72.9456Z" fill="#7A7A7A"/>
<path d="M37.8647 76.5365C37.8633 76.5881 37.862 76.6396 37.8606 76.6897C37.7213 76.5505 37.5821 76.4112 37.4429 76.272L37.8647 75.7026C38.3994 75.7332 38.5846 75.2055 38.9772 75.0078C38.9772 75.1011 38.9772 75.193 38.9772 75.2863C38.6068 75.7026 38.2351 76.1189 37.8647 76.5365Z" fill="#7C7C7C"/>
<path d="M42.6043 70.6769C42.1115 71.2408 41.6297 71.8158 41.1188 72.363C40.9559 72.537 40.7164 72.6386 40.5117 72.7737C41.1633 72.0288 41.8149 71.2839 42.4665 70.5391C42.5125 70.585 42.5584 70.631 42.6043 70.6769Z" fill="#757575"/>
<path d="M42.0386 73.0647C42.459 72.5509 42.8795 72.0372 43.3 71.5234C43.3933 71.6181 43.488 71.7128 43.5812 71.8075C43.2861 72.1207 42.9979 72.4396 42.6943 72.7445C42.4855 72.9533 42.2572 73.1427 42.0386 73.3418C42.0386 73.2499 42.0386 73.1566 42.0386 73.0647Z" fill="#949494"/>
<path d="M41.2046 72.6557C41.4357 72.4245 41.6682 72.192 41.8993 71.9609C42.2265 71.6323 42.5523 71.3037 42.8795 70.9766C42.9255 71.0225 42.9728 71.0698 43.0188 71.1158C42.5064 71.6755 41.994 72.2352 41.4817 72.7949C41.3898 72.7489 41.2965 72.703 41.2046 72.6557Z" fill="#838383"/>
<path d="M39.5327 75.9908C39.0886 76.3876 38.902 77.042 38.2671 77.2452L38.1362 77.113C38.5094 76.7384 38.8811 76.3653 39.2542 75.9908C39.3475 75.9448 39.4394 75.8989 39.5327 75.8516C39.5327 75.8975 39.5327 75.9435 39.5327 75.9908Z" fill="#909090"/>
<path d="M58.1758 54.2031C57.7568 54.8102 57.3377 55.4172 56.9186 56.0242C56.8253 55.9323 56.7334 55.8391 56.6401 55.7472C56.8281 55.5105 57.0147 55.2738 57.2026 55.0371C57.3419 54.8519 57.4811 54.6668 57.6203 54.4816C57.7595 54.3883 57.8988 54.2964 58.038 54.2031C58.084 54.2031 58.1313 54.2031 58.1772 54.2031H58.1758Z" fill="#6E6E6E"/>
<path d="M63.4653 51.7977C63.3372 52.5245 62.7316 52.8252 62.2095 53.2011C62.2095 53.1552 62.2095 53.1079 62.2095 53.0619C62.4503 52.7988 62.7023 52.5426 62.9293 52.2669C63.0811 52.0817 63.1966 51.8659 63.3289 51.6641C63.3748 51.7086 63.4208 51.7532 63.4667 51.7963L63.4653 51.7977Z" fill="#7A7A7A"/>
<path d="M60.9614 51.6919C61.0686 51.071 61.5225 50.6923 61.9486 50.2969L62.0808 50.4277L60.9614 51.6919Z" fill="#7A7A7A"/>
<path d="M63.8848 52.1911C63.6592 52.8037 63.1747 53.1616 62.6289 53.4567C62.7918 53.2534 62.9561 53.0502 63.119 52.8469C63.3292 52.5838 63.5381 52.3192 63.7483 52.0547C63.7943 52.1006 63.8388 52.1466 63.8848 52.1925V52.1911Z" fill="#727272"/>
<path d="M62.6289 54.0413C62.9589 53.689 63.2986 53.3451 63.6147 52.9789C63.7748 52.7924 63.8903 52.5668 64.0254 52.3594C64.0727 52.4527 64.1187 52.5445 64.166 52.6378C63.7024 53.1585 63.3097 53.7558 62.6303 54.0399L62.6289 54.0413Z" fill="#6A6A6A"/>
<path d="M42.8801 70.9908C42.5529 71.3194 42.2271 71.6479 41.8999 71.9751C42.1811 71.6006 42.461 71.2261 42.7422 70.8516C42.7882 70.8975 42.8341 70.9435 42.8801 70.9894V70.9908Z" fill="#808080"/>
<path d="M63.7412 53.6356C63.9292 53.3529 64.1171 53.0717 64.3037 52.7891C64.3496 52.835 64.3956 52.881 64.4415 52.9269C64.2076 53.1636 63.9751 53.3989 63.7412 53.6356Z" fill="#5F5F5F"/>
<path d="M61.793 55.7305V55.5912C62.2566 55.129 62.7202 54.6654 63.1839 54.2031C62.9026 54.8784 62.3039 55.264 61.793 55.7305Z" fill="#5D5D5D"/>
<path d="M59.29 58.3426C59.5239 57.7147 60.0753 57.3722 60.5417 56.9531C60.3064 57.5797 59.7551 57.9222 59.29 58.3426Z" fill="#5D5D5D"/>
<path d="M80.8991 47.7498C80.8991 49.3579 80.8991 50.7641 80.8991 52.1717C80.8991 55.7582 80.8851 59.3447 80.9116 62.9312C80.9158 63.5814 80.7389 63.864 80.0539 63.8181C79.362 63.7708 78.663 63.793 77.9683 63.8097C77.4907 63.8209 77.3139 63.619 77.3195 63.1456C77.3362 61.642 77.325 60.1369 77.325 58.6332C77.325 53.5653 77.325 48.4974 77.325 43.4295C77.325 42.4883 77.3292 42.4869 78.2913 42.4855C79.0793 42.4841 79.8702 42.5245 80.6554 42.473C81.268 42.4326 81.6217 42.6805 81.9628 43.165C83.9607 46.0052 85.9879 48.8246 88.0095 51.6482C88.4676 52.2886 88.476 52.2816 88.9368 51.6328C90.9487 48.8023 92.9703 45.9788 94.9669 43.1371C95.2913 42.6749 95.6407 42.4452 96.2241 42.473C97.1486 42.5176 98.0787 42.4995 99.0045 42.48C99.4556 42.4702 99.6394 42.6624 99.6325 43.094C99.6255 43.4866 99.6352 43.8806 99.6352 44.2746C99.6352 50.4299 99.6352 56.5852 99.6352 62.7405C99.6352 63.4496 99.2723 63.8046 98.5465 63.8056C97.9895 63.8056 97.4312 63.7694 96.8785 63.8153C96.1837 63.8724 95.954 63.619 95.9596 62.9117C95.9902 59.1164 95.9735 55.3224 95.9735 51.527C95.9735 50.3714 95.9735 49.2158 95.9735 47.992C95.6616 48.1076 95.5656 48.3526 95.4291 48.5392C93.3908 51.3224 91.3594 54.1111 89.3225 56.8943C88.6138 57.8633 88.2003 57.8577 87.486 56.8706C85.424 54.0192 83.369 51.1622 81.3112 48.3081C81.2179 48.1786 81.1218 48.0491 80.8991 47.747V47.7498Z" fill="#EEEEEE"/>
<path d="M107.461 61.9526C107.461 64.6578 107.461 67.2252 107.461 69.7926C107.461 70.699 107.441 70.7171 106.522 70.7226C105.919 70.7254 105.316 70.7143 104.713 70.7198C104.279 70.724 104.07 70.5221 104.082 70.0877C104.086 69.9262 104.078 69.7633 104.078 69.6018C104.078 62.9843 104.078 56.3654 104.078 49.7479C104.078 48.6382 104.084 48.6173 105.204 48.6396C105.846 48.6521 106.598 48.389 107.101 48.7914C107.624 49.2091 107.156 50.0444 107.527 50.6737C107.786 50.4287 108.032 50.1711 108.304 49.9414C111.897 46.902 117.932 48.382 119.723 52.8332C120.997 55.9978 120.727 59.0859 118.426 61.7466C115.689 64.9098 109.966 64.74 107.777 62.1851C107.722 62.1211 107.638 62.0807 107.463 61.9512L107.461 61.9526ZM112.401 60.8527C114.764 60.9251 117.022 59.3282 117.084 56.2401C117.138 53.5043 115.169 51.601 112.444 51.5954C109.653 51.5899 107.74 53.4708 107.734 56.2303C107.729 58.9091 109.69 60.8527 112.401 60.8513V60.8527Z" fill="#EEEEEE"/>
<path d="M153.96 50.707C154.025 50.1028 154.106 49.6934 154.103 49.2855C154.099 48.794 154.329 48.6283 154.781 48.6367C155.384 48.6464 155.988 48.6631 156.589 48.6297C157.189 48.5977 157.404 48.8302 157.397 49.4359C157.371 51.5647 157.388 53.6935 157.388 55.8223C157.388 58.2058 157.371 60.5894 157.399 62.9716C157.406 63.6065 157.191 63.8571 156.554 63.8112C156.023 63.7736 155.486 63.7694 154.955 63.8112C154.301 63.8627 154.085 63.5703 154.114 62.9591C154.131 62.6013 154.169 62.2226 153.925 61.8188C152.957 62.9535 151.789 63.6914 150.359 63.9866C146.361 64.8108 141.474 62.8366 141.064 56.989C140.883 54.4063 141.509 52.084 143.498 50.2545C146.056 47.9043 150.539 47.6816 153.118 49.8118C153.381 50.029 153.592 50.3102 153.96 50.7042V50.707ZM149.247 51.4254C146.355 51.4199 144.446 53.298 144.428 56.1675C144.41 59.0565 146.368 61.0809 149.188 61.0921C151.972 61.1018 153.979 59.0844 153.992 56.265C154.004 53.4234 152.052 51.4324 149.247 51.4268V51.4254Z" fill="#EEEEEE"/>
<path d="M126.937 50.6245C127.135 50.4574 127.229 50.3961 127.3 50.314C129.117 48.1991 132.458 48.0654 134.624 49.008C136.654 49.8921 137.559 51.5921 137.922 53.661C138.198 55.2232 138.032 56.7992 138.06 58.3683C138.087 59.8943 138.036 61.4216 138.078 62.9476C138.096 63.6298 137.842 63.8553 137.189 63.808C136.636 63.7676 136.076 63.7746 135.522 63.8066C134.941 63.84 134.763 63.595 134.769 63.0325C134.791 60.7199 134.788 58.4073 134.77 56.0947C134.766 55.5197 134.717 54.9364 134.604 54.3725C134.313 52.9273 133.482 51.9235 131.991 51.652C130.35 51.354 128.902 51.7466 127.852 53.1417C127.218 53.984 126.944 54.9558 126.941 56.0001C126.933 58.3126 126.919 60.6266 126.95 62.9378C126.958 63.5713 126.752 63.8275 126.116 63.7857C125.609 63.7523 125.096 63.7815 124.587 63.7787C123.66 63.7718 123.65 63.7648 123.65 62.8529C123.65 57.2559 123.65 51.6589 123.65 46.0619C123.65 45.0678 123.671 44.0724 123.643 43.0783C123.628 42.5603 123.839 42.3696 124.335 42.3821C124.936 42.3988 125.541 42.41 126.142 42.378C126.739 42.3459 126.957 42.5715 126.95 43.1813C126.922 45.4243 126.938 47.6686 126.938 49.9116C126.938 50.0954 126.938 50.2792 126.938 50.6231L126.937 50.6245Z" fill="#EEEEEE"/>
<path d="M167.25 48.3099C169.246 48.2445 171.016 48.7318 172.594 49.8916C173.032 50.2132 173.103 50.4805 172.708 50.8829C172.335 51.2616 171.989 51.6709 171.663 52.09C171.37 52.4687 171.129 52.452 170.749 52.1694C169.129 50.9664 167.3 50.9483 165.437 51.3702C164.617 51.5567 164.128 52.1652 164.107 52.7987C164.088 53.3792 164.552 53.9375 165.342 54.2299C166.531 54.6699 167.805 54.6128 169.033 54.8342C170.136 55.0333 171.215 55.3006 172.144 55.9578C174.412 57.5644 174.373 61.1162 172.083 62.8398C171.033 63.6306 169.828 64.0135 168.542 64.1486C166.43 64.3699 164.376 64.1722 162.466 63.1545C161.644 62.7173 160.639 62.2314 160.46 61.3668C160.323 60.7082 161.27 60.1068 161.69 59.451C161.906 59.1155 162.098 59.1099 162.4 59.3869C163.979 60.8266 165.869 61.3612 167.974 61.2345C168.612 61.1969 169.209 61.0229 169.739 60.6678C170.736 60.0009 170.683 58.6908 169.636 58.1047C168.676 57.5672 167.591 57.5561 166.54 57.4224C165.454 57.2846 164.396 57.0618 163.39 56.6163C161.844 55.9299 160.877 54.8091 160.812 53.0702C160.744 51.288 161.604 50.0183 163.148 49.2038C164.444 48.5202 165.842 48.2334 167.253 48.3085L167.25 48.3099Z" fill="#EEEEEE"/>
<path d="M189.974 48.304C191.988 48.2567 193.766 48.712 195.335 49.8926C195.76 50.2115 195.856 50.4732 195.444 50.8798C195.05 51.2682 194.692 51.6984 194.351 52.1356C194.086 52.4753 193.864 52.4558 193.543 52.208C191.985 50.9995 190.205 51.0009 188.377 51.303C188.076 51.3531 187.803 51.4868 187.554 51.6608C186.606 52.3208 186.661 53.4569 187.673 54.0221C188.636 54.5596 189.719 54.5665 190.771 54.6946C191.761 54.8157 192.741 54.9745 193.68 55.3295C195.224 55.9129 196.285 56.9209 196.487 58.6264C196.718 60.577 196.05 62.1266 194.334 63.1625C192.651 64.1802 190.788 64.3362 188.893 64.1872C186.856 64.0271 185.007 63.3727 183.501 61.9136C183.115 61.5405 183.018 61.2481 183.403 60.8151C183.847 60.3153 184.138 59.5203 184.676 59.3059C185.248 59.0789 185.684 59.938 186.242 60.2331C187.919 61.1172 189.66 61.5071 191.537 61.0782C191.782 61.0225 192.027 60.9265 192.247 60.8053C192.829 60.4823 193.234 60.0215 193.195 59.3128C193.159 58.632 192.726 58.2268 192.139 57.972C191.231 57.5794 190.251 57.539 189.289 57.4165C188.09 57.2648 186.912 57.0295 185.823 56.4726C184.377 55.7333 183.555 54.5596 183.544 52.9362C183.531 51.3239 184.31 50.107 185.709 49.3079C187.053 48.5421 188.513 48.2456 189.971 48.304H189.974Z" fill="#EEEEEE"/>
<path d="M180.085 56.1876C180.085 58.4292 180.066 60.6708 180.098 62.9124C180.107 63.5598 179.928 63.8536 179.243 63.7979C178.692 63.7533 178.13 63.7603 177.578 63.7965C176.971 63.8368 176.774 63.6002 176.78 62.9959C176.804 59.692 176.791 56.3867 176.791 53.0828C176.791 51.8354 176.809 50.5865 176.783 49.339C176.772 48.8113 176.943 48.5705 177.494 48.5955C178.118 48.6234 178.744 48.622 179.368 48.5955C179.906 48.5732 180.099 48.7835 180.095 49.3251C180.074 51.6126 180.087 53.9001 180.087 56.1876H180.085Z" fill="#EEEEEE"/>
<path d="M109.558 78.2493C109.558 79.9549 109.559 81.4558 109.558 82.958C109.558 83.3033 109.61 83.6653 109.063 83.6765C108.499 83.689 108.495 83.3437 108.497 82.9483C108.499 80.9128 108.495 78.8773 108.502 76.8417C108.502 76.58 108.419 76.2542 108.789 76.1428C109.129 76.0412 109.361 76.2194 109.565 76.47C110.818 78.0168 112.073 79.5595 113.329 81.1049C113.43 81.2288 113.535 81.35 113.643 81.478C113.865 81.3305 113.769 81.13 113.771 80.9685C113.78 79.5581 113.782 78.1463 113.775 76.7359C113.773 76.36 113.86 76.1066 114.307 76.1094C114.754 76.1122 114.84 76.3684 114.839 76.7415C114.834 78.823 114.84 80.9044 114.833 82.9873C114.833 83.2267 114.911 83.5358 114.582 83.6375C114.237 83.7433 113.968 83.611 113.736 83.3242C112.498 81.7955 111.249 80.2751 110.003 78.7533C109.903 78.6322 109.796 78.5167 109.56 78.2507L109.558 78.2493Z" fill="#EEEEEE"/>
<path d="M151.777 83.6664C151.288 83.7694 151.05 83.4464 150.948 83.0454C150.742 82.2365 150.231 82.0263 149.453 82.0917C148.718 82.153 147.97 82.146 147.232 82.0917C146.578 82.0444 146.191 82.2602 145.986 82.8923C145.855 83.2974 145.706 83.7096 145.101 83.6887C144.552 83.6706 144.463 83.5286 144.691 83.0413C145.418 81.493 146.116 79.9323 146.824 78.3757C147.093 77.7868 147.372 77.2034 147.625 76.6075C147.782 76.2386 148.033 76.0924 148.433 76.0938C148.828 76.0952 149.07 76.2274 149.239 76.6019C150.201 78.753 151.18 80.8971 152.161 83.0399C152.346 83.445 152.37 83.7193 151.777 83.6622V83.6664ZM148.442 81.0781C148.811 81.0781 149.18 81.0698 149.549 81.0809C149.871 81.0907 150.055 81.0197 149.886 80.6493C149.467 79.7262 149.056 78.8004 148.637 77.8787C148.506 77.5891 148.357 77.5974 148.227 77.8815C147.968 78.4467 147.717 79.0162 147.457 79.58C146.997 80.5797 147.325 81.0791 148.44 81.0781H148.442Z" fill="#EEEEEE"/>
<path d="M165.337 79.0775C166.122 78.4538 166.852 78.1391 167.751 78.3132C168.894 78.5332 169.637 79.1708 169.901 80.2972C170.174 81.4625 169.947 82.5262 168.964 83.2864C168.037 84.0034 166.972 84.0675 165.965 83.5078C165.343 83.1625 165.29 83.3421 165.315 83.9074C165.34 84.4838 165.315 85.0616 165.315 85.6394C165.315 86.0111 165.144 86.1879 164.761 86.1768C164.399 86.1657 164.282 85.9638 164.282 85.6394C164.282 83.3992 164.282 81.1604 164.282 78.9202C164.282 78.6167 164.342 78.3814 164.723 78.3494C165.188 78.3118 165.347 78.554 165.337 79.0775ZM168.897 81.0671C168.903 80.0229 168.202 79.292 167.186 79.2794C166.2 79.2669 165.453 80.0326 165.448 81.0588C165.444 82.1099 166.133 82.8103 167.175 82.813C168.233 82.8158 168.892 82.1489 168.897 81.0671Z" fill="#EEEEEE"/>
<path d="M156.413 83.3466C156.413 84.0539 156.41 84.7835 156.413 85.513C156.416 85.9001 156.349 86.2008 155.852 86.1883C155.379 86.1758 155.363 85.8681 155.365 85.5228C155.366 83.3522 155.363 81.1816 155.369 79.0111C155.369 78.7716 155.299 78.4583 155.652 78.3901C155.944 78.333 156.268 78.2773 156.38 78.695C156.484 79.0849 156.69 78.8523 156.838 78.7493C157.374 78.379 157.963 78.2008 158.607 78.2871C159.76 78.443 160.621 79.0111 160.914 80.182C161.2 81.3181 161.077 82.3999 160.124 83.2241C159.274 83.9592 157.995 84.0497 156.934 83.4942C156.797 83.4232 156.689 83.2715 156.412 83.3452L156.413 83.3466ZM159.973 81.0675C159.977 80.0414 159.262 79.2993 158.256 79.2895C157.303 79.2798 156.481 80.0859 156.469 81.0396C156.456 82.0602 157.232 82.8287 158.268 82.8217C159.31 82.8148 159.968 82.1381 159.973 81.0675Z" fill="#EEEEEE"/>
<path d="M195.294 78.9121C195.294 78.1491 195.297 77.4836 195.294 76.8195C195.293 76.4547 195.288 76.1136 195.809 76.1094C196.308 76.1052 196.359 76.4088 196.358 76.793C196.354 78.8494 196.359 80.9044 196.352 82.9608C196.352 83.2407 196.441 83.6013 195.992 83.6612C195.598 83.7141 195.284 83.6403 195.291 83.0625C194.487 83.6793 193.664 83.9535 192.721 83.7224C192.09 83.5679 191.563 83.263 191.17 82.7436C190.413 81.7426 190.488 79.9772 191.32 79.0652C192.25 78.0475 193.729 77.9612 195.297 78.9149L195.294 78.9121ZM191.753 80.988C191.753 82.0559 192.418 82.7506 193.445 82.7604C194.485 82.7701 195.262 82.0127 195.263 80.9866C195.263 79.9647 194.482 79.2045 193.442 79.2184C192.39 79.2323 191.753 79.8992 191.753 80.988Z" fill="#EEEEEE"/>
<path d="M121.485 81.4419C120.953 81.4419 120.42 81.435 119.888 81.4461C119.692 81.4503 119.43 81.3667 119.345 81.6257C119.273 81.8429 119.442 82.0169 119.576 82.1757C120.086 82.7813 121.097 82.9665 121.947 82.6045C122.138 82.5237 122.316 82.4137 122.5 82.3163C122.845 82.1339 123.017 82.4026 123.188 82.6045C123.381 82.8314 123.184 82.979 123.028 83.1196C122.003 84.0413 120.016 84.0149 118.98 83.0667C117.937 82.1116 117.812 80.349 118.707 79.2101C119.575 78.106 121.4 77.8317 122.617 78.6337C123.431 79.1697 123.685 79.9898 123.715 80.9073C123.728 81.2874 123.521 81.4433 123.153 81.4378C122.597 81.4308 122.042 81.4364 121.486 81.4364V81.4405L121.485 81.4419ZM120.96 80.5216V80.5286C121.328 80.5286 121.697 80.5356 122.064 80.5272C122.62 80.5133 122.707 80.3504 122.419 79.8714C122.046 79.2519 121.449 79.1628 120.797 79.199C120.172 79.2338 119.701 79.515 119.398 80.0608C119.249 80.3281 119.32 80.5119 119.649 80.5202C120.086 80.5314 120.523 80.523 120.959 80.523L120.96 80.5216Z" fill="#EEEEEE"/>
<path d="M97.9604 81.4379C97.4285 81.4379 96.8952 81.4323 96.3634 81.4407C96.2102 81.4435 96.0111 81.3725 95.922 81.5507C95.8274 81.74 95.9624 81.9029 96.064 82.0561C96.5402 82.7745 97.6805 82.9945 98.6468 82.5517C98.8138 82.4752 98.9656 82.361 99.1341 82.2872C99.4432 82.1521 99.6047 82.3944 99.7676 82.5768C99.9653 82.7968 99.7912 82.9513 99.6367 83.0989C98.6314 84.0582 96.4887 84.0067 95.4793 83C94.4768 82.0004 94.4462 80.1236 95.4152 79.0794C96.4302 77.9864 98.3488 77.8569 99.4557 78.8204C100.098 79.3787 100.272 80.1417 100.299 80.945C100.311 81.2792 100.104 81.4379 99.7648 81.4337C99.1633 81.4268 98.5618 81.4323 97.9604 81.4323V81.4379ZM97.5079 80.5232C97.8532 80.5232 98.1998 80.5343 98.5437 80.519C98.7581 80.5092 99.0422 80.6081 99.1341 80.3074C99.2079 80.0637 99.0477 79.866 98.8988 79.6892C98.1929 78.8538 96.4427 79.0766 95.9791 80.0554C95.8315 80.3672 95.8803 80.5343 96.2645 80.5246C96.6794 80.5148 97.093 80.5218 97.5079 80.5246V80.5232Z" fill="#EEEEEE"/>
<path d="M185.543 81.4397C185.033 81.4397 184.524 81.4327 184.015 81.4425C183.819 81.4466 183.56 81.3659 183.471 81.6235C183.394 81.8434 183.567 82.0161 183.696 82.1762C184.174 82.761 185.158 82.9559 186.002 82.6287C186.196 82.5535 186.384 82.4588 186.558 82.3475C186.921 82.1177 187.123 82.3642 187.308 82.6008C187.521 82.8751 187.272 83.0171 187.099 83.1578C186.022 84.0405 184.12 83.9945 183.108 83.0659C182.123 82.1623 181.949 80.5319 182.715 79.3791C183.471 78.2402 185.093 77.8434 186.439 78.4644C187.329 78.8751 187.923 79.9221 187.851 80.9037C187.823 81.2796 187.648 81.4397 187.28 81.4355C186.701 81.4285 186.123 81.4341 185.544 81.4341V81.4383L185.543 81.4397ZM185.103 80.5222V80.525C185.47 80.525 185.839 80.5333 186.207 80.5236C186.748 80.5096 186.836 80.3314 186.541 79.8539C186.179 79.2677 185.609 79.1619 184.98 79.1898C184.361 79.2176 183.871 79.464 183.552 80.0056C183.35 80.3509 183.468 80.5222 183.861 80.5222C184.274 80.5222 184.689 80.5222 185.103 80.5222Z" fill="#EEEEEE"/>
<path d="M87.5539 78.8243C88.2264 78.4261 88.7819 78.195 89.4015 78.234C90.7047 78.3161 91.451 79.0652 91.5638 80.4965C91.632 81.3694 91.5819 82.2521 91.5874 83.1307C91.5902 83.4982 91.4343 83.6737 91.043 83.6737C90.6253 83.6737 90.5418 83.4481 90.5432 83.1C90.5488 82.3607 90.5627 81.6186 90.5335 80.8807C90.4917 79.7934 89.9431 79.1961 89.0674 79.2337C88.1554 79.2726 87.5734 79.9326 87.5595 80.9615C87.5498 81.6785 87.5525 82.3955 87.5525 83.1126C87.5525 83.4676 87.4272 83.6723 87.0262 83.675C86.6239 83.6778 86.5069 83.4829 86.5083 83.1195C86.5139 80.9684 86.5139 78.8188 86.5083 76.6677C86.5083 76.2973 86.6475 76.108 87.036 76.1094C87.4342 76.1122 87.5567 76.3349 87.5539 76.6872C87.5511 77.3527 87.5539 78.0182 87.5539 78.8243Z" fill="#EEEEEE"/>
<path d="M79.8475 80.3534C79.8475 79.4749 79.8378 78.5949 79.8517 77.7164C79.8587 77.3085 79.7014 77.1219 79.2795 77.1358C78.7936 77.1525 78.3063 77.1331 77.8204 77.1317C77.4625 77.1317 77.3344 76.9381 77.34 76.6026C77.3456 76.2949 77.4779 76.1139 77.7925 76.1125C79.5538 76.1083 81.3136 76.1083 83.0749 76.1125C83.3896 76.1125 83.5218 76.2949 83.5274 76.6026C83.533 76.9381 83.4035 77.1303 83.0457 77.1317C82.582 77.1317 82.1184 77.1595 81.6561 77.133C81.1674 77.1052 81.0073 77.3127 81.0115 77.7846C81.0282 79.4958 81.0213 81.2069 81.0115 82.9194C81.0101 83.1992 81.1006 83.5431 80.6774 83.6545C80.158 83.7909 79.8698 83.6044 79.8601 83.0572C79.842 82.155 79.8559 81.2528 79.8559 80.352H79.8503L79.8475 80.3534Z" fill="#EEEEEE"/>
<path d="M180.5 44.4258C180.49 45.5578 179.593 46.4405 178.468 46.4265C177.275 46.4126 176.399 45.5438 176.398 44.3729C176.398 43.2605 177.307 42.3736 178.45 42.375C179.643 42.375 180.509 43.2424 180.5 44.4258Z" fill="#EEEEEE"/>
<path d="M130.422 83.7094C130.228 83.7358 130.004 83.6105 129.83 83.3585C129.554 82.9589 129.252 82.5775 128.993 82.1681C128.731 81.7532 128.542 81.8047 128.307 82.189C128.09 82.5426 127.831 82.8698 127.587 83.2068C127.506 83.3195 127.432 83.4448 127.328 83.5298C127.006 83.7915 126.558 83.818 126.296 83.6133C126.029 83.4045 126.443 83.1636 126.562 82.945C126.693 82.7028 126.882 82.4939 127.041 82.2656C128.156 80.6575 128.166 81.316 127.023 79.6035C126.908 79.4309 126.759 79.2763 126.668 79.0926C126.558 78.8712 126.142 78.6192 126.441 78.4173C126.736 78.2196 127.214 78.2085 127.51 78.5788C127.771 78.9018 127.999 79.2513 128.237 79.591C128.659 80.1925 128.687 80.1925 129.123 79.5645C129.32 79.2791 129.511 78.9909 129.709 78.7055C129.829 78.5329 129.958 78.363 130.193 78.3519C130.444 78.3393 130.761 78.2335 130.924 78.4298C131.132 78.6804 130.825 78.8851 130.693 79.0786C130.356 79.5757 130.014 80.0713 129.638 80.5378C129.39 80.8455 129.397 81.0835 129.638 81.3884C130.067 81.9328 130.465 82.5009 130.867 83.0647C130.981 83.2249 131.207 83.3892 131.062 83.6036C130.955 83.7623 130.718 83.6829 130.422 83.7066V83.7094Z" fill="#EEEEEE"/>
<path d="M136.901 82.7745C137.234 82.6561 137.438 82.7786 137.534 83.1532C137.651 83.6043 137.326 83.6502 137.038 83.7324C135.774 84.093 134.816 83.3912 134.782 82.0714C134.764 81.3334 134.764 80.5928 134.78 79.8548C134.788 79.4664 134.684 79.2283 134.241 79.252C133.923 79.2687 133.698 79.1587 133.705 78.7842C133.71 78.4514 133.909 78.3289 134.2 78.3498C134.742 78.3874 134.796 78.0644 134.781 77.6453C134.773 77.4239 134.707 77.1636 134.919 76.9979C135.107 76.8503 135.345 76.803 135.577 76.8809C135.828 76.9645 135.842 77.2039 135.814 77.403C135.71 78.1771 136.049 78.4445 136.794 78.3512C137.117 78.3108 137.481 78.3233 137.47 78.8106C137.46 79.3035 137.087 79.2422 136.768 79.2534C136.14 79.2747 135.826 79.5963 135.824 80.2182C135.824 80.7487 135.815 81.2805 135.829 81.811C135.852 82.6659 136.042 82.8357 136.9 82.7745H136.901Z" fill="#EEEEEE"/>
<path d="M173.312 79.8769C173.312 78.8383 173.315 77.7996 173.311 76.7596C173.309 76.4046 173.35 76.1136 173.815 76.1094C174.259 76.1066 174.359 76.3586 174.359 76.7317C174.356 78.8327 174.358 80.9337 174.359 83.0346C174.359 83.3896 174.305 83.6653 173.841 83.6765C173.318 83.6876 173.311 83.3632 173.312 82.9928C173.316 81.9542 173.312 80.9156 173.313 79.8755L173.312 79.8769Z" fill="#EEEEEE"/>
<path d="M179.065 80.9971C179.065 81.6682 179.063 82.3379 179.065 83.009C179.065 83.4002 178.981 83.6773 178.487 83.6703C178.029 83.6634 177.948 83.4016 177.948 83.0424C177.948 81.678 177.948 80.3149 177.947 78.9505C177.947 78.5592 178.03 78.2836 178.525 78.2891C179.041 78.2947 179.062 78.6219 179.065 78.9867C179.069 79.6578 179.065 80.3275 179.065 80.9985V80.9971Z" fill="#EEEEEE"/>
<path d="M178.477 77.4645C178.062 77.4255 177.849 77.1805 177.859 76.7851C177.867 76.4022 178.126 76.2031 178.492 76.2031C178.893 76.2031 179.148 76.4287 179.144 76.8408C179.14 77.2529 178.885 77.452 178.478 77.4645H178.477Z" fill="#EEEEEE"/>
<path d="M42.458 75.5706C42.671 74.8772 43.2238 74.5584 43.8489 74.3203C43.3853 74.7366 42.9216 75.1529 42.458 75.5706Z" fill="#9A9A9A"/>
<path d="M59.5717 55.861C59.2501 56.0281 58.9354 56.2105 58.6054 56.3539C58.4175 56.436 58.2017 56.4569 57.9302 56.521C57.9552 55.7789 58.4272 55.3194 58.5985 54.75C59.2083 53.9063 59.8112 53.057 60.4321 52.2216C60.5797 52.0239 60.7844 51.8693 60.964 51.6953C60.9334 51.8276 60.9375 51.9821 60.8679 52.0879C60.4934 52.6574 60.0994 53.2157 59.7123 53.7782C59.3531 54.3003 58.9883 54.8182 58.6458 55.3501C58.6054 55.4127 58.6848 55.5547 58.7085 55.6508C59.2891 55.6438 59.2793 55.6327 59.6218 55.3695C60.2024 54.9226 60.7941 54.4924 61.3817 54.0552C61.1213 54.3337 60.8679 54.6219 60.5964 54.8906C60.2637 55.222 59.9142 55.538 59.5731 55.861H59.5717Z" fill="#7A7A7A"/>
<path d="M61.3749 54.0564C60.7874 54.4935 60.1957 54.9238 59.6151 55.3707C59.2726 55.6338 59.2809 55.645 58.7017 55.6519C58.6794 55.5545 58.5987 55.4138 58.6391 55.3512C58.9816 54.8193 59.3477 54.3014 59.7056 53.7793V54.623C60.0341 54.6982 60.2486 54.5089 60.4894 54.3265C61.0519 53.899 61.6353 53.4981 62.2089 53.0859C62.2089 53.1319 62.2089 53.1792 62.2089 53.2252C62.0237 53.4103 61.8386 53.5955 61.652 53.7807C61.5587 53.8726 61.4668 53.9659 61.3735 54.0578L61.3749 54.0564Z" fill="#7B7B7B"/>
<path d="M39.5352 75.9637C39.5352 75.9178 39.5352 75.8718 39.5352 75.8245C39.8136 75.4541 40.0921 75.0838 40.3691 74.7134C40.7005 74.3779 41.0319 74.041 41.3646 73.7068C41.5874 73.4841 41.813 73.2669 42.0385 73.0469C42.0385 73.1388 42.0385 73.232 42.0385 73.3239C41.4816 73.9713 40.9261 74.6202 40.3691 75.2676C40.0907 75.4987 39.8122 75.7298 39.5352 75.9623V75.9637Z" fill="#929292"/>
<path d="M61.3791 54.0505C61.4723 53.9586 61.5642 53.8653 61.6575 53.7734V54.1897C61.1396 54.684 60.6286 55.1866 60.0995 55.6683C59.9004 55.8493 59.6554 55.9802 59.4326 56.1347C59.4786 56.0415 59.5259 55.9496 59.5718 55.8563C59.913 55.5333 60.2624 55.2172 60.5952 54.8859C60.8667 54.6172 61.1187 54.3304 61.3804 54.0505H61.3791Z" fill="#777777"/>
<path d="M38.2847 75.1574C38.7024 74.6937 39.1187 74.2315 39.5363 73.7679C39.7675 73.6286 40 73.4894 40.2311 73.3516C39.8134 73.8152 39.3971 74.2774 38.9794 74.7411C38.7483 74.8803 38.5158 75.0195 38.2847 75.1574Z" fill="#757575"/>
<path d="M38.978 74.7433C39.3957 74.2797 39.812 73.8174 40.2297 73.3538C40.323 73.2146 40.4149 73.0767 40.5082 72.9375C40.6014 72.9834 40.6947 73.0308 40.7866 73.0767C40.7407 73.1686 40.6933 73.2619 40.6474 73.3538C40.3689 73.6309 40.0905 73.9093 39.8134 74.1864C39.5349 74.4648 39.2565 74.7419 38.9794 75.0204C38.9794 74.9285 38.9794 74.8352 38.9794 74.7433H38.978Z" fill="#7C7C7C"/>
<path d="M38.9782 74.7188C38.9782 74.8106 38.9782 74.9039 38.9782 74.9958C38.5869 75.1935 38.4018 75.7212 37.8657 75.6906C38.005 75.5054 38.1442 75.3202 38.2834 75.135C38.5145 74.9958 38.747 74.8566 38.9782 74.7188Z" fill="#787878"/>
<path d="M40.6484 73.3496C40.6943 73.2577 40.7416 73.1644 40.7876 73.0725C40.9268 72.9333 41.0661 72.7941 41.2053 72.6562C41.2972 72.7022 41.3905 72.7481 41.4824 72.7955C41.2039 73.0725 40.9254 73.351 40.647 73.6281C40.647 73.5362 40.647 73.4429 40.647 73.351L40.6484 73.3496Z" fill="#848484"/>
<path d="M38.9795 75.0137C39.258 74.7352 39.5364 74.4581 39.8135 74.1797C39.9068 74.1797 39.9987 74.1797 40.0919 74.1797C40.0919 74.2256 40.0919 74.2716 40.0919 74.3189C39.7216 74.6433 39.3498 74.9663 38.9795 75.2907C38.9795 75.1988 38.9795 75.1056 38.9795 75.0137Z" fill="#818181"/>
<path d="M40.0924 74.1841C39.9991 74.1841 39.9072 74.1841 39.814 74.1841C40.0924 73.9071 40.3709 73.6286 40.648 73.3516C40.648 73.4435 40.648 73.5367 40.648 73.6286C40.4628 73.8138 40.2776 73.999 40.0924 74.1841Z" fill="#7F7F7F"/>
<path d="M62.2125 54.3281C62.2584 54.3281 62.3058 54.3281 62.3517 54.3281C62.0732 54.6525 61.7948 54.9755 61.5177 55.2999C61.4244 55.3459 61.3325 55.3932 61.2393 55.4392C61.2393 55.3932 61.2393 55.3459 61.2393 55.2999C61.5637 54.9755 61.8881 54.6525 62.2125 54.3281Z" fill="#6C6C6C"/>
<path d="M61.5142 55.2999C61.7926 54.9755 62.0711 54.6525 62.3481 54.3281C62.3941 54.3281 62.4414 54.3281 62.4874 54.3281C62.2089 54.6525 61.9305 54.9769 61.6534 55.2999C61.6074 55.2999 61.5601 55.2999 61.5142 55.2999Z" fill="#6A6A6A"/>
<path d="M40.3722 74.7188C40.0938 75.0891 39.8153 75.4594 39.5382 75.8298C39.4449 75.8757 39.353 75.9217 39.2598 75.969C39.6301 75.5527 40.0019 75.1364 40.3722 74.7188Z" fill="#8F8F8F"/>
<path d="M37.8643 76.555C38.2346 76.1387 38.6064 75.7224 38.9767 75.3047C38.6064 75.721 38.2346 76.1373 37.8643 76.555Z" fill="#818181"/>
</g>
</g>
<defs>
<clipPath id="clip0_665_5533">
<rect width="231" height="127" fill="white"/>
</clipPath>
<clipPath id="clip1_665_5533">
<rect width="161.924" height="53.6047" fill="white" transform="translate(34.5376 36.6953)"/>
</clipPath>
</defs>
</svg>
