<svg width="231" height="127" viewBox="0 0 231 127" fill="none" xmlns="http://www.w3.org/2000/svg">
<g clip-path="url(#clip0_360_5131)">
<path d="M112.979 91.2379C105.764 91.2068 99.1477 91.0934 92.5659 90.4441C86.5275 89.8477 80.5988 88.5545 74.7249 87.0545C68.7505 85.5289 62.9114 83.6064 57.3687 80.8699C52.94 78.6821 48.8735 76.0096 45.5113 72.3109C41.2966 67.6738 40.8009 61.1581 44.421 55.9996C46.1662 53.5119 48.4894 51.6442 51.0138 50.018C57.5315 45.8181 64.6639 43.0377 72.0981 40.9707C79.5378 38.9036 87.1147 37.5884 94.7812 36.7012C103.337 35.7116 111.92 35.4482 120.51 35.6641C133.708 35.9952 146.742 37.6067 159.452 41.3347C166.028 43.2627 172.379 45.7303 178.1 49.5882C181.462 51.8546 184.509 54.474 186.474 58.1124C189.158 63.0806 188.517 67.7012 184.705 71.8993C181.182 75.7791 176.856 78.4937 172.237 80.8589C166.085 84.0107 159.527 85.913 152.868 87.6069C144.757 89.6685 136.491 90.3288 128.18 90.7642C122.914 91.0386 117.644 91.0898 112.977 91.2398L112.979 91.2379Z" fill="#7A7A7A"/>
<path d="M95.0955 57.6885C93.954 59.5945 92.9223 61.3104 91.8979 63.028C89.2272 67.5005 86.5473 71.9693 83.904 76.4582C83.529 77.0948 83.0991 77.3381 82.371 77.3143C80.9094 77.2649 79.4442 77.2686 77.9844 77.3125C77.2691 77.3326 77.0295 77.1332 77.0972 76.3796C77.474 72.2236 77.8033 68.0657 78.149 63.9079C78.3393 61.6067 78.5295 59.3074 78.7253 56.9312C78.3283 57.1909 78.321 57.5531 78.2185 57.8531C76.124 63.9938 74.0258 70.1327 71.9661 76.2863C71.7118 77.0436 71.3697 77.3546 70.5465 77.3198C68.9953 77.2539 67.4386 77.3033 65.8855 77.2997C64.5483 77.2997 64.541 77.285 64.9581 76.0576C67.5867 68.3291 70.2136 60.6006 72.8423 52.8703C73.1368 52.0051 73.4569 51.1472 73.7167 50.2728C73.8905 49.6856 74.2106 49.4551 74.8344 49.4588C78.0338 49.4826 81.235 49.4807 84.4345 49.4588C85.1149 49.4551 85.3418 49.6838 85.2814 50.3752C84.8808 54.9556 84.5058 59.5397 84.1363 64.1237C84.0942 64.6524 84.1308 65.1865 84.2735 65.7883C84.5186 65.3859 84.7674 64.9871 85.0088 64.5829C87.8516 59.8214 90.7016 55.0654 93.5205 50.2911C93.8754 49.6911 94.2742 49.446 94.9748 49.4533C98.0827 49.4862 101.191 49.4624 104.3 49.4697C105.266 49.4716 105.31 49.5374 104.992 50.4703C102.052 59.1226 99.0998 67.7712 96.1766 76.429C95.9516 77.0948 95.615 77.3271 94.9272 77.3106C93.2516 77.2704 91.576 77.3015 89.8985 77.296C88.8394 77.2942 88.8302 77.285 89.1686 76.2899C91.0876 70.6358 93.0138 64.9853 94.9254 59.3293C95.0754 58.8866 95.3699 58.4531 95.0955 57.6867V57.6885Z" fill="white"/>
<path d="M142.664 62.3807C142.453 62.9788 142.238 63.5752 142.035 64.1751C140.652 68.2415 139.254 72.3024 137.906 76.3816C137.674 77.0859 137.335 77.3291 136.602 77.3109C134.591 77.2633 132.579 77.2999 130.567 77.2926C129.541 77.2889 129.495 77.2267 129.826 76.2536C132.354 68.8122 134.884 61.3709 137.416 53.9314C137.838 52.6912 138.285 51.4583 138.674 50.209C138.85 49.6456 139.168 49.4517 139.741 49.4571C141.874 49.4791 144.008 49.4882 146.139 49.4517C146.818 49.4407 147.096 49.7352 147.297 50.337C148.763 54.6961 150.255 59.0478 151.748 63.3995C151.863 63.7325 151.891 64.1203 152.218 64.3709C152.56 64.1349 152.579 63.7434 152.692 63.4105C154.17 59.0862 155.652 54.7637 157.093 50.4285C157.335 49.7023 157.691 49.4279 158.463 49.4462C160.474 49.4956 162.486 49.4571 164.496 49.4663C165.482 49.4718 165.541 49.5504 165.235 50.4468C162.296 59.099 159.345 67.7495 156.42 76.4072C156.201 77.0566 155.895 77.3237 155.189 77.309C153.118 77.2669 151.044 77.2633 148.973 77.309C148.234 77.3255 147.901 77.0639 147.667 76.3688C146.205 72.0079 144.7 67.6617 143.209 63.3099C143.103 62.9989 142.982 62.6935 142.869 62.3862C142.799 62.3843 142.73 62.3825 142.658 62.3788L142.664 62.3807Z" fill="white"/>
<path d="M121.84 49.5419C125.74 49.5419 129.64 49.5419 133.54 49.5419C134.435 49.5419 134.738 49.9797 134.449 50.8553C133.968 52.2985 133.448 53.7308 133.006 55.1869C132.739 56.0649 132.221 56.3448 131.321 56.321C129.159 56.2643 126.995 56.3283 124.833 56.2899C124.062 56.2771 123.691 56.5716 123.451 57.296C121.975 61.7465 120.459 66.1842 118.957 70.6256C118.889 70.8268 118.794 71.0244 118.75 71.2311C118.523 72.3158 117.878 72.6524 116.778 72.603C114.803 72.5152 112.818 72.5865 110.839 72.5719C109.913 72.5664 109.829 72.4128 110.132 71.5347C111.764 66.8153 113.392 62.0941 115.02 57.3728C115.353 56.407 115.293 56.3082 114.29 56.3046C112.097 56.2954 109.904 56.3046 107.709 56.2991C106.615 56.2954 106.576 56.2131 106.928 55.2198C107.476 53.6686 108.034 52.1211 108.506 50.5461C108.742 49.7596 109.163 49.5163 109.957 49.5236C113.917 49.5547 117.879 49.5382 121.84 49.5382V49.5419Z" fill="#999999"/>
<path d="M112.592 77.3483C111.405 77.3483 110.22 77.3374 109.033 77.3502C108.381 77.3575 108.114 77.1105 108.359 76.4575C108.37 76.4282 108.378 76.399 108.387 76.3697C108.936 74.4539 110.212 73.496 112.217 73.496C113.891 73.496 115.565 73.5069 117.237 73.4923C117.855 73.4868 118.075 73.6661 117.83 74.3063C117.568 74.985 117.356 75.6892 117.177 76.3953C116.999 77.0959 116.619 77.3941 115.878 77.3611C114.784 77.3117 113.688 77.3483 112.592 77.3483V77.3483Z" fill="#3A3A3A"/>
</g>
<defs>
<clipPath id="clip0_360_5131">
<rect width="231" height="127" fill="white"/>
</clipPath>
</defs>
</svg>
