<svg width="216" height="207" viewBox="0 0 216 207" fill="none" xmlns="http://www.w3.org/2000/svg">
<g clip-path="url(#clip0_5534_1684)">
<rect width="216" height="206.929" fill="#151517"/>
<path d="M106.938 59.4082C101.372 59.4165 95.9332 61.0748 91.3092 64.1737C86.6851 67.2725 83.0834 71.6728 80.9591 76.8183C78.8348 81.9638 78.2832 87.6235 79.3742 93.0824C80.4652 98.5413 83.1499 103.554 87.0887 107.488C91.0274 111.421 96.0435 114.099 101.503 115.182C106.963 116.265 112.622 115.705 117.763 113.572C122.905 111.44 127.299 107.831 130.391 103.202C133.482 98.5727 135.132 93.1307 135.132 87.5639C135.121 80.0926 132.146 72.9313 126.859 67.6523C121.573 62.3732 114.408 59.4082 106.938 59.4082ZM100.551 73.2759L101.602 75.335C101.665 75.5547 101.665 75.7877 101.602 76.0074C101.604 76.3197 101.504 76.6242 101.317 76.8742C101.13 77.1243 100.866 77.3061 100.566 77.3919C100.265 77.4777 99.9455 77.4627 99.6545 77.3493C99.3636 77.2359 99.1176 77.0302 98.9546 76.7638L97.6521 74.9148C97.5905 74.6381 97.5905 74.3511 97.6521 74.0743C97.6521 73.6508 97.8204 73.2447 98.1199 72.9452C98.4193 72.6457 98.8253 72.4775 99.2488 72.4775C99.5281 72.4848 99.8012 72.5617 100.043 72.7011C100.285 72.8405 100.489 73.0381 100.635 73.2759H100.551ZM104.039 86.8495C104.112 86.8183 104.191 86.8021 104.27 86.8021C104.349 86.8021 104.428 86.8183 104.501 86.8495C104.677 86.9623 104.805 87.1368 104.86 87.3389C104.914 87.5409 104.891 87.756 104.795 87.9421C104.743 88.0376 104.671 88.121 104.584 88.1862C104.497 88.2515 104.397 88.2972 104.291 88.3202H104.039L98.4084 88.6564C98.2838 88.7161 98.1475 88.7471 98.0093 88.7471C97.8712 88.7471 97.7347 88.7161 97.61 88.6564C97.3656 88.5004 97.1903 88.2567 97.12 87.9753C97.0496 87.694 97.0898 87.3963 97.232 87.1436C97.3357 86.98 97.4781 86.8446 97.6467 86.7493C97.8153 86.654 98.0048 86.6018 98.1984 86.5973L104.039 86.8495ZM96.4757 67.2246C97.0329 67.2246 97.5671 67.4459 97.9611 67.8399C98.3551 68.234 98.5766 68.7685 98.5766 69.3257C98.5766 69.883 98.3551 70.4174 97.9611 70.8114C97.5671 71.2055 97.0329 71.4269 96.4757 71.4269C95.9185 71.4269 95.3841 71.2055 94.9901 70.8114C94.5961 70.4174 94.3748 69.883 94.3748 69.3257C94.3748 68.7685 94.5961 68.234 94.9901 67.8399C95.3841 67.4459 95.9185 67.2246 96.4757 67.2246ZM87.778 88.6144C87.4905 89.0844 87.0299 89.4226 86.4955 89.5562C85.9611 89.6898 85.3956 89.6082 84.9208 89.3288C84.6805 89.1939 84.4695 89.0121 84.3007 88.7942C84.1319 88.5762 84.0086 88.3266 83.9381 88.0601C83.8676 87.7936 83.8512 87.5157 83.8901 87.2427C83.929 86.9698 84.0224 86.7075 84.1645 86.4713C84.4599 85.9984 84.9278 85.6593 85.4691 85.5259C86.0104 85.3925 86.5825 85.4753 87.0638 85.7568C87.5337 86.0444 87.8716 86.505 88.0052 87.0395C88.1388 87.574 88.0573 88.1396 87.778 88.6144ZM93.8706 89.0347H91.6436C91.3464 89.0246 91.0568 88.9377 90.8032 88.7825C90.5139 88.5973 90.2922 88.3238 90.1707 88.0025C90.0493 87.6812 90.0346 87.3292 90.1289 86.9989C90.2233 86.6686 90.4216 86.3776 90.6944 86.169C90.9673 85.9604 91.3001 85.8453 91.6436 85.8409H93.9127C94.1334 85.7857 94.3642 85.7857 94.5849 85.8409C94.9078 86.0412 95.1405 86.3587 95.2345 86.7269C95.3285 87.0951 95.2764 87.4854 95.0891 87.816C94.9622 88.0278 94.7842 88.2042 94.5713 88.3291C94.3583 88.4539 94.1174 88.5231 93.8706 88.5304V89.0347ZM97.5262 107.609C97.1706 107.801 96.7664 107.883 96.3642 107.847C95.962 107.81 95.5794 107.656 95.264 107.404C94.9486 107.152 94.7144 106.812 94.5905 106.428C94.4666 106.043 94.4585 105.631 94.5672 105.242C94.6759 104.853 94.8964 104.504 95.2017 104.24C95.5069 103.975 95.8832 103.806 96.2836 103.754C96.6841 103.702 97.0913 103.769 97.4541 103.946C97.817 104.123 98.1197 104.403 98.3245 104.751C98.5857 105.239 98.6485 105.808 98.4997 106.341C98.3509 106.873 98.0021 107.328 97.5262 107.609ZM101.728 99.6666L100.761 101.684C100.623 101.941 100.421 102.159 100.173 102.314C99.8033 102.516 99.3697 102.567 98.9628 102.458C98.556 102.348 98.207 102.086 97.9883 101.726C97.8522 101.482 97.7806 101.207 97.7806 100.927C97.7806 100.648 97.8522 100.373 97.9883 100.129L99.2488 98.1958C99.4438 97.867 99.7614 97.6292 100.132 97.5346C100.502 97.44 100.895 97.4965 101.224 97.6915C101.553 97.8865 101.79 98.2042 101.885 98.5746C101.979 98.945 101.923 99.3378 101.728 99.6666ZM106.308 90.2954V90.5475L103.829 95.6323C103.788 95.7588 103.722 95.8759 103.635 95.9769C103.549 96.0778 103.443 96.1607 103.325 96.2207C103.201 96.2965 103.063 96.3469 102.92 96.369C102.776 96.391 102.63 96.3842 102.489 96.349C102.348 96.3138 102.216 96.2508 102.1 96.1638C101.983 96.0769 101.885 95.9676 101.812 95.8425C101.707 95.6796 101.651 95.4899 101.651 95.2961C101.651 95.1024 101.707 94.9128 101.812 94.7499L104.921 89.8752C104.97 89.7172 105.074 89.5826 105.216 89.497C105.307 89.4443 105.407 89.4101 105.511 89.3964C105.615 89.3827 105.721 89.3897 105.823 89.4171C105.924 89.4444 106.019 89.4915 106.103 89.5557C106.186 89.6199 106.256 89.6999 106.308 89.7911C106.39 89.9933 106.39 90.2193 106.308 90.4214V90.2954ZM105.678 85.8829C105.471 85.8692 105.276 85.7793 105.131 85.6308V85.3786L101.98 80.714C101.881 80.6152 101.804 80.497 101.754 80.3667C101.703 80.2365 101.68 80.0972 101.686 79.9576C101.677 79.7103 101.753 79.4673 101.9 79.2686C102.048 79.0698 102.258 78.927 102.498 78.8635C102.737 78.8 102.99 78.8196 103.217 78.9192C103.444 79.0187 103.63 79.1922 103.745 79.4113L106.476 84.5382C106.519 84.6892 106.519 84.8494 106.476 85.0004C106.476 85.1053 106.455 85.2091 106.415 85.306C106.375 85.4028 106.316 85.4909 106.242 85.565C106.168 85.6392 106.08 85.698 105.983 85.7381C105.886 85.7782 105.782 85.7989 105.678 85.7989V85.8829ZM117.611 67.2666C118.168 67.2666 118.702 67.488 119.096 67.882C119.49 68.276 119.711 68.8105 119.711 69.3677C119.711 69.925 119.49 70.4595 119.096 70.8535C118.702 71.2476 118.168 71.4689 117.611 71.4689C117.053 71.4689 116.519 71.2476 116.125 70.8535C115.731 70.4595 115.51 69.925 115.51 69.3677C115.51 68.8105 115.731 68.276 116.125 67.882C116.519 67.488 117.053 67.2666 117.611 67.2666ZM115.846 86.5973C116.093 86.5887 116.336 86.6643 116.535 86.8118C116.734 86.9592 116.876 87.1698 116.94 87.4091C117.003 87.6483 116.984 87.902 116.884 88.1286C116.785 88.3552 116.611 88.5413 116.392 88.6564C116.268 88.7161 116.131 88.7471 115.993 88.7471C115.855 88.7471 115.718 88.7161 115.594 88.6564L109.963 88.3202H109.669C109.568 88.2971 109.474 88.2509 109.394 88.1853C109.314 88.1197 109.25 88.0364 109.207 87.9421C109.147 87.8553 109.105 87.757 109.085 87.6532C109.065 87.5495 109.067 87.4428 109.091 87.3399C109.115 87.2369 109.16 87.1401 109.223 87.0556C109.287 86.9712 109.367 86.901 109.459 86.8495C109.608 86.7909 109.773 86.7909 109.921 86.8495L115.846 86.5973ZM112.358 75.5032L113.409 73.444C113.584 73.1376 113.855 72.8978 114.181 72.762C114.506 72.6262 114.868 72.6019 115.208 72.6931C115.549 72.7843 115.85 72.9858 116.064 73.2661C116.278 73.5463 116.394 73.8897 116.392 74.2425C116.393 74.5414 116.305 74.8338 116.14 75.0829L114.88 76.9319C114.707 77.1887 114.457 77.3844 114.167 77.4912C113.876 77.5979 113.559 77.6103 113.261 77.5265C112.963 77.4427 112.699 77.267 112.507 77.0244C112.315 76.7818 112.204 76.4847 112.19 76.1755C112.127 75.9558 112.127 75.7229 112.19 75.5032H112.358ZM107.652 84.5382L110.342 79.4113C110.432 79.2455 110.566 79.1073 110.729 79.0111C110.892 78.915 111.077 78.8645 111.266 78.865C111.56 78.8648 111.842 78.9786 112.054 79.1823C112.265 79.3861 112.39 79.6641 112.4 79.9576C112.392 80.236 112.288 80.5029 112.106 80.714L108.913 85.3786V85.6308C108.748 85.7739 108.542 85.8621 108.325 85.8829C108.116 85.8728 107.919 85.7853 107.772 85.6377C107.624 85.4902 107.537 85.293 107.526 85.0845C107.468 84.936 107.468 84.7708 107.526 84.6222L107.652 84.5382ZM110.636 96.3467C110.517 96.2868 110.411 96.2039 110.325 96.1029C110.238 96.002 110.173 95.8849 110.132 95.7584L107.652 90.6736V90.4214C107.571 90.2193 107.571 89.9933 107.652 89.7911C107.705 89.6999 107.775 89.6199 107.858 89.5557C107.941 89.4915 108.036 89.4444 108.138 89.4171C108.239 89.3897 108.345 89.3827 108.449 89.3964C108.553 89.4101 108.654 89.4443 108.745 89.497C108.887 89.5924 109.003 89.7226 109.081 89.8752L112.442 94.4557C112.534 94.6231 112.583 94.811 112.583 95.002C112.583 95.193 112.534 95.3809 112.442 95.5483C112.369 95.6735 112.271 95.7827 112.155 95.8697C112.039 95.9567 111.906 96.0196 111.765 96.0548C111.625 96.0901 111.478 96.0968 111.335 96.0748C111.191 96.0528 111.054 96.0024 110.93 95.9265L110.636 96.3467ZM114.039 102.146C113.792 101.991 113.589 101.773 113.451 101.516L112.485 99.4985C112.359 99.2813 112.293 99.0349 112.293 98.7841C112.293 98.5333 112.359 98.2869 112.485 98.0697C112.678 97.7396 112.992 97.498 113.361 97.396C113.73 97.294 114.124 97.3397 114.459 97.5234C114.675 97.6353 114.852 97.8115 114.963 98.0277L116.224 99.9607C116.369 100.202 116.445 100.478 116.445 100.759C116.445 101.04 116.369 101.316 116.224 101.558C116.12 101.74 115.98 101.9 115.814 102.028C115.647 102.157 115.457 102.251 115.254 102.306C115.051 102.36 114.839 102.374 114.631 102.347C114.422 102.32 114.221 102.251 114.039 102.146ZM119.417 106.348C119.137 106.825 118.679 107.172 118.144 107.314C117.609 107.456 117.04 107.38 116.56 107.105C116.32 106.97 116.109 106.788 115.94 106.57C115.771 106.352 115.648 106.102 115.578 105.836C115.507 105.569 115.491 105.292 115.53 105.019C115.569 104.746 115.662 104.483 115.804 104.247C115.935 104.008 116.113 103.798 116.327 103.63C116.541 103.461 116.787 103.338 117.05 103.267C117.313 103.197 117.588 103.18 117.857 103.218C118.127 103.257 118.386 103.349 118.619 103.491C119.103 103.764 119.459 104.219 119.609 104.754C119.758 105.29 119.689 105.863 119.417 106.348ZM123.619 88.4464C123.37 88.6116 123.078 88.6993 122.779 88.6985H120.552C120.302 88.7042 120.056 88.6404 119.841 88.5142C119.626 88.3881 119.45 88.2045 119.333 87.9841C119.235 87.8218 119.17 87.6415 119.142 87.4538C119.115 87.266 119.124 87.0746 119.171 86.8908C119.218 86.7069 119.301 86.5342 119.416 86.3828C119.53 86.2314 119.674 86.1044 119.838 86.009C120.058 85.9481 120.29 85.9481 120.51 86.009H122.821C123.164 86.0134 123.497 86.1284 123.77 86.3371C124.043 86.5457 124.241 86.8368 124.336 87.1671C124.43 87.4974 124.415 87.8492 124.294 88.1705C124.172 88.4918 123.95 88.7654 123.661 88.9506L123.619 88.4464ZM129.376 89.3288C128.901 89.6082 128.335 89.6898 127.801 89.5562C127.266 89.4226 126.806 89.0844 126.518 88.6144C126.376 88.3783 126.283 88.1159 126.244 87.843C126.205 87.5701 126.222 87.2921 126.292 87.0256C126.363 86.7591 126.486 86.5095 126.655 86.2915C126.824 86.0736 127.035 85.8917 127.275 85.7568C127.75 85.4775 128.315 85.3959 128.85 85.5295C129.384 85.6631 129.845 86.0013 130.132 86.4713C130.274 86.7075 130.367 86.9698 130.406 87.2427C130.445 87.5157 130.429 87.7936 130.358 88.0601C130.288 88.3266 130.164 88.5762 129.996 88.7942C129.827 89.0121 129.616 89.1939 129.376 89.3288Z" fill="white"/>
<path d="M70.7158 147.034H68.0268L66.3881 138.587L63.2368 147.244H62.2284L59.077 138.587L57.3962 147.034H54.707L57.8584 131.359H59.3291L62.7326 141.907L66.0519 131.359H67.5226L70.7158 147.034Z" fill="white"/>
<path d="M79.6303 147.03V146.063C79.1676 146.436 78.6408 146.721 78.0757 146.904C77.4937 147.106 76.8847 147.219 76.269 147.24C73.5799 147.24 72.2773 145.811 72.2773 143.038V135.6H74.9244V142.828C74.9244 144.298 75.5966 145.055 76.8991 145.055C77.5034 145.051 78.0967 144.892 78.6219 144.593C79.054 144.33 79.4035 143.952 79.6303 143.5V135.6H82.3194V147.072L79.6303 147.03Z" fill="white"/>
<path d="M85.6758 131.314L88.323 130.684V143.543C88.323 144.972 88.7431 145.812 89.5835 146.064C89.3961 146.452 89.094 146.773 88.7182 146.983C88.3424 147.194 87.9111 147.284 87.4825 147.241C86.264 147.241 85.6758 146.4 85.6758 144.719V131.314Z" fill="white"/>
<path d="M92.0604 137.74H90.7578V135.555H92.0604V133.244L94.7494 132.277V135.555H97.9008V137.74H94.7494V142.741C94.6989 143.341 94.8309 143.941 95.1277 144.464C95.2969 144.647 95.5066 144.788 95.7401 144.876C95.9736 144.964 96.2244 144.995 96.4723 144.968C97.1096 144.971 97.7351 144.796 98.2791 144.464V146.901C97.4195 147.15 96.5264 147.264 95.6319 147.238C95.1482 147.265 94.6641 147.193 94.209 147.027C93.7539 146.86 93.3373 146.603 92.9847 146.271C92.3332 145.499 92.0025 144.506 92.0604 143.498V137.74Z" fill="white"/>
<path d="M101.096 147.029V137.741H99.8359V135.556H104.038V147.029H101.096ZM102.441 131.144C102.85 131.154 103.239 131.322 103.529 131.611C103.818 131.9 103.985 132.29 103.996 132.699C103.996 132.901 103.955 133.101 103.877 133.287C103.798 133.474 103.683 133.642 103.538 133.784C103.393 133.925 103.221 134.035 103.033 134.109C102.845 134.182 102.643 134.217 102.441 134.212C102.24 134.22 102.039 134.187 101.851 134.115C101.663 134.042 101.492 133.932 101.349 133.791C101.06 133.5 100.894 133.109 100.886 132.699C100.883 132.494 100.923 132.292 101.003 132.104C101.082 131.916 101.2 131.746 101.349 131.606C101.485 131.453 101.654 131.332 101.843 131.252C102.032 131.172 102.236 131.135 102.441 131.144" fill="white"/>
<path d="M117.78 132.286L116.645 134.597C115.813 133.902 114.744 133.555 113.662 133.63C113.032 133.626 112.412 133.777 111.855 134.07C111.298 134.364 110.822 134.79 110.469 135.311C109.582 136.527 109.137 138.01 109.208 139.514C109.128 140.934 109.528 142.34 110.343 143.506C110.703 143.985 111.174 144.369 111.716 144.625C112.258 144.881 112.853 145.002 113.452 144.977C114.115 145.011 114.776 144.889 115.382 144.618C115.989 144.348 116.522 143.938 116.939 143.422L118.2 145.649C116.785 146.871 114.961 147.515 113.092 147.453C111.223 147.391 109.446 146.627 108.116 145.313C106.823 143.634 106.182 141.544 106.309 139.43C106.215 137.297 106.936 135.209 108.326 133.588C108.958 132.839 109.751 132.242 110.645 131.842C111.54 131.442 112.514 131.248 113.494 131.277C114.971 131.22 116.433 131.6 117.696 132.37" fill="white"/>
<path d="M127.738 147.029V139.969C127.749 139.328 127.507 138.709 127.066 138.246C126.58 137.817 125.948 137.591 125.301 137.615C124.841 137.622 124.391 137.753 123.998 137.994C123.603 138.155 123.265 138.434 123.032 138.792V147.197H120.301V131.48L123.032 130.85V136.481C123.832 135.816 124.85 135.472 125.889 135.514C126.496 135.482 127.103 135.574 127.674 135.783C128.244 135.993 128.766 136.316 129.209 136.733C129.624 137.191 129.943 137.729 130.145 138.314C130.348 138.899 130.429 139.519 130.385 140.137V147.197L127.738 147.029Z" fill="white"/>
<path d="M139.667 145.901C139.349 146.337 138.911 146.673 138.407 146.867C137.807 147.114 137.165 147.242 136.516 147.246C135.468 147.311 134.434 146.981 133.617 146.321C133.254 145.994 132.968 145.591 132.78 145.14C132.591 144.69 132.504 144.204 132.524 143.716C132.493 143.112 132.615 142.509 132.879 141.966C133.144 141.422 133.542 140.954 134.037 140.606C135.278 139.784 136.752 139.386 138.239 139.471C138.601 139.42 138.969 139.42 139.331 139.471C139.331 138.127 138.491 137.412 136.768 137.412C135.903 137.412 135.046 137.584 134.247 137.916L133.701 135.857C134.732 135.401 135.85 135.171 136.978 135.185C138.363 135.074 139.737 135.511 140.802 136.404C141.783 137.684 142.221 139.299 142.02 140.9V143.338C142.02 144.892 142.357 145.859 142.945 146.237C142.798 146.552 142.546 146.805 142.231 146.952C141.91 146.998 141.584 146.998 141.264 146.952C141.076 146.953 140.89 146.917 140.717 146.845C140.543 146.773 140.386 146.666 140.256 146.531C139.967 146.284 139.75 145.965 139.625 145.607L139.667 145.901ZM139.373 141.404C139.024 141.36 138.671 141.36 138.323 141.404C136.222 141.404 135.171 142.119 135.171 143.506C135.171 144.892 135.76 145.018 136.978 145.018C137.304 145.068 137.637 145.041 137.951 144.938C138.264 144.836 138.549 144.661 138.782 144.427C139.015 144.194 139.19 143.909 139.293 143.596C139.396 143.282 139.423 142.949 139.373 142.623V141.404Z" fill="white"/>
<path d="M145.681 147.029V137.741H144.211V135.556H148.413V147.029H145.681ZM147.068 131.144C147.273 131.135 147.478 131.172 147.667 131.252C147.855 131.332 148.024 131.453 148.161 131.606C148.309 131.746 148.427 131.916 148.507 132.104C148.587 132.292 148.626 132.494 148.623 132.699C148.615 133.109 148.449 133.5 148.161 133.791C147.86 134.06 147.471 134.209 147.068 134.209C146.665 134.209 146.276 134.06 145.976 133.791C145.687 133.5 145.522 133.109 145.514 132.699C145.51 132.494 145.55 132.292 145.63 132.104C145.709 131.916 145.827 131.746 145.976 131.606C146.112 131.453 146.281 131.332 146.47 131.252C146.659 131.172 146.863 131.135 147.068 131.144" fill="white"/>
<path d="M158.869 147.038V140.398C158.933 139.642 158.741 138.887 158.322 138.255C158.079 138.018 157.789 137.836 157.47 137.72C157.151 137.604 156.812 137.557 156.474 137.582C156.035 137.605 155.605 137.72 155.213 137.919C154.813 138.13 154.456 138.415 154.163 138.759V147.164H151.516V135.691H153.406L153.911 136.784C154.325 136.348 154.829 136.006 155.387 135.781C155.945 135.556 156.545 135.454 157.146 135.481C157.741 135.443 158.337 135.532 158.895 135.742C159.453 135.952 159.959 136.279 160.381 136.7C161.196 137.658 161.617 138.89 161.558 140.146V147.164L158.869 147.038Z" fill="white"/>
</g>
<defs>
<clipPath id="clip0_5534_1684">
<rect width="216" height="206.929" fill="white"/>
</clipPath>
</defs>
</svg>
