<svg width="231" height="127" viewBox="0 0 231 127" fill="none" xmlns="http://www.w3.org/2000/svg">
<g clip-path="url(#clip0_580_488)">
<g clip-path="url(#clip1_580_488)">
<path d="M91.1774 68.794C89.9154 68.8889 88.6534 69.022 87.389 69.0725C82.9425 69.2524 78.5207 69.1723 74.296 67.5135C73.0846 67.0378 72.0112 66.3144 71.0696 65.4098C70.9279 65.2743 70.7369 65.1621 70.7061 64.8195C72.7272 65.7906 74.8358 66.1332 76.9925 66.0051C79.1381 65.8781 81.2701 65.57 83.3356 64.8848C83.2851 64.6211 83.0657 64.6408 82.9092 64.5977C81.7495 64.2822 80.6798 63.7621 79.668 63.1336C76.4465 61.1347 75.2499 57.806 76.3492 53.9436C76.4231 53.6811 76.4083 53.3669 76.661 53.1709C76.868 53.2658 76.8348 53.4507 76.8311 53.6023C76.8064 54.7595 77.3289 55.6554 78.1793 56.3801C79.2231 57.2699 80.4568 57.7357 81.8038 57.928C82.1377 57.976 82.245 57.9082 82.1303 57.5361C81.4131 55.2278 81.7249 53.0058 82.7219 50.8429C84.0652 47.9296 86.0679 45.5079 88.3392 43.2859C88.3921 43.2341 88.4636 43.2021 88.609 43.2243C88.3244 43.6815 88.0348 44.1362 87.7562 44.5972C87.071 45.7359 86.5694 46.9313 86.5818 48.2968C86.5855 48.7811 86.7136 49.2285 86.8837 49.6685C86.9379 49.809 86.9675 50.0246 87.1721 50.0185C87.3348 50.0135 87.3606 49.8225 87.4259 49.7005C88.5671 47.5697 89.9758 45.6324 91.7467 43.9859C94.612 41.3215 97.7781 39.0625 101.188 37.1449C101.928 36.7296 102.618 36.2218 103.45 35.9593C102.094 36.9748 100.774 38.0223 99.5256 39.1611C98.2735 40.3035 97.2642 41.6185 96.5235 43.1811C102.884 37.5245 110.674 34.9315 118.64 32.707C114.839 34.3289 111.122 36.0912 107.897 38.7667C115.529 35.1053 123.613 34.0356 131.979 34.5347C127.206 35.0252 122.585 36.101 118.172 38.0495C125.667 37.1054 132.838 37.6329 139.104 42.4651C134.588 40.7694 129.958 40.4021 125.062 41.2155C132.158 43.7949 135.638 48.5926 134.717 56.173C134.156 54.2517 133.439 52.4278 131.908 51.013C130.403 49.6216 128.707 48.6172 126.638 48.0355C128.446 53.8882 126.824 58.9151 123.181 63.4479C121.762 65.2139 120.169 66.8197 117.97 67.7107C120.653 63.9655 122.297 59.9848 121.154 55.2943C120.861 56.0757 120.655 56.8804 120.323 57.647C119.41 59.7581 118.122 61.6251 116.584 63.3172C112.696 67.5961 107.921 70.6081 102.695 72.973C101.817 73.3711 100.942 73.7766 100.003 74.0107C99.7893 74.0637 99.4751 74.2806 99.3469 73.9947C99.2458 73.7716 99.5811 73.6508 99.7499 73.5227C102.301 71.5841 104.686 69.4533 106.922 67.1635C108.007 66.0531 108.908 64.7875 109.636 63.3875C104.968 67.7317 99.5416 70.7547 93.5596 72.8424C87.5788 74.9301 81.4575 75.8334 75.1242 75.1186C80.9349 74.1869 86.2441 71.9945 91.2242 68.9542C91.2082 68.9 91.1921 68.8457 91.1774 68.7915V68.794ZM100.951 56.4799C103.39 56.3406 105.524 55.4472 107.311 53.781C108.14 53.007 108.859 52.132 109.052 50.9526C109.201 50.0443 108.831 49.4417 107.974 49.2581C107.576 49.173 107.154 49.0991 106.755 49.1348C103.604 49.4146 101.037 50.753 99.2187 53.3952C98.8256 53.9658 98.6296 54.603 98.6481 55.3054C98.6605 55.775 98.8786 56.0683 99.3136 56.231C99.8423 56.4281 100.387 56.491 100.954 56.4787L100.951 56.4799Z" fill="#E8E8E8"/>
<path d="M157.504 84.892C157.827 85.1816 158.083 85.0916 158.316 85.1015C159.729 85.1594 161.143 85.0066 162.556 85.2112C165.258 85.6031 167.139 87.7327 167.358 90.4883C167.707 94.8645 163.945 97.8149 160.447 98.0293C155.999 98.3017 151.547 98.0996 147.095 98.16C146.722 98.1649 146.431 98.0429 146.164 97.7791C143.667 95.318 141.161 92.8656 138.658 90.4107C138.122 89.8844 138.106 89.8795 137.909 90.6115C137.297 92.8865 136.685 95.1615 136.104 97.4439C135.989 97.8913 135.775 98.0416 135.337 98.0404C131.952 98.0305 128.566 98.0293 125.181 98.0416C124.704 98.0429 124.471 97.858 124.375 97.3996C124.249 96.7994 124.071 96.2091 123.935 95.6101C123.854 95.2515 123.669 95.1061 123.293 95.1098C121.549 95.1246 119.805 95.1209 118.061 95.1122C117.716 95.111 117.491 95.2527 117.292 95.5239C116.746 96.267 116.172 96.9904 115.626 97.7335C115.399 98.0416 115.13 98.1747 114.741 98.1735C111.213 98.1636 107.683 98.1698 104.155 98.1661C103.49 98.1661 103.466 98.1217 103.636 97.4476C103.889 96.4408 104.144 95.4339 104.341 94.3864C103.732 94.8522 103.161 95.3291 102.532 95.7346C99.562 97.6473 96.2517 98.2709 92.7912 98.2906C89.6313 98.3078 86.4727 98.2746 83.3128 98.2869C82.7792 98.2894 82.3861 98.1316 82.0114 97.7483C79.6292 95.318 77.109 93.027 74.7551 90.5672C74.6343 90.4415 74.5246 90.232 74.309 90.3059C74.1315 90.3675 74.1537 90.5783 74.1142 90.7323C73.5326 92.9728 72.941 95.2121 72.3815 97.4575C72.2336 98.0527 71.944 98.2881 71.3118 98.2832C67.8241 98.2573 64.3364 98.2721 60.8487 98.2709C59.8899 98.2709 59.8764 98.2327 60.1389 97.2874C61.4871 92.4306 62.8267 87.5712 64.1713 82.7131C64.5102 81.4881 64.8479 80.2644 65.1979 79.0431C65.4505 78.1607 65.5146 78.1188 66.4438 78.1188C68.147 78.1188 69.8502 78.1077 71.5521 78.1385C71.8195 78.1434 72.3088 77.9672 72.3223 78.4823C72.3359 79.0024 71.9637 79.133 71.4806 79.1281C69.9426 79.1096 68.4021 79.1453 66.8653 79.1084C66.3267 79.0961 66.1 79.3006 65.9644 79.7911C64.5903 84.7466 63.2026 89.6971 61.8186 94.6489C61.6473 95.2614 61.4711 95.8714 61.3047 96.4839C61.1174 97.1728 61.1236 97.1827 61.8174 97.1851C63.2741 97.1901 64.7308 97.1864 66.1875 97.1864C67.7465 97.1864 69.3067 97.1753 70.8656 97.1925C71.3352 97.1974 71.5484 97.0311 71.6655 96.5591C72.2484 94.1929 72.8634 91.8341 73.482 89.4777C73.7002 88.6446 73.9713 88.583 74.5715 89.1647C77.2347 91.749 79.9053 94.3247 82.5635 96.914C82.8519 97.195 83.1551 97.3059 83.5507 97.3047C87.1 97.2911 90.653 97.3922 94.1973 97.2566C97.9943 97.1112 101.446 95.9182 104.197 93.149C104.906 92.4355 105.49 91.6159 106.015 90.7557C106.105 90.6091 106.12 90.3934 106.451 90.3145C106.19 91.335 105.949 92.2999 105.692 93.2624C105.401 94.3506 105.113 95.4401 104.791 96.5196C104.622 97.0853 104.86 97.195 105.36 97.1938C108.356 97.1827 111.351 97.1827 114.347 97.1938C114.735 97.195 115.006 97.0607 115.232 96.7526C115.738 96.0563 116.276 95.3821 116.774 94.6797C117.011 94.3445 117.291 94.2027 117.702 94.2052C119.754 94.2175 121.805 94.22 123.856 94.204C124.301 94.2003 124.541 94.3555 124.644 94.7881C124.789 95.4055 124.976 96.0131 125.123 96.6318C125.214 97.0188 125.429 97.1543 125.822 97.1531C128.818 97.142 131.812 97.142 134.808 97.1531C135.205 97.1543 135.394 97.0077 135.49 96.6195C136.077 94.2323 136.68 91.8489 137.281 89.4654C137.325 89.2867 137.361 89.1031 137.426 88.9318C137.618 88.4277 137.929 88.3341 138.307 88.7001C139.692 90.0397 141.054 91.4027 142.439 92.7423C143.899 94.1522 145.376 95.5448 146.843 96.9473C147.054 97.1494 147.305 97.1901 147.58 97.1901C151.745 97.1827 155.912 97.2677 160.074 97.1383C162.68 97.057 164.804 95.8554 165.892 93.3672C166.69 91.5432 166.621 89.6589 165.486 87.9594C164.525 86.52 162.995 86.0874 161.364 86.0024C160.239 85.9432 159.108 85.995 157.98 85.9802C157.054 85.9679 156.574 85.6943 156.495 85.1755C156.415 84.6517 156.876 84.1575 157.708 83.9135C158.319 83.7335 158.94 83.6214 159.586 83.6251C161.986 83.6362 164.387 83.6325 166.787 83.63C167.196 83.63 167.601 83.6313 168.01 83.5499C170.066 83.1395 170.547 81.2589 170.618 79.6654C170.64 79.1823 170.271 79.2452 169.97 79.2452C167.488 79.2427 165.005 79.2563 162.523 79.2415C160.675 79.2304 158.825 79.1946 157.022 79.679C155.032 80.2138 153.27 81.1122 152.153 82.9559C152.122 83.0077 152.08 83.057 152.034 83.0939C152.007 83.1149 151.958 83.1087 151.851 83.126C151.956 82.3557 152.178 81.6422 152.427 80.936C152.695 80.1732 152.644 80.0906 151.843 80.0906C150.611 80.0894 149.38 80.1005 148.149 80.0857C147.718 80.0807 147.497 80.2052 147.379 80.6661C146.75 83.1272 146.082 85.5784 145.426 88.0321C145.236 88.742 144.802 88.8726 144.278 88.3526C141.455 85.5501 138.635 82.7415 135.825 79.9255C135.67 79.7702 135.321 79.605 135.495 79.3512C135.666 79.101 136.031 79.1983 136.3 79.2735C136.464 79.3191 136.614 79.4621 136.741 79.589C139.153 81.9909 141.56 84.3978 143.968 86.8034C144.491 87.3272 144.555 87.3149 144.742 86.6112C145.332 84.3732 145.944 82.1401 146.492 79.8909C146.646 79.2575 146.945 79.08 147.555 79.0911C149.299 79.1219 151.043 79.101 152.787 79.1022C153.4 79.1022 153.688 79.4226 153.653 80.0635C154.251 79.8133 154.751 79.4165 155.348 79.2057C156.972 78.6327 158.659 78.3899 160.362 78.3652C163.808 78.3159 167.256 78.3468 170.702 78.348C171.519 78.348 171.533 78.3689 171.542 79.1663C171.552 80.0105 171.483 80.8387 171.213 81.6496C170.579 83.5549 169.34 84.51 167.329 84.5309C164.806 84.558 162.282 84.5321 159.758 84.5469C159.03 84.5506 158.304 84.6307 157.507 84.9006L157.504 84.892Z" fill="#E8E8E8"/>
<path d="M89.5387 96.6972C88.2262 96.6972 86.9137 96.6848 85.6024 96.7033C85.0787 96.7107 84.8975 96.5554 85.0515 96.012C85.6074 94.0426 86.1422 92.0683 86.6721 90.0915C87.4313 87.2632 88.1892 84.4348 88.925 81.6003C89.0544 81.1 89.2836 80.904 89.8135 80.9065C92.6221 80.9238 95.4308 80.8966 98.2394 80.9102C99.6012 80.9164 100.933 81.153 102.214 81.6201C106.213 83.0804 107.549 86.9193 105.322 90.5833C103.689 93.2686 101.259 94.8929 98.2998 95.8382C96.4623 96.4248 94.5878 96.6627 92.6739 96.6762C91.6288 96.6836 90.5825 96.6774 89.5375 96.6774C89.5375 96.6836 89.5375 96.6898 89.5375 96.6972H89.5387ZM95.1498 83.5401C94.3709 83.5401 93.5908 83.5611 92.8132 83.5327C92.3276 83.5142 92.1193 83.7262 92.0158 84.1785C91.7681 85.2556 91.492 86.3266 91.2123 87.3963C90.6823 89.4162 90.1438 91.4348 89.6028 93.4523C89.5227 93.7493 89.4808 93.9847 89.9146 93.9711C91.8383 93.9107 93.767 94.1017 95.6859 93.8208C97.8142 93.509 99.6357 92.6081 101.059 90.985C102.013 89.8968 102.584 88.6188 102.381 87.1535C102.144 85.4208 100.744 84.1255 99.0072 83.7644C97.7255 83.4982 96.4389 83.5414 95.1485 83.5426L95.1498 83.5401Z" fill="#E8E8E8"/>
<path d="M162.959 83.0209C161.488 83.0985 159.844 82.9088 158.211 83.1417C157.682 83.2169 157.16 83.3401 156.693 83.6137C156.097 83.9637 155.743 84.4985 155.814 85.185C155.885 85.8591 156.353 86.2461 157.001 86.447C157.546 86.6158 158.097 86.5677 158.648 86.5875C159.835 86.6318 161.024 86.4901 162.209 86.6774C165.451 87.1901 166.197 90.3549 165.501 92.466C164.735 94.7903 162.689 96.2716 160.201 96.4651C157.595 96.6672 154.997 96.5082 152.397 96.4515C151.189 96.4257 149.978 96.3677 148.773 96.5366C148.341 96.597 148.228 96.3973 148.289 95.9992C148.543 94.3355 149.899 93.2436 151.362 93.3052C153.717 93.4038 156.076 93.2966 158.432 93.4371C159.308 93.4889 160.196 93.4334 161.031 93.092C161.108 93.0612 161.185 93.0341 161.259 92.9996C162.029 92.6373 162.578 91.7697 162.464 91.0955C162.351 90.4177 161.638 89.8841 160.7 89.8237C160.107 89.7855 159.51 89.7867 158.916 89.8003C157.738 89.8274 156.586 89.6463 155.448 89.3739C151.315 88.3831 151.091 85.0396 153.361 82.3924C154.618 80.9271 156.341 80.3466 158.186 80.0669C160.551 79.7082 162.927 79.8586 165.303 79.9202C166.694 79.9559 168.09 80.025 169.481 79.8561C169.895 79.8056 170.022 80.0052 169.986 80.4033C169.844 81.9697 168.793 82.9815 167.187 83.0147C165.834 83.0431 164.481 83.0209 162.959 83.0209Z" fill="#E8E8E8"/>
<path d="M69.2418 96.7845C68.7291 96.7845 68.2165 96.7808 67.7038 96.7845C67.2318 96.7882 67.0987 96.5923 67.2244 96.1264C68.5073 91.3595 69.7705 86.5877 71.0522 81.8196C71.364 80.6599 71.4256 80.6217 72.3031 81.4585C73.9335 83.0137 75.5085 84.6257 77.1119 86.2106C78.3652 87.4504 79.6161 88.6914 80.8843 89.9151C81.2725 90.2898 81.5041 90.1937 81.673 89.5886C82.2005 87.6944 82.7119 85.7953 83.2258 83.8974C83.4353 83.1259 83.6473 82.3556 83.8346 81.5792C83.932 81.1738 84.1464 81.0099 84.5679 81.0086C85.4688 81.0062 86.3709 80.9655 87.2718 80.9322C87.7277 80.9162 87.8867 81.0394 87.7475 81.546C86.4424 86.3055 85.1607 91.0724 83.8716 95.8368C83.8445 95.9354 83.8211 96.0352 83.7902 96.1338C83.5647 96.8646 83.2739 96.9484 82.7193 96.4037C80.7043 94.4183 78.6992 92.4231 76.6904 90.4303C75.8166 89.5639 74.949 88.6926 74.0716 87.8299C73.6205 87.3863 73.4665 87.4146 73.2878 88.0111C73.0056 88.9527 72.7603 89.9053 72.5027 90.8542C72.0862 92.3947 71.5686 93.9081 71.2753 95.4806C71.242 95.6618 71.1705 95.8602 71.2124 96.0266C71.3997 96.7796 70.9733 96.8301 70.4101 96.7907C70.0219 96.7636 69.6313 96.7857 69.2418 96.7857C69.2418 96.7857 69.2418 96.7833 69.2418 96.7821V96.7845Z" fill="#E8E8E8"/>
<path d="M133.055 96.4741C132.604 96.4741 132.153 96.4741 131.702 96.4741C130.908 96.4716 130.878 96.4334 131.085 95.6817C131.605 93.785 132.137 91.8921 132.646 89.9929C133.425 87.0845 134.189 84.1723 134.96 81.2614C134.992 81.1431 135.021 81.0223 135.058 80.9053C135.244 80.326 135.339 80.3174 135.771 80.7475C138.735 83.6966 141.704 86.6421 144.675 89.5838C145.125 90.0299 145.32 89.9671 145.492 89.341C146.239 86.6359 146.992 83.9333 147.716 81.222C147.828 80.8005 148.025 80.6563 148.439 80.6612C149.259 80.6686 150.077 80.6686 150.898 80.5972C151.641 80.5318 151.696 80.6576 151.504 81.3748C150.699 84.3818 149.914 87.3951 149.114 90.4033C148.62 92.2642 148.116 94.1215 147.61 95.9799C147.426 96.654 147.206 96.7095 146.7 96.2079C144.343 93.87 141.991 91.5273 139.632 89.1906C139.064 88.6287 138.484 88.079 137.902 87.5306C137.472 87.1239 137.24 87.172 137.085 87.7352C136.416 90.163 135.733 92.5896 135.196 95.0519C135.135 95.3292 135.041 95.6521 135.127 95.8961C135.315 96.4297 135.091 96.4889 134.654 96.4729C134.121 96.4519 133.588 96.4679 133.054 96.4679V96.4753L133.055 96.4741Z" fill="#E8E8E8"/>
<path d="M125.542 80.8014C126.178 80.8014 126.814 80.7977 127.45 80.8038C127.584 80.8051 127.758 80.7595 127.823 80.9369C127.873 81.07 127.774 81.1785 127.687 81.2561C126.411 82.3998 126.426 83.7086 126.891 85.275C127.88 88.6111 128.687 92.0014 129.569 95.3695C129.599 95.4891 129.63 95.6074 129.66 95.7269C129.826 96.4207 129.79 96.4713 129.079 96.4762C128.177 96.4824 127.273 96.4503 126.372 96.4935C125.796 96.5206 125.567 96.2852 125.477 95.7466C125.38 95.1625 125.197 94.5919 125.075 94.0114C124.998 93.6429 124.795 93.5135 124.427 93.516C122.068 93.5308 119.709 93.5345 117.351 93.5308C117.012 93.5308 116.775 93.6454 116.572 93.9214C116.049 94.6301 115.488 95.3128 114.97 96.0251C114.694 96.4035 114.376 96.6019 113.889 96.5871C113.008 96.56 112.125 96.5846 111.243 96.5797C111.067 96.5797 110.84 96.6253 110.766 96.401C110.708 96.2248 110.873 96.1065 110.974 95.9808C113.412 92.9713 115.852 89.9642 118.288 86.9535C119.733 85.1702 121.191 83.3968 122.602 81.5876C123.044 81.0207 123.505 80.6905 124.252 80.7915C124.675 80.8482 125.112 80.8014 125.542 80.8014ZM121.075 91.0192C121.823 91.0845 122.801 90.891 123.786 90.9218C124.205 90.9354 124.404 90.7825 124.289 90.329C123.934 88.9192 123.591 87.5068 123.241 86.0957C123.203 85.9417 123.213 85.7236 123.044 85.673C122.854 85.6163 122.781 85.832 122.686 85.954C121.496 87.4945 120.311 89.0387 119.124 90.5804C119.05 90.6766 118.931 90.7702 118.981 90.8971C119.049 91.0685 119.226 91.013 119.361 91.0155C119.852 91.0229 120.345 91.0179 121.075 91.0179V91.0192Z" fill="#E8E8E8"/>
<path d="M130.445 92.3957C130.872 90.7726 131.302 89.1508 131.726 87.5277C132.403 84.9323 133.226 82.3751 133.822 79.7575C133.841 79.6774 133.864 79.5985 133.894 79.5221C134.034 79.1746 134.33 79.177 134.618 79.2387C134.989 79.3163 134.878 79.5924 134.813 79.8277C134.376 81.4286 133.931 83.027 133.493 84.6279C132.511 88.224 131.534 91.8202 130.553 95.4163C130.527 95.51 130.486 95.5987 130.45 95.6948C130.171 95.6455 130.193 95.4212 130.152 95.2635C129.179 91.517 128.219 87.7656 127.239 84.0204C127.059 83.3327 127.255 82.7732 127.68 82.2531C128.121 81.7133 128.56 81.1723 129.004 80.6337C129.244 80.3417 129.181 80.1975 128.8 80.1975C126.995 80.1987 125.189 80.2012 123.384 80.1999C123.055 80.1999 122.869 80.407 122.684 80.6362C120.584 83.2341 118.483 85.832 116.38 88.4274C114.433 90.833 112.485 93.2374 110.536 95.6418C110.436 95.7651 110.351 95.9117 110.106 95.9524C110.206 95.0589 110.471 94.2431 110.691 93.4211C111.801 89.2654 112.913 85.111 114.05 80.964C114.201 80.4119 114.055 80.2899 113.526 80.3022C112.275 80.3293 111.023 80.3269 109.772 80.3035C109.294 80.2948 109.078 80.4821 108.961 80.9369C108.413 83.0591 107.837 85.1739 107.272 87.2924C107.241 87.4082 107.241 87.5388 107.082 87.6337C107.12 86.5492 107.003 85.5042 106.483 84.5626C105.308 82.4392 103.479 81.1994 101.119 80.72C99.033 80.2961 96.9293 80.3589 94.8133 80.4082C91.5326 80.4858 88.2495 80.423 84.9664 80.4316C83.2534 80.4366 83.6268 80.227 83.1745 81.8452C82.5781 83.976 82.0506 86.1253 81.4788 88.2623C81.2779 89.014 80.9156 89.1089 80.3585 88.563C77.5302 85.795 74.708 83.0209 71.887 80.2455C71.765 80.1248 71.542 80.0089 71.6443 79.7994C71.7392 79.6059 71.9733 79.6946 72.1483 79.6749C72.6228 79.6207 72.9013 79.9424 73.1922 80.2295C74.9175 81.9253 76.6416 83.6223 78.3633 85.3218C79.0041 85.954 79.6474 86.585 80.276 87.2307C80.6099 87.5733 80.7664 87.5006 80.8638 87.0557C81.374 84.7327 82.0925 82.4638 82.6656 80.158C82.8159 79.5505 83.108 79.4432 83.6503 79.4445C87.9784 79.4593 92.3078 79.4494 96.636 79.4543C97.6601 79.4543 98.6879 79.3804 99.7059 79.5591C101.872 79.9387 103.931 80.5635 105.653 82.0239C106.26 82.5378 106.645 83.2131 107.18 83.9329C107.375 83.2168 107.553 82.5809 107.721 81.9425C107.91 81.229 108.101 80.5167 108.27 79.7994C108.356 79.4334 108.567 79.3027 108.928 79.304C110.876 79.3114 112.826 79.3151 114.774 79.3003C115.29 79.2966 115.33 79.4938 115.223 79.9436C114.527 82.8533 113.701 85.7284 112.933 88.6196C112.619 89.8027 112.291 90.9809 111.931 92.3033C112.656 91.8017 112.994 91.1584 113.432 90.6198C116.409 86.9633 119.36 83.2883 122.314 79.6145C122.525 79.352 122.769 79.2214 123.103 79.2226C125.523 79.2263 127.944 79.2226 130.365 79.2313C130.581 79.2313 130.857 79.2017 130.953 79.4593C131.036 79.6811 130.821 79.8302 130.699 79.9843C129.96 80.916 129.216 81.8427 128.47 82.7695C128.187 83.1219 128.028 83.499 128.148 83.9637C128.878 86.7772 129.604 89.5908 130.33 92.4056C130.368 92.4019 130.406 92.3994 130.445 92.3957Z" fill="#E8E8E8"/>
<path d="M79.9259 41.8164C78.4162 42.3685 77.121 42.9649 75.8898 43.7031C71.5851 46.2862 68.2712 49.7517 66.2759 54.4053C65.168 56.9896 64.627 59.6651 65.3122 62.438C65.9641 65.0778 67.5256 67.1026 69.8659 68.5273C72.0386 69.8496 74.4467 70.3795 76.9201 70.7111C77.259 70.7567 77.5979 70.7801 78.0317 70.9588C77.2171 71.2915 76.4641 71.3334 75.7284 71.3926C73.1182 71.6008 70.5252 71.5922 68.0296 70.6051C64.155 69.0707 61.8134 65.6755 61.8233 61.5051C61.8331 57.7019 63.2627 54.4139 65.5328 51.4303C69.0698 46.7817 73.8342 43.8991 79.205 41.8804C79.3701 41.8188 79.534 41.7141 79.9234 41.8164H79.9259Z" fill="#E8E8E8"/>
<path d="M130.973 36.3872C132.206 35.951 133.48 35.6626 134.773 35.4827C137.385 35.1191 139.971 35.161 142.441 36.248C145.662 37.6652 147.535 40.151 148.133 43.5906C148.812 47.4985 147.787 51.0761 145.819 54.4073C142.699 59.6881 138.119 63.2633 132.485 65.5617C132.166 65.6923 131.832 65.7847 131.403 65.9302C131.56 65.6825 131.74 65.6516 131.89 65.5863C137.22 63.283 141.218 59.5612 143.756 54.3321C145.077 51.6098 145.745 48.7358 145.308 45.6906C144.754 41.8307 142.555 39.2698 139.001 37.7872C136.685 36.821 134.25 36.5906 131.778 36.5511C131.515 36.5474 131.253 36.5511 130.99 36.5511C130.984 36.4969 130.978 36.4427 130.973 36.3885V36.3872Z" fill="#E8E8E8"/>
<path d="M155.015 72.8252C156.081 71.5152 157.135 70.2138 158.197 68.9173C158.573 68.4576 158.993 68.0324 159.347 67.5567C159.717 67.0601 160.177 66.8998 160.782 66.9196C161.867 66.9565 162.956 66.9294 164.043 66.9356C164.223 66.9356 164.446 66.9146 164.533 67.1094C164.609 67.2807 164.446 67.4125 164.347 67.537C164.041 67.9227 163.76 68.3356 163.407 68.672C162.984 69.0738 162.879 69.4866 163.042 70.0449C163.396 71.2601 163.704 72.4888 164.067 73.853C164.475 72.3988 164.846 71.0851 165.211 69.7676C165.408 69.0578 165.604 68.3467 165.782 67.6319C165.902 67.1476 166.152 66.9011 166.687 66.9196C167.568 66.9491 168.451 66.9331 169.333 66.9282C169.803 66.9257 169.945 67.1118 169.818 67.5789C168.978 70.6623 168.151 73.7483 167.332 76.8366C167.207 77.3062 166.966 77.5058 166.465 77.4984C164.804 77.4762 163.142 77.4812 161.48 77.4947C160.991 77.4984 160.755 77.3197 160.641 76.8182C160.385 75.6831 160.523 75.8199 159.367 75.8113C158.895 75.8076 158.418 75.8556 157.952 75.8002C157.264 75.7189 156.797 75.9998 156.488 76.5704C156.089 77.3074 155.502 77.5983 154.667 77.5021C154.14 77.4417 153.601 77.4935 153.068 77.4824C152.914 77.4787 152.705 77.5034 152.679 77.2791C152.659 77.0979 152.803 76.9673 152.951 76.9044C153.117 76.8342 153.305 76.7997 153.486 76.7861C153.772 76.7652 154.066 76.7356 154.346 76.7799C155.221 76.9167 155.85 76.6012 156.283 75.8396C156.553 75.3639 156.97 75.2086 157.522 75.2358C158.402 75.2777 159.287 75.2814 160.167 75.2358C160.751 75.2049 161.084 75.412 161.128 75.9863C161.176 76.6234 161.51 76.7898 162.108 76.7726C163.378 76.7356 164.651 76.7639 165.923 76.759C166.124 76.759 166.334 76.8046 166.604 76.6382C166.061 76.4435 165.563 76.5556 165.083 76.5396C164.362 76.5137 164.319 76.4866 164.512 75.799C165.201 73.3539 165.904 70.9138 166.59 68.4687C166.697 68.0854 166.878 67.8734 167.315 67.8808C169.047 67.9116 168.833 67.7034 168.421 69.2734C167.867 71.3944 167.312 73.5153 166.761 75.6363C166.727 75.7694 166.671 75.9136 166.822 76.1218C167.089 75.1729 167.35 74.2819 167.593 73.3847C168.058 71.6643 168.495 69.9377 168.98 68.2234C169.131 67.6886 169.001 67.5086 168.455 67.5542C168.068 67.5863 167.671 67.5998 167.287 67.5518C166.673 67.4741 166.431 67.7588 166.262 68.3159C165.572 70.5909 165.02 72.9016 164.405 75.1951C164.378 75.2937 164.361 75.396 164.322 75.4909C164.257 75.6535 164.29 75.9271 164.065 75.9296C163.836 75.9321 163.847 75.6659 163.805 75.497C163.407 73.9072 163.016 72.315 162.623 70.724C162.598 70.6241 162.591 70.5182 162.55 70.4257C162.184 69.584 162.286 68.8421 162.985 68.2025C163.126 68.0743 163.34 67.8944 163.248 67.6886C163.149 67.4692 162.88 67.5764 162.686 67.5715C162.152 67.5592 161.614 67.6134 161.087 67.5555C160.387 67.4791 159.942 67.7785 159.525 68.3023C157.914 70.3197 156.274 72.315 154.641 74.3152C154.517 74.4655 154.432 74.675 154.176 74.696C154.107 74.4125 154.261 74.1747 154.309 73.9233C154.424 73.3157 154.314 72.7439 153.872 72.3335C153.469 71.9601 153.575 71.7604 153.932 71.477C154.256 71.2194 154.474 70.8632 154.622 70.4738C155.037 69.3794 154.623 68.4194 153.551 67.9572C153.072 67.7502 152.571 67.6627 152.054 67.6627C149.859 67.6627 147.664 67.6664 145.469 67.6565C145.103 67.6553 144.802 67.7613 144.501 67.9671C143.094 68.9247 141.66 69.844 140.265 70.8176C139.752 71.175 139.402 71.1085 139 70.6697C138.212 69.8083 137.377 68.9875 136.59 68.1261C136.271 67.7773 135.921 67.6368 135.454 67.6541C134.736 67.6812 134.017 67.6824 133.301 67.6541C132.81 67.6344 132.565 67.8044 132.439 68.3011C132.078 69.7307 131.67 71.1491 131.272 72.5701C130.804 74.24 129.331 75.1852 127.608 74.9314C126.658 74.7909 126.061 74.0329 126.28 73.0815C126.612 71.6261 127.033 70.1903 127.416 68.746C127.453 68.6079 127.485 68.4674 127.529 68.3319C127.693 67.8278 127.538 67.6085 126.987 67.6541C126.58 67.6873 126.167 67.6602 125.757 67.6504C125.591 67.6467 125.409 67.6171 125.389 67.4051C125.365 67.1759 125.523 67.0477 125.721 67.0453C126.52 67.0305 127.322 67.0071 128.118 67.0514C128.532 67.0748 128.402 67.4224 128.334 67.6726C128.006 68.8778 127.668 70.0807 127.341 71.2859C127.184 71.859 127.017 72.4296 126.897 73.0113C126.728 73.8382 127.083 74.2696 127.916 74.3053C129.409 74.3694 130.301 73.7285 130.712 72.2583C131.143 70.719 131.565 69.1773 131.955 67.627C132.074 67.1525 132.313 67.0009 132.776 67.0108C133.78 67.0317 134.786 67.0317 135.791 67.0108C136.219 67.0021 136.531 67.1525 136.814 67.4606C137.48 68.1852 138.162 68.8939 138.843 69.605C139.644 70.4417 139.651 70.4467 140.594 69.8194C141.806 69.0134 143.014 68.2 144.215 67.3768C144.586 67.1229 144.971 67.0083 145.424 67.0108C147.578 67.0231 149.732 67.0108 151.885 67.0219C152.313 67.0243 152.749 67.0601 153.168 67.1439C155.252 67.5653 156.07 69.5717 154.895 71.3451C154.587 71.8085 154.629 72.2998 155.019 72.819L155.015 72.8252Z" fill="#E8E8E8"/>
<path d="M64.0979 96.7236C63.5445 96.7236 62.9899 96.71 62.4366 96.7273C61.9794 96.7421 61.8746 96.5917 62.0028 96.1382C62.7755 93.3973 63.5112 90.6466 64.279 87.9046C64.9852 85.3794 65.7259 82.8653 66.4271 80.3389C66.5503 79.894 66.7352 79.6734 67.222 79.6882C68.0822 79.7153 68.9449 79.7018 69.8063 79.6931C70.2204 79.6894 70.4176 79.7966 70.2906 80.2736C69.0274 85.0257 67.7692 89.779 66.5318 94.5373C66.3655 95.1757 66.0031 95.7894 66.2262 96.5067C66.3026 96.7531 66.0278 96.7137 65.8836 96.7162C65.2883 96.726 64.6943 96.7199 64.0991 96.7211L64.0979 96.7236Z" fill="#E8E8E8"/>
<path d="M107.506 96.5833C106.972 96.5833 106.44 96.5808 105.906 96.5833C105.53 96.5858 105.395 96.4576 105.505 96.0558C106.818 91.1916 108.128 86.3273 109.413 81.4557C109.546 80.9528 109.782 80.7939 110.268 80.8074C111.087 80.8308 111.909 80.8358 112.729 80.8025C113.296 80.7791 113.392 80.996 113.254 81.5C112.551 84.0683 111.849 86.6366 111.187 89.2148C110.642 91.3358 109.944 93.4173 109.564 95.5801C109.549 95.6602 109.506 95.7514 109.528 95.8204C109.817 96.7164 109.201 96.5931 108.678 96.5845C108.289 96.5784 107.899 96.5833 107.508 96.5833H107.506Z" fill="#E8E8E8"/>
<path d="M122.517 76.5171C122.81 75.8577 122.939 75.1503 123.131 74.4602C123.158 74.3628 123.171 74.2445 123.287 74.2162C123.42 74.1854 123.46 74.2951 123.486 74.3949C123.998 76.4148 125.596 76.8942 127.352 76.9669C129.803 77.068 131.902 76.257 133.4 74.2039C133.443 74.1447 133.514 74.1028 133.712 73.9303C133.484 74.7979 133.324 75.504 133.107 76.1942C132.953 76.6847 133.065 76.9028 133.593 76.8609C133.674 76.8547 133.756 76.8609 133.839 76.8609C135.094 76.865 135.867 76.2431 136.158 74.9951C136.362 74.1386 136.592 73.2882 136.804 72.4329C136.911 71.9979 137.091 71.9141 137.409 72.2727C137.775 72.688 138.17 73.0787 138.518 73.5076C138.818 73.8773 139.089 73.8674 139.455 73.6C140.084 73.1415 140.742 72.7225 141.389 72.2887C141.487 72.2222 141.582 72.1334 141.8 72.2012C141.627 72.9099 141.461 73.6185 141.279 74.3234C141.105 74.9975 140.922 75.6704 140.728 76.3396C140.617 76.7229 140.75 76.8646 141.139 76.8634C144.133 76.856 147.128 76.8819 150.123 76.84C151.048 76.8264 151.938 76.5294 152.753 76.0562C152.882 75.981 152.992 75.8171 153.231 75.9181C152.952 76.4357 152.643 76.8905 152.069 77.1062C151.349 77.3773 150.598 77.4857 149.838 77.4882C146.761 77.4993 143.685 77.4944 140.607 77.4919C139.785 77.4919 139.756 77.4537 139.97 76.6489C140.186 75.8368 140.418 75.0296 140.641 74.2199C140.689 74.0461 140.806 73.8341 140.634 73.706C140.478 73.5889 140.341 73.7873 140.212 73.8724C139.322 74.4549 138.51 74.3756 137.775 73.6345C137.651 73.51 137.547 73.2734 137.35 73.3326C137.133 73.3967 137.141 73.6628 137.088 73.8539C136.807 74.8595 136.522 75.8639 136.266 76.8757C136.151 77.3305 135.907 77.5141 135.437 77.5005C134.618 77.4759 133.797 77.4968 132.976 77.4931C132.143 77.4894 132.099 77.4266 132.318 76.5984C132.349 76.4801 132.384 76.3618 132.416 76.2447C132.295 76.1202 132.227 76.2447 132.154 76.2928C130.158 77.6102 128 77.9491 125.686 77.3711C124.944 77.1863 124.335 76.787 123.799 76.2657C123.579 76.0525 123.459 75.9391 123.319 76.3507C122.932 77.4981 122.915 77.4931 121.677 77.4931C121.041 77.4931 120.405 77.5005 119.769 77.4894C119.122 77.4783 119.054 77.3908 119.218 76.7475C119.441 75.8738 119.684 75.0062 119.913 74.1336C119.952 73.9845 120.072 73.8342 119.898 73.6123C119.458 73.8847 118.997 74.1398 118.572 74.4442C118.215 74.6993 117.953 74.6636 117.677 74.3357C117.441 74.0535 117.156 73.8132 116.915 73.5334C116.595 73.1625 116.484 73.3092 116.382 73.6937C116.1 74.7621 115.778 75.822 115.507 76.893C115.388 77.365 115.12 77.5067 114.665 77.4968C113.804 77.4771 112.943 77.4796 112.081 77.4956C111.577 77.5042 111.36 77.3711 111.524 76.8104C112.022 75.1011 112.489 73.3831 112.956 71.6639C113.407 70.0039 113.841 68.3389 114.292 66.6776C114.352 66.4546 114.325 66.1243 114.619 66.0725C114.86 66.0294 114.981 66.3092 115.131 66.4657C116.242 67.6155 117.356 68.7629 118.442 69.9349C118.789 70.3095 119.061 70.3428 119.487 70.0482C121.405 68.7136 123.342 67.4048 125.28 66.0984C125.443 65.9887 125.655 65.6831 125.841 65.9296C125.991 66.128 125.788 66.4139 125.602 66.5655C125.156 66.9254 124.69 67.263 124.217 67.5859C122.642 68.6618 121.053 69.7155 119.487 70.8037C119.036 71.1167 118.721 71.1229 118.329 70.6977C117.345 69.6268 116.312 68.5989 115.31 67.544C114.998 67.2162 114.836 67.157 114.691 67.6845C113.905 70.5695 113.097 73.4472 112.286 76.3248C112.176 76.7155 112.298 76.8683 112.685 76.8547C112.706 76.8547 112.726 76.8547 112.747 76.8547C114.19 76.9213 115.093 76.257 115.454 74.862C115.659 74.0683 115.853 73.2734 116.052 72.4785C116.167 72.0213 116.359 71.9301 116.694 72.3183C117.042 72.7213 117.421 73.0984 117.76 73.5076C118.029 73.8317 118.253 73.9093 118.629 73.6246C119.249 73.1539 119.914 72.7459 120.565 72.3146C120.68 72.2382 120.808 72.0989 120.949 72.1963C121.089 72.2924 121.012 72.4637 120.978 72.5968C120.661 73.8268 120.354 75.0604 120.013 76.2829C119.892 76.7167 119.971 76.8856 120.444 76.8597C120.956 76.8313 121.47 76.851 121.982 76.8523C122.241 76.8523 122.487 76.8387 122.526 76.5011L122.521 76.5072L122.517 76.5171Z" fill="#E8E8E8"/>
<path d="M147.216 76.6207C146.114 76.6207 145.233 76.6096 144.352 76.6256C143.855 76.6343 143.684 76.4556 143.822 75.9577C144.497 73.5114 145.159 71.0626 145.823 68.6138C145.958 68.1184 146.228 67.8744 146.787 67.883C148.488 67.9126 150.188 67.888 151.889 67.8991C152.215 67.9015 152.544 67.9508 152.862 68.0186C153.618 68.1788 154.298 68.4894 154.472 69.3299C154.648 70.1765 154.25 70.8358 153.622 71.3732C153.544 71.4397 153.459 71.5026 153.367 71.5432C152.829 71.7836 152.866 71.9881 153.348 72.2925C154.003 72.7054 154.185 73.3031 153.981 74.0512C153.616 75.3785 152.232 76.3496 150.495 76.5357C149.329 76.6601 148.162 76.601 147.217 76.6207H147.216ZM149.048 72.8496C149.048 72.8496 149.048 72.8397 149.048 72.8348C148.885 72.8348 148.721 72.8348 148.557 72.8348C146.822 72.8348 146.834 72.8385 146.38 74.5293C146.257 74.9878 146.391 75.1258 146.834 75.1196C147.899 75.1061 148.963 75.1283 150.027 75.1061C150.563 75.095 151.094 75.0001 151.494 74.5848C151.786 74.2804 152.005 73.9464 151.845 73.4855C151.685 73.0233 151.32 72.8705 150.89 72.8557C150.276 72.8336 149.662 72.8496 149.048 72.8496ZM149.789 69.3841V69.3792C149.523 69.3792 149.257 69.3792 148.991 69.3792C147.63 69.3792 147.646 69.3829 147.374 70.7459C147.286 71.1846 147.385 71.351 147.837 71.3436C148.84 71.3276 149.843 71.335 150.847 71.3374C151.21 71.3374 151.533 71.2204 151.813 70.9985C152.139 70.741 152.344 70.407 152.218 69.983C152.092 69.5566 151.762 69.3792 151.323 69.3829C150.812 69.3878 150.299 69.3829 149.788 69.3829L149.789 69.3841Z" fill="#E8E8E8"/>
<path d="M78.8321 64.201C78.0804 64.2848 77.3816 64.063 76.6853 63.8411C74.6371 63.1867 72.8661 62.1219 71.6756 60.2795C70.2041 58.0008 70.2485 55.5964 71.2246 53.1575C72.1094 50.9466 73.6573 49.2299 75.4455 47.7227C77.7488 45.7792 80.4145 44.4852 83.2577 43.535C83.355 43.5029 83.4561 43.4832 83.5571 43.466C83.5929 43.4598 83.6323 43.4795 83.7654 43.5079C83.074 43.9047 82.4455 44.2646 81.817 44.6281C78.9997 46.2549 76.5929 48.329 74.9415 51.1635C73.3024 53.9758 72.7909 56.9533 74.0209 60.0639C74.7788 61.9815 76.2219 63.2336 78.1457 63.9459C78.3737 64.0309 78.6017 64.116 78.8297 64.201H78.8321Z" fill="#E8E8E8"/>
<path d="M129.61 64.2394C130.751 63.4014 131.901 62.5806 132.945 61.6317C135.581 59.2371 137.37 56.3669 137.354 52.7079C137.337 48.9097 135.658 45.8977 132.548 43.6967C132.368 43.5697 132.147 43.4933 131.996 43.2468C132.486 43.1667 132.879 43.3996 133.277 43.5377C136.267 44.5692 138.593 46.3746 139.749 49.4002C140.746 52.0091 140.194 54.4715 138.816 56.8093C137.275 59.4245 135.063 61.3334 132.478 62.8468C131.562 63.3829 130.625 63.8833 129.61 64.2394Z" fill="#E8E8E8"/>
<path d="M122.519 76.4951C121.981 76.6996 121.423 76.5899 120.875 76.606C120.373 76.6208 120.223 76.373 120.357 75.8998C120.71 74.66 121.047 73.4153 121.398 72.1755C121.465 71.9401 121.56 71.7146 121.511 71.4607C121.315 71.3757 121.2 71.526 121.074 71.6098C120.372 72.0708 119.677 72.5428 118.977 73.0049C118.205 73.5139 118.2 73.5151 117.587 72.8644C117.249 72.507 116.934 72.1287 116.592 71.7774C116.46 71.6407 116.353 71.3806 116.114 71.4718C115.937 71.5396 115.939 71.7762 115.893 71.9525C115.578 73.1811 115.265 74.4098 114.941 75.6361C114.704 76.5283 113.77 76.9436 112.909 76.5604C112.656 76.4482 112.663 76.2646 112.72 76.0526C113.421 73.4436 114.125 70.8347 114.825 68.2257C114.937 67.8054 115.122 67.7894 115.408 68.0901C116.354 69.0834 117.325 70.0546 118.25 71.0688C118.628 71.4829 118.921 71.526 119.387 71.1982C120.929 70.1149 122.498 69.0711 124.062 68.0174C124.219 67.9114 124.383 67.665 124.583 67.8104C124.752 67.9336 124.578 68.1517 124.532 68.3206C123.857 70.831 123.179 73.3401 122.493 75.8468C122.43 76.076 122.413 76.2855 122.515 76.5012L122.52 76.4951H122.519Z" fill="#E8E8E8"/>
<path d="M142.193 71.4156C141.251 71.932 140.405 72.5716 139.55 73.1915C139.108 73.5131 138.85 73.5218 138.505 73.0732C138.132 72.5888 137.658 72.1846 137.248 71.7274C136.921 71.3614 136.768 71.4661 136.658 71.8864C136.319 73.1927 135.972 74.4978 135.623 75.8017C135.54 76.1098 135.541 76.5152 135.138 76.5806C134.616 76.6656 134.075 76.7013 133.557 76.5461C133.36 76.4869 133.412 76.2774 133.455 76.1172C134.146 73.5476 134.833 70.9769 135.539 68.411C135.698 67.833 135.903 67.8059 136.334 68.2582C137.21 69.1763 138.095 70.0883 138.949 71.0274C139.339 71.4563 139.633 71.5684 140.178 71.1802C141.611 70.1573 143.105 69.2195 144.577 68.2533C144.759 68.135 144.956 67.886 145.168 68.0191C145.403 68.1658 145.211 68.4418 145.16 68.6378C144.596 70.8167 144.013 72.9906 143.436 75.167C143.383 75.3654 143.325 75.5614 143.28 75.761C143.149 76.3394 142.778 76.6299 142.166 76.6323C141.337 76.6348 141.033 76.2326 141.251 75.4258C141.568 74.2612 141.892 73.0991 142.206 71.9332C142.246 71.7853 142.327 71.6263 142.193 71.4181V71.4156Z" fill="#E8E8E8"/>
<path d="M126.125 67.8919C126.327 67.8919 126.471 67.8981 126.614 67.8919C127.117 67.866 127.28 68.0842 127.148 68.571C126.821 69.7775 126.514 70.9889 126.192 72.1967C126.086 72.5935 125.973 72.9866 125.978 73.4032C125.991 74.4495 126.68 75.1815 127.728 75.2555C129.624 75.391 131.014 74.4076 131.536 72.5713C131.912 71.2514 132.321 69.9401 132.67 68.6129C132.817 68.0546 133.092 67.866 133.666 67.8796C134.986 67.9116 134.987 67.8833 134.64 69.1391C134.34 70.2248 133.984 71.2995 133.753 72.4012C133.385 74.1623 132.312 75.3183 130.748 76.0528C129.133 76.812 127.45 77.0104 125.726 76.4176C124.143 75.8729 123.445 74.6701 123.833 73.0544C124.211 71.4819 124.666 69.9278 125.074 68.3614C125.246 67.6997 125.776 67.9585 126.126 67.8944L126.125 67.8919Z" fill="#E8E8E8"/>
<path d="M162.614 76.5307C162.41 76.5307 162.204 76.5246 161.999 76.532C161.657 76.5443 161.465 76.394 161.405 76.0501C161.367 75.8295 161.285 75.6163 161.238 75.3969C161.168 75.0704 160.993 74.9114 160.641 74.9151C159.432 74.9262 158.223 74.9237 157.014 74.9151C156.719 74.9139 156.503 75.0235 156.345 75.2675C156.268 75.3871 156.153 75.4881 156.094 75.6151C155.581 76.7131 154.604 76.5874 153.67 76.516C153.173 76.4778 153.438 76.2165 153.59 76.0304C154.839 74.4862 156.085 72.9408 157.343 71.404C158.174 70.391 159.039 69.4051 159.853 68.3785C160.155 67.9977 160.486 67.8461 160.956 67.8744C161.404 67.9028 161.856 67.8781 162.307 67.8855C162.66 67.8904 162.802 68.047 162.513 68.3193C161.956 68.8455 161.953 69.4704 162.124 70.1359C162.609 72.0177 163.102 73.8984 163.593 75.779C163.778 76.4852 163.752 76.5209 163.043 76.532C162.9 76.5344 162.756 76.532 162.613 76.532V76.5295L162.614 76.5307ZM159.146 73.5348C159.581 73.5348 159.929 73.5262 160.275 73.5373C160.7 73.5508 160.813 73.361 160.713 72.9654C160.543 72.2925 160.397 71.6147 160.236 70.9394C160.209 70.8285 160.221 70.6658 160.066 70.6485C159.93 70.6337 159.864 70.7681 159.79 70.8605C159.406 71.3374 159.007 71.8045 158.653 72.3024C158.388 72.6734 157.799 73.0468 157.972 73.43C158.11 73.7381 158.796 73.4843 159.148 73.536L159.146 73.5348Z" fill="#E8E8E8"/>
<path d="M151.191 85.6094C151.399 86.3106 151.424 87.0044 151.784 87.6305C152.485 88.8518 153.645 89.436 154.892 89.8932C156.243 90.3886 157.654 90.4342 159.074 90.3997C159.647 90.3861 160.223 90.3775 160.793 90.4293C161.281 90.4724 161.721 90.6548 161.806 91.2377C161.89 91.8157 161.673 92.2458 161.138 92.4861C160.512 92.7683 159.829 92.8768 159.162 92.8719C157.177 92.8571 155.19 92.7942 153.206 92.7092C151.955 92.6562 150.704 92.5034 149.559 93.1997C149.461 93.2601 149.328 93.3426 149.227 93.2231C149.121 93.0986 149.201 92.9458 149.237 92.8127C149.642 91.3117 150.054 89.8118 150.462 88.312C150.707 87.4111 150.948 86.5103 151.191 85.6094ZM151.197 88.5412C150.956 89.4162 150.729 90.1988 150.523 90.9863C150.316 91.7824 150.325 91.7824 151.126 91.7578C151.371 91.7504 151.618 91.7504 151.863 91.7578C154.235 91.8305 156.609 91.9032 158.981 91.9809C159.457 91.9969 159.92 91.9192 160.384 91.8391C160.582 91.8046 160.842 91.759 160.838 91.5113C160.833 91.2081 160.545 91.2882 160.36 91.2833C159.808 91.2685 159.255 91.2771 158.701 91.2747C155.911 91.2673 153.359 90.5907 151.197 88.5412Z" fill="#E8E8E8"/>
<path d="M72.477 99.002H59.1548C59.1548 98.9835 59.1548 98.965 59.1548 98.9453H72.4979C72.4918 98.9638 72.4844 98.9823 72.4782 99.002H72.477Z" fill="#E8E8E8"/>
<path d="M102.849 98.8125H115.593C115.593 98.8298 115.593 98.8482 115.593 98.8655H102.849C102.849 98.8482 102.849 98.8298 102.849 98.8125Z" fill="#E8E8E8"/>
<path d="M92.698 93.4904C92.1643 93.4904 91.6319 93.4916 91.0983 93.4904C90.2504 93.4867 90.2073 93.4473 90.4267 92.6105C90.8383 91.0453 91.2696 89.4864 91.6948 87.9261C91.9807 86.8798 92.2777 85.836 92.5538 84.7872C92.6474 84.4323 92.7904 84.2019 93.2131 84.2154C94.9532 84.2709 96.6959 84.1218 98.4335 84.3473C100.685 84.6381 102.168 86.2834 101.821 88.217C101.526 89.8672 100.584 91.123 99.1693 91.9659C97.296 93.0813 95.8997 93.5791 92.6967 93.4916L92.698 93.4904ZM95.5657 85.1496C94.9927 85.1496 94.4184 85.1557 93.8453 85.1471C93.5582 85.1434 93.4029 85.2494 93.3253 85.5427C92.7534 87.676 92.1693 89.8043 91.5851 91.9339C91.4902 92.2814 91.5642 92.5106 91.9709 92.4996C93.4386 92.4564 94.9224 92.6696 96.3668 92.2383C98.1205 91.7158 99.6955 90.9246 100.575 89.2091C101.449 87.5059 100.842 86.0837 99.0325 85.4798C97.9024 85.1027 96.7316 85.1582 95.5657 85.1496Z" fill="#E8E8E8"/>
<path d="M121.849 90.51C121.44 90.51 121.029 90.5223 120.62 90.5063C120.295 90.494 120.141 90.3473 120.382 90.0429C121.044 89.2098 121.711 88.3804 122.385 87.5559C122.575 87.3242 122.783 87.3107 122.87 87.6397C123.081 88.4309 123.271 89.2271 123.464 90.0219C123.542 90.3411 123.373 90.4915 123.077 90.5013C122.668 90.5149 122.259 90.505 121.849 90.505C121.849 90.5063 121.849 90.5087 121.849 90.51Z" fill="#E8E8E8"/>
<path d="M148.677 74.7825C148.145 74.7825 147.612 74.7849 147.079 74.7825C146.762 74.78 146.663 74.642 146.716 74.3117C146.897 73.1766 147.021 73.0583 148.163 73.0596C148.88 73.0596 149.598 73.0546 150.314 73.067C150.556 73.0719 150.807 73.0978 151.038 73.1643C151.297 73.2383 151.537 73.3751 151.585 73.6844C151.633 74.0036 151.476 74.2353 151.239 74.4251C150.922 74.6802 150.551 74.7812 150.151 74.7849C149.659 74.7886 149.167 74.7849 148.676 74.7849L148.677 74.7825Z" fill="#E8E8E8"/>
<path d="M149.898 69.7155C150.39 69.7155 150.881 69.7106 151.373 69.718C151.606 69.7217 151.834 69.7722 151.919 70.0298C152.01 70.3107 151.929 70.5585 151.707 70.7482C151.415 70.9997 151.069 71.1056 150.685 71.1044C149.907 71.1019 149.128 71.118 148.35 71.0982C148.105 71.0921 147.667 71.2449 147.734 70.763C147.791 70.3563 147.73 69.7808 148.362 69.7254C148.87 69.681 149.386 69.7167 149.898 69.7167V69.7155Z" fill="#E8E8E8"/>
</g>
</g>
<defs>
<clipPath id="clip0_580_488">
<rect width="231" height="127" fill="white"/>
</clipPath>
<clipPath id="clip1_580_488">
<rect width="113.75" height="71.6021" fill="white" transform="translate(58.625 27.5391)"/>
</clipPath>
</defs>
</svg>
