<svg width="238" height="46" viewBox="0 0 238 46" fill="none" xmlns="http://www.w3.org/2000/svg">
<path d="M0.568596 45.8673C0.568596 45.705 0.539062 45.5279 0.539062 45.3657C0.539062 39.5827 0.539062 33.785 0.539062 28.0021C0.539062 27.884 0.539062 27.7807 0.539062 27.6627C0.657082 27.4709 0.598085 27.2644 0.598085 27.0579C0.598085 22.0273 0.598085 17.0114 0.598085 11.9808C0.598085 11.2874 0.671862 11.2137 1.35048 11.1842C1.70454 11.1694 2.0586 11.1842 2.41266 11.1842C12.1345 11.1842 21.8712 11.1842 31.5931 11.1842C32.0356 11.1842 32.493 11.1989 32.9355 11.1547C33.1273 11.1252 33.3043 11.1547 33.4666 11.2727C33.7026 11.8186 33.8354 12.3939 33.7027 12.9987C33.6289 13.3528 33.6731 13.7217 33.6879 14.0905C33.7174 16.4951 33.7174 18.9145 33.6879 21.3191C33.6879 21.6585 33.5994 21.9387 33.3191 22.1453C32.8027 22.3076 32.4635 22.7059 32.0651 23.0452C31.7258 23.3402 31.4308 23.3255 31.239 22.9566C30.8554 22.2338 30.1916 22.0863 29.5277 22.2043C28.3475 22.3961 27.6246 22.0715 27.1231 20.9208C26.5772 19.6521 25.5888 18.7375 24.2168 18.3244C23.8185 18.2064 23.4202 18.1326 23.0071 18.1916C22.3285 18.2949 22.0187 18.6785 22.1072 19.3424C22.2252 20.2128 22.7416 20.8324 23.4792 21.2749C23.8185 21.4815 24.1726 21.629 24.5266 21.7912C25.0725 22.042 25.1462 22.337 24.7479 22.7649C24.3201 23.2222 23.907 23.7091 23.3612 24.0484C23.1104 24.1959 22.8596 24.2992 22.5793 24.1222C22.3137 23.9451 22.3432 23.6795 22.358 23.414C22.3727 23.2517 22.417 23.0895 22.4022 22.9124C22.3727 22.3666 22.0334 22.0715 21.4876 22.0715C20.9418 22.0715 20.4844 22.3075 20.0271 22.5878C19.083 23.1927 18.2273 23.9008 17.4454 24.6974C17.1356 25.022 16.811 25.3319 16.398 25.5237C16.1767 25.6269 15.9407 25.7596 15.7341 25.5383C15.5129 25.317 15.6456 25.0811 15.7784 24.8745C16.221 24.2107 16.6783 23.5616 17.1799 22.9272C17.3126 22.7649 17.5782 22.5584 17.4159 22.3666C17.2241 22.1453 16.9586 22.3518 16.7668 22.4846C15.9554 23.0747 15.2325 23.7828 14.5539 24.5204C13.713 25.4351 12.7836 26.217 11.6624 26.7776C11.5149 26.8513 11.3674 26.9251 11.1904 26.9546C10.3495 27.1169 9.89217 26.6595 10.0249 25.8186C10.0544 25.6269 10.1282 25.4498 10.202 25.2876C11.751 22.219 13.9933 19.9915 17.4159 19.1358C17.947 19.003 18.4928 19.0472 19.0239 19.0767C19.7763 19.1062 20.0271 18.6194 20.2632 17.9998C20.3812 17.6753 20.1156 17.6163 19.8648 17.6458C19.4222 17.7048 18.9797 17.7786 18.5519 17.9113C15.8227 18.708 13.2852 19.8734 11.0871 21.7027C9.96593 22.6321 8.96274 23.6795 8.25463 24.9777C8.03334 25.376 7.87105 25.7892 7.78254 26.2317C7.576 27.2349 8.03335 27.8103 9.05127 27.884C9.74464 27.9283 10.379 27.7069 10.9986 27.4709C11.1609 27.4119 11.2936 27.3234 11.4707 27.2791C11.6772 27.2201 11.8837 27.1906 12.0313 27.3972C12.164 27.5889 12.1198 27.7807 12.0018 27.9578C11.7657 28.2971 11.5149 28.6216 11.1756 28.8576C10.7331 29.1674 10.2462 29.4182 9.7889 29.6985C9.5381 29.8461 9.30203 29.8756 9.06599 29.6691C8.69718 29.5658 8.32837 29.5658 7.95956 29.5511C6.01223 29.5511 4.05015 29.5511 2.10282 29.5511C1.14391 29.5511 0.937394 29.7576 0.922641 30.746C0.922641 35.393 0.922641 40.0401 0.922641 44.6871C0.922641 45.0559 0.996411 45.4395 0.745619 45.764C0.686609 45.823 0.627592 45.8378 0.553829 45.8083L0.568596 45.8673Z" fill="#9B9B9B"/>
<path d="M33.4368 11.3464C32.9647 11.4497 32.4778 11.4645 31.991 11.4645C21.856 11.4645 11.7211 11.4645 1.60088 11.4645C0.981278 11.4645 0.671514 11.7743 0.671514 12.3939C0.671514 17.218 0.671514 22.0273 0.671514 26.8513C0.671514 27.1316 0.715746 27.4119 0.553469 27.6627C0.553469 23.0452 0.553469 18.4277 0.553469 13.8102C0.553469 9.67948 0.553469 5.54875 0.553469 1.41805C0.553469 0.886962 0.715763 0.709961 1.2616 0.709961C11.8686 0.709961 22.4609 0.709961 33.0679 0.709961C33.2007 0.709961 33.3335 0.709885 33.4515 0.724638C33.6433 0.901668 33.6138 1.12302 33.6138 1.34431C33.6138 4.47183 33.6138 7.58457 33.6138 10.7121C33.6138 10.9334 33.658 11.1694 33.4515 11.3317L33.4368 11.3464Z" fill="#A4A4A4"/>
<path d="M61.4084 20.7737C61.2166 22.898 61.0101 25.0371 60.8183 27.1615C60.6707 28.7695 60.4347 30.3775 60.0069 31.9413C59.8003 32.6789 59.5496 33.4018 59.107 34.0361C58.8414 34.4344 58.5021 34.7295 58.0153 34.8475C57.0859 35.054 56.6581 34.7737 56.5695 33.8443C56.3188 31.2774 56.4663 28.7105 56.6138 26.1436C56.8351 22.2342 57.2039 18.3542 57.9268 14.5038C58.1186 13.5154 58.3546 12.5418 58.7087 11.5977C58.9595 10.9338 59.284 10.4026 60.0954 10.3436C60.9216 10.2846 61.3788 10.742 61.7182 11.3911C62.8983 13.6482 63.9753 15.9644 64.9637 18.31C66.0406 20.8622 67.1028 23.4291 68.1797 25.9813C68.2388 26.1141 68.2978 26.2468 68.46 26.3648C68.5633 25.4502 68.6666 24.5355 68.7403 23.6061C69.0944 19.8295 69.4337 16.0528 69.7878 12.2614C69.8173 11.9221 69.8763 11.5976 69.9501 11.2731C70.1713 10.4027 70.6729 10.0191 71.5876 9.96006C72.7235 9.8863 73.3726 10.4174 73.3431 11.5386C73.1661 18.1329 72.7383 24.6978 71.322 31.1594C71.1745 31.8527 70.9532 32.5166 70.7614 33.21C70.5106 34.0804 70.1271 34.7885 69.0944 34.9213C68.0027 35.0541 67.2356 34.6705 66.7193 33.6821C65.7161 31.72 64.8457 29.7136 64.0491 27.663C63.2229 25.5092 62.441 23.3406 61.6296 21.172C61.5854 21.0392 61.5116 20.9064 61.4674 20.7737H61.3789H61.4084Z" fill="#A8A8A8"/>
<path d="M37.5831 0.739495C40.15 0.739495 42.7317 0.739495 45.2986 0.739495C45.3872 0.872267 45.3429 1.03462 45.3429 1.18214C45.3429 6.83234 45.3429 12.4678 45.3429 18.118C45.2249 18.413 44.9593 18.4425 44.6938 18.4425C42.6137 18.4572 40.5336 18.472 38.4387 18.4425C38.2174 18.4425 37.9814 18.4425 37.8634 18.2212C38.0109 18.7523 37.9224 19.3277 37.9519 19.8883C37.9814 20.5079 37.8634 21.1569 38.1732 21.747C38.2322 21.8503 38.2027 21.9683 38.1142 22.0568C37.9076 22.2191 37.7011 22.2044 37.4946 22.0568C37.2585 21.747 37.288 21.393 37.288 21.0389C37.288 18.9441 37.229 16.8344 37.288 14.7396C37.4208 10.3581 37.3765 5.97667 37.3913 1.60993C37.3913 1.31488 37.3175 1.00507 37.5683 0.769028L37.5831 0.739495Z" fill="#626262"/>
<path d="M142.001 23.7534C142.001 25.3466 142.518 27.1464 143.536 28.7987C143.934 29.4478 144.332 30.0969 144.716 30.7608C145.114 31.4394 145.35 32.1918 145.453 32.9737C145.911 36.3962 142.68 39.0959 139.375 38.078C138.638 37.8567 138.033 37.4584 137.576 36.824C137.34 36.4847 137.236 36.1159 137.295 35.7176C137.354 35.334 137.561 35.0537 137.944 34.98C138.343 34.8915 138.623 35.0832 138.815 35.4373C138.903 35.5996 138.977 35.7766 139.051 35.9389C139.257 36.352 139.611 36.5142 140.069 36.47C140.541 36.4257 140.895 36.2192 141.028 35.7471C141.219 35.0833 141.205 34.4194 140.983 33.7703C140.644 32.7376 140.113 31.7935 139.597 30.8493C138.387 28.5922 137.694 26.2465 138.225 23.6649C138.756 21.0979 140.01 19.1948 142.68 18.472C143.373 18.2802 144.067 18.2064 144.775 18.413C145.439 18.6048 145.94 19.003 146.206 19.6374C146.398 20.0947 146.235 20.5816 145.852 20.8176C145.424 21.0832 145.144 20.8471 144.893 20.5373C144.126 19.5489 142.857 20.0062 142.385 20.9651C142.119 21.5257 141.972 22.3518 141.987 23.7828L142.001 23.7534Z" fill="#A8A8A8"/>
<path d="M33.5409 0.739495C34.8391 0.739495 36.1521 0.739495 37.4503 0.739495C37.5536 0.916524 37.5093 1.1083 37.5093 1.28533C37.5093 5.32751 37.5093 9.35497 37.5093 13.3971C37.5093 14.0758 37.5093 14.0905 36.8307 14.0758C36.1226 14.0758 35.4145 14.0758 34.7063 14.0758C34.5146 14.0758 34.3375 14.0758 34.1457 14.0315C33.9244 13.9872 33.7622 13.8693 33.7769 13.6185C33.7769 13.3824 33.9392 13.2496 34.1753 13.2201C34.7064 13.1464 35.2522 13.1906 35.798 13.1758C35.1932 13.1758 34.6031 13.1463 33.9982 13.2054C33.6294 13.2349 33.4819 13.0726 33.4967 12.7185C33.4967 12.6447 33.4967 12.571 33.4967 12.4973C33.4967 8.76489 33.4967 5.01771 33.4967 1.28533C33.4967 1.1083 33.4524 0.916524 33.5556 0.739495H33.5409Z" fill="#CBCBCB"/>
<path d="M45.283 18.1622C45.283 12.3497 45.283 6.53722 45.283 0.739495C45.4453 0.931277 45.3863 1.16731 45.3863 1.37384C45.3863 16.0083 45.3862 30.628 45.401 45.2625C45.401 45.8083 45.2682 46.0001 44.6781 46.0001C30.1617 45.9706 15.6452 45.9706 1.14356 45.9559C0.937025 45.9559 0.730499 45.9854 0.553469 45.8526C0.582974 45.8526 0.627242 45.8526 0.656747 45.8526C0.804272 45.6608 1.02555 45.6166 1.24684 45.6018C1.6009 45.5871 1.95496 45.6018 2.30902 45.6018C12.1047 45.6018 21.8856 45.6018 31.6812 45.6018C33.1565 45.6018 33.245 45.5133 33.245 44.0675C33.245 42.7693 33.245 41.4711 33.245 40.1582C33.245 39.5091 33.2155 38.8599 33.1712 38.2108C33.0975 37.2814 33.1122 36.352 33.2155 35.4374C33.2302 35.3341 33.2892 35.2455 33.3925 35.216C33.6285 35.216 33.7171 35.3489 33.7613 35.5554C33.7908 35.7029 33.7908 35.8504 33.8056 35.998C33.8498 37.2077 33.8646 37.2224 35.1038 37.2224C35.3398 37.2224 35.5906 37.2372 35.8267 37.2224C36.5938 37.1487 37.2576 37.2814 37.7445 37.9453C37.8625 38.2551 37.833 38.5649 37.833 38.8895C37.833 40.7335 37.833 42.5776 37.833 44.4217C37.833 45.4101 38.0395 45.6018 39.0132 45.6166C40.5917 45.6166 42.185 45.6166 43.7635 45.6166C44.8109 45.6166 44.9879 45.4248 44.9879 44.3626C44.9879 36.0422 44.9879 27.7218 44.9879 19.4014C44.9879 18.9883 44.8699 18.531 45.2535 18.1917L45.283 18.1622Z" fill="#A2A2A2"/>
<path d="M33.5409 0.739495C33.5409 4.57514 33.5414 8.41086 33.5414 12.2465C33.5414 12.9546 33.5414 12.9398 34.2348 12.9251C35.0019 12.9103 35.769 12.9251 36.5214 12.9251C36.728 12.9251 37.0377 12.8956 37.023 13.2054C37.023 13.5004 36.6985 13.4709 36.4919 13.4709C35.7838 13.4709 35.0757 13.4709 34.3676 13.4709C34.2348 13.4709 34.0135 13.4267 33.9988 13.6185C33.9693 13.825 34.2053 13.7955 34.338 13.7955C35.2674 13.8102 36.1969 13.8102 37.1263 13.8249C37.3476 13.8249 37.4361 13.7217 37.4361 13.53C37.4361 13.3677 37.4361 13.1906 37.4361 13.0283C37.4361 8.92715 37.4361 4.84068 37.4361 0.739495C37.4803 0.739495 37.5099 0.739495 37.5541 0.739495C37.5541 7.52564 37.5541 14.3118 37.5541 21.098C37.5541 21.3783 37.5541 21.6585 37.5688 21.9388C37.5688 22.1306 37.4508 22.2486 37.2885 22.3076C36.0641 22.7797 35.0757 23.5616 34.1905 24.5058C33.984 24.7271 33.748 24.9484 33.4382 24.6681C33.3349 24.3288 33.3201 23.9747 33.3349 23.6206C33.3349 23.4141 33.3791 23.2223 33.1873 23.06C33.0103 22.7059 33.2463 22.2634 32.9513 21.9388C33.3939 21.8208 33.4234 21.4962 33.4234 21.1127C33.4234 17.8524 33.4234 14.5921 33.4234 11.3465C33.4234 7.80594 33.4234 4.28009 33.4234 0.739495C33.4676 0.739495 33.4967 0.739495 33.5409 0.739495Z" fill="#C2C2C2"/>
<path d="M135.275 15.3736C135.275 16.5833 134.478 17.7782 133.401 18.206C132.988 18.3683 132.575 18.3683 132.28 17.9995C132.014 17.6602 132.25 17.3357 132.457 17.0406C132.914 16.4358 132.959 15.7423 132.988 15.0342C133.003 14.6949 133.018 14.3704 133.062 14.0311C133.121 13.6475 133.239 13.2787 133.667 13.1902C134.109 13.1016 134.463 13.2787 134.758 13.6033C135.201 14.1196 135.201 14.7687 135.26 15.3588L135.275 15.3736Z" fill="#A8A8A8"/>
<path d="M33.3192 35.3637C33.4077 35.5112 33.4224 35.6735 33.4224 35.8506C33.5405 38.9781 33.5257 42.0908 33.5405 45.2184C33.5405 45.8675 33.1864 45.8675 32.7143 45.8675C24.748 45.8675 16.7817 45.8675 8.81532 45.8675C6.10086 45.8675 3.38641 45.8675 0.657198 45.8675C0.657198 40.6156 0.657198 35.3785 0.657198 30.1266C0.657198 29.4627 0.760463 29.3594 1.43908 29.3447C3.71096 29.3447 5.98283 29.3447 8.25471 29.3447C8.62353 29.3447 9.0071 29.3447 9.27264 29.6987C9.42017 30.0823 9.08087 30.1856 8.87434 30.3331C7.7679 31.1002 6.67619 31.8821 5.61401 32.6935C5.00916 33.1656 4.55184 33.741 4.28629 34.4491C4.0355 35.1424 4.33055 35.585 5.06817 35.644C5.89431 35.7178 6.60243 35.4227 7.28105 35.0097C8.85956 34.036 10.0988 32.7082 11.2347 31.2625C11.8986 30.4068 12.5182 29.5217 13.123 28.6366C13.8016 27.6482 14.8196 27.0876 15.7933 26.4827C16.1768 26.2467 16.5308 26.5122 16.5456 26.9696C16.5456 27.0581 16.5309 27.1613 16.5161 27.2499C16.4719 27.899 16.8112 28.2087 17.475 28.1497C18.2421 28.0612 18.906 27.7514 19.4666 27.2203C20.0715 26.6302 20.6615 26.0401 21.2516 25.45C21.4729 25.2435 21.709 25.0518 21.9893 24.9632C22.4909 24.7862 22.8596 25.0813 22.7564 25.5976C22.6826 25.9516 22.6089 26.2909 22.5794 26.645C22.4761 27.5449 22.9039 28.0317 23.7891 28.076C24.4824 28.1203 25.0873 27.8842 25.5594 27.3973C26.6511 26.2319 27.61 24.9779 27.8165 23.3256C27.8755 22.9273 28.082 22.6913 28.5246 22.7061C29.336 22.7356 29.69 22.9126 29.7638 23.3847C29.8081 23.6798 29.7638 23.9748 29.6606 24.2551C29.2623 25.2877 28.6279 26.1876 28.0378 27.117C27.9345 27.2941 27.8018 27.4564 27.7132 27.6334C27.5952 27.899 27.6985 28.0612 27.9493 28.1497C28.4214 28.312 28.8049 28.194 29.1147 27.7514C29.5573 27.1318 29.9261 26.4532 30.3687 25.8336C30.7817 25.2582 30.944 25.2288 31.4751 25.6713C31.7259 25.8779 32.0062 25.9516 32.3012 25.9369C32.7143 25.9074 32.8766 26.1287 32.8914 26.4975C32.9061 26.7778 32.8914 27.0581 32.9209 27.3384C32.9504 27.7809 33.2307 28.0759 33.4962 28.3857C33.6733 28.7103 33.6732 29.0644 33.688 29.4037C33.7027 30.2446 33.6585 31.1002 33.6733 31.9411C33.6733 32.487 33.2307 32.7673 32.9356 33.1361C32.5521 33.6377 32.0947 34.0802 31.7259 34.5966C31.5046 34.8916 31.3424 35.231 31.6374 35.5555C31.9325 35.8801 32.2865 35.7178 32.6111 35.5555C32.8324 35.4522 32.9946 35.1425 33.2897 35.3785L33.3192 35.3637Z" fill="#949494"/>
<path d="M33.2155 28.4443C32.6254 28.0017 32.6254 27.3526 32.6696 26.7183C32.6991 26.3052 32.6107 26.1429 32.1533 26.2019C31.7845 26.2609 31.4452 26.1428 31.2386 25.8035C31.0321 25.4495 30.8551 25.6118 30.7076 25.8478C30.265 26.5117 29.8372 27.1903 29.3946 27.8541C28.9668 28.5033 27.9046 28.7098 27.2555 28.2673C26.9752 28.0755 27.1817 27.8984 27.285 27.7509C27.8013 26.91 28.3472 26.0838 28.8635 25.2577C29.1291 24.8299 29.3504 24.3726 29.4831 23.8857C29.6307 23.3841 29.4684 23.0891 29.0111 23.0006C28.2882 22.8531 28.1849 22.9269 28.0521 23.576C27.6981 25.3463 26.7097 26.733 25.3672 27.8984C25.1607 28.0755 24.8951 28.223 24.6296 28.282C23.3609 28.5476 21.9741 28.3115 22.3429 26.2904C22.3724 26.0838 22.4314 25.8921 22.4609 25.6856C22.4905 25.5085 22.638 25.3167 22.4167 25.1839C22.2397 25.0807 22.0479 25.184 21.9003 25.302C21.2512 25.7446 20.7497 26.3641 20.2186 26.9247C19.5547 27.6328 18.8171 28.2082 17.8434 28.3852C17.5484 28.4442 17.2533 28.4737 16.9583 28.4C16.3534 28.2672 16.1469 27.9132 16.2649 27.2198C16.2944 27.0428 16.4272 26.8215 16.2649 26.7035C16.0584 26.5412 15.8813 26.7625 15.7191 26.8658C14.4651 27.6034 13.4914 28.5918 12.6653 29.8162C11.2933 31.8816 9.72953 33.8142 7.59042 35.1714C6.82329 35.6582 6.01192 36.0123 5.06776 35.9386C4.0941 35.8648 3.69581 35.2895 4.03512 34.3748C4.33017 33.5782 4.8465 32.9437 5.51036 32.4569C6.76432 31.5275 8.033 30.6129 9.30172 29.6982C10.2901 29.1376 11.3966 28.7246 11.9719 27.6181C11.6916 27.4706 11.4999 27.6477 11.3081 27.7214C10.6295 28.0017 9.95086 28.2377 9.19848 28.223C7.797 28.1934 7.19214 27.4116 7.5757 26.0544C7.87075 24.9479 8.50508 24.0185 9.25746 23.1924C12.0899 20.0649 15.6748 18.2946 19.7465 17.4537C20.1006 17.3799 20.5726 17.2324 20.7939 17.5569C20.9857 17.8372 20.5579 18.1323 20.4546 18.4421C20.1595 19.2534 19.6432 19.4895 18.7581 19.4158C16.8255 19.2682 15.2175 20.1534 13.757 21.3188C12.3555 22.44 11.2195 23.7824 10.4967 25.4347C10.4081 25.6412 10.3197 25.8479 10.2902 26.0691C10.2164 26.5855 10.4967 26.8363 11.013 26.792C11.2638 26.7625 11.4851 26.6592 11.6916 26.5411C12.5473 26.0691 13.3292 25.5086 13.993 24.7857C14.6569 24.0776 15.3798 23.4432 16.0584 22.7498C16.4714 22.322 16.973 22.0417 17.5631 21.9531C17.7549 21.9236 17.9614 21.9089 18.0647 22.086C18.168 22.263 18.0057 22.3957 17.9024 22.5285C17.3123 23.3252 16.7222 24.107 16.1321 24.9036C16.0141 25.0659 15.8666 25.2135 15.8371 25.4938C16.3534 25.4053 16.7075 25.0955 17.0468 24.7709C17.9172 23.9153 18.8023 23.1186 19.8202 22.44C20.2776 22.145 20.7497 21.909 21.3103 21.8352C22.2249 21.7172 22.7413 22.1892 22.697 23.1039C22.697 23.2514 22.6527 23.3989 22.638 23.5464C22.6232 23.694 22.5495 23.8562 22.6822 23.9595C22.8445 24.0922 23.0068 23.989 23.1543 23.9005C23.7592 23.5464 24.2165 23.0153 24.6886 22.5285C24.8804 22.322 24.7328 22.2039 24.5411 22.1154C24.187 21.9531 23.8182 21.8057 23.4789 21.6286C22.7117 21.2303 22.1954 20.6107 21.9298 19.7993C21.5315 18.5896 22.2249 17.7634 23.5084 17.8962C25.1311 18.0585 26.2523 18.9584 27.1227 20.2419C27.3735 20.6107 27.5948 21.009 27.7718 21.4073C27.9489 21.8351 28.2439 21.9827 28.6865 21.9679C29.2028 21.9679 29.7192 21.8794 30.2503 21.9237C30.8108 21.968 31.2239 22.1744 31.4452 22.6908C31.6075 23.0596 31.7993 23.0596 32.0501 22.7793C32.3451 22.4695 32.6402 22.1449 33.0237 21.9531C33.7614 22.0122 33.7761 22.0417 33.363 22.9711C33.5253 23.3251 33.304 23.694 33.3925 24.0481C33.4515 24.2546 33.4221 24.4758 33.5843 24.6381C34.0417 24.5053 34.2924 24.107 34.5875 23.7972C35.4431 22.8973 36.461 22.3072 37.6265 21.9384C37.8035 21.9531 37.9805 21.9679 38.1723 21.9974C38.6887 22.0417 38.6592 22.4105 38.6002 22.7645C38.5116 23.2956 38.1428 23.6792 37.8478 24.0923C37.4642 24.2693 37.2872 24.6676 36.9774 24.9184C36.5643 25.243 36.107 25.4643 35.6349 25.6856C35.4874 25.7593 35.3103 25.8626 35.3989 26.0691C35.4726 26.2609 35.6792 26.2314 35.8415 26.1871C36.3725 26.0543 36.7856 25.7003 37.2282 25.3905C37.361 25.302 37.4642 25.1545 37.6413 25.125C38.3346 24.2103 39.1165 23.3841 39.9426 22.5875C40.2672 22.2777 40.636 22.0269 41.0491 21.8499C41.5359 21.6433 42.0522 21.7614 42.244 22.086C42.4801 22.5138 42.2293 22.8236 41.949 23.1187C40.2377 24.9627 39.0132 27.1165 37.8773 29.3442C37.3757 29.89 37.1101 30.5981 36.7413 31.2178C36.0185 32.4275 35.1776 33.5634 34.3367 34.6993C34.1301 34.9796 33.8794 35.2304 33.4811 35.2599C33.4515 35.3042 33.4073 35.3337 33.3778 35.378C33.186 35.5255 33.009 35.6877 32.8025 35.8205C32.2861 36.1451 31.7698 36.1451 31.46 35.8205C31.1502 35.4812 31.1649 34.9059 31.5485 34.4485C31.9173 33.9912 32.3156 33.5486 32.6992 33.0913C32.9647 32.7815 33.2155 32.457 33.4811 32.1324C33.7466 31.0702 34.6022 30.3916 35.2071 29.5655C35.8119 28.7393 36.4463 27.9427 37.0216 27.1165C36.461 27.5738 35.8415 28.0017 35.1923 28.3558C34.558 28.7098 33.9236 28.9016 33.245 28.4738L33.2155 28.4443Z" fill="white"/>
<path d="M37.5536 29.2118C38.6748 27.0284 39.8697 24.8745 41.5515 23.0599C41.6548 22.9566 41.758 22.8387 41.8465 22.7206C41.9941 22.5289 42.0678 22.3223 41.9056 22.1011C41.7433 21.8798 41.522 21.8945 41.3007 21.983C40.6959 22.2043 40.1943 22.5731 39.7517 23.0451C39.0584 23.7975 38.365 24.5499 37.6716 25.3023C37.288 25.2728 37.347 24.9777 37.3323 24.7269C37.3175 24.4467 37.4503 24.2106 37.5536 23.9598C37.7306 23.709 37.9372 23.473 38.0994 23.2075C38.3355 22.8092 38.4682 22.3961 38.1289 21.9978C37.7601 21.8207 37.6716 21.5257 37.6716 21.1421C37.7011 20.0062 37.6716 18.8702 37.6716 17.7491C37.6716 17.5868 37.6126 17.4245 37.7306 17.277C37.7601 17.277 37.7896 17.277 37.7896 17.277C38.0158 17.8671 38.4633 18.1621 39.1321 18.1621C41.1827 18.1621 43.2185 18.1621 45.2691 18.1621C45.2691 25.3613 45.2691 32.5753 45.2839 39.7745C45.2839 41.5595 45.2691 43.3446 45.2839 45.1297C45.2839 45.6755 45.1511 45.882 44.561 45.882C42.4514 45.8525 40.3418 45.8525 38.2469 45.882C37.6568 45.882 37.5241 45.6755 37.5388 45.1297C37.5536 42.725 37.5388 40.3203 37.5388 37.9304C37.3176 37.6796 37.2881 37.3699 37.2733 37.0453C37.2733 34.862 37.2733 32.6638 37.2733 30.4805C37.2733 30.0379 37.4208 29.6248 37.5388 29.2118H37.5536Z" fill="#555555"/>
<path d="M37.5536 29.2118C37.5536 32.118 37.5542 35.0239 37.5542 37.9302C36.492 37.163 35.2823 37.5318 34.1316 37.5318C33.6743 37.5318 33.5563 37.4286 33.5415 37.0008C33.5268 36.4107 33.6595 35.8206 33.4382 35.2452C35.0758 33.4159 36.3002 31.2916 37.5689 29.2115L37.5536 29.2118Z" fill="#ADADAD"/>
<path d="M33.5411 24.6383C33.0248 24.4317 33.1428 23.9891 33.1576 23.6056C33.1576 23.3843 33.2608 23.1778 33.3198 22.9712C33.6149 22.986 33.5264 23.2221 33.5411 23.3843C33.5411 23.8122 33.5411 24.2252 33.5411 24.653V24.6383Z" fill="#9D9D9D"/>
<path d="M33.2167 28.4442C34.4855 28.6213 35.4148 27.8984 36.359 27.2345C36.7278 26.969 37.0376 26.6149 37.5244 26.4821C36.4475 28.5622 34.8837 30.303 33.4233 32.1028C33.4233 31.1144 33.4233 30.1408 33.4233 29.1523C33.4233 28.8868 33.4233 28.636 33.202 28.4295L33.2167 28.4442Z" fill="#B3B3B3"/>
<path d="M26.3868 21.85C25.4279 21.5697 24.3363 21.2747 23.6281 20.3158C23.4216 20.0355 23.274 19.7257 23.4953 19.3864C23.7166 19.0471 24.0412 19.0471 24.3952 19.1209C25.7525 19.3717 26.2983 20.4338 26.8294 21.5255C26.9622 21.8058 26.7704 21.8796 26.4016 21.8648L26.3868 21.85Z" fill="#9B9B9B"/>
<path d="M24.9388 26.3205C24.4963 26.291 24.4815 26.0402 24.5848 25.7304C24.8651 24.9337 25.4257 24.3437 26.06 23.8126C26.2666 23.6355 26.4584 23.4733 26.3403 23.1635C26.2518 22.9274 26.2813 22.7504 26.5764 22.7357C26.8272 22.7357 27.0632 22.7947 27.1075 23.1045C27.2255 23.9011 25.9863 25.9517 25.2191 26.232C25.1159 26.2763 24.9978 26.291 24.9241 26.3057L24.9388 26.3205Z" fill="#9A9A9A"/>
<path d="M9.17035 31.2032C8.80154 32.0589 8.29999 32.826 7.68038 33.5046C7.41484 33.7849 7.105 34.0356 6.80995 34.2864C6.63292 34.434 6.41167 34.5225 6.20514 34.3455C5.98385 34.1537 6.05758 33.9471 6.1756 33.7406C6.51491 33.0472 8.37374 31.4245 9.18512 31.218L9.17035 31.2032Z" fill="#979797"/>
<path d="M37.5536 23.9598C37.6421 24.4024 37.4656 24.8595 37.6721 25.2873C37.2738 25.6708 36.8312 25.9659 36.3591 26.2315C36.0788 26.3937 35.7838 26.5118 35.4592 26.5265C35.1642 26.5413 34.9576 26.4085 34.8544 26.1282C34.7511 25.8331 34.9282 25.6708 35.1494 25.5528C35.3265 25.4495 35.5035 25.3463 35.6953 25.2873C36.4477 25.0217 36.964 24.4611 37.5393 23.9595L37.5536 23.9598Z" fill="#B8B8B8"/>
<path d="M18.6858 26.2025C18.7448 26.0697 18.8038 25.8927 18.8923 25.7304C19.4234 24.8157 20.1757 24.1077 21.0166 23.4733C21.1642 23.3701 21.356 23.2078 21.5035 23.3996C21.651 23.5914 21.4445 23.7389 21.2969 23.8421C21.1642 23.9454 21.0166 24.0044 20.8691 24.0929C20.5888 24.2552 20.4561 24.4912 20.4856 24.8305C20.5446 25.3764 19.6151 26.6156 19.0693 26.6893C18.7005 26.7484 18.6858 26.4975 18.6858 26.1877V26.2025Z" fill="#9B9B9B"/>
<path d="M36.9485 23.37C36.919 23.6945 36.0043 24.5649 35.7682 24.5501C35.5617 24.5501 35.5617 24.4026 35.6355 24.2846C35.8863 23.842 36.2403 23.5027 36.7124 23.2667C36.8599 23.1929 36.9632 23.2519 36.9632 23.37H36.9485Z" fill="#BEBEBE"/>
<path d="M43.1136 20.4194C43.1136 20.9357 42.4792 21.6291 42.0366 21.5995C41.6973 21.5848 41.417 21.4225 41.4023 21.0242C41.4023 20.5669 42.1989 19.785 42.6267 19.7998C42.9365 19.7998 43.1283 20.0506 43.1283 20.4194H43.1136Z" fill="#A8A8A8"/>
<path fill-rule="evenodd" clip-rule="evenodd" d="M87.7744 31.3514C87.9908 31.0908 88.2097 30.8272 88.4483 30.5693L88.4335 30.6283C88.4335 30.8583 88.4319 31.0899 88.4303 31.3222L88.4302 31.3238C88.4269 31.7907 88.4237 32.2606 88.4335 32.7231C88.463 34.3459 88.6695 35.9539 89.4219 37.4291C90.6316 39.819 93.8477 40.5567 96.0015 38.9487C96.3998 38.6536 96.7244 38.2848 96.7834 37.7685C96.8424 37.2669 96.5916 37.0751 96.1195 37.2373L95.8097 37.3701C94.1575 37.9898 93.1395 37.4586 92.6969 35.7621C92.4314 34.7737 92.3576 33.7706 92.3724 32.7674C92.4299 28.8414 92.7122 24.9335 92.9946 21.0224C93.0741 19.9221 93.1535 18.8211 93.2281 17.7198C93.2576 17.41 93.3608 17.292 93.6706 17.292C94.3039 17.2626 94.9373 17.2184 95.5706 17.1742L95.5737 17.174C96.5031 17.1002 97.4325 17.0264 98.3324 16.7757C98.9668 16.5986 99.4093 15.861 99.2913 15.2562C99.188 14.7841 98.8635 14.6513 97.9931 14.7841H97.9341C96.804 14.9207 95.6844 15.005 94.5576 15.0899C94.3459 15.1058 94.1338 15.1218 93.9214 15.1382C93.5379 15.1677 93.4346 15.0201 93.4936 14.6513C93.5673 14.2087 93.6116 13.7662 93.6411 13.3236C93.6548 13.1379 93.671 12.9521 93.6872 12.7663C93.7584 11.9489 93.8296 11.1315 93.6854 10.3141C93.5674 9.63545 93.2575 9.26668 92.7117 9.16341C91.325 8.89787 90.3513 9.51748 90.1005 10.919C89.894 12.0844 89.7169 13.2646 89.5694 14.4448C89.5104 14.8874 89.3481 15.0054 88.9203 14.9464C88.7145 14.9189 88.5086 14.893 88.3029 14.8671C87.4027 14.7538 86.5043 14.6407 85.6158 14.4005C85.0109 14.2382 84.8191 14.3563 84.5978 14.9464C84.288 15.802 84.4798 16.2741 85.3502 16.6134C86.4567 17.056 87.6221 17.174 88.8023 17.233C89.2154 17.2625 89.3039 17.3953 89.2744 17.7789C89.2154 18.605 89.1711 19.4312 89.1269 20.2573C89.0826 21.0834 89.0383 21.9096 88.9793 22.7357C88.9514 23.0805 88.9411 23.4283 88.9308 23.7762C88.9085 24.5297 88.8861 25.2841 88.6843 26.0107C88.3302 27.3384 87.7106 28.5481 86.9435 29.6841C86.6484 30.1119 86.3239 30.525 85.9108 30.8496C85.0109 31.5429 84.2733 31.2626 84.0668 30.1414C83.9299 29.3697 84.0135 28.5981 84.0961 27.8353C84.1114 27.6939 84.1267 27.5529 84.1405 27.4122C84.191 26.9127 84.2639 26.4149 84.3367 25.9171C84.477 24.9594 84.6172 24.0015 84.5978 23.0308C84.5683 22.1161 84.4208 21.2457 83.8307 20.5081C83.3144 19.8737 82.6653 19.7557 81.9424 20.1245C81.9158 20.1393 81.8899 20.1576 81.8639 20.1759C81.7601 20.249 81.6562 20.3222 81.5146 20.1688C80.836 19.4902 80.0393 19.6229 79.2722 19.9032C77.915 20.39 76.9708 21.3785 76.2184 22.5735C74.7284 24.9781 74.3006 27.6335 74.3448 30.3923C74.3596 31.2774 74.4924 32.133 74.9497 32.9149C75.5988 34.0508 76.8085 34.4049 77.974 33.8001C78.3723 33.5935 78.7263 33.3132 79.0509 33.0034C79.9065 32.192 80.4376 31.1889 80.8212 29.9497C80.8568 30.1062 80.882 30.2283 80.9036 30.3327C80.9268 30.4447 80.9459 30.5367 80.9687 30.6283C81.1753 31.4691 81.4703 32.2658 82.0899 32.9002C82.9898 33.8296 84.1258 34.0509 85.306 33.5198C85.9256 33.2395 86.4419 32.7969 86.914 32.3248C87.2212 32.0176 87.4958 31.6869 87.7744 31.3514ZM78.9031 23.7534C78.1212 25.5975 77.8114 27.53 77.7376 29.5069C77.7376 29.6096 77.7344 29.7139 77.7311 29.8188C77.7245 30.0303 77.7179 30.244 77.7376 30.451C77.7385 30.4661 77.7394 30.4814 77.7403 30.497C77.7534 30.7256 77.7693 31.0015 78.0179 31.0706C78.2827 31.1463 78.4181 30.9418 78.544 30.7519C78.5654 30.7195 78.5865 30.6876 78.608 30.6576C79.1981 29.7872 79.5374 28.7988 79.8472 27.8104C80.3635 26.2171 80.8061 24.6091 80.9536 22.9273C80.9831 22.647 80.9979 22.3372 80.6733 22.2044C80.3783 22.0864 80.098 22.2044 79.8472 22.3961C79.3899 22.7502 79.1244 23.2371 78.9031 23.7534Z" fill="#A8A8A8"/>
<path fill-rule="evenodd" clip-rule="evenodd" d="M101.283 32.8852C103.083 31.5722 104.175 29.7576 105.001 27.7512H105.015C105.036 27.7512 105.057 27.7327 105.077 27.7154C105.113 27.6837 105.144 27.656 105.163 27.7512C105.222 27.943 105.251 28.1348 105.163 28.3266C105.074 29.02 105.03 29.6986 105.045 30.392C105.06 31.1739 105.133 31.9558 105.399 32.6934C105.901 34.0949 107.037 34.6112 108.438 34.1243C109.013 33.9178 109.5 33.5785 109.943 33.1801C110.946 32.2802 111.669 31.1739 112.318 30.0232C113.026 28.7545 113.646 27.4414 114.191 26.099C114.383 25.6416 114.56 25.6712 114.855 25.9662C115.209 26.3203 115.386 26.7629 115.475 27.2497C115.602 27.9189 115.592 28.5881 115.582 29.2573C115.578 29.5175 115.574 29.7777 115.578 30.0379C115.593 30.9674 115.696 31.8967 116.05 32.7671C116.729 34.4489 118.071 34.98 119.724 34.2276C120.269 33.9768 120.771 33.6375 121.184 33.2097C121.523 32.8409 121.863 32.472 122.173 32.0737C122.409 31.7787 122.527 31.7049 122.733 32.1032C123.117 32.8409 123.648 33.4605 124.326 33.9473C126.598 35.5701 129.977 35.2308 132.13 33.1212C134.004 31.2919 135.11 29.02 135.922 26.5711C135.966 26.4235 135.996 26.2465 136.01 26.0842C136.04 25.8482 136.055 25.6122 135.804 25.4942C135.553 25.3909 135.376 25.5384 135.199 25.6859C134.946 25.8911 134.771 26.1555 134.595 26.4226C134.556 26.482 134.516 26.5416 134.476 26.6006L134.31 26.85C133.777 27.6515 133.247 28.4485 132.632 29.197C131.776 30.2445 130.818 31.1739 129.475 31.5869C127.631 32.1623 126.111 31.2918 125.654 29.4035C125.58 29.1085 125.61 28.8872 125.831 28.6512C126.436 28.0169 126.923 27.2792 127.336 26.5121C128.265 24.786 128.944 22.9862 128.885 20.9799C128.855 20.021 128.56 19.18 127.734 18.6195C125.964 17.4097 123.338 17.9999 122.246 19.8292C121.833 20.5373 121.582 21.2897 121.464 22.0863C121.096 24.4172 121.273 26.7333 121.656 29.0347C121.663 29.0631 121.67 29.0919 121.678 29.1209C121.722 29.2874 121.767 29.4615 121.641 29.6248C121.11 30.2887 120.52 30.8788 119.709 31.1886C119.193 31.3804 118.942 31.1886 118.897 30.6428C118.875 30.392 118.861 30.1412 118.846 29.8904C118.831 29.6396 118.816 29.3888 118.794 29.138C118.676 27.8545 118.514 26.5858 117.939 25.4056C117.555 24.6385 116.994 24.0779 116.139 23.8419C116.078 23.826 116.018 23.8099 115.958 23.7939C115.457 23.6608 114.956 23.5273 114.442 23.4878C114.073 23.4583 113.911 23.3698 114.044 22.942C114.221 22.3814 114.25 21.806 114.118 21.2307C113.823 19.9029 112.583 19.5342 111.58 20.4488C110.326 21.5995 110.223 22.9862 111.3 24.2992C111.418 24.4465 111.55 24.579 111.683 24.7115L111.684 24.7122C111.861 24.8745 111.905 25.0368 111.802 25.2581C111.724 25.427 111.647 25.596 111.57 25.765C110.914 27.205 110.261 28.6408 109.323 29.9347C109.288 29.9802 109.252 30.0305 109.216 30.0821C109.041 30.3313 108.844 30.6102 108.527 30.5247C108.173 30.4271 108.162 30.0774 108.152 29.759C108.15 29.6924 108.148 29.6271 108.143 29.5659C108.067 28.5032 108.121 27.4514 108.176 26.4011C108.185 26.2267 108.194 26.0521 108.202 25.8777C108.213 25.5577 108.232 25.2368 108.25 24.9153C108.303 23.9919 108.356 23.0645 108.246 22.1453C108.143 21.3192 107.686 20.8324 106.978 20.7144C106.078 20.5668 105.192 20.8914 104.853 21.5553C104.597 22.0372 104.368 22.5323 104.138 23.0273C104.024 23.2748 103.909 23.5223 103.791 23.7681C103.723 23.9121 103.655 24.0562 103.587 24.2002L103.585 24.2031C102.86 25.741 102.134 27.2786 101.15 28.6807C100.752 29.2412 100.324 29.7871 99.7488 30.1854C99.7225 30.2042 99.6959 30.2242 99.669 30.2445C99.485 30.3831 99.2852 30.5335 99.0407 30.392C98.8135 30.2584 98.8163 30.0158 98.8189 29.7959C98.8191 29.773 98.8194 29.7504 98.8194 29.7281C98.8194 29.1969 98.8949 28.6658 98.9705 28.1347C98.9893 28.002 99.0082 27.8693 99.0259 27.7366C99.0714 27.4073 99.1203 27.0789 99.1691 26.7507L99.1693 26.7492C99.3261 25.6957 99.4825 24.6446 99.5275 23.5764C99.5422 23.178 99.557 22.765 99.4242 22.3666C99.1292 21.452 98.303 20.9061 97.2556 20.9504C96.5032 20.9799 96.2377 21.2455 95.9869 22.3814C95.4263 24.8598 95.146 27.3677 95.2935 29.9199C95.3525 30.8493 95.4853 31.7787 95.8836 32.6343C96.3262 33.5785 97.0638 34.0506 98.1113 33.9916C99.2767 33.9178 100.339 33.5785 101.283 32.8852ZM124.799 26.1436C124.823 26.1705 124.854 26.2062 124.888 26.261H124.903C124.967 26.1218 125.032 25.983 125.097 25.8445C125.831 24.2795 126.551 22.745 126.673 21.0238C126.688 20.8615 126.673 20.6846 126.643 20.5223C126.599 20.183 126.511 19.8436 126.112 19.7551C125.684 19.6666 125.478 19.9764 125.301 20.301C125.198 20.478 125.109 20.6698 125.05 20.8616C124.519 22.5728 124.593 24.3137 124.755 26.0692C124.755 26.0929 124.772 26.1124 124.799 26.1436Z" fill="#A8A8A8"/>
<path fill-rule="evenodd" clip-rule="evenodd" d="M170.959 20.6993C170.873 20.6707 170.787 20.6282 170.674 20.5719L170.803 20.4604C170.968 20.3185 171.118 20.1889 171.269 20.0501C173.024 18.3684 173.29 16.2293 172.965 13.9721C172.714 12.2166 171.77 10.9036 170.118 10.2397C167.875 9.32506 165.574 9.31031 163.287 10.0627C162.21 10.4167 161.606 11.1987 161.532 12.3936C161.281 16.6423 161.119 20.8911 160.986 25.1545C160.912 27.5592 160.853 29.949 160.942 32.3537C161.001 33.8584 161.871 34.8026 163.361 34.9353C165.353 35.1124 167.3 34.8469 169.174 34.1535C173.806 32.4275 175.325 28.164 174.116 24.0333C173.644 22.3958 172.641 21.2156 170.959 20.6993ZM165.177 27.3383V23.8272C165.177 23.0159 165.31 22.8978 166.136 22.9568C168.452 23.1191 169.942 24.3141 170.355 26.3352C170.665 27.8252 170.237 29.0496 169.116 30.0527C168.231 30.8494 167.213 31.41 166.047 31.705C165.413 31.8673 165.192 31.7051 165.177 31.0265C165.167 30.2126 165.17 29.3987 165.174 28.5805V28.5765C165.175 28.165 165.177 27.7525 165.177 27.3383ZM165.136 14.9317C165.135 15.2661 165.133 15.6005 165.133 15.9349V19.0919C165.133 19.4312 165.251 19.6524 165.635 19.5492C166.844 19.2246 168.024 18.7969 168.91 17.8527C170.001 16.6872 170.119 15.3005 169.588 13.8547C169.101 12.527 167.951 12.1877 166.667 12.1287H165.885C165.369 12.1287 165.133 12.3795 165.133 12.9253C165.143 13.5941 165.139 14.2629 165.136 14.9317Z" fill="#A8A8A8"/>
<path fill-rule="evenodd" clip-rule="evenodd" d="M182.706 30.4066C182.763 30.261 182.824 30.1049 182.896 29.9344L182.94 29.8753C183.073 30.6129 183.205 31.1883 183.456 31.7341C184.474 33.8585 186.421 34.3454 188.28 32.8997C189.313 32.103 190.065 31.0703 190.729 29.9638C190.756 29.9219 190.778 29.8759 190.8 29.8297C190.863 29.697 190.927 29.5612 191.113 29.5065C191.231 29.7435 191.347 29.9804 191.463 30.2164C191.635 30.5682 191.807 30.9177 191.983 31.2621L192.039 31.3674C192.448 32.1425 192.852 32.9078 193.134 33.7405C193.355 34.3601 193.37 34.9797 193.208 35.6141C193.075 36.1009 192.75 36.3516 192.249 36.4107C191.732 36.4697 191.378 36.2632 191.157 35.8058C191.135 35.7621 191.113 35.7174 191.091 35.6722C191.024 35.535 190.954 35.3932 190.877 35.26C190.714 34.9945 190.478 34.8765 190.169 34.906C189.844 34.9502 189.608 35.1125 189.49 35.4223C189.342 35.8353 189.401 36.2336 189.608 36.6024C189.903 37.1188 190.331 37.5024 190.862 37.768C192.78 38.7564 195.583 38.0777 196.807 36.2632C197.987 34.5224 197.84 32.6931 196.94 30.908C196.641 30.3102 196.295 29.7461 195.947 29.1793L195.947 29.178L195.946 29.1768C195.779 28.9051 195.612 28.6328 195.45 28.3559C194.358 26.4675 194.004 24.4317 194.181 22.2778C194.226 21.7468 194.358 21.2156 194.639 20.7435C195.199 19.7846 196.247 19.6667 197.014 20.4486C197.058 20.5076 197.102 20.5666 197.161 20.6108C197.545 20.9649 197.928 20.9354 198.238 20.5075C198.489 20.1682 198.474 19.8141 198.282 19.4601C197.781 18.5159 196.955 18.1914 195.952 18.2504C193.621 18.4126 191.939 19.5486 190.965 21.6582C190.213 23.2957 190.08 25.0218 190.257 26.7921C190.26 26.8143 190.264 26.8364 190.267 26.8583L190.267 26.861C190.295 27.0418 190.321 27.2135 190.242 27.3969C189.741 28.4886 189.195 29.536 188.384 30.4359C188.133 30.7162 187.852 30.9522 187.484 31.0703C186.879 31.2768 186.466 31.0703 186.259 30.4655C186.126 30.0966 186.097 29.713 186.097 29.3147C186.097 28.1837 186.254 27.0658 186.412 25.948C186.49 25.389 186.569 24.83 186.628 24.2694C186.746 23.1187 186.761 21.968 186.2 20.8911C185.684 19.9027 184.946 19.6666 183.943 20.1387C183.929 20.1456 183.916 20.1527 183.903 20.1596C183.804 20.2121 183.721 20.256 183.604 20.1387C182.896 19.4158 182.055 19.5782 181.258 19.888C179.694 20.4928 178.691 21.7172 177.924 23.1334C176.788 25.2135 176.434 27.4855 176.39 29.8163C176.36 30.7753 176.449 31.7194 176.862 32.6046C177.511 34.0208 178.868 34.4486 180.196 33.652C181.214 33.0323 181.937 32.1472 182.424 31.0703C182.525 30.8669 182.61 30.6514 182.706 30.4066ZM180.933 23.7972C180.166 25.597 179.886 27.5001 179.753 29.6392H179.768C179.771 29.6875 179.773 29.7439 179.776 29.8065C179.786 30.0498 179.8 30.3876 179.871 30.7161C179.959 31.1734 180.181 31.2177 180.505 30.8783C180.623 30.7456 180.741 30.5981 180.83 30.4358C181.258 29.7129 181.553 28.931 181.818 28.1344C182.364 26.4821 182.792 24.8151 183.028 23.1039C183.072 22.7793 183.102 22.3809 182.733 22.2186C182.364 22.0564 182.04 22.2482 181.774 22.499C181.376 22.853 181.14 23.3103 180.933 23.7972Z" fill="#A8A8A8"/>
<path fill-rule="evenodd" clip-rule="evenodd" d="M225.471 32.6786C225.92 32.2006 226.298 31.6799 226.744 31.0608L226.761 31.1319C226.929 31.8459 227.075 32.4676 227.33 33.0621C227.743 34.0358 228.363 34.8767 229.41 35.1865C231.18 35.6881 232.847 35.334 234.367 34.3456C234.691 34.1243 234.927 33.7997 234.942 33.3719C234.957 32.9146 234.706 32.708 234.264 32.826C234.134 32.8603 234.003 32.9009 233.872 32.942C233.72 32.9894 233.566 33.0374 233.408 33.0769C232.021 33.4162 231.269 32.9883 230.826 31.6163C230.575 30.864 230.502 30.0822 230.472 29.3003C230.354 25.4056 230.782 21.5405 231.284 17.6753C231.343 17.2917 231.564 17.2622 231.859 17.2474L232.09 17.2358C233.472 17.1667 234.841 17.0983 236.196 16.8049C236.919 16.6426 237.406 16.0525 237.391 15.3886C237.376 14.9608 237.17 14.71 236.742 14.6953C236.535 14.6953 236.329 14.71 236.122 14.7395C235.15 14.88 234.177 14.9572 233.199 15.0348C232.841 15.0631 232.483 15.0915 232.124 15.1231C231.593 15.1673 231.534 14.9608 231.593 14.5183C231.741 13.4856 231.874 12.4529 231.918 11.4055C231.977 9.78274 231.77 9.56145 230.148 9.56145C228.864 9.5762 228.51 9.84173 228.245 11.1104C228.009 12.2164 227.832 13.3375 227.655 14.4582L227.654 14.4593C227.581 14.8428 227.448 15.0051 227.035 14.946C226.839 14.9206 226.643 14.8964 226.447 14.8723C225.508 14.7567 224.574 14.6417 223.671 14.3854C223.155 14.2379 222.86 14.415 222.683 14.9018C222.344 15.8017 222.535 16.259 223.435 16.6131C224.468 17.0262 225.574 17.1295 226.666 17.218C227.345 17.2758 227.345 17.2769 227.262 17.9422L227.256 17.9851C226.887 20.7438 226.548 23.532 226.578 26.3202C226.592 27.6332 226.15 28.5921 225.309 29.492C224.453 30.3919 223.568 31.2328 222.344 31.6017C220.559 32.1327 219.142 31.3509 218.596 29.5806C218.478 29.1675 218.508 28.8577 218.832 28.5331C219.133 28.2466 219.37 27.8969 219.602 27.5542L219.659 27.4709C220.913 25.5678 221.768 23.5025 221.813 21.1716C221.842 19.6964 221.178 18.7227 219.968 18.2949C217.638 17.4835 215.602 18.4276 214.746 20.7438C214.628 21.0536 214.525 21.3782 214.466 21.7027C213.949 24.4467 214.156 27.1464 214.761 29.8461C214.771 29.8939 214.785 29.9418 214.8 29.99C214.847 30.1499 214.896 30.3138 214.805 30.4952C213.728 32.6638 211.25 33.4456 209.479 31.8081C208.594 30.982 208.004 29.9493 207.503 28.8576C207.399 28.6216 207.473 28.5184 207.694 28.4446C208.181 28.2823 208.609 28.002 208.963 27.6479C210.483 26.1432 211.264 24.3139 211.294 22.1896C211.323 20.6996 210.542 19.6521 209.229 19.298C207.768 18.8997 206.499 19.1801 205.482 20.3603C205.41 20.4444 205.342 20.5314 205.266 20.6274C205.17 20.7503 205.062 20.888 204.921 21.0536L204.937 20.8561C204.957 20.6116 204.971 20.4369 204.995 20.2717C205.049 19.8581 205.105 19.4436 205.16 19.0288C205.345 17.6534 205.529 16.2733 205.688 14.9018L205.701 14.7977C205.83 13.7693 205.961 12.7276 205.732 11.6858C205.541 10.8302 205.068 10.3138 204.405 10.2106C203.741 10.1073 203.21 10.4319 202.767 11.2285C202.383 11.9219 202.147 12.6595 201.97 13.4266C201.439 15.669 201.218 17.9703 201.026 20.2717C200.628 24.8302 200.274 29.3888 200.289 33.9768C200.289 34.3161 200.318 34.6554 200.451 34.9652C200.584 35.3045 200.82 35.5111 201.189 35.5701C202 35.6881 202.605 35.3783 202.974 34.6407C203.387 33.785 203.593 32.8556 203.741 31.9114C203.855 31.2232 203.952 30.5261 204.059 29.7577L204.059 29.7559C204.09 29.5365 204.121 29.3114 204.154 29.0789C204.419 29.5215 204.611 29.846 204.788 30.1559C205.423 31.277 206.131 32.3393 207.075 33.2392C208.609 34.6997 210.409 35.2307 212.474 34.8029C213.728 34.5374 214.687 33.7702 215.543 32.8556C215.808 32.5605 215.926 32.5753 216.162 32.8851C216.959 33.9473 218.036 34.5816 219.334 34.8177C221.783 35.2603 223.804 34.4931 225.471 32.6786ZM208.784 22.4108C208.622 23.8418 208.238 25.199 207.353 26.394C207.176 26.6447 206.911 26.9988 206.601 26.866C206.359 26.7672 206.428 26.5131 206.491 26.2802C206.513 26.2001 206.534 26.1226 206.542 26.0547C206.733 24.7712 207.014 23.4877 207.515 22.278C207.53 22.2338 207.56 22.1747 207.589 22.1305C207.634 22.0563 207.674 21.9724 207.715 21.8878C207.86 21.5851 208.008 21.2743 208.401 21.3781C208.745 21.4671 208.755 21.7912 208.764 22.1097C208.767 22.2134 208.77 22.3165 208.784 22.4108ZM217.78 26.1528C217.576 24.4239 217.463 22.724 217.947 21.0386C218.05 20.6845 218.183 20.3305 218.419 20.0354C218.581 19.8289 218.773 19.6961 219.038 19.7404C219.304 19.7846 219.451 19.9764 219.51 20.2272C219.569 20.4633 219.628 20.6993 219.614 20.9353C219.481 22.8456 218.676 24.507 217.78 26.1528Z" fill="#A8A8A8"/>
</svg>
