<svg width="231" height="127" viewBox="0 0 231 127" fill="none" xmlns="http://www.w3.org/2000/svg">
<g clip-path="url(#clip0_410_436)">
<path d="M158.176 82.0892C157.889 82.0432 157.588 82.1839 157.312 82.0161C155.553 81.2637 154.795 79.9482 154.995 78.0075C155.044 77.5284 155.074 77.0466 155.109 76.5648C155.263 74.4211 155.407 72.2747 155.572 70.131C155.821 66.864 156.086 63.5997 156.332 60.3327C156.357 60.0241 156.413 59.7075 156.332 59.3799C156.132 59.453 156.137 59.6208 156.091 59.7454C155.666 60.8659 155.252 61.9919 154.83 63.1152C152.546 69.162 150.256 75.2088 147.979 81.261C147.849 81.6047 147.682 81.7292 147.314 81.7265C145.367 81.7076 143.419 81.7076 141.472 81.7211C141.053 81.7238 141.053 81.5939 141.194 81.2637C142.539 78.086 143.873 74.9029 145.21 71.7198C147.054 67.3377 148.911 62.9609 150.74 58.5733C151.403 56.9845 152.129 55.4444 153.341 54.1858C154.771 52.7025 156.354 51.6712 158.573 52.0339C160.804 52.3993 161.943 54.064 161.813 55.8802C161.751 56.7409 161.743 57.6043 161.711 58.4678C161.7 58.4949 161.697 58.5246 161.705 58.5544C161.621 59.8076 161.529 61.0635 161.456 62.3167C161.34 64.317 161.231 66.3199 161.126 68.3229C161.102 68.7912 161.05 69.2648 161.11 69.7656C161.334 69.66 161.364 69.4895 161.437 69.3542C162.647 67.0805 163.852 64.8042 165.059 62.5278C166.011 60.7306 167.002 58.9523 167.901 57.128C168.358 56.1996 168.818 55.3009 169.555 54.5647C170.913 53.2114 172.445 52.172 174.424 52.0231C175.967 51.9067 177.975 52.6835 178.384 54.7569C178.565 55.6745 178.546 56.5947 178.392 57.5096C177.585 62.2518 176.763 66.9912 175.945 71.7306C175.393 74.93 174.838 78.1293 174.299 81.3286C174.245 81.6507 174.11 81.7319 173.809 81.7292C172.594 81.7157 171.379 81.7238 170.164 81.7238C169.519 81.7238 168.875 81.7184 168.231 81.7238C167.968 81.7265 167.836 81.6534 167.922 81.3665C167.955 81.2555 167.955 81.1337 167.979 81.0201C168.407 78.8249 168.84 76.6325 169.265 74.4346C170.131 69.955 170.997 65.4754 171.853 60.9958C171.953 60.4653 172.104 59.9375 172.074 59.3745C171.915 59.5505 171.798 59.7426 171.698 59.9429C169.831 63.5889 167.952 67.2321 166.101 70.8861C164.818 73.4169 163.451 75.9071 162.29 78.5028C161.48 80.3136 160.157 81.5912 158.184 82.0946L158.176 82.0892Z" fill="#D9D9D9"/>
<path d="M104.079 69.539C104.065 69.5931 104.054 69.6473 104.041 69.7014C103.624 71.2226 103.204 72.741 102.796 74.2649C102.262 76.2543 101.743 78.2465 101.215 80.2386L101.161 80.5174C101.074 80.7962 100.966 81.0695 100.909 81.3538C100.85 81.6434 100.695 81.7246 100.419 81.7219C98.3702 81.7138 96.3212 81.7083 94.2722 81.7192C93.9447 81.7192 93.8689 81.6407 93.9637 81.3159C94.4211 79.773 94.8596 78.2275 95.3035 76.682C97.1116 70.3862 98.9224 64.0958 100.72 57.7973C101.161 56.2518 101.84 54.847 102.953 53.675C103.965 52.6058 105.14 51.8804 106.688 51.9589C107.562 52.0022 108.334 52.3243 109.067 52.7682L109.059 52.7655C109.879 53.5099 110.51 54.3679 110.745 55.4749C111.684 59.9085 112.624 64.3421 113.571 68.773C113.606 68.9435 113.585 69.1519 113.774 69.3089C113.817 69.1844 113.858 69.0924 113.885 68.9949C115.374 63.6546 116.868 58.317 118.343 52.9739C118.451 52.5788 118.614 52.438 119.025 52.4353C121.074 52.4164 123.123 52.3785 125.172 52.3243C125.594 52.3135 125.632 52.4597 125.524 52.8115C125.104 54.1974 124.701 55.5886 124.292 56.9772C122.836 61.9304 121.388 66.8891 119.918 71.8397C119.25 74.0971 118.66 76.3788 117.869 78.5983C117.328 80.1195 116.513 81.4214 114.96 82.1035C114.873 82.136 114.784 82.1658 114.697 82.1982C114.637 82.1982 114.578 82.1955 114.521 82.2064C112.675 82.5528 111.311 81.8112 110.261 80.3387C109.714 79.5727 109.579 78.6714 109.357 77.7944C109.013 76.4519 108.767 75.085 108.371 73.756C108.366 73.7263 108.361 73.6965 108.358 73.6667C108.347 73.5801 108.342 73.4935 108.323 73.4069C107.73 70.8896 107.137 68.3697 106.544 65.8524C106.325 64.924 106.103 63.9984 105.884 63.07C105.852 63.07 105.816 63.07 105.784 63.0672C105.215 65.2245 104.647 67.3817 104.079 69.539V69.539Z" fill="#D9D9D9"/>
<path d="M178.585 68.0384C178.595 68.0221 178.598 68.0059 178.59 67.9897C178.641 67.8543 178.701 67.719 178.742 67.5809C180.149 62.6926 181.557 57.8043 182.95 52.9106C183.048 52.5669 183.197 52.4505 183.557 52.4532C185.533 52.4694 187.509 52.4613 189.484 52.464C190.053 52.464 190.058 52.4694 189.909 52.9891C189.133 55.7012 188.353 58.4133 187.576 61.1255C186.502 64.8769 185.422 68.6284 184.355 72.3826C183.901 73.9769 184.593 75.0488 186.19 75.2382C187.4 75.3817 188.616 75.3384 189.828 75.3357C189.885 75.3357 189.945 75.3357 190.001 75.3357C190.556 75.36 191.109 75.3979 191.663 75.406C191.945 75.4087 192.059 75.4629 191.969 75.7823C191.463 77.6255 190.968 79.4742 190.483 81.3256C190.407 81.6152 190.278 81.7235 189.969 81.7208C187.747 81.7072 185.525 81.7208 183.305 81.7072C181.616 81.6964 180.033 81.3148 178.671 80.2483C178.625 80.1942 178.582 80.1347 178.53 80.0832C177.486 79.098 176.933 77.8881 176.79 76.4616C176.649 75.0433 176.993 73.7089 177.367 72.3718C177.773 70.9264 178.241 69.4973 178.585 68.0357V68.0384Z" fill="#D9D9D9"/>
<path d="M58.1871 89.1856C57.7378 90.2006 57.3697 91.2481 57.0801 92.32C56.9962 92.6313 56.8311 92.6421 56.5793 92.661C56.287 92.6827 56.2573 92.5122 56.2031 92.301C55.7971 90.7257 55.1258 89.2425 54.6332 87.6969C54.506 87.2963 54.3788 86.893 54.2137 86.376C54.119 86.736 54.054 86.9851 53.989 87.2368C53.5289 88.9907 52.8414 90.6743 52.4191 92.4391C52.3488 92.7287 52.1431 92.6394 51.9698 92.6475C51.8101 92.6556 51.6613 92.661 51.6098 92.431C51.1659 90.4713 50.3485 88.6334 49.7178 86.736C49.5825 86.3327 49.4553 85.9294 49.3146 85.5289C49.2442 85.3286 49.274 85.2203 49.5148 85.2392C49.6177 85.2474 49.7206 85.2528 49.8207 85.2392C50.1672 85.1824 50.3269 85.3015 50.427 85.6642C50.8844 87.2801 51.3825 88.8852 51.8589 90.4984C51.9455 90.788 51.9969 91.0911 52.0835 91.4701C52.4625 89.5808 53.1418 87.8702 53.6534 86.1108C53.7184 85.8888 53.8212 85.6723 53.8023 85.4314C53.8158 85.4043 53.8185 85.3773 53.8104 85.3502C54.0405 85.1499 54.3165 85.2771 54.571 85.2419C54.7902 85.2122 54.8795 85.3204 54.9283 85.5234C55.2043 86.7063 55.6185 87.8485 55.9785 89.0097C56.2194 89.7838 56.4575 90.5606 56.7309 91.4457C56.8419 90.9856 56.9177 90.6364 57.0124 90.2927C57.2263 89.5185 57.4482 88.7471 57.6674 87.9757C57.7297 87.7754 57.7947 87.5751 57.8569 87.3775C57.9841 87.1231 58.0545 86.8524 58.1032 86.5736C58.1574 86.441 58.0789 86.2732 58.2061 86.1595C58.3387 85.8753 58.3847 85.5749 58.3901 85.2663L58.3766 85.2771C58.7041 85.1851 59.056 85.315 59.3808 85.1797H59.3835C59.462 85.3529 59.416 85.5207 59.3618 85.6913C59.2617 86.0106 59.1778 86.3355 59.0858 86.6603C59.0208 86.736 58.9721 86.8172 58.9856 86.9228C58.7961 87.4154 58.585 87.9026 58.4632 88.4196C58.2656 88.6362 58.3008 88.9393 58.1844 89.1856H58.1871Z" fill="#CECECE"/>
<path d="M155.993 87.1026C156.139 87.2163 156.318 87.2488 156.488 87.2948C157.003 87.6223 157.176 88.1312 157.208 88.7023C157.227 89.0487 157.222 89.3979 157.227 89.7444C157.227 90.4779 157.227 91.2087 157.23 91.9422C157.222 92.1723 157.214 92.405 157.206 92.6351C156.924 92.8192 156.613 92.7217 156.318 92.7163C156.077 92.7136 156.096 92.5458 156.172 92.3807C156.274 92.0044 156.256 91.6228 156.25 91.2385C156.318 90.4481 156.28 89.655 156.25 88.8647C156.256 88.5723 156.21 88.3044 155.906 88.1636C155.871 88.1339 155.836 88.1041 155.798 88.0743C155.186 87.69 154.404 87.8226 153.771 88.4154C153.606 89.1299 153.7 89.8499 153.684 90.5699C153.671 91.2087 153.817 91.8448 153.706 92.4862C153.679 92.6459 153.608 92.719 153.46 92.7271C153.343 92.7326 153.227 92.7271 153.11 92.7271C152.755 92.7271 152.607 92.5539 152.666 92.2075C152.772 91.6228 152.753 91.0327 152.745 90.4427C152.748 90.2099 152.75 89.9771 152.756 89.7444C152.794 89.3627 152.832 88.9811 152.656 88.6184C152.531 88.437 152.409 88.253 152.285 88.0716C151.638 87.7306 151.026 87.7928 150.444 88.2259H150.452C150.179 88.3315 150.106 88.5345 150.111 88.816C150.128 89.8986 150.128 90.9813 150.136 92.064C150.141 92.6757 150.141 92.6378 149.546 92.6703C148.961 92.7055 149.178 92.2968 149.126 92.0288C149.134 91.7933 149.14 91.5606 149.148 91.3251C149.27 90.2316 149.272 89.1408 149.058 88.0554C149.029 87.8848 148.999 87.7143 148.966 87.5465C148.95 87.3489 149.064 87.2488 149.237 87.2C149.486 87.2596 149.738 87.0674 149.987 87.2109C150.038 87.3976 149.968 87.6142 150.119 87.782C150.393 87.5844 150.647 87.3976 150.904 87.2136C151.021 87.1757 151.134 87.1405 151.251 87.1026C151.784 87.0403 152.309 87.0647 152.829 87.2055H152.823C153.002 87.3191 153.178 87.4355 153.357 87.5492C153.432 87.7306 153.522 87.8821 153.73 87.69C153.89 87.5438 154.115 87.4815 154.236 87.2894C154.412 87.2298 154.585 87.1676 154.761 87.108C155.17 87.0566 155.579 87.0782 155.99 87.108L155.993 87.1026Z" fill="#CECECE"/>
<path d="M143.164 90.8887V90.6261C143.213 90.4231 143.218 90.2201 143.18 90.0144C143.172 89.6328 143.164 89.2511 143.159 88.8695C143.107 88.2497 142.858 87.979 142.255 87.8951C141.624 87.8085 141.072 87.9573 140.628 88.431V88.4364C140.476 89.7086 140.544 90.9807 140.615 92.2502C140.495 92.3666 140.476 92.4829 140.623 92.5939C140.371 92.7076 140.106 92.6372 139.849 92.6589C139.608 92.6778 139.548 92.5587 139.562 92.3449C139.583 91.9957 139.594 91.6466 139.61 91.2974C139.659 90.2093 139.729 89.1185 139.491 88.0412C139.502 88.0223 139.502 88.0033 139.486 87.9871C139.499 87.8328 139.497 87.6839 139.415 87.5459C139.445 87.4566 139.307 87.3402 139.507 87.2752C139.748 87.1994 139.995 87.1913 140.238 87.1616C140.444 87.1372 140.441 87.3321 140.449 87.4755C140.463 87.665 140.509 87.7706 140.707 87.619C140.937 87.5161 141.145 87.3835 141.332 87.213C141.448 87.1751 141.562 87.1399 141.678 87.102C142.057 87.0641 142.436 87.0587 142.818 87.0939C143.024 87.1589 143.229 87.2211 143.435 87.2861C143.546 87.3781 143.687 87.4485 143.76 87.5621C143.957 87.8761 144.12 87.8058 144.288 87.5459C144.531 87.2779 144.886 87.2428 145.192 87.102C145.571 87.0993 145.949 87.0966 146.331 87.0939C146.466 87.1318 146.599 87.1697 146.734 87.2076C147.292 87.4403 147.517 87.914 147.644 88.4581C147.647 89.852 147.649 91.246 147.652 92.6399C147.408 92.6453 147.165 92.6508 146.921 92.6589C146.772 92.6643 146.626 92.667 146.602 92.4667C146.604 92.418 146.61 92.3693 146.613 92.3205C146.718 91.1188 146.818 89.917 146.683 88.7125C146.634 88.2848 146.38 88.0277 145.971 87.933C145.305 87.7787 144.699 87.8788 144.22 88.4148C144.06 88.5366 144.122 88.7125 144.122 88.8614C144.122 90.12 144.131 91.3786 144.136 92.6372C143.903 92.6453 143.67 92.6372 143.44 92.6616C143.172 92.6859 143.078 92.5993 143.116 92.3178C143.18 91.8442 143.194 91.3651 143.167 90.8833L143.164 90.8887Z" fill="#CECECE"/>
<path d="M84.4481 92.6364C83.9961 92.7798 83.5414 92.8989 83.0623 92.8367L82.2746 92.6526C82.2584 92.6337 82.2367 92.6283 82.2124 92.6337C81.6846 92.3197 81.3435 91.8352 81.0485 91.3155C80.7751 90.7715 80.9132 90.1868 80.8753 89.6184C81.0214 88.9661 81.265 88.3598 81.6737 87.8266C81.9552 87.6019 82.2178 87.3529 82.5534 87.2067C82.6644 87.1715 82.7754 87.1391 82.8863 87.1039C83.4845 87.0389 84.0908 86.9685 84.6457 87.2582C84.9813 87.4341 84.9732 87.2582 84.9678 87.02C84.9462 86.2323 84.9299 85.442 84.911 84.6543L84.9056 84.657C85.095 84.6489 85.2872 84.657 85.474 84.6299C85.8529 84.5758 85.9936 84.6868 85.953 85.1009C85.8908 85.7532 85.8854 86.4137 85.8718 87.0714C85.8367 88.9282 85.8908 90.785 85.9476 92.6391C85.7176 92.8069 85.4577 92.7013 85.2114 92.7203C85.0409 92.6039 85.1356 92.3738 85.0246 92.2006C84.8108 92.3603 84.6268 92.4956 84.4427 92.6337L84.4481 92.6364ZM85.0707 89.8945C85.0436 89.8945 85.0192 89.8945 84.9922 89.8945C84.9922 89.4127 84.984 88.9309 84.9949 88.4518C85.0003 88.1784 84.8704 88.0296 84.6349 87.9159C83.6686 87.4476 82.5264 87.8672 82.1068 88.8551C81.9065 89.3234 81.8659 89.816 81.9201 90.314C82.1122 92.1411 83.6415 92.3305 84.7323 91.8C84.984 91.6782 85.0923 91.4996 85.0761 91.2099C85.0517 90.7742 85.0707 90.3357 85.0707 89.8972V89.8945Z" fill="#CECECE"/>
<path d="M165.657 92.0394C165.446 91.8066 165.314 91.5305 165.214 91.2355C165.162 90.9215 165.086 90.6102 165.062 90.2962C164.989 89.3218 165.357 88.4854 165.917 87.7167L166.009 87.622C166.247 87.484 166.483 87.3459 166.721 87.2079C166.835 87.17 166.949 87.1321 167.065 87.0942C167.701 87.0347 168.337 86.9751 168.935 87.2972C169.144 87.4109 169.152 87.2431 169.146 87.1104C169.136 86.7775 169.179 86.4419 169.1 86.1144C169.1 86.0061 169.098 85.8978 169.095 85.7896C169.095 85.4404 168.97 85.01 169.13 84.7664C169.325 84.466 169.791 84.65 170.14 84.6446C170.134 84.937 170.129 85.2266 170.123 85.5189C170.031 85.9574 170.059 86.3986 170.067 86.8425C170.067 87.8683 170.067 88.8969 170.067 89.9227C170.053 90.4803 170.04 91.0379 170.132 91.59C170.132 91.747 170.126 91.904 170.132 92.061C170.146 92.5139 169.927 92.7341 169.474 92.7214C169.222 92.6538 169.293 92.3966 169.214 92.199C169.033 92.3317 168.881 92.4427 168.73 92.5509C168.245 92.7052 167.788 93.0084 167.241 92.8297C167.065 92.7999 166.889 92.7702 166.716 92.7404C166.591 92.7269 166.467 92.7133 166.369 92.6213C166.131 92.4264 165.893 92.2342 165.655 92.0394H165.657ZM169.249 89.8577H169.176C169.176 89.4193 169.152 88.9808 169.184 88.545C169.214 88.1417 169 87.9631 168.67 87.8467C167.541 87.4488 166.507 87.9982 166.18 89.1567C166.08 89.5167 166.074 89.8794 166.096 90.2421C166.188 91.6767 167.36 92.4237 168.702 91.9013C169.068 91.7606 169.314 91.5494 169.26 91.0839C169.211 90.6806 169.249 90.2665 169.249 89.8577Z" fill="#CECECE"/>
<path d="M122.143 92.632C122.057 92.7349 121.932 92.7268 121.816 92.7403C121.58 92.7701 121.348 92.8026 121.112 92.8323C121.053 92.8323 120.993 92.8323 120.931 92.8323C120.728 92.8026 120.525 92.7755 120.319 92.7457L119.975 92.6347C119.458 92.3478 119.107 91.9093 118.825 91.4032C118.828 91.3734 118.82 91.3463 118.803 91.3247C118.541 90.5397 118.584 89.7467 118.744 88.9509C118.803 88.8102 118.863 88.6694 118.92 88.5314C119.128 88.239 119.337 87.944 119.545 87.6517C119.724 87.5326 119.902 87.4162 120.081 87.2971C120.159 87.2592 120.241 87.224 120.319 87.1861C120.869 87.0562 121.424 87.0048 121.984 87.0914C122.014 87.0968 122.043 87.0995 122.073 87.1049L122.411 87.2403C122.503 87.3296 122.612 87.4731 122.655 87.2132C122.679 87.0643 122.669 86.9073 122.674 86.7558C122.663 86.2144 122.682 85.6704 122.633 85.1345C122.598 84.7501 122.69 84.6148 123.091 84.6256C123.665 84.6418 123.665 84.6148 123.657 85.1751C123.657 85.2617 123.662 85.351 123.667 85.4376C123.659 85.7597 123.651 86.0818 123.643 86.4012C123.548 87.5759 123.546 88.7533 123.635 89.928C123.64 90.74 123.605 91.5548 123.673 92.3587C123.705 92.7349 123.567 92.7511 123.31 92.7268C123.153 92.7132 123.002 92.6726 122.847 92.6429C122.839 92.5021 122.858 92.356 122.736 92.2342C122.539 92.3668 122.338 92.4994 122.141 92.632H122.143ZM122.788 89.8171C122.763 89.3975 122.715 88.9022 122.709 88.4069C122.709 88.1389 122.577 88.0144 122.365 87.9142C121.394 87.4406 120.26 87.852 119.843 88.8426C119.605 89.4111 119.556 90.0011 119.691 90.602C120.032 92.1151 121.285 92.2693 122.374 91.8471C122.671 91.7307 122.817 91.5142 122.793 91.165C122.763 90.7428 122.785 90.3178 122.785 89.8198L122.788 89.8171Z" fill="#CECECE"/>
<path d="M163.265 91.9278C163.094 92.074 162.923 92.2174 162.753 92.3636C162.634 92.4475 162.515 92.5314 162.398 92.6153C162.225 92.6857 162.055 92.7561 161.881 92.8264C161.546 92.8102 161.221 92.9293 160.883 92.886C159.621 92.7236 158.866 92.009 158.558 90.7937C158.549 90.7369 158.541 90.6773 158.533 90.6205C158.533 90.2984 158.533 89.9763 158.533 89.6542C158.541 89.5676 158.552 89.4836 158.56 89.397C158.647 89.1101 158.733 88.8205 158.82 88.5336C158.912 88.3928 159.001 88.2521 159.093 88.1113C159.272 87.9273 159.448 87.7432 159.627 87.5592C159.808 87.2831 160.168 87.3102 160.393 87.1072C160.888 87.026 161.383 86.9854 161.887 87.0205C162.217 87.0449 162.463 87.2858 162.766 87.3724C163.162 87.6702 163.462 88.0491 163.719 88.4686L163.874 89.056C163.952 89.6677 163.944 90.2767 163.8 90.8776C163.708 90.948 163.735 91.0508 163.727 91.1429C163.573 91.4054 163.422 91.668 163.267 91.9305L163.265 91.9278ZM159.513 89.9627C159.494 90.4148 159.635 90.8722 159.857 91.3053C160.141 91.8601 160.598 92.166 161.224 92.1687C161.806 92.1687 162.277 91.9305 162.561 91.4054C163.108 90.3958 163.094 89.3808 162.482 88.4145C161.846 87.413 160.479 87.4699 159.876 88.493C159.619 88.9315 159.508 89.4106 159.516 89.9627H159.513Z" fill="#CECECE"/>
<path d="M92.0366 92.2054C92.0636 92.5925 91.8011 92.6926 91.4952 92.7467C90.7942 92.8442 90.0931 92.8523 89.3921 92.7467C89.1945 92.6764 88.9644 92.7034 88.7966 92.5465C88.6126 92.4382 88.4285 92.3272 88.2445 92.2189C88.0009 92.0159 87.806 91.7723 87.6382 91.5044C87.5218 91.1092 87.4054 90.714 87.289 90.3161C87.3296 89.9264 87.197 89.5231 87.3756 89.1414C87.5461 88.7571 87.7194 88.3727 87.8899 87.9884C87.9494 87.9234 88.0117 87.8584 88.0712 87.7935C88.3148 87.5986 88.5584 87.4037 88.802 87.2115L89.1241 87.0979C89.6817 86.9733 90.2393 86.9815 90.7969 87.1006C90.9701 87.1926 91.1433 87.2846 91.3193 87.3766C91.5548 87.5851 91.7524 87.8232 91.9283 88.0831C92.0041 88.3754 92.0799 88.6677 92.1557 88.9601C92.1638 89.0629 92.18 89.1631 92.1827 89.2659C92.1954 89.7477 91.9626 89.9922 91.4844 89.9994C90.5181 90.013 89.5518 90.0319 88.5855 90.0319C88.2769 90.0319 88.2093 90.1375 88.2932 90.4298C88.5205 91.212 88.9996 91.7372 89.7981 91.9293C90.4044 92.0755 91.0161 92.0295 91.6197 91.8698C91.6441 91.8779 91.663 91.8698 91.6793 91.8508C91.977 91.7859 92.0744 91.9293 92.042 92.2054H92.0366ZM89.6817 89.3877C89.6817 89.3688 89.6817 89.3525 89.6817 89.3336C90.0904 89.3336 90.4964 89.3336 90.9052 89.3336C91.0757 89.3336 91.2164 89.3201 91.2218 89.0819C91.2408 88.3592 90.7373 87.7854 90.0146 87.7312C89.1593 87.6663 88.4637 88.2347 88.323 89.0954C88.2824 89.339 88.3608 89.404 88.5909 89.3931C88.9536 89.3796 89.319 89.3904 89.6844 89.3904L89.6817 89.3877Z" fill="#CECECE"/>
<path d="M132.984 91.2104C132.821 91.0345 132.954 90.8017 132.867 90.6122C132.883 90.1494 132.897 89.6865 132.913 89.2264L132.905 89.2318C133.181 88.3251 133.704 87.624 134.564 87.1937L134.735 87.1071C135.319 86.9934 135.904 86.9447 136.489 87.0908C136.654 87.1585 136.816 87.2289 136.981 87.2965C137.653 87.7485 138.069 88.3738 138.237 89.1642L138.259 89.3915C138.313 90.6853 137.996 91.8113 136.822 92.5448C136.624 92.6369 136.424 92.7262 136.226 92.8182C135.604 92.94 134.992 92.8805 134.383 92.7316C134.329 92.6991 134.275 92.6666 134.223 92.6314C133.652 92.2985 133.252 91.8167 132.989 91.2131L132.984 91.2104ZM133.85 89.9004C133.82 90.3605 133.936 90.7963 134.131 91.2104C134.407 91.8005 134.862 92.1496 135.531 92.1632C136.177 92.1767 136.654 91.879 136.941 91.3052C137.417 90.3443 137.377 89.3888 136.843 88.4604C136.529 87.9164 136.042 87.6755 135.414 87.7188C134.797 87.7594 134.386 88.0896 134.126 88.6282C133.934 89.0288 133.823 89.4484 133.85 89.9004V89.9004Z" fill="#CECECE"/>
<path d="M107.237 92.6448C106.607 92.2442 106.371 91.6676 106.531 90.9504C106.682 90.2547 107.161 89.8514 107.817 89.6376C108.38 89.4536 108.959 89.3886 109.546 89.3832C109.898 89.3805 110.044 89.2749 109.99 88.8906C109.898 88.2355 109.652 87.9595 108.978 87.9053C108.38 87.8566 107.776 87.8512 107.189 87.9973C106.842 88.084 106.68 88.0271 106.785 87.6347C106.799 87.5805 106.785 87.5183 106.783 87.4614C106.829 87.3207 106.94 87.253 107.072 87.2341C107.565 87.1664 108.038 86.9526 108.55 87.0338C108.989 87.0879 109.427 87.1393 109.865 87.1935C109.879 87.2097 109.895 87.2151 109.917 87.2097C110.464 87.4425 110.767 87.8728 110.908 88.4331L110.929 88.693C110.924 89.191 110.916 89.689 110.91 90.1871C110.786 90.723 110.799 91.2508 110.962 91.7813C111.04 92.033 110.859 92.3145 111.032 92.569C111.081 92.6421 110.981 92.6718 110.943 92.6772C110.634 92.7314 110.318 92.8207 110.05 92.5554C110.063 92.3335 110.074 92.117 109.763 92.3551C109.673 92.4228 109.579 92.4797 109.487 92.5446C109.14 92.6258 108.84 92.8694 108.458 92.8234C108.369 92.8234 108.282 92.8288 108.193 92.8315C107.871 92.7774 107.519 92.8802 107.232 92.6421L107.237 92.6448ZM109.968 90.8204C109.968 90.631 109.971 90.4415 109.968 90.252C109.966 90.1519 109.968 90.0274 109.825 90.0274C109.064 90.022 108.285 89.9895 107.681 90.5687C107.424 90.8177 107.356 91.148 107.457 91.4998C107.551 91.83 107.822 91.941 108.117 92.0006C108.42 92.0601 108.729 92.052 109.032 91.9924C109.884 91.83 110.006 91.6785 109.971 90.8204H109.968Z" fill="#CECECE"/>
<path d="M185.575 90.0037L185.082 90.0145C184.148 90.02 183.215 90.0389 182.281 90.0254C181.607 90.0145 181.647 90.1688 181.848 90.6858C182.202 91.5953 182.928 91.9769 183.872 92.0121C184.43 92.0337 184.968 91.874 185.521 91.8524C185.496 92.2395 185.567 92.6834 184.99 92.7456C184.289 92.8241 183.588 92.862 182.887 92.7456C182.489 92.6942 182.121 92.5724 181.818 92.2963C181.42 91.8768 181.055 91.4383 180.865 90.878C180.7 90.296 180.638 89.7114 180.852 89.124C181.095 88.3905 181.482 87.7571 182.116 87.2916C182.224 87.232 182.335 87.1725 182.443 87.113C182.966 87.029 183.488 86.9478 184.016 87.0426C184.189 87.094 184.362 87.1454 184.538 87.1996C185.567 87.8817 185.753 88.8723 185.572 90.001L185.575 90.0037ZM183.187 89.3893C183.187 89.3676 183.187 89.346 183.187 89.3243C183.596 89.3243 184.005 89.3243 184.411 89.3243C184.549 89.3243 184.663 89.3081 184.682 89.1213C184.738 88.5583 184.319 87.9358 183.772 87.7896C182.798 87.5298 181.921 88.1307 181.769 89.1511C181.734 89.3785 181.84 89.392 182.007 89.392C182.403 89.3893 182.795 89.392 183.19 89.392L183.187 89.3893Z" fill="#CECECE"/>
<path d="M63.9977 92.746C63.3183 92.8083 62.6417 92.8732 61.9569 92.746C60.9121 92.5538 60.2733 91.9015 59.87 90.965C59.8375 90.8513 59.805 90.7376 59.7753 90.6212C59.7698 90.2991 59.7671 89.977 59.7617 89.6549C59.7698 89.5467 59.778 89.4357 59.7861 89.3274C59.9025 88.9972 60.0161 88.667 60.1325 88.3368C60.276 88.1798 60.4113 88.0201 60.4709 87.809C60.5034 87.7738 60.5331 87.7386 60.5656 87.7061C60.7524 87.5681 60.9391 87.43 61.1286 87.2893C61.2639 87.2243 61.402 87.1621 61.5373 87.0971C62.1247 86.978 62.7066 86.9482 63.2886 87.1242C63.3535 87.2189 63.4591 87.1945 63.5484 87.2135C63.6973 87.3272 63.8461 87.4381 63.995 87.5518C64.0194 87.5816 64.0437 87.6114 64.0681 87.6412C64.2197 87.901 64.3712 88.1635 64.5228 88.4234C64.6203 88.9187 64.6203 89.4195 64.623 89.9175C64.4606 90.0068 64.2819 89.9852 64.1087 89.9879C63.1045 90.0041 62.1003 90.0339 61.0961 90.0231C60.6874 90.0176 60.6631 90.2017 60.7605 90.5021C60.7957 90.6104 60.8606 90.7079 60.9121 90.8107C60.9391 91.0408 61.0528 91.214 61.2558 91.3277C61.4128 91.5388 61.6131 91.6958 61.8675 91.7743H61.873C62.3926 92.0395 62.9367 92.0639 63.497 91.9448C63.7 91.9475 63.9057 91.9827 64.0843 91.8528C64.2278 91.8826 64.3767 91.7959 64.5147 91.8826C64.512 91.9583 64.5066 92.0341 64.5039 92.1099C64.3794 92.2669 64.4849 92.4889 64.3442 92.6404C64.2278 92.6729 64.1114 92.7081 63.995 92.7406L63.9977 92.746ZM62.1382 89.3897V89.3274C62.5469 89.3274 62.9556 89.3274 63.3643 89.3274C63.5538 89.3274 63.6513 89.2733 63.6567 89.0513C63.6648 88.3314 63.183 87.7846 62.4657 87.7305C61.5942 87.6655 60.9175 88.215 60.7659 89.0974C60.7307 89.3004 60.7659 89.4005 60.9987 89.3924C61.3776 89.3816 61.7593 89.3897 62.1382 89.3897V89.3897Z" fill="#CECECE"/>
<path d="M114.44 87.1988C114.546 87.2177 114.619 87.1582 114.698 87.1068C115.106 87.0716 115.515 87.0526 115.926 87.0932C116.343 87.2258 116.774 87.3314 117.031 87.7374C117.125 88.0081 117.22 88.2815 117.318 88.5521C117.318 88.7714 117.318 88.9933 117.32 89.2126C117.245 89.9326 117.236 90.6525 117.326 91.3725C117.258 91.7027 117.293 92.0357 117.307 92.3659C117.32 92.6555 117.209 92.7692 116.931 92.734C116.709 92.7069 116.47 92.8017 116.265 92.6501C116.27 92.4444 116.273 92.2387 116.278 92.033C116.278 91.9301 116.284 91.8273 116.286 91.7244C116.4 91.3346 116.362 90.934 116.354 90.5389C116.354 90.3927 116.354 90.2438 116.354 90.0977C116.354 89.7214 116.384 89.3425 116.354 88.969C116.297 88.2977 115.989 88.0027 115.309 87.9134C115.104 87.87 114.901 87.87 114.695 87.9134C114.432 87.9188 114.2 88.0135 113.983 88.157C113.899 88.2165 113.815 88.2788 113.729 88.3383C113.55 88.3789 113.515 88.5115 113.52 88.6685C113.528 89.0854 113.539 89.5022 113.547 89.9217C113.55 90.5957 113.555 91.267 113.558 91.9409C113.527 92.4155 113.262 92.6555 112.762 92.6609C112.676 92.6609 112.589 92.6663 112.505 92.669C112.505 92.3469 112.511 92.0275 112.513 91.7055C112.605 91.3509 112.578 90.9882 112.57 90.6255C112.57 90.1112 112.646 89.5996 112.511 89.0854C112.47 88.9338 112.529 88.7551 112.543 88.5873C112.502 88.2842 112.456 87.981 112.418 87.6779C112.4 87.5101 112.335 87.326 112.527 87.2042C112.814 87.2827 113.098 87.0553 113.385 87.1988C113.371 87.4018 113.385 87.5967 113.517 87.7997C113.794 87.5398 114.132 87.3964 114.435 87.2015L114.44 87.1988Z" fill="#CECECE"/>
<path d="M76.2724 88.1521C76.2047 88.1521 76.1425 88.1602 76.1127 88.2306C75.8339 88.3335 75.7744 88.5473 75.7771 88.8234C75.7906 89.9764 75.7906 91.1295 75.7906 92.2853C75.7906 92.4287 75.8556 92.6019 75.6038 92.6534C74.9705 92.7833 74.7918 92.6534 74.8027 92.0281C74.8027 91.882 74.7972 91.7358 74.7945 91.5896C74.8189 91.3677 74.8568 91.1457 74.8108 90.9211C74.9001 90.285 74.9136 89.6489 74.8108 89.0128C74.8243 88.9912 74.8216 88.9695 74.8054 88.9506L74.7891 88.5987C74.735 88.3226 74.6754 88.0439 74.6267 87.7651C74.5618 87.3888 74.67 87.1642 75.1085 87.1912C75.2628 87.1994 75.4198 87.1398 75.5768 87.11C75.7121 87.3022 75.5849 87.6622 75.7717 87.7218C75.9828 87.7894 76.1641 87.4863 76.3807 87.3834C76.4835 87.3347 76.5728 87.2616 76.6676 87.1994C76.7786 87.1669 76.8868 87.1344 76.9978 87.1019C77.3767 87.0667 77.7557 87.0424 78.1373 87.0857C78.2862 87.1209 78.4324 87.1561 78.5812 87.1912L79.0928 87.4836C79.1144 87.5079 79.1361 87.5296 79.155 87.5539C79.2254 87.6406 79.2958 87.7245 79.3635 87.8111C79.4284 88.0466 79.4934 88.2793 79.5583 88.5148C79.5502 89.8898 79.5421 91.2648 79.534 92.6398C79.1875 92.7833 78.8411 92.786 78.4973 92.6398C78.6326 92.1986 78.5839 91.7412 78.6083 91.2919C78.6543 90.4636 78.722 89.63 78.5948 88.8017C78.5217 88.3226 78.2348 88.0357 77.7827 87.9383C77.2603 87.8246 76.738 87.8273 76.2697 88.1521H76.2724Z" fill="#CECECE"/>
<path d="M71.5315 92.6354C71.3907 92.6733 71.2527 92.7139 71.1119 92.7518C70.6437 92.8303 70.1781 92.8249 69.7099 92.7491C69.5962 92.7112 69.4825 92.6761 69.3688 92.6382C68.7327 92.2673 68.6028 91.6448 68.5676 90.9898C68.5108 89.899 68.6272 88.8028 68.4891 87.7119C68.4566 87.4575 68.4621 87.2247 68.8221 87.2735C69.1008 87.3087 69.542 87.038 69.5366 87.6362C69.5366 87.6659 69.5366 87.6957 69.5339 87.7228C69.4256 88.5564 69.3986 89.3928 69.5258 90.2265C69.5258 90.7002 69.4798 91.1792 69.7829 91.5961C70.3053 92.1834 70.9306 92.0508 71.5667 91.8559C71.6695 91.8722 71.7426 91.8099 71.8184 91.7558C72.0322 91.6962 72.246 91.6448 72.2433 91.3498C72.2298 90.0803 72.2839 88.8109 72.1621 87.5468C72.1702 87.4548 72.0295 87.3574 72.1702 87.2681C72.3299 87.2681 72.4923 87.2681 72.652 87.2653C73.2204 87.2491 73.2123 87.2491 73.1907 87.8013C73.123 89.4118 73.1311 91.0195 73.2773 92.6273C72.9714 92.8087 72.6629 92.7437 72.3516 92.6409C72.3462 92.5028 72.376 92.3567 72.2677 92.2186C72.0106 92.3648 71.7724 92.5001 71.5315 92.6354V92.6354Z" fill="#CECECE"/>
<path d="M189.121 90.6338C189.099 90.6122 189.075 90.6013 189.045 90.5986C188.515 90.3442 187.984 90.0898 187.454 89.8326C186.947 89.4239 186.744 88.8961 186.839 88.2546C186.899 88.1193 186.961 87.9867 187.021 87.8513L187.643 87.2992C187.857 87.1774 188.082 87.1016 188.328 87.1016C188.707 87.1016 189.088 87.1016 189.467 87.1016C189.538 87.1097 189.611 87.1178 189.681 87.1286C190.14 87.2026 190.333 87.4634 190.26 87.9109C189.963 88.1788 189.67 87.8026 189.375 87.9055L189.351 87.8919L189.324 87.9C188.98 87.7891 188.634 87.8053 188.29 87.8784C188.014 87.9352 187.757 88.0354 187.7 88.3737C187.643 88.7148 187.814 88.9394 188.084 89.091C188.439 89.2913 188.81 89.4591 189.205 89.5701C189.275 89.6432 189.359 89.6865 189.462 89.6838C189.873 89.9355 190.269 90.2034 190.512 90.6392C190.52 90.669 190.526 90.6961 190.534 90.7258C190.593 91.0479 190.558 91.3673 190.534 91.6867C190.518 91.7084 190.512 91.7327 190.518 91.7598C190.269 92.2849 189.83 92.5745 189.294 92.7423C188.853 92.699 188.431 93.0482 187.979 92.8154C187.749 92.7396 187.513 92.7342 187.272 92.745C187.096 92.7126 186.904 92.7775 186.747 92.6476C186.685 92.3472 186.839 92.0711 186.85 91.776L186.834 91.8004C187.245 91.8518 187.632 92.0467 188.06 92.0224C188.295 92.0575 188.531 92.063 188.766 92.0251C189.175 92.0088 189.584 91.9547 189.695 91.4783C189.8 91.0209 189.5 90.7854 189.116 90.6365L189.121 90.6338Z" fill="#CECECE"/>
<path d="M98.7918 92.0224C99.0571 92.0603 99.3196 92.0548 99.5849 92.0169C100.299 91.9033 100.611 91.4783 100.308 91.0046C100.145 90.7502 99.8799 90.6149 99.5903 90.5337C99.1464 90.3361 98.7052 90.1385 98.2613 89.9436C98.1422 89.8516 98.0231 89.7596 97.904 89.6675C97.6631 89.3535 97.5034 89.0098 97.4709 88.6092C97.5548 87.716 97.9446 87.3452 99.0571 87.1016C99.436 87.1016 99.8149 87.1016 100.194 87.1016C100.486 87.1909 100.835 87.1016 101.071 87.3722C100.934 87.78 100.657 87.9614 100.24 87.9163C100.226 87.9163 100.21 87.9163 100.197 87.919C100.142 87.9109 100.091 87.9055 100.037 87.8973C99.574 87.7782 99.122 87.7809 98.6808 87.9894C98.6565 88.0056 98.6294 88.0191 98.605 88.0354C98.1503 88.4982 98.2992 88.888 99.0544 89.2182C99.1247 89.2913 99.2113 89.3238 99.3088 89.3292C99.7202 89.5241 100.132 89.719 100.546 89.9138C100.603 89.949 100.657 89.9842 100.714 90.0221C100.827 90.1493 100.944 90.2765 101.057 90.4037C101.114 90.5418 101.171 90.6798 101.228 90.8179C101.241 90.9911 101.252 91.1643 101.266 91.3403C101.187 91.6705 101.098 91.998 100.881 92.2714C100.678 92.3986 100.475 92.5258 100.272 92.6503C99.7581 92.7775 99.2303 92.81 98.7025 92.8154C98.4995 92.7532 98.2938 92.7423 98.0854 92.7532C98.0042 92.7478 97.9257 92.7396 97.8445 92.7342C97.793 92.7126 97.7416 92.6747 97.6875 92.6693C97.1921 92.6341 97.4736 92.3066 97.4791 92.0981C97.4899 91.8058 97.6631 91.8058 97.8959 91.8816C98.1801 91.9736 98.4751 92.0548 98.7837 92.0251L98.7918 92.0224Z" fill="#CECECE"/>
<path d="M177.084 87.2872C177.333 87.5254 177.211 87.8231 177.135 88.0586C177.07 88.2589 176.8 88.1533 176.624 88.1479C175.53 88.1154 175.528 88.11 175.519 89.1873C175.514 89.7827 175.487 90.3809 175.582 90.9764C175.712 91.7911 176.088 92.0807 176.908 91.9779C177.068 91.9589 177.295 91.8047 177.36 92.1213C177.249 92.3162 177.428 92.641 177.084 92.7331C176.762 92.7628 176.44 92.7899 176.118 92.8197C175.798 92.8197 175.503 92.7493 175.254 92.5355C174.973 92.2675 174.845 91.9156 174.726 91.5611C174.575 90.8573 174.564 90.1509 174.637 89.4336C174.667 89.1331 174.632 88.8246 174.626 88.5187C174.745 88.0667 174.466 88.1154 174.185 88.1668C173.576 88.156 173.565 88.1344 173.741 87.3467C173.931 87.3521 174.12 87.3386 174.304 87.363C174.621 87.4063 174.743 87.2953 174.737 86.9651C174.726 86.5482 174.737 86.126 174.826 85.7119C174.905 85.7037 174.983 85.6956 175.065 85.6875C175.27 85.6929 175.476 85.6956 175.682 85.701C175.676 85.8472 175.674 85.9907 175.668 86.1368C175.649 86.237 175.622 86.3344 175.614 86.4346C175.544 87.4577 175.609 87.5118 176.648 87.2953C176.794 87.2899 176.94 87.2872 177.087 87.2818L177.084 87.2872Z" fill="#CECECE"/>
<path d="M103.914 87.2747C104.309 87.4506 104.715 87.299 105.116 87.3099C105.302 87.3153 105.573 87.2233 105.524 87.5778C105.489 87.8323 105.614 88.2112 105.107 88.149C104.804 88.1111 104.496 88.1381 104.19 88.1165C103.954 88.1002 103.835 88.1652 103.841 88.425C103.852 89.2858 103.792 90.1492 103.9 91.0072C103.99 91.7056 104.368 92.0277 105.045 91.9898C105.496 91.9645 105.67 92.181 105.568 92.6394H105.565C105.075 92.8018 104.574 92.7909 104.071 92.7341C103.881 92.707 103.713 92.6231 103.556 92.5176C103.362 92.2875 103.18 92.0412 103.118 91.7407C103.045 91.3916 102.999 91.037 102.942 90.6824C102.977 90.206 102.993 89.7297 102.934 89.2533C102.945 89.2262 102.958 89.1992 102.964 89.1721C103.039 88.4756 102.735 88.1336 102.049 88.1462L102.06 88.1517C102.06 87.8891 102.057 87.6293 102.054 87.3667C102.244 87.3613 102.433 87.3342 102.617 87.3559C102.934 87.3938 103.069 87.2909 103.061 86.958C103.05 86.5655 103.083 86.1731 103.096 85.7833C103.118 85.767 103.14 85.7373 103.164 85.7319C103.678 85.6146 103.949 85.8564 103.976 86.4573C103.898 86.6982 103.892 86.9445 103.914 87.1935C103.916 87.2233 103.919 87.2503 103.922 87.2801L103.914 87.2747Z" fill="#CECECE"/>
<path d="M129.385 87.2252C129.585 87.1792 129.788 87.1332 129.988 87.0899C130.457 87.0303 130.922 87.0845 131.39 87.098C131.474 87.1332 131.558 87.1657 131.639 87.2008C131.607 87.5067 131.677 87.8396 131.39 88.0724L131.358 88.0562H131.323C131.123 87.956 130.911 87.8938 130.684 87.9046C130.568 87.9019 130.451 87.8965 130.335 87.8938C129.634 87.8396 129.141 88.1563 128.806 88.7518C128.584 89.331 128.443 89.9211 128.632 90.5409C128.841 91.2095 129.258 91.6804 129.934 91.8916C130.449 92.0513 130.966 92.0215 131.483 91.897C131.631 91.8618 131.788 91.7698 131.921 91.9349C131.807 92.2218 131.989 92.6738 131.472 92.7361C130.733 92.8822 130.002 92.8146 129.279 92.6305H129.285C129.055 92.506 128.825 92.3815 128.594 92.2597C128.272 91.9051 127.948 91.5614 127.769 91.0985C127.441 90.2432 127.569 89.4176 127.872 88.5948C127.929 88.5028 127.988 88.4107 128.045 88.3187C128.416 87.8613 128.857 87.4905 129.382 87.2225L129.385 87.2252Z" fill="#CECECE"/>
<path d="M96.0663 88.0057C95.9796 88.0057 95.8903 88.0057 95.8037 88.0057C95.5763 87.9813 95.3625 88.0246 95.173 88.1572C95.0567 88.2384 94.9403 88.3224 94.8239 88.4036C94.6344 88.5416 94.5234 88.7527 94.5045 88.9611C94.4693 89.3969 94.4937 89.8381 94.4937 90.2739C94.4937 90.42 94.4937 90.5662 94.4937 90.7124C94.4937 90.9181 94.4937 91.1238 94.4937 91.3268C94.4937 91.4432 94.4937 91.5623 94.4937 91.6787C94.4937 92.0008 94.491 92.3256 94.4882 92.6477L94.4828 92.6558C94.3367 92.6558 94.1878 92.6395 94.047 92.6639C93.6004 92.737 93.4299 92.5529 93.5003 92.1172C93.5084 91.722 93.5138 91.3241 93.522 90.9289C93.6059 90.3497 93.6221 89.7731 93.5274 89.1939C93.5923 88.842 93.438 88.5091 93.4326 88.1627C93.4435 87.9624 93.4245 87.7648 93.3595 87.5753C93.3 87.3994 93.3514 87.2694 93.5328 87.2045C93.7872 87.2288 94.0335 87.1747 94.2798 87.1179C94.3313 87.3669 94.3827 87.6186 94.4341 87.8622C94.6506 87.6646 94.8591 87.4752 95.0702 87.283C95.3111 87.0962 95.6196 87.1314 95.8876 87.0312C96.0635 87.0529 96.2368 87.0746 96.4127 87.0962C96.5643 87.1612 96.7159 87.2261 96.8891 87.2018C96.8512 87.4346 96.8133 87.6673 96.7781 87.9001C96.7429 87.9732 96.7077 88.049 96.6726 88.1221C96.4696 88.0815 96.2638 88.0409 96.0608 88.0003L96.0663 88.0057Z" fill="#CECECE"/>
<path d="M172.692 91.6764C172.684 92.0121 172.678 92.3477 172.67 92.6833C172.483 92.6725 172.291 92.64 172.107 92.659C171.769 92.6941 171.685 92.5507 171.709 92.234C171.739 91.8172 171.717 91.3949 171.717 90.9754C171.742 90.2771 171.788 89.5814 171.652 88.8831C171.571 88.4636 171.69 88.0197 171.568 87.592C171.509 87.3809 171.582 87.251 171.828 87.278C171.842 87.278 171.858 87.2726 171.872 87.2699C172.445 87.1418 172.711 87.3601 172.667 87.9249C172.657 88.0549 172.673 88.1875 172.675 88.3174C172.592 89.438 172.589 90.5586 172.689 91.6791L172.692 91.6764Z" fill="#CECECE"/>
<path d="M178.402 92.649C178.532 90.9763 178.581 89.3008 178.329 87.6335C178.261 87.1923 178.6 87.3249 178.762 87.2031C178.776 87.2031 178.792 87.2058 178.806 87.2058C179.215 87.1932 179.424 87.3953 179.431 87.8121C179.344 88.2777 179.374 88.7487 179.382 89.2169V90.6271L179.431 92.6355C179.09 92.7898 178.746 92.7844 178.4 92.6463L178.402 92.649Z" fill="#CECECE"/>
<path d="M178.404 85.2679L178.669 84.9918C178.934 84.9241 179.197 84.8889 179.456 85.008C179.803 85.5412 179.768 85.7957 179.278 86.2342C178.893 86.448 178.628 86.2585 178.395 85.9716C178.366 85.7388 178.358 85.5033 178.404 85.2706V85.2679Z" fill="#CECECE"/>
<path d="M172.515 84.909C172.972 85.1174 173.029 85.2852 172.856 85.9456C172.769 86.0322 172.68 86.1189 172.594 86.2055C172.564 86.2028 172.537 86.2109 172.515 86.2298C171.779 86.2461 171.657 86.1378 171.619 85.4368C171.625 85.2338 171.744 85.1011 171.895 84.9874C172.101 84.9604 172.307 84.9333 172.512 84.9062L172.515 84.909Z" fill="#CECECE"/>
<path d="M65.0456 82.3588C60.1438 82.3588 55.2392 82.3588 50.3374 82.3588C49.2574 82.3588 49.1519 82.2776 48.8162 81.2409C47.3059 76.5665 45.8226 71.8839 44.3881 67.1877C43.6572 64.7977 42.9454 62.4023 42.2254 60.0068C42.2037 59.9365 42.1983 59.8634 42.1875 59.7903C42.3418 59.6685 42.5231 59.7064 42.6937 59.7064C44.2879 59.7037 45.8849 59.7226 47.4791 59.6956C49.5443 59.6604 51.0899 57.7548 50.7542 55.7275C50.6162 54.8966 50.1317 54.3119 49.5633 53.7381C48.421 52.5905 48.1395 51.2209 48.6836 49.6997C49.2628 48.0784 51.2062 46.9578 52.9846 47.196C54.6844 47.4233 55.9051 48.2787 56.46 49.8837C56.9986 51.4428 56.5466 52.8178 55.3259 53.933C54.9659 54.2632 54.66 54.6367 54.5003 55.105C53.8372 57.043 54.8089 59.0324 56.8876 59.5954C57.2124 59.701 57.5454 59.701 57.881 59.701C60.3008 59.701 62.7206 59.701 65.1404 59.701L65.135 59.6956C65.1377 61.8988 65.1241 64.1021 65.1539 66.3053C65.1647 67.0605 64.9617 67.7074 64.5151 68.2975C64.2905 68.4842 64.0875 68.6954 63.8222 68.8334C62.5419 69.5074 60.8178 69.2096 59.7378 68.1053C58.6362 66.9766 57.3423 66.6843 55.8861 67.2635C54.8089 67.6939 54.1701 68.5438 54.0104 69.6806C53.8588 70.7768 54.2729 71.7025 55.1526 72.3792C56.5547 73.4619 58.4034 73.3292 59.662 72.0598C60.1817 71.5347 60.7717 71.1693 61.4944 70.9961C63.4622 70.5278 65.2486 71.7269 65.162 73.9058C65.0592 76.5096 65.1377 79.1189 65.135 81.7254C65.135 81.942 65.1701 82.1666 65.0402 82.3669L65.0456 82.3588Z" fill="#5F5F5F"/>
<path d="M65.137 34.1342C65.34 34.0936 65.4943 34.1938 65.6513 34.302C66.0898 34.5998 66.5337 34.8921 66.9749 35.1871C68.1523 36.0046 69.3243 36.8247 70.5071 37.634C75.0815 40.7684 79.6558 43.8973 84.2301 47.029C86.2466 48.4094 88.2631 49.7871 90.2769 51.1675C90.9184 51.606 90.9915 51.8496 90.7479 52.5723C89.9711 54.8865 89.1942 57.2035 88.4201 59.5177C88.3903 59.5746 88.3579 59.6287 88.3281 59.6855C88.0385 59.7126 87.7489 59.7343 87.4538 59.7315C85.8 59.718 84.1462 59.6287 82.4951 59.7803C81.1066 59.9102 79.8399 61.0416 79.5854 62.3949C79.3472 63.6644 79.6829 64.7308 80.6681 65.6403C82.1649 67.0234 82.3138 69.0562 81.0768 70.6775C80.1863 71.8468 78.9493 72.315 77.4958 72.2663C75.9097 72.2122 74.4021 71.1349 73.8607 69.6489C73.3248 68.1738 73.766 66.566 75.0057 65.4725C75.2845 65.2289 75.5172 64.9501 75.6661 64.609C76.0315 63.8674 76.0505 63.0743 75.8799 62.3056C75.5714 60.9171 74.2938 59.8615 72.8728 59.7776C70.5829 59.6449 68.2903 59.7288 65.9978 59.7315C65.7081 59.7315 65.4158 59.7884 65.1289 59.6909L65.1343 59.6964C65.1343 57.4796 65.1397 55.2628 65.1289 53.0433C65.1289 52.5398 65.1668 52.0553 65.4321 51.6141C66.3956 50.1904 67.8464 50.0145 69.2783 50.4936C69.9198 50.7074 70.3826 51.1865 70.8725 51.6331C72.3504 52.9864 74.8866 52.6183 75.8854 50.9266C77.0736 48.9101 75.6309 46.4335 73.2084 46.3442C72.1718 46.3063 71.3002 46.6906 70.5775 47.4404C69.6329 48.4175 68.4717 48.7342 67.1643 48.4446C65.9382 48.1739 65.1479 47.167 65.1451 45.9084C65.1343 41.9837 65.137 38.059 65.1343 34.1342H65.137Z" fill="#5F5F5F"/>
<path d="M75.6737 64.611C75.5248 64.952 75.2894 65.2281 75.0133 65.4744C73.7736 66.5679 73.3351 68.1784 73.8683 69.6509C74.407 71.1369 75.9173 72.2141 77.5034 72.2683C78.9569 72.317 80.1939 71.8487 81.0844 70.6794C82.3187 69.0608 82.1725 67.0254 80.6757 65.6423C79.6905 64.7328 79.3548 63.6664 79.593 62.3969C79.8474 61.0436 81.1142 59.9122 82.5027 59.7822C84.1538 59.6307 85.8076 59.72 87.4614 59.7335C87.7564 59.7335 88.0434 59.7119 88.3357 59.6875C88.1489 59.9771 88.1246 60.3236 88.0028 60.6348C87.5832 61.7094 87.2774 62.8219 86.893 63.9073C86.5141 64.9737 86.173 66.0645 85.8374 67.1499C85.5045 68.2217 85.0958 69.2719 84.7439 70.3384C84.208 71.9597 83.7126 73.5946 83.1632 75.2105C82.4621 77.2703 81.7611 79.3274 81.1088 81.4034C80.8868 82.1126 80.6649 82.275 79.9395 82.275C75.1242 82.2696 70.309 82.2641 65.4938 82.256C65.3855 82.256 65.2908 82.256 65.2312 82.3643C65.1717 82.3643 65.1121 82.3616 65.0526 82.3589C65.1798 82.1586 65.1473 81.9339 65.1473 81.7174C65.1473 79.1108 65.0688 76.5016 65.1744 73.8977C65.261 71.7215 63.4773 70.5197 61.5068 70.988C60.7841 71.1585 60.1941 71.5266 59.6744 72.0517C58.413 73.3212 56.5671 73.4538 55.165 72.3711C54.288 71.6944 53.8712 70.7688 54.0228 69.6725C54.1798 68.5357 54.8185 67.6858 55.8985 67.2554C57.352 66.6762 58.6458 66.9658 59.7502 68.0972C60.8301 69.2043 62.5516 69.4993 63.8346 68.8253C64.0998 68.6873 64.3028 68.4762 64.5275 68.2894C64.6033 68.5357 64.7305 68.5709 64.8875 68.3625C64.966 68.2596 65.0309 68.1378 65.0661 68.016C65.2718 67.3015 65.4234 66.5842 65.4153 65.8317C65.3991 64.1509 65.4099 62.47 65.4099 60.7891C65.4099 60.1395 65.4153 60.1395 66.0784 60.1341C68.4901 60.1097 70.9018 60.1747 73.3135 60.1097C73.6031 60.1016 73.9171 60.237 74.2148 60.3994C74.7588 60.6944 74.9727 61.2817 75.4572 61.612C75.5438 61.6715 75.5654 61.769 75.5032 61.8826C75.4409 61.9936 75.4897 62.1154 75.5573 62.2129C75.985 62.8192 75.7739 63.485 75.6521 64.1021C75.6115 64.3078 75.5465 64.4432 75.6791 64.6137L75.6737 64.611Z" fill="#AFAFAF"/>
<path d="M65.138 34.1425C65.138 38.0672 65.138 41.9919 65.1488 45.9166C65.1516 47.1753 65.9419 48.1849 67.1681 48.4528C68.4781 48.7424 69.6393 48.4231 70.5812 47.4486C71.3039 46.7016 72.1755 46.3145 73.2121 46.3524C75.6346 46.4417 77.0773 48.9184 75.8891 50.9349C74.8903 52.6266 72.3541 52.9947 70.8762 51.6413C70.3863 51.1947 69.9235 50.7156 69.282 50.5018C67.8501 50.0227 66.3993 50.1987 65.4358 51.6224C65.1732 51.6603 65.0866 51.8281 65.0433 52.0744C64.9837 52.4263 65.0433 52.7727 65.0433 53.1219C65.0433 55.0572 65.0379 56.9952 65.0243 58.9305C65.0243 59.1768 64.8511 59.3284 64.6183 59.3798C64.4613 59.415 64.2989 59.4312 64.1392 59.4285C62.2094 59.3933 60.2795 59.5097 58.3496 59.3717C57.9165 59.3419 57.478 59.5963 57.0179 59.4854C56.9854 59.4772 56.9313 59.553 56.8853 59.5909C54.8065 59.0279 53.8348 57.0412 54.498 55.1005C54.6577 54.6322 54.9635 54.2587 55.3235 53.9285C56.5442 52.8133 56.999 51.4383 56.4576 49.8793C55.9027 48.2742 54.6793 47.4189 52.9822 47.1915C51.2039 46.9533 49.2605 48.0766 48.6812 49.6952C48.1372 51.2164 48.4187 52.586 49.5609 53.7336C50.1293 54.3047 50.6138 54.8921 50.7519 55.723C51.0875 57.7504 49.542 59.6559 47.4768 59.6911C45.8825 59.7181 44.2883 59.6992 42.6913 59.7019C42.5181 59.7019 42.3367 59.664 42.1851 59.7858C41.7142 58.1564 41.2459 56.5296 40.775 54.9002C40.5476 54.1125 40.3175 53.3276 40.0929 52.5427C39.8926 51.8416 39.9981 51.5845 40.5882 51.1677C42.916 49.5247 45.2437 47.8763 47.5661 46.2252C49.1251 45.1182 50.6788 44.003 52.2351 42.8933C52.2812 42.8608 52.3407 42.8472 52.3948 42.8229C52.8144 42.693 53.1094 42.3736 53.4505 42.1218C53.9674 41.77 54.498 41.437 54.9933 41.0608C55.3127 40.8172 55.7187 40.671 55.9217 40.284C56.0624 40.192 56.2059 40.0972 56.3466 40.0052C56.7337 39.8617 57.0964 39.6831 57.3183 39.3123C57.4374 39.2609 57.5701 39.2284 57.6756 39.1553C58.4335 38.6356 59.1914 38.1132 59.9411 37.5773C60.0819 37.4771 60.1847 37.3283 60.3038 37.2011C60.6963 37.063 61.0238 36.8384 61.2701 36.4973C61.7546 36.3755 62.0686 35.9776 62.4854 35.7475C63.376 35.2603 64.0283 34.3807 65.0839 34.1641C65.1028 34.1587 65.1164 34.1181 65.1326 34.0938L65.138 34.1344V34.1425Z" fill="#AFAFAF"/>
<path d="M65.2261 82.3602C65.283 82.252 65.3777 82.252 65.4887 82.252C70.3039 82.2601 75.1191 82.2682 79.9344 82.2709C80.6598 82.2709 80.8817 82.1058 81.1037 81.3993C81.756 79.3233 82.457 77.2662 83.158 75.2064C83.7102 73.5905 84.2028 71.9556 84.7388 70.3343C85.0906 69.2679 85.5021 68.2204 85.8323 67.1458C86.1679 66.0604 86.5089 64.9696 86.8879 63.9032C87.2749 62.8178 87.5781 61.7026 87.9976 60.6308C88.1194 60.3195 88.1438 59.9731 88.3306 59.6834C88.3603 59.6266 88.3928 59.5725 88.4226 59.5156C88.3035 60.4386 87.9489 61.2912 87.6593 62.1655C87.1234 63.7895 86.5874 65.4162 86.0461 67.0376C85.1691 69.6576 84.2867 72.2777 83.4125 74.9005C82.8901 76.4677 82.3812 78.0403 81.8534 79.6075C81.645 80.23 81.4041 80.8418 81.239 81.4805C81.0793 82.0923 80.6625 82.4468 79.9939 82.4441C79.8613 82.4441 79.7314 82.4495 79.5987 82.4495C75.2491 82.4495 70.9021 82.4495 66.5524 82.4495C66.187 82.4495 65.8135 82.4089 65.4616 82.5172C65.264 82.5768 65.2884 82.4279 65.2207 82.3575L65.2261 82.3602Z" fill="#AFAFAF"/>
<path d="M65.132 34.0932C65.1158 34.1175 65.1049 34.1608 65.0833 34.1635C64.0277 34.3801 63.3754 35.257 62.4848 35.747C62.068 35.977 61.754 36.3749 61.2695 36.4967C61.6376 36.0772 62.1221 35.7957 62.566 35.479C63.2048 35.027 63.8761 34.6237 64.4824 34.1283C64.6935 33.9551 64.9073 33.9714 65.1293 34.0932H65.132Z" fill="#D6D6D6"/>
<path d="M60.3078 37.2031C60.1887 37.3303 60.0831 37.4792 59.9451 37.5794C59.1953 38.1126 58.4374 38.635 57.6796 39.1574C57.574 39.2304 57.4414 39.2629 57.3223 39.3144C58.2642 38.5348 59.2251 37.7797 60.3105 37.2058L60.3078 37.2031Z" fill="#D6D6D6"/>
<path d="M55.9243 40.2891C55.7213 40.6734 55.3153 40.8223 54.9959 41.0659C54.4979 41.4421 53.9701 41.775 53.4531 42.1269C53.5127 42.0376 53.5695 41.9483 53.6291 41.859C54.3842 41.323 55.0582 40.6653 55.9243 40.2891V40.2891Z" fill="#D7D7D7"/>
<path d="M53.6261 41.8594C53.5665 41.9487 53.5097 42.038 53.4501 42.1273C53.1091 42.3791 52.8141 42.6957 52.3945 42.8284C52.6787 42.3466 53.1849 42.1463 53.6261 41.8594V41.8594Z" fill="#D8D8D8"/>
<path d="M57.3213 39.3125C57.0967 39.6833 56.7367 39.862 56.3496 40.0054C56.5878 39.6535 56.9559 39.483 57.3213 39.3125Z" fill="#D6D6D6"/>
<path d="M61.2729 36.4922C61.0293 36.8332 60.6991 37.0579 60.3066 37.1959C60.5936 36.9144 60.8994 36.6546 61.2729 36.4922Z" fill="#D6D6D6"/>
<path d="M130.167 80.695C129.377 80.316 128.565 79.9804 127.842 79.4742C125.734 77.9937 124.573 75.9176 124.11 73.4356C123.576 70.58 124.129 67.8381 125.222 65.1991C126.846 61.2743 129.52 58.205 132.985 55.7824C135.889 53.7497 139.129 52.7726 142.637 52.5642C144.042 52.4803 145.447 52.4884 146.851 52.4613C147.255 52.4532 147.317 52.575 147.214 52.9377C146.659 54.8784 146.115 56.8218 145.579 58.7679C145.512 59.0143 145.395 59.0927 145.152 59.0873C144.331 59.0765 143.511 59.0521 142.691 59.0873C138.139 59.2876 134.595 61.2635 132.33 65.2478C131.318 67.0234 131.096 69.0264 131.531 71.0429C131.975 73.1054 133.551 74.4479 135.721 74.8214C137.289 75.0894 138.845 74.9378 140.407 74.8512C140.807 74.8295 140.875 74.9026 140.764 75.2924C140.204 77.2304 139.665 79.1765 139.14 81.1253C139.048 81.461 138.918 81.6017 138.545 81.5882C136.777 81.5151 135.001 81.5665 133.237 81.4014C132.181 81.304 131.18 80.9765 130.167 80.695Z" fill="#D9D9D9"/>
<path d="M75.6731 64.6137C75.5378 64.4432 75.6054 64.3078 75.646 64.1021C75.7651 63.485 75.979 62.8192 75.5513 62.2129C75.4836 62.1154 75.4349 61.9936 75.4972 61.8826C75.5621 61.769 75.5378 61.6715 75.4512 61.612C74.9667 61.2845 74.7528 60.6944 74.2088 60.3994C73.911 60.237 73.5971 60.1016 73.3075 60.1097C70.8958 60.1747 68.4841 60.1097 66.0724 60.1341C65.412 60.1395 65.4066 60.1422 65.4039 60.7891C65.4039 62.47 65.393 64.1509 65.4093 65.8317C65.4174 66.5842 65.2631 67.3042 65.0601 68.016C65.0249 68.1378 64.9573 68.2596 64.8815 68.3625C64.7245 68.5709 64.5973 68.5357 64.5215 68.2894C64.9654 67.6994 65.1684 67.0497 65.1603 66.2973C65.1278 64.094 65.144 61.8908 65.1413 59.6875C65.4255 59.7849 65.7178 59.7281 66.0102 59.7281C68.3028 59.7281 70.5953 59.6415 72.8852 59.7741C74.3062 59.8553 75.5838 60.9109 75.8924 62.3022C76.0629 63.0709 76.0439 63.864 75.6785 64.6056L75.6731 64.6137Z" fill="#B8B8B8"/>
<path d="M56.8906 59.5935C56.9339 59.5557 56.9881 59.4799 57.0233 59.488C57.4834 59.599 57.9192 59.3418 58.355 59.3743C60.2848 59.5096 62.2147 59.396 64.1446 59.4311C64.3043 59.4338 64.4667 59.4149 64.6237 59.3824C64.8592 59.331 65.0297 59.1767 65.0297 58.9331C65.0432 56.9978 65.0486 55.0598 65.0486 53.1245C65.0486 52.7754 64.9891 52.4289 65.0486 52.077C65.0919 51.8307 65.1786 51.6629 65.4411 51.625C65.1731 52.0662 65.1353 52.548 65.138 53.0541C65.1488 55.2709 65.1434 57.4877 65.1434 59.7072C62.7236 59.7072 60.3038 59.7045 57.884 59.7072C57.5484 59.7072 57.2154 59.7072 56.8906 59.6017V59.5935Z" fill="#AFAFAF"/>
</g>
<defs>
<clipPath id="clip0_410_436">
<rect width="231" height="127" fill="white"/>
</clipPath>
</defs>
</svg>
