<svg width="231" height="127" viewBox="0 0 231 127" fill="none" xmlns="http://www.w3.org/2000/svg">
<g clip-path="url(#clip0_119_2282)">
<path d="M144.955 28.376C146.437 27.7457 149.093 26.6843 150.625 26.1284V24.6206C147.551 25.7564 142.152 27.993 138.471 29.9954C138.569 30.118 139.213 31.0218 139.285 31.1312C140.841 30.4878 142.237 30.0676 143.498 30.0676C145.264 30.0676 146.71 30.0676 149.131 29.4986V28.3628C147.772 28.6101 146.327 28.9056 145.388 28.9056C144.832 28.9056 144.673 28.8312 144.673 28.6451C144.673 28.5335 144.747 28.4591 144.957 28.3738L144.955 28.376Z" fill="#EEEEEE"/>
<path d="M109.021 43.2225C110.082 42.717 111.8 42.4697 112.652 42.4697C113.431 42.4697 114.234 42.5572 114.973 42.6557C115.814 42.7673 116.79 42.8899 117.814 42.8899C120.136 42.8899 122.41 41.6534 122.767 41.4324C122.482 41.1851 122.123 40.8393 121.913 40.5811C121.171 40.9028 119.466 41.5199 117.775 41.5199C116.934 41.5199 116.23 41.4455 115.453 41.347C114.49 41.2245 113.575 41.1128 112.796 41.1128C111.498 41.1128 109.894 41.2354 108.336 42.3362L109.014 43.2247L109.021 43.2225Z" fill="#EEEEEE"/>
<path d="M109.156 31.2355C108.946 31.0867 108.687 31.0254 108.451 31.0254C107.932 31.0254 107.722 31.334 107.624 31.6557C107.573 31.8045 107.562 31.9533 107.562 32.0758C107.562 32.5201 107.759 32.8287 108.081 32.8287C108.525 32.8287 109.416 32.2115 109.416 31.6797C109.416 31.52 109.342 31.358 109.158 31.2355H109.156Z" fill="#EEEEEE"/>
<path d="M128.077 45.1305C127.731 44.9204 127.237 44.5987 126.978 44.4258C125.707 44.9816 124.446 46.0934 123.372 47.2182C120.901 49.7875 121.124 51.2712 118.518 52.2713C117.863 52.5186 117.06 52.79 116.034 53.0242C115.43 51.1596 113.909 49.306 112.303 49.306C111.191 49.306 109.906 49.8859 108.425 50.5425C106.683 51.3084 105.09 52.186 104.584 52.5186L105.262 53.4334C105.781 53.1489 107.276 52.407 108.77 51.7658C110.068 51.2099 111.241 50.7526 112.031 50.7526C113.303 50.7526 114.132 52.1991 114.587 53.359C112.92 53.7551 110.178 53.8536 109.35 53.8536C108.967 53.8536 108.832 53.9148 108.696 54.0265C108.571 54.1381 108.473 54.335 108.412 54.6064L108.313 55.0266H109.202C113.821 55.0266 118.181 54.2978 120.986 52.593C121.382 52.7046 121.728 52.7791 122.172 52.7791C123.779 52.7791 125.433 51.9015 126.471 51.0983C126.84 50.8138 126.928 50.5556 126.928 50.2711C126.928 50.1354 126.915 50.0107 126.904 49.8881L126.856 49.4067C125.374 50.5797 124.138 51.4572 122.606 51.4572C122.334 51.4572 122.137 51.4332 121.976 51.3828C123.47 48.9865 124.805 46.8615 128.077 45.1305V45.1305Z" fill="#EEEEEE"/>
<path d="M142.717 47.5121L143.323 47.9323C143.408 47.9936 143.472 48.0308 143.546 48.0308C143.669 48.0308 143.756 47.9083 143.756 47.8076C143.756 47.7463 143.732 47.6828 143.658 47.6216C141.855 45.978 139.916 43.9778 138.099 42.0498C136.679 40.531 135.221 38.9247 133.937 37.3053C133.849 37.1937 133.777 37.1455 133.676 37.1455C133.528 37.1455 133.453 37.244 133.453 37.3556C133.453 37.5285 133.576 37.7386 133.886 38.2572C134.825 39.8504 135.987 41.4567 137.419 42.9646C138.964 44.6081 140.778 46.14 142.717 47.51V47.5121Z" fill="#EEEEEE"/>
<path d="M106.848 42.2724L106.132 41.3467C103.366 42.4103 100.289 44.126 100.289 45.8811C100.289 46.8812 101.031 47.6735 102.699 47.6735C105.145 47.6735 107.752 46.4392 109.837 45.2881L109.54 44.881C109.367 44.6337 109.218 44.5593 108.984 44.5593C108.835 44.5593 108.675 44.6206 108.539 44.6819C106.749 45.5594 104.808 46.437 103.005 46.437C101.968 46.437 101.707 46.1153 101.707 45.671C101.707 44.4105 105.141 42.953 106.846 42.2724H106.848Z" fill="#EEEEEE"/>
<path d="M118.272 47.9379C117.222 47.9379 117.32 46.1455 117.246 44.7252C113.541 45.0841 111.219 46.1827 108.674 47.5549L108.969 48.6907C111.28 47.3076 113.504 46.5154 115.863 46.2812C115.887 47.6402 116.469 49.4566 118.012 49.4566C119.666 49.4566 121.68 46.8612 124.039 43.8236L124.656 43.0204C124.334 42.7732 123.978 42.5521 123.754 42.3398C121.334 45.454 119.233 47.9357 118.27 47.9357L118.272 47.9379Z" fill="#EEEEEE"/>
<path d="M118.556 35.3228H113.306L112.713 36.4586H119.024L118.556 35.3228Z" fill="#EEEEEE"/>
<path d="M113.234 26.071C114.532 25.7865 115.457 25.5764 116.692 25.5764C117.79 25.5764 118.583 25.8368 118.928 26.5283C119.572 27.8129 119.572 31.704 120.657 34.6321C121.67 37.3874 124.141 40.0813 126.921 42.1428C126.958 42.1669 126.995 42.18 127.043 42.18C127.179 42.18 127.266 42.0816 127.266 41.9831C127.266 41.9087 127.242 41.8605 127.181 41.7971C124.859 39.4751 122.968 36.9037 121.955 34.0872C120.955 31.3451 121.115 27.4891 120.237 25.7733C119.657 24.6375 118.421 24.3399 117.285 24.3399C116.37 24.3399 115.519 24.5259 115.123 24.6113L116.123 22.9196H114.431C114.79 22.2893 115.16 21.7094 115.346 21.3636C115.506 21.0682 115.569 20.6961 115.766 20.1906C116.409 18.5712 117.83 17.547 119.681 17.547C122.003 17.547 123.362 19.0417 124.708 20.5364C125.325 21.2279 126.338 22.6745 127.511 23.749C128.315 24.4909 129.846 25.3181 132.206 27.7517C133.565 29.161 135.145 30.9884 136.812 33.435C142.778 42.1691 146.695 49.8658 148.882 55.8709L148.844 55.895C142.581 51.645 137.158 47.6293 132.786 42.6768C129.685 39.1556 126.993 35.0786 124.645 29.8766C124.485 29.5309 124.349 29.2092 124.2 28.8765C124.139 28.7408 124.078 28.7036 123.977 28.7036C123.855 28.7036 123.767 28.7912 123.767 28.9137C123.767 29.0494 123.828 29.3449 123.964 29.9401C125.211 35.3259 128.671 40.1579 132.363 44.1715C136.044 48.161 140.207 51.5969 143.629 54.0917L146.297 61.7272C146.358 61.9132 146.433 62.1102 146.433 62.2962C146.433 62.4319 146.395 62.5435 146.31 62.6179C146.236 62.6923 146.137 62.7295 145.914 62.7295H145.111C144.765 62.7295 144.629 62.6791 144.505 62.5807C144.382 62.4822 144.295 62.3334 144.233 62.1605C143.999 61.4449 142.59 57.4291 142.318 56.6128C142.268 56.464 142.183 56.4158 142.084 56.4158C141.962 56.4158 141.874 56.5143 141.874 56.6259C141.874 56.7244 141.911 56.836 141.973 57.1818C142.332 59.0091 142.752 61.0619 142.922 61.8388C142.997 62.1977 143.082 62.5303 143.082 62.7776C143.082 63.0009 143.032 63.1234 142.848 63.3094L142.021 64.1498C141.824 64.3467 141.712 64.3971 141.552 64.3971C141.355 64.3971 141.194 64.2614 141.119 63.9156C140.18 59.53 138.76 54.0939 138.39 52.5861C138.305 52.2534 138.241 52.0674 138.044 52.0674C137.871 52.0674 137.81 52.1922 137.81 52.3388C137.81 52.4504 137.834 52.5861 137.847 52.6846C138.071 54.2405 138.972 59.913 139.948 65.0886C140.121 65.9771 140.454 66.4717 141.22 66.4717C141.566 66.4717 141.898 66.336 142.209 66.0384C142.714 65.5329 142.863 65.395 143.469 64.8019C143.903 64.3818 144.198 64.2089 144.94 64.2089H146.767C147.201 64.2089 147.435 64.0973 147.645 63.9003C147.842 63.7143 147.967 63.456 147.967 63.084C147.967 62.712 147.868 62.3925 147.733 62.0095C147.262 60.7489 145.756 56.4881 145.312 55.2888L145.349 55.2647C146.894 56.4377 149.142 57.9324 150.129 57.9324C150.437 57.9324 150.623 57.7967 150.623 57.3153C150.623 55.0415 146.844 45.6903 138.208 32.8157C133.613 25.9593 129.573 23.6484 128.437 22.5607C127.19 21.3614 126.238 20.0024 125.634 19.3481C124.288 17.8774 122.546 16.061 119.679 16.061C116.812 16.061 115.083 17.8643 114.49 19.4225C114.317 19.8667 114.182 20.4117 114.057 20.6086C113.786 21.0529 112.562 23.1406 112.057 23.9701H114.341L113.23 26.071H113.234Z" fill="#EEEEEE"/>
<path d="M138.902 22.592H139.099C139.099 22.6795 139.086 22.778 139.086 22.8633C139.086 24.2596 139.801 25.2969 141.57 25.2969C142.657 25.2969 144.362 24.7541 145.966 24.2092C147.301 23.7518 148.522 23.2835 149.128 23.1106V21.6269C148.437 21.837 147.027 22.3797 145.57 22.8874C144.038 23.4192 142.53 23.9007 141.655 23.9007C140.692 23.9007 140.418 23.3689 140.418 22.616C140.418 21.0601 141.394 18.8235 142.012 17.5498H140.517C139.738 19.0576 136.676 23.8875 135.02 25.8899L135.971 26.9163C136.86 25.9271 137.836 24.2486 138.9 22.592H138.902Z" fill="#EEEEEE"/>
<path d="M149.401 69.5542C149.204 69.5542 149.005 69.5783 148.672 69.6155L138.815 70.5915C138.531 70.6156 138.395 70.7031 138.296 70.8147C138.185 70.9373 138.137 71.0992 138.137 71.3203V71.9637C138.137 72.211 138.187 72.3226 138.272 72.4211C138.384 72.5436 138.544 72.6071 138.767 72.6071H149.403C149.661 72.6071 149.86 72.5327 150.009 72.4101C150.169 72.2613 150.243 72.0643 150.243 71.7667V70.6178C150.243 70.1735 150.158 69.9503 150.009 69.7906C149.873 69.6417 149.65 69.5564 149.403 69.5564L149.401 69.5542Z" fill="#EEEEEE"/>
<path d="M93.4161 60.7154C92.5889 61.1968 91.5625 61.42 90.6609 61.42C90.2779 61.42 90.105 61.4945 89.9693 61.6301C89.8205 61.779 89.7461 62 89.7461 62.3086V62.7419H90.0547C91.7091 62.7419 93.241 62.4814 94.9218 61.1596L100.395 56.8856C101.174 57.7741 103.137 59.0106 105.459 59.0106C106.768 59.0106 107.608 58.6889 108.818 58.3803C109.757 58.1461 110.672 57.9361 112.672 57.9361H118.465C121.43 57.9361 122.864 57.3189 124.444 56.4282C127.877 54.5002 130.806 51.2394 132.46 47.495C132.027 47.2236 131.62 46.9764 131.274 46.7422C129.42 50.6464 126.604 53.487 123.715 55.1305C122.345 55.9096 121.109 56.4151 118.441 56.4151H112.672C110.608 56.4151 109.313 56.6865 108.3 56.9469C107.212 57.2314 106.52 57.5159 105.422 57.5159C103.791 57.5159 102.284 56.7127 101.555 55.9468L102.914 54.8722L102.236 53.9706C101.839 54.2551 97.0095 57.8244 95.9985 58.6276L95.9372 58.5904C95.9613 58.3431 95.9613 58.1199 95.9613 57.8988C95.9613 55.1808 94.7007 54.5265 92.7858 53.7605L91.4881 54.5265C94.1186 55.404 94.7729 56.1087 94.7729 58.0717C94.7729 59.6277 94.2171 60.247 93.4139 60.7154H93.4161Z" fill="#EEEEEE"/>
<path d="M92.3305 46.8485L92.418 47.3803C92.4552 47.6035 92.5406 47.7873 92.7266 47.8749C92.9498 47.9865 93.2693 47.9974 93.8252 47.9974C95.2323 47.9974 96.2587 47.8245 96.8518 47.6757C98.3706 49.9364 100.458 50.8008 102.472 50.8008C104.187 50.8008 105.929 50.1705 107.597 49.2558L107.288 48.1309C105.658 49.0457 103.966 49.6497 102.472 49.6497C100.804 49.6497 99.3225 48.9341 98.0861 47.0673C97.5674 46.2773 97.1604 45.2881 96.6658 44.4106C96.0727 43.3732 95.4315 42.8174 94.3066 42.8174C93.2824 42.8174 92.2801 43.2376 91.2188 43.6949L91.2691 43.9291C91.3544 44.3121 91.5032 44.5835 91.8622 44.5835C92.0219 44.5835 92.1839 44.509 92.2692 44.485C92.8623 44.299 93.2956 44.1392 93.8996 44.1392C94.8253 44.1392 95.2717 44.6819 95.8998 46.0169L96.134 46.5115C95.4906 46.7347 93.9849 46.8441 92.8601 46.8441H92.3283L92.3305 46.8485Z" fill="#EEEEEE"/>
<path d="M118.22 19.6343C117.416 19.6343 117.195 20.4134 117.195 20.8445C117.195 21.1903 117.318 21.5973 117.751 21.5973C118.11 21.5973 118.554 21.3369 118.9 21.0546C119.233 20.7832 119.456 20.56 119.456 20.339C119.456 20.1289 119.259 19.9319 118.961 19.7962C118.751 19.6977 118.493 19.6365 118.22 19.6365V19.6343Z" fill="#EEEEEE"/>
<path d="M135.781 87.8553C135.929 87.6693 136.028 87.4351 136.028 87.1134V70.9431C136.028 70.6214 135.929 70.3872 135.781 70.2012C135.595 69.978 135.336 69.8423 134.953 69.8423H133.483C133.1 69.8423 132.842 69.978 132.655 70.2012C132.507 70.3872 132.408 70.6214 132.408 70.9431V87.1134C132.408 87.4351 132.507 87.6693 132.655 87.8553C132.842 88.0785 133.1 88.2142 133.483 88.2142H134.953C135.336 88.2142 135.597 88.0785 135.781 87.8553Z" fill="#EEEEEE"/>
<path d="M81.8314 88.214H82.9803C83.4487 88.214 83.7463 88.0543 83.9564 87.807C84.1293 87.5969 84.2277 87.3627 84.2277 86.9535V75.4642H84.289C84.289 75.4642 90.6639 86.7565 90.9222 87.1767C91.2811 87.7698 91.8851 88.214 92.7495 88.214H94.7147C95.1831 88.214 95.4807 88.0543 95.6908 87.807C95.8637 87.5969 95.9621 87.3627 95.9621 86.9535V72.6105H121.766C122.026 72.6105 122.223 72.5361 122.372 72.4135C122.532 72.2647 122.606 72.0677 122.606 71.7701V70.6825C122.606 70.387 122.532 70.1879 122.372 70.039C122.223 69.9165 122.026 69.8421 121.766 69.8421H93.603C93.1325 69.8421 92.8371 70.0018 92.627 70.2491C92.4541 70.4592 92.3556 70.6934 92.3556 71.1026V82.3206H92.2943C92.2943 82.3206 86.1557 71.374 85.8581 70.8685C85.648 70.5096 85.4139 70.2623 85.1053 70.0784C84.7967 69.9056 84.475 69.7939 83.8579 69.7939H81.8314C81.3609 69.7939 81.0654 69.9537 80.8554 70.201C80.6825 70.4111 80.584 70.6452 80.584 71.0523V86.9535C80.584 87.3605 80.6825 87.5969 80.8554 87.807C81.0654 88.0543 81.3609 88.214 81.8314 88.214V88.214Z" fill="#EEEEEE"/>
<path d="M110.226 82.2658C110.436 82.0688 110.534 81.7843 110.534 81.2525C110.534 79.6353 110.029 77.9546 108.965 76.6699C107.877 75.3722 106.223 74.4946 103.888 74.4946C99.6006 74.4946 97.1934 77.8429 97.1934 81.3751C97.1934 85.1436 99.7757 88.4547 103.914 88.4547C105.978 88.4547 108.002 87.6756 109.164 86.3056C109.67 85.7126 110.079 84.8853 110.079 84.3776C110.079 84.2047 110.042 84.0559 109.943 83.9443C109.845 83.8218 109.696 83.7473 109.438 83.7473H107.448C107.052 83.7473 106.781 83.8962 106.584 84.1916C106.004 85.0451 105.164 85.4893 103.927 85.4893C102.074 85.4893 100.877 84.08 100.789 82.5371H109.387C109.77 82.5371 110.042 82.4496 110.228 82.2658H110.226ZM100.813 79.9066C100.973 78.3879 102.135 77.2499 103.901 77.2499C105.667 77.2499 106.829 78.3857 106.989 79.9066H100.813V79.9066Z" fill="#EEEEEE"/>
<path d="M87.7419 21.504C87.0503 20.9722 86.2712 20.5411 85.3587 20.169C85.2974 20.145 85.2471 20.1318 85.1989 20.1318C85.0632 20.1318 85.002 20.2303 85.002 20.3179C85.002 20.3923 85.026 20.4535 85.1376 20.552C86.2122 21.4668 88.2868 23.2088 88.9302 23.7384L89.4489 23.1453C88.893 22.491 88.324 21.9461 87.7441 21.5018L87.7419 21.504Z" fill="#EEEEEE"/>
<path d="M81.0754 58.8212C82.0011 58.8212 82.1127 58.2654 82.1127 57.7336C82.1127 57.3747 82.0996 56.9676 82.0996 56.5234C82.1127 55.497 82.1499 54.5844 83.8044 53.8425C84.4718 53.5471 87.7457 52.2121 90.1771 51.1748C90.8927 50.8662 91.5602 50.6058 92.3021 50.6058C93.1293 50.6058 94.0813 50.9647 95.2674 51.6672C96.2675 52.2603 97.318 53.0634 98.1452 53.9891L99.1956 53.186C98.294 52.1224 97.0466 51.1726 95.7992 50.4307C94.5518 49.6889 93.4401 49.2577 92.5012 49.2577C92.0942 49.2577 91.7593 49.3321 91.4748 49.4066C91.1422 49.4941 90.8314 49.5926 90.4375 49.5926C89.9801 49.5926 89.5972 49.481 89.0413 48.8397C88.8312 48.6056 87.4963 47.0846 87.2139 46.6404C87.0783 46.4303 86.831 46.0101 86.831 45.5155C86.831 45.3054 86.8682 45.0581 86.9907 44.8371C88.1397 45.7256 89.5599 46.2705 91.2888 46.4806L91.0547 45.3076C88.573 44.6533 85.9293 42.467 85.9293 41.0577C85.9293 40.7622 86.0037 40.5499 86.1153 40.2917C87.0783 41.1802 89.3389 42.1081 90.5623 42.1081C91.2297 42.1081 91.7725 41.8849 92.2911 41.6748C92.7857 41.4778 93.2803 41.2787 93.9456 41.2787C95.5278 41.2787 97.4777 42.0446 99.1956 42.7734C99.2941 42.8106 99.4057 42.8347 99.5173 42.8347C99.7887 42.8347 99.9988 42.7121 100.134 42.4517L100.358 42.0446C98.4669 40.9461 95.4534 39.7709 93.8843 39.7709C93.1687 39.7709 92.65 39.9569 92.1554 40.1538C91.5996 40.3771 91.1181 40.6112 90.6104 40.6112C89.363 40.6112 86.1635 39.3748 86.1635 38.1777C86.1635 36.7683 91.2538 36.2256 91.8075 36.2256L92.313 35.0767C88.6189 35.0767 84.2223 36.3744 84.2223 38.0901C84.2223 38.5847 84.5068 38.832 84.5068 39.2894C84.5068 39.9065 84.2223 40.3267 84.2223 41.0183C84.2223 41.4757 84.4937 42.0556 84.8154 42.5633C85.1612 43.0951 85.5682 43.4409 85.5682 43.8851C85.5682 44.2178 85.345 44.6139 85.345 45.393C85.345 47.0605 86.297 48.0738 88.1484 50.0631L88.5183 50.4592C86.9863 51.0523 84.1326 52.2865 83.4651 52.571C81.1542 53.5339 80.5742 54.7091 80.5742 56.5606C80.5742 57.2762 80.5742 58.0925 80.6224 58.8212H81.0666H81.0754Z" fill="#EEEEEE"/>
<path d="M150.004 83.9516C149.905 83.8291 149.756 83.7547 149.498 83.7547H147.509C147.113 83.7547 146.841 83.9035 146.644 84.1989C146.064 85.0524 145.224 85.4967 143.987 85.4967C142.134 85.4967 140.937 84.0873 140.849 82.5445H149.472C149.855 82.5445 150.126 82.4569 150.312 82.2731C150.522 82.0761 150.621 81.7916 150.621 81.2599C150.621 79.6426 150.115 77.9619 149.052 76.6773C147.964 75.3795 146.285 74.502 143.95 74.502C139.663 74.502 137.256 77.8503 137.256 81.3824C137.256 85.1509 139.838 88.462 143.974 88.462C146.038 88.462 148.062 87.6829 149.224 86.313C149.73 85.7199 150.139 84.8927 150.139 84.3849C150.139 84.2121 150.102 84.0632 150.004 83.9516V83.9516ZM143.963 77.255C145.692 77.255 146.892 78.3908 147.051 79.9118H140.876C141.035 78.393 142.197 77.255 143.963 77.255Z" fill="#EEEEEE"/>
<path d="M109.004 28.7108C108.646 28.6232 108.263 28.551 107.72 28.551C106.744 28.551 105.693 28.9209 104.978 29.6146C103.669 30.862 103.595 32.2079 103.507 33.4072C103.396 35.0004 103.1 35.3965 102.236 36.5585C101.531 37.5105 100.568 38.7579 99.8262 40.0797C100.06 40.1913 100.839 40.6115 101.111 40.7603C101.964 39.4757 103.148 37.8935 103.927 36.6964C104.632 35.6087 104.916 35.1404 104.965 33.6829C104.978 33.4356 104.978 33.2015 105.002 32.9673C105.063 32.2145 105.262 31.4485 105.978 30.7438C106.51 30.2121 107.276 29.9407 108.042 29.9407C108.808 29.9407 109.215 30.1508 109.858 30.1508C110.315 30.1508 110.648 30.0392 110.946 29.9276L111.18 29.84L110.611 31.199L111.946 31.7418C111.092 32.2736 109.228 34.5583 109.228 37.2632C109.228 38.2392 109.377 39.1409 109.587 39.944C109.611 40.0294 109.661 40.1169 109.797 40.1169C109.919 40.1169 110.007 40.0425 110.02 39.9068L110.033 39.6223C110.07 38.7951 110.132 37.4842 110.466 36.3112C111.022 34.3351 112.517 32.4815 114.012 31.593L111.887 30.6672L112.801 28.4307L111.801 28.6408C111.195 28.7655 110.751 28.8749 110.219 28.8749C109.873 28.8749 109.477 28.8246 109.009 28.7152L109.004 28.7108Z" fill="#EEEEEE"/>
<path d="M119.607 80.3137L116.803 79.5981C115.641 79.3026 115.098 79.0925 115.098 78.3747C115.098 77.6569 115.716 77.1273 117.149 77.1273C117.989 77.1273 118.755 77.3133 119.25 77.832C119.657 78.2653 119.583 78.4863 119.904 78.6592C120.101 78.7577 120.324 78.7577 120.67 78.7577H122.066C122.29 78.7577 122.449 78.7205 122.572 78.5848C122.67 78.4732 122.732 78.3003 122.732 78.0158C122.732 77.3724 122.312 76.5452 121.57 75.9149C120.58 75.0636 119.025 74.4946 117.147 74.4946C113.761 74.4946 111.54 76.1009 111.54 78.6702C111.54 79.5849 111.873 80.3246 112.418 80.9068C113.048 81.5852 113.95 82.0557 115.258 82.3883L118.088 83.1039C118.867 83.3009 119.558 83.5373 119.558 84.2157C119.558 85.2661 118.447 85.625 117.261 85.625C116.681 85.625 116.074 85.5134 115.58 85.2661C115.234 85.0932 114.937 84.8459 114.726 84.5133C114.54 84.2288 114.479 84.0187 114.195 83.859C114.022 83.7605 113.812 83.7473 113.527 83.7473H111.995C111.663 83.7473 111.501 83.8458 111.389 83.9815C111.277 84.1172 111.24 84.3142 111.24 84.5133C111.24 85.0079 111.413 85.625 111.82 86.1809C112.759 87.4414 114.722 88.4547 117.23 88.4547C119.738 88.4547 123.121 87.4283 123.121 84.1172C123.121 83.2637 122.874 82.535 122.417 81.9419C121.837 81.1891 121.009 80.6704 119.6 80.3115L119.607 80.3137Z" fill="#EEEEEE"/>
<path d="M126.079 87.0259C126.821 87.7547 127.784 88.212 129.464 88.212H130.515C130.775 88.212 130.972 88.1376 131.119 88.0151C131.279 87.8663 131.379 87.6693 131.379 87.3717V86.2972C131.379 86.0017 131.281 85.8026 131.119 85.6538C130.97 85.5312 130.773 85.4568 130.515 85.4568H130.366C129.699 85.4568 129.241 85.2839 128.933 84.9885C128.563 84.6427 128.377 84.1109 128.377 83.4194V77.5018H130.624C130.885 77.5018 131.082 77.4274 131.231 77.3049C131.39 77.156 131.465 76.9591 131.465 76.6615V75.8102C131.465 75.5125 131.39 75.3156 131.231 75.1668C131.082 75.0442 130.885 74.9698 130.624 74.9698H128.388V70.9431C128.388 70.6214 128.289 70.3872 128.14 70.2012C127.954 69.978 127.696 69.8423 127.313 69.8423H125.917C125.534 69.8423 125.274 69.978 125.09 70.2012C124.941 70.3872 124.842 70.6214 124.842 70.9431V74.9698H124.151C123.89 74.9698 123.694 75.0442 123.545 75.1668C123.385 75.3156 123.311 75.5125 123.311 75.8102V76.6615C123.311 76.9591 123.385 77.156 123.545 77.3049C123.694 77.4274 123.89 77.5018 124.151 77.5018H124.842V83.6667C124.842 85.2489 125.276 86.2359 126.077 87.0259H126.079Z" fill="#EEEEEE"/>
<path d="M97.0759 30.9361C95.3339 32.9998 94.4192 34.6674 92.9004 38.3746C93.1477 38.3505 93.5066 38.3243 93.9005 38.3243C94.0975 38.3243 94.2594 38.3243 94.5177 38.3374L94.7037 37.9413C95.555 36.1118 96.7039 33.641 98.3102 31.7392L98.8661 31.0849C100.521 29.146 101.547 27.997 102.188 25.3534C102.411 24.4145 102.595 23.5742 103.225 22.968C103.794 22.4253 104.51 22.1889 105.239 22.1889C105.856 22.1889 106.313 22.3377 106.981 22.6222C107.587 22.8826 107.808 22.9308 108.451 22.9308C108.675 22.9308 108.834 22.9177 108.983 22.9067L108.119 24.0688L109.292 24.896C107.821 25.3293 107.044 26.7496 106.784 27.404C106.734 27.5396 106.709 27.6272 106.709 27.7125C106.709 27.811 106.76 27.9095 106.906 27.9095C107.066 27.9095 107.191 27.7869 107.401 27.5396C108.117 26.6752 108.686 26.0821 111.329 25.2549L109.465 23.8456L110.872 21.7819H109.55C108.71 21.7819 108.154 21.7687 107.425 21.4361C106.436 20.9787 105.93 20.7817 105.053 20.7817C103.978 20.7817 103.002 21.1647 102.199 21.9066C101.273 22.7601 100.989 23.8959 100.654 25.1433C100.394 26.1062 100.085 27.1698 99.3935 28.1458C98.8136 28.9731 98.3934 29.3823 97.0716 30.9383L97.0759 30.9361Z" fill="#EEEEEE"/>
<path d="M91.3926 26.4743C92.0469 27.4263 93.1455 29.2668 94.185 31.7134C94.371 31.4049 94.9269 30.6521 95.1479 30.4157C94.196 28.4877 92.64 26.6472 91.9616 25.9185L91.3926 26.4743V26.4743Z" fill="#EEEEEE"/>
<path d="M106.006 24.8452C106.339 24.6483 106.623 24.3638 106.623 24.0662C106.623 23.9305 106.562 23.7948 106.426 23.67C106.192 23.4468 105.87 23.3374 105.599 23.3374C104.982 23.3374 104.66 23.9173 104.66 24.4491C104.66 24.8562 104.857 25.0925 105.24 25.0925C105.474 25.0925 105.746 24.9941 106.006 24.8452V24.8452Z" fill="#EEEEEE"/>
<path d="M84.9961 30.3286C84.9961 30.4162 85.0574 30.5256 85.1931 30.5256C85.2784 30.5256 85.3528 30.4884 85.5148 30.4271L90.0361 28.8952L89.8128 28.1533C87.9724 28.4619 86.6374 28.9324 85.1186 30.1185C85.0333 30.1929 84.9961 30.2433 84.9961 30.3286Z" fill="#EEEEEE"/>
<path d="M86.3768 26.302C83.3502 26.302 82.0656 27.7595 82.0656 28.7355C81.1639 29.1054 80.584 30.1077 80.584 31.0334C80.584 32.8739 81.9299 34.1847 83.7091 34.1847C84.3021 34.1847 84.9083 33.9506 85.3263 33.6289C85.6349 33.7405 86.031 33.8018 86.4381 33.8018C87.2915 33.8018 88.2413 33.5063 88.9088 32.5303C89.0073 32.5434 89.0948 32.5434 89.1933 32.5434C90.281 32.5434 91.2198 31.8278 91.7144 30.8889C91.8369 30.6548 91.8873 30.4688 91.8873 30.3331C91.8873 30.1974 91.826 30.0858 91.6903 30.0858C91.5174 30.0858 91.4933 30.2455 91.1848 30.53C90.4932 31.1603 89.4318 31.3945 88.3442 31.3945C87.8124 32.1736 87.1581 32.5806 86.4052 32.5806C85.8494 32.5806 85.4161 32.4318 84.9718 32.1363C84.6129 32.5325 84.1686 32.6922 83.7375 32.6922C82.7615 32.6922 82.0699 32.0138 82.0699 31.0246C82.0699 30.3331 82.5142 29.7159 83.1313 29.4796C83.2429 28.2562 84.5516 27.429 86.182 27.429C86.3921 27.429 86.6022 27.4421 86.8232 27.4662C87.0705 27.0701 87.6636 26.6499 88.5039 26.5405C88.6768 26.5164 88.8125 26.5033 88.911 26.453C89.0095 26.4026 89.0598 26.3042 89.0598 26.1925C89.0598 26.0941 89.0226 26.0065 88.9241 25.9453C88.8388 25.8949 88.69 25.8708 88.5171 25.8336C87.738 25.6848 86.8123 25.2034 86.344 24.0304C84.4794 24.0304 83.1073 22.5357 83.1073 20.8549V20.7433C82.4901 20.496 82.0699 19.903 82.0699 19.1983C82.0699 18.2726 82.7987 17.5307 83.7244 17.5307C84.2803 17.5307 84.7617 17.8021 85.0703 18.2091C85.3307 18.1347 85.6261 18.1106 85.9106 18.1106C87.2937 18.1106 88.7753 18.9882 89.0598 20.693C90.839 20.8528 91.2592 22.3606 91.3686 22.9909C91.4299 23.3126 91.4802 23.5839 91.6903 23.5839C91.9135 23.5839 91.9617 23.3366 92.0361 23.004C92.1718 22.3737 92.4059 21.8682 92.8764 21.4721C92.8764 19.8526 94.0866 18.4586 95.8046 18.4586C96.065 17.8896 96.6318 17.4957 97.3124 17.4957C98.2381 17.4957 98.98 18.2113 98.98 19.1633C98.98 19.7191 98.7196 20.2006 98.3125 20.4982C98.4001 20.8199 98.4613 21.1044 98.4613 21.3758C98.4613 22.4131 97.8442 23.1419 96.7084 23.5248C96.5596 24.1551 96.2882 24.7241 95.844 25.1443C95.1021 25.8599 94.3493 25.8599 94.3493 26.1575C94.3493 26.3173 94.4609 26.418 94.7694 26.418C96.1416 26.418 97.4875 25.652 97.6472 24.3783C98.9559 23.9341 99.7481 22.6123 99.7481 21.5618C99.7481 21.2904 99.7241 21.0541 99.6125 20.8331C99.9714 20.4873 100.392 19.8942 100.392 19.0167C100.392 18.2507 100.059 17.4716 99.4658 16.9048C98.9472 16.3971 98.2184 16.0645 97.3649 16.0645C96.1306 16.0645 95.3275 16.7319 94.8701 17.3863C93.5242 17.3863 91.7822 18.881 91.7822 21.0191H91.5962C91.4737 20.2772 90.7077 19.7826 90.0643 19.7476C89.5456 18.1916 88.3726 16.8567 86.4446 16.8567C86.2214 16.8567 85.95 16.8698 85.7159 16.907C85.1469 16.3883 84.5166 16.0666 83.6412 16.0666C81.9605 16.0666 80.5905 17.4125 80.5905 19.1173C80.5905 20.1809 81.072 20.9097 81.9868 21.5509C81.9868 21.5509 81.9736 21.6866 81.9736 21.7478C81.9736 23.1068 83.4552 25.2318 85.6546 25.2318C85.6546 25.5776 86.0879 26.0481 86.5694 26.1335V26.3063H86.3833L86.3768 26.302Z" fill="#EEEEEE"/>
<path d="M96.6393 20.3288C96.6393 20.2303 96.5539 20.1318 96.4292 20.1318C96.3176 20.1318 96.2563 20.2062 96.1447 20.2916C95.6764 20.6986 95.2562 21.1079 94.8119 21.6134C94.1817 22.3181 93.6499 23.2569 93.2188 24.2811L93.8862 24.6882C94.3436 24.0098 95.8121 21.6856 96.5671 20.5126C96.6174 20.4382 96.6415 20.3769 96.6415 20.3266L96.6393 20.3288Z" fill="#EEEEEE"/>
<path d="M57.5056 101.724C58.0483 101.372 58.6742 101.197 59.3876 101.197C60.5803 101.197 61.5082 101.726 62.1757 102.783L62.83 102.289C62.4383 101.685 61.9525 101.225 61.3682 100.914C60.786 100.604 60.1251 100.448 59.3876 100.448C58.5079 100.448 57.7266 100.663 57.046 101.089C56.3654 101.516 55.8358 102.109 55.4594 102.871C55.0808 103.63 54.8926 104.492 54.8926 105.453C54.8926 106.414 55.0939 107.272 55.4922 108.029C55.8927 108.786 56.4529 109.377 57.1729 109.804C57.8929 110.231 58.7158 110.445 59.6415 110.445C60.7707 110.445 61.8299 110.152 62.8169 109.565V105.377H59.322V106.097H61.9503V109.125C61.2828 109.508 60.5278 109.699 59.6831 109.699C58.9281 109.699 58.2562 109.519 57.6697 109.158C57.0832 108.797 56.6236 108.292 56.2954 107.637C55.9671 106.983 55.8008 106.239 55.8008 105.403C55.8008 104.567 55.9496 103.845 56.2472 103.208C56.5448 102.571 56.965 102.079 57.5078 101.726L57.5056 101.724Z" fill="#EEEEEE"/>
<path d="M69.4178 103.818C68.9385 103.525 68.387 103.378 67.7633 103.378C67.1396 103.378 66.5903 103.525 66.1089 103.818C65.6296 104.112 65.2554 104.525 64.9884 105.059C64.7214 105.593 64.5879 106.206 64.5879 106.9C64.5879 107.593 64.7192 108.21 64.9818 108.747C65.2444 109.285 65.6165 109.701 66.0957 109.994C66.575 110.287 67.1265 110.434 67.7502 110.434C68.3739 110.434 68.9385 110.285 69.4178 109.988C69.897 109.69 70.2691 109.274 70.5317 108.74C70.7943 108.206 70.9256 107.589 70.9256 106.886C70.9256 106.184 70.7943 105.58 70.5317 105.053C70.2691 104.523 69.897 104.112 69.4178 103.818ZM69.7723 108.375C69.5819 108.806 69.3105 109.143 68.9582 109.381C68.6059 109.622 68.2054 109.742 67.7502 109.742C67.295 109.742 66.8967 109.624 66.5487 109.388C66.203 109.152 65.9338 108.819 65.7412 108.388C65.5508 107.957 65.4545 107.46 65.4545 106.9C65.4545 106.339 65.5508 105.858 65.7412 105.425C65.9316 104.993 66.2008 104.659 66.5487 104.424C66.8967 104.19 67.295 104.07 67.7502 104.07C68.2054 104.07 68.6059 104.186 68.9582 104.418C69.3084 104.65 69.5797 104.978 69.7723 105.405C69.9627 105.832 70.059 106.322 70.059 106.873C70.059 107.425 69.9627 107.943 69.7723 108.375V108.375Z" fill="#EEEEEE"/>
<path d="M76.9842 103.818C76.5049 103.525 75.9534 103.378 75.3297 103.378C74.706 103.378 74.1567 103.525 73.6753 103.818C73.196 104.112 72.8218 104.525 72.5548 105.059C72.2878 105.593 72.1543 106.206 72.1543 106.9C72.1543 107.593 72.2856 108.21 72.5482 108.747C72.8108 109.285 73.1829 109.701 73.6621 109.994C74.1414 110.287 74.6929 110.434 75.3166 110.434C75.9403 110.434 76.5049 110.285 76.9842 109.988C77.4634 109.69 77.8355 109.274 78.0981 108.74C78.3607 108.206 78.492 107.589 78.492 106.886C78.492 106.184 78.3607 105.58 78.0981 105.053C77.8355 104.523 77.4634 104.112 76.9842 103.818ZM77.3387 108.375C77.1483 108.806 76.8769 109.143 76.5246 109.381C76.1723 109.622 75.7718 109.742 75.3166 109.742C74.8614 109.742 74.4631 109.624 74.1151 109.388C73.7694 109.152 73.5002 108.819 73.3076 108.388C73.1172 107.957 73.0209 107.46 73.0209 106.9C73.0209 106.339 73.1172 105.858 73.3076 105.425C73.498 104.993 73.7672 104.659 74.1151 104.424C74.4609 104.188 74.8614 104.07 75.3166 104.07C75.7718 104.07 76.1723 104.186 76.5246 104.418C76.8748 104.65 77.1461 104.978 77.3387 105.405C77.5291 105.832 77.6254 106.322 77.6254 106.873C77.6254 107.425 77.5291 107.943 77.3387 108.375V108.375Z" fill="#EEEEEE"/>
<path d="M85.0936 104.799C84.8703 104.363 84.5443 104.017 84.1131 103.766C83.682 103.512 83.2027 103.385 82.6797 103.385C82.102 103.385 81.5877 103.531 81.139 103.825C80.6904 104.118 80.3403 104.529 80.093 105.059C79.8435 105.589 79.7188 106.199 79.7188 106.893C79.7188 107.587 79.8435 108.204 80.093 108.74C80.3425 109.278 80.6926 109.696 81.1478 109.994C81.6008 110.292 82.126 110.44 82.7213 110.44C83.2553 110.44 83.7345 110.313 84.1613 110.06C84.588 109.806 84.9075 109.458 85.122 109.011L85.203 110.278H85.9098V100.605H85.0957V104.794L85.0936 104.799ZM84.8069 108.401C84.6165 108.827 84.3473 109.16 83.9993 109.394C83.6536 109.631 83.2575 109.749 82.811 109.749C82.126 109.749 81.5833 109.491 81.1828 108.974C80.7823 108.458 80.5832 107.768 80.5832 106.906C80.5832 106.044 80.7867 105.346 81.1959 104.838C81.6052 104.33 82.1479 104.076 82.8241 104.076C83.2772 104.076 83.6754 104.197 84.019 104.437C84.3604 104.678 84.6252 105.011 84.8134 105.438C84.9995 105.864 85.0936 106.359 85.0936 106.919C85.0936 107.479 84.9973 107.974 84.8069 108.401V108.401Z" fill="#EEEEEE"/>
<path d="M92.4964 100.969C92.155 101.317 91.9821 101.796 91.9821 102.409V103.543H90.8223V104.236H91.9821V110.281H92.7962V104.236H94.477V103.543H92.7962V102.462C92.7962 102.052 92.9057 101.735 93.1223 101.507C93.3412 101.28 93.6454 101.168 94.0371 101.168C94.2691 101.168 94.512 101.212 94.7702 101.302V100.569C94.5295 100.488 94.245 100.448 93.9167 100.448C93.3127 100.448 92.8378 100.621 92.4964 100.969V100.969Z" fill="#EEEEEE"/>
<path d="M100.236 103.818C99.7569 103.525 99.2054 103.378 98.5817 103.378C97.958 103.378 97.4087 103.525 96.9272 103.818C96.4479 104.112 96.0737 104.525 95.8067 105.059C95.5397 105.593 95.4062 106.206 95.4062 106.9C95.4062 107.593 95.5376 108.21 95.8002 108.747C96.0628 109.285 96.4348 109.701 96.9141 109.994C97.3934 110.287 97.9448 110.434 98.5685 110.434C99.1922 110.434 99.7569 110.285 100.236 109.988C100.715 109.69 101.087 109.274 101.35 108.74C101.613 108.206 101.744 107.589 101.744 106.886C101.744 106.184 101.613 105.58 101.35 105.053C101.087 104.523 100.715 104.112 100.236 103.818ZM100.591 108.375C100.4 108.806 100.129 109.143 99.7766 109.381C99.4242 109.622 99.0237 109.742 98.5685 109.742C98.1133 109.742 97.7151 109.624 97.3671 109.388C97.0213 109.152 96.7521 108.819 96.5596 108.388C96.3692 107.957 96.2729 107.46 96.2729 106.9C96.2729 106.339 96.3692 105.858 96.5596 105.425C96.7499 104.993 97.0191 104.659 97.3671 104.424C97.7151 104.19 98.1133 104.07 98.5685 104.07C99.0237 104.07 99.4242 104.186 99.7766 104.418C100.129 104.65 100.398 104.978 100.591 105.405C100.781 105.832 100.877 106.322 100.877 106.873C100.877 107.425 100.781 107.943 100.591 108.375V108.375Z" fill="#EEEEEE"/>
<path d="M107.799 103.818C107.319 103.525 106.768 103.378 106.144 103.378C105.52 103.378 104.971 103.525 104.49 103.818C104.01 104.112 103.636 104.525 103.369 105.059C103.102 105.593 102.969 106.206 102.969 106.9C102.969 107.593 103.1 108.21 103.363 108.747C103.625 109.285 103.997 109.701 104.477 109.994C104.956 110.287 105.507 110.434 106.131 110.434C106.755 110.434 107.319 110.285 107.799 109.988C108.278 109.69 108.65 109.274 108.913 108.74C109.175 108.206 109.306 107.589 109.306 106.886C109.306 106.184 109.175 105.58 108.913 105.053C108.65 104.523 108.278 104.112 107.799 103.818ZM108.153 108.375C107.963 108.806 107.691 109.143 107.339 109.381C106.987 109.622 106.586 109.742 106.131 109.742C105.676 109.742 105.278 109.624 104.93 109.388C104.584 109.152 104.315 108.819 104.122 108.388C103.932 107.957 103.835 107.46 103.835 106.9C103.835 106.339 103.932 105.858 104.122 105.425C104.312 104.993 104.582 104.659 104.93 104.424C105.278 104.19 105.676 104.07 106.131 104.07C106.586 104.07 106.987 104.186 107.339 104.418C107.691 104.65 107.961 104.978 108.153 105.405C108.344 105.832 108.44 106.322 108.44 106.873C108.44 107.425 108.344 107.943 108.153 108.375V108.375Z" fill="#EEEEEE"/>
<path d="M115.912 104.799C115.689 104.363 115.363 104.017 114.932 103.766C114.501 103.512 114.021 103.385 113.498 103.385C112.921 103.385 112.406 103.531 111.958 103.825C111.509 104.118 111.159 104.529 110.909 105.059C110.66 105.589 110.535 106.199 110.535 106.893C110.535 107.587 110.66 108.204 110.909 108.74C111.159 109.278 111.509 109.696 111.964 109.994C112.417 110.292 112.942 110.44 113.538 110.44C114.072 110.44 114.551 110.313 114.978 110.06C115.404 109.806 115.724 109.458 115.938 109.011L116.019 110.278H116.726V100.605H115.912V104.794V104.799ZM115.625 108.401C115.435 108.827 115.166 109.16 114.818 109.394C114.47 109.631 114.076 109.749 113.63 109.749C112.945 109.749 112.402 109.491 112.001 108.974C111.601 108.458 111.402 107.768 111.402 106.906C111.402 106.044 111.605 105.346 112.015 104.838C112.424 104.33 112.967 104.076 113.643 104.076C114.096 104.076 114.494 104.197 114.838 104.437C115.179 104.678 115.444 105.011 115.632 105.438C115.818 105.864 115.912 106.359 115.912 106.919C115.912 107.479 115.816 107.974 115.625 108.401V108.401Z" fill="#EEEEEE"/>
<path d="M118.24 111.942H118.962L119.989 108.966H118.921L118.24 111.942Z" fill="#EEEEEE"/>
<path d="M127.541 101.724C128.084 101.372 128.71 101.197 129.421 101.197C130.614 101.197 131.541 101.726 132.209 102.783L132.863 102.289C132.472 101.685 131.986 101.225 131.401 100.914C130.819 100.604 130.158 100.448 129.421 100.448C128.541 100.448 127.76 100.663 127.079 101.089C126.399 101.516 125.869 102.109 125.493 102.871C125.114 103.63 124.926 104.492 124.926 105.453C124.926 106.414 125.125 107.272 125.525 108.029C125.926 108.786 126.486 109.377 127.206 109.804C127.926 110.231 128.749 110.445 129.675 110.445C130.804 110.445 131.863 110.152 132.85 109.565V105.377H129.355V106.097H131.983V109.125C131.316 109.508 130.561 109.699 129.716 109.699C128.961 109.699 128.289 109.519 127.701 109.158C127.114 108.797 126.655 108.292 126.326 107.637C125.998 106.983 125.832 106.239 125.832 105.403C125.832 104.567 125.981 103.845 126.278 103.208C126.576 102.571 126.996 102.079 127.539 101.726L127.541 101.724Z" fill="#EEEEEE"/>
<path d="M139.455 103.818C138.976 103.525 138.424 103.378 137.8 103.378C137.177 103.378 136.625 103.525 136.146 103.818C135.667 104.112 135.292 104.525 135.025 105.059C134.758 105.593 134.625 106.206 134.625 106.9C134.625 107.593 134.756 108.21 135.019 108.747C135.282 109.285 135.654 109.701 136.133 109.994C136.612 110.287 137.164 110.434 137.787 110.434C138.411 110.434 138.976 110.285 139.455 109.988C139.934 109.69 140.306 109.274 140.569 108.74C140.831 108.206 140.963 107.589 140.963 106.886C140.963 106.184 140.831 105.58 140.569 105.053C140.306 104.523 139.934 104.112 139.455 103.818ZM139.809 108.375C139.619 108.806 139.348 109.143 138.995 109.381C138.643 109.622 138.242 109.742 137.787 109.742C137.332 109.742 136.934 109.624 136.586 109.388C136.24 109.152 135.971 108.819 135.778 108.388C135.588 107.957 135.492 107.46 135.492 106.9C135.492 106.339 135.588 105.858 135.778 105.425C135.969 104.993 136.238 104.659 136.586 104.424C136.932 104.188 137.332 104.07 137.787 104.07C138.242 104.07 138.643 104.186 138.995 104.418C139.348 104.65 139.617 104.978 139.809 105.405C140 105.832 140.096 106.322 140.096 106.873C140.096 107.425 140 107.943 139.809 108.375V108.375Z" fill="#EEEEEE"/>
<path d="M147.021 103.818C146.542 103.525 145.991 103.378 145.367 103.378C144.743 103.378 144.194 103.525 143.712 103.818C143.233 104.112 142.859 104.525 142.592 105.059C142.325 105.593 142.191 106.206 142.191 106.9C142.191 107.593 142.323 108.21 142.585 108.747C142.848 109.285 143.22 109.701 143.699 109.994C144.179 110.287 144.73 110.434 145.354 110.434C145.977 110.434 146.542 110.285 147.021 109.988C147.501 109.69 147.873 109.274 148.135 108.74C148.398 108.206 148.529 107.589 148.529 106.886C148.529 106.184 148.398 105.58 148.135 105.053C147.873 104.523 147.501 104.112 147.021 103.818ZM147.376 108.375C147.185 108.806 146.914 109.143 146.562 109.381C146.209 109.622 145.809 109.742 145.354 109.742C144.899 109.742 144.5 109.624 144.152 109.388C143.804 109.152 143.537 108.819 143.345 108.388C143.154 107.957 143.058 107.46 143.058 106.9C143.058 106.339 143.154 105.858 143.345 105.425C143.535 104.993 143.804 104.659 144.152 104.424C144.498 104.188 144.899 104.07 145.354 104.07C145.809 104.07 146.209 104.186 146.562 104.418C146.914 104.65 147.183 104.978 147.376 105.405C147.566 105.832 147.663 106.322 147.663 106.873C147.663 107.425 147.566 107.943 147.376 108.375V108.375Z" fill="#EEEEEE"/>
<path d="M155.129 104.799C154.906 104.363 154.58 104.017 154.149 103.766C153.717 103.512 153.238 103.385 152.715 103.385C152.137 103.385 151.623 103.531 151.174 103.825C150.726 104.118 150.376 104.529 150.126 105.059C149.877 105.589 149.752 106.199 149.752 106.893C149.752 107.587 149.877 108.204 150.126 108.74C150.376 109.278 150.726 109.696 151.181 109.994C151.634 110.292 152.159 110.44 152.754 110.44C153.288 110.44 153.768 110.313 154.194 110.06C154.621 109.806 154.941 109.458 155.155 109.011L155.236 110.278H155.943V100.605H155.129V104.794V104.799ZM154.842 108.401C154.652 108.827 154.383 109.16 154.035 109.394C153.687 109.631 153.293 109.749 152.846 109.749C152.161 109.749 151.619 109.491 151.218 108.974C150.818 108.458 150.619 107.768 150.619 106.906C150.619 106.044 150.822 105.346 151.231 104.838C151.641 104.33 152.183 104.076 152.86 104.076C153.313 104.076 153.711 104.197 154.054 104.437C154.396 104.678 154.661 105.011 154.849 105.438C155.035 105.864 155.129 106.359 155.129 106.919C155.129 107.479 155.033 107.974 154.842 108.401V108.401Z" fill="#EEEEEE"/>
<path d="M161.732 105.449V110.286H162.544V105.449V100.613H161.732V105.449Z" fill="#EEEEEE"/>
<path d="M165.099 101.017C164.93 101.017 164.792 101.067 164.685 101.17C164.578 101.273 164.525 101.409 164.525 101.577C164.525 101.737 164.578 101.873 164.685 101.984C164.792 102.096 164.93 102.151 165.099 102.151C165.267 102.151 165.412 102.096 165.532 101.984C165.652 101.873 165.712 101.737 165.712 101.577C165.712 101.409 165.655 101.273 165.539 101.17C165.423 101.067 165.276 101.017 165.099 101.017Z" fill="#EEEEEE"/>
<path d="M164.709 106.908V110.278H165.523V106.908V103.54H164.709V106.908Z" fill="#EEEEEE"/>
<path d="M168.487 100.969C168.143 101.317 167.972 101.796 167.972 102.409V103.543H166.812V104.236H167.972V110.281H168.786V104.236H170.467V103.543H168.786V102.462C168.786 102.052 168.896 101.735 169.113 101.507C169.331 101.28 169.636 101.168 170.027 101.168C170.259 101.168 170.502 101.212 170.76 101.302V100.569C170.52 100.488 170.235 100.448 169.907 100.448C169.303 100.448 168.828 100.621 168.487 100.969V100.969Z" fill="#EEEEEE"/>
<path d="M176.811 106.619C176.811 105.624 176.555 104.834 176.043 104.252C175.531 103.669 174.84 103.378 173.969 103.378C173.345 103.378 172.8 103.523 172.327 103.812C171.857 104.101 171.491 104.51 171.233 105.039C170.975 105.569 170.846 106.18 170.846 106.873C170.846 107.567 170.979 108.197 171.246 108.736C171.513 109.274 171.892 109.692 172.38 109.99C172.868 110.287 173.435 110.436 174.074 110.436C174.634 110.436 175.15 110.32 175.621 110.088C176.091 109.856 176.474 109.532 176.768 109.114L176.207 108.635C175.932 109.001 175.614 109.276 175.253 109.462C174.892 109.648 174.5 109.742 174.074 109.742C173.354 109.742 172.778 109.495 172.347 109.003C171.916 108.508 171.695 107.832 171.686 106.967H176.796C176.805 106.886 176.809 106.773 176.809 106.619H176.811ZM171.728 106.272C171.817 105.569 172.054 105.026 172.441 104.643C172.828 104.26 173.332 104.07 173.955 104.07C174.579 104.07 175.067 104.263 175.424 104.65C175.778 105.037 175.967 105.578 175.984 106.272H171.728V106.272Z" fill="#EEEEEE"/>
</g>
<defs>
<clipPath id="clip0_119_2282">
<rect width="231" height="127" fill="white"/>
</clipPath>
</defs>
</svg>
