<svg width="180" height="74" viewBox="0 0 180 74" fill="none" xmlns="http://www.w3.org/2000/svg">
<path d="M13.4207 29.0952C14.428 32.5872 15.4353 36.0791 16.465 39.5711C18.5243 46.6222 20.5837 53.6509 22.6879 60.6796C22.9789 61.6646 22.8893 62.0227 21.7477 62.1123C19.0615 62.2914 16.3978 62.6271 13.7341 62.9405C13.0178 63.03 12.6372 62.9405 12.4581 62.1123C10.4883 53.1361 8.45131 44.1599 6.43671 35.1837C5.7204 32.0051 5.00412 28.8265 4.28782 25.6479C4.15351 25.0883 3.99679 24.4839 4.33256 23.9466C6.63816 20.3651 8.92137 16.7613 11.3165 13.0678C19.4421 23.6557 27.4557 34.1316 35.5813 44.7195C35.8051 44.0032 35.5141 43.5779 35.4022 43.1526C33.4548 36.8849 31.5073 30.6172 29.4927 24.3719C29.1793 23.4094 29.3808 23.0289 30.2986 22.6931C33.1638 21.5739 35.9842 20.3876 38.827 19.1788C39.521 18.8878 39.7896 18.9997 39.9015 19.7383C41.0655 26.5432 42.2519 33.3481 43.4382 40.1754C43.5502 40.8021 43.3711 41.1828 42.8339 41.5409C38.5585 44.3838 34.283 47.2265 30.0523 50.1365C29.2465 50.6961 29.0003 50.2036 28.6197 49.6888C23.8966 43.1301 19.1511 36.5716 14.428 30.0353C14.1818 29.6995 13.9131 29.3637 13.6669 29.028L13.4207 29.1174V29.0952Z" fill="#8A8A8A"/>
<path d="M74.2866 41.4291C74.2866 36.0569 74.3313 30.8637 74.2866 25.6481C74.2866 23.6335 73.7493 23.0292 71.7571 22.6039C70.526 22.3352 70.996 21.4846 70.9289 20.7907C70.8394 19.9177 71.4885 20.0296 72.0257 20.0296C74.7566 20.0296 77.4652 20.0296 80.1961 20.0296C80.6886 20.0296 81.2258 20.0296 81.0915 20.7235C80.9795 21.3503 81.6287 22.3129 80.4199 22.5144C78.3829 22.8501 77.5995 23.5216 77.5995 26.3196C77.5995 36.1464 77.5994 45.9733 77.6218 55.8001C77.6218 56.9417 77.3532 57.2327 76.1669 57.3446C74.197 57.5237 73.2569 56.7626 72.3391 55.0613C67.9742 46.8686 63.4525 38.7654 58.9756 30.6398C58.7741 30.2817 58.6622 29.8564 58.1921 29.5654C57.9459 29.9683 58.0354 30.3936 58.0354 30.7965C58.0354 37.2432 58.0354 43.69 58.0354 50.1367C58.0354 50.5173 58.0355 50.9202 58.0802 51.3008C58.2593 53.1587 58.7293 53.8077 60.5649 54.1435C61.8632 54.3673 61.4826 55.2404 61.5274 55.979C61.5722 56.9863 60.8111 56.6954 60.2963 56.6954C57.6549 56.6954 55.0136 56.6954 52.3498 56.6954C51.8573 56.6954 51.2306 56.8297 51.3425 56.0015C51.432 55.3299 50.85 54.4345 52.1035 54.1435C54.1181 53.7182 54.6554 53.0467 54.6554 51.0098C54.6778 42.1903 54.6554 33.3708 54.6554 24.5513C54.6554 23.1635 54.2748 22.8724 52.4617 22.5814C51.7678 22.4695 51.0515 22.5815 51.0515 21.3951C51.0515 20.2535 51.3872 19.9624 52.5064 20.0072C55.3493 20.0743 58.1921 20.0743 61.0349 20.0072C61.9527 20.0072 62.4899 20.2535 62.9376 21.1041C66.3624 27.4613 69.8545 33.7961 73.3241 40.1309C73.5479 40.5339 73.6822 40.9816 74.2418 41.4069L74.2866 41.4291Z" fill="#B2B2B2"/>
<path d="M92.6636 56.695C89.5969 56.695 86.5079 56.695 83.4412 56.695C83.0159 56.695 82.3892 56.8741 82.434 56.113C82.4787 55.5086 81.9862 54.6132 83.1055 54.4566C84.2247 54.2999 84.538 53.5836 84.538 52.5539C84.538 45.2118 84.538 37.8697 84.538 30.5275C84.538 29.4979 84.1799 28.8264 83.0607 28.6473C82.0086 28.4906 82.4787 27.64 82.4115 27.058C82.3444 26.3417 82.8816 26.3865 83.3517 26.3865C89.4626 26.3865 95.5736 26.3865 101.685 26.3865C102.378 26.3865 102.669 26.5879 102.669 27.3042C102.669 29.7889 102.737 32.2736 102.759 34.7582C102.759 35.2059 102.871 35.7879 102.132 35.6984C101.528 35.6312 100.677 36.1237 100.409 35.0493C100.095 33.8405 99.6252 32.6988 98.976 31.6244C97.6106 29.3635 95.5288 28.4906 92.9546 28.5801C91.9921 28.6025 91.5444 29.0502 91.5668 30.0352C91.5668 32.9899 91.5892 35.9446 91.5668 38.8993C91.5668 39.7723 91.9474 39.7724 92.5741 39.5486C94.5216 38.8323 95.2826 37.1982 95.7303 35.3851C95.8422 34.8926 95.9317 34.5568 96.5809 34.5345C98.103 34.4673 98.1254 34.4448 98.1254 35.9894C98.1254 39.638 98.1254 43.2867 98.1254 46.9354C98.1254 47.4726 98.2597 48.0994 97.3644 48.0098C96.7152 47.9427 95.887 48.3681 95.7303 47.1369C95.4617 45.1895 94.6559 43.4659 92.7756 42.5257C91.7683 42.0109 91.5892 42.1227 91.5668 43.2419C91.5668 46.4205 91.5668 49.6215 91.5668 52.8001C91.5668 54.2327 92.0592 54.6581 93.5142 54.5462C95.4393 54.3895 97.0062 53.5389 98.1926 52.0167C99.3118 50.6065 100.05 48.9723 100.655 47.2935C100.923 46.5324 102.087 46.0847 102.804 46.4653C103.14 46.6444 103.028 46.913 103.028 47.1592C102.983 50.002 102.893 52.8226 102.893 55.6654C102.893 56.5832 102.558 56.7398 101.729 56.7398C98.6851 56.695 95.6631 56.7398 92.6189 56.7398L92.6636 56.695Z" fill="#B2B2B2"/>
<path d="M141.754 41.3169C141.754 45.0103 141.754 48.7038 141.754 52.3972C141.754 53.9417 141.955 54.2775 143.477 54.5014C144.574 54.6804 144.171 55.4191 144.238 55.9787C144.328 56.7621 143.746 56.695 143.231 56.695C139.851 56.695 136.449 56.695 133.068 56.695C132.531 56.695 131.994 56.7399 132.084 55.9564C132.151 55.3744 131.77 54.6357 132.867 54.5014C134.344 54.2999 134.635 53.897 134.635 52.3972C134.635 44.8536 134.635 37.3325 134.635 29.7889C134.635 29.498 134.77 29.095 134.456 28.9383C134.098 28.7593 133.807 29.1174 133.561 29.3412C132.106 30.5724 131.412 32.2735 130.83 33.9971C130.494 34.982 130.226 36.0118 130.024 37.0415C129.8 38.1383 128.972 37.713 128.368 37.7578C127.607 37.825 127.741 37.2206 127.763 36.7729C127.83 33.5943 127.92 30.4157 127.987 27.2147C127.987 26.6103 128.233 26.4089 128.815 26.4089C135.083 26.4089 141.351 26.4089 147.618 26.4089C148.245 26.4089 148.447 26.6775 148.469 27.2371C148.559 30.4605 148.626 33.6838 148.715 36.9072C148.715 37.3549 148.693 37.8473 148.066 37.7354C147.506 37.6459 146.678 38.1831 146.454 37.131C146.074 35.4298 145.626 33.7286 144.865 32.1393C144.373 31.1096 143.813 30.147 142.94 29.3859C142.649 29.1397 142.358 28.7144 141.955 28.8935C141.597 29.0502 141.798 29.5203 141.798 29.856C141.798 33.6614 141.798 37.4667 141.798 41.2721L141.754 41.3169Z" fill="#B2B2B2"/>
<path d="M107.033 51.658C107.033 50.2702 107.078 48.86 107.033 47.4722C106.988 46.6439 107.234 46.3306 108.13 46.2859C109.294 46.2411 109.921 46.5096 110.301 47.7408C110.973 49.9121 112.07 51.8819 113.883 53.3593C115.405 54.5904 117.128 55.1724 119.098 54.6128C121.023 54.0756 121.784 52.4863 121.09 50.606C120.755 49.7107 120.173 48.9943 119.501 48.3228C117.039 45.8157 114.151 43.8011 111.465 41.5626C110.122 40.421 108.824 39.257 108.018 37.6677C106.518 34.7578 106.429 31.8926 108.466 29.2289C110.525 26.5204 113.368 25.6697 116.681 26.3188C117.666 26.5203 118.606 26.9009 119.568 27.2142C120.262 27.4381 120.956 27.3486 121.404 26.8113C121.986 26.1174 122.68 26.2069 123.419 26.2069C123.911 26.2069 124.112 26.4307 124.112 26.9008C124.112 29.9003 124.112 32.8775 124.112 35.877C124.112 36.4366 123.866 36.5934 123.329 36.6157C121.583 36.7277 121.605 36.7501 121.046 35.0936C120.374 33.079 119.568 31.1538 117.979 29.6765C116.793 28.5572 115.382 28.1544 113.771 28.4678C111.644 28.8931 110.928 30.5719 112.137 32.385C113.166 33.9296 114.554 35.1159 115.964 36.3023C118.113 38.0931 120.441 39.66 122.456 41.6074C124.896 44.0026 126.239 46.8006 125.903 50.2702C125.455 54.7247 121.247 57.7467 116.546 57.0752C115.181 56.8737 113.883 56.4707 112.607 56.0006C111.577 55.6201 110.659 55.7096 109.943 56.5378C109.271 57.3213 108.421 57.1423 107.57 57.1423C106.966 57.1423 107.055 56.6722 107.033 56.314C107.033 54.7695 107.033 53.2026 107.033 51.658Z" fill="#B2B2B2"/>
<path d="M33.5904 40.9584C31.9563 38.7871 30.3223 36.6382 28.6882 34.4669C23.786 27.9978 18.8838 21.5063 13.9592 15.0596C13.31 14.209 12.9743 13.4031 13.2653 12.3063C13.5786 11.1199 13.7577 9.86639 13.9144 8.63524C14.004 7.89655 14.2502 7.62791 15.0337 7.82937C16.7796 8.25467 18.5256 8.59046 20.294 8.90385C21.0327 9.03815 21.2342 9.41864 21.2118 10.1126C21.1446 12.2615 21.2118 14.3881 21.749 16.4698C22.2191 18.283 22.9354 19.9617 24.3009 21.3272C23.4726 18.7082 23.0026 16.0668 23.1145 13.3359C23.1593 12.1719 22.8682 10.6275 23.495 9.95592C24.1889 9.19485 25.6215 10.0902 26.7408 10.3141C29.8298 10.9185 32.8965 11.6123 35.9856 12.2167C36.8362 12.3734 37.1271 12.7763 37.1271 13.6269C37.1271 15.1043 37.1943 16.5817 37.3286 18.0367C37.3957 18.7978 37.1495 19.1559 36.4556 19.4245C34.0381 20.387 31.6653 21.4392 29.2254 22.3793C28.3076 22.7375 28.1957 23.1404 28.4867 24.0358C30.2551 29.4304 31.9787 34.825 33.7023 40.2197C33.7695 40.4212 33.8142 40.645 33.859 40.8688C33.7695 40.9136 33.6799 40.9361 33.5904 40.9808V40.9584Z" fill="#DDDDDD"/>
<path d="M15.5254 32.699C16.8909 34.6017 18.122 36.3029 19.3308 38.0042C22.3975 42.302 25.4865 46.5998 28.5308 50.92C29.0904 51.7035 29.4709 51.7929 30.2768 51.2333C33.4777 48.9501 36.7011 46.734 39.9469 44.4956C41.2004 43.6226 41.2228 43.645 41.6257 45.1448C42.5211 48.6368 43.3941 52.1511 44.3342 55.6431C44.5804 56.5385 44.3342 56.7847 43.4388 56.7624C36.7907 56.74 30.1201 56.7624 23.4719 56.7624C22.8451 56.7624 22.3974 56.6952 22.1736 55.9341C19.9799 48.3682 17.7414 40.8022 15.503 33.2362C15.503 33.1691 15.503 33.0796 15.5701 32.699H15.5254Z" fill="#DDDDDD"/>
<path d="M6.59543 39.2581C7.26697 42.28 7.91613 45.1004 8.56528 47.9209C9.14727 50.5398 9.70684 53.1364 10.3336 55.7554C10.5127 56.5389 10.3336 56.7628 9.55013 56.7628C6.64015 56.7404 3.73018 56.7628 0.820202 56.7628C0.394897 56.7628 -0.25427 56.9195 0.103882 56.0913C2.45425 50.719 4.26744 45.1676 6.30442 39.661C6.32681 39.5938 6.39393 39.5491 6.61777 39.3029L6.59543 39.2581Z" fill="#DDDDDD"/>
<path d="M32.271 5.16597C31.8457 4.47205 31.4651 3.75576 30.8831 3.15138C29.4505 1.69639 27.7269 1.65164 26.2943 3.10664C24.9736 4.4497 24.3021 6.17325 23.8768 7.94162C23.6082 9.10561 22.9814 8.85944 22.1756 8.76991C21.1011 8.65798 21.4145 7.98643 21.5488 7.42682C22.0636 5.16599 22.8023 3.0171 24.5259 1.36065C26.451 -0.497262 28.7118 -0.452498 30.5697 1.49495C31.4875 2.45748 32.1814 3.57666 32.5396 4.87496C32.6291 5.14357 32.4948 5.18835 32.271 5.16597Z" fill="#414141"/>
<path d="M91.5439 65.9617C94.0286 64.7977 95.2821 65.6035 95.2821 68.2225C95.2821 69.1851 95.2597 70.1699 95.2821 71.1325C95.3045 71.8488 94.8792 71.8488 94.3867 71.8488C93.8943 71.8488 93.4466 71.8936 93.469 71.1549C93.4914 70.1923 93.469 69.2075 93.469 68.2449C93.469 67.6182 93.2675 67.1481 92.5736 67.1257C91.8349 67.1033 91.5439 67.551 91.5439 68.2449C91.5439 69.1851 91.4991 70.1028 91.5439 71.043C91.5886 71.7593 91.2081 71.8488 90.6261 71.8488C90.0217 71.8488 89.7084 71.7369 89.7084 71.0206C89.7532 68.6926 89.7532 66.3646 89.7084 64.0366C89.7084 63.2756 90.0889 63.2755 90.6485 63.2531C91.2977 63.2307 91.5887 63.4322 91.5215 64.1037C91.4768 64.6857 91.5215 65.2677 91.5215 65.9617H91.5439Z" fill="#6E6E6E"/>
<path d="M130.853 68.5593C130.853 67.9325 130.853 67.3282 130.853 66.7015C130.853 65.5822 131.435 65.1122 132.42 65.6046C132.846 65.8285 133.025 65.8508 133.428 65.6493C134.771 64.9554 136.203 65.6941 136.36 67.2163C136.494 68.5593 136.405 69.9248 136.405 71.2902C136.405 71.9842 135.89 71.8275 135.487 71.8499C135.062 71.8499 134.592 71.9394 134.592 71.2678C134.592 70.3053 134.592 69.3204 134.592 68.3579C134.592 67.7087 134.457 67.1492 133.674 67.1492C132.846 67.1492 132.644 67.6864 132.667 68.4027C132.667 69.2085 132.644 70.0367 132.667 70.8425C132.711 71.5588 132.555 71.8723 131.727 71.8947C130.831 71.8947 130.831 71.4245 130.831 70.7977C130.854 70.059 130.831 69.3204 130.831 68.5817L130.853 68.5593Z" fill="#6E6E6E"/>
<path d="M127.673 68.6925C127.673 69.3864 127.673 70.0803 127.673 70.7966C127.673 71.7368 126.777 72.3413 126.106 71.7593C125.68 71.3788 125.591 71.4458 125.188 71.6473C123.755 72.4083 122.256 71.6025 122.166 69.9908C122.099 68.7597 122.166 67.5062 122.144 66.2751C122.121 65.6035 122.435 65.5363 122.994 65.5363C123.576 65.5363 123.979 65.5811 123.934 66.3197C123.89 67.2375 123.934 68.1777 123.934 69.1178C123.934 69.6998 124.136 70.237 124.83 70.237C125.568 70.237 125.859 69.767 125.882 69.1178C125.904 68.2224 125.927 67.327 125.882 66.454C125.837 65.7377 126.061 65.5139 126.777 65.5139C127.561 65.5139 127.695 65.8497 127.65 66.4989C127.605 67.2376 127.65 67.9762 127.65 68.7149L127.673 68.6925Z" fill="#6E6E6E"/>
<path d="M108.715 65.6489C109.849 65.4549 110.58 65.8803 110.909 66.9249C111.177 67.7307 111.423 68.5366 111.759 69.5886C112.162 68.3127 112.475 67.3055 112.811 66.2758C113.013 65.6266 114.02 65.2237 114.557 65.5371C114.848 65.7161 114.714 65.9624 114.647 66.1415C113.863 68.2904 113.125 70.4617 112.274 72.5658C111.871 73.5731 110.886 73.9312 109.834 73.5954C109.543 73.5059 108.984 73.4836 109.14 73.0135C109.252 72.6106 109.252 71.939 110.036 72.0733C110.976 72.23 110.841 71.6704 110.618 71.0884C109.968 69.2976 109.297 67.5293 108.648 65.7386C108.648 65.7162 108.648 65.6713 108.648 65.6265L108.715 65.6489Z" fill="#6E6E6E"/>
<path d="M87.5827 71.8943C86.3515 71.8943 85.8143 71.4243 85.7471 70.2155C85.7023 69.5216 85.7471 68.8275 85.7471 68.1336C85.7471 67.7083 85.9262 67.1711 85.2546 67.0144C85.0308 66.9696 85.0756 66.7011 85.0532 66.522C84.9637 65.5819 86.0381 65.0447 85.9262 64.0374C85.9262 63.8807 86.7097 63.9477 87.1126 63.9477C87.5827 63.9477 87.5155 64.3506 87.5155 64.6416C87.4931 65.246 87.6722 65.6042 88.3661 65.5371C88.8586 65.4923 88.9481 65.8057 88.9257 66.2086C88.9034 66.5667 89.0376 67.104 88.4556 67.0816C87.4931 67.0369 87.4931 67.5965 87.5379 68.2681C87.5603 68.7381 87.5379 69.2082 87.5602 69.6559C87.5602 69.9245 87.6274 70.2825 87.9856 70.2378C88.769 70.1258 89.06 70.4393 88.9257 71.178C88.7914 72.0062 88.0751 71.8048 87.6274 71.8943H87.5827Z" fill="#6E6E6E"/>
<path d="M104.663 71.8936C103.432 71.8936 102.894 71.4011 102.827 70.2148C102.783 69.5656 102.827 68.8941 102.827 68.2449C102.827 67.7748 103.029 67.1928 102.29 67.0361C102.245 67.0361 102.201 67.0137 102.201 66.969C102.044 66.5661 102.044 65.7825 102.156 65.7601C103.32 65.6482 102.2 63.5442 103.857 63.9023C104.439 64.0142 104.708 64.1261 104.64 64.7305C104.596 65.2006 104.663 65.6035 105.29 65.5363C105.827 65.4692 106.051 65.6931 106.051 66.2527C106.051 66.8347 105.894 67.148 105.267 67.1033C104.73 67.0585 104.618 67.3495 104.618 67.8196C104.618 68.4016 104.618 68.9835 104.618 69.5655C104.618 69.8789 104.618 70.2818 105.066 70.237C105.827 70.1475 106.028 70.4609 105.939 71.1549C105.827 72.0055 105.133 71.8263 104.663 71.9159V71.8936Z" fill="#6E6E6E"/>
<path d="M118.269 9.26264C117.307 9.73272 116.479 10.1356 115.65 10.5833C115.068 10.8967 114.665 10.5385 114.263 10.2699C113.412 9.71029 112.584 9.55358 111.711 10.2475C110.972 10.8295 110.233 10.7176 109.495 10.2028C108.957 9.8446 108.331 9.576 107.682 9.24024C108.532 8.52393 109.472 8.18818 110.368 7.78526C110.972 7.49426 111.442 8.05383 111.957 8.30006C112.449 8.5239 112.919 8.90448 113.457 8.47917C115.292 7.02418 116.635 8.36726 118.247 9.26264H118.269Z" fill="#B2B2B2"/>
<path d="M79.4325 67.6185C79.4325 68.7825 79.4101 69.9465 79.4325 71.1105C79.4549 71.8044 79.0968 71.8492 78.5595 71.8268C78.0447 71.8268 77.6418 71.8268 77.6418 71.1329C77.6418 68.7154 77.6418 66.3203 77.6418 63.9027C77.6418 63.164 78.1119 63.276 78.582 63.2312C79.164 63.1865 79.4326 63.3431 79.4102 63.9922C79.3654 65.201 79.4102 66.4097 79.4102 67.5961L79.4325 67.6185Z" fill="#6E6E6E"/>
<path d="M82.4544 67.5738C82.4544 68.7378 82.432 69.9019 82.4544 71.0659C82.4768 71.6927 82.2305 71.8717 81.6262 71.8493C81.0666 71.8493 80.6413 71.8494 80.6637 71.0659C80.686 68.6932 80.686 66.3203 80.6637 63.97C80.6637 63.276 81.0442 63.2536 81.559 63.2536C82.0739 63.2536 82.4768 63.2536 82.432 63.97C82.3873 65.1787 82.432 66.3874 82.432 67.5738H82.4544Z" fill="#6E6E6E"/>
<path d="M150.907 8.38936C148.288 10.1353 147.347 10.113 145.154 8.32221C147.638 6.5986 148.31 6.5986 150.907 8.38936Z" fill="#B2B2B2"/>
<path d="M157.557 70.7306C157.423 70.0142 157.825 69.8799 158.475 69.8351C159.459 69.768 159.348 70.3948 159.37 71.0216C159.415 71.8274 158.989 71.8498 158.385 71.8722C157.467 71.917 157.49 71.3797 157.534 70.7306H157.557Z" fill="#6E6E6E"/>
<path d="M32.2695 5.16575C32.2695 5.16575 32.4486 4.98667 32.5381 4.87474C32.8962 5.56866 33.232 6.28501 33.0529 7.158C32.8067 6.48647 32.5381 5.83729 32.2918 5.16575H32.2695Z" fill="#636363"/>
<path fill-rule="evenodd" clip-rule="evenodd" d="M173.539 53.9189C177.904 49.6658 179.471 44.3159 179.56 38.5407L179.538 38.5183C179.515 36.8619 179.426 35.3621 179.179 33.8623C178.53 30.0346 177.075 26.565 174.412 23.6774C169.151 17.9694 161.742 17.9918 156.594 23.8117C152.587 28.3334 151.378 33.7504 151.602 39.6152C151.826 45.1441 153.572 50.0464 157.623 53.9637C162.234 58.4406 168.95 58.3958 173.539 53.9189ZM169.373 50.5841C170.224 46.5549 170.179 42.4809 170.045 38.4069C170.045 37.6562 170.054 36.9055 170.062 36.1548C170.081 34.4656 170.1 32.7764 170.023 31.0872C169.911 28.7368 169.754 26.3417 168.724 24.148C168.12 22.8273 167.157 21.932 165.59 21.932C164.024 21.932 163.083 22.7825 162.434 24.1032C161.852 25.2896 161.606 26.5879 161.449 27.9086C160.711 34.3777 160.778 40.8468 161.27 47.3159C161.427 49.3753 161.651 51.4347 162.837 53.2254C164.203 55.2848 166.889 55.2848 168.299 53.2702C168.859 52.4644 169.172 51.5466 169.373 50.5841Z" fill="#B2B2B2"/>
<path fill-rule="evenodd" clip-rule="evenodd" d="M96.5592 20.4102C97.5441 20.6341 98.5514 20.746 99.7602 20.8355L99.8497 20.8578C98.9096 21.9547 97.8351 22.2009 96.6935 22.2456C93.1567 22.38 90.0676 21.1041 87.2024 19.1791C87.1392 19.1339 87.0733 19.076 87.0052 19.0162C86.7356 18.7795 86.4318 18.5128 86.128 18.888C85.8771 19.1775 86.1919 19.5002 86.4413 19.7558L86.4425 19.7571C86.4819 19.7975 86.5197 19.8362 86.5533 19.8729C89.4857 22.9843 93.0672 24.6185 97.3874 24.2603C99.2229 24.126 101.193 23.7679 102.312 22.201C103.252 20.8803 104.327 20.746 105.67 20.8355C105.811 20.8355 105.953 20.8281 106.095 20.8206C106.378 20.8057 106.662 20.7908 106.946 20.8355C108.759 21.1265 110.214 20.7012 111.02 18.888C111.031 18.8648 111.067 18.8536 111.114 18.8388C111.158 18.8252 111.212 18.8084 111.266 18.7761C111.848 19.873 112.721 20.7236 114.041 20.7683C116.325 20.8579 118.63 20.925 120.913 20.7235L120.961 20.7188C121.399 20.6753 121.91 20.6245 122.234 20.3654C122.928 19.8282 123.398 19.7162 123.935 20.5668C124.131 20.8697 124.512 20.8465 124.873 20.8244C124.966 20.8187 125.057 20.8131 125.144 20.8131H128.524C128.882 20.8063 129.278 20.8417 129.674 20.8772C130.567 20.957 131.462 21.0371 131.927 20.634C132.718 19.9243 133.26 20.2382 133.791 20.5456C134.131 20.7423 134.466 20.9364 134.859 20.8578C135.735 20.6925 136.66 20.7348 137.589 20.7772C137.917 20.7922 138.247 20.8073 138.575 20.8131C139.269 20.8355 139.896 20.8354 140.254 19.8729C140.5 20.5668 140.836 20.8131 141.418 20.8131H153.572C153.603 20.8131 153.633 20.8135 153.664 20.8139C153.965 20.8176 154.244 20.821 154.468 20.4549C156.281 17.5449 156.012 13.5158 153.796 10.7625C152.976 9.7477 152.199 9.7477 151.468 10.7625C151.387 10.8748 151.308 10.989 151.228 11.1034C151.022 11.3992 150.815 11.6968 150.573 11.9712C150.125 12.4861 150.125 12.8666 150.662 13.3367C151.535 14.0754 152.117 15.0379 152.565 16.09C152.856 16.8287 152.789 17.1868 151.826 17.1868C148.67 17.142 145.514 17.142 142.358 17.1868C141.507 17.1868 141.306 16.851 141.35 16.0676C141.38 15.2144 141.371 14.3612 141.361 13.4572V13.4558C141.356 12.9846 141.35 12.4997 141.35 11.9937C140.142 12.7995 139.425 13.7172 138.732 14.7022C138.552 14.9484 138.597 15.217 138.642 15.4856C138.836 16.6645 138.336 17.2167 137.142 17.1421C137.069 17.1375 136.997 17.132 136.924 17.1266C136.639 17.1052 136.358 17.084 136.09 17.1196C135.06 17.254 134.859 16.7391 135.105 15.8885C135.396 14.8588 135.687 13.8515 135.978 12.8442C135.692 13.0867 135.386 13.3103 135.082 13.5325C133.982 14.3359 132.907 15.1211 132.889 16.7167C132.889 17.1868 132.531 17.2764 132.15 17.2764C130.158 17.3211 128.166 17.2764 126.196 17.0749C125.301 16.9854 125.099 16.6272 125.569 15.799C126.174 14.7693 126.622 13.6501 126.622 12.0608C126.222 12.5885 125.754 13.0121 125.305 13.4188C124.419 14.2198 123.607 14.9553 123.532 16.2914C123.51 16.8063 123.062 17.1868 122.48 17.1868C121.846 17.1868 121.21 17.1918 120.574 17.1968C118.873 17.2101 117.168 17.2235 115.474 17.1421C113.93 17.0525 113.37 16.1348 113.638 14.5679C113.795 13.6053 113.952 12.6204 113.683 11.5459C113.585 11.6272 113.486 11.7076 113.388 11.7876C111.974 12.9408 110.682 13.9952 110.975 16.0676C111.087 16.8286 110.594 17.2316 109.744 17.2092C108.154 17.1644 106.543 17.1421 104.953 17.2092C104.058 17.2316 103.812 16.8958 103.7 16.0228C103.681 15.8738 103.662 15.7247 103.643 15.5756C103.353 13.2608 103.062 10.9417 101.842 8.85977C100.924 7.29286 99.7825 6.8004 98.0142 7.18094C96.0891 7.58386 94.455 8.52403 93.1567 10.0014C89.4409 14.2321 91.075 19.2015 96.5592 20.4102ZM98.0941 17.3765C98.2655 17.387 98.4404 17.3978 98.6193 17.4104V17.388C98.6876 17.388 98.7764 17.3777 98.8788 17.3659C99.0786 17.3427 99.3302 17.3136 99.5819 17.3432C100.701 17.4552 100.992 16.9627 100.835 15.9107C100.634 14.6347 100.388 13.4036 99.8057 12.2396C98.9999 10.6727 97.903 10.0683 96.2242 10.3369C94.5454 10.6279 93.1352 11.9486 92.9785 13.4035C92.8218 14.7914 93.7395 16.1569 95.2393 16.8508C96.1246 17.2549 97.043 17.3116 98.0941 17.3765Z" fill="#B2B2B2"/>
<path fill-rule="evenodd" clip-rule="evenodd" d="M69.8514 68.7462C69.4523 69.7261 69.05 70.7141 68.6443 71.7154H68.6666C69.8754 72.0288 70.7036 71.8497 70.9499 70.5738C71.0394 70.1261 71.308 69.9694 71.7781 69.9917C72.0521 70.0107 72.3361 69.9976 72.6181 69.9847C73.6719 69.9364 74.6978 69.8893 75.0686 71.5139C75.1745 72.0257 75.7534 71.9252 76.257 71.8379C76.3921 71.8144 76.5218 71.7919 76.6355 71.7825C77.0006 71.744 76.8708 71.4582 76.7701 71.2364C76.7535 71.1999 76.7377 71.165 76.725 71.1334L76.3569 70.2437C75.5177 68.2166 74.683 66.2001 73.8822 64.1494C73.6584 63.5674 73.2331 63.5674 72.763 63.5674C72.3153 63.545 71.9347 63.5898 71.7333 64.1046C71.1148 65.6439 70.4879 67.1832 69.8526 68.7432L69.8514 68.7462ZM71.8926 68.3124H73.6386C73.4819 67.4842 73.191 66.7903 72.7433 66.0069C72.6571 66.2137 72.5665 66.4131 72.4775 66.609C72.2198 67.1762 71.9758 67.7134 71.8926 68.3124Z" fill="#6E6E6E"/>
<path fill-rule="evenodd" clip-rule="evenodd" d="M101.594 70.2601V69.6781L101.572 69.7005V68.7604C101.662 65.4475 99.6469 65.1117 97.1846 65.6937C96.7145 65.8056 96.4683 65.9848 96.6474 66.5892C96.804 67.1488 97.0279 67.3949 97.6099 67.1935C97.8786 67.1039 98.1471 67.0367 98.4157 67.0367C98.9754 67.0367 99.7141 67.1039 99.6917 67.7531C99.6764 68.3174 99.3598 68.1751 99.0463 68.0341C98.8997 67.9682 98.7537 67.9026 98.6396 67.9098C97.6323 67.9993 96.6474 68.0888 96.1773 69.1185C95.8415 69.8572 95.8639 70.6631 96.4683 71.2898C97.2518 72.0957 98.1919 72.0285 99.1768 71.6927C99.2391 71.672 99.295 71.6405 99.3511 71.6089C99.4763 71.5384 99.6026 71.4672 99.8036 71.5136C101.594 72.0061 101.594 71.9837 101.594 70.2601ZM99.1028 69.0759C99.4634 69.1041 99.847 69.1341 99.8288 69.7C99.784 70.3715 99.2468 70.5954 98.6872 70.6402C98.1723 70.6626 97.7023 70.4387 97.747 69.8567C97.7914 69.2363 98.2961 69.0765 98.8707 69.0516C98.9439 69.0635 99.0228 69.0697 99.1028 69.0759Z" fill="#6E6E6E"/>
<path fill-rule="evenodd" clip-rule="evenodd" d="M114.891 68.7374C114.913 70.6625 116.189 71.8937 118.137 71.8937V71.916C120.017 71.8936 121.36 70.5506 121.36 68.6703C121.36 66.8572 119.95 65.3798 118.137 65.3798C116.279 65.3574 114.891 66.8124 114.891 68.7374ZM116.57 68.6262C116.548 69.544 117.242 70.3275 118.092 70.3275L118.07 70.3051C118.921 70.3275 119.547 69.6783 119.592 68.7605C119.637 67.8204 118.898 66.9698 118.048 66.9698C117.287 66.9922 116.57 67.7756 116.57 68.6262Z" fill="#6E6E6E"/>
<path fill-rule="evenodd" clip-rule="evenodd" d="M137.457 70.1703C138.017 71.3343 138.957 71.9163 140.39 71.8939V71.9162C140.837 71.9386 141.442 71.9162 141.912 71.5357C141.986 71.4769 142.084 71.4258 142.184 71.3735C142.503 71.2067 142.845 71.0279 142.538 70.5508C142.247 70.1255 141.845 69.745 141.195 70.2151C140.613 70.6404 139.942 70.5956 139.382 70.0808L139.356 70.0575C139.182 69.9063 138.983 69.7329 139.046 69.4988C139.1 69.2483 139.311 69.2695 139.496 69.2881C139.543 69.2927 139.588 69.2972 139.628 69.2972H142.427C142.762 69.2972 143.031 69.2972 143.098 68.8495C143.299 67.6184 142.382 65.9844 141.173 65.5591C139.987 65.1338 138.957 65.4024 138.084 66.2754C137.121 67.2379 136.853 68.872 137.457 70.1703ZM139.626 68.1337H141.327L141.349 68.1561C141.26 67.5293 141.036 67.1265 140.476 66.9922C140.029 66.9026 139.603 66.9249 139.312 67.3279C139.178 67.5069 139.044 67.7308 139.066 67.9323C139.084 68.1829 139.302 68.1615 139.492 68.1428C139.54 68.1382 139.585 68.1337 139.626 68.1337Z" fill="#6E6E6E"/>
<path fill-rule="evenodd" clip-rule="evenodd" d="M143.946 70.0811C144.438 71.3123 145.423 71.939 146.9 71.8942L146.945 71.8494C147.415 71.8942 147.997 71.8495 148.49 71.4689C148.561 71.4144 148.654 71.3651 148.751 71.3144C149.049 71.157 149.376 70.9853 149.139 70.5959L149.137 70.5932C148.891 70.1901 148.51 69.5676 147.773 70.1706C147.236 70.6183 146.587 70.5735 146.027 70.1706C145.803 70.0139 145.557 69.8125 145.624 69.5215C145.677 69.2253 145.905 69.2545 146.12 69.2821C146.181 69.2899 146.241 69.2976 146.296 69.2976H148.848C148.862 69.2976 148.876 69.2977 148.89 69.2979L148.942 69.2989C149.226 69.305 149.506 69.311 149.586 68.8276C149.766 67.5293 148.893 65.9847 147.661 65.5594C146.475 65.1565 145.401 65.4028 144.572 66.2981C143.565 67.395 143.386 68.7157 143.946 70.0811ZM146.149 68.1397C146.328 68.1114 146.509 68.0827 146.631 68.178V68.2004C146.782 68.1204 146.979 68.1427 147.164 68.1637C147.446 68.1956 147.7 68.2245 147.727 67.887C147.772 67.3497 147.28 66.9469 146.631 66.9469C146.049 66.9469 145.556 67.2378 145.579 67.7751C145.592 68.2279 145.867 68.1844 146.149 68.1397Z" fill="#6E6E6E"/>
<path fill-rule="evenodd" clip-rule="evenodd" d="M154.77 65.2814C154.765 65.5086 154.759 65.7483 154.759 66.0073H154.737L154.606 65.9528C154.428 65.8792 154.34 65.8424 154.267 65.8057C152.633 64.9999 151.088 65.5372 150.439 67.1265C149.678 69.0068 150.439 71.2899 152.051 71.7824C152.677 71.9614 153.371 72.0286 153.976 71.6481C154.356 71.4242 154.535 71.3795 154.983 71.7153C155.744 72.2973 156.528 71.76 156.528 70.7974V64.1493C156.55 63.5897 156.505 63.2092 155.744 63.2316C155.095 63.254 154.692 63.3211 154.759 64.1045C154.788 64.4822 154.78 64.8608 154.77 65.2814ZM153.324 70.3269C154.152 70.3492 154.756 69.6552 154.756 68.6927H154.779C154.779 67.7525 154.152 66.9692 153.391 66.9692C152.63 66.9468 151.913 67.7302 151.913 68.6256C151.891 69.521 152.562 70.3269 153.324 70.3269Z" fill="#6E6E6E"/>
</svg>
