<svg width="189" height="42" viewBox="0 0 189 42" fill="none" xmlns="http://www.w3.org/2000/svg">
<path fill-rule="evenodd" clip-rule="evenodd" d="M8.58683 17.9026V26.7413H17.5958V33.5803L11.2853 31.4371L11.2947 31.4149L11.2993 31.4044L8.182 30.3836C1.95316 28.2673 -1.41034 21.6009 0.564829 15.3978L0.746829 14.8669C3.0055 8.75944 9.77333 5.53361 16.001 7.64878L17.5958 8.18544V17.9026H8.58566H8.58683ZM34.5183 17.9026C33.1848 15.0093 30.708 12.6444 27.4402 11.5349L26.5535 11.2339V17.9026H34.5183ZM26.5547 34.5311C30.3545 33.5511 33.6037 30.7558 34.9687 26.7868L34.978 26.7564L34.9827 26.7413H26.5547V34.5311ZM139.106 28.8319C139.598 28.8319 140.058 28.7643 140.475 28.6289C140.929 28.4819 141.322 28.2323 141.645 27.8846C141.968 27.5346 142.225 27.0563 142.406 26.4589C142.589 25.8499 142.681 25.0729 142.681 24.1513V23.1549C142.681 22.2333 142.589 21.4469 142.403 20.8158C142.224 20.1986 141.966 19.6934 141.638 19.3154C141.314 18.9421 140.921 18.6679 140.467 18.5034C140.048 18.3518 139.582 18.2736 139.087 18.2736L138.928 18.2759L138.744 18.2736C138.25 18.2736 137.785 18.3471 137.369 18.4918C136.917 18.6458 136.522 18.9141 136.201 19.2851C135.874 19.6666 135.616 20.1753 135.436 20.8006C135.253 21.4388 135.158 22.2309 135.158 23.1549V24.1513C135.158 25.0753 135.251 25.8558 135.436 26.4753C135.615 27.0796 135.869 27.5638 136.194 27.9138C136.516 28.2579 136.908 28.5041 137.36 28.6418C137.828 28.7853 138.349 28.8483 138.912 28.8296C138.989 28.8319 139.047 28.8319 139.106 28.8319ZM141.131 16.4011C141.658 16.5598 142.158 16.7429 142.626 16.9471L142.682 9.10711H146.487V23.6391C146.448 24.7684 146.28 25.7893 145.987 26.6818C145.69 27.5871 145.226 28.3711 144.61 29.0151C143.991 29.6579 143.192 30.1584 142.232 30.5026C141.281 30.8433 140.12 31.0159 138.776 31.0159C137.488 31.0159 136.378 30.8433 135.475 30.5014C134.561 30.1573 133.796 29.6544 133.197 29.0116C132.601 28.3699 132.15 27.5859 131.852 26.6806C131.559 25.7893 131.392 24.7684 131.353 23.6473C131.392 22.5098 131.559 21.4808 131.852 20.5696C132.148 19.6468 132.601 18.8429 133.196 18.1838C133.792 17.5223 134.558 17.0008 135.47 16.6356C136.375 16.2739 137.488 16.0896 138.776 16.0896C139.658 16.0896 140.449 16.1946 141.131 16.4011ZM112.746 18.3728C112.158 17.6984 111.388 17.1711 110.453 16.8048C109.528 16.4431 108.396 16.2611 107.092 16.2611C105.859 16.2611 104.76 16.4548 103.826 16.8363C102.978 17.1828 102.246 17.6739 101.645 18.3016C101.092 17.7113 100.391 17.2469 99.5553 16.9203C98.6302 16.5586 97.4903 16.3754 96.1638 16.3754C93.7885 16.3754 91.9347 17.0789 90.6572 18.4673C89.3855 19.8463 88.7403 21.7503 88.7403 24.1233V30.9868H92.546V23.2401C92.546 22.3173 92.6393 21.5368 92.8237 20.9184C93.0022 20.3118 93.2577 19.8288 93.582 19.4776C93.9052 19.1334 94.2972 18.8873 94.7487 18.7508C95.1628 18.6224 95.6237 18.5583 96.1137 18.5583C96.1755 18.5583 96.2373 18.5583 96.3167 18.5606C96.8732 18.5431 97.3667 18.6108 97.7843 18.7601C98.1857 18.9059 98.531 19.1521 98.804 19.4939C99.0875 19.8439 99.308 20.3199 99.4608 20.9091C99.616 21.5123 99.6965 22.2776 99.6965 23.1841V30.9868H103.502V24.4383C103.502 23.9354 103.496 23.6076 103.487 23.4524C103.479 23.3066 103.473 23.1981 103.473 23.1258C103.473 22.2041 103.566 21.4224 103.749 20.8041C103.929 20.1974 104.186 19.7121 104.51 19.3644C104.831 19.0203 105.222 18.7753 105.673 18.6353C106.09 18.5093 106.549 18.4439 107.041 18.4439L107.2 18.4474H107.242C107.801 18.4288 108.301 18.4976 108.726 18.6469C109.138 18.7916 109.485 19.0378 109.76 19.3784C110.042 19.7284 110.256 20.2079 110.401 20.8041C110.548 21.4189 110.622 22.1994 110.622 23.1258V30.9868H114.429V24.0101C114.429 22.8318 114.296 21.7584 114.032 20.8216C113.765 19.8684 113.334 19.0448 112.747 18.3716L112.746 18.3728ZM121.602 18.9386C121.99 18.7076 122.453 18.5909 122.978 18.5909H123.034C124.023 18.5909 124.807 18.9083 125.432 19.5651C126.016 20.1834 126.4 21.1798 126.566 22.5319H119.621C119.683 22.0769 119.783 21.6348 119.922 21.2078C120.084 20.7038 120.308 20.2534 120.588 19.8684C120.862 19.4893 121.204 19.1766 121.602 18.9386ZM128.352 18.6341C127.719 17.9749 126.947 17.4476 126.062 17.0649C125.175 16.6846 124.177 16.4804 123.082 16.4618C122.058 16.5003 121.101 16.7184 120.234 17.1093C119.366 17.5024 118.603 18.0333 117.963 18.6889C117.321 19.3458 116.817 20.1158 116.461 20.9779C116.107 21.8413 115.926 22.7746 115.926 23.7616C115.966 24.8139 116.179 25.7928 116.564 26.6748C116.948 27.5556 117.474 28.3256 118.125 28.9626C118.777 29.6008 119.552 30.1036 120.429 30.4571C121.307 30.8094 122.277 30.9868 123.304 30.9868H123.307C123.408 30.9926 123.508 30.9961 123.607 30.9961C124.201 30.9961 124.782 30.8923 125.333 30.6858C125.949 30.4571 126.562 30.2063 127.155 29.9391L127.346 29.8528L127.007 28.4574L126.755 28.5239C125.579 28.8401 124.637 29.0011 123.951 29.0011C123.137 29.0011 122.453 28.8588 121.92 28.5741C121.384 28.2894 120.941 27.9289 120.612 27.5031C120.279 27.0749 120.034 26.5931 119.88 26.0763C119.751 25.6434 119.657 25.2153 119.596 24.8046H130.228V24.5503C130.228 24.4406 130.234 24.2983 130.243 24.1221C130.254 23.9354 130.258 23.7943 130.258 23.7068C130.298 22.7443 130.148 21.8144 129.812 20.9418C129.476 20.0691 128.984 19.2921 128.352 18.6341ZM158.066 24.8968C157.784 24.4044 157.41 23.9763 156.955 23.6251C156.511 23.2821 156.006 22.9834 155.455 22.7384C154.924 22.5028 154.38 22.2764 153.84 22.0664C153.42 21.8949 153.013 21.7293 152.622 21.5671C152.248 21.4131 151.912 21.2346 151.624 21.0374C151.342 20.8438 151.116 20.6338 150.953 20.4121C150.802 20.2079 150.729 19.9676 150.729 19.6771C150.729 19.4064 150.798 19.1789 150.94 18.9841C151.089 18.7741 151.288 18.5968 151.524 18.4544C151.768 18.3063 152.059 18.1908 152.384 18.1126C152.718 18.0321 153.061 17.9913 153.378 17.9901C153.992 18.0461 154.531 18.1254 154.978 18.2281C155.42 18.3273 155.808 18.4521 156.136 18.5968C156.466 18.7426 156.758 18.9001 157.002 19.0611C157.256 19.2291 157.495 19.3983 157.722 19.5651L158.129 19.8684V19.3633C158.129 19.0809 158.132 18.8044 158.143 18.5314C158.153 18.2421 158.128 17.8944 158.067 17.5013L158.05 17.3846L157.948 17.3239C157.562 17.0941 157.199 16.8934 156.869 16.7289C156.528 16.5609 156.163 16.4256 155.789 16.3264C155.413 16.2296 155.005 16.1596 154.571 16.1199C154.144 16.0814 153.654 16.0616 153.113 16.0616C152.405 16.0616 151.717 16.1514 151.068 16.3276C150.415 16.5038 149.823 16.7698 149.314 17.1174C148.798 17.4674 148.383 17.9038 148.078 18.4066C147.768 18.9199 147.61 19.5009 147.61 20.1333C147.61 20.8764 147.756 21.5169 148.043 22.0361C148.328 22.5494 148.701 22.9881 149.157 23.3393C149.602 23.6834 150.108 23.9774 150.661 24.2131C151.201 24.4429 151.757 24.6553 152.31 24.8454C152.727 24.9971 153.127 25.1488 153.507 25.2981C153.872 25.4428 154.197 25.6119 154.476 25.7998C154.744 25.9806 154.964 26.1894 155.128 26.4204C155.28 26.6339 155.355 26.8813 155.355 27.1729C155.355 27.5101 155.283 27.7924 155.133 28.0409C154.981 28.2906 154.767 28.5076 154.495 28.6861C154.211 28.8704 153.885 29.0128 153.519 29.1096C153.153 29.2076 152.756 29.2578 152.329 29.2589C151.438 29.2939 150.654 29.2391 150.001 29.0933C149.357 28.9486 148.688 28.6359 148.013 28.1634L147.537 27.8321L147.893 30.5038L148.052 30.5504C148.846 30.7803 149.634 30.9471 150.4 31.0428C151.159 31.1384 151.915 31.1956 152.648 31.2154H152.655C153.319 31.2154 154.006 31.1314 154.693 30.9669C155.386 30.8001 156.021 30.5353 156.578 30.1783C157.143 29.8166 157.61 29.3441 157.961 28.7736C158.32 28.1926 158.5 27.5019 158.5 26.7168C158.5 26.0109 158.355 25.3984 158.066 24.8968ZM58.3638 16.9203C59.2972 17.2843 60.0683 17.8116 60.6563 18.4859C61.2432 19.1579 61.676 19.9816 61.9432 20.9359C62.2068 21.8739 62.3398 22.9473 62.3398 24.1244V30.9879H58.5342V23.2401C58.5342 22.3161 58.4583 21.5344 58.3102 20.9184C58.1667 20.3211 57.952 19.8416 57.6708 19.4928C57.3932 19.1474 57.0548 18.9071 56.6372 18.7601C56.2102 18.6108 55.7097 18.5478 55.1532 18.5618C55.0738 18.5594 55.0132 18.5594 54.9502 18.5594C54.4602 18.5594 53.9993 18.6236 53.5852 18.7508C53.1337 18.8884 52.7417 19.1334 52.4208 19.4788C52.0942 19.8288 51.8387 20.3118 51.6602 20.9161C51.477 21.5368 51.3848 22.3173 51.3848 23.2401V30.9868H47.5768V24.1244C47.5768 21.7514 48.222 19.8474 49.4937 18.4661C50.7712 17.0789 52.6238 16.3754 55.0015 16.3754C56.3082 16.3754 57.4387 16.5586 58.3638 16.9203ZM69.5137 18.9386C69.901 18.7076 70.363 18.5909 70.888 18.5909H70.9463C71.9322 18.5909 72.7162 18.9083 73.3415 19.5663C73.9283 20.1823 74.3098 21.1786 74.4767 22.5319H67.5303C67.5933 22.0793 67.6937 21.6371 67.8313 21.2078C67.9947 20.7038 68.2187 20.2534 68.4987 19.8684C68.7728 19.4893 69.1135 19.1766 69.5137 18.9386ZM76.2628 18.6341C75.6282 17.9749 74.8582 17.4476 73.9715 17.0649C73.0848 16.6846 72.0873 16.4804 70.993 16.4618C69.9698 16.5003 69.0097 16.7184 68.144 17.1093C67.2772 17.5013 66.513 18.0321 65.8725 18.6889C65.2308 19.3458 64.7257 20.1169 64.371 20.9779C64.0163 21.8413 63.8367 22.7746 63.8367 23.7616C63.8763 24.8151 64.0898 25.7963 64.4748 26.6736C64.8575 27.5556 65.3848 28.3256 66.0347 28.9626C66.688 29.6019 67.4627 30.1036 68.34 30.4571C69.2162 30.8094 70.188 30.9868 71.2135 30.9868H71.217C71.3173 30.9926 71.4177 30.9961 71.5168 30.9961C72.1118 30.9961 72.6917 30.8923 73.2435 30.6858C73.8572 30.4583 74.4697 30.2063 75.0647 29.9391L75.2572 29.8528L74.9165 28.4574L74.6645 28.5239C73.4885 28.8401 72.5458 29.0011 71.8633 29.0011C71.0467 29.0011 70.3642 28.8588 69.831 28.5741C69.2932 28.2894 68.8533 27.9289 68.522 27.5031C68.1883 27.0738 67.9422 26.5931 67.7905 26.0763C67.6622 25.6411 67.5677 25.2153 67.5058 24.8046H78.14V24.5503C78.14 24.4406 78.1447 24.2971 78.1528 24.1221C78.1633 23.9354 78.168 23.7943 78.168 23.7068C78.2077 22.7443 78.0572 21.8144 77.7212 20.9418C77.3852 20.0691 76.8952 19.2921 76.2628 18.6341ZM84.3642 18.3914V28.4551H84.3607L84.3583 29.0384C84.3583 29.3849 84.461 29.9333 85.0292 30.0161C85.252 30.0476 85.854 30.0826 86.1025 30.0826C86.1328 30.0826 86.1725 30.0791 86.2122 30.0768L86.2903 30.0721V30.9063C85.7023 31.0136 84.6593 31.0696 83.8975 31.0696C83.3445 31.0696 82.865 31.0253 82.4578 30.9378C82.0518 30.8503 81.717 30.7254 81.4498 30.5644C81.1815 30.4034 80.9855 30.2098 80.8583 29.9869C80.73 29.7629 80.6647 29.5133 80.6647 29.2403V27.1811H80.6717V18.3914H77.3163V16.2039H80.6717V11.4253L84.3642 9.13628V16.2039H87.6903V18.3914H84.3642Z" fill="white"/>
<path fill-rule="evenodd" clip-rule="evenodd" d="M159.525 13.6901H158.486V13.4883H160.784V13.6901H159.746V16.4481H159.525V13.6901ZM161.542 13.4883H161.75L162.945 15.2383L164.141 13.4883H164.35V16.4481H164.128V13.8768L162.949 15.5801H162.933L161.753 13.8768V16.4481H161.542V13.4883ZM159.681 30.9883H160.968V29.5299H159.681V30.9883ZM165.645 31.1551C165.114 31.1551 164.623 31.0559 164.171 30.8564C163.72 30.6581 163.329 30.3898 162.999 30.0514C162.668 29.7143 162.409 29.3176 162.223 28.8649C162.038 28.4123 161.943 27.9351 161.943 27.4358V27.4078C161.943 26.8991 162.038 26.4173 162.223 25.9634C162.409 25.5108 162.668 25.1141 162.999 24.7699C163.329 24.4281 163.72 24.1574 164.171 23.9591C164.623 23.7608 165.114 23.6604 165.645 23.6604C165.99 23.6604 166.302 23.6931 166.581 23.7573C166.861 23.8226 167.116 23.9136 167.349 24.0279C167.582 24.1446 167.795 24.2811 167.992 24.4374C168.186 24.5949 168.368 24.7618 168.536 24.9368L167.823 25.6869C167.536 25.3906 167.221 25.1374 166.882 24.9228C166.541 24.7104 166.125 24.6043 165.631 24.6043C165.268 24.6043 164.927 24.6754 164.611 24.8201C164.295 24.9624 164.021 25.1584 163.788 25.4093C163.556 25.6589 163.372 25.9529 163.243 26.2901C163.113 26.6284 163.048 26.9913 163.048 27.3798V27.4078C163.048 27.7963 163.115 28.1591 163.25 28.4974C163.385 28.8358 163.571 29.1309 163.809 29.3853C164.046 29.6396 164.326 29.8379 164.646 29.9838C164.968 30.1261 165.32 30.1973 165.701 30.1973C166.167 30.1973 166.58 30.0958 166.937 29.8916C167.296 29.6886 167.619 29.4343 167.907 29.1286L168.593 29.7668C168.229 30.1751 167.817 30.5076 167.355 30.7666C166.896 31.0256 166.325 31.1551 165.645 31.1551ZM172.851 30.1973C173.242 30.1973 173.6 30.1226 173.927 29.9756C174.253 29.8274 174.533 29.6279 174.765 29.3783C174.998 29.1286 175.18 28.8369 175.31 28.5033C175.439 28.1708 175.506 27.8149 175.506 27.4358V27.4078C175.506 27.0193 175.438 26.6553 175.303 26.3181C175.167 25.9798 174.979 25.6846 174.737 25.4303C174.495 25.1748 174.211 24.9741 173.885 24.8259C173.56 24.6778 173.205 24.6043 172.823 24.6043C172.433 24.6043 172.075 24.6778 171.748 24.8259C171.422 24.9741 171.146 25.1724 170.917 25.4233C170.689 25.6729 170.51 25.9669 170.379 26.3041C170.25 26.6424 170.185 27.0006 170.185 27.3798V27.4078C170.185 27.7963 170.251 28.1591 170.386 28.4974C170.522 28.8358 170.709 29.1286 170.945 29.3783C171.183 29.6279 171.464 29.8274 171.791 29.9756C172.115 30.1238 172.471 30.1973 172.851 30.1973ZM172.823 31.1539C172.284 31.1539 171.785 31.0559 171.33 30.8564C170.873 30.6581 170.477 30.3898 170.143 30.0514C169.808 29.7143 169.546 29.3199 169.36 28.8731C169.173 28.4228 169.082 27.9444 169.082 27.4358V27.4078C169.082 26.8991 169.173 26.4173 169.36 25.9634C169.546 25.5108 169.808 25.1141 170.143 24.7699C170.477 24.4281 170.875 24.1574 171.336 23.9591C171.797 23.7608 172.302 23.6604 172.851 23.6604C173.392 23.6604 173.893 23.7608 174.354 23.9591C174.814 24.1574 175.213 24.4258 175.546 24.7641C175.882 25.1024 176.143 25.4944 176.331 25.9424C176.515 26.3928 176.608 26.8711 176.608 27.3798V27.4078C176.608 27.9164 176.514 28.3983 176.322 28.8509C176.131 29.3036 175.868 29.7026 175.534 30.0444C175.199 30.3874 174.797 30.6569 174.332 30.8564C173.866 31.0548 173.364 31.1551 172.823 31.1551M177.712 23.8133H178.787V25.0208C178.909 24.8458 179.041 24.6731 179.185 24.5074C179.33 24.3406 179.495 24.1948 179.682 24.0699C179.868 23.9451 180.078 23.8459 180.31 23.7713C180.542 23.6966 180.813 23.6604 181.12 23.6604C181.707 23.6604 182.191 23.7958 182.572 24.0688C182.955 24.3418 183.243 24.6836 183.439 25.0908C183.57 24.8959 183.715 24.7104 183.879 24.5354C184.041 24.3581 184.225 24.2064 184.429 24.0769C184.635 23.9474 184.866 23.8459 185.121 23.7713C185.378 23.6966 185.664 23.6604 185.98 23.6604C186.819 23.6604 187.475 23.9171 187.951 24.4304C188.425 24.9438 188.662 25.6508 188.662 26.5468V30.9883H187.588V26.8058C187.588 26.1139 187.421 25.5808 187.091 25.2074C186.759 24.8329 186.302 24.6463 185.715 24.6463C185.445 24.6463 185.189 24.6941 184.946 24.7909C184.705 24.8889 184.492 25.0313 184.312 25.2203C184.13 25.4093 183.985 25.6426 183.879 25.9203C183.771 26.1968 183.718 26.5106 183.718 26.8618V30.9883H182.655V26.7778C182.655 26.1046 182.491 25.5808 182.162 25.2074C181.83 24.8329 181.375 24.6463 180.799 24.6463C180.509 24.6463 180.245 24.7011 180.003 24.8119C179.761 24.9228 179.549 25.0803 179.367 25.2833C179.185 25.4863 179.044 25.7243 178.942 25.9949C178.838 26.2691 178.787 26.5713 178.787 26.9026V30.9883H177.712V23.8133Z" fill="white" fill-opacity="0.7"/>
</svg>
