<svg width="216" height="207" viewBox="0 0 216 207" fill="none" xmlns="http://www.w3.org/2000/svg">
<g clip-path="url(#clip0_5535_1889)">
<rect width="216" height="206.929" fill="#151517"/>
<path d="M81.6449 113.891H78.0039V96.8359H82.7563L88.3519 106.609V96.8359H91.993V113.891H88.122L81.6449 102.278V113.891Z" fill="white"/>
<path d="M106.364 96.8359H95.2109V113.891H106.364V110.595H99.1586V106.456H105.827V103.045H99.197V100.17H106.364V96.8359Z" fill="white"/>
<path d="M108.66 96.8359H122.189V100.17H117.398V113.699H113.566V100.017H108.737L108.66 96.8359Z" fill="white"/>
<path d="M124.647 109.866C126.112 111.071 127.871 111.865 129.744 112.166C132.849 112.472 134.19 110.824 134.305 109.368C134.535 107.222 132.695 106.762 129.936 106.225C127.177 105.689 124.954 105.076 124.647 101.396C124.647 98.6752 126.755 96.184 131.277 96.3756C132.842 96.4311 134.374 96.8371 135.761 97.5637V100.246C134.184 99.1017 132.305 98.4484 130.358 98.3685C129.946 98.2922 129.523 98.301 129.115 98.3944C128.707 98.4878 128.322 98.6638 127.984 98.9116C127.647 99.1593 127.364 99.4736 127.152 99.835C126.941 100.196 126.805 100.597 126.755 101.013C126.755 103.926 129.131 103.581 131.469 104.194C134.688 104.999 136.413 105.842 136.375 109.1C136.336 112.357 133.615 114.082 129.629 114.082C127.859 114.052 126.123 113.591 124.57 112.741L124.647 109.866Z" fill="white"/>
<path d="M142.583 96.8359V106.992C142.583 110.825 144.193 112.396 146.416 112.396C148.639 112.396 150.248 110.748 150.248 106.992V96.8359H152.356V106.839C152.356 112.09 149.712 114.198 146.224 114.198C142.736 114.198 140.398 112.243 140.398 106.916V96.8359H142.583Z" fill="white"/>
<path d="M160.598 96.8359H158.566V113.853H160.598V96.8359Z" fill="white"/>
<path d="M164.121 96.8359H177.152V98.8288H171.633V113.891H169.602V98.8288H164.121V96.8359Z" fill="white"/>
<path d="M190.304 96.8359H180.301V113.891H190.304V111.898H182.255V105.574H190.304V103.581H182.255V98.8288H190.304V96.8359Z" fill="white"/>
<path fill-rule="evenodd" clip-rule="evenodd" d="M26.4531 83H52.9746V105.689L42.6651 92.5815H26.4531V83Z" fill="white"/>
<path fill-rule="evenodd" clip-rule="evenodd" d="M42.5898 101.244C46.0392 105.498 49.3353 109.867 52.7463 114.16H69.0348V123.78H42.5898V101.244Z" fill="white"/>
<path fill-rule="evenodd" clip-rule="evenodd" d="M54.6602 92.5417V84.9531H67.1544V112.509H58.8378V92.5417H54.6602Z" fill="white"/>
<path fill-rule="evenodd" clip-rule="evenodd" d="M36.7622 94.2283V114.004H40.8631V121.669H28.4453V94.1133L36.7622 94.2283Z" fill="white"/>
</g>
<defs>
<clipPath id="clip0_5535_1889">
<rect width="216" height="206.929" fill="white"/>
</clipPath>
</defs>
</svg>
