<?xml version="1.0" encoding="utf-8"?>
<!-- Generator: Adobe Illustrator 24.0.1, SVG Export Plug-In . SVG Version: 6.00 Build 0)  -->
<svg version="1.1" id="Layer_1" xmlns="http://www.w3.org/2000/svg" xmlns:xlink="http://www.w3.org/1999/xlink" x="0px" y="0px"
	 viewBox="0 0 122 73.5" style="enable-background:new 0 0 122 73.5;" xml:space="preserve">
<style type="text/css">
	.st0{clip-path:url(#SVGID_2_);}
	.st1{fill:#FFFFFF;}
</style>
<g>
	<defs>
		<rect id="SVGID_1_" width="122" height="73.5"/>
	</defs>
	<clipPath id="SVGID_2_">
		<use xlink:href="#SVGID_1_"  style="overflow:visible;"/>
	</clipPath>
	<g class="st0">
		<path class="st1" d="M52.8,0c4.1,0,8.2,0,12.2,0c1.2,0,1.5,0.4,1.5,1.6c0,7.1,0,14.1,0,21.2c0,0.4,0.2,1-0.2,1.1
			c-0.5,0.2-0.7-0.4-1-0.7c-3-3.9-5.9-7.8-8.9-11.8c-0.6-0.7-1.1-1-2-1c-4.7,0-9.4,0-14.1,0c-1.2,0-1.6-0.2-1.5-1.5
			c0.2-2.5,0.1-4.9,0-7.4c0-1.1,0.4-1.5,1.5-1.5C44.4,0.1,48.6,0,52.8,0L52.8,0L52.8,0z"/>
		<path class="st1" d="M69.2,43.6c-4.1,0-8.2,0-12.2,0c-1.2,0-1.5-0.4-1.5-1.6c0-7.1,0-14.1,0-21.2c0-0.4-0.2-1,0.2-1.1
			c0.4-0.2,0.6,0.4,0.9,0.7c2.9,3.9,5.9,7.7,8.8,11.7c0.6,0.8,1.3,1.1,2.3,1.1c4.6,0,9.2,0,13.8,0c1.1,0,1.6,0.3,1.5,1.5
			c-0.1,2.5-0.1,4.9,0,7.4c0,1.1-0.3,1.5-1.4,1.5C77.5,43.6,73.4,43.6,69.2,43.6L69.2,43.6L69.2,43.6z"/>
		<path class="st1" d="M81,16.8c0,4.4,0,8.8,0,13.2c0,1.2-0.4,1.6-1.5,1.6c-1.9-0.1-3.7,0-5.6,0.1c-1.4,0-1.6-0.2-1.6-1.6
			c0-5.8,0-11.6,0-17.4c0-1.9,0-1.9-1.8-1.9c-3,0-2.6,0.1-2.6-2.7c0-1.5,0-3.1,0-4.6c0-0.8,0.3-1.1,1.1-1.1c3.6,0,7.3,0,10.9,0
			c1,0,1.1,0.5,1.1,1.4C81,7.9,81,12.3,81,16.8z"/>
		<path class="st1" d="M41,26.8c0-4.3,0-8.7,0-13c0-1.2,0.3-1.7,1.6-1.7c1.8,0.1,3.6,0,5.4,0c1.7,0,1.7,0,1.7,1.8
			c0,5.8,0,11.6,0,17.4c0,1.8,0,1.8,1.8,1.8c2.9,0,2.6-0.3,2.6,2.7c0,1.4,0,2.8,0,4.3c0,0.9-0.3,1.4-1.3,1.4c-3.5,0-7,0-10.5,0
			c-1,0-1.3-0.4-1.3-1.4C41,35.7,41,31.3,41,26.8L41,26.8z"/>
		<path class="st1" d="M11.3,63.7c0-2.7,0-5.4,0-8.1c0-1.2,0.6-1.8,1.8-1.8c1.6,0,2.4,0.8,2.4,2.5c0,5.2,0,10.4,0,15.6
			c0,1.1-0.4,1.3-1.4,1.4c-2.4,0.4-3.7-0.8-4.7-2.9c-1.4-3.1-3.2-6.1-4.9-9.2c-0.3,0.6-0.2,1-0.2,1.5c0,3.1,0,6.1,0,9.2
			c0,1.1-0.3,1.5-1.4,1.5c-3.4-0.1-3,0.3-3-3c0-5,0-10,0-15.1c0-1,0.2-1.4,1.3-1.4c1.1,0.1,2.2,0.1,3.3,0c0.8-0.1,1.2,0.3,1.5,0.9
			c1.5,2.8,3.1,5.7,4.7,8.5C10.9,63.4,10.9,63.6,11.3,63.7L11.3,63.7z"/>
		<path class="st1" d="M18.7,63.4c0-2.8,0-5.6,0-8.4c0-0.9,0.2-1.3,1.1-1.3c3.3,0.1,6.5,0.1,9.8,0c1.1,0,1.6,0.3,1.6,1.6
			c0,2.6,0,2.6-2.5,2.6c-1.3,0-2.7,0.1-4,0c-1.3-0.1-1.3,0.7-1.3,1.7c0,1,0.4,1.3,1.3,1.3c1.6-0.1,3.2,0,4.8,0
			c0.8,0,1.1,0.3,1.1,1.1c0.2,2.9,0.2,2.9-2.5,2.9c-1.3,0-2.5,0-3.8,0c-0.7,0-1,0.3-1,1c0,0,0,0.1,0,0.1c0,3.9-0.5,3.2,3,3.3
			c1.2,0,2.4,0,3.6,0c0.7,0,1.1,0.2,1.1,1.1c0.2,3.1,0.2,3.1-2.8,3.1c-2.8,0-5.6-0.1-8.4,0c-1,0-1.4-0.3-1.4-1.4
			C18.7,69,18.6,66.2,18.7,63.4L18.7,63.4L18.7,63.4z"/>
		<path class="st1" d="M43,65.6c0,2.1,0,4.2,0,6.3c0,0.9-0.3,1.2-1.2,1.3c-3.4,0.2-3.4,0.2-3.4-3.3c0-3.6,0-7.1,0-10.7
			c0-1.1-0.3-1.4-1.3-1.4c-1,0.1-1.9,0-2.9,0c-0.7,0-1-0.3-1.1-1.1c-0.3-2.9-0.1-3.1,2.6-3.1c3.6,0,7.3,0,10.9,0
			c1.2,0,1.6,0.3,1.6,1.6c-0.1,2.5,0,2.5-2.4,2.5c-3.4,0-2.8-0.4-2.9,3C43,62.4,43,64,43,65.6L43,65.6z"/>
		<path class="st1" d="M56.5,73.5c-1.8,0-3.4-0.4-5-1.1c-0.9-0.4-1.6-2.8-1-3.6c0.4-0.6,0.8,0,1.1,0.3c1.9,1.5,4,2,6.3,1.8
			c1.1-0.1,2.2-0.5,2.7-1.8c0.7-2,0.1-3.2-1.9-3.8c-1.2-0.3-2.4-0.5-3.5-0.8c-3.1-0.7-4.6-2.6-4.6-5.7c0-2.6,1.9-4.7,4.7-5.3
			c2.4-0.5,4.7,0,6.9,0.9c0.7,0.3,1.1,2.9,0.6,3.3c-0.4,0.3-0.7-0.1-1-0.3c-1.7-1.1-3.6-1.7-5.6-1.5c-1.9,0.2-3.2,1.8-2.9,3.4
			c0.2,1,0.9,1.7,1.9,1.9c1.4,0.4,2.8,0.6,4.1,1c3,0.8,4.3,2.4,4.3,5.1c0,2.8-1.9,5.1-4.5,5.8C58.2,73.4,57.3,73.6,56.5,73.5
			L56.5,73.5z"/>
		<path class="st1" d="M110.7,63.4c0-2.7,0-5.4,0-8c0-1.2,0.3-1.6,1.5-1.6c2.9,0.1,5.8,0.1,8.7,0c0.8,0,1.1,0.3,1.1,1.1
			c0,0.8,0,1.6-1.1,1.6c-2,0-4,0-5.9,0c-1.7,0-1.7,0-1.7,1.7c0,2.1,1,3.2,3.1,3.2c1.5,0,2.9,0.1,4.4,0c0.9,0,1.3,0.2,1.3,1.2
			c0,1-0.3,1.3-1.3,1.3c-2.1-0.1-4.1,0-6.2,0c-1,0-1.4,0.4-1.3,1.4c0.1,1.4,0.1,2.8,0,4.1c0,1.1,0.4,1.4,1.4,1.3c2-0.1,4,0,6.1,0
			c0.9,0,1.4,0.2,1.3,1.3c0,0.9-0.3,1.4-1.3,1.4c-2.9,0-5.8,0-8.7,0c-1,0-1.3-0.4-1.3-1.4C110.8,69,110.7,66.2,110.7,63.4
			L110.7,63.4L110.7,63.4z"/>
		<path class="st1" d="M80.8,61c-0.1,2.1,0.2,4.5-0.2,6.8c-0.6,3.6-2.7,5.7-6.2,5.7c-3.8,0-6-1.9-6.5-5.6c-0.5-4.4-0.2-8.8-0.2-13.1
			c0-1,0.7-0.9,1.3-1c0.8,0,1.2,0.2,1.2,1.1c0,2.9,0,5.9,0,8.8c0,1.8,0,3.7,0.8,5.4c0.8,1.8,2.2,1.9,3.8,1.8c1.5,0,2.5-0.8,3.1-2.2
			c0.4-1,0.5-2,0.5-3.1c0-3.5,0-6.9,0-10.4c0-1,0.3-1.4,1.3-1.4c1.1,0,1.3,0.5,1.3,1.5C80.8,57.1,80.8,58.9,80.8,61L80.8,61z"/>
		<path class="st1" d="M99.2,64.6c0-2.3,0-4.7,0-7c0-0.9-0.3-1.3-1.2-1.3c-1.2,0-2.4,0-3.6,0c-0.9,0-1-0.5-1-1.3
			c0-0.8,0.1-1.3,1-1.3c4.1,0,8.2,0,12.4,0c1.1,0,1,0.8,1.1,1.5c0.1,0.9-0.3,1.1-1.1,1.1c-1.2,0-2.4,0-3.6,0c-1,0-1.3,0.3-1.3,1.4
			c0,4.6,0,9.3,0,13.9c0,0.9,0,1.5-1.2,1.6c-1.1,0-1.4-0.5-1.4-1.5C99.2,69.3,99.2,67,99.2,64.6L99.2,64.6L99.2,64.6z"/>
		<path class="st1" d="M87.2,63.4c0-2.8,0-5.7,0-8.5c0-0.8,0.1-1.2,1-1.1c0.8,0.1,1.6-0.1,1.6,1.1c0,5.7,0,11.4,0,17.2
			c0,1.1-0.7,1.1-1.4,1.2c-0.8,0-1.2-0.2-1.1-1.2C87.3,69.1,87.2,66.3,87.2,63.4L87.2,63.4z"/>
	</g>
</g>
</svg>
