<svg width="100" height="100" viewBox="0 0 100 100" fill="none" xmlns="http://www.w3.org/2000/svg">
<g clip-path="url(#clip0_287_2581)">
<g clip-path="url(#clip1_287_2581)">
<path d="M0.207031 41.4404C1.63075 37.1692 3.07333 32.9169 4.44048 28.6269C4.73277 27.7028 5.10992 27.3634 6.10935 27.5426C7.96679 27.8726 9.85252 28.0517 11.71 28.3346C12.37 28.4383 12.8037 28.2874 13.1997 27.7311C14.5763 25.7983 15.9811 23.8937 17.4143 21.9985C17.8008 21.4894 17.8291 21.0745 17.5368 20.4994C16.6034 18.6985 15.7548 16.8599 14.8214 15.0591C14.5103 14.4556 14.5857 14.0973 15.1608 13.6919C18.8286 11.0896 22.4869 8.45902 26.1263 5.80958C26.7109 5.38529 27.0598 5.49844 27.5312 5.95101C28.9549 7.34645 30.4258 8.68531 31.8495 10.0902C32.3492 10.5899 32.8206 10.7125 33.5089 10.4767C35.7247 9.72246 37.9498 9.02474 40.175 8.33645C40.7973 8.13845 41.1273 7.82731 41.231 7.12959C41.5233 5.23443 41.9193 3.34871 42.2398 1.45355C42.3718 0.642693 42.7018 0.303262 43.5881 0.312691C47.9159 0.359834 52.2436 0.359834 56.5808 0.312691C57.5708 0.303262 57.8819 0.708693 58.0234 1.58556C58.3157 3.45242 58.7211 5.30043 59.0134 7.15787C59.1171 7.79902 59.4094 8.11016 60.0034 8.29874C62.2945 9.01531 64.5857 9.74132 66.8674 10.5145C67.4897 10.7219 67.9046 10.5616 68.3383 10.1373C69.7714 8.75131 71.2423 7.40302 72.6566 6.00758C73.194 5.47015 73.5995 5.42301 74.2312 5.89444C77.8046 8.5156 81.4064 11.099 85.0269 13.6542C85.6304 14.0785 85.7247 14.4462 85.3852 15.0968C84.4707 16.8694 83.6315 18.6797 82.7169 20.4428C82.4058 21.0368 82.4246 21.4894 82.8301 22.0268C84.2444 23.8843 85.6304 25.77 86.9787 27.6746C87.4312 28.3157 87.931 28.4289 88.6475 28.3251C90.5804 28.0329 92.5227 27.816 94.4556 27.5143C95.0873 27.42 95.3984 27.5614 95.6059 28.1837C96.9919 32.4643 98.4062 36.7355 99.8205 41.0066C100.018 41.6101 99.8676 41.9495 99.3019 42.2418C97.5576 43.1281 95.8416 44.0898 94.0879 44.9572C93.409 45.2967 93.1544 45.7398 93.1638 46.4941C93.2016 48.757 93.2016 51.0293 93.1638 53.3016C93.145 54.1124 93.475 54.5461 94.1727 54.8856C95.8699 55.7247 97.5104 56.6582 99.1982 57.4973C99.8393 57.8179 100.018 58.1762 99.7827 58.8739C98.3779 63.0791 96.9919 67.2842 95.6341 71.4988C95.4079 72.1965 95.0684 72.3851 94.3519 72.2625C92.485 71.9608 90.6087 71.7817 88.7418 71.48C87.9404 71.348 87.3935 71.4705 86.9032 72.1777C85.5644 74.0917 84.1595 75.9586 82.7641 77.8349C82.4058 78.3063 82.3775 78.7117 82.6509 79.2397C83.5749 81.0406 84.4329 82.8792 85.3664 84.68C85.6964 85.3212 85.6304 85.6983 85.0175 86.1226C81.3969 88.6872 77.7952 91.2612 74.2217 93.8824C73.5335 94.3915 73.1375 94.2784 72.5812 93.7221C71.1952 92.3361 69.7431 91.0255 68.3383 89.6583C67.8669 89.1963 67.4143 89.0643 66.7731 89.2906C64.5574 90.0355 62.3322 90.7426 60.1071 91.4404C59.4565 91.6478 59.0982 91.9589 58.9851 92.7038C58.6268 94.9384 58.1648 97.1541 57.7405 99.3793H42.485C42.0607 97.1541 41.6081 94.9384 41.2404 92.7038C41.1178 91.9684 40.7784 91.6384 40.1278 91.4309C37.9027 90.7426 35.6775 90.0355 33.4618 89.2906C32.8206 89.0738 32.3681 89.1869 31.8966 89.6489C30.4446 91.0632 28.9455 92.4304 27.5123 93.8541C27.022 94.3349 26.6638 94.3538 26.1075 93.9484C22.4963 91.3178 18.8757 88.7155 15.2268 86.1415C14.5574 85.67 14.548 85.274 14.8874 84.614C15.7737 82.9075 16.5751 81.1632 17.4614 79.4566C17.8008 78.806 17.8197 78.3063 17.3483 77.6934C15.9246 75.8454 14.548 73.9597 13.1997 72.0551C12.8037 71.4894 12.3605 71.3668 11.71 71.4705C9.84309 71.7534 7.96679 71.9325 6.10935 72.2625C5.10049 72.4417 4.7422 72.074 4.44991 71.1594C3.08276 66.8788 1.63075 62.6265 0.21646 58.3553C0.21646 58.2139 0.21646 58.0819 0.21646 57.9405C2.15876 56.9222 4.09163 55.8662 6.05278 54.8856C6.7505 54.5367 7.07107 54.103 7.05221 53.2921C7.00507 51.0293 7.00507 48.7664 7.05221 46.5035C7.07107 45.6927 6.7505 45.259 6.05278 44.9101C4.09163 43.9295 2.15876 42.8829 0.21646 41.8552C0.21646 41.7138 0.21646 41.5818 0.21646 41.4404H0.207031ZM92.1927 68.3968C92.683 68.5194 92.9941 68.2365 93.1827 67.6425C93.9559 65.2571 94.7384 62.8811 95.5493 60.505C95.7473 59.911 95.6153 59.5716 95.0307 59.2793C93.4656 58.4967 91.9381 57.6387 90.373 56.8467C89.8167 56.5639 89.5998 56.1679 89.5998 55.5362C89.6187 51.793 89.6281 48.0498 89.5998 44.2972C89.5998 43.5712 89.8733 43.1752 90.4956 42.8641C92.0041 42.1098 93.4656 41.2706 94.9742 40.5352C95.653 40.2052 95.7473 39.8469 95.5116 39.1681C94.7196 36.8958 93.9653 34.614 93.2487 32.3229C93.0036 31.5403 92.5793 31.3046 91.8061 31.4177C90.2127 31.6629 88.6004 31.7949 87.0164 32.106C86.2055 32.2663 85.7435 32.0306 85.2815 31.3989C83.1318 28.4194 80.9538 25.4494 78.7569 22.5077C78.2949 21.8948 78.2855 21.3951 78.6343 20.7351C79.4263 19.2077 80.1429 17.6519 80.9066 16.1151C81.1612 15.6059 81.1329 15.2476 80.6332 14.8893C78.5306 13.3996 76.4375 11.9005 74.3632 10.373C73.8823 10.0242 73.5429 10.043 73.1186 10.4673C71.94 11.627 70.6954 12.7113 69.5451 13.8899C68.8946 14.5688 68.2911 14.7479 67.3671 14.4273C63.954 13.2676 60.5219 12.155 57.0805 11.099C56.2508 10.8445 55.9396 10.373 55.8171 9.58103C55.5719 8.02531 55.2325 6.47901 54.9968 4.91386C54.8742 4.08414 54.5536 3.74471 53.6673 3.773C51.3008 3.82957 48.9247 3.839 46.5582 3.773C45.6153 3.74471 45.3041 4.11243 45.1816 4.97986C44.9553 6.5733 44.6159 8.15731 44.3424 9.74132C44.2293 10.4013 43.9559 10.8256 43.2393 11.0425C39.7035 12.1456 36.1772 13.2959 32.6509 14.4651C31.9155 14.7102 31.3781 14.6253 30.8123 14.0502C29.6055 12.8245 28.3138 11.693 27.0975 10.4862C26.6355 10.0242 26.2772 10.0336 25.768 10.4107C23.7503 11.9005 21.7137 13.3619 19.6583 14.8045C19.1114 15.1911 18.97 15.5493 19.2906 16.1716C20.092 17.7274 20.818 19.3302 21.61 20.886C21.8929 21.4422 21.874 21.876 21.4874 22.3945C19.234 25.4305 16.9994 28.476 14.7743 31.5309C14.3877 32.0683 13.9634 32.2474 13.2845 32.1343C11.6628 31.8514 10.0222 31.6629 8.39108 31.4366C7.73107 31.3423 7.2125 31.3894 6.96736 32.2003C6.23192 34.5952 5.43049 36.9712 4.62906 39.3472C4.44048 39.9035 4.55363 40.2146 5.10049 40.4881C6.63735 41.2518 8.13651 42.1004 9.67337 42.8735C10.2957 43.1847 10.5879 43.5807 10.5785 44.3067C10.5502 48.0498 10.5502 51.793 10.5785 55.5456C10.5785 56.2244 10.3428 56.6204 9.7488 56.9222C8.24965 57.6764 6.77878 58.5156 5.2702 59.251C4.62906 59.5622 4.42163 59.8827 4.6762 60.5993C5.47763 62.8999 6.23192 65.2194 6.95793 67.5482C7.19364 68.3025 7.61793 68.5005 8.33451 68.3968C9.96566 68.1611 11.6062 68.0008 13.228 67.6991C14.0011 67.5577 14.4443 67.8028 14.8685 68.3874C17.0466 71.3857 19.2434 74.384 21.4592 77.3634C21.8646 77.9009 21.9212 78.3534 21.61 78.9569C20.8086 80.5126 20.0826 82.1154 19.2906 83.6712C19.0077 84.2369 19.0737 84.5952 19.6017 84.9629C21.676 86.4243 23.7409 87.914 25.7869 89.4226C26.3149 89.8092 26.6638 89.7526 27.1069 89.3095C28.3326 88.1026 29.6149 86.9618 30.8312 85.7455C31.3498 85.2269 31.8401 85.0666 32.5661 85.3118C36.083 86.4903 39.6093 87.6312 43.1544 88.7343C43.8804 88.9606 44.2199 89.3661 44.3424 90.0826C44.6064 91.7044 44.9459 93.3261 45.191 94.9478C45.3136 95.7304 45.6341 96.051 46.4639 96.0321C48.8682 95.985 51.2725 95.985 53.6768 96.0321C54.4876 96.051 54.8553 95.787 54.9779 94.9761C55.2231 93.3449 55.5436 91.7327 55.8359 90.1109C55.9396 89.5169 56.0999 89.0266 56.7976 88.8098C60.4371 87.6689 64.0577 86.4998 67.6783 85.3023C68.376 85.076 68.838 85.2458 69.3283 85.736C70.554 86.9429 71.8363 88.0838 73.0526 89.3001C73.5523 89.7998 73.9295 89.7715 74.4669 89.3755C76.4846 87.8858 78.5212 86.4243 80.5672 84.9818C81.0858 84.614 81.1895 84.2558 80.9066 83.69C80.1052 82.0966 79.3415 80.4749 78.5401 78.8814C78.2761 78.3534 78.3043 77.9386 78.6626 77.4671C80.9349 74.4028 83.1884 71.3291 85.4324 68.2459C85.8001 67.7368 86.2055 67.5765 86.8372 67.6802C88.5627 67.9631 90.2975 68.1611 92.1833 68.4251L92.1927 68.3968Z" fill="white"/>
<path d="M50.1224 84.6013C31.0388 84.7616 15.3496 68.8744 15.3496 49.8851C15.3496 30.8864 31.086 15.1312 50.1318 15.1406C69.1211 15.1501 84.9329 30.877 84.8292 49.9417C84.7254 69.1101 69.3002 84.5919 50.1224 84.5919V84.6013ZM50.0564 81.1504C67.3391 80.9619 81.2746 67.4506 81.3123 49.9323C81.35 32.6213 67.6408 18.7141 50.1507 18.6764C32.8774 18.6386 18.9231 32.3196 18.8948 49.838C18.8571 67.1301 32.5474 80.8676 50.0564 81.1504Z" fill="white"/>
<path d="M71.6199 49.897C71.6199 53.6024 71.6104 57.3173 71.6199 61.0228C71.6293 63.0216 70.8184 64.5679 69.1119 65.5674C63.6621 68.7731 58.2029 71.9411 52.7438 75.1186C50.9523 76.1651 49.1515 76.118 47.3695 75.0714C42.0046 71.9411 36.6302 68.8108 31.2654 65.6805C29.4456 64.6151 28.5688 63.0499 28.5782 60.9191C28.6065 53.5647 28.6065 46.2198 28.5782 38.8655C28.5782 36.7346 29.4456 35.1695 31.2654 34.104C36.6302 30.9737 42.0046 27.8434 47.3695 24.7131C49.1986 23.6477 51.0183 23.6477 52.8381 24.7131C58.2407 27.8623 63.6433 31.002 69.027 34.1606C70.809 35.2072 71.6387 36.7818 71.6199 38.8655C71.5916 42.5427 71.6199 46.2198 71.6199 49.8876V49.897ZM51.8292 60.2873C51.8292 63.6534 51.8292 67.0194 51.8292 70.3854C51.8292 71.5451 51.8669 71.564 52.8569 70.9888C57.5147 68.2734 62.163 65.5391 66.8396 62.8519C67.7919 62.3051 68.1879 61.5885 68.1784 60.5136C68.1596 53.989 68.1784 47.455 68.169 40.9304C68.169 39.7895 68.1313 39.7801 67.113 40.3647C62.2384 43.1932 57.3827 46.0407 52.4986 48.841C51.9612 49.1521 51.8103 49.501 51.8103 50.0761C51.8292 53.4799 51.8103 56.8836 51.8103 60.2779L51.8292 60.2873ZM48.3877 60.3062C48.3877 57.487 48.218 54.6585 48.4443 51.8582C48.614 49.8216 47.9446 48.6713 46.1249 47.9264C45.3894 47.6247 45.1726 47.6058 45.1914 48.4638C45.2292 50.5287 45.2103 52.5842 45.1914 54.649C45.1914 55.969 45.0783 56.035 43.9657 55.3845C41.2691 53.8005 38.582 52.1976 35.8665 50.6513C35.2065 50.2741 34.9802 49.8027 34.9897 49.0673C35.0274 47.3136 34.8577 45.5504 35.0368 43.8155C35.2348 41.9958 34.5654 40.9398 32.9342 40.2327C32.1611 39.9027 32.0102 39.9781 32.0102 40.7889C32.0291 47.4173 32.0291 54.055 32.0102 60.6833C32.0102 61.6356 32.3968 62.2862 33.2359 62.7671C37.9691 65.5014 42.674 68.264 47.3977 71.0171C48.3123 71.5451 48.3595 71.5168 48.3595 70.4043C48.3595 67.0382 48.3595 63.6722 48.3595 60.3062H48.3877ZM49.8586 45.8993C50.5375 45.9275 50.8675 45.7578 51.1975 45.5598C55.9118 42.8067 60.6355 40.0629 65.3498 37.3004C66.321 36.7346 66.3116 36.6498 65.3215 36.0652C60.6355 33.3215 55.9401 30.606 51.2635 27.8529C50.462 27.3814 49.7549 27.3909 48.9535 27.8529C44.72 30.342 40.4677 32.8029 36.2342 35.2921C35.5177 35.7163 34.2825 35.9238 34.2919 36.7252C34.2919 37.3852 35.5648 37.5926 36.2154 38.0735C36.8754 38.5638 37.4223 38.4601 38.0917 38.0452C40.0434 36.8195 42.0517 35.6975 43.994 34.4623C44.7294 34.0003 45.2952 33.9815 46.0494 34.4435C48.482 35.9332 50.9523 37.3569 53.4132 38.7995C54.5635 39.4784 54.5729 39.5161 53.4509 40.1949C51.4803 41.3829 49.5003 42.5615 47.5392 43.759C47.3223 43.891 46.766 44.0984 47.1526 44.3813C48.0483 45.0413 48.9912 45.7013 49.8586 45.8898V45.8993ZM47.4732 39.5915C47.36 39.4595 47.2846 39.3464 47.1997 39.2615C46.0777 38.1489 45.0217 38.0169 43.6829 38.8184C43.0983 39.1672 42.5043 39.5255 41.9197 39.8744C40.6186 40.6569 40.6091 40.6758 41.948 41.4207C42.5326 41.7412 43.0417 42.4107 43.8809 41.8544C44.8803 41.1944 45.9363 40.6098 46.9546 39.9875C47.1243 39.8838 47.2657 39.7424 47.4732 39.5821V39.5915ZM41.618 47.6247C41.618 47.0967 41.5897 46.6818 41.618 46.2764C41.684 45.5693 41.3823 45.1167 40.7506 44.815C40.2603 44.5793 39.7888 44.2964 39.3268 43.9947C38.714 43.5987 38.5725 43.8438 38.5914 44.4567C38.6197 45.343 38.6385 46.2387 38.5914 47.125C38.5443 47.8793 38.8177 48.3696 39.4965 48.6618C40.166 48.9541 40.8448 49.8593 41.4294 49.5387C41.948 49.2559 41.5237 48.2093 41.6086 47.6247H41.618Z" fill="white"/>
</g>
</g>
<defs>
<clipPath id="clip0_287_2581">
<rect width="100" height="100" fill="white"/>
</clipPath>
<clipPath id="clip1_287_2581">
<rect width="100" height="99.3777" fill="white"/>
</clipPath>
</defs>
</svg>
