<svg width="231" height="127" viewBox="0 0 231 127" fill="none" xmlns="http://www.w3.org/2000/svg">
<g clip-path="url(#clip0_118_828)">
<path d="M62.6309 57.3574C63.764 57.3574 64.8972 57.3445 66.0303 57.3509C66.114 57.3509 66.217 57.4346 66.2879 57.5054C68.7151 59.952 71.1359 62.405 73.5568 64.8515C74.0332 65.3344 74.5097 65.8173 74.9861 66.2937C75.0376 66.3452 75.0955 66.3967 75.1921 66.4804V57.3574H77.9027V69.6095C77.8061 69.6095 77.7095 69.6223 77.6129 69.6223C76.6665 69.6223 75.7136 69.6223 74.7672 69.6223C74.5676 69.6223 74.426 69.5644 74.2843 69.4227C71.3935 66.4998 68.4962 63.5768 65.6054 60.6538C65.5474 60.5894 65.4959 60.5186 65.438 60.4542C65.4122 60.4606 65.3865 60.4735 65.3607 60.4799C65.3607 60.5765 65.3607 60.6795 65.3607 60.7761C65.3607 63.6218 65.3607 66.4676 65.3607 69.3197C65.3607 69.5579 65.3028 69.6352 65.0581 69.6288C64.2533 69.6159 63.4421 69.6288 62.6373 69.6416C62.6373 65.5469 62.6373 61.4521 62.6373 57.3509L62.6309 57.3574Z" fill="#EEEEEE"/>
<path d="M65.7623 77.907V76.4648H66.0713C69.857 76.4648 73.6492 76.4648 77.4349 76.4648C77.6409 76.4648 77.7439 76.5164 77.8148 76.7224C79.9394 82.8581 83.3646 88.1504 88.0967 92.5928C92.1464 96.3979 96.8013 99.2178 102.036 101.079C105.01 102.134 108.068 102.823 111.21 103.152C113.921 103.435 116.631 103.454 119.342 103.177C127.087 102.385 134.047 99.6106 140.157 94.7819C146.176 90.0239 150.432 83.9977 152.975 76.7546C153.04 76.5743 153.111 76.4906 153.317 76.4906C157.147 76.497 160.985 76.4906 164.815 76.4906C164.893 76.4906 164.97 76.4906 165.079 76.4906C165.079 76.9413 165.086 77.3726 165.066 77.7976C165.066 77.8555 164.931 77.9457 164.854 77.9521C164.062 78.0551 163.264 78.1388 162.472 78.2354C161.39 78.3706 160.309 78.48 159.233 78.6603C157.74 78.9114 156.645 79.7291 155.963 81.094C155.377 82.2658 154.817 83.444 154.186 84.59C149.75 92.6894 143.369 98.7929 135.135 102.959C131.253 104.922 127.164 106.248 122.876 106.989C119.258 107.613 115.614 107.794 111.951 107.491C103.137 106.757 95.2239 103.68 88.2384 98.265C82.7916 94.0414 78.5874 88.8007 75.6064 82.5877C75.3618 82.0791 75.1042 81.5833 74.8596 81.0811C74.1514 79.6583 72.9861 78.847 71.4344 78.6152C70.018 78.4092 68.5951 78.2547 67.1723 78.0809C66.7023 78.0229 66.2323 77.965 65.7559 77.907H65.7623Z" fill="#EEEEEE"/>
<path d="M65.7478 50.5329V49.0843C66.3788 49.007 67.0097 48.9427 67.6342 48.859C69.0507 48.6722 70.48 48.5242 71.8835 48.2666C73.1519 48.0348 74.1112 47.288 74.7164 46.142C75.3151 45.0024 75.8624 43.8306 76.4676 42.691C79.2747 37.4245 83.0089 32.9241 87.6509 29.177C91.9903 25.6746 96.8254 23.0928 102.143 21.406C104.738 20.5819 107.384 20.0153 110.082 19.687C113.011 19.3328 115.947 19.2685 118.889 19.5067C124.864 19.9896 130.517 21.6056 135.822 24.3998C143.973 28.6877 150.225 34.8943 154.525 43.0516C154.944 43.8499 155.362 44.6547 155.729 45.4853C156.541 47.3266 157.97 48.2473 159.933 48.4533C161.595 48.6272 163.249 48.8396 164.904 49.0328C164.949 49.0328 164.988 49.0457 165.039 49.0585V50.5007H164.762C160.957 50.5007 157.152 50.5007 153.341 50.5007C153.109 50.5007 153.032 50.417 152.961 50.2174C149.362 40.1672 142.801 32.7117 133.311 27.8379C129.699 25.9836 125.869 24.7797 121.864 24.123C118.645 23.595 115.413 23.4469 112.168 23.7238C103.869 24.432 96.4649 27.3872 90.0266 32.6795C84.3094 37.373 80.2468 43.2447 77.8067 50.2303C77.723 50.4621 77.6265 50.5522 77.3625 50.5522C73.5897 50.5394 69.8233 50.5458 66.0504 50.5458H65.7285L65.7478 50.5329Z" fill="#EEEEEE"/>
<path d="M112.749 69.548V67.0564C112.865 67.0564 112.968 67.0564 113.071 67.0564C116.619 67.0564 120.173 67.0564 123.72 67.0564C123.9 67.0564 124.094 67.0435 124.267 66.992C124.84 66.8246 125.156 66.316 125.092 65.6915C125.027 65.0992 124.609 64.7 123.991 64.6485C123.817 64.6356 123.637 64.6356 123.463 64.6356C121.035 64.6356 118.615 64.6356 116.187 64.6356C115.305 64.6356 114.475 64.4682 113.766 63.9081C112.627 63.0132 112.131 61.3971 112.563 59.9614C112.987 58.5385 114.191 57.5857 115.698 57.4698C116.046 57.444 116.4 57.4312 116.754 57.4312C120.07 57.4312 123.379 57.4312 126.695 57.4312H127.023V59.9035C126.927 59.9035 126.823 59.9035 126.72 59.9035C123.334 59.9035 119.954 59.9035 116.567 59.9035C116.4 59.9035 116.232 59.9163 116.071 59.9421C115.492 60.0322 115.106 60.5022 115.131 61.0559C115.164 61.6804 115.556 62.0925 116.187 62.1118C117.134 62.1376 118.087 62.1376 119.033 62.144C120.816 62.1504 122.6 62.144 124.383 62.1633C126.836 62.1826 127.918 64.2879 127.847 65.9683C127.783 67.6037 126.881 68.9171 125.465 69.3613C125.008 69.503 124.499 69.5609 124.016 69.5674C120.327 69.5867 116.632 69.5738 112.942 69.5738C112.891 69.5738 112.839 69.5738 112.756 69.5609L112.749 69.548Z" fill="#EEEEEE"/>
<path d="M92.2798 69.5601V67.0556C92.3957 67.0556 92.5052 67.0556 92.6211 67.0556C96.1622 67.0556 99.7033 67.0556 103.244 67.0556C103.367 67.0556 103.489 67.0556 103.611 67.0299C104.268 66.9269 104.654 66.4569 104.629 65.8002C104.609 65.1434 104.191 64.7056 103.528 64.6413C103.354 64.6219 103.174 64.6284 103 64.6284C100.572 64.6284 98.1452 64.6284 95.7244 64.6284C94.823 64.6284 93.9796 64.4545 93.2585 63.8751C92.1318 62.9737 91.6618 61.3513 92.0996 59.9155C92.5245 58.5249 93.7285 57.5784 95.2093 57.4625C95.5698 57.4368 95.9304 57.4239 96.2909 57.4175C99.5938 57.4175 102.903 57.4175 106.206 57.4175H106.541V59.8898C106.438 59.8898 106.335 59.8898 106.232 59.8898C102.858 59.8898 99.4844 59.8898 96.1042 59.8898C95.9111 59.8898 95.7179 59.9027 95.5248 59.9413C94.9904 60.0379 94.617 60.5143 94.6492 61.0551C94.6814 61.6474 95.0612 62.0531 95.6342 62.0981C95.924 62.1239 96.2137 62.1303 96.5034 62.1303C98.8083 62.1303 101.107 62.1303 103.412 62.1303C104.017 62.1303 104.622 62.1561 105.202 62.3814C106.496 62.8965 107.339 64.2163 107.365 65.7744C107.404 67.5836 106.283 69.0837 104.59 69.4507C104.21 69.5344 103.805 69.5472 103.412 69.5472C99.7934 69.5537 96.1686 69.5472 92.5503 69.5472C92.4666 69.5472 92.3764 69.5472 92.267 69.5472L92.2798 69.5601Z" fill="#EEEEEE"/>
<path d="M155.586 69.6128H152.889V57.3478C152.972 57.3478 153.063 57.335 153.153 57.335C154.138 57.335 155.123 57.335 156.108 57.335C156.288 57.335 156.417 57.3865 156.546 57.5152C159.43 60.4382 162.314 63.3548 165.199 66.2778C165.257 66.3357 165.302 66.4001 165.411 66.4323V57.3543H168.109V69.6257C168.012 69.6257 167.916 69.6257 167.826 69.6257C166.866 69.6257 165.907 69.6257 164.954 69.6257C164.774 69.6257 164.645 69.5677 164.516 69.439C161.658 66.5417 158.799 63.6509 155.94 60.7537C155.844 60.6571 155.773 60.5348 155.683 60.4189C155.651 60.4382 155.625 60.4575 155.593 60.4769V69.6064L155.586 69.6128Z" fill="#EEEEEE"/>
<path d="M83.9414 57.3579H86.6198V69.61H83.9414V57.3579V57.3579Z" fill="#EEEEEE"/>
<path d="M131.039 69.6128C131.036 69.6171 131.034 69.6213 131.031 69.6257V69.6128C131.034 69.6128 131.036 69.6128 131.039 69.6128Z" fill="#EEEEEE"/>
<path fill-rule="evenodd" clip-rule="evenodd" d="M131.039 69.6128C131.315 69.6128 131.586 69.6132 131.855 69.6136C132.656 69.6148 133.431 69.616 134.205 69.6064C134.283 69.6064 134.386 69.5162 134.437 69.439C134.566 69.233 134.694 69.0262 134.822 68.8195C135.078 68.406 135.334 67.9925 135.596 67.5847C135.654 67.5075 135.783 67.4238 135.879 67.4238C138.738 67.4173 141.59 67.4173 144.449 67.4238C144.545 67.4238 144.681 67.501 144.732 67.5847C145.125 68.1899 145.498 68.8016 145.872 69.4197C145.955 69.5613 146.052 69.6192 146.226 69.6192H149.258C149.244 69.5922 149.231 69.5679 149.22 69.5456C149.184 69.478 149.159 69.4295 149.13 69.381C146.67 65.4343 144.211 61.4877 141.751 57.5345C141.655 57.38 141.545 57.335 141.371 57.335L141.365 57.335C140.562 57.3414 139.766 57.3478 138.97 57.335C138.757 57.335 138.641 57.3993 138.532 57.5796C137.312 59.5402 136.09 61.4992 134.868 63.4582C133.647 65.4169 132.425 67.3756 131.205 69.336C131.172 69.3849 131.142 69.4363 131.105 69.5002C131.086 69.5338 131.064 69.5709 131.039 69.6128ZM140.169 60.1695C139.136 61.8188 138.128 63.4361 137.107 65.079C137.106 65.0815 137.104 65.0841 137.103 65.0867C137.103 65.0868 137.103 65.0865 137.103 65.0867L143.219 65.0871C143.219 65.087 143.219 65.0872 143.219 65.0871C143.194 65.0467 143.169 65.006 143.144 64.9657C142.323 63.635 141.509 62.3202 140.686 60.9908C140.516 60.715 140.345 60.4387 140.174 60.1614C140.172 60.1641 140.17 60.1668 140.169 60.1695Z" fill="#EEEEEE"/>
</g>
<defs>
<clipPath id="clip0_118_828">
<rect width="231" height="127" fill="white"/>
</clipPath>
</defs>
</svg>
