<?xml version="1.0" encoding="utf-8"?>
<!-- Generator: Adobe Illustrator 24.0.1, SVG Export Plug-In . SVG Version: 6.00 Build 0)  -->
<svg version="1.1" id="Layer_1" xmlns="http://www.w3.org/2000/svg" xmlns:xlink="http://www.w3.org/1999/xlink" x="0px" y="0px"
	 viewBox="0 0 94.1 72.2" style="enable-background:new 0 0 94.1 72.2;" xml:space="preserve">
<style type="text/css">
	.st0{fill:#FFFFFF;}
</style>
<path class="st0" d="M31.2,10.5c2.2,2.3,2.2,6-0.2,8.3c-2.3,2.2-6,2.2-8.3-0.2s-2.2-6,0.2-8.3c0.3-0.3,0.7-0.6,1.1-0.8
	C26.3,7.8,29.5,8.3,31.2,10.5"/>
<path class="st0" d="M45.2,7.9c2.4,2.5,2.3,6.4-0.2,8.7c-2.5,2.4-6.4,2.3-8.7-0.2c-2.4-2.5-2.3-6.4,0.2-8.7c0.4-0.3,0.8-0.6,1.2-0.9
	C40.1,5.1,43.4,5.6,45.2,7.9"/>
<path class="st0" d="M60.4,5.2c1.4,2.5,0,6-3.1,7.8c-3.1,1.8-6.9,1.3-8.3-1.2c-1.4-2.5,0-5.9,3.1-7.8C55.3,2.2,59,2.8,60.4,5.2"/>
<path class="st0" d="M78.9,2.4c1.5,2.6,0,6.3-3.3,8.2c-3.3,1.9-7.2,1.4-8.7-1.2c-1.5-2.6,0-6.3,3.3-8.2C73.5-0.8,77.4-0.2,78.9,2.4"
	/>
<path class="st0" d="M27.4,22.8c1.8,1.9,1.2,5.4-1.2,7.7c-2,2.3-5.4,2.5-7.7,0.6c-1.8-1.9-1.2-5.4,1.2-7.6
	C21.6,21.2,25,20.9,27.4,22.8"/>
<path class="st0" d="M23.7,38.3c2,2.3,1.3,6.2-1.6,8.8c-2.9,2.6-6.9,2.8-8.9,0.5c-2-2.3-1.3-6.2,1.6-8.8
	C17.7,36.3,21.7,36,23.7,38.3"/>
<path class="st0" d="M38.6,37.2c2.3,2.1,2,6.3-0.7,9.3c-2.7,3-6.8,3.7-9.1,1.5c-2.3-2.1-2-6.3,0.7-9.3C32.2,35.7,36.3,35,38.6,37.2"
	/>
<path class="st0" d="M55.8,36.3c2.6,2.3,2.2,6.8-0.7,10.1c-2.9,3.3-7.4,4-10,1.7c-2.5-2.3-2.2-6.9,0.7-10.1
	C48.8,34.7,53.2,33.9,55.8,36.3"/>
<path class="st0" d="M42.7,22.4c1.4,2.4,0,5.8-3,7.6c-3.1,1.8-6.7,1.3-8.1-1.1c-1.4-2.4,0-5.8,3-7.6C37.7,19.5,41.4,20,42.7,22.4"/>
<path class="st0" d="M59.1,20.3c1.5,2.6,0,6.4-3.3,8.3c-3.4,1.9-7.4,1.4-8.9-1.3c-1.5-2.6,0-6.4,3.3-8.3S57.5,17.7,59.1,20.3"/>
<path class="st0" d="M79.3,18.1c1.7,3,0,7.2-3.8,9.5c-3.8,2.2-8.3,1.6-10.1-1.4c-1.7-3,0-7.2,3.8-9.5C73.1,14.4,77.6,15,79.3,18.1"
	/>
<path class="st0" d="M80,41.6c0.4,4.5-2.9,8.5-7.5,8.9C68,51,64,47.6,63.6,43.1c-0.4-4.5,2.9-8.5,7.5-8.9c0.2,0,0.5,0,0.7,0
	C76.2,34,79.8,37.3,80,41.6"/>
<path class="st0" d="M0.1,63.7c0-0.8,0-1.4-0.1-2h1.2l0.1,1.2h0c0.5-0.9,1.4-1.4,2.5-1.4c1,0,2.6,0.6,2.6,3.2v4.4H5v-4.3
	c0-1.2-0.4-2.2-1.7-2.2c-0.8,0-1.6,0.6-1.8,1.4c-0.1,0.2-0.1,0.4-0.1,0.6v4.5H0.1L0.1,63.7z"/>
<path class="st0" d="M15.3,65.4c0.2,2-1.3,3.8-3.3,4c-0.1,0-0.3,0-0.4,0c-2,0-3.6-1.6-3.6-3.5c0-0.1,0-0.2,0-0.3
	c-0.2-2,1.3-3.8,3.3-3.9c0.1,0,0.2,0,0.3,0c1.9,0,3.6,1.5,3.6,3.5C15.4,65.1,15.4,65.3,15.3,65.4 M9.5,65.5c0,1.6,0.9,2.9,2.3,2.9
	s2.3-1.2,2.3-2.9c0-1.3-0.6-2.8-2.2-2.8C10.1,62.6,9.5,64.1,9.5,65.5"/>
<path class="st0" d="M17.1,64.1c0-1,0-1.7,0-2.4h1.2l0.1,1.3h0c0.5-0.9,1.5-1.5,2.6-1.4c1.9,0.1,3.3,1.7,3.2,3.6c0,0.1,0,0.2,0,0.2
	c0.3,1.9-1.1,3.7-3,4c-0.1,0-0.2,0-0.4,0c-0.9,0-1.8-0.4-2.3-1.2h0v4h-1.3V64.1z M18.4,66.1c0,0.2,0,0.4,0.1,0.6
	c0.2,0.9,1.1,1.6,2,1.6c1.4,0,2.3-1.2,2.3-2.9c0-1.5-0.8-2.8-2.2-2.8c-1,0-1.8,0.7-2.1,1.7c0,0.2-0.1,0.4-0.1,0.5L18.4,66.1z"/>
<path class="st0" d="M33.1,68.8c-0.9,0.4-1.8,0.5-2.7,0.5c-2.7,0.2-5-1.9-5.1-4.6c0-0.2,0-0.5,0-0.7c-0.2-2.8,2-5.3,4.8-5.5
	c0.2,0,0.4,0,0.6,0c0.8,0,1.7,0.1,2.5,0.5l-0.3,1.1c-0.6-0.3-1.4-0.4-2.1-0.4c-2.1-0.1-4,1.5-4.1,3.6c0,0.2,0,0.4,0,0.6
	c-0.2,2.1,1.3,3.9,3.3,4.2c0.2,0,0.4,0,0.7,0c0.8,0,1.5-0.1,2.2-0.4L33.1,68.8z"/>
<path class="st0" d="M41.3,65.4c0.2,2-1.3,3.8-3.3,4c-0.1,0-0.3,0-0.4,0c-2,0-3.6-1.6-3.6-3.5c0-0.1,0-0.2,0-0.3
	c-0.2-2,1.3-3.8,3.3-3.9c0.1,0,0.2,0,0.3,0c1.9,0,3.6,1.5,3.6,3.5C41.3,65.1,41.3,65.3,41.3,65.4 M35.4,65.5c0,1.6,0.9,2.9,2.2,2.9
	c1.3,0,2.3-1.2,2.3-2.9c0-1.3-0.6-2.8-2.2-2.8C36.1,62.6,35.4,64.1,35.4,65.5"/>
<path class="st0" d="M43,63.7c0-0.8,0-1.4-0.1-2h1.2l0.1,1.2h0c0.5-0.9,1.4-1.4,2.3-1.4c0.9,0,1.8,0.6,2.1,1.5h0
	c0.2-0.4,0.5-0.7,0.9-1c0.5-0.4,1-0.6,1.6-0.5c1,0,2.5,0.7,2.5,3.2v4.4h-1.3V65c0-1.5-0.5-2.3-1.6-2.3c-0.7,0-1.4,0.5-1.6,1.2
	c-0.1,0.2-0.1,0.5-0.1,0.7v4.6h-1.3v-4.5c0-1.2-0.5-2-1.6-2c-0.8,0-1.5,0.6-1.7,1.4c-0.1,0.2-0.1,0.4-0.1,0.7v4.5H43L43,63.7z"/>
<path class="st0" d="M55.9,63.7c0-0.8,0-1.4-0.1-2H57l0.1,1.2h0c0.5-0.9,1.4-1.4,2.4-1.4c0.9,0,1.8,0.6,2.1,1.5h0
	c0.2-0.4,0.5-0.7,0.8-1c0.5-0.4,1-0.6,1.6-0.5c1,0,2.5,0.7,2.5,3.2v4.4h-1.3V65c0-1.5-0.5-2.3-1.6-2.3c-0.7,0-1.4,0.5-1.6,1.2
	c-0.1,0.2-0.1,0.4-0.1,0.7v4.6h-1.3v-4.5c0-1.2-0.5-2-1.6-2c-0.8,0-1.5,0.6-1.7,1.4c-0.1,0.2-0.1,0.4-0.1,0.7v4.5h-1.3L55.9,63.7z"
	/>
<path class="st0" d="M69.4,65.7c-0.1,1.3,0.9,2.5,2.2,2.6c0.1,0,0.3,0,0.4,0c0.7,0,1.4-0.1,2.1-0.4l0.3,1c-0.8,0.3-1.6,0.5-2.5,0.5
	c-1.9,0.1-3.6-1.4-3.7-3.3c0-0.2,0-0.3,0-0.5c-0.2-2,1.2-3.8,3.2-4c0.1,0,0.2,0,0.3,0c1.7,0,3.1,1.5,3.1,3.2c0,0.1,0,0.2,0,0.3
	c0,0.2,0,0.4,0,0.6L69.4,65.7z M73.4,64.7c0.2-1-0.6-2-1.6-2.2c-0.1,0-0.2,0-0.3,0c-1.2,0.1-2.1,1-2.1,2.2H73.4z"/>
<path class="st0" d="M76.4,64c0-0.9,0-1.6-0.1-2.3h1.2l0.1,1.5h0c0.3-0.9,1.1-1.6,2.1-1.6c0.1,0,0.2,0,0.4,0v1.3c-0.2,0-0.3,0-0.5,0
	c-1,0-1.7,0.8-1.8,1.7c0,0.2-0.1,0.4,0,0.6v4h-1.4V64z"/>
<path class="st0" d="M86.6,68.9c-0.7,0.3-1.4,0.4-2.1,0.4c-1.9,0.1-3.6-1.4-3.7-3.3c0-0.2,0-0.3,0-0.5c-0.1-2.1,1.5-3.9,3.6-4
	c0.1,0,0.3,0,0.4,0c0.6,0,1.3,0.1,1.9,0.4l-0.3,1c-0.5-0.3-1-0.4-1.6-0.4c-1.4,0-2.6,1.1-2.6,2.5c0,0.1,0,0.2,0,0.3
	c-0.1,1.4,0.9,2.7,2.3,2.8c0.1,0,0.2,0,0.3,0c0.6,0,1.1-0.1,1.7-0.4L86.6,68.9z"/>
<path class="st0" d="M88.8,65.7c-0.1,1.3,0.9,2.5,2.2,2.6c0.1,0,0.3,0,0.4,0c0.7,0,1.4-0.1,2.1-0.4l0.3,1c-0.8,0.3-1.6,0.5-2.5,0.5
	c-1.9,0.1-3.6-1.4-3.7-3.3c0-0.2,0-0.3,0-0.5c-0.2-2,1.2-3.8,3.2-4c0.1,0,0.2,0,0.3,0c1.7,0,3.1,1.4,3.1,3.2c0,0.1,0,0.2,0,0.3
	c0,0.2,0,0.4,0,0.6L88.8,65.7z M92.8,64.7c0.1-1-0.6-2-1.6-2.2c-0.1,0-0.2,0-0.2,0c-1.2,0.1-2.1,1-2.1,2.2H92.8z"/>
</svg>
