<svg width="216" height="207" viewBox="0 0 216 207" fill="none" xmlns="http://www.w3.org/2000/svg">
<g clip-path="url(#clip0_5535_2464)">
<rect width="216" height="206.929" fill="#151517"/>
<g clip-path="url(#clip1_5535_2464)">
<path d="M91.073 74.8756C91.9734 75.7812 92.5855 76.9333 92.8319 78.1863C93.0784 79.4394 92.9481 80.7374 92.4577 81.9165C91.9673 83.0956 91.1386 84.1031 90.0763 84.8118C89.0139 85.5206 87.7654 85.8988 86.4883 85.8988C85.2113 85.8988 83.963 85.5206 82.9006 84.8118C81.8383 84.1031 81.0096 83.0956 80.5192 81.9165C80.0287 80.7374 79.8985 79.4394 80.1449 78.1863C80.3914 76.9333 81.0034 75.7812 81.9038 74.8756C82.2902 74.5192 82.7154 74.2074 83.1714 73.946C84.3796 73.0752 85.8788 72.7075 87.3528 72.9203C88.8268 73.1332 90.1605 73.9099 91.073 75.0869" fill="white"/>
<path d="M106.408 71.9591C107.372 72.9138 108.031 74.1334 108.3 75.463C108.57 76.7927 108.438 78.1724 107.922 79.427C107.406 80.6816 106.528 81.7546 105.401 82.5097C104.274 83.2648 102.948 83.6679 101.591 83.6679C100.235 83.6679 98.9087 83.2648 97.7816 82.5097C96.6545 81.7546 95.777 80.6816 95.2608 79.427C94.7447 78.1724 94.613 76.7927 94.8825 75.463C95.152 74.1334 95.8103 72.9138 96.7742 71.9591C97.1733 71.5751 97.6127 71.2352 98.0844 70.945C99.3666 69.9943 100.971 69.5855 102.552 69.8068C104.133 70.0282 105.563 70.8618 106.535 72.1282" fill="white"/>
<path d="M123.312 69.0027C124.384 70.1281 125.079 71.5595 125.3 73.0979C125.521 74.6364 125.257 76.2055 124.546 77.5871C123.834 78.9687 122.709 80.0943 121.328 80.8073C119.947 81.5203 118.378 81.7852 116.839 81.5654C115.301 81.3456 113.869 80.6519 112.743 79.5808C111.616 78.5096 110.852 77.1142 110.555 75.5885C110.259 74.0628 110.445 72.4826 111.088 71.0676C111.731 69.6526 112.799 68.473 114.143 67.6929C115.54 66.6722 117.281 66.238 118.994 66.4827C120.707 66.7274 122.257 67.6317 123.312 69.0027" fill="white"/>
<path d="M143.846 65.8749C144.97 67.0596 145.697 68.5652 145.926 70.1822C146.155 71.7993 145.875 73.4476 145.124 74.898C144.373 76.3484 143.19 77.5289 141.737 78.2754C140.284 79.0219 138.635 79.2973 137.019 79.0634C135.402 78.8294 133.899 78.0977 132.718 76.97C131.536 75.8422 130.736 74.3745 130.427 72.7707C130.118 71.167 130.317 69.5069 130.995 68.0211C131.673 66.5354 132.798 65.2978 134.212 64.4805C135.686 63.4211 137.513 62.9744 139.31 63.2345C141.106 63.4945 142.732 64.441 143.846 65.8749" fill="white"/>
<path d="M86.7991 88.5224C88.0266 89.3076 88.9774 90.4576 89.5176 91.811C90.0579 93.1643 90.1605 94.6528 89.8111 96.0674C89.4618 97.4821 88.6779 98.7517 87.5697 99.6979C86.4616 100.644 85.0847 101.219 83.6328 101.343C82.1809 101.466 80.7269 101.132 79.4749 100.386C78.223 99.6404 77.2361 98.5213 76.6529 97.1859C76.0698 95.8505 75.9197 94.366 76.2238 92.941C76.5279 91.5159 77.2708 90.2218 78.3481 89.2408C79.398 88.0603 80.8633 87.331 82.438 87.2051C84.0126 87.0791 85.575 87.5662 86.7991 88.5647" fill="white"/>
<path d="M82.7112 105.68C84.0732 106.631 85.1046 107.983 85.6619 109.548C86.2192 111.113 86.2745 112.813 85.8202 114.411C85.366 116.009 84.4249 117.425 83.1277 118.463C81.8306 119.501 80.2419 120.108 78.5832 120.201C76.9246 120.294 75.2785 119.867 73.8739 118.979C72.4694 118.092 71.3763 116.789 70.7471 115.252C70.1179 113.714 69.9841 112.019 70.3639 110.402C70.7436 108.785 71.6181 107.326 72.8658 106.229C74.1159 104.88 75.8409 104.069 77.6775 103.966C79.514 103.864 81.3187 104.478 82.7112 105.68" fill="white"/>
<path d="M99.2272 104.414C100.794 105.233 102.065 106.522 102.861 108.101C103.657 109.68 103.937 111.469 103.663 113.215C103.389 114.962 102.573 116.579 101.332 117.838C100.091 119.097 98.4857 119.935 96.743 120.234C95.0004 120.533 93.208 120.277 91.618 119.504C90.028 118.731 88.7204 117.478 87.8797 115.923C87.039 114.368 86.7074 112.588 86.9314 110.834C87.1554 109.08 87.9235 107.441 89.1282 106.146C90.2485 104.591 91.9345 103.539 93.8233 103.215C95.7122 102.891 97.6527 103.321 99.2272 104.414" fill="white"/>
<path d="M118.286 103.396C119.947 104.296 121.287 105.691 122.118 107.387C122.949 109.083 123.231 110.996 122.924 112.86C122.617 114.724 121.737 116.446 120.406 117.786C119.075 119.126 117.359 120.019 115.498 120.338C113.636 120.658 111.721 120.39 110.019 119.57C108.317 118.751 106.913 117.421 106.002 115.767C105.091 114.112 104.718 112.215 104.935 110.338C105.153 108.462 105.95 106.7 107.216 105.298C108.446 103.596 110.294 102.444 112.363 102.089C114.433 101.733 116.559 102.203 118.286 103.396" fill="white"/>
<path d="M103.837 88.0157C104.891 89.1124 105.578 90.511 105.8 92.0164C106.022 93.5218 105.768 95.059 105.075 96.4136C104.382 97.7682 103.283 98.8727 101.932 99.573C100.581 100.273 99.0456 100.535 97.539 100.321C96.0325 100.106 94.6301 99.4273 93.5279 98.3781C92.4257 97.329 91.6784 95.962 91.3901 94.4679C91.1019 92.9737 91.2872 91.4268 91.9201 90.043C92.553 88.6591 93.602 87.5072 94.9208 86.748C96.28 85.7586 97.9711 85.3375 99.6355 85.5742C101.3 85.8108 102.807 86.6866 103.837 88.0157Z" fill="white"/>
<path d="M121.919 85.9041C122.616 87.6218 122.617 89.5433 121.923 91.2624C121.23 92.9814 119.894 94.3632 118.2 95.1156C117.066 95.4393 115.865 95.4382 114.732 95.1123C113.598 94.7865 112.58 94.149 111.791 93.2725C111.003 92.396 110.476 91.3156 110.271 90.1545C110.067 88.9934 110.192 87.7982 110.633 86.7049C111.075 85.6116 111.814 84.6642 112.768 83.9705C113.721 83.2769 114.85 82.8649 116.026 82.7814C117.202 82.698 118.378 82.9464 119.42 83.4985C120.461 84.0506 121.327 84.8841 121.919 85.9041" fill="white"/>
<path d="M144.442 83.2423C145.754 84.6153 146.604 86.363 146.875 88.242C147.146 90.121 146.825 92.0379 145.955 93.7256C145.086 95.4133 143.712 96.788 142.025 97.658C140.337 98.5281 138.421 98.8504 136.542 98.5799C134.662 98.3094 132.914 97.4597 131.541 96.149C130.167 94.8383 129.237 93.132 128.879 91.2676C128.521 89.4032 128.753 87.4734 129.543 85.7472C130.333 84.0209 131.642 82.5841 133.287 81.6367C134.992 80.4068 137.108 79.8868 139.189 80.1863C141.27 80.4858 143.153 81.5815 144.442 83.2423" fill="white"/>
<path d="M145.114 109.356C145.241 111.151 144.834 112.943 143.946 114.507C143.057 116.071 141.726 117.338 140.119 118.148C138.513 118.958 136.703 119.275 134.916 119.06C133.13 118.844 131.448 118.106 130.08 116.937C128.712 115.768 127.72 114.221 127.229 112.49C126.738 110.759 126.77 108.922 127.32 107.209C127.87 105.496 128.914 103.983 130.32 102.862C131.727 101.74 133.434 101.06 135.227 100.905H135.987C137.14 100.86 138.289 101.043 139.371 101.444C140.452 101.845 141.443 102.455 142.288 103.241C143.132 104.026 143.813 104.971 144.29 106.02C144.768 107.07 145.034 108.204 145.072 109.356" fill="white"/>
<path d="M56.5508 133.822C56.5508 132.977 56.5508 132.259 56.5508 131.583H57.8607V132.977C58.1206 132.49 58.5116 132.086 58.9895 131.809C59.4674 131.533 60.0133 131.396 60.565 131.414C61.7482 131.414 63.4806 132.09 63.4806 134.921V139.865H62.0016V135.09C62.0016 133.738 61.4944 132.639 60.1 132.639C59.6392 132.648 59.1936 132.805 58.8286 133.087C58.4635 133.368 58.1983 133.759 58.0719 134.202C58.0107 134.424 58.0107 134.657 58.0719 134.878V139.865H56.5508V133.822Z" fill="white"/>
<path d="M73.4928 135.638C73.5015 136.67 73.1324 137.669 72.4552 138.447C71.7781 139.225 70.8396 139.729 69.8166 139.863H69.3939C68.8764 139.875 68.3618 139.782 67.8803 139.592C67.3989 139.402 66.9603 139.117 66.5903 138.755C66.2203 138.393 65.9264 137.961 65.7258 137.483C65.5252 137.006 65.4219 136.494 65.422 135.976V135.638C65.4145 134.6 65.7894 133.595 66.4753 132.816C67.1611 132.036 68.1098 131.537 69.1404 131.412H69.5208C70.5559 131.401 71.5535 131.798 72.2972 132.518C73.0408 133.238 73.4706 134.223 73.4928 135.257V135.68V135.638ZM66.9431 135.68C66.9431 137.497 67.9996 138.849 69.4362 138.849C70.8729 138.849 71.9714 137.497 71.9714 135.638C71.9714 133.779 71.2532 132.469 69.4785 132.469C67.7038 132.469 66.9431 134.117 66.9431 135.68Z" fill="white"/>
<path d="M75.3984 134.286C75.3984 133.23 75.3984 132.385 75.3984 131.582H76.8352V133.019C77.1281 132.51 77.5548 132.092 78.0688 131.809C78.5828 131.525 79.1645 131.389 79.7508 131.413C80.7411 131.468 81.6697 131.911 82.3345 132.647C82.9992 133.383 83.3464 134.352 83.3003 135.343C83.3003 135.343 83.3003 135.343 83.3003 135.596C83.3716 136.11 83.3406 136.632 83.209 137.134C83.0775 137.635 82.8478 138.106 82.5336 138.518C82.2193 138.931 81.8268 139.277 81.3782 139.537C80.9296 139.797 80.4338 139.965 79.9197 140.033H79.5396C79.0435 140.059 78.549 139.956 78.1046 139.733C77.6603 139.511 77.2811 139.178 77.0041 138.765V138.765V143.244H75.5253L75.3984 134.286ZM76.8775 136.483C76.8569 136.694 76.8569 136.906 76.8775 137.117C77.0078 137.612 77.2981 138.051 77.7031 138.364C78.108 138.677 78.6049 138.848 79.1169 138.85C80.7226 138.85 81.61 137.582 81.61 135.681C81.61 133.779 80.7649 132.596 79.1592 132.596C78.6321 132.612 78.1255 132.804 77.7198 133.141C77.3141 133.477 77.0326 133.94 76.9198 134.455C76.9 134.652 76.9 134.85 76.9198 135.047L76.8775 136.483Z" fill="white"/>
<path d="M93.143 139.483C92.184 139.896 91.1435 140.084 90.1007 140.033C88.6839 140.114 87.2926 139.63 86.2314 138.688C85.1703 137.745 84.5256 136.421 84.4385 135.004C84.4163 134.737 84.4163 134.469 84.4385 134.202C84.3459 132.695 84.8544 131.213 85.8523 130.08C86.8502 128.948 88.2563 128.257 89.7626 128.159H90.4386C91.3672 128.115 92.2934 128.288 93.143 128.666L92.7628 129.892C92.0496 129.554 91.2698 129.381 90.4809 129.384C89.9016 129.344 89.3204 129.423 88.7731 129.617C88.2258 129.811 87.7242 130.116 87.2999 130.512C86.8757 130.909 86.5378 131.389 86.3072 131.922C86.0766 132.455 85.9582 133.029 85.9596 133.61V134.286C85.8402 135.388 86.1588 136.493 86.8465 137.363C87.5342 138.232 88.536 138.796 89.636 138.934H90.3966C91.2258 138.933 92.0459 138.761 92.8051 138.427L93.143 139.483Z" fill="white"/>
<path d="M102.188 135.638C102.196 136.676 101.821 137.68 101.135 138.46C100.449 139.239 99.5003 139.739 98.4696 139.863H97.9626C97.4465 139.869 96.9343 139.773 96.4554 139.58C95.9765 139.388 95.5402 139.103 95.1713 138.742C94.8025 138.381 94.5084 137.951 94.3058 137.476C94.1032 137.002 93.9962 136.492 93.9906 135.976C93.9667 135.864 93.9667 135.749 93.9906 135.638C93.9819 134.606 94.351 133.607 95.0282 132.828C95.7054 132.05 96.6438 131.546 97.6668 131.412H98.0895C99.1245 131.401 100.122 131.798 100.866 132.518C101.61 133.238 102.039 134.223 102.061 135.257V135.68L102.188 135.638ZM95.5118 135.68C95.5118 137.497 96.526 138.849 98.0049 138.849C99.4838 138.849 100.498 137.497 100.498 135.638C100.498 133.779 99.8219 132.469 98.0472 132.469C96.2725 132.469 95.5118 134.117 95.5118 135.68Z" fill="white"/>
<path d="M104.129 133.822C104.129 132.977 104.129 132.259 104.129 131.583H105.439V132.935C105.679 132.463 106.05 132.069 106.506 131.799C106.963 131.53 107.486 131.396 108.016 131.414C108.527 131.412 109.026 131.57 109.442 131.865C109.859 132.161 110.173 132.579 110.34 133.062V133.062C110.58 132.654 110.896 132.295 111.27 132.005C111.792 131.61 112.432 131.401 113.087 131.414C114.186 131.414 115.833 132.132 115.833 135.005V139.865H114.354V135.217C114.354 133.569 113.763 132.639 112.58 132.639C112.177 132.658 111.789 132.797 111.465 133.038C111.141 133.279 110.897 133.611 110.763 133.991C110.743 134.244 110.743 134.499 110.763 134.752V139.865H109.326V134.921C109.326 133.569 108.735 132.639 107.594 132.639C107.166 132.674 106.759 132.838 106.427 133.11C106.095 133.381 105.853 133.748 105.735 134.16C105.67 134.395 105.67 134.643 105.735 134.879V139.865H104.256L104.129 133.822Z" fill="white"/>
<path d="M118.371 133.821C118.371 132.976 118.371 132.257 118.371 131.581H119.723V132.933C119.971 132.458 120.349 132.062 120.812 131.793C121.276 131.524 121.807 131.392 122.343 131.412C122.854 131.41 123.352 131.568 123.769 131.864C124.186 132.159 124.5 132.578 124.667 133.06V133.06C124.894 132.643 125.211 132.282 125.596 132.004C126.121 131.614 126.759 131.406 127.413 131.412C128.512 131.412 130.118 132.131 130.118 135.004V139.863H128.681V135.215C128.681 133.567 128.09 132.638 126.864 132.638C126.467 132.659 126.085 132.8 125.769 133.041C125.453 133.282 125.216 133.613 125.089 133.99C125.049 134.242 125.049 134.498 125.089 134.75V139.863H123.653V134.919C123.653 133.567 123.061 132.638 121.92 132.638C121.489 132.66 121.076 132.82 120.741 133.093C120.407 133.367 120.169 133.74 120.061 134.159C120.017 134.396 120.017 134.64 120.061 134.877V139.863H118.582L118.371 133.821Z" fill="white"/>
<path d="M133.412 135.975C133.353 136.675 133.574 137.37 134.025 137.908C134.476 138.446 135.121 138.784 135.821 138.849H136.243C137.026 138.88 137.805 138.736 138.525 138.426L138.821 139.525C137.936 139.883 136.986 140.055 136.032 140.032C135.513 140.084 134.989 140.03 134.492 139.874C133.995 139.717 133.535 139.461 133.14 139.121C132.744 138.781 132.422 138.365 132.193 137.896C131.964 137.428 131.832 136.918 131.806 136.398V135.849C131.735 134.822 132.065 133.807 132.727 133.019C133.39 132.23 134.332 131.73 135.356 131.623H135.99C136.448 131.629 136.901 131.725 137.322 131.907C137.744 132.089 138.124 132.352 138.443 132.683C138.761 133.013 139.011 133.403 139.177 133.83C139.343 134.258 139.423 134.714 139.412 135.172V135.51C139.412 135.722 139.412 135.975 139.412 136.187L133.412 135.975ZM137.638 134.919C137.699 134.644 137.705 134.36 137.656 134.082C137.606 133.805 137.501 133.54 137.348 133.304C137.194 133.068 136.995 132.865 136.762 132.707C136.528 132.549 136.266 132.439 135.99 132.384H135.694C135.077 132.425 134.497 132.695 134.067 133.14C133.638 133.585 133.389 134.174 133.37 134.792L137.638 134.919Z" fill="white"/>
<path d="M141.148 134.159C141.148 133.187 141.148 132.342 141.148 131.581H142.459V133.229C142.6 132.725 142.896 132.278 143.306 131.952C143.715 131.626 144.217 131.437 144.74 131.412H145.163V132.807C144.994 132.785 144.824 132.785 144.656 132.807C144.145 132.824 143.658 133.027 143.285 133.377C142.912 133.726 142.678 134.199 142.628 134.708C142.605 134.947 142.605 135.187 142.628 135.426V139.652H141.148V134.159Z" fill="white"/>
<path d="M152.424 139.567C151.683 139.906 150.872 140.066 150.058 140.031C149.538 140.072 149.015 140.008 148.52 139.844C148.026 139.681 147.568 139.42 147.175 139.078C146.782 138.736 146.46 138.319 146.23 137.852C145.999 137.384 145.864 136.875 145.832 136.355V135.806C145.83 134.728 146.24 133.69 146.979 132.904C147.717 132.119 148.728 131.645 149.804 131.58H150.269C150.987 131.557 151.7 131.717 152.339 132.045L152.001 133.186C151.468 132.904 150.872 132.758 150.269 132.764C149.891 132.758 149.517 132.827 149.166 132.966C148.815 133.105 148.495 133.312 148.225 133.575C147.954 133.838 147.737 134.152 147.588 134.498C147.438 134.845 147.359 135.217 147.353 135.595V135.89C147.282 136.635 147.509 137.378 147.984 137.956C148.46 138.534 149.144 138.9 149.888 138.975H150.226C150.869 139.017 151.511 138.886 152.086 138.595L152.424 139.567Z" fill="white"/>
<path d="M154.923 135.975C154.888 136.323 154.923 136.674 155.026 137.008C155.129 137.342 155.297 137.651 155.522 137.919C155.746 138.187 156.022 138.407 156.333 138.567C156.643 138.726 156.983 138.822 157.331 138.849H157.754C158.536 138.877 159.315 138.733 160.036 138.426L160.289 139.525C159.425 139.903 158.485 140.076 157.542 140.032C157.027 140.084 156.507 140.031 156.012 139.877C155.518 139.724 155.059 139.471 154.665 139.136C154.27 138.8 153.947 138.389 153.716 137.926C153.484 137.462 153.348 136.957 153.317 136.44C153.275 136.245 153.275 136.043 153.317 135.849C153.245 134.828 153.569 133.819 154.223 133.032C154.876 132.245 155.808 131.74 156.824 131.623H157.162C157.621 131.629 158.074 131.725 158.495 131.907C158.916 132.089 159.297 132.352 159.615 132.683C159.934 133.013 160.183 133.403 160.35 133.83C160.516 134.258 160.596 134.714 160.585 135.172V135.51C160.606 135.735 160.606 135.962 160.585 136.187L154.923 135.975ZM159.148 134.919C159.221 134.36 159.071 133.794 158.732 133.344C158.392 132.893 157.889 132.594 157.331 132.51H157.12C156.496 132.532 155.905 132.796 155.471 133.245C155.038 133.694 154.796 134.295 154.796 134.919H159.148Z" fill="white"/>
</g>
</g>
<defs>
<clipPath id="clip0_5535_2464">
<rect width="216" height="206.929" fill="white"/>
</clipPath>
<clipPath id="clip1_5535_2464">
<rect width="105" height="80.4744" fill="white" transform="translate(56 63)"/>
</clipPath>
</defs>
</svg>
