<svg width="231" height="127" viewBox="0 0 231 127" fill="none" xmlns="http://www.w3.org/2000/svg">
<g clip-path="url(#clip0_632_3490)">
<g clip-path="url(#clip1_632_3490)">
<path d="M26.8936 57.0923C28.2488 56.8443 29.0846 57.4846 29.8484 58.5587C31.0679 60.2756 32.4439 61.8813 33.7539 63.5335C33.9017 63.7192 34.0581 63.8989 34.3135 64.2056C34.3135 63.2598 34.3135 62.4618 34.3135 61.6626C34.3135 60.3465 34.3282 59.0304 34.3062 57.7143C34.2989 57.2695 34.4467 57.0948 34.8964 57.1033C36.9983 57.1388 36.5706 56.8553 36.5877 58.7335C36.6146 61.8105 36.6011 64.8887 36.5852 67.9669C36.584 68.2675 36.8052 68.7478 36.3066 68.8309C35.8117 68.9127 35.2801 69.0227 34.8671 68.4838C33.3139 66.4553 31.7302 64.45 30.1563 62.4374C29.8496 62.0451 29.5404 61.6553 29.1225 61.1249C29.1225 62.0451 29.1225 62.7868 29.1225 63.5274C29.1225 65.1062 29.109 66.6862 29.1298 68.2651C29.1359 68.7087 28.9917 68.892 28.5408 68.8785C27.9921 68.8614 27.4435 68.8834 26.8948 68.8895V57.0923H26.8936Z" fill="#EEEEEE"/>
<path d="M192.742 63.0018C192.742 61.2592 192.746 59.5178 192.74 57.7753C192.738 57.3952 192.77 57.097 193.28 57.1068C195.149 57.1447 197.023 57.0286 198.89 57.1704C201.565 57.3732 203.169 59.7011 202.426 62.2661C202.111 63.3549 201.423 64.0979 200.371 64.5121C199.733 64.7627 199.735 64.7578 200.207 65.2869C201.086 66.2706 201.964 67.2543 202.837 68.2441C202.953 68.3749 203.16 68.502 203.085 68.6987C202.995 68.9358 202.738 68.8576 202.546 68.8637C201.234 68.9085 200.151 68.4466 199.296 67.4779C198.731 66.8388 198.146 66.2168 197.62 65.5472C197.268 65.0987 196.867 64.9056 196.311 64.9802C196.132 65.0046 195.944 65.0022 195.763 64.9802C195.245 64.9203 195.031 65.1024 195.058 65.6547C195.099 66.5236 195.049 67.3973 195.076 68.2673C195.091 68.7232 194.91 68.8771 194.471 68.8698C192.401 68.8319 192.775 69.1386 192.746 67.1944C192.725 65.7977 192.742 64.3997 192.742 63.0018ZM197.131 59.2905V59.2881C196.603 59.2881 196.076 59.2966 195.548 59.2844C195.225 59.2771 195.06 59.3822 195.065 59.7341C195.078 60.6433 195.071 61.5537 195.069 62.4628C195.069 62.7182 195.129 62.8942 195.438 62.8918C196.513 62.882 197.593 62.937 198.664 62.8624C199.722 62.7891 200.32 62.0156 200.276 60.9549C200.235 59.981 199.529 59.3248 198.471 59.293C198.025 59.2795 197.577 59.2905 197.131 59.2905Z" fill="#EEEEEE"/>
<path d="M61.1757 63.0069C61.1757 61.2447 61.1879 59.4838 61.1671 57.7217C61.1622 57.2842 61.2869 57.0973 61.7464 57.107C63.5952 57.1486 65.4466 57.0337 67.2942 57.173C70.1146 57.3857 71.7643 60.0704 70.6877 62.6757C70.3175 63.5702 69.66 64.1641 68.7655 64.5148C68.1448 64.758 68.1411 64.7629 68.5932 65.2737C69.4816 66.2757 70.3773 67.2704 71.2645 68.2725C71.3794 68.4032 71.5847 68.5327 71.4894 68.7295C71.3977 68.9177 71.1668 68.8529 70.9896 68.8688C70.9492 68.8725 70.9077 68.8688 70.8674 68.87C69.5639 68.8887 68.4894 68.4081 67.6437 67.4281C67.1134 66.8146 66.5427 66.2317 66.0527 65.5865C65.6934 65.1136 65.2828 64.9083 64.7024 64.9816C64.4824 65.0097 64.2539 65.0036 64.0327 64.9828C63.5904 64.9425 63.4156 65.1063 63.4303 65.5682C63.4608 66.4786 63.4217 67.3902 63.4462 68.3006C63.4572 68.727 63.2897 68.8566 62.8804 68.8725C61.1732 68.9433 61.1732 68.9531 61.1732 67.2558C61.1732 65.8382 61.1732 64.4207 61.1732 63.0032L61.1757 63.0069ZM65.4661 59.2908C64.9382 59.2908 64.4103 59.2969 63.8836 59.2883C63.5879 59.2834 63.4352 59.3848 63.4401 59.7087C63.4523 60.6386 63.4462 61.5686 63.4425 62.4973C63.4425 62.7307 63.5024 62.8932 63.7773 62.8908C64.893 62.8822 66.0148 62.9433 67.1232 62.8504C68.1839 62.7612 68.7325 61.9779 68.6592 60.8928C68.5932 59.9323 67.9175 59.3225 66.8678 59.2932C66.401 59.2798 65.9342 59.2908 65.4673 59.2895L65.4661 59.2908Z" fill="#EEEEEE"/>
<path d="M161.099 62.9244C161.099 61.2429 161.125 59.5602 161.086 57.8787C161.071 57.2494 161.298 57.0686 161.898 57.0918C163.361 57.1492 164.826 57.0661 166.29 57.1541C170.45 57.4022 172.004 60.9753 171.552 63.924C171.067 67.0914 169.092 68.735 165.682 68.8572C164.361 68.9036 163.036 68.8548 161.714 68.8743C161.222 68.8816 161.088 68.6666 161.092 68.2132C161.108 66.4499 161.098 64.6877 161.098 62.9244H161.099ZM163.427 62.9855C163.427 63.9777 163.458 64.97 163.415 65.9598C163.39 66.5354 163.603 66.7089 164.15 66.6625C164.634 66.6222 165.126 66.66 165.613 66.6527C167.893 66.616 169.214 65.4405 169.326 63.181C169.422 61.2173 168.399 59.3733 165.843 59.3073C165.214 59.2914 164.582 59.3207 163.952 59.2975C163.552 59.2828 163.416 59.438 163.422 59.8278C163.438 60.88 163.428 61.9333 163.427 62.9855Z" fill="#EEEEEE"/>
<path d="M144.716 62.9421C144.716 61.1995 144.716 59.457 144.716 57.7132C144.716 57.4211 144.698 57.1107 145.122 57.1156C146.972 57.1352 148.834 56.9421 150.667 57.2537C154.02 57.8244 155.42 60.6912 155.208 63.4309C154.978 66.4138 153.29 68.3189 150.573 68.7417C148.779 69.0216 146.957 68.8456 145.147 68.8639C144.684 68.8688 144.715 68.5401 144.715 68.2297C144.715 66.4663 144.715 64.703 144.715 62.9409L144.716 62.9421ZM146.989 62.9898C146.989 64.0431 146.995 65.0965 146.985 66.1498C146.982 66.4981 147.092 66.6802 147.475 66.6631C148.348 66.6252 149.222 66.7144 150.093 66.5739C151.597 66.3307 152.675 65.259 152.883 63.7621C153.148 61.8472 152.396 60.2268 150.951 59.6183C150.747 59.5327 150.528 59.4728 150.312 59.4227C149.388 59.2077 148.447 59.3592 147.516 59.3054C147.116 59.2822 146.975 59.4386 146.982 59.8321C146.999 60.8855 146.988 61.9388 146.988 62.9922L146.989 62.9898Z" fill="#EEEEEE"/>
<path d="M54.9116 63.0298C54.8908 66.1361 53.1837 68.3748 50.3719 68.9809C47.6346 69.5712 44.9938 68.5459 43.7242 66.4001C42.3568 64.088 42.6427 60.8351 44.389 58.8273C45.9458 57.0371 48.8053 56.409 51.2407 57.3231C53.5112 58.1736 54.9299 60.3793 54.9116 63.0298ZM52.646 63.0775C52.6619 60.4123 51.0305 58.8713 48.391 59.0607C46.6533 59.1854 45.4533 60.4673 45.1539 62.5214C44.8582 64.5487 46.0753 66.5125 47.8704 66.9011C50.6138 67.4962 52.6301 65.8807 52.6472 63.0787L52.646 63.0775Z" fill="#EEEEEE"/>
<path d="M102.748 63.0576C102.748 64.7794 102.733 66.5024 102.758 68.2242C102.766 68.735 102.581 68.8975 102.086 68.8865C100.133 68.8401 100.466 69.1468 100.434 67.2564C100.421 66.4254 100.422 65.5945 100.434 64.7647C100.44 64.3749 100.34 64.1696 99.8878 64.1757C98.3627 64.1965 96.8364 64.1916 95.3102 64.1782C94.9387 64.1745 94.8116 64.3065 94.8165 64.6743C94.8324 65.8694 94.8079 67.0658 94.8287 68.2609C94.836 68.6874 94.7211 68.8743 94.2556 68.8914C92.5448 68.9525 92.546 68.9672 92.546 67.2686C92.546 64.1488 92.557 61.0279 92.5362 57.9081C92.5325 57.3729 92.6596 57.1663 93.2425 57.1761C94.8214 57.203 94.8214 57.1761 94.8214 58.7293C94.8214 59.6409 94.8397 60.5537 94.814 61.4641C94.8018 61.8979 94.9118 62.0788 95.3871 62.0702C96.8719 62.0433 98.3578 62.0458 99.8426 62.069C100.309 62.0763 100.441 61.893 100.435 61.4617C100.419 60.2458 100.441 59.0299 100.425 57.8152C100.419 57.3619 100.556 57.1798 101.052 57.1798C102.747 57.1798 102.747 57.1602 102.747 58.8686C102.747 60.2665 102.747 61.6645 102.747 63.0625L102.748 63.0576Z" fill="#EEEEEE"/>
<path d="M139.293 69.3416C139.004 69.4125 138.806 69.2377 138.594 69.1436C136.722 68.3053 134.85 67.467 132.992 66.6031C132.603 66.4222 132.287 66.4357 131.905 66.6116C130.064 67.4658 128.211 68.298 126.359 69.1302C126.142 69.228 125.938 69.3807 125.638 69.3611C125.594 69.1216 125.748 68.9481 125.844 68.7673C127.929 64.874 130.017 60.9819 132.108 57.0923C132.2 56.9212 132.249 56.6511 132.473 56.6523C132.658 56.6523 132.714 56.9041 132.799 57.0605C134.909 60.9868 137.016 64.9131 139.122 68.8418C139.204 68.9945 139.318 69.1424 139.295 69.3416H139.293ZM132.381 58.4401C132.343 58.4316 132.306 58.4218 132.268 58.4133C130.599 61.5269 128.928 64.6406 127.259 67.7542C128.866 67.1554 130.356 66.4626 131.861 65.8064C132.266 65.6304 132.393 65.3872 132.387 64.9705C132.368 63.6556 132.381 62.3395 132.381 61.0234C132.381 60.1619 132.381 59.3004 132.381 58.4389V58.4401Z" fill="#EEEEEE"/>
<path d="M82.8751 64.02C82.8751 65.4375 82.8604 66.855 82.8836 68.2713C82.891 68.7259 82.7187 68.8799 82.28 68.8726C80.2026 68.8396 80.6254 69.1121 80.6046 67.2901C80.5765 64.8204 80.5838 62.3495 80.6095 59.8799C80.6156 59.3483 80.4665 59.1638 79.9239 59.1906C79.093 59.2322 78.2571 59.1906 77.4237 59.2053C77.0632 59.2114 76.9117 59.0856 76.9203 58.7128C76.9618 56.8077 76.6343 57.1218 78.4502 57.1071C80.9101 57.0876 83.3712 57.1194 85.8311 57.09C86.4531 57.0827 86.6413 57.2904 86.6229 57.8966C86.5765 59.4338 86.7439 59.1772 85.3252 59.1992C84.6946 59.209 84.0641 59.22 83.4347 59.1943C83.0009 59.1772 82.869 59.3556 82.8726 59.7662C82.8885 61.1837 82.8787 62.6013 82.8775 64.0176L82.8751 64.02Z" fill="#EEEEEE"/>
<path d="M112.735 62.9871C112.735 61.2665 112.755 59.5459 112.724 57.8253C112.714 57.2571 112.923 57.086 113.467 57.0983C115.385 57.1386 115.056 56.8979 115.069 58.6526C115.089 61.1015 115.091 63.5516 115.062 65.9993C115.054 66.5736 115.255 66.724 115.799 66.7142C117.322 66.6861 118.847 66.7227 120.371 66.6958C120.909 66.6861 121.082 66.8743 121.067 67.4009C121.016 69.0604 121.293 68.8637 119.621 68.871C117.568 68.8808 115.515 68.86 113.462 68.882C112.913 68.8881 112.714 68.7109 112.724 68.1488C112.753 66.4295 112.735 64.7077 112.735 62.9871Z" fill="#EEEEEE"/>
<path d="M183.581 60.4126C182.341 60.4126 181.1 60.3992 179.861 60.4199C179.436 60.4273 179.285 60.2696 179.291 59.8554C179.318 58.0761 179.079 58.301 180.771 58.2924C182.885 58.2814 184.999 58.3034 187.113 58.2814C187.676 58.2753 187.905 58.4256 187.89 59.0342C187.856 60.4126 187.886 60.4138 186.508 60.4138C185.533 60.4138 184.556 60.4138 183.581 60.4138V60.4126Z" fill="#EEEEEE"/>
<path d="M178.675 68.7894C177.454 68.7894 176.233 68.7735 175.014 68.798C174.555 68.8065 174.405 68.6318 174.411 68.1955C174.436 66.3943 174.227 66.6717 175.917 66.6595C178.011 66.6448 180.107 66.6729 182.202 66.6448C182.793 66.6375 183.03 66.7853 183.012 67.4232C182.973 68.7882 183.006 68.7894 181.604 68.7894C180.628 68.7894 179.651 68.7894 178.675 68.7894Z" fill="#EEEEEE"/>
<path d="M181.178 62.521C182.418 62.521 183.657 62.5296 184.897 62.5161C185.275 62.5125 185.453 62.6224 185.444 63.0318C185.4 64.932 185.722 64.6143 183.908 64.6314C181.814 64.651 179.721 64.6216 177.628 64.6449C177.064 64.651 176.824 64.5007 176.841 63.8958C176.886 62.2717 176.7 62.5418 178.191 62.5222C179.187 62.5088 180.183 62.5198 181.179 62.521H181.178Z" fill="#EEEEEE"/>
</g>
</g>
<defs>
<clipPath id="clip0_632_3490">
<rect width="231" height="127" fill="white"/>
</clipPath>
<clipPath id="clip1_632_3490">
<rect width="176.457" height="25.1744" fill="white" transform="translate(26.772 50.4141)"/>
</clipPath>
</defs>
</svg>
