<svg width="146" height="74" viewBox="0 0 146 74" fill="none" xmlns="http://www.w3.org/2000/svg">
<path d="M0 0.933996C1.54727 0.479906 3.02728 0.967631 4.47364 1.4049C8.27455 2.58218 10.915 5.27311 13.2023 8.36766C15.8091 11.9163 17.7936 15.8349 20.165 19.5181C21.6114 21.7717 23.1586 23.9581 25.2273 25.7072C30.1886 29.8781 36.5796 29.7772 41.3727 25.4044C43.8282 23.1676 45.6109 20.4263 47.2423 17.5672C47.3264 16.2554 47.8477 15.1454 48.5709 14.069C48.9241 13.5476 49.3277 13.1776 49.9332 13.0599C51.5141 10.5708 53.0614 8.06493 55.0796 5.89538C61.4705 -0.94962 70.1318 -1.06735 76.7414 5.57583C78.81 7.66129 80.2732 10.1672 81.9214 12.5554C83.7545 13.3458 84.2255 14.9436 84.4273 16.7095C86.3446 20.2581 88.4973 23.6217 91.6927 26.1949C93.4586 27.6076 95.4768 28.5158 97.7641 28.6672C98.6218 28.7176 99.1769 28.9531 99.0928 29.979C99.0087 31.1058 98.2014 30.8703 97.5623 30.8199C93.24 30.4163 89.9941 28.1122 87.2696 24.8999C85.7728 23.134 84.5619 21.1663 83.2669 19.249C81.8037 18.8622 81.5009 17.4831 80.8955 16.4067C80.6264 15.9358 80.4077 15.4313 79.9873 15.0781C78.2718 12.2358 76.5732 9.39357 74.1682 7.05584C69.375 2.3972 62.7318 2.43084 57.9723 7.05584C55.7355 9.2422 54.0537 11.7986 52.4728 14.4558C52.1868 14.9267 51.9009 15.3977 51.5477 15.8349C50.9927 16.5749 50.7573 17.4831 50.2359 18.2399C49.8827 18.7445 49.6641 19.434 48.8568 19.4172C47.0404 21.7885 45.5437 24.3953 43.3741 26.5144C37.4205 32.3672 28.8937 32.384 22.9232 26.5144C20.1314 23.7563 18.1468 20.4431 16.1623 17.1131C13.9423 13.3963 11.8905 9.5449 8.72864 6.50081C6.30682 4.16308 3.44774 2.83447 0.0168346 2.90175V0.967614L0 0.933996Z" fill="#8C8C8C"/>
<path d="M84.4082 16.7094C83.5673 15.3303 82.7433 13.9344 81.9023 12.5553C83.5337 10.5035 84.9128 8.26672 86.561 6.2149C92.3464 -1.03374 102.858 -1.72333 109.467 4.75167C113.016 8.23304 115.32 12.5554 117.86 16.7263C119.676 19.7199 121.459 22.7471 124.082 25.1521C125.764 26.6826 127.648 27.759 129.935 28.0953C131.735 28.3644 132.592 30.5003 131.55 31.9972C131.196 32.5017 130.692 32.4849 130.187 32.4176C126.05 31.9299 122.72 29.9285 119.928 26.9012C116.413 23.1003 114.16 18.4585 111.435 14.1362C109.736 11.4453 108.004 8.80488 105.448 6.76988C101.311 3.49033 95.1887 3.79305 91.3373 7.39214C88.4446 10.083 86.5273 13.4467 84.4251 16.6926L84.4082 16.7094Z" fill="#E6E6E6"/>
<path d="M46.6039 51.9432C47.5794 51.0518 48.1848 50.3959 48.8744 49.8746C53.2471 46.6118 58.0235 45.9055 62.9512 48.2937C67.8621 50.6818 70.4017 54.7686 70.5026 60.2514C70.5699 63.985 70.5362 67.7186 70.5026 71.4523C70.5026 72.3605 70.9399 73.521 69.1908 73.5378C67.4921 73.5378 67.7948 72.4782 67.778 71.5027C67.778 67.7691 67.778 64.0355 67.778 60.3018C67.7444 54.3986 63.1026 49.74 57.233 49.6895C51.5821 49.6391 46.8057 54.2473 46.6544 59.9991C46.5535 63.9682 46.5703 67.9373 46.6544 71.8896C46.6712 73.2014 46.2003 73.5882 44.9558 73.5041C44.2158 73.4368 43.8289 73.2014 43.8794 72.4277C43.8794 72.2427 43.8794 72.0577 43.8794 71.8727C43.8794 64.0859 43.8794 56.2823 43.8794 48.4955C43.8794 47.4696 43.9971 46.8809 45.2753 46.8809C46.5871 46.8809 46.688 47.5536 46.6376 48.5291C46.604 49.5214 46.6376 50.5305 46.6376 51.9264L46.6039 51.9432Z" fill="#8C8C8C"/>
<path d="M48.8398 19.4001C49.4285 18.0546 50.1853 16.7764 51.0598 15.5992C51.9344 15.1955 52.2034 15.8851 52.5398 16.4065C54.1039 18.8451 55.5671 21.351 57.5012 23.5374C61.8067 28.3978 68.2312 29.1883 73.1925 24.3278C75.7657 21.8051 77.5149 18.7274 79.3817 15.7169C79.6676 15.2628 79.8526 14.691 80.5589 14.691C81.4671 16.2046 82.3585 17.7014 83.2667 19.2151C81.6521 20.9473 80.6598 23.1001 79.1966 24.9501C77.7335 26.8001 76.1525 28.5324 74.1848 29.861C68.2312 33.8806 60.6462 33.2583 55.3316 28.2633C52.6407 25.7237 50.4376 22.7637 48.8398 19.4001Z" fill="#E6E6E6"/>
<path d="M103.583 54.9206C103.583 56.8043 103.583 58.7047 103.583 60.5884C103.516 67.3324 97.9991 73.1347 91.3223 73.471C83.9896 73.841 77.8846 68.9133 77.1278 61.9338C76.64 57.292 77.0269 52.6334 76.9259 47.9747C76.8923 46.8143 77.7164 46.9825 78.4564 46.932C79.331 46.8815 79.6842 47.2179 79.6842 48.1261C79.6505 52.1456 79.6169 56.1484 79.6842 60.1679C79.8019 66.2897 84.5446 70.8475 90.5487 70.7465C96.166 70.6456 100.741 66.1215 100.825 60.4706C100.892 56.4679 100.875 52.4483 100.825 48.4288C100.825 47.302 101.195 46.8479 102.355 46.9152C103.246 46.9488 103.583 47.2515 103.583 48.1429C103.549 50.3965 103.583 52.667 103.583 54.9206Z" fill="#8C8C8C"/>
<path d="M49.9348 13.0596C49.0435 14.5564 48.1353 16.0701 47.2439 17.5669C46.1339 14.4387 44.1998 11.7982 42.0976 9.29233C40.3989 7.25733 38.4144 5.50824 35.7403 4.81869C35.3367 4.71778 34.933 4.61687 34.5294 4.54959C33.9239 4.43187 33.0662 4.75144 32.898 3.89371C32.6962 2.8678 32.5112 1.72416 33.0158 0.782337C33.3858 0.0927919 34.2771 0.361897 34.933 0.42917C37.7753 0.748715 40.2139 1.94277 42.4171 3.75914C44.9903 5.86141 46.9076 8.5019 48.6735 11.2601C49.0771 11.8824 49.5144 12.471 49.9348 13.0764V13.0596Z" fill="#E6E6E6"/>
<path d="M143.105 48.6471C142.768 49.118 143.155 49.7235 142.567 50.2281C142.298 49.3199 142.432 48.4621 142.432 47.638C142.432 47.3689 142.483 47.0662 142.836 47.0326C143.172 46.999 143.307 47.2681 143.424 47.5203C143.643 47.9576 143.845 48.4117 144.047 48.8658C144.652 48.5967 144.618 48.0753 144.837 47.6885C145.005 47.3689 145.123 46.9317 145.594 47.0326C146.065 47.1503 145.998 47.6044 145.981 47.9576C145.964 48.6639 146.115 49.404 145.762 50.2281C145.207 49.6562 145.577 49.0003 145.308 48.4622C144.669 48.849 144.871 49.9926 144.248 50.0767C143.458 50.1944 143.71 49.0508 143.105 48.6304V48.6471Z" fill="#959595"/>
<path d="M139.066 47.1334C140.21 46.8643 140.883 46.8475 141.74 47.0998C140.429 47.8566 141.27 49.202 140.664 50.2616C139.739 49.3534 140.967 47.7221 139.066 47.1334Z" fill="#949494"/>
<path fill-rule="evenodd" clip-rule="evenodd" d="M132.863 69.217C133.071 69.023 133.294 68.8162 133.536 68.5936V68.6104C133.536 69.043 133.543 69.4496 133.55 69.8379C133.564 70.6572 133.576 71.3951 133.519 72.1254C133.452 73.2522 133.94 73.5381 134.982 73.5381C136.008 73.5381 136.328 73.1681 136.328 72.159C136.297 70.2708 136.301 68.3825 136.306 66.4958C136.311 64.2321 136.316 61.9701 136.261 59.7136C136.076 52.734 130.29 47.0831 123.294 46.9318C117.374 46.7972 112.076 50.514 110.276 56.0472C108.41 61.799 110.529 67.9209 115.507 71.2677C120.435 74.564 126.91 74.2445 131.501 70.4435C131.94 70.0756 132.363 69.6825 132.863 69.217ZM112.345 60.2517C112.345 66.1045 117.02 70.7799 122.907 70.7799C128.81 70.7967 133.536 66.1381 133.536 60.3022C133.536 54.4495 128.843 49.6899 123.024 49.6563C117.104 49.6227 112.345 54.3485 112.345 60.2517Z" fill="#8C8C8C"/>
</svg>
