<?xml version="1.0" encoding="utf-8"?>
<!-- Generator: Adobe Illustrator 24.0.1, SVG Export Plug-In . SVG Version: 6.00 Build 0)  -->
<svg version="1.1" id="Layer_1" xmlns="http://www.w3.org/2000/svg" xmlns:xlink="http://www.w3.org/1999/xlink" x="0px" y="0px"
	 viewBox="0 0 125.7 47.6" style="enable-background:new 0 0 125.7 47.6;" xml:space="preserve">
<style type="text/css">
	.st0{fill:#FFFDFD;}
</style>
<g>
	<path class="st0" d="M0,47.5V0.1h11.5v4.2H5.4v39h6.1v4.2L0,47.5z"/>
	<path class="st0" d="M39.1,23.3c0,8.6-5.2,13.6-12.3,13.6s-11.8-5.5-11.8-13.1c0-7.9,5-13.5,12.2-13.5S39.1,16.2,39.1,23.3z
		 M19.9,23.7c0,5.2,2.6,9.4,7.1,9.4s7.1-4.2,7.1-9.6c0-4.9-2.4-9.4-7.1-9.4S19.8,18.5,19.9,23.7L19.9,23.7z"/>
	<path class="st0" d="M43.1,11.2c2.3-0.4,4.5-0.6,6.8-0.6c2.6-0.3,5.2,0.3,7.4,1.6c0.8,0.5,1.5,1.2,2,2c0.5,0.8,0.7,1.8,0.7,2.8
		c0,1.3-0.5,2.5-1.2,3.5s-1.8,1.7-3,2.1c1.5,0.3,2.8,1.1,3.7,2.3c0.9,1.2,1.5,2.6,1.5,4.1c0,1-0.2,2-0.6,2.9
		c-0.4,0.9-1.1,1.7-1.9,2.4c-1.8,1.6-4.9,2.4-9.6,2.4c-1.9,0-3.9-0.1-5.8-0.3L43.1,11.2z M47.8,21.3h2.4c3.2,0,5.1-1.5,5.1-3.7
		c0-2.2-1.8-3.5-4.8-3.5c-0.9,0-1.8,0-2.7,0.2L47.8,21.3z M47.8,33.2c0.8,0.1,1.7,0.1,2.5,0.1c3,0,5.7-1.2,5.7-4.2s-2.6-4.2-5.8-4.2
		h-2.3V33.2z"/>
	<path class="st0" d="M70.2,10.8h4.7v16.7c0,7.1-3.4,9.5-8.5,9.5c-1.4,0-2.7-0.2-4-0.7l0.6-3.8c0.9,0.3,1.9,0.5,2.9,0.5
		c2.7,0,4.2-1.2,4.2-5.7L70.2,10.8z"/>
	<path class="st0" d="M88.2,24.8V28h-9.8v-3.3H88.2z"/>
	<path class="st0" d="M111,35.8c-2.1,0.8-4.4,1.2-6.6,1.1c-8.2,0-13.1-5.1-13.1-12.9c-0.1-1.7,0.2-3.4,0.7-5
		c0.6-1.6,1.4-3.1,2.6-4.3c1.1-1.3,2.5-2.3,4-3c1.5-0.7,3.2-1.2,4.9-1.2c0.5,0,1,0,1.5,0c2.2-0.1,4.3,0.3,6.4,1.1l-1,3.7
		c-1.6-0.7-3.3-1-5-1c-5.2,0-9,3.3-9,9.5c0,5.6,3.3,9.3,9,9.3c1.7,0,3.5-0.3,5.1-1L111,35.8z"/>
	<path class="st0" d="M125.7,0v47.5h-11.5v-4.2h6.1v-39h-6.1V0H125.7z"/>
</g>
</svg>
