<?xml version="1.0" encoding="utf-8"?>
<!-- Generator: Adobe Illustrator 24.0.1, SVG Export Plug-In . SVG Version: 6.00 Build 0)  -->
<svg version="1.1" id="Layer_1" xmlns="http://www.w3.org/2000/svg" xmlns:xlink="http://www.w3.org/1999/xlink" x="0px" y="0px"
	 viewBox="0 0 139.8 44.5" style="enable-background:new 0 0 139.8 44.5;" xml:space="preserve">
<style type="text/css">
	.st0{fill:#FFFFFF;}
</style>
<g>
	<path class="st0" d="M16.9,10.7c2.3,0,4.4,0.5,6.4,1.4c2,0.9,3.8,2.1,5.3,3.7c1.5,1.5,2.8,3.3,3.7,5.4c0.9,2,1.4,4.2,1.4,6.6
		c0,2.3-0.4,4.5-1.3,6.5c-0.9,2-2.1,3.8-3.6,5.3c-1.5,1.5-3.3,2.7-5.3,3.6c-2,0.9-4.3,1.3-6.6,1.3c-2.3,0-4.5-0.4-6.6-1.3
		c-2-0.8-3.8-2-5.4-3.5c-1.5-1.5-2.7-3.3-3.6-5.3c-0.9-2-1.3-4.3-1.3-6.7c0-2.3,0.4-4.5,1.3-6.5c0.9-2,2.1-3.8,3.6-5.3
		c1.5-1.5,3.3-2.7,5.4-3.6C12.3,11.3,14.6,10.8,16.9,10.7z M16.9,17.7c-1.3,0-2.6,0.3-3.9,0.8c-1.2,0.5-2.3,1.2-3.2,2.1
		c-0.9,0.9-1.6,2-2.2,3.2c-0.5,1.2-0.8,2.5-0.8,4c0,1.3,0.3,2.6,0.8,3.9c0.5,1.2,1.3,2.3,2.2,3.2c0.9,0.9,2,1.7,3.2,2.2
		c1.2,0.5,2.5,0.8,3.9,0.8c1.3,0,2.6-0.3,3.9-0.8c1.2-0.5,2.3-1.3,3.2-2.2c0.9-0.9,1.6-2,2.2-3.2c0.5-1.2,0.8-2.5,0.8-3.9
		c-0.1-2.7-1.1-5.1-2.9-6.9C22.2,18.9,19.8,17.8,16.9,17.7L16.9,17.7L16.9,17.7z"/>
	<path class="st0" d="M65.5,0C66.2,0,67,0.3,67.7,1c0.7,0.7,1,1.4,1,2.2v24.5c0,2.3-0.5,4.4-1.4,6.5c-0.9,2-2.2,3.8-3.8,5.4
		c-1.6,1.5-3.4,2.8-5.4,3.7c-2,0.9-4.1,1.4-6.4,1.4c-2.3,0-4.4-0.4-6.5-1.3c-2-0.9-3.8-2.1-5.4-3.6c-1.5-1.5-2.8-3.3-3.7-5.4
		c-0.9-2-1.4-4.2-1.4-6.6c0-2.5,0.4-4.7,1.2-6.6c0.8-1.9,2-3.7,3.7-5.4v0.1c1.7-1.6,3.6-2.9,5.7-3.7c2.1-0.8,4.2-1.3,6.4-1.3
		c1.3,0,2.8,0.2,4.6,0.6c1.8,0.4,3.6,1.2,5.3,2.4V3.5c0-0.5,0.1-0.9,0.3-1.3c0.2-0.4,0.4-0.8,0.7-1.2c0.3-0.3,0.7-0.6,1.1-0.8
		C64.3,0,64.8,0,65.2,0L65.5,0L65.5,0z M61.8,27.6c0-1.3-0.3-2.5-0.8-3.7c-0.5-1.2-1.3-2.3-2.2-3.2c-0.9-1-2-1.7-3.2-2.3
		c-1.2-0.6-2.5-0.8-3.8-0.8c-1.3,0-2.6,0.3-3.9,0.8c-1.2,0.5-2.3,1.3-3.2,2.2c-0.9,0.9-1.6,2-2.2,3.2c-0.5,1.2-0.8,2.5-0.8,3.9
		c0,1.4,0.3,2.7,0.8,3.9c0.5,1.2,1.3,2.3,2.2,3.2c0.9,0.9,2,1.6,3.2,2.2c1.2,0.5,2.5,0.8,3.9,0.8c1.3,0,2.6-0.3,3.8-0.8
		c1.2-0.5,2.3-1.3,3.2-2.2c0.9-0.9,1.7-2,2.2-3.2C61.6,30.3,61.8,29,61.8,27.6z"/>
	<path class="st0" d="M87.6,10.7c2.3,0,4.4,0.5,6.4,1.4c2,0.9,3.8,2.1,5.3,3.7c1.5,1.5,2.8,3.3,3.7,5.4c0.9,2,1.4,4.2,1.4,6.6
		c0,2.3-0.4,4.5-1.3,6.5c-0.9,2-2.1,3.8-3.6,5.3c-1.5,1.5-3.3,2.7-5.3,3.6c-2,0.9-4.3,1.3-6.6,1.3c-2.3,0-4.5-0.4-6.6-1.3
		c-2-0.8-3.8-2-5.4-3.5c-1.5-1.5-2.7-3.3-3.6-5.3c-0.9-2-1.3-4.3-1.3-6.7c0-2.3,0.4-4.5,1.3-6.5c0.9-2,2.1-3.8,3.6-5.3
		c1.5-1.5,3.3-2.7,5.4-3.6C83,11.3,85.3,10.8,87.6,10.7z M87.6,17.7c-1.3,0-2.6,0.3-3.9,0.8c-1.2,0.5-2.3,1.2-3.2,2.1
		c-0.9,0.9-1.6,2-2.2,3.2c-0.5,1.2-0.8,2.5-0.8,4c0,1.3,0.3,2.6,0.8,3.9c0.5,1.2,1.3,2.3,2.2,3.2c0.9,0.9,2,1.7,3.2,2.2
		c1.2,0.5,2.5,0.8,3.9,0.8c1.3,0,2.6-0.3,3.9-0.8c1.2-0.5,2.3-1.3,3.2-2.2c0.9-0.9,1.6-2,2.2-3.2c0.5-1.2,0.8-2.5,0.8-3.9
		c-0.1-2.7-1.1-5.1-2.9-6.9C92.9,18.9,90.5,17.8,87.6,17.7L87.6,17.7L87.6,17.7z"/>
	<path class="st0" d="M123,10.7c2.3,0,4.4,0.5,6.4,1.4c2,0.9,3.8,2.1,5.3,3.7c1.5,1.5,2.8,3.3,3.7,5.4c0.9,2,1.4,4.2,1.4,6.6
		c0,2.3-0.4,4.5-1.3,6.5c-0.9,2-2.1,3.8-3.6,5.3c-1.5,1.5-3.3,2.7-5.3,3.6c-2,0.9-4.3,1.3-6.6,1.3c-2.3,0-4.5-0.4-6.6-1.3
		c-2-0.8-3.8-2-5.4-3.5c-1.5-1.5-2.7-3.3-3.6-5.3c-0.9-2-1.3-4.3-1.3-6.7c0-2.3,0.4-4.5,1.3-6.5c0.9-2,2.1-3.8,3.6-5.3
		c1.5-1.5,3.3-2.7,5.4-3.6C118.4,11.3,120.7,10.8,123,10.7z M123,17.7c-1.3,0-2.6,0.3-3.9,0.8c-1.2,0.5-2.3,1.2-3.2,2.1
		c-0.9,0.9-1.6,2-2.2,3.2c-0.5,1.2-0.8,2.5-0.8,4c0,1.3,0.3,2.6,0.8,3.9c0.5,1.2,1.3,2.3,2.2,3.2c0.9,0.9,2,1.7,3.2,2.2
		c1.2,0.5,2.5,0.8,3.9,0.8c1.3,0,2.6-0.3,3.9-0.8c1.2-0.5,2.3-1.3,3.2-2.2c0.9-0.9,1.6-2,2.2-3.2c0.5-1.2,0.8-2.5,0.8-3.9
		c-0.1-2.7-1.1-5.1-2.9-6.9C128.3,18.9,125.9,17.8,123,17.7L123,17.7L123,17.7z"/>
</g>
</svg>
