<svg width="216" height="207" viewBox="0 0 216 207" fill="none" xmlns="http://www.w3.org/2000/svg">
<g clip-path="url(#clip0_5535_2672)">
<rect width="216" height="206.929" fill="#151517"/>
<g clip-path="url(#clip1_5535_2672)">
<path d="M160.406 125.255C151.277 125.255 143.898 117.876 143.898 108.747C143.898 99.6176 151.277 92.2384 160.406 92.2384C169.536 92.2384 176.915 99.6176 176.915 108.747C176.915 117.876 169.536 125.255 160.406 125.255ZM160.406 118.397C165.752 118.397 170.103 114.045 170.103 108.7C170.103 103.354 165.752 99.0026 160.406 99.0026C155.061 99.0026 150.709 103.354 150.709 108.7C150.709 114.045 155.061 118.397 160.406 118.397ZM125.828 125.255C116.699 125.255 109.32 117.876 109.32 108.747C109.32 99.6176 116.699 92.2384 125.828 92.2384C134.958 92.2384 142.337 99.6176 142.337 108.747C142.337 117.876 134.958 125.255 125.828 125.255ZM125.828 118.397C131.174 118.397 135.525 114.045 135.525 108.7C135.525 103.354 131.174 99.0026 125.828 99.0026C120.483 99.0026 116.131 103.354 116.131 108.7C116.131 114.045 120.483 118.397 125.828 118.397ZM107.806 108.51C107.806 117.734 100.427 125.255 91.2976 125.255C82.1682 125.255 74.7891 117.782 74.7891 108.51C74.7891 99.2865 81.506 92.1911 91.2976 92.1911C94.8926 92.1911 98.2511 92.9479 100.995 94.9346V85.3795C100.995 83.5347 102.603 82.0684 104.4 82.0684C106.198 82.0684 107.806 83.582 107.806 85.3795V108.51ZM91.2503 118.397C96.5955 118.397 100.947 114.045 100.947 108.7C100.947 103.354 96.5955 99.0026 91.2503 99.0026C85.9051 99.0026 81.5533 103.354 81.5533 108.7C81.5533 114.045 85.9051 118.397 91.2503 118.397Z" fill="white"/>
<path d="M56.6726 125.254C47.5432 125.254 40.1641 117.827 40.1641 108.698C40.1641 99.5686 47.5432 92.1895 56.6726 92.1895C65.802 92.1895 73.1812 99.5686 73.1812 108.698C73.1812 117.827 65.802 125.254 56.6726 125.254ZM56.6726 118.395C62.0178 118.395 66.3696 114.043 66.3696 108.698C66.3696 103.353 62.0178 99.0483 56.6726 99.0483C51.3274 99.0483 46.9756 103.4 46.9756 108.745C46.9756 114.09 51.3274 118.395 56.6726 118.395Z" fill="white"/>
</g>
</g>
<defs>
<clipPath id="clip0_5535_2672">
<rect width="216" height="206.929" fill="white"/>
</clipPath>
<clipPath id="clip1_5535_2672">
<rect width="137" height="43.3302" fill="white" transform="translate(40 82)"/>
</clipPath>
</defs>
</svg>
