<svg width="216" height="207" viewBox="0 0 216 207" fill="none" xmlns="http://www.w3.org/2000/svg">
<g clip-path="url(#clip0_5535_2694)">
<rect width="216" height="206.929" fill="#151517"/>
<g clip-path="url(#clip1_5535_2694)">
<path d="M89.8253 103.071C89.8253 105.099 89.454 106.898 88.7113 108.441C87.9686 109.984 86.8831 111.155 85.512 111.983C84.1123 112.812 82.5126 113.24 80.6844 113.24C78.9419 113.24 77.3708 112.84 75.9997 112.04C74.6285 111.24 73.5716 110.098 72.8289 108.612C72.0862 107.127 71.7148 105.442 71.7148 103.556C71.7148 101.528 72.0862 99.7571 72.8575 98.2146C73.6287 96.672 74.7142 95.5008 76.1139 94.6724C77.5136 93.844 79.1704 93.4441 81.0272 93.4441C82.7411 93.4441 84.2551 93.844 85.5977 94.6724C86.9402 95.4723 87.9972 96.6149 88.7113 98.1003C89.454 99.5 89.8253 101.185 89.8253 103.071ZM87.483 103.356C87.483 100.871 86.9117 98.9287 85.7405 97.529C84.5693 96.1293 82.9411 95.4437 80.8558 95.4437C79.5418 95.4437 78.3706 95.7865 77.3422 96.4435C76.3139 97.1005 75.4855 98.0432 74.9142 99.2715C74.3429 100.5 74.0572 101.842 74.0572 103.356C74.0572 104.899 74.3429 106.241 74.8856 107.441C75.4284 108.641 76.2282 109.555 77.228 110.212C78.2563 110.869 79.399 111.183 80.6844 111.183C82.7982 111.183 84.455 110.498 85.6834 109.098C86.8831 107.727 87.483 105.784 87.483 103.356ZM99.4805 94.5582C99.052 94.3297 98.5664 94.1868 98.0236 94.1868C96.4811 94.1868 95.7098 95.1581 95.7098 97.0719V99.1858H98.9092V101.043H95.7098V112.869H93.5103V101.071H91.1965V99.2144H93.5103V96.9862C93.5103 95.5865 93.9102 94.4725 94.7386 93.6155C95.567 92.7586 96.5954 92.3301 97.8808 92.3301C98.5378 92.3301 99.0806 92.4158 99.4805 92.5872V94.5582Z" fill="white"/>
<path d="M107.021 94.5584C106.593 94.3013 106.107 94.187 105.564 94.187C104.022 94.187 103.279 95.1582 103.279 97.1007V99.2145H106.478V101.071H103.279V112.897H101.079V101.071H98.7657V99.2145H101.079V96.9864C101.079 95.5867 101.479 94.4727 102.308 93.6157C103.136 92.7587 104.165 92.3303 105.421 92.3303C106.078 92.3303 106.621 92.416 107.021 92.5873V94.5584ZM111.049 94.3013C111.049 94.7012 110.906 95.044 110.62 95.3296C110.335 95.6153 109.992 95.7295 109.592 95.7295C109.192 95.7295 108.849 95.6153 108.592 95.3296C108.307 95.0725 108.164 94.7298 108.164 94.3013C108.164 93.9299 108.307 93.5871 108.564 93.3015C108.821 93.0158 109.163 92.873 109.592 92.873C109.992 92.873 110.335 93.0158 110.62 93.3015C110.935 93.5586 111.049 93.9014 111.049 94.3013ZM110.677 112.897H108.506V99.2145H110.706V112.897H110.677ZM123.189 112.269C122.132 112.897 120.875 113.24 119.418 113.24C118.162 113.24 117.048 112.955 116.048 112.383C115.048 111.812 114.277 110.984 113.734 109.955C113.191 108.898 112.906 107.727 112.906 106.413C112.906 104.156 113.563 102.328 114.848 100.957C116.133 99.5859 117.876 98.9003 120.018 98.9003C121.218 98.9003 122.275 99.1288 123.189 99.5859V101.843C122.161 101.128 121.075 100.786 119.933 100.786C118.504 100.786 117.362 101.3 116.476 102.3C115.591 103.299 115.134 104.613 115.134 106.213C115.134 107.813 115.562 109.07 116.391 109.984C117.219 110.898 118.362 111.383 119.79 111.383C120.99 111.383 122.104 110.984 123.161 110.212V112.269H123.189ZM136.672 106.584H127.017C127.045 108.127 127.445 109.298 128.245 110.127C129.016 110.955 130.102 111.355 131.473 111.355C133.016 111.355 134.444 110.869 135.701 109.869V111.926C134.501 112.812 132.93 113.24 130.93 113.24C128.988 113.24 127.445 112.612 126.36 111.355C125.274 110.098 124.703 108.355 124.703 106.127C124.703 104.785 124.989 103.528 125.531 102.414C126.074 101.3 126.845 100.443 127.788 99.8144C128.759 99.186 129.816 98.9003 130.987 98.9003C132.759 98.9003 134.13 99.4716 135.129 100.643C136.129 101.785 136.615 103.414 136.615 105.499V106.584H136.672ZM134.415 104.728C134.387 103.471 134.101 102.471 133.501 101.785C132.901 101.1 132.073 100.729 130.987 100.729C129.959 100.729 129.102 101.1 128.388 101.814C127.674 102.557 127.217 103.499 127.017 104.699H134.415V104.728ZM153.354 107.47C153.354 109.184 152.726 110.584 151.497 111.641C150.269 112.697 148.641 113.212 146.613 113.212C144.785 113.212 143.328 112.869 142.242 112.183V109.841C143.528 110.841 145.013 111.355 146.67 111.355C148.013 111.355 149.098 111.012 149.898 110.355C150.698 109.698 151.098 108.784 151.098 107.67C151.098 105.156 149.327 103.899 145.756 103.899H144.156V102.043H145.67C148.812 102.043 150.412 100.871 150.412 98.5004C150.412 96.3294 149.212 95.2439 146.813 95.2439C145.47 95.2439 144.185 95.701 143.014 96.6151V94.5012C144.242 93.7585 145.699 93.4157 147.355 93.4157C148.955 93.4157 150.212 93.8442 151.212 94.6726C152.183 95.501 152.669 96.6151 152.669 97.9862C152.669 100.5 151.383 102.128 148.841 102.842V102.899C150.183 103.042 151.298 103.528 152.126 104.356C152.926 105.185 153.354 106.213 153.354 107.47ZM167.751 106.813C167.751 108.013 167.494 109.127 166.98 110.098C166.466 111.098 165.752 111.869 164.809 112.412C163.895 112.955 162.867 113.212 161.724 113.212C159.81 113.212 158.296 112.44 157.211 110.898C156.125 109.384 155.582 107.213 155.582 104.442C155.582 102.242 155.897 100.329 156.554 98.6432C157.211 96.9579 158.125 95.6724 159.296 94.7583C160.496 93.8442 161.838 93.3872 163.409 93.3872C164.723 93.3872 165.78 93.5586 166.58 93.9299V96.0152C165.58 95.501 164.552 95.2439 163.466 95.2439C161.781 95.2439 160.41 96.0152 159.382 97.5292C158.353 99.0431 157.839 101.071 157.839 103.614H157.896C158.782 101.814 160.239 100.9 162.267 100.9C163.923 100.9 165.237 101.443 166.237 102.528C167.266 103.614 167.751 105.042 167.751 106.813ZM165.523 107.099C165.523 105.756 165.18 104.699 164.552 103.928C163.895 103.157 162.981 102.757 161.81 102.757C160.753 102.757 159.839 103.128 159.124 103.899C158.382 104.642 158.039 105.556 158.039 106.642C158.039 107.984 158.41 109.098 159.124 110.012C159.839 110.926 160.753 111.355 161.867 111.355C162.952 111.355 163.838 110.955 164.523 110.184C165.18 109.384 165.523 108.355 165.523 107.099ZM180.663 107.041C180.663 108.898 180.034 110.412 178.806 111.526C177.578 112.64 175.921 113.212 173.864 113.212C172.093 113.212 170.751 112.955 169.894 112.412V110.098C171.179 110.926 172.522 111.355 173.893 111.355C175.235 111.355 176.349 110.984 177.178 110.212C178.006 109.47 178.435 108.441 178.435 107.156C178.435 105.899 178.006 104.928 177.178 104.213C176.349 103.499 175.121 103.157 173.521 103.157C172.236 103.157 171.179 103.214 170.265 103.328L170.922 93.73H179.777V95.701H172.807L172.407 101.328L174.178 101.271C176.178 101.271 177.749 101.785 178.92 102.785C180.063 103.785 180.663 105.185 180.663 107.041ZM62.059 116.611V90.045L52.5182 87.3027L35.436 93.73H35.3789V112.926L41.2063 110.641V95.0154L52.5182 92.3303V115.297L35.3789 112.926L52.5182 119.239L62.0305 116.611H62.059Z" fill="white"/>
</g>
</g>
<defs>
<clipPath id="clip0_5535_2694">
<rect width="216" height="206.929" fill="white"/>
</clipPath>
<clipPath id="clip1_5535_2694">
<rect width="146" height="32.2949" fill="white" transform="translate(35 87)"/>
</clipPath>
</defs>
</svg>
