<svg width="100" height="100" viewBox="0 0 100 100" fill="none" xmlns="http://www.w3.org/2000/svg">
<g clip-path="url(#clip0_514_4844)">
<path d="M52.6484 99.1281C49.4119 98.216 47.2535 96.2393 46.5289 92.8791C46.4227 92.3825 46.4149 91.8588 46.4149 91.3468C46.4091 70.8106 46.4053 50.2763 46.4149 29.7401C46.4149 25.292 49.779 21.9299 54.2252 21.926C64.4778 21.9144 74.7285 21.9144 84.9812 21.926C89.4853 21.9299 92.8223 25.2824 92.8262 29.8039C92.8359 45.0689 92.8301 60.3338 92.8301 75.5988C92.8301 75.8558 92.8417 76.1128 92.8301 76.3697C92.7953 77.0538 93.089 77.0576 93.5759 76.7562C95.0116 75.8654 95.6357 74.5167 95.769 72.8917C95.7922 72.6037 95.7806 72.3139 95.7806 72.0241C95.7806 51.0067 95.7806 29.9894 95.7864 8.97013C95.7864 8.22427 95.7304 7.49001 95.5314 6.777C95.0097 4.91622 93.3421 3.68537 91.1876 3.55204C90.8031 3.52885 90.4166 3.54238 90.0302 3.54238C67.4052 3.54238 44.7802 3.54238 22.1572 3.54238C21.8036 3.54238 21.45 3.54238 21.0964 3.53851C20.936 3.53658 20.7312 3.58102 20.623 3.49987C19.709 2.81971 20.3621 1.85164 20.2036 1.02656C20.1148 0.56088 20.3834 0.30582 20.8761 0.327075C21.0693 0.334805 21.2625 0.321279 21.4538 0.321279C44.6894 0.321279 67.925 0.317414 91.1586 0.325143C95.058 0.325143 98.138 2.86222 98.8897 6.67652C98.994 7.20597 98.9979 7.76246 98.9979 8.30543C99.0037 29.773 99.0037 51.2405 98.9998 72.7081C98.9998 76.3639 97.0579 79.1116 93.6068 80.3174C93.0214 80.5222 92.8127 80.8043 92.8185 81.4188C92.8455 84.408 92.7025 87.403 92.861 90.3826C93.1006 94.9138 90.5307 98.1213 86.5927 99.1281H52.6504H52.6484ZM89.607 59.787C89.607 51.1729 89.5974 42.5608 89.6225 33.9467C89.6244 33.1177 89.4119 32.8086 88.5424 32.8376C86.7125 32.8975 84.8788 32.8917 83.047 32.8376C82.2451 32.8144 81.8721 33.0501 81.6267 33.8597C80.8248 36.5108 79.4336 37.4827 76.6743 37.4827C72.0137 37.4827 67.355 37.4827 62.6943 37.4827C59.7418 37.4827 58.4317 36.5553 57.5564 33.7148C57.34 33.0153 56.9999 32.8298 56.3236 32.8414C54.4918 32.8762 52.6581 32.911 50.8282 32.8298C49.8138 32.7854 49.607 33.1506 49.609 34.0974C49.636 51.227 49.636 68.3566 49.609 85.4881C49.609 86.4562 49.8582 86.7403 50.8456 86.7383C63.3474 86.7055 75.8492 86.7171 88.3511 86.7171C89.1858 86.7171 89.6044 86.2887 89.607 85.4321C89.607 76.8837 89.607 68.3334 89.607 59.785V59.787ZM69.6486 25.1433C64.6363 25.1433 59.624 25.1317 54.6136 25.1491C52.0842 25.1568 50.2041 26.6099 49.7867 28.7489C49.6515 29.4368 49.8157 29.659 50.5287 29.6493C52.7779 29.6145 55.0271 29.6377 57.2762 29.6377C59.1737 29.6377 60.2899 30.5755 60.6249 32.4511C60.8741 33.852 61.3514 34.2636 62.7465 34.2655C66.955 34.2674 71.1635 34.2655 75.372 34.2655C78.2955 34.2655 78.3052 34.2578 78.7766 31.3652C78.9911 30.0435 79.4317 29.6455 80.7456 29.6397C83.2846 29.63 85.8217 29.6377 88.3607 29.6358C89.6553 29.6358 89.7326 29.5218 89.3172 28.2484C88.6853 26.3161 86.9444 25.1549 84.5889 25.1491C79.6094 25.1355 74.63 25.1452 69.6486 25.1452V25.1433ZM69.7181 89.9401C63.4209 89.9401 57.1217 89.9401 50.8244 89.9401C49.6148 89.9401 49.5955 89.9633 49.6341 91.1883C49.721 94.0114 51.5586 95.9456 54.3856 95.9572C64.5396 95.9958 74.6937 95.9958 84.8478 95.9572C87.6767 95.9456 89.5104 94.0191 89.6051 91.1941C89.6457 89.9691 89.6244 89.942 88.4206 89.942C82.1871 89.942 75.9536 89.942 69.7181 89.942V89.9401Z" fill="#727272"/>
<path d="M0.193359 6.55792C1.08414 3.35614 3.02607 1.19972 6.34572 0.463529C7.70797 0.160162 9.09921 0.359186 10.4788 0.334066C10.5426 0.334066 10.6276 0.326337 10.6663 0.36305C11.4875 1.09152 10.9117 2.03833 11.0392 2.87501C11.1281 3.45662 10.6972 3.54357 10.2315 3.53971C9.52431 3.53391 8.81709 3.52425 8.10988 3.54744C5.28297 3.64212 3.44731 5.48744 3.34876 8.31822C3.34103 8.54236 3.3449 8.76844 3.3449 8.99258C3.3449 27.2468 3.3449 45.5029 3.3449 63.7571C3.3449 64.6627 3.80285 65.1154 4.71874 65.1154C17.1568 65.1154 29.5948 65.1154 42.0329 65.1154C43.455 65.1154 43.4647 65.1174 43.457 66.5357C43.4454 68.5491 43.656 68.3327 41.6425 68.3327C29.334 68.3385 17.0235 68.3346 4.71488 68.3365C3.80413 68.3365 3.34812 68.7913 3.34683 69.7007C3.34683 70.6321 3.33524 71.5654 3.34876 72.4967C3.3932 75.5285 5.27717 77.4279 8.3147 77.4511C11.6885 77.4762 15.0641 77.4569 18.4379 77.4569C26.3119 77.4569 34.1859 77.4569 42.0599 77.4569C43.455 77.4569 43.4647 77.4607 43.457 78.8075C43.4434 80.9137 43.6753 80.6625 41.6155 80.676C39.4301 80.6896 37.2428 80.7186 35.0593 80.6587C34.1994 80.6355 33.7995 80.8944 33.6101 81.7562C33.1966 83.6382 33.1541 83.6286 35.1076 83.6286C37.5171 83.6286 39.9286 83.6537 42.3382 83.615C43.1362 83.6015 43.5014 83.7889 43.4743 84.6797C43.3951 87.2226 43.7526 86.8265 41.3372 86.8438C38.091 86.867 34.8448 86.8419 31.5986 86.8554C30.1687 86.8612 29.6219 87.4545 29.56 88.8302C29.5253 89.6089 29.817 89.8195 30.5629 89.8138C34.3869 89.7848 38.2128 89.8002 42.0367 89.8002C43.457 89.8002 43.4647 89.8022 43.457 91.2224C43.4454 93.2339 43.654 93.0136 41.6406 93.0175C37.237 93.0271 32.8352 93.0233 28.4316 93.0175C26.8568 93.0175 26.3641 92.517 26.3544 90.9403C26.3505 90.0727 26.3544 89.2051 26.3544 88.3375C26.3505 86.3724 27.2819 84.9811 28.9842 84.071C29.6026 83.7406 30.5397 81.6924 30.3716 81.02C30.3156 80.7958 30.1687 80.7012 29.96 80.6934C29.6721 80.6799 29.3823 80.678 29.0924 80.678C22.3759 80.678 15.6554 80.5427 8.94269 80.7243C4.29171 80.8499 1.13051 78.2182 0.193359 74.4387V6.55792Z" fill="#727272"/>
<path d="M34.6667 40.9011C33.8068 40.847 33.3489 40.2306 32.8252 39.7166C32.1122 39.019 30.3056 39.135 29.7201 39.9484C29.438 40.3407 29.5829 40.8238 29.579 41.2643C29.5616 43.2507 29.1771 43.6526 27.2275 43.6526C25.4923 43.6526 23.7571 43.6642 22.0219 43.6468C20.7563 43.6352 20.2133 43.0787 20.1824 41.8208C20.1805 41.7242 20.1824 41.6276 20.1824 41.531C20.1727 39.875 19.7438 39.3842 18.1052 39.0577C17.626 38.963 17.398 39.2664 17.1255 39.5272C15.1623 41.4015 14.8628 41.3977 12.919 39.4538C11.8736 38.4084 10.8186 37.3727 9.78676 36.3138C8.79743 35.2994 8.80516 34.4975 9.77516 33.4773C9.84086 33.4077 9.91042 33.3401 9.97805 33.2724C10.9635 32.2754 11.0137 31.0754 10.1249 30.0262C9.93361 29.7982 9.69207 29.7731 9.43315 29.7712C9.04669 29.7673 8.66217 29.7712 8.27572 29.7673C6.82845 29.7499 6.30673 29.234 6.299 27.7848C6.28934 25.953 6.28741 24.1212 6.299 22.2894C6.30866 20.9117 6.84584 20.3958 8.2448 20.3745C8.34142 20.3745 8.43803 20.3745 8.53464 20.3745C9.95486 20.3707 10.807 19.5765 10.9113 18.1814C10.9326 17.8877 10.7896 17.6945 10.608 17.507C10.3162 17.2075 10.0128 16.9196 9.72686 16.6143C8.83028 15.6617 8.8013 14.8424 9.69787 13.9188C11.0176 12.5585 12.3605 11.2175 13.7189 9.89774C14.6426 8.99923 15.4657 9.02628 16.4183 9.91319C16.4879 9.97889 16.5555 10.0485 16.6231 10.1161C17.7207 11.1962 18.6134 11.2561 19.8578 10.3557C20.0993 10.1818 20.1708 9.9673 20.1727 9.69871C20.1747 9.28134 20.1727 8.86397 20.1785 8.4466C20.1959 7.04377 20.7138 6.50273 22.0857 6.49307C23.9484 6.48148 25.813 6.48148 27.6757 6.49307C29.0051 6.50273 29.5404 7.0457 29.5674 8.36544C29.5694 8.46206 29.5674 8.55867 29.5674 8.65528C29.5752 10.2127 30.1452 10.8581 31.6891 11.0919C31.9789 11.1363 32.1895 11.0378 32.3828 10.8523C32.6359 10.6069 32.8851 10.3557 33.1383 10.1084C34.317 8.95092 35.0783 8.94512 36.2512 10.1084C37.4608 11.3064 38.6665 12.5102 39.8626 13.7217C40.9852 14.8559 40.9814 15.6347 39.8761 16.767C38.6897 17.9824 38.6472 18.5408 39.5476 19.9919C39.8104 20.4151 40.1814 20.3919 40.5543 20.3687C43.3291 20.2064 43.5358 20.9871 43.4605 23.3676C43.4122 24.8767 43.4605 26.3878 43.447 27.8988C43.4334 29.2127 42.8827 29.7422 41.5495 29.7673C41.4857 29.7673 41.42 29.7673 41.3562 29.7673C39.652 29.7789 39.2327 30.1402 38.8636 31.8194C38.7593 32.2966 39.0452 32.5324 39.308 32.8087C41.2036 34.8086 41.2017 35.0868 39.2713 37.0153C38.226 38.0606 37.1767 39.1021 36.1372 40.1533C35.7159 40.5803 35.2406 40.8779 34.659 40.8991L34.6667 40.9011ZM40.2394 25.0796C40.2394 24.1019 39.7582 23.6079 38.796 23.5976C37.4994 23.5821 37.1052 23.3 36.7265 22.0401C36.3748 20.8653 35.9227 19.7407 35.3063 18.6761C34.8329 17.8568 34.9372 17.0742 35.5961 16.3805C35.7739 16.195 35.942 15.9979 36.1391 15.8337C36.6318 15.4279 36.6086 15.0472 36.1275 14.6531C35.9536 14.512 35.8087 14.3362 35.6502 14.1777C35.0332 13.5581 34.4142 13.5472 33.7933 14.1449C32.8175 15.084 32.2185 15.1728 31.0398 14.5101C30.1954 14.0367 29.3143 13.6579 28.3887 13.37C26.4739 12.7749 26.3985 12.6667 26.3541 10.6861C26.3463 10.3769 26.4777 9.92479 26.1241 9.81851C25.3512 9.58664 24.5029 9.58664 23.7474 9.78953C23.1078 9.9615 23.4402 10.6803 23.4209 11.1537C23.3668 12.4213 23.1175 12.8329 21.9408 13.1942C20.7389 13.5633 19.5776 14.0115 18.4839 14.6453C17.6646 15.1207 16.8821 15.0125 16.1884 14.3555C16.0009 14.1777 15.8058 14.0096 15.6415 13.8106C15.2338 13.3179 14.8551 13.3449 14.4609 13.8241C14.3199 13.998 14.144 14.1449 13.9856 14.3033C13.3673 14.9216 13.357 15.5406 13.9547 16.1602C14.8918 17.1322 14.9807 17.7331 14.3199 18.9137C13.8465 19.7581 13.4639 20.6392 13.1798 21.5648C12.5982 23.4623 12.4707 23.5531 10.492 23.5995C10.1848 23.6072 9.73072 23.4739 9.62638 23.8314C9.39644 24.6062 9.3945 25.4525 9.59933 26.2081C9.77323 26.8457 10.492 26.5134 10.9635 26.5327C12.2581 26.5868 12.6504 26.8418 13.031 28.1055C13.375 29.2475 13.8117 30.345 14.403 31.3865C14.9498 32.3488 14.8435 33.0212 14.0938 33.8347C13.9624 33.9758 13.8349 34.1265 13.6842 34.2424C13.1025 34.6927 13.1393 35.1216 13.6996 35.5603C13.8503 35.6781 13.974 35.8308 14.1112 35.966C14.7308 36.5818 15.3498 36.5914 15.9681 35.995C16.942 35.0559 17.5352 34.9709 18.7216 35.6298C19.5679 36.0994 20.4452 36.4877 21.3727 36.7679C23.2566 37.3379 23.359 37.4809 23.4035 39.4576C23.4112 39.7649 23.2779 40.219 23.6354 40.3233C24.4102 40.5513 25.2565 40.5552 26.0121 40.3484C26.6478 40.1745 26.3174 39.4557 26.3367 38.9823C26.3908 37.6877 26.6439 37.2974 27.9095 36.9148C29.0515 36.5708 30.149 36.1341 31.1905 35.5429C32.1528 34.9941 32.8233 35.1023 33.6387 35.8501C33.8049 36.0027 33.9749 36.1535 34.116 36.3274C34.5218 36.824 34.9024 36.793 35.2947 36.3138C35.4357 36.1399 35.6116 35.9931 35.77 35.8346C36.3871 35.2163 36.3974 34.5973 35.8009 33.9777C34.8599 33.0019 34.7691 32.4107 35.4377 31.2242C35.9942 30.2368 36.3903 29.1915 36.7188 28.1133C37.1052 26.8438 37.4917 26.5597 38.7805 26.5443C39.7518 26.5327 40.2374 26.0432 40.2374 25.0757L40.2394 25.0796Z" fill="#727272"/>
<path d="M14.0107 1.85454C14.0107 0.831721 14.573 0.320312 15.6976 0.320312C16.7217 0.320312 17.2331 0.882604 17.2318 2.00719C17.2318 3.03129 16.6373 3.5427 15.4484 3.54141C14.4887 3.54012 14.0095 2.97783 14.0107 1.85454Z" fill="#727272"/>
<path d="M52.583 60.5545C52.5888 51.0399 60.144 43.5176 69.6914 43.5195C79.1576 43.5215 86.6722 51.1308 86.6567 60.6994C86.6432 70.0458 79.0049 77.6087 69.5947 77.5952C60.1324 77.5816 52.5791 70.0149 52.583 60.5564V60.5545ZM69.5754 74.3605C77.3837 74.1692 83.424 68.357 83.3776 60.452C83.3313 52.6186 77.2601 46.787 69.6604 46.7928C61.5623 46.7986 55.7848 53.0611 55.8543 60.6569C55.9278 68.4845 61.9507 74.1441 69.5735 74.3605H69.5754Z" fill="#727272"/>
<path d="M69.61 31.3112C67.8439 31.3112 66.0797 31.288 64.3136 31.3209C63.6006 31.3344 63.3571 31.0678 63.3706 30.3663C63.4267 27.6592 63.0673 28.121 65.5831 28.0978C68.6322 28.0689 71.6814 28.1191 74.7305 28.0747C75.6213 28.0611 75.8995 28.3548 75.8725 29.2302C75.799 31.6339 76.1236 31.2822 73.8474 31.3093C72.4349 31.3267 71.0224 31.3132 69.61 31.3112Z" fill="#727272"/>
<path d="M69.707 91.3462C71.4403 91.3462 73.1735 91.3674 74.9068 91.3365C75.6005 91.323 75.8826 91.5529 75.8671 92.2736C75.8111 95.002 76.1666 94.5363 73.6721 94.5595C70.5901 94.5885 67.51 94.546 64.4281 94.5788C63.6474 94.5866 63.346 94.3508 63.3673 93.5412C63.4349 90.952 63.0716 91.3848 65.5662 91.3481C66.9458 91.3268 68.3274 91.3442 69.707 91.3442V91.3462Z" fill="#727272"/>
<path d="M32.6573 25.0588C32.6573 29.4547 29.241 32.8574 24.8374 32.8536C20.5033 32.8497 17.0986 29.4334 17.0967 25.0839C17.0947 20.688 20.5052 17.2872 24.9127 17.293C29.2526 17.2988 32.6592 20.7131 32.6573 25.0588ZM24.9514 20.5373C22.4684 20.5257 20.3893 22.5488 20.339 25.0259C20.2888 27.4529 22.3872 29.5822 24.8548 29.6112C27.3029 29.6383 29.3454 27.6055 29.4111 25.0723C29.4729 22.7207 27.3377 20.5489 24.9514 20.5392V20.5373Z" fill="#727272"/>
<path d="M82.0171 55.9434C82.0442 56.4806 81.7814 56.8729 81.4297 57.2245C76.887 61.7673 72.35 66.3159 67.7956 70.847C66.9609 71.6779 66.0991 71.6644 65.2547 70.8277C62.7659 68.366 60.2887 65.8908 57.827 63.402C56.9575 62.5247 56.9672 61.6765 57.8367 60.7896C59.253 59.3442 60.6829 57.9124 62.1283 56.4961C63.048 55.5956 63.8441 55.642 64.8218 56.5231C65.4073 57.0506 65.8537 58.0805 66.5918 57.9878C67.2082 57.9085 67.7357 57.041 68.2806 56.4999C70.2863 54.5078 72.2785 52.502 74.2823 50.5079C75.4204 49.3756 76.1682 49.3776 77.314 50.5137C78.6608 51.847 79.9941 53.1938 81.337 54.5329C81.7331 54.929 82.0693 55.3502 82.021 55.9454L82.0171 55.9434ZM78.0038 55.9396C77.8724 55.7657 77.7758 55.6033 77.6463 55.47C77.2444 55.0546 76.7961 54.6797 76.4329 54.2353C75.9595 53.6556 75.6194 53.7522 75.1286 54.2527C72.7693 56.6584 70.3791 59.0331 67.9888 61.4079C66.9319 62.4591 66.1551 62.4513 65.0962 61.4272C63.3282 59.7172 63.3398 59.7288 61.6239 61.5895C61.2549 61.9895 61.2491 62.2388 61.6336 62.6156C63.1021 64.0512 64.5571 65.5004 65.9889 66.9728C66.4005 67.396 66.671 67.3844 67.0826 66.969C70.5646 63.4619 74.0639 59.9722 77.5555 56.4767C77.7101 56.3221 77.8357 56.1405 78.0019 55.9396H78.0038Z" fill="#727272"/>
</g>
<defs>
<clipPath id="clip0_514_4844">
<rect width="99" height="99.1256" fill="white"/>
</clipPath>
</defs>
</svg>
