<svg width="231" height="127" viewBox="0 0 231 127" fill="none" xmlns="http://www.w3.org/2000/svg">
<g clip-path="url(#clip0_317_4012)">
<path d="M146.241 46C146.944 47.134 146.891 48.398 146.891 49.6619C146.891 54.1153 146.903 58.5687 146.92 63.0162C146.92 63.1107 146.979 63.1993 147.062 63.4592C149.767 57.984 153.866 54.7768 160.215 55.0958C166.5 55.4088 170.215 58.9526 172.418 64.7881C173.841 61.386 175.501 58.3856 178.755 56.6964C181.974 55.0249 185.294 54.322 188.926 55.3911C195.541 57.3402 198.778 62.6264 198.559 68.1075C198.317 74.2619 194.578 79.3532 187.26 80.7589C181.348 81.8929 175.69 78.0833 172.365 70.8008C170.38 77.0497 166.051 80.688 159.631 80.7471C153.081 80.8061 148.692 77.1265 146.584 70.7358C144.499 76.8902 140.429 80.6171 134.08 80.8061C127.152 81.0128 122.817 77.0792 120.602 70.7004H102.375C104.383 74.4036 107.714 75.4786 111.931 73.937C114.991 72.8207 116.751 73.3582 119.19 76.3291C116.999 79.1464 113.904 80.4754 110.466 80.8357C102.593 81.6625 96.4567 76.9256 95.1337 69.2356C94.9152 67.9775 95.0746 66.7549 95.3463 65.5028C95.8838 63.028 94.8915 61.6814 92.3459 61.2148C87.5264 60.3347 84.142 63.0457 83.9648 68.0602C83.8526 71.3501 83.9589 74.6399 83.9058 77.9297C83.8703 80.1446 83.2974 80.7175 81.2066 80.8829C78.5783 81.0837 77.8872 80.4813 77.84 77.8411C77.8045 76.0043 77.8341 74.1674 77.6746 72.1651C74.999 77.7112 70.7997 81.0837 64.4858 80.8593C58.2133 80.6407 54.386 76.8725 52.0471 71.2496C47.8654 79.2587 42.8096 82.0287 35.9465 80.434C29.9102 79.0283 25.7462 73.1279 26.012 67.3633C26.2778 61.6873 30.554 56.472 36.0646 55.2375C42.2662 53.8495 49.0821 56.974 52.0353 64.6877C54.3565 58.7164 58.42 54.9304 64.663 54.8241C70.9532 54.7178 75.2589 58.2261 77.8282 64.416C77.8282 62.148 77.8164 60.4115 77.8282 58.6691C77.8577 55.332 80.297 54.0326 83.3092 55.7632C83.6341 55.9463 83.8526 56.3066 84.207 56.6669C86.6936 55.651 89.127 54.2925 92.0152 54.7827C94.6848 55.2316 97.0296 56.3716 99.2976 58.043C103.042 55.775 106.905 53.9913 111.447 55.2612C115.77 56.4661 118.853 59.0826 120.797 63.6186C125.197 55.7986 131.334 52.9281 139.957 56.283C140.925 52.8396 139.656 49.2721 140.937 46H146.235H146.241ZM140.323 67.7236C140.299 63.973 137.488 61.197 133.678 61.1675C129.816 61.138 126.815 64.1325 126.88 67.9421C126.945 71.8344 129.816 74.4804 133.915 74.4332C137.754 74.3859 140.347 71.6749 140.323 67.7236ZM159.56 74.4391C163.511 74.4214 166.222 71.7871 166.216 67.9657C166.21 64.0321 163.34 61.1439 159.448 61.1675C155.715 61.1911 152.844 64.0793 152.756 67.7649C152.667 71.4032 155.75 74.823 159.56 74.4391ZM65.0823 74.4391C68.9155 74.4095 71.9396 71.6395 71.8333 67.9126C71.7388 64.5578 69.199 61.1262 64.8638 61.1793C61.2905 61.2207 57.977 64.416 58.0893 67.8181C58.1897 70.8716 60.4282 74.5985 65.0882 74.4332L65.0823 74.4391ZM185.453 74.4391C189.387 74.4214 192.086 71.7635 192.115 67.8712C192.145 64.1207 189.263 61.2089 185.483 61.1675C181.697 61.1262 178.779 63.9789 178.655 67.694C178.537 71.415 181.661 74.823 185.453 74.4332V74.4391ZM39.2304 74.4391C43.0459 74.3859 46.0581 71.5922 45.94 67.8771C45.8336 64.5932 43.2821 61.1498 38.9292 61.1616C35.344 61.1675 32.001 64.5223 32.2019 68.1193C32.4145 71.8875 35.9878 74.8053 39.2245 74.4391H39.2304ZM102.452 64.9003H113.993C112.681 62.2011 110.738 60.9726 107.915 61.1911C105.482 61.3742 103.42 62.2543 102.446 64.9003H102.452Z" fill="#EEEEEE"/>
<path d="M205.701 55.3069C205.158 55.8562 204.656 56.4527 204.059 56.937C202.081 58.5376 199.482 58.4312 197.681 56.7244C195.968 55.1002 195.684 52.2002 197.06 50.3634C198.478 48.4735 201.124 47.9951 203.357 49.1054C204.373 49.6134 204.951 50.4993 205.701 51.2375V55.3069V55.3069Z" fill="#EEEEEE"/>
</g>
<defs>
<clipPath id="clip0_317_4012">
<rect width="231" height="127" fill="white"/>
</clipPath>
</defs>
</svg>
