<svg width="216" height="207" viewBox="0 0 216 207" fill="none" xmlns="http://www.w3.org/2000/svg">
<g clip-path="url(#clip0_5527_957)">
<rect width="216" height="206.929" fill="#151517"/>
<g clip-path="url(#clip1_5527_957)">
<path d="M120.864 69.0722H121.297C121.903 69.211 122.448 69.5422 122.851 70.0165C123.254 70.4908 123.493 71.0826 123.531 71.7036C123.531 74.263 123.531 76.8225 123.531 79.3819C123.512 79.4704 123.468 79.5515 123.404 79.6155C123.34 79.6794 123.259 79.7235 123.171 79.7424H115.962H115.782V78.7331C115.792 78.4963 115.755 78.26 115.673 78.0376C115.591 77.8152 115.466 77.6111 115.306 77.437C115.145 77.2629 114.951 77.1222 114.736 77.023C114.521 76.9237 114.289 76.8678 114.052 76.8585H98.4812C98.0089 76.8287 97.5438 76.9859 97.1864 77.2961C96.8289 77.6064 96.6079 78.0449 96.571 78.5168V79.8145H88.7495V72.6048C88.6345 71.7799 88.8447 70.9426 89.3357 70.2699C89.8267 69.5971 90.5601 69.1417 91.3807 69H91.5609H120.828" fill="white"/>
<path d="M38.072 123.073C38.1575 122.478 38.2779 121.888 38.4325 121.307C38.7395 119.91 39.4381 118.628 40.4466 117.613C41.4551 116.598 42.7318 115.891 44.1273 115.576C45.9085 115.121 47.7961 115.364 49.404 116.255C51.012 117.146 52.2188 118.618 52.7775 120.37C53.6323 122.697 53.6323 125.252 52.7775 127.579C52.2641 129.131 51.2581 130.472 49.9125 131.399C48.5669 132.325 46.9555 132.787 45.3234 132.714C43.6912 132.64 42.1277 132.036 40.8708 130.992C39.6139 129.948 38.7325 128.522 38.3604 126.931C38.3604 126.354 38.1081 125.705 38 125.128L38.072 123.073ZM41.6763 123.939C41.6445 125.381 42.0463 126.8 42.8297 128.012C43.0888 128.421 43.4277 128.774 43.8261 129.049C44.2246 129.325 44.6744 129.517 45.1487 129.614C45.623 129.712 46.1121 129.713 46.5869 129.617C47.0616 129.522 47.5122 129.331 47.9117 129.057C48.3418 128.759 48.7091 128.38 48.993 127.94C49.6668 126.773 50.0215 125.449 50.0215 124.101C50.0215 122.753 49.6668 121.429 48.993 120.262C48.7517 119.84 48.4277 119.471 48.0403 119.178C47.653 118.885 47.2103 118.673 46.739 118.555C46.2677 118.437 45.7773 118.416 45.2975 118.492C44.8177 118.569 44.3584 118.741 43.947 119C43.3006 119.35 42.7923 119.909 42.5053 120.586C41.9615 121.62 41.677 122.771 41.6763 123.939V123.939Z" fill="white"/>
<path d="M115.815 92.3945H123.024C123.42 92.3945 123.528 92.3945 123.528 92.8991C123.528 95.2423 123.528 97.6214 123.528 100.109C123.558 100.944 123.256 101.757 122.689 102.372C122.122 102.986 121.336 103.352 120.501 103.389H92.2792C91.7978 103.411 91.317 103.336 90.8651 103.169C90.4131 103.002 89.9992 102.746 89.648 102.416C89.3659 102.158 89.1378 101.847 88.9769 101.501C88.816 101.154 88.7256 100.779 88.7109 100.397C88.7109 97.8017 88.7109 95.2062 88.7109 92.5747H96.5322V93.6201C96.5125 93.857 96.5398 94.0953 96.6126 94.3216C96.6854 94.5478 96.8022 94.7575 96.9563 94.9384C97.1104 95.1193 97.2987 95.268 97.5105 95.3758C97.7223 95.4836 97.9533 95.5485 98.1903 95.5667H113.364C115.13 95.5667 115.743 94.9539 115.743 93.2236V92.5386" fill="white"/>
<path d="M58.9792 130.024V137.053H55.375V115.713H58.799V118.164L59.0874 117.84C59.6321 117.022 60.3815 116.361 61.2612 115.923C62.1408 115.485 63.1198 115.286 64.1006 115.344C65.0815 115.402 66.0299 115.717 66.8514 116.256C67.6729 116.795 68.3389 117.54 68.7828 118.417C69.8432 120.431 70.2823 122.714 70.0443 124.977C70.0021 126.485 69.6201 127.964 68.9269 129.303C68.2941 130.594 67.2153 131.612 65.8901 132.168C64.5649 132.725 63.0829 132.783 61.7184 132.331C60.7054 131.943 59.8197 131.282 59.1594 130.421C59.0471 130.249 58.914 130.091 58.763 129.952V129.952L58.9792 130.024ZM66.5842 123.968C66.6592 122.813 66.4358 121.659 65.9354 120.616C65.6748 119.997 65.2465 119.463 64.6989 119.074C64.1512 118.686 63.506 118.458 62.8358 118.417C62.158 118.405 61.4907 118.585 60.9105 118.936C60.3303 119.287 59.8609 119.794 59.5559 120.399C58.9233 121.495 58.5901 122.739 58.5901 124.004C58.5901 125.27 58.9233 126.513 59.5559 127.609C59.8661 128.226 60.3469 128.74 60.9411 129.092C61.5353 129.443 62.218 129.617 62.9079 129.591C63.5757 129.54 64.2161 129.304 64.7573 128.91C65.2984 128.515 65.7189 127.977 65.9715 127.357C66.4402 126.329 66.6505 125.203 66.5842 124.076" fill="white"/>
<path d="M131.603 119.608C131.278 118.635 130.954 117.769 130.629 116.832C131.89 116.145 133.274 115.717 134.702 115.571C136.208 115.382 137.737 115.543 139.171 116.039C140.187 116.412 141.061 117.091 141.674 117.982C142.288 118.873 142.609 119.932 142.595 121.014C142.595 124.619 142.595 128.512 142.595 132.297H139.207V130.314L138.775 130.783C137.897 131.791 136.687 132.45 135.364 132.642C134.042 132.834 132.694 132.545 131.566 131.828C130.728 131.271 130.077 130.475 129.698 129.543C129.318 128.61 129.229 127.585 129.44 126.601C129.549 125.371 130.118 124.227 131.033 123.399C131.949 122.57 133.143 122.117 134.378 122.131C135.965 122.01 137.56 122.219 139.063 122.744C139.184 122.337 139.223 121.91 139.178 121.488C139.133 121.065 139.005 120.656 138.8 120.284C138.595 119.912 138.319 119.584 137.987 119.319C137.655 119.055 137.273 118.859 136.865 118.743C136.508 118.673 136.14 118.673 135.783 118.743C134.548 118.684 133.316 118.906 132.179 119.392L131.386 119.752L131.603 119.608ZM139.027 126.421C139.045 126.133 139.045 125.844 139.027 125.556C139.024 125.477 139.003 125.401 138.966 125.332C138.928 125.263 138.875 125.204 138.811 125.159C137.333 124.488 135.651 124.423 134.126 124.979C133.613 125.221 133.193 125.622 132.927 126.122C132.66 126.622 132.563 127.195 132.648 127.755C132.666 128.296 132.864 128.817 133.21 129.234C133.555 129.652 134.029 129.943 134.558 130.062C135.437 130.294 136.371 130.185 137.173 129.757C137.975 129.329 138.586 128.614 138.883 127.755C138.973 127.315 138.973 126.861 138.883 126.421" fill="white"/>
<path d="M75.8424 125.347C75.8474 126.119 76.0525 126.877 76.4379 127.547C76.8232 128.217 77.3755 128.775 78.041 129.168C79.0113 129.673 80.1246 129.835 81.1985 129.625C82.2724 129.416 83.2433 128.848 83.9523 128.014L85.7545 130.141C84.8692 131.122 83.7456 131.859 82.4924 132.278C81.2392 132.698 79.8988 132.787 78.6011 132.537C77.3034 132.287 76.0922 131.706 75.0848 130.851C74.0774 129.995 73.3079 128.894 72.8507 127.654C72.7087 127.206 72.6002 126.748 72.5263 126.284C72.1012 124.134 72.3014 121.907 73.103 119.867C73.7057 118.185 74.9518 116.811 76.5671 116.047C78.1825 115.283 80.0351 115.192 81.7176 115.794H82.0419C82.9771 116.235 83.7926 116.894 84.4199 117.716C85.0471 118.537 85.4678 119.498 85.6463 120.516C85.9031 121.874 86.0717 123.246 86.1509 124.626C86.1509 125.13 85.9707 125.275 85.5021 125.275H75.8424V125.347ZM75.8424 122.931H83.0512C83.0801 121.702 82.6998 120.497 81.9699 119.507C81.4968 118.882 80.7976 118.468 80.0225 118.354C79.2474 118.239 78.4583 118.433 77.8247 118.894L77.4283 119.255C76.543 120.252 76.0332 121.527 75.9866 122.859" fill="white"/>
<path d="M92.2443 132.336H88.8203V115.717H92.2443V118.133L92.9653 117.231C93.5927 116.441 94.4472 115.862 95.4139 115.572C96.3805 115.282 97.4128 115.295 98.3717 115.609C99.2743 115.838 100.086 116.337 100.697 117.039C101.309 117.741 101.692 118.613 101.796 119.539C101.83 120.103 101.83 120.669 101.796 121.233V131.759C101.796 131.939 101.796 132.119 101.796 132.299H98.1916V122.494C98.2465 121.931 98.2465 121.364 98.1916 120.8C98.1023 120.237 97.8325 119.718 97.423 119.322C97.0135 118.925 96.4864 118.672 95.9208 118.601C95.2886 118.451 94.6243 118.519 94.0355 118.794C93.4467 119.069 92.968 119.534 92.677 120.115C92.3805 120.824 92.2214 121.582 92.2084 122.35C92.2084 125.45 92.2084 128.55 92.2084 131.651V132.336" fill="white"/>
<path d="M160.11 109.695H163.715V122.853L164.111 122.384C165.769 120.293 167.391 118.167 169.013 116.076C169.108 115.916 169.247 115.788 169.413 115.705C169.579 115.622 169.765 115.588 169.95 115.607H173.554C173.425 115.81 173.28 116.003 173.122 116.184L164.075 126.998C163.932 127.153 163.824 127.335 163.756 127.533C163.687 127.732 163.661 127.943 163.679 128.152V132.333H160.074V109.731" fill="white"/>
<path d="M104.461 130.349C105.002 129.484 105.542 128.691 106.083 127.898C106.647 128.297 107.237 128.659 107.849 128.979C108.921 129.654 110.204 129.911 111.453 129.7C111.824 129.647 112.169 129.48 112.44 129.221C112.712 128.963 112.896 128.626 112.967 128.258C113.046 127.886 112.992 127.499 112.814 127.163C112.636 126.826 112.346 126.564 111.994 126.42C110.804 125.771 109.543 125.23 108.39 124.617L107.416 124.077C106.643 123.653 106.022 122.997 105.64 122.202C105.259 121.406 105.136 120.512 105.29 119.643C105.395 118.825 105.728 118.054 106.251 117.417C106.773 116.779 107.464 116.302 108.245 116.038C109.267 115.664 110.355 115.506 111.441 115.574C112.526 115.642 113.586 115.935 114.553 116.435C115.093 116.687 115.598 117.011 116.139 117.3C115.598 118.201 115.129 119.03 114.733 119.751C113.686 119.297 112.615 118.9 111.525 118.561C110.923 118.402 110.29 118.402 109.687 118.561C109.392 118.615 109.124 118.765 108.922 118.986C108.72 119.207 108.596 119.489 108.57 119.787C108.504 120.067 108.528 120.36 108.638 120.625C108.748 120.89 108.938 121.114 109.182 121.265C109.795 121.625 110.408 121.986 111.021 122.274C111.633 122.563 112.751 123.103 113.58 123.572C114.538 123.969 115.33 124.683 115.823 125.596C116.315 126.509 116.478 127.564 116.283 128.583C116.113 129.625 115.605 130.582 114.836 131.306C114.067 132.029 113.08 132.479 112.03 132.584C110.69 132.782 109.323 132.687 108.023 132.308C106.723 131.928 105.52 131.272 104.497 130.385" fill="white"/>
<path d="M155.898 127.933L156.259 128.33L157.772 130.168C157.014 131.098 156.028 131.816 154.91 132.251C153.792 132.687 152.58 132.826 151.393 132.656C149.668 132.424 148.077 131.6 146.893 130.324C145.71 129.048 145.007 127.4 144.905 125.662C144.577 123.537 144.904 121.362 145.842 119.426C146.331 118.384 147.062 117.474 147.975 116.772C148.887 116.07 149.954 115.597 151.087 115.392C152.22 115.188 153.385 115.257 154.486 115.595C155.586 115.933 156.589 116.53 157.412 117.335L157.736 117.588L155.79 120.147L154.817 119.354C154.452 119.045 154.029 118.812 153.572 118.668C153.116 118.524 152.636 118.472 152.159 118.516C151.683 118.559 151.22 118.697 150.798 118.922C150.375 119.146 150.002 119.452 149.699 119.823C149.538 119.98 149.404 120.163 149.302 120.363C148.636 121.48 148.284 122.757 148.284 124.058C148.284 125.359 148.636 126.636 149.302 127.753C149.534 128.184 149.852 128.563 150.235 128.867C150.618 129.171 151.059 129.394 151.531 129.522C152.003 129.65 152.496 129.681 152.981 129.612C153.465 129.544 153.93 129.377 154.348 129.123L154.673 128.907C155.105 128.618 155.466 128.258 155.898 127.933" fill="white"/>
<path d="M127.313 129.088C127.313 129.954 127.313 130.747 127.313 131.576C127.294 131.672 127.255 131.763 127.199 131.843C127.143 131.924 127.072 131.992 126.989 132.044C126.228 132.382 125.406 132.557 124.574 132.557C123.742 132.557 122.919 132.382 122.159 132.044C121.582 131.801 121.088 131.396 120.736 130.878C120.384 130.36 120.19 129.751 120.177 129.124C120.177 128.007 120.177 126.854 120.177 125.736V118.526C119.095 118.526 119.095 118.526 118.915 117.373C118.735 116.219 118.663 116.183 118.555 115.534H120.321V111.064H123.925V115.498H127.529V118.49H123.925C123.925 118.779 123.925 119.031 123.925 119.247C123.925 121.843 123.925 124.438 123.925 126.998C123.925 128.872 124.61 129.629 126.809 129.161L127.637 128.908" fill="white"/>
<path d="M96.5697 82.2988H88.8203V90.0492H96.5697V82.2988Z" fill="white"/>
<path d="M115.851 90.0491V82.2988H123.564C123.58 82.5028 123.58 82.7077 123.564 82.9117C123.564 85.0746 123.564 87.2735 123.564 89.4363C123.564 89.941 123.564 90.1212 122.916 90.0852H115.707" fill="white"/>
<path d="M173.665 132.335H169.845C169.67 132.296 169.516 132.193 169.412 132.047C168.403 130.281 167.43 128.442 166.457 126.712C166.421 126.633 166.402 126.546 166.402 126.459C166.402 126.372 166.421 126.286 166.457 126.207C167.178 125.378 167.934 124.621 168.727 123.756C170.349 126.64 171.971 129.415 173.665 132.335Z" fill="white"/>
<path d="M176.946 128.227C177.485 128.227 178.002 128.439 178.386 128.816C178.771 129.194 178.991 129.707 179.001 130.246C178.991 130.794 178.767 131.317 178.376 131.701C177.985 132.086 177.458 132.301 176.91 132.301C176.365 132.301 175.843 132.084 175.457 131.699C175.072 131.314 174.855 130.791 174.855 130.246C174.855 129.701 175.072 129.178 175.457 128.793C175.843 128.408 176.365 128.191 176.91 128.191V128.191L176.946 128.227ZM176.91 131.796C177.337 131.787 177.745 131.613 178.047 131.311C178.349 131.009 178.523 130.601 178.532 130.174C178.474 129.79 178.281 129.439 177.987 129.186C177.692 128.932 177.316 128.793 176.928 128.793C176.54 128.793 176.164 128.932 175.87 129.186C175.576 129.439 175.382 129.79 175.324 130.174C175.333 130.595 175.502 130.998 175.796 131.299C176.091 131.6 176.489 131.778 176.91 131.796V131.796Z" fill="white"/>
<path d="M176.5 130.809V129.5H176.991C177.091 129.5 177.176 129.517 177.244 129.552C177.312 129.587 177.364 129.636 177.399 129.699C177.434 129.762 177.452 129.835 177.452 129.919C177.452 130.002 177.434 130.075 177.398 130.137C177.363 130.198 177.311 130.246 177.242 130.28C177.173 130.313 177.088 130.329 176.988 130.329H176.638V130.133H176.956C177.014 130.133 177.063 130.124 177.1 130.108C177.137 130.092 177.165 130.068 177.183 130.036C177.201 130.004 177.211 129.965 177.211 129.919C177.211 129.872 177.201 129.832 177.183 129.8C177.165 129.766 177.137 129.741 177.099 129.724C177.062 129.707 177.014 129.698 176.954 129.698H176.737V130.809H176.5ZM177.176 130.216L177.5 130.809H177.235L176.917 130.216H177.176Z" fill="white"/>
</g>
</g>
<defs>
<clipPath id="clip0_5527_957">
<rect width="216" height="206.929" fill="white"/>
</clipPath>
<clipPath id="clip1_5527_957">
<rect width="141" height="68.0549" fill="white" transform="translate(38 69)"/>
</clipPath>
</defs>
</svg>
