<svg width="216" height="207" viewBox="0 0 216 207" fill="none" xmlns="http://www.w3.org/2000/svg">
<g clip-path="url(#clip0_5534_1439)">
<rect width="216" height="206.929" fill="#151517"/>
<path d="M151.563 115.264C151.563 124.81 143.886 132.521 134.408 132.521H81.3115C71.8337 132.521 64.1562 124.81 64.1562 115.264C64.1562 106.635 70.4069 99.5013 78.6278 98.2104C78.5259 97.5989 78.458 96.9874 78.458 96.342C78.458 90.2952 83.3158 85.4034 89.3286 85.4034C92.0123 85.4034 94.4582 86.3885 96.3606 87.9852C99.7237 80.3417 104.038 73.3438 116.2 73.3438C130.909 73.3438 137.907 84.7579 137.907 96.8516C137.907 97.3611 137.873 97.8707 137.839 98.3463C145.652 99.9429 151.563 106.907 151.563 115.264Z" fill="white"/>
<path d="M75.37 118.695L74.6226 116.589H71.7011L70.9538 118.695H69.6289L72.4825 111.086H73.8413L76.6948 118.695H75.37ZM74.2829 115.502L73.5695 113.43C73.5016 113.294 73.4336 113.056 73.3657 112.784C73.2638 112.479 73.1958 112.275 73.1619 112.139C73.06 112.581 72.9241 113.022 72.7542 113.532L72.0748 115.502H74.2829V115.502Z" fill="#151517"/>
<path d="M81.3795 118.694H77.0312V117.947L79.9188 113.904H77.2011V112.953H81.3116V113.802L78.458 117.777H81.3795V118.694Z" fill="#151517"/>
<path d="M86.6769 118.694L86.507 117.947H86.4391C86.2692 118.219 86.0314 118.422 85.7257 118.558C85.42 118.694 85.0463 118.796 84.6386 118.796C83.9252 118.796 83.4157 118.626 83.076 118.287C82.7363 117.947 82.5664 117.403 82.5664 116.724V112.953H83.7894V116.486C83.7894 116.928 83.8913 117.267 84.0611 117.471C84.231 117.709 84.5367 117.811 84.9104 117.811C85.42 117.811 85.7936 117.675 86.0314 117.369C86.2692 117.064 86.4051 116.554 86.4051 115.841V112.987H87.6281V118.728H86.6769V118.694Z" fill="#151517"/>
<path d="M92.316 112.852C92.5538 112.852 92.7576 112.886 92.9275 112.92L92.7916 114.075C92.6218 114.041 92.4519 114.007 92.2481 114.007C91.7725 114.007 91.3648 114.176 91.0591 114.482C90.7534 114.788 90.6175 115.196 90.6175 115.739V118.729H89.3945V112.987H90.3457L90.5156 114.007H90.5835C90.7873 113.667 91.0251 113.395 91.3309 113.191C91.6366 112.953 91.9423 112.852 92.316 112.852Z" fill="#151517"/>
<path d="M96.4981 118.796C95.6148 118.796 94.9014 118.525 94.3919 118.015C93.8823 117.506 93.6445 116.792 93.6445 115.875C93.6445 114.924 93.8823 114.21 94.3579 113.667C94.8335 113.123 95.479 112.852 96.2943 112.852C97.0416 112.852 97.6531 113.089 98.0947 113.531C98.5363 114.007 98.7741 114.618 98.7741 115.433V116.079H94.9015C94.9354 116.622 95.0713 117.064 95.3431 117.37C95.6148 117.675 96.0225 117.811 96.532 117.811C96.8718 117.811 97.1775 117.777 97.4832 117.709C97.789 117.641 98.0947 117.54 98.4344 117.37V118.355C98.1287 118.491 97.8229 118.593 97.5172 118.661C97.2454 118.762 96.9057 118.796 96.4981 118.796ZM96.2603 113.769C95.8866 113.769 95.5469 113.905 95.3091 114.142C95.0713 114.38 94.9354 114.754 94.9015 115.23H97.5172C97.5172 114.754 97.3813 114.414 97.1775 114.142C96.9737 113.905 96.6679 113.769 96.2603 113.769Z" fill="#151517"/>
<path d="M104.276 111.119H103.02V118.729H104.276V111.119Z" fill="#151517"/>
<path d="M111.24 115.806C111.24 116.757 111.002 117.47 110.527 118.014C110.051 118.524 109.372 118.795 108.522 118.795C107.979 118.795 107.503 118.659 107.096 118.422C106.688 118.184 106.382 117.844 106.144 117.368C105.907 116.927 105.805 116.383 105.805 115.772C105.805 114.855 106.042 114.107 106.518 113.598C106.994 113.088 107.673 112.816 108.556 112.816C109.372 112.816 110.051 113.088 110.527 113.632C111.002 114.175 111.24 114.923 111.24 115.806ZM107.062 115.806C107.062 117.131 107.537 117.81 108.522 117.81C109.474 117.81 109.983 117.165 109.983 115.806C109.983 114.481 109.508 113.836 108.522 113.836C108.013 113.836 107.639 114.005 107.401 114.345C107.164 114.685 107.062 115.194 107.062 115.806Z" fill="#151517"/>
<path d="M115.383 118.695H114.16V112.173H111.918V111.086H117.625V112.173H115.383V118.695Z" fill="#151517"/>
<path d="M125.95 116.622C125.95 117.301 125.713 117.811 125.203 118.218C124.727 118.592 124.048 118.796 123.165 118.796C122.316 118.796 121.602 118.66 121.059 118.388V117.199C121.398 117.369 121.772 117.471 122.18 117.573C122.587 117.675 122.927 117.709 123.267 117.709C123.776 117.709 124.116 117.607 124.354 117.437C124.592 117.233 124.693 116.995 124.693 116.69C124.693 116.418 124.592 116.18 124.388 115.976C124.184 115.772 123.742 115.535 123.063 115.263C122.383 114.991 121.874 114.651 121.602 114.312C121.33 113.938 121.161 113.53 121.161 113.021C121.161 112.375 121.398 111.9 121.84 111.526C122.282 111.152 122.893 110.982 123.64 110.982C124.354 110.982 125.101 111.152 125.815 111.458L125.407 112.477C124.727 112.205 124.116 112.036 123.606 112.036C123.199 112.036 122.893 112.137 122.689 112.307C122.485 112.477 122.383 112.715 122.383 113.021C122.383 113.224 122.417 113.394 122.519 113.53C122.621 113.666 122.757 113.802 122.927 113.938C123.131 114.074 123.471 114.21 123.946 114.413C124.49 114.651 124.897 114.855 125.169 115.059C125.441 115.263 125.611 115.501 125.747 115.738C125.882 116.01 125.95 116.282 125.95 116.622Z" fill="#151517"/>
<path d="M131.353 118.694L131.183 117.947H131.115C130.945 118.219 130.707 118.422 130.401 118.558C130.096 118.694 129.722 118.796 129.314 118.796C128.601 118.796 128.091 118.626 127.752 118.287C127.412 117.947 127.242 117.403 127.242 116.724V112.953H128.465V116.486C128.465 116.928 128.567 117.267 128.737 117.471C128.907 117.709 129.212 117.811 129.586 117.811C130.096 117.811 130.469 117.675 130.707 117.369C130.945 117.064 131.081 116.554 131.081 115.841V112.987H132.304V118.728H131.353V118.694Z" fill="#151517"/>
<path d="M133.965 111.426C133.965 111.222 134.033 111.052 134.135 110.916C134.237 110.814 134.44 110.746 134.644 110.746C134.848 110.746 135.018 110.814 135.154 110.916C135.29 111.018 135.324 111.188 135.324 111.426C135.324 111.629 135.256 111.799 135.154 111.935C135.018 112.071 134.882 112.105 134.644 112.105C134.406 112.105 134.237 112.037 134.135 111.935C134.033 111.799 133.965 111.629 133.965 111.426ZM135.256 118.695H134.033V112.954H135.256V118.695Z" fill="#151517"/>
<path d="M139.167 117.811C139.473 117.811 139.745 117.777 140.05 117.675V118.592C139.915 118.66 139.745 118.694 139.541 118.728C139.337 118.762 139.099 118.796 138.861 118.796C137.706 118.796 137.129 118.185 137.129 116.962V113.87H136.348V113.327L137.197 112.885L137.605 111.662H138.352V112.953H139.983V113.87H138.352V116.962C138.352 117.267 138.42 117.471 138.59 117.607C138.726 117.743 138.929 117.811 139.167 117.811Z" fill="#151517"/>
<path d="M143.717 118.796C142.834 118.796 142.12 118.525 141.611 118.015C141.101 117.506 140.863 116.758 140.863 115.875C140.863 114.924 141.101 114.21 141.577 113.667C142.052 113.123 142.698 112.852 143.513 112.852C144.26 112.852 144.872 113.089 145.313 113.531C145.755 114.007 145.959 114.618 145.959 115.433V116.079H142.12C142.154 116.622 142.29 117.064 142.562 117.37C142.834 117.675 143.241 117.811 143.751 117.811C144.091 117.811 144.396 117.777 144.702 117.709C145.008 117.641 145.313 117.54 145.653 117.37V118.355C145.347 118.491 145.042 118.593 144.736 118.661C144.464 118.762 144.091 118.796 143.717 118.796ZM143.479 113.769C143.105 113.769 142.766 113.905 142.528 114.142C142.29 114.38 142.154 114.754 142.12 115.23H144.736C144.736 114.754 144.6 114.414 144.396 114.142C144.192 113.905 143.887 113.769 143.479 113.769Z" fill="#151517"/>
</g>
<defs>
<clipPath id="clip0_5534_1439">
<rect width="216" height="206.929" fill="white"/>
</clipPath>
</defs>
</svg>
