<svg width="216" height="207" viewBox="0 0 216 207" fill="none" xmlns="http://www.w3.org/2000/svg">
<g clip-path="url(#clip0_5535_2414)">
<rect width="216" height="206.929" fill="#151517"/>
<g clip-path="url(#clip1_5535_2414)">
<path fill-rule="evenodd" clip-rule="evenodd" d="M57.0833 126.974C57.1305 125.959 56.8494 124.956 56.2818 124.112C56.0528 123.78 55.7602 123.496 55.4208 123.277C55.0813 123.059 54.7017 122.91 54.3042 122.839C53.9067 122.768 53.4991 122.776 53.1049 122.864C52.7108 122.952 52.3379 123.117 52.0079 123.349C51.708 123.554 51.4491 123.813 51.2447 124.112C50.6771 124.956 50.3963 125.959 50.4435 126.974C50.4017 127.989 50.682 128.991 51.2447 129.836C51.4737 130.169 51.7665 130.453 52.106 130.672C52.4455 130.89 52.8248 131.039 53.2223 131.11C53.6198 131.181 54.0277 131.173 54.4218 131.085C54.816 130.997 55.1889 130.832 55.5188 130.6C55.8187 130.395 56.0774 130.136 56.2818 129.836C56.8286 128.984 57.1077 127.987 57.0833 126.974V126.974ZM61.9679 126.974C62.0424 129.264 61.2522 131.499 59.7545 133.233C59.047 134.031 58.1879 134.68 57.2272 135.144C56.2665 135.607 55.2233 135.875 54.1582 135.932C53.0931 135.989 52.0273 135.833 51.0227 135.475C50.0182 135.116 49.095 134.562 48.3065 133.843L47.6958 133.233C46.255 131.458 45.4688 129.241 45.4688 126.955C45.4688 124.669 46.255 122.453 47.6958 120.678C48.4114 119.89 49.2758 119.25 50.239 118.797C51.2022 118.343 52.2454 118.084 53.309 118.034C54.3725 117.985 55.4354 118.145 56.4367 118.507C57.438 118.869 58.3579 119.425 59.1438 120.144L59.6781 120.678C61.175 122.428 61.9645 124.673 61.8915 126.974" fill="white"/>
<path fill-rule="evenodd" clip-rule="evenodd" d="M74.6727 126.973C74.7019 125.96 74.4226 124.962 73.8715 124.111C73.6425 123.779 73.3496 123.495 73.0102 123.276C72.6707 123.058 72.2913 122.908 71.8938 122.837C71.4963 122.766 71.0885 122.775 70.6943 122.863C70.3002 122.95 69.9275 123.115 69.5976 123.348C69.2977 123.552 69.0387 123.811 68.8343 124.111C68.2668 124.954 67.9857 125.958 68.0329 126.973C67.991 127.988 68.2717 128.99 68.8343 129.835C69.0633 130.168 69.3559 130.452 69.6954 130.67C70.0349 130.889 70.4145 131.038 70.812 131.109C71.2095 131.18 71.6171 131.171 72.0112 131.084C72.4054 130.996 72.7783 130.831 73.1082 130.598C73.3975 130.381 73.6545 130.124 73.8715 129.835C74.4182 128.982 74.6971 127.986 74.6727 126.973V126.973ZM79.5573 126.973C79.589 129.166 78.8759 131.305 77.5347 133.041C76.9327 133.941 76.1138 134.675 75.1534 135.175C74.1931 135.675 73.1222 135.925 72.0396 135.903C70.6483 135.893 69.3019 135.408 68.2236 134.529C68.2236 134.758 68.2236 135.254 68.2236 136.055C68.2236 136.857 68.2236 137.543 68.2236 138.078C68.2236 141.016 67.3841 142.466 65.6288 142.466C65.3045 142.47 64.9833 142.404 64.6869 142.272C64.3905 142.14 64.1259 141.946 63.9115 141.703C63.6807 141.459 63.501 141.171 63.3831 140.856C63.2651 140.542 63.2112 140.207 63.2247 139.871V120.791C63.2078 120.126 63.4547 119.481 63.9115 118.998C64.129 118.758 64.394 118.567 64.6897 118.435C64.9854 118.304 65.3052 118.235 65.6288 118.234C66.1265 118.221 66.6158 118.365 67.0269 118.646C67.438 118.927 67.7501 119.331 67.9185 119.799C68.4199 119.175 69.0609 118.677 69.79 118.345C70.5191 118.014 71.3158 117.858 72.116 117.891C73.1917 117.884 74.253 118.138 75.2098 118.629C76.1665 119.121 76.9903 119.837 77.6111 120.715C78.9471 122.468 79.6589 124.617 79.6334 126.82" fill="white"/>
<path fill-rule="evenodd" clip-rule="evenodd" d="M92.4202 125.217C92.4006 124.821 92.299 124.433 92.1216 124.078C91.9443 123.723 91.695 123.409 91.3898 123.156C90.8349 122.586 90.0857 122.245 89.2911 122.202C88.4724 122.237 87.6964 122.578 87.1159 123.156C86.816 123.411 86.5727 123.727 86.4018 124.081C86.231 124.436 86.1362 124.823 86.1237 125.217H92.4202ZM97.3046 126.438C97.3402 126.743 97.3074 127.052 97.2084 127.342C97.1094 127.633 96.9467 127.897 96.7323 128.117C96.209 128.483 95.5757 128.658 94.9387 128.613H86.1237C86.1143 129.056 86.2314 129.492 86.4612 129.87C86.691 130.249 87.0241 130.554 87.4213 130.75C88.2183 131.176 89.1128 131.386 90.0161 131.36C91.0202 131.324 92.0012 131.049 92.8781 130.559C93.5526 130.209 94.2715 129.952 95.0151 129.796C95.2853 129.796 95.5528 129.85 95.8018 129.954C96.0509 130.059 96.2765 130.213 96.4652 130.406C96.6594 130.609 96.8102 130.848 96.9086 131.111C97.0071 131.373 97.0509 131.653 97.0374 131.933C97.0374 133.269 96.0454 134.337 94.0611 135.062C92.5765 135.639 90.9981 135.936 89.4054 135.94C88.2586 135.974 87.1178 135.763 86.0585 135.322C84.9993 134.881 84.0459 134.22 83.2617 133.383C81.665 131.638 80.8157 129.336 80.8958 126.972C80.8542 124.634 81.7311 122.374 83.3381 120.676C84.1007 119.826 85.0375 119.151 86.0846 118.697C87.1317 118.243 88.2642 118.019 89.4054 118.043C90.4641 118.026 91.514 118.239 92.4824 118.668C93.4508 119.096 94.3148 119.729 95.0151 120.523C96.5086 122.128 97.3282 124.246 97.3046 126.438" fill="white"/>
<path fill-rule="evenodd" clip-rule="evenodd" d="M113.673 133.005C113.684 133.681 113.439 134.335 112.987 134.837C112.766 135.083 112.495 135.279 112.192 135.411C111.889 135.542 111.561 135.607 111.231 135.6C109.552 135.6 108.675 134.226 108.675 131.517C108.675 130.983 108.675 130.181 108.675 129.036C108.675 127.892 108.675 127.09 108.675 126.556C108.675 123.694 107.759 122.244 105.889 122.244C104.019 122.244 103.141 123.694 103.141 126.556C103.141 127.09 103.141 127.93 103.141 129.036C103.141 130.143 103.141 130.983 103.141 131.517C103.141 134.226 102.302 135.6 100.623 135.6C100.293 135.604 99.9656 135.539 99.663 135.407C99.3603 135.276 99.0891 135.081 98.8674 134.837C98.415 134.335 98.1696 133.681 98.1805 133.005V120.908C98.1636 120.243 98.4105 119.598 98.8674 119.115C99.0921 118.874 99.3638 118.682 99.6658 118.551C99.9677 118.42 100.293 118.352 100.623 118.352C101.143 118.317 101.662 118.451 102.101 118.732C102.541 119.014 102.878 119.429 103.065 119.916C103.526 119.259 104.156 118.739 104.888 118.41C105.62 118.081 106.427 117.955 107.224 118.046C108.82 117.94 110.394 118.46 111.613 119.496C112.178 120.066 112.62 120.747 112.909 121.495C113.198 122.244 113.328 123.045 113.292 123.847L113.673 133.005Z" fill="white"/>
<path fill-rule="evenodd" clip-rule="evenodd" d="M128.977 132.356C128.977 133.463 128.251 134.341 126.84 134.989C125.695 135.486 124.462 135.746 123.214 135.753C122.08 135.781 120.953 135.556 119.917 135.094C118.881 134.631 117.96 133.944 117.223 133.081C115.773 131.304 114.98 129.08 114.98 126.785C114.98 124.491 115.773 122.266 117.223 120.489C117.964 119.645 118.881 118.975 119.91 118.526C120.939 118.078 122.054 117.862 123.176 117.894C124.412 117.867 125.642 118.074 126.801 118.504C127.392 118.658 127.917 118.997 128.302 119.47C128.686 119.944 128.909 120.528 128.938 121.137C128.948 121.735 128.745 122.316 128.366 122.778C128.194 122.988 127.979 123.158 127.736 123.277C127.492 123.396 127.225 123.46 126.954 123.465C126.362 123.425 125.781 123.283 125.237 123.045C124.663 122.824 124.058 122.695 123.443 122.664C122.923 122.638 122.405 122.739 121.933 122.958C121.461 123.178 121.049 123.509 120.734 123.923C120.1 124.752 119.788 125.782 119.856 126.823C119.815 127.826 120.095 128.816 120.657 129.647C120.918 130.076 121.29 130.426 121.733 130.661C122.176 130.896 122.675 131.008 123.176 130.983C123.857 130.957 124.528 130.815 125.161 130.563C125.738 130.347 126.341 130.206 126.954 130.143C127.225 130.148 127.492 130.213 127.736 130.331C127.979 130.45 128.194 130.62 128.366 130.83C128.741 131.249 128.945 131.794 128.938 132.356" fill="white"/>
<path fill-rule="evenodd" clip-rule="evenodd" d="M141.836 126.973C141.847 125.962 141.569 124.969 141.035 124.111C140.745 123.709 140.364 123.382 139.922 123.156C139.481 122.93 138.993 122.812 138.497 122.812C138.002 122.812 137.513 122.93 137.072 123.156C136.631 123.382 136.249 123.709 135.959 124.111C135.392 124.954 135.111 125.958 135.158 126.973C135.125 127.981 135.39 128.977 135.921 129.835C136.206 130.246 136.589 130.58 137.035 130.807C137.482 131.033 137.978 131.145 138.478 131.132C138.974 131.153 139.467 131.044 139.909 130.817C140.351 130.59 140.725 130.251 140.997 129.835C141.559 128.989 141.84 127.988 141.798 126.973H141.836ZM146.682 133.04C146.693 133.37 146.637 133.698 146.52 134.006C146.402 134.314 146.223 134.595 145.995 134.834C145.786 135.083 145.523 135.282 145.225 135.414C144.928 135.547 144.604 135.609 144.278 135.597C143.778 135.623 143.283 135.483 142.87 135.201C142.456 134.918 142.147 134.508 141.989 134.032C141.487 134.657 140.846 135.155 140.117 135.486C139.388 135.818 138.591 135.973 137.791 135.94C136.705 135.952 135.633 135.698 134.668 135.199C133.703 134.7 132.876 133.972 132.258 133.078C130.973 131.302 130.281 129.165 130.281 126.973C130.281 124.78 130.973 122.644 132.258 120.867C132.887 119.988 133.718 119.273 134.681 118.781C135.644 118.29 136.71 118.037 137.791 118.043C138.591 118.01 139.388 118.166 140.117 118.497C140.846 118.829 141.487 119.327 141.989 119.951C142.147 119.476 142.456 119.066 142.87 118.783C143.283 118.5 143.778 118.361 144.278 118.387C144.603 118.378 144.926 118.441 145.224 118.573C145.521 118.705 145.785 118.903 145.995 119.15C146.226 119.379 146.406 119.653 146.525 119.955C146.643 120.257 146.697 120.581 146.682 120.905V133.04Z" fill="white"/>
<path fill-rule="evenodd" clip-rule="evenodd" d="M159.123 120.566C159.154 121.042 159.024 121.516 158.754 121.91C158.484 122.304 158.09 122.597 157.635 122.741L154.811 123.733C154.288 124.087 153.871 124.575 153.602 125.145C153.334 125.716 153.224 126.349 153.285 126.977V133.006C153.298 133.342 153.244 133.677 153.126 133.991C153.008 134.306 152.829 134.593 152.598 134.838C152.147 135.287 151.536 135.54 150.9 135.54C150.263 135.54 149.652 135.287 149.201 134.838V134.838C148.971 134.593 148.791 134.306 148.673 133.991C148.555 133.677 148.501 133.342 148.515 133.006V120.909C148.499 120.582 148.548 120.255 148.66 119.948C148.771 119.64 148.942 119.357 149.163 119.116C149.458 118.811 149.824 118.585 150.228 118.458C150.632 118.33 151.062 118.305 151.478 118.384C151.894 118.464 152.284 118.645 152.613 118.913C152.942 119.18 153.199 119.525 153.361 119.917C153.742 119.371 154.242 118.919 154.824 118.595C155.406 118.271 156.054 118.084 156.719 118.047C157.054 118.042 157.387 118.107 157.696 118.239C158.005 118.37 158.283 118.565 158.512 118.81C158.974 119.278 159.234 119.908 159.237 120.566" fill="white"/>
<path fill-rule="evenodd" clip-rule="evenodd" d="M171.869 120.907C171.922 121.342 171.826 121.782 171.598 122.156C171.369 122.53 171.021 122.816 170.61 122.967C169.752 123.196 168.861 123.274 167.977 123.196V133.118C167.99 133.453 167.936 133.788 167.818 134.103C167.7 134.418 167.521 134.705 167.29 134.949C166.839 135.399 166.228 135.652 165.592 135.652C164.955 135.652 164.344 135.399 163.893 134.949V134.949C163.663 134.705 163.483 134.418 163.365 134.103C163.247 133.788 163.193 133.453 163.207 133.118V123.196C162.448 123.263 161.685 123.132 160.993 122.815C160.669 122.622 160.409 122.339 160.246 121.999C160.083 121.66 160.025 121.279 160.077 120.907C160.026 120.535 160.089 120.156 160.26 119.821C160.431 119.487 160.7 119.213 161.031 119.037C161.716 118.738 162.461 118.608 163.207 118.655V116.556C163.207 114.076 164.008 112.74 165.611 112.74C167.213 112.74 168.053 113.961 168.053 116.556V118.655C168.937 118.618 169.822 118.695 170.686 118.884C171.094 119.028 171.441 119.307 171.67 119.675C171.899 120.042 171.996 120.477 171.945 120.907" fill="white"/>
<path d="M79.5195 64.125C87.4568 72.5202 94.7835 73.7795 124.052 73.7795C153.321 73.7795 140.385 80.3048 122.373 96.6755C128.097 86.6776 147.712 77.8245 115.543 78.3205C84.6711 78.7785 82.8395 69.3148 79.5195 64.2777" fill="white"/>
<path d="M100.279 104.462C100.279 105.339 100.018 106.196 99.5302 106.925C99.0421 107.654 98.3485 108.221 97.5374 108.555C96.7264 108.889 95.8344 108.974 94.9747 108.8C94.115 108.627 93.3265 108.201 92.709 107.578C92.0915 106.955 91.6727 106.163 91.5062 105.302C91.3398 104.441 91.4329 103.549 91.7738 102.741C92.1147 101.933 92.688 101.244 93.421 100.763C94.1539 100.281 95.0134 100.028 95.8905 100.035C96.47 100.035 97.044 100.15 97.5789 100.373C98.1138 100.596 98.5993 100.923 99.0073 101.334C99.4153 101.746 99.7377 102.234 99.956 102.771C100.174 103.308 100.284 103.882 100.279 104.462V104.462Z" fill="white"/>
<path d="M120.392 104.462C120.392 105.339 120.132 106.196 119.643 106.925C119.155 107.654 118.462 108.221 117.651 108.555C116.84 108.889 115.948 108.974 115.088 108.8C114.228 108.627 113.44 108.201 112.822 107.578C112.204 106.955 111.786 106.163 111.62 105.302C111.453 104.441 111.546 103.549 111.887 102.741C112.228 101.933 112.801 101.244 113.534 100.763C114.267 100.281 115.127 100.028 116.004 100.035C116.583 100.035 117.157 100.15 117.692 100.373C118.227 100.596 118.712 100.923 119.12 101.334C119.528 101.746 119.851 102.234 120.069 102.771C120.288 103.308 120.397 103.882 120.392 104.462V104.462Z" fill="white"/>
</g>
</g>
<defs>
<clipPath id="clip0_5535_2414">
<rect width="216" height="206.929" fill="white"/>
</clipPath>
<clipPath id="clip1_5535_2414">
<rect width="127" height="78.6933" fill="white" transform="translate(45 64)"/>
</clipPath>
</defs>
</svg>
