<svg width="216" height="207" viewBox="0 0 216 207" fill="none" xmlns="http://www.w3.org/2000/svg">
<g clip-path="url(#clip0_5527_1135)">
<rect width="216" height="206.929" fill="#151517"/>
<g clip-path="url(#clip1_5527_1135)">
<path d="M58.2727 100.26C55.9421 98.9142 54.1206 96.8371 53.0907 94.3508C52.0609 91.8645 51.8802 89.1078 52.5767 86.5083C53.2733 83.9089 54.8081 81.6118 56.9431 79.9736C59.0782 78.3353 61.6942 77.4473 64.3853 77.4473C67.0765 77.4473 69.6925 78.3353 71.8275 79.9736C73.9626 81.6118 75.4974 83.9089 76.1939 86.5083C76.8905 89.1078 76.7098 91.8645 75.6799 94.3508C74.65 96.8371 72.8285 98.9142 70.4979 100.26L66.8171 93.8844C67.7443 93.349 68.469 92.5227 68.8787 91.5336C69.2884 90.5445 69.3603 89.4478 69.0832 88.4136C68.8061 87.3795 68.1955 86.4657 67.3461 85.8139C66.4967 85.1622 65.456 84.8089 64.3854 84.8089C63.3147 84.8089 62.274 85.1622 61.4246 85.8139C60.5753 86.4657 59.9647 87.3795 59.6876 88.4136C59.4105 89.4478 59.4823 90.5445 59.8921 91.5336C60.3018 92.5227 61.0264 93.349 61.9536 93.8844L58.2727 100.26Z" fill="white"/>
<path d="M84.4538 103.219C86.7844 104.564 88.6059 106.641 89.6358 109.128C90.6657 111.614 90.8464 114.371 90.1498 116.97C89.4533 119.57 87.9185 121.867 85.7834 123.505C83.6484 125.143 81.0324 126.031 78.3412 126.031C75.6501 126.031 73.0341 125.143 70.899 123.505C68.764 121.867 67.2292 119.57 66.5326 116.97C65.8361 114.371 66.0168 111.614 67.0466 109.128C68.0765 106.641 69.898 104.564 72.2286 103.219L75.9094 109.594C74.9822 110.129 74.2576 110.956 73.8479 111.945C73.4382 112.934 73.3663 114.031 73.6434 115.065C73.9205 116.099 74.5311 117.013 75.3805 117.665C76.2298 118.316 77.2706 118.67 78.3412 118.67C79.4118 118.67 80.4525 118.316 81.3019 117.665C82.1513 117.013 82.7619 116.099 83.039 115.065C83.3161 114.031 83.2442 112.934 82.8345 111.945C82.4248 110.956 81.7001 110.129 80.773 109.594L84.4538 103.219Z" fill="white"/>
<path d="M62.9266 113.808C62.9266 116.499 62.0386 119.115 60.4003 121.25C58.762 123.385 56.465 124.92 53.8655 125.616C51.266 126.313 48.5093 126.132 46.0229 125.102C43.5365 124.073 41.4595 122.251 40.1139 119.92C38.7683 117.59 38.2293 114.88 38.5806 112.212C38.9318 109.544 40.1537 107.066 42.0567 105.163C43.9597 103.26 46.4374 102.038 49.1056 101.687C51.7738 101.336 54.4833 101.875 56.814 103.22L53.1331 109.596C52.2059 109.06 51.1279 108.846 50.0664 108.986C49.005 109.125 48.0193 109.612 47.2622 110.369C46.5051 111.126 46.019 112.111 45.8793 113.173C45.7395 114.234 45.954 115.312 46.4893 116.239C47.0246 117.167 47.8509 117.891 48.8401 118.301C49.8292 118.711 50.9259 118.783 51.9601 118.506C52.9942 118.228 53.9081 117.618 54.5598 116.768C55.2116 115.919 55.5649 114.878 55.5649 113.808L62.9266 113.808Z" fill="white"/>
<path fill-rule="evenodd" clip-rule="evenodd" d="M100.685 90.6849C102.416 90.5291 104.169 90.5305 105.894 90.7781C106.957 90.9646 108.084 91.2415 108.882 92.0166C109.718 92.9487 109.925 94.247 110.107 95.4415C110.408 97.921 110.374 100.435 110.107 102.917C109.929 104.116 109.754 105.437 108.962 106.422C108.096 107.301 106.831 107.551 105.633 107.736C103.902 107.952 102.144 108.003 100.406 107.83C99.2291 107.697 98 107.502 96.9973 106.831C96.3488 106.431 96.0012 105.694 95.7642 104.989C95.2888 103.522 95.2289 101.964 95.1649 100.435C95.157 98.415 95.1956 96.3737 95.5911 94.3895C95.8041 93.4614 96.0625 92.4413 96.8468 91.8235C97.9521 91.0218 99.3543 90.8287 100.677 90.6916L100.685 90.6849ZM100.971 93.4547C102.44 93.3375 103.94 93.3016 105.392 93.5879C105.955 93.7011 106.62 93.9874 106.724 94.6159C107.163 96.4189 107.062 98.2979 107.079 100.142C107.026 101.454 107.055 102.808 106.616 104.064C106.232 104.889 105.187 104.956 104.398 105.076C102.818 105.165 101.176 105.245 99.6446 104.776C98.9388 104.59 98.7124 103.844 98.6059 103.194C98.3129 101.309 98.4061 99.3898 98.4461 97.4896C98.526 96.4243 98.5127 95.319 98.8949 94.2936C99.3343 93.6278 100.242 93.5546 100.972 93.4441L100.971 93.4547ZM116.455 96.4282C117.52 95.7598 118.815 95.6506 120.029 95.7624C121.161 95.8596 122.421 96.2445 123.028 97.2885C123.752 98.5988 123.794 100.146 123.844 101.607C123.812 103.109 123.784 104.678 123.178 106.075C122.824 106.923 122.009 107.478 121.138 107.699C119.804 108.027 118.337 108.063 117.05 107.53C116.355 107.258 115.874 106.667 115.476 106.061V112.927H112.523V95.8783H115.375L115.295 97.6334C115.648 97.2033 115.961 96.7279 116.458 96.4322L116.455 96.4282ZM117.414 97.9623C118.237 97.8997 119.108 97.8824 119.877 98.2206C120.365 98.431 120.623 98.9464 120.71 99.4457C120.965 100.735 120.933 102.066 120.843 103.371C120.752 104.16 120.626 105.18 119.758 105.485C118.755 105.812 117.611 105.834 116.62 105.45C115.699 105.051 115.591 103.945 115.502 103.08C115.448 101.751 115.368 100.385 115.768 99.0928C115.968 98.3604 116.727 98.0275 117.427 97.961L117.414 97.9623ZM127.361 96.4376C128.806 95.6959 130.498 95.6692 132.084 95.7451C133.416 95.8556 135.006 96.0754 135.733 97.3391C136.553 98.8638 136.42 100.668 136.535 102.33H128.492C128.585 103.193 128.474 104.124 128.91 104.913C129.283 105.539 130.071 105.666 130.738 105.703C131.564 105.708 132.451 105.776 133.211 105.393C133.646 105.052 133.65 104.461 133.704 103.947H136.527C136.492 104.928 136.367 106.028 135.577 106.719C134.379 107.78 132.701 107.891 131.187 107.92C129.851 107.88 128.44 107.814 127.243 107.155C126.275 106.582 125.964 105.423 125.795 104.358C125.579 102.82 125.525 101.255 125.709 99.6974C125.859 98.479 126.188 97.0341 127.36 96.4123L127.361 96.4376ZM129.092 98.3085C129.895 97.8211 130.89 97.9183 131.79 97.9317C132.349 97.9916 133.029 98.0249 133.392 98.5176C133.762 99.1275 133.698 99.8758 133.698 100.559C131.967 100.562 130.24 100.567 128.51 100.558C128.537 99.7959 128.477 98.8665 129.091 98.2939L129.092 98.3085ZM142.808 96.4442C143.825 95.7385 145.138 95.6399 146.337 95.7784C147.356 95.8849 148.434 96.2738 149.036 97.1527C149.569 97.8824 149.718 98.8105 149.726 99.6828L149.725 107.768H146.919L146.915 100.121C146.888 99.5642 146.909 98.9197 146.489 98.4909C146.041 98.0076 145.341 97.913 144.718 97.9183C143.963 97.9143 143.146 98.0435 142.563 98.5655C141.994 99.0502 141.764 99.8332 141.775 100.556L141.772 107.77H138.982V95.8783H141.725L141.632 97.9636C141.932 97.4003 142.245 96.8051 142.796 96.4482L142.808 96.4442ZM154.766 91.2149C156.307 90.6823 157.962 90.6237 159.56 90.5664C161.121 90.5744 162.753 90.589 164.211 91.2322C164.952 91.5412 165.466 92.2176 165.716 92.9633C166.124 94.0792 166.136 95.287 166.142 96.4615C165.068 96.4615 163.993 96.4642 162.92 96.4602C162.902 95.6346 162.965 94.7078 162.454 94.006C161.921 93.4774 161.127 93.4787 160.456 93.3975C159.058 93.3708 157.606 93.2816 156.268 93.7637C155.786 93.9168 155.536 94.3988 155.439 94.8636C155.164 96.11 155.162 97.3963 155.164 98.6681C155.18 100.367 155.154 102.09 155.517 103.763C155.613 104.375 156.176 104.751 156.74 104.885C158.045 105.21 159.408 105.152 160.741 105.085C161.436 104.995 162.283 104.948 162.72 104.31C163.186 103.548 163.119 102.612 163.083 101.757H166.337C166.323 103.108 166.299 104.503 165.809 105.782C165.543 106.45 165.034 107.017 164.345 107.273C163.017 107.806 161.548 107.839 160.154 107.939C158.521 107.966 156.867 107.926 155.271 107.546C154.335 107.302 153.313 106.872 152.878 105.943C152.324 104.712 152.223 103.343 152.079 102.02L151.926 96.7665C152.01 95.3483 152.139 93.8529 152.904 92.6171C153.312 91.9287 154.026 91.4985 154.769 91.2455L154.766 91.2149ZM166.851 90.7195L170.209 90.7355L173.594 101.064L174.766 105.075L176.064 100.739L179.316 90.7342L182.637 90.7142V91.0804L177.257 107.747C175.593 107.78 173.928 107.787 172.264 107.744L166.852 90.7209L166.851 90.7195Z" fill="white"/>
</g>
</g>
<defs>
<clipPath id="clip0_5527_1135">
<rect width="216" height="206.929" fill="white"/>
</clipPath>
<clipPath id="clip1_5527_1135">
<rect width="149" height="53.5061" fill="white" transform="translate(34 77)"/>
</clipPath>
</defs>
</svg>
