<svg width="100" height="100" viewBox="0 0 100 100" fill="none" xmlns="http://www.w3.org/2000/svg">
<g clip-path="url(#clip0_148_164)">
<path d="M96.8246 36.3977C96.2048 37.9358 95.0455 38.5442 93.427 38.5098C91.3724 38.4638 89.3178 38.5442 87.2631 38.4753C86.2989 38.4409 85.9546 38.7278 85.9661 39.7379C86.0235 43.7095 85.989 47.6925 85.989 51.664C85.989 52.0084 86.012 52.3527 85.9431 52.6856C85.7939 53.4317 85.3577 53.9253 84.5427 53.9368C83.6933 53.9368 83.1998 53.4776 83.0505 52.6741C82.9817 52.3413 83.0046 51.9969 83.0046 51.6526C83.0046 47.681 82.9817 43.698 83.0161 39.7265C83.0161 38.8082 82.7751 38.4638 81.8109 38.4753C78.9987 38.5098 78.9987 38.4753 78.9987 41.2875C78.9987 44.754 78.9987 48.209 78.9987 51.6755C78.9987 51.9854 79.0216 52.2953 78.9757 52.5938C78.8494 53.3973 78.4247 53.9253 77.5524 53.9368C76.6456 53.9368 76.1635 53.4317 76.0487 52.5708C76.0028 52.2379 76.0258 51.8821 76.0258 51.5492C76.0258 47.6121 76.0028 43.6636 76.0372 39.7265C76.0372 38.7967 75.7847 38.4409 74.8205 38.4868C73.2135 38.5557 71.5951 38.5442 69.9881 38.4868C69.1272 38.4638 68.8517 38.7738 68.8517 39.6232C68.8862 43.4914 68.8632 47.3711 68.8517 51.2393C68.8517 51.7214 68.8288 52.2035 68.7599 52.6741C68.6222 53.4891 68.1401 53.9712 67.2792 53.9482C66.4757 53.9253 66.0166 53.4661 65.8903 52.6971C65.81 52.2265 65.787 51.7444 65.787 51.2623C65.787 47.4285 65.764 43.5832 65.787 39.7494C65.787 38.8312 65.5345 38.4638 64.5588 38.4983C61.3793 38.6016 61.8843 38.0506 61.8614 41.2301C61.8269 44.5933 61.8614 47.945 61.8614 51.3082C61.8614 51.7559 61.8499 52.2035 61.781 52.6397C61.6548 53.4432 61.2071 53.9597 60.3462 53.9597C59.4853 53.9597 59.0147 53.4661 58.8999 52.6512C58.8311 52.1806 58.8081 51.6985 58.8081 51.2164C58.8081 47.417 58.7737 43.6062 58.8196 39.8068C58.8196 38.8426 58.5556 38.4524 57.5455 38.4983C55.973 38.5672 54.3889 38.5557 52.8164 38.4983C51.9211 38.4638 51.6226 38.7508 51.6341 39.6691C51.68 43.6406 51.6571 47.6236 51.6571 51.5952C51.6571 51.9051 51.6685 52.215 51.6341 52.5249C51.5308 53.3743 51.1291 53.9368 50.1993 53.9712C49.3384 53.9941 48.776 53.4432 48.6842 52.502C48.6497 52.192 48.6727 51.8821 48.6727 51.5722C48.6727 47.6351 48.6497 43.6865 48.6956 39.7494C48.6956 38.8197 48.4316 38.4983 47.4789 38.5098C44.6782 38.5327 44.6782 38.5098 44.6782 41.3334C44.6782 49.288 44.6782 57.2311 44.6782 65.1856C44.6782 65.9432 44.6667 66.5515 45.585 66.8615C46.2163 67.0795 46.4344 67.7338 46.2852 68.411C46.1359 69.0883 45.6653 69.49 44.9881 69.5474C44.3109 69.6048 43.6222 69.5933 42.9335 69.5933C36.2875 69.5933 29.6415 69.5933 22.9955 69.5933C21.5147 69.5933 21.4459 69.6737 21.4459 71.1888C21.4459 72.153 21.4459 73.1057 21.4459 74.0699C21.4459 75.5736 21.5262 75.6539 23.0069 75.6539C29.9629 75.6539 36.9188 75.6539 43.8747 75.6539C44.2535 75.6539 44.6323 75.631 44.9996 75.6884C45.7686 75.8032 46.2622 76.2508 46.3081 77.0428C46.3655 77.8922 45.8834 78.3858 45.0914 78.5809C44.793 78.6498 44.4831 78.6383 44.1731 78.6383C36.9762 78.6383 29.7792 78.6383 22.5822 78.6383C19.8733 78.6383 18.4615 77.215 18.45 74.5061C18.45 73.1057 18.4385 71.6939 18.45 70.2935C18.4844 68.1815 19.9537 66.7008 22.0772 66.6089C23.753 66.5401 24.591 65.6486 24.591 63.9345C24.591 55.911 24.591 47.8991 24.591 39.8757C24.591 38.5327 24.591 38.5327 23.2135 38.5327C21.1245 38.5327 19.0354 38.5327 16.9463 38.5327C15.2131 38.5327 14.1456 37.8096 13.7898 36.4551C13.4224 35.0548 13.939 33.9299 15.3967 33.0231C27.8738 25.2637 40.3623 17.5157 52.8279 9.72188C54.5037 8.67734 56.0418 8.67734 57.7062 9.72188C70.1488 17.4813 82.6029 25.2177 95.0685 32.9427C95.8834 33.4478 96.5147 34.0791 96.8476 34.9974V36.4322L96.8246 36.3977ZM93.4615 35.468C93.0712 35.204 92.9105 35.0892 92.7383 34.9859C80.5827 27.4216 68.427 19.8688 56.2829 12.2816C55.5368 11.811 54.9743 11.8339 54.2282 12.293C43.9091 18.7324 33.5786 25.1374 23.248 31.5538C21.2278 32.805 19.2076 34.0791 16.9808 35.468H93.4615V35.468ZM41.6708 52.5364C41.6708 48.2205 41.6479 43.9046 41.6823 39.5887C41.6823 38.7278 41.3954 38.4524 40.5574 38.4753C38.916 38.5212 37.2746 38.5212 35.6217 38.4753C34.7494 38.4524 34.4739 38.7967 34.5083 39.6232C34.5542 40.6792 34.5083 41.7467 34.5083 42.8027C34.5083 50.2407 34.5083 57.6672 34.5083 65.1053C34.5083 66.563 34.5083 66.563 36.0005 66.563C37.4009 66.563 38.8127 66.563 40.2131 66.563C41.1696 66.563 41.6479 66.0656 41.6479 65.0708C41.6479 60.8927 41.6479 56.7145 41.6479 52.5364H41.6708ZM27.5409 52.4331C27.5409 56.3357 27.5294 60.2384 27.5409 64.1411C27.5524 66.9762 27.1736 66.5286 30.0088 66.563C31.455 66.5745 31.455 66.563 31.455 65.0593C31.455 57.0474 31.455 49.0355 31.455 41.0235C31.455 38.0851 31.8338 38.5671 28.8724 38.4753C27.8508 38.4409 27.5065 38.7508 27.5179 39.8068C27.5753 44.0194 27.5409 48.232 27.5409 52.4331V52.4331Z" fill="#727272"/>
<path d="M49.1318 0C51.4734 0.516529 53.5165 1.54959 54.9628 3.53535C55.2498 3.92562 55.5253 4.33884 55.4564 4.84389C55.376 5.42929 55.0432 5.84252 54.4807 6.07208C53.8494 6.31313 53.264 6.17539 52.9082 5.65886C50.7502 2.52525 47.5133 2.89256 44.3567 2.93848C43.8287 2.93848 43.6795 3.32874 43.5188 3.70753C43.0826 4.7865 42.6694 5.87695 42.1988 6.94444C41.3724 8.78099 39.949 9.7337 37.9174 9.7337C32.6373 9.7337 27.3687 9.7337 22.0886 9.7337C20.0455 9.7337 18.6451 8.73508 17.8186 6.91001C17.3595 5.87695 16.9348 4.83242 16.556 3.76492C16.315 3.09917 15.9247 2.89256 15.2475 2.91552C14.0882 2.96143 12.9174 2.91552 11.758 2.93848C8.52112 3.00735 6.01882 5.47521 6.00735 8.71212C5.97291 15.427 5.99587 22.1419 5.99587 28.8567C5.99587 49.4835 5.99587 70.1102 5.99587 90.7484C5.99587 94.0542 7.79798 96.3039 10.8972 96.9008C11.3678 96.9927 11.8499 96.9927 12.332 96.9927C24.017 96.9927 35.702 96.9927 47.387 96.9927C50.601 96.9927 52.6097 95.5349 53.6198 92.5161C53.9757 91.4256 54.6414 90.9435 55.4679 91.1731C56.4091 91.4256 56.7649 92.2406 56.455 93.3999C55.4449 97.1648 52.0243 99.9426 48.0758 99.9541C35.9775 100 23.8907 100.011 11.7925 99.9541C6.81084 99.9426 3 95.994 3 91.0583C3 63.6823 3 36.2948 3 8.91873C3 4.54545 5.81221 1.10193 10.0822 0.160698C10.2773 0.114784 10.4725 0.0573921 10.6791 0H49.1318ZM30.112 2.94995C27.2654 2.94995 24.4302 2.94995 21.5836 2.94995C20.1296 2.94995 19.6705 3.6157 20.2062 4.9472C20.8949 6.68044 21.0441 6.78375 22.938 6.78375C27.3228 6.78375 31.7075 6.78375 36.0808 6.78375C38.1087 6.78375 39.4899 5.85017 40.2245 3.98301C40.6263 2.94995 40.6263 2.94995 39.4669 2.94995C36.3563 2.94995 33.2342 2.94995 30.1235 2.94995H30.112Z" fill="#727272"/>
<path d="M72.4207 56.084C78.8946 56.084 85.3684 56.084 91.8422 56.084C94.7692 56.084 96.0892 57.4155 96.0892 60.354C96.0892 68.1937 96.0892 76.045 96.0892 83.8847C96.0892 86.6625 94.7003 88.0399 91.9111 88.0399C78.929 88.0399 65.9469 88.0399 52.9648 88.0399C50.0952 88.0399 48.6719 86.6051 48.6719 83.747C48.6719 75.9416 48.6719 68.1248 48.6719 60.3195C48.6719 57.4844 50.0608 56.084 52.8959 56.084C59.4042 56.084 65.9125 56.084 72.4207 56.084V56.084ZM72.4092 71.6258C65.901 71.6258 59.3927 71.6372 52.873 71.6028C51.9432 71.6028 51.6218 71.8439 51.6333 72.808C51.6907 76.4008 51.6563 80.005 51.6563 83.5978C51.6563 84.9407 51.771 85.0555 53.137 85.0555C65.9813 85.0555 78.8372 85.0555 91.6815 85.0555C92.9901 85.0555 93.1048 84.9407 93.1048 83.6551C93.1048 80.0624 93.0704 76.4582 93.1278 72.8654C93.1393 71.8553 92.7949 71.5913 91.8193 71.6028C85.3454 71.6372 78.8716 71.6258 72.3863 71.6258H72.4092ZM72.3748 68.6414H90.5566C92.2478 68.6414 93.0934 67.7881 93.0934 66.0817C93.0934 65.0869 92.573 64.5895 91.5323 64.5895C79.1012 64.5895 66.67 64.5895 54.2389 64.5895C52.5171 64.5895 51.6601 65.4619 51.6677 67.2066C51.6677 68.6299 51.6677 68.6414 53.0566 68.6414C59.496 68.6414 65.9354 68.6414 72.3748 68.6414V68.6414ZM72.3519 61.6166C78.8601 61.6166 85.3684 61.6051 91.8652 61.6281C92.772 61.6281 93.1737 61.4215 93.1393 60.4343C93.1048 59.5505 92.9671 59.0454 91.8996 59.0454C78.9175 59.0684 65.9469 59.0569 52.9648 59.0684C51.794 59.0684 51.7251 59.252 51.6333 60.4917C51.553 61.5707 52.1039 61.6281 52.9304 61.6281C59.4042 61.6051 65.878 61.6166 72.3404 61.6166H72.3519Z" fill="#727272"/>
<path d="M29.8608 94.4565C25.8892 94.4565 21.9062 94.4565 17.9347 94.4565C17.5903 94.4565 17.246 94.4795 16.9131 94.4221C16.2359 94.2958 15.8112 93.8711 15.7308 93.1824C15.6505 92.4478 15.9719 91.9312 16.6606 91.6328C17.0509 91.4721 17.4641 91.4836 17.8773 91.4836C25.8663 91.4836 33.8438 91.4836 41.8328 91.4836C42.2001 91.4836 42.5903 91.5065 42.9462 91.6213C43.6349 91.8279 44.0596 92.333 44.0137 93.0676C43.9678 93.8481 43.4857 94.3187 42.7166 94.4335C42.3837 94.4794 42.0279 94.468 41.695 94.468C37.7579 94.468 33.8093 94.468 29.8723 94.468L29.8608 94.4565Z" fill="#727272"/>
<path d="M61.3123 22.7738C61.2893 26.091 58.4771 28.8803 55.1943 28.8229C51.8196 28.7655 49.237 26.0795 49.2599 22.636C49.2829 19.3876 52.0033 16.6787 55.2287 16.6787C58.5574 16.6787 61.3352 19.4565 61.3123 22.7623V22.7738ZM55.2517 19.7435C53.4725 19.7435 52.2328 20.9946 52.2328 22.7738C52.2328 24.5185 53.5414 25.8385 55.2631 25.8385C56.916 25.8385 58.3164 24.4266 58.3164 22.7508C58.3164 21.0405 56.9964 19.732 55.2517 19.732V19.7435Z" fill="#727272"/>
<path d="M58.7068 73.1406C61.7027 73.1406 64.1705 75.5626 64.182 78.524C64.1935 81.4969 61.7371 83.9648 58.7527 83.9648C55.7339 83.9648 53.3005 81.5773 53.2775 78.5699C53.2545 75.5855 55.688 73.1406 58.6953 73.1406H58.7068ZM61.1861 78.5929C61.1976 77.2614 60.1416 76.1594 58.8216 76.125C57.3409 76.0906 56.3308 77.0433 56.3193 78.5125C56.3078 79.9703 57.295 80.9804 58.7412 80.9804C60.0842 80.9804 61.1632 79.9129 61.1861 78.5929Z" fill="#727272"/>
<path d="M80.4102 82.1057C77.7128 82.1057 75.0039 82.1057 72.3065 82.1057C71.0668 82.1057 70.3436 81.5548 70.3322 80.648C70.3207 79.7526 71.0668 79.1328 72.272 79.1328C77.7472 79.1328 83.2109 79.1328 88.6862 79.1328C89.9029 79.1328 90.6145 79.7412 90.5916 80.6709C90.5801 81.5548 89.8799 82.0942 88.7091 82.1057C85.9428 82.1057 83.165 82.1057 80.3987 82.1057H80.4102Z" fill="#727272"/>
<path d="M80.584 73.9551C83.2929 73.9551 86.0018 73.9551 88.6992 73.9551C89.893 73.9551 90.5702 74.4831 90.6047 75.3669C90.6276 76.2622 89.9619 76.905 88.8025 76.905C83.2585 76.928 77.7029 76.928 72.1588 76.905C70.9995 76.905 70.3223 76.2508 70.3567 75.3554C70.3912 74.4716 71.0799 73.9551 72.2736 73.9551C75.0514 73.9551 77.8177 73.9551 80.5955 73.9551H80.584Z" fill="#727272"/>
</g>
<defs>
<clipPath id="clip0_148_164">
<rect width="93.8246" height="100" fill="white" transform="translate(3)"/>
</clipPath>
</defs>
</svg>
