<svg width="194" height="66" viewBox="0 0 194 66" fill="none" xmlns="http://www.w3.org/2000/svg">
<path d="M20.4708 26.379C17.9988 26.379 15.5278 26.405 13.0558 26.372C9.83275 26.3263 6.75195 25.0374 4.45665 22.7744C2.16134 20.5113 0.82898 17.449 0.73776 14.227C0.584649 11.1343 1.60006 8.09703 3.58241 5.71824C5.56477 3.33945 8.36912 1.79303 11.4388 1.38598C15.8078 0.806978 20.2268 1.24698 24.6168 1.17298C26.374 1.08742 28.1353 1.15098 29.8818 1.36298C32.7867 1.82968 35.4339 3.3061 37.3574 5.53238C39.281 7.75865 40.3576 10.5921 40.3978 13.534C40.4798 16.3034 39.6342 19.0208 37.9953 21.2547C36.3564 23.4886 34.0181 25.1109 31.3518 25.864C30.1034 26.2258 28.8084 26.4013 27.5088 26.385C25.1628 26.355 22.8168 26.377 20.4708 26.376V26.379ZM20.5538 5.97398C18.2918 5.97398 16.0298 5.96798 13.7678 5.97398C13.0136 5.94836 12.2597 6.02847 11.5278 6.21198C9.69659 6.7187 8.11001 7.86966 7.05993 9.45309C6.00985 11.0365 5.5669 12.9459 5.8126 14.8299C6.0583 16.714 6.9761 18.4459 8.39715 19.7071C9.81819 20.9682 11.6469 21.6738 13.5468 21.694C18.2368 21.778 22.9318 21.794 27.6208 21.694C28.6609 21.675 29.687 21.45 30.6397 21.0322C31.5925 20.6143 32.4529 20.0119 33.1715 19.2595C33.8901 18.5072 34.4524 17.62 34.8261 16.6491C35.1998 15.6782 35.3775 14.6429 35.3488 13.603C35.3075 11.5491 34.4552 9.59491 32.9781 8.16722C31.5009 6.73953 29.5189 5.9543 27.4648 5.98298C25.1648 5.95598 22.8568 5.97798 20.5528 5.97698" fill="white"/>
<path d="M62.1093 18.4099C64.7433 20.6199 67.1163 22.5989 69.4723 24.5989C70.0023 25.0489 71.0223 25.4989 70.8473 26.0589C70.6313 26.7499 69.5953 26.2669 68.9263 26.3799C65.5083 26.9559 62.9003 25.7109 60.4623 23.2679C57.4523 20.2519 54.0623 17.6149 50.8483 14.8009C50.5483 14.5419 50.1183 14.3689 50.0663 13.8719C50.4803 13.5449 50.9573 13.6909 51.3953 13.6889C55.2513 13.6749 59.1083 13.6979 62.9643 13.6709C63.8734 13.7408 64.7788 13.4964 65.5293 12.9788C66.2798 12.4611 66.8298 11.7014 67.0873 10.8269C67.2552 10.3063 67.3045 9.75478 67.2316 9.2127C67.1587 8.67062 66.9655 8.15172 66.666 7.69399C66.3666 7.23627 65.9686 6.85133 65.5011 6.56737C65.0336 6.2834 64.5086 6.10761 63.9643 6.05287C58.8953 5.92487 53.8223 5.99687 48.7513 5.97987C47.7343 5.97987 47.7823 6.67987 47.7823 7.36787C47.7823 12.8105 47.7823 18.2525 47.7823 23.6939C47.7823 26.7229 48.0263 26.3669 45.0763 26.3759C42.4343 26.3849 42.6583 26.5929 42.6563 23.9209C42.651 16.9722 42.651 10.0232 42.6563 3.07387C42.6563 1.16787 42.6563 1.16287 44.5043 1.16187C50.7497 1.16187 56.9954 1.16187 63.2414 1.16187C68.3734 1.16987 72.1903 4.72887 72.2253 9.51486C72.2633 14.6899 68.6923 18.2439 63.3613 18.3419C63.0733 18.3469 62.7863 18.3719 62.1123 18.4089" fill="white"/>
<path d="M179.506 16.0979C176.572 16.0979 173.639 16.0979 170.706 16.0979C169.346 16.0979 169.222 16.2919 169.901 17.5029C170.59 18.8114 171.635 19.8994 172.914 20.6421C174.193 21.3849 175.656 21.7525 177.135 21.7029C182.335 21.7589 187.53 21.7169 192.727 21.7239C193.135 21.7239 193.681 21.5549 193.912 21.9159C194.203 22.3719 193.702 22.7589 193.478 23.1329C191.527 26.3839 191.521 26.3799 187.719 26.3799C184.03 26.3799 180.342 26.3909 176.654 26.3799C174.998 26.3884 173.358 26.0708 171.825 25.4453C170.293 24.8198 168.899 23.8986 167.722 22.7342C166.546 21.5698 165.61 20.1852 164.969 18.6593C164.328 17.1333 163.993 15.496 163.985 13.8409C163.976 12.1857 164.294 10.545 164.919 9.01258C165.545 7.48012 166.466 6.08588 167.63 4.90945C168.795 3.73303 170.179 2.79746 171.705 2.15616C173.231 1.51487 174.868 1.1804 176.524 1.17187C181.847 1.12587 187.17 1.15987 192.493 1.16687C192.858 1.16687 193.328 1.02287 193.554 1.36687C193.842 1.80687 193.377 2.13487 193.175 2.46687C191.07 5.97187 191.065 5.96687 187.044 5.96687C183.565 5.96687 180.086 5.94187 176.608 5.98087C175.193 5.98126 173.806 6.37902 172.607 7.12883C171.407 7.87864 170.442 8.95035 169.822 10.2219C169.252 11.2309 169.382 11.4219 170.558 11.4219C177.348 11.4285 184.138 11.4329 190.928 11.4349C191.362 11.4349 191.951 11.2209 192.192 11.7009C192.424 12.1609 191.88 12.5089 191.718 12.9209C190.667 15.5989 188.754 16.4909 185.911 16.1389C183.778 15.9914 181.638 15.9744 179.504 16.0879" fill="white"/>
<path d="M90.5341 17.2389C92.1691 17.2389 93.8041 17.2069 95.4341 17.2499C96.3801 17.2749 96.6731 17.1029 96.0841 16.1769C94.3321 13.4215 92.6128 10.6455 90.9261 7.84888C90.3601 6.90788 90.0751 7.27388 89.6611 7.93788C87.6611 11.1379 85.6431 14.3129 83.6331 17.4999C81.9801 20.1199 80.3141 22.7319 78.6891 25.3689C78.5232 25.7054 78.259 25.9836 77.9315 26.1666C77.604 26.3496 77.2286 26.4289 76.8551 26.3939C75.6851 26.3349 74.5081 26.3529 73.3361 26.3869C72.3171 26.4159 72.1461 26.1069 72.7061 25.2409C74.9061 21.8309 77.0791 18.3969 79.2661 14.9759C81.7914 11.0259 84.3207 7.07754 86.8541 3.13088C88.6941 0.251877 91.8271 0.160877 93.6541 2.99688C98.3974 10.3489 103.119 17.7155 107.82 25.0969C108.52 26.1909 108.428 26.3429 107.161 26.3809C107.078 26.3746 106.994 26.3746 106.91 26.3809C103.886 26.9189 101.62 26.0719 100.53 22.9729C100.254 22.1889 99.5751 22.0349 98.7921 22.0399C95.3551 22.0629 91.9181 22.0229 88.4821 22.0649C88.0487 22.1182 87.6093 22.0369 87.2237 21.8321C86.838 21.6273 86.5246 21.3088 86.3261 20.9199C85.8461 20.0409 85.2641 19.2199 84.7001 18.3829C84.1001 17.4909 84.4291 17.2209 85.3801 17.2339C87.0981 17.2559 88.8161 17.2399 90.5351 17.2389" fill="white"/>
<path d="M19.0267 55.5928C19.0267 50.9738 19.0267 46.7498 19.0267 42.5248C19.0267 40.8358 19.0507 40.8248 20.6837 40.8118C21.4387 40.8118 22.1977 40.8648 22.9457 40.7988C24.0537 40.6988 24.4067 41.1628 24.3977 42.2458C24.3577 46.9328 24.3817 51.6208 24.3817 56.3078C24.3817 58.6078 24.3377 60.9078 24.3997 63.2128C24.4297 64.3318 24.0847 64.8038 22.9057 64.7698C18.6467 64.6488 19.8977 65.3498 17.6207 61.9798C14.9997 58.0998 12.4437 54.1798 9.8037 50.1868C9.3707 50.6598 9.5147 51.1308 9.5127 51.5458C9.4997 55.3958 9.5127 59.2458 9.5017 63.0968C9.5017 64.6328 9.3847 64.7348 7.8597 64.7528C7.1057 64.7608 6.3477 64.7108 5.5977 64.7638C4.5107 64.8408 4.1347 64.4028 4.1407 63.3068C4.1797 57.1128 4.1597 50.9188 4.1597 44.7248C4.1597 43.8458 4.2037 42.9648 4.1507 42.0888C4.0897 41.0888 4.5347 40.8068 5.4877 40.7888C9.0247 40.7398 9.0267 40.7098 10.9877 43.6498C13.4257 47.3085 15.861 50.9682 18.2937 54.6288C18.4487 54.8618 18.6327 55.0748 19.0267 55.5868" fill="white"/>
<path d="M126.086 1.16181C128.851 1.16181 131.615 1.14881 134.379 1.16881C135.552 1.17781 135.645 1.37881 135.065 2.39681C135.044 2.43281 135.022 2.46881 135 2.50481C132.932 5.97281 132.932 5.97281 128.842 5.97281C125.533 5.97281 122.224 5.96081 118.916 5.97281C117.867 5.93369 116.821 6.10396 115.839 6.47367C114.857 6.84338 113.958 7.40512 113.195 8.12607C112.432 8.84703 111.821 9.71274 111.397 10.6727C110.972 11.6326 110.743 12.6674 110.723 13.7168C110.733 14.7776 110.953 15.826 111.369 16.8019C111.784 17.7779 112.389 18.6621 113.147 19.404C113.906 20.1459 114.803 20.7308 115.788 21.1253C116.772 21.5198 117.825 21.716 118.886 21.7028C124.079 21.7478 129.274 21.7098 134.467 21.7238C134.903 21.7238 135.494 21.4948 135.742 21.9558C135.99 22.4168 135.414 22.7558 135.254 23.1658C134.196 25.9008 132.228 26.6608 129.354 26.4438C125.731 26.1698 122.071 26.3908 118.427 26.3748C116.769 26.3989 115.123 26.0923 113.585 25.473C112.047 24.8537 110.648 23.9341 109.469 22.768C108.29 21.6018 107.356 20.2125 106.72 18.6811C106.084 17.1496 105.76 15.5069 105.766 13.8488C105.75 12.1811 106.066 10.5269 106.696 8.98266C107.326 7.4384 108.257 6.03499 109.435 4.85427C110.613 3.67354 112.014 2.73913 113.556 2.10552C115.099 1.47191 116.753 1.15178 118.42 1.16381C120.975 1.14681 123.53 1.16381 126.085 1.16381" fill="white"/>
<path d="M29.0425 52.808C29.0425 49.335 29.0825 45.861 29.0205 42.39C28.9995 41.225 29.3055 40.766 30.5565 40.79C34.7875 40.857 39.0195 40.844 43.2505 40.796C44.3325 40.783 44.7505 41.127 44.7305 42.225C44.6675 46.031 45.0825 45.399 41.5365 45.448C39.6515 45.474 37.7635 45.513 35.8815 45.431C34.6925 45.38 34.2915 45.8489 34.3955 46.9679C34.4551 47.5514 34.4551 48.1395 34.3955 48.723C34.2565 49.955 34.6795 50.45 35.9955 50.387C38.1275 50.287 40.2685 50.393 42.4035 50.347C43.3575 50.327 43.7745 50.6389 43.7575 51.6349C43.6925 55.4899 44.2035 54.913 40.5415 54.959C38.9495 54.979 37.3555 55.0059 35.7655 54.9489C34.7105 54.9109 34.3335 55.349 34.3955 56.36C34.4402 57.2377 34.4402 58.1172 34.3955 58.9949C34.3595 59.8569 34.7165 60.18 35.5835 60.168C38.2225 60.134 40.8635 60.2059 43.5015 60.1349C44.6685 60.1039 45.0435 60.522 45.0165 61.654C44.9335 65.162 45.4245 64.737 41.9485 64.754C38.3035 64.773 34.6585 64.76 31.0135 64.754C29.0395 64.754 29.0385 64.754 29.0385 62.723C29.0385 59.4176 29.0385 56.112 29.0385 52.806" fill="white"/>
<path d="M137.962 13.0129C137.962 9.5379 137.997 6.0629 137.942 2.5889C137.924 1.4769 138.327 1.1209 139.406 1.1479C143.712 1.2549 143.032 0.530896 143.064 4.7849C143.103 9.93423 143.099 15.0836 143.054 20.2329C143.044 21.3709 143.39 21.7529 144.561 21.7439C150.932 21.6929 157.304 21.7169 163.676 21.7269C164.122 21.7269 164.732 21.5219 164.976 21.9269C165.268 22.4269 164.637 22.7949 164.46 23.2429C163.399 25.9289 161.45 26.5719 158.631 26.4519C152.857 26.2059 147.065 26.3819 141.279 26.3769C138.79 26.3769 137.968 25.5479 137.966 23.0579C137.962 19.7092 137.962 16.3602 137.966 13.0109" fill="white"/>
<path d="M57.1176 40.812C59.9246 40.812 62.7326 40.8439 65.5386 40.7959C66.5326 40.7789 66.8746 41.165 66.8636 42.118C66.8196 46.071 67.2376 45.3799 63.6536 45.4459C62.8583 45.4842 62.0615 45.4805 61.2666 45.4349C60.1536 45.3349 59.8206 45.794 59.8296 46.881C59.8726 52.236 59.8506 57.5919 59.8476 62.9479C59.8476 64.7329 59.8266 64.748 58.0116 64.756C57.2996 64.756 56.5846 64.7139 55.8756 64.7639C54.7876 64.8419 54.4216 64.3989 54.4306 63.3039C54.4746 57.9489 54.4506 52.5929 54.4496 47.2369C54.4496 45.4519 54.4496 45.4519 52.6496 45.4479C51.2676 45.4479 49.8846 45.4349 48.5026 45.4479C47.7866 45.4479 47.4136 45.166 47.4216 44.408C47.4646 39.987 46.8976 40.9079 50.7026 40.8229C52.8386 40.7769 54.9756 40.815 57.1126 40.816" fill="white"/>
<path d="M107.666 49.3639C107.556 51.6889 107.886 54.4999 107.418 57.2879C106.894 60.4109 105.736 63.1689 102.506 64.3229C98.8942 65.6129 95.2952 65.5779 92.1192 63.1229C90.1832 61.6229 89.4872 59.3679 89.2262 57.0369C88.6622 51.9899 89.0542 46.9179 88.9592 41.8569C88.9452 41.1259 89.2782 40.8399 90.0202 40.7999C92.2722 40.6759 92.3202 40.6999 92.3202 42.9999C92.3202 46.5579 92.3202 50.1159 92.3202 53.6739C92.2977 55.2242 92.4998 56.7696 92.9202 58.2619C93.6832 60.8359 95.4552 62.1049 98.2632 62.1559C99.4681 62.2653 100.673 61.9473 101.667 61.2577C102.661 60.5681 103.381 59.5508 103.7 58.3839C104.134 56.9388 104.334 55.4333 104.292 53.9249C104.28 50.0739 104.338 46.2249 104.262 42.3719C104.236 41.0339 104.773 40.7669 105.973 40.7719C107.15 40.7789 107.749 40.9949 107.685 42.3569C107.585 44.5289 107.658 46.7089 107.658 49.3569" fill="white"/>
<path d="M141.735 52.7799C141.735 49.2649 141.769 45.7499 141.715 42.2369C141.698 41.1459 142.042 40.7759 143.151 40.7899C147.172 40.8433 151.194 40.8433 155.216 40.7899C156.324 40.7759 156.684 41.1699 156.678 42.2449C156.672 43.2899 156.378 43.7559 155.24 43.7329C152.309 43.6729 149.375 43.7489 146.44 43.6959C145.385 43.6759 145.03 44.0609 145.067 45.0849C145.125 46.6729 145.122 48.2649 145.067 49.8539C145.033 50.8539 145.452 51.1539 146.41 51.1409C149.049 51.0969 151.689 51.1619 154.327 51.1109C155.395 51.0909 155.694 51.5309 155.7 52.5289C155.707 53.5629 155.435 54.0599 154.284 54.0289C151.684 53.9669 149.084 54.0559 146.493 53.9899C145.371 53.9619 145.019 54.3749 145.062 55.4509C145.128 57.0799 145.119 58.7149 145.062 60.3449C145.028 61.3669 145.4 61.7639 146.444 61.7449C149.418 61.6999 152.393 61.7719 155.367 61.7109C156.567 61.6859 156.967 62.1029 156.967 63.3109C156.973 64.5479 156.416 64.7759 155.359 64.7669C151.292 64.7336 147.228 64.7336 143.168 64.7669C142.101 64.7769 141.686 64.4359 141.704 63.3199C141.76 59.8059 141.725 56.2909 141.725 52.7769" fill="white"/>
<path d="M76.9402 65.0719C74.7668 65.0998 72.6052 64.7489 70.5522 64.0349C70.0814 63.7213 69.7342 63.2537 69.57 62.7123C69.4058 62.1709 69.4349 61.5893 69.6522 61.0669C69.9652 60.6739 70.3522 60.9239 70.6852 61.0429C72.1856 61.5762 73.7443 61.9284 75.3282 62.0919C76.9568 62.3166 78.6156 62.0662 80.1052 61.3709C80.6868 61.118 81.1844 60.705 81.5402 60.18C81.8959 59.6551 82.095 59.0398 82.1142 58.4059C82.1421 57.7937 81.989 57.1869 81.674 56.6611C81.3591 56.1354 80.8962 55.7142 80.3432 55.4499C78.9836 54.7051 77.5615 54.0804 76.0932 53.5829C74.5038 53.0449 73.0031 52.2738 71.6402 51.2949C70.8756 50.7355 70.2629 49.9937 69.8579 49.1372C69.4529 48.2807 69.2685 47.3365 69.3214 46.3905C69.3742 45.4445 69.6627 44.5267 70.1606 43.7206C70.6585 42.9145 71.35 42.2457 72.1722 41.7749C75.7922 39.6749 79.5722 40.0869 83.3232 41.4899C83.9772 41.7339 84.3732 43.9129 83.8962 44.3979C83.5582 44.7419 83.1792 44.4759 82.8532 44.3509C80.8523 43.5786 78.7032 43.2665 76.5652 43.4379C75.895 43.472 75.2358 43.6226 74.6172 43.8829C74.1051 44.0802 73.6576 44.4154 73.3242 44.8514C72.9908 45.2873 72.7846 45.807 72.7282 46.3529C72.6571 46.8986 72.7527 47.4531 73.0026 47.9434C73.2525 48.4337 73.6449 48.8369 74.1282 49.0999C75.3555 49.8239 76.6519 50.4235 77.9982 50.8899C79.5004 51.4178 80.949 52.0875 82.3242 52.8899C83.385 53.4603 84.2508 54.3351 84.8103 55.4017C85.3697 56.4683 85.5971 57.678 85.4632 58.8749C85.3833 60.1415 84.9166 61.353 84.1261 62.3458C83.3357 63.3387 82.2596 64.0651 81.0432 64.4269C79.7309 64.9038 78.3386 65.1218 76.9432 65.0689" fill="white"/>
<path d="M127.164 54.089C127.164 51.078 127.128 48.0659 127.182 45.0569C127.201 44.0099 126.837 43.657 125.805 43.697C124.217 43.762 122.621 43.659 121.033 43.731C119.878 43.783 119.611 43.257 119.621 42.231C119.632 41.26 119.873 40.79 120.968 40.798C126.244 40.84 131.52 40.84 136.796 40.798C137.858 40.79 138.062 41.303 138.052 42.188C138.042 43.053 138.012 43.777 136.816 43.729C135.353 43.669 133.885 43.715 132.416 43.717C130.534 43.717 130.531 43.717 130.53 45.547C130.53 51.36 130.536 57.1729 130.519 62.9849C130.519 63.5389 130.784 64.2949 130.134 64.5849C129.307 64.9124 128.387 64.9178 127.556 64.6C127.011 64.412 127.169 63.82 127.168 63.381C127.156 60.286 127.161 57.1919 127.161 54.0969" fill="white"/>
<path d="M115.967 52.7778C115.967 56.2888 115.913 59.8008 115.994 63.3108C116.026 64.6818 115.323 64.7658 114.279 64.7748C113.211 64.7838 112.563 64.6398 112.574 63.2978C112.628 56.2765 112.628 49.2545 112.574 42.2318C112.564 40.8698 113.248 40.7928 114.295 40.7888C115.358 40.7888 116.023 40.8888 115.995 42.2458C115.915 45.7548 115.968 49.2678 115.968 52.7788" fill="white"/>
</svg>
