<svg width="100" height="100" viewBox="0 0 100 100" fill="none" xmlns="http://www.w3.org/2000/svg">
<g clip-path="url(#clip0_500_2185)">
<path d="M0.192383 27.7962C1.27401 25.0863 3.30786 24.0645 6.17611 24.0703C28.4693 24.1128 50.7644 24.0935 73.0575 24.0935C73.4438 24.0935 73.8301 24.0761 74.2125 24.1109C75.2208 24.2055 75.947 24.9337 75.9663 25.8357C75.9856 26.7686 75.2324 27.5373 74.1797 27.6281C73.7973 27.661 73.409 27.6436 73.0247 27.6436C50.7315 27.6436 28.4364 27.6436 6.14328 27.6436C3.96843 27.6436 3.54737 28.055 3.54737 30.2086C3.54737 51.4742 3.54737 72.7398 3.54737 94.0054C3.54737 96.0161 4.05728 96.5356 6.03898 96.5356C35.046 96.5356 64.0549 96.5356 93.0619 96.5356C95.03 96.5356 95.5361 96.0103 95.5361 93.988C95.5361 73.8465 95.5361 53.7051 95.5361 33.5636C95.5361 33.1464 95.5206 32.7272 95.5554 32.312C95.6327 31.3984 96.4188 30.6741 97.2783 30.6934C98.1088 30.7127 98.8524 31.4138 98.9394 32.2791C98.9683 32.565 98.9567 32.8566 98.9567 33.1464C98.9567 53.5776 98.92 74.0069 98.9973 94.4381C99.0089 97.6057 96.7124 100.007 93.4115 99.9988C64.2751 99.9312 35.1387 99.9408 6.00421 99.9872C3.1321 99.9911 1.19096 98.9345 0.192383 96.2285V27.7962V27.7962Z" fill="#727272"/>
<path d="M77.1082 1.19336C80.1291 1.70134 83.0765 2.46234 85.7748 3.9631C93.1685 8.0733 97.5298 14.2985 98.7833 22.6869C98.9417 23.7434 98.9765 24.7961 98.9494 25.8545C98.9243 26.8627 98.1903 27.6025 97.271 27.6141C96.3941 27.6257 95.6582 26.9767 95.5539 25.9974C95.3375 23.9578 95.2178 21.9182 94.6461 19.9191C92.197 11.3645 84.3783 5.11427 75.4974 4.67389C75.0802 4.65264 74.6668 4.58311 74.2516 4.56186C73.4268 4.51937 72.8512 4.15046 72.5789 3.35276C72.3143 2.5763 72.6137 1.97947 73.1738 1.46377C73.2684 1.37685 73.3573 1.28414 73.45 1.19529C74.6707 1.19529 75.8914 1.19529 77.1121 1.19529L77.1082 1.19336Z" fill="#727272"/>
<path d="M49.4778 78.5683C37.5451 78.7286 26.4371 68.963 26.3908 55.4407C26.3463 42.6369 36.8362 32.3228 49.7404 32.3614C62.382 32.3981 72.8062 42.8629 72.6864 55.5527C72.559 68.9379 61.5901 78.7595 49.4778 78.5683V78.5683ZM69.1557 55.5044C69.1557 44.6321 60.464 35.925 49.5821 35.898C38.6982 35.8709 29.9756 44.5665 29.9176 55.4137C29.8616 65.7278 38.0357 75.1071 49.5454 75.1032C61.0975 75.0993 69.2117 65.7085 69.1557 55.5044V55.5044Z" fill="#727272"/>
<path d="M37.7888 84.9917C47.3592 84.9917 56.9297 84.982 66.5002 85.0091C67.3385 85.011 67.802 84.8159 68.1729 83.9873C69.3183 81.4242 71.4313 80.0722 74.1856 80.0626C76.9804 80.0529 79.1128 81.4165 80.2775 84.0163C80.6271 84.7947 81.0501 85.0265 81.869 85.011C84.6619 84.9608 87.4568 84.9878 90.2516 84.9956C91.6075 84.9994 92.3628 85.6078 92.3859 86.6817C92.4091 87.773 91.6114 88.5051 90.2516 88.5186C87.4896 88.5475 84.7276 88.5572 81.9656 88.5147C81.0964 88.5012 80.6193 88.7233 80.2137 89.5848C79.0606 92.0281 77.0364 93.3338 74.3227 93.384C71.5588 93.4342 69.4708 92.1498 68.2753 89.691C67.802 88.7175 67.2651 88.5108 66.2974 88.5128C47.4133 88.536 28.5273 88.5302 9.64321 88.5282C9.0657 88.5282 8.48432 88.5669 7.92419 88.3814C7.10331 88.111 6.59726 87.3674 6.70736 86.5292C6.82132 85.6581 7.34475 85.1423 8.21005 85.0187C8.58862 84.9647 8.97878 84.9878 9.36508 84.9878C18.839 84.9878 28.3148 84.9878 37.7888 84.9878V84.9917ZM74.2107 89.8571C76.007 89.859 77.4517 88.4433 77.415 86.7126C77.3783 85.011 75.9548 83.5875 74.2706 83.5643C72.538 83.5411 71.0315 84.9936 71.018 86.6991C71.0025 88.4548 72.4183 89.8532 74.2126 89.8552L74.2107 89.8571Z" fill="#727272"/>
<path d="M74.6567 9.28516C83.6671 9.69849 89.9695 16.5128 90.6725 24.2754C90.7092 24.6907 90.7923 25.104 90.7961 25.5193C90.8077 26.7496 90.0545 27.6149 89.0095 27.6149C88.0225 27.6149 87.3233 26.796 87.2712 25.583C87.0819 21.27 85.2605 17.8088 81.7858 15.2534C79.6303 13.6677 77.1753 12.9086 74.508 12.8159C73.2525 12.7715 72.4123 12.0085 72.476 10.9868C72.5417 9.94379 73.4167 9.26005 74.6586 9.28709L74.6567 9.28516Z" fill="#727272"/>
<path d="M74.5875 17.5375C78.6939 17.6032 82.4506 21.3464 82.5452 25.4643C82.5723 26.6676 81.933 27.5213 80.9383 27.6083C79.9416 27.6952 79.0589 26.9477 79.0377 25.7521C78.9933 23.162 76.7006 21.0741 74.3635 21.047C73.1525 21.0335 72.4108 20.1817 72.4745 19.1773C72.5382 18.1826 73.3939 17.5182 74.5875 17.5375V17.5375Z" fill="#727272"/>
<path d="M39.5189 55.5393C39.5189 52.4257 39.4996 49.3122 39.5247 46.1986C39.5421 44.0605 40.4421 42.805 42.167 42.326C43.0651 42.0769 43.8918 42.2584 44.6721 42.6833C50.621 45.9166 56.5816 49.1306 62.4997 52.418C65.1632 53.8975 65.1149 57.1057 62.4417 58.5775C56.6241 61.7818 50.7891 64.9572 44.9444 68.1132C42.1206 69.6372 39.5691 68.1132 39.5247 64.8799C39.4822 61.7664 39.515 58.6528 39.515 55.5393H39.5189ZM60.7072 55.5431C60.5643 55.3828 60.5315 55.321 60.4793 55.292C54.9302 52.2577 49.3772 49.233 43.8358 46.1832C42.984 45.7138 43.0458 46.2083 43.0458 46.7858C43.0516 52.5667 43.0477 58.3457 43.0516 64.1266C43.0516 65.1426 43.0709 65.1581 43.9922 64.6597C47.2661 62.8847 50.5322 61.0981 53.8022 59.3134C56.0813 58.0695 58.3586 56.8256 60.7092 55.5431H60.7072Z" fill="#727272"/>
</g>
<defs>
<clipPath id="clip0_500_2185">
<rect width="99" height="98.9981" fill="white" transform="translate(0 1)"/>
</clipPath>
</defs>
</svg>
