<?xml version="1.0" encoding="utf-8"?>
<!-- Generator: Adobe Illustrator 26.0.1, SVG Export Plug-In . SVG Version: 6.00 Build 0)  -->
<svg version="1.1" id="Layer_1" xmlns="http://www.w3.org/2000/svg" xmlns:xlink="http://www.w3.org/1999/xlink" x="0px" y="0px"
	 viewBox="0 0 115.82 48.61" style="enable-background:new 0 0 115.82 48.61;" xml:space="preserve">
<style type="text/css">
	.st0{fill:#AAAAAA;}
	.st1{fill:#E30009;}
</style>
<g>
	<g>
		<path class="st0" d="M115.82,48.61H0V17.79h115.82V48.61z M0.7,47.91h114.42V18.49H0.7V47.91z"/>
	</g>
</g>
<g id="_x39_XOnW3.tif">
	<g>
		<path class="st1" d="M10.78,33.1c-0.01-2.34,0.69-4.41,2.49-6c1.21-1.07,2.65-1.64,4.24-1.86c1.85-0.26,3.66-0.11,5.37,0.65
			c2.63,1.16,4.03,3.24,4.4,6.05c0.18,1.4,0.09,2.78-0.39,4.12c-1.07,3.02-3.34,4.55-6.41,5c-1.57,0.23-3.12,0.1-4.63-0.41
			c-2.95-1-4.87-3.52-5.06-6.63C10.76,33.71,10.78,33.41,10.78,33.1z M20.71,33.16c0.01,0,0.02,0,0.03,0c0-0.66,0.05-1.32-0.01-1.97
			c-0.05-0.59-0.15-1.19-0.36-1.74c-0.24-0.61-0.79-0.88-1.45-0.85c-0.63,0.04-1.08,0.38-1.28,0.97c-0.14,0.41-0.25,0.85-0.25,1.28
			c-0.03,1.52-0.03,3.04,0,4.56c0.01,0.43,0.11,0.87,0.25,1.28c0.22,0.61,0.68,0.96,1.36,0.98c0.7,0.02,1.19-0.29,1.45-0.92
			c0.13-0.32,0.24-0.67,0.25-1.01C20.74,34.89,20.71,34.03,20.71,33.16z"/>
		<path class="st1" d="M104.21,29.6c-0.95,1.19-1.84,2.3-2.72,3.4c-0.35,0.43-0.68,0.88-1.05,1.3c-0.23,0.25-0.23,0.43-0.03,0.71
			c1.28,1.76,2.54,3.54,3.81,5.32c0.09,0.13,0.18,0.26,0.3,0.44c-0.17,0.01-0.28,0.02-0.39,0.02c-1.58,0-3.16-0.01-4.74,0.01
			c-0.29,0-0.45-0.09-0.6-0.33c-0.86-1.32-1.74-2.64-2.62-3.95c-0.08-0.12-0.17-0.23-0.33-0.47c0,1.65,0,3.17,0,4.71
			c-1.69,0-3.32,0-4.98,0c0-5.06,0-10.11,0-15.19c1.64,0,3.28,0,4.97,0c0,2.75,0,5.48,0,8.22c0.03,0.01,0.07,0.02,0.1,0.03
			c0.09-0.12,0.18-0.25,0.26-0.37c0.79-1.18,1.59-2.35,2.36-3.54c0.16-0.24,0.32-0.33,0.6-0.32
			C100.79,29.61,102.44,29.6,104.21,29.6z"/>
		<path class="st1" d="M28.66,29.63c1.78,0,3.51,0,5.29,0c0,0.18,0,0.34,0,0.5c0,1.92,0,3.83,0,5.75c0,0.36,0.02,0.73,0.09,1.09
			c0.16,0.81,0.8,1.07,1.48,0.59c0.71-0.51,1.04-1.28,1.05-2.12c0.04-1.76,0.01-3.51,0.01-5.27c0-0.17,0-0.34,0-0.54
			c1.78,0,3.49,0,5.25,0c0,3.71,0,7.4,0,11.13c-1.73,0-3.46,0-5.23,0c0-0.94,0-1.87,0-2.8c-0.04-0.01-0.07-0.03-0.11-0.04
			c-0.09,0.17-0.18,0.34-0.28,0.5c-0.88,1.48-2.12,2.44-3.88,2.6c-1.87,0.17-3.34-1.02-3.62-2.88c-0.03-0.23-0.06-0.47-0.06-0.7
			c0-2.47,0-4.95,0-7.42C28.64,29.9,28.65,29.78,28.66,29.63z"/>
		<path class="st1" d="M82.72,41.09c-1.81-0.08-3.49-0.47-4.93-1.63c-2.66-2.14-2.67-7.43,1.33-9.3c2.37-1.11,4.8-1.1,7.18-0.02
			c2.31,1.05,3.44,3.24,3.18,5.91c-0.21,2.24-1.88,4.05-4.34,4.66C84.35,40.9,83.53,40.96,82.72,41.09z M83.88,35.25
			C83.87,35.25,83.87,35.25,83.88,35.25c-0.01-0.69,0.03-1.38-0.02-2.06c-0.05-0.69-0.51-1.1-1.13-1.11
			c-0.62-0.01-1.11,0.4-1.13,1.09c-0.05,1.36-0.05,2.72,0,4.08c0.03,0.74,0.62,1.17,1.28,1.08c0.57-0.07,0.96-0.49,1-1.16
			C83.91,36.54,83.88,35.9,83.88,35.25z"/>
		<path class="st1" d="M67.9,41.08c-1.1-0.07-2.17-0.21-3.19-0.62c-2.18-0.87-3.43-2.45-3.56-4.81c-0.13-2.41,0.83-4.31,3.01-5.41
			c2.35-1.19,4.81-1.2,7.21-0.15c2.3,1,3.57,3.25,3.33,5.7c-0.24,2.49-1.8,4.27-4.38,4.91C69.53,40.9,68.7,40.96,67.9,41.08z
			 M66.73,35.2c0.01,0,0.01,0,0.02,0c0,0.66-0.04,1.32,0.01,1.97c0.06,0.74,0.5,1.16,1.12,1.18c0.63,0.01,1.05-0.38,1.17-1.12
			c0.02-0.13,0.04-0.26,0.04-0.39c0-1.08,0.02-2.17-0.01-3.25c-0.01-0.33-0.1-0.67-0.24-0.96c-0.19-0.41-0.58-0.55-1.02-0.53
			c-0.42,0.02-0.74,0.21-0.89,0.6c-0.11,0.28-0.17,0.59-0.19,0.89C66.71,34.12,66.73,34.66,66.73,35.2z"/>
		<path class="st1" d="M53.04,37.45c0,0.82,0.01,1.58-0.01,2.34c0,0.14-0.13,0.34-0.25,0.4c-1.84,0.86-3.74,1.22-5.68,0.39
			c-1.36-0.59-2.04-1.72-2.06-3.2c-0.03-1.48-0.02-2.96,0-4.43c0.01-0.37-0.12-0.48-0.48-0.46c-0.42,0.03-0.85,0.01-1.3,0.01
			c0-0.96,0-1.89,0-2.89c0.42,0,0.86-0.04,1.29,0.01c0.51,0.06,0.72-0.15,0.86-0.61c0.25-0.79,0.56-1.57,0.86-2.35
			c0.04-0.11,0.17-0.28,0.27-0.28c1.24-0.02,2.48-0.01,3.77-0.01c0,1.09,0,2.13,0,3.22c0.92,0,1.79,0,2.7,0c0,0.97,0,1.9,0,2.89
			c-0.86,0-1.75,0-2.69,0c0,0.33,0,0.61,0,0.88c0,0.78,0.04,1.55-0.01,2.33c-0.11,1.73,1.25,2.11,2.39,1.86
			C52.78,37.52,52.88,37.49,53.04,37.45z"/>
		<path class="st1" d="M59.86,40.76c-1.75,0-3.47,0-5.22,0c0-5.08,0-10.13,0-15.2c1.74,0,3.46,0,5.22,0
			C59.86,30.61,59.86,35.66,59.86,40.76z"/>
	</g>
</g>
<g>
	<path class="st0" d="M14.95,18.52H0V0L14.95,18.52z M0.7,17.82h12.79L0.7,1.98V17.82z"/>
</g>
</svg>
