<svg width="231" height="127" viewBox="0 0 231 127" fill="none" xmlns="http://www.w3.org/2000/svg">
<g clip-path="url(#clip0_118_866)">
<path d="M32.2362 77.1889L32.2465 77.1884L32.2362 77.1919V77.1889Z" fill="#EEEEEE"/>
<path fill-rule="evenodd" clip-rule="evenodd" d="M32.2362 76.7436V77.1889C32.1752 77.1917 32.1203 77.1955 32.0691 77.199C31.9927 77.2043 31.9246 77.209 31.8564 77.209C31.2344 77.209 30.6127 77.2085 29.9911 77.2081H29.9879C28.1242 77.2068 26.2615 77.2055 24.3969 77.2158C24.0719 77.2158 24 77.1132 24 76.8052C24.0068 68.0078 24.0068 59.207 24 50.4096C24 50.1427 24.024 49.999 24.3593 49.999C26.5869 50.0059 28.8153 50.0067 31.0437 50.0076C33.2722 50.0084 35.5006 50.0093 37.7282 50.0161C39.2953 50.0196 40.8488 50.1427 42.3065 50.7895C45.4135 52.165 47.2681 54.5774 47.8634 57.8623C48.4657 61.1711 47.5486 64.083 45.0131 66.3893C43.6033 67.6725 41.8856 68.2987 40.0207 68.5998C38.5934 68.8294 37.1587 68.8187 35.7235 68.8081C35.1906 68.8041 34.6577 68.8002 34.125 68.8085C33.6084 68.8188 33.0916 68.829 32.575 68.8017C32.2533 68.7846 32.2362 68.9454 32.2362 69.1917C32.2408 70.8706 32.2393 72.5479 32.2377 74.2257L32.2377 74.2275C32.237 75.066 32.2362 75.9046 32.2362 76.7436ZM32.2545 56.6845C32.2575 56.6328 32.2608 56.575 32.2636 56.5072H32.267C32.267 56.5073 32.267 56.5072 32.267 56.5072L36.9412 56.5071C38.9532 56.5071 40.2535 58.0879 39.8908 60.076C39.6311 61.4943 38.6231 62.3749 37.1945 62.4403C37.1538 62.4422 37.1126 62.4434 37.0712 62.444C36.5789 62.4509 36.0863 62.4566 35.5935 62.4623C34.61 62.4737 33.6259 62.4851 32.6434 62.5056C32.3286 62.5124 32.2396 62.4166 32.2396 62.0984C32.2499 60.7952 32.2486 59.4938 32.2473 58.1915V58.1907L32.2473 58.1889C32.2469 57.7551 32.2465 57.3212 32.2465 56.8871C32.2465 56.8239 32.2501 56.7607 32.2545 56.6845Z" fill="#EEEEEE"/>
<path d="M121.574 77.83L121.579 77.8305C121.742 77.8486 121.905 77.8666 122.068 77.8865V77.8831H123.365C123.518 77.8661 123.671 77.8483 123.824 77.8306L123.825 77.8305L123.827 77.8302C124.135 77.7945 124.443 77.7587 124.751 77.7291C126.332 77.5785 127.847 77.1884 129.226 76.3912C131.512 75.0704 132.727 73.1336 132.501 70.4373C132.392 69.1165 131.892 67.9599 130.886 67.0531C130.054 66.3072 129.124 65.7221 128.06 65.3765C126.28 64.7948 124.46 64.3876 122.612 64.0865C121.976 63.9838 121.336 63.8572 120.727 63.6587C120.101 63.4569 119.936 62.8375 120.285 62.2866C120.521 61.9171 120.85 61.6467 121.274 61.5578C121.716 61.4654 122.174 61.4004 122.622 61.4038C123.977 61.4175 124.675 62.0094 124.942 63.3268H131.738C131.725 63.1986 131.716 63.0743 131.706 62.9528V62.9521C131.688 62.714 131.67 62.4868 131.632 62.2627C131.406 60.9419 130.869 59.8058 129.743 58.9949C128.932 58.4097 128.046 58.0026 127.084 57.763C124.474 57.1129 121.839 57.065 119.194 57.4996C117.692 57.7459 116.306 58.2797 115.098 59.231C113.469 60.5141 112.696 62.1942 112.963 64.2404C113.247 66.3893 114.427 67.9086 116.511 68.6819C117.692 69.1205 118.921 69.345 120.15 69.5696C120.58 69.6482 121.01 69.7267 121.438 69.8145L121.634 69.8545C122.485 70.0291 123.333 70.203 124.176 70.4065C124.658 70.5228 124.987 70.841 125.124 71.3406C125.322 72.0763 124.956 72.8086 124.142 73.2089C123.481 73.534 122.776 73.575 122.068 73.4279C120.867 73.1781 119.888 72.5177 119.806 71.0292C119.793 70.776 119.68 70.7179 119.444 70.7179C117.308 70.7247 115.17 70.7247 113.031 70.7247C112.972 70.7247 112.913 70.7317 112.833 70.7412C112.787 70.7465 112.735 70.7527 112.672 70.7589C112.688 70.9198 112.699 71.08 112.71 71.2389C112.734 71.587 112.757 71.9288 112.833 72.2577C113.236 74.0472 114.342 75.3304 115.868 76.2748C117.349 77.1919 119.029 77.4861 120.72 77.7257C121.004 77.7668 121.289 77.7984 121.574 77.83Z" fill="#EEEEEE"/>
<path d="M168.919 77.1713V77.1679H176.58C176.583 77.1408 176.586 77.1166 176.589 77.0945C176.596 77.0414 176.601 77.0003 176.601 76.9592C176.601 75.9294 176.601 74.8998 176.602 73.8703L176.602 73.8182C176.604 70.6816 176.606 67.5457 176.591 64.4081C176.584 63.2036 176.327 62.0368 175.834 60.9247C174.421 57.7288 170.904 56.7639 168.194 57.2224C166.346 57.5338 164.772 58.4303 163.331 59.5868C163.282 59.6254 163.233 59.6631 163.176 59.7067C163.122 59.7483 163.061 59.7953 162.986 59.8537C162.97 59.6685 162.952 59.4909 162.935 59.3187L162.935 59.3182C162.896 58.9276 162.86 58.5642 162.856 58.201C162.849 57.8828 162.746 57.8007 162.438 57.8007C160.375 57.8144 158.308 57.8144 156.241 57.8007C155.913 57.8007 155.817 57.8896 155.817 58.225C155.827 64.4115 155.827 70.5947 155.817 76.7812C155.817 77.1097 155.903 77.209 156.238 77.209C157.896 77.1987 159.553 77.2 161.211 77.2013C161.764 77.2017 162.317 77.2021 162.869 77.2021C162.954 77.2021 163.038 77.1948 163.128 77.1869C163.153 77.1847 163.178 77.1826 163.204 77.1805L163.235 77.1779L163.258 77.1763L163.28 77.1747V76.7162C163.28 75.5654 163.279 74.4145 163.278 73.2637V73.2518C163.277 70.9541 163.275 68.6563 163.28 66.3585C163.283 64.9864 164.128 63.7853 165.36 63.3713C166.845 62.8717 168.389 63.5766 168.762 64.9522C168.871 65.3525 168.912 65.7802 168.912 66.1943C168.92 68.9922 168.92 71.7901 168.919 74.588V74.598C168.919 75.2972 168.919 75.9965 168.919 76.6957V77.1679H168.916L168.919 77.1713Z" fill="#EEEEEE"/>
<path d="M69.5404 77.2055H76.36C76.4222 77.2055 76.4784 77.206 76.5291 77.2065C76.7727 77.2085 76.8902 77.2095 76.9459 77.1513C76.9978 77.097 76.9959 76.9912 76.9921 76.7867V76.7862C76.9909 76.7236 76.9896 76.6516 76.9896 76.5691C76.992 75.3273 76.9923 74.0855 76.9925 72.8437C76.993 70.609 76.9935 68.3742 77.0067 66.1395C77.017 64.9111 77.8792 63.7922 79.0324 63.3816C80.3087 62.9265 82.2762 63.3747 82.5568 65.3388C82.5944 65.6092 82.5944 65.8897 82.5944 66.1635C82.5944 66.8736 82.5946 67.5837 82.5947 68.2938V68.2989C82.5953 71.1355 82.5958 73.972 82.5876 76.8086C82.5876 77.1268 82.6766 77.2124 82.9914 77.2124C85.2976 77.2021 87.6039 77.2055 89.9102 77.2124C90.1771 77.2124 90.29 77.1576 90.29 76.8565C90.2832 74.7402 90.2815 72.6246 90.2797 70.5091C90.278 68.3936 90.2763 66.2781 90.2695 64.1617C90.2661 63.0736 90.0026 62.03 89.5783 61.0274C88.1959 57.7664 84.6578 56.7673 81.893 57.2327C80.0452 57.544 78.4712 58.444 77.0306 59.5971C76.9714 59.6437 76.9108 59.6876 76.836 59.7419L76.8355 59.7422L76.835 59.7426C76.7891 59.7759 76.7377 59.8132 76.6782 59.8572C76.6371 59.2857 76.6029 58.7998 76.5687 58.3139L76.568 58.3036C76.5512 58.0582 76.5428 57.9359 76.4773 57.8749C76.4123 57.8144 76.2908 57.8144 76.0486 57.8144H70.0297C69.7035 57.8144 69.5404 57.9763 69.5404 58.3002V77.2055Z" fill="#EEEEEE"/>
<path fill-rule="evenodd" clip-rule="evenodd" d="M54.3471 64.4447C53.8899 64.4469 53.4463 64.4491 53.003 64.4423C52.5155 64.4337 52.0277 64.4211 51.5397 64.4085L51.5393 64.4085C50.6709 64.3861 49.8019 64.3636 48.9345 64.3636C48.5478 64.3636 48.4623 64.1857 48.4383 63.8846C48.3459 62.8238 48.6162 61.8418 49.1056 60.9145C49.9815 59.2549 51.4324 58.3242 53.1946 57.8725C56.5411 57.0205 59.891 57.0821 63.2204 57.9889C64.0929 58.2284 64.8936 58.6424 65.6088 59.2104C66.7208 60.0967 67.2341 61.3046 67.501 62.6596C67.7333 63.8379 67.7488 65.0274 67.7643 66.2172V66.2176C67.7679 66.4995 67.7716 66.7816 67.7782 67.0634C67.7964 67.8619 67.8128 68.6604 67.8291 69.4589C67.8618 71.0556 67.8945 72.6524 67.9424 74.2491C67.9629 74.9403 68.0451 75.6315 68.1443 76.3193C68.1746 76.5218 68.2571 76.7164 68.3444 76.9224C68.3855 77.0193 68.4276 77.1187 68.4659 77.2227H68.0656C67.5058 77.2227 66.946 77.2217 66.3861 77.2207H66.3845C64.8437 77.218 63.3024 77.2154 61.7593 77.2329C61.3726 77.2363 61.1776 77.0824 61.0578 76.7676C60.9529 76.4915 60.8571 76.2124 60.7612 75.9334C60.7133 75.7938 60.6654 75.6543 60.6164 75.5152C60.5947 75.4549 60.5696 75.3946 60.5435 75.3319L60.5433 75.3316L60.5269 75.292C60.5214 75.2787 60.5158 75.2653 60.5103 75.2517C60.4907 75.2628 60.4732 75.2712 60.458 75.2785C60.4308 75.2916 60.4106 75.3014 60.3974 75.3167C59.0526 76.8736 57.2562 77.4895 55.2921 77.7393C53.7763 77.931 52.2912 77.7462 50.8815 77.1645C48.9413 76.3638 47.86 74.8616 47.5623 72.812C47.2783 70.8616 47.8087 69.1917 49.3588 67.8915C50.2005 67.1866 51.186 66.7862 52.2331 66.5536C53.2073 66.3347 54.1858 66.1371 55.1644 65.9394L55.1648 65.9393C55.9458 65.7815 56.7269 65.6237 57.506 65.4552C58.1938 65.3046 58.8884 65.1404 59.5385 64.8769C60.4042 64.5279 60.6677 63.6211 60.1373 62.858C59.9252 62.5501 59.5864 62.2729 59.2443 62.1258C58.2999 61.7186 57.3247 61.7665 56.3802 62.1669C55.5659 62.5124 55.2134 63.19 55.0971 64.0215C55.0848 64.1055 55.0799 64.1907 55.0749 64.2757C55.0716 64.3326 55.0683 64.3895 55.0629 64.4458V64.4423C54.8202 64.4423 54.583 64.4435 54.3494 64.4447H54.3471ZM60.3652 68.5333C60.384 68.5269 60.4027 68.5205 60.4214 68.5141C60.4484 68.5058 60.4767 68.5012 60.5101 68.4959C60.5317 68.4924 60.5554 68.4886 60.5822 68.4833C60.7321 69.4509 60.7056 70.3982 60.3642 71.3048C60.3627 71.3088 60.3613 71.3127 60.3598 71.3167C59.8876 72.569 58.8679 73.1302 57.6223 73.3697C57.2671 73.4384 56.9062 73.4812 56.5527 73.4581C56.3184 73.443 56.0878 73.3989 55.8647 73.3142C55.8368 73.3037 55.8091 73.2926 55.7814 73.2808C55.7684 73.2752 55.7553 73.2695 55.7423 73.2637C55.6311 73.2148 55.5198 73.1577 55.4117 73.0935C55.1608 72.9453 54.9282 72.76 54.7549 72.5451C54.7425 72.5298 54.7305 72.5145 54.7188 72.4991C54.262 71.8961 54.327 71.1559 54.8503 70.6702C54.9208 70.6046 54.9998 70.5437 55.0869 70.4884C55.5355 70.2047 56.0605 70.0196 56.5668 69.8411L56.6232 69.8212C57.0079 69.6832 57.3939 69.5481 57.7806 69.4146C58.3914 69.2032 59.0031 68.9957 59.6145 68.7883L59.6149 68.7882L59.6162 68.7877C59.8659 68.703 60.1156 68.6183 60.3652 68.5333Z" fill="#EEEEEE"/>
<path fill-rule="evenodd" clip-rule="evenodd" d="M108.87 77.2192H112.244L112.254 77.2227C112.213 77.0857 112.165 76.9538 112.119 76.8251C112.024 76.5616 111.934 76.311 111.909 76.0558C111.803 74.9609 111.727 73.859 111.693 72.7607C111.667 71.8571 111.655 70.9535 111.642 70.0503C111.63 69.0963 111.617 68.1427 111.587 67.19C111.575 66.82 111.57 66.4497 111.565 66.0794C111.548 64.9568 111.532 63.8336 111.334 62.7143C110.94 60.5141 109.743 59.0154 107.662 58.2113C106.229 57.657 104.72 57.4722 103.2 57.3387C101.794 57.2155 100.395 57.3011 98.9984 57.4824C97.6468 57.6604 96.3158 57.9341 95.1387 58.6458C93.1848 59.8264 92.1857 61.5612 92.2575 63.8675C92.2712 64.3191 92.3123 64.3465 92.7605 64.3568C93.2727 64.3705 93.7849 64.3845 94.2971 64.3986C95.3213 64.4267 96.3455 64.4549 97.3697 64.48C97.6947 64.4868 98.0182 64.4845 98.3463 64.4823C98.512 64.4811 98.679 64.48 98.8479 64.48C98.8574 64.4099 98.8656 64.3427 98.8737 64.2773L98.8738 64.2766C98.8888 64.1541 98.9031 64.0381 98.9231 63.9222C99.0395 63.231 99.3201 62.6254 99.9634 62.2866C101.024 61.7323 102.129 61.6946 103.221 62.1908C103.861 62.4782 104.237 63.0189 104.206 63.7306C104.172 64.4286 103.676 64.7913 103.063 65.0172C102.995 65.0411 102.927 65.0651 102.858 65.0822C102.647 65.1318 102.437 65.184 102.226 65.2362L102.226 65.2363C101.798 65.3426 101.369 65.449 100.935 65.5339C100.516 65.616 100.097 65.6941 99.677 65.7722L99.676 65.7724L99.675 65.7726C98.2243 66.0427 96.7745 66.3127 95.3577 66.7452C93.3217 67.3645 91.0907 69.0788 91.3165 72.3056C91.4739 74.5571 92.5279 76.2509 94.6494 77.1474C96.326 77.8557 98.0917 77.9891 99.8744 77.6298C101.541 77.2945 103.063 76.6649 104.2 75.3236C104.216 75.3025 104.245 75.291 104.281 75.2771C104.297 75.2707 104.315 75.2638 104.333 75.2551C104.358 75.3266 104.38 75.3948 104.402 75.461C104.435 75.5596 104.466 75.6537 104.501 75.7479C104.526 75.8188 104.552 75.8899 104.577 75.961C104.685 76.2603 104.792 76.5608 104.911 76.8565C105.017 77.1234 105.206 77.2363 105.52 77.2295C106.338 77.2119 107.158 77.2146 107.978 77.2173H107.98C108.277 77.2183 108.574 77.2192 108.87 77.2192ZM104.405 68.4835C104.405 68.4836 104.405 68.4834 104.405 68.4835L104.401 68.4799C104.369 68.4853 104.342 68.4886 104.318 68.4914C104.282 68.4957 104.255 68.499 104.23 68.5072C103.927 68.6107 103.623 68.7136 103.319 68.8164L103.318 68.8165C102.376 69.1354 101.435 69.4541 100.501 69.7904L100.385 69.8322C99.8634 70.0202 99.3303 70.2125 98.8684 70.5056C98.1567 70.9606 98.0506 71.8161 98.5263 72.521C98.7105 72.7925 98.9429 72.9971 99.2185 73.1419C99.333 73.2026 99.4549 73.2532 99.5835 73.2945C100.193 73.4861 100.812 73.4929 101.431 73.3697C102.407 73.1713 103.289 72.8086 103.857 71.9257C104.542 70.8616 104.511 69.6913 104.408 68.4869L104.405 68.4835Z" fill="#EEEEEE"/>
<path fill-rule="evenodd" clip-rule="evenodd" d="M154.766 67.3132C154.602 71.7102 152.782 75.0019 148.775 76.8907C147.153 77.6538 145.394 77.8386 143.615 77.8078C141.668 77.7736 139.796 77.4314 138.099 76.4288C135.297 74.7761 133.678 72.3158 133.185 69.1165C132.829 66.817 133.048 64.5792 134.229 62.5432C135.848 59.7442 138.28 58.0265 141.493 57.4722C143.854 57.065 146.202 57.1368 148.423 58.0676C151.772 59.4739 153.949 61.9171 154.599 65.5647C154.67 65.969 154.698 66.3812 154.725 66.7706C154.737 66.9579 154.75 67.1399 154.766 67.3132ZM141.737 72.0201C141.505 71.7741 141.31 71.484 141.165 71.1557C140.717 70.136 140.498 68.976 140.498 67.1899L140.501 67.1933C140.515 66.5055 140.607 65.4345 141.011 64.4182C141.408 63.4225 142.024 62.6286 143.119 62.3241C144.227 62.0168 145.394 62.3841 146.114 63.2647C146.149 63.307 146.183 63.3506 146.215 63.3953C146.729 64.0967 146.999 64.8906 147.136 65.7426C147.41 67.4193 147.355 69.0754 146.807 70.7008C146.476 71.6828 145.88 72.4253 144.878 72.7812C143.738 73.1831 142.523 72.8536 141.737 72.0201Z" fill="#EEEEEE"/>
<path d="M206.506 65.1051C206.567 65.1 206.637 65.0943 206.719 65.089H206.716C206.689 64.8926 206.67 64.6984 206.651 64.507V64.5062L206.651 64.5058C206.612 64.1106 206.574 63.7273 206.473 63.361C205.785 60.8974 204.153 59.2139 201.86 58.2113C199.551 57.2019 197.114 57.041 194.634 57.5098C192.786 57.8588 191.113 58.5706 189.737 59.8537C187.054 62.3585 186.052 65.4997 186.599 69.0754C187.225 73.1781 189.693 75.8539 193.525 77.2911C195.191 77.9173 196.954 77.9275 198.712 77.7291C200.841 77.4896 202.75 76.7402 204.365 75.2996C206.052 73.7906 207.014 71.9565 207 69.6605C206.996 69.3286 206.904 69.2089 206.548 69.2089C204.951 69.2222 203.355 69.221 201.758 69.2198C201.301 69.2195 200.845 69.2191 200.389 69.2191C200.31 69.2191 200.232 69.2251 200.153 69.2312C200.114 69.2343 200.074 69.2373 200.033 69.2397C200.01 69.3902 199.99 69.5377 199.97 69.6831L199.97 69.6835L199.97 69.6839L199.97 69.6845C199.933 69.9517 199.897 70.2113 199.848 70.4681C199.482 72.4322 197.347 73.3321 195.684 72.2132C194.986 71.7444 194.483 71.1045 194.213 70.3107C193.532 68.3124 193.528 66.3038 194.285 64.3328C194.719 63.1968 195.599 62.4953 196.841 62.4132C198.309 62.3174 199.534 63.2721 199.944 64.7777C200.023 65.0582 200.136 65.1267 200.41 65.1267C201.967 65.1185 203.522 65.119 205.078 65.1196H205.079C205.468 65.1197 205.858 65.1198 206.247 65.1198C206.327 65.1198 206.406 65.1133 206.506 65.1051Z" fill="#EEEEEE"/>
<path d="M178.178 77.185V57.8451H185.374V77.185H178.178Z" fill="#EEEEEE"/>
<path d="M178.178 50.0504V55.0632H185.378V50.0504H178.178Z" fill="#EEEEEE"/>
</g>
<defs>
<clipPath id="clip0_118_866">
<rect width="231" height="127" fill="white"/>
</clipPath>
</defs>
</svg>
