<svg width="100" height="100" viewBox="0 0 100 100" fill="none" xmlns="http://www.w3.org/2000/svg">
<g clip-path="url(#clip0_518_2496)">
<path d="M100 18.2199V70.6186C98.7685 73.6564 97.2429 74.6965 94.0112 74.701C92.2718 74.701 90.5302 74.7299 88.7907 74.6898C87.9132 74.6698 87.6037 75.0239 87.6304 75.8747C87.6727 77.1687 87.646 78.4626 87.6393 79.7589C87.617 83.0885 85.3898 85.3535 82.0758 85.3535C56.6794 85.3602 31.2829 85.3602 5.88651 85.3535C2.62593 85.3535 0.365354 83.0929 0.363127 79.8368C0.354218 63.3402 0.354218 46.8435 0.363127 30.3468C0.363127 27.035 2.62371 24.8168 5.96669 24.7989C7.89097 24.79 9.81747 24.7789 11.7417 24.8034C12.4923 24.8123 12.8264 24.5228 12.8086 23.7566C12.7796 22.574 12.8019 21.3891 12.8041 20.2065C12.8063 16.9704 13.8798 15.4003 16.891 14.2266H96.0001C98.0291 14.8635 99.3609 16.1976 100 18.2221V18.2199ZM44.0558 49.8324C31.2807 49.8324 18.5057 49.8324 5.72838 49.8324C4.6341 49.8324 4.08622 50.3921 4.08473 51.5116C4.08473 60.6141 4.08473 69.7143 4.08473 78.8168C4.08473 81.1063 4.60812 81.6319 6.89097 81.6319C31.6282 81.6319 56.3631 81.6319 81.1003 81.6319C83.3832 81.6319 83.9088 81.1041 83.911 78.8168C83.911 69.7143 83.911 60.6141 83.911 51.5116C83.911 50.3936 83.3639 49.8338 82.2696 49.8324C69.5302 49.8324 56.793 49.8324 44.0535 49.8324H44.0558ZM56.4878 17.8613C46.5636 17.8613 36.6415 17.8613 26.7172 17.8613C24.1248 17.8613 21.5324 17.8524 18.9422 17.8658C17.176 17.8747 16.5547 18.5139 16.5346 20.2956C16.5235 21.2199 16.5324 22.1464 16.5324 23.0707C16.5324 24.2169 17.1025 24.7908 18.2429 24.7923C39.4233 24.7923 60.6037 24.7923 81.7841 24.7923C85.4968 24.7923 87.6393 26.9348 87.6415 30.6497C87.646 40.084 87.6415 49.5183 87.6415 58.9526C87.6415 62.505 87.6772 66.0573 87.6215 69.6074C87.6037 70.701 87.989 71.0417 89.0446 70.9905C90.5213 70.9192 92.0068 70.9749 93.4879 70.9727C95.8487 70.9682 96.3587 70.4626 96.3587 68.1085C96.3587 52.3112 96.3587 36.5139 96.3587 20.7165C96.3587 18.3646 95.8509 17.8613 93.4812 17.8613C81.1515 17.8613 68.8197 17.8613 56.4901 17.8613H56.4878ZM43.9845 39.1753C34.9155 39.1753 25.8464 39.1753 16.7774 39.1753C13.038 39.1753 9.30077 39.1753 5.56134 39.1753C4.11146 39.1753 4.08918 39.2021 4.08696 40.6876C4.08473 41.9081 4.08696 43.1286 4.08696 44.3491C4.08696 45.5206 4.68161 46.107 5.87092 46.1085C31.3008 46.1085 56.7306 46.1085 82.1605 46.1085C82.3832 46.1085 82.6059 46.0907 82.8264 46.1085C83.6549 46.1776 83.94 45.7767 83.9221 44.9816C83.8887 43.5762 83.9155 42.1709 83.9132 40.7655C83.9132 39.7069 83.3743 39.1761 82.2963 39.1731C69.5257 39.1731 56.7551 39.1731 43.9845 39.1731V39.1753ZM44.0068 35.4515C53.5235 35.4515 63.0402 35.4515 72.5569 35.4515C75.9266 35.4515 79.2963 35.4315 82.666 35.4649C83.548 35.4738 83.9711 35.2177 83.9288 34.2667C83.8731 33.0484 83.9422 31.8257 83.9043 30.6052C83.8598 29.2399 83.1894 28.5963 81.8219 28.5272C81.5257 28.5116 81.2295 28.5206 80.9333 28.5206C56.3097 28.5206 31.6838 28.5206 7.06023 28.5206C6.76402 28.5206 6.4678 28.5116 6.17159 28.5272C4.80856 28.6007 4.14709 29.2466 4.10032 30.6185C4.06469 31.6898 4.08696 32.7633 4.08918 33.8368C4.08918 34.9118 4.62074 35.4508 5.68384 35.4537C18.4589 35.4537 31.234 35.4537 44.009 35.4537L44.0068 35.4515Z" fill="white"/>
<path d="M71.564 78.2513C66.5506 78.2557 62.5951 74.3359 62.584 69.3493C62.5729 64.2669 66.4882 60.3225 71.5461 60.3203C76.5684 60.3181 80.5194 64.2335 80.5283 69.2179C80.5372 74.3003 76.6196 78.2446 71.564 78.249V78.2513ZM71.535 74.494C74.3546 74.5185 76.7533 72.1154 76.7711 69.2468C76.7889 66.543 74.4415 64.1533 71.6909 64.0709C68.8847 63.9885 66.417 66.3559 66.3368 69.2067C66.2588 71.9862 68.6976 74.4673 71.535 74.494V74.494Z" fill="white"/>
<path d="M19.1207 72.9225C15.9024 72.9225 12.6841 72.9448 9.46811 72.9114C7.92245 72.8958 7.03381 71.5617 7.65073 70.2699C8.00708 69.5238 8.63069 69.2054 9.44584 69.2054C15.8801 69.2054 22.3167 69.1964 28.751 69.2143C30.0049 69.2165 30.7599 69.9871 30.7376 71.1074C30.7131 72.2098 29.9492 72.9114 28.6641 72.918C25.4837 72.9359 22.3033 72.9247 19.1229 72.9225H19.1207Z" fill="white"/>
<path d="M22.5523 78.2489C20.6303 78.2489 18.7082 78.2601 16.7862 78.2445C15.363 78.2333 14.5634 77.5162 14.5946 76.3291C14.6258 75.1888 15.3964 74.534 16.7906 74.5318C20.7082 74.5207 24.628 74.5207 28.5456 74.5318C29.9354 74.5362 30.7082 75.1955 30.7394 76.3336C30.7706 77.5184 29.9666 78.2333 28.5434 78.2445C26.5479 78.2601 24.5523 78.2489 22.5545 78.2489H22.5523Z" fill="white"/>
<path d="M11.1824 76.43C11.1623 77.4612 10.3828 78.2295 9.34498 78.2362C8.2648 78.2429 7.46079 77.4277 7.48084 76.3453C7.50088 75.3097 8.27816 74.5458 9.31602 74.5391C10.3962 74.5324 11.2002 75.3476 11.1802 76.43H11.1824Z" fill="white"/>
<path d="M92.9601 60.417C92.9534 61.4504 92.1851 62.2299 91.1516 62.2499C90.0692 62.27 89.2541 61.4682 89.2608 60.388C89.2675 59.3502 90.0336 58.5729 91.067 58.5551C92.1494 58.535 92.9646 59.3368 92.9601 60.417V60.417Z" fill="white"/>
<path d="M91.1496 63.8833C92.2253 63.9056 93.0071 64.7452 92.9603 65.8276C92.9135 66.8543 92.1095 67.5982 91.0694 67.5782C89.9959 67.5581 89.212 66.7163 89.261 65.6339C89.3077 64.6049 90.1095 63.861 91.1496 63.8833Z" fill="white"/>
</g>
<defs>
<clipPath id="clip0_518_2496">
<rect width="100" height="71.3564" fill="white" transform="translate(0 14)"/>
</clipPath>
</defs>
</svg>
