<svg width="100" height="100" viewBox="0 0 100 100" fill="none" xmlns="http://www.w3.org/2000/svg">
<g clip-path="url(#clip0_147_68)">
<path d="M10.8058 98.6824C7.93136 97.9718 5.61817 96.4845 4.1573 93.8387C3.4486 92.5536 3.01771 91.1816 3.01582 89.7037C3.00826 84.0454 3.00637 78.3872 3.01204 72.7289C3.01204 71.3663 3.74909 70.5423 4.92837 70.5253C6.14922 70.5083 6.90706 71.3418 6.90895 72.7573C6.91651 78.1018 6.90139 83.4445 6.9184 88.789C6.92596 91.295 7.9427 93.2245 10.2824 94.3244C11.1215 94.7175 12.0305 94.8403 12.9452 94.8403C35.1681 94.846 57.3929 94.8517 79.6158 94.8366C83.233 94.8347 85.5784 92.4667 85.6105 88.8514C85.6388 85.5819 85.5897 82.3124 85.6351 79.0448C85.6464 78.185 85.3383 77.9941 84.5408 77.996C75.3939 78.0186 66.245 77.926 57.1 78.0394C50.7255 78.1169 44.3472 73.4112 43.1301 66.2561C41.8658 58.8252 47.0667 51.432 54.5468 50.1469C55.4841 49.9863 56.4196 49.956 57.3627 49.956C66.3528 49.956 75.3428 49.956 84.3329 49.956C85.1884 49.956 85.6168 49.5252 85.618 48.6634C85.618 45.4884 85.6351 42.3134 85.6124 39.1385C85.5935 36.281 84.0721 34.1662 81.5737 33.4197C80.9898 33.2459 80.3945 33.2364 79.7992 33.2364C57.4496 33.2326 35.1001 33.2307 12.7524 33.2364C9.23348 33.2364 6.93918 35.542 6.92029 39.1139C6.89194 44.4887 6.91462 49.8653 6.90895 55.2401C6.90895 56.4534 6.34199 57.2282 5.37249 57.4116C4.10628 57.6497 3.05362 56.82 3.02149 55.5009C2.98559 54.1194 3.01015 52.7341 3.01015 51.3508C3.01015 47.1061 2.99504 42.8634 3.01582 38.6187C3.04039 33.4594 7.21511 29.2545 12.3688 29.2318C13.2305 29.228 13.8221 28.9464 14.4193 28.3473C22.7781 19.9544 31.1616 11.5786 39.5412 3.19889C41.1439 1.59629 41.9527 1.60007 43.5648 3.21212C45.0767 4.72212 46.5999 6.22268 48.091 7.75536C48.4954 8.17113 48.743 8.17869 49.1512 7.75914C50.6631 6.20378 52.209 4.68244 53.7436 3.14976C55.2687 1.62652 56.1267 1.61896 57.6348 3.12708C66.5928 12.085 75.5545 21.0373 84.4992 30.0085C85.4102 30.9213 86.5252 31.5979 87.334 32.626C88.7231 34.3873 89.5282 36.3415 89.5225 38.6093C89.5131 42.0356 89.5433 45.4619 89.5055 48.8883C89.496 49.7009 89.7153 50.0109 90.5638 49.9712C91.9132 49.9088 93.2682 49.9938 94.6176 49.9428C95.6665 49.9031 96.4602 50.2433 96.9988 51.1504V76.8016C96.481 77.7276 95.6835 78.0583 94.6384 78.0205C93.289 77.9714 91.934 78.0508 90.5865 77.9941C89.7701 77.9601 89.4923 78.2114 89.5036 79.0543C89.5452 82.5109 89.5093 85.9674 89.5244 89.424C89.5301 90.607 89.2976 91.7391 88.8478 92.8201C87.5117 96.0291 85.0454 97.8811 81.723 98.6824H10.8058ZM74.5397 74.0991C80.3812 74.0991 86.2247 74.0821 92.0663 74.118C92.9451 74.1236 93.1832 73.8515 93.1775 72.9916C93.1435 67.0555 93.1605 61.1176 93.1605 55.1815C93.1605 54.3071 92.7069 53.8693 91.7998 53.8681C81.088 53.8681 70.3782 53.8681 59.6664 53.8681C58.5042 53.8681 57.3476 53.8964 56.1853 53.9852C48.7373 54.5484 44.4587 62.9413 48.4406 69.2591C50.5025 72.5305 53.564 74.0726 57.3872 74.0934C63.1041 74.1217 68.8209 74.101 74.5378 74.101L74.5397 74.0991ZM78.0057 29.1883C77.7694 28.9105 77.6598 28.7631 77.5332 28.6365C70.467 21.5665 63.3913 14.506 56.344 7.41896C55.7676 6.83877 55.4671 7.0202 54.9947 7.49455C48.0041 14.506 40.9983 21.5041 34.0039 28.5117C33.8263 28.6894 33.5069 28.8085 33.5806 29.1883H78.0076H78.0057ZM19.1798 29.2053C22.0468 29.2053 24.6775 29.2053 27.3063 29.2053C27.6559 29.2053 27.8883 29.0031 28.1132 28.7782C33.8471 23.0444 39.5772 17.3048 45.3242 11.5823C45.7589 11.1496 45.6776 10.9001 45.2845 10.524C44.2848 9.56774 43.2794 8.61335 42.3571 7.58527C41.7467 6.90492 41.3725 6.93704 40.7319 7.58338C33.8206 14.5419 26.8773 21.4682 19.9433 28.404C19.7449 28.6025 19.5578 28.8085 19.178 29.2072L19.1798 29.2053Z" fill="white"/>
<path d="M4.98852 62.0382C6.09976 62.0533 6.92752 62.9208 6.90106 64.0415C6.8765 65.1584 6.01283 65.9635 4.87891 65.9276C3.79791 65.8935 3.00983 65.0715 3.01172 63.9791C3.0155 62.8603 3.86783 62.0212 4.98663 62.0363L4.98852 62.0382Z" fill="white"/>
<path d="M62.7361 64.0295C62.7267 67.2536 60.2283 69.7161 56.9758 69.7066C53.7441 69.6972 51.2854 67.2064 51.293 63.952C51.3005 60.7506 53.8311 58.2484 57.0533 58.2578C60.2472 58.2673 62.7456 60.8035 62.7361 64.0295ZM58.7882 63.9463C58.7598 62.9844 57.9831 62.27 56.9815 62.2851C55.9931 62.2984 55.2201 63.0657 55.239 64.0125C55.2579 64.9612 56.1745 65.8343 57.093 65.7814C57.9963 65.7304 58.8128 64.844 58.7863 63.9463H58.7882Z" fill="white"/>
</g>
<defs>
<clipPath id="clip0_147_68">
<rect width="94" height="96.6817" fill="white" transform="translate(3 2)"/>
</clipPath>
</defs>
</svg>
