<svg width="231" height="127" viewBox="0 0 231 127" fill="none" xmlns="http://www.w3.org/2000/svg">
<g clip-path="url(#clip0_632_3517)">
<g clip-path="url(#clip1_632_3517)">
<path d="M127.643 37.9207C127.641 37.9218 127.639 37.9229 127.638 37.924L127.637 37.9255L127.643 37.9207Z" fill="white"/>
<path fill-rule="evenodd" clip-rule="evenodd" d="M79.023 47.9798C78.789 68.1434 95.0646 84.4442 115.081 84.3902L115.084 84.3938C134.773 84.4082 151.106 68.3486 150.994 48.203C150.883 28.6262 135.219 12.5234 115.207 12.4262C95.0034 12.329 79.2498 28.4102 79.023 47.9798ZM134.052 42.5938L134.048 42.6762C132.129 43.5193 131.648 44.1818 131.733 45.8265C131.733 45.8267 131.734 45.8264 131.733 45.8265C131.733 45.8268 131.734 45.8268 131.734 45.827C133.524 45.2092 133.948 44.6439 134.049 42.6767C134.048 42.6768 134.048 42.6761 134.048 42.6762C134.048 42.6765 134.048 42.6759 134.048 42.6762C134.048 42.6761 134.048 42.6768 134.049 42.6767L134.113 42.6477L134.052 42.5938ZM134.113 42.6424L134.114 42.6466H134.118L134.113 42.6424L134.105 42.612C134.314 42.69 134.52 42.7811 134.727 42.8723C135.525 43.224 136.329 43.5781 137.3 43.1954C137.3 43.1949 137.3 43.1945 137.3 43.194C137.3 43.1939 137.3 43.194 137.3 43.194C137.294 43.1318 137.286 43.071 137.276 43.0119C137.216 42.6473 137.085 42.3403 136.897 42.0857C136.609 41.6955 136.189 41.428 135.687 41.2642C135.614 41.2407 135.54 41.2147 135.464 41.1882C135.412 41.1701 135.36 41.1517 135.307 41.1339C134.886 40.9908 134.441 40.8814 134.047 41.1595C133.953 41.2251 133.862 41.3124 133.776 41.4262C133.776 41.4265 133.776 41.4259 133.776 41.4262C133.776 41.4265 133.776 41.4276 133.775 41.4278C133.83 41.6245 133.882 41.813 133.934 41.9973C133.991 42.2048 134.048 42.407 134.103 42.6099L134.057 42.5926L134.113 42.6424ZM133.387 39.0538C133.491 38.2444 133.595 37.4348 133.711 36.539C134.576 36.9286 134.759 37.5886 134.94 38.2424C135 38.4586 135.059 38.6742 135.143 38.879C135.143 38.8799 135.143 38.8808 135.143 38.8818C135.143 38.8822 135.143 38.8826 135.143 38.883C135.133 38.9171 135.123 38.9513 135.112 38.9857C135.007 39.346 134.896 39.7205 134.759 40.1769C134.721 40.305 134.682 40.4396 134.639 40.5822C134.157 39.996 133.768 39.5234 133.386 39.0582C133.387 39.0568 133.387 39.0552 133.387 39.0538C133.387 39.0538 133.387 39.0539 133.387 39.0538ZM133.352 39.0118L133.343 39.0004V39.0021C133.269 38.9111 133.196 38.8185 133.123 38.7259C132.729 38.2254 132.336 37.7251 131.735 37.4794C131.595 37.4218 131.445 37.3781 131.28 37.3516C131.028 37.9583 130.948 38.4921 131.044 38.9549C131.217 39.7975 131.974 40.4034 133.343 40.787V39.0057L133.386 39.0594L133.386 39.0582L133.343 39.0057V39.003L133.352 39.0127L133.387 39.0538L133.352 39.0118ZM106.743 24.6546L106.744 24.6537C106.86 24.778 106.977 24.9002 107.095 25.0224C107.369 25.3064 107.643 25.5909 107.888 25.9005C108.301 26.4278 108.509 26.8795 108.519 27.3542C108.533 27.8324 108.344 28.3332 107.963 28.9574C106.567 28.1692 105.903 27.2043 105.989 25.9868C106.002 25.7884 106.035 25.5833 106.088 25.3714C106.134 25.1815 106.32 25.0255 106.505 24.8697C106.587 24.8003 106.669 24.731 106.739 24.6588C106.739 24.6586 106.74 24.6583 106.74 24.658L106.689 24.6073L106.706 24.6129L106.689 24.5938L106.709 24.6136L106.728 24.6201L106.738 24.6426L106.746 24.6514L106.744 24.6537L106.741 24.65L106.743 24.6546ZM106.728 24.6201C106.728 24.62 106.728 24.6202 106.728 24.6201C106.728 24.6192 106.728 24.6184 106.727 24.6176C106.467 23.9927 106.207 23.3706 105.937 22.7245C105.937 22.7245 105.937 22.7245 105.937 22.7245C105.937 22.7238 105.937 22.7229 105.937 22.7222C107.607 22.5078 108.624 23.337 108.849 25.1865C108.851 25.2095 108.854 25.2326 108.857 25.256C108.859 25.2784 108.861 25.301 108.864 25.3237C108.108 25.0729 107.417 24.8461 106.728 24.6201ZM101.724 34.3393C101.6 35.0449 101.478 35.7504 101.357 36.456C101.357 36.4581 101.357 36.4602 101.356 36.4622L101.296 36.4793L101.282 36.4833L101.326 36.5255L101.332 36.5345H100.408C100.411 36.5372 100.415 36.5399 100.419 36.5426H100.396C100.977 36.9616 101.561 37.3704 102.144 37.7777C103.483 38.7142 104.811 39.6432 106.055 40.6718C107.889 42.1857 109.307 44.0587 109.923 46.5815C109.167 46.546 108.584 46.521 107.834 46.489C108.398 46.2915 108.793 46.1527 109.216 46.0034C109.216 46.0023 109.215 46.0012 109.214 46.0001C109.219 45.9985 109.223 45.9969 109.228 45.9953C107.766 43.6373 106.402 43.0325 103.892 43.6085C103.893 43.6102 103.894 43.6118 103.895 43.6134C103.89 43.6145 103.886 43.6156 103.881 43.6166C104.434 44.7161 105.328 45.4426 106.606 46.2615C106.347 46.3076 106.126 46.3541 105.928 46.3955C105.561 46.4725 105.277 46.532 104.994 46.5389C103.291 46.5749 101.696 47.0609 100.13 47.6657C99.5669 47.8815 99.3103 48.0016 98.996 48.2772C98.7931 48.4527 98.5676 48.692 98.2218 49.0634C103.046 47.7206 107.801 46.7738 112.557 49.391C112.561 50.3317 112.568 51.2719 112.576 52.2115C112.64 60.3271 112.705 68.3969 110.343 76.2758C112.157 76.5818 114.785 76.5494 115.999 76.2182C115.998 76.2166 115.998 76.215 115.998 76.2134C116.002 76.2123 116.006 76.2112 116.01 76.2101C115.972 75.9079 115.933 75.6064 115.893 75.3052L115.893 75.3038C115.808 74.6582 115.723 74.0138 115.657 73.3661C115.535 72.1862 115.407 71.0068 115.279 69.8274L115.278 69.8192C114.935 66.669 114.593 63.5188 114.358 60.3593C114.2 58.2401 114.241 56.1037 114.283 53.9704L114.284 53.9313L114.284 53.9294C114.292 53.4961 114.301 53.063 114.307 52.6301C114.317 51.8531 114.41 51.076 114.503 50.3074C114.543 49.9694 114.584 49.6328 114.617 49.2988C120.15 46.4245 125.874 46.3316 131.72 47.1842C131.708 47.1792 131.696 47.1742 131.684 47.1692C131.699 47.1715 131.715 47.1738 131.731 47.1761C129.323 46.1789 126.842 45.6389 124.286 45.3005C121.622 44.9513 119.11 45.5165 116.496 46.3121C117.26 44.7091 119 42.843 120.959 41.3777C121.745 40.7895 122.567 40.2663 123.375 39.851C124.336 40.9216 125.258 41.2042 126.31 40.6708C126.68 40.485 127.067 40.1975 127.476 39.8069C127.077 39.6399 126.687 39.4774 126.292 39.3126L126.286 39.3101C125.901 39.1494 125.51 38.9863 125.1 38.8146C125.276 38.732 125.448 38.6499 125.618 38.5693C126.062 38.3572 126.486 38.1551 126.921 37.979C127.064 37.9197 127.233 37.9198 127.402 37.9198C127.479 37.9198 127.556 37.9199 127.63 37.9142C127.629 37.9184 127.627 37.9225 127.626 37.9266L127.576 37.9681L127.619 37.9809C127.619 37.9819 127.618 37.9829 127.618 37.9839C127.615 37.9829 127.611 37.9819 127.608 37.9809C127.206 39.2492 128.064 39.8548 128.977 40.4846C129.465 40.514 129.962 40.5434 130.493 40.5748L130.856 40.5962C130.856 40.5965 130.856 40.596 130.856 40.5962L130.867 40.5961C130.273 38.8429 130.039 38.6197 128.599 38.2705C128.364 38.2142 128.132 38.1412 127.901 38.0686C127.807 38.039 127.713 38.0093 127.619 37.9809C127.623 37.9669 127.628 37.9527 127.633 37.9385C127.739 37.8731 127.844 37.8021 127.948 37.731C128.208 37.5548 128.467 37.3784 128.754 37.2869C129.547 37.0329 130.352 36.8164 131.159 36.5997C131.495 36.5094 131.831 36.4189 132.167 36.3257C130.701 36.3115 129.282 36.4813 127.902 36.8019C126.136 37.2088 124.434 37.8614 122.777 38.6918C119.84 40.1622 117.532 42.3722 115.436 45.126C115.307 43.3004 115.382 41.753 116.15 40.3086V42.245C116.155 42.2435 116.159 42.242 116.164 42.2405V42.2476C118.67 41.4448 119.786 39.364 118.871 37.3516C118.867 37.3524 118.863 37.3533 118.859 37.3542C118.859 37.3525 118.858 37.3508 118.857 37.349C117.921 37.5577 117.405 38.2397 116.891 38.9206C116.738 39.1221 116.586 39.3236 116.423 39.5126C116.39 38.4466 116.912 37.5677 117.421 36.7119C117.484 36.6057 117.547 36.4999 117.608 36.3941C117.748 36.1537 117.884 35.9099 118.02 35.6658C118.735 34.3843 119.456 33.0927 120.716 32.2166C120.725 32.2099 120.735 32.2032 120.745 32.1965L120.741 32.2158L120.724 32.238L120.737 32.2346L120.737 32.2361L120.738 32.2343L120.782 32.2226C120.818 32.3115 120.851 32.4015 120.884 32.4914C120.97 32.721 121.055 32.9498 121.175 33.1586C121.77 34.1952 122.522 34.5527 123.635 34.3187C123.84 34.2764 124.057 34.2139 124.288 34.1316C123.457 32.4458 122.631 31.8797 121.223 32.1248C121.086 32.1483 120.943 32.1796 120.795 32.2183L120.779 32.1792L120.787 32.1677L120.777 32.1747L120.775 32.1696L120.766 32.1823L120.745 32.1965C120.746 32.1914 120.747 32.1862 120.748 32.1811C120.909 31.4516 121.425 30.991 121.937 30.5343C122.124 30.3674 122.311 30.201 122.479 30.0221C123.014 29.4523 123.606 28.9353 124.197 28.4184C124.465 28.1842 124.733 27.95 124.996 27.7109C124.983 27.7157 124.971 27.7204 124.959 27.7252C124.963 27.7219 124.966 27.7187 124.97 27.7154C122.389 28.7162 120.207 30.2426 118.414 32.2802C115.776 35.283 114.178 38.7697 113.48 42.7793C113.321 42.0089 113.16 41.2368 112.993 40.4318L112.99 40.4177C112.822 39.6074 112.647 38.7637 112.458 37.855C113 38.449 113.353 38.8374 113.731 39.2534C113.734 39.2466 113.738 39.2397 113.742 39.2329C113.747 39.2383 113.752 39.2436 113.756 39.2489C115.096 36.8225 114.991 35.3753 113.4 33.4025C113.395 33.4076 113.391 33.4126 113.386 33.4176C113.383 33.4141 113.381 33.4106 113.378 33.407C112.334 34.546 112.388 35.9663 112.452 37.6246C112.452 37.6414 112.453 37.6581 112.454 37.6749C109.755 31.4731 107.446 28.945 104.375 28.7369C104.378 28.7393 104.381 28.7416 104.384 28.7439C104.372 28.743 104.361 28.7422 104.349 28.7414C106.912 30.653 108.421 33.2774 109.627 36.1034C111.272 39.9558 112.139 43.2751 111.903 44.6947C111.847 44.6356 111.793 44.5799 111.74 44.5257L111.739 44.5249C111.623 44.4074 111.515 44.2967 111.42 44.1737C108.799 40.7861 105.592 38.1797 101.506 36.7433C101.444 36.7211 101.399 36.646 101.355 36.5721C101.349 36.5622 101.343 36.5523 101.337 36.5426C101.335 36.5399 101.334 36.5372 101.332 36.5345H101.336L101.343 36.5409L101.344 36.5345H101.354L101.346 36.5264L101.356 36.4622C101.357 36.4622 101.356 36.4623 101.356 36.4622C103.467 35.861 103.977 35.2517 103.856 33.3945C103.851 33.396 103.846 33.3975 103.842 33.399C103.842 33.3968 103.842 33.3947 103.841 33.3926C103.444 33.5205 103.07 33.6414 102.701 33.7621C102.781 33.5732 102.865 33.3846 102.948 33.1958C103.125 32.7951 103.302 32.3933 103.456 31.9849C103.809 31.0417 104.068 30.0877 103.525 29.0977C103.521 29.1002 103.516 29.1027 103.512 29.1052C103.512 29.1039 103.511 29.1027 103.51 29.1014C101.134 30.545 100.616 31.7258 101.188 34.2638C101.357 34.2854 101.533 34.3106 101.709 34.3357L101.724 34.3393ZM127.356 41.6067C127.356 41.6035 127.356 41.6003 127.357 41.597C126.328 41.5657 125.594 42.1381 124.868 42.705C124.76 42.7889 124.653 42.8726 124.545 42.9542C123.062 41.561 120.592 42.2162 119.048 44.4446C119.049 44.4453 119.051 44.446 119.052 44.4467C119.051 44.4492 119.049 44.4518 119.047 44.4543C120.822 45.2535 122.384 44.7351 123.904 43.6947C123.979 44.0871 124.033 44.3643 124.116 44.7819V44.7855C126.539 44.2275 127.223 43.5471 127.356 41.6067C127.356 41.6067 127.356 41.6067 127.356 41.6067ZM95.2662 30.5738C95.8014 30.0242 96.555 29.6894 97.527 29.5694C97.4069 28.4323 98.281 28.0954 99.0449 27.801C99.0598 27.7952 99.0746 27.7895 99.0894 27.7838C100.501 27.2402 101.872 27.3662 103.157 28.3742C103.157 28.3745 103.157 28.3749 103.156 28.3752C103.157 28.3755 103.157 28.3758 103.158 28.3762C101.833 29.5888 100.34 29.9886 98.4153 29.6905C98.6136 29.8591 98.7732 29.9945 98.9106 30.1111C99.089 30.2624 99.2302 30.3821 99.3702 30.5018C99.3699 30.5021 99.3696 30.5025 99.3693 30.5028C99.3697 30.5031 99.3701 30.5034 99.3705 30.5038C98.1177 31.915 96.7857 31.9258 95.2665 30.5758C95.2668 30.5755 95.2671 30.5752 95.2674 30.5748C95.267 30.5745 95.2666 30.5742 95.2662 30.5738ZM97.1778 48.6458C95.1474 48.2714 93.9126 46.1762 94.341 43.8218C94.3411 43.8219 94.3409 43.8218 94.341 43.8218C94.3411 43.8213 94.3415 43.8208 94.3416 43.8203C96.5628 44.6087 97.4376 46.0991 97.1784 48.6443C97.1785 48.6443 97.1782 48.6443 97.1784 48.6443C97.1783 48.6448 97.1779 48.6453 97.1778 48.6458ZM106.199 51.112C106.76 49.8733 107.95 49.1685 109.951 48.833C109.535 50.904 108.544 52.2359 106.778 52.7903C106.477 52.8857 106.154 52.9584 105.807 53.0083C105.832 52.2701 105.958 51.6423 106.199 51.112ZM107.589 36.3878C109.803 37.241 110.894 39.1526 110.354 41.4278C110.353 41.4273 110.352 41.4268 110.35 41.4263C110.351 41.4261 110.35 41.4264 110.35 41.4263C108.05 40.3571 107.366 39.0687 107.586 36.3867C107.587 36.3872 107.588 36.3874 107.589 36.3878C107.589 36.3878 107.589 36.3879 107.589 36.3878ZM132.133 48.0458C132.133 48.0454 132.133 48.045 132.134 48.0446C133.297 50.3414 133.113 51.749 131.479 53.6714C131.369 53.561 131.269 53.449 131.177 53.3353C129.976 51.8545 130.271 50.0977 132.129 48.0391C132.13 48.0413 132.132 48.0436 132.133 48.0458ZM98.193 49.9022C99.4206 51.5654 99.2082 53.603 97.527 55.5398C97.5264 55.5389 97.5259 55.5381 97.5253 55.5372C97.5245 55.5381 97.5237 55.539 97.5229 55.5399C96.1513 53.4411 96.3673 51.8247 98.1889 49.9023C98.1895 49.9031 98.1901 49.9039 98.1906 49.9047C98.1914 49.9039 98.1922 49.9031 98.193 49.9022ZM114.123 23.921C114.122 23.9187 114.121 23.9164 114.119 23.9141V23.9177C113.108 25.1021 112.539 26.3405 112.687 27.7625L112.693 27.8204C112.748 28.3638 112.813 28.9948 113.258 29.4015C113.374 29.5082 113.516 29.5997 113.691 29.6702C115.3 27.6362 115.412 26.3438 114.123 23.9174V23.921ZM96.8322 49.8662C95.601 52.2062 94.4346 52.8722 91.9362 52.5842C91.9369 52.5826 91.9376 52.581 91.9382 52.5794C91.936 52.5791 91.9338 52.5789 91.9316 52.5786C92.918 50.2098 94.8908 49.155 96.8276 49.8606C96.8271 49.8617 96.8265 49.8628 96.8259 49.8639C96.828 49.8647 96.8301 49.8655 96.8322 49.8662ZM101.979 24.9317C102.198 26.1658 102.922 27.1128 104.09 27.6542C104.337 26.4504 104.4 25.5207 104.237 24.7526C104.019 23.6984 103.375 22.9474 102.197 22.2109C101.901 23.217 101.834 24.1346 101.979 24.9317ZM133.102 47.6417C133.101 47.6413 133.1 47.641 133.098 47.6406V47.6442C133.106 49.2822 133.509 50.3226 134.474 51.1218C134.904 51.4786 135.354 51.8339 135.891 51.9469C136.195 52.0114 136.527 51.9985 136.9 51.8642C136.676 50.2653 135.987 49.136 134.809 48.3843C134.391 48.1177 133.912 47.8987 133.371 47.7235C133.283 47.695 133.193 47.6679 133.102 47.6417ZM132.978 47.2385C134.502 47.3166 135.703 46.9384 136.699 46.0394C137.296 45.4994 137.908 44.8946 137.681 43.937C137.679 43.937 137.677 43.9369 137.675 43.9369C137.675 43.9351 137.674 43.9333 137.674 43.9315C135.342 43.8847 134.072 44.7407 132.97 47.233L132.965 47.2327L132.969 47.2363L132.97 47.233C132.973 47.2331 132.977 47.2333 132.98 47.2334C132.979 47.2351 132.978 47.2368 132.978 47.2385ZM115.106 50.6051C115.106 50.605 115.106 50.6052 115.106 50.6051L115.102 50.6055L115.105 50.6062C115.027 50.9052 115.008 51.1808 115.037 51.4382C115.039 51.4624 115.042 51.4864 115.046 51.5103C115.152 52.2507 115.64 52.84 116.15 53.4027C116.881 54.2091 117.756 54.7347 118.926 54.5187C118.925 54.5034 118.924 54.4881 118.923 54.4729C118.778 52.337 117.756 51.3166 115.106 50.6051ZM125.452 48.1558C126.13 49.7312 125.765 50.9741 124.221 52.3898C124.113 52.1636 124.019 51.9481 123.939 51.7417C123.248 49.9754 123.576 48.8662 125.057 47.3828C125.214 47.6502 125.346 47.9072 125.452 48.1558ZM126.309 34.3538C126.575 36.0854 125.503 37.1042 123.199 37.295C123.199 37.2927 123.2 37.2904 123.2 37.2882C123.197 37.2884 123.195 37.2886 123.192 37.2889C123.624 35.3161 124.369 34.6141 126.302 34.3477C126.303 34.35 126.303 34.3523 126.303 34.3546C126.305 34.3544 126.307 34.3541 126.309 34.3538ZM107.749 34.1752C107.752 34.1748 107.755 34.1743 107.758 34.1738C107.366 36.3446 106.581 37.0358 104.273 37.331C104.274 37.3274 104.275 37.3237 104.276 37.3201C104.273 37.3205 104.27 37.3209 104.266 37.3213C104.641 35.4457 105.8 34.4737 107.751 34.1641C107.751 34.1678 107.75 34.1715 107.749 34.1752ZM101.472 44.2264C101.736 44.8152 101.682 45.558 101.372 46.6154C100.237 45.9572 99.6691 45.4161 99.5046 44.6571C99.3925 44.1519 99.4598 43.5503 99.6589 42.7539C100.626 43.1969 101.21 43.6336 101.472 44.2264ZM111.229 49.6502C111.682 51.8858 111.441 52.5914 109.835 53.765C109.834 53.7623 109.833 53.7596 109.831 53.7568C109.83 53.7577 109.829 53.7585 109.828 53.7593C108.967 52.0637 109.309 51.0557 111.221 49.6445C111.222 49.6478 111.222 49.6511 111.223 49.6543C111.225 49.653 111.227 49.6516 111.229 49.6502ZM102.935 50.3351C102.698 49.8426 102.383 49.4226 101.916 49.0859C101.301 50.3578 101.214 51.3131 101.706 52.1381C101.968 52.5835 102.397 52.9913 103.003 53.3906C103.07 53.0748 103.137 52.7657 103.2 52.4754C103.267 52.1633 103.33 51.873 103.384 51.6194C103.26 51.1502 103.122 50.7203 102.935 50.3351ZM120.614 26.9035C120.22 26.2116 119.482 25.9009 118.112 25.7227C118.216 26.4545 118.356 27.0081 118.569 27.4187C118.995 28.2531 119.713 28.5053 121.01 28.4642C120.953 27.7949 120.838 27.2894 120.614 26.9035ZM121.369 51.2069C121.638 51.4883 121.997 51.7212 122.446 51.911C122.695 50.6524 122.713 49.4934 121.977 48.4755C121.773 48.1911 121.511 47.9177 121.178 47.6562C120.56 49.2853 120.619 50.4314 121.369 51.2069ZM96.3539 40.5774C97.1359 40.8322 97.612 41.6048 97.761 42.9038C96.8536 42.9138 96.2553 42.8388 95.8022 42.571C95.2731 42.2618 94.9417 41.6923 94.5497 40.6927C95.2664 40.4561 95.8693 40.4168 96.3539 40.5774ZM121.823 21.9218C121.827 21.9222 121.83 21.9226 121.834 21.923C120.905 24.0254 120.067 24.4502 118.335 23.7914C118.336 23.7894 118.337 23.7874 118.337 23.7854C118.334 23.7841 118.331 23.7829 118.327 23.7816C119.008 22.0716 119.703 21.6792 121.827 21.9132C121.825 21.9161 121.824 21.9189 121.823 21.9218ZM133.09 28.6851C133.222 29.0396 133.296 29.4719 133.325 29.9942H133.322C132.328 30.2102 131.731 29.7386 131.18 29.1806C130.938 28.9357 130.746 28.6745 130.629 28.3885C130.49 28.054 130.455 27.6856 130.568 27.2695C131.974 27.3275 132.738 27.7197 133.09 28.6851ZM103.055 39.1094C103.058 39.1094 103.061 39.1094 103.064 39.1094C102.362 41.4926 101.966 41.8418 100.13 41.8058C100.13 41.8033 100.131 41.8008 100.131 41.7983C100.128 41.7982 100.126 41.7982 100.123 41.7981C100.487 39.6417 101.059 39.0909 103.057 39.1017C103.056 39.1043 103.055 39.1068 103.055 39.1094ZM126.01 31.0882C126.307 31.665 126.286 32.3813 125.985 33.335C125.579 33.0159 125.19 32.7113 124.821 32.4218C124.577 32.2311 124.342 32.0471 124.117 31.8698C124.116 31.8673 124.116 31.8647 124.115 31.8622L124.11 31.858C124.097 31.7798 124.083 31.703 124.07 31.6274C123.942 30.903 123.835 30.2931 124.168 29.6836C125.118 30.0761 125.72 30.5128 126.01 31.0882ZM113.225 20.3751C113.226 20.3739 113.228 20.3727 113.23 20.3714C113.28 20.5395 113.328 20.7034 113.376 20.8636C113.538 21.41 113.687 21.9138 113.831 22.3982C113.608 23.1938 113.381 23.9174 112.442 24.3098C112.441 24.3089 112.441 24.308 112.44 24.3072C112.439 24.3079 112.437 24.3087 112.435 24.3095C112.397 24.2341 112.358 24.1609 112.32 24.0888C112.228 23.9165 112.14 23.7502 112.071 23.5751C111.995 23.3807 111.936 23.179 111.875 22.9688C111.85 22.8832 111.825 22.796 111.798 22.7075L111.807 22.6722C112.027 21.8379 112.247 21.003 113.223 20.3711L113.225 20.3751ZM129.64 31.574C129.368 31.6497 129.085 31.728 128.825 31.8734V31.877C128.498 31.6986 128.202 31.5369 127.918 31.3812C127.674 31.2479 127.439 31.119 127.198 30.9878C127.199 30.9867 127.2 30.9856 127.201 30.9845C127.196 30.9819 127.192 30.9794 127.187 30.9768C128.328 29.6052 129.242 29.5332 130.898 30.606C130.898 30.607 130.898 30.608 130.897 30.609C130.902 30.6117 130.906 30.6143 130.91 30.617C130.703 31.2793 130.191 31.4212 129.64 31.574ZM105.104 40.9854C104.325 40.6451 103.707 40.9007 102.422 41.761C102.965 42.22 103.407 42.5104 103.827 42.6351C104.573 42.8625 105.244 42.5672 106.282 41.7626C105.814 41.3905 105.444 41.1312 105.104 40.9854ZM111.813 24.8971C112.084 25.3546 112.078 25.9633 111.898 26.8982C111.002 26.5218 110.439 26.1529 110.135 25.6899C109.802 25.1935 109.77 24.5893 109.951 23.75C110.955 24.0984 111.536 24.4135 111.813 24.8971ZM115.971 29.7261C116.823 30.0196 117.325 30.7576 117.644 32.075C116.77 32.0593 116.177 31.9315 115.733 31.5807C115.257 31.2105 114.949 30.5882 114.649 29.578C115.165 29.5505 115.601 29.5961 115.971 29.7261ZM111.862 29.7134C113.176 31.0886 113.183 31.8266 111.79 33.3602C111.788 33.3569 111.785 33.3537 111.783 33.3504C111.782 33.3515 111.781 33.3527 111.78 33.3538C110.696 31.8886 110.732 31.0858 111.852 29.707C111.855 29.71 111.857 29.7129 111.86 29.7158C111.861 29.715 111.862 29.7142 111.862 29.7134ZM121.102 36.6118C120.882 36.6708 120.662 36.7297 120.455 36.8198C120.008 36.6343 119.623 36.4023 119.303 36.1238C119.167 36.0068 119.042 35.8816 118.929 35.7481C119.152 35.2198 119.589 35.1158 120.037 35.0091C120.283 34.9507 120.531 34.8915 120.75 34.7617L121.419 35.0338C121.81 35.1927 122.204 35.353 122.626 35.5249C122.625 35.5264 122.624 35.5278 122.624 35.5292C122.628 35.531 122.633 35.5328 122.637 35.5346C122.286 36.2947 121.692 36.4537 121.102 36.6118ZM122.537 25.1024C122.112 24.8833 121.578 24.7601 120.913 24.7148C121.241 25.8435 121.731 26.6853 122.581 27.1197C122.946 27.3078 123.376 27.4208 123.89 27.449C123.744 26.2532 123.335 25.5099 122.537 25.1024ZM113.68 31.2686C115.473 31.7546 115.927 32.3054 116.053 34.3034C116.049 34.3021 116.046 34.3008 116.042 34.2995C116.042 34.3011 116.042 34.3027 116.042 34.3043C114.041 33.5771 113.63 33.0335 113.67 31.2695C113.673 31.2705 113.677 31.2714 113.68 31.2723C113.68 31.2711 113.68 31.2699 113.68 31.2686ZM104.943 33.0736C105.162 33.3111 105.463 33.56 105.857 33.8642C106.467 32.6135 106.53 31.8198 105.944 31.1266C105.685 30.8139 105.295 30.5221 104.763 30.2188C104.343 31.791 104.294 32.3794 104.943 33.0736ZM127.371 51.186C127.285 51.4073 127.191 51.6474 127.09 51.9074V51.911C127.085 51.9049 127.081 51.8988 127.076 51.8927C125.783 50.262 125.837 49.3119 127.126 47.6523C127.13 47.6598 127.133 47.6673 127.137 47.6747C127.138 47.6732 127.139 47.6717 127.141 47.6702C127.191 47.7718 127.243 47.8694 127.294 47.9648C127.417 48.194 127.532 48.4109 127.609 48.6422C127.683 48.8674 127.724 49.1038 127.776 49.4043C127.802 49.5554 127.83 49.7227 127.868 49.913C127.739 50.24 127.575 50.6597 127.371 51.186ZM117.34 22.4966C117.344 22.4926 117.348 22.4886 117.352 22.4846H117.356C117.806 25.0478 117.651 25.4474 115.822 26.3942C115.822 26.3898 115.822 26.3854 115.822 26.381C115.816 26.384 115.81 26.387 115.804 26.3901L115.77 25.7365C115.743 25.2188 115.717 24.7154 115.689 24.1653L115.712 24.1414C116.223 23.6201 116.738 23.0939 117.334 22.4805H117.338C117.339 22.4859 117.34 22.4913 117.34 22.4966ZM117.597 27.9245C118.446 28.2563 118.876 28.9362 119.185 30.2174C118.629 30.1939 118.183 30.1236 117.817 29.9804C116.997 29.6646 116.576 28.9882 116.224 27.6641C116.778 27.6982 117.228 27.7778 117.597 27.9245ZM130.582 47.7962C130.478 49.8914 130.121 50.4566 128.609 50.9138C128.609 50.9118 128.609 50.9098 128.608 50.9077C128.605 50.9087 128.602 50.9096 128.599 50.9106C128.26 49.269 128.937 48.1926 130.572 47.793C130.572 47.795 130.571 47.7969 130.571 47.7989C130.575 47.798 130.579 47.7971 130.582 47.7962ZM125.459 24.0853C125.884 24.8155 125.763 25.5867 125.197 26.9558C124.998 26.7176 124.818 26.4837 124.662 26.2517C123.935 25.1793 123.705 24.1487 124.366 22.9141C124.885 23.3435 125.245 23.7082 125.459 24.0853ZM109.688 27.4166C111.167 28.817 111.239 29.7062 109.853 31.4414C109.851 31.4351 109.848 31.4288 109.845 31.4226C109.843 31.4254 109.841 31.4282 109.838 31.4311C109.457 30.5527 109.187 29.9298 108.917 29.3035C109.18 28.6447 109.414 28.0578 109.673 27.4062C109.677 27.4106 109.682 27.415 109.687 27.4194C109.687 27.4185 109.687 27.4175 109.688 27.4166ZM128.649 23.615C128.869 25.379 128.296 26.1674 126.179 26.8838C126.18 26.8793 126.18 26.8747 126.181 26.8701C126.177 26.8715 126.173 26.8729 126.169 26.8743C126.363 25.1247 127.155 24.1419 128.638 23.6055C128.639 23.6097 128.639 23.614 128.64 23.6183C128.643 23.6172 128.646 23.6161 128.649 23.615ZM99.5475 46.4719L99.5502 46.4786C99.4691 46.6673 99.3918 46.8461 99.3162 47.0209C99.2274 47.2264 99.1409 47.4264 99.0534 47.6306C99.05 47.6284 99.0465 47.6262 99.0431 47.624C99.0431 47.624 99.0431 47.624 99.0431 47.624C97.3871 46.5656 97.1963 46.1192 97.6643 44.3984C98.0074 44.4492 98.2775 44.5662 98.499 44.734C99.0044 45.1116 99.2598 45.7515 99.5475 46.4719ZM105.281 48.7106C105.983 50.3486 105.76 51.0254 103.971 52.4402C103.97 52.4368 103.97 52.4334 103.969 52.43C103.966 52.4322 103.963 52.4344 103.961 52.4366C103.637 50.8094 103.928 49.5926 105.271 48.707C105.272 48.7098 105.273 48.7125 105.274 48.7152C105.277 48.7137 105.279 48.7121 105.281 48.7106ZM117.684 49.158C118.311 49.2039 118.885 49.5963 119.627 50.3738C118.889 50.734 118.367 50.9114 117.879 50.8747C117.277 50.8352 116.728 50.4725 115.89 49.7283C116.608 49.3129 117.164 49.1154 117.684 49.158ZM136.197 35.8949C135.674 35.7802 135.086 35.7936 134.423 35.9195C134.885 36.6024 135.345 37.0743 135.808 37.3421C136.533 37.7648 137.266 37.687 138.023 37.1366C137.519 36.452 136.919 36.0511 136.197 35.8949ZM128.334 32.0823C128.334 32.0811 128.335 32.0798 128.336 32.0786C129.38 33.5294 129.283 34.7678 128.465 36.0674C128.462 36.0639 128.459 36.0604 128.456 36.0568C128.456 36.0576 128.455 36.0584 128.455 36.0591C127.295 34.7559 127.249 33.8667 128.325 32.0703C128.328 32.0743 128.331 32.0783 128.334 32.0823ZM127.669 29.176C128.292 29.3997 128.922 29.2498 129.729 28.7882C129.443 28.3722 129.119 28.0789 128.762 27.8795C127.959 27.4244 126.984 27.449 125.877 27.6267C126.551 28.4786 127.106 28.9798 127.669 29.176ZM130.314 41.9678C130.316 41.9654 130.318 41.963 130.319 41.9606C131.471 43.4618 131.482 43.8578 130.399 45.7082C130.397 45.7055 130.395 45.7029 130.393 45.7002C130.391 45.703 130.389 45.7057 130.388 45.7085C129.175 44.0669 129.16 43.4261 130.309 41.9609C130.31 41.9632 130.312 41.9655 130.314 41.9678ZM132.148 32.219C132.335 33.9866 131.929 34.5626 129.819 35.3942C129.82 35.3896 129.821 35.385 129.822 35.3805C129.817 35.3824 129.812 35.3842 129.807 35.3861C130.124 33.8165 130.488 32.5421 132.137 32.2109C132.137 32.2143 132.137 32.2177 132.138 32.2211C132.141 32.2204 132.145 32.2197 132.148 32.219ZM100.119 37.7054C100.623 39.6134 100.274 40.3442 98.5386 40.8518C98.5379 40.8476 98.5373 40.8433 98.5366 40.839C98.5336 40.8399 98.5305 40.8408 98.5275 40.8417C98.2827 39.2577 98.7219 38.2461 100.108 37.6953C100.109 37.6997 100.11 37.7041 100.111 37.7085C100.114 37.7074 100.116 37.7064 100.119 37.7054ZM134.622 31.5813C134.625 31.5791 134.627 31.5768 134.629 31.5746C135.623 33.1325 134.839 34.2315 134.012 35.389L133.988 35.423C133.986 35.4203 133.984 35.4175 133.983 35.4148L133.977 35.4226C133.092 33.979 133.243 33.0646 134.618 31.5742C134.62 31.5766 134.621 31.5789 134.622 31.5813ZM98.7469 36.5951C98.7506 36.5932 98.7544 36.5913 98.7582 36.5894C98.7762 38.177 98.1426 39.1274 96.9114 39.7718C96.91 39.7655 96.9085 39.7591 96.9071 39.7528C96.9047 39.7541 96.9023 39.7554 96.8999 39.7566C96.5075 38.0286 96.7739 37.5606 98.7467 36.5742C98.7467 36.5812 98.7468 36.5881 98.7469 36.5951ZM98.2938 31.859C99.4782 32.8166 99.7986 33.9362 99.0246 35.4302C99.0219 35.427 99.0192 35.4239 99.0165 35.4207C99.0155 35.4227 99.0145 35.4247 99.0134 35.4267C97.6202 33.7851 97.5194 33.2631 98.2826 31.8555C98.2857 31.8579 98.2887 31.8604 98.2917 31.8628C98.2924 31.8616 98.2931 31.8603 98.2938 31.859ZM97.6279 35.6353C96.5972 35.0409 95.5814 35.1661 94.3988 35.9906C94.7572 36.2326 95.1006 36.4204 95.4341 36.547C96.3865 36.9123 97.255 36.7815 98.1534 35.9954C97.9773 35.8549 97.8024 35.7348 97.6279 35.6353ZM102.229 43.3646C103.363 44.1782 103.417 44.3474 102.999 45.917C102.997 45.9153 102.994 45.9136 102.992 45.9119C102.992 45.9132 102.991 45.9144 102.991 45.9157C101.983 45.1741 101.864 44.3569 102.221 43.3633C102.223 43.3649 102.225 43.3665 102.227 43.3681C102.228 43.3669 102.228 43.3658 102.229 43.3646ZM121.705 37.0326C121.707 37.0313 121.709 37.03 121.712 37.0286C121.773 38.5658 121.748 38.6198 120.607 39.0302C120.606 39.0277 120.606 39.0251 120.606 39.0226C120.604 39.0234 120.601 39.0242 120.599 39.025C120.498 38.0782 120.901 37.4734 121.704 37.0234C121.704 37.0265 121.705 37.0296 121.705 37.0326ZM128.57 42.7058C128.858 43.7354 128.465 44.3438 127.407 45.0206C127.407 45.0196 127.407 45.0185 127.407 45.0175C127.405 45.0189 127.402 45.0204 127.4 45.0218C127.386 43.787 127.739 43.1714 128.563 42.707C128.563 42.7078 128.563 42.7086 128.564 42.7093C128.566 42.7082 128.568 42.707 128.57 42.7058ZM129.677 51.2836C129.679 51.2827 129.681 51.2819 129.682 51.281C129.967 52.2602 129.625 52.883 128.779 53.387C128.778 53.3849 128.777 53.3828 128.777 53.3806C128.775 53.3815 128.774 53.3824 128.772 53.3833C128.459 52.3789 128.794 51.7525 129.676 51.2773C129.676 51.2794 129.677 51.2815 129.677 51.2836Z" fill="white"/>
<path d="M117.654 100.399C118.45 98.3435 119.13 96.5687 119.829 94.8011C119.857 94.7255 120.037 94.7111 120.268 94.6211C120.329 94.8191 120.487 95.0387 120.437 95.1971C119.721 97.4615 118.975 99.7187 118.241 101.972H117.125C116.488 100.133 115.851 98.2967 115.127 96.2123C114.4 98.2715 113.748 100.111 113.093 101.958H111.937C111.138 99.5531 110.353 97.1951 109.554 94.7903C110.224 94.4699 110.551 94.6931 110.735 95.2187C111.207 96.5723 111.653 97.9295 112.132 99.2795C112.243 99.5999 112.431 99.8951 112.625 100.284C113.601 98.3795 113.817 96.3095 114.839 94.6355C115.613 94.5455 115.753 95.0603 115.908 95.4995C116.344 96.7379 116.743 97.9871 117.168 99.2255C117.28 99.5567 117.438 99.8699 117.665 100.395L117.654 100.399Z" fill="white"/>
<path d="M136.072 102.06C135.456 101.25 134.956 100.588 134.434 99.8963H132.367C132.223 100.577 132.079 101.25 131.935 101.941C131.694 101.952 131.525 101.959 131.165 101.977C131.089 99.5795 131.143 97.2108 131.14 94.7628C132.637 94.4424 134.041 94.5503 135.402 94.9355C136.342 95.2019 136.882 95.922 136.965 96.9228C136.997 97.3368 136.972 97.7543 136.972 98.1863C136.493 98.7011 136.05 99.1764 135.557 99.702C136 100.382 136.45 101.074 136.986 101.898C136.641 101.959 136.392 102.002 136.075 102.06H136.072ZM135.831 96.4368C135.83 96.4365 135.83 96.4363 135.83 96.436C134.782 95.344 133.626 95.4977 132.374 95.6642C132.314 95.6722 132.255 95.6801 132.195 95.6879V98.7696C133.541 98.766 134.887 99.2915 135.895 97.8299C135.894 97.7983 135.892 97.7663 135.891 97.734C135.872 97.343 135.851 96.9074 135.835 96.5296C135.833 96.4989 135.831 96.4686 135.83 96.4388C135.83 96.4381 135.831 96.4374 135.831 96.4368Z" fill="white"/>
<path d="M125.405 102.054C123.202 102.04 121.492 100.369 121.513 98.2488C121.535 96.2148 123.364 94.5156 125.542 94.5156C127.666 94.5156 129.408 96.2724 129.39 98.3964C129.372 100.564 127.731 102.072 125.405 102.054ZM125.648 101.24C127.199 100.69 128.067 99.9416 128.301 98.9643C128.309 98.9294 128.316 98.8943 128.322 98.8588C128.389 98.5092 128.377 98.1312 128.289 97.7232C127.986 96.3372 126.715 95.43 125.211 95.5308C123.917 95.6155 122.853 96.5699 122.626 97.8066C122.612 97.8846 122.601 97.9636 122.593 98.0436C122.442 99.6307 123.428 100.685 125.648 101.24Z" fill="white"/>
<path d="M86.9425 94.5658C88.5409 94.5658 89.9665 94.5658 91.3921 94.5658C91.7557 94.5658 91.7521 94.5802 92.2453 95.4262C90.8593 95.689 89.4877 95.4334 88.0837 95.6098V97.7446H91.5181C91.5577 98.119 91.5793 98.335 91.6189 98.7094H88.1017V101.021H92.1517C92.2237 101.33 92.2741 101.546 92.3173 101.741C92.2309 101.82 92.1913 101.892 92.1481 101.892C90.4885 101.899 88.8253 101.895 86.9749 101.895C86.9029 99.5302 86.9425 97.1146 86.9425 94.5586V94.5658Z" fill="white"/>
<path d="M99.092 94.6149C99.1352 94.9425 99.1568 95.1153 99.1928 95.3853C97.9256 95.7957 96.5972 95.3385 95.258 95.6841V97.7289H98.6672C98.7212 98.0961 98.7572 98.3121 98.8112 98.6937H95.3192C95.2544 99.1689 95.1824 99.5037 95.168 99.8385C95.1536 100.184 95.2004 100.53 95.2256 101.048C96.3848 101.048 97.4468 101.034 98.5052 101.055C98.9948 101.063 99.506 101.106 99.38 101.934H94.1816V94.6257C95.8232 94.5285 97.454 94.5465 99.0848 94.6185L99.092 94.6149Z" fill="white"/>
<path d="M80.4914 100.009C80.4626 100.621 80.4302 101.254 80.3978 101.945C80.0774 101.974 79.8542 101.992 79.541 102.021C79.2278 100.826 79.4186 99.6378 79.3862 98.4642C79.3502 97.269 79.379 96.0738 79.379 94.9146C82.3778 93.9102 84.671 94.803 85.4054 97.1826C84.9998 98.6802 83.3618 99.621 80.4914 100.005V100.009ZM80.6318 95.5626C80.3442 96.6127 80.3568 97.6361 80.5733 98.6135C80.5806 98.6458 80.5881 98.6781 80.5958 98.7104C80.5971 98.7159 80.5981 98.7215 80.5994 98.727H83.6234C83.915 98.1942 84.1886 97.6974 84.4154 97.287C83.9131 95.4851 82.719 95.5216 81.4885 95.5593C81.2022 95.568 80.9139 95.5768 80.6318 95.5626Z" fill="white"/>
<path d="M138.948 94.5078C139.294 94.6482 139.503 94.7346 139.801 94.857V98.4246C140.554 98.097 140.892 97.5498 141.331 97.1394C141.853 96.6498 142.318 96.099 142.843 95.613C143.293 95.1954 143.621 94.5366 144.582 94.6374C143.941 96.0234 142.699 96.8118 141.933 98.043C142.948 99.3066 143.945 100.549 145.036 101.913C144.582 101.963 144.301 101.996 143.963 102.032C143.02 100.955 142.084 99.8898 141.065 98.7306C140.626 99.1986 140.259 99.5874 139.859 100.009C139.83 100.595 139.798 101.182 139.762 101.881C139.495 101.927 139.229 101.974 138.97 102.017C138.675 100.567 138.649 96.3654 138.948 94.5078Z" fill="white"/>
<path d="M150.954 95.3328C150.774 95.5632 150.666 95.7 150.561 95.8332C149.215 95.6892 147.739 94.7856 146.763 96.5064C146.893 97.2624 147.39 97.5504 147.998 97.7124C148.517 97.8492 149.049 97.95 149.557 98.1228C150.623 98.4792 150.749 98.634 151.303 99.9732C151.202 100.956 150.702 101.687 149.723 101.906C148.293 102.227 146.879 102.245 145.493 101.014C145.896 100.859 146.18 100.639 146.411 100.682C146.933 100.783 147.415 101.075 147.937 101.183C148.88 101.384 149.715 101.194 150.219 100.337C150.284 99.6924 149.993 99.3468 149.492 99.174C148.927 98.9796 148.355 98.8104 147.779 98.652C146.097 98.1804 145.539 97.428 146.029 95.7648C147.512 94.2744 148.751 94.1412 150.957 95.3292L150.954 95.3328Z" fill="white"/>
<path d="M102.124 94.4414C102.221 96.7526 102.304 98.7614 102.39 100.803C103.567 101.544 105.191 100.407 106.361 101.631C105.195 102.124 103.888 102.181 101.281 101.875C101.274 99.5354 101.134 97.1738 101.379 94.8158C101.389 94.7294 101.659 94.6682 102.127 94.4414H102.124Z" fill="white"/>
<path d="M116.858 112.61C116.178 114.835 114.518 114.161 113.017 114.248V108.981C114.14 108.805 115.267 108.603 116.491 109.442C116.405 110.072 116.311 110.734 116.192 111.573C116.318 111.767 116.567 112.156 116.855 112.61H116.858ZM113.64 113.618C114.565 113.917 115.195 113.632 115.757 113.405C115.958 113.118 116.054 112.868 116.058 112.647C116.065 112.327 115.877 112.069 115.533 111.854H113.64V113.618ZM115.8 109.525C115.8 109.525 115.799 109.525 115.799 109.524C115.411 109.475 115.066 109.431 114.728 109.388C114.382 109.345 114.044 109.302 113.676 109.255V111.091C114.385 111.058 115.004 111.029 115.685 111.001C115.724 110.504 115.749 110.165 115.8 109.525Z" fill="white"/>
<path d="M89.895 114.111V108.898C91.3674 108.876 92.8506 108.437 93.8046 109.985C94.3734 110.91 94.3086 112.624 93.6138 113.373C92.5446 114.525 91.209 114.391 89.8986 114.107L89.895 114.111ZM90.5286 109.416C90.5538 110.881 90.327 112.242 90.669 113.574C92.2995 113.609 93.0454 113.381 93.324 112.592C93.4262 112.302 93.4655 111.938 93.4626 111.483C93.4518 109.871 92.7253 109.32 90.5316 109.416C90.5306 109.416 90.5296 109.416 90.5286 109.416Z" fill="white"/>
<path d="M135.974 108.516C137.594 109.984 138.253 111.604 139.362 113.052C139.715 111.648 139.272 110.24 139.79 108.93C140.363 109.758 140.125 110.694 140.139 111.576C140.15 112.447 140.305 113.343 139.995 114.268C138.761 114.106 138.649 112.983 138.113 112.285C137.576 111.586 137.133 110.82 136.399 109.704C136.349 111.493 136.309 112.843 136.273 114.193C136.172 114.186 136.075 114.178 135.974 114.175V108.516Z" fill="white"/>
<path d="M109.976 114.411C108.528 113.954 108.557 112.755 107.808 112.136H106.811C106.725 112.87 106.646 113.536 106.545 114.393C105.944 113.342 105.872 112.212 106.113 108.972C106.952 108.727 107.819 108.831 108.86 108.968C109.104 109.407 109.378 109.9 109.695 110.466C109.292 111.013 108.95 111.481 108.546 112.024C108.935 112.672 109.356 113.382 109.972 114.411H109.976ZM106.952 109.324C106.595 109.848 106.67 110.4 106.753 111.012C106.769 111.135 106.786 111.261 106.8 111.39C106.8 111.39 106.8 111.39 106.8 111.391C107.412 111.362 107.924 111.34 108.374 111.319C108.982 110.113 108.921 109.64 107.882 109.434C107.631 109.384 107.322 109.35 106.952 109.324Z" fill="white"/>
<path d="M119.94 113.853C121.193 113.555 121.466 112.842 121.463 111.909C121.455 110.912 121.412 109.911 121.805 108.871C121.913 109.098 122.107 109.317 122.118 109.548C122.15 110.444 122.186 111.348 122.107 112.237C121.974 113.774 121.049 114.483 119.558 114.285C118.629 114.159 117.981 113.616 117.92 112.676C117.841 111.438 117.902 110.192 118.172 108.878C118.298 109.08 118.521 109.278 118.529 109.483C118.583 110.725 118.583 111.971 118.604 113.227C119.148 113.483 119.569 113.681 119.94 113.857V113.853Z" fill="white"/>
<path d="M133.181 114.17C130.149 114.509 129.444 113.67 129.811 110.254C130.401 108.904 131.496 108.644 132.781 108.853C133.789 109.015 134.307 109.674 134.487 110.653C134.757 112.108 134.574 113.378 133.177 114.17H133.181ZM130.671 109.969C130.387 110.53 130.235 111.094 130.26 111.668C130.283 112.226 130.474 112.793 130.869 113.375C131.237 113.53 131.665 113.713 132.155 113.922C132.633 113.699 133.109 113.476 133.512 113.288C133.851 112.494 134.085 111.746 133.991 111.046C133.928 110.572 133.714 110.121 133.281 109.692C132.633 109.048 132.011 109.141 130.675 109.969H130.671Z" fill="white"/>
<path d="M97.2207 113.7C98.1891 113.639 99.1287 114.129 99.8739 113.261C99.8847 113.045 99.8991 112.757 99.9171 112.394C99.0927 111.922 98.2827 111.458 97.4475 110.979C97.4187 110.435 97.3899 109.971 97.3683 109.568C98.2719 108.405 99.3663 108.916 100.417 108.894C100.266 109.773 99.7947 109.301 99.4563 109.287C98.3295 109.229 98.2071 109.344 98.1423 110.644C98.9127 111.094 99.7227 111.569 100.417 111.98C100.756 112.905 100.673 113.56 99.9459 114.032C99.2511 114.482 98.1891 114.388 97.2243 113.7H97.2207Z" fill="white"/>
<path d="M102.93 114.192C102.624 112.648 102.984 111.046 102.706 109.411C102.181 109.336 101.677 109.264 101.173 109.192C101.176 109.116 101.184 109.04 101.187 108.965H105.108C105.118 109.022 105.126 109.08 105.136 109.138C104.665 109.224 104.197 109.31 103.682 109.404C103.628 109.541 103.509 109.696 103.506 109.854C103.488 110.984 103.502 112.115 103.48 113.245C103.477 113.569 103.398 113.89 103.351 114.214L102.93 114.192Z" fill="white"/>
<path d="M111.031 108.648C111.524 110.178 111.538 112.821 111.077 114.459C110.915 114.016 110.75 113.778 110.761 113.552C110.833 112.014 110.523 110.445 111.031 108.648Z" fill="white"/>
<path d="M127.944 108.648C128.441 110.128 128.462 112.77 128.034 114.383C127.868 114.081 127.688 113.904 127.696 113.735C127.764 112.133 127.436 110.502 127.944 108.648Z" fill="white"/>
<path d="M125.099 109.547V114.155C124.354 112.686 124.854 111.131 124.505 109.54C124.059 109.414 123.569 109.281 123.054 109.137C123.097 109.05 123.133 108.91 123.173 108.91C124.354 108.899 125.535 108.899 126.762 109.097C126.262 109.234 125.761 109.367 125.099 109.547Z" fill="white"/>
<path d="M95.7599 114.169C95.4179 113.013 95.3783 110.965 95.6627 109.035C96.0875 110 96.1343 112.549 95.7599 114.169Z" fill="white"/>
<path fill-rule="evenodd" clip-rule="evenodd" d="M81.4883 95.5567C81.202 95.5655 80.9137 95.5743 80.6316 95.56C80.3437 96.611 80.3533 97.6353 80.5733 98.6135C80.3568 97.6361 80.3442 96.6127 80.6318 95.5626C80.9139 95.5768 81.2022 95.568 81.4885 95.5593C82.7186 95.5216 83.9126 95.4845 84.4152 97.2844C84.4151 97.2846 84.4153 97.2842 84.4152 97.2844C83.9129 95.4825 82.7188 95.5191 81.4883 95.5567Z" fill="black"/>
<path fill-rule="evenodd" clip-rule="evenodd" d="M125.644 101.255C125.645 101.255 125.646 101.255 125.646 101.255H125.643C125.643 101.255 125.644 101.255 125.644 101.255ZM122.626 97.8066C122.612 97.8846 122.601 97.9636 122.593 98.0436C122.442 99.6307 123.428 100.685 125.648 101.24C127.199 100.69 128.067 99.9416 128.301 98.9643C128.309 98.9294 128.316 98.8943 128.322 98.8588C128.133 99.8943 127.258 100.68 125.644 101.255C123.428 100.7 122.442 99.6457 122.59 98.0586C122.598 97.9735 122.61 97.8894 122.626 97.8066Z" fill="black"/>
<path fill-rule="evenodd" clip-rule="evenodd" d="M135.83 96.436C135.83 96.435 135.83 96.434 135.83 96.433C134.781 95.3395 133.631 95.4928 132.383 95.6591C132.32 95.6675 132.257 95.6759 132.194 95.6842V98.7658C132.193 98.7658 132.194 98.7658 132.194 98.7658L132.195 95.6879C132.255 95.6801 132.314 95.6722 132.374 95.6642C133.626 95.4977 134.782 95.344 135.83 96.436ZM135.83 96.4388L135.835 96.5296C135.851 96.9074 135.872 97.343 135.891 97.734C135.891 97.734 135.891 97.734 135.891 97.734" fill="black"/>
<path fill-rule="evenodd" clip-rule="evenodd" d="M133.279 109.677C132.628 109.032 132.009 109.122 130.673 109.954H130.669C130.382 110.521 130.232 111.089 130.26 111.668C130.235 111.094 130.387 110.53 130.671 109.969H130.675C132.011 109.141 132.633 109.048 133.281 109.692C133.714 110.121 133.928 110.572 133.991 111.046C133.931 110.566 133.717 110.11 133.279 109.677Z" fill="black"/>
<path fill-rule="evenodd" clip-rule="evenodd" d="M113.64 111.847L113.64 111.854H115.533C115.877 112.069 116.065 112.327 116.058 112.647C116.068 112.323 115.88 112.064 115.534 111.847H113.64Z" fill="black"/>
<path fill-rule="evenodd" clip-rule="evenodd" d="M115.799 109.524C115.799 109.523 115.799 109.521 115.799 109.519C115.411 109.469 115.065 109.426 114.727 109.383C114.381 109.339 114.043 109.296 113.675 109.249V111.085C113.675 111.085 113.675 111.085 113.675 111.085L113.676 109.255C114.044 109.302 114.382 109.345 114.728 109.388C115.066 109.431 115.411 109.475 115.799 109.524Z" fill="black"/>
<path fill-rule="evenodd" clip-rule="evenodd" d="M107.882 109.434C107.63 109.383 107.32 109.349 106.947 109.323C106.591 109.847 106.665 110.395 106.748 111.008C106.764 111.132 106.782 111.26 106.796 111.39C106.797 111.39 106.799 111.39 106.8 111.39C106.786 111.261 106.769 111.135 106.753 111.012C106.67 110.4 106.595 109.848 106.952 109.324C107.322 109.35 107.631 109.384 107.882 109.434Z" fill="black"/>
<path fill-rule="evenodd" clip-rule="evenodd" d="M93.4655 111.475C93.4547 109.862 92.7275 109.311 90.5315 109.408C90.5315 109.411 90.5316 109.414 90.5316 109.416C92.7253 109.32 93.4518 109.871 93.4626 111.483C93.4655 111.938 93.4262 112.302 93.324 112.592C93.4283 112.301 93.4684 111.934 93.4655 111.475Z" fill="black"/>
</g>
</g>
<defs>
<clipPath id="clip0_632_3517">
<rect width="231" height="127" fill="white"/>
</clipPath>
<clipPath id="clip1_632_3517">
<rect width="72.36" height="102.24" fill="white" transform="translate(79.0049 12.4102)"/>
</clipPath>
</defs>
</svg>
