<svg width="288" height="62" viewBox="0 0 288 62" fill="none" xmlns="http://www.w3.org/2000/svg">
<g clip-path="url(#clip0_2625_2869)">
<path d="M140.807 30.4766C140.204 29.8283 139.586 29.1892 138.978 28.5408C136.094 25.4844 133.186 22.4511 130.4 19.3066C129.016 17.746 128.129 16.0325 128.236 13.9022C128.25 13.6475 128.143 13.4993 127.952 13.3511C125.951 11.7905 123.958 10.2252 121.952 8.66454C121.107 8.00231 121.065 7.40491 121.822 6.63153C122.472 5.96929 123.113 5.30706 123.773 4.65409C123.991 4.4318 123.995 4.31602 123.708 4.13541C122.639 3.46392 121.515 2.90356 120.345 2.4312C116.978 1.06968 113.462 0.425973 109.854 0.162005C105.405 -0.157535 100.988 -0.0602833 96.6366 0.986326C89.6192 2.67665 84.218 6.52965 80.7906 12.9343C78.4314 17.3477 77.3771 22.113 77.0195 27.0636C85.0029 28.9993 92.7215 31.6714 100.12 35.2466C103.71 36.9878 107.188 38.9236 110.541 41.0724C110.569 41.0909 110.602 41.1094 110.634 41.1233C110.667 41.1418 110.699 41.1557 110.732 41.1743C110.797 41.202 110.862 41.2391 110.917 41.2854C110.931 41.2947 110.941 41.3039 110.95 41.3178C110.964 41.3317 110.978 41.3502 110.987 41.3688C111.006 41.3919 111.015 41.4151 111.024 41.4382C111.034 41.466 111.043 41.4892 111.047 41.5216C111.131 41.4938 111.178 41.5169 111.187 41.6003C111.308 41.5633 111.387 41.6374 111.461 41.7253C111.535 41.7763 111.605 41.8365 111.688 41.8782C114.41 43.198 117.011 44.717 119.412 46.5694C119.467 46.6111 119.537 46.6296 119.635 46.6805C119.621 46.537 119.611 46.4305 119.597 46.3239C119.193 43.2073 118.288 40.2295 117.145 37.3166C116.992 36.923 116.774 36.7146 116.365 36.5896C113.913 35.8347 111.563 34.8344 109.376 33.496C107.49 32.3475 105.79 30.9953 104.592 29.1012C104.443 28.8697 104.281 28.6335 104.267 28.3463C104.244 27.9712 104.443 27.8508 104.796 27.9296C104.987 27.9759 105.108 28.1241 105.224 28.2676C106.566 29.9487 108.317 31.0601 110.29 31.852C114.196 33.4219 118.288 33.7044 122.43 33.408C124.153 33.283 125.774 33.4914 127.372 34.1212C129.875 35.1076 132.248 36.358 134.607 37.6269C135.077 37.877 135.56 38.0391 136.075 38.1224C137.589 38.3632 138.82 37.8075 139.614 36.5016C140.157 35.6031 140.691 34.6955 141.207 33.7785C141.876 32.5884 141.732 31.463 140.807 30.4766ZM126.234 16.1714C126.016 16.7179 125.858 17.2875 125.705 17.8571C125.635 18.1025 125.551 18.1489 125.324 18.0331C124.367 17.5561 123.406 17.0884 122.398 16.5975C123.373 15.4907 124.52 15.1989 125.862 15.5323C126.225 15.6203 126.401 15.75 126.234 16.1714ZM111.182 41.6003C111.182 41.6003 111.182 41.6049 111.187 41.6049H111.182V41.6003Z" fill="white"/>
<path d="M0.0319879 61.8612C1.70854 57.7766 3.68232 53.831 5.85115 49.9826C10.9876 40.8688 17.1644 32.5145 24.4093 24.9566C31.0552 18.024 38.379 11.9296 46.8175 7.24765C51.4849 4.65892 56.3706 2.61664 61.6139 1.49131C63.5784 1.06988 65.5475 0.731819 67.5631 1.06525C71.6221 1.73675 73.777 4.94604 72.8157 8.96576C71.9519 12.578 71.506 16.2318 71.5711 19.9459C71.6036 21.965 71.8358 23.961 72.1144 25.9569C72.003 25.9477 71.8915 25.9523 71.78 25.9292C68.622 25.2993 65.45 24.7853 62.2409 24.475C58.8413 24.1462 55.4418 24.0536 52.0283 24.2574C49.0607 24.4333 46.1395 24.8779 43.2926 25.7347C38.9921 27.0221 35.1002 29.0319 32.193 32.5515C28.1943 37.3863 27.3073 42.8694 28.956 48.8388C26.6896 49.7326 24.414 50.6078 22.1569 51.5294C14.7216 54.572 7.43482 57.9202 0.398879 61.801C0.305995 61.8519 0.199179 61.8843 0.0970066 61.9214C0.0737856 61.8982 0.0505647 61.8751 0.0273438 61.8566L0.0319879 61.8612Z" fill="white"/>
<path d="M28.961 48.8387C27.3123 42.8693 28.1993 37.3862 32.198 32.5515C35.1052 29.0365 38.9924 27.0267 43.2976 25.7346C46.1445 24.8825 49.0657 24.4379 52.0333 24.2573C55.4421 24.0535 58.8417 24.1462 62.2459 24.475C65.455 24.7852 68.627 25.3039 71.785 25.9291C71.8918 25.9523 72.0079 25.9476 72.1194 25.9569C72.7975 29.6941 73.8888 33.3109 75.3518 36.812C75.4957 37.1639 75.3332 37.1639 75.0778 37.1917C72.9414 37.4279 70.8051 37.6872 68.6781 38.016C62.1855 39.0163 55.7951 40.4751 49.4651 42.2071C42.6892 44.0641 36.0201 46.2407 29.4393 48.6952C29.2861 48.7507 29.1235 48.7878 28.961 48.8341V48.8387Z" fill="#E0E0E0"/>
<path d="M249.338 34.001C249.338 36.4045 249.333 38.8126 249.347 41.2161C249.347 41.5403 249.245 41.7625 249.027 41.9895C246.129 45.0598 242.474 46.5464 238.355 47.0326C235.08 47.417 231.811 47.3568 228.699 46.1481C222.016 43.5594 218.092 38.7431 217.251 31.5882C216.815 27.8556 217.298 24.2249 219.156 20.9045C222.077 15.6714 226.503 12.476 232.498 11.6378C236.697 11.0497 240.742 11.6471 244.522 13.643C245.507 14.1617 246.417 14.8054 247.281 15.5047C247.541 15.7177 247.615 15.852 247.369 16.153C246.161 17.6303 244.986 19.1308 243.802 20.622C243.672 20.7887 243.589 21.0017 243.296 20.7609C240.602 18.5287 237.44 18.0332 234.087 18.3944C230.552 18.7742 227.78 20.4599 225.89 23.47C224.482 25.7068 224.208 28.2029 224.394 30.7778C224.705 35.0615 227.524 38.7246 231.639 39.9518C235.201 41.0169 238.68 40.577 242.014 38.9515C242.311 38.808 242.39 38.6135 242.386 38.2985C242.372 36.5249 242.367 34.7466 242.386 32.9729C242.39 32.5839 242.284 32.482 241.893 32.4866C239.72 32.5051 237.546 32.4866 235.378 32.5051C234.992 32.5051 234.839 32.4542 234.844 32.0096C234.876 30.2545 234.867 28.4947 234.848 26.7395C234.848 26.3922 234.918 26.2718 235.294 26.2718C239.827 26.2857 244.355 26.2857 248.888 26.2718C249.245 26.2718 249.352 26.3552 249.347 26.7256C249.329 29.1477 249.338 31.5743 249.338 33.9963V34.001Z" fill="white"/>
<path d="M187.834 29.4903C187.834 24.1276 187.834 18.7602 187.825 13.3975C187.825 12.9854 187.899 12.8464 188.354 12.8464C196.394 12.8603 204.433 12.8603 212.472 12.8464C212.894 12.8464 213.029 12.9298 213.024 13.379C212.997 15.2083 212.997 17.0421 213.024 18.8714C213.029 19.3021 212.918 19.4132 212.481 19.4132C206.876 19.3993 201.265 19.4132 195.66 19.3901C195.163 19.3901 195.056 19.5151 195.061 19.9921C195.093 21.914 195.089 23.8405 195.061 25.7623C195.056 26.2162 195.2 26.2949 195.613 26.2949C200.03 26.281 204.451 26.2949 208.868 26.2764C209.309 26.2764 209.467 26.3458 209.458 26.8321C209.425 28.6428 209.43 30.4582 209.458 32.2689C209.462 32.7181 209.369 32.8478 208.896 32.8478C204.479 32.8246 200.058 32.8431 195.641 32.8246C195.181 32.8246 195.056 32.9219 195.065 33.3896C195.093 35.293 195.093 37.2009 195.065 39.1043C195.061 39.5257 195.172 39.6137 195.585 39.6137C201.265 39.5998 206.95 39.6137 212.63 39.5905C213.15 39.5905 213.257 39.7387 213.252 40.225C213.224 41.9987 213.215 43.777 213.252 45.5506C213.266 46.0832 213.085 46.1619 212.606 46.1619C204.549 46.148 196.491 46.148 188.433 46.1619C187.974 46.1619 187.816 46.0925 187.82 45.5784C187.844 40.2157 187.834 34.8484 187.834 29.4857V29.4903Z" fill="white"/>
<path d="M287.89 45.8424C283.246 34.9688 278.602 24.0905 273.967 13.2123C273.842 12.9205 273.689 12.8464 273.391 12.8511C271.441 12.865 269.49 12.8696 267.54 12.8464C267.163 12.8464 266.992 12.9576 266.848 13.2956C262.245 24.0952 257.634 34.8854 253.022 45.6757C252.864 46.0415 252.859 46.1712 253.328 46.1666C255.497 46.1434 257.671 46.148 259.844 46.1666C260.197 46.1712 260.36 46.0601 260.485 45.7405C261.363 43.5639 262.268 41.4013 263.132 39.2247C263.29 38.831 263.481 38.7106 263.899 38.7106C268.185 38.7245 272.476 38.7245 276.763 38.706C277.186 38.706 277.376 38.8357 277.529 39.2154C278.398 41.392 279.299 43.5547 280.181 45.7266C280.279 45.9674 280.334 46.1712 280.697 46.1666C283.107 46.148 285.522 46.1573 288.002 46.1573C287.951 46.0137 287.928 45.9258 287.89 45.8424ZM274.264 32.2921C271.631 32.2735 269.003 32.2782 266.369 32.2874C266.053 32.2874 265.984 32.2272 266.109 31.9169C267.493 28.578 268.859 25.239 270.233 21.9001C270.252 21.8491 270.298 21.8121 270.354 21.7287C271.227 23.8451 272.091 25.929 272.95 28.0176C273.475 29.2958 273.995 30.574 274.524 31.8521C274.65 32.1485 274.706 32.2921 274.264 32.2921Z" fill="white"/>
<path d="M182.354 22.9653C182.08 20.2422 181.021 17.8665 178.95 16.0049C176.558 13.8561 173.655 12.9623 170.525 12.8975C165.807 12.8048 161.093 12.8697 156.374 12.8465C155.919 12.8465 155.97 13.0688 155.97 13.3513C155.975 18.7325 155.975 24.1184 155.975 29.4996C155.975 34.8809 155.98 40.2667 155.961 45.648C155.961 46.0601 156.049 46.1713 156.476 46.1667C158.59 46.1435 160.707 46.1435 162.825 46.1667C163.248 46.1713 163.341 46.0601 163.336 45.648C163.317 42.6702 163.336 39.6925 163.317 36.7148C163.313 36.2702 163.443 36.1683 163.87 36.1729C165.319 36.2007 166.768 36.1683 168.212 36.1868C169.889 36.21 171.556 36.1174 173.186 35.7191C176.46 34.9179 179.21 33.3434 180.956 30.3517C182.298 28.0594 182.614 25.554 182.354 22.9653ZM174.779 25.8921C174.361 27.7306 173.07 28.8143 171.301 29.3561C170.678 29.5413 170.033 29.6386 169.378 29.6386C167.525 29.6339 165.667 29.6247 163.814 29.6432C163.433 29.6478 163.308 29.5645 163.317 29.1662C163.341 27.6333 163.327 26.0958 163.327 24.563C163.327 23.0301 163.336 21.4926 163.317 19.9598C163.317 19.6171 163.378 19.4828 163.763 19.4874C165.695 19.5152 167.627 19.4781 169.554 19.5291C171.008 19.5615 172.397 19.9134 173.497 20.9323C174.974 22.303 175.197 24.0582 174.779 25.8921Z" fill="white"/>
<path d="M77.0177 27.0637C85.0011 28.9995 92.7197 31.6716 100.118 35.2514C103.708 36.988 107.186 38.9237 110.539 41.0772C110.725 41.1976 111.009 41.2346 111.041 41.531C109.959 41.1142 108.881 40.6789 107.795 40.2806C103.281 38.632 98.6178 37.6687 93.8482 37.1408C89.7614 36.687 85.6698 36.6407 81.569 36.7472C80.2733 36.7796 78.9776 36.8768 77.6818 36.9741C77.3846 36.9972 77.2453 36.9648 77.2081 36.636C76.8691 33.4499 76.753 30.2638 77.0131 27.0684L77.0177 27.0637Z" fill="#E0E0E0"/>
<path d="M282.582 12.8557C281.203 12.8604 280.084 13.9857 280.074 15.3611C280.07 16.7782 281.18 17.8757 282.61 17.8711C284.04 17.8665 285.118 16.7689 285.109 15.3287C285.099 13.9533 283.971 12.8511 282.582 12.8557ZM282.615 17.5192C281.444 17.5331 280.455 16.5513 280.446 15.3796C280.441 14.2265 281.384 13.2679 282.55 13.2494C283.734 13.2262 284.737 14.1802 284.756 15.3426C284.774 16.4911 283.78 17.5053 282.615 17.5192Z" fill="white"/>
<path d="M111.176 41.6005C111.306 41.5634 111.385 41.6329 111.454 41.7255C111.343 41.7255 111.232 41.7255 111.176 41.6005Z" fill="white"/>
<path d="M111.047 41.5216C111.126 41.4938 111.177 41.517 111.186 41.605C111.121 41.6096 111.052 41.6235 111.047 41.5216Z" fill="white"/>
<path d="M0.102513 61.9259C0.0792917 61.9537 0.0421382 62.0046 0.0374941 62C-0.0275246 61.9583 -0.00430363 61.912 0.0282057 61.8611C0.0560708 61.8796 0.0792917 61.9028 0.0978685 61.9259H0.102513Z" fill="white"/>
<path d="M283.306 15.9074C283.166 15.699 283.143 15.5832 283.361 15.3748C283.905 14.8376 283.649 14.055 282.902 13.9161C282.581 13.8559 282.238 13.8883 281.908 13.8744C281.759 13.8698 281.652 13.9068 281.652 14.0782C281.652 14.9303 281.652 15.7777 281.652 16.6252C281.652 16.7966 281.745 16.8382 281.898 16.8382C282.066 16.8336 282.196 16.8151 282.191 16.6021C282.186 16.477 282.172 16.3427 282.196 16.2177C282.233 16.0417 282.056 15.7777 282.354 15.7036C282.642 15.6295 282.711 15.8935 282.823 16.0788C282.897 16.2038 282.981 16.3288 283.041 16.4585C283.185 16.7688 283.394 16.9216 283.83 16.778C283.645 16.4631 283.491 16.176 283.306 15.9074ZM282.456 15.2776C282.056 15.3054 282.242 14.9905 282.186 14.8145C282.242 14.62 282.047 14.2773 282.488 14.319C282.786 14.3514 283.115 14.3884 283.092 14.8006C283.069 15.1711 282.767 15.2544 282.456 15.2776Z" fill="white"/>
</g>
<defs>
<clipPath id="clip0_2625_2869">
<rect width="288" height="62" fill="white"/>
</clipPath>
</defs>
</svg>
