<svg width="100" height="100" viewBox="0 0 100 100" fill="none" xmlns="http://www.w3.org/2000/svg">
<g clip-path="url(#clip0_148_532)">
<path d="M57.7734 0.0424388C58.509 0.594143 58.8909 1.32975 59.0465 2.24926C59.4426 4.5551 59.9519 6.8468 60.3763 9.13849C60.4895 9.77507 60.7724 10.1429 61.4373 10.3268C64.5211 11.1614 67.4494 12.4204 70.2362 14.0048C70.7879 14.316 71.1557 14.2453 71.6367 13.9058C73.6172 12.5336 75.626 11.2038 77.6206 9.85995C79.1201 8.85557 79.8699 8.9263 81.143 10.1995C84.0996 13.1419 87.042 16.0843 89.9703 19.0267C91.1869 20.2575 91.2717 21.0214 90.3098 22.4643C88.9942 24.4448 87.6927 26.4252 86.3205 28.3633C85.8537 29.0282 85.8679 29.5233 86.2498 30.2023C87.7352 32.8476 88.9093 35.6345 89.7157 38.5627C89.9137 39.3125 90.2956 39.6237 91.0171 39.751C93.323 40.1754 95.6005 40.6564 97.9063 41.1232C99.4907 41.4486 100 42.0569 100 43.6554C100 47.9134 100 52.1714 100 56.4436C100 58.0139 99.4483 58.6787 97.8922 58.9899C95.5722 59.4568 93.2381 59.9378 90.9181 60.3763C90.2249 60.5036 89.8571 60.8148 89.6591 61.508C88.8386 64.4646 87.6503 67.2797 86.1225 69.9392C85.7688 70.5475 85.8396 70.986 86.2074 71.5235C87.5937 73.5323 88.9376 75.5694 90.2815 77.5923C91.2859 79.1059 91.2152 79.8557 89.9561 81.1147C87.0562 84.0147 84.1562 86.9147 81.2562 89.8005C79.8416 91.201 79.1484 91.2717 77.5074 90.1683C75.5128 88.8244 73.4899 87.5088 71.5094 86.1367C70.9577 85.7547 70.505 85.7264 69.9109 86.0518C67.1806 87.5796 64.2948 88.7679 61.2817 89.6166C60.8007 89.7439 60.5885 89.9844 60.4895 90.4654C60.2773 91.6113 60.0368 92.7571 59.7821 93.9029C59.4709 95.3317 58.5231 96.0673 57.3348 95.8551C56.1041 95.6288 55.4817 94.5678 55.7505 93.0825C56.0758 91.3566 56.4295 89.6449 56.769 87.9191C56.967 86.9288 57.5612 86.3064 58.5514 86.0659C62.4416 85.1464 66.0914 83.6186 69.5006 81.525C70.406 80.9733 71.2689 81.0157 72.146 81.6098C74.1972 82.9962 76.2626 84.3542 78.2996 85.7547C78.7806 86.0942 79.1059 86.1084 79.5445 85.6557C81.5674 83.5903 83.6186 81.5391 85.684 79.5162C86.1225 79.0777 86.1084 78.7523 85.7688 78.2572C84.4108 76.2767 83.1093 74.2538 81.7372 72.2733C81.0581 71.2972 81.0157 70.3918 81.6523 69.3875C83.7176 66.0772 85.2171 62.5265 86.1367 58.7353C86.4196 57.547 87.0986 56.9104 88.3152 56.6841C90.5503 56.288 92.7713 55.7787 95.0064 55.3544C95.6854 55.227 95.9825 54.9441 95.9683 54.1944C95.9259 51.4358 95.9259 48.6632 95.9683 45.9046C95.9683 45.1125 95.6712 44.8437 94.9215 44.7022C92.7147 44.3061 90.522 43.811 88.3293 43.3866C87.1693 43.1744 86.4903 42.552 86.2215 41.392C85.3303 37.5584 83.845 33.9652 81.7654 30.6267C81.1289 29.594 81.1572 28.6321 81.8503 27.6277C83.1659 25.7321 84.4249 23.794 85.7406 21.8984C86.1225 21.3467 86.1508 20.9931 85.6415 20.4838C83.5903 18.4892 81.5674 16.4521 79.5586 14.4151C79.1342 13.9765 78.8089 13.9624 78.2996 14.3019C76.404 15.6175 74.466 16.8624 72.5704 18.1921C71.5377 18.9136 70.5758 18.956 69.5006 18.2911C66.1904 16.2399 62.6397 14.7121 58.8343 13.8492C57.6178 13.5663 56.9246 12.9014 56.6983 11.6424C56.3022 9.40727 55.7929 7.18631 55.3968 4.9512C55.2553 4.17315 54.9158 3.94681 54.1661 3.94681C51.4358 3.98925 48.7056 3.98925 45.9754 3.94681C45.1832 3.94681 44.8861 4.22974 44.7588 4.96534C44.3344 7.27118 43.8534 9.56288 43.4149 11.8546C43.2169 12.9014 42.6086 13.5238 41.59 13.7643C37.6291 14.7121 33.9369 16.2682 30.4852 18.4043C29.594 18.956 28.7169 18.9277 27.8399 18.3336C25.8735 17.0038 23.8789 15.7024 21.9267 14.3585C21.3609 13.9624 20.9931 14.0048 20.5121 14.4999C18.5316 16.5228 16.537 18.5175 14.5141 20.4979C14.0614 20.9506 14.0048 21.276 14.3726 21.8136C15.7165 23.7657 17.0038 25.7604 18.3619 27.7125C19.0126 28.6603 19.055 29.5374 18.4467 30.5135C16.3389 33.9511 14.8111 37.6291 13.8916 41.5617C13.6512 42.5944 12.958 43.1461 11.9253 43.3442C9.63361 43.7969 7.34192 44.2778 5.03607 44.6881C4.24388 44.8295 3.93266 45.1125 3.94681 45.9471C3.98925 48.6773 3.98925 51.4076 3.94681 54.1378C3.94681 54.93 4.24388 55.2129 4.97949 55.3402C7.31362 55.7646 9.63361 56.2597 11.9677 56.6983C13.0853 56.9104 13.7502 57.5329 14.0048 58.6363C14.9243 62.4699 16.4238 66.0489 18.5175 69.3875C19.1258 70.3636 19.0833 71.2689 18.4467 72.2026C17.0746 74.2255 15.7448 76.2626 14.3585 78.2713C14.019 78.7664 14.0331 79.0777 14.4716 79.5162C16.537 81.5391 18.5882 83.5903 20.6111 85.6557C21.0497 86.1084 21.375 86.0659 21.856 85.7264C23.8365 84.3542 25.8594 83.0528 27.8399 81.6806C28.8442 80.9874 29.792 80.9591 30.8247 81.5957C34.1491 83.6328 37.714 85.1181 41.5052 86.0235C42.5661 86.2781 43.1886 86.9147 43.3866 88.004C43.6695 89.5318 44.0091 91.0595 44.3061 92.5873C44.4334 93.2947 44.5325 94.0161 44.0656 94.6527C43.5847 95.3034 42.9339 95.6429 42.1276 95.5298C41.2364 95.4025 40.6422 94.8508 40.4159 93.9878C40.1471 92.9127 39.9349 91.8235 39.751 90.7483C39.6379 90.0693 39.3266 89.7015 38.6193 89.5035C35.691 88.6971 32.9042 87.523 30.2589 86.0376C29.6647 85.6981 29.2262 85.7123 28.6603 86.0942C26.7082 87.4523 24.7277 88.7537 22.7614 90.0835C20.9931 91.2576 20.3706 91.201 18.8711 89.7015C15.9711 86.8015 13.0712 83.9015 10.1712 81.0015C8.95459 79.785 8.89801 79.0069 9.8741 77.564C11.2463 75.5411 12.576 73.504 13.9624 71.4953C14.3443 70.9436 14.4009 70.505 14.0472 69.8967C12.4912 67.2089 11.317 64.3514 10.4824 61.3665C10.2843 60.6734 9.88824 60.447 9.26581 60.3338C6.90338 59.8953 4.54095 59.4002 2.17853 58.9758C1.21658 58.806 0.452681 58.4382 0 57.5329V42.3115C0.551705 41.5759 1.27316 41.1939 2.20682 41.0383C4.51266 40.6422 6.79021 40.133 9.09605 39.7227C9.85995 39.5813 10.2702 39.2559 10.4682 38.4779C11.2746 35.4789 12.4912 32.6496 14.019 29.9618C14.316 29.4242 14.3019 29.0564 13.9624 28.5613C12.5619 26.5243 11.2038 24.4589 9.83166 22.4077C8.88386 20.9789 8.96874 20.2009 10.1853 18.9701C13.0994 16.0419 16.0136 13.1277 18.9419 10.2136C20.2716 8.88386 20.9789 8.81313 22.535 9.83166C24.5155 11.1473 26.4818 12.4629 28.4482 13.7926C28.9857 14.1604 29.4384 14.2311 30.0467 13.8916C32.7911 12.3073 35.7052 11.119 38.7466 10.2702C39.3691 10.1004 39.652 9.77507 39.7652 9.15264C40.2037 6.79021 40.6847 4.44193 41.1232 2.0795C41.293 1.15999 41.6891 0.438534 42.5378 0H57.7592L57.7734 0.0424388Z" fill="white"/>
<path d="M49.977 21.6296C65.2409 21.4316 78.3827 34.1491 78.3403 49.9787C78.312 65.6245 65.5945 78.3562 49.9629 78.3562C34.2888 78.3562 21.5996 65.5962 21.5996 49.8656C21.5996 34.1066 34.7132 21.4457 49.977 21.6296ZM74.1813 50.0636C74.4218 37.53 64.3213 25.7603 50.0478 25.7037C35.9015 25.6471 25.7303 37.2612 25.7445 49.7948C25.7445 63.2621 36.4108 74.1123 49.8497 74.1689C63.3311 74.2254 74.1247 63.5167 74.1813 50.0495V50.0636Z" fill="white"/>
<path d="M49.9496 100.042C48.7898 100.042 47.9411 99.1507 47.9553 97.9768C47.9694 96.8169 48.8605 95.9824 50.0345 96.0107C51.1519 96.039 51.9722 96.8877 51.9722 98.0192C51.9722 99.179 51.1094 100.042 49.9354 100.028L49.9496 100.042Z" fill="white"/>
<path d="M51.8037 50.0071C55.114 50.6012 57.7593 51.8885 59.8813 54.1378C62.3427 56.7548 63.7007 59.8387 63.7007 63.4602C63.7007 64.9314 62.951 65.6811 61.4798 65.6811C53.8125 65.6811 46.1311 65.6811 38.4638 65.6811C36.9926 65.6811 36.2711 64.9172 36.257 63.4319C36.1721 57.1368 40.9252 51.4358 47.3335 50.1485C47.5174 50.1061 47.7296 50.1627 47.9135 49.908C44.8579 49.1159 42.5238 47.39 41.1233 44.5466C40.0623 42.3964 39.8784 40.1188 40.4443 37.7988C41.5618 33.1589 45.8906 30.1457 50.9267 30.4286C55.2837 30.6833 59.2305 34.4462 59.7681 38.9447C60.3481 43.8959 57.4905 48.4934 51.832 49.9929L51.8037 50.0071ZM49.993 61.6636C52.7515 61.6636 55.5242 61.6636 58.2827 61.6636C59.3154 61.6636 59.3861 61.5646 59.0891 60.6026C57.8725 56.7831 54.053 54.0246 49.9789 54.0105C45.9189 53.9963 42.0852 56.7548 40.8404 60.5743C40.5292 61.5363 40.5999 61.6495 41.6043 61.6636C44.4052 61.6636 47.192 61.6636 49.993 61.6636ZM55.7222 40.3027C55.7647 37.2471 53.1901 34.6018 50.0496 34.4886C46.9799 34.3896 44.2355 37.0632 44.193 40.2178C44.1506 43.2734 46.7252 45.9188 49.8657 46.032C52.9354 46.131 55.6798 43.4573 55.7222 40.3027Z" fill="white"/>
</g>
<defs>
<clipPath id="clip0_148_532">
<rect width="100" height="100" fill="white"/>
</clipPath>
</defs>
</svg>
