<svg width="231" height="127" viewBox="0 0 231 127" fill="none" xmlns="http://www.w3.org/2000/svg">
<g clip-path="url(#clip0_122_2454)">
<path d="M60 86.8189C60.3462 86.5401 60.7476 86.3388 61.0815 86.0412C61.6833 85.5054 62.234 84.9281 62.6554 84.2353C62.8086 83.9832 62.9084 83.7114 62.996 83.433C64.1602 79.7433 65.3271 76.0544 66.4887 72.3639C68.0027 67.5546 69.5158 62.7448 71.0223 57.9329C72.5988 52.8986 74.1846 47.8674 75.7257 42.8222C76.0605 41.7258 75.8767 40.6639 74.9855 39.8227C74.9116 39.7527 74.8393 39.6804 74.7702 39.6052C74.733 39.5645 74.6678 39.5264 74.6993 39.4599C74.7291 39.3964 74.8013 39.4135 74.8569 39.413C75.5129 39.4091 76.1695 39.4121 76.8256 39.4034C82.3811 39.329 87.9371 39.3723 93.4931 39.3841C94.7392 39.3868 95.9893 39.3434 97.2319 39.4257C100.07 39.6139 102.762 40.3077 105.102 42.0103C107.12 43.4783 108.302 45.4636 108.619 47.9457C108.89 50.069 108.554 52.1278 107.918 54.15C107.138 56.6268 106.004 58.9207 104.381 60.9591C102.905 62.8122 101.107 64.2912 99.068 65.4834C96.1333 67.1992 92.9504 68.1958 89.6082 68.7249C88.2615 68.9381 86.9059 69.0563 85.5439 69.1224C84.3192 69.1814 83.095 69.1644 81.8708 69.1482C81.3036 69.1407 80.7367 69.0847 80.1708 69.0353C79.966 69.0173 79.8531 69.0593 79.7857 69.2751C78.8853 72.1617 77.9723 75.0443 77.0716 77.9313C76.4855 79.8094 75.9274 81.6958 75.3322 83.5709C75.0109 84.5837 75.4718 85.8298 76.3472 86.4828C76.4465 86.5568 76.5481 86.6277 76.6466 86.7034C76.6851 86.7331 76.738 86.7647 76.7144 86.8259C76.6951 86.8754 76.6422 86.8671 76.6002 86.8697C76.3748 86.8824 76.1493 86.9038 75.9235 86.9038C70.8704 86.9056 65.8173 86.906 60.7642 86.9038C60.5095 86.9038 60.2552 86.8776 60.0004 86.8636C60.0004 86.8491 60.0004 86.8342 60.0004 86.8198L60 86.8189ZM89.4782 43.1001C89.0699 43.1001 88.6615 43.1093 88.2536 43.0962C88.0579 43.09 87.9757 43.1631 87.9179 43.3478C86.976 46.3657 86.0266 49.3813 85.079 52.3979C83.7647 56.5817 82.4442 60.7634 81.1679 64.9591C81.0733 65.2694 81.0847 65.2751 81.3968 65.3416C82.4766 65.5718 83.5646 65.5031 84.6383 65.3631C86.3457 65.1398 87.9109 64.4947 89.2848 63.4613C90.9983 62.1723 92.3263 60.5415 93.3207 58.6406C94.5191 56.3498 95.3139 53.9197 95.8054 51.389C96.0764 49.995 96.1613 48.5843 95.9538 47.1728C95.6501 45.1025 94.2797 43.6752 92.2212 43.2599C91.3152 43.0773 90.3956 43.0905 89.4774 43.0997L89.4782 43.1001Z" fill="#EEEEEE"/>
<path d="M104.232 87.5584C103.77 87.5015 103.306 87.4608 102.847 87.3851C101.106 87.0989 99.4964 86.4931 98.1137 85.3691C96.3524 83.937 95.2727 82.0987 94.9584 79.8499C94.5697 77.0671 95.1059 74.4856 96.7888 72.1904C97.8428 70.753 99.1795 69.6317 100.694 68.7042C102.44 67.6349 104.328 66.8878 106.246 66.2059C106.775 66.0181 107.3 65.819 107.83 65.6347C108.041 65.5616 108.14 65.4351 108.118 65.211C108.079 64.8044 108.067 64.3965 108.079 63.9885C108.15 61.6294 108.475 59.3162 109.349 57.1059C110.007 55.4431 110.938 53.9581 112.29 52.7676C113.247 51.925 114.357 51.3341 115.538 50.8649C117.03 50.2719 118.579 50.0552 120.17 50.1756C121.89 50.3056 123.443 50.8921 124.73 52.0655C125.729 52.9768 126.319 54.1148 126.47 55.4729C126.616 56.789 126.246 57.9782 125.63 59.1171C124.901 60.4669 123.825 61.506 122.637 62.4383C121.237 63.5369 119.694 64.403 118.09 65.1655C117.142 65.6159 116.206 66.0925 115.258 66.5438C115.031 66.6523 114.972 66.7972 115.014 67.03C115.292 68.5777 115.721 70.0798 116.338 71.5277C117.076 73.2588 118.047 74.8572 119.099 76.4106C119.268 76.6605 119.323 76.6657 119.503 76.4123C119.946 75.7882 120.258 75.0988 120.473 74.367C120.66 73.7302 120.799 73.0837 120.815 72.4145C120.833 71.6857 120.567 71.0817 120.068 70.5639C119.988 70.4799 119.82 70.405 119.876 70.2803C119.921 70.1796 120.089 70.2361 120.201 70.2361C121.943 70.2335 123.686 70.2343 125.428 70.2352C125.719 70.2352 125.735 70.2422 125.719 70.5276C125.662 71.529 125.454 72.5038 125.175 73.464C124.601 75.4411 123.532 77.1376 122.199 78.6822C121.994 78.9194 121.791 79.1584 121.586 79.3943C121.467 79.5304 121.458 79.6455 121.59 79.7926C122.19 80.4635 122.871 81.0448 123.571 81.6055C125.501 83.1523 127.593 84.4469 129.797 85.5639C130.512 85.9263 131.245 86.2511 131.99 86.5487C132.15 86.6126 132.311 86.6778 132.467 86.7929C132.34 86.894 132.212 86.8581 132.095 86.8608C128.633 86.9317 125.17 86.8949 121.707 86.919C121.29 86.922 120.945 86.8166 120.609 86.5855C119.767 86.006 118.985 85.3508 118.217 84.6802C117.811 84.3257 117.414 83.9607 117.007 83.607C116.747 83.3807 116.739 83.3812 116.441 83.5685C115.645 84.0688 114.852 84.5747 114.023 85.0199C111.93 86.1434 109.756 87.0415 107.392 87.414C107.012 87.474 106.628 87.5112 106.246 87.5593H104.234L104.232 87.5584ZM102.006 77.4041C101.999 77.763 102.044 78.1171 102.098 78.4694C102.329 79.9834 103.061 81.1717 104.392 81.9604C105.764 82.7732 107.257 82.8796 108.792 82.6747C109.882 82.529 110.923 82.1942 111.943 81.7937C112.629 81.5245 113.297 81.2164 113.944 80.8636C114.113 80.7712 114.165 80.6741 114.046 80.506C113.953 80.3756 113.881 80.2311 113.789 80.0998C112.287 77.9521 111.072 75.6485 110.076 73.229C109.599 72.0696 109.21 70.8777 108.86 69.6737C108.768 69.3572 108.728 69.3406 108.434 69.478C108.044 69.6601 107.666 69.8641 107.298 70.0877C105.753 71.0257 104.342 72.1173 103.29 73.6146C102.491 74.7517 102.025 76.0026 102.006 77.4041V77.4041ZM114.347 61.8189C114.347 62.1249 114.337 62.4313 114.351 62.7368C114.358 62.9123 114.303 63.1596 114.462 63.2397C114.606 63.3119 114.776 63.132 114.92 63.0396C115.635 62.5836 116.29 62.05 116.918 61.4837C118.274 60.2621 119.496 58.9311 120.361 57.3059C120.861 56.3662 121.186 55.3823 121.117 54.2951C121.07 53.5589 120.62 52.9934 119.898 52.8345C119.568 52.7619 119.23 52.7632 118.899 52.8293C118.063 52.9973 117.414 53.488 116.847 54.0902C116.124 54.8575 115.598 55.7535 115.209 56.7304C114.558 58.3647 114.281 60.0629 114.347 61.8189H114.347Z" fill="#EEEEEE"/>
<path d="M170.471 62.4607C170.386 62.581 170.249 62.6191 170.13 62.6738C169.327 63.0419 168.589 63.5019 167.98 64.1502C167.456 64.7095 167.045 65.3376 166.803 66.0725C165.572 69.8103 164.404 73.5674 163.223 77.321C162.579 79.3716 161.93 81.4213 161.296 83.4749C161.215 83.7349 161.079 83.8793 160.833 83.998C159.467 84.6597 158.066 85.2357 156.626 85.7163C154.692 86.3615 152.715 86.8219 150.709 87.1795C148.475 87.5778 146.219 87.6172 143.974 87.4938C141.266 87.3445 138.644 86.7129 136.156 85.5894C134.584 84.8795 133.157 83.9691 131.981 82.6932C131.196 81.8415 130.553 80.893 130.004 79.8732C128.896 77.8143 128.311 75.6027 128.025 73.2983C127.867 72.0241 127.794 70.7439 127.826 69.4619C127.882 67.1912 128.174 64.9485 128.686 62.7342C129.312 60.0236 130.236 57.4203 131.494 54.9381C132.606 52.7418 133.978 50.7241 135.648 48.9081C137.758 46.6129 140.121 44.6289 142.811 43.0422C145.766 41.2994 148.932 40.115 152.296 39.4532C153.82 39.153 155.357 38.9455 156.91 38.875C158.449 38.805 159.987 38.8054 161.522 38.893C164.894 39.0856 168.181 39.7535 171.408 40.7247C172.177 40.9562 172.045 40.8722 171.848 41.5414C171.32 43.3381 170.756 45.1239 170.173 46.9035C170.077 47.1972 170.035 47.2152 169.785 47.0296C169.049 46.4812 168.33 45.9087 167.553 45.4154C165.777 44.2883 163.889 43.4239 161.81 43.0348C159.333 42.5709 156.937 42.8418 154.631 43.8756C152.555 44.8061 150.805 46.1774 149.24 47.8047C147.629 49.4797 146.297 51.3614 145.127 53.3625C144.006 55.2791 143.047 57.2741 142.269 59.354C141.341 61.8357 140.623 64.3799 140.032 66.9605C139.694 68.4316 139.431 69.9154 139.258 71.4144C139.185 72.0434 139.142 72.6754 139.104 73.3079C139.049 74.2485 139.067 75.1864 139.156 76.1227C139.329 77.9531 139.745 79.7082 140.873 81.213C142.013 82.7339 143.573 83.5388 145.441 83.7476C146.465 83.8618 147.492 83.8146 148.514 83.6684C148.802 83.6272 148.947 83.4881 149.038 83.2057C150.145 79.7651 151.23 76.3179 152.308 72.868C152.966 70.7605 153.639 68.6579 154.257 66.5382C154.506 65.6838 154.511 64.8526 154.058 64.0631C153.727 63.4879 153.239 63.0651 152.678 62.7189C152.555 62.6436 152.323 62.6047 152.355 62.4537C152.377 62.3508 152.617 62.4125 152.758 62.4112C153.764 62.4042 154.771 62.4165 155.776 62.3994C159.057 62.3434 162.338 62.3653 165.618 62.3801C167.164 62.3871 168.709 62.3977 170.255 62.4112C170.323 62.4117 170.4 62.3876 170.47 62.4598L170.471 62.4607Z" fill="#EEEEEE"/>
</g>
<defs>
<clipPath id="clip0_122_2454">
<rect width="231" height="127" fill="white"/>
</clipPath>
</defs>
</svg>
