<svg width="231" height="127" viewBox="0 0 231 127" fill="none" xmlns="http://www.w3.org/2000/svg">
<g clip-path="url(#clip0_503_3946)">
<g clip-path="url(#clip1_503_3946)">
<path d="M76.0112 107.004V19.0273H155.537V107.004H76.0112ZM85.512 59.7836C85.512 59.9228 85.512 60.0526 85.512 60.1831C85.51 71.0553 85.5073 81.9281 85.506 92.8003C85.506 93.3464 85.4468 93.2893 85.9868 93.2893C98.3613 93.2906 110.736 93.2913 123.11 93.2913C130.631 93.2913 138.152 93.2899 145.674 93.2926C145.912 93.2926 146.062 93.2926 146.061 92.9678C146.05 81.7701 146.048 70.5724 146.045 59.3754C146.045 59.2913 146.033 59.2072 146.027 59.1232C145.9 59.2691 145.832 59.4292 145.755 59.5852C145.09 60.9222 143.977 61.8678 142.909 62.8564C142.312 63.4092 141.657 63.9352 141.196 64.5909C140.168 66.0516 139.1 67.4559 137.761 68.6563C136.456 69.8272 134.998 70.7607 133.456 71.5617C131.571 72.5422 129.576 73.2498 127.507 73.7434C126.7 73.9357 125.876 74.0817 125.098 74.3561C124.615 74.5262 124.27 74.4684 123.911 74.1584C123.699 73.9748 123.475 73.8073 123.262 73.625C123.177 73.5511 123.11 73.4562 123.002 73.3345C123.387 73.2713 123.704 73.2168 124.022 73.167C127.182 72.6727 130.212 71.7574 133.071 70.3135C135.205 69.2354 137.19 67.9401 138.804 66.1505C139.652 65.211 140.445 64.2237 141.263 63.2572C141.411 63.0824 141.556 62.9062 141.704 62.7306C141.688 62.7058 141.671 62.6809 141.655 62.656C141.306 62.7058 140.957 62.7549 140.515 62.8181C143.364 61.3856 145.099 58.9362 147.035 56.5669C146.638 56.6825 146.328 56.7666 146.022 56.8635C145.717 56.9596 145.416 57.0672 145.113 57.1701C146.141 56.2945 146.924 55.2574 147.526 54.0771C148.178 52.8 148.497 51.4092 148.904 50.0487C148.913 50.0218 148.897 49.9881 148.888 49.9276C148.276 50.2881 147.678 50.6378 147.083 50.9909C146.623 51.2633 146.132 51.3218 145.605 51.233C146.224 50.5847 146.846 49.9727 147.424 49.321C149.654 46.8077 150.21 43.6784 150.634 40.4677C149.391 41.5478 148.405 42.8949 146.913 43.6394C146.94 43.5553 146.988 43.4948 147.038 43.4356C148.085 42.1706 148.877 40.7643 149.383 39.1993C150.074 37.0593 150.155 34.8951 149.671 32.7C149.413 31.5271 149.19 30.3461 148.931 29.069C148.876 29.2384 148.848 29.3077 148.832 29.3797C148.674 30.067 148.479 30.7489 148.372 31.4437C148.169 32.7565 147.673 33.9125 146.725 34.8575C146.619 34.963 146.508 35.0626 146.383 35.1796C146.362 35.109 146.35 35.0888 146.35 35.0686C146.35 34.9906 146.354 34.9119 146.359 34.8339C146.479 33.0544 146.105 31.447 144.746 30.1786C143.692 29.1961 143.449 27.9109 143.56 26.5732C143.638 25.6289 143.238 24.867 142.951 23.9832C142.278 24.8011 141.689 25.5805 141.365 26.5523C141.152 27.1912 140.811 27.7918 140.491 28.3897C140.313 28.7233 140.059 29.0152 139.842 29.3286C139.378 29.9991 139.043 30.7247 139.17 31.5573C139.248 32.0718 139.388 32.5903 139.588 33.0705C140.024 34.1183 139.975 35.1197 139.447 36.1111C138.978 36.9934 138.316 37.7198 137.596 38.3997C137.48 38.5093 137.357 38.6129 137.18 38.7696C137.203 38.5618 137.227 38.4407 137.229 38.3197C137.233 37.7278 137.285 37.13 137.223 36.5448C137.038 34.7922 135.767 33.6563 134.752 32.2514C134.71 32.7309 134.674 33.1042 134.646 33.4788C134.558 34.6187 134.482 35.7587 134.022 36.83C133.322 38.4602 132.131 39.6681 130.711 40.6749C130.559 40.7825 130.346 40.8544 130.161 40.8551C127.942 40.8666 125.722 40.8592 123.503 40.8666C123.287 40.8672 123.159 40.804 123.04 40.6204C122.568 39.8927 121.921 39.4004 121.05 39.2579C120.665 39.1946 120.272 39.1677 119.881 39.1583C119.676 39.1536 119.562 39.0971 119.463 38.9135C118.979 38.0137 118.22 37.4918 117.21 37.3452C116.89 37.2988 116.565 37.2779 116.24 37.2705C115.345 37.249 114.45 37.2524 113.555 37.2228C113.017 37.2046 112.55 37.0358 112.143 36.6282C111.846 36.3296 111.453 36.0936 111.06 35.9308C110.568 35.727 110.038 35.8656 109.609 36.1238C109.441 36.2247 109.416 36.6155 109.383 36.8811C109.254 37.9256 109.522 38.8409 110.351 39.5356C110.694 39.8228 111.065 40.0763 111.421 40.348C111.874 40.693 111.874 40.7038 111.478 41.2102C111.269 40.7879 110.884 40.8834 110.535 40.882C107.329 40.8746 104.124 40.8719 100.918 40.8612C100.758 40.8612 100.567 40.843 100.442 40.7576C98.0231 39.0917 96.4345 36.9403 96.4319 33.8621C96.4319 33.355 96.3606 32.8479 96.3142 32.2339C95.719 33.0053 95.1695 33.6805 94.6624 34.386C94.0282 35.267 93.7303 36.2657 93.7545 37.3526C93.7646 37.8038 93.8043 38.2544 93.8346 38.7629C92.813 37.8247 91.8661 36.8952 91.3718 35.6114C91.0819 34.8588 91.0866 34.1015 91.3718 33.3469C91.4551 33.127 91.5439 32.9098 91.6273 32.6899C92.0867 31.4753 91.9643 30.3421 91.168 29.2949C90.9239 28.9741 90.6582 28.658 90.4813 28.3009C90.1316 27.5914 89.827 26.8583 89.5223 26.1273C89.1887 25.325 88.6547 24.6632 88.0797 23.9274C87.8672 24.5636 87.6695 25.1205 87.5007 25.6854C87.4482 25.8616 87.4529 26.0634 87.4684 26.2504C87.6002 27.8261 87.3231 29.2478 86.1052 30.3952C85.1462 31.2984 84.7137 32.4619 84.6747 33.7713C84.6613 34.2246 84.6727 34.6786 84.6727 35.2011C84.0345 34.6422 83.5187 34.0518 83.2227 33.3463C82.9773 32.7612 82.9053 32.0981 82.7917 31.4632C82.6114 30.4577 82.4608 29.4469 82.2973 28.4381C82.224 28.496 82.2005 28.5545 82.1884 28.615C81.9268 29.9096 81.682 31.2083 81.4015 32.4996C80.5158 36.5771 81.4029 40.225 84.0217 43.4619C84.0668 43.5177 84.1078 43.5775 84.1502 43.6354C83.3862 43.2957 82.7674 42.7739 82.185 42.2029C81.5959 41.6258 81.0074 41.0488 80.3477 40.4018C80.4808 41.1658 80.6154 41.8236 80.7075 42.4867C81.183 45.9233 82.6578 48.8146 85.3425 51.0541C85.4031 51.1045 85.4475 51.1752 85.5201 51.2612C84.1226 51.4623 83.2537 50.4159 82.1427 49.9727C82.8717 52.6695 83.4131 54.9703 85.9848 57.191C85.3096 56.9697 84.6996 56.7693 84.0035 56.5413C85.9579 58.8979 87.6439 61.4004 90.5176 62.8093C90.0798 62.7535 89.7402 62.7098 89.3105 62.6547C89.4349 62.8228 89.4947 62.9122 89.564 62.995C89.9292 63.4348 90.3159 63.8571 90.6595 64.3131C92.3321 66.5352 94.3356 68.3786 96.7762 69.7344C100.24 71.6599 103.998 72.6478 107.884 73.2276C108.137 73.2652 108.391 73.3049 108.644 73.3439C108.658 73.3863 108.671 73.4293 108.684 73.4717C108.227 73.8039 107.804 74.2142 107.297 74.4354C107.029 74.5531 106.616 74.3446 106.27 74.2794C104.341 73.9162 102.419 73.5073 100.588 72.7891C99.3499 72.3035 98.1165 71.7816 96.943 71.1595C95.1399 70.2038 93.5602 68.9307 92.2198 67.3846C91.6858 66.7685 91.1956 66.1128 90.7214 65.449C90.1868 64.7018 89.6709 63.9533 88.9466 63.3588C88.2398 62.7777 87.5693 62.1455 86.9324 61.4885C86.4307 60.9713 86.0043 60.3808 85.5114 59.7836H85.512ZM88.8881 101.863C88.8316 101.721 88.802 101.649 88.7745 101.576C88.2425 100.163 87.7132 98.7482 87.1752 97.3379C87.1315 97.2236 87.0333 97.0514 86.9485 97.0447C86.5699 97.0124 86.1872 97.0306 85.781 97.0306C86.1745 97.7831 85.9942 101.907 85.5356 103.28H86.4959C86.309 101.486 86.4556 99.716 86.3971 97.9513C86.428 97.9459 86.4589 97.9405 86.4899 97.9345C87.2001 99.7523 87.9103 101.57 88.6521 103.468C89.4638 101.546 90.2359 99.718 91.0079 97.8901C91.0368 97.8948 91.0651 97.8988 91.094 97.9035C91.094 98.1773 91.0974 98.4503 91.094 98.724C91.0718 100.247 91.3119 101.776 90.9904 103.284H92.2716C91.8008 101.2 91.8627 99.1255 92.0349 97.0185C91.8197 97.0185 91.5406 97.0272 91.2635 97.0158C91.0267 97.0057 90.8916 97.1093 90.8048 97.3245C90.6084 97.8121 90.4 98.2949 90.1955 98.7792C89.7691 99.7873 89.3421 100.795 88.8895 101.864L88.8881 101.863ZM101.263 96.9532C101.478 99.1349 101.478 101.203 101.275 103.286H102.376C102.336 102.286 102.297 101.311 102.258 100.331C102.655 100.253 102.869 100.427 103.048 100.677C103.588 101.434 104.122 102.194 104.674 102.941C104.78 103.085 104.945 103.25 105.103 103.274C105.435 103.325 105.78 103.29 106.045 103.29C105.248 102.239 104.438 101.171 103.669 100.158C104.065 99.8364 104.445 99.603 104.726 99.2829C105.136 98.8155 105.245 98.2411 104.993 97.65C104.748 97.0756 104.216 96.9734 103.678 96.9586C102.863 96.9357 102.046 96.9526 101.264 96.9526L101.263 96.9532ZM107.418 97.0359C107.609 99.1369 107.615 101.204 107.418 103.282H108.515C108.472 102.251 108.43 101.248 108.388 100.245C108.431 100.231 108.473 100.216 108.516 100.202C108.597 100.292 108.69 100.374 108.756 100.475C109.29 101.289 109.811 102.112 110.355 102.919C110.459 103.075 110.63 103.254 110.796 103.284C111.117 103.342 111.455 103.301 111.771 103.301C110.943 102.155 110.123 101.021 109.231 99.7853C110.188 98.8558 111.121 97.9499 112.063 97.0346H110.864C110.781 97.7603 109.102 99.677 108.385 99.8216C108.432 98.8868 108.478 97.9681 108.525 97.0353H107.42L107.418 97.0359ZM99.7286 103.312C99.4233 102.65 99.1018 102.057 98.8711 101.43C98.3694 100.067 97.9168 98.685 97.4332 97.3144C97.3936 97.2007 97.2792 97.0413 97.1871 97.0319C96.8448 96.9983 96.4964 97.0185 96.2113 97.0185C96.1494 97.3346 96.1386 97.6298 96.033 97.886C95.5098 99.1571 94.9859 100.429 94.4123 101.677C94.1547 102.237 93.7787 102.743 93.4438 103.293H94.5999C94.6342 103.022 94.6261 102.757 94.7061 102.521C94.9066 101.929 95.1372 101.346 95.3793 100.769C95.415 100.684 95.5811 100.609 95.6887 100.606C96.2711 100.59 96.8542 100.608 97.4359 100.594C97.6437 100.588 97.7285 100.67 97.793 100.854C98.052 101.593 98.321 102.328 98.5981 103.061C98.6351 103.157 98.7353 103.292 98.8166 103.3C99.1125 103.329 99.4132 103.311 99.7279 103.311L99.7286 103.312ZM130.097 101.947C129.953 102.059 129.868 102.126 129.782 102.193C128.942 102.841 127.653 102.824 126.848 102.156C125.754 101.246 125.642 98.9883 126.642 97.9735C127.54 97.0602 128.94 97.1906 129.629 98.2492C129.643 98.2694 129.681 98.2741 129.744 98.3023V97.0185C129.181 96.9862 128.624 96.9156 128.069 96.9304C126.753 96.9653 125.716 97.4987 125.217 98.7798C124.833 99.7658 124.844 100.778 125.273 101.757C125.963 103.333 128.072 103.948 129.411 102.972C129.739 102.732 129.995 102.434 130.099 101.947H130.097ZM114.564 97.4025C115.406 97.4839 116.228 97.2377 116.918 97.8638C116.896 97.5753 116.875 97.3029 116.854 97.038H113.506C113.702 99.1343 113.708 101.203 113.501 103.315C113.838 103.315 114.214 103.319 114.59 103.314C115.384 103.305 116.179 103.294 116.972 103.273C117.056 103.271 117.196 103.213 117.211 103.154C117.281 102.886 117.316 102.608 117.375 102.268C116.52 103.048 115.553 102.874 114.566 102.912V100.287C115.35 100.187 116.217 100.398 116.892 99.7375H114.563V97.4032L114.564 97.4025ZM143.988 103.295C143.663 101.766 143.826 100.37 144.726 99.0959C145.145 98.5021 145.524 97.8793 145.919 97.268C145.963 97.2007 145.991 97.1241 146.032 97.0413H144.887C144.898 97.268 144.98 97.5061 144.904 97.6702C144.514 98.5149 144.082 99.3401 143.625 100.251C143.543 100.033 143.503 99.9178 143.458 99.8048C143.151 99.0482 142.86 98.2848 142.525 97.5417C142.438 97.3487 142.238 97.1301 142.047 97.077C141.731 96.9889 141.38 97.0252 141.008 97.0077C142.425 98.9143 143.426 100.864 142.764 103.295H143.988L143.988 103.295ZM121.908 103.292C121.636 101.381 121.779 99.4894 121.8 97.5518C122.284 97.5518 122.719 97.5605 123.153 97.5491C123.603 97.537 123.881 97.3554 123.985 97.0185C122.402 97.0185 120.825 97.0165 119.249 97.0238C119.172 97.0238 119.053 97.0904 119.026 97.1557C118.944 97.3547 118.897 97.5686 118.825 97.8147C119.503 97.4738 120.16 97.6359 120.847 97.5955C120.837 99.5311 120.991 101.404 120.735 103.291H121.908V103.292ZM138.109 103.294C138.067 103.089 137.999 102.907 137.997 102.723C137.977 101.122 137.977 99.521 137.952 97.9203C137.948 97.609 138.078 97.5404 138.349 97.5511C138.685 97.5639 139.022 97.5632 139.357 97.5478C139.792 97.5276 140.059 97.3433 140.151 97.0198C138.566 97.0198 136.987 97.0178 135.407 97.0259C135.332 97.0259 135.219 97.1005 135.19 97.1691C135.108 97.3594 135.062 97.5652 135.023 97.695C135.67 97.652 136.315 97.609 137.003 97.5632C137.014 99.5257 137.168 101.41 136.892 103.295H138.11L138.109 103.294ZM133.198 103.303C132.992 101.19 132.984 99.1134 133.2 97.0434H132.055C132.239 99.1423 132.243 101.218 132.052 103.303H133.198Z" fill="#EEEEEE"/>
<path d="M144.225 58.5309C142.05 61.11 139.551 63.0483 135.908 62.8411C137.004 63.4821 138.12 64.0039 139.502 63.9622C138.985 64.5467 138.52 65.1035 138.022 65.6301C135.849 67.9268 133.152 69.4084 130.252 70.5504C127.528 71.6231 124.692 72.2472 121.779 72.5229C121.602 72.5397 121.427 72.57 121.202 72.6009C122.027 73.8814 123.093 74.8398 124.384 75.5601C125.668 76.2757 127.067 76.581 128.59 76.7195C128.387 76.9139 128.241 77.0632 128.085 77.2004C126.791 78.341 125.419 79.3592 123.74 79.869C122.316 80.3015 120.981 80.1865 119.872 79.0922C119.503 78.7284 119.217 78.2812 118.87 77.8454C118.85 77.9765 118.835 78.1029 118.809 78.2267C118.571 79.3525 117.591 80.1683 116.433 80.1844C115.874 80.1918 115.304 80.2282 114.756 80.1427C113.638 79.9692 112.873 79.1138 112.726 77.9819C112.719 77.9308 112.702 77.8817 112.671 77.7573C112.547 77.9476 112.459 78.0821 112.373 78.2173C111.473 79.6249 110.219 80.3411 108.538 80.0277C107.812 79.8926 107.095 79.6162 106.425 79.298C105.131 78.6827 104.035 77.7734 102.966 76.7525C103.604 76.6442 104.197 76.5669 104.779 76.4418C106.499 76.0719 108.064 75.3778 109.288 74.0765C109.686 73.6521 109.976 73.1249 110.358 72.5828C109.703 72.5088 109.138 72.455 108.575 72.3804C104.768 71.8766 101.08 70.9579 97.6555 69.1596C95.3615 67.9551 93.4159 66.3262 91.822 64.2803C91.7474 64.1848 91.6781 64.0853 91.6478 64.0436C92.2363 63.9185 92.8517 63.8358 93.4334 63.6495C94.0205 63.4612 94.574 63.1693 95.1383 62.8593C91.4784 63.0584 88.9813 61.1067 86.7673 58.4697C87.9469 58.7165 89.0707 58.9411 90.2201 58.2148C90.0223 58.1341 89.9168 58.0863 89.8071 58.0473C88.4305 57.5523 87.1029 56.9712 86.0053 55.9638C84.9394 54.9853 83.8445 53.0988 83.6414 51.8459C84.9596 52.431 86.2394 52.1478 87.6207 51.7221C84.5426 49.5384 82.3017 46.8758 81.7422 43.0262C83.2413 44.4117 84.893 45.3303 87.0814 45.1306C83.2016 42.0968 81.4355 38.2627 82.1175 33.4077C82.6171 34.0836 83.0731 34.7675 83.5997 35.3923C84.1397 36.0319 84.786 36.5477 85.7309 36.6204C85.6859 36.1879 85.6146 35.7824 85.6085 35.3762C85.5978 34.6283 85.5816 33.8757 85.6496 33.1326C85.7094 32.4775 85.9952 31.8844 86.4263 31.3753C86.5999 31.1701 86.772 30.9616 86.9637 30.774C87.9328 29.8244 88.3208 28.6374 88.3794 27.3185C88.3982 26.8968 88.3821 26.4732 88.3821 25.9688C88.6067 26.529 88.756 27.0367 89.0041 27.4893C89.4124 28.2332 89.8327 28.9817 90.3438 29.6549C91.0775 30.6207 91.1562 31.6026 90.6747 32.678C90.2994 33.5153 90.1474 34.3822 90.3485 35.2961C90.551 36.2162 91.0083 37.0044 91.59 37.7267C92.6324 39.0206 93.917 40.0503 95.2425 41.0328C95.2674 41.0517 95.303 41.0557 95.3723 41.0799C95.225 40.5419 95.073 40.0328 94.9473 39.517C94.683 38.4335 94.5 37.3433 94.7771 36.231C94.919 35.6606 95.2183 35.0749 95.5727 34.6996C95.6245 35.0359 95.6628 35.3519 95.7227 35.664C96.1141 37.7065 97.2298 39.3139 98.8002 40.6092C99.5742 41.2474 100.451 41.7612 101.264 42.3551C101.967 42.8689 102.695 43.3639 103.324 43.959C104.311 44.8932 104.643 46.0526 104.255 47.3944C103.908 48.5955 104.125 49.7993 104.342 50.9864C104.457 51.6078 104.651 52.2272 104.901 52.8076C105.569 54.3558 106.649 54.9234 108.316 54.7014C109.148 54.5905 109.928 54.3322 110.679 53.9738C111.473 53.5951 111.814 52.889 111.992 52.088C112.346 50.4988 112.276 48.9049 111.972 47.3184C111.586 45.296 111.799 43.3309 112.485 41.4041C112.529 41.2783 112.574 41.1297 112.668 41.0497C112.94 40.8163 112.845 40.5836 112.67 40.3852C112.406 40.0846 112.119 39.8014 111.818 39.5385C111.508 39.2661 111.154 39.0415 110.844 38.7698C110.326 38.3172 110.204 37.7166 110.258 37.0595C110.276 36.8369 110.388 36.7037 110.601 36.7676C110.86 36.8457 111.181 36.9149 111.337 37.1026C112.095 38.0132 113.12 38.147 114.192 38.1685C114.965 38.184 115.738 38.1672 116.511 38.1726C117.675 38.1813 118.511 38.683 118.901 39.8142C118.974 40.0274 119.094 40.0644 119.299 40.0657C119.803 40.0691 120.307 40.0819 120.807 40.131C121.342 40.1834 121.779 40.4444 122.113 40.8721C122.661 41.5729 123.015 42.3396 122.93 43.2562C122.887 43.7136 122.667 44.0586 122.283 44.2913C122.265 44.2805 122.237 44.2738 122.231 44.259C121.899 43.3847 121.414 43.1507 120.529 43.4432C119.85 43.6678 119.301 44.0781 118.844 44.6201C118.431 45.1098 118.371 45.7164 118.39 46.3035C118.416 47.128 118.515 47.9526 118.628 48.771C118.759 49.7126 118.909 50.6528 119.104 51.5829C119.373 52.8762 120.163 53.7471 121.431 54.117C122.103 54.3127 122.8 54.4566 123.495 54.5219C124.542 54.6201 125.327 54.1143 125.884 53.2494C126.494 52.3032 126.72 51.2312 126.852 50.1356C126.98 49.0737 126.956 48.0286 126.699 46.972C126.411 45.7937 126.851 44.7594 127.711 43.9631C128.38 43.3437 129.124 42.7895 129.894 42.2999C131.301 41.4041 132.64 40.4437 133.686 39.1222C134.647 37.9069 135.234 36.5376 135.404 34.9942C135.411 34.9383 135.419 34.8832 135.432 34.8287C135.439 34.7971 135.456 34.7675 135.485 34.6976C135.92 35.2403 136.192 35.8288 136.309 36.4858C136.53 37.722 136.27 38.913 135.94 40.0953C135.852 40.4141 135.754 40.7302 135.647 41.0947C135.735 41.0544 135.776 41.0436 135.808 41.0194C137.125 40.0436 138.397 39.0173 139.436 37.7347C140.042 36.9869 140.521 36.1724 140.71 35.2121C140.875 34.3707 140.749 33.5664 140.426 32.7809C140.173 32.1675 139.912 31.5414 140.102 30.8661C140.2 30.5184 140.358 30.166 140.569 29.8748C141.416 28.7073 142.157 27.4893 142.582 26.0999C142.587 26.0838 142.612 26.073 142.593 26.0891C142.645 26.7644 142.676 27.4685 142.757 28.1673C142.872 29.1586 143.295 30.0228 144.019 30.7041C145.109 31.731 145.558 32.9873 145.472 34.4548C145.434 35.1024 145.36 35.7481 145.302 36.3944C145.297 36.4495 145.292 36.5047 145.279 36.6459C145.55 36.58 145.8 36.5511 146.024 36.4583C146.762 36.155 147.312 35.6082 147.783 34.9881C148.173 34.4736 148.514 33.9215 148.859 33.4117C149.291 34.9612 149.149 37.6433 148.167 39.909C147.258 42.0053 145.851 43.6961 143.939 45.1118C145.019 45.2631 145.948 45.0734 146.848 44.6975C147.756 44.3175 148.528 43.729 149.285 43.0215C148.737 46.8752 146.511 49.537 143.49 51.6703C144.242 52.1868 145.94 52.2682 147.409 51.8781C146.507 55.2926 144.172 57.208 140.818 58.1556C141.361 58.6425 141.926 58.7239 142.504 58.6997C143.07 58.6754 143.633 58.5934 144.223 58.5342L144.225 58.5309ZM117.751 40.6925C117.741 40.3583 117.455 40.0799 117.125 40.0846C116.766 40.0893 116.508 40.3704 116.525 40.739C116.54 41.0819 116.824 41.3516 117.155 41.3375C117.482 41.3234 117.759 41.0221 117.75 40.6925H117.751Z" fill="#EEEEEE"/>
<path d="M112.358 79.6893C112.712 79.9899 113.029 80.308 113.394 80.5562C113.912 80.9086 114.502 81.0774 115.139 81.0606C115.743 81.0444 116.355 81.0982 116.95 81.0189C117.851 80.8985 118.575 80.417 119.135 79.6805C119.181 79.7095 119.222 79.7263 119.251 79.7538C120.618 81.0175 122.202 81.2395 123.939 80.7364C125.44 80.3013 126.712 79.4559 127.943 78.5285C128.09 78.4182 128.208 78.1438 128.474 78.3361C128.736 78.5265 128.865 78.8843 128.733 79.1708C128.622 79.4122 128.499 79.6704 128.312 79.85C126.885 81.2267 125.285 82.2927 123.271 82.6027C122.532 82.7164 121.822 82.5879 121.118 82.3848C121 82.3505 120.882 82.3149 120.768 82.2678C119.834 81.879 118.93 81.9436 118.003 82.3411C116.654 82.9188 115.273 82.9248 113.922 82.3384C113.008 81.9416 112.115 81.8959 111.188 82.2691C109.406 82.9854 107.707 82.6901 106.103 81.7486C105.354 81.3087 104.652 80.7828 103.954 80.2623C103.69 80.0659 103.477 79.7895 103.278 79.5218C103.163 79.3665 103.068 79.1539 103.068 78.9683C103.069 78.7881 103.189 78.5978 103.297 78.4404C103.315 78.4155 103.568 78.5157 103.68 78.5998C104.941 79.5433 106.249 80.3988 107.8 80.7936C109.489 81.2233 111.018 80.9698 112.306 79.7182C112.328 79.6967 112.363 79.6866 112.358 79.6893V79.6893Z" fill="#EEEEEE"/>
<path d="M119.359 45.7842C119.422 45.6039 119.449 45.3685 119.572 45.2064C119.924 44.7411 120.389 44.4216 120.964 44.2689C121.162 44.2165 121.266 44.2703 121.306 44.4646C121.366 44.7592 121.425 45.0538 121.477 45.312C120.776 45.4681 120.092 45.6207 119.359 45.7842V45.7842Z" fill="#EEEEEE"/>
<path d="M102.334 99.8682V97.4007C102.721 97.4007 103.074 97.3502 103.403 97.4188C103.617 97.4632 103.861 97.6394 103.977 97.8277C104.472 98.6294 103.939 99.7351 103.014 99.8635C102.795 99.8938 102.569 99.8682 102.334 99.8682V99.8682Z" fill="#EEEEEE"/>
<path d="M95.6282 100.158C95.9564 99.3728 96.2778 98.6041 96.6349 97.75C96.9443 98.59 97.2268 99.3567 97.522 100.158H95.6282V100.158Z" fill="#EEEEEE"/>
</g>
</g>
<defs>
<clipPath id="clip0_503_3946">
<rect width="231" height="127" fill="white"/>
</clipPath>
<clipPath id="clip1_503_3946">
<rect width="79.56" height="88.0348" fill="white" transform="translate(76 19)"/>
</clipPath>
</defs>
</svg>
