<?xml version="1.0" encoding="utf-8"?>
<!-- Generator: Adobe Illustrator 24.0.1, SVG Export Plug-In . SVG Version: 6.00 Build 0)  -->
<svg version="1.1" id="Layer_1" xmlns="http://www.w3.org/2000/svg" xmlns:xlink="http://www.w3.org/1999/xlink" x="0px" y="0px"
	 viewBox="0 0 55.2 28.9" style="enable-background:new 0 0 55.2 28.9;" xml:space="preserve">
<style type="text/css">
	.st0{clip-path:url(#SVGID_2_);}
	.st1{fill:#FFFFFF;}
</style>
<g>
	<g>
		<defs>
			<rect id="SVGID_1_" width="55.2" height="28.9"/>
		</defs>
		<clipPath id="SVGID_2_">
			<use xlink:href="#SVGID_1_"  style="overflow:visible;"/>
		</clipPath>
		<g class="st0">
			<path class="st1" d="M41.6,10.5h-2.4l-0.9,5.7h2.3c1.7-0.2,3.2-0.8,3.4-4C43.9,11,42.9,10.5,41.6,10.5z"/>
			<path class="st1" d="M16.3,10.5h-2.4l-0.9,5.7h2.3c1.7-0.2,3.2-0.8,3.4-4C18.5,11,17.6,10.5,16.3,10.5z"/>
			<path class="st1" d="M27.6,0C12.4,0,0,6.5,0,14.4s12.4,14.4,27.6,14.4s27.6-6.5,27.6-14.4S42.9,0,27.6,0z M15.5,19h-3.4l-0.8,4
				H7.8l3-15.4h7c3,0.2,4.6,1.7,4.6,4.4c0.1,0.9-0.1,1.8-0.4,2.7c-0.3,0.8-0.8,1.6-1.4,2.3c-0.6,0.7-1.4,1.2-2.2,1.6
				C17.3,18.8,16.4,19,15.5,19z M29.7,10.5h-2.8L25.2,19h-3.6l3-15.4h3.6l-0.8,4h3.4c3,0.2,4.2,1.7,3.8,3.6L33.2,19h-3.8l1.3-7
				C31.1,11,31.1,10.5,29.7,10.5z M40.9,19h-3.4l-0.8,4h-3.6l3.1-15.4h7c3,0.2,4.6,1.7,4.6,4.4c0.1,0.9-0.1,1.8-0.4,2.7
				c-0.3,0.8-0.8,1.7-1.4,2.3c-0.6,0.7-1.4,1.2-2.3,1.5C42.6,18.8,41.7,19,40.9,19z"/>
		</g>
	</g>
</g>
</svg>
