<svg width="216" height="207" viewBox="0 0 216 207" fill="none" xmlns="http://www.w3.org/2000/svg">
<g clip-path="url(#clip0_5455_7643)">
<rect width="216" height="206.929" fill="#151517"/>
<g clip-path="url(#clip1_5455_7643)">
<path d="M139.421 94.5215H133.919L131.781 107.28H136.996C140.802 106.86 144.218 105.574 144.635 98.3018C144.531 95.7816 142.393 94.5215 139.421 94.5215Z" fill="white"/>
<path d="M82.5298 94.5215H77.0025L74.8906 107.28H79.9747C83.8073 106.86 87.1968 105.574 87.6139 98.3018C87.6139 95.7816 85.502 94.5215 82.5298 94.5215Z" fill="white"/>
<path d="M108 71C73.767 71 46 85.5436 46 103.5C46 121.456 73.767 135.974 108 135.974C142.233 135.974 169.948 121.43 169.948 103.5C169.948 85.5699 142.233 71 108 71ZM80.8327 113.738H73.1935L71.4727 122.716H63.4164L70.2212 88.0638H85.8646C92.6695 88.4838 96.0589 91.9229 96.0589 97.9083C96.1591 99.9716 95.8376 102.034 95.1144 103.967C94.3911 105.9 93.2815 107.663 91.8541 109.147C90.4268 110.631 88.7122 111.804 86.8164 112.594C84.9206 113.384 82.884 113.773 80.8327 113.738ZM112.797 94.5218H106.436L102.603 113.765H94.5467L101.325 79.1119H109.382L107.687 88.0901H115.352C122.131 88.5101 124.686 91.9491 123.826 96.2019L120.854 113.765H112.38L115.352 98.0133C115.77 95.7819 115.77 94.5218 112.797 94.5218ZM137.723 113.738H130.083L128.389 122.743H120.41L127.215 88.0901H142.859C149.637 88.5101 153.053 91.9491 153.053 97.9346C153.146 100.004 152.816 102.07 152.084 104.006C151.351 105.941 150.232 107.705 148.794 109.186C147.357 110.668 145.632 111.837 143.728 112.62C141.823 113.403 139.779 113.784 137.723 113.738Z" fill="white"/>
</g>
</g>
<defs>
<clipPath id="clip0_5455_7643">
<rect width="216" height="206.929" fill="white"/>
</clipPath>
<clipPath id="clip1_5455_7643">
<rect width="124" height="65" fill="white" transform="translate(46 71)"/>
</clipPath>
</defs>
</svg>
