<svg width="231" height="127" viewBox="0 0 231 127" fill="none" xmlns="http://www.w3.org/2000/svg">
<g clip-path="url(#clip0_632_3599)">
<g clip-path="url(#clip1_632_3599)">
<path d="M41.1249 72.7522V83.0725H35.9961V52.02C36.1981 52.0014 36.3859 52.02 36.5738 52.02C39.6661 52.0173 42.7584 52.005 45.8516 52.0252C47.5335 52.0358 49.1617 52.3507 50.6964 53.0642C53.6626 54.4437 55.5818 56.7272 56.3985 59.8671C57.2179 63.0167 57.0336 66.124 55.5015 69.0452C52.6747 74.4377 46.4284 75.6355 41.812 73.1024C41.6285 73.0018 41.4389 72.9119 41.124 72.7514L41.1249 72.7522ZM41.1734 68.2302C42.3818 69.1061 43.7048 69.63 45.1901 69.7367C47.6411 69.9113 49.7271 68.785 50.8031 66.6708C51.6445 65.0171 51.8403 63.261 51.4972 61.4538C50.9354 58.4974 48.9915 56.7325 45.9856 56.5428C44.4571 56.4467 42.918 56.5226 41.3834 56.5252C41.326 56.5252 41.2696 56.5737 41.1734 56.6169V68.2293V68.2302Z" fill="#EEEEEE"/>
<path d="M154.939 73.8046V43.1498C155.456 42.999 159.16 42.9743 159.974 43.1242C159.999 44.1897 159.985 45.2807 159.988 46.37C159.99 47.4901 159.989 48.6103 159.99 49.7304C159.99 50.825 159.99 51.9204 159.99 53.0961C160.182 53.0158 160.313 52.9762 160.429 52.9091C165.745 49.8565 172.262 52.0412 174.452 57.7522C176.087 62.0158 175.665 66.1603 172.862 69.87C170.866 72.5125 168.071 73.7861 164.779 73.8557C161.624 73.9228 158.466 73.861 155.309 73.854C155.204 73.854 155.098 73.8258 154.939 73.8037V73.8046ZM160.016 69.4616C160.235 69.4766 160.423 69.5013 160.612 69.5013C161.843 69.5013 163.075 69.5251 164.307 69.489C166.798 69.4158 168.559 68.2127 169.573 65.9574C170.283 64.3778 170.37 62.717 170.086 61.0244C169.522 57.6772 166.837 55.6804 163.467 56.1346C162.185 56.3075 161.018 56.7793 160.016 57.5793V69.4616Z" fill="#EEEEEE"/>
<path d="M146.123 53.0415C146.145 52.7328 146.167 52.4179 146.192 52.0519H151.146V73.884H146.204C146.171 73.5206 146.142 73.1908 146.106 72.7939C145.837 72.9288 145.629 73.0294 145.424 73.1361C144.184 73.7817 142.87 74.1883 141.479 74.3374C138.887 74.6143 136.612 73.8249 134.581 72.2603C131.768 70.0932 130.357 67.1896 130.185 63.6881C129.978 59.4977 131.518 56.0623 134.858 53.4851C136.516 52.2053 138.451 51.5729 140.536 51.5588C142.283 51.5474 143.97 51.9425 145.51 52.8227C145.659 52.9083 145.811 52.9886 145.966 53.0626C145.998 53.0776 146.048 53.0538 146.124 53.0424L146.123 53.0415ZM146.13 57.6393C144.812 56.5192 142.558 55.8048 140.693 56.1638C138.681 56.5518 137.206 57.6429 136.452 59.5683C135.639 61.6489 135.596 63.7851 136.289 65.8993C137.752 70.3613 142.976 70.857 146.13 68.2666V57.6385V57.6393Z" fill="#EEEEEE"/>
<path d="M111.058 64.4311H95.6562C95.4516 66.4386 97.0286 68.8605 99.0034 69.634C100.879 70.3687 103.871 70.2964 105.648 67.6786H110.205C110.138 67.915 110.099 68.1011 110.034 68.2766C108.704 71.8479 105.439 74.1658 101.622 74.3686C96.1343 74.6606 91.4579 70.8856 90.5036 65.3052C89.9779 62.2314 90.3969 59.2926 92.0233 56.5822C95.3872 50.9771 103.197 49.8279 108.033 54.229C109.748 55.7893 110.653 57.7817 111.06 60.0273C111.29 61.2894 111.255 62.5595 111.175 63.8296C111.164 63.9981 111.112 64.1639 111.058 64.432V64.4311ZM106.35 60.6729C106.252 58.1063 103.891 55.8607 100.886 55.8916C98.0606 55.9207 95.8609 58.1478 95.6492 60.6729H106.35Z" fill="#EEEEEE"/>
<path d="M73.6691 73.8451H68.6655V52.065H73.6268C73.6532 52.386 73.6806 52.7168 73.7167 53.1587C73.9787 53.0193 74.1754 52.9152 74.3712 52.8103C77.1715 51.31 80.0592 51.1221 82.9971 52.3296C85.6917 53.4374 87.1893 55.4924 87.5597 58.3616C87.6426 59.001 87.6876 59.6502 87.6885 60.2949C87.6973 64.5832 87.6885 68.8724 87.6867 73.1606C87.6867 73.3723 87.6867 73.5849 87.6867 73.7736C87.0932 73.9659 83.3561 73.9897 82.6399 73.801C82.6399 73.5311 82.6399 73.2356 82.6399 72.9401C82.6338 68.845 82.6382 64.7508 82.617 60.6557C82.6108 59.3882 82.2351 58.2337 81.3258 57.3014C80.6325 56.5914 79.7664 56.2113 78.7935 56.1178C76.9272 55.9396 75.2479 56.4582 73.67 57.5951V73.8416L73.6691 73.8451Z" fill="#EEEEEE"/>
<path d="M178.3 72.5336V67.6059C178.569 67.7505 178.77 67.8564 178.967 67.9657C181.417 69.3258 184.026 70.0676 186.848 69.9705C187.588 69.945 188.309 69.8153 188.969 69.4493C189.699 69.0436 190.057 68.4173 190.039 67.5918C190.02 66.7742 189.611 66.1771 188.847 65.9072C188.118 65.6496 187.358 65.4715 186.604 65.2924C185.237 64.9687 183.854 64.7076 182.497 64.3513C181.512 64.0929 180.588 63.6589 179.77 63.0318C178.433 62.007 177.765 60.6557 177.693 58.9764C177.62 57.2741 178.005 55.7245 179.088 54.383C180.058 53.1808 181.344 52.4584 182.807 52.0307C185.26 51.3136 187.726 51.4627 190.193 51.9566C191.472 52.2124 192.701 52.6119 193.908 53.2584V58.1015C193.675 57.9824 193.496 57.8907 193.315 57.7998C190.924 56.5932 188.419 55.8559 185.707 55.975C185.03 56.0049 184.374 56.1346 183.775 56.4636C182.943 56.9205 182.597 57.776 182.847 58.6571C182.974 59.1043 183.241 59.443 183.652 59.6167C184.205 59.8505 184.777 60.0657 185.361 60.2015C186.896 60.5596 188.451 60.8383 189.983 61.2123C191.057 61.4751 192.076 61.9117 192.981 62.5626C194.584 63.7145 195.14 65.3462 195.126 67.239C195.1 70.7502 193.114 72.9896 189.841 73.8884C186.024 74.9371 182.296 74.3796 178.708 72.7832C178.572 72.7233 178.452 72.628 178.3 72.5327V72.5336Z" fill="#EEEEEE"/>
<path d="M120.843 43.0547H125.877V69.4697C127.039 69.4847 128.125 69.4979 129.242 69.512V73.8047C129.058 73.8329 128.894 73.8797 128.73 73.8806C127.605 73.8867 126.481 73.8726 125.356 73.8859C122.445 73.9185 121.087 72.0866 120.89 69.6276C120.839 68.9846 120.848 68.3363 120.848 67.6898C120.844 59.7818 120.844 51.8738 120.842 43.9658C120.842 43.6906 120.842 43.4145 120.842 43.0556L120.843 43.0547Z" fill="#EEEEEE"/>
<path d="M59.8589 52.0703H64.7946V73.8848H59.8589V52.0703Z" fill="#EEEEEE"/>
<path d="M64.8648 46.7573H59.938L63.3619 43.0547H68.4528V48.2267L64.8648 51.8667V46.7573Z" fill="#EEEEEE"/>
</g>
</g>
<defs>
<clipPath id="clip0_632_3599">
<rect width="231" height="127" fill="white"/>
</clipPath>
<clipPath id="clip1_632_3599">
<rect width="159.13" height="40.0493" fill="white" transform="translate(36 43)"/>
</clipPath>
</defs>
</svg>
