<svg width="208" height="37" viewBox="0 0 208 37" fill="none" xmlns="http://www.w3.org/2000/svg">
<path d="M167.394 15.0763C167.394 10.9163 167.394 6.75615 167.394 2.57175C167.394 1.3067 167.516 0.0903238 169.17 0.163308C170.605 0.211963 170.654 1.37971 170.654 2.45014C170.654 11.0379 170.654 19.6256 170.654 28.2377C170.654 29.3811 170.386 30.4759 169.097 30.4759C167.589 30.4759 167.345 29.2595 167.37 27.9701C167.394 23.6641 167.37 19.3824 167.37 15.0763H167.394Z" fill="#A8A8A8"/>
<path d="M177.854 15.1497C177.854 19.4557 177.854 23.7374 177.854 28.0435C177.854 29.1382 177.757 30.379 176.516 30.5006C175.081 30.6223 174.594 29.5032 174.594 28.1408C174.619 19.5531 174.594 10.9653 174.594 2.3532C174.594 1.20979 174.838 0.212357 176.224 0.163701C178.073 0.115045 177.83 1.55037 177.83 2.64512C177.854 6.8052 177.83 10.9896 177.83 15.1497H177.854Z" fill="#A8A8A8"/>
<path d="M32.5215 18.7746C32.5215 21.7426 32.5215 24.7349 32.5215 27.7029C32.5215 28.9437 32.4972 30.2087 30.9159 30.3303C29.1886 30.4763 29.1886 29.1382 29.1643 27.9462C29.1643 21.5966 29.1643 15.247 29.1643 8.89744C29.1643 7.9 29.1642 6.63494 30.6482 6.61061C32.2295 6.61061 32.4972 7.72967 32.4728 9.01905C32.4728 12.2547 32.4728 15.4903 32.4728 18.7259L32.5215 18.7746Z" fill="#A8A8A8"/>
<path d="M103.389 18.4092C103.267 20.5014 102.124 21.6934 100.178 21.7421C98.2315 21.7664 96.9178 20.6473 96.8448 18.6525C96.7718 16.4873 97.9882 15.1978 100.202 15.2465C102.197 15.2951 103.194 16.6089 103.389 18.4092Z" fill="#A8A8A8"/>
<path fill-rule="evenodd" clip-rule="evenodd" d="M3.40385 30.2857C3.40116 29.5343 3.39848 28.7864 3.39848 28.044L3.42276 28.0683C4.46877 27.8378 4.998 28.318 5.49061 28.7649C5.67396 28.9312 5.85225 29.0929 6.05021 29.2117C11.67 32.5203 18.6764 31.2553 22.6905 26.1707C26.5343 21.2808 26.0477 14.323 21.5227 9.82237C17.2897 5.58931 11.451 5.07844 5.61225 8.31405C5.4651 8.39057 5.29231 8.56822 5.10663 8.7591C4.52491 9.35715 3.81672 10.0852 3.37413 8.24107C3.13085 7.2193 2.74163 6.46507 1.57389 6.6597C0.284506 6.87865 0.0898438 7.90043 0.0898438 9.01951V34.7828C0.0898438 35.9262 0.430417 36.9236 1.74412 36.9966C3.2038 37.0696 3.39848 35.9262 3.39848 34.8557C3.41474 33.3275 3.40927 31.7994 3.40385 30.2857ZM21.7429 18.8226C21.8402 13.6407 17.9478 9.62665 12.7903 9.60233C7.68139 9.55367 3.42401 13.6651 3.44834 18.628C3.497 23.5665 7.7787 27.7752 12.7903 27.7266C17.7288 27.6779 21.6456 23.7854 21.7429 18.8226Z" fill="#A8A8A8"/>
<path fill-rule="evenodd" clip-rule="evenodd" d="M39.6702 27.5472V34.8062C39.6702 35.9496 39.3539 36.9714 37.9915 36.9714C36.5805 36.9714 36.386 35.8523 36.386 34.7575V8.92131C36.386 8.02117 36.386 6.99934 37.505 6.65875C38.3565 6.39115 39.3539 6.78038 39.4512 7.55888C39.7569 10.2335 40.7677 9.32254 41.6001 8.57243C41.8276 8.36734 42.0418 8.17428 42.2247 8.06981C47.4308 5.12614 53.0263 5.56401 57.2107 9.33484C61.2978 13.0327 62.5141 18.9687 60.1543 24.0046C57.2593 30.2082 49.1095 32.8843 43.0032 29.6C42.338 29.2431 41.6944 28.8321 40.921 28.3381C40.5413 28.0956 40.1303 27.8331 39.6702 27.5472ZM48.482 27.7272C53.5909 27.9218 57.8482 23.9807 57.9942 18.9448H58.0185C58.1645 13.7873 54.272 9.67589 49.1145 9.60291C43.8597 9.52993 39.7726 13.4223 39.724 18.5312C39.6753 23.3725 43.6408 27.5325 48.482 27.7272Z" fill="#A8A8A8"/>
<path fill-rule="evenodd" clip-rule="evenodd" d="M85.7872 8.53428C85.7018 8.88479 85.6169 9.23349 85.484 9.52963C78.6235 5.02897 72.6388 5.07762 67.8949 9.6756C63.3699 14.0546 62.859 21.4989 66.7758 26.3645C70.6926 31.2058 77.626 32.3492 83.1971 29.3082C83.3319 29.2346 83.4868 29.0022 83.6628 28.7379C84.1859 27.9527 84.8963 26.8864 85.8245 28.8703C86.3111 29.9164 86.8949 30.7436 88.1843 30.2084C89.2997 29.7399 89.2901 28.7396 89.2808 27.7702C89.28 27.6824 89.2791 27.5948 89.2791 27.5079C89.2791 25.5527 89.2818 23.6001 89.2845 21.6485V21.6458V21.6431C89.2899 17.7443 89.2953 13.8491 89.2791 9.94317C89.2752 9.74711 89.282 9.53904 89.289 9.3265C89.3253 8.22047 89.3655 6.99326 87.9168 6.70759C86.3077 6.39676 86.0454 7.47386 85.7872 8.53428ZM85.7276 18.7492C85.8006 13.6403 81.8108 9.60193 76.6533 9.60193V9.57758C71.4471 9.57758 67.4087 13.5673 67.4573 18.6762C67.4817 23.6877 71.739 27.7749 76.7749 27.7019C81.6891 27.6289 85.6546 23.6634 85.7276 18.7492Z" fill="#A8A8A8"/>
<path fill-rule="evenodd" clip-rule="evenodd" d="M133.14 10.4783C128.566 5.05319 122.144 4.61533 114.261 9.52957L114.237 9.48087C114.237 8.65013 114.246 7.87551 114.254 7.13643L114.254 7.13525C114.27 5.7537 114.285 4.49629 114.237 3.22857C114.233 3.00317 114.25 2.75776 114.267 2.50715C114.342 1.43239 114.424 0.261945 112.826 0.163306C110.86 0.0404496 110.946 1.39972 111.022 2.61651C111.036 2.8453 111.05 3.06937 111.05 3.27728C111.002 11.0865 111.002 18.9201 111.05 26.7294C111.055 27.0112 111.026 27.3187 110.996 27.6326C110.886 28.7818 110.767 30.0155 112.315 30.3785C113.827 30.7565 114.041 29.6665 114.25 28.5993C114.337 28.1552 114.423 27.715 114.602 27.3863C121.463 32.1545 127.934 31.8869 132.726 26.8753C136.959 22.4233 137.154 15.2466 133.14 10.4783ZM123.408 27.6534C128.444 27.702 132.604 23.4689 132.58 18.3601C132.555 13.3729 128.59 9.43177 123.554 9.43177C118.396 9.40744 114.163 13.5918 114.261 18.6034C114.358 23.3473 118.64 27.6047 123.408 27.6534Z" fill="#A8A8A8"/>
<path fill-rule="evenodd" clip-rule="evenodd" d="M142.079 20.0147C144.884 28.4111 152.805 30.0804 158.371 23.8342C158.499 23.6921 158.625 23.5433 158.75 23.3956C159.523 22.481 160.267 21.6023 161.46 22.5448C162.758 23.5832 161.813 24.8505 161.044 25.8804L160.974 25.975C157.787 30.4514 150.853 32.1786 145.72 29.7702C140.173 27.1671 137.351 21.0608 138.908 15.0518C140.295 9.69969 146.11 5.53961 151.656 5.92886C157.446 6.31811 162.652 11.0134 163.407 16.3656C163.771 18.92 163.163 20.2823 160.147 20.0634C158.048 19.911 155.926 19.9471 153.805 19.9832C152.877 19.999 151.949 20.0147 151.024 20.0147H142.079ZM142.289 16.6824H159.781C158.199 11.5979 155.085 9.23811 150.609 9.40841C146.352 9.5787 143.384 12.1331 142.289 16.6824Z" fill="#A8A8A8"/>
<path fill-rule="evenodd" clip-rule="evenodd" d="M206.999 27.5811V18.6041H206.975C206.975 17.5165 206.972 16.4317 206.97 15.3477C206.964 13.1826 206.959 11.021 206.975 8.84861C206.999 7.85116 206.683 7.02398 205.71 6.68339C205.053 6.46444 204.153 6.61041 204.031 7.29159C203.501 10.2828 202.323 9.26682 201.31 8.39378C201.022 8.14493 200.747 7.90769 200.504 7.77817C195.322 5.00479 188.899 6.00223 185.08 10.2839C180.774 15.1495 180.677 21.8397 184.812 26.6323C188.972 31.4492 195.614 32.398 201.234 29.1381C201.381 29.0519 201.546 28.8393 201.726 28.6083C202.255 27.9266 202.909 27.0837 203.618 28.8461C204.08 29.9652 204.567 30.7194 205.88 30.2328C207.027 29.7918 207.014 28.8312 207.002 27.8763C207.001 27.7777 206.999 27.679 206.999 27.5811ZM203.594 18.6042C203.594 13.544 199.385 9.52989 194.179 9.60288C189.143 9.67586 185.299 13.617 185.299 18.6529C185.324 23.8104 189.46 27.8488 194.617 27.7271C199.507 27.6055 203.594 23.4697 203.594 18.6042Z" fill="#A8A8A8"/>
</svg>
