<svg width="216" height="207" viewBox="0 0 216 207" fill="none" xmlns="http://www.w3.org/2000/svg">
<g clip-path="url(#clip0_5534_1468)">
<rect width="216" height="206.929" fill="#151517"/>
<path d="M109.877 121.978C101.665 121.978 93.993 118.784 88.1869 112.978C82.3808 107.214 79.1875 99.4998 79.1875 91.2883C79.1875 83.1184 82.3808 75.4046 88.1869 69.5985C93.993 63.834 101.707 60.6406 109.877 60.6406C118.088 60.6406 125.76 63.834 131.566 69.5985C137.373 75.4046 140.566 83.0769 140.566 91.2883C140.566 99.4583 137.373 107.172 131.566 112.978C125.802 118.784 118.088 121.978 109.877 121.978ZM109.877 68.935C103.905 68.935 98.2646 71.2574 94.0344 75.4876C89.8458 79.7177 87.5233 85.3164 87.5233 91.2883C87.5233 97.2603 89.8458 102.859 94.0759 107.089C98.306 111.319 103.946 113.642 109.918 113.642C115.89 113.642 121.53 111.319 125.76 107.089C129.991 102.859 132.313 97.2603 132.313 91.2883C132.313 85.3164 129.991 79.7177 125.76 75.4876C121.489 71.2574 115.849 68.935 109.877 68.935Z" fill="white"/>
<path d="M116.722 80.1319L117.801 76.2751C118.879 76.1921 119.75 75.2797 119.75 74.16C119.75 72.9988 118.796 72.0449 117.593 72.0449C116.432 72.0449 115.437 72.9988 115.437 74.16C115.437 74.948 115.852 75.6115 116.474 75.9847L115.437 79.7587C112.451 79.0122 109.921 79.0537 109.921 79.0537L109.465 79.261V108.457L109.921 108.623C112.741 108.623 125.1 100.121 125.141 90.9561C125.1 84.4035 120.745 81.459 116.722 80.1319ZM113.736 98.9187C111.331 95.0618 112.326 86.1454 118.63 84.8597C120.372 84.5694 122.446 85.7306 123.109 88.2189C124.685 93.5688 115.437 101.034 113.736 98.9187ZM117.51 90.7073C116.432 90.7073 115.561 91.5782 115.561 92.6564C115.561 93.7347 116.432 94.6056 117.51 94.6056C118.589 94.6056 119.46 93.7347 119.46 92.6564C119.46 91.5782 118.589 90.7073 117.51 90.7073ZM118.091 92.4905C117.801 92.4905 117.593 92.2832 117.593 91.9929C117.593 91.7026 117.801 91.4952 118.091 91.4952C118.381 91.4952 118.589 91.7026 118.589 91.9929C118.589 92.2832 118.381 92.4905 118.091 92.4905Z" fill="#808080"/>
<path d="M104.366 79.8421L103.329 75.9437C103.91 75.5705 104.325 74.9069 104.325 74.1604C104.325 72.9992 103.371 72.0039 102.168 72.0039C100.965 72.0039 100.012 72.9578 100.012 74.1604C100.012 75.3217 100.965 76.2755 102.127 76.2755L103.163 80.2153C99.0991 81.5839 94.7031 84.5284 94.7031 90.9565C94.7861 100.288 107.062 108.624 109.882 108.624V79.0541C109.923 79.0541 107.394 79.0541 104.366 79.8421ZM106.523 98.9191C104.822 101.034 95.574 93.5693 97.15 88.2194C97.772 85.6896 99.8871 84.5699 101.629 84.8602C107.933 86.1458 108.928 95.0623 106.523 98.9191ZM102.624 90.7492C101.546 90.7492 100.675 91.6201 100.675 92.6984C100.675 93.7766 101.546 94.6475 102.624 94.6475C103.703 94.6475 104.573 93.7766 104.573 92.6984C104.573 91.6201 103.703 90.7492 102.624 90.7492ZM102.044 92.5325C101.753 92.5325 101.546 92.3251 101.546 92.0348C101.546 91.7445 101.753 91.5372 102.044 91.5372C102.292 91.5372 102.541 91.7445 102.541 92.0348C102.541 92.3251 102.334 92.5325 102.044 92.5325Z" fill="white"/>
<path d="M61.1066 133.921C61.1066 135.621 60.526 136.907 59.3648 137.819C58.2035 138.731 56.5861 139.187 54.4296 139.187H52.4804V145.74H50.5312V129.068H54.8443C59.033 129.068 61.1066 130.686 61.1066 133.921ZM52.4804 137.529H54.2222C55.9226 137.529 57.1667 137.238 57.9547 136.699C58.7012 136.16 59.1159 135.248 59.1159 134.045C59.1159 132.925 58.7427 132.137 58.0377 131.598C57.3326 131.059 56.1714 130.769 54.6784 130.769H52.4804V137.529Z" fill="white"/>
<path d="M66.2085 127.99H64.3008V145.699H66.2085V127.99Z" fill="white"/>
<path d="M77.8981 145.742L77.5248 143.958H77.4004C76.7783 144.746 76.1563 145.285 75.5342 145.534C74.9121 145.825 74.1241 145.949 73.2118 145.949C71.9676 145.949 71.0138 145.617 70.3087 144.995C69.6037 144.373 69.2305 143.461 69.2305 142.258C69.2305 139.728 71.2626 138.401 75.2854 138.318L77.4004 138.235V137.447C77.4004 136.452 77.1931 135.747 76.7783 135.291C76.3636 134.835 75.6586 134.586 74.7462 134.586C73.7094 134.586 72.5482 134.917 71.2211 135.54L70.6405 134.088C71.2626 133.756 71.9261 133.507 72.6726 133.3C73.4191 133.093 74.1656 133.01 74.8706 133.01C76.3636 133.01 77.4834 133.342 78.1884 134.005C78.8934 134.669 79.2667 135.705 79.2667 137.198V145.7H77.8981V145.742ZM73.6265 144.373C74.7877 144.373 75.7415 144.041 76.4051 143.419C77.0686 142.756 77.4004 141.885 77.4004 140.724V139.604L75.4927 139.687C73.9997 139.728 72.9215 139.977 72.2164 140.392C71.5944 140.765 71.2626 141.429 71.2626 142.299C71.2626 143.004 71.4699 143.502 71.8847 143.875C72.2994 144.207 72.88 144.373 73.6265 144.373Z" fill="white"/>
<path d="M87.2363 144.371C87.5681 144.371 87.8999 144.371 88.1902 144.289C88.522 144.247 88.7708 144.206 88.9367 144.123V145.574C88.7293 145.657 88.439 145.74 88.0243 145.823C87.6096 145.864 87.2778 145.906 86.946 145.906C84.5407 145.906 83.338 144.62 83.338 142.091V134.667H81.5547V133.755L83.338 132.967L84.1259 130.312H85.2042V133.216H88.8537V134.667H85.2457V142.008C85.2457 142.754 85.4116 143.335 85.7848 143.749C86.1166 144.164 86.6143 144.371 87.2363 144.371Z" fill="white"/>
<path d="M97.0647 134.71H93.8713V145.742H92.0051V134.71H89.7656V133.839L92.0051 133.176V132.471C92.0051 129.402 93.3322 127.867 96.0279 127.867C96.6914 127.867 97.4794 127.992 98.3503 128.282L97.8526 129.775C97.1061 129.568 96.4841 129.443 95.9864 129.443C95.2814 129.443 94.7422 129.692 94.4105 130.148C94.0787 130.604 93.9128 131.392 93.9128 132.429V133.259H97.1061V134.71H97.0647Z" fill="white"/>
<path d="M110.126 139.479C110.126 141.511 109.628 143.087 108.591 144.249C107.555 145.368 106.145 145.949 104.361 145.949C103.242 145.949 102.246 145.7 101.375 145.161C100.504 144.622 99.8409 143.875 99.3847 142.922C98.9285 141.926 98.6797 140.806 98.6797 139.479C98.6797 137.447 99.1773 135.871 100.214 134.71C101.209 133.59 102.661 133.01 104.444 133.01C106.186 133.01 107.596 133.59 108.633 134.752C109.628 135.913 110.126 137.489 110.126 139.479ZM100.629 139.479C100.629 141.097 100.961 142.299 101.583 143.129C102.205 143.958 103.159 144.373 104.403 144.373C105.647 144.373 106.601 143.958 107.223 143.129C107.845 142.299 108.177 141.097 108.177 139.479C108.177 137.903 107.845 136.701 107.223 135.871C106.601 135.042 105.647 134.627 104.361 134.627C103.117 134.627 102.163 135.042 101.541 135.83C100.919 136.659 100.629 137.862 100.629 139.479Z" fill="white"/>
<path d="M119.165 133.01C119.704 133.01 120.201 133.051 120.658 133.134L120.409 134.876C119.87 134.752 119.413 134.71 119.04 134.71C118.045 134.71 117.174 135.125 116.427 135.954C115.722 136.784 115.349 137.779 115.349 139.023V145.742H113.441V133.217H115.017L115.225 135.54H115.308C115.764 134.71 116.344 134.088 116.967 133.673C117.672 133.217 118.377 133.01 119.165 133.01Z" fill="white"/>
<path d="M138.906 145.742V137.613C138.906 136.618 138.698 135.871 138.284 135.374C137.869 134.876 137.205 134.627 136.293 134.627C135.132 134.627 134.261 134.959 133.68 135.622C133.1 136.286 132.851 137.323 132.851 138.733V145.7H130.943V137.572C130.943 136.576 130.736 135.83 130.321 135.332C129.906 134.835 129.243 134.586 128.33 134.586C127.128 134.586 126.298 134.917 125.718 135.664C125.178 136.369 124.888 137.53 124.888 139.148V145.7H122.98V133.217H124.515L124.805 134.917H124.888C125.261 134.295 125.759 133.839 126.381 133.507C127.003 133.176 127.75 133.01 128.579 133.01C130.528 133.01 131.814 133.715 132.395 135.125H132.478C132.851 134.461 133.39 133.964 134.095 133.59C134.8 133.217 135.588 133.01 136.5 133.01C137.91 133.01 138.989 133.383 139.694 134.088C140.399 134.793 140.73 135.954 140.73 137.572V145.7H138.906V145.742Z" fill="white"/>
<path d="M146.953 129.068H145.004V145.74H146.953V129.068Z" fill="white"/>
<path d="M165.985 137.364C165.985 140.018 165.322 142.133 163.953 143.667C162.585 145.202 160.718 145.948 158.313 145.948C155.866 145.948 153.958 145.202 152.631 143.709C151.304 142.216 150.641 140.101 150.641 137.364C150.641 134.668 151.304 132.553 152.631 131.06C153.958 129.567 155.866 128.82 158.313 128.82C160.718 128.82 162.585 129.567 163.912 131.101C165.28 132.594 165.985 134.709 165.985 137.364ZM152.673 137.364C152.673 139.603 153.17 141.345 154.124 142.506C155.078 143.667 156.488 144.248 158.313 144.248C160.179 144.248 161.548 143.667 162.502 142.506C163.455 141.345 163.912 139.644 163.912 137.364C163.912 135.124 163.455 133.424 162.502 132.262C161.548 131.101 160.179 130.521 158.313 130.521C156.447 130.521 155.078 131.101 154.083 132.262C153.17 133.465 152.673 135.166 152.673 137.364Z" fill="white"/>
</g>
<defs>
<clipPath id="clip0_5534_1468">
<rect width="216" height="206.929" fill="white"/>
</clipPath>
</defs>
</svg>
