<svg width="231" height="127" viewBox="0 0 231 127" fill="none" xmlns="http://www.w3.org/2000/svg">
<g clip-path="url(#clip0_490_2)">
<path d="M164.931 81.5958C164.902 83.4936 164.562 85.3256 163.563 86.9602C161.812 89.8307 159.161 91.074 155.862 90.9826C153.065 90.9058 150.754 89.7978 149.086 87.4977C148.117 86.1594 147.646 84.6308 147.474 83.0036C147.254 80.9083 147.452 78.8642 148.45 76.9847C149.924 74.2092 152.264 72.677 155.405 72.4211C157.482 72.2529 159.438 72.6588 161.172 73.8582C163.307 75.3355 164.43 77.4344 164.814 79.9685C164.894 80.5061 164.924 81.0509 164.931 81.5958ZM160.579 81.5482C160.594 80.6523 160.44 79.7052 160.075 78.7984C159.585 77.5807 158.788 76.6519 157.504 76.2423C155.292 75.5366 153.025 76.6519 152.198 78.9191C151.452 80.9668 151.573 83.0182 152.491 84.9929C152.94 85.9582 153.643 86.7298 154.677 87.0918C156.477 87.7171 158.813 87.3844 159.943 84.8649C160.404 83.8373 160.583 82.7513 160.576 81.5519L160.579 81.5482Z" fill="white"/>
<path d="M140.05 83.6938C139.681 83.6792 139.239 83.7304 138.8 83.6646C137.692 83.4927 137.099 82.7979 137.147 81.7375C137.187 80.816 137.915 80.1066 138.957 80.081C140.57 80.0444 142.182 80.0444 143.791 80.081C144.881 80.1066 145.499 80.688 145.638 81.8179C146.175 86.2572 143.137 90.4112 138.818 90.9158C136.28 91.212 133.951 90.6891 131.936 89.0692C130.195 87.6723 129.278 85.7891 128.927 83.617C128.59 81.5254 128.714 79.4813 129.629 77.5323C131.219 74.1425 134.485 72.1971 138.222 72.3946C139.761 72.475 141.224 72.8151 142.57 73.5867C143.162 73.9267 143.711 74.3217 144.106 74.8921C144.852 75.9708 144.365 77.4445 143.151 77.7919C142.716 77.9162 142.299 77.8467 141.89 77.6785C141.374 77.4664 140.924 77.141 140.456 76.8448C137.666 75.0749 134.569 76.1427 133.508 79.2729C132.854 81.1999 132.923 83.127 133.841 84.9591C134.88 87.0288 136.829 87.7016 138.917 87.1787C139.878 86.9373 140.555 86.3157 140.983 85.4235C141.217 84.9408 141.359 84.4288 141.48 83.9059C141.524 83.7158 141.465 83.6792 141.294 83.6829C140.902 83.6938 140.515 83.6829 140.05 83.6829V83.6938Z" fill="white"/>
<path d="M72.1856 72.8047C73.1802 72.8193 74.3138 72.7498 75.4327 72.9619C77.8388 73.419 79.5721 75.1889 79.9744 77.6242C80.1791 78.8529 80.0694 80.0633 79.6416 81.2298C78.8225 83.4494 76.9027 84.7146 74.3613 84.7256C73.4069 84.7292 72.4525 84.7366 71.4981 84.7219C71.2275 84.7183 71.1288 84.7768 71.1361 85.073C71.1544 86.2029 71.1434 87.3328 71.1434 88.4591C71.1434 88.9272 71.0776 89.3806 70.8509 89.7975C70.1707 91.0737 68.346 91.1907 67.5013 90.0168C67.1905 89.5854 67.0625 89.0954 67.0625 88.5688C67.0625 84.1332 67.0625 79.7013 67.0625 75.2657C67.0625 73.7262 67.9621 72.8339 69.5271 72.812C70.3682 72.7974 71.2092 72.812 72.1819 72.812L72.1856 72.8047ZM71.1434 78.798C71.1434 79.5074 71.1434 80.2169 71.1434 80.9226C71.1434 81.0213 71.0922 81.1786 71.275 81.1713C72.2258 81.1383 73.1912 81.2919 74.1309 81.0652C75.2682 80.791 75.9483 79.8256 75.8862 78.6371C75.8276 77.4414 75.0378 76.5675 73.8494 76.4175C73.0412 76.3151 72.2294 76.4066 71.4177 76.37C71.169 76.359 71.1324 76.4577 71.1361 76.6735C71.1471 77.3829 71.1397 78.0886 71.1397 78.798H71.1434Z" fill="white"/>
<path d="M99.5818 90.5429C98.6054 90.5429 97.6327 90.5502 96.6564 90.5429C95.1498 90.5246 94.2686 89.6324 94.2686 88.1295C94.2686 83.8475 94.2686 79.5654 94.2686 75.2871C94.2686 73.7842 95.084 72.8627 96.5869 72.8261C98.6091 72.7749 100.631 72.7786 102.653 72.8261C104.025 72.8554 104.793 73.8536 104.511 75.1042C104.35 75.81 103.71 76.3621 102.92 76.4353C102.163 76.5084 101.403 76.4572 100.642 76.4645C99.9657 76.4719 99.2856 76.4755 98.6091 76.4645C98.3897 76.4609 98.3348 76.5304 98.3385 76.7424C98.3494 77.6749 98.3494 78.611 98.3385 79.5435C98.3385 79.7702 98.3897 79.8397 98.6274 79.8397C99.7573 79.8287 100.887 79.836 102.013 79.8324C102.262 79.8324 102.507 79.8507 102.745 79.9092C103.692 80.1395 104.233 80.8745 104.164 81.8289C104.098 82.7139 103.374 83.4306 102.419 83.4635C101.209 83.5037 99.9986 83.4781 98.7846 83.4818C98.2727 83.4818 98.3458 83.416 98.3421 83.9206C98.3385 84.8018 98.3568 85.6868 98.3348 86.568C98.3275 86.8642 98.4299 86.9154 98.6968 86.9154C99.9182 86.9008 101.14 86.9081 102.361 86.9118C102.577 86.9118 102.792 86.9154 103.004 86.9557C104.065 87.1495 104.617 87.8479 104.559 88.901C104.507 89.8042 103.758 90.5173 102.759 90.5429C101.703 90.5721 100.646 90.5502 99.5891 90.5502C99.5891 90.5502 99.5891 90.5502 99.5891 90.5539L99.5818 90.5429Z" fill="white"/>
<path d="M107.802 90.9156C107.312 90.9412 106.902 90.7401 106.602 90.3306C106.05 89.5736 105.754 88.5278 106.551 87.5003C108.109 85.4891 109.608 83.4303 111.14 81.3972C111.279 81.2107 111.268 81.101 111.133 80.9291C110.007 79.4628 108.891 77.9928 107.772 76.5191C107.553 76.2339 107.356 75.9341 107.184 75.6196C106.723 74.7785 106.869 73.8278 107.564 73.1476C108.127 72.5955 109.045 72.5223 109.853 72.9685C110.211 73.1659 110.482 73.4548 110.72 73.7839C112.413 76.0913 114.066 78.4316 115.729 80.7609C117.298 82.955 118.962 85.0832 120.586 87.2406C120.677 87.365 120.772 87.4856 120.856 87.6136C121.423 88.473 121.394 89.4676 120.79 90.3086C120.377 90.8864 119.799 90.9961 119.152 90.8864C118.289 90.7365 117.675 90.2135 117.174 89.5261C116.106 88.0561 115.038 86.5861 113.974 85.1161C113.738 84.7919 113.502 84.7943 113.268 85.1234C112.197 86.63 111.129 88.1365 110.058 89.6394C109.458 90.4805 108.716 90.901 107.798 90.9193L107.802 90.9156Z" fill="white"/>
<path d="M82.4536 81.4269C82.4536 79.2511 82.4536 77.0754 82.4536 74.896C82.4536 74.6473 82.4719 74.4023 82.5267 74.161C82.7717 73.0932 83.5653 72.4935 84.6476 72.5484C85.6386 72.5996 86.3809 73.3346 86.5016 74.395C86.5235 74.5888 86.5235 74.7826 86.5235 74.9801C86.5235 78.8416 86.5272 82.6994 86.5199 86.5609C86.5199 86.8279 86.582 86.9047 86.8563 86.901C88.0886 86.8864 89.3209 86.8937 90.5532 86.8973C90.769 86.8973 90.9847 86.901 91.1968 86.9412C92.2829 87.1423 92.8167 87.8481 92.7326 88.9561C92.6668 89.8154 91.9062 90.5102 90.9372 90.5321C89.8402 90.5614 88.7395 90.5431 87.6425 90.5431C86.7612 90.5431 85.8763 90.5504 84.995 90.5431C83.3605 90.5248 82.4573 89.5997 82.4536 87.9541C82.4536 85.7784 82.4536 83.6026 82.4536 81.4232V81.4269Z" fill="white"/>
<path d="M126.319 81.6828C126.319 83.9609 126.319 86.2391 126.319 88.5172C126.319 88.7439 126.312 88.967 126.261 89.1901C126.023 90.2249 125.288 90.8319 124.275 90.8136C123.248 90.7954 122.476 90.1225 122.304 89.0877C122.268 88.8646 122.253 88.6379 122.253 88.4148C122.253 83.9207 122.253 79.4266 122.253 74.9325C122.253 74.6729 122.268 74.4206 122.326 74.1683C122.571 73.0822 123.394 72.4715 124.505 72.552C125.489 72.6215 126.246 73.415 126.312 74.4791C126.341 74.9581 126.323 75.4445 126.323 75.9271C126.323 77.8469 126.323 79.7667 126.323 81.6828H126.319Z" fill="white"/>
<path d="M103.937 57.3961C102.335 56.0285 101.026 54.4232 100.002 52.5875C100.09 52.4705 99.9071 52.3316 100.039 52.2109C100.2 52.0646 100.185 51.8598 100.185 51.6624C100.185 46.2395 100.185 40.8202 100.185 35.3973C100.185 35.2839 100.211 35.134 100.152 35.0682C99.8778 34.7537 100.108 34.5233 100.254 34.2747C100.368 34.0809 100.488 33.8907 100.606 33.6933C100.657 33.6092 100.748 33.5324 100.671 33.4154C101.417 32.2781 102.288 31.2469 103.268 30.3071C103.502 30.0804 103.717 29.8318 103.999 29.6562C104.021 29.8464 103.853 29.9159 103.747 30.0073C103.542 30.1792 103.352 30.3657 103.158 30.5485C103.001 30.6984 102.84 30.8227 103.048 31.0641C103.114 31.1372 103.085 31.3018 103.085 31.4224C103.085 32.673 103.092 33.92 103.085 35.1706C103.085 35.4339 103.151 35.518 103.399 35.4046C103.337 35.5107 103.279 35.6167 103.216 35.7227C100.964 39.5111 100.434 43.5298 101.615 47.7753C102.013 49.2087 102.672 50.5288 103.458 51.7867C103.311 51.7867 103.304 51.6404 103.231 51.5636C103.151 51.4832 103.125 51.3004 102.975 51.3479C102.821 51.3954 102.854 51.5636 102.847 51.6953C102.84 51.7757 102.847 51.8598 102.847 51.9403C102.847 53.1177 102.847 54.2916 102.847 55.469C102.847 55.5714 102.88 55.7104 102.825 55.7689C102.555 56.0614 102.807 56.2077 102.975 56.3759C103.184 56.588 103.396 56.7927 103.622 56.9829C103.754 57.0926 103.944 57.1767 103.948 57.3961H103.937Z" fill="#5A5A5A"/>
<path d="M131.047 54.0011C130.608 54.6374 130.17 55.2736 129.588 55.7929C129.563 55.7929 129.537 55.7892 129.511 55.7856C129.643 55.6357 129.775 55.4821 129.936 55.2956C129.607 55.2846 129.636 55.0762 129.636 54.8933C129.636 53.4855 129.636 52.0813 129.632 50.6735C129.632 50.5492 129.705 50.3663 129.552 50.3188C129.42 50.2786 129.387 50.476 129.299 50.5528C129.274 50.5784 129.23 50.5857 129.193 50.6004C129.245 50.4907 129.292 50.3773 129.347 50.2676C131.025 46.8486 131.369 43.2979 130.411 39.6192C130.038 38.1785 129.409 36.8474 128.652 35.5749C128.908 35.7102 128.952 35.9991 129.113 36.2039C129.168 36.2733 129.193 36.4013 129.307 36.3684C129.413 36.3355 129.383 36.2148 129.391 36.1271C129.394 36.0539 129.391 35.9845 129.391 35.9113C129.391 34.5986 129.391 33.2858 129.391 31.973C129.391 31.8414 129.362 31.6951 129.449 31.5854C129.592 31.4063 129.5 31.2929 129.373 31.1686C129.036 30.8395 128.703 30.503 128.371 30.1666C128.305 30.0971 128.188 30.0496 128.228 29.918C129.46 31.0296 130.561 32.2546 131.417 33.6844C131.417 33.9952 131.673 34.1817 131.782 34.4413C131.822 34.5327 131.918 34.6205 131.826 34.7192C131.716 34.8399 131.727 34.9825 131.727 35.1251C131.727 40.7601 131.727 46.3951 131.727 52.0338C131.727 52.1471 131.698 52.2715 131.782 52.3592C131.896 52.4799 131.844 52.5786 131.779 52.6883C131.563 53.0357 131.347 53.3868 131.135 53.7378C131.084 53.8219 130.992 53.8951 131.047 54.0157V54.0011Z" fill="#5D5D5D"/>
<path d="M131.048 54.0013C130.989 53.8806 131.084 53.8075 131.135 53.7234C131.348 53.3723 131.563 53.0213 131.779 52.6739C131.849 52.5642 131.896 52.4654 131.783 52.3448C131.702 52.257 131.728 52.129 131.728 52.0193C131.728 46.3843 131.728 40.7493 131.728 35.1107C131.728 34.9681 131.713 34.8254 131.827 34.7048C131.918 34.606 131.823 34.5183 131.783 34.4269C131.673 34.1709 131.413 33.9844 131.417 33.6699C132.192 34.8035 132.792 36.0285 133.234 37.323C135.194 43.1042 134.54 48.5747 131.245 53.7234C131.183 53.8184 131.114 53.9062 131.048 53.9976V54.0013Z" fill="#515151"/>
<path d="M100.668 33.418C100.744 33.535 100.653 33.6118 100.602 33.6959C100.489 33.8897 100.368 34.0798 100.251 34.2773C100.105 34.526 99.8742 34.7563 100.148 35.0708C100.207 35.1403 100.181 35.2902 100.181 35.3999C100.181 40.8228 100.181 46.2421 100.181 51.665C100.181 51.8588 100.196 52.0636 100.035 52.2135C99.9034 52.3342 100.086 52.4731 99.9985 52.5901C99.4025 51.5919 98.9307 50.5351 98.5797 49.4344C96.8354 43.9749 97.4278 38.7787 100.382 33.8604C100.47 33.7142 100.569 33.5716 100.664 33.4253L100.668 33.418Z" fill="#515151"/>
<path d="M120.827 74.7604C120.842 75.1371 120.692 75.4625 120.516 75.777C120.253 76.256 119.898 76.6693 119.562 77.1007C118.6 78.3404 117.631 79.5763 116.673 80.8233C116.508 81.039 116.435 81.0171 116.293 80.8087C115.623 79.836 114.94 78.8743 114.252 77.9125C114.128 77.737 114.106 77.62 114.245 77.4335C115.155 76.2158 116.051 74.9872 116.947 73.7622C117.39 73.1625 117.964 72.7931 118.713 72.6981C119.562 72.592 120.176 72.8992 120.564 73.6598C120.739 74.0035 120.82 74.3728 120.823 74.7568L120.827 74.7604Z" fill="#696969"/>
<path d="M103.937 57.3949C103.937 57.1755 103.743 57.0914 103.612 56.9817C103.385 56.7915 103.173 56.5831 102.964 56.3746C102.796 56.2064 102.544 56.0602 102.814 55.7676C102.866 55.7091 102.836 55.5702 102.836 55.4678C102.836 54.2903 102.836 53.1165 102.836 51.939C102.836 51.8586 102.833 51.7745 102.836 51.694C102.844 51.5661 102.811 51.3942 102.964 51.3467C103.114 51.3028 103.14 51.482 103.22 51.5624C103.293 51.6392 103.301 51.7818 103.447 51.7855C103.516 51.8769 103.586 51.961 103.648 52.0561C104.204 52.8752 104.866 53.6029 105.535 54.3232C105.327 54.4 105.29 54.5646 105.29 54.7657C105.297 55.7457 105.29 56.7293 105.29 57.7093C105.29 57.83 105.323 57.9763 105.224 58.0604C105.041 58.214 105.173 58.2725 105.283 58.3529C105.572 58.5614 105.86 58.7734 106.149 58.9819C106.149 59.0111 106.149 59.0404 106.149 59.0696C105.363 58.5723 104.617 58.0238 103.93 57.3985L103.937 57.3949Z" fill="#646464"/>
<path d="M103.392 35.4046C103.143 35.518 103.073 35.4302 103.077 35.1706C103.088 33.92 103.081 32.6731 103.077 31.4225C103.077 31.3018 103.103 31.1373 103.041 31.0641C102.832 30.8228 102.993 30.6984 103.15 30.5485C103.344 30.3657 103.531 30.1792 103.739 30.0073C103.845 29.9196 104.013 29.8501 103.991 29.6563C104.32 29.3418 104.675 29.0602 105.052 28.8043C105.198 28.8774 105.26 28.7165 105.366 28.6836C105.567 28.7677 105.608 28.9323 105.608 29.1334C105.6 29.9561 105.608 30.7752 105.608 31.598C105.608 31.7918 105.597 31.9893 105.615 32.1831C105.633 32.4208 105.747 32.4646 105.937 32.3184C106.021 32.2525 106.076 32.1282 106.218 32.1794C105.14 33.1338 104.203 34.2125 103.392 35.401V35.4046Z" fill="#656565"/>
<path d="M128.228 29.908C128.188 30.0396 128.305 30.0872 128.371 30.1566C128.7 30.4931 129.033 30.8295 129.373 31.1586C129.501 31.2829 129.592 31.3963 129.45 31.5754C129.362 31.6851 129.391 31.8314 129.391 31.9631C129.391 33.2758 129.391 34.5886 129.391 35.9013C129.391 35.9745 129.391 36.044 129.391 36.1171C129.384 36.2049 129.417 36.3292 129.307 36.3584C129.194 36.3913 129.168 36.2634 129.113 36.1939C128.952 35.9891 128.909 35.7002 128.653 35.5649C128.221 34.936 127.771 34.3253 127.292 33.7329C127.46 33.5684 127.482 33.3599 127.482 33.1405C127.482 32.0874 127.482 31.0379 127.482 29.9848C127.482 29.8093 127.46 29.6264 127.749 29.6081C127.464 29.3741 127.226 29.184 126.989 28.9901C127.007 28.9719 127.029 28.9499 127.047 28.9316C127.475 29.2169 127.863 29.546 128.228 29.9043V29.908Z" fill="#666666"/>
<path d="M109.843 26.2621C110.04 26.1524 110.259 26.0939 110.479 26.0391C110.497 26.061 110.512 26.0829 110.53 26.1049C110.461 26.1415 110.395 26.1817 110.274 26.2475C110.545 26.3133 110.534 26.4962 110.534 26.6717C110.534 27.4396 110.537 28.2075 110.534 28.9754C110.534 29.2168 110.589 29.3996 110.841 29.4727C109.879 29.8457 108.958 30.2991 108.069 30.8257C107.897 30.716 107.886 30.5478 107.886 30.3686C107.886 29.5239 107.886 28.6756 107.89 27.8309C107.89 27.6188 107.857 27.4286 107.707 27.2677C108.31 26.9386 108.95 26.6863 109.59 26.434C109.682 26.3974 109.832 26.423 109.843 26.2621Z" fill="#767676"/>
<path d="M98.1442 98.5227C97.837 99.1443 97.5335 99.766 97.2264 100.388C97.1532 100.538 97.1166 100.706 96.868 100.695C96.6376 100.687 96.612 100.523 96.5425 100.384C96.2719 99.8428 96.0087 99.2979 95.7381 98.7567C95.7015 98.6799 95.6905 98.5775 95.5589 98.519C95.5589 99.2833 95.5516 100.026 95.5625 100.768C95.5662 100.991 95.515 101.068 95.2773 101.068C95.0433 101.068 94.9848 100.998 94.9884 100.772C94.9994 99.766 94.9994 98.7604 94.9884 97.7548C94.9884 97.5317 95.0616 97.4988 95.2664 97.4805C95.6064 97.4476 95.7746 97.5719 95.9136 97.8791C96.2061 98.53 96.5425 99.1626 96.8863 99.8501C97.241 99.1334 97.5737 98.4642 97.9028 97.795C98.0381 97.5244 98.4038 97.3891 98.6854 97.4951C98.7841 97.5317 98.7658 97.6049 98.7658 97.6707C98.7658 98.7384 98.7658 99.8062 98.7695 100.874C98.7695 101.119 98.6122 101.057 98.4769 101.064C98.327 101.071 98.199 101.082 98.2027 100.856C98.2137 100.088 98.2063 99.3198 98.2063 98.5483C98.1844 98.541 98.1588 98.5337 98.1369 98.5263L98.1442 98.5227Z" fill="white"/>
<path d="M136.01 99.8501C136.383 99.1004 136.727 98.402 137.074 97.7036C137.162 97.5281 137.696 97.3891 137.846 97.5061C137.915 97.5573 137.89 97.6378 137.89 97.7072C137.89 98.753 137.882 99.8025 137.897 100.848C137.897 101.104 137.747 101.057 137.597 101.064C137.436 101.071 137.326 101.064 137.33 100.845C137.341 100.077 137.334 99.3089 137.334 98.53C137.206 98.5483 137.202 98.647 137.173 98.7128C136.891 99.2833 136.613 99.8537 136.332 100.424C136.266 100.556 136.226 100.695 136.014 100.698C135.787 100.698 135.743 100.556 135.674 100.41C135.366 99.7842 135.059 99.1589 134.748 98.53C134.631 98.5848 134.683 98.6799 134.683 98.7457C134.679 99.4332 134.672 100.121 134.683 100.808C134.686 101.017 134.617 101.075 134.419 101.064C134.251 101.053 134.105 101.09 134.108 100.823C134.123 99.7879 134.116 98.7494 134.108 97.7145C134.108 97.5427 134.16 97.4988 134.332 97.4805C134.679 97.4439 134.884 97.5427 135.034 97.8864C135.315 98.5337 135.655 99.1553 135.999 99.8501H136.01Z" fill="white"/>
<path d="M132.532 100.025C132.532 99.2354 132.539 98.526 132.528 97.8203C132.525 97.5899 132.55 97.4766 132.832 97.4766C133.106 97.4766 133.121 97.5936 133.121 97.8093C133.113 98.7747 133.121 99.7364 133.113 100.702C133.113 100.822 133.197 101.02 133.026 101.046C132.824 101.075 132.587 101.148 132.415 100.907C131.969 100.281 131.501 99.6706 131.04 99.0526C130.923 98.899 130.806 98.7418 130.689 98.5882C130.576 98.643 130.627 98.7381 130.627 98.8076C130.623 99.4731 130.612 100.142 130.627 100.808C130.634 101.042 130.535 101.078 130.338 101.067C130.155 101.06 130.009 101.086 130.012 100.808C130.031 99.8425 130.012 98.8807 130.027 97.9154C130.027 97.7764 129.899 97.546 130.14 97.5022C130.367 97.4619 130.605 97.4363 130.788 97.7033C131.289 98.4163 131.823 99.1038 132.345 99.8022C132.386 99.8571 132.433 99.9083 132.528 100.029L132.532 100.025Z" fill="white"/>
<path d="M110.241 99.9567C110.241 99.2327 110.259 98.5306 110.233 97.8285C110.222 97.525 110.336 97.4738 110.599 97.4811C110.793 97.4884 110.837 97.5506 110.837 97.7334C110.83 98.7171 110.837 99.7007 110.829 100.688C110.829 100.812 110.928 101.024 110.727 101.05C110.526 101.076 110.296 101.145 110.12 100.896C109.619 100.194 109.096 99.5106 108.581 98.8195C108.522 98.739 108.456 98.6622 108.369 98.5452C108.306 98.856 108.343 99.1266 108.339 99.3972C108.332 99.8799 108.325 100.363 108.339 100.842C108.347 101.09 108.197 101.061 108.043 101.061C107.89 101.061 107.74 101.094 107.743 100.845C107.754 99.7995 107.743 98.7536 107.751 97.7078C107.751 97.6237 107.714 97.4921 107.857 97.4994C108.058 97.5104 108.281 97.4007 108.445 97.631C108.961 98.3331 109.484 99.0279 110.01 99.7263C110.069 99.8031 110.105 99.9019 110.244 99.9604L110.241 99.9567Z" fill="white"/>
<path d="M142.866 98.6105C142.866 99.3236 142.855 100.037 142.873 100.75C142.881 101.013 142.793 101.068 142.544 101.071C142.303 101.071 142.255 100.991 142.259 100.772C142.27 99.7953 142.259 98.8226 142.27 97.8463C142.27 97.7292 142.175 97.5281 142.358 97.5098C142.559 97.4879 142.796 97.3965 142.972 97.6378C143.491 98.3509 144.025 99.053 144.555 99.7587C144.61 99.8282 144.665 99.8977 144.775 100.037C144.775 99.3857 144.775 98.8189 144.775 98.2522C144.775 98.1205 144.775 97.9852 144.775 97.8536C144.775 97.4623 144.775 97.466 145.17 97.4879C145.294 97.4952 145.352 97.5208 145.352 97.6598C145.349 98.7385 145.352 99.8136 145.352 100.892C145.352 100.965 145.352 101.061 145.257 101.053C145.064 101.039 144.844 101.156 144.687 100.943C144.497 100.688 144.307 100.435 144.116 100.179C143.725 99.6527 143.33 99.1261 142.939 98.5995C142.917 98.5995 142.891 98.6068 142.87 98.6105H142.866Z" fill="white"/>
<path d="M121.178 101.023C120.691 101.162 120.381 101.012 120.238 100.591C120.037 99.988 119.583 99.9259 119.05 99.9807C118.889 99.9953 118.838 100.047 118.845 100.204C118.856 100.43 118.838 100.657 118.848 100.88C118.859 101.103 118.706 101.074 118.582 101.059C118.457 101.045 118.245 101.169 118.245 100.891C118.245 99.8162 118.245 98.7374 118.245 97.6623C118.245 97.5197 118.315 97.4941 118.435 97.4941C118.936 97.4978 119.441 97.4868 119.942 97.5088C120.549 97.5344 120.958 97.8488 121.094 98.3535C121.251 98.9276 121.061 99.4651 120.56 99.7979C120.421 99.8893 120.446 99.9515 120.52 100.058C120.739 100.376 120.951 100.697 121.174 101.03L121.178 101.023ZM118.848 98.7374C118.848 98.9203 118.848 99.1068 118.848 99.2896C118.848 99.4066 118.892 99.4578 119.009 99.4541C119.346 99.4395 119.686 99.487 120.022 99.4103C120.388 99.3262 120.582 99.0775 120.574 98.7045C120.567 98.3498 120.366 98.1158 120 98.0536C119.861 98.028 119.715 98.0244 119.573 98.0244C119.09 98.0195 118.85 98.2572 118.852 98.7374H118.848Z" fill="white"/>
<path d="M85.5103 101.025C85.0642 101.145 84.7497 101.065 84.5925 100.637C84.5815 100.608 84.5523 100.586 84.5449 100.556C84.3548 99.9202 83.8502 99.9494 83.3419 99.9823C83.1993 99.9897 83.1737 100.059 83.1773 100.18C83.181 100.407 83.1664 100.633 83.181 100.856C83.1993 101.123 83.0128 101.057 82.8738 101.061C82.7239 101.065 82.5703 101.109 82.5703 100.849C82.5813 99.8032 82.5776 98.7573 82.5703 97.7115C82.5703 97.5323 82.6325 97.4848 82.8007 97.4885C83.2724 97.4994 83.7441 97.4848 84.2158 97.4994C84.8448 97.5214 85.2726 97.8212 85.4152 98.3259C85.5432 98.7829 85.4628 99.5033 84.885 99.7995C84.7534 99.8653 84.7607 99.9312 84.8375 100.034C84.9545 100.191 85.0569 100.355 85.1666 100.516C85.2763 100.677 85.3823 100.838 85.5103 101.025ZM83.1773 98.7427C83.1773 98.9256 83.1773 99.1121 83.1773 99.2949C83.1773 99.4119 83.2212 99.4631 83.3382 99.4594C83.6746 99.4448 84.0111 99.4924 84.3475 99.4156C84.7131 99.3315 84.907 99.0901 84.9033 98.7171C84.8996 98.3515 84.6949 98.1138 84.3146 98.0553C84.1829 98.0333 84.0513 98.0297 83.916 98.0297C83.426 98.0248 83.181 98.2637 83.181 98.7464L83.1773 98.7427Z" fill="white"/>
<path d="M76.0541 101.079C74.9864 101.079 74.1782 100.292 74.1782 99.2613C74.1782 98.2337 75.001 97.4475 76.0651 97.4512C77.1292 97.4512 77.9446 98.2483 77.941 99.2759C77.941 100.303 77.1219 101.086 76.0505 101.082L76.0541 101.079ZM74.7926 99.2576C74.7926 99.967 75.3447 100.534 76.0505 100.541C76.7562 100.548 77.323 99.9889 77.3267 99.2759C77.334 98.5665 76.7745 97.996 76.0687 97.9924C75.3593 97.9924 74.7926 98.5519 74.7889 99.2576H74.7926Z" fill="white"/>
<path d="M114.855 99.2729C114.855 98.761 114.863 98.2454 114.852 97.7334C114.848 97.5469 114.903 97.4848 115.093 97.4884C115.781 97.4994 116.468 97.5031 117.155 97.4884C117.379 97.4848 117.404 97.5799 117.404 97.7627C117.404 97.9528 117.364 98.0406 117.148 98.0333C116.665 98.0187 116.183 98.0333 115.7 98.026C115.517 98.026 115.455 98.0735 115.451 98.2673C115.437 98.9986 115.429 98.9986 116.161 98.9986C116.428 98.9986 116.695 99.0133 116.962 98.995C117.199 98.9767 117.196 99.1084 117.199 99.2766C117.207 99.4631 117.174 99.5545 116.951 99.5472C116.53 99.5289 116.11 99.5472 115.689 99.5398C115.525 99.5398 115.459 99.5728 115.451 99.7556C115.426 100.524 115.419 100.524 116.183 100.524C116.541 100.524 116.903 100.534 117.262 100.52C117.47 100.513 117.47 100.633 117.459 100.772C117.448 100.904 117.517 101.072 117.272 101.068C116.534 101.061 115.795 101.061 115.057 101.068C114.885 101.068 114.855 100.992 114.855 100.845C114.863 100.322 114.855 99.7995 114.855 99.2729Z" fill="white"/>
<path d="M138.873 99.2583C138.873 98.7463 138.88 98.2344 138.873 97.7188C138.873 97.5506 138.913 97.4848 139.092 97.4884C139.791 97.4957 140.485 97.4994 141.184 97.4884C141.381 97.4884 141.429 97.5579 141.418 97.7371C141.411 97.898 141.436 98.0369 141.191 98.0296C140.701 98.015 140.208 98.0333 139.714 98.0223C139.524 98.0186 139.472 98.0735 139.469 98.2636C139.458 98.995 139.451 98.995 140.178 98.995C140.456 98.995 140.734 99.006 141.008 98.995C141.239 98.9804 141.213 99.1266 141.217 99.2729C141.217 99.4228 141.239 99.5545 141.008 99.5471C140.577 99.5325 140.145 99.5508 139.718 99.5398C139.527 99.5325 139.476 99.5947 139.473 99.7812C139.458 100.527 139.451 100.527 140.193 100.527C140.551 100.527 140.91 100.538 141.268 100.523C141.498 100.513 141.476 100.651 141.476 100.798C141.476 100.944 141.502 101.079 141.268 101.076C140.54 101.065 139.813 101.065 139.085 101.076C138.891 101.076 138.869 100.992 138.869 100.834C138.876 100.311 138.869 99.7885 138.869 99.2656L138.873 99.2583Z" fill="white"/>
<path d="M104.354 99.2583C104.354 98.7463 104.357 98.2307 104.354 97.7188C104.354 97.5506 104.397 97.4848 104.577 97.4884C105.286 97.4957 105.992 97.4994 106.701 97.4884C106.906 97.4884 106.91 97.5945 106.899 97.7407C106.891 97.876 106.95 98.0369 106.705 98.0296C106.204 98.0186 105.699 98.0369 105.195 98.0223C104.99 98.015 104.935 98.0808 104.935 98.2819C104.935 98.995 104.928 98.995 105.633 98.995C105.922 98.995 106.207 99.006 106.496 98.995C106.738 98.984 106.69 99.1486 106.694 99.2839C106.697 99.4192 106.716 99.5508 106.5 99.5435C106.069 99.5325 105.637 99.5471 105.206 99.5362C105.015 99.5325 104.935 99.5654 104.935 99.7848C104.928 100.523 104.92 100.523 105.666 100.523C106.025 100.523 106.387 100.538 106.745 100.52C106.972 100.509 106.964 100.637 106.957 100.79C106.95 100.929 106.997 101.079 106.756 101.076C106.028 101.065 105.297 101.065 104.569 101.076C104.386 101.076 104.346 101.003 104.346 100.838C104.354 100.315 104.346 99.7922 104.346 99.2692L104.354 99.2583Z" fill="white"/>
<path d="M153.921 101.053C153.855 101.053 153.782 101.053 153.716 101.063C153.427 101.115 153.244 101.005 153.182 100.716C153.101 100.343 152.889 100.211 152.502 100.255C152.147 100.296 151.785 100.274 151.427 100.259C151.24 100.252 151.141 100.318 151.087 100.489C151.057 100.588 151.01 100.68 150.97 100.775C150.853 101.042 150.619 101.155 150.341 101.06C150.169 101.001 150.297 100.895 150.33 100.822C150.648 100.087 150.973 99.3558 151.295 98.6245C151.427 98.3246 151.577 98.0321 151.686 97.7212C151.763 97.5092 151.891 97.4726 152.085 97.4872C152.264 97.4982 152.421 97.4653 152.524 97.7066C152.963 98.7561 153.427 99.7946 153.884 100.837C153.913 100.899 153.957 100.961 153.928 101.053H153.921ZM152.747 99.7068C152.527 99.1839 152.319 98.6903 152.085 98.1308C151.851 98.6866 151.642 99.1876 151.423 99.7068H152.747Z" fill="white"/>
<path d="M127.566 101.06C127.354 101.122 127.233 101.002 127.167 100.782C127.131 100.665 127.065 100.559 127.029 100.442C126.981 100.307 126.901 100.256 126.754 100.259C126.283 100.267 125.811 100.267 125.339 100.259C125.193 100.259 125.116 100.311 125.069 100.446C125.014 100.6 124.944 100.749 124.878 100.899C124.842 100.983 124.809 101.075 124.685 101.06C124.535 101.042 124.334 101.13 124.246 101.02C124.162 100.914 124.312 100.76 124.366 100.632C124.783 99.6744 125.215 98.72 125.624 97.7583C125.716 97.5462 125.829 97.473 126.06 97.4767C126.279 97.4803 126.407 97.5242 126.498 97.7473C126.919 98.7492 127.361 99.7402 127.796 100.738C127.889 100.951 127.812 101.057 127.566 101.057V101.06ZM126.707 99.7073C126.487 99.1844 126.275 98.6834 126.041 98.1276C125.804 98.6907 125.599 99.1844 125.379 99.7073H126.707Z" fill="white"/>
<path d="M154.495 99.2754C154.495 98.7744 154.502 98.2698 154.491 97.7688C154.487 97.564 154.535 97.4763 154.762 97.4872C155.211 97.5055 155.665 97.4836 156.114 97.5019C156.871 97.5311 157.321 97.9772 157.339 98.6866C157.358 99.429 156.912 99.919 156.147 99.9775C155.862 99.9994 155.573 99.9921 155.288 99.9884C155.145 99.9884 155.083 100.032 155.091 100.182C155.098 100.398 155.076 100.614 155.098 100.829C155.124 101.093 154.959 101.064 154.791 101.071C154.604 101.078 154.484 101.064 154.495 100.819C154.513 100.307 154.498 99.7946 154.498 99.279L154.495 99.2754ZM155.091 98.7488C155.091 98.9243 155.091 99.0962 155.091 99.2717C155.091 99.3704 155.091 99.4619 155.23 99.4582C155.577 99.4509 155.928 99.4984 156.268 99.4034C156.594 99.3156 156.758 99.0742 156.754 98.7122C156.751 98.3685 156.583 98.1454 156.253 98.0687C156.114 98.0357 155.968 98.0321 155.826 98.0284C155.336 98.0187 155.091 98.2588 155.091 98.7488Z" fill="white"/>
<path d="M157.976 99.2524C157.976 98.7405 157.983 98.2285 157.976 97.7129C157.976 97.5411 158.019 97.4789 158.199 97.4826C158.659 97.4935 159.124 97.4753 159.585 97.4935C160.36 97.5228 160.813 97.9726 160.821 98.6966C160.824 99.4499 160.389 99.9179 159.617 99.9728C159.351 99.9911 159.084 99.9911 158.817 99.9838C158.648 99.9801 158.572 100.028 158.583 100.207C158.594 100.423 158.572 100.638 158.59 100.854C158.608 101.117 158.429 101.063 158.286 101.063C158.144 101.063 157.972 101.121 157.979 100.858C157.994 100.324 157.983 99.79 157.983 99.2597L157.976 99.2524ZM158.579 98.7441C158.579 98.9197 158.579 99.0915 158.579 99.2671C158.579 99.3877 158.605 99.4645 158.747 99.4572C159.054 99.4426 159.361 99.4865 159.669 99.417C160.104 99.3219 160.323 98.9745 160.217 98.543C160.129 98.1773 159.877 98.0311 159.321 98.0238C158.826 98.0165 158.579 98.2566 158.579 98.7441Z" fill="white"/>
<path d="M81.689 98.6944C81.689 98.9503 81.689 99.2063 81.689 99.4623C81.6853 100.64 80.9064 101.28 79.7509 101.053C79.0305 100.914 78.61 100.428 78.5844 99.6451C78.5625 99.0015 78.5881 98.3543 78.5735 97.707C78.5661 97.4218 78.7526 97.4986 78.9026 97.4877C79.0635 97.4767 79.1951 97.4694 79.1878 97.7144C79.1695 98.3397 79.1732 98.965 79.1878 99.5903C79.1987 100.19 79.5461 100.53 80.1276 100.537C80.7126 100.545 81.0746 100.208 81.0893 99.6159C81.1039 98.9906 81.1039 98.3653 81.0893 97.74C81.082 97.5023 81.1807 97.4694 81.3782 97.4803C81.5537 97.4913 81.7255 97.4511 81.7036 97.7363C81.678 98.0508 81.6963 98.3726 81.6963 98.6907L81.689 98.6944Z" fill="white"/>
<path d="M87.6317 99.2693C87.6317 98.7573 87.639 98.2417 87.6281 97.7298C87.6244 97.5396 87.6902 97.4848 87.8731 97.4885C88.5203 97.4994 89.1675 97.4994 89.8148 97.4885C90.0013 97.4885 90.0415 97.5616 90.0269 97.7261C90.0123 97.8724 90.0708 98.0406 89.8148 98.0296C89.365 98.015 88.9116 98.0296 88.4581 98.0223C88.2863 98.0187 88.2314 98.0662 88.2278 98.2454C88.2095 99.0535 88.2022 99.0535 89.0103 99.0535C89.1858 99.0535 89.3577 99.0535 89.5332 99.0535C89.8331 99.0535 89.9355 99.2071 89.8477 99.496C89.8075 99.6313 89.7087 99.5947 89.6246 99.5947C89.2334 99.5984 88.8458 99.6057 88.4545 99.5947C88.279 99.5911 88.2205 99.6459 88.2278 99.8214C88.2387 100.169 88.2205 100.52 88.2351 100.867C88.2461 101.109 88.0852 101.068 87.9499 101.061C87.8182 101.054 87.6244 101.145 87.6281 100.871C87.6354 100.337 87.6281 99.8032 87.6281 99.2693H87.6317Z" fill="white"/>
<path d="M99.311 97.5281C99.7462 97.3928 99.9766 97.5464 100.152 97.9047C100.364 98.3435 100.638 98.7494 100.913 99.2175C101.18 98.7531 101.454 98.3399 101.659 97.9011C101.834 97.5281 102.079 97.4074 102.463 97.5134C102.503 97.6012 102.427 97.6634 102.39 97.7292C102.171 98.1351 101.969 98.552 101.721 98.9396C101.348 99.5173 101.117 100.117 101.223 100.815C101.26 101.068 101.11 101.071 100.927 101.064C100.763 101.057 100.576 101.101 100.62 100.83C100.73 100.128 100.474 99.5356 100.112 98.9542C99.8266 98.4971 99.5816 98.0108 99.3147 97.5281H99.311Z" fill="white"/>
<path d="M70.8765 97.525C71.3006 97.4043 71.542 97.5286 71.7212 97.9016C71.9333 98.3404 72.2075 98.75 72.4818 99.2181C72.7597 98.7354 73.0156 98.2966 73.268 97.8541C73.4313 97.5713 73.6982 97.4628 74.0688 97.5287C73.7799 98.0552 73.5166 98.5854 73.2021 99.0864C72.8803 99.5984 72.7048 100.129 72.7743 100.736C72.8036 101.013 72.5037 101.185 72.255 101.05C72.2258 101.035 72.2002 100.992 72.1929 100.955C72.1819 100.918 72.1819 100.871 72.1892 100.834C72.3062 100.11 72.0247 99.4996 71.6517 98.9072C71.3774 98.4648 71.1434 98.0004 70.8765 97.525Z" fill="white"/>
<path d="M123.292 99.5325C123.292 99.9749 123.281 100.414 123.296 100.856C123.307 101.123 123.127 101.057 122.988 101.061C122.842 101.061 122.681 101.112 122.685 100.853C122.696 100.001 122.685 99.1485 122.692 98.3001C122.692 98.0881 122.641 98.0039 122.422 98.0222C122.199 98.0405 121.972 98.0222 121.745 98.0295C121.522 98.0369 121.57 97.8833 121.57 97.7553C121.57 97.6273 121.526 97.4847 121.749 97.4884C122.579 97.4957 123.409 97.4957 124.243 97.4884C124.466 97.4884 124.415 97.6383 124.418 97.7626C124.422 97.8942 124.444 98.0405 124.232 98.0295C124.038 98.0186 123.84 98.0442 123.647 98.0259C123.38 98.0003 123.263 98.0698 123.285 98.3696C123.314 98.7572 123.292 99.1485 123.292 99.5398V99.5325Z" fill="white"/>
<path d="M147.671 99.5465C147.671 99.978 147.657 100.41 147.675 100.837C147.686 101.119 147.503 101.053 147.349 101.06C147.188 101.068 147.057 101.079 147.06 100.834C147.075 99.9817 147.06 99.1297 147.071 98.2776C147.071 98.0802 147.028 97.9961 146.815 98.018C146.633 98.0363 146.446 98.0217 146.263 98.018C145.967 98.018 145.857 97.8535 145.949 97.5755C145.985 97.4585 146.073 97.4841 146.146 97.4841C146.965 97.4841 147.788 97.4878 148.607 97.4805C148.823 97.4805 148.797 97.6085 148.794 97.7401C148.794 97.8827 148.827 98.0363 148.593 98.0217C148.377 98.007 148.161 98.0363 147.945 98.0144C147.704 97.9888 147.653 98.0875 147.66 98.3106C147.678 98.7201 147.664 99.1297 147.664 99.5429L147.671 99.5465Z" fill="white"/>
<path d="M112.556 99.5508C112.556 99.1412 112.545 98.728 112.56 98.3184C112.571 98.0954 112.516 97.9967 112.274 98.0223C112.07 98.0442 111.861 98.0113 111.66 98.0296C111.43 98.0515 111.415 97.9272 111.415 97.7517C111.415 97.5871 111.426 97.4847 111.642 97.4884C112.454 97.4993 113.265 97.4993 114.073 97.4884C114.304 97.4884 114.278 97.6164 114.286 97.7626C114.289 97.9199 114.286 98.0478 114.066 98.0296C113.861 98.0149 113.653 98.0405 113.452 98.0223C113.218 98.004 113.134 98.0698 113.137 98.3221C113.156 99.1339 113.137 99.9457 113.148 100.754C113.148 100.988 113.097 101.068 112.845 101.072C112.582 101.072 112.541 100.973 112.549 100.75C112.563 100.352 112.552 99.9493 112.552 99.5508H112.556Z" fill="white"/>
<path d="M92.2063 99.2453C92.2063 98.7444 92.2209 98.2397 92.199 97.7388C92.188 97.4974 92.3014 97.4791 92.4915 97.4828C92.6853 97.4828 92.8096 97.4828 92.806 97.7497C92.7877 98.5798 92.806 99.4099 92.795 100.24C92.795 100.456 92.8535 100.525 93.0693 100.514C93.4167 100.496 93.7677 100.522 94.1151 100.507C94.3235 100.496 94.3564 100.591 94.3418 100.763C94.3308 100.909 94.3893 101.074 94.1297 101.066C93.5556 101.052 92.9815 101.055 92.4074 101.066C92.2392 101.066 92.199 101.001 92.2026 100.851C92.2099 100.317 92.2026 99.7829 92.2026 99.249L92.2063 99.2453Z" fill="white"/>
<path d="M91.2367 99.2831C91.2367 99.7951 91.2221 100.311 91.244 100.823C91.255 101.086 91.1051 101.06 90.9332 101.064C90.7577 101.064 90.6224 101.082 90.626 100.819C90.6407 99.7841 90.6407 98.7456 90.626 97.7071C90.6224 97.4511 90.765 97.484 90.9186 97.4877C91.0722 97.4913 91.2513 97.4328 91.244 97.7107C91.2258 98.2336 91.2404 98.7566 91.2404 99.2795L91.2367 99.2831Z" fill="white"/>
<path d="M128.418 99.2865C128.418 98.7635 128.433 98.2406 128.415 97.7177C128.404 97.4362 128.583 97.4947 128.736 97.491C128.89 97.491 129.033 97.4544 129.029 97.7104C129.014 98.7562 129.014 99.8057 129.029 100.852C129.029 101.111 128.872 101.064 128.725 101.06C128.583 101.06 128.411 101.118 128.418 100.855C128.433 100.332 128.422 99.8094 128.422 99.2865H128.418Z" fill="white"/>
<path d="M110.53 26.1052C110.511 26.0832 110.497 26.0613 110.479 26.0394C116.366 24.328 121.818 25.2203 126.831 28.76C126.908 28.8112 126.974 28.877 127.043 28.9355C127.025 28.9538 127.003 28.9757 126.985 28.994C126.846 28.888 126.714 28.7746 126.568 28.6832C126.096 28.3833 125.676 27.9994 125.131 27.8202C125.058 27.7032 124.934 27.641 124.817 27.5788C123.767 27.0157 122.692 26.5111 121.547 26.1674C120.838 25.9443 120.121 25.7468 119.39 25.6115C119.269 25.5969 119.145 25.5896 119.028 25.564C118.077 25.3702 117.115 25.2971 116.143 25.3007C115.232 25.2605 114.333 25.3446 113.433 25.4762C113.342 25.4872 113.25 25.4945 113.159 25.5055C112.263 25.6298 111.396 25.8675 110.526 26.1015L110.53 26.1052Z" fill="#505050"/>
<path d="M117.803 61.8153C115.88 61.9908 113.967 61.9031 112.077 61.5081C112.117 61.4716 112.153 61.435 112.194 61.3984C112.486 61.4569 112.782 61.5118 113.075 61.5703C113.708 61.6398 114.34 61.7531 114.98 61.7568C115.902 61.8007 116.827 61.797 117.748 61.7093C117.767 61.7458 117.788 61.7787 117.807 61.8153H117.803Z" fill="#6B6B6B"/>
<path d="M126.067 58.814C126.012 58.92 125.913 58.9749 125.818 59.037C124.129 60.1121 122.312 60.8873 120.37 61.37C120.282 61.3919 120.187 61.3956 120.096 61.4066C120.07 61.3846 120.048 61.3663 120.022 61.3444C120.443 61.2859 120.838 61.1213 121.244 61.019C122.184 60.7666 123.076 60.39 123.95 59.9695C124.151 59.8671 124.352 59.7757 124.546 59.666C125.05 59.3844 125.551 59.0955 126.056 58.8066L126.063 58.814H126.067Z" fill="#505050"/>
<path d="M112.193 61.3993C112.153 61.4358 112.117 61.4724 112.076 61.509C110.413 61.1031 108.8 60.5509 107.293 59.7245C106.91 59.5124 106.533 59.2857 106.156 59.0663C106.156 59.037 106.156 59.0078 106.156 58.9785C106.624 59.2016 107.038 59.527 107.52 59.7245C108.336 60.1596 109.177 60.5363 110.054 60.8288C110.753 61.0665 111.458 61.2859 112.193 61.3993Z" fill="#4D4D4D"/>
<path d="M109.842 26.2617C109.831 26.4226 109.681 26.4007 109.59 26.4336C108.95 26.6859 108.314 26.9382 107.707 27.2673C106.884 27.6659 106.116 28.1596 105.366 28.6861C105.26 28.719 105.198 28.8763 105.052 28.8068C106.518 27.7134 108.105 26.8505 109.842 26.2617Z" fill="#4C4C4C"/>
<path d="M120.026 61.3438C120.052 61.3657 120.073 61.384 120.099 61.4059C119.353 61.6436 118.578 61.724 117.803 61.8191C117.784 61.7826 117.762 61.7496 117.744 61.7131C118.344 61.6765 118.933 61.5778 119.518 61.4498C119.686 61.4169 119.854 61.3803 120.022 61.3474L120.026 61.3438Z" fill="#616161"/>
<path d="M127.742 57.5813C127.241 58.0713 126.7 58.5028 126.071 58.8172L126.063 58.8099C126.063 58.788 126.063 58.7697 126.063 58.7478C126.645 58.4187 127.15 57.9872 127.669 57.5703C127.694 57.574 127.72 57.5776 127.746 57.5813H127.742Z" fill="#4A4A4A"/>
<path d="M129.512 55.7852C129.537 55.7852 129.563 55.7888 129.588 55.7925C129.205 56.3337 128.7 56.7578 128.217 57.204C128.195 57.182 128.173 57.1637 128.151 57.1418C128.235 57.0613 128.32 56.9772 128.404 56.8968C128.802 56.5531 129.168 56.1801 129.512 55.7852Z" fill="#434343"/>
<path d="M128.151 57.1426C128.173 57.1645 128.195 57.1828 128.217 57.2047C128.071 57.3474 127.943 57.5119 127.742 57.5814C127.716 57.5777 127.691 57.5741 127.665 57.5704C127.826 57.4278 127.99 57.2852 128.151 57.1462V57.1426Z" fill="#646464"/>
<path d="M108.069 30.8257C108.957 30.2992 109.879 29.8457 110.841 29.4728C111.905 29.1107 112.998 28.8511 114.11 28.6792C114.377 28.6573 114.647 28.6354 114.914 28.6134C116.234 28.5769 117.551 28.5988 118.852 28.8548C119.558 29.012 120.257 29.2058 120.951 29.4179C122.261 29.9079 123.493 30.5442 124.637 31.3413C125.606 32.0434 126.48 32.8552 127.289 33.7401C127.768 34.3325 128.221 34.9469 128.649 35.5722C129.409 36.8447 130.035 38.1757 130.408 39.6165C131.366 43.2951 131.022 46.8495 129.344 50.2648C129.289 50.3745 129.241 50.4879 129.19 50.5976C128.722 51.4057 128.214 52.1883 127.643 52.9306C126.934 53.7643 126.17 54.5432 125.321 55.2416C124.685 55.7207 124.03 56.1778 123.339 56.5763C122.509 57.0407 121.639 57.4101 120.754 57.7501C120.202 57.9001 119.646 58.0463 119.094 58.1963C117.814 58.4522 116.519 58.5363 115.218 58.5034C114.742 58.4595 114.271 58.4193 113.795 58.3754C112.786 58.2219 111.81 57.9476 110.841 57.6331C110.522 57.4978 110.204 57.3589 109.883 57.2272C109.25 56.9639 108.672 56.5946 108.061 56.2911C107.944 56.196 107.806 56.1339 107.681 56.0425C106.939 55.5049 106.233 54.9198 105.538 54.3201C104.866 53.5998 104.207 52.8721 103.651 52.053C103.589 51.9616 103.516 51.8738 103.45 51.7824C102.664 50.5245 102.006 49.2044 101.607 47.771C100.426 43.5292 100.953 39.5068 103.209 35.7184C103.271 35.6124 103.333 35.5063 103.392 35.4003C104.204 34.2119 105.136 33.1295 106.219 32.1787C106.815 31.6997 107.425 31.2389 108.069 30.8221V30.8257ZM113.678 56.3423C113.715 56.3606 113.751 56.3898 113.788 56.3935C115.269 56.6092 116.746 56.6385 118.224 56.3716C119.386 56.1631 120.505 55.8194 121.566 55.2928C122.1 55.0734 122.59 54.7736 123.072 54.4628C124.495 53.5522 125.658 52.3748 126.63 51.0035C126.685 50.9304 126.747 50.8609 126.799 50.7841C128.963 47.4419 129.526 43.8436 128.499 40.0077C128.075 38.428 127.358 36.98 126.334 35.6928C125.394 34.3983 124.221 33.3562 122.871 32.5078C121.032 31.3486 119.021 30.7124 116.849 30.5844C116.256 30.5039 115.667 30.5076 115.075 30.5844C115.002 30.588 114.925 30.5917 114.852 30.5954C114.033 30.6356 113.232 30.7855 112.45 31.0269C112.34 31.0525 112.23 31.0744 112.124 31.1073C104.456 33.4695 100.722 42.2091 104.328 49.3763C105.18 51.0693 106.336 52.5174 107.835 53.6875C108.533 54.2982 109.319 54.7736 110.142 55.1868C111.265 55.7463 112.435 56.1631 113.682 56.3423H113.678Z" fill="#FDFDFD"/>
<path d="M127.647 52.9343C128.214 52.192 128.726 51.4095 129.194 50.6014C129.23 50.5867 129.271 50.5794 129.3 50.5538C129.388 50.477 129.42 50.2796 129.552 50.3198C129.706 50.3673 129.633 50.5538 129.633 50.6745C129.636 52.0823 129.633 53.4865 129.636 54.8943C129.636 55.0808 129.611 55.2893 129.936 55.2966C129.775 55.4831 129.644 55.633 129.512 55.7866C129.168 56.1815 128.799 56.5545 128.404 56.8982C127.98 57.0811 127.972 57.0774 127.972 56.6167C127.972 55.5014 127.969 54.3861 127.972 53.2744C127.972 53.0331 127.932 52.8758 127.647 52.9343Z" fill="#646464"/>
<path d="M105.539 54.3203C106.233 54.92 106.939 55.5051 107.682 56.0426C107.806 56.134 107.945 56.1926 108.062 56.2913C107.857 56.3717 107.817 56.5326 107.82 56.7337C107.828 57.5711 107.817 58.4049 107.828 59.2423C107.828 59.4873 107.769 59.6591 107.521 59.7286C107.038 59.5311 106.625 59.202 106.157 58.9826C105.868 58.7742 105.579 58.5621 105.29 58.3537C105.18 58.2732 105.049 58.2147 105.232 58.0611C105.334 57.977 105.297 57.8308 105.297 57.7101C105.297 56.7301 105.301 55.7464 105.297 54.7664C105.297 54.5653 105.334 54.4008 105.542 54.324L105.539 54.3203Z" fill="#6C6C6C"/>
<path d="M108.069 30.8256C107.425 31.2424 106.814 31.7032 106.218 32.1822C106.076 32.131 106.021 32.259 105.937 32.3212C105.747 32.4638 105.633 32.4235 105.615 32.1859C105.6 31.9921 105.608 31.7946 105.608 31.6008C105.608 30.778 105.604 29.9589 105.608 29.1362C105.608 28.935 105.567 28.7705 105.366 28.6864C106.116 28.1635 106.88 27.6662 107.707 27.2676C107.856 27.4285 107.889 27.6186 107.889 27.8307C107.882 28.6754 107.889 29.5238 107.886 30.3685C107.886 30.5477 107.897 30.7159 108.069 30.8256Z" fill="#6D6D6D"/>
<path d="M127.289 33.7386C126.481 32.8574 125.607 32.0456 124.638 31.3398C124.762 31.1863 124.769 31.0071 124.769 30.8206C124.769 29.943 124.769 29.069 124.769 28.1914C124.769 27.9537 124.813 27.7489 125.131 27.8184C125.676 27.9976 126.097 28.3816 126.568 28.6814C126.715 28.7728 126.846 28.8898 126.985 28.9922C127.223 29.186 127.461 29.3798 127.746 29.6102C127.453 29.6285 127.475 29.8113 127.479 29.9869C127.479 31.04 127.479 32.0895 127.479 33.1426C127.479 33.362 127.457 33.5704 127.289 33.735V33.7386Z" fill="#6F6F6F"/>
<path d="M114.11 28.6784C112.998 28.8503 111.905 29.1099 110.841 29.4719C110.588 29.3988 110.534 29.2159 110.534 28.9746C110.541 28.2067 110.534 27.4388 110.534 26.6709C110.534 26.4953 110.545 26.3125 110.274 26.2467C110.391 26.1809 110.46 26.1443 110.53 26.1041C111.4 25.8737 112.267 25.6323 113.163 25.5117C113.254 25.5007 113.346 25.4897 113.437 25.4824C113.737 25.5629 113.817 25.764 113.806 26.0602C113.788 26.7074 113.814 27.351 113.795 27.9982C113.788 28.2908 113.854 28.5212 114.11 28.682V28.6784Z" fill="#7F7F7F"/>
<path d="M125.131 27.8186C124.813 27.7528 124.769 27.9539 124.769 28.1916C124.769 29.0692 124.769 29.9432 124.769 30.8208C124.769 31.0073 124.758 31.1864 124.637 31.34C123.489 30.5429 122.257 29.9066 120.951 29.4166C121.145 29.3325 121.2 29.1789 121.2 28.9705C121.193 28.2026 121.203 27.4383 121.193 26.6704C121.193 26.3998 121.258 26.2096 121.551 26.1621C122.695 26.5058 123.771 27.0105 124.82 27.5736C124.937 27.6358 125.058 27.6943 125.134 27.8149L125.131 27.8186Z" fill="#7D7D7D"/>
<path d="M118.852 28.8536C117.551 28.5977 116.234 28.5757 114.914 28.6123C115.422 28.477 115.949 28.6123 116.512 28.5245C116.245 28.3198 116.263 28.0638 116.267 27.8078C116.267 27.2227 116.263 26.6377 116.271 26.0526C116.274 25.793 116.249 25.5406 116.146 25.2993C117.115 25.292 118.077 25.3688 119.032 25.5626C119.152 25.5882 119.273 25.5955 119.394 25.6101C119.05 25.6577 118.98 25.8698 118.969 26.1915C118.936 27.0801 119.108 27.976 118.852 28.8536Z" fill="#979797"/>
<path d="M116.146 25.3033C116.249 25.5447 116.274 25.7933 116.27 26.0566C116.263 26.6417 116.27 27.2268 116.267 27.8118C116.267 28.0678 116.249 28.3238 116.512 28.5286C115.949 28.6163 115.422 28.481 114.914 28.6163C114.647 28.6383 114.38 28.6602 114.109 28.6821C113.853 28.5249 113.788 28.2909 113.795 27.9983C113.813 27.3511 113.788 26.7075 113.806 26.0603C113.813 25.7641 113.736 25.563 113.437 25.4825C114.336 25.3509 115.236 25.2668 116.146 25.307V25.3033Z" fill="#8C8C8C"/>
<path d="M118.853 28.8548C119.109 27.9772 118.937 27.0813 118.97 26.1927C118.981 25.871 119.054 25.6589 119.394 25.6113C120.125 25.7466 120.842 25.9441 121.551 26.1672C121.259 26.2147 121.189 26.4048 121.193 26.6754C121.204 27.4433 121.193 28.2076 121.2 28.9755C121.2 29.1803 121.149 29.3339 120.951 29.4216C120.26 29.2095 119.562 29.0157 118.853 28.8585V28.8548Z" fill="#8C8C8C"/>
<path d="M110.844 57.636C111.813 57.9504 112.79 58.2247 113.799 58.3783C113.653 58.5355 113.609 58.7257 113.612 58.9378C113.62 59.6618 113.612 60.3858 113.616 61.1062C113.616 61.3622 113.525 61.5157 113.247 61.5194C113.188 61.5194 113.13 61.5523 113.071 61.5669C112.779 61.5084 112.482 61.4536 112.19 61.3951C111.455 61.2817 110.753 61.0623 110.051 60.8246C110.42 60.7881 110.486 60.5687 110.475 60.2322C110.453 59.5155 110.475 58.7988 110.464 58.0821C110.46 57.8042 110.533 57.6287 110.841 57.625L110.844 57.636Z" fill="#7E7E7E"/>
<path d="M115.221 58.5064C116.523 58.543 117.818 58.4552 119.097 58.1992C119.167 58.4991 119.163 58.8026 119.16 59.1097C119.16 59.7021 119.167 60.2982 119.16 60.8906C119.156 61.1685 119.233 61.3696 119.522 61.4464C118.937 61.5744 118.344 61.6731 117.748 61.7097C116.827 61.7974 115.905 61.8011 114.98 61.7572C115.145 61.6694 115.32 61.706 115.492 61.7024C115.949 61.695 116.018 61.6329 116.018 61.1648C116.018 60.503 116.018 59.8374 116.018 59.1756C116.018 58.9744 115.989 58.766 116.212 58.5978C115.847 58.5174 115.521 58.6271 115.221 58.51V58.5064Z" fill="#959595"/>
<path d="M115.222 58.5069C115.522 58.6276 115.847 58.5179 116.213 58.5947C115.99 58.7629 116.023 58.9713 116.019 59.1724C116.019 59.8343 116.019 60.4998 116.019 61.1617C116.019 61.6297 115.949 61.6955 115.492 61.6992C115.32 61.6992 115.145 61.6663 114.98 61.7541C114.34 61.7467 113.708 61.637 113.075 61.5676C113.134 61.5493 113.192 61.52 113.251 61.52C113.529 61.52 113.62 61.3628 113.62 61.1068C113.616 60.3828 113.624 59.6588 113.616 58.9384C113.616 58.7226 113.657 58.5361 113.803 58.3789C114.278 58.4228 114.75 58.463 115.225 58.5069H115.222Z" fill="#8B8B8B"/>
<path d="M120.758 57.7539C121.642 57.4138 122.513 57.0445 123.343 56.5801C123.61 56.6276 123.661 56.8068 123.661 57.0518C123.654 57.8709 123.665 58.69 123.654 59.5091C123.654 59.7468 123.72 59.904 123.954 59.9699C123.08 60.3904 122.187 60.767 121.248 61.0193C121.054 60.895 121.003 60.7195 121.003 60.4964C121.01 59.7541 120.999 59.0081 121.01 58.2658C121.014 58.0391 120.951 57.8709 120.754 57.7539H120.758Z" fill="#808080"/>
<path d="M123.957 59.9697C123.72 59.9039 123.654 59.7467 123.658 59.509C123.668 58.6899 123.658 57.8708 123.665 57.0517C123.665 56.8067 123.617 56.6275 123.347 56.58C124.038 56.1777 124.692 55.7243 125.329 55.2453C125.369 55.2453 125.416 55.2599 125.446 55.2453C125.859 55.0368 125.877 55.0441 125.877 55.5268C125.877 56.4483 125.877 57.3698 125.877 58.295C125.877 58.4741 125.881 58.646 126.064 58.752C126.064 58.774 126.064 58.7923 126.064 58.8142C125.563 59.0994 125.058 59.392 124.553 59.6735C124.36 59.7832 124.155 59.8783 123.957 59.977V59.9697Z" fill="#767676"/>
<path d="M120.758 57.7539C120.951 57.8709 121.017 58.0355 121.014 58.2658C121.003 59.0082 121.014 59.7541 121.006 60.4964C121.006 60.7195 121.057 60.895 121.251 61.0194C120.842 61.1217 120.45 61.2863 120.03 61.3448C119.862 61.3777 119.693 61.4143 119.525 61.4472C119.236 61.3704 119.156 61.1693 119.163 60.8914C119.174 60.299 119.163 59.7029 119.163 59.1105C119.163 58.807 119.167 58.4999 119.101 58.2C119.653 58.0501 120.209 57.9038 120.761 57.7539H120.758Z" fill="#8B8B8B"/>
<path d="M110.844 57.6369C110.537 57.6369 110.464 57.8125 110.468 58.094C110.482 58.8107 110.457 59.5275 110.479 60.2442C110.49 60.5806 110.42 60.8 110.055 60.8366C109.177 60.544 108.336 60.1674 107.521 59.7322C107.769 59.6628 107.831 59.4945 107.828 59.2459C107.817 58.4085 107.828 57.5748 107.82 56.7374C107.82 56.5363 107.857 56.3754 108.062 56.2949C108.672 56.5984 109.25 56.9678 109.883 57.231C110.205 57.3627 110.523 57.5016 110.841 57.6369H110.844Z" fill="#767676"/>
<path d="M126.06 58.7441C125.881 58.6381 125.874 58.4662 125.874 58.2871C125.874 57.3656 125.874 56.4441 125.874 55.5189C125.874 55.0399 125.855 55.0289 125.442 55.2374C125.409 55.252 125.365 55.2374 125.325 55.2374C126.17 54.5389 126.938 53.76 127.647 52.9263C127.936 52.8678 127.976 53.025 127.973 53.2664C127.965 54.3817 127.969 55.497 127.973 56.6086C127.973 57.0694 127.976 57.073 128.404 56.8902C128.32 56.9706 128.236 57.0547 128.152 57.1352C127.991 57.2778 127.826 57.4204 127.665 57.5594C127.146 57.9726 126.645 58.4077 126.06 58.7368V58.7441Z" fill="#6C6C6C"/>
<path d="M107.831 53.6899C106.332 52.5234 105.176 51.0717 104.324 49.3786C100.719 42.2114 104.452 33.4682 112.12 31.1096C112.226 31.0767 112.34 31.0548 112.446 31.0292C112.566 31.1023 112.684 31.0548 112.804 31.0219C113.192 30.9158 113.583 30.8464 113.978 30.8061C114.329 30.7696 114.512 30.9195 114.537 31.2742C114.596 32.0677 114.662 32.8612 114.713 33.6584C114.746 34.1667 114.768 34.6786 114.779 35.1905C114.782 35.4941 114.731 35.5087 114.468 35.3844C113.974 35.1576 113.532 34.8395 113.056 34.5799C112.866 34.4738 112.694 34.3056 112.446 34.3458C112.289 34.2946 112.135 34.2361 111.978 34.1923C110.738 33.8302 109.74 34.3641 109.352 35.5964C109.213 36.0316 109.18 36.4814 109.18 36.9348C109.18 41.2863 109.18 45.6341 109.173 49.9856C109.173 50.6475 109.232 51.2947 109.488 51.9127C109.466 51.9127 109.444 51.9127 109.422 51.9127C109.275 51.7299 109.239 51.5032 109.18 51.2874C109.005 50.6109 109.06 49.9235 109.052 49.236C109.049 48.8557 109.03 48.8264 108.65 48.8374C107.443 48.874 106.233 48.9179 105.026 48.9654C104.873 48.9727 104.723 49.002 104.569 49.0276C104.386 49.0568 104.317 49.1555 104.408 49.3311C104.514 49.5395 104.62 49.7516 104.734 49.96C105.491 51.3203 106.507 52.4685 107.685 53.4778C107.751 53.5363 107.842 53.5875 107.827 53.7008L107.831 53.6899Z" fill="#535353"/>
<path d="M116.845 30.584C119.017 30.7156 121.024 31.3519 122.867 32.5074C124.217 33.3558 125.39 34.3979 126.33 35.6924C126.221 35.8643 126.363 35.985 126.425 36.1129C127.098 37.5244 127.519 38.9798 127.361 40.5668C127.219 42.0185 126.641 43.2691 125.716 44.3771C125.676 44.4283 125.628 44.4649 125.559 44.432C125.932 43.3606 125.727 42.5707 124.879 41.8065C124.655 41.609 124.41 41.4408 124.155 41.2909C122.14 40.0914 120.125 38.8884 118.11 37.6853C118.304 37.6049 118.406 37.7767 118.549 37.8426C118.677 37.9011 118.797 38.0217 118.944 37.912C119.083 37.8097 119.035 37.6524 119.028 37.5135C118.951 36.3689 118.874 35.2244 118.797 34.0798C118.739 33.2022 118.658 32.3246 118.629 31.4433C118.618 31.0703 118.392 30.9533 118.125 30.84C118.022 30.7961 117.905 30.7924 117.795 30.7741C116.962 30.6352 116.121 30.6425 115.28 30.6498C115.137 30.6498 114.991 30.6681 114.855 30.595C114.929 30.5913 115.005 30.5876 115.079 30.584C115.671 30.584 116.26 30.584 116.852 30.584H116.845Z" fill="#4B4B4B"/>
<path d="M126.63 51.0031C125.654 52.3743 124.495 53.5518 123.072 54.4623C122.59 54.7731 122.1 55.073 121.566 55.2924C121.346 55.1571 121.167 54.9889 120.995 54.7914C120.472 54.1844 120.056 53.5006 119.562 52.8753C118.9 52.0416 118.271 51.1859 117.631 50.3339C117.43 50.0633 117.467 49.9097 117.752 49.7305C117.854 49.6647 117.979 49.6245 118.07 49.5477C118.246 49.4051 118.52 49.3868 118.608 49.1308C119.229 48.7542 119.847 48.3739 120.472 48.0009C121.431 47.4305 122.392 46.8637 123.354 46.2969C123.427 46.3334 123.544 46.4029 123.434 46.4651C123.138 46.6333 123.317 46.7759 123.427 46.9258C124.268 48.0521 125.117 49.1747 125.958 50.2973C126.155 50.5606 126.331 50.8385 126.634 50.9994L126.63 51.0031Z" fill="#565656"/>
<path d="M118.604 49.1348C118.516 49.3907 118.242 49.4054 118.066 49.5516C117.975 49.6284 117.85 49.6686 117.748 49.7345C117.463 49.9136 117.426 50.0672 117.627 50.3378C118.264 51.1898 118.896 52.0455 119.558 52.8792C120.052 53.5045 120.469 54.1883 120.991 54.7954C121.163 54.9928 121.343 55.161 121.562 55.2963C120.501 55.8229 119.383 56.1666 118.22 56.3751C116.742 56.642 115.265 56.6128 113.784 56.397C113.748 56.3897 113.711 56.3641 113.674 56.3458C113.693 56.1593 113.532 56.1703 113.426 56.1337C112.61 55.8302 111.857 55.4316 111.206 54.8392C110.325 54.0348 109.751 53.0475 109.418 51.9102C109.44 51.9102 109.462 51.9102 109.484 51.9102C110.157 52.967 110.983 53.2705 112.131 52.8756C112.413 52.7769 112.68 52.6452 112.936 52.4916C113.323 52.2613 113.711 52.0272 114.099 51.7969C115.598 50.9083 117.101 50.0233 118.6 49.1348H118.604Z" fill="#4B4B4B"/>
<path d="M126.63 51.0023C126.327 50.8414 126.151 50.5635 125.954 50.3002C125.113 49.174 124.264 48.0514 123.423 46.9287C123.31 46.7788 123.131 46.6326 123.43 46.468C123.54 46.4058 123.423 46.3364 123.35 46.2998C123.463 46.2303 123.569 46.1535 123.686 46.0877C124.432 45.6708 125.138 45.2137 125.562 44.4349C125.632 44.4714 125.679 44.4312 125.72 44.38C126.645 43.272 127.222 42.0214 127.365 40.5697C127.522 38.9827 127.102 37.5237 126.429 36.1158C126.367 35.9879 126.224 35.8672 126.334 35.6953C127.358 36.9825 128.074 38.4305 128.499 40.0102C129.53 43.8498 128.963 47.448 126.798 50.7866C126.747 50.8634 126.685 50.9328 126.63 51.006V51.0023Z" fill="#5E5E5E"/>
<path d="M114.852 30.5955C114.987 30.6686 115.134 30.6503 115.276 30.6503C116.117 30.643 116.958 30.6357 117.792 30.7746C117.902 30.7929 118.023 30.8002 118.121 30.8405C118.388 30.9538 118.615 31.0708 118.626 31.4438C118.655 32.3251 118.732 33.2027 118.794 34.0803C118.871 35.2249 118.948 36.3694 119.024 37.514C119.035 37.6566 119.079 37.8102 118.94 37.9125C118.794 38.0222 118.677 37.9016 118.545 37.8431C118.406 37.7772 118.3 37.6054 118.107 37.6858C116.22 36.5705 114.329 35.4552 112.442 34.3399C112.691 34.2997 112.863 34.4679 113.053 34.574C113.528 34.8336 113.971 35.1517 114.465 35.3784C114.728 35.4991 114.783 35.4845 114.775 35.1846C114.768 34.6727 114.742 34.1644 114.71 33.6525C114.658 32.859 114.593 32.0655 114.534 31.2683C114.508 30.9136 114.322 30.7637 113.975 30.8002C113.576 30.8405 113.185 30.9136 112.801 31.016C112.684 31.0489 112.563 31.0964 112.442 31.0233C113.225 30.7819 114.026 30.632 114.845 30.5918L114.852 30.5955Z" fill="white"/>
<path d="M109.426 51.9066C109.755 53.0438 110.333 54.0311 111.214 54.8356C111.861 55.428 112.618 55.8266 113.434 56.1301C113.536 56.1703 113.701 56.1557 113.682 56.3422C112.435 56.1666 111.265 55.7498 110.143 55.1866C109.32 54.7734 108.534 54.2981 107.835 53.6874C107.846 53.574 107.758 53.5228 107.693 53.4643C106.515 52.4551 105.502 51.3069 104.742 49.9466C104.628 49.7418 104.522 49.5297 104.416 49.3176C104.325 49.1421 104.394 49.0434 104.577 49.0141C104.727 48.9885 104.88 48.9592 105.034 48.9519C106.241 48.9044 107.451 48.8605 108.658 48.8239C109.038 48.813 109.056 48.8459 109.06 49.2225C109.067 49.91 109.013 50.5975 109.188 51.274C109.243 51.4934 109.283 51.7164 109.429 51.8992L109.426 51.9066Z" fill="#5D5D5D"/>
<path d="M116.845 30.5844C116.252 30.5844 115.664 30.5844 115.071 30.5844C115.664 30.5076 116.252 30.5039 116.845 30.5844Z" fill="white"/>
<path d="M112.446 34.3433C114.333 35.4586 116.223 36.5739 118.11 37.6892C120.125 38.8922 122.14 40.0953 124.155 41.2947C124.411 41.4483 124.659 41.6128 124.879 41.8103C125.727 42.5709 125.932 43.3644 125.559 44.4358C125.138 45.2183 124.429 45.6754 123.683 46.0886C123.566 46.1545 123.46 46.2276 123.347 46.3007C122.385 46.8675 121.423 47.4343 120.465 48.0048C119.84 48.3777 119.222 48.758 118.6 49.1347C117.101 50.0233 115.598 50.9082 114.099 51.7968C113.711 52.0271 113.323 52.2575 112.936 52.4915C112.68 52.6451 112.413 52.7768 112.131 52.8755C110.987 53.2704 110.157 52.9706 109.484 51.9101C109.228 51.2921 109.169 50.6449 109.169 49.983C109.177 45.6316 109.177 41.2837 109.177 36.9322C109.177 36.4788 109.213 36.029 109.349 35.5939C109.736 34.3652 110.735 33.8313 111.974 34.1897C112.131 34.2372 112.285 34.2921 112.442 34.3433H112.446Z" fill="#FDFDFD"/>
</g>
<defs>
<clipPath id="clip0_490_2">
<rect width="231" height="127" fill="white"/>
</clipPath>
</defs>
</svg>
