<svg width="216" height="207" viewBox="0 0 216 207" fill="none" xmlns="http://www.w3.org/2000/svg">
<g clip-path="url(#clip0_5527_813)">
<rect width="216" height="206.929" fill="#151517"/>
<path fill-rule="evenodd" clip-rule="evenodd" d="M108.091 128.685C109.337 129.716 110.797 130.155 112.374 130.237C113.027 130.271 113.698 130.239 114.339 130.122C115.357 129.937 116.372 129.705 117.363 129.407C119.379 128.798 121.121 127.747 122.422 126.049C123.164 125.081 123.772 124.035 124.163 122.878C124.485 121.923 124.788 120.958 125.03 119.982C125.22 119.212 125.315 118.417 125.43 117.631C125.507 117.111 125.554 116.585 125.602 116.06C125.68 115.208 125.761 114.358 125.818 113.504C125.857 112.91 125.856 112.314 125.879 111.719C125.886 111.538 125.916 111.358 125.933 111.178C125.948 111.01 126.032 110.952 126.203 110.955C126.804 110.964 127.406 110.979 128.006 110.952C128.679 110.922 129.356 110.893 130.018 110.783C130.96 110.625 131.894 110.425 132.819 110.185C133.909 109.899 134.909 109.388 135.873 108.806C136.994 108.129 138.017 107.334 138.846 106.31C139.568 105.418 139.91 104.385 139.736 103.258C139.482 101.62 138.106 100.548 136.507 100.475C135.927 100.448 135.338 100.509 134.761 100.582C134.063 100.671 133.374 100.828 132.677 100.932C132.196 101.004 131.709 101.036 131.229 101.086L131.216 101.024C132.113 99.3294 133.047 97.6544 133.896 95.9369C134.547 94.6186 135.103 93.2537 135.678 91.8979C136.631 89.6534 137.391 87.3401 138.021 84.9879C138.624 82.7364 139.14 80.4607 139.303 78.1244C139.368 77.192 139.414 76.2554 139.407 75.3216C139.403 74.5763 139.323 73.8302 139.248 73.0876C139.163 72.2365 138.906 71.43 138.55 70.654C138.081 69.6305 137.353 68.7913 136.588 67.9944C135.975 67.3561 135.301 66.7749 134.633 66.1936C133.679 65.3648 132.607 64.7021 131.495 64.1146C130.234 63.4448 128.898 62.9266 127.515 62.571C126.672 62.3585 125.824 62.1682 124.971 62.0001C124.668 61.939 124.362 61.7832 124.057 61.7832H118.308C118.1 61.7832 117.894 61.9195 117.685 61.9424C116.309 62.0926 114.951 62.3731 113.628 62.7803C113.134 62.9326 112.684 62.8436 112.214 62.7997C111.854 62.7664 111.5 62.6739 111.14 62.6558C109.77 62.5877 108.398 62.4889 107.027 62.5035C105.714 62.5175 104.414 62.7344 103.144 63.0946C102.081 63.3977 101.04 63.7655 100.086 64.3253C99.6786 64.5645 99.3546 64.5193 98.9326 64.3983C97.5151 63.983 96.0854 63.6111 94.6453 63.283C93.7476 63.082 92.8236 62.9805 91.9064 62.886C91.0263 62.7945 90.1427 62.7396 89.258 62.7212C88.3944 62.7024 87.5253 62.7031 86.6652 62.7796C85.2961 62.9013 83.9535 63.1794 82.6477 63.6286C81.2083 64.1207 79.8633 64.8545 78.6705 65.7986C77.4537 66.7616 76.4775 67.936 75.6938 69.2787C74.8671 70.695 74.299 72.2115 73.9472 73.8031C73.756 74.666 73.8262 75.5532 73.6948 76.4293C73.6545 76.7004 73.7358 76.973 73.7358 77.2456V81.0593C73.7358 81.3124 73.6614 81.5662 73.6934 81.8207C73.772 82.4319 73.7449 83.0479 73.8485 83.655C74.0112 84.6159 74.1579 85.5733 74.3554 86.5273C74.6314 87.8602 74.8949 89.1917 75.2009 90.5184C75.4234 91.4842 75.6646 92.4444 75.9295 93.3991C76.3328 94.8578 76.7264 96.3187 77.1832 97.7601C77.608 99.0999 78.092 100.42 78.5752 101.741C79.2374 103.568 80.049 105.337 81.0019 107.031C81.8328 108.498 82.7805 109.873 84.0529 111.003C84.8921 111.748 85.8245 112.321 86.9099 112.607C87.7578 112.832 88.6464 112.857 89.5055 112.679C90.5014 112.477 91.4317 112.032 92.2138 111.383C92.3055 111.308 92.405 111.251 92.5141 111.388C92.9272 111.911 93.4792 112.26 94.057 112.561C95.6159 113.375 97.3146 113.619 99.0396 113.717C99.4582 113.741 99.8796 113.681 100.3 113.67C101.121 113.647 101.918 113.487 102.702 113.261C103.113 113.142 103.515 112.99 103.933 112.85C103.955 113.295 103.983 113.724 103.997 114.153L104.054 116.491C104.065 116.847 104.079 117.203 104.112 117.558C104.197 118.471 104.28 119.385 104.389 120.296C104.464 120.924 104.543 121.556 104.69 122.169C104.987 123.405 105.392 124.612 105.902 125.776C106.39 126.906 107.14 127.904 108.091 128.685V128.685ZM105.594 117.026C105.544 115.929 105.507 114.83 105.483 113.731C105.454 112.381 105.444 111.03 105.425 109.68L105.422 109.628C104.736 110.041 104.059 110.491 103.344 110.863C102.504 111.299 101.594 111.552 100.65 111.623C99.9109 111.679 99.1606 111.73 98.425 111.671C97.2179 111.573 96.0109 111.385 94.9303 110.79C94.4923 110.548 94.0348 110.254 93.7323 109.87C93.0085 108.946 93.3555 107.778 94.4471 107.216C95.2015 106.827 96.0248 106.665 96.8425 106.476C97.5542 106.314 98.2586 106.122 98.9534 105.899C99.639 105.674 100.071 105.118 100.499 104.572L101.176 103.702L100.362 103.617C99.5542 103.542 98.7831 103.318 98.046 102.992C97.4161 102.713 97.4064 102.682 96.9433 103.184C96.1715 104.022 95.4205 104.881 94.6634 105.733C94.1064 106.36 93.5536 106.991 92.9981 107.62C92.4502 108.243 91.9356 108.9 91.3439 109.478C90.4664 110.338 89.4082 110.854 88.1455 110.796C87.3355 110.758 86.5943 110.475 85.9268 110.011C84.5507 109.053 83.6239 107.711 82.7791 106.303C81.6979 104.498 80.867 102.575 80.157 100.6C79.6655 99.2348 79.1711 97.8685 78.7428 96.4835C78.2762 94.9781 77.8667 93.4554 77.4641 91.9313C77.1596 90.7819 76.8898 89.6228 76.6325 88.4616C76.3363 87.1418 76.0623 85.817 75.8106 84.4879C75.6431 83.5903 75.5464 82.6794 75.4108 81.7762C75.228 80.5573 75.1946 79.3287 75.2614 78.1057C75.3205 77.0036 75.4783 75.905 75.6354 74.8106C75.8531 73.2962 76.3523 71.8673 77.0699 70.5177C77.5125 69.6953 78.055 68.9307 78.6851 68.2413C79.7211 67.0947 80.9747 66.2666 82.3695 65.6443C83.3437 65.2097 84.3734 64.949 85.4226 64.7438C86.9801 64.4407 88.5516 64.4532 90.123 64.4852C90.8099 64.4998 91.4948 64.6243 92.1811 64.6931C93.6593 64.8398 95.1077 65.1513 96.5379 65.5344C97.5809 65.8139 98.6023 66.1769 99.6355 66.4912C99.7384 66.5225 99.8907 66.5197 99.9762 66.4647C101.377 65.5497 102.908 64.9462 104.537 64.6006C105.155 64.4699 105.793 64.4122 106.425 64.3719C107.193 64.3239 107.968 64.278 108.734 64.3232C109.656 64.376 110.574 64.5116 111.49 64.6368C111.935 64.698 112.369 64.8516 112.814 64.8933C113.028 64.9135 113.254 64.7584 113.479 64.7056C114.629 64.4393 115.774 64.1438 116.935 63.9345C117.798 63.7787 118.682 63.705 119.559 63.655C120.539 63.5987 121.525 63.5576 122.504 63.6049C123.742 63.6647 124.971 63.8406 126.183 64.1229C127.687 64.4727 129.127 64.9803 130.498 65.6853C131.522 66.213 132.495 66.8235 133.371 67.5745C133.946 68.0674 134.534 68.5535 135.052 69.1028C135.692 69.78 136.344 70.4565 136.746 71.3236C137.048 71.9779 137.264 72.6551 137.324 73.3706C137.397 74.2613 137.487 75.1548 137.479 76.0468C137.472 76.8993 137.355 77.7511 137.273 78.6021C137.084 80.5406 136.664 82.4375 136.151 84.3092C135.724 85.8553 135.239 87.3851 134.699 88.8955C134.206 90.2882 133.636 91.6552 133.061 93.0173C132.637 94.0258 132.177 95.0187 131.682 95.994C130.74 97.8379 129.761 99.6631 128.629 101.401C128.433 101.701 128.248 102.008 128.057 102.315C128.551 102.648 129.111 102.766 129.674 102.827C130.211 102.885 130.757 102.92 131.292 102.88C132.15 102.816 133.004 102.693 133.857 102.574C134.701 102.456 135.528 102.216 136.395 102.28C137.26 102.343 137.88 103.001 137.821 103.811C137.784 104.325 137.548 104.765 137.207 105.141C135.598 106.917 133.577 107.993 131.266 108.523C130.388 108.725 129.483 108.829 128.583 108.913C127.816 108.981 127.044 108.999 126.274 108.967C125.71 108.946 125.15 108.817 124.573 108.733C124.515 109.261 124.46 109.811 124.393 110.359L124.124 112.461C124.042 113.127 123.979 113.796 123.895 114.462C123.813 115.109 123.711 115.752 123.625 116.398C123.545 116.999 123.485 117.604 123.395 118.205C123.258 119.126 123.127 120.048 122.947 120.962C122.731 122.054 122.401 123.11 121.861 124.096C121.203 125.298 120.271 126.214 119.083 126.892C117.86 127.59 116.521 127.954 115.166 128.259C114.205 128.475 113.217 128.51 112.244 128.421C110.558 128.269 109.119 127.548 108.031 126.24C106.993 124.992 106.29 123.562 106.039 121.943C105.92 121.173 105.829 120.398 105.763 119.621C105.688 118.758 105.631 117.893 105.594 117.026V117.026ZM107.489 105.933C107.5 106.511 107.44 107.088 107.443 107.665C107.454 110.351 107.474 113.037 107.497 115.724C107.501 116.163 107.522 116.603 107.554 117.041C107.62 117.959 107.685 118.877 107.774 119.792C107.838 120.443 107.925 121.091 108.027 121.736C108.173 122.649 108.589 123.462 109.06 124.24C109.467 124.909 109.996 125.477 110.692 125.869C111.875 126.534 113.148 126.59 114.432 126.345C115.299 126.18 116.151 125.914 116.993 125.639C117.821 125.374 118.577 124.922 119.202 124.318C119.793 123.746 120.211 123.049 120.494 122.279C121.041 120.787 121.212 119.215 121.438 117.656C121.523 117.072 121.597 116.486 121.674 115.901C121.762 115.236 121.851 114.571 121.936 113.906C122 113.409 122.057 112.914 122.118 112.418C122.205 111.706 122.296 110.995 122.379 110.283C122.442 109.732 122.495 109.179 122.552 108.627C122.624 107.921 122.701 107.218 122.764 106.511C122.812 105.975 122.792 105.429 122.887 104.903C123.062 103.939 123.518 103.118 124.373 102.587C124.731 102.366 125.135 102.22 125.532 102.032L125.464 101.928C125.097 101.453 124.722 100.985 124.362 100.504C123.798 99.7487 123.392 98.9066 122.983 98.0604C122.597 97.258 122.124 96.4988 121.717 95.7054C121.007 94.3217 120.284 92.9415 119.63 91.5321C118.807 89.7591 118.159 87.9249 117.956 85.9613C117.869 85.1311 117.846 84.3009 118.015 83.4783C118.285 82.1642 118.97 81.1365 120.124 80.4315C121.195 79.7779 122.388 79.5665 123.609 79.5005C124.367 79.4594 125.13 79.4928 125.916 79.4928L125.891 79.36C125.401 78.3365 124.944 77.2956 124.408 76.2972C123.653 74.8871 122.685 73.616 121.609 72.4361C120.815 71.5587 119.942 70.7558 119.001 70.0373C118.071 69.3329 117.091 68.7036 116.044 68.1898C114.801 67.5715 113.488 67.1046 112.134 66.7992C110.823 66.5085 109.505 66.3305 108.161 66.3159C107.015 66.3034 105.876 66.3563 104.759 66.6142C103.074 67.0043 101.532 67.6982 100.192 68.8219C99.4503 69.4439 98.7874 70.1547 98.2185 70.9384C97.5461 71.8597 97.0052 72.8567 96.5421 73.9004C95.9066 75.3335 95.4706 76.8235 95.1716 78.356C95.0228 79.1208 94.906 79.8905 94.7871 80.6602C94.7454 80.9307 94.7426 81.2054 94.7176 81.5148L95.2266 81.2499L95.723 81.0274C97.4036 80.259 99.1439 79.7647 101.014 79.821C101.81 79.8446 102.569 80.0025 103.277 80.3508C104.633 81.0197 105.425 82.1566 105.77 83.5945C106.008 84.5874 106.171 85.5997 106.33 86.61C106.454 87.3985 106.581 88.1953 106.595 88.9908C106.615 90.1533 106.557 91.3187 106.493 92.4806C106.439 93.4686 106.235 94.4425 105.887 95.3689C105.259 97.0488 104.558 98.7015 103.903 100.372C103.687 100.924 103.521 101.495 103.317 102.102L104.143 102.102C104.243 102.104 104.346 102.107 104.442 102.13C105.194 102.307 105.847 102.648 106.381 103.227C107.096 103.994 107.47 104.893 107.489 105.933V105.933ZM93.133 97.9687C92.7069 96.9661 92.4499 95.8999 92.3723 94.8133C92.3 93.7884 92.4217 92.7691 92.5274 91.7484C92.6289 90.7603 92.7151 89.7674 92.7443 88.7759C92.7937 87.144 92.6838 85.5163 92.6059 83.8858C92.5593 82.9151 92.672 81.9327 92.7582 80.9599C92.8361 80.0838 92.9334 79.2056 93.0996 78.3421C93.377 76.893 93.7462 75.4649 94.2712 74.0805C94.7683 72.7677 95.3413 71.4905 96.1478 70.3397C96.702 69.5498 97.3292 68.8135 97.932 68.0417L97.7526 67.9777C95.7898 67.3547 93.7942 66.8666 91.741 66.6546C90.771 66.5537 89.7969 66.4953 88.8241 66.4369C88.5251 66.4195 88.222 66.4599 87.9223 66.4884C87.1804 66.56 86.4288 66.5878 85.6987 66.7269C84.4562 66.9633 83.2637 67.361 82.1602 68.0083C81.1837 68.583 80.3276 69.3411 79.639 70.241C78.8693 71.236 78.3499 72.361 77.9779 73.5597C77.5385 74.9747 77.3285 76.4314 77.2722 77.9005C77.2228 79.189 77.1985 80.4843 77.421 81.7679C77.5858 82.7225 77.6963 83.6883 77.8785 84.6402C78.1234 85.9381 78.3984 87.2301 78.7031 88.5152C79.1433 90.3536 79.5841 92.1934 80.1063 94.0095C80.6055 95.7485 81.168 97.4722 81.7799 99.1757C82.2791 100.566 82.8569 101.93 83.4653 103.275C83.8617 104.152 84.3414 104.996 84.8448 105.817C85.3795 106.689 85.9886 107.516 86.8133 108.149C87.8555 108.947 88.6614 109.071 89.7211 108.195C90.1744 107.82 90.5575 107.355 90.9525 106.914C91.5789 106.213 92.1839 105.491 92.8083 104.787C93.603 103.891 94.4075 103.003 95.2064 102.11C95.3754 101.922 95.5387 101.727 95.7028 101.536L95.4296 101.298C94.4445 100.357 93.6629 99.2237 93.133 97.9687V97.9687ZM123.269 71.2666C123.922 72.0257 124.542 72.8131 125.126 73.6265C126.247 75.1975 127.148 76.9135 127.807 78.7273C128.099 79.5304 128.332 80.3411 128.228 81.2193C128.156 81.8346 128.161 82.4583 128.107 83.0771C128.062 83.5917 127.98 84.1034 127.914 84.6166C127.814 85.3898 127.669 86.1616 127.626 86.9382C127.584 87.678 127.628 88.4248 127.675 89.1653C127.721 89.9183 127.823 90.6679 127.892 91.4188C127.97 92.272 128.075 93.123 128.099 93.9776C128.118 94.6784 128.056 95.3828 127.995 96.0837C127.918 96.9234 127.714 97.7467 127.39 98.5256C127.166 99.0777 126.898 99.6117 126.646 100.164L126.747 100.271L126.902 100.39L127.058 100.112C128.371 98.0464 129.538 95.891 130.549 93.6619C131.198 92.2231 131.813 90.7695 132.394 89.3023C133.301 87.0215 134.034 84.6753 134.585 82.2838C134.836 81.2102 135.028 80.12 135.197 79.0297C135.33 78.1773 135.44 77.3151 135.465 76.455C135.491 75.5427 135.441 74.6235 135.357 73.7141C135.293 73.0271 135.124 72.336 134.694 71.7762C134.001 70.8772 133.255 70.0178 132.336 69.3371C131.562 68.7648 130.79 68.1759 129.961 67.6947C128.645 66.9306 127.22 66.423 125.731 66.0768C124.277 65.7381 122.806 65.5921 121.325 65.5608C120.452 65.5421 119.574 65.6359 118.703 65.7187C117.913 65.7924 117.128 65.9189 116.333 66.0232C117.187 66.503 118.029 66.9299 118.821 67.4326C120.49 68.4895 121.986 69.7612 123.269 71.2666V71.2666ZM101.589 100.861C102.128 99.1368 102.862 97.4889 103.574 95.8327C104.152 94.4886 104.467 93.0737 104.572 91.6191C104.624 90.9022 104.61 90.1763 104.574 89.4573C104.54 88.6574 104.466 87.8597 104.355 87.0668C104.205 86.0559 104.035 85.0442 103.796 84.052C103.537 82.9784 102.883 82.2303 101.762 81.9542C101.08 81.7866 100.402 81.7936 99.7113 81.9028C98.0266 82.1677 96.4844 82.7886 95.0479 83.6981C94.7586 83.8809 94.5987 84.029 94.6494 84.4427C94.7551 85.3216 94.7781 86.2144 94.7739 87.1009C94.7683 88.356 94.7148 89.611 94.6675 90.8653C94.6522 91.2735 94.5931 91.6809 94.5486 92.0877C94.4819 92.7107 94.3518 93.333 94.356 93.9553C94.3602 94.5964 94.4256 95.2521 94.5813 95.873C95.0757 97.8421 96.1214 99.4525 97.8368 100.589C98.8915 101.289 100.058 101.641 101.34 101.708C101.425 101.414 101.503 101.136 101.589 100.861V100.861ZM99.575 83.9727C99.3491 83.4992 99.4784 83.1063 100.001 82.9242C100.129 82.8804 100.26 82.8317 100.392 82.8192C100.575 82.8011 100.759 82.8143 100.943 82.8143C101.607 82.8185 102.246 82.911 102.793 83.3323C103.145 83.6035 103.239 83.9616 103.011 84.3315C102.688 84.8551 102.196 85.1179 101.591 85.168C100.64 85.2465 99.9714 84.8029 99.575 83.9727V83.9727ZM125.98 83.7996L126.196 81.9048C126.227 81.6518 126.094 81.5822 125.881 81.576C125.212 81.5579 124.543 81.5336 123.873 81.5224C123.12 81.5085 122.385 81.6295 121.687 81.916C120.912 82.2351 120.322 82.7455 120.081 83.5889C119.905 84.2104 119.849 84.8599 119.917 85.5024C120.011 86.4965 120.236 87.4737 120.587 88.4088C121.055 89.6555 121.545 90.9015 122.131 92.096C122.924 93.7126 123.821 95.2785 124.664 96.8708C124.889 97.2956 125.079 97.7399 125.313 98.2357C125.787 97.2494 126.045 96.1739 126.071 95.0803C126.094 94.1757 126.023 93.269 125.97 92.3644C125.937 91.811 125.859 91.2603 125.805 90.7082C125.731 89.9392 125.617 89.1695 125.598 88.3984C125.581 87.6141 125.637 86.8256 125.703 86.042C125.766 85.2924 125.89 84.5477 125.98 83.7996V83.7996ZM124.471 83.1919C124.222 83.8781 123.691 84.2661 123.002 84.3795C122.359 84.4859 121.796 84.2487 121.377 83.7356C121.079 83.3706 121.193 82.9388 121.64 82.6912C122.153 82.4076 122.717 82.3359 123.383 82.2928C123.564 82.3255 123.835 82.354 124.094 82.427C124.469 82.5327 124.608 82.8164 124.471 83.1919V83.1919ZM104.587 104.331C104.22 104.031 103.733 104.014 103.384 104.343C102.95 104.754 102.568 105.222 102.187 105.684C101.746 106.218 101.332 106.773 100.765 107.186C99.938 107.788 98.9722 108.037 98.0029 108.272C97.2325 108.46 96.458 108.635 95.6855 108.814L95.6757 108.914C95.9052 109.02 96.127 109.153 96.3669 109.229C97.5454 109.601 98.7448 109.788 99.9908 109.682C100.889 109.605 101.746 109.409 102.557 109.024C103.675 108.495 104.535 107.656 105.265 106.681C105.388 106.518 105.443 106.278 105.457 106.068C105.507 105.326 105.131 104.775 104.587 104.331V104.331ZM126.103 104.01C125.525 104.204 125.055 104.5 124.916 105.125C124.82 105.548 124.786 105.985 124.749 106.418C124.742 106.495 124.837 106.635 124.909 106.654C125.354 106.772 125.802 106.91 126.257 106.951C126.817 107.002 127.385 106.986 127.949 106.958C128.556 106.928 129.168 106.888 129.768 106.788C131.178 106.55 132.545 106.165 133.757 105.364C134.195 105.075 134.628 104.781 135.063 104.487L135.027 104.425C134.563 104.494 134.101 104.578 133.635 104.628C132.687 104.729 131.737 104.836 130.786 104.891C130.326 104.918 129.86 104.829 129.397 104.792C128.62 104.728 127.86 104.556 127.203 104.14C126.824 103.901 126.507 103.875 126.103 104.01V104.01Z" fill="white"/>
<path d="M65.9727 130.746C66.971 130.584 67.981 130.505 68.9924 130.511C70.5464 130.511 71.686 130.872 72.4092 131.523C73.0781 132.102 73.4758 132.988 73.4758 134.073C73.4758 135.176 73.1497 136.043 72.535 136.676C71.7034 137.562 70.3476 138.014 68.8109 138.014C68.3409 138.014 67.907 137.996 67.5461 137.905V142.787H65.9727V130.746V130.746ZM67.5461 136.621C67.8896 136.712 68.3235 136.748 68.8478 136.748C70.7453 136.748 71.903 135.826 71.903 134.145C71.903 132.536 70.7641 131.758 69.0286 131.758C68.3416 131.758 67.8173 131.812 67.5461 131.885V136.621V136.621ZM83.0029 138.339C83.0029 141.575 80.7606 142.985 78.6454 142.985C76.2772 142.985 74.4513 141.25 74.4513 138.483C74.4513 135.555 76.3676 133.837 78.79 133.837C81.3036 133.836 83.0029 135.663 83.0029 138.339V138.339ZM76.0609 138.429C76.0609 140.345 77.1637 141.792 78.7184 141.792C80.237 141.792 81.3752 140.363 81.3752 138.393C81.3752 136.91 80.6347 135.03 78.7539 135.03C76.8731 135.03 76.0609 136.766 76.0609 138.429ZM84.792 141.159C85.262 141.466 86.0936 141.792 86.889 141.792C88.046 141.792 88.5884 141.213 88.5884 140.49C88.5884 139.731 88.1371 139.315 86.9614 138.881C85.3886 138.321 84.6474 137.453 84.6474 136.404C84.6474 134.994 85.7863 133.837 87.6664 133.837C88.5522 133.837 89.3303 134.09 89.8184 134.38L89.4207 135.537C88.8826 135.205 88.2629 135.03 87.6309 135.03C86.6909 135.03 86.1666 135.573 86.1666 136.223C86.1666 136.947 86.6916 137.272 87.8305 137.706C89.3491 138.284 90.1264 139.044 90.1264 140.345C90.1264 141.882 88.9333 142.967 86.8543 142.967C85.8961 142.967 85.0103 142.732 84.3957 142.37L84.792 141.159V141.159ZM94.0848 131.522V134.035H96.362V135.247H94.0848V139.965C94.0848 141.05 94.3915 141.664 95.278 141.664C95.5887 141.669 95.8987 141.632 96.2 141.556L96.2723 142.749C95.9657 142.876 95.4768 142.966 94.8629 142.966C94.1217 142.966 93.5244 142.731 93.1448 142.297C92.6935 141.827 92.5301 141.05 92.5301 140.019V135.247H91.1743V134.035H92.5301V131.938L94.0848 131.522V131.522ZM105.583 134.036C105.546 134.669 105.51 135.374 105.51 136.44V141.52C105.51 143.527 105.112 144.756 104.263 145.516C103.413 146.312 102.184 146.565 101.081 146.565C100.033 146.565 98.8755 146.312 98.1698 145.842L98.5675 144.631C99.146 144.992 100.05 145.317 101.135 145.317C102.762 145.317 103.955 144.468 103.955 142.262V141.286H103.919C103.431 142.1 102.49 142.75 101.135 142.75C98.9652 142.75 97.4105 140.906 97.4105 138.483C97.4105 135.518 99.3449 133.837 101.352 133.837C102.871 133.837 103.702 134.633 104.082 135.356H104.118L104.191 134.036H105.583V134.036ZM103.937 137.489C103.937 137.218 103.919 136.983 103.847 136.766C103.558 135.844 102.78 135.085 101.623 135.085C100.104 135.085 99.0202 136.368 99.0202 138.393C99.0202 140.11 99.8879 141.538 101.605 141.538C102.582 141.538 103.467 140.924 103.811 139.911C103.901 139.64 103.938 139.333 103.938 139.062V137.489H103.937ZM108.04 136.766C108.04 135.735 108.022 134.85 107.968 134.036H109.361L109.414 135.753H109.487C109.884 134.578 110.843 133.837 111.909 133.837C112.09 133.837 112.216 133.855 112.36 133.891V135.392C112.183 135.353 112.001 135.335 111.819 135.338C110.698 135.338 109.902 136.187 109.686 137.38C109.641 137.625 109.617 137.873 109.613 138.122V142.786H108.04V136.766ZM114.658 138.7C114.694 140.851 116.067 141.737 117.658 141.737C118.798 141.737 119.484 141.538 120.08 141.285L120.352 142.424C119.791 142.677 118.833 142.967 117.441 142.967C114.747 142.967 113.138 141.195 113.138 138.556C113.138 135.916 114.693 133.836 117.242 133.836C120.099 133.836 120.858 136.349 120.858 137.958C120.858 138.284 120.822 138.537 120.804 138.7H114.658V138.7ZM119.322 137.561C119.339 136.549 118.905 134.976 117.116 134.976C115.507 134.976 114.802 136.459 114.675 137.561H119.322V137.561ZM122.666 140.87C123.518 141.382 124.492 141.656 125.486 141.665C127.095 141.665 128.035 140.815 128.035 139.586C128.035 138.447 127.384 137.796 125.739 137.164C123.75 136.459 122.521 135.428 122.521 133.711C122.521 131.812 124.094 130.402 126.462 130.402C127.709 130.402 128.613 130.692 129.156 130.999L128.722 132.282C128.011 131.9 127.215 131.701 126.408 131.704C124.745 131.704 124.112 132.698 124.112 133.53C124.112 134.669 124.852 135.229 126.534 135.88C128.595 136.676 129.644 137.67 129.644 139.459C129.644 141.34 128.252 142.967 125.377 142.967C124.202 142.967 122.919 142.623 122.267 142.189L122.666 140.87V140.87ZM141.847 144.576C140.275 144.163 138.719 143.693 137.182 143.165C136.929 143.075 136.676 142.985 136.441 142.985C133.549 142.876 131.072 140.743 131.072 136.82C131.072 132.915 133.458 130.402 136.749 130.402C140.057 130.402 142.209 132.969 142.209 136.567C142.209 139.694 140.763 141.701 138.738 142.406V142.479C139.949 142.786 141.269 143.075 142.299 143.256L141.847 144.576V144.576ZM140.545 136.639C140.545 134.199 139.28 131.685 136.694 131.685C134.037 131.685 132.735 134.144 132.753 136.784C132.735 139.369 134.163 141.701 136.622 141.701C139.136 141.701 140.545 139.423 140.545 136.639V136.639ZM144.25 130.601H145.824V141.466H151.03V142.786H144.25V130.601Z" fill="white"/>
</g>
<defs>
<clipPath id="clip0_5527_813">
<rect width="216" height="206.929" fill="white"/>
</clipPath>
</defs>
</svg>
