<svg width="231" height="127" viewBox="0 0 231 127" fill="none" xmlns="http://www.w3.org/2000/svg">
<g clip-path="url(#clip0_665_5745)">
<g clip-path="url(#clip1_665_5745)">
<path d="M56.999 78.2169C58.4408 77.8685 59.8395 77.3762 61.2597 76.9572C62.541 76.5794 63.8164 76.185 65.0917 75.7886C65.9717 75.5155 66.8712 75.6731 67.7619 75.6466C68.035 75.6388 68.0565 75.858 68.0585 76.0607C68.0634 76.5491 68.0526 77.0385 68.0663 77.5269C68.0751 77.8147 67.9273 78.2199 68.1485 78.3598C68.3913 78.5135 68.6545 78.1651 68.9002 78.0271C69.9084 77.4594 70.9038 76.8721 71.9756 76.4248C76.0631 74.7168 80.3668 76.0068 82.5956 80.1736C83.8377 82.4972 84.2272 84.9892 84.0246 87.5968C83.8406 89.9615 83.1173 92.1276 81.6559 94.0098C79.7257 96.496 77.1074 97.787 74.0497 98.2813C72.2653 98.5701 70.4771 98.4497 68.6908 98.3107C68.1182 98.2657 68.0643 98.2931 68.0643 98.8588C68.0624 100.83 68.0731 102.801 68.0555 104.773C68.0516 105.174 68.1808 105.348 68.5821 105.424C69.4454 105.585 70.297 105.809 71.1583 105.985C71.5352 106.063 71.7329 106.218 71.6967 106.637C71.6634 107.026 71.6781 107.419 71.6918 107.81C71.7035 108.146 71.5616 108.273 71.2268 108.268C70.2979 108.255 69.3691 108.265 68.4402 108.265C64.9361 108.265 61.432 108.265 57.9289 108.265C57.2741 108.265 57.2731 108.262 57.2692 107.618C57.2672 107.309 57.2966 106.996 57.2623 106.69C57.2124 106.236 57.4238 106.054 57.8408 105.966C58.5729 105.81 59.2923 105.594 60.0264 105.445C60.4561 105.358 60.6 105.165 60.5981 104.72C60.5795 101.412 60.5883 98.1051 60.5883 94.7978C60.5883 90.2356 60.5883 85.6734 60.5883 81.1112C60.5883 80.4643 60.5853 80.4613 59.9335 80.4604C58.9556 80.4604 57.9778 80.4633 57 80.4662V78.2179L56.999 78.2169ZM68.0634 88.1048C68.0634 90.3687 68.0731 92.6327 68.0555 94.8957C68.0516 95.3488 68.1691 95.5603 68.6555 95.5192C69.093 95.4829 69.5364 95.525 69.974 95.4947C72.4973 95.3195 74.4167 94.1939 75.3544 91.7841C76.3733 89.1658 76.4262 86.4672 75.5375 83.798C74.9267 81.9628 73.6024 80.8558 71.6781 80.5396C70.6748 80.3752 69.6686 80.4741 68.6643 80.6316C68.2033 80.7041 68.0477 80.8891 68.0526 81.3618C68.0761 83.6091 68.0634 85.8565 68.0634 88.1038V88.1048Z" fill="#CECECE"/>
<path d="M102.987 84.9045C102.804 85.02 102.737 85.2109 102.639 85.3714C100.1 89.548 97.5612 93.7255 95.0368 97.9108C94.8107 98.2857 94.567 98.4638 94.1089 98.455C92.6593 98.4266 91.2078 98.4452 89.7572 98.4443C89.0867 98.4443 89.0711 98.4296 89.0711 97.7611C89.0701 92.2534 89.0691 86.7457 89.0711 81.238C89.0711 80.404 89.0417 80.4794 88.3947 80.4295C87.4375 80.3561 86.4831 80.2464 85.5259 80.1672C84.7438 80.1026 84.735 80.1045 84.734 79.3459C84.734 79.1991 84.7311 79.0523 84.734 78.9065C84.7604 77.8034 84.5285 77.959 85.7069 77.6859C87.8955 77.1799 90.0871 76.6797 92.2825 76.206C93.3425 75.9769 94.427 76.1453 95.4988 76.111C95.7289 76.1042 95.815 76.2432 95.8238 76.4487C95.8306 76.6112 95.8326 76.7746 95.8326 76.9371C95.8326 81.1734 95.8326 85.4106 95.8326 89.6468V90.1597C95.8698 90.1666 95.906 90.1744 95.9432 90.1812C96.5158 89.2416 97.0904 88.3029 97.66 87.3623C99.83 83.7809 102.003 80.2024 104.161 76.6141C104.378 76.2549 104.608 76.0846 105.048 76.0934C106.433 76.1228 107.819 76.1032 109.204 76.1052C109.838 76.1052 109.84 76.1081 109.84 76.7639C109.84 81.8967 109.84 87.0295 109.84 92.1623C109.84 92.3375 109.84 92.5127 109.84 92.8152C110.022 92.591 110.134 92.4628 110.236 92.3277C111.775 90.2644 113.306 88.1933 114.858 86.1398C115.148 85.7551 115.283 85.3734 115.279 84.8879C115.26 82.4115 115.281 79.9342 115.261 77.4578C115.257 76.9792 115.429 76.6689 115.799 76.391C117.932 74.7906 120.74 75.2477 121.987 77.4402C122.837 78.9339 122.577 80.4265 121.84 81.8761C121.03 83.4706 119.888 84.837 118.798 86.2396C115.75 90.1656 112.698 94.0866 109.657 98.0185C109.425 98.319 109.18 98.456 108.798 98.4521C107.087 98.4364 105.375 98.4472 103.664 98.4443C103.069 98.4443 103.042 98.4149 103.042 97.7963C103.041 93.6736 103.042 89.5509 103.039 85.4292C103.039 85.2598 103.092 85.0778 102.984 84.9065L102.987 84.9045Z" fill="#CECECE"/>
<path d="M136.378 81.0006C136.378 80.1862 136.353 79.3699 136.387 78.5565C136.407 78.0994 136.236 78.0378 135.849 78.1386C133.957 78.6319 132.478 79.6871 131.714 81.4988C130.415 84.5771 130.339 87.7318 131.696 90.8013C133.145 94.0773 136.179 95.1295 139.457 94.1919C140.953 93.7641 142.334 93.0574 143.728 92.3879C144.307 92.11 144.341 92.1374 144.343 92.7883C144.345 93.7984 144.337 94.8085 144.346 95.8186C144.349 96.1123 144.255 96.2982 143.972 96.4274C141.968 97.3475 139.926 98.1599 137.732 98.5015C135.431 98.8607 133.132 98.8774 130.832 98.433C126.537 97.603 123.329 93.5106 122.689 89.6845C122.2 86.7628 122.525 83.9575 124.025 81.3696C125.88 78.1709 128.775 76.4453 132.33 75.7366C134.646 75.2746 136.964 75.2815 139.248 75.9363C140.829 76.3905 142.244 77.1373 143.242 78.5066C143.984 79.5246 144.297 80.66 144.099 81.9177C143.746 84.1621 141.816 85.2124 139.799 85.1194C138.684 85.0675 137.682 84.6329 136.706 84.1269C136.448 83.9928 136.37 83.8127 136.373 83.5416C136.383 82.6939 136.377 81.8473 136.376 80.9996L136.378 81.0006Z" fill="#CECECE"/>
<path d="M131.616 19.0703H153.323C153.43 19.6498 153.366 20.2341 153.367 20.8155C153.367 21.6749 153.411 22.5353 153.343 23.3937C153.192 23.5757 152.982 23.5933 152.769 23.6031C152.395 23.6207 152.021 23.6139 151.647 23.6139C145.349 23.6139 139.051 23.6159 132.754 23.611C132.401 23.611 132.035 23.6687 131.702 23.4857C131.65 23.4465 131.608 23.3986 131.577 23.3408C131.555 21.995 131.573 20.6491 131.568 19.3033C131.568 19.222 131.566 19.1408 131.617 19.0703H131.616Z" fill="#8D8D8D"/>
<path d="M168.67 30.0225C168.675 30.1165 168.68 30.2104 168.686 30.3044C168.737 30.4121 168.721 30.5276 168.721 30.6401C168.72 35.8415 168.726 41.0428 168.719 46.2441C168.714 46.3117 168.684 46.3665 168.63 46.4086C168.432 46.5133 168.216 46.478 168.007 46.479C164.883 46.482 161.758 46.482 158.635 46.479C158.412 46.479 158.177 46.527 157.97 46.386C157.76 46.112 157.834 45.7909 157.833 45.4865C157.814 40.5221 157.812 35.5566 157.833 30.5922C157.833 30.3847 157.804 30.1674 157.987 30.0068C158.107 29.9354 158.24 29.9628 158.369 29.9628C161.662 29.9608 164.957 29.9608 168.251 29.9638C168.392 29.9638 168.544 29.9158 168.673 30.0235L168.67 30.0225Z" fill="#9B9B9B"/>
<path d="M131.51 57.2622C131.513 53.8276 131.516 50.394 131.521 46.9594C131.521 46.748 131.531 46.5366 131.537 46.3252C131.579 46.2762 131.628 46.2341 131.683 46.1999C131.907 46.0756 132.153 46.0824 132.396 46.0824C136.331 46.0765 140.266 46.0775 144.201 46.0805C144.429 46.0805 144.656 46.1 144.88 46.1441C145.01 46.1607 145.139 46.1764 145.245 46.2655C145.288 46.3154 145.321 46.3712 145.343 46.4328C145.442 46.6961 145.448 46.9721 145.448 47.2491C145.451 50.301 145.453 53.3539 145.445 56.4058C145.445 56.7073 145.494 57.0322 145.235 57.275C145.097 57.3464 144.947 57.3151 144.803 57.3151C140.514 57.3171 136.225 57.3171 131.936 57.3151C131.794 57.3151 131.642 57.3611 131.511 57.2613L131.51 57.2622Z" fill="#313131"/>
<path d="M174.238 46.4612C174.241 50.07 174.243 53.6788 174.246 57.2867C174.168 57.3699 174.066 57.3493 173.971 57.3493C172.295 57.3493 170.619 57.3503 168.944 57.3493C168.878 57.3493 168.814 57.3395 168.754 57.3131C168.588 57.1575 168.627 56.9519 168.627 56.762C168.624 53.5105 168.624 50.2579 168.627 47.0063C168.627 46.8155 168.589 46.6119 168.74 46.4484C169.009 46.3525 169.288 46.4054 169.561 46.4034C170.962 46.3966 172.362 46.3985 173.764 46.4034C173.922 46.4034 174.091 46.3525 174.238 46.4592V46.4612Z" fill="#939393"/>
<path d="M109.715 62.7629C109.709 62.7022 109.703 62.6405 109.696 62.5798C109.702 60.9912 109.712 59.4027 109.708 57.8141C109.708 57.5292 109.746 57.3354 110.092 57.3922C110.157 57.3619 110.215 57.3717 110.267 57.4216C110.451 57.6212 110.435 57.8738 110.437 58.1146C110.448 59.433 110.449 60.7514 110.437 62.0699C110.435 62.3116 110.447 62.5632 110.258 62.7599C110.077 62.8539 109.896 62.8559 109.715 62.7619V62.7629Z" fill="#313131"/>
<path d="M131.603 30.0132C131.61 27.8041 131.617 25.5959 131.625 23.3868C138.502 23.3848 145.378 23.3819 152.254 23.3789C152.612 23.3789 152.971 23.374 153.33 23.3711L153.336 23.3672C153.464 23.513 153.467 23.6912 153.468 23.8703C153.47 25.7789 153.47 27.6876 153.468 29.5963C153.468 29.7568 153.479 29.9222 153.372 30.0622C153.083 30.3108 152.73 30.2628 152.394 30.2638C149.417 30.2707 146.438 30.2677 143.461 30.2677C139.832 30.2677 136.203 30.2716 132.574 30.2628C132.244 30.2628 131.88 30.3401 131.618 30.0289L131.604 30.0122L131.603 30.0132Z" fill="#6F6F6F"/>
<path d="M157.609 23.374C157.612 25.5548 157.616 27.7356 157.619 29.9163C157.485 30.0759 157.298 30.0563 157.12 30.0573C156.028 30.0612 154.937 30.0583 153.844 30.0592C153.537 30.0592 153.363 29.976 153.365 29.6139C153.377 27.5936 153.37 25.5734 153.371 23.5532C153.371 23.4866 153.382 23.424 153.417 23.3672C154.813 23.3691 156.21 23.3721 157.607 23.374H157.609Z" fill="#B7B7B7"/>
<path d="M157.644 29.9854C157.767 29.9981 157.892 30.0098 158.015 30.0225V46.3303C157.896 46.4771 157.753 46.4781 157.596 46.3998C157.547 46.3577 157.511 46.3068 157.486 46.2461C157.382 46.0327 157.386 45.8027 157.386 45.5757C157.38 40.6445 157.378 35.7143 157.388 30.7831C157.388 30.511 157.361 30.2203 157.616 30.0196L157.644 29.9844V29.9854Z" fill="#9B9B9B"/>
<path d="M157.625 46.3574C157.755 46.3555 157.886 46.3535 158.016 46.3516C161.564 46.3535 165.113 46.3555 168.661 46.3565C168.676 46.3799 168.688 46.4044 168.698 46.4299C168.669 46.4886 168.628 46.5375 168.575 46.5757C168.385 46.6941 168.17 46.6892 167.961 46.6902C164.742 46.699 161.525 46.701 158.307 46.6902C158.081 46.6902 157.848 46.6951 157.659 46.5317C157.608 46.4817 157.597 46.423 157.625 46.3574Z" fill="#7A7A7A"/>
<path d="M153.331 57.3205C150.898 57.3156 148.465 57.3107 146.032 57.3048C145.756 57.3048 145.481 57.2989 145.205 57.295C145.206 53.6832 145.208 50.0715 145.209 46.4597C145.373 46.2737 145.598 46.3168 145.803 46.3168C148.132 46.3129 150.46 46.3129 152.789 46.3158C153.458 46.3158 153.552 46.3961 153.557 47.0764C153.578 49.5175 153.563 51.9596 153.565 54.4007C153.565 55.1495 153.574 55.8983 153.558 56.6471C153.553 56.8918 153.551 57.1413 153.321 57.3077L153.331 57.3205Z" fill="#393939"/>
<path d="M131.617 46.3216C131.617 44.595 131.618 42.8674 131.619 41.1408C131.82 40.9157 132.104 40.9871 132.34 40.9881C136.369 41.0116 140.398 40.9803 144.427 40.9969C144.931 40.9989 145.073 41.1378 145.07 41.6488C145.061 43.023 145.062 44.3972 145.065 45.7715C145.065 45.9594 145.085 46.1718 144.915 46.3216C140.482 46.3216 136.049 46.3216 131.617 46.3216Z" fill="#494949"/>
<path d="M153.322 57.2695C153.322 53.8663 153.325 50.463 153.324 47.0607C153.324 46.4577 153.29 46.4245 152.686 46.4235C150.194 46.4215 147.702 46.4225 145.21 46.4215C145.208 46.3902 145.206 46.3599 145.205 46.3285C145.223 46.3011 145.239 46.2747 145.257 46.2473C145.429 46.0897 145.647 46.0907 145.856 46.0907C148.328 46.0878 150.802 46.0564 153.274 46.1054C153.338 46.1054 153.403 46.1054 153.466 46.1054C154.633 46.0643 155.801 46.0838 156.967 46.0907C157.212 46.0917 157.459 46.1024 157.627 46.3256C157.628 46.3559 157.63 46.3863 157.632 46.4166C157.845 46.5918 157.861 46.8375 157.862 47.0832C157.874 50.2574 157.875 53.4317 157.862 56.6069C157.861 56.8506 157.86 57.1022 157.624 57.2656L157.636 57.2901C156.198 57.2832 154.761 57.2764 153.323 57.2695H153.322Z" fill="#4A4A4A"/>
<path d="M144.917 46.3352C144.917 44.8709 144.919 43.4067 144.916 41.9424C144.915 41.2504 144.819 41.1554 144.121 41.1554C139.955 41.1535 135.788 41.1554 131.621 41.1554C131.621 41.0585 131.621 40.9616 131.621 40.8647C131.803 40.6719 132.037 40.7336 132.26 40.7316C136.424 40.6866 140.589 40.7434 144.753 40.7032C145.118 40.6993 145.391 40.8109 145.45 41.2171C145.457 42.6549 145.456 44.0928 145.449 45.5307C145.447 45.8165 145.484 46.1228 145.214 46.3342L145.208 46.3401C145.111 46.3391 145.015 46.3382 144.918 46.3372L144.917 46.3352Z" fill="#494949"/>
<path d="M168.696 46.4062C168.721 46.4141 168.745 46.4229 168.769 46.4317C168.769 50.0435 168.768 53.6552 168.767 57.267C168.734 57.2797 168.703 57.2924 168.671 57.3052L168.675 57.2601C168.449 57.1143 168.441 56.8813 168.44 56.6533C168.423 53.4536 168.425 50.2539 168.439 47.0552C168.44 46.8252 168.459 46.5971 168.663 46.4385L168.695 46.4062H168.696Z" fill="#7B7B7B"/>
<path d="M131.506 62.7574C130.236 62.7623 128.965 62.7701 127.695 62.7701C122.074 62.7711 116.453 62.7701 110.833 62.7701C110.622 62.7701 110.41 62.7593 110.199 62.7535C110.199 60.9681 110.199 59.1828 110.199 57.3975C117.302 57.3955 124.405 57.3936 131.508 57.3906C131.508 59.1789 131.507 60.9681 131.507 62.7564L131.506 62.7574Z" fill="#313131"/>
<path d="M168.67 46.4522C168.674 50.0591 168.678 53.6669 168.681 57.2738C166.116 57.2806 163.552 57.2885 160.986 57.2933C159.866 57.2953 158.746 57.2894 157.626 57.2865C157.629 53.6698 157.632 50.0542 157.634 46.4375C161.312 46.4424 164.991 46.4473 168.67 46.4522Z" fill="#5A5A5A"/>
<path d="M145.212 46.3215V41.2396C145.329 40.7873 145.284 40.7227 144.798 40.7149C143.105 40.6875 141.414 40.71 139.722 40.7071C137.209 40.7032 134.696 40.6973 132.184 40.709C131.987 40.709 131.774 40.7306 131.619 40.5554C131.619 37.0376 131.619 33.5198 131.619 30.002C138.855 30 146.092 29.9981 153.328 29.9951L153.332 29.9922C153.495 30.1654 153.47 30.3837 153.47 30.5932C153.472 35.634 153.472 40.6748 153.47 45.7166C153.47 45.9251 153.503 46.1443 153.335 46.3166C150.627 46.3185 147.919 46.3195 145.212 46.3215Z" fill="#575757"/>
<path d="M131.619 40.5547C135.915 40.5547 140.21 40.5547 144.506 40.5547C144.668 40.5547 144.832 40.5547 144.994 40.5606C145.18 40.5684 145.361 40.6115 145.436 40.8053C145.518 41.0206 145.359 41.1312 145.21 41.2389C145.212 40.8591 144.949 40.8483 144.671 40.8483C143.384 40.8503 142.097 40.8483 140.809 40.8483C137.745 40.8483 134.682 40.8483 131.618 40.8493C131.618 40.7514 131.618 40.6526 131.618 40.5547H131.619Z" fill="#575757"/>
<path d="M157.625 46.3381C156.223 46.3351 154.823 46.3332 153.421 46.3302C153.337 46.1951 153.374 46.0444 153.374 45.9015C153.372 40.7491 153.372 35.5967 153.374 30.4443C153.374 30.3014 153.338 30.1507 153.421 30.0156C154.82 30.0186 156.218 30.0205 157.617 30.0235C157.62 35.4617 157.622 40.9008 157.625 46.339V46.3381Z" fill="#7B7B7B"/>
</g>
</g>
<defs>
<clipPath id="clip0_665_5745">
<rect width="231" height="127" fill="white"/>
</clipPath>
<clipPath id="clip1_665_5745">
<rect width="117.26" height="89.2684" fill="white" transform="translate(56.9951 19.0859)"/>
</clipPath>
</defs>
</svg>
