<svg width="100" height="100" viewBox="0 0 100 100" fill="none" xmlns="http://www.w3.org/2000/svg">
<g clip-path="url(#clip0_500_2202)">
<path d="M65.4167 0.20322H68.687C70.0508 0.479672 71.4229 0.717217 72.7253 1.23736C80.2509 4.23943 84.1336 12.1501 82.0264 20.1979C81.711 21.3979 81.711 21.4061 82.9151 21.4082C85.8066 21.4123 88.6961 21.4082 91.5875 21.4102C95.2449 21.4143 97.092 22.7167 98.3166 26.155V79.6926C97.1453 83.1063 95.2818 84.4537 91.7063 84.4558C82.5793 84.4599 73.4522 84.4558 64.3252 84.4599C63.0658 84.4599 62.9573 84.5602 62.9511 85.7725C62.9409 87.9862 62.9634 90.1999 62.9429 92.4135C62.9348 93.2347 63.2685 93.5828 64.102 93.5685C65.7013 93.5398 67.3027 93.546 68.9041 93.5746C70.0529 93.5951 70.7164 94.1275 70.7205 94.9507C70.7246 95.774 70.0529 96.3023 68.902 96.3023C56.8118 96.3084 44.7216 96.3084 32.6314 96.3023C31.4417 96.3023 30.8376 95.8231 30.8273 94.9569C30.8171 94.0948 31.4273 93.5931 32.6048 93.5726C34.2041 93.546 35.8076 93.5316 37.4069 93.5726C38.2854 93.5951 38.6212 93.2716 38.6049 92.3787C38.5619 90.2347 38.5946 88.0886 38.5905 85.9425C38.5905 84.464 38.5864 84.4599 37.112 84.4578C27.9174 84.4578 18.7207 84.4619 9.52613 84.4537C5.47558 84.4496 3.02846 82.0046 3.02846 77.9704C3.02437 61.2829 3.02437 44.5933 3.02846 27.9058C3.02846 23.8696 5.47558 21.4246 9.52613 21.4102C12.4893 21.4 15.4525 21.4102 18.4156 21.4061C19.761 21.4061 19.7262 21.4061 19.4354 20.114C17.9753 13.6532 19.4907 8.10158 24.5815 3.70905C26.914 1.69606 29.7195 0.6865 32.7318 0.201172C33.8212 0.201172 34.9106 0.201172 36.0021 0.201172C36.1332 0.238032 36.2601 0.289227 36.3932 0.309705C45.7496 1.71859 51.6207 10.2784 49.5524 19.4976C49.2643 20.7795 49.7981 21.4157 51.1538 21.4061C52.4439 21.3979 52.4091 21.4061 52.1162 20.159C50.5742 13.6102 52.192 8.03605 57.3545 3.621C59.6706 1.64077 62.4576 0.682404 65.4269 0.201172L65.4167 0.20322ZM95.593 54.3552C95.1732 54.8467 94.9193 55.1579 94.651 55.4549C90.8872 59.6385 86.1793 61.4897 80.6318 60.6583C72.8686 59.4952 67.5525 53.2371 67.4092 45.3613C67.3928 44.4664 67.0897 44.1735 66.2133 44.1797C61.9231 44.2084 57.631 44.2084 53.3408 44.1797C52.4685 44.1735 52.1224 44.4746 52.1203 45.3654C52.1183 46.2766 52.5053 46.5367 53.3592 46.5244C55.8105 46.4876 58.2637 46.508 60.7149 46.5142C62.431 46.5183 62.816 46.8951 62.818 48.6173C62.8242 53.1122 62.8201 57.6091 62.8201 62.1041C62.8201 64.9362 62.6952 65.2085 59.904 65.0037C57.2849 64.8113 55.0876 65.3621 53.3101 67.3423C53.1299 67.543 52.8903 67.6905 52.6732 67.8522C51.9893 68.3601 51.2459 68.5034 50.4698 68.1041C49.7367 67.7273 49.3374 67.0925 49.4131 66.2713C49.5094 65.2208 48.9933 65.016 48.0739 65.0304C45.5551 65.0713 43.0342 65.0529 40.5134 65.0386C39.0881 65.0304 38.5926 64.5471 38.5905 63.1403C38.5782 58.2358 38.5782 53.3313 38.5905 48.4289C38.5946 46.9299 39.0308 46.5203 40.5728 46.5162C43.196 46.5101 45.8172 46.4978 48.4404 46.5224C49.235 46.5306 49.4295 46.1374 49.407 45.4411C49.3865 44.7981 49.4357 44.1899 48.5039 44.192C43.9742 44.2043 39.4445 44.2022 34.9168 44.192C34.2594 44.192 34.0014 44.4971 34.0137 45.1319C34.0301 45.9142 33.9809 46.6923 33.8499 47.4705C32.7543 53.9743 29.0744 58.3812 22.7836 60.1955C16.4006 62.0365 10.9084 60.1668 6.50767 55.1661C6.32132 54.9532 6.22917 54.6071 5.77251 54.5948C5.77251 59.3068 5.77046 64.0003 5.77661 68.6918C5.77661 69.1833 6.07968 69.429 6.56296 69.4454C7.00529 69.4598 7.44761 69.4639 7.88994 69.4639C36.4281 69.4639 64.9682 69.4639 93.5063 69.4639C93.7787 69.4639 94.051 69.4659 94.3234 69.4639C95.5459 69.4434 95.6729 69.3348 95.6729 68.1041C95.6749 63.814 95.6647 59.5218 95.6565 55.2317C95.6565 55.031 95.6278 54.8323 95.593 54.3593V54.3552ZM50.7012 72.2018C36.3666 72.2018 22.0341 72.2018 7.69949 72.2018C7.35956 72.2018 7.01757 72.214 6.67764 72.2038C6.10221 72.1895 5.76227 72.4311 5.76432 73.0352C5.77251 75.0441 5.72336 77.055 5.82166 79.0578C5.88924 80.4523 7.10972 81.5418 8.5309 81.6687C9.10633 81.7199 9.6879 81.7076 10.2654 81.7076C35.1871 81.7076 60.1108 81.7076 85.0325 81.7076C87.4489 81.7076 89.8674 81.724 92.2838 81.6974C94.4463 81.6728 95.6156 80.5076 95.6627 78.339C95.6954 76.8421 95.6668 75.3431 95.6627 73.8441C95.6572 72.7492 95.1063 72.2011 94.0101 72.1997C79.5731 72.1997 65.1382 72.1997 50.7012 72.1997V72.2018ZM95.677 45.3224C95.6688 38.194 90.023 32.5461 82.9028 32.5461C75.7785 32.5461 70.1328 38.1858 70.1205 45.3162C70.1082 52.4712 75.8072 58.1805 82.9499 58.1682C90.0189 58.158 95.6852 52.4385 95.677 45.3203V45.3224ZM67.1471 3.27901C60.1416 3.22372 54.3115 8.86336 54.25 15.7522C54.1845 23.0218 59.8631 28.8847 67.0181 28.9359C74.0011 28.9871 79.8229 23.2614 79.8803 16.2907C79.9397 9.0067 74.3901 3.33635 67.1491 3.27901H67.1471ZM5.75203 45.3674C5.76023 52.4774 11.4347 58.1682 18.5201 58.1682C25.6054 58.1682 31.2901 52.4794 31.3086 45.3715C31.329 38.2124 25.6464 32.5359 18.473 32.5441C11.3712 32.5523 5.74384 38.2247 5.75203 45.3674V45.3674ZM95.5439 36.0233C95.5889 35.9004 95.6647 35.7837 95.6729 35.6608C95.8531 32.839 95.8715 30.0089 95.7179 27.1911C95.6156 25.3133 94.2374 24.1952 92.3514 24.187C88.6756 24.1686 84.9977 24.1932 81.3219 24.1707C80.64 24.1666 80.1956 24.3959 79.7881 24.9509C75.7273 30.482 69.5758 32.6895 62.9511 30.9898C62.2487 30.8096 61.833 30.953 61.3928 31.5222C59.0828 34.512 56.7299 37.467 54.4016 40.4445C54.205 40.6964 53.779 40.9462 53.9777 41.2861C54.1558 41.5892 54.6064 41.4295 54.934 41.4295C58.7798 41.4377 62.6276 41.3947 66.4733 41.4602C67.5812 41.4786 68.0583 41.108 68.4351 40.0636C72.4693 28.9072 87.1213 26.3065 94.778 35.3537C94.9848 35.5994 95.1036 35.9598 95.5439 36.0233V36.0233ZM5.80118 36.1359C5.8749 36.1585 5.94862 36.181 6.0203 36.2035C6.27832 35.8922 6.5302 35.5769 6.79641 35.2718C9.9193 31.7147 13.8838 29.8861 18.5815 29.8635C25.1774 29.8308 30.9461 34.0124 33.1577 40.2622C33.4035 40.9564 33.6308 41.4561 34.5297 41.4479C38.6151 41.409 42.7005 41.4336 46.7879 41.4274C47.0418 41.4274 47.3838 41.5401 47.5189 41.2247C47.6275 40.9728 47.3715 40.7967 47.2281 40.6165C44.7687 37.5264 42.297 34.4465 39.8499 31.3461C39.4916 30.8915 39.1209 30.8424 38.6049 30.9652C31.6055 32.6383 25.9372 30.5864 21.6081 24.8444C21.303 24.4389 20.9897 24.1604 20.4429 24.1625C16.5275 24.1768 12.6122 24.1461 8.69677 24.1891C7.17525 24.2055 5.86876 25.3727 5.82985 26.8574C5.74589 29.9475 5.80528 33.0417 5.80528 36.1339L5.80118 36.1359ZM47.2077 16.1023C47.224 8.90431 41.6172 3.28925 34.4007 3.27901C27.3317 3.26877 21.5815 8.98213 21.561 16.0388C21.5385 23.073 27.3952 28.94 34.4376 28.9359C41.4882 28.9318 47.1933 23.2 47.2077 16.1023V16.1023ZM50.7073 49.121C48.0165 49.121 45.3257 49.1558 42.637 49.1026C41.6663 49.0842 41.308 49.3913 41.3202 50.3845C41.3632 53.8924 41.3325 57.3982 41.3387 60.9061C41.3407 62.2187 41.4144 62.2884 42.7332 62.2945C45.2193 62.3027 47.7053 62.2843 50.1913 62.3088C51.4732 62.3211 51.9196 62.7471 52.0118 63.8754C52.0323 64.1314 51.8725 64.4877 52.1818 64.6126C52.4644 64.7273 52.6896 64.4406 52.8575 64.2502C54.3668 62.5505 56.2651 62.0017 58.4644 62.2945C58.5975 62.3129 58.7368 62.2843 58.8719 62.2966C59.7422 62.3785 60.0883 62.0058 60.0822 61.117C60.0535 57.5068 60.0515 53.8985 60.0822 50.2883C60.0904 49.3975 59.7586 49.0944 58.8781 49.1087C56.1545 49.1476 53.4289 49.1231 50.7053 49.1231L50.7073 49.121ZM50.8855 84.4578C48.0944 84.4578 45.3032 84.4742 42.5141 84.4476C41.7155 84.4394 41.3182 84.6688 41.3305 85.5432C41.3632 87.8572 41.3571 90.1712 41.3346 92.4852C41.3264 93.2797 41.6622 93.5685 42.4363 93.5664C48.0186 93.5521 53.5988 93.5501 59.1811 93.5664C59.9798 93.5685 60.2583 93.2408 60.248 92.4627C60.2173 90.1835 60.2071 87.9022 60.2501 85.623C60.2685 84.724 59.9306 84.4333 59.0542 84.4455C56.3326 84.4845 53.6091 84.4599 50.8855 84.4599V84.4578ZM50.7401 24.1727C50.0254 24.1727 49.3107 24.1973 48.5961 24.1645C47.9613 24.1358 47.5046 24.3427 47.1339 24.8853C45.9524 26.6219 44.4657 28.0615 42.6759 29.1673C42.0943 29.5256 42.0431 29.8492 42.4691 30.3775C45.0309 33.5557 47.5824 36.7441 50.1155 39.9448C50.5456 40.4896 50.8323 40.5244 51.2787 39.9571C53.8241 36.7216 56.3879 33.5004 58.9661 30.2915C59.4105 29.7386 59.2794 29.4376 58.7204 29.0977C57.4651 28.3297 56.1975 27.4737 55.4296 26.2389C54.2849 24.3959 52.8063 23.714 50.7381 24.1727H50.7401Z" fill="#727272"/>
<path d="M50.6643 78.5058C49.5094 78.5058 48.3523 78.5284 47.1974 78.4997C46.0875 78.471 45.5121 77.9836 45.5059 77.144C45.4998 76.2963 46.0731 75.7843 47.1769 75.77C49.5216 75.7433 51.8664 75.7433 54.2111 75.77C55.319 75.7823 55.8964 76.284 55.9026 77.1236C55.9087 77.9714 55.3374 78.469 54.2316 78.4976C53.0439 78.5284 51.852 78.5038 50.6643 78.5058V78.5058Z" fill="#727272"/>
<path d="M80.5842 51.7666C79.3596 51.7666 78.1351 51.787 76.9125 51.7625C75.219 51.7297 74.1787 50.7181 74.1541 49.0123C74.1173 46.5652 74.1152 44.116 74.1562 41.6689C74.1848 40.0265 75.2272 38.9985 76.8675 38.976C79.3494 38.9412 81.8313 38.9576 84.3133 38.9699C85.4723 38.976 86.3611 39.4839 86.8136 40.5692C87.0553 41.1467 87.3235 41.1385 87.8211 40.8948C90.6594 39.5166 91.6464 40.1535 91.6464 43.3296C91.6464 44.9965 91.6628 46.6614 91.6403 48.3283C91.6137 50.2082 90.1925 51.0539 88.4949 50.2205C88.2512 50.1017 88.0095 49.9747 87.7761 49.8355C87.3563 49.5877 87.0573 49.5611 86.828 50.1119C86.3201 51.3324 85.3269 51.8014 84.0532 51.7686C83.9856 51.7686 83.918 51.7686 83.8484 51.7686C82.761 51.7686 81.6716 51.7686 80.5842 51.7686V51.7645V51.7666ZM80.6067 41.5624C79.6893 41.5624 78.774 41.5808 77.8566 41.5562C77.1644 41.5378 76.8654 41.8429 76.8695 42.5269C76.8818 44.3597 76.8798 46.1925 76.8695 48.0252C76.8675 48.6846 77.1378 49.0512 77.8299 49.0491C79.6975 49.045 81.5631 49.0491 83.4307 49.0491C84.0634 49.0491 84.346 48.7399 84.3419 48.1031C84.3296 46.2355 84.3235 44.3699 84.344 42.5023C84.3522 41.7897 84.0307 41.5358 83.3528 41.5562C82.4375 41.5829 81.5201 41.5624 80.6027 41.5624H80.6067ZM89.0396 45.359C89.0396 45.1542 89.0683 44.9453 89.0334 44.7488C88.9618 44.3494 89.2894 43.6593 88.7386 43.6163C88.1263 43.5672 87.4873 43.9563 87.1863 44.5849C86.9938 44.9863 87.0532 45.4573 87.1249 45.8935C87.1986 46.3419 88.3597 47.2655 88.716 47.1222C89.3324 46.8744 88.927 46.2907 89.0314 45.8689C89.0703 45.7092 89.0375 45.531 89.0396 45.361V45.359Z" fill="#727272"/>
<path d="M66.8771 25.0634C65.3822 25.0634 63.877 25.1658 62.3944 25.0368C60.6886 24.8873 59.6934 23.9003 59.546 22.2231C59.1569 17.7651 59.4989 13.3869 61.3849 9.24417C62.118 7.63255 63.9405 6.89125 65.5788 7.4974C67.2805 8.12812 68.1344 9.81551 67.6675 11.6299C67.3221 12.9677 67.8402 13.6374 69.2218 13.6387C69.8689 13.6387 70.516 13.6162 71.1611 13.6531C73.2252 13.7698 74.6444 15.2278 74.6812 17.2838C74.7058 18.6784 74.7058 20.0729 74.6812 21.4675C74.6464 23.4006 73.4792 24.7235 71.5665 25.0429C71.3658 25.0757 71.1631 25.1248 70.9604 25.1269C69.6006 25.1351 68.2389 25.131 66.8791 25.131V25.0655L66.8771 25.0634ZM66.961 22.4054C68.2204 22.4054 69.4819 22.3951 70.7413 22.4095C71.546 22.4177 71.9454 22.0286 71.9515 21.2361C71.9618 20.0791 71.9761 18.92 71.9577 17.763C71.9392 16.5917 71.7385 16.3992 70.5733 16.3807C69.2464 16.3603 67.9133 16.4278 66.5904 16.3377C64.7269 16.2108 63.8054 14.8265 64.3296 13.0633C64.5528 12.3138 64.8395 11.5807 65.0341 10.8251C65.1835 10.2435 64.9153 9.87489 64.2846 9.95476C63.8975 10.0039 63.8136 10.3971 63.6702 10.7063C62.0791 14.163 62.0627 17.8306 62.2019 21.5207C62.2265 22.1822 62.5624 22.4136 63.1767 22.4095C64.4361 22.3992 65.6975 22.4054 66.9569 22.4054H66.961Z" fill="#727272"/>
<path d="M18.579 37.5356C20.2459 37.5356 21.9149 37.5172 23.5818 37.5397C25.8302 37.5725 27.2576 39.0202 27.276 41.2769C27.2924 43.081 27.2903 44.8851 27.276 46.6872C27.2596 48.9992 25.8651 50.4613 23.5367 50.49C22.6602 50.5002 22.22 50.7418 21.9128 51.6142C21.4316 52.9739 19.9285 53.4879 18.624 52.8757C18.2268 52.6893 17.8541 52.4395 17.4916 52.1876C16.1257 51.2333 14.7865 50.4265 12.9701 50.3773C10.9161 50.322 9.7755 48.8169 9.76117 46.7507C9.74888 44.9138 9.74888 43.0749 9.76117 41.238C9.77755 38.9772 11.1885 37.5663 13.4738 37.5376C15.1755 37.5172 16.8773 37.5335 18.579 37.5335V37.5356ZM18.5728 40.2858C16.9387 40.2858 15.3066 40.3001 13.6725 40.2796C12.7694 40.2674 12.3598 40.681 12.366 41.5739C12.3762 43.1056 12.3578 44.6353 12.3701 46.1671C12.3803 47.4469 12.6731 47.793 13.9284 47.7316C15.1489 47.6722 16.1994 47.963 17.1517 48.7227C17.6022 49.0811 18.1285 49.3432 18.5933 49.6852C19.1749 50.1152 19.3612 49.978 19.4534 49.2715C19.6029 48.1166 20.0452 47.7828 21.2309 47.7562C21.9108 47.7398 22.5927 47.7295 23.2725 47.7521C24.1203 47.7828 24.5545 47.4019 24.5565 46.552C24.5606 44.8503 24.5565 43.1486 24.5606 41.4489C24.5627 40.6462 24.1859 40.2735 23.3708 40.2817C21.7715 40.3001 20.1722 40.2878 18.5728 40.2858V40.2858Z" fill="#727272"/>
<path d="M26.3137 16.0213C26.3137 14.5919 26.2973 13.1646 26.3178 11.7352C26.3485 9.61781 27.8126 8.00005 29.9342 7.94271C32.926 7.86285 35.9219 7.86285 38.9117 7.94271C40.9943 7.998 42.4872 9.57685 42.5425 11.7537C42.6162 14.6083 42.6182 17.4691 42.5425 20.3237C42.481 22.6848 40.8919 24.1572 38.5329 24.1736C35.7786 24.192 33.0222 24.192 30.268 24.1736C27.8475 24.1572 26.3321 22.6254 26.3116 20.2049C26.2993 18.8104 26.3096 17.4158 26.3116 16.0213H26.3137ZM34.3554 10.6642C33.098 10.6642 31.8407 10.654 30.5833 10.6663C29.2686 10.6806 28.9226 11.0758 28.9758 12.4171C29.0106 13.2649 29.0168 14.1148 29.0516 14.9626C29.0659 15.2943 28.9103 15.7653 29.2031 15.9189C29.5963 16.1237 29.8318 15.6301 30.1 15.4131C31.9349 13.9202 32.1294 13.9243 33.7697 15.6383C33.8393 15.7121 33.911 15.7858 33.9806 15.8595C35.5042 17.4322 35.2072 17.3032 36.7902 16.052C37.5561 15.4479 38.2871 15.1121 39.1595 15.8226C39.6121 16.1912 39.8168 16.0315 39.8148 15.4786C39.8086 14.3585 39.8291 13.2363 39.8086 12.1161C39.7902 10.9837 39.4871 10.6868 38.3281 10.6704C37.0032 10.6499 35.6782 10.6663 34.3533 10.6642H34.3554ZM34.3595 21.4643C34.3595 21.4643 34.3595 21.4541 34.3595 21.45C35.752 21.45 37.1445 21.4889 38.5349 21.4377C39.479 21.4029 40.0175 20.6595 39.6981 19.9715C39.1718 18.837 37.982 18.5483 37.0175 19.3203C36.8844 19.4268 36.7533 19.5353 36.6223 19.6397C35.2564 20.7271 34.8182 20.7005 33.6141 19.4554C32.3594 18.1571 31.0468 18.1189 29.6761 19.3408C29.2645 19.7073 28.8243 20.0411 29.0741 20.7066C29.328 21.3845 29.8953 21.4541 30.4891 21.4602C31.7792 21.4705 33.0693 21.4643 34.3595 21.4643Z" fill="#727272"/>
<path d="M48.225 59.9096C47.4448 59.9096 46.6625 59.9383 45.8823 59.9014C45.0796 59.8646 44.4775 59.4734 44.4386 58.6216C44.3956 57.7041 45.0141 57.2393 45.8496 57.2106C47.4428 57.1553 49.0421 57.1574 50.6353 57.2106C51.4196 57.2372 52.0155 57.6509 52.0196 58.5356C52.0237 59.4775 51.4012 59.8502 50.5657 59.8973C49.7875 59.9424 49.0032 59.9076 48.223 59.9076L48.225 59.9096Z" fill="#727272"/>
<path d="M53.2527 52.0398C54.0698 52.0398 54.8889 52.0173 55.704 52.048C56.5026 52.0767 57.0084 52.5313 57.0207 53.3217C57.0309 54.1101 56.5415 54.6077 55.7408 54.6221C54.0739 54.6548 52.405 54.6528 50.736 54.6262C49.9455 54.6139 49.4356 54.1777 49.4336 53.3586C49.4316 52.4883 49.966 52.0685 50.8036 52.0439C51.6206 52.0193 52.4377 52.0378 53.2548 52.0398H53.2527Z" fill="#727272"/>
<path d="M55.0198 59.9483C54.6758 59.9115 54.3605 59.9196 54.0717 59.8377C53.3673 59.635 52.9516 59.1538 53.056 58.4022C53.2035 57.3599 54.0103 57.194 54.8786 57.1736C56.1379 57.1428 56.8506 57.534 56.9591 58.3531C57.0595 59.1046 56.6847 59.6002 55.9864 59.8193C55.669 59.9196 55.3188 59.9115 55.0178 59.9483H55.0198Z" fill="#727272"/>
<path d="M46.393 54.6298C46.1554 54.6298 45.9179 54.6482 45.6824 54.6257C44.8878 54.5499 44.4127 54.0953 44.4291 53.3089C44.4476 52.5205 44.9493 52.0905 45.7397 52.0434C46.1104 52.0209 46.4831 52.0311 46.8558 52.0352C47.7138 52.0434 48.3076 52.3854 48.3527 53.3192C48.3916 54.1137 47.851 54.5868 46.8967 54.642C46.7288 54.6523 46.5588 54.642 46.3889 54.642C46.3889 54.638 46.3889 54.6339 46.3889 54.6298H46.393Z" fill="#727272"/>
</g>
<defs>
<clipPath id="clip0_500_2202">
<rect width="95.6322" height="96.31" fill="white" transform="translate(2.68359)"/>
</clipPath>
</defs>
</svg>
