<svg width="91" height="91" viewBox="0 0 91 91" fill="none" xmlns="http://www.w3.org/2000/svg">
<g clip-path="url(#clip0_152_1174)">
<path d="M45.703 0.0111881C48.7797 1.81247 51.8453 3.61375 54.9332 5.40384C56.947 6.57859 58.9497 7.75333 60.9747 8.88333C61.8586 9.3756 62.2614 10.0357 62.2614 11.0762C62.2278 16.7597 62.239 22.4321 62.2614 28.1156C62.2614 29.1002 61.9033 29.7603 61.0419 30.2525C56.0632 33.1055 51.0957 35.9808 46.1282 38.8562C45.345 39.3149 44.6178 39.3149 43.8346 38.8562C38.9007 35.992 33.9555 33.1279 28.9992 30.2973C28.0818 29.7715 27.6902 29.089 27.7014 28.0261C27.735 22.4321 27.735 16.8492 27.7014 11.2552C27.7014 10.0805 28.1377 9.36442 29.1447 8.79382C33.922 6.07512 38.6769 3.31167 43.4318 0.559404C43.7227 0.391582 43.98 0.190197 44.2598 0C44.7408 0 45.2219 0 45.7142 0L45.703 0.0111881ZM46.4974 27.5674C46.4974 29.7379 46.5197 31.9084 46.4974 34.09C46.4974 34.862 46.6764 34.9851 47.3588 34.5935C51.0621 32.4342 54.7654 30.2861 58.491 28.1604C58.9833 27.8807 59.1287 27.5115 59.1287 26.9856C59.1175 22.7342 59.1063 18.4715 59.1287 14.22C59.1287 13.4369 58.9273 13.3362 58.2672 13.7166C54.5863 15.8535 50.9055 17.9792 47.2134 20.0938C46.7099 20.3847 46.4974 20.7315 46.5086 21.3245C46.5421 23.4054 46.5197 25.4864 46.5197 27.5674H46.4974ZM43.4654 27.724C43.4654 25.9451 43.3535 24.1439 43.499 22.3761C43.622 20.9105 43.1186 20.0266 41.7872 19.5456C41.7312 19.5232 41.6753 19.4896 41.6306 19.4561C41.1607 19.1316 40.9928 19.3106 41.004 19.8253C41.004 20.9776 41.0488 22.1188 40.9816 23.2712C40.8921 24.8487 39.7733 25.4752 38.4084 24.7256C37.0323 23.9648 35.6897 23.1593 34.3247 22.3761C33.6311 21.9734 33.3066 21.4028 33.3178 20.5972C33.3402 19.2099 33.2171 17.8114 33.3514 16.4353C33.4968 15.0368 32.971 14.2536 31.7291 13.7166C31.0578 13.4257 30.8453 13.4033 30.8564 14.22C30.8788 18.4827 30.8788 22.7342 30.8564 26.9968C30.8564 27.5898 31.069 27.9254 31.5725 28.2163C35.2757 30.3309 38.9678 32.4454 42.6375 34.6047C43.3759 35.041 43.4766 34.7949 43.4766 34.0789C43.4542 31.9643 43.4766 29.8498 43.4766 27.7352L43.4654 27.724ZM47.4372 4.69899C46.9337 4.39691 46.5421 4.20671 46.2177 3.96058C45.3897 3.32286 44.6625 3.40117 43.7675 3.9382C40.4558 5.91849 37.0994 7.82046 33.7653 9.74481C32.4004 10.5392 32.434 10.4832 33.7653 11.3559C34.5597 11.8705 35.1862 11.8929 35.9582 11.3559C36.8197 10.7517 37.7707 10.2818 38.6881 9.756C41.5522 8.10016 44.4164 6.44433 47.4372 4.69899ZM57.3834 10.5615C57.2715 10.4385 57.2043 10.349 57.126 10.2706C56.0408 9.23016 55.0786 9.12947 53.7808 9.87907C50.4356 11.8146 47.0903 13.739 43.7451 15.6745C42.5256 16.3793 42.5256 16.4017 43.7451 17.0842C44.2933 17.3863 44.7744 17.9345 45.5464 17.487C49.3279 15.2717 53.1207 13.1012 56.9135 10.9084C57.0589 10.8189 57.1932 10.707 57.3722 10.5615H57.3834ZM38.0839 13.683C38.8783 14.4997 39.5608 14.5557 40.4782 14.0075C44.0584 11.8705 47.6833 9.82313 51.2859 7.73096C51.4872 7.61908 51.7558 7.57432 51.8117 7.28343C51.1068 6.55621 50.3684 6.42195 49.507 7.07086C49.0035 7.45126 48.4217 7.71977 47.8735 8.03304C44.6401 9.90144 41.3956 11.7699 38.0839 13.683ZM37.8714 18.9973H37.8602C37.8602 18.5498 37.8937 18.0911 37.8602 17.6436C37.8042 17.0171 37.2336 16.7597 36.7749 16.7485C36.2827 16.7374 36.5064 17.3079 36.484 17.6212C36.4505 18.2477 36.4729 18.8855 36.484 19.512C36.4952 20.2392 37.0994 20.5749 37.614 20.5861C38.1511 20.5861 37.793 19.9707 37.8714 19.6351C37.9161 19.4337 37.8714 19.2211 37.8714 19.0085V18.9973Z" fill="white"/>
<path d="M0.0111881 70.5386C0.436335 68.4912 0.995738 66.4997 2.02504 64.6536C3.78157 61.4986 6.27651 59.1155 9.50986 57.5268C10.0693 57.2471 10.2483 57.0458 9.96857 56.3857C9.45392 55.2333 10.4832 54.0585 11.7475 54.3942C13.1348 54.7746 14.4997 55.2892 15.8311 55.8486C16.7038 56.2178 16.9723 57.2024 16.4353 57.9856C15.6409 59.1603 14.813 60.3127 13.9068 61.4091C13.0341 62.4608 11.6244 62.1475 11.244 60.8273C11.0538 60.1672 10.7965 60.335 10.4273 60.5476C6.25413 62.8971 3.81513 66.4214 3.13266 71.1651C2.80821 73.3915 3.14385 75.5508 3.83751 77.6654C4.18434 78.7282 3.81513 79.5673 2.89771 79.8694C2.05861 80.1491 1.29782 79.6904 0.895046 78.6499C0.469899 77.5423 0.29089 76.3787 0 75.2487V70.5386H0.0111881Z" fill="white"/>
<path d="M57.5626 82.1321C57.5626 81.7182 57.7192 81.3713 57.9542 81.0469C58.4353 80.3868 58.9052 79.7267 59.3862 79.0666C60.3596 77.724 59.8897 76.6164 58.2339 76.3479C57.406 76.2136 56.5668 76.1017 55.7389 75.9115C54.7432 75.699 54.3516 75.2067 54.3404 74.211C54.3292 72.8572 54.3292 71.4923 54.3404 70.1385C54.3516 69.1428 54.7432 68.6393 55.7389 68.4267C56.6787 68.2254 57.6409 68.1023 58.5919 67.9568C59.7107 67.789 60.2589 66.5024 59.5988 65.5738C59.0618 64.813 58.4912 64.0634 57.9542 63.2914C57.35 62.4187 57.3948 61.7027 58.1332 60.9307C59.0506 59.9686 59.9904 59.0288 60.9526 58.1113C61.691 57.4065 62.407 57.3617 63.2461 57.9435C64.0405 58.4917 64.8125 59.0847 65.5956 59.6329C66.4795 60.2483 67.7549 59.7 67.9339 58.6484C68.0906 57.6974 68.2136 56.7352 68.4038 55.7954C68.6164 54.7437 69.1087 54.3633 70.1715 54.3521C71.5029 54.341 72.8343 54.341 74.1545 54.3521C75.2062 54.3521 75.7096 54.7549 75.9222 55.7954C76.1124 56.7128 76.2355 57.6414 76.3809 58.5589C76.5599 59.7336 77.8242 60.2818 78.8087 59.577C79.5471 59.0511 80.2632 58.5029 81.0128 57.9883C81.9302 57.3505 82.6462 57.3953 83.4518 58.1785C84.3916 59.0735 85.309 59.9909 86.2041 60.9307C86.9425 61.7027 86.9872 62.4187 86.3831 63.2914C85.846 64.0634 85.2866 64.8018 84.7384 65.5738C84.0783 66.5024 84.6265 67.7778 85.7453 67.9568C86.6963 68.1023 87.6585 68.2365 88.5983 68.4267C89.6276 68.6393 89.9856 69.0868 89.9968 70.1161C90.0192 71.4699 90.008 72.8348 89.9968 74.1886C89.9856 75.1955 89.6052 75.699 88.6095 75.9004C87.6361 76.1018 86.6516 76.2248 85.667 76.3926C84.6713 76.5493 84.1119 77.8471 84.6825 78.6862C85.2307 79.4805 85.8237 80.2413 86.3719 81.0357C86.976 81.9195 86.9425 82.6244 86.2041 83.3964C85.309 84.3362 84.3916 85.2536 83.4518 86.1486C82.6462 86.9318 81.9302 86.9766 81.0128 86.3388C80.2744 85.8242 79.5471 85.276 78.8087 84.7501C77.8242 84.0565 76.5487 84.5935 76.3809 85.7682C76.2467 86.6633 76.1236 87.5583 75.9558 88.4534C75.732 89.5834 75.2397 89.9861 74.0762 89.9973C72.7784 89.9973 71.4805 90.0085 70.1827 89.9973C69.1199 89.9861 68.6276 89.6058 68.415 88.5541C68.2248 87.6143 68.1018 86.6521 67.9451 85.7011C67.7661 84.6382 66.4907 84.09 65.6068 84.7054C64.8125 85.2648 64.0517 85.8466 63.2573 86.3948C62.4182 86.9654 61.7022 86.9318 60.9638 86.227C59.9792 85.2872 59.0394 84.3138 58.0772 83.3516C57.7416 83.016 57.5514 82.6132 57.5626 82.1321ZM83.1385 62.3964C82.9148 61.9041 82.5344 61.5908 82.154 61.3111C81.8295 61.065 81.5946 61.4006 81.3596 61.5573C80.6883 62.016 80.0282 62.4971 79.3793 62.9893C78.7304 63.4704 78.0591 63.5599 77.3543 63.1572C76.5599 62.7096 75.7208 62.374 74.8482 62.1167C74.0986 61.8929 73.6958 61.3894 73.5839 60.6286C73.4608 59.8231 73.3042 59.0176 73.2147 58.212C73.1476 57.5855 72.8567 57.3394 72.2078 57.3394C71.5812 57.3394 71.2456 57.5184 71.1673 58.1673C71.0554 59.0064 70.91 59.8343 70.7757 60.6734C70.6526 61.3894 70.2722 61.8929 69.5562 62.1055C68.6835 62.3628 67.8444 62.6984 67.0501 63.146C66.3005 63.5599 65.618 63.4704 64.9355 62.967C64.2642 62.4523 63.5482 62.0048 62.8881 61.4678C62.3175 60.9979 62.0378 61.4342 61.691 61.7586C61.3218 62.0943 61.098 62.3964 61.5008 62.8998C62.049 63.5823 62.5301 64.3207 63.0447 65.0256C63.5035 65.6521 63.5594 66.301 63.1902 66.9835C62.7539 67.7778 62.3958 68.6057 62.1497 69.4896C61.9371 70.2392 61.4337 70.6532 60.6729 70.7762C59.8673 70.8993 59.0618 71.0559 58.2562 71.1454C57.6409 71.2126 57.3724 71.4699 57.3612 72.13C57.3612 72.8125 57.585 73.1257 58.2562 73.204C59.0618 73.2935 59.8673 73.4502 60.6729 73.5844C61.3889 73.6963 61.9036 74.0655 62.1161 74.7927C62.3846 75.6878 62.7427 76.5493 63.1902 77.3772C63.5594 78.0597 63.4923 78.7086 63.0447 79.3239C62.5301 80.0288 62.049 80.7672 61.5008 81.4496C61.098 81.9531 61.3442 82.244 61.7022 82.5908C62.0602 82.9153 62.3287 83.3404 62.8993 82.8705C63.5594 82.3335 64.2754 81.886 64.9467 81.3713C65.618 80.8567 66.3117 80.7784 67.0501 81.1923C67.822 81.6175 68.6276 81.9643 69.4667 82.1992C70.261 82.423 70.6638 82.9488 70.7757 83.7544C70.8988 84.5935 71.0554 85.4214 71.1673 86.2605C71.2568 86.887 71.6484 86.9877 72.1966 86.9877C72.7784 86.9877 73.1028 86.8199 73.1811 86.2046C73.2818 85.3655 73.4385 84.5376 73.5615 83.6985C73.6846 82.9377 74.0762 82.423 74.837 82.2104C75.7096 81.9643 76.5376 81.6063 77.3431 81.1699C78.0591 80.7784 78.7304 80.8679 79.3681 81.349C80.0394 81.8524 80.7666 82.3111 81.4156 82.8482C81.9638 83.2957 82.2547 82.9712 82.6239 82.6132C83.0154 82.244 83.2504 81.9307 82.8252 81.4049C82.277 80.7224 81.7848 79.9952 81.2813 79.2792C80.8561 78.6862 80.789 78.0485 81.147 77.4108C81.6057 76.594 81.9526 75.7214 82.2211 74.8263C82.4449 74.0767 82.9707 73.6963 83.7315 73.5844C84.537 73.4614 85.3426 73.3047 86.1481 73.2152C86.797 73.1369 86.9872 72.8125 86.9872 72.1859C86.9872 71.5594 86.797 71.2349 86.1481 71.1566C85.3426 71.0671 84.537 70.9105 83.7315 70.7874C82.9707 70.6755 82.456 70.2951 82.2211 69.5455C81.9526 68.6505 81.6057 67.7778 81.147 66.9611C80.789 66.3122 80.845 65.6857 81.2813 65.0927C81.7736 64.4102 82.277 63.7277 82.7693 63.0341C82.9036 62.8439 83.0155 62.6313 83.1385 62.4299V62.3964Z" fill="white"/>
<path d="M69.3664 21.0997C70.1048 21.6367 70.6642 21.9948 71.1789 22.4087C71.9173 23.0017 72.0403 23.7848 71.5593 24.4897C71.067 25.2169 70.1943 25.4183 69.4223 24.9037C67.4309 23.5947 65.4506 22.2633 63.5038 20.8871C62.5081 20.1823 62.4969 19.0075 63.4815 18.3027C65.4506 16.9042 67.4644 15.5616 69.4783 14.2414C70.2167 13.7603 71.067 13.9841 71.5481 14.6666C72.0292 15.3602 71.9173 16.1658 71.2012 16.7476C70.6866 17.1615 70.1272 17.5195 69.5454 17.9335C69.8139 18.1461 70.0936 18.0677 70.3286 18.0677C72.6557 18.0677 74.9828 18.0677 77.2987 18.0677C78.5742 18.0677 79.1112 18.5824 79.2119 19.8466C79.2343 20.0592 79.2231 20.2718 79.2231 20.4844C79.2231 29.5131 79.2231 38.5419 79.2231 47.5707C79.2231 47.9846 79.1895 48.421 79.0888 48.8237C78.8986 49.5957 78.3392 49.9873 77.5673 49.9985C76.8624 50.0209 76.2023 49.3832 76.1128 48.6336C76.0681 48.3091 76.0904 47.9735 76.0904 47.6378C76.0904 39.2468 76.0904 30.8445 76.0904 22.4535C76.0904 21.551 75.6243 21.0997 74.6919 21.0997C73.0025 21.0997 71.3131 21.0997 69.3552 21.0997H69.3664Z" fill="white"/>
<path d="M18.6508 46.1082C19.0984 45.4704 19.434 44.9334 19.8256 44.4411C20.4521 43.6468 21.2465 43.4901 21.9625 43.9824C22.7121 44.4859 22.8911 45.3585 22.3317 46.2088C21.0339 48.1668 19.7137 50.1247 18.3488 52.049C17.6103 53.0895 16.458 53.0671 15.7084 52.0154C14.3546 50.0911 13.0456 48.1332 11.7478 46.1641C11.2108 45.3585 11.3898 44.5194 12.1058 44.0048C12.8219 43.4901 13.6386 43.6244 14.2539 44.3964C14.6567 44.8998 15.0147 45.4481 15.5406 46.1977C15.5406 45.6047 15.5406 45.2914 15.5406 44.967C15.5406 36.699 15.5406 28.4198 15.5406 20.1518C15.5406 18.496 15.9657 18.082 17.6439 18.082C20.0605 18.082 22.4772 18.082 24.8938 18.082C26.0797 18.082 26.7286 18.6414 26.7174 19.6036C26.7174 20.5658 26.0573 21.0916 24.8602 21.1028C23.0477 21.1028 21.2353 21.1252 19.4228 21.1028C18.8187 21.1028 18.5613 21.2594 18.5613 21.9195C18.5837 29.8631 18.5725 37.7954 18.5725 45.7389C18.5725 45.7949 18.5949 45.8508 18.6508 46.1082Z" fill="white"/>
<path d="M34.1573 72.8803C34.1573 73.2159 34.1797 73.5515 34.1573 73.876C34.0902 74.6032 34.0678 75.1179 35.1195 75.2186C36.3278 75.3416 36.7194 76.852 35.8132 77.7359C34.8174 78.6981 33.7434 79.5931 32.647 80.4434C31.8302 81.0699 30.7897 80.835 30.3422 79.9176C29.7269 78.6421 29.1451 77.3443 28.6528 76.0129C28.2724 74.9948 29.022 73.8648 30.0513 73.9879C31.1813 74.1221 31.1701 73.5068 31.1366 72.7796C31.0359 70.0385 30.331 67.4764 28.7871 65.1829C26.6054 61.9495 23.607 59.9357 19.7807 59.1301C19.2772 59.0294 18.7514 58.9287 18.4157 58.4924C17.9906 57.933 17.9346 57.3065 18.3039 56.7135C18.7178 56.031 19.3779 55.8968 20.1275 56.031C22.8238 56.5233 25.2852 57.5638 27.4333 59.2532C31.8414 62.7103 34.0902 67.2639 34.1685 72.8691L34.1573 72.8803Z" fill="white"/>
<path d="M17.3406 90.0083C13.5478 90.0419 10.3145 89.035 7.3944 87.0323C6.89094 86.6855 6.63361 86.596 6.34272 87.2561C6.07421 87.8714 5.48124 88.0728 4.82114 87.9945C4.18342 87.9162 3.71352 87.5581 3.59045 86.954C3.27719 85.5107 2.9863 84.0563 2.7961 82.6018C2.68422 81.7068 3.44501 80.9684 4.396 81.0355C5.83926 81.1362 7.28252 81.304 8.7034 81.5725C9.82221 81.7851 10.3033 83.0382 9.59845 83.8885C9.05023 84.5597 9.453 84.7164 9.9229 84.9961C15.3156 88.2182 22.2745 87.3903 26.8057 82.9822C27.2197 82.5795 27.5889 82.1431 28.0028 81.7515C28.6853 81.1026 29.4685 81.0691 30.1174 81.6397C30.7663 82.1991 30.867 83.0046 30.2964 83.743C28.9202 85.5443 27.1637 86.9204 25.1722 87.9945C22.6549 89.3482 19.9698 90.0755 17.3406 90.0195V90.0083Z" fill="white"/>
<path d="M46.3519 70.4841C45.8372 70.126 45.3114 69.7904 44.8191 69.3988C44.0695 68.8058 43.9129 67.9444 44.3828 67.2395C44.8527 66.5458 45.7477 66.3445 46.5309 66.8591C48.5223 68.1681 50.5026 69.4995 52.4494 70.8756C53.4451 71.5805 53.4451 72.7664 52.4494 73.4601C50.5026 74.8362 48.5223 76.1676 46.5309 77.4766C45.7365 78.0024 44.8527 77.8011 44.3716 77.0962C43.8905 76.3914 44.0471 75.5411 44.7967 74.9369C45.289 74.5453 45.8148 74.2097 46.2959 73.6838C45.7701 73.6838 45.2442 73.6838 44.7184 73.6838C42.6374 73.6838 40.5564 73.6838 38.4755 73.6838C37.4014 73.6838 36.7301 73.0349 36.7525 72.1287C36.7749 71.256 37.435 70.6742 38.4755 70.6631C41.0711 70.6519 43.6555 70.6631 46.2512 70.6631C46.2735 70.6071 46.3071 70.5512 46.3295 70.4841H46.3519Z" fill="white"/>
<path d="M80.2081 72.1508C80.2081 76.6595 76.6615 80.2062 72.1639 80.2062C67.6663 80.2062 64.1197 76.6484 64.1309 72.1396C64.1309 67.6979 67.6887 64.1401 72.1304 64.1289C76.6391 64.1289 80.197 67.6532 80.2081 72.1508ZM72.1863 77.1406C74.8938 77.1183 77.1538 74.8471 77.1426 72.1619C77.1314 69.4544 74.8491 67.1944 72.1639 67.2056C69.4564 67.2168 67.1964 69.488 67.2076 72.1843C67.2188 74.8918 69.49 77.163 72.1863 77.1406Z" fill="white"/>
</g>
<defs>
<clipPath id="clip0_152_1174">
<rect width="91" height="91" fill="white"/>
</clipPath>
</defs>
</svg>
