<svg width="100" height="100" viewBox="0 0 100 100" fill="none" xmlns="http://www.w3.org/2000/svg">
<g clip-path="url(#clip0_632_3747)">
<path d="M98.4655 58.3153C97.6979 60.319 96.2691 61.3179 94.1487 61.5053C91.5419 61.7372 88.9484 62.1372 86.3454 62.4386C85.5493 62.5313 85.0173 62.825 84.7646 63.6752C84.51 64.5312 84.1281 65.3523 83.7557 66.1677C83.4384 66.8575 83.5106 67.4043 83.997 68.0169C85.7241 70.1906 87.4094 72.401 89.0909 74.6134C90.7458 76.789 90.6147 78.9801 88.7185 80.9162C85.7754 83.9227 82.8247 86.9215 79.8683 89.9144C78.0405 91.7655 75.8498 91.9162 73.8168 90.3163C71.6679 88.6257 69.5209 86.9292 67.4138 85.1844C66.7108 84.6009 66.0838 84.4599 65.2649 84.8888C64.5372 85.2694 63.7715 85.6018 62.9887 85.8375C62.1641 86.0868 61.8392 86.6007 61.7499 87.4277C61.4459 90.2352 61.0963 93.0369 60.779 95.8424C60.5016 98.2905 58.8201 99.8401 56.3805 99.844C52.0504 99.8517 47.7222 99.8537 43.3921 99.844C41.095 99.8382 39.3888 98.3562 39.0924 96.0608C38.7314 93.261 38.4046 90.4555 38.112 87.648C38.017 86.7302 37.7529 86.0887 36.7896 85.8085C36.0049 85.5825 35.2487 85.225 34.5172 84.8482C33.7648 84.4599 33.1777 84.5777 32.5298 85.111C30.4417 86.8287 28.3194 88.5039 26.2009 90.1811C23.9665 91.9491 21.8499 91.8196 19.8606 89.8024C16.9745 86.8751 14.0922 83.942 11.2118 81.0089C9.18066 78.9415 9.05716 76.8219 10.8432 74.4916C12.4943 72.3372 14.1397 70.179 15.8307 68.0555C16.3399 67.4159 16.4007 66.8343 16.0625 66.1136C15.6825 65.3021 15.3006 64.4809 15.046 63.625C14.8009 62.8076 14.2879 62.5333 13.5298 62.4444C10.8014 62.1275 8.07866 61.7739 5.35026 61.4628C2.81376 61.1749 1.31276 59.5075 1.30896 56.8951C1.30326 52.5883 1.30326 48.2814 1.30896 43.9764C1.31276 41.2907 2.78716 39.6503 5.39396 39.3546C8.12236 39.0455 10.8451 38.6861 13.5735 38.3711C14.3487 38.2823 14.8199 37.948 15.0612 37.1539C15.3101 36.3288 15.6711 35.5327 16.0435 34.756C16.4045 34.0024 16.338 33.3996 15.8041 32.7311C14.0922 30.5844 12.4259 28.401 10.7596 26.2176C9.04766 23.9763 9.19206 21.8818 11.1719 19.853C11.7286 19.283 12.2834 18.711 12.8496 18.1507C13.7578 17.2503 14.6565 17.1479 15.3329 17.857C16.0036 18.5603 15.9048 19.3892 15.0289 20.3032C14.4323 20.9234 13.8148 21.5224 13.2239 22.1484C12.4696 22.9464 12.4392 23.3502 13.1194 24.241C14.8427 26.4997 16.5546 28.772 18.333 30.9863C19.5775 32.5359 19.7637 34.1184 18.8878 35.9018C18.4223 36.8466 18.0689 37.8494 17.6889 38.8368C17.1018 40.3671 15.9884 41.1902 14.4114 41.3854C11.6241 41.7274 8.83296 42.0558 6.04376 42.3901C4.62446 42.5601 4.29006 42.9234 4.28816 44.3552C4.28246 48.405 4.28246 52.453 4.28816 56.5029C4.29006 57.8863 4.62066 58.2631 5.97916 58.4293C8.73606 58.7694 11.493 59.1075 14.2518 59.4205C15.9523 59.6118 17.1227 60.4542 17.7345 62.1063C18.1354 63.1864 18.5876 64.2491 19.0474 65.306C19.7124 66.8324 19.5547 68.2371 18.5363 69.551C16.775 71.8214 15.0194 74.0955 13.2695 76.3775C12.3803 77.5368 12.4069 77.8517 13.4424 78.9067C16.2563 81.7722 19.0721 84.6357 21.8898 87.4973C22.9519 88.5754 23.2445 88.5948 24.4529 87.6364C26.6455 85.8974 28.8419 84.1623 31.0117 82.3963C32.3607 81.2988 33.7781 81.1172 35.3475 81.8398C36.4115 82.3286 37.4964 82.7711 38.5813 83.2117C40.0462 83.8068 40.8442 84.9197 41.0342 86.4809C41.3781 89.3155 41.6992 92.1519 42.0222 94.9903C42.1932 96.4859 42.539 96.8201 44.0115 96.8221C47.9616 96.8259 51.9117 96.8279 55.8618 96.8221C57.2792 96.8201 57.6402 96.4839 57.8074 95.0502C58.138 92.2138 58.4591 89.3773 58.7935 86.5408C58.9835 84.9371 59.7853 83.8048 61.2882 83.2001C62.4035 82.7518 63.5112 82.2803 64.6113 81.7915C66.0819 81.1384 67.4385 81.2949 68.702 82.3055C70.9383 84.0927 73.1746 85.88 75.4147 87.6596C76.5775 88.5832 76.8967 88.5696 77.9075 87.5436C80.748 84.6608 83.5866 81.7741 86.4214 78.8855C87.4379 77.8498 87.455 77.5349 86.5468 76.3504C84.8387 74.1207 83.1401 71.8793 81.3959 69.6766C80.2863 68.2738 80.1039 66.815 80.8392 65.1862C81.3275 64.108 81.7512 62.9989 82.1901 61.8976C82.7677 60.4465 83.845 59.6485 85.3384 59.4572C88.1238 59.0998 90.9149 58.7751 93.7041 58.4505C95.2222 58.2747 95.5471 57.9308 95.549 56.3715C95.5528 52.3873 95.5528 48.4012 95.549 44.417C95.549 42.9157 95.2203 42.5601 93.7554 42.3882C90.9662 42.0578 88.1751 41.7332 85.3878 41.3854C83.8526 41.1922 82.7563 40.3845 82.1692 38.8967C81.7094 37.7354 81.2363 36.5781 80.7499 35.4284C80.1153 33.9252 80.311 32.5572 81.3066 31.2761C83.0698 29.0077 84.8235 26.7296 86.5715 24.4497C87.4417 23.3135 87.4246 22.9773 86.4537 21.988C83.598 19.0743 80.7366 16.1663 77.8733 13.2622C76.9005 12.2768 76.568 12.2594 75.4546 13.1444C73.262 14.8833 71.0618 16.6127 68.8958 18.3864C67.4556 19.567 65.966 19.7254 64.3073 18.912C63.3136 18.4251 62.2724 18.0348 61.2464 17.6174C59.7834 17.0223 58.9873 15.9074 58.7992 14.3443C58.4572 11.5097 58.1361 8.67133 57.8131 5.83486C57.6421 4.3432 57.2944 4.0128 55.8181 4.01087C51.868 4.007 47.9179 4.00507 43.9678 4.01087C42.5808 4.0128 42.2065 4.32968 42.0412 5.69381C41.6992 8.52834 41.3743 11.3648 41.0532 14.2032C40.867 15.8475 40.0842 17.0165 38.5414 17.6367C37.4261 18.085 36.3184 18.5565 35.2183 19.0434C33.7477 19.6945 32.3911 19.5322 31.1276 18.5217C28.9179 16.7537 26.7063 14.9858 24.4909 13.2236C23.2293 12.2188 22.969 12.2362 21.8556 13.3608C21.2951 13.9269 20.7479 14.5066 20.176 15.0611C19.3799 15.8301 18.5629 15.8881 17.9074 15.2485C17.2443 14.6012 17.2899 13.6854 18.0556 12.8642C18.6199 12.2575 19.2127 11.6778 19.7941 11.0866C21.8936 8.95536 23.9076 8.82977 26.2712 10.7021C28.2909 12.3019 30.322 13.8863 32.2942 15.5442C33.1074 16.2262 33.8313 16.4117 34.7737 15.8591C35.3969 15.4939 36.0866 15.2041 36.7801 15.007C37.6864 14.75 38.0056 14.1723 38.1006 13.2738C38.3761 10.6576 38.7808 8.05496 39.0031 5.4349C39.1874 3.27663 40.1678 1.82555 42.14 1.04688H57.6896C59.658 1.82555 60.6403 3.27663 60.8265 5.43103C61.0545 8.08007 61.444 10.7156 61.7442 13.3608C61.8354 14.1607 62.1014 14.721 62.9526 14.9684C63.7354 15.1964 64.4935 15.55 65.2231 15.9248C66.0249 16.3364 66.6595 16.2687 67.3777 15.6697C69.4791 13.9211 71.628 12.2324 73.7731 10.5398C75.8536 8.89933 78.0196 9.04424 79.8892 10.9378C82.8418 13.9288 85.7887 16.9276 88.7318 19.9302C90.5919 21.8296 90.7363 24.0323 89.1289 26.1539C87.683 28.0609 86.3017 30.0318 84.7171 31.8133C83.5429 33.1329 83.2959 34.3309 84.2611 35.8168C84.5157 36.209 84.6639 36.694 84.7722 37.1597C84.9755 38.033 85.5607 38.2996 86.3511 38.3885C88.671 38.6455 90.9833 38.9836 93.307 39.1885C95.6212 39.3913 97.5972 40.0328 98.4617 42.5118V58.3249L98.4655 58.3153Z" fill="white"/>
<path d="M53.2805 66.1995C53.2805 64.2712 53.2634 62.3429 53.29 60.4145C53.2995 59.7769 53.1361 59.5605 52.473 59.6938C50.7839 60.032 49.0758 60.0378 47.3886 59.6938C46.6438 59.5412 46.5203 59.8387 46.5488 60.4841C46.5849 61.286 46.5716 62.0917 46.5507 62.8935C46.5241 63.9717 45.9598 64.6557 45.0953 64.704C44.2232 64.7523 43.5221 64.0335 43.4784 62.9399C43.4309 61.7535 43.4366 60.5614 43.4689 59.3731C43.4879 58.6949 43.2846 58.2756 42.6766 57.8988C34.6814 52.9601 33.1652 42.4663 39.4143 35.3926C40.2617 34.4342 41.2459 33.6207 42.3384 32.958C44.3049 31.7658 46.3588 32.9251 46.3797 35.2554C46.4025 37.6648 46.4025 40.0762 46.3759 42.4857C46.3683 43.1117 46.5374 43.5851 46.9915 44.016C47.7781 44.7599 48.5438 45.5308 49.2677 46.3346C49.7009 46.8157 50.0353 46.8041 50.4096 46.3172C50.4286 46.2921 50.4514 46.2689 50.478 46.2496C52.9803 44.5647 53.955 42.2538 53.4895 39.2067C53.2881 37.889 53.4382 36.5113 53.4629 35.1626C53.5047 32.9561 55.5662 31.7407 57.4073 32.9116C61.5037 35.5182 63.8711 39.2898 64.1846 44.215C64.5703 50.255 62.0889 54.844 57.0292 57.9973C56.6112 58.2582 56.3775 58.5422 56.3775 59.062C56.3889 63.1428 56.3946 67.2255 56.3737 71.3063C56.368 72.284 56.8753 72.0502 57.4092 71.8474C63.7419 69.4534 68.3038 65.1117 70.7263 58.7065C73.5231 51.3119 72.689 44.2092 68.4045 37.5586C68.2829 37.3711 68.1518 37.1876 68.0397 36.9944C67.5324 36.1113 67.6597 35.2863 68.3741 34.7801C69.0581 34.2951 69.9625 34.467 70.5363 35.2573C71.8568 37.0774 72.9132 39.0483 73.6903 41.1679C79.2668 56.3646 70.2513 72.74 54.601 75.8412C40.7348 78.5888 27.0073 68.7037 24.7881 54.5677C22.6487 40.9302 31.4647 27.658 45.0934 25.0031C52.3932 23.581 59.0774 25.1886 65.0928 29.6346C65.45 29.8993 65.8205 30.1621 65.9782 30.6123C66.2157 31.2905 66.0865 31.8914 65.5374 32.3513C64.9142 32.873 64.2435 32.8285 63.6146 32.3667C62.4613 31.5185 61.27 30.734 60.0065 30.0616C52.1956 25.9016 41.8558 27.2136 35.2742 33.1918C29.6065 38.3411 27.0985 44.7966 27.6153 52.4655C28.191 61.0154 34.4154 69.1075 42.4315 71.8454C43.4024 72.1778 43.4366 72.1526 43.4556 71.1092C43.4651 70.5972 43.429 70.0813 43.5696 69.577C43.7881 68.7887 44.3163 68.3597 45.0953 68.3984C45.9199 68.439 46.4519 68.951 46.5241 69.8012C46.5887 70.5682 46.5868 71.345 46.5488 72.1121C46.5032 73.0646 47.2005 73.0067 47.7648 73.0608C48.4773 73.1303 48.3557 72.5468 48.3576 72.1217C48.3671 70.0659 48.3614 68.0081 48.3633 65.9522C48.3633 65.6624 48.3519 65.3706 48.388 65.0866C48.5001 64.1842 49.1632 63.535 49.9346 63.5466C50.7079 63.5582 51.3919 64.2094 51.4375 65.1233C51.4983 66.3097 51.466 67.4999 51.4679 68.6901C51.4717 69.8147 51.4565 70.9392 51.4755 72.0638C51.4831 72.512 51.3197 73.1303 52.1063 73.0666C52.7542 73.0144 53.3299 72.939 53.2976 71.9787C53.233 70.0523 53.2786 68.1221 53.2786 66.1957L53.2805 66.1995ZM43.4062 40.2907C43.4062 39.1333 43.4119 37.9778 43.4005 36.8205C43.3986 36.6118 43.5145 36.322 43.2561 36.2157C43.0205 36.1191 42.8628 36.3625 42.7013 36.5036C40.1078 38.7565 38.6847 41.6336 38.6239 45.0864C38.5061 51.8955 44.0199 57.18 50.5939 56.7762C55.1634 56.496 59.1781 53.4567 60.643 48.9527C62.106 44.4565 60.6677 39.3536 57.1299 36.4939C56.9646 36.3606 56.8107 36.1075 56.5732 36.2195C56.3262 36.3355 56.4383 36.6214 56.4383 36.8301C56.4288 39.0154 56.4212 41.2008 56.4383 43.3861C56.444 44.2343 56.2141 44.9647 55.6023 45.5579C54.2514 46.864 52.9252 48.1972 51.5477 49.4725C50.4609 50.4772 49.1385 50.4367 48.046 49.4261C47.5083 48.9295 47.0029 48.3963 46.4975 47.8668C42.7526 43.9561 43.4955 45.6796 43.4081 40.2888L43.4062 40.2907Z" fill="white"/>
</g>
<defs>
<clipPath id="clip0_632_3747">
<rect width="97.47" height="99" fill="white" transform="translate(1 1)"/>
</clipPath>
</defs>
</svg>
