<svg width="100" height="100" viewBox="0 0 100 100" fill="none" xmlns="http://www.w3.org/2000/svg">
<g clip-path="url(#clip0_632_3737)">
<path d="M98.4748 89.1864C97.711 92.5114 96.0143 95.1847 93.0047 96.9156C91.3897 97.8447 89.6493 98.3558 87.7683 98.3558C62.5515 98.3539 37.3347 98.3634 12.1198 98.3482C6.00177 98.3444 1.01997 93.0377 1.32587 86.933C1.44177 84.6017 3.41397 82.6846 5.86877 82.5192C6.21457 82.4964 6.56417 82.4965 6.91187 82.5041C7.39827 82.5155 7.59777 82.2741 7.57877 81.8048C7.56737 81.5217 7.57877 81.2367 7.57877 80.9517C7.57877 64.4559 7.65097 47.9619 7.52937 31.468C7.49707 27.1949 10.6264 22.8724 16.068 22.9788C17.1738 22.9997 18.2796 22.994 19.3854 22.9826C19.9668 22.9769 20.2727 23.1992 20.2423 23.8224C20.2176 24.2955 20.1834 24.7819 20.2651 25.2417C20.4418 26.2278 19.9725 26.4482 19.1061 26.4197C17.9072 26.3779 16.7045 26.3912 15.5037 26.4197C12.781 26.4786 10.9171 28.3273 10.9152 31.0329C10.9038 47.8441 10.9152 64.6554 10.8924 81.4666C10.8924 82.3292 11.204 82.523 12.002 82.523C37.2815 82.5059 62.561 82.506 87.8405 82.5249C88.7145 82.5249 88.971 82.257 88.9691 81.3906C88.9482 64.6421 88.9576 47.8954 88.9482 31.1469C88.9482 28.3102 87.1109 26.4691 84.278 26.4159C83.0145 26.3931 81.7491 26.395 80.4856 26.4102C79.8035 26.4197 79.4691 26.167 79.5907 25.4469C79.6268 25.2303 79.6154 25.0061 79.6192 24.7838C79.6496 22.9598 79.3076 22.9579 81.5021 22.9845C82.7941 23.0016 84.088 22.9085 85.3819 23.1004C89.4916 23.7084 92.277 26.889 92.2789 31.0747C92.2865 47.7282 92.2827 64.3799 92.2827 81.0334C92.2827 82.4698 92.2827 82.4603 93.6944 82.5117C96.1416 82.599 97.6711 83.9044 98.4748 86.154V89.1883V89.1864ZM38.9307 95.0251C47.9063 95.0251 56.8819 95.0156 65.8575 95.0403C66.7106 95.0422 67.0526 94.8009 67.0165 93.9136C66.9614 92.5247 67.0127 91.1339 67.0032 89.7431C66.9994 89.0933 67.2255 88.7551 67.9437 88.7608C70.5676 88.7836 73.1896 88.7798 75.8135 88.7627C76.4823 88.7589 76.7046 89.0686 76.6951 89.6899C76.678 90.7957 76.678 91.9015 76.6951 93.0092C76.7293 95.2417 76.3113 95.0042 78.8136 95.0327C79.4444 95.0403 79.6382 94.7705 79.6287 94.1777C79.6059 92.6919 79.6458 91.2061 79.6135 89.7222C79.5983 89.0306 79.8567 88.7589 80.5502 88.7646C83.1095 88.7855 85.6707 88.7893 88.2299 88.7608C88.9767 88.7532 89.2389 89.0515 89.2218 89.7735C89.1914 91.1643 89.237 92.5551 89.2066 93.944C89.1914 94.6451 89.3966 94.8313 90.0939 94.6033C92.7406 93.7388 94.9408 90.9971 95.1878 88.1889C95.3455 86.3972 94.8344 85.8386 93.018 85.8386C83.252 85.8367 73.486 85.8519 63.72 85.8158C62.751 85.812 62.4888 86.0894 62.4964 87.0451C62.523 90.2048 60.585 92.0915 57.412 92.0953C52.3865 92.101 47.361 92.1029 42.3374 92.0953C39.2993 92.0896 37.3746 90.163 37.3404 87.1268C37.3302 86.2692 36.8945 85.8398 36.0332 85.8386C26.3299 85.8386 16.6285 85.8386 6.92517 85.8386C6.60977 85.8386 6.28487 85.812 5.97897 85.8728C5.18477 86.0324 4.64897 86.4675 4.66227 87.3491C4.66987 87.8203 4.68127 88.301 4.77817 88.7589C5.58187 92.576 8.56677 95.0156 12.4789 95.0213C21.2968 95.0346 30.1147 95.0251 38.9326 95.0251H38.9307ZM49.9355 85.8367C47.3173 85.8367 44.6972 85.8367 42.079 85.8367C40.6236 85.8367 40.521 85.9526 40.6844 87.4061C40.7908 88.3485 41.3171 88.7627 42.4913 88.7646C47.4446 88.7722 52.3979 88.7684 57.3531 88.7646C57.5735 88.7646 57.7996 88.7703 58.0143 88.7285C58.9016 88.5594 59.2512 87.8393 59.198 86.5663C59.1543 85.5365 58.4114 85.8519 57.8889 85.8462C55.2384 85.8215 52.5879 85.8348 49.9374 85.8348L49.9355 85.8367ZM84.3673 95.0251C85.3768 95.0264 85.8822 94.6033 85.8835 93.7559C85.886 92.6514 85.4503 92.0984 84.5763 92.0972C83.4945 92.0959 82.953 92.5469 82.9518 93.45C82.9505 94.4988 83.4217 95.0238 84.3654 95.0251H84.3673ZM70.4308 93.4918C70.4308 94.5127 70.888 95.0238 71.8026 95.0251C72.7792 95.0251 73.2675 94.54 73.2675 93.5697C73.2675 92.5994 72.821 92.1079 71.928 92.0953C70.9311 92.094 70.432 92.5589 70.4308 93.4899V93.4918Z" fill="white"/>
<path d="M34.3864 1.19531C34.3959 6.12201 34.3921 11.0506 34.4244 15.9773C34.4301 16.7924 34.0748 17.0014 33.3338 16.9881C31.4395 16.9558 29.5433 17.0052 27.649 16.9653C26.8776 16.9501 26.5622 17.2009 26.5888 17.9951C26.6325 19.2567 26.6553 20.524 26.5831 21.7837C26.5261 22.7831 26.946 23.0016 27.8618 22.994C32.1577 22.956 36.4536 22.9769 40.7495 22.9769C41.7248 22.9769 42.2131 23.4652 42.2144 24.4418C42.2144 30.3166 42.2144 36.1914 42.2144 42.0681C42.2144 43.5444 42.2125 43.5539 40.7856 43.5444C38.6576 43.5292 38.8894 43.7914 38.8837 41.5988C38.8742 36.9248 38.859 32.2489 38.8989 27.5749C38.9065 26.6591 38.6158 26.3779 37.7095 26.3855C33.4459 26.4235 29.1804 26.4026 24.9168 26.4026C23.7552 26.4026 23.1745 25.8073 23.1745 24.6166C23.1745 22.4696 23.127 20.3188 23.1954 18.1737C23.2258 17.1876 22.88 16.9273 21.9414 16.9596C20.0794 17.0242 18.2155 16.971 16.3516 16.9805C15.7759 16.9843 15.3693 16.8798 15.3731 16.1635C15.3997 11.1741 15.4092 6.18471 15.4244 1.19531H34.3883H34.3864ZM24.8807 13.646C26.6477 13.646 28.4147 13.6289 30.1798 13.6555C30.8049 13.665 31.0994 13.4959 31.0918 12.8081C31.0652 10.3172 31.0671 7.82441 31.0918 5.33161C31.0975 4.67611 30.86 4.44431 30.2064 4.44811C26.6743 4.46711 23.1403 4.46521 19.6063 4.44811C18.9831 4.44431 18.6886 4.61721 18.6962 5.30311C18.7228 7.79401 18.7228 10.2868 18.6962 12.7796C18.6886 13.4408 18.928 13.6669 19.5797 13.6555C21.3448 13.6251 23.1118 13.6441 24.8788 13.646H24.8807Z" fill="white"/>
<path d="M84.4377 1.1913C84.4529 6.1807 84.4624 11.1701 84.489 16.1595C84.4928 16.8739 84.0862 16.9784 83.5105 16.9765C81.6466 16.9651 79.7808 17.0183 77.9207 16.9556C76.9821 16.9233 76.6344 17.1855 76.6667 18.1697C76.7351 20.2521 76.6876 22.3383 76.6876 24.4226C76.6876 25.7399 76.0435 26.3986 74.7553 26.3986C70.5867 26.3986 66.4162 26.3986 62.2476 26.3986C60.9879 26.3986 60.9822 26.4062 60.9822 27.664C60.9822 32.528 60.9822 37.392 60.9822 42.2579C60.9822 43.5347 60.9765 43.5499 59.7434 43.5385C57.3874 43.5176 57.6591 43.8387 57.6534 41.4941C57.642 35.7447 57.6477 29.9972 57.6515 24.2478C57.6515 23.0033 57.68 22.9748 58.9264 22.9729C63.285 22.9691 67.6436 22.9729 72.0041 22.9691C73.2372 22.9691 73.26 22.9406 73.2638 21.6828C73.2676 20.4516 73.2315 19.2185 73.2752 17.9873C73.3037 17.1931 72.9864 16.9423 72.215 16.9575C70.3207 16.9955 68.4245 16.948 66.5302 16.9803C65.7892 16.9917 65.4339 16.7846 65.4396 15.9695C65.4719 11.0428 65.4681 6.1161 65.4776 1.1875H84.4415L84.4377 1.1913ZM74.9529 13.642C76.7199 13.642 78.4869 13.6249 80.252 13.6515C80.8733 13.661 81.1735 13.4976 81.164 12.806C81.1355 10.3151 81.1374 7.8223 81.164 5.3295C81.1716 4.674 80.9341 4.4403 80.2805 4.4441C76.7484 4.4631 73.2144 4.4669 69.6823 4.4422C68.9641 4.4365 68.7608 4.7158 68.7684 5.396C68.795 7.8565 68.795 10.317 68.7684 12.7775C68.7608 13.4349 68.9983 13.6648 69.6519 13.6534C71.417 13.623 73.184 13.642 74.951 13.642H74.9529Z" fill="white"/>
<path d="M59.4061 1.19531C59.4194 6.15241 59.4232 11.1114 59.4517 16.0685C59.4555 16.7905 59.1249 16.9919 58.4656 16.9824C56.6663 16.9596 54.8651 16.9748 53.0658 16.9767C52.1183 16.9767 51.6433 17.4397 51.6408 18.3656C51.6408 26.167 51.6389 33.9684 51.6408 41.7698C51.6408 43.8769 51.6085 43.5273 49.8301 43.5444C48.2132 43.5596 48.2113 43.5482 48.2094 41.9598C48.2094 34.0957 48.2094 26.2316 48.2094 18.3675C48.2094 17.4428 47.7344 16.9799 46.7844 16.9786C44.9832 16.9786 43.1839 16.9634 41.3846 16.9843C40.7253 16.9919 40.3947 16.7905 40.3985 16.0704C40.427 11.1133 40.4308 6.15431 40.4441 1.19721C46.7654 1.19721 53.0867 1.19721 59.408 1.19721L59.4061 1.19531ZM49.8966 13.646C51.6959 13.646 53.4952 13.6289 55.2945 13.6555C55.9063 13.665 56.1305 13.4427 56.1267 12.8271C56.1058 10.3343 56.1039 7.83961 56.1267 5.34681C56.1324 4.70081 55.9215 4.44621 55.2565 4.45001C51.6902 4.47091 48.122 4.46711 44.5557 4.45191C43.9458 4.45001 43.7197 4.67611 43.7254 5.28791C43.7463 7.78071 43.7482 10.2754 43.7235 12.7682C43.7159 13.4161 43.9268 13.6688 44.5937 13.6574C46.3607 13.6251 48.1296 13.646 49.8966 13.646Z" fill="white"/>
<path d="M49.8787 79.5789C39.0715 79.5789 28.2643 79.5713 17.459 79.5884C16.2069 79.5884 15.1581 79.2597 14.4019 78.2166C13.9782 77.6314 13.8262 76.974 13.8281 76.2539C13.8338 61.7189 13.8281 47.182 13.8376 32.647C13.8376 30.5551 15.198 29.2707 17.4362 29.2536C20.7859 29.2289 24.1356 29.246 27.4853 29.246C29.9192 29.246 32.3512 29.2669 34.7851 29.2346C35.6097 29.2232 35.9916 29.4493 35.9593 30.3594C35.8719 32.8351 36.3241 32.6603 33.6869 32.6641C28.5987 32.6698 23.5124 32.6641 18.4242 32.6679C17.1759 32.6679 17.1645 32.6812 17.1645 33.9466C17.1645 47.6285 17.1645 61.3123 17.1645 74.9942C17.1645 76.2444 17.1683 76.2463 18.4242 76.2482C19.5927 76.2501 20.765 76.195 21.9297 76.2653C22.8683 76.3223 23.216 76.0392 23.1856 75.0531C23.1191 72.8434 23.1913 70.6299 23.1514 68.4183C23.1381 67.6355 23.3585 67.1358 24.1698 66.9971C24.2933 66.9762 24.4092 66.9078 24.5327 66.8926C26.807 66.6399 28.0876 65.3308 28.6272 63.1515C28.7412 62.6936 28.8153 62.3231 28.5873 61.8956C28.1104 61.0045 27.6772 60.0887 27.1984 59.1995C26.959 58.7568 26.9362 58.4053 27.3257 58.0196C29.7938 55.5724 32.2505 53.1119 34.6996 50.6476C35.072 50.2733 35.4292 50.2334 35.8833 50.4804C36.7421 50.9497 37.6275 51.3715 38.4825 51.8484C38.9651 52.1182 39.3755 52.0422 39.9056 51.9206C42.1552 51.4057 43.299 49.9712 43.6106 47.7729C43.7607 46.7127 44.3535 46.441 45.3795 46.46C48.5373 46.5227 51.6989 46.4999 54.8586 46.4714C55.5749 46.4657 56.01 46.6804 56.1297 47.4119C56.1601 47.5962 56.2399 47.7748 56.2988 47.9553C56.9398 49.9364 58.2425 51.2898 60.2071 52.0156C60.6194 52.1695 60.9367 52.0802 61.2806 51.8997C62.147 51.4437 63.0248 51.0086 63.8817 50.5336C64.3928 50.2505 64.788 50.2619 65.225 50.7046C67.6228 53.1328 70.0396 55.5439 72.464 57.9455C72.8611 58.3388 72.9485 58.6922 72.6692 59.1957C72.179 60.0792 71.7534 60.9988 71.2784 61.8899C71.0523 62.3136 70.9915 62.7107 71.2442 63.142C71.3715 63.3586 71.5121 63.5923 71.5501 63.8317C71.8465 65.6728 73.1005 66.4271 74.7725 66.7273C74.9264 66.7558 75.0784 66.8071 75.2285 66.8546C76.2039 67.1586 76.6922 67.835 76.6934 68.8838C76.6934 71.0004 76.7219 73.1189 76.6801 75.2355C76.6649 76.0316 76.9537 76.2919 77.7289 76.2615C78.9905 76.214 80.2597 76.1988 81.5194 76.2653C82.4219 76.3128 82.7221 76.024 82.7126 75.0968C82.6689 70.894 82.6936 66.6912 82.6936 62.4884C82.6936 53.0093 82.6936 43.5283 82.6936 34.0492C82.6936 32.6717 82.6917 32.6679 81.3465 32.666C76.0379 32.666 70.7293 32.666 65.4207 32.666C63.9159 32.666 63.9083 32.6603 63.9159 31.127C63.9254 29.1662 63.6746 29.246 65.8216 29.246C71.2252 29.246 76.6288 29.2878 82.0324 29.227C84.3846 29.2004 86.068 30.4278 86.0547 33.2094C85.9882 47.3967 86.0243 61.5859 86.0224 75.7732C86.0224 78.4256 84.8672 79.5789 82.211 79.5789C71.4361 79.5808 60.6612 79.5789 49.8844 79.5789H49.8787ZM26.5885 72.9346C26.5885 73.725 26.6132 74.5154 26.5809 75.3039C26.5543 75.9879 26.8146 76.2767 27.5195 76.2558C28.688 76.2197 29.8565 76.2463 31.025 76.2463C32.1739 76.2463 32.7097 75.6934 32.6324 74.5876C31.8553 63.4023 41.4237 54.5122 52.5121 56.1177C61.729 57.4515 68.3068 66.106 67.0984 75.3286C67.0129 75.986 67.1668 76.2672 67.866 76.2539C69.3499 76.2254 70.8357 76.2235 72.3196 76.2558C73.0169 76.271 73.2791 76.0012 73.2677 75.3115C73.2411 73.7326 73.2392 72.1518 73.2677 70.5729C73.281 69.9136 72.9865 69.602 72.3804 69.4424C71.7097 69.2676 71.0618 68.9997 70.3911 68.8268C69.8306 68.6824 69.5665 68.3366 69.4031 67.8065C69.1352 66.9325 68.9699 65.9654 68.474 65.2339C67.2029 63.3567 67.1782 61.6087 68.5652 59.8208C68.9262 59.3572 68.7495 58.9696 68.3505 58.5877C67.4157 57.6909 66.5265 56.7466 65.5936 55.8498C63.6404 53.9688 64.4061 53.9878 61.9494 55.3273C61.0317 55.827 60.2603 55.9752 59.3407 55.3501C58.7232 54.9302 58.0031 54.5274 57.283 54.4153C55.0182 54.0657 53.939 52.7053 53.6236 50.5583C53.5324 49.9351 53.1277 49.7831 52.5349 49.7983C51.146 49.8325 49.7552 49.7926 48.3644 49.8116C46.0502 49.8439 46.5442 49.4468 45.9058 51.6394C45.5125 52.9903 44.9254 53.8738 43.4586 54.0752C42.9114 54.1512 42.3262 54.3697 41.8797 54.6889C40.0671 55.9828 38.3267 55.9999 36.573 54.6015C36.1398 54.2557 35.7256 54.3507 35.3247 54.763C34.046 56.0759 32.7502 57.3698 31.4373 58.6485C31.0535 59.0228 31.0136 59.3629 31.2682 59.8189C31.6368 60.4801 31.9427 61.1774 32.3151 61.8367C32.5925 62.3269 32.5906 62.7506 32.3189 63.2541C31.8705 64.0863 31.3214 64.9223 31.1314 65.8248C30.6868 67.9376 29.6114 69.2486 27.3865 69.4842C26.7785 69.5488 26.5619 69.9668 26.5828 70.5634C26.6094 71.3519 26.5885 72.1423 26.5885 72.9327V72.9346ZM60.4598 76.2444C61.2179 76.2444 61.9779 76.2197 62.7341 76.252C63.3763 76.2786 63.6233 75.9765 63.7164 75.3761C63.933 73.9929 63.9501 72.623 63.7544 71.2303C62.3123 61.0026 50.4012 55.7643 41.9823 61.7512C37.3767 65.0268 35.3969 69.583 36.1151 75.2526C36.2101 76.005 36.5217 76.2805 37.2741 76.2577C38.7257 76.214 40.1811 76.2254 41.6327 76.2539C42.3338 76.2672 42.5219 76.0487 42.3091 75.3533C41.9842 74.2893 41.8816 73.1987 42.083 72.0796C42.6264 69.0643 44.2927 66.9306 47.137 65.8305C49.9243 64.7532 52.5862 65.1959 54.8795 67.0883C57.4426 69.2049 58.3831 71.9694 57.5547 75.2279C57.3381 76.081 57.5547 76.309 58.3736 76.2539C59.0652 76.2064 59.7625 76.2444 60.4579 76.2425L60.4598 76.2444ZM49.8293 76.2444C50.7736 76.2444 51.7198 76.2235 52.6641 76.252C53.2018 76.2691 53.5419 76.0525 53.8231 75.6098C54.9859 73.7763 54.604 71.2341 52.9244 69.7692C51.2638 68.3214 48.6988 68.291 47.0078 69.6989C45.2902 71.1296 44.8494 73.6623 45.9723 75.5167C46.2801 76.0259 46.6696 76.2767 47.2814 76.2539C48.1307 76.2216 48.9819 76.2463 49.8331 76.2463L49.8293 76.2444Z" fill="white"/>
<path d="M24.8682 7.40387C25.6871 7.40387 26.506 7.41907 27.3249 7.39817C27.8816 7.38297 28.1495 7.61857 28.1362 8.17337C28.1362 8.23607 28.14 8.29877 28.14 8.36147C28.1324 11.1412 28.3756 10.6909 25.8809 10.7251C24.7466 10.7403 23.6142 10.7137 22.4799 10.7289C21.8909 10.7365 21.6173 10.5009 21.623 9.89097C21.6477 6.85667 21.319 7.46657 23.9239 7.40007C24.2393 7.39247 24.5528 7.40007 24.8682 7.40007V7.40387Z" fill="white"/>
<path d="M75.0133 7.40567C75.8322 7.40567 76.6511 7.41517 77.47 7.40187C77.9773 7.39427 78.2414 7.60327 78.2262 8.12387C78.2262 8.18657 78.2319 8.24927 78.2319 8.31197C78.2148 11.1449 78.5264 10.6889 75.9348 10.7269C74.8005 10.744 73.6681 10.7174 72.5338 10.7288C71.9866 10.7345 71.7054 10.5008 71.7206 9.94407C71.7206 9.91177 71.7187 9.88137 71.7187 9.84907C71.7187 6.85657 71.485 7.46647 73.9759 7.40187C74.3217 7.39237 74.6694 7.40187 75.0152 7.40187V7.40567H75.0133Z" fill="white"/>
<path d="M49.832 10.7275C49.0454 10.7275 48.2569 10.718 47.4703 10.7313C46.9174 10.7389 46.6666 10.49 46.6685 9.93525C46.6742 6.81734 46.3968 7.46905 48.9352 7.41015C50.0676 7.38355 51.2038 7.42535 52.3362 7.40065C52.9404 7.38735 53.1912 7.63625 53.1874 8.23475C53.1741 11.212 53.4648 10.68 50.8713 10.7332C50.5255 10.7408 50.1778 10.7332 49.832 10.7332V10.7275Z" fill="white"/>
</g>
<defs>
<clipPath id="clip0_632_3737">
<rect width="97.47" height="97.3468" fill="white" transform="translate(1 1)"/>
</clipPath>
</defs>
</svg>
