<svg width="100" height="100" viewBox="0 0 100 100" fill="none" xmlns="http://www.w3.org/2000/svg">
<g clip-path="url(#clip0_675_153)">
<path d="M1.18901 62.0191C1.64525 61.349 2.29459 61.1843 3.07456 61.1881C7.79791 61.207 12.5194 61.1975 17.2427 61.1975C18.3786 61.1975 18.9472 60.6441 18.9484 59.5373C18.9484 57.6176 18.9484 55.6961 18.9503 53.7765C18.9503 53.4622 18.9484 53.1442 18.9958 52.8356C19.1491 51.8568 19.7757 51.3192 20.6503 51.3874C21.4644 51.4498 22.0058 52.0556 22.021 53.0117C22.0456 54.5546 22.0285 56.0974 22.0304 57.6403C22.0304 58.585 22.0456 59.5297 22.0285 60.4744C22.0191 60.9969 22.233 61.2354 22.7574 61.2013C22.9448 61.1881 23.1341 61.2013 23.3234 61.2013C33.3987 61.2013 43.4739 61.2013 53.5491 61.2013C54.7985 61.2013 54.8004 61.1994 54.8023 59.9594C54.8023 50.4824 54.8023 41.0054 54.8023 31.5285C54.8023 30.2828 54.791 30.2714 53.5339 30.2695C51.1088 30.2657 48.6856 30.2998 46.2606 30.2525C45.3727 30.2355 45.0433 30.4948 45.0622 31.4243C45.1152 34.194 45.0887 36.9655 45.0774 39.7352C45.0717 41.4295 44.0702 42.2322 42.5709 41.4787C39.7728 40.074 37.1205 40.0816 34.3187 41.4655C32.7436 42.2436 31.7725 41.4768 31.7592 39.7011C31.7403 36.9314 31.7232 34.1599 31.7706 31.3903C31.7857 30.51 31.4828 30.2392 30.629 30.2544C28.1736 30.296 25.7163 30.3036 23.2629 30.2506C22.3333 30.2298 22.002 30.4891 22.0115 31.4679C22.0569 36.4108 22.0323 41.3538 22.0323 46.2967C22.0323 46.611 22.0513 46.929 22.0153 47.2395C21.9187 48.0611 21.4701 48.5855 20.6276 48.6461C19.7852 48.7067 19.2532 48.2599 19.0563 47.4534C18.9749 47.1221 18.9541 46.7681 18.9541 46.4255C18.9484 40.7574 18.9446 35.0913 18.9541 29.4233C18.956 27.6778 19.4615 27.1951 21.2126 27.1932C25.0538 27.1913 28.8968 27.1383 32.7361 27.2235C33.9382 27.25 34.0253 26.347 34.4967 25.709C34.9434 25.1013 34.4891 24.7208 34.1824 24.3024C32.9897 22.6781 31.7819 21.0651 30.5987 19.4352C29.1107 17.3887 29.2451 15.6508 31.0114 13.8751C31.9656 12.9152 32.9159 11.9516 33.8871 11.007C35.358 9.57577 37.1925 9.41296 38.8622 10.6075C40.6285 11.8721 42.374 13.1651 44.0986 14.4865C44.6514 14.9106 45.1039 14.9541 45.7172 14.6039C47.5838 13.54 49.566 12.7316 51.637 12.158C52.2088 12.0009 52.4605 11.7036 52.54 11.1225C52.8373 8.97375 53.1686 6.82884 53.4942 4.68393C53.8122 2.58256 55.2567 1.31795 57.3637 1.3047C58.8442 1.29523 60.3227 1.29334 61.8031 1.3047C63.7057 1.32174 65.1445 2.44815 65.4852 4.31477C65.8847 6.5108 66.1971 8.72197 66.5056 10.9331C66.6041 11.6393 66.8729 12.0198 67.6112 12.2148C69.6558 12.7581 71.6 13.5854 73.4364 14.638C73.9873 14.9541 74.3867 14.9144 74.8827 14.5377C76.5373 13.2806 78.2184 12.0595 79.8957 10.8347C81.9346 9.3467 83.6858 9.47543 85.4596 11.2398C86.4194 12.194 87.3868 13.1424 88.3258 14.1174C89.7324 15.5808 89.8857 17.4474 88.7044 19.1039C87.4436 20.8721 86.1487 22.6175 84.8311 24.344C84.4127 24.8912 84.3465 25.3247 84.7081 25.9494C85.7209 27.6987 86.5311 29.5539 87.0252 31.5114C87.2638 32.4542 87.7673 32.7514 88.6401 32.8669C90.6979 33.1376 92.75 33.4462 94.7946 33.7983C96.8392 34.1504 97.9864 35.5419 97.9997 37.6016C98.0092 39.082 98.0129 40.5606 97.9997 42.041C97.9808 44.0079 96.737 45.4903 94.8211 45.7969C92.68 46.1396 90.5351 46.4728 88.3845 46.7549C87.6519 46.8514 87.2808 47.1638 87.0877 47.8756C86.5311 49.9183 85.7266 51.8663 84.6607 53.6989C84.3427 54.246 84.4033 54.6625 84.7762 55.1528C86.0503 56.8339 87.3035 58.5301 88.536 60.2434C89.969 62.2369 89.8119 63.9785 88.074 65.7391C87.1672 66.6573 86.2642 67.5812 85.3328 68.4747C83.6574 70.0763 81.8381 70.1766 79.9677 68.8003C78.9283 68.0355 77.8966 67.2574 76.8459 66.5096C76.5828 66.3222 76.3329 65.8811 75.9807 66.0913C75.6684 66.2787 75.8331 66.7311 75.8312 67.0643C75.8236 73.2662 75.8255 79.47 75.8255 85.6719C75.8255 89.0719 75.8255 92.472 75.8255 95.872C75.8255 96.7467 75.7252 97.5815 74.8884 98.1059H17.627C16.6634 97.3562 16.4533 96.5327 17.0326 95.7831C17.4472 95.2435 18.0321 95.2038 18.6493 95.2038C24.3779 95.2094 30.1084 95.1962 35.837 95.2208C36.5999 95.2246 36.8858 95.0088 36.8839 94.2118C36.8631 84.5152 36.8631 74.8205 36.8839 65.1239C36.8839 64.3666 36.6075 64.1527 35.8843 64.1603C33.304 64.1925 30.7218 64.1981 28.1414 64.1565C27.3444 64.1432 27.1192 64.4234 27.1286 65.1939C27.1646 68.1207 27.1532 71.0494 27.1381 73.9761C27.1305 75.396 26.237 76.0245 24.8815 75.5891C24.3419 75.4149 23.791 75.2559 23.2875 75.0041C21.4985 74.1068 19.7284 73.9307 17.9167 74.9473C17.4831 75.1915 16.9796 75.3127 16.5044 75.4793C14.7268 76.0983 13.8351 75.4755 13.8275 73.5937C13.8181 70.7597 13.8086 67.9276 13.8332 65.0936C13.8389 64.4007 13.5984 64.1527 12.8999 64.1603C10.2874 64.1887 7.67486 64.1925 5.06234 64.1584C4.32592 64.1489 4.07981 64.3818 4.0817 65.1296C4.10253 74.8261 4.10253 84.5208 4.07981 94.2174C4.07792 95.0258 4.36378 95.2322 5.12292 95.2208C7.51394 95.1829 9.90685 95.217 12.2998 95.2019C12.9851 95.1981 13.5417 95.3798 13.8748 96.0178C14.3349 96.8981 13.8446 97.5134 13.2842 98.1059C9.54337 98.1059 5.80445 98.0718 2.06363 98.1324C1.2458 98.1457 1.17197 97.9034 1.17386 97.1878C1.19847 85.4655 1.19279 73.7414 1.19279 62.0191H1.18901ZM47.4343 27.1913C50.3914 27.1913 53.1212 27.1875 55.8492 27.1913C57.3032 27.1951 57.8294 27.6475 57.873 29.0636C57.8938 29.7243 58.0756 29.9856 58.7476 29.8663C59.0543 29.8114 59.3761 29.8436 59.6904 29.8455C64.6542 29.8852 68.9591 33.8362 69.4248 38.7848C69.4608 39.1596 69.4779 39.544 69.4324 39.9169C69.3378 40.6988 68.8777 41.191 68.0902 41.2667C67.3008 41.3424 66.7574 40.9543 66.5246 40.1914C66.4337 39.8923 66.3958 39.5742 66.3637 39.2619C65.968 35.2693 62.8765 32.6776 58.8669 32.9369C58.1418 32.9843 57.8806 33.255 57.8843 33.9725C57.9052 37.8458 57.9071 41.7192 57.8843 45.5925C57.8787 46.3744 58.2024 46.6356 58.9464 46.6716C61.2295 46.7795 63.1321 46.0317 64.692 44.3487C65.472 43.5063 66.3315 43.4249 67.0187 44.0269C67.7381 44.6573 67.7305 45.5546 66.9202 46.4368C64.7677 48.7805 62.0719 49.8975 58.9047 49.7119C58.068 49.6627 57.873 49.8445 57.8806 50.632C57.9127 53.7803 57.9184 56.9304 57.8787 60.0787C57.8673 60.9325 58.1153 61.2202 59.0013 61.2127C63.8818 61.1729 68.7622 61.2032 73.6446 61.1843C74.4057 61.1805 75.0399 61.3622 75.6532 61.8279C77.5596 63.2743 79.4982 64.6771 81.4254 66.0969C82.5082 66.8939 82.5631 66.8902 83.5438 65.9152C84.2802 65.1826 84.9844 64.414 85.7568 63.7192C86.4705 63.0793 86.4535 62.5019 85.8931 61.7655C84.4051 59.8118 82.9891 57.8032 81.4935 55.8551C80.8215 54.9805 80.7893 54.2005 81.3761 53.271C82.8641 50.9084 83.9224 48.3565 84.5244 45.6247C84.7421 44.6384 85.3063 44.1272 86.3229 43.9871C88.784 43.6501 91.2355 43.2507 93.6928 42.8815C94.8079 42.7149 95.0161 42.4916 95.0237 41.3538C95.0313 40.252 95.0199 39.1502 95.0237 38.0465C95.0275 37.276 94.734 36.833 93.8954 36.7175C91.4665 36.3843 89.0452 35.983 86.6182 35.6252C85.1151 35.4037 84.8368 35.1765 84.4733 33.6866C83.841 31.0968 82.8263 28.6679 81.4443 26.3905C80.6776 25.1259 80.6965 24.8173 81.6033 23.5887C83.0421 21.6369 84.4676 19.6756 85.9367 17.7465C86.4838 17.029 86.4346 16.463 85.789 15.8572C84.9863 15.1018 84.2045 14.3237 83.4529 13.5191C82.8509 12.8717 82.2905 12.8054 81.5692 13.3544C79.589 14.8595 77.5577 16.2964 75.5832 17.809C74.7104 18.4772 73.9343 18.517 73.001 17.9245C70.6989 16.463 68.2 15.4426 65.5439 14.8046C64.1695 14.4752 63.8761 14.0909 63.6754 12.69C63.3214 10.2308 62.9144 7.77919 62.5717 5.32002C62.4676 4.57413 62.0833 4.27312 61.3847 4.26934C60.2508 4.26366 59.1168 4.25987 57.9847 4.26555C56.8034 4.27312 56.5989 4.4719 56.4191 5.66646C56.0594 8.06127 55.6467 10.4485 55.34 12.849C55.1942 13.9962 54.6282 14.5736 53.5339 14.8178C50.9006 15.4066 48.4452 16.444 46.1413 17.8525C44.8729 18.6287 44.5776 18.6079 43.3432 17.6992C41.3914 16.2623 39.4283 14.8368 37.503 13.3639C36.7817 12.8111 36.2383 12.8509 35.6306 13.5116C34.862 14.3446 34.0631 15.1529 33.2264 15.914C32.5884 16.4951 32.5449 16.9987 33.073 17.6897C34.4702 19.5147 35.7726 21.4135 37.1963 23.2157C38.0709 24.3232 38.4949 25.3588 37.4973 26.595C37.1565 27.019 37.3401 27.1913 37.8418 27.1875C39.3847 27.1762 40.9276 27.1837 42.4705 27.1837C43.5174 27.1837 44.5643 27.1837 45.6869 27.1837C44.8918 25.8661 44.9562 25.3701 45.9766 24.4273C46.323 24.1074 46.6808 23.7931 47.0651 23.5243C47.8735 22.9583 48.7159 23.051 49.2517 23.7288C49.7931 24.4122 49.6795 25.2338 48.9336 25.9021C48.4982 26.2921 48.0458 26.6631 47.4324 27.1856L47.4343 27.1913ZM56.3396 95.2075C61.4396 95.2075 66.5397 95.1943 71.6417 95.2227C72.4198 95.2265 72.7586 95.075 72.7567 94.1928C72.7283 84.5265 72.7321 74.8621 72.753 65.1958C72.753 64.4291 72.539 64.1451 71.7401 64.1584C69.2848 64.2 66.8294 64.1735 64.374 64.1735C63.4703 64.1735 63.0179 64.6178 63.0166 65.5063C63.0147 68.3081 63.0336 71.1099 63.0053 73.9118C62.9901 75.3752 62.0511 76.0226 60.6672 75.5872C60.4571 75.5209 60.2432 75.4566 60.0501 75.3524C57.6496 74.0746 55.2434 73.8985 52.8183 75.2881C52.6309 75.396 52.4056 75.4376 52.1974 75.5077C50.5428 76.0699 49.7004 75.4868 49.6947 73.7546C49.6852 70.9528 49.6625 68.1491 49.7098 65.3492C49.725 64.4707 49.5092 64.1281 48.5626 64.1508C46.0769 64.2114 43.5875 64.2114 41.1018 64.1508C40.1571 64.1281 39.9508 64.4745 39.9527 65.3511C39.9792 74.9227 39.9811 84.4943 39.9508 94.0641C39.947 94.9879 40.2404 95.2303 41.1359 95.2246C46.2038 95.1867 51.2735 95.2057 56.3433 95.2057L56.3396 95.2075ZM24.1678 68.1283C24.1678 67.0889 24.1469 66.0496 24.1753 65.0122C24.1924 64.4158 23.9917 64.1565 23.3632 64.166C21.506 64.1906 19.6489 64.1925 17.7917 64.166C17.1405 64.1565 16.8982 64.3875 16.9057 65.0444C16.9322 67.0908 16.9341 69.1373 16.9057 71.1819C16.8944 71.9618 17.2446 72.0754 17.8239 71.7593C19.6224 70.7749 21.4057 70.7786 23.2004 71.7517C23.2818 71.7953 23.3821 71.8028 23.4692 71.8388C23.9728 72.0489 24.1697 71.852 24.1659 71.339C24.1583 70.2694 24.164 69.1979 24.1659 68.1283H24.1678ZM52.7691 68.0469C52.7691 68.9896 52.7653 69.9343 52.7691 70.8771C52.7767 72.0186 52.86 72.1455 53.8633 71.6457C55.5861 70.7881 57.2255 70.826 58.8953 71.6968C58.9786 71.7403 59.0751 71.7574 59.1603 71.7953C59.6904 72.0376 59.9176 71.8634 59.9138 71.2879C59.9062 69.1487 59.9043 67.0094 59.9138 64.8721C59.9157 64.3325 59.6468 64.1678 59.149 64.1697C57.2937 64.1811 55.4365 64.1887 53.5813 64.166C52.9528 64.1584 52.7521 64.4442 52.7634 65.0254C52.7824 66.0307 52.7691 67.0378 52.7672 68.045L52.7691 68.0469ZM41.9859 34.194C41.9859 34.194 41.9878 34.194 41.9897 34.194C41.9897 33.1868 41.9726 32.1778 41.9953 31.1707C42.0105 30.5327 41.7511 30.2563 41.1037 30.262C39.309 30.279 37.5143 30.2809 35.7196 30.262C35.0627 30.2544 34.8355 30.544 34.8412 31.1763C34.862 33.1603 34.862 35.1443 34.8412 37.1283C34.8336 37.8212 35.0722 38.1165 35.7253 37.7606C37.5238 36.7819 39.3071 36.7648 41.1037 37.7474C41.1586 37.7777 41.2248 37.7833 41.2816 37.808C41.7909 38.0313 41.984 37.808 41.984 37.312C41.984 36.2726 41.984 35.2333 41.984 34.194H41.9859Z" fill="#727272"/>
<path d="M32.9236 54.5985C34.6198 54.5985 36.316 54.589 38.0123 54.6023C39.1955 54.6118 39.9243 55.1873 39.9376 56.0884C39.9527 57.0255 39.2012 57.6805 37.9934 57.6862C34.5706 57.7051 31.1459 57.7032 27.7232 57.6862C26.5172 57.6805 25.7751 57.0217 25.8035 56.0733C25.8319 55.1683 26.5551 54.6061 27.7402 54.5985C29.4667 54.589 31.1951 54.5966 32.9236 54.5966V54.5985Z" fill="#727272"/>
<path d="M30.1497 48.9227C31.03 48.9227 31.9122 48.8999 32.7925 48.9283C33.7202 48.9586 34.3373 49.5322 34.3866 50.3425C34.4358 51.1452 33.8906 51.8475 32.9648 51.9214C31.0528 52.0747 29.1312 52.0804 27.2192 51.9195C26.2972 51.8419 25.7539 51.1338 25.8107 50.3311C25.8675 49.519 26.4828 48.9776 27.4142 48.9208C27.4766 48.917 27.5391 48.917 27.6035 48.917C28.4535 48.917 29.3016 48.917 30.1516 48.917C30.1516 48.917 30.1516 48.9189 30.1516 48.9208L30.1497 48.9227Z" fill="#727272"/>
<path d="M14.9914 91.7035C13.4182 91.7035 11.845 91.7072 10.2719 91.6997C9.9273 91.6997 9.57518 91.694 9.2401 91.6277C8.36358 91.4555 7.89787 90.8724 7.93573 90.047C7.9717 89.2556 8.53964 88.6366 9.41237 88.6309C13.0945 88.6025 16.7747 88.6025 20.4569 88.629C21.3713 88.6366 21.9808 89.2765 22.0149 90.0886C22.0509 90.95 21.411 91.5728 20.3736 91.6864C20.3111 91.694 20.2486 91.6978 20.1843 91.6978C18.4539 91.6978 16.7236 91.6978 14.9914 91.6978C14.9914 91.6997 14.9914 91.7016 14.9914 91.7035Z" fill="#727272"/>
<path d="M12.2414 82.9375C13.1218 82.9375 14.0021 82.9166 14.8805 82.9431C15.8043 82.9715 16.4404 83.547 16.4934 84.3403C16.5464 85.1183 15.969 85.8245 15.0622 85.9097C13.152 86.0876 11.2343 86.0857 9.32414 85.9154C8.37001 85.8302 7.88915 85.1979 7.93459 84.3365C7.97813 83.4865 8.53849 82.9696 9.50967 82.9431C10.4203 82.9185 11.3309 82.9375 12.2433 82.9394L12.2414 82.9375Z" fill="#727272"/>
<path d="M79.9994 39.8851C79.9994 40.1994 80.0316 40.5174 79.9937 40.8279C79.8839 41.7309 79.2497 42.35 78.4697 42.35C77.6879 42.35 77.0291 41.7271 76.9533 40.826C76.9022 40.2013 76.9041 39.5652 76.9647 38.9404C77.0537 38.0204 77.6917 37.424 78.4849 37.4297C79.316 37.4335 79.9369 38.0791 80.0126 39.037C80.0354 39.3191 80.0164 39.603 80.0164 39.887C80.0107 39.887 80.007 39.887 80.0013 39.887L79.9994 39.8851Z" fill="#727272"/>
<path d="M73.7523 50.6953C74.9999 50.6878 75.7363 51.9297 75.1665 52.9349C74.7462 53.6789 74.1366 54.2885 73.4437 54.7826C72.7622 55.2691 72.0504 55.1707 71.4844 54.5763C70.9429 54.0083 70.8596 53.2984 71.3821 52.6964C72.0845 51.8861 72.6619 50.8752 73.7542 50.6953H73.7523Z" fill="#727272"/>
<path d="M60.6374 22.3766C60.3307 22.3558 59.8252 22.4107 59.3368 22.2422C58.6344 22.0018 58.2104 21.5285 58.2312 20.7807C58.2539 19.9969 58.7083 19.4707 59.4731 19.3306C60.3799 19.1659 61.3019 19.2605 62.1708 19.5521C62.8372 19.7755 63.1628 20.3339 63.1041 21.0306C63.0435 21.7708 62.6062 22.246 61.8641 22.3671C61.5271 22.422 61.175 22.3766 60.6355 22.3766H60.6374Z" fill="#727272"/>
<path d="M79.0461 33.6148C78.9874 34.4118 78.6486 34.904 77.9935 35.1407C77.3669 35.3678 76.7535 35.2429 76.3901 34.6996C75.8486 33.8912 75.4643 32.9825 75.3583 32.0056C75.2864 31.3449 75.6669 30.8717 76.2689 30.6066C76.8917 30.3321 77.4843 30.476 77.897 30.9625C78.5634 31.7444 78.7773 32.7459 79.0461 33.6148Z" fill="#727272"/>
<path d="M60.6314 57.2213C60.7563 57.2213 60.8832 57.225 61.0081 57.2213C62.161 57.1796 62.835 57.6567 62.9107 58.5692C62.9864 59.4627 62.3579 60.0856 61.2429 60.201C60.7128 60.2559 60.177 60.3392 59.6489 60.3108C58.6701 60.2578 58.034 59.6331 58.0227 58.8096C58.0094 57.9369 58.6663 57.3178 59.6867 57.2553C59.9991 57.2364 60.3152 57.2516 60.6295 57.2516V57.2213H60.6314Z" fill="#727272"/>
<path d="M66.6746 58.9257C65.8681 58.8973 65.3873 58.5565 65.1374 57.8996C64.8932 57.256 65.0749 56.6767 65.5974 56.3037C66.3376 55.7737 67.1706 55.3723 68.0679 55.1887C68.757 55.0486 69.2909 55.3704 69.6165 55.9989C69.9327 56.6085 69.8285 57.203 69.3572 57.6441C68.5829 58.3691 67.5966 58.7004 66.6765 58.9257H66.6746Z" fill="#727272"/>
<path d="M78.9212 46.2838C78.7508 47.0543 78.4593 47.9195 77.9273 48.6635C77.4654 49.309 76.7612 49.4207 76.0777 49.0837C75.3905 48.7449 75.0706 48.122 75.3148 47.3572C75.5325 46.6738 75.807 46.0017 76.1213 45.3562C76.4715 44.6387 77.119 44.4058 77.863 44.5932C78.6391 44.7901 78.9591 45.3675 78.9212 46.2838Z" fill="#727272"/>
<path d="M72.7 24.625C73.0559 24.6383 73.4004 24.731 73.6503 24.9771C74.1861 25.5053 74.7389 26.0259 75.1932 26.6204C75.71 27.2943 75.5737 28.1311 74.9717 28.6517C74.3792 29.1647 73.5367 29.1553 72.9215 28.5665C72.4236 28.0913 71.956 27.5764 71.5243 27.0406C71.1381 26.5598 71.1287 25.9994 71.4051 25.4447C71.6701 24.9146 72.1396 24.6988 72.6981 24.625H72.7Z" fill="#727272"/>
<path d="M52.8411 23.539C51.9683 23.5353 51.4894 23.1604 51.2754 22.5092C51.0577 21.8466 51.2489 21.2275 51.8472 20.8641C52.6536 20.3756 53.5491 20.0652 54.5013 20.0178C55.2188 19.9819 55.6789 20.3889 55.9098 21.042C56.1521 21.7273 55.9098 22.3274 55.3419 22.6834C54.543 23.1831 53.621 23.4008 52.8392 23.5372L52.8411 23.539Z" fill="#727272"/>
<path d="M66.9355 20.7578C67.8215 20.9698 68.8191 21.3447 69.5991 22.1C70.0686 22.5544 70.0875 23.1697 69.7487 23.7508C69.3871 24.3699 68.8078 24.6028 68.1433 24.4532C67.2838 24.2601 66.4887 23.8569 65.7788 23.3457C65.262 22.9709 65.0764 22.3935 65.3225 21.7517C65.5743 21.0986 66.0476 20.7502 66.9336 20.7597L66.9355 20.7578Z" fill="#727272"/>
<path d="M50.8197 88.6058C52.5481 88.6058 54.2765 88.5944 56.005 88.6096C57.1162 88.619 57.8091 89.1908 57.8508 90.0824C57.8924 90.9684 57.1352 91.6783 56.0125 91.6859C52.5254 91.7086 49.0364 91.7086 45.5492 91.6859C44.4342 91.6783 43.6788 90.9741 43.6996 90.0824C43.7186 89.1832 44.4474 88.6153 45.6363 88.6077C47.3647 88.5963 49.0932 88.6039 50.8216 88.6058H50.8197Z" fill="#727272"/>
<path d="M47.9552 85.9173C47.0144 85.9173 46.0678 85.9797 45.1345 85.9002C44.2258 85.8226 43.6503 85.1165 43.7014 84.3384C43.7544 83.5433 44.3886 82.9545 45.3124 82.9413C47.1033 82.9148 48.8942 82.9167 50.6851 82.9394C51.6563 82.9526 52.2167 83.4808 52.2602 84.3308C52.3056 85.1922 51.8248 85.8188 50.8707 85.9059C49.9071 85.993 48.9283 85.9248 47.9552 85.9248C47.9552 85.923 47.9552 85.9192 47.9552 85.9173Z" fill="#727272"/>
</g>
<defs>
<clipPath id="clip0_675_153">
<rect width="97" height="97.1439" fill="white" transform="translate(1 1)"/>
</clipPath>
</defs>
</svg>
