<svg width="216" height="207" viewBox="0 0 216 207" fill="none" xmlns="http://www.w3.org/2000/svg">
<g clip-path="url(#clip0_5527_1148)">
<rect width="216" height="206.929" fill="#151517"/>
<path d="M71.6572 93.9736L68.272 97.3588C73.914 103.001 73.914 112.189 68.272 117.831C62.63 123.473 53.4415 123.473 47.7994 117.831C42.1574 112.189 42.1574 103.001 47.7994 97.3588L56.8267 88.3315L57.9551 87.0419V80.2715L44.253 93.9736C42.4526 95.7559 41.0234 97.8774 40.0479 100.215C39.0725 102.553 38.5703 105.062 38.5703 107.595C38.5703 110.128 39.0725 112.637 40.0479 114.975C41.0234 117.313 42.4526 119.434 44.253 121.217C46.0353 123.017 48.1568 124.446 50.4948 125.422C52.8329 126.397 55.3411 126.899 57.8745 126.899C60.4079 126.899 62.9161 126.397 65.2542 125.422C67.5923 124.446 69.7138 123.017 71.496 121.217C79.2337 113.64 79.2337 101.389 71.6572 93.9736Z" fill="white"/>
<path d="M64.8839 93.008C66.3084 93.008 67.4631 91.8533 67.4631 90.4288C67.4631 89.0044 66.3084 87.8496 64.8839 87.8496C63.4594 87.8496 62.3047 89.0044 62.3047 90.4288C62.3047 91.8533 63.4594 93.008 64.8839 93.008Z" fill="white"/>
<path d="M92.39 106.274H89.74V113.09H87.7617V93.7424H92.598C97.7285 93.7424 100.147 96.2335 100.147 99.8375C100.147 104.088 97.1415 106.213 92.3781 106.286L92.39 106.274ZM92.5225 95.5749H89.6764V104.443L92.4615 104.37C96.1265 104.298 98.1061 102.831 98.1061 99.8256C98.1061 97.1146 96.2007 95.5749 92.5357 95.5749H92.5225ZM109.101 113.016L107.928 116.094C106.609 119.539 105.278 120.565 103.311 120.565C102.211 120.565 101.405 120.273 100.526 119.905L101.111 118.147C101.771 118.514 102.502 118.732 103.311 118.732C104.411 118.732 105.216 118.147 106.242 115.42L107.196 112.929L101.7 98.9312H103.753L108.224 110.658L112.623 98.9312H114.601L109.101 113.016ZM121.192 95.6478V113.164H119.214V95.6478H112.398V93.7424H128.006V95.5749H121.19L121.192 95.6478ZM133.577 113.529C129.619 113.529 126.687 110.598 126.687 106.053C126.687 101.508 129.692 98.5045 133.709 98.5045C137.667 98.5045 140.525 101.435 140.525 105.98C140.525 110.525 137.52 113.529 133.562 113.529H133.577ZM133.65 100.279C130.644 100.279 128.668 102.697 128.668 105.995C128.668 109.44 130.721 111.785 133.724 111.785C136.726 111.785 138.706 109.367 138.706 106.069C138.706 102.624 136.652 100.279 133.65 100.279V100.279ZM145.45 113.163H143.545V98.9458L145.45 98.5787V101.584C146.404 99.7514 147.795 98.5787 149.628 98.5787C150.501 98.586 151.357 98.8129 152.119 99.2386L151.607 101.07C151.022 100.703 150.216 100.484 149.408 100.484C147.943 100.484 146.55 101.584 145.377 104.149V113.163H145.45ZM159.668 113.529C155.417 113.529 152.705 110.451 152.705 106.053C152.705 101.583 155.636 98.5045 159.668 98.5045C161.426 98.5045 162.893 98.9444 164.138 99.7501L163.625 101.508C162.526 100.776 161.207 100.336 159.668 100.336C156.59 100.336 154.686 102.608 154.686 105.98C154.686 109.425 156.739 111.696 159.742 111.696C161.146 111.69 162.519 111.283 163.7 110.524L164.067 112.282C162.821 113.088 161.281 113.528 159.668 113.528V113.529ZM176.01 113.163V104.002C176.01 101.511 174.985 100.424 173.005 100.424C171.393 100.424 169.78 101.23 168.606 102.478V113.251H166.701V92.2889L168.606 91.9219V100.863C170.072 99.3976 171.977 98.5907 173.517 98.5907C176.302 98.5907 177.987 100.349 177.987 103.427V113.174L176.01 113.163Z" fill="white"/>
</g>
<defs>
<clipPath id="clip0_5527_1148">
<rect width="216" height="206.929" fill="white"/>
</clipPath>
</defs>
</svg>
