<svg width="231" height="127" viewBox="0 0 231 127" fill="none" xmlns="http://www.w3.org/2000/svg">
<g clip-path="url(#clip0_518_1649)">
<g clip-path="url(#clip1_518_1649)">
<path d="M177.847 53.0805H174.863V34.0371H177.847V53.0805Z" fill="#EEEEEE"/>
<path d="M177.846 77.7375C177.764 77.8293 177.632 77.9109 177.611 78.0154C177.078 80.8204 173.934 81.5064 171.907 80.2161C171.843 80.1753 171.746 80.1829 171.494 80.1319V84.2833H169.52V72.3315C170.418 71.8699 170.892 72.436 171.282 72.9078C172.236 72.6502 173.1 72.2703 173.988 72.2065C175.768 72.0816 176.938 72.9741 177.522 74.6596C177.616 74.9299 177.736 75.1875 177.846 75.4527V77.7375ZM171.305 76.4548C171.356 76.4727 171.41 76.4905 171.461 76.5109C171.461 76.6792 171.458 76.8475 171.461 77.0158C171.481 78.148 172.05 78.8161 173.146 79.0023C174.238 79.1884 175.291 78.6376 175.482 77.5692C175.617 76.8195 175.594 75.9423 175.326 75.2385C174.768 73.7697 172.909 73.5172 171.93 74.7514C171.573 75.2002 171.504 75.8785 171.302 76.4548H171.305Z" fill="#EEEEEE"/>
<path d="M130.914 93.539C127.734 93.539 124.552 93.5518 121.372 93.5365C117.116 93.5161 113.755 90.247 113.727 86.0038C113.683 79.5727 113.681 73.139 113.727 66.7054C113.757 62.5795 117.182 59.239 121.323 59.2262C127.726 59.2058 134.132 59.2058 140.535 59.2262C144.482 59.239 147.754 62.2964 148.086 66.2209C148.111 66.5167 148.134 66.8125 148.134 67.1083C148.137 73.2869 148.131 79.4656 148.139 85.6442C148.142 87.5771 147.616 89.3162 146.349 90.8003C144.837 92.5675 142.947 93.5467 140.581 93.5416C137.358 93.5339 134.134 93.5416 130.911 93.5416L130.914 93.539ZM137.376 81.6662C137.286 81.9493 137.192 82.2196 137.118 82.4975C136.651 84.2876 136.136 86.0701 135.744 87.878C135.532 88.8572 135.744 89.8288 136.544 90.5479C137.105 91.0502 137.768 91.1165 138.436 90.7825C139.13 90.4357 139.008 89.8492 138.86 89.2423C138.75 88.7935 138.643 88.3217 138.676 87.8678C138.967 83.8949 139.974 80.1439 142.205 76.7779C143.047 75.5105 143.855 74.2177 144.6 72.8917C144.944 72.2771 145.214 71.5733 145.304 70.8823C145.357 70.4717 145.117 69.8546 144.793 69.6022C144.278 69.1993 143.638 69.416 143.2 69.8954C142.891 70.2346 142.644 70.6426 142.419 71.048C141.297 73.0855 140.206 75.1382 139.071 77.168C138.668 77.8897 138.26 78.67 137.233 78.6929C136.605 78.1523 136.585 77.4715 136.822 76.8212C137.495 74.9623 138.197 73.111 138.959 71.2877C139.242 70.6145 139.472 69.9337 138.957 69.4033C138.63 69.0692 137.993 68.8907 137.5 68.9009C136.738 68.9162 136.363 69.5053 136.154 70.2167C135.83 71.303 135.545 72.4148 135.083 73.445C134.168 75.485 132.801 77.2394 131.299 78.9275C131.176 78.6929 131.146 78.4991 131.182 78.3181C131.567 76.4591 131.947 74.5976 132.37 72.7463C132.541 72.0017 132.678 71.2903 131.86 70.867C131.08 70.4641 130.445 70.8364 129.96 71.4305C129.241 72.3179 128.56 73.2359 127.892 74.1641C127.193 75.1357 126.528 76.1302 125.85 77.1145C125.727 76.8314 125.737 76.6223 125.791 76.426C126.252 74.7124 126.727 73.0039 127.183 71.2903C127.336 70.714 127.52 70.0739 126.872 69.6889C126.204 69.2936 125.643 69.6557 125.184 70.1453C124.664 70.7012 124.154 71.2699 123.685 71.8666C122.858 72.9197 122.068 73.9984 121.262 75.0668C121.216 74.6359 121.321 74.2789 121.41 73.9193C121.629 73.0166 121.915 72.1241 122.042 71.2087C122.246 69.7424 121.42 69.0182 119.985 69.3854C118.633 69.7322 117.697 70.6324 117.08 71.8589C116.973 72.0757 116.889 72.3868 116.965 72.5933C117.1 72.958 117.299 73.4501 117.598 73.5649C117.868 73.6694 118.36 73.4119 118.653 73.1849C118.965 72.9452 119.153 72.5525 119.398 72.2261C119.485 72.2618 119.569 72.3001 119.656 72.3358C119.158 74.1131 118.671 75.8956 118.164 77.6704C117.886 78.6445 117.501 79.5956 117.31 80.585C117.228 81.0109 117.412 81.8294 117.656 81.9085C118.133 82.0615 118.84 81.9773 119.265 81.7019C119.77 81.3781 120.109 80.7737 120.464 80.251C121.458 78.7898 122.422 77.3083 123.399 75.8369C123.516 76.0792 123.481 76.2424 123.458 76.4056C123.348 77.2853 123.195 78.1625 123.147 79.0448C123.101 79.8914 123.101 80.7941 124.044 81.2353C124.758 81.5668 125.475 81.2072 126.275 80.1923C126.643 79.7282 126.989 79.2463 127.329 78.7618C127.92 77.9203 128.502 77.0711 129.085 76.2245C129.2 76.5407 129.175 76.7881 129.121 77.0278C128.93 77.8948 128.706 78.7541 128.537 79.6237C128.382 80.432 128.308 81.2837 129.085 81.8243C129.93 82.4108 130.776 82.0028 131.421 81.4597C132.255 80.7584 132.956 79.8965 133.704 79.0958C133.941 78.8408 134.145 78.5578 134.453 78.1804C134.583 80.891 135.012 81.3857 137.373 81.6688L137.376 81.6662Z" fill="#EEEEEE"/>
<path d="M65.3687 50.97C68.4185 54.1167 71.532 57.3323 74.768 60.6702C73.7505 60.6702 72.7662 60.7238 71.7921 60.6396C71.4759 60.6116 71.1648 60.252 70.8996 59.9945C68.3777 57.5516 65.8685 55.0985 63.5709 52.8596C61.8675 52.9539 60.4038 53.1222 58.9452 53.0942C56.1887 53.0432 54.0008 50.7839 53.9702 48.0171C53.937 44.9724 53.9319 41.9277 53.9702 38.8856C54.0033 36.1341 56.2014 33.9131 58.958 33.7805C59.5929 33.7499 60.2304 33.7524 60.8654 33.7754C63.8463 33.8723 66.0393 36.078 66.0725 39.059C66.1056 41.9762 66.1413 44.8959 66.047 47.8106C66.0113 48.8739 65.6058 49.9245 65.3687 50.9726V50.97ZM62.681 48.471C62.7651 48.0528 62.8365 47.8565 62.8365 47.6601C62.8442 44.8296 62.8493 41.9991 62.8314 39.1686C62.8314 38.7963 62.7396 38.4113 62.6172 38.0568C62.2245 36.9093 61.2351 36.2591 59.9831 36.282C58.754 36.305 57.762 37.0215 57.4484 38.1894C57.3183 38.6714 57.2622 39.189 57.2597 39.6888C57.2418 42.2235 57.2393 44.7582 57.2597 47.2929C57.2648 47.7927 57.3183 48.3129 57.4662 48.7898C57.9227 50.2713 59.3073 50.9088 60.9087 50.3733C60.6129 49.9704 60.3273 49.5854 60.0239 49.1723C60.5772 48.6087 61.077 48.0987 61.6049 47.5607C61.944 47.8463 62.222 48.0809 62.6835 48.4659L62.681 48.471Z" fill="#EEEEEE"/>
<path d="M120.82 50.146V53.1729H110.503C110.319 51.0921 110.184 49.098 111.732 47.3487C113.555 45.2908 115.263 43.1335 117.051 41.0425C117.691 40.2928 118.193 39.5176 117.77 38.5257C117.329 37.4929 116.424 37.2252 115.365 37.243C113.767 37.2711 112.165 37.2507 110.487 37.2507V34.3309C112.803 34.3309 115.113 34.0581 117.332 34.3947C120.746 34.9149 122.291 39.1887 120.256 42.1161C119.343 43.4319 118.227 44.6074 117.199 45.8416C116.414 46.7826 115.598 47.7031 114.835 48.6619C114.542 49.0317 114.353 49.4881 113.981 50.146H120.82V50.146Z" fill="#EEEEEE"/>
<path d="M72.4432 38.5891C72.4432 41.6899 72.4432 44.7295 72.4432 47.7691C72.4432 48.2765 72.4279 48.7891 72.5019 49.2889C72.5962 49.9238 72.9456 50.4517 73.6392 50.4542C74.3175 50.4568 74.7076 49.9774 74.8071 49.3246C74.8759 48.8681 74.8861 48.3964 74.8861 47.9323C74.8938 45.2675 74.8887 42.6002 74.8887 39.9355C74.8887 39.5198 74.8887 39.1042 74.8887 38.584H78.2011V52.9634H75.034C74.955 52.6141 74.8555 52.1908 74.7076 51.5431C74.3965 51.9281 74.2155 52.2112 73.9783 52.433C72.3463 53.9681 69.8371 53.2643 69.2506 51.0994C69.1308 50.6531 69.0492 50.1839 69.0466 49.7249C69.0313 46.2136 69.039 42.7022 69.0441 39.1909C69.0441 39.0277 69.0925 38.8619 69.1359 38.5916H72.4407L72.4432 38.5891Z" fill="#EEEEEE"/>
<path d="M172.948 46.3122H166.366C166.366 47.503 166.261 48.5944 166.399 49.6552C166.514 50.5452 167.317 50.7951 168.133 50.8078C169.276 50.8257 170.42 50.8129 171.563 50.8129C171.976 50.8129 172.392 50.8129 172.881 50.8129V53.3578C170.79 53.2609 168.715 53.3298 166.69 53.034C164.221 52.6719 163.135 51.1954 163.133 48.7423C163.133 46.5876 163.153 44.4328 163.125 42.2781C163.105 40.6639 163.816 39.519 165.239 38.8228C167.437 37.7493 169.569 37.8768 171.586 39.2997C172.394 39.8683 172.879 40.6843 172.925 41.6457C172.996 43.1578 172.942 44.6751 172.942 46.3122H172.948ZM169.76 43.7137C169.589 42.6963 170.206 41.6253 169.1 40.8985C168.401 40.4395 167.638 40.437 166.96 40.9189C165.915 41.6635 166.427 42.7116 166.427 43.7137H169.757H169.76Z" fill="#EEEEEE"/>
<path d="M90.0013 46.3398H83.4299C83.4299 47.5179 83.3764 48.5609 83.4478 49.5936C83.5013 50.3357 84.149 50.7717 85.1333 50.8074C86.2324 50.8457 87.334 50.8176 88.4356 50.8202C88.8971 50.8202 89.3561 50.8202 89.9069 50.8202V53.2784C87.6986 53.2095 85.4521 53.5946 83.2744 52.9647C81.5327 52.4598 80.0971 51.2817 80.2093 48.8771C80.3087 46.7274 80.2271 44.5676 80.2322 42.4128C80.2373 40.4391 81.0431 39.2279 82.8893 38.5572C84.8783 37.833 86.8036 37.9809 88.5631 39.2253C89.5168 39.8985 90.0191 40.8344 90.0013 42.0354C89.9809 43.4226 89.9962 44.8098 89.9962 46.3398H90.0013ZM86.7832 43.7286C86.6633 42.6219 87.2651 41.505 86.0641 40.8395C85.3297 40.4315 84.5519 40.4442 83.9246 41.0001C83.0525 41.7702 83.4299 42.7545 83.5345 43.7312H86.7832V43.7286Z" fill="#EEEEEE"/>
<path d="M149.759 53.1362H146.944C146.88 52.8022 146.821 52.4834 146.778 52.2641C145.962 52.6237 145.197 53.1592 144.368 53.2867C141.617 53.7151 139.464 51.1166 140.048 48.1969C140.286 47.0035 140.928 46.0931 142.004 45.5321C142.866 45.0833 143.761 44.7008 144.641 44.2852C145.023 44.1041 145.411 43.9358 145.778 43.7242C146.413 43.3621 146.842 42.824 146.683 42.0667C146.515 41.2507 145.88 40.9039 145.09 40.8707C144.286 40.8376 143.478 40.8631 142.675 40.8554C142.341 40.8529 142.007 40.8274 141.576 40.807V38.1754C143.455 38.1448 145.35 37.9484 147.211 38.4431C148.879 38.8868 149.817 40.1618 149.823 41.9009C149.835 45.3281 149.828 48.7528 149.823 52.18C149.823 52.4707 149.782 52.7588 149.754 53.1311L149.759 53.1362ZM146.76 46.0447C146.655 45.9682 146.548 45.8917 146.444 45.8152C145.587 46.3175 144.684 46.7561 143.886 47.3401C143.182 47.8552 143.029 48.6763 143.193 49.5178C143.351 50.3261 144.049 50.7851 145.008 50.7545C146.013 50.7214 146.694 50.2675 146.742 49.4438C146.808 48.3142 146.76 47.1769 146.76 46.0447Z" fill="#EEEEEE"/>
<path d="M158.76 53.0207H154.598C153.519 48.2343 152.448 43.476 151.344 38.5851H154.891C155.422 42.2724 155.962 46.0107 156.503 49.7516C156.595 49.7643 156.686 49.7796 156.778 49.7924C157.383 46.0643 157.99 42.3336 158.604 38.5469H161.917C160.851 43.4352 159.805 48.2216 158.76 53.0207V53.0207Z" fill="#EEEEEE"/>
<path d="M91.8933 50.8268C93.487 50.8268 94.9635 50.8574 96.4374 50.809C96.9193 50.7937 97.4701 50.6815 97.8552 50.4188C98.508 49.9726 98.4213 49.1081 97.6665 48.4834C96.2283 47.2976 94.7569 46.1527 93.2856 45.0128C92.4441 44.36 91.8958 43.5491 91.7275 42.4909C91.4011 40.433 92.8317 38.365 94.9253 38.2145C97.0647 38.0615 99.2246 38.1814 101.451 38.1814V40.5988C100.237 40.5988 99.0257 40.5988 97.8118 40.5988C97.4727 40.5988 97.1335 40.6141 96.7944 40.5962C96.0753 40.5605 95.4021 40.6319 95.1343 41.4326C94.864 42.2359 95.4123 42.6898 95.958 43.1182C97.3554 44.2172 98.7707 45.2984 100.155 46.4153C101.759 47.7082 102.144 49.7431 101.114 51.4108C100.581 52.2727 99.8289 52.9943 98.8063 53.0351C96.5343 53.1269 94.2546 53.0632 91.8958 53.0632V50.8345L91.8933 50.8268Z" fill="#EEEEEE"/>
<path d="M133.705 36.8021H129.551V53.0124H126.468V36.8174H122.235V34.2266H133.705V36.8021Z" fill="#EEEEEE"/>
<path d="M107.344 50.7949C107.767 50.9607 108.114 51.0958 108.514 51.2514V52.8834C108.422 52.9675 108.392 53.0185 108.359 53.0211C104.796 53.2914 104.087 53.0568 104.141 49.3287C104.179 46.6257 104.1 43.9201 104.07 41.2171C104.07 41.1406 104.016 41.0616 103.955 40.8958C103.554 40.8448 103.111 40.7862 102.585 40.7173V38.4963C103.014 38.4147 103.452 38.3305 104.034 38.2183V34.3984H107.181V38.1801C107.77 38.2846 108.213 38.3637 108.744 38.4606V40.7071C108.282 40.7734 107.838 40.8372 107.344 40.9086V50.7975V50.7949Z" fill="#EEEEEE"/>
<path d="M82.3678 80.754H80.2335C80.2335 80.142 80.2335 79.5733 80.2335 79.0047C80.2335 77.949 80.2513 76.8907 80.2258 75.835C80.1952 74.5473 79.7541 73.9837 78.8208 73.9659C77.709 73.9429 76.9822 74.6799 76.9695 75.8733C76.9567 77.0565 76.9695 78.2397 76.9644 79.4229C76.9618 79.836 76.9287 80.2491 76.9057 80.7336H74.8326C74.8326 79.7544 74.8326 78.8364 74.8326 77.9184C74.8326 77.1585 74.8606 76.396 74.8122 75.6387C74.7433 74.5167 74.2104 73.9557 73.3102 73.9684C72.2851 73.9837 71.4717 74.7589 71.4564 75.7968C71.4334 77.3956 71.4513 78.9945 71.4513 80.7004H69.5337V72.2446C69.8881 72.2242 70.2502 72.2038 70.5792 72.186C70.8597 72.543 71.0917 72.8388 71.2524 73.0479C72.2724 72.7419 73.2057 72.3925 74.1721 72.1936C75.261 71.9692 75.9903 72.6628 76.4467 73.2417C77.5993 72.8541 78.5862 72.3568 79.6215 72.214C80.9118 72.0381 81.84 72.7674 82.0873 74.0551C82.3015 75.1644 82.3143 76.3144 82.3602 77.4492C82.401 78.4972 82.3678 79.5504 82.3678 80.754V80.754Z" fill="#EEEEEE"/>
<path d="M139.615 41.8072C137.466 42.3444 136.391 43.7078 136.391 45.8974C136.391 47.8405 136.396 49.7836 136.389 51.7293C136.389 52.1398 136.343 52.5504 136.315 53.0374H133.438V38.5891H136.289C136.353 39.1323 136.417 39.6499 136.501 40.3639C137.411 39.3388 138.227 38.4846 139.615 38.4922V41.8098V41.8072Z" fill="#EEEEEE"/>
<path d="M93.7285 68.8906H95.7634V75.8394C95.868 75.8827 95.9751 75.9261 96.0796 75.9694C97.0818 74.6536 98.0839 73.3353 99.0886 72.0195H101.583C100.379 73.5469 99.3054 74.9086 98.1808 76.3366C99.4227 77.7519 100.639 79.1416 102.001 80.6946H99.3946C98.3644 79.4629 97.2373 78.1165 96.1128 76.7701C96.0184 76.7931 95.9215 76.8186 95.8272 76.8415V80.7073H93.7311V68.8906H93.7285Z" fill="#EEEEEE"/>
<path d="M110.112 80.0188C108.184 80.97 106.266 81.1587 104.346 80.2764C102.599 79.4731 101.85 77.4586 102.344 75.2605C102.76 73.4118 104.249 72.2056 106.172 72.1623C109.211 72.0909 110.752 73.8223 110.247 76.9333H104.489C104.854 79.0779 106.174 79.4094 109.739 78.3613C109.857 78.8866 109.971 79.4043 110.109 80.0188H110.112ZM108.125 75.4033C107.911 74.3655 107.342 73.8937 106.419 73.9192C105.471 73.9447 104.828 74.4828 104.657 75.4033H108.125Z" fill="#EEEEEE"/>
<path d="M89.4279 75.4569C89.1857 73.7866 88.6808 73.6872 84.8507 74.3706C84.7665 73.8912 84.6824 73.4118 84.5753 72.7947C86.3577 72.0348 88.1427 71.8053 89.9456 72.5779C91.0344 73.0446 91.4425 74.0799 91.4858 75.1687C91.5598 76.9767 91.5062 78.7872 91.5062 80.6028C90.5984 81.0057 89.9201 80.8221 89.6065 80.2713C88.4156 80.4549 87.3981 80.7379 86.3781 80.7354C85.1108 80.7328 84.2387 79.7562 84.0704 78.4582C83.9148 77.247 84.5217 76.153 85.6973 75.7629C86.3246 75.5538 87.0182 75.5257 87.6888 75.4696C88.2269 75.4237 88.77 75.4594 89.4279 75.4594V75.4569ZM89.405 76.9257C88.5329 76.9257 87.7246 76.816 86.9723 76.9741C86.6076 77.0506 86.2047 77.5861 86.0925 77.9916C86.0237 78.244 86.3858 78.7897 86.6892 78.9427C87.875 79.5445 89.433 78.4353 89.405 76.9282V76.9257Z" fill="#EEEEEE"/>
<path d="M156.372 78.8046V80.6942C155.392 80.6942 154.464 80.8115 153.579 80.6636C152.554 80.4927 151.975 79.5926 151.947 78.389C151.914 76.9992 151.94 75.6095 151.94 74.1534C151.504 74.0336 151.113 73.929 150.537 73.7735C151.223 72.1415 152.503 71.073 153.584 69.8516C153.671 69.8847 153.76 69.9204 153.847 69.9536C153.916 70.637 153.982 71.3204 154.059 72.1032C154.844 72.1491 155.581 72.1899 156.377 72.2358V73.8602C155.607 73.9239 154.872 73.9877 153.992 74.0616C153.992 75.2601 153.921 76.3898 154.01 77.5041C154.11 78.723 154.538 78.9959 155.772 78.8607C155.938 78.8429 156.104 78.8276 156.366 78.8021L156.372 78.8046Z" fill="#EEEEEE"/>
<path d="M53.9841 71.2486H55.022C55.0424 71.2716 55.0959 71.2996 55.0959 71.3328C55.1673 72.4471 55.2336 73.5589 55.2999 74.6605C55.3917 74.6733 55.4427 74.6988 55.4733 74.6835C57.3654 73.7476 58.6736 73.9669 59.4156 75.3439C60.3056 76.9938 59.7879 79.6891 58.3727 80.5026C57.3705 81.0789 56.348 80.9998 55.4198 80.3547C54.971 80.5281 54.5375 80.6964 53.979 80.9106V71.2461L53.9841 71.2486ZM55.2285 77.4987C55.2285 77.7078 55.2285 77.9194 55.2285 78.1285C55.2387 79.3117 55.458 79.6458 56.3174 79.7886C57.3119 79.9543 58.0157 79.5234 58.2936 78.4804C58.4211 78.0036 58.4619 77.4834 58.4364 76.9887C58.3752 75.7519 57.7938 75.1348 56.807 75.1654C55.7309 75.2011 55.2362 75.8106 55.2285 77.1162C55.2285 77.2411 55.2285 77.3686 55.2285 77.4936V77.4987Z" fill="#EEEEEE"/>
<path d="M160.265 80.7204H158.312V72.2366C158.709 72.2162 159.099 72.1983 159.485 72.1779C159.727 72.716 159.928 73.1622 160.165 73.6926C161.165 72.818 162.029 71.775 163.659 72.3029C163.575 72.8409 163.48 73.4325 163.394 73.9884C160.938 74.3964 160.275 75.2022 160.265 77.6732C160.262 78.6371 160.265 79.6035 160.265 80.7179V80.7204Z" fill="#EEEEEE"/>
<path d="M166.978 80.7295H164.999V72.2559H166.978V80.7295Z" fill="#EEEEEE"/>
<path d="M64.9784 74.2402H66.256C65.8454 75.2322 65.4757 76.1527 65.0855 77.0656C64.3537 78.769 63.5836 80.4597 62.8798 82.1758C62.5891 82.8847 62.1862 83.1958 61.2631 82.8898C61.6303 82.0483 61.9898 81.2247 62.3774 80.3373C61.5206 78.3585 60.6511 76.3542 59.7407 74.2555H61.1585C61.7425 75.5866 62.3468 76.9636 63.0787 78.6364C63.7723 77.035 64.369 75.6529 64.981 74.2402H64.9784Z" fill="#EEEEEE"/>
<path d="M167.131 69.2778C167.008 70.1524 166.736 70.5783 166.062 70.6089C165.42 70.6395 165.004 70.3513 164.92 69.696C164.841 69.061 165.333 68.472 165.968 68.5944C166.414 68.6811 166.802 69.0738 167.131 69.2778Z" fill="#EEEEEE"/>
</g>
</g>
<defs>
<clipPath id="clip0_518_1649">
<rect width="231" height="127" fill="white"/>
</clipPath>
<clipPath id="clip1_518_1649">
<rect width="124.695" height="60.435" fill="white" transform="translate(53.1523 33.2812)"/>
</clipPath>
</defs>
</svg>
