<svg width="248" height="137" viewBox="0 0 248 137" fill="none" xmlns="http://www.w3.org/2000/svg">
<path d="M162.087 67.047H154.377C154.615 66.7504 154.869 66.8177 155.083 66.7963C156.346 66.674 156.988 66.0779 157.003 64.8428C157.037 62.3054 157.037 59.765 157.003 57.2276C156.985 55.9986 156.324 55.3872 155.077 55.2711C154.857 55.2497 154.594 55.3536 154.355 55.0296H162.166C161.903 55.3291 161.65 55.2527 161.433 55.2833C160.347 55.4361 159.822 55.9375 159.678 57.0197C159.528 58.1356 159.641 59.2636 159.608 60.3825C159.598 60.6882 159.699 60.8197 160.023 60.8197C161.952 60.8105 163.884 60.8105 165.813 60.8197C166.107 60.8197 166.186 60.6943 166.183 60.4253C166.168 59.3278 166.211 58.2273 166.147 57.1328C166.076 55.9589 165.471 55.4086 164.276 55.2772C164.08 55.2558 163.842 55.3414 163.652 55.0234H171.435C171.105 55.323 170.833 55.2527 170.592 55.2833C169.442 55.43 168.819 56.0537 168.806 57.2184C168.779 59.7558 168.779 62.2963 168.806 64.8336C168.819 66.0259 169.451 66.6526 170.65 66.7932C170.87 66.8207 171.124 66.7474 171.417 67.047H163.618C163.863 66.7474 164.114 66.8177 164.331 66.7932C165.459 66.6618 166.073 66.0932 166.141 64.9559C166.208 63.8126 166.159 62.6631 166.18 61.5167C166.186 61.1865 166.049 61.107 165.746 61.107C163.842 61.1162 161.934 61.1162 160.029 61.107C159.718 61.107 159.592 61.211 159.598 61.5289C159.623 62.6509 159.574 63.7759 159.663 64.8917C159.763 66.1604 160.298 66.6343 161.564 66.7963C161.735 66.8177 161.962 66.726 162.081 67.047H162.087Z" fill="#EEEEEE"/>
<path d="M189.96 54.9641C190.791 54.9641 191.491 55.0528 192.161 54.9489C194.209 54.6248 195.658 55.3799 197 56.9604C198.957 59.2594 201.167 61.3443 203.264 63.5148C203.331 63.4781 203.405 63.4567 203.405 63.4323C203.408 61.5797 203.466 59.724 203.383 57.8745C203.319 56.4591 202.475 55.6306 201.084 55.3218C200.916 55.2851 200.675 55.3677 200.598 55.1078C201.155 54.9091 205.997 54.903 206.608 55.0987C206.608 55.2271 206.514 55.2546 206.422 55.2699C204.523 55.6306 203.851 56.4132 203.839 58.3453C203.823 60.9071 203.842 63.469 203.826 66.0339C203.826 66.4313 204.034 67.0335 203.701 67.1833C203.24 67.3912 203.013 66.7706 202.726 66.4772C199.687 63.3711 196.661 60.256 193.631 57.1408C193.466 56.9727 193.286 56.8167 193.105 56.6486C192.907 56.8718 192.989 57.1011 192.989 57.3028C192.989 59.5223 192.98 61.7448 193.014 63.9642C193.041 65.7832 193.738 66.5169 195.536 66.7217C195.658 66.737 195.78 66.737 195.899 66.7553C196.037 66.7767 196.217 66.7737 196.196 66.9846C196.178 67.1589 196.013 67.113 195.906 67.113C193.909 67.1161 191.913 67.113 189.877 67.113C189.941 66.6483 190.277 66.7401 190.498 66.6973C191.916 66.4344 192.558 65.8352 192.598 64.4106C192.662 61.9955 192.65 59.5804 192.61 57.1653C192.592 56.0922 191.953 55.5144 190.8 55.3035C190.565 55.2607 190.271 55.3738 189.956 54.9611L189.96 54.9641Z" fill="#EEEEEE"/>
<path d="M151.761 62.8829C151.785 63.32 151.587 63.6808 151.422 64.0415C150.107 66.8754 146.94 68.1135 143.65 67.0925C140.694 66.1723 138.704 63.5187 138.918 60.6389C139.105 58.1321 140.492 56.3437 142.684 55.2676C144.699 54.2771 146.735 54.3627 148.64 55.717C149.56 56.3743 149.847 56.3009 150.743 55.3532C150.887 55.2004 150.984 54.913 151.238 54.9864C151.544 55.075 151.434 55.3899 151.446 55.6131C151.526 57.1722 151.596 58.7313 151.654 60.2904C151.66 60.4586 151.791 60.7398 151.519 60.7765C151.269 60.8101 151.284 60.5228 151.232 60.3455C150.728 58.6152 149.844 57.1233 148.401 56.0136C147.377 55.2248 146.215 54.8305 144.907 55.0292C143.718 55.2096 142.96 55.9555 142.614 57.0469C141.825 59.5445 141.752 62.1002 142.47 64.6162C143.06 66.6798 145.246 67.5816 147.631 66.8815C149.389 66.3649 150.569 65.2154 151.253 63.5279C151.348 63.2986 151.278 62.8981 151.761 62.8798V62.8829Z" fill="#EEEEEE"/>
<path d="M128.188 67.0303C128.353 66.746 128.567 66.8194 128.744 66.801C130.159 66.6635 130.722 66.0582 130.728 64.6152C130.737 62.2276 130.737 59.8401 130.728 57.4525C130.722 56.0217 130.147 55.4134 128.735 55.2728C128.56 55.2544 128.343 55.337 128.191 55.0312H135.959C135.693 55.3431 135.414 55.2544 135.176 55.2819C134.082 55.4103 133.421 55.9606 133.397 57.0581C133.336 59.7117 133.336 62.3683 133.397 65.0249C133.421 66.1163 134.088 66.6665 135.185 66.7949C135.414 66.8224 135.671 66.7307 135.959 67.0273H128.188V67.0303Z" fill="#EEEEEE"/>
<path d="M129.403 76.7802C129.697 76.7802 129.994 76.8138 130.281 76.7741C130.923 76.6854 131.085 76.9392 130.96 77.5475C130.684 78.8896 130.003 79.8984 128.667 80.3295C127.031 80.8553 125.472 80.6749 124.142 79.5255C122.791 78.3577 122.439 76.5693 123.17 75.004C123.928 73.3838 125.744 72.4391 127.597 72.699C128.535 72.8304 129.382 73.182 130.11 73.7873C130.281 73.931 130.642 74.041 130.305 74.3987C130.039 74.68 129.868 74.6402 129.587 74.411C128.358 73.4143 127.01 73.0597 125.509 73.7659C124.106 74.4262 123.393 75.7989 123.684 77.2388C123.971 78.6573 125.365 79.7823 126.918 79.8526C128.404 79.9168 129.624 79.1831 130.024 78.0214C130.152 77.6423 130.122 77.4864 129.679 77.5047C129.168 77.5292 128.655 77.5047 128.141 77.5108C127.899 77.5108 127.719 77.4864 127.71 77.1715C127.701 76.8261 127.875 76.768 128.159 76.7771C128.575 76.7894 128.988 76.7802 129.403 76.7771V76.7802Z" fill="#EEEEEE"/>
<path d="M183.332 76.6164C183.329 74.9747 184.283 73.5685 185.799 72.9846C187.462 72.3426 189.498 72.7431 190.538 73.917C190.675 74.0729 190.898 74.2043 190.62 74.4428C190.382 74.6476 190.232 74.6813 189.96 74.4367C188.697 73.3056 187.187 73.0946 185.848 73.81C184.228 74.6782 183.632 76.7478 184.564 78.2703C185.576 79.9211 187.915 80.3797 189.504 79.2363C189.66 79.1232 189.822 79.0009 189.945 78.8511C190.165 78.5852 190.345 78.5882 190.608 78.8114C190.938 79.0926 190.648 79.2302 190.504 79.3861C189.44 80.5264 187.404 80.9269 185.814 80.3155C184.271 79.7224 183.338 78.3284 183.332 76.6164Z" fill="#EEEEEE"/>
<path d="M151.293 72.6797C151.804 72.6889 152.381 73.0037 152.861 73.5387C153.017 73.713 153.1 73.8505 152.855 74.0034C152.669 74.1226 152.51 74.3794 152.262 74.0584C152.036 73.765 151.749 73.5265 151.376 73.447C150.914 73.3492 150.486 73.4287 150.202 73.8353C149.921 74.2419 149.982 74.6637 150.248 75.0642C150.471 75.3974 150.801 75.6114 151.113 75.8438C151.623 76.2198 152.146 76.5805 152.574 77.0544C153.363 77.9287 153.436 78.9742 152.779 79.7721C152.064 80.6373 150.832 80.8513 149.872 80.2643C149.468 80.0167 149.181 79.656 148.921 79.2647C148.777 79.0476 148.75 78.8886 149.025 78.7419C149.245 78.6257 149.41 78.5585 149.56 78.8306C149.749 79.176 150 79.4756 150.349 79.6774C150.908 80.0014 151.657 79.873 152.079 79.3717C152.522 78.8458 152.485 78.3108 152.079 77.7759C151.718 77.302 151.244 76.9596 150.792 76.5897C150.434 76.2962 150.064 76.0119 149.743 75.6817C149.202 75.1223 149.068 74.4528 149.364 73.7252C149.618 73.1046 150.321 72.6858 151.293 72.6827V72.6797Z" fill="#EEEEEE"/>
<path d="M201.604 72.6828C202.053 72.6981 202.607 72.9671 203.059 73.4563C203.215 73.6275 203.46 73.7742 203.12 74.028C202.866 74.2205 202.683 74.2909 202.472 73.9882C202.377 73.8506 202.24 73.7284 202.096 73.6458C201.564 73.3309 201.026 73.282 200.555 73.7467C200.17 74.1258 200.219 74.7831 200.693 75.2538C201.017 75.5779 201.417 75.8286 201.772 76.1221C202.148 76.4339 202.545 76.7243 202.873 77.082C203.689 77.9685 203.719 79.0508 202.995 79.8487C202.218 80.7077 200.941 80.8453 200.011 80.1666C199.69 79.9342 199.443 79.6347 199.232 79.3014C199.119 79.1211 198.956 78.9438 199.271 78.7695C199.51 78.638 199.69 78.5433 199.861 78.8551C200.063 79.2219 200.332 79.5338 200.723 79.7203C201.289 79.9893 201.98 79.8456 202.38 79.3503C202.787 78.8459 202.769 78.3293 202.387 77.8126C201.87 77.1126 201.127 76.6662 200.476 76.119C199.916 75.6482 199.455 75.1193 199.498 74.3306C199.55 73.3615 200.354 72.6706 201.604 72.6798V72.6828Z" fill="#020202"/>
<path d="M94.2493 76.6027C94.2493 75.5328 94.2493 74.4628 94.2493 73.3928C94.2493 73.0993 94.2034 72.8028 94.6742 72.8211C95.1144 72.8364 95.0349 73.1268 95.038 73.3775C95.0411 75.2515 95.0625 77.1255 95.0288 78.9964C95.0197 79.5681 95.1786 79.7699 95.7595 79.721C96.3648 79.6721 96.9762 79.7149 97.5846 79.7087C97.8352 79.7087 98.0003 79.7546 98.0003 80.0634C98.0003 80.3507 97.8872 80.4486 97.6121 80.4455C96.6369 80.4394 95.6647 80.4272 94.6895 80.4516C94.237 80.4638 94.2523 80.1948 94.2523 79.8861C94.2554 78.7916 94.2523 77.6972 94.2523 76.6027H94.2493Z" fill="#080808"/>
<path d="M163.089 77.0011C163.089 76.0503 163.062 75.0995 163.101 74.1488C163.123 73.6505 162.942 73.5007 162.475 73.5527C162.209 73.5832 161.94 73.5527 161.671 73.5588C161.405 73.5649 161.353 73.4212 161.35 73.1919C161.35 72.9596 161.414 72.8281 161.677 72.8281C162.872 72.8342 164.067 72.8342 165.263 72.8281C165.519 72.8281 165.59 72.9382 165.599 73.1797C165.608 73.4609 165.51 73.5588 165.223 73.5679C164.792 73.5802 164.226 73.3662 163.966 73.6749C163.67 74.0296 163.872 74.6104 163.869 75.0904C163.853 76.6739 163.869 78.2575 163.859 79.8441C163.859 80.1071 163.982 80.4464 163.48 80.4525C162.979 80.4586 163.098 80.1193 163.095 79.8564C163.086 78.9056 163.092 77.9549 163.092 77.0041L163.089 77.0011Z" fill="#EEEEEE"/>
<path d="M140.519 76.6591C140.519 77.7535 140.513 78.8479 140.522 79.9424C140.522 80.242 140.503 80.456 140.106 80.4437C139.727 80.4346 139.748 80.2053 139.748 79.9546C139.748 77.7413 139.748 75.5279 139.748 73.3146C139.748 73.0181 139.764 72.798 140.167 72.8132C140.543 72.8285 140.522 73.0517 140.522 73.3024C140.522 74.4213 140.522 75.5402 140.522 76.6591H140.519Z" fill="#040404"/>
<path d="M173.899 76.6356C173.899 75.5411 173.899 74.4467 173.899 73.3522C173.899 73.0832 173.86 72.8203 174.288 72.8203C174.716 72.8203 174.673 73.0832 174.673 73.3522C174.673 75.5411 174.673 77.73 174.673 79.9219C174.673 80.191 174.716 80.4539 174.288 80.4539C173.863 80.4539 173.899 80.191 173.899 79.9219C173.899 78.8275 173.899 77.7331 173.899 76.6386V76.6356Z" fill="#040404"/>
<circle cx="64.0846" cy="66.0045" r="14.2155" fill="url(#paint0_linear_419_303)"/>
<path fill-rule="evenodd" clip-rule="evenodd" d="M75.7774 47.1472L64.084 40.4766L52.3906 47.1472L41.6526 53.5021C43.2634 54.4789 44.8782 55.4478 46.4935 56.4171C47.209 56.8464 47.9246 57.2758 48.64 57.7059C48.7733 58.3521 48.6626 58.8587 47.8976 58.9825C47.4937 58.7408 47.0896 58.4995 46.6856 58.2581L46.684 58.2571C45.8761 57.7745 45.0682 57.2919 44.2617 56.807C43.5954 56.4078 42.9298 56.0067 42.2641 55.6055L42.2625 55.6046L42.2599 55.603L42.2582 55.602L42.2572 55.6014C41.7711 55.3085 41.2849 55.0155 40.7984 54.7233L40.6973 67.5318L40.8041 81.0594L52.3906 87.9164L63.3321 94.1581C63.3324 93.6253 63.3328 93.0926 63.3333 92.56C63.3356 90.0572 63.3379 87.5552 63.3196 85.0516C63.3165 84.4279 63.4969 84.1681 64.1542 84.1956C64.7411 84.2201 64.8237 84.5288 64.8206 85.0027C64.8151 86.1711 64.8162 87.3406 64.8173 88.5099V88.5103C64.818 89.2896 64.8188 90.069 64.8175 90.8478C64.8175 91.7895 64.8148 92.7312 64.8121 93.6729C64.8116 93.8395 64.8111 94.006 64.8107 94.1725L75.7774 87.9164L87.3639 81.0594L87.4707 67.5318L87.3693 54.6868C86.6928 55.0921 86.0171 55.4992 85.3415 55.9063L85.3393 55.9076L85.3379 55.9085C84.6707 56.3105 84.0035 56.7126 83.3357 57.1127C82.5299 57.5972 81.7226 58.0795 80.9153 58.5617L80.9122 58.5636C80.508 58.805 80.1038 59.0465 79.6998 59.2882C78.9347 59.1644 78.8241 58.6579 78.9574 58.0117C79.6698 57.5833 80.3824 57.1557 81.095 56.7281L81.0972 56.7268L81.0995 56.7254L81.104 56.7227L81.1049 56.7221C82.8993 55.6455 84.6931 54.5691 86.4814 53.4819L75.7774 47.1472ZM61.0098 50.7301C60.4945 50.8312 59.9791 50.9323 59.4645 51.0334V51.0303C58.098 51.5653 56.7498 52.137 55.4964 52.9104C54.3317 53.7939 53.173 54.6805 52.2223 55.8116C50.5501 57.8048 49.37 60.0457 48.7556 62.5769C48.3214 65.0776 48.3459 67.5692 48.9054 70.0485C49.1046 70.8539 49.4401 71.6076 49.7755 72.361L49.8347 72.4941C50.9903 75.0927 52.849 77.1134 55.0684 78.8346C56.1109 79.4857 57.1992 80.0482 58.3028 80.5863C59.3759 80.8767 60.452 81.1702 61.5281 81.4637L61.5824 81.4675C62.3897 81.5243 63.1971 81.5811 64.0074 81.6379C65.4473 81.5982 66.8596 81.3842 68.2598 81.0571C69.6477 80.6291 70.9592 80.036 72.2187 79.3176C72.586 79.0467 72.9524 78.7759 73.3189 78.5051L73.3279 78.4984C73.6906 78.2304 74.0533 77.9623 74.4168 77.6943C75.0349 77.152 75.5638 76.5298 76.0929 75.9073C76.3096 75.6524 76.5264 75.3972 76.7493 75.1477C77.7368 73.6344 78.5224 72.0264 79.0941 70.3144C79.7117 67.8627 79.7973 65.3895 79.3907 62.8949C78.8954 60.9964 78.1984 59.1836 77.1773 57.5022C76.1899 56.1509 75.1046 54.8945 73.8237 53.8092C72.5764 52.9074 71.2619 52.1217 69.8587 51.4858C69.6519 51.4239 69.4455 51.3605 69.2391 51.2972C68.243 50.9914 67.2467 50.6855 66.2085 50.5412C65.2291 50.4157 64.2458 50.4209 63.2633 50.4261C63.0253 50.4274 62.7871 50.4287 62.5491 50.4281C62.0366 50.5288 61.5232 50.6294 61.0098 50.7301Z" fill="url(#paint1_linear_419_303)"/>
<path fill-rule="evenodd" clip-rule="evenodd" d="M177.958 67.0511H173.018C173.03 67.0132 173.04 66.9793 173.048 66.9509C173.063 66.8968 173.072 66.8625 173.088 66.8585C174.919 66.4489 175.671 64.9967 176.347 63.4835C177.001 62.0168 177.648 60.5475 178.296 59.0783C178.866 57.7854 179.435 56.4926 180.009 55.2018C180.029 55.1563 180.045 55.1043 180.06 55.0512C180.114 54.8689 180.171 54.674 180.434 54.6882C180.677 54.7025 180.74 54.8906 180.801 55.0713C180.818 55.1229 180.835 55.174 180.856 55.2202C181.563 56.7547 182.268 58.2908 182.972 59.8269L182.975 59.8318C183.68 61.3695 184.386 62.9072 185.093 64.4434C185.68 65.7152 186.598 66.5773 187.848 67.0297H180.734C181.005 66.7717 181.293 66.7904 181.562 66.808C181.663 66.8146 181.762 66.821 181.856 66.8127C182.975 66.7148 183.231 66.3296 182.822 65.2811C182.308 63.9665 181.353 63.3092 179.957 63.3092C179.739 63.3092 179.52 63.3173 179.301 63.3255C178.808 63.3437 178.316 63.3619 177.836 63.2878C176.909 63.1441 176.598 63.6272 176.365 64.3731C176.008 65.5317 176.432 66.3999 177.588 66.7699C177.615 66.7781 177.644 66.7828 177.673 66.7876C177.786 66.8059 177.91 66.8259 177.958 67.0511ZM181.764 63.0198H181.763C181.282 61.9329 180.817 60.8844 180.35 59.8283L180.34 59.8068C180.009 59.0591 179.676 58.3074 179.334 57.5354C179.175 57.9051 179.019 58.2679 178.866 58.6251L178.864 58.6292C178.284 59.9806 177.737 61.2524 177.182 62.5184C177.035 62.8517 176.98 63.0381 177.472 63.029C178.468 63.0114 179.465 63.0143 180.508 63.0174C180.919 63.0186 181.336 63.0198 181.763 63.0198L181.764 63.0229V63.0198Z" fill="#EEEEEE"/>
<path d="M125.824 67.0694H125.828L125.832 67.0725L125.824 67.0694Z" fill="#EEEEEE"/>
<path fill-rule="evenodd" clip-rule="evenodd" d="M125.824 67.0694H118.66C118.98 66.7906 119.274 66.8032 119.539 66.8145C119.623 66.8181 119.704 66.8216 119.782 66.8157C120.992 66.724 121.24 66.348 120.778 65.2107C120.267 63.9451 119.321 63.3123 117.941 63.3123C117.698 63.3123 117.453 63.3179 117.209 63.3235C116.646 63.3364 116.082 63.3494 115.526 63.2939C114.887 63.2297 114.685 63.5538 114.49 64.0429C113.939 65.4247 114.306 66.3633 115.59 66.776C115.602 66.7796 115.614 66.7825 115.626 66.7851C115.635 66.787 115.644 66.7887 115.653 66.7903C115.661 66.7916 115.668 66.7928 115.675 66.794C115.786 66.8127 115.906 66.8327 115.954 67.048H111.054C110.999 66.8952 111.087 66.8188 111.219 66.7943C112.497 66.5497 113.255 65.6601 113.784 64.5901C114.381 63.3834 114.927 62.1499 115.472 60.9168L115.474 60.9125C115.617 60.5883 115.761 60.264 115.905 59.9403C116.179 59.3265 116.45 58.7118 116.721 58.097C117.127 57.1746 117.534 56.2523 117.95 55.3333C117.978 55.2725 117.997 55.2004 118.017 55.127C118.075 54.9089 118.136 54.6791 118.433 54.6974C118.707 54.7135 118.777 54.9423 118.842 55.1589C118.864 55.2302 118.885 55.3002 118.913 55.3608C119.684 57.0285 120.449 58.6981 121.214 60.3681L121.216 60.3725L121.217 60.3756C121.82 61.6909 122.423 63.0063 123.028 64.3211C123.638 65.6452 124.57 66.5613 125.824 67.0694ZM119.12 61.5869C118.535 60.258 117.95 58.9319 117.327 57.5201C116.508 59.4338 115.756 61.1886 114.985 62.9831H119.736L119.12 61.5869Z" fill="#EEEEEE"/>
<path fill-rule="evenodd" clip-rule="evenodd" d="M92.8027 67.0481H100.531L100.534 67.0511C100.415 66.8082 100.252 66.8104 100.104 66.8124C100.065 66.8129 100.028 66.8134 99.993 66.8096C98.6509 66.6751 98.1037 66.1615 97.9876 64.8531C97.9356 64.2692 97.9417 63.6822 97.9509 63.0983C97.9537 62.9062 97.9297 62.696 97.9058 62.4855C97.8512 62.006 97.7965 61.5256 98.0579 61.2579C98.3218 60.9882 98.7606 61.0346 99.2122 61.0824C99.4669 61.1094 99.7257 61.1368 99.9594 61.1081C100.494 61.0409 100.788 61.2824 101.078 61.7073C101.96 63.0034 102.865 64.2849 103.77 65.5659L103.776 65.5742L103.778 65.5764C104.038 65.9446 104.298 66.3128 104.557 66.6812C104.578 66.7099 104.597 66.7391 104.617 66.7681C104.74 66.9525 104.858 67.1298 105.159 67.1245C106.073 67.1102 106.984 67.1095 107.895 67.1089C108.351 67.1085 108.807 67.1082 109.262 67.1061C109.366 67.1061 109.446 67.0572 109.43 66.9288C109.334 66.7932 109.178 66.8002 109.042 66.8063L109.036 66.8065C108.009 66.8432 107.266 66.3724 106.709 65.544C106.52 65.2622 106.326 64.9834 106.131 64.7047L106.131 64.7044C105.81 64.2426 105.488 63.7808 105.187 63.3062C104.949 62.9332 104.661 62.7162 104.23 62.6092C103.172 62.3462 102.2 61.8969 101.179 61.1112C101.393 61.1112 101.582 61.112 101.756 61.1127H101.757C102.065 61.114 102.325 61.1151 102.585 61.1112C103.717 61.0928 104.82 60.9064 105.887 60.5364C107.177 60.0901 107.88 59.2372 107.911 58.1336C107.941 56.9444 107.186 55.8866 105.948 55.4128C105.095 55.0857 104.197 54.9725 103.292 54.9695C99.9716 54.9542 96.6516 54.9603 93.3316 54.9695C93.2957 54.9695 93.2559 54.9635 93.2151 54.9573C93.0717 54.9355 92.9142 54.9116 92.8547 55.1376C92.9678 55.2761 93.1157 55.2752 93.2603 55.2743C93.3073 55.274 93.3539 55.2738 93.3989 55.2783C94.6737 55.4158 95.3034 55.9722 95.3309 57.2287C95.3829 59.763 95.3799 62.3034 95.3309 64.8378C95.3065 66.0942 94.6645 66.672 93.4111 66.8035C93.3709 66.8073 93.3285 66.8065 93.285 66.8056C93.1198 66.8024 92.9382 66.7989 92.8027 67.0481ZM97.9457 57.2297C97.9454 57.4814 97.945 57.7331 97.945 57.9848C97.945 58.2446 97.9457 58.5045 97.9464 58.7643C97.9477 59.284 97.9491 59.8037 97.945 60.3234C97.942 60.623 97.9756 60.8401 98.37 60.8279C98.8588 60.8112 99.3484 60.8179 99.8378 60.8247C100.787 60.8377 101.736 60.8507 102.677 60.6934C104.221 60.4335 104.967 59.5745 104.979 58.0673C104.989 56.5846 104.218 55.6644 102.714 55.3985C101.751 55.2301 100.781 55.2448 99.8102 55.2594C99.3177 55.2669 98.8252 55.2743 98.3333 55.2578C97.9756 55.2456 97.945 55.4474 97.945 55.7195C97.9471 56.222 97.9464 56.7245 97.9457 57.2271V57.2297Z" fill="#EEEEEE"/>
<path fill-rule="evenodd" clip-rule="evenodd" d="M110.176 80.594C112.429 80.5879 114.169 78.8576 114.169 76.6229C114.169 74.3942 112.429 72.6945 110.146 72.6853C107.877 72.6762 106.08 74.4554 106.092 76.6962C106.104 78.882 107.902 80.6001 110.176 80.594ZM106.884 76.6483C106.875 78.4153 108.306 79.8521 110.085 79.8613V79.8583C111.94 79.8674 113.374 78.4887 113.399 76.6789C113.423 74.8844 111.977 73.4292 110.161 73.417C108.354 73.4078 106.89 74.8507 106.884 76.6483Z" fill="#EEEEEE"/>
<path d="M61.5155 77.5276C60.4913 77.1791 59.4122 76.9835 58.437 76.4882C57.315 75.8248 56.2359 75.1064 55.334 74.1526C52.9434 71.0099 52.7202 67.4545 53.3439 63.7371C53.3928 63.4497 53.4264 63.1593 53.46 62.872C53.567 61.909 53.7994 61.6705 54.7715 61.5513C55.9454 61.5513 57.1163 61.5513 58.2902 61.5513C58.544 61.2211 58.9169 61.2058 59.2838 61.2028C60.3293 61.1906 61.3779 61.1661 62.4234 61.2272C63.4139 61.2028 64.4044 61.1416 65.3919 61.3281C66.2723 61.4932 67.0702 61.7836 67.6388 62.5173C68.6782 63.2143 68.932 64.3149 69.1429 65.4399C69.1276 66.2928 69.0084 66.4671 68.4337 66.4824C68.2747 66.302 68.1402 66.1033 68.0393 65.8832C67.6082 64.9386 66.8562 64.3974 65.8749 64.1131C65.5264 64.0122 65.077 64.0551 64.915 63.5934C63.6463 63.2969 62.3592 63.4925 61.0814 63.462C60.846 63.7616 60.5097 63.8013 60.1642 63.8074C59.3633 63.8197 58.5623 63.8502 57.7644 63.7799C56.8656 63.8135 55.9638 63.8135 55.0619 63.8258C54.264 63.838 54.0195 64.0459 53.885 64.8285C53.3255 68.0598 54.2243 70.7959 56.7128 72.9634C57.0154 73.2263 57.2386 73.6237 57.6972 73.6788C58.544 74.1954 59.4214 74.6601 60.3691 74.9627C60.7298 75.0789 61.0141 75.2776 61.2312 75.5803C61.8303 75.6873 62.4295 75.8034 63.0287 75.8952C63.8694 76.0236 63.4812 76.6717 63.5393 77.1088C63.6004 77.5582 63.3069 77.708 62.8973 77.6683C62.4387 77.6224 61.9771 77.5704 61.5185 77.5215L61.5155 77.5276Z" fill="#010101"/>
<path d="M57.2271 56.278C58.4652 55.6268 59.7644 55.1132 61.0912 54.6791C62.5953 54.4498 64.0994 54.2939 65.6188 54.5079C67.0128 54.7861 68.3304 55.2783 69.5777 55.9539C71.1001 56.8741 72.3474 58.0878 73.3654 59.5399C74.5027 61.6401 75.0713 63.8718 75.004 66.2686C74.9673 67.4975 74.6861 68.6775 74.3926 69.8576C73.6375 71.6429 72.6103 73.2571 71.3233 74.7061C70.6446 75.29 69.9568 75.8617 69.2873 76.4578C68.8776 76.8247 68.5444 76.8339 68.2081 76.3631C68.0125 76.091 67.7587 75.8586 67.5325 75.608C66.8324 74.3882 65.8847 73.3457 65.0746 72.2054C64.9065 71.97 64.7291 71.7438 64.5549 71.5115C64.3042 71.1599 64.0902 70.7686 63.7906 70.4629C63.1975 69.8484 63.2403 69.1116 63.2862 68.3657C63.3198 67.7788 63.7967 67.9072 64.1544 67.846C64.3226 67.6595 64.5182 67.5372 64.775 67.4975C65.8664 67.3263 66.9425 67.1093 67.8015 66.3358C67.9146 66.2349 68.0705 66.2288 68.2173 66.2747C68.9816 67.0909 68.5627 68.8243 67.56 69.2614C67.0892 69.4663 66.6337 69.6925 66.1324 69.8148C65.524 69.9646 65.4445 70.1694 65.8205 70.6769C66.7346 71.9058 67.6456 73.1409 68.5811 74.3546C68.8287 74.5074 68.9571 74.3209 69.1375 74.1925C70.2931 73.3763 71.2224 72.3277 72.1732 71.2975C72.8457 70.0288 73.7139 68.8701 74.1052 67.4455C74.6647 65.4003 74.1633 63.5844 73.0811 61.8725C72.7785 61.3925 72.4238 60.9462 72.1579 60.4417C70.9412 59.1241 69.5166 58.097 67.8596 57.403C66.4503 56.8099 64.9768 56.5684 63.4513 56.6234C63.1578 56.6326 62.8704 56.6112 62.58 56.6051C61.3572 56.816 60.1741 57.1554 59.0338 57.6445C58.7342 57.7729 58.4407 57.8524 58.1228 57.727C57.8385 57.8646 57.5633 58.0236 57.2698 58.1336C56.9917 58.2376 56.6921 58.7665 56.4414 58.3568C56.1785 57.9319 56.0226 57.3357 56.4842 56.868C56.7043 56.6448 56.9764 56.4736 57.224 56.281L57.2271 56.278Z" fill="#010101"/>
<defs>
<linearGradient id="paint0_linear_419_303" x1="77.2781" y1="66.1952" x2="49.8691" y2="66.1952" gradientUnits="userSpaceOnUse">
<stop stop-color="#919191"/>
<stop offset="1" stop-color="#DDD4D4"/>
</linearGradient>
<linearGradient id="paint1_linear_419_303" x1="85.7893" y1="67.6847" x2="40.6973" y2="67.6847" gradientUnits="userSpaceOnUse">
<stop stop-color="#919191"/>
<stop offset="1" stop-color="#DDD4D4"/>
</linearGradient>
</defs>
</svg>
