<svg width="179" height="62" viewBox="0 0 179 62" fill="none" xmlns="http://www.w3.org/2000/svg">
<g clip-path="url(#clip0_2622_640)">
<path d="M155.796 53.9364V62.0001H170.591C172.817 61.9881 174.947 61.1119 176.521 59.5616C178.095 58.0113 178.984 55.9121 178.996 53.7197V50.5946C179.004 49.5051 178.792 48.425 178.372 47.4169C177.952 46.4089 177.334 45.4931 176.552 44.7226C175.77 43.9522 174.84 43.3426 173.817 42.9291C172.794 42.5157 171.697 42.3067 170.591 42.3143H163.217V38.5733H177.815V30.464H163.807C161.561 30.5026 159.419 31.4043 157.838 32.9768C156.257 34.5492 155.363 36.668 155.345 38.8812V41.687C155.354 43.8912 156.25 46.0019 157.836 47.5562C159.423 49.1106 161.57 49.9818 163.807 49.9787C173.972 49.9787 161.365 49.9787 170.753 49.9787V53.8908M76.5765 51.9861C76.5765 51.9861 84.4834 51.3132 84.4834 41.2422C84.4834 31.1712 74.8979 30.2473 74.8979 30.2473H57.6484V62.0001H66.3426V54.3356L73.8559 62.0001H86.6945L76.6112 51.9861H76.5765ZM73.2887 45.4736H66.3426V38.2197H73.2887C73.2887 38.2197 75.2336 38.9269 75.2336 41.8239C75.3147 42.5592 75.1679 43.3014 74.8125 43.9529C74.457 44.6044 73.9096 45.1346 73.2423 45.4736H73.2887ZM105.981 30.464H97.16C90.8738 30.464 88.7552 36.0755 88.7552 38.7558V62.0001H97.5652V56.4342H105.843V62.0001H114.386V38.7558C114.386 31.9809 108.146 30.464 105.981 30.464ZM105.843 47.4353H97.5188V39.7252C97.5188 39.7252 97.5189 37.9916 100.286 37.9916H103.307C105.75 37.9916 105.796 39.7252 105.796 39.7252V47.4353H105.843ZM118.415 30.464H127.584V62.0001H118.415V30.464ZM140.434 53.811V30.464H131.3V62.0001H152.775V53.811H140.434Z" fill="white"/>
<path d="M3.16406 61.9999H38.89C38.89 61.9999 32.0597 31.3079 54.6691 18.8873C59.5892 16.5264 75.2873 7.69861 100.976 26.4149C101.787 25.742 102.562 25.206 102.562 25.206C102.562 25.206 79.0498 2.08713 52.8747 4.67616C39.7119 5.81671 23.5276 17.6327 14.0346 33.1898C4.54168 48.7468 3.16406 61.9999 3.16406 61.9999Z" fill="white"/>
<path d="M3.16406 61.9999H38.89C38.89 61.9999 32.0597 31.3079 54.6691 18.8873C59.5892 16.5264 75.2873 7.69861 100.976 26.4149C101.787 25.742 102.562 25.206 102.562 25.206C102.562 25.206 79.0498 2.08713 52.8747 4.67616C39.7119 5.81671 23.5276 17.6327 14.0346 33.1898C4.54168 48.7468 3.16406 61.9999 3.16406 61.9999Z" fill="white"/>
<path d="M3.16406 62H38.89C38.89 62 32.0597 31.308 54.6691 18.8874C59.5892 16.5265 75.2873 7.69872 100.976 26.4151C101.787 25.7421 102.562 25.2061 102.562 25.2061C102.562 25.2061 79.0498 2.08723 52.8747 4.67627C39.6656 5.81681 23.4813 17.6329 13.9883 33.1899C4.49536 48.7469 3.16406 62 3.16406 62ZM77.5911 7.17406L77.7763 4.18583C76.3751 3.51112 74.904 2.98724 73.3887 2.62329L73.2035 5.56589C74.6969 6.05632 76.144 6.59238 77.5911 7.17406Z" fill="white"/>
<path d="M73.2925 16.6177L73.1073 19.4235C74.6138 19.463 76.1135 19.6387 77.5875 19.9481L77.7727 17.188C76.2952 16.8917 74.7979 16.7011 73.2925 16.6177ZM56.5641 2.71449H57.0156L56.1126 0C54.6616 0.00491974 53.2121 0.0925115 51.7713 0.262329L52.628 2.89698C53.9358 2.76792 55.2497 2.707 56.5641 2.71449ZM58.729 19.1041L59.7709 22.1836C61.0409 21.5653 62.3567 21.043 63.707 20.621L62.7113 17.6784C61.3541 18.0686 60.0239 18.5448 58.729 19.1041ZM38.2033 7.39073L36.1658 4.32266C35.0081 4.89294 33.8505 5.46321 32.6928 6.23878L34.765 9.35246C35.9227 8.63392 37.0804 7.97241 38.2381 7.39073H38.2033ZM47.4648 27.4415L49.6296 30.6464C50.4317 29.5194 51.3261 28.459 52.3038 27.4757L50.2663 24.4533C49.2486 25.3697 48.3114 26.3693 47.4648 27.4415ZM40.8776 41.7781L44.5358 44.6295C44.7172 42.8708 45.0346 41.1283 45.4851 39.4172L42.2321 36.8852C41.6791 38.4873 41.2267 40.1213 40.8776 41.7781ZM21.116 20.621L17.9093 17.8609C16.7516 19.0015 15.5939 20.142 14.5636 21.2027L18.0366 24.1453C18.9996 22.9181 20.0275 21.7417 21.116 20.621ZM7.45544 40.535L2.25748 38.6645C1.4008 40.5806 0.451494 42.8046 0 44.0022L5.19796 45.8727C5.78837 44.3672 6.73768 42.1773 7.45544 40.535ZM40.2409 53.0809C40.3016 54.9609 40.4834 56.8351 40.785 58.6924L46.2029 60.6542C45.744 58.7422 45.3847 56.8083 45.1263 54.8602L40.2409 53.0809Z" fill="white"/>
</g>
<defs>
<clipPath id="clip0_2622_640">
<rect width="179" height="62" fill="white"/>
</clipPath>
</defs>
</svg>
