<svg width="231" height="127" viewBox="0 0 231 127" fill="none" xmlns="http://www.w3.org/2000/svg">
<g clip-path="url(#clip0_580_155)">
<path d="M144.928 42.8627C135.275 55.0584 125.58 67.2179 115.71 79.8253C124.236 82.1517 132.32 83.3366 140.022 86.111H95.8848C101.535 80.6562 106.932 75.9383 112.293 71.1627C117.618 66.4159 122.914 61.633 128.195 56.8357C133.556 51.9661 138.888 47.0676 144.234 42.1836L144.928 42.8627Z" fill="white"/>
<path d="M115.415 54.2232C105.798 50.394 96.4492 46.6732 87.1001 42.9596C87.1651 42.7139 87.2301 42.4683 87.3024 42.2227C102.533 44.1084 117.77 46.0013 133.86 47.9954C119.786 61.1375 105.632 73.0441 91.7169 85.2686C99.1947 74.7419 107.467 64.8294 115.415 54.2232Z" fill="white"/>
<path d="M150.744 73.485C148.114 73.485 145.477 73.5283 142.847 73.4777C138.483 73.391 136.092 71.3319 135.738 67.1198C135.528 64.6489 135.521 62.1346 135.759 59.6709C136.15 55.6322 138.527 53.5587 142.667 53.5009C148.049 53.4214 153.432 53.5009 158.822 53.4575C160.303 53.4431 161.704 53.7465 162.998 54.3245C164.724 55.0976 165.917 56.3764 165.917 58.421C165.917 61.7373 165.909 65.0535 165.924 68.3625C165.938 70.5516 164.724 71.8955 162.832 72.6974C161.509 73.2538 160.115 73.5355 158.641 73.4994C156.011 73.4416 153.374 73.485 150.744 73.4777V73.485ZM160.541 56.9905C153.8 57.3084 147.522 56.6076 141.395 57.3879C140.391 61.0075 140.499 66.932 141.604 69.6702H160.823C161.676 65.5159 162.022 61.4844 160.541 56.9905Z" fill="white"/>
<path d="M50.8584 64.9016C53.9652 68.1745 57.4404 69.9373 59.9619 73.2102C56.7107 73.6798 54.023 73.8605 51.6532 71.5196C49.8903 69.7712 47.7517 68.4057 45.8154 66.8162C44.8833 66.0503 43.973 65.299 42.7447 65.0533C39.5368 64.4031 37.969 65.6168 37.8751 68.8681C37.839 70.1613 37.8751 71.4618 37.8751 72.6106C36.5168 73.7954 35.2596 73.5353 34.0169 73.203C33.2655 70.6598 33.0705 58.8471 33.6846 54.122C34.2987 53.3562 35.1802 53.4718 36.0038 53.4718C41.8777 53.4573 47.7517 53.4935 53.6328 53.4573C55.6486 53.4429 57.4332 53.9342 58.8637 55.3719C60.5327 57.0553 60.8723 59.0133 60.1353 61.253C59.4273 63.4133 57.9823 64.6632 55.7425 64.8799C54.3264 65.0172 52.8886 64.9088 50.8656 64.9088L50.8584 64.9016ZM38.2363 57.0698C37.7884 58.9555 37.7306 60.2993 38.3014 61.9394C43.2288 61.9394 48.0985 61.9466 52.9609 61.9249C53.4161 61.9249 53.9146 61.7732 54.312 61.5492C55.3379 60.9712 55.822 60.0609 55.6847 58.8832C55.533 57.5828 54.6515 57.0842 53.445 57.077C48.4525 57.0626 43.46 57.0698 38.2363 57.0698Z" fill="white"/>
<path d="M172.548 58.628C172.129 63.7649 172.715 68.3744 172.18 72.8611C170.901 73.7136 169.745 73.5186 168.148 73.0995C167.794 66.6982 167.686 60.2175 168.213 53.614C170.482 53.5562 171.819 54.6327 173.206 55.478C179.831 59.495 186.442 63.5482 193.06 67.5797C193.356 67.7603 193.718 67.8181 194.296 68.0132C194.989 63.2953 194.122 58.5919 194.794 54.0691C196.044 53.1949 197.2 53.4189 198.797 53.809C199.144 60.2175 199.252 66.6982 198.71 73.6703C193.429 72.0085 189.708 68.7573 185.51 66.3948C181.262 64.0034 177.143 61.3952 172.541 58.6208L172.548 58.628Z" fill="white"/>
<path d="M64.8108 73.1626C63.3802 73.5311 62.3471 73.6106 60.9526 72.9748C65.8367 66.3279 69.9622 59.3631 75.2943 53.3086C77.9458 55.0931 88.9062 69.8392 90.12 72.9603C88.8267 73.8201 87.4178 73.401 85.8861 73.3577C84.5784 70.7423 82.1941 70.5039 79.5498 70.6195C76.5659 70.7495 73.5675 70.7278 70.5763 70.6195C68.062 70.5328 65.6922 70.5689 64.818 73.1554L64.8108 73.1626ZM68.6545 67.4622C72.9967 67.6789 76.7031 67.7439 80.9731 67.4405C78.755 64.3988 76.8621 61.7979 74.7596 58.9223C72.4693 61.7906 70.5547 64.2471 68.6545 67.4622Z" fill="white"/>
<path d="M109.842 53.8527C105.464 57.2628 101.563 60.2973 97.4372 63.5051V72.9192C95.7899 73.6778 94.4243 73.5622 92.936 73.1937C92.0256 71.3875 92.3219 69.444 92.4953 67.6378C92.7626 64.8706 91.3537 63.245 89.3957 61.7061C86.7875 59.6543 84.2515 57.5012 81.7083 55.3627C81.2748 55.0014 80.733 54.6474 80.7619 53.7804C84.0492 52.9134 86.9898 53.4192 89.4752 55.8901C91.332 57.7324 93.355 59.3797 95.6743 60.9692C98.1597 59.069 100.797 57.27 103.159 55.1676C104.958 53.5709 106.815 53.1374 109.842 53.8599V53.8527Z" fill="white"/>
</g>
<defs>
<clipPath id="clip0_580_155">
<rect width="231" height="127" fill="white"/>
</clipPath>
</defs>
</svg>
