<svg width="216" height="207" viewBox="0 0 216 207" fill="none" xmlns="http://www.w3.org/2000/svg">
<g clip-path="url(#clip0_5455_7324)">
<rect width="216" height="206.929" fill="#151517"/>
<path d="M134.596 79.0474L132.004 78.2311C132.004 77.6549 132.292 77.0788 132.388 76.5026C134.356 66.8994 133.06 59.4569 128.691 56.9601C124.323 54.4633 117.697 56.9602 110.736 63.0102L108.768 64.8827L107.423 63.6344C100.174 57.2483 93.0206 54.5594 88.5558 57.0562C84.0909 59.5531 83.1307 66.6593 84.907 75.5422C84.907 76.4065 85.2432 77.2708 85.4833 78.1831L82.5066 79.0955C74.009 82.0724 68.584 86.6819 68.584 91.4835C68.584 96.285 74.3931 101.375 83.2747 104.352L85.4352 105.024C85.1952 106.032 85.0031 106.993 84.8111 107.905C83.1308 116.692 84.427 123.654 88.6038 126.055C92.7806 128.456 100.126 126.055 107.183 119.861L108.864 118.324C109.584 119.044 110.304 119.669 111.024 120.293C117.841 126.151 124.611 128.504 128.787 126.103C132.964 123.702 134.452 116.115 132.676 106.896C132.676 106.224 132.388 105.504 132.196 104.784L133.684 104.304C142.854 101.279 148.855 96.3811 148.855 91.3875C148.855 86.3938 143.238 81.7843 134.452 78.9514L134.596 79.0474ZM112.848 65.5069C118.753 60.3692 124.323 58.3526 126.819 59.793C129.507 61.3295 130.564 67.5716 128.883 75.7343C128.883 76.2145 128.643 76.7427 128.499 77.2708C124.968 76.493 121.393 75.9317 117.793 75.5903C115.709 72.6416 113.432 69.8345 110.976 67.1875L112.848 65.5069V65.5069ZM92.1084 95.4688C92.8285 96.8133 93.5967 98.2057 94.4129 99.5981C95.229 100.991 96.0451 102.335 96.9093 103.68C94.4128 103.391 92.1085 103.007 89.516 102.479C90.2842 100.126 91.1482 97.6776 92.1084 95.4688V95.4688ZM92.1084 87.4502C91.1002 85.0974 90.2841 82.6486 89.5639 80.5359C91.8684 80.0557 94.3649 79.6235 96.8614 79.2874C95.9972 80.6319 95.181 81.9284 94.3648 83.3209C93.5967 84.7133 92.8285 86.0577 92.1084 87.4502ZM93.9328 91.4354C94.9409 89.3227 96.0933 87.1621 97.3415 85.0494C98.5897 82.9367 99.886 80.8239 101.23 78.8553C103.631 78.8553 106.031 78.6153 108.528 78.6153C111.024 78.6153 113.328 78.6152 115.873 78.8553C117.169 80.8239 118.465 82.8886 119.714 85.0013C120.962 87.114 122.162 89.3228 123.218 91.3875C122.162 93.5322 121.01 95.6929 119.762 97.8696C118.465 100.03 117.217 102.095 115.873 104.064C113.52 104.064 111.072 104.304 108.528 104.304C105.983 104.304 103.727 104.304 101.278 104.064C99.9339 102.095 98.5897 100.03 97.3415 97.8696C96.0933 95.7089 94.9409 93.5961 93.9328 91.4354ZM122.738 99.5501C123.554 98.1576 124.323 96.7653 125.043 95.3248C126.059 97.63 126.956 99.9857 127.731 102.383C125.283 102.911 122.93 103.343 120.242 103.631C121.058 102.335 121.922 100.943 122.738 99.5501ZM124.995 87.4502C124.274 86.0577 123.506 84.6653 122.738 83.3209C121.97 81.9764 121.154 80.6319 120.29 79.3355C122.882 79.6876 125.331 80.1197 127.635 80.6318C126.887 82.9627 126.022 85.2545 125.043 87.4982L124.995 87.4502ZM108.624 69.6843C110.304 71.5089 111.888 73.3816 113.424 75.3502C111.84 75.3502 110.256 75.3502 108.624 75.3502C106.991 75.3502 105.407 75.3502 103.823 75.3502C105.407 73.2856 106.991 71.4128 108.624 69.6843ZM90.1401 60.0811C92.8287 58.5446 98.7817 60.7534 105.023 66.2752L106.223 67.3796C103.767 70.0266 101.49 72.8337 99.4059 75.7824C95.8034 76.1003 92.2265 76.6618 88.6998 77.4629C88.4597 76.5987 88.2677 75.7823 88.1237 74.966C86.6354 67.3315 87.5957 61.5216 90.1401 60.0811V60.0811ZM86.2034 101.855L84.235 101.231C80.8461 100.218 77.6726 98.5908 74.8732 96.4291C74.0606 95.8903 73.374 95.1824 72.8602 94.3537C72.3465 93.525 72.0178 92.595 71.8966 91.6275C71.8966 88.6985 76.2175 85.0013 83.5149 82.4565L86.2514 81.6403C87.3506 85.0651 88.6654 88.4169 90.1881 91.6756C88.6411 94.9953 87.3101 98.4116 86.2034 101.903V101.855ZM104.783 117.46C102.139 119.851 99.08 121.739 95.7571 123.03V123.03C94.873 123.423 93.9162 123.626 92.9486 123.626C91.9811 123.626 91.0243 123.423 90.1401 123.03C87.5957 121.589 86.5875 116.02 88.0277 108.625C88.0277 107.761 88.3638 106.896 88.6038 105.984C92.1618 106.761 95.7723 107.275 99.4059 107.521C101.52 110.49 103.813 113.328 106.271 116.02L104.783 117.46ZM108.672 113.619C106.962 111.809 105.359 109.901 103.871 107.905H108.672H113.472C112.032 109.874 110.448 111.794 108.672 113.667V113.619ZM129.507 118.468C129.41 119.404 129.126 120.311 128.672 121.136C128.219 121.961 127.605 122.686 126.867 123.27C124.323 124.758 118.898 122.838 113.088 117.844C112.381 117.276 111.708 116.667 111.072 116.02C113.535 113.37 115.783 110.528 117.793 107.521C121.461 107.243 125.103 106.697 128.691 105.888L129.123 107.809C129.875 111.263 130.005 114.824 129.507 118.324V118.468ZM132.388 101.327L131.044 101.759C129.933 98.2864 128.57 94.9001 126.963 91.6275C128.493 88.4051 129.809 85.0847 130.9 81.6882C131.716 81.6882 132.484 82.1685 133.3 82.4086C140.694 84.9534 145.254 88.7466 145.254 91.6275C145.254 94.5084 140.454 98.6858 132.388 101.231" fill="white"/>
<path d="M108.721 84.4746C110.631 84.4746 112.462 85.2334 113.813 86.5841C115.163 87.9348 115.922 89.7668 115.922 91.677C115.922 93.5872 115.163 95.4192 113.813 96.7699C112.462 98.1206 110.631 98.8793 108.721 98.8793C106.811 98.8793 104.979 98.1206 103.629 96.7699C102.278 95.4192 101.52 93.5872 101.52 91.677C101.52 89.7668 102.278 87.9348 103.629 86.5841C104.979 85.2334 106.811 84.4746 108.721 84.4746" fill="white"/>
<path d="M47.7529 144.25H45.2565V151.069H43V135.031H47.1768C51.2096 135.031 53.3221 136.568 53.3221 139.545C53.3706 140.57 53.0402 141.577 52.3938 142.374C51.7474 143.171 50.8302 143.702 49.8173 143.866L54.1862 151.069H51.5457L47.7529 144.25ZM47.4649 142.522C49.7213 142.522 51.0176 141.705 51.0176 139.497C51.0176 137.288 49.8654 136.712 47.2249 136.712H45.2565V142.522H47.4649Z" fill="white"/>
<path d="M66.3799 145.643H58.5063C58.7463 148.476 60.0426 149.58 61.819 149.58C62.978 149.59 64.1084 149.219 65.0356 148.524L65.9478 149.772C64.749 150.772 63.2357 151.316 61.6749 151.309C58.2663 151.309 56.25 148.908 56.25 145.018C56.25 141.129 58.1704 138.488 61.339 138.488C64.5076 138.488 66.428 140.793 66.428 144.538C66.428 144.971 66.428 145.355 66.428 145.643H66.3799ZM64.3155 143.914C64.3155 141.513 63.3553 140.169 61.4349 140.169C59.5146 140.169 58.7464 141.321 58.5544 144.058H64.3155V143.914Z" fill="white"/>
<path d="M79.0557 149.82L78.5755 151.309C78.0292 151.316 77.4962 151.14 77.0612 150.81C76.6262 150.479 76.3143 150.012 76.1751 149.484C75.766 150.079 75.2114 150.558 74.5643 150.878C73.9172 151.197 73.199 151.345 72.4783 151.309C71.9719 151.357 71.4611 151.297 70.9802 151.131C70.4993 150.965 70.0596 150.697 69.6909 150.347C69.3222 149.996 69.033 149.571 68.843 149.099C68.653 148.627 68.5666 148.12 68.5896 147.611C68.5896 144.97 70.5579 143.53 73.9666 143.53H75.887V142.666C75.887 140.889 75.0228 140.217 73.2945 140.217C72.1622 140.268 71.0446 140.495 69.9819 140.889L69.4538 139.304C70.815 138.769 72.2639 138.492 73.7266 138.488C76.6551 138.488 78.0474 139.977 78.0474 142.57V148.187C78.0474 149.244 78.4315 149.58 79.0557 149.82V149.82ZM75.887 147.803V144.97H74.2547C71.9983 144.97 70.846 145.835 70.846 147.515C70.798 147.812 70.8205 148.116 70.9113 148.402C71.0022 148.689 71.1589 148.95 71.369 149.165C71.5792 149.38 71.8368 149.542 72.1212 149.639C72.4056 149.736 72.7088 149.765 73.0065 149.724C73.6211 149.718 74.2208 149.533 74.7322 149.192C75.2437 148.851 75.6449 148.369 75.887 147.803" fill="white"/>
<path d="M90.6726 139.789L89.6644 141.133C88.8985 140.572 87.9735 140.269 87.0238 140.269C85.1034 140.269 83.8553 141.758 83.8553 145.071C83.8553 148.384 85.1034 149.584 87.0238 149.584C87.9914 149.558 88.9286 149.24 89.7123 148.672L90.6726 150.064C89.6301 150.954 88.2983 151.432 86.9278 151.409C83.6152 151.409 81.5508 149.056 81.5508 145.119C81.5508 141.181 83.5672 138.588 86.9278 138.588C88.2949 138.533 89.6324 138.996 90.6726 139.885" fill="white"/>
<path d="M99.9869 150.494C99.1786 151.037 98.2242 151.322 97.2503 151.31C96.7881 151.351 96.3227 151.287 95.8888 151.123C95.4549 150.958 95.0639 150.697 94.7451 150.36C94.4264 150.023 94.1881 149.618 94.0483 149.175C93.9085 148.733 93.8706 148.264 93.9377 147.805V140.411H91.7773V138.73H93.9377V135.993L96.0982 135.705V138.73H98.9788L98.7386 140.411H96.0982V147.709C96.0982 148.957 96.4822 149.534 97.5384 149.534C98.1161 149.525 98.6805 149.359 99.1707 149.053L99.9869 150.494Z" fill="white"/>
<path d="M119.624 151.069H116.647L110.118 137.432C110.118 138.776 110.406 140.745 110.406 143.722V151.069H108.342V135.031H111.222L117.848 148.668C117.654 147.074 117.542 145.471 117.512 143.866V135.127H119.624V151.069Z" fill="white"/>
<path d="M133.593 149.82L133.113 151.308C132.568 151.308 132.039 151.129 131.606 150.799C131.172 150.47 130.859 150.008 130.712 149.484C130.314 150.078 129.769 150.558 129.129 150.878C128.489 151.198 127.778 151.346 127.064 151.308C126.553 151.364 126.037 151.309 125.55 151.147C125.064 150.984 124.618 150.718 124.244 150.367C123.87 150.015 123.576 149.587 123.383 149.111C123.19 148.636 123.103 148.124 123.127 147.611C123.127 144.97 125.095 143.53 128.552 143.53H130.424V142.666C130.424 140.889 129.56 140.217 127.88 140.217C126.747 140.263 125.628 140.49 124.567 140.889L124.039 139.304C125.383 138.766 126.816 138.489 128.264 138.488C131.24 138.488 132.585 139.977 132.585 142.57V148.187C132.585 149.244 132.969 149.58 133.593 149.82V149.82ZM130.424 147.803V144.97H128.792C126.535 144.97 125.383 145.835 125.383 147.515C125.337 147.807 125.359 148.106 125.447 148.389C125.535 148.671 125.688 148.929 125.892 149.143C126.097 149.357 126.348 149.52 126.626 149.621C126.904 149.722 127.202 149.757 127.496 149.724C128.112 149.724 128.714 149.542 129.227 149.2C129.739 148.858 130.139 148.372 130.376 147.803" fill="white"/>
<path d="M143.196 150.494C142.388 151.037 141.433 151.322 140.459 151.31C139.997 151.351 139.532 151.287 139.098 151.123C138.664 150.958 138.273 150.697 137.954 150.36C137.635 150.023 137.397 149.618 137.257 149.175C137.117 148.733 137.08 148.264 137.147 147.805V140.411H134.986V138.73H137.147V135.993L139.307 135.705V138.73H142.188V140.411H139.499V147.709C139.499 148.957 139.883 149.534 140.939 149.534C141.517 149.525 142.081 149.359 142.572 149.053L143.196 150.494Z" fill="white"/>
<path d="M147.995 134.313C148.015 134.62 147.941 134.926 147.784 135.191C147.628 135.456 147.395 135.668 147.117 135.799C146.838 135.93 146.527 135.975 146.223 135.927C145.919 135.879 145.636 135.74 145.411 135.53C145.187 135.319 145.031 135.046 144.963 134.746C144.896 134.445 144.92 134.132 145.033 133.845C145.146 133.559 145.342 133.313 145.596 133.139C145.851 132.966 146.151 132.873 146.459 132.872C146.656 132.859 146.854 132.887 147.04 132.953C147.226 133.02 147.396 133.124 147.54 133.259C147.684 133.394 147.799 133.557 147.877 133.738C147.956 133.92 147.996 134.115 147.995 134.313V134.313ZM147.563 151.07H145.451V138.778H147.563V151.07Z" fill="white"/>
<path d="M156.734 151.024H154.142L149.869 138.732H152.222L155.438 149.104L158.655 138.732H160.911L156.734 151.024Z" fill="white"/>
<path d="M172.579 145.643H164.754C164.754 148.476 166.29 149.58 168.066 149.58C169.223 149.577 170.349 149.207 171.283 148.524L172.195 149.772C170.996 150.772 169.483 151.316 167.922 151.309C164.466 151.309 162.449 148.908 162.449 145.018C162.449 141.129 164.417 138.488 167.586 138.488C170.755 138.488 172.627 140.793 172.627 144.538C172.654 144.906 172.654 145.275 172.627 145.643H172.579ZM170.563 143.914C170.563 141.513 169.603 140.169 167.682 140.169C165.762 140.169 164.946 141.321 164.802 144.058H170.563V143.914Z" fill="white"/>
</g>
<defs>
<clipPath id="clip0_5455_7324">
<rect width="216" height="206.929" fill="white"/>
</clipPath>
</defs>
</svg>
