<svg width="216" height="207" viewBox="0 0 216 207" fill="none" xmlns="http://www.w3.org/2000/svg">
<g clip-path="url(#clip0_5527_671)">
<rect width="216" height="206.929" fill="#151517"/>
<path d="M134.403 77.3303L131.799 76.5132C131.799 75.9003 132.105 75.2874 132.207 74.7257C134.198 65.1754 132.922 57.4637 128.479 54.9612C124.037 52.4587 117.296 54.9612 110.301 61.0897L108.309 62.9793L106.93 61.7026C99.6282 55.2676 92.2749 52.5097 87.8323 55.0633C83.3897 57.6169 82.3685 64.7158 84.1557 73.7553C84.1557 74.6235 84.5132 75.5428 84.7175 76.4621C83.7122 76.7071 82.7232 77.0141 81.7558 77.3814C73.126 80.3435 67.6621 85.042 67.6621 89.8938C67.6621 94.7455 73.5345 100.108 82.5218 102.917L84.7175 103.632C84.4622 104.602 84.2579 105.573 84.0536 106.492C82.3685 115.378 83.6962 122.426 87.9345 124.877C92.1729 127.329 99.5771 124.877 106.726 118.596L108.411 117.064C109.106 117.768 109.839 118.433 110.607 119.055C117.501 124.929 124.343 127.329 128.53 124.877C132.718 122.426 134.301 114.663 132.462 105.573C132.353 104.849 132.2 104.133 132.003 103.428L133.484 102.968C142.828 99.9037 148.803 94.9498 148.803 89.8938C148.803 84.8377 143.135 80.2924 134.352 77.3303H134.403ZM112.496 63.6943C118.522 58.5872 124.139 56.4933 126.692 57.9233C129.399 59.5065 130.471 65.7882 128.735 74.0107C128.735 74.5724 128.735 75.0832 128.377 75.6449C124.792 74.8347 121.16 74.2547 117.501 73.9085C115.413 71.0269 113.144 68.2806 110.709 65.6861L112.547 63.9497L112.496 63.6943ZM91.6112 94.2859C92.3261 95.6478 93.0919 97.0267 93.9089 98.4227C94.726 99.8016 95.5941 101.232 96.4621 102.559C93.96 102.559 91.3557 101.895 88.9557 101.385C89.7115 98.9721 90.598 96.6023 91.6112 94.2859V94.2859ZM91.6112 86.1656C90.5899 83.7653 89.7217 81.416 89.0068 79.1689C91.3558 78.6581 93.8069 78.2496 96.4112 77.9432C95.5431 79.2199 94.726 80.5989 93.9089 81.9778C93.0919 83.3567 92.3261 84.7867 91.6112 86.1656ZM93.4494 90.2002C94.4707 88.0552 95.6451 85.8592 96.9217 83.7142C98.1983 81.5692 99.475 79.4753 100.854 77.4835C103.254 77.4835 105.705 77.2282 108.207 77.2282C110.709 77.2282 113.313 77.2281 115.611 77.4835C116.99 79.4753 118.267 81.5181 119.543 83.7142C120.82 85.9102 121.994 88.0552 123.067 90.1491C121.994 92.3452 120.82 94.4902 119.594 96.6862C118.318 98.8823 117.041 100.976 115.713 102.968C113.313 102.968 110.607 102.968 108.258 102.968C105.909 102.968 103.152 102.968 100.905 102.968C99.5261 100.976 98.1984 98.8823 96.9728 96.7373C95.7473 94.5923 94.5218 92.3963 93.5005 90.2002H93.4494ZM122.607 98.4227C123.424 96.9927 124.241 95.5627 124.956 94.1327C125.994 96.451 126.914 98.8203 127.713 101.232C125.205 101.81 122.664 102.236 120.105 102.508C120.973 101.18 121.79 99.8527 122.607 98.4227ZM124.956 86.1656C124.19 84.7867 123.424 83.3567 122.607 81.9778C121.79 80.5989 120.973 79.2199 120.156 77.9432C122.646 78.2273 125.118 78.6536 127.56 79.2199C126.845 81.416 125.977 83.7653 124.956 86.1656ZM108.309 68.1375C110.006 69.9609 111.608 71.8701 113.109 73.8575H108.309H103.509C105.092 71.8146 106.675 69.8739 108.309 68.1375ZM89.6196 58.2808C92.326 56.7487 98.3516 58.9447 104.684 64.5625L105.909 65.6861C103.4 68.3469 101.079 71.1797 98.9644 74.1639C95.3209 74.4718 91.7035 75.0349 88.1388 75.8492C88.1388 74.981 87.7302 74.1639 87.5771 73.3468C86.0451 65.635 87.0664 59.7618 89.6196 58.0254V58.2808ZM85.6366 100.312L83.6452 99.6484C80.2022 98.521 76.9864 96.7919 74.1472 94.5413C73.3443 93.9887 72.663 93.2778 72.1449 92.4522C71.6268 91.6267 71.2829 90.7039 71.1344 89.7406C71.1344 86.7784 75.5259 83.0503 82.8791 80.4967L85.6877 79.6285C86.7778 83.1212 88.1086 86.5341 89.6707 89.8427C88.0999 93.1538 86.7522 96.5661 85.6366 100.057V100.312ZM104.428 115.736C101.777 118.174 98.6947 120.097 95.3387 121.405V121.405C94.4454 121.797 93.4804 122 92.5047 122C91.529 122 90.564 121.797 89.6707 121.405C87.1175 119.975 86.0452 114.306 87.475 106.696L88.0877 103.989C91.6891 104.77 95.3404 105.299 99.0153 105.573C101.162 108.579 103.499 111.444 106.011 114.153L104.428 115.531V115.736ZM108.411 111.65C106.777 109.846 105.075 107.905 103.305 105.828C104.888 105.828 106.471 105.828 108.054 105.828C109.637 105.828 111.373 105.828 113.16 105.828C111.69 107.858 110.104 109.802 108.411 111.65V111.65ZM129.45 116.451C129.388 117.44 129.12 118.406 128.663 119.286C128.205 120.165 127.569 120.939 126.794 121.558C124.241 123.039 118.777 121.149 112.905 116.093L110.862 114.204C113.323 111.506 115.593 108.639 117.654 105.624C121.349 105.324 125.018 104.76 128.633 103.938C128.828 104.575 128.981 105.223 129.092 105.879V105.879C129.873 109.384 129.994 113.004 129.45 116.553V116.451ZM132.411 99.3419L131.033 99.7505C129.897 96.2597 128.532 92.8475 126.947 89.5363C128.488 86.2247 129.802 82.8121 130.879 79.3221C131.696 79.5234 132.497 79.7794 133.279 80.0881C140.837 82.6417 145.382 86.4209 145.382 89.3831C145.382 92.3452 140.275 96.533 132.411 99.1887" fill="white"/>
<path d="M108.255 82.6896C110.164 82.6896 111.996 83.4483 113.346 84.7988C114.696 86.1492 115.455 87.9808 115.455 89.8906C115.465 91.3293 115.047 92.7384 114.254 93.9388C113.461 95.1392 112.329 96.0766 111.002 96.6318C109.675 97.187 108.213 97.335 106.802 97.0568C105.391 96.7786 104.094 96.0869 103.077 95.0696C102.06 94.0523 101.368 92.7554 101.09 91.3439C100.812 89.9324 100.96 88.47 101.515 87.1428C102.07 85.8156 103.007 84.6835 104.207 83.8905C105.408 83.0975 106.816 82.6795 108.255 82.6896" fill="white"/>
<path d="M60 132.382C61.6813 132.054 63.3943 131.917 65.1064 131.974C67.1438 131.766 69.1849 132.331 70.8255 133.557C71.3204 134.042 71.7115 134.623 71.9748 135.264C72.2382 135.904 72.3683 136.592 72.3574 137.285C72.3998 138.431 72.0551 139.559 71.3789 140.485C70.7027 141.412 69.7343 142.083 68.6298 142.392C69.4119 142.756 70.089 143.313 70.598 144.009C71.107 144.706 71.4313 145.52 71.5405 146.376C71.8917 148.116 72.3869 149.825 73.0212 151.483H70.4171C69.814 149.967 69.369 148.392 69.0894 146.784C68.5277 144.129 67.4554 143.107 65.1575 143.005H62.7575V151.483H60.2043L60 132.382ZM62.5532 141.269H65.1575C67.8639 141.269 69.6 139.788 69.6 137.592C69.6 135.396 67.7617 133.915 65.1064 133.915C64.2583 133.813 63.4013 133.813 62.5532 133.915V141.269Z" fill="white"/>
<path d="M77.2088 145.146C77.1232 145.757 77.1642 146.378 77.3291 146.972C77.4939 147.566 77.779 148.12 78.167 148.599C78.5549 149.078 79.0373 149.472 79.584 149.757C80.1307 150.041 80.7301 150.21 81.3449 150.253H82.3151C83.6621 150.303 85.0037 150.059 86.247 149.538L86.7065 151.377C85.2191 151.994 83.6184 152.29 82.0088 152.245C80.2692 152.357 78.5562 151.775 77.2449 150.627C75.9336 149.478 75.1311 147.856 75.0131 146.117V145.146C74.8265 143.34 75.3601 141.533 76.4978 140.118C77.6356 138.703 79.2856 137.794 81.0896 137.588H81.6513C83.2316 137.615 84.7382 138.261 85.8462 139.389C86.9542 140.516 87.5749 142.033 87.5747 143.614C87.5747 143.614 87.5747 144.023 87.5747 144.176C87.614 144.584 87.614 144.994 87.5747 145.402L77.2088 145.146ZM84.7662 143.308C84.8382 142.831 84.8144 142.345 84.6961 141.877C84.5778 141.41 84.3675 140.97 84.0774 140.585C83.7874 140.2 83.4235 139.876 83.0069 139.634C82.5903 139.391 82.1294 139.234 81.6513 139.171H81.1917C80.1346 139.259 79.1476 139.736 78.4215 140.51C77.6953 141.283 77.2815 142.298 77.2599 143.359L84.7662 143.308Z" fill="white"/>
<path d="M98.2977 151.683V149.896C97.8025 150.575 97.1472 151.122 96.39 151.487C95.6328 151.852 94.7972 152.025 93.9573 151.99C93.4339 152.031 92.9074 151.969 92.4082 151.807C91.9089 151.645 91.4467 151.385 91.048 151.043C90.6494 150.702 90.3223 150.284 90.0854 149.816C89.8486 149.347 89.7067 148.836 89.668 148.312C89.668 148.312 89.668 148.057 89.668 147.955C89.668 144.584 92.7317 142.848 98.1955 142.848C98.297 142.083 98.0905 141.308 97.6213 140.695C97.152 140.082 96.4586 139.681 95.6934 139.579C95.4579 139.528 95.2142 139.528 94.9786 139.579C93.6839 139.585 92.4144 139.938 91.302 140.601L90.7403 138.915C92.143 138.078 93.7537 137.653 95.3871 137.69C99.7275 137.69 100.749 140.601 100.749 143.461V148.568C100.647 149.689 100.647 150.817 100.749 151.939L98.2977 151.683ZM97.8891 144.482C95.0806 144.482 91.9148 144.942 91.9148 147.649C91.8716 148.242 92.0604 148.829 92.4413 149.287C92.8223 149.744 93.3657 150.035 93.9573 150.1H94.3148C95.0602 150.121 95.7931 149.905 96.4079 149.483C97.0227 149.06 97.4877 148.454 97.736 147.751C97.7848 147.481 97.7848 147.204 97.736 146.934L97.8891 144.482Z" fill="white"/>
<path d="M114.639 151.174C113.363 151.718 111.991 151.996 110.605 151.991C108.825 152.089 107.079 151.478 105.749 150.291C104.418 149.104 103.612 147.438 103.507 145.659C103.482 145.37 103.482 145.079 103.507 144.79C103.437 143.833 103.563 142.872 103.876 141.964C104.188 141.057 104.682 140.222 105.326 139.511C105.971 138.8 106.752 138.226 107.625 137.826C108.497 137.425 109.441 137.206 110.401 137.181H111.115C112.344 137.16 113.563 137.404 114.69 137.896L114.128 139.888C113.198 139.411 112.16 139.182 111.115 139.224C110.404 139.221 109.7 139.366 109.049 139.651C108.397 139.936 107.813 140.354 107.332 140.878C106.851 141.402 106.485 142.021 106.257 142.695C106.03 143.368 105.945 144.082 106.009 144.79C106.009 146.145 106.547 147.444 107.505 148.402C108.462 149.359 109.761 149.898 111.115 149.898C112.21 149.887 113.289 149.643 114.281 149.183L114.639 151.174Z" fill="white"/>
<path d="M121.171 133.559V137.644H124.848V139.585H121.171V147.399C121.171 149.186 121.631 150.157 123.061 150.157C123.568 150.234 124.085 150.234 124.593 150.157V152.097C123.853 152.348 123.075 152.469 122.295 152.455C121.786 152.477 121.278 152.393 120.803 152.208C120.329 152.024 119.898 151.742 119.537 151.382C118.77 150.317 118.408 149.013 118.516 147.705V140.045H116.32V138.104H118.516V134.682L121.171 133.559Z" fill="white"/>
<path d="M138.079 132.072H140.632V145.198C140.632 150.305 138.028 151.99 134.658 151.99C133.72 151.987 132.789 151.831 131.9 151.53L132.309 149.487C132.996 149.738 133.723 149.859 134.454 149.845C136.7 149.845 138.079 148.824 138.079 144.738V132.072Z" fill="white"/>
<path d="M144.511 148.622C145.885 149.445 147.454 149.886 149.056 149.899C151.66 149.899 153.192 148.52 153.192 146.528C153.192 144.536 152.17 143.668 149.515 142.647C146.86 141.625 144.409 139.838 144.409 137.08C144.552 135.621 145.253 134.275 146.367 133.322C147.481 132.37 148.92 131.887 150.383 131.973H150.792C152.296 131.934 153.787 132.267 155.132 132.943L154.417 134.986C153.269 134.378 151.989 134.062 150.69 134.067C147.983 134.067 146.962 135.701 146.962 137.029C146.962 138.357 148.136 139.735 150.894 140.808C153.651 141.88 156 143.668 156 146.528C156 149.388 153.805 151.993 148.698 151.993C146.914 152.021 145.153 151.58 143.592 150.716L144.511 148.622Z" fill="white"/>
</g>
<defs>
<clipPath id="clip0_5527_671">
<rect width="216" height="206.929" fill="white"/>
</clipPath>
</defs>
</svg>
