<svg width="231" height="127" viewBox="0 0 231 127" fill="none" xmlns="http://www.w3.org/2000/svg">
<g clip-path="url(#clip0_503_3957)">
<path d="M70.0116 55.1412C69.8932 59.5513 69.8065 63.9448 71.0477 68.3343C70.2716 68.3247 69.6359 68.1719 69.0057 68.0123C68.8131 67.9641 68.7594 67.7467 68.7388 67.5623C68.5723 66.1313 68.2902 64.7127 68.2902 63.2637C68.2902 62.7285 68.2613 62.1946 68.1264 61.6731C68.0177 63.7054 68.0425 65.7323 68.2159 67.7908C67.5183 67.8843 66.9307 67.7454 66.2688 67.561C66.1271 65.0016 66.2372 62.456 66.5963 59.9159C66.0102 62.3748 65.6744 64.8723 65.5231 67.433C64.7222 67.4536 63.9874 67.3284 63.2582 67.1743C62.8495 67.0876 62.8963 66.7326 62.9444 66.4478C63.093 65.5451 63.2485 64.6411 63.4425 63.7467C64.3177 59.7219 65.9262 55.9902 68.0136 52.4539C68.7828 51.1508 69.5217 49.8312 70.4312 48.6162C70.5124 48.5075 70.595 48.3933 70.5757 48.1594C70.035 47.7603 69.4557 47.32 68.8654 46.8962C66.778 45.4005 64.8048 43.7603 62.8096 42.149C61.3648 40.9835 59.9723 39.7603 58.5688 38.5466C57.8381 37.9151 57.1694 37.2229 56.6423 36.407C56.4566 36.1208 56.2227 35.8263 56.4346 35.4616C56.6272 35.13 56.9712 35.1603 57.2932 35.1589C58.1491 35.152 58.9774 35.3364 59.803 35.5249C62.295 36.0919 64.6507 37.0385 66.9871 38.0568C69.336 39.0805 71.488 40.407 73.5644 41.9123C72.9865 41.3881 72.4141 40.8569 71.8293 40.3423C71.4853 40.0396 71.122 39.7603 70.7615 39.4768C70.5386 39.3007 70.3817 39.0792 70.2826 38.8177C69.6387 37.1252 68.9809 35.4383 68.3631 33.7375C68.1058 33.0289 67.8898 32.2982 67.8829 31.5304C67.8815 31.3694 67.8705 31.2057 67.898 31.0502C67.9778 30.5961 68.2654 30.4296 68.6934 30.6112C69.4639 30.9374 70.0928 31.4836 70.7271 32.0065C72.5599 33.5132 74.1176 35.2814 75.5637 37.1541C76.4182 38.2604 77.259 39.3764 78.0392 40.5363C78.1135 40.6478 78.1795 40.7744 78.3928 40.8528C79.2583 40.2116 80.1582 39.5484 81.0553 38.8796C81.7722 38.3444 82.474 37.7967 83.3918 37.6206C84.5215 37.4046 85.5273 37.6509 86.4217 38.3526C86.9529 38.7709 86.9433 38.7888 87.5432 38.4558C90.7905 36.6519 94.2278 35.3488 97.8604 34.5659C98.0379 34.5273 98.2099 34.4489 98.5292 34.603C94.6695 35.9997 91.0823 37.7114 87.8693 40.1015C87.7578 40.3492 87.8459 40.5831 87.8913 40.7923C88.0551 41.5463 87.8941 42.2467 87.623 42.9388C86.7286 45.2216 85.8493 47.5113 84.9357 49.7872C84.2532 51.4879 83.2019 52.9052 81.6181 53.8835C80.4595 54.5991 79.1854 54.9706 77.8369 54.9926C75.5211 55.0297 73.2053 55.0008 70.8895 55.0064C70.6211 55.0064 70.3391 54.9444 70.0157 55.1426L70.0116 55.1412ZM84.754 39.053C84.2146 39.0544 83.7358 39.5401 83.7578 40.063C83.7798 40.6106 84.2229 41.0427 84.7788 41.0633C85.3003 41.0812 85.775 40.5955 85.7681 40.052C85.7613 39.5085 85.2989 39.053 84.7554 39.0544L84.754 39.053Z" fill="#EEEEEE"/>
<path d="M80.8818 80.7054C80.8061 81.5296 80.8571 82.3456 80.8502 83.2331C81.5891 83.3556 82.2936 83.2827 82.9912 83.2964C83.6792 83.3102 84.3672 83.2992 85.0539 83.2992H87.2678C87.3738 84.2404 87.3284 85.1169 87.2926 86.1035C86.2111 86.1764 85.1653 86.1282 84.1237 86.1365C83.0724 86.1447 82.0225 86.1379 80.8598 86.1379C80.8337 87.2166 80.8337 88.2321 80.8598 89.2036C81.1309 89.443 81.3937 89.3728 81.6373 89.3742C83.2651 89.3811 84.8929 89.377 86.5207 89.377C87.8389 89.377 87.7205 89.2916 87.7233 90.5493C87.7233 90.98 87.7233 91.4121 87.7233 91.8428C87.7728 91.8634 87.8224 91.884 87.8733 91.9047C89.0553 90.27 90.2359 88.6339 91.4316 86.98C90.3487 85.3618 89.1475 83.895 88.0769 82.2176C88.7787 82.0195 89.4254 82.0773 90.0419 81.9589C90.1973 81.9287 90.3735 81.9782 90.5207 81.9314C91.2968 81.6851 91.7123 82.0553 92.0068 82.724C92.1526 83.057 92.3811 83.3528 92.5641 83.6707C92.7333 83.9665 92.8929 84.2679 93.0842 84.6174C93.5355 83.9087 93.9841 83.2579 94.3735 82.5713C94.5992 82.175 94.8813 82.0429 95.3202 82.0594C96.0522 82.0883 96.787 82.0635 97.5204 82.0704C97.6952 82.0718 97.8878 82.0099 98.0942 82.2314C97.0209 83.7932 95.9394 85.3687 94.8413 86.9662C96.077 88.6436 97.281 90.2782 98.4602 91.8785C98.3446 92.1358 98.1768 92.1358 98.0185 92.151C97.175 92.228 96.3302 92.2858 95.4894 92.3849C95.1138 92.4289 94.9473 92.2019 94.7753 91.957C94.2125 91.1575 93.6566 90.3539 93.0759 89.5214C92.582 90.3539 91.9779 91.097 91.4234 91.8772C91.2211 92.162 90.9968 92.312 90.6308 92.3106C86.4354 92.301 82.2399 92.3051 78.0459 92.3023C77.911 92.3023 77.7762 92.2707 77.6634 92.2569C77.4212 92.0368 77.49 91.7698 77.49 91.5263C77.4859 87.1712 77.4859 82.8148 77.4886 78.4598C77.4886 77.7099 77.5065 77.6906 78.2647 77.6906C81.1763 77.6865 84.0879 77.6865 86.9995 77.6906C87.6958 77.6906 87.7178 77.7222 87.7247 78.4419C87.7288 78.9001 87.7274 79.3583 87.7247 79.8179C87.7192 80.5953 87.7082 80.6077 86.8991 80.6091C85.1791 80.6118 83.4605 80.6091 81.7405 80.6118C81.49 80.6118 81.2355 80.5788 80.8832 80.7054H80.8818Z" fill="#EEEEEE"/>
<path d="M89.3503 74.8833C89.0833 75.1502 88.8425 75.0814 88.6224 75.0842C87.9577 75.0938 87.2931 75.0911 86.6285 75.0869C85.8896 75.0828 85.8882 75.0801 85.6571 74.3934C85.2456 73.1743 84.7407 71.9978 84.043 70.9122C83.1638 69.543 82.5886 69.3022 80.8342 69.605V75.036C79.7114 75.175 78.6725 75.109 77.6529 75.0856C77.4561 74.5751 77.3873 61.6943 77.5579 60.6541C77.7575 60.4477 78.023 60.5013 78.2679 60.5C80.0788 60.4958 81.8882 60.4821 83.6976 60.5055C84.4049 60.5151 85.1025 60.6169 85.7919 60.8261C88.1738 61.5485 89.3847 64.7202 87.8435 67.0539C87.6165 67.3979 87.3729 67.7364 87.0413 67.9882C86.7152 68.2358 86.3712 68.4629 85.9942 68.7271C87.5972 70.5379 88.5604 72.6817 89.3489 74.8833H89.3503ZM80.8892 66.6548C81.8194 66.6548 82.6849 66.6617 83.5504 66.6493C83.7293 66.6466 83.9123 66.5915 84.0843 66.5324C84.7751 66.2916 85.1975 65.6696 85.1755 64.9458C85.1548 64.2289 84.698 63.6152 83.9894 63.435C82.978 63.1777 81.9543 63.307 80.8892 63.3318V66.6562V66.6548Z" fill="#EEEEEE"/>
<path d="M130.808 60.5444C131.026 61.0756 130.904 61.6301 130.916 62.1695C130.945 63.5111 130.925 63.3955 129.675 63.3955C128.094 63.3955 126.513 63.3941 124.932 63.3983C124.683 63.3983 124.427 63.3584 124.08 63.5111C124.016 64.2679 124.021 65.0715 124.08 65.8407C124.386 66.0622 124.669 65.9934 124.936 65.9948C126.541 66.0017 128.145 65.9948 129.748 65.9989C130.499 66.0003 130.52 66.025 130.527 66.7695C130.531 67.2731 130.535 67.7781 130.526 68.2817C130.515 68.8651 130.477 68.9105 129.894 68.9133C128.268 68.9215 126.64 68.916 125.013 68.9174C124.716 68.9174 124.42 68.9174 124.084 68.9174V72.1716H130.674C130.907 72.3601 130.919 72.5211 130.92 72.6835C130.923 73.2793 130.936 73.8751 130.918 74.4709C130.904 74.9773 130.815 75.0502 130.301 75.0805C130.187 75.0874 130.073 75.0833 129.957 75.0833C127.161 75.0833 124.365 75.0833 121.569 75.0833C121.386 75.0833 121.202 75.0805 121.02 75.0695C120.778 75.053 120.644 74.9126 120.622 74.676C120.606 74.4943 120.606 74.3099 120.606 74.1269C120.606 69.9109 120.606 65.6934 120.606 61.4774C120.606 61.3164 120.61 61.1568 120.613 60.9958C120.62 60.6284 120.801 60.4674 121.174 60.4688C124.291 60.4756 127.408 60.4743 130.524 60.4798C130.612 60.4798 130.699 60.5197 130.81 60.5472L130.808 60.5444Z" fill="#EEEEEE"/>
<path d="M102.194 91.9036C102.12 93.4338 102.234 94.9432 102.137 96.3619C101.999 96.5435 101.888 96.5738 101.772 96.5738C100.97 96.5779 100.168 96.5738 99.3654 96.5834C98.9884 96.5889 98.8137 96.4238 98.8302 96.0482C98.837 95.9106 98.8302 95.773 98.8302 95.6354C98.8302 91.4633 98.8302 87.2913 98.8302 83.1193C98.8302 82.9362 98.8329 82.7519 98.8439 82.5702C98.8549 82.3913 98.9458 82.2716 99.1274 82.2304C100.085 82.013 101.061 81.9593 101.977 81.8203C102.261 82.1409 102.115 82.4684 102.2 82.7285C102.277 82.7945 102.342 82.7821 102.395 82.7381C104.702 80.8296 108.568 82.0666 109.282 85.3566C109.621 86.9129 109.508 88.4058 108.786 89.8355C107.627 92.1266 105.061 93.054 102.713 92.0371C102.57 91.9752 102.444 91.8555 102.193 91.905L102.194 91.9036ZM106.189 87.239C106.159 86.8647 106.163 86.5868 106.109 86.3185C105.98 85.6772 105.753 85.1021 105.12 84.7553C103.847 84.0563 102.065 84.7883 102.06 86.5744C102.058 87.1922 102.102 87.8155 102.047 88.4279C101.989 89.0705 102.307 89.4062 102.826 89.6511C103.225 89.8396 103.638 89.9442 104.084 89.9483C104.966 89.9552 105.557 89.5438 105.91 88.7498C106.138 88.2352 106.16 87.6862 106.189 87.239V87.239Z" fill="#EEEEEE"/>
<path d="M110.631 72.2387C110.897 72.9542 110.824 73.6491 110.885 74.3261C110.904 74.538 110.799 74.6715 110.625 74.7678C109.587 75.3361 108.049 75.5246 106.981 74.7073C106.718 74.5064 106.539 74.2504 106.355 73.9367C105.872 74.3357 105.434 74.7389 104.872 74.9508C102.34 75.9057 99.9097 74.5848 99.2629 72.302C98.7015 70.3151 98.7882 68.3914 100.089 66.6852C100.982 65.5128 102.265 64.9789 103.683 64.7368C105.488 64.4285 107.231 64.7588 108.964 65.2431C109.427 65.3725 109.484 65.6697 109.482 66.0701C109.473 67.9483 109.471 69.8252 109.485 71.7034C109.488 72.0062 109.327 72.3928 109.663 72.591C110.033 72.8084 110.271 72.4162 110.631 72.236V72.2387ZM106.131 69.3642H106.132C106.132 68.8606 106.139 68.3556 106.131 67.852C106.121 67.3154 106.041 67.2122 105.511 67.1489C105.149 67.1048 104.779 67.1035 104.413 67.1145C103.567 67.1406 102.934 67.5176 102.539 68.2855C102 69.3353 102.058 70.4183 102.402 71.4902C102.691 72.3887 103.524 72.8386 104.467 72.701C105.39 72.5662 106.093 71.8039 106.128 70.8765C106.146 70.3729 106.131 69.8692 106.131 69.3642V69.3642Z" fill="#EEEEEE"/>
<path d="M155.078 74.0331C154.516 74.4377 154.002 74.8697 153.352 75.0637C151.251 75.6898 149.06 74.9083 148.209 72.708C147.379 70.5628 147.47 68.4755 148.914 66.5931C149.736 65.5239 150.929 65.0244 152.214 64.7726C154.108 64.4025 155.95 64.7465 157.777 65.2474C158.196 65.3616 158.209 65.6505 158.208 65.9876C158.204 67.8219 158.207 69.6561 158.205 71.4903C158.205 72.8209 158.273 72.8663 159.484 72.2429C159.552 72.9667 159.624 73.6588 159.683 74.351C159.704 74.5987 159.508 74.7032 159.327 74.8092C158.196 75.4628 156.138 75.5674 155.24 74.1473C155.218 74.1129 155.168 74.0964 155.076 74.0317L155.078 74.0331ZM154.958 69.1703H154.961C154.961 68.9419 154.961 68.7135 154.961 68.4851C154.959 67.1036 154.878 67.0251 153.501 67.0651C152.078 67.1063 151.228 67.7943 150.955 69.1745C150.812 69.901 150.841 70.6371 151.091 71.3403C151.289 71.8976 151.621 72.3654 152.235 72.525C153.798 72.9296 154.9 72.0544 154.956 70.611C154.976 70.1322 154.959 69.6506 154.959 69.1717L154.958 69.1703Z" fill="#EEEEEE"/>
<path d="M169.913 71.5209C170.006 72.1071 170.38 72.4511 170.917 72.5984C172.121 72.9286 173.23 72.7387 174.194 71.9049C174.366 71.7562 174.533 71.6008 174.705 71.4508C174.72 71.437 174.747 71.4384 174.875 71.404C175.195 72.0755 175.471 72.7882 175.711 73.5148C175.775 73.7129 175.587 73.845 175.457 73.9716C174.99 74.4284 174.425 74.7435 173.816 74.9486C172.531 75.382 171.214 75.488 169.901 75.1041C168.119 74.5826 166.991 73.4212 166.655 71.5677C166.356 69.9193 166.456 68.3162 167.419 66.8783C168.258 65.6248 169.474 64.9272 170.956 64.7565C172.038 64.6327 173.109 64.7469 174.096 65.2753C175.174 65.8505 175.796 66.7173 175.808 67.964C175.821 69.2368 175.204 70.1683 174.119 70.7476C172.921 71.3875 171.616 71.5966 170.26 71.4453C170.169 71.4356 170.08 71.4109 169.913 71.5209V71.5209ZM169.839 69.2533C170.626 69.2093 171.417 69.2217 172.178 68.9492C172.284 68.9107 172.379 68.8419 172.474 68.7786C172.791 68.5639 172.905 68.2612 172.857 67.8883C172.807 67.5044 172.579 67.2815 172.228 67.1522C170.91 66.6664 169.726 67.631 169.839 69.2547V69.2533Z" fill="#EEEEEE"/>
<path d="M119.867 88.6567C120.056 89.4177 120.508 89.8057 121.202 89.9282C122.52 90.1635 123.651 89.8387 124.534 88.7916C124.592 88.7228 124.65 88.6471 124.84 88.6595C125.188 89.247 125.422 89.9337 125.678 90.6093C125.756 90.8171 125.627 90.956 125.498 91.0909C125.225 91.373 124.923 91.6179 124.577 91.8023C123.225 92.5261 121.759 92.6595 120.299 92.3802C118.164 91.9729 116.782 90.3355 116.605 88.1545C116.518 87.0991 116.581 86.0561 116.961 85.0406C117.606 83.311 119.37 82.0052 121.211 81.9405C122.038 81.9116 122.861 81.9212 123.652 82.2212C124.594 82.5776 125.339 83.1679 125.704 84.1214C126.257 85.5662 125.622 87.161 124.232 87.9453C123.117 88.5728 121.476 88.8521 119.871 88.6581L119.867 88.6567ZM119.857 86.3877C120.089 86.5363 120.301 86.495 120.499 86.4799C121.136 86.4304 121.778 86.3822 122.363 86.0905C122.779 85.8827 122.949 85.558 122.905 85.1507C122.861 84.7461 122.615 84.4916 122.154 84.3705C121.181 84.1159 120.299 84.5948 119.999 85.5594C119.919 85.8153 119.819 86.0767 119.857 86.3891V86.3877Z" fill="#EEEEEE"/>
<path d="M92.4902 71.4706C92.7008 72.2921 93.2842 72.6003 94.0025 72.7035C95.1652 72.87 96.1779 72.5343 97.0173 71.7032C97.1136 71.6082 97.2017 71.505 97.2787 71.4197C97.5291 71.4101 97.5553 71.6027 97.6145 71.7362C97.7631 72.0706 97.8938 72.4132 98.0259 72.7558C98.3809 73.6819 98.3768 73.7686 97.5126 74.2997C95.5683 75.4913 93.5346 75.6041 91.4802 74.6313C90.5363 74.1841 89.9089 73.3805 89.5153 72.4146C88.6883 70.3808 89.0117 67.4582 90.8721 65.902C91.7142 65.1988 92.6526 64.7929 93.7424 64.7337C94.956 64.6677 96.1201 64.7998 97.1507 65.536C98.9299 66.806 98.8212 69.5415 96.9278 70.6272C95.7018 71.3303 94.3795 71.6303 92.9636 71.4252C92.8728 71.4128 92.7806 71.4087 92.6898 71.4115C92.6471 71.4115 92.6044 71.4376 92.4902 71.4734V71.4706ZM92.3623 69.2635C93.1755 69.203 93.9681 69.2236 94.7249 68.9402C94.9175 68.8672 95.0881 68.7448 95.2202 68.5838C95.5518 68.1806 95.4638 67.5449 95.04 67.256C94.3877 66.8115 93.2553 67.0055 92.8287 67.6591C92.5274 68.1187 92.3361 68.6237 92.3623 69.2649V69.2635Z" fill="#EEEEEE"/>
<path d="M143.831 83.1813C143.461 83.8556 143.156 84.5835 142.675 85.1917C142.417 85.1999 142.314 85.0266 142.18 84.911C141.634 84.4335 140.966 84.2849 140.277 84.2188C139.926 84.1844 139.593 84.2987 139.318 84.5243C138.946 84.8298 138.985 85.1765 139.427 85.3664C139.976 85.6031 140.576 85.6636 141.155 85.7944C141.854 85.954 142.525 86.1728 143.096 86.6213C144.69 87.8735 144.683 90.1728 143.088 91.4387C141.784 92.4735 140.273 92.7046 138.677 92.5409C137.683 92.4391 136.774 92.0552 135.911 91.5639C135.714 91.4511 135.5 91.3575 135.35 91.0534C135.742 90.3531 136.159 89.6073 136.571 88.8697C136.921 88.9784 137.083 89.2179 137.306 89.3706C138.154 89.9499 139.069 90.2237 140.098 90.0696C140.354 90.0311 140.587 89.9416 140.794 89.7958C141.218 89.4958 141.2 89.0789 140.75 88.8174C140.409 88.6179 140.02 88.556 139.644 88.4597C138.89 88.2657 138.137 88.0799 137.44 87.7084C135.612 86.7342 135.505 84.3413 136.918 83.0465C138.791 81.3306 142.011 81.5178 143.831 83.1813V83.1813Z" fill="#EEEEEE"/>
<path d="M126.187 91.1042C126.578 90.3364 126.925 89.5727 127.417 88.9081C127.701 88.904 127.805 89.1104 127.959 89.2356C128.843 89.947 129.835 90.2566 130.966 90.075C131.033 90.0639 131.103 90.0571 131.168 90.0378C131.613 89.9085 131.991 89.5603 131.961 89.2824C131.914 88.8517 131.545 88.7664 131.222 88.6687C130.499 88.4485 129.765 88.271 129.045 88.0412C128.407 87.8376 127.813 87.5321 127.38 86.9996C126.345 85.7282 126.633 83.8541 128.047 82.8234C129.675 81.6359 131.445 81.5919 133.261 82.3061C133.756 82.5014 134.293 82.6886 134.649 83.2197C134.278 83.8898 133.906 84.5613 133.491 85.3126C132.869 84.7127 132.207 84.3728 131.442 84.2503C130.944 84.1705 130.476 84.2366 130.084 84.5641C129.762 84.8324 129.799 85.131 130.166 85.3305C130.512 85.5176 130.904 85.5782 131.285 85.6484C131.873 85.7571 132.453 85.8919 133.008 86.1093C134.127 86.5469 134.905 87.2886 135.07 88.5421C135.242 89.8562 134.746 90.884 133.672 91.6161C132.067 92.7114 130.303 92.8228 128.475 92.3302C127.453 92.055 126.791 91.678 126.187 91.1042V91.1042Z" fill="#EEEEEE"/>
<path d="M139.736 65.965C139.387 66.6034 139.076 67.3066 138.633 67.8969C138.331 67.8969 138.209 67.7111 138.051 67.5873C137.422 67.0974 136.698 66.9351 135.918 66.9942C135.783 67.0039 135.645 67.0396 135.52 67.0905C135.238 67.2089 134.956 67.3616 134.971 67.7166C134.985 68.0386 135.297 68.0785 135.527 68.1446C136.252 68.3523 136.988 68.5257 137.716 68.728C138.114 68.8381 138.481 69.0211 138.84 69.2316C140.544 70.2306 140.565 72.5615 139.374 73.749C138.602 74.5196 137.687 74.986 136.61 75.1608C134.86 75.4429 133.24 75.1044 131.739 74.1769C131.586 74.0834 131.415 73.9967 131.316 73.7573C131.597 73.0032 132.065 72.3056 132.469 71.5983C132.791 71.5474 132.897 71.7992 133.071 71.9286C133.989 72.6111 134.974 73.0225 136.143 72.717C136.276 72.6826 136.413 72.6551 136.533 72.5932C136.779 72.4652 137.042 72.3097 137.047 72.0015C137.053 71.663 136.754 71.5598 136.492 71.4814C135.769 71.2626 135.038 71.0686 134.316 70.8498C133.855 70.7108 133.402 70.5429 133.016 70.2416C131.303 68.9124 131.663 66.7465 133.003 65.6705C134.176 64.7293 135.542 64.4417 137.016 64.666C137.745 64.7775 138.443 65.0045 139.078 65.3912C139.31 65.5315 139.575 65.6347 139.738 65.9677L139.736 65.965Z" fill="#EEEEEE"/>
<path d="M166.211 72.2194C166.285 72.9308 166.357 73.5403 166.41 74.1499C166.428 74.3508 166.304 74.498 166.139 74.5985C164.906 75.3553 162.852 75.5452 161.689 74.7196C160.959 74.2008 160.613 73.4881 160.608 72.6074C160.598 71.0484 160.602 69.4908 160.601 67.9318C160.601 67.7047 160.601 67.4777 160.601 67.2823C160.196 66.9232 159.684 67.2644 159.296 66.9355C159.149 66.3163 159.382 65.6944 159.426 65.0628C159.441 64.8523 159.64 64.7904 159.834 64.7642C160.057 64.7339 160.295 64.8027 160.542 64.6335C160.663 63.9854 160.579 63.3001 160.594 62.6204C160.612 61.8127 160.626 61.7948 161.436 61.6999C161.935 61.6407 162.432 61.5623 162.93 61.4893C163.199 61.4494 163.468 61.3682 163.801 61.5581C163.911 62.5544 163.781 63.6056 163.873 64.6651C164.36 64.8234 164.82 64.7312 165.27 64.7546C165.842 64.7849 165.893 64.8248 165.902 65.3958C165.912 65.9173 165.904 66.4402 165.904 66.9424C165.219 67.2506 164.55 66.9699 163.986 67.1529C163.852 67.2809 163.845 67.3965 163.845 67.5107C163.843 68.9321 163.832 70.3521 163.847 71.7736C163.855 72.5551 164.251 72.8537 165.012 72.6611C165.382 72.5675 165.733 72.3983 166.209 72.2194H166.211Z" fill="#EEEEEE"/>
<path d="M147.142 72.2236C147.394 72.9309 147.302 73.5831 147.403 74.2092C147.435 74.4032 147.259 74.5367 147.09 74.6247C145.811 75.2852 144.486 75.5164 143.118 74.955C142.131 74.5491 141.631 73.7592 141.617 72.6956C141.598 71.1146 141.612 69.5335 141.608 67.9525C141.608 67.7048 141.635 67.4516 141.547 67.2026C141.167 66.9769 140.708 67.2246 140.3 66.9508C140.156 66.3343 140.424 65.7151 140.434 65.0849C140.437 64.873 140.629 64.796 140.825 64.7684C141.049 64.7368 141.286 64.796 141.537 64.6556C141.692 64.0997 141.576 63.5039 141.608 62.9177C141.621 62.6659 141.613 62.4141 141.62 62.1623C141.626 61.9518 141.74 61.7922 141.941 61.7729C142.867 61.6821 143.778 61.4399 144.779 61.4454C144.954 62.5242 144.778 63.5782 144.892 64.6308C145.518 64.9418 146.227 64.5648 146.871 64.9005C146.959 65.4812 146.902 66.0756 146.909 66.6673C146.914 67.0044 146.696 67.0815 146.413 67.0953C145.935 67.12 145.452 67.0416 144.997 67.1517C144.825 67.3127 144.858 67.5053 144.858 67.6842C144.855 69.0134 144.848 70.3412 144.858 71.6705C144.865 72.5993 145.363 72.9309 146.254 72.6103C146.531 72.5098 146.795 72.3763 147.139 72.225L147.142 72.2236Z" fill="#EEEEEE"/>
<path d="M114.517 60.0873C114.776 60.4093 114.693 60.7189 114.693 61.0079C114.699 64.58 114.696 68.1507 114.698 71.7228C114.698 72.8676 114.777 72.9116 115.793 72.3489C115.83 72.3282 115.878 72.3282 115.921 72.3172C116.049 72.6351 116.149 74.1886 116.071 74.4486C116.01 74.6481 115.847 74.7321 115.686 74.8146C114.718 75.3128 113.719 75.3953 112.701 74.9921C112.04 74.7307 111.628 74.2436 111.458 73.5432C111.383 73.2267 111.359 72.9116 111.359 72.591C111.359 68.8359 111.359 65.0808 111.359 61.3257C111.359 60.5662 111.362 60.5538 112.126 60.4299C112.932 60.3006 113.743 60.196 114.516 60.0859L114.517 60.0873Z" fill="#EEEEEE"/>
<path d="M113.394 92.3109C112.531 92.3109 111.618 92.3109 110.703 92.3109C110.426 92.3109 110.277 92.1733 110.273 91.8912C110.27 91.7302 110.268 91.5706 110.268 91.4096C110.268 88.6342 110.266 85.8602 110.268 83.0848C110.268 82.2922 110.29 82.2798 111.059 82.2138C111.469 82.178 111.878 82.0927 112.288 82.0886C112.674 82.0858 113.05 81.9069 113.417 82.0087C113.699 82.2138 113.525 82.5426 113.687 82.833C114.122 82.3128 114.619 81.984 115.258 81.8767C115.887 81.7707 116.435 81.9262 116.952 82.2633C117.138 82.3844 117.273 82.5344 117.178 82.7766C116.863 83.5815 116.604 84.4099 116.219 85.1625C116.124 85.1625 116.065 85.1818 116.037 85.1598C115.557 84.7869 115.029 84.5392 114.456 84.8791C113.888 85.2162 113.632 85.7927 113.607 86.4422C113.58 87.1756 113.599 87.909 113.599 88.6438C113.599 89.6758 113.599 90.7078 113.596 91.7398C113.596 91.8981 113.606 92.0632 113.393 92.3122L113.394 92.3109Z" fill="#EEEEEE"/>
</g>
<defs>
<clipPath id="clip0_503_3957">
<rect width="231" height="127" fill="white"/>
</clipPath>
</defs>
</svg>
