<?xml version="1.0" encoding="utf-8"?>
<!-- Generator: Adobe Illustrator 27.4.0, SVG Export Plug-In . SVG Version: 6.00 Build 0)  -->
<svg version="1.1" id="Layer_1" xmlns="http://www.w3.org/2000/svg" xmlns:xlink="http://www.w3.org/1999/xlink" x="0px" y="0px"
	 viewBox="0 0 50 45" style="enable-background:new 0 0 50 45;" xml:space="preserve">
<style type="text/css">
	.st0{fill:#FFFFFF;}
</style>
<g>
	<path class="st0" d="M44.5,43.1V7.6c0-0.3-0.3-0.6-0.6-0.6H29.5c-0.3,0-0.6,0.3-0.6,0.6v35.5h-7.8V18.4c0-0.3-0.3-0.6-0.6-0.6H6.1
		c-0.3,0-0.6,0.3-0.6,0.6V43H3.6v0.6c0,0.3,0.3,0.6,0.6,0.6h25.3l16.2,0.1h0c0.3,0,0.6-0.3,0.6-0.6v-0.6H44.5z M37,39.8v3.2h-3.2
		v-3.2H37z M37.6,38.5h-4.5c-0.3,0-0.6,0.3-0.6,0.6v3.9h-2.4v-7.8h9v-1.3h-9v-3.2h9v-1.3h-9v-3.2h9v-1.3h-9v-3.2h9v-1.2h-9v-3.2h9
		v-1.3h-9v-3.2h9v-1.3h-9V8.2h13.2v34.9h-5.1v-3.9C38.2,38.8,37.9,38.5,37.6,38.5z M16.2,40.7v2.4h-6v-2.4H16.2z M17.2,39.7
		c-0.1-0.1-0.3-0.2-0.4-0.2H9.6c-0.3,0-0.6,0.3-0.6,0.6v3H6.6V19h13.2v24.1h-2.4v-3C17.4,39.9,17.3,39.7,17.2,39.7z"/>
	<path class="st0" d="M13.9,2.7H37v1.8h1.2V2.1c0-0.3-0.3-0.6-0.6-0.6H13.2c-0.3,0-0.6,0.3-0.6,0.6v13.3h1.3V2.7z"/>
	<rect x="9" y="21.4" class="st0" width="1.3" height="15.7"/>
	<rect x="12.6" y="21.4" class="st0" width="1.3" height="15.7"/>
	<rect x="16.2" y="21.4" class="st0" width="1.3" height="15.7"/>
	<rect x="17.1" y="6" class="st0" width="1.3" height="2.1"/>
	<rect x="17.1" y="11.4" class="st0" width="1.3" height="2.1"/>
	<rect x="20.7" y="11.4" class="st0" width="1.3" height="2.1"/>
	<rect x="20.7" y="6" class="st0" width="1.3" height="2.1"/>
	<rect x="24.4" y="6" class="st0" width="1.3" height="2.1"/>
	<rect x="24.4" y="11.4" class="st0" width="1.3" height="2.1"/>
	<rect x="24.4" y="16.8" class="st0" width="1.3" height="2.1"/>
	<rect x="24.4" y="22.3" class="st0" width="1.3" height="2.1"/>
	<rect x="24.4" y="27.6" class="st0" width="1.3" height="2.1"/>
	<rect x="24.4" y="33.1" class="st0" width="1.3" height="2.1"/>
</g>
</svg>
