<svg width="248" height="137" viewBox="0 0 248 137" fill="none" xmlns="http://www.w3.org/2000/svg">
<path d="M90.2228 56.5393H85.221C84.8932 55.197 84.9862 53.9964 85.1412 52.6584C87.3209 52.2996 89.4519 52.6673 91.7335 52.3926C97.1207 41.7378 105.525 34.6006 117.354 31.9247C126.197 29.9222 134.743 31.1848 142.629 35.5885C159.636 45.0826 165.883 64.948 158.812 81.7388C151.414 99.3093 132.47 107.771 115.232 102.849C105.365 100.031 97.8827 94.0771 92.9873 85.1058C88.1007 76.1478 87.2501 66.636 90.2228 56.5438V56.5393ZM92.4911 56.6235C88.114 68.2885 91.0025 83.3425 101.724 93.1512C112.188 102.725 128.173 105.321 141.782 97.8694C152.415 92.0436 159.535 80.0553 159.291 69.5644C159.105 69.7239 158.91 69.8346 158.781 70.003C156.823 72.6035 154.152 73.72 150.971 73.7333C147.812 73.7466 144.653 73.7466 141.494 73.7288C140.932 73.7288 140.307 73.9016 139.842 73.3877C139.505 70.4238 139.616 61.3728 140.037 59.7291C141.499 59.6981 143.001 59.3703 144.591 59.9728C144.591 61.6386 144.547 63.2557 144.604 64.8638C144.662 66.441 144.343 68.0536 144.848 69.7106C146.988 69.7106 149.039 69.7106 151.09 69.7106C151.622 69.7106 152.101 69.5334 152.561 69.303C155.069 68.0492 156.464 66.1043 156.526 63.2202C156.593 60.2076 154.949 58.2937 152.592 56.8229C152.043 56.4773 151.37 56.3178 150.696 56.3931C148.06 56.6767 145.415 56.4773 142.775 56.5216C139.762 56.5704 139.51 56.8052 139.753 53.1457C139.762 53.0173 139.877 52.8932 139.975 52.7116C140.608 52.3261 141.362 52.5122 142.075 52.5078C144.866 52.4856 147.657 52.5477 150.448 52.4856C152.676 52.4369 154.79 52.7382 156.748 54.1736C151.95 42.1276 138.863 31.7253 121.545 33.3025C108.36 34.5031 97.6081 43.7846 94.467 52.3306C95.1758 52.6097 95.9157 52.4945 96.6378 52.4989C101.267 52.5122 105.893 52.4989 110.522 52.5122C111.47 52.5122 112.348 52.623 113.26 53.1059C116.517 54.8204 117.287 59.3038 115.927 62.8038C115.369 64.2392 114.27 65.174 112.893 65.8917C114.341 68.7182 116.915 70.6143 118.289 73.751C116.999 73.751 116.047 73.6535 115.121 73.7731C113.477 73.9814 112.348 73.3478 111.338 72.0852C109.047 69.2277 106.655 66.4455 104.316 63.6278C104.085 63.3531 103.855 63.043 104.156 62.6443C105.822 62.6443 107.496 62.6974 109.167 62.6265C110.744 62.5601 111.958 61.138 111.94 59.5209C111.922 57.6602 110.974 56.6501 109.122 56.6457C103.616 56.6235 98.1043 56.6368 92.4911 56.6368V56.6235Z" fill="#EEEEEE"/>
<path d="M136.57 60.521V64.0918C135.095 64.588 123.182 64.7519 119.651 64.3266C119.146 63.1791 119.403 61.9785 119.5 60.552C125.175 60.3969 130.762 60.4545 136.57 60.521V60.521Z" fill="#EEEEEE"/>
<path d="M119.503 69.8779C122.755 69.5545 134.765 69.652 136.391 69.9887C136.44 70.0418 136.529 70.0906 136.533 70.1526C136.954 73.6038 136.83 73.7411 133.343 73.7367C129.529 73.7367 125.719 73.7456 121.904 73.7278C121.182 73.7278 120.442 73.8652 119.614 73.5196C119.157 72.3943 119.388 71.1981 119.503 69.8779V69.8779Z" fill="#EEEEEE"/>
<path d="M136.462 56.144C134.291 56.6933 121.297 56.6357 119.604 56.0997C119.214 55.0719 119.392 53.9864 119.454 52.9187C120.894 52.396 132.864 52.2232 136.373 52.6706C136.829 53.7693 136.683 54.9079 136.462 56.1395V56.144Z" fill="#EEEEEE"/>
<path d="M121.67 78.1639C120.864 78.9702 121.754 80.1841 121.036 80.9992C120.345 81.1986 119.938 80.8663 119.916 80.2992C119.854 78.7841 119.893 77.2645 119.893 75.7361C121.028 75.231 122.064 75.4348 123.057 75.4614C124.691 75.5101 125.36 76.5911 124.802 78.1196C124.678 78.4563 124.479 78.7664 124.372 78.9746C124.262 79.8252 125.179 80.122 125.112 80.8265C124.541 81.4556 124.018 81.1454 123.588 80.7378C122.795 79.9847 122.109 79.1385 121.643 78.1373C122.007 78.0974 122.366 78.062 122.729 78.0132C123.278 77.9335 123.486 77.6499 123.203 76.9854C122.649 76.9101 122.042 76.6443 121.449 77.1094C121.298 77.5259 121.568 77.8272 121.674 78.1639H121.67Z" fill="#EEEEEE"/>
<path d="M155.884 80.9002C154.547 81.3299 153.399 81.3653 152.265 80.9267C150.962 80.4261 150.13 79.0527 150.333 77.8034C150.537 76.5363 151.494 75.6148 152.898 75.4731C153.696 75.3933 154.511 75.4421 155.317 75.4731C155.721 75.4908 156.026 75.7389 156 76.1642C155.973 76.5895 155.632 76.7756 155.238 76.7933C154.724 76.8199 154.21 76.7889 153.696 76.8199C152.544 76.8863 151.835 77.4002 151.751 78.2021C151.658 79.0705 152.402 79.7084 153.669 79.8147C153.882 79.8325 154.099 79.766 154.232 79.7483C155.167 79.1679 153.789 77.2895 155.769 77.3205C156.27 78.4812 156.124 79.6154 155.884 80.8957V80.9002Z" fill="#EEEEEE"/>
<path d="M130.614 81.1359C129.581 80.9764 128.744 81.0473 127.894 81.1624C126.343 81.3662 125.599 80.6308 125.541 79.0403C125.506 78.0878 125.537 77.1353 125.572 76.1828C125.585 75.7752 125.851 75.4961 126.272 75.4961C126.688 75.4961 126.923 75.7797 126.972 76.1872C127.105 77.2682 126.835 78.3802 127.154 79.4036C127.712 79.8777 128.275 79.8422 128.904 79.6517C128.979 79.4789 129.13 79.2929 129.138 79.0935C129.178 78.141 129.156 77.1885 129.205 76.236C129.231 75.7354 129.546 75.4518 130.078 75.4695C130.614 75.4873 130.902 75.8018 130.893 76.298C130.857 77.8132 131.145 79.3505 130.618 81.1359H130.614Z" fill="#EEEEEE"/>
<path d="M137.955 81.0896C137.654 81.1206 137.25 80.9611 137.197 80.5845C136.967 78.932 136.909 77.2707 137.237 75.6226C138.088 75.6876 138.554 76.2857 138.637 77.4169C139.78 77.0226 139.935 74.6878 141.831 75.7378C141.698 76.8188 140.551 77.1732 140.263 78.139C140.414 79.1934 141.437 79.7428 141.862 80.6687C141.588 81.3776 141.065 81.2801 140.631 80.9744C140.099 80.6067 139.647 80.1105 139.164 79.6719C138.234 79.7118 138.788 80.8991 137.95 81.0896H137.955Z" fill="#EEEEEE"/>
<path d="M148.481 77.1075C147.524 76.7531 146.891 76.8594 146.239 76.948C145.672 78.3081 146.394 79.779 145.748 80.9929C145.34 81.1346 144.968 81.0815 144.87 80.8245C144.25 79.1322 144.565 77.4088 144.667 75.6101C145.903 75.5481 147.028 75.4373 148.153 75.455C149.442 75.4772 149.854 75.8848 149.912 77.1695C149.965 78.2682 149.934 79.367 149.894 80.4657C149.881 80.8644 149.597 81.1479 149.177 81.1346C148.756 81.1213 148.499 80.829 148.49 80.4258C148.463 79.3359 148.481 78.2461 148.481 77.1031V77.1075Z" fill="#EEEEEE"/>
<path d="M136.476 76.514C135.807 77.0589 134.965 76.7488 134.19 76.8064C133.344 76.8684 132.777 77.1741 132.723 78.0912C132.67 78.9506 133.202 79.6107 134.097 79.7968C134.868 79.9563 135.714 79.5886 136.414 80.0804C136.547 80.324 136.609 80.5943 136.423 80.7139C135.116 81.5468 133.756 81.4094 132.502 80.674C131.456 80.0582 131.182 78.9684 131.292 77.7943C131.403 76.638 132.103 75.8494 133.131 75.5526C134.106 75.2691 135.178 75.3222 136.183 75.5526C136.591 75.6456 136.657 76.0577 136.476 76.5095V76.514Z" fill="#EEEEEE"/>
<path d="M116.162 77.1677C115.688 76.5918 114.528 77.057 114.638 76.0779C114.749 75.1165 115.666 75.4975 116.26 75.4488C116.991 75.3912 117.726 75.4399 118.462 75.4488C118.94 75.4532 119.374 75.5906 119.392 76.1443C119.405 76.5652 119.064 76.7513 118.661 76.8089C118.377 76.8488 118.067 76.831 117.988 76.9639C117.27 78.3683 118.515 80.1759 116.729 81.279C115.87 79.8658 116.503 78.5012 116.158 77.1677H116.162Z" fill="#EEEEEE"/>
<path d="M142.395 78.1867C142.395 77.5975 142.381 77.0127 142.395 76.4235C142.408 75.8298 142.656 75.4355 143.321 75.471C143.861 75.4975 144.105 75.8342 144.109 76.3304C144.122 77.5798 144.131 78.8247 144.105 80.074C144.091 80.6411 143.83 81.1107 143.192 81.0797C142.687 81.0575 142.439 80.6411 142.412 80.1671C142.377 79.5069 142.403 78.8468 142.403 78.1867C142.399 78.1867 142.395 78.1867 142.39 78.1867H142.395Z" fill="#EEEEEE"/>
</svg>
