<svg width="231" height="127" viewBox="0 0 231 127" fill="none" xmlns="http://www.w3.org/2000/svg">
<g clip-path="url(#clip0_580_114)">
<path d="M156.055 39.3173C155.735 39.8745 155.416 40.4323 155.095 40.9883C154.097 42.7168 153.1 44.4465 152.093 46.17C151.972 46.3784 151.994 46.4658 152.225 46.5525C155.016 47.6021 157.607 49.0198 159.978 50.8307C160.186 50.9885 160.322 50.9804 160.512 50.8038C161.122 50.2385 161.748 49.6906 162.369 49.1378C162.481 49.0379 162.601 48.9462 162.718 48.8513L162.776 48.9006C162.668 49.0947 162.563 49.2906 162.451 49.4822C162.056 50.1549 161.665 50.8294 161.26 51.4959C161.15 51.6762 161.183 51.7767 161.34 51.9096C164.296 54.4074 166.687 57.3665 168.537 60.7635C168.805 61.2565 169.059 61.7569 169.307 62.2611C169.397 62.4433 169.511 62.5263 169.718 62.5194C170.123 62.5057 170.529 62.5207 170.934 62.5057C171.264 62.4932 171.235 62.7135 171.233 62.9238C171.232 63.1297 171.276 63.3569 170.945 63.3531C170.342 63.3456 169.738 63.3462 169.135 63.3575C168.908 63.3618 168.832 63.2196 168.754 63.0542C168.11 61.6889 167.397 60.3623 166.567 59.1005C165.067 56.8217 163.321 54.7556 161.26 52.9623C161.221 52.9279 161.18 52.8955 161.142 52.8599C160.615 52.3613 160.685 52.4674 160.373 52.9903C158.384 56.3312 156.397 59.6728 154.417 63.0193C154.273 63.262 154.113 63.3631 153.823 63.3625C148.02 63.3506 142.217 63.3837 136.415 63.3331C132.568 63.2994 128.721 63.3306 124.875 63.2982C124.609 63.2957 124.344 63.3737 124.077 63.3169C124.07 63.1927 124.167 63.1984 124.226 63.1753C128.008 61.6783 131.461 59.5735 134.855 57.3689C137.666 55.5444 140.332 53.5151 142.939 51.416C144.76 49.9502 146.552 48.4451 148.276 46.8627C148.36 46.7853 148.446 46.7092 148.524 46.6249C148.591 46.5513 148.72 46.4982 148.691 46.3822C148.661 46.2661 148.525 46.2749 148.428 46.2505C146.527 45.7806 144.6 45.4861 142.643 45.3701C139.889 45.2072 137.159 45.3663 134.451 45.8911C132.208 46.326 130.033 46.9912 127.939 47.9066C125.294 49.0635 122.858 50.5617 120.64 52.4144C117.293 55.2093 114.682 58.5745 112.773 62.4907C112.692 62.6592 112.586 62.8202 112.534 62.9974C112.431 63.3431 112.207 63.4274 111.872 63.4105C111.416 63.3874 110.958 63.3993 110.5 63.4093C110.076 63.4186 110.199 63.1141 110.182 62.8851C110.163 62.6274 110.269 62.5375 110.533 62.5625C110.832 62.5906 111.137 62.5563 111.437 62.575C111.705 62.5912 111.848 62.4832 111.963 62.2418C113.005 60.0553 114.288 58.0179 115.805 56.1297C117.501 54.0187 119.442 52.1648 121.628 50.5655C125.468 47.7562 129.737 45.9429 134.402 45.0393C137.061 44.5245 139.745 44.3754 142.442 44.5027C144.742 44.6113 147.01 44.9713 149.232 45.586C149.465 45.6502 149.62 45.6103 149.787 45.4468C151.023 44.2425 152.259 43.0388 153.442 41.7808C154.259 40.9116 155.199 40.1646 155.986 39.2617C156.008 39.2798 156.03 39.2973 156.052 39.3154L156.055 39.3173ZM142.431 62.8221C142.536 62.8789 142.597 62.8221 142.659 62.7952C145.061 61.7426 147.411 60.5919 149.648 59.2154C153.132 57.0719 156.335 54.5628 159.363 51.8222C159.539 51.6631 159.584 51.5701 159.359 51.4041C157.019 49.6757 154.492 48.2947 151.766 47.2764C151.563 47.2002 151.467 47.2545 151.371 47.4317C151.188 47.77 150.984 48.0963 150.791 48.4295C148.323 52.6827 145.855 56.9365 143.387 61.1897C143.07 61.7344 142.75 62.2767 142.43 62.8227L142.431 62.8221Z" fill="white"/>
<path d="M100.939 74.1495C100.468 74.8827 99.7506 75.0274 98.9993 75.1185C98.3466 75.1978 97.692 75.1784 97.0375 75.1797C95.6129 75.1816 94.1883 75.1766 92.7637 75.1822C92.3444 75.1841 91.9338 75.1273 91.53 75.0287C90.4518 74.7653 89.8278 74.0702 89.6655 72.9795C89.5557 72.2375 89.5451 71.4893 89.6418 70.7424C89.7579 69.8507 90.2471 69.266 91.0945 68.9678C91.6199 68.7831 92.1671 68.7063 92.715 68.6739C94.3449 68.5771 95.9779 68.5971 97.609 68.6252C98.0409 68.6327 98.4789 68.647 98.9132 68.7082C99.7032 68.8192 100.413 69.0539 100.911 69.7559C100.898 68.876 101.047 67.9987 100.813 67.1382C100.67 66.6153 100.293 66.302 99.7887 66.1336C99.2608 65.9576 98.711 65.8958 98.1613 65.8883C96.8203 65.8709 95.4787 65.8802 94.1377 65.8783C93.6778 65.8777 93.223 65.9264 92.7837 66.0612C92.1453 66.2571 91.9138 66.5604 91.925 67.2212C91.93 67.5288 91.842 67.6567 91.5194 67.6355C91.1469 67.6118 90.7713 67.6224 90.3969 67.6318C90.1772 67.6374 90.0649 67.5663 90.0792 67.3291C90.0955 67.0596 90.0693 66.7856 90.1079 66.5198C90.2321 65.6631 90.717 65.0846 91.5194 64.7657C92.2657 64.4693 93.0526 64.3807 93.842 64.367C95.2659 64.3427 96.6911 64.3396 98.1151 64.3676C99.0081 64.3851 99.8985 64.4743 100.751 64.782C101.939 65.2107 102.575 66.0624 102.723 67.306C102.767 67.6792 102.777 68.0517 102.776 68.4255C102.775 70.4947 102.776 72.5639 102.775 74.6331C102.775 75.0212 102.757 75.0387 102.373 75.0405C101.998 75.043 101.624 75.0355 101.249 75.0424C101.029 75.0461 100.92 74.9669 100.936 74.7323C100.948 74.5388 100.938 74.3435 100.938 74.1488L100.939 74.1495ZM95.7926 73.6528C96.562 73.6528 97.332 73.6715 98.1008 73.6471C98.7641 73.6259 99.4299 73.5816 100.066 73.3582C100.368 73.2521 100.63 73.088 100.788 72.7972C101.345 71.7695 100.796 70.564 99.6639 70.3175C98.9893 70.1708 98.3017 70.1527 97.6184 70.1371C96.4128 70.1091 95.206 70.1159 93.9998 70.1353C93.4726 70.144 92.9403 70.1683 92.4242 70.3062C91.8801 70.451 91.5319 70.7699 91.4627 71.3552C91.4171 71.7396 91.4171 72.1196 91.4714 72.5033C91.5382 72.9738 91.7853 73.2877 92.2314 73.4381C92.4274 73.5042 92.6302 73.5585 92.8342 73.5879C93.817 73.7301 94.8067 73.6347 95.7926 73.6528Z" fill="white"/>
<path d="M49.5845 70.1202C47.7961 70.1202 46.0071 70.1265 44.2187 70.114C43.9111 70.1121 43.7932 70.1895 43.8063 70.5146C43.8237 70.9514 43.84 71.3851 43.9348 71.8138C44.1189 72.6468 44.6405 73.1554 45.4436 73.3975C46.2193 73.6315 47.0174 73.6671 47.8192 73.6646C48.9836 73.6608 50.1486 73.6596 51.313 73.6502C51.6774 73.6471 52.0356 73.5828 52.3881 73.4892C53.0408 73.3151 53.4134 72.8958 53.5226 72.2294C53.5956 71.7845 53.6031 71.7857 54.0542 71.7851C54.418 71.7851 54.7824 71.7894 55.1462 71.7851C55.3459 71.7826 55.4139 71.8724 55.4208 72.069C55.4607 73.1835 54.8629 74.1413 53.8327 74.6062C52.9435 75.0074 51.995 75.1447 51.0384 75.1653C49.4273 75.1996 47.8148 75.1859 46.203 75.1703C45.6215 75.1647 45.0455 75.0648 44.4858 74.8907C43.1423 74.4739 42.3367 73.556 42.1115 72.1888C41.8588 70.6538 41.8737 69.0931 42.0747 67.5593C42.3118 65.7491 43.4237 64.7582 45.2901 64.4805C45.8561 64.3963 46.4246 64.3433 46.9974 64.3545C48.4313 64.3819 49.8665 64.2902 51.2993 64.4163C51.9339 64.4724 52.5554 64.591 53.1463 64.835C54.5328 65.4078 55.1755 66.5104 55.359 67.9444C55.4357 68.5459 55.4008 69.1481 55.4245 69.7502C55.4357 70.0429 55.3222 70.1246 55.0433 70.1234C53.2237 70.1146 51.4035 70.119 49.5839 70.119L49.5845 70.1202ZM48.6629 68.6027C48.8394 68.6027 49.016 68.6027 49.1926 68.6027C50.5436 68.6027 51.8939 68.6033 53.2449 68.6002C53.3815 68.6002 53.5394 68.6407 53.58 68.4217C53.7216 67.6561 53.4046 66.9023 52.7507 66.4736C52.1198 66.0599 51.4003 65.9082 50.6746 65.897C49.0766 65.8727 47.4748 65.7965 45.8792 65.9488C45.1241 66.0212 44.4552 66.2752 44.1282 67.0464C43.9641 67.4327 43.9173 67.8445 43.8556 68.2564C43.8106 68.5553 43.9067 68.6083 44.175 68.6064C45.6714 68.5971 47.1671 68.6021 48.6635 68.6021L48.6629 68.6027Z" fill="white"/>
<path d="M68.1829 65.8145C68.1829 65.1774 68.1829 64.6289 68.1829 64.0804C68.1829 62.8537 68.191 61.6269 68.1773 60.4007C68.1736 60.0956 68.2541 59.9614 68.5792 59.9826C68.9311 60.0057 69.2861 60.0007 69.6387 59.9839C69.9183 59.9708 70.0543 60.065 70.0181 60.3564C70.0119 60.4076 70.0175 60.46 70.0175 60.5124C70.0175 65.1799 70.0175 69.8468 70.0175 74.5143C70.0175 74.8629 69.8386 75.0375 69.4808 75.0379C69.1901 75.0379 68.8986 75.0304 68.6079 75.0391C68.3789 75.0454 68.2952 74.9474 68.3021 74.7209C68.314 74.3284 68.3052 73.9353 68.3052 73.476C67.4772 74.8507 66.1811 75.134 64.7902 75.1695C63.6371 75.1989 62.4827 75.1864 61.3289 75.1683C60.6001 75.1571 59.8806 75.0485 59.1817 74.8288C57.6367 74.3421 56.8236 73.2464 56.662 71.6764C56.5235 70.3323 56.501 68.9757 56.6945 67.6354C56.9628 65.7802 57.8657 64.8885 59.7233 64.5447C60.3673 64.4255 61.0181 64.3569 61.674 64.3556C62.8696 64.3531 64.0645 64.3519 65.2601 64.3569C65.6657 64.3587 66.0676 64.4168 66.4644 64.5016C67.2088 64.6608 67.8123 65.0208 68.1835 65.8145H68.1829ZM63.2371 73.6688C64.1188 73.6283 65.003 73.7206 65.8829 73.5865C67.2332 73.3805 67.9651 72.6579 68.1293 71.3132C68.2491 70.3304 68.1848 69.3408 68.1629 68.3548C68.1555 68.0166 68.0887 67.6741 67.9601 67.3508C67.5726 66.3774 66.7521 66.0323 65.8105 65.9524C64.0801 65.807 62.3429 65.8083 60.6119 65.9499C59.2522 66.0616 58.5546 66.8416 58.4666 68.2082C58.3992 69.2571 58.4092 70.3036 58.4697 71.3525C58.5396 72.5675 59.1299 73.2745 60.3149 73.5297C61.2821 73.7381 62.2618 73.6276 63.2365 73.6688H63.2371Z" fill="white"/>
<path d="M131.116 73.861C131.116 74.1381 131.116 74.3721 131.116 74.6067C131.116 75.8547 131.108 77.1027 131.121 78.3507C131.124 78.6409 131.024 78.7376 130.743 78.7251C130.348 78.7083 129.953 78.7164 129.557 78.7207C129.359 78.7232 129.269 78.6359 129.278 78.4387C129.282 78.3663 129.278 78.2933 129.278 78.2203C129.278 73.8423 129.278 69.4637 129.278 65.0851C129.278 64.7548 129.444 64.5896 129.775 64.5896C130.077 64.5896 130.379 64.599 130.68 64.5872C130.906 64.5784 131 64.6602 130.993 64.8923C130.982 65.2754 130.99 65.6586 131.015 66.0573C131.287 65.6143 131.628 65.2511 132.072 64.9896C132.735 64.6003 133.463 64.4268 134.218 64.4156C135.59 64.395 136.964 64.4012 138.336 64.4156C138.845 64.4212 139.351 64.5035 139.843 64.6383C141.491 65.0895 142.441 66.1677 142.635 67.9199C142.784 69.264 142.797 70.6206 142.599 71.9628C142.323 73.8336 141.298 74.8183 139.413 75.1034C138.836 75.1908 138.259 75.2382 137.675 75.2338C136.416 75.2251 135.158 75.2276 133.899 75.2332C133.48 75.2351 133.069 75.1777 132.664 75.0828C132.005 74.9281 131.685 74.6722 131.114 73.861H131.116ZM136.086 73.7244C137.019 73.6838 137.956 73.7812 138.886 73.6395C140.056 73.4611 140.733 72.721 140.821 71.5472C140.907 70.3953 140.902 69.2441 140.816 68.0934C140.733 66.9852 140.165 66.3119 139.087 66.0529C138.712 65.9631 138.331 65.9269 137.945 65.9275C136.719 65.9306 135.492 65.93 134.266 65.9275C133.964 65.9275 133.665 65.9475 133.366 65.9936C132.103 66.1896 131.304 67.0295 131.167 68.3C131.066 69.2335 131.09 70.1707 131.131 71.1017C131.199 72.686 131.873 73.4105 133.441 73.6545C134.317 73.7911 135.204 73.6882 136.086 73.7238L136.086 73.7244Z" fill="white"/>
<path d="M188.722 70.4935C187.745 70.4935 186.767 70.5109 185.79 70.4872C185.17 70.4722 184.546 70.4548 183.938 70.2832C182.948 70.0036 182.381 69.3678 182.259 68.3463C182.189 67.7572 182.173 67.1669 182.246 66.5747C182.331 65.8821 182.675 65.3735 183.284 65.0403C184.061 64.6154 184.917 64.4993 185.778 64.4313C187.511 64.2953 189.248 64.3627 190.983 64.377C191.74 64.3833 192.498 64.4725 193.222 64.7252C194.626 65.2144 194.864 66.0949 194.814 67.414C194.808 67.5582 194.722 67.6174 194.591 67.6181C194.165 67.6199 193.738 67.6199 193.312 67.6168C193.174 67.6162 193.112 67.5394 193.102 67.4003C193.093 67.2555 193.068 67.1114 193.041 66.9685C192.956 66.5242 192.711 66.2141 192.274 66.0687C191.916 65.9495 191.546 65.8927 191.171 65.8915C189.476 65.8858 187.781 65.8833 186.087 65.8933C185.673 65.8958 185.256 65.9401 184.855 66.0574C184.322 66.2134 184.096 66.5024 184.079 67.0496C184.071 67.3198 184.071 67.5906 184.079 67.8602C184.093 68.3438 184.304 68.6296 184.765 68.7899C185.213 68.9459 185.683 68.969 186.149 68.9715C188 68.9821 189.85 68.9778 191.701 68.979C192.17 68.979 192.634 69.0327 193.092 69.1344C194.49 69.4439 195.174 70.2495 195.25 71.6809C195.27 72.0428 195.273 72.406 195.213 72.7692C195.041 73.8007 194.455 74.4702 193.48 74.8259C192.817 75.068 192.127 75.1691 191.431 75.176C189.529 75.194 187.626 75.1891 185.724 75.1772C185.237 75.1741 184.75 75.1111 184.273 74.9994C182.846 74.6668 182.115 73.7732 182.07 72.2999C182.063 72.0609 182.07 71.822 182.071 71.583C182.071 71.4301 182.146 71.3533 182.301 71.354C182.717 71.3552 183.133 71.3558 183.548 71.354C183.729 71.3533 183.777 71.4575 183.777 71.6154C183.779 71.875 183.783 72.1321 183.83 72.391C183.934 72.9614 184.269 73.3164 184.805 73.5005C185.233 73.6478 185.679 73.6734 186.127 73.6721C187.905 73.6677 189.683 73.6684 191.461 73.6559C191.834 73.6534 192.206 73.5947 192.566 73.4849C193 73.352 193.27 73.0712 193.368 72.6182C193.439 72.2875 193.438 71.9555 193.405 71.6254C193.357 71.1468 193.097 70.8211 192.634 70.6651C192.346 70.5683 192.051 70.5072 191.748 70.5059C190.74 70.5022 189.732 70.5047 188.723 70.5047V70.4947L188.722 70.4935Z" fill="white"/>
<path d="M82.2145 70.493C81.2367 70.493 80.2589 70.5098 79.2823 70.4867C78.6408 70.4717 77.9956 70.4536 77.3685 70.2689C76.3994 69.9831 75.8254 69.2924 75.7318 68.2934C75.6793 67.733 75.6637 67.1758 75.7205 66.6148C75.8048 65.7836 76.2603 65.2451 77.0028 64.9163C77.7173 64.6005 78.478 64.4882 79.2461 64.4295C80.9796 64.2973 82.7168 64.3615 84.4522 64.3759C85.2191 64.3821 85.9872 64.4745 86.7216 64.7309C87.7824 65.1016 88.276 65.7574 88.2954 66.8744C88.3097 67.7205 88.3859 67.6151 87.5828 67.6226C87.3538 67.6251 87.1254 67.6182 86.8964 67.6226C86.7011 67.6269 86.5763 67.5726 86.5787 67.3449C86.58 67.2326 86.5451 67.1196 86.5276 67.0067C86.4539 66.5293 86.1863 66.2136 85.7301 66.0607C85.3925 65.9471 85.0412 65.8935 84.688 65.8922C82.972 65.8853 81.256 65.8828 79.5407 65.8941C79.1163 65.8972 78.6901 65.9446 78.2802 66.0744C77.8502 66.2104 77.61 66.4912 77.5582 66.9518C77.5195 67.2956 77.5164 67.6313 77.5582 67.9751C77.6087 68.3857 77.8296 68.6384 78.2015 68.7757C78.6571 68.9442 79.1382 68.9679 79.6143 68.971C81.4651 68.9829 83.3165 68.9785 85.1673 68.9785C85.6265 68.9785 86.0808 69.0309 86.5288 69.1227C87.9491 69.4134 88.6623 70.2477 88.7315 71.6991C88.7459 71.9993 88.7553 72.3063 88.711 72.6014C88.4951 74.041 87.657 74.8191 86.0983 75.0569C85.5323 75.143 84.9645 75.1898 84.391 75.1873C82.7998 75.1817 81.2086 75.1842 79.618 75.1861C79.0134 75.1861 78.4143 75.1349 77.8228 75.012C76.3676 74.7093 75.6151 73.8239 75.552 72.3387C75.5421 72.1104 75.5533 71.8814 75.5446 71.6523C75.5364 71.4477 75.6082 71.3435 75.8303 71.3485C76.2147 71.3578 76.5997 71.3559 76.9847 71.3491C77.1851 71.346 77.2668 71.4327 77.2612 71.6299C77.2537 71.9001 77.2637 72.1684 77.3205 72.4361C77.4297 72.9471 77.7217 73.296 78.2115 73.4726C78.5254 73.5861 78.8511 73.6591 79.1868 73.6598C81.1106 73.661 83.0344 73.6635 84.9582 73.6535C85.3307 73.6516 85.7039 73.5936 86.0627 73.4782C86.4945 73.339 86.7603 73.0557 86.8502 72.599C86.9107 72.2882 86.9182 71.9781 86.8926 71.6679C86.8483 71.1319 86.5538 70.7912 86.0384 70.6377C85.6452 70.5204 85.2428 70.4923 84.8359 70.4936C83.9623 70.4955 83.0887 70.4936 82.2151 70.4936L82.2145 70.493Z" fill="white"/>
<path d="M121.733 70.4952C120.756 70.4952 119.778 70.5058 118.801 70.4908C118.345 70.4839 117.888 70.4627 117.436 70.3872C116.058 70.1569 115.471 69.5847 115.271 68.2113C115.19 67.6566 115.206 67.0931 115.276 66.5334C115.38 65.7147 115.863 65.2036 116.596 64.8966C117.304 64.6002 118.054 64.4885 118.813 64.4317C120.546 64.302 122.283 64.3537 124.018 64.3824C125.002 64.3987 125.991 64.5035 126.877 65.0202C127.336 65.2879 127.62 65.6816 127.743 66.1883C127.834 66.5627 127.853 66.9471 127.854 67.3327C127.854 67.5224 127.777 67.6254 127.577 67.6241C127.172 67.6216 126.766 67.6241 126.361 67.6216C126.219 67.621 126.138 67.5599 126.108 67.4064C125.87 66.217 125.595 65.9331 124.385 65.9069C122.556 65.8676 120.725 65.8888 118.896 65.905C118.557 65.9081 118.213 65.9599 117.882 66.0598C117.444 66.192 117.159 66.4585 117.099 66.9277C117.055 67.2797 117.042 67.6354 117.1 67.9842C117.199 68.572 117.596 68.8528 118.355 68.9214C118.852 68.9664 119.349 68.982 119.848 68.9813C121.47 68.9776 123.093 68.9801 124.714 68.9838C125.289 68.9851 125.854 69.0575 126.409 69.2085C127.411 69.4812 128.009 70.122 128.2 71.1479C128.308 71.7269 128.331 72.3041 128.216 72.8813C127.972 74.1125 127.131 74.7234 125.981 74.9886C125.383 75.1265 124.772 75.1895 124.157 75.1895C122.473 75.1895 120.788 75.1901 119.104 75.1889C118.416 75.1889 117.733 75.1346 117.069 74.9436C115.859 74.5948 115.207 73.788 115.117 72.5306C115.096 72.2305 115.115 71.9279 115.105 71.6265C115.098 71.4224 115.192 71.35 115.387 71.3538C115.771 71.36 116.156 71.36 116.541 71.3538C116.742 71.3507 116.818 71.4399 116.82 71.6346C116.821 71.9247 116.807 72.2143 116.878 72.5026C116.992 72.9624 117.259 73.2782 117.698 73.4523C118.02 73.5796 118.354 73.6601 118.699 73.6613C120.643 73.6651 122.587 73.6644 124.532 73.6576C124.759 73.657 124.988 73.622 125.212 73.5808C126.24 73.3905 126.495 72.93 126.442 71.8623C126.395 70.9195 125.941 70.5476 124.884 70.5182C123.835 70.4889 122.784 70.512 121.734 70.512C121.734 70.507 121.734 70.502 121.734 70.4976L121.733 70.4952Z" fill="white"/>
<path d="M150.712 75.1754C149.487 75.1742 148.258 75.2397 147.045 74.9882C145.946 74.7605 144.956 74.3442 144.301 73.3683C143.883 72.7449 143.708 72.0398 143.693 71.3022C143.672 70.3251 143.68 69.3473 143.689 68.3694C143.705 66.4494 144.706 65.1652 146.558 64.6741C147.407 64.4489 148.274 64.3609 149.15 64.3577C150.325 64.354 151.501 64.3315 152.675 64.369C153.81 64.4052 154.935 64.5337 155.965 65.0841C157.071 65.675 157.631 66.6304 157.75 67.8415C157.875 69.1151 157.872 70.3962 157.753 71.6704C157.616 73.1399 156.851 74.1633 155.46 74.6962C154.615 75.02 153.729 75.1355 152.834 75.1704C152.128 75.1979 151.42 75.176 150.712 75.176V75.1754ZM150.728 73.6553V73.6497C151.591 73.6497 152.454 73.6529 153.317 73.6472C153.472 73.646 153.626 73.6092 153.78 73.5892C154.956 73.4369 155.694 72.8279 155.873 71.6922C156.074 70.4168 156.056 69.1214 155.877 67.8422C155.742 66.8781 155.136 66.2897 154.2 66.0438C153.837 65.949 153.468 65.8853 153.092 65.8841C151.699 65.8778 150.305 65.8803 148.913 65.8759C148.528 65.8747 148.146 65.8953 147.763 65.944C146.467 66.1093 145.749 66.7458 145.579 68.035C145.433 69.1482 145.481 70.2789 145.555 71.3971C145.625 72.4623 146.176 73.2092 147.251 73.4925C147.613 73.588 147.981 73.6553 148.358 73.6553C149.148 73.6553 149.939 73.6553 150.728 73.6553Z" fill="white"/>
<path d="M177.401 64.5606C178.451 64.5606 179.501 64.5681 180.551 64.5556C180.824 64.5525 180.927 64.6436 180.909 64.9157C180.891 65.1846 180.896 65.4567 180.907 65.7263C180.916 65.9559 180.82 66.0526 180.594 66.0327C180.511 66.0252 180.428 66.032 180.344 66.032C178.337 66.032 176.331 66.0383 174.324 66.0258C174.02 66.0239 173.909 66.0926 173.912 66.4208C173.929 68.022 173.916 69.6232 173.923 71.2237C173.924 71.5132 173.949 71.8065 173.999 72.0917C174.169 73.087 174.69 73.5774 175.762 73.6567C176.61 73.7197 177.466 73.7422 178.313 73.6093C179.114 73.4838 179.515 73.0514 179.632 72.2564C179.713 71.7073 179.695 71.1569 179.69 70.6072C179.688 70.3464 179.761 70.2209 180.044 70.2384C180.344 70.2571 180.647 70.2447 180.948 70.2434C181.103 70.2428 181.215 70.2852 181.213 70.468C181.208 71.288 181.258 72.1098 181.118 72.9254C180.92 74.0773 180.212 74.7331 179.109 75.0045C178.614 75.1262 178.111 75.2104 177.598 75.1998C176.644 75.1799 175.688 75.2685 174.738 75.0832C173.003 74.7443 172.095 73.6798 172.084 71.9132C172.074 70.156 172.084 68.3989 172.081 66.6423C172.08 65.9459 172.146 66.0389 171.457 66.0333C171.031 66.0295 170.603 66.0133 170.179 66.0389C169.852 66.0582 169.754 65.9253 169.777 65.6227C169.794 65.3956 169.791 65.1647 169.777 64.9369C169.761 64.6624 169.853 64.5438 170.15 64.555C170.679 64.5756 171.211 64.5507 171.74 64.565C171.994 64.5719 172.09 64.4914 172.085 64.2287C172.072 63.4593 172.09 62.6899 172.077 61.9205C172.072 61.6491 172.165 61.548 172.438 61.5611C172.801 61.5785 173.166 61.581 173.529 61.5604C173.825 61.5436 173.933 61.6391 173.925 61.9448C173.906 62.693 173.93 63.4418 173.913 64.19C173.907 64.4714 173.986 64.5706 174.28 64.5663C175.32 64.55 176.359 64.56 177.399 64.56L177.401 64.5606Z" fill="white"/>
<path d="M160.502 65.8599C161.254 64.7186 162.368 64.3654 163.634 64.3642C164.765 64.3629 165.9 64.2837 167.024 64.484C167.487 64.5663 167.938 64.683 168.353 64.9108C169.275 65.4181 169.63 66.2642 169.73 67.2514C169.788 67.8199 169.796 68.3908 169.792 68.963C169.79 69.2076 169.719 69.3287 169.452 69.3168C169.089 69.3012 168.724 69.3031 168.361 69.3162C168.113 69.325 168.035 69.2158 168.034 68.9818C168.033 68.5356 168.066 68.0869 167.987 67.6445C167.781 66.4995 167.292 66.0652 166.14 65.9479C165.102 65.8424 164.063 65.8649 163.025 65.893C161.598 65.931 160.63 66.9637 160.628 68.3964C160.626 70.4544 160.628 72.5123 160.628 74.5703C160.628 74.8869 160.465 75.0454 160.139 75.0458C159.817 75.0458 159.494 75.0308 159.173 75.0501C158.87 75.0682 158.783 74.9472 158.784 74.652C158.793 72.2821 158.79 69.9128 158.79 67.5428C158.79 66.6698 158.8 65.7962 158.784 64.9239C158.778 64.6187 158.887 64.5208 159.181 64.5382C159.523 64.5588 159.867 64.5507 160.21 64.5407C160.423 64.5351 160.511 64.6169 160.506 64.8322C160.496 65.1747 160.503 65.5173 160.503 65.8599H160.502Z" fill="white"/>
<path d="M32.0169 65.8257C32.3333 65.4476 32.6434 65.1075 33.054 64.8672C33.5682 64.5658 34.131 64.3936 34.7145 64.383C35.9912 64.3599 37.2729 64.2763 38.5421 64.4916C39.5424 64.6613 40.4216 65.0313 40.9052 66.0135C41.1155 66.441 41.2178 66.899 41.2446 67.3657C41.2765 67.9255 41.2546 68.4883 41.2621 69.0499C41.2646 69.2327 41.1891 69.3176 41.0044 69.3164C40.6094 69.3132 40.2144 69.312 39.8188 69.317C39.6141 69.3195 39.5505 69.2171 39.5474 69.0268C39.5399 68.5913 39.5598 68.1557 39.4968 67.7202C39.3265 66.5477 38.826 66.0709 37.6504 65.9517C36.6127 65.8463 35.5725 65.8681 34.5348 65.8968C33.0977 65.9368 32.1442 66.9564 32.143 68.3947C32.1417 70.4639 32.143 72.5331 32.143 74.6023C32.143 75.044 32.1374 75.0484 31.685 75.049C31.3524 75.0497 31.0185 75.0334 30.6872 75.0528C30.3833 75.0703 30.2997 74.9492 30.3003 74.654C30.3097 71.8049 30.3059 68.9557 30.3059 66.1065C30.3059 65.6903 30.314 65.2747 30.3028 64.8585C30.2972 64.6364 30.3689 64.5346 30.6048 64.5421C30.9786 64.5546 31.3536 64.5527 31.7274 64.5421C31.9464 64.5365 32.0238 64.6326 32.0194 64.8404C32.0126 65.168 32.0175 65.4956 32.0175 65.8232L32.0169 65.8257Z" fill="white"/>
<path d="M48.8898 63.4291C42.8695 63.4291 36.8491 63.4291 30.8288 63.4291C30.7352 63.4291 30.6416 63.4266 30.548 63.4273C30.3826 63.4285 30.2965 63.3536 30.3015 63.182C30.3046 63.0678 30.3046 62.953 30.3015 62.8388C30.2965 62.6685 30.3807 62.5911 30.5467 62.5917C30.6197 62.5917 30.6921 62.5898 30.7651 62.5898C42.837 62.5898 54.9089 62.5898 66.9802 62.5898C67.4363 62.5898 67.4494 62.6017 67.4507 62.9936C67.4526 63.411 67.4351 63.4297 67.0126 63.4297C60.9717 63.4297 54.9308 63.4297 48.8892 63.4297L48.8898 63.4291Z" fill="white"/>
<path d="M89.1017 63.4297C83.1737 63.4297 77.2463 63.4297 71.3183 63.4297C70.8222 63.4297 70.6843 63.2432 70.8129 62.7596C70.8416 62.6504 70.9046 62.6017 71.0088 62.5961C71.1124 62.5911 71.2166 62.5898 71.3208 62.5898C83.1974 62.5898 95.0734 62.5898 106.95 62.5898C107.42 62.5898 107.585 62.8257 107.437 63.2769C107.401 63.3848 107.331 63.4241 107.228 63.4266C107.124 63.4291 107.02 63.4304 106.916 63.4304C100.978 63.4304 95.0397 63.4304 89.1017 63.4304V63.4297Z" fill="white"/>
<path d="M109.765 67.51C109.765 69.8706 109.765 72.2305 109.765 74.5911C109.765 75.0198 109.755 75.0285 109.331 75.0304C108.999 75.0317 108.665 75.0154 108.333 75.0348C108.025 75.0535 107.919 74.948 107.921 74.6279C107.935 72.7353 107.928 70.8427 107.928 68.9508C107.928 66.1122 107.928 63.273 107.928 60.4344C107.928 60.1337 108.076 59.9827 108.373 59.9814C108.696 59.9802 109.018 59.9802 109.341 59.9814C109.754 59.9827 109.765 59.992 109.765 60.3976C109.766 62.259 109.765 64.1204 109.765 65.9818C109.765 66.4916 109.765 67.0008 109.765 67.5106V67.51Z" fill="white"/>
<path d="M120.057 81.8417C119.972 81.9883 120.002 82.1044 120.002 82.2148C119.999 83.587 120.001 84.9585 119.999 86.3307C119.999 86.7226 119.987 86.7301 119.561 86.7307C119.13 86.7307 119.116 86.722 119.115 86.3363C119.113 84.6528 119.119 82.9686 119.109 81.2851C119.108 80.9874 119.206 80.8894 119.506 80.8919C120.427 80.8988 120.423 80.8913 120.949 81.6495C121.819 82.9043 122.702 84.1517 123.567 85.4109C123.724 85.6393 123.79 85.6587 123.958 85.4141C124.916 84.0169 125.895 82.6348 126.855 81.2395C127.025 80.9918 127.209 80.8545 127.52 80.8932C127.714 80.9175 127.914 80.9032 128.111 80.8982C128.297 80.8932 128.37 80.9781 128.37 81.1615C128.367 82.9287 128.367 84.6952 128.37 86.4624C128.37 86.6421 128.304 86.7376 128.116 86.7295C128.033 86.7257 127.948 86.7232 127.867 86.732C127.61 86.7582 127.52 86.6483 127.522 86.3913C127.532 85.2793 127.526 84.1673 127.526 83.0547C127.526 82.6522 127.526 82.2491 127.47 81.8242C127.077 82.3908 126.682 82.9574 126.289 83.524C125.62 84.4887 124.952 85.4546 124.28 86.4175C123.956 86.8817 123.555 86.8717 123.226 86.3969C122.226 84.9536 121.226 83.5096 120.225 82.0663C120.179 81.9995 120.128 81.9359 120.058 81.8423L120.057 81.8417Z" fill="white"/>
<path d="M159.187 83.6247C159.792 83.7514 160.05 84.117 160.096 84.668C160.118 84.9382 160.132 85.209 160.103 85.4767C160.022 86.2155 159.521 86.6879 158.665 86.7054C156.982 86.7403 155.298 86.7179 153.614 86.7216C153.427 86.7216 153.357 86.6374 153.357 86.4564C153.359 84.6899 153.36 82.9227 153.357 81.1562C153.357 80.9477 153.457 80.8891 153.645 80.8891C155.277 80.8922 156.909 80.8772 158.541 80.8978C159.414 80.9091 159.87 81.4139 159.875 82.2875C159.875 82.3393 159.875 82.3917 159.875 82.4435C159.875 83.1205 159.799 83.2559 159.188 83.6241L159.187 83.6247ZM156.493 84.0971C156.493 84.0971 156.493 84.0915 156.493 84.089C155.87 84.089 155.248 84.0883 154.625 84.089C154.202 84.0896 154.202 84.0908 154.201 84.5276C154.201 84.849 154.201 85.171 154.201 85.4923C154.201 85.8347 154.367 86.0061 154.7 86.0065C155.83 86.0065 156.962 86.0065 158.092 86.0065C159.088 86.0065 159.261 85.8299 159.229 84.8496C159.212 84.3298 159.012 84.112 158.484 84.1002C157.82 84.0852 157.156 84.0964 156.493 84.0964V84.0971ZM156.416 83.337C156.936 83.337 157.454 83.337 157.973 83.337C158.892 83.337 158.996 83.2322 158.99 82.3205C158.986 81.8319 158.793 81.6154 158.296 81.6111C157.019 81.6004 155.743 81.6098 154.466 81.6042C154.259 81.6036 154.195 81.694 154.2 81.8875C154.208 82.2301 154.201 82.5726 154.202 82.9152C154.202 83.3352 154.203 83.3364 154.611 83.3377C155.213 83.3389 155.815 83.3377 156.417 83.3377L156.416 83.337Z" fill="white"/>
<path d="M106.457 69.7709C106.457 71.382 106.451 72.9938 106.464 74.605C106.466 74.9183 106.37 75.0356 106.054 75.0175C105.681 74.9962 105.306 75.0075 104.932 75.0137C104.712 75.0175 104.617 74.9382 104.617 74.7036C104.622 71.4083 104.622 68.1123 104.617 64.8169C104.617 64.5904 104.694 64.4999 104.924 64.5068C105.319 64.5187 105.715 64.5243 106.109 64.5049C106.394 64.4912 106.462 64.6141 106.461 64.8743C106.453 66.5067 106.457 68.1385 106.457 69.7709H106.457Z" fill="white"/>
<path d="M165.777 81.8385C165.317 83.0285 164.871 84.1804 164.426 85.3323C164.276 85.7198 164.121 86.1054 163.978 86.4954C163.916 86.6639 163.82 86.7363 163.634 86.7431C162.835 86.7712 162.833 86.7774 162.54 86.0386C161.91 84.4555 161.281 82.8712 160.653 81.2875C160.51 80.9256 160.524 80.9274 160.915 80.9019C161.23 80.8813 161.395 80.9786 161.514 81.2912C162.051 82.6877 162.617 84.073 163.175 85.4614C163.217 85.5644 163.231 85.6842 163.36 85.789C163.567 85.2667 163.771 84.7594 163.97 84.2509C164.364 83.245 164.762 82.2403 165.143 81.2288C165.235 80.9842 165.369 80.8956 165.627 80.9031C166.492 80.9287 166.286 80.7927 166.59 81.5645C167.127 82.9274 167.644 84.2983 168.169 85.6661C168.187 85.7129 168.207 85.7591 168.252 85.8652C168.375 85.575 168.483 85.3354 168.58 85.092C169.092 83.8197 169.601 82.5461 170.111 81.2731C170.241 80.9493 170.655 80.7808 170.966 80.9206C171.098 80.9799 171.044 81.0741 171.013 81.1565C170.883 81.4959 170.748 81.8335 170.614 82.1717C170.056 83.5713 169.491 84.9678 168.946 86.3725C168.839 86.647 168.703 86.76 168.401 86.7475C167.62 86.715 167.782 86.8554 167.486 86.101C166.981 84.815 166.492 83.522 165.993 82.2341C165.945 82.1118 165.924 81.9726 165.778 81.8404L165.777 81.8385Z" fill="white"/>
<path d="M55.1605 86.782C54.5365 86.782 53.9119 86.7976 53.2892 86.7783C52.2196 86.7452 51.6518 86.2766 51.5176 85.2314C51.3959 84.2829 51.3966 83.3194 51.5189 82.371C51.6518 81.3401 52.1909 80.8659 53.2361 80.8403C54.4523 80.811 55.6691 80.8291 56.8859 80.8378C57.1661 80.8397 57.4406 80.9102 57.7071 81.0063C58.356 81.2409 58.7049 81.7651 58.6712 82.4477C58.6643 82.5869 58.6393 82.7154 58.4759 82.7048C58.2749 82.6917 58.0334 82.8265 57.8862 82.5719C57.8762 82.5544 57.8756 82.532 57.8699 82.512C57.6216 81.6708 57.5679 81.5935 56.655 81.561C55.5643 81.5223 54.471 81.5323 53.3803 81.5566C52.755 81.5704 52.4212 81.8836 52.3519 82.5101C52.2577 83.3575 52.2639 84.2143 52.3451 85.0616C52.4093 85.7381 52.7288 86.0376 53.4009 86.0557C54.5646 86.0869 55.7315 86.1025 56.894 86.0526C57.7295 86.0164 57.943 85.5846 57.8862 84.7209C57.8718 84.5007 57.7027 84.53 57.5617 84.5294C56.8335 84.5263 56.1059 84.5294 55.3777 84.5269C54.9946 84.5263 54.8124 84.2386 54.9708 83.8948C55.0195 83.7899 55.1131 83.7787 55.2061 83.7787C56.2981 83.7768 57.3901 83.7768 58.4815 83.7787C58.6181 83.7787 58.7323 83.818 58.7304 83.9877C58.7242 84.4345 58.761 84.8869 58.7011 85.3268C58.5676 86.309 58.0484 86.7496 57.0344 86.7795C56.411 86.7976 55.7864 86.7826 55.163 86.7833L55.1605 86.782Z" fill="white"/>
<path d="M144.772 83.8156C144.772 84.668 144.765 85.521 144.777 86.3734C144.78 86.6424 144.682 86.7122 144.417 86.7422C143.796 86.8121 143.346 86.5912 142.908 86.1544C141.509 84.761 140.072 83.4044 138.648 82.0354C138.577 81.9661 138.512 81.8357 138.403 81.875C138.285 81.918 138.34 82.0584 138.34 82.1545C138.336 83.5373 138.34 84.9207 138.335 86.3035C138.335 86.4483 138.404 86.658 138.203 86.7072C137.985 86.7603 137.745 86.7765 137.529 86.6848C137.437 86.6455 137.452 86.5219 137.452 86.4296C137.452 84.6824 137.453 82.9358 137.45 81.1886C137.45 80.9714 137.545 80.8841 137.752 80.9003C137.763 80.9009 137.774 80.9016 137.784 80.9003C138.445 80.773 138.909 81.0763 139.364 81.528C140.751 82.904 142.172 84.2481 143.58 85.6021C143.651 85.6708 143.712 85.8068 143.821 85.7669C143.936 85.7251 143.884 85.5834 143.884 85.4861C143.888 84.1033 143.885 82.7199 143.889 81.3371C143.889 81.1905 143.823 80.9808 144.014 80.9278C144.229 80.8672 144.473 80.8541 144.687 80.9459C144.806 80.9964 144.77 81.148 144.77 81.2591C144.773 82.1115 144.772 82.9645 144.772 83.8169L144.772 83.8156Z" fill="white"/>
<path d="M65.5875 84.1409C66.3132 84.383 66.4031 84.909 66.3893 85.4925C66.3818 85.8145 66.3868 86.1364 66.3862 86.4591C66.3862 86.801 66.1285 86.7111 65.9369 86.7211C65.7441 86.7311 65.5526 86.7392 65.56 86.4497C65.5694 86.0865 65.5657 85.7221 65.56 85.3589C65.5507 84.7412 65.3048 84.4797 64.6877 84.4735C63.4721 84.461 62.2566 84.4704 61.0404 84.461C60.802 84.4591 60.7034 84.5415 60.7084 84.7867C60.719 85.3165 60.6947 85.8469 60.7159 86.3761C60.7309 86.7555 60.4944 86.7193 60.2486 86.7267C59.9896 86.7342 59.8167 86.7111 59.8199 86.3698C59.8336 84.6557 59.8298 82.9409 59.8224 81.2262C59.8211 80.9647 59.9222 80.8855 60.173 80.8867C61.7212 80.8948 63.2693 80.888 64.8175 80.8955C65.0334 80.8967 65.2524 80.9335 65.4633 80.9828C66.0449 81.1195 66.3188 81.4408 66.4099 82.0336C66.4511 82.3026 66.4592 82.5703 66.4605 82.8411C66.4642 83.4327 66.3301 83.9387 65.5881 84.1409H65.5875ZM62.9511 81.6062C62.2379 81.6062 61.655 81.6206 61.0741 81.6C60.7765 81.5894 60.696 81.7054 60.7059 81.9812C60.7222 82.448 60.7222 82.9166 60.7059 83.3834C60.696 83.6617 60.779 83.7709 61.0754 83.7627C61.7711 83.7434 62.4675 83.7571 63.1633 83.7565C63.7236 83.7559 64.284 83.7696 64.8431 83.7003C65.336 83.6392 65.5563 83.4208 65.5713 82.9422C65.5769 82.7556 65.5763 82.5684 65.5713 82.3812C65.5582 81.9157 65.4234 81.7472 64.9647 81.663C64.2534 81.5326 63.5345 81.6455 62.9517 81.6056L62.9511 81.6062Z" fill="white"/>
<path d="M184.734 62.543C187.904 62.543 191.074 62.543 194.244 62.543C194.649 62.543 194.859 62.9018 194.673 63.2706C194.635 63.3461 194.573 63.3735 194.497 63.3785C194.404 63.3847 194.311 63.386 194.217 63.386C187.867 63.386 181.516 63.386 175.166 63.386C174.725 63.386 174.706 63.3654 174.711 62.9342C174.715 62.5611 174.732 62.543 175.13 62.543C178.331 62.543 181.533 62.543 184.734 62.543H184.734Z" fill="white"/>
<path d="M83.9073 83.8077C83.9073 82.9547 83.9154 82.1023 83.9029 81.2493C83.8992 80.9797 83.9872 80.8849 84.2617 80.8867C85.8317 80.8967 87.4023 80.8917 88.9723 80.8936C89.2438 80.8936 89.5096 80.9448 89.7723 81.0097C90.3888 81.1619 90.7694 81.5632 90.9173 82.1641C91.1669 83.1774 91.1769 84.2058 90.9573 85.2229C90.7457 86.2026 90.1155 86.6868 88.9717 86.7105C87.3811 86.743 85.7899 86.7186 84.1987 86.7261C83.9541 86.7274 83.9042 86.6082 83.9054 86.3973C83.9111 85.5343 83.9079 84.6713 83.9073 83.8077ZM87.0417 81.6075C86.3765 81.6075 85.7119 81.61 85.0467 81.6056C84.8683 81.6043 84.7485 81.6337 84.7491 81.8564C84.7547 83.155 84.7535 84.4535 84.7491 85.7521C84.7491 85.9411 84.8258 86.0092 85.0093 86.0085C86.3184 86.0042 87.6276 86.0191 88.9361 85.9979C89.6512 85.9861 90.01 85.6734 90.1429 84.9764C90.2821 84.247 90.2634 83.5026 90.1704 82.7743C90.0568 81.8858 89.6837 81.6081 88.7864 81.6068C88.2048 81.6062 87.6226 81.6068 87.041 81.6068L87.0417 81.6075Z" fill="white"/>
<path d="M76.2651 81.8152C76.2651 83.2186 76.2651 84.6002 76.2651 85.9817C76.2651 86.0647 76.2651 86.1477 76.2651 86.2313C76.2651 86.7024 76.0074 86.8802 75.5606 86.7199C75.3665 86.65 75.4246 86.4815 75.4239 86.348C75.4196 84.8722 75.4214 83.3965 75.4208 81.9207C75.4208 81.7129 75.4377 81.5032 75.4165 81.2973C75.3828 80.9716 75.5257 80.8668 75.8308 80.8986C75.9955 80.9154 76.164 80.9129 76.3294 80.8986C76.5565 80.8792 76.72 80.9697 76.8797 81.1251C78.066 82.2751 79.2578 83.4183 80.4496 84.5621C80.8908 84.9858 81.3376 85.4039 81.7862 85.8294C81.8911 85.7252 81.8437 85.6054 81.8443 85.5012C81.848 84.0985 81.8455 82.6951 81.8499 81.2923C81.8499 81.1582 81.7869 80.9635 81.9841 80.9242C82.1937 80.8824 82.4196 80.8562 82.6249 80.9541C82.7073 80.9934 82.6898 81.1008 82.6898 81.1825C82.691 82.9391 82.6898 84.6956 82.6929 86.4516C82.6929 86.6462 82.6249 86.7473 82.4221 86.7342C82.3809 86.7317 82.3379 86.7292 82.2973 86.7361C81.7107 86.8341 81.2977 86.5882 80.8814 86.1751C79.4444 84.7474 77.9661 83.3621 76.5022 81.9619C76.4448 81.907 76.4011 81.8283 76.2645 81.8171L76.2651 81.8152Z" fill="white"/>
<path d="M99.3408 86.787C98.7586 86.787 98.1764 86.8002 97.5948 86.7839C96.5097 86.7534 95.9269 86.2847 95.8064 85.2196C95.6991 84.2723 95.6929 83.307 95.8145 82.3591C95.9443 81.3501 96.4891 80.8746 97.5149 80.8466C98.7193 80.8135 99.9261 80.821 101.131 80.8441C101.938 80.859 102.45 81.2316 102.617 81.845C102.69 82.1108 102.657 82.3816 102.655 82.6512C102.654 82.8253 102.521 82.8515 102.393 82.8409C102.222 82.8271 102.005 82.9307 101.909 82.6824C101.899 82.6543 101.899 82.6212 101.895 82.59C101.786 81.6983 101.617 81.5504 100.705 81.5498C99.7701 81.5492 98.8347 81.5473 97.9 81.5498C96.9989 81.5523 96.6108 81.9429 96.6083 82.8452C96.6064 83.5104 96.6045 84.1756 96.6083 84.8402C96.6133 85.6495 97.0002 86.0576 97.8101 86.0694C98.8285 86.0844 99.8468 86.0744 100.865 86.0707C100.978 86.0707 101.092 86.047 101.204 86.0276C101.772 85.9309 101.937 85.7344 101.946 85.1478C101.952 84.7098 101.962 84.7154 102.406 84.701C102.696 84.6917 102.782 84.8021 102.783 85.0829C102.787 86.2286 102.304 86.7403 101.117 86.7814C100.526 86.802 99.9329 86.7852 99.3408 86.7858V86.787Z" fill="white"/>
<path d="M132.928 80.9247C133.332 80.8124 133.517 81.0226 133.7 81.3365C134.684 83.0251 135.689 84.7011 136.687 86.3816C136.879 86.7054 136.861 86.7023 136.488 86.7447C136.048 86.7946 135.817 86.6093 135.611 86.2355C135.14 85.38 135.363 85.5498 134.423 85.541C133.269 85.5304 132.114 85.5435 130.961 85.5342C130.724 85.5323 130.564 85.6028 130.463 85.8206C130.403 85.9522 130.296 86.0646 130.248 86.1993C130.073 86.6892 129.718 86.8021 129.243 86.7429C129.029 86.716 128.986 86.6686 129.099 86.4801C129.48 85.848 129.853 85.2109 130.229 84.5763C130.866 83.5037 131.513 82.4366 132.134 81.3552C132.325 81.0226 132.527 80.7924 132.927 80.9247H132.928ZM132.934 84.786C133.452 84.786 133.971 84.7816 134.489 84.7879C134.71 84.7904 134.742 84.7248 134.63 84.5364C134.107 83.6647 133.59 82.7898 133.078 81.9118C132.961 81.7115 132.889 81.7084 132.771 81.9118C132.266 82.7817 131.755 83.6478 131.236 84.5102C131.095 84.7461 131.181 84.791 131.409 84.7879C131.917 84.7816 132.425 84.786 132.934 84.786Z" fill="white"/>
<path d="M74.3261 86.7386C73.9641 86.8272 73.7557 86.645 73.6459 86.3411C73.4007 85.6628 72.9383 85.4788 72.23 85.5231C71.1337 85.5917 70.0292 85.548 68.9285 85.5362C68.677 85.5337 68.5135 85.6117 68.408 85.8376C68.3469 85.9686 68.2489 86.0847 68.1965 86.2182C68.0224 86.6637 67.7067 86.8116 67.243 86.7449C66.9579 86.7037 66.9323 86.6937 67.0858 86.4335C67.6087 85.548 68.136 84.6657 68.6608 83.7821C69.1693 82.9247 69.6816 82.0699 70.1808 81.2069C70.3031 80.996 70.4479 80.9211 70.6963 80.8955C71.2079 80.8424 71.4931 81.029 71.7508 81.4827C72.6681 83.0988 73.639 84.685 74.5856 86.285C74.6574 86.406 74.8159 86.5358 74.7504 86.6669C74.6693 86.8291 74.464 86.6937 74.3273 86.7392L74.3261 86.7386ZM70.8498 84.7874C71.3683 84.7874 71.8875 84.7849 72.406 84.7886C72.6225 84.7905 72.6987 84.7318 72.5714 84.5178C72.0503 83.6448 71.533 82.77 71.0201 81.8926C70.9015 81.6892 70.8329 81.7329 70.7318 81.9064C70.2139 82.7931 69.6904 83.676 69.1637 84.5577C69.0614 84.7293 69.0863 84.793 69.2935 84.7899C69.812 84.7836 70.3312 84.788 70.8498 84.7874Z" fill="white"/>
<path d="M107.093 80.9216C107.48 80.8205 107.679 81.0065 107.865 81.3241C108.852 83.0201 109.861 84.7037 110.862 86.3916C111.047 86.703 111.028 86.7055 110.678 86.7441C110.252 86.7909 110.009 86.6406 109.794 86.2574C109.305 85.3876 109.572 85.5492 108.557 85.5411C107.415 85.5317 106.272 85.5442 105.13 85.5342C104.891 85.5323 104.735 85.606 104.634 85.8219C104.572 85.9529 104.465 86.0652 104.418 86.2C104.253 86.6761 103.916 86.7978 103.446 86.7454C103.205 86.7186 103.15 86.6774 103.284 86.4559C103.741 85.7008 104.187 84.9389 104.638 84.1801C105.195 83.2429 105.764 82.3125 106.303 81.3646C106.491 81.0333 106.684 80.7949 107.093 80.921L107.093 80.9216ZM107.097 84.7867C107.615 84.7867 108.134 84.7829 108.653 84.7885C108.86 84.7904 108.922 84.7367 108.803 84.5389C108.276 83.6578 107.753 82.7743 107.232 81.8888C107.137 81.7278 107.068 81.6966 106.96 81.8819C106.442 82.7686 105.919 83.6528 105.392 84.5339C105.276 84.728 105.33 84.7885 105.54 84.7873C106.058 84.7829 106.577 84.786 107.096 84.786L107.097 84.7867Z" fill="white"/>
<path d="M114.359 85.2974C114.582 84.5748 114.156 83.992 113.537 83.4316C112.746 82.714 112.021 81.9228 111.269 81.1615C111.214 81.106 111.111 81.0567 111.148 80.9637C111.186 80.8701 111.294 80.92 111.372 80.9075C111.392 80.9044 111.413 80.91 111.434 80.9069C111.966 80.8171 112.347 81.0336 112.704 81.4286C113.302 82.0906 113.96 82.699 114.58 83.3424C114.754 83.524 114.863 83.5096 115.029 83.3355C115.718 82.6154 116.44 81.9246 117.109 81.1865C117.484 80.7727 117.929 80.9244 118.355 80.9269C118.523 80.9281 118.398 81.0617 118.346 81.1184C118.106 81.3774 117.865 81.6351 117.617 81.886C116.886 82.6248 116.154 83.363 115.416 84.0937C115.265 84.2434 115.194 84.3988 115.199 84.6147C115.21 85.2169 115.189 85.8203 115.207 86.4224C115.218 86.7706 115.002 86.7388 114.779 86.7407C114.55 86.7432 114.334 86.7594 114.355 86.4168C114.375 86.0961 114.359 85.7729 114.359 85.2974H114.359Z" fill="white"/>
<path d="M171.703 83.8111C171.703 82.9687 171.717 82.1263 171.695 81.2846C171.686 80.952 171.818 80.8808 172.115 80.8871C172.391 80.8927 172.557 80.917 172.554 81.2683C172.538 82.9631 172.538 84.6579 172.554 86.3527C172.557 86.7034 172.393 86.7296 172.116 86.7346C171.819 86.7402 171.686 86.6703 171.695 86.3371C171.717 85.4953 171.703 84.6529 171.703 83.8105V83.8111Z" fill="white"/>
<path d="M106.457 60.997C106.457 61.2354 106.452 61.4744 106.458 61.7127C106.463 61.9068 106.383 61.9992 106.183 61.9967C105.747 61.9917 105.311 61.9929 104.876 61.9954C104.69 61.9967 104.618 61.9074 104.62 61.7271C104.625 61.2391 104.627 60.7518 104.62 60.2638C104.617 60.0673 104.693 59.978 104.893 59.9805C105.329 59.9855 105.765 59.9843 106.2 59.9811C106.387 59.9799 106.46 60.0716 106.458 60.2501C106.454 60.4991 106.457 60.748 106.457 60.997H106.457Z" fill="white"/>
<path d="M197.208 75.0591C196.411 75.0441 195.777 74.3826 195.792 73.5839C195.806 72.8201 196.486 72.1587 197.246 72.1681C198.028 72.1781 198.702 72.8669 198.683 73.6363C198.663 74.4338 198 75.0734 197.208 75.0584V75.0591ZM197.929 74.4188C198.355 74.0869 198.454 73.5259 198.169 73.0579C197.878 72.5805 197.286 72.3915 196.787 72.6304C196.376 72.827 196.155 73.1671 196.139 73.6189C196.124 74.0482 196.413 74.4606 196.808 74.6241C197.221 74.7957 197.623 74.724 197.925 74.4244L197.929 74.4188Z" fill="white"/>
<path d="M147.65 86.433C147.65 86.5677 147.653 86.7025 147.65 86.8373C147.639 87.3346 147.423 87.5705 146.923 87.6354C146.807 87.6504 146.671 87.6791 146.641 87.5306C146.611 87.3877 146.552 87.2017 146.736 87.115C147.018 86.9815 147.152 86.8766 146.765 86.6913C146.632 86.6276 146.691 86.4454 146.689 86.315C146.682 85.6249 146.721 85.5949 147.401 85.6598C147.584 85.6773 147.66 85.7553 147.652 85.935C147.645 86.1004 147.651 86.2663 147.651 86.4323L147.65 86.433Z" fill="white"/>
<path d="M197.924 74.4126C197.637 74.4919 197.478 74.3446 197.365 74.1031C197.322 74.0095 197.264 73.9228 197.209 73.8348C197.181 73.7886 197.136 73.7549 197.08 73.7724C197.025 73.7899 197.012 73.8448 197.01 73.8985C197.007 74.012 197.006 74.1262 197 74.2398C196.995 74.3459 196.95 74.4183 196.831 74.4151C196.731 74.4126 196.675 74.3565 196.674 74.2604C196.67 73.8261 196.67 73.3911 196.672 72.9568C196.672 72.8807 196.703 72.8008 196.787 72.794C197.095 72.7696 197.411 72.7091 197.7 72.8639C197.959 73.0024 198.027 73.3911 197.791 73.579C197.542 73.7768 197.614 73.9215 197.758 74.1131C197.826 74.203 197.873 74.3091 197.929 74.407L197.924 74.4126ZM197.237 73.4567C197.392 73.4567 197.549 73.4479 197.552 73.2726C197.554 73.0792 197.376 73.0785 197.237 73.0604C197.088 73.0411 197.005 73.0991 197.008 73.2639C197.011 73.4373 197.116 73.4629 197.237 73.4567Z" fill="white"/>
</g>
<defs>
<clipPath id="clip0_580_114">
<rect width="231" height="127" fill="white"/>
</clipPath>
</defs>
</svg>
