<svg width="231" height="127" viewBox="0 0 231 127" fill="none" xmlns="http://www.w3.org/2000/svg">
<g clip-path="url(#clip0_122_2467)">
<path fill-rule="evenodd" clip-rule="evenodd" d="M122.826 56.6118C121.362 57.6473 119.437 57.803 117.946 57.1301C117.946 57.1301 117.539 56.9744 117.159 56.5606C116.832 56.1702 108.588 47.2911 108.588 47.2911L108.562 47.2655C111.111 47.7059 113.905 46.5409 115.342 44.4178C116.779 42.3981 116.726 39.5245 115.369 37.505C113.743 35.3046 110.568 34.58 107.911 34.916C103.301 35.5375 99.9917 39.4469 98.9617 43.5382C97.904 48.1976 98.6637 52.5988 100.319 56.7408C100.698 57.6217 101.213 58.5271 101.837 59.3035C96.9819 57.2847 92.6964 53.5564 90.4464 48.559C87.9513 43.1746 88.0056 36.3661 90.9619 30.9036C93.2936 26.6837 97.4157 22.7743 102.514 21.1171C107.857 19.0203 115.044 19.4602 120.252 22.2563C126.569 25.2593 131.343 32.7424 131.37 39.4214C131.587 46.3337 128.386 52.5988 122.826 56.6118Z" fill="#EEEEEE"/>
<path fill-rule="evenodd" clip-rule="evenodd" d="M105.088 59.2254C102.729 56.7907 100.83 53.633 102.268 50.3452C103.542 47.8337 104.681 45.2706 105.223 42.3706C105.44 45.4004 107.367 48.0928 108.288 50.9925C108.64 52.3906 108.668 53.841 108.099 55.2903C107.475 56.8697 106.471 58.2155 105.278 59.4323L105.088 59.2254Z" fill="#EEEEEE"/>
<path fill-rule="evenodd" clip-rule="evenodd" d="M75.331 86.5812H69.0506C67.6593 84.4968 66.4023 82.6961 65.2732 81.1801C64.0918 79.5873 62.8734 78.0224 61.6194 76.4875H59.2345V83.5548C59.2345 83.9185 59.2963 84.2399 59.4144 84.5191C59.5321 84.7916 59.7901 85.0063 60.1888 85.1509C60.385 85.2254 60.7281 85.2955 61.2215 85.3544C61.7154 85.4189 62.1311 85.4567 62.4734 85.4667V86.5812H52.6055V85.4667C52.8693 85.4445 53.2517 85.4078 53.751 85.3544C54.2503 85.3066 54.5984 85.2365 54.7946 85.1509C55.1211 85.0163 55.3614 84.8183 55.5076 84.5558C55.6583 84.2933 55.7321 83.9618 55.7321 83.5548V67.447C55.7321 67.0778 55.6762 66.7563 55.5631 66.4727C55.4574 66.188 55.1987 65.9733 54.795 65.8287C54.5199 65.733 54.1613 65.6474 53.723 65.5718C53.3535 65.5017 52.9804 65.4505 52.6055 65.4216V64.3071H63.3767C64.3644 64.3071 65.2899 64.4039 66.1548 64.5963C67.0181 64.7898 67.805 65.1002 68.5071 65.5284C69.1746 65.9355 69.7332 66.4983 70.1343 67.169C70.5392 67.8441 70.7458 68.6583 70.7458 69.6126C70.7458 70.4701 70.606 71.2309 70.3305 71.8883C70.059 72.5412 69.6448 73.1262 69.1182 73.5978C68.6244 74.0472 68.0287 74.4398 67.3391 74.7668C66.6491 75.0983 65.8851 75.3774 65.0553 75.6077C66.0197 76.8256 66.9756 78.0513 67.9231 79.2837C68.6862 80.2736 69.6171 81.4848 70.7284 82.9052C71.2113 83.537 71.6433 83.9974 72.0374 84.2977C72.4243 84.5925 72.811 84.8405 73.1934 85.0263C73.4792 85.1609 73.8325 85.2688 74.2645 85.3422C74.6911 85.4134 75.0451 85.4556 75.331 85.4667V86.5812ZM66.6825 69.9707C66.6825 68.6205 66.2775 67.5549 65.4648 66.7619C64.6562 65.9744 63.5053 65.5784 62.0292 65.5784H59.2345V75.1361H61.3901C62.8996 75.1361 64.1632 74.6756 65.1664 73.748C66.1778 72.8215 66.6829 71.5624 66.6829 69.9707H66.6825ZM90.2103 82.9375C89.5315 84.1754 88.6216 85.1564 87.4836 85.8905C86.3431 86.6235 85.0303 86.9883 83.5538 86.9883C82.2455 86.9883 81.1068 86.7681 80.1249 86.3287C79.1423 85.8905 78.3337 85.2954 77.7005 84.5402C77.0659 83.7894 76.5883 82.9052 76.2749 81.9031C75.9651 80.8965 75.8094 79.8354 75.8094 78.7153C75.8094 77.7132 75.9772 76.7277 76.3078 75.7578C76.6355 74.8024 77.1361 73.9159 77.7848 73.1429C78.4075 72.4033 79.1815 71.8026 80.1079 71.3477C81.0337 70.8917 82.0727 70.6637 83.2236 70.6637C84.4071 70.6637 85.4227 70.8394 86.265 71.1987C87.1125 71.5513 87.7979 72.0395 88.3202 72.6557C88.824 73.2452 89.1997 73.9359 89.4472 74.729C89.6944 75.5276 89.8179 76.3907 89.8179 77.3172V78.3572H79.0814C79.0814 79.3693 79.1815 80.2914 79.3831 81.1156C79.5848 81.9464 79.9058 82.6694 80.3487 83.3023C80.7757 83.9074 81.3314 84.3845 82.0222 84.7382C82.7122 85.0863 83.5375 85.2632 84.4917 85.2632C85.4673 85.2632 86.3102 85.043 87.016 84.6092C87.719 84.1754 88.4028 83.3935 89.0598 82.2623L90.2103 82.9375ZM86.5795 77.038C86.5795 76.4497 86.5293 75.8223 86.4221 75.1516C86.3152 74.4832 86.1519 73.9259 85.9228 73.4755C85.6773 73.0039 85.3206 72.599 84.8834 72.2965C84.4471 71.9917 83.8794 71.8416 83.1894 71.8416C82.0385 71.8416 81.0847 72.2965 80.3207 73.213C79.5581 74.1295 79.1476 75.4041 79.0809 77.038H86.5795ZM99.3757 86.5812H91.7411V85.5835C91.9847 85.5624 92.245 85.5368 92.5219 85.5101C92.7522 85.4957 92.9813 85.4578 93.2049 85.3967C93.5019 85.3088 93.7243 85.1475 93.87 84.9206C94.0168 84.6937 94.098 84.3978 94.0925 84.0364L93.8433 67.5071C93.8411 67.3202 93.7566 66.7808 93.6531 66.4093C93.6064 66.2402 93.5552 66.1045 93.5074 66.0534C93.4574 65.9978 93.4396 65.941 93.3695 65.881C93.0948 65.6463 93.4351 65.9711 93.1793 65.7542C93.0102 65.6096 93.2494 65.6997 92.7422 65.5996C92.2383 65.5006 91.3963 65.723 91.0871 65.7019L91.0593 64.613L96.7541 64.316L97.0244 64.5374L97.0466 83.8551C97.0466 84.2065 97.1145 84.4957 97.2524 84.7238C97.3892 84.9495 97.6106 85.1275 97.9187 85.2465C98.14 85.3444 98.3702 85.4211 98.606 85.4734C98.8352 85.5257 99.0943 85.5613 99.3757 85.5835V86.5812ZM109.188 86.5812H101.413V85.5557L102.186 85.4912C102.454 85.4712 102.681 85.4289 102.877 85.3644C103.184 85.2743 103.412 85.1097 103.556 84.8761C103.7 84.6414 103.779 84.3389 103.779 83.9663V74.4887C103.779 74.154 103.696 73.8514 103.539 73.5745C103.383 73.2986 103.161 73.0695 102.877 72.8838C102.671 72.757 102.375 72.6502 101.982 72.5656C101.628 72.4822 101.269 72.4266 100.907 72.3999V71.3911L106.584 71.0463L106.811 71.2643V83.7805C106.811 84.1431 106.883 84.4446 107.028 84.6848C107.174 84.9184 107.407 85.0975 107.724 85.2109C107.964 85.3066 108.198 85.38 108.426 85.4378C108.676 85.4979 108.931 85.5368 109.188 85.5557V86.5812ZM107.134 64.9945C107.134 65.584 106.934 66.1001 106.522 66.5405C106.116 66.981 105.616 67.2046 105.014 67.2046C104.462 67.2046 103.978 66.9921 103.572 66.5728C103.166 66.1535 102.959 65.6685 102.959 65.1324C102.959 64.5585 103.166 64.0647 103.572 63.6398C103.978 63.2149 104.463 63.0024 105.014 63.0024C105.638 63.0024 106.144 63.1982 106.539 63.5975C106.934 64.0001 107.134 64.4628 107.134 64.9945ZM126.529 86.2965C126.013 86.4733 125.564 86.6179 125.177 86.7314C124.785 86.8381 124.346 86.8971 123.853 86.8971C122.994 86.8971 122.315 86.7036 121.803 86.3243C121.293 85.9383 120.968 85.3811 120.827 84.6526H120.727C120.014 85.4022 119.251 85.9806 118.431 86.3777C117.617 86.7736 116.635 86.9727 115.485 86.9727C114.267 86.9727 113.267 86.6179 112.482 85.9061C111.695 85.1931 111.303 84.261 111.303 83.1143C111.303 82.5148 111.393 81.9842 111.566 81.5127C111.745 81.0399 112.013 80.6073 112.358 80.2369C112.633 79.9266 112.992 79.6485 113.441 79.4005C113.85 79.1736 114.273 78.9767 114.711 78.811C115.203 78.6352 116.203 78.3027 117.707 77.82C119.217 77.3384 120.233 76.9635 120.76 76.6899V75.1361C120.76 75.0026 120.732 74.7401 120.67 74.3542C120.609 73.9682 120.478 73.5956 120.283 73.2552C120.064 72.8648 119.755 72.5278 119.351 72.2431C118.954 71.9528 118.385 71.8093 117.651 71.8093C117.145 71.8093 116.68 71.8894 116.248 72.0551C115.815 72.2164 115.507 72.3866 115.333 72.5645C115.333 72.7736 115.383 73.0784 115.491 73.491C115.596 73.8981 115.647 74.273 115.647 74.6222C115.647 74.9859 115.474 75.3185 115.131 75.6244C114.783 75.9302 114.306 76.0793 113.688 76.0793C113.143 76.0793 112.74 75.8924 112.482 75.522C112.222 75.1516 112.094 74.7346 112.094 74.273C112.094 73.7914 112.275 73.3309 112.627 72.8915C112.988 72.4522 113.447 72.0607 114.02 71.7181C114.514 71.4234 115.108 71.1764 115.809 70.9673C116.511 70.7638 117.196 70.6626 117.865 70.6626C118.785 70.6626 119.588 70.7271 120.278 70.8439C120.95 70.9595 121.587 71.2254 122.14 71.6213C122.702 72.0073 123.123 72.5323 123.415 73.1963C123.706 73.8614 123.853 74.719 123.853 75.7634C123.853 77.2627 123.836 78.5874 123.802 79.7442C123.769 80.902 123.752 82.1655 123.752 83.5381C123.752 83.9452 123.824 84.2666 123.977 84.5069C124.122 84.7493 124.352 84.9529 124.655 85.123C124.823 85.2143 125.082 85.2688 125.435 85.2788C125.794 85.2888 126.159 85.2954 126.529 85.2954V86.2965ZM120.795 78.0079C119.863 78.2704 119.043 78.5273 118.341 78.7798C117.639 79.0323 116.988 79.3415 116.388 79.723C115.837 80.0767 115.406 80.5005 115.085 80.9866C114.771 81.4693 114.608 82.0488 114.608 82.7183C114.608 83.5859 114.851 84.2288 115.327 84.6359C115.805 85.043 116.411 85.2476 117.14 85.2476C117.92 85.2476 118.605 85.0652 119.2 84.7059C119.79 84.3467 120.289 83.9185 120.692 83.4257L120.795 78.0079ZM146.045 86.5812H138.104V85.5468C138.356 85.5268 138.636 85.5046 138.933 85.4834C139.237 85.4612 139.484 85.4189 139.686 85.3544C139.989 85.2643 140.219 85.0975 140.366 84.8617C140.516 84.6259 140.59 84.3211 140.59 83.9452V75.9836C140.59 74.8847 140.315 74.0394 139.775 73.4432C139.231 72.8493 138.569 72.549 137.794 72.549C137.212 72.549 136.678 72.6346 136.194 72.8059C135.718 72.9772 135.285 73.1918 134.916 73.4432C134.556 73.6846 134.264 73.9415 134.051 74.2207C133.837 74.4988 133.681 74.719 133.586 74.8847V83.7894C133.586 84.1431 133.658 84.439 133.816 84.6692C133.968 84.8984 134.196 85.0763 134.505 85.1987C134.745 85.3077 134.995 85.3867 135.252 85.4356C135.521 85.4879 135.797 85.5268 136.083 85.5468V86.5812H128.141V85.5468C128.392 85.5268 128.652 85.5046 128.921 85.4834C129.159 85.4679 129.393 85.4245 129.622 85.3544C129.925 85.2643 130.155 85.0975 130.302 84.8617C130.455 84.6259 130.527 84.3211 130.527 83.9452V74.3864C130.527 74.0272 130.448 73.7002 130.284 73.4065C130.13 73.1095 129.902 72.8571 129.623 72.6724C129.415 72.549 129.168 72.4578 128.881 72.3988C128.577 72.3387 128.27 72.2998 127.961 72.2809V71.2632L133.354 70.9151L133.586 71.1342V73.3153H133.663C133.927 73.0684 134.259 72.7636 134.651 72.4155C135.044 72.0662 135.421 71.7771 135.769 71.5579C136.178 71.3066 136.661 71.0964 137.216 70.9306C137.778 70.7649 138.406 70.6793 139.108 70.6793C140.663 70.6793 141.819 71.1453 142.57 72.0662C143.323 72.9939 143.693 74.2262 143.693 75.7634V83.8173C143.693 84.1865 143.762 84.4813 143.896 84.7071C144.024 84.9317 144.249 85.1086 144.569 85.2321C144.832 85.3388 145.058 85.4089 145.249 85.4501C145.439 85.4934 145.708 85.5268 146.045 85.5468V86.5812ZM155.536 86.9883C153.19 86.9883 151.355 86.2431 150.025 84.7593C148.7 83.2756 148.038 81.2813 148.038 78.7798C148.038 77.692 148.217 76.6743 148.571 75.7256C148.93 74.7779 149.457 73.9037 150.126 73.1429C150.771 72.4033 151.584 71.8026 152.562 71.3477C153.533 70.8917 154.599 70.6637 155.749 70.6637C157.338 70.6637 158.635 71.0274 159.628 71.7559C160.628 72.4833 161.126 73.4755 161.126 74.729C161.126 75.254 160.997 75.7144 160.734 76.1171C160.47 76.5231 160.036 76.7222 159.431 76.7222C158.785 76.7222 158.287 76.5664 157.928 76.2506C157.573 75.9402 157.394 75.5865 157.394 75.2006C157.394 74.729 157.461 74.2463 157.59 73.748C157.725 73.2508 157.797 72.8871 157.82 72.6557C157.624 72.3343 157.332 72.1152 156.94 72.0073C156.553 71.895 156.131 71.8416 155.682 71.8416C155.164 71.8405 154.651 71.9495 154.178 72.163C153.701 72.3766 153.24 72.7736 152.791 73.3465C152.383 73.8725 152.057 74.5799 151.803 75.4686C151.552 76.3584 151.422 77.4184 151.422 78.6519C151.422 80.6006 151.877 82.1878 152.781 83.4191C153.683 84.647 154.874 85.2632 156.339 85.2632C157.405 85.2632 158.297 85.0163 159.016 84.5247C159.729 84.0308 160.396 83.2956 161.01 82.3102L162.064 82.9697C161.34 84.2077 160.386 85.1831 159.202 85.9061C158.017 86.6301 156.793 86.9883 155.536 86.9883ZM177.734 82.9375C177.055 84.1754 176.146 85.1564 175.006 85.8905C173.867 86.6235 172.554 86.9883 171.078 86.9883C169.77 86.9883 168.631 86.7681 167.649 86.3287C166.665 85.8905 165.858 85.2954 165.223 84.5402C164.59 83.7894 164.113 82.9052 163.798 81.9031C163.49 80.8965 163.331 79.8354 163.331 78.7153C163.331 77.7132 163.5 76.7277 163.831 75.7578C164.16 74.8035 164.66 73.917 165.307 73.1429C165.931 72.4033 166.704 71.8026 167.632 71.3477C168.557 70.8917 169.596 70.6637 170.746 70.6637C171.931 70.6637 172.946 70.8394 173.788 71.1987C174.636 71.5513 175.321 72.0395 175.843 72.6557C176.348 73.2452 176.724 73.9359 176.971 74.729C177.218 75.5276 177.341 76.3907 177.341 77.3172V78.3572H166.604C166.604 79.3693 166.704 80.2914 166.907 81.1156C167.109 81.9464 167.43 82.6694 167.873 83.3023C168.3 83.9074 168.856 84.3845 169.545 84.7382C170.235 85.0863 171.061 85.2632 172.014 85.2632C172.992 85.2632 173.833 85.043 174.541 84.6092C175.242 84.1754 175.927 83.3935 176.584 82.2623L177.734 82.9375ZM174.103 77.038C174.103 76.4497 174.053 75.8223 173.945 75.1516C173.838 74.4832 173.676 73.9259 173.447 73.4755C173.201 73.0039 172.845 72.6001 172.409 72.2965C171.97 71.9917 171.404 71.8416 170.713 71.8416C169.562 71.8416 168.609 72.2965 167.844 73.213C167.081 74.1295 166.672 75.4041 166.604 77.038H174.103Z" fill="white"/>
<path d="M57.1794 106.209H52.6113V105.751C52.7408 105.74 52.9257 105.728 53.1699 105.711C53.4137 105.694 53.5844 105.669 53.6842 105.633C53.8399 105.579 53.9543 105.501 54.0281 105.404C54.0987 105.307 54.1334 105.172 54.1334 104.999V98.349C54.1334 98.1988 54.1088 98.072 54.0548 97.9708C54.0035 97.8696 53.8791 97.7851 53.6842 97.715C53.5402 97.6639 53.3628 97.616 53.1457 97.5693C52.9695 97.5315 52.791 97.5048 52.6113 97.4892V97.0299H57.1794V97.4892C57.0304 97.4937 56.8551 97.5103 56.6493 97.5382C56.4447 97.5648 56.2665 97.6027 56.1128 97.6449C55.9329 97.6972 55.8106 97.7806 55.7501 97.8963C55.6866 98.0131 55.6574 98.1432 55.6574 98.2845V104.929C55.6574 105.069 55.6908 105.196 55.7597 105.307C55.8278 105.417 55.9476 105.505 56.1128 105.569C56.2131 105.605 56.3767 105.642 56.6038 105.682C56.8284 105.724 57.0199 105.746 57.1798 105.75L57.1794 106.209ZM66.3953 106.209H62.9455V105.783C63.0553 105.776 63.1768 105.766 63.3062 105.757C63.4381 105.748 63.5454 105.73 63.6326 105.704C63.7653 105.667 63.8648 105.599 63.9282 105.501C63.9941 105.404 64.0263 105.277 64.0263 105.124V101.841C64.0263 101.389 63.9065 101.041 63.6727 100.796C63.4357 100.55 63.1484 100.427 62.8119 100.427C62.5573 100.427 62.3256 100.461 62.1165 100.532C61.9091 100.602 61.7212 100.691 61.56 100.796C61.4048 100.895 61.2774 101.001 61.1855 101.116C61.1123 101.202 61.0446 101.293 60.9831 101.389V105.059C60.9831 105.205 61.014 105.327 61.0824 105.422C61.1481 105.516 61.2482 105.589 61.3822 105.64C61.4824 105.684 61.5893 105.715 61.7065 105.738C61.8243 105.759 61.9432 105.774 62.068 105.783V106.21H58.6176V105.783C58.7269 105.776 58.8388 105.766 58.956 105.757C59.0729 105.748 59.1731 105.73 59.2608 105.704C59.3927 105.667 59.4932 105.599 59.5555 105.501C59.6223 105.404 59.6536 105.277 59.6536 105.124V101.184C59.6536 101.035 59.6194 100.901 59.5484 100.779C59.4799 100.656 59.381 100.552 59.2612 100.478C59.171 100.427 59.0638 100.389 58.9389 100.364C58.8141 100.341 58.6801 100.324 58.5395 100.315V99.8962L60.8826 99.7538L60.9827 99.8439V100.743H61.0162C61.1309 100.64 61.275 100.515 61.446 100.371C61.6168 100.228 61.7796 100.109 61.9311 100.017C62.1293 99.905 62.3407 99.8183 62.5606 99.7593C62.8285 99.6882 63.1049 99.6537 63.3822 99.6559C64.0572 99.6559 64.5602 99.8483 64.8862 100.228C65.2135 100.61 65.3747 101.119 65.3747 101.751V105.069C65.3747 105.223 65.4038 105.344 65.4623 105.436C65.5186 105.53 65.6159 105.603 65.7545 105.653C65.8693 105.698 65.9665 105.725 66.05 105.743C66.1327 105.761 66.25 105.774 66.3953 105.783V106.209ZM75.3307 106.093L72.8731 106.236L72.7654 106.145V105.549L72.709 105.536C72.4602 105.789 72.1559 105.992 71.7899 106.153C71.4267 106.313 71.051 106.392 70.6653 106.392C70.2657 106.392 69.8707 106.308 69.5048 106.148C69.1359 105.991 68.8038 105.759 68.5293 105.466C68.2396 105.155 68.0128 104.79 67.8614 104.393C67.6976 103.974 67.615 103.512 67.615 103.008C67.6131 102.558 67.7025 102.111 67.878 101.695C68.0502 101.29 68.2978 100.921 68.6077 100.608C68.8979 100.319 69.2535 100.09 69.6759 99.9151C70.0848 99.7449 70.5231 99.6581 70.9658 99.657C71.2948 99.657 71.6166 99.6948 71.9342 99.7705C72.2507 99.8472 72.5237 99.9418 72.7508 100.059V97.8396C72.7508 97.6583 72.7187 97.4926 72.6507 97.3446C72.5941 97.2067 72.4973 97.0877 72.3726 97.0043C72.239 96.9231 72.0604 96.8641 71.8337 96.8252C71.591 96.7885 71.3469 96.7629 71.1019 96.7462V96.3447L73.9801 96.1968L74.0866 96.2936V104.897C74.0866 105.049 74.1184 105.177 74.1847 105.283C74.2473 105.387 74.343 105.477 74.4673 105.55C74.5575 105.604 74.6869 105.634 74.8597 105.647C75.0309 105.66 75.1866 105.67 75.3307 105.674V106.094V106.093ZM72.7508 104.972V101.241C72.7051 101.113 72.6429 100.992 72.5655 100.879C72.476 100.746 72.3675 100.626 72.2432 100.523C72.0961 100.409 71.9323 100.319 71.7577 100.254C71.5728 100.184 71.3558 100.149 71.1094 100.149C70.8219 100.149 70.5584 100.214 70.3197 100.349C70.0783 100.481 69.8663 100.675 69.6809 100.924C69.5023 101.166 69.3637 101.473 69.261 101.846C69.1591 102.22 69.1074 102.632 69.1074 103.085C69.1074 103.448 69.147 103.777 69.2222 104.073C69.2973 104.369 69.4268 104.643 69.6075 104.896C69.7733 105.137 69.9929 105.337 70.249 105.479C70.5071 105.624 70.8143 105.7 71.1733 105.7C71.5532 105.7 71.8704 105.623 72.1192 105.472C72.3521 105.336 72.5648 105.168 72.7508 104.972ZM83.9216 106.093L81.6261 106.236L81.5196 106.145V105.335H81.4778C81.3635 105.444 81.2344 105.56 81.0896 105.682C80.9388 105.811 80.7738 105.923 80.5979 106.016C80.4003 106.126 80.192 106.214 79.9764 106.281C79.7751 106.342 79.4925 106.371 79.1273 106.371C78.5023 106.371 78.0277 106.188 77.7008 105.819C77.3764 105.45 77.2124 104.914 77.2124 104.211V101.157C77.2124 101.002 77.179 100.873 77.1152 100.767C77.0443 100.654 76.9474 100.559 76.8325 100.49C76.7332 100.436 76.6252 100.398 76.5132 100.379C76.3785 100.353 76.2425 100.338 76.1058 100.329V99.9073L78.4543 99.7538L78.562 99.8439V104.275C78.562 104.738 78.676 105.084 78.9051 105.317C79.1347 105.549 79.4078 105.667 79.7275 105.667C79.9876 105.667 80.2222 105.629 80.4263 105.555C80.6308 105.483 80.8024 105.397 80.941 105.297C81.0704 105.207 81.1823 105.11 81.2804 105.011C81.3785 104.909 81.4537 104.813 81.5046 104.728V101.112C81.5046 100.969 81.4737 100.844 81.4044 100.734C81.3354 100.62 81.2404 100.523 81.1272 100.453C81.0416 100.4 80.9151 100.369 80.7439 100.358C80.5547 100.347 80.3653 100.337 80.1758 100.329V99.9073L82.7339 99.7538L82.8412 99.8439V104.909C82.8412 105.057 82.8758 105.18 82.941 105.285C83.0086 105.388 83.1025 105.476 83.2211 105.549C83.307 105.599 83.4089 105.629 83.5263 105.644C83.646 105.657 83.7771 105.669 83.9211 105.673L83.9216 106.093ZM89.7883 103.085C89.9828 103.24 90.1348 103.419 90.2395 103.621C90.3439 103.825 90.3953 104.073 90.3953 104.366C90.3953 104.957 90.1519 105.439 89.6638 105.814C89.1767 106.19 88.5422 106.377 87.767 106.377C87.3567 106.377 86.9788 106.312 86.6345 106.176C86.2889 106.044 86.0425 105.92 85.8932 105.808L85.7529 106.229H85.2165L85.145 104.01H85.6377C85.6769 104.178 85.757 104.375 85.8815 104.598C86.0033 104.822 86.1549 105.026 86.3302 105.207C86.5159 105.397 86.7401 105.555 86.9985 105.687C87.2598 105.814 87.55 105.88 87.8739 105.88C88.333 105.88 88.6828 105.786 88.9321 105.599C89.1783 105.411 89.3019 105.143 89.3019 104.791C89.3019 104.611 89.2644 104.456 89.1863 104.324C89.0979 104.184 88.9794 104.065 88.8394 103.977C88.6564 103.867 88.4618 103.777 88.2592 103.71C88.0296 103.63 87.777 103.551 87.4957 103.474C87.2428 103.403 86.9936 103.32 86.7488 103.224C86.4742 103.118 86.24 102.995 86.0451 102.851C85.8378 102.703 85.6627 102.514 85.5303 102.298C85.3963 102.076 85.3312 101.818 85.3312 101.52C85.3312 100.998 85.5453 100.555 85.9741 100.192C86.4032 99.8294 86.9764 99.6492 87.696 99.6492C87.9715 99.6492 88.2537 99.6826 88.5422 99.7471C88.8302 99.8127 89.064 99.8906 89.2468 99.9807L89.4097 99.6425H89.9256L90.032 101.694H89.5395C89.4393 101.236 89.2222 100.866 88.8908 100.579C88.5618 100.291 88.1569 100.149 87.6815 100.149C87.2907 100.149 86.9838 100.237 86.7589 100.413C86.5339 100.59 86.4225 100.804 86.4225 101.054C86.4225 101.248 86.4592 101.41 86.5347 101.54C86.6086 101.667 86.7183 101.778 86.8666 101.868C87.0106 101.955 87.188 102.036 87.4051 102.112C87.6226 102.186 87.891 102.272 88.2108 102.366C88.5251 102.458 88.8202 102.564 89.0978 102.683C89.3788 102.805 89.6079 102.939 89.7883 103.085ZM96.1652 105.931C95.8549 106.048 95.5624 106.145 95.2866 106.225C95.0085 106.305 94.6726 106.346 94.2722 106.346C93.6827 106.346 93.2656 106.21 93.0264 105.94C92.7851 105.671 92.665 105.291 92.665 104.798V100.478H91.3925V99.8572H92.6916V97.8718H93.9941V99.8572H96.0162V100.478H94.0075V104.044C94.0075 104.311 94.0186 104.534 94.0408 104.713C94.0597 104.891 94.112 105.048 94.1943 105.18C94.2699 105.307 94.3845 105.402 94.5358 105.465C94.6893 105.53 94.8939 105.562 95.1509 105.562C95.2699 105.562 95.4445 105.554 95.6747 105.534C95.9061 105.513 96.0696 105.49 96.1652 105.459V105.931ZM102.612 100.652C102.612 100.873 102.551 101.066 102.434 101.24C102.314 101.41 102.131 101.492 101.882 101.492C101.616 101.492 101.412 101.431 101.274 101.305C101.132 101.182 101.061 101.042 101.061 100.893C101.061 100.798 101.07 100.71 101.086 100.635C101.103 100.555 101.119 100.478 101.132 100.4C100.909 100.4 100.647 100.481 100.346 100.645C100.04 100.815 99.779 101.055 99.5832 101.345V105.059C99.5832 105.209 99.6144 105.333 99.6789 105.426C99.7445 105.521 99.8446 105.593 99.9836 105.64C100.103 105.684 100.256 105.715 100.444 105.738C100.632 105.759 100.794 105.774 100.931 105.783V106.21H97.2174V105.783C97.3276 105.776 97.4388 105.766 97.5567 105.757C97.6735 105.748 97.7736 105.73 97.8614 105.704C97.9938 105.667 98.0928 105.599 98.1562 105.501C98.2218 105.404 98.2541 105.277 98.2541 105.124V101.184C98.2541 101.048 98.2196 100.919 98.1495 100.788C98.0806 100.658 97.9827 100.555 97.8614 100.478C97.7602 100.423 97.6512 100.384 97.5389 100.364C97.4065 100.34 97.2742 100.323 97.1396 100.315V99.8962L99.4831 99.7538L99.5832 99.8439V100.743H99.6166C99.9125 100.393 100.242 100.129 100.604 99.9473C100.966 99.7671 101.297 99.6759 101.598 99.6759C101.898 99.6759 102.141 99.7638 102.329 99.9406C102.516 100.117 102.612 100.356 102.612 100.652ZM106.986 106.209H103.58V105.783C103.689 105.776 103.801 105.766 103.918 105.757C104.036 105.748 104.135 105.73 104.22 105.704C104.355 105.667 104.455 105.599 104.518 105.501C104.582 105.404 104.616 105.277 104.616 105.124V101.184C104.616 101.045 104.58 100.919 104.512 100.804C104.439 100.686 104.339 100.588 104.22 100.517C104.13 100.465 104.001 100.42 103.829 100.384C103.673 100.35 103.515 100.327 103.357 100.315V99.8962L105.845 99.7538L105.945 99.8439V105.046C105.945 105.196 105.977 105.323 106.039 105.422C106.103 105.519 106.206 105.593 106.345 105.64C106.449 105.68 106.552 105.711 106.652 105.734C106.752 105.757 106.862 105.774 106.986 105.783V106.209ZM106.087 97.2379C106.087 97.4826 105.999 97.6972 105.819 97.8807C105.734 97.9697 105.631 98.0409 105.517 98.0887C105.404 98.1354 105.28 98.1588 105.157 98.1566C105.04 98.1577 104.923 98.1343 104.814 98.0887C104.706 98.0442 104.607 97.9775 104.525 97.8941C104.348 97.7195 104.258 97.5181 104.258 97.2946C104.258 97.0577 104.348 96.8519 104.525 96.675C104.704 96.4982 104.917 96.4092 105.157 96.4092C105.43 96.4092 105.653 96.4915 105.825 96.6573C105.999 96.8241 106.087 97.0165 106.087 97.2379ZM114.462 104.708C114.177 105.208 113.769 105.627 113.277 105.925C112.781 106.227 112.211 106.377 111.57 106.377C111.003 106.377 110.507 106.287 110.08 106.106C109.654 105.925 109.303 105.68 109.026 105.368C108.747 105.053 108.537 104.682 108.408 104.281C108.271 103.857 108.203 103.414 108.204 102.969C108.204 102.556 108.278 102.148 108.422 101.749C108.566 101.352 108.783 100.987 109.063 100.673C109.334 100.368 109.67 100.12 110.073 99.9317C110.476 99.7438 110.927 99.6492 111.427 99.6492C111.94 99.6492 112.383 99.7215 112.749 99.8695C113.116 100.016 113.414 100.216 113.64 100.471C113.86 100.713 114.024 100.998 114.132 101.325C114.238 101.654 114.292 102.009 114.292 102.392V102.82H109.627C109.627 103.237 109.67 103.617 109.758 103.958C109.846 104.3 109.985 104.598 110.178 104.859C110.368 105.113 110.618 105.315 110.905 105.45C111.204 105.593 111.563 105.667 111.978 105.667C112.402 105.667 112.768 105.575 113.074 105.397C113.38 105.218 113.678 104.896 113.963 104.43L114.462 104.708ZM112.884 102.276C112.884 102.035 112.863 101.776 112.817 101.5C112.769 101.224 112.699 100.994 112.599 100.808C112.491 100.611 112.336 100.444 112.148 100.322C111.958 100.196 111.711 100.135 111.412 100.135C110.912 100.135 110.497 100.322 110.166 100.7C109.835 101.077 109.656 101.603 109.627 102.276H112.884ZM120.28 103.085C120.476 103.24 120.627 103.419 120.732 103.621C120.836 103.825 120.888 104.073 120.888 104.366C120.888 104.957 120.644 105.439 120.156 105.814C119.668 106.19 119.034 106.377 118.258 106.377C117.85 106.377 117.471 106.312 117.127 106.176C116.781 106.044 116.534 105.92 116.386 105.808L116.245 106.229H115.709L115.638 104.01H116.13C116.168 104.178 116.25 104.375 116.374 104.598C116.496 104.822 116.646 105.026 116.822 105.207C117.008 105.397 117.232 105.555 117.491 105.687C117.751 105.814 118.041 105.88 118.366 105.88C118.824 105.88 119.176 105.786 119.424 105.599C119.671 105.411 119.795 105.143 119.795 104.791C119.795 104.611 119.756 104.456 119.678 104.324C119.591 104.184 119.472 104.065 119.331 103.977C119.149 103.867 118.954 103.777 118.752 103.71C118.522 103.63 118.268 103.551 117.989 103.474C117.735 103.403 117.486 103.32 117.243 103.224C116.966 103.118 116.732 102.995 116.536 102.851C116.329 102.703 116.155 102.514 116.022 102.298C115.888 102.076 115.822 101.818 115.822 101.52C115.822 100.998 116.037 100.555 116.466 100.192C116.896 99.8294 117.468 99.6492 118.188 99.6492C118.464 99.6492 118.746 99.6826 119.035 99.7471C119.323 99.8127 119.556 99.8906 119.739 99.9807L119.902 99.6425H120.417L120.525 101.694H120.031C119.931 101.236 119.714 100.866 119.383 100.579C119.053 100.291 118.649 100.149 118.174 100.149C117.783 100.149 117.475 100.237 117.252 100.413C117.027 100.59 116.915 100.804 116.915 101.054C116.915 101.248 116.951 101.41 117.027 101.54C117.1 101.667 117.21 101.778 117.359 101.868C117.503 101.955 117.681 102.036 117.898 102.112C118.115 102.186 118.384 102.272 118.703 102.366C119.018 102.458 119.313 102.564 119.591 102.683C119.871 102.805 120.1 102.939 120.28 103.085ZM133.806 103.481L133.593 106.21H125.67V105.75C125.784 105.74 125.949 105.726 126.167 105.704C126.384 105.683 126.536 105.654 126.621 105.621C126.763 105.564 126.867 105.483 126.93 105.375C126.996 105.266 127.027 105.13 127.027 104.961V98.389C127.027 98.2422 127.002 98.1132 126.945 98.0009C126.892 97.8874 126.781 97.7962 126.621 97.7295C126.51 97.6772 126.358 97.6271 126.16 97.576C125.999 97.5337 125.835 97.5048 125.67 97.4892V97.0299H129.949V97.4892C129.816 97.4937 129.644 97.5137 129.433 97.5537C129.221 97.5938 129.067 97.6271 128.971 97.6572C128.808 97.7083 128.699 97.7962 128.638 97.923C128.579 98.0476 128.55 98.181 128.55 98.3245V104.49C128.55 104.773 128.564 104.995 128.597 105.152C128.627 105.31 128.699 105.43 128.814 105.519C128.924 105.596 129.086 105.647 129.303 105.669C129.52 105.693 129.822 105.704 130.213 105.704C130.391 105.704 130.573 105.702 130.764 105.694C130.947 105.685 131.128 105.668 131.308 105.641C131.464 105.616 131.618 105.581 131.769 105.535C131.908 105.489 132.012 105.431 132.078 105.362C132.274 105.164 132.5 104.863 132.761 104.462C133.02 104.058 133.2 103.731 133.3 103.481H133.806ZM138.089 106.209H134.683V105.783C134.792 105.776 134.904 105.766 135.022 105.757C135.139 105.748 135.239 105.73 135.324 105.704C135.458 105.667 135.558 105.599 135.621 105.501C135.685 105.404 135.718 105.277 135.718 105.124V101.184C135.718 101.045 135.683 100.919 135.614 100.804C135.542 100.686 135.443 100.588 135.324 100.517C135.234 100.465 135.104 100.42 134.931 100.384C134.775 100.35 134.618 100.327 134.459 100.315V99.8962L136.948 99.7538L137.048 99.8439V105.046C137.048 105.196 137.08 105.323 137.143 105.422C137.207 105.519 137.309 105.593 137.448 105.64C137.553 105.68 137.655 105.711 137.754 105.734C137.854 105.757 137.964 105.774 138.089 105.783V106.209ZM137.189 97.2379C137.189 97.4826 137.101 97.6972 136.921 97.8807C136.743 98.0643 136.524 98.1566 136.26 98.1566C136.019 98.1566 135.806 98.0676 135.628 97.8941C135.45 97.7195 135.36 97.5181 135.36 97.2946C135.36 97.0577 135.45 96.8519 135.628 96.675C135.71 96.5905 135.809 96.5227 135.916 96.4771C136.025 96.4315 136.142 96.4081 136.26 96.4092C136.534 96.4092 136.755 96.4915 136.929 96.6573C137.101 96.8241 137.189 97.0165 137.189 97.2379ZM151.374 106.209H147.938V105.783C148.048 105.776 148.157 105.766 148.269 105.757C148.382 105.748 148.482 105.73 148.567 105.704C148.701 105.667 148.799 105.599 148.862 105.501C148.928 105.404 148.96 105.277 148.96 105.124V101.83C148.96 101.38 148.848 101.035 148.621 100.79C148.394 100.548 148.111 100.427 147.774 100.427C147.541 100.427 147.322 100.459 147.117 100.523C146.912 100.587 146.723 100.678 146.553 100.795C146.424 100.882 146.308 100.984 146.207 101.101C146.111 101.213 146.044 101.303 145.995 101.378V105.058C145.995 105.209 146.024 105.333 146.08 105.43C146.138 105.526 146.236 105.602 146.373 105.652C146.482 105.692 146.582 105.722 146.67 105.741C146.758 105.759 146.872 105.774 147.017 105.782V106.209H143.651V105.782C143.761 105.774 143.868 105.764 143.97 105.756C144.073 105.748 144.165 105.73 144.251 105.703C144.385 105.665 144.482 105.598 144.549 105.501C144.611 105.404 144.643 105.277 144.643 105.123V101.83C144.643 101.38 144.531 101.035 144.304 100.79C144.078 100.548 143.797 100.427 143.459 100.427C143.224 100.427 143.007 100.459 142.802 100.526C142.598 100.594 142.408 100.684 142.236 100.802C142.097 100.896 141.984 101.002 141.888 101.122C141.794 101.241 141.719 101.329 141.674 101.389V105.046C141.674 105.192 141.705 105.315 141.774 105.414C141.839 105.514 141.938 105.589 142.074 105.64C142.173 105.683 142.275 105.714 142.38 105.737C142.485 105.758 142.602 105.774 142.73 105.782V106.209H139.308V105.782C139.418 105.774 139.529 105.764 139.647 105.756C139.763 105.748 139.864 105.73 139.952 105.703C140.083 105.665 140.183 105.598 140.246 105.501C140.312 105.404 140.344 105.277 140.344 105.123V101.156C140.345 101.025 140.31 100.895 140.239 100.784C140.164 100.67 140.066 100.575 139.952 100.503C139.845 100.447 139.733 100.404 139.615 100.378C139.479 100.344 139.34 100.323 139.2 100.315V99.8962L141.558 99.7527L141.658 99.8428V100.756H141.706C141.827 100.647 141.973 100.52 142.144 100.373C142.314 100.226 142.474 100.109 142.622 100.017C142.789 99.9139 142.997 99.8272 143.248 99.7593C143.512 99.6882 143.785 99.6537 144.058 99.6559C144.516 99.6559 144.909 99.7682 145.238 99.9896C145.564 100.212 145.801 100.48 145.946 100.795C146.116 100.642 146.267 100.51 146.4 100.398C146.527 100.283 146.701 100.162 146.916 100.031C147.115 99.9106 147.33 99.8183 147.555 99.7593C147.822 99.6882 148.098 99.6537 148.374 99.6559C148.969 99.6559 149.439 99.8316 149.789 100.186C150.135 100.541 150.31 101.084 150.31 101.817V105.058C150.31 105.209 150.337 105.333 150.395 105.43C150.452 105.526 150.549 105.602 150.688 105.652C150.799 105.692 150.905 105.722 151.013 105.741C151.12 105.759 151.241 105.774 151.374 105.782V106.209ZM155.969 106.209H152.564V105.783C152.674 105.776 152.785 105.766 152.903 105.757C153.02 105.748 153.12 105.73 153.205 105.704C153.339 105.667 153.439 105.599 153.502 105.501C153.566 105.404 153.6 105.277 153.6 105.124V101.184C153.6 101.045 153.564 100.919 153.495 100.804C153.422 100.686 153.323 100.588 153.205 100.517C153.114 100.465 152.985 100.42 152.813 100.384C152.657 100.35 152.5 100.327 152.341 100.315V99.8962L154.829 99.7538L154.929 99.8439V105.046C154.929 105.196 154.961 105.323 155.024 105.422C155.087 105.519 155.19 105.593 155.329 105.64C155.433 105.68 155.536 105.711 155.637 105.734C155.736 105.757 155.846 105.774 155.969 105.783V106.209ZM155.071 97.2379C155.071 97.4826 154.983 97.6972 154.802 97.8807C154.717 97.9697 154.615 98.0409 154.501 98.0887C154.387 98.1366 154.264 98.1588 154.141 98.1566C154.024 98.1577 153.907 98.1343 153.799 98.0887C153.69 98.0442 153.593 97.9775 153.51 97.8941C153.331 97.7195 153.242 97.5181 153.242 97.2946C153.242 97.0577 153.331 96.8519 153.51 96.675C153.591 96.5905 153.689 96.5238 153.798 96.4771C153.907 96.4315 154.024 96.4092 154.141 96.4092C154.414 96.4092 154.637 96.4915 154.809 96.6573C154.983 96.8241 155.071 97.0165 155.071 97.2379ZM161.54 105.931C161.23 106.048 160.938 106.145 160.662 106.225C160.384 106.305 160.047 106.346 159.648 106.346C159.057 106.346 158.64 106.21 158.402 105.94C158.161 105.671 158.04 105.291 158.04 104.798V100.478H156.767V99.8572H158.067V97.8718H159.369V99.8572H161.391V100.478H159.382V104.044C159.382 104.311 159.394 104.534 159.415 104.713C159.435 104.891 159.486 105.048 159.57 105.18C159.645 105.307 159.76 105.402 159.91 105.465C160.065 105.53 160.269 105.562 160.525 105.562C160.644 105.562 160.82 105.554 161.049 105.534C161.282 105.513 161.444 105.49 161.54 105.459V105.931ZM168.849 104.708C168.565 105.208 168.157 105.627 167.665 105.925C167.17 106.227 166.599 106.377 165.958 106.377C165.389 106.377 164.895 106.287 164.468 106.106C164.041 105.925 163.69 105.68 163.415 105.368C163.135 105.053 162.924 104.682 162.794 104.281C162.659 103.857 162.591 103.414 162.593 102.969C162.593 102.556 162.666 102.148 162.81 101.749C162.953 101.353 163.171 100.987 163.452 100.673C163.722 100.368 164.059 100.12 164.462 99.9317C164.863 99.7438 165.315 99.6492 165.814 99.6492C166.329 99.6492 166.77 99.7215 167.135 99.8695C167.505 100.016 167.802 100.216 168.027 100.471C168.248 100.713 168.41 100.998 168.518 101.325C168.626 101.654 168.679 102.009 168.679 102.392V102.82H164.013C164.013 103.237 164.059 103.617 164.146 103.958C164.234 104.3 164.373 104.598 164.565 104.859C164.755 105.112 165.004 105.315 165.291 105.45C165.592 105.593 165.951 105.667 166.365 105.667C166.79 105.667 167.155 105.575 167.462 105.397C167.767 105.218 168.065 104.896 168.35 104.43L168.849 104.708ZM167.272 102.276C167.272 102.035 167.251 101.776 167.204 101.5C167.158 101.224 167.088 100.994 166.986 100.808C166.879 100.611 166.724 100.444 166.536 100.322C166.346 100.196 166.1 100.135 165.8 100.135C165.299 100.135 164.885 100.322 164.553 100.7C164.221 101.077 164.043 101.603 164.013 102.276H167.272ZM177.733 106.093L175.275 106.236L175.167 106.145V105.549L175.113 105.536C174.863 105.789 174.559 105.992 174.193 106.153C173.829 106.313 173.453 106.392 173.068 106.392C172.668 106.392 172.281 106.309 171.907 106.148C171.539 105.991 171.206 105.759 170.933 105.466C170.642 105.155 170.416 104.79 170.264 104.393C170.101 103.974 170.018 103.512 170.018 103.008C170.018 102.547 170.105 102.111 170.281 101.695C170.453 101.29 170.7 100.921 171.011 100.608C171.3 100.319 171.657 100.09 172.078 99.9151C172.488 99.746 172.926 99.6581 173.369 99.657C173.698 99.657 174.019 99.6948 174.336 99.7705C174.653 99.8472 174.927 99.9418 175.153 100.059V97.8396C175.153 97.6583 175.122 97.4926 175.054 97.3446C174.988 97.1945 174.895 97.0821 174.776 97.0043C174.641 96.9231 174.464 96.8641 174.236 96.8252C173.994 96.7885 173.75 96.7629 173.505 96.7462V96.3447L176.383 96.1968L176.49 96.2936V104.897C176.49 105.049 176.521 105.177 176.589 105.283C176.65 105.387 176.745 105.477 176.869 105.55C176.96 105.604 177.089 105.634 177.263 105.647C177.434 105.66 177.59 105.67 177.733 105.674V106.094V106.093ZM175.153 104.972V101.241C175.117 101.129 175.054 101.008 174.968 100.879C174.879 100.746 174.77 100.626 174.647 100.523C174.499 100.409 174.335 100.319 174.161 100.254C173.975 100.184 173.758 100.149 173.512 100.149C173.224 100.149 172.96 100.214 172.722 100.349C172.481 100.481 172.269 100.675 172.083 100.924C171.905 101.166 171.766 101.473 171.663 101.846C171.561 102.22 171.51 102.632 171.51 103.085C171.51 103.448 171.549 103.777 171.626 104.073C171.7 104.369 171.829 104.643 172.009 104.896C172.175 105.137 172.395 105.336 172.651 105.479C172.91 105.624 173.217 105.7 173.575 105.7C173.955 105.7 174.273 105.623 174.522 105.472C174.754 105.336 174.967 105.168 175.153 104.972Z" fill="white"/>
</g>
<defs>
<clipPath id="clip0_122_2467">
<rect width="231" height="127" fill="white"/>
</clipPath>
</defs>
</svg>
