<svg width="231" height="127" viewBox="0 0 231 127" fill="none" xmlns="http://www.w3.org/2000/svg">
<g clip-path="url(#clip0_632_2760)">
<path d="M82.0549 46.962C81.6875 47.633 81.3619 48.2754 80.9945 48.8936C79.9363 50.6844 78.8671 52.4686 77.7935 54.2506C77.3117 55.0492 77.0719 55.8742 77.0763 56.8334C77.1071 65.1912 77.0917 73.5512 77.0961 81.909C77.0961 83.2114 76.8827 84.439 76.0731 85.5214C75.2063 86.6852 74.0403 87.2528 72.6257 87.3738C72.2979 87.4024 71.9679 87.3848 71.6379 87.3848C57.3973 87.3848 43.1545 87.3848 28.9139 87.3804C28.4563 87.3804 27.9701 87.5036 27.4927 87.1956C27.5983 86.5906 27.9393 86.111 28.2275 85.6182C29.5387 83.3852 30.8609 81.1566 32.1919 78.9346C32.4735 78.4638 32.4757 77.9666 32.4757 77.454C32.4757 72.5986 32.4757 67.7454 32.4757 62.89C32.4757 59.1302 32.4647 55.3704 32.4801 51.6106C32.4889 49.261 33.8331 47.512 36.0199 46.9136C36.4533 46.7948 36.8867 46.7882 37.3245 46.7882C51.8951 46.7882 66.4657 46.7882 81.0385 46.7882C81.3245 46.7882 81.6237 46.7288 82.0527 46.9576L82.0549 46.962ZM67.9903 75.3508C68.1311 74.9042 68.0849 74.4994 68.0871 74.1012C68.0915 71.9496 67.9639 69.7848 68.1355 67.6464C68.2587 66.091 68.1685 64.5884 67.8319 63.1034C67.3567 61.0244 66.2083 59.4624 64.0457 58.8288C62.3605 58.336 60.7215 58.5274 59.1309 59.1962C58.0067 59.667 57.0607 60.3952 56.3105 61.5546C55.3777 60.2522 54.3855 59.2204 52.7971 58.8662C52.0843 60.1158 51.4045 61.3038 50.7313 62.4808C50.8501 62.6348 50.9007 62.7404 50.9821 62.7998C51.9655 63.5038 52.4693 64.441 52.5815 65.6554C52.6387 66.2714 52.7047 66.8852 52.7047 67.5034C52.7047 69.6924 52.6981 71.8814 52.7113 74.0704C52.7113 74.4554 52.5881 74.88 53.0105 75.2782C54.2029 75.2408 55.4701 75.3838 56.6911 75.2078C56.9463 74.7524 56.8583 74.3432 56.8583 73.9516C56.8671 71.69 56.8737 69.4262 56.8583 67.1646C56.8517 66.234 57.0475 65.3496 57.3863 64.5004C57.8901 63.2288 59.2409 62.2982 60.5697 62.3928C62.2659 62.5138 63.1723 63.1804 63.7091 64.6742C63.8983 65.1978 63.9467 65.7368 63.9445 66.2868C63.9379 67.9654 63.9577 69.644 63.9379 71.3226C63.9291 72.0288 64.0765 72.6976 64.2657 73.3664C64.6991 74.902 66.1841 75.9294 67.9947 75.3508H67.9903ZM41.3813 59.0466V75.2298C42.7519 75.32 44.0411 75.3024 45.2533 75.2562C45.5019 74.7546 45.4359 74.3828 45.4359 74.0242C45.4425 72.0552 45.4623 70.084 45.4293 68.115C45.4139 67.2306 45.5503 66.3682 45.7087 65.5124C45.9419 64.2474 46.6481 63.198 47.8845 62.8438C48.9273 62.5468 49.4641 61.9154 49.9195 61.0618C50.1769 60.58 50.4915 60.1268 50.7467 59.645C50.9095 59.337 51.2021 59.0532 51.0393 58.5956C49.9371 58.2502 48.8877 58.6506 47.8647 58.9674C46.7977 59.2952 46.1949 60.2918 45.4117 61.0398C44.2171 59.2116 43.5483 58.5318 41.3835 59.0488L41.3813 59.0466Z" fill="#EEEEEE"/>
<path d="M147.339 62.8882C148.564 62.5978 149.481 62.9542 150.117 63.9794C152.691 62.1776 155.149 62.2568 157.505 64.2764C157.943 64.1708 158.141 63.777 158.473 63.557C159.89 62.6176 161.434 62.5604 162.998 63.0004C164.318 63.3722 164.967 64.4568 165.381 65.6668C165.555 66.1772 165.645 66.7382 165.654 67.2772C165.684 69.4662 165.669 71.653 165.662 73.842C165.662 74.0202 165.603 74.1962 165.577 74.3524C164.47 74.8672 163.174 74.3634 162.664 73.2392C162.435 72.7354 162.34 72.2008 162.345 71.6442C162.356 70.4408 162.349 69.2374 162.345 68.034C162.34 67.2706 162.125 66.582 161.471 66.1266C160.195 65.2356 158.493 66.0056 158.233 67.5984C158.158 68.0626 158.187 68.5444 158.185 69.0174C158.18 70.366 158.185 71.7168 158.18 73.0654C158.18 73.4592 158.244 73.8684 158.013 74.2094C157.102 74.5064 155.826 74.513 154.885 74.2336C154.592 73.8992 154.684 73.4812 154.682 73.0896C154.673 71.5584 154.678 70.025 154.678 68.4938C154.678 68.2012 154.687 67.9086 154.665 67.6182C154.596 66.7096 154.011 65.9726 153.213 65.7636C152.478 65.5722 151.472 65.9792 151.01 66.6744C150.658 67.2024 150.491 67.7854 150.498 68.43C150.511 69.9612 150.504 71.4946 150.496 73.0258C150.493 73.4196 150.579 73.831 150.254 74.304C149.343 74.5284 148.351 74.4404 147.38 74.359C147.121 73.4152 147.099 63.9794 147.347 62.886L147.339 62.8882Z" fill="#EEEEEE"/>
<path d="M111.721 69.8202H104.177C104.481 70.9972 105.154 71.5626 106.118 71.7188C107.134 71.8838 108.157 71.853 109.145 71.4614C110.551 70.9026 110.962 71.0786 111.607 72.4602C111.684 72.6252 111.772 72.788 111.693 73.1026C110.758 74.0332 109.453 74.4182 108.118 74.5964C106.815 74.7702 105.511 74.6756 104.221 74.229C102.307 73.5668 100.697 71.292 100.792 69.4506C100.814 69.0128 100.789 68.575 100.792 68.1372C100.805 66.1396 101.744 64.5798 103.363 63.559C105.26 62.3622 107.343 62.2038 109.453 63.141C110.604 63.6536 111.334 64.5138 111.662 65.7062C112.016 66.9954 111.877 68.289 111.721 69.8202ZM108.665 67.0878C108.571 65.8756 108.342 65.6314 107.224 65.4048C105.852 65.1276 104.593 65.8734 104.395 67.0878H108.665Z" fill="#EEEEEE"/>
<path d="M191.224 74.663C187.618 74.6586 185.046 72.1396 185.002 68.6922C184.958 65.2646 187.677 62.552 191.129 62.5982C194.768 62.6466 197.395 64.9104 197.392 68.7604C197.392 72.6302 194.154 74.7642 191.224 74.663ZM191.197 65.6738C189.624 65.4604 188.265 67.0158 188.258 68.6174C188.249 70.252 189.64 71.6974 191.177 71.6072C193.006 71.4994 194.222 70.3796 194.2 68.591C194.183 67.2248 193.144 65.5638 191.199 65.6738H191.197Z" fill="#EEEEEE"/>
<path d="M179.092 68.6785C179.301 72.2315 176.018 74.7923 172.835 74.6889C169.335 74.5745 166.756 72.0445 166.761 68.6719C166.765 65.2135 169.357 62.6109 172.908 62.5977C176.478 62.5845 179.215 65.1629 179.092 68.6785ZM170.048 68.5641C170.032 70.4737 171.046 71.5649 172.853 71.5825C174.718 71.6001 175.944 70.4451 175.957 68.6587C175.968 66.9251 174.747 65.7855 173.009 65.6491C171.401 65.5237 169.803 67.1253 170.048 68.5641Z" fill="#EEEEEE"/>
<path d="M146.143 68.6523C146.523 72.0755 143.223 74.7353 140.075 74.6825C136.421 74.6209 133.794 72.1195 133.875 68.5753C133.957 64.9563 136.342 62.6947 140.101 62.5957C143.505 62.5077 146.475 65.3479 146.143 68.6523ZM140.053 71.5805C141.751 71.7939 143.076 70.1747 143.032 68.6831C142.979 66.8791 141.817 65.6603 140.016 65.6735C138.282 65.6867 137.096 66.9033 137.103 68.6611C137.109 70.4123 138.291 71.5827 140.053 71.5827V71.5805Z" fill="#EEEEEE"/>
<path d="M116.07 74.1989C115.029 74.5179 113.874 74.4981 112.97 74.1373V63.0163C113.905 62.6775 114.816 62.8161 115.711 62.8667C116.184 62.8931 116.158 63.3749 116.334 63.7577C117.324 63.1967 118.327 62.7853 119.502 62.7457C121.999 62.6621 123.609 64.0921 123.825 66.4571C124.067 69.0905 123.88 71.7613 123.88 74.3925C122.635 74.8457 121.275 74.1879 120.881 72.9537C120.694 72.3663 120.58 71.7591 120.593 71.1277C120.615 70.0717 120.615 69.0135 120.589 67.9575C120.571 67.2513 120.437 66.5781 119.779 66.1403C118.651 65.3857 117.335 65.7443 116.651 67.0225C116.336 67.6099 116.202 68.2457 116.211 68.9167C116.226 70.2653 116.217 71.6139 116.211 72.9625C116.211 73.3585 116.264 73.7655 116.066 74.1989H116.07Z" fill="#EEEEEE"/>
<path d="M126.435 65.6286C125.9 65.3272 125.346 65.6 124.767 65.2942C124.461 64.6364 124.114 63.8884 123.749 63.1008C124.598 62.5288 125.533 63.0282 126.375 62.7026C127.093 62.0514 126.437 60.9888 127.06 60.2364C127.893 60.056 128.758 60.122 129.629 60.2012C130.104 60.9888 129.627 61.8886 130.003 62.707C131.484 63.015 133.028 62.5992 134.647 62.9754C134.135 63.8378 133.699 64.577 133.246 65.3404C132.188 65.6506 131.072 65.3052 130.027 65.5538C129.741 65.996 129.858 66.4448 129.854 66.8694C129.84 68.0002 129.821 69.131 129.869 70.2596C129.926 71.595 130.701 72.1516 131.981 71.8414C132.403 71.738 132.819 71.6038 133.299 71.4674C133.796 72.0262 134.051 72.7412 134.414 73.3506C134.37 73.4386 134.364 73.4848 134.337 73.5024C132.799 74.4924 131.105 74.873 129.334 74.4814C127.447 74.0656 126.58 72.8028 126.536 70.693C126.51 69.3818 126.534 68.0684 126.529 66.755C126.529 66.392 126.571 66.0246 126.435 65.6264V65.6286Z" fill="#EEEEEE"/>
<path d="M93.7074 62.881C94.9262 62.5884 95.8436 62.9404 96.5212 64.0118C97.0756 63.6818 97.4078 63.1054 98.0128 62.914C98.6222 62.7204 99.2426 62.7886 99.8608 62.7908C100.523 62.7908 101.042 63.1076 101.566 63.5564C101.284 64.4012 100.488 64.916 100.285 65.642C100.039 65.8092 99.9004 65.8026 99.7508 65.7872C98.0084 65.587 96.937 66.478 96.8908 68.238C96.8468 69.8396 96.882 71.4434 96.871 73.045C96.8688 73.4366 96.9568 73.8502 96.6246 74.2946C95.7028 74.574 94.7084 74.376 93.7536 74.398C93.4918 73.408 93.4676 63.9876 93.7074 62.881Z" fill="#EEEEEE"/>
<path d="M180.485 62.9893C181.325 62.7561 182.265 62.7385 183.281 62.9409C183.541 63.1587 183.486 63.4667 183.486 63.7505C183.486 67.1011 183.508 70.4539 183.475 73.8045C183.455 75.9121 182.139 77.7601 180.221 78.4641C179.578 77.9185 178.923 77.3575 178.518 76.6227C178.531 76.2179 178.811 76.0573 179.024 75.8835C180.021 75.0783 180.333 74.0025 180.333 72.7815C180.329 69.9039 180.329 67.0263 180.337 64.1487C180.337 63.7593 180.241 63.3457 180.485 62.9893Z" fill="#EEEEEE"/>
<path d="M181.946 61.5111C180.723 61.5243 179.953 60.8621 179.982 59.8215C180.008 58.8975 180.796 58.1495 181.825 58.2375C183.073 58.3431 183.698 58.5147 183.702 59.9381C183.706 61.0051 183.145 61.5001 181.944 61.5111H181.946Z" fill="#EEEEEE"/>
<path d="M202.785 61.7738C203.007 62.0488 203.009 62.2446 202.829 62.4668C202.198 62.8606 201.309 62.2754 200.713 62.8958C200.706 63.3402 200.985 63.4172 201.293 63.4348C201.694 63.4568 202.099 63.4348 202.499 63.47C202.935 63.5074 203.038 63.7714 202.904 64.1696C202.244 64.6448 201.293 64.0222 200.704 64.636C200.726 65.0804 200.963 65.1728 201.23 65.1948C201.593 65.2256 201.962 65.2014 202.325 65.2366C202.73 65.274 203.045 65.4214 202.884 65.978C202.039 66.374 200.994 65.802 200.171 66.561C199.758 65.7976 199.995 65.065 199.956 64.3808C199.929 63.9298 200.009 63.4678 199.94 62.9948C199.822 62.172 200.187 61.7518 201.025 61.7056C201.604 61.6748 202.193 61.6242 202.787 61.7738H202.785Z" fill="#EEEEEE"/>
<path d="M203.007 68.173C203.013 69.0354 202.259 69.7856 201.392 69.7856C200.626 69.7856 199.909 69.009 199.909 68.1862C199.909 67.3238 200.677 66.5428 201.498 66.567C202.268 66.589 203.002 67.3722 203.007 68.1752V68.173ZM201.5 67.5174C201.141 67.5042 200.853 67.7836 200.827 68.1268C200.796 68.5184 201.077 68.8638 201.449 68.8462C201.81 68.8286 202.085 68.6592 202.087 68.261C202.089 67.8496 201.858 67.601 201.5 67.5174Z" fill="#EEEEEE"/>
<path d="M200.882 70.0999C201.203 70.5443 200.882 70.8633 200.845 71.2065C200.812 71.5211 200.875 71.7961 201.194 71.9259C201.443 72.0271 201.696 72.0095 201.907 71.8181C202.123 71.6223 202.132 71.3715 202.061 71.1141C201.98 70.8127 201.612 70.6037 201.771 70.2231C202.42 70.1109 202.827 70.4233 202.976 71.1449C203.13 71.8973 202.602 72.6937 201.828 72.8719C200.99 73.0655 200.193 72.6717 199.965 71.9523C199.692 71.0965 200.042 70.3683 200.882 70.0977V70.0999Z" fill="#EEEEEE"/>
<path d="M202.931 73.7835C202.882 74.0343 202.737 74.1795 202.491 74.1663C202.231 74.1531 202.121 73.9727 202.137 73.7307C202.152 73.4843 202.288 73.3303 202.55 73.3589C202.794 73.3853 202.924 73.5415 202.931 73.7813V73.7835Z" fill="#EEEEEE"/>
</g>
<defs>
<clipPath id="clip0_632_2760">
<rect width="231" height="127" fill="white"/>
</clipPath>
</defs>
</svg>
