<svg width="100" height="100" viewBox="0 0 100 100" fill="none" xmlns="http://www.w3.org/2000/svg">
<g clip-path="url(#clip0_520_2833)">
<g clip-path="url(#clip1_520_2833)">
<path d="M100 94.7806C99.2238 97.3399 97.6564 99.1066 94.9824 99.7283C94.4995 99.841 93.9884 99.8631 93.4914 99.8651C83.924 99.8732 74.3566 99.8772 64.7872 99.8671C60.916 99.8631 58.1695 97.1005 58.1675 93.2092C58.1594 80.8973 58.1655 68.5874 58.1635 56.2756C58.1635 55.354 57.7101 54.8926 56.8033 54.8913C50.2138 54.8913 43.6222 54.9094 37.0327 54.8711C36.0588 54.8651 35.7812 55.1548 35.7952 56.1186C35.8455 59.7645 35.8194 63.4104 35.8134 67.0583C35.8093 69.018 34.755 70.4667 33.0548 70.8772C31.2922 71.3037 29.6303 70.515 28.7369 68.7444C26.58 64.4748 24.4331 60.2011 22.3305 55.9053C21.9502 55.1267 21.4874 54.8671 20.6343 54.8731C16.085 54.9134 11.5357 54.8993 6.98438 54.8892C3.09907 54.8812 0.336493 52.1327 0.33448 48.2615C0.326432 34.6458 0.388806 21.0301 0.292227 7.41439C0.268082 3.81077 2.10712 1.1488 5.42301 0.203125H62.8516C66.2238 1.1649 68.0608 3.87315 67.9783 7.41037C67.8456 13.1267 67.9683 18.847 67.92 24.5653C67.9119 25.5874 68.2017 25.8631 69.2178 25.857C77.2097 25.8168 85.2017 25.8329 93.1957 25.8369C93.7952 25.8369 94.3948 25.8168 94.9904 25.9637C97.6584 26.6156 99.2258 28.3701 100.002 30.9255V94.7806H100ZM34.2138 3.48683C25.3808 3.48683 16.5478 3.48683 7.71677 3.48683C4.85762 3.48683 3.68659 4.65182 3.68659 7.4989C3.68659 20.849 3.68659 34.1971 3.68659 47.5472C3.68659 50.354 4.85963 51.5351 7.64836 51.5371C12.6665 51.5412 17.6866 51.5613 22.7047 51.517C23.6343 51.509 24.1433 51.7907 24.5578 52.6377C26.8375 57.2937 29.1735 61.9234 31.5035 66.5552C31.6544 66.857 31.7188 67.4003 32.1856 67.2796C32.6363 67.1629 32.4532 66.6518 32.4552 66.3118C32.4673 61.8289 32.4612 57.346 32.4653 52.8631C32.4653 51.5432 32.4713 51.5371 33.7993 51.5371C41.5276 51.5371 49.256 51.523 56.9844 51.5532C57.8918 51.5572 58.1936 51.3178 58.1876 50.3742C58.1474 44.352 58.1574 38.3299 58.1735 32.3078C58.1816 29.0744 60.3828 26.4184 63.5779 25.9194C64.4914 25.7766 64.6101 25.4023 64.6061 24.6236C64.582 18.9033 64.594 13.181 64.592 7.46067C64.592 4.66389 63.413 3.48482 60.6162 3.48482C51.8174 3.4828 43.0186 3.48482 34.2178 3.48482L34.2138 3.48683ZM79.2158 42.0401C73.6946 42.0401 68.1715 42.0562 62.6504 42.022C61.7852 42.016 61.4955 42.2494 61.4975 43.1488C61.5256 54.1589 61.5236 65.1689 61.4995 76.181C61.4995 77.0301 61.7832 77.2554 62.6001 77.2554C73.6101 77.2333 84.6202 77.2333 95.6323 77.2554C96.4472 77.2554 96.7349 77.0301 96.7329 76.183C96.7087 65.1729 96.7067 54.1629 96.7349 43.1508C96.7369 42.2514 96.4492 42.018 95.582 42.0241C90.1272 42.0583 84.6725 42.0422 79.2178 42.0422L79.2158 42.0401ZM79.0991 80.5935C73.6142 80.5935 68.1313 80.6096 62.6464 80.5754C61.7792 80.5693 61.4834 80.8047 61.4955 81.7021C61.5417 85.346 61.5115 88.9919 61.5156 92.6357C61.5196 95.2957 62.7288 96.511 65.3848 96.513C74.5478 96.517 83.7107 96.517 92.8717 96.513C95.4713 96.513 96.7067 95.2856 96.7107 92.7061C96.7188 89.0603 96.6866 85.4164 96.7309 81.7725C96.7429 80.8591 96.4874 80.5653 95.5498 80.5733C90.0669 80.6136 84.582 80.5935 79.0971 80.5935H79.0991ZM79.0045 38.686C84.5216 38.686 90.0407 38.6639 95.5578 38.7061C96.5075 38.7142 96.7671 38.4043 96.7329 37.4989C96.6705 35.8953 96.7329 34.2896 96.7087 32.684C96.6745 30.5452 95.3808 29.2031 93.2641 29.1991C83.8335 29.179 74.4049 29.179 64.9743 29.1991C62.8355 29.2031 61.5578 30.521 61.5216 32.6679C61.4955 34.3057 61.5618 35.9476 61.4955 37.5834C61.4592 38.4929 61.7932 38.7102 62.6524 38.7041C68.1031 38.6699 73.5538 38.688 79.0045 38.688V38.686Z" fill="#727272"/>
<path d="M24.4956 74.0312C27.2662 74.0312 29.3829 76.1459 29.3849 78.9166C29.3849 81.6811 27.2622 83.8059 24.4976 83.8059C21.729 83.8059 19.6123 81.6872 19.6123 78.9166C19.6123 76.1399 21.721 74.0312 24.4976 74.0312H24.4956ZM25.9825 78.9286C25.9886 78.1701 25.2682 77.4377 24.5097 77.4317C23.7531 77.4256 23.0208 78.1479 23.0127 78.9065C23.0067 79.663 23.727 80.3954 24.4876 80.4035C25.2441 80.4095 25.9765 79.6892 25.9825 78.9286Z" fill="#727272"/>
<path d="M37.298 83.8059C34.5415 83.7919 32.4469 81.653 32.461 78.8683C32.4751 76.1098 34.6079 74.0192 37.3946 74.0313C40.1512 74.0454 42.2477 76.1822 42.2336 78.9649C42.2216 81.7174 40.0767 83.82 37.296 83.8059H37.298ZM37.3383 77.4317C36.5797 77.4377 35.8574 78.1721 35.8634 78.9287C35.8695 79.6872 36.6039 80.4116 37.3604 80.4035C38.121 80.3975 38.8413 79.6651 38.8353 78.9065C38.8292 78.146 38.0968 77.4237 37.3403 77.4317H37.3383Z" fill="#727272"/>
<path d="M50.2078 74.0313C52.9764 74.0313 55.0891 76.152 55.0891 78.9246C55.0891 81.6892 52.9603 83.8079 50.1917 83.8059C47.4251 83.8039 45.3124 81.6811 45.3145 78.9085C45.3165 76.1339 47.4291 74.0292 50.2078 74.0313ZM51.6867 78.9206C51.6867 78.162 50.9623 77.4337 50.2038 77.4317C49.4472 77.4317 48.7169 78.158 48.7149 78.9166C48.7149 79.6731 49.4412 80.4035 50.1978 80.4055C50.9543 80.4055 51.6827 79.6812 51.6847 78.9226L51.6867 78.9206Z" fill="#727272"/>
<path d="M32.4247 45.2538C27.2395 45.2538 22.0544 45.2578 16.8693 45.2538C14.4106 45.2518 13.1913 44.0164 13.1832 41.5375C13.1812 40.6341 13.1731 39.7306 13.1852 38.8272C13.2094 37.1492 14.0021 36.0264 15.6279 35.5757C16.2556 35.4027 16.4086 35.121 16.4025 34.5355C16.3804 32.2618 16.4025 29.9862 16.3925 27.7105C16.3683 23.3544 18.2737 20.0647 21.9317 17.781C22.5796 17.3765 22.8834 16.962 22.8371 16.1874C22.7727 15.121 22.8029 14.0465 22.8291 12.9761C22.8733 11.1411 24.1792 9.79101 26.0021 9.77894C30.3502 9.75077 34.7003 9.75077 39.0484 9.77894C40.8633 9.79101 42.1892 11.1532 42.2315 12.9761C42.2597 14.1471 42.2577 15.3182 42.2315 16.4892C42.2194 17.0204 42.4166 17.3383 42.8754 17.616C46.815 20.0003 48.7848 23.4731 48.6721 28.1129C48.6198 30.2518 48.6782 32.3946 48.654 34.5355C48.648 35.123 48.8029 35.4027 49.4307 35.5737C51.0162 36.0063 51.8512 37.1874 51.8713 38.8333C51.8834 39.8373 51.8834 40.8413 51.8713 41.8433C51.8472 43.9117 50.5434 45.2377 48.479 45.2437C43.1269 45.2578 37.7748 45.2478 32.4226 45.2478L32.4247 45.2538ZM32.4689 35.4751C36.4126 35.4751 40.3583 35.463 44.3019 35.4852C45.0001 35.4892 45.3381 35.3323 45.324 34.5435C45.2818 32.2719 45.3583 29.9962 45.2959 27.7246C45.1752 23.294 42.4609 20.1532 38.0444 19.6964C34.3945 19.3202 30.6862 19.3182 27.0363 19.6944C22.5353 20.1592 19.817 23.3826 19.7546 27.9037C19.7245 30.0767 19.7828 32.2498 19.7325 34.4208C19.7124 35.2779 20.0283 35.4952 20.8371 35.4892C24.7144 35.457 28.5917 35.4751 32.4689 35.4751V35.4751ZM32.4287 41.9017C37.4488 41.9017 42.4689 41.8876 47.489 41.9158C48.2617 41.9198 48.6339 41.7045 48.5273 40.8936C48.4971 40.6643 48.5232 40.4248 48.5232 40.1914C48.5219 39.286 48.0605 38.8326 47.1389 38.8313C37.5675 38.8313 27.9961 38.8272 18.4247 38.8333C16.312 38.8333 16.6037 38.5717 16.5172 40.6904C16.477 41.6803 16.821 41.9278 17.7727 41.9198C22.6581 41.8775 27.5454 41.8997 32.4307 41.8997L32.4287 41.9017ZM32.4689 16.2055V16.1995C33.9719 16.1995 35.4729 16.2095 36.976 16.1975C39.0786 16.1814 38.8271 16.5516 38.9035 14.2799C38.9357 13.3242 38.5917 13.0968 37.6963 13.1109C34.5595 13.1572 31.4206 13.1089 28.2818 13.1351C25.8915 13.1552 26.2094 12.6763 26.1651 15.3624C26.155 16.0284 26.4247 16.2276 27.0605 16.2176C28.8633 16.1874 30.6661 16.2075 32.4689 16.2075V16.2055Z" fill="#727272"/>
<path d="M79.0765 70.9526C73.2717 70.9466 68.1691 66.3269 67.821 60.7615C67.4246 54.4234 71.5836 49.1337 77.6339 48.3872C80.7526 48.0029 83.6339 48.7393 86.1007 50.7353C86.7788 51.2846 87.1067 51.1679 87.6158 50.5723C89.1731 48.7494 89.1772 48.7876 91.0403 50.4375C91.5695 50.9063 91.6641 51.3107 91.1208 51.7333C89.3804 53.0914 89.3099 54.5341 89.9659 56.693C92.153 63.8802 86.6037 70.9607 79.0745 70.9526H79.0765ZM87.0584 59.5582C87.0001 59.1035 86.9598 58.6005 86.8613 58.1095C86.8009 57.7997 86.8271 57.351 86.4468 57.2765C86.1349 57.2162 85.984 57.6106 85.7908 57.8299C83.8089 60.0934 81.815 62.349 79.8613 64.6387C79.3602 65.2262 79.0222 65.2162 78.5091 64.6669C77.5273 63.6186 76.5252 62.5784 75.4548 61.6226C74.7164 60.9627 74.7828 60.5321 75.4749 59.8782C77.0101 58.4295 76.9961 58.3751 78.4689 59.8198C78.9277 60.2685 79.1611 60.2343 79.5615 59.7574C80.9417 58.1216 82.3743 56.5321 83.7727 54.9124C84.644 53.9043 84.6279 53.7514 83.4749 53.0431C80.6198 51.2866 77.6802 51.186 74.8653 53.0009C72.1027 54.7836 70.9035 57.4214 71.3079 60.7373C71.7647 64.4858 75.0705 67.7112 79.3361 67.5381C83.7606 67.359 87.1168 63.7776 87.0564 59.5562L87.0584 59.5582Z" fill="#727272"/>
<path d="M79.0786 93.4442C77.5072 93.4442 75.9357 93.4583 74.3643 93.4402C72.3663 93.4161 71.0464 92.0941 71.0203 90.0941C71.0062 89.0237 70.9981 87.9533 71.0223 86.8849C71.0645 85.0479 72.3663 83.6957 74.1852 83.6796C77.4629 83.6475 80.7406 83.6495 84.0162 83.6796C85.8351 83.6957 87.1671 85.0479 87.2114 86.8627C87.2396 87.9996 87.2416 89.1364 87.2114 90.2732C87.1631 92.0821 85.8231 93.3879 83.9961 93.4442C83.9297 93.4462 83.8633 93.4462 83.7949 93.4462C82.2235 93.4462 80.652 93.4462 79.0806 93.4462L79.0786 93.4442ZM79.1168 90.0921C80.0203 90.0921 80.9237 90.1042 81.8271 90.0901C84.1329 90.0539 83.817 90.4684 83.8754 87.9794C83.8935 87.2189 83.6078 86.9976 82.8794 87.0096C80.7386 87.0438 78.5957 86.9996 76.4549 87.0277C74.0947 87.0579 74.3985 86.5489 74.3623 89.2853C74.3543 89.903 74.6118 90.1102 75.2013 90.0982C76.5052 90.074 77.811 90.0901 79.1168 90.0921V90.0921Z" fill="#727272"/>
<path d="M72.648 35.6144C71.312 35.6144 69.976 35.6003 68.64 35.6204C68.0505 35.6285 67.7929 35.4071 67.801 34.7995C67.8372 31.7069 67.467 32.3166 70.1309 32.2703C72.2678 32.2341 74.4066 32.2884 76.5454 32.2522C77.3161 32.2401 77.6159 32.4816 77.5957 33.2824C77.5293 36.043 77.8996 35.5681 75.3563 35.6144C74.4549 35.6305 73.5515 35.6164 72.6501 35.6164V35.6124L72.648 35.6144Z" fill="#727272"/>
<path d="M80.6523 33.8554C80.6523 32.7903 81.2379 32.2578 82.4089 32.2578C83.4739 32.2578 84.0065 32.8433 84.0065 34.0144C84.0065 35.0807 83.3874 35.6133 82.1493 35.6119C81.15 35.6106 80.651 35.0251 80.6523 33.8554Z" fill="#727272"/>
<path d="M90.4326 33.9763C90.4326 35.6121 90.4326 35.6181 88.7143 35.6101C86.8873 35.602 87.0906 35.7388 87.0805 33.7932C87.0724 32.2559 87.0805 32.2559 88.8974 32.258C89.9222 32.2593 90.4339 32.8321 90.4326 33.9763V33.9763Z" fill="#727272"/>
<path d="M43.6058 26.6671C43.5213 26.7838 43.4609 26.9025 43.3704 26.987C43.2738 27.0755 43.1531 27.1439 43.0344 27.2023C42.3442 27.5363 41.6662 28.0876 40.9539 28.1379C40.141 28.1942 40.0545 27.1238 39.5575 26.6208C38.805 25.8562 38.0786 25.0675 37.1289 24.5464C36.64 24.2787 36.5434 23.9669 36.8191 23.492C37.0183 23.146 37.1772 22.7737 37.3563 22.4156C38.0525 21.0293 38.0646 21.0192 39.3925 21.9045C40.974 22.9568 42.2678 24.2888 43.2356 25.9307C43.3704 26.158 43.473 26.4035 43.6038 26.6691L43.6058 26.6671Z" fill="#727272"/>
</g>
</g>
<defs>
<clipPath id="clip0_520_2833">
<rect width="100" height="100" fill="white"/>
</clipPath>
<clipPath id="clip1_520_2833">
<rect width="100" height="99.8712" fill="white"/>
</clipPath>
</defs>
</svg>
