<svg width="100" height="100" viewBox="0 0 100 100" fill="none" xmlns="http://www.w3.org/2000/svg">
<g clip-path="url(#clip0_147_37)">
<path d="M96.8095 93.9817H1C1 91.2471 1 88.5125 1 85.7639C1.90689 83.4478 3.62301 82.3596 6.09254 82.3316C7.69704 82.3177 7.69704 82.2619 7.69704 80.6295C7.69704 68.533 7.69704 56.4364 7.69704 44.326C7.69704 44.0748 7.69704 43.8097 7.69704 43.5586C7.69704 43.0563 7.48776 42.7354 6.98548 42.568C3.58115 41.4937 1.68366 39.1078 1 35.6756C1 33.3177 1 30.9598 1 28.6019C2.29755 26.0486 3.44163 23.3977 4.92056 20.9561C6.95757 17.5936 7.90632 14.0498 7.4459 10.1432C7.4459 10.0455 7.4459 9.94783 7.4459 9.85016C7.45985 7.29692 8.70159 6.04122 11.2688 5.99937C13.0547 5.98541 14.8405 5.99937 16.6264 5.99937C17.031 5.99937 17.4636 6.05517 17.8542 6.18074C18.496 6.39003 18.8309 6.8644 18.8448 7.54806C18.8588 8.23171 18.5379 8.69213 17.91 8.97118C17.5194 9.15255 17.1008 9.1386 16.6822 9.1386C15.0498 9.1386 13.4314 9.18046 11.8129 9.1386C10.906 9.1107 10.5293 9.40369 10.5712 10.3385C10.627 11.357 10.627 12.3755 10.5712 13.394C10.5293 14.3009 10.8642 14.7195 11.785 14.6079C11.9804 14.5799 12.1617 14.6079 12.3571 14.6079C37.4151 14.6079 62.4593 14.6079 87.5174 14.6079C87.8383 14.6079 88.1592 14.6079 88.4801 14.6079C89.0242 14.6079 89.3172 14.3707 89.3172 13.8126C89.3172 12.5011 89.3172 11.2035 89.3172 9.89202C89.3172 9.4316 89.08 9.18046 88.6056 9.16651C88.2568 9.16651 87.908 9.16651 87.5592 9.16651C66.7705 9.16651 45.9957 9.16651 25.207 9.16651C24.7047 9.16651 24.1745 9.16651 23.6862 9.05489C22.9607 8.88746 22.5421 8.37123 22.5421 7.60386C22.5421 6.83649 22.9607 6.36212 23.6862 6.15284C24.2443 5.98541 24.8303 6.02727 25.4023 6.02727C46.2748 6.02727 67.1612 6.02727 88.0336 6.02727C88.3545 6.02727 88.6754 6.02727 88.9963 6.02727C91.2147 6.15284 92.4425 7.42249 92.4564 9.64088C92.4704 11.3291 92.4843 13.0173 92.4564 14.7055C92.4425 15.5008 92.6378 16.1984 92.9866 16.896C94.8143 20.5096 96.6281 24.1232 98.4419 27.7368C98.7209 28.281 98.9721 28.8112 98.9721 29.453C98.9581 31.1691 99.0418 32.8991 98.9442 34.6153C98.7628 38.2986 97.0188 41.0053 93.5447 42.3447C92.4704 42.7633 92.1774 43.2795 92.1913 44.3539C92.2192 56.4643 92.2053 68.5748 92.2053 80.6853C92.2053 81.7457 92.7541 82.3037 93.8517 82.3596C94.2005 82.3735 94.5493 82.4154 94.8981 82.4572C97.2002 82.7084 98.9302 84.5779 98.9721 86.894C99 88.2613 98.9721 89.6286 98.9721 91.0099C98.9721 92.8376 98.5117 93.4515 96.7956 94.0096L96.8095 93.9817ZM62.1105 82.3316C70.6213 82.3316 79.1321 82.3316 87.6429 82.3316C89.0661 82.3316 89.094 82.3037 89.094 80.8806C89.094 71.6722 89.094 62.4638 89.094 53.2553C89.094 50.1022 89.08 46.949 89.094 43.7958C89.094 43.0703 88.8707 42.6936 88.1452 42.5122C86.6663 42.1076 85.4245 41.2704 84.4339 40.1124C84.0293 39.638 83.7642 39.6241 83.3038 40.0985C79.6344 43.8934 74.5279 43.9213 70.9003 40.1543C70.4399 39.6799 70.2027 39.6241 69.7144 40.1403C66.1147 43.9213 60.8408 43.9074 57.3109 40.1124C56.8366 39.5962 56.6273 39.6241 56.1669 40.1264C52.6928 43.8934 47.2375 43.8934 43.7634 40.1264C43.3169 39.638 43.1076 39.5822 42.6193 40.0985C39.0894 43.8934 33.8155 43.9074 30.2158 40.1403C29.7275 39.638 29.4903 39.6659 29.0299 40.1403C25.3884 43.9074 20.2819 43.8934 16.6264 40.0845C16.18 39.6101 15.9009 39.6101 15.4963 40.0845C14.5755 41.1867 13.4314 42.0239 12.0501 42.3866C11.0316 42.6517 10.8084 43.1819 10.8223 44.1585C10.8642 52.0555 10.8363 59.9663 10.8363 67.8633C10.8363 72.2861 10.8502 76.7229 10.8363 81.1457C10.8363 82.0247 11.1432 82.3596 12.0083 82.3177C13.0826 82.2758 13.2081 82.1782 13.2081 80.9922C13.2081 71.0862 13.2081 61.1802 13.2081 51.2602C13.2081 48.8465 14.2267 47.814 16.6264 47.814C21.6911 47.814 26.7557 47.814 31.8343 47.814C34.3596 47.814 35.3363 48.8046 35.3363 51.3578C35.3363 61.1383 35.3363 70.9188 35.3363 80.6992C35.3363 81.7689 35.8618 82.3037 36.9129 82.3037C45.326 82.3037 53.7392 82.3037 62.1523 82.3037L62.1105 82.3316ZM49.9442 90.8704C64.7056 90.8704 79.453 90.8704 94.2144 90.8704C94.5353 90.8704 94.8562 90.8704 95.1771 90.8704C95.6794 90.8704 95.9724 90.675 95.9724 90.1449C95.9724 89.1543 96.0142 88.1637 95.9445 87.187C95.8608 86.0708 95.2469 85.5406 94.1307 85.4709C93.7819 85.443 93.4331 85.4709 93.0843 85.4709C64.3428 85.4709 35.5874 85.4709 6.84596 85.4709C6.55296 85.4709 6.27392 85.4709 5.98092 85.4709C4.62756 85.5127 4.01367 86.0987 3.95786 87.466C3.92995 87.9683 3.95786 88.4846 3.95786 89.0008C3.95786 90.2565 4.57175 90.8843 5.79954 90.8843C20.5191 90.8843 35.2526 90.8843 49.9721 90.8843L49.9442 90.8704ZM16.3055 66.6076C16.3055 71.3932 16.3055 76.1648 16.3055 80.9504C16.3055 82.234 16.4032 82.3316 17.6449 82.3316C22.0399 82.3316 26.4348 82.3316 30.8437 82.3316C32.0854 82.3316 32.1831 82.22 32.1831 80.9364C32.1831 71.4071 32.1831 61.8778 32.1831 52.3624C32.1831 51.0649 32.0994 50.9811 30.746 50.9811C26.4069 50.9811 22.0817 50.9811 17.7426 50.9811C16.3613 50.9811 16.3195 51.0369 16.3195 52.4601C16.3195 57.1759 16.3195 61.8917 16.3195 66.6076H16.3055ZM49.9442 27.5694C51.3394 27.5694 52.7486 27.5555 54.1438 27.5694C54.8693 27.5834 55.0925 27.2625 55.0367 26.5788C54.8414 24.0116 54.6321 21.4444 54.4786 18.8772C54.4228 18.0261 54.0601 17.7192 53.2229 17.7331C51.0604 17.775 48.8978 17.7889 46.7352 17.7331C45.7446 17.7052 45.4795 18.1377 45.4376 19.0307C45.2981 21.5002 45.1167 23.9837 44.8935 26.4532C44.8237 27.3043 45.0888 27.6113 45.9399 27.5834C47.2793 27.5415 48.6187 27.5834 49.9442 27.5834V27.5694ZM36.5501 27.5694C37.8198 27.5694 39.1034 27.5694 40.373 27.5694C41.6566 27.5694 41.7682 27.4438 41.8519 26.1742C42.0194 23.7047 42.1868 21.2212 42.3961 18.7516C42.4519 18.054 42.2565 17.7471 41.5171 17.7471C39.1592 17.761 36.8013 17.761 34.4433 17.7471C33.8573 17.7471 33.5783 17.9843 33.4527 18.5424C32.8667 21.277 32.2807 24.0116 31.6669 26.7462C31.5273 27.4159 31.7924 27.5834 32.4203 27.5694C33.7876 27.5415 35.1549 27.5694 36.5222 27.5694H36.5501ZM63.3104 27.5694C64.7056 27.5694 66.1147 27.5694 67.51 27.5694C67.9843 27.5694 68.361 27.5136 68.2355 26.8997C67.6216 24.0674 67.0077 21.2491 66.3938 18.4168C66.2961 17.9843 66.045 17.761 65.5985 17.761C63.1429 17.761 60.7013 17.761 58.2457 17.761C57.6597 17.761 57.4505 18.054 57.5063 18.6121C57.576 19.2818 57.6179 19.9376 57.6737 20.6073C57.8132 22.5745 57.9527 24.5418 58.0783 26.509C58.1341 27.2904 58.4829 27.6252 59.3061 27.5834C60.6455 27.5276 61.9849 27.5694 63.3243 27.5694H63.3104ZM76.5649 27.5694C77.9601 27.5694 79.3693 27.5694 80.7645 27.5694C81.3366 27.5694 81.6156 27.4438 81.3924 26.7881C80.3878 24.0116 79.3833 21.2212 78.3927 18.4307C78.2252 17.9424 77.9183 17.7331 77.3881 17.7331C75.0302 17.7331 72.6723 17.7331 70.3283 17.7331C69.7702 17.7331 69.4912 17.9285 69.6307 18.5424C70.2306 21.277 70.8306 24.0116 71.4026 26.7462C71.5421 27.388 71.8909 27.5555 72.4769 27.5415C73.8442 27.5276 75.2116 27.5415 76.5789 27.5415L76.5649 27.5694ZM23.2816 27.5694C24.6768 27.5694 26.086 27.5555 27.4812 27.5694C28.0811 27.5694 28.416 27.3741 28.5416 26.7462C29.0997 24.0395 29.6856 21.3328 30.2856 18.64C30.4251 17.9843 30.2019 17.7471 29.574 17.7471C27.2161 17.7471 24.8582 17.7471 22.5142 17.7471C22.0399 17.7471 21.7329 17.9145 21.5655 18.3749C20.5609 21.1933 19.5424 23.9977 18.5239 26.816C18.3286 27.3601 18.496 27.5834 19.082 27.5694C20.4772 27.5555 21.8864 27.5694 23.2816 27.5694ZM10.0689 27.5694C11.3804 27.5694 12.678 27.5415 13.9895 27.5694C14.715 27.5973 15.0777 27.3322 15.3149 26.6486C16.2358 23.9698 17.1985 21.3049 18.1891 18.654C18.4263 17.9982 18.3565 17.7331 17.5891 17.7331C15.301 17.761 12.9989 17.761 10.7107 17.7331C10.1526 17.7331 9.83172 17.9564 9.59453 18.4447C8.22722 21.2072 6.832 23.9698 5.43679 26.7183C5.11589 27.3601 5.26936 27.5694 5.96697 27.5694C7.33428 27.5415 8.70159 27.5694 10.0689 27.5694V27.5694ZM89.8892 27.5694C91.2286 27.5694 92.568 27.5555 93.9075 27.5694C94.5911 27.5694 94.8841 27.4578 94.5074 26.7044C93.0982 23.9558 91.717 21.1933 90.3497 18.4307C90.1125 17.9424 89.7637 17.7331 89.2195 17.7471C86.9314 17.761 84.6293 17.761 82.3411 17.7471C81.6714 17.7471 81.49 17.9285 81.7412 18.5982C82.7457 21.3188 83.7224 24.0395 84.6711 26.7741C84.8804 27.388 85.2571 27.5973 85.885 27.5834C87.2244 27.5555 88.5638 27.5834 89.8892 27.5834V27.5694ZM49.9442 30.597C48.5071 30.597 47.084 30.597 45.6469 30.597C45.033 30.597 44.6703 30.8063 44.6982 31.476C44.7261 32.8154 44.6424 34.1409 44.8517 35.4663C45.2284 37.908 47.3909 39.7915 49.9023 39.8055C52.4835 39.8194 54.7019 37.9777 55.0925 35.5082C55.3018 34.2106 55.2042 32.9131 55.26 31.6016C55.2879 30.8621 54.9949 30.5691 54.2554 30.5831C52.8183 30.611 51.3952 30.5831 49.9581 30.5831L49.9442 30.597ZM4.09738 33.3177C4.09738 33.7921 4.09738 34.2804 4.09738 34.7548C4.18109 37.3778 6.1902 39.5683 8.70159 39.8055C11.4223 40.0566 13.7662 38.3684 14.3522 35.7175C14.6731 34.2385 14.4778 32.7317 14.4917 31.2388C14.4917 30.6668 14.0592 30.597 13.6267 30.597C10.7526 30.597 7.89237 30.597 5.01822 30.597C4.37642 30.597 4.06948 30.8482 4.09738 31.5039C4.11133 32.1039 4.09738 32.7178 4.09738 33.3177V33.3177ZM90.6566 30.597C89.2195 30.597 87.7964 30.611 86.3593 30.597C85.6896 30.597 85.3687 30.8342 85.3827 31.5458C85.4106 32.6201 85.3548 33.7084 85.4106 34.7827C85.5362 37.6568 87.8522 39.8473 90.7124 39.8194C93.5028 39.7915 95.7212 37.5731 95.8049 34.699C95.8329 33.6526 95.8049 32.6061 95.8189 31.5597C95.8329 30.8621 95.5259 30.597 94.8423 30.597C93.447 30.6249 92.0518 30.597 90.6427 30.597H90.6566ZM22.7933 30.597C21.4539 30.597 20.1284 30.6249 18.789 30.597C17.9937 30.5691 17.6031 30.8342 17.6449 31.6853C17.6868 32.7596 17.6449 33.8479 17.6868 34.9222C17.7984 37.4754 19.8215 39.6101 22.3189 39.8055C24.9977 40.0287 27.3417 38.3405 27.9137 35.7872C28.2207 34.406 28.0253 32.9968 28.1091 31.6016C28.1509 30.8621 27.844 30.5691 27.1045 30.5831C25.6814 30.611 24.2443 30.5831 22.8072 30.5831L22.7933 30.597ZM82.2574 33.6526C82.2574 32.7596 82.2574 32.1178 82.2574 31.49C82.2574 30.904 82.0063 30.611 81.4063 30.611C78.5043 30.611 75.6022 30.611 72.7002 30.611C72.1142 30.611 71.8072 30.8342 71.8212 31.4621C71.8351 32.5503 71.7793 33.6386 71.8491 34.7129C72.0026 37.4196 73.9559 39.5543 76.4254 39.8194C79.0484 40.0845 81.4063 38.494 82.09 35.9826C82.3272 35.1454 82.2155 34.2664 82.2434 33.6665L82.2574 33.6526ZM36.4804 30.597C35.0433 30.597 33.6202 30.597 32.1831 30.597C31.4994 30.597 31.1925 30.8761 31.2064 31.5597C31.2343 32.7038 31.1925 33.8479 31.2622 34.992C31.4157 37.6289 33.5085 39.6938 36.0478 39.8055C38.7964 39.931 41.0427 38.1451 41.5171 35.5082C41.7543 34.2106 41.6008 32.9131 41.6706 31.6155C41.7124 30.8761 41.4194 30.5831 40.68 30.597C39.2847 30.6249 37.8756 30.597 36.4804 30.597ZM63.5057 30.597C62.0686 30.597 60.6455 30.597 59.2084 30.597C58.748 30.597 58.2597 30.6249 58.2597 31.2528C58.2597 32.8433 58.0923 34.4339 58.4969 35.9965C59.1247 38.4381 61.4826 40.0287 64.0777 39.7915C66.5054 39.5822 68.4866 37.5452 68.6401 35.0478C68.7098 33.9037 68.654 32.7596 68.6959 31.6155C68.7238 30.8203 68.3471 30.5552 67.5937 30.5691C66.2264 30.597 64.8591 30.5691 63.4917 30.5691L63.5057 30.597Z" fill="#727272"/>
<path d="M61.7199 76.4151C55.2461 76.4151 48.7863 76.4151 42.3125 76.4151C41.9357 76.4151 41.5451 76.4151 41.1684 76.4012C39.1314 76.2756 38.0849 75.1873 38.071 73.1643C38.0431 70.8343 38.071 68.5182 38.071 66.1882C38.071 61.2491 38.071 56.3101 38.071 51.371C38.071 48.8596 39.1035 47.8551 41.6288 47.8551C46.9167 47.8551 52.2045 47.8551 57.5064 47.8551C57.911 47.8551 58.3435 47.8551 58.7342 47.9527C59.4597 48.162 59.8364 48.6782 59.8085 49.4456C59.7806 50.1711 59.4039 50.6315 58.7062 50.8269C58.1482 50.9943 57.5761 50.9804 57.0041 50.9804C52.1906 50.9804 47.3771 50.9804 42.5636 50.9804C41.266 50.9804 41.2242 51.0362 41.2242 52.3337C41.2242 58.8912 41.2242 65.4627 41.2242 72.0202C41.2242 73.2201 41.266 73.262 42.4659 73.262C55.3159 73.262 68.1519 73.262 81.0018 73.262C82.2017 73.262 82.2714 73.1922 82.2714 72.0342C82.2714 65.4348 82.2714 58.8354 82.2714 52.25C82.2714 51.0501 82.1877 50.9664 80.932 50.9664C76.0488 50.9664 71.1795 50.9664 66.2962 50.9664C65.7939 50.9664 65.2777 50.9385 64.7754 50.8408C63.9802 50.6734 63.5616 50.1153 63.5895 49.334C63.6174 48.5387 64.1057 48.0504 64.8871 47.8969C65.194 47.8411 65.5149 47.8551 65.8358 47.8551C71.2213 47.8551 76.6069 47.8551 81.9924 47.8551C84.3364 47.8551 85.3967 48.9015 85.3967 51.2315C85.3967 58.4587 85.3967 65.6999 85.3967 72.9271C85.3967 75.3687 84.3503 76.4151 81.8947 76.4151C75.1698 76.4291 68.4449 76.4151 61.7199 76.4151Z" fill="#727272"/>
<path d="M26.9645 66.1883C26.9645 65.686 26.9227 65.1698 26.9645 64.6675C27.0622 63.8862 27.7459 63.3142 28.4853 63.37C29.2806 63.4397 29.8387 63.8722 29.8945 64.6675C29.9782 65.6442 29.9643 66.6348 29.8945 67.6254C29.8526 68.4067 29.155 68.9787 28.4295 68.9787C27.69 68.9787 27.0343 68.4067 26.9506 67.6254C26.8948 67.151 26.9506 66.6766 26.9506 66.2023L26.9645 66.1883Z" fill="#727272"/>
</g>
<defs>
<clipPath id="clip0_147_37">
<rect width="98" height="87.9824" fill="white" transform="translate(1 6)"/>
</clipPath>
</defs>
</svg>
