<svg width="231" height="127" viewBox="0 0 231 127" fill="none" xmlns="http://www.w3.org/2000/svg">
<g clip-path="url(#clip0_580_379)">
<g clip-path="url(#clip1_580_379)">
<path d="M27.9696 60.309C27.9696 57.0093 27.9696 53.7097 27.9696 50.41C27.9696 50.1229 27.9772 49.8397 27.9849 49.5526C27.9964 49.1315 28.2222 48.9171 28.6318 48.8789C28.7581 48.8674 28.8845 48.8482 29.0108 48.8521C31.5258 48.8942 34.0408 48.8865 36.5481 49.0128C37.4132 49.0549 38.3052 49.3305 39.1052 49.6827C41.6929 50.8234 42.8107 53.0628 42.5772 55.8648C42.3667 58.3874 41.1647 60.2937 38.8985 61.5033C38.0946 61.932 38.0908 61.978 38.6612 62.6785C40.8125 65.3121 42.9753 67.9342 45.1228 70.5717C45.3717 70.8779 45.5401 71.2568 45.743 71.6014C45.3563 71.6664 44.9697 71.766 44.5793 71.7851C43.9438 71.8157 43.3007 71.7468 42.6691 71.8042C41.9494 71.8693 41.4862 71.5707 41.0575 71.0233C39.155 68.6003 37.1989 66.2193 35.3117 63.7809C34.7719 63.0804 34.1939 62.7168 33.302 62.824C32.8618 62.8775 32.41 62.8393 31.966 62.8393C31.5755 62.8393 31.3803 63.046 31.3612 63.4211C31.3497 63.6431 31.3497 63.8651 31.3497 64.0872C31.3497 66.2767 31.3497 68.4663 31.3497 70.6559C31.3497 71.7851 31.342 71.7889 30.1707 71.7928C29.6615 71.7928 29.1524 71.7813 28.6433 71.7889C28.2069 71.7966 27.9964 71.5861 27.9811 71.1612C27.9734 70.8741 27.9619 70.5908 27.9619 70.3037C27.9619 66.9734 27.9619 63.6393 27.9619 60.309H27.9696ZM31.3573 55.9107C31.3573 56.9902 31.3459 58.0659 31.3612 59.1453C31.3727 59.9186 31.4684 60.0296 32.2569 60.0104C33.4627 59.976 34.6762 59.9415 35.8744 59.8037C37.1759 59.6506 38.0908 58.885 38.6114 57.6945C38.9866 56.8371 39.1205 55.9299 39.0095 54.9959C38.8028 53.3078 37.7578 52.1938 36.0581 52.0024C34.7987 51.8608 33.524 51.834 32.2531 51.7996C31.4798 51.7804 31.3765 51.9067 31.3612 52.68C31.342 53.7594 31.3573 54.8351 31.3573 55.9146V55.9107Z" fill="white"/>
<path d="M97.299 48.8523C99.5498 48.8637 99.1632 48.6685 99.8484 50.6897C102.111 57.3579 104.369 64.0261 106.628 70.6943C106.678 70.8436 106.727 70.9967 106.769 71.1499C106.869 71.525 106.781 71.7776 106.333 71.7815C105.537 71.7815 104.741 71.7738 103.944 71.7891C103.393 71.8006 103.263 71.3948 103.133 71.0044C102.662 69.5919 102.206 68.1717 101.743 66.7554C101.663 66.5142 101.586 66.2731 101.502 66.0358C101.368 65.6606 101.108 65.4999 100.702 65.4999C98.344 65.5075 95.9898 65.5152 93.6317 65.4999C93.0422 65.496 92.8776 65.8712 92.736 66.3075C92.2575 67.7851 91.7828 69.2665 91.3043 70.7441C91.0772 71.4433 90.5859 71.7942 89.8305 71.7968C89.2563 71.7968 88.686 71.7929 88.1118 71.7815C87.7366 71.7738 87.595 71.5862 87.6983 71.2264C87.7787 70.9508 87.8591 70.679 87.951 70.4072C90.2363 63.6471 92.5254 56.887 94.8108 50.1269C94.872 49.947 94.9562 49.771 94.9983 49.5872C95.117 49.0704 95.45 48.8523 95.963 48.8561C96.407 48.8561 96.8549 48.8561 97.299 48.8561V48.8523ZM97.2377 53.0132C97.0846 53.2314 97.008 53.3003 96.9812 53.3845C96.051 56.2057 95.1323 59.0345 94.1906 61.8518C94.0069 62.4031 94.2595 62.5524 94.7227 62.5524C96.3113 62.56 97.9 62.5753 99.4847 62.5485C100.158 62.537 100.289 62.3495 100.086 61.7217C99.1632 58.8661 98.2215 56.0143 97.2339 53.0094L97.2377 53.0132Z" fill="white"/>
<path d="M122.035 55.9777C122.686 55.5681 123.268 55.1891 123.865 54.8331C125.285 53.991 126.831 53.9029 128.393 54.2092C130.005 54.5269 131.169 55.526 131.75 57.0342C132.118 57.995 132.39 59.0515 132.417 60.0697C132.497 63.622 132.455 67.1743 132.451 70.7266C132.451 71.7219 132.405 71.7487 131.44 71.7678C129.988 71.7959 129.262 71.0865 129.262 69.6395C129.262 67.4499 129.285 65.2604 129.255 63.0746C129.239 61.9377 129.167 60.797 129.056 59.6601C128.895 57.9873 127.854 56.8198 125.545 57.2103C124.477 57.3902 123.604 57.9605 122.713 58.5194C122.142 58.8792 121.932 59.3348 121.939 60.0123C121.97 63.4383 121.955 66.8643 121.955 70.2903C121.955 71.898 121.997 71.7793 120.527 71.7602C118.651 71.7372 118.62 72.1698 118.624 69.8654C118.624 63.0785 118.624 56.2916 118.624 49.5008C118.624 48.3831 119.188 47.8242 120.316 47.8242C121.444 47.8242 121.992 48.355 121.958 49.4166C121.958 51.5105 121.962 53.6044 121.966 55.6982C121.966 55.7595 122.001 55.8169 122.043 55.9739L122.035 55.9777Z" fill="white"/>
<path d="M151.167 63.6946C149.605 63.6946 148.047 63.6869 146.485 63.6946C145.474 63.7022 145.329 63.886 145.474 64.8927C145.853 67.5493 147.672 69.1838 150.386 69.3178C152.307 69.4135 154.011 68.7895 155.626 67.8211C155.929 67.6412 156.296 67.5684 156.637 67.4459C156.706 67.779 156.836 68.1082 156.836 68.4412C156.824 71.2011 157.127 70.6499 154.654 71.5456C152.323 72.3916 149.911 72.4337 147.526 71.7409C145.061 71.025 143.373 69.4097 142.615 66.9675C141.765 64.2267 141.799 61.4629 142.879 58.7681C143.813 56.4369 146.251 53.9372 149.961 54.0674C150.531 54.0865 151.117 54.0482 151.676 54.1401C154.168 54.5573 155.787 56.0234 156.629 58.3661C157.165 59.859 157.161 61.4131 157.138 62.9711C157.127 63.6678 156.625 63.6793 156.135 63.6831C154.482 63.6908 152.824 63.6831 151.17 63.6831L151.167 63.6946ZM149.712 61.1222C150.856 61.1222 152.001 61.1222 153.146 61.1222C153.567 61.1222 153.976 61.061 153.904 60.5289C153.727 59.1776 153.368 57.8723 151.997 57.2254C149.513 56.0502 146.294 57.1029 145.543 60.2074C145.367 60.9423 145.493 61.1069 146.274 61.1184C147.419 61.1337 148.564 61.1184 149.708 61.1184L149.712 61.1222Z" fill="white"/>
<path d="M77.4764 63.1593C77.4764 64.836 77.239 66.459 76.5576 67.994C75.0609 71.3626 71.7918 72.687 68.3964 72.22C64.5492 71.6917 62.417 68.6945 62.0227 65.1728C61.8122 63.2895 61.8045 61.387 62.3481 59.5152C63.2324 56.4796 65.8086 54.1216 69.518 54.0412C73.6637 53.9494 76.6916 56.782 77.2275 60.7095C77.3386 61.521 77.3922 62.344 77.4725 63.1632L77.4764 63.1593ZM74.1613 63.1938C74.0388 62.2253 73.9967 61.2377 73.7824 60.2884C73.2885 58.1065 71.7727 56.8892 69.6826 56.8892C67.558 56.8892 66.111 58.0759 65.5522 60.2578C65.0124 62.3631 65.0622 64.457 65.7244 66.5279C66.3101 68.3576 67.7265 69.4333 69.6022 69.5022C71.2942 69.5634 72.7411 68.595 73.4761 66.926C74.0005 65.7355 74.0809 64.48 74.1575 63.1976L74.1613 63.1938Z" fill="white"/>
<path d="M190.616 69.0814C190.616 68.7024 190.597 68.3196 190.62 67.9406C190.658 67.2822 190.811 67.1865 191.366 67.5693C192.396 68.2813 193.491 68.844 194.7 69.1771C195.921 69.5101 197.158 69.5331 198.368 69.1732C199.734 68.7675 200.274 67.6076 199.753 66.3444C199.531 65.797 199.11 65.4716 198.582 65.3032C197.858 65.0735 197.112 64.8974 196.377 64.6984C195.52 64.4649 194.643 64.2812 193.805 63.9941C191.99 63.3625 190.899 62.0839 190.673 60.1661C190.428 58.0991 191.136 56.4224 192.909 55.2549C194.348 54.3018 195.971 54.0415 197.656 54.118C199.06 54.1831 200.431 54.4587 201.748 54.9793C202.345 55.2166 202.697 55.5459 202.636 56.2502C202.578 56.8818 202.643 57.5211 202.609 58.1527C202.582 58.6733 202.395 58.7804 201.935 58.5699C201.679 58.4512 201.449 58.2675 201.204 58.1259C199.501 57.1383 197.702 56.6062 195.726 57.1115C194.501 57.4254 193.988 58.1259 194.004 59.2781C194.015 60.1661 194.474 60.7327 195.271 60.9815C196.419 61.3413 197.602 61.6016 198.762 61.9232C199.401 62.1031 200.056 62.2715 200.661 62.5395C202.881 63.5271 203.6 65.5291 203.068 68.0402C202.624 70.1302 200.649 71.7532 198.379 72.1054C196.09 72.4614 193.881 72.182 191.745 71.313C190.995 71.0068 190.618 70.453 190.616 69.6517C190.616 69.4603 190.616 69.2728 190.616 69.0814Z" fill="white"/>
<path d="M159.848 62.6754C159.848 61.1863 159.856 59.6934 159.848 58.2043C159.844 57.3354 159.802 57.3048 158.941 57.2512C158.277 57.2104 157.94 56.8582 157.93 56.1947C157.93 56.0033 157.93 55.8157 157.93 55.6243C157.935 54.9072 158.304 54.5219 159.036 54.4683C159.771 54.4147 159.84 54.3611 159.848 53.6147C159.863 52.5352 159.871 51.4557 159.848 50.3801C159.837 49.8136 160.078 49.5571 160.629 49.5571C161.169 49.5571 161.712 49.5341 162.252 49.5571C162.956 49.5915 163.094 49.7025 163.125 50.4107C163.167 51.4251 163.148 52.4395 163.155 53.4539C163.159 54.4568 163.155 54.4606 164.143 54.4683C165.257 54.476 166.371 54.4568 167.485 54.4798C168.258 54.4951 168.346 54.6023 168.388 55.3755C168.495 57.2321 168.476 57.2512 166.643 57.2512C165.751 57.2512 164.859 57.2665 163.967 57.2512C163.397 57.2397 163.159 57.5077 163.159 58.0551C163.167 61.0676 163.125 64.084 163.19 67.0966C163.22 68.5818 163.944 69.2096 165.445 69.1981C166.103 69.1981 166.769 69.0603 167.416 68.9149C168.239 68.7311 168.388 68.7809 168.381 69.6383C168.365 71.7284 168.783 71.6633 166.336 72.0499C165.177 72.2337 163.986 72.2298 162.849 71.8049C160.732 71.0126 159.982 69.3091 159.882 67.2421C159.81 65.7224 159.867 64.1989 159.867 62.6754H159.856H159.848Z" fill="white"/>
<path d="M108.43 62.6082C108.43 61.1804 108.433 59.7526 108.43 58.3286C108.426 57.3142 108.418 57.3142 107.45 57.253C106.577 57.1956 106.538 57.1573 106.512 56.3113C106.504 56.1199 106.512 55.9324 106.512 55.741C106.516 54.5811 106.512 54.5581 107.698 54.4816C108.223 54.4471 108.437 54.2404 108.433 53.7236C108.418 52.6786 108.422 51.6298 108.433 50.5848C108.445 49.7005 108.544 49.5971 109.413 49.5627C109.888 49.5436 110.37 49.5397 110.845 49.5627C111.58 49.601 111.725 49.7388 111.748 50.4891C111.779 51.5035 111.748 52.5178 111.768 53.5322C111.783 54.3744 111.867 54.4548 112.709 54.4663C113.793 54.4816 114.872 54.4624 115.955 54.4777C116.874 54.4892 116.943 54.5696 116.974 55.4424C117.014 56.6494 116.415 57.253 115.174 57.253C114.348 57.253 113.521 57.2415 112.69 57.2568C111.886 57.2721 111.771 57.3563 111.771 58.1143C111.76 61.0962 111.752 64.0782 111.791 67.0563C111.81 68.5071 112.541 69.2076 114.007 69.1961C114.727 69.1884 115.45 69.0123 116.162 68.8784C116.786 68.7597 116.909 68.8133 116.962 69.4181C116.989 69.732 116.974 70.0535 116.974 70.3674C116.974 71.6689 116.958 71.6842 115.626 71.9445C114.397 72.1857 113.161 72.2546 111.936 71.9445C110.037 71.4584 108.877 70.2067 108.655 68.3003C108.433 66.4208 108.437 64.5107 108.341 62.6159C108.372 62.6159 108.403 62.6159 108.433 62.6121L108.43 62.6082Z" fill="white"/>
<path d="M176.12 63.4052C176.012 61.8741 176.177 60.5266 176.667 59.2328C177.892 55.9753 180.464 54.1761 183.967 54.1034C185.659 54.069 187.232 54.5206 188.76 55.2058C189.154 55.3819 189.384 55.6231 189.38 56.0595C189.38 56.8212 189.41 57.583 189.365 58.3409C189.326 58.9687 189.116 59.0452 188.565 58.7084C188.101 58.4289 187.676 58.0768 187.186 57.8586C186.494 57.5524 185.778 57.2232 185.043 57.1045C182.401 56.6796 180.499 57.893 179.772 60.4884C179.266 62.2875 179.259 64.1402 179.783 65.9393C180.694 69.0514 183.649 70.2342 186.735 68.7528C187.332 68.4657 187.86 68.0408 188.434 67.7002C188.641 67.5777 188.882 67.5126 189.112 67.4207C189.204 67.6734 189.334 67.9184 189.38 68.1787C189.426 68.4581 189.395 68.749 189.395 69.0323C189.372 71.1185 189.61 70.7434 187.692 71.5587C185.904 72.3166 184.005 72.3664 182.153 72.0181C178.508 71.3329 176.556 68.6571 176.131 64.8675C176.07 64.3354 176.124 63.7919 176.124 63.4052H176.12Z" fill="white"/>
<path d="M59.3817 63.7808C59.3817 66.3187 59.4085 68.8566 59.3664 71.3945C59.3511 72.3055 59.2362 73.2281 59.0525 74.1238C58.6429 76.1028 57.3873 77.3546 55.4695 77.9517C54.2292 78.3383 52.9583 78.2848 51.6836 78.1661C51.1247 78.1125 50.8032 77.879 50.8606 77.2589C50.918 76.6311 50.9333 75.9995 50.9678 75.3717C51.5611 75.3449 52.1506 75.3219 52.744 75.2952C53.1268 75.276 53.5134 75.2952 53.8847 75.2301C54.9412 75.0617 55.615 74.4415 55.8332 73.4042C55.9633 72.7879 56.036 72.1486 56.0399 71.517C56.059 67.1379 56.0514 62.7587 56.0475 58.3796C56.0475 57.2772 56.0399 57.2772 54.9144 57.2657C54.7537 57.2657 54.5967 57.2657 54.4359 57.2657C53.4687 57.2631 52.9864 56.7642 52.989 55.769C52.989 55.5469 52.9966 55.3249 53.0043 55.1029C53.0158 54.7201 53.2225 54.5096 53.5976 54.5057C55.3164 54.4981 57.0351 54.4981 58.7539 54.5057C59.1444 54.5057 59.3205 54.7584 59.3473 55.1182C59.3702 55.4015 59.3741 55.6886 59.3741 55.9757C59.3741 58.5786 59.3741 61.1778 59.3741 63.7808H59.3817Z" fill="white"/>
<path d="M136.148 59.8237C136.148 56.2064 136.148 52.589 136.148 48.9678C136.148 47.9036 136.205 47.8577 137.293 47.8424C137.771 47.8347 138.25 47.8462 138.724 47.8539C139.191 47.8577 139.425 48.1065 139.448 48.5582C139.463 48.8415 139.471 49.1285 139.471 49.4156C139.471 56.3671 139.471 63.3186 139.471 70.2663C139.471 70.3926 139.471 70.5189 139.471 70.6453C139.44 71.7286 139.402 71.7898 138.326 71.7745C135.788 71.7439 136.167 72.1458 136.148 69.627C136.125 66.358 136.144 63.089 136.144 59.8199L136.148 59.8237Z" fill="white"/>
<path d="M47.2478 63.1029C47.2478 60.5688 47.244 58.0347 47.2478 55.5007C47.2478 54.536 47.3052 54.4748 48.2775 54.4748C50.8308 54.4671 50.4557 54.291 50.4671 56.5495C50.4863 61.0473 50.471 65.5451 50.471 70.0429C50.471 70.2956 50.4748 70.5482 50.471 70.8047C50.4442 71.7081 50.4174 71.7349 49.468 71.7502C49.0546 71.7578 48.6412 71.7578 48.2278 71.7502C47.2708 71.7349 47.2555 71.731 47.2516 70.8008C47.244 68.2361 47.2516 65.6714 47.2516 63.1029H47.2478Z" fill="white"/>
<path d="M170.17 63.1036C170.17 60.5657 170.166 58.0239 170.17 55.486C170.17 54.552 170.228 54.5022 171.127 54.4793C171.606 54.4678 172.084 54.4601 172.559 54.4869C173.271 54.5252 173.348 54.6171 173.386 55.3559C173.394 55.5128 173.39 55.6736 173.39 55.8305C173.39 60.6882 173.39 65.5458 173.39 70.4034C173.39 70.6254 173.378 70.8474 173.382 71.0695C173.394 71.5441 173.179 71.77 172.693 71.7585C172.119 71.7432 171.545 71.77 170.974 71.7585C170.216 71.7355 170.178 71.7087 170.174 70.924C170.163 68.6081 170.17 66.2884 170.167 63.9725C170.167 63.6854 170.167 63.4021 170.167 63.1151L170.17 63.1036Z" fill="white"/>
<path d="M57.5098 52.047C55.2742 52.0585 55.7068 52.001 55.6761 50.2057C55.6532 48.7779 55.6761 48.7779 57.1384 48.7741C57.6437 48.7741 58.1529 48.7894 58.6582 48.7741C59.1443 48.7588 59.3549 49.0076 59.3663 49.4555C59.3817 50.022 59.4008 50.5924 59.3778 51.1551C59.3472 51.9015 59.2515 51.9857 58.4629 52.0393C58.149 52.0623 57.8313 52.0393 57.5136 52.0393L57.5098 52.047Z" fill="white"/>
<path d="M48.8728 48.7831C50.8595 48.8061 50.626 48.5343 50.6413 50.5707C50.6528 52.056 50.6413 52.0598 49.1025 52.0636C48.5933 52.0636 48.0842 52.0368 47.5751 52.0215C47.1885 52.01 46.9894 51.7918 46.9818 51.4205C46.9703 50.7545 46.9703 50.0884 46.9818 49.4262C46.9894 48.9515 47.2574 48.7601 47.7244 48.7831C48.1072 48.8022 48.49 48.7831 48.869 48.7831H48.8728Z" fill="white"/>
<path d="M173.567 50.4407C173.567 52.0522 173.567 52.0637 171.959 52.0522C169.685 52.0369 169.877 52.2398 169.884 49.9162C169.884 48.8253 169.957 48.7793 171.01 48.7717C171.584 48.7679 172.154 48.7602 172.729 48.7717C173.506 48.7908 173.536 48.8253 173.567 49.5794C173.578 49.8626 173.567 50.1497 173.567 50.4368V50.4407Z" fill="white"/>
</g>
</g>
<defs>
<clipPath id="clip0_580_379">
<rect width="231" height="127" fill="white"/>
</clipPath>
<clipPath id="clip1_580_379">
<rect width="175.705" height="30.6233" fill="white" transform="translate(27.6475 47.6875)"/>
</clipPath>
</defs>
</svg>
