<svg width="100" height="100" viewBox="0 0 100 100" fill="none" xmlns="http://www.w3.org/2000/svg">
<g clip-path="url(#clip0_287_2617)">
<g clip-path="url(#clip1_287_2617)">
<path d="M76.4798 0C79.9708 0.969154 82.2947 3.10546 83.0659 6.73197C83.2118 7.39892 83.1909 8.10755 83.2013 8.79533C83.2013 18.0075 83.2118 27.2093 83.1909 36.4214C83.1909 37.276 83.4306 37.797 84.1913 38.2555C87.4844 40.2251 86.9112 40.496 86.0984 43.1221C86.0775 43.1847 86.0671 43.2576 86.0463 43.3201C85.4002 45.5294 85.4731 45.7378 87.2968 47.2072C87.6511 47.499 87.9637 47.4677 88.3493 47.3426C89.3393 47.03 90.3397 46.7591 91.3297 46.4256C92.278 46.113 93.0492 46.3422 93.6223 47.1238C94.9354 48.885 95.9775 50.792 96.8737 52.7824C97.2176 53.5431 96.9988 54.2101 96.436 54.7728C95.6753 55.5336 94.9146 56.2839 94.1017 56.9925C93.6223 57.4093 93.5702 57.8262 93.6432 58.4514C93.8516 60.1813 94.7478 60.9108 96.4673 61.2234C99.6874 61.7966 99.7812 62.0467 99.7916 65.3189C99.7916 66.6007 99.8124 67.8825 99.7395 69.1642C99.6561 70.6232 99.1976 71.1234 97.8116 71.4673C96.9362 71.6861 96.0713 71.9258 95.1855 72.0613C94.4352 72.1759 94.2372 72.6344 93.9767 73.2597C93.3514 74.7603 93.7682 75.7503 94.9771 76.8133C97.5511 79.0538 97.4781 79.1267 95.8629 82.1905C95.2376 83.3889 94.5186 84.5352 93.7474 85.6399C93.1117 86.5465 92.2989 86.8695 91.2255 86.484C90.7045 86.2964 90.1626 86.1609 89.6311 86.0046C87.4531 85.3585 87.1822 85.4627 85.7441 87.2655C85.4523 87.6303 85.5044 87.9429 85.619 88.3181C85.9316 89.308 86.2026 90.3085 86.5256 91.2985C86.8383 92.2468 86.5882 93.0179 85.817 93.5911C84.0559 94.8937 82.1488 95.9462 80.1584 96.8424C79.3977 97.1863 78.7307 96.9571 78.168 96.3943C77.4385 95.6544 76.6986 94.925 76.0213 94.1434C75.5523 93.6015 75.0938 93.5598 74.3852 93.6432C72.7074 93.862 72.0717 94.7582 71.7591 96.3631C71.113 99.6978 70.9462 99.7499 67.5073 99.7707C66.2568 99.7707 65.0167 99.7916 63.7662 99.7186C62.3072 99.6248 61.8278 99.1768 61.484 97.7595C61.2547 96.8529 61.015 95.9462 60.8587 95.0292C60.7441 94.3622 60.3272 94.1851 59.7749 93.9558C58.2013 93.2785 57.1592 93.7474 56.0546 95.0292C53.8975 97.5302 53.8141 97.4469 50.8441 95.8837C49.6144 95.2376 48.4473 94.5081 47.301 93.7161C46.3943 93.0909 46.0713 92.2676 46.4569 91.1943C46.6549 90.6419 46.7278 90.0375 46.9883 89.5165C47.6449 88.1722 47.3947 87.1717 46.2068 86.213C45.5398 85.6711 45.05 85.3793 44.2163 85.7128C43.3827 86.0463 42.4969 86.2339 41.6424 86.5152C40.6419 86.8487 39.8187 86.5777 39.3185 85.692C38.8808 84.9417 38.2972 84.8062 37.5156 84.8062C30.9712 84.827 24.4268 84.8479 17.8825 84.8062C13.5994 84.7749 9.85827 80.9087 9.91038 76.6778C9.93122 75.3335 10.5252 74.7186 11.8799 74.7082C14.3706 74.6874 16.8612 74.677 19.3622 74.7082C20.1125 74.7186 20.4669 74.4581 20.717 73.7599C22.2489 69.456 23.812 65.1626 25.396 60.8795C25.6982 60.0771 25.5523 59.8583 24.6874 59.8687C19.6019 59.9 14.506 59.7332 9.42059 59.9208C4.34556 60.1084 1.01084 57.2218 0 53.1576V6.6486C0.948312 3.14715 3.16799 0.937891 6.66945 0H76.4798ZM41.6007 3.39725C30.7628 3.39725 19.925 3.39725 9.08712 3.39725C7.58649 3.39725 6.19008 3.6682 5.04377 4.72072C3.80367 5.85661 3.41809 7.32597 3.41809 8.94123C3.41809 15.7982 3.41809 22.6553 3.41809 29.5123C3.41809 33.7015 3.43893 37.8908 3.40767 42.08C3.40767 42.8929 3.64735 43.1951 4.47061 43.1534C5.81492 43.1013 7.16965 43.143 8.52438 43.143C9.45533 43.143 9.9208 42.6636 9.9208 41.7049C9.9208 30.7941 9.9208 19.8937 9.9208 8.98291C9.9208 7.06544 10.4002 6.57566 12.3072 6.57566C31.8362 6.57566 51.3652 6.57566 70.8941 6.57566C72.7282 6.57566 73.2284 7.07587 73.2284 8.93081C73.2284 15.2355 73.2388 21.5298 73.2284 27.8345C73.2284 30.2626 73.5515 29.9187 71.0817 30.0125C70.0188 30.0542 69.7374 29.6895 69.7478 28.6578C69.7895 22.8429 69.7582 17.0279 69.7791 11.2026C69.7791 10.4106 69.6436 10.025 68.7057 10.025C50.6357 10.0459 32.5552 10.0459 14.4852 10.025C13.589 10.025 13.3702 10.3481 13.391 11.1817C13.4327 13.7036 13.4327 16.2359 13.391 18.7682C13.3702 19.6332 13.6515 19.9041 14.5165 19.8937C18.9454 19.8624 23.3847 19.8624 27.8137 19.8833C30.3356 19.8937 29.9604 19.5394 30.0438 22.0821C30.075 23.093 29.7416 23.3847 28.7516 23.3743C24.01 23.3326 19.2684 23.3743 14.5165 23.3431C13.6619 23.3431 13.3806 23.6036 13.391 24.4685C13.4223 30.3251 13.4223 36.1713 13.391 42.0279C13.391 42.9658 13.714 43.1847 14.5894 43.1847C24.9792 43.1638 35.3689 43.1638 45.7482 43.1638C46.9154 43.1638 46.9154 43.1638 46.5715 42.0175C46.1234 40.5169 46.2901 39.9854 47.5615 39.0996C48.614 38.3597 49.7082 37.7032 50.8441 37.1092C52.8519 36.0602 54.6269 36.345 56.1692 37.9637C57.7428 39.6207 57.7428 39.6103 59.9625 38.9537C60.4835 38.7974 60.7753 38.5265 60.8795 37.9742C61.0463 37.0884 61.2755 36.2234 61.484 35.3481C61.8695 33.7328 62.3802 33.2951 64.0684 33.243C65.173 33.2013 66.288 33.2118 67.3927 33.2118C71.0296 33.2326 71.1234 33.2326 71.832 36.7757C72.1238 38.2034 72.6344 39.0267 74.1663 39.2768C75.0625 39.4227 75.6148 39.3497 76.2401 38.6619C77.0946 37.7241 77.7928 36.5777 79.0329 36.088C79.5852 35.8691 79.7416 35.5565 79.7416 35.0042C79.7311 26.2088 79.7416 17.4135 79.7207 8.61817C79.7207 7.03418 79.1892 5.62735 77.9179 4.58524C76.8133 3.67862 75.5106 3.42851 74.1246 3.42851C63.2868 3.42851 52.4489 3.42851 41.6111 3.42851L41.6007 3.39725ZM81.6173 87.2864C81.6278 86.4735 81.8883 85.9942 82.326 85.619C83.5035 84.5978 84.6082 83.4931 85.6294 82.3156C86.1713 81.6903 86.8591 81.4506 87.6824 81.7111C88.1409 81.857 88.6098 81.9821 89.0788 82.128C91.6215 82.92 91.6111 82.92 92.7782 80.5127C92.9971 80.0646 92.9658 79.752 92.6011 79.4185C91.882 78.7724 91.1943 78.0846 90.4752 77.4385C89.6936 76.7403 89.4123 75.9483 89.7978 74.9271C90.0792 74.1872 90.3501 73.4264 90.5065 72.6553C91.2776 68.9558 91.0588 69.4665 94.5811 68.5807C96.2693 68.1534 96.4152 67.9346 96.3422 66.1943C96.3005 65.2043 96.0192 64.579 94.9146 64.4539C94.0913 64.3602 93.2993 64.0684 92.4969 63.8808C91.6215 63.6828 91.1109 63.1617 90.9441 62.2864C90.6524 60.7857 90.298 59.3164 89.7561 57.8783C89.4435 57.0342 89.6728 56.3151 90.298 55.7003C90.6732 55.3356 91.0692 55.0021 91.4444 54.6478C93.1951 52.9908 93.1742 53.0117 91.9341 50.9587C91.5694 50.3439 91.1943 50.1459 90.5065 50.3856C89.6311 50.6982 88.7141 50.9066 87.8283 51.2088C86.9216 51.5215 86.1817 51.3026 85.5877 50.594C84.5977 49.4268 83.514 48.3639 82.3572 47.3635C81.6903 46.7903 81.461 46.0713 81.7528 45.2168C81.9091 44.7582 82.0342 44.2893 82.1697 43.8203C82.9095 41.1526 83.316 41.8612 80.742 40.3085C80.1688 39.9646 79.7624 39.9646 79.3143 40.496C78.7307 41.1838 78.0742 41.7987 77.4802 42.476C76.7507 43.3097 75.9171 43.539 74.8749 43.143C74.1663 42.872 73.4369 42.6115 72.697 42.4656C68.8412 41.6736 69.4769 41.8299 68.5598 38.2138C68.1742 36.7028 68.1221 36.6298 66.559 36.6298C66.2464 36.6298 65.9337 36.6715 65.6315 36.682C65.0167 36.7028 64.7145 37.0154 64.5998 37.6198C64.4331 38.5056 64.1726 39.3706 63.985 40.2459C63.7766 41.288 63.193 41.8612 62.1301 42.0592C60.8378 42.2989 59.5456 42.5802 58.3264 43.0805C57.1176 43.5807 56.1797 43.3201 55.3981 42.2989C55.1897 42.0279 54.9396 41.7882 54.6999 41.5381C52.97 39.7249 52.9804 39.7457 50.8337 41.1421C50.3231 41.4756 50.2188 41.8091 50.396 42.3406C50.6982 43.2576 50.9379 44.1955 51.2505 45.1125C51.5527 46.0088 51.3547 46.7591 50.6565 47.3635C49.4998 48.3639 48.4264 49.4373 47.426 50.594C46.8216 51.2922 46.0713 51.511 45.1855 51.188C44.7687 51.0317 44.3205 50.9275 43.8933 50.8024C41.4339 50.0625 41.4548 50.0729 40.2668 52.3968C40.0167 52.8866 40.0584 53.2097 40.4648 53.5744C41.1838 54.2205 41.8716 54.9083 42.5907 55.5544C43.341 56.2318 43.6015 57.0029 43.2472 57.9721C42.9762 58.7224 42.6845 59.4727 42.5281 60.2439C41.757 64.1413 41.7987 63.516 38.2972 64.4123C36.7653 64.7978 36.6715 64.8916 36.682 66.4965C36.682 66.7361 36.7445 66.9758 36.7445 67.2155C36.7445 67.9137 37.0571 68.268 37.7657 68.3931C38.6828 68.5598 39.5894 68.8099 40.496 69.0288C41.3923 69.2372 41.9341 69.7791 42.1113 70.7066C42.3718 72.0613 42.6532 73.4264 43.1742 74.7082C43.6536 75.8858 43.341 76.7924 42.4031 77.5532C42.1321 77.772 41.882 78.0117 41.6319 78.2409C39.8291 79.9291 39.8604 79.9187 41.1421 82.0133C41.5381 82.6594 41.9446 82.7428 42.5907 82.524C43.4764 82.2218 44.3831 81.9925 45.2689 81.7007C46.1338 81.4089 46.8424 81.6278 47.426 82.2843C48.4577 83.4514 49.5519 84.5561 50.7295 85.5878C51.3547 86.1401 51.5736 86.8383 51.313 87.6511C51.1672 88.1096 51.0317 88.5786 50.8962 89.0475C50.1355 91.757 49.6978 91.0379 52.3551 92.6323C52.97 92.9971 53.3451 92.872 53.7724 92.3822C54.3872 91.6736 55.0438 91.0171 55.6795 90.3293C56.336 89.6207 57.0863 89.381 58.0242 89.7249C58.7432 89.9854 59.4623 90.2668 60.2022 90.4127C64.3185 91.2151 63.6515 91.2151 64.4748 94.7582C64.7457 95.915 65.2564 96.3422 66.3506 96.2797C66.6945 96.2589 67.0383 96.2172 67.3822 96.2172C68.0388 96.2172 68.3618 95.8941 68.4869 95.2376C68.664 94.3205 68.935 93.4243 69.133 92.5073C69.331 91.5798 69.8833 91.0692 70.7899 90.8712C71.832 90.6419 72.9366 90.5065 73.8954 90.0688C75.7503 89.2247 77.1572 89.5477 78.2618 91.2568C78.3035 91.3089 78.3556 91.361 78.4077 91.4131C80.0229 93.1221 80.0125 93.0909 82.0133 91.9133C82.7115 91.5069 82.8783 91.0796 82.6073 90.3189C82.2218 89.2455 81.9404 88.1409 81.6694 87.2551L81.6173 87.2864ZM39.7561 46.6132C39.183 46.6132 38.8078 46.6132 38.4327 46.6132C32.0029 46.6132 25.5627 46.6132 19.133 46.6132C14.2559 46.6132 9.37891 46.6236 4.50188 46.6027C3.70988 46.6027 3.36599 46.8008 3.41809 47.6553C3.48062 48.687 3.42851 49.7291 3.42851 50.7712C3.43893 54.4394 5.41892 56.4402 9.06628 56.4402C18.4035 56.4402 27.7511 56.4402 37.0884 56.4402C37.3802 56.4402 37.7032 56.5652 37.9846 56.2943C37.7449 55.8045 37.2968 55.5231 36.9321 55.1584C35.817 54.0538 35.7336 53.6265 36.4006 52.2301C37.3072 50.3231 38.3702 48.4994 39.7666 46.6132H39.7561ZM31.732 74.7186C33.9829 74.7186 36.2338 74.7186 38.4848 74.7186C38.7557 74.7186 39.1413 74.8854 39.2664 74.4373C39.4748 73.687 38.6411 72.301 37.8595 72.103C36.8904 71.8633 35.9108 71.6236 34.9312 71.4048C33.9621 71.1963 33.4098 70.5919 33.316 69.6228C33.118 67.549 33.1388 65.4752 33.3055 63.4014C33.3889 62.3906 33.9516 61.7653 34.9729 61.5465C35.9837 61.3276 36.9946 61.0775 38.0054 60.8274C38.3389 60.7441 38.787 60.7128 38.7557 60.2647C38.7245 59.7541 38.2451 59.9 37.9325 59.9C35.4419 59.8895 32.9512 59.9104 30.4502 59.8791C29.7937 59.8791 29.4498 60.0875 29.2309 60.7128C27.6678 65.0792 26.0838 69.4352 24.479 73.7807C24.1767 74.604 24.479 74.7186 25.2084 74.7082C27.3864 74.677 29.5748 74.7082 31.7528 74.7082L31.732 74.7186ZM36.3381 78.293C36.1505 78.2409 36.0567 78.1992 35.9629 78.1992C28.8454 78.1992 21.7174 78.1993 14.5998 78.1888C13.912 78.1888 13.7974 78.4077 14.1517 78.9808C15.2355 80.7107 16.8612 81.3672 18.8099 81.3672C22.7491 81.3777 26.6882 81.3672 30.6378 81.3672C32.3989 81.3672 34.1601 81.3672 35.9316 81.3672C36.4006 81.3672 36.7445 81.2943 36.4006 80.7316C35.9108 79.9396 35.8483 79.1267 36.3485 78.2826L36.3381 78.293Z" fill="white"/>
<path d="M60.3065 25C55.3252 25 50.344 25 45.3627 25C43.6641 25 41.9759 24.9792 40.2773 25C37.078 25.0522 35.0459 27.0947 35.0043 30.3043C34.973 33.1389 34.973 35.9838 35.0043 38.8183C35.0147 39.652 34.775 39.9959 33.8892 39.9646C31.086 39.8917 31.5445 40.2877 31.5236 37.599C31.4924 35.0042 31.5028 32.4094 31.5236 29.8146C31.5549 25.1668 35.1918 21.5403 39.8604 21.5299C46.3006 21.509 52.7304 21.5299 59.1706 21.5299C59.5457 21.5299 59.9313 21.5299 60.6191 21.5299C59.5353 20.4461 58.6599 19.4873 57.7012 18.6432C56.9717 17.9971 57.0134 17.5699 57.7012 16.9133C59.379 15.3189 59.3477 15.2877 60.9526 16.8925C62.5678 18.5078 64.1935 20.1126 65.7983 21.7383C66.8717 22.8221 66.8717 23.6974 65.7983 24.7812C63.8809 26.7299 61.9217 28.637 60.0147 30.5857C59.5666 31.0442 59.2539 31.1172 58.7433 30.6274C56.8154 28.7933 56.7946 28.8141 58.6704 26.9384C59.2539 26.3548 59.8479 25.792 60.4419 25.2189L60.296 24.9896L60.3065 25Z" fill="white"/>
<path d="M18.2585 16.6968C16.5703 16.6968 16.5703 16.6968 16.5703 14.9148C16.5703 13.0286 16.4348 13.2474 18.4565 13.2266C20.0404 13.2266 20.0404 13.2266 20.0404 15.1128C20.0404 16.1688 19.4465 16.6968 18.2585 16.6968Z" fill="white"/>
<path d="M24.9591 13.2266C26.1123 13.2266 26.6889 13.8067 26.6889 14.9669C26.6889 16.1271 26.0741 16.7037 24.8444 16.6968C23.7606 16.6968 23.2188 16.0819 23.2188 14.8522C23.2188 13.7685 23.7989 13.2266 24.9591 13.2266Z" fill="white"/>
<path d="M31.5553 16.6968C29.8671 16.6968 29.8671 16.6968 29.8671 14.9148C29.8671 13.0286 29.7317 13.2474 31.7533 13.2266C33.3373 13.2266 33.3373 13.2266 33.3373 15.1128C33.3373 16.1688 32.7433 16.6968 31.5553 16.6968Z" fill="white"/>
<path d="M78.2103 66.531C78.2103 73.065 73.0103 78.2129 66.445 78.2025C59.9423 78.1921 54.7839 72.9712 54.8048 66.4059C54.8152 59.9032 60.0361 54.7761 66.6326 54.7969C73.0832 54.8178 78.2312 60.0283 78.2208 66.5414L78.2103 66.531ZM74.7193 66.4893C74.7193 62.05 70.9261 58.2671 66.4971 58.2776C62.0578 58.2776 58.2749 62.0708 58.2854 66.4997C58.2854 70.9287 62.0786 74.7219 66.5075 74.7219C70.9365 74.7219 74.7297 70.9287 74.7193 66.4997V66.4893Z" fill="white"/>
<path d="M70.1863 49.5532C70.3113 49.0217 70.4781 48.2402 70.6657 47.4794C70.749 47.1355 70.9679 46.948 71.3535 47.0522C71.5515 47.1043 71.7599 47.1355 71.9579 47.1876C74.5735 47.8963 74.7507 48.3652 73.3022 50.6995C73.1771 50.9079 73.0521 51.1997 72.7811 51.1268C71.9579 50.9079 71.1346 50.637 70.3218 50.3556C70.1029 50.2827 70.1342 50.0117 70.1863 49.5636V49.5532Z" fill="white"/>
<path d="M86.5146 67.74C86.473 70.1681 86.3583 70.2098 83.9719 69.8034C82.9819 69.6367 82.6797 69.2094 82.8777 68.2924C82.9611 67.9276 83.0028 67.542 83.0236 67.1669C83.0549 66.6771 83.2529 66.4061 83.7739 66.3957C84.1908 66.3957 84.5972 66.3019 85.014 66.2811C86.473 66.2186 86.5459 66.2811 86.5146 67.7296V67.74Z" fill="white"/>
<path d="M78.6482 55.7738C78.0647 55.0443 77.4081 54.367 76.9392 53.575C76.6578 53.0852 77.2727 52.7309 77.554 52.3765C78.9713 50.5946 78.9817 50.5946 80.5865 52.189C81.3091 52.9045 81.2917 53.6062 80.5344 54.294C80.0551 54.7213 79.6174 55.2319 78.6482 55.7738Z" fill="white"/>
<path d="M82.9411 61.9761C82.4826 61.9969 81.5655 60.4129 81.4926 59.4959C81.4613 59.0999 83.4204 57.8806 84.1603 57.8285C84.6293 57.7973 85.5984 59.6001 85.6714 60.663C85.7131 61.2049 84.2229 61.924 82.9411 61.9761Z" fill="white"/>
<path d="M84.5351 75.2739C83.9828 76.3369 83.6389 77.5457 82.7531 78.0146C81.9299 78.4419 81.315 77.2331 80.5647 76.8162C80.2625 76.6495 79.8248 76.4202 80.0854 75.9409C80.4605 75.2426 80.8565 74.5549 81.3046 73.9088C81.6068 73.4607 82.0132 73.8045 82.3155 73.9713C83.0553 74.3881 83.9828 74.5444 84.5456 75.2739H84.5351Z" fill="white"/>
<path d="M62.8488 83.0343C62.8071 83.274 62.7967 83.347 62.7863 83.4199C62.3382 86.1398 61.7025 86.4316 59.1806 85.1602C58.7533 84.9414 58.6179 84.6913 58.8159 84.264C58.8888 84.1077 58.9409 83.941 59.0139 83.7846C59.9309 81.5545 60.2748 81.4191 62.4424 82.4716C62.7863 82.6383 62.8905 82.8676 62.8592 83.0343H62.8488Z" fill="white"/>
<path d="M68.57 86.4114C67.3508 86.6511 67.2882 86.0467 67.257 85.3068C67.1319 82.316 66.7776 83.2226 69.6642 82.7015C70.2999 82.5869 71.144 84.0771 70.8939 85.4839C70.6542 86.8595 69.1536 86.005 68.57 86.4218V86.4114Z" fill="white"/>
<path d="M65.7357 48.2422C65.7669 50.118 65.4751 50.3368 63.2346 50.3055C62.6615 50.3055 61.8591 48.9091 62.0779 47.5336C62.3072 46.0955 63.7974 46.6895 64.7144 46.5436C66.2567 46.3039 65.496 47.669 65.7357 48.2422Z" fill="white"/>
<path d="M53.9919 82.0262C53.5959 81.9949 51.5638 80.0775 51.5743 79.7023C51.5743 79.546 51.6889 79.3793 51.7827 79.2542C51.9077 79.0979 52.0849 78.9728 52.2412 78.8374C53.5126 77.7327 54.6971 77.8092 55.7948 79.0666C55.8886 79.1708 56.0032 79.2646 56.0449 79.3897C56.2012 79.8065 54.4296 82.0575 53.9815 82.0262H53.9919Z" fill="white"/>
<path d="M78.887 82.1157C78.8558 82.1678 78.7932 82.2928 78.6995 82.3866C78.5536 82.5325 78.3764 82.6471 78.2097 82.7722C76.0108 84.4083 75.4585 84.2311 74.5311 81.6155C74.4268 81.3341 74.3539 81.084 74.6457 80.886C75.2709 80.4587 75.9066 80.0315 76.5319 79.6146C76.6153 79.5625 76.7299 79.5312 76.8237 79.5312C77.1363 79.5417 78.8975 81.7092 78.8766 82.1261L78.887 82.1157Z" fill="white"/>
<path d="M56.2213 53.4806C55.8149 53.4389 55.6586 53.1367 55.4814 52.897C53.7515 50.594 53.3243 51.2088 56.0442 49.3539C56.8153 48.8328 57.1905 48.9474 57.6177 49.7811C58.8162 52.0946 58.8474 52.0737 56.5548 53.3034C56.4402 53.3659 56.3151 53.4285 56.2213 53.4702V53.4806Z" fill="white"/>
<path d="M49.9369 71.002C50.3954 70.9082 50.5517 71.0228 50.6664 71.2208C50.7185 71.3146 50.7497 71.4084 50.781 71.5022C51.7397 73.7115 51.4063 74.3784 49.0303 75.0662C48.676 75.1704 48.4259 75.1391 48.2591 74.7848C48.1445 74.5347 47.9986 74.295 47.9256 74.0345C47.7068 73.2946 46.9357 72.4297 47.4567 71.8357C48.0611 71.1375 49.2387 71.2625 49.9369 71.002Z" fill="white"/>
<path d="M52.9917 56.7533C53.0126 57.0034 51.6683 59.2231 51.5015 59.2543C51.0118 59.3377 50.647 59.0146 50.2614 58.8166C48.2502 57.785 48.0522 58.2956 49.4173 56.003C50.2614 54.5857 50.2927 54.5857 51.6266 55.5965C52.106 55.9613 52.7312 56.1905 52.9813 56.7429L52.9917 56.7533Z" fill="white"/>
<path d="M48.1865 66.5461C47.0193 66.6642 46.4566 66.1431 46.4982 64.9829C46.4982 64.8787 46.4983 64.7745 46.5087 64.6703C46.6129 62.9091 46.6962 62.8153 48.374 63.1176C48.9576 63.2218 49.8226 63.055 50.0622 63.6594C50.3749 64.4514 50.0622 65.3581 49.9059 66.2126C49.8434 66.5148 49.5724 66.5356 49.3328 66.5461C48.9576 66.5565 48.572 66.5461 48.1969 66.5461H48.1865Z" fill="white"/>
</g>
</g>
<defs>
<clipPath id="clip0_287_2617">
<rect width="100" height="100" fill="white"/>
</clipPath>
<clipPath id="clip1_287_2617">
<rect width="100" height="100" fill="white"/>
</clipPath>
</defs>
</svg>
