<svg width="231" height="127" viewBox="0 0 231 127" fill="none" xmlns="http://www.w3.org/2000/svg">
<g clip-path="url(#clip0_300_104)">
<path d="M70.9728 40.003C82.2357 39.7978 92.9306 50.219 92.8324 63.0805C92.7373 75.5346 82.2357 86.1045 69.343 85.7833C57.6057 85.4904 47.0238 75.9405 47 62.8322C46.9881 56.5643 49.2752 51.0964 53.723 46.6769C58.1842 42.244 63.6238 39.9792 70.9728 40.003ZM64.2855 57.6691C64.2617 57.7257 64.2186 57.7911 64.2082 57.8595C64.174 58.0885 64.2811 58.2922 64.3301 58.5078C64.4313 58.9614 64.1904 59.1577 63.7457 59.006C63.3888 58.8841 63.0944 58.6536 62.7791 58.4573C62.5472 58.313 62.3107 58.1777 62.0207 58.1926C61.8378 58.203 61.6728 58.2521 61.5955 58.435C61.5122 58.6298 61.5226 58.8216 61.6683 58.9896C61.8022 59.1443 61.9836 59.2261 62.165 59.3079C62.3226 59.3793 62.4951 59.4313 62.6304 59.5324C62.9725 59.7897 62.9145 60.1733 62.5234 60.3503C62.3538 60.4276 62.1888 60.4142 62.0178 60.3577C61.6311 60.2269 61.3114 60.0142 61.0705 59.6767C60.84 59.354 60.5932 59.0402 60.272 58.8023C59.9701 58.5792 59.5701 58.5971 59.3946 58.8172C59.2325 59.0194 59.2667 59.3718 59.4942 59.6306C59.6415 59.7971 59.8199 59.9354 59.9701 60.1005C60.2556 60.4142 60.3077 60.7815 60.1173 61.0403C59.9151 61.3184 59.6073 61.3704 59.1894 61.1295C58.8266 60.9198 58.5024 60.6477 58.1544 60.4113C57.6444 60.0648 57.0882 60.038 56.5201 60.2224C56.2867 60.2982 56.0473 60.4187 56.0517 60.728C56.0562 61.0135 56.2525 61.1726 56.483 61.2827C56.8265 61.4477 57.1968 61.4715 57.573 61.4552C58.0042 61.4358 58.4146 61.5221 58.779 61.7556C59.1656 62.0024 59.3545 62.3861 59.2608 62.682C59.1641 62.9839 58.8444 63.1013 58.3135 63.0181C57.9685 62.963 57.6221 62.9288 57.2785 62.9883C56.9737 63.0419 56.8651 63.2828 57.0362 63.5356C57.173 63.7378 57.3752 63.8954 57.5239 64.0917C57.7931 64.4486 57.7128 64.7371 57.3157 64.9274C57.0317 65.0628 56.7521 65.0494 56.4503 64.9676C55.7052 64.7654 55.1283 64.3059 54.5781 63.8017C54.2301 63.4835 53.894 63.1534 53.494 62.9006C53.2219 62.7281 52.9364 62.5734 52.6107 62.5303C52.0456 62.4545 51.8092 62.6686 51.8568 63.2292C51.9133 63.8939 52.3609 64.2746 52.8932 64.581C53.1178 64.7103 53.3423 64.7148 53.6026 64.6345C54.8294 64.2553 54.8695 64.2835 55.3201 65.4791C55.622 66.2792 56.0443 66.4561 56.7358 65.9907C57.2577 65.6383 57.8183 65.4003 58.4072 65.2085C58.5931 65.1475 58.7983 65.1267 58.9336 64.9616C58.9336 63.83 59.5939 63.1787 60.6735 63.2857C61.191 63.3363 61.6951 63.4805 62.1293 63.7973C62.3717 63.9742 62.623 64.1125 62.9472 63.8999C62.8014 63.427 62.3717 63.2724 62.0475 63.0315C61.6921 62.7668 61.4423 62.4634 61.3352 62.0307C61.1434 61.2559 61.7114 60.6477 62.4996 60.8172C63.432 61.0165 64.0892 61.5905 64.5428 62.4039C64.9963 63.2173 64.8625 63.6278 64.0402 64.0977C63.8126 64.227 63.5242 64.3029 63.5152 64.7059C64.4982 65.0241 65.4231 64.2523 66.3793 64.5096C66.6425 64.8605 66.7347 65.2308 66.763 65.6397C66.8284 66.5513 66.9102 67.4629 67.0128 68.37C67.1853 69.8972 66.8165 71.2117 65.5926 72.2274C65.0618 72.6675 64.4357 72.8817 63.7933 73.072C63.4959 73.1598 63.1509 73.1821 63.0379 73.5523C63.3403 73.8527 63.6753 73.9053 64.0431 73.71C64.6038 73.4111 64.6974 73.42 65.1614 73.8066C65.6417 74.2081 65.6581 74.2081 66.125 73.7516C66.1964 73.6817 66.2603 73.6088 66.3659 73.6014C66.58 73.6698 66.7867 73.7576 67.0039 73.7977C67.2581 73.8453 67.499 73.7962 67.6641 73.5627C67.8321 73.3263 67.789 73.0973 67.6388 72.8742C67.5704 72.7716 67.4976 72.6705 67.4292 72.5664C66.9964 71.9017 67.2834 71.0972 68.0374 70.8578C68.418 70.7374 68.6753 70.8638 68.7675 71.2519C68.8433 71.5671 68.7898 71.8868 68.7586 72.2095C68.714 72.675 68.8939 73.0869 69.2359 73.4066C69.4843 73.6401 69.7415 73.8958 70.1356 73.7486C70.2486 73.3635 70.2605 73.362 70.1891 73.1047C69.8293 71.7946 69.5482 70.4608 68.9742 69.2161C68.7259 68.6763 68.5549 68.1068 68.4314 67.5238C68.3541 67.158 68.4061 66.8264 68.7095 66.584C69.0203 66.3357 69.3579 66.4085 69.6939 66.5409C70.0746 66.6911 70.2337 67.0405 70.4196 67.3558C70.9237 68.2183 71.1676 69.1849 71.4977 70.1173C71.8725 71.1701 72.3141 72.1887 72.9283 73.127C73.1023 73.3932 73.3015 73.5851 73.6539 73.5285C73.9588 73.4795 74.225 73.5746 74.5045 73.71C75.0607 73.9776 75.5306 73.8364 75.9083 73.356C75.5901 73.0378 75.5975 73.0051 74.8986 72.849C74.1714 72.6854 73.6703 72.2794 73.2643 71.6712C72.2859 70.2035 72.0331 68.5618 72.0762 66.8547C72.1267 64.862 73.5008 63.0597 75.3864 62.4456C76.3113 62.1452 76.9567 62.3296 77.5723 63.0657C77.7627 63.2932 77.9441 63.5326 78.1582 63.7348C78.8274 64.3653 79.6453 64.3073 80.2356 63.6055C80.4899 63.3021 80.7323 62.9883 80.997 62.6939C81.2617 62.3995 81.5517 62.1318 81.9472 62.1154C82.5971 62.3742 82.3696 63.2783 83.0268 63.4701C83.3629 63.4077 83.4343 63.1816 83.3793 62.911C83.3302 62.6701 83.2261 62.4426 83.1577 62.2047C83.0923 61.9756 82.9391 61.7481 83.1205 61.4998C83.525 61.3511 83.6291 61.6693 83.7808 61.9191C84.4485 63.0196 85.5043 63.4225 86.7147 63.5326C87.0999 63.5683 87.4508 63.43 87.7631 63.2188C88.0055 63.0552 88.0888 62.7192 87.9505 62.4961C87.7943 62.2448 87.5787 62.2061 87.3125 62.3444C87.1385 62.4351 86.9467 62.4946 86.7578 62.5541C85.4121 62.9824 84.5347 62.4917 84.2016 61.1161C84.1317 60.8291 84.1035 60.5317 84.0469 60.2417C83.9607 59.809 83.7019 59.5235 83.2662 59.4491C82.8751 59.3822 82.7131 59.6856 82.5316 59.9622C82.2595 60.3741 82.1093 60.3964 81.687 60.1213C81.6037 60.0678 81.5353 59.9934 81.4535 59.9369C81.2766 59.8135 81.0833 59.7718 80.9048 59.9176C80.7278 60.0618 80.7145 60.2522 80.8126 60.4544C80.9539 60.7444 81.1085 61.0269 81.2275 61.3258C81.3717 61.6857 81.287 61.9385 80.997 62.1764C80.7308 62.3935 80.4617 62.4039 80.1806 62.2047C79.9992 62.0753 79.8193 61.94 79.6259 61.8329C79.4743 61.7496 79.3003 61.7035 79.1575 61.9043C79.1873 62.2255 79.4921 62.3682 79.6468 62.6106C79.7806 62.8188 79.9442 63.0315 79.7152 63.2768C79.5501 63.4538 79.1977 63.4805 78.9553 63.3422C78.5657 63.1177 78.2668 62.3474 78.3649 61.8225C78.4601 61.3094 78.6921 61.134 79.3791 61.0388C79.5798 61.0106 79.8401 61.1176 79.9412 60.8217C79.8089 60.5615 79.5486 60.5258 79.3181 60.4544C78.9627 60.3458 78.5999 60.2759 78.2222 60.2834C77.8906 60.2893 77.5887 60.1882 77.3314 59.9711C77.0638 59.7466 76.9284 59.47 77.0072 59.1175C77.0742 58.8216 77.2705 58.6298 77.5619 58.5852C77.9099 58.5301 78.1627 58.6833 78.3649 58.9867C78.7159 59.5131 78.7516 59.5042 79.272 59.1205C79.6646 58.832 79.8758 58.832 80.2654 59.1205C80.423 59.238 80.5717 59.3748 80.7457 59.464C80.9435 59.5651 81.1323 59.5369 81.229 59.2856C81.1457 58.8588 80.8587 58.6878 80.4468 58.6342C79.7092 58.5391 79.1055 58.148 78.527 57.7138C78.2757 57.5249 78.1092 57.2795 78.1954 56.9464C78.2683 56.6639 78.5151 56.591 78.7605 56.5316C78.9285 56.4914 79.098 56.4394 79.2676 56.4334C80.1152 56.4022 80.5078 56.6907 80.7754 57.5204C80.829 57.6855 80.8736 57.8758 81.0357 57.9561C81.3955 58.1346 81.6915 58.3933 81.9993 58.6417C82.1748 58.7829 82.3666 58.7874 82.4781 58.5257C82.4216 58.2327 82.1658 58.0959 81.9829 57.9041C81.745 57.6528 81.4625 57.4342 81.2632 57.1576C80.7888 56.4959 81.1011 55.8549 81.9101 55.8088C82.255 55.7895 82.6134 55.7836 82.945 55.8594C83.2588 55.9308 83.5339 55.8549 83.8194 55.7955C84.1362 55.73 84.3473 55.5337 84.4128 55.2066C84.4752 54.8943 84.2983 54.6846 84.0871 54.5017C83.4834 53.9783 82.3487 53.9471 81.7153 54.6043C81.4937 54.8333 81.3212 55.1114 81.1294 55.3687C80.9955 55.5456 80.8825 55.7375 80.6758 55.8505C80.3026 56.0557 79.91 55.8832 79.8282 55.4653C79.7895 55.2661 79.8237 55.0713 79.8996 54.8839C80.0022 54.6311 80.1137 54.3813 80.194 54.1225C80.3204 53.7121 80.0988 53.205 79.7494 53.0504C79.3791 52.8868 79.0252 53.0385 78.7694 53.4831C78.6832 53.6318 78.6103 53.7924 78.5568 53.956C78.4051 54.4274 78.2623 54.9003 78.1255 55.3761C77.8043 56.4959 77.5902 56.5985 76.5715 56.084C76.1819 55.8877 75.8027 55.7746 75.3626 55.9323C75.1351 56.0141 74.8763 56.0304 74.6295 56.0379C73.9662 56.0587 73.4309 56.2728 73.135 56.9167C73.1112 56.9673 73.0101 56.9836 72.9283 57.0223C72.4732 56.7843 72.0048 56.5658 71.5646 56.2996C71.1393 56.0408 71.1602 55.6215 71.5869 55.3568C71.6896 55.2928 71.8115 55.2408 71.9305 55.2259C72.4554 55.162 72.8227 54.869 73.1736 54.4928C73.7372 53.8876 74.0718 53.9798 74.2934 54.7516C74.3068 54.7991 74.3068 54.8497 74.3216 54.8973C74.4451 55.3151 74.6696 55.4534 75.0875 55.3717C75.4354 55.3047 75.5737 55.0787 75.5053 54.6356C75.4354 54.179 75.1901 53.8073 74.8852 53.4727C74.6681 53.2348 74.4376 53.0058 74.2889 52.7158C74.1224 52.3886 74.2666 51.9946 74.5923 51.8429C74.9521 51.6763 75.4206 51.7879 75.6555 52.1195C75.8429 52.3857 75.95 52.6846 75.9767 53.0162C76.0124 53.437 76.1001 53.8534 76.3619 54.1999C76.5031 54.3872 76.6965 54.5002 76.9463 54.3917C77.2065 54.2787 77.3359 54.0779 77.2705 53.7984C77.2258 53.608 77.1381 53.4266 77.0578 53.2481C76.9567 53.0221 76.8139 52.811 76.7411 52.5775C76.6533 52.2935 76.6013 51.9841 76.8541 51.7432C77.0504 51.5559 77.5277 51.5886 77.8326 51.776C78.008 51.8845 78.1077 52.0585 78.243 52.2013C78.3932 52.3589 78.5166 52.5656 78.7635 52.5329C78.9493 52.4883 79.0088 52.3544 79.0832 52.2221C79.4951 51.4845 79.6839 51.4518 80.3918 51.9723C80.5464 52.0853 80.6922 52.2399 80.9583 52.1745C81.0149 52.1031 81.116 52.0184 81.1606 51.9113C81.3465 51.4592 81.7346 51.3209 82.1629 51.2495C82.3324 51.2213 82.5078 51.2228 82.6803 51.2049C83.0372 51.1663 83.2707 50.9863 83.3465 50.6518C83.2573 50.3499 83.0491 50.2398 82.8082 50.1432C82.4722 50.0093 82.1257 50.045 81.7807 50.0346C80.9271 50.0093 80.6446 49.5558 80.9881 48.7602C81.0669 48.5788 81.1755 48.4078 81.2364 48.2204C81.3643 47.8264 81.1531 47.5869 80.7383 47.6613C80.4438 47.7148 80.1732 47.8383 79.9427 48.0375C79.4549 48.4584 79.3984 48.8777 79.7687 49.3997C79.8951 49.5781 80.0899 49.7149 80.1018 49.9632C80.0691 50.1506 79.9531 50.2621 79.7821 50.338C79.2319 50.5804 78.6252 50.4183 78.1999 49.8815C77.953 49.5707 77.7314 49.2376 77.3864 49.0264C77.0667 48.8316 76.7738 48.8673 76.5909 49.1022C76.4124 49.3327 76.4838 49.6287 76.7842 49.8725C77.0221 50.0659 77.3195 50.1134 77.6021 50.2027C77.84 50.277 78.066 50.4109 78.0482 50.7202C78.0318 50.9834 77.727 51.199 77.3939 51.2079C77.153 51.2153 76.9656 51.1083 76.7946 50.9551C76.631 50.8079 76.5106 50.6071 76.2875 50.5313C75.771 50.6949 75.4429 50.6404 75.3031 50.3677C75.3789 50.1134 75.6674 50.0361 75.7715 49.8056C75.8265 49.6822 75.825 49.5588 75.7343 49.4591C75.6496 49.3655 75.5395 49.3089 75.4027 49.3521C75.2079 49.413 75.0592 49.5394 74.915 49.6807C74.7395 49.8517 74.5908 50.0599 74.2874 50.1238C73.9201 50.0435 73.7506 49.7714 73.7283 49.3892C73.7164 49.1677 73.7328 48.9431 73.7342 48.7216C73.7342 48.326 73.6034 47.9557 73.2733 47.755C72.8643 47.5052 72.7067 47.1616 72.6591 46.72C72.6487 46.6233 72.5818 46.5386 72.4524 46.4984C71.7877 46.488 71.5542 47.413 70.8583 47.3282C70.7096 47.233 70.6352 47.123 70.6278 47.001C70.607 46.6605 70.4598 46.4077 70.2189 46.1623C69.853 45.7891 69.9557 45.5214 70.4806 45.404C70.9401 45.3013 71.3877 45.2329 71.8457 45.4857C72.1074 45.63 72.4197 45.4218 72.4673 45.1526C72.5089 44.9236 72.3097 44.7021 72.0212 44.6768C71.7981 44.6575 71.5765 44.6768 71.3609 44.7482C70.8583 44.9117 70.3839 44.8329 69.9319 44.5742C69.7817 44.4879 69.6255 44.4136 69.4694 44.3377C69.0545 44.1355 68.6441 44.2054 68.253 44.3942C67.8426 44.5935 67.8381 45.0158 68.2218 45.2657C68.3957 45.3787 68.6024 45.3697 68.7868 45.4352C69.227 45.5913 69.401 45.9809 69.224 46.3824C69.0619 46.7468 68.6931 46.8598 68.2872 46.6382C68.0716 46.5207 67.8901 46.3438 67.6805 46.2129C67.2314 45.9348 67.0797 45.9913 66.7451 46.5891C67.3831 47.1349 68.0359 47.697 68.8404 48.0063C69.2909 48.1788 69.5824 48.3781 69.5675 48.8866C69.5571 49.2777 69.7608 49.5365 70.085 49.7238C70.1713 49.7729 70.2545 49.8264 70.3349 49.8844C70.8895 50.28 70.9118 50.5358 70.4404 51.0027C70.2873 51.1544 70.0597 51.2495 70.0419 51.5053C70.4687 51.9842 70.7438 52.0124 71.291 51.6154C71.5914 51.3968 71.8621 51.135 72.1758 50.9402C72.552 50.7068 72.8405 50.7677 73.1023 51.0666C73.3551 51.3566 73.3669 51.9232 73.126 52.2444C72.8911 52.5582 72.6264 52.5998 72.213 52.3886C72.0018 52.2801 71.8293 52.054 71.6509 52.1239C71.4487 52.2206 71.3892 52.3098 71.3951 52.4094C71.4055 52.5805 71.4605 52.7485 71.4695 52.9195C71.4992 53.4801 71.1364 53.8668 70.5772 53.8876C70.0642 53.9054 69.8649 53.6705 69.8516 53.0191C69.8471 52.7961 69.8754 52.5671 69.7326 52.3738C69.3623 51.8711 69.2597 51.3061 69.2686 50.6904C69.2776 50.1402 69.172 50.0361 68.6158 50.0346C68.2247 50.0331 67.85 49.9885 67.5868 49.706C66.9236 48.9937 66.2767 48.9521 65.5183 49.5826C65.1673 49.874 64.98 49.7922 64.6112 49.4458C64.4506 49.2956 64.3331 49.0918 64.0535 49.0294C63.9524 49.0829 63.829 49.1632 63.6937 49.2182C63.1613 49.4309 62.9011 49.2673 62.858 48.6874C62.8401 48.4405 62.8654 48.1907 62.8446 47.9438C62.8163 47.6048 62.6765 47.3208 62.3375 47.1839C61.8259 46.9787 61.3203 46.9862 60.8415 47.2732C60.6214 47.404 60.4415 47.5914 60.5218 47.8814C60.5902 48.1342 60.8073 48.21 61.0393 48.2249C61.3129 48.2412 61.585 48.2457 61.8349 48.3766C62.165 48.5505 62.2349 48.8911 61.9999 49.1796C61.7843 49.4428 61.5419 49.4829 61.1285 49.3164C60.7389 49.1602 60.3969 48.9074 59.985 48.787C59.5255 48.6532 59.1507 48.7587 58.831 49.0829C58.5098 49.4101 58.4399 49.8071 58.544 50.2488C58.6392 50.6473 58.8831 50.906 59.2563 51.0399C59.8839 51.2629 60.2512 51.6496 60.214 52.3648C60.1961 52.7188 60.3478 53.0385 60.5887 53.3091C60.6705 53.3998 60.7404 53.5039 60.8014 53.611C60.8802 53.7478 60.8891 53.8905 60.7924 54.0288C60.6928 54.1686 60.5545 54.1984 60.3999 54.1657C60.3032 54.1448 60.208 54.1136 60.1188 54.0705C59.6905 53.8653 59.2608 53.6957 58.7671 53.7641C58.5292 53.7969 58.3388 53.672 58.1856 53.4935C58.0563 53.3433 57.9343 53.1827 57.7886 53.0533C57.4406 52.7455 56.9231 52.6905 56.5514 52.9136C56.3536 53.0325 56.19 53.1916 56.2123 53.4459C56.2317 53.672 56.4071 53.779 56.5945 53.8593C56.6852 53.898 56.7819 53.9262 56.88 53.9411C57.4049 54.0214 57.8659 54.2593 58.321 54.5136C58.5827 54.6594 58.8563 54.7545 59.1567 54.8006C59.4229 54.8408 59.6846 54.933 59.9359 55.0311C60.1575 55.1189 60.3062 55.3003 60.2928 55.5471C60.2779 55.8207 60.1025 55.9977 59.8482 56.0869C59.6073 56.1702 59.35 56.1761 59.1165 56.0914C58.7299 55.9531 58.3403 55.962 57.9433 55.9754C57.2429 55.9977 57.0912 55.8802 56.88 55.2096C56.8354 55.0683 56.7967 54.9241 56.7462 54.7843C56.6302 54.4675 56.367 54.3382 56.0621 54.2846C55.8123 54.2415 54.6822 54.9122 54.5825 55.1545C54.5245 55.2958 54.5245 55.4445 54.5572 55.5932C54.6197 55.8758 54.8487 55.9977 55.0851 56.0646C55.5684 56.2014 56.0041 56.423 56.4235 56.6907C56.8845 56.9851 57.3633 57.0639 57.9105 56.9122C58.4682 56.7576 59.0333 56.7962 59.5775 57.055C59.8883 57.2037 60.2199 57.3346 60.556 57.3985C60.9501 57.4743 61.3754 57.5918 61.7278 57.3152C61.7575 57.0401 61.4958 56.878 61.5969 56.6386C62.0936 56.533 62.0966 56.5256 62.3613 56.6758C62.5115 56.7606 62.6438 56.878 62.7925 56.9658C63.3903 57.3212 63.7204 57.232 64.1398 56.6014C64.0803 56.423 64.0104 56.2371 63.9584 56.0468C63.8141 55.5189 63.9271 55.3404 64.4759 55.2066C65.4529 54.9672 65.9808 55.159 66.586 55.9799C66.7332 56.1806 66.873 56.3873 67.16 56.3888C67.4173 56.3055 67.395 55.9382 67.6864 55.8891C68.598 56.0185 68.7229 55.965 68.9504 55.3479C68.8106 55.0757 68.4731 55.1099 68.2783 54.9166C68.0998 54.7397 67.908 54.5701 67.9704 54.2846C68.0359 53.9798 68.2604 53.8266 68.5415 53.7671C68.8954 53.6913 69.2151 53.7493 69.5021 54.014C70.604 55.0252 70.6293 55.0698 70.485 56.5479C70.4806 56.597 70.4821 56.6475 70.4746 56.6966C70.4062 57.1056 70.201 57.232 69.7906 57.1026C69.6047 57.0446 69.4263 56.9583 69.1854 56.8602C68.7333 57.3613 68.1415 57.5472 67.4723 57.5085C67.4262 57.5056 67.3697 57.5279 67.334 57.5576C66.8388 57.9844 66.1339 57.9874 65.6328 58.4082C65.3889 58.6134 65.1688 58.5183 65.0023 58.2833C64.9027 58.142 64.8283 57.9829 64.7331 57.8387C64.6305 57.684 64.4997 57.5799 64.284 57.6736L64.2855 57.6691ZM67.16 78.5087C66.9697 78.6648 66.7838 78.7897 66.6321 78.9459C66.1042 79.4931 66.1964 80.3363 66.818 80.7467C67.4485 81.1631 68.5236 81.1259 69.1289 80.6694C69.8932 80.0909 69.8977 79.0515 69.1407 78.4492C68.9906 78.3302 68.7809 78.2708 68.7288 78.0522C68.8775 77.9213 69.0456 77.8068 69.1705 77.6581C69.6211 77.1213 69.4887 76.4268 68.8835 76.0878C68.2961 75.7576 67.3563 75.8721 66.8715 76.3331C66.351 76.8283 66.299 77.5034 66.7466 78.0641C66.867 78.2157 67.0098 78.3496 67.16 78.5102V78.5087ZM71.178 78.3793C71.0665 78.6485 70.9222 78.705 70.8062 78.7912C70.3824 79.102 70.2322 79.5303 70.3274 80.0299C70.4196 80.5162 70.7735 80.7749 71.2196 80.9281C71.816 81.1318 72.384 81.0709 72.9327 80.769C73.8606 80.2575 73.9692 79.1883 73.1751 78.4953C73.019 78.36 72.7498 78.3258 72.729 78.0284C72.8569 77.9258 73.0056 77.8321 73.1231 77.7101C73.6807 77.1272 73.5038 76.3406 72.7513 76.0402C72.1297 75.7933 71.5379 75.8558 70.9936 76.2424C70.3512 76.6989 70.262 77.5228 70.7929 78.1087C70.9059 78.2336 71.0754 78.3079 71.181 78.3808L71.178 78.3793ZM75.6496 77.8455C75.6689 77.4291 75.95 77.1168 76.2102 76.8001C76.4615 76.4937 76.9359 76.4253 77.1336 75.9926C75.7834 76.1324 74.4733 77.3696 74.338 78.5979C74.28 79.1228 74.332 79.6344 74.5819 80.1132C75.0726 81.056 76.2667 81.34 77.1188 80.714C77.6898 80.2946 77.9218 79.4827 77.6734 78.7749C77.4697 78.1949 76.8466 77.8365 76.118 77.8722C75.9782 77.8782 75.8429 78.0135 75.6481 77.8469L75.6496 77.8455ZM64.3524 47.1096C64.3197 47.2315 64.2915 47.3222 64.2707 47.4159C64.171 47.8665 64.2573 48.0568 64.687 48.0687C65.3993 48.0896 66.0878 48.21 66.7421 48.4524C67.0113 48.1089 66.8061 47.9141 66.6187 47.7133C65.8945 46.9356 65.0647 46.2724 64.2498 45.5958C63.9822 45.3742 63.6461 45.2671 63.307 45.1854C62.9873 45.1065 62.7107 45.2062 62.5055 45.4426C62.281 45.7014 62.226 46.0107 62.3613 46.3408C62.5204 46.7319 62.8133 46.8925 63.2312 46.8955C63.5881 46.8984 63.9718 46.775 64.351 47.1081L64.3524 47.1096ZM63.7145 77.1941C63.8736 78.0477 63.832 79.9511 63.6431 80.4493C63.4275 80.5831 63.142 80.4329 62.9442 80.6292C62.916 80.766 62.9278 80.9088 63.087 80.9103C63.9019 80.9207 64.7168 80.9237 65.5302 80.9043C65.6729 80.9013 65.6789 80.7393 65.6283 80.6039C65.4157 80.43 65.0781 80.6114 64.8521 80.3095C64.7376 79.8768 64.8164 79.3816 64.803 78.8923C64.7896 78.3986 64.8149 77.9035 64.7956 77.4098C64.7777 76.9279 64.8818 76.4357 64.7138 75.9599C64.3881 76.0327 63.1955 76.6082 62.9264 76.8209C63.1435 77.0097 63.4721 76.9161 63.713 77.1926L63.7145 77.1941ZM74.3662 44.2262C73.9469 44.2173 73.5647 44.3362 73.3536 44.711C73.1885 45.0024 73.2034 45.3534 73.4354 45.6136C74.0287 46.2798 74.5001 47.0248 74.9328 47.7996C75.0518 48.0108 75.2421 48.1208 75.4905 48.0598C75.7254 48.0033 75.8741 47.8383 75.9321 47.6092C76.0065 47.3133 75.9901 47.0204 75.8176 46.7557C75.538 46.3274 75.4563 45.8605 75.4711 45.3504C75.4949 44.5474 75.1559 44.2247 74.3662 44.2247V44.2262ZM85.2485 64.581C85.012 64.5393 84.8544 64.3683 84.6581 64.2657C84.1377 63.9921 83.5012 64.0992 83.1071 64.5245C82.6685 65.0003 82.7577 65.4583 83.3629 65.668C83.8878 65.8494 84.4425 65.8896 84.9407 65.5936C85.4269 65.3037 85.8835 64.9631 86.3385 64.6241C86.4872 64.5126 86.6374 64.3579 86.5452 64.0902C86.2864 63.9579 86.0916 64.1348 85.9013 64.2731C85.6991 64.4189 85.4998 64.5601 85.2485 64.581ZM79.3598 46.9074C78.8408 45.7207 77.5813 45.2106 76.7113 45.8516C77.0206 46.5163 77.5917 46.8538 78.2549 47.0739C78.6281 47.1988 79.0133 47.3163 79.3598 46.9074ZM53.6784 61.5964C53.8791 61.9756 54.1795 62.2284 54.4903 62.4649C54.6851 62.6136 54.9037 62.737 55.1506 62.7816C55.4792 62.8411 55.7603 62.6775 55.851 62.3846C55.9461 62.0827 55.8168 61.8983 55.4197 61.7645C55.0703 61.6455 54.7223 61.5251 54.3743 61.4031C54.1319 61.3199 53.8955 61.2589 53.6784 61.5935V61.5964ZM55.4956 58.2699C55.3484 58.1747 55.1669 58.1539 55.0792 58.2699C54.6747 58.8008 54.0873 59.1949 53.7765 59.8298C54.4948 60.0841 54.7119 60.0841 55.2324 59.8536C55.2606 59.5949 55.2859 59.3302 55.4376 59.0923C55.6026 58.8335 55.677 58.5539 55.4956 58.2714V58.2699ZM85.9757 60.389C86.5273 60.1064 86.627 59.9369 86.3757 59.6588C86.0292 59.2766 85.586 59.0789 85.0581 59.119C84.8975 59.1309 84.7741 59.2097 84.7429 59.3763C84.7102 59.5488 84.8083 59.6841 84.9585 59.7153C85.3927 59.8075 85.6604 60.1466 85.9757 60.389ZM57.109 59.1532C57.854 59.5666 58.4028 59.4343 58.6912 58.7458C58.2927 58.6982 58.089 58.2952 57.6667 58.1941C57.402 58.4841 57.3737 58.8885 57.109 59.1532ZM84.2878 57.8074C84.4336 57.6558 84.4618 57.4758 84.3592 57.3301C84.2016 57.1085 83.9681 56.9568 83.7079 56.8765C83.4462 56.7962 83.1845 56.9479 83.1265 57.1844C83.061 57.455 83.2127 57.623 83.4387 57.6855C83.7124 57.7599 83.9875 57.8981 84.2878 57.806V57.8074Z" fill="white"/>
<path d="M64.0547 52.7531C64.3283 52.185 64.7402 52.2237 65.1343 52.2623C65.3811 52.2861 65.622 52.3322 65.86 52.2266C66.028 52.1508 66.1604 52.0527 66.1053 51.788C65.8778 51.5857 65.5655 51.5456 65.2458 51.5247C65.0495 51.5129 64.8503 51.5247 64.6629 51.4415C64.3997 51.324 64.1796 51.1723 64.2242 50.8377C64.2614 50.5582 64.5469 50.3366 64.8592 50.3143C65.0674 50.2994 65.2488 50.3797 65.4257 50.4615C65.857 50.6593 66.2942 50.7842 66.779 50.7872C67.6043 50.7931 68.1768 51.1991 68.4608 51.9857C68.6779 52.585 68.4712 52.875 67.8258 52.872C67.6534 52.872 67.4809 52.8453 67.3084 52.8393C66.6645 52.8185 66.5113 52.9553 66.4771 53.5799C66.4682 53.7524 66.486 53.9293 66.4563 54.0973C66.3938 54.4483 66.1187 54.5821 65.796 54.4364C65.7514 54.4156 65.7068 54.3903 65.6711 54.3576C65.1343 53.8267 64.5989 53.2943 64.0547 52.7545V52.7531Z" fill="white"/>
<path d="M62.6711 50.8187C62.5997 51.0135 62.5328 51.1964 62.4733 51.3585C62.5254 51.5131 62.622 51.5979 62.747 51.6083C63.1157 51.638 63.3343 51.8269 63.425 52.1808C63.5232 52.5689 63.4369 52.9199 63.1931 53.2217C62.86 53.6336 62.2354 53.6143 61.828 53.186C61.5856 52.9318 61.4265 52.6195 61.3833 52.2685C61.312 51.7049 61.0517 51.3005 60.4985 51.1116C60.4063 51.0804 60.3186 51.0298 60.2398 50.9718C59.9349 50.7517 59.8279 50.4781 59.9349 50.2149C60.042 49.9547 60.445 49.6751 60.7186 49.7807C61.3521 50.0261 62.0228 50.2045 62.5804 50.6209C62.6146 50.6462 62.6235 50.7071 62.6741 50.8157L62.6711 50.8187Z" fill="white"/>
<path d="M67.1779 62.6259C67.1347 62.8385 67.1065 63.0081 67.0663 63.1746C66.9459 63.6683 66.7035 63.7769 66.2678 63.5449C66.0864 63.4467 65.9644 63.2951 65.8633 63.124C65.4603 62.4459 65.0499 61.7723 64.5829 61.1359C64.4536 60.9604 64.3093 60.7581 64.4684 60.5291C64.6305 60.2942 64.8595 60.2823 65.1257 60.3447C65.557 60.4444 65.9971 60.5083 66.4314 60.5916C66.696 60.6422 66.8433 60.7909 66.9355 61.0615C67.1154 61.5879 66.989 62.1471 67.1764 62.6259H67.1779Z" fill="white"/>
<path d="M71.2806 60.5888C71.0724 60.7821 70.9118 60.9308 70.7646 61.0676C70.3809 61.0958 70.2307 60.8624 70.2233 60.5769C70.2143 60.2556 70.3006 59.9255 70.6069 59.7426C70.772 59.6445 70.9698 59.5761 71.1601 59.5538C71.5021 59.5121 71.8427 59.4868 72.1787 59.3932C72.4613 59.3158 72.7126 59.4125 72.8896 59.6653C73.0457 59.8869 72.9758 60.0921 72.8375 60.2794C72.5163 60.7092 72.5312 61.2029 72.5431 61.6981C72.552 62.0461 72.552 62.3911 72.3602 62.7004C72.2486 62.8818 72.0925 62.9888 71.8665 62.9472C71.6657 62.91 71.5914 62.7509 71.5423 62.5829C71.456 62.2885 71.5289 62 71.5809 61.707C71.6508 61.3189 71.7088 60.9219 71.2791 60.5902L71.2806 60.5888Z" fill="white"/>
<path d="M70.3316 48.3039C70.6439 48.1433 70.9205 47.9797 71.2134 47.8548C71.6313 47.6779 71.9956 47.7403 72.2127 48.0645C72.5399 48.5508 72.8209 49.0668 73.1094 49.5501C72.6782 50.1954 71.9882 50.3992 71.4484 50.02C70.9383 49.6616 70.6082 49.1307 70.3078 48.5909C70.2781 48.5389 70.3167 48.4481 70.3316 48.3039Z" fill="white"/>
<path d="M70.3294 62.5283C70.3294 62.6101 70.3443 62.7841 70.3265 62.9551C70.2744 63.4845 70.0647 63.7016 69.6112 63.7135C69.1279 63.7283 68.716 63.4205 68.6535 62.9774C68.6119 62.6815 68.6431 62.387 68.7978 62.1208C69.0372 61.7089 69.1948 61.2807 69.1234 60.7884C69.0937 60.5847 69.1398 60.3691 69.3614 60.3007C69.6216 60.2189 69.7644 60.4092 69.8818 60.6085C70.2105 61.1751 70.3934 61.7773 70.3294 62.5283Z" fill="white"/>
<path d="M73.8454 59.211C74.5473 59.2036 74.9607 59.6423 75.1585 60.4557C75.27 60.9137 74.757 61.4966 74.302 61.6989C74.0462 61.8119 73.8633 61.7123 73.7518 61.4922C73.6759 61.342 73.6194 61.165 73.6135 60.9985C73.6001 60.6222 73.5034 60.2817 73.3592 59.9337C73.1659 59.4698 73.3592 59.217 73.8454 59.211Z" fill="white"/>
<path d="M69.5358 64.3653C69.1908 64.6999 69.0406 65.0627 68.8503 65.4033C68.416 66.178 67.8287 66.2241 67.3127 65.5148C67.0703 65.1817 66.8487 64.8218 66.8948 64.3846C67.1402 64.0768 67.4703 64.1155 67.7855 64.1095C68.0844 64.1036 68.3417 64.288 68.6465 64.279C68.9112 64.2701 69.1849 64.2225 69.5343 64.3668L69.5358 64.3653Z" fill="white"/>
<path d="M75.7226 56.5507C76.0364 56.5195 76.1732 56.6831 76.2818 56.8927C76.4691 57.2541 76.4929 57.6571 76.5063 58.0437C76.5167 58.3471 76.3323 58.5939 75.9799 58.6683C75.5501 58.7605 75.1055 58.6415 74.9166 58.3486C74.7233 58.0482 74.6936 57.6868 74.927 57.4548C75.2215 57.1634 75.4936 56.8556 75.7226 56.5507Z" fill="white"/>
<path d="M69.2307 58.8631C68.685 59.385 67.7363 59.5174 67.1682 59.1754C66.9035 59.0163 66.7979 58.7471 66.9139 58.4839C67.0359 58.2058 67.2753 58.1315 67.5266 58.2489C67.94 58.4408 68.3638 58.5181 68.8144 58.5255C68.9898 58.5285 69.1341 58.643 69.2307 58.8631Z" fill="white"/>
<path d="M68.2243 62.3846C67.9061 61.937 67.7708 61.4671 67.6339 61.0032C67.5789 60.8202 67.5983 60.6121 67.7395 60.444C67.9269 60.2239 68.2823 60.1972 68.4518 60.4217C68.724 60.7801 68.6719 61.2173 68.6838 61.6307C68.6927 61.9355 68.6228 62.2151 68.2243 62.3831V62.3846Z" fill="white"/>
<path d="M77.5891 60.9073C77.5727 61.0664 77.5029 61.2791 77.3779 61.459C77.2486 61.6478 77.0538 61.7728 76.8129 61.7192C76.5898 61.6687 76.4203 61.5408 76.337 61.3073C76.1838 60.8731 76.511 60.3169 76.9705 60.2515C77.3839 60.192 77.6233 60.4181 77.5891 60.9073Z" fill="white"/>
<path d="M67.5879 78.7344C67.9404 78.8459 68.2467 78.9991 68.5099 79.2206C68.843 79.5017 68.9233 79.8571 68.7553 80.2051C68.6036 80.5188 68.1991 80.7003 67.8184 80.6274C67.3916 80.5441 67.173 80.3151 67.1552 79.8779C67.1388 79.4645 67.0957 79.0288 67.5864 78.7344H67.5879Z" fill="white"/>
<path d="M68.2686 77.835C67.9311 77.8067 67.7244 77.6164 67.5206 77.4484C67.2559 77.2327 67.2515 76.9205 67.3586 76.6305C67.4731 76.3227 67.7615 76.3063 68.0441 76.3137C68.3698 76.3212 68.5274 76.5234 68.6107 76.8074C68.7103 77.1435 68.6508 77.3264 68.2686 77.835Z" fill="white"/>
<path d="M71.5823 78.7344C71.908 78.7775 72.1608 78.9872 72.424 79.1597C72.7928 79.4035 72.9073 79.692 72.8181 80.0341C72.7333 80.3597 72.4151 80.6095 72.0552 80.6333C71.6716 80.6586 71.3132 80.446 71.1645 80.1039C70.9667 79.6504 71.0991 79.2073 71.5823 78.7344Z" fill="white"/>
<path d="M72.2768 77.8417C71.9228 77.7703 71.6686 77.6291 71.4738 77.3986C71.2611 77.1458 71.2552 76.8454 71.3979 76.5688C71.5451 76.2833 71.8381 76.2892 72.1132 76.3175C72.4433 76.3502 72.5534 76.5881 72.6054 76.8736C72.6723 77.2395 72.5682 77.5458 72.2753 77.8417H72.2768Z" fill="white"/>
<path d="M75.5237 78.506C76.1765 78.2116 76.3951 78.286 76.581 78.8347C76.7356 79.2912 76.7639 79.7552 76.6018 80.2176C76.514 80.469 76.3698 80.6593 76.0694 80.6459C75.8077 80.634 75.6753 80.4556 75.601 80.2325C75.4166 79.6778 75.4701 79.1113 75.5222 78.506H75.5237Z" fill="white"/>
<path d="M135.226 55.3678C135.11 55.0704 135.126 54.828 135.181 54.5886C135.334 54.3968 135.545 54.4503 135.736 54.4503C138.188 54.4473 140.642 54.4161 143.092 54.4637C144.298 54.4875 145.518 54.5826 146.658 55.0481C147.858 55.5373 148.828 56.2928 149.095 57.6371C149.552 59.9241 148.602 61.5376 146.585 62.5488C146.389 62.6469 146.151 62.6603 145.959 62.867C147.033 63.0559 147.985 63.4767 148.838 64.1146C149.939 64.9385 150.565 66.0612 150.566 67.4129C150.569 69.1602 149.866 70.5714 148.233 71.4176C147.116 71.996 145.926 72.3157 144.692 72.4436C141.581 72.7678 138.46 72.5745 135.343 72.5849C135.319 72.5849 135.296 72.573 135.252 72.5611C135.071 72.3291 135.142 72.0644 135.186 71.7611C135.55 71.6198 135.935 71.5796 136.326 71.5514C137.206 71.4889 137.4 71.3016 137.479 70.4316C137.496 70.2353 137.486 70.0361 137.486 69.8368C137.486 65.6255 137.486 61.4142 137.486 57.2028C137.486 57.0051 137.496 56.8058 137.477 56.608C137.401 55.8422 137.117 55.5686 136.347 55.5031C135.983 55.4719 135.605 55.5358 135.224 55.3678H135.226ZM140.332 63.8247C140.163 64.0433 140.186 64.1964 140.186 64.3407C140.183 65.2314 140.182 66.1222 140.186 67.0129C140.189 67.8784 140.186 68.7453 140.209 69.6108C140.237 70.7216 140.677 71.2227 141.769 71.419C143.095 71.657 144.378 71.4681 145.608 70.9521C146.612 70.5298 147.226 69.7461 147.445 68.6844C147.549 68.1758 147.509 67.6494 147.491 67.1289C147.47 66.5415 147.257 66.027 146.924 65.5497C146.285 64.6381 145.342 64.2291 144.309 64.0046C142.993 63.7176 141.653 63.8395 140.335 63.8247H140.332ZM140.21 62.577C140.378 62.6068 140.472 62.6365 140.567 62.6395C141.534 62.6752 142.5 62.6246 143.446 62.4298C144.323 62.2484 145.153 61.9317 145.76 61.206C147.344 59.313 146.575 56.6467 144.231 55.9195C144.09 55.8749 143.947 55.8377 143.803 55.8005C142.781 55.5344 141.736 55.6548 140.701 55.631C140.533 55.6266 140.349 55.5998 140.209 55.7961V62.58L140.21 62.577Z" fill="white"/>
<path d="M124.446 54.3557C124.812 55.1855 125.184 56.0198 125.545 56.857C127.466 61.3077 129.385 65.7599 131.309 70.2092C131.426 70.4798 131.585 70.7341 131.736 70.9884C131.938 71.3319 132.241 71.5252 132.641 71.5505C132.962 71.5713 133.279 71.607 133.594 71.7587C133.687 72.013 133.676 72.2717 133.591 72.5706H126.052C125.896 72.4308 125.924 72.2747 125.923 72.1305C125.921 72.0085 125.909 71.8821 126.009 71.7513C126.299 71.5892 126.644 71.5817 126.987 71.549C127.902 71.4613 128.272 70.9497 128.022 70.0902C127.655 68.8307 127.053 67.6648 126.568 66.4291H119.566C119.351 66.5971 119.305 66.8485 119.215 67.076C118.865 67.9474 118.511 68.8188 118.163 69.6917C118.044 69.9906 117.925 70.291 117.9 70.6152C117.853 71.1936 118.034 71.4434 118.612 71.5342C118.953 71.5877 119.298 71.5996 119.64 71.7602C119.716 72.016 119.711 72.2747 119.631 72.5736H114.145C113.998 72.2911 114.019 72.0323 114.102 71.7825C114.281 71.6397 114.483 71.5936 114.673 71.5847C115.469 71.549 115.934 71.0524 116.276 70.4233C116.56 69.9043 116.791 69.3541 117.018 68.8069C118.91 64.264 120.794 59.7166 122.684 55.1721C122.797 54.9015 122.882 54.6115 123.106 54.3587C123.524 54.268 123.961 54.2859 124.443 54.3557H124.446ZM122.904 58.005C121.912 60.4601 120.978 62.771 120.038 65.0937C120.902 65.2291 125.453 65.2038 126.027 65.058C125.004 62.7457 123.982 60.4422 122.903 58.005H122.904Z" fill="white"/>
<path d="M173.109 55.1281C173.225 54.8917 173.321 54.6954 173.424 54.4857C173.727 54.4247 174.013 54.4009 174.38 54.5303C174.343 56.346 174.6 58.1557 174.559 59.9491C174.282 60.1424 174.038 60.0919 173.762 60.0458C173.522 59.7112 173.466 59.2859 173.327 58.8963C173.034 58.074 172.66 57.3081 172.071 56.6434C170.764 55.1683 168.399 54.8485 166.802 55.5266C165.65 56.0159 165.033 56.9497 164.92 58.1691C164.783 59.6517 165.144 60.6094 166.658 61.3663C167.752 61.915 168.958 62.1143 170.109 62.4846C171.24 62.8489 172.35 63.2415 173.321 63.9746C175.576 65.6787 175.473 69.1004 173.779 70.9221C172.759 72.018 171.486 72.6262 170.041 72.9013C167.971 73.2954 166.005 73.0203 164.167 71.9556C164.02 71.8708 163.862 71.8039 163.74 71.7429C163.513 71.8173 163.556 72.0032 163.493 72.1266C163.428 72.256 163.388 72.3987 163.328 72.5578C163.032 72.6262 162.748 72.6441 162.395 72.5251V67.1613C162.597 66.9858 162.863 67.0587 163.177 67.1093C163.358 67.6015 163.535 68.1115 163.731 68.6157C164.225 69.8886 165.009 70.9236 166.307 71.4455C167.824 72.0567 169.372 72.0656 170.835 71.3072C172.606 70.3882 172.808 68.5934 172.227 67.0914C171.999 66.5011 171.479 66.1159 170.924 65.8126C170.114 65.3679 169.225 65.1374 168.347 64.8787C167.422 64.6066 166.491 64.3538 165.592 63.9984C164.792 63.6816 164.117 63.1998 163.543 62.5634C162.922 61.8763 162.588 61.0585 162.509 60.1484C162.221 56.8204 164.192 54.6984 167.107 54.1496C168.999 53.7942 170.796 54.0827 172.523 54.9006C172.698 54.9839 172.859 55.1103 173.11 55.1266L173.109 55.1281Z" fill="white"/>
<path d="M113.25 54.4614C113.415 55.1499 113.606 59.4624 113.505 60.026C113.423 60.0423 113.331 60.0765 113.237 60.0795C113.091 60.084 112.944 60.0661 112.769 60.0572C112.473 59.559 112.366 58.9969 112.175 58.4675C111.784 57.382 111.146 56.4853 110.153 55.8875C108.847 55.0994 107.439 54.9745 106.007 55.4459C104.912 55.8057 104.212 56.6177 104.002 57.7434C103.707 59.333 103.977 60.4914 105.614 61.339C106.526 61.8119 107.521 62.0261 108.492 62.3116C109.513 62.6134 110.537 62.9094 111.479 63.4194C113.948 64.7563 114.552 67.1713 113.701 69.4316C113.097 71.0376 111.83 72.0413 110.239 72.5797C107.826 73.3961 105.466 73.2444 103.214 71.9804C103.045 71.8852 102.886 71.7588 102.646 71.7529C102.554 71.9982 102.46 72.2495 102.362 72.5157C102.089 72.6793 101.799 72.5901 101.546 72.5841C101.327 72.3655 101.39 72.1306 101.387 71.915C101.372 70.7759 101.342 69.6353 101.363 68.4962C101.372 68.0546 101.147 67.6233 101.303 67.1861C101.723 67.0463 101.723 67.0374 102.194 67.1326C102.405 67.6902 102.605 68.2732 102.841 68.8412C103.647 70.7759 105.107 71.7722 107.203 71.8421C107.927 71.8674 108.635 71.799 109.32 71.5476C110.992 70.9335 111.79 69.5059 111.436 67.6278C111.311 66.9601 110.896 66.4709 110.355 66.0827C109.763 65.6589 109.094 65.4002 108.406 65.1875C107.249 64.8291 106.08 64.502 104.93 64.1228C103.767 63.7391 102.825 63.0432 102.145 62.0067C101.739 61.3881 101.55 60.7115 101.518 59.9784C101.466 58.7694 101.602 57.608 102.294 56.5656C103.213 55.1767 104.536 54.4406 106.139 54.1447C108.138 53.7774 110.025 54.1209 111.82 55.0444C111.885 55.0771 111.957 55.0979 112.018 55.1217C112.168 55.083 112.201 54.9611 112.251 54.8481C112.302 54.735 112.363 54.6265 112.416 54.5194C112.682 54.3737 112.947 54.448 113.249 54.4614H113.25Z" fill="white"/>
<path d="M152.483 55.322C152.383 55.0588 152.376 54.8 152.499 54.4922H159.912C160.031 54.7613 159.999 55.0231 159.964 55.258C159.804 55.4722 159.601 55.4662 159.405 55.4736C159.108 55.4855 158.809 55.4781 158.514 55.5123C157.933 55.5792 157.716 55.8008 157.563 56.3793C157.491 56.6484 157.484 56.9161 157.484 57.1882C157.484 61.4471 157.484 65.7075 157.484 69.9664C157.484 70.1642 157.479 70.365 157.514 70.5583C157.628 71.226 157.92 71.4922 158.61 71.5427C159.051 71.5754 159.491 71.6007 159.918 71.7375C160.036 71.9873 159.996 72.2297 159.96 72.4721C159.463 72.6342 153.423 72.6803 152.493 72.5286C152.368 72.2788 152.383 72.0215 152.486 71.742C152.887 71.6007 153.304 71.5769 153.72 71.5427C154.422 71.4832 154.676 71.2275 154.755 70.5211C154.777 70.3248 154.77 70.1256 154.77 69.9278C154.77 65.6689 154.772 61.4085 154.77 57.1495C154.77 55.7993 154.532 55.5554 153.192 55.484C152.975 55.4722 152.742 55.5168 152.483 55.322Z" fill="white"/>
<path d="M179.686 54.4401C181.24 54.3672 182.507 55.8394 182.458 57.2967C182.406 58.8314 181.183 60.0582 179.635 60.0299C178.029 60.0017 176.847 58.8239 176.804 57.2863C176.759 55.7175 178.081 54.4341 179.686 54.4401ZM182.001 57.2729C182.119 55.9301 180.971 54.8431 179.687 54.7925C178.428 54.7435 177.242 55.9182 177.251 57.1941C177.26 58.5875 178.333 59.6403 179.601 59.6611C181.036 59.6864 182.122 58.3496 182 57.2729H182.001Z" fill="white"/>
<path d="M180.432 58.5969C180.017 58.2638 179.963 57.6214 179.36 57.4965C179.224 57.9039 179.287 58.2445 179.587 58.5701C179.159 58.6653 178.778 58.6385 178.371 58.5969C178.961 57.8831 178.588 57.0741 178.702 56.3306C178.747 56.0406 178.512 55.9782 178.27 55.7641C179.076 55.5782 179.786 55.5559 180.457 55.9217C180.848 56.1358 180.903 56.5834 180.631 56.9388C180.528 57.0727 180.377 57.1708 180.219 57.3106C180.499 57.7686 180.705 58.2296 181.264 58.5166C180.911 58.6757 180.658 58.6266 180.433 58.5954L180.432 58.5969ZM179.333 57.0622C179.941 57.0533 180.16 56.9106 180.177 56.5477C180.195 56.1953 179.997 56.06 179.388 56.0213C179.233 56.341 179.299 56.6741 179.334 57.0622H179.333Z" fill="white"/>
</g>
<defs>
<clipPath id="clip0_300_104">
<rect width="231" height="127" fill="white"/>
</clipPath>
</defs>
</svg>
