<svg width="231" height="127" viewBox="0 0 231 127" fill="none" xmlns="http://www.w3.org/2000/svg">
<g clip-path="url(#clip0_632_2606)">
<g clip-path="url(#clip1_632_2606)">
<path d="M61.9652 59.4218C61.9652 62.1209 63.7583 63.4444 66.1056 64.3365C67.347 64.8171 68.5206 65.1822 68.5206 66.8052C68.5206 67.7173 67.8072 68.5399 66.8187 68.5399C65.5987 68.5399 65.0245 67.8109 64.5642 67.0574L61.9419 68.1748C62.5858 70.2313 64.3799 71.7848 66.7497 71.7848H66.9561C69.6476 71.7848 71.8103 69.5698 71.8103 66.8052C71.8103 64.6103 71.0744 63.3082 69.3495 62.2782C68.8666 61.9836 67.6693 61.4557 67.0483 61.2068C66.082 60.7951 65.2539 60.111 65.2539 59.2873C65.2539 58.4405 65.9449 57.6179 66.7957 57.6179C67.2557 57.6179 67.9452 57.779 68.3141 58.5775L71.2818 57.1628C70.6836 55.2865 68.6822 54.3275 67.0022 54.3275C63.9429 54.3275 61.9652 56.3379 61.9652 59.4218Z" fill="#EEEEEE"/>
<path d="M82.7636 54.4629L75.8862 71.6027H79.4291L80.7161 68.5168C80.7404 68.4482 80.8089 68.4042 80.9008 68.4042H87.1348C87.227 68.4042 87.2957 68.4482 87.3185 68.5168L88.6759 71.6027H92.1966L85.2717 54.4629H82.7636ZM82.0047 65.2953C82.0047 65.2499 82.0047 65.2278 82.0283 65.2023L83.96 60.3829L84.0294 60.2917L84.0753 60.3375C84.0753 60.3589 84.0753 60.3589 84.0983 60.3829L86.0078 65.2023C86.0311 65.2278 86.0311 65.2499 86.0311 65.2716C86.0311 65.3411 86.0078 65.3629 85.9386 65.3629H82.0977C82.0283 65.3629 82.0047 65.3411 82.0047 65.2953Z" fill="#EEEEEE"/>
<path d="M96.2962 54.4629V71.6027H99.5853V64.7706C99.5853 64.6791 99.6319 64.633 99.7244 64.633H105.797V61.3648H99.7244C99.6319 61.3648 99.5853 61.3188 99.5853 61.2272V57.8684C99.5853 57.778 99.6319 57.7328 99.7244 57.7328H105.797V54.4629H96.2962Z" fill="#EEEEEE"/>
<path d="M110.552 54.4629V71.6027H120.029V68.3349H113.98C113.887 68.3349 113.841 68.2897 113.841 68.195V64.7706C113.841 64.6791 113.887 64.633 113.98 64.633H120.029V61.3648H113.98C113.887 61.3648 113.841 61.3188 113.841 61.2272V57.8684C113.841 57.778 113.887 57.7328 113.98 57.7328H120.029V54.4629H110.552Z" fill="#EEEEEE"/>
<path d="M125.197 63.0229C125.197 67.866 129.131 71.7724 134.007 71.7724C137.527 71.7724 139.803 70.3577 141.161 68.7331V62.2658H133.639V65.4215H137.734C137.803 65.4215 137.826 65.4453 137.826 65.4896V67.4557C137.113 68.072 135.894 68.5274 134.26 68.5274C130.97 68.5274 128.486 66.0377 128.486 63.0229C128.486 60.0042 130.97 57.5365 134.007 57.5365C135.387 57.5365 137.113 58.2467 138.055 58.9997L140.08 56.3944C139.712 56.0743 137.366 54.2695 134.007 54.2695C129.131 54.2695 125.197 58.176 125.197 63.0229Z" fill="#EEEEEE"/>
<path d="M144.828 63.0229C144.828 67.866 148.762 71.7724 153.639 71.7724C158.516 71.7724 162.449 67.866 162.449 63.0229C162.449 58.176 158.516 54.2695 153.639 54.2695C148.762 54.2695 144.828 58.176 144.828 63.0229ZM148.117 63.0229C148.117 60.0042 150.603 57.5365 153.639 57.5365C156.676 57.5365 159.159 60.0042 159.159 63.0229C159.159 66.0377 156.676 68.5054 153.639 68.5054C150.603 68.5054 148.117 66.0377 148.117 63.0229Z" fill="#EEEEEE"/>
<path d="M167.341 54.4435V71.6051H176.405V68.3373H170.907C170.723 68.3373 170.63 68.2457 170.63 68.064V54.4435H167.341Z" fill="#EEEEEE"/>
<path d="M181.13 54.4629V71.6027H186.788C191.596 71.6027 195.46 67.6943 195.46 63.0343C195.46 58.3719 191.596 54.4629 186.788 54.4629H181.13ZM184.419 68.195V57.8684C184.419 57.778 184.464 57.7328 184.558 57.7328H186.926C190.055 57.7328 192.171 59.9011 192.171 63.0343C192.171 66.164 189.917 68.3349 186.788 68.3349H184.558C184.464 68.3349 184.419 68.2897 184.419 68.195Z" fill="#EEEEEE"/>
<path d="M50.4545 62.1845C50.4997 62.4563 50.5245 62.7353 50.5245 63.0201C50.5245 63.3107 50.4985 63.5952 50.4516 63.8722H51.7122C51.2901 67.3247 48.3303 69.9995 44.7408 69.9995C43.0351 69.9995 41.4718 69.3951 40.2553 68.3908L38.8833 69.3939C40.4265 70.7994 42.4827 71.657 44.7408 71.657C49.5294 71.657 53.4111 67.801 53.4111 63.0442C53.4111 62.7539 53.3962 62.4673 53.3679 62.1845H52.7726V62.1819L50.4545 62.1845Z" fill="#EEEEEE"/>
<path d="M36.0791 63.0368C36.0791 63.3066 36.0919 63.5728 36.1164 63.8362H39.507C39.5035 63.8461 39.5 63.8556 39.4965 63.8649H39.6922C39.9282 65.2552 40.7311 66.4536 41.8555 67.2188C42.6794 67.7794 43.6752 68.1083 44.7491 68.1083C47.582 68.1083 49.8786 65.8269 49.8786 63.0128C49.8786 62.728 49.8541 62.449 49.8089 62.1772H48.5031V62.1746H44.2253V63.8649H48.0344C47.6721 65.3335 46.3389 66.4232 44.7491 66.4232C44.2512 66.4232 43.779 66.3157 43.3532 66.1236C42.4108 65.6988 41.6997 64.8581 41.4571 63.8362C41.3982 63.5879 41.3658 63.3289 41.3658 63.0623C41.3658 61.206 42.8804 59.7012 44.7491 59.7012C45.4812 59.7012 46.1584 59.933 46.712 60.3258L48.1732 59.2193C47.2653 58.4098 46.0654 57.917 44.7491 57.917C42.2037 57.917 40.0924 59.7594 39.6896 62.1746H37.7766C38.1945 58.7175 41.1567 56.0384 44.7491 56.0384C46.6799 56.0384 48.4281 56.8126 49.6977 58.0651L51.0038 57.0762C49.4259 55.4427 47.2078 54.4243 44.7491 54.4243C39.9606 54.4243 36.0791 58.2803 36.0791 63.0368Z" fill="#EEEEEE"/>
</g>
</g>
<defs>
<clipPath id="clip0_632_2606">
<rect width="231" height="127" fill="white"/>
</clipPath>
<clipPath id="clip1_632_2606">
<rect width="159.841" height="17.5153" fill="white" transform="translate(36.0796 54.2422)"/>
</clipPath>
</defs>
</svg>
