<svg width="210" height="80" viewBox="0 0 210 80" fill="none" xmlns="http://www.w3.org/2000/svg">
<path d="M26.7368 0.000976562C28.8139 0.347651 30.8369 0.963503 32.7548 1.83298C37.8696 4.39587 42.0159 8.54771 44.5718 13.666C47.6722 19.4784 49.0959 26.0383 48.6838 32.613C48.4531 40.13 45.736 47.3583 40.9578 53.166C37.7415 57.2956 33.165 60.1508 28.0418 61.224C25.1865 61.7885 22.2409 61.7056 19.4218 60.9816C16.6027 60.2575 13.9818 58.9106 11.7518 57.04C5.64284 52.244 2.41484 45.722 0.881844 38.256C0.606844 36.916 0.434844 35.555 0.214844 34.201V27.187C0.27001 27.0218 0.312467 26.8526 0.341844 26.681C0.712565 22.6891 1.76091 18.7896 3.44184 15.15C5.75004 9.78853 9.73562 5.32081 14.7998 2.41798C17.0561 1.23973 19.4839 0.424075 21.9938 0.000976563L26.7368 0.000976562ZM5.13684 30.501C5.07997 34.6886 5.70134 38.8579 6.97684 42.847C8.62484 47.979 11.1768 52.547 15.4698 55.983C17.8479 57.9985 20.8293 59.1649 23.9437 59.2982C27.0582 59.4314 30.1283 58.524 32.6698 56.719C36.2672 54.2018 39.0608 50.6991 40.7148 46.632C44.4277 38.2381 45.1037 28.8138 42.6268 19.976C41.1478 14.366 38.5938 9.30098 34.0378 5.50098C29.5658 1.77498 24.5628 0.645977 19.0668 3.00998C15.5856 4.61678 12.6689 7.2348 10.6968 10.523C6.74484 16.593 5.19684 23.347 5.13684 30.502" fill="white"/>
<path d="M165.074 48.6089C164.45 49.1779 163.829 49.7379 163.215 50.3089C159.782 53.569 155.248 55.4167 150.515 55.4839C146.994 55.7138 143.468 55.1016 140.231 53.6979C137.675 52.533 135.39 50.8488 133.52 48.7525C131.651 46.6563 130.238 44.1939 129.372 41.5219C126.687 33.5219 126.835 25.4749 130.685 17.8319C134.535 10.1889 140.894 6.27389 149.504 6.08589C154.703 5.85248 159.814 7.48857 163.911 10.6979C167.058 13.1593 169.177 16.7023 169.859 20.6389C170 21.3739 169.781 21.6569 169.021 21.6389C167.5 21.6049 165.977 21.6169 164.455 21.6389C164.238 21.6686 164.019 21.6134 163.842 21.4848C163.665 21.3561 163.545 21.1641 163.507 20.9489C161.73 15.0999 157.502 12.4859 151.654 11.9249C149.368 11.6069 147.04 11.8478 144.868 12.6268C142.697 13.4059 140.746 14.6999 139.184 16.3979C137.673 18.0027 136.535 19.9199 135.848 22.0139C133.73 28.2457 133.844 35.0197 136.17 41.1769C138.27 46.8769 142.701 49.5669 148.648 49.9409C151.666 50.2391 154.708 49.676 157.42 48.3169C159.313 47.3706 160.941 45.9688 162.158 44.2374C163.376 42.5061 164.144 40.4995 164.394 38.3979C164.523 37.5299 164.569 36.6569 164.616 35.7809C164.659 34.9809 164.37 34.7029 163.563 34.7089C159.583 34.7379 155.602 34.7219 151.621 34.7209C151.328 34.7209 151.036 34.7149 150.743 34.7099C150.647 34.7214 150.55 34.7109 150.46 34.6793C150.369 34.6476 150.286 34.5955 150.219 34.5271C150.151 34.4586 150.1 34.3756 150.07 34.2844C150.039 34.1932 150.03 34.0962 150.043 34.0009C150.043 32.5689 150.043 31.1369 150.049 29.7009C150.038 29.6127 150.047 29.5232 150.077 29.4396C150.107 29.3559 150.156 29.2804 150.221 29.2193C150.285 29.1581 150.363 29.113 150.448 29.0876C150.533 29.0622 150.623 29.0571 150.711 29.0729C150.886 29.0779 151.062 29.0729 151.238 29.0729C157.355 29.0729 163.472 29.0729 169.59 29.0729C170.802 29.0729 170.807 29.0729 170.807 30.2869C170.807 37.8869 170.807 45.4869 170.807 53.0869C170.807 54.2389 170.8 54.2419 169.622 54.2459C168.444 54.2499 167.28 54.2289 166.11 54.2519C165.527 54.2629 165.31 54.0519 165.247 53.4519C165.091 51.8279 165.154 50.1969 165.071 48.6159" fill="white"/>
<path d="M175.123 30.6761C175.123 23.2821 175.123 15.8881 175.123 8.49409C175.123 7.19409 175.123 7.19409 176.455 7.19409C187.049 7.19409 197.643 7.19409 208.237 7.19409C209.526 7.19409 209.561 7.23209 209.565 8.52309C209.565 9.60443 209.565 10.6858 209.565 11.7671C209.565 13.0081 209.554 13.0151 208.272 13.0151H186.499C185.182 13.0151 183.864 13.0371 182.548 13.0071C181.916 12.9921 181.659 13.2071 181.662 13.8621C181.681 18.0121 181.689 22.1621 181.662 26.3121C181.655 27.2291 182.201 27.1731 182.812 27.1731C190.479 27.1691 198.145 27.1691 205.812 27.1731C206.104 27.1731 206.397 27.1801 206.69 27.1841C206.778 27.1722 206.867 27.1808 206.951 27.2093C207.035 27.2378 207.111 27.2854 207.173 27.3483C207.236 27.4112 207.283 27.4878 207.31 27.5719C207.338 27.656 207.346 27.7454 207.333 27.8331C207.333 29.3231 207.333 30.8141 207.333 32.3041C207.333 32.7811 207.113 33.0041 206.643 32.9981C206.35 32.9981 206.058 33.0041 205.765 33.0041C198.127 33.0041 190.489 33.0041 182.85 33.0041C181.674 33.0041 181.669 33.0041 181.669 34.1631C181.669 38.5471 181.669 42.9308 181.669 47.3141C181.669 48.5341 181.669 48.5371 182.869 48.5371H208.505C209.967 48.5371 209.968 48.5371 209.968 50.0371C209.968 51.1771 209.954 52.3171 209.968 53.4561C209.975 54.0071 209.756 54.2451 209.191 54.2451C198.1 54.2378 187.009 54.2378 175.917 54.2451C175.2 54.2451 175.117 53.8521 175.117 53.2911C175.127 51.1581 175.117 49.0241 175.117 46.8911C175.117 41.4844 175.117 36.0778 175.117 30.6711" fill="white"/>
<path d="M55.1074 38.9111C55.8394 38.9111 56.5714 38.9291 57.3024 38.9051C57.8944 38.8851 58.1684 39.1461 58.1734 39.7281C58.1775 40.5471 58.2836 41.3623 58.4894 42.1551C58.8175 43.6078 59.505 44.955 60.4888 46.0731C61.4726 47.1912 62.7213 48.0446 64.1204 48.5551C66.5567 49.5418 69.1708 50.0139 71.7983 49.9416C74.4259 49.8693 77.01 49.2543 79.3884 48.1351C83.4564 46.2551 83.8804 42.0481 82.5654 38.7071C82.2123 37.9785 81.7135 37.3301 81.0997 36.8021C80.486 36.274 79.7705 35.8775 78.9974 35.6371C75.9157 34.5241 72.7531 33.6495 69.5374 33.0211C66.4754 32.2611 63.3254 31.8271 60.3854 30.6131C58.0522 29.7241 56.1021 28.0493 54.8709 25.8772C53.6397 23.705 53.2045 21.1715 53.6404 18.7131C54.6564 11.0861 60.1614 6.68608 67.5774 6.09308C71.6371 5.67028 75.7396 6.19045 79.5654 7.61307C84.3434 9.49007 87.0094 13.0871 87.8824 18.0761C88.0134 18.8221 88.0614 19.5831 88.1664 20.3341C88.2414 20.8701 88.0154 21.0901 87.4894 21.0871C85.9387 21.0771 84.3877 21.0751 82.8364 21.0811C82.7355 21.0987 82.632 21.0932 82.5336 21.065C82.4351 21.0368 82.3444 20.9866 82.2681 20.9182C82.1919 20.8499 82.1322 20.7651 82.0934 20.6704C82.0546 20.5756 82.0379 20.4733 82.0444 20.3711C81.6234 15.5761 78.5784 12.9121 74.2684 11.9661C71.0876 11.1924 67.7475 11.3963 64.6844 12.5511C63.0228 13.1404 61.6327 14.3146 60.7738 15.8543C59.9149 17.3939 59.646 19.1936 60.0174 20.9171C60.1491 21.7154 60.4755 22.469 60.9677 23.1111C61.4599 23.7533 62.1028 24.2644 62.8394 24.5991C64.9144 25.6301 67.2014 25.9041 69.4124 26.4391C72.7124 27.2391 76.0324 27.9311 79.3254 28.7391C81.8874 29.2914 84.2473 30.5398 86.1454 32.3471C88.2005 34.3928 89.393 37.1486 89.4774 40.0471C89.7186 42.6535 89.2275 45.2756 88.0594 47.6181C86.6154 50.3397 84.2207 52.4351 81.3314 53.5051C74.9939 56.1731 67.8698 56.2853 61.4514 53.8181C58.8676 52.9226 56.6062 51.2832 54.9515 49.1061C53.2968 46.929 52.3226 44.3113 52.1514 41.5821C52.0914 40.9731 52.0584 40.3601 52.0094 39.7501C51.9624 39.1601 52.2164 38.8881 52.8244 38.9071C53.5844 38.9311 54.3464 38.9131 55.1074 38.9131" fill="white"/>
<path d="M109.783 7.19187C110.632 7.19187 111.483 7.23987 112.328 7.17887C112.673 7.12459 113.026 7.20729 113.312 7.40938C113.597 7.61148 113.792 7.91699 113.856 8.26087C115.573 13.0769 117.327 17.8789 119.071 22.6859C122.698 32.6859 126.326 42.6825 129.955 52.6759C130.526 54.2479 130.538 54.2439 128.901 54.2439C127.501 54.2439 126.087 54.1719 124.689 54.2679C123.667 54.3379 123.271 53.9269 122.972 53.0049C121.772 49.3049 120.5 45.6369 119.245 41.9599C118.774 40.5789 118.762 40.5799 117.329 40.5799C111.945 40.5799 106.561 40.5949 101.177 40.5629C100.85 40.511 100.515 40.586 100.241 40.7726C99.9674 40.9592 99.7753 41.2433 99.7039 41.5669C98.3399 45.4849 96.9039 49.3779 95.5299 53.2919C95.4787 53.5913 95.3134 53.8592 95.0687 54.0392C94.824 54.2192 94.519 54.2972 94.2179 54.2569C92.6689 54.1999 91.1179 54.2439 89.5659 54.2389C88.4829 54.2389 88.4549 54.1949 88.8499 53.1449C91.7086 45.5449 94.5693 37.9432 97.4319 30.3399C100.149 23.1212 102.865 15.9022 105.582 8.68287C106.143 7.19087 106.138 7.18887 107.76 7.18887H109.779L109.783 7.19187ZM109.558 14.4889C109.42 14.7679 109.358 14.8649 109.322 14.9689C107.009 21.3022 104.693 27.6355 102.376 33.9689C102.11 34.6919 102.285 34.8759 103.028 34.8689C107.15 34.8449 111.271 34.8589 115.393 34.8569C116.425 34.8569 116.429 34.8509 116.086 33.8259C114.185 28.1525 112.283 22.4795 110.378 16.8069C110.138 16.0919 109.878 15.3839 109.558 14.4899" fill="white"/>
<path d="M208.088 73.31C207.681 73.7976 207.167 74.1838 206.585 74.438C206.003 74.6923 205.37 74.8077 204.736 74.775C203.91 74.7926 203.097 74.5683 202.397 74.1296C201.697 73.6909 201.14 73.057 200.796 72.306C200.327 71.3576 200.088 70.3119 200.098 69.2538C200.108 68.1957 200.368 67.155 200.856 66.216C201.176 65.5831 201.641 65.0341 202.212 64.6134C202.783 64.1928 203.445 63.9121 204.144 63.794C204.843 63.6758 205.561 63.7236 206.238 63.9335C206.916 64.1433 207.535 64.5093 208.045 65.002C208.235 64.65 208.059 64.095 208.682 64.009C209.642 63.877 209.962 64.098 209.964 65.089C209.964 68.012 209.985 70.935 209.958 73.858C209.918 78.138 205.765 80.41 202.049 78.203C201.476 77.8966 201.026 77.4022 200.774 76.803C200.634 76.44 200.335 75.936 200.836 75.724C201.337 75.512 202.058 75.324 202.405 75.978C202.62 76.3798 202.94 76.7157 203.33 76.9496C203.721 77.1836 204.168 77.3068 204.624 77.306C206.961 77.506 208.224 76.106 208.088 73.312V73.31ZM202.124 69.345C202.171 69.78 202.189 70.245 202.275 70.706C202.341 71.3599 202.636 71.9695 203.108 72.4272C203.579 72.885 204.197 73.1616 204.853 73.2082C205.509 73.2548 206.16 73.0685 206.691 72.6821C207.223 72.2957 207.601 71.734 207.759 71.096C208.153 69.9905 208.191 68.7893 207.868 67.661C207.79 67.2948 207.636 66.9489 207.418 66.6449C207.199 66.341 206.92 66.0857 206.598 65.8952C206.275 65.7046 205.917 65.5829 205.545 65.5378C205.174 65.4927 204.797 65.5251 204.438 65.633C202.991 65.958 202.109 67.363 202.123 69.345" fill="white"/>
<path d="M123.52 67.307C123.52 65.176 123.535 63.044 123.512 60.913C123.505 60.224 123.712 59.913 124.468 59.927C126.455 59.967 128.444 59.917 130.432 59.95C133.209 59.995 134.665 61.687 134.62 64.757C134.614 65.3071 134.496 65.8501 134.273 66.3531C134.05 66.8561 133.727 67.3084 133.324 67.6826C132.92 68.0568 132.445 68.345 131.927 68.5297C131.409 68.7144 130.858 68.7918 130.309 68.757C129.081 68.757 127.852 68.777 126.625 68.737C125.913 68.714 125.625 68.958 125.651 69.694C125.694 71.036 125.626 72.381 125.676 73.723C125.706 74.517 125.367 74.723 124.638 74.723C123.909 74.723 123.493 74.548 123.508 73.698C123.546 71.567 123.52 69.435 123.52 67.304V67.307ZM128.22 66.787V66.77C128.863 66.77 129.511 66.815 130.15 66.761C130.483 66.7702 130.814 66.7061 131.119 66.5733C131.424 66.4404 131.697 66.2421 131.917 65.9923C132.137 65.7425 132.299 65.4474 132.393 65.1278C132.486 64.8082 132.508 64.472 132.457 64.143C132.48 63.8266 132.435 63.509 132.324 63.2117C132.214 62.9144 132.04 62.6444 131.816 62.4201C131.592 62.1958 131.322 62.0224 131.025 61.9118C130.727 61.8012 130.41 61.7559 130.093 61.779C128.867 61.724 127.636 61.761 126.408 61.744C125.908 61.737 125.651 61.928 125.658 62.463C125.674 63.663 125.674 64.8606 125.658 66.056C125.651 66.572 125.85 66.809 126.38 66.792C126.994 66.772 127.608 66.792 128.223 66.792" fill="white"/>
<path d="M148.584 73.83C148.549 74.012 148.474 74.1838 148.364 74.3328C148.254 74.4819 148.112 74.6044 147.949 74.6913C147.785 74.7782 147.604 74.8274 147.419 74.8351C147.234 74.8429 147.049 74.809 146.879 74.736C146.51 74.612 146.499 74.324 146.499 74.036C146.499 69.596 146.499 65.156 146.492 60.717C146.492 60.027 146.938 60.006 147.436 59.999C147.98 59.992 148.443 60.056 148.436 60.769C148.429 61.937 148.443 63.106 148.436 64.274C148.436 64.76 148.481 65.016 149.061 64.652C149.706 64.202 150.453 63.9201 151.234 63.8321C152.015 63.7441 152.806 63.8526 153.534 64.1479C154.263 64.4431 154.906 64.9158 155.406 65.5229C155.905 66.13 156.245 66.8522 156.394 67.624C156.746 68.9914 156.7 70.4306 156.263 71.773C156.043 72.4893 155.653 73.1421 155.127 73.6763C154.601 74.2105 153.955 74.6104 153.242 74.8424C152.529 75.0743 151.771 75.1315 151.032 75.0091C150.292 74.8867 149.593 74.5883 148.993 74.139C148.878 74.056 148.763 73.971 148.576 73.839L148.584 73.83ZM148.319 69.532C148.338 70.2354 148.503 70.9272 148.802 71.564C149.053 72.1146 149.468 72.5739 149.991 72.8785C150.513 73.183 151.118 73.3177 151.72 73.264C152.312 73.2653 152.889 73.0735 153.362 72.7176C153.835 72.3617 154.179 71.8612 154.342 71.292C154.771 70.0994 154.782 68.7966 154.373 67.597C154.26 67.2166 154.072 66.8627 153.82 66.5563C153.567 66.2499 153.256 65.9972 152.905 65.8131C152.553 65.629 152.168 65.5172 151.773 65.4844C151.377 65.4516 150.979 65.4984 150.602 65.622C149.166 66.009 148.321 67.39 148.318 69.528" fill="white"/>
<path d="M177.282 65.2839C177.819 64.6848 178.511 64.2443 179.281 64.0102C180.052 63.7761 180.871 63.7573 181.652 63.9559C182.309 64.0599 182.913 64.3832 183.364 64.8733C183.815 65.3635 184.087 65.9917 184.136 66.6559C184.318 69.1298 184.364 71.6119 184.274 74.0909C184.287 74.8589 183.717 74.7479 183.222 74.7759C182.649 74.8079 182.342 74.6129 182.345 73.9919C182.356 72.0649 182.345 70.1379 182.345 68.2109C182.345 66.2489 181.866 65.6249 180.35 65.5959C179.963 65.5526 179.571 65.5919 179.2 65.711C178.83 65.8302 178.489 66.0265 178.2 66.2871C177.911 66.5477 177.68 66.8667 177.523 67.2229C177.366 67.5792 177.287 67.9646 177.29 68.3539C177.256 70.1632 177.256 71.9732 177.29 73.7839C177.307 74.5559 177.021 74.7939 176.265 74.7939C175.509 74.7939 175.311 74.4839 175.313 73.7939C175.329 69.5312 175.329 65.2685 175.313 61.0059C175.313 60.3239 175.518 59.9859 176.263 59.9849C177.008 59.9839 177.311 60.2569 177.288 61.0189C177.247 62.3799 177.277 63.7419 177.277 65.2839" fill="white"/>
<path d="M174.158 71.3491C174.23 71.9777 174.104 72.6133 173.797 73.1664C173.49 73.7196 173.017 74.1626 172.445 74.4331C171.627 74.8331 170.734 75.0546 169.824 75.0827C168.915 75.1108 168.009 74.9449 167.169 74.5961C166.685 74.4188 166.252 74.1246 165.91 73.7397C165.567 73.3548 165.325 72.8912 165.205 72.3901C165.117 72.0441 164.905 71.5391 165.419 71.4261C165.933 71.3131 166.595 71.0801 166.982 71.7641C167.412 72.5212 168.12 73.0814 168.956 73.3264C169.791 73.5714 170.69 73.482 171.461 73.0771C171.663 72.9886 171.835 72.8441 171.957 72.6606C172.079 72.4772 172.146 72.2625 172.15 72.0421C172.177 71.7933 172.127 71.5422 172.008 71.3222C171.889 71.1021 171.706 70.9235 171.483 70.8101C170.656 70.4352 169.781 70.1771 168.883 70.0431C168.252 69.9168 167.634 69.7358 167.035 69.5021C166.546 69.3353 166.119 69.0244 165.81 68.6103C165.501 68.1961 165.325 67.6983 165.305 67.1821C165.248 66.667 165.345 66.1467 165.585 65.6873C165.825 65.2279 166.196 64.8501 166.651 64.6021C167.491 64.1171 168.441 63.8531 169.411 63.8348C170.381 63.8164 171.34 64.0443 172.198 64.4971C172.54 64.6688 172.839 64.9157 173.073 65.2195C173.306 65.5233 173.468 65.8759 173.546 66.2511C173.636 66.6031 173.982 67.1361 173.391 67.2921C172.873 67.4291 172.216 67.6261 171.791 67.0151C171.452 66.4149 170.913 65.9528 170.268 65.7097C169.622 65.4666 168.912 65.4579 168.262 65.6851C168.027 65.7122 167.808 65.8145 167.636 65.9767C167.465 66.139 167.351 66.3524 167.311 66.5851C167.269 66.8332 167.312 67.0883 167.435 67.3083C167.557 67.5282 167.751 67.7 167.984 67.7951C168.789 68.144 169.636 68.3883 170.504 68.5221C171.25 68.6702 171.975 68.9079 172.664 69.2301C173.092 69.3986 173.461 69.6888 173.727 70.0648C173.992 70.4408 174.141 70.8862 174.157 71.3461" fill="white"/>
<path d="M191.771 65.456C192.281 64.8092 192.965 64.3223 193.744 64.0532C194.522 63.7841 195.361 63.7442 196.161 63.938C196.804 64.0308 197.399 64.328 197.859 64.7857C198.319 65.2434 198.62 65.8371 198.716 66.479C198.901 67.9564 198.953 69.4473 198.872 70.934C198.896 71.926 198.851 72.92 198.882 73.912C198.905 74.639 198.535 74.785 197.902 74.782C197.269 74.779 196.902 74.664 196.909 73.926C196.934 71.999 196.917 70.072 196.914 68.145C196.914 66.283 196.399 65.626 194.929 65.593C194.55 65.5412 194.163 65.5707 193.796 65.6797C193.429 65.7886 193.089 65.9744 192.799 66.2248C192.509 66.4751 192.276 66.7843 192.115 67.1317C191.954 67.4792 191.868 67.857 191.864 68.24C191.824 70.049 191.864 71.86 191.853 73.67C191.884 73.8697 191.858 74.0741 191.776 74.2589C191.695 74.4438 191.561 74.6013 191.393 74.7127C191.224 74.8241 191.027 74.8847 190.825 74.8872C190.623 74.8897 190.425 74.8341 190.253 74.727C190.133 74.6719 190.034 74.5785 189.972 74.4613C189.91 74.344 189.889 74.2096 189.911 74.079C189.911 71.013 189.918 67.948 189.911 64.879C189.911 64.237 190.279 64.118 190.824 64.126C191.353 64.134 191.768 64.204 191.724 64.876C191.728 65.0692 191.744 65.2619 191.772 65.453" fill="white"/>
<path d="M142.813 73.2599C142.298 73.9299 141.597 74.4328 140.797 74.7055C139.997 74.9783 139.135 75.0087 138.318 74.7929C137.626 74.6983 136.991 74.3578 136.529 73.8336C136.067 73.3094 135.81 72.6364 135.803 71.9379C135.716 69.5179 135.771 67.0919 135.75 64.6689C135.744 63.9689 136.195 63.9689 136.692 63.9689C137.214 63.9609 137.613 64.0289 137.607 64.7039C137.591 66.6889 137.607 68.6749 137.607 70.6599C137.607 72.0439 138.022 72.7979 138.917 73.0689C139.536 73.2698 140.205 73.2594 140.818 73.0396C141.431 72.8197 141.954 72.4027 142.304 71.8539C142.641 71.2686 142.806 70.5999 142.78 69.9249C142.772 68.3189 142.79 66.7129 142.77 65.1069C142.762 64.4279 142.791 63.9389 143.721 63.9439C144.687 63.9489 144.632 64.5089 144.629 65.1489C144.619 67.9229 144.621 70.6969 144.614 73.4709C144.614 74.0709 144.752 74.7119 143.762 74.7389C142.793 74.7659 142.73 74.2159 142.81 73.2619" fill="white"/>
<path d="M160.041 67.442C160.041 69.542 160.023 71.6421 160.051 73.7421C160.061 74.4661 159.851 74.7891 159.058 74.7881C158.265 74.7871 158.066 74.476 158.07 73.744C158.094 69.4834 158.094 65.2227 158.07 60.9621C158.07 60.2331 158.259 59.915 159.056 59.915C159.853 59.915 160.056 60.2341 160.056 60.9601C160.029 63.1191 160.046 65.279 160.046 67.438" fill="white"/>
<path d="M186.182 69.377C186.182 67.888 186.207 66.399 186.171 64.911C186.153 64.184 186.505 64.02 187.136 64.023C187.752 64.023 188.144 64.167 188.136 64.893C188.121 67.899 188.121 70.9053 188.136 73.912C188.136 74.63 187.793 74.791 187.155 74.781C186.544 74.772 186.148 74.681 186.165 73.929C186.2 72.412 186.175 70.894 186.175 69.376" fill="white"/>
<path d="M163.776 69.3829C163.776 70.8729 163.754 72.3629 163.785 73.8519C163.799 74.5229 163.568 74.7809 162.874 74.7859C162.15 74.7909 161.903 74.5359 161.91 73.8169C161.938 70.8669 161.938 67.9166 161.91 64.9659C161.904 64.2889 162.143 64.0309 162.822 64.0199C163.545 64.0079 163.805 64.2809 163.786 65.0009C163.748 66.4609 163.775 67.9219 163.774 69.3829" fill="white"/>
<path d="M188.128 61.115C188.174 61.809 188.154 62.332 187.216 62.338C186.316 62.344 186.133 61.9599 186.168 61.1819C186.197 60.5329 186.145 59.9819 187.085 59.9819C187.962 59.9819 188.241 60.355 188.127 61.118" fill="white"/>
<path d="M161.938 61.132C161.838 60.441 161.974 59.9881 162.864 59.9801C163.798 59.9721 163.789 60.5111 163.789 61.1731C163.789 61.8351 163.773 62.344 162.84 62.338C161.907 62.332 161.877 61.817 161.94 61.132" fill="white"/>
<path d="M25.1378 46.4269C25.1378 44.2059 25.1198 41.9839 25.1488 39.7639C25.1598 39.4753 25.1077 39.1878 24.9964 38.9213C24.885 38.6549 24.7169 38.4158 24.5038 38.2209C19.6778 33.3699 14.8758 28.4949 10.0448 23.6479C9.75906 23.4022 9.53995 23.0883 9.4078 22.7354C9.27565 22.3825 9.23472 22.0019 9.2888 21.6289C9.73766 18.6637 10.9647 15.8704 12.8448 13.5339C14.9704 10.4703 18.157 8.30424 21.7878 7.4549C23.7448 7.0279 23.7468 7.0339 23.7468 9.0239C23.7468 13.1739 23.7658 17.3239 23.7318 21.4739C23.7117 21.8618 23.7772 22.2494 23.9235 22.6092C24.0699 22.969 24.2936 23.2922 24.5788 23.5559C29.3168 28.2479 34.0118 32.9829 38.7468 37.6779C39.0644 37.9559 39.3076 38.3086 39.4545 38.7043C39.6013 39.1 39.6472 39.526 39.5878 39.9439C38.8778 45.7219 33.5218 52.7629 27.2278 54.0599L26.8838 54.1319C25.2058 54.4749 25.1388 54.4219 25.1378 52.7389C25.1378 50.6349 25.1378 48.5306 25.1378 46.4259" fill="white"/>
<path d="M25.1385 14.9969C25.1385 12.7459 25.1635 10.4969 25.1255 8.24494C25.1125 7.46394 25.3645 7.21293 26.1485 7.31093C28.5139 7.61441 30.7482 8.57005 32.6015 10.0709C36.1263 12.7568 38.5707 16.618 39.4905 20.9529C39.5471 21.2689 39.5825 21.5883 39.5965 21.9089C39.6555 22.6569 39.2705 22.9839 38.5545 22.9899C38.3785 22.9899 38.2035 22.9899 38.0275 22.9899C34.1641 22.9899 30.3008 22.9899 26.4375 22.9899C25.1375 22.9899 25.1375 22.9899 25.1375 21.6569C25.1375 19.4356 25.1375 17.2143 25.1375 14.9929" fill="white"/>
<path d="M23.7424 46.485C23.7424 48.733 23.7494 50.985 23.7424 53.229C23.7424 54.185 23.5894 54.299 22.6504 54.154C17.7054 53.388 14.3384 50.393 11.7444 46.365C10.3988 44.4042 9.55666 42.1423 9.29238 39.779C9.20438 38.779 9.39938 38.558 10.3794 38.556C14.5304 38.547 18.6794 38.563 22.8324 38.542C23.5324 38.542 23.7564 38.818 23.7514 39.477C23.7324 41.812 23.7444 44.148 23.7444 46.483" fill="white"/>
</svg>
