<svg width="216" height="207" viewBox="0 0 216 207" fill="none" xmlns="http://www.w3.org/2000/svg">
<g clip-path="url(#clip0_5535_1966)">
<rect width="216" height="206.929" fill="#151517"/>
<path d="M99.9514 77.7873C106.354 71.1147 116.961 70.9219 123.633 77.3244C124.867 78.4815 125.87 79.8314 126.68 81.2971C137.055 76.7459 149.166 81.4514 153.756 91.8651C158.307 102.24 153.563 114.351 143.188 118.902C140.604 120.021 137.788 120.638 134.973 120.638C133.623 120.638 132.273 120.522 130.923 120.252C127.027 127.156 118.426 129.818 111.291 126.385C107.55 135.063 97.4829 139.074 88.7662 135.333C84.485 133.482 81.1295 129.972 79.5095 125.613C78.4296 125.845 77.3497 125.961 76.2311 125.961C67.4373 125.845 60.3405 118.671 60.3791 109.839C60.4176 104.207 63.4261 99.0005 68.3244 96.1464C67.3216 93.8708 66.7816 91.4023 66.7816 88.8953C66.8973 78.6744 75.2283 70.4976 85.4492 70.5748C91.119 70.6133 96.4801 73.2746 99.9514 77.7873Z" fill="white"/>
<path d="M74.1515 104.823C74.0744 104.977 74.1901 105.015 74.1901 105.054C74.3829 105.17 74.5372 105.285 74.7301 105.363C75.6172 105.825 76.5814 106.057 77.5842 106.018C79.5512 106.018 80.7469 104.977 80.7469 103.318C80.7469 101.776 79.3584 101.236 78.0856 100.811L77.9313 100.773C76.9671 100.464 76.1186 100.194 76.1186 99.5386V99.5001C76.1186 98.9601 76.62 98.5744 77.3528 98.5744C78.2013 98.5744 79.0498 98.8058 79.8212 99.1915C79.8212 99.1915 80.0141 99.3072 80.0912 99.1529C80.1298 99.0758 80.4383 98.1887 80.4769 98.1116C80.5155 98.0344 80.4383 97.9573 80.3612 97.9187C79.5127 97.4173 78.5484 97.1473 77.5842 97.1473H77.4299C75.9257 96.9545 74.5758 98.0344 74.3829 99.5001C74.3829 99.5772 74.3829 99.6543 74.3829 99.7315V99.77C74.3829 101.39 75.7714 101.93 77.0442 102.277L77.2371 102.316C78.1627 102.624 78.9727 102.856 78.9727 103.511V103.55C78.9727 104.167 78.4327 104.591 77.5842 104.591C76.6971 104.591 75.81 104.36 75.0772 103.858C74.9615 103.781 74.9229 103.743 74.7686 103.666C74.7301 103.627 74.5758 103.588 74.5372 103.781L74.1515 104.823Z" fill="#151517"/>
<path d="M102.687 104.823C102.61 104.978 102.725 105.016 102.725 105.016C102.88 105.132 103.072 105.248 103.265 105.325C104.152 105.788 105.117 106.019 106.119 105.98C108.086 105.98 109.282 104.939 109.282 103.28V103.319C109.282 101.776 107.932 101.236 106.621 100.812L106.466 100.773C105.502 100.465 104.654 100.195 104.654 99.5393V99.5007C104.654 98.9607 105.155 98.575 105.888 98.575C106.736 98.575 107.585 98.8064 108.356 99.1921C108.356 99.1921 108.549 99.3078 108.626 99.1536C108.665 99.0764 108.974 98.1893 109.012 98.1122C109.051 98.035 109.012 97.9579 108.935 97.9193C108.086 97.4179 107.122 97.1479 106.158 97.1479H105.965C104.461 96.9937 103.111 98.035 102.957 99.5393C102.957 99.6164 102.957 99.6935 102.957 99.7707V99.8092C102.957 101.429 104.345 101.969 105.618 102.316L105.811 102.355C106.736 102.663 107.546 102.895 107.546 103.55V103.589C107.546 104.206 107.006 104.63 106.158 104.63C105.271 104.63 104.384 104.399 103.651 103.898C103.535 103.82 103.458 103.782 103.342 103.705C103.265 103.666 103.15 103.666 103.111 103.743C103.111 103.743 103.111 103.782 103.072 103.782L102.687 104.823Z" fill="#151517"/>
<path d="M123.823 99.8508C123.669 99.3493 123.438 98.8479 123.09 98.4622C122.743 98.0766 122.319 97.7294 121.818 97.5366C120.699 97.0737 119.426 97.0737 118.308 97.5366C117.845 97.768 117.421 98.0766 117.074 98.4622C116.726 98.8865 116.495 99.3493 116.341 99.8508C116.032 100.969 116.032 102.203 116.341 103.322C116.495 103.823 116.726 104.325 117.074 104.749C117.421 105.135 117.845 105.482 118.308 105.675C119.426 106.138 120.661 106.138 121.779 105.675C122.242 105.443 122.705 105.135 123.052 104.749C123.399 104.325 123.63 103.862 123.785 103.322C124.132 102.203 124.132 101.008 123.823 99.8508ZM122.165 101.586C122.203 102.358 122.011 103.129 121.663 103.785C121.316 104.286 120.699 104.595 120.082 104.556C119.465 104.595 118.848 104.325 118.501 103.785C117.806 102.396 117.806 100.776 118.501 99.3879C118.848 98.8865 119.465 98.578 120.082 98.6165C120.699 98.578 121.316 98.8479 121.663 99.3879C122.049 100.044 122.203 100.815 122.165 101.586Z" fill="#151517"/>
<path fill-rule="evenodd" clip-rule="evenodd" d="M137.167 104.324C137.129 104.247 137.052 104.208 136.975 104.208C136.743 104.324 136.473 104.362 136.203 104.44C135.895 104.478 135.625 104.517 135.316 104.478C134.622 104.517 133.966 104.285 133.465 103.784C132.963 103.167 132.693 102.357 132.77 101.585C132.732 100.814 132.963 100.081 133.388 99.4641C133.812 98.9241 134.506 98.6155 135.2 98.6541C135.779 98.6541 136.357 98.7312 136.936 98.8855C136.936 98.8855 137.052 98.9241 137.129 98.7698C137.283 98.3841 137.36 98.0756 137.515 97.6513C137.553 97.5742 137.515 97.497 137.437 97.4585C137.437 97.4585 137.437 97.4585 137.399 97.4585C137.052 97.3427 136.705 97.227 136.319 97.1885C135.933 97.1499 135.509 97.1113 135.085 97.1113C134.468 97.1113 133.85 97.227 133.272 97.4585C132.77 97.6513 132.308 97.9984 131.961 98.3841C131.613 98.8084 131.343 99.2712 131.189 99.7726C130.996 100.351 130.919 100.93 130.919 101.508C130.842 102.665 131.266 103.822 131.999 104.71C132.848 105.558 134.005 105.982 135.2 105.905C135.972 105.905 136.782 105.751 137.515 105.481C137.592 105.442 137.63 105.365 137.592 105.288L137.167 104.324Z" fill="#151517"/>
<path fill-rule="evenodd" clip-rule="evenodd" d="M145.503 99.5422C145.349 99.0794 145.118 98.6165 144.809 98.2694C144.501 97.9223 144.154 97.6909 143.768 97.498C143.266 97.2666 142.726 97.1895 142.187 97.1895C141.569 97.1895 140.952 97.3052 140.374 97.5366C139.872 97.768 139.448 98.0766 139.101 98.5008C138.754 98.9251 138.484 99.3879 138.368 99.9279C138.214 100.506 138.137 101.085 138.137 101.664C138.137 102.242 138.214 102.859 138.407 103.399C138.715 104.479 139.525 105.328 140.605 105.713C141.261 105.945 141.917 106.06 142.611 106.022C143.575 106.06 144.501 105.868 145.388 105.482C145.465 105.443 145.503 105.405 145.426 105.212L145.079 104.209C145.041 104.132 144.964 104.093 144.886 104.093C144.076 104.402 143.305 104.556 142.534 104.518C141.839 104.556 141.184 104.325 140.644 103.862C140.219 103.361 139.988 102.705 139.988 102.049H145.503C145.581 102.049 145.658 101.972 145.658 101.895C145.773 101.124 145.735 100.314 145.503 99.5422ZM140.027 100.699C140.065 100.236 140.219 99.8122 140.451 99.3879C140.798 98.8479 141.415 98.578 142.032 98.6165C142.649 98.578 143.228 98.8865 143.575 99.3879C143.806 99.7736 143.922 100.236 143.922 100.699H140.027Z" fill="#151517"/>
<path fill-rule="evenodd" clip-rule="evenodd" d="M101.374 99.5422C101.22 99.0794 100.988 98.6165 100.68 98.2694C100.371 97.9608 100.024 97.6909 99.6385 97.498C99.1371 97.3052 98.5971 97.1895 98.0571 97.1895C97.44 97.1895 96.8229 97.3052 96.2444 97.5366C95.7429 97.7294 95.2801 98.0766 94.9716 98.4622C94.6244 98.8865 94.3544 99.3879 94.2002 99.8893C94.0459 100.468 93.9688 101.046 93.9688 101.625C93.9688 102.203 94.0459 102.821 94.2387 103.361C94.5473 104.441 95.3573 105.289 96.4372 105.675C97.0929 105.906 97.7486 106.022 98.4428 105.983C99.4071 106.022 100.333 105.829 101.22 105.443C101.258 105.405 101.336 105.366 101.258 105.173L100.873 104.209C100.834 104.132 100.757 104.093 100.68 104.093C99.947 104.402 99.1756 104.556 98.4042 104.518C97.71 104.556 97.0157 104.325 96.5143 103.862C96.0515 103.361 95.8201 102.705 95.8587 102.049H101.374C101.451 102.049 101.528 101.972 101.528 101.895C101.644 101.124 101.567 100.314 101.374 99.5422ZM95.8972 100.699C95.9358 100.236 96.0901 99.8122 96.3215 99.3879C96.6686 98.8479 97.2857 98.578 97.9028 98.6165C98.52 98.578 99.0985 98.8865 99.4456 99.3879C99.677 99.7736 99.7927 100.236 99.7927 100.699H95.8972Z" fill="#151517"/>
<path d="M86.1811 100.426C85.9497 100.426 85.6797 100.388 85.3326 100.388C84.8697 100.388 84.4069 100.426 83.9826 100.542C83.5584 100.658 83.1727 100.812 82.8255 101.082C82.4784 101.352 82.2084 101.66 82.0156 102.007C81.8227 102.393 81.707 102.817 81.707 103.28C81.707 103.705 81.7842 104.129 81.977 104.515C82.1313 104.862 82.3627 105.17 82.6713 105.363C83.0184 105.594 83.4041 105.749 83.7898 105.864C84.2912 105.942 84.7926 106.019 85.2554 106.019C85.834 106.019 86.3739 105.98 86.9139 105.864C87.4925 105.787 88.1481 105.633 88.341 105.594L88.7267 105.479C88.8038 105.44 88.8424 105.363 88.8424 105.286V100.272C88.9195 99.4233 88.611 98.5362 87.9553 97.8806C87.2225 97.3406 86.3354 97.0706 85.4483 97.1477C84.9469 97.1477 84.4455 97.1863 83.9826 97.2634C83.3655 97.3791 82.787 97.572 82.247 97.8806C82.1699 97.9191 82.1699 98.0348 82.2084 98.112L82.5941 99.1533C82.6327 99.2305 82.7098 99.2691 82.787 99.2305C82.8255 99.2305 82.8641 99.1919 82.8641 99.1919C83.5969 98.8448 84.4455 98.6519 85.2554 98.6134C85.7568 98.6134 86.2197 98.7291 86.6439 98.9991C86.9525 99.2305 87.1068 99.5776 87.1068 100.31V100.542C86.6054 100.465 86.1811 100.426 86.1811 100.426ZM83.9826 104.245C83.8669 104.167 83.7512 104.052 83.6741 103.936C83.5584 103.705 83.4812 103.473 83.4812 103.242C83.4812 102.817 83.6741 102.393 83.9826 102.162C84.4455 101.853 85.024 101.699 85.564 101.776C86.0654 101.776 86.5668 101.815 87.0682 101.892V104.399C86.6054 104.476 86.104 104.553 85.6026 104.592C85.024 104.669 84.484 104.553 83.9826 104.245Z" fill="#151517"/>
<path fill-rule="evenodd" clip-rule="evenodd" d="M130.611 97.6107C130.649 97.5335 130.611 97.4564 130.534 97.4178C130.225 97.3407 129.916 97.2635 129.608 97.2635C129.107 97.225 128.644 97.3021 128.181 97.495C127.834 97.6492 127.487 97.8807 127.255 98.1892V97.495C127.255 97.4178 127.178 97.3407 127.101 97.3407H125.674C125.597 97.3407 125.52 97.4178 125.52 97.495V105.672C125.52 105.749 125.597 105.826 125.674 105.826H127.139C127.217 105.826 127.294 105.749 127.294 105.672V101.583C127.294 101.082 127.332 100.619 127.487 100.156C127.602 99.8477 127.757 99.5777 127.988 99.3463C128.181 99.1535 128.412 99.0377 128.682 98.9606C128.914 98.8835 129.184 98.8449 129.415 98.8449C129.608 98.8449 129.801 98.8835 130.032 98.922C130.148 98.922 130.186 98.8835 130.225 98.7678C130.302 98.4978 130.572 97.765 130.611 97.6107Z" fill="#151517"/>
<path fill-rule="evenodd" clip-rule="evenodd" d="M117.037 93.8332C116.613 93.7175 116.189 93.6403 115.726 93.6403C114.878 93.6018 114.029 93.8718 113.373 94.4503C112.756 95.1445 112.37 95.9931 112.255 96.9187L112.178 97.3044H110.905C110.828 97.3044 110.751 97.3816 110.712 97.4587L110.519 98.5772C110.519 98.6929 110.558 98.7701 110.712 98.7701H111.946L110.712 105.635C110.635 106.098 110.519 106.561 110.365 106.985C110.288 107.255 110.133 107.525 109.979 107.757C109.863 107.95 109.671 108.065 109.478 108.142C109.285 108.22 109.054 108.22 108.822 108.22C108.668 108.22 108.514 108.181 108.398 108.181C108.282 108.142 108.205 108.142 108.089 108.104C108.012 108.065 107.935 108.104 107.896 108.181C107.858 108.297 107.511 109.184 107.472 109.3C107.434 109.377 107.472 109.454 107.549 109.492C107.704 109.57 107.858 109.608 108.051 109.647C108.321 109.685 108.591 109.724 108.861 109.724C109.323 109.724 109.786 109.647 110.211 109.531C110.596 109.377 110.943 109.145 111.213 108.837C111.522 108.451 111.753 108.065 111.908 107.603C112.139 107.024 112.293 106.407 112.409 105.751L113.643 98.7701H115.456C115.533 98.7701 115.61 98.6929 115.649 98.6158L115.842 97.4973C115.842 97.3816 115.803 97.343 115.649 97.343H113.99C114.068 96.9187 114.145 96.4945 114.299 96.1088C114.376 95.8774 114.53 95.6845 114.685 95.5302C114.8 95.4145 114.955 95.2988 115.147 95.2603C115.34 95.1831 115.533 95.1445 115.726 95.1831C115.88 95.1831 116.035 95.1831 116.189 95.2217L116.459 95.2988C116.652 95.3374 116.652 95.2988 116.69 95.2217L117.115 94.0646C117.153 93.9103 117.115 93.8332 117.037 93.8332C117.037 93.7946 117.037 93.7946 117.037 93.8332Z" fill="#151517"/>
<path fill-rule="evenodd" clip-rule="evenodd" d="M92.4304 105.673C92.4304 105.75 92.3533 105.827 92.2762 105.866H90.8105C90.7334 105.866 90.6562 105.789 90.6562 105.711V93.9863C90.6562 93.9092 90.7334 93.832 90.8105 93.832H92.2762C92.3533 93.832 92.4304 93.9092 92.4304 93.9863V105.673V105.673Z" fill="#151517"/>
</g>
<defs>
<clipPath id="clip0_5535_1966">
<rect width="216" height="206.929" fill="white"/>
</clipPath>
</defs>
</svg>
