<svg width="231" height="127" viewBox="0 0 231 127" fill="none" xmlns="http://www.w3.org/2000/svg">
<g clip-path="url(#clip0_503_2370)">
<g clip-path="url(#clip1_503_2370)">
<path d="M39.7866 46.1914C40.21 46.4828 40.2728 46.8998 40.268 47.3796C40.21 52.8455 40.1601 58.3114 40.1279 63.7757C40.1247 64.3312 39.9395 64.695 39.4292 64.9027C38.6773 64.7127 38.6644 64.7127 38.6612 63.9657C38.6548 61.6457 38.6628 59.3241 38.6515 57.0041C38.6515 56.6837 38.7964 56.2812 38.3247 56.1202L38.3376 56.1283C38.1911 56.0268 38.043 55.9254 37.8965 55.824C37.7725 55.7596 37.6469 55.6968 37.5229 55.6324C37.4038 55.5567 37.283 55.4794 37.1639 55.4038C37.1269 55.3716 37.0866 55.3442 37.0432 55.3233C36.8178 55.1945 36.5907 55.0673 36.3653 54.9385C36.3331 54.9015 36.2945 54.8725 36.251 54.8483C36.1174 54.7678 35.9838 54.6857 35.8501 54.6052C35.2496 54.9884 34.6716 55.3587 33.9487 55.8191C33.9487 55.3764 33.9487 55.0947 33.9487 54.8113C33.952 54.1174 33.9552 53.4235 33.96 52.7312C33.9697 51.287 33.9729 51.2919 35.0435 50.3774C36.2221 49.3695 37.3893 48.3504 38.563 47.3409C38.7997 47.1365 39.0508 46.9481 39.4517 46.6277V56.5034H39.6224V46.1914H39.7834H39.7866Z" fill="#EEEEEE"/>
<path d="M131.183 59.6494C131.942 60.6927 132.645 61.6619 133.35 62.6279C133.713 63.1238 134.06 63.6342 134.448 64.1091C135.464 65.3569 136.614 65.1846 137.148 63.6712C137.966 61.356 138.729 59.0215 139.517 56.6967C139.969 55.3588 140.425 54.0209 140.901 52.6202C141.252 52.6041 141.587 52.588 141.975 52.5703C142.142 52.997 142.307 53.385 142.445 53.7826C143.519 56.8561 144.588 59.9328 145.66 63.0079C145.749 63.259 145.849 63.507 145.949 63.7549C146.19 64.3538 146.551 64.7998 147.243 64.9366C147.716 65.03 147.707 65.0783 147.584 65.7239H142.384C142.347 65.6644 142.275 65.6 142.271 65.534C142.263 65.3826 142.287 65.2297 142.297 65.1057C142.386 65.0526 142.427 65.0107 142.476 64.9994C143.612 64.7145 143.654 64.6565 143.35 63.5488C143.203 63.0127 143.023 62.4862 142.848 61.9227H138.853C138.665 62.5716 138.433 63.2204 138.293 63.8885C138.14 64.6179 138.295 64.7917 139.056 64.9866C139.185 65.0188 139.309 65.0671 139.471 65.1202V65.7143H132.668C131.847 64.51 131.003 63.2767 130.162 62.0435C129.802 61.5138 129.461 60.968 129.072 60.4593C128.878 60.2049 128.598 60.0149 128.282 59.7283C128.21 59.9763 128.155 60.0713 128.158 60.1662C128.185 61.3931 128.19 62.6215 128.266 63.8451C128.316 64.6485 128.549 64.8304 129.359 64.9447C129.62 64.9817 129.881 65.0316 130.171 65.0799V65.7159H124.59C124.579 65.5082 124.569 65.3118 124.561 65.1459C124.635 65.0993 124.656 65.0799 124.682 65.0719C125.883 64.6984 125.972 64.5953 125.98 63.3508C125.997 60.6009 126.005 57.8511 126.017 55.1012C126.017 55.0738 126.017 55.0481 126.017 55.0207C126.004 53.7681 125.946 53.6844 124.788 53.269V52.741C126.963 52.7683 129.108 52.5494 131.227 52.8521C132.813 53.0791 133.785 54.1964 133.899 55.5424C134.062 57.4792 133.35 58.7704 131.756 59.4257C131.61 59.4852 131.462 59.5416 131.185 59.6494H131.183ZM128.148 58.6239C129.377 58.706 130.517 58.7833 131.28 57.7142C131.872 56.8819 131.787 55.1334 131.198 54.3638C130.654 53.6554 129.385 53.3882 128.131 53.7842C128.094 55.3524 128.134 56.9608 128.148 58.6239V58.6239ZM142.473 60.6847C141.951 59.0087 141.458 57.4212 140.966 55.8338C140.914 55.8418 140.863 55.8515 140.811 55.8595C140.305 57.4518 139.798 59.0457 139.277 60.6863H142.473V60.6847Z" fill="#EEEEEE"/>
<path d="M85.7987 55.1072C85.855 57.9891 85.9001 60.8694 85.9742 63.7512C85.9967 64.6142 86.2044 64.8074 87.0335 64.9764C87.1623 65.0022 87.2863 65.0457 87.4618 65.0956V65.746H83.1293C83.1067 65.5464 83.0842 65.3548 83.0601 65.1519C83.2323 65.0827 83.3499 65.0167 83.477 64.9877C84.3996 64.7784 84.6234 64.5723 84.633 63.6546C84.6652 60.7438 84.6797 57.8329 84.6701 54.9221C84.6668 53.8466 84.4189 53.5938 83.3531 53.325C83.3241 53.2654 83.2726 53.1994 83.2629 53.1269C83.2517 53.0529 83.2822 52.9724 83.308 52.8226H87.5858C88.658 55.9686 89.7335 59.1193 90.8074 62.2701C90.8525 62.2701 90.8975 62.2733 90.9426 62.2749C92.0084 59.1241 93.0743 55.9734 94.1497 52.7969H98.2536C98.2697 52.9756 98.2842 53.1205 98.2955 53.2557C97.0783 53.7001 96.9012 53.9206 96.8996 55.1829C96.8964 57.8539 96.9141 60.5232 96.9302 63.1942C96.9302 63.4325 96.9689 63.6724 96.9978 63.9106C97.0719 64.5418 97.352 64.9652 98.0588 64.9861C98.186 64.9893 98.31 65.0618 98.4726 65.1149V65.7557H93.1644C93.1435 65.5496 93.1242 65.3532 93.1081 65.1938C93.2047 65.1181 93.2417 65.0682 93.29 65.0553C94.549 64.7333 94.5667 64.7366 94.6988 63.4212C94.7599 62.8126 94.7551 62.1944 94.7567 61.581C94.7632 59.3672 94.7599 57.1519 94.6666 54.9076C93.4413 58.5606 92.2145 62.2137 90.978 65.9006H89.7689C88.5131 62.2829 87.2573 58.6669 86.0031 55.0493C85.9371 55.0686 85.8695 55.0895 85.8035 55.1088L85.7987 55.1072Z" fill="#EEEEEE"/>
<path d="M29.2832 74.7167C31.0945 73.155 32.9041 71.5934 34.7669 69.9866C33.2197 68.3959 31.7014 66.8342 30.1268 65.2146C29.8789 65.4931 29.6809 65.7008 29.4989 65.9198C28.6279 66.9695 27.7795 68.0385 26.8827 69.0657C26.456 69.5535 26.1646 70.0445 26.2403 70.7143C26.2596 70.8882 26.1823 71.0717 26.1405 71.3052H24.3711C26.3063 68.6294 28.1465 66.0872 30.0319 63.4806C30.7547 63.6947 31.468 63.8992 32.178 64.115C34.1518 64.7123 36.1305 65.2951 38.0931 65.9278C38.6293 66.1001 38.9883 66.0147 39.3795 65.6251C40.0799 64.928 40.835 64.284 41.5578 63.6078C41.9201 63.2681 42.3178 63.0572 42.8298 62.996C43.5704 62.9075 44.3029 62.7384 45.0564 62.6016C47.2798 64.4708 49.4839 66.3255 51.7636 68.2414C51.1084 68.5585 50.5481 68.478 49.946 68.3991C49.9041 68.1158 49.8671 67.8582 49.8123 67.4863C48.2635 66.4462 46.6503 65.3643 45 64.2566C43.5365 65.4303 42.1213 66.567 40.6949 67.7117C40.6546 68.0047 40.616 68.2897 40.5709 68.6294C40.1539 68.6535 39.7611 68.6761 39.233 68.7066C40.7834 70.1234 42.263 71.4758 43.8827 72.9554H41.8895C41.6748 72.2685 41.2541 71.6878 40.6273 71.2134C39.6902 70.5066 38.7516 69.8014 37.7711 69.0641C34.9504 71.0089 32.1667 72.928 29.383 74.8471C29.3492 74.8037 29.3154 74.7602 29.2816 74.7167H29.2832Z" fill="#EEEEEE"/>
<path d="M119.676 59.6962H114.68C114.68 61.1532 114.658 62.5588 114.692 63.9643C114.704 64.5326 115.025 64.9061 115.651 64.9431C115.807 64.9528 115.959 65.0172 116.165 65.0703C116.176 65.2748 116.187 65.4696 116.202 65.7192H111.069V65.1025C112.362 64.6485 112.442 64.5519 112.452 63.14C112.473 60.469 112.479 57.798 112.486 55.127C112.486 54.8614 112.473 54.5925 112.434 54.3301C112.368 53.8745 112.153 53.5444 111.663 53.4156C111.323 53.3255 111.333 53.2949 111.24 52.8087C112.81 52.6428 114.366 52.7636 115.967 52.7314V53.3013C115.831 53.3351 115.706 53.3834 115.579 53.3979C114.967 53.4671 114.651 53.8551 114.637 54.4138C114.601 55.7404 114.626 57.0687 114.626 58.4484H119.707C119.869 57.0156 119.969 55.6181 119.737 54.2126C119.655 53.7151 119.312 53.4929 118.855 53.4124C118.536 53.356 118.258 53.2852 118.427 52.7926H123.202C123.218 52.9664 123.231 53.092 123.246 53.253C123.08 53.3094 122.938 53.3738 122.788 53.4043C122.292 53.5058 122.069 53.8471 122.011 54.3059C121.97 54.6231 121.972 54.9451 121.972 55.2655C121.98 57.9365 121.993 60.6074 122.006 63.2784C122.006 63.4652 122.006 63.6535 122.02 63.8387C122.073 64.5632 122.242 64.7628 122.938 64.9415C123.091 64.9818 123.239 65.0381 123.419 65.0977V65.7079H118.229C118.209 65.5163 118.19 65.3231 118.169 65.1202C118.346 65.0526 118.465 64.9882 118.591 64.9625C119.586 64.7612 119.715 64.6421 119.739 63.6616C119.768 62.5137 119.76 61.3641 119.761 60.2162C119.761 60.0633 119.715 59.9087 119.679 59.693L119.676 59.6962Z" fill="#EEEEEE"/>
<path d="M157.655 62.14C157.655 61.752 157.653 61.3656 157.655 60.9776C157.663 59.3209 157.674 57.6658 157.682 56.0091C157.684 55.6887 157.692 55.3683 157.676 55.048C157.619 53.8485 157.442 53.6199 156.306 53.2689V52.7875H160.358V53.2915C160.25 53.3253 160.152 53.3639 160.05 53.3848C159.144 53.5764 158.88 53.8694 158.835 54.7904C158.811 55.2975 158.82 55.8047 158.822 56.3118C158.83 59.1695 158.84 62.0273 158.848 64.8866C158.848 65.1989 158.848 65.5113 158.848 65.8784H156.8C154.81 62.4668 152.784 58.9908 150.674 55.37C150.635 55.6855 150.596 55.8497 150.596 56.014C150.606 58.4177 150.619 60.8214 150.633 63.2251C150.633 63.465 150.632 63.7081 150.667 63.9448C150.749 64.4873 150.967 64.9156 151.608 64.9591C151.735 64.9671 151.859 65.0396 152.016 65.0927C152.029 65.2778 152.044 65.4533 152.065 65.7383C150.675 65.8124 149.326 65.7785 147.916 65.7544C147.888 65.5226 147.864 65.3294 147.845 65.1732C147.937 65.0959 147.972 65.0428 148.017 65.0315C149.238 64.6934 149.305 64.6274 149.334 63.3265C149.362 62.0981 149.345 60.8697 149.365 59.6413C149.383 58.4676 149.434 57.2923 149.447 56.1186C149.452 55.6404 149.384 55.1623 149.36 54.6825C149.326 53.9918 149.056 53.5169 148.309 53.3768C148.151 53.3478 148.03 53.1111 147.893 52.9695C147.925 52.8938 147.958 52.8181 147.99 52.7425C148.647 52.7376 149.304 52.7328 149.962 52.7312C150.603 52.7296 151.244 52.7312 151.938 52.7312C153.807 55.8932 155.663 59.0343 157.518 62.1738C157.563 62.1625 157.608 62.1512 157.651 62.14H157.655Z" fill="#EEEEEE"/>
<path d="M99.9376 52.7349C100.472 52.7349 101.003 52.7349 101.535 52.7349C102.766 52.7381 104 52.7124 105.231 52.7575C105.758 52.7768 106.3 52.8814 106.796 53.0569C107.941 53.4626 108.683 54.2338 108.81 55.5025C108.942 56.834 108.379 57.7661 107.22 58.3828C107.089 58.452 106.967 58.5405 106.737 58.6854C106.999 58.7563 107.146 58.7981 107.292 58.8336C108.801 59.2055 109.76 60.3969 109.807 61.9521C109.863 63.8921 109.065 64.995 107.181 65.5231C106.721 65.6519 106.236 65.7501 105.761 65.7581C103.86 65.7855 101.957 65.7742 100.055 65.771C99.9006 65.771 99.7461 65.7356 99.5512 65.7114C99.5384 65.5037 99.5287 65.3283 99.519 65.1673C99.6189 65.0996 99.6784 65.0336 99.7493 65.0143C100.841 64.7116 100.904 64.6649 100.925 63.5573C100.978 60.7816 101.012 58.0076 101.042 55.232C101.045 54.9148 100.981 54.5961 100.944 54.2789C100.894 53.8394 100.69 53.519 100.231 53.4224C99.9135 53.3548 99.7364 53.2195 99.9376 52.7333V52.7349ZM103.227 59.5194C103.227 60.8831 103.19 62.1823 103.245 63.4768C103.267 64.0129 103.655 64.4524 104.203 64.5313C104.774 64.615 105.379 64.6102 105.951 64.5217C106.471 64.4412 106.856 64.0612 107.06 63.5653C107.469 62.572 107.431 61.5705 106.933 60.6303C106.759 60.3019 106.415 60.0072 106.078 59.8301C105.194 59.3681 104.235 59.4212 103.227 59.5178V59.5194ZM103.217 53.7734V58.3715C103.818 58.3151 104.346 58.3039 104.859 58.2089C105.742 58.0479 106.3 57.4973 106.44 56.6182C106.513 56.1561 106.476 55.6667 106.423 55.1966C106.329 54.3723 105.806 53.8909 105.009 53.7879C104.441 53.7138 103.853 53.7734 103.217 53.7734V53.7734Z" fill="#EEEEEE"/>
<path d="M58.9038 75.257C58.176 76.7768 57.0925 77.9859 55.6306 78.8553C53.982 79.8358 52.1675 80.2496 50.2693 80.3397C47.2409 80.483 44.2978 79.9388 41.3853 79.1934C39.5982 78.7362 37.8337 78.1727 36.0305 77.7879C31.0588 76.7221 26.0984 76.7623 21.1734 78.1228C21.0011 78.1711 20.824 78.2033 20.5986 78.1421C20.7596 78.0374 20.911 77.9151 21.0816 77.8298C23.3131 76.7285 25.6878 76.1232 28.1479 75.8237C32.3967 75.3053 36.5215 75.9106 40.5868 77.1503C43.1483 77.9312 45.7549 78.5623 48.4259 78.8135C50.6187 79.0195 52.8163 79.0501 54.9142 78.1775C56.3294 77.5883 57.5063 76.6915 58.4658 75.5049C58.564 75.3826 58.6719 75.2699 58.7766 75.1523C58.8184 75.1878 58.8619 75.2232 58.9038 75.2586V75.257Z" fill="#EEEEEE"/>
<path d="M76.211 52.6172H77.2704C77.4362 53.0503 77.6166 53.4882 77.7727 53.9342C78.8466 57.006 79.9173 60.0811 80.9879 63.1546C81.0137 63.2302 81.041 63.3059 81.0684 63.38C81.3727 64.2172 81.7478 64.9803 82.8652 64.9658V65.7289H77.5956V65.0817C77.7228 65.0334 77.8178 64.9835 77.9209 64.9594C78.7919 64.7613 78.8885 64.6374 78.6808 63.7648C78.5407 63.1707 78.3378 62.5911 78.143 61.939C76.8309 61.8118 75.5332 61.8907 74.184 61.8891C73.8443 62.8438 73.4016 63.7277 73.6495 64.7984C74.0247 64.9095 74.3772 65.0125 74.7636 65.1252V65.7209H70.8755V65.0254C71.9622 64.9046 72.2987 64.1157 72.5901 63.2399C73.6753 59.9732 74.7862 56.7162 75.8906 53.456C75.984 53.1823 76.0967 52.915 76.211 52.6172V52.6172ZM76.2497 55.8388C76.2014 55.8339 76.1515 55.8307 76.1032 55.8259C75.5912 57.4327 75.0776 59.0394 74.5527 60.6865H77.7534C77.2366 59.0185 76.7439 57.4278 76.2513 55.8372L76.2497 55.8388Z" fill="#EEEEEE"/>
<path d="M63.4563 64.9016C63.276 65.2541 63.1472 65.5053 62.9894 65.8128C62.8509 65.6953 62.6851 65.6228 62.6803 65.5407C62.6014 64.1915 62.5434 62.8408 62.479 61.453C62.7205 61.4369 62.8686 61.4272 63.0554 61.4143C63.1552 61.7733 63.2357 62.1066 63.3387 62.4318C63.87 64.1094 65.121 64.9515 66.789 64.7647C67.6696 64.6665 68.3539 64.111 68.5407 63.3431C68.7709 62.3932 68.5407 61.7363 67.697 61.2115C67.0627 60.8186 66.3527 60.5465 65.7215 60.1505C65.0244 59.7142 64.2919 59.2795 63.7268 58.6983C62.4951 57.4328 62.421 55.2175 63.4724 53.8168C64.0471 53.052 64.8151 52.6141 65.794 52.5706C67.1915 52.5079 67.338 52.5449 68.8224 53.4304C68.9721 53.2082 69.1235 52.986 69.3006 52.7252C69.5292 53.2082 69.6966 55.4815 69.5936 56.3316C69.1637 56.5602 69.0285 56.2543 68.9383 55.9371C68.7274 55.1981 68.3619 54.5606 67.7614 54.0695C67.053 53.4899 66.2593 53.3789 65.4317 53.7524C64.2001 54.3094 64.0101 55.892 65.0904 56.7003C65.5348 57.0319 66.0693 57.2444 66.5587 57.5198C67.3509 57.9625 68.1865 58.3473 68.9206 58.8721C70.4083 59.9363 70.9267 61.6751 70.3551 63.3479C69.8254 64.8967 68.3426 65.8724 66.5716 65.9464C65.4108 65.9947 64.411 65.6679 63.4563 64.8999V64.9016Z" fill="#EEEEEE"/>
<path d="M169.645 65.1048C169.672 65.2352 169.707 65.3366 169.711 65.438C169.714 65.5121 169.675 65.5894 169.64 65.7246H163.746C163.72 65.5556 163.693 65.364 163.652 65.0967C163.99 65.0291 164.272 64.9808 164.551 64.9164C165.154 64.7763 165.47 64.4318 165.546 63.8168C165.571 63.6059 165.573 63.3901 165.573 63.1776C165.587 60.3199 165.6 57.4622 165.61 54.606C165.61 54.3677 165.589 54.1311 165.578 53.9186C164 52.8801 161.981 53.7382 161.678 55.5157C161.625 55.828 161.752 56.282 161.257 56.4237C161.009 55.82 161.015 53.6867 161.273 52.8125H172.19C172.406 53.6336 172.407 55.828 172.182 56.4479C172.055 56.3561 171.891 56.2981 171.842 56.1903C171.759 55.9987 171.739 55.7781 171.705 55.5672C171.482 54.1407 170.834 53.5756 169.376 53.5772C168.878 53.5772 168.352 53.4726 167.858 53.8687C167.84 54.0651 167.798 54.3001 167.8 54.5336C167.809 57.4444 167.824 60.3553 167.838 63.2662C167.838 63.3998 167.843 63.5334 167.854 63.6671C167.919 64.4672 168.202 64.7731 169.023 64.947C169.229 64.9905 169.432 65.05 169.645 65.1032V65.1048Z" fill="#EEEEEE"/>
<path d="M45.7121 62.7878C45.411 62.5866 45.1953 62.4401 44.9683 62.2887C44.3178 62.3805 43.6642 62.4723 42.9123 62.5785C42.8833 62.2533 42.8383 62.0005 42.8415 61.7478C42.8817 58.4167 42.922 55.084 42.9848 51.7529C42.9896 51.4889 43.0975 51.1492 43.281 50.9785C44.02 50.2943 44.8073 49.6632 45.7121 48.8984V62.7878V62.7878Z" fill="#EEEEEE"/>
<path d="M35.7583 55.1341V64.8616C34.422 64.4768 33.1727 64.1178 31.9587 63.7684C31.7124 62.9828 31.706 59.6919 31.9394 57.4605C33.1051 56.6845 34.3383 55.8618 35.5716 55.0391C35.6344 55.0713 35.6956 55.1035 35.7583 55.1357V55.1341Z" fill="#EEEEEE"/>
<path d="M49.8626 66.2807C49.1719 65.7253 48.5633 65.2632 47.995 64.7577C47.863 64.6402 47.8082 64.3729 47.8098 64.1765C47.8227 60.2851 47.8485 56.3938 47.8759 52.5024C47.8759 52.4042 47.929 52.3076 47.9902 52.1016C48.697 52.533 49.2669 53.0354 49.8014 53.5683C49.9093 53.6761 49.9109 53.9176 49.9125 54.0963C49.927 58.0151 49.935 61.9322 49.9431 65.8509C49.9431 65.9282 49.9157 66.0054 49.8626 66.2807V66.2807Z" fill="#EEEEEE"/>
<path d="M62.3335 74.1372V73.0167C62.9517 72.78 78.3804 72.7253 79.319 72.9571V74.0986C78.7491 74.3014 63.3204 74.3513 62.3335 74.1372Z" fill="#EEEEEE"/>
<path d="M186.682 74.1336V73.0098C187.312 72.7764 202.776 72.7297 203.674 72.9567V74.0998C203.085 74.3011 187.619 74.3413 186.682 74.132V74.1336Z" fill="#EEEEEE"/>
<path d="M181.389 57.1815C181.578 56.9561 181.732 56.771 181.922 56.544C182.212 57.2314 182.099 59.0169 181.75 59.6561C181.655 59.508 181.56 59.3953 181.502 59.2665C181.372 58.9751 181.29 58.6595 181.137 58.3826C180.736 57.6613 180.151 57.1799 179.277 57.2105C178.372 57.2411 177.797 57.7772 177.427 58.542C176.975 59.4774 176.867 60.4949 176.915 61.5076C176.949 62.216 177.104 62.934 177.31 63.6167C177.558 64.4378 178.126 64.9835 179.029 65.0882C180.056 65.2073 180.881 64.8757 181.397 63.9532C181.578 63.6312 181.676 63.2641 181.826 62.9228C181.884 62.7907 181.979 62.6764 182.149 62.5669C182.405 63.6102 182.363 64.6422 182.256 65.6742C182.188 65.6919 182.119 65.708 182.051 65.7258C181.929 65.5004 181.806 65.275 181.644 64.9771C180.774 65.6597 179.779 65.8513 178.704 65.7789C177.651 65.708 176.794 65.2798 176.155 64.4539C174.853 62.7682 174.93 59.5804 176.26 57.9092C177.461 56.4007 179.486 56.2848 180.766 56.8708C180.959 56.9594 181.148 57.0608 181.389 57.1799V57.1815Z" fill="#EEEEEE"/>
<path d="M190.84 57.435C190.132 57.2386 189.47 57.1967 188.846 57.5059C188.208 57.823 188.229 58.554 187.933 59.1175C187.722 58.3044 187.77 57.5155 187.864 56.6719H195.353C195.619 57.4237 195.63 58.8035 195.342 59.2028C195.002 58.5813 195.096 57.7103 194.281 57.427C193.709 57.2289 193.133 57.2579 192.479 57.4093C192.457 57.72 192.421 58.0033 192.42 58.2867C192.415 60.0207 192.417 61.7562 192.417 63.4902C192.417 64.4454 192.849 65.0964 193.714 65.4431C193.386 66.0034 192.856 65.6927 192.446 65.741C191.943 65.7989 191.426 65.786 190.921 65.7458C190.485 65.7104 189.982 65.9406 189.549 65.4801C189.678 65.3948 189.75 65.3159 189.839 65.2918C190.715 65.0406 190.934 64.8458 190.947 63.9796C190.977 61.9526 190.958 59.9241 190.952 57.8955C190.952 57.7683 190.892 57.6411 190.839 57.4318L190.84 57.435Z" fill="#EEEEEE"/>
<path d="M195.77 56.8841C196.448 56.5009 198.621 56.5138 199.175 56.8809C198.937 57.0226 198.723 57.1498 198.51 57.2769C198.446 57.8437 199.234 59.89 200.115 61.3695C200.751 59.9914 201.54 58.7823 201.947 57.3558C201.653 57.19 201.432 57.066 201.207 56.9405C201.548 56.5364 202.843 56.4671 203.612 56.7875C203.612 56.839 203.631 56.926 203.609 56.9372C202.875 57.322 202.524 58.0159 202.181 58.7066C201.801 59.4714 201.513 60.2909 201.063 61.0105C200.408 62.0618 200.46 63.1856 200.485 64.3351C200.5 64.9791 200.931 65.2287 201.469 65.4219C201.461 65.4798 201.453 65.5362 201.445 65.5942C201.274 65.6441 201.105 65.7278 200.931 65.7391C199.244 65.8485 198.391 65.7745 198.003 65.5056C198.021 65.4573 198.03 65.3736 198.059 65.3655C198.837 65.182 198.995 64.604 199.024 63.9182C199.059 63.081 198.983 62.2905 198.563 61.5225C198.103 60.6805 197.755 59.7789 197.349 58.9079C196.985 58.127 196.729 57.2657 195.771 56.8857L195.77 56.8841Z" fill="#EEEEEE"/>
<path d="M186.779 56.8073C186.779 56.8347 186.789 56.8781 186.779 56.8846C186 57.3 185.957 57.9987 185.973 58.7715C186.008 60.3444 185.982 61.9174 185.982 63.4904C185.982 64.3844 186.3 65.0499 186.935 65.4868C186.853 65.82 186.572 65.7283 186.356 65.7379C184.49 65.8232 183.905 65.7717 183.506 65.5045C183.524 65.4562 183.533 65.3708 183.561 65.366C184.306 65.2002 184.503 64.6415 184.509 63.9927C184.525 62.1267 184.516 60.2607 184.517 58.3947C184.517 57.7137 184.269 57.1728 183.567 56.9023C184.089 56.5191 186.156 56.4901 186.778 56.8057L186.779 56.8073Z" fill="#EEEEEE"/>
<path d="M121.192 75.3429H119.23C119.629 74.9694 119.656 74.5814 119.301 74.1531H117.929C117.837 74.3834 117.742 74.6217 117.646 74.8632C117.794 75.0274 117.91 75.1562 118.088 75.3542H112.584C113.453 74.7553 113.167 73.9744 113.163 73.2821C113.162 72.6043 113.443 71.8444 112.721 71.2616C112.872 71.2197 112.967 71.1714 113.064 71.1714C114.078 71.1666 115.091 71.1682 116.185 71.1682C116.221 71.5675 116.253 71.9137 116.284 72.2598L116.15 72.3934C115.715 71.524 115.037 71.3904 114.182 71.6448V73.0004C114.74 73.2258 115 72.8732 115.327 72.3902C115.496 73.0278 115.479 73.5156 115.348 74.1322C115.007 73.7329 114.752 73.2886 114.195 73.5719C114.178 73.6363 114.133 73.7136 114.141 73.7861C114.184 74.2047 113.914 74.736 114.513 74.9678C115.066 75.1819 115.755 74.9565 116.142 74.4655C116.2 74.3914 116.271 74.327 116.416 74.1757C116.465 74.3946 116.499 74.509 116.515 74.6249C116.533 74.7553 116.533 74.8873 116.543 75.0483C117.014 75.1288 117.153 74.8036 117.282 74.4929C117.639 73.6315 117.982 72.7637 118.338 71.9008C118.438 71.6593 118.565 71.429 118.66 71.231C119.136 71.0893 119.215 71.4097 119.328 71.6754C119.631 72.387 119.937 73.097 120.225 73.8134C120.449 74.3705 120.634 74.9469 121.192 75.3413V75.3429ZM118.734 72.4659C118.679 72.4739 118.626 72.4836 118.571 72.4916C118.425 72.8684 118.28 73.2435 118.104 73.6927H119.19C119.025 73.2483 118.879 72.8571 118.734 72.4643V72.4659Z" fill="#EEEEEE"/>
<path d="M156.358 75.3127H154.376C154.991 74.8635 154.965 74.2694 154.933 73.6593C154.911 73.2342 154.928 72.806 154.817 72.3391C154.383 73.3437 153.946 74.3467 153.536 75.2934C153.04 75.4673 152.937 75.171 152.816 74.899C152.462 74.0972 152.106 73.2954 151.65 72.5113V74.7911C151.807 74.9038 151.985 75.0342 152.261 75.2338C151.589 75.4544 151.047 75.419 150.292 75.2548C151.322 74.7573 151.061 73.9571 151.056 73.2568C151.051 72.5773 151.333 71.7949 150.535 71.2314H152.243C152.61 72.096 153.003 73.0153 153.457 74.0827C153.904 73.0394 154.292 72.1394 154.685 71.2266H156.308C155.706 71.6838 155.801 72.2875 155.804 72.8607C155.804 73.2342 155.817 73.6093 155.801 73.9829C155.78 74.4884 155.832 74.9489 156.464 75.134C156.429 75.1936 156.393 75.2548 156.36 75.3143L156.358 75.3127Z" fill="#EEEEEE"/>
<path d="M123.159 75.3285H121.549C122.35 74.7746 122.118 73.9841 122.103 73.2822C122.089 72.6028 122.387 71.8171 121.437 71.3276C122.094 71.0475 122.639 71.1892 123.263 71.1811C123.654 72.1004 124.047 73.023 124.504 74.0968C124.947 73.0616 125.333 72.16 125.731 71.2278H127.349C126.627 71.8106 126.835 72.5706 126.861 73.2548C126.887 73.9262 126.542 74.7344 127.44 75.2303C126.767 75.475 126.098 75.3945 125.364 75.2737C126.107 74.8712 125.975 74.2127 125.975 73.5993C125.975 73.2001 125.975 72.7992 125.866 72.3564C125.43 73.3546 124.992 74.3528 124.576 75.2995C124.098 75.4798 123.987 75.1916 123.866 74.9163C123.512 74.1129 123.158 73.3095 122.702 72.519V74.802C122.849 74.9066 123.031 75.0371 123.213 75.1675C123.195 75.2206 123.179 75.2737 123.161 75.3269L123.159 75.3285Z" fill="#EEEEEE"/>
<path d="M59.9475 76.136C59.7527 77.028 59.2664 77.7444 58.6981 78.4093C57.0591 80.3284 54.9146 81.3524 52.4722 81.7597C48.9818 82.3409 45.6056 81.7517 42.3002 80.615C42.2053 80.5828 42.1248 80.5023 41.8945 80.3494C43.3371 80.5957 44.6106 80.8517 45.8954 81.0256C48.3989 81.3669 50.9009 81.449 53.3867 80.834C56.048 80.1755 58.1829 78.7877 59.677 76.4693C59.7543 76.3502 59.8557 76.2455 59.9459 76.1328L59.9475 76.136Z" fill="#EEEEEE"/>
<path d="M177.656 71.2363H179.438C178.755 71.679 178.921 72.3408 178.918 72.9477C178.913 73.7157 178.918 74.4853 178.918 75.2484C178.383 75.4996 178.042 75.4013 177.751 74.9844C177.308 74.35 176.844 73.7302 176.382 73.1087C176.213 72.8817 176.026 72.6708 175.732 72.3102C175.732 73.1538 175.693 73.8139 175.751 74.4676C175.775 74.7364 176.007 74.9876 176.174 75.3064C175.654 75.4416 175.141 75.4416 174.395 75.25C175.271 74.899 175.2 74.3049 175.187 73.7286C175.179 73.3293 175.166 72.9268 175.191 72.5291C175.22 72.0429 175.137 71.6243 174.55 71.3941C175.117 70.9868 175.649 71.2556 176.176 71.1445C176.836 72.0461 177.477 72.922 178.119 73.7978C178.176 73.7817 178.232 73.764 178.288 73.7479C178.172 72.9332 178.726 72.0381 177.659 71.2379L177.656 71.2363Z" fill="#EEEEEE"/>
<path d="M144.432 71.227C145.501 71.227 146.372 71.1803 147.235 71.2463C147.697 71.2817 148.094 71.5844 148.181 72.098C148.267 72.5938 148.044 72.9754 147.631 73.2523C147.523 73.3248 147.416 73.3972 147.204 73.5421C147.782 74.1507 148.32 74.7174 148.84 75.2664C148.089 75.5659 147.748 75.487 147.22 74.8559C146.864 74.4308 146.505 74.0074 146.038 73.4552V74.9396C146.227 75.0378 146.428 75.1441 146.629 75.2503C146.623 75.2825 146.615 75.3147 146.608 75.3469H144.588C145.283 74.7464 145.026 73.9784 145.008 73.2845C144.99 72.6116 145.357 71.8355 144.43 71.2286L144.432 71.227ZM146.017 73.0302C146.537 73.1332 146.951 73.0801 147.128 72.6599C147.225 72.4312 147.204 72.0609 147.077 71.8532C146.838 71.4636 146.426 71.5135 146.019 71.6295V73.0302H146.017Z" fill="#EEEEEE"/>
<path d="M107.912 71.227C108.985 71.227 109.856 71.1803 110.719 71.2463C111.181 71.2817 111.578 71.5844 111.667 72.098C111.752 72.5938 111.532 72.9754 111.118 73.2523C111.01 73.3248 110.904 73.3972 110.69 73.5421C111.266 74.1507 111.805 74.7174 112.325 75.2664C111.583 75.5675 111.235 75.4886 110.707 74.8575C110.382 74.4695 110.057 74.0799 109.727 73.6951C109.696 73.658 109.638 73.6452 109.526 73.5872V74.9396C109.712 75.0378 109.914 75.1441 110.115 75.2503C110.108 75.2825 110.102 75.3147 110.096 75.3469H108.075C108.77 74.7464 108.514 73.98 108.495 73.2861C108.477 72.6132 108.848 71.8355 107.914 71.2286L107.912 71.227ZM109.501 73.0318C110.023 73.1348 110.437 73.0817 110.612 72.6599C110.707 72.4312 110.686 72.0609 110.559 71.8532C110.319 71.4652 109.907 71.5135 109.503 71.6327V73.0318H109.501Z" fill="#EEEEEE"/>
<path d="M97.0124 75.3273C97.592 74.6108 97.5936 71.9721 96.9158 71.1944C97.9236 71.1703 98.8365 71.0608 99.7413 71.2717C100.145 71.3651 100.472 71.6243 100.559 72.0654C100.651 72.5291 100.469 72.8994 100.104 73.1844C99.9796 73.281 99.8428 73.3599 99.6705 73.4758C100.087 74.2099 100.656 74.7734 101.411 75.3128C100.583 75.4802 99.9651 75.4802 99.5111 74.759C99.2358 74.3226 98.8494 73.9556 98.3986 73.4227V74.9087C98.5918 75.0182 98.7914 75.1309 99.1392 75.3273H97.0124V75.3273ZM98.4082 73.0218C98.8687 73.1393 99.2776 73.1007 99.4837 72.7062C99.598 72.4873 99.6061 72.1121 99.4934 71.8948C99.2825 71.4875 98.8607 71.5019 98.4082 71.6259V73.0202V73.0218Z" fill="#EEEEEE"/>
<path d="M102.809 75.3783C103.521 74.6603 103.576 72.0972 102.974 71.2197C103.904 71.2197 104.822 71.1054 105.698 71.2455C107.089 71.4693 107.855 72.8732 107.37 74.0775C107.061 74.847 106.453 75.2898 105.665 75.3606C104.767 75.4395 103.856 75.3783 102.809 75.3783V75.3783ZM104.311 71.6255C104.311 72.0424 104.311 72.387 104.311 72.7331C104.311 73.266 104.318 73.7989 104.313 74.3318C104.31 74.7134 104.498 74.9469 104.865 74.9936C105.403 75.0612 105.88 74.9098 106.208 74.4558C106.615 73.8955 106.607 72.7685 106.187 72.1712C105.741 71.5401 105.107 71.4789 104.31 71.6255H104.311Z" fill="#EEEEEE"/>
<path d="M40.4672 64.0331V46.6758C40.6684 46.8674 40.8214 46.9495 40.8616 47.0686C40.9196 47.2393 40.9051 47.4373 40.9035 47.6225C40.8954 52.7503 40.8874 57.8781 40.8729 63.0059C40.8729 63.3553 40.9647 63.7562 40.4656 64.0315L40.4672 64.0331Z" fill="#EEEEEE"/>
<path d="M88.8757 75.3999C88.7887 75.387 88.544 75.3806 88.3138 75.3178C87.1208 74.9894 86.4156 73.901 86.6974 72.8481C87.029 71.6068 88.3734 70.8791 89.6823 71.2349C90.7948 71.5359 91.5435 72.5406 91.3953 73.5323C91.2343 74.6126 90.241 75.3967 88.8757 75.3999ZM90.3215 73.3407C90.3022 73.1218 90.3054 72.8787 90.2571 72.6468C90.1234 72.0109 89.6276 71.5762 89.0463 71.5585C88.4957 71.5408 87.9467 71.8998 87.8276 72.5132C87.7294 73.0187 87.7294 73.5758 87.8276 74.0813C87.9451 74.6819 88.5054 75.028 89.0689 75.0039C89.6791 74.9765 90.1492 74.5563 90.27 73.9171C90.3038 73.7352 90.3038 73.5468 90.3215 73.3407Z" fill="#EEEEEE"/>
<path d="M136.5 75.4008C136.412 75.3895 136.167 75.3831 135.938 75.3203C134.747 74.9951 134.035 73.9067 134.314 72.8538C134.642 71.6125 135.985 70.8816 137.294 71.2325C138.407 71.5304 139.158 72.5334 139.014 73.5268C138.856 74.6071 137.864 75.3944 136.5 75.4008V75.4008ZM137.959 73.3239C137.914 73.0373 137.904 72.7395 137.816 72.4658C137.637 71.9023 137.159 71.5465 136.629 71.5642C136.066 71.5819 135.661 71.8717 135.486 72.4014C135.388 72.6976 135.343 73.0212 135.339 73.3336C135.328 74.3785 135.832 75.0096 136.64 75.0047C137.457 75.0015 137.928 74.3849 137.957 73.3223L137.959 73.3239Z" fill="#EEEEEE"/>
<path d="M171.619 71.168C173.301 71.168 174.438 72.5188 173.987 73.8905C173.662 74.879 172.617 75.494 171.425 75.399C170.389 75.3153 169.508 74.557 169.329 73.5942C169.13 72.5188 170.086 71.3451 171.297 71.1857C171.429 71.168 171.564 71.1728 171.619 71.1696V71.168ZM172.995 73.1402C172.981 73.0372 172.977 72.7651 172.905 72.5139C172.742 71.9536 172.274 71.5882 171.747 71.564C171.218 71.5399 170.743 71.857 170.542 72.4334C170.448 72.7023 170.413 73.0017 170.408 73.2899C170.389 74.3783 170.909 75.0368 171.739 75.011C172.551 74.9869 173.005 74.3702 172.995 73.1418V73.1402Z" fill="#EEEEEE"/>
<path d="M41.136 47.1367C41.656 47.383 41.5449 47.7694 41.5465 48.0947C41.5562 49.9091 41.5514 51.722 41.5514 53.5364C41.5514 56.4972 41.5546 59.458 41.5465 62.4187C41.5465 62.7665 41.6512 63.1738 41.136 63.4314V47.1367Z" fill="#EEEEEE"/>
<path d="M207.167 50.1883C207.036 51.6485 207.057 51.7934 207.506 52.4052H206.396C206.906 51.3362 206.869 50.2752 206.424 49.145H207.556C207.822 49.8405 208.094 50.5554 208.427 51.4296C208.753 50.5859 209.028 49.8711 209.314 49.1289H210.38C210.055 50.2495 209.923 51.3265 210.467 52.4278H208.978C209.711 51.758 209.39 50.9884 209.35 50.235C209.05 50.9836 208.751 51.7323 208.451 52.4809C208.373 52.4825 208.295 52.4841 208.216 52.4857C207.725 51.8192 207.611 50.9514 207.168 50.1883H207.167Z" fill="#EEEEEE"/>
<path d="M139.561 71.234H141.481C140.549 72.1984 140.995 73.3045 140.995 74.3397C140.995 74.7744 141.383 74.9483 141.784 75.0014C142.251 75.0642 142.785 74.8646 142.835 74.4669C142.94 73.6313 142.946 72.778 142.916 71.936C142.908 71.6929 142.637 71.4578 142.494 71.2308C142.933 71.0827 143.511 71.1439 144.287 71.2743C143.412 71.7219 143.569 72.4077 143.561 73.0453C143.56 73.2047 143.561 73.3657 143.561 73.5251C143.542 75.1447 142.096 75.9787 140.65 75.2075C140.201 74.9676 140.015 74.5667 139.994 74.0886C139.969 73.5283 139.979 72.968 139.976 72.4077C139.973 72.0052 140.035 71.5754 139.393 71.4417C139.449 71.3725 139.504 71.3033 139.561 71.234V71.234Z" fill="#EEEEEE"/>
<path d="M93.8563 71.3195C93.2799 71.6141 93.3008 72.0955 93.3121 72.5801C93.3234 73.0872 93.2976 73.596 93.3346 74.1015C93.3749 74.6795 93.6438 74.9403 94.1702 75.0015C94.7321 75.0659 95.2312 74.7906 95.3004 74.2336C95.3906 73.5252 95.4051 72.7942 95.3359 72.0858C95.3101 71.8186 94.9575 71.5835 94.7128 71.2824C95.3198 71.0812 95.8978 71.1424 96.6641 71.2712C95.8607 71.7091 95.9267 72.345 95.9444 72.9665C95.9493 73.1533 95.9477 73.34 95.9444 73.5268C95.9235 75.1432 94.4697 75.9788 93.0287 75.2028C92.5812 74.9613 92.396 74.5588 92.3751 74.0806C92.3509 73.5477 92.3541 73.0132 92.3606 72.4787C92.3654 72.0456 92.396 71.6125 91.876 71.3324C92.5345 71.107 93.1591 71.1424 93.8531 71.3211L93.8563 71.3195Z" fill="#EEEEEE"/>
<path d="M41.783 62.7782V47.3867C41.9923 47.6572 42.1259 47.757 42.1533 47.881C42.1999 48.0855 42.1855 48.306 42.1855 48.5185C42.1855 52.9525 42.1855 57.3864 42.1758 61.8203C42.1758 62.1471 42.3352 62.577 41.7846 62.7782H41.783Z" fill="#EEEEEE"/>
<path d="M46.1836 48.8334C46.4187 49.4018 46.4589 62.3284 46.1917 63.1559C46.0677 62.9547 45.9341 62.8259 45.9115 62.6826C45.8681 62.3944 45.8809 62.0965 45.8809 61.8035C45.889 57.7737 45.897 53.7423 45.9131 49.7125C45.9131 49.413 45.9695 49.112 46.0001 48.8125C46.0613 48.8189 46.1224 48.827 46.182 48.8334H46.1836Z" fill="#EEEEEE"/>
<path d="M159.607 73.9557C159.726 74.1456 159.831 74.3469 159.964 74.524C160.296 74.9635 160.876 75.1422 161.312 74.9056C161.478 74.817 161.668 74.619 161.685 74.4548C161.703 74.2938 161.555 74.0539 161.407 73.9508C161.172 73.7866 160.877 73.7077 160.607 73.5934C159.753 73.2328 159.356 72.6564 159.533 72.0398C159.726 71.3732 160.423 71.0432 161.305 71.1978C161.582 71.2461 161.861 71.2799 162.175 71.3266C162.191 71.5004 162.217 71.684 162.22 71.8659C162.222 71.9931 162.191 72.1219 162.162 72.3602C161.972 72.1831 161.864 72.0414 161.722 71.9593C161.455 71.8063 161.173 71.6051 160.885 71.5858C160.697 71.5729 160.409 71.8047 160.317 71.9979C160.264 72.1106 160.467 72.4374 160.634 72.5389C160.995 72.7578 161.417 72.8786 161.796 73.0686C162.284 73.3133 162.601 73.6836 162.55 74.2712C162.505 74.7784 162.118 75.2098 161.494 75.3225C161.112 75.3918 160.703 75.3322 160.309 75.3097C160.061 75.2952 159.815 75.242 159.493 75.1954V73.9927L159.604 73.9524L159.607 73.9557Z" fill="#EEEEEE"/>
<path d="M163.346 75.1967V73.9973C163.381 73.9844 163.418 73.9715 163.454 73.9586C163.574 74.1454 163.682 74.3402 163.816 74.5173C164.169 74.9842 164.779 75.1388 165.238 74.8908C165.672 74.6542 165.708 74.2162 165.283 73.9554C165.012 73.7912 164.697 73.701 164.405 73.5722C163.605 73.2213 163.225 72.6513 163.391 72.0572C163.576 71.3875 164.275 71.0494 165.155 71.1991C165.434 71.2458 165.714 71.2796 166.039 71.3263V72.3712C165.84 72.1893 165.73 72.0589 165.592 71.9719C165.35 71.8206 165.106 71.6403 164.837 71.5759C164.532 71.5018 164.243 71.637 164.154 71.9784C164.072 72.2987 164.288 72.4694 164.547 72.5869C164.937 72.7624 165.339 72.9105 165.716 73.107C166.173 73.3452 166.463 73.7139 166.41 74.2645C166.352 74.849 165.97 75.1887 165.442 75.2981C165.038 75.3819 164.602 75.3352 164.181 75.3191C163.933 75.3094 163.687 75.2499 163.344 75.1983L163.346 75.1967Z" fill="#EEEEEE"/>
<path d="M82.3872 71.2165H84.2242C84.0906 71.4225 84.0004 71.5626 83.8571 71.7816C84.0922 72.2211 84.3482 72.7025 84.675 73.3143C85.0389 72.754 85.3335 72.3016 85.6442 71.8234C85.5203 71.6318 85.4172 71.4708 85.2546 71.2181H86.6537C86.1755 71.9329 85.6958 72.6091 85.2659 73.3159C85.1081 73.5751 85.0276 73.9019 84.9922 74.2078C84.9455 74.6007 84.9391 75.0193 85.4575 75.2398C84.8119 75.4459 84.2113 75.404 83.5754 75.3187C84.1485 74.6232 84.192 74.1547 83.7316 73.3706C83.3194 72.6703 82.8718 71.9892 82.3872 71.2148V71.2165Z" fill="#EEEEEE"/>
<path d="M36.2527 54.8493C36.2961 54.8734 36.3348 54.9024 36.367 54.9394C36.3863 55.3902 36.4201 55.8426 36.4201 56.2934C36.4249 58.8501 36.4233 61.4068 36.4233 63.9634C36.4233 64.25 36.4233 64.5366 36.4233 64.8215C36.3621 64.8441 36.3026 64.8666 36.2414 64.8876C36.1464 64.77 36.0079 64.6654 35.9661 64.5301C35.9129 64.3579 35.9291 64.1615 35.9291 63.9763C35.9339 61.2071 35.9387 58.4363 35.9548 55.6671C35.9564 55.3725 35.8244 55.0006 36.2527 54.8477V54.8493Z" fill="#EEEEEE"/>
<path d="M158.852 71.2846C158.246 71.6646 158.369 72.2184 158.364 72.7304C158.359 73.3953 158.364 74.0618 158.364 74.7445C158.56 74.8958 158.736 75.0327 159.008 75.242C158.258 75.4819 157.618 75.3933 156.809 75.3289C157.601 74.7461 157.435 74.0103 157.411 73.3277C157.387 72.6434 157.67 71.8835 156.896 71.2943C157.594 71.064 158.192 71.1655 158.853 71.2846H158.852Z" fill="#EEEEEE"/>
<path d="M166.848 71.2109H168.965C168.207 71.7229 168.339 72.3444 168.335 72.932C168.332 73.5438 168.335 74.154 168.335 74.7545C168.545 74.9091 168.711 75.0298 169.013 75.2536C168.229 75.4726 167.585 75.3808 166.87 75.339C167.577 74.418 167.593 72.0836 166.846 71.2125L166.848 71.2109Z" fill="#EEEEEE"/>
<path d="M37.0448 55.332C37.0883 55.353 37.1286 55.3803 37.1656 55.4125C37.1704 58.4007 37.1785 61.3888 37.1753 64.3753C37.1753 64.6104 37.1076 64.8455 37.0706 65.0805C36.9949 65.0805 36.9193 65.0805 36.8436 65.0805C36.8017 64.8938 36.7212 64.7086 36.7212 64.5219C36.7132 61.6673 36.7132 58.8128 36.7164 55.9583C36.7164 55.7007 36.6633 55.3997 37.0432 55.332H37.0448Z" fill="#EEEEEE"/>
<path d="M46.816 49.2339V63.4872C46.7741 63.4984 46.7307 63.5081 46.6888 63.5194C46.6373 63.3729 46.5439 63.228 46.5391 63.0798C46.5214 62.468 46.531 61.8546 46.5326 61.2412C46.5375 57.5109 46.5423 53.7805 46.5471 50.0518C46.5471 49.7749 46.5471 49.4996 46.5471 49.2227L46.816 49.2339Z" fill="#EEEEEE"/>
<path d="M37.5243 55.625C37.6483 55.6894 37.7739 55.7522 37.8979 55.8166C37.8802 56.562 37.8512 57.309 37.8496 58.0545C37.8431 60.1636 37.848 62.2743 37.848 64.3833C37.848 64.6715 37.848 64.9581 37.848 65.2463C37.79 65.2688 37.732 65.2914 37.6741 65.3155C37.5807 65.198 37.4503 65.0934 37.4036 64.9581C37.3537 64.8132 37.3794 64.6409 37.3794 64.4816C37.3794 61.7848 37.3746 59.0881 37.3859 56.3897C37.3859 56.1338 37.4777 55.8794 37.526 55.625H37.5243Z" fill="#EEEEEE"/>
<path d="M38.3281 56.125C38.3877 56.4084 38.4972 56.6901 38.4972 56.9735C38.51 59.5897 38.5068 62.2059 38.502 64.8222C38.502 65.0476 38.4601 65.273 38.4344 65.5483C37.9546 65.3953 38.0448 65.0637 38.0431 64.8012C38.0335 63.6002 38.0383 62.3991 38.0383 61.1965C38.0383 59.7555 38.0335 58.313 38.0431 56.872C38.0448 56.5967 37.9401 56.2586 38.341 56.1347L38.3281 56.1266V56.125Z" fill="#EEEEEE"/>
<path d="M47.629 52.1322V64.1588C47.5839 64.1684 47.5388 64.1765 47.4922 64.1861C47.4471 64.0348 47.3617 63.8851 47.3617 63.7337C47.3473 60.0308 47.3408 56.3278 47.3408 52.6248C47.3408 52.4509 47.4229 52.2754 47.4664 52.1016L47.6274 52.1322H47.629Z" fill="#EEEEEE"/>
<path d="M202.887 50.0852C202.918 49.7246 202.94 49.4477 202.966 49.1289H206.031C206.06 49.4557 206.084 49.7294 206.125 50.1706C205.687 49.8083 205.552 49.1466 204.853 49.5523C204.853 50.2366 204.824 50.9772 204.87 51.7129C204.885 51.9303 205.11 52.1348 205.276 52.4036H203.706C204.524 51.494 204.032 50.4765 204.157 49.5298C203.73 49.4579 203.307 49.6425 202.889 50.0836L202.887 50.0852Z" fill="#EEEEEE"/>
<path d="M37.7707 69.4453C38.603 70.0925 39.4 70.7092 40.1953 71.3274C40.1631 71.3789 40.1325 71.4304 40.1003 71.4819C39.3307 71.0521 38.5628 70.6206 37.7658 70.1746C35.9594 71.2727 34.1916 72.3465 32.4238 73.4204C32.3916 73.3721 32.3611 73.3222 32.3289 73.2739C34.1288 72.0068 35.9288 70.7397 37.7707 69.4453V69.4453Z" fill="#EEEEEE"/>
<path d="M30.0974 65.4821C31.1841 66.6928 32.1662 67.7892 33.1483 68.884C33.1113 68.921 33.0743 68.958 33.0388 68.9951C32.0809 68.1402 31.1229 67.2837 30.2632 66.5157C29.3069 67.3481 28.4085 68.1305 27.5117 68.913C27.4892 68.8985 27.4666 68.884 27.4441 68.8711C28.3022 67.7747 29.1604 66.6783 30.099 65.4805L30.0974 65.4821Z" fill="#EEEEEE"/>
<path d="M48.4043 67.1474C47.2773 66.5388 46.1503 65.9318 44.9992 65.3104C44.17 65.8368 43.3666 66.3472 42.5616 66.8576C42.5246 66.8093 42.4892 66.761 42.4521 66.7111C43.2765 66.0381 44.1024 65.3651 44.9879 64.6406C46.1793 65.4456 47.3417 66.2329 48.5057 67.0186C48.4719 67.0604 48.4381 67.1039 48.4043 67.1458V67.1474Z" fill="#EEEEEE"/>
<path d="M30.3315 70.6664V68.5509C30.9337 68.5155 31.2975 68.7135 31.3523 69.1788C31.407 69.6425 31.3652 70.119 31.3652 70.668H30.3315V70.6664Z" fill="#EEEEEE"/>
<path d="M30.1164 68.4922V70.6963C29.8056 70.7108 29.5046 70.7236 29.2212 70.7365C28.7591 69.5145 29.1117 68.6226 30.1164 68.4922Z" fill="#EEEEEE"/>
<path d="M45.0181 70.3751H44.0134V69.3431C44.329 69.3254 44.6301 69.3077 45.0181 69.2852V70.3751Z" fill="#EEEEEE"/>
<path d="M37.9043 74.5711V73.4844H38.9299V74.5244C38.6207 74.5389 38.3165 74.5534 37.9043 74.5711Z" fill="#EEEEEE"/>
<path d="M37.6772 74.5373H36.6758V73.4844H37.6772V74.5373Z" fill="#EEEEEE"/>
<path d="M46.2857 69.2852V70.3703H45.2747V69.3351C45.5757 69.3206 45.8736 69.3061 46.2857 69.2852Z" fill="#EEEEEE"/>
<path d="M38.9379 73.262H37.8979C37.8802 72.9529 37.8657 72.6985 37.8528 72.4554C38.5209 72.2509 38.7029 72.3813 38.9379 73.262Z" fill="#EEEEEE"/>
<path d="M45.0412 68.1328V69.1085H44.0044C44.064 68.4951 44.3441 68.1924 45.0412 68.1328Z" fill="#EEEEEE"/>
<path d="M37.6822 72.3047V73.2642H36.7612C36.7645 72.5816 36.8498 72.485 37.6822 72.3047Z" fill="#EEEEEE"/>
<path d="M45.2766 68.1328C45.8068 68.2777 46.124 68.5976 46.2281 69.0924H45.2766V68.1328Z" fill="#EEEEEE"/>
<path d="M129.095 74.9425C128.828 75.1438 128.677 75.3483 128.529 75.345C128.379 75.3434 128.144 75.1631 128.1 75.015C128.021 74.7461 128.215 74.5336 128.493 74.561C128.661 74.5787 128.812 74.7542 129.095 74.9409V74.9425Z" fill="#EEEEEE"/>
<path d="M130.088 75.5584C129.898 75.2879 129.696 75.1253 129.709 74.9836C129.724 74.8307 129.917 74.6085 130.07 74.5715C130.345 74.5038 130.547 74.7115 130.505 74.9852C130.479 75.1495 130.292 75.2895 130.088 75.5584Z" fill="#EEEEEE"/>
<path d="M131.567 75.5541C131.364 75.2949 131.155 75.1436 131.161 75.0019C131.167 74.8473 131.346 74.6171 131.498 74.5704C131.771 74.4851 131.979 74.6895 131.956 74.96C131.942 75.1242 131.76 75.274 131.567 75.5541V75.5541Z" fill="#EEEEEE"/>
<path d="M180.301 74.3789C180.494 74.6542 180.676 74.8007 180.695 74.9666C180.728 75.2467 180.512 75.4367 180.243 75.3642C180.093 75.324 179.907 75.0954 179.902 74.9456C179.897 74.7975 180.101 74.6446 180.301 74.3789V74.3789Z" fill="#EEEEEE"/>
<path d="M182.502 74.9746C182.223 75.163 182.061 75.3594 181.912 75.3497C181.763 75.3401 181.537 75.1436 181.504 74.9939C181.442 74.7234 181.642 74.5173 181.922 74.5656C182.09 74.593 182.23 74.7749 182.5 74.9746H182.502Z" fill="#EEEEEE"/>
<path d="M183.459 75.5556C183.286 75.2706 183.094 75.0983 183.117 74.9583C183.141 74.8053 183.347 74.5928 183.501 74.5654C183.775 74.5171 183.97 74.7313 183.909 75.0066C183.873 75.1692 183.68 75.298 183.459 75.5556Z" fill="#EEEEEE"/>
</g>
</g>
<defs>
<clipPath id="clip0_503_2370">
<rect width="231" height="127" fill="white"/>
</clipPath>
<clipPath id="clip1_503_2370">
<rect width="190.624" height="35.9543" fill="white" transform="translate(20 46)"/>
</clipPath>
</defs>
</svg>
