<svg width="216" height="207" viewBox="0 0 216 207" fill="none" xmlns="http://www.w3.org/2000/svg">
<g clip-path="url(#clip0_5535_2644)">
<rect width="216" height="206.929" fill="#151517"/>
<g clip-path="url(#clip1_5535_2644)">
<path d="M44.457 74.1523V132.515H104.392L162.869 74.1523H44.457ZM116.509 110.082H112.675V121.318H95.4573L93.7315 115.988C91.7765 116.63 89.7309 116.954 87.673 116.946C85.5623 116.949 83.4649 116.612 81.461 115.949L79.6972 121.318H69.1137L70.3022 118.25L69.8804 118.595C67.0251 120.821 63.492 121.999 59.8722 121.931H59.2585C54.6309 121.912 50.0871 120.697 46.0677 118.403L49.672 111.271C52.502 113.198 55.8758 114.166 59.2969 114.032C59.9832 114.104 60.6768 114.035 61.3359 113.831C61.995 113.627 62.606 113.291 63.1315 112.843C63.6083 112.363 63.8825 111.718 63.8982 111.041C63.8982 109.201 61.2911 108.319 58.07 107.207C55.2489 106.436 52.5689 105.219 50.1322 103.602C48.854 102.685 47.8313 101.458 47.1603 100.035C46.4892 98.6123 46.1921 97.042 46.2976 95.4727C46.3216 92.9342 47.3243 90.5028 49.0967 88.6854C50.6416 87.2588 52.4536 86.1517 54.4278 85.4278C56.4021 84.7039 58.4997 84.3776 60.6005 84.4674V84.4674C65.1716 84.5267 69.6745 85.5869 73.7918 87.5734L69.8804 94.4756C67.2568 93.0711 64.3424 92.2965 61.3677 92.2133C57.8782 92.0215 56.1527 93.2486 56.1143 94.5907C56.076 95.9328 59.4118 97.6967 62.5178 98.732C67.2727 100.227 73.3316 102.222 74.2519 108.05L82.9181 85.0426H92.888L103.05 112.652V85.0426H114.554C125.674 85.0426 130.889 88.8772 130.889 97.62C130.889 105.289 125.52 110.006 116.432 110.006" fill="white"/>
<path d="M139.093 112.307V115.145H145.19V117.522H139.093V120.245H145.957V122.622H136.332V109.93H145.957V112.307H139.093Z" fill="white"/>
<path d="M151.25 122.621H148.527V109.813H154.241C154.851 109.78 155.462 109.871 156.036 110.082C156.609 110.293 157.134 110.619 157.577 111.04C157.999 111.453 158.329 111.949 158.547 112.498C158.765 113.046 158.866 113.634 158.842 114.223C158.854 115.091 158.615 115.943 158.152 116.677C157.687 117.368 157.036 117.913 156.273 118.25L159.533 122.506H156.273L153.205 118.671H151.327L151.25 122.621ZM151.25 116.255H154.164C154.647 116.267 155.115 116.088 155.468 115.757C155.662 115.577 155.814 115.357 155.914 115.112C156.013 114.866 156.057 114.602 156.043 114.338C156.064 114.134 156.064 113.929 156.043 113.725C155.995 113.498 155.918 113.279 155.813 113.073C155.661 112.845 155.466 112.649 155.238 112.498C154.922 112.368 154.583 112.303 154.241 112.306H151.327L151.25 116.255Z" fill="white"/>
<path d="M166.363 109.814C167.057 109.76 167.755 109.848 168.414 110.072C169.073 110.296 169.68 110.652 170.197 111.118C170.656 111.518 171.021 112.014 171.266 112.57C171.511 113.127 171.631 113.731 171.616 114.339C171.635 114.941 171.525 115.539 171.294 116.095C171.062 116.65 170.715 117.15 170.274 117.56C169.747 118.007 169.137 118.345 168.479 118.556C167.821 118.766 167.128 118.845 166.439 118.787H164.024V122.622H161.301V109.814H166.363ZM166.746 116.41C167.026 116.431 167.307 116.387 167.567 116.28C167.826 116.174 168.057 116.008 168.242 115.796C168.57 115.382 168.746 114.868 168.74 114.339C168.734 113.78 168.515 113.245 168.126 112.844C167.917 112.62 167.66 112.445 167.375 112.332C167.09 112.219 166.783 112.171 166.477 112.192H163.947V116.41H166.746Z" fill="white"/>
<path d="M87.7174 96.4688L83.8828 107.973C85.1058 108.443 86.407 108.678 87.7174 108.663C88.9615 108.672 90.1964 108.451 91.3601 108.011L87.7558 96.5071L87.7174 96.4688Z" fill="white"/>
<path d="M115.327 92.709H112.758V102.142H115.327C118.739 102.142 121.462 101.03 121.462 97.4255C121.462 93.8209 118.739 92.7856 115.327 92.7856" fill="white"/>
</g>
</g>
<defs>
<clipPath id="clip0_5535_2644">
<rect width="216" height="206.929" fill="white"/>
</clipPath>
<clipPath id="clip1_5535_2644">
<rect width="128" height="58.9206" fill="white" transform="translate(44 74)"/>
</clipPath>
</defs>
</svg>
