<svg width="216" height="207" viewBox="0 0 216 207" fill="none" xmlns="http://www.w3.org/2000/svg">
<g clip-path="url(#clip0_5535_2658)">
<rect width="216" height="206.929" fill="#151517"/>
<path fill-rule="evenodd" clip-rule="evenodd" d="M95.3474 102.226H93.094V93.9757H95.3474C98.3277 93.9757 100.726 94.957 100.726 98.0464C100.726 101.136 98.3277 102.226 95.3474 102.226ZM71.0683 108.114C69.9519 108.117 68.8444 107.92 67.7976 107.533L71.0324 97.2831L74.2304 107.569C73.1885 107.924 72.0966 108.108 70.996 108.114H71.0683ZM94.657 87.2881H84.4437V111.603L75.4664 87.2881H66.6343L59.0018 107.605C58.1658 102.481 52.8595 100.736 48.6797 99.3911C45.9175 98.5188 43.0096 97.2104 43.046 95.7566C43.0823 94.3027 44.6089 93.5032 47.662 93.6486C50.283 93.7292 52.8478 94.4265 55.1489 95.6839L58.7835 89.4688C55.1622 87.7301 51.2061 86.8 47.1894 86.7429V86.7429C45.3313 86.6431 43.4717 86.9129 41.7185 87.5368C39.9654 88.1607 38.3534 89.1262 36.9761 90.3775C35.4111 91.9691 34.5253 94.106 34.5049 96.3381C34.4134 97.763 34.7018 99.1866 35.3403 100.464C35.9788 101.741 36.9446 102.826 38.1394 103.607C40.273 105.051 42.6312 106.132 45.1179 106.806C47.9529 107.678 50.2787 108.441 50.2424 110.113C50.2152 110.702 49.9691 111.259 49.552 111.676C49.1033 112.059 48.5832 112.349 48.0218 112.53C47.4604 112.711 46.8686 112.779 46.2808 112.73C43.2617 112.821 40.2892 111.97 37.7761 110.295L34.614 116.583C38.1553 118.576 42.1442 119.639 46.208 119.672H46.7533C49.9404 119.718 53.0463 118.665 55.5491 116.692L55.9125 116.401L54.8947 119.127H64.1994L65.762 114.366C67.5209 114.946 69.3616 115.241 71.2138 115.238C73.0252 115.246 74.827 114.977 76.5565 114.438L78.0468 119.127H93.2395V109.314H96.5466C104.543 109.314 109.268 105.279 109.268 98.4098C109.268 90.8136 104.688 87.3245 94.7293 87.3245" fill="white"/>
<path d="M128.601 90.1221C128.62 90.653 128.478 91.1773 128.192 91.6252C127.906 92.0732 127.491 92.4237 127.001 92.6299C127.63 92.7564 128.195 93.0976 128.599 93.5949C129.004 94.0922 129.222 94.7148 129.218 95.3558C129.218 97.3912 127.583 98.4452 125.111 98.4452H119.914V87.2871H124.93C127.183 87.2871 128.564 88.3775 128.564 90.1221H128.601ZM126.602 90.4492C126.602 89.5405 125.911 89.0317 124.639 89.0317H121.84V91.9757H124.494C125.766 91.9757 126.602 91.5032 126.602 90.4492ZM127.22 95.174C127.22 94.1927 126.493 93.6476 124.93 93.6476H121.84V96.7006H125.075C126.42 96.7006 127.22 96.1917 127.22 95.174" fill="white"/>
<path d="M135.797 90.0129H137.723V98.4088H135.797V97.1004C135.53 97.5562 135.147 97.9337 134.688 98.1953C134.229 98.4568 133.709 98.5931 133.18 98.5905C132.76 98.6089 132.341 98.5362 131.952 98.377C131.563 98.2179 131.213 97.9762 130.926 97.6687C130.639 97.3612 130.422 96.9952 130.291 96.5959C130.159 96.1966 130.116 95.7735 130.163 95.3558V89.9766H132.09V94.7742C132.09 96.0827 132.744 96.8459 133.907 96.8459C134.175 96.8477 134.44 96.7926 134.684 96.6843C134.929 96.576 135.148 96.4169 135.327 96.2176C135.505 96.0183 135.64 95.7833 135.721 95.5282C135.802 95.2731 135.828 95.0037 135.797 94.7378V89.9766" fill="white"/>
<path d="M142.267 98.6283C140.948 98.618 139.67 98.1706 138.633 97.3561L139.505 96.0478C140.291 96.677 141.261 97.0341 142.267 97.0654C143.103 97.0654 143.576 96.7383 143.576 96.1568C143.576 95.5026 142.667 95.2845 141.686 94.9937C140.704 94.7029 139.069 94.1214 139.069 92.5222C139.082 92.1524 139.171 91.7893 139.33 91.4554C139.49 91.1216 139.716 90.8243 139.996 90.5821C140.276 90.3398 140.603 90.1579 140.956 90.0478C141.309 89.9376 141.681 89.9015 142.049 89.9417C143.153 89.9548 144.229 90.2964 145.138 90.923L144.375 92.3042C143.674 91.8292 142.858 91.5529 142.013 91.5046C141.249 91.5046 140.85 91.8316 140.85 92.3404C140.85 92.922 141.722 93.1764 142.74 93.5035C143.758 93.8306 145.357 94.4485 145.357 95.975C145.357 97.7196 143.976 98.6283 142.231 98.6283" fill="white"/>
<path d="M148.667 88.7404H146.559V86.8867H148.667V88.7404ZM148.667 98.4447H146.74V90.0125H148.667V98.4447Z" fill="white"/>
<path d="M152.231 98.4087H150.305V89.9765H152.231V91.285C152.509 90.833 152.899 90.4612 153.365 90.2063C153.83 89.9514 154.354 89.8221 154.884 89.8312C155.303 89.8118 155.721 89.8843 156.109 90.0437C156.497 90.2031 156.844 90.4455 157.128 90.7538C157.412 91.0621 157.625 91.4288 157.753 91.8283C157.88 92.2277 157.918 92.6501 157.864 93.0659V98.4087H155.938V93.6111C155.938 92.339 155.284 91.5757 154.158 91.5757C153.89 91.5693 153.624 91.6197 153.378 91.7236C153.132 91.8274 152.91 91.9824 152.728 92.1782C152.546 92.374 152.408 92.6062 152.322 92.8595C152.236 93.1127 152.205 93.3813 152.231 93.6474V98.4087Z" fill="white"/>
<path d="M163.312 97.0667C163.739 97.0682 164.161 96.9782 164.549 96.8026C164.938 96.6271 165.284 96.3701 165.565 96.0491L166.729 97.0667C166.291 97.5976 165.733 98.0162 165.1 98.288C164.468 98.5599 163.781 98.677 163.094 98.6296C162.517 98.6439 161.942 98.5443 161.403 98.3365C160.864 98.1287 160.371 97.8168 159.952 97.4186C159.534 97.0203 159.198 96.5435 158.964 96.0154C158.729 95.4874 158.602 94.9183 158.587 94.3408C158.573 93.7633 158.672 93.1886 158.88 92.6495C159.088 92.1105 159.4 91.6177 159.798 91.1992C160.196 90.7807 160.673 90.4447 161.201 90.2104C161.729 89.9762 162.298 89.8483 162.876 89.834C163.451 89.8403 164.019 89.9674 164.542 90.2072C165.065 90.447 165.532 90.7941 165.912 91.2259C166.293 91.6577 166.578 92.1645 166.75 92.7136C166.922 93.2628 166.976 93.8419 166.91 94.4135V94.7769H160.732C160.787 95.3777 161.07 95.9346 161.523 96.3333C161.975 96.7321 162.564 96.9424 163.167 96.9213L163.312 97.0667ZM165.021 93.5048C165.03 93.2202 164.983 92.9365 164.882 92.6703C164.781 92.404 164.628 92.1607 164.431 91.9543C164.235 91.7479 164 91.5826 163.739 91.4681C163.478 91.3537 163.197 91.2924 162.912 91.2878C162.33 91.306 161.777 91.5454 161.365 91.9573C160.953 92.3692 160.713 92.9226 160.695 93.5048H165.021Z" fill="white"/>
<path d="M171.127 98.6282C169.806 98.6264 168.525 98.178 167.492 97.3561L168.364 96.0477C169.151 96.677 170.12 97.0341 171.127 97.0654C171.926 97.0654 172.435 96.7383 172.435 96.1567C172.435 95.5025 171.526 95.2844 170.545 94.9936C169.564 94.7029 167.892 94.1214 167.892 92.5222C167.91 92.1507 168.003 91.7869 168.167 91.4529C168.33 91.119 168.561 90.8219 168.843 90.5802C169.126 90.3385 169.455 90.1572 169.81 90.0474C170.165 89.9375 170.539 89.9016 170.909 89.9417C172.012 89.9612 173.086 90.3022 173.998 90.923L173.235 92.3041C172.524 91.8229 171.694 91.5463 170.836 91.5045C170.109 91.5045 169.673 91.8315 169.673 92.3404C169.673 92.9219 170.582 93.1764 171.563 93.5035C172.544 93.8306 174.18 94.4484 174.18 95.9749C174.18 97.7195 172.799 98.6282 171.054 98.6282" fill="white"/>
<path d="M178.322 98.6283C177.003 98.618 175.725 98.1706 174.688 97.3561L175.56 96.0478C176.346 96.677 177.315 97.0341 178.322 97.0654C179.158 97.0654 179.63 96.7383 179.63 96.1568C179.63 95.5026 178.759 95.2845 177.741 94.9937C176.723 94.7029 175.124 94.1214 175.124 92.5222C175.136 92.1524 175.225 91.7893 175.385 91.4554C175.545 91.1216 175.772 90.8243 176.051 90.5821C176.331 90.3398 176.658 90.1579 177.011 90.0478C177.364 89.9376 177.736 89.9015 178.104 89.9417C179.219 89.9605 180.304 90.3012 181.23 90.923L180.43 92.3042C179.73 91.8292 178.913 91.5529 178.068 91.5046C177.305 91.5046 176.905 91.8316 176.905 92.3404C176.905 92.922 177.813 93.1764 178.795 93.5035C179.776 93.8306 181.412 94.4485 181.412 95.975C181.412 97.7196 180.03 98.6283 178.286 98.6283" fill="white"/>
<path d="M127.989 119.454C126.726 119.493 125.467 119.277 124.289 118.819C123.111 118.361 122.037 117.671 121.131 116.789C120.225 115.907 119.507 114.851 119.018 113.686C118.529 112.52 118.28 111.268 118.285 110.004V110.004C118.285 108.733 118.539 107.475 119.034 106.305C119.529 105.135 120.254 104.076 121.166 103.191C122.077 102.306 123.158 101.614 124.342 101.154C125.527 100.695 126.792 100.478 128.062 100.517C129.324 100.473 130.581 100.685 131.76 101.138C132.938 101.592 134.012 102.279 134.918 103.158C135.824 104.037 136.544 105.09 137.033 106.254C137.522 107.418 137.772 108.669 137.766 109.931V109.931C137.767 111.202 137.512 112.459 137.018 113.63C136.523 114.8 135.798 115.859 134.886 116.744C133.974 117.629 132.894 118.321 131.709 118.78C130.524 119.24 129.259 119.456 127.989 119.417V119.454ZM133.55 109.931C133.575 109.184 133.449 108.439 133.181 107.742C132.913 107.044 132.507 106.407 131.989 105.868C131.471 105.329 130.85 104.9 130.163 104.605C129.476 104.311 128.737 104.156 127.989 104.152C127.25 104.151 126.518 104.3 125.837 104.59C125.157 104.879 124.542 105.303 124.029 105.836C123.517 106.369 123.117 107 122.855 107.691C122.592 108.382 122.472 109.119 122.501 109.858V109.858C122.477 110.604 122.603 111.346 122.871 112.042C123.14 112.738 123.545 113.373 124.064 113.908C124.583 114.444 125.204 114.87 125.891 115.161C126.578 115.452 127.316 115.601 128.062 115.601C128.803 115.607 129.537 115.461 130.22 115.174C130.903 114.886 131.52 114.462 132.034 113.928C132.547 113.394 132.947 112.761 133.207 112.068C133.468 111.374 133.585 110.635 133.55 109.895V109.931Z" fill="white"/>
<path d="M148.228 119.127V111.313C148.228 109.423 147.356 108.441 145.829 108.441C144.302 108.441 143.321 109.423 143.321 111.313V119.127H139.359V105.098H143.321V107.097C143.768 106.413 144.377 105.85 145.093 105.457C145.809 105.064 146.611 104.853 147.428 104.843C148.101 104.811 148.774 104.927 149.398 105.183C150.022 105.438 150.582 105.828 151.039 106.323C151.496 106.818 151.84 107.408 152.045 108.05C152.25 108.692 152.312 109.372 152.226 110.041V119.127H148.228Z" fill="white"/>
<path d="M167.675 113.496H157.897C158.014 114.302 158.431 115.034 159.065 115.546C159.698 116.058 160.501 116.312 161.314 116.258C161.953 116.265 162.587 116.14 163.175 115.89C163.763 115.639 164.293 115.27 164.73 114.804L167.02 116.839C166.321 117.679 165.442 118.351 164.448 118.804C163.453 119.257 162.37 119.48 161.278 119.456C160.315 119.487 159.356 119.319 158.46 118.965C157.565 118.61 156.751 118.076 156.07 117.395C155.389 116.713 154.855 115.9 154.5 115.004C154.146 114.109 153.978 113.15 154.009 112.187V112.187C153.975 111.251 154.128 110.317 154.461 109.441C154.794 108.566 155.299 107.765 155.946 107.088C156.593 106.41 157.369 105.869 158.228 105.496C159.088 105.124 160.014 104.927 160.951 104.918C161.916 104.912 162.872 105.111 163.755 105.501C164.638 105.891 165.428 106.464 166.073 107.181C166.719 107.899 167.205 108.745 167.5 109.665C167.794 110.584 167.892 111.555 167.784 112.514V112.514C167.784 112.878 167.784 113.132 167.784 113.496H167.675ZM160.987 108.044C160.198 108.07 159.447 108.39 158.882 108.941C158.317 109.493 157.979 110.236 157.934 111.024H163.931C163.931 110.24 163.622 109.487 163.071 108.929C162.52 108.372 161.771 108.053 160.987 108.044" fill="white"/>
<path d="M117.304 91.1404C117.304 91.8593 117.091 92.562 116.692 93.1597C116.292 93.7574 115.725 94.2233 115.061 94.4983C114.397 94.7734 113.666 94.8453 112.961 94.7051C112.256 94.5649 111.608 94.2187 111.1 93.7104C110.591 93.2021 110.245 92.5546 110.105 91.8495C109.965 91.1445 110.037 90.4136 110.312 89.7495C110.587 89.0854 111.053 88.5177 111.65 88.1183C112.248 87.719 112.951 87.5059 113.67 87.5059C114.634 87.5059 115.558 87.8888 116.24 88.5705C116.921 89.2521 117.304 90.1765 117.304 91.1404ZM110.726 91.1404C110.733 91.7051 110.907 92.2552 111.225 92.7218C111.543 93.1884 111.992 93.5507 112.515 93.7635C113.038 93.9763 113.612 94.0301 114.166 93.9181C114.72 93.8062 115.228 93.5335 115.627 93.1342C116.026 92.7348 116.299 92.2265 116.411 91.6729C116.523 91.1194 116.469 90.5451 116.257 90.0219C116.044 89.4988 115.681 89.0501 115.215 88.7318C114.748 88.4136 114.198 88.24 113.634 88.2328C113.25 88.2279 112.87 88.2997 112.515 88.4441C112.16 88.5885 111.837 88.8026 111.566 89.0736C111.295 89.3446 111.082 89.6669 110.937 90.0219C110.793 90.3769 110.721 90.7572 110.726 91.1404V91.1404ZM111.925 89.1051H113.815C115.014 89.1051 115.56 89.4322 115.56 90.1591C115.572 90.3735 115.504 90.5847 115.37 90.7523C115.236 90.92 115.045 91.0323 114.833 91.0678C115.269 91.0678 115.451 91.3949 115.451 91.7583V92.2307C115.451 92.8123 115.451 92.9213 115.451 93.0667H114.251V92.558V91.9764C114.251 91.5766 114.251 91.5039 113.67 91.5039H112.979V93.0667H111.853L111.925 89.1051ZM114.033 90.7043L114.397 90.3044L114.033 89.9047H113.052V90.7043H114.033Z" fill="white"/>
</g>
<defs>
<clipPath id="clip0_5535_2658">
<rect width="216" height="206.929" fill="white"/>
</clipPath>
</defs>
</svg>
