<svg width="206" height="83" viewBox="0 0 206 83" fill="none" xmlns="http://www.w3.org/2000/svg">
<g clip-path="url(#clip0_2622_657)">
<path d="M0 31.9253C0 31.9253 47.9923 36.7092 47.9923 44.687V25.5374C47.9923 25.5374 47.9923 17.5597 0 12.7617V31.9253Z" fill="#E8E8E8"/>
<path d="M0 57.4627C0 57.4627 47.9923 62.2465 47.9923 70.2243V51.0748C47.9923 51.0748 47.9923 43.097 0 38.2991V57.4627Z" fill="#E8E8E8"/>
<path d="M48.0314 0V19.1495C48.0314 19.1495 48.0314 27.1273 0.0390625 31.9252V12.7617C0.0390625 12.7617 48.0314 7.97779 48.0314 0Z" fill="white"/>
<path d="M0 38.299C0 38.299 47.9923 33.5151 47.9923 25.5374V44.6869C47.9923 44.6869 47.9923 52.6647 0 57.4626V38.299Z" fill="white"/>
<path d="M0 83V63.8504C0 63.8504 47.9923 59.0525 47.9923 51.0747V70.2242C47.9923 70.2242 47.9923 78.202 0 83Z" fill="white"/>
<path d="M66.5799 60.8254L68.5561 52.1582C70.7748 52.9476 73.0488 53.573 75.3597 54.0295C77.6853 54.2594 80.0297 54.2217 82.3467 53.917C82.9874 53.8398 83.5791 53.5361 84.0142 53.061C84.4494 52.5859 84.6991 51.9711 84.7181 51.328C84.7928 50.7177 84.6649 50.0997 84.3539 49.5686C84.0429 49.0376 83.566 48.6227 82.9961 48.3874L78.6062 46.3894L72.7765 43.5754C68.9654 41.3242 66.6645 38.0599 66.9186 33.4308C66.9798 31.2948 67.6334 29.2175 68.8069 27.4292C69.9805 25.641 71.6281 24.2118 73.567 23.3002C77.3647 21.384 81.6642 20.6861 85.8756 21.3023C88.6615 21.8008 91.4145 22.468 94.119 23.3002L91.8323 31.9815C89.5402 31.1827 87.177 30.6032 84.7746 30.2509C83.0881 30.0883 81.3859 30.2556 79.7637 30.7434C79.2612 30.8587 78.8065 31.1253 78.4612 31.507C78.116 31.8887 77.8969 32.367 77.8337 32.8771C77.7705 33.3871 77.8663 33.9042 78.108 34.3582C78.3497 34.8122 78.7257 35.181 79.1849 35.4147C80.7111 36.272 82.3015 37.0105 83.9418 37.6237C86.085 38.464 88.1694 39.4464 90.1808 40.5644C91.9406 41.6555 93.3785 43.1924 94.3479 45.0183C95.3173 46.8442 95.7835 48.8938 95.6988 50.9579C95.6141 53.022 94.9817 55.0267 93.866 56.7677C92.7503 58.5086 91.1913 59.9234 89.348 60.8676C85.1991 62.9705 80.5173 63.7981 75.896 63.2455C72.6588 62.9622 69.4915 62.1443 66.5234 60.8254H66.5799ZM155.352 62.5842H145.81L145.019 59.9671C143.946 61.0499 142.66 61.8991 141.241 62.461C139.822 63.0228 138.301 63.2852 136.776 63.2314C134.641 63.3684 132.524 62.7632 130.787 61.5188C129.049 60.2745 127.799 58.468 127.248 56.4074C126.648 54.2475 126.792 51.9495 127.657 49.8809C128.522 47.8123 130.058 46.0924 132.019 44.9965C135.336 43.2974 139.003 42.3872 142.732 42.3372L144.045 42.2528C143.833 40.5222 142.845 39.7483 140.756 39.5935C137.331 39.3342 133.902 40.0567 130.875 41.6759L128.871 34.5564C131.367 33.6698 133.93 32.9829 136.536 32.5021C139.721 32.1427 142.94 32.2137 146.106 32.7132C151.315 33.6559 154.575 37.8207 154.759 43.4628C154.928 47.4025 154.886 51.3703 154.886 55.2958C154.847 57.7132 154.984 60.1302 155.295 62.5279L155.352 62.5842ZM144.483 49.0909C142.599 48.8066 140.675 49.1635 139.02 50.1039C138.471 50.375 138.025 50.8167 137.75 51.3624C137.475 51.9081 137.386 52.5282 137.496 53.129C137.686 54.0214 138.186 54.8184 138.907 55.3803C139.443 55.6461 140.035 55.7823 140.634 55.7777C141.233 55.7731 141.822 55.6279 142.354 55.3538C142.886 55.0797 143.346 54.6845 143.696 54.2001C144.046 53.7158 144.277 53.1561 144.37 52.5662C144.498 51.3935 144.526 50.2121 144.454 49.0346L144.483 49.0909ZM205.998 62.542H196.484L195.693 59.9249C194.622 61.0105 193.336 61.8615 191.917 62.4236C190.498 62.9857 188.976 63.2464 187.45 63.1892C185.315 63.3262 183.198 62.721 181.461 61.4766C179.724 60.2323 178.473 58.4258 177.922 56.3652C177.322 54.2053 177.466 51.9073 178.331 49.8387C179.196 47.7701 180.732 46.0502 182.693 44.9543C186.01 43.2551 189.677 42.3449 193.407 42.295L194.719 42.2106C194.508 40.4799 193.52 39.7061 191.43 39.5513C188.005 39.292 184.577 40.0145 181.55 41.6337L179.545 34.5986C182.041 33.7101 184.604 33.0231 187.21 32.5444C190.395 32.1849 193.614 32.2559 196.78 32.7554C201.989 33.6981 205.249 37.877 205.433 43.5191C205.602 47.4447 205.56 51.4125 205.56 55.338C205.499 57.7605 205.636 60.1838 205.969 62.5842L205.998 62.542ZM195.129 49.0487C193.245 48.7644 191.321 49.1213 189.666 50.0617C189.114 50.3335 188.667 50.7774 188.392 51.3261C188.116 51.8747 188.029 52.4979 188.142 53.1009C188.336 53.9877 188.836 54.779 189.553 55.338C190.089 55.6039 190.681 55.7401 191.28 55.7355C191.879 55.7309 192.468 55.5857 193 55.3116C193.532 55.0375 193.992 54.6422 194.342 54.1579C194.692 53.6736 194.923 53.1138 195.016 52.524C195.144 51.3513 195.173 50.1699 195.101 48.9924L195.129 49.0487ZM122.477 41.1412C118.539 40.3674 114.854 39.6357 112.102 43.3221C111.252 44.6164 110.799 46.1298 110.799 47.6768C110.799 49.2239 111.252 50.7373 112.102 52.0316C114.925 55.7461 118.75 55.0144 122.816 54.325C123.183 56.731 123.874 62.2184 123.874 62.2184L123.38 62.3731C115.998 64.3852 107.345 62.95 103.435 58.4053C99.5252 53.8607 98.9323 48.2607 100.725 42.5764C102.518 36.892 106.724 33.867 112.314 32.7273C115.854 31.9383 119.536 32.0398 123.027 33.0227L123.917 33.2619L122.505 41.1975L122.477 41.1412ZM161.915 19.6279H172.516V62.4998H161.915V19.6279Z" fill="white"/>
</g>
<defs>
<clipPath id="clip0_2622_657">
<rect width="206" height="83" fill="white"/>
</clipPath>
</defs>
</svg>
