<svg width="248" height="137" viewBox="0 0 248 137" fill="none" xmlns="http://www.w3.org/2000/svg">
<path d="M46 60.6368C48.3473 60.7516 50.5537 59.8909 52.9896 59.6614C53.9337 60.8455 54.7996 62.2434 56.5992 62.5511C57.9293 62.7754 59.1811 62.7911 60.3339 62.04C61.3197 61.3984 61.3093 60.3917 60.2922 59.7657C59.7914 59.458 59.1968 59.1815 58.623 59.1294C56.4583 58.9155 54.4292 58.2061 52.4054 57.5072C48.2742 56.0675 46.3025 52.0511 47.7578 47.9669C48.3838 46.209 49.7139 44.8894 51.3517 44.0548C55.6968 41.8379 60.1096 41.7858 64.4859 44.0131C66.3429 44.9572 67.4643 46.5377 68.1633 48.5824C66.1603 49.4326 64.0895 49.8603 62.1126 50.4289C61.5701 49.9334 61.1528 49.6204 60.819 49.2344C59.515 47.7322 57.8197 48.1234 56.2392 48.3894C55.316 48.5459 55.2534 49.4587 55.436 50.3298C55.9211 50.9505 56.62 51.1696 57.3972 51.3469C59.4837 51.8268 61.5805 52.3119 63.6253 52.9378C65.8578 53.6211 67.6417 54.9095 68.4554 57.2307C69.676 60.7255 68.6119 64.5593 65.2683 66.5989C61.6066 68.8313 57.6111 68.7635 53.7199 68.1793C50.6997 67.7255 48.1282 65.9729 46.8659 62.8902C46.6833 62.4416 46.5686 61.8783 46.0104 61.6644V60.6316L46 60.6368Z" fill="#B1B1B1"/>
<path d="M102.14 51.7609C102.14 54.5045 102.14 57.2482 102.14 59.9919C102.14 62.7356 102.14 65.3123 102.14 68.0508C100.236 68.6194 98.4729 68.2438 96.5586 68.322V43.4359C98.4155 42.93 103.861 42.8726 106.422 43.3577C107.998 47.3115 108.571 51.6618 110.235 55.9077C111.419 51.5053 112.541 47.3272 113.657 43.1751H123.839V68.1395C121.544 68.5359 119.27 68.369 116.755 68.2438V51.6774C114.648 57.1074 113.678 62.7982 111.758 68.2699H107.361C105.786 65.7609 105.718 62.7669 104.821 60.0493C103.913 57.3056 103.261 54.4785 102.5 51.6826C102.38 51.7087 102.26 51.7348 102.14 51.7557V51.7609Z" fill="#B1B1B1"/>
<path d="M153.526 81.7385C153.4 78.0612 154.449 74.8063 156.937 72.0261C161.97 66.4136 174.176 67.003 177.207 76.5172C178.427 80.3563 178.266 84.1327 176.643 87.8153C174.416 92.8593 169.57 95.5352 163.431 94.6067C157.897 93.7669 153.943 89.1767 153.609 83.5433C153.573 82.9434 153.552 82.3384 153.526 81.7385V81.7385Z" fill="#EEEEEE"/>
<path d="M181.19 69.0082H188.603C189.197 69.582 188.942 70.3123 188.947 70.9643C188.973 75.2624 188.957 79.5604 188.957 83.8585C188.957 84.3749 188.936 84.8913 188.968 85.4077C189.103 87.7706 190.042 88.6365 192.389 88.5896C194.695 88.5426 195.702 87.6141 195.728 85.2877C195.775 80.9062 195.743 76.5195 195.749 72.1327C195.749 71.1886 195.749 70.2497 195.749 69.2065C197.731 68.5597 199.692 69.0969 201.497 68.8883C202.196 69.6081 201.951 70.3331 201.951 70.9852C201.971 75.7996 201.852 80.6193 201.992 85.4286C202.149 90.7073 199.603 93.6127 194.465 94.5203C191.106 95.1097 187.752 94.8437 184.638 93.1797C182.667 92.1313 181.503 90.5352 181.17 88.3548C181.003 87.2542 180.836 86.1432 180.825 85.0322C180.789 80.4785 180.804 75.9196 180.815 71.3659C180.815 70.6044 180.679 69.8115 181.196 69.0135L181.19 69.0082Z" fill="#EEEEEE"/>
<path d="M86.3473 58.6553C88.7102 58.4414 90.9166 58.5145 93.05 59.3073C93.3734 63.2403 88.7728 68.5086 84.2661 68.3781C82.1327 68.3156 79.9941 68.712 77.892 67.7522C73.6095 65.8066 71.4814 62.39 71.0067 57.9407C70.699 55.051 70.918 52.1717 71.9821 49.3341C73.5939 45.0256 77.8659 42.381 81.705 42.5323C82.9986 42.5844 84.3443 42.3914 85.5858 42.6731C89.1588 43.492 91.3913 45.9071 92.6901 49.2037C93.0292 50.0591 93.097 51.0241 93.3421 52.203C91.0835 53.4444 88.6841 52.589 86.2899 52.9228C85.9248 51.431 85.7057 50.0748 84.6103 49.0942C83.2959 47.9153 82.0127 47.8684 80.7348 49.0629C80.2184 49.5427 79.7385 50.08 79.5924 50.7529C79.1073 52.9906 78.2884 55.2231 79.0343 57.5495C79.2795 58.3163 79.1699 59.083 79.3055 59.8394C79.5924 61.4407 80.6983 62.4944 82.2214 62.6821C83.6871 62.8647 84.7251 62.2596 85.4762 60.7209C85.7735 60.1106 86.003 59.469 86.3421 58.6449L86.3473 58.6553Z" fill="#B1B1B1"/>
<path d="M130.197 68.9922H138.7C140.41 71.3081 141.448 74.1561 143.316 76.952C144.797 74.1874 146.143 71.6628 147.551 69.0339H153.951C154.353 69.7277 153.795 70.1919 153.545 70.6561C151.547 74.3596 149.518 78.0526 147.463 81.7299C146.732 83.034 146.326 84.3484 146.388 85.8872C146.498 88.5474 146.419 91.2129 146.419 93.8418C144.635 94.3947 141.934 94.4729 138.861 94.0713C138.46 91.9848 138.585 89.8358 138.715 87.7285C138.898 84.7762 138.204 82.2307 136.556 79.7374C134.328 76.3782 132.43 72.8 130.202 68.9922H130.197Z" fill="#EEEEEE"/>
<path d="M140.097 41C140.613 41.6364 141.437 42.0693 141.474 43.0239C140.436 44.2757 139.972 44.3644 139.236 43.3838C138.939 42.9873 138.767 42.497 138.532 42.0484C138.303 41.5842 137.171 42.0067 137.494 41H140.097Z" fill="#EEEEEE"/>
<path d="M137.499 41C137.844 41.3495 138.188 41.699 138.537 42.0484C137.405 41.7772 136.774 42.6274 135.997 43.1595C135.668 43.1021 135.502 42.8987 135.47 42.5753C135.705 41.7981 136.779 41.8137 136.978 41C137.15 41 137.322 41 137.499 41Z" fill="#EEEEEE"/>
<path d="M135.465 42.5701C135.642 42.763 135.815 42.9613 135.992 43.1543C134.709 45.4911 133.853 47.9687 133.373 50.4881C134.104 51.3592 135.225 50.4777 135.898 51.4375C135.47 53.0336 133.89 51.6878 133.551 52.1416C132.565 52.7415 132.461 53.3309 132.288 53.9151C131.073 58.0306 129.926 62.167 128.59 66.2408C127.599 69.2609 126.441 72.255 123.557 74.1171C123.051 74.404 122.946 74.1432 122.972 73.6998C124.574 72.0411 125.429 69.9703 126.076 67.8369C127.62 62.7721 129.07 57.6759 130.546 52.6476C129.67 51.8443 128.392 52.8458 127.542 51.7087C128.611 50.8793 129.92 51.2966 131.078 50.7489C132.388 48.0209 132.857 44.7191 135.465 42.5701Z" fill="#EEEEEE"/>
<path d="M122.975 73.6949C123.168 73.8357 123.366 73.9714 123.559 74.1122C122.261 75.5101 120.597 75.1919 118.98 75.0459C118.432 74.9937 118.015 74.6182 117.832 74.1226C117.655 73.6427 117.608 73.0846 118.088 72.7143C118.542 72.3648 119.079 72.3752 119.501 72.756C119.939 73.1524 120.294 73.6323 120.576 73.9505C121.551 74.3313 122.255 73.9505 122.975 73.6949V73.6949Z" fill="#1E1E1E"/>
<path d="M170.774 76.6537C172.172 78.9279 172.344 81.5307 172.986 83.9614C171.478 85.6358 169.736 86.7208 168.15 87.9935C165.61 87.0024 164.416 84.5091 164.77 80.9517C165.803 78.182 168.009 77.0292 170.774 76.6484V76.6537Z" fill="#C0C0C0"/>
<path d="M165.569 80.7815C165.84 82.9775 166.738 85.0118 167.244 87.1504C167.348 87.5834 167.718 87.8442 168.141 87.9954C168.042 88.251 167.823 88.4701 167.577 88.4075C165.46 87.839 163.232 87.6929 161.078 86.7384C160.734 84.3859 159.279 82.2681 159.315 79.7488C162.168 78.6325 163.754 78.8933 165.559 80.7815H165.569Z" fill="#929292"/>
<path d="M165.57 80.7812C163.426 80.8178 161.439 79.8893 159.326 79.7485C160.609 77.975 162.565 77.0309 164.281 75.7946C164.584 75.5756 165.142 75.5391 165.523 75.6382C167.255 76.0763 169.117 75.8625 170.77 76.6605C169.039 78.0376 167.302 79.4146 165.57 80.7865V80.7812Z" fill="#7B7B7B"/>
<path fill-rule="evenodd" clip-rule="evenodd" d="M146.813 54.1751C146.745 52.9023 146.614 51.5826 145.274 50.8576V50.8524C145.198 50.9198 145.122 50.988 145.05 51.0585C145.072 51.0349 145.094 51.0114 145.116 50.9879C145.162 50.9394 145.208 50.891 145.253 50.842C143.667 49.6318 142.082 50.1326 140.746 51.1341C136.98 53.956 134.967 57.6959 135.389 62.4843C135.629 65.2124 137.502 66.4694 140.115 65.6922C140.835 65.4784 141.55 65.0611 142.134 64.576C145.394 61.8793 147.042 58.421 146.813 54.1751ZM144.803 51.3357C145.436 52.2506 145.429 53.2735 145.18 54.2809C144.424 57.3688 143.214 60.2847 141.461 62.9449C140.574 64.2906 139.479 65.3652 137.679 64.6349C137.017 64.1029 136.918 63.4195 137.048 62.731C137.768 58.9911 139.088 55.5171 141.633 52.5857C142.478 51.6155 143.448 51.0208 144.789 51.3181H144.794V51.3234C144.795 51.3251 144.797 51.3268 144.798 51.3285C144.799 51.3309 144.801 51.3333 144.803 51.3357Z" fill="#EEEEEE"/>
<path d="M145.274 50.8516C145.217 51.1124 145.05 51.2584 144.794 51.3158H144.789C144.846 51.0602 144.992 50.8933 145.253 50.8359L145.279 50.8516H145.274Z" fill="#EEEEEE"/>
<path d="M153.254 59.6697C152.529 61.318 151.825 62.9767 151.073 64.6146C150.609 65.6213 150.583 65.6109 149.138 65.6056C148.721 64.9328 149.055 64.3225 149.284 63.6757C150.479 60.2748 151.647 56.8686 152.816 53.4625C152.998 52.9253 153.431 52.3463 152.654 51.8977C152.357 52.1011 152.091 52.0698 151.851 51.8038C152.685 50.7501 153.603 49.9156 155.173 50.4893C155.679 51.9238 154.892 53.1443 154.568 54.4275C154.38 54.704 154.386 55.0065 154.443 55.3195C154.506 55.5177 154.553 55.7159 154.584 55.9193C154.563 56.2375 154.412 56.5087 154.281 56.7904C154.208 56.9834 154.141 57.1816 154.088 57.3798C154.041 57.4737 154 57.5676 153.953 57.6615C153.895 57.7502 153.838 57.8336 153.781 57.9223C153.676 58.1049 153.577 58.2874 153.478 58.4752C153.254 58.8508 153.155 59.2472 153.254 59.6801V59.6697Z" fill="#EEEEEE"/>
<path d="M157.75 51.2926C158.178 50.5571 158.877 50.312 159.675 50.2494C161.021 50.1399 161.798 50.6302 161.965 51.6995C162.173 53.0557 161.688 53.5721 159.983 53.8224C158.939 53.5877 159.79 51.8142 158.371 51.8977C157.828 52.0333 157.63 51.8194 157.75 51.2874V51.2926Z" fill="#EEEEEE"/>
<path d="M157.75 51.2926C157.849 51.6056 158.063 51.7986 158.371 51.9029C157.672 52.7792 156.978 53.6555 156.279 54.5318C155.904 54.5162 155.93 54.1876 155.82 53.9581C156.29 52.9461 156.785 51.9551 157.745 51.2926H157.75Z" fill="#EEEEEE"/>
<path d="M151.856 51.8038C152.122 51.8351 152.388 51.8664 152.659 51.8977C151.924 52.7375 151.193 53.5773 150.458 54.4119L150.218 54.3597L150.046 54.1876L149.994 53.9476C150.395 53.0452 151.053 52.3619 151.861 51.809L151.856 51.8038Z" fill="#EEEEEE"/>
<path d="M156.133 54.9126C155.638 55.7837 155.142 56.66 154.646 57.5311C154.573 57.5937 154.5 57.6563 154.427 57.7189C154.334 57.7084 154.234 57.7032 154.141 57.6928C153.989 57.5676 153.901 57.4059 153.885 57.2077C153.88 57.0199 153.885 56.8321 153.901 56.6444C154 56.3783 154.203 56.1801 154.349 55.9402C154.375 55.8515 154.401 55.7628 154.427 55.6742C154.495 55.6116 154.563 55.549 154.636 55.4916C154.97 55.1108 155.304 54.7353 155.638 54.3545C155.977 54.3858 155.987 54.7092 156.133 54.9126Z" fill="#EEEEEE"/>
<path d="M153.254 59.6697C152.398 59.2263 152.304 58.6891 153.05 58.0475C153.4 58.0423 153.436 57.698 153.624 57.5154L153.603 57.5311C153.692 57.4216 153.781 57.312 153.869 57.2025C153.958 57.3172 154.041 57.4268 154.13 57.5415C154.281 57.6511 154.344 57.7763 154.307 57.9119C154.271 58.0527 154.234 58.1205 154.187 58.1205C154.052 58.7412 153.749 59.2628 153.254 59.6645L153.254 59.6697Z" fill="#EEEEEE"/>
<path d="M150.458 54.4119C150.354 54.7666 150.009 55.0482 149.759 54.8709C149.258 54.511 149.696 54.2084 149.989 53.9424L150.056 54.0519C150.187 54.1198 150.286 54.2136 150.348 54.3493L150.453 54.4119H150.458Z" fill="#EEEEEE"/>
<path d="M156.133 54.9126C155.966 54.7248 155.804 54.5423 155.638 54.3545C155.658 54.2032 155.721 54.0676 155.825 53.9528C155.977 54.1458 156.128 54.3336 156.284 54.5266C156.274 54.6674 156.222 54.7978 156.138 54.9126H156.133Z" fill="#EEEEEE"/>
<path d="M154.146 55.4812C154.109 55.0534 154.151 54.6622 154.579 54.4223C154.6 54.777 154.615 55.1369 154.636 55.4916L154.683 55.4446C154.6 55.5646 154.521 55.6846 154.438 55.8098C154.339 55.7002 154.245 55.5907 154.146 55.4812Z" fill="#EEEEEE"/>
<path d="M154.187 58.1205C154.167 57.9275 154.146 57.7293 154.13 57.5363C154.302 57.5363 154.474 57.5363 154.646 57.5363C154.615 57.8232 154.448 58.011 154.193 58.1257L154.187 58.1205Z" fill="#EEEEEE"/>
<path d="M154.626 55.9193C154.584 56.2166 154.422 56.4148 154.13 56.5035C154.068 56.6287 154.005 56.7539 153.942 56.8791C153.854 56.7695 153.76 56.6652 153.671 56.5557C153.682 56.2688 153.828 56.081 154.104 55.9871C154.25 55.7576 154.427 55.7472 154.626 55.9193Z" fill="#EEEEEE"/>
<path d="M153.624 57.5154C153.436 57.6928 153.963 58.6317 153.05 58.0475C153.149 57.771 153.322 57.578 153.624 57.5154Z" fill="#EEEEEE"/>
<path d="M154.626 55.9193C154.454 55.9402 154.276 55.9663 154.104 55.9871C154.125 55.8202 154.141 55.6533 154.146 55.4812C154.323 55.4707 154.506 55.4603 154.683 55.4499C154.646 55.6063 154.631 55.7628 154.631 55.9193H154.626Z" fill="#EEEEEE"/>
<path d="M153.671 56.5557C153.822 56.5244 153.974 56.5035 154.13 56.5035C154.104 56.6496 154.094 56.8008 154.099 56.9469C153.974 57.2338 153.817 57.2546 153.624 57.0095C153.619 56.8582 153.635 56.7069 153.671 56.5609L153.671 56.5557Z" fill="#EEEEEE"/>
<path d="M153.624 57.0043C153.791 57.0408 153.948 57.0251 154.099 56.9417C154.109 57.1399 154.12 57.3381 154.13 57.5363C153.953 57.5363 153.781 57.5363 153.603 57.5311C153.608 57.3537 153.619 57.1764 153.624 57.0043Z" fill="#EEEEEE"/>
<path d="M150.354 54.3493C150.171 54.3284 150.077 54.2345 150.062 54.0519C150.301 54.0102 150.38 54.1302 150.354 54.3493Z" fill="#EEEEEE"/>
</svg>
