<svg width="231" height="127" viewBox="0 0 231 127" fill="none" xmlns="http://www.w3.org/2000/svg">
<g clip-path="url(#clip0_632_2679)">
<g clip-path="url(#clip1_632_2679)">
<path d="M66.0242 59.0382C64.2854 59.0382 63.1716 59.6106 63.1716 60.6314C63.1716 61.6521 64.3416 62.1004 66.0804 62.2816C68.5524 62.4916 71.7576 62.9114 71.7576 66.2598C71.7576 68.6447 69.5018 70.3427 66.0523 70.3427C63.8765 70.3427 61.7851 69.8658 59.9429 67.9578L61.4093 66.0498C62.6402 67.2806 64.3013 67.9665 66.0288 67.9578C67.5233 67.9578 68.9897 67.5095 68.9897 66.3076C68.9897 65.1054 67.8475 64.7097 65.8644 64.5282C63.3641 64.3185 60.4034 63.5742 60.4034 60.7122C60.4034 57.8505 63.4769 56.7868 65.9724 56.7868C67.8382 56.7504 69.6611 57.3492 71.142 58.4848L69.6756 60.1878C68.6201 59.4094 67.3353 59.0049 66.0242 59.0382ZM81.0206 67.8338C82.4306 67.8338 84.066 67.3569 84.9072 66.4458L86.7307 68.1438C85.3442 69.6369 83.0321 70.3427 80.969 70.3427C76.5655 70.3427 73.741 67.7003 73.741 63.5649C73.741 59.6392 76.6735 56.7868 80.9126 56.7868C84.8556 56.7868 87.5719 59.0097 87.5719 63.4646C87.5719 63.827 87.5436 64.223 87.5155 64.6142H76.6594C76.8946 66.627 78.5393 67.8338 81.0206 67.8338ZM80.9126 59.1957C78.8774 59.1957 77.1106 60.2687 76.6829 62.3627H84.8086C84.6487 60.2927 83.239 59.1957 80.9126 59.1957ZM100.533 62.7777C100.533 60.555 99.227 59.272 96.9194 59.272C96.4137 59.2678 95.9125 59.3672 95.4468 59.5643C94.981 59.7614 94.5606 60.0518 94.2115 60.4178C93.8591 60.7871 93.5844 61.2235 93.4038 61.701C93.2231 62.1784 93.1402 62.6873 93.1598 63.1974V70.0326H90.3398V57.1014H92.8966L93.061 58.9046C94.1782 57.5534 95.8301 56.7772 97.5682 56.7868C100.801 56.7868 103.33 58.7236 103.33 62.7539V70.0329H100.51L100.533 62.7777ZM120.422 70.0329H117.786L117.621 67.9864C116.57 69.5236 114.82 70.4118 112.978 70.3427C109.092 70.3427 106.131 67.8578 106.131 63.5649C106.131 59.1669 109.035 56.7868 112.922 56.7868C114.552 56.7868 116.752 57.5452 117.621 59.0908V51.7353H120.441L120.422 70.0329ZM108.927 63.5649C108.927 66.1833 110.774 67.8338 113.157 67.8338C115.472 67.8338 117.349 65.9289 117.349 63.579C117.349 61.2294 115.472 59.3243 113.157 59.3243C110.774 59.3243 108.927 60.9462 108.927 63.5649ZM125.639 51.3921C125.863 51.3737 126.088 51.4028 126.3 51.4777C126.512 51.5526 126.706 51.6714 126.868 51.8265C127.033 51.983 127.163 52.1718 127.25 52.3811C127.338 52.5903 127.381 52.8155 127.378 53.0423C127.31 53.9668 126.552 54.6822 125.639 54.6822C124.725 54.6822 123.967 53.967 123.9 53.0423C123.896 52.8155 123.94 52.5903 124.027 52.3811C124.115 52.1718 124.245 51.983 124.409 51.8265C124.572 51.6714 124.766 51.5526 124.978 51.4777C125.189 51.4028 125.415 51.3737 125.639 51.3921ZM127.025 70.0329H124.205V57.1017H127.025V70.0329ZM140.988 62.7777C140.988 60.555 139.686 59.272 137.374 59.272C136.868 59.2671 136.366 59.3661 135.9 59.563C135.434 59.7598 135.013 60.0503 134.664 60.4163C134.312 60.7858 134.037 61.2224 133.857 61.7002C133.676 62.178 133.594 62.6871 133.614 63.1974V70.0326H130.794V57.1014H133.346L133.511 58.9046C134.63 57.5534 136.283 56.777 138.022 56.7868C141.256 56.7868 143.784 58.7236 143.784 62.7539V70.0329H140.964L140.988 62.7777ZM150.199 59.2194C151.068 57.6738 153.272 56.7868 154.899 56.7868C158.757 56.7868 161.694 59.1717 161.694 63.5649C161.694 67.8578 158.541 70.3427 154.875 70.3427C153.188 70.3427 151.261 69.6369 150.199 67.9864L150.039 70.0329H147.403V51.7353H150.222L150.199 59.2194ZM150.363 63.5649C150.354 64.1337 150.459 64.6985 150.673 65.2257C150.887 65.7529 151.204 66.2318 151.607 66.6338C152.005 67.0319 152.481 67.3439 153.006 67.5503C153.53 67.7567 154.091 67.8532 154.654 67.8338C157.103 67.8338 158.884 66.1835 158.884 63.5649C158.884 60.9462 157.093 59.3243 154.654 59.3243C154.094 59.3057 153.535 59.4018 153.013 59.6067C152.491 59.8117 152.016 60.1211 151.618 60.5162C151.216 60.9149 150.898 61.3901 150.683 61.9137C150.467 62.4373 150.359 62.9987 150.363 63.5649ZM167.587 70.0329H164.768V51.7353H167.588V70.0329H167.587ZM174.082 64.1421C174.082 66.341 175.361 67.8578 177.725 67.8578C178.227 67.8628 178.725 67.7643 179.187 67.5685C179.649 67.3727 180.067 67.0838 180.413 66.7197C180.762 66.3522 181.034 65.918 181.211 65.4431C181.389 64.9682 181.469 64.4624 181.447 63.9558V57.1014H184.243V70.0326H181.719L181.555 68.249C180.414 69.6306 178.71 70.403 176.935 70.3427C173.645 70.3427 171.295 68.0675 171.295 64.1658V57.1017H174.092L174.082 64.1421ZM194.516 67.8338C195.926 67.8338 197.557 67.3569 198.403 66.4458L200.222 68.1438C198.835 69.6369 196.528 70.3427 194.46 70.3427C190.061 70.3427 187.232 67.7003 187.232 63.5649C187.232 59.6392 190.169 56.7868 194.408 56.7868C198.347 56.7868 201.063 59.0097 201.063 63.4646C201.063 63.827 201.035 64.223 201.011 64.6142H190.141C190.39 66.627 192.044 67.8338 194.516 67.8338H194.516ZM194.408 59.1957C192.368 59.1957 190.602 60.2687 190.179 62.3627H198.3C198.13 60.2927 196.716 59.1957 194.408 59.1957H194.408Z" fill="#CECECE"/>
<path fill-rule="evenodd" clip-rule="evenodd" d="M50.3928 68.8255C49.7678 69.9102 48.7471 70.7107 47.5448 71.0592C47.7166 70.4693 47.8044 69.8581 47.8054 69.2436C47.8054 66.1836 45.6965 63.6171 42.8657 62.9182C43.4525 62.3443 44.1771 61.9309 44.9698 61.7179C45.5812 61.5515 46.2196 61.5086 46.8477 61.5918C47.4759 61.675 48.0811 61.8825 48.6281 62.2023C50.9304 63.5393 51.722 66.5103 50.3928 68.8255ZM41.3228 74.0919C40.0635 74.0919 38.8656 73.5888 37.9769 72.7299C38.5705 72.5841 39.1402 72.3544 39.6689 72.0478C42.3032 70.5183 43.4588 67.3997 42.6468 64.5855C44.6626 65.1663 46.1439 67.0325 46.1439 69.2436C46.1439 71.9165 43.9808 74.0919 41.3228 74.0919ZM32.2522 68.8255C31.6227 67.7287 31.4597 66.4366 31.754 65.2347C32.1761 65.6761 32.6582 66.0562 33.186 66.3636C34.1669 66.935 35.2818 67.2359 36.4169 67.2358C37.2928 67.235 38.1595 67.057 38.9647 66.7123C39.7699 66.3677 40.497 65.8635 41.1022 65.2303C41.6079 67.2751 40.741 69.4954 38.8383 70.6003C38.1089 71.0252 37.2799 71.2489 36.4359 71.2488C35.5869 71.2492 34.7528 71.0252 34.0181 70.5997C33.2834 70.1742 32.6744 69.5622 32.2522 68.8255ZM32.252 58.2929C32.877 57.2082 33.8978 56.4077 35.1003 56.0592C34.928 56.6492 34.8401 57.2607 34.8392 57.8753C34.8392 60.9336 36.9471 63.4995 39.7764 64.1995C38.2683 65.665 35.9206 66.0216 34.0169 64.9162C32.9014 64.2682 32.1039 63.223 31.7705 61.9719C31.6049 61.3571 31.5621 60.7157 31.6448 60.0844C31.7274 59.4531 31.9337 58.8443 32.252 58.2929ZM41.3228 53.0266C42.5825 53.0266 43.7792 53.5291 44.6672 54.3874C44.0741 54.5344 43.5048 54.7644 42.9761 55.0707C41.4761 55.9419 40.4033 57.3475 39.9555 59.0299C39.6485 60.1793 39.6627 61.3908 39.9963 62.5327C37.9815 61.9515 36.5014 60.0855 36.5014 57.8753C36.5014 55.2017 38.664 53.0266 41.3228 53.0266ZM50.3928 58.2929C51.0231 59.3911 51.1863 60.6847 50.8901 61.8881C50.469 61.4447 49.9873 61.0632 49.4592 60.7548C47.9592 59.8843 46.2123 59.653 44.5392 60.1037C43.3941 60.4122 42.3565 61.0313 41.5412 61.8927C41.3413 61.0941 41.348 60.2577 41.5608 59.4624C41.8937 58.2115 42.6915 57.1659 43.807 56.5181C44.9223 55.8708 46.2214 55.6987 47.4653 56.0338C48.7092 56.3691 49.7487 57.1714 50.3928 58.2929ZM51.8321 57.4577C50.9662 55.9493 49.5682 54.8705 47.8952 54.4198C47.4997 54.3138 47.0951 54.2453 46.6868 54.2153C45.4868 52.4407 43.4724 51.3555 41.3228 51.3555C39.0963 51.3555 37.129 52.4904 35.9612 54.2146C33.8316 54.372 31.8884 55.584 30.8132 57.4572C29.9468 58.9654 29.7171 60.7227 30.1649 62.4051C30.2715 62.8024 30.4149 63.1888 30.5933 63.5595C29.6652 65.4922 29.7377 67.789 30.8127 69.6615C31.9258 71.6002 33.8861 72.7447 35.9544 72.9003C37.1544 74.6763 39.1728 75.7635 41.3225 75.7635C43.5488 75.7635 45.516 74.6283 46.6836 72.9039C48.8132 72.7464 50.7564 71.5349 51.8319 69.6615C52.9452 67.7223 52.951 65.4415 52.05 63.5626C52.9793 61.6289 52.9076 59.3311 51.8321 57.4577Z" fill="#EEEEEE"/>
</g>
</g>
<defs>
<clipPath id="clip0_632_2679">
<rect width="231" height="127" fill="white"/>
</clipPath>
<clipPath id="clip1_632_2679">
<rect width="171.12" height="24.72" fill="white" transform="translate(29.9399 51.1406)"/>
</clipPath>
</defs>
</svg>
