<svg width="214" height="29" viewBox="0 0 214 29" fill="none" xmlns="http://www.w3.org/2000/svg">
<g clip-path="url(#clip0_1_3201)">
<path d="M17.6257 11.4554C16.7445 10.9518 14.101 10.1965 9.31744 8.81182C7.55508 8.43418 5.41508 7.553 5.41508 6.16829C5.41508 5.16124 6.04449 4.15418 6.92567 3.77653C7.93273 3.273 9.06567 3.02124 10.1986 3.02124C11.8351 2.89535 13.3457 3.39888 14.6045 4.15418C16.1151 5.16123 17.3739 6.42006 18.381 7.80476L19.388 7.30124L18.0033 1.00712L17.8774 0.251823L17.248 0.62947C16.6186 0.881235 16.1151 1.00712 15.4857 1.00712C15.2339 1.00712 13.0939 0.755353 12.4645 0.62947C11.7092 0.503588 11.0798 0.503588 10.3245 0.503588C8.05861 0.377706 5.91861 0.881235 4.03038 1.88829C2.01626 2.89535 0.757436 5.03535 0.883318 7.42712C0.883318 10.0706 2.51979 11.9589 5.66685 13.3436L13.8492 15.8612C16.4927 16.8683 17.8774 18.253 17.8774 20.1412C17.8774 21.9036 16.9963 23.4142 15.6116 24.4212C14.2268 25.5542 12.4645 26.0577 10.7021 26.0577C8.81391 26.1836 6.92567 25.4283 5.41508 24.4212C3.77861 23.1624 2.39391 21.5259 1.26097 19.8895L0.253906 20.2671L1.89038 27.6942L2.14214 28.5754L2.89744 27.9459C3.27508 27.6942 3.77861 27.4424 4.28214 27.5683C5.54097 27.8201 6.54802 27.9459 7.55508 28.0718C8.68802 28.1977 9.82096 28.3236 10.9539 28.3236C13.8492 28.4495 16.6186 27.4424 19.0104 25.8059C21.4021 24.1695 22.661 21.5259 22.661 18.7565C22.4092 15.6095 20.8986 13.0918 17.6257 11.4554ZM43.1798 26.6871C43.0539 26.4354 42.928 26.1836 42.928 25.9318V16.3648C42.928 14.2248 42.5504 12.7142 41.7951 11.7071C41.1657 10.7001 39.781 10.0706 38.0186 10.0706C36.3821 10.0706 34.8716 10.5742 33.4868 11.3295C32.6057 11.833 31.8504 12.2106 31.221 12.8401V3.273L30.4657 3.52476L25.6821 4.65771L25.808 5.79065C26.0598 5.91653 26.3116 6.04241 26.4374 6.29418C26.5633 6.54594 26.5633 6.79771 26.5633 7.04947V26.0577C26.5633 26.3095 26.4374 26.6871 26.3116 26.813C26.1857 27.0648 26.0598 27.1906 25.808 27.3165L26.0598 28.4495H31.4727L31.8504 27.3165C31.5986 27.1906 31.4727 27.0648 31.3468 26.9389C31.221 26.813 31.221 26.6871 31.0951 26.5612V18.253C31.221 16.9942 31.7245 15.7354 32.6057 14.8542C33.4868 13.8471 34.6198 13.3436 36.0045 13.2177C36.6339 13.2177 37.2633 13.4695 37.641 13.973C38.1445 14.4765 38.3963 15.1059 38.3963 15.7354V26.0577C38.3963 26.3095 38.2704 26.5612 38.1445 26.813C38.0186 27.0648 37.7668 27.1906 37.641 27.3165L38.0186 28.4495H43.5574L43.8092 27.3165C43.5574 27.0648 43.3057 26.9389 43.1798 26.6871ZM64.9574 27.1906C64.4539 26.9389 64.2021 26.5612 64.0763 26.0577C63.9504 25.8059 63.9504 25.5542 63.9504 25.3024V14.6024C64.0763 12.8401 63.0692 11.2036 61.4327 10.4483C59.9221 9.81888 58.2857 9.44124 56.7751 9.56712C55.6421 9.56712 54.6351 9.693 53.5021 9.94477C52.621 10.0706 51.7398 10.3224 50.8586 10.7001L50.6068 10.8259C50.481 10.8259 50.2292 10.7001 50.2292 10.5742L50.1033 10.4483L49.2221 9.18947L48.9704 10.7001L48.0892 16.3648L49.2221 16.7424C49.7257 15.3577 50.6068 14.2248 51.8657 13.4695C53.1245 12.7142 54.3833 12.3365 55.768 12.3365C56.5233 12.3365 57.4045 12.5883 58.0339 12.8401C58.5374 13.0918 58.9151 13.7212 58.9151 14.3506V15.8612C56.0198 16.113 53.2504 16.8683 50.7327 18.253C48.2151 19.6377 46.8304 21.4001 46.8304 23.5401C46.8304 25.0506 47.5857 26.5612 48.9704 27.3165C50.2292 28.1977 51.7398 28.5754 53.1245 28.5754C54.5092 28.5754 55.768 28.1977 57.0268 27.5683C57.908 27.0648 58.6633 26.6871 59.4186 26.1836C59.5445 26.4354 59.6704 26.5612 59.6704 26.813C60.048 27.8201 60.6774 28.0718 61.0551 28.0718H66.5939L64.9574 27.1906ZM59.041 18.6306V21.2742C59.041 22.533 58.4116 23.6659 57.5304 24.4212C56.6492 25.3024 55.5163 25.8059 54.2574 25.8059C53.628 25.8059 52.9986 25.5542 52.4951 25.0506C51.9916 24.673 51.7398 24.0436 51.7398 23.5401C51.7398 22.0295 52.621 20.8965 54.3833 19.8895C55.8939 19.1342 57.4045 18.7565 59.041 18.6306ZM78.6786 10.0706C78.1751 10.0706 77.6715 10.1965 77.168 10.3224C76.4127 10.5742 75.7833 10.7001 75.1539 11.0777C74.5245 11.4554 73.8951 11.9589 73.3915 12.4624L72.6363 13.2177L72.2586 12.0848C72.1327 11.7071 71.881 11.3295 71.7551 10.9518C71.881 10.7001 71.7551 10.4483 71.7551 10.3224L71.5033 9.94477L71.1257 10.0706L67.2233 10.9518L65.9645 11.2036L66.9715 11.9589C67.601 12.4624 68.1045 13.0918 68.4821 13.8471C68.7339 14.2248 68.7339 14.7283 68.8598 15.1059C68.9857 15.4836 68.9857 15.9871 68.9857 16.3648V26.4354C68.9857 26.6871 68.8598 26.9389 68.8598 27.1906C68.7339 27.4424 68.608 27.5683 68.3563 27.6942L68.608 28.8271H75.6574L73.8951 27.6942C73.6433 27.5683 73.5174 27.4424 73.3915 27.1906C73.2657 26.9389 73.2657 26.6871 73.2657 26.4354V17.3718C73.2657 16.7424 73.5174 16.113 73.8951 15.6095C74.2727 15.1059 74.7763 14.6024 75.2798 14.2248C75.7833 13.8471 76.161 13.7212 76.7904 13.7212C77.168 13.7212 77.5457 13.8471 77.9233 13.973C78.1751 14.0989 78.4268 14.2248 78.5527 14.4765L79.308 15.8612L79.5598 14.3506L80.1892 10.9518L79.9374 10.0706H78.6786ZM98.3163 26.0577C98.1904 25.8059 98.1904 25.5542 98.1904 25.3024V14.6024C98.3163 12.8401 97.3092 11.2036 95.6727 10.4483C94.1621 9.81888 92.5257 9.44124 91.0151 9.56712C89.8821 9.56712 88.8751 9.693 87.7421 9.94477C86.861 10.0706 85.9798 10.3224 85.0986 10.7001H84.9727C84.8468 10.7001 84.5951 10.5742 84.5951 10.4483L84.4692 10.3224L83.588 9.31535L83.3363 10.5742L82.4551 16.2389L83.588 16.6165C84.0916 15.2318 84.9727 14.0989 86.2316 13.3436C87.4904 12.5883 88.7492 12.2106 90.1339 12.2106C90.8892 12.2106 91.7704 12.4624 92.3998 12.7142C92.9033 12.9659 93.281 13.5954 93.281 14.2248V15.7354C90.3857 15.9871 87.6163 16.7424 85.0986 18.1271C82.4551 19.5118 81.1963 21.2742 81.1963 23.4142C81.1963 24.9248 81.9516 26.4354 83.3363 27.1906C84.5951 28.0718 85.9798 28.4495 87.4904 28.4495C88.8751 28.4495 90.1339 28.0718 91.3927 27.4424C92.2739 26.9389 93.0292 26.5612 93.7845 26.0577C93.9104 26.3095 94.0363 26.4354 94.1621 26.6871C94.5398 27.5683 94.9174 27.9459 95.5469 27.9459H101.086L99.4492 26.9389C98.8198 26.9389 98.4421 26.5612 98.3163 26.0577ZM93.281 21.2742C93.281 22.533 92.6516 23.6659 91.7704 24.4212C90.8892 25.3024 89.7563 25.8059 88.4974 25.8059C87.868 25.8059 87.2386 25.5542 86.7351 25.0506C86.2316 24.673 85.9798 24.0436 85.9798 23.5401C85.9798 22.1554 86.861 20.8965 88.6233 19.8895C90.008 19.1342 91.5186 18.6306 93.1551 18.5048L93.281 21.2742ZM114.303 3.39888C113.674 3.02124 113.045 2.76947 112.415 2.64359C111.66 2.51771 111.03 2.51771 110.275 2.51771C108.009 2.51771 106.247 3.14712 104.988 4.40594C103.603 5.79065 102.974 7.80477 102.974 10.4483C102.974 10.4483 102.848 10.7001 102.344 11.0777C102.093 11.3295 101.715 11.5812 101.463 11.7071L101.715 12.8401H102.974V26.0577C102.974 26.4354 102.848 26.6871 102.722 27.0648C102.596 27.3165 102.344 27.4424 102.093 27.5683L102.344 28.7012H108.261L108.513 27.5683C108.261 27.4424 108.009 27.1906 107.883 27.0648C107.757 26.813 107.632 26.4354 107.632 26.1836V12.7142H110.779L110.904 12.3365L111.66 10.8259L112.163 10.0706H107.757V8.05653C107.757 7.17535 108.009 6.29418 108.513 5.53888C108.89 4.90947 109.52 4.65771 110.275 4.65771C110.779 4.65771 111.408 4.78359 111.786 5.16123C112.289 5.66476 112.541 6.16829 112.667 6.79771L113.17 8.43418L113.8 6.79771L114.555 4.02829L114.807 3.52476L114.303 3.39888ZM121.101 0.377706H133.437V7.17535H121.101V0.377706ZM201.414 12.5883H213.75V19.5118H201.414V12.5883Z" fill="#A8A8A8"/>
<path d="M165.66 13.9726C165.66 1.00669 146.148 0.377277 146.148 0.377277H135.7V7.17492H145.267C154.079 7.17492 153.575 14.602 153.575 14.602C153.324 21.2737 144.638 21.3996 144.638 21.3996H133.434V9.31492H121.098V28.0714H143.001C146.778 28.0714 151.058 27.6937 151.058 27.6937C166.289 24.9243 165.66 13.9726 165.66 13.9726ZM213.747 0.377277V7.17492H191.592C191.592 7.17492 181.395 6.67139 181.395 14.2243C181.395 14.2243 180.892 21.3996 191.34 21.3996H213.747V27.9455H190.207C190.207 27.9455 168.933 28.0714 168.933 13.7208C168.933 13.7208 168.555 1.38434 187.438 0.377277H213.747Z" fill="#A8A8A8"/>
</g>
<defs>
<clipPath id="clip0_1_3201">
<rect width="214" height="28.9529" fill="white"/>
</clipPath>
</defs>
</svg>
