<svg width="278" height="56" viewBox="0 0 278 56" fill="none" xmlns="http://www.w3.org/2000/svg">
<g clip-path="url(#clip0_2047_66)">
<path d="M0 5.84807L32.3814 0C32.3926 18.6667 32.3814 37.3333 32.3814 56C21.595 54.0694 10.8086 52.105 0 50.1744V5.84807ZM10.7864 18.4871C9.46312 20.0698 9.05168 22.2586 9.29632 24.2678C9.49648 26.0188 10.4639 27.624 11.7761 28.7352C12.977 29.7679 14.5116 30.3965 15.5902 31.6087C16.402 32.5179 16.6022 34.0333 15.7904 35.0098C15.1454 35.7956 14.0334 35.8517 13.1216 35.6945C11.587 35.47 10.286 34.5159 9.27408 33.3598L9.2852 38.1976C10.7753 39.3426 12.699 39.7466 14.5338 39.7354C15.8349 39.7017 17.1582 39.3987 18.2146 38.6017C19.5378 37.6252 20.3051 36.0313 20.4942 34.4149C20.761 32.5292 20.4497 30.4975 19.2932 28.9485C18.2813 27.6576 16.9246 26.7148 15.5458 25.8841C14.8007 25.4239 14.0557 24.93 13.5553 24.1892C12.9659 23.179 12.9882 21.7422 13.8555 20.9116C14.5783 20.2045 15.6792 20.1483 16.6244 20.2606C17.7809 20.384 18.8706 20.9116 19.7714 21.63V16.8258C18.2702 16.2085 16.6022 16.1411 15.012 16.2646C13.3996 16.4778 11.8206 17.2187 10.7864 18.4871ZM35.5173 9.38384C36.6293 8.28382 38.175 7.61034 39.7429 7.75626C41.978 7.87974 43.9462 9.64201 44.5022 11.8084C44.7246 12.6278 44.7358 13.4809 44.6023 14.3115C48.2052 15.8156 51.1409 18.8799 52.5309 22.5616C54.1099 22.2586 55.8224 22.7188 57.0122 23.8188C58.8915 25.4464 59.403 28.3985 58.2577 30.621C57.2346 32.7088 54.7882 33.9547 52.5198 33.4833C51.1298 37.1537 48.2274 40.2181 44.6246 41.711C44.9359 43.5181 44.391 45.46 43.09 46.7621C41.7445 48.1652 39.5761 48.6815 37.7413 48.0529C36.9073 47.7611 36.1289 47.2896 35.5395 46.6162V38.9048C36.5848 37.8048 38.0749 37.1313 39.5872 37.2099C41.0217 37.2435 42.3561 37.9731 43.3235 38.9946C46.3593 37.7823 48.7946 35.2119 49.9066 32.1139C49.0058 31.171 48.3609 29.9587 48.2274 28.6454C48.005 26.9056 48.7056 25.1433 49.9066 23.9198C48.7946 20.8106 46.3482 18.2177 43.2902 17.0054C42.4228 18.0156 41.1662 18.6779 39.8541 18.8126C38.2528 18.9922 36.6404 18.2963 35.5173 17.1513V9.38384ZM95.4207 9.3614H99.2682V24.8851C100.469 22.8872 102.293 21.181 104.584 20.6085C106.63 20.0922 108.854 20.1596 110.811 20.979C112.523 21.6973 113.78 23.2463 114.38 24.9974C114.992 26.6923 115.125 28.5107 115.136 30.2955V44.8539H111.311V31.5526C111.278 29.8016 111.211 27.9944 110.455 26.378C109.932 25.2331 108.954 24.2566 107.731 23.8862C105.862 23.2912 103.683 23.5831 102.115 24.7953C100.269 26.2209 99.2682 28.5781 99.2349 30.8904V44.8314H95.4096C95.4207 33.0231 95.4318 21.1922 95.4207 9.3614ZM232.286 9.91141C233.698 9.39507 235.433 10.3716 235.588 11.9206C235.855 13.2564 234.81 14.6482 233.464 14.7941C232.263 14.9962 230.907 14.2329 230.651 12.987C230.317 11.7523 231.051 10.3043 232.286 9.91141ZM77.7066 11.5951C79.7971 10.7308 82.0878 10.6186 84.3007 10.7533C85.9798 10.8655 87.7034 11.09 89.2046 11.887V16.3544C87.1141 14.7043 84.3674 14.1543 81.7654 14.3115C80.0306 14.4125 78.2403 15.1084 77.1506 16.5003C76.0163 17.9707 76.0163 20.0585 76.6279 21.7422C77.4619 23.5494 79.2856 24.5484 80.898 25.5699C83.5112 27.1189 86.2801 28.5219 88.3929 30.7781C89.8496 32.2934 90.6836 34.3812 90.6058 36.5139C90.6391 38.7701 89.8162 41.0824 88.1371 42.6089C86.1466 44.5059 83.3555 45.2916 80.6867 45.4151C78.5406 45.5947 76.3722 45.1569 74.315 44.5171C73.5254 44.259 72.7359 43.9784 72.0576 43.5069L72.0687 38.7925C73.8924 40.4089 76.2498 41.3181 78.6073 41.711C80.3754 41.9691 82.2324 41.8569 83.9115 41.1722C85.0013 40.712 85.902 39.7691 86.2356 38.6017C86.7249 36.9405 86.5247 35.0098 85.4461 33.618C84.5787 32.5179 83.3889 31.721 82.2324 30.9353C80.2197 29.5771 78.0068 28.5444 76.0942 27.0403C74.7042 25.9515 73.3586 24.6719 72.7137 22.9882C71.9686 21.0688 71.9242 18.9024 72.5246 16.9381C73.2697 14.4462 75.3491 12.5492 77.7066 11.5951ZM181.945 11.2696H188.228C190.597 11.2808 193.032 11.1237 195.367 11.7859C197.625 12.3808 199.749 13.7615 200.972 15.8044C202.317 18.0718 202.54 20.8555 202.139 23.4035C201.739 25.9627 200.271 28.2862 198.203 29.7903C196.713 30.9128 194.934 31.5975 193.11 31.9006C190.719 32.3047 188.284 32.0577 185.86 32.1251V44.8202H181.934C181.945 33.6629 181.968 22.4718 181.945 11.2696ZM185.871 14.8615V28.5893C188.462 28.5107 191.142 28.8475 193.666 28.0505C195.156 27.5678 196.546 26.6138 197.324 25.2219C198.192 23.6392 198.347 21.7422 198.081 19.98C197.858 18.5769 197.18 17.1962 196.023 16.3432C194.522 15.2095 192.587 14.9176 190.775 14.8615H185.871ZM268.181 15.0074C269.46 14.6033 270.728 14.1768 272.006 13.7615C272.017 16.1299 272.006 18.4871 272.006 20.8555H277.989V24.178H272.029V38.0966C272.062 39.0395 272.173 40.0497 272.696 40.8579C273.174 41.6212 274.086 41.9804 274.942 42.0365C276.021 42.1824 277.122 41.8906 278.011 41.2844V44.6182C276.632 45.3253 275.042 45.46 273.519 45.3365C272.206 45.2243 270.85 44.7753 269.916 43.7988C268.681 42.5528 268.27 40.7344 268.192 39.0395V24.1555H264.078V20.8555H268.192C268.181 18.9024 268.159 16.9605 268.181 15.0074ZM125.3 20.9004C127.858 20.182 130.66 19.9687 133.206 20.8667C135.03 21.5065 136.498 23.0106 137.132 24.829C137.888 26.8046 137.832 28.9822 137.81 31.07V44.8314H133.985V41.0263C133.051 42.6763 131.672 44.1243 129.893 44.809C127.958 45.5723 125.778 45.5723 123.799 45.0335C121.653 44.4273 119.796 42.6875 119.273 40.465C118.862 38.714 118.962 36.7945 119.673 35.1108C120.207 33.7863 121.241 32.72 122.453 32.0128C123.799 31.2271 125.311 30.8342 126.846 30.6097C129.237 30.273 131.605 29.9363 133.996 29.5883C133.963 27.9944 133.762 26.2546 132.695 24.9862C131.828 23.931 130.404 23.5157 129.07 23.5606C126.256 23.5157 123.499 24.6607 121.364 26.4791V22.4718C122.554 21.7198 123.944 21.3045 125.3 20.9004ZM127.246 33.719C125.923 34.022 124.399 34.37 123.588 35.5823C122.954 36.6037 122.876 37.8833 123.054 39.0283C123.321 40.4201 124.488 41.4752 125.812 41.8569C127.302 42.2834 128.959 42.1263 130.349 41.4528C132.006 40.5885 133.273 38.9609 133.718 37.1425C134.118 35.7058 133.918 34.1904 133.974 32.72C131.739 33.0904 129.492 33.3598 127.246 33.719ZM160.962 22.5167C162.763 21.0688 165.054 20.2493 167.367 20.2942C169.491 20.2493 171.682 20.7881 173.383 22.1126C175.096 23.4484 176.23 25.4464 176.741 27.5454C177.275 29.5883 177.231 31.7098 177.231 33.82C171.648 33.82 166.044 33.8088 160.45 33.82C160.551 35.7058 160.873 37.6701 161.985 39.2303C163.064 40.813 164.865 41.7895 166.733 42.014C169.869 42.4742 173.105 41.4528 175.574 39.4548C175.563 40.6671 175.574 41.9018 175.574 43.1141C173.405 44.7304 170.67 45.3365 168.023 45.4263C165.788 45.5274 163.486 45.1682 161.54 43.9896C159.594 42.8222 158.171 40.8916 157.415 38.7701C156.581 36.469 156.414 33.9659 156.558 31.5414C156.792 28.1179 158.271 24.6831 160.962 22.5167ZM163.508 24.93C161.796 26.2882 160.817 28.4097 160.517 30.5536H173.283C173.272 28.7464 172.883 26.8382 171.704 25.4239C170.703 24.1892 169.091 23.5831 167.545 23.6055C166.077 23.5382 164.609 24.0208 163.508 24.93ZM213.27 20.3953C216.084 20.0922 219.108 20.3504 221.555 21.8994C224.179 23.527 225.792 26.4454 226.303 29.4648C226.781 32.3496 226.703 35.4027 225.692 38.164C224.602 41.161 222.211 43.6865 219.186 44.7304C216.629 45.6059 213.793 45.6733 211.18 44.9998C208.4 44.2814 205.987 42.3059 204.664 39.7466C203.274 37.165 203.018 34.1231 203.274 31.2383C203.507 28.6005 204.408 25.9739 206.198 23.9759C207.966 21.8882 210.579 20.6983 213.27 20.3953ZM213.637 23.6841C211.647 23.9423 209.79 25.0872 208.689 26.7821C207.232 29.0158 206.965 31.8108 207.166 34.4261C207.355 36.8507 208.389 39.3426 210.424 40.7681C212.003 41.913 214.027 42.2497 215.939 42.0814C217.485 41.9579 219.042 41.3742 220.143 40.2742C221.344 39.1405 222.022 37.5466 222.344 35.9302C222.689 34.1231 222.689 32.271 222.456 30.4526C222.155 28.2301 221.143 25.9515 219.209 24.7056C217.585 23.628 215.528 23.4596 213.637 23.6841ZM247.186 22.382C248.465 21.2147 250.144 20.4963 251.857 20.3167C253.736 20.1371 255.738 20.3167 257.361 21.3381C259.185 22.4606 260.275 24.4811 260.72 26.524C261.198 28.5893 261.064 30.7108 261.086 32.7873V44.809H257.261V31.0363C257.217 29.2852 257.039 27.4444 256.149 25.8954C255.538 24.7953 254.437 23.9759 253.202 23.729C251.768 23.4147 250.2 23.5494 248.888 24.2453C246.564 25.4801 245.218 28.1066 245.185 30.7108C245.174 35.4251 245.185 40.1171 245.185 44.8314H241.36V20.833H245.185V24.8739C245.763 23.9872 246.375 23.1004 247.186 22.382ZM150.454 21.5065C152.055 20.2942 154.234 20.1932 156.103 20.7432V24.7953C154.946 23.9984 153.445 23.8525 152.099 24.1219C150.487 24.4698 149.297 25.828 148.585 27.2648C147.685 29.1281 147.462 31.2383 147.529 33.3037V44.8314H143.704V20.8555H147.551V25.8729C148.085 24.1892 148.986 22.5504 150.454 21.5065ZM231.14 20.8555H234.988V44.8427H231.163L231.14 20.8555Z" fill="white"/>
</g>
<defs>
<clipPath id="clip0_2047_66">
<rect width="278" height="56" fill="white"/>
</clipPath>
</defs>
</svg>
