<svg width="216" height="207" viewBox="0 0 216 207" fill="none" xmlns="http://www.w3.org/2000/svg">
<g clip-path="url(#clip0_5535_2720)">
<rect width="216" height="206.929" fill="#151517"/>
<path d="M107.069 50.4277C103.917 50.4277 100.796 51.0486 97.8837 52.2548C94.9717 53.4611 92.3255 55.2291 90.0967 57.458C87.8678 59.6868 86.0998 62.3329 84.8936 65.245C83.6873 68.157 83.0664 71.2783 83.0664 74.4303C83.0664 77.5825 83.6873 80.7036 84.8936 83.6158C86.0998 86.528 87.8678 89.1741 90.0967 91.4029C92.3255 93.6317 94.9717 95.3998 97.8837 96.606C100.796 97.8122 103.917 98.4331 107.069 98.4331C110.221 98.4331 113.342 97.8122 116.255 96.606C119.167 95.3998 121.813 93.6317 124.042 91.4029C126.271 89.1741 128.039 86.528 129.245 83.6158C130.451 80.7036 131.072 77.5825 131.072 74.4303C131.072 71.2783 130.451 68.157 129.245 65.245C128.039 62.3329 126.271 59.6868 124.042 57.458C121.813 55.2291 119.167 53.4611 116.255 52.2548C113.342 51.0486 110.221 50.4277 107.069 50.4277Z" fill="#5F5F5F"/>
<path d="M128.069 74.4297C122.499 74.4297 117.157 76.6425 113.218 80.5812C109.279 84.52 107.066 89.862 107.066 95.4322C107.066 101.002 109.279 106.344 113.218 110.283C117.157 114.222 122.499 116.434 128.069 116.434C133.639 116.434 138.981 114.222 142.92 110.283C146.858 106.344 149.071 101.002 149.071 95.4322C149.071 89.862 146.858 84.52 142.92 80.5812C138.981 76.6425 133.639 74.4297 128.069 74.4297Z" fill="#A6A7AA"/>
<path d="M109.064 98.4375C104.82 98.4375 100.75 100.123 97.7495 103.124C94.7485 106.125 93.0625 110.195 93.0625 114.439C93.0625 118.683 94.7485 122.753 97.7495 125.754C100.75 128.755 104.82 130.441 109.064 130.441C113.308 130.441 117.378 128.755 120.379 125.754C123.38 122.753 125.066 118.683 125.066 114.439C125.066 110.195 123.38 106.125 120.379 103.124C117.378 100.123 113.308 98.4375 109.064 98.4375Z" fill="#FEFEFE"/>
<path d="M105.701 110.434H72.4209C70.5648 110.434 69.0586 108.928 69.0586 107.072V73.792C69.0586 71.9358 70.5648 70.4297 72.4209 70.4297H105.701C107.557 70.4297 109.063 71.9358 109.063 73.792V107.072C109.063 108.928 107.557 110.434 105.701 110.434Z" fill="#454548"/>
<path d="M81.9162 99.9335V95.337C82.7683 96.0351 86.6987 97.4332 87.7169 97.4332C88.3148 97.4332 91.9934 97.6093 91.9934 95.351C91.9934 92.0846 81.8281 92.3627 81.8281 85.8998C81.8281 84.8278 81.9603 79.7812 90.0951 79.7812C92.1773 79.7812 94.6377 80.3033 95.3516 80.5713V84.8657C94.9997 84.6257 93.5715 83.4297 90.3591 83.4297C86.6048 83.4297 86.2786 85.1959 86.2786 85.5119C86.2786 88.2302 96.2759 88.6002 96.2759 94.9349C96.2759 101.28 89.047 101.084 87.9209 101.084C86.7667 101.084 82.6803 100.317 81.9162 99.9335Z" fill="white"/>
<path d="M58.4716 152.845C59.0165 153.322 59.6637 153.696 60.3789 153.901C61.0601 154.173 61.7754 154.31 62.5247 154.31C64.7386 154.31 65.8626 153.458 65.8626 151.721C65.8626 151.278 65.7604 150.801 65.522 150.427C65.2836 150.052 64.977 149.711 64.6024 149.473C64.2277 149.2 63.4443 148.724 62.2863 148.076C61.1623 147.532 60.1746 146.816 59.3231 145.897C57.9947 144.125 58.3013 141.639 60.0043 140.243C61.0942 139.459 62.4225 139.017 63.7509 139.085C64.8748 139.017 65.9648 139.221 66.9866 139.664V141.741C65.9648 141.06 64.7727 140.686 63.5465 140.754C62.695 140.72 61.8435 140.958 61.1623 141.435C60.5492 141.843 60.2086 142.525 60.2427 143.274C60.2086 143.921 60.447 144.534 60.8898 145.011C61.7073 145.692 62.5928 146.271 63.5806 146.748C64.8067 147.293 65.8966 148.111 66.7822 149.132C67.3272 149.848 67.5996 150.699 67.5996 151.585C67.6678 152.845 67.1228 154.037 66.1691 154.82C65.0111 155.638 63.6146 156.047 62.2182 155.978C61.537 155.978 60.8558 155.876 60.2086 155.706C59.5955 155.604 58.9825 155.365 58.4375 155.025L58.4716 152.845ZM79.4185 155.672H77.7837V148.962C77.7837 146.476 76.932 145.25 75.195 145.25C74.3435 145.25 73.5261 145.624 73.0152 146.339C72.4021 147.089 72.0615 148.076 72.1297 149.098V155.706H70.4607V138.438H72.0955V145.965H72.1297C72.8108 144.602 74.2073 143.717 75.7059 143.751C78.1583 143.751 79.3843 145.318 79.3843 148.485L79.4185 155.672ZM82.9947 144.875C84.0847 144.125 85.3449 143.751 86.6732 143.785C89.1938 143.785 90.454 145.215 90.454 148.076V155.706H88.8531V153.867H88.785C88.1719 155.161 86.8776 155.978 85.4131 155.944C84.4934 156.012 83.5737 155.672 82.8926 155.059C82.2454 154.412 81.9049 153.526 81.9389 152.606C81.8367 150.631 83.3354 148.928 85.3449 148.826C85.4131 148.826 85.4811 148.826 85.5493 148.826L88.8192 148.315C88.8192 146.271 88.0697 145.284 86.571 145.284C85.2427 145.284 83.9825 145.794 83.0288 146.748L82.9947 144.875ZM86.1624 150.154C85.4811 150.222 84.834 150.427 84.289 150.835C83.8123 151.244 83.5737 151.857 83.6419 152.47C83.6419 153.015 83.8463 153.56 84.2209 153.901C84.6638 154.275 85.2088 154.48 85.7877 154.446C86.6392 154.48 87.4226 154.105 87.9675 153.458C88.5466 152.743 88.853 151.857 88.8192 150.938V149.779L86.1624 150.154ZM99.3777 145.828C99.003 145.556 98.5261 145.42 98.0493 145.454C97.3001 145.488 96.5848 145.931 96.2101 146.612C95.6651 147.566 95.3927 148.656 95.4267 149.745V155.706H93.7918V144.023H95.4267V146.442H95.4607C95.6651 145.726 96.0398 145.045 96.5848 144.5C97.0275 144.057 97.6405 143.819 98.2878 143.819C98.6624 143.819 99.003 143.853 99.3777 143.989V145.828ZM109.698 150.29H101.966C101.932 151.414 102.273 152.504 102.988 153.39C103.635 154.105 104.589 154.514 105.577 154.446C106.837 154.446 108.029 153.969 108.983 153.117V154.786C107.893 155.57 106.564 155.978 105.202 155.91C103.805 155.978 102.477 155.365 101.592 154.31C100.638 153.015 100.195 151.448 100.297 149.848C100.229 148.281 100.74 146.714 101.728 145.454C102.579 144.364 103.874 143.717 105.27 143.717C106.496 143.717 107.722 144.262 108.506 145.25C109.357 146.442 109.766 147.872 109.664 149.337L109.698 150.29ZM107.995 148.758C108.063 147.838 107.79 146.953 107.28 146.203C106.769 145.59 105.985 145.25 105.202 145.284C104.384 145.284 103.601 145.624 103.09 146.237C102.477 146.953 102.068 147.804 101.966 148.758H107.995ZM114.262 149.473V155.672H112.593V139.357H116.714C118.077 139.289 119.439 139.732 120.461 140.617C121.381 141.571 121.891 142.865 121.789 144.194C121.857 145.658 121.278 147.055 120.222 148.076C119.167 149.064 117.736 149.575 116.305 149.473H114.262ZM114.262 141.026V147.804H116.169C117.191 147.872 118.247 147.532 119.03 146.884C119.711 146.203 120.086 145.25 120.018 144.296C120.018 142.116 118.792 141.026 116.374 141.026H114.262ZM122.913 150.018C122.811 148.349 123.356 146.748 124.378 145.454C125.399 144.33 126.898 143.717 128.431 143.785C129.861 143.717 131.258 144.296 132.177 145.386C133.165 146.646 133.642 148.247 133.54 149.848C133.608 151.482 133.097 153.049 132.041 154.31C131.054 155.433 129.623 156.047 128.124 155.978C126.66 156.047 125.263 155.433 124.31 154.344C123.356 153.117 122.845 151.585 122.913 150.018ZM124.582 149.95C124.514 151.142 124.889 152.3 125.604 153.254C126.251 154.071 127.239 154.514 128.295 154.48C129.316 154.548 130.304 154.105 130.951 153.288C131.632 152.3 131.973 151.108 131.871 149.882C131.939 148.656 131.632 147.463 130.951 146.476C130.304 145.624 129.316 145.181 128.26 145.25C127.205 145.215 126.217 145.692 125.57 146.51C124.855 147.497 124.514 148.69 124.582 149.95ZM136.128 139.834C136.128 139.527 136.231 139.221 136.435 139.017C136.639 138.812 136.912 138.676 137.184 138.676C137.491 138.676 137.763 138.812 137.968 139.017C138.41 139.493 138.41 140.209 137.968 140.686C137.763 140.924 137.491 141.026 137.184 141.026C136.912 141.026 136.639 140.924 136.435 140.686C136.231 140.447 136.128 140.14 136.128 139.834ZM136.367 144.023H138.002V155.706H136.367V144.023ZM150.536 155.672H148.901V149.03C148.901 146.51 148.015 145.25 146.312 145.25C145.461 145.25 144.644 145.624 144.098 146.339C143.485 147.123 143.179 148.076 143.213 149.064V155.706H141.578V144.023H143.213V145.965H143.247C143.894 144.602 145.29 143.717 146.823 143.751C147.879 143.683 148.901 144.16 149.582 144.977C150.297 146.033 150.604 147.293 150.536 148.553V155.672ZM158.812 155.57C158.336 155.842 157.791 155.944 157.211 155.944C155.338 155.944 154.419 154.82 154.419 152.572V145.556H152.545V144.023H154.419V141.162L156.054 140.583V144.023H158.812V145.556H156.054V152.232C155.985 152.845 156.122 153.424 156.428 153.935C156.735 154.275 157.211 154.48 157.688 154.412C158.097 154.412 158.506 154.275 158.812 154.037V155.57Z" fill="white"/>
</g>
<defs>
<clipPath id="clip0_5535_2720">
<rect width="216" height="206.929" fill="white"/>
</clipPath>
</defs>
</svg>
