<svg width="216" height="207" viewBox="0 0 216 207" fill="none" xmlns="http://www.w3.org/2000/svg">
<g clip-path="url(#clip0_5455_7359)">
<rect width="216" height="206.929" fill="#151517"/>
<rect width="216" height="206.929" fill="#151517"/>
<path d="M106.744 44C103.195 44 99.6818 44.6989 96.4034 46.0569C93.1251 47.4148 90.1462 49.4052 87.6371 51.9144C85.1279 54.4235 83.1375 57.4023 81.7797 60.6807C80.4216 63.9589 79.7227 67.4727 79.7227 71.0212C79.7227 74.5697 80.4216 78.0834 81.7797 81.3618C83.1375 84.6402 85.1279 87.6191 87.6371 90.1282C90.1462 92.6372 93.1251 94.6278 96.4034 95.9857C99.6818 97.3435 103.195 98.0425 106.744 98.0425C110.292 98.0425 113.806 97.3435 117.085 95.9857C120.363 94.6278 123.342 92.6372 125.851 90.1282C128.36 87.6191 130.35 84.6402 131.708 81.3618C133.066 78.0834 133.765 74.5697 133.765 71.0212C133.765 67.4727 133.066 63.9589 131.708 60.6807C130.35 57.4023 128.36 54.4235 125.851 51.9144C123.342 49.4052 120.363 47.4148 117.085 46.0569C113.806 44.6989 110.292 44 106.744 44Z" fill="#5F5F5F"/>
<path d="M130.388 71.0215C124.117 71.0215 118.103 73.5126 113.669 77.9467C109.235 82.3807 106.744 88.3946 106.744 94.6652C106.744 100.936 109.235 106.95 113.669 111.384C118.103 115.818 124.117 118.309 130.388 118.309C136.658 118.309 142.672 115.818 147.106 111.384C151.54 106.95 154.031 100.936 154.031 94.6652C154.031 88.3946 151.54 82.3807 147.106 77.9467C142.672 73.5126 136.658 71.0215 130.388 71.0215Z" fill="#A6A7AA"/>
<path d="M108.991 98.0469C104.213 98.0469 99.6312 99.9448 96.253 103.323C92.8746 106.701 90.9766 111.283 90.9766 116.061C90.9766 120.839 92.8746 125.421 96.253 128.799C99.6312 132.177 104.213 134.075 108.991 134.075C113.768 134.075 118.35 132.177 121.729 128.799C125.107 125.421 127.005 120.839 127.005 116.061C127.005 111.283 125.107 106.701 121.729 103.323C118.35 99.9448 113.768 98.0469 108.991 98.0469Z" fill="#FEFEFE"/>
<path d="M105.205 111.553H67.7402C65.6507 111.553 63.9551 109.857 63.9551 107.768V70.3027C63.9551 68.2131 65.6507 66.5176 67.7402 66.5176H105.205C107.295 66.5176 108.991 68.2131 108.991 70.3027V107.768C108.991 109.857 107.295 111.553 105.205 111.553Z" fill="#454548"/>
<path d="M78.4312 99.7316V94.557C79.3904 95.3428 83.8151 96.9167 84.9613 96.9167C85.6345 96.9167 89.7757 97.115 89.7757 94.5727C89.7757 90.8955 78.332 91.2086 78.332 83.933C78.332 82.7261 78.4808 77.0449 87.6387 77.0449C89.9827 77.0449 92.7525 77.6327 93.5562 77.9344V82.7688C93.16 82.4986 91.5522 81.1522 87.9358 81.1522C83.7094 81.1522 83.3422 83.1405 83.3422 83.4962C83.3422 86.5564 94.5967 86.9729 94.5967 94.1043C94.5967 101.247 86.4588 101.026 85.191 101.026C83.8917 101.026 79.2913 100.164 78.4312 99.7316Z" fill="white"/>
<path d="M52.0383 159.296C52.6518 159.832 53.3804 160.254 54.1856 160.484C54.9524 160.791 55.7577 160.944 56.6012 160.944C59.0935 160.944 60.3589 159.986 60.3589 158.03C60.3589 157.532 60.2438 156.995 59.9754 156.573C59.707 156.151 59.3619 155.768 58.9401 155.499C58.5184 155.193 57.6365 154.656 56.3328 153.927C55.0675 153.314 53.9555 152.509 52.9969 151.473C51.5015 149.479 51.8466 146.681 53.7638 145.108C54.9908 144.227 56.4862 143.728 57.9816 143.805C59.2469 143.728 60.4739 143.958 61.6242 144.457V146.796C60.4739 146.029 59.1319 145.607 57.7515 145.683C56.7929 145.645 55.8343 145.914 55.0675 146.45C54.3773 146.91 53.9938 147.677 54.0322 148.521C53.9938 149.249 54.2623 149.94 54.7607 150.476C55.681 151.243 56.6779 151.895 57.7898 152.432C59.1702 153.045 60.3972 153.966 61.3941 155.116C62.0076 155.921 62.3144 156.88 62.3144 157.877C62.3911 159.295 61.7776 160.638 60.704 161.519C59.4003 162.44 57.8282 162.9 56.2561 162.823C55.4892 162.823 54.7224 162.708 53.9939 162.516C53.3037 162.401 52.6135 162.133 52 161.749L52.0383 159.296ZM75.6195 162.478H73.7791V154.924C73.7791 152.125 72.8204 150.745 70.865 150.745C69.9064 150.745 68.9861 151.167 68.411 151.972C67.7208 152.815 67.3374 153.927 67.4141 155.078V162.516H65.5352V143.076H67.3757V151.55H67.4141C68.1809 150.016 69.753 149.019 71.4401 149.058C74.2009 149.058 75.5811 150.822 75.5811 154.387L75.6195 162.478ZM79.6455 150.323C80.8726 149.479 82.2913 149.058 83.7866 149.096C86.6242 149.096 88.0429 150.706 88.0429 153.927V162.516H86.2406V160.446H86.164C85.4738 161.903 84.0167 162.823 82.368 162.785C81.3327 162.861 80.2974 162.478 79.5306 161.788C78.802 161.059 78.4186 160.062 78.457 159.027C78.3419 156.803 80.0291 154.886 82.2913 154.771C82.368 154.771 82.4446 154.771 82.5214 154.771L86.2025 154.196C86.2025 151.895 85.3588 150.783 83.6716 150.783C82.1762 150.783 80.7576 151.358 79.6839 152.432L79.6455 150.323ZM83.2115 156.266C82.4446 156.343 81.7161 156.573 81.1026 157.033C80.5659 157.493 80.2974 158.183 80.3741 158.874C80.3741 159.487 80.6042 160.101 81.026 160.484C81.5245 160.906 82.138 161.136 82.7898 161.097C83.7483 161.136 84.6303 160.714 85.2437 159.986C85.8956 159.18 86.2406 158.183 86.2025 157.148V155.845L83.2115 156.266ZM98.0888 151.397C97.6671 151.09 97.1301 150.937 96.5934 150.975C95.7499 151.013 94.9447 151.512 94.5229 152.279C93.9094 153.352 93.6027 154.579 93.641 155.806V162.516H91.8004V149.364H93.641V152.087H93.6793C93.9094 151.282 94.3311 150.515 94.9447 149.901C95.4431 149.403 96.1332 149.134 96.8618 149.134C97.2836 149.134 97.6671 149.173 98.0888 149.326V151.397ZM109.707 156.42H101.003C100.965 157.685 101.348 158.912 102.153 159.909C102.882 160.714 103.955 161.174 105.067 161.097C106.486 161.097 107.828 160.561 108.902 159.602V161.481C107.675 162.363 106.179 162.823 104.645 162.746C103.073 162.823 101.578 162.133 100.581 160.944C99.5075 159.487 99.0091 157.723 99.124 155.921C99.0474 154.157 99.6225 152.394 100.734 150.975C101.693 149.748 103.15 149.019 104.722 149.019C106.103 149.019 107.483 149.633 108.365 150.745C109.323 152.087 109.784 153.697 109.668 155.346L109.707 156.42ZM107.79 154.694C107.866 153.659 107.56 152.662 106.984 151.818C106.409 151.128 105.527 150.745 104.645 150.783C103.725 150.783 102.843 151.167 102.268 151.857C101.578 152.662 101.118 153.621 101.003 154.694H107.79ZM114.845 155.499V162.478H112.966V144.111H117.605C119.139 144.035 120.673 144.533 121.823 145.53C122.859 146.604 123.434 148.061 123.319 149.556C123.395 151.205 122.744 152.777 121.555 153.927C120.366 155.039 118.756 155.614 117.145 155.499H114.845ZM114.845 145.99V153.621H116.992C118.142 153.697 119.331 153.314 120.213 152.585C120.98 151.818 121.401 150.745 121.325 149.671C121.325 147.217 119.945 145.99 117.222 145.99H114.845ZM124.584 156.113C124.469 154.234 125.083 152.432 126.233 150.975C127.383 149.71 129.07 149.019 130.796 149.096C132.406 149.019 133.978 149.671 135.014 150.898C136.125 152.317 136.662 154.119 136.547 155.921C136.624 157.762 136.049 159.525 134.86 160.944C133.748 162.21 132.138 162.9 130.451 162.823C128.802 162.9 127.23 162.21 126.156 160.983C125.083 159.602 124.507 157.877 124.584 156.113ZM126.463 156.036C126.386 157.378 126.808 158.682 127.613 159.756C128.342 160.676 129.454 161.174 130.642 161.136C131.793 161.213 132.905 160.714 133.633 159.794C134.4 158.682 134.784 157.34 134.668 155.96C134.745 154.579 134.4 153.237 133.633 152.125C132.905 151.167 131.793 150.668 130.604 150.745C129.415 150.706 128.303 151.243 127.575 152.164C126.77 153.275 126.386 154.618 126.463 156.036ZM139.461 144.648C139.461 144.303 139.576 143.958 139.806 143.728C140.036 143.498 140.343 143.345 140.65 143.345C140.995 143.345 141.302 143.498 141.532 143.728C142.03 144.265 142.03 145.07 141.532 145.607C141.302 145.875 140.995 145.99 140.65 145.99C140.343 145.99 140.036 145.875 139.806 145.607C139.576 145.338 139.461 144.993 139.461 144.648ZM139.73 149.364H141.57V162.516H139.73V149.364ZM155.681 162.478H153.84V155.001C153.84 152.164 152.843 150.745 150.926 150.745C149.967 150.745 149.047 151.167 148.434 151.972C147.744 152.854 147.399 153.927 147.437 155.039V162.516H145.596V149.364H147.437V151.55H147.475C148.204 150.016 149.776 149.019 151.501 149.058C152.69 148.981 153.84 149.518 154.607 150.438C155.412 151.627 155.757 153.045 155.681 154.464V162.478ZM164.998 162.363C164.461 162.67 163.848 162.785 163.196 162.785C161.087 162.785 160.052 161.519 160.052 158.989V151.09H157.943V149.364H160.052V146.144L161.892 145.492V149.364H164.998V151.09H161.892V158.605C161.816 159.295 161.969 159.947 162.314 160.522C162.659 160.906 163.196 161.136 163.733 161.059C164.193 161.059 164.653 160.906 164.998 160.638V162.363Z" fill="white"/>
</g>
<defs>
<clipPath id="clip0_5455_7359">
<rect width="216" height="206.929" fill="white"/>
</clipPath>
</defs>
</svg>
