<svg width="100" height="100" viewBox="0 0 100 100" fill="none" xmlns="http://www.w3.org/2000/svg">
<g clip-path="url(#clip0_464_56)">
<path d="M60.3139 88.7818C52.7155 85.622 45.119 82.4622 37.5186 79.3043C32.7623 77.3276 28.0118 75.3354 23.2398 73.392C22.082 72.9202 21.5868 72.1191 21.5868 70.928C21.5868 69.082 21.5556 67.2341 21.5966 65.3881C21.6141 64.5811 21.3237 64.3296 20.5244 64.3335C15.7272 64.3627 10.9299 64.351 6.13264 64.3432C4.93186 64.3413 4.19501 63.8013 4.04686 62.8696C3.85193 61.6493 4.67844 60.739 6.05856 60.7292C9.20281 60.7078 12.3471 60.7214 15.4913 60.7214C17.1775 60.7214 18.8636 60.6961 20.5478 60.7331C21.2788 60.7487 21.6219 60.544 21.5946 59.7526C21.5498 58.4914 21.5576 57.2263 21.5927 55.9631C21.6122 55.2555 21.3568 54.9826 20.6317 54.9963C18.8168 55.0294 17.0001 55.0372 15.1872 54.9924C13.5868 54.9534 12.7174 53.507 13.4874 52.2438C13.8831 51.5947 14.4894 51.3764 15.2223 51.3803C17.0059 51.39 18.7876 51.353 20.5712 51.3939C21.3276 51.4115 21.6219 51.16 21.5946 50.392C21.5517 49.162 21.5459 47.928 21.5946 46.7C21.6278 45.8774 21.2983 45.6493 20.5108 45.6532C14.774 45.6785 9.03712 45.6551 3.29833 45.6785C2.58878 45.6805 1.9533 45.5148 1.34511 45.2087C0.60242 44.8345 0.257391 44.2009 0.350958 43.3725C0.440627 42.5791 0.920159 42.0937 1.67455 41.8696C2.21061 41.7097 2.76032 41.7117 3.31392 41.7117C9.01958 41.7136 14.7233 41.7136 20.4289 41.7117C21.7798 41.7117 21.7857 41.7058 21.7857 40.3608C21.7876 36.4076 21.7857 32.4563 21.7876 28.5031C21.7876 27.1152 21.9903 26.8403 23.2593 26.3296C35.2866 21.4972 47.3139 16.6727 59.3237 11.8052C60.4679 11.3413 61.4504 11.3647 62.579 11.8286C74.6843 16.8072 86.8032 21.7506 98.9221 26.6961C99.3198 26.8579 99.6668 27.084 100.002 27.3374V72.2536C99.5439 72.8228 98.9553 73.1873 98.2788 73.466C91.0605 76.4485 83.8461 79.4407 76.6356 82.4407C71.581 84.544 66.5323 86.6668 61.4816 88.7799H60.3139V88.7818ZM62.7155 64.5791C62.7155 70.7351 62.7155 76.8891 62.7155 83.045C62.7155 84.3023 62.7213 84.3121 63.8422 83.8462C74.3159 79.4992 84.7818 75.1366 95.2671 70.8189C96.1833 70.4407 96.5225 69.9768 96.5186 68.9631C96.4679 56.7506 96.466 44.5362 96.4504 32.3237C96.4504 30.969 96.4426 30.9612 95.1814 31.4875C84.6843 35.8598 74.1911 40.2438 63.6843 44.5928C62.9202 44.9085 62.696 45.3257 62.6999 46.1152C62.7272 52.2711 62.7155 58.4251 62.7155 64.5811V64.5791ZM59.0683 64.6161C59.0683 58.4271 59.0644 52.238 59.0761 46.0489C59.0761 45.4212 59.004 44.967 58.3081 44.6785C47.6161 40.2614 36.9338 35.8208 26.2554 31.3744C25.6102 31.1054 25.3139 31.1464 25.3217 31.9534C25.3471 34.967 25.3471 37.9807 25.3217 40.9943C25.3159 41.7312 25.6336 41.9592 26.3178 41.9436C27.0605 41.9261 27.811 41.9319 28.5498 42.0119C29.8383 42.1522 30.464 42.8306 30.4133 43.928C30.3666 44.9748 29.6141 45.6161 28.3451 45.661C27.7291 45.6824 27.1092 45.7117 26.4991 45.6571C25.6336 45.5811 25.2574 45.8618 25.3139 46.7896C25.3841 47.9514 25.3763 49.1249 25.3139 50.2867C25.2691 51.1522 25.5907 51.3959 26.4328 51.3881C30.3549 51.351 34.2788 51.3705 38.2009 51.3725C39.3685 51.3725 40.5361 51.3491 41.7018 51.3978C42.6648 51.4388 43.349 52.1522 43.4133 53.0684C43.4699 53.8968 42.8695 54.7136 41.9923 54.9124C41.5888 55.0041 41.156 55.0002 40.7369 55.0002C35.9397 55.006 31.1404 55.0158 26.3432 54.9924C25.5966 54.9885 25.2886 55.2107 25.3178 55.9885C25.3646 57.2185 25.3685 58.4524 25.3178 59.6805C25.2847 60.4914 25.5849 60.7507 26.3841 60.7331C28.3276 60.6883 30.2749 60.7039 32.2184 60.7292C33.3607 60.7448 34.0664 61.3842 34.1404 62.3822C34.2223 63.4953 33.4562 64.3121 32.2165 64.3315C30.2398 64.3647 28.2613 64.3666 26.2847 64.3315C25.5673 64.3199 25.2983 64.5674 25.3217 65.2867C25.3607 66.5167 25.3938 67.7526 25.312 68.9787C25.2476 69.9358 25.5829 70.4076 26.4835 70.7779C36.9962 75.1171 47.4933 79.5011 57.9923 83.8735C59.0352 84.3082 59.0703 84.2887 59.0703 83.1795C59.0722 76.9904 59.0703 70.8013 59.0703 64.6122L59.0683 64.6161ZM28.4153 28.2263C28.8636 28.4485 29.082 28.5733 29.312 28.6688C33.4367 30.39 37.5712 32.0859 41.6804 33.8423C42.4991 34.1931 43.1716 34.1522 43.9728 33.8111C53.6278 29.7019 63.2964 25.6259 72.9611 21.5401C73.4855 21.3179 74.004 21.082 74.5439 20.8442C74.312 20.4271 73.9611 20.3959 73.6765 20.2809C69.7408 18.698 65.7954 17.1386 61.8675 15.5362C61.1794 15.2555 60.5966 15.2926 59.9221 15.5655C52.1424 18.7019 44.3529 21.815 36.5693 24.9378C33.9299 25.9963 31.2944 27.0664 28.4153 28.2282V28.2263ZM47.8285 36.1873C48.0859 36.5986 48.4309 36.6454 48.7155 36.7662C52.4777 38.351 56.2535 39.9046 60.0059 41.5128C60.6979 41.8091 61.2691 41.7643 61.9416 41.4816C72.0703 37.2321 82.2067 33.0041 92.3393 28.7623C92.6239 28.6434 92.9728 28.6006 93.1424 28.2731C92.9669 27.9339 92.6063 27.9222 92.3217 27.8072C88.5089 26.2594 84.6804 24.7487 80.8812 23.1678C80.0059 22.8033 79.271 22.8169 78.4016 23.1892C69.4621 27.008 60.5089 30.7896 51.5595 34.583C50.3217 35.1074 49.0878 35.6454 47.8285 36.1892V36.1873Z" fill="#727272"/>
<path d="M72.5099 73.5392C72.5235 71.9135 73.8081 70.508 75.3013 70.4846C76.7496 70.4612 78.2058 71.9973 78.2194 73.5626C78.2331 75.1318 76.7984 76.6133 75.2876 76.5899C73.8179 76.5665 72.4962 75.1143 72.5099 73.5392Z" fill="#727272"/>
<path d="M70.8816 76.0729C70.8972 77.7455 69.5853 79.1509 68.018 79.1412C66.5736 79.1314 65.1584 77.6187 65.174 76.1002C65.1896 74.5603 66.5697 73.0827 68.0297 73.0398C69.443 73.0008 70.866 74.5135 70.8816 76.071V76.0729Z" fill="#727272"/>
</g>
<defs>
<clipPath id="clip0_464_56">
<rect width="100" height="77.7778" fill="white" transform="translate(0 11)"/>
</clipPath>
</defs>
</svg>
