<?xml version="1.0" encoding="utf-8"?>
<!-- Generator: Adobe Illustrator 24.0.1, SVG Export Plug-In . SVG Version: 6.00 Build 0)  -->
<svg version="1.1" id="Layer_1" xmlns="http://www.w3.org/2000/svg" xmlns:xlink="http://www.w3.org/1999/xlink" x="0px" y="0px"
	 viewBox="0 0 199.6 48.5" style="enable-background:new 0 0 199.6 48.5;" xml:space="preserve">
<style type="text/css">
	.st0{fill:#FFFFFF;}
</style>
<path class="st0" d="M197.7,14.5h-0.2v0.7h0.2c0.4,0,0.5-0.1,0.5-0.3L197.7,14.5 M198.5,16.4h-0.2l-0.1,0L198,16l-0.4-0.5l-0.1-0.1
	h-0.1v0.8l-0.1,0.1h-0.1l-0.1-0.1v-1.9l0.1-0.1h0.5c0.5,0,0.7,0.3,0.7,0.6c0,0.3-0.2,0.6-0.5,0.6c0.1,0.1,0.3,0.4,0.6,0.8
	L198.5,16.4z M197.8,13.7c-0.9,0-1.5,0.7-1.5,1.6c0,0.9,0.7,1.6,1.5,1.6c0.9,0,1.6-0.7,1.6-1.6C199.3,14.4,198.6,13.7,197.8,13.7
	 M197.8,17.2c-1,0-1.9-0.8-1.9-1.9c0-1.1,0.8-1.9,1.9-1.9c1,0,1.9,0.8,1.9,1.9C199.6,16.4,198.8,17.2,197.8,17.2"/>
<path class="st0" d="M30.7,31.5c2.7-2.4,4.1-5.5,4.1-8.7v-0.9l6.1,0c-0.3-2.1-1-4.1-2.1-6.1c-0.4-0.6-0.8-1.2-1.2-1.8l-6,3.5
	c3.8,6.5-0.3,12.3-5.3,15.2c-2,1.2-4.6,2-7.2,2.3c0.8,0.1,1.5,0.2,2.3,0.2C24.7,35.2,28.1,33.9,30.7,31.5"/>
<path class="st0" d="M35.2,30.1l0.4-0.8l3.7,2.1c1.1-2.3,1.7-4.8,1.7-7.3c0-0.5,0-0.9-0.1-1.4h-5.3c0,7.3-7,13.3-14.3,13.3
	c-3.2,0-6.4-0.9-8.9-2.7c0.8,0.8,1.7,1.5,2.7,2C22.2,39.6,31.2,37.1,35.2,30.1"/>
<path class="st0" d="M36,30.6c-4.3,7.4-13.8,10-21.2,5.7c-3.3-1.9-5.7-4.9-6.9-8.2c0.4,1.6,1,3.1,1.8,4.6c4.6,8,14.9,10.8,22.9,6.1
	c2.8-1.6,4.9-3.9,6.3-6.5L36,30.6"/>
<path class="st0" d="M8.9,33.1c-4.9-8.4-2-19.3,6.5-24.2c8.4-4.9,19.3-2,24.2,6.5c4.9,8.4,2,19.3-6.4,24.2
	C24.7,44.4,13.8,41.5,8.9,33.1 M45.3,12.1C38.6,0.5,23.7-3.4,12.1,3.3C0.5,10-3.4,24.8,3.3,36.4C10,48,24.8,51.9,36.4,45.3
	C48,38.6,52,23.7,45.3,12.1"/>
<path class="st0" d="M111.6,24.4c0.6-4.7,3.3-5.5,4.9-5.5c3.3,0,4.5,2.8,4.6,5.5H111.6 M125.1,26.1c0-7.5-4.2-9.7-8.7-9.7
	c-5.3,0-8.9,3.6-8.9,9.6c0,6.4,3.7,9.9,10.5,9.9c2.1,0,3.5-0.2,4.6-0.5c0.6-0.2,0.9-0.5,0.7-1l-0.4-1c-0.2-0.4-0.6-0.7-1.3-0.6
	c-1.1,0.2-2.2,0.4-3.7,0.4c-4.4,0-6.2-2.2-6.4-6.2h12.6C124.7,27,125.1,26.6,125.1,26.1"/>
<path class="st0" d="M182.3,24.4c0.6-4.7,3.3-5.5,4.9-5.5c3.3,0,4.5,2.8,4.6,5.5H182.3 M195.9,26.1c0-7.5-4.2-9.7-8.7-9.7
	c-5.3,0-8.9,3.6-8.9,9.6c0,6.4,3.7,9.9,10.5,9.9c2.1,0,3.5-0.2,4.6-0.5c0.6-0.2,0.9-0.5,0.7-1l-0.4-1c-0.2-0.4-0.6-0.7-1.3-0.6
	c-1.1,0.2-2.2,0.4-3.7,0.4c-4.4,0-6.2-2.2-6.4-6.2h12.6C195.4,27,195.9,26.6,195.9,26.1"/>
<path class="st0" d="M74.4,35.9c-2.1,0-4.8-0.4-6.6-1.1c-0.6-0.2-0.7-0.6-0.5-1.1l0.4-1.2c0.2-0.6,0.7-0.7,1.3-0.5
	c1.6,0.6,3.5,1.1,5.5,1.1c2.5,0,3.6-1,3.6-2.6c0-3.6-10.1-3.6-10.1-9c0-3.1,2.9-5.2,7.5-5.2c2.3,0,3.8,0.4,5.1,0.8
	c0.5,0.2,0.6,0.6,0.4,1.1l-0.4,1c-0.2,0.5-0.7,0.6-1.2,0.4c-1-0.3-2.5-0.7-4-0.7c-2.2,0-3.5,0.9-3.5,2.3c0,3.3,10.2,3.4,10.2,9.2
	C82.1,33.7,79.2,35.9,74.4,35.9"/>
<path class="st0" d="M142.1,35.4c-1.4,0.4-2.8,0.5-4.5,0.5c-5.8,0-9.6-3.5-9.6-9.9c0-5.6,4.1-9.6,9.6-9.6c1.7,0,3.3,0.4,4.2,0.7
	c0.6,0.2,0.9,0.6,0.7,1l-0.5,1.2c-0.1,0.4-0.5,0.7-1.2,0.5c-0.8-0.2-2-0.6-3.3-0.6c-3.1,0-5.2,2.6-5.2,6.9c0,4.7,1.9,7,5.7,7
	c1.3,0,2.5-0.2,3.4-0.4c0.7-0.2,1.1,0.2,1.2,0.6l0.3,1.2C142.9,34.8,142.7,35.3,142.1,35.4"/>
<path class="st0" d="M154.1,19.1c-3.4,0-5.3,2.3-5.3,7.1c0,4.9,1.9,7.1,5.3,7.1c3.4,0,5.3-2.3,5.3-7.1
	C159.4,21.4,157.5,19.1,154.1,19.1 M154.2,35.9c-5.7,0-9.5-3.6-9.5-9.8c0-6.1,3.7-9.8,9.5-9.8c5.7,0,9.4,3.7,9.4,9.8
	C163.6,32.3,159.9,35.9,154.2,35.9"/>
<path class="st0" d="M176.9,18.3v-1.2c0-0.4-0.1-0.7-0.3-0.7h-2.3c-4.4,0-6.9,1.9-6.9,5.3v13.6c0,0.3,0.5,0.5,1,0.5h1.8
	c0.5,0,1-0.2,1-0.5V22.8c0-3,1.5-3.8,3.8-3.8h1.5C176.7,19,176.9,18.7,176.9,18.3"/>
<path class="st0" d="M105,33.1h-1.5c-2.3,0-3.8-0.8-3.8-3.8V19.1h3.4c0.2,0,0.3-0.3,0.3-0.7v-1.2c0-0.4-0.1-0.7-0.3-0.7h-3.4v-4.8
	c0-0.6-0.7-0.6-1.3-0.4l-1.8,0.5c-0.4,0.1-0.7,0.4-0.7,0.9v4.2l0,0v13.6c0,3.4,2.5,5.3,6.9,5.3h2.3c0.2,0,0.3-0.3,0.3-0.7v-1.2
	C105.4,33.4,105.2,33.1,105,33.1"/>
<path class="st0" d="M89.1,16.4l-1.8,0.5c-0.4,0.1-0.7,0.4-0.7,0.9v17.5c0,0.3,0.5,0.5,1,0.5h1.8c0.5,0,1-0.2,1-0.5V16.8
	C90.4,16.2,89.7,16.2,89.1,16.4"/>
</svg>
