<?xml version="1.0" encoding="utf-8"?>
<!-- Generator: Adobe Illustrator 24.0.1, SVG Export Plug-In . SVG Version: 6.00 Build 0)  -->
<svg version="1.1" id="Layer_1" xmlns="http://www.w3.org/2000/svg" xmlns:xlink="http://www.w3.org/1999/xlink" x="0px" y="0px"
	 viewBox="0 0 187 38.3" style="enable-background:new 0 0 187 38.3;" xml:space="preserve">
<style type="text/css">
	.st0{fill:#FFFFFF;}
</style>
<g>
	<path class="st0" d="M0.4,20.5c0.9-0.1,1.8-0.2,2.7-0.3c0.2,0,0.5,0.1,0.5,0.4c0.5,3.7,2.8,5.7,6.4,6.3c2.5,0.4,5,0.4,7.3-1
		c1.5-0.9,2.2-2.2,2.2-4c-0.1-1.7-0.9-2.9-2.4-3.4c-2.4-0.9-4.9-1.5-7.4-2.3c-1.6-0.5-3.2-0.9-4.6-1.7C2.3,13.1,1,10.8,1.2,7.7
		c0.2-3,1.8-5.1,4.5-6.3c3.9-1.7,7.8-1.7,11.7,0c3.1,1.3,4.6,3.8,5,7.1C22.4,8.8,22.3,9,22,9l-2.8,0.3c-0.2,0-0.5-0.1-0.5-0.4
		c0-0.2-0.1-0.4-0.1-0.6c-0.6-2.7-3.1-4.4-5.7-4.7c-1.9-0.2-3.1,0.1-5,0.5c-2,0.4-3,1.9-3,3.7s0.7,2.9,2.8,3.6c3,0.9,6,1.6,9,2.5
		c2.3,0.7,4.3,1.8,5.6,3.9c1.9,3.1,1,7.7-1.9,10.1c-4.3,3.5-12.8,3.5-17-0.1C1.3,26,0.2,23.7,0,21C-0.1,20.7,0.1,20.5,0.4,20.5z"/>
	<path class="st0" d="M66,23.4c0.3,0,0.5,0.3,0.4,0.6c-1.2,3.7-3.7,5.8-7.4,6.3c-4.9,0.6-9.9-1.2-11.4-7.1c-1-4-0.8-8,1.9-11.4
		c2.5-3.2,6.6-4.3,10.6-3c3.6,1.1,6.1,4.5,6.4,8.4c0.1,0.8,0,1.7,0,2.6c0,0.3-0.2,0.5-0.5,0.5H51.5c-0.3,0-0.5,0.2-0.5,0.5
		c-0.1,2.9,1.8,5.6,4.4,6.4c3.1,0.9,5.7-0.2,7.1-3.2c0.4-0.8,0.7-1.2,1.7-0.9C64.7,23.3,65.3,23.4,66,23.4z M51.7,17.4h10.6
		c0.3,0,0.5-0.2,0.5-0.5c-0.2-3.2-2.6-5.6-5.7-5.6s-5.8,2.5-5.9,5.6C51.2,17.2,51.4,17.4,51.7,17.4z"/>
	<path class="st0" d="M158.6,16.3c0-7.5,5.6-14,13.9-14.1C180.7,2,187,8.3,187,16.3c0,7.8-6.2,14.2-13.9,14.2
		C164.9,30.5,158.6,24.3,158.6,16.3z M184.6,16.3L184.6,16.3c-0.2-6.7-4.9-11.8-11.9-11.8c-7.1,0-11.7,5.5-11.8,11.7
		s4.6,11.8,11.8,11.9C179.7,28.1,184.5,22.9,184.6,16.3z"/>
	<path class="st0" d="M134,35.5c0-0.3,0.2-0.5,0.5-0.5c0.6,0,1.2,0,1.8,0c1.3,0.1,2.2-0.5,2.8-1.6c0.9-1.7,1.5-3.3,0.6-5.5
		c-2.4-5.8-4.5-11.8-6.7-17.7c-0.2-0.5-0.3-1-0.5-1.5c0.1,0,0.2-0.1,0.2-0.1c3.5-0.2,3.5-0.2,4.6,3c1.5,4.2,3,8.4,4.4,12.5
		c0.1,0.4,0.7,0.4,0.9,0c1.8-5,3.6-10.1,5.4-15.2c0.1-0.2,0.2-0.3,0.4-0.3h2.6c0.3,0,0.5,0.3,0.4,0.6c-1.1,2.9-2.1,5.7-3.2,8.6
		c-1.8,4.8-3.6,9.7-5.5,14.5c-0.5,1.2-1,2.4-1.7,3.4c-1.1,1.7-2.7,2.6-4.8,2.6c-2.1-0.1-2.2-0.2-2.4-2.3C134,36,134,35.7,134,35.5z"
		/>
	<path class="st0" d="M105.5,30.1c-0.3,0-0.5-0.2-0.5-0.5c0-2.9,0-5.8,0-8.6c0-1.7-0.1-3.4-0.1-5.1c0-3.5-2.8-5-6-4.1
		c-2.8,0.8-3.9,2.7-4,6.6c0,3.6,0,7.1,0,10.7c0,0.2,0,0.3,0,0.5S94.7,30,94.4,30H92c-0.3,0-0.5-0.2-0.5-0.5V9.3
		c0-0.3,0.2-0.5,0.5-0.5h2.1c0.3,0,0.5,0.2,0.5,0.5v1.1c0,0.4,0.4,0.6,0.7,0.4c1.4-0.8,2.8-1.7,4.4-2.1c4-1,9,0.7,9,6.9
		c0,4.6,0,9.3,0,14c0,0.3-0.2,0.5-0.5,0.5H105.5z"/>
	<path class="st0" d="M71.4,11.5h-2.3c-0.3,0-0.5-0.2-0.5-0.5V9.1c0-0.3,0.2-0.5,0.5-0.5h2.2c0.2,0,0.4-0.2,0.5-0.4
		C72,5.7,71.3,3,73.6,1.3c2.1-1.7,4.5-1.4,7-0.9c0.2,0,0.4,0.3,0.4,0.5c-0.1,0.7-0.2,1.4-0.3,1.9c0,0.2-0.2,0.3-0.4,0.4
		c-1.6,0.3-3.3,0.3-4.2,1.2c-0.7,0.7-0.7,2.3-0.9,3.8c0,0.3,0.2,0.5,0.5,0.5h3.2c0.3,0,0.5,0.2,0.5,0.5v1.9c0,0.3-0.2,0.5-0.5,0.5
		h-3c-0.3,0-0.5,0.2-0.5,0.5v17.6c0,0.3-0.2,0.5-0.5,0.5h-2.5c-0.3,0-0.5-0.2-0.5-0.5V12C71.9,11.8,71.7,11.5,71.4,11.5z"/>
	<path class="st0" d="M37.2,11.5h-1.6c-0.3,0-0.5-0.2-0.5-0.5V9.2c0-0.3,0.2-0.5,0.5-0.5h1.6c0.3,0,0.5-0.2,0.5-0.5
		c0-1.2,0.1-2.3,0-3.3C37.6,3.8,37.9,3,39,2.6c0.5-0.2,0.9-0.5,1.5-0.8c0.3-0.2,0.7,0,0.7,0.4v6c0,0.3,0.2,0.5,0.5,0.5h2.6
		c0.3,0,0.5,0.2,0.5,0.5v2c0,0.3-0.2,0.5-0.5,0.5h-2.6c-0.3,0-0.5,0.2-0.5,0.5c0,2.3,0,4.5,0,6.7s0.1,4.4,0.1,6.6c0,1.4,0.7,2,2,1.8
		c1.4-0.2,1.9,0.3,1.8,1.7c0,0.3,0.1,0.6,0.2,0.9c0.1,0.2-0.1,0.5-0.3,0.6c-1.7,0.5-3.3,0.5-4.9-0.1c-1.2-0.5-2.1-1.4-2.2-2.7
		c-0.1-2.7-0.2-5.4-0.3-8.1c0-2.3,0-4.6,0-7.1C37.7,11.8,37.5,11.5,37.2,11.5z"/>
	<path class="st0" d="M123.3,11.6h-1.6c-0.3,0-0.5-0.2-0.5-0.5V9.2c0-0.2,0.2-0.5,0.4-0.5l1.6-0.1c0.2,0,0.4-0.2,0.4-0.5
		c0-1.2,0.1-2.3,0-3.5c-0.1-1,0.3-1.6,1.1-2c0.6-0.3,1.1-0.6,1.7-1c0.3-0.2,0.7,0,0.7,0.4v6c0,0.3,0.2,0.5,0.5,0.5h2.6
		c0.3,0,0.5,0.2,0.5,0.5v1.9c0,0.3-0.2,0.5-0.5,0.5h-2.6c-0.3,0-0.5,0.2-0.5,0.5c0,0.9,0,1.8,0,2.6c0,3.6,0.1,7.1,0.1,10.7
		c0,1.2,0.6,1.9,1.8,1.7c1.6-0.3,2.1,0.4,2.1,1.9c0,0.2,0,0.4,0.1,0.7c0.1,0.2-0.1,0.5-0.3,0.6c-1.8,0.5-3.7,0.6-5.3-0.4
		c-0.8-0.5-1.6-1.6-1.7-2.4c-0.3-2.6-0.3-5.2-0.3-7.8c0-2.4,0-4.8,0-7.4C123.7,11.8,123.5,11.6,123.3,11.6z"/>
	<path class="st0" d="M28,29.6V9.3c0-0.3,0.2-0.5,0.5-0.5H31c0.3,0,0.5,0.2,0.5,0.5v20.4c0,0.3-0.2,0.5-0.5,0.5h-2.5
		C28.2,30.1,28,29.9,28,29.6z"/>
	<path class="st0" d="M85.5,30.1h-2.6c-0.3,0-0.5-0.2-0.5-0.5V9.3c0-0.3,0.2-0.5,0.5-0.5h2.6C85.8,8.8,86,9,86,9.3v20.3
		C85.9,29.9,85.7,30.1,85.5,30.1z"/>
	<path class="st0" d="M114.6,8.8h2.5c0.3,0,0.5,0.2,0.5,0.5v20.4c0,0.3-0.2,0.5-0.5,0.5h-2.5c-0.3,0-0.5-0.2-0.5-0.5V9.2
		C114.1,9,114.3,8.8,114.6,8.8z"/>
	<path class="st0" d="M28.5,0.7h2.4c0.3,0,0.5,0.2,0.5,0.5v2.9c0,0.3-0.2,0.5-0.5,0.5h-2.4c-0.3,0-0.5-0.2-0.5-0.5V1.2
		C28.1,0.9,28.3,0.7,28.5,0.7z"/>
	<path class="st0" d="M85.9,1.3v2.9c0,0.3-0.2,0.5-0.5,0.5h-2.6c-0.3,0-0.5-0.2-0.5-0.5V1.3c0-0.3,0.2-0.5,0.5-0.5h2.6
		C85.7,0.8,85.9,1,85.9,1.3z"/>
	<path class="st0" d="M114.6,0.8h2.5c0.3,0,0.5,0.2,0.5,0.5v3c0,0.3-0.2,0.5-0.5,0.5h-2.5c-0.3,0-0.5-0.2-0.5-0.5v-3
		C114.1,1,114.3,0.8,114.6,0.8z"/>
	<path class="st0" d="M168.5,24.1h-1.3c-0.3,0-0.5-0.2-0.5-0.5V9.3c0-0.3,0.2-0.5,0.5-0.5c2.8,0.2,5.7,0.2,8.5,0.6
		c1.6,0.2,2.5,1.7,2.7,3.3c0.2,1.5-0.8,3.2-2.3,4c-0.3,0.1-0.6,0.3-0.8,0.4c-0.3,0.1-0.4,0.5-0.2,0.7c1.3,1.8,2.6,3.6,3.9,5.5
		c0.2,0.3,0,0.7-0.3,0.7c-2.2,0.3-2.2,0.1-3.3-1.8c-0.6-1-1.2-2-1.9-3c-0.4-0.6-0.9-1-1.5-1.3c-1.9-1-3-0.4-3,1.8c0,1.3,0,2.6,0,3.9
		l0,0C168.9,23.9,168.7,24.1,168.5,24.1z M169,15.2c0,0.3,0.2,0.5,0.5,0.5c1.6-0.1,3.2-0.1,4.6-0.5c0.6-0.1,1.3-1.2,1.5-1.9
		c0.2-1-0.5-1.8-1.6-2c-1.5-0.2-2.9-0.3-4.5-0.4c-0.3,0-0.5,0.2-0.5,0.5V15.2z"/>
</g>
</svg>
