<svg width="231" height="127" viewBox="0 0 231 127" fill="none" xmlns="http://www.w3.org/2000/svg">
<g clip-path="url(#clip0_632_3524)">
<g clip-path="url(#clip1_632_3524)">
<path d="M72.96 76.001L72.7731 76.043C71.0156 76.468 69.1833 76.4783 67.4211 76.073C65.7769 75.6814 64.3052 74.7644 63.2291 73.461C62.4642 72.5169 61.939 71.4019 61.6981 70.211C61.5587 69.5654 61.479 68.9083 61.46 68.248L67.517 65.848C67.7211 67.3263 68.3459 68.7148 69.3171 69.848C69.6081 70.1457 69.9677 70.3675 70.3643 70.4939C70.761 70.6203 71.1825 70.6475 71.5921 70.573L71.662 70.557C72.0391 70.4732 72.3952 70.3136 72.7086 70.0879C73.0219 69.8621 73.2861 69.575 73.485 69.244C73.6677 68.9858 73.7944 68.6923 73.8569 68.3824C73.9194 68.0724 73.9164 67.7528 73.8481 67.444L73.7571 67.144C73.2435 65.9802 72.3285 65.04 71.1791 64.495C69.8652 63.8425 68.4961 63.307 67.0881 62.895C65.3226 62.3821 63.6178 61.68 62.0031 60.801C60.3811 59.9058 59.124 58.4708 58.4501 56.745C58.3495 56.4397 58.2645 56.1307 58.1951 55.818C57.85 54.2501 57.9752 52.6151 58.5551 51.118C59.2036 49.3254 60.3882 47.7759 61.9481 46.68C63.4579 45.6172 65.1592 44.8565 66.9581 44.44L67.689 44.303C69.5698 43.9674 71.5084 44.2253 73.236 45.041C74.9488 45.878 76.3516 47.2374 77.2421 48.923C77.5217 49.4538 77.7294 50.0195 77.86 50.605C78.1129 51.8164 78.0346 53.0735 77.6331 54.244L70.4971 55.21C70.861 54.2722 70.9747 53.256 70.8271 52.261C70.7753 52.0134 70.6813 51.7766 70.5491 51.561C70.3477 51.1817 70.049 50.8627 69.6837 50.6369C69.3183 50.4111 68.8994 50.2865 68.47 50.276C68.1785 50.2598 67.8863 50.2834 67.6011 50.346C66.7758 50.5309 66.0496 51.0185 65.5662 51.7126C65.0828 52.4066 64.8773 53.2567 64.99 54.095L65.027 54.259C65.1477 54.6506 65.3554 55.0098 65.6346 55.3098C65.9137 55.6097 66.2572 55.8426 66.6391 55.991C67.8543 56.5541 69.1034 57.041 70.3791 57.449C72.3068 58.0409 74.1782 58.8029 75.9711 59.726C77.7502 60.5964 79.202 62.016 80.1121 63.775C80.4317 64.4289 80.6749 65.1174 80.8371 65.827C81.0947 66.927 81.0696 68.0743 80.7641 69.162C80.2953 70.8658 79.3079 72.3815 77.939 73.499C76.4987 74.7121 74.793 75.5692 72.96 76.001Z" fill="#EEEEEE"/>
<path d="M88.878 71.443C88.0152 71.5685 87.1345 71.4323 86.35 71.052C85.1668 70.3834 84.2708 69.3032 83.832 68.017C82.9098 65.325 82.1999 62.5649 81.709 59.762C81.0423 56.2366 80.4424 52.7587 79.909 49.328C79.518 46.928 78.672 39.455 78.371 37.8L87.593 36C87.81 38.2 88.481 46.2 88.604 49.105C88.7213 51.6256 88.8734 54.109 89.06 56.555C89.1727 58.0263 89.317 59.3793 89.493 60.614C89.6057 61.406 89.7357 62.147 89.883 62.837C90.1497 63.9143 90.5916 64.4087 91.209 64.32L91.28 64.31C91.6972 64.1822 92.0821 63.9665 92.4088 63.6774C92.7355 63.3883 92.9965 63.0325 93.1741 62.634C93.8109 61.4434 94.1698 60.1241 94.224 58.775C94.297 58.603 94.388 58.509 94.499 58.493L94.574 58.506C94.6606 58.5099 94.7444 58.5385 94.8153 58.5884C94.8862 58.6384 94.9412 58.7077 94.974 58.788C95.1966 59.3011 95.3474 59.8426 95.422 60.397C95.5699 61.6824 95.4845 62.9839 95.17 64.239C94.8106 66.2201 93.8953 68.0583 92.531 69.539C91.6801 70.3608 90.6439 70.9658 89.51 71.303L88.878 71.443Z" fill="#EEEEEE"/>
<path d="M112.24 67.788C111.267 67.8667 110.296 67.6132 109.486 67.069C108.318 66.1199 107.521 64.7909 107.233 63.314C106.825 64.6234 106.132 65.8264 105.205 66.837C104.297 67.8053 103.049 68.383 101.723 68.448C100.741 68.4629 99.7684 68.2536 98.8794 67.836C97.9904 67.4183 97.2085 66.8034 96.593 66.038C95.3101 64.3347 94.4198 62.3687 93.986 60.281C93.6757 58.8075 93.4588 57.3158 93.3369 55.815C93.2703 55.015 93.23 54.213 93.216 53.409C93.1837 51.4857 93.2944 49.5628 93.547 47.656L100.935 47.298C100.746 48.414 100.659 49.5451 100.677 50.677C100.67 51.789 100.714 52.9293 100.808 54.098L100.903 55.274C101.023 56.6432 101.269 57.9982 101.639 59.322C101.986 60.438 102.406 60.9756 102.9 60.935C103.41 60.8936 103.852 60.5033 104.226 59.764C104.64 58.9242 104.933 58.03 105.096 57.108C105.333 56.0729 105.474 55.0181 105.516 53.957C105.58 53.2493 105.587 52.5378 105.537 51.829L104.87 46.829L113.38 46.066L113.73 58.481L113.753 58.769C113.856 60.0497 114.223 60.7207 114.853 60.782H115.094C115.485 60.6956 115.852 60.5277 116.173 60.2891C116.495 60.0506 116.762 59.7469 116.957 59.398C117.752 58.2094 118.237 56.8415 118.37 55.418C118.453 55.2507 118.55 55.162 118.661 55.152L118.735 55.171C118.822 55.1796 118.905 55.2132 118.973 55.2677C119.042 55.3221 119.093 55.3951 119.121 55.478C119.327 56.0017 119.453 56.5536 119.494 57.115C119.562 58.4138 119.389 59.714 118.984 60.95C118.517 62.9149 117.491 64.7022 116.028 66.095C115.085 66.9022 113.955 67.4593 112.74 67.715L112.24 67.788Z" fill="#EEEEEE"/>
<path d="M119.423 66.71L119.002 45.646L128.078 45.604L127.957 47.594C129.119 46.5581 130.64 46.0194 132.195 46.094C133.554 46.1633 134.888 46.4805 136.133 47.03L133.967 54.083C133.134 53.4854 132.157 53.1215 131.136 53.029C130.762 53.0138 130.389 53.0862 130.048 53.2404C129.707 53.3945 129.406 53.6262 129.17 53.917C128.083 55.155 127.375 57.6263 127.044 61.331L126.744 65.861L119.423 66.71Z" fill="#EEEEEE"/>
<path d="M135.835 67.234L137.158 46.601L146.206 47.301L145.921 49.237C147.171 48.3149 148.729 47.9112 150.269 48.11C151.615 48.2872 152.918 48.7055 154.116 49.345L151.375 56.066C150.59 55.4127 149.647 54.978 148.641 54.806C148.27 54.7604 147.894 54.8006 147.542 54.9236C147.189 55.0465 146.87 55.2489 146.608 55.515C145.423 56.637 144.512 58.9963 143.876 62.593L143.199 66.993L135.835 67.234Z" fill="#EEEEEE"/>
<path d="M149.456 78.846L154.982 49.88L163.348 51.405L163.085 52.674C164.406 52.1499 165.855 52.0405 167.24 52.36C168.707 52.6681 170.021 53.4792 170.954 54.653C171.928 55.8995 172.568 57.374 172.814 58.937C173.105 60.6987 173.04 62.5007 172.623 64.237C172.25 66.018 171.512 67.7026 170.457 69.185C169.554 70.4749 168.333 71.5086 166.911 72.185C165.581 72.8028 164.082 72.9532 162.656 72.612C161.325 72.316 160.109 71.6391 159.156 70.664L157.329 79.064L149.456 78.846ZM162.556 67.195C162.865 67.2588 163.186 67.2334 163.482 67.1217C163.777 67.0099 164.034 66.8165 164.224 66.564C164.759 65.9071 165.171 65.1582 165.438 64.354C165.575 63.9684 165.688 63.5751 165.778 63.176C165.899 62.6433 165.98 62.1026 166.022 61.558C166.1 60.715 166.026 59.8647 165.803 59.048C165.734 58.7368 165.58 58.4509 165.358 58.2224C165.136 57.9938 164.855 57.8316 164.546 57.754C164.278 57.6795 163.997 57.6687 163.724 57.7224C163.451 57.776 163.195 57.8927 162.975 58.063C162.477 58.4621 162.095 58.9872 161.868 59.584C161.543 60.3381 161.292 61.1217 161.117 61.924C160.931 62.7166 160.83 63.5269 160.817 64.341C160.809 64.9934 160.949 65.6391 161.226 66.23C161.363 66.4786 161.552 66.694 161.782 66.8609C162.011 67.0277 162.274 67.1417 162.553 67.195H162.556Z" fill="#EEEEEE"/>
<path d="M173 64.866C173 64.866 170.839 73.581 165.54 73.511C160.241 73.441 159.475 71.977 159.475 71.977L157.942 80.134L149.785 79.367L158.221 80.901L160.103 73.581C161.837 74.1362 163.651 74.3955 165.471 74.348C168.538 74.278 171.745 71.42 173 64.866Z" fill="#727272"/>
<path d="M151.15 56.549C151.15 56.549 147.107 53.9 145.85 58.989C145.103 61.9993 144.521 65.0481 144.107 68.122L135.95 68.331L144.595 69.307L146.477 59.268C146.477 59.268 147.802 55.568 150.869 57.316L151.15 56.549Z" fill="#727272"/>
<path d="M133.601 54.482C133.601 54.482 129.287 52.3 128.607 57.498C128.2 60.5727 127.962 63.6673 127.893 66.768L119.81 67.885L128.51 67.891L129.261 57.704C129.261 57.704 130.161 53.884 133.408 55.274L133.601 54.482Z" fill="#727272"/>
<path d="M107.329 65.4109C107.329 65.4109 111.024 73.9859 118.623 64.1559C118.623 64.1559 115.346 70.2209 112.209 69.6639C111.077 69.4886 110.018 68.9961 109.154 68.2433C108.29 67.4906 107.657 66.5085 107.329 65.4109Z" fill="#727272"/>
<path d="M95.942 65.779C95.942 65.779 98.676 74.707 107.306 65.768C107.306 65.768 103.385 71.439 100.328 70.541C99.2215 70.243 98.2222 69.6375 97.4459 68.7946C96.6696 67.9518 96.1482 66.9062 95.942 65.779Z" fill="#727272"/>
<path d="M83.084 68.856C83.084 68.856 84.2 73.039 88.475 72.667C90.0696 72.4734 91.5721 71.815 92.7953 70.7737C94.0185 69.7324 94.9083 68.3543 95.354 66.811C95.354 66.811 93.402 73.69 88.754 73.783C84.106 73.876 83.084 68.856 83.084 68.856Z" fill="#727272"/>
<path d="M81.8451 69.141C80.8553 71.718 79.0442 73.8974 76.692 75.3423C74.3397 76.7872 71.5771 77.4172 68.831 77.135C58.792 76.391 60.6511 68.49 60.6511 68.49L59.351 69.234C59.351 69.234 58.701 77.693 68.926 78.065C79.151 78.437 81.8451 69.141 81.8451 69.141Z" fill="#727272"/>
<path d="M88.759 36.735L90.7111 61.647C90.7111 61.647 91.175 62.67 92.011 62.391C92.847 62.112 93.311 60.718 93.311 60.718C93.311 60.718 91.8241 62.577 91.7311 60.904C91.6381 59.231 89.593 37.758 89.593 37.758L88.759 36.735Z" fill="#727272"/>
<path d="M164.889 58.618C164.889 58.618 160.889 59.083 162.289 65.869C162.338 64.449 162.686 63.0553 163.311 61.779C163.922 60.7701 164.45 59.7129 164.889 58.618Z" fill="#727272"/>
<path d="M102.158 47.726C102.158 47.726 101.043 54.605 102.437 58.881C102.602 59.2543 102.9 59.5528 103.273 59.718C103.831 59.904 101.879 51.5379 102.901 48.6559L102.158 47.726Z" fill="#727272"/>
<path d="M114.067 46.05L114.532 58.506C114.532 58.506 114.811 59.806 115.462 59.157L114.997 47.351L114.067 46.05Z" fill="#727272"/>
<path d="M68.548 50.981C68.548 50.981 65.387 53.305 66.41 54.42C67.026 55.0901 67.7484 55.654 68.548 56.089C68.548 56.089 66.228 54.049 68.548 50.981Z" fill="#727272"/>
<path d="M70.7369 56.477C70.7369 56.477 78.545 58.011 80.219 61.357C81.893 64.703 81.7529 65.68 81.7529 65.68C81.7529 65.68 81.474 59.823 78.407 57.872C75.34 55.921 70.7369 56.477 70.7369 56.477Z" fill="#727272"/>
<path d="M156.199 54.813L151.806 76.774L157.035 56.274L156.199 54.813Z" fill="white"/>
<path d="M80.8021 39.292C80.8021 39.292 82.4751 63.554 85.1941 66.9L81.1741 41.011L80.8021 39.292Z" fill="white"/>
<path d="M121.011 46.466C121.011 46.466 119.367 62.587 121.576 65.317L121.142 47.66L121.011 46.466Z" fill="white"/>
<path d="M99.327 65.375C99.062 65.239 98.8247 65.0548 98.6271 64.832C98.2702 64.4687 97.9521 64.0692 97.678 63.64C97.646 63.591 97.6171 63.54 97.5861 63.491C96.5107 61.9891 95.7202 60.3025 95.2541 58.515C94.9193 57.2714 94.7412 55.9908 94.724 54.703C94.724 54.509 94.724 54.315 94.734 54.122C94.694 53.474 94.6711 52.822 94.6601 52.172C94.5649 51.576 94.5615 50.969 94.65 50.372C94.65 50.311 94.65 50.25 94.65 50.189C94.65 50.064 94.655 49.941 94.663 49.818C94.5767 49.8523 94.502 49.9105 94.4477 49.9858C94.3933 50.0611 94.3614 50.1503 94.356 50.243C94.0495 52.6874 94.1218 55.1645 94.5701 57.587C94.793 58.8028 95.1123 59.9989 95.525 61.164C95.878 62.2219 96.3574 63.2332 96.953 64.176C97.2971 64.708 97.7022 65.198 98.1601 65.636C98.3681 65.8705 98.6252 66.0564 98.9131 66.1805C99.201 66.3046 99.5127 66.3638 99.8261 66.354C99.9326 66.349 100.034 66.3082 100.115 66.2382C100.195 66.1681 100.25 66.0729 100.269 65.968C99.9371 65.8005 99.6217 65.6019 99.327 65.375Z" fill="white"/>
<path d="M59.898 53.9139C59.9637 53.0121 60.246 52.1394 60.721 51.3699C61.0998 50.5702 61.6402 49.8576 62.308 49.2769C63.3282 48.1286 64.7162 47.3713 66.2339 47.135C66.2179 47.0384 66.1655 46.9516 66.0873 46.8926C66.0092 46.8336 65.9113 46.8069 65.814 46.8179C64.2296 46.9325 62.7435 47.6292 61.642 48.7739C60.4859 50.0034 59.7321 51.5561 59.481 53.2249C59.2626 54.2095 59.2732 55.2311 59.512 56.2109C59.5341 56.292 59.5799 56.3646 59.6435 56.4194C59.7071 56.4743 59.7855 56.5089 59.8689 56.5189C59.7981 56.1695 59.7543 55.8151 59.738 55.4589C59.7153 54.9389 59.7692 54.4183 59.898 53.9139Z" fill="white"/>
<path d="M79.6279 64.91C79.1887 64.0649 78.6111 63.2993 77.9189 62.645C77.8559 62.5807 77.774 62.5382 77.6852 62.5236C77.5963 62.509 77.5052 62.5232 77.4249 62.564C78.7029 63.7758 79.4566 65.4392 79.525 67.199C79.5641 68.1967 79.3304 69.1862 78.849 70.061C78.4367 70.873 77.8573 71.5887 77.1489 72.161C77.1978 72.2308 77.2693 72.2815 77.3513 72.3046C77.4333 72.3277 77.5208 72.3219 77.599 72.288C78.4254 71.9063 79.0939 71.2501 79.491 70.431C80.0305 69.6277 80.3488 68.6964 80.4139 67.731C80.3867 66.7405 80.1168 65.7719 79.6279 64.91Z" fill="white"/>
<path d="M138.782 47.3199C138.782 47.3199 136.73 63.472 138.312 66.088L138.826 48.505L138.782 47.3199Z" fill="white"/>
<path d="M165.311 54.4399C165.875 54.3732 166.447 54.4198 166.993 54.5769C167.539 54.734 168.048 54.9985 168.491 55.3549C169.282 55.8079 169.969 56.4212 170.509 57.1555C171.049 57.8899 171.429 58.729 171.625 59.6189C171.707 59.5727 171.77 59.4995 171.804 59.4118C171.838 59.324 171.84 59.2272 171.811 59.1379C171.425 57.5533 170.602 56.1091 169.435 54.9699C168.858 54.4268 168.166 54.0193 167.412 53.7771C166.657 53.5349 165.858 53.4641 165.072 53.5699C164.958 53.6024 164.86 53.6786 164.802 53.7821C164.743 53.8856 164.727 54.008 164.758 54.123C164.792 54.2368 164.868 54.3334 164.971 54.3924C165.074 54.4515 165.196 54.4685 165.311 54.4399Z" fill="white"/>
<path d="M95.7371 72.795C102.691 75.8226 110.227 77.2809 117.809 77.066C124.5 76.897 132.583 75.016 136.663 70.425C136.663 70.425 138.346 70.209 136.886 71.925C135.426 73.641 127.064 82.064 115.84 81.201C106.171 80.454 99.7581 77.107 95.7371 72.795Z" fill="#EEEEEE"/>
<path d="M95.854 74.685C95.854 74.685 105.039 82.535 117.792 82.215C124.483 82.047 133.047 77.789 137.127 73.198C137.127 73.198 138.463 72.098 137.003 73.812C135.543 75.526 127.181 83.951 115.957 83.088C106.289 82.344 99.875 78.998 95.854 74.685Z" fill="#727272"/>
<path d="M107.935 78.014C111.776 79.3568 115.89 79.7245 119.908 79.084C120.969 78.9351 122.021 78.7308 123.06 78.472C123.117 78.4561 123.166 78.4179 123.196 78.366C123.225 78.314 123.233 78.2526 123.217 78.195C123.201 78.1374 123.163 78.0886 123.111 78.0591C123.059 78.0297 122.997 78.022 122.94 78.038C119.166 79.0262 115.224 79.1879 111.382 78.512C110.248 78.2957 109.135 77.9843 108.054 77.581C107.782 77.481 107.665 77.9139 107.934 78.0149L107.935 78.014Z" fill="white"/>
<path d="M138.24 77.291C140.006 77.6715 141.704 78.3178 143.276 79.208C144.024 79.8544 144.988 80.196 145.976 80.165C145.976 80.165 147.776 78.949 144.892 77.13C142.008 75.311 138.24 77.291 138.24 77.291Z" fill="#EEEEEE"/>
<path d="M137.475 76.844C138.176 76.0128 139.118 75.419 140.17 75.144C141.178 75.0002 142.194 74.9174 143.212 74.896C143.905 74.722 144.425 72.796 142.337 72.706C141.159 72.6761 140.012 73.0817 139.115 73.8453C138.217 74.6089 137.634 75.6766 137.475 76.844Z" fill="#EEEEEE"/>
<path d="M113.072 79.228C113.072 79.228 113.653 79.285 114.981 79.436C117.47 79.718 121.447 80.586 123.869 83.561C127.585 88.124 132.284 91.783 136.381 90.856C140.536 89.915 142.802 84.471 138.236 79.606C133.699 74.954 122.636 77.926 122.636 77.926C119.512 78.7433 116.301 79.1805 113.072 79.228Z" fill="#959595"/>
<path d="M114.379 79.182C116.1 78.9292 117.84 78.8175 119.579 78.848C121.494 78.8445 123.398 79.1484 125.217 79.748C129.998 81.454 131.866 84.177 132.857 84.407C133.172 84.48 133.648 84.464 133.357 83.725C132.847 82.449 128.402 79.225 123.557 78.693C120.491 78.3841 117.395 78.549 114.379 79.182Z" fill="white"/>
</g>
</g>
<defs>
<clipPath id="clip0_632_3524">
<rect width="231" height="127" fill="white"/>
</clipPath>
<clipPath id="clip1_632_3524">
<rect width="115" height="55" fill="white" transform="translate(58 36)"/>
</clipPath>
</defs>
</svg>
