<svg width="100" height="100" viewBox="0 0 100 100" fill="none" xmlns="http://www.w3.org/2000/svg">
<g clip-path="url(#clip0_214_3193)">
<path d="M85.6897 56.5257V42.6797C84.5141 39.2051 82.8421 38.012 79.1324 37.9859C76.5809 37.9685 76.0323 37.4025 76.0497 34.8161V34.2588C76.0758 31.6028 76.0933 29.1035 75.1441 26.7436C73.3328 22.2589 70.1281 19.359 65.626 18.1312C63.9105 17.6609 63.1964 16.6943 63.2225 14.883C63.2661 11.8351 63.2573 8.72629 63.2486 5.72195V3.51877C63.2399 1.86421 62.7697 1.38525 61.15 1.38525C56.2995 1.38525 51.4403 1.38525 46.5898 1.38525C41.7393 1.38525 37.0978 1.38525 32.3432 1.38525C30.7495 1.38525 30.2096 1.92516 30.2009 3.51877V3.63198C30.1835 7.3678 30.1661 11.2255 30.2096 15.0136C30.2271 16.1631 29.9745 17.5564 27.9194 18.105C21.6495 19.7944 17.426 25.2893 17.3998 31.777C17.3563 43.3415 17.3563 55.3153 17.3998 67.3675C17.4173 73.8986 21.5101 79.2542 27.8062 81.0132C29.5043 81.4835 30.2445 82.4849 30.2096 84.2614C30.1748 86.2904 30.1748 88.3543 30.1835 90.3485C30.1835 92.0466 30.1835 93.7969 30.1748 95.5299C30.1574 96.6445 30.4709 97.315 31.2372 97.7592H62.2037C62.8655 97.4108 63.2835 96.8709 63.2573 95.5821C63.2225 93.4834 63.2312 91.3586 63.2312 89.2948C63.2312 87.5444 63.2312 85.7331 63.2225 83.9566C63.2051 82.4327 63.893 81.5357 65.3734 81.1265C71.9307 79.3413 76.0236 73.9683 76.041 67.1149V66.2093C76.0497 65.3472 76.0584 64.4589 76.041 63.5881C76.0236 62.8479 76.2326 62.2644 76.6506 61.829C77.0686 61.4023 77.6346 61.1933 78.3487 61.1933H78.5925C78.8277 61.1933 79.0628 61.1933 79.3066 61.1759C82.9815 61.0453 84.4967 59.9481 85.6897 56.5257ZM33.3272 6.99335C33.3185 6.2009 33.5188 5.60874 33.9542 5.17333C34.5986 4.52021 35.4955 4.52021 35.7916 4.52021C37.5333 4.52892 39.2401 4.53763 40.9382 4.53763H47.182C48.0963 4.53763 49.0107 4.53763 49.9251 4.53763C50.8394 4.53763 51.7538 4.53763 52.6594 4.53763C54.5056 4.53763 55.9947 4.52892 57.3445 4.51151H57.4315C58.0063 4.51151 58.851 4.58117 59.4606 5.21687C59.9221 5.68712 60.1398 6.35765 60.1224 7.24589C60.0614 9.98898 60.0876 12.6537 60.1224 14.9004C60.1224 15.4577 60.0701 16.2763 59.4693 16.8859C59.0164 17.3387 58.3982 17.5651 57.5622 17.5651C53.9483 17.5477 50.3605 17.5477 46.764 17.5477C43.1675 17.5477 39.51 17.5477 35.8874 17.5651C35.5565 17.5651 34.616 17.5651 33.9629 16.8946C33.5275 16.4505 33.3185 15.8322 33.3272 15.0223C33.362 12.5405 33.362 9.9106 33.3272 7.00206V6.99335ZM60.1224 92.1424C60.1311 92.9609 59.9221 93.5705 59.478 94.0233C58.8161 94.6939 57.8931 94.6939 57.5883 94.6939C55.8902 94.6765 54.2356 94.6765 52.5811 94.6765H46.4156C45.4752 94.6765 44.5434 94.6765 43.6029 94.6765C42.6711 94.6765 41.7306 94.6765 40.7988 94.6765C38.9179 94.6765 37.3939 94.6765 36.018 94.7026H35.9396C35.3736 94.7026 34.5638 94.6329 33.9542 94.0146C33.2836 93.3267 33.3011 92.3514 33.3098 92.0292C33.362 89.6605 33.362 87.1177 33.3098 84.2527C33.3098 83.9392 33.2836 82.99 33.9542 82.3021C34.6247 81.6228 35.5739 81.6228 35.8961 81.6228C39.5013 81.6315 43.0978 81.6402 46.6856 81.6402C50.2734 81.6402 53.8699 81.6402 57.4577 81.6228C57.7973 81.6228 58.7726 81.6228 59.4431 82.3108C59.896 82.7723 60.105 83.3993 60.0963 84.2353C60.0614 86.7171 60.0614 89.3035 60.0963 92.1424H60.1224ZM69.8321 75.0568C67.6724 77.2948 64.6332 78.5227 61.2806 78.5227H61.1238C57.7276 78.4879 54.0702 78.4704 49.6116 78.4704C46.8249 78.4704 44.0296 78.4705 41.243 78.4879C38.4563 78.4879 35.661 78.5053 32.8744 78.5053H32.2038C25.2372 78.5053 20.5522 73.8377 20.5435 66.8972C20.5435 55.3414 20.5435 43.7943 20.5435 32.2385C20.5435 25.3416 25.1937 20.7001 32.1167 20.7001C36.7495 20.7001 41.3823 20.7001 46.0064 20.7001C51.2226 20.7001 56.4388 20.7001 61.6463 20.7001C68.1165 20.7001 72.8451 25.359 72.9061 31.7857C72.9409 35.9221 72.9322 40.1194 72.9235 44.1775C72.9235 45.6143 72.9235 47.0512 72.9235 48.488V49.594C72.9235 51.3443 72.9148 53.0947 72.8973 54.845C72.8625 58.755 72.8364 62.7956 72.967 66.7579C73.0715 69.9103 71.9656 72.8624 69.8321 75.0568ZM82.5809 55.2892V55.3414C82.5809 56.8131 81.6752 57.8145 80.16 58.0322C79.9946 58.0584 79.8378 58.0584 79.6723 58.0671H79.5678C79.1586 58.0845 78.8189 58.1019 78.5403 58.1019C76.041 58.1019 76.041 56.4648 76.041 54.7318V49.5156C76.041 48.9583 76.041 48.4097 76.041 47.8523C76.041 46.459 76.0497 45.0222 76.0236 43.6114C76.0062 42.7841 76.2152 42.1659 76.6506 41.713C77.0512 41.3038 77.6085 41.0948 78.2877 41.0948C78.3748 41.0948 78.4706 41.0948 78.5751 41.1035C78.697 41.1122 78.8189 41.1122 78.9496 41.1122H79.5417C79.6811 41.1122 79.8291 41.1122 79.9684 41.1209C81.5794 41.208 82.5809 42.2529 82.5809 43.8378C82.5809 47.652 82.5809 51.4663 82.5809 55.2892Z" fill="#727272"/>
<path d="M51.5925 32.0817C49.8509 31.6202 48.2137 31.3938 46.5853 31.3938C46.0541 31.3938 45.5142 31.4199 44.983 31.4721C39.7929 31.9598 35.1775 34.4678 31.9816 38.5345C28.8292 42.5403 27.4969 47.5214 28.2371 52.5634C29.4214 60.6969 35.6565 67.0452 43.7377 68.3602C44.6869 68.5169 45.6622 68.5953 46.6201 68.5953C53.4561 68.5953 59.9263 64.6156 63.1048 58.4589C64.681 55.411 65.3515 52.0758 65.099 48.5402C65.0293 47.5301 64.4197 46.877 63.5489 46.877C62.4343 46.8857 62.0076 47.8088 61.9814 48.6622C61.9727 48.9408 61.9814 49.2195 61.9814 49.4981V49.9249C62.0076 54.0961 60.4227 57.9887 57.5402 60.8885C54.6491 63.7883 50.7827 65.3907 46.6463 65.3907C45.9496 65.3907 45.2529 65.3471 44.5563 65.2513C39.2356 64.5547 34.7421 61.1933 32.5302 56.2557C30.3183 51.3095 30.806 45.7101 33.8452 41.2776C36.7711 37.0018 41.4126 34.5548 46.5766 34.5548C47.9699 34.5548 49.3806 34.7377 50.7739 35.086C51.1397 35.1818 51.4793 35.2254 51.7928 35.2254C52.9075 35.2254 53.1861 34.6245 53.2993 34.1804C53.3951 33.7972 53.6825 32.6477 51.5838 32.0904L51.5925 32.0817Z" fill="#727272"/>
<path d="M64.0857 35.156C63.8071 34.8947 63.4675 34.7641 63.1104 34.7641C62.7098 34.7641 62.3093 34.9295 61.9522 35.243C61.7607 35.4085 61.5604 35.6088 61.3601 35.8178L57.9552 39.2227C54.6634 42.5057 51.2672 45.9019 47.9494 49.272C47.4966 49.7335 46.8696 50.2647 46.0336 50.2647C45.0409 50.2647 44.3877 49.5071 44.17 49.2546C43.5169 48.497 42.7332 47.7393 41.8449 46.9904C41.5663 46.7553 41.2789 46.6421 40.9741 46.6421C40.7303 46.6421 40.4603 46.7118 40.1904 46.8598C39.7898 47.0688 39.4154 47.3823 39.4328 48.2793V48.3489C39.4154 48.645 39.5721 48.9846 39.8508 49.2633L40.5561 49.9774C41.9756 51.4229 43.4473 52.9207 44.9364 54.3315C45.2063 54.584 45.6243 54.8975 46.0859 54.8975C46.4168 54.8975 46.7477 54.732 47.0699 54.4186C51.3195 50.2212 55.6126 45.9193 59.7665 41.7568C61.2294 40.2938 62.6924 38.8308 64.1554 37.3591C64.765 36.5754 64.7389 35.7568 64.0945 35.1647L64.0857 35.156Z" fill="#727272"/>
<path d="M85.6897 56.5257V42.6797C84.5141 39.2051 82.8421 38.012 79.1324 37.9859C76.5809 37.9685 76.0323 37.4025 76.0497 34.8161V34.2588C76.0758 31.6028 76.0933 29.1035 75.1441 26.7436C73.3328 22.2589 70.1281 19.359 65.626 18.1312C63.9105 17.6609 63.1964 16.6943 63.2225 14.883C63.2661 11.8351 63.2573 8.72629 63.2486 5.72195V3.51877C63.2399 1.86421 62.7697 1.38525 61.15 1.38525C56.2995 1.38525 51.4403 1.38525 46.5898 1.38525C41.7393 1.38525 37.0978 1.38525 32.3432 1.38525C30.7495 1.38525 30.2096 1.92516 30.2009 3.51877V3.63198C30.1835 7.3678 30.1661 11.2255 30.2096 15.0136C30.2271 16.1631 29.9745 17.5564 27.9194 18.105C21.6495 19.7944 17.426 25.2893 17.3998 31.777C17.3563 43.3415 17.3563 55.3153 17.3998 67.3675C17.4173 73.8986 21.5101 79.2542 27.8062 81.0132C29.5043 81.4835 30.2445 82.4849 30.2096 84.2614C30.1748 86.2904 30.1748 88.3543 30.1835 90.3485C30.1835 92.0466 30.1835 93.7969 30.1748 95.5299C30.1574 96.6445 30.4709 97.315 31.2372 97.7592H62.2037C62.8655 97.4108 63.2835 96.8709 63.2573 95.5821C63.2225 93.4834 63.2312 91.3586 63.2312 89.2948C63.2312 87.5444 63.2312 85.7331 63.2225 83.9566C63.2051 82.4327 63.893 81.5357 65.3734 81.1265C71.9307 79.3413 76.0236 73.9683 76.041 67.1149V66.2093C76.0497 65.3472 76.0584 64.4589 76.041 63.5881C76.0236 62.8479 76.2326 62.2644 76.6506 61.829C77.0686 61.4023 77.6346 61.1933 78.3487 61.1933H78.5925C78.8277 61.1933 79.0628 61.1933 79.3066 61.1759C82.9815 61.0453 84.4967 59.9481 85.6897 56.5257ZM33.3272 6.99335C33.3185 6.2009 33.5188 5.60874 33.9542 5.17333C34.5986 4.52021 35.4955 4.52021 35.7916 4.52021C37.5333 4.52892 39.2401 4.53763 40.9382 4.53763H47.182C48.0963 4.53763 49.0107 4.53763 49.9251 4.53763C50.8394 4.53763 51.7538 4.53763 52.6594 4.53763C54.5056 4.53763 55.9947 4.52892 57.3445 4.51151H57.4315C58.0063 4.51151 58.851 4.58117 59.4606 5.21687C59.9221 5.68712 60.1398 6.35765 60.1224 7.24589C60.0614 9.98898 60.0876 12.6537 60.1224 14.9004C60.1224 15.4577 60.0701 16.2763 59.4693 16.8859C59.0164 17.3387 58.3982 17.5651 57.5622 17.5651C53.9483 17.5477 50.3605 17.5477 46.764 17.5477C43.1675 17.5477 39.51 17.5477 35.8874 17.5651C35.5565 17.5651 34.616 17.5651 33.9629 16.8946C33.5275 16.4505 33.3185 15.8322 33.3272 15.0223C33.362 12.5405 33.362 9.9106 33.3272 7.00206V6.99335ZM60.1224 92.1424C60.1311 92.9609 59.9221 93.5705 59.478 94.0233C58.8161 94.6939 57.8931 94.6939 57.5883 94.6939C55.8902 94.6765 54.2356 94.6765 52.5811 94.6765H46.4156C45.4752 94.6765 44.5434 94.6765 43.6029 94.6765C42.6711 94.6765 41.7306 94.6765 40.7988 94.6765C38.9179 94.6765 37.3939 94.6765 36.018 94.7026H35.9396C35.3736 94.7026 34.5638 94.6329 33.9542 94.0146C33.2836 93.3267 33.3011 92.3514 33.3098 92.0292C33.362 89.6605 33.362 87.1177 33.3098 84.2527C33.3098 83.9392 33.2836 82.99 33.9542 82.3021C34.6247 81.6228 35.5739 81.6228 35.8961 81.6228C39.5013 81.6315 43.0978 81.6402 46.6856 81.6402C50.2734 81.6402 53.8699 81.6402 57.4577 81.6228C57.7973 81.6228 58.7726 81.6228 59.4431 82.3108C59.896 82.7723 60.105 83.3993 60.0963 84.2353C60.0614 86.7171 60.0614 89.3035 60.0963 92.1424H60.1224ZM69.8321 75.0568C67.6724 77.2948 64.6332 78.5227 61.2806 78.5227H61.1238C57.7276 78.4879 54.0702 78.4704 49.6116 78.4704C46.8249 78.4704 44.0296 78.4705 41.243 78.4879C38.4563 78.4879 35.661 78.5053 32.8744 78.5053H32.2038C25.2372 78.5053 20.5522 73.8377 20.5435 66.8972C20.5435 55.3414 20.5435 43.7943 20.5435 32.2385C20.5435 25.3416 25.1937 20.7001 32.1167 20.7001C36.7495 20.7001 41.3823 20.7001 46.0064 20.7001C51.2226 20.7001 56.4388 20.7001 61.6463 20.7001C68.1165 20.7001 72.8451 25.359 72.9061 31.7857C72.9409 35.9221 72.9322 40.1194 72.9235 44.1775C72.9235 45.6143 72.9235 47.0512 72.9235 48.488V49.594C72.9235 51.3443 72.9148 53.0947 72.8973 54.845C72.8625 58.755 72.8364 62.7956 72.967 66.7579C73.0715 69.9103 71.9656 72.8624 69.8321 75.0568ZM82.5809 55.2892V55.3414C82.5809 56.8131 81.6752 57.8145 80.16 58.0322C79.9946 58.0584 79.8378 58.0584 79.6723 58.0671H79.5678C79.1586 58.0845 78.8189 58.1019 78.5403 58.1019C76.041 58.1019 76.041 56.4648 76.041 54.7318V49.5156C76.041 48.9583 76.041 48.4097 76.041 47.8523C76.041 46.459 76.0497 45.0222 76.0236 43.6114C76.0062 42.7841 76.2152 42.1659 76.6506 41.713C77.0512 41.3038 77.6085 41.0948 78.2877 41.0948C78.3748 41.0948 78.4706 41.0948 78.5751 41.1035C78.697 41.1122 78.8189 41.1122 78.9496 41.1122H79.5417C79.6811 41.1122 79.8291 41.1122 79.9684 41.1209C81.5794 41.208 82.5809 42.2529 82.5809 43.8378C82.5809 47.652 82.5809 51.4663 82.5809 55.2892Z" stroke="#727272"/>
<path d="M51.5925 32.0817C49.8509 31.6202 48.2137 31.3938 46.5853 31.3938C46.0541 31.3938 45.5142 31.4199 44.983 31.4721C39.7929 31.9598 35.1775 34.4678 31.9816 38.5345C28.8292 42.5403 27.4969 47.5214 28.2371 52.5634C29.4214 60.6969 35.6565 67.0452 43.7377 68.3602C44.6869 68.5169 45.6622 68.5953 46.6201 68.5953C53.4561 68.5953 59.9263 64.6156 63.1048 58.4589C64.681 55.411 65.3515 52.0758 65.099 48.5402C65.0293 47.5301 64.4197 46.877 63.5489 46.877C62.4343 46.8857 62.0076 47.8088 61.9814 48.6622C61.9727 48.9408 61.9814 49.2195 61.9814 49.4981V49.9249C62.0076 54.0961 60.4227 57.9887 57.5402 60.8885C54.6491 63.7883 50.7827 65.3907 46.6463 65.3907C45.9496 65.3907 45.2529 65.3471 44.5563 65.2513C39.2356 64.5547 34.7421 61.1933 32.5302 56.2557C30.3183 51.3095 30.806 45.7101 33.8452 41.2776C36.7711 37.0018 41.4126 34.5548 46.5766 34.5548C47.9699 34.5548 49.3806 34.7377 50.7739 35.086C51.1397 35.1818 51.4793 35.2254 51.7928 35.2254C52.9075 35.2254 53.1861 34.6245 53.2993 34.1804C53.3951 33.7972 53.6825 32.6477 51.5838 32.0904L51.5925 32.0817Z" stroke="#727272"/>
<path d="M64.0857 35.156C63.8071 34.8947 63.4675 34.7641 63.1104 34.7641C62.7098 34.7641 62.3093 34.9295 61.9522 35.243C61.7607 35.4085 61.5604 35.6088 61.3601 35.8178L57.9552 39.2227C54.6634 42.5057 51.2672 45.9019 47.9494 49.272C47.4966 49.7335 46.8696 50.2647 46.0336 50.2647C45.0409 50.2647 44.3877 49.5071 44.17 49.2546C43.5169 48.497 42.7332 47.7393 41.8449 46.9904C41.5663 46.7553 41.2789 46.6421 40.9741 46.6421C40.7303 46.6421 40.4603 46.7118 40.1904 46.8598C39.7898 47.0688 39.4154 47.3823 39.4328 48.2793V48.3489C39.4154 48.645 39.5721 48.9846 39.8508 49.2633L40.5561 49.9774C41.9756 51.4229 43.4473 52.9207 44.9364 54.3315C45.2063 54.584 45.6243 54.8975 46.0859 54.8975C46.4168 54.8975 46.7477 54.732 47.0699 54.4186C51.3195 50.2212 55.6126 45.9193 59.7665 41.7568C61.2294 40.2938 62.6924 38.8308 64.1554 37.3591C64.765 36.5754 64.7389 35.7568 64.0945 35.1647L64.0857 35.156Z" stroke="#727272"/>
</g>
<defs>
<clipPath id="clip0_214_3193">
<rect width="68.316" height="96.3826" fill="white" transform="translate(17.377 1.37695)"/>
</clipPath>
</defs>
</svg>
