<svg width="100" height="100" viewBox="0 0 100 100" fill="none" xmlns="http://www.w3.org/2000/svg">
<g clip-path="url(#clip0_148_591)">
<path d="M0 93.6788C0.958982 90.8938 2.98204 89.7377 5.84585 89.764C8.44692 89.7903 11.048 89.7377 13.6491 89.7771C14.5161 89.7903 14.8708 89.5275 14.8576 88.608C14.8314 87.2418 14.7394 85.8755 14.9233 84.5093C15.3043 81.6455 17.2223 79.8983 20.0992 79.7801C20.8086 79.7538 21.5311 79.7407 22.2405 79.7801C22.9762 79.8195 23.1995 79.5042 23.1995 78.808C23.1732 76.1149 23.1995 73.4088 23.1995 70.7157C23.1732 65.9077 25.078 62.1506 29.2818 59.6809C29.7022 59.4313 29.8598 59.116 29.8598 58.6562C29.8598 51.8645 29.8598 45.0597 29.8598 38.268C29.8598 37.8213 29.689 37.4667 29.4394 37.0988C27.5477 34.235 27.9024 30.8063 30.2933 28.4549C32.6579 26.1297 36.0603 25.8669 38.8585 27.798C39.2788 28.087 39.6992 28.2184 40.2116 28.2184C49.4861 28.2184 58.7475 28.2184 68.022 28.2184C68.5738 28.2184 69.0204 28.0476 69.4671 27.7455C72.2783 25.8669 75.7333 26.1822 78.0453 28.4811C80.41 30.8195 80.7252 34.2744 78.8073 37.1382C78.5314 37.5586 78.3344 37.9659 78.3475 38.4782C78.3738 40.4618 78.3606 42.4455 78.3475 44.4291C78.3475 44.9546 78.4789 45.3487 78.8861 45.7165C79.74 46.4785 80.0947 47.4506 80.0815 48.5935C80.0684 50.0254 80.0947 51.4573 80.0815 52.8892C80.0815 53.4541 80.226 53.8876 80.6464 54.2685C81.2638 54.8466 81.8681 55.4377 82.433 56.0683C83.6022 57.3688 83.7598 58.9321 82.7614 60.364C81.4346 62.2557 80.029 64.0948 78.6234 65.9208C77.9403 66.801 76.9287 66.9324 76.1274 66.3281C75.326 65.7369 75.1947 64.6597 75.8647 63.727C76.9944 62.1769 78.1373 60.6399 79.3196 59.1291C79.7269 58.6037 79.648 58.3015 79.2408 57.8155C78.4395 56.8696 77.5987 56.5675 76.2982 56.6857C74.0124 56.8828 71.6872 56.8828 69.3882 56.6332C68.784 56.5675 67.0368 57.8549 66.9579 58.4198C66.9185 58.7482 67.1681 58.9452 67.3389 59.1817C68.4293 60.6399 69.5327 62.0849 70.61 63.5562C71.3982 64.6203 71.3325 65.6975 70.5049 66.3281C69.6116 66.998 68.6132 66.7616 67.7593 65.6318C66.5244 64.0029 65.2896 62.3608 64.0679 60.7055C62.7936 58.9715 62.8067 57.2243 64.4488 55.845C66.1172 54.4262 66.866 52.8366 66.5376 50.6822C66.4193 49.9203 66.5113 49.1189 66.5244 48.3439C66.5244 47.4243 66.8003 46.5836 67.4834 45.9661C68.0352 45.4801 68.1665 44.9152 68.1534 44.2321C68.1271 42.6425 68.114 41.0399 68.1534 39.4503C68.1665 38.6884 67.8644 38.4256 67.1156 38.4256C58.4322 38.4388 49.7488 38.4388 41.0654 38.4256C40.3692 38.4256 40.0802 38.649 40.0802 39.3846C40.1065 45.7559 40.0933 52.1404 40.0802 58.5117C40.0802 59.116 40.3298 59.4444 40.829 59.7466C44.7963 62.1637 46.7799 65.6975 46.7405 70.3611C46.7142 73.0541 46.7405 75.7602 46.7405 78.4664C46.7405 79.7801 46.7405 79.767 48.1067 79.7801C49.0132 79.7801 49.9196 79.7144 50.826 79.8983C53.3614 80.3975 55.0561 82.3812 55.0955 84.9822C55.1217 86.2828 55.1217 87.5833 55.0955 88.8839C55.0955 89.5013 55.3188 89.7772 55.9494 89.764C57.0528 89.7377 58.1563 89.7509 59.273 89.764C59.8116 89.764 59.9561 89.6064 59.9429 89.0152C59.8904 84.2072 59.851 79.386 59.9035 74.5779C59.9298 72.0294 62.1893 69.8619 64.8429 69.8356C70.4655 69.783 76.1011 69.783 81.7236 69.8356C84.5743 69.8619 86.7287 72.1476 86.7156 75.0246C86.7156 79.7407 86.8338 84.4568 86.6368 89.1729C86.6105 89.8954 87.0966 89.764 87.4775 89.764C89.5531 89.7772 91.6419 89.764 93.7175 89.764C94.2692 89.764 94.821 89.7903 95.3727 89.856C98.3547 90.2238 100.194 92.4702 99.9837 95.4391C99.8129 98.0139 97.5928 99.9581 94.7816 99.9581C64.9218 99.9581 35.0619 99.9581 5.20215 99.9581C2.52225 99.9581 0.906435 98.5788 0 96.1747V93.6393L0 93.6788ZM50.0641 93.3503C35.3904 93.3503 20.7298 93.3503 6.05604 93.3503C5.59625 93.3503 5.13646 93.3372 4.70295 93.4292C3.95416 93.5868 3.49437 94.086 3.48124 94.8742C3.4681 95.6361 3.83593 96.1879 4.59786 96.3849C4.96569 96.4769 5.35979 96.5294 5.75389 96.5294C35.2196 96.5294 64.6853 96.5294 94.151 96.5294C94.532 96.5294 94.9261 96.49 95.307 96.3981C96.0821 96.2141 96.4499 95.6493 96.4368 94.8873C96.4368 94.1123 95.977 93.5999 95.2282 93.4423C94.7947 93.3503 94.3218 93.3635 93.8751 93.3635C79.2671 93.3635 64.6722 93.3635 50.0641 93.3635V93.3503ZM73.303 89.7771C75.9697 89.7771 78.6365 89.7771 81.3033 89.7771C82.6432 89.7771 83.103 89.2911 83.1161 87.938C83.1293 86.6375 83.1161 85.3369 83.1161 84.0364C83.1161 81.0806 83.1161 78.1249 83.1161 75.1691C83.1161 73.9605 82.5775 73.4613 81.3821 73.435C80.699 73.4219 80.0159 73.4613 79.3327 73.4219C78.5577 73.3694 78.3212 73.6846 78.3344 74.4466C78.3738 76.5222 78.3344 78.6109 78.3475 80.6865C78.3475 81.8426 77.9403 82.7096 76.8499 83.1825C75.7596 83.6554 74.7874 83.3533 74.0255 82.5125C73.4738 81.8951 73.1191 81.9739 72.5411 82.5125C71.3325 83.6686 69.9137 83.6686 68.9022 82.6176C68.2585 81.9608 68.1665 81.12 68.1534 80.2661C68.1271 78.8737 68.1534 77.468 68.1534 76.0755C68.1534 74.2889 67.2513 73.4088 65.4472 73.435C63.9234 73.4613 63.4767 73.8948 63.4767 75.4187C63.4767 79.5436 63.4767 83.6686 63.4767 87.7935C63.4767 89.3436 63.9102 89.7771 65.4472 89.7771C68.0746 89.7771 70.7151 89.7771 73.3424 89.7771H73.303ZM34.9569 89.7771C40.0933 89.7771 45.2298 89.764 50.3662 89.7903C51.1939 89.7903 51.5486 89.5538 51.5091 88.6868C51.4566 87.4914 51.5091 86.2828 51.4829 85.0742C51.4566 83.9444 50.9311 83.3927 49.7882 83.3927C39.9357 83.3927 30.0963 83.3927 20.2437 83.3927C19.0483 83.3927 18.444 84.0101 18.4177 85.1924C18.3914 86.2959 18.4703 87.4125 18.3914 88.5029C18.3257 89.4881 18.6542 89.7903 19.6526 89.7903C24.7496 89.7509 29.8598 89.764 34.9569 89.764V89.7771ZM34.878 79.7932C37.2558 79.7932 39.6204 79.767 41.9981 79.7932C42.8126 79.7932 43.1805 79.5962 43.1673 78.7029C43.1279 75.6552 43.2067 72.5943 43.1148 69.5334C42.9965 65.1195 39.3445 61.6777 34.9043 61.7171C30.5035 61.7433 26.8515 65.3034 26.7989 69.6779C26.7595 72.6994 26.7989 75.7208 26.7727 78.7423C26.7727 79.5699 27.0748 79.8064 27.863 79.7932C30.2014 79.7538 32.5397 79.7932 34.878 79.7932ZM54.1759 34.8787C57.8542 34.8787 61.5193 34.8787 65.1976 34.8787C66.0997 34.8787 66.5376 34.4189 66.5113 33.4994C66.5113 33.3417 66.485 33.1709 66.5113 33.0133C66.774 31.9886 66.3405 31.7785 65.3684 31.7785C58.0512 31.8179 50.7472 31.8047 43.4301 31.8047C42.3441 31.8047 41.788 32.3258 41.7617 33.368C41.7617 33.4994 41.7617 33.6307 41.7223 33.749C41.4201 34.7342 41.9062 34.8919 42.7601 34.8919C46.5566 34.8656 50.3662 34.8787 54.1628 34.8787H54.1759ZM33.4199 49.0401C33.4199 51.4047 33.4199 53.7825 33.4199 56.1471C33.4199 56.7908 33.1703 57.5527 33.5512 58.0519C33.9453 58.5643 34.7073 57.9994 35.2984 58.1702C36.2968 58.4592 36.507 58.0125 36.4939 57.0929C36.4544 51.7726 36.4676 46.439 36.4939 41.1187C36.4939 40.3173 36.3756 39.8707 35.4429 40.0677C35.0751 40.1466 34.6547 40.1334 34.2869 40.0546C33.5381 39.8838 33.4199 40.2254 33.4199 40.8691C33.4461 43.6015 33.4199 46.3208 33.4199 49.0533V49.0401ZM73.2767 36.4814C75.129 36.4814 76.4689 35.1415 76.4558 33.2892C76.4558 31.4894 75.0502 30.1101 73.2242 30.1232C71.477 30.1232 70.0976 31.5289 70.0976 33.2892C70.0976 35.1415 71.4244 36.4814 73.2767 36.4814ZM34.9963 36.4814C36.8223 36.4814 38.2016 35.0758 38.1885 33.276C38.1622 31.5026 36.7172 30.1101 34.9174 30.1232C33.1571 30.1364 31.8172 31.5157 31.8172 33.3023C31.8172 35.1546 33.1703 36.4945 34.9963 36.4814ZM73.211 53.2176C74.0255 53.2176 74.8269 53.2045 75.6413 53.2176C76.2193 53.2307 76.4821 53.0206 76.4689 52.4294C76.4427 51.3653 76.4427 50.2881 76.4689 49.224C76.4689 48.6197 76.1931 48.4358 75.6282 48.4358C74.0781 48.449 72.5148 48.449 70.9646 48.4358C70.3472 48.4358 70.0713 48.6592 70.0845 49.2897C70.1108 50.3275 70.1108 51.3653 70.0845 52.4031C70.0713 53.06 70.3735 53.257 70.9778 53.2307C71.7266 53.2045 72.4754 53.2307 73.211 53.2307V53.2176ZM71.6478 42.3535C71.6872 45.0334 71.6872 45.0203 74.1175 44.8495C74.6429 44.8101 74.8794 44.6393 74.8794 44.0876C74.8663 43.0498 74.8268 41.9988 74.8794 40.961C74.9319 40.1334 74.6955 39.8181 73.8547 40.0415C73.1716 40.2122 72.1995 39.6605 71.8317 40.1728C71.4638 40.6852 71.6872 41.6047 71.6478 42.3535ZM74.8531 78.2562C74.8531 76.7849 74.8531 75.4187 74.8531 74.0656C74.8531 73.3694 74.3277 73.3431 73.8941 73.4482C73.1585 73.6321 71.963 72.8176 71.7397 73.9999C71.4901 75.3399 71.6872 76.7586 71.6872 78.2825C72.7775 77.6651 73.7759 77.7176 74.8531 78.2562Z" fill="#727272"/>
<path d="M29.0847 0C29.7809 0.551743 30.2801 1.19544 29.978 2.16756C29.6233 3.28418 28.6774 3.42869 27.7184 3.53378C23.1863 4.03298 19.0745 5.63566 15.4356 8.3681C9.43211 12.874 6.01656 18.9169 5.13639 26.3654C5.05757 26.996 4.93934 27.6003 4.40074 28.0075C3.79645 28.4673 3.12647 28.5067 2.46964 28.1652C1.72084 27.7711 1.45811 27.0748 1.5632 26.2735C2.79806 16.1976 7.76374 8.56515 16.5522 3.4681C19.7182 1.62896 23.16 0.6437 26.7332 0H29.0715H29.0847Z" fill="#727272"/>
<path d="M11.5871 26.1311C12.3228 20.4298 15.2785 15.7662 20.4281 12.5083C22.6088 11.129 24.9997 10.3539 27.5351 9.9598C27.5614 9.9598 27.6008 9.9598 27.6271 9.94667C28.9407 9.78903 29.8997 10.3933 30.0574 11.4705C30.2019 12.4821 29.4531 13.3359 28.1525 13.4936C26.6812 13.6644 25.2756 14.0453 23.9488 14.6628C19.1539 16.8829 16.2506 20.6006 15.2522 25.7896C15.1734 26.1705 15.134 26.5646 15.0552 26.9456C14.8319 27.944 14.0437 28.4957 13.0453 28.3644C12.152 28.2461 11.5346 27.4579 11.5871 26.1311V26.1311Z" fill="#727272"/>
<path d="M21.5957 27.8227C21.6745 23.6978 25.5761 19.875 29.7142 19.875C30.8834 19.875 31.6584 20.5318 31.711 21.5696C31.7635 22.6074 31.0804 23.3037 29.8981 23.4482C26.9949 23.816 25.471 25.2873 25.0769 28.1511C24.893 29.4385 24.2099 30.1479 23.2115 30.0691C22.1343 29.9903 21.5826 29.2021 21.6088 27.8227H21.5957Z" fill="#727272"/>
<path d="M34.9973 75.0104C32.186 75.0104 29.8608 72.7377 29.8477 69.9659C29.8346 67.1546 32.1992 64.8294 35.0499 64.8557C37.7954 64.882 40.055 67.1546 40.0681 69.9265C40.0681 72.764 37.848 75.0104 35.0104 75.0104H34.9973ZM34.9973 71.4372C35.8643 71.4241 36.4686 70.8198 36.4686 69.9659C36.4686 69.0989 35.7855 68.3895 34.9448 68.4026C34.1434 68.4157 33.4209 69.204 33.4472 70.0316C33.4734 70.8592 34.1434 71.4635 34.9973 71.4503V71.4372Z" fill="#727272"/>
</g>
<defs>
<clipPath id="clip0_148_591">
<rect width="100" height="100" fill="white"/>
</clipPath>
</defs>
</svg>
