<svg width="100" height="100" viewBox="0 0 100 100" fill="none" xmlns="http://www.w3.org/2000/svg">
<g clip-path="url(#clip0_317_1949)">
<g clip-path="url(#clip1_317_1949)">
<path d="M6.9968 69.1714C5.50688 69.1714 4.07542 69.1754 2.64397 69.1714C0.658086 69.1633 0.184299 68.7056 0.184299 66.746C0.182283 45.3105 0.182283 23.875 0.184299 2.4375C0.184299 0.576613 0.645994 0.125 2.51091 0.125C34.1944 0.125 65.8779 0.125 97.5613 0.125C99.4565 0.125 99.8637 0.532259 99.8637 2.43145C99.8637 23.8669 99.8637 45.3024 99.8637 66.7399C99.8637 68.7117 99.402 69.1673 97.4262 69.1734C96.2508 69.1754 95.0734 69.1855 93.898 69.1714C93.2589 69.1633 93.0089 69.2742 93.4141 69.9597C95.3053 73.1492 95.2468 76.3367 93.267 79.4657C92.892 80.0585 93.0815 80.1109 93.648 80.244C97.4706 81.1472 99.8456 84.1714 99.8597 88.1169C99.8718 91.2742 99.8678 94.4335 99.8597 97.5927C99.8557 99.2097 99.3819 99.6734 97.7407 99.6734C89.9786 99.6754 82.2186 99.6754 74.4565 99.6734C72.773 99.6734 72.3335 99.2238 72.3315 97.502C72.3274 94.377 72.3254 91.252 72.3315 88.127C72.3395 84.2036 74.7347 81.129 78.5371 80.248C79.2347 80.0867 79.2589 79.9597 78.898 79.3871C76.9403 76.2843 76.9242 73.127 78.7891 69.9798C79.1722 69.3347 79.0089 69.1673 78.3295 69.1734C76.7831 69.1855 75.2387 69.1875 73.6924 69.1694C72.3758 69.1532 71.7045 68.5907 71.7024 67.5464C71.7004 66.5101 72.3819 65.9173 73.6863 65.9153C80.8758 65.9032 88.0674 65.9093 95.2569 65.9073C96.2139 65.9073 96.693 65.4254 96.6944 64.4617C96.6944 44.5383 96.6944 24.6129 96.6944 4.68951C96.6944 3.76075 96.2387 3.29503 95.3274 3.29234C65.1903 3.29234 35.0512 3.29234 4.91414 3.29234C3.93699 3.29234 3.44774 3.79906 3.44639 4.8125C3.44639 24.6028 3.44639 44.3911 3.44639 64.1814C3.44639 65.332 4.00823 65.9073 5.13188 65.9073C25.1238 65.9073 45.1137 65.9073 65.1057 65.9073C65.4746 65.9073 65.8456 65.8952 66.2145 65.9153C67.3637 65.9758 68.0049 66.5605 68.0089 67.5343C68.0129 68.5181 67.3799 69.129 66.2327 69.1613C64.9908 69.1976 63.7468 69.1734 62.5028 69.1754C60.9242 69.1754 59.3436 69.1815 57.7649 69.1754C57.2004 69.1734 56.9141 69.246 57.3053 69.9052C59.1984 73.0806 59.2105 76.2661 57.2307 79.4133C56.8637 79.996 57.0795 80.1008 57.6339 80.254C61.6621 81.369 63.769 84.1774 63.771 88.373C63.771 91.4637 63.777 94.5544 63.769 97.6472C63.7649 99.2117 63.2952 99.6754 61.7105 99.6754C53.9162 99.6794 46.1198 99.6794 38.3254 99.6754C36.8113 99.6754 36.2508 99.1351 36.2428 97.623C36.2266 94.4314 36.2125 91.2399 36.2428 88.0484C36.2811 84.2016 38.7065 81.1452 42.4545 80.2581C43.1742 80.0867 43.148 79.9254 42.8093 79.379C40.9202 76.3427 40.8738 73.2379 42.6278 70.1351C43.0412 69.4052 43.0049 69.1673 42.1037 69.1694C35.3496 69.1875 28.5976 69.1835 21.8436 69.1754C21.1722 69.1754 20.7791 69.1835 21.2891 70.0282C23.1278 73.0605 23.0976 76.1472 21.3012 79.1855C20.8678 79.9173 20.9262 80.1189 21.775 80.3367C25.392 81.2601 27.6641 84.2016 27.6843 87.9012C27.7004 91.1593 27.6944 94.4194 27.6843 97.6774C27.6803 99.2137 27.2206 99.6714 25.7125 99.6794C24.6702 99.6855 23.6299 99.6976 22.5875 99.6714C21.6561 99.6472 21.0311 99.0585 20.9706 98.2097C20.9141 97.3952 21.5149 96.6976 22.4061 96.5444C22.4726 96.5323 22.5391 96.5323 22.6057 96.5242C23.8812 96.4005 24.519 95.6754 24.519 94.3488C24.519 92.2984 24.5331 90.25 24.5149 88.1996C24.4907 85.3266 22.5936 83.3448 19.7448 83.3125C15.8819 83.2681 12.017 83.2661 8.15406 83.3145C5.36172 83.3488 3.50083 85.2379 3.45244 88.0282C3.40809 90.5141 3.46051 93 3.42623 95.4859C3.41414 96.2843 3.71857 96.5302 4.49478 96.5242C8.02301 96.496 11.5512 96.5101 15.0774 96.5141C15.4444 96.5141 15.8315 96.4939 16.1762 96.5927C16.9807 96.8246 17.4262 97.3972 17.3577 98.2419C17.2891 99.0827 16.7952 99.6008 15.9303 99.6593C15.3274 99.6996 14.7206 99.6754 14.1158 99.6754C10.0835 99.6754 6.05123 99.6815 2.02099 99.6714C0.873812 99.6673 0.212524 99.1694 0.208492 98.1008C0.192363 94.375 -0.0757811 90.6351 0.323412 86.9254C0.69438 83.4657 3.01293 81.0544 6.40406 80.2298C6.79519 80.1351 7.27301 80.2097 6.8476 79.5383C4.74881 76.2258 4.79518 72.9012 6.87381 69.5887C6.9222 69.5121 6.92623 69.4093 6.98672 69.1774L6.9968 69.1714ZM86.0936 96.504C89.2831 96.504 92.4746 96.4839 95.6641 96.5181C96.4464 96.5262 96.7287 96.2843 96.7145 95.4818C96.6722 93.0645 96.7266 90.6452 96.6903 88.2278C96.648 85.3185 94.7065 83.3286 91.8335 83.3004C87.9041 83.2621 83.9746 83.2601 80.0472 83.3165C77.5553 83.3508 75.6641 85.2964 75.6359 87.7621C75.6057 90.3145 75.652 92.8669 75.6137 95.4194C75.6016 96.254 75.892 96.5282 76.7246 96.5181C79.8476 96.4798 82.9706 96.504 86.0936 96.504ZM50.1077 96.504C53.2629 96.504 56.4202 96.4839 59.5754 96.5181C60.3577 96.5262 60.6379 96.2843 60.6258 95.4818C60.5835 92.998 60.6359 90.5121 60.6016 88.0282C60.5653 85.3911 58.5795 83.3427 55.9605 83.3105C51.9988 83.2621 48.0371 83.2581 44.0754 83.3165C41.4161 83.3569 39.5694 85.3044 39.5452 87.9698C39.521 90.4536 39.5653 92.9395 39.525 95.4234C39.5109 96.2621 39.8113 96.5282 40.6379 96.5202C43.7932 96.4839 46.9504 96.506 50.1057 96.506L50.1077 96.504ZM55.4222 74.6089C55.4262 71.5262 53.0996 69.1936 50.023 69.1936C47.0492 69.1936 44.6299 71.5806 44.6097 74.5363C44.5895 77.5605 46.9908 79.998 50.0028 80.0061C53.0694 80.0161 55.4202 77.6754 55.4242 74.6069L55.4222 74.6089ZM13.9363 69.1956C10.9303 69.2036 8.51494 71.6472 8.5351 74.6613C8.55526 77.5988 11.0008 80.0081 13.9645 80.0081C16.9645 80.0081 19.4787 77.5282 19.4625 74.5827C19.4484 71.623 16.9484 69.1855 13.9343 69.1936L13.9363 69.1956ZM80.6944 74.5484C80.6843 77.6069 83.0411 79.998 86.0734 80.0081C89.1339 80.0202 91.5069 77.6593 91.5069 74.6048C91.5069 71.5907 89.1682 69.2177 86.1782 69.1976C83.1137 69.1774 80.7024 71.5282 80.6944 74.5484Z" fill="#727272"/>
<path d="M49.9685 62.9207C36.3939 62.9207 22.8193 62.9207 9.24475 62.9207C6.86571 62.9207 6.43023 62.4832 6.43023 60.0901C6.43023 43.1223 6.43023 26.1546 6.43023 9.18684C6.43023 8.75136 6.42015 8.30782 6.48668 7.8804C6.63588 6.92677 7.16612 6.37838 8.18628 6.38443C10.2024 6.39249 12.2185 6.37032 14.2347 6.39451C15.2609 6.40661 15.9585 7.0941 15.9383 7.99128C15.9181 8.88846 15.2246 9.51346 14.1742 9.53362C13.0653 9.55378 11.9544 9.59007 10.8496 9.52556C9.94837 9.47112 9.70241 9.81789 9.70644 10.6868C9.7387 15.7594 9.72257 20.834 9.72257 25.9066C9.72257 36.6929 9.72257 47.4772 9.72257 58.2635C9.72257 59.6223 9.7266 59.6284 11.0391 59.6284C37.0794 59.6284 63.1177 59.6243 89.158 59.6485C90.1742 59.6485 90.4685 59.3703 90.4665 58.3461C90.4363 42.5215 90.4443 26.6949 90.4443 10.8703C90.4443 9.54572 90.4403 9.54168 89.1097 9.54168C66.7992 9.54168 44.4887 9.54168 22.1782 9.54168C21.8093 9.54168 21.4383 9.55781 21.0693 9.52959C20.1782 9.46306 19.5492 8.81789 19.523 7.97717C19.4988 7.16265 20.146 6.47919 21.0331 6.40056C21.3335 6.37435 21.6379 6.38846 21.9403 6.38846C45.023 6.38846 68.1056 6.38846 91.1883 6.38846C93.1621 6.38846 93.5915 6.82193 93.5915 8.82797C93.5915 26.0316 93.5915 43.2332 93.5915 60.4368C93.5915 62.451 93.1218 62.9227 91.0895 62.9227C77.3798 62.9247 63.6722 62.9227 49.9625 62.9227L49.9685 62.9207Z" fill="#727272"/>
<path d="M39.6417 34.4752C39.6417 31.7192 39.6337 28.9651 39.6437 26.2091C39.6579 22.6667 43.172 20.4147 46.295 22.0861C51.5066 24.8744 56.674 27.7514 61.795 30.705C64.797 32.4369 64.7526 36.8704 61.7506 38.58C56.7002 41.455 51.6175 44.2736 46.5046 47.0357C43.7244 48.5397 40.5893 47.2171 39.7728 44.3401C39.6417 43.8764 39.6437 43.4107 39.6437 42.9409C39.6417 40.1183 39.6437 37.2958 39.6437 34.4732L39.6417 34.4752ZM42.7909 34.5921C42.7909 37.2433 42.7788 39.8966 42.795 42.5478C42.805 44.2817 43.7889 44.8784 45.2788 44.0538C50.0933 41.3885 54.9038 38.7151 59.7103 36.0337C61.1458 35.2333 61.1578 34.0216 59.7103 33.2111C54.9381 30.5377 50.1558 27.8804 45.3655 25.2393C43.797 24.3744 42.8071 24.9611 42.797 26.7373C42.7808 29.3562 42.7929 31.9732 42.7929 34.5921H42.7909Z" fill="#727272"/>
</g>
</g>
<defs>
<clipPath id="clip0_317_1949">
<rect width="100" height="100" fill="white"/>
</clipPath>
<clipPath id="clip1_317_1949">
<rect width="100" height="99.7984" fill="white"/>
</clipPath>
</defs>
</svg>
