<svg width="100" height="100" viewBox="0 0 100 100" fill="none" xmlns="http://www.w3.org/2000/svg">
<g clip-path="url(#clip0_214_3197)">
<g clip-path="url(#clip1_214_3197)">
<path d="M-0.00195312 71.4691C-0.00195312 69.7521 -0.00195312 68.0494 -0.00195312 66.3467C0.0552797 66.0606 0.112512 65.7744 0.184053 65.4882C1.44317 59.4931 4.77699 55.0719 10.2427 52.2961C12.718 51.0369 15.3651 50.4932 18.1122 50.4074C19.028 50.3788 19.3713 50.0211 19.2998 49.1626C19.2855 48.9336 19.2998 48.7047 19.2998 48.4758C19.3141 47.8319 19.028 47.5314 18.3555 47.5028C17.6401 47.4742 16.9103 47.374 16.2092 47.2453C5.80718 45.285 -0.703055 35.6842 1.34302 25.2822C1.80088 22.9786 2.7023 20.8323 4.04727 18.9007C4.60529 18.0995 5.46378 17.9278 6.1935 18.3999C6.92321 18.8578 7.10922 19.702 6.67998 20.5605C6.5512 20.818 6.3795 21.0756 6.23642 21.3188C4.36205 24.4237 3.7611 27.829 4.2762 31.3489C5.5067 39.6619 13.1187 45.2994 21.4603 44.2119C30.0023 43.0959 35.8401 34.9688 34.352 26.2694C32.9355 17.9707 24.3935 12.319 16.1091 14.1933C14.3349 14.594 12.6894 15.3094 11.1155 16.2251C10.2284 16.7402 9.32699 16.497 8.88344 15.7386C8.41127 14.966 8.65451 14.1361 9.52731 13.5495C9.94224 13.2776 10.3572 13.0344 10.8007 12.8054C13.0042 11.6608 15.3364 10.9454 17.8404 10.7737C19.1567 10.6878 19.2426 10.5877 19.3713 9.257C19.4286 8.69898 19.4286 8.14096 19.543 7.59725C20.4731 3.07586 24.2075 0.0282132 29.0151 0.013905C43.6094 -0.000403221 58.2038 -0.000403221 72.7982 0.013905C74.8013 0.013905 76.69 0.500384 78.3641 1.67366C81.054 3.56234 82.3847 6.19505 82.4705 9.44301C82.4991 10.3301 82.8282 10.6878 83.6724 10.7307C84.3878 10.7737 85.1175 10.8452 85.8186 10.974C94.7183 12.6194 101.872 20.818 100.742 31.0627C99.7548 40.0769 92.801 46.6443 83.701 47.4313C82.7424 47.5171 82.4705 47.8319 82.4848 48.7476C82.5277 50.2929 82.5134 50.3358 84.0444 50.4789C84.3735 50.5075 84.7026 50.5075 85.0317 50.5505C94.5895 51.9527 101.214 60.3373 100.871 69.6948C100.556 78.337 93.5737 85.9919 84.6024 87.065C82.5134 87.3082 82.4705 87.3225 82.5134 89.4545C82.5707 92.1301 81.984 94.5911 80.1955 96.6801C78.5644 98.5831 76.4324 99.5847 73.9857 99.971H27.7416C27.5127 99.9137 27.2981 99.8565 27.0692 99.8136C23.1773 99.0553 20.2585 96.2079 19.5144 92.3447C19.2712 91.0856 19.2283 89.8122 19.2998 88.5244C19.357 87.5515 18.9993 87.2224 18.0121 87.1938C12.3317 87.0221 7.65293 84.7471 4.00434 80.3687C1.8295 77.8076 0.656224 74.7456 -0.00195312 71.4691ZM50.8494 90.9425C57.6744 90.9425 64.4851 90.9425 71.3101 90.9425C71.3817 90.9425 71.4389 90.9425 71.5104 90.9425C73.07 90.9139 73.4993 90.499 73.5136 88.9537C73.5136 88.0952 73.4563 87.2367 73.5279 86.3925C73.628 85.348 73.2131 84.7471 72.3403 84.1747C65.873 79.9252 62.7395 72.0843 64.4994 64.7299C64.7999 63.4851 65.4867 62.8841 66.4167 63.0558C67.4183 63.2561 67.8332 64.0717 67.59 65.3451C67.2323 67.148 67.1035 68.9508 67.3324 70.8109C68.2482 78.337 75.345 85.3194 84.8743 83.8743C93.1158 82.6294 98.7675 74.7742 97.5657 66.4755C96.5641 59.5932 90.1683 53.7698 83.2145 53.5981C78.0922 53.4693 73.8856 55.2865 70.5947 59.2355C69.7934 60.1942 68.8777 60.3659 68.1337 59.7363C67.404 59.1211 67.4183 58.1767 68.1909 57.2181C69.4644 55.6156 70.9953 54.2706 72.7409 53.2118C73.3133 52.8541 73.5422 52.4391 73.5279 51.7667C73.4993 49.9924 73.4706 48.2182 73.5279 46.4583C73.5565 45.5712 73.2417 45.0561 72.4977 44.5553C66.1448 40.177 63.2832 34.1246 64.2848 26.4555C65.0002 20.9039 67.9334 16.64 72.6122 13.5924C73.2703 13.1631 73.5994 12.691 73.5136 11.9183C73.4706 11.5034 73.5136 11.0598 73.485 10.6449C73.3991 9.61471 72.9412 9.15684 71.9254 9.12823C70.5232 9.09961 69.1066 9.12823 67.6901 9.11392C67.1035 9.11392 66.8316 9.37147 66.6599 9.92949C65.9302 12.2474 64.5137 13.2776 62.067 13.2776C54.5838 13.2776 47.1149 13.2776 39.6318 13.2776C37.2566 13.2776 35.8258 12.2045 35.1247 9.94379C34.9673 9.45732 34.767 9.11392 34.1946 9.11392C32.6494 9.11392 31.1184 9.11392 29.5731 9.14254C29.1152 9.14254 28.7575 9.37147 28.5286 9.7721C27.9133 10.8738 28.4427 13.0344 29.4586 13.7641C35.7972 18.2998 38.6016 24.4094 37.4426 32.1644C36.6413 37.5157 33.7511 41.6221 29.2583 44.5983C28.6001 45.0275 28.3283 45.4997 28.3426 46.2723C28.3855 48.1467 28.4141 50.0068 28.3426 51.8811C28.2997 52.9685 28.6574 53.641 29.5302 54.3421C35.0245 58.7634 37.3997 64.5296 36.4696 71.5406C35.7972 76.5628 33.2932 80.5691 29.2583 83.6167C28.6144 84.1032 28.314 84.6183 28.3569 85.4195C28.4141 86.5356 28.3569 87.6516 28.3569 88.7677C28.3569 90.7422 28.5858 90.9711 30.5747 90.9711C37.3281 90.9711 44.0816 90.9711 50.8351 90.9711L50.8494 90.9425ZM82.399 44.3121C90.8122 44.3407 97.6944 37.5586 97.723 29.2169C97.7517 20.7751 90.941 13.8785 82.542 13.8642C74.0716 13.8499 67.1893 20.6177 67.1607 29.0166C67.1321 37.4442 73.9428 44.2835 82.3847 44.3121H82.399ZM18.241 84.046C26.8259 84.0746 33.5365 77.4642 33.5794 68.9365C33.608 60.509 26.7973 53.6267 18.3841 53.6124C9.91363 53.5981 3.04569 60.3516 3.01708 68.7648C2.98846 77.1923 9.78485 84.0173 18.241 84.046ZM50.9782 3.23325C43.5379 3.23325 36.0833 3.21894 28.6431 3.23325C25.2234 3.23325 22.5621 5.9375 22.5048 9.35716C22.4858 10.3778 22.9675 11.0074 23.95 11.2458C24.7035 11.4366 25.1089 11.1505 25.1662 10.3873C25.3522 7.66879 27.1979 5.90888 29.9022 5.86596C31.5047 5.83734 33.1215 5.85165 34.724 5.86596C36.6557 5.89457 37.8146 6.79599 38.158 8.69898C38.3297 9.67194 38.7876 10.0296 39.7319 10.0296C47.2151 10.0153 54.684 10.0153 62.1672 10.0296C63.0829 10.0296 63.5551 9.65763 63.6981 8.74191C64.0129 6.85322 65.1576 5.88027 67.0749 5.85165C68.5772 5.83734 70.0939 5.85165 71.5963 5.85165C74.7298 5.85165 76.4754 7.52571 76.6328 10.6306C76.6328 10.8881 76.5469 11.2601 76.8331 11.3317C77.5342 11.5034 78.1637 11.1457 78.8219 10.9597C79.2512 10.8452 79.2655 10.4446 79.2798 10.0726C79.5373 6.08058 76.8474 3.20463 72.8268 3.19033C65.5439 3.19033 58.261 3.19033 50.9925 3.19033L50.9782 3.23325ZM50.8494 96.7946C58.261 96.7946 65.6727 96.8089 73.07 96.7946C76.5898 96.7946 79.1939 94.1762 79.2655 90.642C79.2655 90.0125 79.2655 89.3972 79.2655 88.7677C79.2655 86.9791 79.2655 87.0078 77.5485 86.5642C76.8617 86.3925 76.5469 86.4927 76.6041 87.2653C76.6471 87.8806 76.6041 88.5101 76.6041 89.1397C76.6041 92.3304 74.787 94.1618 71.6106 94.1618C57.8032 94.1618 44.0101 94.1618 30.2027 94.1618C30.0023 94.1618 29.802 94.1618 29.616 94.1618C27.3839 94.0617 25.7242 92.6309 25.252 90.456C25.0517 89.5403 25.1376 88.6246 25.1232 87.7089C25.1089 85.9919 25.1232 86.0205 23.4492 86.4927C22.7338 86.693 22.4047 87.0364 22.4619 87.7947C22.5192 88.5817 22.4619 89.3686 22.4619 90.1556C22.4619 94.2334 25.0231 96.7946 29.0866 96.7946C36.3266 96.7946 43.5808 96.7946 50.8208 96.7946H50.8494ZM25.1376 49.1769C25.1376 48.5473 25.1376 47.9321 25.1376 47.3025C25.1376 46.9019 25.0231 46.7016 24.5509 46.7445C22.791 46.9019 22.4905 47.2023 22.4905 48.9479C22.4905 49.3772 22.4762 49.8064 22.4905 50.2214C22.5335 50.7794 24.4937 51.7667 24.9372 51.4662C25.1232 51.3374 25.1089 51.1228 25.1089 50.9368C25.1089 50.3501 25.1089 49.7635 25.1089 49.1626L25.1376 49.1769ZM76.6184 48.9336C76.6184 49.091 76.6184 49.2627 76.6184 49.4201C76.6471 51.4519 76.2178 51.409 78.6216 50.808C79.1367 50.6792 79.3227 50.3215 79.2512 49.8637C79.1224 48.9766 79.6661 47.9607 78.8219 47.188C78.779 47.1451 78.6931 47.1451 78.6359 47.1308C76.1892 46.5156 76.6471 46.4011 76.6041 48.5473C76.6041 48.6761 76.6041 48.8049 76.6041 48.9336H76.6184Z" fill="#727272"/>
<path d="M19.3321 39.4476C17.5007 39.4476 15.6549 39.4476 13.8235 39.4476C10.9189 39.419 9.01591 37.5303 8.98729 34.6401C8.97299 30.9629 8.97299 27.3 8.98729 23.6228C8.98729 20.7754 10.7043 18.8438 13.5516 18.758C17.4148 18.6435 21.2923 18.6435 25.1556 18.758C27.8741 18.8295 29.6197 20.6323 29.6913 23.3509C29.7771 27.1855 29.7914 31.0201 29.6913 34.8547C29.6054 37.702 27.6881 39.419 24.8408 39.4476C23.0093 39.4619 21.1636 39.4476 19.3321 39.4476ZM19.2749 21.9344C17.5007 21.9344 15.7408 21.9344 13.9665 21.9344C12.6359 21.9344 12.2209 22.3207 12.2066 23.6084C12.1923 27.2713 12.1923 30.9486 12.2066 34.6115C12.2066 35.8277 12.6073 36.214 13.8092 36.2283C17.4721 36.2426 21.1493 36.2426 24.8122 36.2283C26.0713 36.2283 26.4719 35.799 26.4862 34.5685C26.4862 30.9342 26.4862 27.3 26.4862 23.6514C26.4862 22.3779 26.0427 21.9344 24.7692 21.9344C22.9378 21.9344 21.1063 21.9344 19.2606 21.9344H19.2749Z" fill="#727272"/>
<path d="M64.2556 50.2502C64.041 55.2151 61.7374 59.1928 57.2303 61.6967C52.7232 64.2007 48.1589 63.9145 43.7806 61.2675C42.965 60.7667 42.2639 60.6236 41.4054 61.0099C40.876 61.2532 40.3037 61.4392 39.7314 61.5823C38.8299 61.8255 37.9571 61.7683 37.2704 61.0529C36.5692 60.3374 36.3689 59.479 36.7266 58.5203C36.8411 58.2055 36.927 57.8907 37.0557 57.5903C37.8999 55.6587 38.0859 53.7557 37.7139 51.6094C36.4977 44.4267 42.3784 37.3585 49.6756 36.7289C56.7295 36.1137 63.1825 41.1645 64.1268 48.2899C64.1984 48.8766 64.2127 49.4632 64.2556 50.2502V50.2502ZM50.9633 39.8195C50.4768 39.8624 49.976 39.8481 49.4896 39.934C43.151 41.0214 39.5167 46.6731 41.1479 52.9115C41.4054 53.8988 41.4197 54.8431 41.0334 55.7874C40.8331 56.2739 40.69 56.7747 40.504 57.2755C40.4325 57.4615 40.318 57.6618 40.4468 57.8335C40.6042 58.0481 40.8188 57.8907 40.9762 57.8335C42.5644 57.1038 43.8807 57.5473 45.2829 58.4917C48.9172 60.967 53.6532 60.7524 57.0443 58.1054C60.5498 55.3725 61.9377 50.8654 60.5212 46.7447C59.1047 42.6096 55.2844 39.8767 50.949 39.8338L50.9633 39.8195Z" fill="#727272"/>
<path d="M76.7033 68.9363C76.7033 67.1621 76.6747 65.4022 76.7033 63.6279C76.7319 61.2671 78.3631 60.3514 80.4091 61.5246C83.5426 63.3132 86.6618 65.116 89.7667 66.9331C91.6983 68.0635 91.7269 69.9665 89.7953 71.0825C86.6332 72.9283 83.4568 74.774 80.266 76.5912C78.3917 77.6643 76.7319 76.7056 76.689 74.5308C76.6461 72.6707 76.689 70.7963 76.689 68.922L76.7033 68.9363ZM79.937 69.0078C79.937 70.1239 79.937 71.2399 79.937 72.3559C79.937 72.8996 80.0944 73.1 80.6381 72.7852C82.5554 71.6548 84.487 70.5531 86.4329 69.4514C86.9194 69.1652 86.9766 68.9649 86.4472 68.6501C84.5156 67.5484 82.584 66.4323 80.6667 65.302C80.0514 64.9443 79.937 65.2161 79.9513 65.7742C79.9513 66.8616 79.9513 67.9347 79.9513 69.0221L79.937 69.0078Z" fill="#727272"/>
<path d="M79.6252 35.2264C79.6252 33.8814 79.6109 32.5365 79.6252 31.1915C79.6395 30.4761 79.3677 30.1613 78.6523 30.2042C78.1944 30.2328 77.7365 30.2328 77.2787 30.1756C76.3916 30.0755 75.7906 29.4316 75.8049 28.616C75.8049 27.8005 76.4202 27.1852 77.3073 27.0993C77.3788 27.0993 77.4361 27.0993 77.5076 27.0993C78.9289 27.0326 79.6395 26.2981 79.6395 24.8959C79.6395 24.1805 79.6395 23.4508 79.6395 22.7353C79.6968 20.3888 81.5711 18.5144 83.9177 18.4572C85.0623 18.4286 86.207 18.4429 87.3517 18.4572C88.4534 18.4715 89.1402 19.1011 89.1259 20.0025C89.1116 20.9039 88.4105 21.5192 87.323 21.5335C86.4073 21.5621 85.4916 21.5335 84.5759 21.5335C83.2881 21.5621 82.773 22.0486 82.7444 23.3077C82.7301 24.2234 82.773 25.1391 82.7301 26.0548C82.7015 26.8418 83.0306 27.128 83.7889 27.0707C84.2182 27.0421 84.6474 27.0564 85.0623 27.085C85.9351 27.1566 86.4502 27.6431 86.5218 28.5159C86.579 29.3457 86.0067 30.0182 85.1339 30.1327C84.676 30.1899 84.2182 30.1899 83.7603 30.1613C82.9877 30.1041 82.7301 30.4618 82.7301 31.2058C82.7587 33.7956 82.7301 36.3854 82.7301 38.9752C82.7301 39.5904 82.63 40.1627 82.1005 40.5491C81.6141 40.9211 81.0704 40.9783 80.5266 40.7208C79.94 40.4489 79.6395 39.9481 79.6395 39.3042C79.6395 37.9307 79.6395 36.5571 79.6395 35.1692L79.6252 35.2264Z" fill="#727272"/>
<path d="M10.4292 72.5134C7.53895 69.8807 6.96662 66.7329 7.6391 63.2274C7.82511 62.2688 8.12558 61.3387 9.1987 61.024C10.2289 60.7092 11.0301 61.167 11.7312 61.9254C12.5468 62.8125 13.5627 63.3848 14.7074 63.7711C15.294 63.9715 15.5945 63.8427 15.8234 63.2417C17.2971 59.6647 20.5737 58.5486 23.8932 60.4803C24.4942 60.8237 25.0665 60.8523 25.6674 60.609C26.7119 60.1941 27.6706 60.2942 28.5005 61.0812C29.316 61.8538 29.316 62.8268 29.0871 63.8284C28.9011 64.6296 28.6722 65.4309 28.2 66.1034C27.3701 67.2766 26.9409 68.5787 26.4544 69.9094C24.6945 74.8457 20.9887 77.321 15.9379 78.0221C14.3926 78.2367 12.8616 78.1795 11.3449 77.8361C11.0588 77.7646 10.7726 77.693 10.5007 77.5929C8.98407 77.0491 8.24005 76.0905 8.19712 74.7455C8.13989 73.3004 9.12716 72.8568 10.4435 72.5134H10.4292ZM13.3767 74.8457C16.8679 75.2606 21.9759 73.8155 23.5498 68.6932C23.9648 67.3196 24.2795 65.9174 25.3097 64.8156C25.4671 64.6439 25.6388 64.4007 25.51 64.0144C24.1508 64.2147 22.9632 63.8284 21.8042 62.9842C20.6739 62.1686 19.057 63.0414 18.7995 64.4293C18.7423 64.787 18.7709 65.1447 18.7423 65.5024C18.6421 66.6757 18.0698 67.2051 16.9108 67.2337C15.5086 67.2766 14.1636 67.0334 12.8902 66.4611C12.1176 66.1177 11.3879 65.7027 10.5294 65.2592C10.4149 67.5199 11.2448 69.2083 13.0047 70.4674C13.4339 70.7678 13.9061 70.9968 14.364 71.2543C15.6946 72.0413 15.7232 73.3433 14.4212 74.2161C14.1064 74.4307 13.7773 74.6168 13.391 74.8457H13.3767Z" fill="#727272"/>
<path d="M52.4098 6.65271C52.4098 7.53982 51.7373 8.18368 50.8502 8.16938C50.0347 8.15507 49.3622 7.48258 49.3479 6.68132C49.3336 5.83714 50.0347 5.12173 50.8788 5.10742C51.7373 5.10742 52.4098 5.77991 52.4098 6.66702V6.65271Z" fill="#727272"/>
<path d="M19.3269 33.5523C16.8086 33.5523 14.8627 31.5778 14.877 29.0453C14.8913 26.5986 16.8802 24.6097 19.3126 24.5811C21.745 24.5525 23.8483 26.6415 23.8483 29.0739C23.8483 31.5349 21.8165 33.5523 19.3269 33.5523V33.5523ZM19.4413 27.8291C18.5829 27.8434 17.9676 28.4729 18.0105 29.1597C18.0391 29.8322 18.7402 30.4761 19.3984 30.4332C20.0995 30.3902 20.6575 29.7464 20.6003 29.0166C20.5431 28.2297 20.0709 27.8577 19.4413 27.8291V27.8291Z" fill="#727272"/>
<path d="M45.9553 48.4618C45.941 47.5461 46.2272 46.5445 46.7852 45.6431C47.286 44.8418 48.1444 44.5986 48.9028 44.9992C49.6182 45.3712 49.8757 46.1582 49.561 47.031C49.4894 47.2456 49.3606 47.4459 49.2891 47.6605C49.2033 47.9324 49.0745 48.2329 49.0888 48.519C49.2176 50.1358 50.7485 50.2932 51.7501 50.98C52.4369 51.4522 53.138 51.1231 53.6817 50.5365C53.925 50.2789 54.1396 49.9641 54.3971 49.7209C54.9981 49.1629 55.6849 49.0484 56.3574 49.5349C57.0585 50.05 57.2302 50.7368 56.8438 51.5237C55.6419 54.0706 52.5514 55.0722 50.0904 53.6986C49.3177 53.2693 48.5594 52.8115 47.8297 52.3107C46.5562 51.4236 45.8981 50.2074 45.9267 48.4761L45.9553 48.4618Z" fill="#727272"/>
</g>
</g>
<defs>
<clipPath id="clip0_214_3197">
<rect width="100" height="100" fill="white"/>
</clipPath>
<clipPath id="clip1_214_3197">
<rect width="100.873" height="100" fill="white"/>
</clipPath>
</defs>
</svg>
