<?xml version="1.0" encoding="utf-8"?>
<!-- Generator: Adobe Illustrator 27.4.0, SVG Export Plug-In . SVG Version: 6.00 Build 0)  -->
<svg version="1.1" id="Layer_1" xmlns="http://www.w3.org/2000/svg" xmlns:xlink="http://www.w3.org/1999/xlink" x="0px" y="0px"
	 viewBox="0 0 50 45" style="enable-background:new 0 0 50 45;" xml:space="preserve">
<style type="text/css">
	.st0{fill:#FFFFFF;}
</style>
<g id="_x31_8nVoV.tif">
	<g>
		<path class="st0" d="M13.6,42.7c0-4.9,0-9.8,0-14.7c0-1.2,0.7-2,2-2.2c0-2.2,0-4.4,0-6.7c0.5,0,0.9,0,1.3,0c0,2.2,0,4.4,0,6.7
			c0.2,0,0.3,0,0.5,0c1.6,0,3.1,0,4.7,0c0.8,0,1,0.2,0.9,1c-0.1,1.5-0.9,2.6-2.2,3.3c-0.1,0.1-0.2,0.1-0.3,0.2
			c2.1,2.1,2.2,2.3,2.6,4.9c1.7,0,3.5,0,5.2,0c-0.5-1.3-0.1-2.4,1.1-3.1c-0.5-1-0.4-2,0.3-2.8c-0.2-0.5-0.5-0.9-0.6-1.3
			c-0.3-1.5,0.8-2.8,2.4-2.8c0.5,0,1,0,1.6,0c0-3.2,0-6.3,0-9.4c0.5,0,0.9,0,1.3,0c0,3.1,0,6.2,0,9.4c0.5,0,0.9,0,1.3,0
			c1.5,0,2.6,1.2,2.4,2.7c-0.1,0.5-0.4,0.9-0.6,1.4c0.5,0.5,0.7,1.2,0.6,2c-0.1,0.8-0.6,1.4-1.3,1.8c0.4,0.8,0.5,1.6,0,2.3
			c-0.4,0.8-1.1,1.1-2,1.3c0.3,0.7,0.3,1.3,0,2c-0.5,1-1.2,1.4-2.3,1.4c-0.9,0-1.9,0-2.9,0c0,0.9,0,1.8,0,2.7c-0.4,0-0.9,0-1.3,0
			c0-0.9,0-1.8,0-2.6c-2-0.5-2.5-1.3-2.2-3.4c-0.1,0-0.3,0-0.4,0c-1.1,0-2.2,0-3.4,0c-0.5,0-0.7-0.2-0.8-0.7c0-0.3,0-0.5,0-0.8
			c-0.1-2.1-1.6-3.9-3.7-4.4c-0.4-0.1-0.7-0.1-1.1-0.1c-0.4-0.1-0.6-0.3-0.6-0.6c0-0.4,0.2-0.6,0.6-0.7c0.1,0,0.3,0,0.4,0
			c0.7,0,1.3,0,2,0c1.1-0.1,2.1-1,2.3-2c-0.1,0-0.3,0-0.4,0c-1.7,0-3.5,0-5.2,0c-0.8,0-1,0.2-1,1c0,4.8,0,9.7,0,14.5
			C14.5,42.7,14,42.7,13.6,42.7z M30.5,38.7c0.7,0,1.4,0,2.1,0c0.7,0,1.1-0.4,1.1-1c0-0.6-0.5-1-1.1-1c-1.4,0-2.8,0-4.1,0
			c-0.7,0-1.1,0.4-1.1,1c0,0.6,0.5,1,1.1,1C29.2,38.7,29.9,38.7,30.5,38.7z M33.6,28.6c0.7,0,1.3,0,2,0c0.7,0,1.2-0.4,1.2-1
			c0-0.6-0.5-1-1.2-1c-1.4,0-2.7,0-4.1,0c-0.7,0-1.2,0.4-1.2,1c0,0.6,0.5,1,1.2,1C32.2,28.6,32.9,28.6,33.6,28.6z M32.6,35.3
			c0.7,0,1.4,0,2.1,0c0.6,0,1.1-0.4,1.1-1c0-0.6-0.4-1-1.1-1c-1.4,0-2.8,0-4.3,0c-0.6,0-1.1,0.5-1.1,1c0,0.6,0.5,1,1.1,1
			C31.2,35.3,31.9,35.3,32.6,35.3z M33.6,31.9C33.6,31.9,33.6,31.9,33.6,31.9c0.7,0,1.4,0,2.1,0c0.7,0,1.1-0.4,1.1-1
			c0-0.6-0.5-1-1.1-1c-1.4,0-2.8,0-4.2,0c-0.2,0-0.3,0-0.5,0.1c-0.4,0.2-0.7,0.6-0.6,1.1c0.1,0.5,0.5,0.8,0.9,0.9
			C32.1,31.9,32.8,31.9,33.6,31.9z"/>
		<path class="st0" d="M45.2,12.8c-0.3,0.4-0.5,0.8-0.8,1.2c-0.4,0.4-0.9,0.4-1.4,0.4c-2.6,0-5.1,0-7.7,0c-1.4,0-2.2-0.8-2.2-2.2
			c0-2.6,0-5.1,0-7.7c0-1.4,0.8-2.2,2.2-2.2c2.4,0,4.9,0,7.3,0c1.3,0,2.2,0.4,2.6,1.7C45.2,6.9,45.2,9.8,45.2,12.8z M34.4,9
			c0,0.2,0,0.3,0,0.5c0,0.9,0,1.7,0,2.6c0,0.8,0.2,1,1,1c2.5,0,4.9,0,7.4,0c0.1,0,0.3,0,0.4,0c0.4,0,0.6-0.3,0.6-0.6
			c0-1.1,0-2.3,0-3.4c-0.4,0-0.7,0-1,0c-0.3,0-0.4,0.1-0.5,0.4c-0.5,1.7-2.3,2.7-4,2.2c-1.2-0.3-2-1.1-2.4-2.3
			c0-0.1-0.2-0.3-0.2-0.3C35.3,9,34.9,9,34.4,9z M34.4,7.7c0.4,0,0.7,0,1.1,0c0.3,0,0.4-0.1,0.4-0.3c0.1-0.3,0.2-0.6,0.4-0.9
			c0.8-1.2,1.9-1.7,3.3-1.5c1.4,0.2,2.2,1,2.7,2.3c0,0.1,0.2,0.3,0.2,0.3c0.4,0,0.8,0,1.2,0c0-0.2,0-0.3,0-0.4c0-0.9,0-1.7,0-2.6
			c0-0.8-0.2-1-1-1c-1.8,0-3.5,0-5.3,0c-0.8,0-1.6,0-2.4,0c-0.5,0-0.8,0.2-0.8,0.7C34.4,5.4,34.4,6.5,34.4,7.7z M39.2,10.4
			c1.1,0,2-0.9,2-2c0-1.1-0.9-2-2-2c-1.1,0-2,0.9-2,2C37.1,9.5,38,10.4,39.2,10.4z"/>
		<path class="st0" d="M25,9.7c1.3,0,2.6,0,3.8,0c1.4,0,2.2,0.8,2.2,2.2c0,2.6,0,5.1,0,7.7c0,1.4-0.8,2.2-2.2,2.2
			c-2.6,0-5.2,0-7.8,0c-1.4,0-2.2-0.8-2.2-2.2c0-2.6,0-5.2,0-7.7c0-1.4,0.8-2.2,2.2-2.2C22.4,9.7,23.7,9.7,25,9.7z M25,11.1
			c-1.3,0-2.5,0-3.8,0c-0.7,0-0.9,0.2-0.9,0.9c0,2.5,0,5.1,0,7.6c0,0.7,0.2,0.9,0.9,0.9c2.5,0,5.1,0,7.6,0c0.7,0,0.9-0.2,0.9-0.9
			c0-2.5,0-5.1,0-7.6c0-0.7-0.2-0.9-0.9-0.9C27.5,11.1,26.3,11.1,25,11.1z"/>
		<path class="st0" d="M10.9,5.7c1.3,0,2.6,0,3.8,0c1.4,0,2.2,0.8,2.2,2.2c0,2.6,0,5.1,0,7.7c0,1.4-0.8,2.2-2.2,2.2
			c-2.6,0-5.2,0-7.7,0c-1.4,0-2.2-0.8-2.2-2.2c0-2.6,0-5.2,0-7.7c0-1.4,0.8-2.2,2.2-2.2C8.3,5.7,9.6,5.7,10.9,5.7z M10.9,16.4
			c1.3,0,2.5,0,3.8,0c0.7,0,0.9-0.2,0.9-0.9c0-2.5,0-5.1,0-7.6c0-0.7-0.2-0.9-0.9-0.9C12.1,7,9.6,7,7,7C6.4,7,6.1,7.2,6.1,7.9
			c0,2.5,0,5.1,0,7.6c0,0.7,0.2,0.9,0.9,0.9C8.3,16.4,9.6,16.4,10.9,16.4z"/>
		<path class="st0" d="M31.7,5.7c0,0.4,0,0.9,0,1.3c-4.5,0-8.9,0-13.4,0c0-0.4,0-0.8,0-1.3C22.8,5.7,27.2,5.7,31.7,5.7z"/>
		<path class="st0" d="M25.6,31.2c-0.4,0-0.9,0-1.3,0c0-0.4,0-0.9,0-1.3c0.4,0,0.9,0,1.3,0C25.6,30.4,25.6,30.8,25.6,31.2z"/>
		<path class="st0" d="M27,15.1c0,0.5,0,0.9,0,1.4c-0.4,0-0.9,0-1.3,0c0,0.9,0,1.8,0,2.7c-0.5,0-0.9,0-1.4,0c0-0.9,0-1.8,0-2.7
			c-0.5,0-0.9,0-1.3,0c0-0.5,0-0.9,0-1.4c0.4,0,0.9,0,1.3,0c0-0.6,0-1.1,0-1.7c0-0.8,0.2-1,1-1c0.5,0,1,0,1.5,0c0,0,0.1,0,0.1,0
			c0,0.4,0,0.8,0,1.3c-0.4,0-0.8,0-1.3,0c0,0.5,0,0.9,0,1.3C26.1,15.1,26.5,15.1,27,15.1z"/>
		<path class="st0" d="M8.2,12.8c-0.6-0.9-0.8-1.8-0.8-2.7c0-0.3,0.1-0.6,0.4-0.7c0.3-0.2,0.5,0,0.8,0.1c0.5,0.3,1,0.5,1.6,0.8
			c0-0.2,0.1-0.3,0.1-0.4c0.1-0.8,0.8-1.4,1.5-1.5c0.8-0.1,1.6,0.3,1.9,1c0.1,0.4,0.4,0.6,0.7,0.8c0.6,0.4,0.6,0.8,0.1,1.3
			c-0.3,0.3-0.6,0.7-0.8,1.2c-0.3,1.1-1.2,1.7-2.4,1.7c-1,0-2.1,0-3.1,0c-0.3,0-0.6-0.1-0.7-0.4c-0.1-0.3,0-0.6,0.2-0.8
			C7.9,13,8.1,12.9,8.2,12.8z M9.9,13.1c0.5,0,1,0,1.6,0c0.5,0,0.9-0.3,1-0.8c0.1-0.5,0.2-0.9,0.5-1.1c-0.2-0.4-0.3-0.7-0.5-1
			c-0.1-0.2-0.3-0.3-0.5-0.4c-0.3,0-0.4,0.2-0.4,0.4c0,0.2,0,0.4,0,0.6c0,0.6-0.3,0.8-0.9,0.8c-0.1,0-0.3,0-0.4,0
			c-0.5-0.1-0.9-0.2-1.4-0.3C9.2,11.9,9.6,12.4,9.9,13.1z"/>
	</g>
</g>
</svg>
