<svg width="147" height="48" viewBox="0 0 147 48" fill="none" xmlns="http://www.w3.org/2000/svg">
<g clip-path="url(#clip0_1_3286)">
<path d="M85.3803 47.38C85.3803 47.38 85.3803 47.31 85.3803 47.28C85.8703 46.83 86.9003 46.83 87.3903 47.28C87.3903 47.31 87.3903 47.35 87.3803 47.38H85.3803Z" fill="#C9C9C9"/>
<path d="M146.51 34.98C146.51 34.98 146.44 34.99 146.4 34.99C145.96 34.49 145.96 33.6 146.4 33.11C146.44 33.11 146.47 33.11 146.51 33.12V34.98Z" fill="#B8B8B8"/>
<path d="M8.46031 46.87C5.84031 46.77 3.32031 46.48 0.830312 45.89C0.350313 45.78 0.160312 45.61 0.340313 45.09C0.530313 44.55 0.660312 43.98 0.770312 43.41C0.860312 42.9 1.07031 42.77 1.61031 42.85C4.29031 43.27 6.99031 43.53 9.71031 43.41C11.1603 43.35 12.6003 43.19 13.9403 42.56C14.7503 42.18 15.4203 41.65 15.7103 40.76C16.0703 39.64 15.7003 38.8 14.6303 38.32C13.8303 37.96 12.9603 37.84 12.1103 37.7C10.5403 37.44 8.94031 37.34 7.41031 36.86C3.97031 35.79 3.05031 32.32 5.53031 29.66C6.66031 28.44 8.11031 27.75 9.67031 27.27C12.8203 26.31 16.0603 26.18 19.3203 26.34C20.8303 26.42 22.3303 26.58 23.8303 26.76C24.3203 26.82 24.3603 26.99 24.1903 27.39C23.9603 27.96 23.7303 28.54 23.5603 29.14C23.4403 29.57 23.2003 29.67 22.7903 29.63C21.1603 29.48 19.5303 29.38 17.8903 29.42C15.8803 29.47 13.8703 29.54 11.9303 30.14C11.4503 30.29 11.0003 30.49 10.5903 30.78C9.45031 31.58 9.54031 32.88 10.8003 33.48C11.9803 34.05 13.2703 34.12 14.5303 34.34C15.5703 34.52 16.6203 34.64 17.6303 34.95C17.8103 35 17.9903 35.05 18.1703 35.11C20.9303 36.03 21.9503 37.84 21.3203 40.67C20.7003 43.46 18.7503 44.95 16.2203 45.85C13.6903 46.75 11.0403 46.9 8.45031 46.86L8.46031 46.87Z" fill="#B2B2B2"/>
<path d="M131.93 19.51C131.62 19.07 131.3 18.63 130.98 18.18C130.35 17.29 129.7 16.4 129.09 15.49C128.84 15.11 128.65 15.11 128.33 15.41C127.05 16.61 125.75 17.8 124.45 18.98C124.34 19.08 124.24 19.23 123.98 19.24C124.22 18.41 124.44 17.62 124.66 16.83C124.95 15.82 125.23 14.8 125.55 13.8C125.69 13.37 125.63 13.17 125.13 13.11C123.67 12.94 122.22 12.72 120.76 12.52C120.58 12.5 120.38 12.54 120.22 12.3C120.59 12.08 120.96 11.86 121.33 11.65C122.57 10.94 123.8 10.22 125.06 9.54C125.45 9.33 125.54 9.13 125.35 8.72C124.74 7.34 124.17 5.95 123.58 4.55C123.5 4.37 123.37 4.2 123.4 3.9C124.06 4.19 124.69 4.48 125.32 4.76C126.19 5.15 127.06 5.54 127.91 5.95C128.28 6.12999 128.45 6.05 128.62 5.69C129.35 4.14 130.1 2.58999 130.85 1.05C130.95 0.829995 131.01 0.579995 131.29 0.369995C131.47 1.7 131.65 2.97 131.82 4.24C131.89 4.72999 131.97 5.22 132.01 5.71C132.05 6.19 132.25 6.22 132.65 6.07C134.11 5.54 135.58 5.04 137.04 4.53C137.25 4.46 137.46 4.4 137.69 4.32C137.74 4.59 137.57 4.7 137.46 4.83C136.42 6.17 135.39 7.52 134.32 8.83C133.94 9.29 133.9 9.55 134.44 9.93C135.55 10.72 136.61 11.59 137.69 12.43C137.83 12.54 137.96 12.67 138.2 12.87C137.76 12.92 137.44 12.97 137.13 12.99C135.79 13.09 134.45 13.22 133.1 13.27C132.48 13.3 132.32 13.55 132.31 14.14C132.27 15.81 132.16 17.48 132.07 19.15C132.07 19.25 132.09 19.36 131.91 19.46L131.93 19.51Z" fill="#B2B2B2"/>
<path d="M109.23 40.02C104.88 42.97 100.12 44.72 94.7403 44.94C94.9103 44.63 95.1303 44.57 95.3103 44.46C99.1503 42.25 102.78 39.73 106.24 36.96C106.37 36.86 106.51 36.77 106.57 36.6C106.6 36.37 106.7 36.19 106.89 36.03C107.61 35.42 108.36 34.84 109.05 34.2C109.34 33.93 109.68 33.74 110.09 33.76C113.83 30.43 117.39 26.92 120.72 23.18C121.5 22.3 122.27 21.4 123.05 20.52C123.21 20.34 123.33 20.11 123.7 19.96C121.47 26.59 118.07 32.37 112.95 37.07C112.98 37.43 112.82 37.67 112.53 37.89C111.8 38.47 111.1 39.07 110.35 39.63C110.01 39.89 109.65 40.04 109.22 40.01L109.23 40.02Z" fill="#656464"/>
<path d="M109.23 40.02C110.57 39.17 111.82 38.19 112.96 37.08C114.21 38.65 115.63 40.07 116.99 41.54C118.53 43.21 120.1 44.85 121.66 46.5C121.54 46.75 121.33 46.66 121.16 46.66C119.46 46.66 117.76 46.66 116.07 46.67C115.68 46.67 115.41 46.52 115.15 46.26C113.25 44.41 111.47 42.46 109.73 40.46C109.58 40.29 109.47 40.08 109.23 40.02Z" fill="#B2B2B2"/>
<path d="M110.1 33.77C109.11 34.59 108.13 35.42 107.14 36.24C106.97 36.38 106.77 36.49 106.58 36.61C104.58 34.24 102.79 31.71 101.05 29.14C100.52 28.35 100.02 27.54 99.5003 26.75C99.2703 26.41 99.3503 26.3 99.7503 26.3C100.97 26.31 102.19 26.32 103.41 26.3C103.76 26.3 103.93 26.47 104.11 26.71C105.8 28.99 107.64 31.14 109.5 33.28C109.67 33.48 109.79 33.74 110.1 33.78V33.77Z" fill="#B2B2B2"/>
<path fill-rule="evenodd" clip-rule="evenodd" d="M44.0603 27.11C42.3603 26.35 40.5603 26.13 38.9603 26.11V26.12C36.8903 26.13 35.0903 26.35 33.3503 26.95C28.5003 28.63 25.2503 31.83 24.1903 36.96C23.2503 41.48 25.4703 45.05 29.9303 46.28C32.5203 46.99 35.1303 46.94 37.7403 46.38C43.5903 45.12 47.6803 40.92 48.5403 35.31C49.1003 31.66 47.4303 28.61 44.0603 27.11ZM32.2203 42.86C33.0003 43.12 33.7903 43.21 34.6103 43.22L34.6003 43.21C34.7728 43.192 34.9439 43.1792 35.1143 43.1665C35.418 43.1438 35.7192 43.1213 36.0203 43.07C41.2603 42.16 43.4303 37.13 43.1003 33.61C42.9103 31.49 41.4903 30.01 39.3803 29.63C38.3703 29.45 37.3603 29.47 36.3603 29.69C31.2703 30.8 29.0803 35.95 29.4903 39.58C29.6803 41.24 30.6303 42.33 32.2203 42.86Z" fill="#B2B2B2"/>
<path fill-rule="evenodd" clip-rule="evenodd" d="M85.3603 47.28H87.3703V47.29C89.7903 47.12 92.0503 46.46 94.0803 45.1C93.7236 45.1079 93.3677 45.1193 93.0122 45.1307C92.0225 45.1625 91.036 45.1941 90.0503 45.15C88.1303 45.07 86.2503 44.84 84.4803 44.04C82.0603 42.95 80.8303 41.08 80.8503 38.42C80.8603 37.69 80.8803 37.68 81.5803 37.8C84.4203 38.28 87.2603 38.42 90.1103 37.96C92.3203 37.61 94.4203 36.95 96.1803 35.48C98.9603 33.17 99.1103 28.28 94.6703 26.75C94.3203 26.63 93.9603 26.51 93.6003 26.43C90.7203 25.81 87.8603 25.94 85.0703 26.83C79.8203 28.5 76.5203 31.94 75.7303 37.52C75.2203 41.13 76.8203 44.21 80.0503 45.91C81.7103 46.78 83.5003 47.17 85.3603 47.28ZM82.1303 34.78C83.4403 34.98 84.7503 35.11 86.2303 35.1L86.2403 35.11C86.9203 35.14 87.7403 35.07 88.5603 34.96C89.8303 34.78 91.0903 34.54 92.1503 33.73C93.0703 33.03 93.4603 32.09 93.2003 30.95C92.9603 29.87 92.1103 29.46 91.1203 29.27C87.3603 28.55 83.3003 30.71 81.7903 34.19C81.6003 34.61 81.7303 34.72 82.1303 34.78Z" fill="#B2B2B2"/>
<path fill-rule="evenodd" clip-rule="evenodd" d="M54.8603 45.24C56.7503 46.26 58.8003 46.57 60.9203 46.5V46.49C61.0939 46.49 61.2674 46.4945 61.4406 46.4989C61.7862 46.5078 62.1307 46.5166 62.4703 46.49C64.6003 46.31 66.6303 45.8 68.4403 44.61C70.9903 42.94 72.4103 40.48 73.0503 37.59C73.6446 34.9121 74.1539 32.2115 74.6636 29.5096C74.8314 28.6197 74.9993 27.7295 75.1703 26.84C75.7203 24.03 76.2503 21.21 76.7803 18.39C76.7887 18.3483 76.8023 18.3024 76.8163 18.2551C76.8865 18.019 76.9669 17.7483 76.4503 17.79C75.1703 17.89 73.8903 17.97 72.6103 18.02C72.0903 18.04 71.9103 18.27 71.8203 18.75C71.5772 20.0582 71.3207 21.3597 71.0643 22.6604C70.8779 23.6063 70.6913 24.5527 70.5103 25.5C70.4403 25.88 70.3003 26.01 69.9003 25.99C69.1087 25.94 68.317 25.9247 67.5254 25.9094C67.367 25.9064 67.2087 25.9033 67.0503 25.9C64.4703 25.84 61.9303 26.01 59.4403 26.79C53.9903 28.51 50.5403 33.27 50.8203 38.85C50.9603 41.71 52.3303 43.86 54.8603 45.24ZM59.3303 42.69C59.9403 42.83 60.5503 42.89 61.0003 42.9L60.9903 42.89C64.7603 42.93 67.0603 41.2 67.8803 37.7C68.264 36.0584 68.5883 34.405 68.913 32.7497C69.1045 31.7731 69.2962 30.7959 69.5003 29.82C69.5803 29.43 69.4803 29.31 69.1003 29.28C67.5103 29.14 65.9203 29.11 64.3303 29.28C58.2003 29.94 56.0803 34.29 56.0703 38.73C56.0703 40.84 57.2803 42.22 59.3303 42.69Z" fill="#B2B2B2"/>
<path fill-rule="evenodd" clip-rule="evenodd" d="M146.4 34.99V33.11V33.1C146.07 30.18 144.49 28.17 141.83 27.03C138.79 25.72 135.61 25.75 132.44 26.43C126.7 27.66 122.58 31.78 121.59 37.21C120.81 41.52 122.78 44.98 126.95 46.3C131.15 47.64 135.28 47.2 139.18 45.22C143.35 43.1 145.83 39.69 146.4 34.99ZM133.71 29.71C129.88 30.65 127.02 34.47 126.97 38.73L126.96 38.74C126.94 41.09 128.03 42.62 130.16 43.14C131.87 43.56 133.57 43.46 135.22 42.83C139.36 41.26 141 37.04 140.87 34.01C140.76 31.51 139.23 29.86 136.79 29.54C135.76 29.41 134.73 29.46 133.71 29.71Z" fill="#B2B2B2"/>
</g>
<defs>
<clipPath id="clip0_1_3286">
<rect width="146.52" height="47.39" fill="white"/>
</clipPath>
</defs>
</svg>
