<svg width="231" height="127" viewBox="0 0 231 127" fill="none" xmlns="http://www.w3.org/2000/svg">
<g clip-path="url(#clip0_313_1022)">
<path d="M51.8479 41.3667C51.8113 41.3812 51.774 41.3936 51.736 41.4038C51.2311 41.4644 51.2311 41.4644 51.0164 41.0059C50.8923 40.7413 50.8923 40.742 50.5886 40.7663C50.3418 40.7855 50.0951 40.8069 49.8498 40.8162C49.8141 40.8121 49.778 40.8153 49.7436 40.8253C49.7092 40.8354 49.6771 40.8523 49.6493 40.8749C49.6214 40.8976 49.5984 40.9256 49.5815 40.9572C49.5647 40.9889 49.5543 41.0236 49.551 41.0593C49.5111 41.2282 49.4623 41.3948 49.4048 41.5585L48.793 41.6049C48.8229 41.4922 48.8415 41.4116 48.8643 41.3332C49.141 40.4385 49.4184 39.5438 49.6965 38.6491C49.7635 38.4287 49.7678 38.4223 49.9931 38.4159C50.4959 38.4016 50.3654 38.3068 50.5957 38.7724C50.9679 39.5283 51.3295 40.2906 51.696 41.0494C51.7431 41.1478 51.788 41.2476 51.8429 41.366M50.1628 39.1732L50.0915 39.1796C49.9874 39.5469 49.8819 39.9127 49.7635 40.3256L50.657 40.2657C50.4809 39.8699 50.3311 39.5169 50.1578 39.1732" fill="#EEEEEE"/>
<path d="M53.3666 40.3881C53.3629 40.1605 53.4269 39.9369 53.5503 39.7456C53.6738 39.5543 53.8511 39.4039 54.0601 39.3135C54.269 39.223 54.5 39.1966 54.724 39.2374C54.9479 39.2783 55.1547 39.3847 55.3182 39.5431C55.4817 39.7015 55.5946 39.9048 55.6425 40.1274C55.6905 40.35 55.6713 40.5817 55.5875 40.7934C55.5037 41.0051 55.359 41.1871 55.1717 41.3165C54.9844 41.446 54.763 41.5169 54.5353 41.5205C54.3818 41.533 54.2274 41.5125 54.0824 41.4605C53.9374 41.4085 53.8051 41.3262 53.6945 41.219C53.5838 41.1118 53.4974 40.9822 53.4408 40.8389C53.3843 40.6957 53.3589 40.542 53.3666 40.3881M55.0987 40.3232L55.0744 40.3189C55.0773 40.2681 55.0773 40.2171 55.0744 40.1663C55.0666 40.0362 55.0128 39.913 54.9226 39.8188C54.8324 39.7246 54.7117 39.6655 54.582 39.652C54.4523 39.6384 54.3221 39.6714 54.2144 39.745C54.1067 39.8185 54.0286 39.9279 53.9941 40.0536C53.9256 40.2475 53.9191 40.4578 53.9756 40.6555C54.0041 40.7674 54.0675 40.8673 54.1566 40.9407C54.2457 41.0142 54.3559 41.0574 54.4712 41.0641C54.5864 41.0729 54.7014 41.0437 54.7985 40.981C54.8956 40.9183 54.9695 40.8255 55.0088 40.7168C55.0489 40.5881 55.0792 40.4565 55.0994 40.3232" fill="#EEEEEE"/>
<path d="M56.6275 41.7947C56.4435 41.7527 56.2817 41.717 56.0898 41.6742C56.2581 40.9447 56.4229 40.238 56.589 39.5078L57.0746 39.6062C57.0681 39.7048 57.0619 39.8035 57.0561 39.9022C57.1438 39.8615 57.213 39.8251 57.2857 39.7952C57.4298 39.7297 57.5886 39.7034 57.746 39.7192C57.9035 39.735 58.0539 39.7922 58.1821 39.885C58.262 39.935 58.3271 40.0053 58.3708 40.0888C58.4146 40.1723 58.4353 40.2659 58.431 40.36C58.4291 40.4798 58.4162 40.5991 58.3925 40.7165C58.3019 41.1321 58.2069 41.5467 58.1072 41.9602C58.0965 42.0087 58.0737 42.0543 58.048 42.1292C57.8747 42.0878 57.7072 42.0493 57.5189 42.0058C57.5973 41.66 57.6729 41.3383 57.7435 41.016C57.7803 40.8674 57.8091 40.717 57.8298 40.5653C57.8555 40.3143 57.7778 40.186 57.5852 40.1211C57.4886 40.0856 57.3828 40.0839 57.2851 40.1161C57.1874 40.1484 57.1034 40.2127 57.0468 40.2986C56.9932 40.3854 56.9539 40.4803 56.9306 40.5796C56.8422 40.9255 56.7623 41.2735 56.6782 41.62C56.6667 41.6685 56.6482 41.7163 56.6225 41.7976" fill="#EEEEEE"/>
<path d="M52.2565 38.3125H52.7971C52.8349 38.8238 52.7971 39.3301 52.7971 39.835C52.7971 40.3398 52.7821 40.8533 52.7743 41.381H52.2123C52.2009 40.3605 52.2637 39.3536 52.2573 38.3146" fill="#EEEEEE"/>
<path d="M70.6312 65.0756C70.2608 69.703 68.1639 74.0218 64.7568 77.1748C61.3498 80.3279 56.8816 82.0845 52.2395 82.096C47.5973 82.1075 43.1206 80.373 39.6979 77.2369C36.2753 74.1008 34.157 69.7923 33.7637 65.1669C34.1411 67.3317 35.2727 69.293 36.9579 70.7033C38.6431 72.1136 40.7731 72.8819 42.9706 72.872C44.8767 72.8692 46.7349 72.275 48.2891 71.1715C49.8432 70.068 51.0167 68.5094 51.6476 66.7108C51.5335 66.6395 51.4145 66.5632 51.2911 66.489C50.2729 65.8849 49.4355 65.0185 48.8665 63.9803C48.5049 63.329 48.3028 62.6012 48.2768 61.8567C48.2469 61.0157 48.4655 60.1846 48.905 59.4671C49.1472 59.0764 49.4194 58.7051 49.7194 58.3568C50.3259 57.6855 50.8488 56.9432 51.2768 56.1462C51.6275 55.471 51.8305 54.7288 51.8723 53.9691C51.8816 53.4319 51.8272 52.8955 51.7104 52.371C51.6391 52.0145 51.5842 51.6508 51.525 51.2893C51.5198 51.2138 51.5198 51.138 51.525 51.0625C51.5948 51.0925 51.6625 51.1273 51.7275 51.1666C53.4256 52.3124 54.8007 53.8754 55.7209 55.7055C56.3298 56.9606 56.618 58.3472 56.5596 59.741C56.5013 61.1348 56.0982 62.4924 55.3865 63.6922C54.9163 64.4159 54.3284 65.0558 53.6472 65.5855C53.4218 65.7673 53.1986 65.9527 52.9769 66.1389C52.9056 66.1988 52.8442 66.2708 52.7758 66.3343C52.7244 66.3789 52.6895 66.4395 52.6765 66.5063C52.6636 66.5731 52.6734 66.6423 52.7045 66.7029C52.909 67.2736 53.1688 67.823 53.4803 68.3431C54.1518 69.493 55.0675 70.4814 56.1627 71.2387C57.258 71.996 58.5062 72.5036 59.8191 72.7258C61.8671 73.0985 63.9809 72.7693 65.8186 71.7915C67.6563 70.8137 69.1102 69.2444 69.9452 67.3376C70.2587 66.613 70.4876 65.8547 70.6277 65.0778" fill="#EEEEEE"/>
<path d="M31.5783 70.4666C31.5184 70.2591 31.4628 70.0645 31.4022 69.8584C31.4339 69.8314 31.468 69.8075 31.5042 69.7871C31.7523 69.6973 31.9601 69.5217 32.09 69.292C32.2199 69.0623 32.2633 68.7937 32.2123 68.5348C32.1878 68.2196 32.1031 67.9119 31.9627 67.6285C31.8611 67.4095 31.6798 67.2376 31.4557 67.1479C31.3637 67.1068 31.2637 67.0867 31.1629 67.0891C31.0622 67.0916 30.9633 67.1164 30.8734 67.1619C30.7835 67.2074 30.7049 67.2724 30.6433 67.3521C30.5816 67.4319 30.5386 67.5243 30.5172 67.6228C30.4604 67.9322 30.4261 68.2454 30.4145 68.5598C30.3889 68.9328 30.386 69.3086 30.3575 69.6815C30.3416 69.8423 30.3098 70.0012 30.2627 70.1557C30.1984 70.3799 30.0817 70.5856 29.9223 70.7558C29.7629 70.926 29.5653 71.0559 29.3459 71.1348C29.1264 71.2136 28.8913 71.2392 28.66 71.2093C28.4288 71.1794 28.2079 71.095 28.0157 70.963C27.6766 70.7434 27.4157 70.4221 27.2705 70.0452C27.007 69.4484 26.9323 68.7852 27.0565 68.1448C27.119 67.8202 27.2709 67.5194 27.495 67.2764C27.7191 67.0334 28.0066 66.8577 28.3251 66.7692C28.3655 66.7608 28.4066 66.7558 28.4478 66.7542L28.6361 67.3618C28.5956 67.388 28.5537 67.4118 28.5106 67.4331C28.2765 67.5187 28.0728 67.6712 27.9247 67.8717C27.7766 68.0721 27.6907 68.3117 27.6776 68.5605C27.6383 68.8481 27.657 69.1407 27.7327 69.421C27.8084 69.7012 27.9395 69.9634 28.1183 70.1921C28.2026 70.3059 28.3144 70.3964 28.4433 70.4551C28.5721 70.5137 28.7138 70.5385 28.855 70.5273C28.9973 70.5271 29.1362 70.4839 29.2536 70.4033C29.3709 70.3227 29.4611 70.2086 29.5125 70.0759C29.588 69.8778 29.636 69.6702 29.6551 69.459C29.6893 69.0861 29.6843 68.7096 29.7136 68.3359C29.7265 68.0388 29.7657 67.7433 29.8305 67.4531C29.8854 67.1689 30.0353 66.9118 30.2556 66.724C30.4759 66.5362 30.7535 66.4289 31.0428 66.4198C31.3038 66.3962 31.5662 66.4456 31.8008 66.5625C32.0354 66.6793 32.2329 66.859 32.3713 67.0816C32.599 67.4229 32.7485 67.8103 32.8092 68.2161C32.8705 68.5434 32.8705 68.8793 32.8092 69.2066C32.7552 69.5156 32.609 69.801 32.3899 70.0254C32.1707 70.2497 31.8888 70.4026 31.5812 70.4638" fill="#EEEEEE"/>
<path d="M33.5352 74.8889L33.1552 75.2084L33.1637 75.2612C33.3986 75.253 33.6322 75.3004 33.8453 75.3996C34.0584 75.4987 34.2451 75.6467 34.3902 75.8316C34.555 76.0102 34.6597 76.2358 34.6898 76.4768C34.7198 76.7179 34.6737 76.9623 34.5578 77.1758C34.6684 77.1894 34.7554 77.2029 34.8431 77.2086C35.0872 77.2208 35.3241 77.2951 35.5314 77.4245C35.7387 77.5539 35.9095 77.7342 36.0275 77.9481C36.1687 78.1548 36.233 78.4043 36.2091 78.6535C36.1853 78.9026 36.0749 79.1355 35.897 79.3116C35.8177 79.4001 35.7311 79.4819 35.6382 79.5562C34.9251 80.1148 34.2134 80.6712 33.5032 81.2255C33.4696 81.2512 33.4318 81.2719 33.3698 81.3161L32.9719 80.8169C33.051 80.7513 33.1145 80.6943 33.1787 80.6429C33.7556 80.1908 34.3339 79.7416 34.9094 79.2881C35.0588 79.1747 35.2001 79.051 35.3323 78.9179C35.4373 78.8215 35.5057 78.6918 35.5261 78.5507C35.5465 78.4096 35.5176 78.2658 35.4442 78.1435C35.3384 77.9171 35.1479 77.7411 34.9138 77.6535C34.6797 77.5659 34.4205 77.5736 34.192 77.675C34.0375 77.7458 33.8914 77.8336 33.7563 77.9367C33.2015 78.3646 32.6531 78.7924 32.1019 79.2203C32.0306 79.2766 31.955 79.3294 31.8666 79.3957L31.4708 78.8873C31.5507 78.816 31.6134 78.7618 31.6769 78.7111C32.2738 78.2426 32.8735 77.7791 33.4668 77.307C33.6216 77.1875 33.7625 77.0509 33.8868 76.8999C33.9757 76.7943 34.0259 76.6614 34.0288 76.5234C34.0318 76.3854 33.9875 76.2505 33.9032 76.1411C33.7824 75.9369 33.5897 75.7851 33.3628 75.7155C33.1359 75.6458 32.8913 75.6633 32.6767 75.7646C32.4546 75.8719 32.2447 76.0027 32.0506 76.1547C31.5607 76.5234 31.0814 76.907 30.5972 77.2842C30.5259 77.3413 30.4503 77.394 30.3598 77.4604L29.9512 76.9469L33.1694 74.4297L33.5359 74.8832" fill="#EEEEEE"/>
<path d="M41.8053 48.3984L42.1875 48.8905L41.7597 49.2591C42.4651 50.165 43.1708 51.0707 43.8769 51.9761C43.8165 51.9979 43.7545 52.0151 43.6915 52.0274C43.5902 52.0388 43.4861 52.0274 43.3855 52.0474C43.2825 52.0686 43.1753 52.0568 43.0794 52.0135C42.9835 51.9702 42.9037 51.8977 42.8514 51.8063C42.3765 51.1717 41.8816 50.5527 41.3931 49.928C41.3368 49.8567 41.2762 49.7854 41.2056 49.697C40.9016 49.8762 40.6302 50.1055 40.4026 50.3752L42.8158 52.8781C42.5305 52.9266 42.2902 52.9772 42.0506 53.0022C41.9921 53.0086 41.9151 52.943 41.8645 52.8924C41.5885 52.6143 41.3182 52.3298 41.0458 52.0495C40.9874 51.9896 40.9253 51.934 40.839 51.852L40.1202 52.6457L40.6907 53.1769C40.6633 53.2248 40.6223 53.2634 40.5729 53.2879C40.5236 53.3124 40.468 53.3217 40.4133 53.3145C40.1067 53.3145 39.8001 53.3074 39.4934 53.3017C39.4207 53.3113 39.3469 53.2965 39.2835 53.2596C39.2201 53.2227 39.1708 53.1658 39.1433 53.0978C39.1139 53.0265 39.107 52.948 39.1234 52.8727C39.1398 52.7974 39.1789 52.7289 39.2353 52.6763C39.564 52.3198 39.8856 51.9554 40.2094 51.5938C40.2664 51.5304 40.3192 51.4655 40.3948 51.3799L39.8878 50.8565C39.2781 51.3799 38.8181 52.0067 38.254 52.5744L37.7812 52.1558L39.0121 50.7873C39.0834 50.8387 39.1433 50.8793 39.2017 50.9192L39.2174 50.9L39.1041 50.7338C39.9255 49.8687 40.8308 49.0874 41.8067 48.4013" fill="#EEEEEE"/>
<path d="M57.609 46.8237L57.6654 47.3663C57.4628 47.3863 57.2867 47.402 57.112 47.4234C57.0362 47.4327 56.9616 47.4502 56.8895 47.4754C56.8207 47.4881 56.7596 47.5274 56.7196 47.5848C56.6795 47.6422 56.6637 47.7131 56.6756 47.7821C56.6734 47.8521 56.6977 47.9205 56.7437 47.9734C56.7897 48.0262 56.854 48.0598 56.9237 48.0673C57.1005 48.0795 57.278 48.0735 57.4536 48.0495C57.5537 48.0302 57.652 48.0023 57.7474 47.9661L57.7231 48.2513C57.9735 47.759 58.1649 47.2389 58.2936 46.7017L56.3754 46.1655L56.5422 45.5686C56.6185 45.58 56.6756 45.5822 56.7298 45.5964C57.1315 45.7105 57.5327 45.8253 57.9335 45.9409L58.9204 46.2211C58.8498 46.1195 58.7737 46.0219 58.6922 45.9287C58.3261 45.534 57.8829 45.2185 57.3901 45.0017C57.3168 44.9821 57.2528 44.937 57.2097 44.8746C57.1666 44.8121 57.1471 44.7363 57.1548 44.6608C57.1548 44.4925 57.1298 44.325 57.112 44.1011C57.6429 44.2629 58.1143 44.578 58.4669 45.0067C58.4656 44.9533 58.4599 44.9001 58.4498 44.8477C58.3785 44.6337 58.3015 44.4127 58.2209 44.1973C58.2035 44.1179 58.1676 44.0438 58.1162 43.9808C58.0648 43.9179 57.9993 43.8679 57.9249 43.8351C57.9002 43.8213 57.8788 43.802 57.8625 43.7788C57.8462 43.7556 57.8354 43.729 57.8308 43.701C57.8037 43.4828 57.7909 43.2632 57.7681 42.9922C58.0133 43.0885 58.2516 43.2017 58.4812 43.3309C58.5927 43.423 58.6727 43.5477 58.7101 43.6875C58.8334 44.0682 58.9468 44.4519 59.0374 44.8413C59.1365 45.2634 59.2157 45.6913 59.2798 46.1206C59.3105 46.3216 59.3697 46.46 59.5851 46.4935C59.6351 46.5119 59.6829 46.5358 59.7277 46.5648L59.5244 47.1474L58.9889 46.977C58.7628 47.5104 58.5888 48.0595 58.3877 48.5979C58.1866 49.1363 57.997 49.6675 57.7837 50.2501C57.6154 50.0169 57.4707 49.8315 57.3452 49.6311C57.3216 49.5614 57.3238 49.4854 57.3516 49.4172C57.4186 49.2033 57.4978 48.9858 57.5848 48.7341H57.2653C57.1328 48.7392 57.0006 48.7181 56.8763 48.672C56.7519 48.6259 56.638 48.5556 56.5409 48.4653C56.4438 48.375 56.3655 48.2664 56.3106 48.1457C56.2556 48.025 56.225 47.8946 56.2206 47.7621C56.2067 47.6255 56.231 47.4876 56.2908 47.364C56.3506 47.2404 56.4436 47.1358 56.5593 47.0619C56.868 46.8651 57.2364 46.7842 57.599 46.8337" fill="#EEEEEE"/>
<path d="M50.4763 45.7461C50.4575 45.6757 50.4428 45.6043 50.4321 45.5322C50.4214 45.406 50.4192 45.279 50.4121 45.1307C50.6909 45.1065 50.9519 45.0837 51.2122 45.0594C51.4261 45.043 51.6401 45.0259 51.854 45.0138C51.9196 44.9976 51.9878 44.9957 52.0542 45.008C52.1206 45.0202 52.1836 45.0465 52.2391 45.0851C52.2797 45.1207 52.371 45.1029 52.4373 45.1029H53.9013C53.9569 45.3083 53.9643 45.5238 53.9227 45.7326L53.3893 45.7575C53.3829 45.8602 53.3729 45.9501 53.3729 46.0428C53.3729 46.9969 53.3729 47.9517 53.3686 48.9066C53.3625 48.9765 53.3758 49.0468 53.407 49.1097C53.4382 49.1726 53.4861 49.2257 53.5455 49.2631C53.6975 49.3827 53.8072 49.5478 53.8586 49.7343C53.9099 49.9207 53.9002 50.1187 53.8307 50.2993C53.7794 50.4727 53.6716 50.624 53.5244 50.7292C53.3773 50.8343 53.1992 50.8873 53.0185 50.8797C52.7 50.8974 52.386 50.7974 52.1364 50.5988C52.0028 50.4936 51.8787 50.3769 51.7656 50.2501C51.4799 49.9063 51.2221 49.5403 50.9947 49.1554C51.0808 49.1194 51.1773 49.1175 51.2647 49.1501C51.3521 49.1827 51.4239 49.2473 51.4654 49.3309C51.6491 49.6395 51.8857 49.9135 52.1642 50.1402C52.2885 50.2582 52.4415 50.3416 52.608 50.3822C52.7745 50.4227 52.9487 50.4189 53.1133 50.3713C53.2057 50.3509 53.2888 50.3004 53.3494 50.2277C53.4101 50.1551 53.4449 50.0644 53.4485 49.9698C53.4582 49.9103 53.4514 49.8493 53.4289 49.7934C53.4064 49.7375 53.3691 49.6887 53.321 49.6525C53.2728 49.6162 53.2157 49.5938 53.1557 49.5876C53.0957 49.5815 53.0352 49.5918 52.9807 49.6175C52.8737 49.6692 52.7743 49.7354 52.6855 49.8144C52.6243 49.871 52.5678 49.9326 52.5165 49.9983L52.1885 49.5227C52.2665 49.3739 52.3882 49.2524 52.5372 49.1747C52.6862 49.097 52.8554 49.0666 53.0221 49.0877C53.0014 48.9608 52.9051 48.9273 52.8331 48.8859C52.7772 48.8554 52.7318 48.8087 52.7029 48.7519C52.6741 48.6952 52.663 48.631 52.6712 48.5679C52.6791 48.1593 52.6712 47.7499 52.6712 47.3406C52.6712 47.25 52.6641 47.1581 52.6577 47.0333C52.2569 47.0668 51.8733 47.0867 51.5003 47.1331C51.4555 47.1403 51.4127 47.1567 51.3745 47.1812C51.3363 47.2057 51.3036 47.2379 51.2784 47.2756C51.2532 47.3134 51.2361 47.356 51.2282 47.4006C51.2202 47.4453 51.2216 47.4912 51.2322 47.5353C51.2545 47.6608 51.2944 47.7825 51.3506 47.8968C51.5062 48.2106 51.716 48.4945 51.9702 48.7354C52.0252 48.7882 52.0865 48.8338 52.1706 48.9052L51.921 49.0906C51.8701 49.0578 51.8223 49.0203 51.7784 48.9786C51.536 48.6934 51.2792 48.4174 51.0589 48.1165C50.8305 47.8144 50.7106 47.444 50.7187 47.0654C50.7146 46.9755 50.729 46.8857 50.7609 46.8016C50.7928 46.7175 50.8415 46.6408 50.9042 46.5762C50.9746 46.5043 51.0646 46.4547 51.163 46.4335C51.6194 46.3851 52.0772 46.3558 52.5614 46.3173C52.5821 46.4685 52.6021 46.5983 52.6199 46.7302C52.6847 46.411 52.6884 46.0824 52.6306 45.7618L52.3874 45.7475C52.3375 45.744 52.2705 45.759 52.2377 45.7326C52.0851 45.6085 51.9153 45.6613 51.7492 45.6705C51.3926 45.6941 51.0361 45.7226 50.6795 45.7468C50.6132 45.7518 50.5476 45.7468 50.4749 45.7468" fill="#EEEEEE"/>
<path d="M60.0382 84.4588C59.8115 83.7914 59.6054 83.1831 59.3893 82.5499C59.6032 82.4785 59.7944 82.4072 60.0083 82.3359C60.6244 84.1187 61.2327 85.8893 61.8509 87.6842L61.2862 87.8789L61.1065 87.451C61.063 87.5266 61.0351 87.5715 61.0109 87.6193C60.882 87.8896 60.6734 88.1139 60.4132 88.2621C60.153 88.4104 59.8537 88.4755 59.5555 88.4486C59.2743 88.4235 59.0028 88.3331 58.7628 88.1845C58.5227 88.0359 58.3207 87.8334 58.1727 87.5929C57.8021 87.0448 57.6263 86.3881 57.6736 85.7281C57.6884 85.477 57.7639 85.2331 57.8934 85.0174C58.023 84.8017 58.2028 84.6206 58.4175 84.4894C58.6322 84.3583 58.8755 84.2811 59.1265 84.2643C59.3776 84.2475 59.629 84.2918 59.8592 84.3932C59.8956 84.4132 59.937 84.4225 60.0368 84.4645M58.3204 85.962C58.3588 86.4758 58.5377 86.9692 58.8374 87.3882C58.9312 87.5264 59.0543 87.6421 59.1981 87.727C59.3418 87.8119 59.5026 87.864 59.6688 87.8796C59.8183 87.8912 59.9686 87.8703 60.1092 87.8182C60.2498 87.7661 60.3774 87.6841 60.4832 87.5778C60.5889 87.4715 60.6704 87.3436 60.7219 87.2027C60.7733 87.0619 60.7936 86.9116 60.7813 86.7622C60.7614 86.1865 60.5555 85.6328 60.1944 85.1841C60.0584 85.007 59.8701 84.8772 59.6562 84.8132C59.4423 84.7492 59.2137 84.7542 59.0028 84.8275C58.7805 84.9158 58.5934 85.0747 58.4701 85.2796C58.3468 85.4846 58.2942 85.7243 58.3204 85.962" fill="#EEEEEE"/>
<path d="M56.3503 83.3984L56.4929 84.1436C56.2754 84.1893 56.085 84.2271 55.8839 84.2684C55.8518 84.2221 55.8198 84.1786 55.7677 84.1051C55.752 84.1308 55.7379 84.1575 55.7256 84.185L54.9084 86.4969L53.9414 89.2445C53.858 89.4819 53.8566 89.4819 53.5991 89.4898C53.4708 89.494 53.3446 89.4969 53.2162 89.499C53.1912 89.499 53.1656 89.4933 53.1057 89.4869C52.3213 87.6571 51.5333 85.8116 50.7246 83.9247L51.5005 83.8891L53.4587 88.8273C53.4887 88.78 53.5149 88.7304 53.5371 88.6789L55.0795 83.9689C55.1451 83.7664 55.1509 83.7635 55.3648 83.755C55.4732 83.7486 55.5787 83.7457 55.6985 83.74L55.7442 83.514L56.3503 83.4027" fill="#EEEEEE"/>
<path d="M69.4886 82.9694C69.4081 83.0407 69.3524 83.092 69.2954 83.1398C69.1905 83.2268 69.0857 83.3095 68.9695 83.4037L68.5694 83.1441C68.4653 83.2154 68.4817 83.3416 68.4525 83.4393C68.3745 83.7194 68.2401 83.9806 68.0575 84.2068C67.8749 84.4331 67.648 84.6196 67.3907 84.755C67.1763 84.8835 66.9264 84.9402 66.6776 84.9169C66.5057 84.8977 66.3404 84.8398 66.1941 84.7476C66.0478 84.6554 65.9243 84.5312 65.8329 84.3844C65.7414 84.2377 65.6843 84.0721 65.666 83.9001C65.6477 83.7282 65.6685 83.5543 65.727 83.3915C65.8204 83.1436 65.9634 82.9172 66.147 82.7262C66.4323 82.411 66.7175 82.0942 67.0027 81.7757C67.0721 81.6878 67.1368 81.5964 67.1967 81.5018C67.0833 81.3799 66.9828 81.2579 66.8658 81.1503C66.7936 81.0827 66.7046 81.0356 66.6081 81.0139C66.5115 80.9922 66.411 80.9967 66.3167 81.0269C65.9025 81.1464 65.5516 81.4234 65.3391 81.7985C65.2563 81.9603 65.2396 82.148 65.2927 82.3219C65.312 82.4117 65.3448 82.5002 65.3833 82.6264C65.2114 82.7291 65.0353 82.8403 64.8449 82.9516C64.7355 82.7883 64.6668 82.6012 64.6446 82.4059C64.6224 82.2106 64.6473 82.0128 64.7172 81.8291C64.867 81.4799 65.0914 81.1677 65.3748 80.9146C65.6582 80.6614 65.9936 80.4734 66.3574 80.3637C66.5212 80.3108 66.6969 80.3062 66.8633 80.3504C67.0297 80.3947 67.1799 80.486 67.2958 80.6133C67.4404 80.7576 67.5762 80.9105 67.7023 81.0711C67.9305 81.3471 68.1466 81.6323 68.379 81.904C68.6692 82.333 69.0466 82.696 69.4865 82.9694M67.5276 81.9304C67.3543 82.1557 67.2088 82.3583 67.0527 82.5437C66.8965 82.7291 66.7161 82.928 66.5535 83.1198C66.5097 83.172 66.4701 83.2276 66.4351 83.286C66.3581 83.3946 66.3183 83.5253 66.3219 83.6584C66.3255 83.7915 66.3723 83.9198 66.4551 84.0241C66.5394 84.1325 66.6562 84.211 66.7884 84.2481C66.9206 84.2852 67.0612 84.2789 67.1896 84.2301C67.4351 84.1302 67.6478 83.9638 67.804 83.7497C67.9602 83.5356 68.0536 83.2822 68.0738 83.0179C68.0385 82.5986 67.8444 82.2085 67.5311 81.9275" fill="#EEEEEE"/>
<path d="M44.7233 85.3655L44.1564 85.1102C44.2512 84.8758 44.4131 84.6746 44.6218 84.5319C44.8305 84.3892 45.0766 84.3113 45.3294 84.308C45.9125 84.2799 46.4901 84.4325 46.9831 84.7451C47.1865 84.8521 47.3452 85.0279 47.4311 85.241C47.517 85.4541 47.5246 85.6907 47.4524 85.9089C47.3133 86.4694 47.1422 87.0242 46.9924 87.5832C46.9211 87.8535 46.8498 88.1266 46.8056 88.4033C46.7902 88.5793 46.7885 88.7562 46.8006 88.9324C46.6523 88.8925 46.531 88.8611 46.4105 88.8269C46.1288 88.7463 46.1188 88.7313 46.1352 88.4368C46.1352 88.3876 46.1431 88.3384 46.1488 88.2778C46.0304 88.2322 45.942 88.307 45.8543 88.3391C45.5654 88.4459 45.2567 88.4884 44.9497 88.4638C44.6427 88.4391 44.3447 88.3479 44.0765 88.1965C43.9452 88.1333 43.8278 88.0446 43.731 87.9357C43.6342 87.8267 43.56 87.6996 43.5127 87.5618C43.4654 87.424 43.446 87.2781 43.4555 87.1327C43.465 86.9873 43.5032 86.8452 43.5681 86.7147C43.6545 86.5131 43.7985 86.3415 43.9821 86.2215C44.1657 86.1015 44.3806 86.0384 44.5999 86.0401C44.8887 86.0416 45.177 86.0631 45.4628 86.1043C45.793 86.1356 46.1217 86.1791 46.4526 86.2077C46.6708 86.2255 46.6886 86.2077 46.7485 85.9852C46.7854 85.898 46.8042 85.8041 46.8036 85.7094C46.803 85.6147 46.7831 85.5211 46.7451 85.4344C46.7072 85.3476 46.6519 85.2695 46.5827 85.2048C46.5135 85.1401 46.4319 85.0902 46.3428 85.0582C46.1176 84.959 45.8809 84.8886 45.6382 84.8485C45.5027 84.8239 45.3629 84.8376 45.2347 84.888C45.1065 84.9384 44.9948 85.0235 44.9123 85.1337C44.8524 85.205 44.7953 85.2764 44.7233 85.3648M46.5225 86.7482C46.4837 86.736 46.4442 86.7264 46.4041 86.7197C46.0233 86.689 45.6418 86.6562 45.2631 86.6298C45.0937 86.6128 44.9234 86.6076 44.7533 86.6141C44.6242 86.6174 44.4998 86.6634 44.3996 86.7448C44.2994 86.8262 44.2289 86.9384 44.1992 87.0641C44.1595 87.1871 44.1611 87.3197 44.2037 87.4417C44.2463 87.5638 44.3276 87.6685 44.4352 87.7401C44.5903 87.8437 44.7639 87.9163 44.9465 87.954C45.1734 88.0212 45.4152 88.0187 45.6406 87.9468C45.866 87.875 46.0647 87.7371 46.2108 87.5511C46.3699 87.3069 46.4772 87.0327 46.526 86.7453" fill="#EEEEEE"/>
<path d="M36.9712 84.5132L36.4628 84.0675L36.6561 83.5933L36.3394 83.5619C36.0196 83.5357 35.7102 83.4354 35.4358 83.2689C35.1614 83.1025 34.9295 82.8744 34.7585 82.6028C34.6587 82.4533 34.5964 82.2819 34.5769 82.1031C34.5574 81.9244 34.5813 81.7435 34.6466 81.576C34.7119 81.4085 34.8167 81.2592 34.952 81.1407C35.0873 81.0223 35.2491 80.9382 35.4238 80.8957C35.7246 80.8188 36.0432 80.857 36.3173 81.0026C36.522 81.1053 36.7131 81.233 36.9099 81.352C37.2087 81.5317 37.5025 81.7207 37.8063 81.8919C38.0045 82.0031 38.0266 81.9896 38.1686 81.8206C38.2405 81.7555 38.2982 81.6762 38.3381 81.5877C38.3779 81.4992 38.3991 81.4034 38.4001 81.3064C38.4012 81.2094 38.3822 81.1132 38.3443 81.0238C38.3064 80.9345 38.2505 80.8539 38.18 80.7873C38.0332 80.6225 37.8678 80.4754 37.6872 80.3487C37.5618 80.2505 37.4093 80.1932 37.2502 80.1845C37.0912 80.1758 36.9333 80.2162 36.798 80.3002C36.7395 80.3323 36.6796 80.3623 36.6019 80.4022C36.4657 80.2446 36.333 80.0941 36.1875 79.9273C36.3387 79.7845 36.5232 79.6816 36.7241 79.6281C36.9251 79.5745 37.1363 79.572 37.3385 79.6206C37.6764 79.7125 37.9929 79.8703 38.2696 80.085C38.5463 80.2996 38.7778 80.5669 38.9508 80.8714C39.0662 81.0492 39.1186 81.2604 39.0999 81.4715C39.0811 81.6826 38.9923 81.8813 38.8474 82.0359C38.5108 82.4524 38.1543 82.8546 37.8063 83.2624C37.7785 83.2945 37.7493 83.3252 37.7222 83.358C37.3956 83.6888 37.14 84.0829 36.9712 84.5161M37.6615 82.4074C37.5981 82.3646 37.5724 82.3454 37.5446 82.3304C37.2044 82.1386 36.8643 81.9468 36.5234 81.7599C36.3933 81.6793 36.2577 81.6078 36.1177 81.546C36.0415 81.5124 35.9593 81.4946 35.876 81.4936C35.7928 81.4926 35.7102 81.5085 35.6332 81.5402C35.5563 81.572 35.4865 81.619 35.4282 81.6785C35.3699 81.7379 35.3243 81.8086 35.294 81.8862C35.2499 81.9979 35.2371 82.1196 35.257 82.238C35.2768 82.3565 35.3286 82.4673 35.4067 82.5586C35.581 82.7904 35.821 82.9643 36.0956 83.0578C36.2941 83.1387 36.5121 83.1588 36.7221 83.1157C36.9321 83.0725 37.1245 82.968 37.275 82.8153C37.402 82.6912 37.5182 82.5572 37.6615 82.4039" fill="#EEEEEE"/>
<path d="M73.8699 71.8343C73.7786 72.0211 73.6916 72.2029 73.5975 72.3948C73.359 72.2873 73.1585 72.1103 73.0222 71.887C72.886 71.6637 72.8203 71.4045 72.8338 71.1433C72.84 70.6119 72.9914 70.0923 73.2716 69.6408C73.383 69.4109 73.5773 69.2317 73.8154 69.1391C74.0534 69.0465 74.3177 69.0474 74.5552 69.1416C75.0458 69.2842 75.5279 69.4511 76.0163 69.6001C76.4883 69.7961 76.995 69.8951 77.506 69.8911C77.444 70.0857 77.3905 70.254 77.3384 70.4237C77.3285 70.4613 77.305 70.4939 77.2725 70.5153C77.24 70.5366 77.2008 70.5451 77.1623 70.5393C77.0532 70.535 76.9441 70.5279 76.7979 70.52C76.8293 70.6384 76.8528 70.7411 76.8849 70.8416C76.9736 71.1182 77.0042 71.4102 76.9748 71.6992C76.9453 71.9882 76.8565 72.268 76.7138 72.521C76.6078 72.752 76.4258 72.9397 76.1982 73.0528C75.9706 73.166 75.7111 73.1978 75.463 73.1428C75.2047 73.0937 74.9718 72.9556 74.8047 72.7527C74.6376 72.5497 74.5468 72.2947 74.5481 72.0318C74.5533 71.7517 74.5788 71.4724 74.6244 71.196C74.6686 70.8395 74.7292 70.4879 74.7713 70.1342C74.7969 69.9203 74.777 69.9032 74.5823 69.8397C74.4928 69.7971 74.3953 69.7737 74.2962 69.7709C74.1971 69.7681 74.0985 69.786 74.0067 69.8234C73.9149 69.8609 73.8319 69.9171 73.7631 69.9884C73.6942 70.0597 73.641 70.1446 73.6068 70.2376C73.4997 70.4777 73.424 70.7306 73.3814 70.9899C73.3637 71.1047 73.3758 71.222 73.4167 71.3307C73.4575 71.4394 73.5257 71.5357 73.6146 71.6103L73.8685 71.8371M75.2947 70.1121C75.2612 70.4402 75.2319 70.7539 75.1963 71.0641C75.1692 71.2916 75.125 71.5176 75.1064 71.7458C75.0869 71.8997 75.125 72.0554 75.2133 72.183C75.3016 72.3105 75.434 72.4009 75.5849 72.4368C75.7266 72.4724 75.8762 72.4586 76.009 72.3976C76.1417 72.3367 76.2497 72.2323 76.3151 72.1017C76.4129 71.9365 76.4771 71.7536 76.5039 71.5636C76.5307 71.3735 76.5196 71.18 76.4713 70.9942C76.392 70.7426 76.2359 70.5222 76.0248 70.364C75.8138 70.2058 75.5584 70.1177 75.2947 70.1121" fill="#EEEEEE"/>
<path d="M74.5774 76.8496C74.4718 77.0435 74.377 77.2132 74.265 77.4165C72.6056 76.5051 70.969 75.5909 69.3125 74.6732C69.4266 74.4706 69.5264 74.2959 69.637 74.0948L71.4005 75.0682C71.3805 74.9377 71.3727 74.8643 71.3584 74.7908C71.3029 74.4703 71.3413 74.1405 71.4689 73.8413C71.5966 73.542 71.8081 73.2861 72.0779 73.1043C72.2058 73.0185 72.3513 72.9624 72.5037 72.9403C72.6562 72.9182 72.8116 72.9307 72.9586 72.9767C73.1544 73.0341 73.3437 73.1117 73.5234 73.2084C74.2643 73.6106 75.0002 74.0228 75.734 74.4314C75.7704 74.4521 75.8053 74.4771 75.8624 74.5163L75.5543 75.0789C75.4588 75.0319 75.3839 74.9969 75.3104 74.957C74.6479 74.5904 73.9869 74.2203 73.3209 73.8567C73.1879 73.7807 73.0471 73.7195 72.9008 73.6741C72.7538 73.6255 72.5952 73.6244 72.4474 73.671C72.2997 73.7176 72.1704 73.8095 72.0779 73.9337C71.9784 74.0429 71.903 74.1718 71.8568 74.3122C71.8106 74.4525 71.7945 74.601 71.8096 74.7479C71.8248 74.8949 71.8708 75.037 71.9447 75.165C72.0186 75.2929 72.1187 75.4038 72.2384 75.4904C72.6277 75.7621 73.0549 75.981 73.4678 76.2185C73.7844 76.4003 74.1096 76.575 74.4276 76.7511C74.4711 76.7754 74.511 76.8068 74.5745 76.8496" fill="#EEEEEE"/>
<path d="M66.8188 56.5398C66.7062 56.5947 66.6242 56.6396 66.5393 56.676C66.3539 56.7573 66.2198 56.6724 66.2127 56.4685C66.2078 56.4175 66.2124 56.366 66.2263 56.3166C66.3047 56.0556 66.3846 55.7946 66.4744 55.5379C66.5027 55.4673 66.5475 55.4045 66.6049 55.3546C66.7832 55.1928 66.898 55.212 67.0264 55.416C67.0528 55.4573 67.0848 55.4958 67.1319 55.5586L67.9941 55.0822C67.8411 54.7673 67.6634 54.465 67.4628 54.178C66.473 54.7963 65.5089 55.3967 64.5177 56.0164C64.5049 55.9524 64.497 55.8876 64.4941 55.8224C64.4984 55.6869 64.5226 55.5507 64.5162 55.416C64.5088 55.3446 64.5238 55.2727 64.5591 55.2102C64.5943 55.1477 64.6481 55.0978 64.713 55.0673C65.4176 54.6394 66.115 54.1966 66.8153 53.758C66.893 53.7088 66.97 53.6567 67.0713 53.5897C66.9964 53.4471 66.9287 53.3209 66.8402 53.1618L67.3708 52.8281C68.0431 53.8303 68.6581 54.8698 69.2127 55.9415L68.6736 56.2417L68.3413 55.6827L67.4542 56.1747L67.9142 57.024L67.2945 57.3734C67.1333 57.0932 66.9836 56.8293 66.8188 56.5405" fill="#EEEEEE"/>
<path d="M42.0702 48.1506L43.0207 47.6214C43.3323 47.4481 43.6433 47.2734 43.9734 47.0902C43.9346 47.0484 43.8911 47.0113 43.8437 46.9796C43.5791 46.8641 43.3167 46.7415 43.0443 46.6452C42.9126 46.5934 42.7707 46.5728 42.6297 46.5852C42.4888 46.5976 42.3526 46.6425 42.232 46.7165C42.1643 46.7689 42.0789 46.7931 41.9937 46.784C41.9086 46.775 41.8302 46.7335 41.7749 46.668C41.6427 46.5553 41.5047 46.4496 41.3613 46.3514C41.5424 46.2127 41.7512 46.1146 41.9735 46.0636C42.1958 46.0127 42.4265 46.0101 42.6499 46.0562C43.1866 46.2239 43.7011 46.4557 44.1824 46.7465C44.2388 46.8002 44.3141 46.8294 44.392 46.8278C44.4699 46.8262 44.544 46.7939 44.5981 46.7379L44.9147 47.2963L44.3492 47.6321L44.9461 48.7282L44.4434 49.0063C44.3328 49.069 44.2195 49.1282 44.1103 49.1945C44.0494 49.2251 43.9957 49.2684 43.953 49.3216C43.9103 49.3748 43.8796 49.4366 43.863 49.5027C43.8463 49.5688 43.8441 49.6378 43.8566 49.7048C43.869 49.7719 43.8957 49.8355 43.9349 49.8912C43.988 49.9687 44.057 50.034 44.1373 50.0827C44.2175 50.1315 44.3073 50.1626 44.4005 50.174C44.4937 50.1854 44.5883 50.1768 44.6779 50.1488C44.7676 50.1209 44.8502 50.0741 44.9204 50.0117C44.9033 49.9875 44.8898 49.959 44.8691 49.9347C44.798 49.8728 44.7512 49.7875 44.7371 49.6943C44.723 49.601 44.7425 49.5058 44.7921 49.4256C44.8385 49.3337 44.9122 49.2584 45.0031 49.21C45.094 49.1616 45.1976 49.1425 45.2998 49.1553C45.367 49.1636 45.4301 49.1925 45.4802 49.238C45.6721 49.4577 45.8624 49.6844 45.7548 50.0132C45.751 50.0437 45.751 50.0746 45.7548 50.1052C45.9921 50.1888 46.2052 50.3296 46.3752 50.5152C46.2368 50.5944 46.1085 50.6678 45.9958 50.7341C45.8232 50.6343 45.6713 50.5451 45.518 50.4589C45.4817 50.437 45.4402 50.4255 45.3979 50.4255C45.3555 50.4255 45.314 50.437 45.2777 50.4589C44.9619 50.6218 44.5956 50.6572 44.2544 50.5578C43.9132 50.4584 43.6232 50.2318 43.4443 49.9248C43.3497 49.7639 43.284 49.5877 43.2503 49.4042C43.2177 49.2738 43.2336 49.1361 43.2952 49.0166C43.3567 48.8972 43.4597 48.8043 43.5848 48.7553C43.7331 48.6711 43.8807 48.5877 44.0283 48.5021C44.0426 48.4943 44.0519 48.4779 44.0882 48.4365L43.8094 47.9217L42.3832 48.7061C42.277 48.5178 42.1807 48.3431 42.0723 48.1491" fill="#EEEEEE"/>
<path d="M30.2383 75.336C29.8615 75.3325 29.4985 75.1935 29.2157 74.9445C28.795 74.5996 28.5285 74.1017 28.4748 73.5603C28.4342 73.2669 28.4721 72.968 28.5849 72.6941C28.6977 72.4202 28.8812 72.1812 29.1166 72.0015C29.5789 71.618 30.1439 71.3792 30.7411 71.3148C31.1176 71.2728 31.4971 71.3625 31.815 71.5686C32.1394 71.7839 32.3961 72.0868 32.5551 72.4421C32.7142 72.7975 32.7691 73.1907 32.7135 73.576C32.6575 73.9145 32.5018 74.2286 32.2664 74.4781C31.7172 75.0005 30.9964 75.3047 30.239 75.3338M30.9058 71.9772C30.3247 72.0226 29.7794 72.2757 29.3698 72.6903C29.2092 72.8559 29.1016 73.0655 29.0606 73.2925C29.0196 73.5194 29.0472 73.7534 29.1398 73.9647C29.2323 74.1759 29.3857 74.3548 29.5804 74.4785C29.775 74.6022 30.0021 74.6651 30.2326 74.6592C30.532 74.6534 30.8273 74.5882 31.1013 74.4675C31.3754 74.3468 31.6228 74.173 31.8293 73.9561C31.998 73.7955 32.1111 73.5853 32.1522 73.356C32.1934 73.1268 32.1605 72.8903 32.0582 72.6811C31.9643 72.4578 31.8023 72.2699 31.5954 72.1441C31.3885 72.0182 31.1472 71.9608 30.9058 71.9801" fill="#EEEEEE"/>
<path d="M36.6138 55.1691L36.3393 55.572C36.1647 55.4647 35.9898 55.3579 35.8145 55.2518C36.3666 54.2236 37.0111 53.2476 37.7398 52.3359L38.239 52.6925L37.921 53.166L40.7263 55.2126C40.4966 55.3254 40.2547 55.4116 40.0054 55.4693C39.9341 55.485 39.8321 55.418 39.7608 55.3659C39.0969 54.8888 38.4373 54.4075 37.7755 53.9276C37.6942 53.8691 37.6101 53.8113 37.5109 53.7429C37.3017 53.9938 37.1213 54.2674 36.9732 54.5587L39.9391 56.3414C39.7238 56.4853 39.4899 56.599 39.2438 56.6794C39.186 56.7015 39.0855 56.6395 39.0163 56.5974C38.3217 56.1838 37.6286 55.7652 36.9362 55.3502C36.8356 55.2889 36.7322 55.2333 36.6167 55.1662" fill="#EEEEEE"/>
<path d="M60.8633 83.7222L61.4865 83.3885L64.0437 85.7246C64.0526 85.6913 64.0574 85.657 64.058 85.6226C63.9282 84.7726 63.798 83.923 63.6672 83.074C63.6351 82.8601 63.6144 82.6511 63.5781 82.4422C63.5641 82.3974 63.5676 82.349 63.588 82.3067C63.6084 82.2645 63.6441 82.2316 63.6879 82.2147C63.8305 82.1434 63.9731 82.0721 64.14 81.9844C64.1971 82.3944 64.2505 82.7724 64.2997 83.1496C64.4502 84.2806 64.6035 85.4108 64.744 86.5439C64.7892 86.8726 64.8107 87.2041 64.8082 87.5359C64.8127 87.7648 64.7392 87.9885 64.5996 88.1699C64.4599 88.3514 64.2626 88.4799 64.0402 88.5342C63.854 88.5855 63.8348 88.5805 63.7221 88.4222C63.6508 88.3181 63.5795 88.2126 63.4968 88.0885L63.7599 87.9765C63.9164 87.927 64.05 87.8232 64.1366 87.6838C64.2231 87.5444 64.257 87.3786 64.232 87.2164V87.1907C64.2375 87.0224 64.2027 86.8553 64.1307 86.7031C64.0586 86.5509 63.9513 86.4182 63.8177 86.3157C62.8785 85.5313 61.9636 84.7063 61.0458 83.8955C60.9902 83.847 60.9374 83.7942 60.8647 83.7236" fill="#EEEEEE"/>
<path d="M41.1819 82.3779C41.4144 82.5012 41.6098 82.6025 41.8109 82.7116L41.3045 86.1423L43.8789 83.8119L44.4344 84.1043C44.402 84.1572 44.3642 84.2067 44.3217 84.2519C43.1104 85.3239 41.8964 86.3936 40.6799 87.4608C40.4863 87.6286 40.2703 87.7685 40.0381 87.8766C39.8584 87.9593 39.6579 87.9854 39.463 87.9516C39.2682 87.9177 39.0882 87.8254 38.947 87.6869C38.9033 87.6598 38.8714 87.6173 38.8574 87.5678C38.8434 87.5184 38.8484 87.4654 38.8714 87.4195C38.9263 87.2883 38.9784 87.1549 39.0404 87.0016C39.141 87.0729 39.2223 87.1278 39.3071 87.1784C39.4396 87.2749 39.6019 87.3213 39.7653 87.3096C39.9287 87.2978 40.0827 87.2286 40.1999 87.1143C40.3386 87.0193 40.4544 86.8945 40.5386 86.749C40.6229 86.6035 40.6736 86.4411 40.687 86.2735C40.8018 85.1326 40.9651 83.9916 41.1099 82.8506C41.1284 82.708 41.1512 82.5654 41.1812 82.375" fill="#EEEEEE"/>
<path d="M62.4723 48.6505C62.5935 48.5457 62.7155 48.4423 62.8588 48.3203C62.9052 48.3567 62.9943 48.4216 63.0806 48.4886C63.4093 48.7453 63.7359 49.0035 64.0661 49.2595C64.1445 49.3201 64.2166 49.3771 64.1495 49.4941C64.1909 49.4705 64.2329 49.4456 64.2993 49.4092L65.8624 50.8654L65.4409 51.3317C64.781 50.686 64.0793 50.0845 63.3401 49.5312L61.1973 52.2716C61.1081 51.9978 61.0254 51.7724 60.9676 51.5499C60.9655 51.4761 60.9909 51.4042 61.039 51.3481C61.1652 51.1699 61.3028 50.9987 61.4554 50.8005L61.2778 50.7584C61.12 50.7146 60.975 50.6338 60.8548 50.5225C60.7346 50.4113 60.6427 50.2729 60.5869 50.119C60.5311 49.965 60.5129 49.7999 60.5338 49.6375C60.5548 49.4751 60.6143 49.32 60.7073 49.1853C60.8011 49.0462 60.9368 48.9407 61.0947 48.884C61.2525 48.8274 61.4244 48.8225 61.5852 48.8701C62.043 48.9771 62.0922 49.0448 62.0566 49.5055C62.0523 49.5547 62.0401 49.6018 62.0273 49.6695C61.9392 49.6294 61.8484 49.5956 61.7556 49.5682C61.5755 49.5226 61.3918 49.4923 61.2065 49.4777C61.1057 49.483 61.0092 49.5199 60.9306 49.5832C60.8993 49.6023 60.8734 49.6291 60.8555 49.6611C60.8376 49.6931 60.8282 49.7291 60.8282 49.7658C60.8282 49.8024 60.8376 49.8384 60.8555 49.8704C60.8734 49.9024 60.8993 49.9292 60.9306 49.9483C61.0792 50.0651 61.2635 50.1271 61.4525 50.1237H61.9895L62.7968 49.089C62.6934 49.0035 62.6078 48.9357 62.5243 48.8665C62.453 48.8102 62.3917 48.7517 62.468 48.6562L62.4723 48.6505Z" fill="#EEEEEE"/>
<path d="M46.3074 46.1051L46.475 46.4324L46.5071 46.421L46.4308 46.0609C46.9758 45.8463 47.5411 45.6872 48.118 45.5859L48.2735 46.1486C48.0859 46.2099 47.9276 46.2641 47.7379 46.3283L48.6828 49.6449C48.4296 49.6053 48.1825 49.5334 47.9476 49.431C47.9019 49.4146 47.8763 49.3254 47.852 49.2634C47.7907 49.0794 47.7386 48.8926 47.6759 48.6808C47.5896 48.7443 47.5261 48.7949 47.462 48.8419C47.3253 48.9284 47.1701 48.9815 47.0091 48.9968C46.8481 49.0121 46.6858 48.9892 46.5352 48.93C46.3847 48.8709 46.2503 48.777 46.1428 48.6562C46.0353 48.5353 45.9578 48.3908 45.9167 48.2344C45.8801 48.005 45.9294 47.7702 46.0552 47.5749C46.181 47.3797 46.3744 47.2377 46.5984 47.1761C46.647 47.1689 46.6966 47.1801 46.7374 47.2075C46.8637 47.3052 46.9835 47.4108 47.1175 47.5241C46.9749 47.6176 46.8537 47.691 46.7417 47.7787C46.5834 47.8821 46.4638 48.0351 46.4016 48.2137C46.3792 48.2696 46.3741 48.3309 46.3868 48.3897C46.3995 48.4485 46.4295 48.5022 46.4729 48.5439C46.5692 48.6316 46.679 48.5974 46.7838 48.5503C46.9842 48.4526 47.1503 48.2965 47.2602 48.1025C47.3122 48.0183 47.3693 47.9377 47.4434 47.8236C47.3265 47.4193 47.1995 46.9808 47.0633 46.5051C46.4144 46.7383 45.8161 47.0178 45.165 47.2589L44.9219 46.6699L46.3146 46.1079" fill="#EEEEEE"/>
<path d="M62.8195 53.4653C62.6448 53.4447 62.5506 53.3748 62.5428 53.2065C62.5022 52.7216 62.5327 52.2335 62.6334 51.7575C62.6714 51.5996 62.7409 51.451 62.8379 51.3208C62.9348 51.1905 63.0571 51.0812 63.1974 50.9994C63.2982 50.9215 63.4191 50.8738 63.546 50.8622C63.6729 50.8505 63.8005 50.8753 63.9138 50.9336C64.0271 50.992 64.1214 51.0814 64.1856 51.1915C64.2498 51.3015 64.2813 51.4276 64.2764 51.5549L64.2885 51.7282C64.8411 51.7104 64.9816 51.8495 64.9431 52.3886L65.1849 52.303C65.2562 52.3821 65.3275 52.4549 65.3852 52.5348C65.5635 52.7736 66.0035 52.631 66.1033 52.3693C66.1203 52.3203 66.1231 52.2676 66.1114 52.2171C66.0997 52.1666 66.0739 52.1205 66.037 52.0841C65.9129 51.9336 65.7931 51.7796 65.6569 51.6091L66.1383 51.2098C66.5312 51.6462 66.8714 52.1076 67.2628 52.5761L66.7758 52.9762L66.4613 52.6303C66.4128 52.6888 66.3693 52.7358 66.3308 52.7872C66.1538 53.0194 65.8996 53.1807 65.6141 53.2421C65.4137 53.2765 65.2076 53.2397 65.0315 53.138C64.9782 53.1955 64.9493 53.2715 64.951 53.3499C64.9528 53.4283 64.985 53.503 65.0408 53.558C65.1837 53.7404 65.3787 53.875 65.5999 53.9438C65.7033 53.9802 65.8138 53.9987 65.9614 54.0358C65.773 54.209 65.5734 54.3696 65.3639 54.5165C65.3296 54.5407 65.2469 54.5222 65.1977 54.4993C65.0614 54.4594 64.935 54.3916 64.8263 54.3002C64.7176 54.2088 64.6291 54.0959 64.5664 53.9685C64.5036 53.8411 64.468 53.7021 64.4618 53.5603C64.4556 53.4184 64.4789 53.2768 64.5302 53.1444C64.5965 52.9362 64.7049 52.7408 64.7941 52.5355C64.6129 52.2381 64.4104 52.2096 64.168 52.4577C64.0254 52.6039 63.8884 52.7544 63.7244 52.9284L63.4926 52.4071C63.6075 52.2823 63.7201 52.1568 63.8349 52.0334C63.9227 51.9386 64.0232 51.8509 63.9405 51.7019C63.8972 51.6279 63.8321 51.5691 63.7541 51.5336C63.6761 51.4981 63.589 51.4876 63.5048 51.5036C63.4143 51.5291 63.3307 51.5742 63.2598 51.6359C63.1889 51.6975 63.1325 51.7741 63.0947 51.8602C62.9657 52.1668 62.8906 52.4935 62.873 52.8257C62.8516 53.0346 62.8373 53.245 62.8195 53.4603" fill="#EEEEEE"/>
<path d="M67.0717 79.6708L67.536 79.1652L70.69 80.5293C70.612 80.3143 70.5131 80.1075 70.3948 79.9118C70.2964 79.7043 70.188 79.501 70.0832 79.2971C69.9784 79.0931 69.8749 78.887 69.7708 78.6824L69.4571 78.0691C69.353 77.8645 69.2517 77.6605 69.1426 77.4452L69.599 76.9531C69.6824 77.1129 69.7502 77.2384 69.8129 77.3667L71.4252 80.642C71.5379 80.8716 71.5393 80.873 71.3661 81.0556C71.0637 81.3743 71.1607 81.3508 70.7727 81.1925C69.6142 80.7228 68.4566 80.2505 67.2999 79.7756C67.2322 79.7477 67.1652 79.715 67.0703 79.6708" fill="#EEEEEE"/>
<path d="M30.35 54.9508C30.4484 55.1754 30.5232 55.3744 30.6224 55.5598C30.6726 55.6259 30.7413 55.6755 30.8199 55.7024C31.0338 55.7994 31.2577 55.8849 31.508 55.9876C31.4367 56.1759 31.3654 56.3442 31.2891 56.5403L28.416 55.3779C28.493 55.1882 28.5586 55.0256 28.6399 54.8303C29.0578 54.995 29.4629 55.1547 29.8658 55.3152L29.9093 55.271C29.8722 55.1897 29.838 55.1076 29.8002 55.0271C29.6026 54.6113 29.4079 54.1949 29.2047 53.7827C29.1752 53.7312 29.1588 53.6733 29.1568 53.6141C29.1548 53.5548 29.1673 53.4959 29.1933 53.4426C29.271 53.2757 29.3359 53.1017 29.4251 52.8906C29.4864 53.0176 29.5313 53.1046 29.572 53.1958C29.7181 53.5217 29.8622 53.849 30.0084 54.1749C30.1082 54.3953 30.1153 54.3981 30.3585 54.3496C30.9097 54.2427 31.461 54.1321 32.0115 54.0245C32.1006 54.0081 32.1905 53.9988 32.321 53.9802C32.2269 54.2163 32.1563 54.4159 32.0643 54.6049C32.0173 54.6614 31.9499 54.6971 31.8767 54.704C31.4325 54.7753 30.9861 54.8402 30.5397 54.9066C30.4897 54.9137 30.442 54.9287 30.35 54.9501" fill="#EEEEEE"/>
<path d="M43.2017 43.5171C43.3807 43.4693 43.5582 43.4194 43.7358 43.3745C43.7772 43.371 43.8184 43.3832 43.8513 43.4087C43.9032 43.4467 43.9644 43.4699 44.0284 43.4759C44.0925 43.482 44.1569 43.4706 44.215 43.4429C44.5794 43.3217 44.6657 43.1434 44.5345 42.7798C44.5038 42.6928 44.4632 42.6086 44.4175 42.4902C44.369 42.5616 44.3355 42.6043 44.3098 42.6514C44.2554 42.7608 44.177 42.8565 44.0805 42.9313C43.9839 43.0062 43.8717 43.0582 43.7522 43.0837C43.6327 43.1091 43.509 43.1072 43.3904 43.0782C43.2717 43.0491 43.1611 42.9937 43.0669 42.916C42.8644 42.7637 42.7077 42.5587 42.6139 42.3234C42.52 42.0881 42.4927 41.8315 42.5349 41.5817C42.5506 41.4545 42.5951 41.3324 42.665 41.2249C42.735 41.1174 42.8285 41.0273 42.9385 40.9613C43.0485 40.8954 43.1721 40.8554 43.2999 40.8444C43.4276 40.8334 43.5562 40.8517 43.6759 40.8979C43.7222 40.9136 43.7693 40.9271 43.8413 40.9506L43.7936 40.6775L44.2407 40.5078C44.2698 40.5509 44.2956 40.5962 44.3177 40.6433C44.5452 41.2302 44.7776 41.8164 44.9923 42.4082C45.0604 42.6087 45.1065 42.816 45.1299 43.0265C45.141 43.1211 45.127 43.217 45.0895 43.3046C45.0519 43.3922 44.9921 43.4684 44.916 43.5257C44.5915 43.8081 44.1753 43.9628 43.7451 43.9607C43.616 43.9643 43.4898 43.9217 43.3893 43.8405C43.2889 43.7593 43.2208 43.6448 43.1974 43.5178M43.0783 41.7201C43.0901 41.957 43.1734 42.1847 43.3172 42.3733C43.3732 42.4593 43.4557 42.5248 43.5522 42.5597C43.6487 42.5945 43.754 42.5969 43.852 42.5665C43.9583 42.5331 44.0504 42.4654 44.1142 42.3741C44.1779 42.2828 44.2096 42.1729 44.2043 42.0617C44.1997 41.8043 44.1001 41.5577 43.9248 41.3692C43.8576 41.2944 43.7689 41.2422 43.6708 41.2199C43.5727 41.1976 43.4702 41.2063 43.3773 41.2448C43.2843 41.2833 43.2057 41.3497 43.1521 41.4349C43.0986 41.52 43.0728 41.6197 43.0783 41.7201" fill="#EEEEEE"/>
<path d="M33.625 47.822L34.0236 47.4426L35.3015 48.1129L35.3407 48.0758C35.1218 47.648 34.8416 47.2593 34.6048 46.8229L34.9799 46.4307L36.2792 47.1638C36.1958 46.9211 36.0805 46.6907 35.9362 46.4785C35.8214 46.261 35.6966 46.0506 35.5689 45.8253C35.6895 45.6977 35.7993 45.5828 35.9091 45.4688C36.3451 46.1165 36.7247 46.8005 37.0436 47.5132L36.6493 47.874C36.2585 47.6601 35.847 47.4326 35.437 47.2066L35.3935 47.2522C35.6146 47.6587 35.8749 48.0437 36.1137 48.4645L35.7337 48.8681C35.0427 48.5237 34.3588 48.185 33.6279 47.822" fill="#EEEEEE"/>
<path d="M41.1007 40.8913L42.5982 43.594C42.4499 43.6803 42.3129 43.7609 42.1703 43.8464C42.109 43.7687 42.0584 43.7038 41.9942 43.6261C41.9702 43.6643 41.9488 43.7041 41.93 43.7452C41.8894 43.888 41.8124 44.0177 41.7064 44.1217C41.6005 44.2257 41.4693 44.3004 41.3258 44.3383C41.1823 44.3763 41.0314 44.3763 40.8879 44.3383C40.7444 44.3004 40.6133 44.2257 40.5074 44.1217C40.2041 43.8653 40.0063 43.506 39.9519 43.1127C39.9304 42.9754 39.9421 42.835 39.9858 42.7031C40.0296 42.5713 40.1042 42.4517 40.2034 42.3545C40.3027 42.2573 40.4237 42.1852 40.5564 42.1441C40.6892 42.1031 40.8298 42.0943 40.9666 42.1186C41.0065 42.1236 41.0472 42.1186 41.1313 42.1186L40.6122 41.163L41.1028 40.8906M41.0614 42.4345C40.9901 42.4275 40.9181 42.436 40.8503 42.4594C40.7825 42.4828 40.7206 42.5205 40.6687 42.57C40.6168 42.6194 40.5761 42.6795 40.5495 42.7461C40.5229 42.8126 40.511 42.8842 40.5145 42.9558C40.5422 43.2374 40.6736 43.4987 40.8832 43.6888C40.9562 43.7673 41.0532 43.8192 41.159 43.8362C41.2648 43.8533 41.3733 43.8345 41.4672 43.783C41.5597 43.7294 41.6323 43.6473 41.6741 43.5489C41.7159 43.4505 41.7246 43.3412 41.699 43.2374C41.6517 42.9935 41.5284 42.7708 41.3467 42.6014C41.2593 42.5335 41.1634 42.4774 41.0614 42.4345Z" fill="#EEEEEE"/>
<path d="M66.02 45.7453L65.7997 45.9443L65.4082 45.6384C66.035 44.819 66.6661 44.0225 67.3058 43.2031C67.3899 43.263 67.4655 43.3129 67.5368 43.3686C67.6081 43.4242 67.6645 43.4762 67.7458 43.5447C67.5318 43.8299 67.3243 44.1016 67.094 44.4047C67.1938 44.4168 67.2487 44.4254 67.3043 44.429C67.4344 44.4339 67.5617 44.4679 67.6768 44.5286C67.7919 44.5893 67.8919 44.6751 67.9695 44.7796C68.047 44.8841 68.1001 45.0047 68.1249 45.1325C68.1496 45.2603 68.1453 45.392 68.1123 45.5178C68.0595 45.7341 67.96 45.9362 67.8208 46.1099C67.6816 46.2836 67.506 46.4247 67.3065 46.5233C67.1855 46.5925 67.0493 46.6307 66.9101 46.6343C66.7708 46.638 66.6327 46.6071 66.5083 46.5444C66.3839 46.4816 66.277 46.389 66.1971 46.2748C66.1173 46.1607 66.067 46.0285 66.0507 45.8901C66.0471 45.8573 66.0365 45.8252 66.02 45.7475M66.3331 45.6155C66.3265 45.7014 66.3443 45.7873 66.3845 45.8635C66.4246 45.9396 66.4855 46.0029 66.5601 46.0459C66.6346 46.0889 66.7198 46.11 66.8059 46.1066C66.8919 46.1033 66.9752 46.0757 67.0462 46.027C67.3042 45.8714 67.4924 45.6224 67.5718 45.3317C67.5981 45.2499 67.5992 45.1621 67.5749 45.0797C67.5506 44.9973 67.502 44.9241 67.4356 44.8696C67.3755 44.8089 67.2996 44.7663 67.2165 44.7469C67.1333 44.7275 67.0463 44.732 66.9656 44.7598C66.7952 44.8352 66.6475 44.9539 66.537 45.104C66.4266 45.2541 66.3573 45.4304 66.3359 45.6155" fill="#EEEEEE"/>
<path d="M77.7686 68.1971C77.7323 68.4111 77.6973 68.6086 77.6624 68.8389L73.6348 68.1258C73.6726 67.924 73.7061 67.7529 73.7396 67.5589L74.2937 67.6231C74.1389 67.4348 73.9977 67.2901 73.8886 67.1239C73.8345 67.0365 73.8007 66.9381 73.7896 66.836C73.7785 66.7338 73.7904 66.6304 73.8245 66.5335C73.8803 66.3253 73.9905 66.1358 74.1439 65.9844L74.6866 66.2988C74.6424 66.3801 74.6082 66.4379 74.5775 66.4978C74.5183 66.5875 74.4801 66.6893 74.4655 66.7957C74.4509 66.9022 74.4605 67.0105 74.4934 67.1128C74.5263 67.215 74.5818 67.3086 74.6557 67.3866C74.7296 67.4645 74.8201 67.5249 74.9205 67.5632C75.1681 67.6749 75.4277 67.7577 75.6942 67.8099C76.3025 67.9318 76.9165 68.0281 77.5269 68.1351C77.5939 68.1472 77.6588 68.1679 77.7686 68.1943" fill="#EEEEEE"/>
<path d="M39.1435 57.55V57.9479C39.0066 57.9964 38.8582 58.0562 38.7063 58.0997C38.6277 58.1152 38.5546 58.1515 38.4949 58.205C38.4351 58.2585 38.3909 58.327 38.3669 58.4035C38.3214 58.5136 38.2548 58.6136 38.1708 58.698C38.1267 58.7514 38.0667 58.7891 37.9995 58.8057C37.9324 58.8222 37.8616 58.8167 37.7978 58.79C37.7281 58.7691 37.6656 58.729 37.6173 58.6745C37.5691 58.62 37.537 58.553 37.5247 58.4813C37.5031 58.3491 37.5265 58.2135 37.5911 58.0962C37.6558 57.9789 37.758 57.8867 37.8813 57.8345C37.9479 57.8053 38.0019 57.7535 38.0339 57.6882C38.0659 57.6229 38.0737 57.5484 38.056 57.4779C38.0346 57.2947 37.9069 57.2141 37.7501 57.3068C37.5792 57.4184 37.4149 57.5398 37.258 57.6705C37.1154 57.7789 36.9856 57.9029 36.8359 57.9985C36.7283 58.0668 36.6084 58.1134 36.4829 58.1354C36.4198 58.1497 36.3543 58.1481 36.292 58.1308C36.2298 58.1135 36.1728 58.081 36.1261 58.0363C36.0795 57.9916 36.0447 57.936 36.0248 57.8745C36.0049 57.813 36.0006 57.7476 36.0122 57.684C36.0128 57.6583 36.0172 57.6329 36.0251 57.6084C36.239 57.0437 36.4529 56.4803 36.6669 55.9062C36.872 55.9435 37.0712 56.0077 37.2594 56.0974L36.7531 57.4572L36.7995 57.4815C36.8524 57.4182 36.9093 57.3585 36.9699 57.3025C37.146 57.1445 37.3349 57.0014 37.5347 56.8746C37.601 56.83 37.6763 56.8005 37.7552 56.788C37.8342 56.7756 37.9149 56.7805 37.9917 56.8025C38.0685 56.8246 38.1396 56.8631 38.2 56.9154C38.2604 56.9678 38.3086 57.0327 38.3412 57.1057C38.4267 57.2829 38.4982 57.4665 38.5552 57.6548C38.6265 57.6441 38.7213 57.6305 38.8176 57.6141C38.9138 57.5977 39.0151 57.5763 39.147 57.5514" fill="#EEEEEE"/>
<path d="M65.8906 58.8722C65.9555 58.587 66.0069 58.3609 66.0525 58.1384C66.0768 58.0215 66.1759 58.0072 66.26 57.9737C66.8904 57.7165 67.521 57.461 68.1519 57.2071C68.3808 57.1144 68.6068 57.0188 68.8543 56.9176C68.8045 56.7631 68.757 56.6078 68.7117 56.4519L69.2871 56.2188L69.9489 57.846C69.7542 57.928 69.5717 58.0051 69.3649 58.0906L69.1324 57.5672L67.5372 58.209C67.0109 58.4229 66.4825 58.6369 65.897 58.8715" fill="#EEEEEE"/>
<path d="M71.0002 51.6575C71.0409 51.5747 71.0715 51.5077 71.1114 51.4321C71.0469 51.401 70.9818 51.3713 70.9161 51.343C70.799 51.2913 70.6938 51.2163 70.6069 51.1224C70.52 51.0286 70.4531 50.918 70.4104 50.7975C70.3555 50.6714 70.3445 50.5306 70.3792 50.3975C70.4138 50.2645 70.4922 50.1469 70.6016 50.0637C70.7086 49.9703 70.8453 49.918 70.9873 49.9162C71.1293 49.9143 71.2673 49.9631 71.3767 50.0537C71.508 50.1612 71.6335 50.2757 71.7525 50.3967C71.8524 50.4887 71.9508 50.5828 72.0527 50.6741C72.0784 50.6919 72.1062 50.7065 72.1355 50.7176C72.3494 50.5892 72.3858 50.5194 72.3494 50.361C72.3184 50.238 72.2459 50.1295 72.1442 50.0536C72.0425 49.9778 71.9178 49.9393 71.791 49.9446C71.7604 49.8776 71.7197 49.802 71.6912 49.7257C71.6627 49.6494 71.6413 49.5873 71.6127 49.5032C71.7342 49.4551 71.8666 49.4413 71.9953 49.4633C72.1241 49.4853 72.2444 49.5423 72.343 49.628C72.5731 49.8327 72.7452 50.0944 72.8421 50.3867C72.8951 50.505 72.9039 50.6383 72.8668 50.7625C72.8298 50.8867 72.7494 50.9935 72.6403 51.0634C72.4264 51.2168 72.2039 51.358 71.9829 51.502C71.7132 51.6508 71.4761 51.852 71.2854 52.0939C71.187 51.942 71.1014 51.8086 71.0038 51.6596M71.8053 50.9123C71.6508 50.7583 71.4875 50.6135 71.3161 50.4787C71.2767 50.4478 71.2293 50.4286 71.1794 50.4236C71.1295 50.4185 71.0792 50.4278 71.0344 50.4502C70.9896 50.4726 70.952 50.5073 70.9262 50.5502C70.9003 50.5931 70.8871 50.6425 70.8882 50.6926C70.8869 50.8013 70.9226 50.9072 70.9895 50.9928C71.1913 51.2431 71.4958 51.2139 71.8017 50.9108" fill="#EEEEEE"/>
<path d="M33.5454 48.6896C33.8483 48.6985 34.1361 48.8237 34.3491 49.0393C34.562 49.2549 34.6837 49.5442 34.6888 49.8472C34.694 50.1502 34.5822 50.4435 34.3767 50.6662C34.1712 50.8888 33.8877 51.0237 33.5853 51.0429C33.2727 51.0314 32.9754 50.9042 32.7514 50.6858C32.5273 50.4674 32.3925 50.1735 32.373 49.8613C32.3796 49.5523 32.5052 49.2577 32.7236 49.039C32.942 48.8203 33.2364 48.6944 33.5454 48.6875M33.4334 49.2245C33.3462 49.2209 33.2595 49.2389 33.1809 49.2769C33.1023 49.3148 33.0342 49.3716 32.9828 49.4421C32.9313 49.5126 32.898 49.5946 32.8858 49.6811C32.8736 49.7675 32.8829 49.8556 32.9129 49.9376C32.9804 50.0933 33.0892 50.2276 33.2274 50.3261C33.3656 50.4246 33.5281 50.4836 33.6973 50.4966C33.7846 50.4977 33.8709 50.4774 33.9485 50.4374C34.0261 50.3974 34.0928 50.339 34.1426 50.2673C34.1924 50.1956 34.2239 50.1128 34.2343 50.0261C34.2447 49.9394 34.2336 49.8514 34.2022 49.77C34.1329 49.6196 34.0253 49.49 33.8901 49.3944C33.7549 49.2988 33.5969 49.2404 33.432 49.2252" fill="#EEEEEE"/>
<path d="M39.4937 44.6534L39.9722 44.4395C40.0206 44.5719 40.0344 44.7144 40.0122 44.8536C39.9899 44.9928 39.9325 45.1239 39.8452 45.2346C39.6778 45.4638 39.4357 45.6275 39.1606 45.6974C39.0161 45.738 38.8638 45.7421 38.7174 45.7093C38.5709 45.6766 38.4348 45.6081 38.3213 45.5099C38.0364 45.2877 37.8401 44.9711 37.768 44.6171C37.7264 44.4372 37.7395 44.249 37.8055 44.0766C37.8716 43.9042 37.9876 43.7554 38.1388 43.6494C38.2815 43.5253 38.4576 43.4462 38.6452 43.422C38.8327 43.3977 39.0232 43.4295 39.1927 43.5132C39.4448 43.6452 39.6533 43.8473 39.7932 44.0951C39.4045 44.4024 38.9831 44.6542 38.6016 44.9508C38.6529 45.0624 38.7435 45.1511 38.8561 45.2C38.9687 45.249 39.0954 45.2547 39.212 45.2161C39.4302 45.1448 39.5072 44.9971 39.4972 44.6549M39.1407 44.1557C38.9054 43.8476 38.6415 43.7927 38.4212 43.976C38.3729 44.0187 38.3344 44.0712 38.3083 44.1301C38.2821 44.189 38.269 44.2528 38.2697 44.3172C38.2705 44.3816 38.2851 44.4451 38.3126 44.5034C38.3401 44.5617 38.3798 44.6133 38.429 44.6549L39.1421 44.1557" fill="#EEEEEE"/>
<path d="M45.8358 41.3713C45.9356 41.6879 46.0997 41.8341 46.3229 41.8362C46.5461 41.8383 46.6737 41.7321 46.7864 41.4026L47.3162 41.3584C47.3126 41.4959 47.2763 41.6305 47.2101 41.751C47.144 41.8716 47.0501 41.9746 46.9361 42.0516C46.7157 42.1997 46.455 42.2761 46.1895 42.2705C46.0653 42.2742 45.9419 42.2501 45.8282 42.1998C45.7146 42.1496 45.6136 42.0746 45.5327 41.9802C45.3743 41.8066 45.261 41.5968 45.2028 41.3691C45.1447 41.1414 45.1433 40.9029 45.199 40.6746C45.2397 40.49 45.3363 40.3225 45.4756 40.1949C45.615 40.0673 45.7903 39.9858 45.9777 39.9615C46.1689 39.9103 46.3714 39.9211 46.5559 39.9925C46.7405 40.0639 46.8976 40.1921 47.0046 40.3587C47.1392 40.5424 47.2219 40.7588 47.2442 40.9855L45.8358 41.3741M46.6202 40.8072C46.4933 40.4243 46.2494 40.2852 45.9784 40.4057C45.9213 40.4309 45.8703 40.4681 45.8288 40.5147C45.7873 40.5613 45.7564 40.6164 45.738 40.676C45.7197 40.7357 45.7144 40.7986 45.7226 40.8605C45.7307 40.9224 45.7521 40.9818 45.7852 41.0347C46.0569 40.9634 46.3321 40.8863 46.6216 40.8072" fill="#EEEEEE"/>
<path d="M73.9279 55.1376C73.7139 54.6877 73.5136 54.2584 73.3125 53.8334C73.2006 53.8501 73.0991 53.9082 73.0279 53.9961C72.9567 54.084 72.9211 54.1954 72.9281 54.3083C72.9359 54.565 73.0529 54.6741 73.4337 54.7647L73.5684 55.246C73.4405 55.2769 73.3067 55.2738 73.1803 55.2368C73.0539 55.1999 72.9395 55.1306 72.8482 55.0357C72.6206 54.8242 72.4851 54.5317 72.471 54.2213C72.4672 54.0525 72.5031 53.8852 72.5758 53.7328C72.7307 53.4938 72.9518 53.3049 73.2121 53.1892C73.4724 53.0735 73.7607 53.0359 74.042 53.0811C74.2096 53.1294 74.3623 53.2194 74.4856 53.3428C74.609 53.4661 74.6991 53.6188 74.7474 53.7864C74.7957 53.9541 74.8007 54.1312 74.7618 54.3013C74.723 54.4714 74.6417 54.6289 74.5254 54.759C74.3612 54.9334 74.1557 55.0636 73.9279 55.1376M73.9842 54.4695C74.3058 54.3468 74.4278 54.0958 74.3115 53.8427C74.1953 53.5895 73.9293 53.5225 73.6148 53.6779L73.9842 54.4695" fill="#EEEEEE"/>
<path d="M69.5141 48.0612C69.1612 47.6996 68.8303 47.3588 68.5015 47.02C68.4027 47.0763 68.3273 47.166 68.2889 47.2729C68.2504 47.3799 68.2515 47.4971 68.2919 47.6034C68.3796 47.8301 68.5272 47.8936 68.9258 47.8679C68.9829 47.9492 69.0471 48.0376 69.1077 48.1289C69.1405 48.1774 69.1661 48.2302 69.2004 48.2922C69.0739 48.3669 68.9289 48.404 68.7821 48.3992C68.6354 48.3944 68.493 48.3479 68.3718 48.2651C68.2099 48.1561 68.0668 48.0215 67.9482 47.8665C67.8335 47.7267 67.765 47.5548 67.7522 47.3744C67.7394 47.194 67.783 47.0141 67.8769 46.8596C68.0397 46.5461 68.306 46.2987 68.6306 46.1593C68.8238 46.0818 69.0361 46.0652 69.239 46.1119C69.4419 46.1586 69.6256 46.2664 69.7654 46.4206C69.9052 46.5749 69.9944 46.7683 70.021 46.9747C70.0476 47.1812 70.0103 47.3909 69.9142 47.5755C69.8134 47.7619 69.6772 47.9268 69.5134 48.0612M69.3508 47.4194C69.6247 47.1527 69.6425 46.8838 69.4257 46.6877C69.3767 46.6446 69.3188 46.6126 69.2562 46.5941C69.1935 46.5755 69.1276 46.5709 69.0629 46.5805C68.9983 46.59 68.9365 46.6136 68.8819 46.6495C68.8274 46.6854 68.7813 46.7327 68.7468 46.7883L69.3508 47.4194" fill="#EEEEEE"/>
<path d="M60.8193 41.9724L59.4472 41.5345C59.3856 41.6293 59.3602 41.743 59.3755 41.8549C59.3908 41.9668 59.4459 42.0695 59.5307 42.1442C59.7282 42.3147 59.9008 42.3004 60.2067 42.0729L60.6638 42.3125C60.5861 42.4427 60.4722 42.5475 60.3359 42.614C60.1996 42.6805 60.0469 42.7058 59.8965 42.6869C59.6947 42.6636 59.4984 42.6059 59.316 42.5165C59.1562 42.4422 59.0229 42.321 58.9337 42.169C58.8445 42.017 58.8038 41.8415 58.8168 41.6658C58.8184 41.322 58.9343 40.9886 59.1463 40.718C59.271 40.5539 59.4448 40.4339 59.6425 40.3755C59.8402 40.3172 60.0514 40.3235 60.2452 40.3936C60.4498 40.4461 60.6306 40.5663 60.7582 40.7346C60.8859 40.9029 60.9529 41.1094 60.9483 41.3206C60.9594 41.5452 60.9159 41.7691 60.8214 41.9731M60.3836 41.4818C60.4368 41.3917 60.4579 41.2862 60.4434 41.1826C60.4289 41.0789 60.3796 40.9833 60.3037 40.9113C60.2457 40.8476 60.1687 40.8043 60.0842 40.7879C59.9997 40.7714 59.9121 40.7827 59.8345 40.82C59.7516 40.8462 59.6798 40.8993 59.6305 40.9708C59.5811 41.0423 59.5571 41.1283 59.5621 41.2151L60.3836 41.4803" fill="#EEEEEE"/>
<path d="M33.208 52.3665C32.9342 52.2089 32.6774 52.0606 32.4193 51.9151C32.2646 51.8267 32.1112 51.734 31.9501 51.657C31.7133 51.5436 31.5507 51.5757 31.4267 51.7432C31.3578 51.8317 31.3237 51.9423 31.3307 52.0542C31.3376 52.166 31.3852 52.2715 31.4645 52.3508C31.5567 52.4389 31.6594 52.5153 31.7704 52.5783C32.0257 52.7337 32.2845 52.8785 32.542 53.029C32.6061 53.0682 32.6682 53.1103 32.7459 53.1609L32.4742 53.6415C31.8324 53.27 31.1992 52.907 30.5488 52.5291L30.7891 52.0912C30.884 52.1269 30.9603 52.1561 31.0594 52.1925C31.0473 52.0855 31.038 52.0042 31.0309 51.9222C31.01 51.7434 31.0444 51.5625 31.1293 51.4038C31.1643 51.3133 31.2189 51.2317 31.2892 51.1649C31.3595 51.0981 31.4438 51.0477 31.5359 51.0173C31.6281 50.987 31.7258 50.9774 31.8221 50.9894C31.9184 51.0013 32.0108 51.0345 32.0927 51.0865C32.5598 51.3297 33.0112 51.6021 33.4947 51.8759C33.3963 52.0477 33.3085 52.1982 33.2094 52.3665" fill="#EEEEEE"/>
<path d="M75.3667 57.1818C75.2839 57.0392 75.2026 56.8966 75.1163 56.7497C75.2025 56.6479 75.2503 56.519 75.2513 56.3856C75.2524 56.2522 75.2066 56.1227 75.1221 56.0195C75.0743 55.9389 75.0072 55.8605 74.8953 55.8983C74.855 55.9141 74.8215 55.9437 74.8008 55.9818C74.78 56.0198 74.7734 56.064 74.7819 56.1065C74.7862 56.242 74.7976 56.3782 74.804 56.5129C74.8211 56.6995 74.8275 56.8869 74.8233 57.0742C74.8206 57.1707 74.7946 57.2651 74.7474 57.3493C74.7002 57.4335 74.6332 57.505 74.5522 57.5575C74.4712 57.6101 74.3787 57.6422 74.2825 57.651C74.1864 57.6599 74.0895 57.6452 74.0003 57.6083C73.8372 57.5542 73.6968 57.447 73.6017 57.3038C73.3915 57.0104 73.2906 56.6526 73.3165 56.2926C73.3237 56.1688 73.3604 56.0484 73.4237 55.9417C73.487 55.835 73.5749 55.745 73.6801 55.6793L73.9376 56.1535C73.8297 56.244 73.7598 56.3718 73.7417 56.5114C73.7236 56.651 73.7587 56.7923 73.8399 56.9073C73.8687 56.9595 73.9066 57.0061 73.9519 57.0449C73.9775 57.0743 74.0116 57.095 74.0495 57.1042C74.0874 57.1135 74.1272 57.1108 74.1635 57.0966C74.1999 57.0824 74.2309 57.0574 74.2525 57.0249C74.2741 56.9925 74.2851 56.9541 74.2842 56.9151C74.2865 56.8301 74.2824 56.745 74.272 56.6606C74.2606 56.4402 74.2414 56.2192 74.2421 55.9988C74.2347 55.8743 74.2687 55.7509 74.3387 55.6477C74.4087 55.5446 74.5109 55.4674 74.6293 55.4283C74.7488 55.3789 74.881 55.3694 75.0063 55.4013C75.1316 55.4332 75.2432 55.5047 75.3246 55.6052C75.5689 55.8946 75.6993 56.2633 75.6911 56.642C75.691 56.7528 75.661 56.8615 75.6045 56.9567C75.5479 57.0519 75.4667 57.1302 75.3695 57.1833" fill="#EEEEEE"/>
<path d="M38.469 85.4549L37.9121 85.0919L40.1363 81.6641L40.6954 82.0249L38.469 85.4549" fill="#EEEEEE"/>
<path d="M73.506 78.4811L73.1252 79.0251L69.7793 76.6826L70.1551 76.1328L73.5067 78.4811" fill="#EEEEEE"/>
<path d="M57.43 88.943L56.7768 89.06L55.998 85.0552C56.2191 85.0138 56.4216 84.9746 56.6513 84.9297L57.43 88.943Z" fill="#EEEEEE"/>
<path d="M63.6374 40.9347L64.1601 41.2199L62.9143 43.4733L64.2742 44.2399C64.1972 44.3825 64.1316 44.513 64.0453 44.6678L62.1484 43.6181C62.6476 42.7217 63.134 41.8403 63.6374 40.9297" fill="#EEEEEE"/>
<path d="M72.4435 53.1954L72.1091 53.4479C72.0099 53.3414 71.9182 53.2282 71.8345 53.1091C71.7841 53.0501 71.7481 52.9801 71.7295 52.9047C71.7108 52.8294 71.71 52.7507 71.7271 52.6749C71.7442 52.5992 71.7787 52.5285 71.828 52.4684C71.8772 52.4084 71.9397 52.3606 72.0107 52.329C72.2767 52.1593 72.5526 52.0081 72.8236 51.8477C72.9113 51.7963 72.9976 51.7428 73.0967 51.6829L73.0161 51.4241C73.1224 51.3599 73.2301 51.2972 73.3491 51.2266L73.5239 51.4191C73.5591 51.413 73.5932 51.4009 73.6244 51.3834C73.664 51.3449 73.7108 51.3145 73.7622 51.2942C73.8135 51.2738 73.8684 51.2638 73.9237 51.2648C73.9789 51.2658 74.0334 51.2778 74.084 51.3C74.1346 51.3222 74.1803 51.3542 74.2184 51.3941C74.2833 51.4441 74.3568 51.4833 74.4609 51.551L73.8148 51.9382C73.8704 52.0559 73.9211 52.1614 73.9831 52.2948C73.8704 52.3661 73.7606 52.4338 73.6365 52.5087L73.3919 52.1743C73.0482 52.3761 72.7109 52.57 72.3779 52.7718C72.3546 52.7836 72.3344 52.8006 72.3189 52.8216C72.3033 52.8425 72.2929 52.8668 72.2884 52.8925C72.2839 52.9182 72.2854 52.9446 72.2929 52.9696C72.3004 52.9945 72.3137 53.0174 72.3315 53.0364C72.3643 53.0842 72.4029 53.1305 72.4435 53.194" fill="#EEEEEE"/>
<path d="M35.8734 44.4034L36.3105 44.0469L38.2937 46.4101L37.8658 46.783L35.8691 44.4049" fill="#EEEEEE"/>
<path d="M58.4896 48.7065C58.6186 48.4547 58.727 48.2365 58.8418 48.0205C58.8903 47.9292 58.9773 47.927 59.0657 47.9491C59.1955 47.9768 59.3174 48.0335 59.4222 48.1149C59.527 48.1962 59.6121 48.3002 59.6712 48.4191C59.8219 48.7239 59.8562 49.0732 59.7675 49.4015C59.6789 49.7297 59.4735 50.0143 59.1898 50.2018C59.1136 50.2585 59.0198 50.2866 58.925 50.2813C58.8301 50.276 58.7401 50.2375 58.6707 50.1726C58.6274 50.1424 58.5933 50.1009 58.5722 50.0525C58.5511 50.0041 58.5439 49.9508 58.5513 49.8986C58.5587 49.8463 58.5804 49.7972 58.6141 49.7565C58.6477 49.7159 58.692 49.6854 58.742 49.6684C58.8677 49.6189 58.9873 49.5553 59.0986 49.4787C59.193 49.4073 59.27 49.3154 59.3239 49.2099C59.3485 49.1672 59.3629 49.1193 59.3659 49.07C59.3688 49.0208 59.3603 48.9715 59.3409 48.9261C59.3215 48.8808 59.2919 48.8405 59.2543 48.8086C59.2167 48.7766 59.1721 48.7539 59.1242 48.7421C58.984 48.7083 58.8405 48.6896 58.6963 48.6865C58.6245 48.6881 58.5529 48.696 58.4824 48.71" fill="#EEEEEE"/>
<path d="M69.5112 49.5571L69.1582 49.1221L70.8911 47.7188L71.2048 48.0988L71.0365 48.3128C71.2455 48.3434 71.4508 48.3263 71.5878 48.496C71.634 48.5449 71.6699 48.6025 71.6935 48.6654C71.7172 48.7284 71.728 48.7954 71.7254 48.8626L71.2975 49.0244C71.264 48.9603 71.2398 48.9068 71.212 48.8569C71.1941 48.8081 71.1656 48.7639 71.1284 48.7277C71.0911 48.6914 71.0462 48.664 70.997 48.6475C70.9477 48.631 70.8954 48.6258 70.8438 48.6323C70.7923 48.6388 70.7429 48.6568 70.6992 48.685C70.5407 48.7674 70.3905 48.8648 70.2507 48.9759C70.0061 49.1585 69.7715 49.3532 69.5126 49.5585" fill="#EEEEEE"/>
<path d="M34.7383 57.8823L35.5719 55.7109L36.1695 55.9391L35.3373 58.1098L34.7383 57.8823" fill="#EEEEEE"/>
<path d="M65.6308 43.0938L66.11 43.3918L64.9306 45.2823L64.4492 44.9856C64.8478 44.3438 65.2336 43.7298 65.6308 43.0938" fill="#EEEEEE"/>
<path d="M65.1513 57.75C65.2704 57.8007 65.3782 57.8748 65.468 57.9681C65.5578 58.0613 65.6279 58.1717 65.674 58.2927C65.7098 58.361 65.7292 58.4366 65.7308 58.5137C65.7324 58.5908 65.7162 58.6672 65.6833 58.7369C65.6161 58.8836 65.5337 59.0227 65.4373 59.152C65.2369 59.4058 65.0201 59.6461 64.8069 59.8893C64.7006 60.0091 64.6964 60.0055 64.4824 59.93C64.5159 59.8722 64.5437 59.8144 64.5801 59.7624C64.7719 59.4907 64.9695 59.224 65.1563 58.9494C65.284 58.7612 65.2754 58.7113 65.1164 58.5522C65.0023 58.4389 64.8803 58.3326 64.7413 58.2035C64.8083 58.1265 64.8711 58.0509 64.9381 57.9782C65.0051 57.9055 65.0771 57.8292 65.152 57.75" fill="#EEEEEE"/>
<path d="M60.9637 47.9689C60.5038 47.735 60.0673 47.511 59.6152 47.2814C59.7136 47.0882 59.7999 46.9142 59.9005 46.7109L61.2504 47.3955C61.1513 47.5938 61.0614 47.7713 60.9651 47.966" fill="#EEEEEE"/>
<path d="M62.4686 48.6549L62.4622 48.6606C62.4001 48.7441 62.3317 48.7155 62.2625 48.672C61.881 48.4339 61.4988 48.1964 61.0938 47.9425C61.2057 47.7607 61.3077 47.5917 61.4289 47.3984C61.8568 47.6651 62.2725 47.9233 62.6997 48.1907L62.4686 48.6549Z" fill="#EEEEEE"/>
<path d="M69.1162 76.2078L68.4844 75.7664L68.8673 75.2266L69.492 75.6615C69.3658 75.8448 69.251 76.0102 69.1162 76.2078" fill="#EEEEEE"/>
<path d="M40.9889 80.3523L41.5252 80.701C41.4142 80.9324 41.2788 81.1514 41.1215 81.3542C40.9404 81.2365 40.765 81.1246 40.5703 80.9976C40.7129 80.7759 40.8456 80.574 40.9889 80.3516" fill="#EEEEEE"/>
<path d="M65.8184 42.788L66.0893 42.3516L66.5657 42.6432L66.2961 43.0825L65.8184 42.788Z" fill="#EEEEEE"/>
<path d="M87.1723 79.7797L84.9924 73.9066L84.4219 73.8352V73.1272H86.8393V73.8352L86.2375 73.9315L87.6216 77.9855L87.745 78.4183H87.7735L87.9011 77.9905L89.3045 73.9258L88.6128 73.8331V73.125H90.9582V73.8331L90.382 73.9044L88.2841 79.7775L87.1723 79.7797Z" fill="#EEEEEE"/>
<path d="M91.4766 79.7726V79.0687L92.2039 78.9311V73.9615L91.4766 73.8253V73.1172H94.0773V73.8253L93.3549 73.9615V78.9297L94.0773 79.0673V79.7711L91.4766 79.7726Z" fill="#EEEEEE"/>
<path d="M94.6855 79.7787V79.0755L95.4172 78.9329V73.9776L94.6855 73.835V73.1262H97.4738C98.0138 73.1106 98.5469 73.2511 99.0091 73.5307C99.4714 73.8103 99.8433 74.2173 100.08 74.7028C100.337 75.2272 100.466 75.8054 100.455 76.3893V76.5212C100.465 77.1007 100.339 77.6745 100.089 78.197C99.8589 78.6834 99.4922 79.0922 99.0336 79.3734C98.575 79.6545 98.0443 79.7959 97.5066 79.7801L94.6855 79.7787ZM96.5696 78.893H97.4474C97.8059 78.9029 98.1574 78.7924 98.4458 78.5792C98.73 78.3588 98.9489 78.0653 99.079 77.7299C99.23 77.3439 99.3043 76.9321 99.2979 76.5177V76.3815C99.3053 75.9634 99.2309 75.548 99.079 75.1585C98.9493 74.8259 98.7301 74.5357 98.4458 74.3199C98.1552 74.1119 97.8046 74.0045 97.4474 74.014H96.5696V78.893Z" fill="#EEEEEE"/>
<path d="M102.621 79.7789V79.0751L103.343 78.9375V77.44L101.342 73.9258L100.738 73.8338V73.1257H103.243V73.8338L102.608 73.9166L103.842 76.2477L103.943 76.448L103.961 76.4388L104.057 76.252L105.391 73.9158L104.638 73.8331V73.125H107.092V73.8331L106.466 73.9251L104.491 77.348V78.9389L105.219 79.0765V79.7804L102.621 79.7789Z" fill="#EEEEEE"/>
<path d="M106.395 79.774V79.0701L106.878 78.9988L109.082 73.1172H110.202L112.377 78.9988L112.862 79.0701V79.774H110.746V79.0701L111.221 78.9832L110.869 77.937H108.393L108.031 78.9832L108.51 79.0701V79.774H106.395ZM108.693 77.0542H110.575L109.711 74.5905L109.651 74.4122H109.623L109.56 74.5997L108.693 77.0542Z" fill="#EEEEEE"/>
<path d="M115.01 79.7789L112.83 73.9058L112.26 73.8345V73.1264H114.677V73.8345L114.074 73.9308L115.459 77.9848L115.582 78.4176H115.61L115.738 77.9898L117.142 73.9251L116.451 73.8331V73.125H118.796V73.8331L118.22 73.9044L116.123 79.7775L115.01 79.7789Z" fill="#EEEEEE"/>
<path d="M119.32 79.7726V79.0687L120.046 78.9311V73.9615L119.32 73.8253V73.1172H121.917V73.8253L121.195 73.9615V78.9297L121.917 79.0673V79.7711L119.32 79.7726Z" fill="#EEEEEE"/>
<path d="M122.527 79.7726V79.0687L123.253 78.9311V73.9615L122.527 73.8253V73.1172H125.132V73.8253L124.405 73.9615V76.0373H127.317V73.9615L126.591 73.8253V73.1172H129.19V73.8253L128.463 73.9615V78.9297L129.19 79.0673V79.7711H126.589V79.0673L127.315 78.9297V76.933H124.404V78.9297L125.131 79.0673V79.7711L122.527 79.7726Z" fill="#EEEEEE"/>
<path d="M129.479 79.774V79.0701L129.963 78.9988L132.166 73.1172H133.286L135.462 78.9988L135.946 79.0701V79.774H133.83V79.0701L134.306 78.9832L133.953 77.937H131.476L131.114 78.9832L131.594 79.0701V79.774H129.479ZM131.778 77.0542H133.657L132.793 74.5905L132.733 74.4122H132.705L132.641 74.5997L131.778 77.0542Z" fill="#EEEEEE"/>
<path d="M136.49 79.7744V79.0706L137.218 78.933V73.9634L136.49 73.8265V73.1184H139.566C140.005 73.1065 140.442 73.1849 140.849 73.3487C141.179 73.4831 141.461 73.713 141.659 74.009C141.841 74.3212 141.937 74.6762 141.937 75.0377C141.937 75.3991 141.841 75.7541 141.659 76.0663C141.47 76.3593 141.202 76.5928 140.886 76.7395C140.521 76.9073 140.125 76.9928 139.723 76.9898L138.369 77.004V78.9294L139.096 79.067V79.7709L136.49 79.7744ZM138.369 76.1091H139.517C139.857 76.1357 140.197 76.0427 140.476 75.846C140.583 75.7502 140.666 75.6316 140.72 75.499C140.773 75.3665 140.796 75.2235 140.787 75.0808C140.794 74.937 140.77 74.7933 140.719 74.659C140.667 74.5247 140.587 74.4026 140.486 74.3007C140.229 74.088 139.899 73.9839 139.566 74.0104H138.369V76.1091ZM140.819 79.7744L139.549 76.7117L140.627 76.5341L141.705 78.9522L142.226 79.062V79.7751L140.819 79.7744Z" fill="#EEEEEE"/>
<path d="M148.394 79.8681C147.939 79.8771 147.488 79.7846 147.073 79.5971C146.704 79.4288 146.391 79.1561 146.175 78.8127C145.951 78.4395 145.839 78.0098 145.852 77.5748V73.9615L145.125 73.8253V73.1172H147.727V73.8253L147.001 73.9615V77.5726C146.992 77.8415 147.052 78.1082 147.174 78.3478C147.285 78.5509 147.456 78.7144 147.664 78.8156C147.894 78.9237 148.146 78.9772 148.4 78.9718C148.659 78.9778 148.916 78.9244 149.151 78.8156C149.36 78.7147 149.533 78.5518 149.645 78.3492C149.77 78.11 149.831 77.8424 149.821 77.5726V73.9615L149.095 73.8253V73.1172H151.695V73.8253L150.972 73.9615V77.5726C150.987 78.0107 150.875 78.4436 150.65 78.8199C150.433 79.1634 150.119 79.4347 149.748 79.5993C149.321 79.7862 148.859 79.8775 148.393 79.8667" fill="#EEEEEE"/>
<path d="M152.24 79.7726V79.0687L152.967 78.9311V73.9615L152.24 73.8253V73.1172H154.132L157.185 77.9756L157.213 77.9656V73.9615L156.372 73.8253V73.1172H158.977V73.8253L158.251 73.9615V79.7711H157.158L154.032 74.9306L154.005 74.9349V78.9283L154.847 79.0659V79.7697L152.24 79.7726Z" fill="#EEEEEE"/>
<path d="M159.545 79.7726V79.0687L160.272 78.9311V73.9615L159.545 73.8253V73.1172H162.146V73.8253L161.424 73.9615V78.9297L162.146 79.0673V79.7711L159.545 79.7726Z" fill="#EEEEEE"/>
<path d="M165.416 79.7789L163.237 73.9058L162.666 73.8345V73.1264H165.083V73.8345L164.482 73.9308L165.866 77.9848L165.989 78.4176H166.018L166.145 77.9898L167.549 73.9251L166.858 73.8331V73.125H169.204V73.8331L168.628 73.9044L166.53 79.7775L165.416 79.7789Z" fill="#EEEEEE"/>
<path d="M169.719 79.7726V79.0687L170.446 78.9311V73.9615L169.719 73.8253V73.1172H174.788V74.8286H173.892L173.814 74.0014H171.598V75.8869H173.934V76.7782H171.598V78.894H173.937L174.015 78.0497H174.899V79.7718L169.719 79.7726Z" fill="#EEEEEE"/>
<path d="M175.691 79.7744V79.0706L176.418 78.933V73.9634L175.691 73.8265V73.1184H178.767C179.206 73.1065 179.643 73.1849 180.051 73.3487C180.38 73.4832 180.662 73.7131 180.859 74.009C181.007 74.2339 181.104 74.4878 181.145 74.7536C181.186 75.0194 181.17 75.291 181.097 75.5498C181.024 75.8087 180.896 76.0488 180.722 76.2541C180.548 76.4593 180.332 76.6248 180.089 76.7395C179.725 76.9075 179.327 76.993 178.926 76.9898L177.571 77.004V78.9294L178.298 79.067V79.7709L175.691 79.7744ZM177.57 76.1091H178.717C179.058 76.1359 179.397 76.0428 179.676 75.846C179.783 75.7502 179.866 75.6317 179.92 75.4991C179.974 75.3666 179.997 75.2236 179.987 75.0808C179.994 74.937 179.971 74.7933 179.919 74.6589C179.867 74.5246 179.788 74.4025 179.686 74.3007C179.429 74.0882 179.099 73.9841 178.767 74.0104H177.57V76.1091ZM180.02 79.7744L178.748 76.7117L179.828 76.5341L180.906 78.9522L181.427 79.062V79.7751L180.02 79.7744Z" fill="#EEEEEE"/>
<path d="M184.663 79.8637C184.235 79.8676 183.809 79.8107 183.397 79.6947C182.987 79.5736 182.602 79.3836 182.256 79.1328V77.6011H183.148L183.291 78.5937C183.473 78.7185 183.674 78.8129 183.887 78.8732C184.137 78.9451 184.397 78.9804 184.658 78.9781C184.891 78.9847 185.123 78.945 185.341 78.8611C185.51 78.7944 185.657 78.6809 185.764 78.5338C185.862 78.3862 185.912 78.2118 185.907 78.0346C185.91 77.8686 185.866 77.7052 185.779 77.5633C185.67 77.4064 185.523 77.2799 185.351 77.196C185.095 77.0656 184.825 76.9649 184.546 76.8958C184.114 76.7867 183.696 76.6273 183.301 76.4209C182.999 76.2669 182.74 76.0408 182.547 75.7627C182.374 75.4828 182.286 75.159 182.292 74.8302C182.299 74.5014 182.4 74.1815 182.584 73.9087C182.79 73.6246 183.068 73.4005 183.39 73.2597C183.766 73.0951 184.173 73.0124 184.583 73.0173C185.028 73.0041 185.471 73.0693 185.893 73.2098C186.242 73.3271 186.568 73.505 186.855 73.7354V75.1694H185.994L185.829 74.2367C185.679 74.1367 185.515 74.0607 185.341 74.0113C185.113 73.9441 184.875 73.9123 184.636 73.9172C184.426 73.9132 184.218 73.952 184.024 74.0313C183.858 74.099 183.714 74.2105 183.607 74.3536C183.505 74.4984 183.453 74.6722 183.457 74.8492C183.453 75.0061 183.499 75.16 183.589 75.2885C183.707 75.4363 183.859 75.5531 184.032 75.6286C184.304 75.7544 184.585 75.8577 184.874 75.9374C185.475 76.0702 186.037 76.3426 186.514 76.7325C186.695 76.8946 186.839 77.0943 186.935 77.3177C187.032 77.5412 187.078 77.7829 187.071 78.0261C187.077 78.3722 186.972 78.7112 186.771 78.993C186.556 79.2811 186.265 79.5034 185.93 79.6349C185.527 79.7951 185.096 79.8726 184.662 79.863" fill="#EEEEEE"/>
<path d="M187.699 79.7726V79.0687L188.425 78.9311V73.9615L187.699 73.8253V73.1172H190.297V73.8253L189.575 73.9615V78.9297L190.297 79.0673V79.7711L187.699 79.7726Z" fill="#EEEEEE"/>
<path d="M192.495 79.7789V79.0751L193.221 78.9375V74.0057H191.883L191.782 74.8571H190.918V73.125H196.682V74.8571H195.813L195.713 74.0057H194.374V78.9375L195.1 79.0751V79.7789H192.495Z" fill="#EEEEEE"/>
<path d="M199.168 79.7789V79.0751L199.89 78.9375V77.44L197.888 73.9258L197.285 73.8338V73.1257H199.787V73.8338L199.151 73.9166L200.386 76.2477L200.486 76.448L200.505 76.4388L200.601 76.252L201.935 73.9158L201.181 73.8331V73.125H203.637V73.8331L203.011 73.9251L201.038 77.348V78.9389L201.763 79.0765V79.7804L199.168 79.7789Z" fill="#EEEEEE"/>
<path d="M91.0821 68.8289C89.8971 68.839 88.7166 68.6815 87.5757 68.3611C86.4446 68.0237 85.3788 67.4969 84.4238 66.803V62.5636H86.8926L87.2969 65.3098C87.8008 65.6573 88.3592 65.9181 88.9492 66.0813C89.6422 66.2816 90.3607 66.3801 91.0821 66.3737C91.7279 66.3921 92.3709 66.2823 92.974 66.0507C93.4431 65.8674 93.8495 65.553 94.1449 65.145C94.4207 64.7389 94.5625 64.2567 94.5506 63.7659C94.5577 63.3064 94.4341 62.8543 94.1941 62.4624C93.8957 62.0272 93.4902 61.6762 93.0167 61.4433C92.3079 61.083 91.5602 60.8048 90.7883 60.614C89.5912 60.3116 88.4338 59.8698 87.3397 59.2976C86.5048 58.8698 85.7876 58.2437 85.251 57.4742C84.7746 56.7 84.5308 55.805 84.5488 54.8961C84.5667 53.9872 84.8456 53.1026 85.3523 52.3477C85.9232 51.56 86.6947 50.9395 87.5865 50.5507C88.6272 50.0937 89.7537 49.8649 90.8903 49.8797C92.1211 49.8429 93.3487 50.0229 94.5171 50.4117C95.4837 50.7366 96.3856 51.2293 97.1813 51.8671V55.8298H94.7631L94.3075 53.247C93.893 52.9701 93.4385 52.7587 92.9597 52.6201C92.3246 52.4362 91.6654 52.349 91.0044 52.3613C90.4233 52.3499 89.8459 52.4574 89.3079 52.6772C88.8495 52.8641 88.451 53.1728 88.1555 53.57C87.8716 53.9704 87.725 54.452 87.7376 54.9427C87.7288 55.3756 87.8577 55.8 88.1056 56.155C88.4309 56.5656 88.8524 56.8896 89.3328 57.0984C90.084 57.4479 90.8631 57.7342 91.6618 57.9541C93.3292 58.3197 94.8865 59.0745 96.2065 60.1569C96.7091 60.6055 97.1077 61.1585 97.3743 61.7772C97.641 62.3959 97.7693 63.0654 97.7503 63.7388C97.7698 64.6972 97.4795 65.6363 96.9224 66.4165C96.3255 67.2133 95.5189 67.8285 94.5927 68.1935C93.476 68.6377 92.2815 68.8532 91.0799 68.8275" fill="#EEEEEE"/>
<path d="M107.561 68.8219C106.419 68.8393 105.286 68.6036 104.245 68.1316C103.266 67.679 102.4 67.0157 101.707 66.1891C100.981 65.3143 100.429 64.3088 100.081 63.2269C99.69 62.0169 99.4974 60.7517 99.5104 59.4803V59.2014C99.4981 57.9342 99.6907 56.6734 100.081 55.4676C100.43 54.3843 100.982 53.3771 101.707 52.4997C102.398 51.6697 103.265 51.0039 104.245 50.5508C105.282 50.0797 106.41 49.844 107.549 49.8605C108.712 49.8407 109.865 50.0764 110.928 50.5508C111.912 51.0007 112.782 51.6669 113.473 52.4997C114.193 53.3772 114.739 54.3847 115.08 55.4676C115.462 56.675 115.65 57.9352 115.637 59.2014V59.4803C115.651 60.7507 115.463 62.0153 115.08 63.2269C114.74 64.3084 114.194 65.3141 113.473 66.1891C112.78 67.0184 111.911 67.6821 110.928 68.1316C109.87 68.6052 108.721 68.8408 107.561 68.8219M107.561 66.2896C108.55 66.3291 109.522 66.0269 110.315 65.4339C111.072 64.8127 111.631 63.9832 111.922 63.0479C112.292 61.8952 112.47 60.6893 112.448 59.4788V59.175C112.47 57.9764 112.29 56.7827 111.916 55.6438C111.617 54.7121 111.057 53.8859 110.302 53.2634C109.511 52.6673 108.538 52.3632 107.549 52.4027C106.585 52.3703 105.64 52.6747 104.877 53.2634C104.125 53.8892 103.563 54.7141 103.257 55.6438C102.875 56.781 102.691 57.9755 102.714 59.175V59.4788C102.691 60.6895 102.875 61.8952 103.257 63.0443C103.559 63.9809 104.124 64.8111 104.884 65.4361C105.651 66.0213 106.597 66.3236 107.561 66.2918" fill="#EEEEEE"/>
<path d="M117.371 68.5544V66.6047L119.368 66.2254V52.4668L117.371 52.0875V50.125H123.941L129.346 63.4543H129.422L134.662 50.125H141.31V52.0875L139.298 52.4668V66.2254L141.31 66.6047V68.5544H134.108V66.6047L136.221 66.2254V61.9346L136.246 53.8709L136.183 53.8595L130.471 68.1372H128.155L122.282 53.9358L122.22 53.9493L122.384 61.7221V66.2282L124.573 66.6076V68.5544H117.371Z" fill="#EEEEEE"/>
<path d="M142.146 68.5558V66.6062L143.489 66.4165L149.589 50.125H152.69L158.713 66.4165L160.055 66.6055V68.5558H154.194V66.6062L155.51 66.3666L154.535 63.4671H147.674L146.676 66.3666L148.005 66.6062V68.5558H142.146ZM148.516 61.0247H153.718L151.326 54.2025L151.162 53.709H151.083L150.906 54.2275L148.516 61.0247Z" fill="#EEEEEE"/>
<path d="M161.561 68.5544V66.6047L163.573 66.2254V52.4668L161.561 52.0875V50.125H168.763V52.0875L166.766 52.4668V66.2254L168.763 66.6047V68.5544H161.561Z" fill="#EEEEEE"/>
<path d="M175.283 68.5558V66.6062L177.28 66.2268V62.0751L171.735 52.3406L170.064 52.0882V50.1257H177.001V52.0882L175.242 52.3156L178.66 58.7713L178.938 59.3283L178.988 59.3033L179.254 58.7835L182.95 52.3149L180.862 52.0875V50.125H187.663V52.0875L185.929 52.3399L180.462 61.8241V66.2282L182.474 66.6076V68.5558H175.283Z" fill="#EEEEEE"/>
<path d="M185.723 68.5551V66.6055L187.065 66.4165L193.165 50.125H196.267L202.292 66.4158L203.634 66.6047V68.5551H197.773V66.6055L199.089 66.3659L198.114 63.4664H191.253L190.255 66.3659L191.584 66.6055V68.5551H185.723ZM192.089 61.0233H197.295L194.903 54.2011L194.739 53.7076H194.663L194.485 54.226L192.089 61.0233Z" fill="#EEEEEE"/>
</g>
<defs>
<clipPath id="clip0_313_1022">
<rect width="231" height="127" fill="white"/>
</clipPath>
</defs>
</svg>
