<svg width="194" height="72" viewBox="0 0 194 72" fill="none" xmlns="http://www.w3.org/2000/svg">
<g clip-path="url(#clip0_1_3204)">
<path d="M78.7015 1.00112H85.7708L90.9355 49.8723H84.2859L83.8663 41.1569H80.2832L79.6699 49.8723H73.1172L78.7015 1.00112ZM82.3491 9.07101H81.8327C81.6713 15.8497 81.5099 20.1752 81.413 22.1119L80.6383 34.8301H83.5112L82.9624 25.0171L82.3491 9.07101Z" fill="#A8A8A8"/>
<path d="M34.8956 1.00112H36.9937C40.5768 1.00112 43.2882 1.54987 45.1282 2.58282C47.0327 3.61576 48.6144 5.22974 49.7764 7.45703C51.003 9.74888 51.6164 12.299 51.6164 15.1073C51.6164 17.496 51.1644 19.7233 50.2929 21.8214C49.4214 23.9196 48.1302 25.6304 46.3871 26.9539C45.1927 27.9545 43.5142 28.7292 41.416 29.4071V49.4527H34.8633V1.00112H34.8956ZM41.4483 8.23174V22.4025C43.6433 20.9822 44.7731 18.5935 44.7731 15.2687C44.7731 13.5256 44.5149 12.073 43.9661 10.8787C43.3851 9.7166 42.5781 8.84505 41.4483 8.23174Z" fill="#A8A8A8"/>
<path d="M0.164062 42.1899C1.19701 42.6096 2.10083 42.8032 2.97238 42.8032C4.16673 42.8032 5.13511 42.4482 5.7807 41.6734C6.49085 40.8987 6.81365 39.8335 6.81365 38.3809C6.81365 37.2189 6.71681 36.0891 6.45857 35.0239C5.9421 32.8934 4.97371 30.1497 3.65025 26.7603C2.32679 23.3387 1.35841 20.3044 0.680535 17.5284C0.32546 15.9467 0.164062 14.2358 0.164062 12.2991C0.164062 8.16729 0.97105 5.13301 2.61731 3.22852C4.199 1.29175 6.36173 0.387922 8.97638 0.387922C10.203 0.387922 11.591 0.646158 13.1727 1.09807V7.55398C12.2366 7.10206 11.3651 6.90839 10.6226 6.90839C9.49285 6.90839 8.58902 7.3603 7.74975 8.29641C6.97504 9.16796 6.61997 10.5237 6.61997 12.2668C6.61997 13.3966 6.71681 14.5586 6.97504 15.6239C7.42696 17.722 8.29851 20.3044 9.49285 23.4032C10.9777 27.2768 12.1075 30.7307 12.7854 33.7972C13.1404 35.3144 13.3018 36.9929 13.3018 38.736C13.3018 42.2545 12.4303 44.9014 10.7517 46.7736C9.07321 48.6458 6.91049 49.5819 4.3604 49.5819C3.23062 49.5819 1.8426 49.3237 0.196342 48.8072V42.1899H0.164062Z" fill="#A8A8A8"/>
<path d="M126.377 48.1613C125.57 48.8715 124.537 49.2266 123.31 49.2266C119.921 49.2266 117.274 47.0316 115.273 42.6415C113.239 38.2515 112.238 32.1507 112.238 24.2745C112.238 15.5267 113.723 8.84487 116.661 4.35801C118.597 1.45286 120.76 0.0325584 123.149 0.0325584C124.214 0.0325584 125.279 0.32307 126.377 0.936381V7.03722C125.699 6.68214 125.053 6.52074 124.44 6.52074C123.213 6.52074 122.18 7.23089 121.309 8.74803C119.824 11.3627 119.114 16.2369 119.114 23.4029C119.114 30.9241 119.566 35.9597 120.599 38.4129C121.567 40.8984 122.891 42.1251 124.537 42.1251C125.15 42.1251 125.763 41.9637 126.377 41.5763V48.1613Z" fill="#A8A8A8"/>
<path d="M147.973 0.516674H159.206V6.90802H154.525V22.1762H159.206V28.503H154.525V42.6092H159.206V48.9683H147.973V0.516674Z" fill="#A8A8A8"/>
<path d="M180.732 42.0922C181.764 42.5441 182.668 42.7378 183.54 42.7378C184.702 42.7378 185.638 42.3827 186.348 41.608C187.026 40.8333 187.381 39.7358 187.381 38.2832C187.381 37.1212 187.284 35.9914 186.961 34.9262C186.445 32.7957 185.541 30.052 184.185 26.6626C182.862 23.241 181.894 20.2067 181.216 17.4629C180.861 15.8812 180.699 14.1382 180.699 12.2014C180.699 8.03732 181.506 5.03532 183.12 3.13083C184.766 1.19406 186.897 0.290228 189.512 0.290228C190.674 0.290228 192.126 0.483909 193.643 1.00038V7.42401C192.707 7.00437 191.9 6.8107 191.126 6.8107C189.996 6.8107 189.092 7.26261 188.253 8.13416C187.478 9.03798 187.091 10.3614 187.091 12.1691C187.091 13.2989 187.252 14.4609 187.51 15.5262C187.962 17.6243 188.801 20.2067 190.028 23.3055C191.513 27.1791 192.643 30.633 193.321 33.6995C193.676 35.2167 193.837 36.8629 193.837 38.6383C193.837 42.1568 192.965 44.8037 191.287 46.6759C189.608 48.5481 187.446 49.4842 184.896 49.4842C183.766 49.4842 182.378 49.226 180.732 48.7095V42.0922Z" fill="#A8A8A8"/>
<path d="M59.3606 67.8194H58.5859L58.941 66.9801H59.3929V62.6224H60.329V66.9156H62.3304V62.6224H63.2988V71.241H62.3304V67.7871H60.329V71.241H59.3929V67.8194H59.3606ZM70.8522 66.9801C70.8522 67.8194 70.8199 68.5618 70.723 69.1751C70.6585 69.7884 70.4325 70.3049 70.1097 70.7568C69.7869 71.2087 69.3027 71.4347 68.6572 71.4347C68.1407 71.4347 67.7533 71.3056 67.4628 71.0473C67.1723 70.7891 66.9463 70.434 66.7849 69.9821C66.6558 69.5625 66.559 69.0783 66.5267 68.5941C66.4944 68.1099 66.4621 67.5612 66.4621 66.9801C66.4621 66.3668 66.4944 65.8503 66.5267 65.3661C66.559 64.882 66.6558 64.43 66.7849 64.0104C66.9141 63.5908 67.14 63.2357 67.4628 62.9775C67.7533 62.7192 68.173 62.5901 68.6572 62.5901C69.3027 62.5901 69.7869 62.8161 70.1097 63.2357C70.4325 63.6876 70.6262 64.2041 70.723 64.8174C70.8199 65.3984 70.8522 66.1086 70.8522 66.9801ZM68.6572 63.3971C68.2698 63.3971 67.9793 63.5908 67.8179 63.9458C67.6565 64.3009 67.5274 64.7206 67.4951 65.2047C67.4628 65.6889 67.4305 66.27 67.4305 66.9478C67.4305 67.6257 67.4628 68.2067 67.4951 68.6909C67.5274 69.1751 67.6565 69.627 67.8502 69.9821C68.0438 70.3372 68.3021 70.5309 68.6894 70.5309C69.0445 70.5309 69.3027 70.3372 69.4964 69.9821C69.6901 69.627 69.7869 69.1751 69.8515 68.6587C69.8838 68.1422 69.9161 67.5934 69.9161 66.9478C69.9161 66.27 69.8838 65.6889 69.8515 65.2047C69.8192 64.7206 69.6901 64.2686 69.5287 63.9136C69.3027 63.5908 69.0445 63.3971 68.6572 63.3971ZM76.5334 70.9828L75.6295 65.1725L74.532 71.4347L73.6282 71.2733L75.2099 63.1389L76.0169 62.4287L76.6302 67.1415L77.3081 63.1066L78.1473 62.3964L79.5031 71.241L78.6315 71.4024L77.76 65.1402L76.5334 70.9828ZM82.6988 62.6547H85.4425L85.7976 63.5262H83.6671V66.9478H85.7007V67.8194H83.6994V70.4018H85.7007V71.2733H82.731V67.8194H81.9563L82.3114 66.9801H82.731V62.6547H82.6988ZM94.3839 66.6573L96.127 69.5948L96.934 68.7878L97.5473 69.3043L96.5467 70.2726L97.1277 71.241L96.4176 71.6284L95.9656 70.7891C95.4492 71.1765 94.8359 71.3701 94.1257 71.3701C93.4156 71.3701 92.8345 71.1442 92.4472 70.7245C92.0598 70.3049 91.8661 69.7884 91.8661 69.1429C91.8661 69.0783 91.8661 68.9492 91.8984 68.8201C91.9307 68.4327 92.0275 68.1099 92.1889 67.8194C92.3503 67.5289 92.5117 67.2706 92.7054 67.077C92.8991 66.851 93.125 66.6573 93.3833 66.4314C93.1573 66.044 92.9959 65.7858 92.8991 65.6244C92.8022 65.463 92.7377 65.3016 92.6408 65.0756C92.5763 64.8497 92.5117 64.6237 92.5117 64.3332C92.5117 64.0104 92.5763 63.7199 92.7377 63.4294C92.8991 63.1389 93.125 62.9129 93.3833 62.7515C93.6738 62.5901 93.9643 62.4933 94.3194 62.4933C94.9327 62.4933 95.4169 62.6547 95.7397 62.9775C96.0625 63.3003 96.2239 63.7199 96.2239 64.2364C96.2239 64.4946 96.1593 64.7528 96.0302 64.9788C95.9334 65.2047 95.772 65.3984 95.6106 65.5921C95.4492 65.7535 95.2555 65.9472 95.0618 66.1086C94.8359 66.27 94.6099 66.4636 94.3839 66.6573ZM93.7383 67.1415C93.5124 67.3029 93.351 67.5289 93.1896 67.7225C93.0605 67.9162 92.9314 68.1422 92.8668 68.3681C92.8022 68.5941 92.7377 68.8523 92.6731 69.1429C92.6731 69.5625 92.8022 69.9176 93.0605 70.2081C93.3187 70.4986 93.6738 70.66 94.1257 70.66C94.6422 70.66 95.1264 70.4986 95.546 70.1758L93.7383 67.1415ZM93.3187 64.2364C93.3187 64.5269 93.3833 64.7851 93.4801 65.0433C93.577 65.3016 93.7706 65.5921 93.9966 65.9472L94.3517 65.6889C94.9972 65.2047 95.2878 64.7205 95.2878 64.1718C95.2878 63.9781 95.2555 63.8167 95.1586 63.6876C95.0618 63.5585 94.965 63.4294 94.8036 63.3648C94.6422 63.3002 94.4808 63.2357 94.2871 63.2357C93.9966 63.2357 93.7706 63.3325 93.577 63.5262C93.4156 63.7199 93.3187 63.9458 93.3187 64.2364ZM104.423 66.9801H104.649C104.972 66.9801 105.23 66.9478 105.424 66.851C105.585 66.7542 105.746 66.5928 105.811 66.3345C105.908 66.0763 105.94 65.7212 105.94 65.237C105.94 64.5914 105.843 64.1395 105.649 63.9136C105.456 63.6553 105.133 63.5585 104.681 63.5585H104.423V66.9801ZM104.423 70.434H104.875C105.262 70.434 105.553 70.4018 105.714 70.3695C105.875 70.3372 106.037 70.2404 106.198 70.0467C106.36 69.853 106.424 69.5302 106.424 69.1106C106.424 68.7232 106.36 68.4327 106.231 68.239C106.101 68.0453 105.972 67.9485 105.779 67.8839C105.617 67.8517 105.391 67.8194 105.101 67.8194H104.391V70.434H104.423ZM104.972 71.2733H103.519V62.6547H104.778C105.23 62.6547 105.553 62.6869 105.779 62.7838C105.972 62.8806 106.198 63.0097 106.392 63.2357C106.747 63.623 106.908 64.1718 106.908 64.8497V65.6567C106.908 66.0763 106.876 66.4314 106.779 66.6896C106.682 66.9478 106.521 67.1415 106.295 67.2384C106.747 67.3352 107.038 67.5289 107.199 67.8517C107.36 68.1745 107.425 68.5618 107.425 69.046V69.3365C107.425 69.853 107.296 70.2404 107.07 70.5309C106.812 70.8214 106.521 71.0473 106.166 71.1442C105.746 71.241 105.359 71.2733 104.972 71.2733ZM110.879 62.6547H113.623L113.978 63.5262H111.847V66.9478H113.849V67.8194H111.847V70.4018H113.849V71.2733H110.879V67.8194H110.104L110.459 66.9801H110.879V62.6547ZM121.854 62.6869L118.142 71.5638L117.27 71.1765L118.626 67.9162L116.786 62.6869L117.722 62.3964L119.207 66.5605L120.885 62.3964L121.854 62.6869ZM128.665 66.9801C128.665 67.8194 128.633 68.5618 128.536 69.1751C128.471 69.7884 128.245 70.3049 127.922 70.7568C127.6 71.2087 127.115 71.4347 126.47 71.4347C125.953 71.4347 125.566 71.3056 125.275 71.0473C124.985 70.7891 124.759 70.434 124.598 69.9821C124.468 69.5625 124.372 69.0783 124.339 68.5941C124.307 68.1099 124.275 67.5612 124.275 66.9801C124.275 66.3668 124.307 65.8503 124.339 65.3661C124.372 64.882 124.468 64.43 124.598 64.0104C124.727 63.5908 124.953 63.2357 125.275 62.9775C125.566 62.7192 125.986 62.5901 126.47 62.5901C127.115 62.5901 127.6 62.8161 127.922 63.2357C128.245 63.6876 128.439 64.2041 128.536 64.8174C128.6 65.3984 128.665 66.1086 128.665 66.9801ZM126.47 63.3971C126.082 63.3971 125.792 63.5908 125.598 63.9458C125.437 64.3009 125.308 64.7206 125.275 65.2047C125.243 65.6889 125.211 66.27 125.211 66.9478C125.211 67.6257 125.243 68.2067 125.275 68.6909C125.308 69.1751 125.437 69.627 125.631 69.9821C125.824 70.3372 126.082 70.5309 126.47 70.5309C126.825 70.5309 127.083 70.3372 127.277 69.9821C127.47 69.627 127.567 69.1751 127.632 68.6587C127.696 68.1422 127.696 67.5934 127.696 66.9478C127.696 66.27 127.664 65.6889 127.632 65.2047C127.6 64.7206 127.47 64.2686 127.309 63.9136C127.115 63.5908 126.825 63.3971 126.47 63.3971ZM135.282 71.5315L132.764 65.0433V71.2087H131.796V63.0743L132.603 62.3642L135.024 68.6909V62.6547H135.96V71.241L135.282 71.5315ZM139.156 62.6547H140.931C141.415 62.6547 141.803 62.7838 142.125 63.042C142.416 63.3002 142.642 63.6553 142.803 64.075C142.932 64.4946 143.029 64.9465 143.061 65.3984C143.094 65.8503 143.126 66.3991 143.126 66.9801C143.126 67.5612 143.094 68.1099 143.061 68.5618C143.029 69.0137 142.932 69.4656 142.771 69.853C142.61 70.2726 142.416 70.5954 142.093 70.8537C141.803 71.1119 141.383 71.241 140.899 71.241H139.156V62.6547ZM140.124 70.4018H140.834C141.222 70.4018 141.48 70.2726 141.706 70.0144C141.899 69.7562 142.029 69.4656 142.061 69.0783C142.125 68.6909 142.158 68.2713 142.158 67.7225V65.9472C142.158 65.463 142.125 65.0433 142.061 64.6883C141.996 64.3332 141.867 64.075 141.706 63.849C141.512 63.623 141.254 63.5262 140.866 63.5262H140.124V70.4018Z" fill="#A8A8A8"/>
<path d="M144.645 57.7478C145.194 57.7478 145.678 57.9737 146.033 58.3288C146.388 58.6839 146.614 59.1681 146.614 59.7168C146.614 60.2656 146.388 60.7498 146.033 61.1048C145.678 61.4599 145.194 61.6859 144.645 61.6859C144.096 61.6859 143.612 61.4599 143.257 61.1048C142.902 60.7498 142.676 60.2656 142.676 59.7168C142.676 59.1681 142.902 58.6839 143.257 58.3288C143.612 57.9737 144.096 57.7478 144.645 57.7478ZM144.645 58.006C144.161 58.006 143.741 58.1997 143.418 58.5225C143.095 58.8453 142.902 59.2649 142.902 59.7491C142.902 60.2333 143.095 60.6529 143.418 60.9434C143.741 61.2662 144.161 61.4276 144.645 61.4599C145.129 61.4599 145.549 61.2662 145.839 60.9434C146.162 60.6206 146.356 60.201 146.356 59.7168C146.356 59.2326 146.162 58.813 145.839 58.5225C145.549 58.1997 145.129 58.006 144.645 58.006Z" fill="#A8A8A8"/>
<path d="M145.582 59.1036C145.453 58.9422 145.323 58.8131 145.194 58.7486C145.065 58.684 144.904 58.6194 144.71 58.6194C144.42 58.6194 144.161 58.7163 143.968 58.9422C143.774 59.1682 143.677 59.4264 143.677 59.7169C143.677 60.0397 143.774 60.298 143.968 60.5239C144.161 60.7499 144.42 60.8467 144.71 60.8467C144.904 60.8467 145.065 60.8144 145.194 60.7176C145.356 60.653 145.453 60.5239 145.582 60.3948H145.872C145.743 60.6208 145.582 60.7822 145.388 60.9113C145.194 61.0404 144.968 61.105 144.71 61.105C144.323 61.105 144 60.9758 143.774 60.7176C143.516 60.4594 143.387 60.1366 143.387 59.7492C143.387 59.5555 143.419 59.3941 143.484 59.2327C143.548 59.0714 143.645 58.91 143.774 58.7808C143.903 58.6517 144.032 58.5549 144.194 58.4903C144.355 58.4258 144.516 58.3935 144.71 58.3935C144.968 58.3935 145.194 58.458 145.42 58.5872C145.614 58.7163 145.775 58.8777 145.905 59.1359H145.582V59.1036Z" fill="#A8A8A8"/>
</g>
<defs>
<clipPath id="clip0_1_3204">
<rect width="194" height="71.6606" fill="white"/>
</clipPath>
</defs>
</svg>
