<svg width="231" height="127" viewBox="0 0 231 127" fill="none" xmlns="http://www.w3.org/2000/svg">
<g clip-path="url(#clip0_459_30)">
<path d="M46.427 46C48.06 47.6427 50.4275 48.8216 50.1182 51.8944C49.2293 53.3245 47.6349 53.4501 46.1758 53.6337C45.0065 53.2569 44.8809 52.107 44.2142 51.4789C42.9483 50.2903 41.5472 50.5319 40.3297 51.5948C39.1991 52.5805 39.2184 54.3101 40.465 55.402C41.5472 56.349 42.8614 57.0061 44.0113 57.8854C48.1373 61.0452 48.5625 65.1713 45.2191 69.1138C43.2382 71.4425 40.6775 72.6021 37.6917 72.9306C33.9135 73.3461 31.9036 70.8917 30 68.2344V65.3355C31.749 65.4708 33.3241 64.1857 35.2083 64.6591C35.4112 65.036 35.7494 65.4225 35.8268 65.8573C36.0973 67.2875 36.8124 68.1861 38.3295 68.2441C39.7596 68.2924 40.7838 67.5773 41.3346 66.3018C41.9724 64.8137 41.6342 63.4803 40.349 62.4753C39.3537 61.6926 38.2908 60.9872 37.2665 60.2335C32.6573 56.8418 32.7926 51.3919 37.5274 48.0292C38.5324 47.3142 39.9915 47.2948 40.6292 46.0193H46.427V46Z" fill="white"/>
<path d="M45.461 81.7525C45.1712 78.7763 46.4853 76.1094 47.1617 73.3264C48.6112 67.4031 50.1282 61.499 51.7323 55.6143C52.544 52.6284 53.3363 52.2612 56.1193 53.6044C56.902 53.9812 57.3465 54.4064 58.1485 53.8363C59.0761 53.1695 60.1004 52.754 61.2793 52.7154C63.4245 52.6381 64.9222 53.5657 64.9802 55.6046C65.1251 61.0062 63.9366 66.1855 60.8638 70.6595C59.0085 73.3651 56.9503 73.3554 52.602 71.4808C51.6357 74.8725 50.2635 78.1386 50.2925 81.7332H45.461V81.7525ZM59.8782 56.8801C57.0566 56.2327 56.1289 57.6435 55.6071 59.4698C54.9404 61.7599 54.4476 64.0983 53.7422 66.3788C53.3363 67.6929 53.5683 68.6109 54.8824 69.0168C56.1483 69.413 57.1725 68.7655 57.5977 67.635C58.8635 64.2529 60.371 60.8999 59.8782 56.8705V56.8801Z" fill="white"/>
<path d="M201.999 59.5326C199.815 59.5616 197.409 60.267 196.791 56.8946C196.626 55.9863 195.322 55.7447 194.365 56.4695C193.399 57.2135 193.418 58.1701 194.191 58.9528C195.312 60.0931 196.626 61.04 197.776 62.1513C200.656 64.9439 200.897 68.5385 198.433 71.1088C196.143 73.4956 191.119 73.7178 188.655 71.5823C187.456 70.5387 187.157 69.1376 186.954 67.6978C186.809 66.6832 187.108 65.6879 188.239 65.4463C189.312 65.2241 190.548 65.0018 191.177 66.316C191.447 66.8765 191.36 67.6302 191.679 68.1616C192.365 69.3212 193.457 69.5434 194.549 68.7994C195.525 68.1326 195.438 67.0504 194.8 66.258C194.008 65.2724 192.974 64.4607 192.027 63.5911C188.848 60.6825 188.181 56.6821 190.481 54.3146C192.819 51.9086 197.66 51.9665 200.569 54.4403C201.042 54.8461 201.516 55.2519 201.999 55.6578V59.523V59.5326Z" fill="white"/>
<path d="M124.649 72.1346C126.591 69.0908 126.494 65.4672 127.461 62.1528C128.137 59.853 128.562 57.4759 129.103 55.1279C129.326 54.1616 129.654 52.915 130.756 53.118C133.317 53.5721 135.732 52.6155 138.216 52.6831C140.158 52.7411 141.685 54.1809 141.839 56.558C142.139 61.4184 141.433 66.2209 138.66 70.3566C136.689 73.2942 134.698 73.4585 130.794 71.6708C129.915 72.6951 129.838 73.9996 129.577 75.2461C129.062 77.7327 127.229 78.8214 124.079 78.5122C123.992 76.3573 125.19 74.2411 124.745 72.0477L124.649 72.154V72.1346ZM137.124 59.8337C137.056 58.5485 137.626 57.0025 135.906 56.5773C134.36 56.1908 133.655 57.3407 133.201 58.6258C132.35 61.0222 131.597 63.438 131.51 66.0083C131.471 67.1196 131.355 68.3661 132.746 68.7719C134.128 69.1778 134.766 68.1245 135.191 67.0809C136.157 64.7328 136.882 62.3074 137.124 59.8337Z" fill="white"/>
<path d="M124.745 72.0329C123.788 72.1295 122.831 72.2455 121.875 72.3324C120.184 72.4677 119.169 71.8396 118.841 70.0327C118.502 68.1774 117.932 66.3704 117.343 64.1189C115.642 65.5104 115.178 67.2594 114.367 68.7282C112.26 72.545 112.289 72.5547 107.148 71.7913C109.197 68.3803 110.994 65.0273 113.149 61.9255C114.502 59.9735 114.608 58.2439 113.835 56.118C112.801 53.2771 111.99 50.3589 111.081 47.46C115.826 46.2522 115.99 46.3295 117.082 50.243C117.449 51.5571 117.855 52.8616 118.299 54.34C119.942 52.9293 120.348 51.1319 121.218 49.6245C123.025 46.5034 122.996 46.4841 127.653 47.2571C126.735 50.4169 124.706 52.9099 122.909 55.4416C120.928 58.2342 120.696 60.8142 122.02 63.916C123.141 66.5443 124.233 69.2403 124.629 72.1295L124.725 72.0232L124.745 72.0329Z" fill="white"/>
<path d="M106.183 66.9274C104.483 71.3627 100.724 73.7012 96.6074 72.8798C93.2833 72.2227 91.6116 69.9326 92.2397 66.5892C92.7132 64.0672 93.3123 61.5452 94.124 59.1101C95.5541 54.8004 99.4676 52.3171 103.806 52.7326C107.401 53.0708 109.218 55.3995 108.638 58.9942C108.483 59.9508 108.261 60.8881 108.029 61.8254C107.633 63.4391 106.686 64.2991 104.927 64.2025C103.478 64.1252 102.028 64.1832 100.579 64.2025C99.9411 64.2025 99.2743 64.1832 98.6559 64.3281C97.535 64.589 97.3418 65.6326 97.0519 66.5312C96.762 67.4009 97.0712 68.1643 97.8056 68.6281C98.7042 69.1789 99.8638 69.2175 100.463 68.4059C101.758 66.6472 103.333 65.9225 105.439 66.4056C105.71 66.4636 105.932 66.7535 106.174 66.9371L106.183 66.9274ZM99.0231 59.7865C100.038 60.4049 101.139 60.2793 102.183 60.1537C103.478 59.9894 104.164 59.1101 103.748 57.8636C103.323 56.5784 102.164 56.4335 101.043 56.9166C99.8541 57.4288 98.9941 58.2791 99.0231 59.7962V59.7865Z" fill="white"/>
<path d="M169.726 63.3663H162.005C160.884 64.0041 160.594 64.5645 160.565 65.2313C160.507 66.6131 159.831 68.3138 161.58 69.0578C163.426 69.8405 164.054 68.3911 164.663 66.9706C165.281 65.5115 166.614 65.4535 167.938 65.6758C168.856 65.8304 169.281 66.4198 169.214 67.3765C168.992 70.7005 165.986 73.1162 162.063 73.1259C158.111 73.1259 155.744 71.1837 155.657 67.5407C155.579 63.9848 156.217 60.4771 157.589 57.1917C159.329 53.0173 163.976 51.278 168.054 53.0656C169.852 53.858 170.741 55.3268 170.953 57.2014C171.166 59.1533 170.876 61.0472 169.716 63.3663H169.726ZM162.295 60.1872C162.894 60.1872 163.648 60.2259 164.402 60.1872C165.494 60.1196 166.064 59.4722 166.16 58.3899C166.238 57.5686 166.093 56.8149 165.291 56.409C164.295 55.9162 163.397 56.3317 162.807 57.0661C162.169 57.8488 161.29 58.7281 162.305 60.1872H162.295Z" fill="white"/>
<path d="M89.7566 65.5313C88.0462 71.0778 84.5966 73.5901 79.8907 72.9427C76.528 72.4789 74.9723 70.7879 75.3008 67.4252C75.6487 63.9079 76.4797 60.4292 78.0548 57.2501C79.9874 53.3559 84.7898 51.5683 88.7613 53.0661C90.346 53.6652 91.6022 54.6701 91.7858 56.4771C91.8921 57.5593 92.182 58.9508 90.9355 59.4823C89.6503 60.033 88.2878 60.2263 87.051 58.8638C84.5773 56.1389 83.0602 56.4384 81.9103 59.8591C81.1952 61.985 80.7411 64.1978 80.2386 66.3816C80.0453 67.2126 80.3159 67.9663 81.1179 68.4301C81.9199 68.8843 82.7123 68.5944 83.3887 68.1886C83.9202 67.8793 84.4613 67.4155 84.7319 66.8744C85.9687 64.4297 87.853 65.3863 89.7566 65.5216V65.5313Z" fill="white"/>
<path d="M177.969 73.0612C174.287 73.0516 171.9 70.9451 171.881 67.6693C171.881 66.6837 171.939 65.6401 173.185 65.4468C174.277 65.2826 175.485 65.041 176.007 66.5001C176.065 66.645 176.094 66.8093 176.113 66.9639C176.345 68.4423 177.051 69.3507 178.693 69.1284C179.379 69.0318 179.93 68.6163 180.075 67.9495C180.346 66.6837 179.573 65.8044 178.703 65.0796C177.35 63.9491 175.794 63.0408 174.838 61.485C173.543 59.3882 173.417 57.2043 174.731 55.0978C176.345 52.5178 178.964 52.4598 181.592 52.6241C183.911 52.7594 185.583 53.8803 186.288 56.1221C186.665 57.3203 187.119 58.8084 185.438 59.3882C184.22 59.8037 182.848 59.881 182.317 58.1417C182.182 57.6972 181.94 57.2527 181.65 56.8758C181.099 56.1897 180.355 55.8419 179.553 56.3637C178.606 56.9821 178.432 57.9194 179.002 58.876C179.321 59.4172 179.804 59.8713 180.288 60.2868C180.896 60.8086 181.592 61.2338 182.22 61.7363C184.626 63.6592 185.39 66.1522 184.52 69.0608C183.786 71.5055 181.099 73.0612 177.969 73.0516V73.0612Z" fill="white"/>
<path d="M155.512 52.9978C155.512 56.66 155.541 56.7277 152.651 57.8486C150.941 58.5153 150.178 59.7232 149.84 61.4239C149.337 63.9459 148.748 66.4486 148.158 68.9513C147.337 72.3816 147.327 72.3816 143.008 71.7922C143.104 67.6468 144.689 63.743 145.24 59.6749C145.366 58.7279 145.694 57.8003 145.916 56.8629C146.834 52.9784 146.854 52.8722 150.844 53.8191C151.888 54.0704 152.246 53.4906 152.883 53.191C153.627 52.8238 154.371 52.6113 155.521 53.0171L155.512 52.9978Z" fill="white"/>
<path d="M74.6621 53.5098C73.2127 59.2593 71.9178 64.6705 70.4781 70.0334C69.7437 72.7584 69.1639 72.9227 65.1055 71.9854C66.5839 66.3132 67.985 60.6217 69.5601 54.9786C70.1495 52.8721 70.3235 52.9204 74.6621 53.5002V53.5098Z" fill="white"/>
<path d="M75.8699 47.6408C75.3868 50.4495 73.757 51.6091 70.9805 51.1195C71.3219 48.3301 72.9517 47.1706 75.8699 47.6408V47.6408Z" fill="white"/>
</g>
<defs>
<clipPath id="clip0_459_30">
<rect width="231" height="127" fill="white"/>
</clipPath>
</defs>
</svg>
