<svg width="100" height="100" viewBox="0 0 100 100" fill="none" xmlns="http://www.w3.org/2000/svg">
<g clip-path="url(#clip0_669_6509)">
<g clip-path="url(#clip1_669_6509)">
<path d="M21.7543 99.5729C20.9503 98.9969 20.6843 98.2169 21.0063 97.2969C21.3323 96.3689 22.1383 96.3009 22.9783 96.3049C25.4723 96.3169 27.9683 96.2909 30.4623 96.3189C31.2303 96.3269 31.5323 96.1969 31.3463 95.3029C30.5243 91.3329 29.7783 87.3489 29.0043 83.3709C28.6903 81.7569 27.9343 80.2989 27.3503 78.7829C25.9863 75.2468 24.5783 71.7268 23.1723 68.2068C22.7103 67.0488 22.4663 65.8668 22.4743 64.6128C22.4983 60.9548 22.5143 57.2948 22.4723 53.6368C22.4443 51.2548 23.8583 48.4908 26.9443 48.4048C27.5843 48.3868 27.7343 47.8568 27.9723 47.4448C30.9823 42.2707 33.9803 37.0887 36.9803 31.9087C42.8503 21.7807 48.7183 11.6506 54.5883 1.52461C55.2163 0.440602 55.9723 0.150601 56.8723 0.628602C57.8443 1.1486 58.1263 2.22261 57.5403 3.26461C57.1323 3.98861 56.7243 4.71462 56.2643 5.40662C55.8783 5.98662 55.8083 6.22862 56.6723 6.37262C59.3903 6.82062 62.1463 7.05862 64.8043 7.84463C69.5343 9.24263 73.4943 11.8066 76.6003 15.6427C80.1923 20.0767 84.8323 22.5687 90.4723 23.2867C92.7783 23.5807 95.0743 23.9527 97.3703 24.3167C99.1943 24.6047 99.7843 25.8087 98.8603 27.4187C94.7423 34.6027 90.6003 41.7727 86.4803 48.9568C85.9883 49.8128 85.3763 50.1568 84.3523 49.9748C80.3023 49.2588 76.1583 49.0428 72.2163 47.7408C69.7963 46.9428 67.5663 45.7687 65.5203 44.2527C64.5403 43.5267 64.3423 42.6287 64.9263 41.7607C65.4903 40.9227 66.4843 40.7487 67.4663 41.4887C71.1643 44.2747 75.4483 45.3147 79.9303 45.8207C81.0523 45.9467 82.1743 46.1047 83.2803 46.3247C83.8643 46.4407 84.2143 46.3107 84.5083 45.7967C87.8643 39.9387 91.2283 34.0867 94.6003 28.2367C94.9243 27.6767 94.8583 27.4587 94.1643 27.3407C91.3503 26.8607 88.4903 26.6427 85.7423 25.7967C81.2343 24.4087 77.3823 21.9887 74.4263 18.3127C70.6783 13.6526 65.8723 11.0606 59.9663 10.3826C58.2183 10.1826 56.4803 9.88463 54.7443 9.59263C54.1363 9.49063 53.7923 9.64063 53.4703 10.2046C50.1603 16.0127 46.8283 21.8067 43.4723 27.5887C43.0863 28.2527 43.1563 28.4547 43.9163 28.5687C46.1163 28.8967 48.3283 29.1927 50.5023 29.6627C55.5683 30.7567 59.8223 33.2887 63.2663 37.1667C63.5523 37.4887 63.8323 37.8267 64.0503 38.1967C64.5163 38.9827 64.3583 39.8427 63.7043 40.3467C62.9883 40.8987 62.0903 40.8747 61.4363 40.2327C60.6523 39.4647 59.9923 38.5867 59.1783 37.8387C55.7943 34.7267 51.7503 33.1387 47.2463 32.5667C45.5663 32.3527 43.8923 32.0867 42.2203 31.8107C41.4843 31.6887 41.0063 31.8327 40.5963 32.5507C37.5283 37.9207 34.4243 43.2727 31.2983 48.6108C30.8783 49.3288 30.7803 49.8548 31.3623 50.5568C31.9863 51.3088 32.2103 52.2628 32.2023 53.2668C32.1843 55.5948 32.2443 57.9248 32.1803 60.2508C32.1403 61.7108 32.4063 63.0548 32.9723 64.4048C34.6043 68.2988 36.1663 72.2228 37.7103 76.1528C37.9963 76.8788 38.3543 77.1808 39.1623 77.1648C41.9223 77.1148 44.6843 77.1248 47.4443 77.1608C48.1723 77.1708 48.5803 76.9689 48.8623 76.2508C50.5943 71.8588 52.3683 67.4828 54.1403 63.1068C54.3463 62.6008 54.4183 62.0928 54.4163 61.5528C54.4083 58.8248 54.4023 56.0968 54.4163 53.3708C54.4303 50.6188 56.4883 48.4268 59.1623 48.2888C61.4563 48.1708 63.7463 50.1908 63.9143 52.7828C64.2023 57.2288 64.2043 61.6888 63.8763 66.1368C63.7743 67.5068 63.0663 68.7308 62.5723 69.9988C61.3783 73.0668 60.2563 76.1668 58.9163 79.1709C57.2103 82.9969 56.8303 87.1209 55.9443 91.1329C55.6223 92.5929 55.3923 94.0729 55.0723 95.5329C54.9423 96.1229 55.1103 96.3209 55.6963 96.3149C57.6583 96.2989 59.6223 96.2889 61.5843 96.3209C62.2443 96.3309 62.2923 96.0269 62.1803 95.5189C61.4063 91.9869 60.9223 88.3749 59.2983 85.0769C59.1523 84.7789 59.0403 84.4629 58.9363 84.1469C58.5923 83.0989 58.9523 82.1669 59.8323 81.7909C60.6883 81.4249 61.6683 81.8289 62.1003 82.8609C63.1763 85.4309 64.3903 87.9529 64.7303 90.7789C64.9123 92.2929 65.2963 93.7829 65.5463 95.2889C65.6683 96.0329 65.9743 96.3409 66.7863 96.3269C69.6803 96.2769 72.5743 96.3169 75.4683 96.3029C76.3183 96.2989 77.1103 96.4009 77.4283 97.3209C77.7503 98.2489 77.4603 99.0189 76.6363 99.5729H21.7543ZM43.2543 96.3089C45.5483 96.3089 47.8463 96.2389 50.1363 96.3389C51.2623 96.3889 51.6363 95.9669 51.8043 94.9369C52.1603 92.7409 52.5783 90.5529 53.0523 88.3789C53.7483 85.1749 54.0763 81.8949 55.4183 78.8289C57.0703 75.0548 58.5183 71.1908 60.0663 67.3708C60.4063 66.5328 60.7543 65.6808 60.7643 64.7848C60.8063 60.9948 60.8003 57.2028 60.7803 53.4128C60.7763 52.7648 60.5463 52.1788 59.8383 51.9088C59.2823 51.6968 58.7723 51.7788 58.3343 52.1248C57.7843 52.5588 57.7503 53.2108 57.7503 53.8528C57.7503 56.6128 57.7383 59.3728 57.7563 62.1328C57.7603 62.8768 57.6423 63.5688 57.3603 64.2648C55.3623 69.1948 53.3683 74.1248 51.4243 79.0749C51.0203 80.1049 50.4003 80.5029 49.3223 80.4929C45.3983 80.4589 41.4743 80.4809 37.5503 80.4789C36.0003 80.4789 35.7043 80.2749 35.1103 78.8029C33.9903 76.0288 33.0383 73.1728 31.7203 70.4968C29.3683 65.7208 28.3503 60.7568 28.8583 55.4648C28.9283 54.7408 28.8943 54.0008 28.8343 53.2728C28.7643 52.4028 28.2803 51.8508 27.3763 51.7908C26.5483 51.7368 25.9603 52.3328 25.8363 53.2988C25.8143 53.4628 25.8163 53.6308 25.8163 53.7968C25.8163 57.2888 25.8123 60.7808 25.8163 64.2728C25.8163 65.0788 26.0063 65.8468 26.3063 66.5988C28.1823 71.2908 30.0503 75.9848 31.9063 80.6849C32.1123 81.2069 32.2783 81.7529 32.3863 82.3049C33.2423 86.6389 34.1023 90.9729 34.9063 95.3169C35.0563 96.1249 35.4083 96.3369 36.1683 96.3269C38.5283 96.2909 40.8903 96.3129 43.2523 96.3149L43.2543 96.3089Z" fill="#727272"/>
<path d="M0.209132 97.2444C0.669131 96.5824 1.30513 96.3604 2.10113 96.3664C4.79513 96.3924 7.48913 96.3444 10.1831 96.3924C11.0651 96.4084 11.1851 96.1804 11.0591 95.3144C10.1271 88.9124 7.38513 83.1164 4.98913 77.2164C3.82913 74.3584 3.14513 71.5124 3.30313 68.4104C3.44913 65.5584 3.32513 62.6924 3.33713 59.8304C3.35113 56.9784 5.60313 54.7204 8.39113 54.7344C10.8991 54.7484 13.0251 57.0284 13.0471 59.7704C13.0691 62.5304 13.0591 65.2904 13.0471 68.0524C13.0451 68.5944 13.1391 69.0984 13.3431 69.6024C15.1031 73.9464 16.8671 78.2904 18.5811 82.6524C18.8791 83.4084 19.2911 83.6324 20.0671 83.6144C22.0951 83.5664 24.1251 83.5904 26.1531 83.6024C27.4151 83.6104 28.0591 84.1864 28.0611 85.2604C28.0611 86.3344 27.4151 86.9204 26.1591 86.9264C23.4651 86.9384 20.7711 86.9024 18.0771 86.9444C16.9971 86.9624 16.4291 86.4344 16.0591 85.5104C14.2291 80.9424 12.4191 76.3684 10.5351 71.8224C9.94913 70.4104 9.65313 69.0084 9.69913 67.4764C9.77313 65.0504 9.71913 62.6204 9.71513 60.1944C9.71513 59.5844 9.64113 58.9804 9.12713 58.5644C8.31313 57.9044 7.10913 58.2744 6.80313 59.2924C6.69113 59.6664 6.66913 60.0764 6.66913 60.4724C6.65913 63.7984 6.66713 67.1244 6.66113 70.4504C6.66113 71.3604 6.82713 72.2264 7.16513 73.0744C9.00513 77.6744 10.8291 82.2784 12.6571 86.8824C13.5611 89.1604 13.6771 91.6144 14.2251 93.9724C14.2391 94.0364 14.2411 94.1044 14.2531 94.1704C14.6331 96.2424 14.6331 96.2484 16.6911 96.3804C17.4691 96.4304 18.0311 96.7484 18.2551 97.5264C18.5251 98.4624 18.1591 99.1424 17.3711 99.6404C11.8771 99.6404 6.38313 99.6264 0.889131 99.6604C0.261132 99.6644 0.141132 99.4964 0.195132 98.9324C0.249131 98.3744 0.207132 97.8084 0.207132 97.2464L0.209132 97.2444Z" fill="#727272"/>
<path d="M81.2415 99.603C80.4515 99.107 80.0835 98.425 80.3575 97.491C80.6455 96.501 81.4195 96.339 82.3175 96.335C84.7435 96.323 84.8755 96.327 85.1735 93.839C85.8755 88.001 88.4155 82.777 90.4495 77.379C90.8835 76.229 91.3335 75.085 91.7915 73.943C92.1895 72.953 92.5235 71.959 92.5855 70.873C92.6435 69.881 93.3556 69.319 94.3316 69.353C95.2716 69.387 95.8755 69.937 95.9215 70.923C95.9755 72.093 95.7795 73.231 95.3415 74.335C93.4995 78.967 91.6256 83.589 89.8696 88.253C88.9676 90.653 88.8175 93.247 88.2775 95.743C88.1375 96.393 88.5955 96.339 89.0035 96.339C91.7295 96.339 94.4576 96.347 97.1836 96.335C98.0236 96.331 98.8275 96.399 99.1535 97.327C99.4775 98.249 99.2076 99.025 98.4076 99.603H81.2415Z" fill="#727272"/>
<path d="M75.2831 86.855C73.3551 86.855 71.4271 86.839 69.4991 86.861C68.2831 86.875 67.5271 86.355 67.0811 85.201C65.7851 81.855 64.4271 78.531 63.0951 75.199C63.0091 74.983 62.9171 74.767 62.8651 74.541C62.6451 73.581 63.0591 72.739 63.8951 72.417C64.7111 72.103 65.6371 72.461 66.0411 73.365C66.5831 74.577 67.0411 75.827 67.5251 77.065C68.2651 78.953 69.0151 80.835 69.7231 82.735C69.9511 83.347 70.2711 83.619 70.9591 83.611C73.817 83.577 76.6771 83.577 79.5371 83.611C80.215 83.619 80.543 83.367 80.787 82.753C82.541 78.337 84.321 73.931 86.103 69.525C86.295 69.051 86.367 68.575 86.365 68.069C86.357 65.309 86.349 62.549 86.365 59.791C86.381 56.995 88.575 54.785 91.355 54.735C93.841 54.691 96.041 56.989 96.073 59.707C96.099 61.935 96.089 64.163 96.073 66.389C96.065 67.571 95.467 68.255 94.475 68.283C93.477 68.311 92.763 67.549 92.753 66.385C92.735 64.457 92.749 62.529 92.745 60.601C92.745 60.269 92.751 59.933 92.701 59.607C92.575 58.777 92.085 58.259 91.239 58.251C90.397 58.243 89.883 58.735 89.747 59.571C89.695 59.897 89.695 60.233 89.695 60.565C89.691 63.191 89.671 65.819 89.705 68.445C89.717 69.331 89.545 70.143 89.211 70.957C87.257 75.723 85.293 80.487 83.411 85.281C82.955 86.441 82.211 86.867 81.067 86.863C79.139 86.857 77.2111 86.863 75.2831 86.863V86.855Z" fill="#727272"/>
<path d="M49.7671 66.3572C49.7931 67.5732 49.8451 69.0912 49.1051 70.5212C47.7391 73.1552 44.7671 74.5872 41.9131 73.9252C38.9311 73.2332 36.8931 70.7292 36.8611 67.7032C36.8491 66.5072 36.8412 65.3132 36.8652 64.1172C36.9332 60.6772 39.8372 57.9372 43.3832 57.9532C46.8531 57.9672 49.6991 60.7312 49.7671 64.1552C49.7791 64.7852 49.7671 65.4172 49.7671 66.3592V66.3572ZM40.1831 65.9992C40.2291 66.7252 40.1212 67.4552 40.2992 68.1792C40.6612 69.6492 41.9651 70.7372 43.3591 70.7032C44.7411 70.6712 46.0511 69.6272 46.3011 68.1812C46.5591 66.6772 46.5911 65.1372 46.2611 63.6352C45.9731 62.3232 44.6751 61.3352 43.3671 61.2992C42.0531 61.2632 40.7392 62.2892 40.3492 63.6232C40.1192 64.4072 40.2211 65.2052 40.1831 65.9972V65.9992Z" fill="#727272"/>
<path d="M68.7949 72.4635C68.7709 70.9355 68.7149 69.4195 69.4549 67.9875C70.8149 65.3575 73.7949 63.9215 76.6469 64.5815C79.6309 65.2715 81.6689 67.7735 81.7009 70.8015C81.7129 71.9975 81.7209 73.1915 81.6969 74.3875C81.6289 77.8315 78.7289 80.5695 75.1829 80.5555C71.7149 80.5415 68.8629 77.7755 68.7969 74.3555C68.7849 73.7255 68.7969 73.0935 68.7969 72.4635H68.7949ZM78.3749 72.5255C78.3329 71.7975 78.4469 70.9995 78.2329 70.2135C77.8669 68.8575 76.6249 67.8275 75.2829 67.8015C73.9629 67.7775 72.5789 68.7855 72.3029 70.1495C71.9769 71.7495 71.9549 73.3875 72.3309 74.9835C72.6269 76.2375 73.9509 77.1835 75.2129 77.2055C76.4949 77.2295 77.8029 76.2315 78.1929 74.9615C78.4329 74.1815 78.3549 73.3835 78.3749 72.5255Z" fill="#727272"/>
<path d="M73.7122 22.5278C73.6622 23.2938 73.3082 23.8538 72.5762 24.1278C71.7682 24.4298 71.1562 24.0958 70.6542 23.4778C68.9162 21.3398 66.8562 19.5898 64.4382 18.2618C62.5282 17.2118 60.4882 16.5498 58.3562 16.1318C57.1202 15.8878 56.4482 14.9978 56.6802 13.9918C56.8842 13.1038 57.7682 12.6898 59.0162 12.9238C64.6382 13.9818 69.3342 16.6478 73.0442 21.0218C73.4162 21.4618 73.7422 21.9138 73.7122 22.5298V22.5278Z" fill="#727272"/>
<path d="M17.705 72.2431C17.705 71.5131 17.677 70.7811 17.711 70.0511C17.767 68.8831 18.199 67.8491 18.979 66.9811C19.609 66.2811 20.463 66.2091 21.225 66.7351C21.919 67.2131 22.219 68.0971 21.745 68.8351C20.619 70.5931 20.977 72.5071 21.133 74.3591C21.269 75.9591 22.413 76.8431 24.225 77.0631C25.049 77.1631 25.611 77.5111 25.777 78.3451C26.015 79.5331 25.343 80.3531 24.117 80.4011C20.873 80.5271 17.827 77.7011 17.703 74.4351C17.675 73.7051 17.699 72.9731 17.699 72.2431C17.699 72.2431 17.701 72.2431 17.703 72.2431H17.705Z" fill="#727272"/>
<path d="M78.2087 25.9844C78.3867 26.0404 78.6907 26.0884 78.9467 26.2264C79.8227 26.7044 80.7287 27.1064 81.6467 27.4924C82.6267 27.9044 83.0087 28.6884 82.7227 29.5464C82.3987 30.5204 81.5507 30.9824 80.5107 30.7024C79.3487 30.3884 78.2827 29.8364 77.2567 29.2284C76.5347 28.8004 76.2087 28.1044 76.4707 27.2664C76.7107 26.4984 77.2787 26.0764 78.2067 25.9844H78.2087Z" fill="#727272"/>
</g>
</g>
<defs>
<clipPath id="clip0_669_6509">
<rect width="100" height="100" fill="white"/>
</clipPath>
<clipPath id="clip1_669_6509">
<rect width="99.4" height="99.6203" fill="white"/>
</clipPath>
</defs>
</svg>
