<svg width="100" height="100" viewBox="0 0 100 100" fill="none" xmlns="http://www.w3.org/2000/svg">
<g clip-path="url(#clip0_580_1772)">
<path d="M67.063 7.48828H68.989C69.8671 7.92828 70.5232 8.59021 71.1118 9.37951C72.7831 11.6239 75.4539 12.4904 78.1074 11.73C80.1839 11.1337 80.6181 11.3441 81.4634 13.3685C83.2273 17.5948 84.9911 21.8192 86.7473 26.0474C86.975 26.5935 87.1738 27.0548 87.9245 27.0992C90.6725 27.2574 91.3943 27.8788 92.1276 30.542C92.8802 33.2727 95.1169 35.1369 97.9673 35.3183C98.8376 35.3742 99.5208 35.6348 99.9974 36.37V82.5816C99.4417 83.9344 98.4459 84.6813 97.0081 85.0151C94.3643 85.6288 92.7201 87.329 92.035 89.9574C91.4367 92.2481 90.412 93.049 88.075 93.049C63.1416 93.049 38.2102 93.049 13.2769 93.049C10.9959 93.049 9.93252 92.223 9.36515 90.023C8.66656 87.3213 6.97989 85.6269 4.25498 84.9688C2.18428 84.469 1.31392 83.3497 1.31199 81.1921C1.31006 67.1411 1.31006 53.092 1.31199 39.0409C1.31199 36.8428 2.17077 35.7293 4.31094 35.2044C7.00112 34.5444 8.6627 32.8751 9.35164 30.2081C9.92094 28.0023 11.046 27.1088 13.3309 27.0895C15.2569 27.0721 17.1809 27.0741 19.1069 27.0895C19.7611 27.0953 20.369 26.9718 20.975 26.719C36.3344 20.3042 51.6997 13.8972 67.063 7.48828ZM61.4878 89.5V89.5135C70.0562 89.5135 78.6266 89.5039 87.195 89.527C88.0866 89.529 88.5536 89.3013 88.8488 88.3692C89.8987 85.0537 92.1488 82.8479 95.4643 81.7962C96.2401 81.5492 96.5334 81.1921 96.5353 80.3758C96.5546 66.8362 96.5952 53.2985 96.6453 39.7588C96.6473 39.0467 96.4408 38.682 95.6997 38.4658C92.1662 37.4372 89.8408 35.133 88.7832 31.6034C88.569 30.8913 88.2255 30.6462 87.4902 30.6481C70.1585 30.6616 52.8287 30.6597 35.4969 30.6423C34.6748 30.6423 34.3545 30.8971 34.3583 31.7462C34.366 33.0739 33.6867 33.8651 32.6601 33.9018C31.6295 33.9385 30.846 33.1472 30.8499 31.8523C30.8518 30.8353 30.4215 30.6269 29.5106 30.6327C24.3753 30.6655 19.2401 30.6655 14.1048 30.6327C13.2325 30.6269 12.8118 30.8642 12.5359 31.7539C11.5053 35.0713 9.31305 37.3311 5.97445 38.3635C5.1041 38.6337 4.84357 39.0641 4.84164 39.9383C4.82621 53.4123 4.78761 66.8883 4.72778 80.3623C4.72392 81.1825 4.99024 81.5434 5.78533 81.7711C8.65691 82.5932 11.0055 84.3088 11.9569 87.1128C12.7037 89.3148 13.8906 89.5965 15.888 89.5367C20.4732 89.3978 25.0662 89.4827 29.6553 89.5078C30.4466 89.5116 30.8981 89.2935 30.8248 88.4251C30.8113 88.2669 30.8345 88.1048 30.8615 87.9465C31.039 86.8986 31.7241 86.2946 32.6871 86.3332C33.6385 86.3718 34.2753 87.0376 34.3699 88.0971C34.4953 89.5 34.4953 89.5039 35.8771 89.5039C44.4146 89.5039 52.9522 89.5039 61.4878 89.5039V89.5ZM29.6978 27.0856C30.132 27.0856 30.5045 27.0856 30.8769 27.0856C41.1127 27.0856 51.3504 27.0856 61.5862 27.0856C68.4853 27.0856 75.3845 27.0779 82.2836 27.0953C83.0671 27.0972 83.3469 26.9525 82.9899 26.1169C81.5773 22.8149 80.1917 19.5014 78.8388 16.1744C78.5706 15.5164 78.2213 15.3542 77.5323 15.4218C74.0085 15.773 70.9767 14.7193 68.7015 11.9558C68.0202 11.1279 67.5011 11.126 66.6134 11.4965C54.5424 16.5527 42.4578 21.5741 30.379 26.6071C30.159 26.6997 29.8811 26.7151 29.6978 27.0856Z" fill="white"/>
<path d="M65.4442 83.2193C52.6997 83.2193 42.3095 72.806 42.3655 59.9862C42.4195 47.7298 52.1323 37.0135 65.477 37C78.4976 36.9865 88.5674 47.3053 88.5886 59.9726C88.6118 73.6879 77.6098 83.229 65.4442 83.2212V83.2193ZM65.4983 68.4002C62.6691 67.7865 60.4711 68.5642 59.1511 71.2776C59.1376 71.3065 59.1144 71.3297 59.0932 71.3548C58.7555 71.7195 58.6956 72.117 58.8558 72.5937C59.5081 74.537 60.1449 76.4881 60.776 78.4391C60.9265 78.9062 61.1716 79.1898 61.6888 79.2921C64.2053 79.7958 66.716 79.7726 69.2344 79.3114C69.7362 79.2188 70.0179 78.9641 70.1723 78.4816C70.7976 76.5286 71.4383 74.5795 72.0886 72.6342C72.2449 72.1672 72.1755 71.7851 71.8995 71.3721C70.5731 69.3921 68.7275 68.4008 66.3628 68.3983H65.4963L65.4983 68.4002ZM63.7267 48.3609C63.7267 48.0733 63.69 47.7781 63.7325 47.4963C63.8946 46.4446 63.4662 45.7711 62.5669 45.2114C61.2102 44.3642 59.923 43.4012 58.6262 42.4614C58.1862 42.143 57.7963 42.1025 57.2965 42.3341C54.9363 43.4263 52.8869 44.9297 51.1172 46.8286C50.7428 47.23 50.6579 47.6179 50.8239 48.1351C51.3527 49.7812 51.8428 51.4409 52.3639 53.089C52.7556 54.3241 56.5651 55.6286 57.6555 54.9126C57.7365 54.8605 57.8137 54.8026 57.8909 54.7467C59.2012 53.8262 60.4672 52.8284 61.8374 52.0044C63.2597 51.1476 64.2111 50.1556 63.7267 48.3609ZM67.2814 48.3204C67.2814 48.6079 67.3162 48.9012 67.2756 49.1849C67.1174 50.2695 67.5497 50.9912 68.4934 51.5412C69.4023 52.0719 70.3267 52.6412 71.0793 53.3669C72.957 55.1809 74.9949 55.5379 77.3146 54.3626C77.3995 54.3202 77.4941 54.2855 77.5867 54.27C78.129 54.1735 78.3914 53.8165 78.542 53.3148C79.0688 51.5683 79.5918 49.8198 80.1553 48.0869C80.3309 47.5465 80.1804 47.1779 79.8234 46.7919C78.0788 44.9142 76.0448 43.4456 73.7309 42.3437C73.1963 42.089 72.7853 42.1353 72.3183 42.4788C71.2877 43.2391 70.2726 44.0381 69.1688 44.6769C67.7234 45.5144 66.8163 46.5372 67.2795 48.3204H67.2814ZM78.8025 69.8205C79.7635 69.8205 80.7265 69.7993 81.6856 69.8283C82.2723 69.8456 82.637 69.6179 82.9014 69.0949C83.9184 67.0725 84.5727 64.9439 84.9026 62.7072C85.0126 61.9642 84.7907 61.4162 84.1442 60.9916C83.4495 60.5342 82.8069 59.9997 82.1391 59.4998C80.208 58.0499 78.0962 57.6961 75.8035 58.4384C75.2265 58.6237 74.8888 58.9325 74.7055 59.5114C74.057 61.557 73.3874 63.5949 72.6965 65.6251C72.5209 66.1384 72.6135 66.5225 72.9262 66.9528C74.3118 68.8608 76.1734 69.8167 78.5111 69.8205C78.6076 69.8205 78.7041 69.8205 78.7986 69.8186L78.8025 69.8205ZM52.1381 69.8205C54.9035 70.5249 56.7311 69.3342 58.0414 66.976C58.3174 66.48 58.4332 66.0805 58.2441 65.5479C57.8272 64.3707 57.4509 63.1781 57.0572 61.9912C56.2917 59.687 54.7389 58.2339 52.3986 57.6318C52.306 57.6086 52.2056 57.6009 52.1169 57.5662C51.7444 57.4233 51.4318 57.5411 51.1327 57.7669C49.5714 58.946 48.0083 60.1212 46.4432 61.2946C46.1074 61.5455 45.9569 61.833 46.0109 62.2807C46.2946 64.6274 46.9604 66.8505 48.0025 68.9733C48.3151 69.6102 48.7455 69.863 49.4441 69.8302C50.3395 69.7877 51.2388 69.8205 52.1381 69.8205ZM65.4327 64.8628C66.3956 64.8628 67.3586 64.8455 68.3216 64.8686C68.9507 64.884 69.3348 64.6602 69.5335 64.0272C70.0912 62.2537 70.6779 60.4879 71.2858 58.7298C71.473 58.1876 71.3727 57.8267 70.8979 57.4986C69.2865 56.387 67.6867 55.26 66.0965 54.1176C65.6662 53.8088 65.313 53.8107 64.8807 54.1176C63.2905 55.2581 61.6907 56.3851 60.0716 57.489C59.5853 57.8209 59.4946 58.1779 59.6779 58.7125C60.2819 60.4725 60.8705 62.2363 61.4341 64.0098C61.6309 64.6293 62.0072 64.8821 62.6402 64.8667C63.5704 64.8455 64.5025 64.8609 65.4327 64.8628ZM79.6651 73.6262C79.6246 73.549 79.5841 73.4737 79.5435 73.3965C78.4262 73.3965 77.3107 73.3965 76.1934 73.3965C75.8518 73.3965 75.5391 73.4833 75.4176 73.8404C75.0663 74.869 74.7267 75.9014 74.3986 76.9377C74.2597 77.3719 74.47 77.4955 74.8367 77.3025C76.6565 76.3453 78.2409 75.087 79.6632 73.6262H79.6651ZM56.8063 77.6576C56.3509 76.2488 55.9823 75.0986 55.606 73.9484C55.523 73.6956 55.3667 73.4448 55.0849 73.439C53.8595 73.4177 52.6341 73.4293 51.1693 73.4293C52.8444 75.2511 54.5832 76.517 56.8083 77.6556L56.8063 77.6576ZM62.6286 40.9851C63.4835 41.5737 64.3365 42.1662 65.1972 42.749C65.3632 42.8609 65.5793 42.8783 65.7453 42.7663C66.6291 42.17 67.5053 41.5583 68.5744 40.8191C66.4516 40.3676 64.6067 40.3888 62.6286 40.9851ZM48.0662 51.1205C47.0665 53.1102 46.4548 54.9126 46.1421 57.1223C47.1707 56.3446 47.9581 55.7502 48.7455 55.1558C49.0697 54.9107 49.143 54.5807 49.0311 54.2121C48.7435 53.2665 48.4425 52.3248 48.0662 51.1205ZM82.8705 51.2325C82.6177 52.0314 82.4344 52.5949 82.2607 53.1623C81.6818 55.0555 81.5448 54.6444 83.1619 55.8486C83.6 56.1748 84.0902 56.9312 84.5553 56.6244C85.0223 56.3156 84.5321 55.5669 84.399 55.0342C84.0825 53.7856 83.7062 52.5525 82.8705 51.2305V51.2325Z" fill="white"/>
<path d="M17.7541 63.2659C19.8383 63.2659 21.9244 63.2543 24.0086 63.2697C25.3402 63.2794 26.0909 63.924 26.0986 65.0085C26.1064 66.0873 25.3692 66.7878 24.0376 66.7975C19.8672 66.8264 15.6969 66.8264 11.5285 66.7975C10.2972 66.7897 9.52145 66.0487 9.5118 65.0413C9.50216 63.9896 10.3069 63.2833 11.5941 63.2717C13.6474 63.2543 15.7008 63.2678 17.7522 63.2659H17.7541Z" fill="white"/>
<path d="M17.8513 56.7143C19.9027 56.7143 21.956 56.7046 24.0074 56.7181C25.3467 56.7259 26.0916 57.355 26.1013 58.4434C26.1109 59.4913 25.4143 60.2053 24.1348 60.2169C19.9355 60.2555 15.7343 60.2555 11.533 60.2169C10.2265 60.2053 9.46232 59.4257 9.51636 58.3816C9.57039 57.3588 10.3365 56.7297 11.5967 56.722C13.6809 56.7085 15.7651 56.7181 17.8493 56.7181L17.8513 56.7143Z" fill="white"/>
<path d="M17.7774 79.9326C15.6604 79.9326 13.5434 79.9635 11.4264 79.921C10.0099 79.894 9.15689 78.6975 9.65093 77.5222C9.97514 76.7522 10.6293 76.4029 11.4129 76.3991C15.6778 76.3779 19.9446 76.3663 24.2095 76.401C25.4272 76.4107 26.1451 77.2 26.1008 78.2556C26.0583 79.2552 25.3288 79.9094 24.1285 79.9249C22.0115 79.9519 19.8944 79.9326 17.7774 79.9307V79.9326Z" fill="white"/>
<path d="M17.9192 69.8258C19.9397 69.8258 21.9602 69.8258 23.9807 69.8258C24.799 69.8258 25.513 70.038 25.9221 70.8196C26.5185 71.9621 25.7542 73.2338 24.3532 73.3535C23.4616 73.4307 22.5585 73.3863 21.6611 73.3882C18.583 73.3902 15.503 73.3882 12.425 73.3882C12.1046 73.3882 11.7823 73.3959 11.4639 73.3747C10.2674 73.2937 9.48004 72.5507 9.51478 71.5472C9.54951 70.5668 10.3079 69.8721 11.4735 69.8412C12.8514 69.8045 14.2313 69.8277 15.6111 69.8258C16.3811 69.8258 17.1511 69.8258 17.9211 69.8277L17.9192 69.8258Z" fill="white"/>
<path d="M17.7909 43.7547C15.7395 43.7547 13.6881 43.7624 11.6367 43.7527C10.3206 43.7469 9.52743 43.0947 9.51006 42.0429C9.4927 41.0529 10.2357 40.2868 11.4997 40.2733C15.7299 40.2269 19.9601 40.225 24.1902 40.2771C25.4659 40.2926 26.1355 41.0452 26.0988 42.0969C26.0622 43.1429 25.3327 43.745 24.0416 43.7527C21.9574 43.7643 19.8752 43.7566 17.7909 43.7566V43.7547Z" fill="white"/>
<path d="M17.789 50.3086C15.7067 50.3086 13.6244 50.3164 11.544 50.3048C10.2955 50.299 9.53124 49.6486 9.51966 48.6162C9.50808 47.5837 10.2723 46.8871 11.5055 46.8851C15.7009 46.8716 19.8983 46.8716 24.0937 46.8851C25.377 46.889 26.0911 47.5181 26.1026 48.5776C26.1142 49.6776 25.3847 50.299 24.0377 50.3048C21.9555 50.3144 19.8732 50.3067 17.7909 50.3067L17.789 50.3086Z" fill="white"/>
<path d="M34.3527 69.9827C34.3527 70.5578 34.401 71.1367 34.3412 71.706C34.2408 72.6613 33.5017 73.3309 32.6294 73.3406C31.7957 73.3483 31.0334 72.7558 30.9061 71.8372C30.7305 70.5713 30.7131 69.2841 30.9196 68.0201C31.0682 67.1092 31.8555 66.5283 32.6815 66.5727C33.5191 66.6171 34.2331 67.2616 34.3334 68.1648C34.3991 68.763 34.3469 69.3767 34.3469 69.9827C34.3469 69.9827 34.3489 69.9827 34.3508 69.9827H34.3527Z" fill="white"/>
<path d="M34.3639 60.104C34.3639 60.6501 34.3986 61.1982 34.3561 61.7386C34.2789 62.7208 33.6151 63.3943 32.7216 63.46C31.8377 63.5256 31.0368 62.9312 30.9017 61.9586C30.73 60.7196 30.7242 59.4575 30.9075 58.2186C31.0465 57.2768 31.7779 56.7133 32.6405 56.7268C33.5302 56.7403 34.2442 57.3964 34.3407 58.3729C34.3986 58.9442 34.3503 59.527 34.3503 60.104H34.36H34.3639Z" fill="white"/>
<path d="M34.3552 79.83C34.3552 80.4051 34.4034 80.984 34.3436 81.5514C34.2452 82.5028 33.5138 83.1744 32.6415 83.1937C31.8059 83.213 31.0475 82.6282 30.9143 81.7058C30.731 80.4417 30.7194 79.1545 30.922 77.8924C31.0706 76.9719 31.8445 76.3968 32.6762 76.4354C33.564 76.4759 34.2587 77.1398 34.3494 78.1067C34.4015 78.6759 34.3591 79.2549 34.3591 79.8281C34.3591 79.8281 34.3571 79.8281 34.3552 79.8281V79.83Z" fill="white"/>
<path d="M34.3586 40.339C34.3586 40.916 34.401 41.4969 34.3489 42.0681C34.2582 43.0542 33.5693 43.7123 32.6777 43.7412C31.7784 43.7702 31.0142 43.1719 30.8907 42.1974C30.7382 40.9893 30.7344 39.76 30.8946 38.5539C31.0258 37.5581 31.7591 36.9984 32.6893 37.037C33.604 37.0737 34.2698 37.7144 34.3547 38.7044C34.401 39.2447 34.3625 39.7928 34.3625 40.339C34.3625 40.339 34.3605 40.339 34.3586 40.339Z" fill="white"/>
<path d="M34.3598 50.2182C34.3598 50.7953 34.4022 51.3742 34.3501 51.9474C34.2652 52.8968 33.6264 53.5144 32.7541 53.5742C31.8143 53.6379 31.054 53.1053 30.9073 52.1268C30.722 50.8898 30.7336 49.6297 30.8976 48.3907C31.0289 47.4046 31.7777 46.8526 32.7098 46.897C33.6226 46.9395 34.2652 47.5744 34.352 48.5837C34.3984 49.124 34.3598 49.6721 34.3598 50.2163V50.2182Z" fill="white"/>
</g>
<defs>
<clipPath id="clip0_580_1772">
<rect width="99" height="85.7537" fill="white" transform="translate(1 7.30469)"/>
</clipPath>
</defs>
</svg>
