<svg width="231" height="127" viewBox="0 0 231 127" fill="none" xmlns="http://www.w3.org/2000/svg">
<g clip-path="url(#clip0_580_58)">
<g clip-path="url(#clip1_580_58)">
<path d="M131.991 53.3623C133.507 53.3623 135.025 53.3233 136.541 53.3727C138.278 53.4299 138.936 54.0513 138.655 55.7101C138.345 57.5275 138.59 59.5997 136.83 60.9309C136.627 61.0843 136.577 61.2663 136.785 61.4717C136.939 61.6225 137.178 61.7785 137.201 61.9553C137.508 64.1705 136.884 66.2531 136.044 68.2317C135.48 69.5629 134.079 69.6591 132.789 69.6669C129.929 69.6799 127.069 69.6825 124.209 69.6669C122.834 69.6591 122.701 69.4745 122.985 68.1147C123.64 64.9765 124.344 61.8487 124.937 58.7001C125.184 57.3793 126.068 57.5119 126.983 57.5145C128.658 57.5197 128.684 57.5197 128.523 59.1733C128.455 59.8623 128.681 60.1353 129.36 60.1249C130.66 60.1067 131.96 60.1535 133.26 60.1015C134.282 60.0625 134.822 59.0537 134.791 57.5249C134.768 56.3939 133.964 56.4823 133.231 56.4771C131.151 56.4641 129.071 56.4927 126.991 56.4537C126.474 56.4433 125.689 56.7891 125.652 55.7439C125.603 54.3789 126.123 53.4013 127.054 53.3779C128.699 53.3337 130.345 53.3649 131.994 53.3649L131.991 53.3623ZM130.007 66.3701C130.267 66.3701 130.527 66.3701 130.785 66.3701C132.331 66.3683 133.248 65.6161 133.535 64.1133C133.559 63.9859 133.587 63.8585 133.619 63.7337C133.821 62.9199 133.525 62.4649 132.667 62.4597C131.328 62.4493 129.986 62.4545 128.645 62.4623C128.338 62.4623 127.987 62.5039 127.865 62.8211C127.477 63.8299 126.944 64.9557 127.269 65.9411C127.561 66.8225 128.725 66.2245 129.49 66.3675C129.656 66.3987 129.836 66.3727 130.007 66.3727V66.3701Z" fill="white"/>
<path d="M48.7512 69.6615C47.2354 69.6615 45.717 69.6485 44.2012 69.6667C43.325 69.6771 42.922 69.4145 43.1248 68.4291C43.494 66.6429 43.5486 66.5545 45.405 66.5493C47.4408 66.5441 49.4792 66.5701 51.515 66.5285C52.828 66.5025 54.115 64.3263 53.5404 63.1589C53.2804 62.6285 52.75 62.6961 52.282 62.6935C50.462 62.6805 48.642 62.7039 46.822 62.6779C45.1866 62.6571 44.6068 62.0175 44.8694 60.3951C45.1112 58.9001 45.4362 57.4155 45.8262 55.9517C46.328 54.0667 47.2224 53.3855 49.2036 53.3595C52.0194 53.3231 54.8352 53.3335 57.651 53.3595C58.2386 53.3647 59.055 53.1151 59.0524 54.1941C59.0498 55.6657 58.574 56.4197 57.521 56.4379C55.4852 56.4691 53.4494 56.4509 51.411 56.4535C49.4246 56.4561 48.6238 57.3297 48.7512 59.2927C48.8006 60.0545 49.3284 60.0571 49.8562 60.0623C51.6762 60.0753 53.4962 60.0571 55.3162 60.0753C57.2506 60.0935 57.8044 60.7721 57.4222 62.6805C57.1258 64.1677 56.8242 65.6549 56.4498 67.1213C56 68.8815 55.1134 69.5861 53.3012 69.6459C51.7854 69.6953 50.2696 69.6563 48.7512 69.6563V69.6615Z" fill="white"/>
<path d="M66.7583 57.4967C68.2741 57.4967 69.7899 57.4733 71.3057 57.5045C72.7669 57.5357 73.3701 58.1389 73.1101 59.5247C72.5979 62.2469 71.9947 64.9509 71.3707 67.6497C71.0535 69.0251 70.0369 69.6205 68.6823 69.6517C67.2549 69.6829 65.8249 69.6881 64.3949 69.6517C63.9035 69.6387 63.0533 69.8935 63.1911 68.9705C63.3133 68.1645 63.0559 66.9815 64.3845 66.8463C65.1983 66.7631 66.0303 66.7891 66.8493 66.8203C67.7749 66.8541 68.3105 66.4849 68.4899 65.5489C68.7421 64.2307 69.0281 62.9203 69.3401 61.6151C69.5481 60.7493 69.2075 60.3879 68.3677 60.3879C67.2419 60.3879 66.1135 60.4191 64.9903 60.3697C64.0257 60.3255 63.6279 60.7389 63.4381 61.6775C62.6581 65.5385 61.8053 69.3839 60.9733 73.2345C60.7185 74.4201 58.6775 75.2209 57.7155 74.5241C57.4009 74.2979 57.4867 73.9885 57.5491 73.6973C58.6229 68.6143 59.7045 63.5339 60.7731 58.4509C60.9265 57.7177 61.3763 57.4837 62.0783 57.4941C63.6357 57.5175 65.1957 57.5019 66.7557 57.5019L66.7583 57.4967Z" fill="white"/>
<path d="M79.6679 69.6485C78.2821 69.6485 76.8937 69.6927 75.5105 69.6355C74.1091 69.5783 73.5397 68.8685 73.8049 67.4957C74.3093 64.9035 74.8397 62.3139 75.4325 59.7425C75.8121 58.0915 76.6051 57.5091 78.2951 57.4961C80.9367 57.4753 83.5783 57.4753 86.2225 57.4961C88.0165 57.5091 88.5209 58.0395 88.1985 59.8127C87.7253 62.4101 87.1221 64.9841 86.5735 67.5659C86.2719 68.9751 85.3125 69.5913 83.9579 69.6303C82.5305 69.6719 81.1005 69.6407 79.6705 69.6407V69.6485H79.6679ZM80.4219 66.6039C83.7681 66.5623 83.3729 67.0381 84.0879 63.5723C84.1139 63.4449 84.1373 63.3175 84.1633 63.1901C84.7847 60.2885 84.9927 60.3119 81.8961 60.3483C78.3939 60.3873 78.7033 59.8283 77.9779 63.5541C77.3825 66.6091 77.3513 66.6039 80.4193 66.6039H80.4219Z" fill="white"/>
<path d="M173.145 61.0496C175.337 59.8848 176.624 57.8178 178.805 57.2744C179.97 56.9832 181.273 57.0924 182.833 57.3576C181.356 58.5172 180.09 59.5156 178.816 60.5062C177.929 61.1978 177.05 61.905 176.138 62.5602C175.423 63.075 175.368 63.5014 176.109 64.0474C177.05 64.7416 177.89 65.5814 178.875 66.1976C180.126 66.9828 179.85 68.2334 179.736 69.2292C179.65 69.9702 178.644 69.7102 178.114 69.3644C177.245 68.8002 176.452 68.119 175.636 67.4768C174.955 66.9412 174.292 66.3848 173.608 65.8544C172.388 64.908 172.318 64.9366 171.991 66.5044C171.848 67.183 171.741 67.8694 171.569 68.5376C171.317 69.523 169.073 70.1314 168.325 69.432C168.02 69.146 168.119 68.7976 168.192 68.4596C169.266 63.4208 170.334 58.382 171.424 53.3458C171.645 52.324 172.518 52.012 174.052 52.3032C175.176 52.5164 174.773 53.299 174.645 53.9308C174.185 56.2136 173.686 58.4912 173.145 61.0418V61.0496Z" fill="white"/>
<path d="M116.888 57.4974C118.274 57.4974 119.659 57.4688 121.043 57.513C121.518 57.5286 122.254 57.1828 122.317 58.1422C122.389 59.2472 121.862 60.0766 120.959 60.0948C119.228 60.1312 117.496 60.1078 115.765 60.113C115.159 60.113 114.55 60.113 113.947 60.152C112.996 60.2196 112.73 60.9086 112.73 61.6964C112.73 62.5466 113.438 62.4296 113.976 62.4348C115.752 62.4556 117.525 62.427 119.301 62.453C120.978 62.4764 121.414 63.0094 121.102 64.6162C120.905 65.6354 120.686 66.652 120.455 67.6634C120.179 68.8698 119.392 69.5926 118.177 69.616C115.018 69.6758 111.857 69.6524 108.698 69.6576C108.162 69.6576 107.681 69.4912 107.853 68.8334C108.061 68.03 107.809 66.86 109.207 66.8574C111.415 66.8548 113.622 66.8548 115.83 66.8418C116.256 66.8418 116.734 66.9224 117.052 66.5532C117.439 66.1008 117.548 65.508 117.41 64.9646C117.278 64.4446 116.721 64.5304 116.3 64.5252C114.613 64.5122 112.923 64.5226 111.235 64.5148C109.148 64.507 108.836 64.1352 109.241 62.1384C109.413 61.2908 109.587 60.4406 109.803 59.6034C110.201 58.046 110.84 57.5338 112.47 57.5052C113.942 57.4766 115.414 57.5 116.885 57.5V57.4948L116.888 57.4974Z" fill="white"/>
<path d="M161.302 69.6694C160.091 69.6694 158.874 69.711 157.665 69.659C156.216 69.5966 155.621 68.983 155.871 67.5868C156.367 64.8178 156.968 62.067 157.587 59.3214C157.831 58.2424 158.603 57.5742 159.727 57.5534C162.368 57.504 165.01 57.5248 167.651 57.5196C168.294 57.5196 168.681 57.8264 168.525 58.4816C168.343 59.2486 168.587 60.3614 167.251 60.3666C165.605 60.3718 163.957 60.429 162.314 60.3588C161.089 60.3068 160.465 60.7722 160.293 61.9942C160.15 63.0212 159.864 64.0274 159.664 65.0466C159.389 66.4428 159.49 66.578 160.871 66.5962C162.342 66.6144 163.816 66.5728 165.288 66.6144C165.818 66.63 166.606 66.3232 166.658 67.3216C166.723 68.58 166.094 69.633 165.197 69.6616C163.9 69.7006 162.6 69.672 161.3 69.672C161.3 69.672 161.3 69.6694 161.3 69.6668L161.302 69.6694Z" fill="white"/>
<path d="M103.077 69.6606C99.7338 69.6606 99.4972 69.3772 100.184 66.0466C100.899 62.5756 101.634 59.1098 102.368 55.6414C102.659 54.2686 104.333 53.512 105.521 54.2088C106.078 54.5338 105.844 55.033 105.763 55.4854C105.55 56.7074 106.047 57.3782 107.253 57.4978C107.695 57.5394 108.228 57.5472 108.088 58.179C107.929 58.8836 108.064 60.1264 107.066 59.999C104.513 59.674 104.476 61.4498 104.146 63.0722C103.972 63.9198 103.834 64.7752 103.608 65.6072C103.348 66.577 103.535 67.0944 104.669 67.0788C105.173 67.0736 106.075 66.7512 105.945 67.8042C105.841 68.6518 105.888 69.7412 104.502 69.6632C104.029 69.6372 103.551 69.658 103.075 69.658L103.077 69.6606Z" fill="white"/>
<path d="M140.403 69.6818C138.69 69.6766 138.542 69.518 138.846 68.0412C139.483 64.9472 140.133 61.8558 140.793 58.767C141.064 57.4982 143.235 56.8846 144.132 57.8856C144.423 58.2106 144.496 58.221 144.787 58.0286C146.136 57.1368 147.647 57.6048 149.09 57.5424C149.644 57.519 149.891 57.8856 149.732 58.403C149.501 59.1596 149.781 60.2958 148.481 60.3426C147.4 60.3816 146.316 60.392 145.237 60.3582C144.256 60.3296 143.721 60.7144 143.523 61.7102C143.097 63.876 142.538 66.0158 142.161 68.1868C141.953 69.3828 141.42 69.8768 140.406 69.6792L140.403 69.6818Z" fill="white"/>
<path d="M96.7239 60.333C94.7947 60.3469 93.6386 61.3149 93.2555 63.2372C92.8967 65.0182 92.5457 66.8018 92.1427 68.5724C91.9009 69.6332 91.0481 69.9478 89.5271 69.6514C88.4065 69.433 88.8069 68.653 88.9369 68.0238C89.5661 64.974 90.2135 61.9268 90.8791 58.8848C91.1859 57.4834 93.2711 56.836 94.2201 57.902C94.5451 58.266 94.6335 58.1672 94.8883 58.0034C96.2455 57.1376 97.7509 57.5978 99.1965 57.5354C99.6697 57.5146 99.9661 57.8266 99.8231 58.2894C99.5891 59.0434 99.9245 60.177 98.6687 60.3226C98.0291 60.3954 97.3739 60.3356 96.7239 60.3356V60.333Z" fill="white"/>
<path d="M151.247 69.6813C149.593 69.6865 149.492 69.5981 149.814 68.0043C150.441 64.9129 151.094 61.8241 151.762 58.7431C151.996 57.6667 154.185 56.9673 155.004 57.6693C155.293 57.9163 155.196 58.2205 155.137 58.5091C154.419 61.9359 153.688 65.3601 152.984 68.7869C152.768 69.8399 151.959 69.6397 151.25 69.6787L151.247 69.6813Z" fill="white"/>
<path d="M184.435 56.8236C184.516 55.8694 184.521 54.6682 184.448 53.4644C184.399 52.6428 184.768 52.2476 185.641 52.4582C186.271 52.6116 186.915 52.7026 187.539 52.8716C187.968 52.9886 188.624 53.025 188.457 53.6958C188.312 54.273 187.76 54.0286 187.352 53.974C187.053 53.9324 186.759 53.8544 186.46 53.8076C186.029 53.74 185.556 53.6256 185.488 54.2886C185.436 54.7956 185.509 55.2584 186.102 55.4092C186.645 55.547 187.196 55.6536 187.74 55.7966C188.169 55.9084 188.644 56.067 188.52 56.6338C188.392 57.2058 187.898 56.9458 187.55 56.9146C187.209 56.8834 186.876 56.756 186.536 56.7066C186.13 56.6468 185.626 56.418 185.506 57.0836C185.405 57.64 185.501 58.134 186.161 58.2926C186.666 58.4148 187.175 58.5084 187.675 58.6436C188.088 58.7554 188.605 58.849 188.525 59.4288C188.429 60.1334 187.867 59.785 187.493 59.7668C187.196 59.7538 186.902 59.6446 186.609 59.577C185.232 59.265 184.509 58.349 184.438 56.8288L184.435 56.8236Z" fill="white"/>
<path d="M188.575 62.7228C188.575 63.3728 188.606 63.7628 188.564 64.145C188.538 64.3868 188.468 64.756 188.307 64.8314C187.267 65.3254 186.302 64.7066 185.309 64.5298C184.633 64.4102 184.438 63.9006 184.441 63.2792C184.441 63.1934 184.441 63.1076 184.436 63.0218C184.326 59.8784 184.43 59.829 187.454 60.6038C188.889 60.973 188.515 62.0468 188.575 62.7202V62.7228ZM187.569 62.5252C187.615 61.6386 186.838 61.6204 186.165 61.5398C185.429 61.4514 185.494 62.0234 185.47 62.4914C185.424 63.4092 185.993 63.6822 186.776 63.7082C187.524 63.7316 187.566 63.2038 187.571 62.5252H187.569Z" fill="white"/>
<path d="M154.041 55.9679C153.544 55.7963 152.522 56.3553 152.559 55.0813C152.621 52.9571 153.115 52.3097 154.711 52.3539C155.343 52.3721 156.316 51.9899 156.287 53.2379C156.238 55.3439 155.744 55.9653 154.043 55.9653L154.041 55.9679Z" fill="white"/>
<path d="M188.591 67.8181C188.588 69.7031 188.515 69.7603 186.662 69.3469C184.389 68.8399 184.121 68.4551 184.446 66.1515C184.493 65.8109 184.483 65.3845 184.972 65.4157C185.434 65.4443 185.414 65.8655 185.453 66.2087C185.536 66.9757 185.198 67.9169 186.412 68.1717C187.171 68.3329 187.564 68.2185 187.59 67.3449C187.603 66.8925 187.304 66.0787 188.019 66.0761C188.814 66.0709 188.505 66.9185 188.588 67.4281C188.609 67.5555 188.591 67.6881 188.591 67.8181Z" fill="white"/>
<path d="M182.127 69.4535C181.302 69.4301 180.756 69.0271 180.712 68.2367C180.665 67.4489 181.141 66.9263 181.952 66.8925C182.745 66.8587 183.286 67.2851 183.328 68.0989C183.369 68.8997 182.927 69.3729 182.129 69.4535H182.127Z" fill="white"/>
</g>
</g>
<defs>
<clipPath id="clip0_580_58">
<rect width="231" height="127" fill="white"/>
</clipPath>
<clipPath id="clip1_580_58">
<rect width="145.6" height="22.88" fill="white" transform="translate(43 51.9961)"/>
</clipPath>
</defs>
</svg>
