<svg width="100" height="100" viewBox="0 0 100 100" fill="none" xmlns="http://www.w3.org/2000/svg">
<g clip-path="url(#clip0_580_1874)">
<g clip-path="url(#clip1_580_1874)">
<path d="M99.2018 92.6428C98.2598 95.9928 96.2158 98.2288 92.7338 98.9728C92.1878 99.0888 91.6118 99.0948 91.0478 99.0948C79.4398 99.1008 67.8318 99.1068 56.2258 99.0948C51.4878 99.0908 48.0398 95.6428 48.0378 90.9048C48.0298 74.9409 48.0338 58.977 48.0338 43.0111C48.0338 42.0804 47.5571 41.6144 46.6038 41.6131C39.3538 41.6131 32.1018 41.5951 24.8518 41.6311C23.8318 41.6371 23.0878 41.3271 22.3938 40.5991C20.9258 39.0591 19.3658 37.6071 17.9038 36.0591C17.2998 35.4191 16.6618 35.1931 15.7998 35.2091C13.3718 35.2551 10.9438 35.2311 8.51577 35.2211C7.21177 35.2151 6.50577 34.6012 6.52377 33.5232C6.54177 32.4932 7.23577 31.8992 8.48177 31.8952C11.4758 31.8852 14.4678 31.9052 17.4618 31.8832C18.1838 31.8772 18.7338 32.1252 19.2318 32.6292C20.8658 34.2872 22.5338 35.9131 24.1578 37.5811C24.6318 38.0671 25.1198 38.2951 25.8138 38.2931C32.8318 38.2711 39.8498 38.2631 46.8678 38.2991C47.7918 38.3031 48.0518 38.0291 48.0478 37.1131C48.0178 27.7672 48.1458 18.4192 47.9798 9.07729C47.8958 4.39932 50.3818 1.08934 54.4858 0.0273438H92.8078C96.1718 0.921339 98.2978 3.05333 99.1958 6.41531V92.6408L99.2018 92.6428ZM51.3678 52.393C51.3678 65.067 51.3638 77.7389 51.3698 90.4128C51.3698 93.6908 53.2498 95.7448 56.3898 95.7528C67.8978 95.7828 79.4078 95.7708 90.9158 95.7568C92.2858 95.7568 93.5398 95.3508 94.5358 94.3408C95.6698 93.1908 95.9418 91.7548 95.9418 90.2128C95.9378 64.901 95.9378 39.5871 95.9378 14.2753C95.9378 13.3446 95.4611 12.8786 94.5078 12.8773C80.6038 12.8773 66.6998 12.8773 52.7958 12.8773C51.8451 12.8773 51.3691 13.3439 51.3678 14.2773C51.3678 26.9832 51.3678 39.6891 51.3678 52.397V52.393ZM73.5538 9.54129C80.6378 9.54129 87.7218 9.52929 94.8078 9.55729C95.6598 9.56129 95.9778 9.35129 95.9578 8.4453C95.8898 5.33331 93.9478 3.33933 90.8158 3.29733C89.0858 3.27533 87.3578 3.29333 85.6278 3.29333C75.9818 3.29333 66.3378 3.28733 56.6918 3.29733C53.4718 3.29933 51.4678 5.18132 51.3718 8.2473C51.3318 9.51729 51.3518 9.54129 52.5998 9.54129C59.5838 9.54129 66.5698 9.54129 73.5538 9.54129Z" fill="white"/>
<path d="M29.7526 0.0313437C30.4546 0.607341 30.6366 1.35134 30.6346 2.24333C30.6106 10.1573 30.6186 18.0712 30.6306 25.9852C30.6306 26.3732 30.4206 26.8872 31.0266 27.0812C31.7226 27.3032 32.0746 27.0012 32.0766 26.1372C32.0826 22.4452 32.0766 18.7552 32.0806 15.0633C32.0806 13.1753 32.5306 12.7393 34.4506 12.7353C35.6806 12.7353 36.9106 12.7293 38.1426 12.7353C39.6506 12.7453 40.1986 13.2773 40.2006 14.7733C40.2086 18.4972 40.2326 22.2232 40.1846 25.9452C40.1726 26.8752 40.4586 27.1612 41.3746 27.1252C42.6946 27.0732 43.3946 27.7112 43.3886 28.7812C43.3826 29.8432 42.6726 30.4352 41.3526 30.4352C28.2846 30.4392 15.2146 30.4392 2.14659 30.4352C0.842587 30.4352 0.138587 29.8152 0.156587 28.7372C0.174587 27.7092 0.868587 27.0532 2.11259 27.1312C3.18659 27.1972 3.36459 26.7592 3.35859 25.8032C3.31859 20.0512 3.33659 14.2973 3.34059 8.5453C3.34059 6.84331 3.83659 6.35531 5.54059 6.34931C6.83659 6.34531 8.13459 6.34131 9.43059 6.34931C10.9206 6.36131 11.4566 6.90131 11.4586 8.4173C11.4646 14.2693 11.4586 20.1232 11.4706 25.9752C11.4706 26.3652 11.2606 26.8772 11.8566 27.0792C12.5446 27.3112 12.9146 26.9992 12.9146 26.1452C12.9206 22.4212 12.9146 18.6972 12.9186 14.9713C12.9186 13.2113 13.4006 12.7393 15.1786 12.7333C16.3766 12.7293 17.5726 12.7293 18.7706 12.7333C20.5546 12.7373 21.0386 13.2093 21.0406 14.9613C21.0446 18.5192 21.0226 22.0772 21.0626 25.6352C21.0686 26.1732 20.6006 27.1132 21.7966 27.0952C22.9086 27.0772 22.4786 26.2012 22.4806 25.6832C22.5066 17.8692 22.5086 10.0533 22.4846 2.23933C22.4826 1.34734 22.6626 0.603341 23.3666 0.0273438H29.7546L29.7526 0.0313437ZM25.8306 15.0933C25.8306 18.7472 25.8306 22.4012 25.8306 26.0552C25.8306 26.5972 25.7566 27.1392 26.6026 27.1152C27.4026 27.0932 27.2866 26.5552 27.2866 26.0712C27.2906 18.8292 27.2866 11.5873 27.2906 4.34532C27.2906 3.80332 27.3646 3.26133 26.5186 3.28533C25.7186 3.30733 25.8346 3.84532 25.8346 4.32932C25.8306 7.9173 25.8326 11.5053 25.8326 15.0913L25.8306 15.0933ZM6.66859 18.2952C6.66859 20.9172 6.66859 23.5412 6.66859 26.1632C6.66859 26.6432 6.63259 27.0952 7.34659 27.1152C8.08459 27.1372 8.13059 26.7232 8.13059 26.1632C8.12259 20.9832 8.12459 15.8033 8.12659 10.6253C8.12659 10.1453 8.16259 9.69329 7.44859 9.67329C6.71059 9.65129 6.66259 10.0653 6.66459 10.6253C6.67659 13.1813 6.67059 15.7393 6.67059 18.2952H6.66859ZM36.8666 21.5892C36.8666 20.0312 36.8606 18.4712 36.8706 16.9133C36.8726 16.4313 36.8106 16.0773 36.1906 16.0633C35.5526 16.0493 35.4046 16.3493 35.4066 16.9133C35.4206 20.0312 35.4166 23.1492 35.4106 26.2672C35.4106 26.7492 35.4686 27.1032 36.0906 27.1172C36.7286 27.1312 36.8826 26.8312 36.8746 26.2672C36.8546 24.7092 36.8686 23.1492 36.8686 21.5912L36.8666 21.5892ZM16.2506 21.4872C16.2506 23.0792 16.2626 24.6712 16.2446 26.2632C16.2386 26.8272 16.3886 27.1292 17.0266 27.1152C17.6466 27.1012 17.7106 26.7492 17.7086 26.2672C17.7026 23.1492 17.6986 20.0312 17.7126 16.9133C17.7146 16.3493 17.5686 16.0473 16.9306 16.0613C16.3106 16.0753 16.2446 16.4273 16.2486 16.9093C16.2586 18.4352 16.2526 19.9612 16.2526 21.4872H16.2506Z" fill="white"/>
<path d="M22.5412 87.8439C10.0732 87.8439 0.117188 77.8779 0.117188 65.396C0.117188 52.942 10.0992 42.9901 22.5912 42.9961C35.0452 43.0021 44.9812 52.992 44.9652 65.494C44.9492 77.8999 34.9752 87.8419 22.5432 87.8439H22.5412ZM22.5932 75.2359C20.8652 75.2359 19.1392 75.2439 17.4112 75.2319C16.8932 75.2279 16.4452 75.3399 16.0312 75.6779C14.4352 76.9779 12.8292 78.2679 11.2052 79.5339C10.6532 79.9639 10.5612 80.2559 11.1952 80.7259C17.9092 85.7059 27.1792 85.7019 33.8832 80.7259C34.5112 80.2599 34.4392 79.9699 33.8812 79.5339C32.3092 78.3099 30.7492 77.0679 29.2132 75.8019C28.7192 75.3959 28.2092 75.2179 27.5772 75.2259C25.9172 75.2499 24.2552 75.2339 22.5952 75.2339L22.5932 75.2359ZM22.5292 71.7639C23.7912 71.7639 25.0552 71.7459 26.3172 71.7719C26.9012 71.7839 27.2412 71.5799 27.4212 71.0079C28.1832 68.602 28.9552 66.198 29.7552 63.804C29.9572 63.2 29.8172 62.81 29.3052 62.446C27.2752 61 25.2552 59.54 23.2552 58.054C22.7452 57.676 22.3612 57.656 21.8412 58.042C19.8412 59.53 17.8212 60.988 15.7932 62.436C15.2912 62.794 15.1112 63.17 15.3172 63.786C16.1172 66.18 16.8892 68.584 17.6512 70.99C17.8292 71.5519 18.1472 71.7859 18.7412 71.7739C20.0032 71.7459 21.2672 71.7659 22.5292 71.7659V71.7639ZM20.8712 50.5521C20.8712 49.4901 20.8392 48.4261 20.8812 47.3641C20.9112 46.6081 20.5512 46.4381 19.9012 46.5461C13.8852 47.5501 9.25119 50.5981 6.07519 55.836C5.66719 56.51 5.83519 56.782 6.49319 57.094C8.32319 57.96 10.1432 58.856 11.9252 59.816C12.6892 60.228 13.2432 60.13 13.9072 59.63C15.9772 58.074 18.0752 56.554 20.1892 55.058C20.7172 54.684 20.9052 54.262 20.8812 53.64C20.8432 52.612 20.8712 51.5821 20.8692 50.5521H20.8712ZM24.9012 46.5281C24.2632 46.4561 24.2012 46.8581 24.2032 47.3421C24.2092 49.5001 24.2172 51.66 24.1972 53.818C24.1932 54.338 24.3732 54.678 24.7952 54.98C27.0372 56.584 29.2672 58.204 31.4872 59.838C31.9472 60.178 32.3552 60.21 32.8632 59.95C34.7852 58.968 36.7092 57.99 38.6572 57.062C39.3072 56.752 39.3612 56.452 39.0112 55.858C36.9552 52.376 34.0952 49.7941 30.4312 48.0981C28.6712 47.2841 26.8232 46.7681 24.9032 46.5301L24.9012 46.5281ZM3.43919 65.53C3.49319 66.084 3.55919 66.678 3.60919 67.272C3.92119 70.952 5.29519 74.2059 7.50919 77.1359C7.87719 77.6239 8.15519 77.6379 8.62719 77.2479C10.3692 75.8119 12.1392 74.4079 13.9172 73.0159C14.3672 72.6619 14.5272 72.3299 14.3312 71.7479C13.4832 69.232 12.6772 66.702 11.8692 64.172C11.7192 63.7 11.4612 63.376 11.0052 63.152C9.03719 62.188 7.06719 61.228 5.12719 60.208C4.39919 59.824 4.22519 60.136 4.06319 60.756C3.65919 62.31 3.60319 63.904 3.43919 65.53ZM41.5932 65.068C41.4832 63.856 41.4072 62.264 41.0032 60.712C40.8552 60.14 40.6932 59.826 40.0032 60.186C38.0332 61.218 36.0372 62.198 34.0372 63.174C33.5732 63.4 33.3452 63.75 33.1972 64.212C32.3952 66.708 31.6032 69.206 30.7632 71.6899C30.5552 72.3039 30.7012 72.6599 31.1932 73.0399C32.9232 74.3839 34.6412 75.7459 36.3252 77.1479C36.8812 77.6099 37.1932 77.6479 37.6572 77.0219C40.2172 73.5779 41.5232 69.72 41.5932 65.066V65.068Z" fill="white"/>
<path d="M6.51469 99.0936C5.02069 99.0936 3.52669 99.1056 2.03269 99.0896C0.724688 99.0756 0.146687 98.5016 0.130687 97.2056C0.112688 95.7456 0.112688 94.2836 0.130687 92.8236C0.146687 91.5776 0.726688 90.9856 1.96669 90.9776C5.05469 90.9616 8.14069 90.9596 11.2287 90.9776C12.4107 90.9856 13.0107 91.5856 13.0287 92.7576C13.0527 94.2836 13.0547 95.8116 13.0287 97.3376C13.0087 98.4596 12.4107 99.0616 11.2947 99.0816C9.70269 99.1096 8.10869 99.0896 6.51469 99.0916V99.0936ZM6.63469 94.3076C5.80669 94.3076 4.97869 94.3196 4.15269 94.3036C3.63669 94.2936 3.45669 94.5356 3.45669 95.0316C3.45669 95.5256 3.63069 95.7656 4.15069 95.7616C5.77269 95.7496 7.39469 95.7496 9.01669 95.7616C9.53269 95.7656 9.71269 95.5296 9.71269 95.0336C9.71269 94.5396 9.53869 94.2936 9.01869 94.3036C8.22469 94.3196 7.43069 94.3076 6.63469 94.3076Z" fill="white"/>
<path d="M28.1346 95.8146C32.0546 95.8146 35.9746 95.8206 39.8946 95.8086C40.7546 95.8066 41.4026 96.1206 41.6766 96.9526C41.9006 97.6346 41.7386 98.2646 41.1726 98.7566C40.8246 99.0586 40.4166 99.1446 39.9706 99.1446C32.0646 99.1426 24.1586 99.1486 16.2526 99.1366C15.1726 99.1366 14.5106 98.4826 14.4926 97.5166C14.4726 96.5066 15.1486 95.8266 16.2766 95.8226C20.2306 95.8066 24.1826 95.8166 28.1366 95.8146H28.1346Z" fill="white"/>
<path d="M19.3449 90.9718C20.3729 90.9718 21.4009 90.9538 22.4269 90.9758C23.5049 90.9998 24.1689 91.6238 24.1929 92.5858C24.2189 93.5938 23.5409 94.2798 22.4249 94.2918C20.3689 94.3138 18.3149 94.3138 16.2589 94.2918C15.1429 94.2798 14.4669 93.5938 14.4929 92.5838C14.5169 91.6218 15.1789 91.0018 16.2609 90.9778C17.2889 90.9538 18.3169 90.9738 19.3429 90.9738L19.3449 90.9718Z" fill="white"/>
<path d="M2.62876 31.9153C2.92676 31.9153 3.22676 31.8913 3.52076 31.9193C4.43876 32.0053 5.04076 32.6633 5.04676 33.5553C5.05276 34.4493 4.45676 35.1393 3.54476 35.2133C2.95276 35.2613 2.35276 35.2533 1.76076 35.2233C0.774762 35.1713 0.142761 34.5133 0.136761 33.5813C0.130761 32.6493 0.758762 31.9853 1.73476 31.9133C2.03076 31.8913 2.32876 31.9093 2.62676 31.9093V31.9133L2.62876 31.9153Z" fill="white"/>
<path d="M28.0756 94.2881C27.7456 94.2881 27.4096 94.3241 27.0856 94.2801C26.2376 94.1661 25.6796 93.4881 25.6836 92.6301C25.6896 91.7721 26.2536 91.0901 27.1096 91.0081C27.7316 90.9481 28.3656 90.9581 28.9916 90.9921C29.9676 91.0461 30.5976 91.7241 30.5916 92.6561C30.5856 93.5841 29.9516 94.2341 28.9656 94.3001C28.6696 94.3201 28.3696 94.3041 28.0736 94.3041V94.2881H28.0756Z" fill="white"/>
<path d="M73.6361 46.2954C67.9821 46.2954 62.3281 46.2954 56.6741 46.2954C54.9041 46.2954 54.4201 45.8154 54.4201 44.0514C54.4181 35.3715 54.4221 26.6915 54.4141 18.0116C54.4141 17.2116 54.4801 16.4736 55.2661 16.0276C56.2721 15.4576 57.5381 16.0536 57.7201 17.1996C57.7761 17.5576 57.7541 17.9296 57.7541 18.2956C57.7541 26.0775 57.7541 33.8595 57.7541 41.6414C57.7541 42.9614 57.7561 42.9674 59.0581 42.9634C61.0221 42.9554 60.8021 43.1554 60.8041 41.1874C60.8101 35.5995 60.8041 30.0135 60.8081 24.4255C60.8081 22.7095 61.3001 22.2135 62.9861 22.2075C64.2841 22.2035 65.5801 22.1995 66.8781 22.2075C68.3761 22.2175 68.9261 22.7575 68.9261 24.2535C68.9321 30.1075 68.9261 35.9595 68.9381 41.8134C68.9381 42.2054 68.7281 42.7154 69.3061 42.9314C69.9781 43.1814 70.3801 42.8534 70.3821 42.0194C70.3901 38.3275 70.3821 34.6355 70.3861 30.9455C70.3861 29.0355 70.8281 28.5955 72.7301 28.5915C74.0281 28.5895 75.3241 28.5795 76.6221 28.5955C77.9201 28.6135 78.5001 29.1915 78.5041 30.5055C78.5161 34.3295 78.5081 38.1555 78.5121 41.9794C78.5121 42.4354 78.4141 42.9534 79.1521 42.9634C79.6661 42.9714 79.9821 42.8514 79.9701 42.2514C79.9501 41.2534 79.9661 40.2554 79.9681 39.2575C79.9681 32.2075 79.9681 25.1555 79.9681 18.1056C79.9681 16.2756 80.4321 15.8196 82.2741 15.8156C83.4721 15.8136 84.6681 15.8116 85.8661 15.8156C87.6141 15.8216 88.0881 16.3036 88.0881 18.0916C88.0901 25.9395 88.0881 33.7895 88.0881 41.6374C88.0881 42.5174 88.5234 42.9581 89.3941 42.9594C89.9601 42.9594 90.5261 42.9474 91.0901 42.9654C92.2141 43.0014 92.8941 43.6634 92.8681 44.6734C92.8441 45.6354 92.1761 46.2754 91.0941 46.2834C88.0341 46.3034 84.9741 46.2914 81.9161 46.2934C79.1561 46.2934 76.3961 46.2934 73.6341 46.2934L73.6361 46.2954ZM83.3001 31.0615C83.3001 34.6815 83.2981 38.3035 83.3021 41.9234C83.3021 42.4054 83.1801 42.9454 83.9821 42.9714C84.8241 42.9974 84.7581 42.4614 84.7581 41.9154C84.7581 34.6735 84.7581 27.4315 84.7541 20.1896C84.7541 19.7076 84.8761 19.1656 84.0741 19.1416C83.2321 19.1156 83.2981 19.6516 83.2981 20.1976C83.3001 23.8175 83.2981 27.4395 83.2981 31.0595L83.3001 31.0615ZM64.1381 34.2135C64.1381 36.8035 64.1401 39.3934 64.1361 41.9834C64.1361 42.5074 64.1081 42.9794 64.8781 42.9754C65.6621 42.9694 65.5961 42.4674 65.5961 41.9614C65.5961 36.8155 65.5961 31.6695 65.5961 26.5235C65.5961 25.9995 65.6241 25.5275 64.8541 25.5315C64.0681 25.5375 64.1361 26.0395 64.1361 26.5455C64.1361 29.1015 64.1361 31.6595 64.1361 34.2155L64.1381 34.2135ZM73.7201 37.4555C73.7201 39.0135 73.7261 40.5734 73.7161 42.1314C73.7121 42.6214 73.7941 42.9594 74.4081 42.9714C75.0561 42.9854 75.1841 42.6634 75.1801 42.1094C75.1681 38.9915 75.1701 35.8735 75.1781 32.7575C75.1781 32.2675 75.1001 31.9315 74.4861 31.9195C73.8381 31.9055 73.7081 32.2275 73.7141 32.7815C73.7321 34.3395 73.7201 35.8995 73.7201 37.4575V37.4555Z" fill="white"/>
<path d="M73.5411 92.6745C67.8891 92.6745 62.2391 92.6765 56.5871 92.6745C54.9351 92.6745 54.4171 92.1685 54.4171 90.5505C54.4131 84.4665 54.4131 78.3846 54.4171 72.3006C54.4171 70.7206 54.9411 70.1866 56.4951 70.1866C67.9311 70.1826 79.3671 70.1826 90.8011 70.1866C92.3491 70.1866 92.8731 70.7266 92.8731 72.3086C92.8771 78.3925 92.8771 84.4745 92.8731 90.5585C92.8731 92.1685 92.3471 92.6745 90.6931 92.6765C84.9751 92.6805 79.2571 92.6765 73.5391 92.6765L73.5411 92.6745ZM82.4291 89.3405C84.4891 89.3405 86.5511 89.3385 88.6111 89.3405C89.1011 89.3405 89.5351 89.3545 89.5511 88.6465C89.5691 87.8945 89.1271 87.8685 88.5831 87.8785C87.8851 87.8925 87.1871 87.8985 86.4891 87.8725C85.4091 87.8325 84.7771 87.2645 84.7671 86.2165C84.7391 83.0265 84.7411 79.8345 84.7671 76.6426C84.7751 75.5886 85.4031 75.0166 86.4771 74.9766C87.1751 74.9506 87.8731 74.9606 88.5711 74.9706C89.1051 74.9786 89.5651 74.9766 89.5511 74.2146C89.5391 73.5146 89.1231 73.5066 88.6231 73.5086C84.5011 73.5126 80.3791 73.5326 76.2571 73.4926C75.3851 73.4846 75.2751 73.8806 75.3011 74.5866C75.3231 75.1686 75.7471 75.2546 76.1311 75.4346C78.6451 76.6146 80.0691 78.5465 80.0871 81.3665C80.1051 84.2265 78.7111 86.2405 76.1311 87.3845C75.3891 87.7125 75.1991 88.1585 75.3271 88.8465C75.4691 89.6145 76.1091 89.3185 76.5431 89.3245C78.5031 89.3545 80.4651 89.3385 82.4271 89.3365L82.4291 89.3405ZM64.8611 89.3405C66.9211 89.3405 68.9831 89.3445 71.0431 89.3365C71.4211 89.3365 71.9151 89.4485 71.9571 88.8485C71.9931 88.3365 72.1331 87.7505 71.4211 87.5205C71.2331 87.4605 71.0531 87.3665 70.8731 87.2805C66.7011 85.2665 65.8691 79.8585 69.2351 76.6726C69.8751 76.0666 70.6151 75.6306 71.4311 75.3306C72.1351 75.0726 71.9851 74.5046 71.9571 73.9946C71.9271 73.4626 71.4931 73.5166 71.1331 73.5166C66.9451 73.5126 62.7571 73.5166 58.5671 73.5106C58.0671 73.5106 57.7491 73.6086 57.7371 74.2166C57.7251 74.8786 58.0711 74.9906 58.6151 74.9766C59.3451 74.9566 60.0791 74.9546 60.8091 74.9806C61.8831 75.0186 62.5131 75.5946 62.5211 76.6466C62.5471 79.8365 62.5471 83.0285 62.5211 86.2205C62.5131 87.2685 61.8771 87.8385 60.7991 87.8785C60.1011 87.9045 59.4031 87.8965 58.7051 87.8845C58.1591 87.8745 57.7191 87.9005 57.7371 88.6525C57.7531 89.3605 58.1891 89.3465 58.6771 89.3465C60.7371 89.3425 62.7991 89.3465 64.8591 89.3465L64.8611 89.3405ZM59.2011 81.4145C59.2011 80.6205 59.1911 79.8265 59.2051 79.0305C59.2131 78.5425 59.0331 78.3065 58.5111 78.2965C57.9591 78.2885 57.7351 78.5045 57.7411 79.0565C57.7571 80.6445 57.7531 82.2345 57.7431 83.8225C57.7391 84.3105 57.9171 84.5465 58.4371 84.5545C58.9891 84.5645 59.2211 84.3485 59.2051 83.7945C59.1831 83.0005 59.1991 82.2065 59.1991 81.4105L59.2011 81.4145ZM88.0891 81.3765C88.0891 82.2045 88.1011 83.0325 88.0851 83.8585C88.0751 84.3745 88.3151 84.5545 88.8131 84.5545C89.3051 84.5545 89.5491 84.3805 89.5451 83.8605C89.5331 82.2385 89.5331 80.6165 89.5451 78.9945C89.5491 78.4785 89.3111 78.2985 88.8171 78.2985C88.3231 78.2985 88.0771 78.4745 88.0871 78.9925C88.1031 79.7865 88.0911 80.5805 88.0911 81.3765H88.0891ZM71.9771 83.8165C71.9771 82.3165 71.9791 80.9345 71.9751 79.5545C71.9751 79.3985 72.0291 79.1905 71.8371 79.1185C71.6111 79.0345 71.4831 79.2325 71.3551 79.3745C70.0551 80.8105 70.4611 83.1005 71.9791 83.8165H71.9771ZM75.3811 83.8285C76.4171 83.2285 76.7291 82.3265 76.7051 81.3525C76.6811 80.4325 76.3851 79.5585 75.3811 79.0485V83.8285Z" fill="white"/>
<path d="M73.5422 59.3125C67.8922 59.3125 62.2422 59.3145 56.5902 59.3125C54.9402 59.3125 54.4242 58.8045 54.4202 57.1865C54.4142 54.7926 54.4102 52.4006 54.4202 50.0066C54.4262 48.5646 54.9762 48.0006 56.4042 48.0006C67.9042 47.9946 79.4042 47.9946 90.9042 48.0006C92.3222 48.0006 92.8682 48.5726 92.8742 50.0226C92.8842 52.4166 92.8822 54.8086 92.8742 57.2025C92.8702 58.7745 92.3442 59.3105 90.7882 59.3105C85.0382 59.3165 79.2882 59.3125 73.5382 59.3125H73.5422ZM73.6542 51.3286C68.7382 51.3286 63.8202 51.3526 58.9042 51.3086C57.9662 51.3006 57.6562 51.6006 57.7402 52.5046C57.8042 53.1966 57.7522 53.8986 57.7522 54.5966C57.7522 55.5166 58.2002 55.9772 59.0962 55.9785C68.3642 55.9785 77.6342 55.9785 86.9022 55.9785C87.5002 55.9785 88.1002 55.9505 88.6962 55.9845C89.3562 56.0245 89.5822 55.7346 89.5562 55.1006C89.5222 54.2706 89.4882 53.4346 89.5642 52.6106C89.6562 51.6226 89.3442 51.2906 88.3042 51.3026C83.4222 51.3566 78.5382 51.3266 73.6542 51.3266V51.3286Z" fill="white"/>
<path d="M73.664 60.6591C79.248 60.6591 84.83 60.6591 90.414 60.6591C90.746 60.6591 91.082 60.6411 91.41 60.6791C92.276 60.7791 92.856 61.4311 92.872 62.2891C92.888 63.1911 92.292 63.8731 91.382 63.9731C91.086 64.0051 90.784 63.9911 90.486 63.9911C79.254 63.9911 68.02 63.9911 56.788 63.9911C56.456 63.9911 56.118 64.0091 55.794 63.9571C54.952 63.8251 54.392 63.1231 54.436 62.2591C54.48 61.3771 54.964 60.8471 55.824 60.6891C56.146 60.6311 56.486 60.6591 56.818 60.6591C62.434 60.6591 68.05 60.6591 73.666 60.6591H73.664Z" fill="white"/>
<path d="M63.1486 68.8321C60.8906 68.8321 58.6346 68.8401 56.3766 68.8281C55.1346 68.8221 54.4366 68.2321 54.4146 67.2061C54.3926 66.1281 55.0946 65.5041 56.3926 65.5021C60.9746 65.4941 65.5546 65.4941 70.1366 65.5021C71.3806 65.5041 72.0766 66.0981 72.0986 67.1221C72.1226 68.1981 71.4146 68.8221 70.1206 68.8261C67.7966 68.8361 65.4726 68.8281 63.1486 68.8281V68.8321Z" fill="white"/>
<path d="M76.1018 65.5182C76.4318 65.5182 76.7678 65.4822 77.0918 65.5242C77.9418 65.6362 78.5038 66.3081 78.5018 67.1661C78.4998 68.0221 77.9358 68.7121 77.0818 68.7961C76.4598 68.8581 75.8258 68.8461 75.1998 68.8141C74.2218 68.7621 73.5918 68.0861 73.5938 67.1561C73.5958 66.2242 74.2258 65.5742 75.2098 65.5062C75.5058 65.4862 75.8038 65.5022 76.1018 65.5022C76.1018 65.5062 76.1018 65.5122 76.1018 65.5162V65.5182Z" fill="white"/>
<path d="M55.9905 8.18667C55.0305 8.14667 54.3525 7.37667 54.4185 6.39868C54.4805 5.48068 55.2145 4.83469 56.1525 4.87269C57.1125 4.91269 57.7925 5.68468 57.7245 6.65868C57.6625 7.57467 56.9225 8.22467 55.9885 8.18467L55.9905 8.18667Z" fill="white"/>
<path d="M62.5328 6.54427C62.5248 7.47627 61.8388 8.16826 60.9068 8.18426C59.9348 8.20026 59.2108 7.48227 59.2188 6.51027C59.2268 5.53828 59.9628 4.83828 60.9428 4.87228C61.8668 4.90428 62.5408 5.61228 62.5328 6.54627V6.54427Z" fill="white"/>
<path d="M67.3357 6.56072C67.3197 7.52672 66.5737 8.22672 65.5997 8.18672C64.6757 8.14872 64.0097 7.43472 64.0237 6.49872C64.0397 5.52873 64.7817 4.83273 65.7597 4.87273C66.6837 4.91073 67.3517 5.62473 67.3357 6.55872V6.56072Z" fill="white"/>
</g>
</g>
<defs>
<clipPath id="clip0_580_1874">
<rect width="100" height="100" fill="white"/>
</clipPath>
<clipPath id="clip1_580_1874">
<rect width="100" height="100" fill="white"/>
</clipPath>
</defs>
</svg>
