<svg width="216" height="207" viewBox="0 0 216 207" fill="none" xmlns="http://www.w3.org/2000/svg">
<g clip-path="url(#clip0_5527_837)">
<rect width="216" height="206.929" fill="#151517"/>
<g clip-path="url(#clip1_5527_837)">
<path d="M127.541 87.541L115.725 91.3991L105.446 95.9358L102.571 96.6951C101.838 97.3917 101.07 98.0973 100.24 98.8117C99.3287 99.5976 98.4803 100.312 97.8283 100.83C97.1049 101.402 96.0332 102.473 95.4885 103.152C94.6758 104.17 94.0328 105.251 93.7559 106.081C93.2647 107.582 93.5059 109.1 94.4526 110.502C95.6671 112.288 98.0874 114.11 100.909 115.351C102.347 115.985 104.767 116.798 106.589 117.253C109.617 118.022 115.475 118.852 118.699 118.977C119.351 119.004 120.226 119.004 120.262 118.977C120.334 118.932 120.834 117.977 121.414 116.789C123.397 112.744 124.826 108.948 125.603 105.706C126.067 103.742 126.433 101.125 126.674 98.026C126.737 97.1596 126.763 94.2572 126.71 93.2747C126.629 91.6672 126.487 90.3634 126.263 89.0863C126.228 88.8987 126.219 88.729 126.237 88.7201C126.272 88.6933 126.379 88.6576 127.835 88.2378L127.541 87.5413V87.5411H127.541V87.541ZM124.844 89.1219C124.951 89.1219 125.237 91.8635 125.308 93.5962C125.326 93.9623 125.317 94.2034 125.299 94.2034C125.228 94.2034 123.79 93.3551 122.763 92.7121C121.87 92.1494 120.173 91.0241 119.905 90.8098C119.816 90.7473 119.824 90.7384 120.557 90.4883C121.798 90.0685 124.745 89.1219 124.844 89.1219V89.1219ZM118.824 91.1045C118.905 91.1045 119.11 91.2205 119.601 91.5242C121.441 92.6762 123.942 94.0695 125.013 94.534C125.344 94.6768 125.379 94.6232 124.62 95.1412C122.995 96.2486 120.968 97.3381 118.485 98.4366C118.047 98.6331 117.681 98.7848 117.672 98.7848C117.654 98.7848 117.708 98.5617 117.779 98.2937C118.378 96.0698 118.717 93.8193 118.735 92.0153C118.744 91.1222 118.744 91.1222 118.824 91.0956C118.806 91.1045 118.815 91.1045 118.824 91.1045V91.1045ZM117.583 91.5778C117.636 91.6313 117.601 93.6318 117.529 94.1766C117.369 95.4805 117.119 96.695 116.708 98.0615C116.61 98.3917 116.52 98.6688 116.502 98.6866C116.467 98.7312 115.243 97.5345 114.841 97.0701C114.145 96.2663 113.6 95.4625 113.198 94.6767C112.993 94.2748 112.671 93.489 112.698 93.4621C112.841 93.3639 117.547 91.5421 117.583 91.5778ZM111.742 93.8729C111.751 93.8729 111.76 93.8729 111.769 93.8818C111.787 93.8997 111.85 94.0426 111.903 94.2033C112.189 94.9803 112.832 96.1234 113.386 96.8558C113.993 97.6596 114.788 98.5168 115.448 99.0795C115.663 99.2581 115.859 99.4277 115.886 99.4546C115.94 99.5082 115.958 99.4992 114.502 100.053C112.814 100.696 110.974 101.339 108.867 102.018C108.363 102.18 107.86 102.344 107.357 102.509C107.277 102.536 107.304 102.491 107.536 102.125C108.581 100.491 110.17 97.2845 111.064 95.016C111.215 94.6231 111.367 94.2302 111.394 94.1409C111.43 94.0157 111.474 93.9711 111.59 93.9086C111.653 93.8909 111.716 93.8729 111.742 93.8729V93.8729ZM109.956 94.6142C109.983 94.6321 109.528 95.5876 109.081 96.4628C108.215 98.1507 107.268 99.8119 106 101.83C105.786 102.178 105.58 102.5 105.553 102.536C105.509 102.598 105.491 102.58 105.348 102.304C105.044 101.705 104.794 100.937 104.66 100.232C104.526 99.5349 104.553 98.3204 104.705 97.5703C104.821 97.0166 104.812 97.0255 105.08 96.8915C106.223 96.3111 109.921 94.5785 109.956 94.6142V94.6142ZM125.362 95.2394V95.6145C125.362 97.606 125.147 100.339 124.835 102.33C124.781 102.679 124.736 102.964 124.727 102.973C124.727 102.973 124.468 102.902 124.165 102.813C122.825 102.393 121.37 101.777 120.057 101.053C119.19 100.58 117.931 99.8029 117.967 99.7672C117.976 99.7583 118.351 99.5618 118.788 99.3296C120.539 98.4187 122.218 97.4363 123.674 96.4629C124.218 96.0967 125.04 95.5074 125.219 95.3466L125.362 95.2394ZM103.214 97.8827C103.249 97.8827 103.24 97.9542 103.187 98.2757C103.151 98.508 103.106 98.9366 103.089 99.2312C103.017 100.535 103.231 101.5 103.874 102.821C104.053 103.188 104.196 103.491 104.187 103.5C104.124 103.554 98.2125 105.286 96.3548 105.795C95.8011 105.947 95.3189 106.081 95.283 106.09C95.2206 106.108 95.2116 106.099 95.2384 105.947C95.4438 104.634 96.4441 102.92 97.8372 101.473C98.766 100.508 99.5073 99.9457 100.775 99.2222C101.686 98.7044 103.088 97.9275 103.196 97.8917C103.196 97.8827 103.205 97.8827 103.214 97.8827V97.8827ZM117.145 100.374C117.154 100.365 117.369 100.482 117.628 100.633C119.539 101.741 122.2 102.768 124.468 103.295L124.674 103.339L124.388 103.5C123.2 104.161 119.298 105.786 115.306 107.278C114.725 107.492 114.154 107.707 114.046 107.751C113.939 107.796 113.841 107.823 113.841 107.814C113.841 107.805 114.002 107.492 114.207 107.108C115.323 105.018 116.449 102.473 117.02 100.705C117.092 100.535 117.136 100.383 117.145 100.374V100.374ZM115.725 100.839C115.734 100.848 115.663 101.035 115.574 101.25C114.797 103.134 113.778 105.188 112.475 107.492C112.144 108.082 111.867 108.555 111.858 108.555C111.85 108.555 111.581 108.394 111.26 108.198C109.367 107.037 107.688 105.608 106.589 104.224L106.429 104.027L107.241 103.804C110.153 103.009 112.626 102.152 115.082 101.098C115.431 100.955 115.717 100.839 115.725 100.839V100.839ZM124.549 103.92C124.549 103.92 124.558 103.929 124.549 103.92C124.558 104.125 124.102 105.965 123.727 107.296C123.415 108.412 123.147 109.287 122.656 110.832C122.441 111.511 122.254 112.074 122.245 112.074C122.236 112.074 122.182 112.065 122.129 112.047C119.476 111.564 117.101 110.895 114.868 110.002C114.243 109.752 113.35 109.35 113.296 109.305C113.278 109.287 113.814 109.037 114.493 108.742C118.556 106.965 122.772 104.947 124.218 104.081C124.388 103.973 124.522 103.92 124.549 103.92V103.92ZM104.178 104.617C104.196 104.634 103.062 106.269 101.472 108.492C100.918 109.269 100.275 110.18 100.034 110.52C99.7931 110.859 99.427 111.395 99.2216 111.716L98.8463 112.297L98.4444 111.958C97.9711 111.565 97.1496 110.725 96.7834 110.261C96.0153 109.305 95.4975 108.296 95.292 107.376C95.1938 106.948 95.1938 106.733 95.283 106.706C95.4169 106.671 97.8014 106.108 100.034 105.59C101.276 105.304 102.713 104.965 103.231 104.84C103.749 104.715 104.169 104.617 104.178 104.617V104.617ZM105.321 105.054L105.607 105.376C106.893 106.813 108.206 107.876 109.795 108.805C110.081 108.966 110.296 109.109 110.278 109.118C110.215 109.162 104.758 111.1 102.231 111.975C100.811 112.475 99.6412 112.877 99.6324 112.877C99.6235 112.877 99.5431 112.824 99.4537 112.761L99.293 112.645L99.552 112.27C100.391 111.056 101.445 109.725 103.741 106.956L105.321 105.054ZM112.448 110.153C112.457 110.145 112.85 110.287 113.332 110.466C114.493 110.904 115.413 111.181 116.645 111.493C118.164 111.877 120.36 112.252 121.655 112.359C121.852 112.377 121.959 112.395 121.923 112.422C121.861 112.458 120.548 112.895 119.583 113.199C118.047 113.681 113.359 115.065 109.536 116.164C108.831 116.369 108.224 116.539 108.188 116.548C108.099 116.566 107.804 116.485 107.804 116.45C107.804 116.432 108.018 116.155 108.277 115.851C109.563 114.315 110.84 112.601 111.903 110.975C112.198 110.529 112.448 110.162 112.448 110.153ZM110.876 110.198C110.885 110.207 110.251 111.225 109.144 112.976C108.67 113.717 108.143 114.556 107.956 114.851C107.777 115.137 107.509 115.583 107.357 115.833L107.098 116.289L106.964 116.253C106.643 116.164 104.383 115.369 103.785 115.128C103.044 114.833 102.276 114.476 101.704 114.172C100.99 113.788 100.097 113.217 100.168 113.199C100.186 113.19 101.41 112.859 102.883 112.458C106.795 111.395 108.965 110.779 110.385 110.332C110.644 110.252 110.867 110.189 110.876 110.198ZM121.995 112.806H122.004C122.039 112.895 120.593 116.914 120.066 118.182C119.95 118.468 119.905 118.539 119.842 118.53C119.691 118.522 117.592 118.227 116.315 118.039C114.091 117.7 110.358 117.048 109.42 116.834L109.206 116.789L110.537 116.485C113.394 115.842 114.77 115.494 116.163 115.065C117.922 114.529 119.664 113.86 121.423 113.038C121.7 112.913 121.932 112.815 121.995 112.806Z" fill="url(#paint0_linear_5527_837)"/>
<path d="M115.361 59.9985C115.164 59.9719 111.994 61.115 109.949 61.9454C107.189 63.0708 105.046 64.1425 103.724 65.0711C103.233 65.4196 102.617 66.0357 102.519 66.2768C102.483 66.3661 102.465 66.4733 102.465 66.5804L103.662 67.7146L106.51 68.6256L113.289 69.8402L121.041 71.1709L121.121 70.5011C121.094 70.5011 121.076 70.4922 121.05 70.4922L120.031 70.3314L119.826 69.9652C118.772 68.1076 117.611 65.8035 116.933 64.2495C116.406 63.0439 115.906 61.6508 115.629 60.6505C115.477 60.0433 115.459 60.0076 115.361 59.9987V59.9985H115.361V59.9985ZM115.218 60.4541H115.227C115.236 60.4629 115.271 60.7131 115.307 61.0077C115.459 62.2582 115.736 63.4636 116.173 64.7675C116.504 65.7499 116.504 65.6964 116.12 65.5802C115.209 65.3303 111.128 64.6247 108.172 64.2139C107.698 64.1514 107.296 64.0889 107.296 64.08C107.261 64.0443 109.431 62.91 110.386 62.4636C111.61 61.9008 114.968 60.4987 115.218 60.4541V60.4541ZM106.609 64.455L106.957 64.571C108.85 65.2141 113.61 66.125 116.236 66.3394C116.53 66.3662 116.781 66.393 116.789 66.393C116.798 66.4019 116.548 66.5359 116.227 66.6876C114.959 67.3217 113.566 68.0987 112.601 68.6971C112.315 68.8756 112.056 69.0186 112.021 69.0186C111.985 69.0186 111.797 68.9829 111.601 68.9561L111.244 68.9024L110.351 68.0271C108.779 66.5001 107.546 65.3213 107.073 64.8747L106.609 64.455V64.455ZM106.251 64.7318L107.511 66.3036C108.198 67.1699 108.895 68.0183 109.047 68.2058C109.198 68.3934 109.324 68.5453 109.315 68.5542C109.279 68.581 107.493 68.2326 106.546 68.0184C105.573 67.795 105.171 67.6879 104.573 67.5004L104.081 67.3396V67.2145C104.09 66.6161 104.849 65.7231 106.135 64.8123L106.251 64.7318ZM116.95 66.8752C116.986 66.8752 117.031 66.9555 117.138 67.1967C117.441 67.8664 118.388 69.6705 118.62 70.0187C118.692 70.135 118.817 70.1438 117.558 69.9384C114.53 69.4471 113.557 69.2865 113.557 69.2687C113.557 69.2598 113.646 69.1972 113.762 69.1347C114.7 68.6168 115.646 67.9559 116.486 67.2503C116.691 67.0806 116.879 66.9199 116.915 66.893C116.923 66.8752 116.941 66.8663 116.95 66.8752Z" fill="url(#paint1_linear_5527_837)"/>
<path d="M102.581 66.1504C102.581 66.1504 102.385 66.4631 102.573 66.9275C102.689 67.2132 103.028 67.5614 103.412 67.9187C103.412 67.9187 107.386 71.7946 107.869 72.3484C110.065 74.8846 111.021 77.3852 111.11 80.8325C111.164 83.0473 110.744 84.9942 109.699 87.2537C107.842 91.3082 103.921 95.7825 97.875 100.748L98.7593 100.453C99.3308 100.024 100.108 99.5692 101.93 98.5689C106.136 96.2646 110.869 94.1481 116.674 91.969C125.033 88.8253 138.777 85.1458 146.601 83.9493L147.413 83.8242L147.288 83.6277C146.574 82.5202 146.083 81.8327 145.493 81.1003C143.779 78.9748 141.698 77.2513 139.152 75.8223C135.652 73.8666 131.124 72.3395 125.39 71.2053C124.31 70.9908 121.934 70.5801 120.005 70.2854C115.915 69.6515 113.271 69.2138 110.36 68.7136C109.315 68.5349 107.752 68.2671 106.716 68.0439C106.181 67.9277 105.154 67.6866 104.35 67.4098C103.707 67.1596 102.778 66.9095 102.581 66.1504V66.1504ZM104.886 68.3831C104.895 68.3743 105.037 68.4277 105.225 68.4903C105.564 68.6063 106.002 68.7403 106.52 68.8833C106.912 68.9911 107.305 69.0953 107.699 69.1958C108.235 69.3297 108.681 69.4548 108.69 69.4548C108.753 69.5173 109.655 72.4017 109.958 73.5092C110.074 73.929 110.164 74.2861 110.155 74.2861C110.146 74.2952 110.048 74.1433 109.932 73.9379C108.887 72.0982 107.234 70.2317 105.323 68.7313C105.073 68.5528 104.886 68.392 104.886 68.3831ZM109.28 69.5977C109.324 69.5977 109.521 69.6245 109.762 69.6781C111.28 70.0174 114.004 70.5354 115.745 70.8301C116.04 70.8747 116.272 70.9284 116.272 70.9462C116.272 70.9641 116.165 71.0265 116.031 71.0981C115.736 71.2498 114.549 71.9553 114.156 72.2233C113.164 72.8841 112.271 73.5986 111.628 74.2415C111.369 74.5006 111.146 74.7149 111.146 74.7149C111.146 74.7149 111.093 74.5631 111.048 74.3755C110.726 73.1341 110.056 71.2943 109.449 69.9995C109.351 69.7941 109.271 69.6066 109.271 69.5888C109.271 69.6066 109.271 69.5977 109.28 69.5977V69.5977ZM117.013 71.0713C117.067 71.0891 117.156 71.3927 117.335 72.0625C117.665 73.3575 117.817 74.8043 117.764 76.1528C117.746 76.5279 117.728 76.8761 117.71 76.9209L117.683 77.0101L117.219 76.8583C116.263 76.5547 114.709 76.0991 113.379 75.7241C112.62 75.5187 112.004 75.3312 112.004 75.3133C112.004 75.2597 113.111 74.1523 113.584 73.7326C114.486 72.9377 116.933 71.0444 117.013 71.0713V71.0713ZM117.63 71.1605C117.657 71.1338 121.327 71.7677 122.997 72.0893C124.239 72.3304 126.042 72.7055 126.15 72.7502C126.203 72.768 126.016 72.8752 125.417 73.1431C123.06 74.2059 121.309 75.1614 119.568 76.3225C119.112 76.6261 118.728 76.8761 118.719 76.8761C118.71 76.8761 118.701 76.6172 118.701 76.3046C118.701 74.6078 118.362 72.8931 117.737 71.4464C117.674 71.3035 117.621 71.1695 117.63 71.1605V71.1605ZM127.123 73.036C127.15 73.0628 127.034 73.7862 126.926 74.2148C126.605 75.5455 125.739 77.5193 124.676 79.3768C124.488 79.7072 124.319 79.9752 124.301 79.9841C124.283 79.9929 124.042 79.8589 123.765 79.6982C122.729 79.0909 121.55 78.5194 120.264 77.9835C119.907 77.8317 119.594 77.7066 119.586 77.6889C119.523 77.6352 122.399 75.733 123.917 74.8221C125.123 74.0898 127.087 73.0002 127.123 73.036V73.036ZM127.802 73.1431C127.882 73.1431 129.507 73.5897 130.356 73.8398C132.455 74.465 134.866 75.349 136.438 76.0635L137.089 76.3583L136.634 76.4654C132.794 77.3494 129.507 78.3677 126.337 79.6536C126.078 79.7608 125.846 79.8501 125.828 79.8501C125.81 79.8501 125.899 79.6447 126.016 79.3946C126.971 77.3674 127.587 75.2508 127.739 73.4467C127.748 73.277 127.775 73.1431 127.802 73.1431V73.1431ZM111.619 76.8583C111.646 76.8315 112.888 77.1263 113.557 77.3136C114.575 77.5995 116.737 78.3228 116.737 78.3765C116.737 78.3854 116.496 78.5908 116.21 78.8409C115.04 79.8144 113.915 80.8413 112.566 82.1452C112.164 82.5293 111.825 82.8419 111.807 82.8419C111.789 82.8419 111.78 82.7882 111.789 82.7168C111.994 81.2164 111.95 79.2874 111.664 77.3316C111.637 77.0815 111.61 76.8672 111.619 76.8583V76.8583ZM137.706 76.8852C137.724 76.9029 137.134 77.8317 136.759 78.3586C136.223 79.1266 135.437 80.1449 133.66 82.3775C132.723 83.5562 131.669 84.887 131.32 85.3335C130.963 85.78 130.668 86.155 130.659 86.155C130.65 86.155 130.535 85.9944 130.409 85.7979C129.409 84.2975 128.212 82.9847 126.792 81.8059C126.525 81.5826 126.23 81.3414 126.132 81.27C126.033 81.1986 125.953 81.1271 125.953 81.1182C125.953 81.0915 127.471 80.4394 128.623 79.9751C130.642 79.1534 133.392 78.1711 135.455 77.537C136.536 77.1977 137.688 76.8672 137.706 76.8852V76.8852ZM138.393 77.0637C138.429 77.0548 138.644 77.162 138.903 77.3136C141.073 78.555 143.198 80.1537 144.877 81.797C145.35 82.2614 146.52 83.476 146.502 83.4849C146.502 83.4849 146.092 83.5206 145.609 83.5562C141.85 83.8421 137.036 84.6368 132.41 85.7531C132.097 85.8245 131.821 85.887 131.803 85.887C131.785 85.887 132.133 85.5388 132.571 85.1191C135.286 82.5025 136.527 80.8503 137.992 77.9031C138.197 77.4656 138.376 77.0905 138.393 77.0637C138.385 77.0637 138.385 77.0637 138.393 77.0637V77.0637ZM118.505 79.1C118.63 79.1266 119.791 79.6716 120.666 80.1091C121.47 80.5108 122.676 81.154 122.738 81.2075C122.747 81.2164 122.318 81.4397 121.792 81.6987C120.112 82.5382 118.675 83.3329 117.174 84.2439C116.746 84.5029 116.388 84.7173 116.379 84.7173C116.344 84.7173 116.353 84.6814 116.594 84.2439C117.398 82.7794 118.04 81.0289 118.407 79.3231C118.442 79.1892 118.478 79.1 118.505 79.1V79.1ZM117.344 79.3142C117.371 79.3411 117.067 80.4394 116.88 81.0378C116.513 82.172 115.897 83.592 115.299 84.6637C115.156 84.9136 114.942 85.2798 114.825 85.4852L114.602 85.8424L114.102 85.3603C113.522 84.7976 113.048 84.4493 112.441 84.1367C112.2 84.0118 112.012 83.9045 112.012 83.8867C112.012 83.8153 113.539 82.431 114.709 81.4308C115.549 80.7074 117.317 79.2874 117.344 79.3142V79.3142ZM124.444 82.2346L124.882 82.5203C125.882 83.1723 127.06 84.0385 127.963 84.7976C128.471 85.2173 129.454 86.1015 129.65 86.3158L129.757 86.4321L129.034 86.6374C124.944 87.7715 121.782 88.7807 118.094 90.1382C117.683 90.29 117.335 90.415 117.308 90.415C117.255 90.415 117.21 90.4596 118.13 89.6112C120.488 87.4412 122.577 85.0476 124.131 82.7167L124.444 82.2346V82.2346ZM122.577 82.699C122.595 82.7168 121.372 84.4403 120.639 85.4138C119.764 86.5748 118.21 88.5217 117.138 89.7897C116.692 90.3167 116.308 90.7543 116.29 90.7633C116.263 90.7722 116.254 90.6382 116.254 90.4328C116.254 89.3521 115.978 88.2001 115.495 87.2178C115.29 86.807 115.254 86.7087 115.299 86.6641C115.469 86.5122 118.067 85.0297 119.711 84.1457C120.818 83.5563 122.55 82.6811 122.577 82.699V82.699ZM111.289 85.4675C111.316 85.4675 111.521 85.5746 111.753 85.6997C112.325 86.0122 112.834 86.3605 113.289 86.7357C113.307 86.7534 113.075 86.9411 112.771 87.1642C111.923 87.7715 110.637 88.745 109.887 89.3434C109.101 89.9685 109.074 89.9864 109.163 89.8524C109.753 88.9504 110.048 88.4414 110.36 87.7895C110.637 87.2091 110.914 86.5213 111.11 85.923C111.182 85.664 111.271 85.4675 111.289 85.4675ZM114.299 87.8251C114.343 87.8163 114.397 87.8966 114.638 88.2539C115.147 89.0128 115.54 90.0311 115.638 90.8526L115.656 91.0313L114.433 91.5047C112.244 92.353 110.226 93.1926 108.86 93.8176C108.476 93.9963 107.806 94.3177 107.368 94.5322C106.931 94.7553 106.574 94.925 106.574 94.9161C106.574 94.9072 106.85 94.7018 107.19 94.4517C109.86 92.5138 112.173 90.3882 113.906 88.2628C114.093 88.0395 114.263 87.834 114.281 87.8251L114.299 87.8251V87.8251ZM112.914 88.1645C112.95 88.2002 111.932 89.3522 111.235 90.0577C109.512 91.8172 107.806 93.1926 105.689 94.5322C105.422 94.7018 105.18 94.8536 105.154 94.8715C105.091 94.9072 105.171 94.8179 106.1 93.8087C106.69 93.1746 107.136 92.6388 107.645 91.978C107.985 91.5405 108.047 91.4779 108.538 91.1295C109.851 90.1828 112.879 88.1287 112.914 88.1645Z" fill="white"/>
<path d="M74.2379 125.145C74.0732 125.145 73.9084 125.161 73.7451 125.161C70.4176 125.339 68.1733 126.803 66.8611 129.663C65.7388 132.249 65.8613 135.63 66.8737 138.232C68.0509 140.775 69.9531 142.117 73.1282 142.624C73.8 142.734 74.2505 143.102 75.5516 144.622L77.1526 146.497H80.0563L78.1255 144.551C77.0582 143.484 76.195 142.555 76.195 142.473C76.195 142.391 76.6033 142.212 77.0975 142.062C78.7267 141.569 80.0796 140.31 81.026 138.381C81.792 136.832 81.9019 136.353 82.0117 134.426C82.299 128.689 79.2744 125.103 74.2378 125.144L74.2379 125.145V125.145ZM76.7836 140.147C75.3711 140.831 73.3199 140.968 71.981 140.477C70.5966 139.968 69.2563 138.53 68.6534 136.903C67.9833 135.123 68.079 131.84 68.8449 130.361C70.077 128.007 71.7063 126.924 74.0872 126.924C77.6187 126.924 79.6276 129.087 79.8898 133.152C80.097 136.545 78.9606 139.091 76.7852 140.146L76.7836 140.147V140.147ZM126.943 130.046C125.725 130.046 124.793 130.539 124.165 131.51L123.672 132.279V130.279H121.564V142.271H123.67V138.438C123.67 134.933 123.714 134.523 124.204 133.564C124.879 132.249 126.04 131.593 127.163 131.907L127.916 132.127V130.049H126.943V130.046V130.046ZM114.559 129.936C114.146 129.936 113.708 129.991 113.272 130.086C110.452 130.824 108.862 133.524 108.959 136.302C108.959 138.628 109.411 139.791 110.533 141.01C112.833 142.897 114.912 143.047 117.719 142.035C118.197 141.831 118.718 141.596 118.718 141.596V139.709L117.719 140.227C115.448 141.216 113.737 141.216 112.366 140.051C111.492 139.161 111.108 138.094 110.93 136.876H119.429V135.259C119.429 131.963 117.446 129.882 114.558 129.936H114.559ZM111.122 135.194C111.122 135.194 111.436 133.138 112.6 132.331C113.161 131.935 113.804 131.744 114.434 131.744C115.065 131.744 115.694 131.948 116.214 132.345C117.281 133.166 117.46 135.178 117.46 135.178H111.122V135.194H111.122ZM60.3051 133.031C58.0199 131.646 57.006 130.648 57.13 129.471C57.4846 126.214 61.509 126.665 63.7377 127.897L63.7535 125.706C63.7535 125.706 62.5214 125.172 60.7556 125.144C58.0466 125.103 56.295 125.991 55.4742 127.8C54.2687 130.468 55.3361 132.48 59.1941 134.724C61.36 135.985 62.3173 137.079 62.3173 138.271C62.3173 140.736 59.3462 141.596 56.281 140.05C55.6501 139.736 55.1164 139.474 55.0882 139.474C54.9783 140.172 55.0349 141.844 55.0349 141.844C55.0349 141.844 55.9767 142.239 57.3892 142.512C60.8922 143.211 64.0801 141.567 64.3814 138.899C64.6435 136.394 63.7377 135.08 60.3052 133.029L60.3051 133.031V133.031ZM145.598 129.907C145.187 129.907 144.751 129.964 144.296 130.06C141.478 130.797 139.891 133.497 140 136.275C140 138.598 140.45 139.75 141.572 140.968C143.872 142.856 145.951 143.008 148.772 141.995C149.249 141.791 149.769 141.558 149.769 141.558V139.669L148.77 140.19C146.495 141.175 144.784 141.175 143.418 140.011C142.539 139.122 142.158 138.068 141.981 136.835H150.465V135.219C150.465 131.939 148.481 129.856 145.594 129.911L145.598 129.907V129.907ZM142.161 135.165C142.161 135.165 142.478 133.112 143.641 132.29C144.2 131.893 144.843 131.701 145.473 131.701C146.1 131.701 146.733 131.905 147.253 132.304C148.32 133.125 148.499 135.151 148.499 135.151H142.163L142.161 135.165V135.165ZM103.525 133.058C101.24 131.676 100.229 130.675 100.352 129.498C100.706 126.239 104.731 126.691 106.96 127.924L106.975 125.733C106.975 125.733 105.743 125.199 103.977 125.174C101.268 125.133 99.5168 126.021 98.6945 127.829C97.4906 130.497 98.572 132.51 102.417 134.754C104.58 136.013 105.538 137.093 105.538 138.286C105.538 140.75 102.568 141.624 99.5027 140.064C98.8749 139.75 98.3413 139.491 98.3099 139.491C98.2 140.189 98.2567 141.861 98.2567 141.861C98.2567 141.861 99.1873 142.242 100.595 142.529C104.101 143.229 107.291 141.588 107.591 138.92C107.851 136.427 106.947 135.113 103.525 133.06V133.058H103.525ZM157.983 130.017C156.766 130.017 155.822 130.512 155.205 131.483L154.712 132.249V130.253H152.605V142.241H154.711V138.408C154.711 134.905 154.753 134.494 155.245 133.536C155.92 132.223 157.081 131.565 158.203 131.88L158.956 132.1V130.017H157.983V130.017ZM86.7628 132.988V125.351H84.6377V142.268H93.5747V140.27H86.7629V132.988H86.7628ZM135.908 135.369L134.156 139.927L132.472 135.344L130.761 130.265H128.586C129.996 134.261 131.529 138.326 133.075 142.268C133.745 142.283 134.417 142.268 135.087 142.268L137.452 136.328L139.862 130.267H137.782C137.782 130.267 136.864 132.675 135.906 135.371L135.908 135.369V135.369ZM91.6597 120.741C92.0019 120.741 92.2875 120.632 92.5229 120.396C92.7551 120.164 92.8776 119.891 92.8776 119.548C92.8776 119.206 92.7551 118.921 92.5229 118.701C92.2875 118.481 92.0159 118.371 91.6753 118.371C91.3302 118.371 91.0444 118.481 90.8121 118.713C90.5767 118.946 90.47 119.231 90.47 119.561C90.47 119.906 90.5799 120.192 90.8121 120.409C91.0319 120.628 91.3176 120.738 91.6597 120.738V120.741V120.741ZM90.9064 118.795C91.1104 118.591 91.3584 118.497 91.6754 118.497C91.9737 118.497 92.2217 118.591 92.4289 118.795C92.633 118.999 92.7428 119.247 92.7428 119.548C92.7428 119.85 92.633 120.11 92.4289 120.314C92.2218 120.518 91.9737 120.616 91.6754 120.616C91.3725 120.616 91.1261 120.522 90.9221 120.314C90.7181 120.11 90.6082 119.85 90.6082 119.548C90.6082 119.247 90.7024 118.999 90.9064 118.795ZM91.4133 119.658H91.5513C91.6488 119.658 91.7445 119.753 91.826 119.931L91.991 120.302H92.2499L92.0459 119.89C91.9627 119.726 91.8812 119.63 91.7853 119.603C91.9062 119.575 92.0019 119.534 92.071 119.453C92.1399 119.382 92.1651 119.286 92.1651 119.178C92.1651 119.052 92.1259 118.958 92.0428 118.889C91.9486 118.811 91.7979 118.768 91.6032 118.768H91.167V120.302H91.3867V119.658L91.4133 119.658V119.658ZM91.4133 118.946H91.6048C91.7429 118.946 91.8403 118.974 91.8936 119.015C91.9454 119.056 91.9596 119.109 91.9596 119.206C91.9596 119.384 91.8495 119.467 91.6457 119.467H91.4103V118.946H91.4133V118.946ZM56.309 119.522C56.309 118.988 56.2934 118.591 56.2808 118.357H56.2934C56.3482 118.633 56.4158 118.839 56.4707 118.976L58.511 123.533H58.8532L60.8935 118.935C60.9486 118.809 61.0035 118.621 61.071 118.359H61.0866C61.0459 118.814 61.0318 119.209 61.0318 119.525V123.548H61.7301V117.568H60.8543L58.9788 121.727C58.9097 121.892 58.8139 122.138 58.6915 122.465H58.6631C58.6224 122.303 58.5266 122.057 58.3901 121.755L56.5568 117.553H55.6262V123.533H56.2979V119.525L56.309 119.522V119.522ZM63.2605 119.533H63.8633V123.257H63.2605V119.533V119.533ZM63.5618 118.167C63.6875 118.167 63.7942 118.125 63.8757 118.042C63.959 117.96 64.014 117.853 64.014 117.728C64.014 117.605 63.9731 117.495 63.8774 117.414C63.7927 117.331 63.6843 117.288 63.5603 117.288C63.438 117.288 63.3281 117.331 63.2464 117.414C63.1634 117.495 63.1083 117.605 63.1083 117.728C63.1083 117.864 63.1507 117.96 63.2464 118.042C63.3407 118.125 63.4379 118.167 63.5603 118.167H63.5618ZM68.1607 123.339V122.683C67.831 122.929 67.4763 123.052 67.1091 123.052C66.6697 123.052 66.3133 122.901 66.0527 122.612C65.7938 122.327 65.6557 121.93 65.6557 121.435C65.6557 120.917 65.7938 120.506 66.0794 120.192C66.3541 119.891 66.7105 119.74 67.1468 119.74C67.5031 119.74 67.8451 119.85 68.1608 120.07V119.371C67.8736 119.221 67.5456 119.152 67.1751 119.152C66.4907 119.152 65.9572 119.371 65.5585 119.795C65.1629 120.219 64.9589 120.795 64.9589 121.49C64.9589 122.109 65.1362 122.628 65.5052 123.025C65.8896 123.433 66.3811 123.641 66.9837 123.641C67.4497 123.628 67.831 123.53 68.1607 123.339V123.339ZM69.8855 121.353C69.8855 120.862 69.9954 120.465 70.1994 120.192C70.391 119.946 70.6232 119.822 70.8979 119.822C71.1302 119.822 71.2949 119.864 71.4157 119.96V119.247C71.3216 119.206 71.1851 119.192 71.0077 119.192C70.7613 119.192 70.5417 119.275 70.3486 119.428C70.1446 119.589 69.9813 119.836 69.8856 120.15H69.87V119.275H69.1872V123.544H69.8715V121.353H69.8855V121.353ZM73.8141 123.629C74.4577 123.629 74.9756 123.422 75.3601 123.011C75.7429 122.603 75.9344 122.053 75.9344 121.369C75.9344 120.671 75.7588 120.137 75.4009 119.74C75.0462 119.343 74.5533 119.151 73.9097 119.151C73.2661 119.151 72.7482 119.343 72.3637 119.713C71.9525 120.121 71.7359 120.697 71.7359 121.437C71.7359 122.08 71.9117 122.614 72.2822 123.011C72.6651 123.422 73.1721 123.628 73.8141 123.628V123.629V123.629ZM72.841 120.151C73.1015 119.876 73.4438 119.74 73.8674 119.74C74.307 119.74 74.6366 119.876 74.8814 120.151C75.1278 120.438 75.2503 120.848 75.2503 121.396C75.2503 121.917 75.1404 122.327 74.9081 122.601C74.6759 122.888 74.3337 123.041 73.8815 123.041C73.4421 123.041 73.1015 122.888 72.841 122.601C72.5821 122.312 72.458 121.917 72.458 121.396C72.4314 120.878 72.568 120.454 72.841 120.151ZM78.9309 123.257C79.1913 123.025 79.3296 122.739 79.3296 122.381C79.3296 122.067 79.2196 121.807 79.0156 121.601C78.8491 121.437 78.5919 121.287 78.2199 121.137C77.8901 120.999 77.6862 120.876 77.5762 120.78C77.4665 120.671 77.3989 120.534 77.3989 120.341C77.3989 120.164 77.468 120.027 77.6031 119.917C77.7412 119.808 77.917 119.754 78.1524 119.754C78.5213 119.754 78.8367 119.851 79.1254 120.057V119.373C78.8492 119.235 78.5494 119.169 78.2072 119.169C77.7678 119.169 77.3974 119.29 77.1242 119.523C76.8369 119.756 76.7005 120.057 76.7005 120.412C76.7005 120.726 76.7946 120.986 76.9734 121.178C77.1241 121.341 77.3817 121.507 77.7394 121.656C78.0817 121.807 78.3139 121.944 78.4378 122.053C78.5602 122.163 78.6152 122.3 78.6152 122.462C78.6152 122.86 78.3421 123.066 77.8084 123.066C77.3972 123.066 77.0285 122.931 76.6987 122.658V123.395C76.9969 123.574 77.3548 123.656 77.7503 123.656C78.2573 123.629 78.6543 123.505 78.9275 123.259L78.9309 123.257V123.257ZM82.1892 119.151C81.5456 119.151 81.0277 119.343 80.6432 119.713C80.2351 120.122 80.0154 120.698 80.0154 121.437C80.0154 122.08 80.1928 122.614 80.5616 123.011C80.9461 123.422 81.4515 123.628 82.095 123.628C82.7542 123.628 83.2566 123.421 83.641 123.009C84.0256 122.601 84.217 122.052 84.217 121.368C84.217 120.669 84.0381 120.136 83.6833 119.738C83.3131 119.341 82.8201 119.15 82.1923 119.15L82.1892 119.151V119.151ZM83.517 121.396C83.517 121.917 83.4071 122.327 83.1748 122.601C82.9425 122.889 82.6003 123.041 82.1482 123.041C81.7086 123.041 81.3682 122.888 81.1075 122.601C80.8486 122.312 80.7247 121.917 80.7247 121.396C80.7247 120.847 80.8613 120.423 81.136 120.137C81.3948 119.864 81.7371 119.726 82.1624 119.726C82.5861 119.726 82.9268 119.864 83.1731 120.137C83.3929 120.438 83.5154 120.848 83.5154 121.396H83.517V121.396ZM85.366 123.532H86.0487V119.836H87.0485V119.261H86.0487V118.602C86.0487 118.003 86.2808 117.701 86.7612 117.701C86.9229 117.701 87.0877 117.742 87.2102 117.811V117.194C87.0877 117.139 86.9229 117.127 86.7171 117.127C86.3484 117.127 86.0471 117.237 85.8005 117.469C85.5133 117.742 85.3611 118.097 85.3611 118.577V119.277H84.639V119.852H85.3611V123.534L85.366 123.532V123.532ZM88.1706 122.367C88.1706 123.202 88.5396 123.628 89.2929 123.628C89.566 123.628 89.7716 123.584 89.9364 123.487V122.9C89.8109 122.994 89.6617 123.038 89.497 123.038C89.2648 123.038 89.1015 122.983 89.0057 122.859C88.9084 122.736 88.8535 122.529 88.8535 122.243V119.834H89.9363V119.26H88.8535V118.001C88.618 118.083 88.3874 118.152 88.1691 118.221V119.26H87.4314V119.834H88.1691V122.366L88.1706 122.367V122.367ZM161.625 130.237C161.393 130.017 161.118 129.907 160.777 129.907C160.432 129.907 160.146 130.017 159.914 130.253C159.682 130.483 159.572 130.771 159.572 131.1C159.572 131.443 159.682 131.728 159.912 131.948C160.145 132.168 160.43 132.278 160.776 132.278C161.116 132.278 161.403 132.168 161.639 131.935C161.87 131.7 161.992 131.428 161.992 131.088C161.979 130.742 161.855 130.457 161.623 130.237L161.625 130.237V130.237ZM161.515 131.854C161.311 132.058 161.063 132.152 160.762 132.152C160.463 132.152 160.215 132.058 160.008 131.854C159.804 131.646 159.694 131.388 159.694 131.085C159.694 130.786 159.788 130.538 159.996 130.331C160.2 130.127 160.446 130.033 160.762 130.033C161.06 130.033 161.308 130.127 161.515 130.331C161.719 130.538 161.829 130.786 161.829 131.085C161.829 131.402 161.735 131.646 161.515 131.854V131.854ZM160.9 131.155C161.022 131.127 161.119 131.072 161.187 131.005C161.256 130.934 161.281 130.838 161.281 130.728C161.281 130.606 161.242 130.509 161.159 130.441C161.065 130.363 160.912 130.32 160.72 130.32H160.283V131.852H160.503V131.209H160.639C160.734 131.209 160.828 131.303 160.912 131.482L161.076 131.85H161.336L161.132 131.439C161.062 131.26 160.98 131.178 160.897 131.152L160.9 131.155V131.155ZM160.749 131.017H160.514V130.499H160.707C160.843 130.499 160.939 130.524 160.994 130.567C161.049 130.607 161.061 130.661 161.061 130.758C161.061 130.936 160.952 131.017 160.748 131.017L160.749 131.017ZM122.564 119.084H122.755V117.551H123.262V117.359H122.057V117.551H122.564V119.084H122.564V119.084ZM123.725 117.932C123.725 117.783 123.725 117.66 123.714 117.591C123.727 117.673 123.755 117.728 123.768 117.769L124.356 119.084H124.451L125.041 117.756C125.056 117.715 125.069 117.662 125.096 117.591C125.083 117.728 125.083 117.838 125.083 117.921V119.082H125.287V117.359H125.041L124.507 118.549C124.494 118.591 124.452 118.674 124.425 118.769H124.41C124.399 118.713 124.371 118.659 124.331 118.565L123.798 117.359H123.521V119.086H123.714V117.934L123.725 117.932V117.932Z" fill="white"/>
</g>
</g>
<defs>
<linearGradient id="paint0_linear_5527_837" x1="102.397" y1="113.161" x2="106.669" y2="110.637" gradientUnits="userSpaceOnUse">
<stop stop-color="#909CA9"/>
<stop offset="1" stop-color="#EDEDEE"/>
</linearGradient>
<linearGradient id="paint1_linear_5527_837" x1="102.496" y1="65.5672" x2="105.934" y2="65.5672" gradientUnits="userSpaceOnUse">
<stop stop-color="#939FAB"/>
<stop offset="1" stop-color="#DCDEE1"/>
</linearGradient>
<clipPath id="clip0_5527_837">
<rect width="216" height="206.929" fill="white"/>
</clipPath>
<clipPath id="clip1_5527_837">
<rect width="107" height="86.4988" fill="white" transform="translate(55 60)"/>
</clipPath>
</defs>
</svg>
