<svg width="231" height="127" viewBox="0 0 231 127" fill="none" xmlns="http://www.w3.org/2000/svg">
<g clip-path="url(#clip0_580_95)">
<path d="M61.5435 54.407C61.9647 54.5058 62.3843 54.5977 62.7611 54.8328C63.6822 55.4086 64.1463 56.2556 64.1516 57.3139C64.1708 60.8326 64.1715 64.3514 64.1516 67.8701C64.1425 69.4897 62.8667 70.7219 61.2349 70.7395C60.0618 70.7517 58.8887 70.7525 57.7163 70.7364C57.3855 70.7318 57.2584 70.8275 57.2776 71.1683C57.3028 71.6239 57.2776 72.0826 57.2852 72.5398C57.2891 72.7657 57.1933 72.8676 56.9705 72.8668C55.9758 72.8653 54.9819 72.8645 53.9872 72.8668C53.7345 72.8668 53.6571 72.7259 53.6579 72.5015C53.6594 72.0566 53.6395 71.6117 53.6617 71.1683C53.6786 70.8268 53.5407 70.7318 53.2145 70.7364C52.1823 70.7525 51.1493 70.7441 50.1163 70.7418C48.2939 70.7364 47.061 69.515 47.0587 67.7055C47.0557 64.4027 47.0978 61.0991 47.0403 57.7971C47.012 56.1706 47.7425 54.7815 49.6018 54.4062H61.542L61.5435 54.407ZM50.6937 62.4545C50.6937 64.0045 50.7021 65.5544 50.6868 67.1043C50.683 67.4543 50.7634 67.6082 51.1501 67.5929C51.85 67.5653 52.5529 67.5753 53.2536 67.5891C53.5469 67.5952 53.6763 67.4995 53.6602 67.1962C53.6441 66.8922 53.6625 66.5867 53.6579 66.2819C53.6541 66.0445 53.7597 65.9304 54.0002 65.9312C54.9819 65.9327 55.9635 65.9327 56.9452 65.9304C57.1788 65.9304 57.2982 66.0192 57.286 66.2712C57.273 66.5499 57.3036 66.8317 57.2791 67.1089C57.2469 67.4658 57.361 67.6074 57.7424 67.5929C58.4423 67.5653 59.1452 67.5692 59.8459 67.5921C60.1989 67.6036 60.3022 67.4872 60.3007 67.1365C60.2885 64.0236 60.2885 60.9115 60.3007 57.7986C60.3022 57.4403 60.2104 57.317 59.8328 57.3193C56.9383 57.3338 54.0438 57.3338 51.1493 57.3193C50.7649 57.317 50.6822 57.454 50.686 57.8055C50.7021 59.3555 50.6929 60.9054 50.6929 62.4553L50.6937 62.4545Z" fill="#EEEEEE"/>
<path d="M41.4905 54.4141C42.5281 54.6055 43.3444 55.1002 43.8061 56.085C44.1729 56.8668 44.1002 57.6969 44.0826 58.5209C44.0787 58.6986 43.944 58.7537 43.79 58.7545C42.8589 58.7568 41.9278 58.756 40.9966 58.756C40.7952 58.756 40.6918 58.6633 40.6987 58.452C40.7064 58.236 40.6796 58.0178 40.7033 57.8041C40.7424 57.4419 40.6122 57.3217 40.237 57.3255C38.4383 57.3432 36.6395 57.3332 34.8408 57.3332C33.5781 57.3332 32.3146 57.3409 31.0519 57.3278C30.7433 57.3248 30.6208 57.4144 30.6269 57.7368C30.6438 58.6136 30.6453 59.4912 30.6261 60.3672C30.6185 60.7049 30.7349 60.7999 31.0672 60.7991C34.4732 60.7891 37.88 60.8297 41.2853 60.7761C42.7731 60.7524 44.3245 61.8145 44.3299 63.7925C44.3337 65.1273 44.3437 66.462 44.3268 67.796C44.3046 69.5144 43.0526 70.745 41.3305 70.7473C37.5416 70.7526 33.7534 70.7526 29.9645 70.7473C28.4729 70.745 27.325 69.8092 27.044 68.3879C27.0149 68.2394 27.0164 68.0854 27.0026 67.9338C26.9804 67.688 27.0984 67.5831 27.3396 67.5923C27.4667 67.5976 27.5946 67.5923 27.7224 67.5923C32.0213 67.5923 36.3202 67.5923 40.6191 67.5923C40.981 67.5923 41.1623 67.4105 41.1628 67.0471C41.1628 66.1572 41.1429 65.2666 41.172 64.3783C41.185 63.9786 41.0448 63.8921 40.6681 63.8936C37.2873 63.9066 33.9066 63.8599 30.5266 63.9196C28.9025 63.948 27.4016 62.7174 27.4575 60.8558C27.4912 59.7255 27.4621 58.5937 27.4644 57.4626C27.4675 55.8905 28.335 54.8092 29.8665 54.4654C29.9155 54.4546 29.9622 54.4324 30.0097 54.4156C33.8369 54.4156 37.6641 54.4156 41.4913 54.4156L41.4905 54.4141Z" fill="#EEEEEE"/>
<path d="M117.573 54.4141C117.683 54.4439 117.793 54.4753 117.903 54.5037C119.229 54.849 120.102 55.9448 120.113 57.311C120.125 58.7721 120.124 60.2332 120.114 61.6935C120.103 63.3637 118.876 64.595 117.189 64.6372C116.695 64.6494 116.201 64.6387 115.702 64.6387C115.693 64.8317 115.826 64.8906 115.907 64.9749C117.636 66.7729 119.367 68.5679 121.096 70.3659C121.181 70.454 121.347 70.5359 121.302 70.6615C121.244 70.8239 121.056 70.745 120.928 70.7457C119.627 70.7511 118.326 70.7419 117.026 70.7549C116.731 70.758 116.527 70.6539 116.328 70.4463C114.567 68.6092 112.796 66.7821 111.035 64.9435C110.824 64.7229 110.602 64.6195 110.297 64.6356C109.916 64.6555 109.532 64.6402 109.15 64.6402C108.753 64.6402 108.555 64.8324 108.554 65.2169C108.554 66.8809 108.554 68.5457 108.554 70.2097C108.554 70.7412 108.546 70.7488 108.026 70.7496C107.134 70.7511 106.242 70.7419 105.349 70.7542C105.047 70.758 104.916 70.6707 104.916 70.3437C104.924 65.1227 104.921 59.9008 104.923 54.6798C104.923 54.591 104.937 54.5029 104.945 54.4141C109.155 54.4141 113.364 54.4141 117.575 54.4141H117.573ZM112.223 61.7142C113.319 61.7142 114.415 61.7203 115.512 61.7119C116.11 61.7073 116.47 61.3543 116.478 60.7662C116.489 59.9407 116.488 59.1152 116.478 58.2897C116.471 57.6969 116.113 57.3386 115.519 57.337C113.327 57.3309 111.135 57.3386 108.942 57.3286C108.636 57.3271 108.547 57.4381 108.549 57.7299C108.561 58.9237 108.562 60.1176 108.549 61.3114C108.545 61.633 108.664 61.7249 108.973 61.7211C110.056 61.7073 111.14 61.7157 112.224 61.715L112.223 61.7142Z" fill="#EEEEEE"/>
<path d="M176.279 54.4141C176.286 54.5665 176.301 54.7181 176.301 54.8705C176.302 59.9797 176.302 65.089 176.301 70.1982C176.301 70.7473 176.299 70.748 175.75 70.7496C175.253 70.7511 174.755 70.7389 174.258 70.7542C173.991 70.7626 173.808 70.6738 173.636 70.4678C171.691 68.1459 169.737 65.8318 167.786 63.5145C166.687 62.2104 165.59 60.9048 164.493 59.5991C164.453 59.5509 164.429 59.4881 164.378 59.3977C164.236 59.6075 164.277 59.7615 164.277 59.9031C164.274 63.3346 164.276 66.766 164.275 70.1982C164.275 70.7488 164.273 70.7496 163.721 70.7503C162.943 70.7511 162.165 70.7519 161.387 70.7503C160.882 70.7488 160.873 70.7412 160.873 70.2373C160.873 65.7506 160.871 61.2639 160.873 56.778C160.873 55.99 160.886 55.2028 160.893 54.4148C161.786 54.4148 162.678 54.4148 163.571 54.4148C163.637 54.5075 163.697 54.6063 163.77 54.6928C166.65 58.1174 169.53 61.5411 172.413 64.9626C172.47 65.0308 172.505 65.1525 172.666 65.1089C172.666 64.5284 172.666 63.9457 172.666 63.3629C172.671 60.3802 172.675 57.3968 172.679 54.4141C173.878 54.4141 175.077 54.4141 176.276 54.4141H176.279Z" fill="#EEEEEE"/>
<path d="M82.7455 54.4078C82.8198 54.5487 82.8205 54.7011 82.8205 54.8542C82.8205 59.1112 82.8305 63.3681 82.8152 67.6258C82.8091 69.3335 81.8672 70.4531 80.2859 70.7111C80.0983 70.7418 79.9046 70.7425 79.7139 70.7425C76.4741 70.7441 73.235 70.7448 69.9951 70.7433C68.1037 70.7425 66.8877 69.5273 66.887 67.6366C66.8847 63.3796 66.8862 59.1227 66.887 54.8649C66.887 54.7126 66.8961 54.5602 66.9007 54.4078C68.0999 54.4078 69.299 54.4078 70.4982 54.4078C70.5059 54.5977 70.5196 54.7884 70.5196 54.9783C70.5212 59.0193 70.5258 63.061 70.512 67.102C70.5105 67.4934 70.6291 67.5952 71.0112 67.5929C73.5619 67.5776 76.1134 67.5852 78.6641 67.5845C79.0153 67.5845 79.1912 67.4104 79.1917 67.0622C79.1917 63.0335 79.1917 59.0047 79.1932 54.976C79.1932 54.7861 79.2131 54.5962 79.2231 54.4062C80.397 54.4062 81.5701 54.4062 82.744 54.4062L82.7455 54.4078Z" fill="#EEEEEE"/>
<path d="M95.0686 54.407C96.0503 56.346 97.0305 58.2857 98.0152 60.2231C99.732 63.5994 101.453 66.9741 103.169 70.3505C103.349 70.7042 103.328 70.7395 102.937 70.741C102.006 70.7448 101.076 70.7326 100.145 70.7479C99.8492 70.7525 99.6807 70.6529 99.5498 70.3864C99.0903 69.4507 98.6018 68.5302 98.1408 67.5952C98.0045 67.3187 97.8276 67.2154 97.5159 67.2161C94.7616 67.2269 92.0072 67.2269 89.2536 67.2161C88.9427 67.2154 88.7719 67.318 88.6341 67.5983C88.1754 68.534 87.6807 69.4522 87.2198 70.3864C87.0881 70.6529 86.9204 70.7517 86.6248 70.7471C85.7067 70.7318 84.7885 70.7433 83.8704 70.741C83.4309 70.7395 83.4155 70.7142 83.6177 70.316C85.5252 66.566 87.4349 62.8175 89.3416 59.0668C90.1304 57.5145 90.9137 55.96 91.6994 54.4062C92.8219 54.4062 93.9445 54.4062 95.0671 54.4062L95.0686 54.407ZM93.3457 64.2993C94.25 64.2993 95.1544 64.2909 96.058 64.3039C96.3842 64.3085 96.4286 64.222 96.2823 63.9371C95.3703 62.1651 94.4698 60.3862 93.5632 58.6119C93.5195 58.5261 93.5027 58.3883 93.3871 58.3867C93.2699 58.3852 93.2523 58.5238 93.2086 58.6096C92.302 60.3847 91.4015 62.1628 90.4895 63.9348C90.3463 64.2128 90.3739 64.3093 90.7093 64.3039C91.5876 64.2893 92.4666 64.2993 93.3457 64.2993Z" fill="#EEEEEE"/>
<path d="M203.681 70.7335C202.343 70.7381 201.004 70.7389 199.665 70.7511C199.411 70.7534 199.273 70.601 199.127 70.4394C197.567 68.7111 196.008 66.9812 194.446 65.2559C194.029 64.7964 194.026 64.8041 193.631 65.2697C192.157 67.0057 190.68 68.7387 189.209 70.477C189.047 70.6676 188.87 70.7549 188.617 70.7534C187.444 70.7442 186.27 70.7503 185.097 70.748C184.988 70.748 184.839 70.7948 184.78 70.6814C184.704 70.5382 184.859 70.4578 184.936 70.3675C187.102 67.8174 189.274 65.272 191.437 62.7197C191.863 62.2173 191.83 62.3689 191.416 61.9102C189.337 59.6053 187.252 57.3049 185.175 54.9976C185.018 54.8238 184.799 54.6821 184.775 54.4141C186.204 54.4141 187.633 54.4141 189.062 54.4141C189.085 54.4585 189.101 54.5106 189.133 54.5473C190.658 56.2374 192.187 57.9244 193.709 59.6167C193.887 59.8151 193.985 59.7393 194.123 59.5739C194.809 58.7552 195.509 57.9481 196.198 57.1318C196.961 56.2289 197.717 55.3207 198.476 54.4141C199.905 54.4141 201.333 54.4141 202.762 54.4141C202.725 54.6737 202.518 54.8245 202.365 55.0045C200.356 57.37 198.345 59.7339 196.328 62.091C196.175 62.2686 196.189 62.3674 196.34 62.5313C197.039 63.2879 197.726 64.0567 198.416 64.8209C200.171 66.766 201.926 68.7118 203.68 70.6577V70.7343L203.681 70.7335Z" fill="#EEEEEE"/>
<path d="M136.861 54.407C136.867 55.2325 136.859 56.0588 136.886 56.8835C136.898 57.2488 136.746 57.3323 136.411 57.3315C133.784 57.3223 131.157 57.3261 128.529 57.3261C128.032 57.3261 127.535 57.3346 127.037 57.3231C126.787 57.3177 126.703 57.415 126.703 57.66C126.708 60.8495 126.711 64.0389 126.7 67.2284C126.698 67.609 126.916 67.5852 127.17 67.5852C130.193 67.5829 133.215 67.5837 136.238 67.5845C136.665 67.5845 136.878 67.8027 136.879 68.2392C136.879 68.8618 136.879 69.4844 136.879 70.1069C136.879 70.5302 136.672 70.742 136.257 70.7425C132.444 70.7425 128.63 70.7425 124.817 70.7425C124.371 70.7425 123.924 70.7303 123.478 70.7464C123.177 70.7571 123.053 70.6323 123.077 70.3413C123.078 70.329 123.077 70.316 123.077 70.303C123.079 65.0038 123.08 59.7054 123.083 54.4062C127.675 54.4062 132.268 54.4062 136.86 54.4062L136.861 54.407Z" fill="#EEEEEE"/>
<path d="M158.063 54.407C158.211 54.7363 158.13 55.084 158.139 55.4232C158.153 55.9056 158.128 56.3888 158.147 56.8713C158.16 57.2151 158.036 57.3353 157.683 57.333C155.706 57.3193 153.73 57.3262 151.754 57.3262C150.632 57.3262 149.509 57.3353 148.387 57.3208C148.07 57.3162 147.972 57.4234 147.972 57.7366C147.982 60.8748 147.984 64.0129 147.97 67.1503C147.968 67.5232 148.113 67.5898 148.442 67.5891C151.477 67.5799 154.512 67.5837 157.546 67.5837C157.943 67.5837 158.141 67.7795 158.142 68.1711C158.142 68.8955 158.135 69.6191 158.145 70.3436C158.149 70.6353 158.039 70.7471 157.74 70.7464C153.405 70.7402 149.07 70.741 144.734 70.7448C144.467 70.7448 144.339 70.6637 144.339 70.375C144.346 65.0904 144.347 59.805 144.349 54.5196C144.349 54.4821 144.356 54.4438 144.361 54.4062C148.928 54.4062 153.495 54.4062 158.062 54.4062L158.063 54.407Z" fill="#EEEEEE"/>
<path d="M182.862 54.4141C182.947 54.5802 182.937 54.7594 182.937 54.9371C182.937 60.0203 182.937 65.1035 182.937 70.1875C182.937 70.735 182.921 70.7488 182.384 70.7496C181.453 70.7511 180.521 70.7511 179.59 70.7496C179.054 70.7488 179.037 70.735 179.037 70.1875C179.037 65.6503 179.037 61.1138 179.037 56.5766C179.037 56.0176 179.037 55.4586 179.037 54.8988C179.037 54.7334 179.033 54.5672 179.112 54.4141H182.862Z" fill="#EEEEEE"/>
<path d="M132.722 63.9419C131.855 63.9419 130.988 63.9335 130.121 63.9465C129.829 63.9511 129.711 63.8554 129.717 63.5529C129.732 62.7787 129.732 62.003 129.717 61.2288C129.711 60.9263 129.827 60.8344 130.121 60.836C131.854 60.8451 133.588 60.8444 135.322 60.836C135.599 60.8344 135.716 60.9309 135.713 61.2089C135.705 61.9961 135.706 62.7841 135.713 63.5713C135.715 63.8478 135.601 63.9504 135.322 63.9465C134.455 63.935 133.589 63.9419 132.722 63.9419Z" fill="#A8A8A8"/>
<path d="M153.969 63.9443C153.103 63.9443 152.235 63.9343 151.369 63.9496C151.056 63.955 150.935 63.8455 150.94 63.5323C150.953 62.7703 150.954 62.0076 150.94 61.2457C150.934 60.924 151.07 60.8352 151.376 60.8367C153.084 60.8467 154.793 60.8482 156.501 60.836C156.833 60.8337 156.952 60.9355 156.943 61.2717C156.923 62.0206 156.923 62.7711 156.943 63.52C156.952 63.8631 156.818 63.9565 156.494 63.9504C155.653 63.9335 154.811 63.945 153.97 63.945L153.969 63.9443Z" fill="#A8A8A8"/>
</g>
<defs>
<clipPath id="clip0_580_95">
<rect width="231" height="127" fill="white"/>
</clipPath>
</defs>
</svg>
