<svg width="231" height="127" viewBox="0 0 231 127" fill="none" xmlns="http://www.w3.org/2000/svg">
<g clip-path="url(#clip0_360_5113)">
<path d="M60.0013 78.2786C63.1366 77.5947 66.2732 76.9122 69.4071 76.2243C69.7544 76.1478 70.0092 76.1371 70.0722 76.5997C70.5308 79.983 73.4395 81.973 76.4688 82.4088C77.9626 82.6233 79.4471 82.6019 80.9236 82.2921C81.8998 82.0869 82.7795 81.6806 83.5385 81.0222C85.1061 79.6638 84.9036 76.7942 83.1738 75.6584C82.3973 75.1488 81.5511 74.8082 80.6674 74.5856C77.8138 73.8682 74.9293 73.2621 72.0944 72.479C68.9833 71.6194 66.1203 70.2355 63.8889 67.8138C62.1402 65.9163 61.282 63.6072 61.168 61.0661C60.9481 56.1568 62.9287 52.2949 66.9826 49.5178C69.7946 47.5908 72.958 46.7031 76.3307 46.4228C80.0573 46.1144 83.6324 46.7044 87.0157 48.2599C90.2234 49.735 92.7914 51.9422 94.3201 55.2061C94.7385 56.0978 94.9853 57.0459 95.1985 58.006C95.3299 58.5974 95.0724 58.8629 94.5105 58.9849C91.7239 59.5924 88.9414 60.2146 86.1588 60.8421C85.7471 60.9347 85.5178 60.9132 85.4079 60.4077C84.8218 57.7258 83.0759 56.2024 80.4623 55.5601C78.4749 55.072 76.5077 55.1484 74.6034 55.8605C73.0305 56.4492 71.8209 57.5474 71.9 59.5642C71.9456 60.7161 72.549 61.4925 73.4274 62.0839C74.1703 62.584 75.0218 62.8522 75.9082 63.0386C78.896 63.6662 81.9333 64.0551 84.8755 64.8932C88.3741 65.8895 91.4169 67.6126 93.6013 70.6043C94.992 72.5085 95.6839 74.6701 95.7644 77.0288C95.9092 81.2448 94.3778 84.7326 91.1674 87.4588C89.4107 88.95 87.367 89.9356 85.1638 90.5953C83.6847 91.0378 82.1653 91.239 80.6406 91.4575C79.6858 91.5943 78.7391 91.7311 77.7937 91.6466C74.5914 91.3583 71.4441 90.8608 68.5126 89.3898C65.4123 87.8343 62.9448 85.6499 61.2793 82.5965C60.6115 81.3735 60.2669 80.038 60 78.6809C60 78.5468 60 78.4127 60 78.28L60.0013 78.2786Z" fill="#EEEEEE"/>
<path d="M114.11 36.0013C114.11 39.5911 114.126 43.1808 114.1 46.7692C114.094 47.4424 114.304 47.6556 114.979 47.6489C118.194 47.6194 121.408 47.6341 124.622 47.6368C125.461 47.6368 125.494 47.6704 125.495 48.5017C125.498 51.6677 125.498 54.8337 125.495 57.9997C125.495 58.8338 125.458 58.8714 124.629 58.8727C121.415 58.8767 118.2 58.8915 114.987 58.8633C114.318 58.858 114.097 59.0564 114.1 59.7363C114.122 65.1766 114.12 70.6168 114.106 76.0557C114.104 77.0346 114.281 77.968 114.69 78.8449C115.404 80.3777 116.788 80.9154 118.332 81.0629C120.665 81.2855 122.923 81.0106 124.966 79.7313C125.329 79.5033 125.495 79.5811 125.494 80.0143C125.491 82.8464 125.489 85.6771 125.494 88.5092C125.494 88.9075 125.242 89.0992 124.956 89.2897C123.074 90.5475 120.959 91.0852 118.748 91.4178C117.663 91.58 116.581 91.7517 115.501 91.6363C112.022 91.2662 108.667 90.5354 106.052 87.9447C104.301 86.2095 103.281 84.0975 102.802 81.6972C102.566 80.5131 102.453 79.3196 102.453 78.1155C102.453 71.9846 102.453 65.8537 102.453 59.7215C102.453 58.7212 102.457 58.7172 103.459 58.7172C106.606 58.7158 109.754 58.7172 112.901 58.7145C113.844 58.7145 113.85 58.7091 113.85 57.8013C113.852 54.7694 113.852 51.7375 113.85 48.7056C113.85 47.7991 113.838 47.7897 112.901 47.7884C109.776 47.787 106.65 47.7884 103.526 47.7884C102.821 47.7884 102.468 47.4259 102.467 46.7008C102.463 43.1339 102.458 39.5669 102.454 36H114.108L114.11 36.0013Z" fill="#EEEEEE"/>
<path d="M128.725 68.9805C128.8 64.6278 129.746 60.5003 132.012 56.7389C134.77 52.1623 138.702 49.062 143.811 47.434C146.434 46.5986 149.112 46.195 151.849 46.3304C157.02 46.5865 161.689 48.1957 165.544 51.7573C168.055 54.0785 169.685 56.9723 170.725 60.2093C170.861 60.6317 170.745 60.8731 170.312 61.0166C167.204 62.0505 164.098 63.0937 160.995 64.1451C160.472 64.3221 160.323 63.9975 160.184 63.6167C159.722 62.3535 159.108 61.1896 158.226 60.1463C157.211 58.9448 155.974 58.1335 154.492 57.6749C151.195 56.6558 148.037 56.9991 145.124 58.8483C142.562 60.4748 141.277 62.9704 140.68 65.8789C140.185 68.2859 140.276 70.6795 140.942 73.0235C142.1 77.1054 144.73 79.7028 148.946 80.5664C152.311 81.2557 155.371 80.6187 158.01 78.3404C159.272 77.2516 160.151 75.8918 160.658 74.3135C160.839 73.7517 161.099 73.698 161.596 73.867C164.527 74.87 167.461 75.8637 170.403 76.8359C170.938 77.0129 171.113 77.2462 170.933 77.8094C170.076 80.5088 168.688 82.8957 166.792 84.9916C163.747 88.356 159.944 90.3742 155.501 91.1573C153.933 91.4335 152.352 91.7916 150.735 91.6548C147.57 91.388 144.472 90.8529 141.552 89.5106C137.318 87.5649 134.084 84.5518 131.764 80.5342C130.206 77.8362 129.271 74.9411 128.936 71.8408C128.832 70.8874 128.662 69.9434 128.721 68.9779L128.725 68.9805Z" fill="#EEEEEE"/>
</g>
<defs>
<clipPath id="clip0_360_5113">
<rect width="231" height="127" fill="white"/>
</clipPath>
</defs>
</svg>
