<svg width="231" height="127" viewBox="0 0 231 127" fill="none" xmlns="http://www.w3.org/2000/svg">
<g clip-path="url(#clip0_518_1995)">
<g clip-path="url(#clip1_518_1995)">
<path d="M205.05 63.3344C204.036 65.0166 202.473 66.1524 201.009 67.3884C200.276 68.0076 199.542 68.6267 198.81 69.2458C198.44 69.5575 198.259 69.9439 198.191 70.4349C197.868 72.7555 197.672 75.1081 197.134 77.3796C196.101 81.7304 193.825 85.3597 190.21 88.0752C189.76 88.4147 189.25 88.6794 188.754 88.9569C187.787 89.4992 186.78 89.4714 185.766 89.1085C184.927 88.8075 184.645 88.3293 184.641 87.4091C184.626 84.6616 185.62 82.198 186.767 79.7792C188.327 76.4808 190.368 73.5134 192.774 70.7615C195.302 67.8731 195.048 68.4303 194.98 64.3313C194.98 64.2694 194.937 64.2075 194.877 64.0367C194.623 64.389 194.403 64.6943 194.186 64.9974C193.212 66.3466 192.027 67.4568 190.501 68.1506C188.936 68.8615 187.348 68.9448 185.757 68.2061C185.597 68.1314 185.433 68.0609 185.27 67.9926C185.238 67.9798 185.2 67.9798 185.102 67.9627C184.579 68.6779 184.098 69.4721 183.481 70.1381C182.642 71.0455 181.752 71.925 180.783 72.6872C179.899 73.3831 178.806 73.6201 177.662 73.5582C176.112 73.4771 174.959 72.3968 174.965 70.8256C174.972 69.4443 175.143 68.0652 175.26 66.6861C175.35 65.6293 175.467 64.5747 175.593 63.313C174.893 63.8019 174.434 64.2694 174.116 64.8437C172.924 66.985 171.763 69.1412 170.595 71.2931C170.493 71.481 170.414 71.6795 170.322 71.8716C169.69 73.2187 169.496 73.2807 168.134 72.6381C167.816 72.4886 167.47 72.3968 167.133 72.2965C166.321 72.0574 166.133 71.8759 166.106 71.0369C166.087 70.437 166.174 69.8329 166.206 69.2308C166.212 69.0921 166.185 68.9533 166.161 68.6672C165.899 68.9554 165.711 69.1476 165.542 69.3547C164.577 70.5352 163.422 71.4532 161.96 71.94C159.182 72.8665 156.849 71.4489 156.36 68.569C156.147 67.3159 156.26 66.084 156.571 64.8736C156.89 63.6396 157.235 62.4078 157.671 61.2123C157.884 60.6274 158.262 60.0659 158.687 59.6048C159.825 58.3687 161.928 58.7295 162.613 60.2644C162.743 60.5548 162.718 60.9625 162.641 61.2892C162.263 62.8775 161.804 64.4466 161.45 66.0414C161.204 67.1472 161.074 68.2766 160.914 69.3995C160.882 69.6279 160.952 69.8713 160.978 70.1275C161.593 70.1446 161.964 69.7944 162.329 69.4699C164.018 67.9713 165.391 66.1972 166.612 64.3164C166.981 63.7485 167.06 62.9864 167.239 62.3032C167.32 61.9979 167.312 61.6692 167.359 61.3532C167.508 60.3263 168.076 59.6816 169.107 59.4681C169.699 59.3464 170.282 59.165 170.877 59.1073C171.748 59.0241 172.16 59.4019 172.141 60.273C172.128 60.8707 171.974 61.4664 171.904 62.0641C171.821 62.7643 171.761 63.4667 171.859 64.2353C172.293 63.6589 172.711 63.0696 173.161 62.506C174.133 61.2913 175.301 60.4544 176.947 60.4309C179.256 60.3968 180.55 61.5304 180.486 63.836C180.433 65.783 180.157 67.7236 179.978 69.6685C179.957 69.9097 179.931 70.151 179.899 70.4989C180.642 70.3025 181.013 69.7731 181.398 69.3077C182.694 67.7428 183.821 66.0648 184.767 64.263C186.248 61.4429 188.456 59.4212 191.464 58.3196C193.067 57.7325 194.721 57.5959 196.395 57.9182C197.691 58.168 198.018 58.5736 198.037 59.8652C198.052 60.7896 198.022 61.714 198.018 62.6384C198.018 62.9949 198.005 63.3514 198.045 63.7037C198.112 64.2993 198.214 64.8885 198.293 65.4372C200.554 64.0922 202.804 62.7515 205.054 61.413V63.3344H205.05ZM187.386 86.0364C189.79 84.6317 194.26 76.6324 194.286 73.6585C194.132 73.8421 194.01 73.9659 193.917 74.1047C192.653 75.9492 191.34 77.7617 190.149 79.6511C189.32 80.9683 188.635 82.3794 187.939 83.7735C187.597 84.4609 187.358 85.206 187.386 86.0343V86.0364ZM193.742 60.5676C193.697 60.4971 193.654 60.4267 193.609 60.3562C193.417 60.4032 193.212 60.4181 193.037 60.5014C191.485 61.2337 190.119 62.2349 188.906 63.4432C188.658 63.6887 188.447 63.994 188.302 64.3078C188.212 64.5043 188.18 64.8693 188.295 64.9867C188.458 65.1511 188.78 65.1917 189.038 65.213C189.196 65.2258 189.378 65.117 189.529 65.0316C191.4 63.9727 192.749 62.4334 193.742 60.5676V60.5676Z" fill="white"/>
<path d="M141.035 58.3351C141.923 58.7129 142.719 59.0182 143.483 59.3854C145.157 60.186 145.655 61.2299 145.168 63.0296C144.954 63.8131 144.626 64.5688 144.305 65.3182C143.567 67.0495 142.798 68.7681 142.051 70.4952C141.942 70.7471 141.887 71.0225 141.953 71.4196C142.301 71.1058 142.691 70.8282 142.988 70.4717C144.167 69.0499 145.317 67.6067 146.472 66.1678C147.036 65.4655 147.168 64.6478 147.175 63.7661C147.213 59.0588 147.74 54.4069 148.919 49.8447C149.643 47.0417 150.672 44.3709 152.484 42.0482C153.739 40.4385 155.402 39.5867 157.352 39.243C158.919 38.9676 160.195 40.3083 159.939 42.0525C159.653 44.0166 159.337 45.9934 158.814 47.9041C157.729 51.8536 156.186 55.6366 154.279 59.2659C153.983 59.8316 153.707 60.4101 153.419 60.9823C152.847 62.1095 152.569 63.2901 152.548 64.5688C152.495 67.7797 152.623 70.967 153.393 74.0988C153.605 74.9571 153.897 75.8003 154.196 76.6329C154.557 77.6363 154.241 78.1892 153.163 78.3002C151.572 78.4625 150.302 77.8904 149.395 76.571C148.552 75.3456 148.184 73.9259 147.858 72.5062C147.595 71.3726 147.448 70.2113 147.226 68.9261C146.733 69.4662 146.295 69.9508 145.855 70.4333C144.91 71.4708 143.829 72.3248 142.512 72.8435C140.971 73.452 139.579 73.215 138.39 72.0323C137.576 71.2232 137.203 70.2091 137.476 69.1075C137.747 68.0145 138.159 66.9449 138.612 65.9117C139.169 64.6436 139.846 63.431 140.443 62.1799C140.638 61.7743 140.742 61.326 140.907 60.8414C140.535 60.6535 140.228 60.4977 139.846 60.3055C139.622 60.6855 139.417 61.01 139.235 61.3452C137.583 64.3938 135.582 67.1947 133.202 69.7138C132.425 70.5358 131.541 71.2744 130.629 71.9426C128.655 73.3879 126.398 73.7231 124.031 73.341C122.882 73.1552 122.017 72.4507 121.458 71.4345C120.181 69.1182 120.203 66.7379 121.228 64.3511C121.966 62.6283 123.078 61.1595 124.464 59.8956C125.668 58.7962 127.088 58.2176 128.704 58.1045C129.869 58.0234 130.691 58.5571 131.063 59.6757C131.599 61.2897 131.772 62.9186 130.585 64.3255C130.096 64.904 129.44 65.4399 128.751 65.7281C127.649 66.1892 126.456 66.439 125.297 66.7549C124.959 66.8467 124.603 66.8681 124.276 66.9172C123.935 68.8087 125.207 70.0618 127.16 69.8761C129.206 69.6818 130.77 68.5995 132.083 67.152C133.755 65.3118 135.388 63.4288 136.727 61.3175C136.84 61.1381 136.959 60.9609 137.07 60.7773C137.899 59.3961 137.642 59.3448 136.961 58.5421C136.639 58.1621 136.402 57.5964 136.374 57.1011C136.274 55.3633 136.605 53.696 137.63 52.2443C138.787 50.6047 140.706 50.4788 142.117 51.9006C142.77 52.5581 143.078 53.348 142.794 54.2319C142.48 55.2054 142.053 56.1447 141.654 57.0904C141.49 57.4811 141.276 57.8504 141.035 58.3286V58.3351ZM153.312 55.8885C153.381 55.7754 153.464 55.6665 153.513 55.5448C154.881 52.1909 155.874 48.7154 156.758 45.2099C156.948 44.4606 157.159 43.6728 156.854 42.8595C154.805 46.9605 154.06 51.4181 153.312 55.8864V55.8885ZM125.075 63.7149C126.114 63.8729 126.827 63.2751 127.491 62.671C128.11 62.1052 128.883 61.5779 128.798 60.5404C127.06 60.6492 125.672 61.8341 125.075 63.7149V63.7149ZM139.084 56.8492C139.92 56.0849 140.482 54.8168 140.379 53.9458C139.25 54.6097 139.177 55.6814 139.084 56.8492Z" fill="white"/>
<path d="M94.9236 71.9237C95.5085 72.1884 95.927 72.3422 96.307 72.5599C97.0883 73.0061 97.8868 73.3605 98.8112 73.3648C101.273 73.3776 102.788 71.2726 101.832 69.0139C101.17 67.4491 100.329 65.9547 99.5242 64.4539C98.4995 62.541 97.4534 60.641 96.9432 58.5104C96.3048 55.844 96.0764 53.1968 97.2164 50.5751C98.4397 47.7614 100.414 45.6564 103.057 44.1514C105.115 42.9793 107.325 42.3709 109.699 42.642C110.529 42.7359 111.379 42.9644 112.139 43.3081C113.198 43.7863 113.721 44.7043 113.666 45.8934C113.631 46.6193 113.36 46.8477 112.658 46.7815C112.517 46.7687 112.374 46.7452 112.237 46.7089C110.023 46.1154 108.202 47.0014 106.486 48.2503C106.087 48.5406 105.713 48.8801 105.367 49.2323C103.499 51.143 103.175 53.4295 104.005 55.8482C104.763 58.06 105.717 60.2055 106.612 62.3702C107.372 64.2105 108.128 66.0465 108.427 68.0362C108.798 70.5083 108.239 72.6965 106.49 74.5219C105.378 75.6853 104.197 76.7528 102.554 77.1328C99.1634 77.9184 95.4829 75.5423 94.915 71.9216L94.9236 71.9237Z" fill="white"/>
<path d="M114.076 52.9582C113.12 52.5483 111.939 52.8045 111.239 51.8758C111.081 51.6666 110.985 51.4126 110.765 50.9963C112.093 50.8575 113.239 50.7379 114.478 50.6077C114.636 49.6257 114.783 48.6522 114.949 47.6808C115.088 46.876 115.231 46.0733 115.402 45.2748C115.722 43.7762 116.452 43.3727 118.024 43.3556C118.711 43.3492 119.42 43.5862 120.09 43.8039C120.963 44.09 121.019 44.1626 120.931 45.1339C120.799 46.6177 120.588 48.095 120.41 49.5744C120.37 49.9203 120.327 50.2661 120.272 50.7315C121.713 50.96 123.167 50.597 124.52 51.2268C123.779 52.3732 122.831 52.9945 121.482 52.924C120.993 52.8984 120.502 52.9198 119.943 52.9198C119.781 54.4184 119.644 55.8232 119.471 57.2236C119.155 59.794 118.792 62.358 118.498 64.9305C118.092 68.4893 117.351 72.0075 117.27 75.6048C117.236 77.0928 116.788 77.3297 115.528 76.5334C114.177 75.6795 113.301 74.5523 113.19 72.8337C112.994 69.815 112.928 66.807 113.212 63.7905C113.515 60.5754 113.792 57.3581 114.07 54.1409C114.102 53.7588 114.074 53.3724 114.074 52.9582H114.076Z" fill="white"/>
<path d="M75.7094 53.7553C75.8781 56.8637 73.0003 59.5707 69.8919 59.5707C67.36 59.5707 64.0808 57.5468 64.0723 53.7297C64.0637 50.4548 66.5914 47.8695 69.8684 47.8652C73.6813 47.8588 75.9101 51.0355 75.7094 53.7575V53.7553Z" fill="white"/>
<path d="M65.4744 69.8856C65.6793 72.4774 63.5722 75.6049 59.7743 75.6711C56.2838 75.7309 53.8543 72.8232 53.8821 69.796C53.9056 67.2683 55.7778 64.0618 59.7593 64.0084C63.0043 63.9635 65.4914 66.5766 65.4744 69.8856V69.8856Z" fill="white"/>
<path d="M55.83 54.3513C55.9667 57.7863 52.9458 60.1346 50.1449 60.1368C47.4678 60.1389 44.3744 58.0382 44.3594 54.4025C44.3445 50.8544 47.3162 48.5872 50.2047 48.6235C53.3109 48.6619 55.9709 51.2899 55.83 54.3513Z" fill="white"/>
<path d="M76.0756 70.415C73.1956 70.4043 70.8985 68.1456 70.8814 65.3127C70.8644 62.2406 73.2106 59.9435 76.1908 59.967C78.7591 59.9883 81.3465 61.9673 81.3401 65.3767C81.3358 68.1691 78.9533 70.4278 76.0734 70.415H76.0756Z" fill="white"/>
<path d="M51.8095 70.0115C51.9504 72.8957 49.2306 75.2056 46.5513 75.1181C43.633 75.0241 41.4981 72.7783 41.4661 69.8044C41.4405 67.4497 43.3896 64.685 46.6538 64.6914C49.824 64.6978 52.0059 67.3023 51.8116 70.0115H51.8095Z" fill="white"/>
<path d="M56.962 38.1706C59.4085 37.9272 62.1177 40.1411 62.1625 43.2324C62.2031 46.0909 59.8526 48.3368 57.0196 48.3923C54.746 48.4372 51.8725 46.6887 51.8362 43.2879C51.8063 40.3247 54.3105 38.019 56.962 38.1685V38.1706Z" fill="white"/>
<path d="M77.0868 80.8725C74.5762 80.8554 72.6676 78.9084 72.6783 76.3701C72.6868 73.9171 74.7469 71.825 77.185 71.9274C80.0072 72.047 81.6084 74.1648 81.6191 76.4683C81.6297 78.9383 79.5867 80.8874 77.0868 80.8725Z" fill="white"/>
<path d="M31.8676 65.5255C31.6691 63.3885 33.7463 61.0807 36.3274 61.1277C38.6266 61.1704 40.7807 63.1408 40.6974 65.6493C40.6142 68.1172 38.7568 69.9532 36.259 69.9916C33.8659 70.0279 31.7011 67.9848 31.8676 65.5276V65.5255Z" fill="white"/>
<path d="M66.8307 41.109C64.6446 41.2649 62.3923 39.3115 62.4372 36.7454C62.4799 34.2903 64.286 32.401 66.7304 32.3945C69.2111 32.3881 71.1282 34.3074 71.1688 36.7539C71.2115 39.2816 68.7585 41.2862 66.8307 41.1069V41.109Z" fill="white"/>
<path d="M69.6929 85.3419C69.6823 83.5593 71.0422 82.1631 72.8205 82.1333C74.5839 82.1034 76.0975 83.602 76.0783 85.3569C76.0612 87.0648 74.5882 88.5079 72.8547 88.5186C71.1105 88.5293 69.7036 87.1139 69.6929 85.3398V85.3419Z" fill="white"/>
<path d="M30.3641 60.773C28.6455 60.7602 27.1959 59.2509 27.2408 57.5216C27.2835 55.8543 28.7715 54.409 30.4324 54.4239C32.1744 54.4389 33.6432 55.9247 33.6112 57.6412C33.5792 59.3982 32.1381 60.7858 30.3662 60.773H30.3641Z" fill="white"/>
<path d="M77.0801 39.2054C75.2676 39.2139 73.9803 37.9437 73.9824 36.1483C73.9846 34.3657 75.2954 33.0485 77.0588 33.0527C78.7624 33.0591 80.1009 34.37 80.1287 36.065C80.1586 37.8092 78.8115 39.1969 77.078 39.2054H77.0801Z" fill="white"/>
<path d="M132.038 92.5679C132.332 90.4843 132.614 88.501 132.911 86.4174C133.951 86.4174 134.905 86.3448 135.84 86.4387C136.781 86.5327 137.279 87.1134 137.371 88.0655C137.482 89.2119 137.272 90.3263 136.871 91.398C136.63 92.0406 136.135 92.4612 135.466 92.5764C134.348 92.7686 133.225 92.6725 132.036 92.57L132.038 92.5679ZM134.083 87.519C133.562 89.5876 133.449 90.7554 133.679 91.5966C135.223 91.7182 135.597 91.4599 135.908 90.0445C135.953 89.8374 136.032 89.6325 136.041 89.4254C136.109 87.805 136.391 87.2478 134.081 87.5211L134.083 87.519Z" fill="white"/>
<path d="M98.8155 89.9189C98.6703 90.7941 98.5273 91.6545 98.3779 92.5469H97.2144C97.2976 91.757 97.3659 90.9991 97.4641 90.2476C97.5901 89.2635 97.7395 88.2814 97.8804 87.2994C98.0021 86.4412 98.0854 86.3921 99.1891 86.5799C99.1272 87.2567 99.0653 87.9441 98.997 88.7063H101.108C101.241 87.9804 101.373 87.2631 101.512 86.4988H102.473C102.635 87.2866 102.178 91.0973 101.757 92.5298C101.612 92.5511 101.444 92.5896 101.273 92.5938C101.102 92.5981 100.933 92.5661 100.654 92.5405C100.752 91.6545 100.846 90.824 100.946 89.9231H98.8134L98.8155 89.9189Z" fill="white"/>
<path d="M162.643 52.6465C163.847 52.6422 164.432 53.05 164.735 53.9381C165.141 55.1208 164.583 56.4572 163.465 56.9952C162.38 57.5161 161.298 57.1233 160.578 55.9534C159.68 54.4889 160.1 53.3425 161.742 52.8365C162.111 52.7234 162.5 52.6785 162.643 52.6487V52.6465Z" fill="white"/>
<path d="M117.606 88.0797C117.706 87.4948 117.793 86.9824 117.887 86.4316H119.074C118.788 88.4939 118.513 90.4793 118.242 92.4391C117.719 92.674 117.343 92.7337 117.24 92.1616C116.653 92.3302 116.073 92.58 115.473 92.6441C114.775 92.7167 114.393 92.3665 114.305 91.6962C114.188 90.806 114.267 89.92 114.625 89.0874C114.901 88.4491 115.387 88.0776 116.113 88.0776C116.602 88.0776 117.091 88.0776 117.606 88.0776V88.0797ZM117.494 88.9935C117.029 89.0148 116.69 88.9614 116.406 89.0639C116.135 89.1621 115.804 89.3799 115.71 89.6254C115.537 90.0801 115.498 90.5925 115.443 91.0856C115.407 91.4123 115.573 91.6407 115.928 91.6514C116.395 91.6663 117.172 91.0685 117.266 90.5925C117.362 90.1121 117.405 89.619 117.49 88.9956L117.494 88.9935Z" fill="white"/>
<path d="M141.59 89.2913C141.415 89.2081 141.156 89.1632 141.126 89.0565C141.064 88.8259 141.099 88.3498 141.133 88.3456C141.829 88.2708 141.792 87.7329 141.91 87.2547C142.059 86.6441 142.495 86.2726 143.118 86.2086C143.601 86.1595 144.092 86.1979 144.546 86.1979C144.753 86.8191 144.638 87.1031 144.098 87.1202C143.519 87.1394 143.02 87.2546 143.018 88.0445C143.212 88.0766 143.413 88.1086 143.611 88.1449C143.78 88.1769 143.949 88.2132 144.111 88.2474C144.087 88.7896 143.661 89.1291 142.834 89.2657C142.674 90.3224 142.503 91.4027 142.347 92.4851C142.098 94.2079 141.487 94.6007 139.66 94.146C139.687 93.9261 139.717 93.6998 139.749 93.4521C139.937 93.4223 140.074 93.4031 140.21 93.3796C140.992 93.2429 141.071 93.1618 141.178 92.3698C141.312 91.3856 141.44 90.3993 141.59 89.2892V89.2913Z" fill="white"/>
<path d="M122.408 92.3713C121.927 92.4652 121.421 92.6296 120.909 92.651C120.106 92.683 119.671 92.3307 119.677 91.5344C119.684 90.736 119.846 89.929 120.03 89.1455C120.183 88.4901 120.728 88.1571 121.364 88.1058C122.275 88.0311 123.196 88.0183 124.201 88.4133C124.022 89.7475 123.838 91.0946 123.635 92.5997C123.213 92.5207 122.852 92.4545 122.408 92.3734V92.3713ZM120.937 91.7009C122.559 91.353 122.95 90.7296 122.73 89.1306C121.328 88.9619 121.027 89.201 120.939 90.5844C120.918 90.9238 120.937 91.2676 120.937 91.7009Z" fill="white"/>
<path d="M145.012 89.3904C144.112 88.7307 144.135 88.5407 145.16 88.0625C145.335 86.5831 145.935 85.8038 148.046 86.3674V86.9588C147.54 87.1104 147.064 87.215 146.626 87.4071C146.505 87.4605 146.498 87.7764 146.421 88.0326C146.816 88.1031 147.152 88.1629 147.478 88.2226C147.527 88.7492 147.118 89.1072 146.253 89.2965C146.099 90.3191 145.954 91.3651 145.785 92.407C145.486 94.2451 145.083 94.5226 143.166 94.1896C143.025 93.7178 143.1 93.3826 143.702 93.3804C144.342 93.3762 144.549 92.9983 144.603 92.4304C144.652 91.9031 144.743 91.378 144.816 90.8528C144.882 90.3618 144.948 89.8729 145.015 89.3925L145.012 89.3904Z" fill="white"/>
<path d="M177.774 88.1875H178.831C178.831 88.401 178.859 88.5696 178.827 88.7276C178.526 90.1964 178.028 91.5905 177.153 92.8223C176.538 93.689 175.768 94.3188 174.561 94.3252C174.493 94.0776 174.429 93.8534 174.371 93.6399C174.903 93.3517 175.39 93.0891 175.787 92.8757C175.503 92.4636 175.151 92.1562 175.059 91.7847C174.779 90.6597 174.598 89.5068 174.356 88.2494H175.588C175.686 88.8472 175.723 89.4535 175.894 90.0192C176.06 90.5679 175.87 91.2318 176.429 91.7506C177.256 90.7088 177.343 89.4428 177.774 88.1875V88.1875Z" fill="white"/>
<path d="M128.513 88.2286H129.685C129.352 90.0475 128.79 91.6657 127.727 93.079C127.268 93.6896 126.653 94.1102 125.904 94.2916C125.637 94.3557 125.319 94.4154 125.206 94.0269C125.105 93.6853 125.259 93.5209 125.579 93.3928C125.932 93.2519 126.25 93.0342 126.606 92.8356C126.316 92.5496 125.953 92.3596 125.889 92.097C125.592 90.8652 125.379 89.6141 125.14 88.3866C126.169 88.0023 126.346 88.092 126.497 88.9993C126.647 89.8938 126.803 90.7862 127.078 91.6956C128.017 90.7285 128.105 89.4391 128.515 88.2286H128.513Z" fill="white"/>
<path d="M149.183 91.0126C150.022 92.1355 151.006 91.4545 151.809 91.7256C152.009 92.1547 151.926 92.5134 151.416 92.5668C150.716 92.6393 149.998 92.6756 149.3 92.6095C148.598 92.5411 148.085 91.9882 148.085 91.2111C148.085 90.4874 148.248 89.7445 148.455 89.0442C148.632 88.4507 149.191 88.1946 149.778 88.122C150.233 88.0665 150.701 88.0622 151.155 88.1049C151.883 88.1732 152.266 88.5212 152.347 89.0976C152.453 89.8726 152.144 90.466 151.45 90.7051C151.121 90.8183 150.76 90.8461 150.412 90.8952C150.077 90.94 149.74 90.9613 149.185 91.0147L149.183 91.0126ZM151.162 89.3132C150.24 88.8158 149.798 88.9823 149.494 89.9451C150.754 90.1074 150.795 90.0925 151.162 89.3132Z" fill="white"/>
<path d="M105.929 88.0762C107.398 88.0954 107.964 88.7551 107.782 90.2345C107.77 90.3391 107.755 90.4459 107.746 90.5526C107.556 92.8455 105.669 92.9629 104.249 92.5295C103.735 92.3715 103.455 91.9296 103.419 91.3937C103.389 90.971 103.385 90.5355 103.451 90.1214C103.69 88.6312 104.401 88.0591 105.929 88.0804V88.0762ZM106.574 90.2793C106.627 89.6303 106.602 89.2119 106.07 89.0667C105.654 88.9536 105.107 89.1735 104.928 89.6026C104.783 89.9484 104.751 90.3434 104.663 90.7149C104.565 91.1312 104.614 91.4962 105.056 91.6756C105.515 91.8634 106.102 91.6478 106.305 91.1888C106.459 90.8408 106.525 90.4544 106.574 90.2793V90.2793Z" fill="white"/>
<path d="M70.1551 90.6052C70.1551 91.7538 69.2777 92.6184 68.1398 92.5928C67.0617 92.5672 66.2077 91.7047 66.1864 90.6181C66.1651 89.5186 67.0852 88.5579 68.1825 88.5665C69.1966 88.575 70.2512 89.3991 70.1551 90.6074V90.6052Z" fill="white"/>
<path d="M158.213 91.0038C158.599 91.4394 159.457 91.6742 160.788 91.7083C161.019 92.21 160.865 92.5345 160.312 92.59C159.75 92.6477 159.178 92.6754 158.615 92.6477C157.727 92.605 157.161 92.1695 157.127 91.3006C157.097 90.547 157.255 89.7614 157.468 89.0291C157.639 88.4442 158.222 88.1944 158.807 88.1197C159.259 88.062 159.729 88.0577 160.186 88.1026C160.929 88.1773 161.29 88.5167 161.358 89.1081C161.452 89.9151 161.157 90.468 160.451 90.7071C160.12 90.8181 159.761 90.848 159.411 90.895C159.074 90.9398 158.732 90.9569 158.213 91.0017V91.0038ZM158.506 90.0624C159.042 90.0069 159.462 90.0047 159.859 89.9001C159.996 89.8638 160.101 89.5884 160.15 89.4027C160.169 89.3258 160.022 89.1551 159.915 89.106C159.315 88.8242 158.76 89.1529 158.508 90.0624H158.506Z" fill="white"/>
<path d="M27.9826 52.9316C26.834 52.9402 25.9865 52.1631 25.9545 51.0764C25.9224 49.9599 26.8084 49.0462 27.9377 49.0334C29.0714 49.0184 29.9723 49.9001 29.9723 51.0252C29.9723 52.0692 29.0799 52.9231 27.9804 52.9316H27.9826Z" fill="white"/>
<path d="M166.213 92.546H165.071C165.193 91.4401 165.308 90.4004 165.423 89.365C164.563 89.1344 163.801 89.5315 163.643 90.2958C163.549 90.7463 163.493 91.2053 163.438 91.6643C163.318 92.642 163.288 92.6655 162.121 92.4606C162.298 91.2117 162.473 89.9585 162.656 88.7075C162.699 88.4107 162.808 88.1759 163.182 88.1546C163.666 88.1247 163.645 88.4855 163.72 88.8164C164.127 88.6029 164.503 88.3488 164.917 88.1994C166.059 87.7852 166.751 88.2891 166.644 89.4931C166.555 90.5072 166.365 91.5127 166.215 92.546H166.213Z" fill="white"/>
<path d="M86.1253 38.2922C86.1146 39.3682 85.1923 40.2734 84.1527 40.2307C83.1493 40.1901 82.2975 39.2678 82.3295 38.2559C82.3615 37.1885 83.1664 36.4349 84.2679 36.4434C85.4144 36.452 86.1381 37.1714 86.1253 38.2922V38.2922Z" fill="white"/>
<path d="M168.813 87.0236H169.784C169.823 87.3673 169.857 87.6705 169.897 88.0377C170.19 88.1017 170.489 88.1658 170.762 88.2255C171.15 88.5863 170.83 89.0645 170.179 89.1521C170.042 89.1713 169.904 89.1884 169.637 89.2225C169.528 89.9569 169.417 90.7062 169.3 91.4919C169.671 91.6072 169.961 91.6947 170.226 91.7758C170.442 92.3586 170.245 92.6084 169.688 92.6682C168.439 92.7984 167.98 92.3543 168.121 91.0948C168.164 90.7084 168.258 90.3284 168.298 89.942C168.335 89.6025 168.42 89.2759 167.925 89.0923C167.538 88.9493 167.604 88.4305 167.912 88.36C168.659 88.1892 168.595 87.5573 168.815 87.0215L168.813 87.0236Z" fill="white"/>
<path d="M172.761 91.4592C173.024 91.5617 173.235 91.5809 173.329 91.6962C173.464 91.8627 173.59 92.1082 173.57 92.3046C173.557 92.4327 173.291 92.5992 173.116 92.6334C172.052 92.849 171.476 92.3879 171.532 91.3973C171.54 91.2564 171.57 91.1176 171.589 90.9767C171.807 89.4802 172.023 87.9815 172.247 86.4316H173.425C173.205 88.0968 172.99 89.7257 172.761 91.4571V91.4592Z" fill="white"/>
<path d="M109.878 91.4479C110.245 91.7169 110.998 91.6977 110.582 92.5281C110.426 92.5623 110.194 92.6477 109.959 92.6562C108.896 92.6946 108.541 92.3082 108.676 91.2579C108.851 89.8916 109.034 88.5253 109.224 87.1611C109.258 86.922 109.346 86.6914 109.421 86.416H110.482C110.426 88.1196 109.982 89.7571 109.875 91.4457L109.878 91.4479Z" fill="white"/>
<path d="M154.274 92.5389H153.139C153.226 91.7512 153.301 91.0275 153.388 90.3059C153.444 89.8511 153.523 89.3986 153.583 88.9438C153.63 88.5916 153.632 88.1497 154.11 88.1838C154.368 88.2009 154.607 88.4763 154.945 88.6941C155.355 88.4699 155.85 87.9404 156.678 88.1561C156.625 88.4848 156.576 88.7794 156.522 89.1146C156.32 89.1595 156.153 89.1936 155.987 89.232C155.051 89.4455 154.524 89.9856 154.488 90.9869C154.469 91.5014 154.349 92.0138 154.272 92.5411L154.274 92.5389Z" fill="white"/>
<path d="M139.369 92.5389H138.18C138.389 91.0637 138.587 89.6589 138.792 88.2051H139.922C139.86 89.6632 139.569 91.053 139.371 92.5389H139.369Z" fill="white"/>
<path d="M113.355 88.2285C113.16 89.6888 112.977 91.0487 112.785 92.4961H111.587C111.788 91.0572 111.98 89.6695 112.18 88.2285H113.357H113.355Z" fill="white"/>
<path d="M180.919 90.6984C180.566 90.6792 180.336 90.6664 179.954 90.6451C180.114 89.2104 180.265 87.8612 180.421 86.4629H181.568C181.533 87.889 181.26 89.2489 180.919 90.7006V90.6984Z" fill="white"/>
<path d="M180.875 91.7897C180.845 92.3831 180.599 92.6222 180.16 92.586C179.824 92.5582 179.651 92.3874 179.662 92.0437C179.677 91.5676 179.929 91.2858 180.337 91.2794C180.755 91.273 180.883 91.51 180.877 91.7897H180.875Z" fill="white"/>
<path d="M139.043 86.3945H140.126C140.126 86.6913 140.207 86.9944 140.109 87.2186C139.904 87.6968 139.47 87.5196 138.954 87.4492C138.981 87.114 139.009 86.7916 139.041 86.3945H139.043Z" fill="white"/>
<path d="M113.499 87.4969H112.43V86.4316C112.814 86.4081 113.117 86.391 113.565 86.3633C113.542 86.7646 113.523 87.087 113.499 87.4969V87.4969Z" fill="white"/>
</g>
</g>
<defs>
<clipPath id="clip0_518_1995">
<rect width="231" height="127" fill="white"/>
</clipPath>
<clipPath id="clip1_518_1995">
<rect width="179.328" height="62.1244" fill="white" transform="translate(25.936 32.4121)"/>
</clipPath>
</defs>
</svg>
