<svg width="203" height="58" viewBox="0 0 203 58" fill="none" xmlns="http://www.w3.org/2000/svg">
<path d="M142.616 31.3925C141.44 31.3925 140.344 31.3925 139.232 31.3925C138.217 31.3925 137.186 31.3925 136.171 31.3925C135.769 31.3925 135.736 31.3602 135.736 30.9736C135.736 30.168 135.736 29.3463 135.736 28.5408C135.736 28.2508 135.833 28.1702 136.123 28.1702C139.361 28.1702 142.6 28.1702 145.838 28.1702C146.225 28.1702 146.241 28.1864 146.225 28.573C146.225 28.9919 146.225 29.4107 146.225 29.8296C146.241 30.9735 146.08 32.1175 145.774 33.213C145.016 35.8714 143.47 37.9175 141.005 39.2386C140.135 39.7058 139.216 40.0119 138.25 40.2213C137.025 40.4952 135.785 40.5597 134.544 40.463C133.014 40.3503 131.531 39.9636 130.162 39.2386C128.502 38.3686 127.149 37.1602 126.118 35.5813C125.296 34.3085 124.765 32.923 124.539 31.4246C124.426 30.6513 124.314 29.878 124.314 29.1046C124.314 28.3635 124.426 27.6385 124.523 26.8974C124.636 25.9791 124.91 25.1091 125.264 24.2553C125.715 23.1919 126.311 22.2252 127.085 21.3552C128.084 20.2596 129.244 19.3574 130.613 18.7774C131.402 18.4391 132.224 18.1652 133.046 17.9719C134.464 17.6497 135.897 17.6496 137.347 17.8268C139.023 18.0363 140.602 18.5679 142.004 19.5346C143.405 20.5013 144.436 21.7741 145.065 23.353C145.21 23.7075 145.339 24.0619 145.467 24.4163C145.548 24.6258 145.516 24.7547 145.226 24.7547C144.179 24.7547 143.147 24.7547 142.1 24.7547C141.923 24.7547 141.81 24.7064 141.714 24.5452C141.279 23.7236 140.747 22.9825 139.99 22.4186C139.281 21.8869 138.507 21.5163 137.637 21.3552C136.977 21.2424 136.3 21.1136 135.624 21.1136C134.899 21.1136 134.157 21.2102 133.465 21.3713C132.047 21.7096 130.871 22.483 129.936 23.6108C129.147 24.5613 128.615 25.6568 128.39 26.8813C128.245 27.6707 128.132 28.4602 128.132 29.2497C128.132 30.2808 128.325 31.2797 128.664 32.2624C129.066 33.4547 129.743 34.4697 130.661 35.2913C131.419 35.968 132.305 36.4191 133.287 36.7091C134.399 37.0313 135.527 37.0796 136.671 36.9669C137.879 36.8541 139.039 36.548 140.07 35.8552C141.085 35.1624 141.778 34.228 142.165 33.068C142.326 32.6008 142.422 32.1335 142.551 31.6502C142.567 31.5696 142.567 31.473 142.6 31.3602L142.616 31.3925Z" fill="#B2B2B2"/>
<path d="M70.5358 33.6798C71.0514 33.6798 71.567 33.6798 72.0825 33.6798C72.2759 33.6798 72.3564 33.7443 72.3886 33.9215C72.5981 35.3393 73.5164 36.1609 74.8053 36.6282C76.6259 37.2887 78.4786 37.2565 80.3153 36.7248C81.1853 36.4832 81.9103 35.9837 82.3453 35.162C82.6353 34.5981 82.748 33.9859 82.6675 33.3414C82.4903 31.9075 81.5558 31.2309 80.2991 30.8442C78.978 30.4253 77.6086 30.4092 76.2553 30.232C74.7892 30.0548 73.3553 29.7487 72.0342 29.072C70.7292 28.3954 69.7303 27.3965 69.2953 25.9465C69.0375 25.0765 69.0214 24.1581 69.1342 23.272C69.2792 22.0798 69.7464 21.0004 70.5519 20.0981C71.3897 19.1637 72.437 18.5193 73.6292 18.1004C75.337 17.5043 77.077 17.3753 78.8653 17.5526C80.1058 17.6815 81.2981 17.9876 82.4098 18.5676C83.6825 19.212 84.6653 20.1464 85.2453 21.4676C85.5514 22.1764 85.7447 22.9176 85.7447 23.707C85.7447 23.9326 85.6803 24.0131 85.4547 24.0131C84.4558 24.0131 83.457 24.0131 82.4581 24.0131C82.2648 24.0131 82.1842 23.9326 82.168 23.7554C82.023 22.5471 81.2658 21.8542 80.2186 21.387C78.8975 20.807 77.5119 20.7909 76.1264 20.9842C75.1436 21.1292 74.2253 21.4837 73.5325 22.241C73.0975 22.7082 72.8397 23.2559 72.8236 23.9165C72.8236 24.5287 72.8558 25.1087 73.2264 25.6242C73.6453 26.2042 74.2253 26.4942 74.8697 26.6875C76.0297 27.0581 77.2381 27.1548 78.4303 27.332C79.6709 27.5092 80.9275 27.7348 82.1197 28.0732C83.3764 28.4276 84.5203 29.0398 85.3419 30.1192C85.8736 30.812 86.1636 31.5853 86.3086 32.4392C86.4536 33.3092 86.4697 34.1792 86.3086 35.0653C86.0992 36.177 85.6158 37.1598 84.8425 37.9814C83.9725 38.8998 82.9092 39.4959 81.7331 39.8987C80.6214 40.2853 79.4775 40.4787 78.3014 40.527C76.8353 40.5915 75.3692 40.4948 73.9675 40.0598C72.0664 39.4798 70.4391 38.4648 69.4241 36.6926C68.9569 35.8709 68.7314 34.9848 68.6831 34.0342C68.6831 33.8248 68.7314 33.7281 68.973 33.7442C69.4886 33.7603 70.0203 33.7442 70.5358 33.7442V33.6798Z" fill="#B2B2B2"/>
<path d="M96.8114 25.9946C96.8114 23.4652 96.8114 20.9358 96.8114 18.3902C96.8114 18.1002 96.9081 18.0196 97.182 18.0196C98.1809 18.0196 99.1798 18.0357 100.179 18.0196C100.501 18.0196 100.565 18.1324 100.565 18.4224C100.565 23.2074 100.549 27.9763 100.565 32.7613C100.565 34.598 101.5 36.0158 103.24 36.7085C104.448 37.1919 105.705 37.2241 106.978 36.9341C107.928 36.7247 108.734 36.2735 109.362 35.5485C109.878 34.9524 110.2 34.2596 110.296 33.4863C110.361 33.0191 110.361 32.5357 110.361 32.0524C110.361 27.5413 110.361 23.0141 110.361 18.503C110.361 18.0358 110.361 18.0357 110.828 18.0357C111.795 18.0357 112.761 18.0357 113.728 18.0357C113.986 18.0357 114.066 18.1163 114.066 18.3902C114.066 23.3524 114.066 28.3146 114.066 33.2607C114.066 34.9363 113.454 36.4346 112.343 37.7074C111.537 38.6419 110.538 39.3185 109.378 39.7696C107.203 40.6396 104.964 40.7041 102.724 40.1563C100.533 39.6247 98.7609 38.4485 97.6492 36.4185C97.1014 35.4197 96.8114 34.3402 96.8114 33.2124C96.8114 30.8119 96.8114 28.4113 96.8114 26.0107V25.9946Z" fill="#B2B2B2"/>
<path d="M0 26.6234C0.0483333 26.2045 0.0966765 25.7696 0.161121 25.3507C0.370565 24.2068 0.580016 23.0789 0.821682 21.9512C1.16002 20.3884 1.7078 18.8901 2.33613 17.424C3.1578 15.539 4.17277 13.7667 5.38111 12.0912C6.46055 10.5928 7.6689 9.19123 9.02223 7.91846C10.0856 6.91957 11.1972 5.95287 12.4378 5.16342C13.5172 4.47064 14.5967 3.76179 15.7406 3.18179C16.9489 2.56956 18.2056 2.07015 19.4783 1.60293C20.3967 1.2646 21.3633 0.990675 22.3139 0.765119C23.2322 0.555675 24.1506 0.410679 25.085 0.265679C25.7456 0.169012 26.4222 0.120702 27.0828 0.08848C28.2106 0.0401466 29.3383 -0.0404719 30.4661 0.0239726C31.5295 0.0723059 32.6089 0.217306 33.6723 0.42675C34.9934 0.684528 36.3144 0.97454 37.6033 1.3451C39.15 1.7801 40.6484 2.40844 42.0661 3.16566C43.0006 3.6651 43.9673 4.16453 44.8372 4.76064C45.9811 5.55009 47.0928 6.40402 48.1561 7.32235C49.0584 8.09569 49.8961 8.9657 50.7017 9.85181C51.8294 11.0924 52.8283 12.4456 53.6822 13.8956C54.2945 14.9428 54.8745 16.0062 55.3739 17.1178C55.8573 18.1973 56.26 19.3251 56.6306 20.4367C56.9206 21.3228 57.1461 22.2412 57.3394 23.1595C57.5167 23.9973 57.6295 24.8512 57.71 25.7051C57.7906 26.5429 57.8389 27.3806 57.855 28.2184C57.8711 29.2818 57.8872 30.3452 57.8067 31.4085C57.7422 32.3429 57.565 33.2612 57.4039 34.1957C57.2589 34.9851 57.1139 35.7906 56.9045 36.564C56.6789 37.3695 56.4211 38.1751 56.1311 38.9485C55.3256 41.1718 54.2622 43.2501 52.9411 45.1835C52.055 46.4724 51.0722 47.6967 49.9928 48.8406C48.6878 50.2262 47.2861 51.4668 45.7233 52.5463C44.7728 53.2068 43.7739 53.8351 42.7589 54.3829C41.6956 54.9628 40.6 55.4784 39.4883 55.9296C38.3284 56.3807 37.12 56.7351 35.9117 57.0574C35.0256 57.299 34.1234 57.4601 33.205 57.6051C32.4156 57.734 31.6261 57.7662 30.8367 57.8468C30.7722 57.8468 30.7078 57.9112 30.6272 57.9434H27.26C27.26 57.9434 27.1472 57.8629 27.0828 57.8629C26.1322 57.7501 25.1817 57.6856 24.2311 57.5245C23.1033 57.3312 21.9917 57.0735 20.88 56.7835C19.3978 56.3968 17.9639 55.8329 16.5783 55.1724C15.08 54.4796 13.6623 53.6418 12.325 52.7073C10.6173 51.5151 9.05446 50.1296 7.62057 48.599C5.41335 46.2146 3.65726 43.524 2.35226 40.5596C1.70781 39.1096 1.16003 37.6112 0.837809 36.0645C0.596143 34.8723 0.37055 33.664 0.144994 32.4556C0.0805497 32.0851 0.0483333 31.7145 0 31.3279C0 29.7651 0 28.2023 0 26.6396V26.6234ZM35.8795 44.539C35.8795 44.539 35.8794 44.5712 35.8956 44.5712C36.3467 44.1362 36.8462 43.7173 37.2489 43.2501C38.4412 41.8484 39.1822 40.2373 39.44 38.4168C39.6817 36.7251 39.6495 35.0496 39.1339 33.4062C38.9332 32.7578 38.6701 32.1538 38.3486 31.5931C37.6638 30.3984 36.7144 29.4005 35.5411 28.589C34.4293 27.8137 33.2113 27.2508 31.9834 26.6835C31.859 26.626 31.7345 26.5684 31.61 26.5106C31.3045 26.365 30.9998 26.2178 30.6956 26.0695C30.6496 26.0473 30.6036 26.0252 30.5576 26.003C29.8149 25.64 29.0762 25.2704 28.338 24.9034C28.0537 24.7621 27.7696 24.621 27.4856 24.4806C27.0256 24.2484 26.5706 24.0076 26.123 23.7553C25.7307 23.535 25.344 23.305 24.9646 23.0639C24.215 22.5888 23.4938 22.0723 22.8133 21.5001C22.7553 21.451 22.6977 21.4016 22.6405 21.3518C21.553 20.4069 20.6102 19.3493 20.0745 17.9718C19.6395 16.8279 19.7039 15.7162 20.3483 14.669C20.6383 14.1857 20.9928 13.7346 21.3311 13.2512C21.3156 13.2605 21.3002 13.2692 21.2848 13.2777C21.2775 13.2816 21.2703 13.2856 21.2632 13.2894C21.2063 13.3203 21.1518 13.3499 21.1056 13.3962C20.9606 13.509 20.8317 13.6218 20.7028 13.7507C18.9145 15.4262 17.9156 17.5206 17.6739 19.9534C17.5128 21.5967 17.6256 23.224 18.2056 24.8029C18.6766 26.1112 19.4238 27.2071 20.3782 28.1508C20.5991 28.3692 20.8311 28.5795 21.0734 28.7824C22.04 29.5879 23.1678 30.1196 24.2795 30.6673C26.0517 31.5373 27.84 32.3429 29.5962 33.2451C31.2234 34.0829 32.8183 35.0012 34.2361 36.1773C35.1871 36.9761 36.0682 37.8448 36.691 38.9169C36.8596 39.207 37.0092 39.512 37.1361 39.8346C37.5389 40.8657 37.5389 41.8968 36.9911 42.8635C36.7645 43.2714 36.498 43.6635 36.2308 44.0564C36.1278 44.2079 36.0247 44.3595 35.9238 44.5123C35.9144 44.5265 35.9049 44.5408 35.8956 44.5551L35.8795 44.539ZM34.2844 11.7045C34.2844 11.7045 34.2522 11.7529 34.2522 11.769C34.2657 11.7825 34.2763 11.7987 34.2865 11.8143C34.3007 11.836 34.314 11.8563 34.3328 11.8657C35.2833 12.8001 35.3639 13.8796 34.9128 15.0557C34.6228 15.829 34.075 16.409 33.4628 16.9245C32.5767 17.6656 31.8356 18.4873 31.6745 19.6957C31.5456 20.6462 31.755 21.5162 32.3028 22.3057C33.0629 23.376 34.0919 23.8489 35.3753 23.8826C35.3782 23.8827 35.3811 23.8827 35.3839 23.8828C35.4306 23.8839 35.4777 23.8845 35.525 23.8845C37.5873 23.8845 39.0534 22.3701 39.44 20.4851C39.6334 19.5668 39.6333 18.6485 39.4722 17.714C39.2628 16.5379 38.7956 15.4907 38.0545 14.5562C37.1684 13.4284 36.0083 12.639 34.7839 11.9301C34.7573 11.9168 34.7308 11.904 34.7042 11.8914C34.6502 11.8659 34.5962 11.8416 34.5421 11.8173C34.5257 11.8099 34.5092 11.8024 34.4927 11.795C34.4871 11.7927 34.4816 11.7905 34.476 11.7882C34.4175 11.7616 34.3592 11.7338 34.3006 11.7045H34.2844ZM22.91 46.279C22.91 46.1985 22.91 46.1823 22.91 46.1662C22.8778 46.1179 22.8456 46.0695 22.7973 46.0212C21.8467 45.0384 21.8467 43.9268 22.3462 42.7507C22.7006 41.9129 23.3611 41.3168 24.0539 40.7529C24.7467 40.189 25.2784 39.4801 25.4556 38.5779C25.6328 37.7401 25.5684 36.9024 25.1656 36.129C24.8675 35.541 24.4756 35.0765 23.9967 34.7376C23.544 34.4172 23.0134 34.2091 22.4106 34.1151C21.7983 34.0185 21.1861 34.0507 20.5739 34.2279C19.72 34.4857 19.0595 34.969 18.5439 35.6779C17.9478 36.4995 17.69 37.434 17.6256 38.4329C17.5289 39.9473 17.835 41.3651 18.6244 42.6701C18.7623 42.8929 18.9098 43.1051 19.0659 43.3078C19.4054 43.7485 19.7858 44.1442 20.1977 44.5043C20.5644 44.825 20.956 45.1175 21.3657 45.3887C21.5701 45.524 21.7791 45.654 21.9917 45.7796C22.2037 45.9043 22.4253 46.0193 22.6715 46.1471C22.7434 46.1844 22.8174 46.2228 22.8939 46.2629L22.91 46.279Z" fill="#B2B2B2"/>
<path fill-rule="evenodd" clip-rule="evenodd" d="M36.2134 44.0421C36.1012 44.2072 35.989 44.3724 35.8795 44.539L35.8763 44.5358C35.874 44.5289 35.8701 44.5228 35.8631 44.5228L35.8763 44.5358C35.8792 44.5448 35.8792 44.555 35.8792 44.555C35.894 44.5407 35.9089 44.5265 35.9238 44.5123C36.0247 44.3595 36.1278 44.2079 36.2308 44.0564C36.498 43.6635 36.7645 43.2714 36.9911 42.8635C37.5389 41.8968 37.5389 40.8657 37.1361 39.8346C37.0092 39.512 36.8596 39.207 36.691 38.9169C36.8542 39.2017 36.9982 39.5012 37.1197 39.8184C37.5225 40.8495 37.5225 41.8645 36.9747 42.8473C36.7477 43.2559 36.4809 43.6486 36.2134 44.0421ZM20.3782 28.1508C19.4238 27.2071 18.6766 26.1112 18.2056 24.8029C17.6256 23.224 17.5128 21.5967 17.6739 19.9534C17.9156 17.5206 18.9145 15.4262 20.7028 13.7507C20.8317 13.6218 20.9606 13.509 21.1056 13.3962C21.1518 13.3499 21.2063 13.3203 21.2632 13.2894C21.2703 13.2856 21.2775 13.2816 21.2848 13.2777C21.2948 13.2635 21.3047 13.2493 21.3147 13.235C21.2697 13.2711 21.2246 13.297 21.1824 13.3214C21.1491 13.3406 21.1175 13.3588 21.0891 13.3801C21.0487 13.4155 21.0066 13.4509 20.9639 13.4868C20.8708 13.5653 20.7748 13.6461 20.6864 13.7345C18.898 15.4261 17.8992 17.5044 17.6575 19.9372C17.4964 21.5967 17.6253 23.2078 18.1892 24.7867C18.6629 26.1025 19.4159 27.2034 20.3782 28.1508ZM22.6405 21.3518C22.6977 21.4016 22.7553 21.451 22.8133 21.5001C23.4938 22.0723 24.215 22.5888 24.9646 23.0639C24.2091 22.5839 23.4823 22.0602 22.797 21.4839C22.7445 21.4402 22.6923 21.3962 22.6405 21.3518ZM26.123 23.7553C26.5706 24.0076 27.0256 24.2484 27.4856 24.4806C27.7696 24.621 28.0537 24.7621 28.338 24.9034C28.0487 24.7576 27.7597 24.6114 27.4706 24.4651L27.4692 24.4644C27.0148 24.2395 26.5653 24.0036 26.123 23.7553ZM30.5576 26.003C30.6036 26.0252 30.6496 26.0473 30.6956 26.0695C30.9998 26.2178 31.3045 26.365 31.61 26.5106C31.7345 26.5684 31.859 26.626 31.9834 26.6835C33.2113 27.2508 34.4293 27.8137 35.5411 28.589C36.7144 29.4005 37.6638 30.3984 38.3486 31.5931C37.6635 30.3913 36.7033 29.3879 35.5247 28.5728C34.4554 27.8271 33.2754 27.2779 32.1029 26.7322C31.9328 26.6531 31.763 26.574 31.5936 26.4944C31.2473 26.3334 30.9021 26.1693 30.5576 26.003Z" fill="#151517"/>
<path fill-rule="evenodd" clip-rule="evenodd" d="M22.5149 46.0696C22.6429 46.1361 22.775 46.2047 22.91 46.279L22.927 46.2951V46.1823C22.8948 46.1339 22.8625 46.0856 22.8142 46.0372C21.8637 45.0544 21.8637 43.9428 22.3631 42.7667C22.7175 41.9289 23.3781 41.3328 24.0709 40.769C24.7637 40.189 25.2792 39.48 25.4725 38.5939C25.6498 37.7561 25.5692 36.9183 25.1825 36.145C24.8881 35.5477 24.4883 35.0778 23.9967 34.7376C24.4756 35.0765 24.8675 35.541 25.1656 36.129C25.5684 36.9024 25.6328 37.7401 25.4556 38.5779C25.2784 39.4801 24.7467 40.189 24.0539 40.7529C23.3611 41.3168 22.7006 41.9129 22.3462 42.7507C21.8467 43.9268 21.8467 45.0384 22.7973 46.0212C22.8456 46.0695 22.8778 46.1179 22.91 46.1662V46.279L22.8939 46.2629C22.8174 46.2228 22.7434 46.1844 22.6715 46.1471C22.4253 46.0193 22.2037 45.9043 21.9917 45.7796C21.7791 45.654 21.5701 45.524 21.3657 45.3887M22.5149 46.0696C22.3374 45.9774 22.1677 45.8892 22.0087 45.7956ZM22.0087 45.7956C21.7905 45.6642 21.5758 45.529 21.3657 45.3887ZM20.1977 44.5043C19.7839 44.144 19.4027 43.7492 19.0659 43.3078C19.4054 43.7485 19.7858 44.1442 20.1977 44.5043Z" fill="#151517"/>
<path d="M197.313 32.0686C198.377 33.5186 199.408 34.9363 200.439 36.3541C201.212 37.4175 201.986 38.4647 202.727 39.5281C202.856 39.7214 202.823 40.0114 202.872 40.3014C202.727 40.3014 202.646 40.3175 202.549 40.3175C201.47 40.3175 200.391 40.3175 199.311 40.3175C199.134 40.3175 199.021 40.253 198.908 40.108C197.539 38.1747 196.153 36.2414 194.784 34.3081C194.429 33.8086 194.075 33.2931 193.688 32.8098C193.608 32.7131 193.447 32.6164 193.334 32.6164C191.916 32.6164 190.482 32.6164 189.064 32.6164C188.807 32.6164 188.774 32.713 188.774 32.9386C188.774 35.3069 188.774 37.6592 188.774 40.0275C188.774 40.2853 188.694 40.3336 188.468 40.3336C187.437 40.3336 186.406 40.3336 185.375 40.3336C185.101 40.3336 184.988 40.2692 184.988 39.9631C184.988 32.8098 184.988 25.6564 184.988 18.5031C184.988 18.1164 184.988 18.1164 185.391 18.1164C188.291 18.1164 191.175 18.1003 194.075 18.1164C195.718 18.1164 197.313 18.4547 198.715 19.373C200.262 20.388 201.277 21.7897 201.663 23.6103C201.792 24.1903 201.905 24.7863 201.889 25.3825C201.889 26.043 201.776 26.7197 201.599 27.3642C201.228 28.7981 200.455 29.9902 199.279 30.9086C198.763 31.2952 198.183 31.5853 197.619 31.9075C197.523 31.972 197.41 32.0203 197.265 32.0847L197.313 32.0686ZM188.726 25.4791C188.726 26.6875 188.726 27.8958 188.726 29.1202C188.726 29.3941 188.791 29.5069 189.097 29.5069C190.885 29.5069 192.689 29.5069 194.478 29.5069C195.461 29.5069 196.314 29.1364 197.007 28.4597C197.342 28.1297 197.607 27.7797 197.806 27.4107C198.276 26.5369 198.373 25.5564 198.135 24.4802C197.748 22.6758 196.186 21.5319 194.494 21.4836C193.291 21.4514 192.096 21.4621 190.899 21.4728C190.299 21.4782 189.699 21.4836 189.097 21.4836C188.919 21.4836 188.817 21.5218 188.763 21.6108C188.724 21.6748 188.71 21.7651 188.71 21.8864C188.71 23.0947 188.71 24.3031 188.71 25.5275L188.726 25.4791Z" fill="#B2B2B2"/>
<path d="M174.144 40.3341C173.596 40.3341 173.049 40.3341 172.485 40.3341C172.307 40.3341 172.211 40.3019 172.13 40.1086C171.55 38.8358 170.906 37.5953 170.342 36.3225C170.133 35.8553 169.859 35.7585 169.391 35.7585C166.33 35.7747 163.269 35.7586 160.224 35.7747C160.111 35.7747 159.95 35.9036 159.902 36.0164C159.274 37.3214 158.661 38.6425 158.049 39.9636C157.936 40.2214 157.791 40.3341 157.485 40.3341C156.438 40.318 155.407 40.3341 154.36 40.3341C153.925 40.3341 153.78 40.1086 153.957 39.7058C154.456 38.6263 154.972 37.5791 155.488 36.4997C155.955 35.5008 156.422 34.4858 156.889 33.4869C157.63 31.908 158.371 30.313 159.113 28.7341C159.741 27.413 160.369 26.0919 160.998 24.7708C161.706 23.2724 162.399 21.7741 163.092 20.2758C163.398 19.6314 163.704 19.003 163.994 18.3424C164.123 18.0524 164.284 17.9397 164.606 17.9558C164.945 17.988 165.283 17.988 165.621 17.9558C165.879 17.9397 165.992 18.0686 166.073 18.2619C166.959 20.163 167.845 22.0481 168.731 23.9492C169.375 25.3508 170.02 26.7525 170.68 28.1542C171.502 29.9103 172.324 31.6503 173.145 33.3903C174.112 35.4364 175.062 37.4825 176.013 39.5447C176.061 39.6414 176.094 39.738 176.11 39.8347C176.206 40.2375 176.142 40.3341 175.723 40.3341C175.191 40.3341 174.66 40.3341 174.128 40.3341H174.144ZM168.844 32.5525C167.587 29.6686 166.363 26.8491 165.122 24.0136C165.09 24.0136 165.058 24.0136 165.025 23.9975C164.091 26.1339 163.147 28.2703 162.194 30.4274C161.882 31.1333 161.569 31.8414 161.255 32.5525H168.844Z" fill="#B2B2B2"/>
<path fill-rule="evenodd" clip-rule="evenodd" d="M162.788 29.0722C162.28 30.2265 161.77 31.3855 161.255 32.5525C161.569 31.8414 161.882 31.1333 162.194 30.4274C163.147 28.2703 164.091 26.1339 165.025 23.9975C165.058 24.0136 165.09 24.0136 165.122 24.0136C165.09 23.9975 165.058 23.9975 165.025 23.9975C164.277 25.6856 163.535 27.3738 162.788 29.0722Z" fill="#151517"/>
</svg>
