<svg width="216" height="207" viewBox="0 0 216 207" fill="none" xmlns="http://www.w3.org/2000/svg">
<g clip-path="url(#clip0_5535_2014)">
<rect width="216" height="206.929" fill="#151517"/>
<g clip-path="url(#clip1_5535_2014)">
<path d="M34.5938 111.636V108.123L48.4492 113.49L62.2396 108.123V111.636L48.4492 117.067L34.5938 111.636Z" fill="white"/>
<path d="M48.4492 89.3359L34.5938 94.67V98.2477L48.4492 103.679L62.2396 98.2477V94.67L48.4492 89.3359Z" fill="white"/>
<path d="M34.5938 105.304V101.727L48.4492 107.158L62.2396 101.727V105.304L48.4492 110.736L34.5938 105.304Z" fill="white"/>
<path d="M76.9182 106.673C76.9331 106.41 76.8738 106.149 76.7473 105.919C76.6207 105.689 76.4321 105.499 76.2027 105.372C75.4386 104.971 74.6149 104.697 73.7634 104.559C72.8124 104.368 71.8852 104.074 70.9987 103.68C70.3218 103.431 69.7314 102.992 69.2986 102.414C68.8658 101.837 68.609 101.148 68.5594 100.428C68.5433 99.794 68.6832 99.1659 68.9667 98.5988C69.2503 98.0317 69.6688 97.5429 70.1856 97.1755C71.3559 96.2968 72.7882 95.8385 74.2512 95.8745C75.7629 95.7703 77.2591 96.2343 78.4467 97.1755C78.9517 97.5542 79.3615 98.0452 79.6438 98.6097C79.926 99.1742 80.073 99.7967 80.073 100.428H76.8205C76.827 100.132 76.7625 99.8386 76.6323 99.5727C76.5022 99.3067 76.3102 99.0758 76.0725 98.8993C75.5615 98.4515 74.8973 98.2184 74.2186 98.2488C73.5862 98.2223 72.9612 98.3927 72.4298 98.7366C72.2174 98.878 72.0456 99.0724 71.9315 99.3006C71.8174 99.5288 71.7649 99.7829 71.7793 100.038C71.7723 100.265 71.8297 100.489 71.9448 100.684C72.0599 100.88 72.2281 101.039 72.4298 101.143C73.2427 101.565 74.1234 101.84 75.0317 101.957C76.064 102.163 77.0685 102.491 78.0241 102.932C78.6596 103.277 79.2141 103.754 79.6503 104.331C80.0161 104.94 80.2074 105.637 80.2032 106.347C80.2281 106.983 80.0921 107.614 79.8077 108.182C79.5234 108.751 79.1001 109.239 78.577 109.6C77.3238 110.479 75.8126 110.914 74.2837 110.836C73.1654 110.855 72.056 110.634 71.0313 110.185C70.1495 109.808 69.3936 109.188 68.8522 108.396C68.3473 107.681 68.0645 106.832 68.0391 105.957H71.2915C71.2995 106.301 71.3821 106.639 71.5337 106.948C71.6853 107.257 71.9023 107.529 72.1695 107.746C72.7898 108.177 73.5286 108.404 74.2837 108.396C74.9706 108.459 75.6583 108.287 76.2351 107.909C76.4447 107.805 76.6188 107.642 76.7348 107.439C76.8507 107.236 76.9032 107.003 76.8856 106.77L76.9182 106.673ZM91.8145 109.275C91.299 109.853 90.6602 110.308 89.9452 110.607C89.2303 110.905 88.4574 111.039 87.6838 110.998C87.0211 111.045 86.3564 110.943 85.7377 110.701C85.1191 110.459 84.5619 110.083 84.1062 109.6C83.2074 108.456 82.7668 107.018 82.8702 105.567V96.1347H86.1227V105.567C86.1227 107.421 86.8708 108.299 88.3994 108.299C89.0487 108.377 89.7063 108.257 90.2865 107.955C90.8667 107.653 91.3426 107.184 91.6519 106.608V96.1347H94.9043V110.738H91.847L91.8145 109.275ZM97.7988 103.29C97.7205 101.349 98.2928 99.4372 99.4251 97.8585C99.9086 97.1972 100.547 96.6646 101.284 96.3074C102.021 95.9502 102.835 95.7792 103.653 95.8094C104.389 95.7671 105.124 95.9014 105.798 96.2013C106.471 96.5012 107.063 96.9579 107.524 97.5332L107.686 96.0696H110.614V110.25C110.668 111.094 110.536 111.939 110.227 112.726C109.918 113.513 109.439 114.223 108.825 114.804C107.486 115.962 105.745 116.546 103.979 116.43C102.864 116.41 101.763 116.189 100.726 115.779C99.8036 115.396 98.9964 114.78 98.3843 113.991L99.913 112.039C100.356 112.606 100.924 113.063 101.573 113.373C102.222 113.684 102.934 113.839 103.653 113.828C104.604 113.863 105.534 113.538 106.255 112.917C106.596 112.586 106.859 112.185 107.028 111.741C107.197 111.297 107.266 110.821 107.231 110.348V109.47C106.751 109.995 106.162 110.407 105.504 110.677C104.846 110.947 104.136 111.068 103.426 111.031C102.609 111.05 101.799 110.874 101.064 110.518C100.328 110.162 99.6885 109.635 99.1974 108.982C98.1287 107.295 97.6169 105.316 97.7339 103.323L97.7988 103.29ZM100.986 103.648C100.947 104.867 101.251 106.073 101.864 107.128C102.148 107.537 102.527 107.869 102.97 108.096C103.412 108.323 103.904 108.437 104.401 108.429C104.995 108.433 105.579 108.275 106.089 107.971C106.6 107.667 107.017 107.229 107.296 106.705V100.2C107.004 99.6942 106.581 99.2761 106.072 98.9899C105.563 98.7038 104.985 98.5601 104.401 98.574C103.901 98.5469 103.403 98.6531 102.957 98.8816C102.511 99.1102 102.134 99.453 101.864 99.875C101.191 100.965 100.884 102.241 100.986 103.518V103.648ZM122.713 110.641C122.51 110.207 122.368 109.747 122.29 109.275C121.797 109.787 121.206 110.195 120.552 110.474C119.899 110.754 119.196 110.899 118.485 110.901C117.188 110.961 115.918 110.518 114.939 109.665C114.472 109.266 114.103 108.766 113.861 108.202C113.618 107.638 113.509 107.025 113.541 106.412C113.51 105.725 113.651 105.04 113.953 104.421C114.254 103.802 114.704 103.268 115.264 102.867C116.746 101.957 118.472 101.525 120.208 101.631H122.225V100.688C122.253 100.346 122.204 100.003 122.08 99.6826C121.957 99.3626 121.763 99.0746 121.513 98.84C121.263 98.6055 120.963 98.4305 120.635 98.3281C120.308 98.2257 119.962 98.1986 119.623 98.2488C118.96 98.2176 118.306 98.4126 117.769 98.8017C117.536 98.9681 117.347 99.1878 117.217 99.4425C117.087 99.6971 117.02 99.9793 117.021 100.265H113.768C113.762 99.4341 114.05 98.6274 114.582 97.9886C115.149 97.2607 115.901 96.6989 116.761 96.3623C117.792 95.9455 118.902 95.7569 120.013 95.8094C121.475 95.7078 122.919 96.1738 124.046 97.1104C124.553 97.5693 124.955 98.1324 125.225 98.7611C125.494 99.3898 125.625 100.069 125.607 100.753V107.258C125.542 108.37 125.731 109.483 126.16 110.51V110.771H122.908L122.713 110.641ZM119.07 108.299C119.72 108.303 120.36 108.135 120.924 107.811C121.474 107.512 121.925 107.06 122.225 106.51V103.745H120.436C119.473 103.708 118.517 103.933 117.671 104.396C117.38 104.59 117.146 104.858 116.991 105.172C116.837 105.486 116.769 105.836 116.793 106.185C116.783 106.472 116.835 106.758 116.948 107.022C117.06 107.286 117.23 107.522 117.444 107.713C117.903 108.088 118.477 108.295 119.07 108.299ZM136.568 98.9643C136.135 98.931 135.7 98.931 135.267 98.9643C134.653 98.8895 134.031 99.0134 133.493 99.3177C132.954 99.6221 132.528 100.091 132.275 100.656V110.641H129.022V96.0371H132.275V97.6633C132.591 97.0805 133.062 96.5961 133.636 96.2633C134.21 95.9305 134.864 95.7622 135.527 95.7769C135.905 95.726 136.288 95.726 136.666 95.7769L136.568 98.9643ZM144.439 109.502C145.472 109.545 146.482 109.197 147.269 108.526C147.948 107.937 148.378 107.112 148.472 106.217H150.001C149.946 107.097 149.654 107.946 149.156 108.673C148.658 109.401 147.972 109.979 147.171 110.348C146.309 110.766 145.365 110.988 144.406 110.998C143.539 111.043 142.674 110.881 141.882 110.524C141.09 110.168 140.395 109.628 139.853 108.949C138.66 107.436 138.059 105.54 138.162 103.615V102.965C138.132 101.66 138.375 100.364 138.877 99.1595C139.336 98.0895 140.107 97.1827 141.089 96.5575C142.067 95.9578 143.194 95.6425 144.341 95.6468C145.806 95.5895 147.233 96.116 148.309 97.1104C148.829 97.5878 149.246 98.1652 149.537 98.8079C149.828 99.4507 149.985 100.145 150.001 100.851H148.472C148.43 99.8112 148.001 98.8249 147.269 98.0861C146.489 97.3754 145.46 97.0014 144.406 97.0454C143.783 97.0314 143.165 97.1622 142.601 97.4274C142.036 97.6926 141.541 98.0851 141.154 98.574C140.258 99.8805 139.823 101.448 139.918 103.03V103.518C139.833 105.078 140.267 106.622 141.154 107.909C141.526 108.414 142.019 108.818 142.587 109.085C143.154 109.352 143.78 109.473 144.406 109.437L144.439 109.502ZM160.051 97.3706C159.706 97.3225 159.355 97.3225 159.01 97.3706C158.076 97.3445 157.161 97.6306 156.408 98.1837C155.645 98.796 155.125 99.6613 154.944 100.623V110.673H153.318V96.0696H154.977V98.4439C155.329 97.6422 155.915 96.9651 156.657 96.501C157.4 96.0369 158.265 95.8072 159.14 95.8419C159.484 95.7736 159.837 95.7736 160.181 95.8419L160.051 97.3706ZM164.019 95.972V98.3463C164.482 97.51 165.184 96.8307 166.035 96.3949C166.857 95.9624 167.773 95.739 168.702 95.7444C169.647 95.6441 170.598 95.8701 171.397 96.3849C172.195 96.8996 172.794 97.6721 173.093 98.574C173.58 97.6811 174.314 96.9472 175.207 96.4599C176.095 95.9769 177.092 95.7305 178.102 95.7444C181.354 95.7444 182.818 97.4356 182.883 100.851V110.608H181.289V100.851C181.341 99.8128 181.056 98.7859 180.476 97.9235C180.124 97.5747 179.7 97.3068 179.234 97.1383C178.768 96.9698 178.27 96.9048 177.777 96.9478C176.701 96.939 175.663 97.3469 174.882 98.0861C174.495 98.4184 174.179 98.8265 173.956 99.2851C173.732 99.7438 173.604 100.243 173.581 100.753V110.51H171.955V100.753C172.009 99.7253 171.698 98.7114 171.077 97.891C170.722 97.5501 170.295 97.294 169.828 97.1419C169.36 96.9898 168.864 96.9456 168.377 97.0128C167.436 97.0054 166.519 97.3147 165.775 97.891C164.989 98.5743 164.433 99.4827 164.181 100.493V110.543H162.555V95.9395L164.019 95.972Z" fill="white"/>
</g>
</g>
<defs>
<clipPath id="clip0_5535_2014">
<rect width="216" height="206.929" fill="white"/>
</clipPath>
<clipPath id="clip1_5535_2014">
<rect width="149" height="28.2247" fill="white" transform="translate(34 89)"/>
</clipPath>
</defs>
</svg>
