<svg width="64" height="63" viewBox="0 0 64 63" fill="none" xmlns="http://www.w3.org/2000/svg">
<g clip-path="url(#clip0_540_445)">
<path d="M40.0114 46.2635C40.0165 43.5688 40.0268 40.5154 40.0114 37.5133C39.996 34.67 37.4755 32.1495 34.6169 32.1238C34.2122 32.1238 33.8075 32.1187 33.4028 32.1187C32.9981 32.1187 32.6139 32.1187 32.2194 32.1238H32.1887C32.0606 32.1238 31.7891 32.1238 31.6712 31.9138C31.5637 31.7242 31.6559 31.5142 31.7481 31.3554C32.2911 30.4179 32.7163 29.3932 33.0134 28.3072C33.1108 27.9434 33.3413 27.759 33.6948 27.759H33.7768C34.3505 27.759 34.8014 27.4926 35.1702 26.9444C35.5083 26.4372 35.8516 25.9301 36.1897 25.4229C37.1118 24.0499 38.0647 22.6308 38.9817 21.222C40.16 19.4186 40.3751 17.1491 39.5503 15.146C38.746 13.1941 37.0606 11.816 34.9294 11.3652C34.8628 11.3498 34.7962 11.3344 34.7296 11.3191L34.6733 11.3037H32.7778C31.3895 11.5855 30.2778 12.1388 29.3864 12.9994C29.2481 13.1326 29.1354 13.2505 29.0329 13.3632C28.7204 13.7115 28.5514 13.9011 28.2798 13.9011C28.0647 13.9011 27.87 13.773 27.5268 13.5425C25.7235 12.3386 23.7307 11.6008 21.6046 11.3447C21.5483 11.3396 21.4868 11.3242 21.4305 11.3037H21.4048L18.6897 11.2986C17.2706 11.4984 16.0667 11.8109 15.0063 12.2463C14.0227 12.6511 13.0852 13.1736 12.2245 13.7884L12.1886 13.814C12.0862 13.8857 11.9632 13.9779 11.7993 13.9779C11.6456 13.9779 11.5124 13.9011 11.3946 13.7474C10.4007 12.441 9.06877 11.6367 7.32697 11.2935H5.42123C3.95606 11.5906 2.78803 12.2002 1.84541 13.1685C-0.147422 15.2177 -0.541889 18.5426 0.933521 20.9095C1.92225 22.4925 2.98783 24.0653 4.01754 25.5868C4.34541 26.0735 4.67328 26.5551 5.00114 27.0418C5.31877 27.5182 5.75934 27.759 6.31262 27.759H6.40483C6.75319 27.759 6.98373 27.9434 7.08106 28.302C7.6702 30.4486 8.74602 32.3595 10.2829 33.9835C10.2932 33.9938 10.3034 33.9989 10.3136 34.0091C10.3751 34.0655 10.5698 34.2345 10.4725 34.4856C10.4417 34.5573 10.3444 34.7315 10.0934 34.7315C10.0626 34.7315 10.0268 34.7315 9.9909 34.7264C9.97553 34.7264 9.96016 34.7264 9.94992 34.7264C9.78086 34.7264 9.6118 34.7264 9.44274 34.7264H8.88434C8.69479 34.7264 8.50524 34.7264 8.31569 34.7264C7.32697 34.7366 6.60463 35.4538 6.59951 36.4272C6.58926 37.9436 6.59951 39.3269 6.61487 40.6537C6.61487 40.7869 6.60463 40.9714 6.47143 41.1046C6.38434 41.1917 6.26139 41.2378 6.1077 41.2378C6.07697 41.2378 6.05135 41.2378 6.01549 41.2378C5.70299 41.248 5.38537 41.2531 5.33926 41.3044C5.29315 41.3505 5.29315 41.663 5.29315 41.9601V48.1898C5.29315 48.3537 5.29315 48.5228 5.30852 48.5894C5.38024 48.6047 5.55955 48.6047 5.73373 48.6047H6.53291C6.81467 48.6047 7.10156 48.6047 7.38332 48.6047C7.82389 48.6047 8.25934 48.6047 8.69992 48.5945H8.72553C9.12512 48.5945 9.37615 48.7482 9.56057 49.1119C10.2778 50.4952 11.3946 51.2021 12.8854 51.2021C14.3761 51.2021 15.4929 50.5003 16.2102 49.1119C16.3946 48.7533 16.6405 48.5996 17.0247 48.5996C18.6794 48.5996 20.329 48.6047 21.9786 48.6047C23.6282 48.6047 25.2983 48.6047 26.9581 48.5945C27.4602 48.5945 27.6651 48.866 27.8034 49.1273C28.5206 50.5003 29.6374 51.197 31.118 51.197C32.619 51.1919 33.7307 50.49 34.4325 49.1222C34.6272 48.7482 34.8833 48.5894 35.288 48.5894H35.329C35.6825 48.5996 36.0411 48.5996 36.3946 48.5996C36.7481 48.5996 37.1016 48.5996 37.4499 48.5945H37.6395C38.9663 48.5842 40.0063 47.5545 40.0063 46.2481L40.0114 46.2635ZM33.6743 12.1439H33.705C36.8915 12.1439 38.8639 14.6183 39.1046 16.9493C39.2532 18.4196 38.9305 19.7209 38.1159 20.9351C37.3731 22.0416 36.6303 23.1534 35.8925 24.2651C35.4469 24.9362 34.996 25.6124 34.5503 26.2835C34.2891 26.678 34.0175 26.8676 33.7255 26.8676C33.4335 26.8676 33.1723 26.6831 32.9161 26.2989C32.4346 25.5766 31.953 24.8593 31.4766 24.137C30.7491 23.0406 30.0165 21.9443 29.2839 20.8531C28.6384 19.89 28.3259 18.8141 28.2952 17.4719C28.2952 14.5517 30.7132 12.1644 33.6794 12.149L33.6743 12.1439ZM29.0739 22.139C29.4171 22.641 29.7501 23.1482 30.0012 23.5325C30.0114 23.5478 30.0216 23.5632 30.037 23.5734C30.1036 23.6554 30.288 23.8655 30.1292 24.1216C30.0729 24.2087 29.9653 24.3163 29.7552 24.3163C29.7143 24.3163 29.6733 24.3163 29.6323 24.306C29.6118 24.306 29.5913 24.3009 29.5708 24.3009C29.2583 24.3009 28.9509 24.3009 28.6384 24.3009H27.0964C26.9018 24.3009 26.7071 24.3009 26.5124 24.3009C26.246 24.3009 25.9796 24.3009 25.7081 24.3112H25.6774C25.2419 24.3112 25.0216 24.0806 25.0114 23.6298C24.9909 22.2312 24.8628 20.8172 24.6323 19.4289C24.6067 19.2598 24.5862 19.019 24.7399 18.8397C24.8526 18.7065 25.0216 18.6451 25.2624 18.6451H25.3188C25.5442 18.6553 25.7696 18.6553 26.0001 18.6553C26.2307 18.6553 26.4407 18.6553 26.661 18.6502H26.8966C27.3884 18.6502 27.537 18.9115 27.5831 19.1317C27.7983 20.223 28.3874 21.14 29.079 22.1441L29.0739 22.139ZM22.7624 12.4666C24.1507 12.7638 25.4315 13.2863 26.6764 14.0599C26.7481 14.106 26.8249 14.147 26.9018 14.1931C27.2091 14.3724 27.5268 14.5568 27.7266 14.8489C27.9622 15.1921 27.8085 15.5507 27.6958 15.812C27.6395 15.9401 27.5882 16.0579 27.578 16.1655C27.5626 16.2936 27.537 16.4268 27.5165 16.5548C27.4807 16.7546 27.4448 16.9493 27.4499 17.1338C27.4499 17.3438 27.4038 17.5026 27.2911 17.6204C27.1784 17.7332 27.0247 17.7895 26.8198 17.7895C26.4919 17.7895 26.1794 17.7844 25.8721 17.7844C25.5647 17.7844 25.2522 17.7844 24.9397 17.7946H24.9192C24.5503 17.7946 24.3147 17.6102 24.2327 17.2413C23.8075 15.4431 23.2747 14.0907 22.5012 12.856L22.1784 12.3437L22.7727 12.4718L22.7624 12.4666ZM13.1108 31.6679C13.121 31.6679 13.1466 31.673 13.1979 31.673C13.746 31.673 14.2891 31.6679 14.8321 31.6679C15.3751 31.6679 15.9182 31.6679 16.4612 31.673C16.5227 31.673 16.5483 31.6679 16.5585 31.6628C16.5585 31.6576 16.5585 31.632 16.5585 31.5757C16.5483 30.9353 16.5483 30.3974 16.5585 29.8953C16.5585 29.8594 16.5585 29.8236 16.5534 29.7877C16.538 29.6135 16.497 29.2037 16.9786 29.0807C17.0606 29.0602 17.1477 29.05 17.2348 29.05C17.6395 29.05 18.0339 29.2652 18.1876 29.5777C18.2952 29.7928 18.3055 30.0183 18.3055 30.1668C18.3055 30.5869 18.3055 31.0121 18.3055 31.4322C18.3055 32.1648 18.3055 32.8923 18.3055 33.6249C18.3055 34.3575 17.9417 34.7161 17.2091 34.7264C16.8864 34.7264 16.5688 34.7264 16.246 34.7264H13.3925C13.0749 34.7264 12.7624 34.7264 12.4448 34.7264C11.7122 34.7212 11.3536 34.3575 11.3485 33.6249C11.3485 32.795 11.3485 31.9701 11.3485 31.1402V30.1668C11.3485 29.9619 11.3485 29.3369 12.0145 29.1268C12.1938 29.0705 12.3372 29.0398 12.4653 29.0398C12.8854 29.0398 13.1005 29.3318 13.1005 29.9056V30.3615C13.1005 30.7662 13.1057 31.171 13.1005 31.5808C13.1005 31.6371 13.1057 31.6628 13.1108 31.673V31.6679ZM13.9561 29.9107C13.9561 29.1781 14.0739 29.0654 14.8321 29.0654C15.2009 29.0654 15.4059 29.0654 15.5595 29.2191C15.7081 29.3728 15.7081 29.5777 15.7081 29.9517C15.7081 30.6535 15.6313 30.8175 14.868 30.8175H14.8116C14.4632 30.8175 14.2481 30.8175 14.0995 30.6535C13.9561 30.4998 13.9561 30.2898 13.9561 29.9107ZM18.6948 35.5819H18.787C19.12 35.5819 19.3403 35.5819 19.4889 35.7612C19.6221 35.92 19.622 36.1198 19.6169 36.5194C19.6169 37.2162 19.4889 37.334 18.787 37.334H18.7102C18.3618 37.334 18.1518 37.334 18.0032 37.1649C17.8649 37.0112 17.8649 36.8114 17.8649 36.417C17.8649 35.751 17.9468 35.5819 18.6948 35.5819ZM15.2573 36.6936C15.2573 36.4016 15.2932 36.0737 15.5749 35.8329C15.7747 35.6588 16.0206 35.5665 16.287 35.5665C16.4151 35.5665 16.5432 35.587 16.6661 35.628C17.0657 35.7612 17.0247 36.1557 17.0093 36.3196C17.0093 36.3606 16.9991 36.4016 16.9991 36.4375C17.0145 36.9805 17.0145 37.5184 16.9991 38.0359C16.9991 38.1383 17.0093 38.1691 17.0145 38.1793C17.0145 38.1793 17.0503 38.1895 17.122 38.1895C17.6651 38.1844 18.1979 38.1793 18.7307 38.1793C19.2634 38.1793 19.8116 38.1793 20.3495 38.1895C20.4212 38.1895 20.452 38.1793 20.4571 38.1793C20.4571 38.1793 20.4673 38.1434 20.4622 38.0615C20.452 37.4365 20.452 36.9139 20.4622 36.4221C20.4622 36.3862 20.4622 36.3452 20.4571 36.3094C20.4417 36.1403 20.3956 35.6895 20.9233 35.5922C20.995 35.5768 21.0718 35.5717 21.1436 35.5717C21.5739 35.5717 21.953 35.792 22.1067 36.1301C22.1784 36.2838 22.2091 36.458 22.2091 36.6731C22.2091 37.0727 22.2091 37.4723 22.2091 37.8668C22.2091 38.6353 22.2091 39.4037 22.2091 40.1722C22.204 40.874 21.8403 41.2326 21.1231 41.2429C20.8003 41.2429 20.4827 41.2429 20.16 41.2429H17.3014C17.0042 41.2429 16.702 41.2429 16.4048 41.2429C15.6108 41.2429 15.2573 40.8894 15.2522 40.1107C15.2522 39.3883 15.2522 38.6711 15.2522 37.9488V36.6936H15.2573ZM22.1169 34.8493C22.0657 34.8493 22.0145 34.8391 21.9581 34.8237C21.6866 34.7469 21.3843 34.711 20.9899 34.711C20.8208 34.711 20.6518 34.7161 20.4827 34.7212C20.3085 34.7264 20.1343 34.7315 19.9602 34.7315C19.9089 34.7315 19.8526 34.7315 19.8014 34.7315C19.6118 34.7315 19.412 34.7007 19.2788 34.5573C19.1456 34.4087 19.1405 34.2038 19.1507 34.045C19.1917 33.5173 19.1764 32.9743 19.1661 32.4466V32.3595C19.161 32.2109 19.1764 31.9906 19.33 31.8318C19.4427 31.7191 19.6016 31.6628 19.8116 31.6628H19.8526C20.0473 31.6679 20.2419 31.673 20.4366 31.673C20.58 31.673 20.7286 31.673 20.8721 31.673C21.0206 31.673 21.1641 31.673 21.3126 31.673H22.1477C22.3423 31.673 22.537 31.673 22.7266 31.673H22.7522C22.8444 31.673 23.0852 31.673 23.2235 31.8523C23.3618 32.0367 23.3003 32.2673 23.2798 32.3441C23.0544 33.1894 22.8341 33.8606 22.5882 34.46C22.5421 34.5778 22.4294 34.8493 22.1118 34.8493H22.1169ZM22.9673 30.8277H22.9264C22.4704 30.8123 21.9991 30.8072 21.4817 30.8072C20.9643 30.8072 20.4468 30.8123 19.9243 30.8226H19.8884C19.3915 30.8226 19.161 30.5869 19.161 30.0849C19.161 28.8604 18.5001 28.2149 17.2552 28.2149C16.2511 28.2149 16.1384 28.1125 16.0309 27.1289C16.0001 26.8676 16.0001 26.6114 15.995 26.3604C15.995 26.1913 15.9899 26.0274 15.9796 25.8583C15.9643 25.6329 16.0155 25.4587 16.1282 25.3358C16.246 25.2128 16.4151 25.1513 16.6507 25.1513C17.1733 25.1513 17.6804 25.1565 18.1876 25.1565H21.9069C22.3987 25.1565 22.8905 25.1565 23.3772 25.1462H23.4028C23.5616 25.1462 23.7921 25.1667 23.9561 25.3307C24.12 25.4997 24.1354 25.7354 24.1354 25.8993C24.1149 27.1237 24.0022 28.4147 23.7665 30.1002C23.7255 30.4127 23.5923 30.8226 22.9725 30.8226L22.9673 30.8277ZM15.9643 23.5683C15.9848 22.0109 16.1692 20.4842 16.3331 19.3315C16.3997 18.8551 16.6507 18.6297 17.1272 18.6297C18.1108 18.6399 19.079 18.6451 20.0473 18.6451C21.0155 18.6451 21.9837 18.6451 22.9468 18.6297C23.5821 18.6297 23.7102 19.0293 23.7511 19.3315C23.91 20.4842 24.0995 22.0058 24.12 23.5683C24.12 23.7271 24.1046 23.9628 23.9458 24.1267C23.787 24.2856 23.5667 24.306 23.413 24.306C22.8956 24.3009 22.4038 24.2958 21.9069 24.2958H18.1569C17.6702 24.2958 17.1784 24.2958 16.6917 24.306C16.5175 24.306 16.2973 24.2856 16.1436 24.1267C15.9796 23.9628 15.9643 23.7271 15.9694 23.5683H15.9643ZM19.1815 12.4513C19.4632 12.2515 19.7501 12.1541 20.0421 12.1541C20.3341 12.1541 20.6261 12.2566 20.9079 12.4564C21.2563 12.7074 21.5534 13.0353 21.8403 13.4913C22.578 14.6593 22.9827 15.9708 23.285 17.0979C23.3055 17.1747 23.372 17.4155 23.2286 17.6051C23.1005 17.769 22.8956 17.7895 22.7522 17.7895C22.3423 17.7895 21.9427 17.7895 21.5483 17.7895H18.5872C18.1825 17.7895 17.7829 17.7895 17.3782 17.7895H17.3628C17.2552 17.7895 16.9991 17.7895 16.8557 17.6051C16.7122 17.4206 16.7788 17.1747 16.7993 17.0928C17.1169 15.8991 17.5165 14.6388 18.244 13.4861C18.536 13.0302 18.8331 12.7023 19.1815 12.4564V12.4513ZM12.4755 14.7003C13.9202 13.6142 15.5032 12.8816 17.3218 12.4564L17.9264 12.3181L17.5985 12.8406C16.8147 14.0958 16.2768 15.4688 15.8464 17.2977C15.7747 17.6051 15.5442 17.7844 15.2214 17.7844C14.8833 17.7844 14.5503 17.7844 14.2225 17.7844C13.8946 17.7844 13.5872 17.7844 13.2645 17.7844C13.0288 17.7844 12.6548 17.7024 12.6446 17.1594C12.6343 16.6573 12.5319 16.1296 12.3014 15.4483C12.245 15.2741 12.1323 14.9513 12.4755 14.6952V14.7003ZM12.4653 19.2598C12.5575 18.8397 12.7983 18.6348 13.203 18.6348H13.2491C13.495 18.6451 13.746 18.6502 13.997 18.6502C14.2737 18.6502 14.5452 18.6502 14.8218 18.6399H14.8475C15.0729 18.6399 15.2368 18.7014 15.3444 18.8295C15.452 18.9576 15.4878 19.1266 15.452 19.352C15.2163 20.8275 15.0831 22.2824 15.0626 23.6759C15.0626 23.9628 14.9448 24.3009 14.4223 24.3009C14.12 24.3009 13.8382 24.3009 13.5565 24.3009H11.2716C10.9899 24.3009 10.7132 24.3009 10.4315 24.3009H10.411C10.3136 24.3009 10.0575 24.3009 9.94992 24.096C9.84233 23.8911 9.9909 23.6708 10.0524 23.5734C10.2932 23.22 10.5288 22.8613 10.7696 22.5027C11.0206 22.1287 11.2665 21.7496 11.5227 21.3756C12.0042 20.6687 12.3167 19.9771 12.4755 19.2547L12.4653 19.2598ZM6.35873 26.8573C6.06672 26.8573 5.80033 26.6729 5.54418 26.2887C5.06262 25.5663 4.58106 24.844 4.09951 24.1267C3.37205 23.0304 2.63946 21.9392 1.90688 20.8429C1.26139 19.8797 0.94889 18.809 0.923275 17.4719C0.923275 14.5466 3.34131 12.1541 6.3075 12.1439H6.33311C9.52471 12.1439 11.497 14.6183 11.7327 16.9493C11.8813 18.4196 11.5585 19.7209 10.744 20.9351C9.99602 22.0468 9.2532 23.1636 8.51037 24.2753C8.06467 24.9413 7.61897 25.6124 7.17328 26.2784C6.91201 26.6729 6.64049 26.8625 6.34848 26.8625L6.35873 26.8573ZM10.037 32.1904C8.91508 30.8072 8.17225 29.2549 7.77778 27.4362C7.72656 27.2108 7.76754 26.9957 7.89561 26.8112C7.90586 26.7959 7.9161 26.7805 7.92635 26.76C7.94684 26.7293 7.96733 26.6934 7.98783 26.6627C8.09028 26.5243 8.17225 26.3706 8.26446 26.2067C8.46426 25.8481 8.66918 25.4741 9.04828 25.2641C9.25319 25.1462 9.49397 25.095 9.80135 25.095C9.96529 25.095 10.1343 25.1104 10.2983 25.1257C10.4571 25.1411 10.6057 25.1513 10.7491 25.1513C11.0923 25.1513 11.41 25.1513 11.7327 25.1513H13.0749C13.4899 25.1513 13.8997 25.1513 14.3147 25.1411H14.3454C14.5042 25.1411 14.7296 25.1616 14.8936 25.3255C15.0575 25.4895 15.078 25.7303 15.078 25.8942C15.078 26.3706 15.1087 26.8625 15.1446 27.3389L15.1548 27.5028C15.1702 27.7334 15.1241 27.9076 15.0063 28.0305C14.8936 28.1535 14.7245 28.2149 14.4991 28.2149C14.1405 28.2098 13.8075 28.2047 13.4745 28.2047C13.1261 28.2047 12.7778 28.2047 12.4294 28.2047H12.2809C11.205 28.2149 10.5032 28.9168 10.4981 30.0029C10.4981 30.4691 10.4981 30.9353 10.4981 31.4015V32.7489L10.0421 32.1904H10.037ZM10.9438 35.5768C11.6815 35.5768 11.7942 35.6946 11.7942 36.4528C11.7942 37.211 11.6764 37.3289 10.9438 37.3289H10.9079C10.5544 37.3289 10.3393 37.3289 10.1856 37.1701C10.037 37.0164 10.037 36.8114 10.037 36.4323C10.037 35.751 10.119 35.5768 10.872 35.5768H10.9438ZM7.43967 36.6629C7.43967 35.9508 7.82901 35.5768 8.54623 35.5768C8.76651 35.5768 8.9202 35.6331 9.03291 35.7458C9.14561 35.8586 9.19684 36.0174 9.19172 36.2325C9.19172 36.5194 9.19172 36.8063 9.19172 37.0983C9.19172 37.4211 9.19172 37.7438 9.19172 38.0666C9.19172 38.1434 9.20197 38.1742 9.20197 38.1844C9.20709 38.1844 9.23783 38.1895 9.2993 38.1895C9.84746 38.1895 10.3956 38.1793 10.9386 38.1793C11.4817 38.1793 11.994 38.1793 12.5268 38.1895V38.3176H12.537V38.1895C12.6139 38.1895 12.6446 38.1793 12.6497 38.1742C12.6497 38.1742 12.66 38.1383 12.66 38.0359C12.6446 37.4416 12.6446 36.919 12.66 36.4375C12.66 36.4016 12.66 36.3606 12.6497 36.3196C12.6292 36.1352 12.5831 35.71 13.0954 35.5973C13.1723 35.5819 13.2542 35.5717 13.3362 35.5717C13.7511 35.5717 14.1354 35.792 14.2942 36.1147C14.371 36.2735 14.4069 36.4528 14.4069 36.6578C14.4069 37.0676 14.4069 37.4723 14.4069 37.8822C14.4069 38.6404 14.4069 39.3986 14.4069 40.1568C14.4069 40.8792 14.038 41.2378 13.2952 41.2429C12.9827 41.2429 12.6702 41.2429 12.3526 41.2429H9.50934C9.19684 41.2429 8.88434 41.2429 8.57184 41.2429C7.80852 41.2378 7.44992 40.8843 7.44479 40.1261C7.43967 38.8453 7.43967 37.7131 7.44479 36.668L7.43967 36.6629ZM12.9007 50.3517H12.8393C11.3024 50.3107 10.0524 49.0453 10.0524 47.5289C10.0524 46.8014 10.3598 46.0791 10.8925 45.5411C11.4253 45.0083 12.1425 44.701 12.8649 44.701C13.6231 44.7061 14.3505 45.0237 14.8833 45.5668C15.4161 46.1149 15.703 46.8168 15.6927 47.5443C15.6723 49.0658 14.3915 50.3466 12.9007 50.3466V50.3517ZM24.8218 46.9551C24.8218 47.616 24.6938 47.7492 24.0534 47.7492H20.7132C19.5759 47.7492 18.4386 47.7492 17.3014 47.7543C16.8198 47.7543 16.5944 47.5545 16.538 47.0781C16.3229 45.203 14.7706 43.8403 12.8444 43.8403C10.9745 43.8454 9.41713 45.244 9.21221 47.0883C9.18147 47.3752 9.07389 47.7543 8.52574 47.7543H8.47451C8.21323 47.7441 7.95709 47.7389 7.69582 47.7389C7.40381 47.7389 7.1118 47.7389 6.81979 47.7492H6.79418C6.71221 47.7492 6.47143 47.7492 6.30237 47.5801C6.18967 47.4674 6.13844 47.3086 6.13844 47.0934C6.14869 45.3413 6.14869 43.9991 6.13844 42.744C6.13844 42.5288 6.18967 42.3648 6.30237 42.2521C6.47143 42.078 6.72758 42.078 6.88127 42.078C8.495 42.078 10.0985 42.078 11.7071 42.078H24.0227C24.7143 42.078 24.8321 42.1958 24.8372 42.872C24.8372 44.2296 24.8372 45.5872 24.8372 46.9397L24.8218 46.9551ZM24.2481 41.2378C24.038 41.2531 23.8843 41.2634 23.7614 41.2634C23.5872 41.2634 23.3925 41.2429 23.2542 41.1046C23.0749 40.9253 23.0749 40.6691 23.0749 40.1568C23.0749 39.998 23.0749 39.8392 23.0749 39.6855C23.0749 39.2961 23.08 38.8914 23.0647 38.4969C23.0493 38.0666 23.2389 37.8104 23.6538 37.6926L23.6897 37.6824C23.9971 37.5953 24.1815 37.544 24.3352 37.544C24.8218 37.544 24.8218 37.9846 24.8218 38.5379V39.7316C24.8218 40.0287 24.8218 40.3259 24.8218 40.623C24.8218 40.9919 24.6221 41.207 24.2481 41.2326V41.2378ZM24.8475 35.8842C24.7655 36.335 23.9509 36.791 23.5411 36.791C23.4745 36.791 23.4182 36.7807 23.3618 36.7653C23.2593 36.7295 23.1774 36.6424 23.121 36.5143C23.0083 36.253 22.9776 35.7612 23.1108 35.4743C23.4284 34.7878 23.6999 34.0706 23.9151 33.3431C24.4786 31.4527 24.8116 29.4598 24.9448 27.2467C24.9499 27.1237 24.9602 27.0008 24.9704 26.8829C24.9909 26.5397 25.0165 26.1862 25.0165 25.843C25.0165 25.387 25.2471 25.1565 25.6876 25.1565C26.0565 25.1616 26.4048 25.1667 26.7532 25.1667H29.5042C29.8475 25.1667 30.1958 25.1667 30.5391 25.1565H30.5647C30.9387 25.1565 31.205 25.3102 31.3946 25.6278C31.5637 25.9198 31.7122 26.1555 31.8915 26.3655C32.286 26.8317 32.3782 27.3338 32.1835 27.9998C31.83 29.2037 31.3382 30.3308 30.6825 31.4373C30.3956 31.924 30.0319 32.1392 29.5093 32.1392C29.4786 32.1392 29.4427 32.1392 29.4069 32.1392C29.3198 32.1392 29.2327 32.1341 29.1456 32.1341C27.6036 32.1341 26.369 32.8206 25.4776 34.1731C25.1805 34.6239 24.9807 35.1721 24.8526 35.8944L24.8475 35.8842ZM33.1005 49.5064C32.5677 50.0443 31.8454 50.3517 31.1231 50.3517H31.1077C30.37 50.3517 29.6425 50.0289 29.1046 49.4808C28.577 48.9429 28.2798 48.2205 28.2952 47.5084C28.3208 45.992 29.5964 44.7061 31.0872 44.7061H31.1487C32.6805 44.7419 33.9305 46.0073 33.9356 47.5238C33.9356 48.2461 33.6333 48.9685 33.0954 49.5064H33.1005ZM39.1559 45.9305C39.1559 47.1344 38.536 47.7492 37.3218 47.7543H36.1538C35.9182 47.7543 35.6876 47.7543 35.452 47.7543C35.0473 47.7543 34.8321 47.5596 34.786 47.1549C34.5503 45.203 33.0237 43.8403 31.077 43.8403C29.1815 43.8454 27.66 45.2338 27.4397 47.1344C27.3936 47.5494 27.1733 47.7441 26.7532 47.7492C26.6456 47.7492 26.5739 47.7492 26.5124 47.7492C26.2512 47.7492 25.954 47.7492 25.7901 47.5033C25.6774 47.3291 25.6774 47.0986 25.6774 46.6785V43.9632C25.6774 41.5452 25.6774 39.1271 25.6774 36.709C25.6774 35.669 25.9643 34.8391 26.5534 34.1679C27.2501 33.379 28.1774 32.9691 29.3096 32.964C30.1651 32.9589 31.0257 32.9538 31.8813 32.9538C32.6651 32.9538 33.454 32.9538 34.2378 32.964C35.5544 32.9794 36.6303 33.379 37.5319 34.1936L37.7983 34.4343L37.4807 34.6085C37.3065 34.7007 37.1579 34.711 37.0555 34.711C37.0196 34.711 36.9786 34.711 36.9427 34.711C36.9171 34.711 36.8915 34.711 36.8659 34.711C35.5032 34.711 34.1456 34.711 32.7829 34.711C31.62 34.711 30.4571 34.711 29.2942 34.711C28.1057 34.711 27.4243 35.3924 27.4243 36.5809C27.4243 37.8822 27.4243 39.1834 27.4243 40.4847C27.4243 40.5871 27.4243 40.6999 27.4294 40.7665C27.4909 40.7716 27.6036 40.7716 27.7061 40.7716H38.285C39.0329 40.7716 39.1456 40.8843 39.1456 41.6374V42.621C39.1456 43.7173 39.1456 44.8137 39.1456 45.91L39.1559 45.9305ZM39.1559 38.8658C39.1559 39.04 39.1559 39.2193 39.1559 39.3935C39.1559 39.6855 38.9971 39.8136 38.9048 39.8597C38.7819 39.9263 38.6436 39.9314 38.5257 39.9314H31.205C30.493 39.9314 29.7757 39.9314 29.0637 39.9416C28.8536 39.9416 28.618 39.9211 28.454 39.7521C28.2901 39.583 28.2747 39.3422 28.2798 39.1732C28.2952 38.6609 28.2952 38.1332 28.2901 37.626C28.2901 37.3135 28.2901 37.0061 28.2901 36.6936C28.2952 35.9303 28.6538 35.5768 29.412 35.5768C30.3546 35.5768 31.2921 35.5768 32.2348 35.5768H33.0237C34.6938 35.5768 36.3639 35.5768 38.0339 35.5717C38.4643 35.5717 38.7204 35.7561 38.8639 36.1711C39.1764 37.0676 39.1661 37.9846 39.1559 38.8709V38.8658Z" fill="#5A5A5A"/>
<path d="M6.3762 13.8815C4.29628 13.8815 2.66718 15.4901 2.66718 17.5445C2.66718 19.6142 4.26555 21.2433 6.3096 21.2485C8.39977 21.2485 10.0289 19.6398 10.034 17.5855C10.034 15.5158 8.43563 13.8917 6.39157 13.8815V13.7534H6.38133V13.8815H6.3762ZM9.17334 17.5599C9.17334 18.2822 8.87108 19.0097 8.33317 19.5425C7.80038 20.0753 7.07805 20.3827 6.36083 20.3827H6.34034C5.60264 20.3775 4.87518 20.0599 4.33727 19.5117C3.8096 18.9738 3.5176 18.2515 3.52784 17.5394C3.55346 16.0229 4.83419 14.7371 6.31985 14.7371H6.38645C7.91821 14.778 9.16821 16.0434 9.17334 17.5599Z" fill="#5A5A5A"/>
<path d="M33.7282 13.8809C31.6636 13.8809 30.0397 15.4844 30.0345 17.5336C30.0345 18.548 30.4136 19.4855 31.1052 20.1822C31.7917 20.8687 32.7139 21.2478 33.7026 21.2478C35.7723 21.2478 37.3911 19.6443 37.3962 17.5951C37.3962 16.5807 37.0171 15.6432 36.3255 14.9465C35.6391 14.26 34.7169 13.8809 33.7282 13.8809ZM33.7436 20.3871H33.6872C32.1555 20.3513 30.9003 19.0859 30.8952 17.5695C30.8952 16.842 31.1975 16.1196 31.7302 15.5817C32.263 15.0438 32.9854 14.7415 33.7128 14.7415C34.4608 14.7415 35.1882 15.0592 35.7262 15.6022C36.2538 16.1401 36.5509 16.8625 36.5407 17.5797C36.5202 19.1013 35.2395 20.3871 33.7436 20.3871Z" fill="#5A5A5A"/>
<path d="M40.0114 46.2635C40.0165 43.5688 40.0268 40.5154 40.0114 37.5133C39.996 34.67 37.4755 32.1495 34.6169 32.1238C34.2122 32.1238 33.8075 32.1187 33.4028 32.1187C32.9981 32.1187 32.6139 32.1187 32.2194 32.1238H32.1887C32.0606 32.1238 31.7891 32.1238 31.6712 31.9138C31.5637 31.7242 31.6559 31.5142 31.7481 31.3554C32.2911 30.4179 32.7163 29.3932 33.0134 28.3072C33.1108 27.9434 33.3413 27.759 33.6948 27.759H33.7768C34.3505 27.759 34.8014 27.4926 35.1702 26.9444C35.5083 26.4372 35.8516 25.9301 36.1897 25.4229C37.1118 24.0499 38.0647 22.6308 38.9817 21.222C40.16 19.4186 40.3751 17.1491 39.5503 15.146C38.746 13.1941 37.0606 11.816 34.9294 11.3652C34.8628 11.3498 34.7962 11.3344 34.7296 11.3191L34.6733 11.3037H32.7778C31.3895 11.5855 30.2778 12.1388 29.3864 12.9994C29.2481 13.1326 29.1354 13.2505 29.0329 13.3632C28.7204 13.7115 28.5514 13.9011 28.2798 13.9011C28.0647 13.9011 27.87 13.773 27.5268 13.5425C25.7235 12.3386 23.7307 11.6008 21.6046 11.3447C21.5483 11.3396 21.4868 11.3242 21.4305 11.3037H21.4048L18.6897 11.2986C17.2706 11.4984 16.0667 11.8109 15.0063 12.2463C14.0227 12.6511 13.0852 13.1736 12.2245 13.7884L12.1886 13.814C12.0862 13.8857 11.9632 13.9779 11.7993 13.9779C11.6456 13.9779 11.5124 13.9011 11.3946 13.7474C10.4007 12.441 9.06877 11.6367 7.32697 11.2935H5.42123C3.95606 11.5906 2.78803 12.2002 1.84541 13.1685C-0.147422 15.2177 -0.541889 18.5426 0.933521 20.9095C1.92225 22.4925 2.98783 24.0653 4.01754 25.5868C4.34541 26.0735 4.67328 26.5551 5.00114 27.0418C5.31877 27.5182 5.75934 27.759 6.31262 27.759H6.40483C6.75319 27.759 6.98373 27.9434 7.08106 28.302C7.6702 30.4486 8.74602 32.3595 10.2829 33.9835C10.2932 33.9938 10.3034 33.9989 10.3136 34.0091C10.3751 34.0655 10.5698 34.2345 10.4725 34.4856C10.4417 34.5573 10.3444 34.7315 10.0934 34.7315C10.0626 34.7315 10.0268 34.7315 9.9909 34.7264C9.97553 34.7264 9.96016 34.7264 9.94992 34.7264C9.78086 34.7264 9.6118 34.7264 9.44274 34.7264H8.88434C8.69479 34.7264 8.50524 34.7264 8.31569 34.7264C7.32697 34.7366 6.60463 35.4538 6.59951 36.4272C6.58926 37.9436 6.59951 39.3269 6.61487 40.6537C6.61487 40.7869 6.60463 40.9714 6.47143 41.1046C6.38434 41.1917 6.26139 41.2378 6.1077 41.2378C6.07697 41.2378 6.05135 41.2378 6.01549 41.2378C5.70299 41.248 5.38537 41.2531 5.33926 41.3044C5.29315 41.3505 5.29315 41.663 5.29315 41.9601V48.1898C5.29315 48.3537 5.29315 48.5228 5.30852 48.5894C5.38024 48.6047 5.55955 48.6047 5.73373 48.6047H6.53291C6.81467 48.6047 7.10156 48.6047 7.38332 48.6047C7.82389 48.6047 8.25934 48.6047 8.69992 48.5945H8.72553C9.12512 48.5945 9.37615 48.7482 9.56057 49.1119C10.2778 50.4952 11.3946 51.2021 12.8854 51.2021C14.3761 51.2021 15.4929 50.5003 16.2102 49.1119C16.3946 48.7533 16.6405 48.5996 17.0247 48.5996C18.6794 48.5996 20.329 48.6047 21.9786 48.6047C23.6282 48.6047 25.2983 48.6047 26.9581 48.5945C27.4602 48.5945 27.6651 48.866 27.8034 49.1273C28.5206 50.5003 29.6374 51.197 31.118 51.197C32.619 51.1919 33.7307 50.49 34.4325 49.1222C34.6272 48.7482 34.8833 48.5894 35.288 48.5894H35.329C35.6825 48.5996 36.0411 48.5996 36.3946 48.5996C36.7481 48.5996 37.1016 48.5996 37.4499 48.5945H37.6395C38.9663 48.5842 40.0063 47.5545 40.0063 46.2481L40.0114 46.2635ZM33.6743 12.1439H33.705C36.8915 12.1439 38.8639 14.6183 39.1046 16.9493C39.2532 18.4196 38.9305 19.7209 38.1159 20.9351C37.3731 22.0416 36.6303 23.1534 35.8925 24.2651C35.4469 24.9362 34.996 25.6124 34.5503 26.2835C34.2891 26.678 34.0175 26.8676 33.7255 26.8676C33.4335 26.8676 33.1723 26.6831 32.9161 26.2989C32.4346 25.5766 31.953 24.8593 31.4766 24.137C30.7491 23.0406 30.0165 21.9443 29.2839 20.8531C28.6384 19.89 28.3259 18.8141 28.2952 17.4719C28.2952 14.5517 30.7132 12.1644 33.6794 12.149L33.6743 12.1439ZM29.0739 22.139C29.4171 22.641 29.7501 23.1482 30.0012 23.5325C30.0114 23.5478 30.0216 23.5632 30.037 23.5734C30.1036 23.6554 30.288 23.8655 30.1292 24.1216C30.0729 24.2087 29.9653 24.3163 29.7552 24.3163C29.7143 24.3163 29.6733 24.3163 29.6323 24.306C29.6118 24.306 29.5913 24.3009 29.5708 24.3009C29.2583 24.3009 28.9509 24.3009 28.6384 24.3009H27.0964C26.9018 24.3009 26.7071 24.3009 26.5124 24.3009C26.246 24.3009 25.9796 24.3009 25.7081 24.3112H25.6774C25.2419 24.3112 25.0216 24.0806 25.0114 23.6298C24.9909 22.2312 24.8628 20.8172 24.6323 19.4289C24.6067 19.2598 24.5862 19.019 24.7399 18.8397C24.8526 18.7065 25.0216 18.6451 25.2624 18.6451H25.3188C25.5442 18.6553 25.7696 18.6553 26.0001 18.6553C26.2307 18.6553 26.4407 18.6553 26.661 18.6502H26.8966C27.3884 18.6502 27.537 18.9115 27.5831 19.1317C27.7983 20.223 28.3874 21.14 29.079 22.1441L29.0739 22.139ZM22.7624 12.4666C24.1507 12.7638 25.4315 13.2863 26.6764 14.0599C26.7481 14.106 26.8249 14.147 26.9018 14.1931C27.2091 14.3724 27.5268 14.5568 27.7266 14.8489C27.9622 15.1921 27.8085 15.5507 27.6958 15.812C27.6395 15.9401 27.5882 16.0579 27.578 16.1655C27.5626 16.2936 27.537 16.4268 27.5165 16.5548C27.4807 16.7546 27.4448 16.9493 27.4499 17.1338C27.4499 17.3438 27.4038 17.5026 27.2911 17.6204C27.1784 17.7332 27.0247 17.7895 26.8198 17.7895C26.4919 17.7895 26.1794 17.7844 25.8721 17.7844C25.5647 17.7844 25.2522 17.7844 24.9397 17.7946H24.9192C24.5503 17.7946 24.3147 17.6102 24.2327 17.2413C23.8075 15.4431 23.2747 14.0907 22.5012 12.856L22.1784 12.3437L22.7727 12.4718L22.7624 12.4666ZM13.1108 31.6679C13.121 31.6679 13.1466 31.673 13.1979 31.673C13.746 31.673 14.2891 31.6679 14.8321 31.6679C15.3751 31.6679 15.9182 31.6679 16.4612 31.673C16.5227 31.673 16.5483 31.6679 16.5585 31.6628C16.5585 31.6576 16.5585 31.632 16.5585 31.5757C16.5483 30.9353 16.5483 30.3974 16.5585 29.8953C16.5585 29.8594 16.5585 29.8236 16.5534 29.7877C16.538 29.6135 16.497 29.2037 16.9786 29.0807C17.0606 29.0602 17.1477 29.05 17.2348 29.05C17.6395 29.05 18.0339 29.2652 18.1876 29.5777C18.2952 29.7928 18.3055 30.0183 18.3055 30.1668C18.3055 30.5869 18.3055 31.0121 18.3055 31.4322C18.3055 32.1648 18.3055 32.8923 18.3055 33.6249C18.3055 34.3575 17.9417 34.7161 17.2091 34.7264C16.8864 34.7264 16.5688 34.7264 16.246 34.7264H13.3925C13.0749 34.7264 12.7624 34.7264 12.4448 34.7264C11.7122 34.7212 11.3536 34.3575 11.3485 33.6249C11.3485 32.795 11.3485 31.9701 11.3485 31.1402V30.1668C11.3485 29.9619 11.3485 29.3369 12.0145 29.1268C12.1938 29.0705 12.3372 29.0398 12.4653 29.0398C12.8854 29.0398 13.1005 29.3318 13.1005 29.9056V30.3615C13.1005 30.7662 13.1057 31.171 13.1005 31.5808C13.1005 31.6371 13.1057 31.6628 13.1108 31.673V31.6679ZM13.9561 29.9107C13.9561 29.1781 14.0739 29.0654 14.8321 29.0654C15.2009 29.0654 15.4059 29.0654 15.5595 29.2191C15.7081 29.3728 15.7081 29.5777 15.7081 29.9517C15.7081 30.6535 15.6313 30.8175 14.868 30.8175H14.8116C14.4632 30.8175 14.2481 30.8175 14.0995 30.6535C13.9561 30.4998 13.9561 30.2898 13.9561 29.9107ZM18.6948 35.5819H18.787C19.12 35.5819 19.3403 35.5819 19.4889 35.7612C19.6221 35.92 19.622 36.1198 19.6169 36.5194C19.6169 37.2162 19.4889 37.334 18.787 37.334H18.7102C18.3618 37.334 18.1518 37.334 18.0032 37.1649C17.8649 37.0112 17.8649 36.8114 17.8649 36.417C17.8649 35.751 17.9468 35.5819 18.6948 35.5819ZM15.2573 36.6936C15.2573 36.4016 15.2932 36.0737 15.5749 35.8329C15.7747 35.6588 16.0206 35.5665 16.287 35.5665C16.4151 35.5665 16.5432 35.587 16.6661 35.628C17.0657 35.7612 17.0247 36.1557 17.0093 36.3196C17.0093 36.3606 16.9991 36.4016 16.9991 36.4375C17.0145 36.9805 17.0145 37.5184 16.9991 38.0359C16.9991 38.1383 17.0093 38.1691 17.0145 38.1793C17.0145 38.1793 17.0503 38.1895 17.122 38.1895C17.6651 38.1844 18.1979 38.1793 18.7307 38.1793C19.2634 38.1793 19.8116 38.1793 20.3495 38.1895C20.4212 38.1895 20.452 38.1793 20.4571 38.1793C20.4571 38.1793 20.4673 38.1434 20.4622 38.0615C20.452 37.4365 20.452 36.9139 20.4622 36.4221C20.4622 36.3862 20.4622 36.3452 20.4571 36.3094C20.4417 36.1403 20.3956 35.6895 20.9233 35.5922C20.995 35.5768 21.0718 35.5717 21.1436 35.5717C21.5739 35.5717 21.953 35.792 22.1067 36.1301C22.1784 36.2838 22.2091 36.458 22.2091 36.6731C22.2091 37.0727 22.2091 37.4723 22.2091 37.8668C22.2091 38.6353 22.2091 39.4037 22.2091 40.1722C22.204 40.874 21.8403 41.2326 21.1231 41.2429C20.8003 41.2429 20.4827 41.2429 20.16 41.2429H17.3014C17.0042 41.2429 16.702 41.2429 16.4048 41.2429C15.6108 41.2429 15.2573 40.8894 15.2522 40.1107C15.2522 39.3883 15.2522 38.6711 15.2522 37.9488V36.6936H15.2573ZM22.1169 34.8493C22.0657 34.8493 22.0145 34.8391 21.9581 34.8237C21.6866 34.7469 21.3843 34.711 20.9899 34.711C20.8208 34.711 20.6518 34.7161 20.4827 34.7212C20.3085 34.7264 20.1343 34.7315 19.9602 34.7315C19.9089 34.7315 19.8526 34.7315 19.8014 34.7315C19.6118 34.7315 19.412 34.7007 19.2788 34.5573C19.1456 34.4087 19.1405 34.2038 19.1507 34.045C19.1917 33.5173 19.1764 32.9743 19.1661 32.4466V32.3595C19.161 32.2109 19.1764 31.9906 19.33 31.8318C19.4427 31.7191 19.6016 31.6628 19.8116 31.6628H19.8526C20.0473 31.6679 20.2419 31.673 20.4366 31.673C20.58 31.673 20.7286 31.673 20.8721 31.673C21.0206 31.673 21.1641 31.673 21.3126 31.673H22.1477C22.3423 31.673 22.537 31.673 22.7266 31.673H22.7522C22.8444 31.673 23.0852 31.673 23.2235 31.8523C23.3618 32.0367 23.3003 32.2673 23.2798 32.3441C23.0544 33.1894 22.8341 33.8606 22.5882 34.46C22.5421 34.5778 22.4294 34.8493 22.1118 34.8493H22.1169ZM22.9673 30.8277H22.9264C22.4704 30.8123 21.9991 30.8072 21.4817 30.8072C20.9643 30.8072 20.4468 30.8123 19.9243 30.8226H19.8884C19.3915 30.8226 19.161 30.5869 19.161 30.0849C19.161 28.8604 18.5001 28.2149 17.2552 28.2149C16.2511 28.2149 16.1384 28.1125 16.0309 27.1289C16.0001 26.8676 16.0001 26.6114 15.995 26.3604C15.995 26.1913 15.9899 26.0274 15.9796 25.8583C15.9643 25.6329 16.0155 25.4587 16.1282 25.3358C16.246 25.2128 16.4151 25.1513 16.6507 25.1513C17.1733 25.1513 17.6804 25.1565 18.1876 25.1565H21.9069C22.3987 25.1565 22.8905 25.1565 23.3772 25.1462H23.4028C23.5616 25.1462 23.7921 25.1667 23.9561 25.3307C24.12 25.4997 24.1354 25.7354 24.1354 25.8993C24.1149 27.1237 24.0022 28.4147 23.7665 30.1002C23.7255 30.4127 23.5923 30.8226 22.9725 30.8226L22.9673 30.8277ZM15.9643 23.5683C15.9848 22.0109 16.1692 20.4842 16.3331 19.3315C16.3997 18.8551 16.6507 18.6297 17.1272 18.6297C18.1108 18.6399 19.079 18.6451 20.0473 18.6451C21.0155 18.6451 21.9837 18.6451 22.9468 18.6297C23.5821 18.6297 23.7102 19.0293 23.7511 19.3315C23.91 20.4842 24.0995 22.0058 24.12 23.5683C24.12 23.7271 24.1046 23.9628 23.9458 24.1267C23.787 24.2856 23.5667 24.306 23.413 24.306C22.8956 24.3009 22.4038 24.2958 21.9069 24.2958H18.1569C17.6702 24.2958 17.1784 24.2958 16.6917 24.306C16.5175 24.306 16.2973 24.2856 16.1436 24.1267C15.9796 23.9628 15.9643 23.7271 15.9694 23.5683H15.9643ZM19.1815 12.4513C19.4632 12.2515 19.7501 12.1541 20.0421 12.1541C20.3341 12.1541 20.6261 12.2566 20.9079 12.4564C21.2563 12.7074 21.5534 13.0353 21.8403 13.4913C22.578 14.6593 22.9827 15.9708 23.285 17.0979C23.3055 17.1747 23.372 17.4155 23.2286 17.6051C23.1005 17.769 22.8956 17.7895 22.7522 17.7895C22.3423 17.7895 21.9427 17.7895 21.5483 17.7895H18.5872C18.1825 17.7895 17.7829 17.7895 17.3782 17.7895H17.3628C17.2552 17.7895 16.9991 17.7895 16.8557 17.6051C16.7122 17.4206 16.7788 17.1747 16.7993 17.0928C17.1169 15.8991 17.5165 14.6388 18.244 13.4861C18.536 13.0302 18.8331 12.7023 19.1815 12.4564V12.4513ZM12.4755 14.7003C13.9202 13.6142 15.5032 12.8816 17.3218 12.4564L17.9264 12.3181L17.5985 12.8406C16.8147 14.0958 16.2768 15.4688 15.8464 17.2977C15.7747 17.6051 15.5442 17.7844 15.2214 17.7844C14.8833 17.7844 14.5503 17.7844 14.2225 17.7844C13.8946 17.7844 13.5872 17.7844 13.2645 17.7844C13.0288 17.7844 12.6548 17.7024 12.6446 17.1594C12.6343 16.6573 12.5319 16.1296 12.3014 15.4483C12.245 15.2741 12.1323 14.9513 12.4755 14.6952V14.7003ZM12.4653 19.2598C12.5575 18.8397 12.7983 18.6348 13.203 18.6348H13.2491C13.495 18.6451 13.746 18.6502 13.997 18.6502C14.2737 18.6502 14.5452 18.6502 14.8218 18.6399H14.8475C15.0729 18.6399 15.2368 18.7014 15.3444 18.8295C15.452 18.9576 15.4878 19.1266 15.452 19.352C15.2163 20.8275 15.0831 22.2824 15.0626 23.6759C15.0626 23.9628 14.9448 24.3009 14.4223 24.3009C14.12 24.3009 13.8382 24.3009 13.5565 24.3009H11.2716C10.9899 24.3009 10.7132 24.3009 10.4315 24.3009H10.411C10.3136 24.3009 10.0575 24.3009 9.94992 24.096C9.84233 23.8911 9.9909 23.6708 10.0524 23.5734C10.2932 23.22 10.5288 22.8613 10.7696 22.5027C11.0206 22.1287 11.2665 21.7496 11.5227 21.3756C12.0042 20.6687 12.3167 19.9771 12.4755 19.2547L12.4653 19.2598ZM6.35873 26.8573C6.06672 26.8573 5.80033 26.6729 5.54418 26.2887C5.06262 25.5663 4.58106 24.844 4.09951 24.1267C3.37205 23.0304 2.63946 21.9392 1.90688 20.8429C1.26139 19.8797 0.94889 18.809 0.923275 17.4719C0.923275 14.5466 3.34131 12.1541 6.3075 12.1439H6.33311C9.52471 12.1439 11.497 14.6183 11.7327 16.9493C11.8813 18.4196 11.5585 19.7209 10.744 20.9351C9.99602 22.0468 9.2532 23.1636 8.51037 24.2753C8.06467 24.9413 7.61897 25.6124 7.17328 26.2784C6.91201 26.6729 6.64049 26.8625 6.34848 26.8625L6.35873 26.8573ZM10.037 32.1904C8.91508 30.8072 8.17225 29.2549 7.77778 27.4362C7.72656 27.2108 7.76754 26.9957 7.89561 26.8112C7.90586 26.7959 7.9161 26.7805 7.92635 26.76C7.94684 26.7293 7.96733 26.6934 7.98783 26.6627C8.09028 26.5243 8.17225 26.3706 8.26446 26.2067C8.46426 25.8481 8.66918 25.4741 9.04828 25.2641C9.25319 25.1462 9.49397 25.095 9.80135 25.095C9.96529 25.095 10.1343 25.1104 10.2983 25.1257C10.4571 25.1411 10.6057 25.1513 10.7491 25.1513C11.0923 25.1513 11.41 25.1513 11.7327 25.1513H13.0749C13.4899 25.1513 13.8997 25.1513 14.3147 25.1411H14.3454C14.5042 25.1411 14.7296 25.1616 14.8936 25.3255C15.0575 25.4895 15.078 25.7303 15.078 25.8942C15.078 26.3706 15.1087 26.8625 15.1446 27.3389L15.1548 27.5028C15.1702 27.7334 15.1241 27.9076 15.0063 28.0305C14.8936 28.1535 14.7245 28.2149 14.4991 28.2149C14.1405 28.2098 13.8075 28.2047 13.4745 28.2047C13.1261 28.2047 12.7778 28.2047 12.4294 28.2047H12.2809C11.205 28.2149 10.5032 28.9168 10.4981 30.0029C10.4981 30.4691 10.4981 30.9353 10.4981 31.4015V32.7489L10.0421 32.1904H10.037ZM10.9438 35.5768C11.6815 35.5768 11.7942 35.6946 11.7942 36.4528C11.7942 37.211 11.6764 37.3289 10.9438 37.3289H10.9079C10.5544 37.3289 10.3393 37.3289 10.1856 37.1701C10.037 37.0164 10.037 36.8114 10.037 36.4323C10.037 35.751 10.119 35.5768 10.872 35.5768H10.9438ZM7.43967 36.6629C7.43967 35.9508 7.82901 35.5768 8.54623 35.5768C8.76651 35.5768 8.9202 35.6331 9.03291 35.7458C9.14561 35.8586 9.19684 36.0174 9.19172 36.2325C9.19172 36.5194 9.19172 36.8063 9.19172 37.0983C9.19172 37.4211 9.19172 37.7438 9.19172 38.0666C9.19172 38.1434 9.20197 38.1742 9.20197 38.1844C9.20709 38.1844 9.23783 38.1895 9.2993 38.1895C9.84746 38.1895 10.3956 38.1793 10.9386 38.1793C11.4817 38.1793 11.994 38.1793 12.5268 38.1895V38.3176H12.537V38.1895C12.6139 38.1895 12.6446 38.1793 12.6497 38.1742C12.6497 38.1742 12.66 38.1383 12.66 38.0359C12.6446 37.4416 12.6446 36.919 12.66 36.4375C12.66 36.4016 12.66 36.3606 12.6497 36.3196C12.6292 36.1352 12.5831 35.71 13.0954 35.5973C13.1723 35.5819 13.2542 35.5717 13.3362 35.5717C13.7511 35.5717 14.1354 35.792 14.2942 36.1147C14.371 36.2735 14.4069 36.4528 14.4069 36.6578C14.4069 37.0676 14.4069 37.4723 14.4069 37.8822C14.4069 38.6404 14.4069 39.3986 14.4069 40.1568C14.4069 40.8792 14.038 41.2378 13.2952 41.2429C12.9827 41.2429 12.6702 41.2429 12.3526 41.2429H9.50934C9.19684 41.2429 8.88434 41.2429 8.57184 41.2429C7.80852 41.2378 7.44992 40.8843 7.44479 40.1261C7.43967 38.8453 7.43967 37.7131 7.44479 36.668L7.43967 36.6629ZM12.9007 50.3517H12.8393C11.3024 50.3107 10.0524 49.0453 10.0524 47.5289C10.0524 46.8014 10.3598 46.0791 10.8925 45.5411C11.4253 45.0083 12.1425 44.701 12.8649 44.701C13.6231 44.7061 14.3505 45.0237 14.8833 45.5668C15.4161 46.1149 15.703 46.8168 15.6927 47.5443C15.6723 49.0658 14.3915 50.3466 12.9007 50.3466V50.3517ZM24.8218 46.9551C24.8218 47.616 24.6938 47.7492 24.0534 47.7492H20.7132C19.5759 47.7492 18.4386 47.7492 17.3014 47.7543C16.8198 47.7543 16.5944 47.5545 16.538 47.0781C16.3229 45.203 14.7706 43.8403 12.8444 43.8403C10.9745 43.8454 9.41713 45.244 9.21221 47.0883C9.18147 47.3752 9.07389 47.7543 8.52574 47.7543H8.47451C8.21323 47.7441 7.95709 47.7389 7.69582 47.7389C7.40381 47.7389 7.1118 47.7389 6.81979 47.7492H6.79418C6.71221 47.7492 6.47143 47.7492 6.30237 47.5801C6.18967 47.4674 6.13844 47.3086 6.13844 47.0934C6.14869 45.3413 6.14869 43.9991 6.13844 42.744C6.13844 42.5288 6.18967 42.3648 6.30237 42.2521C6.47143 42.078 6.72758 42.078 6.88127 42.078C8.495 42.078 10.0985 42.078 11.7071 42.078H24.0227C24.7143 42.078 24.8321 42.1958 24.8372 42.872C24.8372 44.2296 24.8372 45.5872 24.8372 46.9397L24.8218 46.9551ZM24.2481 41.2378C24.038 41.2531 23.8843 41.2634 23.7614 41.2634C23.5872 41.2634 23.3925 41.2429 23.2542 41.1046C23.0749 40.9253 23.0749 40.6691 23.0749 40.1568C23.0749 39.998 23.0749 39.8392 23.0749 39.6855C23.0749 39.2961 23.08 38.8914 23.0647 38.4969C23.0493 38.0666 23.2389 37.8104 23.6538 37.6926L23.6897 37.6824C23.9971 37.5953 24.1815 37.544 24.3352 37.544C24.8218 37.544 24.8218 37.9846 24.8218 38.5379V39.7316C24.8218 40.0287 24.8218 40.3259 24.8218 40.623C24.8218 40.9919 24.6221 41.207 24.2481 41.2326V41.2378ZM24.8475 35.8842C24.7655 36.335 23.9509 36.791 23.5411 36.791C23.4745 36.791 23.4182 36.7807 23.3618 36.7653C23.2593 36.7295 23.1774 36.6424 23.121 36.5143C23.0083 36.253 22.9776 35.7612 23.1108 35.4743C23.4284 34.7878 23.6999 34.0706 23.9151 33.3431C24.4786 31.4527 24.8116 29.4598 24.9448 27.2467C24.9499 27.1237 24.9602 27.0008 24.9704 26.8829C24.9909 26.5397 25.0165 26.1862 25.0165 25.843C25.0165 25.387 25.2471 25.1565 25.6876 25.1565C26.0565 25.1616 26.4048 25.1667 26.7532 25.1667H29.5042C29.8475 25.1667 30.1958 25.1667 30.5391 25.1565H30.5647C30.9387 25.1565 31.205 25.3102 31.3946 25.6278C31.5637 25.9198 31.7122 26.1555 31.8915 26.3655C32.286 26.8317 32.3782 27.3338 32.1835 27.9998C31.83 29.2037 31.3382 30.3308 30.6825 31.4373C30.3956 31.924 30.0319 32.1392 29.5093 32.1392C29.4786 32.1392 29.4427 32.1392 29.4069 32.1392C29.3198 32.1392 29.2327 32.1341 29.1456 32.1341C27.6036 32.1341 26.369 32.8206 25.4776 34.1731C25.1805 34.6239 24.9807 35.1721 24.8526 35.8944L24.8475 35.8842ZM33.1005 49.5064C32.5677 50.0443 31.8454 50.3517 31.1231 50.3517H31.1077C30.37 50.3517 29.6425 50.0289 29.1046 49.4808C28.577 48.9429 28.2798 48.2205 28.2952 47.5084C28.3208 45.992 29.5964 44.7061 31.0872 44.7061H31.1487C32.6805 44.7419 33.9305 46.0073 33.9356 47.5238C33.9356 48.2461 33.6333 48.9685 33.0954 49.5064H33.1005ZM39.1559 45.9305C39.1559 47.1344 38.536 47.7492 37.3218 47.7543H36.1538C35.9182 47.7543 35.6876 47.7543 35.452 47.7543C35.0473 47.7543 34.8321 47.5596 34.786 47.1549C34.5503 45.203 33.0237 43.8403 31.077 43.8403C29.1815 43.8454 27.66 45.2338 27.4397 47.1344C27.3936 47.5494 27.1733 47.7441 26.7532 47.7492C26.6456 47.7492 26.5739 47.7492 26.5124 47.7492C26.2512 47.7492 25.954 47.7492 25.7901 47.5033C25.6774 47.3291 25.6774 47.0986 25.6774 46.6785V43.9632C25.6774 41.5452 25.6774 39.1271 25.6774 36.709C25.6774 35.669 25.9643 34.8391 26.5534 34.1679C27.2501 33.379 28.1774 32.9691 29.3096 32.964C30.1651 32.9589 31.0257 32.9538 31.8813 32.9538C32.6651 32.9538 33.454 32.9538 34.2378 32.964C35.5544 32.9794 36.6303 33.379 37.5319 34.1936L37.7983 34.4343L37.4807 34.6085C37.3065 34.7007 37.1579 34.711 37.0555 34.711C37.0196 34.711 36.9786 34.711 36.9427 34.711C36.9171 34.711 36.8915 34.711 36.8659 34.711C35.5032 34.711 34.1456 34.711 32.7829 34.711C31.62 34.711 30.4571 34.711 29.2942 34.711C28.1057 34.711 27.4243 35.3924 27.4243 36.5809C27.4243 37.8822 27.4243 39.1834 27.4243 40.4847C27.4243 40.5871 27.4243 40.6999 27.4294 40.7665C27.4909 40.7716 27.6036 40.7716 27.7061 40.7716H38.285C39.0329 40.7716 39.1456 40.8843 39.1456 41.6374V42.621C39.1456 43.7173 39.1456 44.8137 39.1456 45.91L39.1559 45.9305ZM39.1559 38.8658C39.1559 39.04 39.1559 39.2193 39.1559 39.3935C39.1559 39.6855 38.9971 39.8136 38.9048 39.8597C38.7819 39.9263 38.6436 39.9314 38.5257 39.9314H31.205C30.493 39.9314 29.7757 39.9314 29.0637 39.9416C28.8536 39.9416 28.618 39.9211 28.454 39.7521C28.2901 39.583 28.2747 39.3422 28.2798 39.1732C28.2952 38.6609 28.2952 38.1332 28.2901 37.626C28.2901 37.3135 28.2901 37.0061 28.2901 36.6936C28.2952 35.9303 28.6538 35.5768 29.412 35.5768C30.3546 35.5768 31.2921 35.5768 32.2348 35.5768H33.0237C34.6938 35.5768 36.3639 35.5768 38.0339 35.5717C38.4643 35.5717 38.7204 35.7561 38.8639 36.1711C39.1764 37.0676 39.1661 37.9846 39.1559 38.8709V38.8658Z" stroke="#5A5A5A" stroke-width="0.1"/>
<path d="M6.3762 13.8815C4.29628 13.8815 2.66718 15.4901 2.66718 17.5445C2.66718 19.6142 4.26555 21.2433 6.3096 21.2485C8.39977 21.2485 10.0289 19.6398 10.034 17.5855C10.034 15.5158 8.43563 13.8917 6.39157 13.8815V13.7534H6.38133V13.8815H6.3762ZM9.17334 17.5599C9.17334 18.2822 8.87108 19.0097 8.33317 19.5425C7.80038 20.0753 7.07805 20.3827 6.36083 20.3827H6.34034C5.60264 20.3775 4.87518 20.0599 4.33727 19.5117C3.8096 18.9738 3.5176 18.2515 3.52784 17.5394C3.55346 16.0229 4.83419 14.7371 6.31985 14.7371H6.38645C7.91821 14.778 9.16821 16.0434 9.17334 17.5599Z" stroke="#5A5A5A" stroke-width="0.1"/>
<path d="M33.7282 13.8809C31.6636 13.8809 30.0397 15.4844 30.0345 17.5336C30.0345 18.548 30.4136 19.4855 31.1052 20.1822C31.7917 20.8687 32.7139 21.2478 33.7026 21.2478C35.7723 21.2478 37.3911 19.6443 37.3962 17.5951C37.3962 16.5807 37.0171 15.6432 36.3255 14.9465C35.6391 14.26 34.7169 13.8809 33.7282 13.8809ZM33.7436 20.3871H33.6872C32.1555 20.3513 30.9003 19.0859 30.8952 17.5695C30.8952 16.842 31.1975 16.1196 31.7302 15.5817C32.263 15.0438 32.9854 14.7415 33.7128 14.7415C34.4608 14.7415 35.1882 15.0592 35.7262 15.6022C36.2538 16.1401 36.5509 16.8625 36.5407 17.5797C36.5202 19.1013 35.2395 20.3871 33.7436 20.3871Z" stroke="#5A5A5A" stroke-width="0.1"/>
</g>
<defs>
<clipPath id="clip0_540_445">
<rect width="40" height="39.9036" fill="white" transform="translate(0 11.3042)"/>
</clipPath>
</defs>
</svg>
