<svg width="202" height="50" viewBox="0 0 202 50" fill="none" xmlns="http://www.w3.org/2000/svg">
<g clip-path="url(#clip0_2622_1128)">
<path d="M51.0152 13.8502C51.0152 13.3455 51.0152 12.8409 51.0152 12.3363C50.9989 11.2355 50.902 10.1375 50.7252 9.05089C50.5261 7.96484 50.164 6.91515 49.6509 5.93734C48.647 3.95897 47.0408 2.34997 45.0636 1.34208C44.0787 0.835533 43.0256 0.47391 41.9373 0.268423C40.85 0.0917185 39.7515 -0.00519034 38.6501 -0.0214844H37.1352H14.8221H13.3182H12.491C11.6666 0.0159792 10.8451 0.102076 10.0308 0.236247C9.21991 0.376737 8.42724 0.607158 7.66745 0.923335C6.38947 1.44913 5.22844 2.22273 4.25127 3.19947C3.46757 3.97323 2.81447 4.86885 2.3175 5.85143C1.80276 6.83232 1.44051 7.88582 1.2432 8.97573C1.0664 10.0623 0.969429 11.1604 0.953125 12.2611C0.953125 12.7657 0.953125 13.2704 0.953125 13.775V36.0747C0.953125 36.5793 0.953125 37.0732 0.953125 37.5778C0.969429 38.6786 1.0664 39.7766 1.2432 40.8632C1.44385 41.9523 1.80593 43.0053 2.3175 43.9876C3.31892 45.9651 4.92609 47.5712 6.90474 48.572C7.88555 49.088 8.93985 49.4501 10.0308 49.6457C11.1181 49.8224 12.2168 49.9193 13.3182 49.9356H14.8221H37.1352H38.6501C39.7515 49.9193 40.85 49.8224 41.9373 49.6457C43.0252 49.4518 44.0765 49.0895 45.0529 48.572C47.0324 47.5688 48.6424 45.9636 49.6509 43.9876C50.1577 43.0033 50.5195 41.951 50.7252 40.8632C50.902 39.7766 50.9989 38.6786 51.0152 37.5778C51.0152 37.0732 51.0152 36.5793 51.0152 36.0747V13.8502ZM43.2051 40.6915C40.9598 36.3217 36.7594 37.4705 34.6108 38.5442L34.0844 38.8447H34.0091C29.5938 41.1853 23.6742 41.3678 17.7227 38.8447C12.8731 36.7533 8.77167 33.242 5.95923 28.7739C7.32922 29.7822 8.79355 30.6559 10.3317 31.3829C16.627 34.3247 22.9438 34.1099 27.4236 31.3829C21.053 26.487 15.7353 20.1095 11.6638 14.9452C10.8889 14.0404 10.1884 13.0746 9.56897 12.0571C14.3539 16.3495 19.489 20.2353 24.9206 23.674C20.9715 19.4363 17.3615 14.8951 14.124 10.0924C19.5109 15.5674 25.4676 20.4516 31.8928 24.6618C32.1506 24.8014 32.3976 24.9517 32.6447 25.1128C32.8228 24.6558 32.9769 24.19 33.1066 23.717C34.5891 18.3488 32.9241 12.1645 29.164 7.06466C37.7584 12.2182 42.8076 21.9884 40.7342 30.2555L40.5729 30.8246C44.9238 36.1499 43.7637 41.8081 43.2051 40.7451V40.6915Z" fill="white"/>
<path d="M69.9935 32.4136C70.391 35.8815 73.6998 38.1576 78.2978 38.1576C82.6594 38.1576 85.8178 35.8815 85.8178 32.7893C85.8178 30.073 83.9162 28.4196 79.5223 27.3245L75.2252 26.2508C69.1124 24.737 66.3515 21.9562 66.3515 17.4254C66.3515 11.8209 71.2503 7.94507 78.1687 7.94507C84.926 7.94507 89.739 11.8424 89.9002 17.4791H85.4094C85.0657 14.0327 82.2619 11.9175 78.0614 11.9175C73.861 11.9175 71.0033 14.0649 71.0033 17.1785C71.0033 19.6049 72.7974 21.0543 77.2127 22.1816L80.7472 23.105C87.6011 24.7799 90.4158 27.3997 90.4158 32.2418C90.4158 38.3616 85.56 42.1945 77.8359 42.1945C70.6704 42.1945 65.7715 38.3831 65.4062 32.478L69.9935 32.4136ZM118.949 41.5719H114.448L109.184 23.2446H109.087L103.844 41.5719H99.3432L92.6824 17.5757H97.0441L101.685 36.8478H101.782L107.024 17.5757H111.246L116.532 36.8478H116.628L121.269 17.5757H125.567L118.949 41.5719ZM128.499 11.1123C128.508 10.4164 128.79 9.75179 129.284 9.26171C129.779 8.77162 130.446 8.49534 131.142 8.49258C131.489 8.48974 131.833 8.55531 132.155 8.68543C132.477 8.81556 132.77 9.0077 133.017 9.25096C133.265 9.49423 133.462 9.78382 133.597 10.1032C133.732 10.4226 133.804 10.7654 133.806 11.1123C133.801 11.8147 133.517 12.4865 133.018 12.9812C132.519 13.4759 131.845 13.7535 131.142 13.7535C130.442 13.7507 129.772 13.4715 129.277 12.9768C128.782 12.4821 128.502 11.8119 128.499 11.1123ZM128.961 17.5542H133.355V41.5504H128.961V17.5542ZM162.017 21.0866V17.5542H157.376V11.8102H153.015V17.5542H144.625V15.4069C144.625 13.2596 145.473 12.3685 147.45 12.3685C148.058 12.3754 148.665 12.4292 149.266 12.5295V9.08314C148.498 8.9637 147.722 8.90263 146.945 8.90057C142.25 8.90057 140.274 10.8546 140.274 15.3425V17.4898H136.922V21.0329H140.274V41.4967H144.646V21.1402H153.015V35.3125C153.015 39.9506 154.777 41.7544 159.375 41.7544C160.252 41.7706 161.129 41.7095 161.996 41.5719V37.9858C161.447 38.0576 160.895 38.097 160.341 38.1039C158.3 38.1039 157.376 37.1377 157.376 34.9796V21.1402L162.017 21.0866Z" fill="white"/>
<path d="M166.516 8.49268H169.846V30.159C169.78 31.4847 170.032 32.807 170.582 34.0155C171.131 35.2239 171.962 36.2834 173.004 37.1055C175.084 38.6441 177.627 39.4281 180.213 39.328C182.642 39.4068 185.024 38.6487 186.959 37.1807C188.011 36.3533 188.852 35.2884 189.412 34.0734C189.972 32.8584 190.236 31.5279 190.182 30.1912V8.49268H193.728V29.7296C193.791 31.5218 193.447 33.3051 192.721 34.9453C191.995 36.5854 190.907 38.0399 189.538 39.1992C186.984 41.3778 183.72 42.5465 180.363 42.4846C176.795 42.6552 173.289 41.5089 170.512 39.2636C169.18 38.1037 168.13 36.6559 167.441 35.0301C166.753 33.4042 166.443 31.643 166.537 29.8799L166.516 8.49268Z" fill="white"/>
<path d="M198.656 8.49268H201.986V41.9262H198.656V8.49268Z" fill="white"/>
</g>
<defs>
<clipPath id="clip0_2622_1128">
<rect width="201" height="50" fill="white" transform="translate(0.992188)"/>
</clipPath>
</defs>
</svg>
