<svg width="231" height="127" viewBox="0 0 231 127" fill="none" xmlns="http://www.w3.org/2000/svg">
<g clip-path="url(#clip0_518_1693)">
<g clip-path="url(#clip1_518_1693)">
<path d="M18.1213 67.4785C19.5179 67.4834 20.9145 67.4969 22.3111 67.4865C22.592 67.4846 22.712 67.5593 22.7322 67.8445C22.824 69.1486 23.551 69.9405 24.7854 70.2612C25.2034 70.3701 25.6532 70.3952 26.0884 70.3933C26.8693 70.3897 27.6312 70.2599 28.3203 69.8548C29.2212 69.3254 29.6269 68.3793 29.3907 67.3732C29.2848 66.9241 29.0186 66.5899 28.6557 66.3194C27.7512 65.645 26.7034 65.2766 25.6587 64.8996C24.5394 64.4957 23.3962 64.1451 22.3135 63.6579C21.5804 63.3281 20.8906 62.8599 20.2597 62.3557C18.9102 61.2768 18.4004 59.8111 18.4653 58.1067C18.5589 55.6601 19.8221 54.0206 22.0492 53.206C24.9145 52.1577 27.8179 52.2416 30.6349 53.4429C32.0951 54.0659 33.1007 55.1613 33.4397 56.7653C33.5205 57.1465 33.5297 57.5437 33.5744 57.9556H29.0535C28.578 55.8853 25.6489 55.3828 24.0069 56.3381C22.8429 57.0156 22.7615 58.6918 23.8491 59.4849C24.5981 60.0314 25.4445 60.3833 26.3136 60.6801C27.305 61.0191 28.313 61.3129 29.2965 61.6733C30.7304 62.1984 32.0284 62.9389 33.0144 64.1512C33.6906 64.9823 34.0523 65.9345 34.0762 66.9889C34.0927 67.7055 34.0811 68.4503 33.9097 69.1394C33.4422 71.0224 32.1368 72.2127 30.4195 72.9734C28.6123 73.7739 26.6973 73.8975 24.7548 73.7451C23.4384 73.6417 22.1893 73.2947 21.043 72.6246C19.4114 71.6705 18.42 70.2795 18.1764 68.3842C18.1691 68.3261 18.1391 68.2704 18.1201 68.2135C18.1201 67.9687 18.1201 67.7239 18.1201 67.4791L18.1213 67.4785Z" fill="#EEEEEE"/>
<path d="M34.9888 52.9036H39.7048C40.8022 57.376 41.897 61.8403 42.9919 66.3041C43.0145 66.3083 43.0372 66.3132 43.0598 66.3175C43.0923 66.2214 43.1272 66.1266 43.1559 66.0299C44.4381 61.7497 45.722 57.4702 46.9962 53.1876C47.0623 52.9648 47.1462 52.881 47.3861 52.8835C48.5997 52.8957 49.8133 52.8951 51.0269 52.8835C51.2606 52.881 51.3549 52.9489 51.4228 53.1796C52.6762 57.4574 53.9412 61.7326 55.2038 66.0079C55.2337 66.1101 55.2686 66.211 55.369 66.3077C55.5202 65.7019 55.6732 65.096 55.8231 64.4902C56.7546 60.7259 57.6885 56.9617 58.612 53.1949C58.6677 52.9667 58.7485 52.881 58.9927 52.8828C60.3182 52.8951 61.6445 52.8883 62.97 52.8883C63.0698 52.8883 63.1696 52.8883 63.3189 52.8883C61.4761 59.7443 59.6469 66.5531 57.8084 73.3926H57.4767C56.1915 73.3926 54.9063 73.3828 53.6217 73.3999C53.3286 73.4036 53.2086 73.3216 53.1248 73.0315C51.8549 68.6522 50.5703 64.2772 49.2882 59.901C49.2606 59.8061 49.2282 59.7125 49.1725 59.5375C47.7777 64.2062 46.4069 68.7954 45.036 73.384H40.4625C38.6412 66.5703 36.8211 59.759 34.9888 52.9036V52.9036Z" fill="#EEEEEE"/>
<path d="M191.637 52.9785H211.931V73.2893H191.637V52.9785ZM204.235 60.6747V55.0378H199.327V60.6784H193.675V65.598H199.346V71.2453H204.239V65.5766H209.881V60.6753H204.235L204.235 60.6747Z" fill="#EEEEEE"/>
<path d="M88.7076 57.9517C88.5448 57.9603 88.4548 57.9695 88.3655 57.9695C87.0497 57.9707 85.7345 57.9664 84.4187 57.9738C84.2167 57.975 84.1212 57.9383 84.0717 57.7112C83.9646 57.221 83.6298 56.8698 83.2424 56.5736C82.1408 55.7297 80.2962 55.6293 79.1028 56.3429C77.951 57.0319 77.8813 58.7032 78.9743 59.4927C79.9388 60.1897 81.0569 60.5477 82.1616 60.937C83.2932 61.3354 84.4462 61.6897 85.5362 62.1823C86.2381 62.4999 86.8905 62.9779 87.4823 63.4815C88.9316 64.7153 89.36 66.3597 89.1978 68.1962C89.0081 70.3491 87.8324 71.8748 85.9474 72.753C82.8648 74.1887 79.6897 74.2468 76.5728 72.8313C74.7172 71.9886 73.5924 70.504 73.2962 68.4508C73.2527 68.1509 73.2594 67.8437 73.2417 67.5151H77.7705C77.806 67.7023 77.8556 67.9055 77.8825 68.1124C78.0349 69.2806 78.7552 69.9581 79.8354 70.2402C80.9566 70.5327 82.0845 70.4697 83.1561 69.9911C84.1959 69.5272 84.6684 68.6631 84.5319 67.5518C84.4713 67.0591 84.2253 66.6742 83.8373 66.3743C83.1604 65.8523 82.3978 65.49 81.598 65.2049C80.4284 64.7875 79.2436 64.4124 78.0851 63.9681C77.0245 63.5617 76.0471 63.0011 75.1977 62.2239C73.8561 60.9969 73.4375 59.4535 73.6009 57.707C73.8072 55.4983 75.0336 54.0076 77.0471 53.2481C79.9602 52.1484 82.9058 52.2304 85.7742 53.455C87.1702 54.051 88.147 55.0981 88.516 56.617C88.6182 57.0387 88.6421 57.4793 88.7076 57.9511V57.9517Z" fill="#EEEEEE"/>
<path d="M91.3566 67.4936C91.9172 67.4936 92.4049 67.4936 92.8933 67.4936C93.8113 67.4936 94.7293 67.5003 95.6467 67.4887C95.867 67.4856 95.9527 67.5517 95.9747 67.7726C96.0035 68.0548 96.0408 68.3436 96.1308 68.611C96.4086 69.4366 97.0114 69.966 97.8223 70.2028C98.9478 70.5314 100.086 70.4861 101.18 70.0486C102.357 69.5786 102.91 68.5419 102.647 67.3847C102.544 66.933 102.28 66.5989 101.918 66.3272C101.066 65.6883 100.084 65.3174 99.0941 64.9667C98.0965 64.6136 97.0849 64.2979 96.099 63.9148C95.1559 63.5482 94.2844 63.0445 93.509 62.3781C92.2079 61.26 91.6632 59.8402 91.7183 58.1469C91.7984 55.6874 93.0549 54.0326 95.2954 53.2095C98.1608 52.1569 101.064 52.242 103.882 53.4396C105.355 54.0656 106.363 55.1715 106.7 56.7883C106.778 57.161 106.786 57.549 106.828 57.9517C106.68 57.9609 106.592 57.9719 106.502 57.9719C105.187 57.9731 103.871 57.9676 102.556 57.978C102.341 57.9798 102.26 57.9156 102.21 57.7063C102.081 57.1592 101.709 56.7718 101.253 56.4854C99.9815 55.6874 98.6437 55.647 97.3242 56.3153C96.0763 56.9474 95.9668 58.7197 97.1326 59.4859C97.7979 59.9235 98.5359 60.2741 99.2808 60.5617C100.466 61.0189 101.699 61.3549 102.886 61.8077C104.206 62.3108 105.381 63.0482 106.285 64.1718C106.942 64.9888 107.253 65.9251 107.344 66.9538C107.653 70.4555 105.483 72.3478 103.336 73.1029C100.497 74.1011 97.6326 74.1506 94.8437 72.9028C93.0218 72.0877 91.8413 70.6948 91.4777 68.6888C91.4092 68.3118 91.3982 67.9244 91.356 67.4948L91.3566 67.4936Z" fill="#EEEEEE"/>
<path d="M141.344 57.1823H146.161V57.5782C146.161 60.5249 146.151 63.4721 146.17 66.4188C146.174 67.0981 146.224 67.7872 146.355 68.4524C146.495 69.1721 146.867 69.8036 147.67 69.9327C149.225 70.183 150.462 69.6733 151.049 68.1115C151.322 67.3857 151.41 66.6262 151.415 65.8601C151.431 63.1074 151.432 60.3541 151.44 57.6008C151.44 57.4705 151.44 57.3401 151.44 57.1878H156.271V73.3696H151.877C151.844 72.787 151.81 72.1952 151.773 71.5435C151.617 71.727 151.506 71.8684 151.383 71.9982C150.477 72.9614 149.334 73.4528 148.046 73.6285C146.922 73.7821 145.806 73.7245 144.722 73.3653C142.985 72.7894 141.993 71.5282 141.582 69.8006C141.419 69.1133 141.345 68.39 141.34 67.6819C141.314 64.2561 141.325 60.8296 141.325 57.4038C141.325 57.3352 141.336 57.2661 141.344 57.1816L141.344 57.1823Z" fill="#EEEEEE"/>
<path d="M138.638 65.2662C138.643 66.6322 138.494 67.973 137.946 69.241C137.002 71.4251 135.377 72.8149 133.067 73.4006C131.12 73.8939 129.171 73.8932 127.232 73.3816C124.598 72.687 122.928 70.9692 122.189 68.3836C121.625 66.4088 121.603 64.3825 122.142 62.3998C122.961 59.3913 124.977 57.6349 128.032 57.0639C129.705 56.7512 131.376 56.7726 133.037 57.1606C135.95 57.8412 137.663 59.7254 138.354 62.5693C138.565 63.4426 138.598 64.3599 138.713 65.2571C138.688 65.2601 138.663 65.2632 138.638 65.2662V65.2662ZM134 65.2797C134.025 65.276 134.05 65.273 134.075 65.2693C133.958 64.4346 133.903 63.5858 133.712 62.7688C133.357 61.2517 132.548 60.1104 130.865 59.9035C128.915 59.6642 127.524 60.3135 126.885 62.2614C126.666 62.9316 126.543 63.647 126.481 64.3513C126.359 65.7399 126.436 67.1224 126.929 68.4491C127.205 69.1908 127.616 69.8371 128.313 70.2593C130.202 71.4056 132.693 70.569 133.492 68.5201C133.899 67.4779 133.995 66.3855 133.999 65.2797H134Z" fill="#EEEEEE"/>
<path d="M185.321 61.7643H181.048C181.006 61.626 180.955 61.4748 180.914 61.3218C180.693 60.5036 180.155 60.0159 179.323 59.9326C178.866 59.8867 178.386 59.9296 177.933 60.0183C177.444 60.1138 177.087 60.4295 177.004 60.9558C176.916 61.5176 177.085 61.9736 177.582 62.2985C178.465 62.875 179.47 63.1516 180.443 63.5102C181.291 63.8229 182.141 64.1393 182.961 64.5181C183.689 64.8547 184.289 65.3865 184.792 66.0175C186.101 67.6606 185.916 70.3631 184.381 71.9408C183.42 72.9291 182.215 73.4536 180.881 73.6763C178.971 73.9946 177.082 73.896 175.245 73.2339C174.517 72.9713 173.887 72.5466 173.321 72.0173C172.351 71.1091 172.021 69.9623 172.021 68.6435C172.137 68.6367 172.234 68.6257 172.332 68.6251C173.586 68.6239 174.84 68.63 176.095 68.619C176.323 68.6171 176.406 68.6912 176.459 68.9121C176.764 70.182 177.37 70.6728 178.687 70.7419C179.18 70.7676 179.657 70.7346 180.113 70.4959C180.893 70.0865 181.273 68.8424 180.324 68.1588C180.014 67.9348 179.67 67.7396 179.315 67.5982C178.142 67.1313 176.951 66.7108 175.779 66.2415C174.841 65.8657 174.01 65.318 173.349 64.5383C171.744 62.6437 172.001 59.8298 173.922 58.257C174.857 57.4915 175.949 57.0943 177.129 56.9346C178.835 56.7032 180.525 56.7357 182.17 57.3219C183.107 57.6555 183.887 58.213 184.495 58.9945C185.027 59.6787 185.385 60.9393 185.321 61.7643V61.7643Z" fill="#EEEEEE"/>
<path d="M111.428 60.4964H108.502V57.1917C108.61 57.1856 108.718 57.174 108.825 57.174C109.58 57.1721 110.334 57.1617 111.089 57.1789C111.354 57.185 111.438 57.1152 111.435 56.8398C111.42 55.6471 111.429 54.4538 111.429 53.261C111.429 53.1411 111.429 53.0217 111.429 52.8828H116.26V57.1599H120.494V60.4848H116.291C116.284 60.6237 116.273 60.7308 116.273 60.8379C116.272 63.2136 116.269 65.5899 116.276 67.9655C116.277 68.3003 116.299 68.6393 116.352 68.9692C116.48 69.7647 116.902 70.157 117.697 70.2929C118.595 70.4465 119.461 70.2494 120.331 70.0824C120.381 70.0732 120.43 70.0658 120.52 70.0511C120.52 70.3681 120.52 70.6711 120.52 70.974C120.52 71.657 120.517 72.3405 120.522 73.0235C120.523 73.1734 120.493 73.2591 120.323 73.3026C118.535 73.7615 116.734 73.947 114.905 73.5896C114.131 73.4384 113.447 73.0859 112.827 72.6012C112.002 71.9556 111.619 71.075 111.523 70.0658C111.455 69.3572 111.437 68.6418 111.433 67.9288C111.423 65.5837 111.43 63.238 111.43 60.8929V60.4958L111.428 60.4964Z" fill="#EEEEEE"/>
<path d="M170.791 60.9398C170.532 60.9233 170.299 60.9062 170.067 60.8933C169.176 60.8431 168.294 60.8511 167.467 61.2623C166.124 61.9312 165.458 63.0695 165.254 64.5033C165.15 65.2279 165.074 65.9617 165.066 66.6924C165.041 68.7933 165.057 70.8942 165.057 72.9951C165.057 73.1163 165.057 73.2374 165.057 73.38H160.137V57.197H164.635V59.2287C164.664 59.2367 164.692 59.2446 164.722 59.2526C166.208 57.0746 168.375 56.716 170.792 56.9614V60.9392L170.791 60.9398Z" fill="#EEEEEE"/>
<path d="M69.9301 73.4028H65.334V52.9316H69.9301V73.4028Z" fill="#EEEEEE"/>
</g>
</g>
<defs>
<clipPath id="clip0_518_1693">
<rect width="231" height="127" fill="white"/>
</clipPath>
<clipPath id="clip1_518_1693">
<rect width="193.882" height="21.4399" fill="white" transform="translate(18.0591 52.4512)"/>
</clipPath>
</defs>
</svg>
