<?xml version="1.0" encoding="utf-8"?>
<!-- Generator: Adobe Illustrator 24.0.1, SVG Export Plug-In . SVG Version: 6.00 Build 0)  -->
<svg version="1.1" id="Layer_1" xmlns="http://www.w3.org/2000/svg" xmlns:xlink="http://www.w3.org/1999/xlink" x="0px" y="0px"
	 viewBox="0 0 128.7 51.3" style="enable-background:new 0 0 128.7 51.3;" xml:space="preserve">
<style type="text/css">
	.st0{fill-rule:evenodd;clip-rule:evenodd;fill:#FFFFFF;}
	.st1{fill:#FFFFFF;}
</style>
<g>
	<path class="st0" d="M2.1,44H0v7.3h1.4v-2.9h0.6c1.8,0,2.7-0.8,2.7-2.2C4.8,44.8,3.9,44,2.1,44z M2.2,47.2H1.4v-2.1h0.8
		c0.7,0,1.1,0.4,1.1,1.1C3.3,46.9,2.9,47.2,2.2,47.2z"/>
	<path class="st0" d="M9.9,43.8c-1.4,0-2.4,0.7-2.4,2.4v2.6c0,1.8,1,2.5,2.4,2.5c1.4,0,2.4-0.7,2.4-2.5v-2.6
		C12.3,44.5,11.4,43.8,9.9,43.8z M10.9,49c0,0.8-0.3,1.1-0.9,1.1C9.4,50.1,9,49.9,9,49v-3c0-0.8,0.4-1,0.9-1c0.6,0,0.9,0.2,0.9,1V49
		z"/>
	<polygon class="st0" points="20.9,48.8 20.9,48.8 19.8,44 18.4,44 17.4,48.8 17.4,48.8 16.3,44 15,44 16.6,51.3 18,51.3 19.1,46.3 
		20.2,51.3 21.6,51.3 23.3,44 21.9,44 	"/>
	<polygon class="st0" points="27.5,48.2 29.4,48.2 29.4,46.9 27.5,46.9 27.5,45.3 30.1,45.3 30.1,44 26.1,44 26.1,51.3 30.2,51.3 
		30.2,50.1 27.5,50.1 	"/>
	<path class="st0" d="M37.9,46.2c0-1.4-0.8-2.2-2.6-2.2h-2.1v7.3h1.5v-3h0.7l1.3,3h1.5l-1.4-3.3C37.6,47.8,37.9,47.1,37.9,46.2z
		 M35.5,47.2h-0.8v-2h0.8c0.6,0,1,0.3,1,1C36.5,46.9,36.1,47.2,35.5,47.2z"/>
	<path class="st0" d="M48.1,43.8c-1.4,0-2.4,0.7-2.4,2.4v2.6c0,1.8,1,2.5,2.4,2.5c1.4,0,2.4-0.7,2.4-2.5v-2.6
		C50.5,44.5,49.5,43.8,48.1,43.8z M49,49c0,0.8-0.4,1.1-1,1.1c-0.6,0-0.9-0.2-0.9-1.1v-3c0-0.8,0.4-1,0.9-1c0.6,0,1,0.2,1,1V49z"/>
	<polygon class="st0" points="53.5,51.3 55,51.3 55,48.2 56.8,48.2 56.8,46.9 55,46.9 55,45.3 57.3,45.3 57.3,44 53.5,44 	"/>
	<path class="st0" d="M66.3,45.8c0-0.5,0.3-0.8,0.8-0.8c0.5,0,0.8,0.3,1.1,1l1.3-0.4c-0.3-1.1-1.1-1.8-2.3-1.8c-1.5,0-2.3,0.8-2.3,2
		c0,2.1,3.2,2.1,3.2,3.4c0,0.5-0.4,0.9-0.9,0.9c-0.5,0-1-0.3-1.1-1.2l-1.4,0.3c0.4,1.5,1.3,2.1,2.5,2.1c1.5,0,2.4-0.8,2.4-2.1
		C69.5,46.9,66.3,46.9,66.3,45.8z"/>
	<rect x="72.4" y="44" class="st0" width="1.5" height="7.3"/>
	<polygon class="st0" points="80.2,48.8 80.2,48.8 78.9,44 76.9,44 76.9,51.3 78.1,51.3 78.1,45.6 79.7,51.3 80.8,51.3 82.3,45.6 
		82.3,45.6 82.3,51.3 83.6,51.3 83.6,44 81.5,44 	"/>
	<path class="st0" d="M88.5,44h-2.1v7.3h1.4v-2.9h0.6c1.8,0,2.7-0.8,2.7-2.2C91.2,44.8,90.3,44,88.5,44z M88.6,47.2h-0.8v-2.1h0.8
		c0.7,0,1.1,0.4,1.1,1.1C89.7,46.9,89.4,47.2,88.6,47.2z"/>
	<polygon class="st0" points="95,44 93.6,44 93.6,51.3 97.3,51.3 97.3,50.1 95,50.1 	"/>
	<rect x="99.9" y="44" class="st0" width="1.4" height="7.3"/>
	<path class="st0" d="M106.5,43.8c-1.4,0-2.4,0.7-2.4,2.4v2.6c0,1.8,1,2.5,2.4,2.5c1.4,0,2.4-0.7,2.4-2.5v-0.3h-1.4V49
		c0,0.8-0.4,1.1-1,1.1c-0.6,0-0.9-0.2-0.9-1.1v-3c0-0.8,0.4-1,0.9-1c0.6,0,1,0.2,1,1v0.2h1.4v0C108.9,44.5,107.9,43.8,106.5,43.8z"
		/>
	<rect x="112.1" y="44" class="st0" width="1.4" height="7.3"/>
	<polygon class="st0" points="116.1,45.3 117.8,45.3 117.8,51.3 119.3,51.3 119.3,45.3 121,45.3 121,44 116.1,44 	"/>
	<polygon class="st0" points="127.2,44 125.9,47 124.6,44 123.1,44 125.2,48.4 125.2,51.3 126.6,51.3 126.6,48.4 128.7,44 	"/>
</g>
<g>
	<path class="st1" d="M59,15c0.1,0.6,0.1,1.5-0.5,2.1c-0.9,1-3.4,3.4-3.4,3.4s-1,0.6-0.5,1.3c0.1,0.2,0.3,0.2,0.5,0.2
		c0.2-0.3,0.5-0.4,0.5-0.4s2.6-2.4,3.5-3.4c0.9-1,0.3-2.5,0.2-2.9C59.2,15.3,59.1,15.1,59,15z"/>
	<path class="st1" d="M53.7,14.6c-0.5,0.3-3,2.1-3.9,2.8c-0.9,0.7-3.1,2.7-3.1,2.7s-1.2,1.1-0.8,1.6c0.2,0.2,0.3,0.3,0.5,0.3
		c0.3-0.4,0.7-0.9,0.7-0.9s2.3-2,3.1-2.7c0.9-0.7,3.4-2.6,3.9-2.8c0.4-0.2,0.7-0.4,1.1-0.3c0.2-0.2,0.3-0.6-0.1-0.9
		C54.6,14.1,54.2,14.4,53.7,14.6z"/>
	<path class="st1" d="M62.8,23.2c-0.5-0.9-0.6-1.6-1.2-1.1c-0.6,0.4-3.8,2.3-5.5,2.8c-1.7,0.5-2.1,0.7-3.1,0.6
		c-1-0.2-2.1-0.6-2.4-1.2c-0.4-0.6-0.5-0.7-0.9-0.4c-0.4,0.3-1.6,1.3-2.6,1.2c-1-0.1-3.3-0.7-4.6-3.1c0,0,0-0.1-0.1-0.1
		c0.1,0.4,0.3,0.8,0.5,1.2c1.3,2.4,3.7,3,4.6,3.1c0.9,0.1,2.1-0.8,2.6-1.2c0.5-0.3,0.5-0.2,0.9,0.4c0.4,0.6,1.4,1,2.4,1.1
		c1,0.2,1.4,0,3.1-0.6c1.7-0.5,4.9-2.3,5.5-2.8c0.6-0.4,0.7,0.3,1.2,1.2c0.5,0.9,1.8,1.3,2.9,1.3c1.1,0.1,1.7-0.2,2.4-0.5
		c0.7-0.3,2.7-1.3,3.3-1.7c0.6-0.4,0.7-0.4,0.9,0.1c0.2,0.6,0.3,1,2,2.2c1.7,1.2,4.6,0.5,5.3,0.3c0.7-0.2,1.9-0.8,2.2-1
		c0.3-0.2,0.6,0.3,1.3,1c0.4,0.4,1.1,0.5,1.8,0.4c0.5-0.6,1.1-1.4,1.1-1.4s0.4-0.6-0.4-0.1c-0.8,0.5-2.2,0.6-2.8-0.1
		c-0.7-0.7-1-1.2-1.3-1c-0.3,0.2-1.6,0.8-2.3,1c-0.7,0.2-3.6,0.9-5.3-0.3c-1.8-1.2-1.8-1.7-2-2.2C72.1,22,72,22,71.4,22.4
		c-0.6,0.4-2.5,1.3-3.3,1.7c-0.7,0.3-1.3,0.6-2.4,0.5C64.6,24.5,63.4,24.1,62.8,23.2z"/>
	<path class="st1" d="M101.3,16.5c-0.9,0.8-3.9,3.5-5,4.6c-1.1,1.1-4.6,4.6-5.2,5.3c-0.6,0.7-2.3,2.3-1.6,2.4c0.1,0,0.4,0.1,0.7,0.1
		c0.4-0.5,0.9-1,1.2-1.4c0.6-0.7,4.1-4.3,5.2-5.4c1.1-1.1,4.1-3.8,5-4.6C102.5,16.9,101.6,16.6,101.3,16.5
		C101.3,16.5,101.3,16.5,101.3,16.5z"/>
	<path class="st1" d="M92,14.2c-0.9,0.9-3.1,3.1-3.5,3.6c-0.5,0.6-2.3,2.6-2.6,3.2c-0.3,0.6-0.8,1.3-0.3,1.5
		c0.1,0.1,0.3,0.1,0.4,0.1c0.1-0.2,0.2-0.4,0.3-0.6c0.3-0.6,2.2-2.6,2.6-3.2c0.5-0.6,2.6-2.8,3.5-3.7C92.9,14.8,92.5,14.4,92,14.2
		C92,14.2,92,14.2,92,14.2z"/>
	<path class="st1" d="M29.7,3.7c0,0,1,1,1.4,1.4c0.4,0.4,1.1,1.3,2,0.9c1-0.4,6-0.9,7.7-1.1c0.7-0.1,1.4-0.1,1.9-0.1
		c0.5-0.6,0.8-1,0.8-1s-1.4-0.2-3.1,0c-1.6,0.2-6.7,0.7-7.7,1.1c-1,0.4-1.6-0.6-2-0.9C30.4,3.7,30,3.3,29.7,3
		C29.4,3.3,29.7,3.7,29.7,3.7z"/>
	<path class="st1" d="M82,31.2c0.7-0.6-0.4-0.4-0.7-0.5c-0.3,0-6.9-0.4-8.9-0.4c-2,0-8.8,0-11.3,0.2c-2.5,0.2-11.4,1-13.8,1.4
		c-2.4,0.4-11.9,1.8-13.2,2c-1.3,0.3-3.9,0.7-3.9,0.7s-1.3,0.3-2.6-0.3c-0.5-0.2-1-0.5-1.5-0.7c-1.1,0.5,0.7,1.3,1.9,1.8
		c1.3,0.6,2.6,0.3,2.6,0.3s2.6-0.5,3.9-0.7c1.3-0.3,10.9-1.6,13.2-2c2.4-0.4,11.3-1.2,13.8-1.4c2.5-0.1,9.3-0.1,11.3-0.2
		c1.8,0,7.9,0.3,8.8,0.4C81.7,31.5,81.9,31.3,82,31.2z"/>
	<path class="st1" d="M103.2,33.4c-0.2,0.4-0.7,1.4-0.9,1.5c-0.3,0.1-0.8,0.1-2-0.4c-1.2-0.5-6.7-1.9-8.2-2.1
		c-1.5-0.3-4.8-0.9-4.8-0.9s-0.4-0.3-1.1,0.8c-0.7,1.1-2.9,4.2-2.9,4.2S83.1,37,82.7,37c-0.4,0-2.2-0.1-2.8-0.5c0,0,0,0,0,0
		c0,0,0,0.1,0,0.1c-0.4,0.7-0.2,0.7,0.5,1c0.7,0.4,2.4,0.5,2.8,0.5c0.4,0,0.5-0.4,0.5-0.4s2.2-3.1,2.9-4.2c0.7-1.1,1.1-0.8,1.1-0.8
		s3.4,0.6,4.8,0.8c1.5,0.3,7,1.7,8.2,2.2c1.2,0.5,1.8,0.5,2.1,0.3c0.3-0.1,1-1.7,1-1.7C103.8,33.8,103.5,33.6,103.2,33.4z"/>
	<path class="st1" d="M89,7.3c-1,0.7-5.9,4.6-7.2,6c-1.3,1.4-4,4.4-5,5.7c-1,1.4-1.6,2-0.9,2.9c0,0,0.1,0.1,0.1,0.1
		c0.1-0.5,0.6-1.1,1.2-1.9c1-1.4,3.7-4.3,5-5.7c1.3-1.4,6.2-5.3,7.2-6c1-0.7,0.4-1,0.4-1s-0.3-0.2-0.6-0.3C89.1,7.2,89,7.3,89,7.3z"
		/>
	<path class="st1" d="M79.3,6.1c-1,0.8-4.6,3.9-5.5,4.8c-0.9,0.9-3.5,3.5-4.4,4.5c-0.8,1-3.2,3.8-3.6,4.3c-0.4,0.6-0.6,1.2,0,1.5
		c0,0,0.1,0.1,0.1,0.1c0.1-0.2,0.2-0.3,0.3-0.5c0.4-0.6,2.7-3.4,3.6-4.3c0.8-1,3.4-3.6,4.4-4.5c0.9-1,4.5-4,5.6-4.8
		c0.9-0.7,0-1.2-0.2-1.3C79.5,5.9,79.4,6,79.3,6.1z"/>
	<path class="st1" d="M60.9,3.5c0,0,0.4,0.7-1,0.6c-1.3-0.1-3.5-0.2-5-0.3c-1.5-0.1-5-0.4-5.6-0.3c-0.5,0-0.7,0-1,0.4
		c-0.3,0.4-1.7,2.2-2.1,2.7C46.1,7,44.6,9,43.3,10.7c-1.3,1.7-2.9,3.9-4.3,6.1c-1.4,2.2-2.7,4.3-3.2,5.2c-0.5,0.9-0.8,1.5-0.9,1.7
		c-0.1,0.2-0.2,0.6-0.8,0.7c-0.7,0-3.6-0.1-3.6-0.1s-0.1,0-0.2,0c-0.5,1.2,0.6,1.1,0.6,1.1s3,0.1,3.6,0.1c0.6,0,0.7-0.4,0.8-0.6
		c0.1-0.2,0.3-0.8,0.8-1.7c0.5-1,1.8-3,3.2-5.3c1.4-2.2,3-4.4,4.3-6.1c1.3-1.7,2.8-3.6,3.1-4.1c0.3-0.5,1.8-2.3,2.1-2.7
		c0.3-0.4,0.5-0.4,1-0.4c0.5,0,4.1,0.2,5.6,0.3c1.5,0.1,3.7,0.2,5,0.3c1.3,0.1,1-0.6,1-0.6s0.1-0.8-0.3-1.8
		c-0.1-0.2-0.1-0.3-0.2-0.4C61,3,60.9,3.5,60.9,3.5z"/>
</g>
<path class="st0" d="M51.7,19.2c1-0.7,3.1-3.3,3.3-3.5c0.2-0.2,0.6-0.7,0.1-1.1c-0.5-0.4-0.9-0.2-1.4,0.1c-0.5,0.3-3,2.1-3.9,2.8
	c-0.9,0.7-3.1,2.7-3.1,2.7s-1.2,1.1-0.8,1.6c0.4,0.6,0.8,0.3,1.5,0.1C48,21.7,50.7,19.9,51.7,19.2L51.7,19.2z M48.8,0h-0.6
	c-2.7,0-9.3,0.4-10.8,0.6c-1.6,0.1-6.7,1-7.6,1.3c-0.9,0.2-0.4,0.8-0.4,0.8s1,1,1.4,1.4c0.4,0.4,1.1,1.3,2,0.9c1-0.4,6-0.9,7.7-1.1
	c1.6-0.2,3.1,0,3.1,0s-4.4,5.7-5.1,6.7c-0.7,0.9-4.4,6.1-5.2,7.1c-0.7,1.1-2.5,4-3.3,5.4c-0.8,1.4,0.5,1.3,0.5,1.3s3,0.1,3.6,0.1
	c0.6,0,0.7-0.4,0.8-0.7c0.1-0.2,0.3-0.8,0.9-1.7c0.5-0.9,1.8-3,3.2-5.2c1.4-2.2,3-4.4,4.3-6.1C44.6,9,46.1,7,46.4,6.6
	c0.3-0.4,1.8-2.3,2.1-2.7c0.3-0.4,0.4-0.4,1-0.4c0.5,0,4.1,0.2,5.6,0.3c1.5,0.1,3.6,0.2,5,0.3c1.3,0.1,1-0.6,1-0.6s0.1-0.8-0.3-1.8
	c-0.4-1-0.8-0.8-0.8-0.8C57.9,0.4,50.8,0,48.8,0L48.8,0z M102.2,32c0.3,0.2,1.2,0.4,1.1,1.2c0,0-0.7,1.6-1,1.7
	c-0.3,0.1-0.8,0.1-2-0.4c-1.2-0.5-6.7-1.9-8.2-2.1c-1.5-0.3-4.8-0.9-4.8-0.9s-0.4-0.3-1.1,0.8c-0.7,1.1-2.9,4.2-2.9,4.2
	S83.1,37,82.7,37c-0.4,0-2.2-0.1-2.8-0.5c-0.7-0.3-0.8-0.3-0.5-1c0.4-0.7,2-3.7,2.6-4.3c0.7-0.6-0.4-0.4-0.7-0.5
	c-0.3,0-6.9-0.4-8.9-0.4c-2,0-8.8,0-11.3,0.2c-2.5,0.2-11.4,1-13.8,1.4c-2.4,0.4-11.9,1.8-13.2,2c-1.3,0.3-3.9,0.7-3.9,0.7
	s-1.3,0.3-2.6-0.3c-1.3-0.6-3.3-1.4-1.6-1.9c1.8-0.6,10.2-2.2,12.9-2.6c2.6-0.4,10.9-1.6,14.4-1.8c3.4-0.2,12.8-0.7,16.3-0.7
	c3.5,0,8.3,0.3,10.4,0.4c2.1,0.1,3.4,0.3,3.8,0.3c0.4,0.1,0.5-0.2,0.8-0.7c0.4-0.5,1.7-2.2,1.7-2.2s0.4-0.6-0.4-0.1
	c-0.8,0.5-2.2,0.6-2.8-0.1c-0.7-0.7-1-1.2-1.3-1c-0.3,0.2-1.6,0.8-2.3,1c-0.7,0.2-3.6,0.9-5.3-0.3c-1.8-1.2-1.8-1.7-2-2.2
	C72.1,22,72,22,71.4,22.4c-0.6,0.4-2.5,1.3-3.3,1.7c-0.7,0.3-1.3,0.6-2.4,0.5c-1.1-0.1-2.4-0.4-2.9-1.4c-0.5-0.9-0.6-1.6-1.2-1.1
	c-0.6,0.4-3.8,2.3-5.5,2.8c-1.7,0.5-2.1,0.7-3.1,0.6c-1-0.2-2.1-0.6-2.4-1.2c-0.4-0.6-0.5-0.7-0.9-0.4c-0.4,0.3-1.6,1.3-2.6,1.2
	c-1-0.1-3.3-0.7-4.6-3.1c-1.3-2.4-0.3-3.4,0.8-4.6c1.2-1.2,3.3-3,3.3-3s2.6-1.9,3.4-2.3c0.9-0.4,2.2-1.2,3.1-1.3c0.9,0,2.2,0,3.4,1
	c1.3,1,2,2.1,2.1,2.5c0.2,0.4,0.7,1.8-0.2,2.8c-0.9,1-3.4,3.4-3.4,3.4s-1,0.6-0.5,1.3c0.5,0.7,2.1-0.4,2.7-0.8
	c0.6-0.4,3.5-2.9,4.4-3.8c0.9-0.9,6.6-6.5,7.1-7c0.5-0.5,5.2-5.3,6-5.7c0.7-0.4,1-0.8,2.2-0.5c1.3,0.3,2,0.7,2,0.7s1.3,0.5,0.3,1.4
	c-1,0.8-4.6,3.9-5.5,4.8c-0.9,0.9-3.5,3.5-4.4,4.5c-0.8,1-3.2,3.8-3.6,4.3c-0.4,0.6-0.6,1.2,0,1.5c0.6,0.4,1.6,0,2.6-0.9
	c1.1-0.9,4.2-3.6,5.3-4.7c1.1-1.1,7-6.8,7.6-7.2c0.5-0.5,3.3-2.7,3.3-2.7s0.3-0.5,1.1-0.5c0.8,0,1.6,0.1,2.1,0.4
	c0.5,0.2,1.4,0.7,1.4,0.7s0.6,0.2-0.4,0.9c-1,0.7-5.9,4.6-7.2,6c-1.3,1.4-4,4.4-5,5.7c-1,1.4-1.6,2-0.9,2.9c0.8,0.9,1.7,0.7,2.1,0.6
	c0.5-0.1,2-1.3,3.1-2.4c1.1-1.1,4.6-4.8,4.9-5.3c0.4-0.4,1.6-1.7,1.6-1.7s0.3-0.5,1-0.5c0.7,0,1.2,0.1,1.9,0.3
	c0.7,0.2,2.3,0.5,1.4,1.4c-0.9,0.9-3.1,3.1-3.5,3.6c-0.5,0.6-2.3,2.6-2.6,3.2c-0.3,0.6-0.8,1.3-0.3,1.5c0.5,0.3,1.6-0.1,2.8-0.8
	c1.2-0.6,2.9-1.7,4.4-3.1c1.5-1.4,3.9-3.5,3.9-3.5s0.4-0.9,2.1-0.5c1.7,0.4,2.1,0.6,2.1,0.6s1.3,0.4,0.5,1.2c-0.9,0.8-3.9,3.5-5,4.6
	c-1.1,1.1-4.6,4.6-5.2,5.3c-0.6,0.7-2.3,2.3-1.6,2.4c0.7,0.1,5.9,1.1,7.1,1.4C97.8,30.5,101.9,31.9,102.2,32L102.2,32z"/>
</svg>
