<svg width="231" height="127" viewBox="0 0 231 127" fill="none" xmlns="http://www.w3.org/2000/svg">
<g clip-path="url(#clip0_122_2494)">
<path d="M137.82 87.8827C139.787 87.6529 141.9 88.1249 143.381 89.505C145.033 90.9575 145.821 93.1704 145.981 95.3276C146.159 97.118 146.039 98.9575 145.522 100.686C144.939 102.589 143.671 104.373 141.831 105.203C140.195 105.909 138.314 105.963 136.603 105.516C134.779 105.036 133.3 103.625 132.513 101.928C131.476 99.7394 131.352 97.2243 131.635 94.8511C131.858 92.7971 132.708 90.7492 134.261 89.36C135.24 88.4841 136.522 88.0015 137.82 87.8827ZM137.93 90.9359C136.301 91.2535 135.178 92.7847 134.88 94.3623C134.525 96.1727 134.514 98.1017 135.073 99.8719C135.541 101.278 136.727 102.537 138.23 102.746C139.752 103.03 141.319 102.163 142.056 100.826C142.852 99.3662 142.956 97.6453 142.898 96.0153C142.791 94.609 142.545 93.0824 141.533 92.0246C140.655 91.0191 139.21 90.6321 137.93 90.9359Z" fill="#EEEEEE"/>
<path d="M35.1289 87.865C41.1728 87.865 47.2151 87.8711 53.2573 87.8618C53.2405 89.6552 53.2956 91.4501 53.2298 93.2404C51.4866 93.2018 49.7388 93.2327 47.9925 93.225C47.9956 97.4163 47.9864 101.606 47.9971 105.799C45.4719 105.808 42.9496 105.794 40.4243 105.806C40.4091 101.612 40.4243 97.4177 40.4168 93.2234C38.6551 93.2234 36.892 93.2219 35.132 93.2234C35.1289 91.4378 35.1335 89.6521 35.1289 87.865Z" fill="#EEEEEE"/>
<path d="M58.4031 87.8662C61.0249 87.8677 63.6449 87.8693 66.2666 87.8662C68.7016 93.8493 71.1487 99.8261 73.57 105.815C71.1305 105.789 68.6893 105.803 66.2467 105.808C64.9489 102.295 63.6848 98.7684 62.39 95.254C61.0707 98.7467 59.8616 102.284 58.5928 105.798C56.1778 105.811 53.7627 105.795 51.3477 105.805C53.674 99.8169 56.0585 93.8493 58.4031 87.8662Z" fill="#EEEEEE"/>
<path d="M71.8556 93.2378C71.7973 91.4476 71.8463 89.6542 71.8311 87.8623C77.8626 87.8746 83.894 87.8639 89.9241 87.867C89.9226 89.6526 89.9241 91.4367 89.9226 93.2224C88.2069 93.2239 86.4913 93.2239 84.7756 93.2224C84.768 97.4167 84.771 101.611 84.7742 105.804C82.2535 105.799 79.7358 105.799 77.2167 105.804C77.2167 101.608 77.232 97.412 77.209 93.2178C75.4246 93.2393 73.6384 93.2039 71.8556 93.2378Z" fill="#EEEEEE"/>
<path d="M88.0215 105.798C90.4014 99.8299 92.7368 93.8438 95.1029 87.8731C97.7216 87.8699 100.34 87.8715 102.957 87.8715C105.409 93.8438 107.826 99.8299 110.27 105.804C107.821 105.798 105.369 105.827 102.922 105.791C101.659 102.276 100.363 98.7736 99.0929 95.2609C99.024 95.3843 98.9644 95.5122 98.9138 95.6449C97.7032 99.0327 96.4987 102.422 95.2805 105.807C92.8593 105.801 90.4412 105.818 88.0215 105.798Z" fill="#EEEEEE"/>
<path d="M118.154 88.0957C120.765 88.1096 123.38 88.0279 125.985 88.2546C127.473 88.4041 128.688 89.5714 129.219 90.9315C129.735 92.307 129.764 93.8367 129.454 95.2631C129.09 96.7789 128.019 98.2377 126.467 98.6432C124.743 99.0688 122.954 98.9331 121.196 98.9578C121.196 101.149 121.193 103.342 121.198 105.533C120.181 105.544 119.169 105.536 118.154 105.538C118.154 99.7241 118.154 93.9092 118.154 88.0957ZM121.195 91.0873C121.192 92.7234 121.195 94.3579 121.195 95.9924C122.283 95.994 123.373 96.0109 124.458 95.9199C125.119 95.8706 125.748 95.5252 126.113 94.9608C126.528 94.3641 126.53 93.5946 126.441 92.8991C126.279 92.0541 125.588 91.2646 124.704 91.1829C123.543 91.0163 122.364 91.1119 121.195 91.0873Z" fill="#EEEEEE"/>
<path d="M146.939 88.0972C147.973 88.0972 149.007 88.0972 150.04 88.0972C150.809 92.0386 151.481 96.0016 152.301 99.9292C153.213 95.9877 154.11 92.0401 155.027 88.0972C156.228 88.0972 157.432 88.0972 158.632 88.0972C159.492 92.1141 160.373 96.125 161.236 100.142C162.07 96.1419 162.776 92.111 163.555 88.1003C164.573 88.0987 165.592 88.0956 166.609 88.1033C165.398 93.9184 164.192 99.7349 162.949 105.54C161.886 105.54 160.828 105.531 159.766 105.547C158.721 101.234 157.783 96.8944 156.747 92.5784C155.765 96.8991 154.787 101.221 153.786 105.539C152.692 105.539 151.598 105.539 150.506 105.539C149.337 99.721 148.094 93.9184 146.939 88.0972Z" fill="#EEEEEE"/>
<path d="M168.117 88.0927C171.839 88.0927 175.56 88.0911 179.283 88.0942C179.283 89.0919 179.283 90.0865 179.283 91.0842C176.578 91.081 173.872 91.0873 171.166 91.081C171.149 92.3532 171.16 93.627 171.162 94.8975C173.683 94.9007 176.205 94.9037 178.724 94.8961C178.739 95.8737 178.729 96.8513 178.729 97.8274C176.206 97.829 173.683 97.8274 171.16 97.829C171.155 99.4003 171.155 100.972 171.16 102.543C173.956 102.541 176.752 102.541 179.546 102.543C179.547 103.538 179.547 104.535 179.547 105.533C175.736 105.533 171.928 105.533 168.115 105.533C168.117 99.721 168.117 93.906 168.117 88.0927Z" fill="#EEEEEE"/>
<path d="M182.098 88.0991C184.186 88.096 186.271 88.0976 188.36 88.0976C189.674 88.2193 191.088 88.0868 192.284 88.7544C193.584 89.5286 194.289 91.0722 194.339 92.5572C194.429 93.9573 194.146 95.49 193.123 96.5124C192.426 97.268 191.442 97.6411 190.464 97.8539C192.221 98.989 193.108 100.963 194.088 102.734C194.595 103.669 195.086 104.611 195.601 105.541C194.395 105.538 193.184 105.541 191.975 105.539C190.686 103.43 189.571 101.209 188.157 99.1801C187.481 98.187 186.187 98.2394 185.129 98.2394C185.128 100.673 185.131 103.105 185.128 105.538C184.12 105.539 183.108 105.539 182.1 105.538C182.098 99.7228 182.098 93.9111 182.098 88.0991ZM185.129 91.0876C185.128 92.5494 185.128 94.0097 185.129 95.4715C186.702 95.433 188.29 95.5764 189.85 95.3251C191.049 95.0783 191.456 93.5902 191.148 92.5324C190.998 91.6982 190.182 91.1276 189.367 91.1231C187.955 91.0506 186.542 91.1044 185.129 91.0876Z" fill="#EEEEEE"/>
<g clip-path="url(#clip1_122_2494)">
<path fill-rule="evenodd" clip-rule="evenodd" d="M115.805 20.8438C131.509 20.8438 145.062 27.4123 151.02 36.7786C142.051 34.3234 131.669 32.4323 120.886 32.7929C119.166 32.8506 117.835 33.2976 117.835 34.9203V73.978C116.512 74.0264 115.187 74.0274 113.863 73.9808V34.9203C113.863 33.297 112.532 32.8506 110.812 32.7929C99.9879 32.4306 89.5669 34.3381 80.5736 36.8074C86.5211 27.4253 100.086 20.8438 115.805 20.8438ZM153.623 42.6362C154.039 44.1998 154.251 45.8108 154.252 47.4289C154.252 58.9576 143.544 68.8105 128.657 72.4808L124.265 43.0132C123.908 40.6168 123.931 38.9862 125.97 38.924C137.41 38.5753 144.124 40.2754 153.623 42.6362ZM103.038 72.5011C88.1065 68.8472 77.3594 58.9796 77.3594 47.4295C77.3594 45.8023 77.5736 44.208 77.9828 42.6599C87.5306 40.2856 94.2507 38.5753 105.729 38.9252C107.768 38.9873 107.79 40.6179 107.433 43.0143L103.038 72.5011Z" fill="#EEEEEE"/>
</g>
</g>
<defs>
<clipPath id="clip0_122_2494">
<rect width="231" height="127" fill="white"/>
</clipPath>
<clipPath id="clip1_122_2494">
<rect width="77.8171" height="53.2924" fill="white" transform="translate(76.8887 20.7158)"/>
</clipPath>
</defs>
</svg>
