<svg width="231" height="127" viewBox="0 0 231 127" fill="none" xmlns="http://www.w3.org/2000/svg">
<g clip-path="url(#clip0_360_5139)">
<path d="M86.6894 96.6223C85.3666 96.2228 84.2631 95.5408 83.5457 94.307C82.1048 91.8223 82.5543 87.4096 85.6517 85.931C88.7917 84.4317 92.3653 86.2842 92.8987 89.7201C93.079 90.8833 93.0181 92.0184 92.6698 93.1377C92.1436 94.827 91.0437 95.9488 89.3337 96.4567C89.179 96.5029 89.0304 96.5663 88.8794 96.6223H86.6882H86.6894ZM84.9769 90.9027C84.972 92.1512 85.1316 92.8746 85.5433 93.592C86.581 95.4019 89.0633 95.5249 90.0937 93.7698C91.0864 92.0793 91.0925 90.2938 90.2252 88.546C89.2667 86.6143 86.5578 86.6776 85.5676 88.4571C85.1194 89.2634 84.9452 90.1147 84.9769 90.904V90.9027Z" fill="#EEEEEE"/>
<path d="M181.384 96.6229C179.246 96.0224 177.916 94.6388 177.555 92.4538C177.12 89.8242 177.826 87.4979 179.875 86.1862C183.073 84.1376 187.324 86.2666 187.602 90.0483C187.73 91.7851 187.546 93.4379 186.425 94.8776C185.688 95.8239 184.655 96.2539 183.575 96.6229H181.384V96.6229ZM182.552 87.1337C181.472 87.1337 180.741 87.5479 180.223 88.4979C179.485 89.8498 179.412 91.2797 179.836 92.7339C180.255 94.1699 181.312 95.0298 182.561 95.0188C183.865 95.0079 184.861 94.1273 185.267 92.6426C185.563 91.5623 185.571 90.4856 185.256 89.4089C184.833 87.9644 183.844 87.135 182.552 87.135V87.1337Z" fill="#EEEEEE"/>
<path d="M124.172 96.6213C121.675 95.8881 121.159 94.0526 121.123 92.0722C121.089 90.1478 121.131 88.2234 121.104 86.2991C121.096 85.7412 121.286 85.5537 121.839 85.5561C123.197 85.561 123.196 85.5403 123.197 86.9044C123.197 88.6461 123.202 90.389 123.197 92.1307C123.197 92.5801 123.249 93.0198 123.38 93.4497C123.67 94.4009 124.345 94.9576 125.261 95.0026C126.19 95.0477 126.914 94.5739 127.295 93.6507C127.507 93.1379 127.569 92.5971 127.568 92.0442C127.564 90.1393 127.585 88.2356 127.557 86.3307C127.548 85.751 127.737 85.5476 128.322 85.5549C129.653 85.5707 129.654 85.5463 129.654 86.8691C129.654 88.5097 129.663 90.1515 129.652 91.7921C129.632 94.4899 128.828 95.6628 126.363 96.6225H124.172V96.6213Z" fill="#EEEEEE"/>
<path d="M201.468 96.629C201.044 96.495 200.621 96.3598 200.196 96.2295C199.779 96.1016 199.577 95.8654 199.758 95.4171C199.788 95.3428 199.803 95.2612 199.823 95.1833C199.984 94.6003 200.348 94.4144 200.916 94.6255C201.671 94.9044 202.454 94.9811 203.25 94.8995C203.949 94.8289 204.454 94.416 204.589 93.8448C204.748 93.1773 204.544 92.6597 203.848 92.2809C203.175 91.9143 202.446 91.6536 201.756 91.3163C200.851 90.8729 200.127 90.2457 199.887 89.2128C199.571 87.856 200.276 86.47 201.598 85.8756C202.982 85.252 204.392 85.3202 205.806 85.7831C206.186 85.9073 206.341 86.1229 206.167 86.5138C206.134 86.5869 206.118 86.6685 206.095 86.7452C205.924 87.3047 205.551 87.5004 204.974 87.3323C204.342 87.1472 203.698 87.079 203.053 87.2178C202.486 87.3408 202.024 87.6417 201.911 88.2555C201.798 88.8669 202.18 89.2616 202.653 89.5295C203.144 89.8084 203.67 90.0289 204.195 90.2408C205.347 90.7061 206.301 91.3674 206.7 92.617V94.198C206.313 95.1431 205.735 95.9092 204.738 96.2795C204.419 96.3976 204.098 96.5133 203.778 96.6302H201.465L201.468 96.629Z" fill="#EEEEEE"/>
<path d="M150.714 96.6239C149.611 96.3243 148.532 95.9711 147.743 95.0734C146.18 93.2964 145.995 91.2466 146.676 89.092C147.316 87.0665 148.82 85.9655 150.863 85.549C151.978 85.3212 153.08 85.4199 154.178 85.6842C154.673 85.8035 154.886 86.041 154.666 86.5501C154.601 86.6975 154.557 86.8571 154.529 87.0166C154.457 87.4392 154.243 87.5355 153.839 87.4027C152.954 87.1116 152.049 87.0665 151.14 87.2919C150.277 87.505 149.542 87.9301 149.109 88.7205C148.283 90.2308 148.243 91.7959 149.058 93.311C149.751 94.5984 151.337 95.1611 153.109 94.8652C153.249 94.842 153.388 94.8116 153.527 94.7823C154.426 94.596 154.395 94.6033 154.608 95.4705C154.757 96.0734 154.545 96.3389 153.97 96.4278C153.733 96.4644 153.504 96.5569 153.271 96.6239H150.714V96.6239Z" fill="#EEEEEE"/>
<path d="M78.0451 96.6256C77.0865 96.3053 76.1194 96.0191 75.3655 95.2725C73.681 93.6039 73.4508 91.576 73.9891 89.4263C74.5214 87.3033 75.9879 86.0622 78.1048 85.5799C79.2533 85.3181 80.397 85.4058 81.5383 85.6664C82.0572 85.7845 82.2849 86.0281 82.0693 86.564C82.017 86.6944 81.9841 86.8356 81.9597 86.9745C81.8842 87.4044 81.6832 87.5494 81.2375 87.3959C80.4993 87.1426 79.7271 87.078 78.9574 87.2071C76.6432 87.5932 75.7394 89.3775 75.9209 91.4091C76.1706 94.2068 78.1035 95.4235 81.0487 94.7695C81.3921 94.6927 81.7795 94.4053 81.9293 95.0581C82.1668 96.0958 82.1522 96.2018 81.4177 96.4161C81.1863 96.4844 80.9549 96.555 80.7235 96.6256H78.0451V96.6256Z" fill="#EEEEEE"/>
<path d="M114.42 45.1089C114.42 42.7387 114.421 40.3686 114.419 37.9984C114.419 37.1872 114.247 36.9668 113.432 36.817C112.057 36.5624 110.682 36.7305 109.315 36.8961C106.455 37.2421 103.636 37.8267 100.811 38.3833C100.565 38.432 100.211 38.6183 100.068 38.4016C99.8988 38.1458 100.214 37.8924 100.37 37.6696C101.986 35.3627 104.223 33.8366 106.812 32.8769C113.215 30.5043 119.528 30.6882 125.651 33.8537C127.474 34.7964 129.016 36.1057 130.162 37.8364C130.279 38.0118 130.523 38.2018 130.372 38.4198C130.242 38.6086 129.989 38.4539 129.801 38.4186C127.212 37.9217 124.633 37.3797 122.021 37.0192C120.616 36.8255 119.207 36.6489 117.783 36.7135C117.481 36.7269 117.176 36.7622 116.881 36.8279C116.085 37.007 115.922 37.214 115.922 38.0459C115.919 42.8069 115.922 47.5667 115.919 52.3277C115.919 53.0524 115.846 53.0926 115.115 53.1133C114.587 53.1279 114.408 52.9258 114.412 52.4008C114.432 49.9698 114.421 47.5387 114.421 45.1077L114.42 45.1089Z" fill="#EEEEEE"/>
<path d="M131.5 42.2168C131.497 45.0523 130.087 47.1776 128.024 48.9376C125.997 50.6658 123.608 51.6926 121.053 52.3795C120.529 52.5208 120.338 52.3722 120.228 51.857C119.538 48.6343 118.714 45.4383 118.266 42.1657C118.192 41.6249 118.12 41.0817 118.101 40.5373C118.063 39.4667 118.392 39.1524 119.455 39.0075C120.612 38.8492 121.764 38.9405 122.909 39.0404C125.411 39.2572 127.897 39.6153 130.345 40.1926C131.411 40.4447 131.462 40.5105 131.499 41.6103C131.506 41.8125 131.499 42.0147 131.499 42.2168H131.5Z" fill="#EEEEEE"/>
<path d="M112.257 41.0271C112.12 42.7505 111.723 44.7346 111.29 46.7125C110.907 48.453 110.505 50.1886 110.133 51.9303C110.041 52.3554 109.878 52.5137 109.429 52.3931C106.36 51.5734 103.563 50.2763 101.341 47.9268C99.8977 46.4007 99.0354 44.6164 98.8709 42.5106C98.8271 41.9576 98.944 41.4217 99.0098 40.8809C99.0573 40.4912 99.3423 40.3621 99.6809 40.2841C101.598 39.842 103.532 39.4937 105.486 39.2671C106.692 39.1271 107.905 39.0382 109.116 38.9334C109.828 38.8713 110.536 38.9699 111.235 39.071C112.139 39.2014 112.276 39.4681 112.259 41.0259L112.257 41.0271Z" fill="#EEEEEE"/>
<path d="M39.7968 90.2432C39.6311 90.7364 39.4643 91.2309 39.2986 91.7254C38.8358 93.1078 38.3632 94.4878 37.9198 95.8762C37.7822 96.3062 37.5581 96.5096 37.0928 96.4998C36.1404 96.4791 35.1867 96.4828 34.2342 96.4998C33.7336 96.5084 33.5789 96.361 33.7665 95.8531C34.9711 92.6072 36.1635 89.3565 37.3425 86.1009C37.4923 85.688 37.7177 85.5345 38.1464 85.5418C39.2816 85.5613 40.4167 85.5613 41.5519 85.5394C41.9843 85.5309 42.2023 85.6953 42.357 86.0996C43.5908 89.3126 44.8466 92.5183 46.0938 95.7264C46.3642 96.4207 46.3192 96.4889 45.5738 96.4937C44.6006 96.4998 43.6274 96.4791 42.6542 96.5023C42.1926 96.5132 41.966 96.333 41.8248 95.8933C41.2864 94.2162 40.7164 92.5488 40.1561 90.8789C40.0867 90.6707 40.0075 90.4648 39.9332 90.2578C39.8869 90.2529 39.8406 90.248 39.7943 90.2432H39.7968Z" fill="#EEEEEE"/>
<path d="M109.493 63.1449C109.242 63.3897 109.218 63.6212 109.149 63.827C108.587 65.4968 108.022 67.1667 107.48 68.8426C107.347 69.2518 107.133 69.4308 106.692 69.4199C105.699 69.3967 104.705 69.4065 103.711 69.4162C103.324 69.4199 103.134 69.3468 103.301 68.8937C104.515 65.6077 105.72 62.3167 106.916 59.0246C107.061 58.6263 107.286 58.446 107.722 58.4533C108.878 58.4728 110.034 58.468 111.19 58.4558C111.57 58.4521 111.773 58.6044 111.911 58.9612C113.17 62.2302 114.446 65.4944 115.712 68.761C115.941 69.3505 115.9 69.4077 115.242 69.4126C114.248 69.4199 113.254 69.3919 112.262 69.4235C111.768 69.4394 111.537 69.2494 111.39 68.7902C110.859 67.1313 110.295 65.4834 109.742 63.8319C109.672 63.6236 109.592 63.4202 109.492 63.1462L109.493 63.1449Z" fill="#EEEEEE"/>
<path d="M60.8333 90.0833C60.3388 91.5084 59.8942 92.7824 59.4533 94.0576C59.2353 94.6885 59.0173 95.3206 58.8163 95.9564C58.7043 96.3108 58.4996 96.4947 58.1135 96.4911C57.1002 96.4813 56.0868 96.4813 55.0746 96.4911C54.5923 96.4959 54.5351 96.2828 54.6836 95.8809C55.8943 92.596 57.1002 89.3099 58.2999 86.0202C58.4205 85.6889 58.6105 85.5355 58.971 85.5391C60.1659 85.5513 61.3619 85.5489 62.5568 85.5391C62.8881 85.5367 63.0757 85.6755 63.195 85.9812C64.4873 89.2783 65.782 92.5753 67.0877 95.8675C67.2777 96.3461 67.1121 96.4935 66.648 96.4911C65.5945 96.4837 64.5409 96.4777 63.4873 96.4947C63.0598 96.502 62.8856 96.284 62.7663 95.9125C62.2243 94.2159 61.6652 92.5254 61.1098 90.8336C61.0428 90.6302 60.9612 90.4305 60.8333 90.0833V90.0833Z" fill="#EEEEEE"/>
<path d="M130.455 63.0166C129.771 65.0055 129.12 66.8349 128.523 68.6825C128.344 69.2379 128.082 69.4633 127.488 69.4316C126.599 69.3841 125.703 69.4243 124.812 69.417C124.176 69.4109 124.124 69.3366 124.339 68.7483C125.418 65.8008 126.495 62.8509 127.586 59.9083C128.124 58.4602 128.138 58.465 129.706 58.465C130.477 58.465 131.248 58.4784 132.017 58.4614C132.438 58.4516 132.695 58.6002 132.852 59.0034C134.14 62.3053 135.439 65.6035 136.746 68.8981C136.919 69.3329 136.768 69.4291 136.358 69.4243C135.324 69.4109 134.289 69.3926 133.256 69.4316C132.721 69.4523 132.507 69.2172 132.36 68.7471C131.806 66.9896 131.222 65.2406 130.647 63.4891C130.611 63.3783 130.56 63.2711 130.456 63.0178L130.455 63.0166Z" fill="#EEEEEE"/>
<path d="M116.75 88.1003C116.548 88.7689 116.36 89.4437 116.14 90.1063C115.505 92.0075 114.832 93.8978 114.228 95.8088C114.039 96.4044 113.649 96.369 113.192 96.3849C112.715 96.4019 112.402 96.2972 112.246 95.7698C111.492 93.2291 110.621 90.725 109.975 88.1405C109.927 88.8506 109.867 89.5606 109.832 90.2707C109.739 92.1293 109.648 93.9891 109.575 95.849C109.557 96.3008 109.394 96.4957 108.921 96.5091C107.552 96.5505 107.546 96.5103 107.664 95.1523C107.845 93.0574 107.954 90.9552 108.09 88.8554C108.149 87.9675 108.205 87.0784 108.257 86.1905C108.283 85.7508 108.485 85.5681 108.95 85.5547C110.949 85.4999 110.957 85.4841 111.57 87.3902C112.172 89.2598 112.809 91.1196 113.24 93.0391C113.266 93.1536 113.267 93.2852 113.43 93.385C113.664 92.558 113.867 91.7371 114.129 90.9345C114.652 89.3365 115.217 87.7532 115.739 86.1564C115.883 85.7167 116.133 85.5365 116.586 85.5584C117.03 85.5803 117.479 85.5779 117.923 85.5584C118.367 85.5401 118.578 85.6838 118.604 86.1723C118.693 87.9298 118.828 89.6849 118.937 91.4412C119.025 92.8747 119.086 94.3107 119.191 95.7418C119.235 96.3337 119.014 96.5201 118.434 96.5115C117.169 96.4933 117.163 96.5176 117.112 95.2497C117.021 92.9453 116.939 90.6397 116.853 88.3341C116.85 88.2598 116.835 88.1868 116.827 88.1125C116.8 88.1076 116.773 88.1027 116.747 88.0978L116.75 88.1003Z" fill="#EEEEEE"/>
<path d="M103.564 88.1294C102.836 90.3534 102.051 92.5445 101.322 94.7527C101.239 95.0023 101.153 95.252 101.062 95.4993C100.725 96.414 100.723 96.3933 99.7686 96.3896C99.3228 96.3884 99.1145 96.202 98.9939 95.794C98.2753 93.3459 97.4045 90.9429 96.8551 88.4448C96.8308 88.3328 96.7881 88.2232 96.7078 87.9613C96.6103 89.8662 96.5214 91.6006 96.4325 93.335C96.3886 94.2046 96.3375 95.073 96.3022 95.9426C96.2876 96.3104 96.1316 96.4785 95.748 96.509C94.3193 96.621 94.3022 96.5772 94.4191 95.1278C94.5848 93.0707 94.692 91.0099 94.8247 88.9503C94.882 88.0624 94.949 87.1733 94.9916 86.2842C95.0172 85.7604 95.2328 85.512 95.7857 85.5607C96.1877 85.596 96.5981 85.5936 97.0013 85.5607C97.5457 85.5181 97.7906 85.7677 97.9501 86.2708C98.6663 88.5289 99.4495 90.7675 99.9842 93.0804C100.006 93.1754 100.048 93.2667 100.13 93.5079C100.412 92.536 100.63 91.6907 100.9 90.8613C101.421 89.2633 101.977 87.6763 102.507 86.0808C102.627 85.719 102.846 85.5583 103.225 85.5668C103.732 85.5777 104.24 85.579 104.747 85.5668C105.156 85.5558 105.313 85.7324 105.336 86.1441C105.437 88.0234 105.565 89.9003 105.681 91.7784C105.762 93.1108 105.827 94.4457 105.928 95.777C105.971 96.3397 105.759 96.5224 105.205 96.5175C103.918 96.5077 103.909 96.5297 103.85 95.1655C103.749 92.821 103.659 90.4764 103.565 88.1318L103.564 88.1294Z" fill="#EEEEEE"/>
<path d="M98.9334 58.4541C100.474 58.4541 102.014 58.4663 103.554 58.448C104.042 58.4419 104.26 58.6003 104.238 59.1118C104.207 59.8194 104.223 60.5283 104.23 61.2371C104.234 61.5952 104.072 61.7536 103.716 61.7499C103.129 61.7438 102.54 61.773 101.954 61.745C101.455 61.7219 101.273 61.9155 101.277 62.4149C101.294 64.4392 101.285 66.4634 101.283 68.4877C101.283 69.3829 101.256 69.4072 100.363 69.4097C99.4511 69.4121 98.5388 69.4121 97.6277 69.4097C96.7654 69.4072 96.7617 69.4036 96.7605 68.5157C96.7593 66.5121 96.7422 64.5074 96.7715 62.5038C96.78 61.9229 96.5973 61.6975 96.009 61.7426C95.4645 61.784 94.9128 61.7207 94.3683 61.7596C93.7691 61.8023 93.5791 61.5477 93.6132 60.9802C93.6485 60.3748 93.6436 59.7646 93.6132 59.1593C93.5876 58.6392 93.7788 58.437 94.3123 58.4456C95.8519 58.4699 97.3926 58.4541 98.9334 58.4541V58.4541Z" fill="#EEEEEE"/>
<path d="M119.898 58.4544C121.339 58.4544 122.778 58.4544 124.219 58.4544C124.858 58.4544 125.178 58.7832 125.179 59.4409C125.179 60.028 125.168 60.6163 125.179 61.2033C125.186 61.5894 125.017 61.7575 124.633 61.7514C124.066 61.7429 123.496 61.777 122.929 61.7441C122.398 61.7136 122.218 61.9122 122.224 62.4444C122.246 64.4906 122.235 66.5368 122.233 68.583C122.233 69.3868 122.211 69.4075 121.419 69.4099C120.404 69.4124 119.39 69.3929 118.376 69.4173C117.876 69.4294 117.698 69.2419 117.703 68.7425C117.721 66.6561 117.695 64.5685 117.72 62.4822C117.726 61.9341 117.563 61.7088 116.994 61.7429C116.368 61.7806 115.737 61.7441 115.108 61.749C114.755 61.7514 114.58 61.5845 114.579 61.2362C114.576 60.4871 114.579 59.7369 114.576 58.9878C114.574 58.4982 114.893 58.4519 115.274 58.4531C116.816 58.458 118.358 58.4556 119.899 58.4544H119.898Z" fill="#EEEEEE"/>
<path d="M29.4162 85.54C30.9168 85.54 32.4186 85.5376 33.9192 85.54C34.6646 85.5413 34.695 85.5741 34.6999 86.3378C34.7036 86.9456 34.6841 87.5533 34.7048 88.1611C34.7218 88.6617 34.5026 88.8541 34.0142 88.8359C33.4466 88.8151 32.8778 88.8505 32.3102 88.8273C31.834 88.8078 31.6695 89.0052 31.6732 89.4729C31.6878 91.519 31.661 93.5652 31.6902 95.6114C31.6988 96.2167 31.5136 96.4433 30.8925 96.4165C29.8803 96.3738 28.8633 96.3836 27.8511 96.4128C27.3164 96.4286 27.1435 96.2228 27.1483 95.7027C27.1678 93.6773 27.1361 91.6506 27.1678 89.6251C27.1776 89.0173 26.9936 88.775 26.3725 88.8225C25.8073 88.8651 25.2373 88.8212 24.6697 88.8322C24.2556 88.8407 24.0887 88.658 24.0997 88.2451C24.1179 87.5765 24.1289 86.9066 24.096 86.2404C24.0704 85.7154 24.258 85.523 24.7939 85.5315C26.3347 85.5571 27.8767 85.5413 29.4187 85.54H29.4162Z" fill="#EEEEEE"/>
<path d="M50.3614 85.54C51.9009 85.54 53.4405 85.5546 54.98 85.5314C55.4892 85.5241 55.667 85.7202 55.6499 86.2099C55.6268 86.8773 55.6341 87.5447 55.6463 88.2122C55.6548 88.647 55.4672 88.8431 55.0288 88.8321C54.5026 88.8199 53.9752 88.8297 53.449 88.8321C52.6415 88.8358 52.6232 88.8504 52.622 89.6384C52.6196 91.6213 52.622 93.6041 52.6196 95.587C52.6196 96.3847 52.6001 96.4018 51.8011 96.4042C50.7877 96.4066 49.7743 96.3859 48.7622 96.4115C48.2567 96.4237 48.0862 96.2252 48.091 95.7343C48.1069 93.7917 48.0971 91.8502 48.0971 89.9076C48.0971 89.1906 47.7281 88.8321 46.99 88.8321C46.5442 88.8321 46.0984 88.8199 45.6526 88.8333C45.2227 88.8467 45.0217 88.6848 45.0363 88.2305C45.0594 87.5435 45.0607 86.8542 45.0363 86.1672C45.018 85.6873 45.2178 85.529 45.6818 85.5339C47.2421 85.5509 48.8011 85.54 50.3614 85.54V85.54Z" fill="#EEEEEE"/>
<path d="M133.684 88.5744C133.684 89.198 133.684 89.8216 133.684 90.4452C133.684 92.2477 133.675 94.0491 133.692 95.8517C133.697 96.3145 133.54 96.4984 133.063 96.507C131.822 96.5313 131.822 96.5484 131.822 95.3134C131.822 92.3172 131.834 89.3198 131.811 86.3236C131.806 85.7426 132.004 85.5977 132.573 85.5368C133.684 85.4174 134.342 85.7986 134.885 86.8047C136.057 88.9739 137.484 91.0005 138.624 93.244C138.624 92.8774 138.652 92.5084 138.619 92.1454C138.439 90.165 138.574 88.1797 138.525 86.1969C138.513 85.7182 138.734 85.5672 139.186 85.5538C140.482 85.5124 140.486 85.5051 140.486 86.7706C140.486 89.7473 140.488 92.7227 140.486 95.6994C140.486 96.4655 140.449 96.4266 139.707 96.5131C138.735 96.6263 138.171 96.2877 137.691 95.4108C136.432 93.104 134.973 90.9092 133.685 88.5719L133.684 88.5744Z" fill="#EEEEEE"/>
<path d="M191.148 88.4872C191.148 90.8537 191.154 93.2214 191.141 95.5879C191.14 95.8863 191.313 96.3187 190.905 96.4441C190.445 96.5854 189.94 96.5732 189.467 96.4331C189.259 96.371 189.283 96.1384 189.283 95.9594C189.281 92.6794 189.283 89.3994 189.277 86.1206C189.277 85.7321 189.441 85.558 189.821 85.5726C189.841 85.5726 189.861 85.5726 189.881 85.5713C190.969 85.5161 191.794 85.9583 192.356 86.8977C193.567 88.9329 194.875 90.9133 195.87 93.0716C195.902 93.1398 195.953 93.1982 196.084 93.3895C196.084 92.8377 196.116 92.4224 196.077 92.0144C195.901 90.1143 196.038 88.2107 195.981 86.3094C195.964 85.7553 196.179 85.5153 196.727 85.5701C196.746 85.5726 196.767 85.5701 196.788 85.5701C197.557 85.5588 197.942 85.9298 197.942 86.6833C197.942 89.6795 197.942 92.6757 197.942 95.6719C197.942 96.4843 197.913 96.4356 197.141 96.5257C196.157 96.6414 195.609 96.2712 195.137 95.4015C193.874 93.0716 192.386 90.8683 191.147 88.4872H191.148Z" fill="#EEEEEE"/>
<path d="M160.397 85.5715C161.868 85.5825 161.613 85.4436 162.054 86.7858C163.042 89.7881 164.011 92.7965 164.987 95.8024C165.202 96.4662 165.177 96.5174 164.503 96.5076C162.797 96.4857 163.114 96.7597 162.567 95.1082C161.91 93.1217 162.378 93.5127 160.378 93.4652C160.357 93.4652 160.338 93.4652 160.317 93.4652C158.352 93.5187 158.812 93.0949 158.15 95.1216C158.144 95.1411 158.14 95.1606 158.134 95.18C157.725 96.6051 157.651 96.6477 156.154 96.5113C155.771 96.476 155.651 96.331 155.771 95.9632C156.03 95.174 156.272 94.3798 156.527 93.5882C157.25 91.3313 157.966 89.072 158.707 86.8199C159.164 85.429 158.886 85.5837 160.396 85.5703L160.397 85.5715ZM160.368 87.6798C159.954 88.9575 159.517 90.2108 159.139 91.4811C159.044 91.799 159.204 91.8733 159.479 91.8708C160.045 91.8647 160.611 91.8647 161.177 91.8708C161.488 91.8733 161.634 91.7771 161.527 91.436C161.134 90.1864 160.754 88.9331 160.369 87.6823L160.368 87.6798Z" fill="#EEEEEE"/>
<path d="M169.467 91.9591C169.467 93.2551 169.452 94.5522 169.475 95.8469C169.483 96.3511 169.29 96.5253 168.795 96.5168C167.184 96.4924 167.391 96.6495 167.386 95.1258C167.377 92.7971 167.369 90.4684 167.394 88.1396C167.4 87.5574 167.208 87.3345 166.625 87.3735C166.059 87.41 165.489 87.3735 164.922 87.382C164.528 87.3893 164.34 87.2505 164.323 86.8193C164.274 85.5697 164.258 85.5709 165.511 85.5709C167.62 85.5709 169.729 85.5685 171.838 85.5734C172.573 85.5746 172.617 85.6379 172.613 86.5173C172.61 87.3199 172.564 87.3735 171.816 87.3796C171.269 87.3845 170.719 87.404 170.174 87.3747C169.655 87.3467 169.448 87.5318 169.46 88.0702C169.488 89.3661 169.469 90.662 169.469 91.9579L169.467 91.9591Z" fill="#EEEEEE"/>
<path d="M142.655 91.0211C142.655 89.4621 142.674 87.9019 142.645 86.3429C142.634 85.7765 142.799 85.5475 143.397 85.5549C144.736 85.5695 144.738 85.5439 144.738 86.8605C144.738 89.797 144.739 92.7335 144.736 95.67C144.736 96.4508 144.682 96.5031 143.912 96.5044C142.501 96.5068 142.661 96.5847 142.656 95.273C142.65 93.8553 142.655 92.4376 142.655 91.0199V91.0211Z" fill="#EEEEEE"/>
<path d="M175.8 91.0475C175.8 92.6272 175.78 94.2069 175.809 95.7866C175.82 96.3517 175.612 96.5223 175.066 96.5198C173.717 96.5125 173.717 96.532 173.717 95.1642C173.717 92.2886 173.717 89.413 173.717 86.5374C173.717 85.591 173.736 85.574 174.655 85.5703C175.418 85.5671 175.8 85.9552 175.8 86.7347C175.8 88.1731 175.8 89.6103 175.8 91.0487V91.0475Z" fill="#EEEEEE"/>
</g>
<defs>
<clipPath id="clip0_360_5139">
<rect width="231" height="127" fill="white"/>
</clipPath>
</defs>
</svg>
