<svg width="231" height="127" viewBox="0 0 231 127" fill="none" xmlns="http://www.w3.org/2000/svg">
<g clip-path="url(#clip0_665_5771)">
<g clip-path="url(#clip1_665_5771)">
<path fill-rule="evenodd" clip-rule="evenodd" d="M45.6414 37.9781L23.269 37.9766V43.2189L31.4232 43.2207V60.422H37.4752L37.4734 43.2189L45.6414 43.2201V37.9781Z" fill="#CECECE"/>
<path fill-rule="evenodd" clip-rule="evenodd" d="M106.49 76.047C106.49 74.0836 104.892 72.5056 102.928 72.5056H95.055C94.367 72.5056 94.023 72.85 93.6583 73.3964C93.638 73.4159 91.3111 76.7763 91.3111 76.7763H98.9002C99.3321 76.7954 99.7398 76.981 100.038 77.294C100.336 77.6071 100.501 78.0235 100.499 78.4558V88.9606H106.49V76.0872V76.047ZM85.32 66.5149H91.3108V88.9606H85.32V66.5149ZM137.375 72.5056H120.354V88.9602H126.385V76.7763H133.226C134.157 76.7763 134.927 77.5248 134.927 78.4558V88.9602H140.938V76.047C140.938 74.0836 139.338 72.5056 137.375 72.5056ZM52.0466 66.5149H23.2661V88.9609H29.2366V71.7571H35.6321C36.2394 71.7571 36.725 72.2634 36.725 72.8706V88.9609H42.7161V72.8706C42.7156 72.7243 42.744 72.5793 42.7998 72.444C42.8556 72.3087 42.9375 72.1858 43.041 72.0823C43.1444 71.9788 43.2673 71.8968 43.4026 71.841C43.5379 71.7852 43.6829 71.7567 43.8292 71.7571H48.545C49.4557 71.7571 50.2045 72.4857 50.2045 73.3968V88.9609H56.1753V70.6436C56.1764 70.1011 56.0703 69.5637 55.8632 69.0623C55.6561 68.5609 55.352 68.1053 54.9683 67.7217C54.5847 67.3381 54.129 67.0341 53.6276 66.8271C53.1261 66.62 52.5887 66.514 52.0462 66.5152M110.437 77.8485V88.9609H116.428V72.6889C116.428 72.6889 113.655 74.4089 111.692 75.6433C110.943 76.1285 110.437 76.9385 110.437 77.8492M110.437 66.495H116.428V70.6432L110.437 74.6098V66.495ZM172.977 72.5056C171.478 72.5056 170.507 73.6593 170.507 74.8941V88.9602H176.539V78.4757C176.539 77.5451 177.206 76.7557 178.158 76.7557H182.631C183.278 76.7158 183.825 76.3313 184.169 75.8247C184.189 75.8044 186.516 72.5056 186.516 72.5056H172.977ZM160.55 66.5149V84.8525H151.867C151.26 84.8525 150.834 84.3256 150.834 83.8805V78.4561H150.855C150.855 78.2354 150.898 78.0167 150.982 77.8126C151.066 77.6086 151.19 77.4232 151.346 77.2671C151.502 77.111 151.688 76.9874 151.892 76.9032C152.096 76.819 152.314 76.776 152.535 76.7767H156.926C157.574 76.7767 158.242 76.3921 158.525 75.9471L160.55 72.506H148.367C146.422 72.506 144.824 74.084 144.824 76.0474V86.0054C144.824 87.9079 146.341 88.9609 147.738 88.9609H166.561V66.5149H160.55ZM204.105 72.5056H190.261C189.573 72.5056 188.946 72.8289 188.561 73.3562L186.234 76.7763H200.179C201.049 76.8165 201.757 77.5657 201.757 78.4558L201.736 84.9929H191.293V83.1107C191.293 82.7471 191.597 82.4426 191.961 82.4426H199.268V80.0147C199.268 79.4277 198.904 79.1032 198.397 79.1032H188.277C187.023 79.1032 186.031 80.0946 186.031 81.3302V87.3003C186.031 87.3405 186.031 87.3615 186.052 87.402C186.193 88.2913 186.963 88.9598 187.893 88.9598H207.647V76.0466C207.648 75.5812 207.557 75.1201 207.38 74.6898C207.202 74.2596 206.941 73.8686 206.612 73.5395C206.283 73.2104 205.892 72.9497 205.462 72.7721C205.031 72.5946 204.57 72.5039 204.105 72.5052M78.054 72.5056H64.2102C63.5424 72.5056 62.895 72.8289 62.5307 73.3562L60.1824 76.7763H74.1276C74.9981 76.8165 75.7064 77.5657 75.7064 78.4558V84.9929H65.2425V83.1107C65.2425 82.7471 65.546 82.4426 65.9103 82.4426H73.2165V80.0147C73.2165 79.4277 72.8526 79.1032 72.3464 79.1032H62.2265C60.9722 79.1032 59.9807 80.0946 59.9807 81.3302V87.3003C59.9807 87.3405 59.9807 87.3615 60.0006 87.402C60.0713 87.8387 60.2958 88.2357 60.6335 88.5214C60.9713 88.807 61.4 88.9625 61.8423 88.9598H81.5961V76.0466C81.5973 75.5812 81.5065 75.1201 81.3289 74.6898C81.1513 74.2596 80.8904 73.8686 80.5612 73.5395C80.2321 73.2104 79.8411 72.9497 79.4108 72.7721C78.9805 72.5946 78.5194 72.5043 78.054 72.5056Z" fill="#B1B1B1"/>
<path fill-rule="evenodd" clip-rule="evenodd" d="M116.428 47.7978C116.428 45.8348 114.828 44.2563 112.865 44.2563H104.786C104.097 44.2563 103.753 44.6 103.389 45.1464C103.369 45.1663 101.041 48.5263 101.041 48.5263H108.837C109.269 48.5456 109.677 48.7313 109.975 49.0444C110.273 49.3575 110.438 49.7738 110.436 50.2061V60.7109H116.428V47.8387V47.7978ZM95.0503 38.2652H101.041V60.7106H95.0503V38.2652ZM78.4237 54.7604H78.444C78.444 54.9817 78.4877 55.2009 78.5727 55.4052C78.6576 55.6096 78.7821 55.7952 78.939 55.9513C79.0959 56.1074 79.2821 56.2309 79.4869 56.3148C79.6917 56.3987 79.9111 56.4414 80.1324 56.4402L91.326 56.4395V60.7106H75.9421C73.9892 60.7106 72.3826 59.1318 72.3826 57.1688V44.9909V47.5172C72.3826 45.5542 73.9896 43.9751 75.9421 43.9751H91.2899L90.3454 46.3226C90.1456 46.8176 90.042 47.2382 89.5876 47.5578C89.2631 47.7865 88.9886 47.9457 88.571 47.9457H80.1324C79.9111 47.9447 79.6918 47.9874 79.487 48.0713C79.2823 48.1553 79.0961 48.2789 78.9392 48.435C78.7824 48.5912 78.6579 48.7767 78.573 48.9811C78.4881 49.1855 78.4443 49.4046 78.4443 49.6259H78.4241L78.4237 54.7604ZM51.5424 60.5044H64.3598C65.0272 60.5044 65.6746 60.1803 66.0393 59.6545L68.3872 56.2337H55.4691C54.5994 56.1935 53.8903 55.4443 53.8903 54.5538V48.0167H63.3278V49.8989C63.3278 50.2632 63.024 50.5667 62.6593 50.5667H56.3806V52.9957C56.3806 53.5823 56.7449 53.906 57.2507 53.906H66.3431C67.5978 53.906 68.5896 52.915 68.5896 51.6802V45.709C68.5896 45.6688 68.5896 45.6489 68.5693 45.6083C68.499 45.1715 68.2747 44.7743 67.937 44.4885C67.5993 44.2026 67.1704 44.047 66.728 44.0498H48.001V56.9626C47.9998 57.428 48.0906 57.8891 48.2681 58.3194C48.4457 58.7496 48.7065 59.1405 49.0355 59.4697C49.3646 59.7988 49.7555 60.0597 50.1857 60.2373C50.6159 60.415 51.077 60.5059 51.5424 60.5048" fill="#CECECE"/>
</g>
</g>
<defs>
<clipPath id="clip0_665_5771">
<rect width="231" height="127" fill="white"/>
</clipPath>
<clipPath id="clip1_665_5771">
<rect width="184.479" height="51.03" fill="white" transform="translate(23.2603 37.9844)"/>
</clipPath>
</defs>
</svg>
