<?xml version="1.0" encoding="utf-8"?>
<!-- Generator: Adobe Illustrator 27.7.0, SVG Export Plug-In . SVG Version: 6.00 Build 0)  -->
<svg version="1.1" id="Layer_1" xmlns="http://www.w3.org/2000/svg" xmlns:xlink="http://www.w3.org/1999/xlink" x="0px" y="0px"
	 viewBox="0 0 50 45" style="enable-background:new 0 0 50 45;" xml:space="preserve">
<style type="text/css">
	.st0{fill:#FFFFFF;}
</style>
<g>
	<path class="st0" d="M30.4,15.8c0.8,0.4,1.5,0.8,2.3,1.1c0.4,0.2,0.5,0.4,0.5,0.8c0,3,0,6,0,9c0,0.5-0.2,0.8-0.6,1
		c-0.4,0.2-0.8,0.3-1.2,0.5c-0.3,0.1-0.5-0.1-0.5-0.4c-0.1-0.3,0-0.6,0.3-0.7c0.8-0.2,0.9-0.6,0.9-1.4c-0.1-2.3,0-4.5,0-6.8
		c0-0.1,0-0.3,0-0.5c-0.3,0.1-0.5,0.2-0.7,0.3c-1.6,0.8-3.1,1.6-4.7,2.2c-0.9,0.4-1.1,0.8-1.1,1.7c0.1,2.2,0,4.4,0,6.6
		c0,0.1,0,0.3,0,0.5c1.1-0.5,2.1-1,3.2-1.5c0.2-0.1,0.6-0.1,0.8,0c0.4,0.2,0.4,0.8-0.1,1c-0.2,0.1-0.5,0.2-0.8,0.4
		c-1.1,0.5-2.1,1-3.2,1.5c-0.5,0.2-0.9,0.1-1.3-0.1c-1.5-0.7-3.1-1.5-4.6-2.2c-0.7-0.4-1.5-0.7-2.2-1c-0.4-0.2-0.6-0.4-0.6-0.8
		c0-3.1,0-6.2,0-9.3c0-0.3,0.1-0.6,0.4-0.7c0.7-0.3,1.4-0.7,2.1-1c0.1-0.1,0.2-0.2,0.2-0.4c0-0.9,0-1.9,0-2.8c0,0,0,0-0.1-0.1
		c-2.9,0-5.8,0-8.6,0c-0.8,0-1.6,0-2.5,0c0,0.2,0,0.3,0,0.4c0,4.7,0,9.4,0,14.1c0,0.2,0,0.3-0.1,0.5C8.4,28,8.1,28.1,7.8,28
		c-0.3,0-0.4-0.3-0.4-0.6c0-1.6,0-3.2,0-4.8c0-3.4,0-6.8,0-10.3c0-0.9,0.1-1,1-1c3.6,0,7.2,0,10.8,0c0.1,0,0.3,0,0.5,0
		c0-0.4,0-0.7,0-1.2c-0.1,0-0.2,0-0.3,0c-4.1,0-8.2,0-12.3,0c-0.7,0-0.8,0.2-0.8,0.8c0,7.4,0,14.8,0,22.2c0,0.7,0.2,0.8,0.8,0.8
		c12,0,24,0,36,0c0.6,0,0.9-0.2,0.9-0.9c0-7.4,0-14.7,0-22.1c0-0.6-0.3-0.9-0.9-0.9c-2.6,0-5.1,0-7.7,0c-0.1,0-0.3,0-0.4,0
		c-0.3,0-0.6-0.3-0.5-0.6c0-0.3,0.2-0.5,0.5-0.6c0.1,0,0.3,0,0.4,0c2.4,0,4.9,0,7.3,0c1.2,0,2,0.3,2.4,1.5c0,7.8,0,15.6,0,23.4
		c0,0-0.1,0-0.1,0.1c-0.4,0.9-1,1.3-2,1.2c-4,0-8,0-12,0c-0.1,0-0.3,0-0.4,0c0.1,0.3,0.1,0.5,0.2,0.7c0.3,1.1,0.9,2.1,1.8,2.8
		c0.1,0.1,0.3,0.2,0.4,0.2c0.9,0,1.7,0,2.6,0.1c0.9,0.1,1.6,1.2,1.4,2.1c-0.2,0.7-0.7,1-1.3,1.3c-7,0-14,0-21,0c0,0-0.1-0.1-0.1-0.1
		c-0.7-0.2-1.2-1-1.2-1.6c0-1,0.8-1.8,1.8-1.8c0.7,0,1.5,0,2.2,0c0.1,0,0.3-0.1,0.4-0.1c0.8-0.6,1.3-1.4,1.7-2.4
		c0.2-0.4,0.2-0.8,0.3-1.2c-0.2,0-0.4,0-0.5,0c-4.1,0-8.2,0-12.3,0c-0.1,0-0.2,0-0.4-0.1c-0.7-0.2-1-0.7-1.3-1.3
		c0-7.8,0-15.7,0-23.5C5.4,9.4,6.1,9,7.2,9c4,0,8,0,12,0c0.1,0,0.3,0,0.4,0c0-0.4,0-0.8,0-1.2c-0.1,0-0.3,0-0.4,0
		c-1.6,0-3.2,0-4.8,0c-0.4,0-0.6-0.2-0.6-0.6c0-0.3,0-0.7,0-1c0-0.2-0.1-0.4-0.3-0.5c-0.9-0.5-1.1-1.5-0.7-2.3
		c0.3-0.5,0.7-0.8,1.2-0.9c0.2,0,0.5,0,0.7,0c0,0,0,0.1,0.1,0.1c0.8,0.2,1.3,0.8,1.3,1.6c0,0.7-0.2,1.3-1,1.7C15.1,5.8,15,6,15,6.1
		c0,0.2,0,0.4,0,0.6c0.1,0,0.2,0,0.3,0c1.6,0,3.2,0,4.8,0c0.5,0,0.7,0.2,0.7,0.7c0,0.6,0,1.1,0,1.7c1.2,0,2.4,0,3.6,0
		c0-0.9,0-1.7,0-2.6c0-0.4-0.1-0.6-0.4-0.8c-0.7-0.4-1-1.4-0.6-2.2c0.2-0.6,0.7-0.8,1.2-1c0.2,0,0.5,0,0.7,0c0.1,0,0.1,0.1,0.2,0.1
		c0.6,0.2,1,0.6,1.2,1.2c0.2,0.8,0,1.5-0.7,2c-0.1,0.1-0.3,0.2-0.3,0.3c0,1,0,2,0,3c1.2,0,2.4,0,3.6,0c0-0.6,0-1.1,0-1.7
		c0-0.4,0.2-0.7,0.6-0.7c0.7,0,1.4,0,2.1,0c1,0,2,0,3,0c0-0.3,0-0.6,0-0.8c-1.1-0.4-1.4-1.9-0.7-2.7c0.2-0.3,0.6-0.4,0.9-0.7
		c0.3,0,0.6,0,0.9,0C36.5,2.8,37,3,37.2,3.7c0.2,0.8,0.1,1.7-0.8,2.1c-0.2,0.1-0.3,0.2-0.3,0.4c0,0.3,0,0.7,0,1
		c0,0.5-0.2,0.7-0.7,0.7c-1.6,0-3.2,0-4.8,0c-0.1,0-0.2,0-0.3,0c0,0.4,0,0.7,0,1.2c0.7,0,1.4,0,2,0c0.4,0,0.7,0.2,0.7,0.5
		c0,0.4-0.2,0.6-0.6,0.6c-0.7,0-1.4,0-2.1,0c0,0.4,0,0.8,0,1.2c0.2,0,0.3,0,0.4,0c3.7,0,7.3,0,11,0c0.7,0,0.9,0.2,0.9,0.9
		c0,6.6,0,13.2,0,19.7c0,0.6-0.2,0.9-0.9,0.9c-11.2,0-22.4,0-33.6,0c-0.6,0-0.9-0.2-0.9-0.9c0-0.6,0-1.3,0-2c0-0.4,0.1-0.6,0.5-0.6
		c0.4,0,0.6,0.1,0.7,0.6c0,0.5,0,1.1,0,1.6c11,0,22,0,32.9,0c0-6.4,0-12.7,0-19.1c-0.1,0-0.1,0-0.2,0c-3.6,0-7.2,0-10.7,0
		c-0.1,0-0.1,0-0.2,0c0,0,0,0-0.1,0.1C30.3,13.7,30.3,14.7,30.4,15.8C30.4,15.7,30.4,15.7,30.4,15.8z M18,18.4c0,0.1,0,0.2,0,0.2
		c0,2.6,0,5.2,0,7.8c0,0.2,0.1,0.3,0.3,0.4c1.7,0.8,3.4,1.6,5.1,2.4c0.3,0.2,0.7,0.3,1,0.5c0-0.1,0-0.1,0-0.2c0-2.6,0-5.2,0-7.8
		c0-0.1-0.1-0.3-0.2-0.3c-1.3-0.6-2.7-1.3-4-1.9C19.5,19.1,18.8,18.8,18,18.4z M18.8,17.4c0.2,0.1,0.3,0.2,0.4,0.2
		c0.8,0.4,1.6,0.8,2.4,1.1c1.1,0.5,2.1,1,3.2,1.5c0.1,0.1,0.3,0.1,0.5,0c2-0.9,4-1.9,6-2.9c-0.6-0.3-1.2-0.5-1.8-0.8
		c-1.4-0.7-2.8-1.4-4.2-2c-0.2-0.1-0.4-0.1-0.6,0c-1.4,0.6-2.7,1.3-4,1.9C20,16.8,19.4,17.1,18.8,17.4z M20.6,35.2
		c-0.1,1.4-0.7,2.6-1.6,3.7c3.9,0,7.8,0,11.8,0c-0.9-1.1-1.4-2.3-1.6-3.7C26.4,35.2,23.5,35.2,20.6,35.2z M25,41.3
		c2.8,0,5.6,0,8.4,0c0.6,0,1.1,0,1.7,0c0.4,0,0.7-0.3,0.6-0.7c-0.1-0.4-0.4-0.4-0.8-0.4c-6.6,0-13.2,0-19.8,0c-0.1,0-0.2,0-0.3,0
		c-0.3,0-0.6,0.3-0.5,0.6c0,0.3,0.2,0.5,0.5,0.6c0.1,0,0.3,0,0.4,0C18.5,41.3,21.7,41.3,25,41.3z M29.1,12.6c-1.2,0-2.4,0-3.6,0
		c0,0.2,0,0.4,0,0.6c0,0.1,0.1,0.2,0.1,0.3c1.1,0.6,2.3,1.1,3.4,1.7C29.1,14.3,29.1,13.5,29.1,12.6z M20.9,15.1
		c1.1-0.5,2.2-1,3.3-1.5c0.1-0.1,0.2-0.2,0.2-0.4c0-0.2,0-0.4,0-0.6c-1.2,0-2.3,0-3.5,0C20.9,13.4,20.9,14.3,20.9,15.1z M24.4,10.3
		c-1.2,0-2.4,0-3.6,0c0,0.4,0,0.8,0,1.1c1.2,0,2.4,0,3.6,0C24.4,11,24.4,10.6,24.4,10.3z M29.1,10.3c-1.2,0-2.4,0-3.6,0
		c0,0.4,0,0.8,0,1.1c1.2,0,2.4,0,3.6,0C29.1,11,29.1,10.6,29.1,10.3z M13.8,4.3c0,0.3,0.2,0.6,0.5,0.6c0.4,0,0.7-0.3,0.6-0.6
		c0-0.3-0.3-0.6-0.6-0.6C14.1,3.7,13.8,4,13.8,4.3z M25.5,4.2c0-0.3-0.3-0.6-0.6-0.6c-0.3,0-0.6,0.3-0.6,0.6c0,0.3,0.3,0.6,0.6,0.6
		C25.3,4.8,25.6,4.6,25.5,4.2z M36.1,4.2c0-0.3-0.2-0.6-0.6-0.6c-0.4,0-0.5,0.2-0.5,0.6c0,0.4,0.2,0.6,0.6,0.6
		C35.9,4.8,36.1,4.6,36.1,4.2z"/>
</g>
</svg>
