<svg width="231" height="127" viewBox="0 0 231 127" fill="none" xmlns="http://www.w3.org/2000/svg">
<g clip-path="url(#clip0_323_4065)">
<path d="M19.1028 74.6544V54.7906H14.7957C13.917 54.7906 13.2487 54.5183 12.7907 53.9861C12.3328 53.454 12.0977 52.8104 12.0977 52.0555C12.0977 51.5852 12.209 51.1396 12.4318 50.7188C12.6546 50.298 12.9764 49.9515 13.3972 49.704C13.818 49.4565 14.2883 49.3203 14.7957 49.3203H29.3506C29.8704 49.3203 30.3283 49.4441 30.7491 49.704C31.1699 49.9515 31.4917 50.298 31.7145 50.7188C31.9373 51.1396 32.0487 51.5975 32.0487 52.0555C32.0487 52.8104 31.8259 53.454 31.3679 53.9861C30.9224 54.5183 30.2417 54.7906 29.3382 54.7906H25.0312V74.6668C25.0312 75.6445 24.7589 76.3994 24.2143 76.9316C23.6697 77.4638 22.9519 77.7361 22.0732 77.7361C21.182 77.7361 20.4642 77.4638 19.9196 76.9316C19.3751 76.3871 19.1028 75.6321 19.1028 74.6544Z" fill="#EEEEEE"/>
<path d="M46.0945 68.8817H33.9531C34.1511 70.2307 34.7328 71.2579 35.7353 71.951C36.7254 72.6441 37.9259 72.9906 39.3245 72.9906C40.1908 72.9906 40.9211 72.8544 41.5275 72.5822C42.134 72.3099 42.8889 71.9262 43.7924 71.4312C44.6959 70.9361 45.3642 70.6886 45.7727 70.6886C46.1563 70.6886 46.54 70.8124 46.8989 71.0475C47.2702 71.2827 47.5549 71.5921 47.7777 71.9634C48.0004 72.3346 48.1118 72.7307 48.1118 73.1391C48.1118 73.7332 47.8396 74.3148 47.295 74.8965C46.7504 75.4782 46.0202 75.998 45.1167 76.4559C44.2132 76.9138 43.186 77.2851 42.0473 77.5574C40.9087 77.8297 39.8319 77.9782 38.8047 77.9782C36.7254 77.9782 34.8689 77.5079 33.2352 76.5549C31.6015 75.602 30.3391 74.3025 29.448 72.6317C28.5569 70.9609 28.1113 69.0797 28.1113 67.0005C28.1113 65.5772 28.3712 64.2035 28.8787 62.8669C29.3861 61.5302 30.0916 60.3297 31.0074 59.2901C31.9109 58.2505 33.0001 57.4337 34.2749 56.8396C35.5496 56.258 36.8987 55.9609 38.3467 55.9609C39.8319 55.9609 41.2057 56.2703 42.4929 56.8768C43.78 57.4832 44.8568 58.3 45.7479 59.3025C46.639 60.305 47.3321 61.4312 47.8396 62.6565C48.347 63.8817 48.5945 65.1069 48.5945 66.3198C48.5821 68.0277 47.7529 68.8817 46.0945 68.8817ZM33.8169 65.0822H42.8766C42.728 63.7827 42.2453 62.7307 41.4409 61.9263C40.6364 61.1218 39.6091 60.7258 38.3344 60.7258C37.1091 60.7258 36.0942 61.1342 35.2774 61.9386C34.4729 62.7555 33.9902 63.7951 33.8169 65.0822Z" fill="#EEEEEE"/>
<path d="M50.5391 74.5605V50.1917C50.5391 49.2512 50.799 48.4838 51.3188 47.9021C51.8386 47.3205 52.5317 47.0234 53.3733 47.0234C53.9302 47.0234 54.4253 47.1596 54.8461 47.4195C55.2793 47.6794 55.6134 48.063 55.861 48.5457C56.1085 49.0284 56.2323 49.5853 56.2323 50.2041V74.5729C56.2323 75.1917 56.1085 75.7362 55.861 76.2313C55.6134 76.7139 55.2793 77.0852 54.8337 77.3575C54.4005 77.6174 53.9055 77.7535 53.3609 77.7535C52.5069 77.7535 51.8262 77.4565 51.3064 76.8748C50.799 76.2684 50.5391 75.5011 50.5391 74.5605Z" fill="#EEEEEE"/>
<path d="M91.9259 78.1428L89.6734 76.2245C87.6312 77.4002 85.3044 77.9819 82.693 77.9819C80.0568 77.9819 77.7052 77.3383 75.6384 76.0636C73.5715 74.7765 71.9625 73.0314 70.7991 70.7913C69.6481 68.5636 69.0664 66.1007 69.0664 63.4027C69.0664 61.3483 69.4006 59.4423 70.0565 57.6602C70.7125 55.878 71.6531 54.331 72.866 53.0067C74.0789 51.6825 75.527 50.6552 77.1854 49.925C78.8439 49.1948 80.6756 48.8359 82.6806 48.8359C84.6361 48.8359 86.4555 49.2072 88.1387 49.9622C89.8219 50.7171 91.2699 51.7567 92.4828 53.081C93.6957 54.4052 94.6364 55.9646 95.3047 57.7344C95.973 59.5166 96.3072 61.3978 96.3072 63.4027C96.3072 65.1354 96.0844 66.7691 95.6389 68.3285C95.1933 69.8879 94.5374 71.2864 93.671 72.5364L95.9111 74.467C96.3691 74.8507 96.7156 75.222 96.9508 75.5933C97.1859 75.9522 97.2973 76.3854 97.2973 76.8928C97.2973 77.3259 97.1736 77.7344 96.9136 78.118C96.6537 78.5017 96.3196 78.7987 95.8864 79.0339C95.4656 79.269 95.02 79.3804 94.5745 79.3804C93.7824 79.4052 92.9036 78.9844 91.9259 78.1428ZM87.2599 66.9299L89.1907 68.477C89.8219 67.0785 90.1437 65.3829 90.1437 63.4151C90.1437 61.7938 89.859 60.2839 89.2897 58.8978C88.7204 57.5117 87.8788 56.3978 86.7401 55.5686C85.6139 54.727 84.2648 54.3062 82.6806 54.3062C81.1088 54.3062 79.7597 54.727 78.6211 55.5562C77.4948 56.3854 76.6409 57.4869 76.0715 58.873C75.5022 60.2468 75.2176 61.7691 75.2176 63.4151C75.2176 66.0017 75.8611 68.1676 77.1483 69.9126C78.4355 71.6577 80.2796 72.524 82.6682 72.524C83.4232 72.524 84.2772 72.4373 85.2054 72.2517L83.7945 70.8656C83.2871 70.4077 83.0395 69.8755 83.0395 69.2814C83.0395 68.477 83.2871 67.8087 83.7821 67.2641C84.2772 66.7195 84.9331 66.4473 85.7252 66.4473C86.2203 66.4349 86.7277 66.5958 87.2599 66.9299Z" fill="#B1B1B1"/>
<path d="M124.575 60.8005H131.296C132.533 60.8005 133.425 61.1099 133.969 61.7163C134.514 62.3227 134.786 63.2881 134.786 64.5876C134.786 66.4935 134.489 68.2633 133.882 69.897C133.288 71.5306 132.422 72.9539 131.296 74.1544C130.17 75.3549 128.808 76.2955 127.199 76.9638C125.59 77.6321 123.82 77.9663 121.877 77.9663C119.253 77.9663 116.902 77.3227 114.835 76.0479C112.768 74.7608 111.159 73.0158 110.008 70.7757C108.857 68.548 108.275 66.0851 108.275 63.3871C108.275 61.3326 108.61 59.4267 109.266 57.6445C109.921 55.8624 110.862 54.3153 112.075 52.9911C113.288 51.6668 114.736 50.6396 116.394 49.9094C118.053 49.1792 119.885 48.8203 121.89 48.8203C123.362 48.8203 124.761 48.9812 126.11 49.303C127.459 49.6248 128.622 50.0456 129.613 50.5777C130.603 51.1099 131.37 51.704 131.939 52.3723C132.509 53.0406 132.793 53.7213 132.793 54.402C132.793 55.2436 132.558 55.9119 132.088 56.4069C131.618 56.9143 131.036 57.1619 130.343 57.1619C129.625 57.1619 128.759 56.8401 127.768 56.2089C126.766 55.5653 125.912 55.095 125.207 54.7733C124.501 54.4515 123.4 54.2906 121.902 54.2906C120.33 54.2906 118.981 54.7114 117.855 55.5406C116.729 56.3698 115.875 57.4713 115.318 58.8574C114.748 60.2312 114.464 61.7534 114.464 63.3995C114.464 65.9861 115.107 68.1519 116.382 69.897C117.669 71.642 119.501 72.5084 121.902 72.5084C123.016 72.5084 124.08 72.2856 125.108 71.8524C126.135 71.4192 126.976 70.7262 127.645 69.7856C128.301 68.845 128.635 67.6693 128.635 66.2584H124.612C123.796 66.2584 123.14 65.9985 122.607 65.4911C122.088 64.9836 121.828 64.3153 121.828 63.4861C121.828 62.6817 122.1 62.0381 122.632 61.5307C123.14 61.0604 123.796 60.8005 124.575 60.8005Z" fill="#EEEEEE"/>
<path d="M137.012 74.5605V50.1917C137.012 49.2512 137.272 48.4838 137.791 47.9021C138.311 47.3205 139.004 47.0234 139.846 47.0234C140.403 47.0234 140.898 47.1596 141.319 47.4195C141.752 47.6794 142.086 48.063 142.334 48.5457C142.581 49.0284 142.705 49.5853 142.705 50.2041V74.5729C142.705 75.1917 142.581 75.7362 142.334 76.2313C142.086 76.7139 141.752 77.0852 141.306 77.3575C140.873 77.6174 140.378 77.7535 139.834 77.7535C138.98 77.7535 138.299 77.4565 137.779 76.8748C137.272 76.2684 137.012 75.5011 137.012 74.5605Z" fill="#EEEEEE"/>
<path d="M155.258 55.9766C156.73 55.9766 158.092 56.2736 159.367 56.88C160.641 57.4741 161.73 58.2909 162.634 59.3305C163.537 60.3577 164.243 61.5335 164.738 62.8454C165.233 64.1572 165.481 65.5557 165.481 67.0161C165.481 68.5013 165.233 69.8998 164.738 71.2364C164.243 72.573 163.55 73.7364 162.671 74.7389C161.792 75.7414 160.703 76.5334 159.428 77.1151C158.141 77.6968 156.755 77.9938 155.258 77.9938C153.29 77.9938 151.52 77.4988 149.96 76.5211C148.401 75.531 147.188 74.2067 146.334 72.5235C145.48 70.8404 145.047 69.0087 145.047 67.0285C145.047 65.6052 145.294 64.2315 145.789 62.9072C146.285 61.5706 146.99 60.3825 147.906 59.3429C148.822 58.3033 149.911 57.4865 151.173 56.8924C152.436 56.2736 153.797 55.9766 155.258 55.9766ZM155.258 61.1993C154.305 61.1993 153.488 61.484 152.795 62.0409C152.102 62.5978 151.594 63.3404 151.26 64.2439C150.926 65.1473 150.752 66.0755 150.752 67.0285C150.752 67.9939 150.926 68.9221 151.26 69.8008C151.606 70.6795 152.114 71.3973 152.782 71.9542C153.463 72.4988 154.28 72.7711 155.245 72.7711C156.223 72.7711 157.052 72.4988 157.733 71.9542C158.414 71.4097 158.921 70.6919 159.255 69.8008C159.602 68.9221 159.763 67.9939 159.763 67.0285C159.763 66.0755 159.589 65.1473 159.255 64.2562C158.921 63.3652 158.414 62.6226 157.733 62.0533C157.065 61.484 156.235 61.1993 155.258 61.1993Z" fill="#EEEEEE"/>
<path d="M167.891 74.5605V50.1917C167.891 49.2512 168.151 48.4838 168.67 47.9021C169.19 47.3205 169.883 47.0234 170.725 47.0234C171.282 47.0234 171.777 47.1596 172.198 47.4195C172.631 47.6794 172.965 48.063 173.213 48.5457C173.46 49.0284 173.584 49.5853 173.584 50.2041V57.9516C174.302 57.3204 175.143 56.8378 176.096 56.4912C177.049 56.1447 178.015 55.9838 178.992 55.9838C180.936 55.9838 182.606 56.516 183.993 57.5927C185.379 58.6571 186.431 60.0556 187.136 61.7882C187.842 63.5209 188.201 65.3402 188.201 67.2833C188.201 69.0902 187.817 70.8229 187.037 72.4689C186.257 74.1273 185.144 75.4639 183.708 76.4788C182.26 77.4936 180.638 78.0011 178.819 78.0011C177.779 78.0011 176.777 77.7783 175.812 77.3204C174.846 76.8624 174.116 76.2189 173.596 75.3897C173.213 76.9738 172.26 77.7535 170.737 77.7535C169.883 77.7535 169.203 77.4565 168.683 76.8748C168.151 76.2684 167.891 75.5011 167.891 74.5605ZM173.596 66.8254C173.596 68.36 173.98 69.7338 174.747 70.9466C175.515 72.1595 176.616 72.7659 178.064 72.7659C178.992 72.7659 179.797 72.4813 180.478 71.912C181.158 71.3427 181.666 70.6248 182 69.7585C182.334 68.8922 182.507 67.9763 182.507 67.0234C182.507 66.0704 182.334 65.1422 182 64.2511C181.666 63.36 181.158 62.6298 180.478 62.0481C179.797 61.4788 178.992 61.1818 178.052 61.1818C177.086 61.1818 176.27 61.4541 175.589 61.9863C174.908 62.5184 174.413 63.2115 174.079 64.0655C173.757 64.9318 173.596 65.8476 173.596 66.8254Z" fill="#EEEEEE"/>
<path d="M210.108 59.9369V74.0211C210.108 75.1349 209.96 76.026 209.65 76.7067C209.341 77.3874 208.586 77.7339 207.373 77.7339C206.606 77.7339 205.999 77.5359 205.591 77.1275C205.17 76.7191 204.86 76.125 204.65 75.3329C203.14 77.1027 201.333 77.9938 199.217 77.9938C197.459 77.9938 195.863 77.5235 194.427 76.5829C192.979 75.6423 191.853 74.3428 191.036 72.6721C190.219 71.0013 189.811 69.1201 189.811 67.0161C189.811 64.9988 190.231 63.13 191.073 61.4345C191.915 59.7389 193.053 58.4023 194.489 57.437C195.937 56.4592 197.509 55.9766 199.229 55.9766C200.293 55.9766 201.321 56.1993 202.286 56.6325C203.251 57.0657 204.044 57.7216 204.662 58.5879C204.737 57.8949 205.034 57.3256 205.566 56.88C206.086 56.4345 206.692 56.2117 207.398 56.2117C208.611 56.2117 209.365 56.5582 209.675 57.2513C209.947 57.932 210.108 58.8355 210.108 59.9369ZM195.491 67.0161C195.491 67.9815 195.665 68.9097 195.999 69.7884C196.345 70.6671 196.853 71.3849 197.521 71.9419C198.202 72.4864 199.019 72.7587 199.984 72.7587C201.37 72.7587 202.459 72.177 203.227 71.026C203.994 69.875 204.39 68.526 204.39 67.0038C204.39 66.0508 204.229 65.1226 203.895 64.2315C203.561 63.3404 203.066 62.5978 202.385 62.0285C201.704 61.4592 200.912 61.1746 199.984 61.1746C199.031 61.1746 198.214 61.4592 197.521 62.0161C196.828 62.5731 196.321 63.3156 195.986 64.2191C195.665 65.1349 195.491 66.0632 195.491 67.0161Z" fill="#EEEEEE"/>
<path d="M213.279 74.5605V50.1917C213.279 49.2512 213.539 48.4838 214.059 47.9021C214.579 47.3205 215.272 47.0234 216.114 47.0234C216.67 47.0234 217.166 47.1596 217.586 47.4195C218.02 47.6794 218.354 48.063 218.601 48.5457C218.849 49.0284 218.973 49.5853 218.973 50.2041V74.5729C218.973 75.1917 218.849 75.7362 218.601 76.2313C218.354 76.7139 218.02 77.0852 217.574 77.3575C217.141 77.6174 216.646 77.7535 216.101 77.7535C215.247 77.7535 214.566 77.4565 214.047 76.8748C213.539 76.2684 213.279 75.5011 213.279 74.5605Z" fill="#EEEEEE"/>
</g>
<defs>
<clipPath id="clip0_323_4065">
<rect width="231" height="127" fill="white"/>
</clipPath>
</defs>
</svg>
