<?xml version="1.0" encoding="utf-8"?>
<!-- Generator: Adobe Illustrator 27.4.0, SVG Export Plug-In . SVG Version: 6.00 Build 0)  -->
<svg version="1.1" id="Layer_1" xmlns="http://www.w3.org/2000/svg" xmlns:xlink="http://www.w3.org/1999/xlink" x="0px" y="0px"
	 viewBox="0 0 40 40" style="enable-background:new 0 0 40 40;" xml:space="preserve">
<style type="text/css">
	.st0{fill:#FFFFFF;}
</style>
<path class="st0" d="M30.8,29.2c2.2,0,4.2,0.9,5.8,2.8l2.4-2.5c-2-2.3-4.6-3.5-7.6-3.8l-0.1,0l0-1.1c0-0.9,0-1.8,0-2.7
	c0-0.2,0.2-0.3,0.3-0.4c0.6-0.4,0.9-0.9,0.9-1.5c0-0.7-0.3-1.2-1-1.6c-0.1-0.1-0.3-0.3-0.3-0.5c0-1.6,0-3.2,0-4.7
	c0-0.1,0.1-0.2,0.1-0.3c0,0,0-0.1,0.1-0.1c0.1-0.1,0.2-0.2,0.3-0.4c0.2-0.2,0.3-0.4,0.4-0.6c0.2-0.6,0.4-1.2,0.6-1.9l0.1-0.3
	c0.1-0.3,0.3-0.5,0.6-0.5c0.8,0,1.5,0,2.3,0c0.4,0,0.8,0,1.2,0c1.1,0,1.8-0.7,1.8-1.8V2.6c0-1.2-0.7-1.9-1.9-1.9c-1,0-2,0-3,0
	c-3,0-6.1,0-9.1,0c-0.6,0-1.1,0.2-1.5,0.6c-0.3,0.4-0.5,0.8-0.5,1.3c0,0.4,0,0.8,0,1.1c0,0.2,0,0.4,0,0.6v0.1h-0.6
	c-1.2,0-1.9,0.7-1.9,1.9v5.6h-1.5V8c0-0.9-0.8-1.7-1.7-1.7h-0.8V3.7c0-1-0.7-1.8-1.8-1.8c-0.4,0-0.7,0-1.1,0c-0.7,0-1.5,0-2.2,0
	c-0.3,0-0.5-0.1-0.7-0.3c-0.6-0.6-1.4-1-2.2-1c-0.8,0-1.6,0.4-2.2,1C5.8,1.9,5.6,2,5.4,2H2.1C1,2,0.2,2.7,0.2,3.8v6.1
	c0,1.1,0.7,1.8,1.8,1.8h5.7v0.1c0,0.7,0,1.4,0,2c0,1.3,0,2.6,0,4c0,0.3-0.1,0.5-0.4,0.6c-0.6,0.3-0.9,0.8-0.9,1.5
	c0,0.7,0.3,1.2,0.9,1.5c0.3,0.2,0.3,0.4,0.3,0.6v8.1c0,0.1,0,0.1,0,0.2c0,0.1,0,0.1,0,0.2v0.1H7.4c-1.9,0.1-3.2,0.9-4.1,2.4
	c-0.1,0.2-0.3,0.3-0.4,0.3c-1.4,0.5-2.2,1.9-1.9,3.3c0.3,1.5,1.5,2.5,3,2.5h8.8c0.2,0,0.3,0,0.5,0c1.3-0.3,2.1-1.1,2.4-2.4l0-0.1
	h1.3c1.1,0,1.8-0.7,1.8-1.8V28h1.5v8.2c0,1,0.7,1.8,1.8,1.8h5.3c0,0,0.1,0,0.1,0c0,0,0,0,0,0v-1h-5.3c-0.6,0-0.9-0.3-0.9-0.9v-8.2
	l0.1,0c3.6-1.1,5.7-3.5,6.2-7.2l0-0.1h0.1c0.1,0,0.2,0,0.3,0c0.3,0,0.5,0,0.8,0c0.2,0,0.3,0.1,0.4,0.3c0.2,0.2,0.4,0.4,0.6,0.6
	l0.2,0.2c0.1,0.1,0.2,0.2,0.2,0.3v3.8l-0.1,0c-3,0.2-5.5,1.5-7.6,3.8l2.4,2.5C26.6,30.1,28.5,29.2,30.8,29.2z M23.8,2.7
	c0-0.7,0.3-1,1-1l12,0c0.7,0,1,0.3,1,1v4.5c0,0.7-0.3,1-1,1h-4.3c-0.2,0-0.2,0-0.3,0.2c-0.3,1-0.7,2.1-1,3.1c0,0.1-0.1,0.2-0.2,0.3
	c0,0-0.1,0.1-0.1,0.1L30.8,12l-0.1-0.1c0,0-0.1-0.1-0.1-0.1c-0.1-0.1-0.2-0.2-0.2-0.3c-0.3-0.9-0.7-2-1-3.1
	c-0.1-0.2-0.1-0.2-0.3-0.2h-4.3c-0.8,0-1-0.3-1-1V2.7z M18.7,13.4c0.3-0.3,0.6-0.4,0.8-0.4c0,0,0,0,0,0c0.3,0,0.6,0.1,0.8,0.4
	c0.6,0.6,0.9,1.3,1.1,2.1l0.1,0.2h-4.1l0.1-0.2C17.8,14.7,18.1,14,18.7,13.4z M21.9,16.8l0.3,2.7H17v-0.1l-0.1,0l0.3-2.6H21.9z
	 M21.7,13.4l0.3,0.1c1.1,0.4,2,1.1,2.8,2h0.1V16l-0.2-0.2c-0.2,0-0.4,0-0.6,0c-0.4,0-0.8,0-1.2,0c-0.1,0-0.3-0.1-0.4-0.3
	c-0.2-0.5-0.4-1-0.6-1.6L21.7,13.4z M14.1,15.5c0.8-1,1.7-1.6,2.9-2.1l0.3-0.1l-0.1,0.3c-0.2,0.7-0.5,1.3-0.7,1.9
	c-0.1,0.1-0.2,0.2-0.3,0.2h-1.9L14.1,15.5L14.1,15.5z M16,16.7v0.1l0.1,0l0,0.1l-0.3,2.5h-3.3l0-0.1c0-0.8,0.2-1.5,0.7-2.4
	c0.1-0.1,0.2-0.2,0.3-0.2H16z M15.8,20.5l0.3,2.7H16c-0.3,0-0.5,0-0.8,0c-0.3,0-0.5,0-0.8,0c-0.3,0-0.5,0-0.8,0
	c-0.1,0-0.3-0.1-0.3-0.2c-0.4-0.8-0.6-1.6-0.7-2.3l-0.2-0.2H15.8z M14.2,24.2c0.2,0,0.5,0,0.7,0c0.4,0,0.8,0,1.2,0
	c0.1,0,0.3,0.1,0.4,0.2c0.2,0.4,0.3,0.8,0.5,1.2c0.1,0.2,0.2,0.4,0.2,0.6l0.1,0.3L17,26.5c-1.1-0.4-2.1-1.1-2.9-2.1L14,24.2H14.2z
	 M17.2,23.2l-0.3-2.7h5.3l-0.3,2.7H17.2z M16.3,9.9V7.4H17c0.5,0,0.8,0.3,0.8,0.8v4l-0.1,0c-3.6,1.1-5.6,3.4-6.2,7.1h0.2l-0.5,0.5
	l0-0.2c-0.1,0-0.2,0-0.2,0c-0.3,0-0.5,0-0.8,0c0,0,0,0,0,0c-0.1,0-0.2-0.1-0.3-0.2l-0.2-0.2c-0.2-0.2-0.5-0.5-0.7-0.7
	c-0.1-0.1-0.2-0.2-0.2-0.4v-6.3h5.7C15.5,11.7,16.3,11,16.3,9.9z M10.3,5.8l0.1,0c0.7-0.8,1-1.6,0.8-2.7l0-0.1h3.1
	c0.6,0,0.9,0.3,0.9,0.9v5.8c0,0.8-0.3,1.1-1.1,1.1h-0.4l0-0.1c-0.3-2.1-1.4-3.5-3.3-4.5l-0.2,0.2V5.8z M6.3,3.7c0-1.1,0.9-1.9,2-1.9
	c0,0,0,0,0,0c0.5,0,1,0.2,1.4,0.6c0.4,0.4,0.6,0.9,0.6,1.4c0,1.1-0.9,2-2,2C7.2,5.7,6.3,4.8,6.3,3.7L6.3,3.7z M2.6,10.6L2.6,10.6
	c-0.1,0.1-0.1,0.1-0.2,0.1c-0.1,0-0.1,0-0.2,0c-0.1,0-0.1,0-0.2,0c-0.5,0-0.8-0.3-0.8-0.8V3.8C1.3,3.3,1.6,3,2.1,3h3.1l0,0.1
	c0,0.2,0,0.4,0.1,0.5c0,0.4,0.1,0.7,0.2,1c0.1,0.3,0.3,0.6,0.5,0.9C6,5.7,6,5.8,6.1,6l0.1,0.1L6.1,6.2c-1.9,0.9-3,2.4-3.3,4.5
	L2.6,10.6z M3.8,10.7l0-0.1C4,8.5,6,6.7,8.2,6.7c0,0,0,0,0,0c2.2,0,4.2,1.8,4.4,3.8l0,0.1H3.8z M7.7,20.5c-0.1-0.2-0.2-0.3-0.2-0.5
	c0-0.4,0.4-0.7,0.7-0.7C8.6,19.2,9,19.6,9,20v0c0,0.4-0.4,0.7-0.7,0.7c0,0,0,0,0,0C8,20.7,7.8,20.6,7.7,20.5z M14.5,37
	c-0.3,0.8-1,1.2-1.8,1.2c-0.4,0-0.9,0-1.3,0c-0.4,0-0.9,0-1.3,0c-1,0-1.9,0-2.9,0c-1,0-2.1,0-3.1,0c-0.7,0-1.3-0.3-1.7-0.8
	c-0.4-0.5-0.5-1.1-0.3-1.7c0.2-0.8,0.7-1.2,1.5-1.4c0.3-0.1,0.4-0.2,0.5-0.4c0.5-1.1,1.3-1.7,2.6-2c1.8-0.4,3.2,0.1,4.3,1.4
	c0.2,0.3,0.4,0.6,0.5,0.9c0.1,0.1,0.1,0.2,0.2,0.4l0.1,0c0.1,0,0.2-0.1,0.3-0.1c0.8-0.3,1.5-0.1,2.1,0.5
	C14.6,35.5,14.8,36.2,14.5,37z M17.7,34.7c0,0.8-0.2,1-1.1,1h-1.1l0-0.1c-0.3-1.2-1-2-2.1-2.3c-0.2-0.1-0.4-0.1-0.7-0.1
	c-0.1,0-0.3,0-0.4,0l0,0c-0.1,0-0.3-0.1-0.4-0.2c-0.7-1.1-1.7-1.8-3.1-2.2l-0.1,0v-8.7c0-0.3,0.1-0.5,0.4-0.7
	c0.2-0.1,0.3-0.3,0.5-0.5c0.1-0.1,0.1-0.2,0.2-0.3l0,0c0.1-0.1,0.2-0.2,0.3-0.2c0.3,0,0.6,0,0.9,0l0.3,0v0.1l0.1,0
	c0.5,3.7,2.5,6.1,6.2,7.2l0.1,0V34.7z M21.5,24.4c-0.2,0.7-0.5,1.5-1.2,2.2C20,26.9,19.8,27,19.5,27c-0.3,0-0.5-0.1-0.8-0.4
	c-0.6-0.6-0.9-1.4-1.2-2.2l0.1,0v-0.1h3.9L21.5,24.4z M24.9,24.5c-0.8,0.9-1.7,1.6-2.9,2l-0.3,0.1l1-2.4H25L24.9,24.5z M26.4,20.7
	c0,0.8-0.2,1.5-0.7,2.4c-0.1,0.1-0.2,0.2-0.3,0.2H23v-0.1l-0.1,0l0-0.1l0.3-2.5h3.3L26.4,20.7z M26.5,19.5h-3.3l-0.3-2.7h2.6
	c0.1,0,0.3,0.1,0.3,0.2c0.4,0.8,0.6,1.6,0.7,2.4V19.5z M29.2,19.2c-0.1,0.2-0.3,0.3-0.5,0.3c0,0,0,0,0,0c-0.2,0-0.4,0-0.7,0
	c-0.1,0-0.2,0-0.4,0h-0.1l0-0.1c-0.5-3.7-2.5-6.1-6.2-7.2l-0.1,0V6.7c0-0.5,0.1-0.8,0.3-1c0.2-0.2,0.5-0.2,1.1-0.1l0.1,0v1.9
	c0,1.1,0.7,1.8,1.8,1.8c0.4,0,0.8,0,1.2,0c0.8,0,1.6,0,2.3,0c0.3,0,0.5,0.1,0.6,0.4c0.2,0.8,0.5,1.5,0.8,2.3
	c0.1,0.3,0.3,0.6,0.5,0.8c0.2,0.2,0.3,0.3,0.3,0.6c0,0.5,0,1,0,1.5c0,1,0,2,0,3c0,0.3-0.1,0.4-0.3,0.6
	C29.7,18.6,29.5,18.9,29.2,19.2z M30,20c0-0.4,0.4-0.7,0.8-0.7c0.2,0,0.4,0.1,0.5,0.2c0.2,0.1,0.2,0.3,0.2,0.5
	c0,0.4-0.4,0.7-0.8,0.7C30.4,20.7,30,20.4,30,20z M25.1,30.6l-1.1-1l0.1-0.1c3.6-3.6,9.7-3.6,13.3,0l0.1,0.1l-0.9,0.9l-0.1-0.1
	c-3.9-3-7.6-3-11.5-0.1V30.6z"/>
</svg>
