<svg width="231" height="127" viewBox="0 0 231 127" fill="none" xmlns="http://www.w3.org/2000/svg">
<g clip-path="url(#clip0_360_5055)">
<path d="M51.1609 54.5262C51.4328 53.0426 51.6749 51.5515 51.9931 50.0783C52.1216 49.4836 51.902 49.4119 51.4074 49.4134C48.6268 49.4253 45.8461 49.4194 43.0655 49.4194C42.036 49.4194 42.0345 49.4179 42.2108 48.4347C42.4768 46.9496 42.7966 45.4734 43.0042 43.9808C43.2104 42.4986 43.8738 41.4438 45.359 41H45.5085C45.7909 41.1434 46.0942 41.0702 46.387 41.0702C54.9994 41.0747 63.6132 41.0732 72.2255 41.0777C72.5169 41.0777 72.8217 40.997 73.1011 41.1539C72.7336 43.1964 72.4063 45.2478 71.985 47.2813C71.6951 48.6813 70.703 49.394 69.161 49.4119C67.1006 49.4343 65.0401 49.4418 62.9797 49.4059C62.3327 49.394 62.0907 49.5882 61.9861 50.2426C61.4452 53.6626 60.849 57.0722 60.2723 60.4863C60.5561 62.9277 59.6597 65.2271 59.4012 67.6043C59.2861 68.6621 59.0381 69.705 58.8498 70.7539C58.5629 72.3585 57.5589 73.5897 55.5701 73.5269C53.3588 73.4567 51.1444 73.524 48.9316 73.5045C47.6332 73.4941 47.4195 73.249 47.6451 72C48.6477 66.4628 49.6383 60.9226 50.6573 55.3884C50.7231 55.0313 50.8277 54.716 51.1609 54.5248V54.5262Z" fill="white"/>
<path d="M73.1083 41.1539C64.2987 41.1524 55.4891 41.1509 46.6796 41.1449C46.2881 41.1449 45.8817 41.2256 45.5156 41C54.7197 41 63.9237 41 73.1277 41C73.1217 41.0523 73.1143 41.1031 73.1083 41.1554V41.1539Z" fill="#6C6C6C"/>
<path d="M101.014 41.139C101.002 41.0896 101.008 41.0433 101.032 41C104.017 41 107.002 41 109.986 41C109.98 41.0523 109.973 41.1031 109.967 41.1554C109.732 41.4751 109.384 41.5005 109.034 41.5035C106.662 41.5274 104.29 41.5304 101.918 41.5005C101.583 41.496 101.205 41.5304 101.012 41.1404L101.014 41.139Z" fill="#6C6C6C"/>
<path d="M51.1655 54.5275C50.4991 58.2599 49.8342 61.9922 49.1633 65.7245C48.7644 67.9447 48.3625 70.1635 47.9381 72.3793C47.8216 72.9859 48.0293 73.1756 48.6254 73.1712C50.9638 73.1517 53.3022 73.1652 55.6405 73.1637C57.2796 73.1622 58.1866 72.4241 58.4779 70.8104C58.8037 69.0056 59.092 67.1947 59.4058 65.3883C59.6897 63.7552 59.9855 62.1236 60.2754 60.4906C60.4577 61.1091 61.015 61.4035 61.4409 61.8054C65.2793 65.4256 68.4933 69.4837 70.3356 74.489C70.869 75.9368 71.1962 77.4398 71.1813 78.9982C71.1469 82.7245 68.8952 85.2137 65.1867 85.65C62.2626 85.9937 59.4955 85.3318 56.797 84.3292C52.0515 82.5677 47.8918 79.8439 44.134 76.4851C40.7497 73.4595 37.8899 70.0201 35.8758 65.9381C34.7701 63.6984 33.9752 61.3616 34.0006 58.8082C34.0365 55.2029 36.1955 52.7197 39.7725 52.1653C42.1737 51.7933 44.4747 52.246 46.7577 52.9019C48.2653 53.3352 49.7132 53.9344 51.1625 54.5275H51.1655Z" fill="#ACACAC"/>
<path d="M119.752 73.7846C117.176 73.81 114.899 73.3887 112.794 72.2517C110.693 71.1176 109.3 69.4368 108.833 67.0507C108.738 66.5681 108.836 66.3409 109.36 66.2334C111.549 65.7881 113.732 65.307 115.913 64.8229C116.329 64.7303 116.553 64.7527 116.735 65.2338C117.391 66.9625 119.341 67.8171 121.085 67.2031C121.751 66.9685 122.177 66.5337 122.229 65.7986C122.285 65.0366 121.869 64.5794 121.207 64.3329C119.898 63.8473 118.51 63.668 117.161 63.3423C116.218 63.1137 115.28 62.8806 114.389 62.4891C111.344 61.1504 110.022 58.6193 110.664 55.3696C111.178 52.7729 112.619 50.7932 114.918 49.5605C118.897 47.4254 123.054 47.282 127.205 49.0301C129.591 50.0341 131.061 51.9122 131.675 54.4478C131.795 54.9423 131.675 55.0843 131.193 55.1799C128.952 55.6236 126.718 56.0973 124.487 56.5888C124.054 56.6845 123.885 56.541 123.697 56.172C122.933 54.6719 121.86 54.1415 120.221 54.3955C120.051 54.4224 119.879 54.4627 119.719 54.5255C119.039 54.7914 118.598 55.2396 118.588 56.0181C118.578 56.813 119.084 57.1954 119.749 57.3598C121.291 57.7408 122.846 58.0725 124.397 58.4132C125.274 58.6059 126.128 58.8674 126.931 59.2663C129.965 60.7694 131.214 63.8308 130.205 67.4063C129.271 70.7127 126.846 72.425 123.686 73.2916C122.337 73.6606 120.955 73.8115 119.755 73.7846H119.752Z" fill="white"/>
<path d="M141.278 42.4782C142.496 42.4782 143.717 42.523 144.933 42.4618C145.678 42.4229 145.786 42.6814 145.659 43.3388C145.377 44.7971 145.179 46.2718 144.903 47.7315C144.794 48.3083 144.903 48.5145 145.535 48.4935C146.901 48.4487 148.269 48.4935 149.636 48.4726C150.118 48.4652 150.286 48.5623 150.18 49.1002C149.79 51.0933 149.436 53.0939 149.109 55.0975C149.031 55.5697 148.797 55.6354 148.402 55.6324C147.01 55.6205 145.617 55.6459 144.225 55.619C143.741 55.61 143.51 55.7505 143.434 56.2495C143.159 58.0619 142.829 59.8653 142.554 61.6776C142.157 64.3028 143.572 65.8178 146.306 65.7327C147.28 65.7013 147.274 65.7013 147.101 66.674C146.759 68.5999 146.412 70.5273 146.092 72.4577C146.013 72.9358 145.837 73.1868 145.311 73.2406C142.257 73.5529 139.337 73.2346 136.784 71.3655C134.271 69.5247 133.256 66.9399 133.386 63.9128C133.522 60.7617 134.317 57.6958 134.808 54.591C135.4 50.8483 136.09 47.1219 136.705 43.3822C136.814 42.7158 137.011 42.4065 137.771 42.4588C138.934 42.538 140.107 42.4797 141.275 42.4797L141.278 42.4782Z" fill="white"/>
<path d="M101.011 41.1562C103.995 41.1622 106.981 41.1667 109.964 41.1727C109.409 44.3925 108.862 47.6153 108.294 50.8337C107.024 58.0278 105.737 65.219 104.481 72.4147C104.384 72.9735 104.222 73.2126 103.604 73.2036C101.094 73.1692 98.5819 73.1752 96.0717 73.1991C95.4845 73.2051 95.2977 73.0766 95.4098 72.4491C97.2491 62.1367 99.069 51.8198 100.895 41.5059C100.916 41.3863 100.973 41.2728 101.013 41.1562H101.011Z" fill="white"/>
<path d="M158.332 48.4513C159.402 48.4513 160.47 48.4648 161.54 48.4454C161.97 48.4379 162.132 48.5813 162.047 49.0101C161.975 49.3747 161.944 49.7467 161.876 50.1113C161.843 50.2936 161.667 50.4998 161.918 50.6253C162.109 50.7209 162.226 50.5267 162.341 50.3997C163.475 49.1506 164.92 48.4902 166.555 48.2063C167.491 48.0434 168.431 48.0838 169.374 48.2362C169.809 48.3064 169.901 48.5096 169.824 48.8951C169.323 51.3723 168.824 53.8496 168.34 56.3298C168.264 56.7198 168.065 56.8049 167.711 56.7347C164.663 56.1221 161.737 58.3768 161.277 61.6474C160.763 65.299 160.019 68.9193 159.406 72.5589C159.317 73.0953 159.06 73.17 158.603 73.167C156.042 73.1536 153.479 73.1416 150.918 73.1745C150.315 73.182 150.211 72.9952 150.31 72.4513C151.283 67.0382 152.236 61.6235 153.197 56.2088C153.612 53.8675 154.057 51.5307 154.428 49.182C154.527 48.5604 154.781 48.42 155.347 48.4424C156.34 48.4797 157.336 48.4528 158.331 48.4528L158.332 48.4513Z" fill="white"/>
<path fill-rule="evenodd" clip-rule="evenodd" d="M83.9161 63.0651C84.5698 63.0639 85.2236 63.0627 85.8775 63.0627V63.0597C86.5407 63.0597 87.2038 63.0585 87.867 63.0572C89.6154 63.054 91.3638 63.0507 93.1122 63.0702C93.68 63.0776 93.9415 62.9462 94.0431 62.3321C94.2956 60.8066 94.4181 59.2706 94.2881 57.7407C93.9325 53.5392 91.9587 50.2999 87.9424 48.8043C82.9176 46.9337 78.081 47.6374 73.9735 51.1725C70.2441 54.3834 68.8112 58.7133 69.1549 63.5304C69.497 68.3265 72.6109 72.011 77.1023 73.2481C80.0159 74.0504 82.9579 74.0176 85.8536 73.1286C88.1098 72.4353 89.9147 71.0996 91.2774 69.1542C91.6495 68.6223 91.5523 68.4027 91.0219 68.1009C90.0262 67.5346 89.0462 66.9399 88.066 66.3452L88.0654 66.3448C87.6234 66.0766 87.1815 65.8085 86.7382 65.5429C86.6122 65.4678 86.4876 65.38 86.3627 65.2921C86.0656 65.0827 85.7675 64.8728 85.4487 64.8317C85.1117 64.7884 84.9099 65.0588 84.7044 65.3342C84.5983 65.4764 84.4912 65.6199 84.3639 65.7222C83.0715 66.7592 81.6356 66.9863 80.0876 66.4932C78.7817 66.0778 78.199 65.0633 77.9495 63.7829C77.8404 63.2226 77.9809 63.0448 78.5696 63.0507C80.3514 63.0715 82.1332 63.0683 83.9156 63.0651H83.9161ZM81.2781 58.244C81.5765 58.245 81.8749 58.246 82.1734 58.246C82.473 58.246 82.7728 58.2441 83.0727 58.2421H83.0729C83.7925 58.2375 84.5122 58.2328 85.2304 58.255C85.7534 58.2714 85.858 58.0458 85.8221 57.5856C85.734 56.4725 84.96 55.5013 83.8304 55.1412C81.6624 54.4494 79.4017 55.591 78.6636 57.7335C78.5231 58.1399 78.6232 58.2594 79.0416 58.252C79.7865 58.2392 80.5322 58.2416 81.2781 58.244Z" fill="white"/>
<path fill-rule="evenodd" clip-rule="evenodd" d="M196.661 50.127C196.701 49.749 196.741 49.3668 196.998 49.0464L197 49.0479V48.6011C196.955 48.5883 196.91 48.5718 196.866 48.5553C196.77 48.52 196.674 48.4846 196.577 48.4846C195.416 48.4803 194.256 48.4794 193.096 48.4786C191.82 48.4776 190.544 48.4766 189.267 48.4711C188.912 48.4696 188.821 48.6445 188.743 48.9493C188.692 49.1465 188.661 49.3492 188.629 49.5552C188.563 49.975 188.496 50.4084 188.26 50.8363C187.321 49.6082 186.16 48.8118 184.752 48.4502C180.428 47.3386 176.654 48.3979 173.579 51.5864C170.655 54.6194 169.586 58.4115 169.509 62.5368C169.452 65.4847 170.178 68.1786 172.083 70.4915C175.175 74.2462 181.245 75.05 184.91 71.107C184.933 71.0827 184.953 71.0524 184.974 71.0211C185.043 70.9177 185.12 70.8033 185.312 70.856C185.286 71.0134 185.263 71.1709 185.24 71.3279L185.24 71.3282L185.24 71.3284C185.192 71.6645 185.144 71.998 185.058 72.3217C184.882 72.9866 185.043 73.2182 185.78 73.1988C186.985 73.1668 188.191 73.1721 189.397 73.1775C190.106 73.1807 190.814 73.1838 191.522 73.1794C191.677 73.1785 191.81 73.1799 191.925 73.1812C192.298 73.1852 192.474 73.1872 192.571 73.1001C192.657 73.0218 192.678 72.8713 192.719 72.5853C192.738 72.4539 192.76 72.2939 192.795 72.0991C193.487 68.2204 194.171 64.3403 194.854 60.4603L194.854 60.4597C195.438 57.145 196.022 53.8303 196.611 50.5166C196.634 50.3891 196.648 50.2583 196.661 50.127ZM186.278 58.246C185.743 56.7369 184.455 55.8748 182.576 55.8703V55.8689C181.466 55.8853 180.334 56.5158 179.54 57.7111C178.502 59.2769 178.225 61.0221 178.574 62.8359C178.868 64.3704 179.688 65.5687 181.323 65.9138C182.963 66.2604 184.35 65.6613 185.332 64.3614C186.724 62.5192 187.053 60.4349 186.278 58.246Z" fill="white"/>
</g>
<defs>
<clipPath id="clip0_360_5055">
<rect width="231" height="127" fill="white"/>
</clipPath>
</defs>
</svg>
