<svg width="216" height="207" viewBox="0 0 216 207" fill="none" xmlns="http://www.w3.org/2000/svg">
<g clip-path="url(#clip0_5527_1164)">
<rect width="216" height="206.929" fill="#151517"/>
<path d="M40.1316 105.336L46.7083 101.52L53.1877 105.336L46.7083 109.071L40.1316 105.417V105.336ZM20.3984 94.0487L46.7212 79.1055L66.2892 90.2307L59.8097 101.518L46.7374 94.0471L27.0075 105.253L20.3984 94.0487Z" fill="#C0C0C0"/>
<path d="M40.1377 120.276V112.805L46.6171 109.07L53.1938 105.334V112.805L46.7143 116.54V124.011L40.1377 127.828V120.276ZM40.1377 105.336L33.561 101.6L26.9844 105.255V97.7824L46.7143 86.5762V101.518L40.1377 105.336ZM59.7056 97.784V94.0486L66.2823 90.2322L66.3633 97.703L59.7866 101.519L59.7056 97.784Z" fill="#9D9D9D"/>
<path d="M33.5517 123.85V101.601L40.0312 97.9463L40.1122 105.336L46.6888 108.991V116.542L40.1122 113.05V127.828L33.5517 123.85ZM23.6479 103.306L20.3984 101.358V94.0522L26.9751 97.7876V105.258L23.6479 103.306ZM46.7083 94.0489V86.5781L59.6996 94.0489L59.7806 101.52L46.7083 94.0489V94.0489Z" fill="#7E7E7E"/>
<path d="M79.0028 96.6291V113.8H75.985V96.6291H70.1211V93.668H84.8619V96.6275L79.0028 96.6291ZM94.8532 102.866C95.0378 103.612 95.1201 104.381 95.0978 105.15L85.3608 108.036C85.4369 108.765 85.4159 108.469 85.6443 108.987C85.8727 109.505 86.1626 109.93 86.506 110.283C86.8494 110.636 87.235 110.866 87.6399 111.028C88.0449 111.19 88.5098 111.274 88.9617 111.271C89.6097 111.271 90.1734 111.166 90.6999 110.955C91.2508 110.73 91.7681 110.431 92.2371 110.064L93.9898 111.959C93.3416 112.585 92.581 113.083 91.7479 113.425C90.9218 113.77 89.9369 113.944 88.7884 113.944C87.9237 113.947 87.0676 113.771 86.2744 113.427C85.4644 113.082 84.7841 112.575 84.1912 111.904C83.5984 111.234 83.1286 110.411 82.782 109.432C82.4353 108.454 82.2636 107.327 82.2636 106.099C82.2636 104.816 82.4256 103.669 82.7528 102.708C83.08 101.748 83.5303 100.927 84.1038 100.251C84.6727 99.5946 85.3856 99.0785 86.1869 98.743C87.0386 98.3909 87.9528 98.2152 88.8743 98.2263C89.9466 98.2263 90.8829 98.4271 91.6766 98.8305C92.4704 99.2338 93.1345 99.7797 93.6593 100.45C94.2052 101.177 94.6051 102.002 94.837 102.88L94.8532 102.866ZM92.0233 103.546C91.9844 103.028 91.628 102.412 91.3332 102.002C91.0554 101.636 90.6829 101.353 90.256 101.183C89.8154 101.008 89.2161 100.935 88.6896 100.956C87.7177 100.999 86.5838 101.341 86.046 102.09C85.5082 102.838 85.3381 104.136 85.3592 105.519L92.0233 103.546ZM105.787 113.612V105.075C105.787 103.543 105.512 102.483 104.968 101.856C104.423 101.229 103.66 100.936 102.7 100.936C101.704 100.936 100.937 101.272 100.4 101.941C99.8618 102.61 99.5945 103.56 99.5945 104.785V113.607H96.6188V98.5259H99.5783V99.9628C99.9622 99.4071 100.494 98.9908 101.174 98.6701C101.854 98.3494 102.586 98.2101 103.372 98.2101C105.134 98.2101 106.471 98.777 107.381 99.9061C108.292 101.035 108.747 102.725 108.747 104.963V113.613H105.787V113.612ZM120.904 109.646C120.904 110.489 120.745 111.193 120.429 111.759C120.128 112.308 119.699 112.776 119.179 113.124C118.66 113.469 118.045 113.719 117.397 113.869C116.694 114.025 115.976 114.102 115.255 114.099C114.219 114.099 113.192 113.918 112.166 113.553C111.209 113.224 110.304 112.76 109.479 112.173L110.814 109.948C111.487 110.428 112.228 110.805 113.012 111.069C113.768 111.318 114.502 111.441 115.21 111.441C117.049 111.441 117.969 110.886 117.969 109.773C117.969 109.198 117.658 108.736 117.036 108.396C116.414 108.056 115.555 107.667 114.463 107.262C113.757 107.001 113.07 106.689 112.409 106.329C111.846 106.011 111.384 105.673 111.029 105.308C110.687 104.963 110.427 104.546 110.268 104.087C110.114 103.637 110.038 103.115 110.038 102.521C110.038 101.85 110.163 101.257 110.41 100.739C110.654 100.228 111.019 99.7841 111.473 99.446C111.933 99.101 112.477 98.8418 113.093 98.6685C113.708 98.4952 114.415 98.4093 115.161 98.4093C116.133 98.4093 117.044 98.5632 117.935 98.8694C118.826 99.1755 119.606 99.5789 120.277 100.076L119.005 102.334C118.393 101.894 117.769 101.568 117.138 101.357C116.506 101.147 115.842 101.042 115.097 101.042C114.351 101.042 113.841 101.171 113.516 101.43C113.361 101.545 113.237 101.695 113.152 101.867C113.067 102.04 113.024 102.23 113.026 102.422C113.025 102.605 113.064 102.787 113.141 102.953C113.218 103.115 113.362 103.283 113.572 103.439C113.836 103.645 114.12 103.823 114.42 103.97C114.874 104.197 115.339 104.403 115.813 104.587L118.025 105.522C118.601 105.783 119.138 106.121 119.621 106.528C120.038 106.884 120.368 107.331 120.583 107.835C120.794 108.333 120.899 108.937 120.899 109.646H120.904ZM134.669 106.168C134.669 107.416 134.498 108.53 134.151 109.517C133.804 110.503 133.341 111.337 132.714 112.016C132.118 112.684 131.383 113.214 130.56 113.568C129.75 113.924 128.836 114.099 127.858 114.099C126.886 114.099 126.019 113.913 125.214 113.539C124.409 113.163 123.693 112.619 123.117 111.943C122.522 111.255 122.059 110.43 121.723 109.471C121.388 108.512 121.238 107.44 121.238 106.253C121.238 105.026 121.409 103.925 121.756 102.948C122.103 101.971 122.576 101.142 123.178 100.462C123.76 99.7899 124.488 99.2592 125.305 98.9098C126.136 98.5567 127.006 98.3785 127.962 98.3785C128.882 98.3708 129.794 98.562 130.634 98.939C131.45 99.3062 132.179 99.8397 132.776 100.505C133.38 101.176 133.848 101.996 134.185 102.963C134.522 103.93 134.671 104.999 134.671 106.167L134.669 106.168ZM131.681 106.254C131.681 104.702 131.357 103.471 130.66 102.561C129.964 101.651 129.037 101.195 127.83 101.195C127.308 101.177 126.789 101.293 126.324 101.532C125.859 101.771 125.463 102.125 125.174 102.561C124.534 103.473 124.212 104.673 124.212 106.168C124.212 107.837 124.557 109.104 125.248 109.975C125.566 110.395 125.98 110.732 126.455 110.96C126.929 111.187 127.452 111.298 127.978 111.282C128.533 111.282 129.04 111.148 129.5 110.881C129.964 110.608 130.366 110.241 130.678 109.803C131.019 109.32 131.272 108.78 131.425 108.208C131.597 107.596 131.684 106.944 131.684 106.254H131.681ZM144.21 101.829C143.891 101.659 143.553 101.524 143.205 101.427C142.859 101.33 142.438 101.265 141.941 101.265C141.001 101.265 140.273 101.589 139.757 102.242C139.242 102.895 138.98 103.862 138.98 105.145V113.766H136.02V98.6782H138.98V100.115C139.351 99.5937 139.838 99.1656 140.402 98.8645C141.023 98.525 141.721 98.352 142.429 98.3623C143.041 98.3623 143.563 98.4158 143.935 98.5211C144.309 98.6189 144.663 98.7794 144.983 98.9957L144.206 101.814L144.21 101.829Z" fill="white"/>
<path d="M149.178 96.6297V101.889H154.954V104.849H149.178V113.786H146.16V93.6685H159.119V96.628L149.178 96.6297ZM159.61 113.784V94.3878L162.569 92.8359V113.787L159.61 113.784ZM177.688 106.171C177.688 107.418 177.514 108.532 177.169 109.519C176.824 110.505 176.343 111.34 175.732 112.018C175.136 112.687 174.4 113.216 173.576 113.57C172.75 113.927 171.853 114.102 170.874 114.102C169.919 114.102 169.036 113.915 168.231 113.541C167.426 113.167 166.728 112.634 166.133 111.945C165.539 111.257 165.075 110.433 164.74 109.474C164.405 108.515 164.254 107.442 164.254 106.255C164.254 105.029 164.426 103.927 164.772 102.95C165.119 101.974 165.592 101.144 166.195 100.464C166.797 99.7835 167.491 99.2652 168.322 98.912C169.153 98.5589 170.022 98.3807 170.978 98.3807C171.934 98.3807 172.825 98.567 173.651 98.9412C174.466 99.3084 175.195 99.8419 175.792 100.508C176.397 101.178 176.865 101.998 177.202 102.965C177.539 103.932 177.688 105.001 177.688 106.169V106.171ZM174.699 106.257C174.699 104.705 174.375 103.474 173.678 102.563C172.982 101.653 172.055 101.198 170.849 101.198C169.718 101.198 168.832 101.651 168.192 102.563C167.552 103.475 167.23 104.676 167.23 106.171C167.23 107.839 167.575 109.106 168.266 109.977C168.584 110.397 168.998 110.734 169.473 110.962C169.948 111.189 170.47 111.3 170.996 111.285C171.53 111.29 172.057 111.152 172.519 110.883C172.983 110.611 173.384 110.244 173.696 109.806C174.02 109.355 174.271 108.824 174.441 108.21C174.611 107.596 174.701 106.947 174.701 106.257H174.699ZM192.286 113.786H189.759L187.718 106.172L187.272 104.407L186.942 102.955L186.611 104.421L186.166 106.203L184.154 113.791H181.627L177.488 98.7031H180.404L182.186 106.031L182.617 107.842L182.933 109.337L183.305 107.842L183.765 106.031L185.777 98.7031H188.163L190.204 106.061L190.65 107.859L191.009 109.339L191.34 107.833L191.756 106.035L193.538 98.7063H196.454L192.286 113.786Z" fill="#6C6C6C"/>
</g>
<defs>
<clipPath id="clip0_5527_1164">
<rect width="216" height="206.929" fill="white"/>
</clipPath>
</defs>
</svg>
