<svg width="216" height="207" viewBox="0 0 216 207" fill="none" xmlns="http://www.w3.org/2000/svg">
<g clip-path="url(#clip0_5534_1528)">
<rect width="216" height="206.929" fill="#151517"/>
<g clip-path="url(#clip1_5534_1528)">
<path d="M69.7627 130.934H67.2812V141.919H69.7627V130.934Z" fill="white"/>
<path d="M75.5172 128.785H61.5664V131.267H75.5172V128.785Z" fill="white"/>
<path d="M79.9073 131.267H90.3477V128.785H78.6665C77.8797 128.785 77.4258 129.239 77.4258 130.026V140.648C77.4258 141.435 77.91 141.919 78.6665 141.919H90.3779V139.437H79.9073V131.267Z" fill="white"/>
<path d="M88.4048 133.627H79.2656V136.108H88.4048V133.627Z" fill="white"/>
<path d="M103.63 134.141C102.662 134.141 101.633 134.172 100.665 134.202C99.6964 134.232 98.6977 134.263 97.7294 134.263C94.8545 134.232 94.8545 133.809 94.8545 133.052V132.386C94.8545 131.448 94.8545 131.115 98.5767 131.115H101.058C104.629 131.115 104.992 131.448 104.992 132.295V132.992H107.474V132.144C107.474 129.118 105.476 128.604 101.028 128.604H98.6372C94.1887 128.604 92.3427 129.118 92.3427 132.386V133.082C92.3427 136.441 95.0058 136.714 97.6991 136.714C98.5162 136.714 99.3635 136.683 100.211 136.683C101.058 136.653 101.875 136.653 102.692 136.653C104.962 136.653 104.962 136.926 104.962 137.561V138.227C104.962 139.286 104.962 139.619 101.028 139.619H98.4859C94.6729 139.619 94.6729 139.256 94.6729 137.924V137.047H92.1914V137.954C92.1914 141.465 93.8558 142.1 98.5464 142.1H101.058C105.749 142.1 107.413 141.495 107.413 138.136V137.38C107.504 135.927 106.838 134.141 103.63 134.141Z" fill="white"/>
<path d="M121.09 134.142C120.122 134.142 119.093 134.173 118.125 134.203C117.156 134.233 116.158 134.263 115.189 134.263C112.314 134.263 112.314 133.81 112.314 133.083V132.418C112.314 131.479 112.314 131.147 116.037 131.147H118.518C122.089 131.147 122.452 131.479 122.452 132.327V133.023H124.934V132.175C124.934 129.149 122.936 128.635 118.488 128.635H116.097C111.649 128.635 109.803 129.149 109.803 132.418V133.114C109.803 136.473 112.466 136.745 115.159 136.745C115.976 136.745 116.824 136.715 117.671 136.715C118.518 136.684 119.335 136.684 120.152 136.684C122.422 136.684 122.422 136.957 122.422 137.592V138.258C122.422 139.317 122.422 139.65 118.488 139.65H116.037C112.224 139.65 112.224 139.287 112.224 137.955V137.078H109.742V137.986C109.742 141.496 111.407 142.132 116.097 142.132H118.609C123.3 142.132 124.964 141.526 124.964 138.167V137.411C124.964 135.928 124.298 134.142 121.09 134.142Z" fill="white"/>
<path d="M129.927 131.267H140.367V128.785H128.686C127.899 128.785 127.445 129.239 127.445 130.026V140.648C127.445 141.435 127.93 141.919 128.686 141.919H140.397V139.437H129.957V131.267H129.927Z" fill="white"/>
<path d="M138.432 133.627H129.293V136.108H138.432V133.627Z" fill="white"/>
<path d="M145.028 139.437V128.785H142.547V140.648C142.547 141.435 143.031 141.919 143.788 141.919H154.833V139.437H145.028Z" fill="white"/>
<path d="M129.654 103.516C128.806 103.516 128.141 102.85 128.141 102.003V100.55C128.141 99.7029 128.806 99.0371 129.654 99.0371C130.501 99.0371 131.167 99.7029 131.167 100.55V102.003C131.167 102.82 130.501 103.516 129.654 103.516Z" fill="white"/>
<path d="M129.657 108.66C127.75 108.66 126.207 107.116 126.207 105.21C126.207 103.303 127.75 101.76 129.657 101.76C131.563 101.76 133.107 103.303 133.107 105.21C133.107 107.116 131.563 108.66 129.657 108.66ZM129.657 104.786C129.415 104.786 129.233 104.968 129.233 105.21C129.233 105.664 130.081 105.664 130.081 105.21C130.081 104.968 129.899 104.786 129.657 104.786Z" fill="white"/>
<path d="M129.654 102.063C128.807 102.063 128.141 101.397 128.141 100.55V81.3337L115.885 74.0103C115.159 73.5866 114.917 72.6485 115.371 71.9222C115.794 71.1959 116.732 70.9538 117.459 71.4077L131.167 79.5785V100.52C131.167 101.367 130.502 102.063 129.654 102.063Z" fill="white"/>
<path d="M86.7428 108.66C84.8363 108.66 83.293 107.116 83.293 105.21C83.293 103.303 84.8363 101.76 86.7428 101.76C88.6493 101.76 90.1927 103.303 90.1927 105.21C90.1927 107.116 88.6191 108.66 86.7428 108.66ZM86.7428 104.786C86.5007 104.786 86.3192 104.968 86.3192 105.21C86.3192 105.664 87.1665 105.664 87.1665 105.21C87.1665 104.968 86.9547 104.786 86.7428 104.786Z" fill="white"/>
<path d="M108.198 119.343L91.4329 109.659C90.7066 109.235 90.4645 108.327 90.8882 107.601C91.3118 106.875 92.2197 106.632 92.946 107.056L108.198 115.862L119.244 109.507C119.97 109.084 120.908 109.326 121.301 110.052C121.725 110.778 121.483 111.716 120.757 112.11L108.198 119.343Z" fill="white"/>
<path d="M92.1923 109.87C91.92 109.87 91.6476 109.809 91.4055 109.658L88.7727 108.084C88.0464 107.661 87.8043 106.723 88.228 106.027C88.6517 105.3 89.5898 105.058 90.3161 105.482L92.9791 107.056C93.7054 107.479 93.9475 108.417 93.5239 109.144C93.191 109.598 92.7068 109.87 92.1923 109.87Z" fill="white"/>
<path d="M108.2 71.1048C106.293 71.1048 104.75 69.5615 104.75 67.6549C104.75 65.7484 106.293 64.2051 108.2 64.2051C110.106 64.2051 111.65 65.7484 111.65 67.6549C111.65 69.5615 110.106 71.1048 108.2 71.1048ZM108.2 67.2313C107.958 67.2313 107.776 67.4129 107.776 67.6549C107.776 68.1089 108.624 68.1089 108.624 67.6549C108.624 67.4129 108.412 67.2313 108.2 67.2313Z" fill="white"/>
<path d="M86.7475 94.5569C85.9001 94.5569 85.2344 93.8912 85.2344 93.0438V79.5772L101.122 70.1052C101.818 69.6815 102.756 69.8934 103.18 70.6197C103.603 71.346 103.361 72.2538 102.665 72.7078L88.2606 81.3022V93.0438C88.2606 93.8912 87.5645 94.5569 86.7475 94.5569Z" fill="white"/>
<path d="M101.905 72.9227C101.391 72.9227 100.876 72.6503 100.604 72.1964C100.18 71.4701 100.423 70.5623 101.119 70.1083L104.659 67.99C105.355 67.5663 106.293 67.7781 106.747 68.5044C107.171 69.2307 106.929 70.1386 106.233 70.5623L102.692 72.6806C102.42 72.8622 102.178 72.9227 101.905 72.9227Z" fill="white"/>
<path d="M97.2148 84.7227V89.7159H104.326V103.879H107.686V84.7227H97.2148Z" fill="white"/>
<path d="M119.155 84.7227H108.594V103.879H111.953V89.7159H119.155V84.7227Z" fill="white"/>
</g>
</g>
<defs>
<clipPath id="clip0_5534_1528">
<rect width="216" height="206.929" fill="white"/>
</clipPath>
<clipPath id="clip1_5534_1528">
<rect width="94" height="78.7568" fill="white" transform="translate(61 64)"/>
</clipPath>
</defs>
</svg>
