<svg width="231" height="127" viewBox="0 0 231 127" fill="none" xmlns="http://www.w3.org/2000/svg">
<g clip-path="url(#clip0_503_3915)">
<path d="M107.181 33.4839C109.46 33.4839 111.74 33.4755 114.019 33.4911C114.424 33.4935 114.661 33.3807 114.868 33.0063C115.515 31.8375 116.223 30.7023 116.889 29.5431C117.087 29.1987 117.309 29.0367 117.736 29.0391C122.414 29.0559 127.093 29.0535 131.772 29.0439C132.126 29.0439 132.345 29.1231 132.537 29.4567C133.263 30.7191 134.014 31.9683 134.793 33.1983C135.066 33.6279 135.067 33.9615 134.81 34.4031C132.529 38.3151 130.276 42.2439 127.995 46.1559C127.795 46.5003 127.815 46.7451 128.004 47.0667C128.688 48.2379 129.332 49.4331 130.027 50.5983C130.284 51.0291 130.294 51.3747 130.038 51.8115C128.01 55.2699 126.003 58.7403 123.99 62.2071C123.669 62.7591 123.375 63.3279 123.015 63.8523C122.882 64.0455 122.595 64.2447 122.373 64.2483C120.794 64.2807 119.214 64.2855 117.636 64.2411C117.387 64.2339 117.051 63.9915 116.917 63.7635C114.853 60.2355 112.816 56.6919 110.773 53.1507C110.683 52.9959 110.56 52.8507 110.506 52.6839C110.124 51.4803 109.276 51.2127 108.105 51.3303C107.096 51.4323 106.068 51.3423 105.049 51.3555C104.692 51.3603 104.472 51.2367 104.288 50.9151C102.034 46.9887 99.7784 43.0635 97.49 39.1563C97.1576 38.5899 97.1132 38.1531 97.4564 37.5747C98.1584 36.3915 98.7944 35.1699 99.4268 33.9483C99.6104 33.5943 99.8324 33.4731 100.224 33.4755C102.543 33.4911 104.862 33.4839 107.181 33.4827V33.4839ZM118.138 38.6967C118.321 39.0303 118.446 39.2703 118.58 39.5043C120.672 43.1559 122.756 46.8099 124.867 50.4495C125.114 50.8755 125.102 51.1887 124.862 51.5991C122.791 55.1451 120.735 58.7019 118.678 62.2575C118.466 62.6247 118.278 63.0051 118.029 63.4695C119.478 63.4695 120.795 63.4827 122.112 63.4539C122.28 63.4503 122.502 63.2619 122.598 63.0987C124.87 59.2527 127.134 55.4019 129.378 51.5403C129.478 51.3675 129.471 51.0411 129.375 50.8611C128.918 49.9983 128.41 49.1607 127.924 48.3123C126.187 45.2859 124.455 42.2559 122.706 39.2367C122.58 39.0195 122.335 38.7291 122.137 38.7219C120.844 38.6751 119.55 38.6979 118.14 38.6979L118.138 38.6967ZM134.095 33.4863C133.416 32.3343 132.794 31.3179 132.216 30.2775C131.982 29.8563 131.698 29.7099 131.217 29.7123C126.9 29.7303 122.582 29.7327 118.266 29.7099C117.758 29.7075 117.486 29.8659 117.234 30.3039C115.204 33.8295 113.181 37.3599 111.079 40.8411C110.53 41.7495 110.39 42.4719 111.038 43.3623C111.478 43.9695 111.765 44.6883 112.125 45.3543C112.206 45.5019 112.306 45.6375 112.43 45.8283C112.574 45.6111 112.678 45.4683 112.767 45.3159C114.967 41.5659 117.171 37.8195 119.352 34.0587C119.608 33.6159 119.9 33.4731 120.398 33.4755C124.675 33.4935 128.953 33.4863 133.23 33.4863C133.467 33.4863 133.706 33.4863 134.096 33.4863H134.095ZM121.326 46.9839C120.966 46.9839 120.732 46.9839 120.498 46.9839C116.278 46.9839 112.059 46.9779 107.841 46.9923C107.385 46.9935 107.122 46.8531 106.892 46.4511C104.809 42.8175 102.703 39.1959 100.603 35.5707C100.418 35.2515 100.228 34.9347 99.9884 34.5279C99.3428 35.7207 98.7692 36.8139 98.1608 37.8855C97.9688 38.2239 97.9724 38.4795 98.168 38.8155C100.365 42.5895 102.553 46.3683 104.725 50.1567C104.943 50.5383 105.186 50.6607 105.618 50.6595C109.756 50.6427 113.896 50.6115 118.034 50.6763C119.008 50.6919 119.565 50.4387 119.946 49.5351C120.304 48.6843 120.822 47.8995 121.327 46.9827L121.326 46.9839Z" fill="#CECECE"/>
<path d="M87.6021 83.5835C86.3925 80.5871 85.1817 77.5895 83.9721 74.5931C83.9169 74.5859 83.8605 74.5799 83.8053 74.5727C82.5801 77.5763 81.3537 80.5799 80.1285 83.5823C80.0577 83.5907 79.9869 83.6003 79.9161 83.6087C78.4269 79.9031 76.9377 76.1987 75.4053 72.3887C75.8625 72.3887 76.2453 72.3311 76.5969 72.4115C76.7889 72.4547 76.9989 72.7019 77.0817 72.9047C77.9781 75.0983 78.8493 77.3027 79.7301 79.5035C79.8021 79.6823 79.8897 79.8551 80.0397 80.1827C80.2497 79.6739 80.4057 79.3031 80.5557 78.9311C81.3693 76.9175 82.1985 74.9111 82.9809 72.8855C83.1465 72.4559 83.3853 72.3587 83.7837 72.3839C84.1893 72.4091 84.5745 72.3023 84.7917 72.8687C85.6269 75.0419 86.5233 77.1923 87.3993 79.3511C87.4941 79.5851 87.6033 79.8119 87.7485 80.1371C87.8757 79.8959 87.9717 79.7495 88.0353 79.5911C88.8873 77.4455 89.7621 75.3095 90.5661 73.1459C90.7833 72.5591 91.0437 72.2723 91.6737 72.3827C91.8453 72.4127 92.0277 72.3875 92.3361 72.3875C90.8109 76.1795 89.3193 79.8863 87.8277 83.5931C87.7533 83.5895 87.6777 83.5859 87.6033 83.5823L87.6021 83.5835Z" fill="#CECECE"/>
<path d="M152.24 74.5421C151.246 74.2445 150.295 73.8809 149.311 73.6817C146.962 73.2089 144.741 74.5445 144.121 76.7657C143.343 79.5473 145.197 82.3001 148.256 82.3217C149.037 82.3265 149.827 82.1297 150.598 81.9617C150.772 81.9245 150.988 81.6305 151.01 81.4349C151.068 80.9225 151.028 80.3981 151.03 79.8785C151.032 79.5293 150.867 79.3733 150.513 79.3877C150.174 79.4021 149.83 79.3565 149.496 79.3937C148.99 79.4513 148.888 79.2137 148.894 78.7697C148.9 78.3521 148.944 78.0953 149.474 78.1241C150.31 78.1697 151.153 78.1493 151.992 78.1301C152.358 78.1217 152.487 78.2561 152.484 78.6161C152.47 79.8545 152.487 81.0941 152.464 82.3325C152.461 82.5125 152.343 82.7969 152.206 82.8509C150.025 83.7137 147.793 84.0041 145.581 83.0393C143.364 82.0709 142.178 79.8233 142.452 77.3681C142.708 75.0641 144.499 73.0301 146.709 72.4925C148.552 72.0437 150.295 72.3749 151.987 73.1201C152.126 73.1813 152.259 73.4069 152.275 73.5665C152.306 73.8989 152.257 74.2397 152.242 74.5409L152.24 74.5421Z" fill="#CECECE"/>
<path d="M122.883 78.4768C122.489 79.4176 122.151 80.2324 121.809 81.0448C121.492 81.7984 121.181 82.5556 120.847 83.3008C120.793 83.4196 120.637 83.5408 120.511 83.5636C120.425 83.5792 120.261 83.446 120.215 83.3416C119.183 81.0136 118.163 78.6796 117.14 76.342C118.185 76.018 118.462 76.1416 118.862 77.0548C119.379 78.238 119.9 79.42 120.482 80.746C120.683 80.3212 120.839 80.02 120.971 79.708C121.382 78.736 121.792 77.764 122.186 76.7848C122.33 76.4284 122.474 76.186 122.947 76.2004C123.395 76.2136 123.512 76.4524 123.646 76.786C124.06 77.8204 124.495 78.8464 124.924 79.8748C125.029 80.1256 125.145 80.3716 125.311 80.7448C125.477 80.3932 125.59 80.17 125.691 79.9396C126.136 78.916 126.613 77.9044 127.007 76.8604C127.193 76.3672 127.436 76.138 127.963 76.2148C128.173 76.2448 128.391 76.2196 128.713 76.2196C128.318 77.1448 127.965 77.9788 127.605 78.8104C127.012 80.182 126.424 81.5548 125.811 82.918C125.701 83.164 125.479 83.3596 125.308 83.578C125.144 83.3452 124.936 83.1316 124.823 82.876C124.279 81.6376 123.76 80.386 123.229 79.1416C123.152 78.9628 123.051 78.796 122.884 78.4768H122.883Z" fill="#CECECE"/>
<path d="M182.446 83.4214V87.1402C182.362 87.2062 182.333 87.2482 182.3 87.253C181.478 87.353 181.067 86.9962 181.067 86.1826C181.067 83.083 181.078 79.9822 181.054 76.8826C181.05 76.3546 181.194 76.1662 181.728 76.2142C182.856 76.3162 184.013 76.2538 185.111 76.4842C186.915 76.8622 187.857 78.5302 187.582 80.5606C187.346 82.3102 185.976 83.5738 184.257 83.5822C183.686 83.5846 183.114 83.4838 182.445 83.4214H182.446ZM182.435 79.825C182.435 80.4622 182.405 81.1018 182.453 81.7366C182.468 81.9346 182.655 82.2298 182.826 82.2874C184.328 82.7866 185.772 82.303 186.204 80.5774C186.533 79.2622 185.888 77.9086 184.736 77.6398C184.125 77.497 183.474 77.497 182.842 77.4946C182.708 77.4946 182.468 77.7598 182.457 77.9146C182.412 78.5494 182.439 79.189 182.436 79.8262L182.435 79.825Z" fill="#CECECE"/>
<path d="M105.842 76.3669C105.842 75.1813 105.876 74.1025 105.829 73.0285C105.804 72.4525 106.053 72.3721 106.536 72.3793C106.982 72.3865 107.215 72.4405 107.21 72.9937C107.182 76.2913 107.185 79.5901 107.208 82.8889C107.211 83.3905 107.03 83.4997 106.582 83.4829C105.864 83.4553 105.144 83.4745 104.424 83.4757C102.11 83.4769 101.104 82.6441 100.659 80.3485C100.3 78.5005 101.486 76.7797 102.895 76.3129C103.701 76.0465 104.493 76.0489 105.301 76.2625C105.45 76.3021 105.602 76.3225 105.842 76.3681V76.3669ZM105.84 82.3369C105.84 80.7985 105.847 79.3441 105.828 77.8897C105.825 77.7529 105.681 77.5501 105.552 77.4925C104.186 76.8829 102.638 77.3449 102.199 78.7525C101.995 79.4065 102.002 80.1721 102.097 80.8609C102.208 81.6685 102.974 82.2925 103.705 82.3297C104.38 82.3633 105.06 82.3369 105.84 82.3369V82.3369Z" fill="#CECECE"/>
<path d="M57.4076 77.0387C58.058 76.7279 58.5956 76.3751 59.1848 76.2071C60.5168 75.8291 61.9016 76.6487 62.0348 78.0035C62.2112 79.7831 62.1908 81.5819 62.252 83.3015C62.102 83.3963 62.0708 83.4323 62.036 83.4359C61.2368 83.5175 60.8372 83.1683 60.8372 82.3883C60.8372 81.2687 60.8444 80.1491 60.8372 79.0295C60.8324 78.1007 60.392 77.3843 59.7404 77.2175C58.9952 77.0267 57.9176 77.4827 57.5204 78.1943C57.422 78.3719 57.4136 78.6143 57.4112 78.8279C57.4016 80.1875 57.3824 81.5483 57.4172 82.9067C57.4316 83.4407 57.1748 83.4839 56.762 83.4767C56.3564 83.4695 56.0372 83.4995 56.0408 82.9043C56.0648 79.5851 56.066 76.2659 56.0408 72.9467C56.036 72.3407 56.3732 72.3935 56.7692 72.3839C57.188 72.3731 57.4328 72.4319 57.4184 72.9635C57.38 74.3183 57.4052 75.6755 57.4052 77.0387H57.4076Z" fill="#CECECE"/>
<path d="M48.3752 73.7336C47.2424 73.7336 46.1876 73.7012 45.1352 73.7468C44.5772 73.7708 44.5244 73.5128 44.5244 73.0688C44.5244 72.6272 44.576 72.3728 45.1316 72.3776C47.7884 72.4028 50.4464 72.404 53.1032 72.3752C53.6576 72.3692 53.8808 72.524 53.798 73.0772C53.7692 73.2692 53.7764 73.466 53.7632 73.7348C52.6952 73.7348 51.662 73.7336 50.6288 73.7348C49.8572 73.736 49.8548 73.7384 49.8536 74.5364C49.8524 77.2532 49.8404 79.9712 49.8632 82.688C49.868 83.2424 49.7924 83.5136 49.1276 83.498C48.5192 83.4836 48.3524 83.318 48.3596 82.7132C48.392 79.9964 48.374 77.2784 48.374 74.5616V73.7324L48.3752 73.7336Z" fill="#CECECE"/>
<path d="M110.799 77.0571C111.462 76.7427 112.031 76.3695 112.656 76.1967C113.971 75.8307 115.339 76.7163 115.449 78.0723C115.585 79.7403 115.562 81.4215 115.589 83.0979C115.598 83.6967 115.11 83.4231 114.828 83.4627C114.525 83.5059 114.231 83.5083 114.24 83.0331C114.26 81.7347 114.249 80.4363 114.243 79.1379C114.243 78.9219 114.223 78.6999 114.171 78.4911C113.955 77.6199 113.557 77.2347 112.85 77.1855C112.163 77.1375 111.079 77.7219 110.858 78.2895C110.79 78.4671 110.803 78.6819 110.802 78.8799C110.797 80.2383 110.784 81.5967 110.809 82.9551C110.817 83.4063 110.622 83.4963 110.234 83.4783C109.868 83.4615 109.525 83.5299 109.527 82.9551C109.545 79.5987 109.544 76.2423 109.527 72.8859C109.525 72.2859 109.917 72.4239 110.258 72.3891C110.678 72.3471 110.815 72.5127 110.808 72.9339C110.786 74.3103 110.799 75.6867 110.799 77.0559V77.0571Z" fill="#CECECE"/>
<path d="M165.758 83.5915C163.483 83.5831 162.004 82.0951 161.971 79.8823C161.942 78.0019 163.478 76.2055 165.867 76.2307C168.158 76.2547 169.689 77.9323 169.648 79.9927C169.604 82.1815 168.104 83.5999 165.759 83.5915H165.758ZM165.837 82.3747C167.316 82.3339 168.369 81.2971 168.348 79.9051C168.325 78.4459 167.18 77.4127 165.62 77.4439C164.277 77.4715 163.266 78.5611 163.287 79.9603C163.309 81.3943 164.386 82.4143 165.837 82.3747V82.3747Z" fill="#CECECE"/>
<path d="M70.7827 81.6759C70.9663 82.7751 70.8775 83.0175 69.9031 83.3151C67.8883 83.9295 66.0031 83.6967 64.9987 81.9147C64.1527 80.4135 64.2079 77.3667 66.4555 76.4115C68.8315 75.4023 70.9795 76.9599 70.9771 79.6059C70.9771 80.0199 70.6999 79.9695 70.4419 79.9695C69.1219 79.9695 67.8019 79.9695 66.4831 79.9719C66.2719 79.9719 66.0607 79.9911 65.8531 80.0007C65.8423 81.8691 67.6915 83.2539 70.7827 81.6759V81.6759ZM69.5911 79.1895C69.6727 78.4191 69.4075 77.8587 68.8063 77.5167C68.1391 77.1363 67.4275 77.1459 66.7759 77.5707C66.2167 77.9355 65.9275 78.4707 65.9251 79.1895H69.5911V79.1895Z" fill="#CECECE"/>
<path d="M130.19 78.3666C130.314 77.835 129.946 77.2194 130.527 76.7646C131.264 76.1874 132.116 75.9966 133.005 76.131C134.547 76.3638 135.157 77.139 135.156 78.7158C135.156 79.7358 135.156 80.7558 135.156 81.7758C135.156 82.7922 135.218 82.8354 136.179 82.455C136.308 82.8378 136.264 83.1186 135.864 83.331C135.036 83.769 134.409 83.6886 133.814 83.0886C133.09 83.2626 132.433 83.4798 131.76 83.5674C131.05 83.6598 130.515 83.2734 130.228 82.6398C129.936 81.9942 129.964 81.3102 130.485 80.8002C130.873 80.421 131.368 80.1342 131.854 79.8786C132.237 79.677 132.681 79.5918 133.093 79.4418C133.449 79.3122 133.882 79.2966 133.822 78.693C133.765 78.111 133.646 77.6358 133.021 77.4402C132.063 77.1402 131.314 77.5722 130.603 78.1242C130.497 78.2058 130.44 78.351 130.36 78.4662C130.303 78.4326 130.246 78.4002 130.189 78.3666H130.19ZM133.806 79.7718C133.018 80.181 132.326 80.4642 131.725 80.8794C131.316 81.1614 131.323 81.6894 131.52 82.1346C131.76 82.6782 132.272 82.8222 132.774 82.6722C133.15 82.5594 133.69 82.2882 133.761 81.9942C133.912 81.3582 133.808 80.6622 133.808 79.7718H133.806Z" fill="#CECECE"/>
<path d="M176.822 82.6173C176.06 83.2329 175.306 83.6649 174.339 83.5941C173.222 83.5125 172.255 82.6677 172.218 81.5469C172.164 79.9305 172.198 78.3117 172.17 76.6953C172.16 76.1433 172.512 76.2285 172.85 76.2189C173.193 76.2093 173.473 76.1961 173.461 76.6953C173.433 77.8725 173.446 79.0521 173.456 80.2293C173.458 80.5269 173.485 80.8269 173.535 81.1197C173.71 82.1409 173.928 82.3749 174.793 82.5189C175.484 82.6353 176.494 82.1745 176.782 81.5673C176.878 81.3645 176.878 81.1041 176.88 80.8701C176.888 79.3545 176.883 77.8389 176.883 76.2213C177.235 76.2213 177.553 76.1793 177.852 76.2393C177.998 76.2693 178.214 76.4877 178.215 76.6233C178.238 78.7605 178.225 80.8965 178.237 83.0337C178.239 83.4513 178 83.5137 177.699 83.4573C177.405 83.4021 176.918 83.7201 176.881 83.0841C176.874 82.9545 176.85 82.8249 176.822 82.6161V82.6173Z" fill="#CECECE"/>
<path d="M93.1614 78.3546C92.9346 76.8798 93.2526 76.473 94.9062 76.1586C95.8758 75.975 96.8034 76.1381 97.4742 76.9061C97.7514 77.2241 97.9326 77.7162 97.9614 78.1422C98.0358 79.2558 98.001 80.3765 98.0118 81.4949C98.0142 81.7145 98.0118 81.9353 98.037 82.1525C98.1042 82.7177 98.2518 82.7969 98.7774 82.5653C98.883 82.5185 98.9874 82.4694 99.0942 82.4202C99.3186 82.9974 98.991 83.229 98.5518 83.4258C97.7934 83.7666 97.2162 83.6466 96.7026 83.0958C95.943 83.2698 95.2626 83.5362 94.5738 83.5602C93.2694 83.6058 92.4498 82.1513 93.183 81.0725C93.5082 80.5937 94.0758 80.2458 94.593 79.9422C95.013 79.695 95.5338 79.6254 95.9922 79.4346C96.2874 79.3122 96.7422 79.3757 96.7326 78.8249C96.7218 78.2441 96.5886 77.7461 96.0282 77.4869C95.349 77.1725 94.6962 77.3669 94.0854 77.7005C93.7758 77.8697 93.5034 78.1086 93.1614 78.3546V78.3546ZM96.7194 79.7166C95.8902 80.1822 95.1762 80.5134 94.5462 80.9622C94.1478 81.2466 94.1946 81.7625 94.4082 82.1741C94.677 82.6901 95.199 82.8306 95.6958 82.6722C96.0726 82.5522 96.6018 82.2701 96.6726 81.9689C96.8226 81.3305 96.7182 80.6322 96.7182 79.7166H96.7194Z" fill="#CECECE"/>
<path d="M157.004 76.2172V77.8912C157.734 77.104 158.178 76.1104 159.234 76.1332C159.781 76.1452 160.32 76.522 160.941 76.7644C160.639 77.2708 160.42 77.6368 160.188 78.0256C160.078 77.962 160.008 77.9308 159.948 77.8852C159.376 77.4556 158.766 77.1664 158.077 77.5792C157.378 77.9992 157.015 78.6544 157 79.4692C156.981 80.6284 156.972 81.7888 157.006 82.9468C157.022 83.4628 156.757 83.4928 156.379 83.4676C156.022 83.4448 155.612 83.5936 155.622 82.9492C155.65 80.9308 155.649 78.9112 155.62 76.8928C155.613 76.3744 155.743 76.1404 156.284 76.2136C156.494 76.2412 156.711 76.2184 157.003 76.2184L157.004 76.2172Z" fill="#CECECE"/>
<path d="M63.6598 93.2388C63.6598 92.2824 63.6598 91.4736 63.6598 90.6636C63.6598 90.3444 63.6406 90.0216 63.6826 89.7072C63.697 89.6016 63.883 89.43 63.9706 89.442C64.1038 89.46 64.2394 89.5944 64.333 89.712C64.3822 89.7744 64.3462 89.9052 64.3462 90.0048C64.3462 92.082 64.3426 94.1592 64.3486 96.2364C64.3486 96.6216 64.3282 96.9468 63.757 96.7788C63.7258 96.6108 63.691 96.4224 63.6358 96.1284C63.0934 96.8244 62.4166 97.2084 61.6018 96.9876C61.1698 96.8712 60.709 96.5916 60.4258 96.2496C59.6458 95.3076 59.821 93.5688 60.6946 92.802C61.483 92.1096 62.6062 92.2284 63.6586 93.2376L63.6598 93.2388ZM62.1322 96.3648C63.1462 96.39 63.6718 95.7348 63.6694 94.71C63.667 93.6288 63.0658 93.0312 62.1274 93.0408C61.2286 93.0492 60.679 93.6168 60.661 94.5684C60.6406 95.664 61.2094 96.3576 62.1322 96.3648V96.3648Z" fill="#CECECE"/>
<path d="M129.684 89.4832C130.082 89.4052 130.39 89.302 130.389 89.806C130.384 92.0656 130.383 94.324 130.377 96.5836C130.377 96.64 130.344 96.6952 130.328 96.7444C129.826 97.006 129.7 96.7012 129.672 96.2728C128.544 97.2136 127.452 97.2724 126.668 96.4636C125.805 95.572 125.781 93.8596 126.62 92.9476C127.376 92.1256 128.527 92.1784 129.684 93.1348V89.4844V89.4832ZM129.716 94.7128C129.716 93.6448 129.174 93.0388 128.216 93.04C127.282 93.04 126.771 93.6016 126.769 94.6264C126.766 95.7208 127.294 96.3556 128.215 96.364C129.198 96.3736 129.715 95.8048 129.716 94.7128Z" fill="#CECECE"/>
<path d="M69.7905 93.2257C70.2873 92.5441 70.8753 92.2981 71.6181 92.3869C72.2841 92.4673 72.8085 92.8345 72.8457 93.4813C72.9093 94.5721 72.8637 95.6689 72.8637 96.7957H72.2181C72.2181 95.9005 72.2349 95.0269 72.2121 94.1533C72.1989 93.6553 72.0633 93.1645 71.5221 93.0013C70.9989 92.8429 70.4445 92.8933 70.1133 93.3781C69.9141 93.6697 69.8133 94.0729 69.7905 94.4329C69.7437 95.2057 69.7761 95.9833 69.7761 96.7405C69.2745 96.9349 69.0897 96.8089 69.1053 96.3217C69.1293 95.5825 69.1209 94.8421 69.1077 94.1029C69.0945 93.3901 68.7549 92.9929 68.1549 92.9497C67.4013 92.8945 66.8373 93.2509 66.7641 93.9457C66.6825 94.7173 66.7101 95.5009 66.6837 96.2785C66.6753 96.5221 66.7545 96.8809 66.3429 96.8053C66.2097 96.7813 66.0393 96.4801 66.0357 96.3037C66.0093 95.0677 66.0213 93.8317 66.0213 92.5765C66.4449 92.4937 66.7821 92.4349 66.7233 92.8909C67.2609 92.7133 67.7733 92.4745 68.3109 92.3857C68.9325 92.2825 69.4173 92.6185 69.7929 93.2257H69.7905Z" fill="#CECECE"/>
<path d="M155.814 92.5449C155.958 92.5389 156.112 92.5317 156.302 92.5233C156.35 92.7201 156.396 92.9049 156.472 93.2217C157.015 92.4165 157.77 92.2197 158.576 92.4297C158.967 92.5305 159.376 92.8173 159.631 93.1353C160.405 94.1025 160.239 95.8281 159.367 96.5841C158.544 97.2969 157.431 97.1601 156.409 96.1149C156.409 96.6669 156.409 97.1073 156.409 97.5477C156.409 97.9881 156.409 98.4561 156.409 98.9133C156.042 99.0057 155.737 99.1005 155.738 98.6013C155.743 96.6273 155.749 94.6521 155.756 92.6781C155.756 92.6421 155.786 92.6061 155.814 92.5461V92.5449ZM159.366 94.7457C159.363 93.6525 158.77 92.9529 157.868 92.9769C156.968 93.0009 156.387 93.6873 156.394 94.7181C156.402 95.7165 157.022 96.3717 157.952 96.3621C158.853 96.3537 159.368 95.7645 159.366 94.7457Z" fill="#CECECE"/>
<path d="M96.6356 96.2683C96.6356 97.0843 96.6332 97.8019 96.6368 98.5183C96.638 98.7751 96.6272 99.0571 96.2792 98.9707C96.1424 98.9371 95.966 98.6851 95.9648 98.5315C95.9432 96.6727 95.9564 94.8139 95.9456 92.9539C95.9432 92.5591 96.1076 92.4595 96.5 92.5795C96.5192 92.7571 96.5408 92.9491 96.5492 93.0259C97.1024 92.8099 97.6496 92.5003 98.2328 92.3923C98.8748 92.2735 99.4352 92.5867 99.8408 93.1207C100.539 94.0411 100.449 95.7163 99.6584 96.5023C98.8916 97.2655 97.8248 97.2067 96.6344 96.2671L96.6356 96.2683ZM99.584 94.7851C99.5912 93.7087 98.9888 92.9815 98.0888 92.9851C97.1984 92.9887 96.5636 93.7003 96.5636 94.6963C96.5636 95.6863 97.1948 96.3667 98.1164 96.3691C99.0212 96.3715 99.5768 95.7715 99.584 94.7839V94.7851Z" fill="#CECECE"/>
<path d="M136.353 95.3692C136.769 94.3912 137.186 93.4132 137.666 92.2852C138.148 93.4048 138.572 94.3912 139.067 95.542C139.437 94.6156 139.765 93.8632 140.036 93.0904C140.204 92.6104 140.449 92.3896 141.007 92.596C140.403 94.0408 139.799 95.4844 139.144 97.0552C138.638 95.8984 138.182 94.8568 137.679 93.7072C137.171 94.8664 136.719 95.9008 136.214 97.054C135.568 95.512 134.967 94.0756 134.357 92.6188C134.873 92.3956 135.116 92.5648 135.28 93.0316C135.556 93.8164 135.883 94.5832 136.187 95.3584C136.243 95.362 136.297 95.3644 136.352 95.368L136.353 95.3692Z" fill="#CECECE"/>
<path d="M107.501 93.1848C107.535 93.0144 107.553 92.922 107.573 92.8296C107.588 92.7528 107.605 92.6748 107.631 92.5524C107.822 92.5428 108.013 92.5344 108.283 92.5212C108.283 93.8892 108.296 95.2212 108.26 96.5508C108.257 96.6672 107.935 96.774 107.688 96.9336C107.63 96.5808 107.6 96.3972 107.552 96.1044C106.898 96.9564 106.13 97.2324 105.191 96.9096C105.024 96.852 104.858 96.7692 104.714 96.666C103.557 95.8344 103.555 93.5436 104.705 92.7072C105.519 92.1144 106.559 92.2692 107.502 93.1848H107.501ZM104.571 94.6476C104.567 95.7048 105.128 96.3516 106.057 96.3636C106.971 96.3756 107.582 95.7408 107.606 94.7532C107.629 93.7776 106.985 93.054 106.08 93.0396C105.141 93.024 104.576 93.6264 104.571 94.6476V94.6476Z" fill="#CECECE"/>
<path d="M77.876 93.1605C77.9252 92.9193 77.96 92.7489 77.9984 92.5581H78.6152C78.6152 93.8961 78.6212 95.2089 78.6032 96.5205C78.602 96.6249 78.4196 96.8169 78.332 96.8109C78.2036 96.8025 78.0716 96.6645 77.9708 96.5553C77.918 96.4977 77.9276 96.3825 77.906 96.2757C76.5224 97.2393 75.4892 97.2669 74.7656 96.3849C73.9832 95.4333 74.0528 93.6657 74.9036 92.8509C75.6704 92.1165 76.7852 92.2173 77.8772 93.1605H77.876ZM76.5008 96.3693C77.4008 96.3513 77.9612 95.6973 77.9456 94.6845C77.9288 93.6729 77.3084 93.0273 76.3724 93.0477C75.4628 93.0681 74.8976 93.7281 74.9312 94.7289C74.9672 95.7669 75.5624 96.3885 76.5008 96.3693Z" fill="#CECECE"/>
<path d="M52.2669 93.2842C52.2981 92.9494 52.3137 92.773 52.3329 92.5606H52.9377V96.7858C52.7409 96.7978 52.5717 96.8086 52.3713 96.8218C52.3341 96.613 52.3029 96.4426 52.2741 96.2854C50.3805 97.5718 49.0293 97.3366 48.6093 94.8862C48.4413 93.907 48.7581 92.9698 49.7577 92.5366C50.6793 92.137 51.5493 92.3086 52.2645 93.2842H52.2669ZM52.3137 94.7194C52.3101 93.7078 51.6957 93.0358 50.7789 93.0394C49.8393 93.043 49.2993 93.643 49.3065 94.6798C49.3137 95.7286 49.8885 96.3646 50.8281 96.361C51.7425 96.3574 52.3173 95.7226 52.3137 94.7194Z" fill="#CECECE"/>
<path d="M164.807 96.1846C163.826 97.201 162.671 97.303 161.847 96.5098C160.934 95.6314 160.905 93.823 161.791 92.9062C162.581 92.0866 163.817 92.191 164.819 93.2014C164.849 92.9794 164.873 92.7958 164.906 92.557C165.082 92.5462 165.271 92.5354 165.531 92.5198C165.531 93.8734 165.545 95.1862 165.511 96.499C165.507 96.6406 165.226 96.7738 164.987 96.9898C164.903 96.6166 164.863 96.4354 164.806 96.1846H164.807ZM164.876 94.753C164.879 93.6946 164.321 93.055 163.388 93.0442C162.437 93.0334 161.889 93.6166 161.878 94.6522C161.867 95.7046 162.434 96.355 163.37 96.3658C164.308 96.3754 164.872 95.7718 164.876 94.7542V94.753Z" fill="#CECECE"/>
<path d="M84.5432 94.4033C85.7036 93.9245 86.0744 92.4281 87.6332 92.5097C86.8748 93.2153 86.2136 93.8297 85.5188 94.4753C86.2736 95.1977 87.0164 95.9093 87.836 96.6941C87.2204 96.9293 86.8724 96.8393 86.5208 96.4877C85.904 95.8697 85.2416 95.2985 84.542 94.6565C84.542 95.2493 84.5612 95.8541 84.5264 96.4553C84.5192 96.5849 84.3164 96.7037 84.2036 96.8273C84.0944 96.7217 83.8892 96.6173 83.8892 96.5117C83.8712 94.1777 83.8748 91.8425 83.8748 89.5085C84.3968 89.3093 84.5576 89.4725 84.5516 89.9693C84.5324 91.4249 84.5444 92.8805 84.5444 94.4033H84.5432Z" fill="#CECECE"/>
<path d="M147.889 93.1338C148.479 92.4474 149.139 92.2926 149.888 92.3958C150.57 92.4894 151.09 92.961 151.117 93.6414C151.153 94.5786 151.14 95.5182 151.112 96.4554C151.108 96.5826 150.904 96.7038 150.793 96.8274C150.68 96.7026 150.476 96.5826 150.47 96.453C150.436 95.7354 150.471 95.0154 150.446 94.2978C150.409 93.2454 149.896 92.805 148.928 92.9526C148.342 93.0426 147.913 93.4914 147.894 94.089C147.87 94.8462 147.896 95.607 147.86 96.363C147.853 96.5214 147.664 96.6714 147.559 96.825C147.436 96.6678 147.211 96.5106 147.21 96.3522C147.186 94.197 147.193 92.0406 147.192 89.8854C147.192 89.6298 147.208 89.3466 147.554 89.4402C147.682 89.475 147.824 89.7378 147.83 89.901C147.858 90.7386 147.84 91.5774 147.843 92.4162C147.843 92.6082 147.866 92.8002 147.888 93.1314L147.889 93.1338Z" fill="#CECECE"/>
<path d="M124.973 95.8821C124.419 96.8181 123.513 97.2189 122.504 97.0101C121.566 96.8157 120.905 96.0393 120.807 95.0181C120.639 93.2577 121.723 92.1609 123.393 92.3997C124.473 92.5533 125.131 93.5085 124.947 94.7349H121.715C121.507 95.4465 121.718 95.9697 122.295 96.2889C123.054 96.7077 123.619 96.5421 124.52 95.5989C124.663 95.6877 124.818 95.7849 124.971 95.8809L124.973 95.8821ZM124.277 94.1853C124.14 93.2121 123.597 92.8233 122.64 92.9553C122 93.0429 121.58 93.5769 121.693 94.1853H124.278H124.277Z" fill="#CECECE"/>
<path d="M182.36 94.7012C182.359 96.0176 181.33 97.034 180.004 97.0328C178.665 97.0316 177.663 96.026 177.667 94.6892C177.67 93.35 178.668 92.366 180.02 92.3672C181.366 92.3696 182.362 93.3608 182.361 94.7012H182.36ZM180.026 96.368C180.958 96.3656 181.675 95.6264 181.66 94.6784C181.647 93.752 180.87 92.954 179.996 92.9684C179.107 92.9828 178.365 93.7772 178.37 94.7084C178.376 95.6708 179.073 96.3704 180.025 96.368H180.026Z" fill="#CECECE"/>
<path d="M109.91 96.741V92.5506H110.533C110.563 92.7138 110.593 92.8758 110.599 92.907C111.145 92.721 111.66 92.4366 112.197 92.3862C113.272 92.2842 113.876 92.8866 113.908 93.9774C113.931 94.7358 113.893 95.4966 113.922 96.2538C113.942 96.7998 113.718 96.9342 113.152 96.7458C113.152 95.9598 113.154 95.1474 113.152 94.335C113.15 93.3738 112.83 92.9634 112.069 92.9418C111.17 92.9178 110.634 93.381 110.586 94.2858C110.55 94.9626 110.56 95.6442 110.582 96.3234C110.599 96.819 110.39 96.915 109.911 96.741H109.91Z" fill="#CECECE"/>
<path d="M115.55 92.551H116.168C116.195 92.7154 116.222 92.8678 116.251 93.0406C116.313 93.0202 116.38 93.0178 116.409 92.9842C116.791 92.5486 117.278 92.3734 117.847 92.3674C118.853 92.3566 119.403 92.7826 119.487 93.7846C119.56 94.6582 119.541 95.5426 119.521 96.421C119.517 96.5626 119.312 96.7834 119.163 96.8206C118.833 96.9022 118.785 96.6526 118.79 96.379C118.799 95.6794 118.798 94.9798 118.791 94.279C118.781 93.3586 118.423 92.953 117.629 92.947C116.77 92.941 116.242 93.4318 116.217 94.297C116.197 94.9762 116.234 95.6578 116.197 96.3358C116.187 96.5062 115.99 96.667 115.88 96.8326C115.769 96.667 115.568 96.5038 115.564 96.3346C115.537 95.0974 115.55 93.859 115.55 92.551V92.551Z" fill="#CECECE"/>
<path d="M45.3044 89.9141C45.3044 91.7453 45.3044 93.5225 45.3044 95.2997C45.3044 95.8477 45.5704 96.1221 46.1024 96.1229C46.718 96.1229 47.3336 96.1229 47.9432 96.1229C48.0932 96.6089 48.0152 96.8597 47.48 96.8453C46.6604 96.8225 45.8408 96.8345 45.02 96.8393C44.7248 96.8417 44.5208 96.7913 44.5232 96.4193C44.5364 94.3001 44.5364 92.1809 44.5436 90.0605C44.5436 90.0245 44.5724 89.9885 44.6036 89.9141H45.3032H45.3044Z" fill="#CECECE"/>
<path d="M184.416 96.7444C183.963 96.8788 183.715 96.8752 183.72 96.4048C183.732 95.1472 183.723 93.8896 183.723 92.572C183.934 92.5564 184.119 92.542 184.328 92.5264C184.362 92.7196 184.389 92.872 184.422 93.0616C184.503 93.0244 184.586 93.0124 184.628 92.9644C185.044 92.4856 185.582 92.344 186.192 92.3752C187.142 92.4232 187.671 92.9164 187.706 93.8692C187.737 94.708 187.729 95.5492 187.698 96.388C187.692 96.5392 187.489 96.682 187.377 96.8284C187.255 96.688 187.036 96.5524 187.028 96.4048C186.987 95.7076 187.02 95.0056 186.996 94.306C186.963 93.3712 186.632 92.974 185.911 92.9464C185.018 92.9116 184.51 93.2956 184.431 94.2148C184.36 95.0452 184.417 95.8864 184.417 96.7456L184.416 96.7444Z" fill="#CECECE"/>
<path d="M54.6668 92.3684C55.0376 92.5832 55.256 92.7092 55.568 92.8904C55.9256 92.4968 56.534 92.312 57.2384 92.3864C58.0652 92.4728 58.5692 92.936 58.5992 93.764C58.6316 94.6616 58.622 95.5616 58.5944 96.4592C58.5908 96.5864 58.3868 96.7088 58.2764 96.8324C58.1636 96.7088 57.9596 96.5912 57.9512 96.4604C57.8936 95.6072 57.9272 94.7444 57.8336 93.896C57.752 93.1568 57.3608 92.9132 56.5808 92.9492C55.9148 92.9804 55.4036 93.4088 55.37 94.0388C55.3292 94.796 55.3676 95.5568 55.3256 96.3128C55.316 96.4904 55.1216 96.6572 55.0112 96.8288C54.896 96.6644 54.6836 96.5012 54.68 96.3344C54.6512 95.0828 54.6644 93.83 54.6644 92.3672L54.6668 92.3684Z" fill="#CECECE"/>
<path d="M169.983 93.1621C169.801 93.2773 169.67 93.3613 169.517 93.4573C169.448 93.4093 169.391 93.3493 169.323 93.3253C168.949 93.1933 168.577 93.0061 168.191 92.9725C168.027 92.9581 167.725 93.2461 167.685 93.4381C167.648 93.6205 167.822 93.9169 167.99 94.0549C168.194 94.2229 168.488 94.2889 168.748 94.3801C169.874 94.7773 170.24 95.2657 169.995 96.0589C169.745 96.8689 168.791 97.2793 167.815 96.9385C167.441 96.8077 167.116 96.5365 166.676 96.2737C166.963 96.0577 167.127 95.9341 167.314 95.7925C167.716 96.2341 168.152 96.6253 168.766 96.3973C169.004 96.3097 169.304 96.0361 169.324 95.8225C169.345 95.6113 169.099 95.2909 168.883 95.1565C168.465 94.8973 167.973 94.7617 167.54 94.5241C167.115 94.2901 166.816 93.9241 166.948 93.3973C167.085 92.8489 167.451 92.4865 168.023 92.4121C168.776 92.3137 169.505 92.3329 169.983 93.1621V93.1621Z" fill="#CECECE"/>
<path d="M88.4373 96.1585C88.5933 96.0433 88.7517 95.9269 88.8525 95.8525C89.2677 96.0697 89.6289 96.3817 90.0177 96.4225C90.3069 96.4525 90.7689 96.2041 90.9105 95.9449C91.1241 95.5585 90.8217 95.2597 90.4113 95.0953C89.9517 94.9117 89.4729 94.7353 89.0685 94.4605C88.3449 93.9673 88.3845 93.1345 89.1021 92.6269C89.8401 92.1049 91.0653 92.3485 91.5945 93.1597C91.4397 93.2665 91.2837 93.3733 91.1277 93.4801C91.1325 93.4153 91.1385 93.3505 91.1433 93.2869C90.7101 93.1693 90.2805 92.9869 89.8437 92.9665C89.6553 92.9581 89.3553 93.2569 89.2881 93.4717C89.2401 93.6241 89.4501 93.9529 89.6301 94.0609C89.9829 94.2709 90.3933 94.3849 90.7821 94.5325C91.3641 94.7533 91.7109 95.1265 91.6545 95.7937C91.6053 96.3769 91.2549 96.7957 90.6369 96.9757C89.7933 97.2229 88.9389 96.9133 88.4373 96.1597V96.1585Z" fill="#CECECE"/>
<path d="M170.955 96.1591C171.109 96.0451 171.263 95.9299 171.356 95.8627C171.772 96.0823 172.111 96.3403 172.49 96.4375C172.891 96.5407 173.313 96.3955 173.465 95.9503C173.624 95.4859 173.299 95.2615 172.922 95.0995C172.521 94.9267 172.107 94.7755 171.727 94.5655C171.251 94.3039 170.968 93.9007 171.121 93.3271C171.269 92.7667 171.665 92.4631 172.235 92.3995C172.977 92.3167 173.671 92.3719 174.113 93.1555C173.948 93.2647 173.804 93.3607 173.659 93.4555C173.662 93.4039 173.667 93.3535 173.671 93.3019C173.236 93.1795 172.805 92.9947 172.364 92.9659C172.181 92.9539 171.875 93.2503 171.814 93.4615C171.767 93.6247 171.963 93.9619 172.142 94.0651C172.533 94.2907 172.984 94.4095 173.404 94.5871C173.937 94.8103 174.219 95.1895 174.173 95.7979C174.131 96.3691 173.821 96.7111 173.321 96.9127C172.442 97.2667 171.451 96.9571 170.954 96.1591H170.955Z" fill="#CECECE"/>
<path d="M144.441 93.1836C144.24 93.0528 144.038 92.922 143.838 92.7912C144.043 92.664 144.248 92.5356 144.584 92.3268V90.7656H145.365V92.4852C145.628 92.5116 145.821 92.5308 146.028 92.5512C146.322 93.2652 145.651 92.9664 145.369 93.162V96.744C144.799 96.9444 144.58 96.8064 144.597 96.2328C144.627 95.202 144.606 94.1688 144.606 93.1368C144.552 93.1524 144.496 93.168 144.442 93.1836H144.441Z" fill="#CECECE"/>
<path d="M102.381 96.7956H101.776V89.4648H102.381V96.7956Z" fill="#CECECE"/>
<path d="M80.2857 92.5571H80.8893C80.9109 92.7767 80.9289 92.9687 80.9637 93.3287C81.4569 92.6027 81.9993 92.1911 82.8225 92.4635C82.8009 92.7971 82.7001 92.9759 82.2873 92.9663C81.5385 92.9507 81.1077 93.3694 81.0525 94.1254C80.9985 94.8586 81.0141 95.5978 80.9529 96.3298C80.9385 96.5026 80.7393 96.661 80.6253 96.8254C80.5125 96.6598 80.3061 96.4967 80.3025 96.3287C80.2749 95.0963 80.2881 93.8639 80.2881 92.5559L80.2857 92.5571Z" fill="#CECECE"/>
<path d="M142.099 96.7745V92.5625H142.729C142.729 93.8849 142.737 95.1917 142.724 96.4997C142.719 96.9821 142.388 96.8045 142.098 96.7745H142.099Z" fill="#CECECE"/>
<path d="M175.548 92.5195C175.808 92.5315 175.98 92.5387 176.209 92.5495C176.209 93.8863 176.216 95.1943 176.194 96.5023C176.193 96.6115 175.996 96.7987 175.886 96.8011C175.776 96.8047 175.564 96.6235 175.562 96.5203C175.539 95.2111 175.548 93.9019 175.548 92.5195V92.5195Z" fill="#CECECE"/>
<path d="M142.397 91.5972C142.163 91.2756 141.902 91.0692 141.931 90.9168C141.969 90.7116 142.232 90.5484 142.397 90.3672C142.568 90.5472 142.837 90.7092 142.875 90.9132C142.904 91.0668 142.635 91.2756 142.396 91.596L142.397 91.5972Z" fill="#CECECE"/>
<path d="M175.896 91.6224C175.656 91.2756 175.4 91.0644 175.431 90.912C175.475 90.7056 175.739 90.546 175.908 90.3672C176.069 90.5412 176.336 90.702 176.36 90.8928C176.382 91.0644 176.135 91.2696 175.896 91.6224V91.6224Z" fill="#CECECE"/>
</g>
<defs>
<clipPath id="clip0_503_3915">
<rect width="231" height="127" fill="white"/>
</clipPath>
</defs>
</svg>
