<?xml version="1.0" encoding="utf-8"?>
<!-- Generator: Adobe Illustrator 26.0.1, SVG Export Plug-In . SVG Version: 6.00 Build 0)  -->
<svg version="1.1" id="Layer_1" xmlns="http://www.w3.org/2000/svg" xmlns:xlink="http://www.w3.org/1999/xlink" x="0px" y="0px"
	 viewBox="0 0 129 85" style="enable-background:new 0 0 129 85;" xml:space="preserve">
<style type="text/css">
	.st0{fill:#B2B2B2;}
	.st1{fill:#151517;}
	.st2{fill:none;}
</style>
<g>
	<path class="st0" d="M47.12,20.38c1.89,1.23,3.12,3.05,4.37,4.94c1.46-4.83,4.55-6.65,9.56-5.74c-1.55-3.03-0.8-5.01,2.46-6.24
		c2.03-0.77,4.1-1.48,6.26-1.8c3.1-0.48,4.58,0.71,4.92,3.82c0.05,0.43-0.14,0.93,0.52,1.14c0.55,0.18,0.75-0.23,1.05-0.5
		c3.26-2.94,7.38-1.78,8.51,2.39c0.16,0.57,0.34,0.8,0.93,0.91c1.25,0.23,2.37,0.84,3.39,1.55c1.05,0.73,1.68,1.73,1.82,3.03
		c0.11,1.16,0.18,2.32,0.3,3.53c0.46,0.16,0.84-0.18,1.25-0.3c1.84-0.52,3.57-0.39,5.08,0.89c0.32,0.27,0.55,0.43,0.93,0.09
		c1.05-0.84,2.3-1.18,3.62-1.21c0.66,0,0.73-0.32,0.75-0.84c0.05-0.91,0.09-1.84,0.27-2.75c0.55-2.73,3.07-3.8,5.46-2.37
		c1.78,1.07,2.69,2.57,2.69,4.64c0,2.94-0.02,5.85-0.05,8.79c0,2.3-0.02,4.6,0.23,6.9c0.09,0.8,0.07,1.59-0.25,2.34
		c-0.62,1.46-2.05,2.5-3.46,2.05c-1.23-0.41-2.16-0.16-3.21,0.36c-0.91,0.46-1.93,0.43-3.1,0.16c1.37,2.53,1.62,4.99,0.46,7.51
		c-0.16,0.34-0.11,0.52,0.16,0.75c1.91,1.64,1.68,4.78,0.32,6.92c-0.23,0.34-0.77,0.64-0.27,1.16c0.05,0.2,0.18,0.36,0.3,0.55
		c1.57,2.37,0.41,4.74-2.46,4.96c-1.02,0.09-2-0.16-2.96-0.3c-4.6-0.71-8.95,0.21-13.2,1.8c-1.91,0.73-3.78,1.53-5.62,2.44
		c-2.37,1.18-4.83,1.89-7.4,0.57c-1.8-1.43-2.03-3.16-0.64-5.74c-1.37,0.66-2.66,1.02-4.03,0.55c-1.5-0.55-2.05-1.71-2-3.23
		c-5.19,1.43-8.79-0.27-10.36-4.78c-0.46,0.07-0.25,0.46-0.27,0.68c-0.71,5.37-5.62,7.85-10.31,5.17c-0.59-0.34-0.89-0.34-1.34,0.16
		c-0.57,0.66-1.18,1.32-1.84,1.89c-2.39,2.07-5.46,2.12-8.01,0c-0.77-0.66-1.12-0.48-1.73,0.11c-3.14,3.03-8.08,1.59-9.2-2.62
		c-0.05-7.9,0-15.8,0-23.7c0-0.93-0.27-1.53-1.25-1.66c-1.34-0.77-2.03-2.05-2.16-3.48c-0.89-8.38,4.19-15.5,10.2-18.1
		c1.71-0.34,3.28-1.05,5.01-1.32c3.55-0.55,6.92-0.05,10.18,1.37c1.48,0.66,2.78,1.62,4.12,2.48L47.12,20.38z"/>
	<path class="st0" d="M70.75,72.56c0.11-0.16,0.27-0.23,0.43-0.14c2.34,1.25,4.55,0.5,6.69-0.55c3.57-1.75,7.24-3.21,11.11-4.1
		c3.14-0.71,6.28-0.59,9.42-0.07c0.71,0.11,1.41,0.16,2.12,0c2.44-0.52,3.14-2.66,1.57-4.62c-0.14-0.16-0.61-0.39,0-0.55
		c1.14,0.89,1.55,2.05,1.12,3.44c-0.41,1.41-1.48,2.07-2.87,2.23c-0.57,0.07-1.18,0.07-1.75-0.02c-5.81-1.05-11.31-0.05-16.64,2.3
		c-1.87,0.82-3.71,1.75-5.62,2.48c-1.89,0.73-3.82,0.96-5.58-0.43V72.56z"/>
	<path class="st0" d="M19.78,39.42c1.16-0.05,1.5,0.3,1.5,1.62c0,5.49,0,10.95,0,16.44c0,2.05,0,4.1,0,6.15
		c0,0.41,0.14,0.84-0.23,1.18c-0.32-0.66-0.25-1.39-0.25-2.09c0-7.1-0.02-14.18,0.02-21.29C20.83,40.49,20.63,39.83,19.78,39.42z"/>
	<path class="st0" d="M47.12,20.38c-0.16,0.2-0.36,0.18-0.55,0c-3.64-3.1-7.94-4.07-12.59-3.8c-1.75,0.09-3.44,0.59-5.08,1.18
		c-0.36,0.14-0.71,0.55-1.12,0.07c5.6-2.98,13.86-2.16,18.64,1.84C46.69,19.88,46.89,20.13,47.12,20.38z"/>
	<path class="st1" d="M22.26,37.14c-0.23,0.55-0.55,0.46-0.96,0.16c-0.93-0.71-1.16-1.68-1.16-2.75c0.05-3.69,1.02-7.06,3.37-9.97
		c0.18-0.23,0.34-0.48,0.5-0.71c0.46-1.23,1.62-1.75,2.55-2.48c2.53-1.91,5.46-2.89,8.58-2.98c3.03-0.09,5.94,0.59,8.42,2.48
		c3.73,2.53,6.33,5.85,7.33,10.31c0.36,0.43,0.27,0.96,0.27,1.43c0,8.56,0,17.1,0,25.66c0,0.5,0.07,1-0.25,1.46
		c-0.05,0.07-0.09,0.14-0.11,0.23c-1.18,3.8-3.41,4.64-6.83,2.62c-1.46-0.87-2.25-0.8-3.46,0.39c-0.66,0.64-1.25,1.34-1.91,1.98
		c-1.62,1.53-3.21,1.59-4.94,0.25c-1.79-1.38-3.5-1.31-5.12,0.23c-1.62,1.5-3.46,1.16-4.89-0.96c-0.52-0.55-0.41-1.23-0.41-1.89
		c0-8.29,0-16.55,0-24.84c0-1.23-0.46-2.46-0.09-3.51c-0.09,0.89-0.16,1.98-0.82,2.89H22.26z"/>
	<path class="st1" d="M63.17,40.87c-2.12,2.44-5.21,2.87-7.83,1.12c-2.25-1.53-3.03-5.01-1.68-7.65c0.2-0.41,0.5-0.8,0.84-1.07
		c0.93-0.82,1.98-0.43,2.23,0.8c0.18,0.89-0.02,1.75-0.3,2.6c-0.27,0.84-0.39,1.73-0.23,2.6c0.16,0.82,0.52,1.57,1.48,1.64
		c0.91,0.05,1.5-0.55,1.75-1.37c0.68-2.32,0.23-4.46-1.27-6.37c-0.52-0.66-1.14-1.21-1.71-1.82c-1.18-1.3-2.09-2.73-2.23-4.53
		c-0.2-2.55,1.5-4.53,4.1-4.78c2.53-0.25,4.48,1.32,4.78,3.87c0.05,0.27,0.02,0.59-0.05,0.87c-0.18,0.75-0.39,1.59-1.3,1.62
		c-0.8,0-0.96-0.82-1.16-1.46c-0.18-0.55-0.23-1.14-0.36-1.71c-0.18-0.75-0.59-1.27-1.46-1.3c-0.84-0.02-1.32,0.43-1.59,1.16
		c-0.36,0.91-0.16,1.73,0.43,2.46c0.52,0.66,1.12,1.23,1.87,1.64c2.44,1.48,3.8,3.76,4.51,6.44c0.5,1.87,0.48,3.69-0.8,5.3
		L63.17,40.87z"/>
	<path class="st1" d="M99.16,31.22c1.78-2.05,3.07-2.16,5.96-0.46c0.16-1.98,0.32-3.89,0.5-5.83c0.07-0.68-0.09-1.55,0.68-1.87
		c0.73-0.3,1.16,0.46,1.68,0.8c0.14,0.09,0.25,0.2,0.39,0.32c0.59,0.5,0.55,1.18,0.55,1.84c0,4.33,0,8.65,0,12.98
		c0,0.75-0.07,1.48,0.18,2.23c0.14,0.39,0.14,0.82-0.21,1.16c-0.57,1.07-1.16,0.66-1.73,0c-0.52-0.59-0.98-0.89-1.75-0.25
		c-2.5,2.12-3.44,2.03-5.76-0.3c-0.96-0.77-1.46-1.84-1.55-3.01c-0.18-2.03-0.23-4.07,0.2-6.08c0.11-0.57,0.16-1.27,0.84-1.57V31.22
		z"/>
	<path class="st1" d="M92.63,47.79c0.84-0.75,1.78-1.37,2.91-1.64c1.48-0.34,2.48-0.02,3.41,1.18c1.43,1.84,1.39,4.37-0.11,6.42
		C98,54.9,96.89,55.67,95.7,56.4c-1.16,0.68-1.25,2.78-0.18,3.64c0.57,0.46,1.09,0.27,1.59-0.11c0.77-0.61,0.98-1.53,1.21-2.41
		c0.16-0.64,0.14-1.59,1.18-1.41c0.96,0.16,1.37,0.89,1.32,1.84c0,0.36-0.09,0.75-0.16,1.12c-0.02,1.16-0.84,1.73-1.68,2.28
		c-2.05,1.3-4.51,1.32-6.17,0c-0.41-0.32-0.87-0.66-0.93-1.27c-0.23-0.46-0.46-0.91-0.71-1.37c-0.71-0.82-0.75-1.87-0.75-2.8
		c-0.05-2.48,0.16-4.96,1.43-7.22c0.21-0.36,0.34-0.77,0.82-0.87L92.63,47.79z"/>
	<path class="st1" d="M69.71,63.73c-0.5,0.39-0.91,0.87-1.53,1.07c-1.12,0.39-1.41,0.16-1.39-1.02c0.11-4.19,0.23-8.35,0.32-12.54
		c0-0.82,0.23-1.82-1.23-1.43c-0.36,0.09-0.64-0.2-0.64-0.61c0-0.68-0.27-1.64,0.52-1.91c1.25-0.41,1.32-1.25,1.21-2.23
		c-0.11-1.09,0.3-1.37,1.3-0.98c0.8,0.3,1.57,0.59,2,1.39c0.36,0.68,1.02,0.77,1.73,0.77c1.89,0,3.76,0,5.65,0.05
		c1,0.05,2.03,0.09,2.85,0.77c0.07,0.59-0.41,0.77-0.8,0.98c-0.82,0.43-1.73,0.61-2.66,0.57c-1.39-0.07-2.75,0.16-4.12,0.27
		c-0.98,0.09-1.57,0.55-1.55,1.57c0.05,2.78-0.46,5.53-0.46,8.33c0,1.66,0.16,3.55-1.23,4.94L69.71,63.73z"/>
	<path class="st1" d="M78.29,69.33c-0.89,0.36-1.78,0.75-2.66,1.12c-0.59,0.25-1.18,0.43-1.82,0.46c-0.75,0-1.43-0.14-1.82-0.84
		c-0.39-0.73,0.07-1.3,0.5-1.8c1.05-1.25,2.46-1.98,3.92-2.66c2.07-0.96,4.28-1.39,6.44-2c0.84-0.55,1.84-0.46,2.78-0.61
		c4.62-0.75,9.2-0.52,13.7,0.8c0.25,0.07,0.48,0.14,0.71,0.25c0.48,0.25,0.89,0.55,0.8,1.14c-0.11,0.68-0.68,0.64-1.18,0.64
		c-2.21-0.02-4.39-0.25-6.6-0.27c-4.14-0.05-7.97,1.09-11.75,2.64C80.29,68.58,79.38,69.19,78.29,69.33z"/>
	<path class="st1" d="M56.18,57.31c0.05-1.05,0.16-2.09,0.91-2.94c0.34-0.39,0.75-0.71,1.32-0.5c0.57,0.2,0.82,0.66,0.84,1.27
		c0,0.77-0.27,1.48-0.43,2.21c-0.2,0.93-0.2,1.84,0.52,2.57c0.36,0.36,0.82,0.41,1.27,0.16c0.93-0.52,1.07-1.46,1.07-2.39
		c0-1.8-0.68-3.32-2-4.55c-0.98-0.93-1.84-1.93-2.28-3.26c-0.59-1.78-0.14-3.41,1.23-4.37c1.43-1,3.39-0.93,4.78,0.18
		c1.12,0.89,1.37,2.41,0.61,3.6c-0.2,0.32-0.43,0.68-0.84,0.66c-0.46,0-0.59-0.43-0.68-0.8c-0.16-0.59-0.25-1.23-0.41-1.82
		c-0.23-0.8-0.68-1.43-1.57-1.27c-0.82,0.14-1.05,0.87-1.07,1.64c-0.05,1.14,0.64,1.87,1.43,2.5c1.3,1,2.48,2.12,3.28,3.57
		c0.61,1.12,1.02,2.28,1.05,3.57c0.05,2.78-1.59,4.64-4.1,4.67c-2.91,0-4.89-1.89-4.87-4.71H56.18z"/>
	<path class="st1" d="M80.27,32.4c0,0,0-0.09,0-0.11c0.07-0.71-0.46-1.73,0.64-1.98c0.96-0.2,1.87,0.14,2.37,1.12
		c0.23,0.23,0.25,0.52,0.25,0.8c0,3.28,0.05,6.58,0,9.86c0,0.3,0,0.59-0.3,0.8c-0.96,1.05-1.55,1.09-2.6,0.11
		c-0.36-0.32-0.66-0.89-1.23-0.71c-2.3,0.71-3.48-0.59-4.44-2.37c-0.59-0.52-0.57-1.3-0.61-1.98c-0.16-2.57,0.3-5.12,0.64-7.65
		c0.16-1.07,0.61-1.25,1.64-0.87c0.59,0.25,1,0.68,1.32,1.25c0.5,1.75,0.36,3.53,0.09,5.28c-0.2,1.34,0.18,2.55,0.55,3.78
		c0.07,0.25,0.23,0.48,0.5,0.5c0.36,0.02,0.48-0.27,0.59-0.55c0.2-0.5,0.32-1.02,0.3-1.59c-0.02-1.46,0-2.91,0-4.39
		c0-0.46-0.11-0.93,0.23-1.32L80.27,32.4z"/>
	<path class="st1" d="M75.74,26.33c-0.23,0.2-0.39,0.61-0.8,0.41c-0.46-0.23-0.64-0.64-0.66-1.12c0-1.3,0-2.57,0-3.87
		c0-0.41,0.11-0.96-0.34-1.09c-0.52-0.16-0.77,0.39-0.98,0.8c-0.66,1.27-0.82,2.69-1.09,4.07c-0.09,0.5-0.27,0.98-0.84,1.16
		c-0.61,0.18-0.89-0.27-1.23-0.64c-0.68-0.64-0.48-1.48-0.55-2.25c0-1.84,0-3.71,0-5.55c0-0.39,0.11-0.82-0.2-1.18
		c-0.71-0.11-0.59,0.36-0.57,0.77c0.07,2.19-0.34,4.37-0.25,6.56c0.05,1.37-0.52,1.98-1.73,2.32c-0.77,0.14-0.89-0.23-0.84-0.93
		c0.09-2.34,0.11-4.67,0.16-7.01c0-0.77,0.05-1.53-1.12-0.89c-0.55,0.3-1.27,0.46-1.59-0.34c-0.34-0.84,0.27-1.21,0.93-1.48
		c2-0.84,4.07-1.46,6.21-1.89c1.37-0.27,1.71,0.07,1.84,1.46c0.14,1.55-0.18,3.05-0.36,4.71c0.91-0.36,1.25-1.32,2.16-1.39
		c0.93-0.07,1.41,0.55,1.89,1.21c0.11,0.09,0.23,0.2,0.27,0.36c0.2,1.57,0.11,3.16,0,4.74c-0.02,0.36,0.07,0.77-0.27,1.05
		L75.74,26.33z"/>
	<path class="st1" d="M90.4,31.74c0.5-0.52,1.02-1.05,1.53-1.57c2.25-1.87,4.19-0.75,5.12,1.09c1.16,2.3,0.57,4.64-1.64,6.6
		c-0.61,0.41-1.25,0.8-1.84,1.25c-0.5,0.39-0.61,0.87-0.41,1.43c0.16,0.46,0.39,0.84,0.93,0.87c0.57,0,0.87-0.43,1.11-0.87
		c0.21-0.36,0.27-0.77,0.41-1.18c0.39-1.23,1.09-1.43,2.25-0.68c0.55,0.89,0.32,1.68-0.3,2.41c-0.64,0.93-1.37,1.78-2.48,2.19
		c-1.98,0.77-3.26,0.41-4.96-1.43c-1.68-2.21-1.68-4.69-1-7.22c0.27-1,0.39-2.14,1.25-2.91L90.4,31.74z"/>
	<path class="st1" d="M87.55,42.88c-0.39,0.34-0.68,1-1.32,0.73c-0.87-0.39-1.34-1.21-1.53-2.09c-0.18-0.89-0.18-1.82-0.18-2.73
		c0-5.17,0-10.36,0-15.53c0-1.48,0.14-1.59,1.46-1c0.73,0.32,1.41,0.68,2.05,1.18c0.96,1,0.55,2.3,0.61,3.46
		c0.27,3.89,0.05,7.81-0.23,11.7c-0.09,1.16-0.43,2.28-0.39,3.46c0,0.34-0.2,0.61-0.5,0.84L87.55,42.88z"/>
	<path class="st1" d="M88.33,51.5c-0.25-0.57-0.46-1.16-0.75-1.71c-0.25-0.46-0.39-1.16-1.05-1.07c-0.57,0.09-0.55,0.77-0.64,1.25
		c-0.27,1.43-0.34,2.89-0.36,4.35c-0.05,1.32-0.11,2.66-0.18,3.98c-0.05,1.05-0.32,2.05-0.77,2.98c-0.32,0.59-0.73,1.07-1.46,0.91
		c-0.68-0.16-0.93-0.8-1.05-1.43c-0.32-2-0.64-4.01-0.61-6.06c0-1.32,0.18-2.66-0.16-3.98c-0.05-0.75-0.27-1.55,0.25-2.25
		c0-0.41,0.02-0.84-0.02-1.23c-0.11-0.8,0.16-1.27,0.98-1.41c0.84-0.14,1.34,0.23,1.59,1c0.43,1.25,0.43,1.25,1.34,0.25
		c1.16-1.3,1.82-1.46,3.39-0.82c1.23,0.23,1.53,1.3,1.89,2.23c0.41,1.07,0.61,2.16-0.25,3.16c-0.82,0.93-1.39,0.89-2.12-0.18
		L88.33,51.5z"/>
	<path class="st1" d="M79.99,59.95c-0.91,1.37-2.05,2.34-3.82,2.07c-1.82-0.27-2.75-1.59-3.44-3.14c-0.16-0.39-0.32-0.77-0.48-1.16
		c-0.8-2.14-0.87-4.3,0-6.44c0.87-2.12,3.16-2.91,5.85-2.12c0.82,0.32,1.57,0.77,2.07,1.53c0.46,0.68,0.64,1.46,0.84,2.23
		c0.43,1.91,0.27,3.8-0.32,5.65c-0.16,0.5-0.2,1.07-0.73,1.41L79.99,59.95z"/>
	<path class="st1" d="M73.21,40.1c-0.16,0.3-0.3,0.57-0.46,0.87c-1.18,2.46-4.35,2.78-6.15,0.43c-1.96-2.57-2.53-5.53-1.37-8.67
		c1.41-2.8,3.3-3.57,6.1-2.5c0.87,0.34,1.43,0.98,1.91,1.71C74.74,34.66,74.62,37.39,73.21,40.1z"/>
	<path class="st1" d="M77.81,18.18c1.71-1.32,2.8-1.43,3.73-0.36c1.09,1.21,0.98,3.07-0.3,4.39c-0.46,0.48-1.02,0.84-1.57,1.21
		C79.27,23.68,79,24,79.09,24.53c0.11,0.55,0.18,1.16,0.84,1.25c0.55,0.07,0.87-0.43,1.12-0.87c0.32-0.57,0.16-1.34,0.82-1.78
		c0.8-0.07,1.02,0.39,0.98,1.07c-0.05,1.3-1,2.32-2.5,2.78c-1.18,0.34-2.32-0.07-3.05-1.14c-1.57-2.28-1.3-6.03,0.55-7.69
		L77.81,18.18z"/>
	<path class="st0" d="M80,59.95c0.91-2.32,1-4.71,0.77-7.17c-0.11-0.3-0.2-0.59,0.07-0.84c0.11-0.05,0.16,0,0.16,0.07
		c0,0.07,0.14,0.05,0.11-0.05c-0.23-1.3-0.41-2.62-0.41-4.03c-0.84,0.39-1.53,0.96-2.41,0.93c0.09,0.07-0.11,0-0.09,0
		c0.23,0.09,0.52,0.16,0.55,0.41c0,0.39-0.25,0.32-0.5,0.18c-0.52-0.09-1.07-0.25-1.59-0.3c-2.21-0.23-3.82,0.89-4.39,3.05
		c-0.46,1.82-0.3,3.64,0,5.49c0,0.16-0.05,0.32-0.09,0.66c-0.57-1.41-0.77-2.73-0.93-4.07c0,1.37,0.09,2.73-0.02,4.1
		c-0.14,1.66,0,3.41-0.91,4.94c-0.11,0.2-0.11,0.77-0.64,0.36c0.84-1.39,0.89-2.94,0.96-4.48c0.14-3,0.25-6.01,0.27-9.01
		c0-1.14,0.5-1.62,1.53-1.68c1.75-0.14,3.51-0.25,5.26-0.36c1.07-0.07,2.07-0.27,2.8-1.14c0.2-0.23,0.59-0.2,0.68-0.64
		c0.27,0.73-0.16,1.48,0.34,2.07c0.09,0.71,0.18,1.41,0.05,2.14c0.23,1.96,0.07,3.92,0.09,5.85c0,0.36-0.09,0.75-0.34,1.05
		c-0.23,0.68-0.43,1.39-0.68,2.07c-0.09,0.2-0.11,0.75-0.61,0.36V59.95z"/>
	<path class="st0" d="M78.29,69.33c6.06-3.05,12.34-4.85,19.21-3.89c0.66,0.09,1.32,0.16,2,0.2c0.46,0.02,1.02,0.09,1.18-0.46
		c0.16-0.61-0.41-0.89-0.87-1.05c-1.59-0.55-3.23-0.86-4.89-1.07c-3.8-0.5-7.56-0.23-11.31,0.48c-0.25,0.05-0.5,0-0.75,0
		c-0.27-0.02-0.55-0.07-0.82-0.09c4.07-0.82,8.13-1.59,12.32-0.98c-0.89-0.5-1.8-0.93-2.41-1.75c-0.18-0.23-0.46-0.43-0.07-0.71
		c2.8,3.03,6.67,2.6,8.81-1c0.52,0.73-0.09,1.14-0.48,1.57c-1.21,1.34-2.87,1.73-4.58,2.05c1.34,0.14,2.6,0.61,3.87,0.89
		c0.36,0.07,0.71,0.25,1,0.48c0.41,0.3,0.82,0.66,0.61,1.25c-0.21,0.61-0.68,0.75-1.27,0.77c-1.71,0.11-3.41-0.23-5.1-0.3
		c-5.42-0.27-10.38,1.18-15.18,3.44c-0.36,0.18-0.75,0.64-1.21,0.11L78.29,69.33z"/>
	<path class="st0" d="M50.9,59.74c0.11-9.52,0.16-19.03,0-28.55c0.02-0.25,0.05-0.5,0.09-0.89c0.3,0.93,0.43,1.71,0.43,2.55
		c0,8.45,0,16.91,0,25.36c0,0.64-0.11,1.23-0.25,1.84c-0.02,0.14-0.05,0.41-0.2,0.07c-0.05-0.11-0.05-0.25-0.05-0.36L50.9,59.74z"/>
	<path class="st0" d="M87.55,42.88c0.75-4.74,0.96-9.52,1-14.3c0-1.73-0.11-3.46-0.48-5.17c0.68,0.2,0.75,0.34,0.8,1.37
		c0.14,3.1,0.3,6.19,0,9.31c0.5-0.52,0.55-1.23,0.84-1.8c0.14-0.25,0.05-0.96,0.73-0.57c-0.98,2.21-1.43,4.51-1.25,6.92
		c0.09,1.14,0.5,2.19,1,3.19c-0.39,0.41-0.48,0-0.57-0.25c-0.3-0.66-0.59-1.34-0.91-2.12c-0.52,0.8-0.23,1.55-0.3,2.28
		c-0.09,0.8-0.14,0.93-0.8,1.12L87.55,42.88z"/>
	<path class="st0" d="M65.24,32.7c-0.34,2.03-0.43,4.05,0.2,6.08c0.25,0.8,0.59,1.57,1.09,2.25c1.48,2,4.28,2.53,6.21-0.07
		c0.39,0.27,0.09,0.48-0.07,0.71c-1.91,2.32-5.17,1.96-6.72-0.8c-0.61-1.07-1.21-2.16-1.37-3.44c-0.05,1.05-0.34,2.03-0.75,2.96
		c-0.09,0.2-0.02,0.91-0.66,0.5c1.75-3.85,0.52-7.1-2.03-10.08c-0.52-0.59-1.12-1.09-1.68-1.66c0.46-0.48,0.64,0.07,0.87,0.27
		c1.98,1.78,3.44,3.87,4.05,6.53c0-1.09,0.18-2.16,0.43-3.19c0.05-0.23,0.2-0.71,0.41-0.05V32.7z"/>
	<path class="st0" d="M97.57,41.1c0.14-0.8,0.59-1.59,0.05-2.39c-0.16-1.25-0.14-2.48,0.05-3.32c-0.11,0.68-0.71,1.55-1.5,2.28
		c-0.27,0.25-0.66,0.73-1.05,0.05c0.59-0.64,1.25-1.23,1.66-2.03c0.64-1.25,0.87-2.55,0.27-3.85c-1.23-2.69-2.57-2.85-5.14-1.66
		c-0.34-0.3-0.05-0.41,0.16-0.52c2.73-1.71,4.64,0.02,5.51,2.3c0.18,0.46,0.23,0.96,0.36,1.5c0.23-0.71,0.41-1.34,0.64-1.98
		c0.09-0.23,0.16-0.66,0.57-0.27c-1.27,3.62-1.46,7.19,0.5,10.68c-0.55,0.41-0.64-0.2-0.75-0.43c-0.34-0.64-0.57-1.25-1.16-0.2
		c0,0-0.07-0.02-0.09-0.07c-0.02-0.02-0.05-0.07-0.07-0.09V41.1z"/>
	<path class="st0" d="M22.26,37.14c0.32-1.53,0.61-3.05,0.93-4.58c0.07,0,0.14,0.02,0.2,0.05c0,1.27,0,2.55,0,3.82
		c0,8.67,0,17.37,0,26.04c0,0.66,0.11,1.32,0.18,1.98c-0.93-0.16-0.52-0.93-0.52-1.41c-0.02-7.31,0-14.64,0-21.95
		c0-1.46,0-2.94,0-4.37c-0.5-0.32-0.09,1.09-0.77,0.39L22.26,37.14z"/>
	<path class="st0" d="M73.21,40.1c0.84-2.71,0.98-5.44,0.05-8.17c0.07-0.14,0.07-0.57,0.3-0.14c0.34,0.68,0.55,1.43,0.96,2.48
		c0-1.57,0-2.78,0.27-3.96c0.3-1.27,1.3-1.84,2.16-1.18c0.32,0.25-0.14,0.2-0.25,0.3c-0.66-0.07-1.34-0.09-1.41,0.77
		c-0.32,3.23-0.93,6.47-0.25,9.72c-0.07,0.11-0.05,0.55-0.3,0.16c-0.27-0.43-0.41-0.96-0.61-1.41c-0.34,1.14-0.36,1.18-0.93,1.41
		L73.21,40.1z"/>
	<path class="st0" d="M43.57,20.88c-5.33-2.96-10.65-3.03-15.98,0.05c-1.34,0.77-2.48,1.84-3.57,2.94
		c-0.46-0.57,0.16-0.75,0.41-0.96c2.71-2.53,5.78-4.17,9.56-4.6c3.35-0.39,6.33,0.41,9.17,1.96C43.36,20.38,43.93,20.36,43.57,20.88
		z"/>
	<path class="st0" d="M80.27,32.4c0.16,2.3,0.25,4.6-0.14,6.87c-0.09,0.57-0.23,1.3-0.91,1.32c-0.61,0-0.77-0.68-0.96-1.18
		c-0.39-1.16-0.48-2.37-0.36-3.6c0.16-1.71,0.39-3.41,0.11-5.12c0.3-0.82,0.48-0.16,0.48,0.07c0,1.71,0.23,3.44-0.09,5.12
		c-0.25,1.3,0.16,2.46,0.39,3.67c0.05,0.2,0.11,0.46,0.34,0.46c0.32,0,0.34-0.3,0.43-0.52c0.2-0.52,0.23-1.05,0.23-1.59
		c0-2.32,0-4.64,0-7.13C80.25,31.36,79.79,31.99,80.27,32.4z"/>
	<path class="st0" d="M77.81,18.18c-1.21,2.16-1.71,4.44-0.77,6.85c0.43,1.12,1.25,1.89,2.57,1.84c1.32-0.02,2.48-0.86,2.89-2.03
		c0.3-0.77,0.25-1.39-0.66-1.68c-0.3-0.39,0-0.46,0.25-0.36c0.93,0.32,1.18,1.05,0.91,1.91c-0.46,1.46-1.48,2.44-3.03,2.66
		c-1.39,0.2-2.39-0.5-3.07-1.68c-0.16-0.27-0.34-0.55-0.5-0.77c-0.43,0.41,0.43,1.34-0.64,1.46c0-0.32,0.02-0.64,0.05-0.96
		c0.18-1.68,0.2-3.35,0-5.03c-0.07-0.05-0.07-0.09-0.05-0.18c0.36-0.16,0.82-0.05,0.96-0.73c0.09-0.48,0.16-1.41,1.14-1.27
		L77.81,18.18z"/>
	<path class="st0" d="M108.91,42.42c-0.5-5.17-0.23-10.34-0.25-15.5c0-0.91,0.05-1.84-0.27-2.71c0.18-0.25,0.36-0.16,0.46,0.07
		c0.23,0.59,0.34,1.18,0.34,1.82c0,4.51,0,9.04-0.02,13.55c0,0.93,0.43,1.8,0.25,2.73c-0.07,0.27-0.23,0.89-0.5,0.07V42.42z"/>
	<path class="st0" d="M88.33,51.5c1.05,0.89,1.84,0.66,2.28-0.66c0.5-1.46-0.25-3.32-1.8-4.58c0.3-0.48,0.55-0.14,0.77,0.07
		c0.89,0.77,1.27,1.84,1.62,2.89c0.66-0.32,0.32-1.57,1.41-1.43c-1.91,3.16-2.37,6.56-1.64,10.15c0.05,0.25,0.11,0.48,0.16,0.73
		c-0.36,0.36-0.41-0.09-0.46-0.23c-0.46-1.48-0.84-2.96-0.46-4.53c0.2-0.82,0.43-1.66-1.02-1.43c-0.75,0.11-0.89-0.16-0.89-0.98
		H88.33z"/>
	<path class="st0" d="M66.47,26.69c1.07-0.5,1.48-1.39,1.5-2.5c0.05-2.12,0.14-4.23,0.14-6.35c0-0.82,0.25-1.27,1.12-1.23
		c0.27,1.8,0.05,3.62,0.14,5.44c0.02,0.61-0.14,1.23,0.11,1.84c0.25,0.71-0.14,1.5,0.32,2.16c-0.64,0.32-0.5-0.23-0.55-0.5
		c-0.5-2.23-0.16-4.48-0.25-6.74c0-0.48,0-0.98-0.18-1.48c0.09,1.43-0.25,2.85-0.32,4.26c-0.05,0.96,0.02,1.91,0,2.89
		c-0.09,1.66-1.27,2.73-2.8,2.57c0.3-0.11,0.55-0.23,0.8-0.34L66.47,26.69z"/>
	<path class="st0" d="M83.27,42.88c0.3-3.82,0.14-7.63,0.02-11.45c0.07-0.11,0.07-0.43,0.25-0.25c0.27,0.27,0.27,0.68,0.27,1.05
		c0,3.28,0,6.56,0,9.83c0,0.32,0.32,0.98-0.52,0.82H83.27z"/>
	<path class="st0" d="M81.29,57.51c0.48-2.28,0.11-4.6,0.27-6.9c0.3,2.03,0.11,4.05,0.3,6.08c0.09,1.25,0.14,2.5,0.36,3.71
		c0.34,1.87,0.89,2.03,2.34,0.87c0.46,0.84-0.48,0.77-0.77,1.07c-0.36,0.36-0.84,0.18-1.23-0.16c-0.84-0.77-0.91-1.82-1.02-2.87
		C81.48,58.72,81.77,58.06,81.29,57.51z"/>
	<path class="st0" d="M84.27,22.43V40.6c0,0-0.09,0-0.11,0V22.36c0,0,0.09,0.05,0.11,0.05V22.43z"/>
	<path class="st0" d="M39.68,36.8c0,1.48-0.39,2.8-1.46,3.87c-1.16,1.14-2.62,1.14-3.8,0.05c-2.03-1.89-1.98-6.08,0.07-7.94
		c1.14-1.02,2.6-1,3.69,0.07c1.12,1.09,1.5,2.46,1.5,3.98V36.8z"/>
	<path class="st0" d="M49.35,36.8c-0.05,1.16-0.27,2.23-1.07,3.12c-0.96,1.07-2.19,1.09-3.16,0.07c-1.5-1.55-1.5-4.92,0-6.47
		c0.98-1.02,2.21-1.02,3.16,0.02c0.84,0.91,1.07,2.05,1.09,3.26H49.35z"/>
	<path class="st0" d="M101.6,35.48c0-0.84-0.05-1.68,0-2.5c0.05-0.64,0.34-1.23,1.09-1.34c0.66-0.11,1.12,0.25,1.48,0.75
		c1.39,1.96,1.21,7.31-0.32,9.13c-0.25,0.3-0.48,0.77-0.96,0.66c-0.46-0.11-0.59-0.57-0.71-0.98
		C101.69,39.32,101.6,37.39,101.6,35.48z"/>
	<path class="st0" d="M97.36,49.43c-0.07,1.21-0.36,2.62-1.57,3.64c-0.2,0.18-0.39,0.52-0.73,0.3c-0.27-0.18-0.18-0.55-0.14-0.82
		c0.25-1.43,0.55-2.87,1.07-4.23c0.14-0.39,0.27-0.93,0.73-0.89c0.57,0.05,0.55,0.64,0.61,1.07c0.02,0.2,0,0.41,0,0.91L97.36,49.43z
		"/>
	<path class="st0" d="M69.48,23.87c-0.48-0.77-0.2-1.62-0.23-2.41c-0.05-1.62,0-3.23,0-4.85c0.48,0.23,0.23,0.66,0.23,0.98
		c0.02,2.09,0,4.19,0,6.31V23.87z"/>
	<path class="st0" d="M75.78,20.34c0.46,1.68,0.41,3.35,0,5.03C75.78,23.69,75.78,22.02,75.78,20.34z"/>
	<path class="st0" d="M95.13,37.71c0.77,0.34,0.98-0.41,1.3-0.77c0.59-0.66,0.98-1.46,1.39-2.28c-0.07,1.37,0.34,2.73-0.18,4.03
		c-1-0.61-1.55-0.32-1.73,0.8c-0.07,0.32-0.14,0.66-0.25,0.96c-0.3,0.73-0.73,1.37-1.62,1.32c-0.73-0.05-1.05-0.59-1.23-1.25
		c-0.25-0.84-0.07-1.46,0.75-1.87c0.55-0.27,1.07-0.64,1.59-0.98L95.13,37.71z"/>
	<path class="st0" d="M95.04,32.43c-0.09,1.18-0.34,2.44-1.39,3.35c-0.18,0.16-0.34,0.43-0.64,0.27c-0.27-0.14-0.18-0.43-0.16-0.66
		c0.23-1.27,0.48-2.53,0.93-3.73c0.14-0.39,0.25-0.93,0.73-0.87c0.46,0.07,0.46,0.64,0.5,1.02c0,0.16,0,0.34,0,0.61H95.04z"/>
	<path class="st0" d="M75.67,55.74c0.07-0.68-0.11-1.53,0.16-2.34c0.2-0.61,0.55-1.18,1.3-1.16c0.68,0.02,1.25,0.43,1.41,1.07
		c0.5,2.14,0.57,4.3-0.39,6.35c-0.2,0.46-0.57,0.89-1.14,0.84c-0.57-0.05-0.8-0.57-0.96-1.05c-0.39-1.16-0.39-2.37-0.39-3.73V55.74z
		"/>
	<path class="st0" d="M78.26,49.48c0.55-0.77-0.64-0.18-0.41-0.71c1-0.25,2.09-0.59,3.12-1.53c0.11,1.73,0.23,3.3,0.32,4.89
		c0,0.02-0.05,0.07-0.07,0.09c-0.18,0.02-0.16-0.14-0.18-0.23c-0.55-0.2-0.5-0.96-1.02-1.18c-0.46-0.59-1.09-0.96-1.73-1.32
		L78.26,49.48z"/>
	<path class="st0" d="M80.02,50.8c0.89-0.07,0.64,0.84,1.02,1.18c-0.3,0.18-0.23,0.52-0.27,0.8c-0.25-0.66-0.5-1.32-0.77-2
		L80.02,50.8z"/>
	<path class="st0" d="M68.61,36.39c0.05-0.8,0.02-1.59,0.14-2.37c0.09-0.68,0.41-1.32,1.23-1.37c0.77-0.05,1.32,0.46,1.48,1.12
		c0.52,2.14,0.59,4.3-0.27,6.4c-0.2,0.5-0.59,1-1.18,0.98c-0.64-0.02-0.84-0.61-1-1.14c-0.39-1.16-0.36-2.39-0.39-3.6V36.39z"/>
	<path class="st0" d="M79.24,21.61c0-1.18,0.3-2.25,0.71-3.28c0.07-0.2,0.23-0.41,0.46-0.32c0.11,0.05,0.2,0.25,0.25,0.41
		c0.36,1.07-0.25,2.53-1.41,3.21V21.61z"/>
	<rect class="st2" width="129" height="85"/>
</g>
</svg>
