<svg width="231" height="127" viewBox="0 0 231 127" fill="none" xmlns="http://www.w3.org/2000/svg">
<g clip-path="url(#clip0_317_1812)">
<path d="M119.57 32C119.956 32.5182 120.018 33.1064 120.018 33.7398C120.006 44.6143 120.01 55.493 120.002 66.3675C120.002 66.6266 119.932 66.8898 119.899 67.1243C118.241 67.4698 111.862 67.4985 109.793 67.1695C109.547 66.4868 109.67 65.7341 109.67 65.002C109.658 57.9566 109.67 50.9112 109.649 43.8658C109.649 43.146 109.913 42.3522 109.448 41.8628C106.034 41.8628 102.773 41.8833 99.5071 41.8504C98.5446 41.8422 97.6398 41.4556 96.8131 40.9949C95.9329 40.5055 95.3654 39.6706 95.3242 38.6753C95.2461 36.7628 95.2913 34.8461 95.3283 32.9295C95.3366 32.6169 95.5792 32.3085 95.715 32C103.665 32 111.62 32 119.57 32V32Z" fill="#EEEEEE"/>
<path d="M119.983 95.7491C119.234 95.054 118.202 95.3296 117.326 94.9923C116.187 94.5564 115.327 93.8489 114.525 93.0017C114.06 92.5123 114.114 92.0269 114.542 91.5498C114.723 91.3442 114.92 91.155 115.113 90.9617C116.335 89.7237 116.47 89.662 117.869 90.6121C118.807 91.2496 119.79 91.5786 120.904 91.6239C121.48 91.6485 121.998 91.5087 122.455 91.192C123.45 90.4969 123.487 89.3576 122.504 88.6502C122.072 88.3418 121.546 88.1443 121.036 87.9634C120.078 87.622 119.078 87.3917 118.14 87.0051C117.137 86.5897 116.178 86.0879 115.405 85.2488C113.715 83.4145 113.785 80.7082 115.315 78.734C117.861 75.456 124.594 75.5095 126.983 79.355C126.321 80.2475 125.498 81.029 124.61 81.7488C123.722 81.2593 122.911 80.7617 122.06 80.3627C121.118 79.9185 120.176 80.0584 119.37 80.7082C118.659 81.2881 118.691 82.0325 119.399 82.6001C119.938 83.032 120.559 83.2541 121.241 83.4145C122.689 83.7559 124.108 84.1836 125.375 85.035C126.814 86.0015 127.818 87.2888 128.061 88.9669C128.279 90.4599 127.921 91.9488 126.893 93.1415C125.794 94.4165 124.466 95.3378 122.689 95.3748C122.401 95.3789 122.155 95.4571 122.031 95.745H119.975L119.983 95.7491Z" fill="#EEEEEE"/>
<path d="M182.084 88.7524C181.311 89.2418 181.418 90.1878 180.994 90.8664C179.111 93.873 176.409 95.3577 172.859 95.3742C168.771 95.3906 165.884 93.326 164.374 89.7683C162.198 84.6395 163.983 79.6341 169.215 77.1458C173.517 75.0975 178.88 77.0265 180.962 81.1065C181.291 81.7522 181.426 82.5378 182.08 82.9984V88.7565L182.084 88.7524ZM179.608 86.079C179.732 84.3557 179.07 82.8421 178.173 81.4725C176.585 79.0459 172.929 78.1411 170.326 79.4079C166.932 81.0612 165.542 84.7464 166.735 88.5262C167.504 90.9651 169.289 92.3306 171.539 92.7584C176.273 93.655 179.756 90.0891 179.608 86.079V86.079Z" fill="#EEEEEE"/>
<path d="M48.0041 76.8285H63.0409C63.4111 78.1447 63.2548 79.4073 63.1766 80.7646C61.6096 81.1635 60.0262 80.7646 58.5661 81.0196C58.126 81.5954 58.2987 82.163 58.2946 82.6853C58.2782 86.3088 58.2946 89.9364 58.2782 93.5599C58.2741 94.8308 57.9944 95.1351 56.814 95.3161C56.6782 95.3366 56.5425 95.3284 56.4027 95.3284C53.5524 95.4024 53.6882 95.1516 53.7128 92.8195C53.7416 89.7431 53.7252 86.6625 53.7128 83.5861C53.7128 83.0431 53.7334 82.4797 53.5977 81.9656C53.4373 81.361 53.1206 80.8962 52.3062 80.9332C50.8749 80.999 49.4354 80.9415 48 80.9332V76.8203L48.0041 76.8285Z" fill="#EEEEEE"/>
<path d="M77.3422 76.4163C79.6619 79.9041 81.5826 83.4247 84.0627 86.7891C84.9017 86.0487 85.2431 85.074 85.7819 84.2679C87.2091 82.1168 88.5252 79.8958 89.9154 77.716C90.668 76.5356 92.56 75.9803 93.8309 76.5191C94.164 76.659 94.4108 76.9099 94.456 77.2677C94.5095 77.6707 94.4972 78.0862 94.4972 78.4974C94.4972 83.4247 94.5054 88.352 94.4972 93.2751C94.4972 95.2658 94.419 95.3193 92.3914 95.3357C90.7489 95.3494 89.9264 94.5076 89.9236 92.8104C89.9236 90.5606 89.9236 88.3108 89.9236 86.0158C89.2779 86.2009 89.0311 86.6163 88.7802 87.0235C87.7726 88.6358 86.769 90.2521 85.7655 91.8644C85.6585 92.0371 85.5804 92.2305 85.4611 92.3991C84.6097 93.5713 83.3224 93.5713 82.5121 92.358C81.5333 90.8855 80.6079 89.3802 79.6496 87.8996C79.3329 87.4101 78.9709 86.9495 78.4445 86.2174C78.4445 88.7098 78.4609 90.8896 78.4404 93.0736C78.4239 94.9162 78.0044 95.3069 76.1166 95.3357C76.0466 95.3357 75.9808 95.3357 75.9109 95.3357C73.5295 95.348 73.5213 95.348 73.5213 92.9461C73.5213 88.3602 73.5213 83.7784 73.5213 79.1925C73.5213 78.7812 73.4884 78.3658 73.5337 77.9628C73.6694 76.7906 74.0437 76.4574 75.2158 76.4163C75.4873 76.4081 75.7629 76.4163 76.0384 76.4163C76.4456 76.4163 76.8569 76.4163 77.3546 76.4163H77.3422Z" fill="#EEEEEE"/>
<path d="M98.3344 76.9509C100.226 76.7247 109.304 76.7247 111.241 76.9509C111.512 78.0449 111.385 79.1719 111.311 80.414C108.621 80.8088 105.96 80.3605 103.241 80.6731C103.048 81.6561 103.13 82.5856 103.192 83.6221C105.573 84.0375 107.963 83.5398 110.241 83.8853C110.361 84.0909 110.476 84.202 110.48 84.3212C110.681 87.9283 110.443 87.517 107.51 87.5129C106.149 87.5129 104.783 87.5129 103.369 87.5129C102.978 88.5781 103.151 89.5693 103.2 90.7867H111.66C111.874 92.2057 111.792 93.4149 111.734 94.6076C110.34 95.0313 101.674 95.1588 98.4784 94.8174C98.1082 93.4067 97.993 80.1919 98.3344 76.9509V76.9509Z" fill="#EEEEEE"/>
<path d="M156.092 87.8202C157.856 90.3003 159.497 92.6118 161.163 94.9561C159.057 95.6677 158.65 95.569 157.494 94.0307C156.232 92.3403 154.944 90.6623 153.785 88.9019C153.369 88.2768 152.896 87.8614 152.242 87.6598C150.737 87.191 150.071 87.6886 150.054 89.2844C150.034 91.1969 150.05 93.1135 150.05 94.8862C149.581 95.4867 149.071 95.3633 148.611 95.3427C147.973 95.3181 147.607 94.9438 147.558 94.3104C147.525 93.9032 147.541 93.4878 147.541 93.0765C147.541 88.4166 147.541 83.7567 147.541 79.0926C147.541 78.6813 147.525 78.27 147.558 77.8588C147.611 77.2336 147.948 76.8182 148.598 76.8141C151.066 76.8017 153.546 76.6619 155.997 76.8758C158.276 77.0732 160.653 79.6684 160.637 81.9593C160.624 83.8801 159.97 85.7062 158.099 86.7591C157.507 87.0922 156.898 87.3966 156.1 87.8161L156.092 87.8202ZM150.034 82.1238C150.034 82.8066 150.005 83.4893 150.042 84.168C150.099 85.1674 150.276 85.3772 151.251 85.4101C152.604 85.4512 153.949 85.4882 155.282 85.0728C156.639 84.6492 157.745 83.4893 157.778 82.2308C157.819 80.6843 156.989 79.726 155.385 79.2407C154.652 79.0186 153.941 78.9199 153.192 78.9199C149.676 78.9281 150.042 78.632 150.034 82.1238V82.1238Z" fill="#EEEEEE"/>
<path d="M133.604 88.3533V94.5762C132.781 95.2054 132.053 94.8805 131.453 94.9052C130.947 94.3911 131.095 93.8852 131.091 93.4245C131.074 88.4973 131.07 83.57 131.07 78.6469C131.07 76.6727 131.288 76.4218 133.316 76.4382C135.146 76.4547 136.96 76.3519 138.803 76.7508C142.068 77.4541 143.956 79.5558 143.841 82.8461C143.775 84.7545 142.903 86.227 141.229 87.1853C139.847 87.9749 138.387 88.4685 136.758 88.3657C135.804 88.304 134.846 88.3533 133.6 88.3533H133.604ZM133.637 79.3049C133.563 81.6287 133.538 83.7057 133.641 85.8732C135.29 85.8732 136.717 85.9144 138.145 85.8609C139.909 85.7992 141.348 84.2034 141.262 82.5007C141.18 80.8925 139.732 79.3707 138.145 79.3131C136.717 79.2638 135.286 79.3008 133.633 79.3008L133.637 79.3049Z" fill="#EEEEEE"/>
<path d="M122.502 40.844V32.5112C124.797 32.8732 126.969 32.9513 129.19 32.4783C130.687 32.1616 132.303 32.1987 133.825 32.795C134.396 33.0212 134.787 33.3092 134.791 33.9425C134.8 36.3856 134.791 38.8287 134.791 41.4363C133.804 41.1977 133.035 41.0291 132.274 40.8234C131.464 40.6055 130.678 40.6384 129.86 40.8234C128.745 41.0784 127.61 41.28 126.479 41.4445C125.171 41.6337 123.929 41.2553 122.502 40.8358V40.844Z" fill="#EEEEEE"/>
<path d="M65.2704 76.7813C66.677 76.7813 67.8245 76.7854 68.972 76.7813C69.7123 76.7772 70.1113 77.1473 70.1894 77.8671C70.2182 78.1385 70.2059 78.4141 70.2059 78.6856C70.2059 83.6005 70.2141 88.5154 70.2059 93.4262C70.2018 95.1783 70.0578 95.3058 68.3756 95.3387C67.7628 95.3511 67.1459 95.3758 66.5331 95.3305C65.6118 95.2647 65.3732 95.0015 65.2827 94.0679C65.2498 93.7306 65.2745 93.3851 65.2745 93.0437C65.2745 88.1987 65.2745 83.3537 65.2745 78.5046C65.2745 78.0357 65.2745 77.5627 65.2745 76.7813H65.2704Z" fill="#EEEEEE"/>
</g>
<defs>
<clipPath id="clip0_317_1812">
<rect width="231" height="127" fill="white"/>
</clipPath>
</defs>
</svg>
