<svg width="231" height="127" viewBox="0 0 231 127" fill="none" xmlns="http://www.w3.org/2000/svg">
<g clip-path="url(#clip0_580_1164)">
<g clip-path="url(#clip1_580_1164)">
<path d="M204.512 49.1918V49.4938C203.982 51.952 203.445 54.4081 202.924 56.8682C201.429 63.9215 199.936 70.9748 198.459 78.0311C198.353 78.5371 198.143 78.7764 197.619 78.7057C197.504 78.6896 197.383 78.7037 197.266 78.7037C183.424 78.6956 169.58 78.6916 155.737 78.6775C149.279 78.6714 142.82 78.6451 136.361 78.631C134.276 78.626 132.189 78.629 130.104 78.6239C129.492 78.6229 129.47 78.5946 129.59 77.9877C129.717 77.3464 129.858 76.7081 129.993 76.0678C130.337 74.4267 130.679 72.7856 131.029 71.1455C131.062 70.9879 131.042 70.7385 131.199 70.7011C131.418 70.6486 131.459 70.9193 131.556 71.0606C131.945 71.6222 132.421 72.0887 133.011 72.4311C134.389 73.2289 135.876 73.3905 137.401 73.0573C141.385 72.1857 144.263 69.8992 145.893 66.1625C146.943 63.7559 147.142 61.2776 146.145 58.774C144.659 55.0383 139.273 52.6246 135.423 55.9664C135.005 56.33 134.595 56.7026 134.18 57.0702C134.106 57.1359 134.03 57.246 133.928 57.2066C133.782 57.15 133.847 57.0056 133.868 56.8996C133.961 56.4219 134.038 55.9401 134.167 55.4725C134.294 55.009 134.129 54.8686 133.679 54.8716C132.014 54.8838 130.348 54.8868 128.683 54.8696C128.261 54.8656 128.091 55.0383 128.013 55.4362C127.767 56.6865 127.487 57.9297 127.224 59.1759C125.901 65.4253 124.575 71.6747 123.263 77.9261C123.163 78.4048 122.996 78.63 122.448 78.629C111.532 78.6108 100.615 78.6128 89.6987 78.6098C89.0362 78.6098 89.0029 78.5643 89.1422 77.9129C89.5573 75.9789 89.9784 74.045 90.3915 72.1099C90.6076 71.097 90.5389 71.2081 91.5347 71.2152C93.6565 71.2313 95.7763 71.202 97.8516 70.7001C100.771 69.9942 103.369 68.7207 105.163 66.209C107.329 63.1792 108.252 59.7425 108.163 56.0613C108.092 53.1144 106.79 50.8148 104.125 49.3797C104.047 49.3383 103.917 49.312 103.99 49.0898C104.193 49.0898 104.422 49.0898 104.651 49.0898C113.885 49.1191 123.119 49.1161 132.353 49.1363C154.808 49.1848 177.263 49.1605 199.718 49.1676C201.316 49.1676 202.914 49.1848 204.511 49.1939L204.512 49.1918ZM155.724 73.5259C156.466 73.5279 157.205 73.4572 157.929 73.3128C162.178 72.4654 165.439 70.287 167.261 66.2625C168.157 64.2841 168.401 62.1966 167.898 60.0697C166.895 55.823 163.474 54.2738 159.79 54.3869C157.442 54.4586 155.258 55.1776 153.262 56.4057C149.383 58.7932 147.164 62.0895 147.612 66.823C147.9 69.8619 149.994 72.3735 152.932 73.1673C153.845 73.4138 154.779 73.5168 155.724 73.5269V73.5259ZM115.109 73.539C116.198 73.5723 117.358 73.4723 118.487 73.2047C121.304 72.5361 123.413 70.9788 124.365 68.1692C125.281 65.4627 124.015 63.0914 121.293 62.2289C120.684 62.036 120.066 61.8744 119.458 61.6795C118.723 61.4432 117.971 61.2432 117.298 60.8514C116.758 60.5363 116.626 60.0747 116.921 59.5253C117.241 58.9295 117.747 58.57 118.411 58.4276C119.125 58.2751 119.817 58.4124 120.502 58.5912C121.997 58.982 123.386 59.6051 124.621 60.5413C124.946 60.7877 125.087 60.7706 125.173 60.3403C125.447 58.977 125.745 57.6176 126.046 56.2593C126.126 55.8987 126.03 55.7089 125.661 55.5907C124.765 55.3019 123.875 54.9989 122.962 54.7666C120.937 54.2505 118.887 53.9779 116.828 54.4646C113.678 55.2089 111.544 57.1076 110.662 60.2535C110.219 61.836 110.742 63.0651 112.085 64.0235C112.917 64.6174 113.845 64.9971 114.825 65.2647C115.683 65.499 116.548 65.7172 117.399 65.9777C118.188 66.2201 118.532 66.6332 118.553 67.2613C118.575 67.9511 118.237 68.4359 117.496 68.753C116.535 69.165 115.535 69.16 114.524 69.0024C112.9 68.7499 111.509 68.0006 110.229 67.0068C109.742 66.6291 109.728 66.6382 109.598 67.2522C109.303 68.6459 109.034 70.0457 108.713 71.4333C108.599 71.9282 108.733 72.1716 109.197 72.3523C111.075 73.0876 112.993 73.6066 115.109 73.541V73.539ZM187.704 72.824C188.578 72.824 189.453 72.8048 190.327 72.832C190.778 72.8462 191.001 72.7008 191.08 72.2392C191.212 71.4636 191.401 70.6971 191.564 69.9265C192.207 66.8927 192.856 63.8599 193.483 60.8231C193.575 60.3787 193.765 60.1979 194.225 60.2252C194.795 60.2575 195.369 60.2222 195.94 60.2353C196.247 60.2424 196.402 60.1141 196.464 59.8192C196.775 58.3427 197.094 56.8682 197.414 55.3938C197.487 55.0564 197.355 54.9393 197.021 54.9474C196.433 54.9615 195.843 54.9454 195.256 54.9474C194.903 54.9494 194.773 54.807 194.856 54.4465C195.042 53.6294 195.195 52.8043 195.386 51.9883C195.483 51.5753 195.384 51.4167 194.931 51.4217C193.149 51.4409 191.366 51.4389 189.584 51.4217C189.17 51.4177 188.975 51.5621 188.899 51.9691C188.75 52.7771 188.547 53.5739 188.402 54.3828C188.329 54.7949 188.126 54.9494 187.72 54.9363C187.165 54.9191 186.61 54.9413 186.055 54.9332C185.716 54.9282 185.53 55.0615 185.46 55.4049C185.163 56.8501 184.86 58.2932 184.537 59.7334C184.447 60.1384 184.596 60.2454 184.968 60.2343C185.472 60.2192 185.977 60.2293 186.482 60.2323C187.135 60.2353 187.142 60.2454 187.005 60.8908C186.207 64.6628 185.409 68.4349 184.61 72.2069C184.488 72.7846 184.512 72.8209 185.083 72.823C185.957 72.826 186.832 72.823 187.707 72.823L187.704 72.824ZM176.616 58.069C176.513 57.8953 176.558 57.7812 176.581 57.6681C176.734 56.9298 176.873 56.1876 177.046 55.4533C177.139 55.0564 176.994 54.9443 176.618 54.9464C174.853 54.9555 173.086 54.9565 171.321 54.9464C170.943 54.9443 170.792 55.11 170.717 55.4634C169.545 61.0412 168.363 66.617 167.185 72.1928C167.06 72.7846 167.09 72.8149 167.719 72.8159C169.501 72.8179 171.284 72.8017 173.066 72.827C173.556 72.8341 173.739 72.6482 173.831 72.1877C174.172 70.4779 174.55 68.7762 174.916 67.0715C175.213 65.6959 175.45 64.3023 176.109 63.0328C176.952 61.4068 178.267 60.406 180.077 60.0757C180.997 59.9081 181.921 59.9677 182.835 60.1242C183.262 60.1979 183.466 60.097 183.554 59.6334C183.819 58.2337 184.127 56.842 184.436 55.4513C184.513 55.1059 184.421 54.9322 184.069 54.907C183.131 54.8393 182.184 54.7302 181.255 54.9353C179.62 55.2968 178.318 56.2168 177.207 57.4378C177.02 57.6429 176.886 57.9034 176.614 58.068L176.616 58.069Z" fill="#EEEEEE"/>
<path d="M68.4551 48.4492C69.3479 48.6007 70.2497 48.6916 71.1314 48.9188C75.8405 50.1358 79.2197 53.9603 79.6862 58.7585C80.1841 63.8717 78.5834 68.3699 75.3053 72.255C72.4695 75.615 68.9197 77.9449 64.5761 78.9094C61.0697 79.688 57.5664 79.6941 54.2569 78.1338C50.383 76.3078 48.0572 73.2347 47.6492 68.9374C47.1432 63.6121 48.9398 58.9867 52.428 55.0238C55.8112 51.178 60.1336 49.0552 65.2336 48.5108C65.3325 48.4997 65.4305 48.4704 65.5284 48.4492C66.504 48.4492 67.4796 48.4492 68.4551 48.4492ZM62.4897 69.3717C63.9439 69.3727 65.1528 68.9566 66.1536 68.0649C68.0411 66.3844 68.8086 64.2252 68.7066 61.7589C68.6379 60.0916 67.5109 58.7797 65.992 58.4727C64.1822 58.1071 62.5442 58.506 61.1525 59.73C59.4216 61.252 58.6409 63.2274 58.6025 65.4886C58.5621 67.9184 60.0467 69.3687 62.4886 69.3717H62.4897Z" fill="#EEEEEE"/>
<path d="M92.2823 69.9425C91.4077 69.9425 90.7836 69.9738 90.1635 69.9324C89.6687 69.9001 89.4889 70.1111 89.396 70.5656C88.8981 72.9955 88.376 75.4203 87.864 77.8481C87.7054 78.6005 87.7085 78.6025 86.9601 78.6035C83.8829 78.6035 80.8058 78.6046 77.7286 78.6035C77.0479 78.6035 77.0338 78.5823 77.1732 77.9218C79.1606 68.5256 81.1522 59.1303 83.1265 49.732C83.2285 49.2452 83.4214 49.0644 83.9233 49.0664C88.0771 49.0826 92.2308 49.0543 96.3835 49.0886C98.2508 49.1038 100.11 49.2805 101.909 49.841C102.732 50.0976 103.514 50.4379 104.234 50.9166C105.888 52.0164 106.678 53.6292 106.813 55.539C107.026 58.5475 106.427 61.4177 105.015 64.092C103.353 67.2389 100.599 68.8649 97.1965 69.5405C95.4907 69.8788 93.7648 69.9808 92.2823 69.9435V69.9425ZM92.5964 62.1338C92.8983 62.1338 93.2023 62.152 93.5023 62.1307C94.9555 62.0267 95.9927 61.1986 96.331 59.8887C96.6764 58.5516 96.0533 57.6417 94.6899 57.4538C94.0537 57.3659 93.4164 57.3902 92.7802 57.3599C92.3479 57.3387 92.1874 57.5326 92.1116 57.9204C91.9218 58.8899 91.7016 59.8524 91.5006 60.8199C91.3141 61.7194 91.679 62.1573 92.5954 62.1338H92.5964Z" fill="#EEEEEE"/>
<path d="M39.889 49.0755C43.3529 49.0755 46.8179 49.0755 50.2819 49.0755C51.0857 49.0755 51.0968 49.0897 50.9363 49.8602C50.3556 52.6324 49.7597 55.4027 49.2003 58.1789C49.0922 58.7172 48.8539 58.8818 48.3186 58.8697C46.8058 58.8344 45.2919 58.8667 43.7781 58.8394C43.3024 58.8313 43.0984 58.9919 42.9995 59.4646C41.7139 65.6008 40.4101 71.732 39.1113 77.8653C38.9558 78.6015 38.9588 78.6045 38.1943 78.6045C35.1333 78.6045 32.0733 78.6056 29.0123 78.6035C28.3377 78.6035 28.3104 78.5732 28.4488 77.9168C29.7395 71.7987 31.0331 65.6826 32.3258 59.5655C32.4753 58.8596 32.4672 58.8465 31.7663 58.8455C30.2697 58.8435 28.773 58.8485 27.2763 58.8414C26.6835 58.8384 26.636 58.7748 26.7592 58.19C27.3551 55.3693 27.964 52.5506 28.5407 49.7259C28.6407 49.2361 28.8477 49.0644 29.3446 49.0664C32.859 49.0816 36.3735 49.0745 39.889 49.0745V49.0755Z" fill="#EEEEEE"/>
<path d="M137.143 59.2969C138.54 59.31 139.563 60.0129 140.05 61.3086C141.164 64.2748 138.764 68.1973 135.617 68.5558C133.958 68.7457 132.628 67.8479 132.194 66.2471C131.417 63.386 133.552 59.9321 136.444 59.3777C136.675 59.3332 136.91 59.3231 137.143 59.2969Z" fill="#EEEEEE"/>
<path d="M161.631 62.69C161.556 64.5543 160.867 66.1439 159.443 67.375C158.454 68.2304 157.311 68.5445 156.019 68.196C154.924 67.9011 154.268 67.173 154.147 66.0742C153.909 63.912 154.548 62.0325 156.181 60.5419C156.815 59.9632 157.553 59.5683 158.422 59.4895C160.265 59.3229 161.494 60.4015 161.63 62.289C161.64 62.4223 161.631 62.5566 161.631 62.691V62.69Z" fill="#EEEEEE"/>
</g>
</g>
<defs>
<clipPath id="clip0_580_1164">
<rect width="231" height="127" fill="white"/>
</clipPath>
<clipPath id="clip1_580_1164">
<rect width="178.046" height="31.0742" fill="white" transform="translate(26.4771 48.3125)"/>
</clipPath>
</defs>
</svg>
