<svg width="100" height="100" viewBox="0 0 100 100" fill="none" xmlns="http://www.w3.org/2000/svg">
<g clip-path="url(#clip0_520_2881)">
<g clip-path="url(#clip1_520_2881)">
<path d="M17.1211 0.197262H53.3083C56.8404 1.33956 58.09 3.86783 57.9399 7.43703C57.8034 10.6729 57.9282 13.9205 57.897 17.1622C57.8911 17.8113 58.0588 18.1407 58.7118 18.3454C60.0997 18.7821 61.4428 19.3591 62.8307 19.7938C63.2381 19.9224 63.7859 19.8873 64.1835 19.7197C66.3609 18.8054 68.5286 17.862 70.6689 16.86C73.4935 15.5364 76.4603 14.9984 79.55 15.1934C82.4525 15.3766 85.205 16.0569 87.357 18.1895C90.8463 21.6456 89.6163 26.5169 84.9126 27.9127C79.9789 29.3766 75.0705 30.9341 70.088 32.209C68.2069 32.6904 67.3824 33.9614 66.3551 35.3259C68.2245 35.439 70.0042 35.437 71.7527 35.669C85.1757 37.4604 95.3921 46.4526 98.819 59.4936C99.3258 61.4234 99.6104 63.4097 99.9983 65.3708V70.0394C99.9438 70.2207 99.856 70.4 99.8404 70.5852C99.5851 73.708 98.8424 76.7158 97.6748 79.6164C95.6397 84.6807 92.4954 88.938 88.3024 92.4234C87.4584 93.1251 86.7917 93.1368 86.1523 92.4994C85.4174 91.7665 85.548 90.9594 86.5227 90.1076C94.8365 82.8327 98.205 73.7099 96.665 62.7879C96.4564 61.3084 96.0042 59.862 95.665 58.4C95.5753 58.4097 95.4857 58.4175 95.398 58.4273C94.7274 60.0686 94.0724 61.7158 93.3804 63.3474C92.6358 65.1056 91.2985 66.1407 89.3941 66.3357C87.0412 66.5754 84.6787 66.7197 82.3258 66.9692C81.8599 67.0179 81.3239 67.2596 80.9944 67.5871C79.2985 69.283 77.6748 71.0511 75.9944 72.7645C73.2245 75.593 68.9067 74.5637 67.7157 70.7996C67.1972 69.1641 66.6436 67.5364 66.2284 65.8737C65.8638 64.4078 65.1601 63.2557 64.0334 62.2246C61.858 60.2343 61.5539 57.6554 63.0178 55.0842C64.1231 53.1427 65.1543 51.1485 66.3882 49.2908C67.4701 47.6631 67.9009 46.0433 67.5208 44.0978C67.1562 42.2343 67.0471 40.322 66.8151 38.3435C66.2927 38.3805 65.8463 38.4624 65.4038 38.4351C64.2128 38.363 63.472 38.9205 62.7839 39.8717C61.0958 42.209 59.3044 44.4741 57.5208 46.7392C57.2167 47.1251 56.7839 47.5072 56.3317 47.6573C54.6124 48.2285 52.8697 48.7333 51.1231 49.209C49.6709 49.6047 48.7469 48.6651 49.1211 47.2207C49.3375 46.3824 49.5773 45.5501 49.8424 44.5891C49.6065 44.7314 49.4935 44.7821 49.3999 44.86C44.8424 48.5949 41.6709 53.2713 39.8521 58.8776C39.6592 59.4702 39.897 59.7684 40.2401 60.1368C42.9321 63.0335 45.6104 65.9458 48.3024 68.8425C49.5714 70.207 50.1173 71.7723 49.8736 73.6476C49.5753 75.9283 49.3122 78.2148 49.1426 80.5092C49.0997 81.0978 49.3005 81.8464 49.665 82.2967C50.8093 83.7119 52.32 84.4214 54.2011 84.1544C56.4135 83.8386 58.6241 83.4975 60.8443 83.2499C63.4623 82.9575 65.4759 84.1563 66.5325 86.5481C67.1465 87.94 67.7274 89.3474 68.3258 90.745C69.1777 92.7294 70.0334 94.7119 70.9828 96.9146C73.2128 96.3357 75.3999 95.784 77.5773 95.1973C78.1991 95.0296 78.7839 94.7236 79.4058 94.5501C80.1777 94.3357 80.7703 94.6651 81.0549 95.3844C81.3453 96.1232 81.2011 96.8035 80.435 97.2129C80.0939 97.3941 79.7254 97.5286 79.3609 97.6632C72.0451 100.396 64.6845 100.515 57.2732 98.0608C56.9672 97.9594 56.4525 97.9575 56.2537 98.1446C54.8814 99.4234 53.2673 99.823 51.435 99.8191C36.5851 99.7957 21.7371 99.8054 6.88723 99.8054C2.64357 99.8054 0.390154 97.5657 0.390154 93.3493C0.390154 66.0511 0.390154 38.7509 0.390154 11.4526C0.390154 9.57153 0.370661 7.69044 0.399901 5.8113C0.427191 4.01987 1.14259 2.50915 2.57924 1.45067C3.31413 0.908763 4.22836 0.606619 5.06072 0.195312C6.81121 0.195312 8.56169 0.195312 10.3141 0.195312C10.9944 0.706034 11.3551 1.35711 11.0588 2.20701C10.7527 3.08225 10.0003 3.13099 9.21861 3.11929C8.15039 3.10175 7.07826 3.08615 6.01199 3.12904C4.62212 3.18557 3.45838 4.16412 3.36481 5.50915C3.25955 7.01598 3.34142 8.53449 3.34142 10.092H54.9925C54.9925 8.88732 54.9964 7.72943 54.9925 6.57153C54.9827 4.10759 53.9788 3.11539 51.4935 3.11539C40.3804 3.11539 29.2654 3.11344 18.1523 3.11929C17.3687 3.11929 16.6358 3.06861 16.3336 2.18167C16.0373 1.30642 16.4311 0.68849 17.1211 0.197262V0.197262ZM35.474 33.0959C40.2868 30.8327 45.0178 28.6086 49.934 26.2967C49.5929 26.0296 49.3551 25.8639 49.1406 25.6729C46.7449 23.5384 44.3531 21.398 41.9574 19.2635C41.3902 18.7587 40.8073 18.2323 40.9827 17.3844C41.1601 16.5325 41.8911 16.283 42.6358 16.0803C43.5403 15.8327 44.474 15.6398 45.3297 15.2733C47.1757 14.4838 48.9204 14.5813 50.7352 15.4273C52.0627 16.0472 53.4954 16.4429 54.9282 16.9575V13.1251H3.37261V80.4292H38.2264C38.1231 80.1251 38.0627 79.9107 37.9788 79.7041C36.7371 76.6164 35.9457 73.4195 35.7664 70.094C35.1075 57.8171 39.7664 48.0647 49.8151 40.9828C51.0588 40.1076 51.4876 39.092 51.7137 37.6865C51.4019 37.7626 51.1562 37.8093 50.9184 37.8795C45.8541 39.3532 40.7937 40.8425 35.7254 42.3006C32.5948 43.2012 29.5305 41.6729 28.5403 38.6631C27.743 36.2362 27.0646 33.7684 26.3609 31.3103C26.0978 30.3922 26.4759 29.6963 27.3765 29.4039C28.4525 29.055 29.5461 28.7528 30.6338 28.437C31.4759 28.1914 32.1387 28.4 32.6572 29.1524C33.5558 30.4585 34.4974 31.7353 35.474 33.0959V33.0959ZM69.8814 38.2596C69.8814 38.8464 69.8521 39.1641 69.8853 39.476C70.1387 41.7938 70.4467 44.1056 70.6377 46.4292C70.6884 47.055 70.5383 47.7899 70.2362 48.3396C68.7215 51.09 67.1348 53.7996 65.5558 56.5131C65.01 57.4507 64.8385 58.4175 65.4194 59.361C65.7527 59.901 66.2323 60.3747 66.7235 60.786C67.7547 61.6495 68.3804 62.6982 68.7157 64.014C69.1972 65.8912 69.8307 67.7314 70.4057 69.5852C71.0724 71.7372 72.5812 72.1076 74.1484 70.4897C75.9282 68.6495 77.667 66.7704 79.4818 64.9653C79.8794 64.5696 80.5013 64.2479 81.0529 64.1836C83.5929 63.8893 86.1445 63.6631 88.6962 63.4877C89.821 63.4097 90.4584 62.8854 90.856 61.8678C91.7274 59.6378 92.6299 57.4214 93.5636 55.2168C93.8307 54.5891 93.7976 54.0959 93.4545 53.5014C89.4428 46.5189 83.5812 41.8503 75.8892 39.5306C73.9633 38.9497 71.9399 38.6865 69.8794 38.2616L69.8814 38.2596ZM53.357 96.7002C53.3609 96.6125 53.3648 96.5248 53.3668 96.439C53.2323 96.3571 53.1017 96.2674 52.9633 96.1934C47.5636 93.3337 43.2888 89.283 40.1562 84.0433C39.8249 83.4897 39.4369 83.4253 38.8911 83.4253C27.3531 83.4351 15.8151 83.4312 4.27709 83.4351C3.9691 83.4351 3.66111 83.4682 3.30633 83.4877C3.30633 86.9848 3.29854 90.3844 3.31023 93.784C3.31608 95.7879 4.43109 96.8873 6.46228 96.8873C21.5968 96.8912 36.7332 96.8912 51.8677 96.8815C52.3629 96.8815 52.8599 96.7626 53.3551 96.6982L53.357 96.7002ZM71.2089 19.8191C70.9067 19.9497 70.6728 20.0491 70.4408 20.1544C66.2849 22.0374 62.1153 23.8932 57.975 25.8132C50.6631 29.2031 43.3707 32.632 36.0705 36.0433C34.8093 36.632 34.3297 36.5072 33.5227 35.3883C32.7644 34.3376 31.9691 33.3084 31.2732 32.2187C30.7976 31.4721 30.3024 31.3824 29.5675 31.9068C30.0724 33.6222 30.5812 35.3571 31.0958 37.09C31.7625 39.3357 33.051 40.0472 35.2927 39.3941C40.3882 37.9107 45.4642 36.363 50.5831 34.9672C52.1445 34.5423 53.1348 33.9302 53.3492 32.2012C53.4876 31.0803 54.3278 30.6242 55.2089 30.8873C56.0978 31.1544 56.4174 31.8873 56.1075 33.0121C55.4623 35.3513 54.8015 37.6865 54.1523 40.0257C53.6358 41.8834 53.1289 43.7431 52.5909 45.6904C54.1738 45.3863 55.3863 44.9166 56.3375 43.591C58.6981 40.3025 61.2401 37.1427 63.7079 33.9322C65.4857 31.6203 67.2634 29.3084 69.0412 26.9965C69.472 26.437 70.0607 26.0316 70.7098 26.3649C71.1582 26.5969 71.5169 27.1388 71.7371 27.6222C71.8619 27.8951 71.6241 28.3337 71.5305 28.786C73.0763 28.3337 74.589 27.8912 76.0997 27.4468C78.9243 26.6164 81.7566 25.8074 84.5714 24.9477C86.0081 24.5092 86.6182 23.4487 86.2323 22.1778C83.9028 22.8483 81.587 23.5715 79.2362 24.1622C78.318 24.3941 77.2966 24.5131 76.3746 24.363C73.8054 23.9497 72.2596 22.2207 71.205 19.8171L71.2089 19.8191ZM38.9769 63.053C35.9613 80.1895 49.7644 97.0647 67.6455 96.8093C67.6397 96.7158 67.6611 96.6105 67.626 96.5306C66.3551 93.554 65.0978 90.5735 63.7976 87.6105C63.3044 86.4858 62.4506 86.0023 61.2167 86.1446C59.3843 86.3571 57.5422 86.554 55.7332 86.9088C52.7137 87.4994 50.0646 86.9263 47.8736 84.7021C46.5773 83.3864 45.9827 81.821 46.2401 79.9283C46.5461 77.6826 46.8034 75.4253 46.9594 73.1661C47.0042 72.515 46.8229 71.6612 46.4135 71.1934C44.0256 68.4702 41.5364 65.8347 38.9769 63.053V63.053ZM45.3843 18.4C47.2518 20.0706 49.1562 21.5501 50.7781 23.2947C52.1757 24.7996 53.4077 25.0257 55.1445 23.9361C56.4837 23.0959 58.01 22.5579 59.6377 21.7977C59.1289 21.6008 58.8385 21.4838 58.5441 21.3766C55.5987 20.3123 52.6124 19.3435 49.7215 18.1466C48.1855 17.5111 46.8619 17.7177 45.3843 18.398V18.4ZM73.9652 18.6709C74.702 20.7801 76.1601 21.9224 77.7878 21.5364C79.8502 21.0452 81.8755 20.3922 84.1406 19.745C80.7742 17.9029 77.4954 17.5891 73.9672 18.6709H73.9652Z" fill="#727272"/>
<path d="M29.1406 94.0578C27.7819 94.0578 26.4213 94.0792 25.0626 94.0519C22.5909 94.0032 20.9184 92.3872 20.9456 90.1065C20.9729 87.8823 22.6552 86.2761 25.0685 86.2488C27.8521 86.2176 30.6357 86.1962 33.4174 86.2605C35.7312 86.3131 37.3764 88.0305 37.353 90.2098C37.3297 92.3463 35.6922 93.9447 33.4115 94.048C32.9593 94.0675 32.5051 94.0578 32.0529 94.0578C31.0821 94.0578 30.1113 94.0578 29.1406 94.0578ZM29.1815 91.1377C30.509 91.1377 31.8384 91.1397 33.1659 91.1377C33.8521 91.1377 34.4349 90.935 34.4135 90.126C34.394 89.3892 33.8423 89.165 33.1952 89.163C30.507 89.1572 27.817 89.1572 25.1289 89.163C24.4427 89.163 23.8716 89.3833 23.8852 90.1903C23.8989 90.9467 24.4525 91.1358 25.0996 91.1358C26.4603 91.1397 27.8209 91.1358 29.1815 91.1358V91.1377Z" fill="#727272"/>
</g>
</g>
<defs>
<clipPath id="clip0_520_2881">
<rect width="100" height="100" fill="white"/>
</clipPath>
<clipPath id="clip1_520_2881">
<rect width="100" height="99.8187" fill="white"/>
</clipPath>
</defs>
</svg>
