<?xml version="1.0" encoding="utf-8"?>
<!-- Generator: Adobe Illustrator 27.4.0, SVG Export Plug-In . SVG Version: 6.00 Build 0)  -->
<svg version="1.1" id="Layer_1" xmlns="http://www.w3.org/2000/svg" xmlns:xlink="http://www.w3.org/1999/xlink" x="0px" y="0px"
	 viewBox="0 0 50 45" style="enable-background:new 0 0 50 45;" xml:space="preserve">
<style type="text/css">
	.st0{fill:#FFFFFF;}
</style>
<g id="aw1DUi.tif">
	<g>
		<path class="st0" d="M45.7,38.8c-0.3,0.8-0.8,1.4-1.7,1.6c-0.2,0-0.5,0.1-0.7,0.1c-3.4,0-6.8,0-10.2,0c-0.3,0-0.6,0.1-0.8,0.2
			C27.2,43.6,21.8,44,16.3,42c-0.2-0.1-0.3-0.1-0.5-0.2c0.2-0.4,0.3-0.8,0.5-1.2c0.8,0.3,1.6,0.5,2.5,0.8c0-0.7,0-1.2,0-1.8
			c0-0.2-0.2-0.4-0.3-0.5c-0.8-0.7-1.2-1.6-1.1-2.6c0-0.3,0-0.5,0-0.8c0-1.1,0.9-2.1,2-2c0.9,0,1.5-0.3,2-0.9
			c0.8-0.9,1.7-1.7,2.5-2.5c0.5-0.5,1.1-0.8,1.8-0.7c0.5,0,0.9,0,1.4,0c1.1,0,2,0.9,2,2c0,0.7,0,1.4,0,2.2c0,1.1-0.8,1.9-1.9,2
			c-0.7,0.1-0.8,0.3-0.9,0.9c0,0.6,0.1,1.1,0.6,1.5c0.1,0.1,0.2,0.2,0.3,0.3c0.8,0.7,1.4,1.4,1.1,2.7c1-0.4,1.8-0.8,2.7-1.2
			c-0.6-0.6-0.6-1.3-0.6-2c0-5.3,0-10.5,0-15.8c0-1.5,0.8-2.3,2.4-2.3c0.8,0,1.6,0,2.5,0c0-0.2,0-0.3,0-0.4c0-2.1,0-4.2,0-6.4
			c0-0.2-0.1-0.5-0.3-0.6c-0.7-0.7-5.1-3.5-5.9-3.9c-0.1,0-0.3,0.1-0.4,0.2c-0.1,0.1-0.1,0.3-0.1,0.5c0.4,1.1,0.8,2.1,1.3,3.2
			c0.3,0.7,0.5,1.4,0.8,2c0.4,0.9,0.2,1.7-0.5,2.4c-0.6,0.7-1.3,1.3-2,2c-1.2-2.1-2.3-4.1-3.5-6.2c-0.1,0.1-0.2,0.2-0.4,0.3
			c-1.3,1.3-2.5,2.5-3.8,3.8c-0.2,0.1-0.4,0.2-0.6,0.3c-0.5,0-1.1,0-1.7,0c0.3,0.9,0.7,1.7,1,2.5c0.1,0.3,0.1,0.5-0.1,0.7
			c-0.9,0.9-1.9,1.8-2.8,2.8c-0.1-0.4-0.3-0.7-0.4-1c-0.4-0.9-0.7-1.9-1.2-2.8c-0.1-0.2-0.3-0.4-0.4-0.5c-1.2-0.5-2.5-1-3.9-1.6
			c0.2-0.2,0.4-0.3,0.6-0.5c0.8-0.8,1.6-1.5,2.3-2.3c0.2-0.3,0.4-0.3,0.7-0.1c0.8,0.3,1.6,0.7,2.5,1c0-0.6,0-1.1,0-1.7
			c0-0.2,0.1-0.5,0.3-0.6c1.2-1.3,2.5-2.5,3.7-3.8c0.1-0.1,0.2-0.2,0.4-0.4c-0.7-0.4-1.3-0.7-1.9-1.1c-0.1,0-0.2,0-0.2,0
			c-5,1.3-8.8,4.2-11.3,8.8c0.7,0.7,1.5,1.4,2.2,2.2c0.8,0.8,0.9,1.9,0.2,2.8c-0.4,0.6-1,0.9-1.7,0.9c-0.8,0-1.7,0-2.6,0
			c0,0.9,0,1.8,0,2.8c0.9,0,1.8,0,2.7,0c0.3,0,0.6-0.2,0.8-0.4c1.2-1.1,2.7-1.1,3.9,0.1c0.2,0.2,0.3,0.4,0.5,0.5
			c1.3,1.1,1.3,3.5,0,4.6c-0.5,0.4-1,0.9-1.4,1.4c-0.2,0.2-0.4,0.6-0.4,0.9c-0.2,1.6-1,2.5-2.6,2.7c0,0,0,0-0.2,0.1
			c0.9,1,1.8,1.9,2.8,2.9c-0.2,0.3-0.5,0.6-0.8,1C6.7,35.5,3,28.6,4.6,21c1.5-7.1,5.9-11.8,12.7-14.3c-0.8-0.4-1.6-0.9-2.3-1.3
			c0.7-0.8,1.4-1.5,2.2-2.2c0.6-0.6,1.4-0.6,2.2-0.3c1.6,0.7,3.2,1.3,4.8,2C24.7,5.1,25,5,25.3,4.6c1-1.2,2.2-2.1,3.8-2.5
			c0.9-0.3,1.8-0.3,2.8-0.3c0.1,1,0,2-0.4,2.9c-0.4,0.9-0.9,1.8-1.3,2.6c0.7,0.4,1.5,0.8,2.3,1.2c0.1,0,2.5,1.8,3.1,2.3
			c0.1-0.1,0.1-0.2,0.2-0.3c0.7-1.1,1.9-1.5,3.1-1.1c1.2,0.4,1.9,1.4,1.9,2.7c0,2.4,0,4.8,0,7.1c0,0.1,0,0.3,0,0.5c0.5,0,1,0,1.5,0
			c0.4,0,0.8,0,1.2,0c1,0,1.7,0.5,2.1,1.5c0,0.1,0.1,0.1,0.1,0.2C45.7,27.2,45.7,33,45.7,38.8z M44.4,30.1c0-2.7,0-5.4,0-8
			c0-0.7-0.2-1-1-1c-3.5,0-7,0-10.5,0c-0.7,0-1,0.2-1,0.9c0,5.4,0,10.7,0,16.1c0,0.7,0.2,1,0.9,1c3.5,0,7,0,10.5,0c0.7,0,1-0.2,1-1
			C44.4,35.5,44.4,32.8,44.4,30.1z M30.5,3.2c-0.9,0-2,0.5-2.8,1.1c-0.8,0.7-1.5,1.4-2.2,2.1c-0.2,0.2-0.4,0.3-0.7,0.1
			c-2-0.8-3.9-1.6-5.9-2.4c-0.3-0.1-0.6-0.2-0.9,0c-0.3,0.2-0.5,0.5-0.8,0.8c2.1,1.2,4.1,2.3,6.2,3.5c-0.1,0.1-0.2,0.2-0.3,0.3
			c-1.6,1.6-3.1,3.1-4.7,4.7c-0.1,0.1-0.2,0.2-0.2,0.4c0,0.5,0,1.1,0,1.7c0.4,0,0.8,0,1.2,0c0.4,0,0.7-0.1,1.1-0.4
			c1.6-1.6,3.2-3.2,4.8-4.9c1.2,2.1,2.3,4.1,3.5,6.3c0.2-0.2,0.3-0.4,0.4-0.5c0.5-0.4,0.6-0.8,0.3-1.4c-0.8-1.9-1.5-3.8-2.3-5.7
			C27,8.6,27,8.4,27.3,8.2C28,7.5,28.7,6.8,29.3,6C30,5.3,30.3,4.3,30.5,3.2z M20.2,41.6c2.3,0.4,4.5,0.3,6.7-0.2
			c0.1,0,0.2-0.2,0.2-0.3c0.1-0.6,0-1.2-0.6-1.6c-0.2-0.1-0.3-0.3-0.4-0.4c-0.8-0.7-1.1-1.5-1.1-2.6c0.1-1.3,0.8-2.1,2.1-2.2
			c0.5,0,0.7-0.3,0.7-0.7c0-0.7,0-1.3,0-2c0-0.5-0.3-0.7-0.7-0.7c-0.4,0-0.9,0-1.3,0c-0.3,0-0.6,0.1-0.8,0.3
			c-0.8,0.8-1.7,1.6-2.4,2.4c-0.8,0.9-1.7,1.6-3.1,1.4c-0.4-0.1-0.7,0.3-0.7,0.7c0,0.3,0,0.6,0,0.9c-0.1,0.7,0.1,1.2,0.6,1.6
			c0.5,0.4,0.8,1.1,0.7,1.8C20.2,40.4,20.2,41,20.2,41.6z M5.8,26.6c0,0.2,0,0.4,0,0.5c0.3,2,0.9,3.8,1.8,5.6
			c0.5,0.9,0.5,0.9,1.4,0.8c0.8,0,1.3-0.5,1.4-1.3c0-0.7,0.3-1.4,0.8-1.9c0.5-0.5,0.9-1,1.4-1.4c0.6-0.5,0.7-2,0-2.5
			c-0.2-0.2-0.4-0.4-0.6-0.6c-0.6-0.6-1.3-0.6-1.9,0c-0.6,0.6-1.3,0.8-2.1,0.8C7.4,26.6,6.6,26.6,5.8,26.6z M39.5,19.7
			c0-0.1,0-0.1,0-0.2c0-2.4,0-4.9,0-7.3c0-0.1,0-0.3,0-0.4c-0.2-0.7-0.8-1.1-1.5-1c-0.7,0.1-1.2,0.7-1.2,1.4c0,2.4,0,4.8,0,7.3
			c0,0.1,0,0.2,0,0.3C37.7,19.7,38.6,19.7,39.5,19.7z M17,20.6c0.3-0.3,0.6-0.6,0.8-0.9c0.1-0.1,0.1-0.3,0.1-0.5
			c-0.3-0.8-0.6-1.5-0.9-2.2c-0.1-0.1-0.2-0.3-0.3-0.3c-0.8-0.3-1.5-0.6-2.3-0.9c-0.1,0-0.3,0-0.4,0c-0.3,0.3-0.6,0.5-0.9,0.9
			c0.8,0.3,1.6,0.7,2.3,0.9c0.3,0.1,0.5,0.3,0.6,0.6C16.3,19,16.6,19.8,17,20.6z M5.9,21.1c0.9,0,1.7,0,2.4,0c0.2,0,0.5-0.3,0.6-0.5
			c0.1-0.2,0-0.6-0.1-0.7c-0.6-0.7-1.3-1.3-2-2C6.6,19,6.3,20,5.9,21.1z"/>
		<path class="st0" d="M29.2,24.2c0,0.4,0,0.7,0,1.1c0,0.8-0.6,1.4-1.3,1.3c-0.9-0.1-1.5,0.2-2,0.9c-0.3,0.4-0.8,0.5-1.3,0.5
			c-0.5,0-0.9,0-1.4,0c-0.7,0-1.2-0.2-1.5-0.9c-0.2-0.7-0.2-1.3,0.3-1.9c0.5-0.5,1-0.9,1.4-1.4c0.1-0.1,0.2-0.4,0.2-0.6
			c0-0.9,0.6-1.5,1.5-1.5c0.8,0,1.7,0,2.5,0c0.9,0,1.5,0.6,1.5,1.5C29.2,23.6,29.2,23.9,29.2,24.2C29.2,24.2,29.2,24.2,29.2,24.2z
			 M22.8,26.6c0.3,0,0.5,0,0.7,0c0.9,0.1,1.5-0.1,2-0.8c0.3-0.4,0.8-0.6,1.3-0.6c0.3,0,0.6,0,0.8,0c0-0.7,0-1.4,0-2.1
			c-0.9,0-1.8,0-2.7,0c0.1,0.8-0.2,1.3-0.8,1.7c-0.4,0.3-0.7,0.7-1.1,1.1C23,26.2,23,26.4,22.8,26.6z"/>
		<path class="st0" d="M35.4,43.2c-0.7,0-1.3,0-2,0c0-0.4,0-0.9,0-1.3c0.7,0,1.3,0,2,0C35.4,42.3,35.4,42.7,35.4,43.2z"/>
		<path class="st0" d="M41.6,41.9c0.7,0,1.3,0,2,0c0,0.4,0,0.9,0,1.3c-0.7,0-1.3,0-2,0C41.6,42.8,41.6,42.3,41.6,41.9z"/>
		<path class="st0" d="M35.3,37.7c-0.5,0-0.9,0-1.3,0c0-5.1,0-10.1,0-15.2c0.4,0,0.9,0,1.3,0C35.3,27.6,35.3,32.6,35.3,37.7z"/>
		<path class="st0" d="M38.8,37.7c-0.4,0-0.9,0-1.3,0c0-5.1,0-10.1,0-15.2c0.4,0,0.9,0,1.3,0C38.8,27.6,38.8,32.6,38.8,37.7z"/>
		<path class="st0" d="M40.9,22.5c0.5,0,0.9,0,1.3,0c0,5.1,0,10.1,0,15.2c-0.4,0-0.9,0-1.3,0C40.9,32.6,40.9,27.6,40.9,22.5z"/>
	</g>
</g>
</svg>
