<svg width="232" height="57" viewBox="0 0 232 57" fill="none" xmlns="http://www.w3.org/2000/svg">
<g clip-path="url(#clip0_2622_688)">
<path d="M0 1.79907H28.5867V6.14276H16.7547V43.0424H11.9425V6.14276H0V1.79907Z" fill="white"/>
<path d="M232 42.883C230.186 43.6496 228.198 43.914 226.247 43.6486C222.642 43.1925 220.536 41.151 220.044 37.5457C219.921 36.5903 219.86 35.6278 219.863 34.6644C219.845 29.3597 219.854 24.0531 219.854 18.7484V17.6824H214.852V13.6391H219.854C219.854 11.6049 219.927 9.68096 219.825 7.76612C219.771 6.71097 220.082 6.21145 221.121 5.97797C222.257 5.72097 223.356 5.29385 224.565 4.91016V13.5577H232.01V17.7204H224.608C224.596 17.943 224.579 18.0914 224.579 18.238C224.579 23.7255 224.583 29.2125 224.59 34.6988C224.595 35.3334 224.656 35.9664 224.773 36.5901C225.127 38.5013 226.085 39.3918 228.01 39.7175C229.46 39.9619 230.745 39.5366 231.998 38.9013L232 42.883Z" fill="white"/>
<path d="M50.4219 56.6199V13.6627H55.0437V18.6018L55.225 18.6869C55.486 18.3249 55.7524 17.9629 56.008 17.601C60.3127 11.3877 69.435 11.9904 73.2503 15.7567C75.6066 18.086 76.8318 20.9365 77.2523 24.1617C77.7816 28.2321 77.5586 32.241 75.8984 36.0507C72.7718 43.2269 66.2359 44.6386 61.1628 43.4386C59.024 42.9319 57.3438 41.6921 55.9971 39.9818C55.7416 39.6578 55.4969 39.3248 55.0909 38.7818V56.6271L50.4219 56.6199ZM54.8824 28.871L55.0184 28.9054C55.1036 30.2555 55.0854 31.6202 55.2939 32.9523C55.8123 36.2498 58.4639 38.999 61.6068 39.6379C65.3097 40.389 68.6864 39.1963 70.4881 36.1087C73.2394 31.403 73.4696 26.3861 71.4052 21.3582C70.5189 19.1991 68.7879 17.7747 66.4698 17.1955C61.6902 15.9884 57.0448 18.5366 55.6836 23.2821C55.1724 25.0703 55.1362 26.9978 54.8824 28.871Z" fill="white"/>
<path d="M187.242 13.6627H191.902V18.8679C192.375 18.2091 192.672 17.7711 192.99 17.3512C195.862 13.6174 199.768 12.4826 204.253 13.0817C208.693 13.6735 211.633 16.3268 213.088 20.4334C214.983 25.7797 214.85 31.2021 212.518 36.3892C209.369 43.3934 202.821 44.5969 197.936 43.426C195.734 42.8975 194.03 41.5889 192.669 39.8062C192.469 39.5474 192.277 39.2832 191.924 38.8108V56.6145H187.242V13.6627ZM191.683 28.8077L191.924 28.8402C191.924 29.7452 191.9 30.6501 191.924 31.555C192.044 35.4517 194.704 38.8343 198.251 39.6198C202.38 40.5338 206.045 38.9357 207.858 35.1603C209.862 30.965 210.076 26.5526 208.566 22.1564C207.7 19.6334 205.925 17.8616 203.241 17.1919C198.51 16.0119 193.932 18.4697 192.531 23.1355C191.984 24.9436 191.947 26.9091 191.683 28.8077Z" fill="white"/>
<path d="M106.407 29.5315H85.4748C85.2102 34.6643 88.1283 39.4858 94.1096 39.8007C97.3937 39.9937 100.644 39.0537 103.317 37.1384C103.489 37.0189 103.665 36.9013 103.844 36.7927C103.888 36.7673 103.957 36.7927 104.118 36.7927C104.118 38.1066 104.151 39.4206 104.089 40.7309C104.078 40.9717 103.727 41.2522 103.464 41.4169C100.948 43.0186 98.1315 43.6702 95.2061 43.7426C93.4716 43.786 91.6826 43.7064 89.9988 43.3209C85.9732 42.4015 83.2001 39.8495 81.7592 36.0199C80.0011 31.3504 79.8887 26.5705 81.5888 21.8631C84.0321 15.0978 90.7438 11.5884 97.6476 13.3766C102.141 14.5385 104.609 17.7004 105.57 22.0169C106.097 24.3987 106.137 26.8945 106.407 29.5315ZM101.37 25.4846C101.283 24.643 101.244 23.8684 101.117 23.1083C100.348 18.513 96.5456 16.0226 92.0234 17.1357C88.5434 17.9899 85.821 21.4432 85.4712 25.4882L101.37 25.4846Z" fill="white"/>
<path d="M131.625 8.00321C129.222 6.3036 126.325 5.4429 123.382 5.55446C121.932 5.59066 120.395 5.73544 119.032 6.21325C113.89 8.02311 114.138 13.9251 116.875 16.2635C118.305 17.4851 119.967 18.448 121.564 19.4669C123.921 20.9727 126.458 22.2541 128.671 23.9427C132.195 26.6231 133.771 30.2483 133.074 34.7476C132.474 38.628 130.308 41.2903 126.699 42.6296C121.535 44.5426 116.39 44.0775 111.333 42.0414C110.546 41.7247 110.256 41.2595 110.301 40.4017C110.376 38.9393 110.321 37.4697 110.321 35.81C112.578 37.6832 115.063 38.6189 117.713 39.1601C119.671 39.5484 121.688 39.541 123.643 39.1384C129.4 38.0144 129.679 31.3849 126.851 28.6954C125.8 27.7046 124.653 26.8201 123.428 26.0548C121.129 24.6069 118.739 23.3201 116.417 21.9175C115.602 21.4005 114.823 20.8285 114.086 20.2053C108.333 15.5268 108.946 5.25221 117.553 2.18268C121.722 0.691344 125.972 0.83432 130.199 1.98721C131.649 2.37995 131.624 2.44511 131.624 3.90205L131.625 8.00321Z" fill="white"/>
<path d="M33.4954 38.3474C36.4038 30.431 39.3183 22.4833 42.2389 14.5042C42.4799 13.8417 42.7627 13.5449 43.5076 13.5902C44.7655 13.6644 46.0324 13.6101 47.3719 13.6101C47.3298 13.8376 47.2741 14.0625 47.2051 14.2834C42.7077 25.618 38.2073 36.952 33.7038 48.2854C32.7831 50.5984 31.5795 52.7539 29.7525 54.495C27.1534 56.9745 24.0831 57.4542 20.6756 56.6252V52.4625C21.1033 52.5548 21.4803 52.6327 21.8573 52.7159C24.5181 53.3005 26.6731 52.5259 27.9509 50.1531C29.1327 47.9596 30.0244 45.6104 30.9923 43.3082C31.1047 43.0386 30.9488 42.6132 30.8256 42.2965C27.2416 33.0927 23.6468 23.8907 20.0412 14.6906C19.9234 14.3883 19.8146 14.0825 19.6406 13.6137C21.3842 13.6137 22.9974 13.5848 24.6051 13.6517C24.8026 13.6608 25.0455 14.1603 25.1488 14.4716C27.1679 20.1763 29.1762 25.8852 31.1736 31.5984C31.9765 33.8752 32.7414 36.1466 33.4954 38.3474Z" fill="white"/>
<path d="M158.387 37.5185C158.387 38.7944 158.424 40.1102 158.356 41.4206C158.342 41.6721 157.963 41.9834 157.68 42.1282C154.746 43.6467 151.607 44.0286 148.361 43.701C141.361 42.9952 136.626 37.3665 136.291 30.3297C136.15 27.3778 136.436 24.4911 137.583 21.7346C139.916 16.1349 144.964 12.9531 151.52 12.9441C153.682 12.9441 155.795 13.2246 157.786 14.1133C158.061 14.2363 158.382 14.6291 158.395 14.9114C158.458 16.2634 158.424 17.6262 158.424 19.1501L157.53 18.6307C154.538 16.8842 151.329 16.3213 148.049 17.4652C143.769 18.9583 141.77 22.3427 141.227 26.6557C140.9 29.2528 141.076 31.8391 142.158 34.2806C144.177 38.8325 149.227 40.9627 154.331 39.3483C155.714 38.9048 156.997 38.1538 158.387 37.5185Z" fill="white"/>
<path d="M161.344 13.6465H165.964V19.4254L166.136 19.4706L166.567 18.4969C167.686 15.9885 169.348 13.9813 172.126 13.3641C173.381 13.0872 174.749 13.2936 176.061 13.3515C176.273 13.3515 176.636 13.7352 176.643 13.9524C176.696 15.3568 176.67 16.7667 176.67 18.1404C175.706 17.9142 174.823 17.6282 173.919 17.5106C171.626 17.2119 169.786 18.0789 168.365 19.8634C166.676 21.99 166.071 24.493 166.04 27.13C165.982 32.042 166.013 36.9558 166.007 41.8696V43.017H161.344V13.6465Z" fill="white"/>
<path d="M184.312 43.0513H179.703V13.6843H184.312V43.0513Z" fill="white"/>
<path d="M179.047 3.09496C179.047 1.33215 180.363 -0.0071495 182.1 8.99727e-05C182.506 -0.003015 182.909 0.0742738 183.286 0.227506C183.663 0.380737 184.005 0.60688 184.294 0.892895C184.582 1.17891 184.811 1.51913 184.968 1.89397C185.124 2.2688 185.204 2.67083 185.204 3.07687C185.189 3.8971 184.85 4.67799 184.26 5.24903C183.67 5.82007 182.878 6.13486 182.056 6.12468C181.658 6.12887 181.263 6.05317 180.894 5.90208C180.525 5.75098 180.191 5.52757 179.91 5.24505C179.63 4.96254 179.409 4.62667 179.261 4.25735C179.112 3.88803 179.04 3.49276 179.047 3.09496Z" fill="white"/>
</g>
<defs>
<clipPath id="clip0_2622_688">
<rect width="232" height="57" fill="white"/>
</clipPath>
</defs>
</svg>
