<svg width="216" height="207" viewBox="0 0 216 207" fill="none" xmlns="http://www.w3.org/2000/svg">
<g clip-path="url(#clip0_5535_2121)">
<rect width="216" height="206.929" fill="#151517"/>
<path d="M62.8229 103.465C66.1139 99.4147 69.5061 91.0607 67.886 87.7697C66.2658 84.4787 60.5954 85.0356 57.4057 85.0356C51.2287 85.0356 59.4814 101.491 62.9243 103.465" fill="white"/>
<path d="M50.7213 85.4395C44.6963 87.1103 37 87.9204 37 92.2746C37 100.274 43.6329 119.21 49.3035 119.21H50.5186C54.5691 119.21 59.3283 111.616 60.6447 108.527C56.9487 110.957 45.4555 88.2748 50.5186 85.4395" fill="white"/>
<path d="M87.224 89.4418V120.732H83.1227V89.4418H75.8828V85.6445H94.4132V89.4418H87.224Z" fill="white"/>
<path d="M107.224 104.429V120.732H102.971V104.429L94.5664 85.6445H99.0726L105.3 100.226L111.477 85.6445H115.73L107.224 104.429Z" fill="white"/>
<path fill-rule="evenodd" clip-rule="evenodd" d="M136.336 96.1728C136.372 97.8748 136.202 99.5748 135.83 101.236C135.589 102.499 135.07 103.692 134.31 104.729C133.567 105.673 132.59 106.407 131.476 106.856C130.118 107.369 128.673 107.61 127.223 107.565H123.273V120.779H119.223V85.6923H121.704H124.235H127.121C128.647 85.647 130.165 85.923 131.577 86.5024C132.726 87.013 133.721 87.816 134.463 88.8314C135.176 89.8699 135.676 91.0404 135.931 92.2743C136.216 93.6907 136.352 95.1331 136.336 96.5779V96.1728ZM132.184 96.9323C132.277 94.9948 131.949 93.0601 131.222 91.2616C130.897 90.6187 130.384 90.0902 129.751 89.7465C129.117 89.4027 128.394 89.2602 127.678 89.3377C126.616 89.2618 125.55 89.2618 124.488 89.3377H123.273V104.021H127.678C128.308 104.019 128.93 103.881 129.501 103.616C130.081 103.356 130.573 102.934 130.919 102.4C131.368 101.708 131.677 100.934 131.83 100.122C132.075 98.9911 132.194 97.8364 132.184 96.6791" fill="white"/>
<path fill-rule="evenodd" clip-rule="evenodd" d="M159.883 102.807C159.933 105.498 159.781 108.189 159.428 110.858C159.227 112.833 158.714 114.764 157.908 116.579C157.251 117.983 156.194 119.163 154.871 119.971C153.378 120.72 151.731 121.109 150.061 121.109C148.391 121.109 146.744 120.72 145.251 119.971C143.93 119.175 142.886 117.99 142.264 116.579C141.441 114.767 140.911 112.836 140.694 110.858C140.391 108.185 140.239 105.497 140.238 102.807C140.237 100.235 140.389 97.6654 140.694 95.1115C140.905 93.2134 141.436 91.3647 142.264 89.6434C142.906 88.2713 143.947 87.1245 145.251 86.3523C146.757 85.6507 148.399 85.2871 150.061 85.2871C151.723 85.2871 153.364 85.6507 154.871 86.3523C156.189 87.1215 157.247 88.2677 157.908 89.6434C158.719 91.3675 159.233 93.2162 159.428 95.1115C159.783 97.6607 159.935 100.234 159.883 102.807ZM155.732 102.807C155.732 100.478 155.731 98.2 155.427 95.9216C155.329 94.4511 155.023 93.002 154.516 91.618C154.182 90.69 153.561 89.8923 152.744 89.3396C151.955 88.9548 151.09 88.7548 150.212 88.7548C149.335 88.7548 148.469 88.9548 147.681 89.3396C146.851 89.8785 146.227 90.681 145.909 91.618C145.403 93.002 145.096 94.4511 144.998 95.9216C144.593 100.469 144.593 105.044 144.998 109.592C145.096 111.095 145.402 112.578 145.909 113.997C146.204 114.986 146.829 115.844 147.681 116.427C148.451 116.871 149.324 117.105 150.212 117.105C151.101 117.105 151.974 116.871 152.744 116.427C153.567 115.815 154.186 114.968 154.516 113.997C154.999 112.571 155.305 111.092 155.427 109.592C155.427 107.313 155.732 105.035 155.732 102.807" fill="white"/>
<path d="M178.97 110.809C179.223 113.605 178.527 116.405 176.995 118.758C176.25 119.585 175.322 120.226 174.285 120.631C173.247 121.035 172.129 121.191 171.021 121.087C170.414 121.137 169.805 121.137 169.198 121.087L167.274 120.783L165.705 120.53H164.895V116.732L166.059 116.986H167.629H169.35C169.906 117.033 170.465 117.033 171.021 116.986C171.582 116.987 172.135 116.849 172.63 116.584C173.125 116.318 173.546 115.935 173.856 115.467C174.678 114.132 175.067 112.576 174.97 111.011C175.012 109.288 174.738 107.572 174.16 105.948C173.865 105.358 173.396 104.872 172.817 104.555C172.238 104.239 171.576 104.106 170.92 104.176H167.072V100.531H170.464C171.244 100.573 172.015 100.34 172.641 99.8725C173.187 99.4333 173.607 98.8566 173.856 98.2017C174.109 97.5533 174.262 96.8705 174.312 96.1764C174.357 95.5697 174.357 94.9604 174.312 94.3537C174.46 92.8817 174.16 91.3993 173.451 90.1007C173.157 89.6796 172.762 89.3386 172.302 89.1087C171.842 88.8788 171.332 88.7674 170.819 88.7844C169.765 88.7827 168.713 88.8844 167.679 89.0881L165.047 89.6451V85.9997H165.806H167.173L168.895 85.7465C169.501 85.6965 170.111 85.6965 170.717 85.7465C171.813 85.7451 172.904 85.8985 173.958 86.2022C174.87 86.5182 175.688 87.0579 176.337 87.7718C177.044 88.6448 177.546 89.6657 177.806 90.759C178.176 92.283 178.346 93.8489 178.312 95.417C178.348 96.9911 178.072 98.557 177.502 100.024C177.287 100.654 176.929 101.225 176.454 101.691C175.979 102.157 175.402 102.506 174.768 102.708C175.485 102.805 176.161 103.097 176.724 103.552C177.287 104.007 177.714 104.609 177.958 105.29C178.659 107.2 178.968 109.232 178.869 111.264" fill="white"/>
</g>
<defs>
<clipPath id="clip0_5535_2121">
<rect width="216" height="206.929" fill="white"/>
</clipPath>
</defs>
</svg>
