<svg width="235" height="77" viewBox="0 0 235 77" fill="none" xmlns="http://www.w3.org/2000/svg">
<path d="M214.921 62.3544V40.9681C214.921 32.3526 212.272 26.9646 204.21 26.9646C199.507 26.9646 196.175 29.8607 193.3 32.5713C190.507 35.4689 187.902 38.5437 185.504 41.7766V47.5821C187.624 45.1698 190.737 41.6176 193.579 38.5425C196.46 35.7657 198.421 34.3076 201.441 34.3076C205.237 34.3076 206.846 36.3886 206.846 42.0152V62.3544H214.921Z" fill="white"/>
<path d="M185.506 62.3543H193.58V41.8428C191.401 44.2154 187.572 48.4701 185.506 50.909V62.3543ZM76.4677 74.5419V2.47005C76.4677 1.86418 76.2281 1.28294 75.8011 0.853288C75.3741 0.423637 74.7946 0.180504 74.189 0.177002L2.29192 0.177002C1.68407 0.177002 1.10111 0.41859 0.671295 0.848619C0.241478 1.27865 9.57315e-06 1.86189 9.57315e-06 2.47005V74.5419C-0.000861919 74.8436 0.057777 75.1425 0.172566 75.4214C0.287355 75.7004 0.456038 75.954 0.668948 76.1676C0.881859 76.3812 1.13481 76.5508 1.41331 76.6664C1.69181 76.7821 1.99038 76.8416 2.29192 76.8416H74.189C74.7952 76.8363 75.3747 76.5917 75.8015 76.161C76.2283 75.7303 76.4677 75.1484 76.4677 74.5419ZM73.414 73.8792H2.98744V3.26532H73.414V73.8792Z" fill="white"/>
<path d="M29.1453 62.5663C39.7438 62.5663 46.3281 56.6946 46.3281 41.6572V15.9963H38.5713V42.2868C38.5713 52.2278 34.6764 55.5017 29.1122 55.5017C23.5481 55.5017 19.9313 52.188 19.9313 42.2868V15.9963H11.8633V41.6572C11.8633 56.6946 18.6132 62.5663 29.1453 62.5663ZM60.9738 22.2194C63.8221 22.2194 65.9086 20.3306 65.9086 17.673C65.9086 15.0155 63.8221 13.0339 60.9738 13.0339C58.1254 13.0339 56.0322 14.9227 56.0322 17.673C56.0322 20.4234 58.1188 22.2194 60.9738 22.2194ZM56.9397 28.2303H64.9416V62.5597H56.9397V28.2303ZM93.3255 16.447L93.0075 14.5516L86.4232 14.6775V24.0352C88.9867 20.821 91.3648 18.0044 93.3255 16.447ZM94.4714 46.1638C101.334 52.7911 116.271 50.445 117.589 33.837C119.047 15.5656 107.163 12.464 100.97 14.1738C98.724 14.7902 96.5249 16.3078 94.4714 18.2165C91.2786 21.1988 88.4568 25.142 86.4232 28.1574V34.1883C88.6417 30.5239 91.3493 27.1794 94.4714 24.2473C95.2199 23.5846 96.0148 22.9219 96.8627 22.2591C102.738 17.7128 110.177 20.8674 109.296 32.6507C108.481 43.831 100.46 45.6667 94.4582 40.1926V26.938L86.4232 37.82V62.341H94.4714V46.1638ZM143.39 58.6032H143.602L144.224 62.3543H150.742V42.1476C150.742 32.6375 146.583 27.4351 138.044 27.4351C132.632 27.4351 127.85 29.516 124.101 31.8753L127.015 37.2236C129.996 35.4143 133.189 33.9099 136.594 33.9099C141.171 33.9099 142.694 36.9651 142.767 40.577C128.817 42.0814 122.716 45.9053 122.716 53.1954C122.716 59.1599 126.876 63.1893 132.844 63.1893C136.865 63.1827 140.336 61.1481 143.39 58.6032ZM130.493 52.5658C130.493 49.1593 133.547 46.7337 142.774 45.5541V53.1954C140.277 55.5547 138.137 56.9464 135.348 56.9464C132.56 56.9464 130.493 55.6209 130.493 52.5658ZM179.398 61.9368L178.014 56.0318C176.893 56.5066 175.693 56.7673 174.476 56.8006C171.211 56.8006 169.687 54.8522 169.687 50.836V34.5859H178.358V28.2701H169.687V18.9919H163.023L162.056 28.2701L156.757 28.6147V34.5793H161.626V50.8294C161.626 58.1857 164.54 63.1827 172.449 63.1827C174.818 63.1475 177.165 62.7267 179.398 61.9368ZM193.58 29.5028V14.6908H185.505V37.9857C187.902 34.8914 190.608 32.0491 193.58 29.5028ZM229.767 62.6923C228.734 62.691 227.724 62.3832 226.865 61.8078C226.007 61.2325 225.338 60.4153 224.943 59.4598C224.549 58.5042 224.446 57.453 224.649 56.4392C224.851 55.4253 225.349 54.4942 226.08 53.7636C226.812 53.033 227.743 52.5356 228.756 52.3344C229.77 52.1332 230.821 52.2371 231.775 52.6331C232.73 53.029 233.546 53.6992 234.12 54.559C234.694 55.4187 235 56.4294 235 57.4633C234.998 58.8507 234.446 60.1807 233.465 61.1612C232.484 62.1416 231.154 62.6923 229.767 62.6923ZM229.767 53.3743C228.958 53.369 228.165 53.6044 227.489 54.0505C226.814 54.4966 226.286 55.1334 225.972 55.8801C225.659 56.6268 225.574 57.4498 225.729 58.2447C225.884 59.0396 226.271 59.7707 226.841 60.3452C227.412 60.9197 228.14 61.3118 228.933 61.4718C229.727 61.6317 230.55 61.5523 231.298 61.2436C232.047 60.9349 232.687 60.4108 233.137 59.7378C233.587 59.0648 233.828 58.2732 233.828 57.4633C233.828 56.3834 233.401 55.3474 232.64 54.5813C231.879 53.8152 230.846 53.3813 229.767 53.3743Z" fill="white"/>
<path d="M231.941 59.9087L230.835 57.9537C231.107 57.8359 231.336 57.6373 231.492 57.3847C231.647 57.1322 231.721 56.838 231.703 56.5421C231.703 55.3823 230.855 55.0244 229.822 55.0244H228.066V59.9087H229.192V58.1525H229.802L230.729 59.9087H231.941ZM229.166 55.9324H229.729C230.312 55.9324 230.623 56.098 230.623 56.5951C230.623 57.0921 230.312 57.3241 229.729 57.3241H229.192L229.166 55.9324Z" fill="white"/>
</svg>
