<?xml version="1.0" encoding="utf-8"?>
<!-- Generator: Adobe Illustrator 24.0.1, SVG Export Plug-In . SVG Version: 6.00 Build 0)  -->
<svg version="1.1" id="Layer_1" xmlns="http://www.w3.org/2000/svg" xmlns:xlink="http://www.w3.org/1999/xlink" x="0px" y="0px"
	 viewBox="0 0 176.6 29.7" style="enable-background:new 0 0 176.6 29.7;" xml:space="preserve">
<style type="text/css">
	.st0{fill:#FFFFFF;}
</style>
<path class="st0" d="M156.4,17.7c0-7,2-12,10.1-12s10.1,4.9,10.1,12s-2,12-10.1,12S156.4,24.8,156.4,17.7z M171.5,17.7
	c0-4.9-0.6-7.7-5-7.7s-5,2.8-5,7.7s0.6,7.7,5,7.7S171.5,22.6,171.5,17.7z"/>
<path class="st0" d="M16,28.8c0.1,0.2,0.3,0.4,0.6,0.3h1.9c0.4,0,0.7-0.3,0.7-0.7l0,0V7c0-0.4-0.3-0.7-0.7-0.7l0,0h-3.8
	C14.3,6.3,14,6.6,14,7v17.1c-1.6,0.9-3.4,1.4-5.3,1.3c-2.4,0-3.6-1-3.6-3.4V7c0-0.4-0.3-0.7-0.7-0.7l0,0H0.6C0.2,6.3,0,6.6,0,7l0,0
	v15.4c0,4.4,2.1,7.3,7.8,7.3c2.6,0,5.2-0.9,7.4-2.4L16,28.8L16,28.8z"/>
<path class="st0" d="M58.6,13c0-4.3-2.1-7.3-7.6-7.3c-2.6,0-5.1,0.8-7.3,2.3c-1-1.4-2.8-2.3-5.8-2.3c-2.5,0.1-4.9,0.9-6.8,2.4
	l-0.7-1.5l0,0c-0.1-0.2-0.4-0.3-0.6-0.3h-1.9c-0.4,0-0.7,0.3-0.7,0.7l0,0v21.4c0,0.4,0.3,0.7,0.7,0.7l0,0h3.7c0.4,0,0.6-0.3,0.6-0.7
	v-17c1.5-0.9,3.1-1.4,4.8-1.3c2,0,3.2,0.8,3.2,2.9v15.4c0,0.4,0.3,0.7,0.7,0.7h3.8c0.4,0,0.7-0.3,0.7-0.7v-17
	c1.4-0.9,3.1-1.4,4.8-1.4c2,0,3.2,0.8,3.2,2.9v15.4c0,0.4,0.3,0.7,0.7,0.7h3.8c0.4,0,0.7-0.3,0.7-0.7l0,0L58.6,13z"/>
<path class="st0" d="M70.2,27.3c2.1,1.6,4.7,2.4,7.4,2.4c6.7,0,9.1-4.5,9.1-12S84.3,5.8,77.6,5.8c-2.2,0-4.3,0.6-6.1,1.8V0.7
	c0-0.4-0.3-0.7-0.7-0.7l0,0H67c-0.4,0-0.6,0.3-0.6,0.7v27.8c0,0.4,0.3,0.7,0.7,0.7H69c0.2,0,0.5-0.1,0.6-0.3l0,0L70.2,27.3z
	 M76.4,25.4c-1.7,0-3.4-0.4-4.9-1.3V11.4c1.5-0.9,3.2-1.3,4.9-1.3c4.5,0,5.1,3.4,5.1,7.6S80.9,25.4,76.4,25.4L76.4,25.4z"/>
<path class="st0" d="M105.7,10.3c-0.6-0.1-1.2-0.1-1.8-0.1c-2-0.1-4.1,0.4-5.9,1.4v16.9c0,0.4-0.3,0.7-0.6,0.7h-3.8
	c-0.4,0-0.7-0.3-0.7-0.7l0,0V7c0-0.4,0.3-0.7,0.7-0.7l0,0h1.9c0.2,0,0.5,0.1,0.6,0.3l0,0l0.7,1.5c2.1-1.6,4.6-2.4,7.2-2.4
	c0.6,0,1.2,0.1,1.8,0.2l0,0c0.3,0,0.6,0.6,0.6,0.9v2.7C106.4,10,106.1,10.3,105.7,10.3L105.7,10.3L105.7,10.3"/>
<path class="st0" d="M118.7,18.6c-2.3,0.3-3.6,1.1-3.6,3.5c0,1.7,0.8,3.4,3.5,3.4c1.7,0,3.5-0.5,4.9-1.5v-5.9L118.7,18.6z
	 M124.8,27.3c-2,1.5-4.4,2.4-6.9,2.4c-5.9,0-7.9-3.6-7.9-7.3c0-4.9,3.2-7,8.4-7.4l5.1-0.4v-1.1c0-2.3-1.1-3.2-4.5-3.2
	c-2.1,0-4.2,0.4-6.2,1c-0.1,0-0.1,0-0.2,0c-0.4,0-0.7-0.3-0.7-0.7v-3c0-0.3,0.2-0.5,0.4-0.6l0,0c2.3-0.8,4.6-1.2,7-1.1
	c7.5,0,9.2,3.3,9.2,8.1v14.6c0,0.4-0.3,0.6-0.7,0.6h-1.9c-0.2,0-0.5-0.1-0.6-0.3l0,0L124.8,27.3z"/>
<path class="st0" d="M150.8,24.4c0.1,0,0.1,0,0.2,0c0.4,0,0.7,0.3,0.7,0.7l0,0l0,0v3c0,0.3-0.2,0.5-0.4,0.6l0,0
	c-1.9,0.7-3.9,1-5.9,1c-8.1,0-10.6-4.8-10.6-12s2.5-12,10.6-12c2-0.1,4,0.3,5.8,0.9l0,0c0.3,0.1,0.4,0.4,0.4,0.6v3
	c0,0.4-0.3,0.7-0.7,0.7l0,0h-0.2c-1.6-0.5-3.3-0.8-5.1-0.8c-4.4,0-5.7,3-5.7,7.4s1.3,7.4,5.7,7.4C147.4,25.2,149.1,25,150.8,24.4"/>
</svg>
