<svg width="231" height="127" viewBox="0 0 231 127" fill="none" xmlns="http://www.w3.org/2000/svg">
<g clip-path="url(#clip0_317_1823)">
<path d="M213.027 69.9979C212.816 70.0615 212.761 70.2467 212.688 70.4262C211.786 72.6717 209.864 73.5861 207.682 73.971C206.808 74.1244 205.929 74.4051 204.994 74.3211C202.465 74.0925 199.999 73.6932 197.777 72.2463V68.0562C198.451 68.0359 198.897 68.4353 199.377 68.6812C200.613 69.3121 201.86 69.9053 203.237 70.1513C204.325 70.3451 205.416 70.4262 206.496 70.0789C207.691 69.694 207.769 69.5841 207.795 68.2124C207.326 67.4774 206.632 67.0781 205.769 66.7858C203.787 66.1145 201.773 65.4923 200.028 64.2654C198.301 63.05 197.308 61.4353 197.444 59.3142C197.537 57.8528 198.167 56.6172 199.447 55.7259C200.728 54.8347 202.117 54.4353 203.642 54.1141C205.173 53.7929 206.597 54.1141 208.027 54.2704C209.41 54.4238 210.816 54.8202 212.107 55.5581V59.5602C211.024 59.1463 209.994 58.7933 209.002 58.3621C208.113 57.9744 207.158 57.8702 206.238 57.6995C204.991 57.468 203.773 57.7458 202.777 58.5155C202.557 58.9467 202.63 59.3287 202.667 59.7743C203.339 60.6685 204.409 60.9839 205.425 61.3861C206.354 61.7536 207.3 62.0951 208.244 62.4105C210.44 63.1484 212.052 64.465 213.027 66.5543V70.0037V69.9979Z" fill="#EEEEEE"/>
<path d="M178.603 62.1562V73.3781H173.646C173.385 72.3914 173.304 56.0707 173.559 53.9756C175.009 53.8049 176.482 53.9553 177.862 53.8917C180.09 56.5423 182.229 59.0859 184.466 61.7453C186.818 59.1785 188.867 56.4411 191.113 53.9524H195.505C195.748 55.0839 195.783 71.8097 195.546 73.3752H190.592C190.363 72.1223 190.522 70.8403 190.493 69.5671C190.464 68.2736 190.488 66.9801 190.488 65.6895V61.5775C188.436 63.9908 186.546 66.2132 184.555 68.5543C182.486 66.4968 180.805 64.1384 178.6 62.1562H178.603Z" fill="#EEEEEE"/>
<path d="M42.9815 61.0552C36.1956 58.9081 29.4502 56.7551 22.6875 54.4546C22.9335 54.2897 22.6933 54.472 22.757 54.2897C22.7714 54.2492 22.8148 54.2057 22.8553 54.1913C23.3907 53.9945 23.9202 53.7717 24.4672 53.6096C35.8223 50.2732 47.1803 46.9453 58.5384 43.6175C58.5615 43.6118 58.6078 43.6783 58.6454 43.713C58.7757 43.9879 58.5702 44.1471 58.4139 44.312C57.6876 45.0702 56.9931 45.8573 56.3044 46.6502C54.8633 48.3112 53.2891 49.8536 51.8075 51.4798C49.7182 53.7775 47.6549 56.0954 45.5193 58.3496C44.6685 59.2467 43.8786 60.2016 42.9815 61.0523V61.0552Z" fill="#EEEEEE"/>
<path d="M49.8012 83.9753C48.9562 82.213 48.4585 80.5115 48.1083 78.7694C48.5974 78.4772 49.1067 78.7115 49.642 78.5119C49.9054 77.829 49.7375 77.065 49.7636 76.3184C49.7925 75.5545 49.7693 74.7876 49.7693 74.1568C49.6652 73.7256 49.2456 73.714 49.1298 73.3842V66.6938C48.3456 66.335 47.518 66.7893 46.7685 66.3061C46.3402 65.1515 46.8032 63.884 46.4878 62.5818H44.0686C43.6751 62.2548 43.5275 61.9654 43.4609 61.6356C43.5043 61.543 43.5217 61.4359 43.5854 61.378C45.6689 59.4624 47.4601 57.2718 49.4047 55.2259C51.6387 52.8733 53.7598 50.4136 56.0228 48.0784C56.5465 47.5372 56.9517 46.8775 57.5102 46.3479C58.0571 45.827 58.5838 45.2888 59.3564 44.875C56.1732 57.9055 52.9872 70.9389 49.8041 83.9695L49.8012 83.9753Z" fill="#EEEEEE"/>
<path d="M157.69 54.2246C157.976 53.9323 158.211 53.9062 158.454 53.9062C159.84 53.9062 161.223 53.9062 162.762 53.9062V69.5498C163.746 69.8363 164.704 69.6685 165.645 69.6974C166.655 69.7292 167.667 69.7032 168.677 69.7032C169.632 69.7032 170.584 69.7032 171.635 69.7032C171.768 70.9793 171.71 72.1455 171.678 73.3811H157.779C157.727 73.332 157.687 73.303 157.658 73.2683C157.629 73.2336 157.594 73.1902 157.591 73.1496C157.574 72.7677 157.551 72.3857 157.551 72.0037C157.557 66.1641 157.565 60.3217 157.577 54.4821C157.577 54.3953 157.649 54.3085 157.687 54.2246H157.69Z" fill="#EEEEEE"/>
<path d="M122.932 53.9057C125.872 53.9057 128.668 53.7812 131.443 53.9404C134.215 54.0995 136.811 54.9301 138.709 57.1409C139.965 58.6051 140.816 60.2343 141.143 62.202C141.6 64.9569 140.966 67.3558 139.409 69.5898C138.162 71.381 136.481 72.6108 134.363 73.1288C132.748 73.5253 131.093 73.7654 129.411 73.7365C127.727 73.7076 126.043 73.7365 124.359 73.7249C123.939 73.722 123.485 73.8493 123.149 73.5426C123.089 73.4761 123.051 73.4442 123.022 73.4066C122.993 73.369 122.958 73.3227 122.955 73.2793C122.788 67.1561 122.924 61.033 122.883 54.9098C122.883 54.6291 122.912 54.3484 122.935 53.897L122.932 53.9057ZM124.917 55.6477C124.935 61.1632 124.886 66.5398 124.952 71.9887C127.313 71.9887 129.524 72.0813 131.726 71.9539C132.988 71.8816 134.247 71.5835 135.399 70.9122C138.428 69.1412 140.069 64.8672 138.958 61.4641C137.743 57.7486 135.355 55.94 131.784 55.6795C129.582 55.5204 127.36 55.6506 124.917 55.6506V55.6477Z" fill="#EEEEEE"/>
<path d="M69.8125 53.9847C70.3537 53.843 70.8167 53.8372 71.2652 53.9674C71.5864 54.3146 71.462 54.7169 71.462 55.0815C71.4736 58.4787 71.4533 61.876 71.4764 65.2703C71.4851 66.5118 71.7195 67.7098 72.307 68.8325C73.3805 70.8784 75.0734 71.9202 77.3768 71.9925C78.0019 72.0128 78.6298 72.0272 79.252 71.9838C81.5381 71.8247 83.1817 70.7424 84.1714 68.6445C84.6141 67.7069 84.7501 66.7606 84.7444 65.742C84.7183 62.3448 84.7357 58.9475 84.7357 55.5532C84.7357 55.0757 84.7357 54.6011 84.7357 54.115C85.3549 53.7185 85.9655 53.9153 86.5038 53.9211C86.8394 54.1815 86.7729 54.4854 86.7729 54.7632C86.7729 58.5916 86.8221 62.42 86.7526 66.2455C86.689 69.8164 84.2148 72.6639 81.3268 73.5551C79.0552 74.2583 76.772 74.2265 74.5988 73.3757C72.252 72.4555 70.6807 70.6816 70.0209 68.2191C69.7894 67.3538 69.6649 66.4655 69.6765 65.5453C69.717 62.1972 69.6881 58.8491 69.6968 55.4982C69.6968 55.0265 69.6158 54.5461 69.8154 53.9847H69.8125Z" fill="#EEEEEE"/>
<path d="M144.018 53.9609H155.089C155.318 54.4239 155.306 54.8233 155.089 55.3355H145.945C145.682 56.4756 145.641 61.0824 145.873 62.7811H154.702C155.136 63.3627 154.91 63.872 154.945 64.5028C151.886 64.5983 148.914 64.4942 145.957 64.5636C145.676 65.5504 145.604 69.5177 145.826 71.9166C147.375 72.1192 148.949 71.9774 150.517 72.0034C152.051 72.0295 153.588 72.0092 155.049 72.0092C155.703 72.5475 155.636 73.0452 155.225 73.6529H144.165C144.139 73.6239 144.105 73.5921 144.076 73.5545C144.05 73.5169 144.009 73.4763 144.009 73.4358C143.992 67.2143 143.974 60.9927 143.963 54.7712C143.963 54.5397 143.995 54.3082 144.024 53.9638L144.018 53.9609Z" fill="#EEEEEE"/>
<path d="M91.9485 64.5564V73.6283C91.3842 73.799 90.9154 73.7585 90.4553 73.6948C90.4119 73.6485 90.3743 73.6167 90.3453 73.5791C90.3164 73.5443 90.2672 73.5067 90.2643 73.4691C90.2412 73.0408 90.2122 72.6097 90.2122 72.1814C90.2093 66.1537 90.2122 60.129 90.2122 54.2026C90.5624 53.7974 90.9212 53.9016 91.2453 53.9016C92.7385 53.8929 94.2317 53.8582 95.7219 53.9132C97.0589 53.9624 98.364 54.2373 99.5967 54.7987C100.974 55.4237 101.793 56.5725 102.033 57.9615C102.757 62.1546 100.031 64.4869 96.6161 64.5535C95.1316 64.5824 93.6471 64.5593 91.9514 64.5593L91.9485 64.5564ZM92.044 63.0024C93.8989 63.2108 95.6178 63.1037 97.3019 62.7652C98.4537 62.5337 99.4433 61.926 99.9179 60.7482C100.158 60.1521 100.045 59.5184 100.045 58.9049C100.039 57.2092 98.9022 55.7999 97.2383 55.6784C95.5339 55.5568 93.8121 55.6523 92.044 55.6523V63.0024V63.0024Z" fill="#EEEEEE"/>
<path d="M103.289 72.1679V70.4693C103.622 70.1771 103.874 70.2812 104.12 70.4635C105.283 71.3317 106.562 71.8728 108.015 72.1043C110.223 72.4573 112.743 71.2882 112.807 69.0659C112.812 68.8459 112.969 68.6289 113.001 68.5508C112.795 66.7538 111.8 65.7843 110.312 65.1651C108.903 64.5777 107.502 63.9497 106.148 63.2465C104.985 62.6417 103.934 61.8083 103.648 60.4599C102.982 57.3433 104.033 54.7968 107.789 53.8679C110.084 53.3007 112.098 53.9432 114.051 54.9675C114.297 55.5868 114.254 56.1337 114.097 56.7848C112.969 56.3768 111.976 55.8212 110.874 55.5405C109.563 55.2048 108.318 55.2656 107.12 55.8762C105.957 56.4694 105.352 57.4764 105.286 58.7439C105.216 60.0518 105.862 61.056 107.016 61.6347C108.292 62.2742 109.635 62.7893 110.937 63.3796C112.636 64.1494 114.155 65.1275 114.63 67.0865C115.235 69.5752 114.5 71.731 112.167 73.0448C110.005 74.2601 107.8 74.1791 105.575 73.3023C104.782 72.9898 104.039 72.5441 103.289 72.1651V72.1679Z" fill="#EEEEEE"/>
<path d="M117.152 53.9684C117.875 53.8671 118.434 53.8643 119.067 53.9626V73.562C118.497 73.834 117.919 73.8166 117.409 73.5909C117.302 73.478 117.265 73.4462 117.239 73.4057C117.21 73.3681 117.172 73.3218 117.172 73.2784C117.146 67.1552 117.12 61.0321 117.1 54.9089C117.1 54.6282 117.129 54.3504 117.149 53.9655L117.152 53.9684Z" fill="#EEEEEE"/>
<path d="M18.8594 55.4656C20.2542 54.9071 21.4348 54.6437 22.8441 55.1299C27.5609 56.7648 32.3154 58.2956 37.0814 59.783C38.8032 60.3213 40.5279 60.8392 42.2063 61.5366C42.1716 62.0025 41.969 62.3613 41.6478 62.6912C41.1992 62.8909 40.7478 62.8475 40.2703 62.6912C33.3629 60.3994 26.4497 58.1162 19.5394 55.8273C19.3629 55.7694 19.2037 55.6508 18.8623 55.4684L18.8594 55.4656Z" fill="#EEEEEE"/>
<path d="M22.7754 52.0252C32.0383 49.3311 41.0756 46.7007 50.1128 44.0703C49.7916 44.9211 49.1723 45.4101 48.6659 45.9599C46.2699 46.6747 43.9115 47.3952 41.5444 48.0839C37.7593 49.1807 33.9685 50.2513 30.1834 51.3452C28.8147 51.7416 27.4575 52.1757 26.0974 52.6069C24.9747 52.9628 23.9705 52.7255 22.7754 52.0252V52.0252Z" fill="#EEEEEE"/>
<path d="M42.3617 73.3777C42.2083 72.854 42.2749 72.391 42.298 71.9077C42.5643 71.7775 42.8102 71.6589 43.1517 71.4939V67.7812H47.6891V72.4344C46.5606 72.799 45.3539 72.4344 44.1848 72.6398C44.0603 72.8945 43.9388 73.1405 43.8288 73.3691C43.3224 73.4848 42.8652 73.4501 42.3646 73.3777H42.3617Z" fill="#EEEEEE"/>
<path d="M39.7305 77.3921V74.4347C40.8012 74.1829 41.8747 74.3074 43.0294 74.3479C43.2146 75.3694 43.1162 76.3417 43.0988 77.3921H39.7305Z" fill="#EEEEEE"/>
<path d="M38.3185 72.4064C38.2925 71.2663 38.0292 70.2419 37.9395 69.287C38.6513 68.9513 38.7584 69.4895 39.1462 69.7239H40.9721C41.2094 70.6441 41.1023 71.5238 41.0647 72.5048C40.1705 72.5887 39.34 72.6553 38.3156 72.4064H38.3185Z" fill="#EEEEEE"/>
<path d="M45.1266 64.2041V66.3542C44.4408 66.7477 43.7289 66.4265 43.0055 66.5741C42.7074 65.7002 42.9013 64.916 42.8434 64.1607C43.6961 63.9851 44.4562 63.9996 45.1237 64.2041H45.1266Z" fill="#EEEEEE"/>
<path d="M35.9805 75.4873H37.5316C37.3377 76.393 38.6573 76.8676 38.0988 77.8775C37.8557 78.1322 37.5605 77.9788 37.3493 78.0164C36.9847 77.8486 37.1236 77.455 36.8487 77.2582C36.6085 77.209 36.3365 77.1541 36.0095 77.0875C35.8359 76.5898 35.8822 76.0978 35.9777 75.4844L35.9805 75.4873Z" fill="#EEEEEE"/>
<path d="M46.3848 75.2288C47.0127 75.1159 47.5712 75.1362 48.1818 75.2027C48.4654 75.8017 48.3323 76.4007 48.2975 77.0489C47.658 77.2573 47.0619 77.1878 46.3848 77.1155V75.2259V75.2288Z" fill="#EEEEEE"/>
<path d="M38.7077 78.9375H40.0301C40.3832 79.4265 40.2269 79.9358 40.1864 80.477C39.6858 80.7345 39.1851 80.6332 38.6093 80.5783C38.4906 79.9995 38.3778 79.4728 38.7077 78.9375Z" fill="#EEEEEE"/>
<path d="M45.266 78.0785C45.5033 78.5357 45.4483 78.9003 45.3499 79.3228C44.884 79.5745 44.3834 79.4733 43.9059 79.4241C43.5731 78.9871 43.7612 78.5849 43.7496 78.1566C44.2763 77.9598 44.7422 78.0235 45.266 78.0814V78.0785Z" fill="#EEEEEE"/>
<path d="M42.117 67.947H41.055C40.6991 67.565 40.8264 67.1483 40.8872 66.7316C41.272 66.4336 41.6772 66.5291 42.0997 66.6304C42.3514 67.0268 42.2907 67.4233 42.117 67.947Z" fill="#EEEEEE"/>
<path d="M34.4296 77.3704V78.0823C34.1489 78.4209 33.8219 78.3022 33.5354 78.2907C33.2287 77.9781 33.2721 77.6685 33.3994 77.3473C33.7582 77.0695 34.0881 77.1563 34.4296 77.3676V77.3704Z" fill="#EEEEEE"/>
<path d="M34.2323 82.0202H33.5523C33.2311 81.7337 33.2861 81.4183 33.3873 81.0942C33.6709 80.8222 33.9777 80.854 34.322 81.0074C34.5333 81.3518 34.5477 81.6874 34.2323 82.0202V82.0202Z" fill="#EEEEEE"/>
<path d="M44.4283 74.6541C44.7697 74.5934 45.0533 74.5152 45.2877 74.7091C45.6407 75.1692 45.3022 75.5425 44.4572 75.6554C44.2054 75.3689 44.2286 75.0622 44.4283 74.6541Z" fill="#EEEEEE"/>
<path d="M35.4313 72.7324C35.7177 72.5038 36.0216 72.5269 36.3081 72.6774C36.5077 72.8453 36.4499 73.0333 36.4267 73.2185C36.1692 73.5253 35.848 73.4529 35.5325 73.3719C35.3097 73.1867 35.301 72.9784 35.4284 72.7324H35.4313Z" fill="#EEEEEE"/>
</g>
<defs>
<clipPath id="clip0_317_1823">
<rect width="231" height="127" fill="white"/>
</clipPath>
</defs>
</svg>
