<svg width="231" height="127" viewBox="0 0 231 127" fill="none" xmlns="http://www.w3.org/2000/svg">
<g clip-path="url(#clip0_495_428)">
<path d="M180.865 39.1359C180.343 39.9531 179.909 40.8209 179.442 41.67C175.595 48.6582 171.754 55.6497 167.911 62.6399C167.865 62.725 167.812 62.8062 167.763 62.8894C166.391 63.6929 165.025 64.5075 163.601 65.2181C163.338 65.0713 163.071 64.9291 162.811 64.7764C160.808 63.5994 158.765 62.5042 156.625 61.5902C156.281 61.4427 155.911 61.3414 155.601 61.1166C156.572 59.3342 157.541 57.5504 158.516 55.7699C161.497 50.3224 164.483 44.8776 167.455 39.425C167.607 39.1444 167.773 39.0658 168.08 39.0664C172.342 39.0762 176.604 39.0723 180.865 39.0716V39.1366V39.1359Z" fill="#EEEEEE"/>
<path d="M162.566 72.3552C159.659 77.6461 156.753 82.937 153.846 88.2279C153.83 88.2558 153.81 88.2818 153.792 88.3084H153.727C153.723 88.1707 153.631 88.0701 153.57 87.9596C150.788 82.9162 148.004 77.8748 145.221 72.832C145.169 72.7379 145.123 72.6404 145.075 72.5443C145.399 72.5495 145.723 72.5488 146.047 72.5612C147.749 72.6268 149.434 72.454 151.11 72.1851C153.411 71.8154 155.647 71.1938 157.831 70.3863C157.996 70.3259 158.155 70.2603 158.329 70.3487C159.648 70.9099 160.958 71.4887 162.25 72.1078C162.371 72.1656 162.528 72.187 162.567 72.3552H162.566Z" fill="#EEEEEE"/>
<path d="M82.5769 60.5362C82.5769 56.8926 82.5074 53.2478 82.5951 49.6069C82.7166 44.5329 86.681 40.119 91.6848 39.3233C92.3714 39.2141 93.0599 39.1706 93.7524 39.1706C106.206 39.1706 118.661 39.1765 131.115 39.1622C132.592 39.1602 134.055 39.2063 135.487 39.6039C138.518 40.4445 140.892 42.2165 142.709 44.7512C143.686 46.1153 144.408 47.6354 145.241 49.0866C147.182 52.469 149.1 55.8656 151.026 59.2565C151.085 59.3591 151.138 59.4657 151.193 59.5702C151.081 59.6534 150.965 59.606 150.851 59.5787C150.326 59.4533 149.803 59.3156 149.276 59.2032C147.287 58.781 145.279 58.5049 143.244 58.4666C141.257 58.4289 139.272 58.464 137.292 58.6641C136.45 57.2304 135.62 55.7903 134.761 54.3664C134.028 53.1484 133.081 52.1169 131.91 51.3029C130.878 50.5858 129.743 50.2311 128.473 50.2324C118.326 50.2435 108.18 50.2389 98.0332 50.2376C97.5557 50.2376 97.0796 50.2565 96.6177 50.3825C95.1893 50.7722 94.5202 51.8077 94.2565 53.1815C94.1954 53.5011 94.1824 53.824 94.1831 54.1494C94.185 55.7383 94.1818 57.3272 94.1805 58.9161C93.8927 59.0285 93.5842 59.009 93.286 59.0369C90.8234 59.2701 88.3751 59.6092 85.9327 59.9925C84.8134 60.1679 83.6955 60.3543 82.5769 60.5355V60.5362Z" fill="#EEEEEE"/>
<path d="M51.0256 57.2337C51.0243 52.8685 50.9568 48.5026 51.0464 44.1393C51.1036 41.3532 53.6058 39.0706 56.3984 39.0063C57.4429 38.9822 58.479 39.0063 59.4469 39.4623C61.3437 40.3555 62.4564 41.8274 62.7059 43.925C62.7013 43.9893 62.6929 44.0542 62.6929 44.1185C62.6948 50.897 62.6974 57.6754 62.7 64.4538C62.7 64.5617 62.6948 64.6702 62.7 64.778C62.713 65.0378 62.6097 65.0833 62.3902 64.9625C61.8685 64.676 61.3411 64.4012 60.8214 64.1135C58.8811 63.0384 56.9752 61.9081 55.1791 60.6011C53.7357 59.5501 52.3761 58.3977 51.025 57.2337H51.0256Z" fill="#EEEEEE"/>
<path d="M121.531 82.744C121.483 85.1559 119.573 87.4086 117.079 87.9972C113.561 88.8267 110.148 86.2751 109.954 82.6712C109.959 82.553 109.97 82.4347 109.97 82.3165C109.972 78.8445 109.973 75.3718 109.974 71.8997C110.096 71.8562 110.215 71.8049 110.34 71.7711C113.965 70.7896 117.53 69.6171 121.074 68.3764C121.516 68.2218 121.514 68.2146 121.514 68.6694C121.514 73.2314 121.514 77.7941 121.514 82.3561C121.514 82.4854 121.525 82.6147 121.53 82.744H121.531Z" fill="#EEEEEE"/>
<path d="M92.511 74.8825C91.7886 76.6916 90.8064 78.3533 89.5956 79.8739C86.169 84.1774 81.7629 86.9518 76.3272 87.8119C68.0878 89.1156 61.2282 86.4815 55.8041 80.1396C55.7346 80.0584 55.6794 79.9642 55.6177 79.8765C55.9197 79.7596 56.1367 79.5186 56.3959 79.34C56.518 79.2555 56.6297 79.1509 56.796 79.2159C58.3459 79.859 59.9342 80.3949 61.5458 80.8594C64.417 81.6876 67.3362 82.2235 70.3347 82.2014C72.2945 82.1871 74.2433 82 76.179 81.6889C79.312 81.1848 82.2975 80.2403 85.0953 78.7242C87.0531 77.6634 88.8375 76.3512 90.6018 75.0059C91.2313 74.8552 91.8718 74.8832 92.511 74.8825Z" fill="#EEEEEE"/>
<path d="M90.6022 75.0053C88.8379 76.35 87.0535 77.6628 85.0956 78.7236C82.2979 80.2397 79.3124 81.1849 76.1794 81.6883C74.2436 81.9994 72.2949 82.1865 70.3351 82.2008C67.3366 82.2229 64.4173 81.6876 61.5462 80.8588C59.9345 80.3937 58.347 79.8584 56.7964 79.2153C56.823 79.088 56.9172 79.0185 57.0159 78.947C57.2998 78.7424 57.5843 78.5378 57.8624 78.3241C58.8608 77.5582 59.9144 76.8677 60.9356 76.1337C61.4059 75.7952 61.9164 75.462 62.4491 75.1827C63.2215 74.778 63.925 74.2466 64.683 73.8095C64.8961 73.6867 65.1481 73.5892 65.2404 73.3203C66.5928 74.915 68.2954 75.9297 70.3357 76.3734C73.5206 77.0658 76.4289 76.4474 79.0532 74.511C79.0961 74.4792 79.1422 74.4512 79.187 74.4214C79.5988 74.5909 80.0373 74.5266 80.4641 74.5675C82.1718 74.7312 83.8855 74.802 85.5984 74.8644C87.1185 74.9196 88.6404 74.9761 90.1631 74.9436C90.3112 74.9404 90.4671 74.9111 90.6041 75.0047L90.6022 75.0053Z" fill="#8B8B8B"/>
<path d="M51.0254 57.2335C52.3765 58.3976 53.7361 59.55 55.1795 60.601C56.9756 61.9086 58.8808 63.0389 60.8218 64.1133C61.3421 64.4017 61.8696 64.6765 62.3905 64.9623C62.6101 65.0825 62.7134 65.0377 62.7004 64.7778C62.6952 64.67 62.7004 64.5615 62.7004 64.4537C62.6978 57.6753 62.6952 50.8968 62.6933 44.1184C62.6933 44.0541 62.7017 43.9891 62.7062 43.9248C62.7939 44.1768 62.7634 44.4386 62.7634 44.6965C62.7647 51.8537 62.7478 59.0108 62.7738 66.168C62.7822 68.3993 63.3942 70.4884 64.5803 72.3949C64.6089 72.4404 64.6303 72.4897 64.6557 72.5378C64.5478 72.6236 64.4309 72.5852 64.314 72.5638C63.6007 72.4365 62.8862 72.3182 62.1742 72.1838C59.7402 71.7239 57.3166 71.2159 54.9106 70.6267C53.6718 70.3234 52.4285 70.033 51.2183 69.6238C51.0877 68.7488 51.0104 67.8699 51.0117 66.9838C51.0163 63.8522 51.013 60.7212 51.0137 57.5895C51.0137 57.4706 51.0215 57.3524 51.0254 57.2335Z" fill="#404040"/>
<path d="M51.2187 69.624C52.4289 70.0333 53.6722 70.3236 54.911 70.627C57.3171 71.2162 59.7407 71.7241 62.1747 72.184C62.8866 72.3185 63.6012 72.4367 64.3144 72.5641C64.4313 72.5848 64.5483 72.6232 64.6561 72.5381C64.8503 72.7992 65.0452 73.0603 65.2394 73.3215C65.1472 73.5898 64.8958 73.6872 64.6821 73.8106C63.924 74.2478 63.2199 74.7791 62.4482 75.1838C61.9155 75.4632 61.4049 75.7964 60.9346 76.1348C59.9141 76.8689 58.8598 77.5594 57.8614 78.3252C57.5834 78.5383 57.2995 78.7429 57.015 78.9482C56.9163 79.019 56.8227 79.0892 56.7954 79.2165C56.6285 79.1515 56.5174 79.2561 56.3953 79.3405C56.1361 79.5192 55.9192 79.7608 55.6171 79.8771C55.1052 79.3594 54.7278 78.7416 54.3426 78.1343C52.7544 75.6275 51.7144 72.9116 51.2655 69.9742C51.248 69.8579 51.1915 69.7468 51.2187 69.6247V69.624Z" fill="#757575"/>
<path d="M109.956 58.4616C110.107 55.582 112.484 53.1825 115.344 53.0233C118.349 52.8557 120.969 54.8928 121.464 57.7841C121.495 57.9647 121.51 58.1479 121.532 58.3298C121.528 59.1281 121.516 59.9258 121.528 60.7242C121.532 61.0217 121.439 61.0671 121.168 60.9859C117.514 59.8855 113.768 59.2905 109.972 58.9755C109.967 58.804 109.961 58.6331 109.956 58.4616Z" fill="#EEEEEE"/>
<path d="M94.1758 62.1738C94.1765 63.4451 94.1778 64.7157 94.1784 65.9869C93.0832 66.4728 91.9861 66.9554 90.8928 67.4459C88.3607 68.5814 85.8241 69.7051 83.2192 70.6665C82.7704 70.7575 82.3332 70.7399 81.9155 70.5308C82.5417 68.8548 82.6203 67.1094 82.5749 65.3484C82.9373 65.2093 83.2991 65.0697 83.6616 64.9313C85.2044 64.3421 86.7426 63.7393 88.3289 63.2723C90.2413 62.7097 92.1939 62.3681 94.1758 62.1745V62.1738Z" fill="#EEEEEE"/>
<path d="M158.328 70.3499C158.155 70.2609 157.994 70.3266 157.831 70.3876C155.646 71.1951 153.411 71.8167 151.109 72.1863C149.433 72.4553 147.748 72.628 146.047 72.5624C145.722 72.5501 145.398 72.5507 145.074 72.5455C144.667 71.9362 144.343 71.2789 143.986 70.6403C143.74 70.1992 143.462 69.7744 143.27 69.3048C144.304 69.4808 145.35 69.5484 146.395 69.5367C148.783 69.51 151.15 69.2573 153.489 68.7663C153.617 68.7396 153.781 68.7585 153.847 68.5928C154.419 68.5051 154.983 68.383 155.539 68.2199C155.71 68.1699 155.907 68.1998 156.068 68.1336C156.544 67.938 157.027 67.7808 157.54 67.7172C157.781 67.6873 157.951 67.5723 157.945 67.2962C158.129 67.3287 158.286 67.4521 158.502 67.3729C159.653 66.9507 160.803 66.5271 161.909 65.9932C162.583 66.2543 163.209 66.6142 163.852 66.937C164.081 67.0513 164.321 67.154 164.5 67.3495C163.538 67.8516 162.577 68.357 161.592 68.8163C161.516 68.852 161.303 68.8474 161.448 69.043C160.973 68.9975 160.643 69.3645 160.22 69.4853C159.825 69.5984 159.466 69.8413 159.07 69.9797C158.808 70.0713 158.535 70.1466 158.328 70.3493L158.328 70.3499Z" fill="#757575"/>
<path d="M137.292 58.6659C139.272 58.4658 141.258 58.4307 143.244 58.4684C145.279 58.5067 147.287 58.7828 149.276 59.205C149.804 59.3174 150.326 59.4545 150.851 59.5805C150.966 59.6078 151.081 59.6559 151.193 59.5721C151.724 60.4906 152.257 61.4084 152.784 62.3289C152.96 62.6349 153.12 62.9499 153.287 63.2604C153.19 63.2513 153.092 63.2474 152.998 63.2312C151.836 63.0344 150.666 62.9057 149.492 62.8258C147.853 62.7141 146.209 62.7466 144.567 62.7563C144.476 62.7563 144.334 62.6933 144.315 62.8713C144.025 62.8629 143.752 62.7472 143.454 62.77C142.211 62.8629 140.961 62.859 139.721 62.9986C138.93 61.6046 138.139 60.2106 137.35 58.8153C137.324 58.7698 137.312 58.7166 137.293 58.6665L137.292 58.6659Z" fill="#404040"/>
<path d="M81.9153 70.5293C82.333 70.7385 82.7701 70.756 83.219 70.6651C83.2274 70.8463 83.371 70.7839 83.4626 70.7898C84.5597 70.8658 85.6517 70.9944 86.7482 71.0814C88.0604 71.1854 89.3699 71.2991 90.6866 71.3075C91.6799 71.3133 92.6705 71.212 93.6637 71.2497C93.5046 72.2273 93.185 73.1595 92.8498 74.0864C92.7517 74.3567 92.6737 74.6373 92.5113 74.8809C91.8721 74.8809 91.2316 74.8536 90.6022 75.0043C90.4658 74.9108 90.3092 74.94 90.1611 74.9432C88.6385 74.9764 87.1172 74.9199 85.5965 74.864C83.8835 74.8016 82.1699 74.7308 80.4621 74.5671C80.0354 74.5262 79.5969 74.5912 79.1851 74.421C80.4407 73.3654 81.2923 72.0279 81.9146 70.5293H81.9153Z" fill="#404040"/>
<path d="M139.72 62.999C140.961 62.8594 142.21 62.8633 143.453 62.7704C143.752 62.7483 144.025 62.8639 144.315 62.8717C146.653 63.3693 148.962 63.9741 151.237 64.7068C153.522 65.4428 155.768 66.2833 157.945 67.2973C157.952 67.5734 157.781 67.6884 157.54 67.7183C157.028 67.7819 156.545 67.9385 156.068 68.1347C155.907 68.2009 155.71 68.171 155.539 68.2211C154.983 68.3835 154.419 68.5062 153.847 68.5939C153.784 68.5816 153.718 68.577 153.658 68.5556C149.611 67.0895 145.472 65.9508 141.251 65.1043C141.15 65.0842 141.019 64.9965 140.936 65.1511C140.5 64.4515 140.112 63.724 139.72 62.999Z" fill="#8B8B8B"/>
<path d="M94.1757 62.1747C92.1944 62.3683 90.2411 62.7099 88.3287 63.2725C86.7418 63.7395 85.2042 64.3423 83.6615 64.9315C83.299 65.0699 82.9365 65.2095 82.5747 65.3486C82.5754 63.7454 82.576 62.1422 82.5767 60.5384C83.6952 60.3571 84.8132 60.1707 85.9324 59.9953C88.3749 59.6121 90.8232 59.273 93.2857 59.0398C93.5839 59.0118 93.8918 59.0313 94.1802 58.9189C94.1789 60.0038 94.177 61.0892 94.1757 62.174V62.1747Z" fill="#757575"/>
<path d="M121.531 82.7443C121.526 82.615 121.515 82.4858 121.515 82.3565C121.515 77.7945 121.515 73.2318 121.515 68.6697C121.515 68.215 121.517 68.2215 121.075 68.3767C117.531 69.6175 113.967 70.7906 110.341 71.7715C110.216 71.8053 110.097 71.8566 109.975 71.9001C109.975 70.9452 109.977 69.991 109.977 69.0361C110.103 69.0055 110.231 68.9822 110.353 68.9425C112.238 68.33 114.08 67.6057 115.872 66.7632C117.693 65.907 119.475 64.9749 121.192 63.9219C121.317 63.8673 121.433 63.7855 121.578 63.7913C121.578 65.4114 121.576 67.0321 121.576 68.6522C121.576 73.1571 121.576 77.6619 121.575 82.1668C121.575 82.3598 121.599 82.5559 121.532 82.745L121.531 82.7443Z" fill="#404040"/>
<path d="M121.577 63.7912C121.431 63.7853 121.316 63.8665 121.192 63.9217C120.945 63.7834 120.677 63.8912 120.421 63.8568C120.385 63.7574 120.312 63.6976 120.211 63.6723C119.748 63.5528 119.317 63.3384 118.828 63.2832C118.205 63.213 117.622 62.9408 116.99 62.8668C116.758 62.8395 116.513 62.8044 116.27 62.6583C116.071 62.5394 115.686 62.5323 115.44 62.542C115.056 62.5576 114.743 62.3803 114.386 62.3569C114.172 62.3426 113.946 62.4166 113.705 62.3224C113.765 62.3062 113.799 62.3043 113.823 62.2887C113.909 62.2341 113.825 62.2334 113.799 62.2282C113.694 62.2081 113.587 62.1626 113.481 62.214C113.158 62.3712 112.845 62.2399 112.533 62.1776C112.438 62.1581 112.348 62.1471 112.251 62.1399C111.819 62.1074 111.389 62.071 110.953 62.0464C111.074 62.0386 111.195 62.0308 111.316 62.0236C111.023 61.973 110.735 61.9561 110.446 62.0087C110.041 62.0814 109.97 62.023 109.968 61.5994C109.964 60.7251 109.97 59.8501 109.972 58.9758C113.768 59.2902 117.514 59.8852 121.168 60.9862C121.439 61.0681 121.532 61.022 121.528 60.7245C121.516 59.9268 121.528 59.1284 121.531 58.3301C121.549 58.4249 121.581 58.5198 121.581 58.6146C121.581 60.3399 121.579 62.0659 121.576 63.7912H121.577Z" fill="#757575"/>
<path d="M93.6639 71.2506C92.6707 71.2129 91.6795 71.3149 90.6869 71.3084C89.3702 71.2999 88.0606 71.1863 86.7484 71.0823C85.6519 70.9953 84.56 70.8667 83.4628 70.7907C83.3712 70.7842 83.2277 70.8465 83.2192 70.666C85.8241 69.7046 88.3614 68.5808 90.8928 67.4453C91.9861 66.9549 93.0832 66.4722 94.1784 65.9863C94.2551 67.7233 94.0719 69.4369 93.7192 71.1356C93.7107 71.1759 93.6821 71.2123 93.6633 71.2506H93.6639Z" fill="#8B8B8B"/>
<path d="M140.936 65.1505C141.019 64.9959 141.15 65.083 141.251 65.1037C145.472 65.9502 149.611 67.0889 153.659 68.555C153.718 68.5764 153.784 68.581 153.847 68.5933C153.781 68.759 153.618 68.7401 153.49 68.7668C151.15 69.2579 148.783 69.5105 146.395 69.5372C145.35 69.5489 144.304 69.4813 143.27 69.3053C142.491 67.9204 141.713 66.5354 140.935 65.1512L140.936 65.1505Z" fill="#EEEEEE"/>
<path d="M157.945 67.2962C155.768 66.2816 153.522 65.441 151.237 64.7057C148.962 63.9736 146.653 63.3682 144.315 62.8706C144.334 62.6926 144.475 62.7563 144.566 62.7556C146.208 62.7465 147.853 62.714 149.492 62.8251C150.666 62.905 151.837 63.0343 152.997 63.2305C153.093 63.2467 153.19 63.25 153.286 63.2597C153.471 63.5708 153.656 63.8826 153.863 64.2321C154.027 63.9528 154.171 63.7079 154.315 63.4637C155.183 63.6806 156.058 63.8749 156.919 64.1184C158.633 64.6043 160.311 65.1942 161.909 65.9938C160.803 66.5271 159.653 66.9513 158.501 67.3735C158.285 67.4528 158.128 67.3287 157.945 67.2969L157.945 67.2962Z" fill="#EEEEEE"/>
<path d="M109.972 58.9751C109.97 59.8494 109.964 60.7244 109.969 61.5988C109.97 62.0223 110.041 62.0814 110.446 62.008C110.736 61.956 111.023 61.9729 111.316 62.0229C111.196 62.0307 111.074 62.0385 110.953 62.0457C111.389 62.0704 111.82 62.1067 112.251 62.1392C112.348 62.1464 112.438 62.1574 112.534 62.1769C112.846 62.2399 113.159 62.3705 113.481 62.2133C113.587 62.162 113.694 62.2074 113.799 62.2276C113.825 62.2328 113.91 62.2334 113.824 62.288C113.799 62.3036 113.765 62.3055 113.705 62.3218C113.946 62.416 114.172 62.3419 114.386 62.3562C114.743 62.3796 115.056 62.5569 115.44 62.5413C115.687 62.5309 116.071 62.5381 116.27 62.6576C116.514 62.8038 116.759 62.8388 116.991 62.8661C117.622 62.9402 118.205 63.2123 118.829 63.2825C119.317 63.3371 119.748 63.5521 120.212 63.6716C120.313 63.6976 120.385 63.7567 120.422 63.8561C120.35 63.8756 120.277 63.9094 120.205 63.9113C119.534 63.934 118.872 64.0321 118.208 64.1133C115.524 64.4401 112.875 64.9474 110.256 65.6113C110.063 65.66 109.964 65.7386 109.967 65.9601C109.979 66.9851 109.975 68.0102 109.977 69.0359C109.976 69.9908 109.975 70.945 109.974 71.8999C109.973 75.372 109.972 78.8447 109.97 82.3167C109.97 82.4349 109.96 82.5531 109.955 82.6714C109.889 82.5161 109.908 82.3518 109.908 82.1913C109.906 74.5281 109.903 66.865 109.904 59.2018C109.904 58.955 109.876 58.7042 109.957 58.4619C109.962 58.6334 109.968 58.8042 109.973 58.9757L109.972 58.9751Z" fill="#8B8B8B"/>
<path d="M161.909 65.9936C160.312 65.194 158.634 64.6042 156.919 64.1183C156.058 63.8747 155.183 63.6805 154.315 63.4635C154.705 62.6593 155.134 61.8772 155.6 61.1152C155.91 61.3406 156.28 61.442 156.625 61.5888C158.764 62.5028 160.808 63.598 162.81 64.775C163.07 64.9277 163.336 65.0699 163.6 65.2167C164.287 65.7098 165.027 66.121 165.739 66.5763C165.552 66.983 165.342 67.3766 165.09 67.7469C164.968 67.5026 164.729 67.4338 164.5 67.3506C164.321 67.1551 164.081 67.0525 163.852 66.9381C163.208 66.6153 162.583 66.2554 161.909 65.9943V65.9936Z" fill="#404040"/>
<path d="M158.328 70.3501C158.536 70.1475 158.808 70.0721 159.071 69.9805C159.467 69.8422 159.825 69.5992 160.22 69.4862C160.643 69.3654 160.973 68.999 161.449 69.0438C162.076 69.3628 162.679 69.7226 163.281 70.0858C163.417 70.1676 163.539 70.291 163.72 70.2696C163.358 70.9776 162.986 71.6805 162.566 72.3561C162.528 72.1885 162.371 72.1664 162.25 72.1086C160.958 71.4889 159.647 70.9107 158.328 70.3495V70.3501Z" fill="#8B8B8B"/>
<path d="M165.739 66.576C165.028 66.1207 164.288 65.7095 163.601 65.2165C165.024 64.5058 166.391 63.6912 167.762 62.8877C167.549 63.4041 167.249 63.8757 166.98 64.3623C166.57 65.1028 166.195 65.8615 165.739 66.576Z" fill="#757575"/>
<path d="M163.719 70.2698C163.538 70.2906 163.416 70.1678 163.28 70.086C162.678 69.7229 162.075 69.363 161.448 69.0441C161.303 68.8492 161.515 68.8537 161.592 68.8174C162.576 68.3581 163.537 67.8534 164.5 67.3506C164.729 67.4337 164.969 67.5026 165.089 67.7468C164.633 68.5874 164.176 69.4286 163.719 70.2692V70.2698Z" fill="#EEEEEE"/>
<path d="M109.977 69.0355C109.975 68.0105 109.979 66.9848 109.967 65.9597C109.964 65.7382 110.063 65.6596 110.256 65.6109C112.876 64.947 115.525 64.4404 118.208 64.113C118.872 64.0318 119.535 63.9337 120.205 63.9109C120.278 63.9083 120.349 63.8746 120.422 63.8557C120.678 63.8895 120.946 63.7823 121.192 63.9207C119.476 64.9743 117.693 65.9058 115.872 66.762C114.08 67.6045 112.238 68.3288 110.353 68.9413C110.231 68.981 110.103 69.0044 109.977 69.0349V69.0355Z" fill="#EEEEEE"/>
</g>
<defs>
<clipPath id="clip0_495_428">
<rect width="231" height="127" fill="white"/>
</clipPath>
</defs>
</svg>
