<svg width="231" height="127" viewBox="0 0 231 127" fill="none" xmlns="http://www.w3.org/2000/svg">
<g clip-path="url(#clip0_491_116)">
<path d="M66.7157 68.8308C67.0387 67.5438 67.3652 66.2569 67.6821 64.9688C69.0822 59.2838 70.4788 53.5975 71.8765 47.9124C72.6439 44.7905 73.4149 41.6685 74.1703 38.5442C74.2609 38.1712 74.4372 38.0079 74.8209 38.0091C78.5137 38.0139 82.2076 38.0139 85.9003 38.0067C86.4056 38.0067 86.4342 38.2284 86.3293 38.6502C84.2202 47.145 82.123 55.6435 80.0222 64.1407C79.436 66.5107 78.8354 68.8772 78.2694 71.2509C78.1574 71.7228 77.9524 71.8979 77.4627 71.8967C70.2345 71.8848 63.0075 71.8824 55.7793 71.9003C55.2407 71.9015 55.0632 71.6775 54.9488 71.2044C53.7989 66.4798 52.6359 61.7587 51.4694 57.0388C50.0025 51.1059 48.5297 45.1742 47.0593 39.2424C46.8559 38.4218 47.1757 38.0111 48.0185 38.0103C51.4134 38.0103 54.8094 38.0187 58.2042 38.002C58.7035 37.9996 58.943 38.145 59.0681 38.655C60.8484 45.9213 62.6477 53.184 64.4422 60.4468C65.0845 63.0468 65.7243 65.648 66.369 68.2481C66.4202 68.453 66.5013 68.6508 66.5692 68.8522C66.618 68.8451 66.6669 68.8391 66.7146 68.832L66.7157 68.8308Z" fill="#CECECE"/>
<path d="M102.404 54.9492C102.404 60.3113 102.404 65.6735 102.404 71.0356C102.404 71.884 102.4 71.8864 101.537 71.8864C98.0221 71.8864 94.5069 71.8781 90.9917 71.8983C90.4281 71.9019 90.2314 71.7327 90.2314 71.1536C90.2457 60.3507 90.2457 49.5465 90.2314 38.7436C90.2314 38.1621 90.4316 37.9976 90.9941 38C94.5283 38.0203 98.0638 38.0108 101.599 38.0119C102.387 38.0119 102.402 38.0239 102.402 38.8055C102.404 44.1868 102.402 49.5692 102.404 54.9504V54.9492Z" fill="#CECECE"/>
<path d="M96.3234 88.8153C92.7094 88.8285 89.778 85.9865 89.7637 82.4535C89.7471 78.6094 92.5664 75.69 96.3103 75.6817C99.7266 75.6745 102.905 78.4044 102.895 82.3224C102.886 86.0235 99.7731 88.9381 96.3234 88.8153Z" fill="#EEEEEE"/>
<path d="M141.581 59.8661C142.811 58.9962 143.782 59.1595 144.608 60.133C144.737 60.0234 144.874 59.9209 144.998 59.8029C145.539 59.2905 146.183 59.169 146.874 59.368C147.583 59.5729 147.977 60.1401 148.036 60.8158C148.137 61.9978 148.119 63.1906 148.143 64.3798C148.15 64.7599 147.878 64.8827 147.586 64.804C147.392 64.7516 147.128 64.5466 147.099 64.3751C147.026 63.9508 147.072 63.5064 147.069 63.0691C147.067 62.5531 147.081 62.0372 147.061 61.5212C147.03 60.7407 146.608 60.2271 146.024 60.2188C145.388 60.2104 144.884 60.7622 144.861 61.5474C144.837 62.4197 144.847 63.2931 144.852 64.1665C144.854 64.5431 144.805 64.8231 144.314 64.8255C143.834 64.8279 143.767 64.555 143.766 64.182C143.764 63.2895 143.767 62.3958 143.748 61.5033C143.732 60.7145 143.371 60.251 142.788 60.2236C142.241 60.1973 141.679 60.6716 141.621 61.3532C141.54 62.3196 141.539 63.2931 141.539 64.2642C141.539 64.7278 141.308 64.8946 140.917 64.8076C140.756 64.7719 140.526 64.5359 140.523 64.387C140.489 62.8796 140.491 61.3711 140.504 59.8637C140.504 59.7267 140.663 59.4669 140.722 59.474C141.007 59.511 141.281 59.6206 141.559 59.704C141.567 59.7576 141.574 59.8113 141.581 59.8637V59.8661Z" fill="#CECECE"/>
<path d="M130.258 52.2757C129.531 52.7166 128.819 52.9883 128.018 52.6796C126.695 52.1708 126.086 50.4692 126.621 48.9464C127.102 47.5808 128.663 46.6859 130.307 47.7572C130.523 47.6356 130.704 47.4748 130.909 47.4307C131.255 47.3568 131.475 47.501 131.466 47.9073C131.433 49.5124 131.435 51.1198 131.379 52.7237C131.333 54.0273 130.596 54.8555 129.302 54.983C128.67 55.0461 128.011 54.921 127.372 54.8257C127.04 54.7756 126.874 54.5421 127 54.1632C127.134 53.7616 127.367 53.901 127.657 53.9499C128.191 54.0404 128.761 54.1632 129.276 54.0643C130.089 53.907 130.477 53.1289 130.259 52.2745L130.258 52.2757ZM130.417 50.026C130.397 50.0236 130.38 50.0212 130.361 50.0188C130.361 49.821 130.388 49.6184 130.356 49.4266C130.259 48.8666 129.996 48.3959 129.422 48.2338C128.866 48.0777 128.381 48.241 127.995 48.7093C127.508 49.3015 127.395 50.48 127.787 51.1723C128.079 51.6894 128.54 51.9397 129.108 51.9146C129.679 51.8896 130.059 51.5238 130.246 51.0078C130.358 50.6992 130.364 50.3537 130.417 50.0248V50.026Z" fill="#CECECE"/>
<path d="M171.035 61.1976C170.7 62.1879 170.358 63.1757 170.035 64.1707C169.91 64.5555 169.779 64.8582 169.277 64.8344C168.777 64.8105 168.747 64.4471 168.643 64.1099C168.218 62.7276 167.788 61.3466 167.365 59.9632C167.321 59.8202 167.318 59.6653 167.297 59.5175C168.284 59.3316 168.349 59.3769 168.574 60.2611C168.826 61.2513 169.088 62.2391 169.472 63.2317C169.707 62.4846 169.942 61.7374 170.178 60.9903C170.291 60.6304 170.418 60.2754 170.511 59.9107C170.608 59.5294 170.868 59.3531 171.21 59.4591C171.42 59.5247 171.663 59.7439 171.736 59.9489C172.038 60.808 172.28 61.6886 172.547 62.5608C172.608 62.7574 172.682 62.9505 172.876 63.1352C173.163 62.1342 173.456 61.1345 173.735 60.1324C173.944 59.3829 174.104 59.2935 174.93 59.5616C174.862 59.838 174.809 60.124 174.719 60.4005C174.301 61.7029 173.866 63.0005 173.453 64.3053C173.342 64.6533 173.163 64.8391 172.775 64.8272C172.377 64.8153 172.237 64.5806 172.136 64.2469C171.827 63.2269 171.5 62.2129 171.179 61.1976C171.13 61.1976 171.083 61.2 171.034 61.2L171.035 61.1976Z" fill="#CECECE"/>
<path d="M142.6 47.9383C142.928 47.75 143.142 47.6082 143.371 47.4974C144.48 46.9588 145.754 47.4163 145.959 48.6127C146.175 49.8674 146.101 51.1734 146.103 52.4579C146.103 52.5735 145.735 52.7737 145.535 52.7773C145.379 52.7797 145.099 52.5533 145.081 52.4031C145.02 51.8943 145.051 51.3748 145.047 50.8588C145.045 50.4227 145.056 49.9854 145.038 49.5493C145.006 48.7295 144.549 48.1921 143.912 48.198C143.261 48.204 142.632 48.8486 142.612 49.585C142.588 50.4775 142.584 51.3712 142.613 52.2625C142.627 52.6939 142.456 52.8178 142.058 52.8142C141.667 52.8107 141.556 52.6498 141.56 52.2685C141.576 50.0271 141.576 47.7857 141.567 45.5444C141.566 45.1785 141.603 44.9271 142.063 44.9378C142.478 44.9474 142.614 45.1321 142.606 45.5277C142.589 46.2986 142.601 47.0696 142.601 47.9394L142.6 47.9383Z" fill="#CECECE"/>
<path d="M166.907 62.1036C166.899 63.1904 166.527 64.096 165.526 64.6238C164.59 65.1183 163.647 65.0707 162.757 64.4856C161.696 63.7873 161.328 61.882 161.999 60.6487C162.653 59.4464 164.188 58.9376 165.45 59.506C166.369 59.9194 166.902 60.8715 166.907 62.1048V62.1036ZM165.818 62.1036C165.777 61.8486 165.758 61.6103 165.699 61.3827C165.483 60.5653 164.971 60.1542 164.229 60.1887C163.537 60.2209 162.962 60.7476 162.861 61.5162C162.808 61.9225 162.808 62.3503 162.866 62.7554C162.966 63.4465 163.593 64.0221 164.214 64.0674C164.843 64.1138 165.471 63.6265 165.676 62.9032C165.751 62.6398 165.774 62.361 165.818 62.1036Z" fill="#CECECE"/>
<path d="M134.093 62.1859C134.095 60.3961 135.134 59.3022 136.848 59.2891C138.265 59.2784 139.35 60.4843 139.346 62.062C139.341 63.7778 138.23 64.9492 136.608 64.9504C135.176 64.9504 134.091 63.7576 134.092 62.1859H134.093ZM135.108 62.062C135.263 62.5255 135.351 62.9807 135.56 63.3727C135.986 64.1758 136.974 64.2914 137.622 63.6587C138.455 62.846 138.44 61.2505 137.591 60.4879C137.002 59.9576 136.022 60.0517 135.627 60.731C135.394 61.1313 135.282 61.602 135.108 62.062Z" fill="#CECECE"/>
<path d="M149.089 62.1619C149.049 61.0216 149.454 60.0993 150.48 59.5857C151.428 59.1115 152.403 59.1389 153.292 59.7942C154.487 60.6748 154.653 62.9031 153.62 64.0899C152.659 65.1945 150.801 65.235 149.795 64.1686C149.261 63.6025 149.056 62.915 149.089 62.1607V62.1619ZM150.047 62.0046C150.092 62.0273 150.137 62.0487 150.181 62.0714C150.196 62.2882 150.195 62.5087 150.231 62.7232C150.338 63.363 150.935 63.985 151.505 64.0708C152.067 64.1554 152.727 63.7551 152.988 63.0914C153.292 62.318 153.281 61.5304 152.825 60.8071C152.32 60.0051 151.324 59.8848 150.714 60.6129C150.393 60.9954 150.263 61.5351 150.047 62.0046Z" fill="#CECECE"/>
<path d="M123.78 62.0855C123.783 64.0802 122.37 65.2694 120.484 64.8583C119.703 64.6879 119.162 64.2053 118.867 63.4927C118.396 62.3584 118.411 61.218 119.198 60.2266C119.854 59.3984 120.777 59.1363 121.817 59.3424C123.06 59.5891 123.777 60.5948 123.781 62.0843L123.78 62.0855ZM122.686 62.0176C122.659 61.846 122.646 61.5445 122.563 61.2633C122.362 60.5853 121.842 60.1611 121.249 60.1456C120.618 60.1277 120.038 60.5209 119.847 61.2216C119.726 61.6684 119.697 62.1641 119.74 62.6265C119.815 63.426 120.503 64.0826 121.157 64.079C121.891 64.0754 122.558 63.3998 122.653 62.5609C122.669 62.4227 122.67 62.2833 122.684 62.0187L122.686 62.0176Z" fill="#CECECE"/>
<path d="M122.812 47.293C124.368 47.293 125.394 48.388 125.413 50.0706C125.432 51.709 124.268 52.9411 122.711 52.9292C121.188 52.9173 120.137 51.7567 120.148 50.0968C120.158 48.4178 121.227 47.293 122.811 47.293H122.812ZM121.259 50.1123C121.259 51.1775 121.871 52.0045 122.702 52.0617C123.513 52.1165 124.155 51.4039 124.281 50.3113C124.409 49.2007 123.732 48.17 122.845 48.1271C121.931 48.083 121.26 48.9231 121.259 50.1111V50.1123Z" fill="#CECECE"/>
<path d="M149.94 50.339C149.504 50.339 149.068 50.3366 148.632 50.339C148.216 50.3425 148.114 50.5844 148.223 50.9348C148.405 51.5222 148.823 51.8928 149.425 51.9369C149.93 51.9738 150.444 51.8606 150.955 51.857C151.105 51.857 151.36 51.9857 151.382 52.093C151.414 52.255 151.339 52.547 151.216 52.6173C149.849 53.3859 147.781 52.7388 147.261 51.3304C146.823 50.14 146.991 48.9746 147.851 47.9915C148.5 47.248 149.712 47.0692 150.65 47.522C151.347 47.8581 151.92 49.0449 151.752 49.9112C151.721 50.0732 151.475 50.2889 151.305 50.3104C150.856 50.3664 150.396 50.3294 149.94 50.3294V50.339ZM149.451 49.5573V49.5537C149.709 49.5537 149.966 49.5513 150.224 49.5537C150.661 49.5585 150.788 49.3559 150.645 48.9484C150.479 48.4729 150.126 48.1035 149.66 48.1321C149.258 48.1572 148.835 48.4181 148.499 48.6767C148.328 48.8078 148.328 49.1617 148.249 49.4155C148.472 49.4631 148.692 49.5239 148.916 49.5525C149.091 49.5752 149.273 49.5573 149.45 49.5573H149.451Z" fill="#CECECE"/>
<path d="M135.231 50.337C134.795 50.337 134.359 50.3477 133.923 50.3334C133.485 50.3191 133.417 50.5205 133.537 50.8922C133.737 51.5166 134.226 51.9313 134.955 51.9623C135.384 51.9802 135.816 51.8574 136.249 51.8562C136.413 51.8562 136.707 52.0135 136.713 52.11C136.723 52.2876 136.601 52.5867 136.462 52.6391C135.412 53.0276 133.652 52.9608 132.944 51.9802C132.176 50.9137 132.228 49.1203 133.074 48.0813C133.672 47.3473 134.975 47.0649 135.852 47.4783C136.667 47.862 137.294 49.081 137.087 49.964C137.053 50.1117 136.815 50.2988 136.655 50.3143C136.184 50.3608 135.705 50.331 135.23 50.331C135.23 50.3334 135.23 50.3346 135.23 50.337H135.231ZM134.779 49.5565C135.056 49.5565 135.331 49.5517 135.608 49.5577C136.036 49.5672 136.115 49.361 135.986 48.9917C135.816 48.5055 135.507 48.1754 134.983 48.1027C134.423 48.0253 134.03 48.3184 133.755 48.7581C133.64 48.9416 133.638 49.1954 133.584 49.4171C133.786 49.4635 133.983 49.5291 134.187 49.5529C134.381 49.5767 134.58 49.5577 134.778 49.5565H134.779Z" fill="#CECECE"/>
<path d="M132.453 61.5593C132.453 62.4315 132.445 63.3049 132.457 64.1772C132.463 64.5644 132.398 64.8361 131.919 64.8314C131.467 64.8266 131.352 64.5966 131.355 64.1915C131.364 62.4661 131.343 60.7406 131.365 59.0152C131.372 58.4814 131.209 58.2407 130.652 58.2955C130.318 58.3289 129.978 58.2955 129.641 58.2967C129.319 58.2967 129.18 58.143 129.181 57.8189C129.181 57.4971 129.316 57.3398 129.64 57.3398C131.166 57.3422 132.694 57.3422 134.22 57.3422C134.578 57.3422 134.767 57.5591 134.676 57.8689C134.623 58.0453 134.371 58.2419 134.18 58.2788C133.836 58.3455 133.468 58.3181 133.113 58.2931C132.632 58.2586 132.432 58.4397 132.448 58.939C132.477 59.8112 132.457 60.6834 132.457 61.5569H132.454L132.453 61.5593Z" fill="#CECECE"/>
<path d="M116.127 62.5305C116.127 62.0348 116.126 61.5391 116.127 61.0422C116.127 60.6574 116.158 60.2689 115.606 60.2093C115.528 60.201 115.423 59.965 115.423 59.834C115.423 59.7053 115.54 59.4682 115.61 59.467C116.138 59.455 116.115 59.0642 116.18 58.7175C116.427 57.3817 117.21 56.7061 118.345 56.8645C118.623 56.9039 118.979 56.8967 118.937 57.3531C118.901 57.7475 118.662 57.8202 118.316 57.8023C117.863 57.7797 117.508 57.9346 117.338 58.4064C117.068 59.156 117.191 59.3693 117.984 59.4181C118.265 59.436 118.5 59.4491 118.504 59.8209C118.509 60.2034 118.274 60.3225 117.968 60.288C117.283 60.2105 117.186 60.5728 117.205 61.1435C117.239 62.1743 117.208 63.2062 117.219 64.2381C117.222 64.617 117.126 64.8458 116.686 64.8267C116.3 64.81 116.106 64.6766 116.124 64.256C116.147 63.6816 116.129 63.1061 116.128 62.5305H116.127Z" fill="#CECECE"/>
<path d="M117.501 49.5592C117.501 48.7465 117.504 47.9338 117.501 47.12C117.499 46.2799 117.496 46.2811 116.628 46.2799C116.311 46.2799 115.981 46.3276 115.682 46.2549C115.515 46.2144 115.288 45.9701 115.29 45.8188C115.29 45.6734 115.548 45.4077 115.697 45.4041C117.243 45.3731 118.79 45.3731 120.336 45.4041C120.487 45.4065 120.773 45.7032 120.749 45.8069C120.707 45.9951 120.503 46.2322 120.32 46.2811C120.045 46.3562 119.732 46.2811 119.435 46.2811C118.535 46.2751 118.533 46.2763 118.532 47.1486C118.529 48.8335 118.528 50.5196 118.532 52.2045C118.532 52.5334 118.493 52.7919 118.071 52.8098C117.689 52.8253 117.474 52.7443 117.486 52.2951C117.509 51.3835 117.493 50.4707 117.493 49.5592H117.501Z" fill="#CECECE"/>
<path d="M138.262 50.0163C138.262 49.6588 138.255 49.3013 138.265 48.9439C138.274 48.578 138.243 48.2837 137.764 48.2265C137.645 48.2122 137.493 47.9179 137.483 47.7463C137.477 47.6379 137.703 47.427 137.836 47.4186C138.192 47.396 138.262 47.2113 138.266 46.9134C138.268 46.6977 138.225 46.3903 138.345 46.2878C138.548 46.1126 138.858 46.0435 139.136 45.9923C139.173 45.9851 139.329 46.3379 139.341 46.5297C139.394 47.3495 139.382 47.359 140.18 47.4043C140.476 47.421 140.678 47.4877 140.681 47.8381C140.685 48.1944 140.475 48.2551 140.183 48.2754C139.348 48.3326 139.348 48.3385 139.351 49.1643C139.354 49.8197 139.359 50.4751 139.36 51.1292C139.36 51.65 139.574 51.9717 140.139 51.9467C140.448 51.9336 140.699 52.0468 140.618 52.3685C140.572 52.552 140.323 52.7867 140.136 52.8165C138.956 53.006 138.314 52.4579 138.266 51.2663C138.249 50.8504 138.264 50.4322 138.264 50.0151H138.261L138.262 50.0163Z" fill="#CECECE"/>
<path d="M156.398 59.7755C156.685 59.6576 157.085 59.4526 157.509 59.3478C157.622 59.3192 157.929 59.5944 157.937 59.7386C157.945 59.9281 157.783 60.251 157.624 60.301C156.64 60.6168 156.343 60.9433 156.308 61.9836C156.283 62.7176 156.291 63.4528 156.302 64.1868C156.308 64.5729 156.242 64.8362 155.759 64.8374C155.271 64.8386 155.216 64.5514 155.215 64.182C155.209 62.832 155.186 61.4831 155.208 60.133C155.211 59.9054 155.376 59.5086 155.506 59.492C155.754 59.4598 156.03 59.6433 156.398 59.7744V59.7755Z" fill="#CECECE"/>
<path d="M158.745 59.5027C159.252 59.3776 159.68 59.2751 159.749 59.9066C160.126 59.7065 160.456 59.4824 160.818 59.3549C161.117 59.2501 161.409 59.3132 161.46 59.7374C161.503 60.0925 161.422 60.2808 161.021 60.3451C160.265 60.4655 159.909 60.9016 159.862 61.7667C159.819 62.5579 159.834 63.3515 159.841 64.1451C159.846 64.5538 159.775 64.8386 159.269 64.8386C158.737 64.8386 158.739 64.5241 158.742 64.1296C158.757 62.7819 158.746 61.4331 158.745 60.0854C158.745 59.8923 158.745 59.6993 158.745 59.5039V59.5027Z" fill="#CECECE"/>
<path d="M125.899 59.8094C126.167 59.6843 126.538 59.4698 126.936 59.3423C127.209 59.2553 127.441 59.3876 127.455 59.7355C127.469 60.0334 127.455 60.298 127.061 60.3325C126.323 60.3969 125.96 60.8747 125.9 61.5479C125.822 62.4333 125.813 63.3258 125.805 64.2159C125.802 64.627 125.69 64.8415 125.231 64.8355C124.748 64.8296 124.771 64.5388 124.767 64.1992C124.753 62.8527 124.716 61.5062 124.7 60.1597C124.697 59.8833 124.593 59.4794 125.037 59.4746C125.295 59.4722 125.556 59.6688 125.898 59.8094H125.899Z" fill="#CECECE"/>
<path d="M153.719 47.8973C154.152 47.6899 154.538 47.46 154.956 47.3301C155.077 47.2919 155.428 47.5434 155.426 47.6566C155.42 47.8794 155.295 48.2285 155.125 48.2965C154.084 48.7183 153.829 49.0364 153.809 50.1756C153.797 50.8679 153.794 51.5614 153.806 52.2537C153.814 52.6207 153.685 52.8066 153.294 52.8042C152.913 52.803 152.776 52.6338 152.774 52.2597C152.771 50.775 152.74 49.2914 152.746 47.8067C152.746 47.6721 152.917 47.4421 153.038 47.4218C153.432 47.3539 153.769 47.4504 153.717 47.8973H153.719Z" fill="#CECECE"/>
<path d="M109.052 41.1163C108.673 40.5896 108.923 39.9235 108.74 39.2074C108.524 39.7817 108.361 40.2548 108.165 40.7147C108.102 40.8625 107.956 40.9745 107.847 41.1032C107.725 40.9685 107.557 40.8529 107.487 40.6945C107.313 40.2965 107.185 39.8794 106.932 39.4683C106.899 39.883 106.884 40.3001 106.82 40.71C106.799 40.8506 106.651 40.9721 106.562 41.102C106.485 40.9614 106.34 40.8172 106.346 40.679C106.374 39.9855 106.427 39.292 106.508 38.6032C106.526 38.4507 106.695 38.3149 106.794 38.1719C106.939 38.2815 107.156 38.3613 107.217 38.5067C107.439 39.0286 107.608 39.572 107.848 40.2524C108.096 39.5946 108.27 39.0715 108.497 38.5722C108.572 38.4078 108.784 38.3053 108.933 38.1754C109.034 38.3435 109.202 38.5031 109.224 38.6795C109.294 39.2896 109.324 39.9056 109.345 40.5205C109.352 40.7147 109.288 40.9125 109.256 41.1079C109.188 41.1115 109.12 41.1139 109.052 41.1175V41.1163Z" fill="#CECECE"/>
<path d="M104.986 41.1065C104.946 40.9337 104.882 40.7609 104.875 40.587C104.857 40.1711 104.873 39.754 104.861 39.3382C104.85 38.9604 104.789 38.6196 104.286 38.6006C104.193 38.597 104.105 38.4409 104.015 38.3551C104.122 38.2872 104.227 38.1656 104.336 38.1621C104.851 38.143 105.367 38.143 105.882 38.168C105.984 38.1728 106.081 38.311 106.18 38.3873C106.081 38.4647 105.98 38.6149 105.885 38.6089C105.328 38.5779 105.371 38.9342 105.367 39.3119C105.362 39.9054 105.318 40.4976 105.291 41.0898C105.19 41.0946 105.088 41.1005 104.986 41.1053V41.1065Z" fill="#CECECE"/>
<path d="M183.776 59.1249C183.636 58.8735 183.536 58.6947 183.406 58.4648C183.341 58.6697 183.289 58.8377 183.235 59.0069C183.208 59.001 183.179 58.9962 183.152 58.9903V57.6164C183.211 57.6021 183.271 57.5878 183.332 57.5723C183.471 57.807 183.612 58.0418 183.785 58.3325C183.951 58.0632 184.102 57.8201 184.252 57.5782C184.323 57.5878 184.395 57.5985 184.466 57.608C184.497 58.0763 184.529 58.5446 184.56 59.0117C184.498 59.0236 184.436 59.0367 184.373 59.0486C184.314 58.8675 184.253 58.6864 184.179 58.4636C184.05 58.6745 183.935 58.8628 183.775 59.1249H183.776Z" fill="#CECECE"/>
<path d="M182.741 57.6133C182.623 58.1042 182.517 58.5451 182.376 59.1314C182.236 58.5594 182.126 58.1149 182.002 57.6133H182.741Z" fill="#CECECE"/>
</g>
<defs>
<clipPath id="clip0_491_116">
<rect width="231" height="127" fill="white"/>
</clipPath>
</defs>
</svg>
