<svg width="231" height="127" viewBox="0 0 231 127" fill="none" xmlns="http://www.w3.org/2000/svg">
<g clip-path="url(#clip0_495_509)">
<path d="M208.063 81.606C207.906 81.6132 207.751 81.6262 207.595 81.6262C196.085 81.627 184.575 81.627 173.066 81.627H172.514V81.0945C172.514 69.2304 172.514 57.3655 172.513 45.5013C172.513 45.3342 172.494 45.1671 172.484 45C181.114 45 189.743 45 198.373 45C198.751 45.0615 199.133 45.1027 199.505 45.1874C203.932 46.1922 206.63 48.9622 207.765 53.3027C207.913 53.8677 207.966 54.4573 208.063 55.0353V81.606H208.063ZM199.536 62.9315C199.624 62.8628 199.708 62.797 199.793 62.7319C200.443 62.2291 200.964 61.6192 201.273 60.8538C202.29 58.3248 201.764 55.146 198.761 53.2572C197.296 52.3355 195.667 52.1373 193.973 52.2068C190.709 52.3406 188.09 54.5941 187.644 57.8089C187.373 59.7579 187.965 61.4471 189.588 62.6856C189.679 62.755 189.768 62.8266 189.878 62.9134C189.757 62.9988 189.669 63.0581 189.583 63.1218C187.806 64.4399 186.831 66.2079 186.808 68.4122C186.779 71.0679 188.093 73.0501 190.239 74.4824C191.934 75.6139 193.868 75.8266 195.858 75.6247C199.556 75.25 202.442 72.1306 202.52 68.423C202.558 66.592 202.018 64.9853 200.608 63.7446C200.276 63.4531 199.904 63.2086 199.536 62.9308V62.9315ZM184.739 75.2442C184.747 75.0879 184.758 74.9693 184.759 74.8514C184.76 67.5491 184.758 60.2469 184.765 52.9446C184.765 52.6415 184.703 52.528 184.37 52.5294C181.744 52.5431 179.117 52.5366 176.49 52.5381C176.364 52.5381 176.239 52.5562 176.123 52.5656V57.827H179.586V75.2442H184.739Z" fill="white"/>
<path d="M158.519 56.4767C158.469 56.5888 158.413 56.6981 158.372 56.8131C156.275 62.5925 154.177 68.3705 152.095 74.155C151.972 74.4972 151.824 74.6035 151.463 74.5992C149.703 74.5782 147.944 74.5811 146.185 74.5978C145.89 74.6007 145.771 74.5023 145.675 74.236C143.583 68.4414 141.482 62.6504 139.383 56.8587C139.337 56.7299 139.279 56.6055 139.227 56.4796L139.135 56.4905C139.127 56.6359 139.112 56.7813 139.112 56.9267C139.111 61.7881 139.112 66.6488 139.108 71.5102C139.108 71.8943 139.102 72.285 139.034 72.6604C138.832 73.7665 138.189 74.3945 136.919 74.5341C135.982 74.6376 135.024 74.5544 134.054 74.5544V52.534C134.157 52.5217 134.25 52.5 134.342 52.5C136.583 52.5022 138.825 52.487 141.066 52.5181C142.957 52.5442 144.03 53.3638 144.632 55.1514C146.077 59.4406 147.521 63.7298 148.966 68.0189C149.006 68.1383 149.057 68.2541 149.196 68.3778C149.249 68.2569 149.312 68.139 149.354 68.0146C150.776 63.7934 152.193 59.5708 153.614 55.3489C154.272 53.3956 155.371 52.5565 157.438 52.521C159.618 52.4841 161.8 52.5037 163.981 52.5C164.064 52.5 164.146 52.5167 164.254 52.529V74.5623C164.155 74.5717 164.064 74.5884 163.972 74.5884C163.093 74.5898 162.213 74.5949 161.333 74.5869C159.562 74.5703 158.643 73.6508 158.63 71.8799C158.62 70.5922 158.628 69.3052 158.628 68.0175C158.628 64.3114 158.628 60.6053 158.627 56.8999C158.627 56.7646 158.615 56.6286 158.61 56.4933C158.579 56.4883 158.55 56.4832 158.519 56.4782V56.4767Z" fill="white"/>
<path d="M75.7482 61.2006C75.7822 60.3463 75.754 59.5592 75.4292 58.8126C75.0805 58.011 74.4345 57.5459 73.6141 57.3498C73.0571 57.2167 72.4754 57.1263 71.9039 57.1205C69.3372 57.0952 66.7698 57.1097 64.203 57.101C63.8797 57.1003 63.549 57.08 63.2344 57.012C62.129 56.7718 61.3788 55.9088 61.2833 54.7462C61.2305 54.1002 61.2485 53.4484 61.2225 52.7995C61.2131 52.5579 61.3137 52.4848 61.5423 52.4928C61.9155 52.5051 62.2896 52.4949 62.6628 52.4957C66.4471 52.5036 70.2314 52.4747 74.0149 52.5434C75.0465 52.5622 76.102 52.7763 77.0945 53.0722C79.3958 53.7595 80.7254 55.3951 81.1906 57.713C81.3715 58.6151 81.4633 59.5462 81.4821 60.4663C81.5241 62.523 81.5038 64.5812 81.4901 66.6386C81.4829 67.7715 81.3635 68.895 81.038 69.9859C80.3109 72.426 78.6022 73.7846 76.1707 74.2794C75.2917 74.4581 74.3831 74.5543 73.4861 74.5717C71.3657 74.6122 69.2439 74.6086 67.1235 74.5731C65.757 74.5507 64.4186 74.3192 63.1598 73.7434C61.1313 72.8159 60.1055 71.1853 59.8335 69.0252C59.6982 67.9531 59.738 66.886 60.0035 65.8378C60.5569 63.6516 62.0139 62.3465 64.1213 61.694C65.3641 61.3084 66.6475 61.2079 67.9381 61.2028C70.3847 61.1934 72.8314 61.1999 75.2773 61.1999C75.4198 61.1999 75.5616 61.1999 75.7475 61.1999L75.7482 61.2006ZM75.7482 65.4869C75.5876 65.4869 75.4806 65.4869 75.3735 65.4869C73.2054 65.4869 71.038 65.484 68.8699 65.4913C68.498 65.4927 68.124 65.5202 67.7551 65.5687C66.3596 65.7517 65.6484 66.4686 65.5602 67.7592C65.4792 68.947 66.0319 69.7443 67.177 70.077C67.3839 70.1371 67.5981 70.2022 67.8108 70.2065C69.3509 70.2362 70.8926 70.3078 72.4299 70.2536C73.6836 70.2087 74.7369 69.69 75.3301 68.4906C75.7953 67.5501 75.783 66.5467 75.7482 65.4876V65.4869Z" fill="white"/>
<path d="M129.772 63.5516C129.691 65.3906 129.412 67.1731 128.633 68.8493C127.485 71.3176 125.615 73.0394 123.063 73.9538C119.388 75.2704 115.684 75.2588 112.064 73.7751C108.792 72.4339 106.855 69.9105 106.125 66.4786C105.64 64.1962 105.695 61.9131 106.373 59.6698C107.317 56.554 109.324 54.3656 112.361 53.224C115.977 51.864 119.655 51.856 123.262 53.2566C126.697 54.5899 128.716 57.1768 129.432 60.7665C129.614 61.6816 129.662 62.6228 129.772 63.5524V63.5516ZM123.735 63.2355C123.694 62.8897 123.659 62.2379 123.531 61.6042C123.174 59.8383 122.325 58.3929 120.677 57.5241C119.579 56.9461 118.397 56.7949 117.173 56.8947C114.971 57.0741 113.348 58.1101 112.44 60.1479C111.721 61.7583 111.643 63.4511 111.925 65.1663C112.169 66.658 112.781 67.9689 113.966 68.9556C115.2 69.9829 116.657 70.3026 118.223 70.2108C120.181 70.0957 121.731 69.2616 122.75 67.55C123.486 66.3144 123.71 64.9486 123.737 63.2348L123.735 63.2355Z" fill="white"/>
<path d="M23 52.4969C23.2785 52.4969 23.5057 52.4969 23.7328 52.4969C24.9504 52.4998 26.1672 52.4875 27.384 52.5099C28.8012 52.5367 29.445 52.9925 29.9333 54.3134C31.645 58.9426 33.3465 63.5747 35.0516 68.2061C35.0957 68.3262 35.142 68.4455 35.2289 68.6734C35.3374 68.4455 35.409 68.3189 35.4603 68.1844C36.9781 64.2128 38.4937 60.2404 40.0107 56.2688C40.2979 55.5172 40.5822 54.7641 40.8817 54.0175C41.2724 53.0438 42.0103 52.5367 43.0535 52.5164C44.3187 52.4918 45.584 52.502 46.8493 52.4991C46.9173 52.4991 46.9853 52.5193 47.0967 52.5367C46.8167 53.2261 46.5491 53.8909 46.2771 54.5543C43.5997 61.0897 40.9186 67.623 38.2506 74.162C38.1153 74.4926 37.9555 74.6019 37.5966 74.5975C35.741 74.5765 33.8847 74.5845 32.0291 74.5917C31.8106 74.5925 31.6927 74.5447 31.6045 74.3212C28.7744 67.1491 25.9357 59.98 23.0998 52.8094C23.0694 52.7335 23.0499 52.6532 23 52.4976V52.4969Z" fill="white"/>
<path d="M104.284 74.5694C104.149 74.5774 104.054 74.5882 103.96 74.5882C101.115 74.5882 98.2708 74.6135 95.427 74.5745C93.6619 74.5506 91.9654 74.1585 90.4086 73.289C88.3078 72.1156 86.9861 70.3157 86.3516 68.0326C85.4408 64.7533 85.4444 61.4646 86.6258 58.2511C87.7688 55.1426 90.086 53.3499 93.3161 52.7517C94.2681 52.5751 95.2527 52.5209 96.2235 52.5086C98.7664 52.476 101.309 52.5057 103.852 52.4883C104.229 52.4854 104.33 52.6019 104.31 52.9586C104.281 53.4621 104.312 53.9692 104.294 54.4741C104.238 56.0215 103.387 56.9396 101.832 57.0336C100.619 57.1067 99.3994 57.056 98.1848 57.1168C97.3362 57.1588 96.4717 57.2123 95.6491 57.4069C93.646 57.8815 92.419 59.1974 91.9394 61.1781C91.5458 62.8036 91.5509 64.4458 91.9828 66.0677C92.55 68.1997 94.1249 69.6212 96.3299 69.8288C97.9439 69.9807 99.5766 69.9265 101.199 70.0024C101.732 70.0278 102.282 70.1066 102.784 70.2788C103.736 70.6051 104.222 71.3451 104.276 72.334C104.316 73.064 104.284 73.7982 104.284 74.5694Z" fill="white"/>
<path d="M55.5125 52.5185V74.5258C55.4994 74.5381 55.4814 74.5685 55.464 74.5678C54.2371 74.5526 53.0036 74.6083 51.7861 74.4947C50.6438 74.3884 49.9066 73.4667 49.8495 72.3223C49.8401 72.1298 49.8379 71.9374 49.8379 71.745C49.8379 65.5004 49.8379 59.2558 49.8379 53.0112C49.8379 52.6683 50.0045 52.4966 50.3378 52.4961C51.9163 52.4961 53.4948 52.4961 55.0741 52.4968C55.2144 52.4968 55.3555 52.5098 55.5132 52.5178L55.5125 52.5185Z" fill="white"/>
<path d="M197.233 67.8134C197.221 69.6575 195.759 70.8634 194.121 70.399C193.125 70.1161 192.585 69.3695 192.362 68.3922C192.117 67.3201 192.392 66.3803 193.226 65.6576C193.938 65.0413 194.789 64.9805 195.632 65.3227C196.549 65.6945 197.049 66.4361 197.205 67.4062C197.23 67.5595 197.226 67.7172 197.232 67.8134H197.233Z" fill="white"/>
<path d="M196.922 58.9147C196.931 60.1828 196.029 61.1761 194.857 61.1891C193.459 61.205 192.604 60.3456 192.595 58.9154C192.587 57.6588 193.534 56.7097 194.803 56.7032C196.087 56.6967 196.911 57.5568 196.922 58.9139V58.9147Z" fill="white"/>
</g>
<defs>
<clipPath id="clip0_495_509">
<rect width="231" height="127" fill="white"/>
</clipPath>
</defs>
</svg>
