<svg width="201" height="72" viewBox="0 0 201 72" fill="none" xmlns="http://www.w3.org/2000/svg">
<g clip-path="url(#clip0_2622_701)">
<path d="M24.8281 29.4264C25.1055 29.0833 25.3111 28.7741 25.5686 28.5168C34.2873 19.7918 43.0054 11.0655 51.7229 2.33786C52.2657 1.79329 52.6709 1.66763 53.4053 1.96883C58.6421 4.1032 63.8923 6.20168 69.1557 8.26423C69.8064 8.51956 70.0379 8.83272 70.0379 9.55083C70.0166 27.5673 70.0166 45.5864 70.0379 63.6082C70.0379 64.3861 69.7505 64.6873 69.0759 64.9526C63.8457 67.0165 58.6248 69.107 53.4133 71.2241C52.7287 71.5033 52.3096 71.4136 51.7788 70.881C43.0733 62.1414 34.3539 53.4164 25.6204 44.7061C25.363 44.4487 25.1235 44.1695 24.7922 43.8084C23.2575 44.9913 21.7687 46.1323 20.2878 47.2833C16.0428 50.5845 11.8059 53.8998 7.54294 57.1791C7.39015 57.275 7.21784 57.3356 7.03862 57.3563C6.85939 57.377 6.67779 57.3574 6.50714 57.2988C4.51139 56.3533 2.52962 55.3653 0.561808 54.3346C0.410695 54.2368 0.283595 54.1062 0.189956 53.9525C0.0963172 53.7989 0.0385463 53.6261 0.0209554 53.447C-0.00698513 42.2113 -0.00698513 30.9743 0.0209554 19.736C0.0458021 19.5568 0.110057 19.3853 0.209092 19.2339C0.308128 19.0825 0.439485 18.9549 0.593735 18.8603C2.53161 17.8449 4.5094 16.9114 6.44727 15.8981C6.97016 15.6248 7.26553 15.7804 7.66867 16.0976C13.3246 20.5019 18.9926 24.8963 24.8281 29.4264ZM52.4094 50.8778V22.3092L34.0485 36.5954L52.4094 50.8778ZM7.02205 46.6888L17.0208 36.6952L7.02205 26.6996V46.6888Z" fill="white"/>
<path d="M164.033 52.6629V39.9385H167.426V71.3636H164.095V67.791C162.898 69.5623 161.678 70.8369 159.916 71.4314C155.14 73.0411 150.043 71.2319 148.479 65.7763C147.269 61.5455 147.423 57.3605 149.896 53.5386C152.368 49.7167 157.679 48.3403 161.471 50.5006C162.423 51.0392 163.171 51.9189 164.033 52.6629ZM164.233 60.3806L164.071 60.3586C164.071 59.7283 164.071 59.0979 164.071 58.4656C164.066 57.1992 163.663 55.9664 162.917 54.9424C162.172 53.9183 161.122 53.155 159.918 52.7606C157.348 51.9468 154.49 52.8185 153.015 54.9728C151.131 57.7235 150.993 60.7775 151.66 63.9312C152.023 65.6506 152.857 67.0868 154.34 68.0782C157.711 70.3462 162.357 68.6387 163.626 64.5755C164.031 63.245 164.031 61.7829 164.223 60.3806H164.233Z" fill="white"/>
<path d="M103.73 27.5554C105.101 23.6956 106.431 19.9474 107.764 16.2013C109.392 11.6274 111.041 7.05947 112.635 2.47158C112.877 1.7794 113.208 1.55001 113.915 1.59788C114.807 1.65573 115.711 1.61183 116.749 1.61183C113.046 11.6294 109.376 21.5592 105.686 31.5468C104.539 31.5468 103.409 31.5927 102.293 31.5129C102.032 31.495 101.681 31.094 101.571 30.7968C99.0429 23.911 96.5269 17.0198 94.0229 10.1234C93.0071 7.33075 91.9992 4.53811 90.9375 1.61183C92.1809 1.61183 93.3005 1.56597 94.4101 1.64775C94.6735 1.6677 95.0208 2.08459 95.1286 2.38979C96.7731 7.02954 98.397 11.6773 100 16.333C101.156 19.6722 102.289 23.0194 103.425 26.3665C103.541 26.7136 103.613 27.0886 103.73 27.5554Z" fill="white"/>
<path d="M108.541 46.0065C106.823 44.8096 105.103 44.2112 103.25 44.2571C101.955 44.291 100.558 44.3728 99.3967 44.8735C96.433 46.1561 95.8263 49.9082 98.1713 52.1363C99.1452 53.0599 100.343 53.752 101.466 54.5081C103.28 55.7288 105.204 56.8 106.925 58.1385C109.547 60.1811 110.333 62.9817 109.505 66.1533C108.707 69.2412 106.4 70.8409 103.46 71.583C100.235 72.3988 97.0836 71.95 94.0101 70.7671C93.3116 70.4979 92.9544 70.1129 93.0242 69.293C93.1081 68.3116 93.0442 67.3202 93.0442 66.4765C94.7725 67.1706 96.417 68.0503 98.1733 68.4712C99.6242 68.7975 101.127 68.8233 102.588 68.547C106.118 67.8788 107.344 63.7596 104.799 61.1425C103.729 60.0415 102.356 59.2236 101.075 58.3499C99.4106 57.2049 97.6624 56.1816 96.0199 55.0107C91.7549 51.9648 91.8587 44.1653 98.297 41.7816C101.343 40.6546 104.484 40.8441 107.589 41.6719C108.32 41.8714 108.613 42.2404 108.557 43.0124C108.491 43.912 108.541 44.8475 108.541 46.0065Z" fill="white"/>
<path d="M200.983 60.7059C201.061 63.3948 200.474 65.9062 198.826 68.0864C196.564 71.0785 193.417 72.1178 189.819 71.9862C184.959 71.8066 181.427 69.01 180.381 64.2585C179.475 60.1354 179.85 56.14 182.776 52.7629C183.921 51.46 185.425 50.5239 187.1 50.072C189.395 49.3764 191.839 49.3404 194.153 49.9683C198.452 51.1651 200.608 54.7935 200.969 59.1181C201.023 59.6427 200.983 60.1753 200.983 60.7059ZM190.665 69.0459C194.134 69.0459 196.544 67.2167 197.153 63.8177C197.428 62.1247 197.495 60.4045 197.353 58.6952C197.117 55.2703 194.8 52.9105 191.545 52.5115C188.062 52.0986 184.995 53.9079 184.087 57.2331C183.638 58.8827 183.586 60.694 183.652 62.4194C183.798 66.3311 186.753 69.0459 190.665 69.0459Z" fill="white"/>
<path d="M181.557 31.483H178.242V28.2456C177.019 30.0947 175.647 31.3095 173.732 31.8241C170.786 32.622 167.475 31.7064 165.948 29.6439C163.402 26.203 164.98 20.9408 169.127 19.6163C171.249 18.9381 173.53 18.7546 175.739 18.3637C176.548 18.22 177.364 18.1183 178.152 18.0006C178.577 14.2964 176.18 12.0523 172.612 12.6388C170.502 12.9719 168.519 13.8631 166.87 15.22C166.87 13.9832 166.852 12.914 166.892 11.8488C166.892 11.6873 167.156 11.4798 167.343 11.39C170.241 10.0117 173.261 9.21179 176.476 9.89199C179.585 10.5523 181.505 12.7325 181.595 16.0079C181.73 21.0885 181.647 26.181 181.653 31.2556C181.651 31.3135 181.603 31.3713 181.557 31.483ZM178.164 20.7753C177.108 20.9149 176.152 20.9927 175.214 21.1742C173.538 21.5014 171.794 21.6889 170.225 22.3053C167.816 23.2508 167.599 26.8512 169.73 28.3513C171.504 29.598 174.364 29.3267 176.087 27.8287C178.282 25.9217 178.416 23.4482 178.166 20.7733L178.164 20.7753Z" fill="white"/>
<path d="M143.496 10.2271H146.899V11.2823C146.899 15.0404 146.881 18.7964 146.913 22.5545C146.912 23.4493 147.008 24.3416 147.201 25.2155C147.743 27.5653 149.178 28.8978 151.274 29.1212C153.83 29.3965 156.098 28.2635 157.022 25.9436C157.511 24.6472 157.772 23.2758 157.792 21.8903C157.892 18.0384 157.828 14.1806 157.828 10.253H161.173V31.5448H157.828V28.2615C157.187 29.0334 156.77 29.6777 156.221 30.1744C153.8 32.3686 150.975 32.5322 148.039 31.5867C145.265 30.697 144.099 28.4689 143.732 25.788C143.532 24.284 143.532 22.744 143.516 21.222C143.478 17.5916 143.496 13.9672 143.496 10.2271Z" fill="white"/>
<path d="M126.374 50.1196H129.744V51.7294C129.744 55.2202 129.718 58.711 129.76 62.1998C129.789 63.1919 129.908 64.1794 130.116 65.15C130.537 67.2863 131.82 68.6667 133.999 68.9858C136.179 69.305 138.065 68.6168 139.4 66.7557C140.227 65.5801 140.666 64.1755 140.655 62.7383C140.699 58.9164 140.691 55.0945 140.703 51.2706C140.703 50.9115 140.703 50.5525 140.703 50.1356H144.058V71.3616H140.723V68.3695L140.523 68.3176C140.358 68.539 140.182 68.7524 140.03 68.9838C137.324 73.0491 131.153 72.5006 128.79 70.2705C127.102 68.6747 126.463 66.6081 126.407 64.4418C126.288 59.7024 126.374 54.9529 126.374 50.1196Z" fill="white"/>
<path d="M139.317 14.0889C137.623 12.9958 135.962 12.515 134.16 12.5869C131.641 12.6866 130.083 14.6454 130.967 16.7459C131.293 17.4246 131.819 17.9877 132.474 18.3596C133.783 19.1216 135.216 19.6702 136.559 20.3763C138.175 21.2221 139.618 22.2733 140.107 24.1783C140.906 27.32 139.533 30.1126 136.469 31.3394C133.597 32.4903 130.715 32.3248 127.869 31.1399C127.351 30.9265 127.089 30.6452 127.129 30.0328C127.187 29.1172 127.143 28.1957 127.143 27.4097C128.572 27.9563 129.937 28.6565 131.38 28.9756C132.438 29.209 133.629 29.0694 134.717 28.8659C135.729 28.6784 136.527 28.0062 136.713 26.8891C136.912 25.7062 136.733 24.5952 135.619 23.911C134.579 23.2727 133.481 22.7141 132.4 22.1496C131.787 21.8245 131.148 21.5512 130.532 21.2301C128.223 20.0611 127.039 18.1801 127.195 15.6089C127.362 12.8502 129.007 11.1127 131.508 10.1972C133.903 9.32147 136.325 9.47507 138.692 10.3966C138.84 10.4644 138.971 10.5648 139.075 10.6901C139.178 10.8155 139.252 10.9627 139.291 11.1207C139.361 12.0383 139.317 12.9679 139.317 14.0889Z" fill="white"/>
<path d="M123.327 50.028V53.0381H118.096C118.054 53.2274 118.024 53.4193 118.007 53.6125C118.007 57.5362 118.007 61.4598 118.007 65.3815C118.016 65.8793 118.077 66.3747 118.19 66.8596C118.545 68.4554 120.076 69.343 121.806 68.962C122.313 68.8503 122.804 68.6548 123.387 68.4693C123.387 69.0219 123.315 69.5285 123.401 70.0093C123.601 71.1163 123.072 71.625 122.066 71.7407C119.871 71.996 117.639 72.2075 115.953 70.3145C114.805 69.0239 114.578 67.3982 114.566 65.7565C114.536 61.9326 114.556 58.1087 114.556 54.2848V53.074H111.023V50.0958H114.56C114.56 48.5359 114.588 47.0818 114.546 45.6316C114.53 45.0332 114.704 44.7499 115.318 44.6083C116.18 44.4088 117.013 44.0777 117.993 43.7585V50.022L123.327 50.028Z" fill="white"/>
<path d="M186.875 0H190.148V31.463H186.875V0Z" fill="white"/>
<path d="M119.617 10.2271H122.904V31.459H119.617V10.2271Z" fill="white"/>
<path d="M172.711 50.1118H176.014V71.3757H172.711V50.1118Z" fill="white"/>
<path d="M121.296 0.957532C122.623 0.957532 123.563 1.89305 123.547 3.18763C123.546 3.48501 123.485 3.77907 123.367 4.0523C123.25 4.32552 123.079 4.57232 122.864 4.77799C122.649 4.98366 122.395 5.14402 122.116 5.24948C121.838 5.35493 121.542 5.40334 121.244 5.39183C119.963 5.37188 119.089 4.4882 119.063 3.18763C119.037 1.88707 119.969 0.953543 121.296 0.957532Z" fill="white"/>
<path d="M176.648 43.0404C176.648 44.349 175.722 45.2925 174.424 45.2945C173.127 45.2965 172.203 44.3669 172.211 43.0345C172.221 41.7339 173.081 40.8761 174.394 40.8582C175.771 40.8402 176.644 41.684 176.648 43.0404Z" fill="white"/>
</g>
<defs>
<clipPath id="clip0_2622_701">
<rect width="201" height="72" fill="white"/>
</clipPath>
</defs>
</svg>
