<svg width="256" height="61" viewBox="0 0 256 61" fill="none" xmlns="http://www.w3.org/2000/svg">
<path d="M196.326 31.8029C196.088 35.7919 196.697 40.8799 195.926 45.9219C194.809 53.2719 191.069 57.1819 183.735 58.3969C177.822 59.4648 171.721 58.5711 166.363 55.8519C164.599 54.9569 163.551 53.9119 165.08 51.9519C166.26 50.4379 166.47 47.5809 169.736 49.6639C171.597 50.8051 173.667 51.5636 175.825 51.895C177.983 52.2264 180.185 52.124 182.303 51.5939C183.895 51.3208 185.346 50.5131 186.417 49.3041C187.488 48.0951 188.115 46.5571 188.194 44.9439C188.241 44.3049 188.544 43.4919 187.965 43.0719C187.196 42.5139 186.591 43.3579 185.965 43.6719C184.031 44.6748 181.919 45.2857 179.748 45.4695C177.578 45.6533 175.392 45.4064 173.318 44.7429C166.126 42.5309 162.118 36.6879 162.538 28.8429C162.665 25.4647 163.96 22.2352 166.201 19.7044C168.443 17.1736 171.492 15.498 174.83 14.9629C178.934 14.0383 183.236 14.77 186.804 16.9989C187.638 17.5219 188.281 18.4119 188.936 16.4989C189.928 13.6089 192.645 15.2239 194.597 15.0989C196.279 14.9929 196.317 16.5159 196.321 17.7679C196.332 22.0889 196.321 26.4089 196.321 31.8009L196.326 31.8029ZM179.485 38.6549C184.885 38.6649 188.708 34.9239 188.648 29.6839C188.596 25.1069 184.63 21.4279 179.692 21.3749C174.141 21.3149 170.216 24.9279 170.267 30.0539C170.317 35.1199 174.095 38.6459 179.485 38.6539" fill="white"/>
<path d="M39.7676 23.0119C36.329 22.9082 32.9677 24.0439 30.2966 26.2119C28.5676 27.5909 27.4706 27.4799 26.2416 25.5119C23.0346 20.3849 17.2556 18.7319 12.2846 21.3249C9.92847 22.5703 8.11711 24.6442 7.20005 27.1464C6.28299 29.6487 6.32522 32.4019 7.31859 34.8749C8.28982 37.4259 10.2305 39.4893 12.7172 40.615C15.2039 41.7408 18.0349 41.8374 20.5926 40.8839C23.3536 39.9709 24.0086 41.1439 24.7116 43.3689C27.6686 52.7179 36.5786 57.1589 45.5266 53.9309C48.4484 52.7862 50.9574 50.7876 52.7266 48.1959C54.6266 45.6289 56.4266 47.5619 57.8766 48.3379C59.6976 49.3099 58.0306 50.6509 57.3766 51.5779C55.3361 54.5523 52.5726 56.9588 49.3461 58.5712C46.1195 60.1835 42.5358 60.9488 38.9321 60.7949C35.3284 60.641 31.823 59.573 28.7456 57.6914C25.6683 55.8098 23.12 53.1764 21.3406 50.0389C20.1836 48.0799 19.0196 47.2819 16.7136 47.2809C9.49659 47.2809 3.71359 42.6809 1.48459 35.5269C0.499941 32.2131 0.580427 28.6739 1.7147 25.4084C2.84896 22.1428 4.97977 19.3157 7.80659 17.3259C13.7356 13.2309 21.2316 13.1949 26.8186 17.6359C28.8306 19.2359 30.3386 19.2459 32.6436 18.4359C35.8185 17.3224 39.2089 16.963 42.5466 17.3861C45.8843 17.8092 49.0778 19.0031 51.8745 20.8735C54.6711 22.7439 56.9942 25.2394 58.6599 28.1626C60.3256 31.0857 61.2882 34.3564 61.4716 37.7159C61.5606 39.5439 60.9106 40.2279 59.1336 39.5229C58.1508 39.205 57.2666 38.6393 56.5659 37.8804C55.8653 37.1215 55.372 36.1949 55.1336 35.1899C53.1206 27.5669 47.2196 23.0019 39.7676 23.0119Z" fill="white"/>
<path d="M40.526 0.85791C44.2226 0.986586 47.8225 2.07211 50.974 4.0084C54.1255 5.9447 56.7207 8.6655 58.506 11.9049C58.8553 12.7041 59.4428 13.3759 60.1883 13.8286C60.9338 14.2813 61.8009 14.4927 62.671 14.4339C66.1964 14.4022 69.6328 15.5402 72.4425 17.6697C75.2522 19.7993 77.2767 22.8002 78.199 26.2029C79.1609 29.5772 79.0366 33.1685 77.8438 36.4682C76.651 39.7679 74.4502 42.6086 71.553 44.5879C68.727 46.5296 65.3506 47.5092 61.9242 47.3815C58.4978 47.2538 55.2037 46.0256 52.53 43.8789C50.982 42.6899 49.725 42.1619 47.701 42.9429C44.7093 44.1356 41.487 44.6377 38.2742 44.4117C35.0615 44.1856 31.9412 43.2374 29.1459 41.6375C26.3507 40.0377 23.9526 37.8276 22.1304 35.1719C20.3082 32.5163 19.109 29.4836 18.622 26.2999C18.374 24.8689 17.493 22.9999 19.405 22.0249C20.68 21.3739 23.785 23.7339 24.214 25.6019C24.8269 28.6635 26.2934 31.4893 28.444 33.7529C34.106 39.5459 42.1 40.5309 48.787 35.8669C51.171 34.2039 52.307 34.3809 53.847 36.8369C55.2559 39.0615 57.4657 40.6598 60.0196 41.3011C62.5736 41.9425 65.2763 41.578 67.569 40.2829C69.8115 39.03 71.5339 37.0188 72.4272 34.6104C73.3205 32.202 73.3261 29.5541 72.443 27.1419C71.5798 24.6582 69.8115 22.5914 67.4912 21.3542C65.171 20.1171 62.4694 19.8006 59.926 20.4679C56.136 21.3809 56.213 21.3529 54.926 17.8319C52.755 11.9079 48.671 8.00591 42.296 6.95191C36.262 5.95191 31.344 8.11991 27.482 12.7519C25.706 14.8839 24.096 15.0589 21.76 13.4809C20.337 12.5199 21.295 11.6429 21.814 10.8749C26.119 4.50091 32.132 1.13091 40.526 0.85791Z" fill="white"/>
<path d="M221.205 33.733C218.18 33.733 215.154 33.713 212.13 33.747C211.318 33.756 210.268 33.457 209.819 34.375C209.335 35.364 210.133 36.149 210.687 36.882C213.697 40.868 220.364 41.777 225.111 38.872C227.531 37.391 228.228 37.682 230.332 40.665C231.818 42.772 229.992 43.565 228.832 44.452C223.621 48.417 214.26 48.375 208.181 44.462C202.597 40.868 200.105 33.862 201.802 26.531C203.33 19.925 208.745 15.424 216.243 14.523C225.762 13.379 234.628 22.323 233.366 31.714C233.145 33.36 232.189 33.7 230.849 33.707C227.636 33.725 224.422 33.713 221.208 33.713L221.205 33.733ZM217.719 28.144V28.125C219.699 28.125 221.69 27.996 223.656 28.16C225.797 28.338 225.876 27.427 225.247 25.836C224.553 24.3856 223.46 23.1626 222.097 22.3094C220.733 21.4563 219.156 21.008 217.547 21.017C213.985 21.117 210.77 23.266 209.76 26.157C209.26 27.577 209.479 28.268 211.218 28.173C213.38 28.054 215.553 28.145 217.718 28.145" fill="white"/>
<path d="M103.353 36.9199C105.886 30.9679 108.419 25.0159 110.953 19.0639C112.83 14.6709 112.879 14.7269 117.691 14.9419C119.878 15.0419 119.991 15.8419 119.226 17.5839C116.598 23.6149 114.069 29.6889 111.501 35.7459C110.29 38.6009 108.989 41.4239 107.901 44.3229C107.695 45.1437 107.193 45.8596 106.492 46.3333C105.791 46.8071 104.939 47.0052 104.101 46.8899C98.0757 46.6979 99.2197 47.6799 96.8007 42.0059C93.3757 33.9639 90.0167 25.8939 86.5247 17.8819C85.5247 15.5879 86.0687 14.9259 88.5247 14.9299C93.4907 14.9369 93.4847 14.8419 95.3247 19.3209C97.7487 25.2102 100.177 31.0975 102.61 36.9829L103.346 36.9199" fill="white"/>
<path d="M127.409 30.672C127.409 29.264 127.35 27.853 127.417 26.447C127.539 23.896 127.753 21.59 123.904 21.62C121.739 21.638 122.412 19.42 122.318 18.02C122.224 16.62 122.418 15.12 124.23 15.203C127.271 15.333 127.674 13.624 127.406 11.269C127.117 8.73801 128.374 7.92601 130.75 8.10601C132.917 8.27101 135.455 7.44901 135.469 11.15C135.483 15.007 135.651 15.007 139.713 15.078C143.297 15.141 144.5 16.878 143.479 20.334C143.055 21.769 142.007 21.526 140.99 21.517C134.961 21.465 135.45 20.85 135.435 27.165C135.428 30.265 135.37 33.365 135.482 36.465C135.61 39.985 137.629 41.642 140.894 40.431C144.159 39.22 144.239 41.505 145.001 43.314C145.97 45.614 144.201 46.114 142.701 46.627C134.281 49.504 127.601 44.854 127.417 36.027C127.38 34.244 127.412 32.459 127.408 30.675" fill="white"/>
<path d="M255.454 18.6128C255.981 20.9958 254.804 21.9548 251.963 22.1368C248.028 22.3888 245.845 24.6088 245.117 28.4968C244.212 33.3308 244.825 38.2288 244.709 43.0968C244.62 46.8388 244.649 46.8758 240.918 46.8838C237.057 46.8928 236.985 46.8488 236.978 43.2608C236.964 34.9115 236.966 26.5622 236.984 18.2128C236.984 16.8468 236.698 15.0258 238.804 15.0898C240.754 15.1478 243.386 13.7338 244.412 16.6548C244.97 18.2428 245.572 17.7238 246.399 17.1298C247.938 16.0246 249.706 15.2799 251.571 14.9508C255.171 14.2958 255.455 14.5358 255.453 18.6128" fill="white"/>
<path d="M157.274 31.1338C157.274 35.4598 157.204 39.7868 157.301 44.1098C157.348 46.1928 156.526 46.8778 154.462 46.8918C149.562 46.9248 149.562 47.0098 149.562 42.2028C149.562 34.2098 149.675 26.2148 149.506 18.2258C149.442 15.1628 151.019 14.8998 153.4 14.9388C155.68 14.9758 157.5 14.9768 157.335 18.1618C157.105 22.4758 157.278 26.8098 157.275 31.1358" fill="white"/>
<path d="M158.342 5.82883C158.327 6.46334 158.184 7.08837 157.923 7.667C157.663 8.24563 157.289 8.76612 156.823 9.19772C156.358 9.62933 155.811 9.9633 155.214 10.1799C154.618 10.3965 153.984 10.4913 153.35 10.4588C152.12 10.4115 150.954 9.90401 150.081 9.03704C149.208 8.17007 148.692 7.00684 148.637 5.77783C148.663 5.14228 148.816 4.51845 149.088 3.94343C149.36 3.36841 149.745 2.85393 150.22 2.43059C150.694 2.00725 151.249 1.68368 151.852 1.47912C152.454 1.27456 153.091 1.19318 153.726 1.23983C154.337 1.21069 154.948 1.30924 155.52 1.52919C156.091 1.74914 156.611 2.08567 157.045 2.51736C157.479 2.94905 157.819 3.46643 158.042 4.03656C158.265 4.60668 158.367 5.21706 158.342 5.82883" fill="white"/>
</svg>
