<svg width="231" height="127" viewBox="0 0 231 127" fill="none" xmlns="http://www.w3.org/2000/svg">
<g clip-path="url(#clip0_360_5080)">
<path d="M75.8612 77.2913C74.7631 79.1373 73.7446 80.5378 70.9755 80.5378C68.3814 80.5378 67.0127 79.1692 66.0419 77.4186L50 47.9297H56.9865L71.3256 74.6973L85.1235 47.9297H91.7599C91.7599 47.9297 77.1185 75.2384 75.8453 77.3072L75.8612 77.2913Z" fill="#EEEEEE"/>
<path d="M93.7383 79.6625V47.9297H99.5471V79.6784H93.7383V79.6625Z" fill="#EEEEEE"/>
<path d="M127.236 77.2916C126.138 79.1376 125.12 80.5381 122.35 80.5381C119.756 80.5381 118.388 79.1695 117.417 77.4189L101.375 47.9141H108.362L122.701 74.6817L136.499 47.9141H143.135C143.135 47.9141 128.493 75.2228 127.22 77.2916H127.236Z" fill="#EEEEEE"/>
<path d="M173.131 79.6718L167.545 70.3461H146.968L141.477 79.624H134.793C134.793 79.624 151.328 52.3153 152.601 50.2465C153.7 48.4482 154.702 47 157.471 47C160.24 47 161.339 48.4004 162.405 50.1669L180.468 79.6718H173.131V79.6718ZM157.296 52.5381L149.466 66.0811H165.158L157.296 52.5381V52.5381Z" fill="#EEEEEE"/>
</g>
<defs>
<clipPath id="clip0_360_5080">
<rect width="231" height="127" fill="white"/>
</clipPath>
</defs>
</svg>
