<svg width="216" height="207" viewBox="0 0 216 207" fill="none" xmlns="http://www.w3.org/2000/svg">
<g clip-path="url(#clip0_5527_1029)">
<rect width="216" height="206.929" fill="#151517"/>
<g clip-path="url(#clip1_5527_1029)">
<path fill-rule="evenodd" clip-rule="evenodd" d="M35.6609 109.892L35.6156 109.847C35.4343 109.62 35.3437 109.394 35.2984 109.122C35.2531 109.076 35.2531 108.986 35.2078 108.94C35.0265 108.85 35.1171 108.623 35.0265 108.487C34.7999 108.215 34.664 107.853 34.6187 107.49C34.4828 107.4 34.5281 107.264 34.4374 107.128C34.3921 107.083 34.3921 107.037 34.3921 106.947C34.1203 106.765 34.1656 106.403 34.0296 106.131C33.9843 106.086 33.9843 106.04 33.939 105.95C33.8937 105.905 33.8937 105.814 33.8484 105.769C33.7125 105.678 33.7578 105.542 33.7125 105.406V105.361C33.6218 105.315 33.6671 105.225 33.6218 105.18C33.5765 105.089 33.5765 105.044 33.5312 104.998C33.3953 104.908 33.3953 104.726 33.35 104.59C33.3046 104.545 33.3046 104.455 33.2593 104.409V104.364V104.319C32.9875 104.183 33.0328 103.865 32.9421 103.639C32.7609 103.458 32.6703 103.231 32.6703 103.005C32.5797 102.914 32.5343 102.778 32.489 102.642C32.4437 102.597 32.4437 102.506 32.4437 102.461C32.3531 102.416 32.3531 102.325 32.3531 102.28C32.1718 102.053 32.0359 101.781 31.9906 101.464C31.9453 101.419 31.9453 101.328 31.9 101.283C31.8547 101.237 31.8547 101.147 31.8093 101.101C31.6734 101.011 31.7187 100.784 31.6281 100.648C31.5828 100.603 31.6281 100.512 31.5828 100.467C31.4922 100.422 31.5375 100.331 31.4922 100.286C31.3562 100.195 31.3562 100.014 31.3109 99.878C31.3109 99.8327 31.3109 99.8327 31.2656 99.8327C31.2656 99.7874 31.2656 99.6968 31.2203 99.6515C31.0844 99.5155 30.9937 99.3343 30.9937 99.1077C30.9031 99.0624 30.9484 99.0171 30.9031 98.9265C30.6765 98.7905 30.7219 98.5187 30.6312 98.3374C30.45 98.1562 30.314 97.8843 30.314 97.5671V97.5218L30.3594 97.6124C30.1328 97.3406 29.9969 97.0234 29.9516 96.7062C29.8609 96.6609 29.8609 96.5702 29.8609 96.4796C29.725 96.3437 29.725 96.2078 29.6797 96.0718C29.6344 96.0265 29.6344 95.9359 29.5891 95.8906C29.4531 95.7093 29.3625 95.4828 29.3172 95.2562C29.2719 95.2109 29.2719 95.1203 29.2266 95.075C28.9547 94.8484 29.0906 94.4859 29 94.1687V93.1718C29.0906 92.8547 28.9094 92.4922 29.2266 92.2656C29.2719 92.2203 29.2719 92.1297 29.3172 92.0844C29.4078 91.9031 29.3625 91.7219 29.5891 91.6312C29.5891 91.5859 29.6344 91.5859 29.6797 91.5406C29.725 91.45 29.6797 91.3594 29.7703 91.3594C29.7703 91.314 29.8156 91.2687 29.8609 91.2687C29.8609 91.2234 29.9062 91.1781 29.9516 91.1781C29.9516 91.1328 29.9969 91.0875 30.0422 91.0875C30.0422 91.0422 30.0875 90.9969 30.1328 90.9969C30.1328 90.9062 30.2687 90.9516 30.2687 90.8609C30.314 90.8609 30.314 90.8156 30.3594 90.7703C30.4047 90.6344 30.4953 90.6344 30.6312 90.5891C30.6312 90.4984 30.7219 90.5437 30.7672 90.4531C30.8125 90.4078 30.9031 90.4531 30.9484 90.4078C31.1297 90.1359 31.4015 90.2266 31.6281 90.1359C31.6281 90.1359 31.6734 90.1359 31.7187 90.1359C31.8093 90.0453 31.9453 90.1359 32.0812 90.0906H32.9421C33.0328 90.1359 33.1687 90.1359 33.2593 90.0906C33.3046 90.0906 33.35 90.0906 33.3953 90.0906C33.5312 90.1359 33.6218 90.1812 33.7578 90.2266L33.8484 90.2719C33.8484 90.2719 33.939 90.2719 33.9843 90.3172C34.0296 90.3172 34.0296 90.3625 34.075 90.3625C34.1203 90.3625 34.1203 90.4078 34.1656 90.4078C34.1656 90.4078 34.2109 90.4078 34.2109 90.4531C34.3468 90.5437 34.4374 90.5891 34.5734 90.6797C34.6187 90.725 34.6187 90.725 34.664 90.725C34.7093 90.725 34.7093 90.7703 34.7546 90.8156C34.7546 90.8156 34.7546 90.8156 34.7999 90.8609C34.7546 90.9062 34.7999 90.9062 34.7999 90.9516C34.7999 90.9516 34.8453 90.9516 34.8453 90.9969C34.8906 90.9969 34.8906 91.0422 34.8906 91.0422C34.8906 91.0422 34.9359 91.0422 34.9359 91.0875L34.9812 91.1328C34.9812 91.1328 34.9812 91.1781 35.0265 91.1781C35.0718 91.1781 35.0718 91.2234 35.0718 91.2234C35.0718 91.2234 35.1171 91.2234 35.1171 91.2687C35.1171 91.314 35.1624 91.314 35.1624 91.3594C35.2078 91.3594 35.2078 91.4047 35.2531 91.45C35.3437 91.6312 35.4796 91.8125 35.5702 92.039C35.5702 92.0844 35.6156 92.0844 35.6156 92.1297C35.7968 92.6281 36.0234 93.1265 36.2046 93.625C36.2046 93.6703 36.2499 93.7156 36.2499 93.7156C36.2952 93.7609 36.2952 93.8515 36.3406 93.8968C36.3859 93.9421 36.3406 93.9421 36.3859 93.9875C36.4312 94.0781 36.4312 94.1687 36.4765 94.2593C36.4765 94.3046 36.5218 94.3046 36.5218 94.35C36.5671 94.4859 36.5671 94.5312 36.6124 94.5765C36.6124 94.6218 36.6577 94.6671 36.6577 94.7125C36.7484 94.939 36.839 95.1656 36.9296 95.3921C36.9296 95.4374 36.9749 95.4828 36.9749 95.4828C37.0655 95.6187 37.1109 95.7999 37.1562 95.9359C37.1562 95.9812 37.2015 96.0265 37.2015 96.0265C37.2468 96.0718 37.2468 96.1624 37.2921 96.2078C37.2921 96.2531 37.2921 96.2531 37.3374 96.2984C37.3374 96.3437 37.3827 96.389 37.3827 96.4343C37.3827 96.4796 37.428 96.5249 37.428 96.5249C37.428 96.6609 37.4734 96.7968 37.5187 96.8874C37.5187 96.9327 37.564 96.9327 37.564 96.9781C37.564 97.0234 37.6093 97.0687 37.6093 97.1593C37.6093 97.2046 37.6546 97.2046 37.6546 97.2499C37.6999 97.3859 37.7905 97.5671 37.8359 97.703C37.8359 97.7484 37.8812 97.7484 37.8812 97.7937C37.8812 97.839 37.9265 97.8843 37.9265 97.9296C37.9265 97.9749 37.9718 97.9749 37.9718 98.0202C37.9718 98.0655 38.0171 98.1562 38.0624 98.2015C38.0171 98.2468 38.0624 98.2921 38.0624 98.2921C38.1077 98.428 38.1983 98.6093 38.2437 98.7452L38.289 98.8359C38.3343 98.8812 38.3343 98.9265 38.3796 98.9718C38.3796 99.0624 38.3796 99.0624 38.4249 99.1077C38.4702 99.289 38.5155 99.4249 38.6062 99.6062C38.6515 99.6515 38.6515 99.6968 38.6515 99.6968C38.7421 99.9233 38.8327 100.15 38.878 100.376C38.878 100.422 38.878 100.467 38.878 100.512C38.878 100.558 38.878 100.558 38.9233 100.558C38.9687 100.558 38.9687 100.648 39.014 100.694C39.014 100.694 39.0593 100.739 39.0593 100.784C39.0593 100.83 39.1046 100.875 39.1046 100.92C39.1046 100.966 39.1499 100.966 39.1499 101.011C39.1499 101.056 39.1952 101.101 39.1952 101.147C39.2405 101.192 39.2405 101.192 39.2405 101.237C39.2405 101.283 39.2858 101.328 39.3311 101.373C39.3311 101.419 39.3765 101.419 39.3765 101.464C39.4671 101.691 39.5577 101.917 39.6483 102.144C39.6483 102.189 39.6483 102.234 39.6483 102.234C39.6936 102.416 39.739 102.551 39.8296 102.687L39.8749 102.823C39.8749 102.869 39.9202 102.914 39.9202 102.959C39.9202 103.005 39.9655 103.005 39.9655 103.05C39.9655 103.095 40.0108 103.14 40.0108 103.186C40.0108 103.231 40.0561 103.231 40.0561 103.276C40.1015 103.412 40.1468 103.594 40.2374 103.73C40.2374 103.775 40.2827 103.775 40.2827 103.82C40.2827 103.865 40.328 103.956 40.328 104.001C40.328 104.047 40.3733 104.047 40.3733 104.092C40.4186 104.183 40.464 104.273 40.5093 104.364C40.5093 104.409 40.5093 104.409 40.5546 104.455C40.5999 104.5 40.5999 104.545 40.5999 104.59C40.5999 104.636 40.6452 104.681 40.6452 104.681C40.6905 104.817 40.7811 104.953 40.8264 105.134C40.8264 105.18 40.8718 105.18 40.8718 105.225L40.9171 105.361C40.9171 105.406 40.9624 105.406 40.9624 105.451C41.0077 105.497 41.0077 105.587 41.053 105.633C41.053 105.678 41.0983 105.723 41.0983 105.723C41.1436 106.04 41.2343 106.222 41.3249 106.403C41.3249 106.448 41.3702 106.494 41.3702 106.494C41.5061 106.765 41.5514 107.083 41.6874 107.355C41.8233 107.219 41.8233 107.037 41.8686 106.901C41.8686 106.856 41.9139 106.811 41.9139 106.811C41.9139 106.765 41.9592 106.72 41.9592 106.675C41.9592 106.63 42.0046 106.63 42.0046 106.584C42.0952 106.448 42.1405 106.358 42.1858 106.267C42.1858 106.222 42.2311 106.222 42.2311 106.176C42.2764 106.131 42.2764 106.086 42.3217 106.04C42.3217 105.995 42.3671 105.995 42.3671 105.95C42.4124 105.905 42.4124 105.814 42.4124 105.769C42.4124 105.723 42.4577 105.678 42.4577 105.678C42.5483 105.451 42.5936 105.225 42.7296 104.998C42.7296 104.953 42.7749 104.953 42.7749 104.908C42.8202 104.726 42.8655 104.59 42.9561 104.455C42.9561 104.409 42.9561 104.409 43.0014 104.364C43.0014 104.273 43.0014 104.183 43.0467 104.137C43.0467 104.092 43.0467 104.092 43.0467 104.047L43.092 103.911C43.092 103.865 43.1374 103.865 43.1374 103.82C43.1827 103.775 43.1827 103.73 43.1827 103.684C43.1827 103.639 43.228 103.639 43.228 103.594C43.228 103.548 43.2733 103.503 43.2733 103.458C43.2733 103.412 43.3186 103.412 43.3639 103.412C43.4092 103.367 43.4092 103.322 43.4092 103.231C43.4092 103.186 43.4092 103.14 43.4092 103.095C43.4999 103.005 43.4999 102.869 43.5905 102.733C43.5905 102.687 43.6358 102.687 43.6358 102.642C43.6811 102.597 43.6811 102.551 43.7264 102.461C43.7264 102.416 43.7264 102.416 43.7717 102.37C43.7717 102.325 43.817 102.28 43.817 102.234C43.817 102.189 43.8624 102.189 43.8624 102.144C43.9077 102.098 43.9077 102.053 43.9077 102.008C43.9077 101.962 43.953 101.962 43.953 101.917C43.953 101.872 43.9983 101.781 43.9983 101.736L44.0436 101.645C44.1342 101.419 44.2249 101.237 44.3155 101.011C44.3155 100.966 44.3608 100.966 44.3608 100.92C44.3608 100.875 44.4061 100.83 44.4514 100.784C44.4514 100.739 44.4967 100.739 44.4967 100.694C44.542 100.512 44.6327 100.376 44.678 100.195C44.678 100.15 44.7233 100.105 44.7233 100.105C44.7686 99.7874 44.8592 99.5155 44.9498 99.2437C44.9498 99.1983 44.9952 99.153 44.9952 99.153C45.0858 98.8812 45.2217 98.564 45.3123 98.2921C45.3123 98.2468 45.3577 98.2015 45.3577 98.2015C45.3577 98.1562 45.403 98.1109 45.403 98.0655C45.403 98.0202 45.4483 98.0202 45.4483 97.9749C45.4936 97.9296 45.4936 97.8843 45.4936 97.839L45.5389 97.7484C45.5842 97.703 45.5842 97.6124 45.5842 97.5671C45.5842 97.5218 45.5842 97.4765 45.6295 97.4765C45.7201 97.3406 45.7655 97.1593 45.8108 97.0234C45.8108 96.9781 45.8561 96.9781 45.8561 96.9327C45.8561 96.8874 45.9014 96.8421 45.9014 96.7515C45.9467 96.7062 45.9467 96.7062 45.9467 96.6609C46.0373 96.5249 46.0826 96.4343 46.128 96.3437C46.128 96.2984 46.1733 96.2984 46.1733 96.2531C46.2186 96.1171 46.2639 96.0265 46.3092 95.8906C46.3092 95.8453 46.3545 95.8453 46.3545 95.7999C46.3545 95.7546 46.3998 95.7093 46.3998 95.6187C46.3998 95.5734 46.4451 95.5734 46.4451 95.5281C46.4905 95.4374 46.5811 95.3015 46.6264 95.1656C46.6264 95.1203 46.6717 95.075 46.6717 95.075C46.6717 95.0296 46.717 94.9843 46.7623 94.939L46.8076 94.8484C46.853 94.6671 46.8983 94.5312 46.9436 94.4406L46.9889 94.35C47.1701 94.0781 47.3061 93.7609 47.4873 93.5343C47.5326 93.4437 47.5326 93.4437 47.5779 93.3984L47.6233 93.3078C47.6233 93.3078 47.6233 93.2625 47.6686 93.2625C47.7139 93.2625 47.7139 93.2172 47.7592 93.1718L47.8045 93.0812C47.8498 93.0359 47.8498 93.0359 47.8498 92.9906L47.8951 92.9453C47.9404 92.9 47.9858 92.8093 48.0311 92.7187L48.0764 92.6281C48.1217 92.5828 48.1217 92.5828 48.167 92.5375L48.2123 92.4922C48.3936 92.3109 48.5295 92.1297 48.7107 91.9937L48.8014 91.9484C48.8467 91.9031 48.892 91.8578 48.9373 91.8125C48.9373 91.7672 48.9826 91.7672 49.0279 91.7672L49.0732 91.6765C49.0732 91.6765 49.1186 91.6765 49.1186 91.6312C49.1639 91.5859 49.1639 91.5859 49.2092 91.5406C49.2545 91.4953 49.2545 91.4953 49.2998 91.4953C49.3904 91.45 49.4811 91.314 49.617 91.2687C49.6623 91.2687 49.6623 91.2234 49.7076 91.2234C49.7529 91.1781 49.8435 91.1328 49.8889 91.0875C49.8889 91.0875 49.9342 91.0422 49.9795 91.0422C50.0248 91.0422 50.0701 90.9969 50.0701 90.9969C50.1154 90.9969 50.1154 90.9516 50.1607 90.9516C50.206 90.9516 50.2514 90.9062 50.2514 90.9062L50.342 90.8609L50.4326 90.8156C50.4779 90.8156 50.4779 90.7703 50.5232 90.7703C50.5685 90.7703 50.6139 90.725 50.6139 90.725C50.6592 90.725 50.6592 90.6797 50.7045 90.6797C50.7045 90.6344 50.7498 90.5891 50.7951 90.5891C50.8404 90.5891 50.8404 90.5437 50.8857 90.5437C50.931 90.5437 50.9763 90.4984 51.0217 90.4984C51.067 90.4984 51.067 90.4531 51.1123 90.4531C51.2029 90.4531 51.2482 90.4078 51.2935 90.4078C51.3388 90.4078 51.3388 90.3625 51.3842 90.3625C51.792 90.2266 52.1998 90.0906 52.6076 90.0453C52.6529 90.0453 52.7435 90.0453 52.7888 90.0453C52.9701 90.0906 53.1513 90.0906 53.3779 90.0453H54.7372C54.8732 90.0906 55.0544 90.0906 55.1904 90.0453C55.2357 90.0453 55.3263 90.0453 55.3716 90.0453C55.6888 90.0906 55.9607 90.1812 56.2325 90.2719C56.2779 90.2719 56.3232 90.3172 56.3232 90.3172C56.3685 90.3172 56.4591 90.3625 56.5044 90.4078C56.5497 90.4078 56.5497 90.4078 56.595 90.4531C56.731 90.4531 56.7763 90.4531 56.8669 90.4531C56.9122 90.4531 56.9122 90.4531 56.9575 90.4984C57.0935 90.5891 57.2747 90.6344 57.4107 90.725C57.456 90.725 57.5013 90.725 57.5013 90.7703C57.6825 90.8609 57.8638 90.9516 57.9997 91.0422C58.045 91.0422 58.045 91.0875 58.0903 91.0875C58.1357 91.1328 58.181 91.1328 58.2263 91.1781L58.3169 91.2234C58.4528 91.314 58.5888 91.4047 58.7247 91.4953L58.8153 91.5859L58.9966 91.7219C59.0419 91.7672 59.0419 91.7672 59.0872 91.7672C59.0872 91.8125 59.1325 91.8125 59.1325 91.8125C59.1325 91.8125 59.1325 91.8125 59.1778 91.8578C59.2231 91.9031 59.2231 91.9031 59.2685 91.9484C59.3138 91.9484 59.3138 91.9937 59.3591 91.9937V92.039L59.4044 92.0844C59.4497 92.0844 59.4497 92.1297 59.4497 92.1297L59.495 92.175C59.5403 92.175 59.5403 92.2203 59.5856 92.2656C59.5856 92.2656 59.631 92.2656 59.631 92.3109C59.8575 92.5375 60.0841 92.8093 60.3106 93.0359C60.3559 93.0812 60.4466 93.2172 60.6278 93.1718C60.6731 93.1718 60.6731 93.1265 60.7184 93.1265C60.7638 93.1265 60.7638 93.0812 60.8091 93.0812C60.8544 93.0359 60.8544 93.0359 60.8997 93.0359C60.945 92.9906 60.9903 92.9906 61.0356 92.9453C61.0356 92.9453 61.0809 92.9 61.1262 92.9C61.1262 92.8547 61.1716 92.8547 61.1716 92.8547C61.1716 92.8547 61.2169 92.8547 61.2169 92.8093C61.1716 92.7187 61.1716 92.7187 61.2169 92.6734C61.2622 92.6281 61.2622 92.6281 61.3075 92.6281C61.3528 92.5828 61.3981 92.5828 61.3981 92.5375C61.4434 92.4922 61.4434 92.4922 61.4887 92.4469C61.7153 92.2656 61.9872 92.0844 62.2591 91.9031L62.3497 91.8125C62.4403 91.7672 62.5309 91.6765 62.6215 91.6312C62.6669 91.6312 62.6669 91.5859 62.7122 91.5859C62.7575 91.5859 62.8028 91.5406 62.8481 91.5406L62.8934 91.4953C62.9387 91.4953 62.9387 91.45 62.984 91.45C62.984 91.45 63.0294 91.4047 63.0747 91.4047C63.12 91.4047 63.12 91.3594 63.1653 91.3594C63.2106 91.3594 63.2106 91.3594 63.2559 91.314C63.3012 91.2687 63.3465 91.2687 63.3919 91.2234C63.3919 91.1781 63.3919 91.1781 63.4372 91.1328C63.6184 91.0875 63.7543 90.9969 63.8903 90.9062L63.9809 90.8609C64.0262 90.8609 64.0715 90.8156 64.1168 90.8156C64.1622 90.7703 64.1622 90.7703 64.2075 90.7703L64.3434 90.6797C64.3887 90.6797 64.3887 90.6344 64.434 90.6344C64.4793 90.5891 64.5247 90.5891 64.57 90.5891L64.6606 90.5437C64.7059 90.5437 64.7512 90.4984 64.7965 90.4984C64.8418 90.4984 64.8418 90.4531 64.8871 90.4531C64.9325 90.4531 64.9778 90.4078 65.0231 90.4078L65.1137 90.3625C65.2043 90.3625 65.295 90.3172 65.3403 90.3172C65.3856 90.3172 65.3856 90.2719 65.4309 90.2719C65.6121 90.2266 65.7934 90.1812 65.9293 90.0906C65.9746 90.0906 65.9746 90.0906 66.02 90.0906C66.1106 90.0453 66.2465 90.1812 66.3371 90.0906C66.3824 90.0906 66.4278 90.0906 66.4731 90.0906C66.6996 90 66.8809 90.0906 67.0621 90H68.5574C68.784 90.0453 69.0105 90.0453 69.1918 90C69.2824 90 69.373 90 69.4637 90C69.5996 90.0453 69.6902 90.0453 69.8262 90.0453C69.8715 90.0453 69.9621 90.0453 70.0074 90.0906C70.3246 90.1812 70.5965 90.2266 70.9137 90.3172C70.959 90.3172 71.0043 90.3625 71.0043 90.3625C71.0496 90.4078 71.1402 90.4531 71.1855 90.4531C71.2308 90.4531 71.2761 90.4531 71.2761 90.4984C71.3668 90.5437 71.5027 90.5891 71.6386 90.6344C71.684 90.6344 71.684 90.6797 71.7293 90.6797C71.7746 90.6797 71.8199 90.725 71.8652 90.725C71.9105 90.725 71.9105 90.7703 71.9558 90.7703C72.0918 90.8609 72.2277 90.9062 72.3636 90.9969C72.4089 90.9969 72.409 91.0422 72.4543 91.0422C72.4996 91.0422 72.5449 91.0875 72.5902 91.1328C72.6355 91.1328 72.6355 91.1781 72.6808 91.1781C72.9527 91.3594 73.2246 91.5406 73.4964 91.7672C73.5418 91.7672 73.5418 91.8125 73.5871 91.8125L73.6777 91.9031C73.6777 91.9031 73.6777 91.9484 73.723 91.9484L73.8136 92.039C73.8136 92.039 73.8136 92.0844 73.8589 92.0844C73.8589 92.0844 73.9042 92.1297 73.9496 92.175C73.9949 92.2203 73.9949 92.2203 73.9949 92.2203C74.1308 92.3562 74.3121 92.5375 74.448 92.7187C74.4933 92.764 74.4933 92.764 74.5386 92.8093C74.5839 92.8547 74.5839 92.8547 74.6292 92.9L74.6746 92.9453L74.7652 93.0359L74.8105 93.0812C74.9464 93.2172 75.037 93.2625 75.173 93.1265C75.3089 92.9906 75.3995 92.8547 75.5355 92.764C75.5808 92.7187 75.5808 92.7187 75.6261 92.7187C75.6714 92.6734 75.762 92.6281 75.8074 92.6281C75.8074 92.5828 75.8527 92.5828 75.898 92.5828L75.9433 92.5375C75.9433 92.5375 75.9886 92.5375 75.9886 92.4922C76.0339 92.4922 76.0339 92.4469 76.0339 92.4469C76.0792 92.4469 76.0792 92.4015 76.1245 92.4015C76.1698 92.4015 76.1699 92.3562 76.2152 92.3562L76.3058 92.3109L76.3964 92.2656C76.4417 92.2203 76.4417 92.2203 76.487 92.2203C76.623 92.1297 76.7136 92.039 76.8495 91.9484C76.8948 91.9031 76.8948 91.9031 76.9402 91.9031C77.0761 91.8578 77.1667 91.7672 77.2573 91.6765C77.3027 91.6765 77.3027 91.6312 77.348 91.6312C77.5292 91.5406 77.7105 91.4047 77.8464 91.314L77.937 91.2687C78.073 91.2234 78.2542 91.1781 78.3901 91.0875C78.4355 91.0875 78.4355 91.0422 78.4808 91.0422C78.5261 91.0422 78.5714 90.9969 78.6167 90.9969C78.662 90.9969 78.7073 90.9969 78.7073 90.9969C78.798 91.0422 78.8433 90.9969 78.8886 90.9516C78.9339 90.9062 78.9792 90.8609 79.0245 90.8156C79.0698 90.7703 79.0698 90.7703 79.1151 90.7703C79.2511 90.725 79.387 90.6797 79.5229 90.6344L79.6136 90.5891C79.7042 90.5891 79.7948 90.5437 79.8854 90.5437C79.9307 90.5437 79.9761 90.5437 79.9761 90.4984C80.1573 90.4531 80.3839 90.4078 80.5651 90.3172C80.6104 90.3172 80.6557 90.2719 80.6557 90.2719C80.7917 90.2719 80.9276 90.2266 81.0636 90.2266C81.1089 90.2266 81.1995 90.2266 81.2448 90.2266C81.426 90.2266 81.6073 90.2266 81.7432 90.1812H83.2838C83.4651 90.2266 83.6463 90.2266 83.8276 90.1812C83.8729 90.1812 83.9635 90.1812 84.0088 90.1812C84.1448 90.2266 84.2354 90.2266 84.3713 90.2266C84.4166 90.2266 84.462 90.2266 84.462 90.2719C84.6432 90.3172 84.8245 90.3625 85.0057 90.4078C85.051 90.4078 85.0963 90.4078 85.0963 90.4531C85.187 90.4984 85.2776 90.4984 85.3229 90.5437C85.3682 90.5437 85.3682 90.5437 85.4135 90.5891C85.4588 90.6344 85.5494 90.6344 85.5948 90.6344L85.6854 90.6797C86.3651 90.9516 86.9994 91.314 87.5885 91.7219C87.6338 91.7219 87.6338 91.7672 87.6791 91.7672C87.7244 91.7672 87.7244 91.8125 87.7697 91.8578C87.7697 91.8578 87.815 91.8578 87.815 91.9031C87.8604 91.9484 87.8604 91.9484 87.9057 91.9937C87.951 91.9937 87.951 92.039 87.9963 92.039C88.0416 92.039 88.0416 92.0844 88.0416 92.0844L88.0869 92.1297C88.1322 92.1297 88.1322 92.175 88.1322 92.175L88.1775 92.2203C88.2229 92.2203 88.2229 92.2656 88.2229 92.2656C88.2229 92.2656 88.2682 92.2656 88.2682 92.3109C88.3135 92.3562 88.3588 92.3562 88.3588 92.4015C88.4041 92.4015 88.4041 92.4469 88.4494 92.4469C88.4947 92.4469 88.4947 92.4922 88.4947 92.4922C88.4947 92.4922 88.54 92.4922 88.54 92.5375L88.5854 92.5828C88.5854 92.5828 88.6307 92.5828 88.6307 92.6281C88.676 92.6281 88.676 92.6734 88.676 92.6734C88.676 92.6734 88.7213 92.6734 88.7213 92.7187L88.7666 92.764L88.8119 92.8093C88.8572 92.8093 88.8572 92.8547 88.8572 92.8547L88.9025 92.9C88.9479 92.9453 88.9478 92.9453 88.9478 92.9906L88.9932 93.0812C89.1291 93.2625 89.3103 93.4437 89.4463 93.6703L89.5369 93.7609C89.5369 93.8062 89.5822 93.8062 89.5822 93.8515C89.6275 93.8968 89.6275 93.8968 89.6275 93.9421C89.6728 94.0328 89.7182 94.1234 89.7635 94.214C89.7635 94.2593 89.8088 94.2593 89.8088 94.3046C89.8088 94.35 89.8541 94.3953 89.8541 94.4406C89.8541 94.4859 89.8994 94.4859 89.8994 94.4859C89.8994 94.5312 89.9447 94.5312 89.9447 94.5765C89.9447 94.5765 89.99 94.6218 89.99 94.6671C89.99 94.7125 90.0353 94.7125 90.0353 94.7578L90.0807 94.8484C90.0807 94.8937 90.0807 94.8937 90.126 94.939C90.126 94.9843 90.1713 94.9843 90.1713 95.0296C90.1713 95.075 90.2166 95.1203 90.2166 95.1656C90.2166 95.2109 90.2619 95.2109 90.2619 95.2562C90.3072 95.3468 90.3072 95.4374 90.3525 95.5734C90.3525 95.6187 90.3978 95.664 90.3978 95.664C90.3978 95.7546 90.4431 95.7999 90.4885 95.8906C90.5338 95.9359 90.5338 95.9359 90.5338 95.9812C90.6697 96.3437 90.7603 96.7515 90.8056 97.1593V97.2952C90.7603 97.4765 90.8963 97.6124 90.9416 97.7484C90.9416 97.7937 90.9416 97.839 90.9869 97.8843C91.0322 98.7905 90.8963 99.6515 90.8963 100.558C90.8963 104.364 90.8963 108.215 90.8963 112.022C90.9869 112.475 90.9869 112.973 90.9869 113.426C90.9869 113.517 90.9869 113.562 90.9416 113.653C90.8963 113.789 90.851 113.925 90.851 114.061C90.851 114.106 90.851 114.151 90.8056 114.197C90.7603 114.333 90.715 114.514 90.6697 114.65C90.6697 114.695 90.6244 114.695 90.6244 114.74C90.6244 114.786 90.5791 114.831 90.5791 114.876C90.5791 114.922 90.5338 114.922 90.5338 114.967C90.4885 115.012 90.4885 115.058 90.4432 115.103L90.3978 115.194C90.3525 115.284 90.3072 115.375 90.2619 115.511C90.2166 115.556 90.2166 115.556 90.2166 115.601C90.2166 115.647 90.1713 115.647 90.1713 115.692L90.126 115.737C90.0353 115.918 89.8994 116.054 89.7635 116.145C89.7182 116.19 89.7182 116.19 89.6728 116.236C89.6275 116.281 89.5369 116.326 89.4916 116.372C89.4463 116.417 89.4463 116.417 89.401 116.462C89.3557 116.508 89.3557 116.508 89.3103 116.553C89.265 116.598 89.265 116.598 89.2197 116.643C88.9932 116.825 88.7213 116.915 88.4494 117.006C88.4041 117.006 88.3588 117.051 88.3588 117.051C88.2229 117.097 88.1322 117.097 87.9963 117.142C87.951 117.142 87.9057 117.142 87.8604 117.097C87.4526 117.097 87.0901 117.097 86.6822 117.097C86.6369 117.142 86.5463 117.142 86.501 117.142C86.0479 117.051 85.6401 116.87 85.2776 116.598C85.2323 116.598 85.2323 116.553 85.1869 116.553C85.1416 116.508 85.0963 116.508 85.051 116.462L84.9604 116.417L84.9151 116.372L84.8698 116.326L84.8245 116.281C84.8245 116.281 84.7791 116.281 84.7791 116.236C84.7338 116.236 84.7338 116.19 84.7338 116.19H84.6885C84.6432 116.145 84.6432 116.145 84.6432 116.1C84.5979 116.054 84.5979 116.054 84.5979 116.009C84.5526 115.964 84.5526 115.918 84.5073 115.873C84.462 115.828 84.462 115.828 84.4166 115.783C84.4166 115.737 84.3713 115.737 84.3713 115.692C84.326 115.647 84.326 115.647 84.326 115.601C84.0541 115.194 83.8729 114.695 83.8276 114.242C83.8276 114.197 83.7823 114.151 83.7823 114.106C83.7823 113.925 83.737 113.789 83.6917 113.653C83.6917 113.562 83.737 113.472 83.737 113.336V101.373C83.737 100.648 83.6917 99.9687 83.5104 99.2437C83.5104 99.1983 83.4651 99.153 83.4651 99.1077C83.4651 99.0624 83.4198 98.9265 83.4198 98.8359C83.4198 98.7905 83.3745 98.7905 83.3745 98.7452C83.3292 98.6999 83.3292 98.6546 83.2838 98.564L83.3745 98.4734C83.012 97.7484 82.4229 97.1593 81.6526 96.8874C81.6073 96.8874 81.6073 96.8421 81.562 96.8421C81.4714 96.7968 81.4261 96.7968 81.3354 96.7515C81.2901 96.7515 81.2901 96.7515 81.2448 96.7062C81.1542 96.6609 81.0182 96.6609 80.9276 96.6609C80.8823 96.6609 80.7917 96.6609 80.7464 96.6156C80.2932 96.5702 79.8401 96.5702 79.387 96.7062C79.3417 96.7062 79.2964 96.7515 79.2511 96.7515C79.1604 96.7515 79.0698 96.7968 78.9792 96.7968L78.8886 96.8421C78.7526 96.9327 78.5714 96.9781 78.4355 97.0234C78.3901 97.0687 78.3901 97.0687 78.3448 97.0687C78.2995 97.114 78.2089 97.1593 78.1636 97.2046C78.1183 97.2499 78.1183 97.2499 78.073 97.2499C77.7105 97.5218 77.4386 97.839 77.212 98.2015C77.212 98.2468 77.1667 98.2468 77.1667 98.2921C77.1667 98.3374 77.1214 98.3374 77.1214 98.3827L77.0761 98.428C77.0308 98.564 77.0308 98.6093 77.0308 98.6546C77.0308 98.6999 76.9855 98.6999 76.9855 98.7452C76.9855 98.7905 76.9402 98.8359 76.9402 98.8812C76.9402 98.9265 76.9402 98.9265 76.8948 98.9718C76.8948 99.0171 76.8495 99.1077 76.8495 99.153C76.8495 99.1983 76.8495 99.2437 76.8042 99.2437C76.8042 99.3343 76.7589 99.4249 76.7589 99.5155C76.7589 99.5608 76.7589 99.6062 76.7136 99.6515C76.6683 99.878 76.7136 100.15 76.6683 100.376C76.6683 100.467 76.623 100.558 76.5777 100.603V100.92V112.022V112.339C76.623 112.384 76.6683 112.429 76.6683 112.52C76.6683 112.611 76.6683 112.747 76.6683 112.883C76.6683 112.928 76.6683 113.019 76.623 113.064C76.5777 113.245 76.5777 113.381 76.5323 113.562C76.5323 113.608 76.487 113.653 76.487 113.698C76.3511 113.789 76.3964 113.925 76.3964 114.015C76.3964 114.061 76.3964 114.106 76.3964 114.151C76.3058 114.423 76.2152 114.65 76.1245 114.922C76.1245 114.967 76.0792 114.967 76.0792 115.012C76.0792 115.058 76.0339 115.058 76.0339 115.103L75.9886 115.148C75.9433 115.194 75.9433 115.239 75.898 115.284C75.898 115.329 75.8527 115.329 75.8527 115.375H75.898C75.898 115.375 75.898 115.375 75.8527 115.42C75.8527 115.465 75.8074 115.465 75.8074 115.511C75.8074 115.556 75.762 115.556 75.762 115.601C75.762 115.647 75.7167 115.647 75.7167 115.647L75.6714 115.692V115.737L75.6261 115.783L75.5808 115.828L75.5355 115.873L75.4902 115.918L75.4449 115.964C75.3995 116.009 75.3995 116.009 75.3995 116.009C75.3542 116.009 75.3542 116.009 75.3542 116.054C75.3542 116.1 75.3089 116.1 75.3089 116.1C75.2636 116.1 75.2636 116.145 75.2183 116.145C75.173 116.19 75.1277 116.19 75.1277 116.236C75.0824 116.236 75.0824 116.281 75.0824 116.281C75.0824 116.326 75.037 116.326 75.037 116.326C74.9917 116.372 74.9917 116.372 74.9464 116.372C74.9011 116.417 74.8558 116.417 74.8105 116.462L74.7199 116.508C74.5386 116.553 74.4027 116.643 74.2214 116.734C74.1761 116.734 74.1308 116.779 74.1308 116.779C74.0402 116.779 73.9496 116.734 73.8589 116.779C73.8136 116.779 73.7683 116.779 73.723 116.779C73.2699 116.825 72.8168 116.825 72.3636 116.779H72.273H72.2277C71.7746 116.734 71.3215 116.553 70.959 116.281L70.8683 116.236C70.8683 116.19 70.823 116.145 70.823 116.145L70.7777 116.1C70.5965 115.918 70.4152 115.737 70.2793 115.556C70.234 115.511 70.234 115.511 70.1887 115.465C70.1433 115.375 70.0527 115.239 70.0074 115.148C70.0074 115.103 69.9621 115.103 69.9621 115.058C69.9621 114.967 69.9168 114.922 69.8715 114.876L69.8262 114.786C69.8262 114.74 69.7809 114.695 69.7809 114.65C69.7809 114.604 69.7355 114.604 69.7355 114.559C69.6449 114.287 69.5996 114.015 69.509 113.744C69.509 113.698 69.509 113.653 69.4637 113.608C69.4637 113.472 69.4184 113.29 69.373 113.154C69.3277 112.973 69.373 112.837 69.4637 112.656C69.4637 112.52 69.4637 112.429 69.4637 112.294V100.83C69.4637 100.694 69.4637 100.603 69.4637 100.467C69.4637 100.422 69.4184 100.376 69.4184 100.286C69.373 99.8327 69.2824 99.3343 69.1465 98.9265C69.1465 98.8812 69.1012 98.8359 69.1012 98.7905C69.1012 98.7452 69.0559 98.6999 69.0105 98.6093C69.0105 98.564 68.9652 98.5187 68.9652 98.5187C68.6934 97.9749 68.2856 97.4765 67.7418 97.1593H67.6512C67.6059 97.114 67.5606 97.0687 67.4699 97.0687C67.4246 97.0687 67.4246 97.0687 67.3793 97.0234L67.2434 96.9781C67.1981 96.9781 67.1981 96.9327 67.1528 96.9327C67.1074 96.9327 67.0168 96.8874 66.9715 96.8874C66.9262 96.8874 66.8809 96.8874 66.8809 96.8421C66.7903 96.8421 66.6996 96.7968 66.609 96.7968C66.5637 96.7968 66.5184 96.7968 66.4731 96.7968C65.9746 96.7062 65.4762 96.7515 64.9778 96.8421C64.9325 96.8421 64.8871 96.8421 64.8871 96.8874C64.7965 96.8874 64.7512 96.9327 64.6606 96.9327L64.57 96.9781L64.434 97.0234C64.3887 97.0234 64.3887 97.0687 64.3434 97.0687C64.2981 97.0687 64.2075 97.1593 64.1168 97.1593C64.0715 97.2046 64.0715 97.2046 64.0262 97.2046C64.0262 97.2046 63.9809 97.2499 63.9356 97.2499C63.9356 97.2499 63.8903 97.2952 63.8903 97.2952C63.845 97.2952 63.7997 97.3406 63.7543 97.3406C63.7543 97.3859 63.709 97.3859 63.709 97.4312C63.709 97.4765 63.6637 97.4765 63.6637 97.4765C63.6184 97.5218 63.5731 97.5218 63.5731 97.5671C63.4372 97.6577 63.3465 97.7484 63.2559 97.839C63.2106 97.8843 63.2106 97.8843 63.1653 97.9296C63.1653 97.9749 63.12 97.9749 63.0747 98.0202L63.0294 98.0655C62.984 98.1109 62.9387 98.2015 62.8934 98.2921C62.8934 98.3374 62.8481 98.3374 62.8481 98.3827C62.8028 98.3827 62.8028 98.4734 62.7575 98.5187C62.7575 98.564 62.7122 98.564 62.7122 98.6093C62.6215 98.7452 62.5762 98.8812 62.5309 99.0624C62.5309 99.0624 62.5309 99.1077 62.4856 99.153C62.4856 99.2437 62.4856 99.3343 62.4403 99.4249C62.4403 99.4702 62.4403 99.5155 62.395 99.5608C62.3044 100.286 62.2137 101.011 62.2137 101.691C62.2137 105.134 62.2137 108.578 62.2137 112.022C62.3044 112.611 62.3044 113.2 62.2137 113.789C62.2137 113.879 62.2137 113.97 62.1684 114.015C62.1684 114.061 62.1231 114.106 62.1231 114.151C62.1231 114.242 62.0778 114.333 62.0325 114.423C62.0325 114.469 61.9872 114.514 61.9872 114.514C61.9872 114.604 61.9419 114.65 61.9419 114.74C61.9419 114.786 61.9419 114.831 61.8966 114.831C61.8512 114.922 61.8059 115.012 61.7606 115.103C61.7606 115.148 61.7153 115.194 61.7153 115.194C61.67 115.329 61.5794 115.465 61.5341 115.556C61.5341 115.601 61.4887 115.601 61.4887 115.647C61.4887 115.692 61.3981 115.737 61.3981 115.737L61.3528 115.783C61.1262 116.054 60.8997 116.281 60.6278 116.462C60.6278 116.508 60.5825 116.508 60.5372 116.553L60.4013 116.598C60.3559 116.643 60.3559 116.643 60.3106 116.689C60.1294 116.779 59.9481 116.825 59.7669 116.915C59.7216 116.915 59.6763 116.915 59.6763 116.961C59.5856 116.961 59.495 116.961 59.3591 117.006C59.3138 117.006 59.2231 117.006 59.1778 117.006H58.0903C58.045 117.006 57.9544 117.051 57.9091 117.051C57.8185 117.051 57.7278 117.006 57.5919 117.006C57.5466 117.006 57.5013 117.006 57.5013 116.961C57.1841 116.825 56.8669 116.689 56.595 116.508C56.5497 116.508 56.5497 116.462 56.5044 116.462C56.4591 116.462 56.4591 116.417 56.4138 116.372V116.281C56.3685 116.236 56.3685 116.236 56.3232 116.19C56.3232 116.19 56.3232 116.145 56.2779 116.145L56.2325 116.1V116.054C56.1872 116.054 56.1872 116.009 56.1419 116.009C56.0966 116.009 56.1419 116.009 56.0966 115.964C56.0966 115.964 56.0513 115.918 56.006 115.873C56.006 115.873 56.006 115.828 55.9607 115.828C56.006 115.828 55.9607 115.783 55.9607 115.783C55.9607 115.783 55.9607 115.737 55.9154 115.737C55.7341 115.511 55.5982 115.239 55.4622 114.967C55.4169 114.967 55.4169 114.922 55.4169 114.876C55.3263 114.65 55.2357 114.423 55.1904 114.197C55.1904 114.151 55.1451 114.151 55.1451 114.106C55.1451 114.015 55.0997 113.879 55.0997 113.789C55.0997 113.744 55.0997 113.653 55.0997 113.608C55.1904 113.381 55.0544 113.154 55.0997 112.928C55.0997 111.387 55.0997 109.847 55.0997 108.351V98.3827C55.0997 98.2468 55.0997 98.0655 55.0544 97.9296C55.0091 97.839 55.0091 97.7484 55.0091 97.703C55.0091 97.5671 54.9638 97.3859 54.8732 97.2499C54.8732 97.2046 54.8279 97.2046 54.8279 97.1593C54.8279 97.114 54.7826 97.114 54.7372 97.0687C54.6919 97.0687 54.6919 97.0234 54.6919 97.0234C54.6919 97.0234 54.6466 97.0234 54.6466 96.9781C54.6013 96.9327 54.556 96.8874 54.5107 96.8874L54.4201 96.8421C54.3294 96.8421 54.2841 96.8421 54.1935 96.8421H53.9669C53.8763 96.8421 53.7857 96.8421 53.7404 96.8874C53.6951 96.8874 53.6498 96.9327 53.6044 96.9327C53.4232 97.0687 53.2419 97.2952 53.1513 97.5218C53.1513 97.5671 53.106 97.5671 53.106 97.6124C53.106 97.6577 53.106 97.703 53.0607 97.7937C53.0607 97.839 53.0154 97.839 53.0154 97.8843C53.0154 97.8843 52.9701 97.9296 52.9701 98.0202C52.9701 98.0655 52.9248 98.0655 52.9248 98.1109C52.8795 98.2015 52.8795 98.2468 52.8341 98.3374C52.8341 98.3827 52.7888 98.3827 52.7888 98.428C52.7435 98.4734 52.7435 98.5187 52.6982 98.564C52.6982 98.6093 52.6529 98.6093 52.6529 98.6546C52.6529 98.6999 52.6076 98.7452 52.6076 98.7905L52.5623 98.9265C52.517 99.0171 52.4716 99.1983 52.4263 99.3343C52.4263 99.3796 52.4263 99.4249 52.381 99.4249C52.3357 99.4702 52.3357 99.5155 52.2904 99.5608C52.2904 99.6062 52.2451 99.6062 52.2451 99.6515C52.2451 99.7421 52.1998 99.7874 52.1545 99.878L52.1091 99.9687C52.1091 100.014 52.0638 100.059 52.0638 100.105C52.0638 100.15 52.0185 100.15 52.0185 100.195C52.0185 100.241 51.9732 100.331 51.9732 100.376L51.9279 100.467C51.8373 100.603 51.792 100.739 51.7467 100.92C51.7467 100.966 51.7013 100.966 51.7013 101.011C51.6107 101.147 51.5654 101.328 51.5201 101.464C51.5201 101.509 51.4748 101.509 51.4748 101.555C51.4748 101.6 51.4295 101.645 51.4295 101.691C51.3842 101.736 51.3842 101.736 51.3388 101.781C51.3388 101.826 51.2935 101.826 51.2935 101.872C51.2935 101.917 51.2482 101.917 51.2482 101.962C51.2482 102.008 51.2029 102.008 51.2029 102.053C51.2029 102.098 51.2029 102.098 51.1576 102.144C51.1576 102.189 51.1123 102.234 51.1123 102.28C51.1123 102.325 51.1123 102.325 51.067 102.37C51.067 102.416 51.0217 102.506 51.0217 102.551C51.0217 102.597 50.9763 102.642 50.9763 102.642C50.931 102.733 50.8857 102.869 50.8404 103.005C50.8404 103.05 50.7951 103.095 50.7951 103.095C50.7498 103.14 50.7045 103.186 50.7045 103.231C50.7045 103.276 50.6592 103.276 50.6592 103.322C50.5685 103.548 50.5232 103.775 50.4326 103.956C50.4326 104.001 50.3873 104.001 50.3873 104.047C50.3873 104.092 50.342 104.137 50.342 104.183L50.2514 104.319C50.206 104.409 50.1607 104.5 50.1154 104.636C50.1154 104.681 50.0701 104.681 50.0701 104.726C50.0701 104.772 50.0248 104.817 50.0248 104.817C50.0248 104.862 49.9795 104.862 49.9795 104.908L49.7982 105.315C49.7982 105.361 49.7529 105.361 49.7529 105.406C49.7529 105.451 49.7076 105.542 49.7076 105.587C49.7076 105.633 49.6623 105.678 49.6623 105.678C49.5717 105.905 49.481 106.086 49.3904 106.312C49.3904 106.358 49.3451 106.358 49.3451 106.403C49.3451 106.448 49.2998 106.494 49.2545 106.539C49.2545 106.584 49.2092 106.584 49.2092 106.63C49.1639 106.72 49.1639 106.856 49.1186 106.947C49.1186 106.992 49.0732 106.992 49.0732 107.037C48.9373 107.355 48.8014 107.626 48.7107 107.944C48.7107 107.989 48.6654 108.034 48.6654 108.034C48.5748 108.215 48.4842 108.442 48.3936 108.623C48.3936 108.669 48.3482 108.669 48.3482 108.714C48.3482 108.759 48.3029 108.805 48.3029 108.85C48.2576 108.94 48.2576 108.94 48.2123 108.986C48.167 109.122 48.1217 109.303 48.0311 109.484C48.0311 109.529 47.9858 109.529 47.9858 109.575C47.9404 109.711 47.8498 109.847 47.8045 109.983C47.8045 110.028 47.7592 110.073 47.7592 110.073C47.7139 110.119 47.7139 110.209 47.6686 110.254C47.6686 110.3 47.6233 110.345 47.6233 110.345C47.5779 110.481 47.5326 110.617 47.4873 110.753C47.4873 110.798 47.442 110.798 47.442 110.844C47.442 110.889 47.3967 110.934 47.3514 110.979C47.3514 111.025 47.3514 111.07 47.3061 111.07C47.2608 111.297 47.2154 111.433 47.1248 111.569C47.1248 111.614 47.0795 111.659 47.0795 111.659C47.0795 111.704 47.0342 111.75 47.0342 111.795C47.0342 111.84 46.9889 111.886 46.9889 111.886C46.853 112.158 46.7623 112.339 46.717 112.565C46.6717 112.611 46.6717 112.656 46.6264 112.701C46.5358 112.883 46.4451 113.109 46.3545 113.336C46.3545 113.381 46.3092 113.381 46.3092 113.426C46.2186 113.653 46.128 113.879 45.992 114.061C45.992 114.106 45.9467 114.106 45.9467 114.151C45.9467 114.197 45.9014 114.242 45.8561 114.287C45.8561 114.333 45.8108 114.333 45.8108 114.378C45.8108 114.423 45.7655 114.423 45.7655 114.469H45.7201C45.6748 114.514 45.6748 114.559 45.6295 114.604C45.6295 114.65 45.5842 114.65 45.5842 114.695L45.5389 114.831L45.4936 114.876C45.4936 114.922 45.4483 114.922 45.4483 114.967L45.3577 115.012C45.3577 115.058 45.3123 115.103 45.3123 115.148C45.3123 115.194 45.267 115.194 45.267 115.239C45.1311 115.375 45.0405 115.465 44.9498 115.601C44.9498 115.647 44.9045 115.647 44.9045 115.692L44.8139 115.783L44.7686 115.828L44.7233 115.873C44.678 115.873 44.678 115.918 44.6327 115.918C44.5873 116.009 44.4967 116.054 44.4514 116.1L44.3608 116.19L44.3155 116.236L44.2249 116.326C44.1342 116.372 44.0436 116.417 43.953 116.462C43.9077 116.462 43.9077 116.508 43.8624 116.508L43.7264 116.598C43.6811 116.598 43.6811 116.643 43.6358 116.643L43.5452 116.689C43.4999 116.734 43.4999 116.734 43.4545 116.734L43.3186 116.779C43.2733 116.779 43.228 116.825 43.228 116.825C43.1374 116.825 43.0467 116.87 42.9561 116.915H42.8655C42.7296 116.961 42.6389 116.961 42.503 116.961H42.3671C41.9139 116.961 41.4608 116.961 41.0077 116.915C40.9624 116.915 40.9171 116.915 40.8718 116.915C40.7811 116.825 40.5999 116.915 40.5093 116.825H40.464H40.4186C40.1921 116.779 39.8749 116.825 39.739 116.553C39.603 116.508 39.4218 116.462 39.3311 116.281C39.2858 116.236 39.1952 116.236 39.1499 116.19C38.9233 116.145 38.7421 115.964 38.6515 115.737C38.6062 115.737 38.5608 115.692 38.5608 115.647C38.289 115.42 38.0624 115.148 37.9718 114.831C37.9265 114.786 37.8812 114.786 37.8812 114.74C37.7905 114.695 37.8359 114.604 37.7452 114.559C37.7452 114.514 37.6999 114.514 37.6999 114.469C37.3827 114.061 37.1562 113.608 37.0202 113.109C36.9749 113.064 36.9749 113.019 36.9296 112.928C36.7484 112.792 36.7484 112.565 36.703 112.384C36.6124 112.339 36.6124 112.248 36.6124 112.203V112.158H36.5671C36.3859 112.022 36.4312 111.75 36.3406 111.614C36.114 111.387 36.0234 111.115 35.9781 110.798C35.9327 110.753 35.9781 110.662 35.8874 110.617C35.8421 110.572 35.8421 110.481 35.8421 110.436C35.7515 110.3 35.6609 110.209 35.6609 110.073C35.5702 109.983 35.6156 109.892 35.5702 109.847" fill="white"/>
<path fill-rule="evenodd" clip-rule="evenodd" d="M112.237 93.4457C112.237 93.491 112.237 93.491 112.237 93.5363C112.282 93.5816 112.327 93.6269 112.373 93.7175C112.373 93.7629 112.418 93.8082 112.418 93.8082L112.599 94.3972C112.599 94.4425 112.644 94.4425 112.644 94.4879C112.644 94.5785 112.69 94.6238 112.69 94.7144C112.735 94.7597 112.735 94.7597 112.735 94.805C112.78 94.941 112.826 95.0769 112.826 95.1675C112.826 95.2128 112.871 95.2582 112.871 95.2582C112.871 95.3035 112.916 95.3941 112.916 95.4394C112.962 95.4847 112.962 95.4847 112.962 95.53C113.007 95.5753 113.007 95.6207 113.007 95.666C113.007 95.7113 113.007 95.7113 113.052 95.7566C113.052 95.8019 113.098 95.8925 113.098 95.9378C113.098 95.9831 113.098 95.9831 113.098 96.0285C113.098 96.0738 113.143 96.1644 113.143 96.2097C113.143 96.255 113.143 96.255 113.188 96.3003L113.234 96.4816V96.5722C113.234 96.6175 113.234 96.7081 113.279 96.7535C113.324 96.7535 113.324 96.7988 113.324 96.8441C113.369 96.8894 113.369 96.9347 113.369 96.98C113.369 97.0253 113.415 97.0253 113.415 97.0706C113.415 97.116 113.46 97.2066 113.46 97.2519C113.46 97.2972 113.505 97.2972 113.505 97.3425C113.551 97.3878 113.551 97.4784 113.596 97.5238C113.596 97.5691 113.641 97.6144 113.641 97.6144C113.732 97.8863 113.823 98.2034 113.913 98.4753C113.913 98.5206 113.959 98.5659 113.959 98.5659C114.004 98.7925 114.094 99.0191 114.185 99.2456C114.185 99.2909 114.185 99.3362 114.23 99.3362L114.276 99.5175C114.276 99.5628 114.321 99.6081 114.321 99.6534C114.412 99.9706 114.502 100.242 114.593 100.56C114.593 100.605 114.638 100.65 114.638 100.696C114.729 101.013 114.865 101.285 114.91 101.557C114.91 101.602 114.955 101.647 114.955 101.647C115.001 101.692 115.001 101.783 115.046 101.874C115.091 101.919 115.046 101.919 115.091 101.964C115.091 102.01 115.137 102.1 115.182 102.191C115.182 102.236 115.227 102.236 115.227 102.282C115.273 102.463 115.318 102.689 115.409 102.871L115.454 102.961C115.499 103.097 115.544 103.233 115.59 103.369C115.59 103.414 115.635 103.414 115.635 103.46C115.635 103.505 115.68 103.596 115.68 103.641C115.68 103.686 115.726 103.686 115.726 103.732C115.771 103.777 115.771 103.822 115.771 103.867C115.771 103.913 115.816 103.913 115.816 103.958C115.816 104.003 115.862 104.094 115.862 104.139C115.862 104.185 115.907 104.185 115.907 104.23C115.952 104.366 115.998 104.457 116.043 104.592C116.043 104.638 116.088 104.638 116.088 104.683C116.088 104.774 116.134 104.819 116.134 104.91C116.134 104.955 116.179 105 116.179 105C116.224 105.136 116.224 105.227 116.269 105.317C116.269 105.363 116.315 105.363 116.315 105.408C116.315 105.453 116.36 105.544 116.36 105.589C116.36 105.635 116.36 105.635 116.405 105.68C116.405 105.725 116.451 105.816 116.451 105.861C116.451 105.906 116.496 105.906 116.496 105.952C116.541 106.088 116.587 106.178 116.632 106.314C116.632 106.36 116.632 106.405 116.632 106.45C116.587 106.496 116.587 106.586 116.632 106.677V106.722C116.677 106.767 116.723 106.858 116.768 106.903C116.768 106.949 116.813 106.949 116.813 106.994C116.859 107.221 116.949 107.402 116.994 107.628C116.994 107.674 116.994 107.719 117.04 107.719C117.085 107.946 117.176 108.172 117.266 108.399C117.312 108.444 117.312 108.489 117.312 108.489C117.312 108.58 117.357 108.625 117.357 108.716C117.357 108.761 117.402 108.806 117.402 108.852C117.538 109.169 117.629 109.531 117.765 109.849C117.81 110.03 117.855 109.939 117.901 109.849C117.901 109.803 117.946 109.803 117.946 109.758C117.991 109.713 117.991 109.622 118.037 109.577C118.037 109.531 118.037 109.531 118.082 109.486C118.082 109.441 118.127 109.396 118.127 109.35C118.127 109.305 118.127 109.26 118.173 109.26C118.173 109.214 118.218 109.169 118.218 109.124C118.218 109.078 118.218 109.078 118.263 109.033C118.263 108.988 118.308 108.897 118.308 108.852C118.308 108.806 118.308 108.761 118.354 108.761C118.354 108.716 118.399 108.671 118.399 108.625C118.399 108.58 118.444 108.58 118.444 108.535C118.444 108.489 118.49 108.399 118.49 108.308L118.535 108.217C118.762 107.447 119.033 106.631 119.305 105.861C119.305 105.816 119.351 105.771 119.351 105.771L119.441 105.544C119.441 105.499 119.487 105.499 119.532 105.499C119.532 105.453 119.532 105.363 119.532 105.317C119.532 105.272 119.532 105.227 119.577 105.227C119.577 105.181 119.623 105.091 119.623 105.046C119.623 105 119.668 104.955 119.668 104.955C119.713 104.819 119.758 104.683 119.849 104.592C119.894 104.547 119.894 104.457 119.894 104.366C119.894 104.321 119.894 104.275 119.894 104.23C119.985 104.003 120.03 103.822 120.076 103.596C120.076 103.55 120.121 103.505 120.121 103.505C120.166 103.46 120.166 103.369 120.166 103.278C120.166 103.233 120.166 103.188 120.212 103.188C120.257 103.007 120.348 102.78 120.438 102.599C120.438 102.553 120.483 102.508 120.483 102.508C120.529 102.463 120.529 102.372 120.574 102.282C120.574 102.236 120.574 102.191 120.619 102.146C120.665 101.964 120.755 101.738 120.801 101.557C120.801 101.511 120.846 101.511 120.846 101.466C120.891 101.421 120.891 101.33 120.937 101.239C120.937 101.194 120.982 101.149 120.982 101.149C121.073 100.967 121.118 100.741 121.163 100.56C121.163 100.514 121.208 100.469 121.208 100.469C121.208 100.378 121.254 100.333 121.254 100.242L121.299 100.107C121.39 99.8347 121.48 99.5628 121.571 99.2456C121.571 99.2003 121.616 99.155 121.616 99.155C121.616 99.1097 121.662 99.0644 121.707 99.0191C121.707 98.9737 121.752 98.9737 121.752 98.9284C121.798 98.8831 121.798 98.7925 121.798 98.7472C121.798 98.7019 121.798 98.7019 121.843 98.6566C121.888 98.6112 121.888 98.5206 121.888 98.4753C121.888 98.43 121.933 98.43 121.933 98.3847C121.933 98.3394 121.979 98.2488 121.979 98.2034C121.979 98.1581 121.979 98.1581 122.024 98.1128C122.069 97.9769 122.115 97.8863 122.115 97.7503C122.115 97.705 122.16 97.705 122.16 97.6597C122.205 97.6144 122.205 97.5238 122.205 97.4784C122.205 97.4331 122.205 97.4331 122.251 97.3878C122.296 97.3425 122.296 97.2519 122.296 97.2066C122.296 97.1613 122.341 97.116 122.341 97.116C122.387 97.0253 122.432 96.9347 122.432 96.7988C122.432 96.7535 122.432 96.7535 122.477 96.7081C122.523 96.6628 122.523 96.5722 122.523 96.5269C122.523 96.4816 122.523 96.4816 122.568 96.4363C122.568 96.391 122.613 96.3003 122.613 96.255C122.613 96.2097 122.613 96.2097 122.658 96.1644C122.704 96.1191 122.704 96.0285 122.704 95.9831L122.749 95.8925C122.794 95.7566 122.84 95.6207 122.885 95.4847C122.885 95.4394 122.93 95.3941 122.93 95.3941C123.021 95.1222 123.157 94.8503 123.202 94.5785C123.202 94.5332 123.248 94.4879 123.248 94.4879C123.293 94.3972 123.293 94.3519 123.293 94.2613C123.293 94.216 123.293 94.1707 123.338 94.1707C123.383 94.0347 123.429 93.8988 123.474 93.8082C123.474 93.7629 123.474 93.7175 123.519 93.7175C123.565 93.6722 123.565 93.5816 123.61 93.5363C123.61 93.491 123.61 93.491 123.655 93.4457C123.655 93.4004 123.701 93.355 123.701 93.3097C123.701 93.2644 123.746 93.2191 123.746 93.2191C123.837 93.0379 123.882 92.8113 123.927 92.6301C123.927 92.5847 123.972 92.5394 123.972 92.5394C124.018 92.4488 124.018 92.4035 124.018 92.3129C124.018 92.2676 124.018 92.2222 124.063 92.1769C124.108 92.041 124.154 91.9051 124.244 91.7691C124.244 91.7238 124.29 91.7238 124.29 91.6785L124.38 91.5426C124.38 91.4973 124.426 91.4973 124.426 91.4519C124.516 91.3613 124.562 91.2707 124.607 91.2254C124.652 91.2254 124.652 91.1801 124.697 91.1801C124.697 91.1348 124.743 91.1348 124.788 91.1348C124.833 91.1348 124.833 91.0894 124.879 91.0894C124.924 91.0441 124.969 91.0441 125.015 90.9988C125.06 90.9988 125.06 90.9535 125.105 90.9535C125.287 90.8629 125.468 90.8176 125.649 90.8176C125.83 90.8629 125.966 90.7723 126.102 90.8176C126.283 90.8629 126.465 90.9082 126.601 90.9988C126.646 90.9988 126.646 91.0441 126.691 91.0441C127.054 91.2707 127.371 91.6332 127.507 92.041C127.507 92.0863 127.552 92.1316 127.552 92.1769C127.552 92.2676 127.597 92.3582 127.643 92.4941C127.688 92.6301 127.688 92.8113 127.643 92.9472C127.552 93.3097 127.462 93.6722 127.326 94.0347C127.326 94.08 127.326 94.1254 127.28 94.1707C127.235 94.2613 127.235 94.3066 127.19 94.3972C127.19 94.4425 127.19 94.4879 127.144 94.5332C127.099 94.7144 127.008 94.941 126.918 95.1222C126.918 95.1675 126.872 95.2128 126.872 95.2128C126.782 95.3941 126.737 95.6207 126.691 95.8019L126.646 95.8925C126.601 95.9378 126.555 96.0285 126.555 96.0738C126.555 96.1191 126.555 96.1644 126.555 96.2097C126.51 96.391 126.465 96.5722 126.374 96.7535C126.374 96.7988 126.329 96.7988 126.329 96.8441C126.283 96.8894 126.283 96.98 126.283 97.0253C126.283 97.0706 126.238 97.0706 126.238 97.116C126.193 97.1613 126.193 97.2519 126.193 97.2972C126.193 97.3425 126.193 97.3425 126.147 97.3878C126.147 97.4331 126.102 97.4784 126.102 97.5238C126.102 97.5691 126.102 97.5691 126.102 97.6144C126.057 97.6597 126.057 97.7503 126.057 97.7956C126.057 97.8409 126.057 97.8409 126.012 97.8863C126.012 97.9316 125.966 97.9769 125.921 98.0222L125.876 98.1128C125.876 98.2034 125.83 98.2488 125.83 98.2941C125.83 98.3394 125.83 98.3847 125.785 98.3847C125.694 98.5659 125.649 98.7925 125.604 98.9737C125.604 99.0191 125.558 99.0644 125.558 99.0644C125.468 99.3362 125.377 99.6081 125.287 99.88C125.287 99.9253 125.241 99.9253 125.241 99.9706C125.196 100.016 125.196 100.107 125.151 100.197C125.151 100.242 125.151 100.242 125.105 100.288C125.06 100.378 125.015 100.514 125.015 100.65C125.015 100.696 125.015 100.741 124.969 100.741C124.969 100.786 124.924 100.877 124.879 100.922C124.879 100.967 124.879 101.013 124.833 101.013C124.788 101.058 124.788 101.103 124.788 101.149C124.788 101.194 124.743 101.194 124.743 101.239C124.697 101.375 124.652 101.466 124.652 101.602C124.652 101.647 124.652 101.647 124.607 101.692C124.562 101.783 124.562 101.828 124.562 101.919C124.562 101.964 124.516 102.01 124.516 102.01C124.29 102.055 124.199 102.236 124.154 102.417C124.154 102.463 124.108 102.508 124.108 102.508C124.063 102.599 124.063 102.644 124.063 102.735C124.063 102.78 124.063 102.825 124.018 102.871C123.927 103.142 123.837 103.369 123.746 103.641L123.701 103.732C123.655 103.777 123.655 103.867 123.61 103.958C123.61 104.003 123.565 104.049 123.565 104.049C123.519 104.139 123.474 104.275 123.429 104.366C123.429 104.411 123.429 104.411 123.383 104.457C123.338 104.502 123.338 104.592 123.293 104.638C123.293 104.683 123.293 104.683 123.248 104.728C123.248 104.774 123.202 104.819 123.202 104.864C123.202 104.91 123.202 104.91 123.157 104.955C123.112 105 123.112 105.046 123.112 105.091C123.112 105.136 123.066 105.136 123.066 105.181C123.066 105.227 123.021 105.272 123.021 105.317C123.021 105.363 123.021 105.363 123.021 105.408C122.976 105.453 122.976 105.544 122.976 105.589C122.976 105.635 122.976 105.635 122.93 105.68C122.885 105.725 122.885 105.816 122.885 105.861C122.885 105.906 122.885 105.906 122.84 105.952C122.794 106.042 122.794 106.178 122.749 106.269C122.749 106.314 122.704 106.314 122.704 106.36C122.658 106.405 122.658 106.496 122.658 106.541C122.658 106.586 122.658 106.586 122.613 106.631C122.613 106.677 122.568 106.767 122.568 106.813C122.568 106.858 122.568 106.858 122.523 106.903C122.477 106.994 122.432 107.13 122.387 107.221C122.387 107.266 122.341 107.266 122.341 107.311C122.296 107.402 122.296 107.447 122.296 107.538C122.296 107.583 122.251 107.628 122.251 107.674C122.16 107.946 122.069 108.217 121.979 108.535C121.979 108.58 121.933 108.58 121.933 108.625C121.888 108.761 121.843 108.897 121.798 108.988C121.798 109.033 121.752 109.033 121.752 109.078C121.707 109.124 121.707 109.214 121.707 109.26C121.707 109.305 121.707 109.305 121.662 109.35C121.662 109.396 121.616 109.441 121.616 109.486C121.616 109.531 121.571 109.531 121.571 109.577C121.48 109.758 121.435 109.985 121.39 110.166C121.39 110.211 121.39 110.211 121.344 110.256C121.299 110.302 121.299 110.347 121.254 110.392C121.254 110.438 121.208 110.438 121.208 110.483C121.163 110.528 121.163 110.619 121.163 110.664C121.163 110.71 121.163 110.755 121.118 110.755C121.073 110.891 121.027 110.981 121.027 111.117L120.982 111.208C120.937 111.253 120.937 111.344 120.891 111.435C120.891 111.48 120.891 111.525 120.846 111.525C120.755 111.797 120.665 112.069 120.574 112.341C120.574 112.386 120.574 112.431 120.529 112.477C120.438 112.658 120.348 112.839 120.302 113.066C120.302 113.111 120.257 113.111 120.257 113.156C120.212 113.202 120.212 113.292 120.166 113.338C120.166 113.383 120.166 113.383 120.121 113.428C120.076 113.474 120.076 113.564 120.076 113.61C120.076 113.655 120.03 113.655 120.03 113.7C119.985 113.791 119.94 113.881 119.94 114.017C119.94 114.063 119.894 114.108 119.894 114.153C119.849 114.199 119.849 114.289 119.849 114.38C119.849 114.425 119.849 114.47 119.804 114.47C119.758 114.652 119.668 114.833 119.623 115.06C119.623 115.105 119.577 115.15 119.577 115.15C119.577 115.195 119.532 115.195 119.532 115.241C119.532 115.241 119.532 115.286 119.487 115.286C119.305 115.694 118.988 116.056 118.58 116.283C118.535 116.283 118.535 116.328 118.49 116.328C118.444 116.374 118.354 116.374 118.263 116.419C118.218 116.419 118.173 116.464 118.173 116.464C118.082 116.464 117.946 116.51 117.855 116.555C117.765 116.6 117.629 116.6 117.493 116.6C117.357 116.555 117.221 116.51 117.04 116.51C116.994 116.51 116.949 116.51 116.949 116.464C116.904 116.419 116.813 116.419 116.723 116.374C116.677 116.374 116.677 116.328 116.632 116.328C116.36 116.147 116.134 115.92 115.907 115.649C115.907 115.603 115.862 115.558 115.862 115.558C115.726 115.241 115.59 114.924 115.499 114.606C115.499 114.561 115.454 114.561 115.454 114.516C115.409 114.38 115.363 114.244 115.318 114.153C115.318 114.108 115.273 114.108 115.273 114.063C115.273 114.017 115.227 113.927 115.227 113.836C115.227 113.791 115.182 113.791 115.182 113.745C115.137 113.7 115.137 113.655 115.137 113.61C115.091 113.564 115.091 113.564 115.091 113.519C115.046 113.292 114.955 113.111 114.91 112.885L114.865 112.794C114.865 112.703 114.819 112.658 114.819 112.567C114.819 112.522 114.774 112.522 114.774 112.477C114.729 112.25 114.638 112.069 114.548 111.888C114.548 111.842 114.502 111.797 114.502 111.797C114.457 111.752 114.457 111.661 114.412 111.57C114.412 111.525 114.366 111.48 114.366 111.48C114.321 111.299 114.276 111.117 114.185 110.891C114.185 110.846 114.14 110.846 114.14 110.8C114.14 110.71 114.094 110.664 114.094 110.574C114.094 110.528 114.094 110.528 114.049 110.483C114.049 110.438 114.004 110.347 114.004 110.302L114.185 110.347C114.14 110.211 114.094 110.121 114.049 110.03C114.049 109.985 114.049 109.985 114.004 109.939C114.004 109.894 113.959 109.803 113.959 109.758C113.959 109.713 113.959 109.713 113.913 109.667C113.913 109.622 113.868 109.531 113.868 109.486C113.868 109.441 113.823 109.441 113.823 109.396C113.823 109.35 113.777 109.26 113.777 109.214C113.777 109.169 113.777 109.169 113.732 109.124C113.732 109.078 113.687 109.033 113.687 108.988C113.687 108.942 113.641 108.942 113.641 108.897L113.596 108.716C113.596 108.671 113.551 108.671 113.551 108.625C113.551 108.308 113.46 108.127 113.369 107.946C113.369 107.9 113.324 107.855 113.324 107.855C113.324 107.764 113.279 107.719 113.279 107.628C113.279 107.583 113.234 107.583 113.234 107.538C113.188 107.311 113.098 107.13 113.052 106.949C113.052 106.903 113.052 106.903 113.007 106.858C112.962 106.767 112.962 106.722 112.962 106.631C112.962 106.586 112.916 106.541 112.916 106.541C112.871 106.36 112.78 106.133 112.69 105.952C112.69 105.906 112.69 105.861 112.644 105.861C112.644 105.771 112.599 105.725 112.599 105.635C112.599 105.589 112.554 105.589 112.554 105.544C112.509 105.363 112.418 105.136 112.373 104.955C112.373 104.91 112.327 104.91 112.327 104.864L112.282 104.683C112.282 104.638 112.237 104.638 112.237 104.592C112.237 104.547 112.191 104.457 112.191 104.411C112.191 104.366 112.146 104.366 112.146 104.321C112.101 104.185 112.055 104.094 112.01 104.003C112.01 103.958 111.965 103.958 111.965 103.913C111.965 103.867 111.919 103.777 111.874 103.686C111.874 103.641 111.829 103.641 111.829 103.596C111.784 103.414 111.693 103.188 111.648 103.007C111.648 102.961 111.602 102.961 111.602 102.916C111.602 102.825 111.557 102.78 111.557 102.689C111.557 102.644 111.512 102.644 111.512 102.599C111.466 102.417 111.376 102.191 111.33 102.01C111.33 101.964 111.285 101.919 111.285 101.919C111.285 101.874 111.24 101.783 111.24 101.692L111.194 101.602C111.194 101.557 111.149 101.466 111.149 101.421L111.104 101.33C111.059 101.239 111.059 101.103 111.013 101.013C111.013 100.967 110.968 100.967 110.968 100.922C110.968 100.832 110.923 100.786 110.877 100.696C110.877 100.65 110.832 100.605 110.832 100.605C110.787 100.424 110.696 100.197 110.605 100.016C110.605 99.9706 110.56 99.9253 110.56 99.88C110.56 99.8347 110.515 99.7441 110.515 99.6534C110.515 99.6081 110.47 99.5628 110.47 99.5628C110.424 99.3816 110.334 99.155 110.288 98.9737C110.288 98.9284 110.243 98.9284 110.243 98.8831C110.243 98.7925 110.198 98.7472 110.198 98.7019C110.198 98.6566 110.152 98.6112 110.152 98.6112C110.152 98.5659 110.107 98.4753 110.107 98.43C110.107 98.3847 110.062 98.3847 110.062 98.3394C110.016 98.2034 109.971 98.1128 109.926 97.9769C109.926 97.9316 109.88 97.8863 109.88 97.8863C109.835 97.7503 109.79 97.6144 109.745 97.4784C109.654 97.6597 109.609 97.8409 109.563 98.0222C109.563 98.0675 109.518 98.0675 109.518 98.1128C109.473 98.2034 109.473 98.2488 109.427 98.3394C109.427 98.3847 109.427 98.3847 109.382 98.43C109.291 98.6112 109.291 98.8378 109.201 99.0191C109.201 99.0644 109.155 99.0644 109.155 99.1097C109.11 99.155 109.11 99.2456 109.065 99.3362C109.065 99.3816 109.065 99.4269 109.02 99.4269C108.974 99.6081 108.884 99.8347 108.838 100.016L108.793 100.107C108.748 100.152 108.748 100.242 108.748 100.333C108.748 100.378 108.702 100.378 108.702 100.424C108.657 100.56 108.612 100.65 108.566 100.786C108.566 100.832 108.521 100.832 108.521 100.877C108.476 100.922 108.476 101.013 108.43 101.103C108.43 101.149 108.43 101.194 108.385 101.194C108.34 101.375 108.249 101.602 108.204 101.783C108.204 101.828 108.159 101.874 108.159 101.919C108.113 101.964 108.068 102.055 108.023 102.1H107.977V102.146C107.932 102.236 107.932 102.282 107.977 102.372C107.977 102.417 107.977 102.417 107.932 102.463C107.887 102.553 107.841 102.689 107.796 102.825L107.751 102.916C107.705 102.961 107.705 103.052 107.705 103.142C107.705 103.188 107.705 103.233 107.66 103.233C107.887 103.188 107.796 103.369 107.751 103.596C107.751 103.641 107.705 103.686 107.705 103.732C107.66 103.777 107.66 103.867 107.615 103.958C107.615 104.003 107.57 104.003 107.57 104.049C107.479 104.321 107.388 104.592 107.298 104.864C107.298 104.91 107.252 104.91 107.252 104.955C107.207 105 107.207 105.091 107.207 105.181C107.207 105.227 107.207 105.272 107.162 105.272C107.116 105.453 107.026 105.68 106.98 105.861C106.98 105.906 106.935 105.906 106.935 105.952C106.89 105.997 106.89 106.088 106.89 106.178C106.89 106.224 106.845 106.269 106.845 106.269C106.754 106.45 106.709 106.677 106.663 106.858C106.663 106.903 106.663 106.949 106.618 106.949C106.573 106.994 106.573 107.085 106.527 107.175C106.527 107.221 106.527 107.221 106.482 107.266C106.437 107.402 106.391 107.492 106.346 107.628C106.346 107.674 106.301 107.674 106.301 107.719C106.255 107.764 106.255 107.855 106.21 107.9C106.21 107.946 106.21 107.991 106.165 107.991C106.12 108.036 106.12 108.127 106.12 108.172C106.12 108.217 106.12 108.263 106.074 108.263C106.029 108.399 105.984 108.489 105.984 108.625C105.984 108.671 105.938 108.671 105.938 108.716C105.893 108.761 105.848 108.852 105.802 108.897V109.033C105.802 109.124 105.802 109.169 105.802 109.26C105.802 109.305 105.802 109.305 105.802 109.35C105.757 109.486 105.712 109.577 105.666 109.713C105.666 109.758 105.666 109.803 105.621 109.803C105.576 109.849 105.576 109.939 105.576 109.985C105.576 110.03 105.53 110.075 105.53 110.075C105.44 110.256 105.395 110.483 105.349 110.71C105.349 110.755 105.304 110.755 105.304 110.8C105.259 110.846 105.259 110.936 105.259 111.027C105.259 111.072 105.213 111.072 105.213 111.117C105.168 111.253 105.123 111.344 105.077 111.48C105.077 111.525 105.077 111.57 105.032 111.57C104.987 111.706 104.941 111.842 104.896 111.933C104.896 111.978 104.851 111.978 104.851 112.024C104.805 112.069 104.805 112.16 104.805 112.25C104.805 112.295 104.76 112.341 104.76 112.341C104.715 112.522 104.67 112.749 104.579 112.93C104.579 112.975 104.534 113.02 104.534 113.02C104.488 113.066 104.488 113.156 104.488 113.247C104.488 113.292 104.488 113.338 104.443 113.338C104.398 113.519 104.307 113.745 104.262 113.927C104.262 113.972 104.262 114.017 104.216 114.017C104.171 114.108 104.171 114.153 104.126 114.244C104.126 114.289 104.126 114.335 104.081 114.38C104.035 114.516 103.99 114.606 103.945 114.742C103.945 114.788 103.945 114.788 103.899 114.833C103.854 114.878 103.854 114.969 103.854 115.014C103.854 115.06 103.809 115.105 103.809 115.105C103.718 115.377 103.582 115.694 103.401 115.92L103.356 116.011C103.356 116.056 103.31 116.056 103.31 116.102L103.265 116.147V116.283C103.22 116.328 103.22 116.328 103.174 116.328C103.129 116.374 103.084 116.374 103.038 116.419C102.993 116.419 102.993 116.464 102.948 116.464C102.902 116.51 102.857 116.51 102.812 116.51L102.721 116.555C102.631 116.6 102.585 116.6 102.54 116.645L102.495 116.736C102.313 116.736 102.177 116.827 101.996 116.827C101.951 116.827 101.86 116.827 101.815 116.827C101.452 116.781 101.045 116.645 100.727 116.419C100.682 116.419 100.637 116.374 100.637 116.374C100.591 116.374 100.591 116.328 100.546 116.283L100.501 116.238L100.41 116.147L100.365 116.102C100.32 116.056 100.32 116.056 100.274 116.011C100.274 115.966 100.229 115.966 100.229 115.92C100.138 115.785 100.048 115.694 100.002 115.558L99.9571 115.467C99.9118 115.422 99.9118 115.377 99.8665 115.331C99.8212 115.286 99.8212 115.241 99.8212 115.241C99.7759 115.06 99.6852 114.833 99.5946 114.652C99.5946 114.606 99.5946 114.561 99.5493 114.561C99.5493 114.516 99.504 114.47 99.504 114.38C99.504 114.335 99.4587 114.289 99.4587 114.289C99.3227 113.881 99.1415 113.428 99.0056 112.975C99.0056 112.93 99.0056 112.885 98.9602 112.885C98.9602 112.839 98.9149 112.749 98.8696 112.703C98.8696 112.658 98.8243 112.658 98.8243 112.613C98.8243 112.567 98.779 112.477 98.7337 112.431C98.6884 112.386 98.7337 112.341 98.6884 112.341C98.6431 112.16 98.5977 111.978 98.5071 111.797C98.5071 111.752 98.4618 111.752 98.4618 111.706C98.4165 111.661 98.4165 111.57 98.3712 111.525C98.3712 111.48 98.3712 111.435 98.3259 111.435C98.2806 111.344 98.2353 111.208 98.2353 111.117C98.2353 111.072 98.1899 111.072 98.1899 111.027C98.1899 110.981 98.1446 110.891 98.1446 110.846C98.3259 110.574 98.3259 110.574 98.3259 110.528C98.2806 110.483 98.2806 110.438 98.2806 110.392C98.2806 110.347 98.2353 110.347 98.2353 110.302C98.2353 110.256 98.1899 110.166 98.1899 110.121C98.1899 110.075 98.1446 110.03 98.1446 110.03C98.0993 109.894 98.054 109.803 98.0087 109.667C98.0087 109.622 97.9634 109.577 97.9634 109.577C97.8728 109.305 97.7821 109.033 97.6915 108.761C97.6915 108.716 97.6462 108.716 97.6462 108.671C97.6462 108.58 97.6009 108.535 97.6009 108.444C97.6009 108.399 97.5556 108.399 97.5556 108.353C97.5103 108.127 97.4196 107.946 97.329 107.764C97.329 107.719 97.329 107.674 97.2837 107.674C97.2837 107.628 97.2384 107.583 97.2384 107.538C97.2384 107.492 97.1931 107.447 97.1931 107.447C97.1478 107.311 97.1025 107.221 97.0571 107.085C97.0571 107.039 97.0118 107.039 97.0118 106.994C96.9665 106.949 96.9665 106.858 96.9665 106.813C96.9665 106.631 96.9665 106.631 96.9665 106.586C96.9665 106.541 96.9212 106.496 96.9212 106.45C96.9212 106.405 96.8759 106.405 96.8759 106.36C96.8759 106.314 96.8306 106.224 96.8306 106.178C96.8306 106.133 96.7853 106.133 96.7853 106.088C96.6946 105.816 96.5587 105.544 96.5134 105.272C96.5134 105.227 96.4681 105.181 96.4681 105.181C96.4228 104.955 96.3321 104.774 96.2415 104.592C96.2415 104.547 96.1962 104.547 96.1962 104.502C96.1509 104.275 96.0603 104.049 96.015 103.822C96.015 103.777 95.9696 103.777 95.9696 103.732C95.9243 103.641 95.9243 103.596 95.879 103.505C95.879 103.46 95.8337 103.414 95.8337 103.414C95.7884 103.233 95.6978 103.052 95.6525 102.825C95.6525 102.78 95.6072 102.78 95.6072 102.689C95.6072 102.599 95.5618 102.553 95.5618 102.463C95.5165 102.417 95.5165 102.417 95.5165 102.372C95.4259 102.1 95.3353 101.828 95.2447 101.557C95.2447 101.511 95.1993 101.466 95.1993 101.466C95.1993 101.33 95.154 101.239 95.154 101.194C95.1087 101.149 95.1087 101.103 95.1087 101.103C95.0634 101.013 95.0634 100.877 95.0181 100.786C95.0181 100.741 94.9728 100.696 94.9728 100.696C94.9275 100.605 94.9275 100.56 94.9275 100.469C94.9275 100.424 94.8822 100.378 94.8822 100.378C94.8368 100.197 94.7462 100.016 94.6556 99.7894C94.6556 99.7441 94.6103 99.7441 94.6103 99.6987C94.6103 99.6534 94.565 99.6081 94.565 99.5175C94.565 99.4722 94.5197 99.4722 94.5197 99.4269C94.4744 99.2456 94.3837 99.0191 94.2931 98.8378C94.2931 98.7925 94.2478 98.7925 94.2478 98.7472C94.2025 98.6566 94.2025 98.6112 94.2025 98.5206C94.2025 98.4753 94.1572 98.43 94.1572 98.3847C94.1119 98.2034 94.0212 98.0222 93.9759 97.8409C93.9759 97.7956 93.9306 97.7956 93.9306 97.7503C93.8853 97.6597 93.8853 97.6144 93.84 97.5238C93.84 97.4784 93.7947 97.4331 93.7947 97.4331C93.7494 97.2519 93.6587 97.0706 93.6134 96.8441C93.6134 96.7988 93.5681 96.7988 93.5681 96.7535C93.5681 96.7081 93.5228 96.6175 93.4775 96.5722C93.4775 96.5269 93.4322 96.5269 93.4322 96.4816C93.4322 96.4363 93.3869 96.3456 93.3869 96.3003C93.3869 96.255 93.3415 96.255 93.3415 96.2097C93.2962 96.0738 93.2509 95.9378 93.2056 95.8472C93.2056 95.8019 93.1603 95.8019 93.1603 95.7566C93.0697 95.4847 92.9337 95.2128 92.8884 94.8957C92.8431 94.8503 92.8431 94.805 92.8431 94.805C92.7525 94.5332 92.6166 94.2613 92.5712 93.9441C92.5712 93.8988 92.5259 93.8535 92.5259 93.8082C92.5259 93.7175 92.4806 93.6722 92.4806 93.5816C92.4806 93.5363 92.4353 93.491 92.4353 93.4457C92.2541 93.0379 92.2541 92.5847 92.3447 92.1316C92.3447 92.0863 92.3447 92.041 92.39 91.9957C92.4353 91.8144 92.4806 91.7238 92.5259 91.6785C92.5259 91.6332 92.5712 91.6332 92.5712 91.5879L92.6166 91.4973C92.6166 91.4973 92.6166 91.4519 92.6619 91.4519C92.7072 91.4066 92.7072 91.316 92.7525 91.2707C92.7525 91.2254 92.7978 91.2254 92.7978 91.1801L92.8884 91.0894L92.9337 91.0441C92.9791 90.9988 92.9791 90.9988 93.0244 90.9535L93.0697 90.9082C93.3416 90.727 93.6587 90.591 93.9759 90.5004C94.1119 90.5004 94.2025 90.4551 94.3384 90.4551C94.565 90.5004 94.7915 90.5457 95.0181 90.6363C95.0634 90.6363 95.0634 90.6816 95.1087 90.6816C95.154 90.6816 95.154 90.727 95.1993 90.727C95.1993 90.727 95.2447 90.727 95.2447 90.7723C95.29 90.8176 95.3353 90.8176 95.3806 90.8629C95.4259 90.8629 95.4259 90.9082 95.4712 90.9082C95.5618 90.9535 95.6072 91.0441 95.6525 91.0894L95.7431 91.1801L95.9243 91.4519C95.9697 91.4973 95.9696 91.4973 95.9696 91.5426C96.0603 91.7238 96.1056 91.9051 96.1962 92.0863C96.1962 92.1316 96.2415 92.1316 96.2415 92.1769C96.2868 92.2676 96.2868 92.3129 96.3321 92.4035C96.3775 92.4488 96.3775 92.4941 96.3775 92.5394C96.4681 92.8113 96.5587 93.0832 96.6493 93.4004C96.6493 93.4457 96.6946 93.491 96.6946 93.491C96.6946 93.5363 96.74 93.6269 96.74 93.7175C96.74 93.7629 96.7853 93.7629 96.7853 93.8082C96.8306 93.9441 96.8759 94.0347 96.9212 94.1707C96.9212 94.216 96.9665 94.216 96.9665 94.2613C96.9665 94.3066 97.0118 94.3972 97.0118 94.4425L96.9665 94.6691C97.0118 94.7144 97.0118 94.805 97.0571 94.8503C97.0571 94.8957 97.1024 94.8957 97.1024 94.941C97.1478 95.0769 97.1931 95.1675 97.2384 95.3035C97.2384 95.3488 97.2384 95.3488 97.2837 95.3941C97.2837 95.4394 97.329 95.53 97.329 95.5753C97.329 95.6207 97.3743 95.6207 97.3743 95.666C97.3743 95.7113 97.4196 95.7566 97.4196 95.8019C97.4196 95.8472 97.4649 95.8472 97.4649 95.8925C97.5103 96.0285 97.5556 96.1644 97.6009 96.255L97.6462 96.3456C97.6462 96.4363 97.6915 96.4816 97.6915 96.5722C97.6915 96.6175 97.7368 96.6175 97.7368 96.6628C97.7368 96.7081 97.7821 96.7988 97.7821 96.8441C97.8274 96.8894 97.8274 96.8894 97.8274 96.9347C97.8728 97.0253 97.8728 97.1613 97.9634 97.2519C97.9634 97.2972 98.0087 97.2972 98.0087 97.3425C98.0087 97.3878 98.054 97.4784 98.054 97.5238C98.054 97.5691 98.0993 97.5691 98.0993 97.6144C98.0993 97.6597 98.1446 97.7503 98.1899 97.7956C98.2353 97.8409 98.2353 97.8409 98.2353 97.8863C98.2806 98.0222 98.3259 98.1128 98.3259 98.2488C98.3259 98.2941 98.3712 98.2941 98.3712 98.3394C98.3712 98.3847 98.4165 98.43 98.4165 98.4753C98.4165 98.5206 98.4618 98.5659 98.4618 98.5659C98.4618 98.6566 98.5071 98.7019 98.5071 98.7472C98.5071 98.7925 98.5524 98.7925 98.5524 98.8378C98.5977 98.9737 98.6431 99.1097 98.6431 99.2003C98.6431 99.2456 98.6884 99.2456 98.6884 99.2909C98.7337 99.3362 98.7337 99.4269 98.7337 99.4722C98.779 99.5175 98.779 99.5175 98.779 99.5628C98.8243 99.6081 98.8243 99.6987 98.8696 99.7441C98.8696 99.7894 98.9149 99.8347 98.9149 99.8347C98.9602 100.016 99.0509 100.242 99.0962 100.424C99.0962 100.469 99.1415 100.514 99.1415 100.56C99.1868 100.696 99.2321 100.832 99.2774 100.922C99.2774 100.967 99.3227 101.013 99.3227 101.058C99.3681 101.194 99.4134 101.375 99.4587 101.511C99.4587 101.557 99.504 101.602 99.504 101.602C99.5493 101.828 99.6399 102.01 99.7305 102.191C99.7305 102.236 99.7759 102.282 99.7759 102.327C99.7759 102.417 99.8212 102.463 99.8212 102.553C99.8212 102.599 99.8665 102.644 99.8665 102.644C99.9571 102.916 100.048 103.233 100.138 103.505C100.138 103.55 100.138 103.55 100.184 103.596C100.184 103.641 100.229 103.732 100.229 103.777L100.274 103.867C100.274 103.913 100.32 104.003 100.32 104.049C100.32 104.094 100.365 104.139 100.365 104.139C100.41 104.23 100.456 104.366 100.501 104.457C100.501 104.502 100.546 104.502 100.546 104.547C100.591 104.592 100.591 104.683 100.637 104.774C100.637 104.819 100.682 104.819 100.682 104.864C100.727 105 100.773 105.136 100.818 105.227C100.818 105.272 100.863 105.272 100.863 105.317C100.863 105.363 100.863 105.408 100.909 105.453C100.909 105.499 100.954 105.544 100.954 105.544C100.954 105.635 100.999 105.68 100.999 105.725C100.999 105.771 101.045 105.771 101.045 105.816C101.09 106.042 101.181 106.224 101.226 106.45C101.226 106.496 101.271 106.541 101.271 106.541C101.271 106.631 101.316 106.677 101.362 106.767C101.362 106.813 101.407 106.813 101.407 106.858C101.498 107.039 101.543 107.266 101.588 107.447C101.588 107.492 101.634 107.538 101.634 107.538C101.634 107.628 101.679 107.674 101.679 107.764C101.679 107.81 101.724 107.81 101.724 107.855C101.77 107.991 101.77 108.081 101.815 108.217C101.815 108.263 101.86 108.263 101.86 108.308C101.86 108.353 101.906 108.444 101.906 108.489C101.906 108.535 101.951 108.535 101.951 108.58C101.951 108.671 101.996 108.716 101.996 108.761C101.996 108.806 102.041 108.852 102.041 108.852C102.132 109.124 102.223 109.35 102.313 109.622C102.404 109.577 102.404 109.486 102.449 109.396C102.449 109.35 102.495 109.35 102.495 109.305C102.54 109.26 102.54 109.169 102.54 109.078C102.54 109.033 102.585 109.033 102.585 108.988C102.631 108.942 102.631 108.852 102.631 108.761C102.631 108.716 102.676 108.671 102.676 108.671C102.766 108.489 102.812 108.263 102.857 108.081C102.857 108.036 102.902 107.991 102.902 107.991C102.948 107.946 102.948 107.855 102.993 107.764C102.993 107.719 102.993 107.674 103.038 107.674C103.129 107.492 103.174 107.266 103.265 107.085C103.265 107.039 103.265 106.994 103.31 106.949C103.401 106.677 103.491 106.36 103.582 106.042C103.582 105.997 103.627 105.997 103.627 105.952C103.673 105.861 103.673 105.816 103.718 105.725C103.718 105.68 103.718 105.635 103.763 105.589C103.809 105.408 103.899 105.181 103.99 105C103.99 104.955 103.99 104.91 104.035 104.91C104.035 104.864 104.081 104.774 104.081 104.683C104.081 104.638 104.081 104.592 104.126 104.592C104.216 104.321 104.307 104.003 104.398 103.732C104.398 103.686 104.398 103.641 104.443 103.596C104.488 103.46 104.534 103.369 104.579 103.233C104.579 103.188 104.624 103.188 104.624 103.142C104.67 103.097 104.67 103.007 104.67 102.961C104.67 102.916 104.715 102.871 104.715 102.871C104.76 102.825 104.76 102.735 104.76 102.689C104.76 102.644 104.76 102.644 104.805 102.599C104.851 102.463 104.896 102.372 104.896 102.236C104.896 102.191 104.941 102.191 104.941 102.146C104.987 102.1 104.987 102.01 104.987 101.964C104.987 101.919 104.987 101.919 105.032 101.874C105.077 101.828 105.077 101.738 105.077 101.692C105.077 101.647 105.077 101.647 105.123 101.602C105.168 101.421 105.213 101.194 105.304 101.013C105.304 100.967 105.349 100.967 105.349 100.922C105.395 100.877 105.395 100.786 105.44 100.741C105.44 100.696 105.44 100.696 105.485 100.65C105.53 100.605 105.53 100.514 105.53 100.469C105.53 100.424 105.576 100.424 105.576 100.378C105.621 100.242 105.666 100.152 105.666 100.016C105.666 99.9706 105.712 99.9706 105.712 99.9253C105.757 99.88 105.757 99.7894 105.757 99.6987C105.757 99.6534 105.757 99.6081 105.802 99.6081C105.848 99.5175 105.893 99.3816 105.893 99.2456C105.893 99.2003 105.938 99.2003 105.938 99.155C105.984 99.1097 105.984 99.0191 105.984 98.9737C105.984 98.9284 105.984 98.9284 106.029 98.8831C106.029 98.8378 106.074 98.7925 106.074 98.7472C106.074 98.7019 106.12 98.7019 106.12 98.6566C106.165 98.6112 106.165 98.5206 106.165 98.4753C106.165 98.43 106.165 98.43 106.21 98.3847C106.255 98.2488 106.255 98.1581 106.301 98.0222C106.301 97.9769 106.346 97.9769 106.346 97.9316C105.984 98.2488 106.029 98.2034 106.029 98.1128L106.074 98.0222C106.12 97.9769 106.12 97.8863 106.12 97.8409C106.12 97.7956 106.12 97.7956 106.165 97.7503C106.165 97.705 106.21 97.6144 106.21 97.5691C106.21 97.5238 106.21 97.5238 106.255 97.4784C106.301 97.4331 106.301 97.3425 106.301 97.2972C106.301 97.2519 106.301 97.2519 106.346 97.2066C106.346 97.1613 106.391 97.116 106.391 97.0706L106.437 96.98C106.527 96.7535 106.573 96.5269 106.618 96.3456C106.618 96.3003 106.663 96.255 106.663 96.255C106.754 95.9831 106.845 95.6207 106.935 95.3488C106.935 95.3035 106.935 95.2582 106.98 95.2582C107.026 95.2128 107.026 95.1222 107.026 95.0316C107.026 94.9863 107.071 94.941 107.071 94.941C107.116 94.8503 107.162 94.7144 107.162 94.6238C107.162 94.5785 107.207 94.5332 107.207 94.5332C107.252 94.4425 107.298 94.3519 107.343 94.3066C107.388 94.2613 107.388 94.1707 107.388 94.08C107.388 94.0347 107.388 93.9894 107.388 93.9441C107.434 93.8082 107.479 93.7175 107.479 93.5816C107.479 93.5363 107.479 93.5363 107.524 93.491C107.57 93.4457 107.57 93.355 107.57 93.3097C107.57 93.2644 107.615 93.2644 107.615 93.2191C107.615 93.1738 107.66 93.0832 107.66 93.0379C107.66 92.9926 107.705 92.9472 107.705 92.9019C107.751 92.8113 107.796 92.6754 107.841 92.5847C107.841 92.5394 107.887 92.5394 107.887 92.4941C107.932 92.4035 107.932 92.3582 107.932 92.2676C107.932 92.2222 107.977 92.1769 107.977 92.1316C108.068 91.8598 108.159 91.5879 108.34 91.3613C108.385 91.316 108.385 91.316 108.385 91.2707C108.476 91.1348 108.612 91.0441 108.702 90.9535L108.793 90.9082L108.884 90.8629C108.929 90.8629 108.929 90.8176 108.974 90.8176C109.201 90.727 109.382 90.6816 109.609 90.6363C109.79 90.6363 109.971 90.6363 110.198 90.6363C110.47 90.6816 110.696 90.7723 110.923 90.9082C110.968 90.9082 110.968 90.9535 111.013 90.9535C111.149 91.0894 111.285 91.2707 111.466 91.4066C111.512 91.4519 111.512 91.4519 111.557 91.4973C111.602 91.5426 111.602 91.5426 111.648 91.5879C111.693 91.6332 111.693 91.6332 111.693 91.6785C111.784 91.9051 111.874 92.1316 111.965 92.4035C111.965 92.4488 112.01 92.4941 112.01 92.4941C112.055 92.5847 112.055 92.6301 112.101 92.7207C112.146 92.766 112.146 92.766 112.146 92.8113C112.191 92.9019 112.237 93.0379 112.237 93.1285C112.237 93.1738 112.282 93.1738 112.282 93.2191C112.282 93.2644 112.282 93.3097 112.282 93.355C112.327 93.355 112.327 93.4004 112.237 93.4457Z" fill="white"/>
<path fill-rule="evenodd" clip-rule="evenodd" d="M152.566 92.0389C152.566 92.0389 152.612 91.9936 152.566 91.9936C152.612 91.903 152.566 91.8123 152.566 91.767C152.566 91.7217 152.566 91.6764 152.612 91.6311C152.838 91.0873 153.291 90.7248 153.835 90.5436C153.88 90.5436 153.926 90.4983 153.971 90.4983C154.198 90.4983 154.424 90.4983 154.651 90.4983C154.696 90.4983 154.741 90.4983 154.787 90.5436C154.877 90.5436 154.923 90.5889 155.013 90.6342C155.059 90.6342 155.104 90.6795 155.104 90.6795C155.149 90.7248 155.195 90.7248 155.24 90.7702C155.285 90.8155 155.33 90.8155 155.33 90.8155C155.466 90.9061 155.602 90.9967 155.693 91.1326C155.738 91.178 155.738 91.178 155.738 91.2233L155.829 91.3592C155.829 91.4045 155.874 91.4045 155.874 91.4498C155.874 91.4951 155.92 91.4951 155.92 91.5405C155.92 91.5858 155.965 91.5858 155.965 91.6311C156.01 91.767 156.101 91.903 156.146 92.0842C156.146 92.1295 156.146 92.1748 156.146 92.2201C156.055 93.5795 156.055 94.8935 156.146 96.2529C156.282 96.1623 156.327 96.0264 156.463 95.9357C156.509 95.8904 156.509 95.7998 156.554 95.7545C156.554 95.7092 156.599 95.6639 156.599 95.6639C156.69 95.3014 156.916 94.9389 157.234 94.7123C157.234 94.667 157.279 94.6217 157.324 94.6217C157.324 94.5764 157.369 94.5311 157.415 94.5311C157.505 94.3951 157.551 94.2592 157.687 94.1686C157.687 94.1232 157.732 94.0779 157.777 94.0779C157.777 94.0326 157.823 93.9873 157.868 93.9873C158.14 93.4889 158.548 93.0811 159.046 92.8092C159.046 92.7639 159.091 92.7186 159.137 92.7186C159.273 92.5373 159.409 92.4014 159.635 92.3561C159.68 92.3108 159.68 92.2655 159.726 92.2655C159.771 92.0842 159.998 92.0842 160.134 91.9936C160.179 91.903 160.269 91.9483 160.315 91.903C160.36 91.8576 160.451 91.8576 160.496 91.8123C160.541 91.767 160.587 91.7217 160.632 91.7217H160.677V91.6311C160.723 91.5858 160.723 91.5858 160.768 91.5858C160.813 91.4951 160.904 91.4951 160.949 91.4951H160.994H161.04C161.13 91.2686 161.402 91.3139 161.538 91.2233C161.765 91.1326 161.946 90.8608 162.218 90.9514C162.263 90.9514 162.263 90.9061 162.308 90.9061C162.399 90.8608 162.49 90.9061 162.58 90.8155C163.351 90.4983 164.166 90.4077 164.982 90.5436C165.163 90.5436 165.299 90.7248 165.435 90.8155C165.526 90.8608 165.616 90.9061 165.662 90.9967C165.707 90.9967 165.752 91.042 165.752 91.0873C165.843 91.1326 165.888 91.2686 165.933 91.3592C165.979 91.4045 165.979 91.4951 166.024 91.5405C166.341 91.903 166.387 92.4467 166.205 92.8998C166.16 92.8998 166.16 92.9451 166.205 92.9904C166.115 93.0811 166.205 93.1717 166.115 93.2623H166.069V93.3076C166.024 93.3529 166.069 93.4889 165.979 93.5342C165.933 93.8967 165.662 94.1686 165.299 94.2592C165.254 94.3498 165.163 94.3045 165.118 94.3498H165.073L165.027 94.3951C164.71 94.6217 164.302 94.7123 163.894 94.6217H163.758C163.668 94.667 163.577 94.6217 163.487 94.7123H163.441L163.396 94.7576C163.124 94.8936 162.852 95.0295 162.535 95.0295H162.49L162.444 95.0748C162.399 95.1201 162.308 95.1201 162.263 95.1201C161.855 95.392 161.402 95.6185 160.904 95.7545C160.859 95.7998 160.859 95.7998 160.813 95.7998C160.723 95.981 160.587 96.0717 160.405 96.0717C160.405 96.1623 160.315 96.117 160.269 96.1623C160.224 96.2076 160.224 96.2076 160.179 96.2529C159.499 96.9326 158.819 97.6576 158.14 98.4279C158.14 98.4732 158.094 98.5185 158.049 98.5185C157.959 98.8357 157.777 99.1529 157.505 99.4248C157.505 99.4701 157.46 99.5154 157.46 99.5607H157.415V99.606C157.324 99.7873 157.369 100.059 157.143 100.195C157.098 100.603 156.962 100.965 156.735 101.283C156.69 101.736 156.599 102.143 156.418 102.551V102.597V102.642C156.327 103.004 156.373 103.412 156.282 103.775C156.282 103.911 156.237 104.047 156.146 104.183V104.228C156.055 104.454 156.146 104.681 156.101 104.908C156.055 105.043 156.055 105.179 156.101 105.315C156.055 105.406 156.055 105.497 156.055 105.633V115.193C156.055 115.646 155.829 116.054 155.466 116.326C155.376 116.462 155.24 116.553 155.104 116.598H155.059V116.643C155.013 116.689 154.968 116.689 154.923 116.734H154.877L154.832 116.779C154.515 117.051 154.152 116.915 153.835 116.87L153.79 116.825H153.745C153.654 116.779 153.563 116.825 153.473 116.734C153.201 116.643 152.929 116.598 152.838 116.281C152.748 116.236 152.702 116.1 152.657 116.054C152.612 115.964 152.476 115.918 152.521 115.782C152.521 115.737 152.521 115.737 152.476 115.692C152.476 115.646 152.43 115.556 152.385 115.511C152.43 115.511 152.43 115.465 152.385 115.42C152.34 115.284 152.34 115.148 152.34 114.967C152.34 107.536 152.34 100.104 152.34 92.6733C152.521 92.4014 152.566 92.2201 152.566 92.0389Z" fill="white"/>
<path fill-rule="evenodd" clip-rule="evenodd" d="M148.311 114.787C148.311 114.651 148.265 114.515 148.265 114.379V101.148C148.265 101.012 148.265 100.876 148.311 100.74C148.356 100.695 148.401 100.604 148.401 100.559C148.356 100.106 148.356 99.6529 148.311 99.1998C148.311 99.1545 148.311 99.1092 148.265 99.0639C148.22 98.9279 148.084 98.792 148.175 98.6107C148.175 98.5654 148.175 98.4748 148.175 98.4295C148.129 98.2936 148.129 98.1576 148.084 98.0217L148.039 97.9311C147.994 97.8404 147.994 97.7045 147.994 97.6139C147.994 97.5686 147.994 97.5686 147.948 97.5233L147.903 97.342C147.903 97.2967 147.858 97.2967 147.858 97.2514C147.812 97.1608 147.812 97.0701 147.812 96.9795C147.812 96.9342 147.812 96.8889 147.767 96.8889C147.722 96.7076 147.676 96.5264 147.586 96.2998C147.586 96.2545 147.54 96.2545 147.54 96.2092C147.495 96.1639 147.495 96.1186 147.45 96.0733C147.404 96.028 147.404 96.028 147.404 95.9826C147.359 95.9373 147.359 95.892 147.359 95.8014C147.359 95.7561 147.314 95.7561 147.314 95.7108C147.178 95.4389 147.042 95.167 146.906 94.8952C146.906 94.8498 146.861 94.8498 146.861 94.8045L146.815 94.7139C146.861 94.6233 146.861 94.578 146.815 94.578C146.815 94.578 146.77 94.5327 146.77 94.4873C146.77 94.442 146.725 94.442 146.725 94.3967C146.725 94.3967 146.679 94.3514 146.679 94.3061L146.634 94.2155C146.589 94.1702 146.544 94.0795 146.544 94.0342C146.544 93.9889 146.498 93.9889 146.453 93.9436C146.317 93.8077 146.181 93.6717 146.09 93.4905C146.09 93.4452 146.045 93.4452 146.045 93.3999C146.045 93.3545 146 93.3545 145.955 93.3092H145.909L145.819 93.2639C145.773 93.2186 145.773 93.2186 145.728 93.2186C145.637 93.1733 145.592 93.128 145.547 93.0374C145.547 93.0374 145.547 93.0374 145.501 92.992L145.456 92.9467L145.411 92.9014C145.365 92.9014 145.365 92.8561 145.32 92.8108L145.275 92.7655C145.275 92.7655 145.23 92.7202 145.23 92.6749C145.184 92.6749 145.184 92.6295 145.139 92.6295C145.003 92.5389 144.912 92.4483 144.822 92.3577C144.822 92.3577 144.776 92.3577 144.776 92.3124C144.731 92.2671 144.731 92.2671 144.686 92.2671C144.64 92.2671 144.64 92.2217 144.595 92.2217C144.55 92.1764 144.505 92.1764 144.459 92.1311C144.414 92.1311 144.414 92.0858 144.369 92.0858C144.278 92.0405 144.187 91.9499 144.097 91.9046C144.051 91.8592 144.051 91.8592 144.006 91.8592L143.87 91.8139C143.825 91.8139 143.825 91.7686 143.78 91.7686C143.644 91.7233 143.553 91.6327 143.417 91.5874C143.372 91.5874 143.372 91.5421 143.326 91.5421C143.281 91.5421 143.19 91.4967 143.145 91.4514C143.1 91.4514 143.1 91.4061 143.055 91.4061C142.964 91.3608 142.873 91.3608 142.737 91.3155C142.692 91.3155 142.692 91.2702 142.647 91.2702C142.601 91.2702 142.511 91.2249 142.465 91.2249C142.42 91.2249 142.42 91.1796 142.375 91.1796C142.33 91.1796 142.239 91.1343 142.194 91.0889C142.148 91.0889 142.148 91.0436 142.103 91.0436C141.922 90.9983 141.74 90.953 141.559 90.9077H141.423C141.333 90.9077 141.242 90.8624 141.151 90.8624C141.106 90.8624 141.061 90.8624 141.061 90.8624C140.925 90.9077 140.789 90.9077 140.698 90.8171C140.653 90.7718 140.608 90.7264 140.517 90.7264C140.336 90.7264 140.155 90.6811 140.019 90.6358C139.973 90.6358 139.883 90.5905 139.837 90.5905C139.565 90.5905 139.339 90.5905 139.067 90.5452C138.75 90.4546 138.433 90.4999 138.116 90.6358H138.025C137.844 90.4999 137.662 90.4999 137.436 90.4999H137.073C136.983 90.4999 136.892 90.4999 136.801 90.5452C136.258 90.5905 135.714 90.5905 135.17 90.6811C135.08 90.6811 134.989 90.7264 134.944 90.8171C134.808 90.8624 134.672 90.8624 134.536 90.8171C134.491 90.8171 134.445 90.8171 134.4 90.8624C133.992 90.953 133.584 91.0436 133.177 91.1796L133.086 91.2249C132.995 91.2702 132.905 91.2702 132.814 91.3155C132.769 91.3155 132.769 91.3155 132.723 91.3608L132.361 91.4967L132.27 91.5421C132.225 91.5874 132.134 91.5874 132.089 91.6327C132.044 91.678 132.044 91.6327 131.998 91.678C131.953 91.678 131.908 91.7233 131.862 91.7233L131.772 91.7686C131.727 91.8139 131.681 91.8139 131.636 91.8139C131.591 91.8139 131.591 91.8592 131.545 91.8592L131.409 91.8139C131.364 91.8139 131.364 91.8592 131.319 91.8592C131.273 91.8592 131.228 91.9046 131.183 91.9046C131.137 91.9046 131.137 91.9499 131.092 91.9499C130.73 92.0858 130.412 92.3577 130.186 92.6749C130.141 92.7202 130.141 92.7202 130.141 92.7655C130.095 92.8108 130.095 92.9014 130.05 92.9467C130.05 92.992 130.005 92.992 130.005 93.0374C129.869 93.4452 129.914 93.8983 130.05 94.3061C130.05 94.3514 130.095 94.3514 130.095 94.3967C130.095 94.442 130.141 94.4873 130.186 94.5327C130.186 94.578 130.231 94.578 130.231 94.6233C130.231 94.6686 130.277 94.6686 130.277 94.7139L130.322 94.7592C130.367 94.8045 130.367 94.8045 130.367 94.8498C130.412 94.8498 130.412 94.8952 130.412 94.9405C130.458 94.9858 130.503 94.9858 130.503 95.0311C130.548 95.0311 130.548 95.0764 130.594 95.0764C130.639 95.1217 130.684 95.1217 130.73 95.167L130.82 95.2123C131.137 95.3483 131.455 95.3936 131.817 95.3483C131.862 95.3483 131.908 95.3483 131.908 95.303C131.998 95.303 132.089 95.2576 132.134 95.2123C132.18 95.2123 132.18 95.2123 132.225 95.167C132.27 95.1217 132.316 95.1217 132.361 95.1217C132.406 95.1217 132.406 95.0764 132.452 95.0764C132.497 95.0764 132.542 95.0311 132.587 95.0311C132.633 95.0311 132.633 94.9858 132.678 94.9858C132.905 94.8952 133.131 94.7592 133.403 94.6686L133.494 94.6233C133.72 94.5327 133.992 94.442 134.264 94.3967C134.309 94.3967 134.355 94.3967 134.355 94.3514C134.445 94.3061 134.536 94.3061 134.626 94.3061C134.672 94.3061 134.762 94.3061 134.808 94.2608C134.944 94.2155 135.034 94.2155 135.17 94.2155C135.216 94.2155 135.261 94.2155 135.306 94.2155C135.895 94.1702 136.484 94.0342 137.028 93.9436C137.391 93.8983 137.753 93.8983 138.116 93.9436C138.705 94.0795 139.294 94.1702 139.883 94.2608C139.928 94.2608 139.973 94.3061 140.019 94.3061C140.109 94.3061 140.2 94.3514 140.29 94.3514C140.336 94.3514 140.336 94.3514 140.381 94.3967L140.744 94.5327C140.789 94.5327 140.834 94.578 140.834 94.578C140.97 94.6233 141.106 94.6686 141.242 94.7139C141.287 94.7139 141.333 94.7592 141.333 94.7592C141.514 94.8498 141.695 94.9405 141.831 95.0764C142.33 95.3936 142.783 95.8014 143.19 96.2545C144.142 97.6139 144.64 99.2451 144.64 100.922C144.686 101.511 144.595 101.556 144.051 101.42C143.009 101.103 141.967 100.922 140.88 100.786C140.698 100.831 140.517 100.876 140.381 100.74C140.336 100.695 140.29 100.695 140.245 100.695C139.928 100.695 139.611 100.65 139.248 100.604C139.112 100.604 139.022 100.604 138.886 100.604C137.934 100.65 137.028 100.65 136.076 100.604C135.941 100.604 135.85 100.604 135.714 100.65C135.533 100.695 135.306 100.74 135.125 100.74C135.08 100.74 134.989 100.74 134.944 100.786C134.808 100.876 134.717 100.967 134.536 100.876C134.491 100.876 134.4 100.876 134.355 100.876C134.264 100.922 134.128 100.922 134.037 100.922C133.992 100.922 133.947 100.922 133.947 100.922C133.766 100.967 133.584 101.012 133.358 101.058L133.267 101.103C133.403 101.103 133.312 101.148 133.222 101.148L133.131 101.194C133.041 101.239 132.995 101.239 132.905 101.284L132.814 101.329C132.678 101.375 132.587 101.42 132.452 101.465C132.406 101.465 132.361 101.465 132.361 101.511C132.316 101.556 132.27 101.556 132.225 101.556L132.134 101.601C131.908 101.737 131.681 101.783 131.455 101.919C131.409 101.919 131.364 101.964 131.364 101.964C131.092 102.145 130.775 102.326 130.503 102.508C130.458 102.508 130.458 102.553 130.412 102.553C130.367 102.553 130.367 102.598 130.322 102.598L130.231 102.644C130.186 102.689 130.141 102.689 130.095 102.734L130.005 102.825C129.869 102.961 129.733 103.097 129.552 103.187L129.506 103.233L129.416 103.323C129.416 103.369 129.37 103.369 129.325 103.414C129.325 103.459 129.234 103.504 129.189 103.595L129.144 103.64C129.098 103.686 129.098 103.686 129.053 103.731C129.053 103.776 129.008 103.776 128.962 103.822C128.827 103.958 128.736 104.139 128.6 104.32C128.555 104.365 128.555 104.365 128.555 104.411C128.509 104.456 128.509 104.501 128.464 104.547L128.419 104.592C128.373 104.637 128.373 104.637 128.373 104.683C128.328 104.728 128.328 104.728 128.328 104.773C128.147 105.09 127.966 105.453 127.83 105.815C127.83 105.861 127.784 105.906 127.784 105.906C127.739 105.951 127.739 106.042 127.694 106.133C127.694 106.178 127.648 106.178 127.648 106.223C127.558 106.45 127.512 106.722 127.422 106.993C127.422 107.039 127.377 107.129 127.377 107.175C127.377 107.311 127.377 107.447 127.331 107.583C127.331 107.628 127.331 107.718 127.286 107.764C127.286 108.081 127.195 108.398 127.195 108.715V109.168C127.195 109.486 127.286 109.848 127.377 110.12C127.377 110.165 127.377 110.165 127.377 110.211C127.331 110.256 127.331 110.256 127.331 110.301C127.331 110.437 127.377 110.528 127.377 110.664C127.377 110.709 127.377 110.754 127.422 110.8C127.467 111.072 127.558 111.298 127.648 111.57C127.648 111.615 127.694 111.661 127.694 111.661C127.739 111.706 127.739 111.751 127.739 111.797C127.739 111.842 127.739 111.842 127.784 111.887C127.784 111.932 127.83 111.978 127.83 112.023C127.83 112.068 127.875 112.068 127.875 112.114C127.92 112.159 127.92 112.204 127.92 112.25C127.92 112.295 127.966 112.295 127.966 112.34C127.966 112.386 128.011 112.431 128.011 112.476C128.011 112.522 128.011 112.522 128.056 112.567C128.102 112.612 128.102 112.657 128.102 112.703C128.102 112.748 128.147 112.748 128.147 112.793C128.192 112.884 128.237 112.975 128.283 113.065C128.283 113.111 128.328 113.111 128.328 113.156C128.373 113.201 128.373 113.201 128.419 113.247C128.419 113.292 128.464 113.292 128.464 113.337C128.6 113.518 128.736 113.7 128.872 113.881C128.872 113.881 128.872 113.926 128.917 113.926C128.917 113.972 128.962 113.972 129.008 114.017L129.053 114.062C129.053 114.107 129.098 114.107 129.144 114.153C129.144 114.198 129.189 114.198 129.234 114.243C129.506 114.561 129.823 114.832 130.186 115.104L130.231 115.15L130.322 115.195C130.367 115.24 130.367 115.24 130.412 115.24C130.458 115.286 130.503 115.286 130.548 115.331L130.639 115.376C130.866 115.557 131.092 115.693 131.319 115.784C131.364 115.784 131.409 115.829 131.409 115.829L131.545 115.92C131.591 115.965 131.591 115.965 131.636 115.965C131.772 116.056 131.908 116.101 132.044 116.147C132.089 116.147 132.089 116.192 132.134 116.192L132.27 116.237C132.316 116.237 132.316 116.282 132.361 116.282C132.406 116.282 132.497 116.328 132.542 116.328C132.587 116.328 132.587 116.328 132.633 116.373C132.769 116.418 132.905 116.464 133.041 116.509C133.086 116.509 133.131 116.509 133.131 116.554C133.222 116.554 133.312 116.6 133.403 116.645C133.448 116.645 133.494 116.69 133.494 116.69C133.856 116.781 134.173 116.871 134.536 116.917C134.581 116.917 134.626 116.917 134.717 116.962C134.898 116.962 135.08 116.962 135.261 116.962C135.306 116.962 135.306 116.962 135.306 116.962L135.351 116.917L135.397 116.962C135.533 117.053 135.714 117.053 135.85 117.007C136.167 117.007 136.439 117.007 136.756 116.962C136.937 116.917 137.119 116.917 137.3 116.962C137.526 116.826 137.798 117.007 138.025 116.962C138.07 116.962 138.116 116.962 138.161 116.917C138.523 116.871 138.886 116.736 139.203 116.69C139.248 116.69 139.294 116.69 139.339 116.645C139.384 116.645 139.475 116.6 139.52 116.554C139.566 116.554 139.611 116.554 139.611 116.509C139.656 116.464 139.747 116.464 139.792 116.464C139.837 116.464 139.837 116.464 139.883 116.418C139.928 116.373 140.019 116.373 140.064 116.373C140.109 116.373 140.109 116.373 140.155 116.328C140.2 116.282 140.29 116.282 140.336 116.282C140.381 116.282 140.381 116.282 140.426 116.237L140.562 116.192C140.608 116.192 140.653 116.147 140.653 116.147C140.789 116.056 140.925 116.011 141.106 115.92C141.151 115.875 141.197 115.875 141.197 115.875C141.74 115.603 142.239 115.286 142.737 114.923C142.783 114.878 142.783 114.878 142.828 114.832C142.873 114.787 142.919 114.787 142.964 114.742C143.009 114.742 143.009 114.697 143.055 114.697C143.1 114.697 143.1 114.651 143.145 114.651C143.145 114.651 143.19 114.651 143.19 114.606C143.19 114.561 143.236 114.561 143.281 114.561L143.372 114.515C143.417 114.47 143.462 114.425 143.553 114.425C143.598 114.425 143.598 114.379 143.598 114.334C143.825 114.107 144.051 113.836 144.323 113.564L144.369 113.518C144.369 113.518 144.414 113.473 144.414 113.428L144.459 113.382C144.459 113.337 144.505 113.337 144.505 113.292L144.55 113.247L144.64 113.156C144.64 113.156 144.686 113.156 144.686 113.111C144.686 113.111 144.731 113.065 144.731 113.02C144.731 112.975 144.776 112.975 144.776 112.929C144.822 112.884 144.822 112.884 144.867 112.839C144.867 112.839 144.912 112.839 144.912 112.884C144.912 113.518 145.048 114.153 145.003 114.787C144.958 114.968 144.958 115.15 145.048 115.331V115.376C145.048 115.467 145.094 115.512 145.139 115.603V115.648C145.139 115.693 145.184 115.739 145.184 115.784C145.275 116.101 145.547 116.373 145.864 116.509C145.909 116.554 146 116.554 146.045 116.6C146.77 117.007 147.722 116.736 148.129 116.011C148.175 115.965 148.175 115.92 148.175 115.875C148.265 115.829 148.265 115.739 148.265 115.693C148.356 115.467 148.401 115.104 148.311 114.787ZM144.686 108.715C144.323 110.029 143.553 111.162 142.511 112.023C140.2 113.836 137.119 114.334 134.355 113.428C133.403 113.065 132.542 112.476 131.953 111.661C131.273 110.709 130.956 109.531 131.092 108.353C131.183 106.586 132.316 105 133.947 104.32C134.762 103.958 135.623 103.731 136.53 103.64C139.294 103.414 142.058 103.731 144.686 104.547C144.867 104.547 145.003 104.728 144.958 104.909C144.958 105.362 144.958 105.815 144.958 106.495C144.958 107.22 144.867 107.99 144.686 108.715Z" fill="white"/>
<path fill-rule="evenodd" clip-rule="evenodd" d="M187.91 102.508C188 102.1 187.91 101.647 187.728 101.284C187.638 101.148 187.728 100.967 187.638 100.831V100.695C187.592 100.559 187.683 100.423 187.592 100.287V100.242C187.592 99.8796 187.547 99.5624 187.366 99.2452C187.321 99.2452 187.321 99.1999 187.366 99.1546C187.321 98.8827 187.23 98.6109 187.139 98.339C187.094 98.2937 187.094 98.2031 187.049 98.1577C187.049 98.1577 187.049 98.1124 187.049 98.0671C187.049 97.7499 186.913 97.4781 186.731 97.2515H186.686V97.2062C186.686 96.9343 186.55 96.6624 186.324 96.4812C186.324 96.4359 186.278 96.3906 186.278 96.3906C186.233 96.0734 186.052 95.8015 185.825 95.6203C185.825 95.575 185.78 95.575 185.735 95.5296C185.644 95.1671 185.417 94.8953 185.146 94.6687C185.146 94.6234 185.1 94.5781 185.055 94.5781C185.055 94.5328 185.01 94.5328 184.964 94.4875C184.874 94.3062 184.738 94.1703 184.602 94.0797C184.556 93.9437 184.466 93.8531 184.375 93.8078C184.375 93.7625 184.33 93.7172 184.285 93.7172C184.285 93.6718 184.239 93.6265 184.194 93.6265C184.194 93.5812 184.149 93.5359 184.103 93.5359C184.013 93.4 183.877 93.264 183.696 93.1734C183.696 93.1281 183.65 93.1281 183.605 93.0828C183.605 92.9469 183.424 92.9469 183.378 92.9015C183.288 92.7203 183.152 92.5844 182.925 92.5844C182.88 92.4937 182.789 92.539 182.744 92.4937C182.699 92.4484 182.699 92.4484 182.653 92.4484C182.427 92.1765 182.11 91.9953 181.747 91.9047C181.475 91.6328 181.158 91.4969 180.796 91.4516C180.75 91.4516 180.75 91.4516 180.75 91.4516C180.705 91.4062 180.614 91.4062 180.569 91.3609C180.297 91.225 180.025 91.0891 179.708 91.0891H179.663C179.572 91.0437 179.482 91.0891 179.391 90.9984C179.346 90.9984 179.346 90.9984 179.346 90.9984C179.074 90.7266 178.711 90.9531 178.394 90.8172C178.303 90.8172 178.258 90.8172 178.167 90.8172C177.896 90.7266 177.578 90.8625 177.261 90.7266C177.08 90.7719 176.853 90.7719 176.672 90.7266C176.355 90.8172 176.038 90.6813 175.721 90.8172C175.675 90.8172 175.675 90.8172 175.63 90.8172C175.313 90.9531 174.95 90.7266 174.633 90.9984C174.633 91.0437 174.588 91.0437 174.588 90.9984C174.497 91.0437 174.407 90.9984 174.316 91.0891C174.316 91.0891 174.271 91.1344 174.271 91.0891C174.18 91.1344 174.089 91.0891 173.999 91.1797V91.225V91.225C173.727 91.1797 173.5 91.2703 173.319 91.4516C173.319 91.4969 173.274 91.4969 173.274 91.4516C173.138 91.4969 172.957 91.4969 172.821 91.6328C172.775 91.6781 172.685 91.6781 172.639 91.7234C172.594 91.7687 172.503 91.7687 172.458 91.8141C172.413 91.8594 172.322 91.8594 172.277 91.9047C171.914 91.9953 171.597 92.1765 171.371 92.4484C171.325 92.4937 171.235 92.4937 171.235 92.539C170.963 92.6297 170.691 92.8109 170.555 93.0375C170.464 93.1281 170.374 93.1281 170.328 93.2187C170.283 93.2187 170.283 93.264 170.238 93.3093C170.193 93.3093 170.193 93.3547 170.147 93.4C170.102 93.4906 169.966 93.4906 169.921 93.6265C169.875 93.6265 169.83 93.6718 169.83 93.7172C169.785 93.7172 169.739 93.7625 169.739 93.8078C169.468 93.8984 169.241 94.125 169.15 94.4422C169.105 94.4422 169.06 94.4875 169.06 94.5328C169.014 94.5328 168.969 94.5781 168.969 94.6234C168.833 94.5328 168.743 94.6687 168.697 94.8046C168.652 94.85 168.652 94.85 168.607 94.8953C168.561 94.8953 168.516 94.9406 168.516 94.9859C168.018 95.4843 167.655 96.0734 167.428 96.7531C167.383 96.7984 167.383 96.889 167.338 96.9343C167.157 97.0249 167.157 97.2515 167.111 97.4327C167.111 97.4781 167.111 97.4781 167.111 97.4781C167.066 97.5234 167.066 97.5687 167.066 97.614V97.6593H167.021C166.704 98.1124 166.522 98.6562 166.432 99.1999V99.2452H166.386C166.296 99.3359 166.386 99.4265 166.296 99.5171C166.024 99.789 166.16 100.197 166.069 100.514V100.559C165.979 100.695 166.069 100.831 165.979 100.967C165.979 101.012 165.979 101.058 165.979 101.103C165.797 101.556 165.707 102.055 165.797 102.508V105.09C165.707 105.408 165.797 105.77 165.979 106.087C166.024 106.223 165.979 106.359 166.024 106.45C166.024 106.495 166.024 106.495 166.024 106.54C166.114 106.631 166.024 106.812 166.114 106.903C166.114 106.948 166.114 106.948 166.114 106.994C166.205 107.311 166.069 107.719 166.341 107.99V108.036C166.386 108.126 166.341 108.262 166.432 108.308C166.522 108.534 166.432 108.851 166.658 109.033H166.704V109.078C166.749 109.169 166.704 109.214 166.794 109.305C166.839 109.44 166.839 109.576 166.93 109.667V109.712C166.975 109.803 166.975 109.848 167.021 109.894C167.066 110.029 167.066 110.165 167.202 110.256C167.247 110.301 167.202 110.392 167.293 110.437C167.293 110.483 167.293 110.573 167.383 110.619C167.383 110.664 167.428 110.709 167.428 110.709C167.474 110.754 167.474 110.845 167.519 110.89C167.564 110.936 167.564 111.026 167.61 111.072C167.61 111.117 167.655 111.162 167.655 111.162C167.7 111.208 167.7 111.298 167.746 111.344C167.836 111.706 168.063 112.023 168.335 112.25C168.38 112.431 168.516 112.567 168.652 112.703C168.652 112.748 168.697 112.794 168.743 112.794C168.743 112.839 168.788 112.884 168.833 112.884C168.833 112.929 168.878 112.975 168.924 112.975C168.924 113.02 168.969 113.02 169.014 113.065C169.06 113.111 169.06 113.111 169.105 113.156C169.15 113.201 169.15 113.201 169.196 113.247C169.241 113.247 169.241 113.292 169.286 113.337C169.332 113.383 169.332 113.383 169.377 113.428C169.422 113.428 169.422 113.473 169.468 113.519C169.422 113.564 169.468 113.564 169.468 113.609C169.513 113.654 169.513 113.654 169.558 113.7C169.603 113.745 169.603 113.745 169.649 113.79C169.694 113.926 169.785 114.017 169.921 114.062C170.238 114.515 170.691 114.833 171.144 115.059C171.189 115.15 171.28 115.104 171.325 115.15C171.416 115.286 171.597 115.376 171.733 115.422C171.778 115.467 171.869 115.467 171.914 115.512C171.96 115.558 172.05 115.558 172.096 115.603C172.141 115.648 172.232 115.648 172.277 115.694C172.322 115.739 172.413 115.739 172.458 115.784C172.503 115.829 172.594 115.829 172.639 115.875C172.685 115.92 172.775 115.92 172.821 115.965C172.957 116.101 173.093 116.101 173.228 116.147C173.274 116.237 173.41 116.147 173.455 116.237C173.636 116.464 173.953 116.464 174.225 116.509H174.271H174.316C174.407 116.554 174.497 116.509 174.588 116.6H174.633H174.678C175.086 116.826 175.539 116.917 176.038 116.872H176.128C176.31 116.962 176.536 116.872 176.763 116.962H178.485C178.711 116.872 178.938 117.008 179.164 116.872C179.255 116.826 179.3 116.826 179.391 116.872C179.708 116.872 180.071 116.962 180.342 116.69L180.388 116.645H180.433C180.524 116.554 180.66 116.645 180.796 116.554V116.509H180.841C180.931 116.464 181.067 116.509 181.113 116.418C181.385 116.328 181.702 116.373 181.928 116.147C181.974 116.101 182.064 116.101 182.11 116.056H182.155H182.2C182.246 116.011 182.336 116.011 182.381 115.965C182.517 115.875 182.699 115.965 182.789 115.784C182.835 115.739 182.925 115.739 182.971 115.694C183.152 115.603 183.333 115.648 183.469 115.422C183.514 115.376 183.605 115.376 183.65 115.331C183.967 115.24 184.239 115.059 184.466 114.787C184.511 114.787 184.556 114.742 184.556 114.697C185.1 114.425 185.599 114.017 185.961 113.519C186.006 113.519 186.052 113.473 186.052 113.428C186.097 113.428 186.142 113.383 186.142 113.337C186.188 113.337 186.233 113.292 186.233 113.247C186.369 113.201 186.46 113.111 186.505 112.975C186.55 112.975 186.55 112.929 186.595 112.884C186.641 112.839 186.641 112.839 186.686 112.794C186.731 112.794 186.777 112.748 186.777 112.658C187.185 112.295 187.275 111.706 186.958 111.253V111.208C186.913 111.162 186.958 111.072 186.867 111.026C186.822 110.981 186.867 110.89 186.777 110.845C186.777 110.8 186.731 110.754 186.686 110.754C186.686 110.709 186.641 110.664 186.595 110.664C186.55 110.619 186.505 110.619 186.46 110.573C185.916 110.029 185.01 110.029 184.466 110.573C184.466 110.573 184.421 110.573 184.421 110.619C184.285 110.709 184.194 110.845 184.058 110.936C182.336 112.658 180.161 113.564 177.896 113.609C176.446 113.7 175.041 113.337 173.772 112.658C171.688 111.479 170.238 109.44 169.739 107.13C169.558 106.495 169.468 105.861 169.422 105.181C169.558 105.136 169.739 105.09 169.875 105.136H174.135H186.595C186.913 105.09 187.185 105.045 187.366 104.683C187.411 104.637 187.411 104.637 187.456 104.592C187.456 104.547 187.502 104.547 187.547 104.501C187.592 104.501 187.592 104.456 187.638 104.411C187.728 104.365 187.683 104.275 187.728 104.23C187.774 104.184 187.774 104.094 187.819 104.048C188 103.595 188.045 103.051 187.955 102.553L187.91 102.508ZM184.375 102.372H169.875C169.377 102.372 169.377 102.372 169.422 101.828C169.649 99.789 170.464 97.8406 171.778 96.2546C173.138 94.5328 175.313 93.6265 177.488 93.8078C180.071 93.989 182.336 95.6203 183.288 98.0218C183.877 99.2905 184.239 100.695 184.375 102.1C184.375 102.236 184.375 102.281 184.375 102.372Z" fill="white"/>
</g>
</g>
<defs>
<clipPath id="clip0_5527_1029">
<rect width="216" height="206.929" fill="white"/>
</clipPath>
<clipPath id="clip1_5527_1029">
<rect width="159" height="27.006" fill="white" transform="translate(29 90)"/>
</clipPath>
</defs>
</svg>
