<svg width="231" height="127" viewBox="0 0 231 127" fill="none" xmlns="http://www.w3.org/2000/svg">
<g clip-path="url(#clip0_360_5077)">
<path d="M76.9165 56.1522V49.5434C77.0606 47.998 77.0623 46.4361 77.2793 44.9007C77.6586 42.224 78.5563 39.6865 79.638 37.2252C83.2406 29.0329 88.9916 22.7918 96.8164 18.4522C100.265 16.5391 103.94 15.2621 107.788 14.4521C109.332 14.1275 110.907 14.1076 112.471 14.0612C115.464 13.9718 118.462 13.942 121.449 14.2451C125.046 14.6111 128.425 15.7557 131.697 17.2331C136.424 19.3682 140.548 22.3612 144.07 26.1592C149.052 31.534 152.315 37.8148 153.745 45.01C154.094 46.769 154.076 48.5827 154.142 50.3732C154.252 53.343 154.217 56.3261 153.887 59.2711C153.541 62.3684 152.514 65.3217 151.249 68.1772C147.863 75.8129 142.539 81.7443 135.417 86.064C131.784 88.2653 127.864 89.7875 123.701 90.6273C121.579 91.0546 119.408 91.0679 117.246 91.0927H113.778C104.875 91.2848 97.2172 88.0368 90.4906 82.4466C83.9462 77.0088 79.5949 70.1284 77.5509 61.8334C77.1368 60.1506 77.1335 58.4214 76.9977 56.7071C76.9828 56.5215 77.0573 56.3195 76.9165 56.1522Z" fill="#444444"/>
<path d="M82.7337 54.852C82.7337 51.2213 82.752 47.5906 82.7188 43.9599C82.7122 43.2393 82.9193 42.9942 83.6464 43.0141C86.6395 43.0969 89.6525 42.7954 92.6274 43.236C98.3601 44.0874 100.826 49.1558 98.1663 54.3451C96.8015 57.0069 94.4775 57.8946 91.7462 58.105C90.5155 58.1994 89.2715 58.1729 88.0358 58.1431C87.4097 58.1282 87.2292 58.3667 87.2358 58.9613C87.259 61.2438 87.2226 63.5279 87.259 65.8103C87.2706 66.5043 87.0321 66.7279 86.3563 66.6915C85.4519 66.6434 84.5376 66.6335 83.6348 66.6948C82.8779 66.7461 82.7155 66.4397 82.7205 65.7424C82.7503 62.1117 82.7337 58.481 82.7354 54.8503L82.7337 54.852Z" fill="white"/>
<path d="M142.016 52.3923C143.23 49.9426 144.386 47.6667 145.491 45.3677C146.559 43.1466 146.538 43.135 148.968 43.1366C149.572 43.1366 150.18 43.1698 150.783 43.1284C151.512 43.0787 151.568 43.3056 151.247 43.9085C149.625 46.9396 148.171 50.0684 146.39 53.0018C144.671 55.8342 143.808 58.7477 144.154 62.0537C144.292 63.3606 144.158 64.6939 144.184 66.014C144.196 66.5474 144.02 66.7412 143.475 66.7229C142.43 66.6882 141.383 66.6799 140.34 66.7263C139.728 66.7528 139.604 66.4911 139.607 65.9527C139.624 63.2844 139.607 60.6144 139.616 57.946C139.617 57.4342 139.498 56.987 139.253 56.5348C136.99 52.3492 134.743 48.1554 132.493 43.9632C132.063 43.1582 132.074 43.1416 133.013 43.1383C134.141 43.135 135.271 43.1714 136.397 43.1234C136.989 43.0986 137.277 43.3387 137.53 43.8406C138.86 46.4642 140.225 49.0713 141.58 51.6834C141.68 51.8739 141.802 52.0511 142.013 52.3939L142.016 52.3923Z" fill="white"/>
<path d="M101.28 54.8884C101.28 51.2825 101.305 47.675 101.262 44.0692C101.252 43.2211 101.521 42.9462 102.347 43.0124C103.169 43.077 104.003 43.0836 104.822 43.0124C105.69 42.9362 105.87 43.2841 105.865 44.0924C105.832 49.8183 105.847 55.546 105.847 61.2719C105.847 61.9886 106.208 62.3463 106.929 62.3452C109.93 62.3452 112.931 62.3618 115.931 62.3287C116.652 62.3204 116.915 62.539 116.867 63.2711C116.809 64.149 116.83 65.0335 116.862 65.913C116.882 66.4728 116.698 66.6931 116.11 66.6898C111.429 66.6733 106.75 66.6666 102.069 66.6964C101.342 66.7014 101.27 66.3619 101.274 65.7904C101.285 62.1564 101.28 58.5224 101.28 54.8884Z" fill="white"/>
<path d="M119.381 44.0857C123.9 47.3173 128.419 50.5504 132.939 53.782C133.118 54.0238 133.375 54.1646 133.623 54.3203C133.886 54.4859 133.987 54.7112 133.746 54.9845L133.764 55.0192C133.651 55.0706 133.535 55.1186 133.411 55.1385C133.076 55.1501 132.74 55.1103 132.41 55.1948C132.301 55.213 132.432 55.2379 132.333 55.2114C131.34 54.9497 130.784 55.6636 130.138 56.1803C129.373 56.4868 128.811 57.0946 128.139 57.5352C127.486 57.9874 126.77 58.3551 126.174 58.8967C125.664 59.329 125.086 59.662 124.528 60.0231C124.466 60.1324 124.307 60.1406 124.261 60.2649C123.246 60.8595 122.393 61.6844 121.362 62.2591C121.268 62.2442 121.177 62.2243 121.084 62.1978C120.489 62.0753 120.62 61.5966 120.62 61.209C120.614 57.4408 120.62 53.6743 120.614 49.9061C120.614 49.1359 120.609 48.3624 120.289 47.6386C120.223 47.511 120.143 47.3901 120.044 47.2841C119.645 47.0754 119.737 46.6978 119.703 46.3549C119.862 45.7984 119.126 45.6261 119.141 45.1342C119.111 44.8659 119.118 44.5959 119.073 44.3226C119.043 44.1437 119.168 44.0195 119.383 44.0857H119.381Z" fill="white"/>
<path d="M133.413 54.9464C133.529 54.9712 133.646 54.9961 133.762 55.0209C132.331 56.2714 130.701 57.2536 129.171 58.3667C126.615 60.2251 124.014 62.0223 121.45 63.8674C120.715 64.3958 119.87 64.7652 119.219 65.4144C118.959 64.462 119.176 63.4981 119.151 62.5407C119.098 60.5299 119.143 58.5191 119.143 56.5083C119.143 53.1161 119.096 49.7239 119.149 46.3301C119.156 45.9508 119.173 45.5748 119.201 45.1971C119.219 44.9487 119.36 44.9636 119.522 44.9669L120.059 46.2158C120.251 46.981 120.292 47.7562 120.291 48.5446C120.287 53.141 120.261 57.7356 120.312 62.332C120.316 62.655 120.08 63.1502 120.677 63.2562C121.359 63.1436 121.717 62.4927 122.333 62.279C123.537 61.3928 124.813 60.6011 125.995 59.6802C126.436 59.2595 126.948 58.9448 127.473 58.6417C127.514 58.5092 127.695 58.5853 127.731 58.4479C128.866 57.5965 129.999 56.7451 131.195 55.9783C131.238 55.8424 131.422 55.9319 131.463 55.7928C131.953 55.2445 132.647 55.1633 133.3 54.9861C133.338 54.9729 133.376 54.9613 133.414 54.948L133.413 54.9464Z" fill="#949494"/>
<path d="M119.52 44.9669C119.294 45.4357 119.363 45.9392 119.363 46.4311C119.358 52.1852 119.358 57.9377 119.36 63.6918C119.36 64.2716 119.35 64.848 119.219 65.4161C118.77 65.3532 118.954 64.9937 118.954 64.7701C118.936 58.047 118.929 51.3239 118.944 44.6025C118.944 44.4236 118.614 43.7147 119.381 44.0874C119.252 44.4087 119.444 44.6787 119.52 44.9669Z" fill="#CACACA"/>
<path d="M133.744 54.9861C133.691 54.4395 133.151 54.2209 132.939 53.782C133.259 53.994 133.577 54.206 133.898 54.4163C134.431 54.7642 134.092 54.8751 133.746 54.9861H133.744Z" fill="#ECECEC"/>
<path d="M87.2491 50.5604C87.2491 49.6262 87.2557 48.692 87.2458 47.7595C87.2408 47.362 87.3733 47.1367 87.8089 47.1417C89.2616 47.1582 90.7209 47.044 92.1569 47.3885C93.6046 47.7347 94.4693 48.6854 94.62 50.1148C94.7939 51.7579 94.1545 53.0399 92.7599 53.6229C91.1084 54.3136 89.3527 54.0553 87.63 54.0553C87.2424 54.0553 87.254 53.719 87.2524 53.4457C87.2457 52.485 87.2507 51.5227 87.2491 50.562V50.5604Z" fill="#444444"/>
<path d="M127.799 58.7957C127.744 58.8504 127.69 58.905 127.637 58.9613C127.133 59.2777 126.648 59.6206 126.154 59.9535C124.942 60.833 123.729 61.7142 122.515 62.5937C121.932 62.7974 121.611 63.3937 121.021 63.5858C120.16 63.8906 120.054 63.8243 120.054 62.8455C120.049 57.3033 120.054 51.7596 120.057 46.2174C120.163 46.5007 120.271 46.7823 120.377 47.0655C120.602 47.6104 120.612 48.1852 120.614 48.7616C120.617 52.8627 120.614 56.9638 120.615 61.0632C120.615 61.31 120.579 61.5651 120.639 61.8036C120.745 62.2343 121.183 62.4065 121.543 62.1332C122.663 61.2819 123.819 60.4835 124.983 59.6968C127.132 58.2441 129.187 56.6607 131.345 55.2197C131.7 54.9828 132.086 54.9994 132.437 54.842C132.765 54.8619 133.101 54.7857 133.413 54.9497V55.0292C132.692 55.2197 132.245 55.8507 131.591 56.1489C131.539 56.2002 131.486 56.2499 131.435 56.3013C130.188 57.0814 129.068 58.0454 127.801 58.7974L127.799 58.7957Z" fill="#B7B7B7"/>
<path d="M132.437 54.8404C130.259 56.0859 128.351 57.7191 126.277 59.117C124.683 60.1903 123.136 61.3332 121.563 62.438C121.281 62.6351 120.993 62.9631 120.609 62.7328C120.277 62.5341 120.364 62.1448 120.364 61.8252C120.364 56.9042 120.372 51.9848 120.377 47.0638C120.43 47.1185 120.483 47.1715 120.538 47.2262C120.92 49.2419 120.625 51.2759 120.692 53.3C120.779 55.9965 120.637 58.6963 120.721 61.3928C120.735 61.8351 120.667 62.3154 121.357 61.9312C122.302 61.2819 123.171 60.5266 124.165 59.9435C124.22 59.8905 124.274 59.8359 124.331 59.7829C124.907 59.435 125.444 59.0326 125.987 58.6367L127.965 57.3033C128.596 56.818 129.282 56.4106 129.951 55.9816C130.69 55.4052 131.357 54.6698 132.439 54.837L132.437 54.8404Z" fill="#E4E4E4"/>
<path d="M121.357 61.9312C121.183 62.1001 121.029 62.3767 120.756 62.2889C120.461 62.1945 120.537 61.8748 120.541 61.6413C120.572 59.2794 120.584 56.9141 120.577 54.5555C120.571 52.1124 120.624 49.6676 120.537 47.2245C120.841 47.834 120.862 48.4899 120.862 49.1508C120.862 52.9853 120.859 56.8213 120.867 60.6558C120.867 61.1328 120.756 61.6761 121.359 61.9312H121.357Z" fill="#ECECEC"/>
<path d="M124.165 59.9452C123.282 60.6823 122.406 61.4293 121.357 61.9328C122.192 61.1262 123.077 60.3924 124.165 59.9452Z" fill="#ECECEC"/>
<path d="M129.949 55.9849C129.404 56.601 128.687 56.9588 127.963 57.3067C128.515 56.6988 129.154 56.2251 129.949 55.9849Z" fill="#ECECEC"/>
<path d="M125.985 58.6383C125.55 59.1883 124.988 59.556 124.329 59.7845C124.818 59.3125 125.333 58.8769 125.985 58.6383Z" fill="#ECECEC"/>
<path d="M127.799 58.7957C128.924 57.8383 130.093 56.9456 131.433 56.2996C130.297 57.2404 129.192 58.2276 127.799 58.7957Z" fill="#989898"/>
<path d="M131.591 56.1472C132.109 55.6288 132.619 55.0971 133.413 55.0275C132.828 55.4383 132.328 55.9849 131.591 56.1472Z" fill="#989898"/>
<path d="M126.154 59.9518C126.517 59.4268 127.036 59.1319 127.637 58.9597C127.236 59.4301 126.78 59.816 126.154 59.9518Z" fill="#999999"/>
<path d="M121.023 63.5842C121.475 63.185 121.879 62.7129 122.517 62.592C122.076 63.0094 121.666 63.4699 121.023 63.5842Z" fill="#9A9A9A"/>
<path d="M165.019 107.334C164.96 107.48 164.978 107.636 164.97 107.788C164.951 108.165 164.917 108.204 164.546 108.204C163.353 108.205 162.161 108.202 160.968 108.2C159.611 108.199 158.255 108.198 156.898 108.196C156.854 108.196 156.81 108.195 156.766 108.196C156.429 108.203 156.389 108.254 156.478 108.594C156.656 109.27 157.036 109.807 157.639 110.161C158.554 110.697 159.511 110.708 160.475 110.307C160.836 110.157 161.116 109.886 161.317 109.55C161.434 109.356 161.584 109.291 161.803 109.293C162.645 109.301 163.488 109.296 164.33 109.296C164.374 109.296 164.418 109.295 164.462 109.299C164.656 109.32 164.687 109.361 164.627 109.558C164.521 109.906 164.346 110.223 164.141 110.522C163.106 112.029 161.672 112.869 159.858 113.064C158.389 113.221 157.025 112.908 155.797 112.087C154.447 111.186 153.615 109.916 153.337 108.321C152.981 106.278 153.557 104.504 155.033 103.049C155.981 102.115 157.139 101.573 158.464 101.407C160.035 101.211 161.469 101.563 162.721 102.541C163.945 103.497 164.674 104.763 164.95 106.29C164.997 106.548 164.932 106.817 165.018 107.072V107.334L165.019 107.334ZM159.1 105.883C159.253 105.883 159.407 105.883 159.56 105.883C160.194 105.883 160.829 105.887 161.463 105.88C161.703 105.878 161.736 105.827 161.66 105.6C161.53 105.207 161.308 104.874 160.993 104.603C159.952 103.706 158.211 103.706 157.179 104.613C156.86 104.894 156.659 105.256 156.548 105.668C156.511 105.806 156.558 105.879 156.704 105.881C156.781 105.882 156.857 105.883 156.934 105.883C157.656 105.883 158.378 105.883 159.1 105.883H159.1Z" fill="white"/>
<path d="M84.189 113.177C83.9486 113.093 83.6941 113.099 83.4464 113.064C80.9655 112.711 78.8666 110.769 78.3815 108.328C78.0321 106.57 78.4705 104.982 79.5658 103.585C80.6158 102.245 82.0221 101.495 83.7036 101.305C84.6087 101.202 85.5066 101.287 86.3874 101.594C86.7898 101.734 87.194 101.85 87.555 102.081C89.2342 103.154 90.2819 104.641 90.5147 106.647C90.7075 108.309 90.187 109.752 89.1048 111.003C88.1534 112.102 86.9395 112.75 85.5194 113.028C85.1874 113.093 84.8455 113.087 84.5174 113.177H84.189ZM86.2958 101.773C85.8938 101.785 85.5611 101.832 85.2327 101.902C84.1443 102.135 83.1935 102.631 82.4323 103.447C81.5094 104.435 81.0591 105.615 81.1081 106.974C81.1521 108.187 81.6752 109.148 82.7042 109.789C83.832 110.491 84.9913 110.489 86.0942 109.729C87.1904 108.974 87.5491 107.885 87.3629 106.6C87.2203 105.616 86.6761 104.918 85.7828 104.487C85.5654 104.382 85.3394 104.302 85.1115 104.224C84.8708 104.142 84.8626 104.126 84.8823 103.868C84.9384 103.129 85.2573 102.529 85.8462 102.078C85.973 101.981 86.1103 101.898 86.2955 101.773L86.2958 101.773Z" fill="white"/>
<path d="M132.582 113.177C132.042 113.043 131.487 112.974 130.953 112.809C130.852 112.778 130.745 112.764 130.613 112.668C130.954 112.632 131.245 112.617 131.531 112.571C133.563 112.245 135.058 111.197 135.839 109.259C136.236 108.276 136.28 107.248 135.912 106.241C135.352 104.712 133.661 103.707 131.919 104.27C130.51 104.725 129.626 106.22 129.864 107.686C130.064 108.916 130.784 109.681 131.924 110.097C132.438 110.284 132.447 110.285 132.309 110.823C132.092 111.667 131.58 112.25 130.756 112.553C130.548 112.629 130.353 112.624 130.153 112.527C128.257 111.611 127.067 110.134 126.737 108.048C126.294 105.251 127.914 102.608 130.673 101.688C132.968 100.922 135.114 101.309 136.976 102.886C138.452 104.137 139.099 105.774 138.948 107.702C138.858 108.854 138.421 109.887 137.696 110.789C136.662 112.076 135.31 112.811 133.686 113.068C133.45 113.105 133.205 113.093 132.976 113.177H132.582H132.582Z" fill="white"/>
<path d="M66.0003 101.556C67.0506 101.554 68.1009 101.55 69.1515 101.55C69.4888 101.55 69.5029 101.564 69.6146 101.893C70.3857 104.161 71.1559 106.429 71.927 108.697C71.9724 108.83 72.0206 108.962 72.0682 109.097C72.1996 109.069 72.1999 108.97 72.2259 108.894C72.7317 107.426 73.2358 105.956 73.7399 104.487C74.024 103.66 74.3071 102.832 74.5909 102.004C74.6086 101.952 74.6276 101.901 74.648 101.85C74.7613 101.564 74.7728 101.552 75.0779 101.55C75.7344 101.547 76.3909 101.549 77.0475 101.549C77.2882 101.549 77.5289 101.545 77.7697 101.55C78.0757 101.557 78.104 101.596 78.0028 101.877C77.7591 102.557 77.5115 103.235 77.2645 103.913C76.4116 106.256 75.5581 108.599 74.7048 110.943C74.4953 111.518 74.289 112.095 74.0749 112.669C73.9586 112.981 73.9455 112.988 73.6256 112.989C72.5862 112.992 71.5467 112.992 70.5073 112.989C70.1933 112.988 70.1706 112.97 70.0596 112.665C69.1831 110.26 68.3075 107.855 67.4319 105.45C67.0089 104.289 66.5869 103.127 66.1632 101.966C66.1261 101.864 66.0972 101.756 66 101.688V101.557L66.0003 101.556Z" fill="white"/>
<path d="M101.139 112.117C100.761 112.339 100.399 112.537 100.011 112.687C99.3417 112.946 98.6504 113.118 97.9338 113.107C96.8188 113.091 95.7715 112.804 94.8328 112.182C93.328 111.187 92.4616 109.78 92.2511 107.997C91.9775 105.681 92.8058 103.796 94.6703 102.419C96.4513 101.103 98.8662 100.956 100.809 102.188C100.908 102.25 101.007 102.386 101.12 102.334C101.26 102.269 101.197 102.1 101.197 101.976C101.201 100.489 101.202 99.0019 101.198 97.5145C101.196 96.7713 101.243 96.8843 101.818 96.8797C102.474 96.8748 103.13 96.8764 103.787 96.8797C104.132 96.8813 104.153 96.9063 104.16 97.2561C104.161 97.3106 104.161 97.3654 104.161 97.4199C104.161 102.429 104.161 107.437 104.161 112.446C104.161 112.808 103.982 112.989 103.624 112.99C102.946 112.99 102.267 112.992 101.589 112.988C101.248 112.987 101.212 112.949 101.201 112.616C101.196 112.485 101.194 112.354 101.188 112.223C101.187 112.204 101.171 112.184 101.139 112.116V112.117ZM95.3626 107.194C95.3557 108.822 96.5318 110.273 98.3197 110.259C100.102 110.245 101.37 108.827 101.365 107.205C101.36 105.479 100.014 104.154 98.2987 104.138C96.6572 104.122 95.3629 105.484 95.3626 107.194V107.194Z" fill="white"/>
<path d="M115.141 112.143C114.988 112.144 114.908 112.229 114.815 112.281C113.901 112.794 112.92 113.093 111.875 113.106C110.625 113.121 109.474 112.761 108.47 112.004C107.145 111.005 106.383 109.667 106.171 108.024C105.924 106.111 106.486 104.438 107.815 103.063C109.609 101.207 112.317 100.827 114.474 102.053C114.69 102.176 114.887 102.332 115.112 102.487C115.21 102.307 115.164 102.131 115.169 101.965C115.179 101.572 115.192 101.551 115.575 101.55C116.286 101.547 116.997 101.547 117.709 101.55C118.11 101.551 118.112 101.554 118.112 101.953C118.113 104.906 118.113 107.859 118.113 110.812C118.113 111.425 118.115 112.037 118.111 112.65C118.109 112.967 118.09 112.988 117.777 112.989C117.022 112.992 116.267 112.993 115.512 112.988C115.208 112.987 115.183 112.952 115.171 112.644C115.165 112.482 115.192 112.318 115.142 112.143H115.141ZM115.293 107.209C115.254 105.442 113.916 104.143 112.22 104.141C110.593 104.138 109.182 105.394 109.169 107.188C109.156 108.886 110.496 110.261 112.232 110.26C113.946 110.259 115.259 108.893 115.293 107.209H115.293Z" fill="white"/>
<path d="M143.81 102.337C143.933 102.35 143.998 102.245 144.088 102.192C145.767 101.176 147.512 101.03 149.28 101.896C150.443 102.466 151.063 103.473 151.239 104.75C151.286 105.097 151.296 105.446 151.296 105.797C151.292 108.04 151.294 110.282 151.294 112.524C151.294 113.014 151.293 113.009 150.806 113.006C150.084 113.001 149.362 113.004 148.64 113.002C148.228 113 148.212 112.987 148.212 112.579C148.21 110.566 148.211 108.553 148.21 106.54C148.21 106.365 148.212 106.19 148.201 106.016C148.15 105.17 147.628 104.532 146.805 104.316C146.385 104.206 145.956 104.208 145.536 104.301C144.453 104.539 143.852 105.285 143.832 106.404C143.822 106.962 143.829 107.52 143.829 108.078C143.829 109.566 143.829 111.053 143.829 112.541C143.829 112.65 143.827 112.76 143.819 112.869C143.812 112.969 143.752 113.028 143.652 113.04C143.587 113.048 143.522 113.052 143.456 113.052C142.669 113.053 141.881 113.055 141.093 113.052C140.731 113.05 140.707 113.025 140.707 112.653C140.705 109.109 140.706 105.565 140.706 102.02C140.706 101.944 140.709 101.867 140.717 101.791C140.727 101.691 140.786 101.634 140.886 101.623C140.951 101.616 141.017 101.612 141.083 101.612C141.849 101.612 142.615 101.61 143.38 101.613C143.727 101.614 143.747 101.639 143.756 101.988C143.759 102.086 143.763 102.184 143.771 102.282C143.772 102.3 143.795 102.315 143.811 102.337L143.81 102.337Z" fill="white"/>
<path d="M124.248 108.622C124.248 109.879 124.248 111.137 124.248 112.395C124.248 112.482 124.25 112.57 124.247 112.657C124.236 112.947 124.206 112.986 123.927 112.988C123.161 112.993 122.395 112.993 121.63 112.988C121.348 112.986 121.311 112.942 121.295 112.663C121.289 112.554 121.293 112.445 121.293 112.335C121.293 109.809 121.293 107.283 121.293 104.757C121.293 104.432 121.13 104.269 120.805 104.268C120.608 104.268 120.411 104.272 120.215 104.266C119.951 104.258 119.912 104.226 119.908 103.956C119.901 103.387 119.906 102.819 119.905 102.25C119.905 102.118 119.901 101.987 119.907 101.856C119.919 101.596 119.955 101.559 120.222 101.551C120.441 101.544 120.659 101.55 120.878 101.549C121.273 101.546 121.292 101.53 121.292 101.147C121.291 100.677 121.296 100.207 121.338 99.7383C121.374 99.3331 121.441 98.9354 121.582 98.5537C121.841 97.8506 122.305 97.3442 123.011 97.0634C123.885 96.7156 124.796 96.6614 125.72 96.6828C125.89 96.6867 125.95 96.781 125.952 96.9334C125.954 97.0972 125.955 97.2614 125.955 97.4253C125.955 97.9284 125.959 98.4316 125.953 98.9344C125.95 99.2418 125.919 99.2674 125.61 99.274C125.413 99.2782 125.219 99.2805 125.024 99.3285C124.639 99.423 124.423 99.6749 124.342 100.045C124.249 100.464 124.256 100.891 124.264 101.319C124.267 101.489 124.356 101.549 124.513 101.548C124.896 101.547 125.278 101.546 125.661 101.55C126.006 101.554 126.033 101.58 126.035 101.929C126.037 102.596 126.038 103.263 126.034 103.93C126.031 104.238 126.003 104.263 125.69 104.267C125.34 104.271 124.99 104.267 124.64 104.269C124.258 104.271 124.25 104.276 124.25 104.652C124.248 105.659 124.249 106.665 124.249 107.671C124.249 107.988 124.249 108.305 124.249 108.622L124.248 108.622Z" fill="white"/>
</g>
<defs>
<clipPath id="clip0_360_5077">
<rect width="231" height="127" fill="white"/>
</clipPath>
</defs>
</svg>
