<svg width="231" height="127" viewBox="0 0 231 127" fill="none" xmlns="http://www.w3.org/2000/svg">
<g clip-path="url(#clip0_493_331)">
<path fill-rule="evenodd" clip-rule="evenodd" d="M71.3176 77.7C74.1615 81.2133 78.5539 83.7854 83.1461 83.7854C88.0503 83.7854 92.4721 80.9977 95.3998 77.1891C98.3855 73.2799 99.8502 68.3463 99.8502 63.4572C99.8502 58.3525 98.2437 53.1782 95.0165 49.1834C92.2154 45.7154 87.8514 43.1131 83.3021 43.1131C78.3543 43.1131 73.9048 45.8571 70.9477 49.6951C67.9486 53.6044 66.4982 58.5379 66.4982 63.4421C66.4982 68.546 68.077 73.7069 71.3176 77.7ZM83.1746 43.6952C90.8086 43.6952 92.8269 57.7979 92.8269 63.442C92.8269 69.0861 90.8086 83.2014 83.1746 83.2023C75.5264 83.2023 73.5214 69.0996 73.5214 63.442C73.5214 57.7837 75.5121 43.6952 83.1746 43.6952Z" fill="#EEEEEE"/>
<path d="M50.8326 43.952H37V44.3488H40.64L54.9272 83.4146L67.2095 44.3488H70.5081V43.952H63.0444V44.3488H66.4705L57.756 72.6104L47.435 44.3488H50.8326V43.952Z" fill="#EEEEEE"/>
<path d="M130.131 56.8459V43.2691H129.821C128.868 43.9797 127.759 44.7901 126.522 44.7901C125.528 44.7901 124.519 44.4637 123.594 44.1223L122.783 43.8094C121.674 43.3681 120.495 42.999 119.3 42.999C116.244 42.999 113.372 44.3488 110.998 46.1835C105.71 50.263 103.222 57.2435 103.222 63.7693C103.222 72.696 108.596 83.4574 118.688 83.4574C120.891 83.4574 122.797 82.819 124.788 81.9373L125.67 81.4541C126.649 80.9138 127.744 80.5154 128.868 80.5154C130.416 80.5154 131.625 81.3543 132.394 82.6336H132.662V66.9386H135.705V66.5276H122.697V66.9386H126.25V77.4316C126.25 78.1278 126.222 78.809 125.852 79.4206C124.416 81.767 121.544 83.1319 118.844 83.1319C115.445 83.1319 113.611 81.5262 112.346 78.2562C110.541 73.5936 110.143 68.4621 110.143 63.4857C110.143 57.9272 110.883 43.3556 119.014 43.3556C122.554 43.3556 125.27 46.4536 126.975 49.2119C128.41 51.5717 129.235 54.1731 129.818 56.8459H130.131Z" fill="#EEEEEE"/>
<path d="M147.887 43.952H134.013V44.3488H137.808V73.0936C137.808 80.231 144.69 83.2585 150.931 83.2585C156.446 83.2585 162.331 80.5145 162.331 74.3176V44.3488H169.213V82.2351H165.957V82.6336H193.948V67.9201H193.636C193.565 69.3421 193.45 70.7774 193.209 72.1851C192.769 74.7018 191.502 77.0331 189.684 78.8241C187.55 80.9273 184.552 82.2351 181.537 82.2351H175.723V63.0151C176.42 62.9581 177.102 62.9153 177.798 62.9153C182.22 62.9153 183.883 66.9529 184.494 70.7195H184.85V54.9541H184.494C184.281 59.1059 183.016 62.4606 178.14 62.4606C177.329 62.4606 176.518 62.4036 175.723 62.3188V44.3488H179.603C183.2 44.3488 186.698 44.6332 189.27 47.5475C191.814 50.4333 192.526 54.2293 192.938 57.9255H193.209V43.9512H157.398V44.3488H161.747V74.2043C161.747 78.882 157.894 82.0656 153.316 82.0656C149.067 82.0656 144.205 79.1932 144.205 74.4744V44.3496H147.887V43.952Z" fill="#EEEEEE"/>
</g>
<defs>
<clipPath id="clip0_493_331">
<rect width="231" height="127" fill="white"/>
</clipPath>
</defs>
</svg>
