<svg width="231" height="127" viewBox="0 0 231 127" fill="none" xmlns="http://www.w3.org/2000/svg">
<g clip-path="url(#clip0_118_2202)">
<path d="M113.126 14.6504C113.966 14.6504 114.805 14.6504 115.645 14.6504C115.786 14.6706 115.927 14.7059 116.069 14.7087C117.992 14.7548 119.895 14.9991 121.774 15.3946C129.699 17.0623 136.406 20.8819 141.781 26.9434C147.978 33.9306 150.946 42.1735 151.045 51.4747C151.072 54.0718 150.773 56.6444 150.199 59.1795C148.088 68.4958 143.124 75.9311 135.319 81.4105C129.444 85.5356 122.86 87.6709 115.677 87.9302C111.05 88.0973 106.545 87.4396 102.179 85.8958C95.4117 83.5033 89.8019 79.4762 85.4045 73.8095C80.907 68.0117 78.4108 61.4236 77.8395 54.1035C77.5499 50.3941 77.7697 46.7229 78.6226 43.1C80.5764 34.8038 84.8592 27.9563 91.5186 22.6339C97.3352 17.9844 103.99 15.4003 111.409 14.7851C111.981 14.7383 112.553 14.6951 113.126 14.6504ZM98.4136 22.1909C98.2861 22.2579 98.1795 22.309 98.0765 22.3674C93.4572 25.0127 89.6917 28.5687 86.7178 32.9783C86.5024 33.2974 86.4873 33.5323 86.6602 33.8795C92.0849 44.798 97.4973 55.723 102.912 66.6458C103.077 66.9786 103.237 67.3143 103.428 67.632C103.64 67.9879 103.932 67.9677 104.137 67.5996C104.194 67.4951 104.234 67.3813 104.281 67.2711C106.283 62.5539 108.292 57.8395 110.275 53.1144C110.519 52.5337 110.873 52.3255 111.482 52.3335C113.317 52.3579 115.153 52.363 116.987 52.3313C117.637 52.3198 117.983 52.5712 118.239 53.1605C120.284 57.8597 122.353 62.5481 124.417 67.2387C124.484 67.3914 124.559 67.5441 124.654 67.681C124.845 67.9584 125.1 67.9555 125.286 67.6702C125.39 67.511 125.46 67.3294 125.546 67.158C131.117 56.0162 136.688 44.8744 142.265 33.7361C142.383 33.502 142.372 33.3421 142.226 33.1231C139.373 28.8619 135.762 25.3924 131.384 22.7226C131.083 22.5388 130.771 22.3703 130.45 22.1866C130.346 22.4157 130.261 22.6001 130.178 22.7845C126.227 31.5641 122.273 40.3416 118.333 49.1255C118.104 49.6355 117.774 49.8495 117.226 49.8452C115.342 49.8308 113.459 49.8365 111.575 49.8416C111.076 49.843 110.753 49.6384 110.543 49.1694C107.068 41.4236 103.584 33.6814 100.102 25.9385C99.5425 24.695 98.9813 23.4516 98.4129 22.1895L98.4136 22.1909ZM145.62 39.6593C145.186 40.5317 144.775 41.3552 144.365 42.1793C138.321 54.3412 132.276 66.5031 126.227 78.6629C126.105 78.9071 125.965 79.1535 125.782 79.353C125.355 79.8177 124.675 79.817 124.259 79.3422C124.059 79.1131 123.906 78.8293 123.781 78.5483C120.854 72.0135 117.933 65.4758 115.01 58.9389C114.937 58.7761 114.853 58.6132 114.747 58.4706C114.564 58.2213 114.35 58.2213 114.156 58.4627C114.09 58.5448 114.046 58.6478 114.003 58.7451C111.044 65.3699 108.086 71.9962 105.123 78.6197C105.016 78.8574 104.886 79.0966 104.719 79.294C104.263 79.8307 103.552 79.8321 103.096 79.2976C102.928 79.1009 102.803 78.8603 102.687 78.6262C96.3086 65.8007 89.933 52.9746 83.5567 40.1485C83.4839 40.0015 83.4083 39.8553 83.3197 39.6795C79.0707 50.33 80.5331 65.8901 92.7239 76.4808C104.729 86.9101 121.888 87.2804 134.275 77.9065C147.25 68.088 150.453 51.9797 145.62 39.66V39.6593ZM103.535 19.828C103.601 19.9915 103.645 20.1132 103.697 20.2314C107.082 27.8583 110.465 35.4853 113.855 43.1094C113.971 43.3701 114.04 43.7448 114.405 43.744C114.757 43.744 114.81 43.3759 114.922 43.1245C118.326 35.4673 121.725 27.8072 125.124 20.1478C125.165 20.0549 125.193 19.9562 125.239 19.8251C117.986 17.3037 110.776 17.3044 103.534 19.828H103.535Z" fill="#EEEEEE"/>
<path d="M141.322 111.642C140.452 111.375 139.58 111.109 138.625 110.816C138.909 110.093 139.146 109.486 139.339 108.994C140.356 109.171 141.271 109.422 142.198 109.473C144.008 109.573 144.724 108.689 144.446 106.849C143.88 107.077 143.329 107.373 142.742 107.518C140.672 108.025 138.825 107.006 138.127 104.998C137.619 103.534 137.623 102.051 138.134 100.59C139.006 98.0993 141.684 97.1638 143.935 98.5484C144.187 98.7037 144.431 98.8714 144.722 99.0599C145.109 97.5685 146.241 98.4958 147.07 98.1298C147.088 98.4916 147.108 98.7148 147.109 98.9379C147.112 101.566 147.117 104.194 147.105 106.822C147.102 107.326 147.063 107.839 146.961 108.332C146.611 110.008 145.579 111.045 143.92 111.459C143.699 111.515 143.482 111.581 143.263 111.642H141.322ZM144.513 102.856C144.513 102.256 144.53 101.656 144.503 101.059C144.495 100.88 144.412 100.619 144.28 100.544C143.469 100.087 142.603 99.8721 141.698 100.244C140.848 100.593 140.564 101.337 140.468 102.18C140.438 102.454 140.421 102.733 140.434 103.007C140.532 105.109 141.827 105.968 143.816 105.29C144.313 105.12 144.595 104.892 144.525 104.309C144.469 103.831 144.514 103.341 144.513 102.858V102.856Z" fill="#EEEEEE"/>
<path d="M169.007 107.49H166.399C166.399 106.385 166.4 105.354 166.399 104.321C166.396 103.422 166.422 102.521 166.375 101.624C166.317 100.519 165.625 99.9664 164.523 100.074C163.191 100.205 162.737 100.7 162.737 102.022C162.737 103.815 162.737 105.61 162.737 107.452H160.177V98.2186C160.78 98.2186 161.366 98.1409 161.915 98.2518C162.185 98.3073 162.385 98.712 162.671 99.0169C162.788 98.9351 162.982 98.7868 163.188 98.6579C164.513 97.8277 165.894 97.6475 167.327 98.3516C168.354 98.8575 168.69 99.8513 169.008 100.846V107.491L169.007 107.49Z" fill="#EEEEEE"/>
<path d="M110.849 98.2532H113.478C114.039 100.343 114.599 102.427 115.159 104.508C115.201 104.508 115.243 104.506 115.284 104.504C115.847 102.682 116.443 100.867 116.954 99.0294C117.136 98.3752 117.424 98.1271 118.092 98.2033C118.726 98.2754 119.521 98.0453 119.963 98.3544C120.371 98.6399 120.414 99.4591 120.6 100.05C121.063 101.519 121.514 102.992 122.016 104.611C122.123 104.332 122.195 104.185 122.237 104.03C122.708 102.273 123.182 100.517 123.634 98.7549C123.733 98.3641 123.891 98.1784 124.329 98.2033C124.992 98.2421 125.66 98.213 126.402 98.213C126.336 98.4847 126.298 98.6815 126.241 98.8728C125.423 101.56 124.591 104.244 123.794 106.937C123.667 107.369 123.483 107.536 123.032 107.506C122.299 107.459 121.374 107.727 120.881 107.373C120.396 107.025 120.333 106.073 120.106 105.379C119.632 103.925 119.173 102.465 118.652 100.835C118.508 101.211 118.419 101.411 118.354 101.619C117.789 103.395 117.213 105.17 116.677 106.956C116.547 107.39 116.344 107.537 115.902 107.508C115.169 107.459 114.239 107.732 113.751 107.376C113.267 107.023 113.212 106.066 112.996 105.365C112.343 103.253 111.704 101.138 111.061 99.0225C110.989 98.7841 110.928 98.5429 110.849 98.2518V98.2532Z" fill="#EEEEEE"/>
<path d="M69.269 104.759C69.9759 102.56 70.6259 100.547 71.2718 98.5318C71.6585 97.3259 72.0536 96.1229 72.4153 94.9087C72.5331 94.5137 72.7161 94.3515 73.1416 94.3709C73.897 94.4056 74.6538 94.3806 75.5034 94.3806C75.4341 94.6509 75.4008 94.8449 75.3371 95.0279C73.9219 98.9961 72.4971 102.963 71.0903 106.934C70.9489 107.335 70.7742 107.534 70.3127 107.509C69.5767 107.468 68.8379 107.481 68.1006 107.505C67.7541 107.516 67.5642 107.419 67.4422 107.073C65.9799 102.949 64.5024 98.8312 63.0318 94.7119C63.0096 94.6509 63.0138 94.5788 62.9902 94.3875C63.8925 94.3875 64.7768 94.3612 65.657 94.4125C65.8039 94.4208 65.991 94.7424 66.0603 94.953C67.025 97.8845 67.9703 100.82 68.9225 103.756C69.0126 104.033 69.1124 104.306 69.269 104.759Z" fill="#EEEEEE"/>
<path d="M101.21 98.2144C99.9046 99.8194 98.7431 101.246 97.5345 102.732C98.7695 104.266 100.002 105.797 101.367 107.493C100.259 107.493 99.3516 107.515 98.4465 107.473C98.2705 107.465 98.0764 107.232 97.942 107.061C97.1159 106.011 96.3051 104.948 95.4859 103.89C95.3501 103.716 95.2032 103.549 94.9357 103.229V107.458H92.3632V94.0549C92.6168 94.041 92.84 94.0188 93.0631 94.0161C93.6578 94.0105 94.251 94.0147 94.9246 94.0147C94.9246 95.4492 94.9246 96.802 94.9246 98.1562C94.9246 99.5103 94.9246 100.859 94.9246 102.21C94.9717 102.23 95.0188 102.248 95.066 102.267C95.9073 101.189 96.7874 100.137 97.5761 99.0197C98.0238 98.3849 98.5186 98.1049 99.2948 98.1991C99.8533 98.2671 100.427 98.213 101.21 98.213V98.2144Z" fill="#EEEEEE"/>
<path d="M136.593 105.885V107.606C135.361 107.818 134.176 108.005 133.401 106.68C132.344 107.411 131.249 107.895 129.957 107.781C128.404 107.644 127.43 106.719 127.284 105.206C127.129 103.592 127.836 102.504 129.402 102.116C130.133 101.935 130.903 101.901 131.659 101.836C132.112 101.797 132.571 101.829 133.012 101.829C133.219 100.809 132.848 100.133 131.906 100.131C130.775 100.13 129.642 100.367 128.378 100.518C128.26 100.142 128.062 99.5852 127.929 99.0141C127.903 98.9019 128.097 98.6565 128.239 98.6011C129.702 98.0314 131.215 97.7515 132.777 98.0314C134.614 98.3599 135.591 99.5173 135.638 101.384C135.667 102.56 135.645 103.736 135.646 104.913C135.646 105.511 135.962 105.836 136.593 105.888V105.885ZM133.117 103.383C132.129 103.519 131.264 103.594 130.421 103.772C129.957 103.871 129.639 104.292 129.778 104.766C129.879 105.113 130.169 105.56 130.474 105.66C131.323 105.94 132.154 105.656 132.916 105.232C133.024 105.171 133.099 104.97 133.109 104.829C133.134 104.421 133.117 104.009 133.117 103.383Z" fill="#EEEEEE"/>
<path d="M79.9027 107.797C76.9504 107.803 75.0114 105.867 75.003 102.902C74.9947 99.8874 76.9186 97.9344 79.8985 97.933C82.8522 97.933 84.7968 99.8707 84.8065 102.83C84.8176 105.842 82.8924 107.792 79.9013 107.797H79.9027ZM82.1869 102.934C82.119 102.504 82.0954 102.062 81.9762 101.648C81.6754 100.591 80.8896 100.03 79.8306 100.061C78.8036 100.091 77.9816 100.662 77.8167 101.709C77.6878 102.524 77.6947 103.413 77.8832 104.213C78.1466 105.335 79.2388 105.868 80.3698 105.627C81.523 105.382 82.112 104.486 82.1841 102.934H82.1869Z" fill="#EEEEEE"/>
<path d="M151.722 103.63C151.716 104.815 152.465 105.687 153.643 105.681C154.732 105.677 155.819 105.461 156.998 105.328C157.147 105.788 157.335 106.371 157.55 107.037C155.453 107.817 153.378 108.272 151.303 107.215C149.562 106.33 149.022 104.69 149.002 102.865C148.964 99.3149 151.864 97.1444 155.273 98.134C156.82 98.5831 157.815 99.7668 157.941 101.388C157.995 102.093 157.951 102.806 157.951 103.63H151.722ZM155.567 101.958C155.665 100.51 154.997 99.7945 153.644 99.8222C152.465 99.8458 151.634 100.769 151.752 101.958H155.568H155.567Z" fill="#EEEEEE"/>
<path d="M102.143 106.852C102.373 106.294 102.607 105.725 102.849 105.14C103.562 105.353 104.226 105.612 104.914 105.732C105.47 105.829 106.07 105.838 106.62 105.728C106.893 105.673 107.26 105.275 107.281 105.009C107.302 104.744 107.004 104.335 106.736 104.192C106.3 103.96 105.775 103.893 105.287 103.756C104.887 103.644 104.476 103.563 104.093 103.411C103.012 102.981 102.354 102.209 102.327 101.007C102.3 99.7779 102.843 98.8617 103.974 98.3655C105.508 97.6905 107.084 97.8623 108.653 98.2491C108.964 98.3253 109.26 98.4542 109.653 98.59C109.413 99.211 109.187 99.7973 108.961 100.385C108.265 100.227 107.623 100.047 106.969 99.947C106.544 99.8818 106.073 99.8444 105.673 99.9664C105.36 100.062 104.937 100.4 104.911 100.666C104.885 100.93 105.237 101.347 105.526 101.495C105.988 101.731 106.537 101.795 107.046 101.941C107.421 102.05 107.804 102.147 108.163 102.299C109.208 102.743 109.84 103.506 109.861 104.679C109.883 105.872 109.366 106.766 108.296 107.317C106.729 108.12 103.689 107.9 102.142 106.851L102.143 106.852Z" fill="#EEEEEE"/>
<path d="M90.5419 105.842C90.5904 105.936 90.6126 105.96 90.6085 105.976C90.4588 106.515 91.0506 107.401 90.2509 107.57C88.8011 107.875 87.4635 107.796 86.9659 106.592C86.7941 106.176 86.7012 105.698 86.6998 105.249C86.679 101.631 86.6887 98.0134 86.6915 94.3958C86.6915 94.3071 86.7137 94.2184 86.7317 94.0757H89.2806V94.8214C89.2806 98.1617 89.2806 101.503 89.2806 104.844C89.2806 105.458 89.5888 105.778 90.2051 105.802C90.3174 105.806 90.4297 105.829 90.5419 105.843V105.842Z" fill="#EEEEEE"/>
</g>
<defs>
<clipPath id="clip0_118_2202">
<rect width="231" height="127" fill="white"/>
</clipPath>
</defs>
</svg>
