<svg width="231" height="127" viewBox="0 0 231 127" fill="none" xmlns="http://www.w3.org/2000/svg">
<g clip-path="url(#clip0_632_3588)">
<g clip-path="url(#clip1_632_3588)">
<path d="M166.744 58.2331C163.272 58.2331 160.433 61.0589 160.433 64.5436V72.1593C160.433 72.5901 160.788 72.9449 161.219 72.9449C161.65 72.9449 162.005 72.5901 162.005 72.1593V64.5436C162.005 61.9333 164.121 59.8171 166.731 59.8171C169.341 59.8171 171.458 61.9333 171.458 64.5436V72.1593C171.458 72.5901 171.812 72.9449 172.243 72.9449C172.674 72.9449 173.029 72.5901 173.029 72.1593V64.5436C173.042 61.0589 170.216 58.2331 166.744 58.2331Z" fill="#D9D9D9"/>
<path d="M182.292 59.9945C183.812 59.9945 185.257 60.5901 186.334 61.6798C186.638 61.9839 187.145 61.9839 187.449 61.6798C187.753 61.3757 187.753 60.8688 187.449 60.5647C186.068 59.1835 184.23 58.4232 182.292 58.4232C178.275 58.4232 174.993 61.6925 174.993 65.7221C174.993 69.7517 178.262 73.021 182.292 73.021C184.243 73.021 186.068 72.2607 187.449 70.8795C187.753 70.5753 187.753 70.0685 187.449 69.7643C187.145 69.4602 186.638 69.4602 186.334 69.7643C185.257 70.8414 183.812 71.437 182.292 71.437C179.137 71.437 176.577 68.8773 176.577 65.7221C176.577 62.5668 179.137 59.9945 182.292 59.9945Z" fill="#D9D9D9"/>
<path d="M80.1721 58.3598C77.1563 58.3598 74.622 60.5014 74.0137 63.3398C73.8997 63.7453 73.8743 64.3535 73.8743 64.5183V72.1466C73.8743 72.5775 74.2291 72.9323 74.66 72.9323C75.0908 72.9323 75.4456 72.5775 75.4456 72.1466V64.6703C75.4456 62.06 77.5617 59.9438 80.1721 59.9438C82.7824 59.9438 84.8985 62.06 84.8985 64.6703V72.1593C84.8985 72.5901 85.2533 72.9449 85.6842 72.9449C86.115 72.9449 86.4698 72.5901 86.4698 72.1593V64.6703C86.4698 61.1856 83.6441 58.3598 80.1721 58.3598Z" fill="#D9D9D9"/>
<path d="M95.758 70.7654C95.3272 71.1582 94.757 71.3737 94.1868 71.3737H93.8193C92.5141 71.3737 91.4497 70.3092 91.4497 69.004V59.9311H95.644C96.0748 59.9311 96.4296 59.5763 96.4296 59.1455C96.4296 58.7146 96.0748 58.3598 95.644 58.3598H91.4497V54.1528C91.4497 53.722 91.0949 53.3672 90.6641 53.3672C90.2332 53.3672 89.8784 53.722 89.8784 54.1528V58.3598H88.1931C87.7623 58.3598 87.4075 58.7146 87.4075 59.1455C87.4075 59.5763 87.7623 59.9311 88.1931 59.9311H89.8784V69.004C89.8784 71.1709 91.6525 72.9449 93.8193 72.9449H94.1868C95.1625 72.9449 96.0875 72.5901 96.8224 71.9312C97.1519 71.6398 97.1772 71.1456 96.8858 70.8161C96.5817 70.4993 96.0875 70.474 95.758 70.7654Z" fill="#D9D9D9"/>
<path d="M71.4794 55.8635C71.9102 55.8635 72.2651 55.5087 72.2651 55.0779C72.2651 54.647 71.9102 54.2922 71.4794 54.2922H66.3981C65.9673 54.2922 65.6125 54.647 65.6125 55.0779C65.6125 55.5087 65.9673 55.8635 66.3981 55.8635H68.1468V71.2723H66.3981C65.9673 71.2723 65.6125 71.6271 65.6125 72.0579C65.6125 72.4888 65.9673 72.8436 66.3981 72.8436H71.4794C71.9102 72.8436 72.2651 72.4888 72.2651 72.0579C72.2651 71.6271 71.9102 71.2723 71.4794 71.2723H69.7308V55.8635H71.4794Z" fill="#D9D9D9"/>
<path d="M123.737 55.344C124.283 55.344 124.725 54.9015 124.725 54.3556C124.725 53.8097 124.283 53.3672 123.737 53.3672C123.191 53.3672 122.748 53.8097 122.748 54.3556C122.748 54.9015 123.191 55.344 123.737 55.344Z" fill="#D9D9D9"/>
<path d="M123.737 57.8656C123.306 57.8656 122.951 58.2205 122.951 58.6513V72.2987C122.951 72.7295 123.306 73.0843 123.737 73.0843C124.168 73.0843 124.522 72.7295 124.522 72.2987V58.6513C124.535 58.2205 124.18 57.8656 123.737 57.8656Z" fill="#D9D9D9"/>
<path d="M114.512 53.3672C114.081 53.3672 113.726 53.722 113.726 54.1528V72.1593C113.726 72.5901 114.081 72.9449 114.512 72.9449C114.943 72.9449 115.297 72.5901 115.297 72.1593V54.1528C115.297 53.722 114.943 53.3672 114.512 53.3672Z" fill="#D9D9D9"/>
<path d="M119.061 53.3672C118.63 53.3672 118.275 53.722 118.275 54.1528V72.1593C118.275 72.5901 118.63 72.9449 119.061 72.9449C119.492 72.9449 119.847 72.5901 119.847 72.1593V54.1528C119.847 53.722 119.492 53.3672 119.061 53.3672Z" fill="#D9D9D9"/>
<path d="M134.368 58.4105C130.351 58.4105 127.069 61.6798 127.069 65.7094C127.069 69.739 130.339 73.0083 134.368 73.0083C135.61 73.0083 136.839 72.6915 137.916 72.0833C138.296 71.8678 138.436 71.3863 138.22 71.0062C138.005 70.626 137.523 70.4866 137.143 70.7021C136.294 71.1709 135.344 71.4243 134.368 71.4243C131.213 71.4243 128.653 68.8647 128.653 65.7094C128.653 62.5542 131.213 59.9945 134.368 59.9945C137.523 59.9945 140.083 62.5542 140.083 65.7094V71.5004C140.083 74.4909 137.65 76.9112 134.672 76.9112C132.987 76.9112 131.416 76.1382 130.377 74.7823C130.11 74.4402 129.616 74.3768 129.274 74.6429C128.932 74.9091 128.869 75.4032 129.135 75.7454C130.478 77.4941 132.493 78.4951 134.685 78.4951C138.537 78.4951 141.68 75.3652 141.68 71.5004V65.7094C141.667 61.6798 138.385 58.4105 134.368 58.4105Z" fill="#D9D9D9"/>
<path d="M36.7468 63.8849C36.7468 62.8078 37.6718 61.9081 38.7489 61.9081C39.2684 61.9081 39.7626 62.1235 40.1428 62.5037C40.5229 62.8838 40.7257 63.378 40.7257 63.8976C40.7257 64.9747 39.8387 65.8617 38.7489 65.8617C38.2167 65.8617 37.7225 65.6589 37.3424 65.2788C36.9622 64.8986 36.7468 64.4044 36.7468 63.8849Z" fill="#D9D9D9"/>
<path d="M55.5387 61.8954C55.602 61.8954 55.6654 61.8954 55.7287 61.9081C56.7424 61.9968 57.5408 62.8712 57.5281 63.8849C57.5281 64.8986 56.7298 65.773 55.7161 65.8617C55.6527 65.8743 55.5893 65.8743 55.526 65.8743C55.4473 65.8743 55.3785 65.8644 55.3021 65.8533C55.2924 65.8519 55.2825 65.8504 55.2726 65.849C54.2842 65.7096 53.5366 64.8733 53.5366 63.8849C53.5366 63.416 53.714 62.9472 54.0434 62.5797C54.3729 62.2249 54.8164 61.9841 55.2852 61.9208C55.2952 61.9194 55.305 61.9179 55.3147 61.9165C55.3912 61.9054 55.4599 61.8954 55.5387 61.8954Z" fill="#D9D9D9"/>
<path fill-rule="evenodd" clip-rule="evenodd" d="M27.0024 63.5679C27.0024 53.8867 34.7194 46.043 44.4004 46.043C54.0688 46.043 62.0392 53.8867 62.0518 63.5679C62.0518 73.2491 54.2082 81.0928 44.5271 81.0928C34.8461 81.0928 27.0024 73.2491 27.0024 63.5679ZM32.1471 66.381C32.2991 66.7612 32.5399 66.9512 32.8693 66.9512C33.1861 66.9512 33.4649 66.7485 33.5916 66.3557L35.7711 61.1349L35.8472 60.9575C35.8725 60.9068 35.8345 60.8435 35.7711 60.8435H34.5673C34.4913 60.8435 34.4533 60.8942 34.4406 60.9322L32.8313 64.7971V64.7844L31.2601 60.9449C31.2221 60.8688 31.1587 60.8308 31.108 60.8308H29.9422C29.8662 60.8308 29.8028 60.9195 29.8409 60.9955L32.1471 66.381ZM35.543 63.8847C35.543 65.6587 36.9876 67.0906 38.7489 67.0906C40.5103 67.0906 41.9548 65.6587 41.9675 63.8974C41.9675 62.1233 40.5229 60.6788 38.7489 60.6788C37.8873 60.6788 37.089 61.0082 36.4807 61.6165C35.8725 62.212 35.543 63.023 35.543 63.8847ZM43.1079 66.9132L44.071 65.6207C44.0836 65.608 44.0963 65.532 44.0329 65.4813L43.3107 64.5943C43.2727 64.5436 43.1966 64.5563 43.1713 64.5943L41.5367 66.8499C41.4986 66.9132 41.5367 66.9893 41.6127 66.9893H42.9559C42.9812 66.9893 43.0699 66.9766 43.1079 66.9132ZM43.1713 63.4158L44.0203 64.5816C44.3117 64.9618 44.8819 64.9618 45.1607 64.5816L49.507 58.6133C49.545 58.5499 49.507 58.4739 49.431 58.4739H48.0625C47.9738 58.4739 47.9231 58.5119 47.9104 58.5372L44.5778 63.1244L43.0192 60.9829C42.9559 60.8942 42.8545 60.8435 42.7531 60.8435H41.5493C41.4226 60.8435 41.3973 60.9449 41.448 61.0209L43.1713 63.4158ZM46.2124 66.9893H47.5556C47.6316 66.9893 47.6697 66.9132 47.619 66.8499L45.997 64.607C45.959 64.5563 45.8703 64.5436 45.8196 64.5943L45.1227 65.456C45.0973 65.4813 45.072 65.5447 45.1227 65.6207L46.0604 66.9132C46.0731 66.9386 46.1111 66.9893 46.2124 66.9893ZM50.5841 67.1413C51.3317 67.1413 52.016 66.9006 52.5862 66.4444C52.6242 66.4064 52.6369 66.3557 52.6496 66.305C52.6496 66.2796 52.6369 66.267 52.6369 66.267L52.016 65.456C51.978 65.418 51.9146 65.4053 51.8639 65.4433C51.5725 65.6841 51.2177 65.8361 50.8249 65.8741C50.7615 65.8868 50.6855 65.8868 50.6221 65.8868C50.1026 65.8868 49.6211 65.6841 49.2536 65.3166C48.8735 64.9364 48.658 64.4296 48.6707 63.8847C48.6834 62.7823 49.5324 61.9206 50.5968 61.9206C51.0276 61.9206 51.4331 62.06 51.7752 62.3134C51.8259 62.3514 51.9146 62.3387 51.9526 62.2881L52.5609 61.5024C52.5989 61.4517 52.5862 61.3757 52.5355 61.3377C51.978 60.9068 51.2937 60.6788 50.5841 60.6788C48.7974 60.6788 47.3529 62.136 47.3529 63.91C47.3529 65.6967 48.8101 67.1413 50.5841 67.1413ZM52.3328 63.8847C52.3328 65.6587 53.7773 67.0906 55.5387 67.0906C57.3127 67.0906 58.7446 65.6587 58.7572 63.8974C58.7572 62.1233 57.3127 60.6788 55.5387 60.6788C54.677 60.6788 53.8787 61.0082 53.2705 61.6165C52.6622 62.212 52.3328 63.023 52.3328 63.8847Z" fill="#D9D9D9"/>
<path d="M158.419 65.1645C158.14 61.3757 154.972 58.4232 151.145 58.4232C147.128 58.4232 143.846 61.6925 143.846 65.7221C143.846 69.7517 147.116 73.021 151.145 73.021C152.387 73.021 153.578 72.7169 154.642 72.134C154.655 72.1213 154.668 72.1213 154.681 72.1086C154.769 72.0579 154.845 72.0199 154.921 71.9692C154.997 71.9185 155.073 71.8805 155.149 71.8298C155.162 71.8172 155.187 71.8045 155.2 71.7918C156.201 71.1202 157.037 70.2079 157.608 69.1181C157.81 68.7379 157.658 68.2564 157.278 68.0537C156.898 67.8509 156.417 68.003 156.214 68.3831C155.948 68.89 155.618 69.3462 155.225 69.739C155.213 69.7517 155.2 69.7643 155.187 69.7643C154.921 70.0305 154.63 70.2712 154.326 70.474C154.313 70.4866 154.3 70.4866 154.288 70.4993C154.224 70.5373 154.174 70.5753 154.11 70.6134C154.047 70.6514 153.984 70.6894 153.92 70.7274C153.908 70.7274 153.895 70.7401 153.882 70.7401C153.553 70.9175 153.211 71.0695 152.843 71.1709C152.539 71.2723 152.222 71.3356 151.918 71.3737C151.665 71.4117 151.399 71.4243 151.145 71.4243C147.99 71.4243 145.43 68.8647 145.43 65.7094C145.43 62.5542 147.99 59.9945 151.145 59.9945C153.895 59.9945 156.214 61.9459 156.746 64.5563H147.838C147.407 64.5563 147.052 64.9111 147.052 65.3419C147.052 65.7728 147.407 66.1276 147.838 66.1276H157.671C157.684 66.1276 157.684 66.1276 157.696 66.1276C157.709 66.1276 157.734 66.1276 157.747 66.1149C157.785 66.1149 157.823 66.1022 157.848 66.1022H157.861C158.203 66.0135 158.444 65.7094 158.444 65.3419C158.444 65.2786 158.431 65.2152 158.419 65.1645Z" fill="#D9D9D9"/>
<path d="M203.377 65.1645C203.098 61.3757 199.93 58.4232 196.104 58.4232C192.087 58.4232 188.805 61.6925 188.805 65.7221C188.805 69.7517 192.074 73.021 196.104 73.021C197.345 73.021 198.537 72.7169 199.601 72.134C199.614 72.1213 199.626 72.1213 199.639 72.1086C199.728 72.0579 199.804 72.0199 199.88 71.9692C199.956 71.9185 200.032 71.8805 200.108 71.8298C200.121 71.8172 200.146 71.8045 200.159 71.7918C201.16 71.1202 201.996 70.2079 202.566 69.1181C202.769 68.7379 202.617 68.2564 202.237 68.0537C201.857 67.8509 201.375 68.003 201.172 68.3831C200.906 68.89 200.577 69.3462 200.184 69.739C200.171 69.7517 200.159 69.7643 200.146 69.7643C199.88 70.0305 199.588 70.2712 199.284 70.474C199.272 70.4866 199.259 70.4866 199.246 70.4993C199.183 70.5373 199.132 70.5753 199.069 70.6134C199.005 70.6514 198.942 70.6894 198.879 70.7274C198.866 70.7274 198.853 70.7401 198.841 70.7401C198.511 70.9175 198.169 71.0695 197.802 71.1709C197.498 71.2723 197.181 71.3356 196.877 71.3737C196.623 71.4117 196.357 71.4243 196.104 71.4243C192.948 71.4243 190.389 68.8647 190.389 65.7094C190.389 62.5542 192.948 59.9945 196.104 59.9945C198.853 59.9945 201.172 61.9459 201.704 64.5563H192.796C192.366 64.5563 192.011 64.9111 192.011 65.3419C192.011 65.7728 192.366 66.1276 192.796 66.1276H202.629C202.642 66.1276 202.642 66.1276 202.655 66.1276C202.667 66.1276 202.693 66.1276 202.706 66.1149C202.744 66.1149 202.782 66.1022 202.807 66.1022H202.82C203.162 66.0135 203.402 65.7094 203.402 65.3419C203.402 65.2786 203.39 65.2152 203.377 65.1645Z" fill="#D9D9D9"/>
<path d="M103.842 58.4105C99.8256 58.4105 96.5436 61.6798 96.5436 65.7094C96.5436 69.739 99.8129 73.0083 103.842 73.0083C105.794 73.0083 107.619 72.248 109 70.8668C109.304 70.5627 109.304 70.0558 109 69.7517C108.696 69.4475 108.189 69.4475 107.885 69.7517C106.808 70.8288 105.363 71.4243 103.842 71.4243C100.687 71.4243 98.1276 68.8646 98.1276 65.7094C98.1276 62.5542 100.687 59.9945 103.842 59.9945C106.592 59.9945 108.911 61.9459 109.443 64.5563H100.535C100.104 64.5563 99.7495 64.9111 99.7495 65.3419C99.7495 65.7728 100.104 66.1276 100.535 66.1276H110.368C110.381 66.1276 110.381 66.1276 110.394 66.1276C110.406 66.1276 110.432 66.1276 110.444 66.1149C110.482 66.1149 110.52 66.1022 110.546 66.1022H110.558C110.9 66.0135 111.141 65.7094 111.141 65.3419C111.141 65.2786 111.129 65.2152 111.116 65.1645C110.837 61.363 107.669 58.4105 103.842 58.4105Z" fill="#D9D9D9"/>
<path d="M109.975 68.0283C109.595 67.8256 109.114 67.9776 108.911 68.3578C108.201 69.7137 107.01 70.702 105.553 71.1582C105.249 71.2596 104.932 71.323 104.628 71.361V72.9449C105.097 72.8942 105.553 72.8055 106.022 72.6535C107.885 72.0706 109.405 70.8034 110.305 69.0801C110.508 68.7126 110.356 68.2311 109.975 68.0283Z" fill="#D9D9D9"/>
</g>
</g>
<defs>
<clipPath id="clip0_632_3588">
<rect width="231" height="127" fill="white"/>
</clipPath>
<clipPath id="clip1_632_3588">
<rect width="176.4" height="35.0372" fill="white" transform="translate(27 46)"/>
</clipPath>
</defs>
</svg>
