<svg width="100" height="100" viewBox="0 0 100 100" fill="none" xmlns="http://www.w3.org/2000/svg">
<g clip-path="url(#clip0_503_4355)">
<path d="M73.7694 1.19526C78.7176 2.6917 80.9314 5.69228 80.9353 10.899C80.9353 20.0048 80.9469 29.1107 80.916 38.2166C80.916 39.0612 81.186 39.5434 81.8995 39.9869C86.9635 43.134 92.0004 46.3236 97.0451 49.5016C97.7239 49.9297 98.4143 50.3347 99.0005 50.89V52.4327C97.2495 53.8559 95.2633 54.9165 93.3734 56.1237C89.5359 58.5766 85.6753 61.0025 81.8031 63.3976C81.1397 63.8064 80.9199 64.2692 80.9199 65.029C80.943 73.6605 80.9469 82.2959 80.9276 90.9274C80.916 95.3858 78.0118 98.8994 73.6884 99.7633C73.3143 99.8366 72.9247 99.8713 72.5429 99.8713C67.3439 99.879 62.145 99.879 56.946 99.879C56.7841 99.879 56.6221 99.8829 56.4639 99.8636C55.681 99.7672 55.0909 99.1269 55.0793 98.3826C55.0716 97.6421 55.6579 96.971 56.4331 96.8746C56.7493 96.836 57.0733 96.8553 57.3934 96.8553C62.145 96.8553 66.8927 96.8707 71.6443 96.8476C74.7413 96.8321 76.9898 95.1583 77.6377 92.4238C77.7457 91.961 77.7727 91.4712 77.7727 90.993C77.7804 83.0017 77.7804 75.0104 77.7727 67.0191C77.7727 66.7453 77.9116 66.375 77.6377 66.2131C77.3485 66.0395 77.1209 66.375 76.8857 66.5139C76.0873 66.9921 75.3198 67.5205 74.5099 67.9795C73.6845 68.4461 72.8553 68.2495 72.3925 67.5437C71.922 66.8301 72.1148 65.893 72.917 65.3646C74.2823 64.4621 75.6669 63.5866 77.0669 62.7458C77.5992 62.4257 77.792 62.0323 77.792 61.4152C77.7727 54.9011 77.7727 48.387 77.792 41.869C77.792 41.2403 77.5683 40.8701 77.0438 40.5538C75.7248 39.7593 74.4289 38.9263 73.133 38.0932C72.1727 37.4723 71.8911 36.616 72.3578 35.8254C72.8476 34.9962 73.7501 34.8573 74.7876 35.486C75.5821 35.9681 76.3688 36.4695 77.1479 36.9747C77.5722 37.2486 77.7959 37.2138 77.7804 36.6508C77.7727 36.4579 77.7804 36.2651 77.7804 36.0722C77.7804 27.5024 77.711 18.9326 77.8151 10.3667C77.8537 7.19258 75.7788 4.14571 71.6211 4.14571C57.0193 4.14571 42.4175 4.15342 27.8157 4.14571C23.6774 4.14571 21.3556 7.13472 21.5985 10.4169C21.6872 11.597 21.6332 12.7926 21.5985 13.9767C21.5715 15.0913 20.9275 15.8202 20.0365 15.8241C19.1456 15.8241 18.4861 15.099 18.4668 13.9882C18.4398 12.4802 18.4013 10.9684 18.4822 9.46423C18.6751 5.70771 21.1242 2.61456 24.7071 1.48838C25.0118 1.39196 25.3165 1.29168 25.6212 1.19141C41.6731 1.19141 57.7213 1.19141 73.7732 1.19141L73.7694 1.19526ZM80.9353 51.6421C80.9353 54.2107 80.943 56.7755 80.9276 59.3441C80.9276 59.9766 80.9816 60.2852 81.6989 59.8262C85.7331 57.2615 89.7751 54.7083 93.8363 52.1859C94.6076 51.7077 94.3839 51.4724 93.7784 51.0944C89.7519 48.5798 85.7293 46.0498 81.7221 43.5004C81.0934 43.0993 80.9199 43.1996 80.9237 43.9362C80.9469 46.5049 80.9314 49.0696 80.9314 51.6382L80.9353 51.6421Z" fill="white"/>
<path d="M31.7157 51.6248C31.7157 48.1614 31.735 44.6941 31.7003 41.2307C31.6926 40.2896 32.0397 39.6764 32.8304 39.1789C38.0332 35.8852 43.2283 32.5761 48.4079 29.2361C49.3104 28.6537 50.0625 28.6421 50.9727 29.2207C56.1948 32.5491 61.4362 35.8466 66.6853 39.1287C67.4991 39.6378 67.9002 40.2472 67.8886 41.2384C67.85 44.7365 67.8693 48.2346 67.8732 51.7289C67.8732 52.4424 67.5916 52.9669 66.9283 53.26C66.3266 53.53 65.7982 53.368 65.3277 52.9631C64.8957 52.5928 64.8456 52.0876 64.8456 51.5592C64.8533 49.2181 64.8263 46.8732 64.8572 44.5321C64.8687 43.6875 64.6142 43.6952 64.001 44.0847C59.9668 46.6495 55.9248 49.2027 51.8752 51.7405C51.4394 52.0143 51.2697 52.3421 51.2735 52.8396C51.2813 58.3279 51.2813 63.8122 51.2735 69.3004C51.2735 69.9561 51.4432 70.1181 52.041 69.7363C56.1061 67.1599 60.175 64.5913 64.2516 62.0342C64.6797 61.7643 64.8726 61.4364 64.8533 60.9312C64.8263 60.1637 64.8302 59.3923 64.8572 58.621C64.8919 57.6992 65.5167 57.0551 66.3382 57.0397C67.152 57.0281 67.8346 57.6761 67.8577 58.5786C67.8886 59.8937 67.8655 61.2089 67.8655 62.524C67.8655 63.1643 67.5453 63.6194 67.0247 63.9472C61.5712 67.3875 56.1177 70.8277 50.6642 74.268C49.9892 74.6922 49.3451 74.6614 48.6818 74.2371C43.3285 70.8162 37.9753 67.399 32.6182 63.9896C31.951 63.5654 31.708 62.983 31.7119 62.2078C31.7312 58.6788 31.7196 55.1499 31.7196 51.6209L31.7157 51.6248ZM36.1781 40.7987C37.3197 41.5392 38.4034 42.2142 39.4563 42.9354C40.301 43.5139 40.5131 44.3547 40.0657 45.0913C39.6067 45.8473 38.685 46.0401 37.7863 45.5156C37.0381 45.0798 36.3208 44.59 35.5841 44.1349C35.372 44.0037 35.156 43.726 34.913 43.834C34.5852 43.9767 34.7433 44.347 34.7433 44.6131C34.7356 49.9702 34.7472 55.3311 34.724 60.6882C34.724 61.3786 34.94 61.8028 35.5263 62.1731C39.4602 64.6569 43.3825 67.1599 47.2895 69.6823C48.03 70.1605 48.1225 69.8751 48.1225 69.177C48.111 63.7544 48.1071 58.3317 48.1225 52.9091C48.1225 52.3267 47.9181 51.9564 47.4245 51.6595C46.2173 50.9267 45.0294 50.1669 43.8492 49.3878C42.8812 48.7514 42.6498 47.9068 43.1743 47.1046C43.6911 46.3101 44.5473 46.1905 45.5385 46.8038C46.657 47.4941 47.7793 48.1845 48.863 48.925C49.4454 49.3223 49.9121 49.3338 50.5215 48.9443C54.5788 46.3564 58.6477 43.7916 62.7321 41.2423C63.3222 40.8759 63.3646 40.7023 62.7436 40.3128C58.6863 37.7827 54.6405 35.2372 50.6179 32.6609C49.9468 32.2328 49.4531 32.2444 48.7936 32.6725C44.8057 35.2488 40.7946 37.7866 36.7913 40.3436C36.6062 40.4593 36.4403 40.602 36.1742 40.8026L36.1781 40.7987Z" fill="white"/>
<path d="M18.4557 78.023C18.4557 73.7227 18.4326 69.4223 18.475 65.122C18.4827 64.2889 18.2359 63.7876 17.5108 63.3363C12.1961 60.031 6.90849 56.6872 1.61697 53.3472C-0.191868 52.2056 -0.184155 51.1064 1.63625 49.9571C6.92777 46.6171 12.2193 43.2733 17.5262 39.9642C18.205 39.5399 18.475 39.0771 18.4711 38.2672C18.4364 32.8098 18.4519 27.3563 18.4557 21.8989C18.4557 20.3022 19.0034 19.4807 20.0447 19.4923C21.0822 19.5039 21.6106 20.3177 21.6106 21.9259C21.6106 26.7084 21.6106 31.4908 21.6144 36.2732C21.6144 36.5548 21.4833 36.9366 21.7301 37.0909C22.0541 37.2991 22.3009 36.9134 22.5632 36.763C23.3346 36.3041 24.0751 35.7911 24.858 35.3476C25.7219 34.8578 26.5897 35.0738 27.0371 35.8297C27.4575 36.5393 27.2723 37.4225 26.501 37.9355C25.1395 38.8418 23.755 39.7135 22.3549 40.562C21.8343 40.8782 21.6029 41.2485 21.6029 41.8771C21.6221 48.3913 21.6221 54.9054 21.6029 61.4234C21.6029 62.0404 21.7996 62.43 22.3318 62.7501C23.6547 63.5407 24.9506 64.3699 26.2426 65.2069C27.2338 65.8509 27.5115 66.7689 26.9947 67.5556C26.4778 68.3347 25.6255 68.4466 24.6227 67.8411C23.8822 67.3937 23.1572 66.9154 22.4205 66.4642C22.2122 66.3369 22.0117 66.0476 21.7456 66.2135C21.5026 66.3639 21.6183 66.684 21.6144 66.9309C21.6067 70.6218 21.6106 74.3128 21.6106 78.0037C21.6106 82.2076 21.7147 86.4154 21.5759 90.6154C21.4679 93.832 23.6354 96.8711 27.8432 96.8634C34.9049 96.848 41.9629 96.8596 49.0247 96.8634C49.3795 96.8634 49.7343 96.8441 50.0814 96.8866C50.8528 96.9791 51.4429 97.6541 51.4313 98.3946C51.4197 99.1389 50.8258 99.7792 50.0428 99.8717C49.7883 99.9026 49.5299 99.8871 49.2715 99.891C42.0169 99.891 34.7661 99.8987 27.5115 99.891C22.2701 99.8871 18.475 96.0959 18.4519 90.843C18.4364 86.5735 18.4519 82.3079 18.4519 78.0384L18.4557 78.023ZM18.4557 51.6772C18.4557 49.1086 18.448 46.5438 18.4634 43.9752C18.4634 43.3427 18.4133 43.0342 17.6959 43.4931C13.6617 46.0579 9.61981 48.6072 5.55861 51.1296C4.79111 51.604 5.00323 51.8392 5.6126 52.2172C9.63909 54.7318 13.6579 57.2619 17.6651 59.8074C18.2822 60.2007 18.4711 60.1275 18.4634 59.3754C18.4403 56.8106 18.4557 54.242 18.4557 51.6734V51.6772Z" fill="white"/>
<path d="M49.7263 20.0173C50.0965 19.998 50.4128 20.1446 50.7175 20.3336C52.453 21.4251 54.2002 22.505 55.928 23.6157C56.8922 24.2328 57.1622 25.1006 56.6955 25.8874C56.2057 26.7127 55.2916 26.8554 54.2657 26.2229C52.9814 25.4323 51.701 24.6416 50.4475 23.8047C49.9191 23.4537 49.5103 23.4306 48.9703 23.7931C47.7207 24.6339 46.4326 25.4207 45.1483 26.2113C44.1069 26.8516 43.216 26.732 42.7069 25.9182C42.2094 25.1199 42.5064 24.2289 43.5168 23.5849C45.2215 22.5011 46.9378 21.4328 48.6464 20.3567C48.9781 20.1485 49.3252 19.9942 49.7301 20.025L49.7263 20.0173Z" fill="white"/>
<path d="M49.6846 83.2995C49.2797 83.3226 48.9403 83.1529 48.6086 82.9408C46.9 81.8609 45.1838 80.8003 43.4791 79.7088C42.4802 79.0724 42.2063 78.1545 42.7308 77.3639C43.2477 76.5848 44.1039 76.4691 45.0989 77.0785C46.4102 77.8807 47.7215 78.6945 49.002 79.543C49.5034 79.8785 49.8968 79.8669 50.3943 79.5353C51.6786 78.6868 52.9861 77.873 54.2974 77.0669C55.2847 76.4614 56.1563 76.5925 56.6616 77.3755C57.1552 78.1391 56.9007 79.0609 55.9674 79.6625C54.2164 80.7926 52.4422 81.8879 50.6797 82.9948C50.375 83.1876 50.051 83.3149 49.6808 83.2879L49.6846 83.2995Z" fill="white"/>
<path d="M47.2855 9.93099C45.7775 9.93099 44.2695 9.9387 42.7615 9.93099C41.5775 9.91942 40.9565 9.37561 40.972 8.39984C40.9835 7.45878 41.5852 6.92269 42.7152 6.91883C45.766 6.90726 48.8128 6.90726 51.8635 6.91883C52.9897 6.92269 53.5952 7.45878 53.6068 8.39984C53.6184 9.37561 52.9974 9.92327 51.8173 9.93099C50.3093 9.94256 48.8012 9.93099 47.2932 9.93099H47.2855Z" fill="white"/>
<path d="M31.8733 69.0078C32.0584 69.0657 32.2976 69.0888 32.4827 69.2007C34.5846 70.5004 36.6904 71.7886 38.7615 73.1346C39.4133 73.5588 39.637 74.2376 39.2938 74.9974C38.9274 75.8035 37.9825 76.1853 37.1918 75.7109C35.0706 74.442 32.9841 73.1192 30.913 71.7731C30.3345 71.399 30.1108 70.7742 30.3692 70.0761C30.6199 69.4051 31.1367 69.0772 31.8733 69.0117V69.0078Z" fill="white"/>
<path d="M31.9273 34.3249C31.2369 34.2632 30.7818 34.0009 30.4848 33.4918C30.1802 32.9673 30.2033 32.4389 30.5543 31.9568C30.7201 31.7292 30.9361 31.5171 31.1752 31.3629C33.092 30.1325 35.0089 28.9061 36.945 27.7066C37.8012 27.1782 38.6497 27.3479 39.1472 28.073C39.6486 28.8097 39.4519 29.743 38.5803 30.3099C36.648 31.5711 34.6849 32.7899 32.7256 34.0125C32.4595 34.1783 32.1356 34.2439 31.9273 34.3249Z" fill="white"/>
<path d="M61.6052 75.7973C60.7451 75.8089 60.2514 75.4618 60.0046 74.7869C59.7115 73.9962 60.0393 73.3868 60.6873 72.9665C61.9523 72.1488 63.2482 71.3775 64.5325 70.5868C65.2691 70.1356 65.9942 69.6573 66.7578 69.2447C67.5755 68.8011 68.4008 69.021 68.8598 69.7383C69.3033 70.4248 69.203 71.2695 68.4355 71.767C66.3644 73.1053 64.2394 74.3703 62.1297 75.6508C61.9484 75.7626 61.7054 75.7703 61.609 75.7935L61.6052 75.7973Z" fill="white"/>
<path d="M69.0105 32.6643C69.026 33.8098 67.8921 34.6197 66.87 34.0373C64.7256 32.8186 62.643 31.4919 60.5796 30.1381C59.8198 29.6406 59.7504 28.7844 60.2209 28.1017C60.6876 27.4268 61.4975 27.18 62.2496 27.6312C64.286 28.8461 66.2953 30.115 68.3047 31.3723C68.7676 31.6616 69.0144 32.1012 69.0105 32.6643Z" fill="white"/>
<path d="M56.9385 6.91813C57.8217 6.9297 58.4426 7.58149 58.4156 8.4647C58.3886 9.30934 57.7831 9.90714 56.9423 9.91871C56.0591 9.93028 55.415 9.29777 55.415 8.41842C55.415 7.53521 56.0553 6.90656 56.9385 6.91813Z" fill="white"/>
</g>
<defs>
<clipPath id="clip0_503_4355">
<rect width="99" height="98.8766" fill="white" transform="translate(0 1)"/>
</clipPath>
</defs>
</svg>
