<svg width="216" height="207" viewBox="0 0 216 207" fill="none" xmlns="http://www.w3.org/2000/svg">
<g clip-path="url(#clip0_5535_2003)">
<rect width="216" height="206.929" fill="#151517"/>
<path fill-rule="evenodd" clip-rule="evenodd" d="M118.764 74.4071C118.764 74.4071 118.593 74.4071 118.524 74.4071C117.542 72.0538 115.896 70.037 113.787 68.6028C111.679 67.1686 109.198 66.379 106.648 66.3301C106.648 66.3301 106.443 66.3301 106.375 66.3301C106.375 66.3301 106.203 66.3301 106.135 66.3301C105.236 66.3311 104.341 66.4345 103.465 66.6381C101.28 67.12 99.2613 68.1708 97.613 69.6841C96.3901 70.7431 95.3895 72.0344 94.6695 73.4831C94.6695 73.4831 94.6695 73.4831 94.6695 73.6542C95.6441 73.8783 96.5869 74.2232 97.476 74.681C97.476 74.681 97.476 74.681 97.7156 74.681C98.3001 73.6712 99.0524 72.7684 99.9403 72.0114C101.52 70.6485 103.504 69.8428 105.587 69.7184C106.492 69.6214 107.406 69.6793 108.291 69.8894C110.261 70.2963 112.059 71.294 113.447 72.7493C114.835 74.2046 115.747 76.0484 116.06 78.035C116.064 78.128 116.087 78.2192 116.128 78.303C116.169 78.3868 116.226 78.4614 116.297 78.5223C116.367 78.5832 116.449 78.629 116.538 78.6571C116.627 78.6851 116.72 78.6947 116.813 78.6853C116.934 78.7329 117.069 78.7329 117.19 78.6853C118 78.2755 118.885 78.0311 119.791 77.9665C120.87 77.8737 121.955 78.0624 122.939 78.5141C124.406 79.1917 125.576 80.3809 126.228 81.8588C126.881 83.3368 126.973 85.0022 126.486 86.5428C125.999 88.0835 124.967 89.3937 123.583 90.2279C122.2 91.0622 120.559 91.3632 118.969 91.0746C117.919 90.8857 116.932 90.4399 116.096 89.7771C115.26 89.1143 114.601 88.2549 114.178 87.2757C114.15 87.1779 114.104 87.0866 114.04 87.0074C113.977 86.9281 113.898 86.8625 113.808 86.8145C113.719 86.7666 113.62 86.7373 113.519 86.7283C113.418 86.7193 113.316 86.7309 113.22 86.7623C113.078 86.7962 112.948 86.8671 112.843 86.9677C111.323 88.3874 109.371 89.2553 107.298 89.4319C104.747 89.6542 102.209 88.8747 100.222 87.2585C98.2358 85.6423 96.9562 83.3163 96.6546 80.773C96.6403 80.5683 96.5556 80.3748 96.415 80.2254C95.5395 79.3942 94.4272 78.856 93.2321 78.6853C93.2143 78.9359 93.2143 79.1875 93.2321 79.4382C93.2562 80.4296 93.3823 81.416 93.6085 82.3815C94.4015 85.6767 96.4338 88.5396 99.2829 90.3753C102.132 92.2109 105.579 92.8781 108.907 92.2383C110.232 92.0037 111.506 91.5405 112.672 90.8693C112.72 90.8304 112.781 90.8092 112.843 90.8092C112.905 90.8092 112.966 90.8304 113.014 90.8693C113.42 91.3433 113.879 91.7682 114.383 92.1356C115.823 93.2069 117.526 93.8691 119.311 94.0522C120.297 94.2227 121.304 94.2227 122.289 94.0522C124.407 93.6407 126.335 92.5551 127.784 90.9573C129.234 89.3596 130.128 87.3356 130.332 85.188C130.451 84.04 130.358 82.88 130.058 81.7655C129.47 79.3372 127.987 77.2202 125.906 75.8371C123.825 74.4541 121.299 73.9068 118.832 74.3045" fill="white"/>
<path fill-rule="evenodd" clip-rule="evenodd" d="M118.012 94.9413C117.055 94.7498 116.132 94.4152 115.274 93.9488C115.103 93.9488 115.069 93.9488 114.966 93.9488C114.163 95.3492 113.029 96.5311 111.662 97.3904C110.296 98.2497 108.739 98.7603 107.129 98.8771C104.705 99.0192 102.314 98.2584 100.418 96.7415C98.5218 95.2247 97.2548 93.0593 96.8613 90.6632C96.8613 89.9445 96.3138 89.7049 95.6636 90.0471C94.2306 90.7936 92.57 90.9767 91.0088 90.5605C89.9155 90.2856 88.9102 89.7369 88.0877 88.966C87.2651 88.1951 86.6525 87.2274 86.3073 86.1543C85.9621 85.0811 85.896 83.9377 86.1149 82.8318C86.3338 81.726 86.8307 80.6941 87.5588 79.8333C88.2868 78.9726 89.222 78.3115 90.2762 77.9122C91.3305 77.5129 92.4689 77.3886 93.5845 77.551C94.7 77.7134 95.756 78.1572 96.6527 78.8405C97.5493 79.5238 98.257 80.4241 98.7094 81.4567C98.7294 81.5525 98.7687 81.6431 98.8249 81.7232C98.8811 81.8032 98.953 81.8709 99.0363 81.9222C99.1196 81.9735 99.2126 82.0072 99.3093 82.0213C99.4061 82.0354 99.5048 82.0297 99.5993 82.0043C99.7655 81.9673 99.9119 81.8697 100.01 81.7305C101.162 80.6804 102.552 79.9261 104.061 79.5326C105.569 79.1391 107.151 79.1182 108.669 79.4716C110.596 79.8789 112.355 80.8577 113.716 82.2804C115.078 83.7031 115.979 85.5034 116.301 87.446C116.326 87.7456 116.46 88.0255 116.677 88.2332C117.475 88.9627 118.458 89.4598 119.518 89.6706C119.518 89.6706 119.758 89.6707 119.758 89.4653C119.781 88.5012 119.701 87.5373 119.518 86.5904C118.847 83.1567 116.842 80.1292 113.942 78.1723C111.042 76.2153 107.484 75.4887 104.048 76.1518C102.754 76.4177 101.508 76.8794 100.352 77.5209C100.352 77.5209 100.147 77.5209 100.113 77.5209L99.1886 76.5968C97.562 75.2344 95.5534 74.4094 93.4389 74.2353C92.3567 74.1474 91.2675 74.2517 90.2217 74.5433C88.0905 75.0327 86.193 76.2414 84.8484 77.9657C83.8196 79.2692 83.1367 80.8114 82.8633 82.4492C82.8797 82.7227 82.8797 82.9971 82.8633 83.2706V84.8792C82.8843 84.9343 82.8843 84.9952 82.8633 85.0503C82.867 85.514 82.9363 85.9749 83.0688 86.4193C83.6416 88.8355 85.0961 90.9506 87.1474 92.3498C89.1988 93.7491 91.6991 94.3316 94.1577 93.983C94.2071 93.9675 94.2591 93.9624 94.3106 93.968C94.3621 93.9735 94.4118 93.9897 94.4568 94.0154C94.5018 94.0411 94.5409 94.0758 94.5719 94.1173C94.6028 94.1589 94.6249 94.2064 94.6366 94.2568C95.5405 96.4038 97.0059 98.2676 98.8788 99.6528C100.752 101.038 102.963 101.893 105.281 102.128C105.507 102.093 105.738 102.093 105.965 102.128H107.505C108.269 102.099 109.026 101.984 109.764 101.786C111.607 101.337 113.33 100.492 114.813 99.3097C116.297 98.1277 117.505 96.6371 118.355 94.9413C118.355 94.7702 118.355 94.7702 118.355 94.736" fill="white"/>
<path fill-rule="evenodd" clip-rule="evenodd" d="M138.482 131.598C138.482 131.598 138.071 131.598 137.866 131.598C135.436 131.598 133.006 131.598 130.61 131.598C129.998 131.547 129.405 131.357 128.878 131.043C128.35 130.729 127.901 130.298 127.564 129.784C126.98 128.827 126.683 127.722 126.709 126.601C126.709 126.396 126.708 126.327 126.948 126.327H138.276C138.482 126.327 138.55 126.327 138.55 126.088C138.55 125.198 138.55 124.342 138.55 123.452C138.55 123.247 138.55 123.178 138.276 123.178H126.948C126.743 123.178 126.708 123.178 126.777 122.905C126.85 122.409 126.988 121.926 127.188 121.467C127.391 120.876 127.715 120.333 128.14 119.874C128.564 119.414 129.079 119.048 129.652 118.798C130.536 118.457 131.476 118.283 132.424 118.284H138.276C138.482 118.284 138.55 118.284 138.55 118.045V115.409C138.55 115.204 138.55 115.17 138.276 115.17H132.664C131.512 115.151 130.362 115.277 129.241 115.546C128.006 115.798 126.846 116.334 125.853 117.112C124.861 117.891 124.064 118.89 123.526 120.03C122.802 121.631 122.44 123.372 122.465 125.129C122.435 126 122.493 126.871 122.636 127.73C122.772 128.937 123.156 130.102 123.765 131.153C124.489 132.581 125.704 133.699 127.188 134.302C128.226 134.643 129.312 134.816 130.405 134.815C132.972 134.815 135.539 134.815 138.14 134.815V132.522C138.14 132.316 138.14 132.043 138.14 131.906" fill="white"/>
<path fill-rule="evenodd" clip-rule="evenodd" d="M90.2515 131.767C90.2515 131.767 90.2516 131.562 90.0462 131.562H87.6504C87.0399 131.563 86.4314 131.494 85.8366 131.357C85.5214 131.329 85.2247 131.196 84.9948 130.978C84.7649 130.761 84.6152 130.472 84.5701 130.159C84.534 129.612 84.534 129.063 84.5701 128.516V118.42C84.5701 118.214 84.5702 118.146 84.844 118.146H89.8066C90.0462 118.146 90.1147 118.146 90.1147 117.872V115.271C90.1147 115.066 90.1147 114.997 89.8751 114.997H84.6386C84.399 114.997 84.3648 114.997 84.3648 114.723V107.878C84.3648 107.673 84.3649 107.639 84.0911 107.639H80.6686C80.4633 107.639 80.3948 107.639 80.3948 107.912V114.757C80.3948 114.757 80.3947 114.997 80.1552 114.997H76.7327C76.7327 114.997 76.5273 114.997 76.5273 115.237V117.94C76.5273 118.112 76.5274 118.146 76.7669 118.146H80.1894C80.429 118.146 80.4633 118.146 80.4633 118.42C80.4633 121.842 80.4633 125.265 80.4633 128.687C80.4396 129.606 80.52 130.524 80.7029 131.425C80.8042 132.061 81.0687 132.661 81.4706 133.165C81.8724 133.668 82.3979 134.06 82.9959 134.3C83.7625 134.579 84.5762 134.707 85.3917 134.676H89.9777C89.9777 134.676 90.183 134.676 90.183 134.505C90.183 133.581 90.183 132.657 90.183 131.767" fill="white"/>
<path fill-rule="evenodd" clip-rule="evenodd" d="M74.7858 115.031H71.0897C71.0897 115.031 70.8501 115.031 70.8158 115.237L64.4501 129.543L58.5975 115.374C58.5749 115.301 58.5291 115.239 58.4672 115.195C58.4053 115.152 58.3309 115.13 58.2554 115.134H54.4905C54.2167 115.134 54.2167 115.134 54.4905 115.374L62.9099 134.574C62.9257 134.643 62.9649 134.705 63.021 134.748C63.0772 134.792 63.1467 134.815 63.2178 134.813C64.1076 134.813 65.0319 134.813 65.9217 134.813C65.996 134.812 66.0682 134.788 66.1291 134.745C66.19 134.703 66.2368 134.643 66.2639 134.574C67.1879 132.554 68.112 130.569 69.0703 128.55L75.1622 115.374C75.1622 115.202 75.1622 115.134 75.1622 115.134" fill="white"/>
<path fill-rule="evenodd" clip-rule="evenodd" d="M154.838 115.443C153.61 115.119 152.341 114.98 151.073 115.032H142.688C142.448 115.032 142.414 115.032 142.414 115.306V134.437C142.414 134.643 142.414 134.711 142.688 134.711H146.11C146.35 134.711 146.418 134.711 146.418 134.437V118.557C146.418 118.386 146.418 118.318 146.624 118.318H151.244C151.745 118.267 152.249 118.267 152.75 118.318C153.14 118.373 153.508 118.532 153.816 118.779C154.123 119.026 154.358 119.351 154.496 119.721C154.644 120.174 154.725 120.647 154.735 121.124C154.735 121.706 154.735 122.253 154.735 122.801C154.735 123.349 154.735 123.006 154.906 123.006H158.329C158.329 123.006 158.534 123.006 158.534 122.801C158.561 121.656 158.492 120.512 158.329 119.379C158.226 118.453 157.843 117.58 157.231 116.877C156.62 116.174 155.809 115.673 154.906 115.443" fill="white"/>
<path fill-rule="evenodd" clip-rule="evenodd" d="M97.2404 124.854V115.271C97.2404 115.065 97.2406 115.031 96.9668 115.031H93.5443C93.3389 115.031 93.3047 115.031 93.3047 115.271V134.403C93.3047 134.608 93.3047 134.676 93.5443 134.676H96.9668C97.1721 134.676 97.2404 134.676 97.2404 134.403V124.854Z" fill="white"/>
<path fill-rule="evenodd" clip-rule="evenodd" d="M93.2326 111.679C93.2326 111.679 93.2326 111.884 93.4379 111.884H96.8604C96.8604 111.884 97.0657 111.884 97.0657 111.679V107.983C97.0657 107.812 97.0657 107.777 96.8261 107.777H93.4037C93.2325 107.777 93.1641 107.777 93.1641 107.983C93.1641 109.215 93.1641 110.447 93.1641 111.679" fill="white"/>
<path fill-rule="evenodd" clip-rule="evenodd" d="M119.209 132.177V115.304C119.209 115.065 119.209 114.996 118.901 114.996H117.6C114.657 114.996 111.748 114.996 108.838 114.996C107.905 115.031 106.983 115.204 106.101 115.509C104.481 116.059 103.126 117.194 102.302 118.692C101.237 120.507 100.693 122.579 100.727 124.682C100.676 125.758 100.745 126.837 100.933 127.899C101.163 129.384 101.79 130.779 102.747 131.937C103.777 133.143 105.17 133.983 106.717 134.333C107.708 134.528 108.718 134.619 109.728 134.607H115.033C115.033 134.607 115.273 134.607 115.239 134.607C115.274 135.177 115.274 135.748 115.239 136.318C115.211 136.568 115.108 136.804 114.943 136.994C114.778 137.183 114.558 137.318 114.314 137.379C113.743 137.517 113.157 137.586 112.569 137.584H103.191C102.952 137.584 102.918 137.584 102.918 137.858V140.459C102.918 140.665 102.918 140.699 103.157 140.699H110.995C112.305 140.784 113.62 140.784 114.931 140.699C115.706 140.599 116.458 140.368 117.155 140.014C117.646 139.765 118.073 139.408 118.405 138.969C118.737 138.53 118.965 138.022 119.072 137.482C119.197 136.667 119.254 135.842 119.243 135.018C119.243 134.059 119.243 133.101 119.243 132.143L119.209 132.177ZM115.239 124.819V131.253C115.239 131.458 115.238 131.492 114.965 131.492C113.459 131.492 111.987 131.492 110.481 131.492C109.567 131.533 108.653 131.417 107.778 131.15C106.851 130.806 106.092 130.12 105.656 129.234C105.24 128.433 104.974 127.563 104.868 126.667C104.595 124.471 104.939 122.243 105.861 120.232C106.15 119.685 106.571 119.218 107.084 118.871C107.597 118.525 108.188 118.311 108.804 118.247C109.476 118.196 110.151 118.196 110.824 118.247H114.999C115.204 118.247 115.239 118.247 115.239 118.487V124.956" fill="white"/>
<path d="M159.998 114.034C160.513 114.034 161.007 114.237 161.374 114.597C161.742 114.958 161.952 115.449 161.961 115.964C161.952 116.487 161.738 116.987 161.364 117.354C160.991 117.721 160.487 117.927 159.963 117.927C159.443 117.927 158.943 117.72 158.575 117.352C158.207 116.984 158 116.484 158 115.964C158 115.443 158.207 114.943 158.575 114.575C158.943 114.207 159.443 114 159.963 114V114L159.998 114.034ZM159.963 117.445C160.372 117.436 160.761 117.27 161.05 116.981C161.339 116.692 161.505 116.303 161.513 115.895C161.458 115.528 161.273 115.192 160.992 114.95C160.711 114.708 160.352 114.575 159.981 114.575C159.609 114.575 159.251 114.708 158.969 114.95C158.688 115.192 158.503 115.528 158.448 115.895C158.456 116.297 158.618 116.682 158.899 116.97C159.181 117.257 159.561 117.427 159.963 117.445V117.445Z" fill="white"/>
<path d="M159.57 116.501V115.25H160.039C160.135 115.25 160.216 115.267 160.281 115.3C160.347 115.333 160.396 115.38 160.429 115.441C160.463 115.5 160.48 115.57 160.48 115.65C160.48 115.73 160.463 115.8 160.429 115.859C160.395 115.917 160.345 115.963 160.279 115.995C160.213 116.027 160.132 116.043 160.036 116.043H159.702V115.855H160.006C160.062 115.855 160.108 115.847 160.144 115.831C160.18 115.815 160.206 115.792 160.223 115.762C160.241 115.732 160.249 115.694 160.249 115.65C160.249 115.606 160.241 115.568 160.223 115.536C160.206 115.505 160.179 115.481 160.143 115.464C160.107 115.448 160.061 115.439 160.004 115.439H159.797V116.501H159.57ZM160.216 115.934L160.526 116.501H160.273L159.969 115.934H160.216Z" fill="white"/>
</g>
<defs>
<clipPath id="clip0_5535_2003">
<rect width="216" height="206.929" fill="white"/>
</clipPath>
</defs>
</svg>
