<svg width="216" height="207" viewBox="0 0 216 207" fill="none" xmlns="http://www.w3.org/2000/svg">
<g clip-path="url(#clip0_5527_648)">
<rect width="216" height="206.929" fill="#151517"/>
<path d="M115.595 59L107.863 72.7137L100.175 59H80.6641L107.863 107.066L135.062 59H115.595Z" fill="#8E8E8E"/>
<path d="M107.865 72.7138L100.133 59H90.332L107.865 89.9796L125.398 59H115.643L107.865 72.7138Z" fill="#454545"/>
<path d="M71.3169 140.832L63 114.844H66.5515L70.5077 127.658C71.5867 131.165 72.5308 134.313 73.2051 137.37C73.9244 134.358 74.9584 131.075 76.1273 127.703L80.3982 114.844H83.9049L74.9135 140.832H71.3169Z" fill="white"/>
<path d="M101.258 135.745C101.258 137.633 101.258 139.342 101.258 140.826H98.2907V137.768C97.6878 138.831 96.811 139.713 95.7515 140.322C94.6919 140.931 93.4885 141.245 92.2665 141.23C89.3893 141.23 85.9727 139.612 85.9727 133.047V122.166H89.2994V132.508C89.2994 136.015 90.3335 138.398 93.3456 138.398C94.3144 138.395 95.2602 138.102 96.0614 137.557C96.8626 137.012 97.4824 136.24 97.8413 135.34C98.0402 134.777 98.1464 134.184 98.1558 133.587V122.166H101.483L101.258 135.745Z" fill="white"/>
<path d="M108.629 132.109C108.554 132.88 108.633 133.658 108.859 134.398C109.086 135.138 109.456 135.827 109.948 136.424C110.441 137.021 111.047 137.515 111.731 137.878C112.414 138.241 113.163 138.466 113.934 138.539H114.878C116.619 138.591 118.352 138.269 119.958 137.595L120.542 139.978C118.615 140.813 116.528 141.212 114.428 141.147C113.306 141.207 112.183 141.046 111.124 140.672C110.064 140.298 109.089 139.718 108.253 138.966C107.418 138.214 106.739 137.305 106.256 136.29C105.773 135.276 105.494 134.176 105.437 133.053C105.392 132.62 105.392 132.183 105.437 131.749C105.287 130.515 105.394 129.262 105.753 128.071C106.112 126.88 106.714 125.776 107.521 124.829C108.328 123.883 109.322 123.114 110.442 122.571C111.561 122.029 112.781 121.725 114.024 121.678C115.132 121.711 116.221 121.978 117.219 122.461C118.217 122.944 119.101 123.633 119.814 124.482C120.527 125.331 121.053 126.321 121.357 127.388C121.661 128.454 121.735 129.573 121.577 130.67C121.621 131.194 121.621 131.72 121.577 132.244L108.629 132.109ZM118.384 129.681C118.565 128.424 118.241 127.146 117.483 126.127C116.725 125.108 115.594 124.43 114.338 124.241H113.754C112.37 124.364 111.083 124.999 110.143 126.022C109.203 127.045 108.679 128.382 108.674 129.771L118.384 129.681Z" fill="white"/>
<path d="M124.453 138.811C124.429 138.516 124.463 138.218 124.554 137.936C124.644 137.654 124.79 137.392 124.982 137.167C125.174 136.941 125.409 136.756 125.674 136.621C125.938 136.487 126.226 136.406 126.521 136.383C127 136.349 127.477 136.457 127.894 136.694C128.311 136.932 128.648 137.287 128.864 137.716C129.079 138.144 129.162 138.627 129.103 139.103C129.044 139.579 128.846 140.027 128.533 140.39C128.22 140.754 127.806 141.016 127.344 141.144C126.882 141.273 126.392 141.261 125.936 141.112C125.481 140.962 125.08 140.681 124.784 140.303C124.488 139.926 124.31 139.469 124.273 138.991V138.991" fill="white"/>
<path d="M128.59 146.224C129.94 146.213 131.238 145.7 132.231 144.785C133.131 143.706 133.445 142.222 133.445 137.771V122.169H136.772V139.075C136.94 140.435 136.836 141.816 136.465 143.136C136.095 144.456 135.465 145.689 134.614 146.764C133.026 148.101 131.025 148.847 128.949 148.877L128.59 146.224ZM137.177 116.908C137.202 117.43 137.024 117.942 136.681 118.336C136.337 118.73 135.854 118.975 135.333 119.021H135.288C134.755 119.022 134.242 118.816 133.857 118.448C133.472 118.079 133.244 117.576 133.22 117.043C133.208 116.502 133.408 115.978 133.778 115.583C134.148 115.187 134.658 114.953 135.199 114.93C135.727 114.93 136.235 115.137 136.613 115.506C136.992 115.876 137.21 116.379 137.222 116.908V116.908" fill="white"/>
<path d="M141.76 137.322C143.105 138.18 144.661 138.647 146.256 138.671C148.684 138.671 149.808 137.457 149.808 135.928C149.808 134.399 148.864 133.41 146.391 132.511C143.109 131.297 141.536 129.453 141.536 127.205C141.594 125.698 142.246 124.276 143.35 123.248C144.453 122.221 145.918 121.671 147.425 121.72H147.874C149.448 121.723 150.994 122.125 152.37 122.889L151.516 125.362C150.406 124.641 149.108 124.266 147.785 124.283C147.416 124.232 147.041 124.259 146.683 124.361C146.326 124.462 145.993 124.637 145.706 124.873C145.419 125.11 145.184 125.403 145.015 125.735C144.847 126.066 144.749 126.429 144.728 126.801C144.728 128.374 145.807 129.049 148.234 129.993C151.381 131.207 153 132.826 153 135.613C153 138.401 150.527 141.189 146.166 141.189C144.377 141.226 142.609 140.792 141.041 139.93L141.76 137.322Z" fill="white"/>
</g>
<defs>
<clipPath id="clip0_5527_648">
<rect width="216" height="206.929" fill="white"/>
</clipPath>
</defs>
</svg>
