<svg width="206" height="50" viewBox="0 0 206 50" fill="none" xmlns="http://www.w3.org/2000/svg">
<path d="M0 10.2689C0.34276 10.2689 0.554946 10.2689 0.783453 10.2689C2.43197 10.2689 4.0968 10.2689 5.74531 10.2689C6.4798 10.2689 6.4798 10.2689 6.61038 10.9545C7.55705 15.7857 8.50372 20.617 9.43407 25.4646C9.84212 27.5865 10.1686 29.7247 10.544 31.8629C10.544 31.9445 10.5766 32.0261 10.6092 32.2056C11.9966 24.7791 13.841 17.5812 15.5058 10.3179C15.7507 10.3016 15.9465 10.2689 16.1424 10.2689C17.8399 10.2689 19.5373 10.2689 21.2348 10.2689C21.9203 10.2689 21.9203 10.2689 22.0672 10.9545C23.2587 16.6671 24.4666 22.3961 25.6417 28.1088C25.9029 29.3656 26.0661 30.655 26.2946 31.9934C27.5514 24.6975 29.1509 17.5159 30.6362 10.3179H36.7896C36.7406 10.5627 36.7243 10.7586 36.6753 10.9381C35.1574 16.7161 33.6231 22.4941 32.1052 28.272C31.2238 31.618 30.3261 34.9477 29.4611 38.2937C29.3631 38.7017 29.1673 38.8649 28.7429 38.9302C27.7799 39.0771 26.8169 39.2077 25.8376 39.0445C24.2707 38.7997 23.1445 37.9672 22.5079 36.5472C22.1488 35.7638 21.953 34.8987 21.7571 34.0663C21.1042 31.161 20.4514 28.2394 19.8475 25.3177C19.3904 23.098 19.015 20.8455 18.6233 18.6094C18.5743 18.3646 18.558 18.1361 18.4438 17.8586C18.4111 17.9566 18.3622 18.0545 18.3458 18.1524C17.8235 20.5844 17.3339 23.049 16.7626 25.4646C15.767 29.6757 14.706 33.8704 13.6778 38.0652C13.5145 38.7507 13.5145 38.7507 12.7801 38.8976C11.6375 39.1098 10.495 39.224 9.35246 38.9139C8.3405 38.6364 7.55705 38.0815 6.98578 37.2001C6.41451 36.3187 6.1044 35.3557 5.85957 34.3601C4.84761 30.2307 3.85197 26.0849 2.84001 21.9554C1.94231 18.283 1.0446 14.5943 0.146897 10.9218C0.0979318 10.726 0.0816103 10.5301 0.0326446 10.2363L0 10.2689Z" fill="#A8A8A8"/>
<path d="M67.6211 17.3687H73.1053C73.2358 18.2827 73.1053 19.1804 73.1869 20.2087C74.1825 18.7397 75.3577 17.6788 76.9899 17.2218C78.6221 16.7648 80.2543 16.7158 81.8538 17.3197C83.4534 17.9236 84.5632 19.0825 85.3304 20.682C85.6405 20.3229 85.9016 20.0128 86.1791 19.7027C87.5338 18.1358 89.2313 17.1565 91.2879 16.9443C94.5686 16.6015 97.2291 17.9889 98.5838 21.0574C99.0245 22.0367 99.2856 23.0813 99.3835 24.1586C99.4652 24.9747 99.5141 25.8071 99.5141 26.6232C99.5141 30.4262 99.5141 34.2129 99.5141 38.0159C99.5141 38.2607 99.5141 38.5056 99.5141 38.7994C98.8449 39.0115 98.192 38.8973 97.5718 38.9136C96.9189 38.9299 96.2824 38.9136 95.6295 38.9136H93.6382C93.6219 38.5708 93.5893 38.3097 93.5893 38.0485C93.5893 34.3924 93.5893 30.72 93.5893 27.0639C93.5893 25.9866 93.4424 24.942 93.067 23.9137C92.2182 21.6124 89.7699 21.5144 88.3499 22.3469C87.24 22.9997 86.7177 24.0117 86.5382 25.2522C86.4892 25.5786 86.4892 25.9214 86.4892 26.2478C86.4892 30.1161 86.4892 33.968 86.4892 37.8363C86.4892 38.0159 86.4892 38.1954 86.4892 38.375C86.4566 38.8157 86.4076 38.8973 85.9832 38.8973C84.3021 38.8973 82.6373 38.8973 80.9561 38.8973C80.8582 38.8973 80.7439 38.8483 80.5807 38.7994C80.5807 38.5382 80.5807 38.277 80.5807 37.9996C80.5807 34.3435 80.597 30.671 80.5807 27.0149C80.5807 26.0193 80.5154 25.0073 80.1727 24.0606C79.3729 21.8572 77.4306 21.5308 75.9779 22.1184C74.5906 22.6733 73.8397 23.8321 73.5623 25.2848C73.4807 25.7255 73.4643 26.1662 73.4643 26.6232C73.4643 30.3936 73.4643 34.1802 73.4643 37.9506V38.783C72.8931 38.9789 68.3719 39.0115 67.6374 38.832V17.4013L67.6211 17.3687Z" fill="#A8A8A8"/>
<path d="M37.9981 22.7227C37.6227 21.4496 37.2473 20.1765 36.8882 18.9197C37.4432 18.3811 38.1287 18.2178 38.7653 17.9567C40.169 17.4018 41.6216 17.1243 43.1232 16.9774C44.6248 16.8468 46.0938 16.8305 47.5791 17.1243C51.0393 17.8098 53.2918 20.1438 53.8467 23.653C53.961 24.3549 54.0099 25.073 54.0099 25.7749C54.0263 28.1579 54.0099 30.5572 54.0099 32.9402C54.0099 34.8335 54.0915 36.7269 54.3527 38.6039C54.3527 38.6366 54.3364 38.6855 54.3201 38.7345C52.3941 39.5996 49.6193 39.3057 48.4768 36.6126C48.3789 36.6779 48.2973 36.7269 48.232 36.7922C47.0078 38.1632 45.4573 38.914 43.6618 39.1915C41.9644 39.4527 40.3322 39.3221 38.7979 38.4897C36.9209 37.4777 35.7784 35.9108 35.4519 33.7726C35.1581 31.8956 35.5662 30.1818 36.6434 28.6476C37.4269 27.5213 38.5041 26.7216 39.7283 26.1503C41.5073 25.3342 43.3844 24.8772 45.343 24.7629C46.1754 24.714 47.0242 24.6487 47.8566 24.5834C48.1014 23.3756 47.4648 22.1351 46.3223 21.6128C45.4736 21.2374 44.5595 21.1558 43.6455 21.1884C41.7359 21.2537 39.9568 21.7271 38.2919 22.6737C38.243 22.7064 38.1614 22.6901 38.0145 22.7064L37.9981 22.7227ZM48.0688 28.6149C46.3876 28.5333 44.8533 28.6802 43.417 29.2841C41.7685 29.986 41.2299 31.1121 41.4094 32.8096C41.5237 33.9032 42.2908 34.6377 43.3844 34.8825C44.1352 35.0457 44.8533 34.9641 45.5552 34.7193C46.9915 34.246 48.2157 32.8586 48.0851 31.259C48.0524 30.802 48.0851 30.3287 48.0851 29.8554C48.0851 29.4636 48.0851 29.0719 48.0851 28.6149H48.0688Z" fill="#A8A8A8"/>
<path d="M114.81 36.6122C114.434 36.9549 114.108 37.2814 113.732 37.5752C111.872 39.0441 109.733 39.5338 107.399 39.2237C105.718 38.9952 104.298 38.2933 103.205 36.9876C101.785 35.2901 101.409 33.3315 101.85 31.2096C102.307 29.0062 103.645 27.4719 105.588 26.411C107.465 25.399 109.489 24.9257 111.611 24.7625C112.476 24.6972 113.341 24.6482 114.189 24.5829C114.385 23.4241 113.896 22.3468 112.933 21.7755C112.361 21.4328 111.741 21.2696 111.088 21.2206C108.803 21.0574 106.665 21.5307 104.657 22.6569C104.608 22.6896 104.527 22.6896 104.396 22.7385C103.89 21.4817 103.613 20.176 103.205 18.8539C103.874 18.3969 104.608 18.1194 105.327 17.8583C107.628 17.0585 110.011 16.7484 112.443 16.9116C114.042 17.0259 115.56 17.4339 116.915 18.3316C118.302 19.2456 119.2 20.5024 119.755 22.0367C120.212 23.3261 120.359 24.6808 120.375 26.0519C120.375 28.8919 120.359 31.7156 120.375 34.5556C120.375 35.7634 120.506 36.9549 120.604 38.1464C120.653 38.8156 120.637 38.8972 120 39.0115C119.282 39.1257 118.564 39.24 117.813 39.0931C116.54 38.8646 115.658 38.1954 115.054 37.1018C114.973 36.9549 114.891 36.7917 114.793 36.6122H114.81ZM114.467 28.5981C112.688 28.5328 111.039 28.6797 109.489 29.4142C107.971 30.1487 107.448 31.5034 107.824 33.0866C108.052 34.0823 108.738 34.6372 109.701 34.8494C110.305 34.98 110.892 34.98 111.48 34.8168C112.884 34.425 113.945 33.6253 114.336 32.1889C114.646 31.0464 114.483 29.8549 114.467 28.5981Z" fill="#A8A8A8"/>
<path d="M139.014 10.3339C139.21 10.3012 139.34 10.2849 139.471 10.2849C141.038 10.2849 142.605 10.2849 144.155 10.2849C144.759 10.2849 144.808 10.3502 144.808 10.9378C144.808 12.6516 144.808 14.3817 144.808 16.0955C144.808 16.3567 144.808 16.6341 144.808 16.9769C146.44 17.0422 148.04 16.9769 149.623 17.0259C149.803 17.5155 149.852 21.645 149.688 22.608C148.105 22.7059 146.506 22.608 144.873 22.6569C144.857 22.8528 144.824 23.016 144.824 23.1955C144.824 25.9376 144.824 28.696 144.824 31.4381C144.824 31.9278 144.922 32.4174 145.069 32.8745C145.363 33.8048 146.032 34.2945 147.012 34.3108C147.42 34.3108 147.811 34.3271 148.219 34.3108C148.611 34.2781 149.003 34.1965 149.476 34.1149C149.541 34.5066 149.623 34.8657 149.639 35.2248C149.656 36.2531 149.639 37.2814 149.639 38.3097C149.639 38.6035 149.525 38.7667 149.248 38.8319C147.371 39.3053 145.494 39.5828 143.568 39.1258C141.266 38.5871 139.83 37.1182 139.308 34.8168C139.095 33.8375 138.949 32.8255 138.949 31.8462C138.916 24.991 138.932 18.1358 138.949 11.2642C138.949 10.9541 138.998 10.6603 139.014 10.3502V10.3339Z" fill="#A8A8A8"/>
<path d="M57.7958 10.2686C58.1548 10.2686 58.3833 10.2686 58.6282 10.2686C59.9176 10.2686 61.2234 10.2686 62.5128 10.2686C63.7533 10.2686 63.6553 10.187 63.6553 11.3785C63.6553 18.4622 63.6553 25.5296 63.6553 32.6133C63.6553 34.4413 63.6553 36.2694 63.6553 38.1138C63.6553 38.8646 63.6227 38.8972 62.8555 38.8972C61.3866 38.8972 59.9013 38.8972 58.4323 38.8972C57.7794 38.8972 57.7468 38.8483 57.7305 38.2117C57.7305 37.9669 57.7305 37.722 57.7305 37.4772C57.7305 28.745 57.7305 20.0128 57.7305 11.2806C57.7305 10.9704 57.7631 10.6603 57.7794 10.2686H57.7958Z" fill="#A8A8A8"/>
<path d="M136.646 17.1075V22.6569C136.401 22.6569 136.189 22.6569 135.961 22.6569C135.242 22.6569 134.524 22.5916 133.822 22.7059C131.831 23.0323 130.476 24.4687 130.232 26.4926C130.183 26.8517 130.183 27.2107 130.183 27.5535C130.183 30.9484 130.183 34.3434 130.183 37.7384C130.183 37.8689 130.183 37.9995 130.183 38.1464C130.183 38.8646 130.15 38.8972 129.415 38.8972C127.881 38.8972 126.331 38.8972 124.796 38.8972C124.584 38.8972 124.356 38.8646 124.16 38.8483C123.98 38.2933 123.964 18.0705 124.111 17.4176C124.649 17.2707 128.681 17.2544 129.383 17.4176C129.432 18.6744 129.383 19.9475 129.448 21.2533C130.199 19.3762 131.423 17.9725 133.316 17.2544C134.557 16.781 135.683 16.7484 136.613 17.0912L136.646 17.1075Z" fill="#A8A8A8"/>
<path d="M184.274 2.94022C184.16 4.24597 184.029 5.61701 183.915 6.98805C183.817 8.17955 183.703 9.38737 183.605 10.5789C183.474 12.0642 183.327 13.5494 183.197 15.0347C183.148 15.606 182.805 15.9977 182.348 16.2426C181.352 16.7975 180.34 16.7812 179.361 16.1773C178.904 15.8998 178.643 15.4591 178.594 14.9042C178.366 12.1458 178.121 9.40368 177.892 6.64528C177.794 5.45378 177.696 4.24596 177.549 3.05446C177.386 1.65078 177.892 0.997915 179.035 0.44297C180.292 -0.160941 181.597 -0.144637 182.838 0.475596C183.278 0.704103 183.654 1.07952 184.013 1.45492C184.388 1.84665 184.29 2.36895 184.274 2.94022Z" fill="#A8A8A8"/>
<path d="M184.323 46.6343C184.47 47.4667 183.849 48.1685 182.935 48.6256C181.368 49.409 179.834 49.3111 178.381 48.2991C177.745 47.8584 177.467 47.2382 177.533 46.4547C177.696 44.7083 177.843 42.9455 177.99 41.1991C178.186 38.963 178.398 36.7106 178.577 34.4745C178.659 33.5115 179.067 32.9402 179.981 32.6791C180.732 32.4669 181.483 32.4669 182.201 32.8259C182.772 33.1197 183.131 33.5441 183.196 34.2296C183.49 37.592 183.8 40.9706 184.094 44.3329C184.159 45.0021 184.208 45.6713 184.306 46.6506L184.323 46.6343Z" fill="#A8A8A8"/>
<path d="M159.055 34.5559C159.104 33.7398 159.446 32.9727 160.426 32.532C164.082 30.8508 167.705 29.1533 171.345 27.4395C172.047 27.1131 172.651 27.211 173.222 27.6354C173.908 28.1577 174.316 28.8595 174.43 29.7246C174.528 30.4428 174.299 30.9814 173.695 31.3894C172.194 32.434 170.692 33.495 169.207 34.5396C167.395 35.8127 165.583 37.0531 163.788 38.3426C162.923 38.9628 162.107 38.9465 161.242 38.4079C159.985 37.6571 159.071 36.0901 159.087 34.5232L159.055 34.5559Z" fill="#A8A8A8"/>
<path d="M174.435 19.1965C174.386 20.1921 173.945 20.9919 173.145 21.5795C172.591 21.9712 172.003 22.0528 171.383 21.7427C170.256 21.2041 169.114 20.6818 167.988 20.1595C165.621 19.0496 163.254 17.956 160.888 16.8461C160.822 16.8135 160.773 16.7972 160.708 16.7645C159.288 16.0953 158.815 15.2303 159.158 13.696C159.484 12.2597 160.267 11.1335 161.671 10.4969C162.357 10.1868 163.01 10.2684 163.63 10.6928C166.959 13.0431 170.305 15.3935 173.651 17.7275C174.174 18.0866 174.468 18.5436 174.435 19.1802V19.1965Z" fill="#A8A8A8"/>
<path d="M202.8 34.7352C202.62 36.4327 201.853 37.7874 200.27 38.6035C199.552 38.9626 198.834 38.9136 198.132 38.4076C194.835 36.0736 191.521 33.7559 188.208 31.4545C187.523 30.9648 187.294 30.3283 187.441 29.5448C187.588 28.745 188.029 28.1085 188.665 27.6188C189.204 27.2108 189.775 27.1129 190.412 27.423C193.398 28.8267 196.402 30.214 199.389 31.6177C200.058 31.9278 200.711 32.2706 201.396 32.5317C202.392 32.9398 202.718 33.7232 202.8 34.7515V34.7352Z" fill="#A8A8A8"/>
<path d="M202.784 14.3328C202.735 15.4101 202.392 16.1772 201.429 16.6179C198.54 17.9399 195.684 19.2783 192.811 20.6167C191.995 20.9921 191.195 21.3676 190.379 21.7593C189.955 21.9715 189.53 21.9878 189.09 21.8082C188.159 21.4165 187.343 20.1924 187.36 19.1967C187.36 18.5765 187.637 18.1032 188.159 17.7441C190.396 16.1935 192.615 14.6266 194.851 13.0597C195.929 12.3089 197.022 11.5744 198.083 10.7746C198.932 10.1381 199.748 10.2197 200.58 10.7257C201.674 11.3785 202.327 12.3578 202.653 13.582C202.735 13.8595 202.767 14.1533 202.8 14.3491L202.784 14.3328Z" fill="#A8A8A8"/>
<path d="M204.807 36.6941C205.476 36.6941 205.982 37.1348 205.998 37.7877C206.014 38.4079 205.508 38.9139 204.856 38.9465C204.203 38.9628 203.68 38.4732 203.664 37.853C203.664 37.2164 204.154 36.7267 204.807 36.7104V36.6941ZM204.252 37.2164C204.121 37.6245 204.121 38.0162 204.252 38.4242C204.529 38.3589 204.807 38.718 205.182 38.3589C204.97 38.3263 204.856 38.2773 204.741 38.2936C204.578 38.31 204.415 38.3752 204.252 38.4242C204.252 38.0325 204.252 37.6244 204.252 37.2327H205.068C205.068 37.2327 205.068 37.1348 205.051 37.0858C204.79 37.1348 204.513 37.1838 204.252 37.2327V37.2164ZM205.345 38.0162C205.345 38.0162 205.443 38.0162 205.508 38.0325V37.6408C205.508 37.6408 205.443 37.6408 205.427 37.6408C205.41 37.7713 205.378 37.9019 205.362 38.0162H205.345Z" fill="#A8A8A8"/>
</svg>
