<svg width="100" height="100" viewBox="0 0 100 100" fill="none" xmlns="http://www.w3.org/2000/svg">
<path d="M2.01562 29.4672C2.54697 28.8704 3.14372 28.4126 3.99388 28.7723C4.82768 29.1238 4.92578 29.8514 4.92578 30.6607C4.9176 43.176 4.92578 55.6831 4.92578 68.1984C4.92578 69.2011 5.43805 69.7025 6.4626 69.7025C35.793 69.7025 65.1153 69.7025 94.4457 69.7025C95.4866 69.7025 96.0071 69.1793 96.0071 68.133C96.0071 51.2688 96.0071 34.4128 96.0071 17.5486C96.0071 16.5513 95.4948 16.0527 94.4702 16.0527C92.0097 16.0527 89.5491 16.0527 87.0886 16.0527C86.8025 16.0527 86.5164 16.0527 86.2384 16.0445C85.4373 15.9954 84.7261 15.7911 84.44 14.9246C84.1539 14.0499 84.628 13.4858 85.282 13.0117H96.4485C98.2633 13.7066 98.999 15.0063 98.999 16.9682C98.9581 30.8323 98.9744 44.7046 98.9744 58.5687C98.9744 62.1655 98.9826 65.7542 98.9744 69.351C98.9663 71.0758 97.8791 72.3511 96.1869 72.6617C95.6637 72.7598 95.1242 72.7843 94.5929 72.7843C84.9387 72.7843 75.2927 72.7843 65.6385 72.7843C64.2488 72.7843 62.8591 72.8089 61.4776 72.7843C60.7909 72.768 60.5048 73.0132 60.5293 73.7162C60.562 74.9751 60.5784 76.2422 60.5293 77.5011C60.4885 78.3594 60.7746 78.67 61.6493 78.6537C64.4205 78.6128 67.1998 78.6128 69.971 78.6537C73.0365 78.6864 74.7531 80.4521 74.7613 83.5012C74.7613 83.8446 74.7613 84.1961 74.7613 84.5394C74.7613 86.4686 74.3853 86.8365 72.4234 86.8365C57.7909 86.8365 43.1583 86.8365 28.5258 86.8365C28.1825 86.8365 27.831 86.8528 27.4876 86.8038C26.8337 86.7057 26.3023 86.3296 26.2451 85.6757C26.147 84.3596 25.9917 83.0271 26.3677 81.7355C26.94 79.79 28.6076 78.67 30.9537 78.6455C33.7576 78.621 36.5696 78.621 39.3735 78.6455C40.1583 78.6537 40.4444 78.3839 40.4117 77.5992C40.3626 76.4629 40.4035 75.3266 40.4035 74.1985C40.4035 73.2612 39.9348 72.7925 38.9975 72.7925C28.019 72.7925 17.0487 72.7843 6.07022 72.7925C4.17372 72.7925 2.75951 72.1304 2.01562 70.3156V29.4672V29.4672ZM50.4582 83.7383C55.7881 83.7383 61.1179 83.7383 66.4396 83.7383C67.9519 83.7383 69.4642 83.7219 70.9765 83.7383C71.7694 83.7465 71.8839 83.3541 71.6713 82.7083C71.3607 81.7437 70.5759 81.7192 69.7585 81.7192C56.8917 81.7192 44.033 81.7192 31.1662 81.7192C30.9128 81.7192 30.6594 81.711 30.4142 81.7355C29.5885 81.8418 29.1634 82.3813 29.1716 83.1497C29.1798 84.0407 29.9482 83.7138 30.3978 83.7138C37.0846 83.7383 43.7633 83.7301 50.4501 83.7301L50.4582 83.7383ZM50.5155 78.6292C52.5019 78.6292 54.4801 78.6046 56.4666 78.6373C57.2105 78.6537 57.4639 78.3676 57.4475 77.64C57.4067 76.3239 57.4148 74.9996 57.4475 73.6754C57.4639 73.0296 57.2105 72.7762 56.5647 72.7762C52.5019 72.7925 48.4473 72.7925 44.3845 72.7762C43.7306 72.7762 43.4935 73.0377 43.5017 73.6754C43.5262 74.9996 43.5344 76.3158 43.5017 77.64C43.4771 78.3758 43.7469 78.6455 44.4826 78.6373C46.4936 78.6046 48.5127 78.6292 50.5236 78.6292H50.5155Z" fill="#727272"/>
<path d="M79.7976 13.0163C80.4597 13.4741 80.9584 14.0218 80.6641 14.9047C80.3861 15.7548 79.6831 15.9919 78.882 16.0409C78.4733 16.0655 78.0646 16.0573 77.6558 16.0573C54.1048 16.0573 30.562 16.0573 7.01102 16.0573C6.69221 16.0573 6.38158 16.0818 6.06277 16.0573C5.22079 15.9756 4.87746 16.3025 4.90198 17.1936C4.95103 19.18 4.90198 21.1664 4.9265 23.1447C4.9265 23.9213 4.79571 24.6243 3.97825 24.9104C3.15262 25.2047 2.50682 24.8777 2.01635 24.1828C2.01635 20.7086 2.04087 17.2426 2 13.7766C2 13.1226 2.13079 13 2.77659 13C28.453 13.0245 54.1294 13.0163 79.7976 13.0163Z" fill="#727272"/>
<path d="M24.922 40.5087C20.9818 40.5087 17.0417 40.5087 13.1015 40.5087C11.581 40.5087 11.0742 40.0019 11.0742 38.4569C11.0742 33.7974 11.0742 29.1297 11.0742 24.4702C11.0742 22.917 11.581 22.4102 13.1015 22.4102C20.9818 22.4102 28.8621 22.4102 36.7424 22.4102C38.2629 22.4102 38.7697 22.917 38.7697 24.462C38.7697 29.1215 38.7697 33.7892 38.7697 38.4487C38.7697 40.0264 38.2629 40.5087 36.6525 40.5087C32.7451 40.5087 28.8376 40.5087 24.922 40.5087V40.5087ZM24.8239 37.5413C28.1019 37.5413 31.3799 37.5168 34.6497 37.5577C35.4345 37.5658 35.6879 37.3043 35.6797 36.5277C35.647 33.1597 35.647 29.7918 35.6797 26.4239C35.6797 25.68 35.4999 25.3285 34.6743 25.3694C33.5135 25.4266 32.3445 25.4184 31.1755 25.3694C30.4807 25.3448 30.2191 25.5901 30.2355 26.2931C30.2682 27.8626 30.26 29.4403 30.2355 31.018C30.2109 32.702 29.091 33.5112 27.685 32.6284C25.7558 31.4186 24.0636 31.4267 22.1344 32.6284C20.7284 33.5031 19.6003 32.702 19.584 31.018C19.5594 29.4403 19.5513 27.8708 19.584 26.2931C19.6003 25.5901 19.3387 25.3448 18.6439 25.3694C17.4831 25.4102 16.3141 25.4266 15.1452 25.3694C14.3195 25.3285 14.1397 25.68 14.1397 26.4239C14.1642 29.7918 14.1724 33.1597 14.1397 36.5277C14.1397 37.3043 14.3768 37.5658 15.1697 37.5577C18.3823 37.525 21.5949 37.5413 24.8075 37.5413H24.8239ZM27.1536 27.2495C27.1373 25.1078 27.3662 25.3939 25.3062 25.3857C22.6331 25.3694 22.6658 25.3857 22.674 28.0915C22.674 28.958 22.9601 28.9744 23.5895 28.6147C24.2598 28.2386 24.9383 28.0098 25.7394 28.3531C27.1455 28.958 27.1618 28.9253 27.1618 27.3476V27.2495H27.1536Z" fill="#727272"/>
<path d="M24.9275 45.1289C28.7777 45.1289 32.6198 45.1289 36.47 45.1289C38.2603 45.1289 38.7671 45.6521 38.7753 47.4505C38.7753 51.9874 38.7753 56.5243 38.7753 61.0612C38.7753 62.8351 38.2439 63.3501 36.4455 63.3582C34.2384 63.3582 32.0312 63.3582 29.8241 63.3582C29.6034 63.3582 29.3827 63.3582 29.1619 63.3337C28.2627 63.2274 27.6251 62.598 27.6088 61.8296C27.5924 61.0285 28.2627 60.3091 29.2028 60.2846C30.7805 60.2355 32.3582 60.2682 33.9277 60.2601C35.8406 60.2519 35.6689 60.4317 35.6689 58.5434C35.6689 55.5188 35.6689 52.4942 35.6689 49.4696C35.6689 48.2352 35.6689 48.2352 34.3937 48.2352C33.2901 48.2352 32.1865 48.2516 31.083 48.2352C30.4699 48.2189 30.241 48.4723 30.2492 49.0772C30.2737 50.6222 30.2655 52.1672 30.2492 53.7122C30.2328 55.5188 29.1211 56.3117 27.6088 55.3798C25.7368 54.219 24.1101 54.2109 22.2299 55.3798C20.7094 56.3199 19.5977 55.527 19.5813 53.7286C19.565 52.2163 19.5568 50.704 19.5813 49.1917C19.5977 48.5132 19.3851 48.2107 18.6658 48.2352C17.4723 48.2761 16.2706 48.2679 15.069 48.2352C14.4477 48.2189 14.1452 48.4069 14.1452 49.0854C14.1697 52.5187 14.1697 55.9521 14.1452 59.3936C14.1452 60.1375 14.4804 60.2846 15.1262 60.2846C17.366 60.2601 19.6059 60.2764 21.8457 60.2846C22.2217 60.2846 22.6059 60.2682 22.9656 60.4072C23.6278 60.6688 23.9874 61.1593 23.9793 61.8541C23.9711 62.5081 23.6359 63.0067 22.9983 63.2111C22.6713 63.3174 22.3198 63.3746 21.9765 63.3746C19.0091 63.3828 16.0499 63.3909 13.0825 63.3746C11.6602 63.3746 11.0634 62.7697 11.0552 61.3473C11.0389 56.6224 11.0389 51.8975 11.0552 47.1644C11.0552 45.742 11.652 45.1534 13.0825 45.1534C17.0227 45.1371 20.9628 45.1534 24.903 45.1534L24.9275 45.1289ZM24.9847 48.2271C23.4479 48.2271 22.6822 48.99 22.6877 50.516C22.6877 50.6386 22.6958 50.7694 22.6877 50.892C22.6223 51.6849 22.9656 51.7503 23.5705 51.3988C24.3798 50.9165 25.1973 50.8348 26.0801 51.2844C27.1346 51.8239 27.1592 51.783 27.1592 50.5568C27.1592 50.4914 27.1592 50.4342 27.1592 50.3688C27.1265 47.9001 27.4862 48.2761 24.9929 48.2352L24.9847 48.2271Z" fill="#727272"/>
<path d="M83.5812 37.6717C82.0689 37.6717 80.5566 37.688 79.0443 37.6717C77.9244 37.6553 77.3276 37.1158 77.3194 35.9959C77.2867 32.9713 77.2867 29.9467 77.3194 26.9302C77.3276 25.8103 77.9244 25.2626 79.0443 25.2544C82.0689 25.2381 85.0935 25.2381 88.1181 25.2544C89.238 25.2544 89.8347 25.8103 89.8511 26.9221C89.8838 29.9467 89.8838 32.9713 89.8511 35.9877C89.8429 37.1076 89.238 37.6471 88.1263 37.6635C86.614 37.6798 85.1017 37.6635 83.5894 37.6635L83.5812 37.6717ZM80.4094 32.1129C81.7255 30.7968 83.0171 29.5052 84.3087 28.2218C83.2787 28.2218 82.1506 28.2218 81.0225 28.2218C80.5811 28.2218 80.4013 28.4507 80.4013 28.8676C80.4013 29.9712 80.4013 31.0666 80.4013 32.1129H80.4094ZM86.7529 30.7886C85.4286 32.1048 84.1371 33.3963 82.8291 34.6961C83.8836 34.6961 85.0036 34.6961 86.1317 34.6961C86.5731 34.6961 86.7529 34.4754 86.7529 34.0585C86.7529 32.9549 86.7529 31.8595 86.7529 30.7968V30.7886Z" fill="#727272"/>
<path d="M83.489 60.527C82.0748 60.527 80.6525 60.5433 79.2382 60.527C77.9303 60.5024 77.3254 59.9057 77.3172 58.5978C77.2927 55.704 77.2927 52.802 77.3172 49.9082C77.3254 48.6002 77.9303 47.9953 79.2382 47.9871C82.1402 47.9626 85.034 47.9626 87.936 47.9871C89.2439 47.9953 89.8489 48.6002 89.8652 49.9082C89.8897 52.802 89.8897 55.704 89.8652 58.5978C89.857 59.9057 89.2439 60.5024 87.936 60.527C86.4564 60.5515 84.9768 60.527 83.4972 60.527H83.489ZM86.7589 54.2734C86.7589 53.4559 86.7507 52.6385 86.7589 51.821C86.767 51.3142 86.5627 51.069 86.0313 51.069C84.3964 51.0771 82.7615 51.0771 81.1184 51.069C80.5952 51.069 80.3909 51.306 80.3909 51.8129C80.399 53.4151 80.4072 55.0255 80.3909 56.6277C80.3909 57.1754 80.5952 57.437 81.1675 57.4288C82.7697 57.4124 84.3801 57.4124 85.9823 57.4288C86.5545 57.4288 86.7752 57.1836 86.7589 56.6277C86.7425 55.8429 86.7589 55.0582 86.7589 54.2652V54.2734Z" fill="#727272"/>
<path d="M58.0128 55.8009C54.0073 55.8009 50.0099 55.8009 46.0044 55.8009C45.751 55.8009 45.4975 55.8009 45.2441 55.8009C44.0179 55.7682 43.2495 55.1633 43.2659 54.2314C43.2822 53.2995 44.0343 52.7109 45.285 52.7109C53.7948 52.7109 62.3045 52.7109 70.8061 52.7109C72.0404 52.7109 72.8007 53.3404 72.7843 54.2723C72.768 55.196 72.0077 55.7764 70.7652 55.8009C70.5118 55.8009 70.2584 55.8009 70.005 55.8009C65.9994 55.8009 62.002 55.8009 57.9965 55.8009H58.0128Z" fill="#727272"/>
<path d="M57.8473 40.5136C53.7764 40.5136 49.7136 40.5136 45.6427 40.5136C45.3566 40.5136 45.0704 40.5136 44.7925 40.5136C43.787 40.4646 43.2066 39.9087 43.223 39.0095C43.2312 38.143 43.7952 37.6116 44.7435 37.5544C44.9315 37.5462 45.1195 37.5544 45.3075 37.5544C53.7273 37.5544 62.1472 37.5544 70.567 37.5544C70.755 37.5544 70.943 37.5544 71.131 37.5544C72.0875 37.6116 72.6433 38.143 72.6515 39.0095C72.6597 39.9087 72.0875 40.4646 71.082 40.5136C70.7959 40.53 70.518 40.5136 70.2318 40.5136C66.1037 40.5136 61.9673 40.5136 57.8392 40.5136H57.8473Z" fill="#727272"/>
<path d="M52.8288 63.3648C50.3683 63.3648 47.9077 63.3648 45.4553 63.3648C45.0139 63.3648 44.5725 63.3648 44.1637 63.1523C43.5997 62.8743 43.2891 62.4084 43.2891 61.7953C43.2891 61.1822 43.616 60.7244 44.1801 60.4465C44.6215 60.2339 45.0956 60.2503 45.5698 60.2503C50.4582 60.2503 55.3466 60.2503 60.2268 60.2503C60.4475 60.2503 60.6682 60.2503 60.889 60.2666C61.8045 60.3566 62.4094 60.9533 62.4258 61.7626C62.4503 62.6046 61.8209 63.2422 60.8644 63.3403C60.5865 63.3648 60.3004 63.3566 60.0143 63.3566C57.6191 63.3566 55.224 63.3566 52.8288 63.3566V63.3648Z" fill="#727272"/>
<path d="M51.888 22.4112C54.2505 22.4112 56.6211 22.3866 58.9836 22.4193C60.2588 22.4357 60.9618 23.6047 60.3733 24.6428C60.0545 25.1987 59.5476 25.3785 58.9427 25.3785C54.2423 25.3785 49.5419 25.3785 44.8416 25.3785C43.8116 25.3785 43.2393 24.8227 43.223 23.9235C43.2066 22.9916 43.8034 22.4275 44.8906 22.4193C47.2204 22.403 49.5583 22.4193 51.8962 22.4193L51.888 22.4112Z" fill="#727272"/>
<path d="M64.856 29.9685C66.8751 29.9685 68.8861 29.9603 70.9052 29.9685C72.066 29.9685 72.6791 30.508 72.6709 31.4644C72.6627 32.4127 72.0578 32.9277 70.8725 32.9277C66.777 32.9277 62.6816 32.9277 58.5861 32.9277C57.4417 32.9277 56.8122 32.3718 56.8204 31.4317C56.8286 30.4916 57.458 29.9767 58.627 29.9685C60.7033 29.9603 62.7878 29.9685 64.8642 29.9685H64.856Z" fill="#727272"/>
<path d="M49.0948 45.1401C50.4191 45.1401 51.7352 45.1237 53.0595 45.1401C54.1957 45.1564 54.8497 45.7123 54.8742 46.6279C54.8987 47.5925 54.2366 48.2137 53.0595 48.2219C50.4191 48.2464 47.7705 48.2464 45.1301 48.2219C43.9857 48.2137 43.2418 47.5352 43.2745 46.636C43.3072 45.7613 44.0184 45.1646 45.1219 45.1483C46.4462 45.1237 47.7623 45.1483 49.0866 45.1483L49.0948 45.1401Z" fill="#727272"/>
<path d="M48.5693 32.9399C47.3104 32.9399 46.0515 32.9562 44.7926 32.9399C43.7872 32.9235 43.2068 32.3513 43.2149 31.4602C43.2149 30.5692 43.7953 29.997 44.809 29.9888C47.3594 29.9725 49.9017 29.9725 52.4522 29.9888C53.4332 29.9888 54.079 30.5856 54.1035 31.4276C54.128 32.3022 53.4659 32.9317 52.4359 32.948C51.1443 32.9644 49.8609 32.948 48.5693 32.948V32.9399Z" fill="#727272"/>
</svg>
