<svg width="91" height="91" viewBox="0 0 91 91" fill="none" xmlns="http://www.w3.org/2000/svg">
<path d="M0.015625 26.4494C0.51411 25.8896 1.07395 25.4601 1.87152 25.7976C2.65376 26.1273 2.74579 26.8099 2.74579 27.5691C2.73812 39.3103 2.74579 51.0439 2.74579 62.7851C2.74579 63.7259 3.22638 64.1962 4.18756 64.1962C31.7039 64.1962 59.2126 64.1962 86.729 64.1962C87.7055 64.1962 88.1938 63.7054 88.1938 62.7238C88.1938 46.9026 88.1938 31.0892 88.1938 15.268C88.1938 14.3324 87.7132 13.8646 86.752 13.8646C84.4436 13.8646 82.1353 13.8646 79.8269 13.8646C79.5585 13.8646 79.2901 13.8646 79.0293 13.8569C78.2778 13.8109 77.6106 13.6192 77.3422 12.8063C77.0737 11.9857 77.5185 11.4565 78.1321 11.0117H88.6079C90.3104 11.6636 91.0006 12.883 91.0006 14.7235C90.9623 27.7301 90.9776 40.7444 90.9776 53.7511C90.9776 57.1254 90.9853 60.4921 90.9776 63.8665C90.97 65.4846 89.95 66.681 88.3625 66.9724C87.8717 67.0644 87.3655 67.0874 86.8671 67.0874C77.81 67.0874 68.7605 67.0874 59.7035 67.0874C58.3997 67.0874 57.096 67.1105 55.7999 67.0874C55.1557 67.0721 54.8873 67.3022 54.9103 67.9617C54.941 69.1427 54.9563 70.3314 54.9103 71.5125C54.872 72.3177 55.1404 72.6091 55.961 72.5938C58.5608 72.5554 61.1682 72.5554 63.768 72.5938C66.6439 72.6245 68.2544 74.281 68.2621 77.1415C68.2621 77.4636 68.2621 77.7934 68.2621 78.1155C68.2621 79.9254 67.9093 80.2705 66.0687 80.2705C52.3412 80.2705 38.6137 80.2705 24.8862 80.2705C24.5641 80.2705 24.2343 80.2858 23.9122 80.2398C23.2987 80.1478 22.8002 79.795 22.7465 79.1815C22.6545 77.9468 22.5088 76.6967 22.8616 75.485C23.3984 73.6598 24.9629 72.6091 27.1639 72.5861C29.7943 72.5631 32.4325 72.5631 35.063 72.5861C35.7992 72.5938 36.0676 72.3407 36.0369 71.6045C35.9909 70.5385 36.0292 69.4725 36.0292 68.4142C36.0292 67.5348 35.5896 67.0951 34.7102 67.0951C24.4107 67.0951 14.1189 67.0875 3.81945 67.0951C2.04024 67.0951 0.713504 66.4739 0.015625 64.7714V26.4494ZM45.4621 77.3639C50.4623 77.3639 55.4625 77.3639 60.455 77.3639C61.8738 77.3639 63.2925 77.3486 64.7113 77.3639C65.4552 77.3716 65.5626 77.0035 65.3632 76.3976C65.0718 75.4927 64.3355 75.4697 63.5686 75.4697C51.4976 75.4697 39.4343 75.4697 27.3633 75.4697C27.1255 75.4697 26.8878 75.462 26.6577 75.485C25.8832 75.5847 25.4844 76.0909 25.492 76.8117C25.4997 77.6477 26.2206 77.3409 26.6424 77.3409C32.9156 77.3639 39.1812 77.3562 45.4544 77.3562L45.4621 77.3639ZM45.5158 72.5708C47.3794 72.5708 49.2353 72.5478 51.0988 72.5785C51.7967 72.5938 52.0345 72.3254 52.0191 71.6428C51.9808 70.4081 51.9884 69.1658 52.0191 67.9234C52.0345 67.3175 51.7967 67.0798 51.1909 67.0798C47.3794 67.0951 43.5755 67.0951 39.764 67.0798C39.1505 67.0798 38.9281 67.3252 38.9358 67.9234C38.9588 69.1658 38.9665 70.4005 38.9358 71.6428C38.9128 72.333 39.1659 72.5861 39.8561 72.5785C41.7427 72.5478 43.6369 72.5708 45.5235 72.5708H45.5158Z" fill="white"/>
<path d="M72.9859 11.0153C73.6071 11.4448 74.0749 11.9586 73.7988 12.7869C73.538 13.5845 72.8785 13.8069 72.1269 13.8529C71.7435 13.8759 71.36 13.8682 70.9766 13.8682C48.8822 13.8682 26.7955 13.8682 4.7011 13.8682C4.40201 13.8682 4.11058 13.8912 3.81149 13.8682C3.02159 13.7915 2.69949 14.0983 2.72249 14.9342C2.76851 16.7978 2.72249 18.6613 2.7455 20.5172C2.7455 21.2458 2.6228 21.9053 1.8559 22.1737C1.08133 22.4498 0.475478 22.1431 0.015338 21.4912C0.015338 18.2319 0.038345 14.9802 0 11.7286C0 11.115 0.122704 11 0.728555 11C24.8169 11.023 48.9052 11.0153 72.9859 11.0153Z" fill="white"/>
<path d="M21.503 36.8073C17.8065 36.8073 14.1101 36.8073 10.4136 36.8073C8.9872 36.8073 8.51172 36.3318 8.51172 34.8824C8.51172 30.511 8.51172 26.132 8.51172 21.7607C8.51172 20.3036 8.9872 19.8281 10.4136 19.8281C17.8065 19.8281 25.1995 19.8281 32.5924 19.8281C34.0188 19.8281 34.4943 20.3036 34.4943 21.753C34.4943 26.1244 34.4943 30.5034 34.4943 34.8747C34.4943 36.3548 34.0188 36.8073 32.508 36.8073C28.8422 36.8073 25.1765 36.8073 21.503 36.8073ZM21.411 34.0234C24.4862 34.0234 27.5615 34.0004 30.6291 34.0388C31.3653 34.0465 31.6031 33.801 31.5954 33.0725C31.5647 29.9129 31.5647 26.7532 31.5954 23.5936C31.5954 22.8957 31.4267 22.566 30.6521 22.6043C29.5631 22.658 28.4665 22.6503 27.3698 22.6043C26.7179 22.5813 26.4725 22.8114 26.4879 23.4709C26.5185 24.9433 26.5109 26.4235 26.4879 27.9036C26.4648 29.4834 25.4142 30.2426 24.0951 29.4144C22.2852 28.2794 20.6978 28.287 18.8879 29.4144C17.5688 30.235 16.5105 29.4834 16.4951 27.9036C16.4721 26.4235 16.4645 24.951 16.4951 23.4709C16.5105 22.8114 16.2651 22.5813 15.6132 22.6043C14.5242 22.6426 13.4275 22.658 12.3309 22.6043C11.5563 22.566 11.3876 22.8957 11.3876 23.5936C11.4106 26.7532 11.4183 29.9129 11.3876 33.0725C11.3876 33.801 11.61 34.0465 12.3539 34.0388C15.3678 34.0081 18.3817 34.0234 21.3956 34.0234H21.411ZM23.5966 24.3682C23.5813 22.3589 23.796 22.6273 21.8634 22.6196C19.3557 22.6043 19.3864 22.6196 19.394 25.1581C19.394 25.971 19.6624 25.9863 20.253 25.6489C20.8818 25.2961 21.5183 25.0814 22.2699 25.4035C23.589 25.971 23.6043 25.9403 23.6043 24.4602V24.3682H23.5966Z" fill="white"/>
<path d="M21.5102 41.1445C25.1223 41.1445 28.7267 41.1445 32.3388 41.1445C34.0183 41.1445 34.4938 41.6353 34.5015 43.3225C34.5015 47.5788 34.5015 51.8351 34.5015 56.0914C34.5015 57.7556 34.003 58.2387 32.3158 58.2464C30.2452 58.2464 28.1745 58.2464 26.1039 58.2464C25.8968 58.2464 25.6898 58.2464 25.4827 58.2234C24.6391 58.1237 24.0409 57.5332 24.0256 56.8123C24.0103 56.0607 24.6391 55.3859 25.5211 55.3629C27.0012 55.3168 28.4813 55.3475 29.9537 55.3398C31.7483 55.3322 31.5872 55.5009 31.5872 53.7294C31.5872 50.8918 31.5872 48.0543 31.5872 45.2168C31.5872 44.0587 31.5872 44.0588 30.3909 44.0588C29.3556 44.0588 28.3202 44.0741 27.2849 44.0588C26.7098 44.0434 26.495 44.2812 26.5027 44.8487C26.5257 46.2981 26.518 47.7475 26.5027 49.197C26.4874 50.8918 25.4444 51.6357 24.0256 50.7615C22.2694 49.6725 20.7433 49.6648 18.9794 50.7615C17.553 51.6434 16.51 50.8995 16.4946 49.2123C16.4793 47.7936 16.4716 46.3748 16.4946 44.956C16.51 44.3195 16.3106 44.0357 15.6357 44.0588C14.516 44.0971 13.3887 44.0894 12.2614 44.0588C11.6785 44.0434 11.3948 44.2198 11.3948 44.8563C11.4178 48.0773 11.4178 51.2983 11.3948 54.5269C11.3948 55.2248 11.7092 55.3629 12.315 55.3629C14.4163 55.3398 16.5177 55.3552 18.619 55.3629C18.9717 55.3629 19.3322 55.3475 19.6696 55.4779C20.2908 55.7233 20.6282 56.1834 20.6206 56.8353C20.6129 57.4488 20.2985 57.9166 19.7003 58.1084C19.3935 58.2081 19.0638 58.2617 18.7417 58.2617C15.9578 58.2694 13.1816 58.2771 10.3978 58.2617C9.06338 58.2617 8.50355 57.6942 8.49588 56.3598C8.48054 51.9271 8.48054 47.4945 8.49588 43.0541C8.49588 41.7197 9.05572 41.1675 10.3978 41.1675C14.0942 41.1522 17.7907 41.1675 21.4872 41.1675L21.5102 41.1445ZM21.5639 44.0511C20.1221 44.0511 19.4038 44.7669 19.4089 46.1984C19.4089 46.3134 19.4165 46.4361 19.4089 46.5512C19.3475 47.2951 19.6696 47.3564 20.2371 47.0267C20.9963 46.5742 21.7632 46.4975 22.5915 46.9193C23.5808 47.4254 23.6038 47.3871 23.6038 46.2367C23.6038 46.1754 23.6038 46.1217 23.6038 46.0604C23.5731 43.7443 23.9106 44.0971 21.5715 44.0588L21.5639 44.0511Z" fill="white"/>
<path d="M76.5361 34.1451C75.1174 34.1451 73.6986 34.1604 72.2798 34.1451C71.2292 34.1298 70.6693 33.6236 70.6617 32.5729C70.631 29.7354 70.631 26.8979 70.6617 24.068C70.6693 23.0174 71.2292 22.5035 72.2798 22.4959C75.1174 22.4805 77.9549 22.4805 80.7924 22.4959C81.8431 22.4959 82.4029 23.0174 82.4183 24.0604C82.4489 26.8979 82.4489 29.7354 82.4183 32.5653C82.4106 33.6159 81.8431 34.1221 80.8001 34.1374C79.3813 34.1528 77.9626 34.1374 76.5438 34.1374L76.5361 34.1451ZM73.5606 28.9302C74.7953 27.6955 76.007 26.4838 77.2187 25.2797C76.2524 25.2797 75.1941 25.2797 74.1357 25.2797C73.7216 25.2797 73.5529 25.4945 73.5529 25.8856C73.5529 26.9209 73.5529 27.9485 73.5529 28.9302H73.5606ZM79.5117 27.6878C78.2693 28.9225 77.0576 30.1342 75.8306 31.3536C76.8199 31.3536 77.8705 31.3536 78.9289 31.3536C79.343 31.3536 79.5117 31.1465 79.5117 30.7554C79.5117 29.7201 79.5117 28.6924 79.5117 27.6955V27.6878Z" fill="white"/>
<path d="M76.4499 55.5901C75.1232 55.5901 73.7888 55.6054 72.462 55.5901C71.235 55.5671 70.6675 55.0073 70.6598 53.7802C70.6368 51.0654 70.6368 48.3429 70.6598 45.6281C70.6675 44.401 71.235 43.8335 72.462 43.8258C75.1845 43.8028 77.8994 43.8028 80.6219 43.8258C81.8489 43.8335 82.4164 44.401 82.4317 45.6281C82.4548 48.3429 82.4548 51.0654 82.4317 53.7802C82.4241 55.0073 81.8489 55.5671 80.6219 55.5901C79.2338 55.6131 77.8457 55.5901 76.4576 55.5901H76.4499ZM79.5175 49.7233C79.5175 48.9564 79.5099 48.1895 79.5175 47.4226C79.5252 46.9471 79.3335 46.7171 78.835 46.7171C77.3012 46.7247 75.7674 46.7247 74.2259 46.7171C73.7351 46.7171 73.5434 46.9395 73.5434 47.4149C73.551 48.9181 73.5587 50.4289 73.5434 51.932C73.5434 52.4458 73.7351 52.6912 74.2719 52.6835C75.7751 52.6682 77.2858 52.6682 78.789 52.6835C79.3258 52.6835 79.5329 52.4535 79.5175 51.932C79.5022 51.1958 79.5175 50.4595 79.5175 49.7156V49.7233Z" fill="white"/>
<path d="M52.548 51.1528C48.7902 51.1528 45.0401 51.1528 41.2822 51.1528C41.0445 51.1528 40.8068 51.1528 40.569 51.1528C39.4187 51.1221 38.6978 50.5546 38.7131 49.6803C38.7285 48.8061 39.434 48.2539 40.6074 48.2539C48.5908 48.2539 56.5742 48.2539 64.55 48.2539C65.708 48.2539 66.4212 48.8444 66.4059 49.7187C66.3905 50.5853 65.6773 51.1298 64.5116 51.1528C64.2739 51.1528 64.0362 51.1528 63.7984 51.1528C60.0406 51.1528 56.2905 51.1528 52.5327 51.1528H52.548Z" fill="white"/>
<path d="M52.394 36.8108C48.5748 36.8108 44.7633 36.8108 40.9442 36.8108C40.6758 36.8108 40.4073 36.8108 40.1466 36.8108C39.2033 36.7648 38.6588 36.2433 38.6741 35.3997C38.6818 34.5868 39.211 34.0883 40.1006 34.0347C40.277 34.027 40.4534 34.0347 40.6297 34.0347C48.5288 34.0347 56.4279 34.0347 64.3269 34.0347C64.5033 34.0347 64.6797 34.0347 64.8561 34.0347C65.7534 34.0883 66.2749 34.5868 66.2825 35.3997C66.2902 36.2433 65.7534 36.7648 64.8101 36.8108C64.5417 36.8262 64.2809 36.8108 64.0125 36.8108C60.1397 36.8108 56.2592 36.8108 52.3863 36.8108H52.394Z" fill="white"/>
<path d="M47.6861 58.2503C45.3777 58.2503 43.0693 58.2503 40.7686 58.2503C40.3545 58.2503 39.9404 58.2503 39.5569 58.0509C39.0278 57.7901 38.7363 57.353 38.7363 56.7778C38.7363 56.2027 39.0431 55.7732 39.5722 55.5125C39.9864 55.3131 40.4312 55.3284 40.876 55.3284C45.462 55.3284 50.0481 55.3284 54.6265 55.3284C54.8336 55.3284 55.0406 55.3284 55.2477 55.3437C56.1066 55.4281 56.6741 55.9879 56.6895 56.7472C56.7125 57.5371 56.122 58.1353 55.2247 58.2273C54.9639 58.2503 54.6955 58.2426 54.4271 58.2426C52.1801 58.2426 49.9331 58.2426 47.6861 58.2426V58.2503Z" fill="white"/>
<path d="M46.8033 19.8286C49.0196 19.8286 51.2436 19.8056 53.46 19.8363C54.6563 19.8516 55.3159 20.9483 54.7637 21.9222C54.4646 22.4437 53.9891 22.6124 53.4216 22.6124C49.0119 22.6124 44.6023 22.6124 40.1926 22.6124C39.2263 22.6124 38.6895 22.0909 38.6741 21.2474C38.6588 20.3731 39.2186 19.8439 40.2386 19.8363C42.4243 19.8209 44.6176 19.8363 46.8109 19.8363L46.8033 19.8286Z" fill="white"/>
<path d="M58.9684 26.9175C60.8626 26.9175 62.7492 26.9098 64.6435 26.9175C65.7324 26.9175 66.3076 27.4236 66.3 28.3209C66.2923 29.2105 65.7248 29.6936 64.6128 29.6936C60.7706 29.6936 56.9284 29.6936 53.0863 29.6936C52.0126 29.6936 51.4221 29.1722 51.4298 28.2902C51.4374 27.4083 52.0279 26.9251 53.1246 26.9175C55.0725 26.9098 57.0281 26.9175 58.9761 26.9175H58.9684Z" fill="white"/>
<path d="M44.182 41.1553C45.4244 41.1553 46.6591 41.1399 47.9015 41.1553C48.9675 41.1706 49.581 41.6921 49.604 42.551C49.627 43.456 49.0058 44.0388 47.9015 44.0465C45.4244 44.0695 42.9396 44.0695 40.4625 44.0465C39.3889 44.0388 38.691 43.4023 38.7217 42.5587C38.7524 41.7381 39.4196 41.1783 40.4549 41.1629C41.6972 41.1399 42.932 41.1629 44.1743 41.1629L44.182 41.1553Z" fill="white"/>
<path d="M43.6893 29.7058C42.5083 29.7058 41.3272 29.7211 40.1462 29.7058C39.2029 29.6905 38.6584 29.1536 38.6661 28.3177C38.6661 27.4818 39.2106 26.945 40.1616 26.9373C42.5543 26.9219 44.9393 26.9219 47.3321 26.9373C48.2523 26.9373 48.8582 27.4971 48.8812 28.287C48.9042 29.1076 48.283 29.6981 47.3167 29.7135C46.105 29.7288 44.901 29.7135 43.6893 29.7135V29.7058Z" fill="white"/>
</svg>
