<svg width="100" height="100" viewBox="0 0 100 100" fill="none" xmlns="http://www.w3.org/2000/svg">
<g clip-path="url(#clip0_464_70)">
<g clip-path="url(#clip1_464_70)">
<path d="M62.5329 99.9882C59.8926 99.1836 58.0631 97.5682 57.4207 94.8052C57.298 94.2751 57.2793 93.7096 57.2793 93.1607C57.273 74.4643 57.271 55.7699 57.2772 37.0734C57.2772 33.0589 60.1213 30.2127 64.1275 30.2086C73.7699 30.2002 83.4123 30.2855 93.0506 30.1649C96.8739 30.1171 99.5662 32.142 100.5 35.4643V94.8011C99.7242 97.4851 97.9965 99.2148 95.3125 99.9882H62.5329ZM97.1067 65.1961C97.1067 56.036 97.1088 46.8759 97.1067 37.7158C97.1067 34.9092 95.8593 33.6722 93.0381 33.6722C83.6369 33.6701 74.2335 33.6701 64.8323 33.6722C61.9654 33.6722 60.7408 34.9071 60.7408 37.7969C60.7408 56.0131 60.7408 74.2293 60.7408 92.4456C60.7408 95.3915 61.9508 96.5932 64.9134 96.5932C74.246 96.5932 83.5787 96.5932 92.9113 96.5932C95.9279 96.5932 97.1067 95.404 97.1067 92.3624C97.1067 83.3063 97.1067 74.2501 97.1067 65.194V65.1961Z" fill="#727272"/>
<path d="M0.84375 51.7957C0.84375 37.6897 0.84375 23.5836 0.84375 9.47552C0.84375 7.42147 1.28658 6.97656 3.33232 6.97656C31.6151 6.97656 59.8957 6.97656 88.1785 6.97656C90.1535 6.97656 90.6151 7.44018 90.6151 9.42355C90.6151 14.8518 90.5901 20.2801 90.6379 25.7084C90.6463 26.7458 90.3594 27.1013 89.2991 27.0597C86.8354 26.962 87.166 27.3175 87.1556 24.8809C87.139 20.4547 87.1286 16.0306 87.1702 11.6044C87.1785 10.698 86.9144 10.4069 85.9955 10.4215C82.9186 10.4714 79.8417 10.4693 76.7648 10.4215C75.8749 10.409 75.6566 10.7354 75.6629 11.567C75.6961 15.4381 75.6816 19.3113 75.6754 23.1845C75.6733 24.8186 75.1244 25.3716 73.5007 25.3737C69.351 25.3799 65.2034 25.382 61.0537 25.3737C59.5007 25.3695 58.9394 24.8019 58.9373 23.2323C58.929 19.3591 58.9103 15.488 58.9519 11.6148C58.9623 10.7271 58.7294 10.4007 57.7918 10.4173C54.7149 10.4714 51.6379 10.4651 48.561 10.4194C47.6899 10.4069 47.4446 10.7021 47.4467 11.5504C47.4695 24.0327 47.4716 36.5129 47.4425 48.9953C47.4404 49.9454 47.7751 50.1761 48.6504 50.1408C50.0995 50.0805 51.5548 50.1533 53.0059 50.1138C53.7772 50.093 54.1348 50.3071 54.1119 51.1595C54.0392 54.0535 54.4404 53.5358 51.7065 53.5878C50.7398 53.6065 49.771 53.5878 48.8022 53.5919C47.9096 53.5933 47.4626 54.0569 47.4612 54.9828C47.4612 59.4423 47.4612 63.9038 47.4612 68.3633C47.4612 76.2468 47.4779 84.1283 47.4404 92.0119C47.4363 93.0057 47.7107 93.3529 48.7211 93.2988C50.2034 93.2219 51.6941 93.2988 53.1806 93.2739C53.8354 93.2635 54.1161 93.4984 54.1057 94.1761C54.06 97.2905 54.4571 96.7312 51.6379 96.7354C35.561 96.7562 19.4841 96.7458 3.40716 96.7458C1.27202 96.7458 0.84375 96.3238 0.84375 94.2156C0.84375 80.0743 0.84375 65.9329 0.84375 51.7936V51.7957ZM24.0413 50.1304C30.297 50.1304 36.5527 50.1159 42.8063 50.147C43.6774 50.1512 44.0163 49.9516 44.0142 49.0015C43.9851 36.5254 43.9851 24.0493 44.0142 11.5732C44.0163 10.6273 43.6858 10.4111 42.8084 10.4256C39.7668 10.4714 36.7253 10.4734 33.6857 10.4256C32.7793 10.4111 32.4924 10.6813 32.5049 11.5982C32.5506 15.4693 32.5277 19.3404 32.5215 23.2094C32.5194 24.829 31.9643 25.3757 30.3282 25.3778C26.2492 25.384 22.1722 25.382 18.0932 25.3778C16.2762 25.3778 15.7835 24.8705 15.7814 23.0161C15.7772 19.1803 15.7627 15.3445 15.7939 11.5067C15.8001 10.7042 15.5693 10.4132 14.7336 10.4256C11.6587 10.4672 8.5818 10.4776 5.50695 10.4194C4.5319 10.4007 4.28658 10.7208 4.28866 11.6606C4.31568 24.068 4.31776 36.4755 4.28658 48.8809C4.2845 49.9017 4.60882 50.1533 5.58595 50.147C11.7377 50.1075 17.8895 50.1263 24.0413 50.1263V50.1304ZM4.30737 73.4423C4.30737 79.6626 4.32192 85.883 4.29074 92.1034C4.28658 92.989 4.51111 93.303 5.44666 93.2988C17.9228 93.2697 30.3988 93.2739 42.8749 93.2947C43.7169 93.2947 44.0122 93.0639 44.0122 92.1865C43.9872 79.6751 43.9893 67.1658 44.0101 54.6543C44.0101 53.8477 43.7793 53.5649 42.9498 53.5753C39.8396 53.6169 36.7294 53.619 33.6192 53.5753C32.7419 53.5628 32.5007 53.8685 32.509 54.7125C32.5444 58.5483 32.5277 62.3841 32.5236 66.2198C32.5236 68.0015 32.008 68.5254 30.2596 68.5275C26.1806 68.5317 22.1036 68.5317 18.0246 68.5275C16.3219 68.5254 15.7855 67.9932 15.7835 66.305C15.7772 62.4339 15.7585 58.5628 15.798 54.6938C15.8063 53.8248 15.5194 53.5649 14.667 53.5774C11.6608 53.619 8.65456 53.5919 5.64625 53.594C4.75505 53.594 4.30875 54.0583 4.30737 54.987C4.30737 61.1387 4.30737 67.2905 4.30737 73.4423V73.4423ZM19.2471 16.0888C19.2471 17.7146 19.272 19.3404 19.2346 20.9641C19.218 21.6876 19.4799 21.9329 20.1993 21.9246C22.8271 21.8955 25.455 21.8976 28.0828 21.9246C28.7772 21.9308 29.0766 21.7333 29.0704 20.987C29.0413 17.7707 29.0454 14.5566 29.0683 11.3404C29.0724 10.6668 28.8292 10.4277 28.1577 10.4339C25.4945 10.4589 22.8334 10.463 20.1702 10.4319C19.4176 10.4235 19.2221 10.7333 19.2367 11.4235C19.2699 12.9786 19.2471 14.5358 19.2471 16.0909V16.0888ZM62.4009 16.0743C62.4009 17.7333 62.4155 19.3944 62.3926 21.0535C62.3843 21.6647 62.5964 21.9246 63.2346 21.9204C65.9664 21.8996 68.6982 21.9038 71.43 21.9183C72.0163 21.9204 72.2201 21.6709 72.218 21.1055C72.2055 17.8206 72.2055 14.5358 72.218 11.251C72.2201 10.6876 72.0163 10.436 71.43 10.4381C68.6982 10.4527 65.9664 10.4547 63.2346 10.436C62.5984 10.4319 62.3843 10.6917 62.3926 11.303C62.4155 12.8934 62.4009 14.4838 62.4009 16.0743ZM19.2471 59.2489C19.2471 60.8747 19.2637 62.4984 19.2388 64.1242C19.2284 64.752 19.3864 65.0826 20.1036 65.0764C22.8001 65.0493 25.4966 65.0514 28.193 65.0764C28.8999 65.0826 29.0704 64.7687 29.0662 64.1325C29.0475 60.9163 29.0454 57.7021 29.0662 54.4859C29.0704 53.804 28.8105 53.5816 28.1473 53.5878C25.4862 53.6107 22.823 53.6169 20.1598 53.5857C19.4009 53.5753 19.2201 53.9017 19.2346 54.5836C19.2658 56.1387 19.245 57.6959 19.245 59.251L19.2471 59.2489Z" fill="#727272"/>
<path d="M40.6419 3.79789C32.8311 3.79789 25.0203 3.79789 17.2074 3.79789C15.7854 3.79789 15.7729 3.79373 15.7833 2.37377C15.7999 0.061921 15.5338 0.338428 17.8374 0.338428C33.2864 0.330112 48.7376 0.33427 64.1866 0.33427C65.7147 0.33427 65.7251 0.336349 65.7147 1.86234C65.7022 4.02866 65.9268 3.79373 63.7625 3.79581C56.0557 3.80412 48.3467 3.79997 40.6399 3.79997L40.6419 3.79789Z" fill="#727272"/>
<path d="M72.3566 2.11779C72.3566 3.80178 72.3566 3.80593 70.5749 3.7997C68.6955 3.79138 68.9055 3.93275 68.8951 1.91612C68.8867 0.334001 68.8951 0.334001 70.7786 0.33608C71.832 0.337466 72.3587 0.931368 72.3587 2.11779H72.3566Z" fill="#727272"/>
<path d="M78.8582 70.1901C72.8748 70.1901 67.6524 65.3876 67.2366 59.6454C66.7376 52.7473 71.5796 47.6288 77.4008 46.872C79.7002 46.5726 81.9476 46.897 84.062 47.9489C84.642 48.2379 84.8686 48.5685 84.457 49.1464C84.4362 49.1735 84.4237 49.2067 84.4071 49.2379C84.0141 49.8866 83.7563 50.7223 83.1909 51.136C82.5609 51.5976 81.8728 50.818 81.1992 50.635C76.7667 49.4229 72.2449 51.9448 71.0536 56.3439C69.8624 60.7431 72.4944 65.2774 76.8956 66.4063C81.5942 67.6121 86.3509 64.4624 86.9622 59.687C87.0911 58.6849 87.4715 58.3751 88.4757 58.4022C90.8624 58.4666 90.8915 58.4458 90.4133 60.7847C89.2761 66.3481 84.5568 70.188 78.8582 70.188V70.1901Z" fill="#727272"/>
<path d="M79.0284 81.6596C83.0367 81.6596 87.045 81.6846 91.0512 81.6409C91.9972 81.6305 92.3194 81.9216 92.2882 82.8758C92.2051 85.4912 92.5793 85.1128 90.0097 85.117C82.3049 85.1336 74.6001 85.1045 66.8953 85.144C65.8516 85.1502 65.5086 84.8571 65.5502 83.801C65.6458 81.3415 65.2924 81.6721 67.729 81.6617C71.4941 81.643 75.2612 81.6575 79.0284 81.6575V81.6596Z" fill="#727272"/>
<path d="M78.9298 63.5383C78.3955 63.5674 77.9777 63.345 77.6222 62.9895C76.4205 61.794 75.2375 60.582 74.0172 59.4073C73.5577 58.9645 73.6014 58.6651 74.0234 58.214C75.8508 56.2577 75.83 56.2535 77.7095 58.1121C79.1211 59.5071 78.7282 59.5196 80.1128 58.1412C83.4953 54.7774 86.8799 51.4136 90.223 48.0103C90.8716 47.3491 91.25 47.3699 91.8779 48.0206C93.514 49.7171 93.5431 49.6901 91.8841 51.3471C88.119 55.1121 84.354 58.8772 80.5889 62.6423C80.1211 63.11 79.6637 63.5945 78.9298 63.5404V63.5383Z" fill="#727272"/>
<path d="M82.1705 78.4821C79.2682 78.4821 76.366 78.4572 73.4657 78.4967C72.5697 78.5091 72.1581 78.3054 72.1913 77.2971C72.2828 74.6484 71.9023 75.031 74.4387 75.0226C79.9314 75.0019 85.4242 75.0143 90.9169 75.0185C92.2682 75.0185 92.2807 75.0247 92.2703 76.4073C92.2537 78.7482 92.5281 78.4655 90.2537 78.4779C87.5593 78.4925 84.8649 78.4821 82.1705 78.4821Z" fill="#727272"/>
<path d="M73.8711 38.5007C73.8711 37.3947 74.474 36.8424 75.6798 36.8438C76.7859 36.8438 77.3382 37.4467 77.3368 38.6525C77.3368 39.7599 76.6999 40.3122 75.4262 40.3094C74.3895 40.3081 73.8718 39.7052 73.8732 38.5007H73.8711Z" fill="#727272"/>
<path d="M83.9758 38.6194C83.9758 40.3096 83.9758 40.3158 82.2004 40.3075C80.3126 40.2992 80.5226 40.4406 80.5122 38.4302C80.5039 36.8418 80.5122 36.8418 82.3896 36.8439C83.4485 36.8453 83.9772 37.4371 83.9758 38.6194V38.6194Z" fill="#727272"/>
<path d="M69.0363 76.7704C69.0363 78.4835 69.0363 78.4877 67.2837 78.4815C65.3835 78.4752 65.5831 78.6145 65.5748 76.6249C65.5665 75.0137 65.5748 75.0137 67.4293 75.0158C68.502 75.0172 69.0384 75.6014 69.0384 76.7684L69.0363 76.7704Z" fill="#727272"/>
<path d="M78.8421 93.4266C77.7416 93.4266 77.1914 92.8216 77.1914 91.6117C77.1914 90.5112 77.7964 89.9609 79.0064 89.9609C80.1082 89.9609 80.6585 90.6006 80.6571 91.8799C80.6557 92.911 80.0507 93.4266 78.8421 93.4266Z" fill="#727272"/>
<path d="M34.1825 45.3118C34.1825 46.404 33.5733 46.9501 32.3551 46.9501C31.2629 46.9501 30.7168 46.3409 30.7168 45.1226C30.7168 44.0305 31.3259 43.4844 32.5442 43.4844C33.6364 43.4844 34.1825 44.0935 34.1825 45.3118Z" fill="#727272"/>
<path d="M39.0977 43.4865C40.2467 43.4865 40.8212 44.0665 40.8212 45.2266C40.8212 46.3867 40.2065 46.9612 38.9771 46.9501C37.8946 46.9501 37.3541 46.3354 37.3555 45.106C37.3555 44.0249 37.9362 43.4844 39.0977 43.4844V43.4865Z" fill="#727272"/>
<path d="M34.1825 88.2893C34.1825 89.4993 33.5976 90.1042 32.4278 90.1042C31.2858 90.1042 30.7154 89.52 30.7168 88.3516C30.7168 87.2096 31.301 86.6392 32.4694 86.6406C33.6101 86.6406 34.1804 87.1909 34.1804 88.2914L34.1825 88.2893Z" fill="#727272"/>
<path d="M40.8231 88.4494C40.8231 89.5554 40.2202 90.1077 39.0144 90.1063C37.9084 90.1063 37.356 89.5034 37.3574 88.2976C37.3574 87.1902 37.9943 86.6379 39.268 86.6406C40.3048 86.642 40.8224 87.2449 40.821 88.4494H40.8231Z" fill="#727272"/>
</g>
</g>
<defs>
<clipPath id="clip0_464_70">
<rect width="100" height="100" fill="white"/>
</clipPath>
<clipPath id="clip1_464_70">
<rect width="100" height="100" fill="white" transform="translate(0.5)"/>
</clipPath>
</defs>
</svg>
