<?xml version="1.0" encoding="utf-8"?>
<!-- Generator: Adobe Illustrator 27.4.0, SVG Export Plug-In . SVG Version: 6.00 Build 0)  -->
<svg version="1.1" id="Layer_1" xmlns="http://www.w3.org/2000/svg" xmlns:xlink="http://www.w3.org/1999/xlink" x="0px" y="0px"
	 viewBox="0 0 50 45" style="enable-background:new 0 0 50 45;" xml:space="preserve">
<style type="text/css">
	.st0{fill:#FFFFFF;}
</style>
<g>
	<path class="st0" d="M4.5,3.1C4.2,3.1,4,3.3,4,3.6v37.8c0,0.3,0.2,0.5,0.5,0.5h41c0.3,0,0.5-0.2,0.5-0.5V3.6c0-0.3-0.2-0.5-0.5-0.5
		H4.5z M45,40.8H5.1V12H45V40.8z M45,11H5.1V4.2H45V11z"/>
	<path class="st0" d="M12.3,26.4c0,0.2,0.1,0.3,0.1,0.3l5.5,5.5c0.1,0.1,0.3,0.2,0.4,0.2c0.1,0,0.3,0,0.3-0.1c0.3-0.3,0.3-0.6,0-0.9
		l-5-5l5-5c0.1-0.1,0.2-0.3,0.2-0.4c0-0.2-0.1-0.3-0.1-0.3c-0.3-0.3-0.6-0.3-0.9,0L12.5,26C12.4,26.1,12.3,26.3,12.3,26.4z"/>
	<path class="st0" d="M37.5,26.5c0-0.2-0.1-0.3-0.1-0.3L32,20.8c-0.1-0.1-0.3-0.2-0.4-0.2c-0.1,0-0.3,0-0.3,0.1
		c-0.1,0.2-0.2,0.4-0.2,0.4c0,0.2,0.1,0.3,0.1,0.3l5.1,5l-5,5c-0.2,0.2-0.2,0.5,0,0.8c0.1,0,0.2,0.1,0.3,0.1c0.2,0,0.3-0.1,0.3-0.1
		l5.4-5.4C37.4,26.8,37.5,26.6,37.5,26.5z"/>
	<path class="st0" d="M27.7,20.8c0-0.1-0.1-0.2-0.2-0.2c-0.1,0-0.2-0.1-0.3-0.1c-0.1,0-0.1,0-0.2,0c-0.1,0.1-0.2,0.2-0.3,0.3
		l-4.5,10.7c-0.1,0.3,0.1,0.6,0.3,0.7c0.1,0,0.1,0,0.2,0c0.2,0,0.4-0.1,0.5-0.3l4.5-10.7C27.7,21.2,27.7,21,27.7,20.8z"/>
	<circle class="st0" cx="35" cy="7.6" r="0.7"/>
	<circle class="st0" cx="37.6" cy="7.6" r="0.7"/>
	<circle class="st0" cx="40.2" cy="7.6" r="0.7"/>
</g>
</svg>
