<svg width="167" height="84" viewBox="0 0 167 84" fill="none" xmlns="http://www.w3.org/2000/svg">
<g clip-path="url(#clip0_67_1479)">
<path d="M112.937 83.6575C112.465 83.5767 111.987 83.5084 111.515 83.409C110.465 83.1854 109.477 82.8128 108.701 82.0302C107.962 81.291 107.825 80.4525 108.328 79.5333C108.72 78.8252 109.167 78.1544 109.85 77.6885C110.446 77.2786 110.614 77.5084 110.639 78.0426C110.707 79.583 111.571 80.6637 112.825 81.4463C113.689 81.9929 114.8 81.9246 115.515 81.3594C116.136 80.8687 116.341 80.2165 116.198 79.4587C115.974 78.2289 115.297 77.2227 114.484 76.3159C113.564 75.2848 112.589 74.3097 111.645 73.2972C110.862 72.4587 110.173 71.5519 109.776 70.4587C108.62 67.3159 109.943 64.9494 112.918 63.937C114.912 63.26 116.894 63.5333 118.757 64.5333C119.272 64.8066 119.689 65.2103 119.993 65.7196C120.359 66.3283 120.384 66.9743 120.08 67.6078C119.72 68.3531 119.235 69.0115 118.564 69.5084C118.366 69.6575 118.148 69.8687 117.881 69.7444C117.608 69.6202 117.701 69.3283 117.689 69.0923C117.62 67.7755 117.092 66.6823 116.055 65.8625C115.39 65.3407 114.645 65.2475 113.918 65.6948C113.154 66.1606 112.869 66.8997 112.968 67.7693C113.086 68.8252 113.608 69.6948 114.347 70.4339C115.384 71.4649 116.44 72.4774 117.484 73.5022C118.285 74.2972 119.055 75.1171 119.639 76.0923C121.136 78.5892 120.428 81.26 117.881 82.6885C117.03 83.1668 116.111 83.4463 115.136 83.5643C115.018 83.5767 114.9 83.614 114.788 83.6451H112.937V83.6575Z" fill="#ADADAD"/>
<path d="M127.119 83.6575C126.647 83.5767 126.168 83.5084 125.696 83.409C124.647 83.1854 123.659 82.8128 122.883 82.0302C122.144 81.291 122.007 80.4525 122.51 79.5333C122.901 78.8252 123.348 78.1544 124.032 77.6885C124.628 77.2786 124.796 77.5084 124.821 78.0426C124.889 79.583 125.752 80.6637 127.007 81.4463C127.87 81.9929 128.982 81.9246 129.696 81.3594C130.317 80.8687 130.522 80.2165 130.38 79.4587C130.156 78.2289 129.479 77.2227 128.665 76.3159C127.746 75.2848 126.771 74.3097 125.827 73.2972C125.044 72.4587 124.355 71.5519 123.957 70.4587C122.802 67.3159 124.125 64.9494 127.1 63.937C129.094 63.26 131.075 63.5333 132.939 64.5333C133.454 64.8066 133.87 65.2103 134.175 65.7196C134.541 66.3283 134.566 66.9743 134.262 67.6078C133.901 68.3531 133.417 69.0115 132.746 69.5084C132.547 69.6575 132.33 69.8687 132.063 69.7444C131.789 69.6202 131.883 69.3283 131.87 69.0923C131.802 67.7755 131.274 66.6823 130.237 65.8625C129.572 65.3407 128.827 65.2475 128.1 65.6948C127.336 66.1606 127.05 66.8997 127.15 67.7693C127.268 68.8252 127.789 69.6948 128.529 70.4339C129.566 71.4649 130.622 72.4774 131.665 73.5022C132.466 74.2972 133.237 75.1171 133.821 76.0923C135.317 78.5892 134.609 81.26 132.063 82.6885C131.212 83.1668 130.293 83.4463 129.317 83.5643C129.199 83.5767 129.081 83.614 128.97 83.6451H127.119V83.6575Z" fill="#ADADAD"/>
<path d="M113.932 15.2938C114.299 15.2069 114.541 14.9149 114.852 14.7286C116.901 13.4988 119.038 12.4739 121.342 11.7969C122.435 11.4739 123.541 11.2441 124.653 10.9957C124.87 10.946 125.106 10.9646 125.336 10.9522C125.553 10.9398 125.678 11.0392 125.752 11.2503C126.311 12.7845 126.839 14.3249 127.137 15.9336C127.373 17.2193 127.529 18.5112 127.653 19.8156C127.746 20.7907 127.808 21.7721 127.74 22.7348C127.653 24.0578 127.628 25.3994 127.311 26.7038C127.286 26.8218 127.293 26.946 127.28 27.064C127.168 27.8777 126.876 28.6541 126.802 29.4802C126.926 29.6416 126.883 29.8094 126.833 29.9771C126.181 32.2255 125.255 34.3559 124.1 36.3994C123.423 37.592 122.647 38.7162 121.814 39.7907C120.578 41.3932 119.156 42.8342 117.585 44.1261C116.355 45.1448 115.044 46.0516 113.665 46.8528C112.647 47.4429 111.578 47.9522 110.479 48.3808C109.634 48.71 108.802 49.0951 107.914 49.3187C106.821 49.592 105.746 49.9212 104.622 50.0392C104.237 50.0826 103.852 49.9646 103.467 50.0081C102.398 50.1385 101.398 49.8031 100.38 49.5547C98.8951 49.1882 97.4603 48.6727 96.0628 48.0516C94.1932 47.2255 92.4292 46.2007 90.8081 44.9646C89.423 43.9087 88.1373 42.7472 86.9572 41.4553C85.8454 40.2441 84.8827 38.9336 83.9696 37.5795C83.5845 37.0081 83.2243 36.4056 82.9261 35.7721C82.5162 34.8963 82.0069 34.0764 81.6466 33.1758C81.2305 32.1448 80.8516 31.1013 80.541 30.033C80.4914 29.8528 80.4541 29.6727 80.5473 29.4864C80.628 29.3187 80.5473 29.151 80.4852 28.9895C80.3423 28.3249 80.1932 27.6603 80.0566 26.9957C79.9696 26.5671 79.9386 26.1261 79.8516 25.6913C79.6342 24.5733 79.6591 23.4305 79.6591 22.3C79.6591 21.5795 79.6591 20.8528 79.6653 20.1323C79.6777 18.859 79.9261 17.623 80.1249 16.3684C80.392 14.71 80.9137 13.1261 81.4852 11.5609C81.715 10.9336 81.7274 10.9398 82.4914 10.9646C82.7398 11.1075 83.0504 10.9646 83.2926 11.1323C83.5348 11.182 83.7833 11.2317 84.0255 11.2876C84.7336 11.4429 85.4355 11.6168 86.1187 11.8466C87.5907 12.2503 88.982 12.859 90.3485 13.5361C91.3175 14.0143 92.2553 14.5547 93.156 15.151C93.2678 15.2255 93.3796 15.2938 93.5162 15.3C93.6963 15.2317 93.7895 15.2938 93.7895 15.4864C93.3547 15.8093 93.2491 16.3125 93.1373 16.7845C92.7771 18.3311 92.4292 19.8777 92.2429 21.4677C92.0938 22.7472 92.1187 24.0267 91.9696 25.3062C91.9075 25.828 91.9945 26.3559 92.0504 26.8653C92.1373 27.7162 92.1311 28.5733 92.2305 29.4243C92.3734 30.6106 92.6715 31.7597 92.8143 32.9398C92.8268 33.0205 92.8765 33.0889 92.8951 33.1696C92.9572 33.4243 92.9945 33.6913 93.0814 33.9398C93.1001 34.6292 93.3733 35.2441 93.6342 35.859C93.715 36.0454 93.8019 36.2441 93.9261 36.418C93.9448 36.4553 93.9572 36.4926 93.9634 36.5298C93.9199 36.828 94.0814 37.0392 94.2678 37.2379C94.4789 37.5174 94.5597 37.8653 94.6963 38.182C95.2367 39.4305 95.9324 40.592 96.628 41.7472C97.7833 43.6603 99.187 45.3746 100.709 47.0143C101.479 47.8466 102.355 48.5485 103.156 49.3373C103.553 49.7224 103.703 49.6789 104.144 49.3373C105.044 48.6354 105.864 47.8466 106.659 47.0267C107.429 46.2379 108.144 45.4056 108.814 44.5361C109.001 44.3311 109.23 44.151 109.299 43.859C110.976 41.6292 112.286 39.1944 113.305 36.592C113.752 35.4429 114.063 34.2503 114.479 33.0889C114.516 32.9833 114.46 32.8777 114.479 32.7721C114.758 31.946 114.864 31.0826 115.001 30.2193C115.112 29.5174 115.15 28.8093 115.237 28.1075C115.38 26.9708 115.293 25.828 115.305 24.6913C115.324 23.4553 115.162 22.2379 115.026 21.0143C114.858 19.5609 114.535 18.1385 114.193 16.7224C114.156 16.5671 114.094 16.418 114.05 16.2628C113.963 15.9646 113.821 15.7472 113.473 15.7472C113.404 15.7472 113.349 15.6975 113.305 15.6416C113.336 15.2131 113.522 15.1075 113.92 15.3L113.932 15.2938Z" fill="#B0B0B0"/>
<path d="M80.4783 28.9922C80.5777 29.104 80.6832 29.2344 80.6646 29.3835C80.5963 29.9487 80.8572 30.4394 81.0249 30.9363C81.441 32.135 81.8882 33.3276 82.4596 34.4642C83.528 36.6071 84.7826 38.6257 86.3354 40.4518C87.41 41.7189 88.5901 42.8866 89.8758 43.9487C91.2671 45.0978 92.7391 46.104 94.323 46.9611C95.559 47.6319 96.8447 48.2034 98.1801 48.6692C99.7019 49.2034 101.248 49.5947 102.832 49.8804C103.807 50.0543 104.764 49.868 105.702 49.6568C106.64 49.4456 107.578 49.2282 108.491 48.9114C109.721 48.4829 110.913 47.9922 112.087 47.4332C113.789 46.6195 115.366 45.6133 116.851 44.4642C118.081 43.5077 119.211 42.4456 120.261 41.2903C122.205 39.1537 123.783 36.7748 125.031 34.1785C125.652 32.8804 126.124 31.5326 126.565 30.1661C126.64 29.9363 126.721 29.7065 126.801 29.4829C127.807 29.4518 128.789 29.6506 129.783 29.7686C131.429 29.9673 132.988 30.4642 134.54 31.017C135.211 31.2593 135.236 31.3711 135.081 32.0854C134.888 32.9736 134.727 33.868 134.484 34.7437C133.913 36.7934 133.062 38.7251 131.988 40.5574C131.28 41.7624 130.416 42.8493 129.528 43.9239C128.478 45.1909 127.236 46.2406 125.938 47.2282C125.118 47.8555 124.267 48.427 123.354 48.9177C122.162 49.5636 120.938 50.1288 119.652 50.5574C118.565 50.9239 117.46 51.2468 116.323 51.4145C115.658 51.5139 114.988 51.6319 114.292 51.6319C113.59 51.6319 112.888 51.868 112.18 51.7624C111.23 51.6195 110.273 51.6444 109.323 51.4829C108.429 51.3338 107.534 51.1972 106.665 50.9425C105.938 50.7251 105.205 50.5015 104.491 50.2406C103.932 50.0357 103.41 50.0357 102.851 50.2406C101.857 50.5947 100.87 50.9487 99.8261 51.1599C98.646 51.3959 97.4783 51.6009 96.2733 51.6568C95.6957 51.6816 95.1056 51.8245 94.5218 51.7686C93.5839 51.6816 92.6398 51.6257 91.7019 51.5015C90.9627 51.4021 90.2236 51.2717 89.5031 51.1102C88.6957 50.9363 87.9131 50.6381 87.1305 50.3649C85.1864 49.6754 83.3975 48.6754 81.7205 47.4829C80.0621 46.3027 78.5963 44.9114 77.3044 43.3462C76.4348 42.2965 75.7267 41.1288 75.0311 39.9487C74.1988 38.5388 73.6273 37.0295 73.1056 35.5015C72.677 34.2531 72.4472 32.9611 72.2174 31.6692C72.1739 31.4208 72.2671 31.2531 72.4969 31.1599C73.2671 30.8555 74.0435 30.5698 74.8447 30.3524C75.441 30.1909 76.0435 30.0729 76.6336 29.9052C77.0745 29.781 77.5342 29.7251 77.969 29.6878C78.646 29.6319 79.3106 29.427 79.9938 29.4829C80.3665 29.5139 80.5218 29.3586 80.4783 28.9922V28.9922Z" fill="#DCDCDC"/>
<path d="M12.4153 75.7695C12.614 75.1608 12.8066 74.5645 12.9929 73.9745C14.26 69.9683 15.5208 65.9683 16.7879 61.9621C17.1358 60.8647 17.1544 59.7633 16.8438 58.6577C16.5954 57.7819 16.378 56.8937 15.937 56.0801C15.6637 55.5707 15.3283 55.136 14.6886 55.0428C14.378 54.9993 14.3531 54.726 14.3594 54.4776C14.3594 54.2478 14.4587 54.0366 14.732 54.0366C16.4339 54.0304 18.0861 54.2353 19.5146 55.285C20.142 55.7447 20.5581 56.3534 20.8314 57.0739C21.6575 59.2912 22.26 61.577 22.9618 63.8316C24.0053 67.1857 25.1047 70.5273 25.9246 73.9496C25.937 74.0117 25.9681 74.0739 25.9929 74.1546C26.1606 74.0676 26.1295 73.9124 26.1606 73.8006C27.4153 68.5832 28.614 63.3534 29.7382 58.1049C29.8252 57.7012 29.9308 57.2975 30.0302 56.8937C30.4339 55.2664 31.4712 54.3347 33.142 54.1298C33.5519 54.0801 33.9681 54.018 34.3842 54.0366C34.6264 54.049 34.7631 54.1794 34.7879 54.403C34.819 54.6453 34.8252 54.9621 34.5395 55.018C33.6948 55.1857 33.409 55.8627 33.1047 56.5148C32.8562 57.0366 32.7196 57.6018 32.5892 58.1608C30.9929 65.1049 29.4028 72.0428 27.8003 78.9869C27.7196 79.3471 27.7258 79.6577 27.8873 79.9993C28.1854 80.6329 28.4898 81.2602 28.9494 81.7944C29.1792 82.0614 29.4401 82.2912 29.8003 82.3658C30.0612 82.4217 30.1358 82.6204 30.1109 82.8503C30.0799 83.0863 29.9867 83.3223 29.701 83.3223C28.055 83.3223 26.4153 83.2478 24.9246 82.4465C24.2413 82.0801 23.7755 81.4962 23.4774 80.7757C22.8873 79.372 22.5395 77.8937 22.1047 76.4403C21.0053 72.7944 19.937 69.136 18.85 65.4838C18.8252 65.3968 18.7817 65.3099 18.7507 65.2229C18.5643 65.2726 18.5767 65.4279 18.5395 65.5459C17.0364 70.3037 15.5395 75.0676 14.0364 79.8254C13.937 80.1298 13.9556 80.3968 14.1171 80.6701C14.3469 81.0614 14.5581 81.4652 14.85 81.8254C15.0612 82.0801 15.3035 82.2913 15.6326 82.3596C15.9308 82.4217 15.9867 82.6142 15.9681 82.8627C15.9494 83.1173 15.8252 83.3285 15.5581 83.3223C13.8997 83.3223 12.2538 83.2416 10.7507 82.403C10.1047 82.0428 9.66371 81.5086 9.37178 80.8316C8.77551 79.4465 8.4401 77.9745 8.01153 76.5397C6.42147 71.2167 4.84383 65.8937 3.25998 60.5707C2.93079 59.4652 2.68855 58.3347 2.31588 57.2416C2.15439 56.7695 1.94942 56.3161 1.70718 55.8875C1.46495 55.4652 1.15439 55.136 0.632651 55.0614C0.284825 55.0117 0.241346 54.7447 0.253769 54.4527C0.266191 54.1981 0.396626 54.0428 0.657495 54.0428C2.19166 54.0428 3.68855 54.2043 5.03017 55.0428C5.85625 55.5583 6.42147 56.2788 6.75066 57.1981C7.79414 60.1049 8.52085 63.1111 9.52706 66.0304C10.5892 69.1173 11.3594 72.285 12.2351 75.4217C12.2662 75.5335 12.26 75.6639 12.4215 75.7695H12.4153Z" fill="#ADADAD"/>
<path d="M93.7703 15.4691C93.7082 15.376 93.6212 15.3263 93.5156 15.2952C93.8759 14.2021 94.261 13.1151 94.7765 12.084C95.6585 10.3076 96.5777 8.55609 97.7517 6.9474C98.702 5.64305 99.7268 4.41323 100.839 3.25174C101.652 2.40081 102.54 1.6182 103.447 0.86665C103.671 0.680315 103.839 0.711371 104.044 0.885284C105.981 2.52504 107.77 4.31386 109.28 6.36354C110.286 7.73622 111.199 9.16479 111.981 10.6865C112.752 12.1834 113.398 13.7176 113.938 15.3014C113.696 15.3325 113.485 15.4132 113.354 15.643C113.478 15.8107 113.385 15.9101 113.249 16.0033C112.801 16.3201 112.435 16.7362 111.957 17.0219C111.646 17.2145 111.441 17.525 111.174 17.7673C110.733 18.171 110.304 18.5996 109.857 18.9909C109.162 19.5996 108.64 20.3387 108.056 21.0344C106.77 22.5747 105.752 24.2828 104.826 26.053C104.584 26.5126 104.348 26.9847 104.174 27.4753C104.149 27.5934 104.05 27.643 103.981 27.7238C103.584 28.1834 103.491 28.171 103.224 27.612C102.609 26.3201 102.037 25.0033 101.261 23.7921C100.472 22.5623 99.6398 21.3698 98.6771 20.2642C97.261 18.6306 95.6709 17.1834 93.938 15.8791C93.8013 15.7797 93.615 15.6927 93.7703 15.4691V15.4691Z" fill="#B8B8B8"/>
<path d="M78.4728 67.8433C78.6654 67.5141 78.8579 67.1787 79.0629 66.8557C79.6219 65.9737 80.3113 65.2346 81.1499 64.5948C82.6902 63.4147 86.0567 63.7253 87.2741 66.2159C87.9697 67.6445 88.2803 69.16 88.2927 70.7315C88.3176 73.7625 88.2989 76.7936 88.2989 79.8246C88.2989 80.4644 88.4045 81.0793 88.7772 81.6259C89.0567 82.0296 89.4169 82.3215 89.9263 82.3526C90.2989 82.3774 90.3983 82.6072 90.3797 82.9302C90.361 83.2532 90.1747 83.3464 89.8704 83.3464C88.7027 83.3464 87.535 83.3091 86.4045 82.9551C84.9387 82.4892 84.3797 81.7812 84.3673 80.2408C84.3424 77.452 84.3486 74.6631 84.3548 71.8681C84.3548 71.042 84.3114 70.2284 84.0008 69.4582C83.684 68.6694 83.1747 68.0544 82.3176 67.7998C81.6902 67.6135 81.1188 67.7439 80.6033 68.129C79.6468 68.8495 78.9573 69.7749 78.5225 70.8867C78.4294 71.129 78.3859 71.3774 78.3859 71.6321C78.3859 74.3836 78.3859 77.1352 78.3859 79.8805C78.3859 80.5886 78.5101 81.2718 79.0008 81.8308C79.2617 82.129 79.566 82.3277 79.9635 82.3526C80.3486 82.3774 80.4045 82.6259 80.3983 82.9364C80.3921 83.2594 80.212 83.3402 79.9263 83.3402C77.566 83.3402 75.1995 83.3402 72.8393 83.3402C72.5163 83.3402 72.361 83.2097 72.3486 82.8992C72.3424 82.6445 72.3983 82.4271 72.7027 82.3588C73.7027 82.1352 74.2244 81.5389 74.3362 80.4582C74.3797 80.0172 74.4045 79.5762 74.4107 79.1352C74.4107 75.3899 74.4107 71.6507 74.4107 67.9054C74.4107 67.4085 74.3921 66.9054 74.2555 66.4271C74.0443 65.6694 73.6716 65.0358 72.7772 64.9426C72.4418 64.9054 72.3362 64.6694 72.3486 64.3712C72.361 64.0669 72.5163 63.9178 72.8393 63.924C74.007 63.9364 75.1809 63.9799 76.3051 64.334C77.7089 64.7749 78.2306 65.278 78.3735 67.1103C78.3921 67.3464 78.3735 67.5824 78.3735 67.8184C78.4045 67.8246 78.4294 67.8308 78.4604 67.8371L78.4728 67.8433Z" fill="#ADADAD"/>
<path d="M58.6528 68.5882C58.6528 72.346 58.6528 76.0975 58.6528 79.8553C58.6528 80.5882 58.777 81.2963 59.2987 81.8739C59.5534 82.1534 59.8577 82.3211 60.2366 82.3708C60.5658 82.4143 60.7521 82.6627 60.7149 82.9857C60.6776 83.3025 60.4602 83.3584 60.1931 83.3584C57.8453 83.3584 55.4975 83.3584 53.1497 83.3584C52.8515 83.3584 52.6403 83.2714 52.6279 82.9484C52.6155 82.6503 52.7211 82.4143 53.0627 82.377C53.8888 82.2901 54.2925 81.7373 54.5347 81.023C54.659 80.6565 54.7087 80.2652 54.7087 79.8739C54.7087 72.4453 54.7087 65.0106 54.7087 57.582C54.7087 57.0416 54.6217 56.5137 54.3795 56.023C54.1186 55.4888 53.7459 55.0975 53.1 55.0602C52.7521 55.0416 52.6155 54.8056 52.6279 54.4826C52.6403 54.141 52.8453 54.0292 53.1621 54.0354C54.2925 54.054 55.4105 54.1099 56.5099 54.4267C58.0503 54.8677 58.6155 55.5571 58.6403 57.172C58.6714 58.7932 58.6528 60.4205 58.6528 62.0416C58.6528 64.2279 58.6528 66.4143 58.6528 68.6006V68.5882Z" fill="#ADADAD"/>
<path d="M68.4776 68.601C68.4776 72.3401 68.4776 76.0855 68.4776 79.8246C68.4776 80.5575 68.5894 81.2656 69.1111 81.8495C69.372 82.1476 69.6825 82.3339 70.08 82.3588C70.4589 82.3836 70.5397 82.6569 70.5397 82.9488C70.5397 83.2842 70.2974 83.3464 70.0117 83.3464C67.6763 83.3464 65.3409 83.3464 63.0055 83.3464C62.695 83.3464 62.4651 83.278 62.4527 82.924C62.4403 82.601 62.5832 82.396 62.9372 82.3588C63.726 82.2656 64.1173 81.7252 64.3533 81.042C64.4838 80.6631 64.5335 80.2594 64.5335 79.8557C64.5335 72.4395 64.5335 65.0234 64.5335 57.6072C64.5335 57.011 64.4341 56.4333 64.1422 55.8991C63.8813 55.4271 63.5272 55.0979 62.9496 55.0606C62.5831 55.0358 62.4341 54.8122 62.4527 54.4644C62.4713 54.1165 62.6825 54.0234 62.9993 54.0296C64.1173 54.0482 65.2229 54.1041 66.3036 54.4085C67.8813 54.8557 68.4403 55.5389 68.4589 57.1724C68.4838 59.129 68.4713 61.0917 68.4713 63.0482C68.4713 64.8992 68.4713 66.7501 68.4713 68.601H68.4776Z" fill="#ADADAD"/>
<path d="M144.758 72.9858C144.758 75.0914 144.758 77.197 144.758 79.3026C144.758 79.874 144.852 80.4268 145.175 80.9113C145.709 81.7187 146.938 81.8492 147.628 81.1535C147.833 80.9423 148.007 80.7063 148.193 80.4703C148.442 80.1597 148.653 80.1225 148.988 80.3398C149.553 80.7001 149.622 81.0541 149.23 81.6069C148.429 82.7374 147.324 83.3026 145.945 83.3461C144.82 83.3771 143.721 83.3026 142.696 82.7622C141.758 82.2653 141.187 81.5013 140.963 80.4703C140.808 79.7436 140.789 79.0106 140.789 78.2715C140.789 74.4516 140.789 70.6256 140.789 66.8057C140.789 65.8926 140.858 65.9734 139.932 65.9672C139.156 65.9672 138.373 65.9672 137.597 65.9672C137.336 65.9672 137.081 65.9423 136.932 65.6815C136.777 65.3957 136.858 65.1225 137.032 64.8864C137.454 64.3088 137.982 63.9175 138.752 63.9361C139.317 63.9547 139.876 63.9361 140.442 63.9361C140.647 63.9361 140.783 63.8802 140.783 63.6442C140.789 62.787 140.852 61.9175 140.622 61.0852C140.417 60.3398 140.025 59.7311 139.15 59.638C138.814 59.6007 138.709 59.3647 138.727 59.0603C138.74 58.7498 138.901 58.6131 139.224 58.6193C140.367 58.638 141.504 58.7001 142.609 59.0107C144.094 59.4268 144.678 60.1535 144.74 61.6877C144.765 62.3026 144.758 62.9237 144.752 63.5386C144.752 63.8367 144.858 63.9423 145.15 63.9361C145.938 63.9237 146.734 63.9299 147.522 63.9361C148.05 63.9361 148.137 64.0293 148.15 64.5386C148.15 64.8181 148.15 65.1038 148.15 65.3833C148.137 65.8616 148.056 65.9547 147.584 65.961C146.796 65.9672 146.001 65.9796 145.212 65.961C144.858 65.9547 144.752 66.079 144.752 66.4268C144.765 68.6131 144.752 70.7995 144.758 72.9858V72.9858Z" fill="#ADADAD"/>
<path d="M126.795 29.4763C126.795 29.4763 126.758 29.4267 126.764 29.408C126.845 28.6068 127.038 27.8304 127.28 27.0664C127.274 27.9049 126.982 28.6813 126.802 29.4826L126.795 29.4763Z" fill="#DCDCDC"/>
<path d="M86.1186 11.8422C85.4105 11.6869 84.6962 11.5503 84.0254 11.2832C84.7645 11.3267 85.4602 11.5254 86.1186 11.8422Z" fill="#D7D7D7"/>
<path d="M83.2915 11.1281C83.0182 11.1094 82.7263 11.1715 82.4902 10.9604C82.7697 10.9604 83.0617 10.892 83.2915 11.1281Z" fill="#D7D7D7"/>
<path fill-rule="evenodd" clip-rule="evenodd" d="M43.4974 83.5272C43.6885 83.5686 43.8795 83.61 44.0683 83.6572V83.6634H45.5962C45.6237 83.6556 45.6512 83.6465 45.6788 83.6373C45.7388 83.6175 45.7996 83.5974 45.8633 83.5889C47.7702 83.3591 49.3789 82.4771 50.8509 81.3094C51.1552 81.0672 51.118 80.7504 50.9441 80.4398C50.7639 80.123 50.5155 80.0796 50.1925 80.2286C49.7888 80.4088 49.3788 80.5827 48.9565 80.7193C47.3478 81.2348 45.7453 81.3342 44.1925 80.5144C43.0931 79.9305 42.3851 78.9864 41.8136 77.9119C41.6025 77.5061 41.7039 77.2183 42.118 77.0485C44.3851 76.1168 46.6149 75.1231 48.4348 73.4212C49.6397 72.297 50.6521 71.0609 50.9751 69.3715C51.4658 66.8187 50.1801 64.9616 48.3478 64.1976C46.9689 63.6262 45.5093 63.533 44.0683 63.7442C41.4161 64.1355 39.3664 65.5578 37.9875 67.8311C35.913 71.2473 35.7826 74.8373 37.4161 78.4585C38.3788 80.5951 39.9379 82.2038 42.1304 83.1417C42.57 83.3263 43.0344 83.4269 43.4974 83.5272ZM45.031 73.2721C46.4969 71.9802 47.3913 70.415 47.3788 68.4088L47.3664 68.4026C47.3664 68.3446 47.3685 68.2866 47.3706 68.2286C47.3747 68.1127 47.3788 67.9968 47.3664 67.8808C47.2795 66.9429 46.9316 66.1355 46.0434 65.7255C45.1801 65.3218 44.3167 65.4709 43.5341 66.0175C42.9627 66.415 42.5341 66.9491 42.2111 67.5578C40.8944 70.0299 40.7391 72.6696 41.031 75.3839C41.0621 75.7007 41.1987 75.7193 41.4534 75.5765C41.5564 75.5193 41.6595 75.4623 41.7627 75.4053C42.9034 74.7748 44.0456 74.1436 45.031 73.2721Z" fill="#ADADAD"/>
<path fill-rule="evenodd" clip-rule="evenodd" d="M99.0812 83.5272C99.2724 83.5686 99.4634 83.61 99.6522 83.6572V83.6634H101.18C101.208 83.6556 101.235 83.6465 101.263 83.6373C101.323 83.6175 101.383 83.5974 101.447 83.5889C103.354 83.3591 104.963 82.4771 106.435 81.3094C106.739 81.0672 106.702 80.7504 106.528 80.4398C106.348 80.123 106.099 80.0796 105.776 80.2286C105.373 80.4088 104.963 80.5827 104.54 80.7193C102.932 81.2348 101.329 81.3342 99.7764 80.5144C98.677 79.9305 97.9689 78.9864 97.3975 77.9119C97.1863 77.5061 97.2878 77.2183 97.7018 77.0485C99.9689 76.1168 102.199 75.1231 104.019 73.4212C105.224 72.297 106.236 71.0609 106.559 69.3715C107.05 66.8187 105.764 64.9616 103.932 64.1976C102.553 63.6262 101.093 63.533 99.6522 63.7442C97 64.1355 94.9503 65.5578 93.5714 67.8311C91.4969 71.2473 91.3664 74.8373 93 78.4585C93.9627 80.5951 95.5217 82.2038 97.7143 83.1417C98.1538 83.3263 98.6183 83.4269 99.0812 83.5272ZM97.7888 67.5765C96.7888 69.3901 96.5031 71.3653 96.4907 73.3963L96.4969 73.3901C96.4907 74.0609 96.5093 74.7317 96.6211 75.3963C96.6584 75.6075 96.7143 75.7566 96.9813 75.6075C97.0934 75.5454 97.2057 75.4834 97.3181 75.4215C98.2951 74.8826 99.2757 74.3418 100.161 73.651C102.05 72.1727 103.155 70.3094 102.95 67.8311C102.876 66.9181 102.497 66.1231 101.621 65.7255C100.764 65.3342 99.9192 65.4709 99.1428 66.005C98.559 66.415 98.1304 66.9616 97.7888 67.5765Z" fill="#ADADAD"/>
<path fill-rule="evenodd" clip-rule="evenodd" d="M166.609 83.3529C166.795 83.3467 166.901 83.2411 166.988 83.0982V82.6199C166.863 82.4709 166.72 82.3777 166.509 82.3653C166.019 82.328 165.665 82.0547 165.391 81.6634C165 81.1168 164.894 80.4833 164.894 79.8311V67.6386C164.894 65.9243 164.155 64.856 162.515 64.3777C159.907 63.6137 157.342 63.8435 154.845 64.8994C154.155 65.1852 153.522 65.5703 153.019 66.1231C152.236 66.9802 152.335 68.0361 153.248 68.7504C153.863 69.2286 154.565 69.5206 155.335 69.6324C156.056 69.738 156.248 69.5703 156.267 68.8311C156.286 68.0796 156.453 67.3653 156.826 66.7131C157.335 65.8249 158.224 65.3901 159.279 65.5578C160.205 65.7069 160.503 66.4398 160.696 67.2224C160.907 68.0858 160.938 68.9678 160.95 69.856C160.956 70.1541 160.789 70.1976 160.547 70.21C158.702 70.2845 156.963 70.7442 155.373 71.6821C152.59 73.3156 151.031 75.6821 151.124 78.9988C151.211 81.9864 153.956 83.9429 156.776 82.9802C158.087 82.533 159.143 81.6883 160.068 80.6696C160.27 80.4498 160.462 80.2202 160.682 79.9576C160.767 79.8567 160.856 79.7506 160.95 79.6386C160.95 79.7372 160.949 79.8181 160.949 79.8877V79.8889C160.947 80.0025 160.946 80.0857 160.95 80.1665C161.043 81.7566 161.422 82.4833 163.025 82.974C164.193 83.3342 165.397 83.3653 166.609 83.3529ZM160.95 76.21V74.4833H160.957V72.5516C160.95 72.0671 160.907 72.005 160.416 72.0671C158.87 72.2659 157.547 72.9181 156.46 74.0299C155.665 74.8435 155.168 75.8125 155.118 76.9616C155.068 78.0361 155.54 79.2907 157.031 79.5206C158.913 79.8125 160.95 78.1044 160.95 76.21Z" fill="#ADADAD"/>
<path d="M104.001 27.3845C104.442 26.2168 105.038 25.1236 105.697 24.0677C106.268 23.1484 106.827 22.2168 107.504 21.372C108.374 20.2851 109.25 19.2106 110.281 18.2665C111.2 17.4279 112.113 16.5894 113.113 15.8503C113.2 15.7882 113.299 15.7447 113.343 15.6391C113.97 15.3534 113.989 15.3472 114.187 16.0056C114.56 17.2292 114.821 18.4838 115.051 19.7447C115.486 22.105 115.548 24.4714 115.504 26.8565C115.486 27.9124 115.355 28.9621 115.225 30.0118C115.125 30.782 114.958 31.5335 114.858 32.3037C114.833 32.5087 114.734 32.6826 114.653 32.8627C114.541 33.0615 114.399 33.2292 114.206 33.3534C112.951 34.1857 111.784 35.1174 110.709 36.1795C109.349 37.5273 108.175 39.0118 107.181 40.6515C106.753 41.3658 106.405 42.1174 105.989 42.8379C105.889 43.0118 105.802 43.2354 105.541 43.136C105.312 43.0491 105.368 42.8379 105.392 42.6515C105.585 41.2292 105.703 39.8006 105.635 38.3596C105.56 36.8379 105.442 35.3161 105.125 33.813C104.821 32.3534 104.467 30.9186 103.945 29.5211C103.883 29.3596 103.877 29.1112 103.697 29.0988C103.454 29.0801 103.492 29.3658 103.417 29.5211C103.237 29.9124 103.125 30.3286 102.976 30.7323C102.908 30.9186 102.846 31.0988 102.591 31.0429C102.38 30.8814 102.423 30.6578 102.492 30.459C102.678 29.8752 102.883 29.2913 103.119 28.7261C103.237 28.4466 103.355 28.1795 103.659 28.0118C103.858 27.9 103.902 27.6143 103.989 27.3907L104.001 27.3845Z" fill="#8A8A8A"/>
<path d="M104 27.3837C103.976 27.7005 103.82 27.9552 103.659 28.2222C103.131 29.0794 102.796 30.0173 102.634 31.0111C102.808 31.1104 102.808 31.2533 102.758 31.4272C102.305 33.0794 101.951 34.7626 101.802 36.4707C101.628 38.4396 101.628 40.4024 101.895 42.3651C101.926 42.6073 102.044 42.9365 101.715 43.0235C101.417 43.098 101.355 42.775 101.249 42.5639C100.156 40.303 98.752 38.2657 96.9881 36.4583C95.9197 35.3651 94.7148 34.4583 93.4912 33.5701C93.2614 33.4024 93.0191 33.2657 92.721 33.2657C92.634 33.1974 92.5781 33.1104 92.5719 32.9924C92.5098 32.0732 92.2241 31.1912 92.1185 30.2844C92.0564 29.7688 91.9508 29.2533 91.9322 28.7378C91.9011 27.7378 91.7893 26.7378 91.7707 25.7378C91.7582 24.9676 91.8514 24.1912 91.8763 23.4148C91.9073 22.6135 91.9694 21.8185 92.0688 21.0297C92.1744 20.2222 92.3172 19.4272 92.4849 18.6322C92.6775 17.7191 92.8887 16.8061 93.1682 15.9179C93.2676 15.6011 93.4104 15.421 93.7645 15.4769C94.1682 15.8061 94.5595 16.1415 94.9756 16.4583C96.6899 17.7688 98.1682 19.303 99.516 20.98C101.125 22.9862 102.398 25.1912 103.417 27.5452C103.466 27.6632 103.46 27.8496 103.615 27.8682C103.777 27.8806 103.789 27.6943 103.864 27.5887C103.914 27.5266 103.957 27.4583 104 27.3899V27.3837Z" fill="#9A9A9A"/>
<path d="M92.7211 33.2588C92.7335 32.9793 92.8329 32.8799 93.0937 33.06C94.4229 33.9669 95.7211 34.9047 96.8639 36.0538C98.1124 37.3023 99.2242 38.6501 100.168 40.1408C100.653 40.911 101.069 41.7246 101.466 42.5445C101.522 42.6625 101.541 42.8054 101.684 42.8737C101.796 42.7557 101.727 42.619 101.715 42.501C101.454 40.6874 101.46 38.8737 101.566 37.0476C101.647 35.6501 101.895 34.2836 102.162 32.9172C102.286 32.2774 102.473 31.6501 102.634 31.0165C102.938 30.4451 103.05 29.8054 103.311 29.2153C103.417 28.9793 103.429 28.5631 103.671 28.5569C103.926 28.5445 103.963 28.9482 104.056 29.1905C104.615 30.6563 105.007 32.1594 105.324 33.6936C105.758 35.8054 105.883 37.9358 105.839 40.0849C105.82 40.9793 105.727 41.8737 105.591 42.7619C105.578 42.8364 105.535 42.9172 105.622 43.0165C105.864 42.7805 105.982 42.47 106.125 42.178C107.162 40.0724 108.497 38.1843 110.131 36.4886C111.386 35.1905 112.752 34.0414 114.274 33.0787C114.398 32.9979 114.529 32.9358 114.659 32.8613C114.578 33.5569 114.342 34.2091 114.131 34.8675C113.199 37.7681 111.914 40.4948 110.174 43.0041C109.945 43.3333 109.709 43.6563 109.473 43.9793C109.33 44.2339 109.162 44.47 108.982 44.6998C107.814 46.1532 106.547 47.5134 105.162 48.7681C104.802 49.0911 104.41 49.3706 104.063 49.7122C103.789 49.9855 103.466 49.8923 103.193 49.6563C101.982 48.6004 100.814 47.501 99.7397 46.2961C97.7645 44.0787 96.1558 41.619 94.8328 38.9731C94.572 38.4513 94.336 37.911 94.0937 37.3768C93.9571 37.1159 93.8701 36.8426 93.7707 36.5693C93.4229 35.7308 93.1745 34.8613 92.8763 33.9979C92.8204 33.7557 92.7707 33.5134 92.7148 33.2712L92.7211 33.2588Z" fill="#606060"/>
<path d="M92.8809 33.9844C92.9181 34.0216 92.9802 34.0527 92.9927 34.0962C93.2225 34.9285 93.6076 35.7049 93.7753 36.5558C93.3467 35.7421 93.061 34.885 92.8809 33.9844Z" fill="#9A9A9A"/>
<path d="M93.7754 36.5566C93.9679 36.7927 94.0673 37.066 94.0984 37.3641C93.8686 37.1405 93.7816 36.8672 93.7754 36.5566Z" fill="#9A9A9A"/>
<path d="M108.986 44.6873C109.098 44.414 109.253 44.1656 109.477 43.9668C109.421 44.2774 109.222 44.4947 108.986 44.6873Z" fill="#8C8C8C"/>
</g>
<defs>
<clipPath id="clip0_67_1479">
<rect width="167" height="83.1739" fill="white" transform="translate(0 0.482422)"/>
</clipPath>
</defs>
</svg>
