<svg width="231" height="127" viewBox="0 0 231 127" fill="none" xmlns="http://www.w3.org/2000/svg">
<g clip-path="url(#clip0_503_2328)">
<g clip-path="url(#clip1_503_2328)">
<path d="M111.744 39.6367L115.758 25.1875L119.571 39.6367L115.758 42.8476L111.744 39.6367Z" fill="#CECECE"/>
<path d="M115.417 45.1711C127.69 36.2688 139.868 27.4388 152.041 18.6087L152.402 19.0222C142.589 29.4657 132.776 39.9052 122.838 50.4812C123.588 51.0592 124.239 51.5609 125.037 52.179C134.887 40.9969 144.672 29.8911 154.458 18.7814L154.823 19.0342C144.965 35.442 135.108 51.8539 125.114 68.4907C121.826 65.0189 118.7 61.7072 115.485 58.3115C112.254 61.7232 109.119 65.0349 105.852 68.4864C95.9624 52.0225 86.1852 35.7551 76.4119 19.4877L76.7651 19.2148C86.3939 30.144 96.0266 41.0692 105.776 52.1349C106.526 51.6011 107.213 51.1154 108.124 50.4692C98.1017 39.8049 88.1518 29.2129 78.198 18.6248L78.4187 18.3398C90.7005 27.2461 102.978 36.1525 115.417 45.1752V45.1711Z" fill="#CECECE"/>
<path d="M122.838 50.4812C123.588 51.0592 124.239 51.5609 125.037 52.179L125.114 68.4907C121.826 65.0189 118.7 61.7072 115.485 58.3115L108.124 50.4692C107.213 51.1154 106.526 51.6011 105.776 52.1349L105.852 68.4864C95.9624 52.0225 86.1852 35.7551 76.4119 19.4877L76.7651 19.2148C86.3939 30.144 96.0266 41.0692 105.776 52.1349C106.526 51.6011 107.213 51.1154 108.124 50.4692C98.1017 39.8049 88.1518 29.2129 78.198 18.6248L78.4187 18.3398C90.441 27.058 102.46 35.7761 114.628 44.6034L115.417 45.1752V45.1711L122.838 50.4812Z" fill="#A8A8A8"/>
<path d="M108.083 68.4063C110.656 65.6655 112.996 63.1725 115.5 60.5078C117.977 63.1283 120.365 65.6532 122.966 68.4063H108.083Z" fill="#A8A8A8"/>
<path d="M77.2632 87.1172L74.2974 76.6083H76.3447L78.2381 84.3307H78.3356L80.3572 76.6083H82.2198L84.2466 84.3358H84.3389L86.2323 76.6083H88.2796L85.3138 87.1172H83.4358L81.3321 79.7432H81.25L79.1412 87.1172H77.2632ZM91.478 87.1172V76.6083H98.3127V78.2044H93.3816V81.0567H97.9584V82.6528H93.3816V85.5211H98.354V87.1172H91.478ZM107.844 79.4969C107.796 79.0491 107.594 78.6999 107.239 78.4507C106.886 78.2007 106.428 78.0761 105.863 78.0761C105.466 78.0761 105.127 78.1355 104.843 78.2551C104.559 78.3753 104.341 78.5376 104.191 78.7427C104.04 78.9484 103.963 79.1824 103.959 79.4462C103.959 79.665 104.009 79.8548 104.109 80.0156C104.211 80.1765 104.35 80.3127 104.525 80.4257C104.698 80.5351 104.892 80.6278 105.104 80.7032C105.316 80.7785 105.53 80.8415 105.745 80.893L106.731 81.1393C107.128 81.2313 107.509 81.3559 107.875 81.5139C108.244 81.6711 108.575 81.8696 108.865 82.1087C109.159 82.3485 109.392 82.6376 109.563 82.9759C109.734 83.315 109.819 83.7113 109.819 84.1663C109.819 84.7821 109.662 85.324 109.348 85.7928C109.032 86.2579 108.578 86.6223 107.983 86.8861C107.391 87.1461 106.674 87.2758 105.832 87.2758C105.015 87.2758 104.305 87.149 103.703 86.8962C103.105 86.6433 102.636 86.2738 102.297 85.7877C101.962 85.3023 101.781 84.7104 101.753 84.0127H103.626C103.654 84.3786 103.767 84.6828 103.965 84.9256C104.163 85.169 104.422 85.3501 104.74 85.4697C105.061 85.5892 105.421 85.6493 105.817 85.6493C106.232 85.6493 106.594 85.5877 106.905 85.4646C107.22 85.3378 107.466 85.1639 107.644 84.9415C107.822 84.7154 107.912 84.4517 107.916 84.1511C107.912 83.8772 107.832 83.6519 107.675 83.4737C107.517 83.2925 107.297 83.1418 107.013 83.0223C106.732 82.8991 106.404 82.7897 106.028 82.6941L104.832 82.3862C103.967 82.1638 103.283 81.8269 102.78 81.3748C102.28 80.9198 102.031 80.3163 102.031 79.5635C102.031 78.9448 102.198 78.4022 102.534 77.937C102.872 77.4719 103.332 77.1111 103.914 76.8546C104.495 76.5945 105.153 76.4648 105.889 76.4648C106.635 76.4648 107.288 76.5945 107.849 76.8546C108.414 77.1111 108.856 77.4683 109.178 77.9269C109.5 78.3819 109.666 78.9057 109.676 79.4969H107.844ZM112.933 78.2044V76.6083H121.318V78.2044H118.069V87.1172H116.181V78.2044H112.933ZM124.812 87.1172V76.6083H131.647V78.2044H126.716V81.0567H131.293V82.6528H126.716V85.5211H131.688V87.1172H124.812ZM135.467 87.1172V76.6083H139.408C140.216 76.6083 140.892 76.7488 141.44 77.0292C141.991 77.3096 142.407 77.703 142.687 78.2094C142.971 78.7122 143.113 79.2984 143.113 79.9692C143.113 80.643 142.969 81.2277 142.682 81.724C142.398 82.2167 141.978 82.5977 141.425 82.868C140.871 83.1353 140.19 83.2686 139.382 83.2686H136.576V81.6878H139.126C139.598 81.6878 139.985 81.6233 140.285 81.4929C140.587 81.3596 140.809 81.1661 140.952 80.9133C141.1 80.6568 141.173 80.3424 141.173 79.9692C141.173 79.5961 141.1 79.2781 140.952 79.0151C140.805 78.7477 140.581 78.5463 140.28 78.4094C139.979 78.2688 139.591 78.1993 139.116 78.1993H137.371V87.1172H135.467ZM140.896 82.355L143.498 87.1172H141.373L138.818 82.355H140.896ZM155.379 76.6083V87.1172H153.686L148.734 79.9591H148.647V87.1172H146.743V76.6083H148.447L153.394 83.7714H153.486V76.6083H155.379Z" fill="#CECECE"/>
<path d="M75.9749 90.6901V97.6953H74.7058V90.6901H75.9749ZM83.588 90.6901V97.6953H82.4591L79.1581 92.9237H79.1V97.6953H77.8309V90.6901H78.9665L82.2642 95.4653H82.3257V90.6901H83.588ZM85.1446 91.7537V90.6901H90.7341V91.7537H88.5687V97.6953H87.3099V91.7537H85.1446ZM92.2932 97.6953V90.6901H96.8496V91.7537H93.5623V93.6555H96.6136V94.7198H93.5623V96.6317H96.877V97.6953H92.2932ZM98.6261 97.6953V90.6901H101.253C101.791 90.6901 102.243 90.7836 102.608 90.9705C102.975 91.1574 103.252 91.4197 103.439 91.7573C103.628 92.092 103.723 92.4832 103.723 92.9303C103.723 93.3795 103.627 93.7692 103.435 94.1003C103.246 94.4285 102.967 94.6828 102.598 94.8632C102.228 95.0407 101.774 95.1298 101.236 95.1298H99.3651V94.0764H101.065C101.38 94.0764 101.637 94.0329 101.838 93.946C102.039 93.8576 102.187 93.7287 102.283 93.5598C102.38 93.3889 102.43 93.1788 102.43 92.9303C102.43 92.6818 102.38 92.4695 102.283 92.2942C102.185 92.1159 102.036 91.9819 101.835 91.8906C101.634 91.7971 101.375 91.75 101.058 91.75H99.8955V97.6953H98.6261ZM102.245 94.5213L103.979 97.6953H102.563L100.86 94.5213H102.245ZM111.13 90.6901V97.6953H110.001L106.7 92.9237H106.642V97.6953H105.373V90.6901H106.509L109.806 95.4653H109.867V90.6901H111.13ZM113.894 97.6953H112.539L115.006 90.6901H116.573L119.042 97.6953H117.688L115.816 92.1268H115.762L113.894 97.6953ZM113.938 94.9487H117.633V95.9681H113.938V94.9487ZM119.292 91.7537V90.6901H124.881V91.7537H122.716V97.6953H121.457V91.7537H119.292ZM127.71 90.6901V97.6953H126.44V90.6901H127.71ZM135.826 94.1923C135.826 94.9473 135.684 95.5942 135.402 96.1318C135.121 96.668 134.738 97.0787 134.252 97.3635C133.769 97.6489 133.22 97.7909 132.607 97.7909C131.993 97.7909 131.444 97.6489 130.958 97.3635C130.474 97.0766 130.091 96.6643 129.809 96.1289C129.528 95.5906 129.388 94.9451 129.388 94.1923C129.388 93.4381 129.528 92.7926 129.809 92.2565C130.091 91.7182 130.474 91.3067 130.958 91.0219C131.444 90.7365 131.993 90.5938 132.607 90.5938C133.22 90.5938 133.769 90.7365 134.252 91.0219C134.738 91.3067 135.121 91.7182 135.402 92.2565C135.684 92.7926 135.826 93.4381 135.826 94.1923ZM134.55 94.1923C134.55 93.6613 134.466 93.2128 134.3 92.8484C134.136 92.4811 133.908 92.2043 133.616 92.0174C133.324 91.8276 132.988 91.7334 132.607 91.7334C132.226 91.7334 131.889 91.8276 131.597 92.0174C131.305 92.2043 131.076 92.4811 130.91 92.8484C130.746 93.2128 130.664 93.6613 130.664 94.1923C130.664 94.7241 130.746 95.1733 130.91 95.5406C131.076 95.9051 131.305 96.1825 131.597 96.3716C131.889 96.5586 132.226 96.652 132.607 96.652C132.988 96.652 133.324 96.5586 133.616 96.3716C133.908 96.1825 134.136 95.9051 134.3 95.5406C134.466 95.1733 134.55 94.7241 134.55 94.1923ZM143.264 90.6901V97.6953H142.135L138.834 92.9237H138.776V97.6953H137.507V90.6901H138.642L141.94 95.4653H142.002V90.6901H143.264ZM146.028 97.6953H144.674L147.14 90.6901H148.706L151.176 97.6953H149.822L147.951 92.1268H147.896L146.028 97.6953ZM146.073 94.9487H149.767V95.9681H146.073V94.9487ZM152.581 97.6953V90.6901H153.85V96.6317H156.935V97.6953H152.581Z" fill="#CECECE"/>
<path d="M102.678 103.809C102.621 103.625 102.542 103.46 102.442 103.314C102.344 103.165 102.225 103.039 102.086 102.934C101.949 102.829 101.792 102.75 101.614 102.698C101.436 102.643 101.243 102.616 101.033 102.616C100.657 102.616 100.321 102.71 100.027 102.9C99.7328 103.089 99.501 103.368 99.3322 103.735C99.1663 104.099 99.0829 104.544 99.0829 105.069C99.0829 105.598 99.1663 106.046 99.3322 106.413C99.4988 106.78 99.7306 107.06 100.027 107.251C100.323 107.441 100.667 107.535 101.06 107.535C101.416 107.535 101.724 107.467 101.984 107.33C102.246 107.193 102.448 106.999 102.589 106.748C102.731 106.495 102.801 106.199 102.801 105.859L103.089 105.903H101.187V104.911H104.029V105.753C104.029 106.352 103.902 106.871 103.646 107.31C103.391 107.747 103.039 108.085 102.592 108.322C102.145 108.556 101.632 108.674 101.053 108.674C100.408 108.674 99.8408 108.53 99.3532 108.24C98.867 107.948 98.4874 107.534 98.2143 106.998C97.9426 106.46 97.8069 105.821 97.8069 105.082C97.8069 104.517 97.8867 104.012 98.0462 103.567C98.2085 103.122 98.4338 102.744 98.7236 102.434C99.0134 102.122 99.3532 101.885 99.743 101.723C100.133 101.559 100.557 101.477 101.015 101.477C101.404 101.477 101.764 101.534 102.1 101.648C102.435 101.76 102.733 101.919 102.993 102.126C103.255 102.334 103.471 102.581 103.639 102.865C103.808 103.151 103.918 103.465 103.971 103.809H102.678ZM105.738 108.578V101.573H108.365C108.904 101.573 109.355 101.666 109.72 101.853C110.087 102.04 110.364 102.302 110.551 102.64C110.74 102.975 110.835 103.366 110.835 103.813C110.835 104.262 110.739 104.652 110.547 104.983C110.358 105.311 110.079 105.566 109.709 105.746C109.34 105.924 108.886 106.013 108.348 106.013H106.477V104.959H108.177C108.492 104.959 108.749 104.916 108.95 104.829C109.151 104.74 109.299 104.611 109.395 104.443C109.493 104.272 109.542 104.062 109.542 103.813C109.542 103.565 109.493 103.352 109.395 103.177C109.297 102.999 109.148 102.865 108.947 102.773C108.746 102.68 108.487 102.633 108.17 102.633H107.007V108.578H105.738ZM109.357 105.404L111.092 108.578H109.675L107.972 105.404H109.357ZM118.744 105.075C118.744 105.83 118.603 106.477 118.321 107.015C118.04 107.551 117.657 107.962 117.171 108.246C116.688 108.532 116.139 108.674 115.525 108.674C114.913 108.674 114.363 108.532 113.877 108.246C113.393 107.959 113.011 107.547 112.727 107.012C112.447 106.473 112.307 105.828 112.307 105.075C112.307 104.321 112.447 103.675 112.727 103.139C113.011 102.601 113.393 102.189 113.877 101.905C114.363 101.619 114.913 101.477 115.525 101.477C116.139 101.477 116.688 101.619 117.171 101.905C117.657 102.189 118.04 102.601 118.321 103.139C118.603 103.675 118.744 104.321 118.744 105.075ZM117.469 105.075C117.469 104.544 117.385 104.096 117.219 103.731C117.055 103.364 116.827 103.087 116.535 102.9C116.243 102.71 115.907 102.616 115.525 102.616C115.145 102.616 114.808 102.71 114.517 102.9C114.225 103.087 113.995 103.364 113.829 103.731C113.665 104.096 113.583 104.544 113.583 105.075C113.583 105.607 113.665 106.056 113.829 106.423C113.995 106.788 114.225 107.065 114.517 107.254C114.808 107.441 115.145 107.535 115.525 107.535C115.907 107.535 116.243 107.441 116.535 107.254C116.827 107.065 117.055 106.788 117.219 106.423C117.385 106.056 117.469 105.607 117.469 105.075ZM124.843 101.573H126.111V106.15C126.111 106.651 125.993 107.093 125.755 107.473C125.521 107.854 125.19 108.152 124.764 108.366C124.337 108.578 123.839 108.685 123.269 108.685C122.697 108.685 122.197 108.578 121.771 108.366C121.344 108.152 121.014 107.854 120.779 107.473C120.543 107.093 120.426 106.651 120.426 106.15V101.573H121.695V106.044C121.695 106.335 121.759 106.595 121.887 106.823C122.017 107.052 122.2 107.231 122.434 107.36C122.669 107.488 122.947 107.552 123.269 107.552C123.591 107.552 123.869 107.488 124.104 107.36C124.34 107.231 124.523 107.052 124.651 106.823C124.779 106.595 124.843 106.335 124.843 106.044V101.573ZM127.972 108.578V101.573H130.599C131.138 101.573 131.589 101.673 131.954 101.874C132.322 102.074 132.598 102.35 132.785 102.702C132.975 103.05 133.069 103.447 133.069 103.892C133.069 104.341 132.975 104.74 132.785 105.089C132.596 105.438 132.316 105.713 131.947 105.913C131.578 106.112 131.123 106.211 130.583 106.211H128.841V105.168H130.412C130.726 105.168 130.984 105.113 131.185 105.003C131.385 104.894 131.533 104.743 131.629 104.552C131.727 104.361 131.776 104.141 131.776 103.892C131.776 103.644 131.727 103.424 131.629 103.235C131.533 103.046 131.384 102.899 131.181 102.794C130.98 102.686 130.722 102.633 130.405 102.633H129.242V108.578H127.972Z" fill="#CECECE"/>
</g>
</g>
<defs>
<clipPath id="clip0_503_2328">
<rect width="231" height="127" fill="white"/>
</clipPath>
<clipPath id="clip1_503_2328">
<rect width="83.3176" height="91.2885" fill="white" transform="translate(74.0164 17.8281)"/>
</clipPath>
</defs>
</svg>
