<svg width="231" height="127" viewBox="0 0 231 127" fill="none" xmlns="http://www.w3.org/2000/svg">
<g clip-path="url(#clip0_312_809)">
<path d="M34.0212 62.2353C34.4023 61.5012 34.6988 60.7247 35.3764 60.1812C37.3952 58.5577 40.2892 59.2071 41.4045 61.5717C42.668 64.2469 43.8962 66.9362 45.1455 69.6114C45.2161 69.7526 45.2232 69.9926 45.442 69.9714C45.5973 69.9573 45.6255 69.7526 45.6891 69.6185C46.8608 67.0915 48.0819 64.5787 49.1831 62.0235C50.2136 59.6306 52.1689 58.9107 54.0817 59.3836C55.3805 59.7012 56.1781 60.6047 56.7146 61.7906C57.851 64.2893 59.0016 66.781 60.1521 69.2726C60.258 69.4985 60.3004 69.8655 60.5545 69.8726C60.8721 69.8867 60.9003 69.4914 61.0062 69.2515C63.3144 64.3175 65.6014 59.3765 67.9166 54.4497C68.693 52.805 70.5001 51.9509 72.2153 52.3321C74.7705 52.8968 76.0128 55.4802 74.9046 57.9719C74.3329 59.2565 73.7258 60.52 73.1329 61.7906C70.4012 67.6562 67.6837 73.5219 64.9308 79.3734C64.5002 80.291 64.1755 81.2792 63.4556 82.0416C61.578 84.0321 58.4228 83.6156 57.1593 81.1875C56.6793 80.2628 56.2628 79.3028 55.8182 78.364C54.9782 76.55 54.1382 74.736 53.2982 72.9219C53.2418 72.7948 53.2276 72.5972 53.0371 72.5972C52.8606 72.5972 52.8324 72.7878 52.7688 72.9148C51.8371 74.9195 50.9265 76.9382 49.9595 78.9287C49.416 80.051 49.0419 81.2792 48.1102 82.1827C46.2114 84.0321 43.0562 83.4886 41.9339 81.0886C39.4069 75.6959 36.894 70.2891 34.3812 64.8893C34.2471 64.5999 34.1271 64.3034 34 64.014C34 63.4211 34 62.8211 34 62.2282L34.0212 62.2353Z" fill="white"/>
<path d="M80.0056 40C80.9514 42.1458 81.135 44.2634 79.7162 46.2962C79.3703 46.7974 79.215 47.2633 79.5256 47.8773C79.7938 48.4067 79.7021 49.0067 79.3915 49.5361C79.1091 50.009 78.8127 50.4749 78.5021 50.9337C78.2268 51.3431 77.8951 51.3572 77.5492 51.0184C77.5209 50.9902 77.4927 50.9549 77.4645 50.9266C76.7963 50.1878 76.2245 50.2608 75.7492 51.1455C75.5869 51.4419 75.4316 51.7454 75.2551 52.0419C75.1069 52.296 74.8951 52.5078 74.5775 52.3242C74.2669 52.1407 74.3516 51.8513 74.4787 51.5901C74.5987 51.3431 74.761 51.1102 74.874 50.8631C74.9869 50.6231 75.1987 50.4184 75.1563 50.0584C74.8104 50.1643 74.7469 50.4749 74.6057 50.7078C74.4363 50.9831 74.2952 51.336 73.8858 51.1243C73.4905 50.9196 73.6528 50.609 73.8011 50.3055C73.9281 50.0514 74.161 49.8326 74.1046 49.4514C73.6387 49.6561 73.6105 50.129 73.3846 50.4537C73.1446 50.7996 73.0176 51.456 72.4599 51.1737C71.9023 50.8913 72.3964 50.4325 72.5517 50.0796C72.7352 49.6702 72.954 49.282 73.194 48.9079C73.5258 48.3997 73.3423 48.195 72.8058 48.1315C72.5305 48.0962 72.2623 48.0256 71.987 47.9903C71.4788 47.9268 71.3164 47.6444 71.507 47.1856C71.747 46.6139 71.9941 46.0562 72.2764 45.5057C72.5446 44.9763 73.0105 44.6586 73.5964 44.6234C74.0693 44.5951 74.3446 44.3834 74.5422 43.9951C74.5704 43.9387 74.6128 43.8893 74.634 43.8257C75.4034 41.9905 76.6739 40.7129 78.6503 40.2259C78.7703 40.1976 78.8691 40.0988 78.975 40.0353C79.3138 40.0353 79.6597 40.0353 79.9985 40.0353L80.0056 40ZM77.5139 43.3669C76.9704 43.381 76.4551 43.9316 76.4904 44.4539C76.5257 44.9551 77.0621 45.4492 77.5633 45.428C78.0715 45.4069 78.5515 44.8845 78.5444 44.3692C78.5303 43.8399 78.0292 43.3458 77.5139 43.3669Z" fill="white"/>
<path d="M197.533 63.5099C197.124 64.2228 196.489 64.4628 195.705 64.4346C195.197 64.4134 194.682 64.4275 194.173 64.4346C193.235 64.4487 192.853 64.8016 192.846 65.7545C192.832 67.6039 192.846 69.4603 192.839 71.3096C192.839 71.5637 192.839 71.8178 192.832 72.0719C192.776 72.8625 192.239 73.4131 191.449 73.4836C190.63 73.5542 190.009 73.0954 189.825 72.2837C189.804 72.1778 189.769 72.0719 189.769 71.9731C189.769 69.6156 189.614 67.2439 189.839 64.8934C190.044 62.7688 191.597 61.4206 193.75 61.35C194.3 61.3288 194.858 61.3712 195.409 61.3359C196.284 61.2794 196.997 61.5265 197.533 62.2394V63.517V63.5099Z" fill="white"/>
<path d="M154.866 84.3212C154.647 84.1942 154.4 84.1024 154.209 83.9401C153.941 83.7142 153.546 83.4036 153.835 83.0578C154.075 82.7684 154.569 82.8107 154.873 83.1001C155.19 83.4036 155.529 83.4601 155.924 83.4248C156.235 83.3966 156.433 83.2272 156.553 82.9519C156.637 82.7542 156.722 82.5213 156.581 82.3448C156.404 82.126 156.235 82.3731 156.08 82.4366C154.851 82.9519 153.736 82.2743 153.532 80.8131C153.412 79.9873 153.56 79.1756 154.28 78.632C154.922 78.145 155.628 78.1662 156.306 78.5615C156.503 78.6744 156.574 78.625 156.715 78.4768C156.948 78.2368 157.273 78.2862 157.555 78.3779C157.873 78.4768 157.802 78.7873 157.809 79.0344C157.816 80.0085 157.774 80.9896 157.823 81.9637C157.88 83.0931 157.498 83.9118 156.404 84.3212H154.873H154.866ZM154.746 80.439C154.746 81.1872 155.12 81.6461 155.691 81.6249C156.256 81.6037 156.637 81.1449 156.637 80.4814C156.637 79.712 156.27 79.232 155.67 79.225C155.099 79.225 154.739 79.6908 154.746 80.432V80.439Z" fill="white"/>
<path d="M81.654 63.455C81.654 61.7327 81.654 60.0104 81.654 58.2811C81.654 57.2223 82.3105 56.5164 83.2493 56.5235C84.1245 56.5235 84.7528 57.2646 84.7528 58.3022C84.7528 61.5562 84.7528 64.8173 84.7528 68.0713C84.7528 69.5748 85.4727 70.2736 86.948 70.2665C88.1903 70.2594 88.9456 69.5324 88.9456 68.2901C88.9526 65.1632 88.9456 62.0362 88.9456 58.9022C88.9456 58.6481 88.9385 58.3869 88.9667 58.1399C89.0726 57.1941 89.8208 56.4811 90.6326 56.5305C91.5431 56.587 92.136 57.2435 92.1431 58.2599C92.1572 61.0904 92.1431 63.9209 92.1431 66.7513C92.1431 67.3019 92.129 67.8595 92.1502 68.4101C92.1996 69.6242 92.9831 70.2806 94.3383 70.2665C95.5595 70.2524 96.3359 69.5395 96.3359 68.3536C96.35 65.1208 96.343 61.8809 96.3359 58.6481C96.3359 58.0623 96.4065 57.4976 96.83 57.0458C97.6771 56.1494 99.0535 56.46 99.4276 57.6317C99.5335 57.9634 99.5264 58.3022 99.5264 58.6411C99.5264 61.7892 99.5194 64.9443 99.5264 68.0925C99.5335 70.1606 98.7358 71.8194 96.9218 72.8146C95.0724 73.8311 93.1313 73.7464 91.3243 72.6452C90.7243 72.2852 90.3643 72.2782 89.7644 72.6452C88.0279 73.7252 86.1433 73.8028 84.3434 72.864C82.5575 71.9323 81.5905 70.3865 81.6117 68.2972C81.6328 66.6807 81.6117 65.0643 81.6117 63.4479L81.654 63.455Z" fill="white"/>
<path d="M152.454 65.0072C152.454 67.2447 152.468 69.4752 152.447 71.7128C152.433 73.1033 151.127 73.8727 150.011 73.181C149.419 72.8139 149.256 72.2351 149.256 71.5857C149.256 70.1599 149.235 68.7341 149.256 67.3083C149.263 66.7647 149.087 66.5459 148.522 66.553C146.673 66.5742 144.816 66.5742 142.967 66.553C142.423 66.553 142.205 66.7295 142.219 67.2871C142.247 68.7764 142.247 70.2658 142.219 71.7551C142.198 73.0327 141.082 73.7668 139.981 73.2798C139.536 73.0821 139.275 72.7363 139.155 72.2845C139.078 71.981 139.042 71.6563 139.042 71.3387C139.035 67.0824 139.035 62.8261 139.042 58.5698C139.042 57.7439 139.205 56.9887 140.101 56.6428C140.948 56.311 141.809 56.7063 142.113 57.5604C142.219 57.871 142.24 58.1815 142.24 58.5062C142.24 59.8897 142.254 61.2732 142.233 62.6567C142.226 63.1861 142.423 63.3696 142.946 63.3625C144.816 63.3413 146.694 63.3413 148.564 63.3625C149.094 63.3625 149.277 63.1719 149.27 62.6496C149.249 61.1603 149.256 59.6709 149.27 58.1815C149.277 57.4898 149.588 56.9463 150.244 56.6569C150.851 56.3887 151.416 56.5157 151.917 56.9251C152.369 57.2922 152.468 57.8074 152.468 58.3651C152.468 60.5815 152.468 62.7908 152.468 65.0072H152.454Z" fill="white"/>
<path d="M101.459 64.9569C101.459 62.7264 101.459 60.4889 101.459 58.2584C101.459 57.1572 102.016 56.522 102.969 56.5079C103.774 56.5008 104.423 57.2702 104.423 58.2584C104.423 59.1125 104.43 59.9595 104.423 60.8136C104.423 61.2794 104.6 61.4559 105.087 61.3924C106.103 61.2653 107.127 61.2865 108.143 61.3571C110.55 61.5124 112.103 63.1429 112.174 65.6205C112.23 67.618 112.216 69.6227 112.174 71.6202C112.145 73.1237 110.924 73.8931 109.788 73.1802C109.258 72.8484 109.11 72.3402 109.11 71.7543C109.11 69.8203 109.11 67.8862 109.11 65.9451C109.11 64.7593 108.764 64.4134 107.6 64.4134C107.028 64.4134 106.449 64.4134 105.877 64.4134C104.811 64.4205 104.43 64.7946 104.423 65.8816C104.409 67.6886 104.423 69.4956 104.423 71.3026C104.423 71.4932 104.423 71.6837 104.423 71.8743C104.402 72.8061 103.795 73.4484 102.927 73.4343C102.073 73.4272 101.466 72.8272 101.459 71.9096C101.437 69.5944 101.459 67.2722 101.459 64.9569V64.9569Z" fill="white"/>
<path d="M133.299 69.0137C132.516 69.0137 131.725 69.0137 130.942 69.0137C130.681 69.0137 130.342 68.929 130.25 69.3031C130.158 69.6843 130.278 70.016 130.617 70.2489C130.864 70.4183 131.14 70.4113 131.415 70.4183C132.819 70.4183 134.224 70.4183 135.629 70.4183C136.476 70.4254 137.097 70.863 137.295 71.5477C137.549 72.4371 136.963 73.39 136.003 73.4323C134.245 73.5241 132.467 73.5947 130.716 73.4112C128.683 73.1994 127.342 71.7806 127.201 69.6701C127.088 68.0184 127.038 66.3526 127.264 64.708C127.504 62.9786 128.965 61.6304 130.702 61.4469C131.803 61.3269 132.904 61.3128 134.005 61.4469C135.996 61.6869 137.471 63.2892 137.499 65.2797C137.513 65.9573 137.513 66.642 137.499 67.3196C137.485 68.4137 136.956 68.9572 135.848 68.9996C135.424 69.0137 135.001 68.9996 134.57 68.9996C134.146 68.9996 133.716 68.9996 133.292 68.9996L133.299 69.0137ZM132.361 65.9432C132.89 65.9432 133.427 65.9432 133.956 65.9432C134.146 65.9432 134.344 65.9503 134.464 65.7526C134.831 65.1597 134.203 63.9245 133.504 63.9033C132.869 63.8821 132.227 63.8962 131.591 63.8962C130.448 63.8962 130.172 64.2068 130.208 65.3503C130.222 65.7879 130.405 65.9644 130.829 65.9503C131.337 65.9362 131.852 65.9503 132.361 65.9503V65.9432Z" fill="white"/>
<path d="M164.449 68.9872C164.393 69.926 164.555 71.0201 164.336 72.093C164.16 72.9612 163.828 73.3776 162.953 73.42C161.089 73.5117 159.205 73.66 157.355 73.3212C155.407 72.9612 154.186 71.2248 154.355 69.1849C154.497 67.4555 156.113 65.9944 157.977 65.9379C158.824 65.9097 159.678 65.9379 160.532 65.9309C160.856 65.9309 161.202 65.945 161.252 65.4932C161.301 65.0556 161.223 64.6674 160.751 64.5121C160.511 64.4345 160.249 64.4203 159.995 64.4203C158.845 64.4062 157.694 64.4486 156.551 64.3992C155.266 64.3427 154.588 63.531 154.878 62.4722C155.083 61.7028 155.718 61.4346 156.381 61.3993C158.033 61.3146 159.699 61.244 161.343 61.5687C163.087 61.9145 164.11 63.2204 164.343 65.225C164.485 66.432 164.442 67.6461 164.463 68.9943L164.449 68.9872ZM159.416 70.406C159.416 70.406 159.416 70.406 159.416 70.413C159.649 70.413 159.882 70.413 160.115 70.413C161.442 70.413 161.499 70.3354 161.372 68.9943C161.336 68.6555 161.202 68.4861 160.864 68.4931C159.932 68.4931 159 68.479 158.068 68.5072C157.489 68.5284 157.264 68.9519 157.257 69.4672C157.25 69.9966 157.525 70.3636 158.089 70.3989C158.534 70.4272 158.979 70.3989 159.424 70.3989L159.416 70.406Z" fill="white"/>
<path d="M188.09 63.5931C188.09 65.1883 188.09 66.7835 188.09 68.3788C188.083 71.3434 185.944 73.4892 182.98 73.4892C181.963 73.4892 180.94 73.588 179.923 73.3762C177.777 72.9386 176.076 70.9763 175.942 68.7882C175.879 67.7082 176.472 66.9177 177.417 66.8259C178.356 66.7341 179.041 67.3906 179.168 68.5129C179.281 69.5081 179.958 70.1787 180.975 70.2422C181.568 70.2775 182.168 70.2634 182.761 70.2564C184.088 70.2352 184.85 69.4729 184.857 68.1317C184.864 64.9836 184.857 61.8355 184.857 58.6874C184.857 58.4333 184.85 58.1721 184.871 57.9251C184.949 57.1486 185.485 56.6192 186.283 56.5204C187.01 56.4286 187.681 56.8451 187.942 57.5439C188.062 57.8686 188.083 58.2074 188.083 58.5462C188.083 60.2262 188.083 61.9061 188.083 63.586L188.09 63.5931Z" fill="white"/>
<path d="M167.132 66.3027C167.132 65.3215 167.132 64.3474 167.132 63.3663C167.132 62.5122 167.111 62.4981 166.292 62.484C166.123 62.484 165.953 62.484 165.784 62.4558C165.085 62.3428 164.634 61.8558 164.57 61.1782C164.492 60.317 164.81 59.7806 165.565 59.5406C165.728 59.4912 165.897 59.4559 166.066 59.4347C166.753 59.3688 167.111 58.9759 167.139 58.2559C167.189 57.183 167.803 56.5195 168.72 56.5477C169.617 56.576 170.189 57.2395 170.21 58.2771C170.21 58.4677 170.224 58.6582 170.21 58.8488C170.196 59.2582 170.393 59.4206 170.789 59.4206C171.297 59.4135 171.812 59.4065 172.32 59.4276C173.266 59.47 173.93 60.1405 173.916 60.9946C173.894 61.9052 173.294 62.4628 172.278 62.484C171.77 62.4981 171.254 62.4981 170.746 62.484C170.372 62.484 170.21 62.6534 170.21 63.0275C170.21 65.1309 170.203 67.2414 170.224 69.3449C170.231 70.0508 170.605 70.3402 171.396 70.3896C172.426 70.4531 172.991 70.9472 173.026 71.8154C173.069 72.7965 172.497 73.4106 171.494 73.46C169.045 73.573 167.203 71.8225 167.146 69.3025C167.125 68.3002 167.146 67.305 167.146 66.3027H167.132Z" fill="white"/>
<path d="M120.483 66.4985C120.483 65.4962 120.483 64.5009 120.483 63.4986C120.483 62.8492 120.14 62.5128 119.453 62.4892C118.542 62.461 117.985 62.0304 117.843 61.2469C117.681 60.3364 118.323 59.5388 119.298 59.4399C120.069 59.3599 120.467 58.9247 120.49 58.1341C120.526 56.8848 121.69 56.1577 122.7 56.7648C123.166 57.04 123.455 57.4494 123.455 58.0141C123.455 58.2471 123.476 58.487 123.455 58.7129C123.413 59.2282 123.61 59.4611 124.147 59.4329C124.655 59.4047 125.17 59.4117 125.678 59.4329C126.631 59.4752 127.295 60.1317 127.281 60.9928C127.267 61.9034 126.66 62.4681 125.65 62.4963C125.121 62.5104 124.584 62.5104 124.055 62.4963C123.667 62.4892 123.455 62.6234 123.462 63.0469C123.469 65.0656 123.448 67.0914 123.483 69.1102C123.504 70.0278 123.864 70.3313 124.789 70.4089C125.735 70.4936 126.406 71.1642 126.37 71.9971C126.335 72.8371 125.622 73.4512 124.669 73.4723C122.29 73.5218 120.49 71.7571 120.483 69.3713C120.483 68.4114 120.483 67.4585 120.483 66.4985V66.4985Z" fill="white"/>
<path d="M113.991 67.0724C113.991 65.816 113.991 64.5666 113.991 63.3102C113.991 63.2043 113.991 63.0984 113.991 62.9925C113.991 61.482 114.52 60.7126 115.536 60.7268C116.532 60.7409 117.054 61.5032 117.054 62.9643C117.054 64.7078 117.054 66.4512 117.054 68.1876C117.054 69.2958 117.054 70.397 117.054 71.5052C117.054 71.8016 117.033 72.0981 116.934 72.3875C116.708 73.0439 116.08 73.4957 115.431 73.4533C114.76 73.411 114.216 72.9239 114.061 72.2322C113.941 71.7099 113.998 71.1734 113.998 70.644C113.991 69.4511 113.998 68.2653 113.998 67.0724H113.991Z" fill="white"/>
<path d="M103.561 82.802C101.789 82.802 100.582 81.5879 100.582 79.7809C100.582 77.8892 101.747 76.6399 103.518 76.6328C105.347 76.6328 106.476 77.8186 106.469 79.7315C106.469 81.6091 105.34 82.802 103.561 82.802V82.802ZM101.98 79.7033C101.98 80.8679 102.446 81.5597 103.293 81.6373C104.471 81.7432 105.234 80.9032 105.128 79.6256C105.036 78.5245 104.563 77.8822 103.78 77.8045C102.622 77.6845 101.987 78.3551 101.98 79.7033Z" fill="white"/>
<path d="M180.62 77.0179C180.063 77.5402 179.526 78.0767 178.948 78.5708C178.503 78.9449 178.524 79.2696 178.856 79.7072C179.442 80.4907 179.985 81.3024 180.55 82.1071C180.642 82.2412 180.818 82.3824 180.755 82.5518C180.663 82.7777 180.416 82.6506 180.239 82.6789C179.541 82.7918 179.068 82.5306 178.736 81.8954C178.468 81.3871 178.101 80.9425 177.79 80.4554C177.578 80.1307 177.395 80.1519 177.148 80.4272C176.759 80.8648 176.851 81.3801 176.844 81.8883C176.83 82.6295 176.71 82.7212 175.976 82.6859C175.602 82.6647 175.439 82.5024 175.439 82.1354C175.439 80.5401 175.447 78.9449 175.439 77.3426C175.439 76.8203 175.743 76.7709 176.145 76.7709C176.562 76.7709 176.865 76.8414 176.844 77.3497C176.83 77.7096 176.844 78.0767 176.844 78.4367C176.844 78.5778 176.809 78.7684 176.992 78.8178C177.134 78.8602 177.204 78.7049 177.289 78.6131C177.642 78.2461 178.037 77.9073 178.341 77.4979C178.912 76.7356 179.653 76.6579 180.486 76.8203C180.536 76.8838 180.578 76.9473 180.628 77.0108L180.62 77.0179Z" fill="white"/>
<path d="M132.208 82.8095C130.549 82.7954 129.484 81.7366 129.335 79.9438C129.138 77.6003 131.22 75.991 133.394 76.7957C133.966 77.0074 134.396 77.3533 134.622 77.925C134.728 78.2003 135.025 78.5532 134.601 78.7438C134.248 78.8991 133.761 78.9626 133.521 78.5179C133.168 77.8544 132.61 77.7486 131.961 77.8121C131.919 77.8121 131.876 77.8191 131.834 77.8333C130.987 78.0168 130.472 79.3932 130.825 80.5437C131.107 81.4684 131.94 81.899 132.829 81.5884C133.189 81.4614 133.338 81.1649 133.486 80.8543C133.69 80.4237 134.297 80.212 134.707 80.4096C134.975 80.5437 134.897 80.7484 134.848 80.9602C134.566 82.1178 133.563 82.8237 132.215 82.8166L132.208 82.8095Z" fill="white"/>
<path d="M145.288 79.7932C145.288 80.5131 145.288 81.2402 145.288 81.9601C145.281 82.6307 145.069 82.8213 144.427 82.6448C144.053 82.5389 143.749 82.5954 143.403 82.7083C142.309 83.0683 141.342 82.546 140.996 81.4519C140.792 80.8025 140.777 80.1673 141.032 79.5179C141.441 78.4732 142.38 78.0073 143.453 78.4309C143.968 78.6356 144.046 78.4591 144.017 78.0144C144.003 77.8238 144.024 77.6332 144.017 77.4427C143.982 76.9627 144.173 76.7509 144.681 76.758C145.168 76.758 145.309 76.9909 145.302 77.4285C145.288 78.212 145.302 79.0026 145.302 79.7861L145.288 79.7932ZM144.017 80.5414C144.017 79.5885 143.516 79.052 142.81 79.2779C142.224 79.4685 142.09 79.9414 142.097 80.492C142.104 81.0708 142.196 81.6213 142.832 81.8401C143.304 82.0025 143.657 81.7837 143.883 81.3531C144.017 81.099 144.01 80.8167 144.017 80.5414Z" fill="white"/>
<path d="M187.97 79.7027C188.034 80.4439 187.949 81.185 188.013 81.9332C188.069 82.5685 187.73 82.8367 187.088 82.6462C186.728 82.5403 186.46 82.5897 186.128 82.7167C185.217 83.0626 184.236 82.632 183.841 81.7427C183.523 81.0368 183.474 80.3027 183.742 79.5686C184.152 78.4393 185.14 77.9734 186.255 78.4604C186.756 78.6792 186.799 78.4816 186.784 78.0863C186.784 77.8534 186.799 77.6205 186.784 77.3875C186.763 76.957 186.947 76.7734 187.384 76.7734C187.843 76.7734 187.97 76.9993 187.963 77.4087C187.949 78.171 187.963 78.9404 187.963 79.7027H187.97ZM186.799 80.5427C186.806 79.7027 186.46 79.2298 185.846 79.2228C185.246 79.2228 184.815 79.7451 184.794 80.5074C184.773 81.2556 185.246 81.8768 185.839 81.8768C186.439 81.8768 186.784 81.3968 186.799 80.5427Z" fill="white"/>
<path d="M95.9542 80.8854C95.6366 80.8854 95.3189 80.8854 94.9943 80.8854C94.8037 80.8854 94.5778 80.8713 94.5072 81.0972C94.4296 81.3513 94.5707 81.556 94.7684 81.7042C95.0648 81.923 95.3966 81.9442 95.7354 81.8172C95.8554 81.7748 95.9613 81.7042 96.0672 81.6266C96.4342 81.3372 97.0201 81.196 97.2036 81.5207C97.4365 81.923 96.9495 82.3183 96.5683 82.5442C95.5872 83.1301 94.1825 82.8336 93.5331 81.9372C92.8837 81.0337 93.0602 79.5302 93.9143 78.7961C94.6201 78.1891 95.446 78.1679 96.2507 78.4785C97.1189 78.8102 97.3589 79.5867 97.4506 80.4337C97.4859 80.7372 97.3095 80.8643 97.0342 80.8713C96.6742 80.8784 96.3142 80.8713 95.9472 80.8713C95.9472 80.8713 95.9472 80.8784 95.9472 80.8854H95.9542Z" fill="white"/>
<path d="M124.159 82.8178C123.143 82.8389 122.444 82.4295 122.098 81.5825C121.738 80.6861 121.773 79.7826 122.444 79.0061C123.1 78.2509 123.954 78.1662 124.844 78.4132C125.656 78.6391 126.248 79.5849 126.227 80.4531C126.22 80.8061 126.009 80.8766 125.726 80.8766C125.07 80.8766 124.406 80.8766 123.75 80.8837C123.559 80.8837 123.333 80.8625 123.263 81.0955C123.185 81.3496 123.319 81.5613 123.517 81.7025C123.962 82.006 124.42 81.9566 124.83 81.6531C125.211 81.3707 125.74 81.1731 125.959 81.519C126.192 81.886 125.705 82.2601 125.359 82.5001C124.978 82.7683 124.54 82.8389 124.166 82.8178H124.159Z" fill="white"/>
<path d="M107.345 80.53C107.345 80.0218 107.345 79.5136 107.345 78.9983C107.345 78.7725 107.296 78.4901 107.578 78.3913C107.86 78.2925 108.22 78.2289 108.418 78.4689C108.644 78.7513 108.799 78.6242 109.004 78.5042C109.434 78.2572 109.907 78.2572 110.366 78.3348C111.037 78.4407 111.354 78.9207 111.397 79.5418C111.453 80.4312 111.432 81.3277 111.432 82.217C111.432 82.6829 111.093 82.6758 110.761 82.6829C110.409 82.69 110.183 82.5841 110.176 82.1888C110.176 81.5112 110.176 80.8265 110.162 80.1489C110.162 79.683 110.02 79.2736 109.47 79.2666C108.94 79.2666 108.651 79.5842 108.637 80.1136C108.623 80.7277 108.616 81.3488 108.63 81.9629C108.637 82.4076 108.545 82.69 108.002 82.69C107.486 82.69 107.331 82.4641 107.345 81.9912C107.366 81.5041 107.345 81.0171 107.345 80.523V80.53Z" fill="white"/>
<path d="M166.35 78.3125C167.769 78.3125 168.63 79.1595 168.637 80.5571C168.637 81.9124 167.713 82.8229 166.336 82.8159C165.009 82.8159 164.106 81.9406 164.085 80.6418C164.056 79.2089 164.932 78.3125 166.358 78.3125H166.35ZM165.348 80.5642C165.348 81.4253 165.722 81.9053 166.386 81.8912C166.993 81.8771 167.374 81.3759 167.374 80.5642C167.374 79.7595 167 79.2513 166.386 79.2372C165.722 79.2231 165.348 79.696 165.348 80.5571V80.5642Z" fill="white"/>
<path d="M135.693 80.5572C135.693 79.096 136.491 78.3055 137.945 78.3125C139.293 78.3125 140.176 79.1949 140.176 80.5572C140.176 81.9336 139.272 82.83 137.889 82.8159C136.505 82.8018 135.693 81.9689 135.693 80.5572V80.5572ZM138.898 80.5289C138.898 79.7031 138.545 79.2443 137.917 79.2372C137.317 79.2302 136.893 79.7878 136.886 80.5925C136.879 81.3195 137.331 81.8912 137.91 81.8842C138.552 81.8771 138.905 81.3971 138.898 80.5289Z" fill="white"/>
<path d="M117.045 80.5092C117.045 80.0221 117.045 79.528 117.045 79.041C117.052 78.3634 117.539 78.074 118.076 78.4763C118.323 78.6598 118.428 78.6245 118.661 78.5045C119.868 77.8763 120.977 78.4481 121.104 79.8104C121.174 80.5868 121.125 81.3844 121.132 82.1679C121.132 82.5985 120.871 82.6903 120.504 82.6903C120.144 82.6903 119.861 82.6267 119.861 82.1821C119.861 81.5468 119.861 80.9045 119.854 80.2692C119.847 79.8033 119.784 79.3445 119.198 79.2598C118.704 79.1892 118.4 79.5139 118.28 80.1774C118.167 80.8127 118.231 81.448 118.224 82.0903C118.224 82.5279 118.04 82.6973 117.603 82.6903C117.193 82.6903 117.024 82.5067 117.038 82.1115C117.052 81.5821 117.038 81.0456 117.038 80.5162L117.045 80.5092Z" fill="white"/>
<path d="M148.589 80.4927C148.589 80.0056 148.589 79.5186 148.589 79.0245C148.589 78.7986 148.525 78.5233 148.793 78.4033C149.076 78.2763 149.407 78.241 149.633 78.4739C149.831 78.6716 149.951 78.6716 150.163 78.5233C150.621 78.2127 151.144 78.2551 151.645 78.3539C152.174 78.4598 152.464 78.841 152.57 79.3774C152.746 80.2809 152.683 81.1985 152.683 82.1091C152.683 82.5538 152.428 82.6738 152.019 82.6808C151.589 82.6808 151.398 82.5185 151.405 82.0808C151.419 81.4667 151.412 80.8456 151.405 80.2315C151.391 79.7656 151.32 79.3068 150.727 79.2504C150.24 79.2009 149.852 79.568 149.803 80.1821C149.753 80.7962 149.767 81.4103 149.774 82.0314C149.774 82.4267 149.683 82.6808 149.21 82.6879C148.73 82.6949 148.574 82.4761 148.589 82.0244C148.603 81.5162 148.589 81.0079 148.589 80.4927V80.4927Z" fill="white"/>
<path d="M190.765 78.306C191.302 78.2989 191.845 78.306 192.255 78.7295C192.488 78.9695 192.812 79.3154 192.523 79.5906C192.262 79.8447 191.796 79.8236 191.492 79.4848C191.295 79.2659 191.097 79.1036 190.794 79.1036C190.561 79.1036 190.285 79.1036 190.208 79.3789C190.13 79.6683 190.384 79.7953 190.603 79.873C190.921 79.9859 191.26 80.0565 191.584 80.1483C192.41 80.3812 192.812 80.8047 192.798 81.4188C192.777 82.1035 192.227 82.6611 191.415 82.774C190.864 82.8517 190.307 82.8658 189.777 82.654C189.587 82.5764 189.382 82.4776 189.234 82.3294C188.973 82.0752 188.648 81.7153 188.966 81.4047C189.262 81.1153 189.721 81.1647 190.024 81.56C190.3 81.92 190.645 82.0752 191.083 81.9553C191.302 81.8988 191.478 81.7788 191.485 81.5247C191.492 81.2988 191.351 81.1647 191.161 81.1012C190.857 81.0023 190.554 80.9176 190.243 80.84C189.262 80.6 188.824 80.1694 188.881 79.5059C188.944 78.7789 189.544 78.3342 190.504 78.306C190.589 78.306 190.674 78.306 190.758 78.306H190.765Z" fill="white"/>
<path d="M81.6492 79.702C81.6492 78.9397 81.6633 78.1703 81.6492 77.408C81.635 76.9421 81.8256 76.7727 82.2915 76.7656C82.7785 76.7656 82.9832 76.935 82.9762 77.4362C82.955 78.4738 82.9762 79.5185 82.9762 80.5561C82.9762 81.2007 83.2891 81.5254 83.915 81.5301C84.3808 81.5301 84.8467 81.5301 85.3196 81.5301C85.7149 81.5301 85.8914 81.7207 85.8984 82.1231C85.8984 82.5395 85.7079 82.6878 85.3126 82.6807C84.2961 82.6736 83.2726 82.6666 82.2562 82.6807C81.8115 82.6807 81.6562 82.476 81.6633 82.0595C81.6774 81.276 81.6633 80.4855 81.6633 79.702H81.6492Z" fill="white"/>
<path d="M90.7074 80.9938C90.9474 80.2456 91.1732 79.5398 91.3921 78.8339C91.4838 78.5516 91.6179 78.3539 91.9638 78.3328C92.5567 78.2975 92.7191 78.4598 92.5356 79.0174C92.1967 80.0692 91.8156 81.1138 91.4909 82.1656C91.3427 82.6455 91.018 82.6879 90.6086 82.6879C90.185 82.6879 89.8815 82.6244 89.7333 82.1514C89.4227 81.135 89.0486 80.1327 88.731 79.1233C88.6604 78.8904 88.3216 78.5728 88.7663 78.3681C89.2251 78.1563 89.7545 78.3892 89.9027 78.841C90.0933 79.4268 90.2697 80.0198 90.4533 80.6056C90.4886 80.7186 90.4815 80.8597 90.7144 80.9868L90.7074 80.9938Z" fill="white"/>
<path d="M161.521 80.9347C161.521 80.5747 161.521 80.2147 161.521 79.8477C161.521 79.5583 161.471 79.3394 161.154 79.1842C160.73 78.9724 160.759 78.5418 161.196 78.3371C161.464 78.2101 161.556 78.0265 161.627 77.7654C161.846 76.9536 162.551 76.5725 163.356 76.7842C163.582 76.8478 163.667 76.9819 163.674 77.1936C163.681 77.4266 163.631 77.6172 163.356 77.6666C163.13 77.7089 162.848 77.716 162.848 78.0336C162.848 78.3371 163.137 78.2877 163.328 78.3442C163.547 78.4077 163.638 78.5559 163.638 78.7677C163.638 78.9795 163.547 79.163 163.321 79.1771C162.813 79.2124 162.784 79.5512 162.791 79.9394C162.799 80.6382 162.777 81.3441 162.791 82.0429C162.806 82.5228 162.587 82.6711 162.135 82.6711C161.704 82.6711 161.5 82.5087 161.514 82.0711C161.528 81.6899 161.514 81.3017 161.514 80.9206L161.521 80.9347Z" fill="white"/>
<path d="M117.201 58.2263C117.208 59.2215 116.523 59.9274 115.542 59.9344C114.504 59.9415 113.855 59.3133 113.848 58.2898C113.841 57.3439 114.589 56.5604 115.506 56.5393C116.466 56.5251 117.201 57.2522 117.208 58.2263H117.201Z" fill="white"/>
<path d="M112.456 79.6808C112.456 78.9185 112.47 78.1491 112.456 77.3868C112.442 76.9068 112.682 76.7656 113.126 76.7656C113.564 76.7656 113.74 76.9491 113.74 77.3727C113.733 78.9467 113.733 80.5208 113.74 82.0948C113.74 82.5395 113.529 82.6807 113.105 82.6807C112.696 82.6807 112.456 82.5536 112.463 82.1019C112.477 81.2972 112.463 80.4855 112.463 79.6737L112.456 79.6808Z" fill="white"/>
<path d="M169.433 80.5051C169.433 80.018 169.426 79.5239 169.433 79.0369C169.447 78.4087 169.962 78.0487 170.442 78.4087C170.852 78.7192 171.099 78.5781 171.437 78.4087C171.649 78.3028 171.903 78.2393 172.108 78.4087C172.32 78.571 172.256 78.8392 172.249 79.0651C172.242 79.3686 172.023 79.4251 171.769 79.4675C170.972 79.6016 170.739 79.8768 170.717 80.7027C170.703 81.1897 170.71 81.6838 170.71 82.1709C170.71 82.6085 170.442 82.6862 170.075 82.6862C169.708 82.6862 169.44 82.6085 169.44 82.1709C169.44 81.6203 169.44 81.0627 169.44 80.5121L169.433 80.5051Z" fill="white"/>
<path d="M182.725 80.5586C182.725 81.0668 182.704 81.5821 182.725 82.0903C182.754 82.648 182.408 82.6762 181.984 82.7044C181.525 82.7327 181.441 82.4997 181.448 82.1256C181.448 81.081 181.462 80.0434 181.448 78.9987C181.448 78.5046 181.666 78.3281 182.146 78.3281C182.655 78.3281 182.739 78.6105 182.732 79.0269C182.718 79.5351 182.732 80.0434 182.732 80.5586H182.725Z" fill="white"/>
<path d="M116.021 80.5445C116.021 81.0739 116.021 81.6033 116.021 82.1327C116.028 82.5985 115.752 82.6903 115.357 82.6833C114.983 82.6833 114.743 82.5703 114.75 82.1468C114.75 81.0668 114.75 79.9798 114.75 78.8999C114.75 78.4411 115.011 78.3281 115.407 78.3281C115.788 78.3281 116.014 78.4693 116.014 78.8858C116.014 79.4363 116.014 79.9869 116.014 80.5375L116.021 80.5445Z" fill="white"/>
<path d="M87.8157 80.5523C87.8157 81.0817 87.8086 81.6111 87.8157 82.1405C87.8228 82.564 87.5969 82.684 87.2157 82.684C86.8204 82.684 86.6298 82.5287 86.6369 82.1193C86.644 81.0394 86.644 79.9594 86.6369 78.8794C86.6369 78.4559 86.8557 78.3359 87.2369 78.3359C87.6322 78.3359 87.8298 78.4912 87.8157 78.9006C87.8016 79.4512 87.8157 80.0018 87.8157 80.5523V80.5523Z" fill="white"/>
<path d="M147.476 80.5375C147.476 81.0668 147.469 81.5962 147.476 82.1256C147.483 82.535 147.285 82.6833 146.89 82.6833C146.502 82.6833 146.29 82.5562 146.297 82.1327C146.304 81.0527 146.304 79.9728 146.297 78.8858C146.297 78.4693 146.495 78.3281 146.883 78.3281C147.264 78.3281 147.49 78.4552 147.483 78.8787C147.469 79.4293 147.483 79.9798 147.483 80.5304L147.476 80.5375Z" fill="white"/>
</g>
<defs>
<clipPath id="clip0_312_809">
<rect width="231" height="127" fill="white"/>
</clipPath>
</defs>
</svg>
