<svg width="100" height="100" viewBox="0 0 100 100" fill="none" xmlns="http://www.w3.org/2000/svg">
<g clip-path="url(#clip0_665_5858)">
<path d="M98.9984 87.6755C98.0352 90.3923 96.1108 91.5572 93.2416 91.4646C90.2675 91.3679 87.2872 91.442 84.309 91.4399C83.3643 91.4399 82.72 90.9953 82.5369 90.063C82.366 89.1882 82.718 88.4987 83.5557 88.1571C83.8891 88.0212 84.2905 88.0233 84.663 88.0212C87.5383 88.0109 90.4136 88.0212 93.2869 88.013C95.0734 88.0089 95.6353 87.4594 95.6353 85.6893C95.6394 66.0871 95.6312 46.4848 95.6559 26.8826C95.6559 25.9687 95.3719 25.7279 94.4807 25.7279C64.6366 25.7485 34.7946 25.7485 4.95049 25.7259C3.98519 25.7259 3.74644 26.0284 3.74644 26.9546C3.76908 46.4889 3.7629 66.0212 3.76496 85.5555C3.76496 87.5129 4.28157 88.013 6.29039 88.013C17.6867 88.013 29.083 88.013 40.4794 88.013C40.856 88.013 41.2347 87.9965 41.6073 88.0295C42.5602 88.1139 43.1838 88.7931 43.188 89.7193C43.1921 90.6434 42.5705 91.3308 41.6237 91.4255C41.3191 91.4564 41.0083 91.442 40.6996 91.442C29.0974 91.442 17.4953 91.442 5.89315 91.442C2.27482 91.442 0.331865 89.4929 0.331865 85.8622C0.331865 62.2238 0.356563 38.5855 0.296875 14.945C0.296875 12.1459 1.36509 10.3059 3.9008 9.25H95.5057C97.1831 9.90039 98.3419 11.0694 98.9964 12.7407V87.6775L98.9984 87.6755ZM49.5911 22.3175C64.509 22.3175 79.429 22.3072 94.3469 22.3401C95.3986 22.3422 95.7053 22.0437 95.6621 21.0085C95.5839 19.0614 95.6415 17.1102 95.6394 15.1611C95.6353 13.14 95.1064 12.609 93.0831 12.6069C87.882 12.6049 82.6809 12.6069 77.4798 12.6069C53.7672 12.6069 30.0545 12.6069 6.34184 12.6069C4.30421 12.6069 3.77114 13.1338 3.76702 15.1406C3.7629 17.0567 3.76702 18.9709 3.76702 20.887C3.76702 21.8407 4.25962 22.3175 5.24482 22.3175C20.0269 22.3175 34.809 22.3175 49.5911 22.3175Z" fill="white"/>
<path d="M16.7733 74.8526C16.7733 73.9285 16.7692 73.0044 16.7733 72.0823C16.7836 70.6169 17.1561 70.1414 18.6072 69.8286C20.0767 69.5116 21.5484 69.1906 23.0323 68.9518C23.7918 68.8304 24.2035 68.4887 24.3208 67.7416C24.3578 67.507 24.4134 67.2558 24.5328 67.0583C25.5434 65.4076 24.9547 64.1624 23.6375 62.9913C22.7977 62.2462 22.0897 61.3509 21.3302 60.5153C20.6366 59.7537 20.5645 58.9428 21.1779 58.0948C22.4025 56.4051 23.621 54.7112 24.86 53.0317C25.496 52.1713 26.3255 51.9676 27.3072 52.4163C28.7995 53.0996 30.3019 53.7644 31.7818 54.4745C32.3437 54.7441 32.8006 54.7585 33.2678 54.3036C33.5601 54.0196 33.8812 53.7212 34.2475 53.5647C35.8118 52.8999 35.9703 51.7227 35.6656 50.2387C35.4269 49.0717 35.3507 47.8697 35.2355 46.6801C35.1202 45.4863 35.4969 44.8915 36.6433 44.5066C38.5554 43.8624 40.4757 43.2429 42.4022 42.6398C43.5815 42.2714 44.2402 42.5493 44.872 43.6525C45.6542 45.0171 46.4301 46.3878 47.1772 47.7709C47.488 48.3472 47.9079 48.5098 48.5583 48.6004C50.8656 48.9215 52.5059 48.2937 53.2881 45.9165C53.5598 45.087 54.1196 44.3502 54.5724 43.5846C55.1857 42.5493 55.8485 42.2776 56.9805 42.6316C58.8741 43.2244 60.7614 43.8336 62.6426 44.4634C63.9064 44.8874 64.2542 45.3608 64.1513 46.6616C64.0216 48.2958 63.8405 49.9279 63.6038 51.5477C63.5092 52.1919 63.6512 52.5892 64.2172 52.8938C64.5753 53.0872 64.9458 53.3116 65.2175 53.6059C66.2939 54.7688 67.4033 54.7997 68.735 53.9867C69.7497 53.3672 70.8899 52.9514 71.9849 52.4657C73.1478 51.9491 73.8517 52.1055 74.5906 53.0955C75.7967 54.7132 76.9863 56.3454 78.1492 57.994C78.847 58.9819 78.7934 59.6879 77.9949 60.5811C76.9019 61.8078 75.8008 63.0263 74.6729 64.218C74.2366 64.679 74.109 65.1256 74.4033 65.6916C74.498 65.8727 74.5947 66.0703 74.6112 66.2679C74.8046 68.4599 76.2021 69.1679 78.1801 69.3202C79.1948 69.3984 80.1951 69.6907 81.1933 69.9212C82.1545 70.1414 82.6402 70.763 82.6382 71.7592C82.6341 73.8462 82.6505 75.9332 82.632 78.0202C82.6217 79.1604 82.2039 79.6791 81.041 79.9405C79.4747 80.2925 77.9002 80.6197 76.3195 80.9017C75.665 81.019 75.241 81.2701 75.136 81.9575C75.1051 82.1592 75.0619 82.3754 74.959 82.5441C73.794 84.4274 74.5124 85.8413 76.0293 87.1071C76.5232 87.5208 76.9493 88.0272 77.3506 88.5376C78.0051 89.3732 77.9516 90.285 77.2663 90.9436C76.6179 91.5693 75.5435 91.6249 74.852 90.9169C73.4194 89.4494 72.0507 87.9181 70.6779 86.3929C70.2313 85.8949 70.151 85.2815 70.4145 84.662C71.1554 82.929 71.7791 81.161 72.1701 79.3107C72.378 78.3269 73.121 77.9564 74.0184 77.7815C75.4612 77.4995 76.8978 77.1846 78.3448 76.9335C78.9663 76.8265 79.1969 76.5486 79.2195 75.9167C79.3245 73.0702 79.3409 73.0723 76.5891 72.5372C75.6506 72.354 74.7141 72.1564 73.7735 71.9794C72.8617 71.8065 72.3039 71.2652 72.1248 70.3699C71.7791 68.6513 71.213 67.0048 70.5009 65.4076C70.1201 64.5534 70.2683 63.8248 70.8961 63.1498C71.9211 62.0466 72.907 60.9084 73.9525 59.8258C74.4383 59.3236 74.5185 58.9387 74.0945 58.3295C72.555 56.1087 72.5756 56.0901 70.0913 57.1913C69.1836 57.5947 68.2821 58.0043 67.3848 58.4283C66.5779 58.8111 65.8493 58.6896 65.2051 58.101C63.9126 56.9175 62.513 55.8823 60.9899 55.0158C60.0514 54.4827 59.8147 53.6553 59.9382 52.6571C60.111 51.2678 60.251 49.8723 60.4651 48.4892C60.5721 47.808 60.4424 47.4272 59.7282 47.1761C57.1266 46.2623 57.1328 46.2355 55.7764 48.6045C55.301 49.436 54.8235 50.2655 54.3645 51.1073C53.9426 51.8811 53.3066 52.2393 52.4298 52.1837C50.6186 52.0705 48.8073 52.0581 46.9982 52.1837C46.0699 52.2496 45.438 51.842 45.0017 51.0352C44.3019 49.7427 43.5486 48.4769 42.8632 47.1761C42.536 46.5545 42.1696 46.3919 41.4678 46.6019C38.7365 47.419 38.7386 47.3922 39.1646 50.1914C39.3087 51.1361 39.3931 52.0911 39.4919 53.042C39.5783 53.8755 39.249 54.5136 38.5307 54.9376C36.9644 55.8637 35.501 56.9237 34.1508 58.1463C33.4901 58.7432 32.743 58.7493 31.9547 58.383C30.5572 57.7367 29.1411 57.1295 27.758 56.4565C27.2085 56.1889 26.8668 56.1807 26.484 56.7405C24.4896 59.6591 24.4237 58.5456 26.7021 61.1698C27.3299 61.8922 27.9947 62.5838 28.6369 63.2938C29.174 63.8886 29.2749 64.5637 28.9559 65.2923C28.2252 66.9574 27.6345 68.6637 27.2681 70.4481C27.0582 71.471 26.2987 71.8703 25.3622 72.0535C23.9524 72.3272 22.5507 72.6442 21.1367 72.8788C20.476 72.9879 20.2126 73.2514 20.1941 73.9409C20.1179 76.7503 20.0994 76.7482 22.8636 77.2875C23.8021 77.4707 24.7386 77.6683 25.6792 77.8514C26.5457 78.0202 27.0603 78.5409 27.2805 79.3869C27.5378 80.3789 27.8197 81.3648 28.075 82.3568C28.3364 83.3756 27.8547 84.3203 26.9635 84.5838C26.0147 84.8637 25.1585 84.415 24.753 83.4209C24.7407 83.39 24.7201 83.3571 24.716 83.3262C24.5472 81.3504 23.2937 80.7 21.4969 80.5497C20.4143 80.4592 19.3481 80.1463 18.2799 79.9158C17.2673 79.6976 16.7671 79.0637 16.7754 78.0202C16.7857 76.9602 16.7774 75.9003 16.7754 74.8382L16.7733 74.8526Z" fill="white"/>
<path d="M49.7644 58.5403C58.2072 58.4868 65.4912 65.0545 66.1766 73.277C66.9155 82.1396 61.0311 89.8372 52.4298 91.2821C51.5448 91.4303 50.6639 91.49 49.7747 91.4612C48.725 91.4282 48.0499 90.8005 48.0047 89.8537C47.9553 88.8472 48.5913 88.1331 49.6821 88.0507C51.7444 87.8943 53.743 87.5403 55.6139 86.5832C60.675 83.994 63.4268 78.5563 62.5644 72.7933C61.7864 67.5984 57.3695 63.128 52.0552 62.1525C44.658 60.7982 37.623 66.0466 36.7874 73.5096C36.4499 76.5166 37.092 79.2766 38.6501 81.8473C38.9526 82.3454 39.3067 82.8394 39.2079 83.4589C39.0823 84.2369 38.6254 84.7679 37.8515 84.9676C37.0467 85.1754 36.4334 84.807 35.995 84.1793C34.6633 82.2713 33.8236 80.1493 33.4325 77.8606C31.8189 68.4526 38.2199 59.7979 47.7206 58.5506C48.3937 58.4621 49.0873 58.5383 49.7706 58.5383L49.7644 58.5403Z" fill="white"/>
<path d="M18.4881 38.8701C15.2423 38.8701 11.9945 38.8887 8.74868 38.8619C7.2853 38.8496 6.45172 37.52 7.11652 36.3324C7.46642 35.7088 8.02008 35.4453 8.73222 35.4453C15.2259 35.4494 21.7175 35.4412 28.2111 35.4535C29.3679 35.4556 30.0656 36.1636 30.0429 37.201C30.0224 38.1909 29.337 38.8557 28.2276 38.8619C24.9818 38.8804 21.7339 38.8681 18.4881 38.8681V38.8701Z" fill="white"/>
<path d="M13.5602 45.3846C11.9898 45.3846 10.4194 45.397 8.84898 45.3805C7.61405 45.3661 6.89779 44.6952 6.92249 43.6228C6.94719 42.602 7.64904 41.968 8.84281 41.9639C11.9836 41.9495 15.1245 41.9495 18.2653 41.9639C19.5002 41.9701 20.2185 42.6493 20.1918 43.7196C20.1671 44.7384 19.4611 45.3682 18.2715 45.3805C16.7011 45.397 15.1306 45.3846 13.5602 45.3846Z" fill="white"/>
<path d="M8.66316 19.1488C7.66287 19.1674 6.91574 18.4305 6.92191 17.4302C6.92809 16.4691 7.62994 15.759 8.58906 15.7425C9.59141 15.724 10.3385 16.4588 10.3303 17.4591C10.3241 18.4182 9.61817 19.1324 8.6611 19.1488H8.66316Z" fill="white"/>
<path d="M16.9046 17.4429C16.9046 18.4411 16.1534 19.1738 15.151 19.1512C14.196 19.1285 13.4962 18.4102 13.4941 17.449C13.4941 16.4488 14.2413 15.7181 15.2457 15.7428C16.2027 15.7654 16.9005 16.4817 16.9025 17.4429H16.9046Z" fill="white"/>
<path d="M23.4754 17.3949C23.5001 18.3952 22.7674 19.1485 21.7692 19.1485C20.808 19.1485 20.0897 18.4508 20.067 17.4937C20.0423 16.4893 20.7709 15.7401 21.7733 15.7422C22.7324 15.7422 23.4528 16.442 23.4775 17.397L23.4754 17.3949Z" fill="white"/>
</g>
<defs>
<clipPath id="clip0_665_5858">
<rect width="99" height="82.4266" fill="white" transform="translate(0 9)"/>
</clipPath>
</defs>
</svg>
