<svg width="100" height="100" viewBox="0 0 100 100" fill="none" xmlns="http://www.w3.org/2000/svg">
<g clip-path="url(#clip0_287_2637)">
<path d="M52.8502 92.4622C53.0802 92.4622 53.1902 92.4222 53.2202 92.4022C53.2402 92.3822 53.2702 92.2922 53.2602 92.0822C53.2502 91.8822 53.2602 91.6822 53.2602 91.4822V7.94219C53.2602 7.63219 53.2402 7.31219 53.2202 6.99219H47.5002C47.4802 7.34219 47.4602 7.69219 47.4602 8.04219V91.4222C47.4702 91.6522 47.4802 91.8722 47.4602 92.0922C47.4502 92.2922 47.4802 92.3822 47.5002 92.4022C47.5002 92.4022 47.5902 92.4522 47.8602 92.4622C48.6902 92.4522 49.5202 92.4422 50.3602 92.4422C51.2002 92.4422 52.0302 92.4422 52.8602 92.4622H52.8502Z" fill="white"/>
<path d="M7.66023 65.8022C7.66023 65.8022 7.81023 65.9122 8.23023 65.8922C9.91023 65.8322 11.5502 65.8622 12.9302 65.8922C13.2402 65.9122 13.3002 65.8422 13.3102 65.8322C13.3102 65.8322 13.3802 65.7522 13.3802 65.4122C13.3602 54.9322 13.3602 44.4622 13.3802 33.9822C13.3802 33.6522 13.3202 33.5722 13.3102 33.5622C13.3102 33.5622 13.2202 33.4922 12.9302 33.5022C11.0402 33.5522 9.59023 33.5522 8.23023 33.5022C7.82023 33.4822 7.69023 33.5622 7.66023 33.5922C7.63023 33.6222 7.55023 33.7422 7.55023 34.1822C7.59023 36.9522 7.58023 39.7822 7.57023 42.5122V44.9822C7.57023 45.7622 7.58023 46.1922 7.27023 46.5122C6.96023 46.8222 6.53023 46.8222 5.76023 46.8122C5.56023 46.8122 5.32023 46.8122 5.05023 46.8122C3.70023 46.8322 2.34023 46.8522 0.990234 46.8722V52.5222C2.38023 52.5422 3.77023 52.5722 5.16023 52.5822H5.78023C5.84023 52.5822 5.90023 52.5822 5.96023 52.5822C6.61023 52.5822 6.99023 52.6022 7.27023 52.8922C7.58023 53.2022 7.57023 53.6322 7.56023 54.4022V56.2222C7.56023 59.1722 7.58023 62.2222 7.54023 65.2222C7.54023 65.6522 7.61023 65.7722 7.65023 65.8022H7.66023Z" fill="white"/>
<path d="M26.5502 20.2922C26.5502 20.2922 26.3802 20.1822 25.9702 20.2022C25.0402 20.2522 24.0902 20.2422 23.1802 20.2322C22.7902 20.2322 22.3902 20.2322 22.0002 20.2322C21.1902 20.2322 20.8702 20.5522 20.8702 21.3722V78.2722C20.8702 78.4522 20.8802 78.6222 20.8702 78.8022C20.8502 79.0122 20.8802 79.1022 20.9002 79.1222C20.9202 79.1422 21.0402 79.1822 21.2702 79.1822C22.2702 79.1722 23.2602 79.1822 24.2602 79.1822H25.7502C26.1502 79.1822 26.5602 79.1822 26.6602 79.1422C26.6702 79.0822 26.6702 78.6622 26.6702 78.2622V34.6522C26.6602 30.0822 26.6502 25.5122 26.6702 20.9422C26.6702 20.4822 26.6002 20.3322 26.5502 20.2922Z" fill="white"/>
<path d="M79.8102 20.2722C79.8102 20.2722 79.6802 20.2022 79.4402 20.2122C78.4402 20.2222 77.4502 20.2122 76.4502 20.2122H74.9602C74.5702 20.2122 74.1502 20.2122 74.0602 20.2622C74.0502 20.3222 74.0502 20.7422 74.0502 21.1522V65.6122C74.0502 69.9022 74.0502 74.1822 74.0302 78.4622C74.0302 78.9222 74.1102 79.0622 74.1502 79.1122C74.1902 79.1522 74.3302 79.2222 74.7402 79.2022C75.6702 79.1522 76.6202 79.1622 77.5302 79.1722C77.9202 79.1722 78.3202 79.1722 78.7102 79.1722C79.5202 79.1722 79.8302 78.8422 79.8302 78.0222V21.1222C79.8302 20.9522 79.8202 20.7722 79.8302 20.5922C79.8502 20.3822 79.8202 20.2922 79.8002 20.2722H79.8102Z" fill="white"/>
<path d="M37.1102 72.4922C37.7902 72.4922 38.4802 72.5022 39.1702 72.5422C39.6302 72.5722 39.7802 72.4922 39.8302 72.4422C39.9302 72.3522 39.9702 72.1022 39.9702 71.6922C39.9402 66.1922 39.9502 60.6922 39.9502 55.1922V44.1522C39.9502 38.6222 39.9502 33.0922 39.9702 27.5722C39.9702 27.1122 39.9002 26.9722 39.8502 26.9322C39.8102 26.8922 39.6702 26.8222 39.2502 26.8422C38.3002 26.8922 37.3302 26.8822 36.3902 26.8722C35.9902 26.8722 35.5802 26.8722 35.1802 26.8722C34.4502 26.8722 34.1602 27.1722 34.1602 27.9122V70.8522C34.1702 71.2722 34.1802 71.7022 34.1602 72.1222C34.1602 72.3422 34.1902 72.4322 34.2102 72.4522C34.2302 72.4822 34.3402 72.5222 34.5702 72.5122H35.1002C35.7602 72.4922 36.4302 72.4822 37.1102 72.4822V72.4922Z" fill="white"/>
<path d="M65.7502 72.5622C66.2002 72.5922 66.3702 72.5222 66.4302 72.4622C66.5002 72.4022 66.5702 72.2222 66.5702 71.7222C66.5402 66.0622 66.5402 60.4122 66.5402 54.7522V45.2822C66.5402 39.3922 66.5402 33.5022 66.5602 27.6122C66.5602 27.1422 66.4902 26.9922 66.4402 26.9522C66.4102 26.9222 66.2802 26.8422 65.8602 26.8622C64.9002 26.9122 63.9302 26.9022 62.9902 26.8922C62.5902 26.8922 62.1802 26.8922 61.7802 26.8922C61.0302 26.8922 60.7402 27.1822 60.7402 27.9222V68.5922C60.7502 69.7322 60.7602 70.8822 60.7402 72.0222C60.7402 72.3722 60.7902 72.4622 60.8102 72.4822C60.8202 72.4922 60.8902 72.5622 61.2402 72.5522C62.1002 72.5322 62.8902 72.5122 63.6502 72.5122C64.3602 72.5122 65.0502 72.5222 65.7402 72.5622H65.7502Z" fill="white"/>
<path d="M94.7102 52.5622C95.5802 52.5922 96.4602 52.5822 97.3402 52.5822C98.0202 52.5822 98.7002 52.5722 99.3702 52.5822C99.6802 52.5822 99.7302 52.5222 99.7302 52.5222C99.7502 52.5022 99.7902 52.4022 99.7902 52.1822C99.7602 50.5222 99.7602 48.8422 99.7902 47.1822C99.7902 46.9622 99.7502 46.8622 99.7302 46.8422C99.7102 46.8222 99.5902 46.7922 99.3802 46.7822C98.7402 46.7922 98.1002 46.7822 97.4602 46.7822C96.5802 46.7822 95.7002 46.7722 94.8202 46.8022C94.4102 46.8222 93.8902 46.8022 93.5202 46.4422C93.1502 46.0822 93.1102 45.5522 93.1102 45.1222C93.1402 43.1222 93.1402 41.1222 93.1302 39.1222C93.1302 37.4522 93.1302 35.7822 93.1402 34.1122C93.1402 33.7022 93.0702 33.5822 93.0402 33.5522C93.0102 33.5222 92.9002 33.4522 92.5402 33.4722C90.8502 33.5422 89.4402 33.5422 88.1302 33.4722C87.6802 33.4522 87.5102 33.5222 87.4402 33.5822C87.3702 33.6422 87.3002 33.8222 87.3002 34.3122C87.3402 38.1322 87.3302 42.0122 87.3302 45.7622V52.6922C87.3302 56.8722 87.3302 61.0522 87.3102 65.2322C87.3102 65.6322 87.3802 65.7522 87.4102 65.7822C87.4402 65.8122 87.5502 65.8822 87.9202 65.8622C88.7302 65.8322 89.5002 65.8122 90.2502 65.8122C91.0002 65.8122 91.7202 65.8322 92.4302 65.8622C92.8302 65.8822 92.9702 65.8122 93.0202 65.7722C93.0702 65.7322 93.1402 65.5822 93.1402 65.1222C93.1202 63.1922 93.1202 61.2622 93.1202 59.3222C93.1202 57.5822 93.1202 55.8522 93.1102 54.1122C93.1102 53.7222 93.1502 53.2322 93.4902 52.8922C93.8402 52.5522 94.3502 52.5322 94.7002 52.5422L94.7102 52.5622Z" fill="white"/>
</g>
<defs>
<clipPath id="clip0_287_2637">
<rect width="98.79" height="85.46" fill="white" transform="translate(1 7)"/>
</clipPath>
</defs>
</svg>
