<svg width="231" height="127" viewBox="0 0 231 127" fill="none" xmlns="http://www.w3.org/2000/svg">
<g clip-path="url(#clip0_665_5371)">
<path d="M152.21 56.0916C152.735 57.9816 154.73 59.1366 156.62 58.6116C158.51 58.0866 159.665 56.0916 159.14 54.2016C158.615 52.3116 156.62 51.1566 154.73 51.6816C152.84 52.1016 151.685 54.0966 152.21 56.0916Z" fill="#EEEEEE"/>
<path d="M147.276 59.8652C148.536 59.5502 149.376 58.1852 149.061 56.8202C148.746 55.5602 147.381 54.7202 146.016 55.0352C144.756 55.3502 143.916 56.7152 144.231 58.0802C144.546 59.4452 145.911 60.2852 147.276 59.8652Z" fill="#EEEEEE"/>
<path d="M140.032 61.1173C140.977 60.8023 141.607 59.8573 141.292 58.9123C140.977 57.9673 140.032 57.3373 139.087 57.6523C138.142 57.9673 137.512 58.9123 137.827 59.8573C138.037 60.8023 139.087 61.4323 140.032 61.1173Z" fill="#EEEEEE"/>
<path d="M134.361 62.0765C134.991 61.8665 135.306 61.2365 135.201 60.7115C135.096 60.0815 134.361 59.7665 133.836 59.8715C133.206 60.0815 132.891 60.7115 132.996 61.2365C133.101 61.7615 133.731 62.1815 134.361 62.0765Z" fill="#EEEEEE"/>
<path d="M149.481 48.7405C150.426 50.3155 152.421 50.8405 153.996 50.0005C155.571 49.0555 156.096 47.0605 155.256 45.4855C154.311 43.9105 152.316 43.3855 150.741 44.2255C149.166 45.0655 148.641 47.1655 149.481 48.7405Z" fill="#EEEEEE"/>
<path d="M142.235 52.8284C142.865 53.9834 144.23 54.2984 145.385 53.6684C146.54 53.0384 146.855 51.6734 146.225 50.5184C145.595 49.3634 144.23 49.0484 143.075 49.6784C142.025 50.3084 141.605 51.7784 142.235 52.8284Z" fill="#EEEEEE"/>
<path d="M137.09 53.9834C136.25 54.4034 136.04 55.4534 136.46 56.1884C136.88 57.0284 137.93 57.2384 138.665 56.8184C139.505 56.3984 139.715 55.3484 139.295 54.6134C138.875 53.7734 137.825 53.5634 137.09 53.9834Z" fill="#EEEEEE"/>
<path d="M132.472 57.3589C131.947 57.6739 131.737 58.3039 132.052 58.8289C132.367 59.3539 132.997 59.5639 133.522 59.2489C134.047 58.9339 134.257 58.3039 133.942 57.7789C133.627 57.2539 132.892 57.0439 132.472 57.3589Z" fill="#EEEEEE"/>
<path d="M149.167 42.2381C150.322 41.0831 150.322 39.1931 149.167 38.0381C148.012 36.8831 146.122 36.8831 144.967 38.0381C143.812 39.1931 143.812 41.0831 144.967 42.2381C146.122 43.3931 148.012 43.3931 149.167 42.2381Z" fill="#EEEEEE"/>
<path d="M141.921 45.2784C141.081 44.4384 139.716 44.4384 138.876 45.2784C138.036 46.1184 138.036 47.4834 138.876 48.3234C139.716 49.1634 141.081 49.1634 141.921 48.3234C142.761 47.4834 142.761 46.1184 141.921 45.2784Z" fill="#EEEEEE"/>
<path d="M134.151 50.9412C133.521 51.5712 133.521 52.5162 134.151 53.0412C134.781 53.6712 135.726 53.6712 136.251 53.0412C136.881 52.4112 136.881 51.4663 136.251 50.9412C135.726 50.3113 134.781 50.3113 134.151 50.9412Z" fill="#EEEEEE"/>
<path d="M130.476 56.6175C130.896 57.0375 131.526 57.0375 131.841 56.6175C132.261 56.1975 132.261 55.5675 131.841 55.2525C131.421 54.8325 130.791 54.8325 130.476 55.2525C130.161 55.6725 130.161 56.3025 130.476 56.6175Z" fill="#EEEEEE"/>
<path d="M138.77 37.2894C140.135 38.0244 141.815 37.6044 142.55 36.2394C143.285 34.8744 142.865 33.1944 141.5 32.4594C140.135 31.7244 138.455 32.1444 137.72 33.5094C136.88 34.7694 137.405 36.4494 138.77 37.2894Z" fill="#EEEEEE"/>
<path d="M133.731 42.0189C133.206 42.9639 133.521 44.2239 134.466 44.7489C135.411 45.2739 136.671 44.9589 137.196 44.0139C137.721 43.0689 137.406 41.8089 136.461 41.2839C135.411 40.6539 134.256 41.0739 133.731 42.0189Z" fill="#EEEEEE"/>
<path d="M132.366 48.1135C131.736 47.7985 130.896 48.0085 130.581 48.6385C130.266 49.2685 130.476 50.1085 131.106 50.4235C131.736 50.7385 132.576 50.5285 132.891 49.8985C133.206 49.3735 132.996 48.5335 132.366 48.1135Z" fill="#EEEEEE"/>
<path d="M129.322 53.4644C128.902 53.2544 128.377 53.3594 128.062 53.7794C127.852 54.1994 127.957 54.7244 128.377 55.0394C128.797 55.3544 129.322 55.1444 129.637 54.7244C129.952 54.1994 129.742 53.6744 129.322 53.4644Z" fill="#EEEEEE"/>
<path d="M131.316 34.0295C132.681 34.4495 134.151 33.6095 134.571 32.1395C134.991 30.7745 134.151 29.3045 132.681 28.8845C131.316 28.5695 129.846 29.3045 129.426 30.7745C129.111 32.2445 129.951 33.6095 131.316 34.0295Z" fill="#EEEEEE"/>
<path d="M129.112 42.3438C130.057 42.6588 131.107 42.0288 131.317 41.0838C131.632 40.1388 131.002 39.0888 130.057 38.8788C129.112 38.5638 128.062 39.1938 127.852 40.1388C127.642 41.0838 128.167 42.0288 129.112 42.3438Z" fill="#EEEEEE"/>
<path d="M127.432 48.8334C128.062 49.0434 128.797 48.6234 128.902 47.9934C129.112 47.3634 128.692 46.6284 128.062 46.5234C127.432 46.3134 126.697 46.7334 126.592 47.3634C126.382 47.9934 126.697 48.6234 127.432 48.8334Z" fill="#EEEEEE"/>
<path d="M125.436 52.9472C125.331 53.3672 125.541 53.8922 126.066 53.9972C126.486 54.1022 127.011 53.8922 127.116 53.3672C127.221 52.9472 127.011 52.4222 126.486 52.3172C126.066 52.2122 125.541 52.5272 125.436 52.9472Z" fill="#EEEEEE"/>
<path d="M123.336 32.7787C124.701 32.7787 125.856 31.6238 125.856 30.2588C125.856 28.8938 124.701 27.8438 123.336 27.8438C121.971 27.8438 120.816 28.9988 120.816 30.3638C120.921 31.7288 122.076 32.7787 123.336 32.7787Z" fill="#EEEEEE"/>
<path d="M123.337 38.1328C122.392 38.1328 121.657 38.8678 121.657 39.8128C121.657 40.7578 122.392 41.4928 123.337 41.4928C124.282 41.4928 125.017 40.7578 125.017 39.8128C125.017 38.8678 124.282 38.1328 123.337 38.1328Z" fill="#EEEEEE"/>
<path d="M124.491 47.0613C124.491 46.4313 123.966 45.9062 123.336 45.9062C122.706 45.9062 122.181 46.4313 122.181 47.0613C122.181 47.6913 122.706 48.2163 123.336 48.2163C124.071 48.2163 124.491 47.6913 124.491 47.0613Z" fill="#EEEEEE"/>
<path d="M123.336 52C122.916 52 122.601 52.315 122.601 52.735C122.601 53.155 122.916 53.47 123.336 53.47C123.756 53.47 124.071 53.155 124.071 52.735C124.176 52.315 123.756 52 123.336 52Z" fill="#EEEEEE"/>
<path d="M115.355 33.7161C116.615 33.4011 117.35 32.1411 116.93 30.8811C116.615 29.6211 115.356 28.8861 114.096 29.3061C112.836 29.7261 112.101 30.8811 112.521 32.1411C112.836 33.2961 114.095 34.0311 115.355 33.7161Z" fill="#EEEEEE"/>
<path d="M115.776 40.9791C115.986 41.8191 116.826 42.2391 117.561 42.0291C118.401 41.8191 118.821 40.9791 118.611 40.2441C118.401 39.4041 117.561 38.9841 116.826 39.1941C115.986 39.4041 115.566 40.1391 115.776 40.9791Z" fill="#EEEEEE"/>
<path d="M117.982 47.9107C118.087 48.5407 118.717 48.8557 119.242 48.6457C119.872 48.5407 120.187 47.9107 119.977 47.3857C119.872 46.7557 119.242 46.4407 118.717 46.6507C118.192 46.7557 117.877 47.3857 117.982 47.9107Z" fill="#EEEEEE"/>
<path d="M119.87 53.3595C119.975 53.6745 120.29 53.8845 120.71 53.7795C121.025 53.6745 121.235 53.3595 121.13 52.9395C121.025 52.6245 120.71 52.4145 120.29 52.5195C119.975 52.6245 119.765 52.9395 119.87 53.3595Z" fill="#EEEEEE"/>
<path d="M107.796 36.7716C108.846 36.1416 109.161 34.8816 108.636 33.8316C108.111 32.7816 106.746 32.4666 105.696 32.9916C104.646 33.6216 104.331 34.8816 104.856 35.9316C105.381 36.9816 106.746 37.2966 107.796 36.7716Z" fill="#EEEEEE"/>
<path d="M111.997 44.1266C112.627 43.8116 112.837 42.9716 112.522 42.3416C112.207 41.7116 111.367 41.5016 110.737 41.8166C110.107 42.1316 109.897 42.9716 110.212 43.6016C110.632 44.2316 111.367 44.4416 111.997 44.1266Z" fill="#EEEEEE"/>
<path d="M115.566 50.2088C116.091 49.8938 116.196 49.3687 115.881 48.8437C115.566 48.3187 115.041 48.2138 114.516 48.5288C113.991 48.8438 113.886 49.3687 114.201 49.8937C114.411 50.3137 115.041 50.4188 115.566 50.2088Z" fill="#EEEEEE"/>
<path d="M118.401 53.9915C118.191 53.6765 117.876 53.6765 117.561 53.7815C117.351 53.8865 117.246 54.3065 117.351 54.5165C117.561 54.8315 117.876 54.8315 118.086 54.7265C118.401 54.6215 118.506 54.2015 118.401 53.9915Z" fill="#EEEEEE"/>
<path d="M101.181 41.5972C101.916 40.8622 101.916 39.6022 101.181 38.7622C100.446 38.0272 99.1857 38.0272 98.3457 38.7622C97.6107 39.4972 97.6107 40.7572 98.3457 41.5972C99.1857 42.3322 100.446 42.3322 101.181 41.5972Z" fill="#EEEEEE"/>
<path d="M107.27 46.0181C106.85 45.5981 106.115 45.5981 105.695 46.0181C105.275 46.4381 105.275 47.1731 105.695 47.5931C106.115 48.0131 106.85 48.0131 107.27 47.5931C107.69 47.1731 107.69 46.4381 107.27 46.0181Z" fill="#EEEEEE"/>
<path d="M112.206 51.3691C111.891 51.0541 111.261 51.0541 110.946 51.3691C110.631 51.6841 110.631 52.3141 110.946 52.6291C111.261 52.9441 111.891 52.9441 112.206 52.6291C112.521 52.3141 112.521 51.6841 112.206 51.3691Z" fill="#EEEEEE"/>
<path d="M115.987 55.6653C115.777 55.4553 115.462 55.4553 115.357 55.6653C115.147 55.8753 115.147 56.1903 115.357 56.2953C115.567 56.4003 115.882 56.5053 115.987 56.2953C116.197 56.1903 116.197 55.8753 115.987 55.6653Z" fill="#EEEEEE"/>
<path d="M93.517 48.6254C94.357 49.1504 95.512 48.8354 96.037 47.9954C96.562 47.1554 96.247 46.0004 95.407 45.4754C94.567 44.9504 93.412 45.2654 92.887 46.1054C92.362 46.9454 92.677 48.1004 93.517 48.6254Z" fill="#EEEEEE"/>
<path d="M103.071 50.9485C102.546 50.6335 102.021 50.8435 101.706 51.2635C101.391 51.7885 101.601 52.3135 102.021 52.6285C102.546 52.9435 103.071 52.7335 103.386 52.3135C103.701 51.7885 103.491 51.2635 103.071 50.9485Z" fill="#EEEEEE"/>
<path d="M109.372 54.7222C108.952 54.5122 108.427 54.6172 108.217 55.0372C108.007 55.4572 108.112 55.9822 108.532 56.1922C108.952 56.4022 109.477 56.2972 109.687 55.8772C109.897 55.4572 109.687 54.9322 109.372 54.7222Z" fill="#EEEEEE"/>
<path d="M156.831 59.7656C154.626 59.7656 152.841 61.5506 152.841 63.7556C152.841 65.9606 154.626 67.7456 156.831 67.7456C159.036 67.7456 160.821 65.9606 160.821 63.7556C160.821 61.5506 159.036 59.7656 156.831 59.7656Z" fill="#EEEEEE"/>
<path d="M150.32 63.7647C150.32 62.1897 149.06 60.9297 147.485 60.9297C145.91 60.9297 144.65 62.1897 144.65 63.7647C144.65 65.3397 145.91 66.5997 147.485 66.5997C149.06 66.5997 150.32 65.3397 150.32 63.7647Z" fill="#EEEEEE"/>
<path d="M140.136 61.8672C139.086 61.8672 138.246 62.7072 138.246 63.7572C138.246 64.8072 139.086 65.6472 140.136 65.6472C141.186 65.6472 142.026 64.8072 142.026 63.7572C142.131 62.7072 141.186 61.8672 140.136 61.8672Z" fill="#EEEEEE"/>
<path d="M135.726 63.7444C135.726 63.0094 135.201 62.4844 134.466 62.4844C133.731 62.4844 133.206 63.0094 133.206 63.7444C133.206 64.4794 133.731 65.0044 134.466 65.0044C135.201 65.0044 135.726 64.4794 135.726 63.7444Z" fill="#EEEEEE"/>
<path d="M156.62 68.9082C154.73 68.3832 152.735 69.5382 152.21 71.4282C151.685 73.3182 152.84 75.3132 154.73 75.8382C156.62 76.3632 158.615 75.2082 159.14 73.3182C159.77 71.4282 158.51 69.4332 156.62 68.9082Z" fill="#EEEEEE"/>
<path d="M146.017 72.3711C147.277 72.6861 148.642 71.9511 149.062 70.5861C149.377 69.3261 148.642 67.9611 147.277 67.5411C146.017 67.2261 144.652 67.9611 144.232 69.3261C143.917 70.6911 144.652 71.9511 146.017 72.3711Z" fill="#EEEEEE"/>
<path d="M139.087 69.8516C140.032 70.1666 141.082 69.5366 141.292 68.5916C141.607 67.6466 140.977 66.5966 140.032 66.3866C139.087 66.0716 138.037 66.7016 137.827 67.6466C137.512 68.5916 138.142 69.5366 139.087 69.8516Z" fill="#EEEEEE"/>
<path d="M133.732 67.7518C134.362 67.9618 134.992 67.5418 135.097 66.9118C135.307 66.2818 134.887 65.6518 134.257 65.5468C133.627 65.3368 132.997 65.7568 132.892 66.3868C132.787 66.9118 133.207 67.5418 133.732 67.7518Z" fill="#EEEEEE"/>
<path d="M153.997 77.6081C152.422 76.6631 150.427 77.2931 149.482 78.8681C148.537 80.4431 149.167 82.4381 150.742 83.3831C152.317 84.3281 154.312 83.6981 155.257 82.1231C156.097 80.5481 155.572 78.5531 153.997 77.6081Z" fill="#EEEEEE"/>
<path d="M146.226 76.8753C146.856 75.7203 146.541 74.3553 145.386 73.7253C144.231 73.0953 142.866 73.4103 142.236 74.5653C141.606 75.7203 141.921 77.0853 143.076 77.7153C144.231 78.4503 145.596 78.0303 146.226 76.8753Z" fill="#EEEEEE"/>
<path d="M139.296 72.8916C139.716 72.0516 139.506 71.1066 138.666 70.6866C137.826 70.2666 136.881 70.4766 136.461 71.3166C136.041 72.1566 136.251 73.1016 137.091 73.5216C137.826 73.9416 138.876 73.7316 139.296 72.8916Z" fill="#EEEEEE"/>
<path d="M133.942 69.7352C134.257 69.2102 134.047 68.5802 133.522 68.2652C132.997 67.9502 132.367 68.1602 132.052 68.6852C131.737 69.2102 131.947 69.8402 132.472 70.1552C132.997 70.4702 133.627 70.2602 133.942 69.7352Z" fill="#EEEEEE"/>
<path d="M144.967 85.2803C143.812 86.4353 143.812 88.3253 144.967 89.4803C146.122 90.6353 148.012 90.6353 149.167 89.4803C150.322 88.3253 150.322 86.4353 149.167 85.2803C148.012 84.1253 146.122 84.1253 144.967 85.2803Z" fill="#EEEEEE"/>
<path d="M141.92 82.2453C142.76 81.4053 142.76 80.0403 141.92 79.2003C141.08 78.3603 139.715 78.3603 138.875 79.2003C138.035 80.0403 138.035 81.4053 138.875 82.2453C139.715 83.0853 141.08 83.0853 141.92 82.2453Z" fill="#EEEEEE"/>
<path d="M136.251 76.5725C136.881 75.9425 136.881 74.9975 136.251 74.4725C135.621 73.8425 134.676 73.8425 134.151 74.4725C133.521 75.1025 133.521 76.0475 134.151 76.5725C134.781 77.2025 135.726 77.2025 136.251 76.5725Z" fill="#EEEEEE"/>
<path d="M130.476 72.2581C130.896 72.6781 131.526 72.6781 131.841 72.2581C132.261 71.8381 132.261 71.2081 131.841 70.8931C131.421 70.4731 130.791 70.4731 130.476 70.8931C130.161 71.2081 130.161 71.8381 130.476 72.2581Z" fill="#EEEEEE"/>
<path d="M138.771 90.2094C137.406 90.9444 136.986 92.7294 137.721 93.9894C138.456 95.3544 140.241 95.7744 141.501 95.0394C142.761 94.3044 143.286 92.5194 142.551 91.2594C141.816 89.8944 140.031 89.4744 138.771 90.2094Z" fill="#EEEEEE"/>
<path d="M137.09 83.6129C136.565 82.6679 135.305 82.3529 134.36 82.8779C133.415 83.4029 133.1 84.6629 133.625 85.6079C134.15 86.5529 135.41 86.8679 136.355 86.3429C137.3 85.7129 137.72 84.5579 137.09 83.6129Z" fill="#EEEEEE"/>
<path d="M132.366 79.4078C132.996 79.0928 133.206 78.2528 132.891 77.6228C132.576 76.9928 131.736 76.7828 131.106 77.0978C130.476 77.4128 130.266 78.2528 130.581 78.8828C131.001 79.5128 131.736 79.7228 132.366 79.4078Z" fill="#EEEEEE"/>
<path d="M128.482 72.48C128.062 72.69 127.852 73.32 128.167 73.74C128.377 74.16 129.007 74.37 129.427 74.055C129.847 73.845 130.057 73.215 129.742 72.795C129.427 72.375 128.902 72.27 128.482 72.48Z" fill="#EEEEEE"/>
<path d="M131.316 93.4753C129.951 93.8953 129.111 95.2603 129.426 96.7303C129.846 98.0953 131.211 98.9353 132.681 98.6203C134.046 98.2003 134.886 96.8353 134.571 95.3653C134.256 93.8953 132.786 93.0553 131.316 93.4753Z" fill="#EEEEEE"/>
<path d="M130.056 88.6485C131.001 88.3335 131.631 87.3885 131.316 86.4435C131.001 85.4985 130.056 84.8685 129.111 85.1835C128.166 85.4985 127.536 86.4435 127.851 87.3885C128.166 88.4385 129.111 88.9635 130.056 88.6485C130.056 88.7535 130.056 88.7535 130.056 88.6485Z" fill="#EEEEEE"/>
<path d="M128.901 79.5118C128.691 78.8818 128.061 78.4618 127.431 78.6718C126.801 78.8818 126.381 79.5118 126.591 80.1418C126.801 80.7718 127.431 81.1918 128.061 80.9818C128.691 80.8768 129.111 80.2468 128.901 79.5118C128.901 79.6168 128.901 79.6168 128.901 79.5118Z" fill="#EEEEEE"/>
<path d="M127.011 74.1425C126.906 73.7225 126.381 73.4075 125.961 73.5125C125.541 73.6175 125.226 74.1425 125.331 74.5625C125.436 74.9825 125.856 75.2975 126.381 75.1925C126.906 75.0875 127.116 74.5625 127.011 74.1425Z" fill="#EEEEEE"/>
<path d="M123.335 94.7266C121.97 94.7266 120.815 95.8816 120.815 97.2466C120.815 98.6116 121.97 99.7666 123.335 99.7666C124.7 99.7666 125.855 98.7166 125.855 97.2466C125.855 95.7766 124.805 94.7266 123.335 94.7266Z" fill="#EEEEEE"/>
<path d="M121.762 87.7972C121.762 88.7422 122.497 89.4772 123.442 89.4772C124.387 89.4772 125.122 88.7422 125.122 87.7972C125.122 86.8522 124.387 86.1172 123.442 86.1172C122.497 86.1172 121.762 86.8522 121.762 87.7972Z" fill="#EEEEEE"/>
<path d="M123.336 81.5991C123.966 81.5991 124.491 81.0741 124.491 80.4441C124.491 79.8141 123.966 79.2891 123.336 79.2891C122.706 79.2891 122.181 79.8141 122.181 80.4441C122.286 81.0741 122.706 81.5991 123.336 81.5991Z" fill="#EEEEEE"/>
<path d="M123.336 74.0547C122.916 74.0547 122.601 74.3697 122.601 74.7897C122.601 75.2097 122.916 75.5247 123.336 75.5247C123.756 75.5247 124.071 75.2097 124.071 74.7897C124.176 74.3697 123.756 74.0547 123.336 74.0547Z" fill="#EEEEEE"/>
<path d="M115.356 93.7919C114.096 93.4769 112.836 94.2119 112.521 95.3669C112.206 96.6269 112.941 97.8869 114.096 98.2019C115.356 98.5169 116.616 97.7819 116.931 96.6269C117.246 95.3669 116.511 94.1069 115.356 93.7919Z" fill="#EEEEEE"/>
<path d="M117.561 85.4842C116.721 85.2742 115.986 85.7992 115.776 86.5342C115.566 87.3742 116.091 88.1092 116.826 88.3192C117.666 88.5292 118.401 88.0042 118.611 87.2692C118.821 86.5342 118.296 85.6942 117.561 85.4842Z" fill="#EEEEEE"/>
<path d="M119.347 78.7701C118.717 78.6651 118.192 78.9801 118.087 79.5051C117.982 80.1351 118.297 80.6601 118.822 80.7651C119.452 80.8701 119.977 80.5551 120.082 80.0301C120.292 79.6101 119.872 78.9801 119.347 78.7701Z" fill="#EEEEEE"/>
<path d="M121.13 74.5783C121.235 74.2633 121.025 73.8433 120.71 73.7383C120.395 73.6333 119.975 73.8433 119.87 74.1583C119.765 74.4733 119.975 74.8933 120.29 74.9983C120.71 75.1033 121.13 74.8933 121.13 74.5783Z" fill="#EEEEEE"/>
<path d="M107.796 90.7449C106.746 90.1149 105.486 90.5349 104.856 91.4799C104.226 92.5299 104.646 93.7899 105.591 94.4199C106.641 95.0499 107.901 94.6299 108.531 93.6849C109.161 92.7399 108.741 91.3749 107.796 90.7449Z" fill="#EEEEEE"/>
<path d="M111.997 83.3869C111.367 83.0719 110.527 83.2819 110.212 83.9119C109.897 84.5419 110.107 85.3819 110.737 85.6969C111.367 86.0119 112.207 85.8019 112.522 85.1719C112.837 84.5419 112.627 83.7019 111.997 83.3869Z" fill="#EEEEEE"/>
<path d="M114.515 79.0739C115.04 79.3889 115.565 79.1789 115.88 78.7589C116.195 78.3389 115.985 77.7089 115.565 77.3939C115.04 77.0789 114.515 77.2889 114.2 77.7089C113.885 78.1289 114.095 78.7589 114.515 79.0739Z" fill="#EEEEEE"/>
<path d="M118.192 72.7811C117.877 72.5711 117.562 72.6761 117.457 72.9911C117.247 73.3061 117.352 73.6211 117.667 73.7261C117.982 73.9361 118.297 73.8311 118.402 73.5161C118.507 73.3061 118.402 72.8861 118.192 72.7811Z" fill="#EEEEEE"/>
<path d="M98.3452 85.9028C97.6102 86.6378 97.6102 87.8978 98.3452 88.7378C99.0802 89.5778 100.34 89.4728 101.18 88.7378C101.915 88.0028 101.915 86.7428 101.18 85.9028C100.445 85.1678 99.1852 85.1678 98.3452 85.9028Z" fill="#EEEEEE"/>
<path d="M105.591 79.925C105.171 80.345 105.171 81.08 105.591 81.5C106.011 81.92 106.746 81.92 107.166 81.5C107.586 81.08 107.586 80.345 107.166 79.925C106.746 79.4 106.011 79.4 105.591 79.925Z" fill="#EEEEEE"/>
<path d="M110.946 74.8853C110.631 75.2003 110.631 75.8303 110.946 76.1453C111.261 76.4603 111.891 76.4603 112.206 76.1453C112.521 75.8303 112.521 75.2003 112.206 74.8853C111.891 74.4653 111.261 74.4653 110.946 74.8853Z" fill="#EEEEEE"/>
<path d="M115.987 71.1028C115.777 70.8928 115.462 70.8928 115.357 71.1028C115.147 71.3128 115.147 71.6278 115.357 71.7328C115.567 71.9428 115.882 71.9428 115.987 71.7328C116.197 71.6278 116.197 71.3128 115.987 71.1028Z" fill="#EEEEEE"/>
<path d="M93.517 78.8817C92.677 79.4067 92.362 80.4567 92.887 81.4017C93.412 82.2417 94.462 82.5567 95.407 82.0317C96.247 81.5067 96.562 80.4567 96.037 79.5117C95.512 78.6717 94.462 78.3567 93.517 78.8817Z" fill="#EEEEEE"/>
<path d="M102.127 74.8782C101.707 75.1932 101.497 75.7182 101.812 76.2432C102.127 76.6632 102.652 76.8732 103.177 76.5582C103.597 76.2432 103.807 75.7182 103.492 75.1932C103.177 74.7732 102.547 74.5632 102.127 74.8782Z" fill="#EEEEEE"/>
<path d="M108.532 71.3238C108.112 71.5338 108.007 72.0587 108.217 72.4787C108.427 72.8987 108.952 73.0037 109.372 72.7937C109.792 72.5837 109.897 72.0587 109.687 71.6387C109.372 71.2187 108.952 71.1138 108.532 71.3238Z" fill="#EEEEEE"/>
<path d="M89.8412 57.9735H92.7812V69.1035H89.8412V57.9735ZM91.6262 53.0385C90.6812 52.8285 89.8412 53.3535 89.5262 54.1935C89.2112 55.0335 89.8412 55.9785 90.6812 56.2935C91.5212 56.6085 92.4662 55.9785 92.7812 55.1385C93.0962 54.1935 92.5712 53.2485 91.6262 53.0385ZM101.706 69.4185C100.971 69.4185 100.341 69.3135 99.6062 68.9985C98.9762 68.6835 98.5562 68.3685 98.1362 67.8435V74.7735H95.3012V57.9735H98.1362V59.5485C98.4512 59.0235 98.9762 58.6035 99.6062 58.2885C100.236 57.9735 100.971 57.7635 101.706 57.7635C102.441 57.7635 103.071 57.8685 103.701 58.1835C104.331 58.4985 104.961 58.8135 105.381 59.3385C105.906 59.8635 106.326 60.4935 106.536 61.2285C106.851 61.9635 106.956 62.8035 106.956 63.6435C106.956 64.4835 106.851 65.3235 106.536 66.0585C106.221 66.6885 105.801 67.3185 105.276 67.9485C104.436 68.8935 103.176 69.4185 101.706 69.4185ZM101.181 66.6885C101.601 66.6885 102.021 66.5835 102.441 66.4785C102.756 66.2685 103.176 66.0585 103.386 65.8485C103.701 65.5335 103.911 65.2185 104.016 64.9035C104.331 64.0635 104.331 63.2235 104.016 62.3835C103.911 62.0685 103.596 61.6485 103.386 61.4385C103.071 61.1235 102.756 60.9135 102.441 60.8085C102.021 60.5985 101.601 60.5985 101.181 60.5985C100.341 60.5985 99.6062 60.9135 98.9762 61.5435C98.6612 61.8585 98.4512 62.1735 98.3462 62.4885C98.0312 63.3285 98.0312 64.1685 98.3462 64.9035C98.4512 65.2185 98.6612 65.6385 98.9762 65.8485C99.5012 66.3735 100.341 66.6885 101.181 66.6885ZM109.161 57.9735H111.996V59.6535C112.206 59.0235 112.626 58.4985 113.256 58.1835C113.886 57.8685 114.516 57.6585 115.146 57.7635C115.461 57.7635 115.881 57.7635 116.196 57.8685C116.511 57.9735 116.826 58.0785 117.036 58.1835L115.986 61.0185C115.776 60.9135 115.566 60.8085 115.356 60.7035C115.041 60.5985 114.726 60.5985 114.516 60.5985C113.886 60.5985 113.256 60.8085 112.731 61.2285C112.311 61.6485 112.101 62.2785 112.101 63.2235V69.1035H109.266L109.161 57.9735ZM123.231 69.4185C122.391 69.4185 121.656 69.3135 120.921 68.9985C120.186 68.6835 119.556 68.2635 119.031 67.7385C117.981 66.6885 117.351 65.2185 117.351 63.6435C117.351 62.9085 117.456 62.0685 117.771 61.3335C118.086 60.5985 118.506 59.9685 119.031 59.4435C121.341 57.1335 125.121 57.1335 127.431 59.4435C128.481 60.4935 129.111 61.9635 129.111 63.5385C129.111 64.2735 129.006 65.1135 128.691 65.7435C128.376 66.4785 127.956 67.1085 127.431 67.6335C126.906 68.1585 126.276 68.5785 125.541 68.8935C124.911 69.2085 124.071 69.4185 123.231 69.4185ZM123.336 66.6885C123.756 66.6885 124.176 66.5835 124.596 66.4785C124.911 66.2685 125.226 66.0585 125.541 65.8485C125.856 65.5335 126.066 65.2185 126.171 64.9035C126.486 64.0635 126.486 63.2235 126.171 62.4885C126.066 62.1735 125.856 61.7535 125.541 61.5435C125.226 61.2285 124.911 61.0185 124.596 60.9135C123.861 60.5985 122.916 60.5985 122.181 60.9135C121.866 61.1235 121.551 61.3335 121.236 61.5435C120.921 61.8585 120.711 62.1735 120.606 62.4885C120.291 63.3285 120.291 64.1685 120.606 64.9035C120.711 65.2185 120.921 65.6385 121.236 65.8485C121.551 66.0585 121.866 66.3735 122.181 66.4785C122.496 66.5835 122.916 66.6885 123.336 66.6885ZM69.6812 57.9735H72.6212L74.8262 65.1135L77.4512 57.9735H79.9712L82.5962 65.1135L84.9062 57.9735H87.8462L84.0662 69.1035H81.3362L78.7112 61.8585L75.9812 69.1035H73.2512L69.6812 57.9735Z" fill="#EEEEEE"/>
</g>
<defs>
<clipPath id="clip0_665_5371">
<rect width="231" height="127" fill="white"/>
</clipPath>
</defs>
</svg>
