<svg width="182" height="47" viewBox="0 0 182 47" fill="none" xmlns="http://www.w3.org/2000/svg">
<g clip-path="url(#clip0_77_2810)">
<path d="M25.8117 45.7897C25.644 45.7897 25.26 45.839 24.6602 45.9396C24.8851 45.151 25.1101 44.3593 25.3407 43.5725C25.4036 43.349 25.6436 42.4571 26.0604 40.9035L27.4335 35.7928L28.7109 30.7311L30.0211 25.4316C30.4171 25.4316 30.7886 25.4467 31.1183 25.481C31.448 25.5172 31.7781 25.547 32.1018 25.5771C32.4703 25.5409 32.8694 25.5066 33.2952 25.4765C33.721 25.4463 34.0778 25.4316 34.3566 25.4316C33.9162 26.7573 33.5473 27.9216 33.2473 28.9337L32.3 32.1856L31.1485 36.3852L30.087 40.2264L44.4974 25.8085C44.8512 25.8684 44.0716 25.5221 44.4495 25.5221C44.8305 25.5221 46.3626 25.8684 46.7643 25.8085L26.7616 45.94L25.8117 45.7897Z" fill="#DDDDDD"/>
<path d="M166.809 45.9755L165.211 45.8436C164.936 45.8798 164.633 45.9065 164.303 45.9336C163.973 45.9608 163.694 45.9755 163.469 45.9755L173.178 29.3762C171.973 29.3762 170.513 29.502 168.801 29.7571C169.152 29.2684 169.413 28.8859 169.575 28.6161C169.731 28.3508 169.919 27.9624 170.132 27.4646H181.622L181.238 28.0042L180.842 28.598L180.674 28.9247L180.482 29.3219L180.287 29.7567C178.647 29.502 177.394 29.3758 176.527 29.3758L166.809 45.9755ZM146.966 44.2753H148.861C152.483 44.2753 155.883 41.5498 159.062 36.0943C159.311 35.6625 159.536 35.2578 159.733 34.8708C159.931 34.4839 160.111 34.1108 160.261 33.7509C161.596 30.6083 160.867 29.0344 158.069 29.0344H155.88L146.966 44.2753ZM161.077 27.4642C161.709 27.4642 162.243 27.5452 162.684 27.7073C163.122 27.8693 163.5 28.112 163.811 28.427C164.396 28.9877 164.675 29.7496 164.657 30.7101C164.63 31.6728 164.363 32.7611 163.847 33.9725C163.592 34.5784 163.223 35.2936 162.75 36.1211C161.601 38.0956 160.243 39.8225 158.672 41.2977C157.101 42.7729 155.467 43.9023 153.769 44.68C152.072 45.4581 150.465 45.8436 148.951 45.8436H142.708L153.442 27.4646H161.077V27.4642ZM137.083 36.1569L137.628 36.184C139.593 36.184 141.332 34.8885 142.846 32.298C142.993 32.0146 143.116 31.7715 143.22 31.5647C143.322 31.3593 143.418 31.1509 143.508 30.9411C143.859 30.1076 143.886 29.5649 143.583 29.3072C143.283 29.0525 142.744 28.9247 141.976 28.9247H141.313L137.083 36.1569ZM138.807 27.4642H143.553C145.347 27.4642 146.45 27.6424 146.852 28.0038C147.524 28.6636 147.598 29.6139 147.068 30.8627C146.918 31.2135 146.744 31.5477 146.546 31.8612C146.048 32.7249 145.46 33.4894 144.78 34.1564C144.093 34.8252 143.373 35.3739 142.609 35.8012C141.847 36.233 141.053 36.539 140.225 36.7232L140.063 38.423L139.943 40.3753L139.838 42.3633L139.739 44.3017L139.625 45.9751L137.676 45.8432C137.364 45.8794 137.007 45.9122 136.608 45.9393C136.209 45.9604 135.871 45.9755 135.598 45.9755L136.255 40.3131L136.542 37.3175H136.393L131.337 45.9758L129.736 45.844C129.466 45.8801 129.154 45.9129 128.821 45.94C128.489 45.9611 128.213 45.9762 127.985 45.9762L138.807 27.4642ZM123.59 38.6891L125.275 32.4012L119.515 38.6891H123.59ZM117.935 40.3353L116.364 42.1342L114.487 44.2749C113.983 44.8537 113.515 45.4038 113.095 45.9257L112.61 45.8854L112.1 45.8436L111.554 45.8854L110.972 45.9257L128.297 27.2261C128.555 27.2796 128.825 27.3067 129.101 27.3067C129.371 27.3067 129.665 27.2796 129.983 27.2261L125.245 45.9751L123.407 45.8432C123.102 45.8794 122.76 45.9122 122.379 45.9393C121.995 45.9604 121.674 45.9755 121.413 45.9755C121.635 45.2904 121.845 44.6261 122.061 43.9784C122.271 43.3355 122.421 42.8543 122.511 42.5348C122.613 42.2379 122.715 41.8916 122.829 41.5001C122.937 41.1086 123.039 40.7219 123.129 40.3353H117.935ZM105.255 27.4642C105.576 27.4642 105.858 27.4763 106.115 27.5076C106.361 27.5407 106.613 27.5675 106.853 27.5946C107.129 27.5614 107.435 27.5302 107.77 27.503C108.103 27.4759 108.382 27.4642 108.607 27.4642L104.343 34.7759C104.96 34.7759 105.539 34.7894 106.073 34.8207C106.616 34.8524 107.146 34.8791 107.674 34.9063C108.196 34.8701 108.79 34.8433 109.458 34.8162C110.127 34.7891 110.7 34.7759 111.17 34.7759L115.422 27.4642C115.734 27.4642 116.022 27.4763 116.271 27.5076C116.519 27.5407 116.774 27.5675 117.023 27.5946C117.299 27.5614 117.605 27.5302 117.935 27.503C118.264 27.4759 118.54 27.4642 118.768 27.4642L107.956 45.9751L106.355 45.8432C106.088 45.8794 105.785 45.9061 105.452 45.9333C105.119 45.9604 104.838 45.9751 104.613 45.9751L109.896 36.935C109.278 36.935 108.7 36.9214 108.16 36.8947C107.62 36.8676 107.083 36.8408 106.564 36.8046C106.04 36.8404 105.443 36.8676 104.778 36.8947C104.109 36.9218 103.539 36.935 103.069 36.935L97.7855 45.9751L96.1965 45.8432C95.9207 45.8794 95.6147 45.9061 95.282 45.9333C94.9493 45.9604 94.6674 45.9751 94.4424 45.9751L105.255 27.4642ZM90.559 27.4642C90.871 27.4642 91.1499 27.4763 91.4046 27.5076C91.6563 27.5407 91.9024 27.5675 92.1454 27.5946C92.4182 27.5614 92.7242 27.5302 93.0539 27.503C93.3836 27.4759 93.6685 27.4642 93.8991 27.4642L88.9696 35.9274L92.151 33.4597L94.8166 31.3665L97.4792 29.2496L99.6922 27.4638C100.298 27.5539 100.678 27.5942 100.825 27.5942C100.981 27.5942 101.401 27.5539 102.085 27.4638L101.965 27.6752L95.5842 32.3289L93.8241 33.6601L91.8123 35.1666L91.7192 45.5922L91.4943 45.9747L89.8962 45.8428C89.6174 45.879 89.3174 45.9058 88.9817 45.9329C88.646 45.96 88.3641 45.9747 88.1422 45.9747L88.0943 37.3973L83.0868 45.9747L81.4888 45.8428C81.222 45.879 80.9191 45.9058 80.5863 45.9329C80.2627 45.96 79.9748 45.9747 79.7347 45.9747L90.559 27.4642ZM78.1634 42.8404L76.3073 45.1702C74.6312 45.9438 72.934 46.3293 71.2188 46.3293C70.1603 46.3293 69.2729 46.1642 68.5562 45.836C67.8365 45.5063 67.2969 45.0202 66.928 44.3725C66.5591 43.7251 66.3945 42.9662 66.4333 42.0879C66.4691 41.2122 66.7272 40.214 67.1978 39.0987C67.3448 38.7569 67.4884 38.4373 67.6383 38.1404C67.7823 37.848 67.9503 37.542 68.1421 37.2278C69.1527 35.514 70.2591 34.0117 71.4584 32.7211C72.6609 31.4302 73.9171 30.36 75.2247 29.5145C76.5379 28.6644 77.8514 28.0317 79.1676 27.6134C80.4902 27.191 81.7733 26.9796 83.0205 26.9796C83.7881 26.9796 84.5199 27.0919 85.2034 27.3199C85.8839 27.5509 86.4118 27.8776 86.7777 28.3094L85.7973 29.5732L84.6457 31.0752H84.3307C84.3488 30.3468 84.1596 29.75 83.7519 29.2914C83.3442 28.8264 82.7865 28.5988 82.0849 28.5988C81.2092 28.5988 80.3037 28.8328 79.3651 29.2959C78.4234 29.7624 77.5059 30.3935 76.6185 31.1879C75.7277 31.9811 74.8972 32.8703 74.1297 33.8459C73.3591 34.8264 72.6725 35.8294 72.07 36.8596C71.5903 37.6781 71.1943 38.4562 70.8797 39.203C70.1569 40.9058 69.9501 42.2526 70.2591 43.2376C70.565 44.2222 71.4046 44.7128 72.7777 44.7128C73.2155 44.7128 73.7404 44.6227 74.355 44.443C74.9726 44.2628 75.5875 44.0202 76.1961 43.7191C76.8077 43.4177 77.3985 43.0714 77.9592 42.6844L78.1634 42.8404ZM52.5387 37.4791C52.1013 38.2346 51.747 38.9276 51.4833 39.5572C50.8476 41.0592 50.6196 42.2963 50.8084 43.2632C50.9972 44.2301 51.7199 44.7113 52.9762 44.7113C54.0497 44.7113 55.1953 44.3152 56.4124 43.5239C57.6268 42.7353 58.8021 41.6843 59.9295 40.3757C61.06 39.0666 62.0796 37.6317 62.9968 36.0668C63.2278 35.6621 63.4226 35.2977 63.5906 34.9737C63.7587 34.65 63.9173 34.3079 64.0703 33.945C64.3883 33.197 64.6099 32.515 64.7452 31.8839C64.8771 31.2557 64.9012 30.692 64.8202 30.1886C64.7391 29.6908 64.5202 29.2978 64.1754 29.0205C63.8276 28.7356 63.3268 28.5977 62.6821 28.5977C61.6448 28.5977 60.5742 28.9172 59.4679 29.5499C58.3646 30.1886 57.2251 31.1747 56.0529 32.5048C54.8776 33.8361 53.7084 35.4914 52.5387 37.4791ZM51.9302 46.3293C50.8627 46.3293 49.9723 46.1673 49.2586 45.8481C48.5449 45.5286 48.0234 45.0534 47.6873 44.4192C47.3516 43.79 47.2227 43.0118 47.2913 42.0939C47.3602 41.1749 47.636 40.1511 48.1161 39.0176C48.4311 38.2708 48.8328 37.4927 49.3125 36.6878C50.1011 35.3339 51.0338 34.0746 52.1013 32.914C53.1748 31.7489 54.3621 30.7101 55.6693 29.7986C56.3321 29.3381 56.9828 28.944 57.6242 28.6097C58.2689 28.2785 58.9464 27.9846 59.6631 27.7295C61.0483 27.2291 62.4157 26.9785 63.7741 26.9785C65.4264 26.9785 66.6255 27.3289 67.3633 28.0309C68.095 28.7084 68.4428 29.6098 68.4067 30.7368C68.3705 31.8658 68.0709 33.0938 67.5102 34.4205C67.2253 35.0954 66.8538 35.8151 66.4099 36.5797C66.038 37.2316 65.6243 37.8657 65.1687 38.4777C64.7128 39.0937 64.2003 39.7102 63.6366 40.3218C62.545 41.5091 61.3546 42.5465 60.0565 43.4433C58.7584 44.3412 57.4207 45.0429 56.0265 45.5602C54.6289 46.0746 53.2675 46.3293 51.9302 46.3293Z" fill="#DDDDDD"/>
<path d="M33.8068 46.1987C33.6297 46.1987 33.231 46.2496 32.6074 46.3487C32.8414 45.5631 33.0724 44.7699 33.3151 43.9827C33.378 43.7596 33.6331 42.8673 34.0646 41.3126L35.4919 36.2034L36.8202 31.1432L38.1846 25.8438C38.5984 25.8438 38.9823 25.8588 39.3271 25.8931C39.6719 25.9274 40.0137 25.9591 40.3528 25.9877C40.7364 25.9534 41.1501 25.9187 41.597 25.8886C42.0349 25.8585 42.4064 25.8438 42.7003 25.8438C42.2387 27.169 41.8578 28.3337 41.5431 29.3443L40.5597 32.5977L39.3603 36.7958L38.2539 40.6366L41.6211 37.1406L45.2495 33.2993C46.3347 32.1433 47.4922 30.8991 48.7157 29.5648C49.7471 28.4389 50.8655 27.1988 52.0679 25.8438C52.4337 25.9037 52.8113 25.9338 53.2073 25.9338C53.6004 25.9338 54.0077 25.9037 54.4278 25.8438L49.0756 31.3475L43.8285 36.7464L39.199 41.6024C38.5844 42.2561 38.0836 42.7882 37.7027 43.1963C37.4057 43.5158 36.917 44.043 36.2455 44.7702C35.8586 45.1885 35.3732 45.7164 34.7944 46.3491L33.8068 46.1987Z" fill="#DDDDDD"/>
<path d="M4.11619 11.5287L2.09884 19.046L8.60945 11.4521C7.34912 11.5048 6.08205 11.5314 4.80876 11.5314C4.5777 11.5314 4.34684 11.5305 4.11619 11.5287Z" fill="#DDDDDD"/>
<path d="M10.6964 11.3408L2.95647 24.1642L17.4019 10.6523C15.1916 10.9635 12.9554 11.1941 10.6964 11.3408Z" fill="#DDDDDD"/>
<path d="M20.0974 10.2306L2.23373 33.8973L2.50353 34.1222L28.6964 8.30787C25.8832 9.08512 23.0144 9.72846 20.0974 10.2306Z" fill="#DDDDDD"/>
<path d="M30.9539 7.65188L0 46.5521L0.665446 46.5235L48.7837 0C43.1872 3.16351 37.2163 5.74183 30.9539 7.65188Z" fill="#DDDDDD"/>
</g>
<defs>
<clipPath id="clip0_77_2810">
<rect width="182" height="46.7246" fill="white"/>
</clipPath>
</defs>
</svg>
