<?xml version="1.0" encoding="utf-8"?>
<!-- Generator: Adobe Illustrator 24.0.1, SVG Export Plug-In . SVG Version: 6.00 Build 0)  -->
<svg version="1.1" id="Layer_1" xmlns="http://www.w3.org/2000/svg" xmlns:xlink="http://www.w3.org/1999/xlink" x="0px" y="0px"
	 viewBox="0 0 152.1 72.8" style="enable-background:new 0 0 152.1 72.8;" xml:space="preserve">
<style type="text/css">
	.st0{fill:#FFFFFF;}
</style>
<path class="st0" d="M106.9,0l1.1,0.2c3.4,0.7,5.9,3.7,5.9,7.2c0,8.4,0,16.8,0,25.1c0,4-3.2,7.3-7.3,7.4c-0.1,0-0.2,0-0.3,0H82.9
	c1,2.6,2,5.1,3.1,7.7c-1.6-0.9-3-1.6-4.4-2.4c-3-1.7-6-3.3-9-5c-0.4-0.2-0.8-0.3-1.2-0.3c-10.1,0-20.1,0-30.2,0
	c-3.7,0.1-6.9-2.5-7.5-6.2c-0.1-0.5-0.1-1-0.1-1.4c0-8.2,0-16.5,0-24.7c0-3.5,2.4-6.6,5.8-7.3c0.4-0.1,0.8-0.2,1.1-0.3L106.9,0z
	 M45.9,25.2c-0.1-0.1-0.1-0.2-0.2-0.4c-1-5.4-2-10.8-3.1-16.3c-0.2-1-0.3-2.1-1.4-2.6c-1.1-0.5-2.4-0.4-3.3,0.3
	c-0.9,0.7-1.3,1.8-1,2.9c0.4,2.5,0.8,5,1.3,7.5c0.8,4.9,1.9,9.8,3.2,14.6c0.4,1.3,0.9,2.7,1.5,3.9c0.4,1,1.4,1.5,2.4,1.1
	c0.3-0.1,0.5-0.3,0.7-0.5c0.2-0.1,0.4-0.3,0.5-0.5c0.8-1,1.6-2,2.3-3.1c1.7-3.2,3.3-6.5,5-9.7c0.2-0.3,0.3-0.7,0.6-1.1
	c0.1,0.2,0.1,0.4,0.2,0.5c1,3.7,2.6,7.2,4.7,10.4c0.9,1.3,1.9,2.5,3.1,3.5c1,0.9,2.5,0.9,3.4,0c0.4-0.4,0.6-0.9,0.7-1.5
	c0-0.2,0.1-0.5,0.1-0.7c-0.1-4.3,0.2-8.5,0.9-12.7c0.5-4.3,1.6-8.5,3.3-12.4c0.5-0.9,0.4-2-0.2-2.8c-0.9-1.4-2.7-1.7-4.1-0.8
	c-0.4,0.3-0.8,0.7-1,1.2c-1.7,3.6-2.8,7.4-3.4,11.2c-0.4,2-0.6,4-0.9,6.2c-0.3-0.7-0.5-1.3-0.7-1.9c-0.6-2.1-1.2-4.3-1.8-6.4
	c-0.3-1.2-0.4-2.4-0.8-3.5c-0.4-1.3-1.7-2-3-1.6c-0.5,0.2-0.9,0.5-1.2,0.9c-0.3,0.3-0.5,0.7-0.7,1c-1.3,2.6-2.7,5.1-4,7.7
	C47.9,21.4,47,23.3,45.9,25.2 M110,18.1c-0.1-0.6-0.1-1.6-0.3-2.6c-0.3-2.3-1.5-4.5-3.3-6c-3.6-2.8-8.8-2.2-11.6,1.4
	c-3.3,4-4.7,9.3-3.6,14.5c0.3,2.1,1.4,4,2.9,5.4c3.5,3,8.8,2.6,11.8-0.9c0.1-0.1,0.1-0.2,0.2-0.2C108.7,26.4,110.1,22.3,110,18.1
	 M79,32.9c0.4,0,0.9,0,1.3-0.1c2.6-0.5,4.8-2.1,6.1-4.4c1.7-2.6,2.7-5.6,2.9-8.7c0.2-2.1-0.1-4.3-0.8-6.3C87,9.1,82.3,6.8,78,8.3
	c-1.3,0.5-2.5,1.2-3.4,2.3c-4.2,4.5-5.5,10.9-3.4,16.7C72.2,30.7,75.4,33,79,32.9"/>
<path class="st0" d="M25.5,72.8c-0.6-0.1-1.2-0.2-1.8-0.3c-2.8-0.5-5.1-2.5-6-5.2c-1.6-4-1.7-8.4-0.2-12.4c1.2-3.5,4.4-5.8,8.1-5.8
	c1.4-0.1,2.8,0.1,4.2,0.5c2.7,0.8,4.8,2.9,5.6,5.7c1.2,3.7,1.2,7.7-0.1,11.3c-1,3.4-4,5.8-7.5,6c-0.1,0-0.2,0.1-0.4,0.1L25.5,72.8z
	 M29.7,61.4c0.1-1.8-0.2-3.5-0.8-5.2c-0.4-1-1.3-1.8-2.4-1.9c-1.5-0.2-2.9,0.8-3.1,2.4v0.1c-0.7,2.9-0.7,5.8,0,8.7
	c0.2,1.1,1,1.9,2,2.1c1.6,0.4,3.2-0.5,3.6-2c0-0.1,0.1-0.2,0.1-0.3C29.5,63.7,29.6,62.3,29.7,61.4L29.7,61.4z"/>
<path class="st0" d="M152.1,72.2c-0.3,0-0.5-0.1-0.8-0.1h-11.4V49.7h11.5c0.2,0,0.5,0,0.7,0v4.9h-6.2v4.1h5.3v4.6h-5.3v4.1h6.2V72.2
	z"/>
<path class="st0" d="M133.7,72.8c-0.9-0.2-1.9-0.3-2.8-0.5c-4.3-1.2-7.4-4.9-7.9-9.3c-0.4-2.6-0.1-5.3,1-7.7c1.8-3.7,5.5-6,9.6-6.1
	c1.3,0,2.5,0.1,3.8,0.2c0.2,0,0.4,0.1,0.6,0.2v5.3c-0.7-0.1-1.5-0.3-2.2-0.4c-3-0.5-5.8,1.4-6.3,4.4c0,0.1,0,0.2,0,0.3
	c-0.3,1.6-0.2,3.3,0.4,4.8c0.9,2.3,3.3,3.7,5.8,3.4c0.8-0.1,1.5-0.3,2.3-0.4v5.3c-0.9,0.2-1.8,0.4-2.6,0.5
	C134.9,72.8,134.3,72.8,133.7,72.8"/>
<path class="st0" d="M0,59c0.2-0.6,0.3-1.3,0.5-2c1.3-4.5,5.3-7.7,10-7.9c1.3,0,2.7,0.2,4.1,0.2c0.5,0,0.7,0.2,0.6,0.7
	c0,1.6,0,3.1,0,4.8c-3.1-0.8-6-1-7.8,2.3c-1.4,2.4-1.3,5.4,0.2,7.8c1.8,2.8,4.7,2.7,7.6,1.9c0,1.7,0,3.4,0,5.1
	c0,0.1-0.3,0.4-0.5,0.4c-0.7,0.2-1.4,0.3-2.2,0.4h-1.7c-0.2,0-0.4,0-0.6-0.1c-4.3-0.3-7.9-3.1-9.4-7.1c-0.3-1-0.6-2.1-0.8-3.2V59z"
	/>
<path class="st0" d="M63.3,72.2c-1.9,0-3.8,0-5.7,0c-0.1,0-0.4-0.2-0.4-0.4c-0.3-2.6-0.6-5.1-0.8-7.7c-0.2-2.3-0.5-4.5-0.7-7
	c-0.1,0.3-0.2,0.4-0.2,0.6c-1.1,4.6-2.3,9.3-3.4,13.9c-0.1,0.5-0.3,0.6-0.7,0.6c-0.9,0-1.9,0-2.8,0c-0.5,0-0.7-0.1-0.8-0.6
	c-1.1-4.6-2.3-9.3-3.5-13.9c0-0.2-0.1-0.3-0.2-0.4c-0.5,5-1,9.9-1.5,14.9h-5.8c1-7.5,1.9-14.9,2.9-22.4H43h3.9
	c0.4,0,0.5,0.1,0.6,0.5c0.8,3.6,1.5,7.3,2.3,11c0,0.2,0.1,0.5,0.2,0.8c0.4-2.2,0.8-4.2,1.3-6.2c0.4-1.8,0.9-3.7,1.3-5.5
	c0.1-0.4,0.2-0.5,0.6-0.5c2.3,0,4.5,0,6.8,0c0.4,0,0.6,0.2,0.6,0.6c0.9,6.5,1.7,13,2.6,19.4C63,70.5,63.1,71.3,63.3,72.2"/>
<path class="st0" d="M82.9,57.2c-0.5,2-1,4-1.5,6.1c-0.7,2.8-1.3,5.6-2,8.4c-0.1,0.4-0.3,0.6-0.7,0.6c-1,0-2,0-3,0
	c-0.5,0-0.6-0.2-0.7-0.6c-1.2-4.6-2.3-9.2-3.5-13.8c0-0.2-0.1-0.5-0.3-0.6c-0.1,1.3-0.3,2.6-0.4,3.8c-0.4,3.6-0.7,7.2-1.1,10.8
	c0,0.1-0.2,0.4-0.3,0.4c-1.8,0-3.6,0-5.5,0c0.2-1.3,0.3-2.5,0.5-3.7c0.5-3.6,0.9-7.3,1.4-10.9c0.3-2.5,0.6-4.9,0.9-7.4
	c0-0.2,0.2-0.4,0.4-0.4c2.4,0,4.9,0,7.4,0c0.8,4,1.7,8,2.5,11.9h0.1c0.1-0.7,0.3-1.4,0.4-2.1c0.7-3.1,1.4-6.2,2-9.2
	c0.1-0.3,0.1-0.6,0.5-0.6c2.4,0,4.8,0,7.2,0c0.1,0,0.2,0,0.3,0.1c1,7.4,2,14.8,3,22.3h-6C84.1,67.1,83.6,62.2,82.9,57.2
	C83,57.2,83,57.2,82.9,57.2"/>
<path class="st0" d="M119,62.1l4.8,10c-0.2,0-0.4,0.1-0.6,0.1H118c-0.4,0-0.7-0.2-0.8-0.5c-1.4-3-2.8-5.9-4.3-8.9
	c-0.1-0.2-0.2-0.4-0.4-0.6v9.9h-6.1V49.8l0.1-0.1c3.2,0.1,6.4,0.1,9.5,0.2c1.8,0.1,3.4,0.9,4.7,2.1c2.4,2.3,2.5,6.2,0.2,8.6
	c-0.4,0.4-0.8,0.7-1.2,1C119.5,61.8,119.3,61.9,119,62.1 M112.5,54v5.4c0.8-0.1,1.6-0.2,2.3-0.4c0.9-0.2,1.6-1.1,1.6-2
	c0.1-1.1-0.5-2.1-1.5-2.5C114.1,54.3,113.3,54.1,112.5,54"/>
<path class="st0" d="M98.5,54.5v4.1h5.2v4.7h-5.2v4.1h6.1v4.8H92.4V49.8h12.2v4.7C102.5,54.5,100.5,54.5,98.5,54.5"/>
<path class="st0" d="M104.3,18.4c0.1,2.4-0.6,4.7-1.9,6.6c-0.5,0.6-1,1.1-1.7,1.5c-0.9,0.7-2.1,0.5-2.8-0.3
	c-0.1-0.1-0.2-0.3-0.3-0.4c-0.9-1.5-1.2-3.3-1-5.1c0.2-2.1,1-4.1,2.4-5.7c0.3-0.3,0.6-0.6,1-0.9c0.9-0.8,2.2-0.7,2.9,0.2
	c0.1,0.1,0.2,0.3,0.3,0.5C103.9,15.9,104.3,17.2,104.3,18.4"/>
<path class="st0" d="M83.6,19.6c-0.1,2.1-0.8,4.2-2.2,5.8c-0.4,0.5-0.9,0.9-1.5,1.2c-0.9,0.6-2.1,0.4-2.7-0.4
	c-0.1-0.1-0.1-0.2-0.2-0.3c-0.9-1.5-1.3-3.3-1.1-5.1c0.2-2.1,1-4,2.3-5.6c0.4-0.4,0.8-0.8,1.3-1.1c0.9-0.7,2.2-0.5,2.9,0.5
	c0,0.1,0.1,0.1,0.1,0.2C83.4,16.2,83.8,17.9,83.6,19.6"/>
</svg>
