<svg width="216" height="207" viewBox="0 0 216 207" fill="none" xmlns="http://www.w3.org/2000/svg">
<g clip-path="url(#clip0_5535_2442)">
<rect width="216" height="206.929" fill="#151517"/>
<path d="M136.852 69.1738L137.86 69.426C139.431 69.7287 140.848 70.5696 141.867 71.8044C142.887 73.0391 143.444 74.5904 143.445 76.1919C143.445 84.0925 143.445 91.9933 143.445 99.8519C143.456 100.759 143.287 101.658 142.948 102.499C142.609 103.34 142.107 104.105 141.47 104.75C140.833 105.395 140.075 105.907 139.239 106.257C138.403 106.606 137.506 106.786 136.6 106.786H114.301L117.241 114.098L113.041 111.787L104.642 107.08C104.28 106.894 103.874 106.807 103.467 106.828H75.0785C73.4043 106.863 71.7729 106.298 70.479 105.234C69.185 104.171 68.314 102.679 68.0235 101.029C67.9818 100.567 67.9818 100.103 68.0235 99.6418C68.0235 91.9093 68.0235 84.1346 68.0235 76.36C68.0147 74.7549 68.556 73.1952 69.557 71.9411C70.5581 70.6869 71.9584 69.814 73.5247 69.468L74.5746 69.2578L136.852 69.1738ZM79.488 92.9178C79.4654 92.8069 79.4654 92.6926 79.488 92.5817C78.5222 87.4967 77.556 82.3696 76.6322 77.2846C76.6322 76.318 76.3383 75.2674 75.3304 74.8051C74.8384 74.5522 74.2846 74.4456 73.7339 74.4977C73.1832 74.5499 72.6588 74.7586 72.2229 75.0993C71.7944 75.4055 71.4686 75.8343 71.2887 76.3295C71.1087 76.8247 71.0831 77.3629 71.2151 77.873C71.635 80.1844 72.0131 82.5377 72.391 84.8911C73.1431 89.5279 74.1667 94.1166 75.4565 98.6333C75.8224 99.8983 76.3147 101.123 76.9262 102.289C77.0058 102.508 77.1279 102.708 77.285 102.879C77.4422 103.05 77.6313 103.188 77.842 103.286C78.0526 103.384 78.2808 103.438 78.5128 103.448C78.7448 103.457 78.9763 103.42 79.1941 103.34C79.441 103.24 79.6683 103.098 79.8658 102.92L80.3698 102.457C81.1406 101.505 81.8558 100.509 82.5115 99.4737C84.1073 96.4899 85.6189 93.4221 87.1307 90.3963L87.6766 89.3457V89.808C88.5475 93.2746 89.9651 96.58 91.876 99.5998C92.7187 100.808 93.706 101.909 94.8157 102.878C95.2454 103.289 95.817 103.518 96.4115 103.518C97.0059 103.518 97.5775 103.289 98.0073 102.878C98.3827 102.493 98.6066 101.986 98.6372 101.449C98.6552 101.225 98.6552 101 98.6372 100.776C98.5168 96.7661 98.7979 92.7536 99.477 88.7994C99.9359 84.7739 100.983 80.8376 102.585 77.1164C102.811 76.71 102.912 76.2456 102.874 75.7819C102.837 75.3181 102.663 74.8758 102.375 74.5109C101.965 73.9071 101.334 73.4892 100.619 73.3476C99.9038 73.206 99.1616 73.3522 98.5532 73.7545C98.1274 74.0115 97.7903 74.3929 97.5874 74.8472C96.0342 78.2074 94.9734 81.7741 94.4379 85.4375C94.102 87.3285 93.8919 89.2197 93.598 91.2369C93.3461 90.5645 93.0939 90.0181 92.926 89.4298L91.2884 83.3782C90.9944 82.2856 90.8684 81.1089 90.4905 80.0582C90.4236 79.5871 90.2075 79.1499 89.8743 78.8105C89.541 78.4711 89.1079 78.2474 88.6383 78.1722C88.1688 78.097 87.6878 78.1743 87.2653 78.3927C86.8429 78.6111 86.5015 78.9591 86.2911 79.3858C86.0164 79.6696 85.7893 79.996 85.619 80.3524L81.7976 87.6226L78.9839 92.9599L79.488 92.9178ZM139.287 86.2779C139.247 85.4755 139.163 84.6759 139.036 83.8825C138.718 81.6801 137.596 79.6737 135.886 78.2512C134.254 76.9757 132.183 76.4008 130.127 76.653C128.072 76.9051 126.201 77.9638 124.925 79.596C123.383 81.4694 122.281 83.6653 121.699 86.0218C121.118 88.3783 121.072 90.8355 121.566 93.212C121.907 95.1441 122.865 96.9134 124.296 98.255C125.9 99.6063 127.971 100.271 130.062 100.106C132.152 99.9411 134.093 98.959 135.466 97.3724V97.1624C137.907 94.0673 139.198 90.2201 139.119 86.2779H139.287ZM109.934 100.146H111.151C112.367 99.916 113.517 99.42 114.519 98.6935C115.52 97.967 116.35 97.028 116.947 95.9436C118.539 93.4924 119.466 90.6678 119.634 87.7487C119.793 85.7392 119.521 83.7192 118.836 81.8233C118.397 80.5436 117.63 79.4014 116.612 78.511C115.594 77.6207 114.36 77.0134 113.034 76.7497C111.708 76.4859 110.336 76.575 109.055 77.0081C107.774 77.4412 106.629 78.2031 105.734 79.2177C103.809 81.2902 102.492 83.8541 101.929 86.6272C101.366 89.4002 101.579 92.2749 102.543 94.935C103.018 96.5037 104.004 97.8684 105.343 98.8126C106.682 99.7567 108.298 100.226 109.934 100.146Z" fill="white"/>
<path d="M60.2545 137.674C59.6665 137.674 59.1206 137.674 58.5746 137.338C57.2824 137.09 56.0768 136.51 55.0757 135.655C54.0746 134.801 53.3123 133.701 52.8634 132.463C51.4361 128.714 51.4361 124.571 52.8634 120.822C53.399 119.241 54.4163 117.868 55.7721 116.896C57.128 115.923 58.7542 115.401 60.4223 115.401C61.7551 115.321 63.0914 115.478 64.3698 115.863C65.6308 116.233 66.7775 116.916 67.7029 117.849C68.6283 118.783 69.3021 119.936 69.6611 121.2C70.8199 124.664 70.8199 128.411 69.6611 131.875C69.2058 133.437 68.2797 134.82 67.0095 135.835C65.7393 136.851 64.1869 137.449 62.564 137.548H62.2281L60.2545 137.674ZM64.2439 126.916C64.2776 125.262 64.0362 123.615 63.5298 122.041C63.3596 121.557 63.0567 121.131 62.6556 120.811C62.2546 120.492 61.7717 120.292 61.2623 120.234C60.579 120.149 59.8898 120.335 59.3409 120.751C58.7921 121.167 58.4268 121.78 58.3227 122.461C57.6471 125.151 57.6471 127.966 58.3227 130.656C58.4094 131.134 58.6349 131.577 58.9708 131.928C59.3068 132.279 59.7386 132.524 60.2124 132.631C60.9251 132.826 61.6856 132.732 62.3299 132.371C62.9741 132.009 63.4505 131.408 63.6559 130.698C63.6559 130.698 63.6559 130.488 63.6559 130.404C63.9067 129.225 64.0889 128.032 64.2019 126.832L64.2439 126.916Z" fill="white"/>
<path d="M179.308 137.167H178.594H167.844V116.154H179.308V120.777H173.513V124.601H178.468V128.804H173.513V132.628H179.308V137.167Z" fill="white"/>
<path d="M162.088 137.674C161.205 137.674 160.324 137.38 159.484 137.17C157.505 136.62 155.734 135.49 154.402 133.925C153.07 132.359 152.236 130.431 152.009 128.387C151.587 125.949 151.924 123.44 152.975 121.201C153.792 119.492 155.07 118.047 156.667 117.029C158.262 116.012 160.111 115.462 162.004 115.443C163.196 115.452 164.388 115.522 165.573 115.653H166.161V120.654L164.062 120.318C163.396 120.198 162.714 120.212 162.053 120.359C161.394 120.506 160.77 120.783 160.218 121.174C159.668 121.566 159.199 122.063 158.843 122.638C158.485 123.213 158.247 123.853 158.141 124.521C157.847 126.039 157.977 127.61 158.518 129.059C158.928 130.132 159.695 131.031 160.689 131.605C161.684 132.179 162.844 132.393 163.978 132.211L166.161 131.833V136.834L163.684 137.338H162.13" fill="white"/>
<path d="M36.2773 124.731C36.2773 124.142 36.5712 123.512 36.7392 122.882C37.3417 120.81 38.5768 118.979 40.2712 117.645C41.9656 116.312 44.0343 115.542 46.1879 115.443C47.4477 115.443 48.7077 115.443 49.9675 115.695C50.4294 115.695 50.6394 115.695 50.5974 116.368C50.5974 117.839 50.5974 119.31 50.5974 120.864C47.6578 120.108 44.8862 119.94 43.2065 123.008C42.5436 124.123 42.2147 125.405 42.2594 126.701C42.3041 127.997 42.7204 129.254 43.4584 130.32C45.1802 133.01 47.6578 132.842 50.5974 132.085C50.5974 133.724 50.5974 135.279 50.5974 136.876C50.5974 136.876 50.3453 137.212 50.1774 137.254L48.1197 137.674H46.5239H45.8941C43.9357 137.531 42.0616 136.818 40.5024 135.624C38.9432 134.429 37.7666 132.805 37.1173 130.95C36.7876 129.974 36.521 128.977 36.3194 127.967L36.2773 124.731Z" fill="white"/>
<path d="M95.7822 137.086H90.4491C90.4491 137.086 90.1131 136.834 90.1131 136.708C89.8192 134.312 89.5672 131.917 89.3152 129.521C89.0633 127.126 88.8954 125.319 88.6434 122.881C88.6434 123.176 88.6433 123.302 88.4333 123.47C87.3835 127.672 86.2918 132.169 85.242 136.581C85.242 137.002 84.9898 137.128 84.5698 137.128H81.8822C81.4202 137.128 81.2103 137.128 81.0843 136.497C80.0345 132.295 78.9007 127.798 77.7669 123.428C77.7935 123.368 77.8074 123.304 77.8074 123.239C77.8074 123.173 77.7935 123.109 77.7669 123.05C77.305 127.714 76.8012 132.379 76.3393 137.044H70.9219C71.8457 129.984 72.7276 123.007 73.6095 116.031H80.3705C80.7065 116.031 80.8744 116.031 80.9165 116.452L83.0582 126.79V127.546C83.4781 125.529 83.856 123.596 84.2759 121.705C84.6958 119.814 85.1159 118.259 85.4939 116.536C85.4939 116.157 85.4937 116.031 86.0816 116.031H92.5068C92.8848 116.031 93.0107 116.031 93.0528 116.536C93.8926 122.671 94.7324 128.765 95.5302 134.858C95.5302 135.615 95.5302 136.371 95.8242 137.17" fill="white"/>
<path d="M114.302 123.132L112.916 128.806L111.026 136.706C111.021 136.788 110.999 136.867 110.962 136.939C110.925 137.012 110.873 137.076 110.81 137.127C110.747 137.179 110.673 137.216 110.595 137.238C110.517 137.259 110.435 137.264 110.354 137.253H107.582C107.12 137.253 106.994 137.253 106.868 136.706L103.593 123.721C103.546 123.498 103.461 123.284 103.341 123.09L102.963 126.746L101.955 136.874C101.935 136.956 101.893 137.03 101.834 137.089C101.775 137.148 101.7 137.19 101.619 137.211H96.4961C96.4961 136.034 96.79 134.857 96.958 133.723C97.3779 130.319 97.8398 126.873 98.2598 123.427L99.1418 116.493C99.1418 116.493 99.1416 116.114 99.4775 116.114H106.407C107.205 119.896 108.002 123.637 108.758 127.335L109.136 125.36C109.766 122.46 110.396 119.56 111.068 116.66C111.068 116.366 111.068 116.072 111.572 116.072H118.333H118.585C119.509 123.048 120.433 130.024 121.399 137.085H115.729C115.267 132.42 114.763 127.755 114.259 123.048" fill="white"/>
<path d="M148.236 127.585L152.771 137.041H152.183H147.27C147.096 137.05 146.923 137.001 146.779 136.902C146.635 136.804 146.527 136.66 146.472 136.494C145.17 133.721 143.826 130.905 142.273 128.089C142.186 127.883 142.058 127.697 141.895 127.543V136.915H136.184V115.902C139.165 115.902 142.147 115.902 145.128 116.112C146.714 116.265 148.199 116.963 149.328 118.088C150.415 119.144 151.047 120.584 151.086 122.1C151.125 123.616 150.569 125.087 149.538 126.198C149.179 126.529 148.8 126.838 148.404 127.123L147.69 127.501L148.236 127.585ZM141.517 119.895V125.022C142.265 124.937 143.008 124.81 143.742 124.643C144.175 124.545 144.56 124.298 144.829 123.944C145.097 123.591 145.233 123.154 145.212 122.71C145.277 122.208 145.167 121.699 144.899 121.27C144.63 120.841 144.222 120.518 143.742 120.357C143.011 120.159 142.267 120.004 141.517 119.895Z" fill="white"/>
<path d="M128.906 120.526V124.35H133.862V128.553H128.906V132.377H134.702V136.874H123.195V115.861H134.66V120.274H128.906" fill="white"/>
<path d="M134.402 86.9728C134.281 89.4734 133.572 91.6608 131.82 93.4183C129.934 95.3052 127.915 94.8752 127.022 92.3538C125.729 88.7011 126.559 85.3907 129.05 82.5353C130.773 80.5607 132.742 80.9323 133.659 83.3744C134.085 84.5015 134.164 85.7664 134.402 86.9728Z" fill="white"/>
<path d="M114.761 86.9904C114.64 89.491 113.931 91.6784 112.179 93.4359C110.293 95.3228 108.275 94.8928 107.382 92.3714C106.089 88.7187 106.919 85.4083 109.409 82.5529C111.132 80.5783 113.101 80.9499 114.019 83.392C114.444 84.5191 114.523 85.784 114.761 86.9904Z" fill="white"/>
</g>
<defs>
<clipPath id="clip0_5535_2442">
<rect width="216" height="206.929" fill="white"/>
</clipPath>
</defs>
</svg>
