<?xml version="1.0" encoding="utf-8"?>
<!-- Generator: Adobe Illustrator 24.0.1, SVG Export Plug-In . SVG Version: 6.00 Build 0)  -->
<svg version="1.1" id="Layer_1" xmlns="http://www.w3.org/2000/svg" xmlns:xlink="http://www.w3.org/1999/xlink" x="0px" y="0px"
	 viewBox="0 0 177.3 40.2" style="enable-background:new 0 0 177.3 40.2;" xml:space="preserve">
<style type="text/css">
	.st0{fill:#FFFFFF;}
</style>
<g>
	<path class="st0" d="M102.9,15.8h-7v0.8c2.2,0,2.5,0.5,2.5,3.2v5c0,2.8-0.4,3.3-2.5,3.3c-1.7-0.2-2.8-1.1-4.4-2.8l-1.8-2
		c2.4-0.4,3.7-2,3.7-3.7c0-2.1-1.8-3.8-5.3-3.8h-6.9v0.8c2.2,0,2.5,0.5,2.5,3.2v5c0,2.8-0.4,3.3-2.5,3.3v0.7H89v-0.7
		c-2.2,0-2.5-0.5-2.5-3.3v-1.4h0.7l4.3,5.4h11.4c5.6,0,8-3,8-6.5C110.9,18.7,108.5,15.8,102.9,15.8L102.9,15.8L102.9,15.8z
		 M86.6,22.2V17h1.6c1.8,0,2.5,1.2,2.5,2.6s-0.8,2.6-2.5,2.6L86.6,22.2L86.6,22.2L86.6,22.2z M103,27.6h-0.3c-1.4,0-1.6-0.4-1.6-2.1
		V17h1.9c4.1,0,4.8,3,4.8,5.3S107.1,27.6,103,27.6L103,27.6L103,27.6z M59.6,23.6l2.7-8c0.8-2.3,0.4-3-2.1-3v-0.8h7.3v0.8
		c-2.5,0-3,0.6-4,3.4l-4.4,13.3h-0.5l-4-12.2l-4.1,12.2H50L45.7,16c-0.9-2.8-1.6-3.4-3.8-3.4v-0.8h8.7v0.8c-2.3,0-2.9,0.5-2.1,3
		l2.6,8L55,11.9h0.7L59.6,23.6L59.6,23.6z M72.9,29.3c-4.3,0-7.8-3.2-7.8-7s3.5-7,7.8-7s7.8,3.2,7.8,7
		C80.7,26.2,77.2,29.3,72.9,29.3L72.9,29.3L72.9,29.3z M72.9,16.5c-3.6,0-4.8,3.2-4.8,5.8s1.2,5.8,4.8,5.8c3.6,0,4.9-3.2,4.9-5.8
		C77.7,19.8,76.5,16.5,72.9,16.5L72.9,16.5L72.9,16.5z"/>
	<path class="st0" d="M120.5,28v0.8h-8.9V28c2.6,0,3.1-0.7,3.1-4.6v-6.2c0-3.9-0.5-4.5-3.1-4.5v-0.8h8.1c4,0,6.2,2.1,6.2,4.8
		s-2.2,4.8-6.2,4.8h-2.2v1.9C117.5,27.4,117.9,28,120.5,28L120.5,28L120.5,28z M119.7,13.3h-2.2v6.8h2.2c2.2,0,3.2-1.5,3.2-3.4
		C122.9,14.9,121.9,13.3,119.7,13.3L119.7,13.3L119.7,13.3z M152.7,25.1l-0.2,0.7c-0.4,1.3-0.8,1.8-3.6,1.8h-0.5
		c-2,0-2.4-0.5-2.4-3.2v-1.8c3,0,3.3,0.3,3.3,2.3h0.7v-5.8h-0.7c0,2-0.2,2.3-3.3,2.3V17h2.1c2.8,0,3.2,0.5,3.6,1.8l0.2,0.7h0.6
		l-0.3-3.7h-11.5v0.8c2.2,0,2.5,0.5,2.5,3.2v5c0,2.5-0.3,3.2-2,3.3c-1.6-0.3-2.8-1.1-4.3-2.8l-1.8-2c2.4-0.4,3.7-2,3.7-3.7
		c0-2.1-1.8-3.8-5.3-3.8h-6.9v0.8c2.2,0,2.5,0.5,2.5,3.2v5c0,2.8-0.4,3.3-2.5,3.3v0.7h7.8v-0.7c-2.2,0-2.5-0.5-2.5-3.3v-1.4h0.7
		l4.3,5.4h16l0.2-3.7H152.7L152.7,25.1L152.7,25.1z M132.1,22.2V17h1.6c1.8,0,2.5,1.2,2.5,2.6s-0.8,2.6-2.5,2.6L132.1,22.2
		L132.1,22.2L132.1,22.2z M160.7,29.3c-1.6,0-2.9-0.8-3.5-1.3c-0.2,0.2-0.5,0.8-0.6,1.3h-0.7v-5.4h0.8c0.3,2.6,2.1,4.1,4.4,4.1
		c1.2,0,2.3-0.7,2.3-1.9c0-1-0.9-1.8-2.5-2.5l-2.2-1.1c-1.6-0.7-2.7-2-2.7-3.7c0-1.9,1.8-3.5,4.2-3.5c1.3,0,2.4,0.5,3,1
		c0.2-0.2,0.4-0.6,0.5-1.1h0.7v4.6h-1c-0.3-1.8-1.3-3.4-3.4-3.4c-1.1,0-2.1,0.6-2.1,1.6s0.8,1.6,2.7,2.4l2.1,1.1
		c1.9,0.9,2.6,2.3,2.6,3.5C165.4,27.6,163.3,29.3,160.7,29.3L160.7,29.3L160.7,29.3z M172.7,29.3c-1.6,0-2.9-0.8-3.5-1.3
		c-0.2,0.2-0.5,0.8-0.6,1.3h-0.7v-5.4h0.8c0.3,2.6,2.1,4.1,4.4,4.1c1.2,0,2.3-0.7,2.3-1.9c0-1-0.9-1.8-2.5-2.5l-2.2-1.1
		c-1.6-0.7-2.7-2-2.7-3.7c0-1.9,1.8-3.5,4.2-3.5c1.3,0,2.4,0.5,3,1c0.2-0.2,0.4-0.6,0.5-1.1h0.7v4.6h-1c-0.3-1.8-1.3-3.4-3.4-3.4
		c-1.1,0-2.1,0.6-2.1,1.6s0.8,1.6,2.7,2.4l2.1,1.1c1.9,0.9,2.6,2.3,2.6,3.5C177.4,27.6,175.3,29.3,172.7,29.3L172.7,29.3L172.7,29.3
		z"/>
	<g>
		<path class="st0" d="M2.9,20.1c0,6.8,4,12.7,9.7,15.5L4.4,13.1C3.4,15.2,2.9,17.6,2.9,20.1L2.9,20.1L2.9,20.1z M31.8,19.2
			c0-2.1-0.8-3.6-1.4-4.8c-0.9-1.4-1.7-2.6-1.7-4c0-1.6,1.2-3.1,2.9-3.1c0.1,0,0.1,0,0.2,0c-3.1-2.8-7.2-4.5-11.7-4.5
			c-6,0-11.3,3.1-14.4,7.8c0.4,0,0.8,0,1.1,0c1.8,0,4.6-0.2,4.6-0.2c0.9-0.1,1,1.3,0.1,1.4c0,0-0.9,0.1-2,0.2l6.3,18.7l3.8-11.3
			L16.9,12c-0.9-0.1-1.8-0.2-1.8-0.2c-0.9-0.1-0.8-1.5,0.1-1.4c0,0,2.9,0.2,4.5,0.2c1.8,0,4.6-0.2,4.6-0.2c0.9-0.1,1,1.3,0.1,1.4
			c0,0-0.9,0.1-2,0.2l6.4,18.6l1.7-5.8C31.2,22.4,31.8,20.7,31.8,19.2L31.8,19.2L31.8,19.2z M20.4,21.6l-5.2,15.1
			c1.5,0.5,3.2,0.7,4.9,0.7c2,0,3.9-0.3,5.7-1c0-0.1-0.1-0.2-0.1-0.2L20.4,21.6L20.4,21.6z M35.3,11.8c0.1,0.6,0.1,1.2,0.1,1.8
			c0,1.8-0.3,3.7-1.3,6.2L28.8,35c5.1-3,8.6-8.6,8.6-14.9C37.4,17.1,36.6,14.3,35.3,11.8L35.3,11.8L35.3,11.8z M20.1,0
			C9,0,0,9,0,20.1s9,20.1,20.1,20.1s20.1-9,20.1-20.1C40.3,9,31.2,0,20.1,0L20.1,0L20.1,0z M20.1,39.3c-10.6,0-19.2-8.6-19.2-19.2
			S9.5,0.9,20.1,0.9s19.2,8.6,19.2,19.2S30.7,39.3,20.1,39.3L20.1,39.3L20.1,39.3z"/>
	</g>
</g>
</svg>
