<svg width="263" height="31" viewBox="0 0 263 31" fill="none" xmlns="http://www.w3.org/2000/svg">
<g clip-path="url(#clip0_2625_2903)">
<path d="M22.4512 30.9819C20.3542 30.9385 18.6983 30.103 17.3144 28.661C15.9365 27.2252 14.8669 25.548 13.8455 23.8461C12.1594 21.0487 10.008 18.7341 7.30059 16.9579C5.70515 15.912 4.13389 14.8351 2.68953 13.5664C-0.670568 10.6205 -0.912301 6.10264 2.13354 2.84111C2.68953 2.24698 3.23947 1.64047 3.85589 1.11442C5.62659 -0.395667 8.23731 -0.327589 9.8388 1.232C11.6035 2.94632 11.815 5.69417 10.3041 7.61891C9.8388 8.21304 9.27072 8.72052 8.76308 9.27752C7.82636 10.2925 7.44563 11.4065 8.52739 12.5329C9.63937 13.6902 10.6849 13.226 11.6518 12.2296C15.0119 8.77004 18.3841 5.32284 21.7381 1.86327C22.9226 0.644062 24.2522 -0.179056 26.0168 0.0684979C29.5038 0.557418 31.2141 4.49353 29.1473 7.40849C27.6908 9.46319 25.763 11.0785 24.0406 12.8856C22.1974 14.8227 20.3119 16.7165 18.4566 18.6413C17.2056 19.9409 16.9881 21.2715 17.8462 22.1875C18.7044 23.1034 20.0339 22.9301 21.303 21.6243C27.4309 15.3488 33.5468 9.06091 39.6627 2.77922C40.1461 2.27792 40.6175 1.76425 41.1312 1.29389C42.9502 -0.358534 45.3011 -0.426611 47.102 1.09585C48.8667 2.58736 49.2474 5.27952 47.9481 7.32184C47.6399 7.81076 47.235 8.24398 46.8361 8.65864C40.3576 15.324 33.8671 21.9709 27.3947 28.6487C25.9926 30.0968 24.3428 30.8952 22.4452 30.988L22.4512 30.9819Z" fill="white"/>
<path d="M87.0555 22.2984C88.3246 18.3994 89.5212 14.7294 90.7178 11.0594C91.7512 7.8845 92.7725 4.70343 93.8301 1.53473C94.2229 0.365039 97.2023 -0.390002 98.1148 0.408361C98.5681 0.804448 98.3445 1.2748 98.2055 1.70802C95.2201 10.9047 92.2045 20.0889 89.2432 29.298C88.8383 30.5543 87.9983 30.6286 86.9649 30.6286C85.8771 30.6286 84.9343 30.5729 84.5173 29.2423C83.4175 25.7208 82.239 22.2179 81.0968 18.7088C80.1238 15.7258 79.1509 12.7428 78.1477 9.6669C77.2714 10.2239 77.2774 10.9975 77.0659 11.6226C75.1925 17.2978 73.3069 22.9729 71.5302 28.6791C71.0588 30.1892 70.2611 30.6409 68.7805 30.6595C67.318 30.6719 66.8164 29.954 66.4115 28.6915C63.6195 19.9899 60.7489 11.3069 57.9569 2.60541C57.7272 1.89988 56.8449 0.952981 57.9992 0.315528C59.2924 -0.390002 61.601 0.321717 61.9938 1.47284C62.8641 4.02266 63.686 6.59103 64.5199 9.15322C65.7588 12.9408 66.9856 16.7284 68.2245 20.516C68.3998 21.0482 68.6173 21.5619 68.847 22.156C69.5661 21.5557 69.6024 20.8068 69.8139 20.1694C71.7961 14.16 73.7602 8.14444 75.688 2.11649C76.0567 0.959169 76.4555 0.160806 77.8878 0.160806C79.2838 0.160806 79.7552 0.860148 80.1359 2.0546C82.0577 8.08255 84.0339 14.0981 86.004 20.1075C86.2155 20.7573 86.2941 21.4876 87.0374 22.286L87.0555 22.2984Z" fill="white"/>
<path d="M137.988 18.2137C140.653 15.4968 143.046 13.2936 145.143 10.8304C146.715 8.97994 148.606 9.25225 150.504 9.41935C151.622 9.51837 150.957 10.2425 150.601 10.6262C149.211 12.1053 147.778 13.5473 146.364 15.0079C145.27 16.1343 144.225 17.304 143.077 18.3623C142.17 19.1977 142.249 19.7919 143.089 20.6459C145.82 23.4062 148.491 26.2407 151.169 29.0628C151.501 29.4094 152.166 29.6879 151.894 30.3129C151.676 30.808 151.072 30.5543 150.637 30.6224C148.365 30.9566 146.606 30.2263 145.047 28.4006C142.974 25.9807 140.641 23.8023 138.429 21.5309C137.758 21.8651 138.012 22.3974 138.006 22.8059C137.976 24.6254 138 26.4449 137.988 28.2644C137.982 30.5234 137.825 30.6038 135.655 30.6348C134.211 30.6533 133.703 30.0159 133.758 28.6234C133.806 27.2742 133.764 25.925 133.764 24.5697C133.764 17.2297 133.758 9.8897 133.764 2.54971C133.764 0.439314 135.474 -0.581848 137.354 0.35267C138.188 0.767324 137.97 1.54093 137.97 2.20314C137.994 6.78289 137.982 11.3627 137.982 15.9424C137.982 16.5118 137.982 17.0873 137.982 18.2137H137.988Z" fill="white"/>
<path d="M154.369 15.2494C154.369 10.9605 154.43 6.67163 154.339 2.38894C154.303 0.668432 154.925 0.148568 156.545 0.179512C160.848 0.266156 165.151 0.259968 169.448 0.179512C171.037 0.154757 171.363 0.89742 171.363 2.32705C171.363 3.73192 171.091 4.54885 169.478 4.49934C166.498 4.41269 163.513 4.52409 160.534 4.45601C159.162 4.42507 158.509 4.83972 158.606 6.34981C158.702 7.87227 158.672 9.4071 158.612 10.9296C158.563 12.1488 159.071 12.6067 160.237 12.5882C162.872 12.551 165.513 12.6439 168.154 12.5572C169.804 12.5077 169.997 13.4113 169.991 14.7728C169.991 16.0911 169.732 16.9018 168.197 16.8585C165.616 16.7842 163.036 16.9018 160.455 16.8152C158.999 16.7657 158.563 17.3474 158.594 18.777C158.666 22.0633 158.551 25.3558 158.642 28.6421C158.684 30.2636 157.977 30.6349 156.569 30.6225C155.167 30.6163 154.297 30.4121 154.333 28.6235C154.43 24.1613 154.363 19.6992 154.363 15.2308L154.369 15.2494Z" fill="white"/>
<path d="M219.809 19.7733C219.876 13.6278 224.735 8.88092 230.869 8.97375C236.61 9.06039 241.354 14.1414 241.269 20.1137C241.185 26.0983 236.175 31.0927 230.367 30.9875C224.517 30.8823 219.743 25.8136 219.809 19.7733ZM230.464 13.0336C226.886 13.0708 223.792 16.289 223.798 19.9652C223.798 23.6475 226.904 26.8286 230.518 26.841C234.144 26.8596 237.214 23.7342 237.238 19.9961C237.262 16.1962 234.144 12.9903 230.464 13.0336Z" fill="white"/>
<path d="M106.639 8.96777C112.471 8.99872 117.251 13.9127 117.257 19.8787C117.263 25.9871 112.314 31.0558 106.415 30.9877C100.565 30.9197 95.7608 25.8634 95.7971 19.8292C95.8333 13.7765 100.662 8.94302 106.639 8.97396V8.96777ZM106.566 13.0339C102.91 13.0153 99.7313 16.2892 99.7857 20.0273C99.8401 23.7344 102.971 26.8845 106.566 26.8474C110.21 26.8103 113.196 23.7282 113.25 19.9406C113.305 16.3078 110.156 13.0586 106.566 13.04V13.0339Z" fill="white"/>
<path d="M243.884 19.9467C243.884 17.007 243.878 14.0672 243.89 11.1275C243.89 10.3849 243.781 9.35753 244.851 9.41941C245.957 9.4813 247.528 8.47871 248.048 10.3849C248.332 11.4246 248.742 11.0595 249.238 10.6943C250.519 9.74742 251.915 9.10378 253.511 8.98619C258.944 8.57773 262.636 11.765 262.902 17.3535C263.083 21.2278 262.92 25.1144 262.975 28.9948C262.999 30.7338 261.881 30.6039 260.763 30.6224C259.639 30.641 258.696 30.5729 258.72 28.9948C258.768 25.5847 258.744 22.1747 258.72 18.7646C258.702 15.893 257.626 14.1353 255.547 13.4855C253.215 12.7552 249.963 13.7269 248.628 15.5216C248.132 16.1838 248.102 16.9265 248.102 17.6939C248.102 21.2835 248.041 24.8668 248.12 28.4502C248.162 30.1892 247.431 30.6348 245.854 30.6534C244.186 30.672 243.811 29.9293 243.859 28.413C243.938 25.5909 243.884 22.7688 243.884 19.9467Z" fill="white"/>
<path d="M186.861 28.4502C185.223 29.9479 183.489 30.7958 181.476 30.9629C176.484 31.3775 172.611 27.9736 172.327 22.645C172.121 18.7213 172.29 14.779 172.254 10.8491C172.236 9.0481 173.487 9.39468 174.538 9.33279C175.717 9.26471 176.545 9.48132 176.521 11.0038C176.466 14.2901 176.527 17.5763 176.502 20.8688C176.484 23.2144 177.089 25.2815 179.343 26.2222C181.766 27.231 184.069 26.6802 186.081 24.9473C186.951 24.1984 187.163 23.2144 187.157 22.1066C187.139 18.5232 187.211 14.9399 187.127 11.3627C187.09 9.67936 187.791 9.29565 189.296 9.29565C190.831 9.29565 191.417 9.76601 191.393 11.4122C191.315 16.9265 191.393 22.447 191.339 27.9674C191.327 28.9391 191.943 30.3316 190.185 30.5915C188.106 30.901 187.513 30.573 186.861 28.4502Z" fill="white"/>
<path d="M201.978 8.96151C204.656 8.94913 206.801 9.62372 208.82 10.8677C210.185 11.7094 209.351 12.5015 208.886 13.337C208.421 14.1849 208.034 15.0513 206.819 14.2159C205.369 13.2133 203.731 12.6996 201.96 12.6748C201.199 12.6624 200.48 12.8172 199.809 13.1885C199.047 13.6032 198.552 14.1849 198.582 15.1318C198.606 16.0168 199.096 16.5676 199.827 16.8647C200.728 17.2298 201.664 17.5145 202.595 17.8054C203.906 18.22 205.254 18.5419 206.541 19.0246C208.65 19.8106 210.028 21.3207 210.21 23.6724C210.397 26.0675 209.508 28.0603 207.569 29.4466C204.215 31.8355 197.47 31.3033 194.455 28.4688C193.246 27.3362 194.545 26.5812 194.853 25.7086C195.18 24.7926 195.814 24.935 196.509 25.3744C198.57 26.6802 200.806 27.2743 203.235 27.0144C204.613 26.8659 205.731 26.3151 205.931 24.7864C206.124 23.2949 205.012 22.7503 203.876 22.3913C202.341 21.9086 200.776 21.5435 199.247 21.0545C195.712 19.9158 194.122 17.9168 194.34 14.9771C194.569 11.8888 196.999 9.50613 200.413 9.04197C201.036 8.95532 201.67 8.97389 201.978 8.95532V8.96151Z" fill="white"/>
<path d="M124.409 11.4309C125.998 9.82801 127.751 8.71401 130.053 8.98632C131.613 9.17199 131.854 9.69185 131.764 11.9446C131.703 13.4918 130.833 13.17 129.884 13.0833C126.615 12.7801 124.179 15.1319 124.173 18.5234C124.173 21.9272 124.107 25.3373 124.197 28.735C124.24 30.4307 123.388 30.635 122.058 30.635C120.734 30.635 119.876 30.4493 119.894 28.7474C119.961 23.1155 119.894 17.4774 119.937 11.8394C119.943 10.8368 119.465 9.48762 121.242 9.32671C123.527 9.12248 123.919 9.32671 124.403 11.4247L124.409 11.4309Z" fill="white"/>
<path d="M217.191 20.0271C217.191 22.9668 217.13 25.9065 217.215 28.8401C217.263 30.4739 216.387 30.6225 215.148 30.6286C213.879 30.6286 212.912 30.5606 212.93 28.8091C212.99 22.9359 212.99 17.0565 212.93 11.1832C212.912 9.48131 213.782 9.31421 215.1 9.31421C216.447 9.31421 217.275 9.53082 217.221 11.2204C217.118 14.1539 217.191 17.0936 217.191 20.0333V20.0271Z" fill="white"/>
<path d="M215.117 0.0124715C216.513 0.00628268 217.861 1.41115 217.836 2.84697C217.806 4.34467 216.507 5.61958 215.05 5.58245C213.642 5.54531 212.494 4.3323 212.458 2.85316C212.422 1.32451 213.642 0.0248493 215.123 0.0186604L215.117 0.0124715Z" fill="white"/>
</g>
<defs>
<clipPath id="clip0_2625_2903">
<rect width="263" height="31" fill="white"/>
</clipPath>
</defs>
</svg>
