<svg width="231" height="127" viewBox="0 0 231 127" fill="none" xmlns="http://www.w3.org/2000/svg">
<g clip-path="url(#clip0_518_1768)">
<g clip-path="url(#clip1_518_1768)">
<path d="M46.3221 101.234C48.1321 101.141 49.9355 101.201 50.2471 101.406C50.0482 101.479 49.9023 101.546 49.7498 101.585C49.12 101.725 48.8813 102.056 49.0139 102.693C49.12 103.21 49.2725 103.714 49.4183 104.217C49.7565 105.404 50.0946 106.584 50.4394 107.765C50.4659 107.864 50.5057 107.957 50.572 108.156C50.7642 107.652 50.9234 107.241 51.0758 106.823C51.5399 105.557 52.0107 104.297 52.4681 103.031C52.7068 102.368 52.3952 101.791 51.7057 101.592C51.5399 101.546 51.3742 101.493 51.2084 101.439C51.2018 101.439 51.1952 101.413 51.1554 101.34C51.2482 101.3 51.3344 101.227 51.4206 101.227C52.561 101.221 53.708 101.221 54.8483 101.227C54.9345 101.227 55.0207 101.287 55.1135 101.32C55.1135 101.353 55.1135 101.393 55.1201 101.426C54.9544 101.479 54.7886 101.539 54.6229 101.579C53.993 101.718 53.7941 101.99 53.9599 102.613C54.2582 103.687 54.5897 104.748 54.908 105.815C55.14 106.571 55.3787 107.32 55.6903 108.089C55.8097 107.758 55.9423 107.426 56.0483 107.088C56.5058 105.669 56.9832 104.251 57.4009 102.819C57.6263 102.043 57.3876 101.738 56.5986 101.585C56.4992 101.565 56.3997 101.539 56.3003 101.506C56.2605 101.493 56.2207 101.466 56.0881 101.393C56.2804 101.307 56.3666 101.234 56.4528 101.234C57.4937 101.227 58.5346 101.227 59.5755 101.234C59.6617 101.234 59.7412 101.3 59.8274 101.333C59.8274 101.367 59.8274 101.4 59.8274 101.433C59.728 101.473 59.6352 101.532 59.5357 101.552C58.9456 101.652 58.5677 102.03 58.3092 102.527C58.097 102.945 57.9246 103.382 57.7655 103.82C57.0097 105.961 56.2671 108.109 55.5179 110.251C55.4583 110.417 55.3721 110.576 55.2262 110.735C54.7223 109.568 54.4107 108.355 54.0328 107.168C53.6549 105.968 53.2903 104.761 52.8792 103.554C51.9179 105.928 51.1024 108.348 50.1675 110.722C50.1211 110.722 50.0747 110.722 50.0283 110.722C49.9554 110.529 49.8626 110.337 49.8029 110.131C49.1531 107.897 48.51 105.656 47.8669 103.415C47.8073 103.203 47.7343 102.998 47.6747 102.785C47.4824 102.069 47.078 101.585 46.3022 101.499V101.234H46.3221Z" fill="white"/>
<path d="M175.288 114.155C174.817 113.843 174.684 113.572 174.824 113.187C174.943 112.842 175.142 112.763 175.46 112.928C176.01 113.214 176.15 113.167 176.388 112.604C176.614 112.06 176.826 111.516 177.018 110.966C177.065 110.827 177.065 110.641 177.011 110.508C176.362 108.844 175.705 107.18 175.042 105.523C174.89 105.138 174.704 104.774 174.247 104.648C174.187 104.634 174.134 104.522 174.127 104.449C174.127 104.409 174.22 104.349 174.28 104.323C174.333 104.296 174.393 104.303 174.452 104.303C175.168 104.303 175.884 104.303 176.6 104.303C176.66 104.303 176.726 104.303 176.773 104.329C176.839 104.376 176.905 104.435 176.932 104.508C176.945 104.541 176.859 104.628 176.799 104.654C176.103 105.012 176.09 105.012 176.355 105.722C176.786 106.855 177.237 107.982 177.767 109.123C178.079 108.228 178.397 107.339 178.702 106.444C178.808 106.139 178.894 105.828 178.954 105.509C179.054 105.006 178.974 104.893 178.517 104.701C178.41 104.654 178.331 104.555 178.238 104.482C178.357 104.422 178.477 104.316 178.596 104.309C179.193 104.29 179.796 104.296 180.393 104.309C180.492 104.309 180.592 104.396 180.691 104.442C180.612 104.528 180.552 104.667 180.452 104.701C180.041 104.833 179.789 105.118 179.63 105.496C179.02 106.975 178.41 108.447 177.814 109.925C177.403 110.959 177.025 112.007 176.62 113.048C176.441 113.505 176.203 113.923 175.732 114.148H175.294L175.288 114.155Z" fill="white"/>
<path d="M122.687 15.7457H112.57C112.616 15.5799 112.643 15.4274 112.696 15.2882C112.928 14.6517 113.153 14.0219 113.399 13.392C113.578 12.9279 113.763 12.4638 113.717 11.9467C113.69 11.6881 113.823 11.582 114.081 11.582C115.573 11.5953 117.072 11.5953 118.563 11.6086C118.663 11.6086 118.769 11.6417 118.868 11.6417C119.16 11.6417 119.306 11.7743 119.266 12.0727C119.226 12.3776 119.352 12.5832 119.584 12.7821C120.493 13.571 121.374 14.3799 122.27 15.1821C122.429 15.328 122.574 15.4805 122.727 15.6263C122.714 15.6661 122.7 15.6993 122.687 15.7391V15.7457Z" fill="white"/>
<path d="M81.2589 66.2079C81.4446 66.2079 81.6302 66.2013 81.8159 66.2079C83.2811 66.2875 84.5739 65.8499 85.774 65.0145C87.153 64.0532 88.6514 63.3173 90.3221 62.9924C91.741 62.7139 93.0935 62.8465 94.3134 63.7084C94.9432 64.1526 95.4405 64.7294 95.8184 65.4057C95.8516 65.4654 95.8648 65.5317 95.9245 65.6842C95.6328 65.5383 95.4272 65.4256 95.2085 65.3261C93.5377 64.5703 91.92 64.5703 90.3752 65.6576C90.0967 65.8499 89.8116 66.0223 89.5199 66.2013C88.3133 66.9306 87.0536 67.5472 85.6546 67.8522C84.7463 68.0511 83.8513 68.0643 82.9761 67.7262C82.2402 67.4477 81.67 66.9704 81.2324 66.3273C81.2457 66.2941 81.2589 66.2543 81.2656 66.2212L81.2589 66.2079Z" fill="white"/>
<path d="M149.878 66.2006C149.235 67.1553 148.446 67.6791 147.438 67.8846C146.304 68.1167 145.224 67.8515 144.17 67.4802C142.976 67.0559 141.856 66.4592 140.828 65.7365C139.051 64.4834 137.261 64.5299 135.411 65.5376C135.352 65.5708 135.285 65.6039 135.166 65.6702C135.193 65.5442 135.193 65.4647 135.226 65.405C136.247 63.6348 137.931 62.6337 140.152 62.9055C142.048 63.1375 143.719 63.9464 145.264 65.0138C146.47 65.8492 147.756 66.2802 149.222 66.2072C149.407 66.2006 149.593 66.2072 149.885 66.2072L149.878 66.2006Z" fill="white"/>
<path d="M116.664 105.705C117.811 107.647 118.766 109.702 121.206 110.365C121.206 110.405 121.199 110.438 121.192 110.478C121.093 110.518 120.987 110.604 120.887 110.598C120.165 110.518 119.429 110.458 118.719 110.312C118.156 110.193 117.745 109.775 117.426 109.311C116.916 108.562 116.419 107.8 115.975 107.011C115.696 106.513 115.338 106.228 114.768 106.208C114.569 106.202 114.37 106.162 114.145 106.136C114.118 106.268 114.085 106.368 114.092 106.46C114.111 107.223 114.118 107.985 114.165 108.741C114.224 109.603 114.549 109.915 115.411 110.061C115.61 110.094 115.855 110.047 115.975 110.299C115.736 110.452 112.553 110.544 111.446 110.438C111.347 110.432 111.254 110.372 111.161 110.339C111.161 110.299 111.161 110.259 111.161 110.22C111.314 110.167 111.473 110.107 111.632 110.074C112.467 109.901 112.653 109.736 112.732 108.907C112.792 108.343 112.805 107.767 112.805 107.196C112.819 105.963 112.812 104.737 112.805 103.503C112.805 103.212 112.752 102.92 112.739 102.628C112.719 102.131 112.441 101.853 111.983 101.733C111.811 101.687 111.638 101.654 111.479 101.594C111.426 101.574 111.347 101.475 111.36 101.441C111.387 101.375 111.459 101.302 111.526 101.282C111.619 101.256 111.731 101.269 111.831 101.262C112.633 101.243 113.442 101.216 114.244 101.196C115.099 101.176 115.941 101.209 116.763 101.475C117.539 101.727 118.07 102.217 118.196 103.039C118.328 103.921 118.136 104.703 117.367 105.26C117.168 105.406 116.956 105.532 116.664 105.724V105.705ZM114.118 105.724C114.907 105.751 115.583 105.572 116.167 105.108C116.697 104.69 116.85 104.127 116.817 103.477C116.75 102.29 115.524 101.514 114.118 101.614V105.724V105.724Z" fill="white"/>
<path d="M139.116 71.6688C139.699 70.0776 139.016 68.9505 138.042 68.2477C136.49 67.1338 134.859 67.041 133.155 67.8631C133.036 67.9228 132.923 67.9825 132.738 68.0753C132.791 67.9361 132.797 67.8499 132.844 67.8035C133.925 66.5769 135.191 65.6554 136.822 65.2907C138.758 64.8531 140.429 65.9206 141.244 67.3394C141.715 68.1615 141.668 68.9902 141.198 69.7991C140.7 70.6411 139.971 71.2246 139.122 71.6688H139.116Z" fill="white"/>
<path d="M98.3369 68.0838C97.9657 67.918 97.6938 67.7788 97.4154 67.6727C95.6849 67.0031 94.107 67.2948 92.7014 68.475C91.7136 69.3037 91.4948 70.3049 91.9523 71.6972C91.8395 71.6507 91.7467 71.6242 91.6738 71.5778C90.9379 71.1137 90.2749 70.5634 89.8307 69.7943C89.3003 68.8794 89.3334 67.9711 89.9235 67.1092C90.7257 65.9489 91.8197 65.2395 93.2584 65.1931C94.1468 65.1666 94.9888 65.4517 95.7778 65.8627C96.6861 66.3401 97.4552 66.9766 98.1314 67.7457C98.1911 67.812 98.2309 67.9048 98.3369 68.0838Z" fill="white"/>
<path d="M98.3929 101.522C98.4791 101.449 98.5189 101.396 98.5653 101.382C99.0426 101.237 99.52 101.097 99.9973 100.951C100.223 100.885 100.335 100.971 100.342 101.197C100.342 101.329 100.342 101.462 100.342 101.595C100.342 104.015 100.342 106.428 100.355 108.848C100.355 109.067 100.362 109.285 100.402 109.504C100.488 110.008 100.568 110.068 101.065 110.048C101.191 110.048 101.317 110.048 101.502 110.127C101.436 110.194 101.383 110.306 101.303 110.326C100.667 110.485 100.03 110.625 99.3211 110.79C99.2879 110.399 99.2614 110.061 99.2283 109.643C99.0493 109.783 98.9299 109.875 98.8106 109.968C98.1675 110.472 97.4713 110.817 96.6227 110.658C95.4691 110.439 94.6005 109.365 94.5143 108.105C94.3552 105.725 96.3376 104.207 98.6183 104.445C98.7045 104.452 98.7907 104.479 98.8769 104.492C99.0758 104.518 99.1819 104.439 99.1819 104.227C99.1819 103.623 99.2017 103.027 99.1553 102.423C99.1421 102.238 98.9631 102.052 98.8305 101.886C98.7111 101.747 98.552 101.648 98.3929 101.515V101.522ZM99.268 107.853C99.268 107.853 99.2879 107.853 99.3012 107.853C99.2614 107.33 99.2415 106.799 99.1686 106.282C99.0824 105.705 98.8172 105.215 98.2271 105.002C97.1796 104.631 96.2448 105.108 95.9066 106.176C95.721 106.759 95.721 107.363 95.8006 107.959C95.9332 108.901 96.5962 109.643 97.4249 109.836C97.9487 109.955 98.3995 109.803 98.8238 109.498C99.2017 109.226 99.3078 108.868 99.2614 108.43C99.2415 108.244 99.2614 108.052 99.2614 107.86L99.268 107.853Z" fill="white"/>
<path d="M78.51 104.493C78.51 104.108 78.51 103.777 78.51 103.445C78.51 103.273 78.4967 103.094 78.51 102.921C78.5564 102.398 78.4171 101.967 77.9265 101.701C77.8735 101.675 77.8337 101.629 77.8005 101.582C77.7807 101.562 77.7807 101.529 77.7608 101.469C77.8337 101.423 77.9133 101.357 77.9994 101.33C78.4039 101.204 78.8083 101.078 79.2194 100.972C79.584 100.873 79.6569 100.932 79.6702 101.317C79.6768 101.509 79.6702 101.695 79.6702 101.887C79.6702 103.054 79.6702 104.228 79.6702 105.394C79.6702 106.475 79.6768 107.562 79.6835 108.643C79.6835 108.835 79.6835 109.021 79.6901 109.213C79.7166 109.943 79.8293 110.042 80.552 110.022C80.6316 110.022 80.7111 110.042 80.8371 110.062C80.7907 110.155 80.7708 110.261 80.731 110.267C80.0547 110.44 79.3785 110.606 78.6492 110.785C78.6227 110.367 78.5961 110.029 78.5696 109.611C78.3972 109.75 78.2912 109.837 78.1851 109.923C77.5353 110.44 76.8326 110.804 75.964 110.639C74.8237 110.427 73.9485 109.339 73.8491 108.139C73.6435 105.626 75.7983 104.168 77.9862 104.426C78.1387 104.446 78.2978 104.46 78.5232 104.479L78.51 104.493ZM78.5895 107.901C78.5895 107.901 78.6094 107.901 78.6227 107.901C78.5829 107.377 78.563 106.846 78.4967 106.329C78.3906 105.494 77.9265 105.017 77.1773 104.904C76.3817 104.784 75.6988 105.109 75.374 105.839C74.9563 106.78 74.9364 107.755 75.374 108.69C75.7187 109.425 76.3221 109.876 77.1773 109.863C77.6613 109.856 78.026 109.591 78.3774 109.286C78.6624 109.041 78.5829 108.729 78.5961 108.431C78.5961 108.259 78.5961 108.08 78.5961 107.907L78.5895 107.901Z" fill="white"/>
<path d="M84.1746 108.846C84.5592 107.964 84.957 107.082 85.315 106.187C85.4807 105.769 85.0432 104.947 84.6056 104.755C84.5128 104.715 84.4001 104.702 84.3205 104.649C84.2608 104.609 84.1813 104.516 84.1879 104.463C84.2012 104.404 84.3072 104.324 84.3669 104.324C85.2288 104.317 86.0907 104.317 86.9526 104.324C87.0123 104.324 87.0719 104.424 87.1316 104.477C87.0786 104.536 87.0388 104.616 86.9725 104.649C86.7802 104.762 86.4686 104.815 86.4089 104.974C86.3228 105.193 86.3758 105.498 86.462 105.736C86.8266 106.784 87.2244 107.818 87.6488 108.952C87.8079 108.587 87.9272 108.309 88.0466 108.03C88.3515 107.288 88.6565 106.539 88.9482 105.789C89.0145 105.63 89.0411 105.451 89.0742 105.279C89.1272 104.994 89.0212 104.795 88.7294 104.709C88.6565 104.689 88.577 104.682 88.5239 104.642C88.4709 104.609 88.3979 104.523 88.4112 104.483C88.4377 104.417 88.5107 104.337 88.577 104.318C88.7029 104.291 88.8355 104.298 88.9681 104.298C89.3924 104.298 89.8168 104.298 90.2345 104.298C90.3671 104.298 90.4997 104.304 90.6256 104.331C90.672 104.337 90.7383 104.404 90.7317 104.443C90.7317 104.503 90.6853 104.569 90.6455 104.622C90.619 104.649 90.566 104.656 90.5262 104.669C90.0952 104.762 89.8499 105.06 89.6775 105.431C89.3593 106.108 89.0609 106.79 88.756 107.473C88.3582 108.368 87.9604 109.27 87.5626 110.165C87.536 110.231 87.5029 110.298 87.4631 110.364C87.3173 110.596 87.1714 110.603 87.0587 110.357C86.9128 110.039 86.8001 109.701 86.6808 109.376C86.3692 108.554 86.0576 107.732 85.7393 106.916C85.7128 106.837 85.6664 106.771 85.6001 106.625C85.2818 107.341 84.9901 107.991 84.705 108.647C84.473 109.171 84.2542 109.694 84.0155 110.218C83.9559 110.338 83.8431 110.437 83.757 110.543C83.6575 110.424 83.5249 110.324 83.4719 110.192C82.8884 108.733 82.3249 107.274 81.7481 105.816C81.5492 105.305 81.3237 104.808 80.7138 104.649C80.6607 104.636 80.6011 104.543 80.6011 104.49C80.6011 104.437 80.674 104.351 80.727 104.344C80.8663 104.317 81.0188 104.311 81.1646 104.311C81.7348 104.311 82.305 104.311 82.8752 104.311C83.0078 104.311 83.1404 104.298 83.2663 104.324C83.3459 104.344 83.4188 104.43 83.4917 104.483C83.4255 104.55 83.3658 104.642 83.2862 104.676C82.7094 104.908 82.6232 105.027 82.8354 105.61C83.2332 106.698 83.6641 107.772 84.0818 108.846H84.1813H84.1746Z" fill="white"/>
<path d="M154.082 110.542V109.588C153.816 109.747 153.611 109.879 153.392 109.999C152.822 110.317 152.219 110.522 151.556 110.509C150.946 110.489 150.508 110.198 150.329 109.621C150.21 109.25 150.15 108.852 150.13 108.461C150.097 107.718 150.124 106.969 150.11 106.22C150.11 106.014 150.077 105.815 150.044 105.61C149.971 105.199 149.759 104.913 149.328 104.821C149.248 104.801 149.182 104.748 149.103 104.708C149.308 104.429 150.468 104.25 151.178 104.37C151.191 104.403 151.218 104.443 151.218 104.483C151.244 105.709 151.257 106.942 151.284 108.169C151.284 108.388 151.317 108.606 151.37 108.819C151.549 109.548 151.96 109.733 152.663 109.74C152.888 109.74 153.127 109.667 153.346 109.588C153.962 109.369 154.062 109.21 154.068 108.56C154.068 107.738 154.075 106.922 154.075 106.1C154.075 105.928 154.075 105.749 154.049 105.576C153.976 105.119 153.797 104.953 153.339 104.867C153.147 104.834 152.955 104.781 152.742 104.734C152.968 104.456 153.027 104.443 153.976 104.396C154.393 104.376 154.804 104.337 155.249 104.297C155.249 104.555 155.249 104.748 155.249 104.933C155.242 106.293 155.229 107.658 155.222 109.017C155.222 109.137 155.229 109.25 155.235 109.369C155.249 109.634 155.394 109.773 155.66 109.76C155.805 109.76 155.951 109.72 156.097 109.727C156.17 109.727 156.236 109.793 156.309 109.826C156.256 109.899 156.217 110.019 156.15 110.038C155.786 110.145 155.414 110.231 155.043 110.317C154.745 110.39 154.446 110.45 154.068 110.536L154.082 110.542Z" fill="white"/>
<path d="M161.512 105.106C162.181 104.841 162.705 104.469 163.381 104.297V105.252C163.653 105.092 163.879 104.94 164.124 104.814C164.78 104.469 165.45 104.197 166.226 104.376C166.729 104.496 167.068 104.794 167.213 105.278C167.313 105.61 167.379 105.968 167.386 106.312C167.412 107.234 167.392 108.156 167.399 109.084C167.399 109.853 167.426 109.886 168.135 110.164C168.188 110.184 168.248 110.211 168.287 110.251C168.314 110.277 168.321 110.33 168.334 110.363C168.049 110.536 165.669 110.556 165.211 110.343C165.384 110.251 165.503 110.151 165.635 110.131C166.04 110.078 166.226 109.853 166.252 109.462C166.332 108.335 166.391 107.207 166.186 106.094C166.066 105.424 165.675 105.146 164.979 105.119C164.495 105.099 164.051 105.218 163.64 105.47C163.448 105.59 163.348 105.729 163.348 105.968C163.355 107.081 163.348 108.195 163.355 109.309C163.355 109.859 163.494 109.992 164.018 110.131C164.15 110.164 164.276 110.251 164.449 110.33C164.058 110.549 161.565 110.549 161.193 110.33C161.352 110.251 161.465 110.164 161.585 110.145C162.029 110.078 162.228 109.78 162.234 109.382C162.254 108.301 162.254 107.214 162.234 106.133C162.234 105.835 162.095 105.57 161.83 105.384C161.75 105.331 161.684 105.252 161.512 105.099V105.106Z" fill="white"/>
<path d="M137.075 101.368C137.301 101.216 139.814 101.136 141.365 101.235C141.478 101.242 141.584 101.295 141.697 101.322C141.697 101.368 141.697 101.408 141.697 101.454C141.557 101.507 141.425 101.574 141.279 101.607C140.371 101.806 140.119 102.091 140.112 103.026C140.099 104.637 140.112 106.248 140.105 107.859C140.105 108.489 140.072 109.119 140.019 109.742C139.94 110.643 139.509 111.366 138.759 111.857C138.249 112.188 137.679 112.434 137.129 112.692C137.049 112.732 136.923 112.672 136.817 112.652C136.863 112.56 136.916 112.473 136.963 112.381C136.963 112.367 136.989 112.361 136.996 112.354C138.329 111.618 138.793 110.431 138.773 108.973C138.753 107.037 138.773 105.107 138.773 103.171C138.773 103.052 138.773 102.939 138.759 102.82C138.706 102.104 138.368 101.733 137.659 101.607C137.453 101.567 137.254 101.514 137.049 101.468L137.062 101.355L137.075 101.368Z" fill="white"/>
<path d="M65.004 107.652C65.0636 109.098 63.7509 110.424 62.0006 110.556C61.0061 110.629 60.0978 110.404 59.3088 109.721C58.0226 108.601 57.9629 106.094 59.6403 104.921C60.7143 104.165 62.4448 104.079 63.5586 104.755C64.5531 105.359 64.9907 106.254 65.004 107.652ZM63.731 107.48C63.731 107.48 63.6713 107.467 63.6448 107.467C63.678 106.837 63.5851 106.24 63.2669 105.69C62.8757 105.014 62.3188 104.629 61.5099 104.682C60.7409 104.735 60.2701 105.193 59.9983 105.843C59.5475 106.917 59.5541 108.017 60.0447 109.078C60.3696 109.774 60.9265 110.212 61.742 110.185C62.5509 110.159 63.1011 109.728 63.3862 109.005C63.5719 108.528 63.6249 107.991 63.7376 107.487L63.731 107.48Z" fill="white"/>
<path d="M145.541 110.59C144.135 110.543 143.061 110.106 142.465 108.892C141.589 107.102 142.465 104.961 144.493 104.444C145.693 104.139 146.84 104.285 147.802 105.113C148.77 105.955 148.982 107.076 148.677 108.276C148.372 109.482 147.517 110.165 146.343 110.477C146.051 110.556 145.74 110.563 145.548 110.59H145.541ZM147.49 107.725C147.45 106.784 147.358 106.114 146.96 105.538C146.131 104.311 144.513 104.371 143.85 105.69C143.273 106.837 143.293 108.05 143.89 109.197C144.215 109.827 144.765 110.218 145.528 110.192C146.297 110.159 146.847 109.781 147.119 109.078C147.318 108.567 147.411 108.017 147.49 107.725V107.725Z" fill="white"/>
<path d="M126.287 110.219C126.174 110.273 126.061 110.339 125.942 110.365C125.73 110.418 125.511 110.458 125.299 110.491C124.496 110.611 124.351 110.544 123.953 109.875C123.654 110.054 123.369 110.259 123.058 110.412C122.58 110.644 122.096 110.644 121.632 110.359C121.089 110.021 120.81 109.265 121.042 108.655C121.089 108.529 121.248 108.409 121.38 108.343C122.13 107.972 122.879 107.607 123.641 107.269C123.926 107.143 124.052 106.964 124.012 106.659C123.999 106.527 124.012 106.394 123.999 106.261C123.926 105.36 123.263 104.896 122.395 105.141C122.09 105.227 121.957 105.426 121.924 105.804C121.911 105.97 121.878 106.241 121.798 106.268C121.553 106.334 121.261 106.367 121.029 106.295C120.757 106.208 120.896 105.963 121.029 105.837C121.4 105.486 121.778 105.134 122.189 104.836C122.481 104.63 122.826 104.478 123.17 104.365C123.853 104.153 124.53 104.445 124.808 105.108C124.961 105.466 125.053 105.864 125.067 106.248C125.106 107.064 125.067 107.886 125.08 108.708C125.08 109.503 125.219 109.682 125.988 109.941C126.088 109.974 126.187 110.04 126.28 110.087C126.28 110.127 126.28 110.173 126.28 110.213L126.287 110.219ZM123.979 107.501C123.502 107.74 123.091 107.952 122.68 108.158C122.149 108.429 122.004 108.986 122.328 109.497C122.554 109.848 122.892 109.895 123.25 109.828C123.582 109.769 123.92 109.616 123.959 109.271C124.019 108.714 123.973 108.144 123.973 107.495L123.979 107.501Z" fill="white"/>
<path d="M105.816 106.346C105 106.346 104.178 106.346 103.362 106.346C102.945 106.346 102.931 106.346 102.892 106.783C102.746 108.248 103.561 109.349 104.616 109.594C105.292 109.753 105.922 109.641 106.459 109.157C106.505 109.117 106.538 109.057 106.585 109.037C106.677 108.998 106.784 108.978 106.883 108.951C106.87 109.07 106.896 109.216 106.83 109.296C105.948 110.41 104.735 110.88 103.409 110.37C102.262 109.926 101.506 108.533 101.665 107.207C101.765 106.385 102.063 105.649 102.686 105.079C103.515 104.323 104.47 104.105 105.537 104.469C106.306 104.734 106.697 105.325 106.837 106.1C106.876 106.326 106.784 106.432 106.558 106.432C106.306 106.432 106.061 106.432 105.809 106.432C105.809 106.405 105.809 106.379 105.809 106.352L105.816 106.346ZM103.084 105.928H105.378C105.338 105.199 104.894 104.688 104.344 104.681C103.74 104.681 103.164 105.232 103.077 105.928H103.084Z" fill="white"/>
<path d="M137.617 61.5566C137.737 61.1058 137.969 60.7146 138.293 60.3765C138.97 59.6671 139.832 59.2427 140.753 58.9842C141.536 58.7654 142.351 58.6129 143.16 58.5134C144.194 58.3875 145.003 57.8836 145.746 57.2206C145.858 57.1145 145.971 57.0084 146.084 56.9023C146.117 56.9156 146.143 56.9222 146.177 56.9355C146.177 57.0548 146.196 57.1808 146.177 57.3001C145.838 58.7786 144.705 60.2439 143.014 60.529C142.683 60.582 142.344 60.5754 142.006 60.5621C140.521 60.5157 139.122 60.7875 137.836 61.5632C137.803 61.5831 137.756 61.5898 137.717 61.603C137.703 61.603 137.69 61.5898 137.624 61.5566H137.617Z" fill="white"/>
<path d="M93.4336 61.6693C93.2347 61.5699 93.1352 61.5235 93.0358 61.4704C92.0612 60.9135 91.007 60.6417 89.8998 60.5687C89.5484 60.5489 89.197 60.5555 88.8456 60.5687C87.1947 60.6284 86.061 59.8262 85.2919 58.4339C85.1262 58.1289 85.0135 57.7908 84.9008 57.4593C84.8477 57.3001 84.8544 57.1211 84.8345 56.9554C84.861 56.9355 84.8875 56.9222 84.9207 56.9023C85.0201 56.9885 85.1262 57.0747 85.2256 57.1675C86.0677 57.9433 86.9959 58.4471 88.1826 58.54C89.681 58.6659 91.1197 59.0836 92.3529 60.0251C92.7573 60.3367 93.0689 60.7146 93.2745 61.1787C93.3275 61.3047 93.3606 61.4373 93.4336 61.6627V61.6693Z" fill="white"/>
<path d="M172.777 106.344C171.942 106.344 171.106 106.344 170.278 106.344C169.873 106.344 169.867 106.364 169.84 106.769C169.787 107.591 169.933 108.347 170.516 108.97C171.319 109.819 172.545 109.885 173.453 109.149C173.573 109.056 173.659 108.791 173.858 108.977C173.898 109.016 173.792 109.288 173.692 109.407C172.956 110.289 172.035 110.747 170.861 110.508C169.708 110.269 169.025 109.507 168.733 108.406C168.441 107.312 168.66 106.291 169.369 105.383C170.105 104.442 171.266 104.077 172.393 104.428C173.168 104.674 173.606 105.217 173.778 105.993C173.858 106.338 173.778 106.417 173.44 106.431C173.221 106.437 173.003 106.431 172.784 106.431C172.784 106.404 172.784 106.378 172.784 106.351L172.777 106.344ZM172.32 105.927C172.333 105.25 171.869 104.694 171.305 104.68C170.689 104.667 170.059 105.284 170.072 105.927H172.313H172.32Z" fill="white"/>
<path d="M148.05 62.4883C147.394 63.7016 146.412 64.1724 145.08 63.8342C144.277 63.6353 143.482 63.3436 142.719 63.0187C140.896 62.243 139.086 62.243 137.256 62.9723C137.15 63.0187 137.038 63.0585 136.931 63.0983C136.905 63.1049 136.878 63.0983 136.752 63.085C136.965 62.8464 137.124 62.6342 137.316 62.4552C138.125 61.706 139.119 61.3878 140.2 61.3215C141.692 61.2353 143.124 61.527 144.47 62.1502C145.57 62.6607 146.678 62.7933 147.844 62.495C147.897 62.4817 147.957 62.495 148.057 62.495L148.05 62.4883Z" fill="white"/>
<path d="M83.0125 62.4761C83.3307 62.5292 83.6224 62.6021 83.9208 62.6286C84.8158 62.7148 85.6579 62.5623 86.48 62.1844C87.8524 61.5479 89.311 61.2297 90.8293 61.3225C92.1354 61.4021 93.289 61.8396 94.131 62.9004C94.1575 62.9336 94.184 62.9734 94.2039 63.0065C94.2039 63.0198 94.2039 63.033 94.2172 63.0927C94.1177 63.0728 94.0249 63.0662 93.9454 63.033C93.0768 62.6485 92.1619 62.443 91.2204 62.4231C90.279 62.4032 89.3574 62.5822 88.4822 62.9469C87.806 63.2253 87.1231 63.4905 86.4269 63.7226C86.0557 63.8419 85.6579 63.9016 85.2667 63.9414C84.3783 64.0342 83.344 63.3579 83.0059 62.4761H83.0125Z" fill="white"/>
<path d="M133.31 110.418C132.912 110.643 130.353 110.656 129.922 110.451C130.081 110.364 130.18 110.285 130.3 110.245C130.877 110.06 131.003 109.92 131.022 109.31C131.042 108.74 131.036 108.17 131.036 107.6C131.036 106.108 131.022 104.616 131.036 103.118C131.036 102.581 130.963 102.097 130.519 101.739C130.479 101.706 130.459 101.639 130.419 101.566C130.492 101.507 130.545 101.44 130.618 101.407C130.996 101.255 131.38 101.109 131.765 100.976C132.07 100.87 132.156 100.937 132.183 101.261C132.189 101.394 132.183 101.527 132.183 101.659C132.183 104.119 132.183 106.579 132.176 109.038C132.176 109.158 132.176 109.271 132.176 109.39C132.203 110.026 132.256 110.093 132.872 110.252C132.992 110.285 133.098 110.338 133.303 110.411L133.31 110.418Z" fill="white"/>
<path d="M139.051 59.3976C139.641 57.2495 141.385 55.3931 143.698 55.108C143.937 55.0749 144.196 55.0947 144.434 55.1478C144.905 55.2472 145.144 55.6119 145.077 56.0892C144.998 56.7058 144.64 57.1368 144.096 57.402C143.824 57.5346 143.526 57.6407 143.228 57.6937C141.875 57.9191 140.655 58.4694 139.495 59.1656C139.349 59.2518 139.197 59.3247 139.051 59.4043V59.3976Z" fill="white"/>
<path d="M92.0467 59.4287C91.6687 59.2165 91.377 59.0574 91.0853 58.8917C90.0577 58.3082 88.9836 57.8773 87.8101 57.685C87.1736 57.5789 86.5902 57.3402 86.2189 56.77C86.0995 56.591 86.0134 56.3789 85.9736 56.1667C85.8476 55.5899 86.1128 55.159 86.7029 55.1059C87.1139 55.0661 87.5515 55.1125 87.9559 55.2186C89.6731 55.6562 90.8201 56.7966 91.629 58.3215C91.7748 58.5933 91.8809 58.8784 92.0069 59.1635C92.0268 59.2099 92.0201 59.2696 92.0467 59.4353V59.4287Z" fill="white"/>
<path d="M73.6045 110.412C73.4454 110.504 73.3924 110.564 73.3327 110.564C72.3514 110.564 71.3702 110.564 70.389 110.551C70.3492 110.551 70.3094 110.485 70.21 110.385C70.4022 110.312 70.5348 110.246 70.6741 110.206C71.1249 110.073 71.2442 109.947 71.2907 109.477C71.3304 109.086 71.3636 108.688 71.3636 108.297C71.3702 106.626 71.3636 104.962 71.3702 103.291C71.3702 102.668 71.2906 102.091 70.7868 101.66C70.7602 101.633 70.7602 101.58 70.7271 101.461C71.231 101.282 71.7282 101.09 72.2387 100.931C72.2851 100.917 72.431 101.043 72.4509 101.123C72.4907 101.262 72.4642 101.415 72.4642 101.561C72.4642 104.033 72.4642 106.507 72.4642 108.986C72.4642 109.132 72.4642 109.278 72.4708 109.424C72.5039 109.941 72.6299 110.087 73.1139 110.219C73.2531 110.259 73.3857 110.325 73.6045 110.412V110.412Z" fill="white"/>
<path d="M182.547 110.643C182.076 110.504 181.625 110.385 181.181 110.239C180.955 110.166 180.829 110 180.823 109.742C180.816 109.45 180.763 109.158 180.763 108.866C180.763 108.754 180.823 108.581 180.902 108.548C181.088 108.469 181.134 108.648 181.194 108.787C181.3 109.045 181.393 109.311 181.539 109.543C181.758 109.914 182.076 110.159 182.527 110.186C183.037 110.212 183.428 109.98 183.588 109.569C183.76 109.105 183.641 108.595 183.243 108.303C182.958 108.097 182.639 107.938 182.341 107.753C182.096 107.6 181.851 107.441 181.612 107.269C180.697 106.619 180.75 105.094 181.897 104.544C182.693 104.159 183.462 104.252 184.217 104.63C184.31 104.676 184.423 104.782 184.443 104.875C184.496 105.173 184.522 105.485 184.529 105.79C184.529 105.876 184.423 105.969 184.37 106.055C184.29 106.002 184.184 105.969 184.138 105.896C184.038 105.75 183.992 105.571 183.893 105.432C183.767 105.24 183.634 105.034 183.455 104.888C183.09 104.577 182.586 104.623 182.262 104.955C181.923 105.299 181.89 105.836 182.235 106.181C182.5 106.446 182.825 106.659 183.137 106.877C183.409 107.07 183.7 107.249 183.992 107.421C185.232 108.157 184.92 109.688 183.806 110.252C183.422 110.444 182.978 110.511 182.547 110.643Z" fill="white"/>
<path d="M145.656 54.3158C144.794 54.0639 143.945 54.1302 143.083 54.2893C141.684 54.5479 140.663 55.37 139.841 56.4573C139.351 57.1071 138.94 57.8165 138.469 58.5325C138.343 58.2607 138.396 57.969 138.416 57.6971C138.502 56.3711 138.913 55.1645 139.881 54.2164C141.094 53.0296 142.52 52.718 144.124 53.3147C144.701 53.5269 145.232 53.8319 145.656 54.3158V54.3158Z" fill="white"/>
<path d="M85.3926 54.3296C86.0556 53.6269 86.8578 53.2092 87.7926 53.0633C89.6225 52.7915 91.1673 53.8191 91.9165 55.2181C92.4403 56.1927 92.6856 57.2402 92.6193 58.3474C92.6193 58.4005 92.5928 58.4535 92.5596 58.6126C92.3673 58.2745 92.2215 58.0159 92.0756 57.7574C91.459 56.6767 90.7297 55.6755 89.6822 54.9926C88.4225 54.1771 87.0368 53.9385 85.565 54.3031C85.5119 54.3164 85.4522 54.323 85.3992 54.3296H85.3926Z" fill="white"/>
<path d="M69.0125 110.29C68.8733 110.39 68.8202 110.456 68.7605 110.456C67.766 110.463 66.7649 110.463 65.7704 110.456C65.7174 110.456 65.6577 110.383 65.5317 110.297C65.7107 110.211 65.8301 110.138 65.9561 110.091C66.208 110.012 66.3472 109.846 66.3804 109.588C66.4069 109.382 66.4467 109.183 66.4467 108.978C66.4533 108.202 66.4467 107.426 66.4467 106.644C66.4467 106.12 66.387 105.61 65.8566 105.311C65.8102 105.285 65.7903 105.218 65.7306 105.119C66.2809 104.794 66.8246 104.516 67.5008 104.297C67.5207 104.768 67.5406 105.172 67.5605 105.663C67.7263 105.457 67.8257 105.285 67.9649 105.172C68.2832 104.92 68.6014 104.655 68.9528 104.469C69.1385 104.37 69.4169 104.363 69.6357 104.403C70.0998 104.489 70.2656 104.9 70.0202 105.305C69.9341 105.45 69.7948 105.57 69.6689 105.689C69.523 105.828 69.3705 105.855 69.1981 105.716C69.1186 105.649 69.0324 105.596 68.9396 105.55C68.502 105.325 68.0578 105.431 67.8655 105.875C67.7064 106.239 67.5937 106.651 67.5605 107.048C67.5141 107.705 67.5406 108.368 67.5473 109.024C67.5605 109.787 67.7196 109.959 68.4755 110.098C68.6346 110.125 68.7804 110.198 69.0125 110.277V110.29Z" fill="white"/>
<path d="M159.9 110.337C159.609 110.522 156.95 110.542 156.532 110.324C156.665 110.237 156.751 110.145 156.857 110.125C157.242 110.038 157.394 109.76 157.401 109.422C157.421 108.354 157.414 107.28 157.401 106.213C157.401 105.901 157.262 105.61 156.963 105.444C156.864 105.384 156.751 105.344 156.671 105.245C157.248 104.781 157.825 104.575 158.475 104.297V105.596C158.475 105.596 158.534 105.616 158.561 105.623C158.767 105.404 158.939 105.159 159.178 104.98C159.463 104.761 159.781 104.575 160.112 104.443C160.285 104.376 160.523 104.403 160.709 104.463C161.127 104.595 161.246 104.973 161.007 105.338C160.915 105.484 160.775 105.603 160.649 105.722C160.504 105.862 160.351 105.881 160.185 105.736C160.099 105.663 159.993 105.603 159.887 105.557C159.483 105.371 159.111 105.444 158.899 105.828C158.74 106.113 158.607 106.452 158.588 106.77C158.548 107.632 158.541 108.494 158.588 109.356C158.621 109.886 158.813 110.012 159.337 110.111C159.536 110.151 159.781 110.105 159.907 110.35L159.9 110.337Z" fill="white"/>
<path d="M129.745 110.252C129.393 110.484 126.807 110.491 126.41 110.252C126.628 110.172 126.788 110.106 126.953 110.06C127.331 109.96 127.477 109.854 127.484 109.47C127.51 108.342 127.517 107.215 127.484 106.088C127.477 105.863 127.258 105.631 127.112 105.425C127.006 105.279 126.847 105.173 126.681 105.014C126.807 104.935 126.887 104.862 126.973 104.828C127.398 104.663 127.815 104.497 128.246 104.351C128.584 104.232 128.657 104.298 128.677 104.663C128.677 104.782 128.677 104.895 128.677 105.014C128.677 106.393 128.677 107.766 128.677 109.145C128.677 109.841 128.737 109.894 129.393 110.093C129.506 110.126 129.605 110.192 129.751 110.258L129.745 110.252Z" fill="white"/>
<path d="M90.9949 104.998C91.207 104.898 91.3396 104.825 91.4789 104.772C91.8634 104.626 92.2413 104.474 92.6325 104.341C92.9176 104.242 93.0104 104.302 93.0369 104.6C93.0502 104.732 93.0369 104.865 93.0369 104.998C93.017 106.244 92.9971 107.484 92.9839 108.73C92.9839 108.876 93.0104 109.022 93.0104 109.168C93.0104 109.698 93.1894 110.083 93.7927 110.123C93.859 110.123 93.9187 110.189 93.9784 110.229C93.9983 110.242 93.9916 110.282 93.9983 110.308C93.7198 110.501 91.1938 110.514 90.7827 110.275C90.9684 110.196 91.0943 110.129 91.2269 110.09C91.7109 109.95 91.8568 109.824 91.8634 109.334C91.8833 108.293 91.8767 107.259 91.87 106.218C91.87 105.873 91.6844 105.614 91.4258 105.395C91.2932 105.289 91.1739 105.17 90.9882 105.004L90.9949 104.998Z" fill="white"/>
<path d="M92.4353 55.2411C92.0574 54.7107 91.7657 54.2599 91.4342 53.8422C90.6651 52.8808 89.5977 52.4234 88.4308 52.1449C88.0728 52.0587 87.7148 51.9791 87.37 51.8664C86.9324 51.7272 86.7468 51.4355 86.7998 51.0509C86.8595 50.6598 87.1114 50.4609 87.5822 50.4344C88.6032 50.3813 89.4717 50.7857 90.2673 51.3626C91.4342 52.2112 92.1304 53.3648 92.4022 54.777C92.4287 54.903 92.4221 55.029 92.4353 55.2411V55.2411Z" fill="white"/>
<path d="M138.613 55.1552C138.613 55.0425 138.6 54.9364 138.613 54.8237C138.918 52.7551 140.615 50.9253 142.644 50.4877C142.956 50.4214 143.287 50.4214 143.605 50.4413C143.963 50.4678 144.169 50.6866 144.229 51.0181C144.288 51.3628 144.142 51.6678 143.798 51.7938C143.4 51.9397 142.982 52.0391 142.571 52.1386C141.457 52.4104 140.423 52.8413 139.667 53.7496C139.376 54.0944 139.13 54.479 138.872 54.8502C138.799 54.9497 138.739 55.0624 138.673 55.1685L138.606 55.1486L138.613 55.1552Z" fill="white"/>
<path d="M92.4401 53.1281C91.3328 51.1324 89.7019 49.9456 87.335 49.7269C87.4609 49.6208 87.5272 49.5346 87.6201 49.4882C88.4488 49.0705 89.3107 48.9976 90.1593 49.3954C90.935 49.76 91.6179 50.2705 92.0953 51.0064C92.513 51.6496 92.7649 52.3324 92.4467 53.1347L92.4401 53.1281Z" fill="white"/>
<path d="M138.593 53.1492C138.129 52.1547 138.725 50.8751 139.985 49.9005C141.338 48.8463 142.809 48.9723 143.685 49.7082C142.544 49.7745 141.57 50.1524 140.668 50.7359C139.746 51.3259 139.15 52.2077 138.593 53.1558V53.1492Z" fill="white"/>
<path d="M138.419 50.6871C138.446 50.4816 138.466 50.2694 138.512 50.0639C138.711 49.1755 139.069 48.3666 139.759 47.7368C140.143 47.3854 140.574 47.1069 141.111 47.0671C141.297 47.0539 141.502 47.0671 141.668 47.1334C142.192 47.3323 142.285 47.8296 141.854 48.2009C141.668 48.36 141.449 48.4992 141.224 48.592C140.156 49.0163 139.281 49.6727 138.625 50.6142C138.592 50.654 138.545 50.6871 138.506 50.7203C138.479 50.7136 138.453 50.7004 138.426 50.6937L138.419 50.6871Z" fill="white"/>
<path d="M92.5825 50.7027C92.1516 50.2585 91.8002 49.8143 91.3692 49.4761C90.9383 49.138 90.4212 48.8993 89.9438 48.6209C89.7051 48.4816 89.4465 48.3689 89.2211 48.2032C89.0156 48.0573 88.8498 47.8518 88.9228 47.5667C88.9957 47.2882 89.2079 47.0893 89.4797 47.0694C89.7913 47.0495 90.1294 47.0694 90.4212 47.1689C91.1239 47.4275 91.6146 47.9512 91.9792 48.5943C92.3107 49.1711 92.503 49.801 92.6024 50.4574C92.6157 50.5237 92.5892 50.5966 92.5825 50.7027V50.7027Z" fill="white"/>
<path d="M137.522 46.784C137.31 45.0204 138.477 42.932 139.472 42.6602C139.982 43.9862 138.954 46.2603 137.522 46.784Z" fill="white"/>
<path d="M91.5517 42.6602C92.6258 42.985 93.7462 45.1398 93.5208 46.7641C92.1948 46.3796 91.0942 44.1519 91.5517 42.6602Z" fill="white"/>
<path d="M140.445 44.7344C140.657 45.9079 139.755 48.056 138.144 48.6527C137.892 47.6184 139.178 44.9996 140.445 44.7344V44.7344Z" fill="white"/>
<path d="M90.5521 44.7344C91.6991 44.9996 92.9919 47.1742 92.9058 48.6527C91.4472 48.2151 90.4129 46.193 90.5521 44.7344Z" fill="white"/>
<path d="M94.1054 44.6528C93.1639 44.0164 92.2092 42.0141 92.554 40.3301C92.6866 40.4229 92.8125 40.4759 92.8987 40.5754C93.9131 41.7158 94.2645 43.0616 94.1717 44.5534C94.1717 44.5799 94.1385 44.5998 94.1054 44.6528Z" fill="white"/>
<path d="M138.486 40.3301C138.798 41.8616 138.002 43.8241 136.948 44.6064C136.537 43.7246 137.266 40.9069 138.486 40.3301Z" fill="white"/>
<path d="M135.608 42.3338C135.158 41.147 136.291 39.1315 137.226 38.7734C137.584 40.3315 136.749 42.3735 135.608 42.3338Z" fill="white"/>
<path d="M95.4167 42.3735C94.9195 42.3338 94.6013 42.0553 94.3559 41.7105C93.7261 40.8287 93.6598 39.821 93.7394 38.7734C94.8863 39.2574 95.788 41.2 95.4167 42.3802V42.3735Z" fill="white"/>
<path d="M135.682 37.2227C136.438 38.3696 135.782 40.1995 134.569 40.7498C134.071 40.0139 134.661 37.5873 135.682 37.2227Z" fill="white"/>
<path d="M95.3655 37.2227C96.3733 37.7597 96.917 39.868 96.486 40.7631C95.3324 40.352 94.5368 38.4094 95.3655 37.2227Z" fill="white"/>
<path d="M108.637 15.7261C108.737 15.6067 108.797 15.5272 108.87 15.4542C109.824 14.5194 110.779 13.5912 111.727 12.6497C111.84 12.537 111.893 12.358 111.933 12.1989C111.966 12.0597 111.926 11.9006 111.959 11.7613C111.979 11.6884 112.092 11.5757 112.151 11.5823C112.244 11.5956 112.383 11.6884 112.39 11.7613C112.423 12.1326 112.47 12.4973 112.158 12.8288C111.396 13.6575 110.68 14.5327 109.93 15.3747C109.519 15.8388 109.36 15.8719 108.631 15.7194L108.637 15.7261Z" fill="white"/>
<path d="M133.376 38.8703C132.992 37.5708 133.363 35.8072 134.152 35.668C134.775 36.5034 134.643 38.32 133.376 38.8703Z" fill="white"/>
<path d="M97.6732 38.8902C96.4533 38.32 96.2478 36.6757 96.871 35.668C97.2556 35.7542 97.4213 36.0591 97.5672 36.3707C97.8589 37.0205 97.8456 37.7034 97.7793 38.3929C97.7661 38.552 97.7196 38.7045 97.6799 38.8902H97.6732Z" fill="white"/>
<path d="M131.975 33.8555C132.705 34.7505 132.612 36.2158 131.816 36.713C131.286 35.8511 131.352 34.4853 131.975 33.8555Z" fill="white"/>
<path d="M99.0393 33.8555C99.6758 34.4654 99.7421 35.7914 99.2183 36.713C98.4161 36.2489 98.3167 34.7903 99.0393 33.8555Z" fill="white"/>
<path d="M100.738 35.2781C100.354 34.6482 100.99 33.2825 101.872 32.8184C102.316 33.4814 101.706 34.8007 100.738 35.2781Z" fill="white"/>
<path d="M130.3 35.2715C129.517 34.9532 128.622 33.5477 129.133 32.8184C129.988 33.2095 130.644 34.5952 130.3 35.2715Z" fill="white"/>
<path d="M128.015 102.296C127.591 102.289 127.326 102.024 127.332 101.613C127.332 101.209 127.657 100.917 128.075 100.93C128.459 100.943 128.764 101.268 128.744 101.646C128.724 102.031 128.413 102.303 128.015 102.296V102.296Z" fill="white"/>
<path d="M92.381 102.296C91.9368 102.296 91.6981 102.05 91.7047 101.613C91.7114 101.188 91.9766 100.923 92.3942 100.93C92.8119 100.93 93.0705 101.202 93.0705 101.626C93.0705 102.057 92.8252 102.296 92.381 102.296Z" fill="white"/>
<path d="M119.267 34.4238C119.367 34.4106 119.466 34.3841 119.572 34.3774C119.99 34.3443 120.368 34.6559 120.401 35.0537C120.434 35.4515 120.089 35.836 119.685 35.8493C119.261 35.8625 118.896 35.4979 118.916 35.0669C118.916 34.9542 118.949 34.8349 118.962 34.7222C119.062 34.6227 119.168 34.5233 119.267 34.4238V34.4238Z" fill="white"/>
<path d="M123.966 47.6417C123.687 48.3843 123.27 49.0009 122.786 49.5644C121.354 51.2352 119.557 52.2893 117.376 52.6673C117.018 52.7269 116.653 52.7601 116.288 52.7932C116.036 52.8197 115.904 52.7203 115.904 52.4485C115.904 51.0164 115.904 49.5777 115.904 48.1456C115.904 47.7942 116.109 47.582 116.441 47.582C118.887 47.582 121.334 47.582 123.774 47.582C123.813 47.582 123.853 47.6086 123.953 47.6351L123.966 47.6417Z" fill="white"/>
<path d="M107.536 47.6086C107.775 47.5953 107.921 47.582 108.067 47.582C110.274 47.582 112.489 47.582 114.697 47.582C115.366 47.582 115.565 47.7743 115.565 48.4307C115.565 49.7169 115.565 51.0097 115.565 52.296C115.565 52.78 115.519 52.833 115.028 52.7866C113.079 52.601 111.342 51.9114 109.837 50.6451C108.995 49.9357 108.332 49.0937 107.795 48.1456C107.709 47.9997 107.649 47.8406 107.536 47.6019V47.6086Z" fill="white"/>
<path d="M106.589 39.5548C106.987 39.5548 107.299 39.873 107.305 40.2841C107.305 40.6951 106.954 41.0532 106.556 41.0399C106.165 41.0266 105.827 40.6885 105.82 40.304C105.82 39.9062 106.178 39.5481 106.583 39.5548H106.589Z" fill="white"/>
<path d="M111.595 53.7106C111.496 53.6045 111.383 53.5051 111.304 53.3924C111.098 53.1007 111.118 52.7692 111.343 52.504C111.562 52.2454 111.914 52.1725 112.219 52.3117C112.51 52.4509 112.703 52.8023 112.643 53.1007C112.583 53.4255 112.318 53.6775 111.987 53.7106C111.854 53.7239 111.728 53.7106 111.595 53.7106Z" fill="white"/>
<path d="M108.636 49.9155C109.041 49.9486 109.339 50.2868 109.313 50.6846C109.286 51.089 108.908 51.4271 108.517 51.394C108.133 51.3608 107.808 51.0028 107.828 50.6183C107.847 50.2337 108.245 49.889 108.636 49.9155V49.9155Z" fill="white"/>
<path d="M124.928 47.0625C125.359 47.0625 125.69 47.3874 125.684 47.7984C125.677 48.1896 125.339 48.5344 124.954 48.5277C124.543 48.5277 124.185 48.1763 124.192 47.7785C124.192 47.3807 124.523 47.0625 124.928 47.0625Z" fill="white"/>
<path d="M123.482 50.9012C123.495 51.2658 123.151 51.6437 122.773 51.6636C122.395 51.6901 121.997 51.3189 121.99 50.9343C121.984 50.5498 122.355 50.1785 122.746 50.1719C123.124 50.1719 123.469 50.51 123.482 50.9012Z" fill="white"/>
<path d="M106.617 46.8128C107.028 46.8393 107.333 47.1973 107.293 47.6216C107.26 47.9929 106.869 48.3311 106.511 48.2913C106.126 48.2515 105.801 47.8868 105.821 47.5156C105.841 47.1178 106.219 46.7796 106.617 46.8061V46.8128Z" fill="white"/>
<path d="M123.563 37.4068C123.576 37.7914 123.258 38.1229 122.854 38.1428C122.423 38.1626 122.084 37.8643 122.071 37.4466C122.058 37.0488 122.363 36.7239 122.774 36.704C123.198 36.6842 123.55 36.9891 123.563 37.4068V37.4068Z" fill="white"/>
<path d="M109.48 37.1482C109.48 37.5394 109.168 37.8709 108.764 37.8841C108.333 37.8974 107.995 37.5924 107.988 37.1747C107.988 36.757 108.313 36.4388 108.744 36.4454C109.162 36.4454 109.473 36.7504 109.48 37.1548V37.1482Z" fill="white"/>
<path d="M120.31 52.9525C120.317 53.3437 119.999 53.6951 119.614 53.7083C119.216 53.7282 118.839 53.3901 118.819 52.9923C118.799 52.6409 119.157 52.263 119.528 52.2431C119.959 52.2232 120.297 52.5348 120.304 52.9525H120.31Z" fill="white"/>
<path d="M125.682 43.4375C126.067 43.4375 126.398 43.7823 126.398 44.1801C126.398 44.5978 126.1 44.916 125.689 44.9226C125.278 44.9293 124.959 44.6243 124.953 44.2132C124.946 43.7756 125.264 43.4375 125.675 43.4375H125.682Z" fill="white"/>
<path d="M116.418 53.7224C116.431 54.1136 116.1 54.4517 115.702 54.4716C115.284 54.4915 114.933 54.16 114.933 53.7423C114.933 53.3379 115.245 53.0263 115.662 53.0196C116.04 53.013 116.412 53.3578 116.425 53.729L116.418 53.7224Z" fill="white"/>
<path d="M105.778 44.65C105.394 44.6434 105.069 44.2986 105.075 43.9008C105.075 43.4632 105.394 43.1649 105.831 43.1782C106.249 43.198 106.527 43.503 106.514 43.9273C106.501 44.3251 106.163 44.65 105.778 44.6434V44.65Z" fill="white"/>
<path d="M124.18 40.6563C124.18 40.5104 124.154 40.3646 124.16 40.2187C124.18 39.8673 124.366 39.6552 124.704 39.5756C125.022 39.496 125.354 39.6485 125.519 39.9469C125.665 40.2055 125.612 40.5767 125.4 40.8022C125.181 41.0276 124.843 41.0939 124.558 40.9414C124.419 40.8685 124.299 40.7491 124.174 40.6563H124.18Z" fill="white"/>
<path d="M116.882 59.5603C116.882 59.2089 116.882 58.8575 116.882 58.5127C116.882 58.3536 116.935 58.2342 117.121 58.2077C117.678 58.1282 118.474 58.6188 118.659 59.1624C118.851 59.7525 118.659 60.336 118.122 60.6343C117.864 60.7802 117.559 60.8597 117.26 60.9327C117.015 60.9923 116.869 60.8796 116.876 60.6078C116.876 60.2564 116.876 59.905 116.876 59.5603H116.882Z" fill="white"/>
<path d="M109.308 63.2786L109.317 63.2762L109.304 63.2894C109.305 63.2858 109.307 63.2822 109.308 63.2786Z" fill="white"/>
<path fill-rule="evenodd" clip-rule="evenodd" d="M125.123 33.819C125.052 33.7908 124.981 33.7627 124.911 33.7328L124.931 33.7527L124.898 33.8256C124.93 33.8466 124.963 33.8692 124.996 33.892C125.057 33.9341 125.118 33.9769 125.183 34.0113C126.462 34.734 127.636 35.6091 128.743 36.5771C130.772 38.3539 132.443 40.4225 133.709 42.7961C136.003 47.1056 136.918 51.7201 136.586 56.5865C136.48 58.1445 136.169 59.6628 135.698 61.1479C134.77 64.085 133.232 66.6774 131.249 69.0178C130.951 69.3673 130.64 69.7037 130.311 70.0592C130.171 70.2095 130.029 70.3632 129.883 70.5228C129.818 70.4296 129.755 70.3386 129.692 70.2494C129.417 69.8565 129.166 69.4979 128.929 69.1305C128.796 68.9249 128.637 68.8189 128.385 68.8388C127.497 68.9117 126.602 68.9846 125.713 69.0509C125.476 69.0691 125.239 69.0878 125.002 69.1064C124.291 69.1624 123.58 69.2183 122.869 69.2631C122.458 69.2896 122.438 69.2498 122.425 68.8122C122.422 68.7332 122.42 68.6541 122.417 68.5751C122.408 68.2566 122.398 67.9389 122.372 67.6255C122.332 67.1348 122.365 67.0884 122.849 67.0884H127.338C127.724 67.0917 127.907 67.0998 127.993 67.0127C128.08 66.9236 128.067 66.7348 128.067 66.3392V63.0839C128.073 62.6264 128.08 62.6198 128.544 62.6198H131.402C131.833 62.6198 131.859 62.5933 131.859 62.1756V59.3645C131.859 58.602 131.859 58.5954 132.615 58.5622C132.867 58.549 133.006 58.4628 132.993 58.1976V45.5276C132.993 45.2492 133.013 44.9972 133.218 44.7585C133.47 44.4602 133.351 44.0226 133.039 43.8436C132.701 43.6513 132.29 43.7839 132.111 44.142C132.096 44.1718 132.083 44.2037 132.069 44.2356C132.028 44.3313 131.987 44.427 131.912 44.4668C131.574 44.6644 131.228 44.8452 130.879 45.0284C130.735 45.1034 130.591 45.1787 130.447 45.2558C130.255 44.6856 130.314 44.5862 130.812 44.5663C130.944 44.5596 131.083 44.5464 131.216 44.5331C131.117 44.3607 131.011 44.2745 130.891 44.195C130.7 44.0689 130.511 43.9421 130.322 43.8154C129.755 43.4357 129.19 43.0579 128.604 42.7099C128.153 42.4447 127.921 42.0999 127.788 41.596C127.278 39.6733 126.297 38.0026 124.931 36.5638C123.645 35.2113 122.133 34.2036 120.389 33.5472C120.111 33.4411 120.011 33.3085 120.031 33.0035C120.084 32.2212 119.866 31.4919 119.461 30.8289C119.275 30.5173 119.262 30.2454 119.355 29.9139C120.403 26.1149 121.437 22.3159 122.471 18.5103C122.551 18.2053 122.63 17.8937 122.723 17.5224C122.664 17.5166 122.609 17.5107 122.556 17.5051C122.372 17.4855 122.221 17.4694 122.067 17.4694H112.877C112.652 17.4694 112.566 17.5689 112.606 17.8009C112.664 18.1445 112.711 18.4882 112.758 18.8339C112.779 18.9951 112.801 19.1568 112.824 19.3192L113.66 25.1867C113.702 25.4868 113.744 25.7873 113.786 26.088C113.902 26.917 114.017 27.7476 114.144 28.5747C114.184 28.8664 114.111 29.0123 113.832 29.1515C113.585 29.2751 113.354 29.4398 113.123 29.6041C113.019 29.6778 112.916 29.7513 112.811 29.8211C112.732 29.8742 112.652 29.9206 112.573 29.967C112.561 29.9457 112.55 29.9286 112.54 29.9143C112.524 29.8884 112.513 29.8713 112.513 29.8543C112.201 28.452 111.888 27.0514 111.575 25.6508C111.261 24.2503 110.948 22.8497 110.637 21.4474C110.546 21.0473 110.456 20.6472 110.366 20.2471C110.186 19.4472 110.007 18.6472 109.821 17.8473C109.788 17.7081 109.669 17.5026 109.569 17.4893C109.364 17.4581 109.156 17.4658 108.929 17.4743C108.819 17.4784 108.703 17.4827 108.581 17.4827C108.599 17.5685 108.614 17.6451 108.628 17.7154C108.655 17.8513 108.677 17.9635 108.707 18.0727C108.959 18.9738 109.217 19.8748 109.476 20.7758L109.476 20.7778C110.345 23.8342 111.213 26.8907 112.089 29.9471C112.175 30.2587 112.188 30.5173 111.996 30.8156C111.618 31.4057 111.472 32.0753 111.485 32.7847C111.492 33.1353 111.5 33.278 111.434 33.3642C111.368 33.4509 111.227 33.4806 110.935 33.6069C107.229 35.218 104.742 37.9097 103.668 41.8347C103.595 42.1065 103.463 42.2922 103.224 42.4447C102.616 42.8212 102.017 43.2109 101.42 43.5994C101.281 43.6898 101.142 43.7801 101.003 43.8701C100.764 44.0221 100.534 44.1785 100.255 44.3684C100.193 44.4105 100.129 44.4543 100.062 44.5C100.136 44.5127 100.193 44.5244 100.24 44.5341C100.315 44.5496 100.364 44.5596 100.413 44.5596C100.908 44.5817 101.131 44.8425 101.083 45.342C101.079 45.366 101.065 45.3875 101.045 45.4197C101.031 45.441 101.015 45.4668 100.997 45.5011C100.728 45.3611 100.459 45.2255 100.192 45.0905C99.9908 44.9888 99.7903 44.8876 99.591 44.7851C99.5685 44.7734 99.5461 44.7618 99.5237 44.7503C99.242 44.6051 98.9703 44.4651 98.8352 44.1088C98.7092 43.764 98.2849 43.6845 97.9799 43.8701C97.655 44.069 97.5357 44.4933 97.7943 44.7784C98.0263 45.0304 98.0263 45.2956 98.0263 45.5873V57.6804C98.0263 58.1458 98.003 58.3596 98.0984 58.457C98.1932 58.5538 98.4055 58.5357 98.8749 58.5357C99.339 58.5357 99.3656 58.5622 99.3656 59.0396V62.0761C99.3722 62.5867 99.3921 62.6065 99.8827 62.6065H102.873C103.271 62.6065 103.47 62.8121 103.47 63.2231V66.5182C103.47 67.0619 103.476 67.0752 104 67.0752H107.872C108.303 67.0752 108.316 67.0951 108.316 67.526C108.32 67.8089 108.319 68.0918 108.318 68.3747C108.317 68.5161 108.316 68.6575 108.316 68.799C108.309 69.2498 108.296 69.2763 107.832 69.2498C106.97 69.2034 106.108 69.1371 105.246 69.0708C105.001 69.0512 104.754 69.0344 104.507 69.0177C103.921 68.9779 103.332 68.938 102.753 68.8586C102.336 68.8056 102.097 68.8984 101.898 69.2631C101.748 69.5325 101.575 69.7893 101.393 70.0595C101.311 70.1817 101.227 70.3066 101.142 70.4366C101.108 70.4062 101.075 70.3783 101.045 70.3523C100.937 70.2588 100.855 70.188 100.778 70.1051C100.705 70.0256 100.632 69.9461 100.559 69.8664C100.345 69.634 100.13 69.4007 99.9225 69.1636C97.9865 66.9359 96.4881 64.4563 95.5069 61.6717C94.4461 58.6484 94.161 55.5323 94.4726 52.3565C94.698 50.1023 95.1621 47.9012 95.9577 45.7729C97.7876 40.9131 100.897 37.1009 105.28 34.3229C105.454 34.2134 105.631 34.1113 105.813 34.006C105.929 33.9392 106.047 33.8712 106.168 33.7991C106.143 33.789 106.122 33.7789 106.105 33.7706C106.078 33.7572 106.061 33.7486 106.049 33.7527C105.923 33.7991 105.803 33.8522 105.684 33.9052C103.549 34.8931 101.666 36.2655 99.9954 37.9097C98.0396 39.8258 96.4948 42.0402 95.3876 44.553C93.6704 48.4515 92.9676 52.5157 93.3588 56.7655C93.5776 59.1523 94.2406 61.4198 95.2881 63.5745C96.5876 66.2597 98.3711 68.5802 100.592 70.5692C100.884 70.8344 100.884 70.8609 100.526 71.146C100.407 71.044 100.286 70.9425 100.165 70.8403C99.8438 70.5708 99.5178 70.2971 99.2197 69.999C98.5169 69.2896 97.6418 68.9316 96.6804 68.8255C96.2163 68.7725 95.6992 68.8122 95.255 68.9581C94.2273 69.2962 93.7698 70.1449 93.5511 71.1394C93.5074 71.3381 93.4886 71.544 93.4713 71.7336C93.4649 71.8033 93.4587 71.8708 93.4516 71.935C93.6491 71.7587 93.8446 71.588 94.0384 71.419C94.2089 71.2701 94.3779 71.1226 94.5456 70.9736C95.4936 70.1382 96.4616 70.0123 97.5821 70.5891C97.7635 70.6827 97.945 70.7919 98.1218 70.8983C98.1453 70.9124 98.1687 70.9265 98.192 70.9405C98.4622 71.1008 98.7323 71.2597 99.0042 71.4197C99.3396 71.6171 99.6777 71.8161 100.022 72.0212C99.9834 72.0766 99.9475 72.1293 99.9129 72.1801C99.8524 72.2691 99.7959 72.352 99.7368 72.4322C99.4319 72.8459 99.1262 73.2578 98.8208 73.6693C98.2696 74.412 97.7195 75.1531 97.1777 75.8997C96.4086 76.9539 95.666 78.028 95.1621 79.2412C94.8771 79.9374 94.6516 80.6468 94.7312 81.4159C94.8174 82.2181 95.2218 82.8745 95.7456 83.4712C96.402 84.2138 97.1976 84.7839 97.9998 85.3541C98.7016 85.8574 99.3987 86.3664 100.095 86.875C101.399 87.8271 102.702 88.7784 104.033 89.6902C106.4 91.3145 108.813 92.8792 111.233 94.4306C112.042 94.9478 112.911 95.4052 113.799 95.7632C115.092 96.287 116.405 96.2804 117.664 95.5842C117.881 95.4632 118.1 95.3448 118.319 95.2264C118.796 94.9685 119.274 94.7102 119.733 94.424C123.81 91.9046 127.749 89.173 131.601 86.3155C133.046 85.2414 134.465 84.1209 135.738 82.8413C136.387 82.1916 136.6 81.4159 136.189 80.554C136.064 80.2898 135.942 80.0239 135.819 79.7575C135.366 78.7737 134.91 77.7845 134.352 76.8611C133.73 75.8374 133.03 74.8554 132.332 73.875C132.026 73.4457 131.72 73.0167 131.422 72.5847C131.338 72.4672 131.256 72.347 131.171 72.2207C131.121 72.1476 131.071 72.0725 131.017 71.9946C131.12 71.9366 131.217 71.8822 131.309 71.8302C131.492 71.7277 131.659 71.6339 131.826 71.5372C131.99 71.4408 132.153 71.343 132.317 71.2452C132.759 70.98 133.2 70.7156 133.656 70.483C134.418 70.0985 135.207 70.0985 135.917 70.5891C136.284 70.8425 136.611 71.1554 136.936 71.4666C137.045 71.5707 137.153 71.6745 137.263 71.7759C137.317 71.8261 137.35 71.9014 137.383 71.976C137.397 72.0097 137.412 72.0432 137.428 72.0742C137.475 72.0411 137.528 72.0013 137.574 71.9615C137.521 71.0664 137.309 70.2244 136.659 69.5349C136.261 69.1106 135.771 68.852 135.194 68.8189C133.835 68.7327 132.661 69.1305 131.687 70.1183C131.418 70.3913 131.118 70.6319 130.821 70.8695C130.693 70.9725 130.565 71.0749 130.44 71.1792C130.115 70.9537 130.195 70.7946 130.387 70.609C130.537 70.4607 130.688 70.3132 130.838 70.1657C131.327 69.6867 131.816 69.208 132.277 68.7062C134.04 66.7702 135.393 64.569 136.368 62.1358C137.336 59.7225 137.786 57.2097 137.786 54.624C137.786 53.4173 137.634 52.204 137.481 50.9974C137.17 48.531 136.447 46.184 135.36 43.9563C134.14 41.4568 132.516 39.249 130.447 37.3727C128.902 35.9738 127.225 34.7936 125.335 33.9052C125.266 33.8754 125.194 33.8472 125.123 33.819ZM119.096 35.3671C119.148 35.3174 119.199 35.2677 119.249 35.218L119.269 35.2378C119.501 34.8732 119.514 34.8599 119.892 35.0191C123.558 36.5904 125.832 39.2888 126.529 43.2469C126.767 44.5795 126.668 45.9055 126.343 47.2116C126.277 47.4702 126.23 47.7023 126.389 47.9608C126.549 48.2194 126.416 48.5244 126.118 48.6371C125.886 48.7233 125.773 48.8758 125.673 49.0813C124.407 51.7333 122.365 53.5433 119.627 54.5776C118.679 54.9356 117.697 55.1544 116.676 55.2008C116.604 55.2008 116.531 55.2074 116.458 55.214C115.948 55.2737 115.921 55.2936 115.921 55.8041C115.921 55.8546 115.921 55.905 115.921 55.9554C115.922 56.1567 115.923 56.3571 115.907 56.5533C115.903 56.6033 115.864 56.647 115.825 56.6908C115.807 56.7111 115.789 56.7313 115.775 56.7522C115.756 56.7309 115.731 56.7103 115.706 56.6896C115.654 56.6462 115.602 56.6028 115.602 56.5533C115.587 56.3306 115.588 56.1078 115.589 55.8851C115.589 55.8294 115.589 55.7737 115.589 55.718C115.583 55.3135 115.543 55.2737 115.145 55.2207C114.956 55.1966 114.767 55.1783 114.578 55.16C114.196 55.123 113.816 55.0862 113.448 55.0019C113.045 54.9067 112.648 54.7691 112.252 54.6315C112.041 54.5584 111.83 54.4852 111.618 54.4185C110.623 54.1002 109.761 53.5499 108.953 52.9135C107.58 51.8328 106.526 50.5068 105.803 48.9089C105.737 48.7631 105.591 48.6437 105.459 48.5443C105.18 48.3321 105.127 48.1664 105.2 47.8282C105.24 47.6426 105.266 47.4238 105.22 47.2382C104.676 44.9044 104.862 42.6369 105.863 40.4557C106.785 38.4534 108.217 36.8953 110.113 35.7815C110.491 35.5591 110.89 35.3773 111.29 35.1949C111.45 35.1218 111.611 35.0486 111.77 34.9726C111.969 34.8798 112.142 34.8864 112.201 35.0787C112.124 35.109 112.044 35.1366 111.965 35.1641C111.768 35.2329 111.571 35.3013 111.406 35.4102C111.286 35.4898 111.213 35.7019 111.187 35.8677C111.14 36.2058 111.432 36.5506 111.784 36.6301C112.208 36.723 112.513 36.4578 112.758 35.7351C112.828 35.7914 112.897 35.8421 112.965 35.8921C113.024 35.9364 113.084 35.9801 113.143 36.0268C113.191 36.064 113.237 36.1055 113.291 36.1534C113.333 36.1908 113.379 36.2322 113.434 36.2788C113.27 36.34 113.11 36.3955 112.953 36.4498C112.634 36.5599 112.331 36.6648 112.042 36.8025C109.218 38.1352 107.434 40.3032 106.871 43.406C106.619 44.7851 106.771 46.1442 107.215 47.4768C107.322 47.8017 107.487 47.9078 107.819 47.9078C108.982 47.9012 110.148 47.9012 111.313 47.9012C112.478 47.9012 113.643 47.9012 114.807 47.8945C114.992 47.8945 115.198 47.8083 115.357 47.7023C115.616 47.5233 115.828 47.5365 116.073 47.7222C116.206 47.815 116.385 47.8945 116.544 47.8945C117.754 47.9012 118.962 47.9012 120.17 47.9012C121.379 47.9012 122.587 47.9012 123.797 47.9078C124.135 47.9078 124.261 47.7288 124.347 47.457C124.924 45.6602 124.957 43.8635 124.347 42.0668C124.281 41.8745 124.228 41.6756 124.175 41.4767C124.056 41.2786 123.942 41.076 123.828 40.8732C123.606 40.4785 123.384 40.0832 123.121 39.7197C122.014 38.1816 120.542 37.1208 118.745 36.5042C118.617 36.46 118.492 36.4158 118.35 36.3657C118.279 36.3406 118.204 36.3141 118.122 36.2854C118.221 36.1929 118.315 36.1053 118.406 36.0207C118.595 35.8447 118.769 35.682 118.944 35.5163C118.994 35.4666 119.045 35.4169 119.096 35.3671ZM112.214 32.8245C112.221 30.9151 113.786 29.4233 115.788 29.4299C117.538 29.3902 119.295 30.7758 119.295 32.8046C119.289 34.8599 117.711 36.2522 115.722 36.2655C113.792 36.2788 112.214 34.7074 112.214 32.8245ZM98.5037 50.9775H98.497V45.574C98.497 45.5441 98.4966 45.5142 98.4962 45.4843C98.495 45.3952 98.4937 45.3071 98.5037 45.2226C98.5368 44.9773 98.6959 44.8646 98.9015 44.9773C99.591 45.342 100.267 45.7265 100.937 46.1111C101.01 46.1575 101.056 46.2702 101.083 46.363C101.103 46.4329 101.1 46.5141 101.098 46.5924C101.097 46.6181 101.096 46.6434 101.096 46.668V56.6462C101.103 56.8384 101.016 56.9445 100.811 56.9445H98.7887C98.5501 56.9445 98.5037 56.7986 98.5037 56.5997V50.9775ZM132.436 56.4406C132.436 56.9246 132.423 56.9445 131.952 56.9445C131.811 56.9445 131.669 56.9438 131.528 56.943C131.245 56.9416 130.962 56.9401 130.679 56.9445C130.44 56.9445 130.321 56.8517 130.334 56.6064V56.3014C130.334 55.6451 130.335 54.989 130.335 54.3331C130.336 51.7093 130.337 49.088 130.321 46.4625C130.314 46.0381 130.44 45.7862 130.832 45.6138C131.094 45.5005 131.345 45.3531 131.596 45.2054C131.712 45.1372 131.828 45.0689 131.945 45.0039C132.29 44.8116 132.409 44.8779 132.436 45.2823V56.4406ZM129.347 46.4604C129.483 46.3827 129.625 46.3015 129.777 46.2171V54.0207C129.777 54.2936 129.777 54.4312 129.709 54.5005C129.639 54.571 129.498 54.571 129.214 54.571H128.292C128.067 54.5776 127.974 54.4715 127.981 54.2527C127.986 54.1025 127.993 53.9529 128 53.8037C128.017 53.4391 128.034 53.0768 128.034 52.7146L128.034 52.7092C128.04 51.0204 128.047 49.3381 128.034 47.6559C128.034 47.3045 128.126 47.0857 128.458 46.9332C128.754 46.7991 129.034 46.6393 129.347 46.4604ZM101.728 46.5433C101.718 46.5618 101.709 46.5774 101.702 46.5907C101.677 46.6351 101.666 46.6549 101.666 46.6746V54.266C101.666 54.498 101.779 54.571 101.991 54.571H102.959C103.363 54.571 103.383 54.5511 103.383 54.1466V51.7797C103.383 50.4802 103.383 49.1741 103.37 47.8746C103.37 47.7023 103.31 47.4636 103.191 47.384C102.851 47.1576 102.49 46.9604 102.117 46.7571C101.989 46.6871 101.859 46.6163 101.728 46.5433ZM109.191 63.3093L109.308 63.2786C109.472 62.838 109.635 62.3957 109.798 61.9535C109.962 61.5076 110.126 61.0618 110.292 60.6175C110.315 60.5546 110.338 60.4932 110.361 60.4319C110.385 60.3706 110.408 60.3092 110.431 60.2463C110.663 59.6562 110.537 59.3578 109.947 59.1059C109.939 59.1023 109.93 59.099 109.922 59.0956C109.882 59.08 109.839 59.0633 109.801 59.0197H111.81C111.768 59.0544 111.717 59.088 111.666 59.1225C111.539 59.2069 111.404 59.2972 111.353 59.4241C111.273 59.623 111.319 59.8882 111.379 60.107C111.593 60.8421 111.818 61.5701 112.043 62.2988C112.125 62.5625 112.206 62.8263 112.287 63.0905C112.305 63.1446 112.333 63.1956 112.365 63.256C112.38 63.2845 112.396 63.3151 112.413 63.3491C112.434 63.3239 112.454 63.3026 112.472 63.2837C112.505 63.2479 112.531 63.2203 112.539 63.19C112.712 62.6596 112.884 62.1308 113.057 61.6021C113.229 61.0734 113.401 60.5446 113.574 60.0142C113.587 60.0009 113.587 59.9877 113.587 59.9744C113.693 59.4241 113.607 59.2982 112.937 59.0197H114.847C114.197 59.2385 113.971 59.7954 113.773 60.359C113.459 61.2386 113.151 62.1242 112.843 63.0098C112.689 63.4524 112.535 63.8951 112.38 64.337C112.344 64.44 112.304 64.539 112.263 64.6402C112.251 64.6693 112.24 64.6985 112.228 64.7281H112.128L110.756 60.2927H110.643C110.101 61.7681 109.558 63.237 109.016 64.7058L109.012 64.7149H108.913C108.787 64.3039 108.661 63.8927 108.541 63.4817C108.372 62.9049 108.207 62.3281 108.041 61.7513C107.875 61.1745 107.709 60.5977 107.54 60.0208C107.421 59.6098 107.269 59.212 106.804 59.0263H108.807C108.767 59.0529 108.734 59.0727 108.701 59.086C108.217 59.2849 108.104 59.444 108.236 59.9612C108.415 60.6637 108.617 61.3616 108.818 62.0587C108.857 62.1905 108.895 62.3223 108.933 62.4541C108.986 62.6441 109.045 62.8341 109.104 63.0242C109.133 63.1192 109.162 63.2143 109.191 63.3093ZM121.161 64.6817C120.374 64.3818 119.816 63.8281 119.355 63.1568C119.143 62.8452 118.937 62.5204 118.745 62.1889C118.486 61.7446 118.453 61.6585 118.911 61.3933C119.368 61.1347 119.534 60.664 119.474 60.1402C119.408 59.6098 119.09 59.2584 118.579 59.1059C118.327 59.033 118.062 58.9866 117.804 58.9799C117.317 58.9711 116.828 58.974 116.339 58.977C116.095 58.9785 115.852 58.9799 115.609 58.9799C115.553 58.9799 115.498 58.9882 115.422 58.9995C115.381 59.0056 115.334 59.0127 115.278 59.0197C116.126 59.3379 116.179 59.4175 116.179 60.2396V63.316C116.179 64.1712 116.067 64.3171 115.264 64.569H118.016C117.935 64.5466 117.861 64.5303 117.794 64.5154C117.662 64.4862 117.555 64.4626 117.472 64.4099L117.458 64.4009C117.288 64.2898 117.079 64.1532 117.015 63.979C116.812 63.4367 116.845 62.8719 116.877 62.3105C116.884 62.1924 116.891 62.0744 116.895 61.9568C117.532 61.8839 117.969 62.043 118.241 62.6132C118.353 62.8531 118.5 63.0737 118.648 63.2946C118.728 63.4155 118.809 63.5364 118.884 63.6607C119.328 64.4033 119.998 64.7083 120.84 64.6817H121.161ZM103.688 47.9643V54.1533C103.688 54.5378 103.715 54.5577 104.079 54.5643C104.225 54.5676 104.371 54.566 104.517 54.5643C104.663 54.5627 104.809 54.561 104.955 54.5643C105.24 54.5776 105.346 54.4583 105.339 54.1732C105.326 53.5566 105.319 52.9466 105.339 52.33C105.359 51.8195 105.299 51.3554 104.975 50.9311C104.766 50.6636 104.628 50.332 104.497 50.0183L104.491 50.0029C104.316 49.5831 104.152 49.1582 103.985 48.7264C103.888 48.4748 103.79 48.2209 103.688 47.9643ZM127.613 48.511C127.628 48.4874 127.646 48.4577 127.669 48.4183L127.676 48.4117C127.676 49.0825 127.675 49.7412 127.674 50.3922C127.673 51.6715 127.671 52.9209 127.676 54.1732C127.676 54.445 127.603 54.5842 127.304 54.571C127.088 54.5621 126.875 54.5651 126.66 54.568C126.553 54.5695 126.445 54.571 126.336 54.571C126.111 54.5776 126.018 54.4715 126.018 54.2527C126.021 53.9203 126.02 53.5878 126.019 53.2553C126.018 52.8121 126.017 52.3688 126.025 51.9256C126.031 51.793 126.084 51.6339 126.164 51.5212C126.781 50.6195 127.225 49.6382 127.563 48.604C127.572 48.5781 127.586 48.555 127.613 48.511ZM123.194 63.7668C123.207 64.8342 122.816 65.6099 121.284 66.0542C121.354 66.0006 121.408 65.9546 121.455 65.9146C121.507 65.8704 121.551 65.8336 121.596 65.8022C122.193 65.3779 122.491 64.7945 122.498 64.0784C122.511 62.7325 122.511 61.3866 122.498 60.0407C122.491 59.4308 122.332 59.2783 121.51 59.0197H124.155C124.084 59.0444 124.022 59.0645 123.965 59.0829C123.884 59.1091 123.814 59.1317 123.744 59.1589C123.485 59.265 123.306 59.4507 123.26 59.7357C123.227 59.9479 123.194 60.1667 123.194 60.3855C123.194 60.7612 123.192 61.1369 123.191 61.5126C123.188 62.264 123.185 63.0154 123.194 63.7668ZM105.863 54.2461V52.2438L106.263 52.611C106.993 53.2808 107.684 53.914 108.402 54.571H106.221C105.996 54.571 105.863 54.498 105.863 54.2461ZM123.147 54.5643C123.141 54.5378 123.134 54.4848 123.134 54.4848H123.127C123.271 54.3647 123.417 54.2471 123.563 54.1296C123.828 53.9164 124.093 53.7036 124.341 53.477C124.61 53.2355 124.86 52.9784 125.11 52.7207C125.224 52.6034 125.338 52.4859 125.455 52.3698L125.554 52.3897V53.7157C125.547 54.1963 125.578 54.4064 125.488 54.4974C125.399 54.5872 125.193 54.561 124.719 54.5643H123.147ZM103.324 46.6348C103.304 46.6464 103.284 46.658 103.264 46.668L103.271 46.6614C103.17 46.6109 103.069 46.5613 102.968 46.5117C102.564 46.3136 102.162 46.1163 101.786 45.8724C101.666 45.7928 101.666 45.4812 101.673 45.2757C101.679 45.0789 101.846 45.0842 101.99 45.0887C102.011 45.0894 102.031 45.09 102.051 45.09C102.157 45.09 102.263 45.0908 102.37 45.0915C102.584 45.093 102.8 45.0945 103.012 45.09C103.264 45.0834 103.383 45.1829 103.383 45.4481V46.6017C103.363 46.6116 103.344 46.6232 103.324 46.6348ZM114.673 68.9735C114.615 68.9179 114.555 68.8609 114.502 68.799C114.575 68.7791 114.652 68.7646 114.728 68.7502C114.904 68.7168 115.075 68.6843 115.191 68.5868C115.296 68.4961 115.344 68.3401 115.398 68.1657C115.423 68.0853 115.45 68.0009 115.483 67.9172C115.521 68.0057 115.551 68.0942 115.579 68.1784C115.64 68.3593 115.695 68.5205 115.808 68.62C115.912 68.7055 116.076 68.7238 116.252 68.7433C116.335 68.7526 116.421 68.7621 116.504 68.7791C116.45 68.8351 116.388 68.8879 116.328 68.9398C116.194 69.0539 116.065 69.1641 116.033 69.2962C115.998 69.4384 116.052 69.6015 116.117 69.7994C116.149 69.8967 116.184 70.0025 116.212 70.1183C115.755 69.6808 115.324 69.4554 114.88 70.0653C114.866 70.0388 114.847 70.0056 114.827 69.9791C114.841 69.911 114.863 69.8411 114.885 69.7713C114.934 69.6169 114.983 69.4639 114.946 69.336C114.91 69.2011 114.795 69.0906 114.673 68.9735ZM128.239 46.3763C128.206 46.3564 128.173 46.3299 128.14 46.31L128.133 46.3166C128.141 46.2278 128.149 46.1386 128.157 46.0494C128.179 45.7852 128.201 45.5201 128.246 45.2624C128.259 45.1895 128.418 45.1033 128.511 45.1033C128.829 45.09 129.154 45.09 129.472 45.1033C129.572 45.1033 129.744 45.1829 129.744 45.2359C129.751 45.3619 129.724 45.5608 129.638 45.6138C129.294 45.8182 128.943 46.0038 128.59 46.1903C128.473 46.252 128.356 46.3137 128.239 46.3763ZM118.805 68.5338C119.13 68.5139 119.388 68.4343 119.454 68.1691L119.461 68.1625C119.587 68.2388 119.703 68.3085 119.815 68.3757C119.927 68.4428 120.035 68.5073 120.144 68.5736C119.925 68.7128 119.786 68.9448 119.899 69.2962C119.64 69.1106 119.401 69.0642 119.11 69.3426C119.169 68.9647 119.123 68.6995 118.805 68.5338ZM110.272 68.5404C110.597 68.5139 110.855 68.441 110.981 68.0896H110.988C111.087 68.4608 111.366 68.5006 111.744 68.5006C111.392 68.7194 111.253 68.9515 111.366 69.3029C111.107 69.1172 110.869 69.0708 110.577 69.3493C110.637 68.9714 110.59 68.7062 110.272 68.5404ZM113.54 72.0676C113.189 71.7825 112.924 71.7692 112.725 71.9946C112.665 71.7228 112.612 71.4908 112.559 71.272C112.629 71.2112 112.709 71.1449 112.794 71.0737C112.895 70.9894 113.005 70.8983 113.116 70.8012C113.196 71.0267 113.342 71.2587 113.713 71.2322C113.434 71.4311 113.395 71.683 113.54 72.0676ZM117.611 70.7932C117.582 71.0879 117.364 71.2192 117.041 71.2587C117.324 71.4029 117.305 71.6306 117.284 71.8914C117.28 71.9424 117.275 71.9946 117.273 72.0477C117.552 71.7493 117.81 71.8554 118.122 72.0145C117.963 71.6631 118.016 71.4311 118.221 71.3118C118.092 71.203 117.967 71.0969 117.838 70.9867C117.764 70.9239 117.689 70.8598 117.611 70.7932ZM113.125 39.4083C112.878 39.465 112.619 39.5244 112.453 39.8564V39.863C112.934 39.933 113.017 40.2688 113.103 40.6142C113.139 40.7597 113.175 40.9068 113.242 41.0365C113.34 40.9462 113.443 40.8623 113.543 40.7797C113.953 40.444 114.337 40.1289 114.316 39.4851C114.139 39.5604 114.009 39.4773 113.88 39.3947C113.748 39.3099 113.616 39.2255 113.434 39.3127C113.339 39.3592 113.233 39.3835 113.125 39.4083ZM116.398 42.4619C116.57 42.4155 116.69 42.3824 116.816 42.3426C116.67 41.9249 116.577 41.9315 116.173 42.3227C116.104 42.3065 116.035 42.2841 115.967 42.2619C115.812 42.2115 115.661 42.1625 115.523 42.1901C115.4 42.2099 115.287 42.2841 115.17 42.3604C115.092 42.4119 115.012 42.4643 114.926 42.5017C114.977 42.4174 115.02 42.3275 115.064 42.2379C115.218 41.9187 115.37 41.6046 115.841 41.5735C115.951 41.5643 116.058 41.4788 116.164 41.394C116.211 41.3564 116.258 41.319 116.305 41.2884L116.28 41.2073L116.251 41.1132L116.25 41.111L116.249 41.1067C116.212 40.9887 116.175 40.8708 116.126 40.7116L116.126 40.7124C115.993 40.9242 115.894 41.0831 115.768 41.2752C115.751 41.2674 115.732 41.2585 115.711 41.249C115.662 41.226 115.604 41.1991 115.543 41.1757C115.815 40.4928 116.08 40.3668 116.657 40.6188C116.647 40.6519 116.638 40.6835 116.63 40.715C116.622 40.7464 116.613 40.7779 116.604 40.8111C116.604 40.8144 116.608 40.8193 116.617 40.8276C116.621 40.8322 116.627 40.8379 116.633 40.8448L116.637 40.8485C116.641 40.8531 116.645 40.8583 116.65 40.8641C116.915 40.7889 117.185 40.7113 117.458 40.6328C117.643 40.5798 117.829 40.5264 118.016 40.4729C118.023 40.514 118.031 40.5571 118.039 40.6071L118.05 40.6696L118.062 40.7381C118.095 40.7236 118.13 40.7118 118.164 40.7002C118.239 40.6748 118.309 40.6511 118.341 40.6055C118.652 40.1547 118.984 39.9226 119.461 39.9889C119.663 40.0153 119.856 40.0997 120.05 40.1846C120.149 40.2279 120.249 40.2713 120.349 40.3072L120.376 40.3173C120.476 40.3553 120.59 40.3983 120.681 40.3801C121.012 40.3118 121.325 40.3917 121.639 40.4718C121.904 40.5393 122.168 40.6069 122.445 40.5856C122.457 40.5856 122.47 40.6014 122.485 40.6214C122.489 40.6261 122.493 40.6312 122.497 40.6363C122.5 40.6399 122.503 40.6435 122.507 40.6471C122.51 40.651 122.514 40.6548 122.517 40.6586C122.358 40.937 122.199 41.1227 121.801 41.0696C121.572 41.0361 121.324 41.1251 121.089 41.2095L121.087 41.2102C121.044 41.2257 121.001 41.2409 120.959 41.2553C120.873 41.2884 120.767 41.4542 120.774 41.5536C120.807 42.1105 120.621 42.3558 120.064 42.4487C120.056 42.4487 120.05 42.454 120.039 42.4646C120.032 42.4707 120.024 42.4787 120.011 42.4884C120.011 42.5004 120.011 42.5129 120.01 42.5258C120.009 42.5383 120.008 42.5511 120.007 42.564C120.003 42.6192 119.998 42.6778 120.011 42.7271C120.104 43.0454 119.991 43.2443 119.72 43.4233C119.627 43.4849 119.57 43.5964 119.503 43.7264C119.469 43.7921 119.433 43.8626 119.388 43.9338C119.371 43.9189 119.348 43.9013 119.322 43.8812C119.266 43.8386 119.195 43.7847 119.136 43.7216C118.818 43.3636 118.752 43.3636 118.44 43.7415C118.407 43.7879 118.374 43.8344 118.341 43.8741C118.298 43.8156 118.258 43.7543 118.218 43.6934C118.123 43.5475 118.029 43.4041 117.903 43.3106C117.766 43.2111 117.594 43.1624 117.423 43.1137C117.355 43.0942 117.286 43.0747 117.22 43.052C117.214 43.0605 117.207 43.0684 117.199 43.076L117.191 43.0843L117.187 43.0885C117.175 43.1001 117.164 43.1117 117.154 43.1249C117.24 43.2231 117.327 43.3263 117.44 43.4609L117.492 43.5227C117.366 43.6222 117.233 43.7283 117.068 43.8609C116.991 43.7347 116.922 43.62 116.855 43.5074C116.778 43.3774 116.702 43.2503 116.617 43.1117C116.57 43.5691 116.71 43.8343 117.121 44.1725C117.121 44.1811 117.123 44.1918 117.125 44.2028C117.129 44.2256 117.134 44.2497 117.121 44.2587C116.865 44.5306 116.792 44.8726 116.719 45.2146C116.672 45.4396 116.624 45.6646 116.524 45.8698C116.505 45.9069 116.492 45.9472 116.479 45.9869C116.46 46.0464 116.44 46.1045 116.405 46.1482C116.338 46.2344 116.239 46.3471 116.146 46.3471C116.06 46.3471 115.927 46.241 115.901 46.1482C115.821 45.9029 115.775 45.6377 115.735 45.3858C115.723 45.3126 115.719 45.238 115.715 45.1639C115.711 45.0769 115.706 44.9907 115.689 44.9084C115.563 44.3714 115.556 44.3647 115.012 44.2918C114.747 44.2587 114.628 44.1062 114.581 43.8675C114.515 43.5426 114.727 42.9393 114.986 42.8067C115.185 42.7006 115.41 42.5945 115.622 42.8266C115.811 43.0369 116.057 43.006 116.292 42.9764C116.346 42.9696 116.399 42.9629 116.451 42.9592C116.663 42.9459 116.657 42.7868 116.398 42.4619ZM128.107 71.4694C127.47 71.118 127.331 71.244 127.331 71.9733V71.9799C127.332 72.0122 127.333 72.0442 127.334 72.0761C127.339 72.2076 127.343 72.3358 127.364 72.4639L127.369 72.4898C127.414 72.7203 127.46 72.9566 127.536 73.1866C128.398 75.8386 129.777 78.2055 131.534 80.3536C132.032 80.9636 132.575 81.547 133.291 81.9249C134.047 82.3294 134.604 81.9647 134.564 81.1028C134.558 80.9967 134.551 80.8907 134.518 80.7978C134.481 80.6814 134.446 80.5643 134.411 80.4472C134.284 80.0307 134.158 79.6131 133.987 79.2199C133.397 77.874 132.642 76.6143 131.76 75.4408C130.991 74.4065 130.169 73.4186 129.32 72.4507C128.982 72.0661 128.557 71.7147 128.107 71.4694ZM96.0737 80.7348C96.1573 80.4156 96.2379 80.1077 96.3555 79.8092C96.9389 78.2975 97.8075 76.9384 98.7091 75.5991C99.5578 74.346 100.532 73.199 101.58 72.1051C101.925 71.7471 102.336 71.5084 102.82 71.389C103.271 71.283 103.383 71.389 103.317 71.8465C103.138 73.0465 102.74 74.1736 102.243 75.2676C101.368 77.1969 100.28 79.0003 98.8882 80.6048C98.3909 81.1816 97.8472 81.7252 97.1378 82.0435C96.74 82.2225 96.4483 82.2026 96.2627 81.9374C96.1636 81.7933 96.1074 81.6157 96.0504 81.4355C96.0234 81.3504 95.9962 81.2645 95.9643 81.1816L95.9511 81.1882C95.9952 81.0347 96.0347 80.8838 96.0736 80.7354L96.0737 80.7348ZM100.426 84.3845C100.443 84.3201 100.462 84.2393 100.483 84.1467C100.546 83.8768 100.631 83.5066 100.764 83.1513C101.461 81.2551 102.502 79.5446 103.615 77.8672C104.272 76.8727 105.001 75.9445 105.85 75.1091C106.102 74.8638 106.367 74.6317 106.745 74.5986C107.182 74.5588 107.341 74.6715 107.295 75.0958C107.235 75.6594 107.156 76.2295 106.99 76.7732C106.141 79.5114 104.855 82.0308 103.045 84.2651C102.694 84.7027 102.25 85.0939 101.785 85.4055C101.063 85.8895 100.44 85.5116 100.433 84.3845H100.426ZM117.068 87.621C117.121 89.1062 117.008 90.5316 116.617 91.9239C116.477 92.4145 116.265 92.8853 116.053 93.3494C115.967 93.5417 115.801 93.714 115.642 93.8599C115.324 94.145 114.946 94.145 114.667 93.8267C114.455 93.5748 114.243 93.2831 114.157 92.9715C113.938 92.1891 113.746 91.3869 113.633 90.5847C113.521 89.7294 113.474 88.8675 113.474 88.0056C113.474 87.0895 113.529 86.1734 113.584 85.2574L113.6 84.9823L113.616 84.7092L113.616 84.7075L113.616 84.7057C113.656 84.0092 113.695 83.3137 113.812 82.6286C113.945 81.8397 114.164 81.064 114.396 80.2949C114.482 80.0098 114.681 79.7512 114.873 79.5192C115.132 79.2076 115.337 79.1943 115.596 79.5059C115.828 79.7777 116.053 80.096 116.146 80.4341C116.371 81.2364 116.557 82.0518 116.683 82.874C116.928 84.4652 117.127 86.0564 117.054 87.6277L117.068 87.621ZM106.758 85.0147C106.413 86.0556 106.128 87.1164 106.141 88.2303V88.2369C106.141 88.2733 106.141 88.3095 106.14 88.3455C106.14 88.3731 106.139 88.4007 106.138 88.4282C106.135 88.5542 106.133 88.6792 106.141 88.8071C106.201 89.7021 106.552 89.8679 107.401 89.4834C107.527 89.4237 107.653 89.3309 107.746 89.2182C107.808 89.1413 107.871 89.0647 107.935 88.9879C108.152 88.7269 108.371 88.4626 108.535 88.1706C109.828 85.8369 110.769 83.3639 111.313 80.7516C111.472 80.0024 111.604 79.2334 111.425 78.451C111.306 77.9339 111.081 77.8145 110.67 78.146C110.318 78.4245 109.993 78.756 109.722 79.114C108.362 80.8909 107.461 82.9064 106.758 85.0147ZM128.836 85.3516C129.611 85.7958 130.175 85.4577 130.175 84.43H130.182C130.129 83.8333 129.883 83.1438 129.598 82.4675C128.776 80.5249 127.669 78.7481 126.442 77.0442C126.038 76.4872 125.6 75.9436 125.103 75.4729C124.719 75.1082 124.241 74.8297 123.77 74.5712C123.459 74.4054 123.293 74.538 123.306 74.896C123.32 75.2342 123.359 75.5723 123.439 75.8972C124.122 78.7945 125.448 81.3868 127.205 83.767C127.656 84.3836 128.166 84.967 128.836 85.3516ZM124.573 88.3097L124.572 88.3166C124.547 88.1586 124.526 87.9976 124.504 87.8349C124.456 87.4738 124.407 87.1045 124.321 86.745C123.698 84.093 122.61 81.6399 121.118 79.3658C120.834 78.9298 120.471 78.5399 120.115 78.1567L120.111 78.1525C119.965 77.9867 119.726 77.7746 119.501 77.9403C119.328 78.0597 119.182 78.3116 119.169 78.5105C119.143 79.0078 119.136 79.5116 119.216 79.9956C119.521 81.8984 120.124 83.7217 120.813 85.5118C121.225 86.5792 121.669 87.6334 122.358 88.5616C122.723 89.0522 123.154 89.4633 123.77 89.6224C124.175 89.7219 124.354 89.6158 124.44 89.2114C124.481 89.0163 124.506 88.8181 124.533 88.6083L124.533 88.6074C124.539 88.559 124.546 88.5099 124.552 88.4601C124.558 88.4129 124.565 88.3651 124.572 88.3166L124.573 88.3229V88.3097ZM111.176 43.6856L111.193 43.7022L111.18 43.7155L111.176 43.6856ZM111.552 42.9965C111.116 43.1876 111.103 43.1931 111.176 43.6856C111.162 43.6726 111.148 43.6598 111.134 43.6471L111.101 43.6168L111.078 43.5966C110.989 43.5164 110.901 43.4367 110.822 43.3442C110.764 43.2799 110.714 43.2072 110.665 43.1345C110.607 43.0496 110.549 42.9647 110.477 42.8933C110.265 42.6812 110.172 42.4491 110.166 42.1508C110.166 41.6469 109.702 41.1364 109.231 41.0966C109.094 41.0824 108.953 41.1087 108.802 41.137C108.741 41.1484 108.679 41.16 108.614 41.1695V40.8977C108.634 40.3928 108.641 40.3937 109.154 40.4644L109.171 40.4668C109.775 40.5463 110.378 40.5927 110.981 40.6259C111.141 40.6353 111.303 40.6082 111.474 40.5798C111.545 40.5681 111.617 40.556 111.691 40.5463C111.641 40.6366 111.584 40.7219 111.529 40.802C111.416 40.9689 111.319 41.1127 111.346 41.2292C111.378 41.3738 111.514 41.4968 111.675 41.6424C111.751 41.7104 111.831 41.7833 111.91 41.8657C111.958 41.6638 111.997 41.5083 112.038 41.3494L112.074 41.2059L112.102 41.0966C112.203 41.1755 112.295 41.2485 112.379 41.3154L112.38 41.3161C112.494 41.4063 112.594 41.4857 112.685 41.5541C112.598 41.6866 112.516 41.8121 112.438 41.9326C112.274 42.186 112.124 42.4167 111.963 42.6414C111.87 42.774 111.737 42.9132 111.591 42.9795L111.552 42.9965ZM112.188 47.4218L112.188 47.4146C112.279 47.2818 112.365 47.1589 112.447 47.0418C112.598 46.8257 112.735 46.6293 112.864 46.4273C112.934 46.3201 113.01 46.2167 113.086 46.1133C113.292 45.8331 113.498 45.5525 113.58 45.1941C113.62 45.0218 113.593 44.8825 113.428 44.8361C113.189 44.7698 113.05 44.6173 112.911 44.4184C112.838 44.3061 112.693 44.2366 112.554 44.1696C112.529 44.1575 112.504 44.1455 112.48 44.1333C112.294 44.0405 112.135 44.0869 112.055 44.2991C111.936 44.6306 111.87 44.9753 112.082 45.2737C112.353 45.6545 112.304 46.0479 112.252 46.4601L112.248 46.4936C112.225 46.701 112.214 46.9085 112.204 47.127L112.203 47.1283C112.199 47.2214 112.194 47.3165 112.188 47.4146L112.188 47.4152V47.4218ZM119.998 46.3672C119.759 45.9031 119.846 45.7506 120.588 45.3595C120.613 45.3802 120.637 45.4057 120.661 45.4313C120.706 45.4794 120.751 45.5278 120.807 45.5451C121.211 45.6843 121.41 46.0291 121.278 46.4004C121.218 46.5728 121.119 46.6722 120.92 46.5661C120.479 46.3328 120.463 46.3339 120.028 46.3651L119.998 46.3672ZM111.778 39.5659C111.767 39.6641 111.755 39.7623 111.744 39.8849L111.891 39.7767C112.06 39.6517 112.222 39.533 112.387 39.4142C112.384 39.3976 112.379 39.3811 112.374 39.3645C112.369 39.3479 112.364 39.3313 112.36 39.3148C112.242 39.3187 112.124 39.325 112.014 39.3308C111.939 39.3348 111.868 39.3386 111.803 39.3413C111.795 39.4222 111.787 39.4944 111.778 39.5659ZM112.009 40.3481C112.433 40.5006 112.433 40.5072 112.334 40.8984C112.221 40.7061 112.115 40.5271 112.009 40.3481ZM111.203 43.7078L111.187 43.7102L111.193 43.7036L111.203 43.7078ZM111.203 43.7078C111.217 43.7056 111.232 43.7031 111.246 43.7007C111.413 43.6726 111.581 43.6444 111.664 43.929C111.61 43.903 111.559 43.8782 111.51 43.8545C111.401 43.8011 111.302 43.7529 111.203 43.7078Z" fill="white"/>
</g>
</g>
<defs>
<clipPath id="clip0_518_1768">
<rect width="231" height="127" fill="white"/>
</clipPath>
<clipPath id="clip1_518_1768">
<rect width="138.554" height="102.904" fill="white" transform="translate(46.2119 12.1445)"/>
</clipPath>
</defs>
</svg>
