<svg width="216" height="207" viewBox="0 0 216 207" fill="none" xmlns="http://www.w3.org/2000/svg">
<g clip-path="url(#clip0_5455_7327)">
<rect width="216" height="206.929" fill="#151517"/>
<path d="M94.5227 59C93.5921 59.0083 92.6797 59.2581 91.8747 59.7251C91.0697 60.192 90.3998 60.8601 89.9305 61.6638L75.7408 86.97C75.2907 87.794 75.0547 88.7179 75.0547 89.6568C75.0547 90.5958 75.2907 91.5196 75.7408 92.3436L89.9305 117.65C90.3963 118.457 91.0654 119.127 91.8712 119.595C92.677 120.062 93.5912 120.31 94.5227 120.314H122.902C123.835 120.315 124.751 120.069 125.557 119.601C126.364 119.133 127.032 118.46 127.494 117.65L141.684 92.3436C142.115 91.5135 142.34 90.592 142.34 89.6568C142.34 88.7216 142.115 87.8001 141.684 86.97L127.494 61.6638C127.018 60.8661 126.347 60.2028 125.543 59.7368C124.74 59.2707 123.831 59.0171 122.902 59H94.5227ZM94.7982 73.8347H99.8036C99.9165 73.8306 100.028 73.8587 100.126 73.9156C100.223 73.9725 100.303 74.056 100.355 74.1562L108.666 89.3583L116.978 74.1562C117.025 74.0521 117.104 73.9651 117.203 73.9075C117.301 73.8499 117.416 73.8245 117.529 73.8347H122.397C122.488 73.8405 122.576 73.8642 122.657 73.9043C122.739 73.9445 122.811 74.0002 122.871 74.0685C122.931 74.1368 122.976 74.2162 123.005 74.3022C123.034 74.3881 123.046 74.479 123.04 74.5695L114.958 89.4502L123.04 104.331C123.086 104.407 123.114 104.493 123.122 104.582C123.13 104.671 123.119 104.76 123.088 104.844C123.057 104.928 123.008 105.003 122.944 105.066C122.88 105.128 122.803 105.175 122.718 105.203H117.851C117.733 105.203 117.618 105.168 117.52 105.103C117.422 105.038 117.345 104.945 117.3 104.836L108.988 89.6338C108.96 89.5599 108.96 89.4781 108.988 89.4042C108.988 89.4042 108.988 89.4042 108.988 89.6338L100.538 105.157C100.493 105.266 100.417 105.359 100.318 105.425C100.22 105.49 100.105 105.525 99.9873 105.525H95.0737C94.8992 105.502 94.7401 105.413 94.629 105.276C94.518 105.14 94.4635 104.966 94.4767 104.79L102.605 89.9094L94.4767 75.0288C94.4091 74.8628 94.4045 74.6779 94.4637 74.5087C94.5229 74.3395 94.6418 74.1978 94.7982 74.1102" fill="white"/>
<path d="M72.664 147.546L70.2761 143.275C69.2658 141.668 68.6688 140.611 68.0718 139.463C67.5208 140.611 67.0156 141.622 66.0513 143.321L63.8011 147.546H61L66.7402 137.81L61.2296 128.303H63.8011L66.2809 132.896C66.9698 134.136 67.5208 135.1 68.026 136.156C68.577 135.008 69.0361 134.136 69.7709 132.896L72.2966 128.303H75.0978L69.4036 137.488L75.2355 147.363L72.664 147.546Z" fill="white"/>
<path d="M85.4738 147.549V145.804C84.9941 146.444 84.3693 146.961 83.6507 147.312C82.9322 147.664 82.1406 147.839 81.341 147.825C80.8329 147.862 80.3224 147.797 79.8398 147.634C79.3572 147.471 78.9123 147.212 78.5313 146.874C78.1503 146.536 77.8409 146.124 77.6215 145.665C77.4021 145.205 77.2771 144.705 77.2539 144.196V143.875C77.2539 140.522 80.1011 138.731 85.3361 138.777V138.455C85.4276 137.713 85.2236 136.965 84.7682 136.372C84.3129 135.779 83.6427 135.389 82.9023 135.286C82.6904 135.24 82.4711 135.24 82.2593 135.286C81.0212 135.267 79.8057 135.619 78.7694 136.297L78.2184 134.643C79.5956 133.791 81.1917 133.36 82.8105 133.403C86.8974 133.403 87.9076 136.297 87.9076 139.052V144.242C87.8927 145.349 87.9694 146.455 88.1372 147.549H85.4738ZM85.1065 140.476C82.4431 140.476 79.4122 140.89 79.4122 143.599C79.3806 143.887 79.4069 144.177 79.4897 144.454C79.5725 144.731 79.7101 144.989 79.8943 145.211C80.0784 145.434 80.3054 145.618 80.5618 145.751C80.8182 145.884 81.0987 145.965 81.3868 145.988H81.7083C82.4259 146.004 83.1301 145.79 83.717 145.377C84.304 144.964 84.7426 144.373 84.9686 143.691C85.0124 143.417 85.0124 143.138 84.9686 142.865L85.1065 140.476Z" fill="white"/>
<path d="M91.3535 137.443C91.3535 136.066 91.3535 134.871 91.3535 133.723H93.4658V135.974C93.8512 135.186 94.4539 134.526 95.2025 134.07C95.9511 133.615 96.8145 133.383 97.6906 133.402C98.5414 133.402 99.37 133.674 100.056 134.178C100.741 134.682 101.248 135.391 101.502 136.203V136.203C101.849 135.502 102.352 134.89 102.972 134.412C103.816 133.734 104.873 133.376 105.956 133.402C107.747 133.402 110.548 134.596 110.548 139.418V147.547H108.161V139.694C108.161 137.03 107.196 135.468 105.268 135.468C104.607 135.501 103.973 135.734 103.448 136.136C102.923 136.538 102.533 137.09 102.329 137.719C102.284 138.146 102.284 138.577 102.329 139.005V147.502H99.9407V139.235C99.9407 137.03 99.0224 135.468 97.1396 135.468C96.4403 135.519 95.7737 135.784 95.2311 136.228C94.6885 136.672 94.2965 137.273 94.1088 137.949C94.042 138.359 94.042 138.778 94.1088 139.189V147.502H91.3535V137.443Z" fill="white"/>
<path d="M122.03 147.549V145.804C121.551 146.444 120.926 146.961 120.207 147.312C119.489 147.663 118.697 147.839 117.897 147.825C117.391 147.856 116.883 147.787 116.403 147.621C115.923 147.455 115.481 147.196 115.101 146.859C114.721 146.522 114.412 146.113 114.19 145.657C113.969 145.2 113.84 144.703 113.811 144.196V143.875C113.811 140.522 116.658 138.731 121.893 138.777V138.455C121.984 137.713 121.78 136.965 121.325 136.372C120.869 135.779 120.199 135.389 119.459 135.286C119.247 135.24 119.028 135.24 118.816 135.286C117.581 135.288 116.371 135.638 115.326 136.297L114.775 134.643C116.152 133.791 117.748 133.36 119.367 133.403C123.454 133.403 124.464 136.297 124.464 139.052V144.242C124.472 145.348 124.549 146.453 124.694 147.549H122.03ZM121.663 140.476C119 140.476 115.969 140.89 115.969 143.599C115.917 144.177 116.096 144.752 116.466 145.199C116.835 145.646 117.366 145.929 117.943 145.988H118.265C118.982 146.004 119.687 145.79 120.274 145.377C120.86 144.964 121.299 144.373 121.525 143.691C121.569 143.417 121.569 143.138 121.525 142.864L121.663 140.476Z" fill="white"/>
<path d="M128.088 138.039C128.088 136.386 128.088 135.008 128.088 133.722H130.2V136.432C130.415 135.595 130.892 134.85 131.562 134.304C132.231 133.759 133.057 133.442 133.92 133.4H134.609V135.789C134.335 135.743 134.056 135.743 133.782 135.789C132.934 135.831 132.131 136.18 131.522 136.772C130.914 137.364 130.542 138.157 130.476 139.004C130.453 139.386 130.453 139.769 130.476 140.152V147.5H128.088V138.039Z" fill="white"/>
<path d="M139.893 129.865C139.899 130.064 139.866 130.263 139.795 130.449C139.725 130.635 139.618 130.806 139.482 130.951C139.345 131.096 139.182 131.212 139 131.294C138.819 131.376 138.623 131.421 138.424 131.427C138.225 131.433 138.026 131.4 137.84 131.329C137.654 131.259 137.483 131.152 137.338 131.016C137.193 130.879 137.077 130.715 136.995 130.534C136.913 130.352 136.868 130.156 136.862 129.957C136.85 129.756 136.878 129.555 136.947 129.366C137.015 129.177 137.121 129.004 137.259 128.858C137.396 128.712 137.563 128.595 137.747 128.516C137.932 128.436 138.131 128.395 138.332 128.396V128.396C138.526 128.383 138.721 128.41 138.905 128.476C139.088 128.542 139.256 128.645 139.398 128.779C139.54 128.912 139.653 129.073 139.731 129.252C139.808 129.431 139.848 129.624 139.847 129.819V129.819L139.893 129.865ZM137.138 133.677H139.572V147.456H137.276L137.138 133.677Z" fill="white"/>
<path d="M143.658 137.446C143.658 136.068 143.658 134.874 143.658 133.726H145.816V136.022C146.261 135.201 146.927 134.52 147.739 134.057C148.55 133.595 149.475 133.368 150.409 133.404C152.245 133.404 155.001 134.552 155.001 139.283V147.55H152.567V139.558C152.567 137.354 151.786 135.471 149.444 135.471C148.699 135.501 147.982 135.766 147.397 136.228C146.811 136.69 146.387 137.325 146.184 138.043C146.117 138.438 146.117 138.842 146.184 139.237V147.504H143.75L143.658 137.446Z" fill="white"/>
</g>
<defs>
<clipPath id="clip0_5455_7327">
<rect width="216" height="206.929" fill="white"/>
</clipPath>
</defs>
</svg>
