<?xml version="1.0" encoding="utf-8"?>
<!-- Generator: Adobe Illustrator 24.0.1, SVG Export Plug-In . SVG Version: 6.00 Build 0)  -->
<svg version="1.1" id="Layer_1" xmlns="http://www.w3.org/2000/svg" xmlns:xlink="http://www.w3.org/1999/xlink" x="0px" y="0px"
	 viewBox="0 0 52.6 52.6" style="enable-background:new 0 0 52.6 52.6;" xml:space="preserve">
<style type="text/css">
	.st0{fill:none;}
	.st1{fill:#FFFFFF;}
</style>
<g>
	<rect class="st0" width="52.6" height="52.6"/>
</g>
<path class="st1" d="M20.9,9.2c-0.4,0-0.7,0.1-1,0.3c-0.3,0.2-0.6,0.4-0.7,0.7l-5.4,9.6c-0.2,0.3-0.3,0.7-0.3,1c0,0.4,0.1,0.7,0.3,1
	l5.4,9.6c0.2,0.3,0.4,0.6,0.7,0.7c0.3,0.2,0.7,0.3,1,0.3h10.8c0.4,0,0.7-0.1,1-0.3c0.3-0.2,0.6-0.4,0.7-0.7l5.4-9.6
	c0.2-0.3,0.2-0.7,0.2-1c0-0.4-0.1-0.7-0.2-1l-5.4-9.6c-0.2-0.3-0.4-0.6-0.7-0.7c-0.3-0.2-0.6-0.3-1-0.3H20.9z M21,14.8h1.9
	c0,0,0.1,0,0.1,0c0,0,0.1,0.1,0.1,0.1l3.1,5.7l3.1-5.7c0,0,0-0.1,0.1-0.1c0,0,0.1,0,0.1,0h1.8c0.1,0,0.1,0,0.2,0.1
	c0,0.1,0.1,0.1,0.1,0.2l-3.1,5.6l3.1,5.6c0,0,0,0.1,0,0.1c0,0,0,0.1,0,0.1c0,0,0,0.1-0.1,0.1c0,0-0.1,0-0.1,0.1h-1.8
	c0,0-0.1,0-0.1,0c0,0-0.1-0.1-0.1-0.1l-3.1-5.7c0,0,0,0,0-0.1c0,0,0,0.1,0,0.1l-3.2,5.9c0,0,0,0.1-0.1,0.1s-0.1,0-0.1,0h-1.9
	c-0.1,0-0.1,0-0.2-0.1c0-0.1-0.1-0.1-0.1-0.2l3.1-5.6l-3.1-5.6c0-0.1,0-0.1,0-0.2c0-0.1,0.1-0.1,0.1-0.2"/>
<path class="st1" d="M12.6,42.7L11.7,41c-0.4-0.6-0.6-1-0.8-1.4c-0.2,0.4-0.4,0.8-0.8,1.5l-0.9,1.6H8.2l2.2-3.7l-2.1-3.6h1l0.9,1.7
	c0.3,0.5,0.5,0.8,0.7,1.2c0.2-0.4,0.4-0.8,0.7-1.2l1-1.7h1.1l-2.2,3.5l2.2,3.7L12.6,42.7z"/>
<path class="st1" d="M17.5,42.7V42c-0.2,0.2-0.4,0.4-0.7,0.6s-0.6,0.2-0.9,0.2c-0.2,0-0.4,0-0.6-0.1c-0.2-0.1-0.4-0.2-0.5-0.3
	c-0.1-0.1-0.3-0.3-0.3-0.5c-0.1-0.2-0.1-0.4-0.1-0.6v-0.1c0-1.3,1.1-1.9,3-1.9v-0.1c0-0.1,0-0.3,0-0.4c0-0.1-0.1-0.3-0.2-0.4
	c-0.1-0.1-0.2-0.2-0.3-0.3c-0.1-0.1-0.3-0.1-0.4-0.1c-0.1,0-0.2,0-0.2,0c-0.5,0-0.9,0.1-1.3,0.4l-0.2-0.6c0.5-0.3,1.1-0.5,1.7-0.5
	c1.5,0,1.9,1.1,1.9,2.1v2c0,0.4,0,0.8,0.1,1.2H17.5z M17.4,40c-1,0-2.2,0.2-2.2,1.2c0,0.1,0,0.2,0,0.3c0,0.1,0.1,0.2,0.2,0.3
	c0.1,0.1,0.2,0.2,0.3,0.2c0.1,0.1,0.2,0.1,0.3,0.1h0.1c0.3,0,0.5-0.1,0.8-0.2c0.2-0.2,0.4-0.4,0.5-0.6c0-0.1,0-0.2,0-0.3L17.4,40z"
	/>
<path class="st1" d="M19.7,38.8c0-0.5,0-1,0-1.4h0.8v0.9c0.1-0.3,0.4-0.5,0.7-0.7c0.3-0.2,0.6-0.3,0.9-0.3c0.3,0,0.6,0.1,0.9,0.3
	c0.3,0.2,0.5,0.5,0.6,0.8c0.1-0.3,0.3-0.5,0.6-0.7c0.3-0.3,0.7-0.4,1.1-0.4c0.7,0,1.7,0.5,1.7,2.3v3.1h-0.9v-3c0-1-0.4-1.6-1.1-1.6
	c-0.3,0-0.5,0.1-0.7,0.2c-0.2,0.2-0.3,0.4-0.4,0.6c0,0.2,0,0.3,0,0.5v3.2H23v-3.1c0-0.8-0.3-1.4-1.1-1.4c-0.3,0-0.5,0.1-0.7,0.3
	s-0.4,0.4-0.4,0.6c0,0.2,0,0.3,0,0.5v3.1h-1V38.8z"/>
<path class="st1" d="M31.3,42.7V42c-0.2,0.2-0.4,0.4-0.7,0.6c-0.3,0.1-0.6,0.2-0.9,0.2c-0.2,0-0.4,0-0.6-0.1
	c-0.2-0.1-0.3-0.2-0.5-0.3c-0.1-0.1-0.3-0.3-0.3-0.5c-0.1-0.2-0.1-0.4-0.1-0.6v-0.1c0-1.3,1.1-1.9,3.1-1.9v-0.1c0-0.3,0-0.6-0.2-0.8
	c-0.2-0.2-0.4-0.4-0.7-0.4c-0.1,0-0.2,0-0.2,0c-0.5,0-0.9,0.1-1.3,0.4l-0.2-0.6c0.5-0.3,1.1-0.5,1.7-0.5c1.5,0,1.9,1.1,1.9,2.1v2
	c0,0.4,0,0.8,0.1,1.2H31.3z M31.2,40c-1,0-2.2,0.2-2.2,1.2c0,0.2,0,0.4,0.2,0.6c0.1,0.2,0.3,0.3,0.6,0.3h0.1c0.3,0,0.5-0.1,0.8-0.2
	c0.2-0.2,0.4-0.4,0.5-0.6c0-0.1,0-0.2,0-0.3L31.2,40z"/>
<path class="st1" d="M33.6,39.1c0-0.6,0-1.1,0-1.6h0.8v1c0.1-0.3,0.3-0.6,0.5-0.8c0.3-0.2,0.6-0.3,0.9-0.3h0.3v0.9h-0.3
	c-0.3,0-0.6,0.1-0.9,0.4c-0.2,0.2-0.4,0.5-0.4,0.8c0,0.1,0,0.3,0,0.4v2.8h-0.9V39.1z"/>
<path class="st1" d="M38.1,36c0,0.1,0,0.2,0,0.2c0,0.1-0.1,0.1-0.1,0.2c-0.1,0.1-0.1,0.1-0.2,0.1c-0.1,0-0.1,0-0.2,0.1
	c-0.1,0-0.2,0-0.2,0c-0.1,0-0.1-0.1-0.2-0.1c-0.1-0.1-0.1-0.1-0.1-0.2c0-0.1,0-0.1-0.1-0.2c0-0.1,0-0.1,0-0.2c0-0.1,0.1-0.1,0.1-0.2
	c0.1-0.1,0.1-0.1,0.2-0.1c0.1,0,0.1,0,0.2-0.1c0.1,0,0.1,0,0.2,0c0.1,0,0.1,0.1,0.2,0.1s0.1,0.1,0.1,0.2
	C38.1,35.8,38.1,35.9,38.1,36 M37,37.4H38v5.2h-0.9L37,37.4z"/>
<path class="st1" d="M39.5,38.8c0-0.5,0-1,0-1.4h0.8v0.9c0.2-0.3,0.4-0.6,0.7-0.7c0.3-0.2,0.7-0.3,1-0.2c0.7,0,1.7,0.4,1.7,2.2v3.1
	h-0.9v-3c0-0.8-0.3-1.5-1.2-1.5c-0.3,0-0.6,0.1-0.8,0.3c-0.2,0.2-0.4,0.4-0.5,0.7c0,0.1,0,0.3,0,0.5v3.1h-0.9L39.5,38.8z"/>
</svg>
