<svg width="231" height="127" viewBox="0 0 231 127" fill="none" xmlns="http://www.w3.org/2000/svg">
<g clip-path="url(#clip0_475_2978)">
<path d="M121.331 35.3288C123.075 35.7705 124.804 36.2615 126.451 36.9969C134.94 40.7925 140.52 47.144 143.208 56.0469C143.331 56.4527 143.233 56.5244 142.834 56.5222C139.818 56.5065 136.803 56.5199 133.787 56.5065C133.404 56.5065 133.26 56.5782 133.263 57.0064C133.281 61.6204 133.281 66.2366 133.263 70.8506C133.263 71.29 133.413 71.3438 133.79 71.3416C136.821 71.3281 139.85 71.3416 142.881 71.3259C143.262 71.3259 143.336 71.3976 143.233 71.7832C140.372 82.399 131.258 90.7929 120.481 92.7591C116.571 93.472 112.681 93.4294 108.796 92.6313C107.957 92.8443 107.204 92.4744 106.444 92.2457C102.884 91.1785 99.6305 89.497 96.7203 87.1878C92.9089 84.1656 89.9764 80.444 87.9922 75.9869C86.7233 73.1396 85.9543 70.1645 85.5799 67.0751C85.4386 65.907 85.6135 64.7457 85.5619 63.5844C85.3691 59.3067 86.4677 55.3115 88.2232 51.462C89.3868 48.9129 90.9225 46.6037 92.7722 44.4985C96.2293 40.5638 100.444 37.7546 105.374 36.0261C107.78 35.1831 110.262 34.6988 112.811 34.5284C115.463 34.3513 118.091 34.4679 120.701 34.9903C120.952 35.0396 121.174 35.1203 121.333 35.3288H121.331Z" fill="#FEFEFE"/>
<path d="M121.33 35.3329C119.922 35.0863 118.516 34.8218 117.084 34.75C106.517 34.2209 97.8318 38.0323 91.5049 46.4912C78.9318 63.3015 87.5186 87.3511 108.127 92.4695C108.349 92.5256 108.571 92.5794 108.793 92.6332C108.616 92.6915 108.591 92.8484 108.558 92.9986C108.405 93.6891 108.266 94.3819 108.098 95.0702C108.022 95.3841 108.149 95.4737 108.425 95.532C109.903 95.8414 111.394 96.0522 112.898 96.1486C117.824 96.458 122.581 95.6912 127.157 93.8281C130.756 92.3641 133.977 90.3038 136.838 87.6784C137.116 87.4228 137.275 87.4071 137.531 87.7098C137.957 88.212 138.43 88.6783 138.898 89.1447C139.129 89.3734 139.163 89.5236 138.892 89.7724C133.35 94.8572 126.861 97.9197 119.398 98.8502C111.757 99.803 104.558 98.3838 97.8116 94.6689C97.6637 94.5882 97.5247 94.4828 97.3408 94.5142C97.0516 94.5635 96.8431 94.3797 96.6256 94.2452C94.8298 93.1376 93.1303 91.9001 91.5542 90.4899C89.1463 88.3353 87.0366 85.9274 85.2789 83.2124C82.5279 78.9684 80.7612 74.3544 80.0079 69.3526C79.8039 67.9984 79.703 66.6398 79.6402 65.2722C79.4362 60.7434 80.1335 56.3536 81.6401 52.0939C83.1019 47.9642 85.2721 44.2313 88.1441 40.9154C88.8078 40.1487 89.4893 39.3954 90.2135 38.6847C90.3839 38.5165 90.5498 38.2565 90.8704 38.3798C90.9085 38.7004 91.1753 38.8663 91.3659 39.077C91.7156 39.4649 92.1102 39.8124 92.4443 40.2137C92.7425 40.5747 92.9555 40.4491 93.2312 40.1958C94.9195 38.6376 96.7624 37.2835 98.7488 36.1288C102.751 33.7994 107.051 32.387 111.658 31.9005C114.923 31.5575 118.16 31.7256 121.377 32.3713C121.974 32.4924 121.976 32.4901 121.844 33.0843C121.675 33.8331 121.503 34.5819 121.33 35.3307V35.3329Z" fill="#5E5E5E"/>
<path d="M114.99 105.025C114.99 105.762 114.99 106.502 114.988 107.24C114.988 107.664 114.782 107.877 114.371 107.879C108.679 107.888 103.188 106.787 97.9956 104.493C84.1289 98.3638 75.3268 87.9006 72.0199 73.0924C67.8318 54.3316 76.8334 34.7951 93.6776 25.5111C99.1704 22.4844 105.033 20.6841 111.288 20.164C112.362 20.0743 113.436 20.0205 114.512 20.0003C114.869 19.9936 115.008 20.0945 114.994 20.4666C114.97 21.1123 114.963 21.7603 114.997 22.4037C115.019 22.8409 114.855 22.944 114.443 22.9463C110.775 22.9642 107.183 23.5247 103.661 24.5336C101.915 25.0335 100.215 25.668 98.5449 26.3765C98.3768 26.7419 98.0315 26.8876 97.6975 27.0401C94.9465 28.3046 92.3772 29.8717 89.9917 31.7325C85.7207 35.0641 82.2299 39.0705 79.5485 43.7854C77.293 47.7536 75.773 51.9932 74.9031 56.4637C74.5802 58.1227 74.3897 59.802 74.2798 61.4924C74.2237 62.3533 74.2103 63.212 74.2058 64.0729C74.1924 67.9291 74.7685 71.7001 75.847 75.3971C77.3782 80.6478 79.8713 85.3985 83.2949 89.6583C85.7073 92.6625 88.5254 95.2363 91.6867 97.4424C95.2514 99.9265 99.1166 101.785 103.271 103.034C106.018 103.859 108.818 104.417 111.685 104.619C112.62 104.684 113.555 104.738 114.49 104.798C114.681 104.81 114.907 104.771 114.994 105.025H114.99Z" fill="#989898"/>
<path d="M114.99 105.019C110.374 104.958 105.877 104.23 101.511 102.703C96.848 101.071 92.6151 98.6852 88.8059 95.5375C85.6537 92.9323 82.9521 89.9259 80.7191 86.5046C77.3135 81.2853 75.1768 75.5885 74.3316 69.4096C74.0043 67.0264 73.8787 64.632 73.9931 62.2375C74.233 57.1998 75.3405 52.3527 77.3359 47.7141C78.8761 44.1314 80.8738 40.8222 83.3713 37.8292C86.5617 34.0067 90.2879 30.8096 94.6374 28.3547C95.9108 27.635 97.2157 26.9848 98.5429 26.375C98.6662 27.0745 99.0564 27.6686 99.3187 28.3143C99.424 28.5744 99.4756 28.8793 99.729 29.0631C99.7828 29.3748 99.5137 29.4084 99.3366 29.4869C97.3636 30.3657 95.4938 31.4284 93.7092 32.6391C92.1039 33.7287 90.5995 34.9416 89.1736 36.2621C85.7254 39.4569 83.0037 43.192 80.9455 47.4024C79.1003 51.1757 77.9345 55.1574 77.4121 59.3342C77.1363 61.5425 77.0803 63.7553 77.1812 65.9614C77.3224 69.0262 77.8829 72.0327 78.7752 74.9764C79.8536 78.5367 81.432 81.857 83.479 84.9576C84.4879 86.4867 85.6245 87.917 86.8442 89.2869C88.8732 91.5625 91.1712 93.5197 93.6756 95.2438C94.2831 95.663 94.9109 96.0532 95.5454 96.4298C95.7382 96.5442 95.8996 96.6742 95.9579 96.9006C96.2471 97.2167 96.6484 97.3557 97.0094 97.5486C101.514 99.9564 106.305 101.425 111.396 101.9C117.804 102.497 123.967 101.526 129.893 99.0282C130.24 98.8825 130.408 98.9139 130.547 99.2793C130.76 99.8398 131.021 100.38 131.263 100.929C131.527 101.53 131.527 101.535 130.938 101.781C128.263 102.902 125.501 103.743 122.651 104.29C120.122 104.774 117.566 104.994 114.995 105.026L114.99 105.019Z" fill="#707070"/>
<path d="M95.9576 96.8951C94.5025 96.1486 93.1663 95.2159 91.8726 94.2227C85.9493 89.6782 81.7186 83.8872 79.1628 76.8721C78.1471 74.0831 77.5059 71.2089 77.1337 68.2719C76.8602 66.1152 76.8311 63.9405 76.9544 61.7814C77.2257 57.0554 78.3377 52.5243 80.3107 48.2086C81.8621 44.8142 83.8665 41.7203 86.308 38.8999C89.2159 35.5414 92.626 32.8107 96.5046 30.6517C97.5539 30.0688 98.6278 29.5397 99.7286 29.0599C103.639 27.3493 107.719 26.3157 111.974 25.9884C119.606 25.3988 126.774 26.9614 133.48 30.6495C133.858 30.8572 133.938 31.1487 133.722 31.5238C133.421 32.044 133.101 32.5506 132.829 33.0865C132.652 33.4362 132.491 33.4519 132.161 33.2658C129.155 31.5642 125.967 30.3042 122.581 29.6294C110.726 27.2641 100.246 30.0755 91.1821 38.0973C91.079 38.1892 90.9758 38.2811 90.8705 38.3708C88.1823 40.9177 85.9336 43.8053 84.1534 47.0539C82.1827 50.6501 80.8891 54.4749 80.2456 58.5261C79.9766 60.2143 79.8241 61.9182 79.8152 63.6199C79.7995 67.1577 80.2681 70.6372 81.2859 74.0383C82.6311 78.5357 84.7969 82.5936 87.7608 86.2211C90.3414 89.3823 93.386 92.0189 96.8835 94.1263C97.0539 94.2294 97.2377 94.3146 97.3386 94.503C96.8768 95.3011 96.4149 96.0992 95.9508 96.8974L95.9576 96.8951Z" fill="#8E8E8E"/>
<path d="M151.492 62.299C152.512 61.9044 153.518 61.8125 154.532 61.9156C156.393 62.1039 157.922 62.8348 158.641 64.6979C159.863 67.8635 157.913 71.0695 154.512 71.4955C152.164 71.7892 150.106 71.1278 148.333 69.5607C148.109 69.3634 148.093 69.2446 148.301 69.0226C148.7 68.5967 149.082 68.1505 149.44 67.6909C149.615 67.4689 149.714 67.4488 149.934 67.6461C150.794 68.4173 151.759 69.0002 152.933 69.1639C153.458 69.2379 153.978 69.2087 154.487 69.0697C155.754 68.7267 156.458 67.7739 156.402 66.4892C156.352 65.3346 155.478 64.4535 154.16 64.2271C153.063 64.041 152.014 64.2226 151.005 64.6508C150.738 64.7629 150.557 64.7225 150.29 64.6104C149.209 64.1576 148.992 63.3908 149.12 62.281C149.321 60.5121 149.369 58.723 149.458 56.9429C149.474 56.6223 149.568 56.5371 149.884 56.5371C152.561 56.5506 155.236 56.5483 157.913 56.5371C158.206 56.5371 158.323 56.6089 158.31 56.9205C158.287 57.4272 158.283 57.9361 158.31 58.4428C158.328 58.7768 158.202 58.8531 157.888 58.8508C155.996 58.8396 154.104 58.8553 152.214 58.8351C151.824 58.8306 151.689 58.9181 151.678 59.3328C151.651 60.2991 151.561 61.2609 151.492 62.2945V62.299Z" fill="#FEFEFE"/>
<path d="M140.376 65.2901C141.529 65.2901 142.683 65.3013 143.836 65.2834C144.163 65.2789 144.271 65.373 144.235 65.7004C144.143 66.494 144.067 67.2899 143.997 68.0858C143.975 68.3481 143.878 68.4468 143.596 68.4445C141.352 68.4333 139.105 68.4333 136.861 68.4445C136.599 68.4445 136.518 68.3616 136.522 68.1015C136.538 67.3011 136.54 66.503 136.522 65.7026C136.513 65.391 136.626 65.317 136.919 65.3192C138.072 65.3327 139.226 65.326 140.379 65.326V65.2946L140.376 65.2901Z" fill="#FEFEFE"/>
<path d="M140.345 62.4049C139.193 62.4049 138.04 62.3959 136.888 62.4116C136.61 62.4161 136.511 62.3444 136.52 62.0529C136.54 61.2862 136.534 60.5172 136.52 59.7482C136.516 59.4971 136.583 59.3984 136.854 59.3984C139.112 59.4074 141.372 59.4074 143.629 59.3984C143.86 59.3984 143.952 59.4679 143.972 59.7033C144.042 60.4836 144.127 61.2615 144.221 62.0372C144.255 62.3152 144.143 62.3735 143.892 62.3713C142.708 62.3623 141.526 62.3668 140.343 62.3668V62.4004L140.345 62.4049Z" fill="#FEFEFE"/>
<path d="M118.079 63.9064C118.079 61.5994 118.088 59.2924 118.07 56.9854C118.068 56.5886 118.191 56.5056 118.564 56.5079C122.01 56.5213 125.455 56.5213 128.901 56.5079C129.251 56.5079 129.386 56.5863 129.368 56.963C129.336 57.6378 129.336 58.3171 129.368 58.992C129.383 59.3529 129.256 59.4202 128.924 59.4202C126.554 59.4067 124.187 59.4247 121.817 59.4022C121.411 59.3978 121.288 59.4964 121.31 59.9067C121.348 60.5972 121.339 61.2922 121.312 61.9827C121.299 62.3258 121.4 62.4267 121.747 62.4244C124.101 62.4087 126.455 62.4289 128.807 62.4065C129.24 62.402 129.401 62.4917 129.368 62.9558C129.323 63.5992 129.336 64.2471 129.366 64.8928C129.381 65.2426 129.276 65.33 128.931 65.3278C126.561 65.3121 124.193 65.3278 121.823 65.3121C121.436 65.3098 121.283 65.3793 121.308 65.8075C121.348 66.5272 121.339 67.2536 121.31 67.9755C121.297 68.3365 121.402 68.4441 121.77 68.4419C124.124 68.4262 126.478 68.4419 128.83 68.4262C129.233 68.4239 129.395 68.5046 129.368 68.9485C129.325 69.6234 129.35 70.3027 129.361 70.9775C129.366 71.2152 129.332 71.3385 129.045 71.3385C125.491 71.3295 121.938 71.3295 118.384 71.3385C118.032 71.3385 118.079 71.1367 118.079 70.9215C118.079 68.5831 118.079 66.2447 118.079 63.9064Z" fill="black"/>
<path d="M106.529 68.471C109.138 68.471 111.645 68.4822 114.151 68.4598C114.577 68.4553 114.703 68.5719 114.678 68.9934C114.642 69.6368 114.642 70.2847 114.678 70.9304C114.701 71.325 114.508 71.334 114.212 71.334C110.876 71.3273 107.54 71.3295 104.202 71.3295C103.679 71.3295 103.157 71.3205 102.634 71.334C102.397 71.3407 102.312 71.2667 102.318 71.0201C102.334 70.3744 102.336 69.7287 102.318 69.083C102.312 68.8297 102.462 68.6907 102.598 68.5293C105.123 65.5901 107.647 62.6531 110.172 59.7139C110.248 59.6242 110.32 59.53 110.401 59.4291C110.221 59.317 110.049 59.3686 109.887 59.3686C107.612 59.3641 105.336 59.3574 103.06 59.3753C102.679 59.3776 102.556 59.2789 102.574 58.8911C102.605 58.2319 102.594 57.5683 102.578 56.9092C102.572 56.6222 102.641 56.5056 102.957 56.5078C106.739 56.5168 110.522 56.5168 114.304 56.5078C114.571 56.5078 114.723 56.5661 114.674 56.8666C114.672 56.8823 114.672 56.8979 114.674 56.9136C114.905 58.3507 114.389 59.4448 113.396 60.5232C111.158 62.9535 109.062 65.5138 106.908 68.0204C106.8 68.1437 106.699 68.2737 106.533 68.4732L106.529 68.471Z" fill="black"/>
<path d="M85.5322 65.0674V62.8613C85.5457 62.8613 85.5614 62.8613 85.5748 62.8613V65.1055C85.5614 65.0921 85.5457 65.0809 85.5322 65.0674Z" fill="#454545"/>
</g>
<defs>
<clipPath id="clip0_475_2978">
<rect width="231" height="127" fill="white"/>
</clipPath>
</defs>
</svg>
