<svg width="227" height="43" viewBox="0 0 227 43" fill="none" xmlns="http://www.w3.org/2000/svg">
<path d="M22.8588 0C22.9491 0.0574836 23.0313 0.147817 23.1298 0.156029C23.7621 0.229936 24.3944 0.262784 25.0185 0.361327C25.5605 0.443447 26.1025 0.550196 26.6199 0.714435C27.5232 1.00185 28.4347 1.28107 29.3052 1.65881C30.3809 2.1269 31.4567 2.64425 32.4668 3.23551C33.9367 4.09776 35.2671 5.17352 36.4496 6.40531C38.1412 8.17088 39.5865 10.1253 40.5391 12.4082C41.0072 13.5333 41.4917 14.6665 41.812 15.8408C42.1076 16.9166 42.2308 18.0498 42.3621 19.1585C42.4689 20.1028 42.5264 21.0636 42.5018 22.008C42.4771 22.9113 42.2965 23.8064 42.2143 24.7097C42.0912 25.9826 41.6559 27.1404 41.04 28.2491C40.1532 29.8422 38.8967 31.0411 37.2297 31.7802C36.2771 32.2072 35.2753 32.4618 34.2159 32.4782C33.3783 32.4946 32.5325 32.6342 31.6949 32.585C30.7423 32.5275 29.7897 32.3386 28.8535 32.1497C27.8681 31.9526 26.8827 31.6981 25.9054 31.4435C25.2485 31.271 24.608 31.0493 23.951 30.8687C23.409 30.7209 22.8588 30.5977 22.3168 30.4663C22.0951 30.4088 21.8734 30.3677 21.5695 30.2938C26.5049 23.5683 31.391 16.9002 36.2771 10.2403C36.2443 10.1992 36.2196 10.1664 36.1868 10.1253C35.7433 10.191 35.2999 10.2731 34.8565 10.3306C34.4048 10.3881 33.9613 10.4702 33.5097 10.4784C32.3682 10.4949 31.2268 10.5277 30.0935 10.4456C29.0834 10.3717 28.0898 10.1582 27.0797 10.0021C26.3243 9.88717 25.5605 9.7722 24.8051 9.6326C24.0824 9.50121 23.3597 9.32875 22.6371 9.18094C22.3168 9.11524 21.9884 9.02492 21.6681 9.0085C20.4281 8.93459 19.1716 8.75392 17.9481 8.85247C16.5028 8.96743 15.1642 9.51764 14.1459 10.6262C13.5629 11.2586 13.1851 12.0059 12.9716 12.8681C12.7006 13.9849 12.8895 14.9868 13.4972 15.9147C14.0474 16.7524 14.844 17.1958 15.8622 17.3682C16.7245 17.5161 17.5128 17.4093 18.2191 16.9659C19.0895 16.4239 19.6069 15.6109 19.7219 14.568C19.8615 13.3116 19.5658 12.2111 18.6461 11.2996C18.5065 11.16 18.3587 10.8315 18.4244 10.7494C18.564 10.5605 18.8267 10.3963 19.0567 10.3635C20.1407 10.2403 21.1918 10.3799 22.2183 10.7494C22.8834 10.9876 23.5732 11.16 24.2548 11.3407C24.9775 11.5378 25.7084 11.7184 26.4721 11.9155C21.627 18.6165 16.7738 25.3338 11.8548 32.1333C12.1915 32.1333 12.4214 32.1662 12.6432 32.1333C13.9899 31.9198 15.3367 31.9198 16.6834 32.1333C17.1597 32.2072 17.6524 32.2072 18.1123 32.3222C19.1799 32.585 20.272 32.8149 21.2903 33.2173C22.8752 33.8496 24.4109 34.6133 25.9711 35.3195C27.1783 35.8697 28.3772 36.4446 29.6172 36.9291C30.5534 37.2986 31.5306 37.5532 32.4996 37.8324C33.0088 37.9802 33.5343 38.0788 34.1831 38.2348C33.2058 38.8342 32.3436 39.4666 31.3992 39.9347C30.1757 40.5505 28.9028 41.0843 27.6217 41.5688C26.8745 41.848 26.0615 41.9384 25.2813 42.1354C24.2302 42.3982 23.1462 42.3572 22.0869 42.5132C20.9618 42.6774 19.8697 42.5132 18.7939 42.4064C16.0183 42.1272 13.3822 41.2732 10.9351 39.9182C9.56369 39.1627 8.29905 38.243 7.12474 37.2001C4.95679 35.2785 3.26513 33.0202 2.01692 30.417C1.45029 29.2263 1.0397 27.9781 0.661951 26.7134C-0.0853349 24.1759 -0.0524962 21.5892 0.0624709 18.9942C0.0953187 18.2141 0.300624 17.4257 0.505923 16.662C0.817976 15.4959 1.10539 14.3052 1.56526 13.1966C2.03334 12.0469 2.64103 10.9383 3.28977 9.87896C4.30805 8.22015 5.58089 6.75021 7.04262 5.46093C8.73428 3.96636 10.5902 2.70993 12.6924 1.85589C13.7107 1.4453 14.7454 1.06755 15.7965 0.739069C16.4207 0.541983 17.0858 0.468082 17.7346 0.361327C18.2601 0.279208 18.8021 0.238144 19.3277 0.164236C19.4016 0.156024 19.4673 0.065691 19.533 0.00820743C20.6416 0.00820743 21.7584 0.00820743 22.867 0.00820743L22.8588 0Z" fill="#A8A8A8"/>
<path d="M146.129 7.95717V7.19346H156.747V13.9765C156.788 13.9765 156.837 13.9929 156.878 14.0012C157.067 13.5495 157.248 13.0978 157.445 12.6462C158.003 11.3651 158.742 10.1826 159.728 9.20539C160.754 8.1789 161.97 7.42339 163.382 6.98816C164.203 6.7418 165.008 6.52008 165.87 6.48723C166.388 6.47081 166.913 6.34763 167.431 6.37226C168.441 6.42154 169.443 6.54471 170.436 6.8075C171.619 7.11955 172.719 7.57942 173.705 8.30207C174.739 9.06578 175.446 10.0759 175.905 11.2666C176.045 11.6361 176.144 12.0221 176.267 12.3916C176.3 12.4902 176.365 12.5723 176.456 12.638C176.981 11.4144 177.655 10.3797 178.476 9.45996C179.207 8.64698 180.085 7.99823 181.079 7.52194C182.27 6.95532 183.501 6.53651 184.84 6.49545C185.538 6.47903 186.244 6.33942 186.942 6.38869C188.872 6.53651 190.769 6.84856 192.42 7.99002C193.577 8.78657 194.39 9.84592 194.932 11.1352C195.515 12.523 195.786 13.9601 195.778 15.4629C195.778 16.0706 195.893 16.67 195.893 17.2777C195.86 22.4841 195.803 27.6987 195.762 32.905C195.762 33.6359 195.967 34.2682 196.567 34.7527C197.24 35.2947 198.004 35.2372 198.767 35.0976C199.63 34.9334 200.426 34.5967 201.141 34.0629C201.387 33.8823 201.494 34.1368 201.568 34.2846C201.658 34.4489 201.962 34.6542 201.592 34.8513C201.001 35.1633 200.443 35.5493 199.819 35.771C198.866 36.1241 197.848 36.3376 196.829 36.2719C195.162 36.1652 193.528 35.8449 192.28 34.6213C191.533 33.8905 190.909 33.0529 190.605 32.0017C190.367 31.1805 190.276 30.3593 190.276 29.5217C190.235 23.5598 190.186 17.6062 190.153 11.6443C190.153 10.2647 189.669 9.10685 188.601 8.22817C187.952 7.69439 187.172 7.34128 186.318 7.34128C185.423 7.34128 184.511 7.3577 183.641 7.52194C182.434 7.75188 181.325 8.26922 180.315 8.99187C178.845 10.043 177.827 11.4472 177.162 13.0978C176.891 13.7712 176.702 14.5021 176.603 15.2247C176.472 16.2348 176.423 17.2613 176.415 18.2796C176.39 21.3016 176.415 24.3318 176.398 27.3538C176.39 29.1768 176.3 31.0081 176.291 32.8311C176.291 33.4552 176.423 34.0711 176.891 34.5638C177.556 35.2701 178.394 35.2783 179.223 35.1223C180.102 34.958 180.939 34.6378 181.67 34.0711C181.958 33.8494 182.048 34.2436 182.188 34.3832C182.401 34.5967 182.253 34.8102 182.056 34.917C181.498 35.229 180.939 35.5575 180.348 35.7792C179.379 36.1405 178.353 36.3376 177.318 36.2719C175.331 36.1487 173.491 35.6314 172.194 33.9562C171.528 33.0939 171.019 32.1495 170.954 31.0327C170.88 29.6695 170.789 28.2981 170.781 26.935C170.756 22.3855 170.814 17.8361 170.748 13.2785C170.732 11.94 170.674 10.5686 169.96 9.33677C169.418 8.40882 168.679 7.76829 167.628 7.48909C166.33 7.13597 165.09 7.34949 163.842 7.78472C162.019 8.42525 160.574 9.55029 159.44 11.0777C158.603 12.2027 157.913 13.4345 157.585 14.8141C157.363 15.7421 157.149 16.6865 157.092 17.639C156.969 19.6017 156.919 21.5643 156.911 23.527C156.887 26.7871 156.911 30.0473 156.911 33.3074C156.911 34.3585 157.79 35.1469 158.808 35.1715C159.999 35.2044 161.091 34.8677 162.035 34.1615C162.454 33.8494 162.545 34.1943 162.733 34.3914C162.963 34.6295 162.775 34.7774 162.586 34.9005C161.838 35.4097 161.034 35.8121 160.138 35.9763C159.424 36.1077 158.701 36.2884 157.987 36.2637C156.476 36.2062 154.981 35.9435 153.75 34.9662C152.846 34.2518 152.156 33.3567 151.771 32.2399C151.343 31.0081 151.27 29.7434 151.27 28.4624C151.27 21.86 151.27 15.2494 151.27 8.64697C151.27 8.21448 151.056 7.99824 150.629 7.99824C149.249 7.99824 147.878 7.99824 146.498 7.99824C146.392 7.99824 146.277 7.99003 146.137 7.9736L146.129 7.95717Z" fill="#A8A8A8"/>
<path d="M149.563 33.9971C149.727 34.2271 149.883 34.4406 150.064 34.6951C149.062 35.3685 148.076 36.0091 146.869 36.124C145.851 36.2226 144.824 36.2965 143.806 36.2636C141.581 36.1897 139.791 34.7937 139.076 32.675C138.912 32.1905 138.731 31.706 138.518 31.0901C138.222 31.6649 137.984 32.1412 137.738 32.6093C137.015 33.9643 135.882 34.8347 134.502 35.4588C132.605 36.3129 130.601 36.3293 128.589 36.28C126.865 36.239 125.231 35.8448 123.753 34.9415C122.677 34.2845 121.905 33.3812 121.544 32.1248C121.223 31.008 121.158 29.8829 121.281 28.7661C121.494 26.8363 122.48 25.35 124.139 24.2988C125.362 23.5269 126.701 23.067 128.072 22.6482C129.739 22.1391 131.39 21.5971 133.04 21.0305C134.108 20.6692 135.175 20.2996 136.194 19.8233C137.376 19.2731 138.148 18.337 138.452 17.0231C138.789 15.5613 138.846 14.0914 138.723 12.6215C138.624 11.4471 138.542 10.2482 137.935 9.17245C137.467 8.35946 136.826 7.79285 135.931 7.47258C134.822 7.07841 133.673 7.07019 132.539 7.19337C131.455 7.30833 130.363 7.55469 129.476 8.31019C128.877 8.81933 128.589 9.4845 128.598 10.2154C128.598 11.0858 128.819 11.9563 128.86 12.8268C128.901 13.6315 129.197 14.4363 128.754 15.2411C128.474 15.7502 128.064 16.0623 127.571 16.2429C127.037 16.4318 126.446 16.6371 125.896 16.596C124.36 16.4893 123.383 15.8734 123.26 14.0339C123.104 11.8413 123.941 10.0758 125.584 8.66331C126.479 7.89139 127.514 7.34939 128.647 7.0127C129.443 6.78277 130.256 6.5939 131.061 6.3886C131.168 6.36396 131.283 6.36397 131.39 6.35576C131.981 6.30649 132.564 6.22437 133.155 6.21616C133.73 6.21616 134.305 6.30649 134.888 6.33112C136.916 6.40503 138.83 6.88131 140.562 7.98992C142.008 8.91787 143.034 10.1661 143.593 11.7921C143.855 12.5476 144.069 13.303 144.094 14.1078C144.118 14.9044 144.225 15.7009 144.225 16.4975C144.233 21.7942 144.225 27.0991 144.225 32.3958C144.225 33.2252 144.34 34.03 145.054 34.5637C145.35 34.7855 145.761 34.9333 146.13 34.9826C147.37 35.1386 148.479 34.7362 149.554 33.9971H149.563ZM138.583 19.2896C138.427 19.3963 138.321 19.4292 138.28 19.4949C137.82 20.275 137.031 20.6117 136.259 20.9319C134.445 21.6957 132.58 22.3526 130.774 23.1409C128.614 24.0853 127.251 25.7441 126.931 28.0928C126.742 29.5298 126.832 30.9834 127.399 32.363C127.998 33.8165 129.09 34.7444 130.634 34.9497C131.809 35.1057 133.024 35.1222 134.19 34.6705C135.405 34.2024 136.358 33.4305 137.056 32.3547C137.869 31.1065 138.222 29.6859 138.394 28.2324C138.518 27.1484 138.551 26.0562 138.567 24.9722C138.592 23.2641 138.567 21.556 138.567 19.8562V19.2978L138.583 19.2896Z" fill="#A8A8A8"/>
<path d="M226.475 28.241C226.023 29.2428 225.638 30.2447 225.145 31.1891C224.266 32.8479 222.895 34.0304 221.277 34.9419C220.103 35.5989 218.854 36.0505 217.5 36.1327C216.177 36.2066 214.839 36.3462 213.525 36.2476C212.112 36.1491 210.716 35.8288 209.361 35.3525C207.933 34.8516 206.619 34.17 205.428 33.2585C204.278 32.3716 203.276 31.3287 202.455 30.1215C201.782 29.1361 201.24 28.0932 200.862 26.9681C200.616 26.2455 200.468 25.4982 200.287 24.7509C199.934 23.3302 199.893 21.8767 199.992 20.4314C200.057 19.5363 200.271 18.6494 200.46 17.7708C200.764 16.3665 201.363 15.0773 202.086 13.8455C203.112 12.0881 204.434 10.5935 206.044 9.34532C207.235 8.42559 208.532 7.70293 209.936 7.16094C211.267 6.6518 212.638 6.42187 214.059 6.29048C214.905 6.20836 215.726 6.27405 216.514 6.39723C219.479 6.84067 222.074 8.07247 224.044 10.3964C225.063 11.5954 225.876 12.9422 226.286 14.4778C226.508 15.3072 226.648 16.153 226.787 16.9988C226.886 17.6312 226.927 18.2799 227.001 18.9861C226.713 18.9861 226.524 18.9861 226.327 18.9861C219.947 18.9861 213.574 18.9861 207.194 18.9861C206.594 18.9861 206.594 18.9861 206.594 19.5692C206.594 21.4661 206.561 23.3713 206.635 25.2683C206.676 26.2865 206.923 27.2966 207.079 28.3149C207.3 29.7027 207.809 30.992 208.606 32.1417C209.534 33.4802 210.716 34.5067 212.301 34.9994C213.426 35.3525 214.584 35.5168 215.759 35.4593C217.836 35.3607 219.832 34.9501 221.581 33.743C223.067 32.7165 224.135 31.3533 224.792 29.6699C224.972 29.2018 225.137 28.7255 225.317 28.2574C225.399 28.0357 225.572 27.9371 225.81 28.0193C225.991 28.0767 226.171 28.1424 226.459 28.241H226.475ZM213.451 18.1649C213.837 18.1649 214.231 18.1649 214.617 18.1649C216.325 18.1649 218.033 18.1649 219.741 18.1649C220.275 18.1649 220.292 18.1485 220.308 17.5983C220.308 17.393 220.324 17.1795 220.324 16.9742C220.283 14.8473 220.563 12.6876 219.807 10.6182C219.446 9.62452 218.928 8.75406 218.05 8.11353C217.401 7.64545 216.687 7.42373 215.906 7.27591C214.527 7.00492 213.172 7.08704 211.874 7.54691C210.216 8.13817 209.041 9.3289 208.269 10.8974C207.801 11.85 207.415 12.8354 207.259 13.8947C207.095 14.9869 206.923 16.0873 206.758 17.1795C206.742 17.3027 206.758 17.4341 206.717 17.549C206.569 18.0992 206.602 18.1567 207.152 18.1567C209.247 18.1567 211.349 18.1567 213.443 18.1567L213.451 18.1649Z" fill="#A8A8A8"/>
<path d="M54.5469 35.4262C60.0489 26.2616 65.5098 17.1792 71.0118 8.01471C70.7408 7.99829 70.6094 7.98187 70.4781 7.98187C68.1294 7.98187 65.7808 7.9326 63.4322 8.02293C62.3482 8.06399 61.2314 8.1461 60.2378 8.78664C59.3591 9.35326 58.6939 10.0923 58.2094 10.9792C57.6428 11.9975 57.1829 13.0733 56.6656 14.1162C56.5588 14.3379 56.4439 14.5843 56.0825 14.4282C56.0825 14.3461 56.0497 14.2394 56.0579 14.1408C56.1482 13.451 56.255 12.7612 56.3535 12.0632C56.4192 11.5869 56.4849 11.1106 56.5342 10.6343C56.6081 9.95273 56.6574 9.26293 56.7395 8.58134C56.7887 8.12968 56.8791 7.68624 56.9612 7.20995H77.7949C72.3257 16.3088 66.8976 25.3501 61.4285 34.4572C61.6502 34.4818 61.7488 34.5064 61.8555 34.5064C64.9514 34.5064 68.0555 34.5064 71.1514 34.5064C72.802 34.5064 74.1406 33.8166 75.2574 32.6095C76.1361 31.6569 76.678 30.5318 77.0804 29.3165C77.3186 28.6102 77.5239 27.8876 77.7703 27.1814C77.8524 26.9432 78.0002 26.7215 78.4026 26.9104C78.3615 27.1978 78.3204 27.5181 78.2712 27.8383C78.263 27.904 78.2383 27.9697 78.2383 28.0436C78.1726 28.9223 78.1151 29.801 78.0412 30.6797C77.9345 31.8704 77.8113 33.0611 77.6881 34.2519C77.6553 34.5475 77.6142 34.8513 77.5403 35.1387C77.5074 35.2537 77.3761 35.3523 77.2693 35.4179C77.1954 35.459 77.0804 35.4262 76.9819 35.4262C69.6897 35.4262 62.3893 35.4262 55.0971 35.4262H54.5633H54.5469Z" fill="#A8A8A8"/>
<path d="M120.45 7.99029H115.145C115.112 7.89996 115.087 7.86711 115.079 7.82605C115.046 7.38261 115.252 7.16089 115.695 7.16089C118.61 7.16089 121.534 7.16089 124.449 7.16089H125.016V7.98208C124.498 7.98208 123.973 7.98208 123.455 7.98208C122.971 7.98208 122.478 8.02314 121.994 7.97387C121.534 7.9246 121.37 8.17096 121.222 8.52407C120.655 9.90368 120.08 11.2833 119.497 12.6547C118.964 13.9275 118.422 15.2004 117.88 16.4732C117.354 17.705 116.82 18.9368 116.303 20.1768C115.654 21.7289 115.014 23.2891 114.365 24.833C113.962 25.7856 113.544 26.7217 113.141 27.6743C112.484 29.2264 111.844 30.7784 111.195 32.3305C110.801 33.2666 110.398 34.2028 109.996 35.1389C109.898 35.3689 109.758 35.5167 109.462 35.4756C109.175 35.4428 108.871 35.4346 108.592 35.4756C108.181 35.5413 108.033 35.3114 107.918 34.9993C107.565 34.1042 107.22 33.2009 106.859 32.3058C106.325 30.9837 105.783 29.6698 105.241 28.3559C104.699 27.042 104.149 25.7281 103.615 24.406C103.041 23.0017 102.482 21.5811 101.916 20.1768C101.382 18.8547 100.832 17.5408 100.298 16.2269C99.7804 14.9458 99.2631 13.6647 98.7457 12.3755C98.1873 10.9794 97.6289 9.57519 97.0458 8.19559C96.9966 8.07241 96.7338 7.98208 96.5696 7.98208C95.346 7.96566 94.1224 7.96566 92.8988 7.98208C92.5868 7.98208 92.4061 7.94102 92.4143 7.55506C92.4143 7.19373 92.595 7.15268 92.8824 7.15268C97.9163 7.15268 102.942 7.15268 107.976 7.15268C108.436 7.15268 108.452 7.18552 108.354 7.95745H102.991C105.833 14.8719 108.641 21.7042 111.499 28.6433C111.655 28.4134 111.803 28.2573 111.877 28.0685C112.624 26.3029 113.355 24.5291 114.102 22.7718C114.726 21.3183 115.375 19.873 115.999 18.4112C116.697 16.7771 117.387 15.1429 118.077 13.5087C118.651 12.162 119.235 10.8152 119.809 9.46844C120.006 9.00857 120.195 8.5487 120.433 7.98208L120.45 7.99029Z" fill="#A8A8A8"/>
<path d="M79.934 7.98199V7.18543C80.0982 7.17722 80.2461 7.1608 80.3939 7.1608C83.6458 7.1608 86.8977 7.1608 90.1415 7.1608C90.6834 7.1608 90.6834 7.1608 90.6834 7.72742C90.6834 16.4403 90.6834 25.1531 90.6834 33.8578V34.4819H95.6352C95.6763 34.5558 95.6927 34.5722 95.7009 34.5969C95.7393 35.1498 95.4874 35.4263 94.9454 35.4263C90.1989 35.4263 85.4442 35.4263 80.6977 35.4263C79.8273 35.4263 79.8273 35.4181 79.9669 34.4901H80.4103C81.7981 34.4901 83.186 34.4819 84.5738 34.4901C84.9515 34.4901 85.0747 34.3834 85.0747 33.9974C85.0583 30.7783 85.0747 27.5592 85.0747 24.3402C85.0747 19.0845 85.0747 13.8289 85.0747 8.56503C85.0747 8.16538 84.8749 7.96556 84.4752 7.96556C83.1284 7.96556 81.7817 7.96556 80.4349 7.96556C80.2871 7.96556 80.1311 7.96556 79.9504 7.96556L79.934 7.98199Z" fill="#A8A8A8"/>
</svg>
